<svg id="Layer_1" data-name="Layer 1" xmlns="http://www.w3.org/2000/svg" viewBox="0 0 512 512"><defs><style>.cls-1{fill:#0267ff;}</style></defs><path class="cls-1" d="M204.06,145.43s-33.48,32.84-55,8.95c-30-33.29,17-61.4,25.37-65.88S246.06,44.58,316,76.13s51.6,113,48.19,122.39S351,225.81,336,241.16c0,0-6.51,2.67,0,5.65,0,0,48.61,43,34.11,104.8S307,448.84,254.59,448s-121.11-27.71-111.73-65.67c0,0,10.24-33.26,41.37-24.3,0,0,29.42,23.66,57.35,24.94,18.75.86,64.61-.85,68-56.93,0,0,6-53-77-48.18,0,0-23.32-1.42-23.32-33.55s31.84-30.42,38.38-30.42,62.26,0,60-51.74S228.15,127,204.06,145.43Z"/></svg>