<svg id="Layer_1" data-name="Layer 1" xmlns="http://www.w3.org/2000/svg" viewBox="0 0 512 512"><defs><style>.cls-1{fill:#92ff9f;}</style></defs><path class="cls-1" d="M365.53,272.12a135.86,135.86,0,0,0-21-28.26c13.39-14.61,23.23-31.64,27.21-42.61,1.83-5,7.82-29.36,3.81-56.77-5.16-35.21-24.6-61.37-56.22-75.64A144.16,144.16,0,0,0,259.65,56c-29,0-58.46,8.27-87.45,24.59l-1.55.87c-5.76,3.1-34.71,19.81-39,44.33-2.05,11.84,1.8,23.27,11.44,34A32.79,32.79,0,0,0,168,171.09h0c19.72,0,38.25-16.68,41.29-19.56,10.65-7.93,33.85-16.05,54.73-16.05,22.86,0,34.85,9.08,35.64,27,.54,12.39-2.5,21.87-9.32,29-12.44,13-34,14.41-42.68,14.41h-2.53c-27.86,0-43.84,14-43.84,38.43,0,31.37,20.16,40.88,30.82,41.53l.48,0,.47,0c3.4-.19,6.72-.29,9.89-.29,23.66,0,40.54,5.37,50.16,16a33.07,33.07,0,0,1,8.58,23.64l0,.2,0,.21c-2,32.88-20.32,49.55-54.47,49.55-1.68,0-3.38,0-5.19-.13-24.93-1.14-52.44-23-52.71-23.19l-1.25-1-1.55-.44A45.16,45.16,0,0,0,174,348.48c-28.77,0-38.4,30.2-38.79,31.48l-.07.22,0,.21c-2.84,11.47-.13,23,7.81,33.3,20.5,26.63,72.77,41.66,111.55,42.29l2,0h0a120.48,120.48,0,0,0,75.94-27.08c22.54-18.4,38.3-44.5,45.56-75.48C384.35,326.18,380.06,298.06,365.53,272.12Zm4.64,79.49c-14.5,61.83-63.11,97.23-115.56,96.37S133.5,420.27,142.88,382.31c0,0,10.24-33.26,41.37-24.3,0,0,29.42,23.66,57.35,24.94,18.75.86,64.61-.85,68-56.93,0,0,6-53-77-48.18,0,0-23.31-1.42-23.31-33.55s31.84-30.42,38.37-30.42,62.26,0,60-51.74S228.17,127,204.08,145.43c0,0-33.48,32.84-55,8.95C119,121.09,166.12,93,174.44,88.5S246.08,44.58,316,76.13s51.59,113,48.18,122.39S351,225.81,336.06,241.16c0,0-6.5,2.67,0,5.65C336.06,246.81,384.67,289.78,370.17,351.61Z"/></svg>