<svg xmlns="http://www.w3.org/2000/svg" viewBox="0 0 512 512"><defs><style>.cls-1{isolation:isolate;}.cls-2{opacity:0.4;}.cls-3{fill:#003b49;}.cls-12,.cls-4{fill:#f23636;stroke:#a50e0e;}.cls-12,.cls-15,.cls-17,.cls-19,.cls-20,.cls-22,.cls-26,.cls-35,.cls-38,.cls-39,.cls-4,.cls-6,.cls-9{stroke-miterlimit:10;}.cls-4{stroke-width:2.56px;}.cls-5{fill:#f4a800;}.cls-17,.cls-6{fill:#ea2424;}.cls-20,.cls-22,.cls-6{stroke:#000;}.cls-22,.cls-6,.cls-9{stroke-width:2px;}.cls-7{fill:#f95353;}.cls-8{fill:#b52121;}.cls-9{fill:#c4000c;stroke:#680710;}.cls-10{fill:#e83d56;}.cls-11{fill:#ff83a1;}.cls-12{stroke-width:1.9px;}.cls-13{fill:#fc7c7c;}.cls-14{fill:#571094;}.cls-15{fill:#d6d6d0;stroke:#8e888a;}.cls-16{fill:#efefed;opacity:0.6;}.cls-17{stroke:#af0404;stroke-width:1.98px;}.cls-18{fill:#ff4824;}.cls-19{fill:#8b8c88;stroke:#383535;}.cls-20,.cls-22{fill:#32332e;}.cls-21{fill:#ff4821;}.cls-23{fill:#ff4822;}.cls-24,.cls-34{fill:#d7f7ff;}.cls-24{opacity:0.25;}.cls-25{fill:#9f1dfd;}.cls-26{fill:#25a4d6;stroke:#0b5b68;}.cls-27{fill:#9ae9f7;}.cls-28{fill:#defcff;}.cls-29{fill:#931ad8;}.cls-30{fill:#e5bfff;}.cls-31{fill:#5a1197;}.cls-32{fill:#941ad9;}.cls-33{fill:#b132ff;}.cls-34{opacity:0.37;}.cls-35{fill:#8aeeff;stroke:#044a66;stroke-width:1.61px;}.cls-36{fill:#fff;mix-blend-mode:soft-light;}.cls-37{fill:#5c0f95;}.cls-38,.cls-39{fill:#ff9022;stroke:#c96a0a;}.cls-38{stroke-width:0.82px;}.cls-39{stroke-width:0.82px;}</style></defs><g class="cls-1"><g id="Layer_1" data-name="Layer 1"><path class="cls-2" d="M393.8,423.25l-144.74,3L111.8,429.08c-2.73.06-4.47-2.78-3-4.83l17.53-17.5a3.3,3.3,0,0,1,2.67-1.29s87.85-7.75,115.24-7.71c31.67,0,132.81,4.05,132.81,4.05a3.53,3.53,0,0,1,2.81,1.37L396.3,418.5A3,3,0,0,1,393.8,423.25Z"/><polygon class="cls-3" points="216.54 409.38 166.76 409.2 167.04 369.17 216.82 369.35 216.54 409.38"/><polygon class="cls-3" points="373.38 389.57 197.05 388.93 197.33 348.89 373.66 349.53 373.38 389.57"/><path class="cls-4" d="M175.59,369.52,157,369.45a3.82,3.82,0,0,0-3.14,1.74l-32.35,46.72a.6.6,0,0,0,.39,1l49.94.18a3.7,3.7,0,0,0,3.43-3.9l.29-41.58,0-2.43Z"/><polygon class="cls-5" points="172.88 416.52 173.19 371.57 170.28 371.56 163.33 416.48 172.88 416.52"/><polygon class="cls-5" points="160.65 416.47 168.8 371.56 165.94 371.55 150.06 416.43 160.65 416.47"/><polygon class="cls-5" points="148.02 416.43 163.9 371.54 160.46 371.53 136.6 416.38 148.02 416.43"/><polygon class="cls-5" points="134.39 416.38 158.54 371.52 155.76 371.51 125.4 416.34 134.39 416.38"/><polygon class="cls-6" points="247.67 244.62 241.31 295.96 208.33 295.84 207.46 287.9 202.69 244.45 247.67 244.62"/><polygon class="cls-7" points="233.78 247.15 229.37 298.5 208.79 299.47 208.08 290.57 203.41 247.04 233.78 247.15"/><polygon class="cls-8" points="246.42 250.92 240.95 297.65 237.62 299.41 237.22 290.51 241.61 247.99 246.42 250.92"/><path class="cls-9" d="M249.47,251.63l-48.67-.18a3.83,3.83,0,0,1-3.75-3.93l0-3.84a3.85,3.85,0,0,1,3.8-3.9l48.67.17a3.84,3.84,0,0,1,3.75,3.93l0,3.84A3.87,3.87,0,0,1,249.47,251.63Z"/><path class="cls-10" d="M250,248.05l-49.72-.18a2.61,2.61,0,0,1-2.54-2.67l0-2.61a2.62,2.62,0,0,1,2.58-2.65l49.72.18a2.61,2.61,0,0,1,2.54,2.67l0,2.61A2.62,2.62,0,0,1,250,248.05Z"/><path class="cls-11" d="M250.29,245.62,200,245.44a1.82,1.82,0,0,1-1.78-1.87v-1.82a1.85,1.85,0,0,1,1.81-1.86l50.28.18a1.82,1.82,0,0,1,1.78,1.87v1.83A1.84,1.84,0,0,1,250.29,245.62Z"/><ellipse class="cls-12" cx="181.78" cy="322.45" rx="31.59" ry="30.37" transform="matrix(1, -0.04, 0.04, 1, -12.17, 7.17)"/><ellipse class="cls-13" cx="186.96" cy="321.95" rx="31.59" ry="30.37" transform="translate(-12.15 7.37) rotate(-2.19)"/><path class="cls-14" d="M391.29,363.42,168,365.65l.5-65.52c0-5.17,3.81-9.37,8.48-9.45l50-.85,165.16.69Z"/><path class="cls-15" d="M241.27,201.92a7.67,7.67,0,0,0-7.49-7.86,7.39,7.39,0,0,0-4.64,1.64,9.25,9.25,0,0,0-7.29-3.64,9.66,9.66,0,0,0-9.5,9.76,9.89,9.89,0,0,0,3.07,7.27,7.9,7.9,0,0,0-4.43,7.08,7.68,7.68,0,0,0,7.49,7.87,7.49,7.49,0,0,0,6.13-3.23,9.17,9.17,0,0,0,3.32.65,9.66,9.66,0,0,0,9.5-9.76,9.85,9.85,0,0,0-.38-2.79A7.9,7.9,0,0,0,241.27,201.92Z"/><path class="cls-16" d="M235.74,204.51a5.25,5.25,0,0,0-5.13-5.39,5.13,5.13,0,0,0-3.19,1.12,6.31,6.31,0,0,0-5-2.49,6.62,6.62,0,0,0-6.52,6.69,6.77,6.77,0,0,0,2.1,5,5.41,5.41,0,0,0-3,4.86,5.25,5.25,0,0,0,5.14,5.39,5.1,5.1,0,0,0,4.2-2.21,6.39,6.39,0,0,0,2.28.45,6.63,6.63,0,0,0,6.51-6.69,7.12,7.12,0,0,0-.26-1.92A5.41,5.41,0,0,0,235.74,204.51Z"/><path class="cls-15" d="M257.6,136.14a10.8,10.8,0,0,0-4.4.92,13.73,13.73,0,0,0-12.19-7.7,14.09,14.09,0,0,0-13.78,12.24,14.44,14.44,0,0,0-9.51,13.59,14.08,14.08,0,0,0,13.76,14.44,13.44,13.44,0,0,0,7.26-2.11,10.8,10.8,0,0,0,7.52,3.12,11.35,11.35,0,0,0,11.18-11.47,11.52,11.52,0,0,0,.16-23Z"/><path class="cls-16" d="M252.94,138.64a8.22,8.22,0,0,0-3.36.7,10.52,10.52,0,0,0-9.34-5.89,10.78,10.78,0,0,0-10.55,9.37,11,11,0,0,0-7.28,10.4A10.78,10.78,0,0,0,233,164.28a10.22,10.22,0,0,0,5.55-1.62,8.25,8.25,0,0,0,5.76,2.4,8.71,8.71,0,0,0,8.56-8.79,8.82,8.82,0,0,0,.12-17.63Z"/><path class="cls-15" d="M296.58,85.64a14.11,14.11,0,0,0-20.09,3.62,15.4,15.4,0,0,0-2.61,9.87,11.45,11.45,0,0,0-8.73,5.05,12.24,12.24,0,0,0,2.72,16.68,11.16,11.16,0,0,0,6.32,2.17,14.64,14.64,0,0,0,3.64,3.9,14.1,14.1,0,0,0,20.09-3.62,15.22,15.22,0,0,0,1.53-2.9,11.31,11.31,0,0,0,13.85-4.17,12.23,12.23,0,0,0-2.72-16.67,11.13,11.13,0,0,0-7.95-2.09A15.05,15.05,0,0,0,296.58,85.64Z"/><path class="cls-16" d="M294,88.28A10.61,10.61,0,0,0,278.86,91a11.53,11.53,0,0,0-2,7.43,8.65,8.65,0,0,0-6.59,3.81,9.22,9.22,0,0,0,2.06,12.57,8.44,8.44,0,0,0,4.75,1.64,10.92,10.92,0,0,0,2.75,2.93A10.62,10.62,0,0,0,295,116.67a12.45,12.45,0,0,0,1.16-2.19,8.53,8.53,0,0,0,10.44-3.14,9.24,9.24,0,0,0-2.06-12.57,8.39,8.39,0,0,0-6-1.57A11.32,11.32,0,0,0,294,88.28Z"/><ellipse class="cls-17" cx="199.39" cy="398.88" rx="22.28" ry="21.46" transform="matrix(0.05, -1, 1, 0.05, -209.08, 577.79)"/><ellipse class="cls-18" cx="197.8" cy="398.58" rx="21.74" ry="20.94" transform="matrix(0.05, -1, 1, 0.05, -210.29, 575.92)"/><ellipse class="cls-19" cx="198.02" cy="398.87" rx="9.98" ry="9.61" transform="translate(-210.37 576.42) rotate(-87.09)"/><path class="cls-20" d="M194.18,398.86a3.85,3.85,0,1,0,3.87-4A3.9,3.9,0,0,0,194.18,398.86Z"/><path class="cls-13" d="M198.3,378.88s-14.28-.05-17.5,12.39c0,0-.83.54,1,.65s3-11,17.28-10.55C199.12,381.37,202.15,380.52,198.3,378.88Z"/><path class="cls-13" d="M195.1,416.59s-14-2.63-14.95-15.46c0,0-.73-.69,1.14-.45s.94,11.41,15.07,13.61C196.36,414.29,199.18,415.7,195.1,416.59Z"/><ellipse class="cls-17" cx="335.38" cy="388.6" rx="33.29" ry="32.06" transform="translate(-69.72 703.85) rotate(-87.09)"/><ellipse class="cls-21" cx="333.17" cy="389.43" rx="33.04" ry="31.81" transform="translate(-72.64 702.43) rotate(-87.09)"/><ellipse class="cls-19" cx="333.34" cy="388.59" rx="14.91" ry="14.36" transform="translate(-71.65 701.81) rotate(-87.09)"/><path class="cls-22" d="M327.6,388.57a5.74,5.74,0,1,0,5.78-5.94A5.83,5.83,0,0,0,327.6,388.57Z"/><path class="cls-13" d="M360,392.56s-3.84,21.81-22.3,23.32c0,0-1,1.14-.64-1.76s16.42-1.56,19.63-23.49C356.65,390.63,358.69,386.24,360,392.56Z"/><path class="cls-13" d="M334.74,360.42s-21.34-.07-26.15,18.51c0,0-1.25.81,1.55,1s4.48-16.48,25.82-15.76C336,364.15,340.49,362.87,334.74,360.42Z"/><ellipse class="cls-17" cx="261.65" cy="388.33" rx="33.29" ry="32.06" transform="translate(-139.45 629.96) rotate(-87.09)"/><ellipse class="cls-23" cx="259.44" cy="389.16" rx="33.04" ry="31.81" transform="translate(-142.37 628.54) rotate(-87.09)"/><ellipse class="cls-19" cx="259.61" cy="388.33" rx="14.91" ry="14.36" transform="translate(-141.38 627.92) rotate(-87.09)"/><path class="cls-20" d="M253.86,388.31a5.75,5.75,0,1,0,5.79-5.95A5.89,5.89,0,0,0,253.86,388.31Z"/><path class="cls-13" d="M286.22,392.29s-3.83,21.82-22.29,23.33c0,0-1,1.13-.64-1.77s16.41-1.56,19.63-23.49C282.92,390.36,285,386,286.22,392.29Z"/><path class="cls-13" d="M261,360.16s-21.35-.08-26.15,18.51c0,0-1.25.8,1.55,1s4.48-16.48,25.82-15.76C262.23,363.88,266.76,362.61,261,360.16Z"/><path class="cls-24" d="M304.71,290l-62.95-.23-54.69.45-10.34,31.35s5.43-17,50.65-24.57A512.3,512.3,0,0,1,304.71,290Z"/><polygon class="cls-25" points="388.97 332.94 169.09 332.41 169.31 306.01 226.85 305.8 389.35 306.35 388.97 332.94"/><path class="cls-26" d="M399.16,200.86l-107.07-.39c-2.47,0-4.46-3-4.43-6.75l0-5.57c0-3.72,2.05-6.73,4.52-6.72a239.73,239.73,0,0,1,107.08.39,3.82,3.82,0,0,1,3.14,2,8.66,8.66,0,0,1,1.28,4.77l0,5.57C403.66,197.86,401.63,200.87,399.16,200.86Z"/><path class="cls-27" d="M398.61,194.14l-105.84-.38a4.34,4.34,0,0,1-4.39-4.32l0-3.55a4.39,4.39,0,0,1,4.45-4.28c15.56-3,33.12-5.62,53-5.54A253.88,253.88,0,0,1,398.7,182a4.56,4.56,0,0,1,3.12,1.27,4.2,4.2,0,0,1,1.27,3l0,3.55A4.37,4.37,0,0,1,398.61,194.14Z"/><path class="cls-28" d="M397.86,189.84l-104.56-.38c-2.41,0-4.36-1.33-4.35-3l0-2.43c0-1.63,2-2.94,4.39-2.93,15.36-2.07,32.85-5.14,52.54-5.07s37,3.2,52,5.45a5.81,5.81,0,0,1,3.09.87,2.57,2.57,0,0,1,1.26,2.09l0,2.43C402.23,188.54,400.27,189.85,397.86,189.84Z"/><polygon class="cls-29" points="391.1 345.59 301.13 345.26 302.14 201.13 392.12 201.46 391.1 345.59"/><path class="cls-29" d="M145.79,369.7l0-21.36,132.92,1.12a22.5,22.5,0,0,1,20.86-13.75c15.94-.25,99.86.13,99.86.13l-.16,34.05Z"/><path class="cls-30" d="M145.71,360l0-11.83,132.92,1.11a22.5,22.5,0,0,1,20.86-13.75c15.95-.24,99.86.14,99.86.14l-.09,24.52Z"/><path class="cls-31" d="M391.1,202.1l-88.24-.48-1.09,133.94,12.94.29S325.78,243.64,391.1,202.1Z"/><path class="cls-32" d="M194.18,348.27l-26.06-.09.49-69.05a9,9,0,0,1,8.81-9.05l8.57,0a8.89,8.89,0,0,1,8.68,9.11Z"/><path class="cls-33" d="M188.19,308.94l-13.71-.05L174.7,278a4.43,4.43,0,0,1,4.36-4.48l5.05,0a4.41,4.41,0,0,1,4.3,4.51Z"/><polygon class="cls-29" points="146.09 370.39 146.1 365.48 399.32 365.37 399.31 370.27 146.09 370.39"/><path class="cls-34" d="M392.12,201.46s-58.92,26.48-77.41,134.39l5.88-.22s12.05-51.89,71.34-107.48Z"/><path class="cls-35" d="M381.51,222.71l-.28,40a6.78,6.78,0,0,1-6.84,6.67l-51.17-.19a6.73,6.73,0,0,1-3.37-.9,6.64,6.64,0,0,1-3.38-5.81l.28-40a6.76,6.76,0,0,1,6.84-6.66l51.17.18a6.82,6.82,0,0,1,4.43,1.64A6.64,6.64,0,0,1,381.51,222.71Z"/><polygon class="cls-36" points="317.21 235.88 317.19 255.54 381.03 242.35 381.51 222.71 317.21 235.88"/><path class="cls-37" d="M202.6,375l.05-6.35a3.88,3.88,0,0,1,3.82-3.93l37.8.14a4.68,4.68,0,0,1,4.57,4.79l0,4.68a4.71,4.71,0,0,1-4.63,4.76l-37.8-.14A3.85,3.85,0,0,1,202.6,375Z"/><path class="cls-38" d="M226.35,376.28l1.36-2.61a2.27,2.27,0,0,1,3.12-1l22.3,12.49a2.64,2.64,0,0,1,1,3.52L253,391a2.46,2.46,0,0,1-3.4,1.06l-22.3-12.49A2.43,2.43,0,0,1,226.35,376.28Z"/><path class="cls-39" d="M247.33,389.84l0-3.74a2.29,2.29,0,0,1,2.25-2.32l109.53.4a2.75,2.75,0,0,1,2.69,2.82l0,2.76a2.77,2.77,0,0,1-2.73,2.8l-109.53-.39A2.28,2.28,0,0,1,247.33,389.84Z"/></g></g></svg>