<svg id="Layer_1" data-name="Layer 1" xmlns="http://www.w3.org/2000/svg" viewBox="0 0 600 600"><defs><style>.cls-1{opacity:0.3;}.cls-2,.cls-3,.cls-7{fill:#e9e9e9;}.cls-2{stroke:#636464;}.cls-12,.cls-14,.cls-16,.cls-2,.cls-22,.cls-23,.cls-3,.cls-5,.cls-6,.cls-8{stroke-miterlimit:10;}.cls-12,.cls-14,.cls-16,.cls-2,.cls-23,.cls-3,.cls-5,.cls-6,.cls-8{stroke-width:0.25px;}.cls-14,.cls-16,.cls-3,.cls-5,.cls-8{stroke:#4b4a4b;}.cls-4{fill:none;}.cls-12,.cls-5{fill:#929292;}.cls-16,.cls-22,.cls-6{fill:#f7fbf8;}.cls-22,.cls-6{stroke:#3f4040;}.cls-23,.cls-8{fill:#f0ad8e;}.cls-21,.cls-9{fill:#686868;}.cls-10{fill:#b6b6b7;}.cls-11{fill:#121212;}.cls-12{stroke:#4a4a4a;}.cls-13{fill:#797a7a;}.cls-14{fill:#b9b9ba;}.cls-15{fill:#fff;}.cls-17{fill:#cbcbca;}.cls-18{fill:#efeeee;}.cls-19{fill:#131313;}.cls-20{fill:#dbdada;}.cls-21{opacity:0.56;}.cls-23{stroke:#121212;}.cls-24{fill:#0b0b0b;}</style></defs><ellipse class="cls-1" cx="153.52" cy="400.4" rx="45.85" ry="11.46"/><ellipse class="cls-1" cx="297.52" cy="361.43" rx="45.85" ry="10.41"/><path class="cls-2" d="M147.71,395.57s-2.24.42-2.79-.1h0l-2.39-24.37,6.47-3,4.45,6.31-5.74,21.18"/><path class="cls-3" d="M165,327.8a39.44,39.44,0,0,1-10.23-.46c-2.85-.49-5.54-3.15-9.06-2.88l-7.5,17.25.68,13.6,5.3,6.65,9,.42,6.49-2,4.75-5.68,3.75-15.15Z"/><path class="cls-4" d="M144,297.42a.5.5,0,0,1-.17,0c-2.19-.49-4.4-5.83-4.58-6.42a35.5,35.5,0,0,0-3.31-7.29,35.53,35.53,0,0,1-3.35-7.37c-.47-1.51-1.36-3.57-2.3-5.75-2.45-5.64-5.21-12-3.43-14.46a2.79,2.79,0,0,1,2.46-1l.52,0c3.85.41,7.48,3,10.76,7.82q1,1.46,1.92,3.15a54.24,54.24,0,0,1,4.58,11.48,27.6,27.6,0,0,1,1,7.37c0,5.68-1.67,10.37-3.09,11.87A1.44,1.44,0,0,1,144,297.42Z"/><path class="cls-4" d="M160.72,307a8.72,8.72,0,0,1-3.58.73l-.66,0a12.74,12.74,0,0,1-3-.57l0,0-.11-.31c-.6-1.69-1.56-5.15-.29-7.2a3,3,0,0,1,.47-.59,3.6,3.6,0,0,1,2.18-.92A4.13,4.13,0,0,1,159,299c2.24,1.94,2.59,6.19,2.65,7.44a.12.12,0,0,1,0,.08A8.75,8.75,0,0,1,160.72,307Z"/><path class="cls-5" d="M128.23,392.53a4.22,4.22,0,0,0,1.28.19,3.86,3.86,0,0,0,1.12-.17c.13.55.26,1.07.38,1.56a.19.19,0,0,0,0,.08c0,.2.09.39.13.58l0,.12c0,.17.08.34.11.5a1.16,1.16,0,0,1,0,.18l.09.41c0,.07,0,.14,0,.21s.05.24.07.36l0,.2.06.33c0,.07,0,.14,0,.2l.06.3a1.18,1.18,0,0,0,0,.2,2.74,2.74,0,0,0,0,.28l0,.19a2.34,2.34,0,0,1,0,.26,1.13,1.13,0,0,1,0,.18c0,.08,0,.16,0,.24a1,1,0,0,1,0,.17c0,.08,0,.16,0,.23a.88.88,0,0,0,0,.16c0,.07,0,.14,0,.21s0,.1,0,.15,0,.14,0,.2,0,.09,0,.14v.14c-5.62.17-8.89-.59-9.72-2.23-.58-1.15.19-2.52.93-3.47C123.91,394,125.55,393.24,128.23,392.53Z"/><path class="cls-5" d="M125,366.68c0,.19,0,.39,0,.59l.06.6.06.57.06.58.06.54c0,.19,0,.38.07.57s0,.35.07.52,0,.36.07.55,0,.33.07.49.06.35.08.53.05.31.07.47l.09.5c0,.15,0,.3.07.44l.09.49c0,.13,0,.27.07.41l.09.47c0,.13,0,.25.07.37l.09.47.06.31c0,.16.07.3.1.45l.06.28c0,.16.07.31.1.45s0,.15,0,.21.08.33.11.48l0,.13c0,.19.09.37.13.54.2.79.35,1.3.42,1.52v0a.43.43,0,0,0,0,.05s0,0,0,0v0l.48,1.74c1,3.76,1.91,7,2.63,9.83l.12.48a4.27,4.27,0,0,1-2.32,0c-.23-.12-10.55-5.71-4.41-25.8.31-1,.62-1.93.94-2.83,0,.16,0,.31,0,.46l0,.61c0,.22,0,.43,0,.64s0,.41,0,.61S125,366.47,125,366.68Z"/><path class="cls-5" d="M131.65,403.39a10.67,10.67,0,0,1,6.1-2.13.09.09,0,0,0,.08-.09.1.1,0,0,0-.09-.07,11.2,11.2,0,0,0-5.9,1.94,5.15,5.15,0,0,0,.4-1.05,3.89,3.89,0,0,0,.1-1c0-.19,0-.39,0-.61s0-.38,0-.59v-.09a64.84,64.84,0,0,0-1.63-7.85q-.69-2.69-1.57-5.91c-.33-1.25-.69-2.55-1.06-3.92l-.48-1.75h0v0a0,0,0,0,1,0,0l0,0h0c0-.2-.17-.61-.33-1.24a2.29,2.29,0,0,1-.07-.28c-.3-1.19-.7-2.94-1.07-5.11A77,77,0,0,1,125,363.32c-.46-12.5,2-30.13,16.43-43.16.05.09.11.17.15.25l.18.28.19.28a2.48,2.48,0,0,0,.19.26,2.92,2.92,0,0,0,.21.28l.2.25a2.85,2.85,0,0,0,.23.26,2.5,2.5,0,0,0,.22.24l.25.26.23.22.27.25.24.21c.1.09.2.16.3.24l.25.2.32.23.27.19.34.22.28.18.36.21.11.06c-1.93,4.59-8.24,24.27-2.36,32.56,1.7,2.39,4.28,3.6,7.69,3.6.34,0,.68,0,1,0a11.68,11.68,0,0,0,8.88-4.61c6.63-8.66,3.37-26.79,3.1-28.23l.81-.08h.09l1-.14.12,0,.92-.16.12,0,.87-.19.09,0c.3-.06.58-.14.86-.22h0l.77-.22a54.34,54.34,0,0,1,4.39,27.34c-.1.94-.23,1.88-.38,2.82a48.67,48.67,0,0,1-1.61,6.85c-1.63,5.22-3.27,10.11-4.8,14.61-.53,1.59-1.06,3.13-1.56,4.62-2.78,8.13-5,14.56-5.54,18a6.57,6.57,0,0,0-.1,2.09,5.29,5.29,0,0,0,.43,1.29,10.42,10.42,0,0,0-6.72-1.91c-.05,0-.09.05-.08.09a.07.07,0,0,0,.08.08,9.81,9.81,0,0,1,6.89,2.09c.14.27.29.54.43.79.5.89.94,1.66.61,2.2-.52.86-3,1.21-8.14,1.1-3.63-.07-5.68-2.34-6.26-7-.63-5,.6-11.9,1.59-17.46.74-4.22,1.39-7.87,1.1-9.72h0c0-.12-.62-2.64-2-3.47a1.84,1.84,0,0,0-.64-.24c-1.14-.19-2.43.86-3.82,3.11-1.22,2-.67,6.89,0,12.57.58,5.23,1.25,11.17.47,15.39s-2.76,6.06-6.14,5.91c-5.11-.21-7.6-.71-8.06-1.61-.29-.56.19-1.29.74-2.15C131.26,404,131.46,403.72,131.65,403.39Z"/><path class="cls-5" d="M151.23,290.59c0-3-.29-8.15-.3-8.26-.85-8.56-3.42-15.87-7.11-21.09s-8.48-8.31-13.78-8.44c-1.89-.05-3.25.47-4,1.55-2.19,3,.17,9.78,2.25,15.75.74,2.12,1.44,4.12,1.86,5.78,1.44,5.55,7,18.36,11.67,24.69,1.84,2.49,3.3,3.61,4.32,3.34.45-.12,4.37-1.45,5.07-11.67h0C151.21,291.85,151.23,291.27,151.23,290.59ZM148.06,285c0,5.68-1.67,10.37-3.09,11.87a1.44,1.44,0,0,1-1,.55.5.5,0,0,1-.17,0c-2.19-.49-4.4-5.83-4.58-6.42a35.5,35.5,0,0,0-3.31-7.29,35.53,35.53,0,0,1-3.35-7.37c-.47-1.51-1.36-3.57-2.3-5.75-2.45-5.64-5.21-12-3.43-14.46a2.79,2.79,0,0,1,2.46-1l.52,0c3.85.41,7.48,3,10.76,7.82q1,1.46,1.92,3.15a54.24,54.24,0,0,1,4.58,11.48A27.6,27.6,0,0,1,148.06,285Z"/><path class="cls-5" d="M180.76,314.19v-.1l-.09-.55c-.11-.56-.26-1.19-.45-1.85a30.15,30.15,0,0,0-3.61-7.68,22.12,22.12,0,0,0-6.7-6.75,31.09,31.09,0,0,0-7-3.13,41.78,41.78,0,0,0-11.54-1.81c-.72,10.27-4.73,11.63-5.18,11.75l-.19,0h-.42l-.09,0-.14,0-.08,0-.16-.06-.08,0-.17-.09-.07,0-.19-.11-.07,0-.23-.16,0,0a5.36,5.36,0,0,1-.55-.46l-.07-.06-.22-.21-.1-.1-.19-.2-.12-.13-.18-.2-.13-.15-.18-.21-.14-.16-.18-.23-.14-.18c-.06-.08-.13-.16-.19-.25l-.09-.11c-.23.91-.45,1.87-.67,2.84,0,9.82,3.32,15,10.78,16.87l.12,0,.71.16.28.06.55.1.31.05.51.09.34,0,.48.06.34,0,.46.05.35,0,.43,0,.36,0,.41,0h2.56l.33,0,.35,0,.31,0,.35,0,.29,0,.34,0,.27,0,.32,0,.26,0,.3,0,.19,0-.06-.11-.09-.14-.09-.17a1.09,1.09,0,0,1-.08-.15,1.42,1.42,0,0,1-.08-.18,1.09,1.09,0,0,1-.08-.15l-.08-.18-.07-.16-.07-.18-.06-.16a1.34,1.34,0,0,0-.07-.18,1.09,1.09,0,0,0-.05-.17l-.06-.19c0-.05,0-.1,0-.16s0-.12-.05-.19a.94.94,0,0,1,0-.16,1.33,1.33,0,0,1-.05-.19c0-.06,0-.11,0-.17s0-.13,0-.19l0-.16c0-.07,0-.13,0-.19s0-.11,0-.17l0-.19c0-.05,0-.11,0-.17a1.1,1.1,0,0,1,0-.18,1,1,0,0,1,0-.17c0-.06,0-.12,0-.19s0-.1,0-.16v-.19c0-.05,0-.1,0-.15v-.34a1.07,1.07,0,0,1,0-.18V315a.76.76,0,0,0,0-.15c0-.06,0-.11,0-.17s0-.1,0-.15,0-.11,0-.17,0-.09,0-.14a.88.88,0,0,0,0-.17s0-.09,0-.13l0-.16c0-.05,0-.09,0-.13l0-.16s0-.08,0-.12,0-.1,0-.15l0-.12a.74.74,0,0,1,0-.14l0-.11a.78.78,0,0,1,.05-.14l0-.1,0-.13,0-.09.06-.12,0-.09.06-.11,0-.07.07-.11,0-.06a.76.76,0,0,1,.08-.11l0,0,.12-.13c1-.95,3.19-1.43,5.38-1.17a6.45,6.45,0,0,1,4.82,2.58c.15.23.3.46.45.67.25.36.49.7.73,1l.09.11a6.09,6.09,0,0,0,4.36,1.95C180.62,316.59,180.76,314.78,180.76,314.19Zm-19.13-7.72a.12.12,0,0,1,0,.08,8.19,8.19,0,0,1-4.45,1.19l-.66,0a12.74,12.74,0,0,1-3-.57l0,0-.11-.31c-.6-1.69-1.56-5.15-.29-7.2a3,3,0,0,1,.47-.59,3.6,3.6,0,0,1,2.18-.92A4.13,4.13,0,0,1,159,299C161.22,301,161.57,305.22,161.63,306.47Z"/><path class="cls-5" d="M164.87,279.65c-.28,5.58-.56,11.35-2,14.3l-.28-.08-.19-.05-.31-.1-.19-.05-.32-.08-.18,0-.32-.09-.17,0-.32-.08-.17,0-.31-.07-.18,0-.3-.07-.17,0L159,293l-.46-.09-.46-.09-.29-.05-.15,0-.29-.05-.14,0-.29,0-.14,0-.27,0-.14,0-.27,0-.14,0-.26,0-.13,0-.26,0-.38-.05h-.11l-.23,0h-.12l-.22,0h-.12l-.23,0h-.41l-.24,0h-.34l-.44,0h-1.1c.18-2.19-.24-9.62-.26-9.83,1-7.23,3.48-20.06,8.28-24.87,1.83-1.82,3.38-2.39,4.62-1.68C166.6,257.28,165.08,275.54,164.87,279.65Z"/><path class="cls-5" d="M160.93,400.78c0-.11,0-.23.07-.35s.05-.24.08-.36l.09-.38.09-.39c0-.14.07-.28.1-.42s.08-.28.11-.41l.12-.47.13-.43c0-.17.09-.34.14-.51s.09-.3.13-.45.11-.36.16-.55.09-.31.14-.46l.18-.59.15-.48c.07-.21.13-.42.2-.63l.16-.49c.07-.23.14-.45.22-.68l.15-.48.24-.74.16-.48c.09-.26.17-.52.26-.79l.15-.45.3-.88a2.25,2.25,0,0,1,.08-.24c.12-.37.25-.74.38-1.12,0-.05,0-.1,0-.15.33-1,.68-2,1-3,.13-.39.27-.79.4-1.19.24-.71.49-1.44.75-2.18,0,0,0-.09,0-.14.39-1.13.79-2.3,1.19-3.49l.94-2.8c.05-.16.11-.33.17-.5q1.61-4.82,3.28-10.12c.12-.4.24-.79.35-1.18,0-.09,0-.18.07-.26.09-.31.17-.62.26-.93,0-.15.06-.29.1-.44s.13-.5.19-.75.07-.34.11-.5l.15-.71c0-.17.07-.35.1-.52s.09-.46.14-.69l.09-.54c0-.23.07-.45.11-.67s0-.38.08-.56.07-.44.09-.67.05-.37.07-.56.05-.4.07-.59c4.42,2.88,12,9.58,13.88,22.48,1.11,7.55-1.9,13.59-8.94,17.94-.1.05-4.93,2.29-12.75,1.32a.08.08,0,0,0-.09.07.08.08,0,0,0,.07.1,32,32,0,0,0,3.88.24,22.87,22.87,0,0,0,8.94-1.57c4.1.52,6.57,1.64,7.16,3.26a2.14,2.14,0,0,1-.41,2.31c-2,2.28-9.87,3.17-22.76,0h0c-.87.18-1.79.34-2.79.5C160.9,401,160.92,400.87,160.93,400.78Z"/><path class="cls-4" d="M180.67,313.54c-.11-.56-.26-1.19-.45-1.85a30.15,30.15,0,0,0-3.61-7.68,22.12,22.12,0,0,0-6.7-6.75,31.09,31.09,0,0,0-7-3.13,41.78,41.78,0,0,0-11.54-1.81c-.72,10.27-4.73,11.63-5.18,11.75l-.19,0h-.42l-.09,0-.14,0-.08,0-.16-.06-.08,0-.17-.09-.07,0-.19-.11-.07,0-.23-.16,0,0a5.36,5.36,0,0,1-.55-.46l-.07-.06-.22-.21-.1-.1-.19-.2-.12-.13-.18-.2-.13-.15-.18-.21-.14-.16-.18-.23-.14-.18c-.06-.08-.13-.16-.19-.25l-.09-.11c-.23.91-.45,1.87-.67,2.84,0,9.82,3.32,15,10.78,16.87l.12,0,.71.16.28.06.55.1.31.05.51.09.34,0,.48.06.34,0,.46.05.35,0,.43,0,.36,0,.41,0h2.56l.33,0,.35,0,.31,0,.35,0,.29,0,.34,0,.27,0,.32,0,.26,0,.3,0,.19,0-.06-.11-.09-.14-.09-.17a1.09,1.09,0,0,1-.08-.15,1.42,1.42,0,0,1-.08-.18,1.09,1.09,0,0,1-.08-.15l-.08-.18-.07-.16-.07-.18-.06-.16a1.34,1.34,0,0,0-.07-.18,1.09,1.09,0,0,0-.05-.17l-.06-.19c0-.05,0-.1,0-.16s0-.12-.05-.19a.94.94,0,0,1,0-.16,1.33,1.33,0,0,1-.05-.19c0-.06,0-.11,0-.17s0-.13,0-.19l0-.16c0-.07,0-.13,0-.19s0-.11,0-.17l0-.19c0-.05,0-.11,0-.17a1.1,1.1,0,0,1,0-.18,1,1,0,0,1,0-.17c0-.06,0-.12,0-.19s0-.1,0-.16v-.19c0-.05,0-.1,0-.15v-.34a1.07,1.07,0,0,1,0-.18V315a.76.76,0,0,0,0-.15c0-.06,0-.11,0-.17s0-.1,0-.15,0-.11,0-.17,0-.09,0-.14a.88.88,0,0,0,0-.17s0-.09,0-.13l0-.16c0-.05,0-.09,0-.13l0-.16s0-.08,0-.12,0-.1,0-.15l0-.12a.74.74,0,0,1,0-.14l0-.11a.78.78,0,0,1,.05-.14l0-.1,0-.13,0-.09.06-.12,0-.09.06-.11,0-.07.07-.11,0-.06a.76.76,0,0,1,.08-.11l0,0,.12-.13c1-.95,3.19-1.43,5.38-1.17a6.45,6.45,0,0,1,4.82,2.58c.15.23.3.46.45.67.25.36.49.7.73,1l.09.11a6.09,6.09,0,0,0,4.36,1.95c1.8-.12,1.94-1.93,1.94-2.52v-.1Zm-19-7.07a.12.12,0,0,1,0,.08,8.19,8.19,0,0,1-4.45,1.19l-.66,0a12.74,12.74,0,0,1-3-.57l0,0-.11-.31c-.6-1.69-1.56-5.15-.29-7.2a3,3,0,0,1,.47-.59,3.6,3.6,0,0,1,2.18-.92A4.13,4.13,0,0,1,159,299C161.22,301,161.57,305.22,161.63,306.47Z"/><path class="cls-4" d="M161,306.7l-.21.1v-.19a.37.37,0,0,1,0-.11v0s0-.08,0-.13v-.05s0-.1,0-.15v0a1.36,1.36,0,0,0,0-.2v0a1.94,1.94,0,0,1,0-.24.08.08,0,0,1,0,0l0-.21v-.09c0-.05,0-.11,0-.17s0-.07,0-.11l0-.17,0-.12,0-.16s0-.08,0-.13,0-.1,0-.16l0-.13c0-.06,0-.11,0-.17l0-.13,0-.17,0-.13-.06-.17a.65.65,0,0,0,0-.13l-.06-.17a.5.5,0,0,1,0-.13l-.08-.18a.49.49,0,0,0,0-.11,2.56,2.56,0,0,0-.11-.24.08.08,0,0,0,0,0c0-.09-.09-.19-.14-.28a.35.35,0,0,0-.05-.08l-.1-.18-.07-.1a1.3,1.3,0,0,1-.1-.15l-.08-.11-.11-.13-.08-.1-.12-.12-.09-.09-.12-.11-.1-.09-.14-.09-.1-.08-.15-.08-.11-.06-.16-.07-.11-.05-.18,0-.12,0-.21,0-.1,0-.33,0h0a2.63,2.63,0,0,0-1.92.66.1.1,0,0,0,0,.09,15.65,15.65,0,0,0,.67,2.06,13.17,13.17,0,0,1-1-1.44.08.08,0,0,0-.07,0,.08.08,0,0,0-.07.05,1.69,1.69,0,0,0-.13.27.42.42,0,0,0,0,.1c0,.06-.05.13-.07.2s0,.08,0,.12,0,.13-.05.2l0,.14,0,.19,0,.16,0,.19a.86.86,0,0,1,0,.16c0,.07,0,.14,0,.2v.17a1.47,1.47,0,0,0,0,.21v.17c0,.07,0,.14,0,.21s0,.12,0,.18,0,.14,0,.2l0,.19,0,.21,0,.18c0,.07,0,.14,0,.21s0,.13.05.19a1.6,1.6,0,0,0,.05.21,1.21,1.21,0,0,0,0,.18l.06.21.06.18c0,.07.05.14.07.21l.07.18a1.67,1.67,0,0,1,.08.2,1.42,1.42,0,0,1,.08.18l.06.11-.36-.08-.21-.05-.66-.18c-.56-1.53-1.7-5.23-.4-7.33a2.9,2.9,0,0,1,1-1,3.67,3.67,0,0,1,1.51-.46,4,4,0,0,1,3.14.92c2.17,1.87,2.53,6,2.59,7.27l-.36.21Z"/><path class="cls-4" d="M173.11,323.8c-.27.08-.54.15-.83.21l-.26,0a12.38,12.38,0,0,1-2.57.17,6.88,6.88,0,0,1-5.85-3.2,10.4,10.4,0,0,1-1.47-5.49,9.87,9.87,0,0,1,.27-2.38,5.58,5.58,0,0,1,.23-.69,3,3,0,0,1,.17-.36,2.07,2.07,0,0,1,.3-.41c1-.92,3.11-1.38,5.25-1.13a6.33,6.33,0,0,1,4.7,2.5c.4.63.8,1.19,1.19,1.7l.09.1.14.18.11.13.14.17a7.31,7.31,0,0,1,1.38,3.81,2.81,2.81,0,0,0,.34,1.28.69.69,0,0,0,.48.23l-.51,1A6.8,6.8,0,0,1,173.11,323.8Z"/><path class="cls-4" d="M176.56,321.76v0l.53-1.06a2.08,2.08,0,0,0,.55-.09c1.49-.41,2.63-1.95,3.3-4.45a.13.13,0,0,0,0-.06,5.78,5.78,0,0,0,0-2c0-.18,0-.36-.09-.55,0,0,0,0,0-.07s-.07-.33-.11-.5,0-.14,0-.21-.06-.26-.1-.39,0-.17-.07-.25-.05-.21-.08-.31c2.06.75,3.64,4.16,3.64,6.68a7.18,7.18,0,0,1-2.75,5.19,2.66,2.66,0,0,1-2.34.57,3.42,3.42,0,0,1-.63-.26A3,3,0,0,1,176.56,321.76Z"/><path class="cls-4" d="M151.23,290.59c0-3-.29-8.15-.3-8.26-.85-8.56-3.42-15.87-7.11-21.09s-8.48-8.31-13.78-8.44c-1.89-.05-3.25.47-4,1.55-2.19,3,.17,9.78,2.25,15.75.74,2.12,1.44,4.12,1.86,5.78,1.44,5.55,7,18.36,11.67,24.69,1.84,2.49,3.3,3.61,4.32,3.34.45-.12,4.37-1.45,5.07-11.67h0C151.21,291.85,151.23,291.27,151.23,290.59ZM148.06,285c0,5.68-1.67,10.37-3.09,11.87a1.44,1.44,0,0,1-1,.55.5.5,0,0,1-.17,0c-2.19-.49-4.4-5.83-4.58-6.42a35.5,35.5,0,0,0-3.31-7.29,35.53,35.53,0,0,1-3.35-7.37c-.47-1.51-1.36-3.57-2.3-5.75-2.45-5.64-5.21-12-3.43-14.46a2.79,2.79,0,0,1,2.46-1l.52,0c3.85.41,7.48,3,10.76,7.82q1,1.46,1.92,3.15a54.24,54.24,0,0,1,4.58,11.48A27.6,27.6,0,0,1,148.06,285Z"/><path class="cls-4" d="M125,366.68c0,.19,0,.39,0,.59l.06.6.06.57.06.58.06.54c0,.19,0,.38.07.57s0,.35.07.52,0,.36.07.55,0,.33.07.49.06.35.08.53.05.31.07.47l.09.5c0,.15,0,.3.07.44l.09.49c0,.13,0,.27.07.41l.09.47c0,.13,0,.25.07.37l.09.47.06.31c0,.16.07.3.1.45l.06.28c0,.16.07.31.1.45s0,.15,0,.21.08.33.11.48l0,.13c0,.19.09.37.13.54.2.79.35,1.3.42,1.52v0a.43.43,0,0,0,0,.05s0,0,0,0v0l.48,1.74c1,3.76,1.91,7,2.63,9.83l.12.48a4.27,4.27,0,0,1-2.32,0c-.23-.12-10.55-5.71-4.41-25.8.31-1,.62-1.93.94-2.83,0,.16,0,.31,0,.46l0,.61c0,.22,0,.43,0,.64s0,.41,0,.61S125,366.47,125,366.68Z"/><path class="cls-4" d="M143.85,297.24c-2.08-.46-4.29-5.75-4.46-6.31a32.75,32.75,0,0,0-2.9-6.55l-.43-.77a35.5,35.5,0,0,1-3.33-7.34c-.47-1.52-1.37-3.58-2.31-5.76-2.31-5.33-5.18-11.95-3.45-14.3a1.5,1.5,0,0,1,.2-.23l.07-.07.17-.13.09-.07.19-.1.1-.05.22-.08.09,0a3.36,3.36,0,0,1,.74-.13h.39l.57,0c8.33.89,14.43,12.59,17.12,22.33a27.9,27.9,0,0,1-.23,15.46c-.05.18-.11.34-.17.5-.11.32-.23.63-.35.91a7.52,7.52,0,0,1-1.32,2.21C144.49,297.14,144.14,297.31,143.85,297.24Z"/><path class="cls-4" d="M151.35,292.16c.18-2.19-.24-9.62-.26-9.83,1-7.23,11.66-27.26,12.9-26.55,2.61,1.5,1.09,19.76.88,23.87-.28,5.58-.56,11.35-2,14.3A49.21,49.21,0,0,0,151.35,292.16Z"/><path class="cls-4" d="M144.82,401.35c0-.14,0-.29.05-.44s0-.27,0-.41l0-.46c0-.14,0-.28,0-.42l0-.47c0-.15,0-.29,0-.44s0-.33,0-.49,0-.3,0-.45v-.5c0-.15,0-.31,0-.46s0-.34,0-.51,0-.31,0-.47,0-.34,0-.52,0-.31,0-.47l0-.53,0-.47c0-.18,0-.36,0-.54s0-.32,0-.48,0-.36,0-.54l0-.47-.05-.52c0-.16,0-.33-.05-.5s0-.35,0-.52,0-.33-.05-.5l-.06-.54c0-.15,0-.31,0-.47s0-.22,0-.33q-.09-.84-.18-1.65c-.61-5.41-1.18-10.52,0-12.46a14.36,14.36,0,0,1,1-1.42c.89-1.11,1.71-1.65,2.46-1.64l.2,0,.31.08h0a1,1,0,0,1,.28.14h0l.25.19h0a2.39,2.39,0,0,1,.23.22l0,0a2.43,2.43,0,0,1,.2.25,0,0,0,0,1,0,0l.18.27,0,0a1.91,1.91,0,0,1,.16.27l0,0,.14.28,0,0a1.59,1.59,0,0,1,.12.27s0,0,0,.05.08.17.11.26l0,0q0,.14.09.24s0,0,0,.05,0,.15.07.21,0,0,0,0a1.8,1.8,0,0,1,0,.19v0c0,.05,0,.11,0,.15v0l0,.11h0a.13.13,0,0,1,0,.05,25.29,25.29,0,0,1-.57,6.63c0,.14,0,.27-.07.41s0,.28-.07.42c-.12.71-.25,1.45-.39,2.2s-.25,1.41-.37,2.14c0,.2-.07.4-.11.6s-.05.34-.08.51-.07.39-.1.58l-.09.54-.09.57-.09.57c0,.17-.05.35-.08.53l-.09.61c0,.18,0,.36-.07.54s-.06.41-.08.61,0,.37-.07.55-.05.4-.07.59,0,.36-.06.54l-.06.6c0,.18,0,.35-.05.53l-.06.6,0,.53c0,.19,0,.39,0,.58l0,.53c0,.18,0,.38,0,.56s0,.34,0,.51,0,.37,0,.56,0,.32,0,.48,0,.37,0,.55l0,.47c0,.18,0,.36,0,.53s0,.31,0,.46,0,.31,0,.46c-1,.08-2,.14-3,.17,0-.12,0-.25,0-.37Z"/><path class="cls-4" d="M173.89,324.72l-.16-.17-.11-.13-.15-.19-.1-.14-.11-.17.21-.07.21-.07.26-.11.2-.09.24-.11.19-.1.24-.14.18-.1.23-.16.16-.11.23-.18.14-.11.23-.22.12-.1.32-.34h0a2.24,2.24,0,0,0,.13.44v0a.61.61,0,0,0,.05.12v0l.06.1s0,0,0,.05,0,.07.05.1l0,.06.06.09,0,.06.07.09a.18.18,0,0,0,0,.07l.07.09.06.07.08.08.07.07.09.08.08.07a.39.39,0,0,0,.1.08l.09.07.1.07.11.07.11.07.12.07.07,0c-.84.9-2.39,2.11-3.91,1h0a1.64,1.64,0,0,1-.25-.21A.94.94,0,0,1,173.89,324.72Z"/><path class="cls-4" d="M129.06,386c-.33-1.25-.69-2.55-1.06-3.92l-.48-1.75h0v0a0,0,0,0,1,0,0l0,0h0c0-.2-.17-.61-.33-1.24a2.29,2.29,0,0,1-.07-.28c-.3-1.19-.7-2.94-1.07-5.11A77,77,0,0,1,125,363.32c-.46-12.5,2-30.13,16.43-43.16.05.09.11.17.15.25l.18.28.19.28a2.48,2.48,0,0,0,.19.26,2.92,2.92,0,0,0,.21.28l.2.25a2.85,2.85,0,0,0,.23.26,2.5,2.5,0,0,0,.22.24l.25.26.23.22.27.25.24.21c.1.09.2.16.3.24l.25.2.32.23.27.19.34.22.28.18.36.21.11.06c-1.93,4.59-8.24,24.27-2.36,32.56,1.7,2.39,4.28,3.6,7.69,3.6.34,0,.68,0,1,0a11.68,11.68,0,0,0,8.88-4.61c6.63-8.66,3.37-26.79,3.1-28.23l.81-.08h.09l1-.14.12,0,.92-.16.12,0,.87-.19.09,0c.3-.06.58-.14.86-.22h0l.77-.22a54.34,54.34,0,0,1,4.39,27.34c-.1.94-.23,1.88-.38,2.82a48.67,48.67,0,0,1-1.61,6.85c-1.63,5.22-3.27,10.11-4.8,14.61-.53,1.59-1.06,3.13-1.56,4.62-2.78,8.13-5,14.56-5.54,18a6.57,6.57,0,0,0-.1,2.09,5.29,5.29,0,0,0,.43,1.29,10.42,10.42,0,0,0-6.72-1.91c-.05,0-.09.05-.08.09a.07.07,0,0,0,.08.08,9.81,9.81,0,0,1,6.89,2.09c.14.27.29.54.43.79.5.89.94,1.66.61,2.2-.52.86-3,1.21-8.14,1.1-3.63-.07-5.68-2.34-6.26-7-.63-5,.6-11.9,1.59-17.46.74-4.22,1.39-7.87,1.1-9.72h0c0-.12-.62-2.64-2-3.47a1.84,1.84,0,0,0-.64-.24c-1.14-.19-2.43.86-3.82,3.11-1.22,2-.67,6.89,0,12.57.58,5.23,1.25,11.17.47,15.39s-2.76,6.06-6.14,5.91c-5.11-.21-7.6-.71-8.06-1.61-.29-.56.19-1.29.74-2.15.2-.3.4-.62.59-.95a10.67,10.67,0,0,1,6.1-2.13.09.09,0,0,0,.08-.09.1.1,0,0,0-.09-.07,11.2,11.2,0,0,0-5.9,1.94,5.15,5.15,0,0,0,.4-1.05,3.89,3.89,0,0,0,.1-1c0-.19,0-.39,0-.61s0-.38,0-.59v-.09a64.84,64.84,0,0,0-1.63-7.85Q129.94,389.18,129.06,386Z"/><path class="cls-4" d="M128.23,392.53a4.22,4.22,0,0,0,1.28.19,3.86,3.86,0,0,0,1.12-.17c.13.55.26,1.07.38,1.56a.19.19,0,0,0,0,.08c0,.2.09.39.13.58l0,.12c0,.17.08.34.11.5a1.16,1.16,0,0,1,0,.18l.09.41c0,.07,0,.14,0,.21s.05.24.07.36l0,.2.06.33c0,.07,0,.14,0,.2l.06.3a1.18,1.18,0,0,0,0,.2,2.74,2.74,0,0,0,0,.28l0,.19a2.34,2.34,0,0,1,0,.26,1.13,1.13,0,0,1,0,.18c0,.08,0,.16,0,.24a1,1,0,0,1,0,.17c0,.08,0,.16,0,.23a.88.88,0,0,0,0,.16c0,.07,0,.14,0,.21s0,.1,0,.15,0,.14,0,.2,0,.09,0,.14v.14c-5.62.17-8.89-.59-9.72-2.23-.58-1.15.19-2.52.93-3.47C123.91,394,125.55,393.24,128.23,392.53Z"/><path class="cls-4" d="M147.05,325.19l.41.19.31.14.46.19.31.13.49.18.31.11.57.19.27.09.87.25,1.37.35.15,0,1.26.28.21,0,1.19.22.22,0,1.15.17.18,0,1.15.13H158l1.11.09h.08l1.08.05h.16l1,0h.17c.4,0,.8,0,1.18,0h.12l1.2-.07h0l.18,0c.24,1.31,3.53,19.47-3.07,28.11a11.56,11.56,0,0,1-8.76,4.55c-3.86.25-6.75-.92-8.57-3.5-5.83-8.21.43-27.77,2.37-32.38l0,0,.39.2Z"/><path class="cls-4" d="M161,400.43c0-.11.05-.24.08-.36l.09-.38.09-.39c0-.14.07-.28.1-.42s.08-.28.11-.41l.12-.47.13-.43c0-.17.09-.34.14-.51s.09-.3.13-.45.11-.36.16-.55.09-.31.14-.46l.18-.59.15-.48c.07-.21.13-.42.2-.63l.16-.49c.07-.23.14-.45.22-.68l.15-.48.24-.74.16-.48c.09-.26.17-.52.26-.79l.15-.45.3-.88a2.25,2.25,0,0,1,.08-.24c.12-.37.25-.74.38-1.12,0-.05,0-.1,0-.15.33-1,.68-2,1-3,.13-.39.27-.79.4-1.19.24-.71.49-1.44.75-2.18,0,0,0-.09,0-.14.39-1.13.79-2.3,1.19-3.49l.94-2.8c.05-.16.11-.33.17-.5q1.61-4.82,3.28-10.12c.12-.4.24-.79.35-1.18,0-.09,0-.18.07-.26.09-.31.17-.62.26-.93,0-.15.06-.29.1-.44s.13-.5.19-.75.07-.34.11-.5l.15-.71c0-.17.07-.35.1-.52s.09-.46.14-.69l.09-.54c0-.23.07-.45.11-.67s0-.38.08-.56.07-.44.09-.67.05-.37.07-.56.05-.4.07-.59c4.42,2.88,12,9.58,13.88,22.48,1.11,7.55-1.9,13.59-8.94,17.94-.1.05-4.93,2.29-12.75,1.32a.08.08,0,0,0-.09.07.08.08,0,0,0,.07.1,32,32,0,0,0,3.88.24,22.87,22.87,0,0,0,8.94-1.57c4.1.52,6.57,1.64,7.16,3.26a2.14,2.14,0,0,1-.41,2.31c-2,2.28-9.87,3.17-22.76,0h0c-.87.18-1.79.34-2.79.5,0-.09,0-.19,0-.28S161,400.55,161,400.43Z"/><path class="cls-4" d="M168.64,327.17a28.46,28.46,0,0,1-4.24.69h0a31.25,31.25,0,0,1-3.14.12,39.37,39.37,0,0,1-10.15-1.48c-4.75-1.3-7.89-3.42-9.62-6.51-2.42-4.31-1.74-10-.55-15.6,0,0,0,.06,0,.1s0,.24,0,.37,0,.34,0,.51,0,.24,0,.36l0,.49,0,.36c0,.16,0,.31,0,.47s0,.24,0,.36,0,.29,0,.44,0,.24.05.35,0,.29.06.42l.06.35c0,.14,0,.27.07.41l.06.34.08.38c0,.11.05.22.08.33l.09.37.09.32c0,.12.06.24.1.36l.09.31c0,.11.08.23.11.34l.11.3.12.33.12.29c0,.11.09.21.13.31s.09.19.13.28a2.09,2.09,0,0,0,.14.3c.05.09.09.19.14.28l.15.28.15.26.17.28.15.24.18.27.17.23c.06.09.13.17.19.25l.18.23.2.24.19.22.21.22.2.21.22.21.21.2.24.21.21.18.26.19.22.17.27.19.23.16.28.17.25.15.29.17.25.14.31.15.26.13.33.15.27.11.35.14.26.1.39.14.25.08.46.15.2.06.69.18.88.2.27.05.6.12.33.05.53.08.36.05.49.06.37,0,.47.05.37,0,.46,0,.36,0,.44,0h2.14l.39,0h.28l.37,0h.27l.37,0,.25,0,.35,0,.24,0,.34,0,.23,0,.31,0,.19,0,.12.17.12.17.15.19.12.16.16.18.13.15a1.29,1.29,0,0,0,.17.16l.14.14c.05.06.11.1.17.16l.15.12.18.15.16.12.19.13.16.1.2.12.17.1.21.11.17.08.22.1.18.07.23.09.18.06.24.07.19.06.25.05.19.05.27,0,.19,0,.29,0,.17,0a3.91,3.91,0,0,0,.49,0h1.26c.23,0,.47,0,.69-.06l.33-.05a5,5,0,0,0,.56-.09l.35-.08.46-.11a2.75,2.75,0,0,0,.19.28l0,.05c.09.11.17.22.26.32l.08.09c.06.06.12.13.18.18a.41.41,0,0,0,.1.09l.11.11a18.41,18.41,0,0,1-3.83,1.64C169.73,326.89,169.21,327,168.64,327.17Z"/><path class="cls-6" d="M145,296.87c1.42-1.5,3.09-6.19,3.09-11.87a27.6,27.6,0,0,0-1-7.37,54.24,54.24,0,0,0-4.58-11.48q-.93-1.69-1.92-3.15c-3.28-4.78-6.91-7.41-10.76-7.82l-.52,0a2.79,2.79,0,0,0-2.46,1c-1.78,2.43,1,8.82,3.43,14.46.94,2.18,1.83,4.24,2.3,5.75a35.53,35.53,0,0,0,3.35,7.37,35.5,35.5,0,0,1,3.31,7.29c.18.59,2.39,5.93,4.58,6.42a.5.5,0,0,0,.17,0A1.44,1.44,0,0,0,145,296.87Z"/><path d="M161.59,306.55a.12.12,0,0,0,0-.08c-.06-1.25-.41-5.5-2.65-7.44a4.13,4.13,0,0,0-3.27-.95,3.6,3.6,0,0,0-2.18.92,3,3,0,0,0-.47.59c-1.27,2.05-.31,5.51.29,7.2l.11.31,0,0a12.74,12.74,0,0,0,3,.57l.66,0a8.19,8.19,0,0,0,4.45-1.19Zm-.13-.12-.36.21-.13.06-.21.1v-.19a.37.37,0,0,1,0-.11v0s0-.08,0-.13v-.05s0-.1,0-.15v0a1.36,1.36,0,0,0,0-.2v0a1.94,1.94,0,0,1,0-.24.08.08,0,0,1,0,0l0-.21v-.09c0-.05,0-.11,0-.17s0-.07,0-.11l0-.17,0-.12,0-.16s0-.08,0-.13,0-.1,0-.16l0-.13c0-.06,0-.11,0-.17l0-.13,0-.17,0-.13-.06-.17a.65.65,0,0,0,0-.13l-.06-.17a.5.5,0,0,1,0-.13l-.08-.18a.49.49,0,0,0,0-.11,2.56,2.56,0,0,0-.11-.24.08.08,0,0,0,0,0c0-.09-.09-.19-.14-.28a.35.35,0,0,0-.05-.08l-.1-.18-.07-.1a1.3,1.3,0,0,1-.1-.15l-.08-.11-.11-.13-.08-.1-.12-.12-.09-.09-.12-.11-.1-.09-.14-.09-.1-.08-.15-.08-.11-.06-.16-.07-.11-.05-.18,0-.12,0-.21,0-.1,0-.33,0h0a2.63,2.63,0,0,0-1.92.66.1.1,0,0,0,0,.09,15.65,15.65,0,0,0,.67,2.06,13.17,13.17,0,0,1-1-1.44.08.08,0,0,0-.07,0,.08.08,0,0,0-.07.05,1.69,1.69,0,0,0-.13.27.42.42,0,0,0,0,.1c0,.06-.05.13-.07.2s0,.08,0,.12,0,.13-.05.2l0,.14,0,.19,0,.16,0,.19a.86.86,0,0,1,0,.16c0,.07,0,.14,0,.2v.17a1.47,1.47,0,0,0,0,.21v.17c0,.07,0,.14,0,.21s0,.12,0,.18,0,.14,0,.2l0,.19,0,.21,0,.18c0,.07,0,.14,0,.21s0,.13.05.19a1.6,1.6,0,0,0,.05.21,1.21,1.21,0,0,0,0,.18l.06.21.06.18c0,.07.05.14.07.21l.07.18a1.67,1.67,0,0,1,.08.2,1.42,1.42,0,0,1,.08.18l.06.11-.36-.08-.21-.05-.66-.18c-.56-1.53-1.7-5.23-.4-7.33a2.9,2.9,0,0,1,1-1,3.67,3.67,0,0,1,1.51-.46,4,4,0,0,1,3.14.92C161,301,161.4,305.14,161.46,306.43Z"/><path class="cls-3" d="M163.53,321.09s-18,2.74-21.23-8.9a23.45,23.45,0,0,1-1.21-7.8,21.61,21.61,0,0,0,.39,15.6c3.53,7.9,19.22,8,19.22,8s9.84,0,13.35-2.87l-.94-1.3S167.14,326.33,163.53,321.09Z"/><path class="cls-7" d="M161.46,306.43l-.7.37s0-5-2.6-6.28c0,0-2-.91-3.15.46l.67,2.06-1.11-1.48s-1.53,1.49.26,5.76L153.6,307s-2-5.13-.4-7.33c0,0,1.44-2.53,5-1C158.24,298.71,161.08,299.81,161.46,306.43Z"/><path class="cls-3" d="M176.78,320.73s-.7-.1-.75-1.45a6.92,6.92,0,0,0-1.27-3.75l-1.58-2.13s-1.86-3.65-7.72-2.69c0,0-3.23-1.28-3.25,4.93s4.57,7.92,4.57,7.92,3.15,1.67,7.56-.35A4.4,4.4,0,0,0,176.78,320.73Z"/><path class="cls-3" d="M180.54,311.84s3.1,1.57,3.42,6.29-4,6.6-4.84,6a2.93,2.93,0,0,1-2.48-2.42l.48-1s2.16.07,3.5-3.34C180.62,317.44,181.73,316.26,180.54,311.84Z"/><path class="cls-8" d="M178,324.1a4.2,4.2,0,0,1-1.67-2.06,9.11,9.11,0,0,1-3,1.9,2.41,2.41,0,0,0,3.75.93A3.78,3.78,0,0,0,178,324.1Z"/><path class="cls-9" d="M139.85,323.71s-23.21,17.05-8.51,65.08C131.34,388.79,120.72,348.38,139.85,323.71Z"/><path class="cls-10" d="M163,255.91a80,80,0,0,1-3.81,36.59l3.38.86s2-6.23,2.24-22C164.84,271.39,166.54,260.35,163,255.91Z"/><path class="cls-10" d="M170.77,329s6.81,10,2.66,30.82a133.09,133.09,0,0,1-6.56,20.51s-2.49,8.51-5.26,16.43a16.38,16.38,0,0,0-1.19,7.07l-3.71-1.39s6.82-17.93,8.67-24.26C169.8,363.06,178.16,359,170.77,329Z"/><path class="cls-10" d="M175.62,357s25.75,23.06,2.1,37c0,0-6.14,1.43-8.92.68C168.8,394.66,202.21,388.51,175.62,357Z"/><path class="cls-11" d="M180.88,315.46s-1.73,2.83-5.74.18a21.41,21.41,0,0,1,1.22,4.39s.19,1.43,2.22,0A5,5,0,0,0,180.88,315.46Z"/><ellipse class="cls-1" cx="388.58" cy="287.63" rx="33.4" ry="8.35"/><path class="cls-2" d="M393.08,283.89s1.73.32,2.16-.08h0l1.85-18.87-5-2.34-3.45,4.89,4.45,16.4"/><path class="cls-3" d="M379.7,231.41a31,31,0,0,0,7.92-.36c2.21-.38,4.29-2.44,7-2.23l5.8,13.36-.52,10.53-4.1,5.15-7,.32-5-1.56-3.68-4.4-2.9-11.73Z"/><path class="cls-4" d="M396,207.88l.13,0c1.7-.38,3.41-4.52,3.55-5a27.53,27.53,0,0,1,2.56-5.65,27,27,0,0,0,2.59-5.7c.37-1.17,1.06-2.77,1.79-4.46,1.89-4.36,4-9.32,2.66-11.2a2.14,2.14,0,0,0-1.91-.74l-.4,0c-3,.32-5.79,2.36-8.33,6.06a25.91,25.91,0,0,0-1.49,2.44,41.86,41.86,0,0,0-3.55,8.89,21.48,21.48,0,0,0-.76,5.71c0,4.4,1.29,8,2.39,9.19A1.11,1.11,0,0,0,396,207.88Z"/><path class="cls-4" d="M383,215.3a6.73,6.73,0,0,0,2.77.57l.51,0a8.47,8.47,0,0,0,1.18-.15,10.29,10.29,0,0,0,1.12-.29s0,0,0,0,.05-.15.08-.24c.47-1.3,1.21-4,.23-5.57a2.76,2.76,0,0,0-.37-.46,2.73,2.73,0,0,0-1.69-.71,3.22,3.22,0,0,0-2.53.73c-1.73,1.5-2,4.8-2.05,5.77a.07.07,0,0,0,0,.06A6.13,6.13,0,0,0,383,215.3Z"/><path class="cls-5" d="M408.17,281.54a3.85,3.85,0,0,1-1,.14,3.06,3.06,0,0,1-.87-.13l-.29,1.21s0,0,0,.06-.07.3-.1.45l0,.09-.09.39,0,.14c0,.11-.05.22-.07.32s0,.11,0,.16l-.06.27,0,.16c0,.09,0,.18-.05.26l0,.16c0,.07,0,.15-.05.23s0,.1,0,.15a1.7,1.7,0,0,0,0,.22l0,.15,0,.19a.77.77,0,0,0,0,.15,1.16,1.16,0,0,1,0,.18c0,.05,0,.09,0,.13l0,.18s0,.08,0,.12a1,1,0,0,0,0,.17s0,.08,0,.11,0,.11,0,.16v.21c4.36.13,6.89-.45,7.53-1.72.45-.89-.15-2-.72-2.69C411.51,282.63,410.25,282.09,408.17,281.54Z"/><path class="cls-5" d="M410.68,261.51c0,.15,0,.31,0,.46s0,.31,0,.46,0,.3-.05.44,0,.31,0,.45,0,.29-.05.43l-.06.43c0,.14,0,.28,0,.41s0,.28-.06.42,0,.26-.05.39l-.06.4-.06.37-.06.39-.06.34-.06.38-.06.31c0,.13-.05.25-.07.37a2.74,2.74,0,0,0-.05.28c0,.13-.05.25-.08.37s0,.16,0,.24-.06.23-.08.35a1.6,1.6,0,0,1-.05.21c0,.13-.05.24-.07.36a.75.75,0,0,0,0,.16l-.09.37,0,.1c0,.15-.07.29-.1.42-.15.61-.27,1-.32,1.18v.06h0v0l-.37,1.35c-.79,2.91-1.48,5.43-2,7.62l-.09.37a3.26,3.26,0,0,0,1.8,0c.18-.09,8.17-4.42,3.41-20-.23-.77-.47-1.49-.73-2.19,0,.12,0,.23,0,.35s0,.32,0,.48l0,.49,0,.47C410.71,261.19,410.69,261.35,410.68,261.51Z"/><path class="cls-5" d="M405.52,289.94a8.3,8.3,0,0,0-4.72-1.65s-.07,0-.06-.06a.06.06,0,0,1,.06-.06,8.7,8.7,0,0,1,4.57,1.5,4,4,0,0,1-.31-.81,3.16,3.16,0,0,1-.08-.76c0-.14,0-.3,0-.47s0-.3,0-.46v-.07a48.73,48.73,0,0,1,1.26-6.07c.35-1.4.76-2.92,1.21-4.59.26-1,.54-2,.83-3l.37-1.35v0h0v0a0,0,0,0,0,0,0h0l.26-1c0-.07,0-.14.05-.21.23-.93.54-2.28.83-4a60,60,0,0,0,.82-7.91c.36-9.68-1.56-23.33-12.73-33.42l-.12.19a1.48,1.48,0,0,1-.13.21l-.15.22-.14.21-.17.21-.15.2-.18.2-.17.19-.2.19-.17.18-.21.19-.19.17-.23.18-.2.16-.24.17-.21.15-.27.17-.21.14-.28.16-.09.05c1.5,3.55,6.38,18.79,1.83,25.21a6.85,6.85,0,0,1-6,2.79l-.79,0a9,9,0,0,1-6.88-3.57c-5.13-6.71-2.61-20.75-2.4-21.86l-.63-.06h-.07l-.78-.11-.1,0c-.24,0-.48-.08-.71-.12l-.09,0-.68-.15h-.07l-.66-.17h0l-.59-.17a42,42,0,0,0-3.4,21.17c.07.73.17,1.46.29,2.19a38.12,38.12,0,0,0,1.24,5.3c1.27,4.05,2.54,7.83,3.72,11.32l1.21,3.57c2.15,6.3,3.85,11.28,4.29,13.94a5,5,0,0,1,.08,1.62,4.8,4.8,0,0,1-.33,1,8.08,8.08,0,0,1,5.2-1.47.07.07,0,0,1,.07.07.07.07,0,0,1-.07.06,7.57,7.57,0,0,0-5.34,1.62l-.33.61c-.39.69-.72,1.28-.47,1.7.4.67,2.34.94,6.3.86,2.81-.06,4.4-1.82,4.85-5.39.49-3.86-.46-9.22-1.23-13.52-.58-3.27-1.08-6.1-.85-7.53h0c0-.09.48-2,1.54-2.68a1.28,1.28,0,0,1,.49-.19c.89-.14,1.89.67,3,2.42.95,1.53.52,5.33,0,9.73-.46,4-1,8.64-.37,11.92s2.14,4.69,4.76,4.57c4-.16,5.88-.55,6.24-1.24.22-.44-.15-1-.58-1.67C405.82,290.45,405.66,290.2,405.52,289.94Z"/><path class="cls-5" d="M390.4,203.86h0c.54,7.92,3.57,8.95,3.92,9,.79.21,1.92-.66,3.35-2.58,3.64-4.9,7.92-14.83,9-19.12.33-1.29.87-2.84,1.44-4.48,1.62-4.63,3.45-9.88,1.75-12.2a3.51,3.51,0,0,0-3.12-1.2c-4.11.1-7.82,2.51-10.68,6.54s-4.84,9.7-5.5,16.33c0,.09-.23,4.06-.23,6.39C390.36,203.11,390.37,203.56,390.4,203.86Zm3.17-11.31a41.86,41.86,0,0,1,3.55-8.89,25.91,25.91,0,0,1,1.49-2.44c2.54-3.7,5.34-5.74,8.33-6.06l.4,0a2.14,2.14,0,0,1,1.91.74c1.38,1.88-.77,6.84-2.66,11.2-.73,1.69-1.42,3.29-1.79,4.46a27,27,0,0,1-2.59,5.7,27.53,27.53,0,0,0-2.56,5.65c-.14.45-1.85,4.59-3.55,5l-.13,0a1.11,1.11,0,0,1-.77-.43c-1.1-1.16-2.39-4.79-2.39-9.19A21.48,21.48,0,0,1,393.57,192.55Z"/><path class="cls-5" d="M369,222.81a4.62,4.62,0,0,0,3.37-1.51l.08-.08c.18-.23.37-.49.56-.77s.23-.34.35-.53a5,5,0,0,1,3.73-2,5.6,5.6,0,0,1,4.17.9l.09.11,0,0,.06.08,0,0,.05.08,0,.06,0,.09,0,.06a1,1,0,0,1,0,.1l0,.07,0,.1a.19.19,0,0,1,0,.08.42.42,0,0,1,0,.1l0,.09a.36.36,0,0,1,0,.11.29.29,0,0,0,0,.09s0,.07,0,.12a.29.29,0,0,0,0,.09.5.5,0,0,0,0,.12s0,.07,0,.1a.69.69,0,0,0,0,.13.34.34,0,0,0,0,.1.59.59,0,0,0,0,.13.41.41,0,0,0,0,.11s0,.09,0,.13v.36a.61.61,0,0,0,0,.14V222a.76.76,0,0,0,0,.15v.26s0,.09,0,.13a.71.71,0,0,0,0,.14c0,.05,0,.09,0,.13a.77.77,0,0,1,0,.15s0,.08,0,.13a.68.68,0,0,0,0,.14.69.69,0,0,0,0,.13l0,.15,0,.13,0,.14,0,.13,0,.15a.93.93,0,0,1,0,.13.74.74,0,0,1,0,.14l0,.13c0,.05,0,.1-.05.14s0,.09,0,.13,0,.1-.05.14a1.12,1.12,0,0,0,0,.13l-.06.14a.61.61,0,0,1-.05.12l-.06.14-.06.12-.06.13-.07.12a.83.83,0,0,1-.07.13l-.06.12a.22.22,0,0,0-.05.08l.15,0,.23,0,.2,0,.24,0,.22,0,.26,0,.22,0,.27,0H383l.28,0h2.23l.32,0h.28l.34,0,.27,0,.35,0,.27,0,.37,0,.26,0,.39-.06.24,0L389,226l.21,0,.55-.13.1,0c5.78-1.43,8.35-5.46,8.35-13.07-.17-.75-.35-1.49-.52-2.2l-.07.09-.15.19-.1.14-.15.18-.1.12a2.09,2.09,0,0,0-.14.17.52.52,0,0,0-.1.11l-.14.16-.09.09c0,.06-.11.11-.16.16l-.07.08-.17.16-.05,0-.43.36h0l-.19.13,0,0a.6.6,0,0,1-.15.09l-.06,0-.13.07-.06,0-.12,0-.07,0-.11,0h-.39l-.15,0c-.35-.1-3.45-1.15-4-9.1a31.88,31.88,0,0,0-8.93,1.4,24.2,24.2,0,0,0-5.45,2.42A17,17,0,0,0,370.7,213a23.12,23.12,0,0,0-2.79,6,14.05,14.05,0,0,0-.35,1.43c0,.15-.05.29-.07.42v.09C367.49,221.32,367.59,222.72,369,222.81Zm15.36-13.69a3.22,3.22,0,0,1,2.53-.73,2.73,2.73,0,0,1,1.69.71,2.76,2.76,0,0,1,.37.46c1,1.58.24,4.27-.23,5.57,0,.09-.06.17-.08.24s0,0,0,0a10.29,10.29,0,0,1-1.12.29,8.47,8.47,0,0,1-1.18.15l-.51,0a6.73,6.73,0,0,1-2.77-.57,6.13,6.13,0,0,1-.68-.35.07.07,0,0,1,0-.06C382.34,213.92,382.62,210.62,384.35,209.12Z"/><path class="cls-5" d="M379.79,194.12c.22,4.32.44,8.79,1.56,11.07l.21-.06.15,0L382,205l.14,0,.24-.06.15,0,.24-.07.14,0,.24-.06.14,0,.24-.06.13,0,.24-.05.13,0,.37-.07.35-.07.35-.07.23,0,.12,0,.22,0,.11,0,.22,0,.11,0,.21,0,.11,0,.21,0,.1,0,.21,0h.1l.2,0,.3,0h.08l.18,0h.09l.17,0h.59l.19,0h.26l.34,0h.85c-.14-1.7.19-7.45.2-7.61-.8-5.6-2.69-15.53-6.41-19.26-1.41-1.41-2.62-1.85-3.57-1.3C378.45,176.79,379.63,190.93,379.79,194.12Z"/><path class="cls-5" d="M382.84,287.92c0-.08,0-.17,0-.27l-.06-.27c0-.1-.05-.2-.07-.3s-.05-.2-.07-.3,0-.22-.08-.33l-.09-.32-.09-.36c0-.11-.06-.22-.1-.33s-.07-.26-.11-.4-.06-.23-.1-.35l-.12-.42c0-.12-.07-.24-.11-.36s-.09-.3-.14-.46l-.12-.37-.15-.49-.12-.38c-.06-.17-.11-.34-.17-.52l-.12-.38c-.06-.19-.12-.37-.19-.57l-.12-.36-.2-.62-.12-.34c-.07-.23-.15-.46-.23-.69l-.06-.19c-.1-.28-.19-.57-.29-.86a.56.56,0,0,1,0-.12c-.26-.75-.52-1.52-.79-2.32l-.32-.93c-.18-.55-.38-1.11-.57-1.68,0,0,0-.07,0-.11-.3-.88-.61-1.78-.92-2.7-.24-.71-.48-1.43-.72-2.17-.05-.13-.09-.26-.13-.39-.83-2.49-1.69-5.11-2.55-7.84l-.27-.91-.06-.21c-.06-.24-.13-.47-.19-.71s-.05-.23-.08-.34l-.15-.59c0-.12-.05-.25-.08-.38l-.12-.55c0-.13-.05-.27-.08-.41s-.07-.35-.1-.53-.05-.28-.07-.41l-.09-.53-.06-.43c0-.17-.05-.34-.07-.51s0-.3-.06-.44,0-.31-.05-.46a24.45,24.45,0,0,0-10.75,17.41c-.86,5.85,1.47,10.53,6.92,13.89.08,0,3.82,1.78,9.88,1,0,0,.06,0,.07.05s0,.07-.06.08a24.91,24.91,0,0,1-3,.18,17.85,17.85,0,0,1-6.93-1.21c-3.17.4-5.09,1.27-5.54,2.52a1.65,1.65,0,0,0,.32,1.79c1.58,1.77,7.64,2.45,17.63,0h0c.68.13,1.39.25,2.17.38C382.87,288.07,382.85,288,382.84,287.92Z"/><path class="cls-4" d="M367.49,220.78v.09c0,.45.1,1.85,1.5,1.94a4.62,4.62,0,0,0,3.37-1.51l.08-.08c.18-.23.37-.49.56-.77s.23-.34.35-.53a5,5,0,0,1,3.73-2,5.6,5.6,0,0,1,4.17.9l.09.11,0,0,.06.08,0,0,.05.08,0,.06,0,.09,0,.06a1,1,0,0,1,0,.1l0,.07,0,.1a.19.19,0,0,1,0,.08.42.42,0,0,1,0,.1l0,.09a.36.36,0,0,1,0,.11.29.29,0,0,0,0,.09s0,.07,0,.12a.29.29,0,0,0,0,.09.5.5,0,0,0,0,.12s0,.07,0,.1a.69.69,0,0,0,0,.13.34.34,0,0,0,0,.1.59.59,0,0,0,0,.13.41.41,0,0,0,0,.11s0,.09,0,.13v.36a.61.61,0,0,0,0,.14V222a.76.76,0,0,0,0,.15v.26s0,.09,0,.13a.71.71,0,0,0,0,.14c0,.05,0,.09,0,.13a.77.77,0,0,1,0,.15s0,.08,0,.13a.68.68,0,0,0,0,.14.69.69,0,0,0,0,.13l0,.15,0,.13,0,.14,0,.13,0,.15a.93.93,0,0,1,0,.13.74.74,0,0,1,0,.14l0,.13c0,.05,0,.1-.05.14s0,.09,0,.13,0,.1-.05.14a1.12,1.12,0,0,0,0,.13l-.06.14a.61.61,0,0,1-.05.12l-.06.14-.06.12-.06.13-.07.12a.83.83,0,0,1-.07.13l-.06.12a.22.22,0,0,0-.05.08l.15,0,.23,0,.2,0,.24,0,.22,0,.26,0,.22,0,.27,0H383l.28,0h2.23l.32,0h.28l.34,0,.27,0,.35,0,.27,0,.37,0,.26,0,.39-.06.24,0L389,226l.21,0,.55-.13.1,0c5.78-1.43,8.35-5.46,8.35-13.07-.17-.75-.35-1.49-.52-2.2l-.07.09-.15.19-.1.14-.15.18-.1.12a2.09,2.09,0,0,0-.14.17.52.52,0,0,0-.1.11l-.14.16-.09.09c0,.06-.11.11-.16.16l-.07.08-.17.16-.05,0-.43.36h0l-.19.13,0,0a.6.6,0,0,1-.15.09l-.06,0-.13.07-.06,0-.12,0-.07,0-.11,0h-.39l-.15,0c-.35-.1-3.45-1.15-4-9.1a31.88,31.88,0,0,0-8.93,1.4,24.2,24.2,0,0,0-5.45,2.42A17,17,0,0,0,370.7,213a23.12,23.12,0,0,0-2.79,6,14.05,14.05,0,0,0-.35,1.43C367.53,220.51,367.51,220.65,367.49,220.78Zm16.86-11.66a3.22,3.22,0,0,1,2.53-.73,2.73,2.73,0,0,1,1.69.71,2.76,2.76,0,0,1,.37.46c1,1.58.24,4.27-.23,5.57,0,.09-.06.17-.08.24s0,0,0,0a10.29,10.29,0,0,1-1.12.29,8.47,8.47,0,0,1-1.18.15l-.51,0a6.73,6.73,0,0,1-2.77-.57,6.13,6.13,0,0,1-.68-.35.07.07,0,0,1,0-.06C382.34,213.92,382.62,210.62,384.35,209.12Z"/><path class="cls-4" d="M382.81,215.06l.16.08v0h0v-.19a0,0,0,0,1,0,0v-.14a.45.45,0,0,0,0-.12,0,0,0,0,1,0,0,.92.92,0,0,1,0-.16h0c0-.06,0-.12,0-.19v0a.78.78,0,0,0,0-.16V214s0-.09,0-.14,0-.06,0-.08l0-.13v-.1l0-.12a.36.36,0,0,1,0-.1.31.31,0,0,1,0-.13l0-.1,0-.13s0-.07,0-.1l0-.13,0-.1c0-.05,0-.09,0-.14l0-.1s0-.08.05-.13l0-.1.06-.14,0-.08a1.08,1.08,0,0,0,.08-.19l0,0c0-.07.07-.14.11-.22l0-.06a1,1,0,0,1,.08-.14.35.35,0,0,0,.05-.08,1,1,0,0,1,.08-.11l.06-.08a.48.48,0,0,1,.09-.11l.06-.07.09-.1.07-.07.09-.09.08-.06.11-.08.08-.05.11-.07.09,0,.12-.06.09,0,.14,0,.09,0,.16,0h.08l.26,0h0a2,2,0,0,1,1.48.52s0,0,0,.06a12.6,12.6,0,0,1-.52,1.6,9.69,9.69,0,0,0,.8-1.11s0,0,.06,0,.05,0,.06,0,.06.14.1.21a.24.24,0,0,1,0,.08l.06.15,0,.1c0,.05,0,.1,0,.15s0,.07,0,.11l0,.15,0,.12c0,.05,0,.1,0,.15a.49.49,0,0,0,0,.12s0,.11,0,.16v.58c0,.05,0,.1,0,.14a19.07,19.07,0,0,1,0,.31,1,1,0,0,1,0,.16.68.68,0,0,0,0,.14.75.75,0,0,1,0,.16l0,.15c0,.05,0,.11,0,.16s0,.09,0,.14a.75.75,0,0,1-.05.16c0,.05,0,.1,0,.14l-.06.16-.05.14c0,.06-.05.11-.07.16l-.06.14a.36.36,0,0,1,0,.09l.27-.07.17,0,.51-.15c.44-1.18,1.32-4,.31-5.67a2.24,2.24,0,0,0-.79-.77,3.15,3.15,0,0,0-1.17-.35,3.08,3.08,0,0,0-2.43.71c-1.68,1.45-2,4.63-2,5.64l.28.15Z"/><path class="cls-4" d="M373.41,228.31l.64.16.2,0a9.8,9.8,0,0,0,2,.13,5.33,5.33,0,0,0,4.53-2.47,8.1,8.1,0,0,0,1.14-4.26,7.14,7.14,0,0,0-.22-1.84,3.3,3.3,0,0,0-.17-.53,2,2,0,0,0-.14-.29,1.31,1.31,0,0,0-.23-.31,5.47,5.47,0,0,0-4.06-.88,4.92,4.92,0,0,0-3.64,1.94c-.31.49-.62.92-.92,1.31l-.07.09a1.42,1.42,0,0,1-.12.13l-.08.1-.11.13a5.61,5.61,0,0,0-1.06,2.95,2.1,2.1,0,0,1-.27,1,.5.5,0,0,1-.37.19l.4.78A5.32,5.32,0,0,0,373.41,228.31Z"/><path class="cls-4" d="M370.74,226.72h0l-.41-.83a1.52,1.52,0,0,1-.43-.07c-1.15-.31-2-1.51-2.55-3.45v0a4.7,4.7,0,0,1,0-1.55c0-.14,0-.28.07-.43a.43.43,0,0,0,0-.05c0-.12.05-.25.08-.39s0-.1,0-.16.05-.2.07-.3l.06-.2.06-.23c-1.6.58-2.82,3.21-2.82,5.17a5.59,5.59,0,0,0,2.13,4,2.08,2.08,0,0,0,1.81.44,2.91,2.91,0,0,0,.49-.2A2.34,2.34,0,0,0,370.74,226.72Z"/><path class="cls-4" d="M390.4,203.86h0c.54,7.92,3.57,8.95,3.92,9,.79.21,1.92-.66,3.35-2.58,3.64-4.9,7.92-14.83,9-19.12.33-1.29.87-2.84,1.44-4.48,1.62-4.63,3.45-9.88,1.75-12.2a3.51,3.51,0,0,0-3.12-1.2c-4.11.1-7.82,2.51-10.68,6.54s-4.84,9.7-5.5,16.33c0,.09-.23,4.06-.23,6.39C390.36,203.11,390.37,203.56,390.4,203.86Zm3.17-11.31a41.86,41.86,0,0,1,3.55-8.89,25.91,25.91,0,0,1,1.49-2.44c2.54-3.7,5.34-5.74,8.33-6.06l.4,0a2.14,2.14,0,0,1,1.91.74c1.38,1.88-.77,6.84-2.66,11.2-.73,1.69-1.42,3.29-1.79,4.46a27,27,0,0,1-2.59,5.7,27.53,27.53,0,0,0-2.56,5.65c-.14.45-1.85,4.59-3.55,5l-.13,0a1.11,1.11,0,0,1-.77-.43c-1.1-1.16-2.39-4.79-2.39-9.19A21.48,21.48,0,0,1,393.57,192.55Z"/><path class="cls-4" d="M410.68,261.51c0,.15,0,.31,0,.46s0,.31,0,.46,0,.3-.05.44,0,.31,0,.45,0,.29-.05.43l-.06.43c0,.14,0,.28,0,.41s0,.28-.06.42,0,.26-.05.39l-.06.4-.06.37-.06.39-.06.34-.06.38-.06.31c0,.13-.05.25-.07.37a2.74,2.74,0,0,0-.05.28c0,.13-.05.25-.08.37s0,.16,0,.24-.06.23-.08.35a1.6,1.6,0,0,1-.05.21c0,.13-.05.24-.07.36a.75.75,0,0,0,0,.16l-.09.37,0,.1c0,.15-.07.29-.1.42-.15.61-.27,1-.32,1.18v.06h0v0l-.37,1.35c-.79,2.91-1.48,5.43-2,7.62l-.09.37a3.26,3.26,0,0,0,1.8,0c.18-.09,8.17-4.42,3.41-20-.23-.77-.47-1.49-.73-2.19,0,.12,0,.23,0,.35s0,.32,0,.48l0,.49,0,.47C410.71,261.19,410.69,261.35,410.68,261.51Z"/><path class="cls-4" d="M396.07,207.74c1.61-.36,3.33-4.46,3.46-4.89a25.57,25.57,0,0,1,2.24-5.07c.11-.21.22-.4.33-.6a27,27,0,0,0,2.58-5.68c.37-1.18,1.06-2.78,1.79-4.47,1.79-4.12,4-9.25,2.67-11.07l-.15-.18-.06-.05-.13-.1-.07,0-.14-.08-.08,0-.17-.07-.07,0a3.39,3.39,0,0,0-.57-.1h-.31l-.44,0c-6.45.68-11.17,9.74-13.26,17.29a21.7,21.7,0,0,0,.18,12c0,.13.09.26.13.38s.18.49.27.71a6.07,6.07,0,0,0,1,1.71C395.58,207.66,395.85,207.79,396.07,207.74Z"/><path class="cls-4" d="M390.26,203.8c-.14-1.7.19-7.45.2-7.61-.8-5.6-9-21.11-10-20.56-2,1.16-.85,15.3-.69,18.49.22,4.32.44,8.79,1.56,11.07A38.36,38.36,0,0,1,390.26,203.8Z"/><path class="cls-4" d="M395.32,288.37c0-.11,0-.23,0-.34s0-.21,0-.32,0-.24,0-.36,0-.21,0-.33,0-.24,0-.36,0-.23,0-.34v-.38c0-.12,0-.23,0-.35v-.38c0-.12,0-.24,0-.36s0-.26,0-.4,0-.24,0-.36,0-.27,0-.4,0-.24,0-.37l0-.4c0-.13,0-.25,0-.37l0-.42,0-.37,0-.42,0-.36,0-.4c0-.13,0-.26,0-.39s0-.27,0-.41,0-.25,0-.38,0-.28,0-.42,0-.24,0-.36l0-.26c.05-.43.1-.86.14-1.28.47-4.19.91-8.15,0-9.65a9.51,9.51,0,0,0-.77-1.1c-.68-.86-1.32-1.28-1.9-1.27l-.16,0a1,1,0,0,0-.23.06h0l-.21.11h0l-.2.14h0l-.18.17s0,0,0,0a1.6,1.6,0,0,0-.16.19v0a1.43,1.43,0,0,0-.14.2l0,0a2.39,2.39,0,0,0-.13.21v0a2.12,2.12,0,0,0-.11.21l0,0a1.24,1.24,0,0,1-.1.2s0,0,0,0-.06.14-.08.2v0c0,.06-.05.13-.07.18s0,0,0,0l0,.17v0a1.31,1.31,0,0,1,0,.15v0c0,.05,0,.09,0,.12h0a.51.51,0,0,0,0,.09h0a.1.1,0,0,0,0,0,19.7,19.7,0,0,0,.44,5.14c0,.1,0,.21,0,.31l.06.33c.09.55.2,1.12.3,1.7s.19,1.09.29,1.66c0,.15.05.31.08.46s0,.26.07.4.05.3.07.45.05.28.07.42.05.29.07.44.05.29.07.44l.06.41.07.47.06.42.06.47c0,.14,0,.28,0,.42l.06.47c0,.13,0,.27.05.41s0,.31,0,.47,0,.27,0,.4,0,.32,0,.47l0,.41,0,.45c0,.14,0,.27,0,.41s0,.29,0,.44,0,.26,0,.39v.81c0,.14,0,.28,0,.42s0,.25,0,.37l0,.41,0,.35,0,.36c.79.06,1.56.11,2.29.13,0-.09,0-.19-.05-.29S395.33,288.47,395.32,288.37Z"/><path class="cls-4" d="M372.8,229l.13-.13.08-.1.12-.15a1,1,0,0,0,.08-.11.57.57,0,0,0,.08-.13l-.16-.05-.16-.06-.2-.08-.15-.07-.19-.09-.15-.08-.19-.1-.13-.09a.94.94,0,0,1-.18-.12l-.13-.08-.17-.14-.11-.09-.18-.16-.09-.08-.25-.27h0a1.64,1.64,0,0,1-.11.34v0a.36.36,0,0,1,0,.09s0,0,0,0l0,.09,0,0s0,0,0,.08l0,0a.35.35,0,0,1-.05.08l0,0a.18.18,0,0,1-.05.07l0,0-.05.07,0,.06-.06.06-.06.06-.06.06-.07.05-.07.06-.07.06-.09.06-.07,0-.09.05-.09,0-.06,0c.65.69,1.85,1.63,3,.74h0a1.45,1.45,0,0,0,.19-.17Z"/><path class="cls-4" d="M407.52,276.44c.26-1,.54-2,.83-3l.37-1.35v0h0v0a0,0,0,0,0,0,0h0l.26-1c0-.07,0-.14.05-.21.23-.93.54-2.28.83-4a60,60,0,0,0,.82-7.91c.36-9.68-1.56-23.33-12.73-33.42l-.12.19a1.48,1.48,0,0,1-.13.21l-.15.22-.14.21-.17.21-.15.2-.18.2-.17.19-.2.19-.17.18-.21.19-.19.17-.23.18-.2.16-.24.17-.21.15-.27.17-.21.14-.28.16-.09.05c1.5,3.55,6.38,18.79,1.83,25.21a6.85,6.85,0,0,1-6,2.79l-.79,0a9,9,0,0,1-6.88-3.57c-5.13-6.71-2.61-20.75-2.4-21.86l-.63-.06h-.07l-.78-.11-.1,0c-.24,0-.48-.08-.71-.12l-.09,0-.68-.15h-.07l-.66-.17h0l-.59-.17a42,42,0,0,0-3.4,21.17c.07.73.17,1.46.29,2.19a38.12,38.12,0,0,0,1.24,5.3c1.27,4.05,2.54,7.83,3.72,11.32l1.21,3.57c2.15,6.3,3.85,11.28,4.29,13.94a5,5,0,0,1,.08,1.62,4.8,4.8,0,0,1-.33,1,8.08,8.08,0,0,1,5.2-1.47.07.07,0,0,1,.07.07.07.07,0,0,1-.07.06,7.57,7.57,0,0,0-5.34,1.62l-.33.61c-.39.69-.72,1.28-.47,1.7.4.67,2.34.94,6.3.86,2.81-.06,4.4-1.82,4.85-5.39.49-3.86-.46-9.22-1.23-13.52-.58-3.27-1.08-6.1-.85-7.53h0c0-.09.48-2,1.54-2.68a1.28,1.28,0,0,1,.49-.19c.89-.14,1.89.67,3,2.42.95,1.53.52,5.33,0,9.73-.46,4-1,8.64-.37,11.92s2.14,4.69,4.76,4.57c4-.16,5.88-.55,6.24-1.24.22-.44-.15-1-.58-1.67-.15-.23-.31-.48-.45-.74a8.3,8.3,0,0,0-4.72-1.65s-.07,0-.06-.06a.06.06,0,0,1,.06-.06,8.7,8.7,0,0,1,4.57,1.5,4,4,0,0,1-.31-.81,3.16,3.16,0,0,1-.08-.76c0-.14,0-.3,0-.47s0-.3,0-.46v-.07a48.73,48.73,0,0,1,1.26-6.07C406.66,279.63,407.07,278.11,407.52,276.44Z"/><path class="cls-4" d="M408.17,281.54a3.85,3.85,0,0,1-1,.14,3.06,3.06,0,0,1-.87-.13l-.29,1.21s0,0,0,.06-.07.3-.1.45l0,.09-.09.39,0,.14c0,.11-.05.22-.07.32s0,.11,0,.16l-.06.27,0,.16c0,.09,0,.18-.05.26l0,.16c0,.07,0,.15-.05.23s0,.1,0,.15a1.7,1.7,0,0,0,0,.22l0,.15,0,.19a.77.77,0,0,0,0,.15,1.16,1.16,0,0,1,0,.18c0,.05,0,.09,0,.13l0,.18s0,.08,0,.12a1,1,0,0,0,0,.17s0,.08,0,.11,0,.11,0,.16v.21c4.36.13,6.89-.45,7.53-1.72.45-.89-.15-2-.72-2.69C411.51,282.63,410.25,282.09,408.17,281.54Z"/><path class="cls-4" d="M393.6,229.38l-.33.15-.24.11-.35.15-.24.1-.38.14-.24.08-.45.15-.2.06-.68.2-1.06.27-.12,0-1,.22-.16,0-.92.17-.17,0-.9.14h-.14l-.88.11h-.09l-.86.07h-.06c-.28,0-.56,0-.83,0h-1c-.32,0-.62,0-.92,0h-.09l-.93-.05h0l-.13,0c-.19,1-2.74,15.08,2.37,21.77a8.92,8.92,0,0,0,6.79,3.52c3,.2,5.22-.71,6.64-2.7,4.51-6.36-.34-21.51-1.84-25.08l0,0-.3.15Z"/><path class="cls-4" d="M382.79,287.65l-.06-.27c0-.1-.05-.2-.07-.3s-.05-.2-.07-.3,0-.22-.08-.33l-.09-.32-.09-.36c0-.11-.06-.22-.1-.33s-.07-.26-.11-.4-.06-.23-.1-.35l-.12-.42c0-.12-.07-.24-.11-.36s-.09-.3-.14-.46l-.12-.37-.15-.49-.12-.38c-.06-.17-.11-.34-.17-.52l-.12-.38c-.06-.19-.12-.37-.19-.57l-.12-.36-.2-.62-.12-.34c-.07-.23-.15-.46-.23-.69l-.06-.19c-.1-.28-.19-.57-.29-.86a.56.56,0,0,1,0-.12c-.26-.75-.52-1.52-.79-2.32l-.32-.93c-.18-.55-.38-1.11-.57-1.68,0,0,0-.07,0-.11-.3-.88-.61-1.78-.92-2.7-.24-.71-.48-1.43-.72-2.17-.05-.13-.09-.26-.13-.39-.83-2.49-1.69-5.11-2.55-7.84l-.27-.91-.06-.21c-.06-.24-.13-.47-.19-.71s-.05-.23-.08-.34l-.15-.59c0-.12-.05-.25-.08-.38l-.12-.55c0-.13-.05-.27-.08-.41s-.07-.35-.1-.53-.05-.28-.07-.41l-.09-.53-.06-.43c0-.17-.05-.34-.07-.51s0-.3-.06-.44,0-.31-.05-.46a24.45,24.45,0,0,0-10.75,17.41c-.86,5.85,1.47,10.53,6.92,13.89.08,0,3.82,1.78,9.88,1,0,0,.06,0,.07.05s0,.07-.06.08a24.91,24.91,0,0,1-3,.18,17.85,17.85,0,0,1-6.93-1.21c-3.17.4-5.09,1.27-5.54,2.52a1.65,1.65,0,0,0,.32,1.79c1.58,1.77,7.64,2.45,17.63,0h0c.68.13,1.39.25,2.17.38,0-.07,0-.14,0-.22S382.81,287.75,382.79,287.65Z"/><path class="cls-4" d="M376.87,230.92a22.44,22.44,0,0,0,3.29.53h0a23.56,23.56,0,0,0,2.43.09,30.88,30.88,0,0,0,7.87-1.14c3.67-1,6.11-2.65,7.45-5,1.87-3.35,1.35-7.76.42-12.09v.37c0,.13,0,.26,0,.39s0,.19,0,.28,0,.26,0,.38,0,.19,0,.28l0,.36,0,.28c0,.12,0,.23,0,.34a2.36,2.36,0,0,1,0,.28,3.11,3.11,0,0,1,0,.32,2.16,2.16,0,0,1-.05.27c0,.11,0,.21,0,.32a2.38,2.38,0,0,1-.05.26l-.06.3-.06.25c0,.1-.05.2-.07.29a1.82,1.82,0,0,1-.07.25,2.13,2.13,0,0,1-.08.27c0,.09-.05.17-.07.24l-.09.27a1.55,1.55,0,0,1-.08.23l-.09.26-.09.22-.11.24-.09.22-.12.23-.1.21-.12.23-.12.19-.12.22-.13.19-.13.2-.14.19a1.33,1.33,0,0,1-.14.19l-.14.18-.15.18-.15.17-.17.18-.15.16-.17.16-.16.15-.19.16-.17.14-.19.15-.18.14-.2.14-.18.12-.22.14-.19.12-.23.13-.19.1-.24.12-.2.1-.26.11a.88.88,0,0,1-.2.09l-.28.11-.2.08-.3.11-.19.06-.36.11-.16.05-.53.14-.68.16-.21,0-.46.09-.26,0-.41.06-.28,0-.38,0-.28,0-.37,0-.28,0-.36,0-.28,0h-2.51l-.3,0h-.2l-.29,0h-.19l-.28,0-.18,0-.26,0-.18,0-.24,0-.15,0-.09.13-.1.14a.76.76,0,0,1-.11.14l-.09.13-.13.13-.1.12-.13.13-.11.11-.13.12-.11.09-.15.12-.12.09-.15.1-.12.08-.16.09-.13.08-.16.08-.13.07-.17.07-.14.06-.18.06-.14.06-.18,0-.15,0-.2,0-.14,0-.21,0a.4.4,0,0,1-.15,0l-.23,0h-.13l-.37,0q-.4,0-.78,0l-.2,0-.54,0a1.09,1.09,0,0,1-.25,0l-.44-.06-.27-.07c-.11,0-.24-.05-.35-.09l-.15.22,0,0-.2.25L373,229l-.13.14-.08.07-.09.08a13.35,13.35,0,0,0,3,1.27C376,230.7,376.43,230.81,376.87,230.92Z"/><path class="cls-6" d="M396,207.88l.13,0c1.7-.38,3.41-4.52,3.55-5a27.53,27.53,0,0,1,2.56-5.65,27,27,0,0,0,2.59-5.7c.37-1.17,1.06-2.77,1.79-4.46,1.89-4.36,4-9.32,2.66-11.2a2.14,2.14,0,0,0-1.91-.74l-.4,0c-3,.32-5.79,2.36-8.33,6.06a25.91,25.91,0,0,0-1.49,2.44,41.86,41.86,0,0,0-3.55,8.89,21.48,21.48,0,0,0-.76,5.71c0,4.4,1.29,8,2.39,9.19A1.11,1.11,0,0,0,396,207.88Z"/><path d="M383,215.3a6.73,6.73,0,0,0,2.77.57l.51,0a8.47,8.47,0,0,0,1.18-.15,10.29,10.29,0,0,0,1.12-.29s0,0,0,0,.05-.15.08-.24c.47-1.3,1.21-4,.23-5.57a2.76,2.76,0,0,0-.37-.46,2.73,2.73,0,0,0-1.69-.71,3.22,3.22,0,0,0-2.53.73c-1.73,1.5-2,4.8-2.05,5.77a.07.07,0,0,0,0,.06A6.13,6.13,0,0,0,383,215.3Zm1.43-6.08a3.08,3.08,0,0,1,2.43-.71,3.15,3.15,0,0,1,1.17.35,2.24,2.24,0,0,1,.79.77c1,1.63.13,4.49-.31,5.67l-.51.15-.17,0-.27.07a.36.36,0,0,0,0-.09l.06-.14s.05-.1.07-.16l.05-.14.06-.16s0-.09,0-.14a.75.75,0,0,0,.05-.16c0-.05,0-.09,0-.14s0-.11,0-.16l0-.15a.75.75,0,0,0,0-.16.68.68,0,0,1,0-.14,1,1,0,0,0,0-.16,19.07,19.07,0,0,0,0-.31s0-.09,0-.14v-.58c0-.05,0-.11,0-.16a.49.49,0,0,1,0-.12c0-.05,0-.1,0-.15l0-.12,0-.15s0-.08,0-.11,0-.1,0-.15l0-.1-.06-.15a.24.24,0,0,0,0-.08c0-.07-.07-.15-.1-.21s0,0-.06,0,0,0-.06,0a9.69,9.69,0,0,1-.8,1.11,12.6,12.6,0,0,0,.52-1.6s0,0,0-.06a2,2,0,0,0-1.48-.52h0l-.26,0h-.08l-.16,0-.09,0-.14,0-.09,0-.12.06-.09,0-.11.07-.08.05-.11.08-.08.06-.09.09-.07.07-.09.1-.06.07a.48.48,0,0,0-.09.11l-.06.08a1,1,0,0,0-.08.11.35.35,0,0,1-.05.08,1,1,0,0,0-.08.14l0,.06c0,.08-.07.15-.11.22l0,0a1.08,1.08,0,0,1-.08.19l0,.08-.06.14,0,.1c0,.05,0,.09-.05.13l0,.1c0,.05,0,.09,0,.14l0,.1,0,.13s0,.07,0,.1l0,.13,0,.1a.31.31,0,0,0,0,.13.36.36,0,0,0,0,.1l0,.12v.1l0,.13s0,.05,0,.08,0,.09,0,.14V214a.78.78,0,0,1,0,.16v0c0,.07,0,.13,0,.19h0a.92.92,0,0,0,0,.16,0,0,0,0,0,0,0,.45.45,0,0,1,0,.12v.14a0,0,0,0,0,0,0v.19h0v0l-.16-.08-.1-.05-.28-.15C382.48,213.85,382.76,210.67,384.44,209.22Z"/><path class="cls-3" d="M380.83,226.21s13.95,2.12,16.44-6.89a18.26,18.26,0,0,0,.94-6,16.78,16.78,0,0,1-.3,12.09c-2.74,6.11-14.89,6.18-14.89,6.18s-7.62,0-10.34-2.23l.73-1S378,230.27,380.83,226.21Z"/><path class="cls-7" d="M382.43,214.86l.54.28s0-3.88,2-4.86c0,0,1.58-.7,2.44.35l-.52,1.6.86-1.15s1.18,1.15-.2,4.47l.95-.25s1.58-4,.31-5.67c0,0-1.11-2-3.91-.75C384.92,208.88,382.73,209.73,382.43,214.86Z"/><path class="cls-3" d="M370.57,225.93s.54-.08.58-1.12a5.37,5.37,0,0,1,1-2.91l1.22-1.65s1.44-2.82,6-2.08c0,0,2.5-1,2.52,3.82s-3.54,6.13-3.54,6.13a6.88,6.88,0,0,1-5.85-.27A3.44,3.44,0,0,1,370.57,225.93Z"/><path class="cls-3" d="M367.66,219a5.79,5.79,0,0,0-2.65,4.88c-.25,3.66,3.07,5.1,3.74,4.66a2.28,2.28,0,0,0,1.93-1.88l-.37-.73s-1.67.05-2.72-2.59C367.59,223.38,366.73,222.47,367.66,219Z"/><path class="cls-8" d="M369.59,228.54a3.17,3.17,0,0,0,1.29-1.6,7.08,7.08,0,0,0,2.31,1.48,1.86,1.86,0,0,1-2.9.71A3,3,0,0,1,369.59,228.54Z"/><path class="cls-9" d="M399.17,228.23s18,13.21,6.59,50.41C405.76,278.64,414,247.34,399.17,228.23Z"/><path class="cls-10" d="M381.22,175.73a62,62,0,0,0,2.94,28.34l-2.61.66s-1.54-4.82-1.74-17C379.81,187.72,378.5,179.17,381.22,175.73Z"/><path class="cls-10" d="M375.23,232.3s-5.28,7.76-2.07,23.87a103.18,103.18,0,0,0,5.09,15.89s1.92,6.58,4.07,12.72a12.75,12.75,0,0,1,.92,5.47l2.87-1.07s-5.28-13.89-6.71-18.79C376,258.71,369.5,255.53,375.23,232.3Z"/><path class="cls-10" d="M371.47,254s-20,17.86-1.63,28.68c0,0,4.76,1.11,6.91.52C376.75,283.18,350.87,278.42,371.47,254Z"/><path class="cls-11" d="M367.4,221.85s1.33,2.19,4.44.14a16.92,16.92,0,0,0-.95,3.4s-.14,1.11-1.72,0A3.88,3.88,0,0,1,367.4,221.85Z"/><path class="cls-12" d="M323.28,327.74s.6,23.57,5.45,27.52c2.87,2.35,7.54,4.74,6.91,7s-10.57,4-17.14,3-2.59-3.63-5.57-8.36a109.72,109.72,0,0,0-13.58-17.42c-5.27-5.26-6.55-12.1-4.54-17.18S320.27,313.28,323.28,327.74Z"/><path class="cls-13" d="M330.11,364.33s-.51-4.22-4.44-5.16c4.51-.4,5.29,3.21,5.68,4.37S330.21,364.82,330.11,364.33Z"/><path class="cls-13" d="M333.54,363.06s-.51-4.22-4.44-5.16c4.51-.4,5.29,3.21,5.67,4.36S333.63,363.55,333.54,363.06Z"/><path class="cls-14" d="M289.27,358.51s7.39,1.47,10.33.75,4.67-3.29,2.36-6.38-5.36-3.13-6.64-3.66a27.64,27.64,0,0,0-9.2-1.69s-3.71,10.44-3.48,10.41S289.27,358.51,289.27,358.51Z"/><path class="cls-13" d="M298.64,358.81s-.51-4.23-4.44-5.16c4.51-.4,5.29,3.21,5.68,4.36S298.74,359.3,298.64,358.81Z"/><path class="cls-13" d="M301.27,356.65s-.51-4.22-4.44-5.16c4.51-.4,5.29,3.21,5.68,4.36S301.37,357.14,301.27,356.65Z"/><path class="cls-5" d="M261.24,339.92s-2.7-6-4.24-7.5-8.34,3.37-5.67,12.37,15.56,10.56,17,7S261.24,339.92,261.24,339.92Z"/><path class="cls-13" d="M268.29,351.75c1.39-3.6-7.05-11.83-7.05-11.83s-2.7-6-4.24-7.5c-.43-.43-1.28-.35-2.22.19a1.64,1.64,0,0,0-.09.76c-1.2,5.3,1.36,10.09,5.1,14.16,1.82,2.68,4.71,4.11,8,4.89A2,2,0,0,0,268.29,351.75Z"/><path class="cls-15" d="M291.74,303.42s-7.08,4.72-9.32,8.95c-10.63,1.9-22.25,14.61-22.12,27.31s5.83,22.42,6.23,22.84-.93,1.51,1.36,2.92,14.89,1.74,17.89,1.81,7.1-.72,8.09-3.13-3.7-7.9-9.72-8.27c1.76-3.22,1.62-4.3,1.62-4.3,3.84.51,26-2.17,34.07-12.83s4.56-26.05-.47-30.86S291.74,303.42,291.74,303.42Z"/><path class="cls-5" d="M291.74,303.42s-7.18,3.53-9.42,7.76c-10.63,1.9-22.5,12.78-22,28.5.39,12.69,5.83,22.42,6.23,22.84s-1.85,1.41.44,2.83,16.18,2.82,19.17,2.89,7.1-.72,8.09-3.13-4.06-8.89-10.08-9.26c1.76-3.22,1.62-4.3,1.62-4.3,3.84.51,26-2.17,34.07-12.83s4.56-26.05-.47-30.86S291.74,303.42,291.74,303.42Z"/><path class="cls-13" d="M306.4,314.4c5.75,1.31,16.06,2,15.62-2.72a13.63,13.63,0,0,0-2.65-3.82c-4.58-4.38-23.69-4.47-27.1-4.45C294.1,309.57,300.1,313.06,306.4,314.4Z"/><path class="cls-13" d="M265.39,332.3s14.24-5.17,19.07,4.65-.31,18.9-.31,18.9,6.42-9.16,3.37-18S273.53,327.85,265.39,332.3Z"/><path class="cls-13" d="M288.41,366.56s-.51-4.23-4.44-5.16c4.51-.4,5.29,3.21,5.68,4.36S288.51,367.05,288.41,366.56Z"/><path class="cls-13" d="M291.61,364.73s-.51-4.22-4.44-5.16c4.51-.39,5.29,3.22,5.68,4.37S291.71,365.23,291.61,364.73Z"/><path class="cls-13" d="M316.1,342.45s-2.56-8.16-2.16-13c1.69,6,3.42,10.88,6.87,7.91A7.16,7.16,0,0,1,316.1,342.45Z"/><path class="cls-13" d="M313.9,333.71s5.29,22.73,8.18,25.07,7.54,4.74,6.91,7-10.57,4-17.14,3-3.73-4.25-5.65-9.78c-1.8-5.21-4.74-12.58-10-17.83s-9-15.43-4.15-18.39C297,319.79,310.9,319.26,313.9,333.71Z"/><path class="cls-5" d="M313.9,333.71s5.29,22.73,8.18,25.07,7.54,4.74,6.91,7-10.57,4-17.14,3-2.66-4.34-4.15-10a44.25,44.25,0,0,0-11.61-19.28c-5.27-5.26-9-14.69-4.18-17.65C296.9,318.87,310.9,319.26,313.9,333.71Z"/><path class="cls-13" d="M321.05,368.26s-.51-4.22-4.44-5.16c4.51-.4,5.29,3.21,5.68,4.36S321.15,368.75,321.05,368.26Z"/><path class="cls-13" d="M326,367s-.51-4.23-4.44-5.16c4.51-.4,5.29,3.21,5.68,4.36S326.09,367.46,326,367Z"/><path class="cls-16" d="M292.17,287.86c1.53-1.42,3.37-5.81,3.45-11.1a22.5,22.5,0,0,0-.94-6.84A45.79,45.79,0,0,0,290,259.31c-.65-1-1.32-2-2-2.9-3.43-4.4-7.26-6.79-11.36-7.11a5.06,5.06,0,0,0-.54,0,3.25,3.25,0,0,0-2.64.93c-1.94,2.29.92,8.2,3.45,13.41a54.1,54.1,0,0,1,2.38,5.31,30.25,30.25,0,0,0,3.46,6.81,29.74,29.74,0,0,1,3.43,6.73c.18.54,2.46,5.48,4.79,5.9l.18,0A1.71,1.71,0,0,0,292.17,287.86Z"/><path class="cls-5" d="M297,279.64c-.05-2.55-.4-6.88-.41-7-.93-7.22-3.47-13.31-7-17.58s-8.13-6.71-13.13-6.61a4.61,4.61,0,0,0-3.78,1.47c-2,2.62.31,8.27,2.36,13.25.73,1.76,1.42,3.43,1.85,4.82,1.44,4.64,6.86,15.27,11.38,20.44,1.79,2,3.18,2.93,4.14,2.65.42-.11,4.1-1.39,4.6-10.07h0C297,280.71,297,280.22,297,279.64ZM293.94,275c.08,4.81-1.42,8.85-2.74,10.17a1.42,1.42,0,0,1-.93.51h-.15c-2.08-.33-4.24-4.77-4.42-5.26a27.65,27.65,0,0,0-3.24-6,27.83,27.83,0,0,1-3.27-6.11c-.47-1.26-1.34-3-2.26-4.78-2.4-4.68-5.11-10-3.46-12.1a2.81,2.81,0,0,1,2.31-.92h.48c3.65.2,7.11,2.29,10.27,6.2a30.72,30.72,0,0,1,1.87,2.59,42.4,42.4,0,0,1,4.5,9.54A21,21,0,0,1,293.94,275Z"/><path class="cls-5" d="M325.23,298.47v-.09l-.09-.46a13.58,13.58,0,0,0-.46-1.54,23.24,23.24,0,0,0-3.52-6.36,19.29,19.29,0,0,0-6.42-5.46,30.26,30.26,0,0,0-6.69-2.37,43.08,43.08,0,0,0-10.91-1.08c-.52,8.71-4.28,10-4.71,10.14l-.18,0h-.47l-.14,0h-.08l-.14-.05-.08,0-.16-.07-.07,0-.18-.09-.06,0-.23-.13h0c-.17-.11-.35-.23-.53-.37,0,0,0,0-.07-.05l-.21-.17-.09-.08-.19-.16-.11-.1-.18-.17-.12-.12-.18-.17a1.59,1.59,0,0,0-.13-.13l-.17-.19-.14-.14-.18-.2-.09-.1c-.19.79-.39,1.61-.58,2.43.15,8.32,3.36,12.59,10.42,13.86l.12,0,.68.11.25,0,.53.07.29,0,.49,0,.31,0,.45,0,.33,0,.43,0h2.52l.35,0,.35,0h.33l.33,0,.32,0,.33,0,.29,0,.33,0,.27,0,.32,0,.26,0,.29-.05.25,0,.28-.05.19,0-.07-.09-.08-.12-.09-.14-.08-.12a1.09,1.09,0,0,1-.08-.15l-.08-.13-.07-.14-.07-.13-.07-.15-.06-.14a1,1,0,0,0-.07-.15.78.78,0,0,0-.05-.14l-.06-.15a.78.78,0,0,0,0-.14s0-.1-.05-.16l0-.13c0-.06,0-.11-.05-.16a.74.74,0,0,0,0-.14.94.94,0,0,0,0-.16l0-.14c0-.05,0-.11,0-.16a.68.68,0,0,1,0-.14l0-.16,0-.14s0-.1,0-.16,0-.09,0-.14,0-.1,0-.15,0-.1,0-.14v-.16a.57.57,0,0,1,0-.13.92.92,0,0,1,0-.16v-.13a.76.76,0,0,1,0-.15v-.29a.49.49,0,0,0,0-.12v-.27s0-.1,0-.15a.49.49,0,0,1,0-.12c0-.05,0-.09,0-.14s0-.08,0-.11a.77.77,0,0,0,0-.15s0-.07,0-.1l0-.14a.36.36,0,0,1,0-.1l0-.13a.36.36,0,0,0,0-.1.56.56,0,0,0,0-.12l0-.1a.36.36,0,0,1,0-.11l0-.09,0-.11a.59.59,0,0,0,0-.08.54.54,0,0,1,.05-.11l0-.07.06-.1,0-.06a.61.61,0,0,0,.07-.1l0-.05.08-.09,0,0,.11-.12c.91-.84,3-1.33,5.06-1.2a6.2,6.2,0,0,1,4.58,2c.15.19.29.38.44.56s.47.56.7.81l.09.09a5.89,5.89,0,0,0,4.14,1.48A2,2,0,0,0,325.23,298.47Zm-18.17-5.79a.06.06,0,0,1,0,.07,8.85,8.85,0,0,1-.82.42,9,9,0,0,1-3.36.76h-.62a11.93,11.93,0,0,1-1.44-.11,13.72,13.72,0,0,1-1.37-.26.07.07,0,0,1-.05,0l-.11-.26c-.59-1.4-1.55-4.3-.38-6.08a2.64,2.64,0,0,1,.43-.51,3.64,3.64,0,0,1,2.05-.87,4.11,4.11,0,0,1,3.09.68C306.6,288,307,291.62,307.06,292.68Z"/><path class="cls-5" d="M309.71,269.86c-.17,4.73-.36,9.62-1.68,12.18l-.26-.06-.18,0-.3-.07-.18,0-.29-.06-.18,0-.3-.06-.17,0-.29,0-.17,0-.29-.05a1,1,0,0,1-.17,0l-.29,0-.16,0-.44-.07-.44-.06-.43-.05-.27,0-.15,0-.27,0-.14,0-.27,0-.13,0-.26,0h-.13l-.26,0h-.49l-.25,0-.36,0h-3.36c.13-1.87-.38-8.13-.39-8.32.85-6.15,3-17.11,7.42-21.36,1.69-1.62,3.15-2.16,4.33-1.61C311,250.85,309.85,266.37,309.71,269.86Z"/><path class="cls-3" d="M309.08,305s-16.95,3-20.16-6.71a17.82,17.82,0,0,1-1.26-6.56s-2.85,6.64.6,13.19,18.26,6,18.26,6,9.28-.39,12.56-3l-.92-1.06S312.57,309.28,309.08,305Z"/><path class="cls-3" d="M321.58,304.16s-.66-.05-.73-1.19a5.26,5.26,0,0,0-1.26-3.13l-1.51-1.74s-1.82-3-7.33-2c0,0-3.07-.95-3,4.3a6.66,6.66,0,0,0,4.43,6.52,9.27,9.27,0,0,0,7.12-.58S321.21,305.57,321.58,304.16Z"/><path class="cls-3" d="M325,296.49a6.13,6.13,0,0,1,3.33,5.2c.37,4-3.65,5.73-4.48,5.28a2.63,2.63,0,0,1-2.38-2l.44-.82s2,0,3.25-3C325.15,301.23,326.18,300.19,325,296.49Z"/><path class="cls-8" d="M322.82,307s-1.35-.71-1.6-1.67a9,9,0,0,1-2.79,1.72,2.34,2.34,0,0,0,3.56.64A3.77,3.77,0,0,0,322.82,307Z"/><path class="cls-10" d="M307.61,249.83a61.38,61.38,0,0,1-3,31.12l3.2.6s1.78-5.35,1.78-18.69C309.56,262.86,311,253.45,307.61,249.83Z"/><path class="cls-3" d="M317.08,309.67s-6.12,28.86,2.39,28.46c0,0,2.76-2.58,4.35-10,0,0,1.48-10.63-3.56-19.25l-1.13-.45Z"/><path class="cls-17" d="M322.75,360.56a5.4,5.4,0,0,1-3.1-3.11h0c-.77-1.64-1.45-3.32-2.13-5s-1.34-3.38-1.9-5.11-1.1-3.46-1.54-5.24c-.22-.89-.41-1.79-.56-2.7s-.17-1.81-.33-2.68a22,22,0,0,0-4.16-9.67,14.45,14.45,0,0,0-3.94-3.53,13.69,13.69,0,0,0-2.37-1.24,7.17,7.17,0,0,0-1.28-.44l-1.29-.41a15.1,15.1,0,0,1,9.44,5.16,17.4,17.4,0,0,1,2.92,4.69,24.93,24.93,0,0,1,1.63,5.27c.18.91.27,1.86.36,2.71s.3,1.75.5,2.62c.41,1.74.91,3.47,1.45,5.19,1.08,3.44,2.28,6.85,3.54,10.24h0A5.47,5.47,0,0,0,322.75,360.56Z"/><path class="cls-17" d="M328.91,356.5a9.39,9.39,0,0,1-3.45-3.65,18.37,18.37,0,0,1-1.89-4.7c-.24-.82-.36-1.65-.53-2.48s-.22-1.66-.29-2.5-.07-1.67-.06-2.51.07-1.67.15-2.5l.69,4.92c.29,1.62.56,3.24,1,4.81a26.39,26.39,0,0,0,1.61,4.6,17.79,17.79,0,0,0,1.19,2.13A8.31,8.31,0,0,0,328.91,356.5Z"/><path class="cls-17" d="M288,307.15a17.72,17.72,0,0,0-2.45,2.2,7.26,7.26,0,0,0-.94,1.3,1.93,1.93,0,0,0-.28,1.39l.08.3-.34.06a27.3,27.3,0,0,0-14.28,7.73,18.16,18.16,0,0,0-1.37,1.54,12.43,12.43,0,0,0-1.26,1.63L266,325l-1,1.82-.5.92c-.14.31-.26.63-.4.95-.26.65-.53,1.29-.81,1.93-.49,1.3-.83,2.65-1.3,4,.28-1.37.53-2.76.91-4.11.21-.67.44-1.34.68-2,.12-.33.22-.67.36-1l.45-1,.92-1.92,1.13-1.8a14.15,14.15,0,0,1,1.26-1.73,15.24,15.24,0,0,1,1.39-1.62,24.58,24.58,0,0,1,6.81-5.12,23.73,23.73,0,0,1,8.11-2.52l-.25.35a2.41,2.41,0,0,1,.44-1.76,7.33,7.33,0,0,1,1.11-1.3A14.69,14.69,0,0,1,288,307.15Z"/><path class="cls-18" d="M306.84,292.41s-3.46,2.65-7.07,1.11c0,0-2.11-4.23-.82-6.21,0,0,1.3-2.12,4.9-.93C303.85,286.38,305.74,287.38,306.84,292.41Z"/><path d="M306.73,292.57a.06.06,0,0,0,0-.06c-.1-1-.58-4.45-2.59-5.89a3.66,3.66,0,0,0-2.85-.57,3.22,3.22,0,0,0-1.83.88,2.28,2.28,0,0,0-.38.5c-1,1.74,0,4.5.55,5.83l.11.25a.07.07,0,0,0,.05,0,9.6,9.6,0,0,0,1.25.21,10,10,0,0,0,1.32.07l.56,0A8.05,8.05,0,0,0,306,293,6.12,6.12,0,0,0,306.73,292.57Zm-.12-.08-.3.19-.11.05a1,1,0,0,1-.17.1v-.15a.28.28,0,0,1,0-.09s0,0,0,0,0-.06,0-.1v0s0-.08,0-.12a.06.06,0,0,0,0,0,1,1,0,0,0,0-.16v0l0-.19a0,0,0,0,1,0,0l0-.17v-.07a.58.58,0,0,1,0-.14.31.31,0,0,1,0-.08l0-.14,0-.09,0-.14,0-.1a.93.93,0,0,0,0-.13l0-.1c0-.05,0-.09,0-.14l0-.1c0-.05,0-.09-.05-.13a.36.36,0,0,0,0-.11,1.21,1.21,0,0,0,0-.14,1,1,0,0,1,0-.1l-.06-.14a.36.36,0,0,1,0-.09,1,1,0,0,1-.07-.15.56.56,0,0,0-.05-.08,1.14,1.14,0,0,0-.1-.19l0,0-.13-.21,0-.06-.1-.15-.06-.07-.1-.12-.07-.08a.47.47,0,0,0-.1-.1l-.07-.08-.11-.09-.08-.07-.11-.08-.09-.06-.12-.07-.1-.06-.12-.06-.1,0-.14-.05-.1,0-.16,0-.1,0-.18,0h-.38a2.34,2.34,0,0,0-1.61.65.07.07,0,0,0,0,.07,11.34,11.34,0,0,0,.67,1.64,10.11,10.11,0,0,1-1-1.11.07.07,0,0,0-.06,0,.09.09,0,0,0-.06,0,2.29,2.29,0,0,0-.1.23l0,.09a1,1,0,0,0-.05.16l0,.11a1.24,1.24,0,0,1,0,.16s0,.08,0,.12l0,.15v.13c0,.05,0,.11,0,.16v.43a1,1,0,0,0,0,.17c0,.05,0,.09,0,.14s0,.11,0,.17a.59.59,0,0,0,0,.14.88.88,0,0,0,0,.17l0,.15c0,.06,0,.11,0,.17l0,.15s0,.11,0,.16,0,.1,0,.15a1.09,1.09,0,0,1,.05.17l.06.15.06.16.06.15a1.11,1.11,0,0,0,.07.16l.07.14a.8.8,0,0,0,.08.16l.07.14.05.09-.3,0-.19,0-.57-.11c-.55-1.21-1.69-4.14-.66-5.93a2.39,2.39,0,0,1,.84-.86,3.25,3.25,0,0,1,1.27-.46,3.48,3.48,0,0,1,2.74.55C306,288.12,306.51,291.44,306.61,292.49Z"/><path class="cls-19" d="M324.82,299.42s-.71,3.12-4.43.6a7.61,7.61,0,0,1,.87,3.53s1.6,1.8,3.55-2.3A6.92,6.92,0,0,0,324.82,299.42Z"/><ellipse class="cls-1" cx="221.3" cy="278.87" rx="32.73" ry="8.18"/><path class="cls-9" d="M216.87,226.83c.29.59,3.11,11.62,12.25,14.49S243,245,246,247.39s9.14,1.05,5.82-5.41-14.83-7.64-17.34-8.91-1.23-5.56-3.07-8.48a10.67,10.67,0,0,0-10.62-5C215.39,220.16,216.21,225.52,216.87,226.83Z"/><path class="cls-5" d="M216.87,226.83c.29.59,3.35,10,12.48,12.83S243,243.72,246,246.09s9.15,2.35,5.83-4.11-14.83-7.64-17.34-8.91-1.23-5.56-3.07-8.48a10.67,10.67,0,0,0-10.62-5C215.39,220.16,216.21,225.52,216.87,226.83Z"/><path class="cls-9" d="M250,247.67s-.41-3.68-3.19-4.62c3.18-.2,3.77,3,4,4S250,248.1,250,247.67Z"/><path class="cls-9" d="M252.1,246.73s-.6-3.83-3.13-4.68c2.89-.18,3.44,2.68,3.68,3.6C252.85,246.4,252.17,247.13,252.1,246.73Z"/><path class="cls-5" d="M227.2,273.65c.62-.33,11.57-3.7,15.16-1.2a3,3,0,0,1,.9,4l-17.81,1.06Z"/><path class="cls-20" d="M242.94,276.14a5.28,5.28,0,0,0-5.16-2.82C239.75,272.46,243.18,272.89,242.94,276.14Z"/><path class="cls-5" d="M199.47,271.07s-2.21-9.53-7.6-10.78-3.19,5.77.12,11.71,10,4.46,9.56,2S199.47,271.07,199.47,271.07Z"/><path class="cls-5" d="M223.45,212c.35,3.07-.19,3.39-2.62,4.92-4.22,2.67-11,8.22-16.58,18.65-8.72,16.4-9.42,32.1-4.19,38.72s15.35,8.4,21.11,3.68c-2.27,3.48-.47,4.76,2.27,4.76s15.58.29,18.9,0,6.33-1.81,5.29-4-4.36-3.78-10-3.49-9,0-9.42-.29,3.08-1.22,5.43-6.45-.78-11.08-.78-11.08a65.41,65.41,0,0,0,9.85-15.7c3.58-8.55,3.49-11.86,2.88-16.66s.79-9.68,1-10.9S223.45,212,223.45,212Z"/><path class="cls-2" d="M238.55,221.15s-6.69,15.73,3.12,22.07c0,0,4.49-9.64,3.92-13.07,0,0-.88-10.67-.22-11.11C245.37,219,240.24,221.18,238.55,221.15Z"/><path class="cls-21" d="M231.83,221.93c4.62,1.54,9.24,1,13.62-.07a38.09,38.09,0,0,1,1.19-7.67c.26-1.22-23.19-2.2-23.19-2.2,0,.34.06.65.08.93A14,14,0,0,0,231.83,221.93Z"/><path class="cls-9" d="M232.86,257.45s-1.36-5-9.53-7.25-15.12,4.16-15.69,5c1.72-4.82,8-7.84,15.36-6.84A11.34,11.34,0,0,1,232.86,257.45Z"/><path class="cls-9" d="M227.09,267s-1.38,7.23-5.92,11C225.53,275.53,227.74,271.36,227.09,267Z"/><path class="cls-9" d="M244.94,281.83a5.28,5.28,0,0,0-5.16-2.82C241.75,278.15,245.18,278.58,244.94,281.83Z"/><path class="cls-9" d="M246.69,279.68a5.32,5.32,0,0,0-5.17-2.82C243.5,276,246.93,276.43,246.69,279.68Z"/><path class="cls-9" d="M214.38,228.06c.2.72,1.12,13.71,10.29,18.7s14.05,6.85,16.82,10.1,9.52,2.95,7.21-5-14.34-11.47-16.77-13.39-.25-6.5-1.67-10.14a11.5,11.5,0,0,0-10.35-7.67C214.07,220.25,213.92,226.45,214.38,228.06Z"/><path class="cls-5" d="M214.38,228.06c.2.72,1.68,11.88,10.85,16.88s13.73,7.21,16.5,10.46,9.28,4.41,7-3.52-14.34-11.47-16.77-13.39-.25-6.5-1.67-10.14a11.5,11.5,0,0,0-10.35-7.67C214.07,220.25,213.92,226.45,214.38,228.06Z"/><path class="cls-9" d="M245.65,257.94s.26-4.23-2.52-5.82c3.42.39,3.45,4.06,3.56,5.25S245.64,258.44,245.65,257.94Z"/><path class="cls-9" d="M248.1,257.3s.09-4.43-2.44-5.88c3.11.35,3.15,3.68,3.23,4.77C249,257.07,248.1,257.75,248.1,257.3Z"/><path class="cls-22" d="M225.94,203.22c.46-1.76-.24-6-2.66-10.35a23.4,23.4,0,0,0-3.9-5.15,47.22,47.22,0,0,0-8.47-6.7c-1-.58-1.91-1.09-2.85-1.54-4.59-2.18-8.54-2.59-11.72-1.21l-.41.2a2.53,2.53,0,0,0-1.51,1.82c-.35,2.62,4.53,6.25,8.84,9.45,1.67,1.24,3.24,2.41,4.25,3.35a30,30,0,0,0,5.75,4.11,30.43,30.43,0,0,1,5.69,4.08c.39.36,4.39,3.44,6.31,2.86l.14-.06A1.37,1.37,0,0,0,225.94,203.22Z"/><path class="cls-5" d="M225.66,194.64c-1.24-2-3.53-5.4-3.58-5.47-4.08-5.46-8.81-9.37-13.44-11.4s-9.15-2.18-12.8-.1a3.61,3.61,0,0,0-2.1,2.7c-.26,2.93,4.11,6.56,8,9.76,1.36,1.14,2.66,2.21,3.62,3.16,3.24,3.18,12.23,9.61,18,12,2.27.93,3.72,1.1,4.3.5.25-.27,2.37-2.77-1.34-10h0C226.16,195.5,225.94,195.11,225.66,194.64Zm-4.44-2.49c2.33,3.85,3.11,7.71,2.76,9.31a1.18,1.18,0,0,1-.45.78l-.12.06c-1.69.56-5.37-2.16-5.73-2.49a28.1,28.1,0,0,0-5.23-3.59,28.38,28.38,0,0,1-5.28-3.63,48.81,48.81,0,0,0-3.91-3c-4-2.83-8.45-6-8.23-8.41a2.21,2.21,0,0,1,1.27-1.66l.36-.18c2.79-1.3,6.32-1,10.5.9.85.39,1.71.84,2.59,1.35a42.51,42.51,0,0,1,7.8,5.92A21.62,21.62,0,0,1,221.22,192.15Z"/><path class="cls-5" d="M255.06,202.76l0-.08-.24-.37a13.43,13.43,0,0,0-.9-1.21,23.51,23.51,0,0,0-5-4.49,17.67,17.67,0,0,0-7-2.86,25.09,25.09,0,0,0-6.09-.11,33.06,33.06,0,0,0-9,2.24c2.64,7.71.13,9.94-.16,10.16a.6.6,0,0,1-.13.09l0,0-.07,0h0l-.06,0-.11,0h-.06l-.12,0h-.48l-.18,0h0l-.23,0h0a4.71,4.71,0,0,1-.55-.16l-.07,0-.22-.08-.1,0-.21-.08-.12-.06-.2-.09-.14-.07-.2-.1-.14-.07-.21-.11-.16-.09-.21-.12-.1-.06c.12.74.25,1.51.39,2.28,3,7.17,7.05,9.94,13.06,9l.1,0,.57-.1.21,0,.44-.09.24-.06.4-.1.26-.07.37-.1.26-.08.35-.11.26-.08.33-.11.26-.1.31-.11.27-.11.29-.11.26-.11.27-.12.27-.11.25-.11.26-.13.23-.11.25-.12.23-.11.24-.13.21-.1a1.71,1.71,0,0,1,.23-.13l.19-.1.22-.13.18-.1.21-.12.13-.08-.08-.06-.11-.08-.12-.1-.1-.08-.12-.1-.1-.09-.11-.11-.1-.09a1.14,1.14,0,0,0-.11-.11l-.09-.1-.11-.11-.09-.11-.1-.12-.08-.1-.1-.12a.44.44,0,0,1-.08-.11.94.94,0,0,1-.09-.12.76.76,0,0,1-.08-.11l-.09-.13a1,1,0,0,1-.08-.11l-.08-.13-.07-.11-.08-.13-.07-.11-.07-.13-.06-.12a.83.83,0,0,1-.07-.13l-.06-.11-.07-.14a.37.37,0,0,1,0-.11l-.06-.13-.05-.12-.06-.13,0-.11a1.12,1.12,0,0,1,0-.13,1.17,1.17,0,0,0-.05-.11l0-.13,0-.11c0-.05,0-.09,0-.13l0-.11a.65.65,0,0,1,0-.13l0-.1,0-.13a.36.36,0,0,1,0-.1l0-.12a.3.3,0,0,0,0-.1s0-.08,0-.12a.28.28,0,0,1,0-.09s0-.08,0-.12v-.09s0-.08,0-.11V207a.22.22,0,0,1,0-.08v-.1a.13.13,0,0,0,0-.06s0-.07,0-.1a.13.13,0,0,1,0-.06.3.3,0,0,1,0-.1v0c0-.05,0-.1,0-.14a5.76,5.76,0,0,1,3.56-2.51,5.16,5.16,0,0,1,4.31.39l.54.36.84.51.1,0a4.78,4.78,0,0,0,3.78.08A1.77,1.77,0,0,0,255.06,202.76Zm-16.13-.53a0,0,0,0,1,0,.06,5.61,5.61,0,0,1-.32.73,7,7,0,0,1-1.92,2.23l-.43.3a7.47,7.47,0,0,1-1.07.62,7.87,7.87,0,0,1-1.11.47,0,0,0,0,1-.05,0l-.23-.15c-1.22-.8-3.55-2.56-3.76-4.51a2.48,2.48,0,0,1,0-.61,2.81,2.81,0,0,1,.93-1.67,3.28,3.28,0,0,1,2.55-1C235.94,198.87,238.27,201.44,238.93,202.23Z"/><path class="cls-5" d="M232.82,182.47c1.52,4.15,3.09,8.45,2.94,11.05l-.22,0-.16,0-.26,0-.15,0-.26,0-.15,0-.25,0-.15,0-.25.05-.14,0-.25,0-.14,0-.24,0-.14,0-.37.07-.36.08-.36.08-.23.05-.11,0-.23.06-.11,0-.22.06-.11,0-.22.05-.1,0-.21.06-.1,0-.21.06-.09,0-.2.06-.3.09-.08,0-.17.06-.1,0L229,195l-.09,0-.17.06-.08,0-.17,0-.06,0-.18.07h-.05l-.15.06-.06,0-.32.12-.06,0-.28.11,0,0-.07,0-.07,0-.14.06-.06,0-.09,0c-.54-1.66-3.14-6.94-3.21-7.09C222.12,183.08,220,173,222,168c.76-1.89,1.72-2.79,2.84-2.65C227.18,165.62,231.71,179.41,232.82,182.47Z"/><path class="cls-3" d="M244.62,213.11s-12.29,7.54-18.23,0a18.53,18.53,0,0,1-3.28-5.32,17.09,17.09,0,0,0,5.09,11.26c5,4.67,16.48-.11,16.48-.11s7.17-3,8.85-6.21l-1.09-.66S248.87,215.81,244.62,213.11Z"/><path class="cls-3" d="M254.17,208.75s-.54.15-1-.82a5.44,5.44,0,0,0-2.08-2.34l-1.81-1.08s-2.48-2.08-6.46.43c0,0-2.75.06-.85,4.59s5.77,4.37,5.77,4.37a7.07,7.07,0,0,0,5.41-2.58A3.51,3.51,0,0,0,254.17,208.75Z"/><path class="cls-3" d="M254.17,201.11s2.75.19,4.44,3.54-.86,6-1.67,5.88a2.34,2.34,0,0,1-2.57-1l.06-.84s1.6-.61,1.53-3.51C256,205.17,256.4,204,254.17,201.11Z"/><path class="cls-23" d="M256.13,210.82a3.24,3.24,0,0,1-1.85-1,7.16,7.16,0,0,1-1.59,2.31,1.91,1.91,0,0,0,3-.48A3.1,3.1,0,0,0,256.13,210.82Z"/><path class="cls-10" d="M224.16,165.72a63.29,63.29,0,0,1,8.5,27.86l2.73-.42s-.47-5.15-5.14-16.71C230.25,176.45,228.09,167.88,224.16,165.72Z"/><path class="cls-24" d="M252,205.86s3.62-.2,3.6-1.8c0,0,.38,4.81-1.73,4.39Z"/><path class="cls-17" d="M212.41,225.14c-1.33,2-2.59,4.1-3.76,6.23s-2.32,4.25-3.36,6.44a72.53,72.53,0,0,0-5,13.53,45,45,0,0,0-1.26,7.09,30,30,0,0,0,.27,7.15,20,20,0,0,0,2.31,6.75,23,23,0,0,0,4.51,5.63,21.62,21.62,0,0,1-4.93-5.38,20.56,20.56,0,0,1-2.65-6.86,33.73,33.73,0,0,1,.78-14.62,67.46,67.46,0,0,1,5.34-13.63A80.13,80.13,0,0,1,212.41,225.14Z"/><path class="cls-17" d="M219.8,221.67a13.89,13.89,0,0,1,4.16,1.21,13.08,13.08,0,0,1,3.63,2.48,9,9,0,0,1,2.24,3.83,8.23,8.23,0,0,1-.05,4.35c0-.37-.05-.72-.06-1.07a4.07,4.07,0,0,0-.11-1.05l-.19-1-.33-1a10.37,10.37,0,0,0-2.21-3.37,17.25,17.25,0,0,0-3.29-2.49A29.8,29.8,0,0,0,219.8,221.67Z"/><path class="cls-17" d="M230.66,238.81a45,45,0,0,1,9.73,4.63,31.12,31.12,0,0,1,4.33,3.27,10.29,10.29,0,0,1,3.12,4.42,13.66,13.66,0,0,0-3.63-3.83q-2.1-1.61-4.35-3C236.86,242.38,233.75,240.64,230.66,238.81Z"/><path class="cls-17" d="M231,256.17a15.09,15.09,0,0,1,2.12,4.08,13.44,13.44,0,0,1,.79,4.6,9.2,9.2,0,0,1-1.28,4.54,8.47,8.47,0,0,1-3.45,3.06c.27-.27.54-.54.82-.79l.41-.39c.12-.13.22-.29.34-.44s.46-.57.67-.87l.53-.95a10.39,10.39,0,0,0,1-4.18,17.52,17.52,0,0,0-.53-4.36A33,33,0,0,0,231,256.17Z"/><path class="cls-18" d="M238.89,202.27s-1.33,3.77-4.86,4.2c0,0-3.74-2.45-3.74-4.66,0,0-.07-2.32,3.29-3C233.58,198.77,235.53,198.71,238.89,202.27Z"/><path d="M238.88,202.46a.09.09,0,0,0,0-.07c-.59-.77-2.68-3.34-4.94-3.57a3.14,3.14,0,0,0-2.47.86,2.82,2.82,0,0,0-1,1.57,2.88,2.88,0,0,0,0,.59c.11,1.87,2.23,3.66,3.35,4.47l.21.15h.05a9.15,9.15,0,0,0,1.07-.42,7.86,7.86,0,0,0,1-.55l.42-.28a6.81,6.81,0,0,0,1.93-2.08A6.15,6.15,0,0,0,238.88,202.46Zm-.13,0c0,.1-.09.19-.14.29a.47.47,0,0,1-.05.1,1.19,1.19,0,0,0-.08.16l0,0v0l0,0,0,0,0-.06,0,0-.06-.08,0,0-.07-.09,0,0-.1-.12h0l-.12-.14,0,0-.11-.12-.05-.06-.09-.1-.06-.06-.09-.09-.06-.07-.1-.09-.07-.07-.09-.09-.08-.07-.1-.09-.07-.07-.11-.08-.08-.07-.11-.09-.08-.06-.11-.08-.08-.06-.13-.09-.08-.05-.17-.1,0,0-.21-.11a.11.11,0,0,0-.07,0l-.14-.08-.09,0-.13-.05-.09,0-.13,0-.1,0-.12,0-.1,0h-.68l-.13,0-.09,0-.13,0-.1,0-.14.07-.08,0a1.79,1.79,0,0,0-.22.13h0a2,2,0,0,0-.9,1.28.06.06,0,0,0,0,.07,10.64,10.64,0,0,0,1.32,1,8.62,8.62,0,0,1-1.28-.45s0,0-.06,0a.07.07,0,0,0,0,.06,1.85,1.85,0,0,0,0,.23s0,.06,0,.08,0,.11,0,.16a.42.42,0,0,0,0,.1.88.88,0,0,0,0,.15l0,.1.06.14.06.11.07.14.06.1.08.14.07.11.09.13.08.11.1.13.08.1.11.13.09.11a.68.68,0,0,1,.12.12l.1.1a.63.63,0,0,0,.12.11l.1.1.13.11a.52.52,0,0,0,.11.1l.13.1.12.09a.71.71,0,0,0,.14.1l.12.09.14.09.12.08.09.05-.26.1-.15.07-.5.17c-1-.72-3.36-2.57-3.47-4.5a2.29,2.29,0,0,1,.21-1.09,3.33,3.33,0,0,1,3.12-1.79C236.11,199.17,238.14,201.64,238.75,202.44Z"/><ellipse class="cls-1" cx="448.72" cy="423.78" rx="43.62" ry="10.9"/><path class="cls-9" d="M455.07,355.39c-.38.76-4,15.09-15.91,18.82s-18,4.81-21.93,7.89-11.87,1.36-7.55-7,19.26-9.93,22.52-11.58,1.59-7.22,4-11S443,345.31,450,346,455.93,353.68,455.07,355.39Z"/><path class="cls-5" d="M455.07,355.39c-.38.76-4.34,12.94-16.21,16.66s-17.7,5.28-21.62,8.36-11.88,3-7.56-5.34,19.26-9.93,22.52-11.58,1.59-7.22,4-11S443,345.31,450,346,455.93,353.68,455.07,355.39Z"/><path class="cls-9" d="M412.09,382.46s.52-4.78,4.14-6c-4.13-.26-4.89,3.84-5.26,5.15S412,383,412.09,382.46Z"/><path class="cls-9" d="M409.31,381.24s.78-5,4.06-6.08c-3.75-.23-4.47,3.48-4.78,4.68C408.34,380.81,409.22,381.75,409.31,381.24Z"/><path class="cls-5" d="M441.65,416.2c-.8-.42-15-4.8-19.7-1.55a4,4,0,0,0-1.16,5.24l23.13,1.37Z"/><path class="cls-20" d="M421.21,419.44a6.87,6.87,0,0,1,6.71-3.66C425.35,414.66,420.89,415.22,421.21,419.44Z"/><path class="cls-5" d="M477.68,412.86s2.86-12.38,9.87-14,4.14,7.49-.16,15.21-13.06,5.81-12.42,2.62S477.68,412.86,477.68,412.86Z"/><path class="cls-5" d="M446.53,336.11c-.46,4,.25,4.4,3.39,6.39,5.5,3.46,14.35,10.68,21.55,24.22,11.33,21.31,12.24,41.7,5.44,50.31s-19.94,10.9-27.42,4.77c2.94,4.52.6,6.19-2.95,6.19s-20.24.37-24.55,0-8.23-2.35-6.87-5.14,5.66-4.91,13-4.53,11.71-.08,12.24-.38-4-1.59-7.06-8.39,1-14.39,1-14.39a85.29,85.29,0,0,1-12.81-20.39c-4.64-11.1-4.53-15.41-3.74-21.64s-1-12.58-1.36-14.17S446.53,336.11,446.53,336.11Z"/><path class="cls-2" d="M426.91,348s8.69,20.45-4.05,28.68c0,0-5.83-12.52-5.09-17,0,0,1.14-13.86.28-14.43C418.05,345.27,424.71,348.05,426.91,348Z"/><path class="cls-21" d="M435.65,349c-6,2-12,1.24-17.71-.1a48.76,48.76,0,0,0-1.54-10c-.34-1.58,30.13-2.85,30.13-2.85,0,.45-.08.84-.1,1.2A18.21,18.21,0,0,1,435.65,349Z"/><path class="cls-9" d="M434.31,395.16s1.76-6.45,12.37-9.42,19.64,5.41,20.38,6.48c-2.23-6.27-10.32-10.19-19.95-8.89A14.71,14.71,0,0,0,434.31,395.16Z"/><path class="cls-9" d="M441.8,407.5s1.79,9.39,7.69,14.3C443.82,418.64,441,413.23,441.8,407.5Z"/><path class="cls-9" d="M418.61,426.83a6.87,6.87,0,0,1,6.71-3.66C422.75,422.05,418.29,422.61,418.61,426.83Z"/><path class="cls-9" d="M416.34,424a6.87,6.87,0,0,1,6.71-3.66C420.48,419.27,416,419.83,416.34,424Z"/><path class="cls-9" d="M458.31,357c-.26.93-1.45,17.8-13.37,24.29s-18.26,8.9-21.85,13.12-12.37,3.83-9.36-6.47,18.62-14.9,21.77-17.39.34-8.45,2.18-13.18a14.92,14.92,0,0,1,13.45-10C458.72,346.84,458.9,354.9,458.31,357Z"/><path class="cls-5" d="M458.31,357c-.26.93-2.18,15.42-14.1,21.92s-17.84,9.36-21.43,13.58-12.06,5.74-9-4.56,18.62-14.9,21.77-17.39.34-8.45,2.18-13.18a14.92,14.92,0,0,1,13.45-10C458.72,346.84,458.9,354.9,458.31,357Z"/><path class="cls-9" d="M417.69,395.8s-.34-5.49,3.27-7.56c-4.44.5-4.48,5.27-4.63,6.83S417.7,396.45,417.69,395.8Z"/><path class="cls-9" d="M414.5,395s-.11-5.76,3.18-7.64c-4,.45-4.1,4.78-4.21,6.19C413.39,394.67,414.51,395.56,414.5,395Z"/><path class="cls-22" d="M444,325.83a.75.75,0,0,0,.18.08c2.49.76,7.68-3.24,8.19-3.72a39.38,39.38,0,0,1,7.4-5.29,39.34,39.34,0,0,0,7.46-5.35c1.32-1.22,3.36-2.74,5.52-4.34,5.6-4.16,11.95-8.88,11.49-12.29a3.26,3.26,0,0,0-2-2.35,5.23,5.23,0,0,0-.53-.26c-4.13-1.8-9.26-1.27-15.23,1.57-1.21.58-2.44,1.25-3.69,2a60,60,0,0,0-11,8.7,30,30,0,0,0-5.07,6.69c-3.15,5.6-4.06,11.16-3.45,13.45A1.7,1.7,0,0,0,444,325.83Z"/><path class="cls-5" d="M442.83,315.05h0c-4.81,9.38-2.06,12.63-1.73,13,.75.79,2.63.57,5.58-.64,7.5-3.08,19.17-11.43,23.38-15.56,1.26-1.23,2.93-2.63,4.71-4.1,5-4.16,10.69-8.88,10.35-12.69-.12-1.36-1-2.54-2.73-3.51-4.74-2.69-10.62-2.5-16.63.13s-12.16,7.72-17.46,14.81c-.06.09-3,4.45-4.64,7.11C443.3,314.17,443,314.69,442.83,315.05Zm11.36-10.69a55.77,55.77,0,0,1,10.13-7.69c1.14-.66,2.27-1.25,3.37-1.75,5.43-2.47,10-2.87,13.63-1.18l.47.24a2.87,2.87,0,0,1,1.66,2.16c.28,3.09-5.55,7.25-10.7,10.92-2,1.42-3.86,2.76-5.08,3.84a36.11,36.11,0,0,1-6.86,4.72,36.45,36.45,0,0,0-6.79,4.67c-.47.42-5.25,3.95-7.44,3.23l-.16-.08a1.48,1.48,0,0,1-.58-1c-.46-2.08.56-7.09,3.58-12.1A28.49,28.49,0,0,1,454.19,304.36Z"/><path class="cls-5" d="M406.3,327.28a6.17,6.17,0,0,0,4.9-.11l.14-.06c.34-.19.71-.41,1.08-.65l.7-.47a6.68,6.68,0,0,1,5.6-.51c2.18.64,4.08,2,4.63,3.27l.06.17,0,.05,0,.14s0,.05,0,.07a.51.51,0,0,1,0,.13.28.28,0,0,1,0,.09.53.53,0,0,1,0,.13.28.28,0,0,0,0,.09V330a.37.37,0,0,1,0,.11.76.76,0,0,1,0,.15v.12c0,.05,0,.1,0,.15s0,.08,0,.12l0,.16a.5.5,0,0,1,0,.12,1,1,0,0,1,0,.17.53.53,0,0,1,0,.12,1,1,0,0,1,0,.17l0,.13c0,.06,0,.12-.05.17s0,.09,0,.14l-.06.17a.78.78,0,0,1-.05.14,1.15,1.15,0,0,1-.06.17.58.58,0,0,1-.05.14l-.06.18-.07.14a.87.87,0,0,1-.07.17l-.06.15-.08.18-.07.14-.09.17-.07.15-.09.17c0,.06-.06.1-.08.15l-.1.17-.09.15-.1.17-.09.14-.11.17-.1.15-.11.16a1.71,1.71,0,0,1-.11.14.61.61,0,0,1-.12.16.71.71,0,0,1-.1.14,1,1,0,0,1-.13.16l-.11.13a1.83,1.83,0,0,1-.13.16l-.12.13-.13.15-.13.13-.14.14-.12.12-.15.14-.13.12-.15.13-.14.11-.15.12-.15.11-.1.07.18.11.26.15.24.14.28.16.25.13.3.17.27.14.32.16.29.14.32.16.31.15.34.16.32.14.34.15.36.15.34.14.38.15.34.14.4.14.35.13.42.14.35.11.45.14.34.11.48.13.33.09.52.12.31.08.57.12.28.06.74.13.13,0c7.8,1.24,13-2.37,17-11.67.18-1,.35-2,.51-3l-.14.07-.28.16-.2.11-.26.14-.2.1-.26.13-.17.09L446,328l-.16.07-.27.11-.13.06-.29.11-.09,0c-.25.09-.49.16-.71.22h0l-.29.06H444l-.22,0h-.63l-.15,0-.09,0-.14,0-.07,0h0l-.1-.05,0,0-.17-.1c-.38-.3-3.63-3.19-.2-13.21a43.38,43.38,0,0,0-11.66-2.91,31.92,31.92,0,0,0-7.91.15,22.54,22.54,0,0,0-9,3.71A30.68,30.68,0,0,0,407,322c-.45.55-.84,1.08-1.17,1.57l-.3.48-.05.1C405.23,324.67,404.63,326.44,406.3,327.28Zm27.11-8.42a4.28,4.28,0,0,1,3.32,1.29,3.69,3.69,0,0,1,1.21,2.16,3.56,3.56,0,0,1,0,.8c-.28,2.52-3.31,4.82-4.89,5.85l-.3.2h-.07a10.92,10.92,0,0,1-1.44-.61,11.71,11.71,0,0,1-1.39-.8c-.19-.13-.38-.26-.55-.4a9.06,9.06,0,0,1-2.5-2.9,8.3,8.3,0,0,1-.42-.94.08.08,0,0,1,0-.08C427.27,322.41,430.3,319.06,433.41,318.86Z"/><path class="cls-5" d="M434.35,297.76c-2,5.39-4,11-3.82,14.35l.29,0,.21,0,.34,0,.19,0,.34,0,.19,0,.33,0,.19,0,.33.05.18,0,.32.06.18,0,.32.06.17,0c.11,0,.43.08.49.09l.47.1.46.1.3.07.15,0,.3.07.14,0,.29.07.14,0,.28.07.14,0,.27.07.13,0,.26.07.13,0,.26.08.38.11.1,0,.23.07.12,0,.22.07.12,0,.22.07.1,0,.22.07.08,0,.24.08,0,0,.21.08.07,0,.42.15a.19.19,0,0,0,.08,0l.36.15.06,0,.09,0,.1,0,.17.07.08,0,.11,0c.71-2.15,4.08-9,4.18-9.21,1.92-7.26,4.75-20.39,2.12-26.87-1-2.46-2.24-3.62-3.7-3.45C441.68,275.87,435.8,293.78,434.35,297.76Z"/><path class="cls-3" d="M419,337.56s16,9.8,23.67.07a24.09,24.09,0,0,0,4.27-6.91,22.22,22.22,0,0,1-6.61,14.62c-6.51,6.07-21.41-.13-21.41-.13s-9.32-3.95-11.5-8.08l1.41-.85S413.51,341.08,419,337.56Z"/><path class="cls-3" d="M406.61,331.9s.7.19,1.3-1.07a7,7,0,0,1,2.7-3L413,326.4s3.22-2.71,8.39.54c0,0,3.57.09,1.11,6s-7.5,5.68-7.5,5.68-3.66.32-7-3.36A4.58,4.58,0,0,1,406.61,331.9Z"/><path class="cls-3" d="M406.62,322s-3.57.24-5.77,4.59,1.12,7.83,2.18,7.64a3,3,0,0,0,3.32-1.31l-.08-1.09s-2.07-.79-2-4.56C404.29,327.25,403.72,325.69,406.62,322Z"/><path class="cls-23" d="M404.07,334.59a4.27,4.27,0,0,0,2.41-1.28,9.35,9.35,0,0,0,2.06,3,2.48,2.48,0,0,1-3.93-.62A4,4,0,0,1,404.07,334.59Z"/><path class="cls-10" d="M445.61,276a82.26,82.26,0,0,0-11.05,36.19l-3.55-.54s.61-6.69,6.68-21.71C437.69,289.94,440.5,278.8,445.61,276Z"/><path class="cls-24" d="M409.42,328.14s-4.69-.26-4.67-2.33c0,0-.49,6.24,2.24,5.7Z"/><path class="cls-17" d="M460.87,353.19a109,109,0,0,1,10,16.06,92.12,92.12,0,0,1,3.91,8.66,77.1,77.1,0,0,1,3,9,58.48,58.48,0,0,1,1.56,9.41,35.77,35.77,0,0,1-.52,9.52,26.23,26.23,0,0,1-3.39,8.9,27.76,27.76,0,0,1-6.34,7,29.33,29.33,0,0,0,5.92-7.27,26,26,0,0,0,3.06-8.78,39.36,39.36,0,0,0,.37-9.33,57.81,57.81,0,0,0-1.63-9.22,92.64,92.64,0,0,0-6.6-17.6q-2.06-4.26-4.41-8.36T460.87,353.19Z"/><path class="cls-17" d="M451.27,348.69a33.53,33.53,0,0,0-5,2.36,21.15,21.15,0,0,0-4.31,3.24,12.88,12.88,0,0,0-2.88,4.44l-.42,1.28-.21,1.34a5.2,5.2,0,0,0-.11.67v.69c0,.46,0,.92,0,1.39a10.89,10.89,0,0,1,0-5.61,11.83,11.83,0,0,1,2.91-4.91,17.27,17.27,0,0,1,4.66-3.22A18.8,18.8,0,0,1,451.27,348.69Z"/><path class="cls-17" d="M437.17,370.94l-3.05,1.71c-1,.56-2,1.12-3,1.71-2,1.17-4,2.32-5.95,3.57a65.35,65.35,0,0,0-5.67,4,22.25,22.25,0,0,0-2.55,2.3,11,11,0,0,0-2.06,2.76A13.8,13.8,0,0,1,419,381.3a39.68,39.68,0,0,1,5.63-4.21,62.13,62.13,0,0,1,6.13-3.41A59,59,0,0,1,437.17,370.94Z"/><path class="cls-17" d="M436.78,393.5a37.93,37.93,0,0,0-1.91,5.55,22.19,22.19,0,0,0-.73,5.71,12.51,12.51,0,0,0,1.3,5.48,13.46,13.46,0,0,0,3.71,4.41,10.93,10.93,0,0,1-4.4-4,11.76,11.76,0,0,1-1.61-5.84,18.12,18.12,0,0,1,1-5.95A20.9,20.9,0,0,1,436.78,393.5Z"/><path class="cls-18" d="M426.47,323.48s1.72,4.89,6.31,5.46c0,0,4.86-3.19,4.86-6.06,0,0,.09-3-4.28-3.94C433.36,318.94,430.84,318.86,426.47,323.48Z"/><path d="M426.93,324.61a8.67,8.67,0,0,0,2.5,2.7c.17.13.35.24.54.36a11,11,0,0,0,1.36.73,13.37,13.37,0,0,0,1.39.53.09.09,0,0,0,.07,0l.27-.19c1.45-1.06,4.21-3.37,4.34-5.81a2.76,2.76,0,0,0,0-.76,3.61,3.61,0,0,0-1.25-2,4.09,4.09,0,0,0-3.21-1.12c-2.93.3-5.64,3.63-6.4,4.64a.08.08,0,0,0,0,.09A7.35,7.35,0,0,0,426.93,324.61Zm6-5.44a4,4,0,0,1,3.09,1.07,3.85,3.85,0,0,1,1,1.26,2.85,2.85,0,0,1,.27,1.41c-.13,2.51-3.17,4.91-4.5,5.85l-.65-.23-.2-.08-.33-.14.11-.07.16-.09L432,328l.15-.1.18-.13.15-.12.17-.14.15-.12c.05-.05.11-.09.16-.15a.81.81,0,0,0,.14-.12l.16-.15.13-.14.14-.15.13-.14.13-.16.12-.14.12-.17a1.71,1.71,0,0,1,.11-.14l.11-.17.1-.14a1.62,1.62,0,0,1,.1-.18l.08-.14.09-.18.07-.14.08-.18.06-.14.06-.19.05-.12a1.6,1.6,0,0,0,.05-.21l0-.1c0-.11,0-.21.05-.31a.11.11,0,0,0,0-.08.1.1,0,0,0-.09,0,12.31,12.31,0,0,1-1.66.58,14,14,0,0,0,1.72-1.32.11.11,0,0,0,0-.08,2.66,2.66,0,0,0-1.18-1.67h0l-.29-.17-.09-.05-.19-.09-.12,0-.17-.06-.13,0-.17,0-.13,0H432l-.16,0-.13,0a1,1,0,0,1-.17,0l-.12,0-.16.05-.13,0L431,321l-.11.05-.19.09-.08,0-.28.14,0,0a1.64,1.64,0,0,0-.22.14l-.1.06-.17.11-.1.08-.15.11-.11.08-.14.11-.1.09-.14.11-.1.09-.13.12-.09.09-.13.11-.09.09-.12.12-.08.09-.12.12-.08.08-.12.13-.06.07-.14.15,0,0-.16.19h0l-.13.16,0,0-.1.12,0,0-.08.11,0,0-.07.09,0,0-.06.07v0l0,0-.12-.21-.06-.13c-.07-.13-.13-.25-.18-.37C427.44,322.66,430.08,319.46,432.91,319.17Z"/></svg>