<svg id="Layer_1" data-name="Layer 1" xmlns="http://www.w3.org/2000/svg" viewBox="0 0 1280 720"><defs><style>.cls-1{fill:#cec0aa;}.cls-11,.cls-14,.cls-2{fill:none;}.cls-14,.cls-2{stroke:#775e49;}.cls-10,.cls-11,.cls-14,.cls-17,.cls-2,.cls-3,.cls-8{stroke-miterlimit:10;}.cls-2,.cls-3{stroke-width:0.4px;}.cls-3{fill:#594a39;stroke:#44331d;}.cls-4{fill:#ff7f00;}.cls-5{fill:#824107;}.cls-6{fill:#f6e6d4;}.cls-7{fill:#273a4b;}.cls-8{fill:#536a7c;}.cls-11,.cls-8{stroke:#ffe9cc;stroke-width:0.79px;}.cls-9{fill:#0d1a23;}.cls-10{fill:#b4d109;stroke:#5d6602;}.cls-10,.cls-17{stroke-width:0.75px;}.cls-12{fill:#112737;}.cls-13{fill:#e4d5c3;}.cls-14{stroke-width:0.59px;}.cls-15{fill:#e3113a;}.cls-16{fill:#af042d;}.cls-17{fill:#13a1ba;stroke:#18539b;}</style></defs><polygon class="cls-1" points="444.62 376.63 449.17 409.16 529.52 409.71 529.52 375.53 444.62 376.63"/><line class="cls-2" x1="445.19" y1="380.73" x2="529.52" y2="380.73"/><line class="cls-2" x1="445.96" y1="386.19" x2="529.52" y2="386.19"/><line class="cls-2" x1="446.86" y1="392.62" x2="529.52" y2="392.62"/><line class="cls-2" x1="447.69" y1="398.6" x2="529.52" y2="398.6"/><line class="cls-2" x1="448.48" y1="404.24" x2="529.52" y2="404.24"/><rect class="cls-3" x="488.15" y="390.8" width="9.62" height="17.45"/><path class="cls-4" d="M377.69,401s7.63,34.78,38.79,47H576.36s8.52-11.42,16.84-13.74,24-8.71,26.72-26.81l-1.75-1.83-55-.2-6.78,1.36-4.06,2.51H446.67L435.45,401l-57.76-2.38Z"/><polygon class="cls-5" points="376.96 398.26 435.49 401.4 447.42 409.2 553.17 409.2 556.15 405.53 619.92 406.77 619.59 409.29 557.75 409.2 554.54 412.41 446.04 412.41 435.26 405.3 378.16 402.8 376.96 398.26"/><polygon class="cls-6" points="375.62 396.39 435.49 399.61 447.42 407.4 553.17 407.4 556.15 403.73 619.92 403.27 619.92 407.4 557.75 407.4 554.54 410.62 446.04 410.62 435.26 403.5 377.69 400.98 375.62 396.39"/><path class="cls-7" d="M391,428.41H606.31a40.5,40.5,0,0,1-15,7.06c-6.71,1.7-14.92,13-14.92,13H416.57S399,441.3,391,428.41Z"/><rect class="cls-4" x="434.55" y="370.74" width="98" height="7.22" rx="1.86"/><rect class="cls-8" x="454.42" y="384.71" width="12.18" height="14.75" rx="1.8"/><rect class="cls-8" x="470.81" y="384.71" width="12.18" height="14.75" rx="1.8"/><rect class="cls-8" x="504.07" y="384.71" width="12.18" height="14.75" rx="1.8"/><path class="cls-9" d="M419.79,448.52s114.83-3,122-3.65,31.5-5,37.42-7.84,23.6-6.27,23.6-6.27a94,94,0,0,1-13.85,6c-3.09,1-12.64,11.72-12.64,11.72Z"/><path class="cls-10" d="M540.68,278.86s35.66,22.45,62.16,57.67c0,0-15.51,35.5-60.8,57.11Z"/><line class="cls-11" x1="391.03" y1="428.41" x2="606.31" y2="428.41"/><rect class="cls-12" x="543.16" y="395.02" width="3.03" height="4.61"/><rect class="cls-7" x="538.54" y="393.64" width="4.88" height="13.77"/><polygon class="cls-13" points="539.32 393.64 540.05 274.05 540.99 274.05 542.04 393.64 539.32 393.64"/><polyline class="cls-14" points="380.53 396.66 540.68 278.86 516.22 370.86"/><polygon class="cls-6" points="459.75 320.85 458.82 370.74 461.26 370.74 459.75 320.85"/><polygon class="cls-12" points="540.05 274.05 538.94 270.95 542.04 270.95 540.99 274.05 540.05 274.05"/><polygon class="cls-12" points="459.27 323.95 458.16 320.85 461.26 320.85 460.21 323.95 459.27 323.95"/><polygon class="cls-1" points="146.46 376.22 151.01 408.74 231.36 409.29 231.36 375.11 146.46 376.22"/><line class="cls-2" x1="147.04" y1="380.31" x2="231.36" y2="380.31"/><line class="cls-2" x1="147.8" y1="385.78" x2="231.36" y2="385.78"/><line class="cls-2" x1="148.7" y1="392.2" x2="231.36" y2="392.2"/><line class="cls-2" x1="149.54" y1="398.18" x2="231.36" y2="398.18"/><line class="cls-2" x1="150.32" y1="403.83" x2="231.36" y2="403.83"/><rect class="cls-3" x="189.99" y="390.38" width="9.62" height="17.45"/><path class="cls-15" d="M79.53,400.57s7.63,34.78,38.79,47H278.2s8.52-11.42,16.84-13.74,24-8.71,26.72-26.81L320,405.15,265,405l-6.77,1.35-4.07,2.52H148.52l-11.23-8.26-57.76-2.39Z"/><polygon class="cls-16" points="78.8 397.85 137.34 400.99 149.26 408.79 255.01 408.79 257.99 405.12 321.76 406.36 321.43 408.88 259.6 408.79 256.39 412 147.89 412 137.11 404.89 80 402.38 78.8 397.85"/><polygon class="cls-6" points="77.47 395.98 137.34 399.19 149.26 406.99 255.01 406.99 257.99 403.32 321.76 402.86 321.76 406.99 259.6 406.99 256.39 410.2 147.89 410.2 137.11 403.09 79.53 400.57 77.47 395.98"/><path class="cls-7" d="M92.87,428H308.15a40.39,40.39,0,0,1-15,7.06c-6.71,1.7-14.92,13-14.92,13H118.41S100.81,440.88,92.87,428Z"/><rect class="cls-15" x="136.4" y="370.33" width="98" height="7.22" rx="1.86"/><rect class="cls-8" x="156.26" y="384.29" width="12.18" height="14.75" rx="1.8"/><rect class="cls-8" x="172.66" y="384.29" width="12.18" height="14.75" rx="1.8"/><rect class="cls-8" x="205.92" y="384.29" width="12.18" height="14.75" rx="1.8"/><path class="cls-9" d="M121.63,448.1s114.83-3,122-3.64,31.51-5,37.42-7.85,23.61-6.27,23.61-6.27a92.65,92.65,0,0,1-13.86,6c-3.09,1-12.64,11.72-12.64,11.72Z"/><path class="cls-17" d="M242.52,278.45s35.66,22.44,62.17,57.66c0,0-15.52,35.5-60.81,57.11Z"/><line class="cls-11" x1="92.87" y1="428" x2="308.15" y2="428"/><rect class="cls-12" x="245.01" y="394.61" width="3.03" height="4.61"/><rect class="cls-7" x="240.39" y="393.22" width="4.88" height="13.77"/><polygon class="cls-13" points="241.17 393.22 241.89 273.64 242.83 273.64 243.88 393.22 241.17 393.22"/><polyline class="cls-14" points="82.38 396.24 242.53 278.45 218.06 370.45"/><polygon class="cls-6" points="161.6 320.43 160.67 370.33 163.11 370.33 161.6 320.43"/><polygon class="cls-12" points="241.89 273.64 240.78 270.54 243.88 270.54 242.83 273.64 241.89 273.64"/><polygon class="cls-12" points="161.12 323.53 160.01 320.43 163.11 320.43 162.06 323.53 161.12 323.53"/><polygon class="cls-1" points="1027.24 377.58 1031.78 410.1 1112.13 410.65 1112.13 376.47 1027.24 377.58"/><line class="cls-2" x1="1027.81" y1="381.67" x2="1112.13" y2="381.67"/><line class="cls-2" x1="1028.57" y1="387.14" x2="1112.13" y2="387.14"/><line class="cls-2" x1="1029.47" y1="393.56" x2="1112.13" y2="393.56"/><line class="cls-2" x1="1030.31" y1="399.54" x2="1112.13" y2="399.54"/><line class="cls-2" x1="1031.1" y1="405.19" x2="1112.13" y2="405.19"/><rect class="cls-3" x="1070.76" y="391.74" width="9.62" height="17.45"/><path class="cls-4" d="M960.3,401.93s7.63,34.78,38.8,47H1159s8.51-11.42,16.84-13.74,24-8.71,26.71-26.81l-1.75-1.84-55-.19-6.77,1.35-4.07,2.52H1029.29l-11.23-8.26-57.76-2.39Z"/><polygon class="cls-5" points="959.57 399.21 1018.11 402.35 1030.04 410.15 1135.78 410.15 1138.77 406.48 1202.53 407.72 1202.2 410.24 1140.37 410.15 1137.16 413.36 1028.66 413.36 1017.88 406.25 960.77 403.74 959.57 399.21"/><polygon class="cls-6" points="958.24 397.34 1018.11 400.55 1030.04 408.35 1135.78 408.35 1138.77 404.68 1202.53 404.22 1202.53 408.35 1140.37 408.35 1137.16 411.56 1028.66 411.56 1017.88 404.45 960.3 401.93 958.24 397.34"/><path class="cls-7" d="M973.65,429.36h215.27a40.39,40.39,0,0,1-15,7.06c-6.71,1.7-14.92,13-14.92,13H999.18S981.58,442.24,973.65,429.36Z"/><rect class="cls-4" x="1017.17" y="371.69" width="98" height="7.22" rx="1.86"/><rect class="cls-8" x="1037.04" y="385.65" width="12.18" height="14.75" rx="1.8"/><rect class="cls-8" x="1053.43" y="385.65" width="12.18" height="14.75" rx="1.8"/><rect class="cls-8" x="1086.69" y="385.65" width="12.18" height="14.75" rx="1.8"/><path class="cls-9" d="M1002.4,449.46s114.84-3,122-3.64,31.5-5,37.42-7.85,23.6-6.27,23.6-6.27a92.65,92.65,0,0,1-13.86,6c-3.09,1-12.64,11.72-12.64,11.72Z"/><path class="cls-10" d="M1123.3,279.81s35.65,22.44,62.16,57.66c0,0-15.52,35.5-60.8,57.11Z"/><line class="cls-11" x1="973.65" y1="429.36" x2="1188.92" y2="429.36"/><rect class="cls-12" x="1125.78" y="395.97" width="3.03" height="4.61"/><rect class="cls-7" x="1121.16" y="394.58" width="4.88" height="13.77"/><polygon class="cls-13" points="1121.94 394.58 1122.66 275 1123.6 275 1124.66 394.58 1121.94 394.58"/><polyline class="cls-14" points="963.15 397.6 1123.3 279.81 1098.83 371.81"/><polygon class="cls-6" points="1042.37 321.79 1041.44 371.69 1043.88 371.69 1042.37 321.79"/><polygon class="cls-12" points="1122.66 275 1121.55 271.9 1124.66 271.9 1123.6 275 1122.66 275"/><polygon class="cls-12" points="1041.89 324.89 1040.78 321.79 1043.88 321.79 1042.83 324.89 1041.89 324.89"/><polygon class="cls-1" points="729.08 376.22 733.63 408.74 813.98 409.29 813.98 375.11 729.08 376.22"/><line class="cls-2" x1="729.65" y1="380.31" x2="813.98" y2="380.31"/><line class="cls-2" x1="730.42" y1="385.78" x2="813.98" y2="385.78"/><line class="cls-2" x1="731.32" y1="392.2" x2="813.98" y2="392.2"/><line class="cls-2" x1="732.15" y1="398.18" x2="813.98" y2="398.18"/><line class="cls-2" x1="732.94" y1="403.83" x2="813.98" y2="403.83"/><rect class="cls-3" x="772.61" y="390.38" width="9.62" height="17.45"/><path class="cls-15" d="M662.15,400.57s7.63,34.78,38.79,47H860.82s8.52-11.42,16.84-13.74,24-8.71,26.72-26.81l-1.75-1.84-55-.19-6.78,1.35-4.06,2.52H731.13l-11.22-8.26-57.76-2.39Z"/><polygon class="cls-16" points="661.42 397.85 719.95 400.99 731.88 408.79 837.63 408.79 840.61 405.12 904.38 406.36 904.05 408.88 842.21 408.79 839 412 730.5 412 719.72 404.89 662.62 402.38 661.42 397.85"/><polygon class="cls-6" points="660.08 395.98 719.95 399.19 731.88 406.99 837.63 406.99 840.61 403.32 904.38 402.86 904.38 406.99 842.21 406.99 839 410.2 730.5 410.2 719.72 403.09 662.15 400.57 660.08 395.98"/><path class="cls-7" d="M675.49,428H890.77a40.5,40.5,0,0,1-15,7.06c-6.71,1.7-14.92,13-14.92,13H701S683.43,440.88,675.49,428Z"/><rect class="cls-15" x="719.01" y="370.33" width="98" height="7.22" rx="1.86"/><rect class="cls-8" x="738.88" y="384.29" width="12.18" height="14.75" rx="1.8"/><rect class="cls-8" x="755.27" y="384.29" width="12.18" height="14.75" rx="1.8"/><rect class="cls-8" x="788.53" y="384.29" width="12.18" height="14.75" rx="1.8"/><path class="cls-9" d="M704.25,448.1s114.83-3,122-3.64,31.5-5,37.42-7.85,23.6-6.27,23.6-6.27a92.84,92.84,0,0,1-13.85,6c-3.09,1-12.64,11.72-12.64,11.72Z"/><path class="cls-17" d="M825.14,278.45s35.66,22.44,62.16,57.66c0,0-15.51,35.5-60.8,57.11Z"/><line class="cls-11" x1="675.49" y1="428" x2="890.77" y2="428"/><rect class="cls-12" x="827.62" y="394.61" width="3.03" height="4.61"/><rect class="cls-7" x="823" y="393.22" width="4.88" height="13.77"/><polygon class="cls-13" points="823.78 393.22 824.51 273.64 825.45 273.64 826.5 393.22 823.78 393.22"/><polyline class="cls-14" points="664.99 396.24 825.14 278.45 800.68 370.45"/><polygon class="cls-6" points="744.21 320.43 743.28 370.33 745.73 370.33 744.21 320.43"/><polygon class="cls-12" points="824.51 273.64 823.4 270.54 826.5 270.54 825.45 273.64 824.51 273.64"/><polygon class="cls-12" points="743.73 323.53 742.62 320.43 745.73 320.43 744.67 323.53 743.73 323.53"/></svg>