<svg id="Layer_1" data-name="Layer 1" xmlns="http://www.w3.org/2000/svg" viewBox="0 0 1280 720"><defs><style>.cls-1{fill:#414042;}.cls-2,.cls-7{fill:#79c3c6;}.cls-3{fill:#1ca1c4;}.cls-15,.cls-17,.cls-18,.cls-19,.cls-22,.cls-3,.cls-5,.cls-7{stroke:#007ea5;}.cls-10,.cls-11,.cls-14,.cls-15,.cls-17,.cls-18,.cls-19,.cls-20,.cls-21,.cls-22,.cls-3,.cls-5,.cls-6,.cls-7,.cls-8,.cls-9{stroke-miterlimit:10;}.cls-15,.cls-17,.cls-18,.cls-19,.cls-20,.cls-21,.cls-22,.cls-3,.cls-5,.cls-7,.cls-8,.cls-9{stroke-width:2px;}.cls-4{fill:#8fdff2;}.cls-5{fill:#50b9d6;}.cls-6{fill:#2aa6b7;}.cls-10,.cls-6{stroke:#094c5b;}.cls-8{fill:#ebe1c8;stroke:#e2af9f;}.cls-9{fill:#ffcfa1;stroke:#e0b17e;}.cls-10{fill:#2994b8;}.cls-11,.cls-13{fill:#fff;}.cls-11,.cls-14{stroke:#323232;}.cls-11{stroke-width:0.5px;}.cls-12{fill:#231f20;}.cls-14{fill:#562415;}.cls-15{fill:#2977b8;}.cls-16{fill:#70c5f9;}.cls-17{fill:#73b1de;}.cls-18{fill:#5492c6;}.cls-19{fill:#64c8d8;}.cls-20{fill:#ebe8c8;stroke:#ffb7a4;}.cls-21{fill:#ffe2a1;stroke:#d8c08b;}.cls-22{fill:#509ed6;}</style></defs><path class="cls-1" d="M497.7,465.82l.34-.57.4-.52.45-.47.47-.41c.33-.26.67-.5,1-.73s.7-.42,1.06-.6a24,24,0,0,1,4.46-1.66,46,46,0,0,1,4.6-1c.77-.13,1.54-.23,2.32-.33.61-.07,1.22-.14,1.84-.19l10.64-11.72-5.12-6c.11-.65,1.18-1.58,1.82-1.47s6.29,7.39,6.29,7.39l0,.27-.16.22-11,12.08c.34.15.69.28,1,.46a14,14,0,0,1,1.27.68c.42.24.8.52,1.19.79a15.54,15.54,0,0,1,2.14,1.91,12.45,12.45,0,0,1,.92,1.12c.14.19.28.39.41.6s.24.41.37.67a.69.69,0,0,1-1.22.65l0,0-.31-.49c-.12-.17-.25-.33-.38-.5a10.76,10.76,0,0,0-.86-.93,13.22,13.22,0,0,0-2-1.59c-.37-.22-.72-.46-1.11-.65a10.09,10.09,0,0,0-1.15-.55c-.39-.19-.8-.3-1.2-.46l-.48-.15-.44,0h0l-1,0a13.64,13.64,0,0,0-4.4,2.42,27.09,27.09,0,0,0-2.4,2.15,28.63,28.63,0,0,0-2.15,2.42l0,0a.75.75,0,0,1-1,.14.76.76,0,0,1-.17-1.06,31.14,31.14,0,0,1,2.19-2.63,26.8,26.8,0,0,1,2.49-2.39c.27-.22.54-.44.82-.65q-1.64.21-3.24.57a21.84,21.84,0,0,0-4.2,1.32,9.55,9.55,0,0,0-1,.48c-.31.17-.61.37-.89.56l-.4.33-.37.34-.32.37-.28.41-.05.08a.72.72,0,0,1-1,.2A.7.7,0,0,1,497.7,465.82Z"/><path class="cls-2" d="M348.1,369c11.25-27.78,39.09-43.12,75-34.4s120.89,30.77,163.19,17C590,393.87,570.55,431,520,454.65s-103.53-3.55-128.76-17.2C350.37,415.34,350.74,402,346,383.84A34.17,34.17,0,0,1,348.1,369Z"/><path class="cls-3" d="M586.31,351.61c12.5-10.63,40.77-38,47.06-43.53S651,307,645,315.83c11.18-1.18,12.54,5.44,7.28,10.2,7.51-1.23,15.06,3.83,7.26,10.37,8.31-.38,18.1,5.76,1.18,9.94s-63.71,18.42-75,29.81C582.55,365.29,586.31,351.61,586.31,351.61Z"/><path class="cls-4" d="M589.36,352.37l7.68-5.29,7.85-5.46,4.43-3.08,4.55-3.22,4.55-3.21,4.37-3.15,4.1-3,3.63-2.7c1.11-.84,2.16-1.58,3.05-2.28l2.31-1.84c1.27-1,2-1.59,2-1.59l-2,1.56-2.33,1.8c-.9.69-2,1.42-3.09,2.24l-3.67,2.64-4.13,2.89-4.43,3.08L613.61,335l-4.6,3.13-4.47,3-7.93,5.34-7.76,5.17a.45.45,0,0,0,.5.76Z"/><path class="cls-4" d="M592,359.18l8.23-5.12,8.47-5.21,4.79-2.92,4.95-3,5-3,4.83-2.85c1.56-.91,3.07-1.82,4.52-2.65l4.09-2.31c1.26-.71,2.41-1.4,3.46-1.94L643,328.8l2.37-1.22L643,328.77l-2.74,1.36c-1.06.53-2.21,1.2-3.5,1.89l-4.12,2.25L628,336.86l-4.87,2.77-5,2.92-5,2.92-4.83,2.85-8.54,5.09-8.32,5a.47.47,0,0,0-.15.63.44.44,0,0,0,.62.15h0Z"/><path class="cls-4" d="M597.13,363.36,654.28,338l-57.51,24.52a.46.46,0,1,0,.35.84Z"/><path class="cls-5" d="M429.53,339.84c8.75-23.07-18.33-89.7-14.28-103.81s24.17,2.47,27.59,13.27c4.24-9.72,19.38-9.71,24.47,7.89,10.53-6.4,26.14-4.89,25.89,16.4,13.09-9.85,20.24,16.86,14.44,43.78s-25.92,52.5-37.27,54.93S429.53,339.84,429.53,339.84Z"/><path class="cls-6" d="M441.15,298.84c4.53-6.16,9.35-3.71,13,3.87,5-8.13,12.87-3.34,15.06,5.06,2.31-7.78,10.27-3.45,11.76,5.55,4.23-8.35,10.09-2.32,9.2,7.33,6-6.5,9.52,5.42,9.43,12.33a3,3,0,0,1,3.08-.05c-8.46,20.53-23.23,37.42-32.35,39.37-11.35,2.43-40.84-32.46-40.84-32.46,3.19-8.4,1.62-22.6-1.47-37.92C430.83,293.75,439.28,292.69,441.15,298.84Z"/><path class="cls-4" d="M434.13,288.77s-.51-2.8-1.28-7-1.85-9.76-3-15.33c-.58-2.78-1.17-5.56-1.76-8.15-.31-1.3-.58-2.56-.88-3.75s-.54-2.3-.83-3.33-.5-2-.76-2.81-.45-1.56-.64-2.15c-.41-1.17-.64-1.85-.64-1.85l.6,1.86c.18.6.37,1.33.6,2.16s.45,1.79.7,2.82.5,2.16.77,3.35.52,2.45.8,3.76c.53,2.6,1.07,5.39,1.6,8.18,1,5.58,2,11.18,2.69,15.38s1.13,7,1.13,7h0a.45.45,0,0,0,.52.37.47.47,0,0,0,.38-.52Z"/><path class="cls-4" d="M452.85,295s0-.63,0-1.73,0-2.67,0-4.55-.05-4.09-.11-6.44c0-1.18-.05-2.4-.1-3.63s-.08-2.5-.13-3.75-.09-2.51-.16-3.75-.14-2.45-.2-3.62-.14-2.31-.24-3.39-.17-2.09-.24-3-.18-1.79-.28-2.55-.19-1.42-.26-2c-.15-1.09-.23-1.72-.23-1.72l.19,1.72c.06.55.13,1.21.21,2s.19,1.62.22,2.56.12,2,.18,3,.15,2.21.17,3.39.07,2.39.11,3.63.06,2.49.07,3.74,0,2.51.06,3.75,0,2.45,0,3.63c0,2.35,0,4.54,0,6.43s0,3.45-.06,4.54,0,1.73,0,1.73a.45.45,0,1,0,.9,0Z"/><path class="cls-4" d="M472.24,296.24s.63-7.8.88-15.62c.06-2,.11-3.91.11-5.75,0-.91,0-1.8,0-2.64s0-1.63-.06-2.37c0-.36,0-.71,0-1.05s-.05-.65-.07-.95c0-.59-.06-1.11-.12-1.53-.1-.85-.16-1.34-.16-1.34l.11,1.34c.05.42.06.94.09,1.54,0,.29,0,.61,0,.94v1.06c0,.73,0,1.52,0,2.36s0,1.72-.07,2.64c-.06,1.83-.16,3.78-.28,5.72-.47,7.8-1.32,15.56-1.32,15.56a.46.46,0,0,0,.4.51.45.45,0,0,0,.5-.41Z"/><path class="cls-4" d="M487.4,302.66s.7-7.07,1.21-14.16c.12-1.78.24-3.55.33-5.22.06-.83.08-1.63.11-2.39s.05-1.49.07-2.16,0-1.27,0-1.81,0-1-.05-1.41a6.36,6.36,0,0,0-.1-.89c0-.21,0-.32,0-.32l0,.32a7.65,7.65,0,0,1,.07.9c0,.38,0,.86,0,1.4s0,1.15-.07,1.81-.07,1.38-.14,2.14-.11,1.57-.19,2.39c-.14,1.66-.31,3.43-.5,5.2-.73,7.06-1.66,14.1-1.66,14.1a.46.46,0,0,0,.39.51.45.45,0,0,0,.51-.4Z"/><path class="cls-4" d="M498.74,310.1s1.07-6.62,1.71-13.28c.08-.83.15-1.67.21-2.49s.13-1.63.17-2.41.08-1.54.11-2.26,0-1.4,0-2,0-1.21,0-1.72,0-.95-.06-1.32c-.07-.72-.1-1.14-.1-1.14s0,.42.05,1.15c0,.36,0,.81,0,1.31s0,1.09,0,1.71,0,1.3-.11,2-.1,1.47-.18,2.25-.15,1.58-.26,2.4-.18,1.64-.29,2.47c-.22,1.66-.46,3.3-.7,4.85s-.49,3-.7,4.22c-.43,2.46-.76,4.09-.76,4.09a.46.46,0,1,0,.89.19Z"/><path class="cls-7" d="M478.05,407c-32.05-.41-63.14-23.89-74.34-35.55s-27.4-16.09-40.55,3.46c-6.51,9.68-13.63,5.77-18.22,3.49-.28-3.35,3.16-9.43,3.16-9.43,11.25-27.78,39.09-43.12,75-34.4s120.89,30.77,163.19,17a111,111,0,0,1,.41,12.05C564.17,400.64,509.4,407.42,478.05,407Z"/><path class="cls-8" d="M344.94,378.43c4.59,2.28,11.71,6.19,18.22-3.49,13.15-19.55,29.35-15.13,40.55-3.46a123.75,123.75,0,0,0,18.45,15.23c12.55,39.77-30.3,27.48-35.42,23.35-11.5-9.27-31.7-5.68-30.85.29-6.32-8.8-7.4-17-9.88-26.51A42.26,42.26,0,0,1,344.94,378.43Z"/><path class="cls-9" d="M386.74,410.06c5.12,4.13,48,16.42,35.42-23.35,14.8,10.13,35.15,20.06,55.89,20.32,31.35.39,86.12-6.39,108.67-43.37-.76,37.23-21,69.65-66.74,91-50.57,23.62-103.53-3.55-128.76-17.2-19.47-10.54-29.57-19.08-35.33-27.1C355,404.38,375.24,400.79,386.74,410.06Z"/><path class="cls-5" d="M444.9,392c41.1-28.36,46.21-59.54,65.12-91.27s60.63-83.66,59.26-44.64c21.56-11.42,18.56,24.63,11.65,39.47,15-4.07,12,18.83-2.32,32,9.23,2,6.77,24.38-8.34,34,2.81,4.51,2.32,19.15-21.7,32C490.24,424.78,425,405.75,444.9,392Z"/><path class="cls-10" d="M444.9,392c34.73-24,43.76-49.94,57.14-76.56,4-2.07,7.2-.44,5.18,9.3,6.18-4.8,9.45,1.33,5.74,9.21,6.89-3.31,6.24,6.69,1.65,12.15,7.54-1.38,8.06,4.66,0,14.83,10.32-3.58,4.8,10.62-1.14,15.9,11-2.89,7.19,8.66-3.1,14.25,4.66.65,5.2,8.83-4.7,17.2C463.32,415.75,429.88,402.37,444.9,392Z"/><path class="cls-4" d="M513.16,313.7l6.67-9.14,6.87-9.34c2.52-3.42,5.24-7,7.95-10.67s5.47-7.21,8-10.6c1.28-1.7,2.56-3.3,3.75-4.84l3.36-4.33c1-1.35,2-2.54,2.89-3.62l2.25-2.78,2-2.42-2,2.4-2.28,2.75c-.88,1.06-1.89,2.25-2.94,3.58L546.26,269c-1.21,1.52-2.51,3.11-3.8,4.79-2.61,3.36-5.42,6.91-8.17,10.5s-5.52,7.19-8.08,10.58l-7,9.25-6.79,9.07a.45.45,0,0,0,.09.63.46.46,0,0,0,.64-.09h0Z"/><path class="cls-4" d="M523.09,327.29l.67-.52c.44-.35,1.08-.84,1.89-1.49l2.85-2.44c1.08-1,2.31-2,3.61-3.23s2.72-2.51,4.19-3.93l2.26-2.16,2.34-2.28c1.59-1.55,3.2-3.18,4.84-4.83s3.27-3.36,4.93-5.06,3.26-3.42,4.84-5.13,3.14-3.39,4.61-5.06l2.17-2.43,2-2.37c1.34-1.53,2.54-3,3.67-4.4.58-.68,1.09-1.36,1.58-2s1-1.25,1.4-1.82c.86-1.16,1.56-2.2,2.16-3s1-1.58,1.26-2.05l.44-.73-.45.72c-.3.47-.7,1.18-1.28,2s-1.33,1.87-2.19,3c-.45.57-.92,1.17-1.43,1.8s-1,1.31-1.59,2c-1.15,1.35-2.36,2.84-3.72,4.35l-2.07,2.34-2.2,2.41c-1.49,1.65-3.07,3.3-4.66,5s-3.27,3.38-4.91,5.08-3.32,3.36-5,5-3.29,3.24-4.9,4.76l-2.36,2.26-2.28,2.12c-1.48,1.41-2.91,2.68-4.22,3.87s-2.55,2.23-3.63,3.18l-2.86,2.37c-.81.64-1.46,1.13-1.9,1.46l-.67.52h0a.47.47,0,0,0-.08.64.46.46,0,0,0,.64.09Z"/><path class="cls-4" d="M524.69,349.26s3.64-2.17,9-5.55c2.68-1.69,5.79-3.7,9.11-5.87,1.65-1.11,3.37-2.23,5.09-3.41s3.48-2.35,5.2-3.58,3.46-2.43,5.14-3.67l2.5-1.82,2.4-1.83c.78-.61,1.57-1.18,2.32-1.78l2.17-1.75c1.44-1.12,2.73-2.26,3.93-3.3.6-.52,1.19-1,1.71-1.5l1.5-1.4c.46-.45.9-.87,1.31-1.25s.73-.78,1.06-1.11l2-2.12-2,2.1c-.33.33-.66.72-1.07,1.09l-1.33,1.22-1.51,1.39c-.53.49-1.13,1-1.73,1.48-1.21,1-2.52,2.14-4,3.23-.72.56-1.45,1.14-2.21,1.72s-1.54,1.16-2.34,1.75l-2.42,1.8c-.83.58-1.67,1.19-2.52,1.78-1.69,1.22-3.43,2.41-5.18,3.6s-3.51,2.35-5.24,3.51-3.47,2.24-5.13,3.33c-3.34,2.12-6.47,4.08-9.18,5.74-5.41,3.3-9.07,5.42-9.07,5.42a.44.44,0,0,0-.16.61.46.46,0,0,0,.62.17Z"/><path class="cls-4" d="M526.36,368.22l.56-.17c.37-.1.9-.28,1.57-.5s1.49-.49,2.42-.81,2-.7,3.11-1.14,2.35-.91,3.64-1.43,2.63-1.12,4-1.7,2.81-1.26,4.24-2,2.89-1.38,4.3-2.15l2.15-1.13,2.09-1.17c.69-.4,1.38-.78,2-1.18l2-1.2c.65-.39,1.29-.78,1.9-1.17l1.78-1.18,1.68-1.12c.54-.36,1-.75,1.53-1.1l2.66-2,2-1.6,1.72-1.39s-.63.5-1.75,1.36l-2,1.57-2.69,1.9c-.5.34-1,.72-1.55,1.07l-1.7,1.1-1.79,1.14c-.62.38-1.27.75-1.92,1.14l-2,1.16c-.68.39-1.38.75-2.07,1.14l-2.11,1.14L550,357.94c-1.43.74-2.9,1.4-4.33,2.08s-2.88,1.26-4.25,1.87-2.74,1.15-4,1.63-2.51,1-3.65,1.36-2.18.76-3.11,1.07-1.74.57-2.41.78l-1.56.46-.55.16h0a.45.45,0,0,0-.31.56.43.43,0,0,0,.55.31Z"/><path class="cls-4" d="M523,392s2.63-.93,6.54-2.42c1.95-.75,4.21-1.64,6.63-2.62l3.72-1.55c1.26-.54,2.54-1.07,3.81-1.65s2.54-1.13,3.78-1.72l1.84-.87,1.78-.89,1.72-.86,1.62-.87,1.53-.83,1.4-.84,1.29-.76,1.13-.75a19.63,19.63,0,0,0,1.79-1.26l1.51-1.17-1.53,1.14a19,19,0,0,1-1.82,1.22l-1.14.73-1.3.73-1.42.8c-.48.27-1,.53-1.54.8l-1.64.83c-.56.28-1.14.55-1.73.83s-1.19.57-1.79.84l-1.85.84c-1.25.57-2.53,1.1-3.81,1.64s-2.57,1.06-3.84,1.58-2.53,1-3.74,1.47c-2.43.92-4.71,1.77-6.67,2.47-3.93,1.41-6.56,2.28-6.56,2.28a.45.45,0,0,0,.28.86Z"/><path class="cls-1" d="M477.6,474.7l.4-.66.47-.6.52-.55.56-.49a14.27,14.27,0,0,1,1.19-.85c.4-.24.82-.49,1.24-.7a28.5,28.5,0,0,1,5.23-2,53.19,53.19,0,0,1,5.38-1.16c.9-.15,1.81-.27,2.72-.38.72-.09,1.43-.17,2.16-.23l12.47-13.72-6-7c.12-.75,1.37-1.85,2.13-1.72s7.37,8.66,7.37,8.66l-.06.31-.17.26-12.86,14.16a11.67,11.67,0,0,1,1.19.54c.51.25,1,.51,1.48.8s.93.61,1.4.92a19,19,0,0,1,2.51,2.24,16.79,16.79,0,0,1,1.07,1.3c.17.23.33.46.48.71a7.18,7.18,0,0,1,.44.79.81.81,0,0,1-.32,1.06.82.82,0,0,1-1.11-.29l0-.07c-.1-.15-.24-.38-.37-.57s-.3-.4-.45-.59a10.35,10.35,0,0,0-1-1.09,15,15,0,0,0-2.33-1.87c-.43-.25-.84-.54-1.29-.76a14,14,0,0,0-1.36-.64c-.45-.22-.94-.35-1.4-.54-.19-.06-.38-.12-.57-.16h-.51l-1.15,0a16.21,16.21,0,0,0-5.16,2.84,32,32,0,0,0-2.82,2.53,33.35,33.35,0,0,0-2.52,2.83v0A.89.89,0,0,1,485.1,477a35.22,35.22,0,0,1,2.57-3.1,31.91,31.91,0,0,1,2.91-2.78c.31-.27.63-.52,1-.77-1.28.17-2.55.38-3.79.66a25.89,25.89,0,0,0-4.92,1.56c-.39.16-.77.36-1.13.55s-.71.43-1,.66l-.47.38-.43.41-.38.43-.33.47-.06.1a.83.83,0,0,1-1.39-.91Z"/><path class="cls-11" d="M368,371.6a9.24,9.24,0,1,0,12.3-4.43A9.24,9.24,0,0,0,368,371.6Z"/><path class="cls-12" d="M369.9,372.72A6.08,6.08,0,1,0,378,369.8,6.07,6.07,0,0,0,369.9,372.72Z"/><path class="cls-13" d="M376.49,371.67a3,3,0,1,0,3.93-1.41A3,3,0,0,0,376.49,371.67Z"/><path class="cls-14" d="M344.52,371.24s-15.52,3.46-14.89,5.21,15.95,12.85,18.85,12.26c2-.4,5.81-4.55,6.54-6.62s-3.11-3.16-4.11-4.11S348,370.4,344.52,371.24Z"/><path class="cls-1" d="M778.07,592l.35-.58.4-.51.44-.47.48-.42c.33-.25.67-.5,1-.72a12.1,12.1,0,0,1,1.06-.6,24,24,0,0,1,4.46-1.66,45.79,45.79,0,0,1,4.59-1c.77-.13,1.55-.23,2.33-.33.61-.07,1.21-.14,1.84-.19l10.64-11.72-5.12-6c.1-.65,1.17-1.58,1.81-1.47s6.29,7.39,6.29,7.39l0,.27-.15.22-11,12.08c.35.15.69.28,1,.46a14,14,0,0,1,1.27.68c.41.24.79.52,1.19.79a14.91,14.91,0,0,1,2.14,1.91,12.45,12.45,0,0,1,.92,1.12c.14.18.27.39.4.59a7.16,7.16,0,0,1,.38.68.69.69,0,0,1-1.22.65l0-.05-.31-.49c-.12-.17-.26-.33-.38-.5a10.89,10.89,0,0,0-.87-.93,13.41,13.41,0,0,0-2-1.6c-.36-.21-.71-.45-1.1-.64a10.23,10.23,0,0,0-1.16-.55c-.38-.19-.8-.3-1.19-.46l-.49-.15-.43,0h0l-1,0a13.44,13.44,0,0,0-4.4,2.42,27.21,27.21,0,0,0-2.41,2.15c-.75.77-1.49,1.59-2.15,2.42v0a.76.76,0,0,1-1.2-.92,31.37,31.37,0,0,1,4.67-5c.27-.22.54-.44.82-.65-1.08.14-2.17.33-3.23.57a21.62,21.62,0,0,0-4.2,1.32,9.72,9.72,0,0,0-1,.48c-.31.17-.6.37-.89.56l-.4.33-.36.34-.33.37-.27.4-.06.09a.71.71,0,0,1-1.19-.77Z"/><path class="cls-2" d="M628.47,495.17c11.25-27.78,39.1-43.12,75-34.4s120.89,30.77,163.2,17c3.68,42.26-15.77,79.43-66.34,103s-103.53-3.55-128.76-17.2c-40.84-22.11-40.47-35.41-45.2-53.61A34.26,34.26,0,0,1,628.47,495.17Z"/><path class="cls-15" d="M866.69,477.78c12.5-10.63,40.77-38,47-43.53s17.63-1.07,11.65,7.75c11.17-1.18,12.53,5.43,7.27,10.2,7.52-1.23,15.06,3.83,7.27,10.37,8.3-.38,18.1,5.76,1.17,9.94s-63.7,18.42-75,29.81C862.93,491.46,866.69,477.78,866.69,477.78Z"/><path class="cls-16" d="M869.73,478.54l7.69-5.29,7.85-5.46,4.42-3.08c1.5-1.07,3-2.15,4.56-3.22l4.54-3.21,4.38-3.15,4.09-3,3.63-2.7c1.12-.84,2.17-1.58,3.06-2.29l2.3-1.83,2-1.59-2,1.56-2.33,1.8c-.9.69-2,1.42-3.09,2.24L907.14,452,903,454.89,898.58,458,894,461.12l-4.6,3.13-4.47,3L877,472.62l-7.77,5.17a.46.46,0,0,0-.13.63.45.45,0,0,0,.63.13Z"/><path class="cls-16" d="M872.33,485.35l8.24-5.12L889,475c1.56-.94,3.16-1.92,4.79-2.92l4.95-3,5-3,4.83-2.85c1.57-.92,3.08-1.82,4.52-2.65l4.09-2.31c1.27-.72,2.42-1.4,3.46-1.94l2.72-1.41,2.37-1.22s-.87.42-2.39,1.19l-2.73,1.36c-1.06.53-2.22,1.2-3.5,1.89L913,460.44,908.42,463l-4.87,2.77-5,2.92-5,2.92c-1.64,1-3.26,1.93-4.83,2.85l-8.54,5.09-8.31,5a.46.46,0,0,0-.16.63.45.45,0,0,0,.63.15Z"/><path class="cls-16" d="M877.5,489.53l57.15-25.35L877.14,488.7a.46.46,0,0,0,.35.84Z"/><path class="cls-17" d="M709.91,466c8.75-23.07-18.34-89.7-14.29-103.81s24.18,2.47,27.6,13.27c4.24-9.72,19.37-9.71,24.46,7.89,10.53-6.4,26.15-4.89,25.9,16.4,13.09-9.85,20.23,16.86,14.43,43.78S762.1,496,750.75,498.47,709.91,466,709.91,466Z"/><path class="cls-18" d="M721.52,425c4.54-6.16,9.35-3.71,13,3.87,5-8.14,12.88-3.35,15.06,5.06,2.32-7.78,10.27-3.45,11.76,5.55,4.23-8.35,10.1-2.32,9.2,7.33,6-6.5,9.53,5.42,9.44,12.33a3,3,0,0,1,3.08,0c-8.47,20.53-23.24,37.42-32.35,39.37C739.4,500.9,709.91,466,709.91,466c3.19-8.4,1.61-22.6-1.47-37.92C711.2,419.92,719.66,418.86,721.52,425Z"/><path class="cls-16" d="M714.51,414.94s-.51-2.8-1.28-7-1.85-9.76-3-15.33c-.57-2.78-1.17-5.56-1.76-8.16-.3-1.3-.57-2.55-.87-3.74s-.55-2.3-.83-3.33-.5-2-.76-2.81-.45-1.56-.65-2.15l-.63-1.85.6,1.86c.18.59.36,1.33.6,2.16s.44,1.79.7,2.82.5,2.16.77,3.35.52,2.45.79,3.75c.54,2.61,1.08,5.4,1.6,8.19,1,5.58,2,11.18,2.7,15.38s1.13,7,1.13,7h0a.44.44,0,0,0,.51.37.45.45,0,0,0,.38-.52Z"/><path class="cls-16" d="M733.22,421.17v-1.73c0-1.09,0-2.67-.05-4.55s0-4.09-.11-6.44c0-1.18,0-2.4-.09-3.64s-.09-2.49-.14-3.74-.08-2.51-.16-3.75-.13-2.45-.19-3.62-.15-2.31-.24-3.39-.17-2.1-.25-3-.17-1.79-.28-2.55-.19-1.42-.26-2l-.22-1.72s.06.63.18,1.72c.06.55.13,1.21.22,2s.18,1.61.22,2.56.12,2,.18,3,.14,2.21.16,3.39.08,2.39.11,3.63.07,2.49.08,3.74,0,2.51,0,3.75,0,2.45,0,3.63c0,2.35,0,4.54,0,6.43s0,3.45-.06,4.54,0,1.73,0,1.73a.46.46,0,0,0,.44.47.47.47,0,0,0,.47-.45Z"/><path class="cls-16" d="M752.62,422.41s.63-7.81.87-15.62c.06-2,.11-3.91.11-5.75,0-.91,0-1.8,0-2.64s0-1.63-.06-2.37c0-.36,0-.72,0-1s0-.65-.07-1c0-.6-.07-1.11-.13-1.53-.1-.86-.15-1.34-.15-1.34l.11,1.34c0,.42.06.94.09,1.54,0,.29,0,.61,0,.94V396c0,.73,0,1.52,0,2.36s0,1.72-.07,2.64c-.06,1.83-.16,3.78-.28,5.72-.47,7.8-1.32,15.56-1.32,15.56a.46.46,0,0,0,.4.51.47.47,0,0,0,.5-.41Z"/><path class="cls-16" d="M767.77,428.83s.7-7.07,1.21-14.16c.13-1.78.25-3.55.34-5.22,0-.83.08-1.63.11-2.39s0-1.49.07-2.16,0-1.27,0-1.81,0-1,0-1.41a9,9,0,0,0-.1-.9c0-.2-.05-.31-.05-.31s0,.11,0,.32a7.65,7.65,0,0,1,.07.9c0,.38,0,.86,0,1.39s0,1.16-.07,1.82-.08,1.38-.14,2.14-.11,1.57-.19,2.39c-.14,1.66-.32,3.43-.5,5.19-.74,7.07-1.66,14.11-1.66,14.11a.45.45,0,1,0,.9.11Z"/><path class="cls-16" d="M779.11,436.27s1.08-6.62,1.71-13.28c.09-.83.16-1.67.22-2.49s.13-1.63.17-2.41.08-1.54.11-2.26,0-1.4,0-2,0-1.21,0-1.72,0-.95-.07-1.32c-.06-.72-.1-1.14-.1-1.14s0,.42.06,1.15c0,.36,0,.81,0,1.31s0,1.08,0,1.71,0,1.3-.1,2-.1,1.47-.19,2.25-.15,1.58-.25,2.4-.19,1.64-.3,2.47c-.21,1.65-.46,3.3-.7,4.85s-.48,3-.7,4.22c-.43,2.46-.76,4.09-.76,4.09a.47.47,0,0,0,.36.54.46.46,0,0,0,.54-.35Z"/><path class="cls-19" d="M758.43,533.2c-32.06-.41-63.14-23.89-74.34-35.55s-27.4-16.09-40.55,3.46c-6.51,9.68-13.63,5.77-18.22,3.49-.29-3.35,3.15-9.43,3.15-9.43,11.25-27.78,39.1-43.12,75-34.4s120.89,30.77,163.2,17a113.64,113.64,0,0,1,.41,12.05C844.54,526.81,789.78,533.58,758.43,533.2Z"/><path class="cls-20" d="M625.32,504.6c4.59,2.28,11.71,6.19,18.22-3.49,13.15-19.55,29.34-15.14,40.55-3.46a122.49,122.49,0,0,0,18.44,15.22c12.55,39.78-30.29,27.49-35.42,23.36-11.5-9.27-31.69-5.68-30.84.29-6.32-8.8-7.41-17-9.88-26.51A40.59,40.59,0,0,1,625.32,504.6Z"/><path class="cls-21" d="M667.11,536.23c5.13,4.13,48,16.42,35.42-23.36,14.81,10.14,35.15,20.07,55.9,20.33,31.35.38,86.11-6.39,108.67-43.37-.76,37.23-21.05,69.65-66.75,91-50.56,23.62-103.53-3.55-128.76-17.2-19.47-10.54-29.56-19.08-35.32-27.1C635.42,530.55,655.61,527,667.11,536.23Z"/><path class="cls-22" d="M725.27,518.17c41.11-28.36,46.22-59.54,65.13-91.27s60.63-83.66,59.26-44.64c21.56-11.42,18.55,24.63,11.64,39.47,15-4.07,12.05,18.83-2.31,32,9.23,2,6.77,24.38-8.34,34,2.81,4.52,2.31,19.16-21.71,32C770.62,551,705.36,531.91,725.27,518.17Z"/><path class="cls-15" d="M725.27,518.17c34.73-24,43.77-49.94,57.14-76.56,4-2.07,7.21-.44,5.19,9.3,6.18-4.8,9.44,1.33,5.73,9.2,6.89-3.3,6.25,6.7,1.66,12.16,7.53-1.38,8.06,4.65,0,14.83,10.32-3.58,4.81,10.62-1.13,15.9,11-2.89,7.18,8.66-3.11,14.25,4.67.65,5.21,8.83-4.7,17.19C743.7,541.92,710.26,528.54,725.27,518.17Z"/><path class="cls-16" d="M793.53,439.87l6.67-9.14c2-2.74,4.36-5.93,6.88-9.34s5.24-7,7.95-10.67,5.47-7.22,8-10.6c1.27-1.7,2.55-3.3,3.74-4.84s2.32-3,3.37-4.33,2-2.54,2.89-3.62l2.25-2.78,2-2.42-2,2.4L833,387.27c-.87,1.07-1.89,2.26-2.93,3.59s-2.21,2.77-3.42,4.29-2.51,3.11-3.81,4.79c-2.6,3.35-5.41,6.91-8.16,10.5s-5.53,7.19-8.09,10.58l-7,9.25-6.78,9.07a.45.45,0,0,0,.72.54h0Z"/><path class="cls-16" d="M803.47,453.46l.67-.52c.43-.35,1.08-.84,1.88-1.49l2.86-2.44c1.07-1,2.3-2,3.61-3.23s2.72-2.51,4.19-3.93l2.26-2.16,2.33-2.28c1.59-1.55,3.2-3.18,4.84-4.83s3.28-3.36,4.94-5.06,3.26-3.42,4.84-5.13,3.14-3.39,4.6-5.06l2.18-2.43,2-2.37c1.34-1.53,2.54-3,3.67-4.4.58-.68,1.08-1.36,1.58-2l1.4-1.82c.86-1.16,1.56-2.2,2.16-3s1-1.58,1.26-2l.43-.73-.44.72c-.3.47-.71,1.18-1.28,2s-1.33,1.87-2.2,3c-.44.57-.92,1.17-1.42,1.8s-1,1.31-1.6,2c-1.15,1.35-2.36,2.84-3.72,4.35l-2.07,2.34c-.71.79-1.45,1.59-2.2,2.41-1.48,1.64-3.07,3.3-4.66,5s-3.26,3.38-4.9,5.08-3.32,3.36-5,5-3.29,3.24-4.89,4.76l-2.36,2.26c-.78.72-1.54,1.44-2.29,2.12-1.47,1.41-2.91,2.68-4.22,3.87s-2.55,2.23-3.63,3.18l-2.85,2.37c-.81.64-1.46,1.13-1.9,1.46s-.68.52-.68.52h0a.46.46,0,0,0,.55.73Z"/><path class="cls-16" d="M805.06,475.43s3.64-2.17,9-5.56c2.69-1.68,5.8-3.69,9.12-5.86,1.65-1.11,3.36-2.23,5.08-3.41s3.48-2.35,5.2-3.58,3.47-2.43,5.14-3.67l2.5-1.82,2.41-1.84c.78-.6,1.57-1.17,2.31-1.77l2.18-1.75c1.43-1.12,2.73-2.26,3.93-3.3.59-.52,1.19-1,1.71-1.5s1-1,1.49-1.41l1.31-1.24c.42-.37.74-.78,1.06-1.11l2-2.13-2,2.11c-.33.32-.65.72-1.07,1.09l-1.32,1.22-1.51,1.39c-.54.49-1.14,1-1.74,1.47-1.21,1-2.52,2.15-4,3.24l-2.2,1.72c-.75.59-1.54,1.16-2.34,1.75l-2.42,1.8c-.83.58-1.67,1.19-2.52,1.78-1.69,1.22-3.44,2.41-5.18,3.6s-3.52,2.35-5.25,3.5-3.46,2.25-5.12,3.34c-3.34,2.12-6.48,4.08-9.18,5.73-5.41,3.31-9.07,5.42-9.07,5.42a.45.45,0,0,0,.45.79Z"/><path class="cls-16" d="M806.74,494.39l.56-.17c.36-.1.9-.28,1.57-.5s1.48-.49,2.42-.81,2-.7,3.11-1.14,2.35-.91,3.63-1.43,2.63-1.12,4-1.7,2.81-1.26,4.23-2,2.89-1.38,4.31-2.15c.72-.37,1.43-.76,2.14-1.13l2.09-1.17c.69-.4,1.38-.78,2-1.18l2-1.2c.64-.39,1.28-.78,1.89-1.17l1.78-1.18,1.68-1.13c.55-.36,1-.75,1.53-1.09l2.66-2,2-1.6,1.72-1.39-1.74,1.36-2,1.57-2.69,1.9c-.5.34-1,.72-1.55,1.07l-1.69,1.1c-.59.36-1.18.75-1.8,1.14l-1.91,1.14-2,1.16c-.68.39-1.37.75-2.07,1.14l-2.1,1.13-2.15,1.08c-1.44.74-2.9,1.4-4.33,2.08s-2.88,1.26-4.26,1.87-2.74,1.14-4,1.63-2.51,1-3.65,1.36-2.18.76-3.11,1.07-1.75.57-2.42.78l-1.55.46-.56.16h0a.45.45,0,0,0,.25.87Z"/><path class="cls-16" d="M803.41,518.21s2.63-.93,6.53-2.42c1.95-.75,4.22-1.64,6.64-2.62l3.71-1.55c1.26-.54,2.55-1.07,3.81-1.65s2.55-1.13,3.78-1.72l1.85-.87,1.78-.89,1.71-.86,1.62-.87c.53-.3,1-.56,1.54-.83s1-.57,1.4-.84l1.29-.76,1.12-.75a19.93,19.93,0,0,0,1.8-1.26l1.51-1.18L842,500.29c-.48.38-1.11.76-1.83,1.22l-1.13.73-1.3.73-1.42.8c-.49.27-1,.53-1.55.8l-1.63.83-1.73.83-1.79.84-1.86.84c-1.24.57-2.52,1.1-3.81,1.64s-2.57,1.06-3.83,1.57l-3.74,1.47c-2.44.93-4.71,1.78-6.68,2.48-3.92,1.41-6.55,2.28-6.55,2.28a.45.45,0,1,0,.28.86Z"/><path class="cls-1" d="M758,600.87l.41-.66.46-.6.53-.55.55-.49c.39-.3.79-.59,1.19-.85s.83-.49,1.25-.7a27.53,27.53,0,0,1,5.23-1.95,52,52,0,0,1,5.38-1.16c.9-.15,1.81-.27,2.72-.38.71-.09,1.43-.17,2.16-.23l12.46-13.72-6-7c.11-.75,1.37-1.85,2.12-1.72s7.37,8.66,7.37,8.66l0,.31-.18.26-12.86,14.16a12.93,12.93,0,0,1,1.2.54,16,16,0,0,1,1.47.8c.49.27.94.61,1.4.92a17.25,17.25,0,0,1,2.51,2.24,13.54,13.54,0,0,1,1.08,1.3c.16.23.32.46.47.71s.29.48.45.78a.82.82,0,0,1-.33,1.07.81.81,0,0,1-1.1-.3l0-.06c-.09-.15-.23-.38-.37-.58s-.29-.39-.44-.58a11.64,11.64,0,0,0-1-1.09,15.52,15.52,0,0,0-2.33-1.87c-.44-.25-.84-.54-1.3-.76a13.85,13.85,0,0,0-1.35-.64c-.45-.22-.94-.36-1.41-.54l-.56-.17-.51,0h0l-1.15,0a15.87,15.87,0,0,0-5.15,2.84,30.68,30.68,0,0,0-2.82,2.53,33.23,33.23,0,0,0-2.52,2.82l0,0a.89.89,0,0,1-1.41-1.07,35.32,35.32,0,0,1,2.58-3.1,32.07,32.07,0,0,1,2.91-2.79c.31-.26.63-.51,1-.76-1.28.17-2.55.38-3.8.66a26.35,26.35,0,0,0-4.92,1.56c-.39.16-.76.36-1.13.55s-.7.43-1,.66l-.47.38-.43.41-.38.43-.32.47-.06.1a.84.84,0,0,1-1.4-.91Z"/><path class="cls-11" d="M648.33,497.77a9.25,9.25,0,1,0,12.3-4.43A9.25,9.25,0,0,0,648.33,497.77Z"/><path class="cls-12" d="M650.28,498.89a6.08,6.08,0,1,0,8.09-2.92A6.07,6.07,0,0,0,650.28,498.89Z"/><path class="cls-13" d="M656.87,497.84a3,3,0,1,0,3.92-1.42A2.95,2.95,0,0,0,656.87,497.84Z"/><path class="cls-14" d="M624.9,497.41s-15.52,3.46-14.9,5.21,16,12.85,18.85,12.26c2-.41,5.81-4.55,6.55-6.62s-3.12-3.16-4.12-4.11S628.37,496.57,624.9,497.41Z"/></svg>