<svg id="Layer_1" data-name="Layer 1" xmlns="http://www.w3.org/2000/svg" viewBox="0 0 1280 720"><defs><style>.cls-1{fill:#ff440b;}.cls-2{fill:#eadfc7;}.cls-3{fill:#ff603b;}.cls-4{fill:#8c7c72;}.cls-5{fill:#fff3d4;}.cls-6{fill:#6d615a;}.cls-7{fill:#fff;opacity:0.35;}.cls-8{fill:#e0340b;}.cls-9{fill:#eadfc5;}.cls-10{fill:#dbc8af;}.cls-11{fill:#e55438;}</style></defs><path class="cls-1" d="M894.6,430.86l29.67-.11s84.44-94.66,99.65-142.39c13.15-41.24,7.66-91.54-26.72-121.48-40.5-35.28-103.72-34.63-103.72-34.63Z"/><path class="cls-2" d="M893.48,132.25s51.62,2.35,82,31.95c32.2,31.32,31.56,52.11,30.71,81.38-2.25,77.33-86.35,185.19-86.35,185.19l-25.29.09Z"/><path class="cls-3" d="M893.48,132.25s27.15,5.23,51.85,28.35c26.38,24.7,31.21,67.2,25.94,104.39-6.79,47.86-58,165.8-58,165.8l-18.68.07Z"/><polygon class="cls-4" points="926.09 430.87 909.32 453.07 913.21 471.83 910.79 471.87 907.05 453.11 923.2 430.91 926.09 430.87"/><path class="cls-1" d="M893.25,430.87H863.58s-84.79-94.35-100.19-142c-13.3-41.19-8-91.51,26.27-121.58,40.36-35.43,103.59-35,103.59-35Z"/><path class="cls-2" d="M893.25,132.25s-51.61,2.54-81.94,32.26C779.24,196,780,216.73,780.91,246,783.45,323.33,868,430.87,868,430.87h25.28Z"/><path class="cls-3" d="M893.25,132.25s-27.14,5.33-51.75,28.55c-26.28,24.79-31,67.31-25.54,104.48,7,47.83,58.61,165.59,58.61,165.59h18.68Z"/><path class="cls-5" d="M920.94,164.37c-8.9-21.31-27.69-32.12-27.69-32.12h0s-18.74,10.9-27.52,32.26c-8.2,19.93-12.4,49.09-8.16,97.38s28.57,169,28.57,169l15.77,0S925.62,310,929.6,261.71,929.24,184.25,920.94,164.37Z"/><rect class="cls-4" x="861.83" y="428.87" width="64.26" height="1.99"/><path class="cls-4" d="M894.74,507.74h0c-5.76,0-11.24.33-14.64-3.79-2.65-3.21-3.9-10.27-3.9-14.75V471.57h37.08V489.2c0,5.25-.19,11.82-3.69,15.2C906.26,507.61,899.73,507.74,894.74,507.74Z"/><path class="cls-6" d="M909.49,471.57v29.36a3.93,3.93,0,0,1-3.93,3.94l-29.06-.35c.11-.24,0,.3,0,.3a3.79,3.79,0,0,0,3.63,2.92h29.21a3.94,3.94,0,0,0,3.94-3.93V471.57Z"/><path class="cls-6" d="M880.13,471.57v29.36a3.93,3.93,0,0,0,3.94,3.94l29-.48,0,.4a3.87,3.87,0,0,1-3.67,2.95H880.28a3.93,3.93,0,0,1-3.93-3.93V471.57Z"/><polygon class="cls-4" points="861.83 430.87 878.94 452.81 876.2 471.57 878.62 471.57 881.21 452.81 864.72 430.87 861.83 430.87"/><polygon class="cls-4" points="878.94 452.81 909.32 453.07 910.03 456.51 878.4 456.51 878.94 452.81"/><path class="cls-7" d="M868.88,233.79c.55,2.84,1.25,5.78,3.06,8.05s5.06,3.63,7.71,2.44c3-1.34,3.9-5.08,4.31-8.33,2.92-23.29-1.24-48,8.13-69.55,2-4.67,4.71-9.87,2.73-14.55-3.11-7.35-11.06-5.11-14.29.05-4.64,7.4-7.43,16.89-9.64,25.27A128,128,0,0,0,868.88,233.79Z"/><path class="cls-7" d="M826.07,222.51c.19,2.92.87,6.32,3.52,7.56a5.68,5.68,0,0,0,6-1.29,12.72,12.72,0,0,0,3.16-5.64c4.6-14.49-.31-31.33,6.78-44.78,4.63-8.78,14.88-14.76,17.74-24.38-11.08-5.74-23.63,17.06-27.66,24.68A83,83,0,0,0,826.07,222.51Z"/><path class="cls-7" d="M791.1,207c-2.37,6.06-4.2,13.1-1.18,18.86a5.85,5.85,0,0,0,2.86,2.9c2.88,1.1,5.81-1.6,7.21-4.34,2.83-5.51,3-11.93,4-18a66.13,66.13,0,0,1,17.48-34.86c4-4.2,8.83-8.12,10.72-13.64.31-.93-6-.12-6.74.26-1.65.87-2.53,2.73-3.8,4.05-4.23,4.4-8.57,8.55-12.39,13.34A122.2,122.2,0,0,0,791.1,207Z"/><path class="cls-7" d="M768,213.16c-1.48,4.67-2.61,9.89-.56,14.35a4.28,4.28,0,0,0,1.95,2.25c2.42,1.1,4.77-1.69,5.69-4.18,2.35-6.37,2.32-13.36,3.7-20,3-14.23,12.16-26.23,21.09-37.69.53-.67-4.83.11-5.45.47-1.25.74-2.3,2.87-3.2,4a150.21,150.21,0,0,0-9.54,12.34A112.13,112.13,0,0,0,768,213.16Z"/><path class="cls-8" d="M1025.52,286.43c4.14-13,5.22-43,4.91-40.73-1.76,13.16-3.25,15.79-4.15,18.63a270,270,0,0,1-34.84,71.27,264.48,264.48,0,0,1-29,35.35c-12.58,12.85-26.42,24.41-39.11,37.16-5.67,5.69-11.49,13-10.45,20.76l13-.05S1010.3,334.16,1025.52,286.43Z"/><path class="cls-9" d="M896.44,428.84l6,0S926.14,308,930.12,259.7c.87-10.46,1.34-20,1.46-28.79-4.12,6.83-3.75,20-5,27.13-1.94,11.3-4,22.58-6.63,33.75-3.2,13.77-7.12,27.38-9.9,41.25-2.16,10.77-3.63,21.67-5.1,32.56Q900.71,397.22,896.44,428.84Z"/><path class="cls-10" d="M921.25,428.85s82.28-108.36,85.2-185.62c-1,.55-7.07,21.28-9.08,28.43-3,10.67-8.51,18.28-12.35,28.67-9.4,25.48-18,38.19-37.37,71-10.74,18.23-27.49,35.61-33.06,56a15.19,15.19,0,0,0-.33,1.55Z"/><path class="cls-11" d="M914.08,428.84s51.2-117.95,58-165.8c1.47-10.42,1.21-21.73.85-32.47-2.81,3.91-2.41,15.8-3.13,19.24q-4.62,21.78-10.61,43.24a696.9,696.9,0,0,1-29.88,85.08q-10.11,23.72-22,46.64a18.81,18.81,0,0,0-1.56,4.1Z"/><path class="cls-1" d="M387.45,430.86l29.67-.11s84.43-94.66,99.65-142.39c13.15-41.24,7.65-91.54-26.73-121.48-40.5-35.28-103.72-34.63-103.72-34.63Z"/><path class="cls-2" d="M386.32,132.25s51.62,2.35,82.06,31.95c32.19,31.32,31.55,52.11,30.7,81.38-2.24,77.33-86.35,185.19-86.35,185.19l-25.28.09Z"/><path class="cls-3" d="M386.32,132.25s27.16,5.23,51.86,28.35c26.37,24.7,31.21,67.2,25.93,104.39-6.78,47.86-58,165.8-58,165.8l-18.68.07Z"/><polygon class="cls-4" points="418.93 430.87 402.16 453.07 406.06 471.83 403.63 471.87 399.89 453.11 416.05 430.91 418.93 430.87"/><path class="cls-1" d="M386.09,430.87H356.43s-84.8-94.35-100.19-142c-13.31-41.19-8-91.51,26.26-121.58,40.37-35.43,103.59-35,103.59-35Z"/><path class="cls-2" d="M386.09,132.25s-51.61,2.54-81.93,32.26C272.08,196,272.8,216.73,273.76,246c2.54,77.32,87.05,184.86,87.05,184.86h25.28Z"/><path class="cls-3" d="M386.09,132.25S359,137.58,334.34,160.8c-26.28,24.79-30.95,67.31-25.54,104.48,7,47.83,58.61,165.59,58.61,165.59h18.68Z"/><path class="cls-5" d="M413.78,164.37c-8.9-21.31-27.69-32.12-27.69-32.12h0s-18.73,10.9-27.52,32.26c-8.19,19.93-12.4,49.09-8.16,97.38s28.58,169,28.58,169l15.76,0s23.71-120.8,27.7-169.12S422.08,184.25,413.78,164.37Z"/><rect class="cls-4" x="354.67" y="428.87" width="64.26" height="1.99"/><path class="cls-4" d="M387.58,507.74h0c-5.76,0-11.24.33-14.64-3.79-2.64-3.21-3.9-10.27-3.9-14.75V471.57h37.08V489.2c0,5.25-.19,11.82-3.68,15.2C399.1,507.61,392.58,507.74,387.58,507.74Z"/><path class="cls-6" d="M402.34,471.57v29.36a3.93,3.93,0,0,1-3.94,3.94l-29-.35c.11-.24,0,.3,0,.3a3.79,3.79,0,0,0,3.64,2.92h29.21a3.93,3.93,0,0,0,3.93-3.93V471.57Z"/><path class="cls-6" d="M373,471.57v29.36a3.93,3.93,0,0,0,3.93,3.94l29.06-.48,0,.4a3.86,3.86,0,0,1-3.67,2.95h-29.2a3.93,3.93,0,0,1-3.94-3.93V471.57Z"/><polygon class="cls-4" points="354.67 430.87 371.78 452.81 369.04 471.57 371.46 471.57 374.06 452.81 357.56 430.87 354.67 430.87"/><polygon class="cls-4" points="371.78 452.81 402.16 453.07 402.88 456.51 371.24 456.51 371.78 452.81"/><path class="cls-7" d="M361.73,233.79c.55,2.84,1.25,5.78,3.06,8.05s5.06,3.63,7.7,2.44c3-1.34,3.91-5.08,4.31-8.33,2.93-23.29-1.24-48,8.13-69.55,2-4.67,4.71-9.87,2.73-14.55-3.11-7.35-11.06-5.11-14.29.05-4.64,7.4-7.42,16.89-9.63,25.27A127.69,127.69,0,0,0,361.73,233.79Z"/><path class="cls-7" d="M318.91,222.51c.19,2.92.88,6.32,3.53,7.56a5.68,5.68,0,0,0,6-1.29,12.72,12.72,0,0,0,3.16-5.64c4.6-14.49-.31-31.33,6.78-44.78,4.62-8.78,14.87-14.76,17.73-24.38-11.07-5.74-23.63,17.06-27.65,24.68A83,83,0,0,0,318.91,222.51Z"/><path class="cls-7" d="M284,207c-2.37,6.06-4.2,13.1-1.18,18.86a5.81,5.81,0,0,0,2.86,2.9c2.87,1.1,5.8-1.6,7.21-4.34,2.82-5.51,3-11.93,4-18a66.15,66.15,0,0,1,17.49-34.86c4-4.2,8.82-8.12,10.71-13.64.32-.93-6-.12-6.73.26-1.65.87-2.54,2.73-3.8,4.05-4.23,4.4-8.57,8.55-12.39,13.34A121.62,121.62,0,0,0,284,207Z"/><path class="cls-7" d="M260.87,213.16c-1.47,4.67-2.6,9.89-.56,14.35a4.3,4.3,0,0,0,2,2.25c2.41,1.1,4.77-1.69,5.68-4.18,2.35-6.37,2.32-13.36,3.71-20,2.95-14.23,12.15-26.23,21.09-37.69.52-.67-4.83.11-5.45.47-1.25.74-2.3,2.87-3.2,4a148,148,0,0,0-9.54,12.34A111.82,111.82,0,0,0,260.87,213.16Z"/><path class="cls-8" d="M518.36,286.43c4.15-13,5.22-43,4.92-40.73-1.77,13.16-3.26,15.79-4.16,18.63a269.62,269.62,0,0,1-34.83,71.27,265.26,265.26,0,0,1-29,35.35c-12.58,12.85-26.43,24.41-39.11,37.16-5.67,5.69-11.5,13-10.46,20.76l13-.05S503.15,334.16,518.36,286.43Z"/><path class="cls-9" d="M389.28,428.84l6,0S419,308,423,259.7c.86-10.46,1.33-20,1.46-28.79-4.12,6.83-3.75,20-5,27.13-1.94,11.3-4.05,22.58-6.64,33.75-3.19,13.77-7.11,27.38-9.89,41.25-2.17,10.77-3.64,21.67-5.11,32.56Q393.55,397.22,389.28,428.84Z"/><path class="cls-10" d="M414.09,428.85s82.29-108.36,85.2-185.62c-1,.55-7.07,21.28-9.08,28.43-3,10.67-8.51,18.28-12.34,28.67-9.41,25.48-18.05,38.19-37.38,71-10.74,18.23-27.49,35.61-33.05,56a15.2,15.2,0,0,0-.34,1.55Z"/><path class="cls-11" d="M406.92,428.84s51.21-117.95,58-165.8c1.48-10.42,1.22-21.73.86-32.47-2.81,3.91-2.41,15.8-3.14,19.24Q458,271.59,452,293.05a693.54,693.54,0,0,1-29.88,85.08Q412,401.85,400.19,424.77a18.33,18.33,0,0,0-1.57,4.1Z"/><path class="cls-1" d="M640.62,534.32l20.62-.08s58.68-65.8,69.25-99c9.14-28.67,5.32-63.62-18.57-84.43-28.15-24.52-72.09-24.07-72.09-24.07Z"/><path class="cls-2" d="M639.83,326.78s35.88,1.63,57,22.21c22.38,21.76,21.93,36.21,21.34,56.56-1.56,53.74-60,128.7-60,128.7l-17.57.07Z"/><path class="cls-3" d="M639.83,326.78a80.88,80.88,0,0,1,36,19.71c18.33,17.16,21.69,46.7,18,72.54-4.72,33.26-40.3,115.24-40.3,115.24l-13,.05Z"/><polygon class="cls-4" points="662.5 534.32 650.84 549.75 653.55 562.79 651.87 562.81 649.26 549.77 660.49 534.35 662.5 534.32"/><path class="cls-1" d="M639.68,534.32H619.06s-58.93-65.57-69.63-98.7c-9.25-28.63-5.56-63.6,18.25-84.5,28.05-24.62,72-24.34,72-24.34Z"/><path class="cls-2" d="M639.68,326.78s-35.87,1.77-56.95,22.42c-22.29,21.85-21.79,36.3-21.13,56.64,1.77,53.74,60.5,128.48,60.5,128.48h17.58Z"/><path class="cls-3" d="M639.68,326.78a80.89,80.89,0,0,0-36,19.84C585.45,363.85,582.2,393.4,586,419.24c4.84,33.24,40.73,115.08,40.73,115.08h13Z"/><path class="cls-5" d="M658.92,349.11c-6.19-14.82-19.24-22.32-19.24-22.33h0s-13,7.58-19.13,22.42c-5.7,13.85-8.62,34.12-5.67,67.68s19.86,117.44,19.86,117.44l11,0s16.48-84,19.25-117.54S664.69,362.92,658.92,349.11Z"/><rect class="cls-4" x="617.84" y="532.93" width="44.66" height="1.39"/><path class="cls-4" d="M640.71,587.74h0c-4,0-7.81.23-10.17-2.63-1.84-2.23-2.71-7.14-2.71-10.25V562.61h25.76v12.25c0,3.64-.12,8.22-2.56,10.56S644.18,587.74,640.71,587.74Z"/><path class="cls-6" d="M651,562.61V583a2.74,2.74,0,0,1-2.74,2.74L628,585.51c.07-.17,0,.2,0,.2a2.65,2.65,0,0,0,2.53,2h20.3a2.73,2.73,0,0,0,2.73-2.73v-22.4Z"/><path class="cls-6" d="M630.56,562.61V583a2.74,2.74,0,0,0,2.73,2.74l20.2-.34,0,.28a2.67,2.67,0,0,1-2.55,2h-20.3a2.73,2.73,0,0,1-2.73-2.73v-22.4Z"/><polygon class="cls-4" points="617.84 534.32 629.73 549.57 627.83 562.61 629.51 562.61 631.31 549.57 619.85 534.32 617.84 534.32"/><polygon class="cls-4" points="629.73 549.57 650.84 549.75 651.34 552.14 629.36 552.14 629.73 549.57"/><path class="cls-7" d="M622.74,397.35a12.5,12.5,0,0,0,2.13,5.59c1.26,1.58,3.52,2.53,5.35,1.7,2.08-.93,2.72-3.53,3-5.79,2-16.19-.86-33.38,5.65-48.34,1.41-3.24,3.27-6.85,1.9-10.11-2.16-5.1-7.69-3.54-9.94,0-3.22,5.14-5.16,11.74-6.69,17.56A88.94,88.94,0,0,0,622.74,397.35Z"/><path class="cls-7" d="M593,389.51c.13,2,.6,4.4,2.44,5.25a4,4,0,0,0,4.19-.89,8.8,8.8,0,0,0,2.19-3.92c3.2-10.07-.21-21.77,4.72-31.12,3.21-6.1,10.34-10.26,12.32-16.95-7.69-4-16.42,11.86-19.22,17.16A57.66,57.66,0,0,0,593,389.51Z"/><path class="cls-7" d="M568.69,378.75c-1.65,4.21-2.92,9.1-.83,13.1a4.08,4.08,0,0,0,2,2c2,.76,4-1.11,5-3,2-3.82,2.09-8.29,2.79-12.53a46,46,0,0,1,12.15-24.23c2.82-2.92,6.14-5.65,7.45-9.48.22-.65-4.19-.08-4.68.18-1.15.6-1.76,1.9-2.64,2.81-2.94,3.06-6,5.95-8.61,9.28A84.49,84.49,0,0,0,568.69,378.75Z"/><path class="cls-7" d="M552.65,383c-1,3.25-1.81,6.88-.39,10a2.93,2.93,0,0,0,1.36,1.57c1.68.76,3.31-1.17,4-2.9,1.63-4.44,1.61-9.29,2.57-13.91,2.06-9.89,8.45-18.23,14.66-26.19.37-.47-3.36.07-3.78.32-.88.51-1.6,2-2.23,2.75a103.75,103.75,0,0,0-6.63,8.58A78,78,0,0,0,552.65,383Z"/><path class="cls-8" d="M731.6,433.94c2.88-9,3.63-29.89,3.42-28.31-1.23,9.15-2.27,11-2.89,12.94a187.53,187.53,0,0,1-24.21,49.54,184.17,184.17,0,0,1-20.18,24.56c-8.74,8.94-18.37,17-27.19,25.83-3.93,4-8,9.06-7.26,14.43l9.06,0S721,467.1,731.6,433.94Z"/><path class="cls-9" d="M641.89,532.91h4.16s16.48-84,19.25-117.54c.6-7.27.93-13.92,1-20-2.87,4.74-2.61,13.87-3.46,18.86-1.35,7.85-2.82,15.69-4.61,23.45-2.22,9.57-5,19-6.88,28.67-1.51,7.48-2.53,15.06-3.55,22.63Q644.87,510.94,641.89,532.91Z"/><path class="cls-10" d="M659.13,532.91s57.19-75.3,59.22-129c-.71.39-4.92,14.79-6.31,19.76-2.08,7.41-5.92,12.71-8.58,19.92-6.54,17.72-12.55,26.54-26,49.33-7.46,12.67-19.1,24.75-23,38.93a9.4,9.4,0,0,0-.23,1.08Z"/><path class="cls-11" d="M654.15,532.91s35.59-82,40.3-115.23c1-7.25.85-15.1.6-22.57-1.95,2.72-1.68,11-2.18,13.38q-3.21,15.13-7.38,30.05a483.52,483.52,0,0,1-20.76,59.13q-7,16.48-15.26,32.41a13.35,13.35,0,0,0-1.09,2.85Z"/></svg>