<svg id="Layer_1" data-name="Layer 1" xmlns="http://www.w3.org/2000/svg" viewBox="0 0 1280 720"><defs><style>.cls-1{opacity:0.5;}.cls-2{fill:#606060;}.cls-3{fill:#ecd18a;}.cls-4{fill:#dd2f32;}.cls-5{fill:#99764a;}.cls-6{fill:#4b0f32;}.cls-7{fill:#33312f;}.cls-8{fill:#54514e;}.cls-9{fill:#8c0b0e;}.cls-10{fill:#a60d10;}.cls-11{fill:#3a0004;}.cls-12{fill:#c41a2b;}.cls-13{fill:#930007;}</style></defs><path class="cls-1" d="M427.16,352.72c0,6.21,24.8,14.83,55.14,14.83S537,358.93,537,352.72s-24.59-11.25-54.93-11.25S427.16,346.51,427.16,352.72Z"/><path class="cls-2" d="M551.92,354.66l.39-.3c-8-10.12-20.87-50.37-21-50.78l-.47.15C531,304.14,543.84,344.48,551.92,354.66Z"/><path class="cls-2" d="M418.14,350.75c7.78-10,14.19-47.23,14.25-47.6l-.48-.08c-.06.37-6.45,37.44-14.15,47.38Z"/><path class="cls-3" d="M431.92,303.94c2.12,8.94,3,33.06,1.11,48,2.3.89,4.63,1.7,7,2.42a127.85,127.85,0,0,0,20.8,4.42c3.23.42,6.45.73,9.66.95a177.91,177.91,0,0,0,17.81.29c6-.2,11.8-.69,17.1-1.36a129.5,129.5,0,0,0,20.76-4.17,39.6,39.6,0,0,0,6.63-2.55c-3.73-7.88-2.15-40.52-1.78-47.21,0-.49,0-.84.05-1s0-.17,0-.17c-27.14-24.7-44-56.73-50.12-66.76l-.09.21c-5.51,13.25-29.55,45-48.72,66.17l-.34.38C431.84,303.63,431.88,303.78,431.92,303.94Z"/><path class="cls-4" d="M523.21,307.44c0,20.17-2,32.92,3,47h0a39.6,39.6,0,0,0,6.63-2.55c-4.16-8.8-1.72-48.41-1.72-48.41-27.14-24.7-44-56.73-50.12-66.76l-.09.21C483.35,244,499.92,289.54,523.21,307.44Z"/><path class="cls-4" d="M470.5,359.69a183.69,183.69,0,0,0,34.91-1.07h0s-3.67-25.54-2.2-45.6c-7.58-23.71-14.92-33.25-22.25-76.29-2.94,24.46-7.58,66.27-12,75.81C471.13,324.29,471.41,352.49,470.5,359.69Z"/><path class="cls-4" d="M433,351.9c2.3.89,4.63,1.7,7,2.42,0,0,5-18.55,2.28-47.29,13.45-18.7,34-44.62,38.64-70.3-5.38,13.21-29.83,45.48-49.15,66.76C434,312.05,435,336.74,433,351.9Z"/><path class="cls-5" d="M431.81,303.49c0,.14.07.29.11.44l.41.22c.28.16.57.31.86.44l1.74.83.88.42.88.38,1.78.74.9.37.9.34,1.82.66.9.33.46.17.46.15,3.68,1.15.47.15.46.12,2.8.74,1.87.49,1.89.41,3.78.81,3.8.64,1.91.32c.31.06.63.11.95.15l1,.12,2.89.36.94.11,1,.12c.32,0,.64.08,1,.1l1.92.16c2.56.2,5.12.44,7.71.52a109.53,109.53,0,0,0,15.47-.48l1.92-.22c.32,0,.65-.07,1-.12l1-.14,1.92-.28.49-.08,1.42-.25.95-.17.95-.19,1.9-.4,1.88-.46.94-.23.93-.25a81.86,81.86,0,0,0,10.8-3.7c1.25-.53,2.48-1.09,3.7-1.68s2.67-1.36,4-2.11c0-.49,0-.84.06-1-1.49.73-3,1.42-4.53,2-1.22.51-2.45,1-3.7,1.45s-2.28.8-3.44,1.16l-.9.29c-.3.09-.61.17-.91.27-.61.17-1.22.36-1.83.52l-1.83.49c-.61.16-1.23.29-1.85.44-3,.71-6.12,1.27-9.2,1.7A120.15,120.15,0,0,1,482,313c-2.53-.07-5.06-.3-7.6-.48l-1.9-.14c-.31,0-.63-.05-.94-.09l-.95-.11-1.44-.15-2.35-.26-.94-.1c-.32,0-.63-.06-.95-.12l-1.88-.27-3.77-.55-3.73-.7-1.88-.34-1.85-.42-1.86-.42-.93-.2-.46-.11-.46-.12c-1.23-.33-2.45-.67-3.68-1l-.46-.13-.45-.14-.91-.28-1.82-.56-.91-.28-.9-.32-1.79-.64-.9-.31-2.65-1.06c-.3-.11-.59-.24-.88-.37l-.56-.25Z"/><circle class="cls-6" cx="480.82" cy="237.23" r="1.97"/><path class="cls-1" d="M550.17,358.24c0,.34.86.61,1.93.61s1.94-.27,1.94-.61-.87-.61-1.94-.61S550.17,357.9,550.17,358.24Z"/><path class="cls-7" d="M552.32,358.46h.16a.65.65,0,0,0,.41-.16.64.64,0,0,0,.19-.44v-6.21a.59.59,0,0,0-.6-.59h-.16a.56.56,0,0,0-.31.09.58.58,0,0,0-.28.5v6.21a.59.59,0,0,0,.59.6Z"/><ellipse class="cls-8" cx="552.35" cy="351.4" rx="2.09" ry="0.92"/><ellipse class="cls-1" cx="417.56" cy="354.97" rx="1.94" ry="0.61"/><path class="cls-7" d="M417.77,355.19h.17a.58.58,0,0,0,.4-.16.56.56,0,0,0,.19-.43v-6.21a.59.59,0,0,0-.59-.59h-.17a.56.56,0,0,0-.31.09.58.58,0,0,0-.28.5v6.21a.56.56,0,0,0,.23.46A.59.59,0,0,0,417.77,355.19Z"/><path class="cls-8" d="M415.72,348.14c0,.51.93.92,2.09.92s2.09-.41,2.09-.92-.94-.92-2.09-.92S415.72,347.63,415.72,348.14Z"/><path class="cls-9" d="M522.85,307.16l.36,1.34.14,0c1.25-.53,2.48-1.09,3.7-1.68s2.67-1.36,4-2.11c0-.49,0-.84.06-1-1.49.73-3,1.42-4.53,2C525.33,306.22,524.1,306.71,522.85,307.16Z"/><path class="cls-9" d="M469.12,312l.05.19.2,2.21.94.11,1,.12c.32,0,.64.08,1,.1l1.92.16c2.56.2,5.12.44,7.71.52a109.53,109.53,0,0,0,15.47-.48l1.92-.22c.32,0,.65-.07,1-.12l1-.14,1.92-.28.49-.08-.18-.18-.51-1.92A120.15,120.15,0,0,1,482,313c-2.53-.07-5.06-.3-7.6-.48l-1.9-.14c-.31,0-.63-.05-.94-.09l-.95-.11Z"/><path class="cls-9" d="M431.81,303.49c0,.14.07.29.11.44l.41.22c.28.16.57.31.86.44l1.74.83.88.42.88.38,1.78.74.9.37.9.34,1.82.66.47-1.43-1.82-.56-.91-.28-.9-.32-1.79-.64-.9-.31-2.65-1.06c-.3-.11-.59-.24-.88-.37l-.56-.25Z"/><path class="cls-10" d="M432.15,303.11s-.28,6.27,4.17,9.11,6.24-5.32,6.24-5.32Z"/><path class="cls-10" d="M469.12,312s-2.21,9.3-13.35,6.46-13.21-11.6-13.21-11.6S451.47,310.24,469.12,312Z"/><path class="cls-10" d="M469.12,312s4.28,8.49,17,8.28,16-4.84,16.73-8.29C502.89,312,481.05,314.49,469.12,312Z"/><path class="cls-10" d="M502.89,312s5.55,5.25,12.44,4,7.52-8.91,7.52-8.91S520.69,308.73,502.89,312Z"/><path class="cls-10" d="M530.84,303.73s-1.41,12.39-8,3.43A32.47,32.47,0,0,0,530.84,303.73Z"/><path class="cls-11" d="M496.54,331.92a9.13,9.13,0,0,0-18.15,0h-.12l.56,28.09s6.2.05,8.34,0c2.32-.06,9.48-.44,9.48-.44V331.92Z"/><path class="cls-1" d="M645.57,349.84c0,6.14,24.51,14.66,54.49,14.66s54.09-8.52,54.09-14.66-24.3-11.12-54.29-11.12S645.57,343.7,645.57,349.84Z"/><path class="cls-2" d="M768.87,351.76l.37-.3c-7.93-10-20.62-49.78-20.75-50.18l-.46.14C748.16,301.83,760.88,341.69,768.87,351.76Z"/><path class="cls-2" d="M636.66,347.89c7.68-9.92,14-46.67,14.08-47l-.47-.08c-.07.37-6.38,37-14,46.82Z"/><path class="cls-3" d="M650.27,301.63c2.1,8.83,3,32.67,1.1,47.4,2.27.88,4.58,1.67,6.92,2.39a126.08,126.08,0,0,0,20.57,4.37c3.18.41,6.37.72,9.54.93A173.76,173.76,0,0,0,706,357c6-.2,11.67-.68,16.9-1.34a128.54,128.54,0,0,0,20.52-4.12A39.69,39.69,0,0,0,750,349c-3.68-7.79-2.12-40-1.75-46.66,0-.48,0-.83,0-1s0-.17,0-.17c-26.82-24.4-43.49-56.06-49.54-66a1.8,1.8,0,0,1-.08.21c-5.44,13.09-29.21,44.47-48.15,65.39l-.34.37C650.2,301.33,650.24,301.47,650.27,301.63Z"/><path class="cls-4" d="M740.49,305.09c0,19.93-1.92,32.54,2.93,46.45h0A39.69,39.69,0,0,0,750,349c-4.1-8.7-1.69-47.85-1.69-47.85-26.82-24.4-43.49-56.06-49.54-66a1.8,1.8,0,0,1-.08.21C701.1,242.44,717.47,287.4,740.49,305.09Z"/><path class="cls-4" d="M688.4,356.72a180.33,180.33,0,0,0,34.5-1.05h0s-3.62-25.25-2.17-45.06c-7.5-23.44-14.75-32.87-22-75.4-2.89,24.17-7.49,65.49-11.84,74.92C689,321.74,689.3,349.61,688.4,356.72Z"/><path class="cls-4" d="M651.37,349c2.27.88,4.58,1.67,6.92,2.39,0,0,4.92-18.34,2.26-46.73,13.29-18.49,33.59-44.1,38.18-69.48-5.31,13-29.48,45-48.57,66C652.34,309.64,653.3,334.05,651.37,349Z"/><path class="cls-5" d="M650.16,301.18c0,.15.08.29.11.45l.41.21c.28.15.56.3.85.43l1.72.82.86.42.88.37,1.76.74.88.36.9.34,1.79.65.9.33.45.16.45.15c1.21.39,2.43.76,3.64,1.14l.46.14.46.12,2.77.73,1.85.49,1.86.41,3.73.79,3.77.64,1.88.32c.31.06.63.1.94.14l.95.12,2.85.35.93.12.95.12,1,.1,1.9.15c2.53.2,5.06.44,7.61.52a109.91,109.91,0,0,0,15.29-.48l1.91-.22.94-.11,1-.14,1.9-.28.48-.08,1.4-.25,1-.17c.31,0,.62-.12.93-.19l1.88-.39,1.86-.45L729,310l.92-.25a79.92,79.92,0,0,0,10.67-3.66c1.23-.52,2.45-1.07,3.65-1.65s2.64-1.35,3.93-2.09c0-.48,0-.83,0-1q-2.19,1.09-4.47,2c-1.2.51-2.42,1-3.65,1.43s-2.26.79-3.4,1.15l-.9.28c-.29.1-.6.18-.9.27-.6.17-1.19.36-1.8.52l-1.81.48c-.61.16-1.22.29-1.83.44-3,.7-6,1.25-9.09,1.67a118.38,118.38,0,0,1-20.7,1c-2.49-.07-5-.3-7.5-.48l-1.88-.13-.93-.09-.94-.1-1.43-.16-2.31-.25-.94-.1c-.31,0-.62-.06-.93-.11l-1.86-.28-3.72-.54-3.7-.7-1.85-.33-1.83-.41-1.84-.41-.92-.21-.45-.1-.46-.12c-1.21-.33-2.42-.66-3.63-1l-.46-.12-.44-.14-.9-.28L659,304l-.9-.28-.88-.32-1.78-.63-.89-.31-2.62-1.05c-.29-.11-.58-.24-.86-.37l-.56-.24Z"/><circle class="cls-6" cx="698.6" cy="235.71" r="1.94"/><path class="cls-1" d="M767.13,355.29c0,.33.86.6,1.92.6s1.91-.27,1.91-.6-.86-.6-1.91-.6S767.13,355,767.13,355.29Z"/><path class="cls-7" d="M769.26,355.51h.16a.56.56,0,0,0,.4-.16.61.61,0,0,0,.19-.43v-6.14a.58.58,0,0,0-.22-.45.54.54,0,0,0-.37-.13h-.16a.56.56,0,0,0-.31.09.58.58,0,0,0-.27.49v6.14a.59.59,0,0,0,.58.59Z"/><ellipse class="cls-8" cx="769.29" cy="348.53" rx="2.06" ry="0.91"/><ellipse class="cls-1" cx="636.08" cy="352.07" rx="1.91" ry="0.6"/><path class="cls-7" d="M636.29,352.28h.17a.59.59,0,0,0,.4-.16.56.56,0,0,0,.18-.42v-6.14a.59.59,0,0,0-.58-.59h-.17a.56.56,0,0,0-.31.09.59.59,0,0,0-.27.5v6.14a.58.58,0,0,0,.22.45A.59.59,0,0,0,636.29,352.28Z"/><path class="cls-8" d="M634.26,345.31c0,.5.93.91,2.07.91s2.06-.41,2.06-.91-.92-.91-2.06-.91S634.26,344.81,634.26,345.31Z"/><path class="cls-9" d="M740.14,304.81l.35,1.33.14,0c1.23-.52,2.45-1.07,3.65-1.65s2.64-1.35,3.93-2.09c0-.48,0-.83,0-1q-2.19,1.09-4.47,2C742.59,303.89,741.37,304.36,740.14,304.81Z"/><path class="cls-9" d="M687,309.63l.06.19.19,2.18.93.12.95.12,1,.1,1.9.15c2.53.2,5.06.44,7.61.52a109.91,109.91,0,0,0,15.29-.48l1.91-.22.94-.11,1-.14,1.9-.28.48-.08-.17-.18-.51-1.9a118.38,118.38,0,0,1-20.7,1c-2.49-.07-5-.3-7.5-.48l-1.88-.13-.93-.09-.94-.1Z"/><path class="cls-9" d="M650.16,301.18c0,.15.08.29.11.45l.41.21c.28.15.56.3.85.43l1.72.82.86.42.88.37,1.76.74.88.36.9.34,1.79.65.47-1.41L659,304l-.9-.28-.88-.32-1.78-.63-.89-.31-2.62-1.05c-.29-.11-.58-.24-.86-.37l-.56-.24Z"/><path class="cls-10" d="M650.5,300.81s-.28,6.2,4.13,9,6.16-5.25,6.16-5.25Z"/><path class="cls-10" d="M687,309.63s-2.17,9.19-13.19,6.39-13.05-11.46-13.05-11.46S669.59,307.85,687,309.63Z"/><path class="cls-10" d="M687,309.63s4.23,8.39,16.84,8.19,15.85-4.79,16.54-8.2C720.41,309.62,698.82,312.06,687,309.63Z"/><path class="cls-10" d="M720.41,309.62s5.49,5.2,12.29,4,7.44-8.81,7.44-8.81S738,306.37,720.41,309.62Z"/><path class="cls-10" d="M748,301.42s-1.39,12.25-7.89,3.39A31.68,31.68,0,0,0,748,301.42Z"/><path class="cls-11" d="M714.13,329.28a9,9,0,0,0-17.94,0h-.12l.57,27.76s6.12,0,8.23,0c2.3,0,9.37-.43,9.37-.43V329.28Z"/><path class="cls-1" d="M873.67,357.1c0,6,24,14.35,53.32,14.35s52.92-8.34,52.92-14.35-23.78-10.87-53.12-10.87S873.67,351.1,873.67,357.1Z"/><path class="cls-2" d="M994.3,359l.37-.29c-7.76-9.78-20.18-48.71-20.3-49.1l-.45.15C974,310.13,986.49,349.13,994.3,359Z"/><path class="cls-2" d="M865,355.2c7.52-9.71,13.72-45.67,13.78-46l-.47-.08c-.06.36-6.24,36.21-13.68,45.82Z"/><path class="cls-3" d="M878.27,309.93c2.05,8.65,2.93,32,1.07,46.39q3.33,1.28,6.78,2.33a123.71,123.71,0,0,0,20.12,4.27c3.11.41,6.23.71,9.33.92a172.1,172.1,0,0,0,17.22.28c5.84-.19,11.42-.66,16.54-1.31a126.87,126.87,0,0,0,20.08-4,40,40,0,0,0,6.4-2.46c-3.6-7.63-2.08-39.18-1.72-45.66,0-.47,0-.81,0-1s0-.16,0-.16c-26.24-23.88-42.55-54.85-48.47-64.55a1.19,1.19,0,0,1-.08.2c-5.32,12.81-28.58,43.52-47.11,64l-.33.37C878.2,309.64,878.23,309.78,878.27,309.93Z"/><path class="cls-4" d="M966.54,313.32c0,19.51-1.88,31.84,2.87,45.45h0a40,40,0,0,0,6.4-2.46c-4-8.52-1.66-46.82-1.66-46.82-26.24-23.88-42.55-54.85-48.47-64.55a1.19,1.19,0,0,1-.08.2C928,252,944,296,966.54,313.32Z"/><path class="cls-4" d="M915.57,363.84a176.77,176.77,0,0,0,33.76-1h0s-3.55-24.7-2.13-44.09c-7.33-22.93-14.42-32.15-21.52-73.77-2.83,23.65-7.32,64.08-11.58,73.3C916.19,329.62,916.45,356.88,915.57,363.84Z"/><path class="cls-4" d="M879.34,356.32q3.33,1.28,6.78,2.33s4.81-17.94,2.21-45.72c13-18.09,32.86-43.15,37.35-68-5.2,12.77-28.84,44-47.52,64.55C880.29,317.78,881.23,341.66,879.34,356.32Z"/><path class="cls-5" d="M878.16,309.5c0,.14.07.28.11.43l.4.22c.27.14.55.29.83.42l1.68.8.85.4.86.37,1.72.72.86.36.87.32,1.76.64.88.33.44.16.44.14c1.18.38,2.37.74,3.57,1.11l.44.14.45.12,2.71.72,1.81.47,1.82.4,3.66.78,3.68.62,1.84.31c.3.06.61.1.92.14l.93.12,2.79.35.91.11.93.11c.3,0,.61.08.92.1l1.86.16c2.48.19,5,.42,7.46.5a108.16,108.16,0,0,0,15-.46l1.87-.22.92-.11.93-.14,1.85-.27.48-.08,1.37-.24.92-.17c.31-.05.62-.12.92-.18l1.83-.39,1.82-.44.91-.22.91-.25a77.76,77.76,0,0,0,10.43-3.58c1.21-.51,2.4-1.05,3.58-1.62s2.58-1.32,3.84-2c0-.47,0-.81.06-1q-2.16,1.08-4.38,2c-1.18.5-2.37,1-3.57,1.4s-2.21.77-3.33,1.12l-.88.28-.88.26c-.59.17-1.17.35-1.76.51l-1.78.47c-.59.16-1.19.29-1.78.43-2.94.68-5.92,1.22-8.9,1.64a115.19,115.19,0,0,1-20.25.94c-2.44-.06-4.89-.29-7.34-.46l-1.84-.13c-.3,0-.61-.05-.91-.09l-.92-.1-1.39-.15-2.27-.25-.91-.1c-.31,0-.61-.06-.92-.11l-1.82-.27-3.64-.53-3.62-.68-1.81-.32-1.79-.41-1.8-.4-.89-.2-.45-.1-.45-.12-3.55-.95-.45-.12-.44-.14-.88-.27-1.75-.54-.88-.27-.87-.31-1.73-.62-.87-.3-2.57-1a9,9,0,0,1-.85-.36l-.54-.24Z"/><circle class="cls-6" cx="925.56" cy="245.44" r="1.9"/><path class="cls-1" d="M992.61,362.44c0,.33.83.59,1.87.59s1.87-.26,1.87-.59-.84-.59-1.87-.59S992.61,362.11,992.61,362.44Z"/><path class="cls-7" d="M994.69,362.65h.16a.59.59,0,0,0,.39-.15.6.6,0,0,0,.18-.42v-6a.55.55,0,0,0-.21-.44.59.59,0,0,0-.36-.13h-.16a.57.57,0,0,0-.57.57v6a.59.59,0,0,0,.21.45A.62.62,0,0,0,994.69,362.65Z"/><ellipse class="cls-8" cx="994.72" cy="355.83" rx="2.02" ry="0.89"/><ellipse class="cls-1" cx="864.38" cy="359.28" rx="1.87" ry="0.59"/><path class="cls-7" d="M864.59,359.5h.16a.55.55,0,0,0,.39-.16.56.56,0,0,0,.18-.42v-6a.58.58,0,0,0-.21-.44.57.57,0,0,0-.36-.13h-.16a.62.62,0,0,0-.3.09.57.57,0,0,0-.27.48v6a.55.55,0,0,0,.22.45A.54.54,0,0,0,864.59,359.5Z"/><path class="cls-8" d="M862.6,352.67c0,.5.91.9,2,.9s2-.4,2-.9-.9-.89-2-.89S862.6,352.18,862.6,352.67Z"/><path class="cls-9" d="M966.2,313.05l.34,1.3.13,0c1.21-.51,2.4-1.05,3.58-1.62s2.58-1.32,3.84-2c0-.47,0-.81.06-1q-2.16,1.08-4.38,2C968.59,312.15,967.4,312.61,966.2,313.05Z"/><path class="cls-9" d="M914.24,317.77l0,.18.19,2.14.91.11.93.11c.3,0,.61.08.92.1l1.86.16c2.48.19,5,.42,7.46.5a108.16,108.16,0,0,0,15-.46l1.87-.22.92-.11.93-.14,1.85-.27.48-.08-.17-.17-.5-1.86a115.19,115.19,0,0,1-20.25.94c-2.44-.06-4.89-.29-7.34-.46l-1.84-.13c-.3,0-.61-.05-.91-.09l-.92-.1Z"/><path class="cls-9" d="M878.16,309.5c0,.14.07.28.11.43l.4.22c.27.14.55.29.83.42l1.68.8.85.4.86.37,1.72.72.86.36.87.32,1.76.64.45-1.38-1.75-.54-.88-.27-.87-.31-1.73-.62-.87-.3-2.57-1a9,9,0,0,1-.85-.36l-.54-.24Z"/><path class="cls-10" d="M878.49,309.13s-.27,6.07,4,8.81,6-5.14,6-5.14Z"/><path class="cls-10" d="M914.24,317.77s-2.13,9-12.91,6.25-12.78-11.22-12.78-11.22S897.17,316,914.24,317.77Z"/><path class="cls-10" d="M914.24,317.77s4.13,8.2,16.47,8,15.51-4.68,16.18-8C946.89,317.76,925.77,320.14,914.24,317.77Z"/><path class="cls-10" d="M946.89,317.76s5.37,5.08,12,3.9,7.28-8.61,7.28-8.61S964.1,314.57,946.89,317.76Z"/><path class="cls-10" d="M973.92,309.74s-1.36,12-7.72,3.31A31.43,31.43,0,0,0,973.92,309.74Z"/><path class="cls-11" d="M940.75,337a8.82,8.82,0,0,0-17.55,0h-.12l.55,27.16s6,.05,8.06,0c2.24-.06,9.17-.43,9.17-.43V337Z"/><path class="cls-1" d="M737.21,465c0,8.9,35.54,21.26,79,21.26s78.43-12.36,78.43-21.26-35.24-16.12-78.72-16.12S737.21,456.08,737.21,465Z"/><path class="cls-2" d="M916,467.77l.55-.44c-11.51-14.5-29.91-72.18-30.09-72.76l-.67.21C886,395.36,904.4,453.17,916,467.77Z"/><path class="cls-2" d="M724.29,462.16c11.14-14.39,20.33-67.68,20.42-68.21l-.69-.12c-.09.53-9.25,53.65-20.28,67.9Z"/><path class="cls-3" d="M744,395.07c3,12.82,4.34,47.38,1.59,68.74q4.93,1.9,10,3.47a182.93,182.93,0,0,0,29.81,6.32q6.94.9,13.84,1.36a254.93,254.93,0,0,0,25.52.42c8.66-.28,16.92-1,24.51-1.94a186.66,186.66,0,0,0,29.75-6,57.37,57.37,0,0,0,9.49-3.65c-5.34-11.3-3.08-58.06-2.55-67.65,0-.71.07-1.21.08-1.48s0-.25,0-.25c-38.9-35.39-63.07-81.29-71.83-95.65,0,.09-.08.19-.13.29-7.89,19-42.35,64.49-69.81,94.82l-.49.54C743.92,394.64,744,394.85,744,395.07Z"/><path class="cls-12" d="M874.85,400.09c0,28.91-2.79,47.18,4.24,67.37h0a57.37,57.37,0,0,0,9.49-3.65c-6-12.61-2.45-69.38-2.45-69.38-38.9-35.39-63.07-81.29-71.83-95.65,0,.09-.08.19-.13.29C817.73,309.25,841.46,374.45,874.85,400.09Z"/><path class="cls-12" d="M799.31,475a262.63,262.63,0,0,0,50-1.52h0s-5.26-36.61-3.16-65.34c-10.86-34-21.37-47.65-31.88-109.32-4.21,35-10.87,95-17.17,108.62C800.22,424.24,800.62,464.65,799.31,475Z"/><path class="cls-12" d="M745.62,463.81q4.93,1.9,10,3.47s7.13-26.59,3.27-67.77c19.28-26.8,48.71-63.94,55.37-100.73-7.71,18.92-42.75,65.17-70.43,95.65C747,406.7,748.42,442.09,745.62,463.81Z"/><path class="cls-5" d="M743.87,394.43c0,.21.1.42.16.64l.59.32c.4.22.81.43,1.23.62l2.5,1.19,1.25.6,1.27.55,2.55,1.06,1.28.53c.43.17.86.32,1.3.48l2.6.95,1.29.48.66.24.66.21c1.75.57,3.51,1.11,5.28,1.65l.66.21.67.17,4,1.07,2.68.7,2.7.59,5.42,1.15,5.45.93,2.73.46c.46.08.91.15,1.37.2l1.37.18,4.14.51,1.35.17,1.37.17c.46.06.92.11,1.38.14l2.75.23c3.68.28,7.34.63,11.05.74a157.86,157.86,0,0,0,22.17-.68l2.75-.32c.46-.06.92-.1,1.38-.17l1.37-.2,2.75-.4.7-.12,2-.36,1.36-.24,1.36-.28,2.72-.57,2.7-.65,1.35-.33,1.33-.37a116.6,116.6,0,0,0,15.47-5.3c1.79-.76,3.55-1.56,5.3-2.4q2.89-1.43,5.69-3c0-.71.07-1.21.08-1.49-2.12,1.06-4.29,2.05-6.48,2.95-1.75.73-3.51,1.42-5.3,2.07q-2.45.88-4.93,1.67l-1.3.41c-.43.14-.87.25-1.3.38-.87.26-1.74.53-2.61.76l-2.64.7c-.87.23-1.76.42-2.64.63q-6.54,1.51-13.19,2.43a170,170,0,0,1-30,1.4c-3.63-.09-7.26-.43-10.89-.69l-2.72-.19c-.45,0-.9-.07-1.36-.13l-1.35-.15-2.07-.22-3.36-.37-1.35-.15c-.45,0-.91-.09-1.35-.16l-2.7-.4-5.4-.79-5.36-1-2.68-.49-2.66-.59-2.66-.6-1.33-.3-.67-.15-.66-.18c-1.75-.47-3.51-.95-5.26-1.4l-.67-.18-.65-.2-1.3-.4-2.61-.81-1.3-.4-1.28-.46-2.57-.91c-.43-.16-.87-.3-1.29-.46l-3.8-1.51c-.43-.16-.85-.35-1.26-.54l-.8-.35Z"/><circle class="cls-6" cx="814.11" cy="299.49" r="2.82"/><path class="cls-1" d="M913.47,472.89c0,.48,1.24.87,2.78.87s2.77-.39,2.77-.87-1.24-.88-2.77-.88S913.47,472.4,913.47,472.89Z"/><path class="cls-7" d="M916.56,473.2h.23a.84.84,0,0,0,.58-.23.81.81,0,0,0,.27-.62v-8.9a.84.84,0,0,0-.31-.66.87.87,0,0,0-.54-.19h-.23a.85.85,0,0,0-.85.85v8.9a.86.86,0,0,0,.85.85Z"/><ellipse class="cls-8" cx="916.6" cy="463.09" rx="2.99" ry="1.32"/><ellipse class="cls-1" cx="723.45" cy="468.21" rx="2.77" ry="0.88"/><path class="cls-7" d="M723.76,468.52H724a.83.83,0,0,0,.58-.22.85.85,0,0,0,.27-.62v-8.91a.87.87,0,0,0-.31-.66.91.91,0,0,0-.54-.19h-.23a.85.85,0,0,0-.85.85v8.91a.86.86,0,0,0,.32.66A.89.89,0,0,0,723.76,468.52Z"/><path class="cls-8" d="M720.81,458.42c0,.73,1.34,1.32,3,1.32s3-.59,3-1.32-1.34-1.33-3-1.33S720.81,457.69,720.81,458.42Z"/><path class="cls-9" d="M874.33,399.69l.51,1.93.2,0c1.79-.76,3.55-1.56,5.3-2.4q2.89-1.43,5.69-3c0-.71.07-1.21.08-1.49-2.12,1.06-4.29,2.05-6.48,2.95C877.88,398.35,876.12,399,874.33,399.69Z"/><path class="cls-9" d="M797.33,406.69l.08.27.28,3.16,1.35.17,1.37.17c.46.06.92.11,1.38.14l2.75.23c3.68.28,7.34.63,11.05.74a157.86,157.86,0,0,0,22.17-.68l2.75-.32c.46-.06.92-.1,1.38-.17l1.37-.2,2.75-.4.7-.12-.25-.25-.74-2.76a170,170,0,0,1-30,1.4c-3.63-.09-7.26-.43-10.89-.69l-2.72-.19c-.45,0-.9-.07-1.36-.13l-1.35-.15Z"/><path class="cls-9" d="M743.87,394.43c0,.21.1.42.16.64l.59.32c.4.22.81.43,1.23.62l2.5,1.19,1.25.6,1.27.55,2.55,1.06,1.28.53c.43.17.86.32,1.3.48l2.6.95.67-2-2.61-.81-1.3-.4-1.28-.46-2.57-.91c-.43-.16-.87-.3-1.29-.46l-3.8-1.51c-.43-.16-.85-.35-1.26-.54l-.8-.35Z"/><path class="cls-13" d="M744.36,393.89s-.41,9,6,13.05,8.93-7.61,8.93-7.61Z"/><path class="cls-13" d="M797.33,406.69s-3.16,13.32-19.12,9.25-18.94-16.61-18.94-16.61S772,404.1,797.33,406.69Z"/><path class="cls-13" d="M797.33,406.69s6.13,12.16,24.42,11.87,23-6.94,24-11.89C845.72,406.67,814.42,410.2,797.33,406.69Z"/><path class="cls-13" d="M845.72,406.67s8,7.53,17.83,5.79,10.78-12.77,10.78-12.77S871.23,402,845.72,406.67Z"/><path class="cls-13" d="M885.78,394.78s-2,17.75-11.45,4.91A46.07,46.07,0,0,0,885.78,394.78Z"/><path class="cls-11" d="M836.62,435.17a13.08,13.08,0,0,0-26,0h-.17l.81,40.25s8.89.07,11.94,0c3.33-.09,13.59-.64,13.59-.64l0-39.61Z"/><path class="cls-1" d="M521.57,465c0,8.9,35.54,21.26,79,21.26S679,473.88,679,465s-35.24-16.12-78.72-16.12S521.57,456.08,521.57,465Z"/><path class="cls-2" d="M700.35,467.77l.55-.44c-11.51-14.5-29.91-72.18-30.09-72.76l-.67.21C670.32,395.36,688.76,453.17,700.35,467.77Z"/><path class="cls-2" d="M508.65,462.16C519.79,447.77,529,394.48,529.07,394l-.69-.12c-.09.53-9.25,53.65-20.28,67.9Z"/><path class="cls-3" d="M528.39,395.07c3,12.82,4.34,47.38,1.59,68.74q4.93,1.9,10,3.47a182.93,182.93,0,0,0,29.81,6.32q6.95.9,13.84,1.36a254.93,254.93,0,0,0,25.52.42c8.66-.28,16.92-1,24.51-1.94a186.66,186.66,0,0,0,29.75-6,57.37,57.37,0,0,0,9.49-3.65c-5.34-11.3-3.08-58.06-2.55-67.65,0-.71.07-1.21.08-1.48s0-.25,0-.25c-38.9-35.39-63.07-81.29-71.83-95.65,0,.09-.08.19-.13.29-7.89,19-42.35,64.49-69.81,94.82l-.49.54C528.28,394.64,528.33,394.85,528.39,395.07Z"/><path class="cls-12" d="M659.21,400.09c0,28.91-2.79,47.18,4.24,67.37h0a57.37,57.37,0,0,0,9.49-3.65c-6-12.61-2.45-69.38-2.45-69.38-38.9-35.39-63.07-81.29-71.83-95.65,0,.09-.08.19-.13.29C602.09,309.25,625.82,374.45,659.21,400.09Z"/><path class="cls-12" d="M583.67,475a262.63,262.63,0,0,0,50-1.52h0s-5.26-36.61-3.16-65.34c-10.86-34-21.37-47.65-31.88-109.32-4.21,35-10.87,95-17.17,108.62C584.58,424.24,585,464.65,583.67,475Z"/><path class="cls-12" d="M530,463.81q4.93,1.9,10,3.47s7.13-26.59,3.27-67.77c19.28-26.8,48.71-63.94,55.37-100.73C591,317.7,555.91,364,528.23,394.43,531.38,406.7,532.78,442.09,530,463.81Z"/><path class="cls-5" d="M528.23,394.43c0,.21.1.42.16.64l.59.32c.4.22.81.43,1.23.62l2.5,1.19,1.25.6,1.27.55,2.55,1.06,1.28.53c.43.17.86.32,1.3.48l2.6.95,1.29.48.66.24.66.21c1.75.57,3.51,1.11,5.28,1.65l.66.21.67.17,4,1.07,2.68.7,2.7.59,5.42,1.15,5.45.93,2.73.46c.46.08.91.15,1.37.2l1.37.18,4.14.51,1.35.17,1.37.17c.46.06.92.11,1.38.14l2.75.23c3.68.28,7.34.63,11.05.74a157.86,157.86,0,0,0,22.17-.68l2.75-.32c.46-.06.92-.1,1.38-.17l1.37-.2,2.75-.4.7-.12,2-.36,1.36-.24,1.36-.28,2.72-.57,2.7-.65,1.35-.33,1.33-.37a116.6,116.6,0,0,0,15.47-5.3c1.79-.76,3.55-1.56,5.3-2.4q2.89-1.43,5.69-3c0-.71.07-1.21.08-1.49-2.12,1.06-4.29,2.05-6.48,2.95-1.75.73-3.51,1.42-5.3,2.07q-2.45.88-4.93,1.67l-1.3.41c-.43.14-.87.25-1.3.38-.87.26-1.74.53-2.61.76l-2.64.7c-.87.23-1.76.42-2.64.63q-6.54,1.51-13.19,2.43a170,170,0,0,1-30,1.4c-3.63-.09-7.26-.43-10.89-.69l-2.72-.19c-.45,0-.9-.07-1.36-.13l-1.35-.15-2.07-.22-3.36-.37-1.35-.15c-.45,0-.91-.09-1.35-.16l-2.7-.4-5.4-.79-5.36-1-2.68-.49-2.66-.59-2.66-.6-1.33-.3-.67-.15-.66-.18c-1.75-.47-3.51-.95-5.26-1.4l-.67-.18-.65-.2-1.3-.4-2.61-.81-1.3-.4-1.28-.46-2.57-.91c-.43-.16-.87-.3-1.29-.46l-3.8-1.51c-.43-.16-.85-.35-1.26-.54l-.8-.35Z"/><circle class="cls-6" cx="598.47" cy="299.49" r="2.82"/><path class="cls-1" d="M697.83,472.89c0,.48,1.24.87,2.78.87s2.77-.39,2.77-.87-1.24-.88-2.77-.88S697.83,472.4,697.83,472.89Z"/><path class="cls-7" d="M700.92,473.2h.23a.84.84,0,0,0,.58-.23.81.81,0,0,0,.27-.62v-8.9a.84.84,0,0,0-.31-.66.87.87,0,0,0-.54-.19h-.23a.85.85,0,0,0-.85.85v8.9a.86.86,0,0,0,.85.85Z"/><ellipse class="cls-8" cx="700.96" cy="463.09" rx="2.99" ry="1.32"/><ellipse class="cls-1" cx="507.81" cy="468.21" rx="2.77" ry="0.88"/><path class="cls-7" d="M508.12,468.52h.23a.83.83,0,0,0,.58-.22.85.85,0,0,0,.27-.62v-8.91a.87.87,0,0,0-.31-.66.91.91,0,0,0-.54-.19h-.23a.85.85,0,0,0-.85.85v8.91a.86.86,0,0,0,.32.66A.89.89,0,0,0,508.12,468.52Z"/><path class="cls-8" d="M505.17,458.42c0,.73,1.34,1.32,3,1.32s3-.59,3-1.32-1.34-1.33-3-1.33S505.17,457.69,505.17,458.42Z"/><path class="cls-9" d="M658.69,399.69l.51,1.93.2,0c1.79-.76,3.55-1.56,5.3-2.4q2.89-1.43,5.69-3c0-.71.07-1.21.08-1.49-2.12,1.06-4.29,2.05-6.48,2.95C662.24,398.35,660.48,399,658.69,399.69Z"/><path class="cls-9" d="M581.69,406.69l.08.27.28,3.16,1.35.17,1.37.17c.46.06.92.11,1.38.14l2.75.23c3.68.28,7.34.63,11.05.74a157.86,157.86,0,0,0,22.17-.68l2.75-.32c.46-.06.92-.1,1.38-.17l1.37-.2,2.75-.4.7-.12-.25-.25-.74-2.76a170,170,0,0,1-30,1.4c-3.63-.09-7.26-.43-10.89-.69l-2.72-.19c-.45,0-.9-.07-1.36-.13l-1.35-.15Z"/><path class="cls-9" d="M528.23,394.43c0,.21.1.42.16.64l.59.32c.4.22.81.43,1.23.62l2.5,1.19,1.25.6,1.27.55,2.55,1.06,1.28.53c.43.17.86.32,1.3.48l2.6.95.67-2-2.61-.81-1.3-.4-1.28-.46-2.57-.91c-.43-.16-.87-.3-1.29-.46l-3.8-1.51c-.43-.16-.85-.35-1.26-.54l-.8-.35Z"/><path class="cls-13" d="M528.72,393.89s-.41,9,6,13.05,8.93-7.61,8.93-7.61Z"/><path class="cls-13" d="M581.69,406.69s-3.16,13.32-19.12,9.25-18.94-16.61-18.94-16.61S556.4,404.1,581.69,406.69Z"/><path class="cls-13" d="M581.69,406.69s6.13,12.16,24.42,11.87,23-6.94,24-11.89C630.08,406.67,598.78,410.2,581.69,406.69Z"/><path class="cls-13" d="M630.08,406.67s8,7.53,17.83,5.79,10.78-12.77,10.78-12.77S655.59,402,630.08,406.67Z"/><path class="cls-13" d="M670.14,394.78s-2,17.75-11.45,4.91A46.07,46.07,0,0,0,670.14,394.78Z"/><path class="cls-11" d="M621,435.17a13.08,13.08,0,0,0-26,0h-.17l.81,40.25s8.89.07,11.94,0c3.33-.09,13.59-.64,13.59-.64l0-39.61Z"/><path class="cls-1" d="M299.8,458.5c0,8.9,35.53,21.26,79,21.26s78.43-12.36,78.43-21.26S422,442.38,378.52,442.38,299.8,449.6,299.8,458.5Z"/><path class="cls-2" d="M478.57,461.29l.55-.44c-11.5-14.5-29.9-72.18-30.09-72.76l-.66.21C448.55,388.88,467,446.69,478.57,461.29Z"/><path class="cls-2" d="M286.88,455.68C298,441.29,307.2,388,307.29,387.47l-.69-.12c-.09.53-9.25,53.65-20.28,67.9Z"/><path class="cls-3" d="M306.61,388.59c3,12.82,4.35,47.38,1.6,68.74q4.94,1.91,10,3.47a182.93,182.93,0,0,0,29.81,6.32c4.62.6,9.24,1.05,13.83,1.36a255.18,255.18,0,0,0,25.53.42c8.65-.28,16.91-1,24.5-1.94a186.58,186.58,0,0,0,29.76-6,57.37,57.37,0,0,0,9.49-3.65c-5.34-11.3-3.08-58.06-2.55-67.65,0-.71.06-1.21.08-1.48s0-.25,0-.25c-38.89-35.39-63.07-81.29-71.83-95.65,0,.09-.08.19-.12.29-7.89,19-42.35,64.49-69.81,94.82l-.49.54Z"/><path class="cls-12" d="M437.44,393.61c0,28.91-2.8,47.18,4.24,67.37h0a57.37,57.37,0,0,0,9.49-3.65c-6-12.61-2.46-69.38-2.46-69.38-38.89-35.39-63.07-81.29-71.83-95.65,0,.09-.08.19-.12.29C380.31,302.77,404.05,368,437.44,393.61Z"/><path class="cls-12" d="M361.89,468.48a262.57,262.57,0,0,0,50-1.52h0s-5.25-36.61-3.15-65.34c-10.86-34-21.37-47.65-31.89-109.32-4.2,35-10.86,94.95-17.17,108.62C362.81,417.76,363.2,458.17,361.89,468.48Z"/><path class="cls-12" d="M308.21,457.33q4.94,1.91,10,3.47s7.13-26.59,3.27-67.77c19.27-26.8,48.71-63.94,55.36-100.73-7.7,18.92-42.74,65.17-70.42,95.65C309.61,400.22,311,435.61,308.21,457.33Z"/><path class="cls-5" d="M306.46,388l.15.64.6.32c.4.22.81.43,1.23.62l2.49,1.19,1.25.6,1.28.55,2.55,1.06,1.28.53,1.29.48,2.6.95,1.3.48.65.24.66.21c1.76.57,3.52,1.11,5.29,1.65l.66.21.66.17,4,1.07,2.68.7,2.7.59,5.42,1.15,5.45.93,2.73.46c.45.08.91.15,1.37.2l1.37.18,4.14.51,1.35.17L363,404c.46.06.92.11,1.38.14l2.75.23c3.67.28,7.34.63,11,.74a157.81,157.81,0,0,0,22.17-.68l2.76-.32c.46-.06.92-.1,1.38-.17l1.37-.2,2.75-.4.7-.12,2-.36,1.37-.24,1.36-.28,2.72-.57,2.69-.65,1.35-.33,1.34-.37a116.6,116.6,0,0,0,15.47-5.3c1.79-.76,3.55-1.56,5.3-2.4q2.88-1.43,5.69-3c0-.71.06-1.21.08-1.49-2.13,1.06-4.29,2.05-6.48,2.95q-2.62,1.1-5.3,2.07c-1.63.59-3.28,1.15-4.93,1.67l-1.3.41c-.43.14-.87.25-1.3.38-.88.26-1.74.53-2.62.76l-2.63.7c-.87.23-1.76.42-2.64.63-4.36,1-8.77,1.82-13.19,2.43a170.09,170.09,0,0,1-30,1.4c-3.62-.09-7.25-.43-10.88-.69l-2.72-.19c-.45,0-.91-.07-1.36-.13l-1.35-.15-2.07-.22-3.36-.37-1.35-.15c-.46,0-.91-.09-1.36-.16l-2.7-.4-5.39-.79-5.36-1-2.69-.49-2.66-.59-2.66-.6-1.33-.3-.66-.15-.66-.18c-1.75-.47-3.51-.95-5.27-1.4l-.66-.18-.65-.2-1.3-.4-2.61-.81-1.3-.4-1.28-.46-2.58-.91-1.28-.46L309,388.3c-.42-.16-.84-.35-1.25-.54l-.8-.35Z"/><circle class="cls-6" cx="376.69" cy="293.01" r="2.82"/><path class="cls-1" d="M476.06,466.41c0,.48,1.24.87,2.77.87s2.78-.39,2.78-.87-1.24-.88-2.78-.88S476.06,465.92,476.06,466.41Z"/><path class="cls-7" d="M479.15,466.72h.23a.86.86,0,0,0,.58-.23.85.85,0,0,0,.27-.62V457a.84.84,0,0,0-.32-.66.82.82,0,0,0-.53-.19h-.23a.88.88,0,0,0-.46.13.85.85,0,0,0-.39.72v8.9a.86.86,0,0,0,.85.85Z"/><ellipse class="cls-8" cx="479.19" cy="456.61" rx="2.99" ry="1.32"/><ellipse class="cls-1" cx="286.03" cy="461.73" rx="2.77" ry="0.88"/><path class="cls-7" d="M286.35,462h.23a.85.85,0,0,0,.58-.22.89.89,0,0,0,.27-.62v-8.91a.86.86,0,0,0-.85-.85h-.23a.88.88,0,0,0-.46.13.87.87,0,0,0-.39.72v8.91a.83.83,0,0,0,.32.66A.87.87,0,0,0,286.35,462Z"/><path class="cls-8" d="M283.4,451.94c0,.73,1.34,1.32,3,1.32s3-.59,3-1.32-1.34-1.33-3-1.33S283.4,451.21,283.4,451.94Z"/><path class="cls-9" d="M436.92,393.21l.51,1.93.2,0c1.79-.76,3.55-1.56,5.3-2.4q2.88-1.43,5.69-3c0-.71.06-1.21.08-1.49-2.13,1.06-4.29,2.05-6.48,2.95Q439.6,392.24,436.92,393.21Z"/><path class="cls-9" d="M359.92,400.21l.08.27.28,3.16,1.35.17L363,404c.46.06.92.11,1.38.14l2.75.23c3.67.28,7.34.63,11,.74a157.81,157.81,0,0,0,22.17-.68l2.76-.32c.46-.06.92-.1,1.38-.17l1.37-.2,2.75-.4.7-.12-.25-.25-.74-2.76a170.09,170.09,0,0,1-30,1.4c-3.62-.09-7.25-.43-10.88-.69l-2.72-.19c-.45,0-.91-.07-1.36-.13l-1.35-.15Z"/><path class="cls-9" d="M306.46,388l.15.64.6.32c.4.22.81.43,1.23.62l2.49,1.19,1.25.6,1.28.55,2.55,1.06,1.28.53,1.29.48,2.6.95.68-2-2.61-.81-1.3-.4-1.28-.46-2.58-.91-1.28-.46L309,388.3c-.42-.16-.84-.35-1.25-.54l-.8-.35Z"/><path class="cls-13" d="M307,387.41s-.41,9,6,13,8.93-7.61,8.93-7.61Z"/><path class="cls-13" d="M359.92,400.21s-3.16,13.32-19.13,9.25-18.93-16.61-18.93-16.61S334.63,397.62,359.92,400.21Z"/><path class="cls-13" d="M359.92,400.21s6.13,12.16,24.42,11.87,23-6.94,24-11.89C408.31,400.19,377,403.72,359.92,400.21Z"/><path class="cls-13" d="M408.31,400.19s8,7.53,17.83,5.79,10.78-12.77,10.78-12.77S433.81,395.47,408.31,400.19Z"/><path class="cls-13" d="M448.37,388.3s-2,17.75-11.45,4.91A46.07,46.07,0,0,0,448.37,388.3Z"/><path class="cls-11" d="M399.21,428.69a13.08,13.08,0,0,0-26,0H373l.81,40.25s8.89.07,11.94,0c3.33-.09,13.59-.64,13.59-.64V428.69Z"/></svg>