<svg id="Layer_1" data-name="Layer 1" xmlns="http://www.w3.org/2000/svg" viewBox="0 0 800 512"><defs><style>.cls-1{opacity:0.4;}.cls-2{fill:#f73b16;}.cls-2,.cls-5{stroke:#6d1d07;}.cls-2,.cls-3,.cls-4,.cls-5,.cls-6{stroke-miterlimit:10;stroke-width:0.45px;}.cls-3{fill:#a5a4a4;stroke:#5b1e06;}.cls-4{fill:#bf2516;}.cls-4,.cls-6{stroke:#701d07;}.cls-5,.cls-6{fill:none;}</style></defs><ellipse class="cls-1" cx="543.41" cy="234.72" rx="56.62" ry="16.11"/><g id="ball"><circle class="cls-2" cx="533.7" cy="180.12" r="60.14"/><path class="cls-3" d="M509.71,213.77S550,185,580.05,184.29c0,0,7.14-7.86,7.28-8.69s-2.65-21.14-2.65-21.14S530.56,166,484.89,196.25l6.22,14.37Z"/><path class="cls-3" d="M478.81,177.78s15.38-21.35,36.27-31.71,42-12.87,59.73-6.68c0,0-3.68-7.07-10.15-10.72s-21.82-10.92-34.86-5.9l-5.32,3.78A93.19,93.19,0,0,0,484.37,150L478,160.64Z"/><path class="cls-4" d="M518.07,233.9s-43.26-9.9-44.25-59.31c0,0,1-29.67,26.76-44.65l6.37,3.84s-16,8.8-22.58,16.17c0,0-6.49,14.07-4.32,26.34s4.9,25.5,29.66,37.48Z"/><path class="cls-4" d="M535.53,198.58l17.69-8.2s13.95,19.94,18.54,36.31c0,0-13.56,11.31-29.14,12.92A220.13,220.13,0,0,1,535.53,198.58Z"/><path class="cls-4" d="M580.05,184.29s9.6-24-5.86-45.78-39.2-16.28-49.71-12l-.54-5.78s30.41-4.42,49,13.8,25.59,40,12.44,69.91Z"/><path class="cls-5" d="M585.57,210.17s.62-1.71-1-9"/><path class="cls-6" d="M520.75,238.62s-.69-1-2.85-4.9"/></g><ellipse class="cls-1" cx="411.59" cy="306.21" rx="56.62" ry="16.11"/><g id="ball-2" data-name="ball"><circle class="cls-2" cx="404.94" cy="250.1" r="60.14"/><path class="cls-3" d="M372.22,224.85s27.2,41.37,26.78,71.41c0,0,7.59,7.44,8.41,7.61S428.64,302,428.64,302s-9.46-54.52-38-101.3l-14.6,5.66Z"/><path class="cls-3" d="M409.37,195.34s20.75,16.18,30.3,37.45,11.27,42.44,4.4,59.94c0,0,7.21-3.4,11.1-9.73s11.75-21.39,7.23-34.61l-3.57-5.46A93.3,93.3,0,0,0,437,202l-10.44-6.75Z"/><path class="cls-4" d="M351.79,232.43s11.54-42.85,61-42c0,0,29.6,2.17,43.6,28.45l-4.09,6.22S444.08,208.83,437,202c0,0-13.81-7-26.16-5.32s-25.66,3.92-38.59,28.21Z"/><path class="cls-4" d="M386.42,251.23l7.52,18s-20.45,13.18-37,17.13c0,0-10.79-14-11.81-29.61A220.18,220.18,0,0,1,386.42,251.23Z"/><path class="cls-4" d="M399,296.26s23.65,10.51,46-4.11,17.76-38.55,13.85-49.22l5.79-.32s3.25,30.55-15.67,48.48-40.9,24.05-70.32,9.77Z"/><path class="cls-5" d="M372.93,300.79s1.69.68,9.06-.69"/><path class="cls-6" d="M347,234.93s1-.65,5-2.66"/></g><ellipse class="cls-1" cx="253.39" cy="240.22" rx="56.62" ry="16.11"/><g id="ball-3" data-name="ball"><circle class="cls-2" cx="264.22" cy="192.77" r="60.14"/><path class="cls-3" d="M274.12,232.9s4.44-49.32,23.45-72.58c0,0-1.31-10.54-1.84-11.18S278,137.38,278,137.38s-26.5,48.57-33.3,102.93l15,4.65Z"/><path class="cls-3" d="M226.68,232.89s-6.18-25.58-.43-48.17,17.58-40.24,33.84-49.67c0,0-7.76-1.82-14.74.71s-22.51,9.44-27.19,22.61l-.6,6.49a93.33,93.33,0,0,0-8.38,45.68l4,11.78Z"/><path class="cls-4" d="M294.83,239.67S259.14,266,221,234.6c0,0-21.84-20.11-16.45-49.39l7.07-2.33s-3.73,17.85-2.45,27.66c0,0,6.45,14.09,17.18,20.44s22.53,12.89,47.76,1.92Z"/><path class="cls-4" d="M279.41,203.41l5.3-18.76s24.22,2.4,39.62,9.59c0,0-.25,17.65-9.18,30.52A219.51,219.51,0,0,1,279.41,203.41Z"/><path class="cls-4" d="M297.57,160.32s-12-22.93-38.55-25.38-37.89,19.14-41.46,29.92l-4.74-3.35s16.46-25.95,42.43-28.21,47,6.61,61.14,36.1Z"/><path class="cls-5" d="M320.8,173s-.89-1.59-7.52-5.1"/><path class="cls-6" d="M300.16,240.7s-1.21-.12-5.58-1"/></g><ellipse class="cls-1" cx="124.68" cy="339.55" rx="56.62" ry="16.11"/><g id="ball-4" data-name="ball"><circle class="cls-2" cx="121.02" cy="285.28" r="60.14"/><path class="cls-3" d="M83.84,267.24s35.08,34.94,40.81,64.43c0,0,8.94,5.73,9.78,5.73s20.41-6.15,20.41-6.15S134.43,279.82,97,239.85l-13.14,8.52Z"/><path class="cls-3" d="M114.17,230.76s23.62,11.6,37.31,30.47S171.19,300.47,168,319c0,0,6.36-4.8,8.88-11.79s7.13-23.34,0-35.36l-4.61-4.61a93.29,93.29,0,0,0-29.77-35.64l-11.6-4.47Z"/><path class="cls-4" d="M65.39,278.84s2.53-44.31,51.09-53.53c0,0,29.42-3.93,48.5,18.93l-2.73,6.93s-11.35-14.29-19.71-19.57c0,0-15-4-26.7.14s-24.32,9.08-32,35.5Z"/><path class="cls-4" d="M103.13,290.16l11,16.07s-17.33,17.09-32.71,24.34c0,0-13.41-11.48-17.6-26.57A219.48,219.48,0,0,1,103.13,290.16Z"/><path class="cls-4" d="M124.65,331.67s25.3,5.45,44.16-13.42,9.51-41.37,3.5-51l5.6-1.5s9.43,29.25-5.42,50.66-35.12,31.9-66.85,23.94Z"/><path class="cls-5" d="M100.05,341.43s1.79.33,8.73-2.52"/><path class="cls-6" d="M61.18,282.28s.88-.85,4.36-3.64"/></g><ellipse class="cls-1" cx="282.08" cy="375.92" rx="56.62" ry="16.11"/><g id="ball-5" data-name="ball"><circle class="cls-2" cx="281.55" cy="323.47" r="60.14"/><path class="cls-3" d="M251.18,351.51S296.51,331.6,326.06,337c0,0,8.6-6.23,8.91-7s1.72-21.24,1.72-21.24-55.33.23-106.22,20.51l3.14,15.34Z"/><path class="cls-3" d="M228.29,310s19.42-17.76,42-23.62,43.73-4,59.84,5.67c0,0-2.15-7.68-7.74-12.57s-19.13-15.16-32.92-12.91l-6,2.61a93.29,93.29,0,0,0-44.05,14.71L231,293Z"/><path class="cls-4" d="M255.25,372.92s-40.33-18.53-31.19-67.11c0,0,7.08-28.82,35.32-38.23l5.45,5.07s-17.44,5.34-25.41,11.2c0,0-9.23,12.44-9.61,24.91s-.42,25.95,21.37,42.75Z"/><path class="cls-4" d="M279.56,341.92l19-4.41s9.59,22.36,10.72,39.33c0,0-15.58,8.3-31.16,6.69A219.92,219.92,0,0,1,279.56,341.92Z"/><path class="cls-4" d="M326.06,337s14.31-21.56,3.63-46-35.05-23.95-46.22-21.88l.65-5.76s30.67,1.89,45.19,23.54,16.88,44.34-2.12,71Z"/><path class="cls-5" d="M326.17,363.5s1-1.56.84-9.05"/><path class="cls-6" d="M256.91,378.09s-.47-1.12-1.79-5.38"/></g><ellipse class="cls-1" cx="677.14" cy="309.83" rx="56.62" ry="16.11"/><g id="ball-6" data-name="ball"><circle class="cls-2" cx="678.73" cy="256.42" r="60.14"/><path class="cls-3" d="M689.58,216.54s-27.85,40.94-55.77,52c0,0-4,9.85-3.82,10.68s9.82,18.91,9.82,18.91,46.77-29.57,79.12-73.78l-10.81-11.33Z"/><path class="cls-3" d="M731,239.6s-7,25.36-23,42.31-34.91,26.62-53.71,27c0,0,5.9,5.37,13.23,6.54s24.26,2.69,34.75-6.54l3.68-5.38a93.31,93.31,0,0,0,29.52-35.86l2.24-12.22Z"/><path class="cls-4" d="M674.77,200.56s44-5.71,62.05,40.31c0,0,9.31,28.18-9.62,51.15l-7.32-1.4s12-13.79,15.59-23c0,0,1.21-15.44-5.08-26.2S717,219.21,689.58,216.54Z"/><path class="cls-4" d="M670.62,239.74l-13.75,13.82s-20-13.86-30-27.63c0,0,8.8-15.31,22.86-22.22A219.41,219.41,0,0,1,670.62,239.74Z"/><path class="cls-4" d="M633.81,268.57s-.67,25.87,21.36,40.92,42.42,1.69,50.78-6l2.51,5.23s-27,14.68-50.79,4-37.85-28.61-35.89-61.26Z"/><path class="cls-5" d="M619.67,246.2s0,1.83,4.09,8.11"/><path class="cls-6" d="M670.61,197.06s1,.7,4.38,3.61"/></g><ellipse class="cls-1" cx="546.36" cy="374.58" rx="56.62" ry="16.11"/><g id="ball-7" data-name="ball"><circle class="cls-2" cx="547.92" cy="321.1" r="60.14"/><path class="cls-3" d="M507.46,312.68S550,338,562.75,365.21c0,0,10.07,3.38,10.89,3.17s18.29-10.94,18.29-10.94-32.34-44.9-78.41-74.53l-10.66,11.47Z"/><path class="cls-3" d="M528,269.9s25.73,5.49,43.62,20.45,28.68,33.25,30.15,52c0,0,5-6.21,5.73-13.61s1.22-24.37-8.62-34.29l-5.6-3.35a93.22,93.22,0,0,0-37.56-27.3l-12.34-1.51Z"/><path class="cls-4" d="M492.4,328.43s-8.35-43.59,36.49-64.38c0,0,27.58-11,51.65,6.53l-1,7.39S565.1,266.88,555.7,263.8c0,0-15.49-.29-25.86,6.64s-21.37,14.74-22.38,42.24Z"/><path class="cls-4" d="M531.75,330.2l14.63,12.9s-12.63,20.79-25.78,31.57c0,0-15.81-7.86-23.55-21.47A220.34,220.34,0,0,1,531.75,330.2Z"/><path class="cls-4" d="M562.75,365.21s25.86-.88,39.56-23.78-.87-42.44-9-50.33l5.07-2.82s16.28,26.06,7.09,50.46-26.28,39.5-59,39.51Z"/><path class="cls-5" d="M541.28,380.68s1.81-.13,7.84-4.58"/><path class="cls-6" d="M489.16,332.78s.64-1,3.34-4.58"/></g></svg>