<svg id="Layer_1" data-name="Layer 1" xmlns="http://www.w3.org/2000/svg" xmlns:xlink="http://www.w3.org/1999/xlink" viewBox="0 0 1280 720"><defs><style>.cls-1{fill:#2e5100;}.cls-2{fill:#68ba20;}.cls-3{fill:#66a81a;}.cls-4{fill:#417625;}.cls-5{fill:#c3d82e;}.cls-6{opacity:0.2;}.cls-7{fill:#10af5b;}.cls-21,.cls-8{fill:#fdee3a;stroke:#182604;}.cls-12,.cls-21,.cls-22,.cls-8{stroke-miterlimit:10;}.cls-12,.cls-8{stroke-width:0.5px;}.cls-9{fill:#231f20;}.cls-10{fill:#fff;}.cls-11{fill:#1e3519;}.cls-12,.cls-13,.cls-22{fill:none;}.cls-12,.cls-22{stroke:#1e3519;}.cls-14{fill:#016b31;}.cls-15{fill:#17e068;}.cls-16{fill:#07d85b;}.cls-17{fill:#02c953;}.cls-18{fill:#34ce72;}.cls-19{opacity:0.3;}.cls-20{fill:#00a552;}.cls-23{fill:#006d34;}.cls-24{fill:#81d134;}.cls-25{fill:#73b222;}.cls-26{fill:#228f3b;}.cls-27{fill:#f39dc3;}.cls-28{fill:#fceef4;}.cls-29{fill:#f27e8a;}.cls-30{fill:url(#linear-gradient);}.cls-31{fill:url(#linear-gradient-2);}.cls-32{fill:url(#linear-gradient-3);}.cls-33{fill:url(#linear-gradient-4);}</style><linearGradient id="linear-gradient" x1="147.63" y1="344.54" x2="147.74" y2="367.16" gradientUnits="userSpaceOnUse"><stop offset="0.01" stop-color="#18842c"/><stop offset="0.19" stop-color="#20872a"/><stop offset="0.45" stop-color="#358e26"/><stop offset="0.78" stop-color="#589920"/><stop offset="1" stop-color="#74a31a"/></linearGradient><linearGradient id="linear-gradient-2" x1="169.92" y1="350.8" x2="170.79" y2="370.08" gradientUnits="userSpaceOnUse"><stop offset="0.01" stop-color="#18842c"/><stop offset="0.18" stop-color="#20872a"/><stop offset="0.44" stop-color="#358e26"/><stop offset="0.76" stop-color="#589920"/><stop offset="0.97" stop-color="#74a31a"/></linearGradient><linearGradient id="linear-gradient-3" x1="1132.74" y1="356.61" x2="1132.9" y2="389.18" xlink:href="#linear-gradient"/><linearGradient id="linear-gradient-4" x1="1164.83" y1="365.62" x2="1166.08" y2="393.38" xlink:href="#linear-gradient-2"/></defs><path class="cls-1" d="M550.58,410.74l32,4.78a.69.69,0,0,1,.53.79c-.47,3.48-4,10.36-11,9.4-8.09-1.1-9.08,3.15-14.84,4.33-6,1.23-13.14,5-20,2.68-9.88-3.41-13.73-.07-18.34.66-20.78,3.29-23.75-1.67-34.17-4.19-5.33-1.29-3.13-4.43-13.47-4.58-6-.08-8.57-5.72-8.57-9,0-9.67,27.19-17.62,60.23-17.62,21.83,0,41.9,3.47,52.49,9a.73.73,0,0,1-.24,1.35l-24.55,1A.72.72,0,0,0,550.58,410.74Z"/><path class="cls-2" d="M550.91,410.18l32,4.77a.68.68,0,0,1,.53.79c-.47,3.48-4,10.36-11,9.41-8.08-1.11-9.08,3.14-14.83,4.32-6,1.23-13.15,5.06-20,2.68-9.88-3.41-13.74-.06-18.35.66-20.78,3.3-23.74-1.67-34.17-4.19-5.33-1.29-3.12-4.42-13.47-4.57-6-.09-8.56-5.73-8.56-9,0-9.67,27.18-17.62,60.22-17.62,21.84,0,41.9,3.48,52.49,9a.73.73,0,0,1-.24,1.36l-24.55,1A.73.73,0,0,0,550.91,410.18Z"/><path class="cls-3" d="M471.6,424.05s7-.48,9.88,2.89c0,0,13.87-6.43,18.49-7.6C500,419.34,485,419.2,471.6,424.05Z"/><path class="cls-3" d="M520.5,432.42s7.87-2.58,11.16-1.64l-6.07-11.6S521.08,421,520.5,432.42Z"/><path class="cls-3" d="M559.52,428.9s6-3.61,7.13-3.61c0,0-16.59-5.17-19.12-5.33-1.25-.07,1.41,1.89-1.49,3.14Z"/><path class="cls-4" d="M529.88,414.21c18.59,1,34.4,3.67,33.86,3.49C557.17,417.35,531.36,415.16,529.88,414.21Z"/><path class="cls-4" d="M526.78,415.31c9.26,1.51,28.44,6.48,27.73,6.48C537.81,418.59,526.78,415.31,526.78,415.31Z"/><path class="cls-4" d="M501.42,412.79c-12.47.3-28.15,1.54-28.15,1.54C483.83,412,501.42,412.79,501.42,412.79Z"/><path class="cls-5" d="M558.77,406.51c-12.08-1.24-37.18,2.13-37.18,2.13C535.32,404.74,558.77,406.51,558.77,406.51Z"/><path class="cls-4" d="M509.57,416.1c23.62,2.14,34.1,6.4,32,6C536.75,421.61,509.57,416.1,509.57,416.1Z"/><path class="cls-4" d="M505.84,418.41c-7.64-.35-20.25.71-19.36.54C493.05,417.7,505.84,417.35,505.84,418.41Z"/><ellipse class="cls-6" cx="301.49" cy="315.8" rx="8.81" ry="33.57" transform="translate(-36.36 592.36) rotate(-85.63)"/><path class="cls-7" d="M322.17,293.79s4-3.05.9-5.79c0,0,.3-.47-.77-.52a15,15,0,0,0-3.13-.94c-1.32-.16-3.16-1.92-3.16-1.92a3.81,3.81,0,0,0-4.72-.44,42.39,42.39,0,0,1-16.16,4.75c-7.08.62-22.41,4.08-22.08,13.06,0,0-5.14-2.93-6.38,2.22,0,0-.22,5.12,7,10.18l2.5,1.71s1.13.61.7,1.54c0,0,.46,2.76,3.44,1,0,0,1.05-1-2.08-2.76L275.92,314a17.45,17.45,0,0,0,6.94,2.74s1.48,2.49,3.64.64a1.68,1.68,0,0,0-.55-1.92s1.07-1.36-.74-1.88c0,0-5.4.31-6.71-1.48a4.71,4.71,0,0,0,2.48-1.77,20,20,0,0,0,6.67,1.32s1.34,3.77,4.06,4.89a12.25,12.25,0,0,1,2.19,1.06,13.27,13.27,0,0,0,2.9,1.6c.64.21,2.47,1.39,2.37,2.48s1.44,2.33,3.7,1c0,0,.93-1.79-1-2.08,0,0-1-.33-1.16-.76,0,0-3.35-2.37-3.46-3,0,0,5,1.83,8.2,1.9a1.47,1.47,0,0,1,1.38.76,1.75,1.75,0,0,0,2.92-.43,2.2,2.2,0,0,0-2.14-1.78l-8.81-2.14a6.73,6.73,0,0,1,2.16-.1,14.29,14.29,0,0,0,3.23-.37s.56,0,.72.33,2.31,1.36,2.21-1a3,3,0,0,0-1.53-1.05,9.86,9.86,0,0,0-3,.22l-7.56.25s-2-2.08-2-2.8l6.26-3.34a52.3,52.3,0,0,1,4.68-2.34s2.2,3.39.43,3c0,0-2.31.41-.52,2.54a1.42,1.42,0,0,0,2-1.53,4.9,4.9,0,0,1,2.86.64c1.3.82,3.46,2.22,4.27,2.2,0,0,.53,0,.76.89s2.68,1.2,2.86-.25c0,0,.52-.76-3-2.05l-2.71-1.58s1.16.43,6.47.65c0,0,1,1.81,2.39.59,0,0,.93-1.42-1.32-2.35a20.06,20.06,0,0,0-3.91-.4c-1.39.1-5.65-.12-6.92-4.19,0,0,2-1.85,3.17-3.22s5.13-2.83,5.13-2.83A34.32,34.32,0,0,0,322.17,293.79Z"/><circle class="cls-8" cx="310.42" cy="290.23" r="2.91"/><path class="cls-9" d="M312.5,289.51a2,2,0,0,0-2.56-.5,2.46,2.46,0,0,0-1.61,2.3,2.53,2.53,0,0,0,2.59.27A3.09,3.09,0,0,0,312.5,289.51Z"/><circle class="cls-10" cx="309.04" cy="289.8" r="0.69"/><ellipse class="cls-9" cx="320.98" cy="289.25" rx="0.68" ry="0.41"/><path class="cls-11" d="M300.12,302.75a5.76,5.76,0,0,1-2.38,1.44,9.26,9.26,0,0,1-2.76.49,13.6,13.6,0,0,1-2.78-.21l-1.36-.31c-.44-.15-.88-.28-1.31-.44.92.13,1.82.28,2.72.37a22.38,22.38,0,0,0,2.71.09,13.29,13.29,0,0,0,2.67-.35A7.76,7.76,0,0,0,300.12,302.75Z"/><path class="cls-12" d="M296.18,299.6s-8-.6-9.84,2.35c0,0-1,1.25,0,4.63l1.54,5.46s1.09,3.58,3.5,4.28c0,0,2.62,1.45,3.44,1.94,0,0,4.68,1.75,4.45,3.69,0,0,.1,2,3.21,1.11,0,0,1.69-1.07-.15-2.27a3.17,3.17,0,0,1-1.31-.56l-3.92-3.37s2.6,1.32,9,2a2.31,2.31,0,0,1,.81.82,1.69,1.69,0,0,0,2.52.06,1.45,1.45,0,0,0-.44-1.94,8.22,8.22,0,0,0-2.65-.78l-8.25-1.93a8.84,8.84,0,0,1-2.85-1.57,9.37,9.37,0,0,1-2.92-4.07,20.69,20.69,0,0,1-.86-5.31"/><path class="cls-12" d="M295.29,313.5s7.13,0,7.9-.39,4.13-.48,4.11,1.59c0,0-.24,1.8-2.9,0a2.33,2.33,0,0,0-1.26.32l-4.63.08"/><path class="cls-11" d="M322.88,293.14a8.71,8.71,0,0,0-2.35.42c-.73.28-1.45.67-2.19,1-1.46.67-3,1.27-4.46,1.85a36.64,36.64,0,0,1-4.65,1.39,8.28,8.28,0,0,1-2.44.2,1.33,1.33,0,0,1-1.09-.57,1.38,1.38,0,0,1,.13-1.19,1.45,1.45,0,0,0,0,1.12,1.17,1.17,0,0,0,1,.4,8.18,8.18,0,0,0,2.34-.34,41.77,41.77,0,0,0,4.56-1.48c1.51-.53,3-1.14,4.48-1.74.76-.28,1.47-.63,2.27-.87A7.6,7.6,0,0,1,322.88,293.14Z"/><path class="cls-11" d="M309.65,286.6a4.72,4.72,0,0,0-2.7,1.85,3.22,3.22,0,0,0-.5,1.52,5.28,5.28,0,0,0,.11,1.63v0a4.46,4.46,0,0,0,.75,1.32,3.65,3.65,0,0,0,1.19,1,3.92,3.92,0,0,0,1.51.39,5.34,5.34,0,0,0,.8,0l.81-.1a5.93,5.93,0,0,1-1.61.34,4.12,4.12,0,0,1-1.66-.28,3.73,3.73,0,0,1-1.39-1,4.36,4.36,0,0,1-.87-1.49h0a5.89,5.89,0,0,1-.1-1.78,3.54,3.54,0,0,1,.65-1.69A4.29,4.29,0,0,1,309.65,286.6Z"/><path class="cls-13" d="M275.61,299.58s6,.6,5.93,8.34c0,0-.33,6.76-8.2,3.09,0,0-1.77-.87-4.45-4.57"/><path class="cls-12" d="M276.14,306.17s-.2-3.52-5.35-5.05c0,0-5.28-.28-3.55,5.65,0,0,1.41,4.78,8.9,9.33a1.28,1.28,0,0,1,.69,1.34s-.14,2.47,3.07,1.51c0,0,1.27-.64-.22-2.09L275.92,314s4.65,2.36,6.42,2.63c0,0,.78.33,1,.88s4,1.51,3.13-1.62A2.43,2.43,0,0,0,284,315c-1.86.2-6.61-1.9-6.94-2.64"/><path class="cls-12" d="M286.06,315.42s.94-1.23-.86-1.9c0,0-4.9.43-6.7-1.38"/><path class="cls-11" d="M275.48,299.66a5.73,5.73,0,0,1,2.9.8,6.23,6.23,0,0,1,2.13,2.17,9,9,0,0,1,1.07,2.87,11,11,0,0,1,.2,1.51l0,.78c0,.25-.06.51-.08.77a4.49,4.49,0,0,1-1.36,2.8,4.74,4.74,0,0,1-2.9,1.12,6.76,6.76,0,0,1-5.52-2.31h0c-.57-.57-1.12-1.16-1.64-1.78a7.62,7.62,0,0,1-1.31-2,7.62,7.62,0,0,0,1.44,1.91c.55.58,1.13,1.13,1.72,1.68h0a5.68,5.68,0,0,0,2.4,1.6,6.86,6.86,0,0,0,2.86.44,4.22,4.22,0,0,0,2.6-1,4.09,4.09,0,0,0,1.23-2.5c0-.24.07-.47.08-.72l0-.73a10.37,10.37,0,0,0-.17-1.46,9.61,9.61,0,0,0-.94-2.78A5.92,5.92,0,0,0,275.48,299.66Z"/><path class="cls-12" d="M307.6,303.14s1.74,3.81,4.6,3.92a43.76,43.76,0,0,0,4.58.33c2.34,0,3.93,1.34,2.67,3a1.62,1.62,0,0,1-2.09-.89s-5.6-.05-6.86-.81l5.79,3.21s1.18,1.62-1.68,1.48a1.28,1.28,0,0,1-1-1.23,2.4,2.4,0,0,0-1.1-.42l-4.64-2.55s-1.76-.47-2.18-.11c0,0,.23,1.95-1.55,1.54,0,0-2.58-1.58.26-2.62,0,0,.75.26.75-.7l-1.23-2.17"/><path class="cls-12" d="M281,310.37a13.59,13.59,0,0,0,6.67,1.32"/><path class="cls-12" d="M293,310.71s4.66-2.32,6.08-3.22,7.51-3.71,9-4.74,3.27-4.55,7.53-5.5,7.95-4.71,7.95-4.71,1.92-2.88-.42-4.54c0,0,.13-.6-.87-.49a10.67,10.67,0,0,0-3.09-1c-1.42-.13-3.34-2.12-3.34-2.12s-1.59-2-4.79-.13c0,0-5,3.28-14.76,4.48S272.76,293.3,273.05,302"/><path class="cls-14" d="M318.36,295.2S308.57,299,307.51,299a40,40,0,0,1-14.1,8.37l-1,.26.69,2.33s14.17-7.42,14.36-8,.19.05.19.05S307.31,299.73,318.36,295.2Z"/><path class="cls-14" d="M286.57,309.13l.45,2.1s-3.71.16-5.21-1.09a5.57,5.57,0,0,0,.32-2.57S284.34,309.85,286.57,309.13Z"/><path class="cls-14" d="M318,287l-2.29-1.81a3,3,0,0,0-3.8-.8l-2,1.12,2.23-.88a2.71,2.71,0,0,1,3.28,1Z"/><path class="cls-14" d="M274,303.92s-5.87-5-6.43,1.42a7.92,7.92,0,0,0,1.42,3.54s-1.59-4.65-.13-5.28C268.89,303.6,270.45,302.11,274,303.92Z"/><path class="cls-14" d="M293.24,300.21s-7.94-.26-6.67,5l.8,3.07S284.86,300.49,293.24,300.21Z"/><path class="cls-15" d="M305.41,287.52s-6.3,2.31-11.09,2.28-20,5-19.82,9.54c0,0,5.57-7.18,19.82-8.85C294.32,290.49,301.05,289.89,305.41,287.52Z"/><path class="cls-16" d="M322.5,288.55s2.57,2.14,0,4.15A2.88,2.88,0,0,0,322.5,288.55Z"/><path class="cls-16" d="M313.89,290.23s-.61,4.45-4.73,3.2C309.16,293.43,313.38,295.27,313.89,290.23Z"/><path class="cls-17" d="M280.86,305.47s.95,9.07-7.05,5.24C273.81,310.71,280.66,313.7,280.86,305.47Z"/><path class="cls-16" d="M312.72,307.76a6.8,6.8,0,0,1-5.42-3.88l-1,.44S309.35,308.22,312.72,307.76Z"/><path class="cls-14" d="M320.22,289.1s-.18.61.76.68C321,289.78,319.94,289.94,320.22,289.1Z"/><ellipse class="cls-18" cx="280.85" cy="297.46" rx="1.39" ry="0.66" transform="translate(-82.3 109.08) rotate(-19.23)"/><ellipse class="cls-18" cx="285.63" cy="298.57" rx="1.39" ry="0.66" transform="translate(-82.39 110.72) rotate(-19.23)"/><ellipse class="cls-18" cx="288.89" cy="294" rx="1.39" ry="0.66" transform="translate(-80.71 111.54) rotate(-19.23)"/><ellipse class="cls-18" cx="293.11" cy="302.11" rx="1.78" ry="0.84" transform="translate(-8.96 8.96) rotate(-1.72)"/><ellipse class="cls-18" cx="295.9" cy="297.91" rx="1.78" ry="0.84" transform="translate(-8.83 9.04) rotate(-1.72)"/><ellipse class="cls-18" cx="292.16" cy="313.79" rx="0.84" ry="1.78" transform="translate(-133.31 260.92) rotate(-39.96)"/><ellipse class="cls-18" cx="289.67" cy="307.62" rx="0.84" ry="1.78" transform="translate(-54.12 61.97) rotate(-11.17)"/><ellipse class="cls-18" cx="272.34" cy="306.37" rx="0.84" ry="1.78" transform="translate(-136.87 282.3) rotate(-45)"/><ellipse class="cls-18" cx="308.49" cy="296.35" rx="1.78" ry="0.84" transform="translate(-49.61 62.35) rotate(-10.69)"/><ellipse class="cls-18" cx="317.58" cy="291.31" rx="1.78" ry="0.84" transform="translate(-48.52 63.95) rotate(-10.69)"/><ellipse class="cls-18" cx="297.52" cy="291.47" rx="1.78" ry="0.84" transform="translate(-53.02 66.53) rotate(-11.72)"/><ellipse class="cls-18" cx="294.76" cy="294.95" rx="1.78" ry="0.84" transform="translate(-53.78 66.05) rotate(-11.72)"/><ellipse class="cls-18" cx="302.51" cy="293.7" rx="1.78" ry="0.84" transform="translate(-53.37 67.59) rotate(-11.72)"/><ellipse class="cls-18" cx="277.45" cy="309.52" rx="1.78" ry="0.84" transform="translate(-9.19 8.49) rotate(-1.72)"/><ellipse class="cls-18" cx="302.4" cy="301.33" rx="1.78" ry="0.84" transform="translate(-103.31 168.51) rotate(-26.77)"/><ellipse class="cls-6" cx="583.67" cy="320.56" rx="8.81" ry="33.57" transform="translate(219.57 878.11) rotate(-85.63)"/><path class="cls-7" d="M604.34,298.55s4-3.05.91-5.79c0,0,.3-.47-.77-.52a15.2,15.2,0,0,0-3.13-.94c-1.32-.16-3.16-1.92-3.16-1.92a3.82,3.82,0,0,0-4.72-.44,42.52,42.52,0,0,1-16.17,4.75c-7.08.62-22.4,4.08-22.07,13.06,0,0-5.14-2.93-6.38,2.22,0,0-.23,5.12,7,10.18l2.5,1.71s1.13.61.7,1.54c0,0,.45,2.76,3.44,1,0,0,1-1-2.08-2.76l-2.29-1.87a17.45,17.45,0,0,0,6.94,2.74s1.48,2.49,3.65.63a1.66,1.66,0,0,0-.56-1.91s1.07-1.36-.73-1.89c0,0-5.41.32-6.72-1.47a4.75,4.75,0,0,0,2.49-1.77,20,20,0,0,0,6.67,1.32s1.34,3.77,4.06,4.89a12.19,12.19,0,0,1,2.18,1.06A13.27,13.27,0,0,0,579,324c.64.21,2.47,1.39,2.37,2.48s1.44,2.33,3.71,1c0,0,.93-1.79-1-2.08,0,0-1-.33-1.15-.76,0,0-3.36-2.37-3.46-3,0,0,5,1.83,8.19,1.89a1.48,1.48,0,0,1,1.38.77,1.76,1.76,0,0,0,2.93-.44,2.2,2.2,0,0,0-2.14-1.77L581,320a6.73,6.73,0,0,1,2.16-.1,14.32,14.32,0,0,0,3.24-.37s.55,0,.72.33,2.31,1.36,2.2-1.05a3,3,0,0,0-1.52-1.05,9.9,9.9,0,0,0-3,.22l-7.56.25s-2-2.08-2-2.8l6.26-3.34s4.39-2.39,4.68-2.35c0,0,2.2,3.4.43,3,0,0-2.3.41-.51,2.53a1.41,1.41,0,0,0,2-1.52,4.94,4.94,0,0,1,2.87.64c1.29.82,3.46,2.22,4.26,2.2,0,0,.54,0,.76.89s2.69,1.2,2.87-.26c0,0,.52-.75-3-2l-2.7-1.58s1.15.43,6.46.65c0,0,1,1.81,2.39.59,0,0,.94-1.42-1.31-2.35a20.1,20.1,0,0,0-3.92-.4c-1.38.1-5.64-.12-6.92-4.19,0,0,2-1.85,3.17-3.22s5.14-2.83,5.14-2.83A34,34,0,0,0,604.34,298.55Z"/><circle class="cls-8" cx="592.59" cy="294.99" r="2.91"/><path class="cls-9" d="M594.68,294.27a2,2,0,0,0-2.56-.5,2.46,2.46,0,0,0-1.62,2.3,2.54,2.54,0,0,0,2.59.27A3.08,3.08,0,0,0,594.68,294.27Z"/><circle class="cls-10" cx="591.21" cy="294.56" r="0.69"/><ellipse class="cls-9" cx="603.15" cy="294.01" rx="0.68" ry="0.41"/><path class="cls-11" d="M582.29,307.51a5.79,5.79,0,0,1-2.37,1.44,9.65,9.65,0,0,1-2.76.49,13.7,13.7,0,0,1-2.79-.21l-1.35-.31c-.44-.15-.89-.28-1.32-.44.92.13,1.82.28,2.73.37a22.31,22.31,0,0,0,2.71.09,13.38,13.38,0,0,0,2.67-.35A7.8,7.8,0,0,0,582.29,307.51Z"/><path class="cls-12" d="M578.36,304.36s-8-.6-9.85,2.35c0,0-1,1.25,0,4.63l1.55,5.46s1.09,3.58,3.5,4.28c0,0,2.61,1.45,3.44,1.94,0,0,4.67,1.75,4.44,3.69,0,0,.11,2,3.22,1.11,0,0,1.69-1.07-.16-2.27a3.09,3.09,0,0,1-1.3-.56l-3.93-3.37s2.61,1.32,9,2a2.2,2.2,0,0,1,.82.82,1.69,1.69,0,0,0,2.52.06,1.45,1.45,0,0,0-.44-1.94,8.22,8.22,0,0,0-2.66-.78l-8.25-1.93a8.84,8.84,0,0,1-2.85-1.57,9.43,9.43,0,0,1-2.92-4.08,20.27,20.27,0,0,1-.85-5.3"/><path class="cls-12" d="M577.46,318.26s7.14,0,7.9-.39,4.14-.48,4.11,1.59c0,0-.23,1.8-2.9,0a2.35,2.35,0,0,0-1.26.32l-4.63.08"/><path class="cls-11" d="M605.05,297.9a8.85,8.85,0,0,0-2.35.42c-.73.27-1.45.67-2.18,1-1.47.68-3,1.28-4.47,1.86a37,37,0,0,1-4.64,1.39,8.31,8.31,0,0,1-2.44.2,1.35,1.35,0,0,1-1.1-.57A1.45,1.45,0,0,1,588,301a1.41,1.41,0,0,0,0,1.12,1.16,1.16,0,0,0,1,.4,8.53,8.53,0,0,0,2.33-.34,41.77,41.77,0,0,0,4.56-1.48c1.51-.54,3-1.14,4.49-1.74.75-.28,1.46-.63,2.26-.87A7.63,7.63,0,0,1,605.05,297.9Z"/><path class="cls-11" d="M591.82,291.36a4.72,4.72,0,0,0-2.7,1.85,3.3,3.3,0,0,0-.5,1.52,5.63,5.63,0,0,0,.11,1.63v0a4.06,4.06,0,0,0,.75,1.32,3.55,3.55,0,0,0,1.19.95,3.83,3.83,0,0,0,1.5.39,5.34,5.34,0,0,0,.8,0l.81-.1a5.77,5.77,0,0,1-1.61.34,4.15,4.15,0,0,1-1.66-.28,3.72,3.72,0,0,1-1.39-1,4.49,4.49,0,0,1-.87-1.48h0a5.36,5.36,0,0,1-.1-1.79,3.35,3.35,0,0,1,.65-1.68A4.27,4.27,0,0,1,591.82,291.36Z"/><path class="cls-13" d="M557.78,304.34s6,.6,5.93,8.34c0,0-.33,6.76-8.2,3.09,0,0-1.77-.87-4.44-4.57"/><path class="cls-12" d="M558.32,310.93s-.21-3.52-5.36-5.05c0,0-5.27-.29-3.54,5.65,0,0,1.4,4.77,8.9,9.33a1.27,1.27,0,0,1,.68,1.33s-.13,2.48,3.08,1.52c0,0,1.26-.64-.22-2.09l-3.77-2.82s4.65,2.36,6.42,2.63c0,0,.78.33,1,.87s4,1.52,3.13-1.62a2.42,2.42,0,0,0-2.49-.89c-1.85.2-6.61-1.9-6.94-2.64"/><path class="cls-12" d="M568.24,320.18s.94-1.23-.86-1.9c0,0-4.9.43-6.71-1.38"/><path class="cls-11" d="M557.66,304.42a5.72,5.72,0,0,1,2.89.8,6.15,6.15,0,0,1,2.13,2.17,9,9,0,0,1,1.08,2.86,9.72,9.72,0,0,1,.19,1.52l0,.78c0,.25,0,.51-.08.77a4.48,4.48,0,0,1-1.35,2.8,4.77,4.77,0,0,1-2.91,1.12,6.71,6.71,0,0,1-5.51-2.32v0a22.89,22.89,0,0,1-1.64-1.78,7.65,7.65,0,0,1-1.32-2,7.62,7.62,0,0,0,1.44,1.91c.56.57,1.13,1.13,1.72,1.68h0a5.71,5.71,0,0,0,2.41,1.6,6.79,6.79,0,0,0,2.85.44,4.31,4.31,0,0,0,2.61-1,4.13,4.13,0,0,0,1.22-2.5c0-.24.07-.48.08-.72l0-.73a10.4,10.4,0,0,0-.18-1.46,9.32,9.32,0,0,0-.94-2.78A5.92,5.92,0,0,0,557.66,304.42Z"/><path class="cls-12" d="M589.77,307.9s1.75,3.8,4.6,3.91a40.86,40.86,0,0,0,4.59.33c2.33,0,3.92,1.35,2.66,3a1.62,1.62,0,0,1-2.09-.89s-5.6-.05-6.86-.82l5.79,3.22s1.18,1.62-1.67,1.48a1.28,1.28,0,0,1-1-1.23,2.4,2.4,0,0,0-1.09-.42L590,313.93s-1.77-.47-2.19-.11c0,0,.24,1.95-1.55,1.54,0,0-2.58-1.58.26-2.62,0,0,.76.26.76-.71l-1.24-2.16"/><path class="cls-12" d="M563.16,315.13a13.59,13.59,0,0,0,6.67,1.32"/><path class="cls-12" d="M575.13,315.47s4.67-2.32,6.09-3.22,7.5-3.71,9-4.74,3.27-4.55,7.54-5.5,7.94-4.72,7.94-4.72,1.93-2.87-.41-4.53c0,0,.13-.6-.87-.49a10.8,10.8,0,0,0-3.09-1c-1.42-.13-3.35-2.12-3.35-2.12s-1.58-2-4.79-.13c0,0-5,3.28-14.76,4.48s-23.45,4.53-23.16,13.22"/><path class="cls-14" d="M600.53,300s-9.79,3.84-10.85,3.76a40,40,0,0,1-14.1,8.37l-1,.26.69,2.33s14.17-7.42,14.36-8,.19.05.19.05S589.48,304.49,600.53,300Z"/><path class="cls-14" d="M568.74,313.89l.45,2.1s-3.71.16-5.2-1.09a5.64,5.64,0,0,0,.31-2.57S566.51,314.61,568.74,313.89Z"/><path class="cls-14" d="M600.12,291.76,597.83,290a3,3,0,0,0-3.79-.8l-2,1.12,2.22-.88a2.71,2.71,0,0,1,3.28,1Z"/><path class="cls-14" d="M556.2,308.68s-5.87-5-6.43,1.42a8.09,8.09,0,0,0,1.42,3.54s-1.59-4.65-.12-5.28C551.07,308.36,552.62,306.87,556.2,308.68Z"/><path class="cls-14" d="M575.41,305s-7.94-.26-6.67,5l.8,3.07S567,305.25,575.41,305Z"/><path class="cls-15" d="M587.58,292.28s-6.29,2.31-11.09,2.28-20,5-19.81,9.54c0,0,5.57-7.18,19.81-8.85C576.49,295.25,583.22,294.65,587.58,292.28Z"/><path class="cls-16" d="M604.68,293.31s2.56,2.14,0,4.15A2.89,2.89,0,0,0,604.68,293.31Z"/><path class="cls-16" d="M596.06,295s-.61,4.45-4.72,3.2C591.34,298.19,595.55,300,596.06,295Z"/><path class="cls-17" d="M563,310.23s1,9.07-7,5.24C556,315.47,562.84,318.46,563,310.23Z"/><path class="cls-16" d="M594.89,312.52a6.81,6.81,0,0,1-5.42-3.88l-1,.44S591.53,313,594.89,312.52Z"/><path class="cls-14" d="M602.4,293.86s-.19.61.75.68C603.15,294.54,602.12,294.69,602.4,293.86Z"/><ellipse class="cls-18" cx="563.02" cy="302.22" rx="1.39" ry="0.66" transform="translate(-68.12 202.28) rotate(-19.23)"/><ellipse class="cls-18" cx="567.8" cy="303.33" rx="1.39" ry="0.66" transform="translate(-68.22 203.91) rotate(-19.23)"/><ellipse class="cls-18" cx="571.06" cy="298.76" rx="1.39" ry="0.66" transform="translate(-66.53 204.73) rotate(-19.23)"/><ellipse class="cls-18" cx="575.29" cy="306.87" rx="1.78" ry="0.84" transform="translate(-8.97 17.45) rotate(-1.72)"/><ellipse class="cls-18" cx="578.08" cy="302.67" rx="1.78" ry="0.84" transform="translate(-8.84 17.53) rotate(-1.72)"/><ellipse class="cls-18" cx="574.34" cy="318.55" rx="0.84" ry="1.78" transform="translate(-70.47 443.27) rotate(-39.96)"/><ellipse class="cls-18" cx="571.84" cy="312.38" rx="0.84" ry="1.78" transform="translate(-49.7 116.74) rotate(-11.17)"/><ellipse class="cls-18" cx="554.51" cy="311.13" rx="0.84" ry="1.78" transform="translate(-57.59 483.23) rotate(-45)"/><ellipse class="cls-18" cx="590.66" cy="301.11" rx="1.78" ry="0.84" transform="translate(-45.6 114.77) rotate(-10.69)"/><ellipse class="cls-18" cx="599.76" cy="296.07" rx="1.78" ry="0.84" transform="translate(-44.5 116.37) rotate(-10.69)"/><ellipse class="cls-18" cx="579.69" cy="296.23" rx="1.78" ry="0.84" transform="translate(-48.1 123.97) rotate(-11.72)"/><ellipse class="cls-18" cx="576.93" cy="299.71" rx="1.78" ry="0.84" transform="translate(-48.86 123.48) rotate(-11.72)"/><ellipse class="cls-18" cx="584.68" cy="298.46" rx="1.78" ry="0.84" transform="translate(-48.45 125.03) rotate(-11.72)"/><ellipse class="cls-18" cx="559.62" cy="314.28" rx="1.78" ry="0.84" transform="translate(-9.2 16.98) rotate(-1.72)"/><ellipse class="cls-18" cx="584.58" cy="306.09" rx="1.78" ry="0.84" transform="translate(-75.21 296.12) rotate(-26.77)"/><ellipse class="cls-19" cx="519.89" cy="417.05" rx="11.92" ry="37.18" transform="translate(90.04 926.4) rotate(-88.57)"/><path class="cls-20" d="M484.07,388.54s-5.34-4-1.2-7.68c0,0-.4-.62,1-.69a19.66,19.66,0,0,1,4.15-1.24c1.75-.22,4.18-2.54,4.18-2.54a5.07,5.07,0,0,1,6.26-.59c3.64,2.15,12,5.48,21.41,6.3s29.69,5.4,29.26,17.3c0,0,6.81-3.88,8.45,3,0,0,.3,6.78-9.23,13.48l-3.31,2.26s-1.51.82-.93,2.05c0,0-.6,3.66-4.56,1.36,0,0-1.39-1.31,2.76-3.65l3-2.49a23,23,0,0,1-9.2,3.63s-2,3.3-4.83.85a2.2,2.2,0,0,1,.74-2.54s-1.42-1.8,1-2.5c0,0,7.17.43,8.9-1.95a6.3,6.3,0,0,1-3.29-2.34s-4.94,1.92-8.84,1.74c0,0-1.77,5-5.38,6.49a15.9,15.9,0,0,0-2.89,1.4,18,18,0,0,1-3.85,2.12c-.84.28-3.27,1.84-3.13,3.28s-1.91,3.09-4.92,1.39c0,0-1.22-2.37,1.31-2.75,0,0,1.34-.44,1.53-1,0,0,4.45-3.14,4.59-4,0,0-6.63,2.43-10.86,2.51a2,2,0,0,0-1.83,1,2.33,2.33,0,0,1-3.88-.57,2.92,2.92,0,0,1,2.84-2.35L515,417a9.16,9.16,0,0,0-2.87-.14c-.54.27-4.28-.49-4.28-.49s-.74,0-.95.43-3.06,1.81-2.92-1.39a4,4,0,0,1,2-1.39,13.25,13.25,0,0,1,4,.3l10,.33s2.7-2.76,2.7-3.71l-8.29-4.42s-5.82-3.17-6.2-3.11c0,0-2.92,4.5-.57,4,0,0,3.06.55.68,3.36a1.88,1.88,0,0,1-2.65-2,6.44,6.44,0,0,0-3.79.84c-1.72,1.09-4.58,3-5.65,2.92,0,0-.71,0-1,1.18s-3.55,1.59-3.79-.34c0,0-.69-1,4-2.71l3.58-2.09s-1.53.56-8.57.85c0,0-1.27,2.4-3.16.78,0,0-1.24-1.87,1.74-3.11a27.08,27.08,0,0,1,5.19-.52c1.83.12,7.47-.17,9.17-5.55,0,0-2.61-2.46-4.21-4.28s-6.8-3.75-6.8-3.75A45.37,45.37,0,0,1,484.07,388.54Z"/><circle class="cls-21" cx="499.64" cy="383.82" r="3.85"/><path class="cls-9" d="M496.88,382.87a2.66,2.66,0,0,1,3.39-.67,3.28,3.28,0,0,1,2.14,3.06,3.35,3.35,0,0,1-3.43.35A4.08,4.08,0,0,1,496.88,382.87Z"/><circle class="cls-10" cx="501.47" cy="383.25" r="0.91"/><ellipse class="cls-9" cx="485.65" cy="382.52" rx="0.9" ry="0.55"/><path class="cls-11" d="M513.29,400.41a11.33,11.33,0,0,0,3.33,1.29,17.91,17.91,0,0,0,3.5.43,32.78,32.78,0,0,0,3.57-.08l1.8-.17c.6-.07,1.21-.15,1.83-.19-.57.25-1.14.46-1.73.67s-1.19.33-1.79.46a15.9,15.9,0,0,1-3.71.31,12.22,12.22,0,0,1-3.69-.68A7.14,7.14,0,0,1,513.29,400.41Z"/><path class="cls-22" d="M518.5,396.23s10.56-.79,13,3.11c0,0,1.39,1.67,0,6.14l-2,7.24s-1.45,4.74-4.64,5.67c0,0-3.46,1.92-4.56,2.57,0,0-6.19,2.32-5.89,4.88,0,0-.14,2.68-4.26,1.48,0,0-2.24-1.42.21-3a4.16,4.16,0,0,0,1.73-.75l5.2-4.46s-3.45,1.75-11.94,2.68a3,3,0,0,0-1.08,1.09,2.25,2.25,0,0,1-3.34.08,1.93,1.93,0,0,1,.59-2.58,10.65,10.65,0,0,1,3.52-1L516,416.78a11.4,11.4,0,0,0,3.77-2.08,12.36,12.36,0,0,0,3.87-5.4s1.36-4.74,1.13-7"/><path class="cls-22" d="M519.68,414.65s-9.45,0-10.46-.52-5.48-.63-5.44,2.12c0,0,.31,2.38,3.83.05a3.2,3.2,0,0,1,1.68.42l6.13.1"/><path class="cls-11" d="M483.13,387.68a9.77,9.77,0,0,1,3.23.17c1.08.31,2,.75,3,1.11,2,.76,4,1.54,5.95,2.27s4,1.44,6,2a10.86,10.86,0,0,0,3.06.49,1.52,1.52,0,0,0,1.29-.46,1.87,1.87,0,0,0,0-1.47,1.47,1.47,0,0,1-1.27,2.42,11.16,11.16,0,0,1-3.27-.23,39.48,39.48,0,0,1-6.18-1.8c-2-.76-4-1.58-5.91-2.5-1-.44-1.93-1-2.87-1.35A11,11,0,0,0,483.13,387.68Z"/><path class="cls-11" d="M500.66,379a6.44,6.44,0,0,1,2.25.57,5.07,5.07,0,0,1,1.87,1.52,4.78,4.78,0,0,1,.91,2.28,6.33,6.33,0,0,1,0,1.23c0,.4-.1.8-.17,1.2v0h0a6.1,6.1,0,0,1-1.19,2,5,5,0,0,1-1.91,1.34,5.14,5.14,0,0,1-2.25.33,7.89,7.89,0,0,1-1.1-.18c-.35-.09-.7-.23-1-.35l1.08.09a6.07,6.07,0,0,0,1.05,0,5.44,5.44,0,0,0,1.94-.55,4.72,4.72,0,0,0,1.52-1.25,5.58,5.58,0,0,0,1-1.69v0c0-.35.13-.7.16-1a6.13,6.13,0,0,0,0-1.05,4.21,4.21,0,0,0-.61-1.95A6.44,6.44,0,0,0,500.66,379Z"/><path class="cls-13" d="M545.76,396.2s-8,.8-7.85,11.06c0,0,.43,8.95,10.86,4.09,0,0,2.34-1.15,5.89-6.06"/><path class="cls-22" d="M545.06,404.94s.27-4.67,7.09-6.69c0,0,7-.38,4.69,7.48,0,0-1.85,6.33-11.78,12.36a1.7,1.7,0,0,0-.91,1.78s.18,3.27-4.08,2c0,0-1.67-.84.29-2.77l5-3.74s-6.17,3.13-8.51,3.49c0,0-1,.43-1.29,1.16s-5.31,2-4.15-2.15c0,0,.85-1.46,3.3-1.19s8.76-2.51,9.2-3.49"/><path class="cls-22" d="M531.91,417.19s-1.25-1.63,1.14-2.51c0,0,6.49.57,8.88-1.83"/><path class="cls-11" d="M545.93,396.32a7.59,7.59,0,0,0-3.65,1.34,8.35,8.35,0,0,0-2.52,2.87,12,12,0,0,0-1.2,3.65,12.67,12.67,0,0,0-.21,1.92l0,1c0,.31.07.62.1.93A5.25,5.25,0,0,0,540,411.2a5.5,5.5,0,0,0,3.35,1.32,9,9,0,0,0,3.72-.54,7.38,7.38,0,0,0,3.15-2.05l0,0h0c.78-.71,1.56-1.44,2.3-2.2.37-.38.73-.77,1.07-1.17a6.24,6.24,0,0,0,.89-1.32,5.55,5.55,0,0,1-.74,1.43q-.45.66-1,1.29a28.75,28.75,0,0,1-2.16,2.39l0,0a9,9,0,0,1-7.4,3.18,6.51,6.51,0,0,1-3.95-1.53,6.1,6.1,0,0,1-1.85-3.81c0-.35-.1-.7-.11-1l.06-1a13.59,13.59,0,0,1,.28-2,12.07,12.07,0,0,1,1.47-3.83,8.22,8.22,0,0,1,2.89-2.88A7.26,7.26,0,0,1,545.93,396.32Z"/><path class="cls-22" d="M503.38,400.93s-2.31,5-6.1,5.18a57.6,57.6,0,0,1-6.07.44c-3.1,0-5.21,1.78-3.53,4a2.13,2.13,0,0,0,2.76-1.18s7.42-.05,9.1-1.07l-7.68,4.26s-1.56,2.14,2.22,2a1.69,1.69,0,0,0,1.38-1.63,3.23,3.23,0,0,1,1.46-.55l6.15-3.39s2.33-.61,2.89-.14c0,0-.31,2.58,2.06,2,0,0,3.42-2.1-.35-3.47,0,0-1,.34-1-.94l1.64-2.87"/><path class="cls-22" d="M538.64,410.51a18,18,0,0,1-8.84,1.74"/><path class="cls-22" d="M522.77,411s-6.18-3.07-8.06-4.27-9.94-4.92-11.88-6.28-4.33-6-10-7.29-10.53-6.25-10.53-6.25-2.55-3.81.55-6c0,0-.17-.8,1.15-.64a14,14,0,0,1,4.1-1.29c1.88-.17,4.43-2.81,4.43-2.81s2.1-2.62,6.35-.18c0,0,6.57,4.36,19.56,5.95s31.07,6,30.69,17.51"/><path class="cls-14" d="M489.12,390.41s13,5.09,14.38,5a53.08,53.08,0,0,0,18.68,11.1l1.25.34-.91,3.09s-18.77-9.84-19-10.58-.25.05-.25.05S503.76,396.41,489.12,390.41Z"/><path class="cls-14" d="M531.24,408.86l-.6,2.78s4.92.22,6.9-1.43a7.52,7.52,0,0,1-.42-3.41S534.2,409.81,531.24,408.86Z"/><path class="cls-14" d="M489.66,379.54l3-2.4a4,4,0,0,1,5-1.06l2.68,1.48-2.94-1.17a3.61,3.61,0,0,0-4.35,1.29Z"/><path class="cls-14" d="M547.86,402s7.77-6.64,8.52,1.89c0,0-.5,3.26-1.88,4.69,0,0,2.1-6.18.16-7C554.66,401.53,552.6,399.56,547.86,402Z"/><path class="cls-14" d="M522.41,397s10.51-.34,8.83,6.61l-1.06,4.06S533.5,397.41,522.41,397Z"/><path class="cls-15" d="M506.28,380.22s8.34,3.06,14.7,3,26.48,6.58,26.25,12.65c0,0-7.38-9.52-26.25-11.74C521,384.16,512.05,383.37,506.28,380.22Z"/><path class="cls-16" d="M483.63,381.6s-3.4,2.83,0,5.49C483.63,387.09,481,384.77,483.63,381.6Z"/><path class="cls-16" d="M495,383.82s.81,5.9,6.26,4.24C501.3,388.06,495.72,390.49,495,383.82Z"/><path class="cls-17" d="M538.8,404s-1.26,12,9.34,6.94C548.14,411,539.07,414.92,538.8,404Z"/><path class="cls-16" d="M496.59,407.05s5.2-.43,7.19-5.15l1.31.58S501.05,407.66,496.59,407.05Z"/><path class="cls-14" d="M486.65,382.33s.24.8-1,.9C485.65,383.23,487,383.43,486.65,382.33Z"/><ellipse class="cls-23" cx="509.97" cy="384.46" rx="1.67" ry="2.39" transform="translate(13.57 786.28) rotate(-76)"/><ellipse class="cls-23" cx="522.04" cy="399.43" rx="1.67" ry="2.39" transform="translate(89.24 894.15) rotate(-86.24)"/><ellipse class="cls-23" cx="527.44" cy="408.06" rx="2.39" ry="1.67" transform="translate(-30.84 772.78) rotate(-70.88)"/><ellipse class="cls-23" cx="534.51" cy="405.25" rx="2.39" ry="1.67" transform="translate(-23.44 777.58) rotate(-70.88)"/><ellipse class="cls-23" cx="550.32" cy="405.04" rx="2.39" ry="1.67" transform="matrix(0.55, -0.84, 0.84, 0.55, -90.37, 642.6)"/><ellipse class="cls-23" cx="542.31" cy="402.44" rx="2.39" ry="1.67" transform="translate(-91.81 634.73) rotate(-56.7)"/><ellipse class="cls-23" cx="544.29" cy="408.58" rx="2.39" ry="1.67" transform="translate(-96.04 639.15) rotate(-56.7)"/><ellipse class="cls-23" cx="541.06" cy="395.37" rx="2.39" ry="1.67" transform="translate(-128.74 374.6) rotate(-34.38)"/><ellipse class="cls-23" cx="531.5" cy="395.58" rx="1.67" ry="2.39" transform="translate(-38.12 733.97) rotate(-67.37)"/><ellipse class="cls-23" cx="528.07" cy="388.72" rx="1.67" ry="2.39" transform="translate(-33.9 726.58) rotate(-67.37)"/><ellipse class="cls-23" cx="520.89" cy="392.57" rx="1.67" ry="2.39" transform="translate(43.78 837.31) rotate(-79.99)"/><ellipse class="cls-23" cx="511.43" cy="397.24" rx="1.67" ry="2.39" transform="translate(31.35 831.86) rotate(-79.99)"/><ellipse class="cls-23" cx="490.32" cy="384.87" rx="1.67" ry="2.39" transform="translate(26.1 800.85) rotate(-79.99)"/><ellipse class="cls-23" cx="512.89" cy="390.8" rx="1.67" ry="2.39" transform="matrix(0.17, -0.98, 0.98, 0.17, 38.9, 827.96)"/><ellipse class="cls-23" cx="524.22" cy="415.23" rx="2.39" ry="1.67" transform="translate(-144.53 414.95) rotate(-38.36)"/><ellipse class="cls-23" cx="504.01" cy="405.87" rx="1.79" ry="1.25" transform="translate(-143.08 400.39) rotate(-38.36)"/><ellipse class="cls-23" cx="536.63" cy="391.2" rx="1.25" ry="1.79" transform="translate(-70.47 660.33) rotate(-60)"/><ellipse class="cls-23" cx="519.54" cy="386.43" rx="1.67" ry="2.39" transform="translate(48.7 830.91) rotate(-79.99)"/><path class="cls-1" d="M982.28,405.19l32,4.78a.68.68,0,0,1,.53.78c-.47,3.49-4,10.36-11,9.41-8.09-1.11-9.08,3.15-14.83,4.33-6,1.23-13.15,5.05-20,2.67-9.89-3.4-13.74-.06-18.35.67-20.78,3.29-23.75-1.68-34.17-4.19-5.33-1.29-3.12-4.43-13.47-4.58-6-.09-8.57-5.73-8.57-9,0-9.66,27.19-17.62,60.23-17.62,21.84,0,41.9,3.48,52.49,9a.73.73,0,0,1-.24,1.35l-24.55,1A.72.72,0,0,0,982.28,405.19Z"/><path class="cls-24" d="M982.61,404.62l32,4.78a.69.69,0,0,1,.54.79c-.48,3.48-4,10.36-11,9.4-8.09-1.1-9.09,3.15-14.84,4.33-6,1.23-13.14,5.05-20,2.67-9.88-3.4-13.74-.06-18.34.67-20.79,3.29-23.75-1.67-34.18-4.19-5.32-1.29-3.12-4.43-13.47-4.58-6-.08-8.56-5.72-8.56-9,0-9.67,27.18-17.62,60.22-17.62,21.84,0,41.9,3.47,52.5,9a.73.73,0,0,1-.24,1.35l-24.55,1A.72.72,0,0,0,982.61,404.62Z"/><path class="cls-3" d="M903.3,418.49s7-.47,9.88,2.89c0,0,13.87-6.42,18.49-7.6C931.67,413.78,916.7,413.64,903.3,418.49Z"/><path class="cls-3" d="M952.2,426.87s7.87-2.59,11.16-1.65l-6.07-11.59S952.79,415.47,952.2,426.87Z"/><path class="cls-3" d="M991.22,423.34s5.95-3.6,7.13-3.6c0,0-16.59-5.17-19.12-5.33-1.25-.08,1.41,1.88-1.49,3.14Z"/><path class="cls-4" d="M961.58,408.66c18.59,1,34.4,3.67,33.87,3.49C988.87,411.79,963.06,409.6,961.58,408.66Z"/><path class="cls-4" d="M958.49,409.75c9.25,1.51,28.43,6.49,27.72,6.49C969.51,413,958.49,409.75,958.49,409.75Z"/><path class="cls-4" d="M933.12,407.24c-12.47.29-28.14,1.54-28.14,1.54C915.53,406.47,933.12,407.24,933.12,407.24Z"/><path class="cls-5" d="M990.47,401c-12.08-1.24-37.18,2.13-37.18,2.13C967,399.18,990.47,401,990.47,401Z"/><path class="cls-4" d="M941.27,410.55c23.63,2.13,34.1,6.4,32,6C968.45,416.06,941.27,410.55,941.27,410.55Z"/><path class="cls-4" d="M937.54,412.86c-7.64-.35-20.25.71-19.36.53C924.75,412.15,937.54,411.79,937.54,412.86Z"/><path class="cls-1" d="M795.9,416.13l30.47,4.55a.66.66,0,0,1,.51.75c-.45,3.32-3.81,9.87-10.45,9-7.7-1.05-8.65,3-14.13,4.12-5.7,1.17-12.52,4.82-19.09,2.55-9.41-3.25-13.08-.06-17.47.64-19.79,3.13-22.62-1.6-32.54-4-5.08-1.23-3-4.21-12.84-4.36-5.75-.08-8.15-5.45-8.15-8.58,0-9.2,25.89-16.78,57.36-16.78,20.8,0,39.91,3.31,50,8.56a.7.7,0,0,1-.23,1.29l-23.38,1A.69.69,0,0,0,795.9,416.13Z"/><path class="cls-24" d="M796.21,415.59l30.47,4.55a.65.65,0,0,1,.51.75c-.45,3.32-3.81,9.87-10.45,9-7.7-1.05-8.65,3-14.13,4.12-5.7,1.17-12.52,4.81-19.09,2.55-9.41-3.25-13.08-.06-17.47.63-19.79,3.14-22.62-1.59-32.55-4-5.07-1.23-3-4.22-12.83-4.36-5.75-.08-8.16-5.45-8.16-8.58,0-9.2,25.9-16.78,57.36-16.78,20.81,0,39.92,3.31,50,8.56a.7.7,0,0,1-.22,1.29l-23.39,1A.69.69,0,0,0,796.21,415.59Z"/><path class="cls-25" d="M720.67,428.8s6.65-.45,9.41,2.76c0,0,13.21-6.12,17.61-7.24C747.69,424.32,733.43,424.18,720.67,428.8Z"/><path class="cls-25" d="M767.24,436.78s7.5-2.46,10.64-1.57l-5.78-11S767.8,425.92,767.24,436.78Z"/><path class="cls-25" d="M804.41,433.42s5.67-3.43,6.79-3.43c0,0-15.8-4.92-18.21-5.08-1.19-.07,1.35,1.8-1.42,3Z"/><path class="cls-4" d="M776.18,419.43c17.71,1,32.76,3.5,32.26,3.33C802.18,422.42,777.59,420.34,776.18,419.43Z"/><path class="cls-4" d="M773.23,420.48c8.81,1.43,27.09,6.17,26.41,6.17C783.74,423.61,773.23,420.48,773.23,420.48Z"/><path class="cls-4" d="M749.08,418.08c-11.88.28-26.81,1.47-26.81,1.47C732.32,417.35,749.08,418.08,749.08,418.08Z"/><path class="cls-5" d="M803.7,412.1c-11.51-1.18-35.42,2-35.42,2C781.37,410.41,803.7,412.1,803.7,412.1Z"/><path class="cls-4" d="M756.84,421.24c22.5,2,32.48,6.09,30.45,5.75C782.72,426.48,756.84,421.24,756.84,421.24Z"/><path class="cls-4" d="M753.28,423.44c-7.27-.34-19.28.67-18.44.51C741.1,422.76,753.28,422.42,753.28,423.44Z"/><path class="cls-1" d="M269.18,392.1l32,4.78a.69.69,0,0,1,.54.79c-.48,3.48-4,10.36-11,9.4-8.09-1.11-9.08,3.15-14.84,4.33-6,1.23-13.14,5.05-20,2.67-9.88-3.4-13.73-.06-18.34.67-20.78,3.29-23.75-1.68-34.17-4.19-5.33-1.29-3.13-4.43-13.47-4.58-6-.08-8.57-5.72-8.57-9,0-9.66,27.19-17.61,60.22-17.61,21.84,0,41.91,3.47,52.5,9a.73.73,0,0,1-.24,1.35l-24.55,1A.72.72,0,0,0,269.18,392.1Z"/><path class="cls-24" d="M269.5,391.53l32,4.78a.68.68,0,0,1,.53.79c-.47,3.48-4,10.36-11,9.4-8.09-1.1-9.08,3.15-14.83,4.33-6,1.23-13.15,5.05-20,2.68-9.89-3.41-13.74-.07-18.35.66-20.78,3.29-23.75-1.67-34.17-4.19-5.33-1.29-3.12-4.43-13.47-4.58-6-.08-8.57-5.72-8.57-9,0-9.67,27.19-17.62,60.23-17.62,21.84,0,41.9,3.47,52.49,9a.73.73,0,0,1-.24,1.35l-24.55,1A.72.72,0,0,0,269.5,391.53Z"/><path class="cls-6" d="M190.2,405.4s7-.47,9.87,2.9c0,0,13.87-6.43,18.5-7.6C218.57,400.7,203.59,400.55,190.2,405.4Z"/><path class="cls-6" d="M239.1,413.78s7.87-2.58,11.16-1.64l-6.07-11.6S239.68,402.38,239.1,413.78Z"/><path class="cls-6" d="M278.12,410.25s5.95-3.6,7.13-3.6c0,0-16.6-5.17-19.12-5.33-1.26-.08-21.58-5.09-24.48-3.83Z"/><path class="cls-4" d="M248.48,395.57c18.59,1,34.4,3.67,33.86,3.49C275.77,398.71,250,396.52,248.48,395.57Z"/><path class="cls-4" d="M245.38,396.66c9.25,1.51,28.44,6.49,27.73,6.49C256.41,400,245.38,396.66,245.38,396.66Z"/><path class="cls-4" d="M220,394.15c-12.47.29-28.15,1.54-28.15,1.54C202.43,393.38,220,394.15,220,394.15Z"/><path class="cls-5" d="M277.37,387.87c-12.08-1.24-37.18,2.13-37.18,2.13C253.92,386.09,277.37,387.87,277.37,387.87Z"/><path class="cls-4" d="M228.17,397.46c23.62,2.13,34.1,6.4,32,6C255.34,403,228.17,397.46,228.17,397.46Z"/><path class="cls-4" d="M224.44,399.77c-7.64-.35-20.25.71-19.36.53C211.65,399.06,224.44,398.71,224.44,399.77Z"/><ellipse class="cls-19" cx="237.6" cy="398.4" rx="37.18" ry="11.92" transform="translate(-9.84 6.04) rotate(-1.43)"/><path class="cls-20" d="M273.42,369.9s5.35-4,1.2-7.68c0,0,.4-.62-1-.69a19.7,19.7,0,0,0-4.14-1.24c-1.75-.22-4.19-2.55-4.19-2.55a5.06,5.06,0,0,0-6.26-.58c-3.63,2.15-12,5.48-21.41,6.3s-29.69,5.4-29.25,17.3c0,0-6.81-3.88-8.45,2.94,0,0-.3,6.79,9.23,13.48l3.31,2.27s1.5.82.93,2.05c0,0,.6,3.65,4.56,1.36,0,0,1.39-1.31-2.76-3.66l-3-2.48a23.06,23.06,0,0,0,9.2,3.63s2,3.3,4.83.85a2.22,2.22,0,0,0-.74-2.54s1.42-1.8-1-2.5c0,0-7.16.42-8.89-2a6.27,6.27,0,0,0,3.28-2.35s4.94,1.93,8.85,1.75c0,0,1.77,5,5.37,6.49a15.59,15.59,0,0,1,2.89,1.4,19,19,0,0,0,3.85,2.12c.85.28,3.28,1.83,3.14,3.28s1.91,3.08,4.91,1.39c0,0,1.23-2.37-1.31-2.75,0,0-1.33-.44-1.53-1,0,0-4.44-3.14-4.58-4,0,0,6.63,2.43,10.86,2.51a2,2,0,0,1,1.83,1,2.32,2.32,0,0,0,3.87-.57,2.9,2.9,0,0,0-2.83-2.35l-11.68-2.84a8.87,8.87,0,0,1,2.86-.13c.55.27,4.29-.49,4.29-.49s.73,0,1,.43,3.06,1.8,2.92-1.39a4,4,0,0,0-2-1.39,13.17,13.17,0,0,0-4,.3l-10,.33s-2.71-2.76-2.71-3.71l8.3-4.43s5.81-3.16,6.19-3.11c0,0,2.92,4.51.58,4,0,0-3.06.54-.69,3.35a1.87,1.87,0,0,0,2.65-2,6.46,6.46,0,0,1,3.8.84c1.71,1.09,4.58,2.95,5.64,2.92,0,0,.71,0,1,1.17s3.56,1.6,3.8-.33c0,0,.69-1-4-2.71l-3.58-2.09s1.52.56,8.57.85c0,0,1.27,2.4,3.16.78,0,0,1.24-1.87-1.75-3.11a27.52,27.52,0,0,0-5.18-.53c-1.84.13-7.48-.16-9.17-5.54,0,0,2.6-2.46,4.2-4.28s6.81-3.75,6.81-3.75A45.08,45.08,0,0,0,273.42,369.9Z"/><circle class="cls-21" cx="257.85" cy="365.18" r="3.85"/><path class="cls-9" d="M260.62,364.23a2.66,2.66,0,0,0-3.39-.67,3.27,3.27,0,0,0-2.14,3.05,3.33,3.33,0,0,0,3.43.35A4,4,0,0,0,260.62,364.23Z"/><circle class="cls-10" cx="256.03" cy="364.61" r="0.91"/><ellipse class="cls-9" cx="271.85" cy="363.88" rx="0.9" ry="0.55"/><path class="cls-11" d="M244.21,381.77a7.2,7.2,0,0,1-3.11,2,12.22,12.22,0,0,1-3.69.68,16.42,16.42,0,0,1-3.71-.31c-.61-.13-1.21-.29-1.8-.46s-1.16-.42-1.72-.67c.62,0,1.22.11,1.82.19l1.81.17a32.6,32.6,0,0,0,3.56.08,18.82,18.82,0,0,0,3.51-.43A11.61,11.61,0,0,0,244.21,381.77Z"/><path class="cls-22" d="M239,377.59s-10.56-.79-13,3.11c0,0-1.39,1.67,0,6.14l2.05,7.23s1.44,4.75,4.64,5.68c0,0,3.46,1.92,4.55,2.57,0,0,6.2,2.31,5.9,4.88,0,0,.13,2.67,4.25,1.47,0,0,2.24-1.42-.2-3a4.16,4.16,0,0,1-1.73-.75l-5.2-4.46s3.45,1.75,11.94,2.67a3,3,0,0,1,1.07,1.1,2.27,2.27,0,0,0,3.35.08,1.93,1.93,0,0,0-.59-2.58,10.65,10.65,0,0,0-3.52-1l-10.93-2.57a11.73,11.73,0,0,1-3.78-2.08,12.43,12.43,0,0,1-3.86-5.4s-1.37-4.74-1.13-7"/><path class="cls-22" d="M237.81,396s9.45,0,10.47-.52,5.48-.63,5.44,2.11c0,0-.31,2.39-3.84.06a3.06,3.06,0,0,0-1.67.42l-6.13.1"/><path class="cls-11" d="M274.36,369a11.25,11.25,0,0,0-3.08.63c-.94.37-1.91.92-2.87,1.36-1.93.92-3.91,1.74-5.91,2.49a38.58,38.58,0,0,1-6.19,1.81,11.46,11.46,0,0,1-3.27.23,1.48,1.48,0,0,1-1.27-2.43,1.93,1.93,0,0,0,0,1.48,1.52,1.52,0,0,0,1.29.46,11.1,11.1,0,0,0,3-.49c2-.56,4-1.26,6-2s4-1.51,6-2.27c1-.36,1.94-.8,3-1.11A9.8,9.8,0,0,1,274.36,369Z"/><path class="cls-11" d="M256.84,360.37a6.39,6.39,0,0,0-3.47,2.53,4.1,4.1,0,0,0-.61,2,6.12,6.12,0,0,0,0,1c0,.35.12.7.17,1.05v0a5.58,5.58,0,0,0,.95,1.69,4.63,4.63,0,0,0,1.51,1.24,5.37,5.37,0,0,0,1.94.56,9.3,9.3,0,0,0,1.06,0l1.07-.09c-.34.12-.68.25-1,.35a9.91,9.91,0,0,1-1.09.18,5,5,0,0,1-2.25-.34,4.89,4.89,0,0,1-1.91-1.33,6.12,6.12,0,0,1-1.2-2v0c-.06-.39-.13-.79-.16-1.19a6.33,6.33,0,0,1,0-1.23,4.52,4.52,0,0,1,.91-2.28,5.07,5.07,0,0,1,1.87-1.52A6.38,6.38,0,0,1,256.84,360.37Z"/><path class="cls-13" d="M211.73,377.56s8,.8,7.86,11.06c0,0-.44,8.95-10.86,4.09,0,0-2.35-1.15-5.89-6.06"/><path class="cls-22" d="M212.44,386.3s-.27-4.67-7.09-6.69c0,0-7-.38-4.7,7.48,0,0,1.86,6.33,11.79,12.36a1.68,1.68,0,0,1,.91,1.77s-.18,3.28,4.08,2c0,0,1.67-.83-.29-2.76l-5-3.74s6.17,3.13,8.51,3.49a2.57,2.57,0,0,1,1.29,1.16c.25.73,5.31,2,4.15-2.15,0,0-.85-1.46-3.31-1.19s-8.76-2.51-9.19-3.49"/><path class="cls-22" d="M225.59,398.55s1.24-1.63-1.14-2.51c0,0-6.5.57-8.88-1.83"/><path class="cls-11" d="M211.57,377.67a7.39,7.39,0,0,1,3.87,1,8.3,8.3,0,0,1,2.89,2.88,12,12,0,0,1,1.47,3.82,13.9,13.9,0,0,1,.28,2l.06,1c0,.35-.07.7-.11,1.05a6.14,6.14,0,0,1-1.86,3.81,6.39,6.39,0,0,1-3.94,1.52,9,9,0,0,1-7.41-3.17l0,0a28.63,28.63,0,0,1-2.15-2.39c-.34-.42-.66-.85-1-1.29a5.52,5.52,0,0,1-.73-1.43,5.82,5.82,0,0,0,.89,1.31c.34.41.69.8,1.06,1.18.75.75,1.52,1.49,2.3,2.19h0l0,0a7.43,7.43,0,0,0,3.16,2.06,9,9,0,0,0,3.72.54,5.56,5.56,0,0,0,3.35-1.32,5.26,5.26,0,0,0,1.56-3.21c0-.31.09-.62.11-.93l0-1a14.09,14.09,0,0,0-.21-1.92,12.62,12.62,0,0,0-1.2-3.65,8.28,8.28,0,0,0-2.52-2.87A7.75,7.75,0,0,0,211.57,377.67Z"/><path class="cls-22" d="M254.12,382.29s2.31,5,6.1,5.18a57.6,57.6,0,0,0,6.07.44c3.09,0,5.2,1.78,3.53,4a2.12,2.12,0,0,1-2.76-1.18s-7.43-.05-9.1-1.07l7.68,4.25s1.56,2.15-2.22,2a1.7,1.7,0,0,1-1.39-1.63,3.23,3.23,0,0,0-1.45-.55l-6.15-3.39s-2.33-.62-2.9-.14c0,0,.32,2.58-2.05,2,0,0-3.42-2.09.35-3.46,0,0,1,.33,1-.94l-1.64-2.87"/><path class="cls-22" d="M218.85,391.86a17.94,17.94,0,0,0,8.85,1.75"/><path class="cls-22" d="M234.72,392.31s6.18-3.07,8.07-4.27,9.94-4.91,11.87-6.27,4.34-6,10-7.29,10.54-6.25,10.54-6.25,2.55-3.81-.56-6c0,0,.18-.8-1.15-.65a14.16,14.16,0,0,0-4.09-1.28c-1.88-.18-4.43-2.81-4.43-2.81s-2.11-2.62-6.35-.18c0,0-6.57,4.35-19.56,5.95s-31.07,6-30.69,17.51"/><path class="cls-14" d="M268.38,371.76s-13,5.09-14.38,5a53,53,0,0,1-18.68,11.09l-1.26.35.92,3.09s18.77-9.84,19-10.58.25.05.25.05S253.74,377.77,268.38,371.76Z"/><path class="cls-14" d="M226.26,390.22l.6,2.78s-4.92.21-6.91-1.44a7.31,7.31,0,0,0,.42-3.4S223.3,391.17,226.26,390.22Z"/><path class="cls-14" d="M267.83,360.9l-3-2.41a4,4,0,0,0-5-1.05l-2.69,1.48,2.95-1.17a3.6,3.6,0,0,1,4.34,1.29Z"/><path class="cls-14" d="M209.64,383.32s-7.78-6.64-8.52,1.88c0,0,.5,3.26,1.88,4.69,0,0-2.11-6.17-.16-7C202.84,382.89,204.89,380.91,209.64,383.32Z"/><path class="cls-14" d="M235.09,378.4s-10.51-.35-8.83,6.6l1.05,4.07S224,378.77,235.09,378.4Z"/><path class="cls-15" d="M251.22,361.58s-8.34,3.06-14.7,3-26.48,6.58-26.25,12.64c0,0,7.38-9.51,26.25-11.73C236.52,365.52,245.44,364.73,251.22,361.58Z"/><path class="cls-16" d="M273.87,363s3.4,2.83,0,5.49C273.87,368.45,276.47,366.13,273.87,363Z"/><path class="cls-16" d="M262.46,365.18s-.81,5.9-6.26,4.24C256.2,369.42,261.78,371.85,262.46,365.18Z"/><path class="cls-17" d="M218.7,385.37s1.25,12-9.35,6.94C209.35,392.31,218.43,396.28,218.7,385.37Z"/><path class="cls-16" d="M260.9,388.41s-5.19-.43-7.18-5.15l-1.32.58S256.44,389,260.9,388.41Z"/><path class="cls-14" d="M270.85,363.68s-.25.81,1,.91C271.85,364.59,270.48,364.79,270.85,363.68Z"/><ellipse class="cls-23" cx="219.59" cy="374.68" rx="1.09" ry="1.25"/><ellipse class="cls-23" cx="230.61" cy="374.06" rx="1.09" ry="1.25"/><ellipse class="cls-23" cx="254.52" cy="372.67" rx="1.09" ry="1.25"/><ellipse class="cls-23" cx="265.47" cy="364.63" rx="1.09" ry="1.25"/><ellipse class="cls-23" cx="246.34" cy="366.5" rx="1.09" ry="1.25"/><ellipse class="cls-23" cx="240.66" cy="372.6" rx="1.09" ry="1.25"/><ellipse class="cls-23" cx="213.83" cy="389.86" rx="1.09" ry="1.25"/><ellipse class="cls-23" cx="223.12" cy="386.26" rx="1.09" ry="1.25"/><ellipse class="cls-23" cx="212.45" cy="380.5" rx="1.09" ry="1.25"/><ellipse class="cls-23" cx="205.51" cy="384.73" rx="1.09" ry="1.25"/><ellipse class="cls-23" cx="235.53" cy="367.96" rx="1.09" ry="1.25"/><ellipse class="cls-23" cx="243.36" cy="378.42" rx="1.09" ry="1.25"/><ellipse class="cls-23" cx="228.87" cy="386.05" rx="1.09" ry="1.25"/><ellipse class="cls-23" cx="234.14" cy="396.38" rx="1.09" ry="1.25"/><ellipse class="cls-19" cx="665.43" cy="385.76" rx="10.13" ry="31.59" transform="translate(263.22 1041.39) rotate(-88.57)"/><path class="cls-20" d="M635,361.54s-4.54-3.43-1-6.52c0,0-.34-.53.87-.59a17,17,0,0,1,3.52-1.05c1.49-.18,3.56-2.16,3.56-2.16a4.31,4.31,0,0,1,5.32-.5,47.49,47.49,0,0,0,18.19,5.35c8,.7,25.23,4.59,24.86,14.7,0,0,5.78-3.29,7.18,2.5,0,0,.25,5.77-7.85,11.46l-2.81,1.92s-1.28.7-.79,1.74c0,0-.51,3.11-3.87,1.16,0,0-1.19-1.11,2.34-3.11l2.57-2.11a19.58,19.58,0,0,1-7.81,3.09s-1.67,2.8-4.11.72a1.88,1.88,0,0,1,.63-2.16s-1.2-1.53.82-2.12c0,0,6.09.36,7.56-1.66a5.34,5.34,0,0,1-2.79-2,22.52,22.52,0,0,1-7.51,1.48s-1.51,4.24-4.57,5.51a13.86,13.86,0,0,0-2.46,1.19,15.51,15.51,0,0,1-3.27,1.8c-.72.24-2.78,1.56-2.66,2.79s-1.63,2.62-4.18,1.19c0,0-1-2,1.12-2.35,0,0,1.13-.37,1.29-.85,0,0,3.78-2.67,3.9-3.39,0,0-5.64,2.06-9.23,2.13a1.68,1.68,0,0,0-1.55.86,2,2,0,0,1-3.3-.49,2.47,2.47,0,0,1,2.42-2l9.92-2.41a7.72,7.72,0,0,0-2.43-.12c-.47.24-3.64-.41-3.64-.41s-.63,0-.82.37-2.59,1.53-2.48-1.19a3.46,3.46,0,0,1,1.72-1.18,11.35,11.35,0,0,1,3.41.26l8.51.28s2.29-2.35,2.29-3.16l-7.05-3.75s-4.94-2.69-5.26-2.65c0,0-2.48,3.83-.49,3.39,0,0,2.6.46.58,2.85a1.59,1.59,0,0,1-2.25-1.72,5.55,5.55,0,0,0-3.22.72c-1.46.93-3.89,2.51-4.8,2.48,0,0-.6,0-.86,1s-3,1.35-3.22-.29c0,0-.59-.85,3.37-2.3l3.05-1.78s-1.3.48-7.29.73c0,0-1.08,2-2.68.66,0,0-1.06-1.59,1.48-2.64a23.58,23.58,0,0,1,4.4-.45c1.57.11,6.36-.14,7.79-4.71,0,0-2.21-2.09-3.57-3.63s-5.78-3.19-5.78-3.19A38.25,38.25,0,0,1,635,361.54Z"/><circle class="cls-21" cx="648.22" cy="357.54" r="3.27"/><path class="cls-9" d="M645.87,356.73a2.27,2.27,0,0,1,2.89-.57,2.78,2.78,0,0,1,1.81,2.59,2.84,2.84,0,0,1-2.91.3A3.45,3.45,0,0,1,645.87,356.73Z"/><circle class="cls-10" cx="649.77" cy="357.05" r="0.77"/><ellipse class="cls-9" cx="636.33" cy="356.43" rx="0.77" ry="0.47"/><path class="cls-11" d="M659.82,371.63a10.46,10.46,0,0,0,2.84,1,16.49,16.49,0,0,0,3,.35c1,.06,2,0,3-.06l1.53-.12c.51,0,1-.11,1.56-.12-.48.23-1,.41-1.46.6s-1,.3-1.52.42a14,14,0,0,1-3.17.28,10.59,10.59,0,0,1-3.15-.6A5.92,5.92,0,0,1,659.82,371.63Z"/><path class="cls-22" d="M664.25,368.08s9-.67,11.08,2.64c0,0,1.18,1.42,0,5.22l-1.74,6.15s-1.23,4-3.94,4.82c0,0-2.94,1.63-3.87,2.18,0,0-5.27,2-5,4.15,0,0-.12,2.27-3.62,1.25,0,0-1.9-1.21.18-2.55a3.54,3.54,0,0,0,1.47-.64l4.42-3.79s-2.94,1.48-10.15,2.27a2.57,2.57,0,0,0-.91.93,1.91,1.91,0,0,1-2.84.07,1.64,1.64,0,0,1,.49-2.19,9,9,0,0,1,3-.87l9.28-2.18a9.79,9.79,0,0,0,3.21-1.77,10.59,10.59,0,0,0,3.28-4.58s1.17-4,1-6"/><path class="cls-22" d="M665.25,383.73s-8,0-8.89-.44-4.66-.54-4.63,1.79c0,0,.27,2,3.27.05a2.6,2.6,0,0,1,1.42.36l5.21.08"/><path class="cls-11" d="M634.2,360.81a8.5,8.5,0,0,1,2.75.11c.93.26,1.73.62,2.59.93,1.69.63,3.36,1.29,5.05,1.91s3.38,1.23,5.1,1.7a10.19,10.19,0,0,0,2.58.44,1.23,1.23,0,0,0,1.08-.37,1.64,1.64,0,0,0,0-1.24,1.27,1.27,0,0,1-1.08,2.1,8.94,8.94,0,0,1-2.79-.17,33.54,33.54,0,0,1-5.27-1.52c-1.71-.65-3.38-1.35-5-2.14-.82-.37-1.64-.85-2.42-1.17A9.9,9.9,0,0,0,634.2,360.81Z"/><path class="cls-11" d="M649.09,353.45a5.32,5.32,0,0,1,1.93.45,4.28,4.28,0,0,1,1.62,1.29,4,4,0,0,1,.79,2,6.64,6.64,0,0,1-.1,2.09v0h0a5.22,5.22,0,0,1-1,1.75,4.1,4.1,0,0,1-1.65,1.13,4.16,4.16,0,0,1-1.93.27,5.9,5.9,0,0,1-1.82-.48c.31,0,.62,0,.92.06a8.67,8.67,0,0,0,.89-.06,4.37,4.37,0,0,0,1.62-.49,3.87,3.87,0,0,0,1.26-1.05,4.61,4.61,0,0,0,.79-1.41v0c0-.29.11-.59.14-.88a5.17,5.17,0,0,0,0-.88,3.53,3.53,0,0,0-.5-1.63A5.52,5.52,0,0,0,649.09,353.45Z"/><path class="cls-13" d="M687.41,368.06s-6.77.67-6.68,9.39c0,0,.37,7.6,9.23,3.48,0,0,2-1,5-5.15"/><path class="cls-22" d="M686.81,375.48s.23-4,6-5.68c0,0,5.93-.33,4,6.35,0,0-1.57,5.38-10,10.5a1.46,1.46,0,0,0-.78,1.51s.16,2.78-3.46,1.7c0,0-1.42-.71.25-2.35l4.24-3.18s-5.23,2.66-7.23,3a2.2,2.2,0,0,0-1.09,1c-.22.62-4.51,1.7-3.53-1.82a2.76,2.76,0,0,1,2.81-1c2.09.23,7.44-2.14,7.81-3"/><path class="cls-22" d="M675.64,385.89s-1.06-1.39,1-2.14c0,0,5.51.49,7.54-1.55"/><path class="cls-11" d="M687.55,368.15a6.73,6.73,0,0,0-5.2,3.61,10.36,10.36,0,0,0-1,3.09,11.28,11.28,0,0,0-.17,1.62l0,.81c0,.26.06.52.09.78a4.43,4.43,0,0,0,1.3,2.68,4.65,4.65,0,0,0,2.8,1.11,7.61,7.61,0,0,0,3.13-.44,6.45,6.45,0,0,0,2.68-1.72l0,0h0c.66-.6,1.32-1.22,2-1.85.32-.32.62-.65.91-1a5.25,5.25,0,0,0,.77-1.11,8.19,8.19,0,0,1-1.42,2.33,27.19,27.19,0,0,1-1.82,2l0,0a7.69,7.69,0,0,1-6.32,2.73,5.51,5.51,0,0,1-3.4-1.31,5.25,5.25,0,0,1-1.6-3.28c0-.3-.08-.6-.09-.9l0-.88a12.56,12.56,0,0,1,.24-1.74,10.48,10.48,0,0,1,1.27-3.26,7.18,7.18,0,0,1,2.48-2.45A6.19,6.19,0,0,1,687.55,368.15Z"/><path class="cls-22" d="M651.39,372.07s-2,4.28-5.17,4.4a50.17,50.17,0,0,1-5.17.38c-2.62,0-4.42,1.51-3,3.36a1.8,1.8,0,0,0,2.34-1s6.31,0,7.73-.91l-6.52,3.62s-1.33,1.82,1.89,1.66a1.43,1.43,0,0,0,1.17-1.38,2.74,2.74,0,0,1,1.24-.47l5.22-2.88s2-.52,2.46-.12c0,0-.26,2.2,1.75,1.73,0,0,2.9-1.78-.3-2.94,0,0-.85.28-.85-.8l1.39-2.44"/><path class="cls-22" d="M681.36,380.21a15.25,15.25,0,0,1-7.51,1.48"/><path class="cls-22" d="M667.88,380.59S662.62,378,661,377s-8.44-4.17-10.09-5.33-3.68-5.13-8.48-6.19-9-5.31-9-5.31-2.16-3.24.47-5.11c0,0-.14-.68,1-.55a11.92,11.92,0,0,1,3.48-1.09c1.6-.15,3.77-2.39,3.77-2.39s1.78-2.22,5.39-.15c0,0,5.58,3.7,16.62,5.05s26.4,5.1,26.08,14.88"/><path class="cls-14" d="M639.28,363.13s11,4.32,12.22,4.23a44.88,44.88,0,0,0,15.87,9.42l1.07.3-.78,2.62s-15.95-8.36-16.16-9-.22.05-.22.05S651.72,368.23,639.28,363.13Z"/><path class="cls-14" d="M675.07,378.81l-.51,2.36s4.18.19,5.86-1.22a6.28,6.28,0,0,1-.35-2.89S677.58,379.62,675.07,378.81Z"/><path class="cls-14" d="M639.74,353.9l2.58-2a3.35,3.35,0,0,1,4.27-.9l2.29,1.26-2.5-1a3.07,3.07,0,0,0-3.7,1.1Z"/><path class="cls-14" d="M689.19,372.94s6.61-5.63,7.24,1.61c0,0-.43,2.77-1.6,4,0,0,1.79-5.24.14-5.95C695,372.58,693.22,370.9,689.19,372.94Z"/><path class="cls-14" d="M667.56,368.77s8.94-.3,7.51,5.61l-.9,3.45S677,369.08,667.56,368.77Z"/><path class="cls-15" d="M653.86,354.48s7.09,2.6,12.49,2.57,22.5,5.59,22.3,10.74c0,0-6.27-8.08-22.3-10C666.35,357.82,658.77,357.15,653.86,354.48Z"/><path class="cls-16" d="M634.62,355.65s-2.89,2.4,0,4.66C634.62,360.31,632.41,358.34,634.62,355.65Z"/><path class="cls-16" d="M644.31,357.54s.69,5,5.32,3.6C649.63,361.14,644.89,363.2,644.31,357.54Z"/><path class="cls-17" d="M681.49,374.69s-1.07,10.21,7.94,5.9C689.43,380.59,681.72,384,681.49,374.69Z"/><path class="cls-16" d="M645.63,377.27s4.42-.36,6.1-4.37l1.13.49S649.42,377.79,645.63,377.27Z"/><path class="cls-14" d="M637.18,356.27s.21.68-.85.76C636.33,357,637.5,357.2,637.18,356.27Z"/><ellipse class="cls-23" cx="680.74" cy="365.61" rx="0.93" ry="1.06"/><ellipse class="cls-23" cx="671.37" cy="365.08" rx="0.93" ry="1.06"/><ellipse class="cls-23" cx="651.05" cy="363.9" rx="0.93" ry="1.06"/><ellipse class="cls-23" cx="641.75" cy="357.07" rx="0.93" ry="1.06"/><ellipse class="cls-23" cx="658" cy="358.66" rx="0.93" ry="1.06"/><ellipse class="cls-23" cx="662.83" cy="363.84" rx="0.93" ry="1.06"/><ellipse class="cls-23" cx="685.63" cy="378.51" rx="0.93" ry="1.06"/><ellipse class="cls-23" cx="677.73" cy="375.44" rx="0.93" ry="1.06"/><ellipse class="cls-23" cx="686.8" cy="370.56" rx="0.93" ry="1.06"/><ellipse class="cls-23" cx="692.69" cy="374.15" rx="0.93" ry="1.06"/><ellipse class="cls-23" cx="667.19" cy="359.9" rx="0.93" ry="1.06"/><ellipse class="cls-23" cx="660.54" cy="368.79" rx="0.93" ry="1.06"/><ellipse class="cls-23" cx="672.84" cy="375.27" rx="0.93" ry="1.06"/><ellipse class="cls-23" cx="668.37" cy="384.04" rx="0.93" ry="1.06"/><path class="cls-1" d="M373,375.07l-23.31,3.47a.5.5,0,0,0-.39.58c.35,2.54,2.92,7.55,8,6.85,5.89-.8,6.62,2.29,10.81,3.15,4.36.9,9.58,3.69,14.6,1.95,7.2-2.48,10,0,13.36.49,15.15,2.4,17.31-1.22,24.9-3.06,3.88-.93,2.28-3.22,9.81-3.33,4.4-.06,6.24-4.17,6.24-6.56,0-7-19.8-12.84-43.87-12.84-15.91,0-30.53,2.53-38.24,6.55a.53.53,0,0,0,.17,1L373,374C373.53,374.06,373.57,375,373,375.07Z"/><path class="cls-24" d="M372.78,374.65l-23.31,3.48a.52.52,0,0,0-.39.58c.35,2.53,2.92,7.54,8,6.85,5.89-.81,6.61,2.29,10.81,3.15,4.36.89,9.57,3.68,14.6,2,7.19-2.48,10-.05,13.36.48,15.14,2.4,17.3-1.22,24.89-3.05,3.89-.94,2.28-3.22,9.82-3.33,4.4-.07,6.24-4.18,6.24-6.57,0-7-19.81-12.83-43.88-12.83-15.91,0-30.52,2.53-38.24,6.54a.54.54,0,0,0,.17,1l17.89.73A.53.53,0,0,1,372.78,374.65Z"/><path class="cls-6" d="M430.56,384.76s-5.08-.35-7.2,2.1c0,0-10.1-4.68-13.47-5.53C409.89,381.33,420.8,381.22,430.56,384.76Z"/><path class="cls-6" d="M394.94,390.86s-5.74-1.88-8.14-1.2l4.43-8.45S394.51,382.55,394.94,390.86Z"/><path class="cls-6" d="M366.51,388.29s-4.34-2.63-5.2-2.63c0,0,12.09-3.76,13.93-3.88.92,0,15.73-3.7,17.84-2.79Z"/><path class="cls-4" d="M388.1,377.59c-13.54.73-25.06,2.67-24.67,2.55C368.22,379.88,387,378.28,388.1,377.59Z"/><path class="cls-4" d="M390.36,378.39c-6.74,1.1-20.72,4.72-20.2,4.72C382.32,380.78,390.36,378.39,390.36,378.39Z"/><path class="cls-4" d="M408.83,376.56c9.09.21,20.51,1.12,20.51,1.12C421.65,376,408.83,376.56,408.83,376.56Z"/><path class="cls-5" d="M367.05,372c8.8-.9,27.09,1.56,27.09,1.56C384.13,370.69,367.05,372,367.05,372Z"/><path class="cls-4" d="M402.9,379c-17.21,1.55-24.85,4.66-23.3,4.4C383.1,383,402.9,379,402.9,379Z"/><path class="cls-4" d="M405.61,380.65c5.57-.26,14.76.52,14.11.39C414.93,380.14,405.61,379.88,405.61,380.65Z"/><ellipse class="cls-19" cx="396.02" cy="379.66" rx="8.69" ry="27.09" transform="translate(6.63 766.11) rotate(-88.57)"/><path class="cls-20" d="M369.93,358.89s-3.9-2.94-.88-5.6c0,0-.29-.45.74-.5a14.39,14.39,0,0,1,3-.9c1.27-.16,3.05-1.86,3.05-1.86a3.68,3.68,0,0,1,4.55-.42A41.19,41.19,0,0,0,396,354.2c6.84.59,21.63,3.93,21.32,12.6,0,0,5-2.82,6.15,2.15,0,0,.22,4.94-6.72,9.82l-2.42,1.65s-1.09.59-.67,1.49c0,0-.44,2.66-3.32,1,0,0-1-.95,2-2.66l2.2-1.81a16.66,16.66,0,0,1-6.7,2.64s-1.43,2.41-3.52.62a1.62,1.62,0,0,1,.54-1.85s-1-1.31.71-1.82c0,0,5.22.31,6.48-1.42a4.62,4.62,0,0,1-2.4-1.71,19.26,19.26,0,0,1-6.44,1.27s-1.29,3.64-3.92,4.73a11.64,11.64,0,0,0-2.1,1,12.92,12.92,0,0,1-2.81,1.54c-.61.21-2.38,1.34-2.28,2.4s-1.39,2.24-3.58,1c0,0-.9-1.73.95-2,0,0,1-.32,1.12-.73,0,0,3.24-2.29,3.34-2.91,0,0-4.83,1.77-7.92,1.83a1.43,1.43,0,0,0-1.33.74,1.69,1.69,0,0,1-2.82-.42,2.12,2.12,0,0,1,2.07-1.71l8.51-2.07a6.89,6.89,0,0,0-2.09-.1,13.44,13.44,0,0,1-3.12-.35s-.54,0-.7.31-2.23,1.32-2.13-1a2.94,2.94,0,0,1,1.47-1,9.59,9.59,0,0,1,2.93.22l7.29.23s2-2,2-2.7l-6-3.22s-4.24-2.31-4.51-2.27c0,0-2.13,3.28-.42,2.91,0,0,2.22.39.49,2.44a1.36,1.36,0,0,1-1.92-1.47,4.71,4.71,0,0,0-2.77.62c-1.25.79-3.34,2.14-4.11,2.12,0,0-.52,0-.74.86s-2.59,1.16-2.76-.25c0,0-.51-.73,2.89-2l2.61-1.53s-1.11.41-6.24.63c0,0-.93,1.75-2.31.57,0,0-.9-1.37,1.27-2.27a19.25,19.25,0,0,1,3.78-.38c1.34.09,5.45-.12,6.68-4,0,0-1.9-1.79-3.06-3.11s-5-2.73-5-2.73A33,33,0,0,1,369.93,358.89Z"/><circle class="cls-21" cx="381.27" cy="355.45" r="2.81"/><path class="cls-9" d="M379.26,354.76a1.94,1.94,0,0,1,2.47-.49,2.38,2.38,0,0,1,1.55,2.23,2.44,2.44,0,0,1-2.5.25A3,3,0,0,1,379.26,354.76Z"/><circle class="cls-10" cx="382.6" cy="355.04" r="0.66"/><ellipse class="cls-9" cx="371.07" cy="354.51" rx="0.66" ry="0.4"/><path class="cls-11" d="M391.21,367.54a10,10,0,0,0,2.46.84,14.29,14.29,0,0,0,2.53.27c.85.06,1.71,0,2.58,0,.43,0,.87-.07,1.31-.09s.88-.07,1.34-.07c-.4.21-.82.38-1.24.55s-.86.27-1.31.38a11.25,11.25,0,0,1-2.72.25,8.22,8.22,0,0,1-2.72-.53A4.94,4.94,0,0,1,391.21,367.54Z"/><path class="cls-22" d="M395,364.49s7.69-.57,9.5,2.27c0,0,1,1.21,0,4.47L403,376.5s-1,3.46-3.38,4.14c0,0-2.52,1.4-3.32,1.87,0,0-4.51,1.69-4.29,3.55,0,0-.1,1.95-3.1,1.08,0,0-1.63-1,.15-2.19a3.07,3.07,0,0,0,1.26-.55l3.79-3.25s-2.52,1.28-8.7,2a2.2,2.2,0,0,0-.79.8,1.64,1.64,0,0,1-2.43.06,1.41,1.41,0,0,1,.42-1.88,7.86,7.86,0,0,1,2.57-.75l8-1.87a8.43,8.43,0,0,0,2.75-1.51,9.08,9.08,0,0,0,2.82-3.93,19.78,19.78,0,0,0,.82-5.12"/><path class="cls-22" d="M395.87,377.91s-6.88,0-7.63-.37-4-.47-4,1.53c0,0,.23,1.74,2.8,0a2.26,2.26,0,0,1,1.22.31l4.46.07"/><path class="cls-11" d="M369.24,358.26a7,7,0,0,1,2.37.06,23.34,23.34,0,0,1,2.23.78l4.34,1.62c1.45.54,2.9,1.06,4.36,1.47a9,9,0,0,0,2.2.4,1,1,0,0,0,.91-.29,1.39,1.39,0,0,0,.05-1.05,1.34,1.34,0,0,1,.18,1.18,1.4,1.4,0,0,1-1.1.65,7.45,7.45,0,0,1-2.41-.13,27.66,27.66,0,0,1-4.53-1.29,46.77,46.77,0,0,1-4.3-1.85c-.7-.32-1.41-.74-2.07-1A8.55,8.55,0,0,0,369.24,358.26Z"/><path class="cls-11" d="M382,352a4.08,4.08,0,0,1,1.67.36,3.6,3.6,0,0,1,1.42,1.1,3.45,3.45,0,0,1,.7,1.71,5.76,5.76,0,0,1-.08,1.81v0h0a4.46,4.46,0,0,1-.91,1.52,3.66,3.66,0,0,1-3.12,1.19,4.76,4.76,0,0,1-1.56-.44,8.82,8.82,0,0,0,1.55,0,3.67,3.67,0,0,0,1.37-.43,3.22,3.22,0,0,0,1-.89,4,4,0,0,0,.66-1.19v0a5.35,5.35,0,0,0,.12-1.48,3.16,3.16,0,0,0-.41-1.38A4.87,4.87,0,0,0,382,352Z"/><path class="cls-13" d="M414.87,364.47s-5.8.58-5.72,8.06c0,0,.31,6.52,7.91,3,0,0,1.71-.84,4.29-4.42"/><path class="cls-22" d="M414.35,370.83s.2-3.39,5.17-4.86c0,0,5.09-.28,3.42,5.44,0,0-1.35,4.61-8.59,9a1.25,1.25,0,0,0-.66,1.29s.13,2.39-3,1.46c0,0-1.22-.61.21-2l3.64-2.72s-4.49,2.28-6.2,2.54c0,0-.75.32-.93.85s-3.87,1.45-3-1.57a2.38,2.38,0,0,1,2.41-.87c1.79.2,6.38-1.82,6.7-2.54"/><path class="cls-22" d="M404.78,379.76s-.91-1.18.83-1.83c0,0,4.73.42,6.47-1.33"/><path class="cls-11" d="M415,364.55a5.78,5.78,0,0,0-4.42,3.12,9.93,9.93,0,0,0-.92,5.37,3.76,3.76,0,0,0,1.1,2.26,3.93,3.93,0,0,0,2.36.93,6.55,6.55,0,0,0,2.66-.36,5.37,5.37,0,0,0,2.28-1.45l0,0h0c.57-.51,1.14-1,1.69-1.57.28-.27.54-.55.8-.84a4.48,4.48,0,0,0,.66-1,6.8,6.8,0,0,1-1.2,2,18.52,18.52,0,0,1-1.55,1.77l0,0a6.66,6.66,0,0,1-5.47,2.39,4.83,4.83,0,0,1-3-1.14,4.55,4.55,0,0,1-1.39-2.86c0-.26-.07-.52-.08-.78l0-.76a10.63,10.63,0,0,1,.22-1.5,8.51,8.51,0,0,1,1.11-2.81,6,6,0,0,1,2.15-2.1A5.34,5.34,0,0,1,415,364.55Z"/><path class="cls-22" d="M384,367.91s-1.68,3.67-4.44,3.78a42.33,42.33,0,0,1-4.43.32c-2.25,0-3.79,1.3-2.57,2.89a1.57,1.57,0,0,0,2-.86s5.4,0,6.62-.79l-5.59,3.11s-1.14,1.56,1.62,1.43a1.23,1.23,0,0,0,1-1.19,2.4,2.4,0,0,1,1.06-.4l4.48-2.47s1.71-.45,2.11-.1c0,0-.22,1.88,1.5,1.48,0,0,2.49-1.52-.25-2.52,0,0-.73.24-.73-.69l1.19-2.09"/><path class="cls-22" d="M409.68,374.89a13.08,13.08,0,0,1-6.44,1.27"/><path class="cls-22" d="M398.12,375.22s-4.5-2.24-5.87-3.11-7.25-3.58-8.66-4.57-3.15-4.4-7.27-5.31-7.67-4.56-7.67-4.56-1.86-2.77.4-4.38c0,0-.12-.58.84-.47a10.31,10.31,0,0,1,3-.93c1.37-.13,3.23-2.05,3.23-2.05s1.53-1.91,4.63-.13c0,0,4.78,3.17,14.25,4.33s22.63,4.37,22.36,12.76"/><path class="cls-14" d="M373.6,360.25s9.45,3.71,10.48,3.62A38.51,38.51,0,0,0,397.69,372l.91.25-.66,2.25s-13.68-7.17-13.86-7.71-.19,0-.19,0S384.27,364.62,373.6,360.25Z"/><path class="cls-14" d="M404.29,373.69l-.44,2s3.59.16,5-1.05a5.35,5.35,0,0,1-.3-2.48S406.44,374.39,404.29,373.69Z"/><path class="cls-14" d="M374,352.33l2.21-1.75a2.89,2.89,0,0,1,3.66-.77l2,1.08-2.14-.85a2.63,2.63,0,0,0-3.17.94Z"/><path class="cls-14" d="M416.39,368.66s5.67-4.83,6.21,1.38a7.76,7.76,0,0,1-1.37,3.42s1.54-4.5.12-5.11C421.35,368.35,419.85,366.91,416.39,368.66Z"/><path class="cls-14" d="M397.85,365.08s7.66-.25,6.44,4.81l-.77,3S405.94,365.35,397.85,365.08Z"/><path class="cls-15" d="M386.1,352.83s6.08,2.23,10.71,2.21,19.29,4.79,19.13,9.21c0,0-5.38-6.93-19.13-8.55C396.81,355.7,390.31,355.12,386.1,352.83Z"/><path class="cls-16" d="M369.6,353.83s-2.48,2.06,0,4A2.79,2.79,0,0,1,369.6,353.83Z"/><path class="cls-16" d="M377.92,355.45s.59,4.3,4.56,3.09C382.48,358.54,378.41,360.31,377.92,355.45Z"/><path class="cls-17" d="M409.8,370.16s-.92,8.75,6.8,5.06C416.6,375.22,410,378.11,409.8,370.16Z"/><path class="cls-16" d="M379.05,372.37a6.58,6.58,0,0,0,5.23-3.75l1,.43S382.3,372.82,379.05,372.37Z"/><path class="cls-14" d="M371.8,354.36s.18.59-.73.66C371.07,355,372.07,355.16,371.8,354.36Z"/><ellipse class="cls-23" cx="409.15" cy="362.37" rx="0.8" ry="0.91"/><ellipse class="cls-23" cx="401.12" cy="361.92" rx="0.8" ry="0.91"/><ellipse class="cls-23" cx="383.7" cy="360.91" rx="0.8" ry="0.91"/><ellipse class="cls-23" cx="375.72" cy="355.05" rx="0.8" ry="0.91"/><ellipse class="cls-23" cx="389.66" cy="356.42" rx="0.8" ry="0.91"/><ellipse class="cls-23" cx="393.8" cy="360.86" rx="0.8" ry="0.91"/><ellipse class="cls-23" cx="413.34" cy="373.43" rx="0.8" ry="0.91"/><ellipse class="cls-23" cx="406.57" cy="370.81" rx="0.8" ry="0.91"/><ellipse class="cls-23" cx="414.35" cy="366.62" rx="0.8" ry="0.91"/><ellipse class="cls-23" cx="419.4" cy="369.7" rx="0.8" ry="0.91"/><ellipse class="cls-23" cx="397.53" cy="357.48" rx="0.8" ry="0.91"/><ellipse class="cls-23" cx="391.83" cy="365.1" rx="0.8" ry="0.91"/><ellipse class="cls-23" cx="402.38" cy="370.66" rx="0.8" ry="0.91"/><ellipse class="cls-23" cx="398.54" cy="378.18" rx="0.8" ry="0.91"/><ellipse class="cls-19" cx="766.26" cy="420.37" rx="11.92" ry="37.18" transform="translate(326.94 1175.93) rotate(-88.57)"/><path class="cls-20" d="M730.44,391.87s-5.35-4-1.2-7.68c0,0-.4-.62,1-.69a19.7,19.7,0,0,1,4.14-1.24c1.75-.22,4.19-2.55,4.19-2.55a5.06,5.06,0,0,1,6.26-.58c3.63,2.15,12,5.48,21.41,6.3s29.69,5.4,29.25,17.3c0,0,6.81-3.88,8.45,2.94,0,0,.3,6.79-9.23,13.48l-3.31,2.27s-1.5.82-.93,2.05c0,0-.6,3.65-4.56,1.36,0,0-1.39-1.31,2.76-3.66l3-2.48a23.06,23.06,0,0,1-9.2,3.63s-2,3.3-4.83.85a2.22,2.22,0,0,1,.74-2.54s-1.42-1.8,1-2.5c0,0,7.16.42,8.89-1.95a6.27,6.27,0,0,1-3.28-2.35s-4.94,1.93-8.85,1.75c0,0-1.77,5-5.37,6.48a15.71,15.71,0,0,0-2.89,1.41,19,19,0,0,1-3.85,2.12c-.85.28-3.28,1.83-3.14,3.28S759,432,756,430.26c0,0-1.23-2.37,1.31-2.76,0,0,1.34-.43,1.53-1,0,0,4.44-3.13,4.58-4,0,0-6.63,2.43-10.86,2.51a2,2,0,0,0-1.83,1,2.32,2.32,0,0,1-3.87-.57,2.9,2.9,0,0,1,2.83-2.35l11.68-2.84a8.87,8.87,0,0,0-2.86-.13c-.55.27-4.29-.49-4.29-.49s-.73,0-1,.43-3.06,1.8-2.92-1.39a4,4,0,0,1,2-1.39,13.17,13.17,0,0,1,4,.3l10,.33s2.7-2.76,2.7-3.72l-8.3-4.42s-5.81-3.16-6.19-3.11c0,0-2.92,4.51-.58,4,0,0,3.06.54.69,3.35a1.87,1.87,0,0,1-2.65-2,6.47,6.47,0,0,0-3.79.85c-1.72,1.09-4.59,2.95-5.65,2.92,0,0-.71,0-1,1.17s-3.56,1.6-3.8-.33c0,0-.69-1,4-2.71l3.58-2.1s-1.52.57-8.56.86c0,0-1.28,2.4-3.17.78,0,0-1.24-1.87,1.75-3.11a27.52,27.52,0,0,1,5.18-.53c1.84.13,7.48-.16,9.17-5.55,0,0-2.6-2.45-4.2-4.27s-6.81-3.75-6.81-3.75A45.41,45.41,0,0,1,730.44,391.87Z"/><circle class="cls-21" cx="746.01" cy="387.15" r="3.85"/><path class="cls-9" d="M743.24,386.2a2.66,2.66,0,0,1,3.39-.67,3.27,3.27,0,0,1,2.14,3.05,3.33,3.33,0,0,1-3.43.35A4,4,0,0,1,743.24,386.2Z"/><circle class="cls-10" cx="747.83" cy="386.58" r="0.91"/><ellipse class="cls-9" cx="732.01" cy="385.85" rx="0.9" ry="0.55"/><path class="cls-11" d="M759.66,403.74A11.44,11.44,0,0,0,763,405a18.82,18.82,0,0,0,3.51.43,32.84,32.84,0,0,0,3.57-.08l1.8-.17c.6-.08,1.2-.16,1.82-.19-.56.25-1.14.46-1.72.67s-1.19.33-1.8.46a16.42,16.42,0,0,1-3.71.31,12.53,12.53,0,0,1-3.69-.68A7.11,7.11,0,0,1,759.66,403.74Z"/><path class="cls-22" d="M764.87,399.56s10.56-.79,13,3.11c0,0,1.39,1.67,0,6.14l-2,7.23s-1.44,4.75-4.63,5.68c0,0-3.47,1.92-4.56,2.57,0,0-6.2,2.31-5.9,4.88,0,0-.13,2.67-4.25,1.47,0,0-2.24-1.42.2-3a4.16,4.16,0,0,0,1.73-.75l5.2-4.46s-3.45,1.75-11.94,2.67a3,3,0,0,0-1.07,1.09,2.26,2.26,0,0,1-3.35.09,1.93,1.93,0,0,1,.59-2.58,10.81,10.81,0,0,1,3.52-1l10.93-2.56a11.62,11.62,0,0,0,3.78-2.08,12.43,12.43,0,0,0,3.86-5.4s1.37-4.74,1.13-7"/><path class="cls-22" d="M766.05,418s-9.45,0-10.47-.52-5.48-.63-5.44,2.11c0,0,.31,2.39,3.84.06a3,3,0,0,1,1.67.42l6.13.1"/><path class="cls-11" d="M729.5,391a10.08,10.08,0,0,1,3.23.18c1.08.31,2,.75,3,1.11,2,.75,4,1.54,6,2.27s4,1.43,6,2a11.16,11.16,0,0,0,3,.49,1.54,1.54,0,0,0,1.3-.46,1.93,1.93,0,0,0,0-1.48,1.88,1.88,0,0,1,.21,1.61,1.85,1.85,0,0,1-1.48.82,11.46,11.46,0,0,1-3.27-.23,40,40,0,0,1-6.19-1.81c-2-.75-4-1.57-5.91-2.49-1-.45-1.93-1-2.87-1.36A11.64,11.64,0,0,0,729.5,391Z"/><path class="cls-11" d="M747,382.34a6.38,6.38,0,0,1,2.25.57,4.9,4.9,0,0,1,1.87,1.52,4.52,4.52,0,0,1,.91,2.28,6.33,6.33,0,0,1,0,1.23c0,.4-.1.8-.16,1.19v0a6.12,6.12,0,0,1-1.2,2,5.07,5.07,0,0,1-4.16,1.67,9.91,9.91,0,0,1-1.09-.18c-.36-.1-.7-.23-1-.35l1.07.09a9.3,9.3,0,0,0,1.06,0,5.37,5.37,0,0,0,1.94-.56,4.65,4.65,0,0,0,1.51-1.24,5.51,5.51,0,0,0,1-1.7v0c0-.35.13-.7.17-1.06a7.22,7.22,0,0,0,0-1,4.23,4.23,0,0,0-.62-1.95A6.39,6.39,0,0,0,747,382.34Z"/><path class="cls-13" d="M792.13,399.53s-8,.79-7.86,11.06c0,0,.44,9,10.86,4.09,0,0,2.35-1.15,5.89-6.06"/><path class="cls-22" d="M791.42,408.26s.27-4.66,7.09-6.68c0,0,7-.38,4.7,7.48,0,0-1.86,6.33-11.79,12.36a1.68,1.68,0,0,0-.91,1.77s.18,3.28-4.08,2c0,0-1.67-.83.3-2.76l5-3.74s-6.16,3.13-8.51,3.49a2.57,2.57,0,0,0-1.29,1.16c-.25.73-5.31,2-4.15-2.15,0,0,.85-1.46,3.31-1.19s8.76-2.51,9.19-3.49"/><path class="cls-22" d="M778.28,420.52s-1.25-1.63,1.13-2.51c0,0,6.5.57,8.88-1.83"/><path class="cls-11" d="M792.29,399.64a7.75,7.75,0,0,0-3.65,1.35,8.28,8.28,0,0,0-2.52,2.87,12.52,12.52,0,0,0-1.2,3.65,13.92,13.92,0,0,0-.21,1.92l0,1c0,.31.08.62.11.93a5.29,5.29,0,0,0,1.56,3.21,5.56,5.56,0,0,0,3.35,1.32,8.93,8.93,0,0,0,3.72-.54,7.43,7.43,0,0,0,3.16-2.06l0,0h0c.78-.71,1.55-1.44,2.3-2.19.37-.38.73-.77,1.06-1.18a5.82,5.82,0,0,0,.89-1.31,5.52,5.52,0,0,1-.73,1.43c-.31.44-.63.87-1,1.29a30.31,30.31,0,0,1-2.15,2.39l0,0a9,9,0,0,1-7.41,3.17,6.41,6.41,0,0,1-3.94-1.52,6.14,6.14,0,0,1-1.86-3.81c0-.35-.09-.7-.1-1l0-1a13.9,13.9,0,0,1,.28-2,11.81,11.81,0,0,1,1.48-3.82,8.19,8.19,0,0,1,2.88-2.88A7.39,7.39,0,0,1,792.29,399.64Z"/><path class="cls-22" d="M749.74,404.25s-2.31,5-6.09,5.19a57.94,57.94,0,0,1-6.08.44c-3.09,0-5.2,1.78-3.53,4a2.14,2.14,0,0,0,2.77-1.18s7.42-.06,9.09-1.07l-7.68,4.25s-1.56,2.15,2.22,2a1.7,1.7,0,0,0,1.39-1.63,3.2,3.2,0,0,1,1.45-.56l6.15-3.38s2.34-.62,2.9-.14c0,0-.32,2.58,2,2,0,0,3.42-2.09-.35-3.46,0,0-1,.33-1-.94l1.64-2.87"/><path class="cls-22" d="M785,413.83a17.94,17.94,0,0,1-8.85,1.75"/><path class="cls-22" d="M769.14,414.28s-6.18-3.07-8.07-4.27-9.94-4.91-11.87-6.27-4.34-6-10-7.29-10.54-6.25-10.54-6.25-2.54-3.81.56-6c0,0-.18-.8,1.15-.65a14.16,14.16,0,0,1,4.09-1.28c1.88-.18,4.44-2.81,4.44-2.81s2.1-2.62,6.34-.18c0,0,6.57,4.35,19.56,6s31.07,6,30.69,17.51"/><path class="cls-14" d="M735.48,393.73s13,5.09,14.38,5a53,53,0,0,0,18.68,11.09l1.26.35-.92,3.08s-18.77-9.83-19-10.58-.25.06-.25.06S750.12,399.74,735.48,393.73Z"/><path class="cls-14" d="M777.6,412.19,777,415s4.91.21,6.9-1.44a7.31,7.31,0,0,1-.42-3.4S780.56,413.14,777.6,412.19Z"/><path class="cls-14" d="M736,382.87l3-2.41a4,4,0,0,1,5-1l2.69,1.48-2.95-1.17a3.6,3.6,0,0,0-4.34,1.29Z"/><path class="cls-14" d="M794.22,405.29s7.78-6.64,8.52,1.88c0,0-.5,3.26-1.88,4.69,0,0,2.11-6.17.16-7C801,404.86,799,402.88,794.22,405.29Z"/><path class="cls-14" d="M768.77,400.37s10.51-.35,8.83,6.6L776.55,411S779.86,400.74,768.77,400.37Z"/><path class="cls-15" d="M752.64,383.55s8.34,3.06,14.7,3,26.48,6.58,26.25,12.64c0,0-7.38-9.51-26.25-11.73C767.34,387.49,758.42,386.7,752.64,383.55Z"/><path class="cls-16" d="M730,384.92s-3.4,2.84,0,5.5C730,390.42,727.39,388.1,730,384.92Z"/><path class="cls-16" d="M741.4,387.15s.81,5.9,6.27,4.24C747.67,391.39,742.08,393.82,741.4,387.15Z"/><path class="cls-17" d="M785.16,407.34s-1.25,12,9.35,6.94C794.51,414.28,785.43,418.25,785.16,407.34Z"/><path class="cls-16" d="M743,410.38s5.2-.43,7.18-5.15l1.32.58S747.42,411,743,410.38Z"/><path class="cls-14" d="M733,385.65s.25.8-1,.9C732,386.55,733.38,386.75,733,385.65Z"/><ellipse class="cls-23" cx="756.34" cy="387.78" rx="1.67" ry="2.39" transform="translate(197.11 1027.85) rotate(-76)"/><ellipse class="cls-23" cx="768.4" cy="402.76" rx="1.67" ry="2.39" transform="translate(316.13 1143.09) rotate(-86.24)"/><ellipse class="cls-23" cx="773.81" cy="411.39" rx="2.39" ry="1.67" transform="translate(131.7 1007.8) rotate(-70.88)"/><ellipse class="cls-23" cx="780.88" cy="408.58" rx="2.39" ry="1.67" transform="translate(139.1 1012.59) rotate(-70.88)"/><ellipse class="cls-23" cx="796.68" cy="408.37" rx="2.39" ry="1.67" transform="translate(17.95 850) rotate(-56.7)"/><ellipse class="cls-23" cx="788.67" cy="405.77" rx="2.39" ry="1.67" transform="translate(16.51 842.14) rotate(-56.7)"/><ellipse class="cls-23" cx="790.65" cy="411.91" rx="2.39" ry="1.67" transform="matrix(0.55, -0.84, 0.84, 0.55, 12.27, 846.56)"/><ellipse class="cls-23" cx="787.43" cy="398.7" rx="2.39" ry="1.67" transform="translate(-87.58 514.3) rotate(-34.38)"/><ellipse class="cls-23" cx="777.86" cy="398.91" rx="1.67" ry="2.39" transform="translate(110.39 963.42) rotate(-67.37)"/><ellipse class="cls-23" cx="774.43" cy="392.05" rx="1.67" ry="2.39" transform="translate(114.61 956.03) rotate(-67.37)"/><ellipse class="cls-23" cx="767.26" cy="395.89" rx="1.67" ry="2.39" transform="translate(244.05 1082.67) rotate(-79.99)"/><ellipse class="cls-23" cx="757.79" cy="400.57" rx="1.67" ry="2.39" transform="matrix(0.17, -0.98, 0.98, 0.17, 231.62, 1077.22)"/><ellipse class="cls-23" cx="736.69" cy="388.2" rx="1.67" ry="2.39" transform="translate(226.37 1046.21) rotate(-79.99)"/><ellipse class="cls-23" cx="759.25" cy="394.13" rx="1.67" ry="2.39" transform="translate(239.17 1073.33) rotate(-79.99)"/><ellipse class="cls-23" cx="770.58" cy="418.56" rx="2.39" ry="1.67" transform="matrix(0.78, -0.62, 0.62, 0.78, -93.41, 568.56)"/><ellipse class="cls-23" cx="750.38" cy="409.2" rx="1.79" ry="1.25" transform="translate(-91.97 554) rotate(-38.36)"/><ellipse class="cls-23" cx="782.99" cy="394.52" rx="1.25" ry="1.79" transform="translate(49.83 875.35) rotate(-60)"/><ellipse class="cls-23" cx="765.9" cy="389.76" rx="1.67" ry="2.39" transform="translate(248.97 1076.27) rotate(-79.99)"/><ellipse class="cls-19" cx="950.67" cy="409.84" rx="11.92" ry="37.18" transform="translate(517.29 1350.01) rotate(-88.57)"/><path class="cls-20" d="M914.85,381.33s-5.35-4-1.2-7.68c0,0-.4-.62,1-.69a19.87,19.87,0,0,1,4.15-1.24c1.75-.21,4.19-2.54,4.19-2.54a5.06,5.06,0,0,1,6.25-.59c3.64,2.15,12,5.48,21.42,6.3s29.69,5.41,29.25,17.3c0,0,6.81-3.87,8.45,2.95,0,0,.3,6.78-9.23,13.48l-3.31,2.26s-1.5.82-.93,2.05c0,0-.6,3.66-4.56,1.36,0,0-1.39-1.31,2.76-3.65l3-2.49a23,23,0,0,1-9.2,3.63s-2,3.31-4.83.85a2.22,2.22,0,0,1,.74-2.54s-1.42-1.8,1-2.5c0,0,7.16.43,8.89-1.95a6.34,6.34,0,0,1-3.29-2.34s-4.93,1.92-8.84,1.74c0,0-1.77,5-5.37,6.49a16,16,0,0,0-2.9,1.4,18.2,18.2,0,0,1-3.84,2.12c-.85.28-3.28,1.84-3.14,3.28s-1.91,3.09-4.91,1.39c0,0-1.23-2.37,1.31-2.75,0,0,1.33-.44,1.52-1,0,0,4.45-3.14,4.59-4,0,0-6.63,2.43-10.86,2.51a2,2,0,0,0-1.83,1,2.32,2.32,0,0,1-3.87-.57,2.91,2.91,0,0,1,2.83-2.35l11.68-2.83a9.11,9.11,0,0,0-2.86-.14c-.55.27-4.29-.49-4.29-.49s-.73,0-1,.44-3.06,1.8-2.92-1.4a4,4,0,0,1,2-1.39,13.17,13.17,0,0,1,4,.3l10,.33s2.71-2.76,2.71-3.71l-8.3-4.42s-5.81-3.17-6.19-3.11c0,0-2.92,4.5-.58,4,0,0,3.06.55.68,3.36a1.87,1.87,0,0,1-2.64-2,6.46,6.46,0,0,0-3.8.84c-1.72,1.1-4.58,2.95-5.64,2.92,0,0-.71,0-1,1.18s-3.56,1.59-3.8-.34c0,0-.69-1,4-2.71l3.58-2.09s-1.53.56-8.57.85c0,0-1.27,2.4-3.16.79,0,0-1.24-1.88,1.74-3.12a27.08,27.08,0,0,1,5.19-.52c1.84.12,7.48-.17,9.17-5.55,0,0-2.6-2.46-4.2-4.28s-6.81-3.74-6.81-3.74A45.38,45.38,0,0,1,914.85,381.33Z"/><circle class="cls-21" cx="930.42" cy="376.61" r="3.85"/><path class="cls-9" d="M927.65,375.66A2.66,2.66,0,0,1,931,375a3.28,3.28,0,0,1,2.14,3.06,3.35,3.35,0,0,1-3.43.35A4.08,4.08,0,0,1,927.65,375.66Z"/><circle class="cls-10" cx="932.24" cy="376.04" r="0.91"/><ellipse class="cls-9" cx="916.42" cy="375.31" rx="0.9" ry="0.55"/><path class="cls-11" d="M944.06,393.2a11.33,11.33,0,0,0,3.33,1.29,17.28,17.28,0,0,0,3.51.43,30.27,30.27,0,0,0,3.56-.08l1.8-.17c.61-.07,1.21-.15,1.83-.19-.56.25-1.14.46-1.72.67s-1.19.33-1.8.46a15.9,15.9,0,0,1-3.71.31,12.22,12.22,0,0,1-3.69-.68A7.2,7.2,0,0,1,944.06,393.2Z"/><path class="cls-22" d="M949.28,389s10.56-.79,13,3.12c0,0,1.39,1.66,0,6.14l-2.05,7.23s-1.44,4.75-4.64,5.67c0,0-3.46,1.92-4.55,2.57,0,0-6.2,2.32-5.9,4.88,0,0-.13,2.68-4.25,1.48,0,0-2.24-1.42.2-3a4.16,4.16,0,0,0,1.73-.75l5.2-4.46s-3.45,1.75-11.94,2.68a3.05,3.05,0,0,0-1.08,1.09,2.25,2.25,0,0,1-3.34.08,1.93,1.93,0,0,1,.59-2.58,10.65,10.65,0,0,1,3.52-1l10.93-2.57a11.49,11.49,0,0,0,3.78-2.08,12.45,12.45,0,0,0,3.86-5.39s1.37-4.75,1.13-7"/><path class="cls-22" d="M950.46,407.44s-9.45,0-10.47-.51-5.48-.64-5.44,2.11c0,0,.31,2.38,3.84,0a3.17,3.17,0,0,1,1.67.42l6.13.1"/><path class="cls-11" d="M913.91,380.47a9.72,9.72,0,0,1,3.22.17c1.09.31,2,.76,3,1.12,2,.75,4,1.54,6,2.26s4,1.44,6,2a11.25,11.25,0,0,0,3.06.5,1.55,1.55,0,0,0,1.29-.47,1.91,1.91,0,0,0,0-1.47,1.47,1.47,0,0,1-1.28,2.42,11.07,11.07,0,0,1-3.26-.23,39.29,39.29,0,0,1-6.19-1.8c-2-.76-4-1.58-5.91-2.5-1-.44-1.93-1-2.87-1.35A11.33,11.33,0,0,0,913.91,380.47Z"/><path class="cls-11" d="M931.43,371.81a6,6,0,0,1,2.25.57,5,5,0,0,1,1.87,1.51,4.59,4.59,0,0,1,.91,2.28,6.35,6.35,0,0,1,0,1.23c0,.4-.1.8-.16,1.2v0h0a5.92,5.92,0,0,1-1.2,2,4.92,4.92,0,0,1-1.91,1.34,5.12,5.12,0,0,1-2.25.33,8.14,8.14,0,0,1-1.1-.18,8.91,8.91,0,0,1-1-.35l1.07.1a7.45,7.45,0,0,0,1.06-.05,5.35,5.35,0,0,0,1.94-.55,4.79,4.79,0,0,0,1.51-1.25,5.58,5.58,0,0,0,1-1.69v0c0-.35.13-.7.16-1.05a5.26,5.26,0,0,0,0-1.05,4.21,4.21,0,0,0-.61-1.95A6.38,6.38,0,0,0,931.43,371.81Z"/><path class="cls-13" d="M976.54,389s-8,.8-7.86,11.06c0,0,.43,8.95,10.86,4.09,0,0,2.35-1.15,5.89-6.06"/><path class="cls-22" d="M975.83,397.73s.27-4.67,7.09-6.69c0,0,7-.38,4.7,7.48,0,0-1.86,6.33-11.79,12.36a1.7,1.7,0,0,0-.91,1.78s.18,3.27-4.08,2c0,0-1.67-.84.29-2.77l5-3.74s-6.17,3.14-8.51,3.49a2.57,2.57,0,0,0-1.29,1.16c-.25.73-5.31,2-4.15-2.14,0,0,.85-1.47,3.31-1.2s8.75-2.51,9.19-3.49"/><path class="cls-22" d="M962.68,410s-1.24-1.63,1.14-2.51c0,0,6.5.57,8.88-1.83"/><path class="cls-11" d="M976.7,389.11a7.63,7.63,0,0,0-3.65,1.34,8.46,8.46,0,0,0-2.52,2.87,12.33,12.33,0,0,0-1.2,3.65,14.26,14.26,0,0,0-.21,1.92l0,1c0,.31.07.62.11.93a5.24,5.24,0,0,0,1.56,3.21,5.5,5.5,0,0,0,3.35,1.32,9.14,9.14,0,0,0,3.72-.53,7.52,7.52,0,0,0,3.16-2.06l0,0h0c.78-.71,1.55-1.44,2.3-2.2.37-.37.72-.77,1.06-1.17a5.88,5.88,0,0,0,.89-1.32,5.52,5.52,0,0,1-.73,1.43c-.31.44-.63.87-1,1.29a30.45,30.45,0,0,1-2.15,2.4l0,0a9,9,0,0,1-7.4,3.17,6.51,6.51,0,0,1-3.95-1.53,6.15,6.15,0,0,1-1.85-3.81c0-.34-.09-.7-.11-1l.06-1a13.59,13.59,0,0,1,.28-2,12.07,12.07,0,0,1,1.47-3.83,8.39,8.39,0,0,1,2.89-2.88A7.38,7.38,0,0,1,976.7,389.11Z"/><path class="cls-22" d="M934.15,393.72s-2.31,5-6.1,5.18a57.6,57.6,0,0,1-6.07.44c-3.1,0-5.21,1.78-3.53,4a2.14,2.14,0,0,0,2.76-1.19s7.43-.05,9.1-1.07l-7.68,4.26s-1.56,2.14,2.22,2a1.69,1.69,0,0,0,1.38-1.63,3.29,3.29,0,0,1,1.46-.55l6.15-3.39s2.33-.61,2.89-.14c0,0-.31,2.58,2.06,2,0,0,3.42-2.1-.35-3.47,0,0-1,.34-1-.94l1.64-2.87"/><path class="cls-22" d="M969.41,403.3a18,18,0,0,1-8.84,1.74"/><path class="cls-22" d="M953.55,403.75s-6.18-3.07-8.07-4.27-9.94-4.92-11.87-6.28-4.34-6-10-7.29-10.53-6.25-10.53-6.25-2.55-3.81.56-6c0,0-.18-.79,1.15-.64a14,14,0,0,1,4.09-1.29c1.88-.17,4.43-2.81,4.43-2.81s2.11-2.62,6.35-.17c0,0,6.57,4.35,19.56,5.94s31.07,6,30.69,17.51"/><path class="cls-14" d="M919.89,383.2s13,5.09,14.38,5A52.91,52.91,0,0,0,953,399.27l1.26.34-.92,3.09s-18.77-9.84-19-10.58-.25.06-.25.06S934.53,389.2,919.89,383.2Z"/><path class="cls-14" d="M962,401.65l-.6,2.78s4.92.22,6.9-1.43a7.43,7.43,0,0,1-.41-3.41S965,402.6,962,401.65Z"/><path class="cls-14" d="M920.44,372.33l3-2.4a4,4,0,0,1,5-1.06l2.69,1.48-3-1.17a3.6,3.6,0,0,0-4.34,1.29Z"/><path class="cls-14" d="M978.63,394.75s7.78-6.64,8.52,1.89c0,0-.5,3.26-1.88,4.69,0,0,2.11-6.18.16-7C985.43,394.32,983.38,392.35,978.63,394.75Z"/><path class="cls-14" d="M953.18,389.83s10.51-.34,8.83,6.61l-1,4.06S964.27,390.2,953.18,389.83Z"/><path class="cls-15" d="M937.05,373s8.34,3.05,14.7,3,26.48,6.58,26.25,12.65c0,0-7.38-9.52-26.25-11.74C951.75,377,942.83,376.16,937.05,373Z"/><path class="cls-16" d="M914.4,374.39s-3.4,2.83,0,5.49C914.4,379.88,911.8,377.56,914.4,374.39Z"/><path class="cls-16" d="M925.81,376.61s.81,5.9,6.26,4.24C932.07,380.85,926.49,383.28,925.81,376.61Z"/><path class="cls-17" d="M969.57,396.81s-1.26,12,9.34,6.94C978.91,403.75,969.84,407.71,969.57,396.81Z"/><path class="cls-16" d="M927.36,399.84s5.2-.43,7.19-5.15l1.32.58S931.83,400.45,927.36,399.84Z"/><path class="cls-14" d="M917.42,375.12s.25.8-1,.9C916.42,376,917.79,376.22,917.42,375.12Z"/><ellipse class="cls-23" cx="940.75" cy="377.25" rx="1.67" ry="2.39" transform="translate(347.13 1198.8) rotate(-76)"/><ellipse class="cls-23" cx="952.81" cy="392.22" rx="1.67" ry="2.39" transform="translate(498.96 1317.26) rotate(-86.24)"/><ellipse class="cls-23" cx="958.21" cy="400.85" rx="2.39" ry="1.67" transform="translate(265.67 1174.95) rotate(-70.88)"/><ellipse class="cls-23" cx="965.28" cy="398.04" rx="2.39" ry="1.67" transform="translate(273.08 1179.75) rotate(-70.88)"/><ellipse class="cls-23" cx="981.09" cy="397.83" rx="2.39" ry="1.67" transform="translate(109.91 999.38) rotate(-56.7)"/><ellipse class="cls-23" cx="973.08" cy="395.23" rx="2.39" ry="1.67" transform="matrix(0.55, -0.84, 0.84, 0.55, 108.47, 991.51)"/><ellipse class="cls-23" cx="975.06" cy="401.37" rx="2.39" ry="1.67" transform="translate(104.24 995.93) rotate(-56.7)"/><ellipse class="cls-23" cx="971.84" cy="388.16" rx="2.39" ry="1.67" transform="translate(-49.42 616.59) rotate(-34.38)"/><ellipse class="cls-23" cx="962.27" cy="388.37" rx="1.67" ry="2.39" transform="translate(233.57 1127.15) rotate(-67.37)"/><ellipse class="cls-23" cx="958.84" cy="381.51" rx="1.67" ry="2.39" transform="translate(237.8 1119.76) rotate(-67.37)"/><ellipse class="cls-23" cx="951.66" cy="385.36" rx="1.67" ry="2.39" transform="translate(406.79 1255.57) rotate(-79.99)"/><ellipse class="cls-23" cx="942.2" cy="390.04" rx="1.67" ry="2.39" transform="translate(394.36 1250.12) rotate(-79.99)"/><ellipse class="cls-23" cx="921.09" cy="377.66" rx="1.67" ry="2.39" transform="translate(389.11 1219.11) rotate(-79.99)"/><ellipse class="cls-23" cx="943.66" cy="383.59" rx="1.67" ry="2.39" transform="matrix(0.17, -0.98, 0.98, 0.17, 401.91, 1246.23)"/><ellipse class="cls-23" cx="954.99" cy="408.02" rx="2.39" ry="1.67" transform="translate(-47.07 680.72) rotate(-38.36)"/><ellipse class="cls-23" cx="934.79" cy="398.67" rx="1.79" ry="1.25" transform="matrix(0.78, -0.62, 0.62, 0.78, -45.62, 666.16)"/><ellipse class="cls-23" cx="967.4" cy="383.99" rx="1.25" ry="1.79" transform="translate(151.16 1029.79) rotate(-60)"/><ellipse class="cls-23" cx="950.31" cy="379.22" rx="1.67" ry="2.39" transform="translate(411.71 1249.17) rotate(-79.99)"/><ellipse class="cls-6" cx="456.28" cy="313.57" rx="33.57" ry="8.81" transform="translate(-22.56 35.67) rotate(-4.37)"/><path class="cls-7" d="M435.61,291.56s-4-3.05-.91-5.8c0,0-.3-.46.77-.52a14.57,14.57,0,0,1,3.13-.93c1.32-.17,3.16-1.93,3.16-1.93a3.82,3.82,0,0,1,4.72-.43,42.51,42.51,0,0,0,16.16,4.75c7.09.61,22.41,4.08,22.08,13.05,0,0,5.14-2.92,6.38,2.23,0,0,.22,5.12-7,10.17l-2.5,1.71s-1.13.62-.7,1.55c0,0-.45,2.76-3.44,1,0,0-1.05-1,2.08-2.76l2.29-1.88a17.28,17.28,0,0,1-6.94,2.74s-1.49,2.49-3.65.64a1.68,1.68,0,0,1,.56-1.92s-1.07-1.36.73-1.88c0,0,5.4.32,6.71-1.47a4.77,4.77,0,0,1-2.48-1.77,19.86,19.86,0,0,1-6.67,1.31s-1.34,3.77-4.06,4.9a11.88,11.88,0,0,0-2.18,1.06A14.54,14.54,0,0,1,461,317c-.64.21-2.47,1.38-2.37,2.47s-1.44,2.33-3.7,1c0,0-.93-1.79,1-2.08,0,0,1-.33,1.15-.76,0,0,3.36-2.37,3.46-3,0,0-5,1.83-8.2,1.89a1.49,1.49,0,0,0-1.38.76,1.75,1.75,0,0,1-2.92-.43,2.18,2.18,0,0,1,2.14-1.77L459,313a7,7,0,0,0-2.16-.11,13.74,13.74,0,0,1-3.23-.37s-.56,0-.72.33-2.31,1.36-2.21-1.05a3,3,0,0,1,1.53-1.05,9.85,9.85,0,0,1,3,.23l7.55.25s2-2.08,2-2.81l-6.26-3.33s-4.38-2.39-4.67-2.35c0,0-2.21,3.4-.44,3,0,0,2.31.41.52,2.53a1.42,1.42,0,0,1-2-1.52,4.86,4.86,0,0,0-2.86.63c-1.3.83-3.46,2.23-4.26,2.21,0,0-.54,0-.77.88s-2.68,1.21-2.86-.25c0,0-.52-.76,3-2.05l2.71-1.58s-1.15.43-6.47.65c0,0-1,1.81-2.39.59,0,0-.93-1.41,1.32-2.35a20.92,20.92,0,0,1,3.91-.4c1.39.1,5.65-.12,6.92-4.18,0,0-2-1.86-3.17-3.23s-5.13-2.83-5.13-2.83A34.4,34.4,0,0,1,435.61,291.56Z"/><circle class="cls-8" cx="447.36" cy="288" r="2.91"/><path class="cls-9" d="M445.27,287.28a2,2,0,0,1,2.56-.51,2.47,2.47,0,0,1,1.61,2.31,2.51,2.51,0,0,1-2.59.26A3.06,3.06,0,0,1,445.27,287.28Z"/><circle class="cls-10" cx="448.73" cy="287.57" r="0.69"/><ellipse class="cls-9" cx="436.79" cy="287.02" rx="0.68" ry="0.41"/><path class="cls-11" d="M457.66,300.52a7.59,7.59,0,0,0,2.48,1.07,12.61,12.61,0,0,0,2.67.35,20.5,20.5,0,0,0,2.71-.08c.91-.1,1.81-.25,2.72-.38-.43.17-.87.3-1.31.45l-1.36.31a12.88,12.88,0,0,1-2.78.2A9.64,9.64,0,0,1,460,302,5.77,5.77,0,0,1,457.66,300.52Z"/><path class="cls-12" d="M461.59,297.36s8-.59,9.85,2.35c0,0,1.05,1.26,0,4.64l-1.55,5.45s-1.09,3.59-3.5,4.29c0,0-2.62,1.45-3.44,1.94,0,0-4.68,1.74-4.45,3.68,0,0-.1,2-3.21,1.11,0,0-1.69-1.07.15-2.26a3.23,3.23,0,0,0,1.31-.57l3.92-3.37s-2.6,1.32-9,2a2.29,2.29,0,0,0-.81.83,1.7,1.7,0,0,1-2.52.06,1.46,1.46,0,0,1,.44-1.95,8.06,8.06,0,0,1,2.66-.77l8.25-1.94a8.61,8.61,0,0,0,2.85-1.57,9.44,9.44,0,0,0,2.91-4.07,20.59,20.59,0,0,0,.86-5.3"/><path class="cls-12" d="M462.48,311.27s-7.13,0-7.9-.39-4.13-.49-4.1,1.59c0,0,.23,1.8,2.89,0a2.43,2.43,0,0,1,1.27.31l4.62.08"/><path class="cls-11" d="M434.9,290.91a7.35,7.35,0,0,1,2.42.19c.79.24,1.5.59,2.26.87,1.49.59,3,1.2,4.49,1.74a44.91,44.91,0,0,0,4.56,1.48,8.81,8.81,0,0,0,2.33.34,1.21,1.21,0,0,0,1-.4,1.48,1.48,0,0,0,0-1.13,1.42,1.42,0,0,1,.12,1.19,1.32,1.32,0,0,1-1.09.58,8.67,8.67,0,0,1-2.44-.21,36,36,0,0,1-4.65-1.38c-1.5-.58-3-1.19-4.46-1.86-.73-.32-1.46-.72-2.19-1A8.34,8.34,0,0,0,434.9,290.91Z"/><path class="cls-11" d="M448.12,284.37a4.29,4.29,0,0,1,3,1.63,3.55,3.55,0,0,1,.65,1.68,5.67,5.67,0,0,1-.1,1.79h0a4.51,4.51,0,0,1-.88,1.48,3.62,3.62,0,0,1-1.39,1,3.94,3.94,0,0,1-1.65.28,5.56,5.56,0,0,1-1.62-.33l.81.1a7.09,7.09,0,0,0,.8,0,3.6,3.6,0,0,0,2.7-1.34,4.46,4.46,0,0,0,.75-1.32v0a5.61,5.61,0,0,0,.12-1.63,3.38,3.38,0,0,0-.5-1.51A4.68,4.68,0,0,0,448.12,284.37Z"/><path class="cls-13" d="M482.17,297.34s-6,.6-5.94,8.35c0,0,.33,6.75,8.2,3.08,0,0,1.77-.86,4.45-4.57"/><path class="cls-12" d="M481.63,303.93s.21-3.52,5.36-5c0,0,5.27-.29,3.54,5.64,0,0-1.4,4.78-8.9,9.33a1.28,1.28,0,0,0-.69,1.34s.14,2.47-3.07,1.51c0,0-1.27-.63.22-2.09l3.77-2.82s-4.66,2.37-6.42,2.64a1.94,1.94,0,0,0-1,.87c-.19.55-4,1.51-3.13-1.62a2.43,2.43,0,0,1,2.49-.9c1.86.21,6.62-1.89,6.95-2.64"/><path class="cls-12" d="M471.71,313.18s-.94-1.23.86-1.89c0,0,4.9.43,6.7-1.38"/><path class="cls-11" d="M482.29,297.43a5.86,5.86,0,0,0-4.73,3.13,9.44,9.44,0,0,0-.95,2.78,10.51,10.51,0,0,0-.17,1.47l0,.73c0,.24.05.48.08.72a4.18,4.18,0,0,0,1.22,2.5,4.37,4.37,0,0,0,2.6,1,7,7,0,0,0,2.86-.44,5.77,5.77,0,0,0,2.4-1.6h0c.58-.54,1.16-1.1,1.72-1.68a7.68,7.68,0,0,0,1.44-1.91,7.65,7.65,0,0,1-1.32,2,23,23,0,0,1-1.64,1.78h0a6.71,6.71,0,0,1-5.52,2.31,4.77,4.77,0,0,1-2.9-1.12,4.46,4.46,0,0,1-1.36-2.79c0-.26-.07-.52-.07-.78l0-.77a11.09,11.09,0,0,1,.2-1.52,9.16,9.16,0,0,1,1.07-2.86,6.21,6.21,0,0,1,2.14-2.18A5.68,5.68,0,0,1,482.29,297.43Z"/><path class="cls-12" d="M450.17,300.91s-1.74,3.8-4.6,3.91a43.76,43.76,0,0,1-4.58.33c-2.34,0-3.93,1.35-2.67,3a1.61,1.61,0,0,0,2.09-.89s5.6,0,6.87-.81l-5.8,3.21s-1.18,1.62,1.68,1.49a1.28,1.28,0,0,0,1-1.23,2.46,2.46,0,0,1,1.1-.42l4.64-2.56s1.76-.46,2.19-.11c0,0-.24,1.95,1.55,1.54,0,0,2.58-1.58-.27-2.61,0,0-.75.25-.75-.71l1.23-2.17"/><path class="cls-12" d="M476.79,308.14a13.53,13.53,0,0,1-6.67,1.31"/><path class="cls-12" d="M464.81,308.48s-4.66-2.32-6.08-3.23-7.51-3.7-9-4.73-3.28-4.56-7.54-5.5-8-4.72-8-4.72-1.92-2.88.42-4.54c0,0-.13-.6.87-.49a10.59,10.59,0,0,1,3.09-1c1.42-.14,3.34-2.12,3.34-2.12s1.59-2,4.79-.14c0,0,5,3.29,14.77,4.49s23.45,4.52,23.16,13.21"/><path class="cls-14" d="M439.41,293s9.79,3.84,10.86,3.75a40,40,0,0,0,14.09,8.37l.95.26-.69,2.33s-14.17-7.42-14.35-8-.19,0-.19,0S450.46,297.5,439.41,293Z"/><path class="cls-14" d="M471.2,306.89l-.45,2.1s3.71.17,5.21-1.08a5.57,5.57,0,0,1-.32-2.57S473.44,307.61,471.2,306.89Z"/><path class="cls-14" d="M439.82,284.76l2.29-1.81a3,3,0,0,1,3.8-.8l2,1.12-2.22-.88a2.72,2.72,0,0,0-3.28,1Z"/><path class="cls-14" d="M483.74,301.68s5.87-5,6.44,1.43a8.09,8.09,0,0,1-1.42,3.54s1.59-4.66.12-5.29C488.88,301.36,487.33,299.87,483.74,301.68Z"/><path class="cls-14" d="M464.54,298s7.93-.26,6.66,5l-.79,3.07S472.91,298.25,464.54,298Z"/><path class="cls-15" d="M452.36,285.28s6.3,2.31,11.1,2.29,20,5,19.81,9.54c0,0-5.57-7.18-19.81-8.86C463.46,288.25,456.72,287.66,452.36,285.28Z"/><path class="cls-16" d="M435.27,286.32s-2.57,2.13,0,4.14A2.88,2.88,0,0,1,435.27,286.32Z"/><path class="cls-16" d="M443.88,288s.61,4.45,4.73,3.2C448.61,291.2,444.39,293,443.88,288Z"/><path class="cls-17" d="M476.91,303.24s-1,9.06,7,5.24C484,308.48,477.11,311.47,476.91,303.24Z"/><path class="cls-16" d="M445.05,305.53a6.85,6.85,0,0,0,5.43-3.89l1,.44S448.42,306,445.05,305.53Z"/><path class="cls-14" d="M437.55,286.87s.18.6-.76.68C436.79,287.55,437.83,287.7,437.55,286.87Z"/><ellipse class="cls-18" cx="476.93" cy="295.23" rx="0.66" ry="1.39" transform="translate(41.1 648.32) rotate(-70.77)"/><ellipse class="cls-18" cx="472.14" cy="296.34" rx="0.66" ry="1.39" transform="translate(36.85 644.55) rotate(-70.77)"/><ellipse class="cls-18" cx="468.89" cy="291.76" rx="0.66" ry="1.39" transform="translate(38.98 638.41) rotate(-70.77)"/><ellipse class="cls-18" cx="464.66" cy="299.87" rx="0.84" ry="1.78" transform="translate(150.94 755.3) rotate(-88.28)"/><ellipse class="cls-18" cx="461.87" cy="295.68" rx="0.84" ry="1.78" transform="translate(152.43 748.44) rotate(-88.28)"/><ellipse class="cls-18" cx="465.61" cy="311.55" rx="1.78" ry="0.84" transform="translate(-72.23 468.33) rotate(-50.04)"/><ellipse class="cls-18" cx="468.11" cy="305.38" rx="1.78" ry="0.84" transform="translate(77.8 705.43) rotate(-78.83)"/><ellipse class="cls-18" cx="485.44" cy="304.13" rx="1.78" ry="0.84" transform="translate(-72.87 432.33) rotate(-45)"/><ellipse class="cls-18" cx="449.29" cy="294.12" rx="0.84" ry="1.78" transform="translate(76.95 681.06) rotate(-79.31)"/><ellipse class="cls-18" cx="440.19" cy="289.07" rx="0.84" ry="1.78" transform="translate(74.49 668.01) rotate(-79.31)"/><ellipse class="cls-18" cx="460.26" cy="289.23" rx="0.84" ry="1.78" transform="translate(83.54 681.12) rotate(-78.28)"/><ellipse class="cls-18" cx="463.01" cy="292.71" rx="0.84" ry="1.78" transform="translate(82.32 686.59) rotate(-78.28)"/><ellipse class="cls-18" cx="455.27" cy="291.47" rx="0.84" ry="1.78" transform="translate(77.37 678.01) rotate(-78.28)"/><ellipse class="cls-18" cx="480.32" cy="307.29" rx="0.84" ry="1.78" transform="translate(158.72 778.15) rotate(-88.28)"/><ellipse class="cls-18" cx="455.37" cy="299.09" rx="0.84" ry="1.78" transform="translate(-16.78 570.93) rotate(-63.23)"/><path class="cls-1" d="M859.13,385.94l15.79,2.36a.34.34,0,0,1,.27.39c-.24,1.72-2,5.12-5.42,4.64-4-.54-4.48,1.56-7.32,2.14s-6.49,2.5-9.9,1.32c-4.88-1.68-6.78,0-9.06.33-10.26,1.63-11.72-.83-16.87-2.07-2.63-.64-1.54-2.18-6.65-2.26a4.44,4.44,0,0,1-4.23-4.45c0-4.77,13.42-8.7,29.74-8.7,10.78,0,20.69,1.72,25.92,4.44a.36.36,0,0,1-.12.67l-12.12.5C858.78,385.26,858.76,385.89,859.13,385.94Z"/><path class="cls-24" d="M859.29,385.66,875.08,388a.35.35,0,0,1,.27.39c-.24,1.72-2,5.11-5.42,4.64-4-.54-4.48,1.56-7.32,2.14s-6.49,2.5-9.9,1.32c-4.88-1.68-6.78,0-9.06.33-10.26,1.63-11.72-.83-16.87-2.07-2.63-.64-1.54-2.19-6.65-2.26a4.44,4.44,0,0,1-4.23-4.45c0-4.77,13.42-8.7,29.74-8.7,10.78,0,20.69,1.72,25.92,4.44a.36.36,0,0,1-.12.67l-12.12.5A.35.35,0,0,0,859.29,385.66Z"/><path class="cls-25" d="M820.13,392.51s3.44-.23,4.88,1.43a94.35,94.35,0,0,1,9.13-3.75A45.9,45.9,0,0,0,820.13,392.51Z"/><path class="cls-25" d="M844.27,396.65s3.89-1.28,5.52-.82l-3-5.72S844.56,391,844.27,396.65Z"/><path class="cls-25" d="M863.54,394.91a19.67,19.67,0,0,1,3.52-1.78s-8.19-2.56-9.44-2.63c-.62,0,.7.92-.73,1.54Z"/><path class="cls-4" d="M848.9,387.65c9.18.5,17,1.82,16.73,1.73C862.38,389.2,849.63,388.12,848.9,387.65Z"/><path class="cls-4" d="M847.38,388.19c4.56.75,14,3.21,13.69,3.21C852.82,389.82,847.38,388.19,847.38,388.19Z"/><path class="cls-4" d="M834.85,387c-6.15.15-13.9.76-13.9.76C826.17,386.57,834.85,387,834.85,387Z"/><path class="cls-5" d="M863.17,383.85c-6-.61-18.36,1.06-18.36,1.06C851.59,383,863.17,383.85,863.17,383.85Z"/><path class="cls-4" d="M838.88,388.59c11.66,1.05,16.84,3.16,15.78,3C852.3,391.31,838.88,388.59,838.88,388.59Z"/><path class="cls-4" d="M837,389.73c-3.77-.18-10,.35-9.56.26C830.72,389.38,837,389.2,837,389.73Z"/><path class="cls-26" d="M860.77,386l.49-4.16a68.81,68.81,0,0,0-.42-15.56.93.93,0,0,1,.76-1.06.92.92,0,0,1,1.06.75,70,70,0,0,1,.44,16s-.39,3.24-.67,4.32"/><path class="cls-27" d="M856.37,341.58h0c17.08,10,12.38,22.73,5,24.26h0C854.07,367.36,844.68,357.55,856.37,341.58Z"/><path class="cls-28" d="M856.72,342.5c3.14,1.72,8.47,5.88,6.83,6.16S855.37,342.34,856.72,342.5Z"/><path class="cls-28" d="M864.22,349.84c2.43,2,2.86,4.34,2.12,3.67A8,8,0,0,1,864.22,349.84Z"/><path class="cls-29" d="M852.78,348.17c4,1.71,14.7,7.19,13,14.76C868.37,357.86,862.48,351,852.78,348.17Z"/><path class="cls-29" d="M861.39,352.6a9.87,9.87,0,0,1,2.83-2.76C862.56,350,860.28,352.5,861.39,352.6Z"/><path class="cls-29" d="M862.17,365.57c-1.89.66-9.34-3.19-10.47-7.93C853,362,857.32,365.9,862.17,365.57Z"/><path class="cls-1" d="M145.49,367.62l16,2.39a.34.34,0,0,1,.27.39c-.24,1.75-2,5.19-5.5,4.71-4.05-.55-4.55,1.58-7.43,2.17s-6.58,2.53-10,1.34c-4.95-1.71-6.88,0-9.19.34-10.41,1.64-11.89-.84-17.11-2.11-2.67-.64-1.57-2.21-6.75-2.29a4.5,4.5,0,0,1-4.29-4.51c0-4.84,13.62-8.82,30.16-8.82,10.94,0,21,1.74,26.29,4.5a.37.37,0,0,1-.12.68l-12.29.5A.36.36,0,0,0,145.49,367.62Z"/><path class="cls-24" d="M145.65,367.33l16,2.39a.35.35,0,0,1,.27.4c-.24,1.74-2,5.19-5.49,4.71-4.06-.55-4.55,1.58-7.44,2.17s-6.58,2.53-10,1.34c-4.95-1.71-6.88,0-9.19.33-10.41,1.65-11.89-.84-17.11-2.1-2.67-.64-1.57-2.22-6.75-2.29a4.51,4.51,0,0,1-4.29-4.51c0-4.84,13.62-8.83,30.16-8.83,10.94,0,21,1.74,26.29,4.5a.37.37,0,0,1-.12.68l-12.29.51A.36.36,0,0,0,145.65,367.33Z"/><path class="cls-25" d="M105.93,374.28s3.5-.24,4.95,1.45a96.08,96.08,0,0,1,9.26-3.81A46.5,46.5,0,0,0,105.93,374.28Z"/><path class="cls-25" d="M130.42,378.47s3.94-1.29,5.59-.82l-3-5.81S130.71,372.76,130.42,378.47Z"/><path class="cls-25" d="M150,376.71a19.87,19.87,0,0,1,3.57-1.81s-8.31-2.59-9.57-2.66c-.63,0,.7.94-.75,1.56Z"/><path class="cls-4" d="M135.12,369.35c9.31.51,17.23,1.84,17,1.75C148.79,370.92,135.86,369.83,135.12,369.35Z"/><path class="cls-4" d="M133.57,369.9c4.63.76,14.24,3.25,13.88,3.25C139.09,371.55,133.57,369.9,133.57,369.9Z"/><path class="cls-4" d="M120.87,368.64c-6.25.15-14.1.77-14.1.77C112.06,368.26,120.87,368.64,120.87,368.64Z"/><path class="cls-5" d="M149.59,365.5c-6.05-.62-18.62,1.07-18.62,1.07C137.85,364.61,149.59,365.5,149.59,365.5Z"/><path class="cls-4" d="M125,370.3c11.83,1.07,17.08,3.2,16,3C138.56,373.06,125,370.3,125,370.3Z"/><path class="cls-4" d="M123.08,371.46c-3.83-.18-10.14.35-9.7.27C116.67,371.1,123.08,370.92,123.08,371.46Z"/><path class="cls-30" d="M146.25,367.61l.56-4.73a79.42,79.42,0,0,0-.47-17.7,1,1,0,0,1,2.06-.35,79.83,79.83,0,0,1,.51,18.17s-.45,3.68-.77,4.9"/><path class="cls-27" d="M141.25,317.11h0c19.43,11.39,14.08,25.87,5.73,27.6h0C138.63,346.44,128,335.29,141.25,317.11Z"/><path class="cls-28" d="M141.65,318.17c3.56,1.95,9.63,6.69,7.77,7S140.11,318,141.65,318.17Z"/><path class="cls-28" d="M150.19,326.51c2.75,2.24,3.24,4.94,2.4,4.18A9,9,0,0,1,150.19,326.51Z"/><path class="cls-29" d="M137.17,324.61c4.5,1.95,16.72,8.18,14.74,16.8C154.9,335.63,148.2,327.79,137.17,324.61Z"/><path class="cls-29" d="M147,329.65a11.07,11.07,0,0,1,3.22-3.14C148.3,326.71,145.7,329.54,147,329.65Z"/><path class="cls-29" d="M147.85,344.41c-2.15.75-10.63-3.63-11.92-9C137.38,340.38,142.33,344.78,147.85,344.41Z"/><path class="cls-31" d="M171.35,368.28l-.47-3.9a65.72,65.72,0,0,1,.39-14.6.86.86,0,1,0-1.7-.29,65.87,65.87,0,0,0-.41,15s.37,3,.63,4"/><path class="cls-27" d="M171.83,326.26h0c13.42,12.84,6.36,23.45-.67,23.25h0C164.13,349.3,157.69,338.32,171.83,326.26Z"/><path class="cls-28" d="M171.94,327.18c2.49,2.25,6.46,7.21,4.9,7.11S170.75,326.74,171.94,327.18Z"/><path class="cls-28" d="M177.2,335.51c1.79,2.32,1.66,4.58,1.14,3.81A7.54,7.54,0,0,1,177.2,335.51Z"/><path class="cls-29" d="M167.12,331.51c3.24,2.42,11.86,9.75,8.62,16.28C179.25,343.73,175.37,336.15,167.12,331.51Z"/><path class="cls-29" d="M174,337.42a9.16,9.16,0,0,1,3.18-1.91C175.65,335.31,173,337.08,174,337.42Z"/><path class="cls-29" d="M171.91,349.43c-1.86.19-7.84-4.94-7.84-9.52C164.28,344.2,167.41,348.68,171.91,349.43Z"/><path class="cls-1" d="M1129.65,389.84l23.07,3.44a.49.49,0,0,1,.39.57c-.34,2.51-2.89,7.47-7.91,6.78-5.83-.79-6.55,2.27-10.7,3.12-4.32.89-9.48,3.65-14.45,1.93-7.13-2.45-9.91,0-13.23.48-15,2.38-17.13-1.2-24.65-3-3.84-.93-2.25-3.19-9.71-3.3-4.36-.06-6.18-4.13-6.18-6.49,0-7,19.61-12.71,43.43-12.71,15.75,0,30.22,2.51,37.86,6.48a.52.52,0,0,1-.17,1l-17.71.73C1129.15,388.84,1129.11,389.76,1129.65,389.84Z"/><path class="cls-24" d="M1129.88,389.43l23.08,3.44a.5.5,0,0,1,.38.57c-.34,2.51-2.88,7.47-7.91,6.78-5.83-.79-6.55,2.27-10.7,3.12-4.32.89-9.48,3.65-14.45,1.93-7.13-2.45-9.91,0-13.23.48-15,2.38-17.13-1.2-24.64-3-3.84-.93-2.26-3.19-9.72-3.3-4.35-.06-6.17-4.13-6.17-6.49,0-7,19.6-12.71,43.43-12.71,15.75,0,30.22,2.51,37.85,6.48a.52.52,0,0,1-.17,1l-17.7.73A.52.52,0,0,0,1129.88,389.43Z"/><path class="cls-25" d="M1072.69,399.43s5-.34,7.13,2.09c0,0,10-4.64,13.33-5.48A66.76,66.76,0,0,0,1072.69,399.43Z"/><path class="cls-25" d="M1108,405.47s5.67-1.86,8-1.18l-4.38-8.37S1108.38,397.25,1108,405.47Z"/><path class="cls-25" d="M1136.1,402.93s4.29-2.6,5.14-2.6c0,0-12-3.73-13.79-3.84-.9-.06,1,1.35-1.07,2.26Z"/><path class="cls-4" d="M1114.72,392.34c13.41.72,24.81,2.64,24.42,2.52C1134.4,394.6,1115.79,393,1114.72,392.34Z"/><path class="cls-4" d="M1112.49,393.13c6.67,1.09,20.51,4.67,20,4.67C1120.44,395.5,1112.49,393.13,1112.49,393.13Z"/><path class="cls-4" d="M1094.2,391.31c-9,.22-20.3,1.11-20.3,1.11C1081.51,390.76,1094.2,391.31,1094.2,391.31Z"/><path class="cls-5" d="M1135.56,386.79c-8.71-.9-26.82,1.53-26.82,1.53C1118.65,385.51,1135.56,386.79,1135.56,386.79Z"/><path class="cls-4" d="M1100.07,393.7c17,1.54,24.6,4.62,23.06,4.36C1119.67,397.67,1100.07,393.7,1100.07,393.7Z"/><path class="cls-4" d="M1097.38,395.37c-5.5-.26-14.6.51-14,.38C1088.16,394.86,1097.38,394.6,1097.38,395.37Z"/><path class="cls-32" d="M1130.75,389.83l.81-6.81a113.91,113.91,0,0,0-.68-25.49,1.51,1.51,0,1,1,3-.5,114.83,114.83,0,0,1,.73,26.16s-.65,5.3-1.1,7.06"/><path class="cls-27" d="M1123.56,317.11h0c28,16.39,20.27,37.24,8.24,39.74h0C1119.78,359.35,1104.41,343.28,1123.56,317.11Z"/><path class="cls-28" d="M1124.12,318.63c5.14,2.81,13.87,9.64,11.19,10.09S1121.91,318.36,1124.12,318.63Z"/><path class="cls-28" d="M1136.42,330.65c4,3.22,4.67,7.11,3.46,6C1137.39,334.57,1136.42,330.65,1136.42,330.65Z"/><path class="cls-29" d="M1117.67,327.92c6.49,2.8,24.08,11.77,21.22,24.18C1143.21,343.78,1133.56,332.48,1117.67,327.92Z"/><path class="cls-29" d="M1131.78,335.17a16.06,16.06,0,0,1,4.64-4.52C1133.7,330.93,1130,335,1131.78,335.17Z"/><path class="cls-29" d="M1133.05,356.42c-3.09,1.08-15.3-5.22-17.15-13C1118,350.61,1125.1,357,1133.05,356.42Z"/><path class="cls-33" d="M1166.89,390.79l-.67-5.61a94.72,94.72,0,0,1,.56-21,1.24,1.24,0,1,0-2.45-.42,95,95,0,0,0-.59,21.58s.53,4.38.9,5.83"/><path class="cls-27" d="M1167.58,330.29h0c19.33,18.49,9.17,33.76-1,33.47h0C1156.5,363.47,1147.22,347.64,1167.58,330.29Z"/><path class="cls-28" d="M1167.74,331.61c3.59,3.24,9.3,10.38,7.06,10.24S1166,331,1167.74,331.61Z"/><path class="cls-28" d="M1175.32,343.6c2.57,3.35,2.4,6.61,1.63,5.49A10.9,10.9,0,0,1,1175.32,343.6Z"/><path class="cls-29" d="M1160.8,337.84c4.67,3.48,17.08,14,12.42,23.45C1178.27,355.44,1172.68,344.53,1160.8,337.84Z"/><path class="cls-29" d="M1170.74,346.35a13.34,13.34,0,0,1,4.58-2.75C1173.09,343.31,1169.3,345.87,1170.74,346.35Z"/><path class="cls-29" d="M1167.71,363.65c-2.69.27-11.29-7.11-11.29-13.71C1156.72,356.11,1161.22,362.57,1167.71,363.65Z"/><path class="cls-1" d="M177.76,367.06l-8.62,1.29a.17.17,0,0,0-.14.21c.12.94,1.07,2.79,2.95,2.53,2.18-.3,2.45.85,4,1.17s3.54,1.36,5.4.72c2.66-.92,3.7,0,4.94.18,5.6.89,6.4-.45,9.21-1.13,1.43-.35.84-1.19,3.63-1.23a2.43,2.43,0,0,0,2.31-2.43c0-2.61-7.33-4.75-16.23-4.75-5.88,0-11.29.94-14.14,2.42-.16.09-.12.36.06.37l6.61.27A.19.19,0,0,1,177.76,367.06Z"/><path class="cls-24" d="M177.67,366.91l-8.62,1.28a.18.18,0,0,0-.14.21c.13.94,1.08,2.8,3,2.54,2.18-.3,2.45.85,4,1.16s3.54,1.37,5.4.73c2.66-.92,3.7,0,4.94.18,5.6.88,6.4-.46,9.21-1.13,1.44-.35.84-1.2,3.63-1.24a2.42,2.42,0,0,0,2.31-2.42c0-2.61-7.33-4.75-16.23-4.75-5.88,0-11.29.93-14.14,2.42-.16.08-.11.36.06.36l6.62.28C177.86,366.53,177.88,366.88,177.67,366.91Z"/><path class="cls-25" d="M199,370.64s-1.88-.13-2.66.78a53.22,53.22,0,0,0-5-2.05A25.26,25.26,0,0,1,199,370.64Z"/><path class="cls-25" d="M185.87,372.9a7.76,7.76,0,0,0-3-.44l1.63-3.13S185.71,369.83,185.87,372.9Z"/><path class="cls-25" d="M175.35,372a10.61,10.61,0,0,0-1.92-1s4.47-1.39,5.15-1.44c.34,0-.38.51.4.85Z"/><path class="cls-4" d="M183.34,368c-5,.27-9.27,1-9.13.94A89.71,89.71,0,0,0,183.34,368Z"/><path class="cls-4" d="M184.17,368.29c-2.49.4-7.66,1.74-7.47,1.74C181.2,369.17,184.17,368.29,184.17,368.29Z"/><path class="cls-4" d="M191,367.61c3.36.08,7.58.41,7.58.41A38,38,0,0,0,191,367.61Z"/><path class="cls-5" d="M175.55,365.92c3.26-.34,10,.57,10,.57C181.87,365.44,175.55,365.92,175.55,365.92Z"/><path class="cls-4" d="M188.81,368.5c-6.36.58-9.19,1.73-8.61,1.63C181.49,370,188.81,368.5,188.81,368.5Z"/><path class="cls-4" d="M189.82,369.13c2.05-.1,5.45.19,5.21.14C193.26,368.93,189.82,368.84,189.82,369.13Z"/></svg>