<svg xmlns="http://www.w3.org/2000/svg" viewBox="0 0 256 128"><defs><style>.cls-1{fill:#323232;}</style></defs><g id="_7_Spades" data-name="7 Spades"><path class="cls-1" d="M74.31,72.52H69.63l8.12-18H68V50.89h14.6v3.22Z"/><path class="cls-1" d="M105.49,68.74a3.89,3.89,0,0,1-1.31,3.1A5.38,5.38,0,0,1,100.49,73a15.3,15.3,0,0,1-3.15-.31,9.44,9.44,0,0,1-2.48-.84l.53-3.16a10.61,10.61,0,0,0,4.71,1.4,1.34,1.34,0,0,0,1-.3,1,1,0,0,0,.29-.67,1.23,1.23,0,0,0-.23-.76,3.74,3.74,0,0,0-1.13-.72,20,20,0,0,1-2.19-1.12,7.49,7.49,0,0,1-1.49-1.16,3.79,3.79,0,0,1-.83-1.29,4.16,4.16,0,0,1-.27-1.55,3.49,3.49,0,0,1,1.5-3,6.63,6.63,0,0,1,3.92-1.07,12.5,12.5,0,0,1,2.31.2,11.11,11.11,0,0,1,2.31.79l-.49,3.13a7.3,7.3,0,0,0-2.13-.85,9.89,9.89,0,0,0-2-.23,1.45,1.45,0,0,0-1,.26,1,1,0,0,0-.26.7,1,1,0,0,0,.42.85,9,9,0,0,0,1.65.85,19.64,19.64,0,0,1,1.88,1.07,6.36,6.36,0,0,1,1.27,1.06,3.33,3.33,0,0,1,.71,1.14A4.45,4.45,0,0,1,105.49,68.74Z"/><path class="cls-1" d="M123,64.9a10.41,10.41,0,0,1-.44,3.1,7.2,7.2,0,0,1-1.22,2.41A5.5,5.5,0,0,1,119.41,72a5.84,5.84,0,0,1-4,.34,4.72,4.72,0,0,1-1.39-.8V81.76h-4.34V63c0-.22,0-.48-.05-.79s-.07-.62-.12-1-.12-.67-.19-1a6.9,6.9,0,0,0-.26-.93h4.2a3.59,3.59,0,0,1,.23.6c0,.18.08.46.13.85a6.63,6.63,0,0,1,1.86-1.42,5,5,0,0,1,2.14-.44,5.39,5.39,0,0,1,2.19.44,4.76,4.76,0,0,1,1.69,1.22,5.53,5.53,0,0,1,1.09,1.9A7.47,7.47,0,0,1,123,64.9Zm-4.13.69a2.94,2.94,0,0,0-.61-2,2.12,2.12,0,0,0-1.7-.72,2.46,2.46,0,0,0-2,.91,3.82,3.82,0,0,0-.74,2.46V68a3.28,3.28,0,0,0,2.2.83,2.64,2.64,0,0,0,2.09-.87A3.52,3.52,0,0,0,118.82,65.59Z"/><path class="cls-1" d="M136.74,72.52c0-.14,0-.32,0-.52s0-.36-.05-.59,0-.47,0-.71a4.89,4.89,0,0,1-2,1.59,6.56,6.56,0,0,1-2.64.54,4.88,4.88,0,0,1-4-1.67,7.22,7.22,0,0,1-1.42-4.77,7.37,7.37,0,0,1,2.28-5.79,9.47,9.47,0,0,1,6.49-2c.46,0,.88,0,1.26,0s.75,0,1.13.1.77.12,1.16.21a12.92,12.92,0,0,1,1.32.34v8.8c0,.48,0,1,0,1.5s.05,1,.09,1.45.08,1,.12,1.51Zm-.65-10.1a6.62,6.62,0,0,0-1-.16l-.82,0a3.33,3.33,0,0,0-2.65,1.1,4.55,4.55,0,0,0-.94,3.06,3,3,0,0,0,.57,2,1.94,1.94,0,0,0,1.6.68,2.79,2.79,0,0,0,1.25-.28,3.12,3.12,0,0,0,1-.79,3.86,3.86,0,0,0,.69-1.21,4.48,4.48,0,0,0,.25-1.56Z"/><path class="cls-1" d="M154.85,72.52c0-.12,0-.26-.07-.43s0-.31-.06-.5,0-.41-.06-.68a5.68,5.68,0,0,1-2.06,1.54,6.33,6.33,0,0,1-2.45.45,6.11,6.11,0,0,1-2.47-.48,5.42,5.42,0,0,1-1.88-1.34A6,6,0,0,1,144.59,69a7.88,7.88,0,0,1-.44-2.7,9.26,9.26,0,0,1,.51-3.13,7.48,7.48,0,0,1,1.43-2.46,6.41,6.41,0,0,1,2.18-1.61,6.61,6.61,0,0,1,2.79-.58,8.66,8.66,0,0,1,1.37.1A7.67,7.67,0,0,1,154,59V50.92h4.12V67.81c0,.35,0,.8.05,1.34s.06,1,.11,1.55.09,1.18.15,1.82Zm-.9-9.95a4.61,4.61,0,0,0-1.15-.31,9.79,9.79,0,0,0-1.11-.06,3.14,3.14,0,0,0-2.5,1.07,4.36,4.36,0,0,0-.92,2.93,3.16,3.16,0,0,0,.65,2.12,2.19,2.19,0,0,0,1.77.76,3.76,3.76,0,0,0,1.27-.21,2.46,2.46,0,0,0,1-.75,3.88,3.88,0,0,0,.69-1.38,7.48,7.48,0,0,0,.26-2.12Z"/><path class="cls-1" d="M174.5,62.64a3.49,3.49,0,0,1-.55,1.92A4.61,4.61,0,0,1,172.39,66,8.72,8.72,0,0,1,170,67a13.85,13.85,0,0,1-3.16.34l-.37,0h-.51a2.87,2.87,0,0,0,.93,1.84,3,3,0,0,0,2,.67,9.22,9.22,0,0,0,4.57-1.4v3.26a9,9,0,0,1-2.25,1,9.3,9.3,0,0,1-2.43.3,8,8,0,0,1-2.81-.47,5.59,5.59,0,0,1-2.12-1.35A6,6,0,0,1,162.5,69a7.83,7.83,0,0,1-.46-2.78,8.6,8.6,0,0,1,.54-3.11,7.25,7.25,0,0,1,1.52-2.44,6.68,6.68,0,0,1,2.34-1.58,7.91,7.91,0,0,1,3-.56,5.68,5.68,0,0,1,3.67,1.12A3.64,3.64,0,0,1,174.5,62.64Zm-4.12.31a1.11,1.11,0,0,0-.43-.86,1.64,1.64,0,0,0-1.07-.35,2.47,2.47,0,0,0-1.77.72,3.52,3.52,0,0,0-1,2,2.11,2.11,0,0,0,.49.07h.46C169.29,64.53,170.38,64,170.38,63Z"/><path class="cls-1" d="M187.71,68.74a3.89,3.89,0,0,1-1.32,3.1A5.38,5.38,0,0,1,182.7,73a15.3,15.3,0,0,1-3.15-.31,9.57,9.57,0,0,1-2.48-.84l.53-3.16a10.61,10.61,0,0,0,4.71,1.4,1.34,1.34,0,0,0,1-.3,1,1,0,0,0,.29-.67,1.17,1.17,0,0,0-.23-.76,3.61,3.61,0,0,0-1.13-.72A20,20,0,0,1,180,66.51a7.12,7.12,0,0,1-1.48-1.16,3.68,3.68,0,0,1-.84-1.29,4.16,4.16,0,0,1-.27-1.55,3.49,3.49,0,0,1,1.5-3,6.63,6.63,0,0,1,3.92-1.07,12.35,12.35,0,0,1,2.31.2,11.11,11.11,0,0,1,2.31.79L187,62.54a7.3,7.3,0,0,0-2.13-.85,9.89,9.89,0,0,0-2-.23,1.45,1.45,0,0,0-1,.26,1,1,0,0,0-.26.7,1,1,0,0,0,.42.85,9,9,0,0,0,1.65.85,21.27,21.27,0,0,1,1.89,1.07,6.57,6.57,0,0,1,1.26,1.06,3.33,3.33,0,0,1,.71,1.14A4.15,4.15,0,0,1,187.71,68.74Z"/></g></svg>