<svg xmlns="http://www.w3.org/2000/svg" viewBox="0 0 256 128"><defs><style>.cls-1{fill:#323232;}</style></defs><g id="_4_Shells" data-name="4 Shells"><path class="cls-1" d="M89,72.53H85.17V67.19h-8V50.86h4V63.72h4V58.48H89v5.24h2.76v3.44H89Z"/><path class="cls-1" d="M114.25,68.74a3.92,3.92,0,0,1-1.31,3.1A5.42,5.42,0,0,1,109.25,73a15.3,15.3,0,0,1-3.15-.31,9.09,9.09,0,0,1-2.48-.84l.53-3.16a10.57,10.57,0,0,0,4.71,1.4,1.31,1.31,0,0,0,1-.3.9.9,0,0,0,.3-.66,1.21,1.21,0,0,0-.23-.76,3.66,3.66,0,0,0-1.13-.73,18.4,18.4,0,0,1-2.19-1.12,7.21,7.21,0,0,1-1.49-1.16,4,4,0,0,1-.84-1.29,4.38,4.38,0,0,1-.26-1.55,3.49,3.49,0,0,1,1.5-3,6.61,6.61,0,0,1,3.92-1.07,12.5,12.5,0,0,1,2.31.2,11.11,11.11,0,0,1,2.31.79l-.49,3.13a7.64,7.64,0,0,0-2.14-.85,9.8,9.8,0,0,0-2-.23,1.45,1.45,0,0,0-1,.26.94.94,0,0,0-.27.7,1,1,0,0,0,.43.85,8.33,8.33,0,0,0,1.65.85,19.64,19.64,0,0,1,1.88,1.07,7,7,0,0,1,1.27,1.06,3.29,3.29,0,0,1,.7,1.14A4.15,4.15,0,0,1,114.25,68.74Z"/><path class="cls-1" d="M126.87,72.53V64.81a4.26,4.26,0,0,0-.14-1.19,1.64,1.64,0,0,0-.4-.69,1.23,1.23,0,0,0-.57-.31,2.84,2.84,0,0,0-.66-.08,1.89,1.89,0,0,0-1,.32,3,3,0,0,0-.87.85,4.55,4.55,0,0,0-.62,1.27,4.91,4.91,0,0,0-.24,1.54v6h-4.12V51.29h4.09v9.15a4.77,4.77,0,0,1,1.71-1.2,5.71,5.71,0,0,1,2.08-.35,6.72,6.72,0,0,1,1.79.24,4.38,4.38,0,0,1,1.56.77,3.8,3.8,0,0,1,1.11,1.4,4.77,4.77,0,0,1,.43,2.14v9.09Z"/><path class="cls-1" d="M147.82,62.64a3.49,3.49,0,0,1-.55,1.92A4.48,4.48,0,0,1,145.72,66a8.79,8.79,0,0,1-2.42,1,13.85,13.85,0,0,1-3.16.34l-.37,0h-.5a2.87,2.87,0,0,0,.93,1.84,2.91,2.91,0,0,0,2,.67,9.19,9.19,0,0,0,4.57-1.4v3.26a8.7,8.7,0,0,1-2.25,1,9.19,9.19,0,0,1-2.43.3,8.08,8.08,0,0,1-2.81-.47,5.86,5.86,0,0,1-2.12-1.34A6.06,6.06,0,0,1,135.83,69a7.79,7.79,0,0,1-.47-2.78,8.43,8.43,0,0,1,.55-3.11,7.33,7.33,0,0,1,1.51-2.44,6.77,6.77,0,0,1,2.34-1.58,8,8,0,0,1,3-.56,5.71,5.71,0,0,1,3.68,1.12A3.66,3.66,0,0,1,147.82,62.64ZM143.7,63a1.1,1.1,0,0,0-.42-.86,1.66,1.66,0,0,0-1.07-.35,2.44,2.44,0,0,0-1.77.73,3.4,3.4,0,0,0-.95,2,2.58,2.58,0,0,0,.49.06h.46C142.61,64.53,143.7,64,143.7,63Z"/><path class="cls-1" d="M151.23,72.53V50.92h4.13V72.53Z"/><path class="cls-1" d="M160.19,72.53V50.92h4.13V72.53Z"/><path class="cls-1" d="M179,68.74a3.89,3.89,0,0,1-1.32,3.1A5.38,5.38,0,0,1,173.94,73a15.13,15.13,0,0,1-3.14-.31,9.17,9.17,0,0,1-2.49-.84l.53-3.16a10.61,10.61,0,0,0,4.71,1.4,1.34,1.34,0,0,0,1-.3.89.89,0,0,0,.29-.66,1.15,1.15,0,0,0-.23-.76,3.41,3.41,0,0,0-1.13-.73,18.4,18.4,0,0,1-2.19-1.12,7.4,7.4,0,0,1-1.48-1.16,3.82,3.82,0,0,1-.84-1.29,4.17,4.17,0,0,1-.26-1.55,3.49,3.49,0,0,1,1.5-3,6.58,6.58,0,0,1,3.91-1.07,12.35,12.35,0,0,1,2.31.2,11.18,11.18,0,0,1,2.32.79l-.5,3.13a7.59,7.59,0,0,0-2.13-.85,9.89,9.89,0,0,0-2-.23,1.4,1.4,0,0,0-1,.26.94.94,0,0,0-.27.7,1,1,0,0,0,.42.85,8.82,8.82,0,0,0,1.66.85c.73.38,1.36.73,1.88,1.07A7,7,0,0,1,178,66.25a3.29,3.29,0,0,1,.7,1.14A4.15,4.15,0,0,1,179,68.74Z"/></g></svg>