<svg xmlns="http://www.w3.org/2000/svg" viewBox="0 0 256 128"><defs><style>.cls-1{fill:#323232;}</style></defs><g id="_4_Boat" data-name="4 Boat"><path class="cls-1" d="M96.54,72.52H92.69V67.19h-8V50.86h4V63.72h4V58.48H96.5v5.24h2.76v3.44H96.54Z"/><path class="cls-1" d="M125.64,64.72a9.32,9.32,0,0,1-.53,3.21,6.73,6.73,0,0,1-3.93,4,8.32,8.32,0,0,1-3.11.55A15.45,15.45,0,0,1,115,72.2a13.85,13.85,0,0,1-2.91-.88v-20h4.12v9.2A4.85,4.85,0,0,1,118,59.28a6.18,6.18,0,0,1,2.25-.39,5.77,5.77,0,0,1,2.22.41,4.72,4.72,0,0,1,1.72,1.18,5.37,5.37,0,0,1,1.1,1.84A6.94,6.94,0,0,1,125.64,64.72Zm-4.12.75a2.75,2.75,0,0,0-.62-1.9,2.25,2.25,0,0,0-1.76-.69,3,3,0,0,0-1.25.26,2.91,2.91,0,0,0-.94.68,3,3,0,0,0-.59,1,3.33,3.33,0,0,0-.2,1.18v2.36a4.2,4.2,0,0,0,1,.36,5.72,5.72,0,0,0,1.13.09,3.19,3.19,0,0,0,2.39-.89A3.35,3.35,0,0,0,121.52,65.47Z"/><path class="cls-1" d="M143.07,65.66a7.87,7.87,0,0,1-.51,2.94,6,6,0,0,1-1.45,2.14,6.15,6.15,0,0,1-2.26,1.33,9.67,9.67,0,0,1-5.83,0,6,6,0,0,1-3.72-3.47,7.68,7.68,0,0,1-.52-2.94,7.56,7.56,0,0,1,.5-2.86,5.9,5.9,0,0,1,1.44-2.13A6,6,0,0,1,133,59.34a10,10,0,0,1,5.88,0,6.38,6.38,0,0,1,2.26,1.3,5.88,5.88,0,0,1,1.45,2.14A7.7,7.7,0,0,1,143.07,65.66Zm-4.13,0a2.85,2.85,0,0,0-3.07-3.12,2.88,2.88,0,0,0-2.2.82,3.22,3.22,0,0,0-.77,2.3,3.4,3.4,0,0,0,.75,2.37,2.82,2.82,0,0,0,2.22.84,3,3,0,0,0,2.27-.82A3.27,3.27,0,0,0,138.94,65.66Z"/><path class="cls-1" d="M156.58,72.52c0-.14,0-.32,0-.52s0-.36-.05-.59,0-.47-.05-.71a4.89,4.89,0,0,1-2,1.59,6.56,6.56,0,0,1-2.64.54,4.88,4.88,0,0,1-4-1.67,7.17,7.17,0,0,1-1.42-4.77,7.37,7.37,0,0,1,2.28-5.79,9.45,9.45,0,0,1,6.49-2c.46,0,.88,0,1.26,0s.75,0,1.13.1.77.12,1.16.21a12.92,12.92,0,0,1,1.32.34v8.8q0,.72,0,1.5c0,.53.06,1,.1,1.45s.08,1,.12,1.51Zm-.65-10.1a6.62,6.62,0,0,0-1-.16l-.82,0a3.33,3.33,0,0,0-2.65,1.1,4.55,4.55,0,0,0-.94,3.06,3.05,3.05,0,0,0,.56,2,2,2,0,0,0,1.61.68,2.79,2.79,0,0,0,1.25-.28,3,3,0,0,0,1-.79,3.7,3.7,0,0,0,.7-1.21,4.48,4.48,0,0,0,.25-1.56Z"/><path class="cls-1" d="M165.32,72.52V61.83H162.6V58.89h2.72V55.44h4.06v3.45h3.51v2.94h-3.51V72.52Z"/></g></svg>