<svg xmlns="http://www.w3.org/2000/svg" viewBox="0 0 256 128"><defs><style>.cls-1{fill:#323232;}</style></defs><g id="_10_Watermelon" data-name="10 Watermelon"><path class="cls-1" d="M31.13,72.53V55.62c-.42.48-.81.91-1.18,1.29l-1.21,1.22-2-2.79c.62-.53,1.22-1.07,1.8-1.6s1-.94,1.52-1.46.94-1,1.28-1.39h4V72.53Z"/><path class="cls-1" d="M57,61.33q0,5.91-2,8.55a7.14,7.14,0,0,1-6,2.65,7.13,7.13,0,0,1-6-2.66q-2-2.66-2-8.15t2-8.15a7.09,7.09,0,0,1,6-2.68Q57,50.89,57,61.33Zm-4.87.18a13.69,13.69,0,0,0-.81-5.09A2.43,2.43,0,0,0,49,54.89a2.6,2.6,0,0,0-2.4,1.65A15,15,0,0,0,45.73,62a13.39,13.39,0,0,0,.81,4.84A2.6,2.6,0,0,0,49,68.53a2.46,2.46,0,0,0,2.32-1.62A14.44,14.44,0,0,0,52.14,61.51Z"/><path class="cls-1" d="M86.65,71a2.43,2.43,0,0,1-.82,1.17,2.54,2.54,0,0,1-1.41.35A2.34,2.34,0,0,1,83,72.15a2.75,2.75,0,0,1-.81-1.26l-2.63-8L76.79,71A2,2,0,0,1,76,72.18a2.71,2.71,0,0,1-1.47.35,4.4,4.4,0,0,1-.65,0,1.72,1.72,0,0,1-.59-.2,1.58,1.58,0,0,1-.53-.48,2.89,2.89,0,0,1-.43-.88L68,58.89h4.18l1.8,5.5c.06.2.13.44.2.71s.15.54.23.8.18.63.28,1a5,5,0,0,1,.19-.76c.06-.22.13-.45.2-.71l.2-.71L77,58.89h5L83.89,65a5.39,5.39,0,0,0,.17.59c.07.22.14.42.2.62a5.56,5.56,0,0,1,.19.7c.06-.2.12-.41.18-.64.11-.4.22-.78.34-1.15l1.83-6.19h4.34Z"/><path class="cls-1" d="M103.54,72.53c0-.15,0-.32,0-.53s0-.36-.05-.59,0-.47,0-.71a4.89,4.89,0,0,1-2,1.59,6.56,6.56,0,0,1-2.64.54,4.88,4.88,0,0,1-4-1.67,7.17,7.17,0,0,1-1.42-4.77,7.33,7.33,0,0,1,2.28-5.78c1.52-1.36,3.68-2,6.49-2q.69,0,1.26,0c.38,0,.75,0,1.13.1s.77.12,1.16.21a12.92,12.92,0,0,1,1.32.34v8.8q0,.72,0,1.5c0,.53.06,1,.1,1.45l.12,1.52Zm-.65-10.11a8.27,8.27,0,0,0-1-.16l-.82,0a3.33,3.33,0,0,0-2.65,1.1,4.55,4.55,0,0,0-.94,3.06,3.05,3.05,0,0,0,.56,2,2,2,0,0,0,1.61.68,2.82,2.82,0,0,0,1.25-.28,2.87,2.87,0,0,0,1-.79,3.7,3.7,0,0,0,.7-1.21,4.48,4.48,0,0,0,.25-1.56Z"/><path class="cls-1" d="M112.28,72.53V61.83h-2.72V58.89h2.72V55.44h4.06v3.45h3.51v2.94h-3.51v10.7Z"/><path class="cls-1" d="M133.24,62.64a3.49,3.49,0,0,1-.55,1.92A4.61,4.61,0,0,1,131.13,66a8.72,8.72,0,0,1-2.41,1,13.85,13.85,0,0,1-3.16.34l-.37,0h-.51a2.87,2.87,0,0,0,.93,1.84,2.92,2.92,0,0,0,2,.67,9.22,9.22,0,0,0,4.57-1.4v3.26a9,9,0,0,1-2.25,1,9.32,9.32,0,0,1-2.44.3,8,8,0,0,1-2.8-.47,5.7,5.7,0,0,1-2.12-1.34A6.09,6.09,0,0,1,121.24,69a7.79,7.79,0,0,1-.46-2.78,8.64,8.64,0,0,1,.54-3.11,7.35,7.35,0,0,1,1.52-2.44,6.68,6.68,0,0,1,2.34-1.58,7.91,7.91,0,0,1,3-.56,5.68,5.68,0,0,1,3.67,1.12A3.64,3.64,0,0,1,133.24,62.64Zm-4.12.31a1.11,1.11,0,0,0-.43-.86,1.64,1.64,0,0,0-1.07-.35,2.44,2.44,0,0,0-1.77.73,3.46,3.46,0,0,0-.95,2,2.67,2.67,0,0,0,.49.06h.46C128,64.53,129.12,64,129.12,63Z"/><path class="cls-1" d="M146,62.7l-.68-.13a4.73,4.73,0,0,0-.56,0A3.17,3.17,0,0,0,142,63.75a6,6,0,0,0-.92,3.61v5.17H137v-9c0-.5,0-.94,0-1.32s0-.72-.07-1a9.6,9.6,0,0,0-.17-1c-.08-.31-.17-.67-.3-1.08h3.92c.06.26.12.47.17.65a3.61,3.61,0,0,1,.11.51c0,.16.05.33.07.51a6,6,0,0,1,0,.65,7.18,7.18,0,0,1,1.76-2,3.41,3.41,0,0,1,2-.58,3.06,3.06,0,0,1,.73.07,8.05,8.05,0,0,1,.82.31Z"/><path class="cls-1" d="M166.32,72.53V65.78a4.44,4.44,0,0,0-.53-2.53,1.67,1.67,0,0,0-1.41-.71,2.26,2.26,0,0,0-.93.22,2.29,2.29,0,0,0-.84.73,3.69,3.69,0,0,0-.62,1.35,8,8,0,0,0-.23,2.12v5.57h-4.12V65.78a5,5,0,0,0-.48-2.46,1.75,1.75,0,0,0-1.6-.78,2.25,2.25,0,0,0-1.83,1.05A5.71,5.71,0,0,0,153,67v5.57h-4.12V64c0-.5,0-1,0-1.37s-.06-.79-.11-1.15a7.38,7.38,0,0,0-.22-1.06c-.09-.34-.2-.7-.32-1.08h4.12c.11.32.18.56.23.72s.11.4.18.69a9.6,9.6,0,0,1,2.14-1.31,7,7,0,0,1,2.83-.51,5,5,0,0,1,2.12.44,3.19,3.19,0,0,1,1.4,1.26,4.54,4.54,0,0,1,2.07-1.27,8.57,8.57,0,0,1,2.67-.43,4.42,4.42,0,0,1,3.35,1.23,5,5,0,0,1,1.18,3.58v8.83Z"/><path class="cls-1" d="M187.18,62.64a3.58,3.58,0,0,1-.55,1.92A4.61,4.61,0,0,1,185.07,66a8.72,8.72,0,0,1-2.41,1,13.91,13.91,0,0,1-3.16.34l-.38,0h-.5a2.87,2.87,0,0,0,.93,1.84,2.92,2.92,0,0,0,2,.67,9.15,9.15,0,0,0,4.56-1.4v3.26a8.79,8.79,0,0,1-2.24,1,9.32,9.32,0,0,1-2.44.3,8,8,0,0,1-2.8-.47,5.82,5.82,0,0,1-2.13-1.34A6.21,6.21,0,0,1,175.18,69a7.79,7.79,0,0,1-.46-2.78,8.64,8.64,0,0,1,.54-3.11,7.35,7.35,0,0,1,1.52-2.44,6.68,6.68,0,0,1,2.34-1.58,7.89,7.89,0,0,1,3-.56,5.71,5.71,0,0,1,3.68,1.12A3.64,3.64,0,0,1,187.18,62.64Zm-4.12.31a1.11,1.11,0,0,0-.43-.86,1.64,1.64,0,0,0-1.07-.35,2.44,2.44,0,0,0-1.77.73,3.46,3.46,0,0,0-.95,2,2.67,2.67,0,0,0,.49.06h.46C182,64.53,183.06,64,183.06,63Z"/><path class="cls-1" d="M190.59,72.53V50.92h4.12V72.53Z"/><path class="cls-1" d="M213.06,65.66a7.87,7.87,0,0,1-.51,2.94,5.84,5.84,0,0,1-1.45,2.14,6.19,6.19,0,0,1-2.25,1.33,8.73,8.73,0,0,1-2.92.46,8.63,8.63,0,0,1-2.91-.46,6.15,6.15,0,0,1-2.26-1.33,6,6,0,0,1-1.46-2.14,7.67,7.67,0,0,1-.53-2.94,7.56,7.56,0,0,1,.51-2.86A5.91,5.91,0,0,1,203,59.34a9.15,9.15,0,0,1,3-.45,9.28,9.28,0,0,1,2.92.43,6.42,6.42,0,0,1,2.25,1.3,5.76,5.76,0,0,1,1.45,2.14A7.7,7.7,0,0,1,213.06,65.66Zm-4.12,0a2.87,2.87,0,0,0-3.07-3.12,2.87,2.87,0,0,0-2.21.83,3.22,3.22,0,0,0-.77,2.29,3.36,3.36,0,0,0,.76,2.37,2.82,2.82,0,0,0,2.22.84,3,3,0,0,0,2.27-.82A3.3,3.3,0,0,0,208.94,65.66Z"/><path class="cls-1" d="M225.83,72.53V64.79a3.07,3.07,0,0,0-.2-1.26,1.68,1.68,0,0,0-.48-.67,1.18,1.18,0,0,0-.59-.27,3.75,3.75,0,0,0-.52-.05,3.19,3.19,0,0,0-.66.12,2.28,2.28,0,0,0-.94.57,3.76,3.76,0,0,0-.85,1.32,5.92,5.92,0,0,0-.38,2.33v5.65h-4.12v-9a15.9,15.9,0,0,0-.18-2.35,7.65,7.65,0,0,0-.5-1.9h4.12a4.84,4.84,0,0,1,.27.71c0,.19.11.45.17.81a6.36,6.36,0,0,1,2.12-1.43,6.14,6.14,0,0,1,2.31-.46,4.53,4.53,0,0,1,1.81.36,4.21,4.21,0,0,1,1.44,1,4.47,4.47,0,0,1,1,1.6A6.18,6.18,0,0,1,230,64v8.54Z"/></g></svg>