<svg xmlns="http://www.w3.org/2000/svg" viewBox="0 0 256 128"><defs><style>.cls-1{opacity:0.5;}.cls-2{fill:#fff800;}</style></defs><g id="Layer_37" data-name="Layer 37"><g class="cls-1"><path d="M86.38,41.1V87.5H73.82V41H58.94V31.66H101.1V41.1Z"/><path d="M142.94,83.59a6.09,6.09,0,0,1-2.12,3,6.38,6.38,0,0,1-3.64.9,6,6,0,0,1-3.68-1,6.78,6.78,0,0,1-2.08-3.25l-6.8-20.75L117.5,83.68a5.17,5.17,0,0,1-2,2.92,7,7,0,0,1-3.8.9,11.26,11.26,0,0,1-1.68-.12,4.08,4.08,0,0,1-2.88-1.75A8.27,8.27,0,0,1,106,83.36L94.78,52.3h10.8l4.64,14.2c.16.52.33,1.14.52,1.84s.39,1.39.6,2.07.45,1.61.72,2.49a16.24,16.24,0,0,1,.48-2c.16-.57.33-1.18.52-1.83s.36-1.26.52-1.84l4.48-15h13L135.82,68a15.26,15.26,0,0,0,.44,1.52c.19.55.36,1.08.52,1.6a10.47,10.47,0,0,1,.48,1.79c.16-.52.32-1.06.48-1.63.27-1,.56-2,.88-3l4.72-16h11.2Z"/><path d="M196.86,69.79a20.14,20.14,0,0,1-1.32,7.57,15,15,0,0,1-3.74,5.54A16.16,16.16,0,0,1,186,86.33a24.82,24.82,0,0,1-15.06,0,16.08,16.08,0,0,1-5.81-3.43,15.66,15.66,0,0,1-3.79-5.54A19.74,19.74,0,0,1,160,69.79a19.64,19.64,0,0,1,1.31-7.39A15.37,15.37,0,0,1,165,56.9a15.67,15.67,0,0,1,5.81-3.43,25.62,25.62,0,0,1,15.18,0,16,16,0,0,1,5.81,3.35,14.77,14.77,0,0,1,3.74,5.51A19.91,19.91,0,0,1,196.86,69.79Zm-10.64,0a8,8,0,0,0-2.15-5.93,7.86,7.86,0,0,0-5.77-2.12,7.43,7.43,0,0,0-5.7,2.12,8.35,8.35,0,0,0-2,5.93,8.82,8.82,0,0,0,1.94,6.11,7.31,7.31,0,0,0,5.74,2.16,7.82,7.82,0,0,0,5.86-2.12A8.48,8.48,0,0,0,186.22,69.79Z"/></g><path class="cls-2" d="M83.38,38.1V84.5H70.82V38H55.94V28.66H98.1V38.1Z"/><path class="cls-2" d="M139.94,80.59a6.09,6.09,0,0,1-2.12,3,6.38,6.38,0,0,1-3.64.9,6,6,0,0,1-3.68-1,6.78,6.78,0,0,1-2.08-3.25l-6.8-20.75L114.5,80.68a5.17,5.17,0,0,1-2,2.92,7,7,0,0,1-3.8.9,11.26,11.26,0,0,1-1.68-.12,4.08,4.08,0,0,1-2.88-1.75A8.27,8.27,0,0,1,103,80.36L91.78,49.3h10.8l4.64,14.2c.16.52.33,1.14.52,1.84s.39,1.39.6,2.07.45,1.61.72,2.49a16.24,16.24,0,0,1,.48-2c.16-.57.33-1.18.52-1.83s.36-1.26.52-1.84l4.48-15h13L132.82,65a15.26,15.26,0,0,0,.44,1.52c.19.55.36,1.08.52,1.6a10.47,10.47,0,0,1,.48,1.79c.16-.52.32-1.06.48-1.63.27-1,.56-2,.88-3l4.72-16h11.2Z"/><path class="cls-2" d="M193.86,66.79a20.14,20.14,0,0,1-1.32,7.57,15,15,0,0,1-3.74,5.54A16.16,16.16,0,0,1,183,83.33a24.82,24.82,0,0,1-15.06,0,16.08,16.08,0,0,1-5.81-3.43,15.66,15.66,0,0,1-3.79-5.54A19.74,19.74,0,0,1,157,66.79a19.64,19.64,0,0,1,1.31-7.39A15.37,15.37,0,0,1,162,53.9a15.67,15.67,0,0,1,5.81-3.43,25.62,25.62,0,0,1,15.18,0,16,16,0,0,1,5.81,3.35,14.77,14.77,0,0,1,3.74,5.51A19.91,19.91,0,0,1,193.86,66.79Zm-10.64,0a8,8,0,0,0-2.15-5.93,7.86,7.86,0,0,0-5.77-2.12,7.43,7.43,0,0,0-5.7,2.12,8.35,8.35,0,0,0-2,5.93,8.82,8.82,0,0,0,1.94,6.11,7.31,7.31,0,0,0,5.74,2.16,7.82,7.82,0,0,0,5.86-2.12A8.48,8.48,0,0,0,183.22,66.79Z"/></g></svg>