<svg xmlns="http://www.w3.org/2000/svg" viewBox="0 0 256 128"><defs><style>.cls-1{opacity:0.5;}.cls-2{fill:#fff200;}</style></defs><g id="Layer_36" data-name="Layer 36"><g class="cls-1"><path d="M97.82,41.1V87.5H85.26V41H70.38V31.66h42.16V41.1Z"/><path d="M140.7,62a9,9,0,0,1-1.42,5,12,12,0,0,1-4,3.8A22.07,22.07,0,0,1,129,73.18a34.51,34.51,0,0,1-8.15.88c-.28,0-.6,0-1,0s-.8,0-1.3,0a7.39,7.39,0,0,0,2.4,4.76,7.59,7.59,0,0,0,5.18,1.72A23.67,23.67,0,0,0,138,76.86v8.4a23.32,23.32,0,0,1-5.8,2.52,24.13,24.13,0,0,1-6.28.76,20.71,20.71,0,0,1-7.24-1.2,14.7,14.7,0,0,1-5.48-3.48,15.53,15.53,0,0,1-3.44-5.44,20.06,20.06,0,0,1-1.2-7.16,22.32,22.32,0,0,1,1.4-8,18.61,18.61,0,0,1,3.92-6.28,17.25,17.25,0,0,1,6-4.08,20.31,20.31,0,0,1,7.76-1.44q5.93,0,9.48,2.88A9.39,9.39,0,0,1,140.7,62Zm-10.64.8a2.76,2.76,0,0,0-1.1-2.2,4.16,4.16,0,0,0-2.76-.92,6.33,6.33,0,0,0-4.56,1.88,8.9,8.9,0,0,0-2.46,5.16,6.49,6.49,0,0,0,1.27.16h1.19Q130.06,66.86,130.06,62.78Z"/><path d="M172.14,87.5v-20a8,8,0,0,0-.52-3.23,4.61,4.61,0,0,0-1.24-1.74,3,3,0,0,0-1.52-.69,9.4,9.4,0,0,0-1.36-.12,7.76,7.76,0,0,0-1.68.31,5.74,5.74,0,0,0-2.44,1.46,10,10,0,0,0-2.2,3.4,15.5,15.5,0,0,0-1,6V87.5H149.58V64.23a39.87,39.87,0,0,0-.48-6.07,19.89,19.89,0,0,0-1.28-4.9h10.64a15,15,0,0,1,.68,1.84c.13.48.28,1.17.44,2.08a16.62,16.62,0,0,1,5.49-3.68,15.8,15.8,0,0,1,6-1.2,11.66,11.66,0,0,1,4.67.93,11.27,11.27,0,0,1,3.72,2.61A12,12,0,0,1,181.88,60a15.89,15.89,0,0,1,.9,5.49v22Z"/></g><path class="cls-2" d="M94.82,38.1V84.5H82.26V38H67.38V28.66h42.16V38.1Z"/><path class="cls-2" d="M137.7,59a9,9,0,0,1-1.42,5,12,12,0,0,1-4,3.8A22.07,22.07,0,0,1,126,70.18a34.51,34.51,0,0,1-8.15.88c-.28,0-.6,0-1,0s-.8,0-1.3,0a7.39,7.39,0,0,0,2.4,4.76,7.59,7.59,0,0,0,5.18,1.72A23.67,23.67,0,0,0,135,73.86v8.4a23.32,23.32,0,0,1-5.8,2.52,24.13,24.13,0,0,1-6.28.76,20.71,20.71,0,0,1-7.24-1.2,14.7,14.7,0,0,1-5.48-3.48,15.53,15.53,0,0,1-3.44-5.44,20.06,20.06,0,0,1-1.2-7.16,22.32,22.32,0,0,1,1.4-8,18.61,18.61,0,0,1,3.92-6.28,17.25,17.25,0,0,1,6-4.08,20.31,20.31,0,0,1,7.76-1.44q5.93,0,9.48,2.88A9.39,9.39,0,0,1,137.7,59Zm-10.64.8a2.76,2.76,0,0,0-1.1-2.2,4.16,4.16,0,0,0-2.76-.92,6.33,6.33,0,0,0-4.56,1.88,8.9,8.9,0,0,0-2.46,5.16,6.49,6.49,0,0,0,1.27.16h1.19Q127.06,63.86,127.06,59.78Z"/><path class="cls-2" d="M169.14,84.5v-20a8,8,0,0,0-.52-3.23,4.61,4.61,0,0,0-1.24-1.74,3,3,0,0,0-1.52-.69,9.4,9.4,0,0,0-1.36-.12,7.76,7.76,0,0,0-1.68.31,5.74,5.74,0,0,0-2.44,1.46,10,10,0,0,0-2.2,3.4,15.5,15.5,0,0,0-1,6V84.5H146.58V61.23a39.87,39.87,0,0,0-.48-6.07,19.89,19.89,0,0,0-1.28-4.9h10.64a15,15,0,0,1,.68,1.84c.13.48.28,1.17.44,2.08a16.62,16.62,0,0,1,5.49-3.68,15.8,15.8,0,0,1,6-1.2,11.66,11.66,0,0,1,4.67.93,11.27,11.27,0,0,1,3.72,2.61A12,12,0,0,1,178.88,57a15.89,15.89,0,0,1,.9,5.49v22Z"/></g></svg>