<svg xmlns="http://www.w3.org/2000/svg" viewBox="0 0 256 128"><defs><style>.cls-1{fill:#323232;}</style></defs><g id="_10_Coconut" data-name="10 Coconut"><path class="cls-1" d="M59.09,72.53V55.62c-.42.48-.81.91-1.18,1.29s-.77.79-1.21,1.22l-2-2.79c.62-.53,1.22-1.07,1.79-1.6s1-.94,1.52-1.46a18.13,18.13,0,0,0,1.28-1.39h4V72.53Z"/><path class="cls-1" d="M85,61.33q0,5.91-2,8.55a7.14,7.14,0,0,1-6,2.65,7.13,7.13,0,0,1-6-2.66q-2-2.66-2-8.15t2-8.15a7.09,7.09,0,0,1,6-2.68Q85,50.89,85,61.33Zm-4.86.18a13.69,13.69,0,0,0-.81-5.09,2.45,2.45,0,0,0-2.37-1.53,2.6,2.6,0,0,0-2.4,1.65A15,15,0,0,0,73.69,62a13.39,13.39,0,0,0,.81,4.84,2.6,2.6,0,0,0,2.43,1.67,2.46,2.46,0,0,0,2.32-1.62A14.4,14.4,0,0,0,80.11,61.51Z"/><path class="cls-1" d="M105.76,72.27a9.25,9.25,0,0,1-2.22.26,7.53,7.53,0,0,1-2.73-.49,6.88,6.88,0,0,1-2.15-1.35,5.77,5.77,0,0,1-1.41-2.07,7.08,7.08,0,0,1-.5-2.69,8.63,8.63,0,0,1,.45-2.84,5.89,5.89,0,0,1,1.37-2.24,6.33,6.33,0,0,1,2.26-1.45,8.89,8.89,0,0,1,3.15-.51,7.14,7.14,0,0,1,2.37.32,8.51,8.51,0,0,1,1.53.7l-.71,3.56-.79-.38a4.13,4.13,0,0,0-.62-.28,2.69,2.69,0,0,0-.65-.16,7.09,7.09,0,0,0-.86,0,3.21,3.21,0,0,0-2.38.84,3.1,3.1,0,0,0-.84,2.29,3,3,0,0,0,.87,2.3,3.5,3.5,0,0,0,2.51.83,7,7,0,0,0,1.61-.19,10,10,0,0,0,1.65-.59l.27,3.37A10.46,10.46,0,0,1,105.76,72.27Z"/><path class="cls-1" d="M124.81,65.66a7.87,7.87,0,0,1-.51,2.94,5.84,5.84,0,0,1-1.45,2.14,6.15,6.15,0,0,1-2.26,1.33,9.47,9.47,0,0,1-5.83,0,6.19,6.19,0,0,1-2.25-1.33A6,6,0,0,1,111,68.6a7.68,7.68,0,0,1-.52-2.94A7.56,7.56,0,0,1,111,62.8a5.88,5.88,0,0,1,1.43-2.13,6,6,0,0,1,2.25-1.33,10,10,0,0,1,5.88,0,6.38,6.38,0,0,1,2.26,1.3,5.76,5.76,0,0,1,1.45,2.14A7.7,7.7,0,0,1,124.81,65.66Zm-4.13,0a2.87,2.87,0,0,0-3.07-3.12,2.86,2.86,0,0,0-2.2.83,3.22,3.22,0,0,0-.77,2.29,3.4,3.4,0,0,0,.75,2.37,2.82,2.82,0,0,0,2.22.84,3,3,0,0,0,2.27-.82A3.26,3.26,0,0,0,120.68,65.66Z"/><path class="cls-1" d="M137.19,72.27a9.23,9.23,0,0,1-2.21.26,7.45,7.45,0,0,1-2.73-.49,6.81,6.81,0,0,1-2.16-1.35,5.77,5.77,0,0,1-1.41-2.07,7.08,7.08,0,0,1-.49-2.69,8.63,8.63,0,0,1,.45-2.84A5.87,5.87,0,0,1,130,60.85a6.33,6.33,0,0,1,2.26-1.45,8.89,8.89,0,0,1,3.15-.51,7.14,7.14,0,0,1,2.37.32,9,9,0,0,1,1.54.7l-.72,3.56-.79-.38a4.13,4.13,0,0,0-.62-.28,2.48,2.48,0,0,0-.65-.16,7,7,0,0,0-.85,0,3.22,3.22,0,0,0-2.39.84,3.1,3.1,0,0,0-.84,2.29,3,3,0,0,0,.87,2.3,3.52,3.52,0,0,0,2.51.83,7.18,7.18,0,0,0,1.62-.19,10.26,10.26,0,0,0,1.64-.59l.28,3.37A10.75,10.75,0,0,1,137.19,72.27Z"/><path class="cls-1" d="M156.24,65.66a7.87,7.87,0,0,1-.51,2.94,5.84,5.84,0,0,1-1.45,2.14A6.19,6.19,0,0,1,152,72.07a9.5,9.5,0,0,1-5.84,0,6.19,6.19,0,0,1-2.25-1.33,6,6,0,0,1-1.47-2.14,7.68,7.68,0,0,1-.52-2.94,7.56,7.56,0,0,1,.51-2.86,5.84,5.84,0,0,1,3.69-3.46,9.15,9.15,0,0,1,3-.45,9.28,9.28,0,0,1,2.92.43,6.42,6.42,0,0,1,2.25,1.3,5.76,5.76,0,0,1,1.45,2.14A7.7,7.7,0,0,1,156.24,65.66Zm-4.12,0a2.87,2.87,0,0,0-3.07-3.12,2.87,2.87,0,0,0-2.21.83,3.22,3.22,0,0,0-.77,2.29,3.4,3.4,0,0,0,.75,2.37,2.86,2.86,0,0,0,2.23.84,3,3,0,0,0,2.27-.82A3.3,3.3,0,0,0,152.12,65.66Z"/><path class="cls-1" d="M169,72.53V64.79a3.07,3.07,0,0,0-.2-1.26,1.68,1.68,0,0,0-.48-.67,1.22,1.22,0,0,0-.59-.27,3.74,3.74,0,0,0-.53-.05,3.13,3.13,0,0,0-.65.12,2.22,2.22,0,0,0-.94.57,3.76,3.76,0,0,0-.85,1.32,5.92,5.92,0,0,0-.38,2.33v5.65h-4.12v-9a14.68,14.68,0,0,0-.19-2.35,7.7,7.7,0,0,0-.49-1.9h4.12A4.62,4.62,0,0,1,164,60a8.27,8.27,0,0,1,.18.81,6.36,6.36,0,0,1,2.12-1.43,6.14,6.14,0,0,1,2.31-.46,4.53,4.53,0,0,1,1.81.36,4.41,4.41,0,0,1,1.44,1,4.77,4.77,0,0,1,1,1.6,6.18,6.18,0,0,1,.35,2.13v8.54Z"/><path class="cls-1" d="M187.4,72.15a4.84,4.84,0,0,1-.27-.71c0-.19-.11-.45-.17-.81a6,6,0,0,1-4.37,1.9,4.49,4.49,0,0,1-1.84-.38,4.52,4.52,0,0,1-2.47-2.64,6,6,0,0,1-.34-2.08c0-.85,0-1.63.06-2.36s.07-1.42.09-2.08,0-1.33,0-2-.07-1.37-.15-2.11h4.12c.06.67.1,1.33.11,2s0,1.25,0,1.87,0,1.25-.06,1.88-.05,1.32-.05,2a3.37,3.37,0,0,0,.2,1.27,1.39,1.39,0,0,0,1.13.92,4.13,4.13,0,0,0,.55.05,3.09,3.09,0,0,0,.66-.12,2.14,2.14,0,0,0,.93-.57,3.79,3.79,0,0,0,.83-1.31,6.48,6.48,0,0,0,.35-2.34V58.89h4.13v9a15.8,15.8,0,0,0,.18,2.35,7.65,7.65,0,0,0,.5,1.9Z"/><path class="cls-1" d="M196.94,72.53V61.83h-2.73V58.89h2.73V55.44H201v3.45h3.51v2.94H201v10.7Z"/></g></svg>