<svg xmlns="http://www.w3.org/2000/svg" viewBox="0 0 256 128"><defs><style>.cls-1{fill:#323232;}</style></defs><g id="_3_Hot_air_ballons" data-name="3 Hot air ballons"><path class="cls-1" d="M27.62,66.68A5.26,5.26,0,0,1,27.1,69a5.09,5.09,0,0,1-1.52,1.85,7.32,7.32,0,0,1-2.42,1.21,10.78,10.78,0,0,1-3.16.43,13.43,13.43,0,0,1-2.4-.19,8.47,8.47,0,0,1-2-.61,8,8,0,0,1-1.77-1.12,12.27,12.27,0,0,1-1.67-1.7l2-2.76a6.94,6.94,0,0,0,5.18,2.73,3.74,3.74,0,0,0,2.43-.72,2.5,2.5,0,0,0,1-1.89,2.46,2.46,0,0,0-.25-1.35,2.56,2.56,0,0,0-1.05-1,5.92,5.92,0,0,0-2.08-.61,16.38,16.38,0,0,0-3.29-.07V59.54a23.66,23.66,0,0,0,3.12,0,5.54,5.54,0,0,0,1.92-.42,2.06,2.06,0,0,0,1-.88,2.82,2.82,0,0,0,.3-1.36,2.25,2.25,0,0,0-.9-1.72,3.56,3.56,0,0,0-2.23-.65,5.31,5.31,0,0,0-2.21.49,9.27,9.27,0,0,0-2.23,1.57l-1.73-2.93c1.55-1.86,3.93-2.78,7.16-2.78a8.91,8.91,0,0,1,2.73.39,6.23,6.23,0,0,1,2.09,1.11,5,5,0,0,1,1.33,1.72,5.35,5.35,0,0,1,.46,2.27,4.79,4.79,0,0,1-.89,3,7.07,7.07,0,0,1-3,2,5.87,5.87,0,0,1,3.43,1.75A5.22,5.22,0,0,1,27.62,66.68Z"/><path class="cls-1" d="M49.57,72.52V64.81a3.91,3.91,0,0,0-.14-1.19,1.54,1.54,0,0,0-.4-.69,1.16,1.16,0,0,0-.56-.31,3,3,0,0,0-.67-.08,1.89,1.89,0,0,0-1,.32,3,3,0,0,0-.87.85A4.85,4.85,0,0,0,45.28,65a5.22,5.22,0,0,0-.23,1.54v6H40.92V51.29H45v9.15a4.77,4.77,0,0,1,1.71-1.2,5.64,5.64,0,0,1,2.08-.35,6.64,6.64,0,0,1,1.78.24,4.38,4.38,0,0,1,1.56.77,3.92,3.92,0,0,1,1.12,1.4,4.91,4.91,0,0,1,.43,2.14v9.08Z"/><path class="cls-1" d="M72.23,65.66a7.87,7.87,0,0,1-.51,2.94,5.84,5.84,0,0,1-1.45,2.14A6.11,6.11,0,0,1,68,72.07a9.67,9.67,0,0,1-5.83,0,6,6,0,0,1-3.72-3.47,7.67,7.67,0,0,1-.53-2.94,7.56,7.56,0,0,1,.51-2.86,5.91,5.91,0,0,1,3.69-3.46,10,10,0,0,1,5.88,0,6.34,6.34,0,0,1,2.25,1.3,5.76,5.76,0,0,1,1.45,2.14A7.7,7.7,0,0,1,72.23,65.66Zm-4.12,0A2.85,2.85,0,0,0,65,62.54a2.9,2.9,0,0,0-2.21.82,3.26,3.26,0,0,0-.76,2.3A3.4,3.4,0,0,0,62.82,68a2.82,2.82,0,0,0,2.22.84,3,3,0,0,0,2.27-.82A3.32,3.32,0,0,0,68.11,65.66Z"/><path class="cls-1" d="M76.29,72.52V61.83H73.57V58.89h2.72V55.44h4.06v3.45h3.51v2.94H80.35V72.52Z"/><path class="cls-1" d="M105.52,72.52c0-.14,0-.32,0-.52s0-.36,0-.59,0-.47,0-.71a4.82,4.82,0,0,1-2,1.59,6.49,6.49,0,0,1-2.64.54,4.89,4.89,0,0,1-4-1.67,7.22,7.22,0,0,1-1.41-4.77,7.37,7.37,0,0,1,2.28-5.79,9.45,9.45,0,0,1,6.49-2c.46,0,.88,0,1.25,0s.76,0,1.14.1.76.12,1.16.21a12.92,12.92,0,0,1,1.32.34v8.8q0,.72,0,1.5c0,.53,0,1,.09,1.45s.08,1,.13,1.51Zm-.64-10.1a6.84,6.84,0,0,0-1-.16l-.82,0a3.31,3.31,0,0,0-2.65,1.1,4.56,4.56,0,0,0-1,3.06,3,3,0,0,0,.57,2,2,2,0,0,0,1.61.68,2.78,2.78,0,0,0,1.24-.28,3.12,3.12,0,0,0,1-.79,3.86,3.86,0,0,0,.69-1.21,4.48,4.48,0,0,0,.26-1.56Z"/><path class="cls-1" d="M118.36,55.14a1.72,1.72,0,0,1-.71,1.38,2.86,2.86,0,0,1-3.44,0,1.86,1.86,0,0,1-.75-1.42,1.69,1.69,0,0,1,.68-1.42,2.76,2.76,0,0,1,1.8-.58,2.66,2.66,0,0,1,.92.16,2.4,2.4,0,0,1,.77.43,2.14,2.14,0,0,1,.53.66A1.72,1.72,0,0,1,118.36,55.14Zm-4.65,17.38V58.89h4.12V72.52Z"/><path class="cls-1" d="M131.84,62.7l-.68-.13a4.61,4.61,0,0,0-.56,0,3.18,3.18,0,0,0-2.68,1.21,5.94,5.94,0,0,0-.91,3.6v5.17h-4.12V63.57c0-.5,0-.94,0-1.32s0-.72-.08-1-.1-.64-.17-1-.17-.67-.29-1.08h3.91c.07.26.12.47.18.65a3.61,3.61,0,0,1,.11.51l.06.51a6,6,0,0,1,0,.65,7.19,7.19,0,0,1,1.77-2,3.39,3.39,0,0,1,2-.58,2.92,2.92,0,0,1,.72.07c.2.06.47.16.83.31Z"/><path class="cls-1" d="M157.85,64.72a9.32,9.32,0,0,1-.53,3.21,6.8,6.8,0,0,1-3.93,4,8.32,8.32,0,0,1-3.11.55,15.45,15.45,0,0,1-3.09-.32,14.14,14.14,0,0,1-2.92-.88v-20h4.13v9.2a4.9,4.9,0,0,1,1.76-1.19,6.27,6.27,0,0,1,2.26-.39,5.77,5.77,0,0,1,2.22.41,4.81,4.81,0,0,1,1.72,1.18,5.37,5.37,0,0,1,1.1,1.84A6.94,6.94,0,0,1,157.85,64.72Zm-4.12.75a2.71,2.71,0,0,0-.63-1.9,2.23,2.23,0,0,0-1.75-.69,3,3,0,0,0-1.25.26,2.91,2.91,0,0,0-.94.68,3,3,0,0,0-.6,1,3.56,3.56,0,0,0-.19,1.18v2.36a4.2,4.2,0,0,0,1,.36,5.72,5.72,0,0,0,1.13.09,3.21,3.21,0,0,0,2.39-.89A3.35,3.35,0,0,0,153.73,65.47Z"/><path class="cls-1" d="M171.27,72.52c0-.14,0-.32,0-.52s0-.36-.05-.59,0-.47-.05-.71a4.82,4.82,0,0,1-2,1.59,6.53,6.53,0,0,1-2.64.54,4.88,4.88,0,0,1-4-1.67,7.22,7.22,0,0,1-1.41-4.77,7.37,7.37,0,0,1,2.28-5.79,9.43,9.43,0,0,1,6.49-2c.46,0,.88,0,1.25,0s.76,0,1.13.1.77.12,1.17.21a12.92,12.92,0,0,1,1.32.34v8.8q0,.72,0,1.5c0,.53.05,1,.09,1.45s.08,1,.13,1.51Zm-.65-10.1a6.51,6.51,0,0,0-1-.16l-.82,0a3.31,3.31,0,0,0-2.65,1.1,4.56,4.56,0,0,0-1,3.06,3,3,0,0,0,.57,2,2,2,0,0,0,1.61.68,2.78,2.78,0,0,0,1.24-.28,3.12,3.12,0,0,0,1-.79,3.86,3.86,0,0,0,.69-1.21,4.48,4.48,0,0,0,.25-1.56Z"/><path class="cls-1" d="M179.33,72.52V50.92h4.13v21.6Z"/><path class="cls-1" d="M188.29,72.52V50.92h4.13v21.6Z"/><path class="cls-1" d="M210.77,65.66a7.87,7.87,0,0,1-.51,2.94,5.84,5.84,0,0,1-1.45,2.14,6.15,6.15,0,0,1-2.26,1.33,8.89,8.89,0,0,1-2.91.45,9,9,0,0,1-2.92-.45,6.19,6.19,0,0,1-2.25-1.33A6,6,0,0,1,197,68.6a7.68,7.68,0,0,1-.52-2.94A7.56,7.56,0,0,1,197,62.8a5.88,5.88,0,0,1,1.43-2.13,6,6,0,0,1,2.25-1.33,10,10,0,0,1,5.88,0,6.38,6.38,0,0,1,2.26,1.3,5.76,5.76,0,0,1,1.45,2.14A7.7,7.7,0,0,1,210.77,65.66Zm-4.12,0a2.87,2.87,0,0,0-3.08-3.12,2.9,2.9,0,0,0-2.2.82,3.26,3.26,0,0,0-.77,2.3,3.4,3.4,0,0,0,.75,2.37,2.82,2.82,0,0,0,2.22.84,3.09,3.09,0,0,0,2.28-.82A3.32,3.32,0,0,0,206.65,65.66Z"/><path class="cls-1" d="M223.54,72.52V64.78a3.23,3.23,0,0,0-.2-1.25,1.9,1.9,0,0,0-.48-.67,1.22,1.22,0,0,0-.59-.27,3.87,3.87,0,0,0-.53-.05,3.13,3.13,0,0,0-.65.12,2.22,2.22,0,0,0-.94.57,3.77,3.77,0,0,0-.86,1.32,5.94,5.94,0,0,0-.37,2.33v5.64H214.8v-9a14.59,14.59,0,0,0-.19-2.35,7.7,7.7,0,0,0-.49-1.9h4.12a6,6,0,0,1,.26.71c.05.19.11.45.17.81a6.5,6.5,0,0,1,2.13-1.43,6.14,6.14,0,0,1,2.31-.46,4.49,4.49,0,0,1,1.8.36,4.35,4.35,0,0,1,1.45,1,4.6,4.6,0,0,1,.95,1.6,5.93,5.93,0,0,1,.35,2.12v8.54Z"/><path class="cls-1" d="M242.48,68.74a3.92,3.92,0,0,1-1.31,3.1,5.43,5.43,0,0,1-3.7,1.15,15.2,15.2,0,0,1-3.14-.31,9.32,9.32,0,0,1-2.48-.84l.52-3.16a10.61,10.61,0,0,0,4.72,1.4,1.31,1.31,0,0,0,1-.3.91.91,0,0,0,.3-.67,1.19,1.19,0,0,0-.24-.76,3.61,3.61,0,0,0-1.13-.72,19,19,0,0,1-2.18-1.12,7.21,7.21,0,0,1-1.49-1.16,4,4,0,0,1-.84-1.29,4.38,4.38,0,0,1-.26-1.55,3.49,3.49,0,0,1,1.5-3,6.6,6.6,0,0,1,3.91-1.07,12.35,12.35,0,0,1,2.31.2,11,11,0,0,1,2.32.79l-.5,3.13a7.59,7.59,0,0,0-2.13-.85,9.87,9.87,0,0,0-2-.23,1.45,1.45,0,0,0-1,.26.94.94,0,0,0-.27.7,1,1,0,0,0,.43.85,8.33,8.33,0,0,0,1.65.85,21,21,0,0,1,1.88,1.07,6.65,6.65,0,0,1,1.27,1.06,3.29,3.29,0,0,1,.7,1.14A4.15,4.15,0,0,1,242.48,68.74Z"/></g></svg>