<svg xmlns="http://www.w3.org/2000/svg" viewBox="0 0 256 128"><defs><style>.cls-1{opacity:0.5;}.cls-2{fill:#fff200;}</style></defs><g id="Layer_33" data-name="Layer 33"><g class="cls-1"><path d="M65.46,72a16.52,16.52,0,0,1-1.09,6.11A12.67,12.67,0,0,1,61,83a16.27,16.27,0,0,1-5.79,3.24,28.64,28.64,0,0,1-8.67,1.28,39.21,39.21,0,0,1-4.52-.29A40.15,40.15,0,0,1,37,86.26a41,41,0,0,1-5.24-1.7,29.62,29.62,0,0,1-4.84-2.44l3-9.66A40.11,40.11,0,0,0,39.58,77a24,24,0,0,0,7,1.08,7.29,7.29,0,0,0,4.56-1.46,4.42,4.42,0,0,0,1.6-3.76A5.5,5.5,0,0,0,51.3,69.3,17.23,17.23,0,0,0,46.58,66a88.9,88.9,0,0,1-8-4.8,30.58,30.58,0,0,1-5.4-4.57,15.94,15.94,0,0,1-3-4.69,14.72,14.72,0,0,1-1-5.15q-.16-7.07,4.75-11t13.92-4.11q2.54,0,4.59.12a23.59,23.59,0,0,1,4.08.58,28.3,28.3,0,0,1,4.15,1.32q2.14.85,4.75,2.18l-2.24,9.49c-1.39-.78-2.67-1.43-3.84-1.94a31.26,31.26,0,0,0-3.36-1.24,21.86,21.86,0,0,0-3.16-.69,23.33,23.33,0,0,0-3.32-.22,9.88,9.88,0,0,0-5.64,1.39,4.64,4.64,0,0,0-2,4.25,5.07,5.07,0,0,0,1.91,3.64,35.74,35.74,0,0,0,6.06,3.94q4.16,2.33,7.14,4.29a28.28,28.28,0,0,1,4.9,4A12.91,12.91,0,0,1,64.58,67,13.56,13.56,0,0,1,65.46,72Z"/><path d="M105.78,62a9,9,0,0,1-1.42,5,12,12,0,0,1-4,3.8,22.07,22.07,0,0,1-6.23,2.44,34.51,34.51,0,0,1-8.15.88c-.28,0-.6,0-1,0s-.8,0-1.3,0a7.39,7.39,0,0,0,2.4,4.76,7.59,7.59,0,0,0,5.18,1.72,23.67,23.67,0,0,0,11.78-3.6v8.4a23.32,23.32,0,0,1-5.8,2.52,24.13,24.13,0,0,1-6.28.76,20.71,20.71,0,0,1-7.24-1.2,14.7,14.7,0,0,1-5.48-3.48,15.53,15.53,0,0,1-3.44-5.44,20.06,20.06,0,0,1-1.2-7.16,22.32,22.32,0,0,1,1.4-8,18.61,18.61,0,0,1,3.92-6.28,17.25,17.25,0,0,1,6-4.08,20.31,20.31,0,0,1,7.76-1.44q5.92,0,9.48,2.88A9.39,9.39,0,0,1,105.78,62Zm-10.64.8a2.79,2.79,0,0,0-1.1-2.2,4.16,4.16,0,0,0-2.76-.92,6.31,6.31,0,0,0-4.56,1.88,8.9,8.9,0,0,0-2.46,5.16,6.49,6.49,0,0,0,1.27.16h1.19Q95.14,66.86,95.14,62.78Z"/><path d="M135.22,82.28c-.43.94-.83,1.74-1.2,2.42a5.83,5.83,0,0,1-1.28,1.63,4.33,4.33,0,0,1-1.64.9,8.18,8.18,0,0,1-2.28.27,6.23,6.23,0,0,1-3.72-1,8.64,8.64,0,0,1-2.52-3.82L110,52.3h11L127,68.5c.43,1.14.81,2.23,1.16,3.27a25.85,25.85,0,0,1,.76,2.65c.27-.73.61-1.63,1-2.69s.85-2.12,1.28-3.15l6.32-16.28h11Z"/><path d="M185.54,62a9.13,9.13,0,0,1-1.42,5,12,12,0,0,1-4,3.8,22.19,22.19,0,0,1-6.23,2.44,34.51,34.51,0,0,1-8.15.88c-.28,0-.6,0-1,0s-.8,0-1.3,0a7.39,7.39,0,0,0,2.4,4.76A7.59,7.59,0,0,0,171,80.46a23.67,23.67,0,0,0,11.78-3.6v8.4a23.32,23.32,0,0,1-5.8,2.52,24.13,24.13,0,0,1-6.28.76,20.71,20.71,0,0,1-7.24-1.2A14.7,14.7,0,0,1,158,83.86a15.53,15.53,0,0,1-3.44-5.44,20.06,20.06,0,0,1-1.2-7.16,22.32,22.32,0,0,1,1.4-8,18.61,18.61,0,0,1,3.92-6.28,17.25,17.25,0,0,1,6-4.08,20.31,20.31,0,0,1,7.76-1.44q5.92,0,9.48,2.88A9.39,9.39,0,0,1,185.54,62Zm-10.64.8a2.79,2.79,0,0,0-1.1-2.2,4.16,4.16,0,0,0-2.76-.92,6.31,6.31,0,0,0-4.56,1.88A8.9,8.9,0,0,0,164,66.7a6.49,6.49,0,0,0,1.27.16h1.19Q174.9,66.86,174.9,62.78Z"/><path d="M217,87.5v-20a8,8,0,0,0-.52-3.23,4.61,4.61,0,0,0-1.24-1.74,3,3,0,0,0-1.52-.69,9.4,9.4,0,0,0-1.36-.12,7.76,7.76,0,0,0-1.68.31,5.74,5.74,0,0,0-2.44,1.46,10,10,0,0,0-2.2,3.4,15.5,15.5,0,0,0-1,6V87.5H194.42V64.23a39.87,39.87,0,0,0-.48-6.07,19.89,19.89,0,0,0-1.28-4.9H203.3A15,15,0,0,1,204,55.1c.13.48.28,1.17.44,2.08a16.62,16.62,0,0,1,5.49-3.68,15.8,15.8,0,0,1,6-1.2,11.69,11.69,0,0,1,4.67.93,11.38,11.38,0,0,1,3.72,2.61A12.18,12.18,0,0,1,226.72,60a15.89,15.89,0,0,1,.9,5.49v22Z"/></g><path class="cls-2" d="M62.46,69a16.52,16.52,0,0,1-1.09,6.11A12.67,12.67,0,0,1,58,80a16.27,16.27,0,0,1-5.79,3.24,28.64,28.64,0,0,1-8.67,1.28,39.21,39.21,0,0,1-4.52-.29A40.15,40.15,0,0,1,34,83.26a41,41,0,0,1-5.24-1.7,29.62,29.62,0,0,1-4.84-2.44l3-9.66A40.11,40.11,0,0,0,36.58,74a24,24,0,0,0,7,1.08,7.29,7.29,0,0,0,4.56-1.46,4.42,4.42,0,0,0,1.6-3.76A5.5,5.5,0,0,0,48.3,66.3,17.23,17.23,0,0,0,43.58,63a88.9,88.9,0,0,1-8-4.8,30.58,30.58,0,0,1-5.4-4.57,15.94,15.94,0,0,1-3-4.69,14.72,14.72,0,0,1-1-5.15q-.16-7.07,4.75-11t13.92-4.11q2.54,0,4.59.12a23.59,23.59,0,0,1,4.08.58,28.3,28.3,0,0,1,4.15,1.32q2.14.86,4.75,2.18l-2.24,9.49c-1.39-.78-2.67-1.43-3.84-1.94a31.26,31.26,0,0,0-3.36-1.24,21.86,21.86,0,0,0-3.16-.69,23.33,23.33,0,0,0-3.32-.22,9.88,9.88,0,0,0-5.64,1.39,4.64,4.64,0,0,0-2,4.25,5.07,5.07,0,0,0,1.91,3.64,35.74,35.74,0,0,0,6.06,3.94q4.16,2.33,7.14,4.29a28.28,28.28,0,0,1,4.9,4A12.91,12.91,0,0,1,61.58,64,13.56,13.56,0,0,1,62.46,69Z"/><path class="cls-2" d="M102.78,59a9,9,0,0,1-1.42,5,12,12,0,0,1-4,3.8,22.07,22.07,0,0,1-6.23,2.44,34.51,34.51,0,0,1-8.15.88c-.28,0-.6,0-1,0s-.8,0-1.3,0a7.39,7.39,0,0,0,2.4,4.76,7.59,7.59,0,0,0,5.18,1.72,23.67,23.67,0,0,0,11.78-3.6v8.4a23.32,23.32,0,0,1-5.8,2.52,24.13,24.13,0,0,1-6.28.76,20.71,20.71,0,0,1-7.24-1.2,14.7,14.7,0,0,1-5.48-3.48,15.53,15.53,0,0,1-3.44-5.44,20.06,20.06,0,0,1-1.2-7.16,22.32,22.32,0,0,1,1.4-8,18.61,18.61,0,0,1,3.92-6.28,17.25,17.25,0,0,1,6-4.08,20.31,20.31,0,0,1,7.76-1.44q5.92,0,9.48,2.88A9.39,9.39,0,0,1,102.78,59Zm-10.64.8a2.79,2.79,0,0,0-1.1-2.2,4.16,4.16,0,0,0-2.76-.92,6.31,6.31,0,0,0-4.56,1.88,8.9,8.9,0,0,0-2.46,5.16,6.49,6.49,0,0,0,1.27.16h1.19Q92.14,63.86,92.14,59.78Z"/><path class="cls-2" d="M132.22,79.28c-.43.94-.83,1.74-1.2,2.42a5.83,5.83,0,0,1-1.28,1.63,4.33,4.33,0,0,1-1.64.9,8.18,8.18,0,0,1-2.28.27,6.23,6.23,0,0,1-3.72-1,8.64,8.64,0,0,1-2.52-3.82L107,49.3h11L124,65.5c.43,1.14.81,2.23,1.16,3.27a25.85,25.85,0,0,1,.76,2.65c.27-.73.61-1.63,1-2.69s.85-2.12,1.28-3.15l6.32-16.28h11Z"/><path class="cls-2" d="M182.54,59a9.13,9.13,0,0,1-1.42,5,12,12,0,0,1-4,3.8,22.19,22.19,0,0,1-6.23,2.44,34.51,34.51,0,0,1-8.15.88c-.28,0-.6,0-1,0s-.8,0-1.3,0a7.39,7.39,0,0,0,2.4,4.76A7.59,7.59,0,0,0,168,77.46a23.67,23.67,0,0,0,11.78-3.6v8.4a23.32,23.32,0,0,1-5.8,2.52,24.13,24.13,0,0,1-6.28.76,20.71,20.71,0,0,1-7.24-1.2A14.7,14.7,0,0,1,155,80.86a15.53,15.53,0,0,1-3.44-5.44,20.06,20.06,0,0,1-1.2-7.16,22.32,22.32,0,0,1,1.4-8,18.61,18.61,0,0,1,3.92-6.28,17.25,17.25,0,0,1,6-4.08,20.31,20.31,0,0,1,7.76-1.44q5.92,0,9.48,2.88A9.39,9.39,0,0,1,182.54,59Zm-10.64.8a2.79,2.79,0,0,0-1.1-2.2,4.16,4.16,0,0,0-2.76-.92,6.31,6.31,0,0,0-4.56,1.88A8.9,8.9,0,0,0,161,63.7a6.49,6.49,0,0,0,1.27.16h1.19Q171.9,63.86,171.9,59.78Z"/><path class="cls-2" d="M214,84.5v-20a8,8,0,0,0-.52-3.23,4.61,4.61,0,0,0-1.24-1.74,3,3,0,0,0-1.52-.69,9.4,9.4,0,0,0-1.36-.12,7.76,7.76,0,0,0-1.68.31,5.74,5.74,0,0,0-2.44,1.46,10,10,0,0,0-2.2,3.4,15.5,15.5,0,0,0-1,6V84.5H191.42V61.23a39.87,39.87,0,0,0-.48-6.07,19.89,19.89,0,0,0-1.28-4.9H200.3A15,15,0,0,1,201,52.1c.13.48.28,1.17.44,2.08a16.62,16.62,0,0,1,5.49-3.68,15.8,15.8,0,0,1,6-1.2,11.69,11.69,0,0,1,4.67.93,11.38,11.38,0,0,1,3.72,2.61A12.18,12.18,0,0,1,223.72,57a15.89,15.89,0,0,1,.9,5.49v22Z"/></g></svg>