<svg xmlns="http://www.w3.org/2000/svg" viewBox="0 0 256 128"><defs><style>.cls-1{fill:#323232;}</style></defs><g id="_1_Whistle" data-name="1 Whistle"><path class="cls-1" d="M72.23,72.52V55.62c-.41.48-.8.91-1.18,1.29l-1.2,1.22-2-2.79c.62-.53,1.22-1.07,1.8-1.61s1-.93,1.52-1.45.94-1,1.27-1.39h4V72.52Z"/><path class="cls-1" d="M110.73,71a2.36,2.36,0,0,1-.82,1.17,2.49,2.49,0,0,1-1.41.34,2.31,2.31,0,0,1-1.42-.37,2.75,2.75,0,0,1-.81-1.26l-2.63-8L100.88,71a2,2,0,0,1-.79,1.14,2.77,2.77,0,0,1-1.48.34,4.63,4.63,0,0,1-.65,0,1.87,1.87,0,0,1-.59-.2,1.65,1.65,0,0,1-.52-.48,3.13,3.13,0,0,1-.44-.88l-4.34-12h4.19l1.8,5.5c.06.2.12.44.2.71s.15.54.23.8.17.63.28,1a6.35,6.35,0,0,1,.18-.76c.07-.22.13-.46.21-.71s.13-.49.2-.71l1.73-5.8h5L108,65a3.82,3.82,0,0,0,.17.59c.07.22.14.42.2.62a4.23,4.23,0,0,1,.18.7c.07-.2.13-.41.19-.64.1-.4.22-.78.34-1.15l1.83-6.19h4.34Z"/><path class="cls-1" d="M127.07,72.52V64.81a4.26,4.26,0,0,0-.14-1.19,1.64,1.64,0,0,0-.4-.69,1.23,1.23,0,0,0-.57-.31,2.84,2.84,0,0,0-.66-.08,1.89,1.89,0,0,0-1,.32,3,3,0,0,0-.87.85,4.85,4.85,0,0,0-.62,1.27,4.91,4.91,0,0,0-.24,1.54v6h-4.12V51.29h4.09v9.15a4.72,4.72,0,0,1,1.72-1.2,5.62,5.62,0,0,1,2.07-.35,6.66,6.66,0,0,1,1.79.24,4.38,4.38,0,0,1,1.56.77,3.92,3.92,0,0,1,1.12,1.4,4.92,4.92,0,0,1,.42,2.14v9.08Z"/><path class="cls-1" d="M141,55.14a1.72,1.72,0,0,1-.71,1.38,2.67,2.67,0,0,1-1.71.57,2.72,2.72,0,0,1-1.74-.58,1.88,1.88,0,0,1-.74-1.42,1.69,1.69,0,0,1,.68-1.42,2.76,2.76,0,0,1,1.8-.58,2.66,2.66,0,0,1,.92.16,2.51,2.51,0,0,1,.77.43,2.14,2.14,0,0,1,.53.66A1.72,1.72,0,0,1,141,55.14Zm-4.65,17.38V58.89h4.12V72.52Z"/><path class="cls-1" d="M155,68.74a3.92,3.92,0,0,1-1.31,3.1A5.43,5.43,0,0,1,150,73a15.13,15.13,0,0,1-3.14-.31,9.32,9.32,0,0,1-2.48-.84l.52-3.16a10.61,10.61,0,0,0,4.72,1.4,1.31,1.31,0,0,0,1-.3.91.91,0,0,0,.3-.67,1.19,1.19,0,0,0-.24-.76,3.61,3.61,0,0,0-1.13-.72,18.2,18.2,0,0,1-2.18-1.12,7.21,7.21,0,0,1-1.49-1.16,4,4,0,0,1-.84-1.29,4.38,4.38,0,0,1-.26-1.55,3.49,3.49,0,0,1,1.5-3,6.6,6.6,0,0,1,3.91-1.07,12.35,12.35,0,0,1,2.31.2,11,11,0,0,1,2.32.79l-.5,3.13a7.59,7.59,0,0,0-2.13-.85,9.89,9.89,0,0,0-2-.23,1.42,1.42,0,0,0-1,.26.94.94,0,0,0-.27.7,1,1,0,0,0,.43.85,8.33,8.33,0,0,0,1.65.85c.73.38,1.36.73,1.88,1.07a6.65,6.65,0,0,1,1.27,1.06,3.29,3.29,0,0,1,.7,1.14A4.15,4.15,0,0,1,155,68.74Z"/><path class="cls-1" d="M159.62,72.52V61.83h-2.73V58.89h2.73V55.44h4.06v3.45h3.5v2.94h-3.5V72.52Z"/><path class="cls-1" d="M169.69,72.52V50.92h4.13v21.6Z"/><path class="cls-1" d="M190.46,62.64a3.49,3.49,0,0,1-.55,1.92A4.57,4.57,0,0,1,188.36,66a8.79,8.79,0,0,1-2.42,1,13.85,13.85,0,0,1-3.16.34l-.37,0h-.5a2.87,2.87,0,0,0,.93,1.84,3,3,0,0,0,2,.67,9.19,9.19,0,0,0,4.57-1.4v3.26a8.85,8.85,0,0,1-2.25,1,9.19,9.19,0,0,1-2.43.3,8.08,8.08,0,0,1-2.81-.47,5.75,5.75,0,0,1-2.12-1.35,5.93,5.93,0,0,1-1.33-2.1,7.79,7.79,0,0,1-.47-2.78,8.64,8.64,0,0,1,.54-3.11,7.41,7.41,0,0,1,1.52-2.44,6.68,6.68,0,0,1,2.34-1.58,8,8,0,0,1,3-.56,5.68,5.68,0,0,1,3.67,1.12A3.64,3.64,0,0,1,190.46,62.64Zm-4.12.31a1.1,1.1,0,0,0-.42-.86,1.67,1.67,0,0,0-1.08-.35,2.42,2.42,0,0,0-1.76.73,3.46,3.46,0,0,0-1,2,2.76,2.76,0,0,0,.5.06h.46C185.25,64.53,186.34,64,186.34,63Z"/></g></svg>