<svg xmlns="http://www.w3.org/2000/svg" viewBox="0 0 256 128"><defs><style>.cls-1{fill:#323232;}</style></defs><g id="_7_Toy_Buckets" data-name="7 Toy Buckets"><path class="cls-1" d="M40.78,72.53H36.1l8.12-18H34.49V50.89h14.6v3.22Z"/><path class="cls-1" d="M63.16,72.53V61.83H60.44V58.89h2.72V55.44h4.07v3.45h3.5v2.94h-3.5v10.7Z"/><path class="cls-1" d="M85.83,65.66a7.87,7.87,0,0,1-.51,2.94,5.87,5.87,0,0,1-1.46,2.14,6,6,0,0,1-2.25,1.33,9.47,9.47,0,0,1-5.83,0,6,6,0,0,1-3.72-3.47,7.67,7.67,0,0,1-.53-2.94A7.56,7.56,0,0,1,72,62.8a5.9,5.9,0,0,1,1.44-2.13,6,6,0,0,1,2.25-1.33,10,10,0,0,1,5.88,0,6.25,6.25,0,0,1,2.25,1.3,5.78,5.78,0,0,1,1.46,2.14A7.7,7.7,0,0,1,85.83,65.66Zm-4.13,0a3.08,3.08,0,0,0-.83-2.29,3,3,0,0,0-2.24-.83,2.89,2.89,0,0,0-2.21.83,3.22,3.22,0,0,0-.76,2.29A3.4,3.4,0,0,0,76.41,68a2.82,2.82,0,0,0,2.22.84,3,3,0,0,0,2.27-.82A3.3,3.3,0,0,0,81.7,65.66Z"/><path class="cls-1" d="M101.66,77a6.88,6.88,0,0,1-1.35,2.85A4.83,4.83,0,0,1,98,81.33a11.94,11.94,0,0,1-3.43.43,9.6,9.6,0,0,1-2-.2A19,19,0,0,1,90.45,81v-3.1c.69.06,1.33.1,2,.14s1.21,0,1.81,0a4.42,4.42,0,0,0,1.67-.29A2.55,2.55,0,0,0,97,76.88a4.45,4.45,0,0,0,.65-1.72,14,14,0,0,0,.2-2.63V70.85A5.29,5.29,0,0,1,94,72.53a4.5,4.5,0,0,1-1.78-.37,4.27,4.27,0,0,1-1.48-1,5.36,5.36,0,0,1-1-1.64,5.91,5.91,0,0,1-.37-2.17c0-.73,0-1.42,0-2.09s0-1.33,0-2,0-1.35,0-2.06,0-1.47-.11-2.27h4.12c.06.82.1,1.58.11,2.28s0,1.36,0,2,0,1.21,0,1.78,0,1.14,0,1.7a2.6,2.6,0,0,0,.46,1.7,1.67,1.67,0,0,0,1.32.53,2.52,2.52,0,0,0,1.9-.86,3.29,3.29,0,0,0,.79-2.3V58.89h4.12V72.53A18.74,18.74,0,0,1,101.66,77Z"/><path class="cls-1" d="M130.19,64.72a9.08,9.08,0,0,1-.54,3.21,6.75,6.75,0,0,1-3.92,4,8.38,8.38,0,0,1-3.12.56,15.49,15.49,0,0,1-3.09-.33,14.23,14.23,0,0,1-2.91-.88v-20h4.12v9.2a4.85,4.85,0,0,1,1.77-1.19,6.18,6.18,0,0,1,2.25-.39,5.77,5.77,0,0,1,2.22.41,4.72,4.72,0,0,1,1.72,1.18,5.37,5.37,0,0,1,1.1,1.84A6.94,6.94,0,0,1,130.19,64.72Zm-4.13.75a2.75,2.75,0,0,0-.62-1.9,2.25,2.25,0,0,0-1.75-.69,2.91,2.91,0,0,0-1.25.26,3.11,3.11,0,0,0-1,.68,3,3,0,0,0-.59,1,3.61,3.61,0,0,0-.2,1.18v2.36a3.78,3.78,0,0,0,1,.36,5.72,5.72,0,0,0,1.13.09,3.19,3.19,0,0,0,2.39-.89A3.35,3.35,0,0,0,126.06,65.47Z"/><path class="cls-1" d="M143.33,72.15a6,6,0,0,1-.26-.71,6.4,6.4,0,0,1-.17-.81,6.07,6.07,0,0,1-4.38,1.9,4.52,4.52,0,0,1-1.84-.38,4.52,4.52,0,0,1-2.47-2.64,6.26,6.26,0,0,1-.34-2.08c0-.85,0-1.63.07-2.36S134,63.65,134,63s0-1.33,0-2-.07-1.37-.16-2.11H138c.06.67.09,1.33.11,2s0,1.25,0,1.87,0,1.25-.07,1.88,0,1.32,0,2a3.4,3.4,0,0,0,.19,1.27,1.5,1.5,0,0,0,.5.67,1.51,1.51,0,0,0,.63.25,4.28,4.28,0,0,0,.55.05,3.09,3.09,0,0,0,.66-.12,2.16,2.16,0,0,0,.94-.57,3.93,3.93,0,0,0,.82-1.31,6.25,6.25,0,0,0,.36-2.34V58.89h4.12v9a14.59,14.59,0,0,0,.19,2.35,7.7,7.7,0,0,0,.49,1.9Z"/><path class="cls-1" d="M160.27,72.27a9.25,9.25,0,0,1-2.22.26,7.44,7.44,0,0,1-2.72-.49,6.81,6.81,0,0,1-2.16-1.35,5.77,5.77,0,0,1-1.41-2.07,7.08,7.08,0,0,1-.5-2.69,8.63,8.63,0,0,1,.45-2.84,5.89,5.89,0,0,1,1.37-2.24,6.33,6.33,0,0,1,2.26-1.45,8.89,8.89,0,0,1,3.15-.51,7.14,7.14,0,0,1,2.37.32,8.51,8.51,0,0,1,1.53.7l-.71,3.56-.79-.38a4.13,4.13,0,0,0-.62-.28,2.58,2.58,0,0,0-.65-.16,7,7,0,0,0-.85,0,3.22,3.22,0,0,0-2.39.84,3.1,3.1,0,0,0-.84,2.29,3,3,0,0,0,.87,2.3,3.52,3.52,0,0,0,2.51.83,7,7,0,0,0,1.61-.19,10,10,0,0,0,1.65-.59l.28,3.37A10.75,10.75,0,0,1,160.27,72.27Z"/><path class="cls-1" d="M173.92,64.47l6.61,8.06h-5.46l-5.14-6.73v6.73H165.8V50.92h4.13V63.38l5-4.49h5.92Z"/><path class="cls-1" d="M194.45,62.64a3.58,3.58,0,0,1-.55,1.92A4.61,4.61,0,0,1,192.34,66a8.72,8.72,0,0,1-2.41,1,13.91,13.91,0,0,1-3.16.34l-.38,0h-.5a2.87,2.87,0,0,0,.93,1.84,2.92,2.92,0,0,0,2,.67,9.18,9.18,0,0,0,4.56-1.4v3.26a8.79,8.79,0,0,1-2.24,1,9.32,9.32,0,0,1-2.44.3,8,8,0,0,1-2.8-.47,5.82,5.82,0,0,1-2.13-1.34A6.06,6.06,0,0,1,182.45,69a7.79,7.79,0,0,1-.46-2.78,8.64,8.64,0,0,1,.54-3.11,7.35,7.35,0,0,1,1.52-2.44,6.68,6.68,0,0,1,2.34-1.58,7.89,7.89,0,0,1,3-.56,5.71,5.71,0,0,1,3.68,1.12A3.64,3.64,0,0,1,194.45,62.64Zm-4.13.31a1.1,1.1,0,0,0-.42-.86,1.64,1.64,0,0,0-1.07-.35,2.44,2.44,0,0,0-1.77.73,3.4,3.4,0,0,0-.95,2,2.67,2.67,0,0,0,.49.06h.46C189.24,64.53,190.32,64,190.32,63Z"/><path class="cls-1" d="M198.23,72.53V61.83H195.5V58.89h2.73V55.44h4.06v3.45h3.5v2.94h-3.5v10.7Z"/><path class="cls-1" d="M218.1,68.74a3.92,3.92,0,0,1-1.31,3.1,5.43,5.43,0,0,1-3.7,1.15,15.13,15.13,0,0,1-3.14-.31,9,9,0,0,1-2.48-.84l.52-3.16a10.61,10.61,0,0,0,4.72,1.4,1.31,1.31,0,0,0,1-.3.9.9,0,0,0,.3-.66,1.21,1.21,0,0,0-.23-.76,3.61,3.61,0,0,0-1.14-.73,18.2,18.2,0,0,1-2.18-1.12,7.21,7.21,0,0,1-1.49-1.16,4,4,0,0,1-.84-1.29,4.38,4.38,0,0,1-.26-1.55,3.49,3.49,0,0,1,1.5-3,6.6,6.6,0,0,1,3.91-1.07,12.35,12.35,0,0,1,2.31.2,11,11,0,0,1,2.32.79l-.5,3.13a7.59,7.59,0,0,0-2.13-.85,9.87,9.87,0,0,0-2-.23,1.45,1.45,0,0,0-1,.26.94.94,0,0,0-.27.7,1,1,0,0,0,.43.85,8.33,8.33,0,0,0,1.65.85c.73.38,1.36.73,1.88,1.07a7,7,0,0,1,1.27,1.06,3.29,3.29,0,0,1,.7,1.14A4.15,4.15,0,0,1,218.1,68.74Z"/></g></svg>