<svg xmlns="http://www.w3.org/2000/svg" viewBox="0 0 256 128"><defs><style>.cls-1{opacity:0.5;}.cls-2{fill:#fff200;}</style></defs><g id="Layer_32" data-name="Layer 32"><g class="cls-1"><path d="M76.86,41.1V55.58h18V65h-18V87.5H64.3V31.66h33V41.1Z"/><path d="M116.46,42.64a4.39,4.39,0,0,1-1.84,3.56,7.42,7.42,0,0,1-8.88,0,4.79,4.79,0,0,1-1.92-3.67,4.34,4.34,0,0,1,1.76-3.67,7.63,7.63,0,0,1,7-1.08,6.18,6.18,0,0,1,2,1.12,5.73,5.73,0,0,1,1.36,1.69A4.36,4.36,0,0,1,116.46,42.64Zm-12,44.86V52.3H115.1V87.5Z"/><path d="M147.9,82.28c-.43.94-.83,1.74-1.2,2.42a5.83,5.83,0,0,1-1.28,1.63,4.33,4.33,0,0,1-1.64.9,8.18,8.18,0,0,1-2.28.27,6.23,6.23,0,0,1-3.72-1,8.64,8.64,0,0,1-2.52-3.82L122.7,52.3h11l5.92,16.2c.43,1.14.81,2.23,1.16,3.27a25.85,25.85,0,0,1,.76,2.65c.27-.73.61-1.63,1-2.69s.85-2.12,1.28-3.15l6.32-16.28h11Z"/><path d="M198.22,62a9.13,9.13,0,0,1-1.42,5,12,12,0,0,1-4,3.8,22.19,22.19,0,0,1-6.23,2.44,34.51,34.51,0,0,1-8.15.88c-.28,0-.6,0-1,0s-.8,0-1.3,0a7.39,7.39,0,0,0,2.4,4.76,7.59,7.59,0,0,0,5.18,1.72,23.67,23.67,0,0,0,11.78-3.6v8.4a23.32,23.32,0,0,1-5.8,2.52,24.13,24.13,0,0,1-6.28.76,20.71,20.71,0,0,1-7.24-1.2,14.7,14.7,0,0,1-5.48-3.48,15.53,15.53,0,0,1-3.44-5.44,20.06,20.06,0,0,1-1.2-7.16,22.32,22.32,0,0,1,1.4-8,18.61,18.61,0,0,1,3.92-6.28,17.25,17.25,0,0,1,6-4.08,20.31,20.31,0,0,1,7.76-1.44q5.92,0,9.48,2.88A9.39,9.39,0,0,1,198.22,62Zm-10.64.8a2.79,2.79,0,0,0-1.1-2.2,4.16,4.16,0,0,0-2.76-.92,6.31,6.31,0,0,0-4.56,1.88,8.9,8.9,0,0,0-2.46,5.16,6.49,6.49,0,0,0,1.27.16h1.19Q187.58,66.86,187.58,62.78Z"/></g><path class="cls-2" d="M73.86,38.1V52.58h18V62h-18V84.5H61.3V28.66h33V38.1Z"/><path class="cls-2" d="M113.46,39.64a4.39,4.39,0,0,1-1.84,3.56,7.42,7.42,0,0,1-8.88,0,4.79,4.79,0,0,1-1.92-3.67,4.34,4.34,0,0,1,1.76-3.67,7.63,7.63,0,0,1,7-1.08,6.18,6.18,0,0,1,2,1.12,5.73,5.73,0,0,1,1.36,1.69A4.36,4.36,0,0,1,113.46,39.64Zm-12,44.86V49.3H112.1V84.5Z"/><path class="cls-2" d="M144.9,79.28c-.43.94-.83,1.74-1.2,2.42a5.83,5.83,0,0,1-1.28,1.63,4.33,4.33,0,0,1-1.64.9,8.18,8.18,0,0,1-2.28.27,6.23,6.23,0,0,1-3.72-1,8.64,8.64,0,0,1-2.52-3.82L119.7,49.3h11l5.92,16.2c.43,1.14.81,2.23,1.16,3.27a25.85,25.85,0,0,1,.76,2.65c.27-.73.61-1.63,1-2.69s.85-2.12,1.28-3.15l6.32-16.28h11Z"/><path class="cls-2" d="M195.22,59a9.13,9.13,0,0,1-1.42,5,12,12,0,0,1-4,3.8,22.19,22.19,0,0,1-6.23,2.44,34.51,34.51,0,0,1-8.15.88c-.28,0-.6,0-1,0s-.8,0-1.3,0a7.39,7.39,0,0,0,2.4,4.76,7.59,7.59,0,0,0,5.18,1.72,23.67,23.67,0,0,0,11.78-3.6v8.4a23.32,23.32,0,0,1-5.8,2.52,24.13,24.13,0,0,1-6.28.76,20.71,20.71,0,0,1-7.24-1.2,14.7,14.7,0,0,1-5.48-3.48,15.53,15.53,0,0,1-3.44-5.44,20.06,20.06,0,0,1-1.2-7.16,22.32,22.32,0,0,1,1.4-8,18.61,18.61,0,0,1,3.92-6.28,17.25,17.25,0,0,1,6-4.08,20.31,20.31,0,0,1,7.76-1.44q5.92,0,9.48,2.88A9.39,9.39,0,0,1,195.22,59Zm-10.64.8a2.79,2.79,0,0,0-1.1-2.2,4.16,4.16,0,0,0-2.76-.92,6.31,6.31,0,0,0-4.56,1.88,8.9,8.9,0,0,0-2.46,5.16,6.49,6.49,0,0,0,1.27.16h1.19Q184.58,63.86,184.58,59.78Z"/></g></svg>