<svg xmlns="http://www.w3.org/2000/svg" viewBox="0 0 256 128"><defs><style>.cls-1{fill:#323232;}</style></defs><g id="_8_Apple_trees" data-name="8 Apple trees"><path class="cls-1" d="M54.05,67.07a4.72,4.72,0,0,1-1.94,4,8.94,8.94,0,0,1-5.41,1.45,12,12,0,0,1-3.23-.41A8.66,8.66,0,0,1,41,71a5.31,5.31,0,0,1-1.61-1.77,4.75,4.75,0,0,1-.57-2.32,4.64,4.64,0,0,1,1-3.13,8.62,8.62,0,0,1,3.45-2.19c-.84-.53-1.53-1-2-1.39A5.59,5.59,0,0,1,40.05,59a3.48,3.48,0,0,1-.57-1.22,6.67,6.67,0,0,1-.15-1.52,4.76,4.76,0,0,1,1.79-4c1.2-.94,3-1.4,5.52-1.4a11.09,11.09,0,0,1,2.93.36,7.09,7.09,0,0,1,2.25,1,4.73,4.73,0,0,1,1.43,1.63,4.63,4.63,0,0,1,.49,2.15A4.78,4.78,0,0,1,52.83,59a9,9,0,0,1-3,2.36A7.6,7.6,0,0,1,53,63.71,5.51,5.51,0,0,1,54.05,67.07Zm-4.12-.4a2.12,2.12,0,0,0-.25-1.07,2.55,2.55,0,0,0-.73-.78,6.45,6.45,0,0,0-1.15-.64c-.44-.2-.94-.4-1.5-.61A6.3,6.3,0,0,0,44,64.72a2.06,2.06,0,0,0-.65,1.58,2.2,2.2,0,0,0,.93,1.88,4.11,4.11,0,0,0,2.51.69,3.81,3.81,0,0,0,2.26-.6A1.87,1.87,0,0,0,49.93,66.67Zm-.59-9.83a2,2,0,0,0-.82-1.66,3.47,3.47,0,0,0-2.16-.64,3,3,0,0,0-1.92.6,1.86,1.86,0,0,0-.74,1.52q0,1.64,3,2.91a4.59,4.59,0,0,0,2.08-1.18A2.31,2.31,0,0,0,49.34,56.84Z"/><path class="cls-1" d="M76.49,72.53c0-.15,0-.32,0-.53s0-.36,0-.59,0-.47,0-.71a4.89,4.89,0,0,1-2,1.59,6.56,6.56,0,0,1-2.64.54,4.88,4.88,0,0,1-4-1.67,7.22,7.22,0,0,1-1.41-4.77,7.36,7.36,0,0,1,2.27-5.78c1.52-1.36,3.69-2,6.5-2,.46,0,.87,0,1.25,0s.76,0,1.13.1.77.12,1.17.21.83.19,1.32.34v8.8q0,.72,0,1.5c0,.53,0,1,.09,1.45l.12,1.52Zm-.65-10.11a8.13,8.13,0,0,0-1-.16l-.82,0a3.31,3.31,0,0,0-2.65,1.1,4.56,4.56,0,0,0-1,3.06,3,3,0,0,0,.57,2,2,2,0,0,0,1.61.68,2.78,2.78,0,0,0,1.24-.28,3,3,0,0,0,1-.79,3.86,3.86,0,0,0,.69-1.21,4.48,4.48,0,0,0,.25-1.56Z"/><path class="cls-1" d="M98,64.9a10.42,10.42,0,0,1-.43,3.1,7.41,7.41,0,0,1-1.23,2.41A5.39,5.39,0,0,1,94.5,72a5.24,5.24,0,0,1-2.4.56,5.3,5.3,0,0,1-1.63-.22,4.72,4.72,0,0,1-1.39-.8V81.76H84.74V63c0-.22,0-.48,0-.79s-.07-.62-.12-1-.11-.67-.19-1a6.9,6.9,0,0,0-.26-.93h4.2a4,4,0,0,1,.23.6c0,.18.08.46.13.86a6.39,6.39,0,0,1,1.87-1.43,4.89,4.89,0,0,1,2.14-.43,5.37,5.37,0,0,1,2.18.43,4.79,4.79,0,0,1,1.69,1.22,5.53,5.53,0,0,1,1.09,1.9A7.47,7.47,0,0,1,98,64.9Zm-4.12.69a3,3,0,0,0-.62-2,2.12,2.12,0,0,0-1.7-.72,2.44,2.44,0,0,0-2,.92,3.77,3.77,0,0,0-.74,2.45V68a3.3,3.3,0,0,0,2.2.83A2.64,2.64,0,0,0,93.15,68,3.52,3.52,0,0,0,93.92,65.59Z"/><path class="cls-1" d="M115.8,64.9a10.42,10.42,0,0,1-.43,3.1,7.41,7.41,0,0,1-1.23,2.41A5.3,5.3,0,0,1,112.26,72a5.21,5.21,0,0,1-2.4.56,5.3,5.3,0,0,1-1.63-.22,4.72,4.72,0,0,1-1.39-.8V81.76H102.5V63c0-.22,0-.48,0-.79s-.08-.62-.13-1-.11-.67-.18-1a6.86,6.86,0,0,0-.27-.93h4.2a3.12,3.12,0,0,1,.23.6,7.41,7.41,0,0,1,.13.86,6.52,6.52,0,0,1,1.87-1.43,4.93,4.93,0,0,1,2.14-.43,5.34,5.34,0,0,1,2.18.43,4.79,4.79,0,0,1,1.69,1.22,5.53,5.53,0,0,1,1.09,1.9A7.47,7.47,0,0,1,115.8,64.9Zm-4.12.69a3,3,0,0,0-.62-2,2.12,2.12,0,0,0-1.7-.72,2.44,2.44,0,0,0-2,.92,3.77,3.77,0,0,0-.73,2.45V68a3.27,3.27,0,0,0,2.19.83,2.64,2.64,0,0,0,2.09-.87A3.52,3.52,0,0,0,111.68,65.59Z"/><path class="cls-1" d="M120.08,72.53V50.92h4.12V72.53Z"/><path class="cls-1" d="M140.85,62.64a3.49,3.49,0,0,1-.55,1.92A4.61,4.61,0,0,1,138.74,66a8.72,8.72,0,0,1-2.41,1,13.91,13.91,0,0,1-3.16.34l-.37,0h-.51a2.87,2.87,0,0,0,.93,1.84,2.92,2.92,0,0,0,2,.67,9.15,9.15,0,0,0,4.56-1.4v3.26a8.79,8.79,0,0,1-2.24,1,9.32,9.32,0,0,1-2.44.3,8,8,0,0,1-2.8-.47,5.7,5.7,0,0,1-2.12-1.34A6.09,6.09,0,0,1,128.85,69a7.79,7.79,0,0,1-.46-2.78,8.64,8.64,0,0,1,.54-3.11,7.35,7.35,0,0,1,1.52-2.44,6.68,6.68,0,0,1,2.34-1.58,7.91,7.91,0,0,1,3-.56,5.68,5.68,0,0,1,3.67,1.12A3.64,3.64,0,0,1,140.85,62.64Zm-4.12.31a1.11,1.11,0,0,0-.43-.86,1.64,1.64,0,0,0-1.07-.35,2.44,2.44,0,0,0-1.77.73,3.46,3.46,0,0,0-1,2,2.67,2.67,0,0,0,.49.06h.46C135.64,64.53,136.73,64,136.73,63Z"/><path class="cls-1" d="M154.89,72.53V61.83h-2.73V58.89h2.73V55.44H159v3.45h3.51v2.94H159v10.7Z"/><path class="cls-1" d="M174.27,62.7l-.69-.13a4.56,4.56,0,0,0-.55,0,3.18,3.18,0,0,0-2.69,1.21,6,6,0,0,0-.91,3.61v5.17h-4.12v-9c0-.5,0-.94,0-1.32a8.29,8.29,0,0,0-.08-1,7.4,7.4,0,0,0-.17-1c-.07-.31-.17-.67-.29-1.08h3.91l.18.65a3.61,3.61,0,0,1,.11.51q0,.24.06.51a4.11,4.11,0,0,1,0,.65,7,7,0,0,1,1.76-2,3.39,3.39,0,0,1,2-.58,3.06,3.06,0,0,1,.73.07c.19.06.47.16.82.31Z"/><path class="cls-1" d="M188,62.64a3.58,3.58,0,0,1-.55,1.92A4.61,4.61,0,0,1,185.89,66a8.72,8.72,0,0,1-2.41,1,13.91,13.91,0,0,1-3.16.34l-.37,0h-.51a2.87,2.87,0,0,0,.93,1.84,2.92,2.92,0,0,0,2,.67,9.15,9.15,0,0,0,4.56-1.4v3.26a8.79,8.79,0,0,1-2.24,1,9.32,9.32,0,0,1-2.44.3,8,8,0,0,1-2.8-.47,5.82,5.82,0,0,1-2.13-1.34A6.21,6.21,0,0,1,176,69a7.79,7.79,0,0,1-.46-2.78,8.64,8.64,0,0,1,.54-3.11,7.35,7.35,0,0,1,1.52-2.44,6.68,6.68,0,0,1,2.34-1.58,7.91,7.91,0,0,1,3-.56,5.68,5.68,0,0,1,3.67,1.12A3.64,3.64,0,0,1,188,62.64Zm-4.12.31a1.11,1.11,0,0,0-.43-.86,1.64,1.64,0,0,0-1.07-.35,2.44,2.44,0,0,0-1.77.73,3.46,3.46,0,0,0-1,2,2.67,2.67,0,0,0,.49.06h.46C182.79,64.53,183.88,64,183.88,63Z"/><path class="cls-1" d="M203.22,62.64a3.49,3.49,0,0,1-.55,1.92A4.61,4.61,0,0,1,201.11,66a8.72,8.72,0,0,1-2.41,1,13.85,13.85,0,0,1-3.16.34l-.37,0h-.51a2.87,2.87,0,0,0,.93,1.84,2.92,2.92,0,0,0,2,.67,9.22,9.22,0,0,0,4.57-1.4v3.26a9,9,0,0,1-2.25,1,9.32,9.32,0,0,1-2.44.3,8,8,0,0,1-2.8-.47,5.7,5.7,0,0,1-2.12-1.34A6.09,6.09,0,0,1,191.22,69a7.79,7.79,0,0,1-.46-2.78,8.64,8.64,0,0,1,.54-3.11,7.35,7.35,0,0,1,1.52-2.44,6.68,6.68,0,0,1,2.34-1.58,7.91,7.91,0,0,1,3-.56,5.68,5.68,0,0,1,3.67,1.12A3.64,3.64,0,0,1,203.22,62.64ZM199.1,63a1.11,1.11,0,0,0-.43-.86,1.64,1.64,0,0,0-1.07-.35,2.44,2.44,0,0,0-1.77.73,3.46,3.46,0,0,0-1,2,2.67,2.67,0,0,0,.49.06h.46C198,64.53,199.1,64,199.1,63Z"/><path class="cls-1" d="M216.43,68.74a3.89,3.89,0,0,1-1.32,3.1A5.38,5.38,0,0,1,211.42,73a15.3,15.3,0,0,1-3.15-.31,9.21,9.21,0,0,1-2.48-.84l.53-3.16a10.61,10.61,0,0,0,4.71,1.4,1.34,1.34,0,0,0,1-.3.93.93,0,0,0,.29-.66,1.15,1.15,0,0,0-.23-.76,3.41,3.41,0,0,0-1.13-.73,18.4,18.4,0,0,1-2.19-1.12,7.12,7.12,0,0,1-1.48-1.16,3.68,3.68,0,0,1-.84-1.29,4.16,4.16,0,0,1-.27-1.55,3.49,3.49,0,0,1,1.5-3,6.63,6.63,0,0,1,3.92-1.07,12.35,12.35,0,0,1,2.31.2,11.11,11.11,0,0,1,2.31.79l-.49,3.13a7.59,7.59,0,0,0-2.13-.85,9.89,9.89,0,0,0-2-.23,1.45,1.45,0,0,0-1,.26,1,1,0,0,0-.26.7,1,1,0,0,0,.42.85,9,9,0,0,0,1.65.85,21.27,21.27,0,0,1,1.89,1.07,7,7,0,0,1,1.26,1.06,3.33,3.33,0,0,1,.71,1.14A4.15,4.15,0,0,1,216.43,68.74Z"/></g></svg>