<svg xmlns="http://www.w3.org/2000/svg" viewBox="0 0 256 128"><defs><style>.cls-1{opacity:0.5;}.cls-2{fill:#fff200;}</style></defs><g id="Layer_34" data-name="Layer 34"><g class="cls-1"><path d="M43.66,87.5V31.66h34v9.6H56.22V54.14H75.34v9.44H56.22V78.06H77.74V87.5Z"/><path d="M99,42.64a4.39,4.39,0,0,1-1.84,3.56,7.42,7.42,0,0,1-8.88,0,4.79,4.79,0,0,1-1.92-3.67,4.34,4.34,0,0,1,1.76-3.67,7.63,7.63,0,0,1,7-1.08,6.18,6.18,0,0,1,2,1.12,5.73,5.73,0,0,1,1.36,1.69A4.36,4.36,0,0,1,99,42.64ZM87,87.5V52.3H97.66V87.5Z"/><path d="M143.34,88.62A37.18,37.18,0,0,1,142,99.46a18.89,18.89,0,0,1-3.67,7,13.33,13.33,0,0,1-5.51,3.8,20.21,20.21,0,0,1-6.94,1.16,60,60,0,0,1-7.14-.44,25.64,25.64,0,0,1-6.74-1.72v-8.08a44,44,0,0,0,6.13,1.72,26.55,26.55,0,0,0,5.15.6,9.09,9.09,0,0,0,3.83-.8,7.54,7.54,0,0,0,3-2.56A13.21,13.21,0,0,0,132,95.5a30.29,30.29,0,0,0,.69-7V85a12.12,12.12,0,0,1-4.56,2.68,18.57,18.57,0,0,1-5,.6,15.71,15.71,0,0,1-6.24-1.2,13.54,13.54,0,0,1-4.76-3.36,15.12,15.12,0,0,1-3-5.24,20.53,20.53,0,0,1-1.08-6.84,20.26,20.26,0,0,1,1.66-8.36,17.84,17.84,0,0,1,4.75-6.36,21.16,21.16,0,0,1,7.46-4,32.54,32.54,0,0,1,9.89-1.4c1.14,0,2.14,0,3,0s1.72.09,2.56.2,1.73.25,2.67.44,2,.44,3.29.76ZM132.7,61.9c-.93-.16-1.63-.27-2.1-.32a18.06,18.06,0,0,0-1.85-.08,10.13,10.13,0,0,0-7.37,2.6,9.49,9.49,0,0,0-2.68,7.16,6.79,6.79,0,0,0,1.77,5,6,6,0,0,0,4.41,1.76,13.17,13.17,0,0,0,2.88-.32,5.06,5.06,0,0,0,2.51-1.44A7.89,7.89,0,0,0,132,73.06a19.88,19.88,0,0,0,.66-5.72Z"/><path d="M177.26,87.5V67.6a10.3,10.3,0,0,0-.37-3.08,4,4,0,0,0-1-1.78,3.25,3.25,0,0,0-1.47-.81,7.35,7.35,0,0,0-1.71-.19,4.85,4.85,0,0,0-2.66.81,8.22,8.22,0,0,0-2.25,2.2A12.21,12.21,0,0,0,166.19,68a12.73,12.73,0,0,0-.61,4V87.5H154.94V32.7H165.5V56.3a12.21,12.21,0,0,1,4.42-3.08,14.73,14.73,0,0,1,5.36-.92,17.32,17.32,0,0,1,4.61.62,11.78,11.78,0,0,1,4,2,9.93,9.93,0,0,1,2.87,3.62,12.47,12.47,0,0,1,1.11,5.53V87.5Z"/><path d="M201.82,87.5V59.9h-7V52.3h7V43.42H212.3V52.3h9v7.6h-9V87.5Z"/></g><path class="cls-2" d="M40.66,84.5V28.66h34v9.6H53.22V51.14H72.34v9.44H53.22V75.06H74.74V84.5Z"/><path class="cls-2" d="M96,39.64a4.39,4.39,0,0,1-1.84,3.56,7.42,7.42,0,0,1-8.88,0,4.79,4.79,0,0,1-1.92-3.67,4.34,4.34,0,0,1,1.76-3.67,7.63,7.63,0,0,1,7-1.08,6.18,6.18,0,0,1,2,1.12,5.73,5.73,0,0,1,1.36,1.69A4.36,4.36,0,0,1,96,39.64ZM84,84.5V49.3H94.66V84.5Z"/><path class="cls-2" d="M140.34,85.62A37.18,37.18,0,0,1,139,96.46a18.89,18.89,0,0,1-3.67,7,13.33,13.33,0,0,1-5.51,3.8,20.21,20.21,0,0,1-6.94,1.16,60,60,0,0,1-7.14-.44,25.64,25.64,0,0,1-6.74-1.72V98.18a44,44,0,0,0,6.13,1.72,26.55,26.55,0,0,0,5.15.6,9.09,9.09,0,0,0,3.83-.8,7.54,7.54,0,0,0,3-2.56A13.21,13.21,0,0,0,129,92.5a30.29,30.29,0,0,0,.69-7V82a12.12,12.12,0,0,1-4.56,2.68,18.57,18.57,0,0,1-5,.6,15.71,15.71,0,0,1-6.24-1.2,13.54,13.54,0,0,1-4.76-3.36,15.12,15.12,0,0,1-3-5.24,20.53,20.53,0,0,1-1.08-6.84,20.26,20.26,0,0,1,1.66-8.36,17.84,17.84,0,0,1,4.75-6.36,21.16,21.16,0,0,1,7.46-4,32.54,32.54,0,0,1,9.89-1.4c1.14,0,2.14,0,3,0s1.72.09,2.56.2,1.73.25,2.67.44,2,.44,3.29.76ZM129.7,58.9c-.93-.16-1.63-.27-2.1-.32a18.06,18.06,0,0,0-1.85-.08,10.13,10.13,0,0,0-7.37,2.6,9.49,9.49,0,0,0-2.68,7.16,6.79,6.79,0,0,0,1.77,5,6,6,0,0,0,4.41,1.76,13.17,13.17,0,0,0,2.88-.32,5.06,5.06,0,0,0,2.51-1.44A7.89,7.89,0,0,0,129,70.06a19.88,19.88,0,0,0,.66-5.72Z"/><path class="cls-2" d="M174.26,84.5V64.6a10.3,10.3,0,0,0-.37-3.08,4,4,0,0,0-1-1.78,3.25,3.25,0,0,0-1.47-.81,7.35,7.35,0,0,0-1.71-.19,4.85,4.85,0,0,0-2.66.81,8.22,8.22,0,0,0-2.25,2.2A12.21,12.21,0,0,0,163.19,65a12.73,12.73,0,0,0-.61,4V84.5H151.94V29.7H162.5V53.3a12.21,12.21,0,0,1,4.42-3.08,14.73,14.73,0,0,1,5.36-.92,17.32,17.32,0,0,1,4.61.62,11.78,11.78,0,0,1,4,2,9.93,9.93,0,0,1,2.87,3.62,12.47,12.47,0,0,1,1.11,5.53V84.5Z"/><path class="cls-2" d="M198.82,84.5V56.9h-7V49.3h7V40.42H209.3V49.3h9v7.6h-9V84.5Z"/></g></svg>