<svg xmlns="http://www.w3.org/2000/svg" viewBox="0 0 256 128"><defs><style>.cls-1{fill:#323232;}</style></defs><g id="_9_Butterfly" data-name="9 Butterfly"><path class="cls-1" d="M69.32,81.6H65.16l.25-9.15a5.79,5.79,0,0,1-1.76,1.09,6.16,6.16,0,0,1-2.08.31,6.54,6.54,0,0,1-2.59-.5,5.68,5.68,0,0,1-2-1.41,6.34,6.34,0,0,1-1.29-2.18,8.54,8.54,0,0,1-.45-2.86,8.2,8.2,0,0,1,.55-3.08,6.52,6.52,0,0,1,1.53-2.34A6.6,6.6,0,0,1,59.75,60,9.65,9.65,0,0,1,63,59.5a6.8,6.8,0,0,1,5,1.79,6.48,6.48,0,0,1,1.71,5ZM65.38,65.82a2.53,2.53,0,0,0-.2-1,2.58,2.58,0,0,0-.56-.79,2.38,2.38,0,0,0-.85-.52,3.11,3.11,0,0,0-3.32.77,3.86,3.86,0,0,0-.84,2.63,3.46,3.46,0,0,0,.73,2.33,2.56,2.56,0,0,0,2,.84,2.79,2.79,0,0,0,2.11-.84,3.41,3.41,0,0,0,.87-2.33Z"/><path class="cls-1" d="M97.12,73.79A9.08,9.08,0,0,1,96.59,77a6.84,6.84,0,0,1-1.53,2.46A7,7,0,0,1,92.67,81a8.41,8.41,0,0,1-3.12.56,16.22,16.22,0,0,1-3.09-.32,14.67,14.67,0,0,1-2.91-.88V60.34h4.12v9.21a4.73,4.73,0,0,1,1.77-1.19,6.37,6.37,0,0,1,4.47,0,4.85,4.85,0,0,1,1.72,1.18,5.37,5.37,0,0,1,1.1,1.84A7,7,0,0,1,97.12,73.79ZM93,74.54a2.72,2.72,0,0,0-.62-1.89A2.25,2.25,0,0,0,90.62,72a2.86,2.86,0,0,0-2.19.94,2.93,2.93,0,0,0-.59,1,3.36,3.36,0,0,0-.2,1.18v2.36a3.44,3.44,0,0,0,1,.36,5.72,5.72,0,0,0,1.13.09A3.22,3.22,0,0,0,92.13,77,3.36,3.36,0,0,0,93,74.54Z"/><path class="cls-1" d="M110.27,81.23a6.4,6.4,0,0,1-.27-.72c0-.18-.1-.45-.17-.8a6.06,6.06,0,0,1-4.37,1.89,4.52,4.52,0,0,1-1.84-.38,4.6,4.6,0,0,1-1.49-1,4.54,4.54,0,0,1-1-1.6,6.21,6.21,0,0,1-.34-2.08c0-.85,0-1.63.07-2.35s.07-1.42.09-2.09,0-1.32,0-2-.07-1.37-.16-2.11h4.13c.06.68.09,1.33.1,2s0,1.25,0,1.86,0,1.25-.06,1.89,0,1.31,0,2a3.36,3.36,0,0,0,.19,1.27,1.5,1.5,0,0,0,.5.67,1.44,1.44,0,0,0,.63.26,4,4,0,0,0,.55,0,3.09,3.09,0,0,0,.66-.12,2.16,2.16,0,0,0,.94-.57,3.83,3.83,0,0,0,.82-1.31,6.22,6.22,0,0,0,.36-2.33V68h4.12v9a14.81,14.81,0,0,0,.19,2.36,7.5,7.5,0,0,0,.49,1.9Z"/><path class="cls-1" d="M119.82,81.6V70.9h-2.73V68h2.73V64.52h4.06V68h3.5V70.9h-3.5V81.6Z"/><path class="cls-1" d="M130.88,81.6V70.9h-2.73V68h2.73V64.52h4.06V68h3.51V70.9h-3.51V81.6Z"/><path class="cls-1" d="M151.84,71.71a3.58,3.58,0,0,1-.55,1.92,4.61,4.61,0,0,1-1.56,1.47,8.42,8.42,0,0,1-2.41,1,13.37,13.37,0,0,1-3.16.34h-.38l-.5,0a2.84,2.84,0,0,0,.93,1.84,2.92,2.92,0,0,0,2,.67,9.13,9.13,0,0,0,4.56-1.39v3.25a8.84,8.84,0,0,1-2.24,1,9.78,9.78,0,0,1-2.44.29,8,8,0,0,1-2.8-.46,5.71,5.71,0,0,1-2.13-1.35,6.12,6.12,0,0,1-1.33-2.11,7.78,7.78,0,0,1-.46-2.77,8.66,8.66,0,0,1,.54-3.12,7.21,7.21,0,0,1,1.52-2.43,6.55,6.55,0,0,1,2.34-1.58,7.72,7.72,0,0,1,3-.56,5.7,5.7,0,0,1,3.67,1.11A3.65,3.65,0,0,1,151.84,71.71Zm-4.12.31a1.09,1.09,0,0,0-.43-.85,1.59,1.59,0,0,0-1.07-.36,2.44,2.44,0,0,0-1.77.73,3.49,3.49,0,0,0-.95,2,2.67,2.67,0,0,0,.49.06h.46C146.63,73.6,147.72,73.07,147.72,72Z"/><path class="cls-1" d="M164.55,71.77l-.68-.12a4.86,4.86,0,0,0-.56,0,3.14,3.14,0,0,0-2.68,1.21,5.89,5.89,0,0,0-.92,3.6V81.6h-4.12V72.65c0-.51,0-1,0-1.32s0-.73-.07-1-.1-.64-.17-1-.17-.67-.3-1.07h3.91l.18.65a3.61,3.61,0,0,1,.11.51c0,.16.05.32.07.51a5.79,5.79,0,0,1,0,.65,6.9,6.9,0,0,1,1.76-2,3.42,3.42,0,0,1,2-.59,3,3,0,0,1,.73.08,6.37,6.37,0,0,1,.82.3Z"/><path class="cls-1" d="M177.07,81.6l0-16.83a4.14,4.14,0,0,0-.45-.47,4.63,4.63,0,0,0-.46-.37,2.37,2.37,0,0,0-.59-.31,2.41,2.41,0,0,0-.82-.12,3,3,0,0,0-1.18.2,1.85,1.85,0,0,0-.84.69,3.7,3.7,0,0,0-.51,1.35,12.06,12.06,0,0,0-.17,2.22h3.22v3h-3.16V81.6H168V70.9h-2.6V68H168a15.5,15.5,0,0,1,.43-4.08,6,6,0,0,1,1.15-2.35,3.38,3.38,0,0,1,1.66-1.09,7.73,7.73,0,0,1,2-.26,6.62,6.62,0,0,1,1.92.25,10.31,10.31,0,0,1,2,.86l0-1h4V81.6Z"/><path class="cls-1" d="M198.71,86.06a6.77,6.77,0,0,1-1.36,2.85,4.88,4.88,0,0,1-2.35,1.5,12.22,12.22,0,0,1-3.42.43,10.43,10.43,0,0,1-2-.2c-.66-.14-1.36-.32-2.09-.55V87l1.95.13c.61,0,1.22.05,1.82.05a4.4,4.4,0,0,0,1.66-.29,2.54,2.54,0,0,0,1.15-.93,4.67,4.67,0,0,0,.66-1.73,14.9,14.9,0,0,0,.2-2.63V79.92a5.32,5.32,0,0,1-3.88,1.68,4.53,4.53,0,0,1-1.78-.36,4.3,4.3,0,0,1-1.47-1,5,5,0,0,1-1-1.64,5.86,5.86,0,0,1-.38-2.16q0-1.1,0-2.1c0-.66,0-1.33,0-2s0-1.35,0-2.06,0-1.46-.11-2.27h4.12c.07.82.1,1.58.11,2.28s0,1.37,0,2,0,1.22,0,1.79,0,1.14,0,1.7a2.56,2.56,0,0,0,.46,1.7,1.63,1.63,0,0,0,1.31.52,2.47,2.47,0,0,0,1.9-.86,3.23,3.23,0,0,0,.79-2.3V68h4.12V81.6A19.28,19.28,0,0,1,198.71,86.06Z"/></g></svg>