<svg xmlns="http://www.w3.org/2000/svg" viewBox="0 0 256 128"><defs><style>.cls-1{fill:#323232;}</style></defs><g id="_1_Flag" data-name="1 Flag"><path class="cls-1" d="M95.22,72.52V55.62c-.42.48-.81.91-1.18,1.29s-.77.79-1.21,1.22l-2-2.79c.62-.53,1.21-1.07,1.79-1.61s1-.93,1.52-1.45.94-1,1.28-1.39h4V72.52Z"/><path class="cls-1" d="M126.31,72.52l0-16.83a5,5,0,0,0-.45-.46,4.66,4.66,0,0,0-.46-.38,3.29,3.29,0,0,0-.59-.31,2.41,2.41,0,0,0-.82-.12,3.2,3.2,0,0,0-1.18.2,1.94,1.94,0,0,0-.84.7,3.53,3.53,0,0,0-.51,1.35,12.06,12.06,0,0,0-.17,2.22h3.22v3h-3.16V72.52h-4.12V61.83h-2.61V58.89h2.55a15.45,15.45,0,0,1,.43-4.08,6.11,6.11,0,0,1,1.15-2.36,3.3,3.3,0,0,1,1.66-1.08,7.33,7.33,0,0,1,2-.27,7,7,0,0,1,1.92.25,11.12,11.12,0,0,1,2,.87l0-1h4V72.52Z"/><path class="cls-1" d="M145.34,72.52c0-.14,0-.32,0-.52s0-.36-.05-.59,0-.47,0-.71a4.89,4.89,0,0,1-2,1.59,6.56,6.56,0,0,1-2.64.54,4.88,4.88,0,0,1-4-1.67,7.22,7.22,0,0,1-1.41-4.77,7.37,7.37,0,0,1,2.28-5.79,9.43,9.43,0,0,1,6.49-2c.46,0,.87,0,1.25,0s.76,0,1.13.1.77.12,1.17.21a13.62,13.62,0,0,1,1.32.34v8.8q0,.72,0,1.5c0,.53.05,1,.09,1.45s.08,1,.12,1.51Zm-.65-10.1a6.51,6.51,0,0,0-1-.16l-.82,0a3.31,3.31,0,0,0-2.65,1.1,4.56,4.56,0,0,0-.95,3.06,3,3,0,0,0,.57,2,2,2,0,0,0,1.61.68,2.78,2.78,0,0,0,1.24-.28,3.12,3.12,0,0,0,1-.79,3.86,3.86,0,0,0,.69-1.21,4.48,4.48,0,0,0,.25-1.56Z"/><path class="cls-1" d="M166.39,73a14.4,14.4,0,0,1-.52,4.2,7.3,7.3,0,0,1-1.42,2.71,5.21,5.21,0,0,1-2.14,1.47,7.79,7.79,0,0,1-2.69.45,21.63,21.63,0,0,1-2.76-.17,9.8,9.8,0,0,1-2.61-.66V77.83a17.63,17.63,0,0,0,2.37.66,10.06,10.06,0,0,0,2,.24,3.45,3.45,0,0,0,1.48-.32,2.86,2.86,0,0,0,1.16-1,5,5,0,0,0,.74-1.8,11.56,11.56,0,0,0,.27-2.69V71.56a4.61,4.61,0,0,1-1.77,1,7,7,0,0,1-1.92.23,6.11,6.11,0,0,1-2.42-.46,5.26,5.26,0,0,1-1.84-1.3,5.9,5.9,0,0,1-1.18-2,8,8,0,0,1-.42-2.65,7.84,7.84,0,0,1,.65-3.24,7,7,0,0,1,1.83-2.47,8.24,8.24,0,0,1,2.9-1.56,12.6,12.6,0,0,1,3.83-.55l1.16,0c.34,0,.67,0,1,.08s.67.1,1,.17.79.17,1.27.29ZM162.27,62.6l-.81-.12a6.83,6.83,0,0,0-.72,0,4,4,0,0,0-2.86,1,3.67,3.67,0,0,0-1,2.77,2.64,2.64,0,0,0,.68,2,2.35,2.35,0,0,0,1.71.68,4.7,4.7,0,0,0,1.12-.13,2,2,0,0,0,1-.55,3.12,3.12,0,0,0,.69-1.26,7.79,7.79,0,0,0,.25-2.22Z"/></g></svg>