<svg xmlns="http://www.w3.org/2000/svg" viewBox="0 0 256 128"><defs><style>.cls-1{fill:#323232;}</style></defs><g id="_2_Feathers" data-name="2 Feathers"><path class="cls-1" d="M59.65,72.52l0-2.43c.64-.75,1.31-1.49,2-2.23l2.12-2.21c.7-.73,1.37-1.44,2-2.14a19.85,19.85,0,0,0,1.69-2.12,12.26,12.26,0,0,0,1.16-2.1,5.37,5.37,0,0,0,.43-2.1,2.32,2.32,0,0,0-.8-1.82,2.91,2.91,0,0,0-2-.7,3.31,3.31,0,0,0-1.5.33,3.81,3.81,0,0,0-1.15.86A6.48,6.48,0,0,0,62.85,57a11.15,11.15,0,0,0-.6,1.27l-3-2.16c.21-.47.47-1,.78-1.6a6.19,6.19,0,0,1,1.35-1.71,7.52,7.52,0,0,1,2.29-1.37,9.74,9.74,0,0,1,3.61-.56,8.85,8.85,0,0,1,2.74.4,6.26,6.26,0,0,1,2.13,1.17,4.91,4.91,0,0,1,1.35,1.83,5.78,5.78,0,0,1,.48,2.4,8.12,8.12,0,0,1-.92,3.69,19.62,19.62,0,0,1-2.21,3.43,26.3,26.3,0,0,1-2.73,2.91c-1,.87-1.76,1.58-2.42,2.15h8.46v3.65Z"/><path class="cls-1" d="M97.19,54.73a6.21,6.21,0,0,0-1.12-.42,4.62,4.62,0,0,0-1-.11,2.9,2.9,0,0,0-1.27.25,1.81,1.81,0,0,0-.78.79,4.64,4.64,0,0,0-.39,1.44,19.72,19.72,0,0,0-.1,2.21h3.28v3H92.54V72.52H88.41V61.83H85.84V58.89h2.51a17.86,17.86,0,0,1,.34-3.83,6.31,6.31,0,0,1,1-2.45,3.77,3.77,0,0,1,1.74-1.3,6.79,6.79,0,0,1,2.4-.39,10.59,10.59,0,0,1,3.69.62Z"/><path class="cls-1" d="M109.43,62.64a3.49,3.49,0,0,1-.55,1.92A4.61,4.61,0,0,1,107.32,66a8.72,8.72,0,0,1-2.41,1,13.85,13.85,0,0,1-3.16.34l-.37,0h-.5a2.81,2.81,0,0,0,.92,1.84,3,3,0,0,0,2,.67,9.19,9.19,0,0,0,4.57-1.4v3.26a9,9,0,0,1-2.25,1,9.24,9.24,0,0,1-2.43.3,8,8,0,0,1-2.81-.47,5.67,5.67,0,0,1-2.12-1.35A6,6,0,0,1,97.43,69,7.79,7.79,0,0,1,97,66.23a8.64,8.64,0,0,1,.54-3.11A7.25,7.25,0,0,1,99,60.68a6.68,6.68,0,0,1,2.34-1.58,7.91,7.91,0,0,1,3-.56,5.68,5.68,0,0,1,3.67,1.12A3.64,3.64,0,0,1,109.43,62.64Zm-4.12.31a1.08,1.08,0,0,0-.43-.86,1.64,1.64,0,0,0-1.07-.35,2.44,2.44,0,0,0-1.77.73,3.46,3.46,0,0,0-1,2,2.76,2.76,0,0,0,.5.06H102C104.22,64.53,105.31,64,105.31,63Z"/><path class="cls-1" d="M122.36,72.52c0-.14,0-.32,0-.52s0-.36,0-.59,0-.47,0-.71a5,5,0,0,1-2,1.59,6.56,6.56,0,0,1-2.64.54,4.91,4.91,0,0,1-4-1.67,7.22,7.22,0,0,1-1.41-4.77,7.37,7.37,0,0,1,2.28-5.79,9.45,9.45,0,0,1,6.49-2c.46,0,.88,0,1.26,0s.75,0,1.13.1.76.12,1.16.21a12.92,12.92,0,0,1,1.32.34v8.8q0,.72,0,1.5c0,.53,0,1,.09,1.45s.09,1,.13,1.51Zm-.65-10.1a6.84,6.84,0,0,0-1-.16l-.82,0a3.31,3.31,0,0,0-2.65,1.1,4.56,4.56,0,0,0-1,3.06,3,3,0,0,0,.57,2,2,2,0,0,0,1.61.68,2.82,2.82,0,0,0,1.25-.28,3.09,3.09,0,0,0,1-.79,3.68,3.68,0,0,0,.69-1.21,4.48,4.48,0,0,0,.26-1.56Z"/><path class="cls-1" d="M131.1,72.52V61.83h-2.73V58.89h2.73V55.44h4.06v3.45h3.5v2.94h-3.5V72.52Z"/><path class="cls-1" d="M149.82,72.52V64.81a3.91,3.91,0,0,0-.14-1.19,1.63,1.63,0,0,0-.39-.69,1.23,1.23,0,0,0-.57-.31,3,3,0,0,0-.67-.08,1.89,1.89,0,0,0-1,.32,3,3,0,0,0-.87.85,4.85,4.85,0,0,0-.62,1.27,5.22,5.22,0,0,0-.23,1.54v6h-4.13V51.29h4.1v9.15a4.77,4.77,0,0,1,1.71-1.2,5.64,5.64,0,0,1,2.08-.35,6.64,6.64,0,0,1,1.78.24,4.38,4.38,0,0,1,1.56.77,3.92,3.92,0,0,1,1.12,1.4,4.91,4.91,0,0,1,.43,2.14v9.08Z"/><path class="cls-1" d="M170.78,62.64a3.58,3.58,0,0,1-.55,1.92A4.61,4.61,0,0,1,168.67,66a8.72,8.72,0,0,1-2.41,1,13.91,13.91,0,0,1-3.16.34l-.37,0h-.51a2.87,2.87,0,0,0,.93,1.84,3,3,0,0,0,2,.67,9.15,9.15,0,0,0,4.56-1.4v3.26a8.79,8.79,0,0,1-2.24,1,9.32,9.32,0,0,1-2.44.3,8,8,0,0,1-2.8-.47,5.71,5.71,0,0,1-2.13-1.35,6.07,6.07,0,0,1-1.33-2.1,7.79,7.79,0,0,1-.46-2.78,8.64,8.64,0,0,1,.54-3.11,7.25,7.25,0,0,1,1.52-2.44,6.68,6.68,0,0,1,2.34-1.58,7.91,7.91,0,0,1,3-.56,5.7,5.7,0,0,1,3.67,1.12A3.64,3.64,0,0,1,170.78,62.64Zm-4.12.31a1.11,1.11,0,0,0-.43-.86,1.64,1.64,0,0,0-1.07-.35,2.44,2.44,0,0,0-1.77.73,3.46,3.46,0,0,0-.95,2,2.67,2.67,0,0,0,.49.06h.46C165.57,64.53,166.66,64,166.66,63Z"/><path class="cls-1" d="M183.49,62.7l-.68-.13a4.73,4.73,0,0,0-.56,0,3.17,3.17,0,0,0-2.68,1.21,5.93,5.93,0,0,0-.92,3.6v5.17h-4.12V63.57c0-.5,0-.94,0-1.32s0-.72-.07-1-.1-.64-.17-1-.17-.67-.3-1.08h3.92c.06.26.12.47.17.65a3.61,3.61,0,0,1,.11.51c0,.16.05.33.07.51a6,6,0,0,1,0,.65,7.18,7.18,0,0,1,1.76-2,3.41,3.41,0,0,1,2-.58,3.06,3.06,0,0,1,.73.07,8.05,8.05,0,0,1,.82.31Z"/><path class="cls-1" d="M195.89,68.74a3.92,3.92,0,0,1-1.31,3.1,5.43,5.43,0,0,1-3.7,1.15,15.13,15.13,0,0,1-3.14-.31,9.32,9.32,0,0,1-2.48-.84l.52-3.16a10.61,10.61,0,0,0,4.71,1.4,1.34,1.34,0,0,0,1-.3.91.91,0,0,0,.3-.67,1.19,1.19,0,0,0-.24-.76,3.61,3.61,0,0,0-1.13-.72,18.2,18.2,0,0,1-2.18-1.12,7.21,7.21,0,0,1-1.49-1.16,4,4,0,0,1-.84-1.29,4.38,4.38,0,0,1-.26-1.55,3.49,3.49,0,0,1,1.5-3A6.6,6.6,0,0,1,191,58.42a12.35,12.35,0,0,1,2.31.2,11.18,11.18,0,0,1,2.32.79l-.5,3.13a7.59,7.59,0,0,0-2.13-.85,9.89,9.89,0,0,0-2-.23,1.4,1.4,0,0,0-1,.26.94.94,0,0,0-.27.7,1,1,0,0,0,.43.85,8.33,8.33,0,0,0,1.65.85c.73.38,1.36.73,1.88,1.07A6.65,6.65,0,0,1,195,66.25a3.29,3.29,0,0,1,.7,1.14A4.15,4.15,0,0,1,195.89,68.74Z"/></g></svg>