<svg xmlns="http://www.w3.org/2000/svg" viewBox="0 0 512 128"><defs><style>.cls-1{fill:#323232;}</style></defs><g id="_6_Colourful_balloon" data-name="6 Colourful balloon"><path class="cls-1" d="M137.82,65.54a7.79,7.79,0,0,1-.52,2.89,6.38,6.38,0,0,1-1.44,2.19A6.47,6.47,0,0,1,133.61,72a8.39,8.39,0,0,1-3,.5,8.15,8.15,0,0,1-3.1-.57,6.56,6.56,0,0,1-2.38-1.61,7.34,7.34,0,0,1-1.53-2.49,9,9,0,0,1-.55-3.24,11.57,11.57,0,0,1,.66-3.81,20.42,20.42,0,0,1,1.71-3.68,27.31,27.31,0,0,1,2.38-3.37,32.43,32.43,0,0,1,2.66-2.87h5.24A32.54,32.54,0,0,0,131.9,55a33.5,33.5,0,0,0-3.13,4.81c.32-.19.62-.34.88-.47a5.91,5.91,0,0,1,.74-.29,3.42,3.42,0,0,1,.72-.16,6.71,6.71,0,0,1,.82,0,5.78,5.78,0,0,1,2.38.48,5.14,5.14,0,0,1,1.85,1.38,6.64,6.64,0,0,1,1.22,2.11A8,8,0,0,1,137.82,65.54Zm-4.13.09a3.1,3.1,0,0,0-.73-2.17,2.55,2.55,0,0,0-2-.79,4.07,4.07,0,0,0-2.88,1.22q-.09.47-.12.69a5,5,0,0,0,0,.61,3.45,3.45,0,0,0,.84,2.41,2.81,2.81,0,0,0,2.19.93,2.56,2.56,0,0,0,2-.8A3,3,0,0,0,133.69,65.63Z"/><path class="cls-1" d="M159.35,72.27a9.38,9.38,0,0,1-2.22.26A7.53,7.53,0,0,1,154.4,72a6.77,6.77,0,0,1-2.15-1.35,5.77,5.77,0,0,1-1.41-2.07,6.89,6.89,0,0,1-.5-2.69,8.63,8.63,0,0,1,.45-2.84,5.87,5.87,0,0,1,1.36-2.24,6.37,6.37,0,0,1,2.27-1.45,8.8,8.8,0,0,1,3.14-.51,7.14,7.14,0,0,1,2.37.32,9,9,0,0,1,1.54.7l-.71,3.56-.8-.38a4,4,0,0,0-.61-.28,2.66,2.66,0,0,0-.66-.16,6.92,6.92,0,0,0-.85,0,3.24,3.24,0,0,0-2.39.84,3.14,3.14,0,0,0-.83,2.29,3,3,0,0,0,.87,2.3,3.48,3.48,0,0,0,2.51.83,7.16,7.16,0,0,0,1.61-.19,10.26,10.26,0,0,0,1.64-.59l.28,3.37A10.46,10.46,0,0,1,159.35,72.27Z"/><path class="cls-1" d="M178.39,65.66a7.87,7.87,0,0,1-.51,2.94,5.84,5.84,0,0,1-1.45,2.14,6,6,0,0,1-2.25,1.33,9.47,9.47,0,0,1-5.83,0,6,6,0,0,1-3.72-3.47,7.67,7.67,0,0,1-.53-2.94,7.56,7.56,0,0,1,.51-2.86,5.91,5.91,0,0,1,3.69-3.46,10,10,0,0,1,5.88,0,6.25,6.25,0,0,1,2.25,1.3,5.76,5.76,0,0,1,1.45,2.14A7.7,7.7,0,0,1,178.39,65.66Zm-4.12,0a2.87,2.87,0,0,0-3.07-3.12,2.89,2.89,0,0,0-2.21.83,3.22,3.22,0,0,0-.76,2.29A3.4,3.4,0,0,0,169,68a2.82,2.82,0,0,0,2.22.84,3,3,0,0,0,2.27-.82A3.3,3.3,0,0,0,174.27,65.66Z"/><path class="cls-1" d="M182.39,72.53V50.92h4.13V72.53Z"/><path class="cls-1" d="M204.87,65.66a7.87,7.87,0,0,1-.51,2.94,6,6,0,0,1-1.45,2.14,6.15,6.15,0,0,1-2.26,1.33,9.47,9.47,0,0,1-5.83,0,6.11,6.11,0,0,1-2.25-1.33,6,6,0,0,1-1.47-2.14,7.68,7.68,0,0,1-.52-2.94,7.76,7.76,0,0,1,.5-2.86,5.9,5.9,0,0,1,1.44-2.13,6,6,0,0,1,2.25-1.33,10,10,0,0,1,5.88,0,6.38,6.38,0,0,1,2.26,1.3,5.88,5.88,0,0,1,1.45,2.14A7.7,7.7,0,0,1,204.87,65.66Zm-4.13,0a2.87,2.87,0,0,0-3.07-3.12,2.85,2.85,0,0,0-2.2.83,3.22,3.22,0,0,0-.77,2.29,3.4,3.4,0,0,0,.75,2.37,2.82,2.82,0,0,0,2.22.84,3,3,0,0,0,2.27-.82A3.26,3.26,0,0,0,200.74,65.66Z"/><path class="cls-1" d="M218.1,72.15a6,6,0,0,1-.26-.71c-.05-.19-.11-.45-.17-.81a6,6,0,0,1-4.37,1.9,4.57,4.57,0,0,1-1.85-.38,4.67,4.67,0,0,1-1.48-1,4.57,4.57,0,0,1-1-1.6,6,6,0,0,1-.34-2.08c0-.85,0-1.63.06-2.36s.07-1.42.09-2.08,0-1.33,0-2-.07-1.37-.15-2.11h4.12c.06.67.1,1.33.11,2s0,1.25,0,1.87,0,1.25-.06,1.88,0,1.32,0,2a3.37,3.37,0,0,0,.2,1.27,1.37,1.37,0,0,0,.5.67,1.42,1.42,0,0,0,.63.25,4,4,0,0,0,.55.05,3.31,3.31,0,0,0,.66-.12,2.14,2.14,0,0,0,.93-.57,3.94,3.94,0,0,0,.83-1.31,6.48,6.48,0,0,0,.35-2.34V58.89h4.12v9a15.83,15.83,0,0,0,.19,2.35,7.23,7.23,0,0,0,.5,1.9Z"/><path class="cls-1" d="M236,62.7l-.68-.13a4.73,4.73,0,0,0-.56,0A3.17,3.17,0,0,0,232,63.75a6,6,0,0,0-.92,3.61v5.17H227v-9c0-.5,0-.94,0-1.32s0-.72-.07-1a9.6,9.6,0,0,0-.17-1c-.08-.31-.17-.67-.3-1.08h3.92c.06.26.12.47.17.65a3.61,3.61,0,0,1,.11.51c0,.16.05.33.07.51a6,6,0,0,1,0,.65,7.18,7.18,0,0,1,1.76-2,3.41,3.41,0,0,1,2-.58,3.06,3.06,0,0,1,.73.07,8.05,8.05,0,0,1,.82.31Z"/><path class="cls-1" d="M249,54.73a7.09,7.09,0,0,0-1.12-.42,4.62,4.62,0,0,0-1-.11,2.9,2.9,0,0,0-1.27.25,1.81,1.81,0,0,0-.78.79,4.4,4.4,0,0,0-.38,1.44,17.36,17.36,0,0,0-.11,2.21h3.28v3H244.3V72.53h-4.13V61.83H237.6V58.89h2.51a18.53,18.53,0,0,1,.34-3.83,6.31,6.31,0,0,1,1-2.45,3.82,3.82,0,0,1,1.74-1.3,6.79,6.79,0,0,1,2.4-.39,10.59,10.59,0,0,1,3.69.62Z"/><path class="cls-1" d="M259.24,72.15a6,6,0,0,1-.26-.71,6.4,6.4,0,0,1-.17-.81,6.07,6.07,0,0,1-4.38,1.9,4.52,4.52,0,0,1-1.84-.38,4.6,4.6,0,0,1-1.49-1,4.72,4.72,0,0,1-1-1.6,6.26,6.26,0,0,1-.34-2.08c0-.85,0-1.63.07-2.36s.07-1.42.09-2.08,0-1.33,0-2-.07-1.37-.16-2.11h4.13c.06.67.09,1.33.11,2s0,1.25,0,1.87,0,1.25-.07,1.88,0,1.32,0,2a3.4,3.4,0,0,0,.19,1.27,1.5,1.5,0,0,0,.5.67,1.51,1.51,0,0,0,.63.25,4.28,4.28,0,0,0,.55.05,3.09,3.09,0,0,0,.66-.12,2.16,2.16,0,0,0,.94-.57,3.93,3.93,0,0,0,.82-1.31,6.25,6.25,0,0,0,.36-2.34V58.89h4.12v9a14.59,14.59,0,0,0,.19,2.35,7.7,7.7,0,0,0,.49,1.9Z"/><path class="cls-1" d="M267.79,72.53V50.92h4.13V72.53Z"/><path class="cls-1" d="M300.06,64.72a9.08,9.08,0,0,1-.53,3.21,6.73,6.73,0,0,1-3.93,4,8.32,8.32,0,0,1-3.11.56,15.49,15.49,0,0,1-3.09-.33,13.85,13.85,0,0,1-2.91-.88v-20h4.12v9.2a4.85,4.85,0,0,1,1.77-1.19,6.18,6.18,0,0,1,2.25-.39,5.77,5.77,0,0,1,2.22.41,4.72,4.72,0,0,1,1.72,1.18,5.37,5.37,0,0,1,1.1,1.84A6.94,6.94,0,0,1,300.06,64.72Zm-4.12.75a2.75,2.75,0,0,0-.62-1.9,2.25,2.25,0,0,0-1.76-.69,3,3,0,0,0-1.25.26,3.06,3.06,0,0,0-.94.68,3,3,0,0,0-.59,1,3.36,3.36,0,0,0-.2,1.18v2.36a3.78,3.78,0,0,0,1,.36,5.72,5.72,0,0,0,1.13.09,3.19,3.19,0,0,0,2.39-.89A3.35,3.35,0,0,0,295.94,65.47Z"/><path class="cls-1" d="M313.49,72.53a3.68,3.68,0,0,0,0-.53c0-.17,0-.36-.05-.59s0-.47,0-.71a5,5,0,0,1-2,1.59,6.56,6.56,0,0,1-2.64.54,4.91,4.91,0,0,1-4-1.67,7.22,7.22,0,0,1-1.41-4.77,7.33,7.33,0,0,1,2.28-5.78c1.52-1.36,3.68-2,6.49-2q.69,0,1.26,0c.37,0,.75,0,1.13.1s.76.12,1.16.21a12.92,12.92,0,0,1,1.32.34v8.8q0,.72,0,1.5c0,.53.05,1,.09,1.45s.09,1,.13,1.52Zm-.65-10.11a8.61,8.61,0,0,0-1-.16l-.82,0a3.31,3.31,0,0,0-2.65,1.1,4.56,4.56,0,0,0-.95,3.06,3,3,0,0,0,.57,2,2,2,0,0,0,1.61.68,2.82,2.82,0,0,0,1.25-.28,3,3,0,0,0,1-.79,3.51,3.51,0,0,0,.69-1.21,4.48,4.48,0,0,0,.26-1.56Z"/><path class="cls-1" d="M321.55,72.53V50.92h4.12V72.53Z"/><path class="cls-1" d="M330.51,72.53V50.92h4.12V72.53Z"/><path class="cls-1" d="M353,65.66a7.87,7.87,0,0,1-.51,2.94A5.84,5.84,0,0,1,351,70.74a6.19,6.19,0,0,1-2.25,1.33,9.5,9.5,0,0,1-5.84,0,6.19,6.19,0,0,1-2.25-1.33,6,6,0,0,1-1.47-2.14,7.68,7.68,0,0,1-.52-2.94,7.56,7.56,0,0,1,.51-2.86,5.84,5.84,0,0,1,3.69-3.46,9.15,9.15,0,0,1,3-.45,9.28,9.28,0,0,1,2.92.43,6.42,6.42,0,0,1,2.25,1.3,5.76,5.76,0,0,1,1.45,2.14A7.7,7.7,0,0,1,353,65.66Zm-4.12,0a2.87,2.87,0,0,0-3.07-3.12,2.87,2.87,0,0,0-2.21.83,3.22,3.22,0,0,0-.77,2.29,3.4,3.4,0,0,0,.75,2.37,2.84,2.84,0,0,0,2.23.84,3.06,3.06,0,0,0,2.27-.82A3.3,3.3,0,0,0,348.86,65.66Z"/><path class="cls-1" d="M370.5,65.66A7.87,7.87,0,0,1,370,68.6a6,6,0,0,1-1.45,2.14,6.15,6.15,0,0,1-2.26,1.33,9.47,9.47,0,0,1-5.83,0,6,6,0,0,1-3.72-3.47,7.67,7.67,0,0,1-.53-2.94,7.56,7.56,0,0,1,.51-2.86,5.9,5.9,0,0,1,1.44-2.13,6,6,0,0,1,2.25-1.33,10,10,0,0,1,5.88,0,6.38,6.38,0,0,1,2.26,1.3A5.88,5.88,0,0,1,370,62.76,7.7,7.7,0,0,1,370.5,65.66Zm-4.13,0a2.87,2.87,0,0,0-3.07-3.12,2.85,2.85,0,0,0-2.2.83,3.17,3.17,0,0,0-.77,2.29,3.4,3.4,0,0,0,.75,2.37,2.82,2.82,0,0,0,2.22.84,3,3,0,0,0,2.27-.82A3.26,3.26,0,0,0,366.37,65.66Z"/><path class="cls-1" d="M383.27,72.53V64.79a3.25,3.25,0,0,0-.2-1.26,1.9,1.9,0,0,0-.48-.67,1.26,1.26,0,0,0-.59-.27,4,4,0,0,0-.53-.05,3.13,3.13,0,0,0-.65.12,2.25,2.25,0,0,0-.95.57,3.91,3.91,0,0,0-.85,1.32,5.94,5.94,0,0,0-.37,2.33v5.65h-4.13v-9a15.9,15.9,0,0,0-.18-2.35,7.23,7.23,0,0,0-.5-1.9H378a6,6,0,0,1,.26.71c0,.19.11.45.17.81a6.5,6.5,0,0,1,2.13-1.43,6.09,6.09,0,0,1,2.3-.46,4.53,4.53,0,0,1,1.81.36,4.21,4.21,0,0,1,1.44,1,4.47,4.47,0,0,1,1,1.6,6.18,6.18,0,0,1,.35,2.13v8.54Z"/></g></svg>