<svg xmlns="http://www.w3.org/2000/svg" viewBox="0 0 256 128"><defs><style>.cls-1{fill:#323232;}</style></defs><g id="_8_Leaf" data-name="8 Leaf"><path class="cls-1" d="M103.68,67.07a4.72,4.72,0,0,1-1.94,4,8.94,8.94,0,0,1-5.41,1.44,12,12,0,0,1-3.23-.4A8.66,8.66,0,0,1,90.61,71,5.31,5.31,0,0,1,89,69.21a4.76,4.76,0,0,1-.57-2.33,4.63,4.63,0,0,1,1-3.12,8.62,8.62,0,0,1,3.45-2.19c-.84-.53-1.53-1-2-1.39A5.59,5.59,0,0,1,89.68,59a3.57,3.57,0,0,1-.57-1.22A6.67,6.67,0,0,1,89,56.27a4.76,4.76,0,0,1,1.79-4c1.2-.94,3-1.4,5.52-1.4a11.09,11.09,0,0,1,2.93.36,7.09,7.09,0,0,1,2.25,1,4.73,4.73,0,0,1,1.43,1.63,4.63,4.63,0,0,1,.49,2.15,4.78,4.78,0,0,1-.91,2.94,9,9,0,0,1-3,2.36,7.6,7.6,0,0,1,3.24,2.34A5.51,5.51,0,0,1,103.68,67.07Zm-4.12-.4a2.12,2.12,0,0,0-.25-1.07,2.55,2.55,0,0,0-.73-.78,6.45,6.45,0,0,0-1.15-.64c-.44-.2-.94-.41-1.5-.61a6.3,6.3,0,0,0-2.26,1.15A2.06,2.06,0,0,0,93,66.3,2.2,2.2,0,0,0,94,68.18a4.11,4.11,0,0,0,2.51.69,3.81,3.81,0,0,0,2.26-.6A1.87,1.87,0,0,0,99.56,66.67ZM99,56.84a2,2,0,0,0-.82-1.66A3.47,3.47,0,0,0,96,54.54a3,3,0,0,0-1.92.6,1.88,1.88,0,0,0-.74,1.52c0,1.09,1,2.05,3,2.91a4.64,4.64,0,0,0,2.08-1.18A2.31,2.31,0,0,0,99,56.84Z"/><path class="cls-1" d="M116.61,72.52V50.92h4.12v21.6Z"/><path class="cls-1" d="M137.38,62.64a3.58,3.58,0,0,1-.55,1.92A4.61,4.61,0,0,1,135.27,66a8.72,8.72,0,0,1-2.41,1,13.91,13.91,0,0,1-3.16.34l-.38,0h-.5a2.87,2.87,0,0,0,.93,1.84,3,3,0,0,0,2,.67,9.18,9.18,0,0,0,4.56-1.4v3.26a8.79,8.79,0,0,1-2.24,1,9.32,9.32,0,0,1-2.44.3,8,8,0,0,1-2.8-.47,5.71,5.71,0,0,1-2.13-1.35,5.93,5.93,0,0,1-1.33-2.1,7.83,7.83,0,0,1-.46-2.78,8.6,8.6,0,0,1,.54-3.11A7.25,7.25,0,0,1,127,60.68a6.68,6.68,0,0,1,2.34-1.58,7.89,7.89,0,0,1,3-.56A5.71,5.71,0,0,1,136,59.66,3.64,3.64,0,0,1,137.38,62.64Zm-4.13.31a1.1,1.1,0,0,0-.42-.86,1.64,1.64,0,0,0-1.07-.35,2.47,2.47,0,0,0-1.77.72,3.46,3.46,0,0,0-1,2,2.11,2.11,0,0,0,.49.07H130C132.17,64.53,133.25,64,133.25,63Z"/><path class="cls-1" d="M150.3,72.52c0-.14,0-.32,0-.52s0-.36-.05-.59,0-.47-.05-.71a4.89,4.89,0,0,1-2,1.59,6.56,6.56,0,0,1-2.64.54,4.88,4.88,0,0,1-4-1.67,7.22,7.22,0,0,1-1.41-4.77,7.39,7.39,0,0,1,2.27-5.79,9.47,9.47,0,0,1,6.49-2c.47,0,.88,0,1.26,0s.76,0,1.13.1.77.12,1.17.21.83.19,1.32.34v8.8q0,.72,0,1.5c0,.53.05,1,.09,1.45s.08,1,.12,1.51Zm-.65-10.1a6.42,6.42,0,0,0-1-.16l-.82,0a3.3,3.3,0,0,0-2.64,1.1,4.5,4.5,0,0,0-1,3.06,3,3,0,0,0,.57,2,2,2,0,0,0,1.61.68,2.78,2.78,0,0,0,1.24-.28,3.12,3.12,0,0,0,1-.79,3.86,3.86,0,0,0,.69-1.21,4.48,4.48,0,0,0,.25-1.56Z"/><path class="cls-1" d="M168,54.73a5.53,5.53,0,0,0-1.12-.42,4.62,4.62,0,0,0-1-.11,2.9,2.9,0,0,0-1.27.25,1.75,1.75,0,0,0-.78.79,4.64,4.64,0,0,0-.39,1.44,19.38,19.38,0,0,0-.11,2.2h3.29v3h-3.25V72.52h-4.13V61.83h-2.57V58.88h2.51a17.83,17.83,0,0,1,.34-3.82,6.31,6.31,0,0,1,1-2.45,3.81,3.81,0,0,1,1.74-1.31,7,7,0,0,1,2.4-.38,10.59,10.59,0,0,1,3.69.62Z"/></g></svg>