<svg xmlns="http://www.w3.org/2000/svg" viewBox="0 0 256 128"><defs><style>.cls-1{fill:#323232;}</style></defs><g id="_5_Rabbits" data-name="5 Rabbits"><path class="cls-1" d="M81.14,65.63a6.49,6.49,0,0,1-2,5.1,8.13,8.13,0,0,1-5.62,1.8,10.56,10.56,0,0,1-4.11-.79,9.17,9.17,0,0,1-3.27-2.33l1.74-3a8.17,8.17,0,0,0,5.39,2.51A4.15,4.15,0,0,0,76,68a2.67,2.67,0,0,0,1-2.18,3,3,0,0,0-.88-2.37,3.7,3.7,0,0,0-2.56-.8A3.78,3.78,0,0,0,72,63a7,7,0,0,0-1.53,1.1L67.75,62.6l.31-11.71h12.4l0,3.65H72l-.15,5.09.78-.36A6.21,6.21,0,0,1,73.3,59a3.71,3.71,0,0,1,.68-.12q.36,0,.81,0a6.75,6.75,0,0,1,2.59.48,5.66,5.66,0,0,1,2,1.37,6.15,6.15,0,0,1,1.3,2.14A7.82,7.82,0,0,1,81.14,65.63Z"/><path class="cls-1" d="M104.12,62.7l-.69-.13a4.56,4.56,0,0,0-.55,0,3.18,3.18,0,0,0-2.69,1.21,6,6,0,0,0-.91,3.61v5.17H95.16v-9c0-.5,0-.94,0-1.32s0-.72-.08-1a9.6,9.6,0,0,0-.17-1c-.07-.31-.17-.67-.29-1.08h3.91c.07.26.12.47.18.65a3.61,3.61,0,0,1,.11.51q0,.24.06.51a5.79,5.79,0,0,1,0,.65,7,7,0,0,1,1.76-2,3.39,3.39,0,0,1,2-.58,3.06,3.06,0,0,1,.73.07c.19.06.47.16.82.31Z"/><path class="cls-1" d="M115.55,72.53c0-.15,0-.32,0-.53s0-.36,0-.59,0-.47,0-.71a4.89,4.89,0,0,1-2,1.59,6.56,6.56,0,0,1-2.64.54,4.88,4.88,0,0,1-4-1.67,7.22,7.22,0,0,1-1.41-4.77,7.36,7.36,0,0,1,2.27-5.78,9.42,9.42,0,0,1,6.49-2c.47,0,.88,0,1.26,0s.76,0,1.13.1.77.12,1.17.21.83.19,1.32.34v8.8q0,.72,0,1.5c0,.53,0,1,.09,1.45l.12,1.52Zm-.65-10.11a8,8,0,0,0-1-.16l-.82,0a3.3,3.3,0,0,0-2.64,1.1,4.5,4.5,0,0,0-.95,3.06,3,3,0,0,0,.57,2,2,2,0,0,0,1.61.68,2.78,2.78,0,0,0,1.24-.28,3,3,0,0,0,1-.79,3.86,3.86,0,0,0,.69-1.21,4.48,4.48,0,0,0,.25-1.56Z"/><path class="cls-1" d="M137.28,64.72a9.08,9.08,0,0,1-.53,3.21,6.9,6.9,0,0,1-1.54,2.46A7,7,0,0,1,132.83,72a8.41,8.41,0,0,1-3.12.56,15.49,15.49,0,0,1-3.09-.33,14,14,0,0,1-2.91-.88v-20h4.12v9.2a4.85,4.85,0,0,1,1.77-1.19,6.18,6.18,0,0,1,2.25-.39,5.77,5.77,0,0,1,2.22.41,4.72,4.72,0,0,1,1.72,1.18,5.37,5.37,0,0,1,1.1,1.84A6.94,6.94,0,0,1,137.28,64.72Zm-4.12.75a2.75,2.75,0,0,0-.62-1.9,2.25,2.25,0,0,0-1.75-.69,2.91,2.91,0,0,0-1.25.26A2.82,2.82,0,0,0,128,64.82a3.36,3.36,0,0,0-.2,1.18v2.36a3.78,3.78,0,0,0,1,.36,5.72,5.72,0,0,0,1.13.09,3.19,3.19,0,0,0,2.39-.89A3.35,3.35,0,0,0,133.16,65.47Z"/><path class="cls-1" d="M154.86,64.72a9.08,9.08,0,0,1-.54,3.21,6.74,6.74,0,0,1-1.53,2.46A6.93,6.93,0,0,1,150.4,72a8.36,8.36,0,0,1-3.11.56,15.66,15.66,0,0,1-3.1-.33,14.23,14.23,0,0,1-2.91-.88v-20h4.13v9.2a4.9,4.9,0,0,1,1.76-1.19,6.25,6.25,0,0,1,2.25-.39,5.7,5.7,0,0,1,2.22.41,4.76,4.76,0,0,1,1.73,1.18,5.37,5.37,0,0,1,1.1,1.84A6.94,6.94,0,0,1,154.86,64.72Zm-4.12.75a2.71,2.71,0,0,0-.63-1.9,2.23,2.23,0,0,0-1.75-.69,2.94,2.94,0,0,0-1.25.26,3.06,3.06,0,0,0-.94.68,3,3,0,0,0-.6,1,3.6,3.6,0,0,0-.19,1.18v2.36a3.78,3.78,0,0,0,1,.36,5.65,5.65,0,0,0,1.13.09,3.21,3.21,0,0,0,2.39-.89A3.35,3.35,0,0,0,150.74,65.47Z"/><path class="cls-1" d="M163.54,55.14a1.72,1.72,0,0,1-.71,1.38,2.86,2.86,0,0,1-3.44,0,1.86,1.86,0,0,1-.75-1.42,1.67,1.67,0,0,1,.69-1.42,2.71,2.71,0,0,1,1.79-.58,2.66,2.66,0,0,1,.92.16,2.3,2.3,0,0,1,.77.43,2,2,0,0,1,.53.66A1.72,1.72,0,0,1,163.54,55.14Zm-4.65,17.39V58.89H163V72.53Z"/><path class="cls-1" d="M168.72,72.53V61.83H166V58.89h2.73V55.44h4.06v3.45h3.5v2.94h-3.5v10.7Z"/><path class="cls-1" d="M188.59,68.74a3.92,3.92,0,0,1-1.31,3.1,5.43,5.43,0,0,1-3.7,1.15,15.13,15.13,0,0,1-3.14-.31,9,9,0,0,1-2.48-.84l.52-3.16a10.61,10.61,0,0,0,4.71,1.4,1.34,1.34,0,0,0,1-.3.89.89,0,0,0,.29-.66,1.15,1.15,0,0,0-.23-.76,3.41,3.41,0,0,0-1.13-.73,18.2,18.2,0,0,1-2.18-1.12,7.21,7.21,0,0,1-1.49-1.16,3.82,3.82,0,0,1-.84-1.29,4.38,4.38,0,0,1-.26-1.55,3.49,3.49,0,0,1,1.5-3,6.6,6.6,0,0,1,3.91-1.07,12.35,12.35,0,0,1,2.31.2,11.18,11.18,0,0,1,2.32.79l-.5,3.13a7.59,7.59,0,0,0-2.13-.85,9.89,9.89,0,0,0-2-.23,1.4,1.4,0,0,0-1,.26.94.94,0,0,0-.27.7,1,1,0,0,0,.43.85,8.33,8.33,0,0,0,1.65.85c.73.38,1.36.73,1.88,1.07a7,7,0,0,1,1.27,1.06,3.29,3.29,0,0,1,.7,1.14A4.15,4.15,0,0,1,188.59,68.74Z"/></g></svg>