<svg xmlns="http://www.w3.org/2000/svg" viewBox="0 0 256 128"><defs><style>.cls-1{opacity:0.5;}.cls-2{fill:#fff200;}</style></defs><g id="six"><g class="cls-1"><path d="M116.46,72a16.52,16.52,0,0,1-1.09,6.11A12.67,12.67,0,0,1,112,83a16.27,16.27,0,0,1-5.79,3.24,28.64,28.64,0,0,1-8.67,1.28,39.21,39.21,0,0,1-4.52-.29A40.15,40.15,0,0,1,88,86.26a41,41,0,0,1-5.24-1.7,29.62,29.62,0,0,1-4.84-2.44l3-9.66A40.11,40.11,0,0,0,90.58,77a24,24,0,0,0,7,1.08,7.29,7.29,0,0,0,4.56-1.46,4.42,4.42,0,0,0,1.6-3.76,5.5,5.5,0,0,0-1.44-3.54A17.23,17.23,0,0,0,97.58,66a88.9,88.9,0,0,1-8-4.8,30.58,30.58,0,0,1-5.4-4.57,15.94,15.94,0,0,1-3-4.69,14.72,14.72,0,0,1-1-5.15q-.16-7.07,4.75-11t13.92-4.11q2.53,0,4.59.12a23.59,23.59,0,0,1,4.08.58,28.3,28.3,0,0,1,4.15,1.32q2.15.85,4.75,2.18l-2.24,9.49c-1.39-.78-2.67-1.43-3.84-1.94a31.26,31.26,0,0,0-3.36-1.24,21.86,21.86,0,0,0-3.16-.69,23.33,23.33,0,0,0-3.32-.22,9.88,9.88,0,0,0-5.64,1.39,4.64,4.64,0,0,0-2,4.25,5.07,5.07,0,0,0,1.91,3.64,35.74,35.74,0,0,0,6.06,3.94q4.16,2.33,7.14,4.29a28.28,28.28,0,0,1,4.9,4A12.91,12.91,0,0,1,115.58,67,13.56,13.56,0,0,1,116.46,72Z"/><path d="M138.62,42.64a4.39,4.39,0,0,1-1.84,3.56,7.42,7.42,0,0,1-8.88,0A4.79,4.79,0,0,1,126,42.5a4.34,4.34,0,0,1,1.76-3.67,7.63,7.63,0,0,1,7-1.08,6.18,6.18,0,0,1,2,1.12,5.73,5.73,0,0,1,1.36,1.69A4.36,4.36,0,0,1,138.62,42.64Zm-12,44.86V52.3h10.64V87.5Z"/><path d="M169.9,87.5l-6.24-11.2L157.1,87.5H144.86L157.5,68.86l-11-16.56h12.32l5.28,9.28,5-9.28h12.56L170.46,69.18,182.14,87.5Z"/></g><path class="cls-2" d="M113.46,69a16.52,16.52,0,0,1-1.09,6.11A12.67,12.67,0,0,1,109,80a16.27,16.27,0,0,1-5.79,3.24,28.64,28.64,0,0,1-8.67,1.28,39.21,39.21,0,0,1-4.52-.29A40.15,40.15,0,0,1,85,83.26a41,41,0,0,1-5.24-1.7,29.62,29.62,0,0,1-4.84-2.44l3-9.66A40.11,40.11,0,0,0,87.58,74a24,24,0,0,0,7,1.08,7.29,7.29,0,0,0,4.56-1.46,4.42,4.42,0,0,0,1.6-3.76A5.5,5.5,0,0,0,99.3,66.3,17.23,17.23,0,0,0,94.58,63a88.9,88.9,0,0,1-8-4.8,30.58,30.58,0,0,1-5.4-4.57,15.94,15.94,0,0,1-3-4.69,14.72,14.72,0,0,1-1-5.15q-.16-7.07,4.75-11t13.92-4.11q2.53,0,4.59.12a23.59,23.59,0,0,1,4.08.58,28.3,28.3,0,0,1,4.15,1.32q2.15.86,4.75,2.18l-2.24,9.49c-1.39-.78-2.67-1.43-3.84-1.94a31.26,31.26,0,0,0-3.36-1.24,21.86,21.86,0,0,0-3.16-.69,23.33,23.33,0,0,0-3.32-.22,9.88,9.88,0,0,0-5.64,1.39,4.64,4.64,0,0,0-2,4.25,5.07,5.07,0,0,0,1.91,3.64,35.74,35.74,0,0,0,6.06,3.94q4.16,2.33,7.14,4.29a28.28,28.28,0,0,1,4.9,4A12.91,12.91,0,0,1,112.58,64,13.56,13.56,0,0,1,113.46,69Z"/><path class="cls-2" d="M135.62,39.64a4.39,4.39,0,0,1-1.84,3.56,7.42,7.42,0,0,1-8.88,0A4.79,4.79,0,0,1,123,39.5a4.34,4.34,0,0,1,1.76-3.67,7.63,7.63,0,0,1,7-1.08,6.18,6.18,0,0,1,2,1.12,5.73,5.73,0,0,1,1.36,1.69A4.36,4.36,0,0,1,135.62,39.64Zm-12,44.86V49.3h10.64V84.5Z"/><path class="cls-2" d="M166.9,84.5l-6.24-11.2L154.1,84.5H141.86L154.5,65.86l-11-16.56h12.32l5.28,9.28,5-9.28h12.56L167.46,66.18,179.14,84.5Z"/></g></svg>