<svg xmlns="http://www.w3.org/2000/svg" viewBox="0 0 256 128"><defs><style>.cls-1{fill:#323232;}</style></defs><g id="_5_Flowers" data-name="5 Flowers"><path class="cls-1" d="M79.07,65.63a6.49,6.49,0,0,1-2,5.1,8.08,8.08,0,0,1-5.61,1.79,10.61,10.61,0,0,1-4.12-.78,9.17,9.17,0,0,1-3.27-2.33l1.74-3a8.19,8.19,0,0,0,5.39,2.51,4.19,4.19,0,0,0,2.7-.85,2.67,2.67,0,0,0,1-2.19,3,3,0,0,0-.88-2.36A4.26,4.26,0,0,0,69.88,63a6.84,6.84,0,0,0-1.54,1.1L65.68,62.6,66,50.89h12.4l0,3.65H70l-.15,5.09c.3-.15.56-.26.78-.36a6.35,6.35,0,0,1,.65-.23,3.43,3.43,0,0,1,.68-.12c.24,0,.51,0,.81,0a6.83,6.83,0,0,1,2.59.49,5.71,5.71,0,0,1,2,1.37,6.28,6.28,0,0,1,1.29,2.14A7.82,7.82,0,0,1,79.07,65.63Z"/><path class="cls-1" d="M102.57,72.52l0-16.83c-.17-.18-.32-.34-.45-.46a4.84,4.84,0,0,0-.47-.38,3,3,0,0,0-.59-.31,2.37,2.37,0,0,0-.82-.12,3.24,3.24,0,0,0-1.18.2,1.86,1.86,0,0,0-.83.7,3.7,3.7,0,0,0-.52,1.35,12,12,0,0,0-.17,2.21h3.23v3H97.64V72.52H93.51V61.83h-2.6V58.88h2.54a15.85,15.85,0,0,1,.43-4.07A6.26,6.26,0,0,1,95,52.45a3.34,3.34,0,0,1,1.66-1.08,7.38,7.38,0,0,1,2-.27,7,7,0,0,1,1.92.25,11.49,11.49,0,0,1,2,.87l0-1h4V72.52Z"/><path class="cls-1" d="M125.6,65.66a7.87,7.87,0,0,1-.51,2.94,5.84,5.84,0,0,1-1.45,2.14,6.15,6.15,0,0,1-2.26,1.33,9.67,9.67,0,0,1-5.83,0,6.19,6.19,0,0,1-2.25-1.33,6,6,0,0,1-1.47-2.14,7.68,7.68,0,0,1-.52-2.94,7.56,7.56,0,0,1,.51-2.86,5.88,5.88,0,0,1,1.43-2.13,6,6,0,0,1,2.25-1.33,9.83,9.83,0,0,1,5.88,0,6.38,6.38,0,0,1,2.26,1.3,5.8,5.8,0,0,1,1.45,2.13A7.79,7.79,0,0,1,125.6,65.66Zm-4.13,0a2.85,2.85,0,0,0-3.07-3.12,2.9,2.9,0,0,0-2.2.82,3.26,3.26,0,0,0-.77,2.3,3.42,3.42,0,0,0,.75,2.37,2.82,2.82,0,0,0,2.22.84,3,3,0,0,0,2.27-.83A3.23,3.23,0,0,0,121.47,65.66Z"/><path class="cls-1" d="M146.37,71a2.48,2.48,0,0,1-.82,1.17,2.52,2.52,0,0,1-1.41.34,2.34,2.34,0,0,1-1.43-.37,2.75,2.75,0,0,1-.81-1.26l-2.63-8L136.51,71a2,2,0,0,1-.79,1.14,2.71,2.71,0,0,1-1.47.34,4.45,4.45,0,0,1-.65,0,1.72,1.72,0,0,1-.59-.2,1.58,1.58,0,0,1-.53-.48,2.89,2.89,0,0,1-.43-.88l-4.34-12h4.18l1.8,5.51c.06.2.13.44.2.71s.15.54.23.8.18.63.28,1a5,5,0,0,1,.19-.76l.2-.71.2-.71,1.74-5.81h5L143.61,65a6.12,6.12,0,0,0,.17.59c.07.21.14.42.2.62a5.56,5.56,0,0,1,.19.7c.06-.2.12-.41.18-.64.11-.4.22-.78.34-1.15l1.83-6.2h4.34Z"/><path class="cls-1" d="M165.56,62.64a3.5,3.5,0,0,1-.56,1.92A4.48,4.48,0,0,1,163.45,66,8.85,8.85,0,0,1,161,67a14,14,0,0,1-3.16.34l-.38,0H157a2.87,2.87,0,0,0,.93,1.84,3,3,0,0,0,2,.67,9.18,9.18,0,0,0,4.56-1.4v3.26a8.7,8.7,0,0,1-2.25,1,9.19,9.19,0,0,1-2.43.3,8,8,0,0,1-2.8-.47,5.71,5.71,0,0,1-2.13-1.35,5.93,5.93,0,0,1-1.33-2.1,7.83,7.83,0,0,1-.47-2.78,8.4,8.4,0,0,1,.55-3.11,7.1,7.1,0,0,1,1.52-2.44,6.68,6.68,0,0,1,2.34-1.58,7.89,7.89,0,0,1,3-.56,5.71,5.71,0,0,1,3.68,1.12A3.64,3.64,0,0,1,165.56,62.64Zm-4.13.31a1.1,1.1,0,0,0-.42-.86,1.66,1.66,0,0,0-1.07-.35,2.47,2.47,0,0,0-1.77.72,3.46,3.46,0,0,0-.95,2,2,2,0,0,0,.49.07h.46C160.34,64.53,161.43,64,161.43,63Z"/><path class="cls-1" d="M178.27,62.7c-.29-.06-.52-.11-.69-.13a4.56,4.56,0,0,0-.55,0,3.18,3.18,0,0,0-2.69,1.21,5.94,5.94,0,0,0-.91,3.6v5.17h-4.12V63.57c0-.5,0-.94,0-1.32s0-.72-.08-1a7.55,7.55,0,0,0-.17-1c-.07-.32-.17-.67-.29-1.08h3.91l.18.65a3.61,3.61,0,0,1,.11.51q0,.24.06.51a4.11,4.11,0,0,1,0,.65,7,7,0,0,1,1.76-2,3.39,3.39,0,0,1,2-.59,3,3,0,0,1,.73.08c.19.06.47.16.82.31Z"/><path class="cls-1" d="M190.67,68.74a3.89,3.89,0,0,1-1.32,3.1A5.38,5.38,0,0,1,185.66,73a15.3,15.3,0,0,1-3.15-.31,9.57,9.57,0,0,1-2.48-.84l.53-3.16a10.61,10.61,0,0,0,4.71,1.4,1.34,1.34,0,0,0,1-.3,1,1,0,0,0,.29-.67,1.23,1.23,0,0,0-.23-.76,3.61,3.61,0,0,0-1.13-.72A20,20,0,0,1,183,66.51a7.49,7.49,0,0,1-1.49-1.16,3.79,3.79,0,0,1-.83-1.29,4.16,4.16,0,0,1-.27-1.55,3.49,3.49,0,0,1,1.5-3,6.63,6.63,0,0,1,3.92-1.07,12.42,12.42,0,0,1,2.31.2,11.11,11.11,0,0,1,2.31.79L190,62.54a7.3,7.3,0,0,0-2.13-.85,9.89,9.89,0,0,0-2-.23,1.45,1.45,0,0,0-1,.26,1,1,0,0,0-.26.7,1,1,0,0,0,.42.85,9,9,0,0,0,1.65.85,21.27,21.27,0,0,1,1.89,1.07,6.57,6.57,0,0,1,1.26,1.06,3.33,3.33,0,0,1,.71,1.14A4.15,4.15,0,0,1,190.67,68.74Z"/></g></svg>