<svg xmlns="http://www.w3.org/2000/svg" viewBox="0 0 256 128"><defs><style>.cls-1{opacity:0.5;}.cls-2{fill:#fff200;}</style></defs><g id="Layer_35" data-name="Layer 35"><g class="cls-1"><path d="M88.22,87.5q-5.85-8.4-10.39-15L74,66.94c-1.25-1.81-2.36-3.43-3.32-4.84s-2-3-3.24-4.76a29.93,29.93,0,0,1-1.8-2.64c-.63-1-1.22-2-1.8-2.88-.62-1.07-1.27-2.16-2-3.28.05,1.39.13,2.77.24,4.16q.16,1.84.24,4c0,1.41.08,2.73.08,4V87.5H49.9V31.66H63L83.63,62.14c1,1.55,2,2.93,2.89,4.16s1.72,2.51,2.5,3.84c-.11-1.28-.17-2.37-.2-3.28s0-1.76,0-2.56V31.66h12.56V87.5Z"/><path d="M126.06,42.64a4.39,4.39,0,0,1-1.84,3.56,7.42,7.42,0,0,1-8.88,0,4.79,4.79,0,0,1-1.92-3.67,4.34,4.34,0,0,1,1.76-3.67,7.63,7.63,0,0,1,7-1.08,6.18,6.18,0,0,1,2,1.12,5.73,5.73,0,0,1,1.36,1.69A4.36,4.36,0,0,1,126.06,42.64Zm-12,44.86V52.3H124.7V87.5Z"/><path d="M159.5,87.5v-20a8,8,0,0,0-.52-3.23,4.61,4.61,0,0,0-1.24-1.74,3,3,0,0,0-1.52-.69,9.4,9.4,0,0,0-1.36-.12,7.76,7.76,0,0,0-1.68.31,5.74,5.74,0,0,0-2.44,1.46,10,10,0,0,0-2.2,3.4,15.5,15.5,0,0,0-1,6V87.5H136.94V64.23a39.87,39.87,0,0,0-.48-6.07,19.89,19.89,0,0,0-1.28-4.9h10.64a15,15,0,0,1,.68,1.84c.13.48.28,1.17.44,2.08a16.62,16.62,0,0,1,5.49-3.68,15.8,15.8,0,0,1,5.95-1.2,11.69,11.69,0,0,1,4.67.93,11.38,11.38,0,0,1,3.72,2.61A12,12,0,0,1,169.24,60a15.89,15.89,0,0,1,.9,5.49v22Z"/><path d="M213.58,62a9.13,9.13,0,0,1-1.42,5,12,12,0,0,1-4,3.8,22.19,22.19,0,0,1-6.23,2.44,34.51,34.51,0,0,1-8.15.88c-.28,0-.6,0-1,0s-.8,0-1.3,0a7.39,7.39,0,0,0,2.4,4.76,7.59,7.59,0,0,0,5.18,1.72,23.67,23.67,0,0,0,11.78-3.6v8.4a23.32,23.32,0,0,1-5.8,2.52,24.13,24.13,0,0,1-6.28.76,20.71,20.71,0,0,1-7.24-1.2,14.7,14.7,0,0,1-5.48-3.48,15.53,15.53,0,0,1-3.44-5.44,20.06,20.06,0,0,1-1.2-7.16,22.32,22.32,0,0,1,1.4-8,18.61,18.61,0,0,1,3.92-6.28,17.25,17.25,0,0,1,6-4.08,20.31,20.31,0,0,1,7.76-1.44q5.93,0,9.48,2.88A9.39,9.39,0,0,1,213.58,62Zm-10.64.8a2.79,2.79,0,0,0-1.1-2.2,4.16,4.16,0,0,0-2.76-.92,6.31,6.31,0,0,0-4.56,1.88,8.9,8.9,0,0,0-2.46,5.16,6.49,6.49,0,0,0,1.27.16h1.19Q202.94,66.86,202.94,62.78Z"/></g><path class="cls-2" d="M85.22,84.5q-5.85-8.4-10.39-15L71,63.94c-1.25-1.81-2.36-3.43-3.32-4.84s-2-3-3.24-4.76a29.93,29.93,0,0,1-1.8-2.64c-.63-1-1.22-2-1.8-2.88-.62-1.07-1.27-2.16-2-3.28.05,1.39.13,2.77.24,4.16q.16,1.84.24,4c0,1.41.08,2.73.08,4V84.5H46.9V28.66H60L80.63,59.14c1,1.55,2,2.93,2.89,4.16s1.72,2.51,2.5,3.84c-.11-1.28-.17-2.37-.2-3.28s0-1.76,0-2.56V28.66H98.34V84.5Z"/><path class="cls-2" d="M123.06,39.64a4.39,4.39,0,0,1-1.84,3.56,7.42,7.42,0,0,1-8.88,0,4.79,4.79,0,0,1-1.92-3.67,4.34,4.34,0,0,1,1.76-3.67,7.63,7.63,0,0,1,7-1.08,6.18,6.18,0,0,1,2,1.12,5.73,5.73,0,0,1,1.36,1.69A4.36,4.36,0,0,1,123.06,39.64Zm-12,44.86V49.3H121.7V84.5Z"/><path class="cls-2" d="M156.5,84.5v-20a8,8,0,0,0-.52-3.23,4.61,4.61,0,0,0-1.24-1.74,3,3,0,0,0-1.52-.69,9.4,9.4,0,0,0-1.36-.12,7.76,7.76,0,0,0-1.68.31,5.74,5.74,0,0,0-2.44,1.46,10,10,0,0,0-2.2,3.4,15.5,15.5,0,0,0-1,6V84.5H133.94V61.23a39.87,39.87,0,0,0-.48-6.07,19.89,19.89,0,0,0-1.28-4.9h10.64a15,15,0,0,1,.68,1.84c.13.48.28,1.17.44,2.08a16.62,16.62,0,0,1,5.49-3.68,15.8,15.8,0,0,1,5.95-1.2,11.69,11.69,0,0,1,4.67.93,11.38,11.38,0,0,1,3.72,2.61A12,12,0,0,1,166.24,57a15.89,15.89,0,0,1,.9,5.49v22Z"/><path class="cls-2" d="M210.58,59a9.13,9.13,0,0,1-1.42,5,12,12,0,0,1-4,3.8,22.19,22.19,0,0,1-6.23,2.44,34.51,34.51,0,0,1-8.15.88c-.28,0-.6,0-1,0s-.8,0-1.3,0a7.39,7.39,0,0,0,2.4,4.76,7.59,7.59,0,0,0,5.18,1.72,23.67,23.67,0,0,0,11.78-3.6v8.4a23.32,23.32,0,0,1-5.8,2.52,24.13,24.13,0,0,1-6.28.76,20.71,20.71,0,0,1-7.24-1.2,14.7,14.7,0,0,1-5.48-3.48,15.53,15.53,0,0,1-3.44-5.44,20.06,20.06,0,0,1-1.2-7.16,22.32,22.32,0,0,1,1.4-8,18.61,18.61,0,0,1,3.92-6.28,17.25,17.25,0,0,1,6-4.08,20.31,20.31,0,0,1,7.76-1.44q5.93,0,9.48,2.88A9.39,9.39,0,0,1,210.58,59Zm-10.64.8a2.79,2.79,0,0,0-1.1-2.2,4.16,4.16,0,0,0-2.76-.92,6.31,6.31,0,0,0-4.56,1.88,8.9,8.9,0,0,0-2.46,5.16,6.49,6.49,0,0,0,1.27.16h1.19Q199.94,63.86,199.94,59.78Z"/></g></svg>