<svg xmlns="http://www.w3.org/2000/svg" viewBox="0 0 256 128"><defs><style>.cls-1{opacity:0.5;}.cls-2{fill:#fff200;}</style></defs><g id="Layer_40" data-name="Layer 40"><g class="cls-1"><path d="M68.58,41.1V55.58h18V65h-18V87.5H56V31.66h33V41.1Z"/><path d="M128.1,69.79a20.35,20.35,0,0,1-1.31,7.57A15.19,15.19,0,0,1,123,82.9a16.08,16.08,0,0,1-5.81,3.43,24.82,24.82,0,0,1-15.06,0,16.16,16.16,0,0,1-5.81-3.43,15.51,15.51,0,0,1-3.78-5.54,19.55,19.55,0,0,1-1.36-7.57,19.44,19.44,0,0,1,1.32-7.39,15.34,15.34,0,0,1,3.7-5.5,15.67,15.67,0,0,1,5.81-3.43,25.62,25.62,0,0,1,15.18,0A15.92,15.92,0,0,1,123,56.78a14.91,14.91,0,0,1,3.75,5.51A20.12,20.12,0,0,1,128.1,69.79Zm-10.64,0a7.37,7.37,0,0,0-7.92-8.05,7.43,7.43,0,0,0-5.7,2.12,8.35,8.35,0,0,0-2,5.93,8.82,8.82,0,0,0,1.94,6.11,7.31,7.31,0,0,0,5.74,2.16,7.82,7.82,0,0,0,5.86-2.12A8.48,8.48,0,0,0,117.46,69.79Z"/><path d="M162.26,86.54a15,15,0,0,1-.68-1.84c-.13-.48-.28-1.17-.44-2.08a15.69,15.69,0,0,1-11.28,4.88,11.61,11.61,0,0,1-4.76-1,12,12,0,0,1-3.84-2.69,11.74,11.74,0,0,1-2.52-4.13,15.51,15.51,0,0,1-.88-5.37q0-3.27.16-6.08c.11-1.86.19-3.66.24-5.37s.05-3.43,0-5.14-.19-3.53-.4-5.45H148.5c.16,1.75.25,3.43.28,5.05s0,3.23,0,4.82-.08,3.22-.16,4.86-.12,3.39-.12,5.24a8.75,8.75,0,0,0,.5,3.28,3.76,3.76,0,0,0,1.29,1.74,3.71,3.71,0,0,0,1.63.65,10,10,0,0,0,1.41.12,7.75,7.75,0,0,0,1.71-.31,5.51,5.51,0,0,0,2.42-1.46,10,10,0,0,0,2.12-3.4,16.17,16.17,0,0,0,.92-6V52.3h10.64V75.57a39.87,39.87,0,0,0,.48,6.07,19.89,19.89,0,0,0,1.28,4.9Z"/><path d="M208.34,62.14c-.75-.16-1.33-.27-1.76-.32a12.48,12.48,0,0,0-1.44-.08,8.13,8.13,0,0,0-6.92,3.12c-1.57,2.09-2.36,5.18-2.36,9.3V87.5H185.22V64.39c0-1.3,0-2.44,0-3.4s-.09-1.87-.2-2.7a25,25,0,0,0-.44-2.47c-.19-.81-.44-1.74-.76-2.78h10.1c.16.66.32,1.22.45,1.68a8,8,0,0,1,.29,1.31c.06.42.11.85.17,1.32a15.75,15.75,0,0,1,.08,1.68,18,18,0,0,1,4.55-5.21,8.75,8.75,0,0,1,5.08-1.52,7.67,7.67,0,0,1,1.88.2,19.09,19.09,0,0,1,2.12.78Z"/></g><path class="cls-2" d="M65.58,38.1V52.58h18V62h-18V84.5H53V28.66h33V38.1Z"/><path class="cls-2" d="M125.1,66.79a20.35,20.35,0,0,1-1.31,7.57A15.19,15.19,0,0,1,120,79.9a16.08,16.08,0,0,1-5.81,3.43,24.82,24.82,0,0,1-15.06,0,16.16,16.16,0,0,1-5.81-3.43,15.51,15.51,0,0,1-3.78-5.54,19.55,19.55,0,0,1-1.36-7.57,19.44,19.44,0,0,1,1.32-7.39,15.34,15.34,0,0,1,3.7-5.5,15.67,15.67,0,0,1,5.81-3.43,25.62,25.62,0,0,1,15.18,0A15.92,15.92,0,0,1,120,53.78a14.91,14.91,0,0,1,3.75,5.51A20.12,20.12,0,0,1,125.1,66.79Zm-10.64,0a7.37,7.37,0,0,0-7.92-8.05,7.43,7.43,0,0,0-5.7,2.12,8.35,8.35,0,0,0-2,5.93,8.82,8.82,0,0,0,1.94,6.11,7.31,7.31,0,0,0,5.74,2.16,7.82,7.82,0,0,0,5.86-2.12A8.48,8.48,0,0,0,114.46,66.79Z"/><path class="cls-2" d="M159.26,83.54a15,15,0,0,1-.68-1.84c-.13-.48-.28-1.17-.44-2.08a15.69,15.69,0,0,1-11.28,4.88,11.61,11.61,0,0,1-4.76-1,12,12,0,0,1-3.84-2.69,11.74,11.74,0,0,1-2.52-4.13,15.51,15.51,0,0,1-.88-5.37q0-3.27.16-6.08c.11-1.86.19-3.66.24-5.37s.05-3.43,0-5.14-.19-3.53-.4-5.45H145.5c.16,1.75.25,3.43.28,5.05s0,3.23,0,4.82-.08,3.22-.16,4.86-.12,3.39-.12,5.24a8.75,8.75,0,0,0,.5,3.28,3.76,3.76,0,0,0,1.29,1.74,3.71,3.71,0,0,0,1.63.65,10,10,0,0,0,1.41.12,7.75,7.75,0,0,0,1.71-.31,5.51,5.51,0,0,0,2.42-1.46,10,10,0,0,0,2.12-3.4,16.17,16.17,0,0,0,.92-6V49.3h10.64V72.57a39.87,39.87,0,0,0,.48,6.07,19.89,19.89,0,0,0,1.28,4.9Z"/><path class="cls-2" d="M205.34,59.14c-.75-.16-1.33-.27-1.76-.32a12.48,12.48,0,0,0-1.44-.08,8.13,8.13,0,0,0-6.92,3.12c-1.57,2.09-2.36,5.18-2.36,9.3V84.5H182.22V61.39c0-1.3,0-2.44,0-3.4s-.09-1.87-.2-2.7a25,25,0,0,0-.44-2.47c-.19-.81-.44-1.74-.76-2.78h10.1c.16.66.32,1.22.45,1.68a8,8,0,0,1,.29,1.31c.06.42.11.85.17,1.32a15.75,15.75,0,0,1,.08,1.68,18,18,0,0,1,4.55-5.21,8.75,8.75,0,0,1,5.08-1.52,7.67,7.67,0,0,1,1.88.2,19.09,19.09,0,0,1,2.12.78Z"/></g></svg>