<svg xmlns="http://www.w3.org/2000/svg" viewBox="0 0 256 128"><defs><style>.cls-1{fill:#323232;}</style></defs><g id="_6_Tent" data-name="6 Tent"><path class="cls-1" d="M103.68,65.54a7.59,7.59,0,0,1-.52,2.89,6.24,6.24,0,0,1-1.44,2.19A6.58,6.58,0,0,1,99.48,72a8.39,8.39,0,0,1-3,.5,8.11,8.11,0,0,1-3.1-.57A6.48,6.48,0,0,1,91,70.35a7.52,7.52,0,0,1-1.54-2.49A9.17,9.17,0,0,1,89,64.62a11.82,11.82,0,0,1,.65-3.81,19.8,19.8,0,0,1,1.72-3.68,27.23,27.23,0,0,1,2.37-3.37,32.49,32.49,0,0,1,2.67-2.87h5.23a33.6,33.6,0,0,0-7,9c.33-.19.62-.34.88-.47a6,6,0,0,1,.75-.29,3.47,3.47,0,0,1,.71-.16,6.68,6.68,0,0,1,.82,0,5.75,5.75,0,0,1,2.38.49A5.36,5.36,0,0,1,102,60.74a6.67,6.67,0,0,1,1.21,2.12A8,8,0,0,1,103.68,65.54Zm-4.12.08a3.09,3.09,0,0,0-.74-2.16,2.53,2.53,0,0,0-2-.79A4.1,4.1,0,0,0,94,63.88c-.06.32-.11.55-.13.7a5,5,0,0,0,0,.61,3.45,3.45,0,0,0,.84,2.41,2.82,2.82,0,0,0,2.2.93,2.54,2.54,0,0,0,2-.8A3,3,0,0,0,99.56,65.62Z"/><path class="cls-1" d="M117.82,72.53V61.83h-2.73V58.88h2.73V55.44h4.06v3.44h3.5v2.95h-3.5v10.7Z"/><path class="cls-1" d="M138.77,62.64a3.49,3.49,0,0,1-.55,1.92A4.57,4.57,0,0,1,136.67,66a8.79,8.79,0,0,1-2.42,1,13.85,13.85,0,0,1-3.16.34l-.37,0h-.5a2.82,2.82,0,0,0,.93,1.84,3,3,0,0,0,2,.67,9.19,9.19,0,0,0,4.57-1.4v3.26a9,9,0,0,1-2.25,1,9.19,9.19,0,0,1-2.43.3,8,8,0,0,1-2.81-.47,5.86,5.86,0,0,1-2.12-1.34A6.06,6.06,0,0,1,126.78,69a7.79,7.79,0,0,1-.47-2.78,8.64,8.64,0,0,1,.54-3.11,7.35,7.35,0,0,1,1.52-2.44,6.68,6.68,0,0,1,2.34-1.58,7.91,7.91,0,0,1,3-.56,5.68,5.68,0,0,1,3.67,1.12A3.64,3.64,0,0,1,138.77,62.64Zm-4.12.31a1.08,1.08,0,0,0-.43-.86,1.64,1.64,0,0,0-1.07-.35,2.43,2.43,0,0,0-1.76.72,3.53,3.53,0,0,0-1,2,2.18,2.18,0,0,0,.5.07h.46C133.56,64.53,134.65,64,134.65,63Z"/><path class="cls-1" d="M151,72.53V64.79a3,3,0,0,0-.21-1.26,1.68,1.68,0,0,0-.48-.67,1.18,1.18,0,0,0-.59-.27,3.75,3.75,0,0,0-.52-.05,3,3,0,0,0-.65.12,2.25,2.25,0,0,0-.95.57,4,4,0,0,0-.85,1.31,6,6,0,0,0-.37,2.34v5.65h-4.13v-9a15.8,15.8,0,0,0-.18-2.35,7.65,7.65,0,0,0-.5-1.9h4.12a4.84,4.84,0,0,1,.27.71c.05.19.11.45.17.81a6.31,6.31,0,0,1,2.12-1.43,6.15,6.15,0,0,1,2.31-.47,4.54,4.54,0,0,1,1.81.37,4.21,4.21,0,0,1,1.44,1,4.47,4.47,0,0,1,1,1.6,6.16,6.16,0,0,1,.35,2.12v8.55Z"/><path class="cls-1" d="M160.47,72.53V61.83h-2.73V58.88h2.73V55.44h4.06v3.44H168v2.95h-3.51v10.7Z"/></g></svg>