<svg xmlns="http://www.w3.org/2000/svg" viewBox="0 0 256 128"><defs><style>.cls-1{fill:#323232;}</style></defs><g id="_4_Fish" data-name="4 Fish"><path class="cls-1" d="M103.11,72.53H99.26V67.19h-8V50.86h4V63.72h4V58.48h3.82v5.24h2.76v3.44h-2.73Z"/><path class="cls-1" d="M130.85,55.94a9.36,9.36,0,0,0-2-1.29,5,5,0,0,0-1.92-.35,5.6,5.6,0,0,0-1.31.14,2.12,2.12,0,0,0-1.08.62,3.43,3.43,0,0,0-.75,1.39,9.49,9.49,0,0,0-.31,2.44h3.2v2.94h-3.2v10.7h-4.12V61.83h-2.57V58.89h2.51a13.91,13.91,0,0,1,.48-4,5.63,5.63,0,0,1,1.36-2.42,4.61,4.61,0,0,1,2.14-1.18,11.91,11.91,0,0,1,2.87-.31,9,9,0,0,1,2.7.39,10.1,10.1,0,0,1,2.54,1.25Zm-2.76,16.59V58.89h4.13V72.53Z"/><path class="cls-1" d="M147.06,68.74a3.89,3.89,0,0,1-1.31,3.1A5.38,5.38,0,0,1,142.06,73a15.3,15.3,0,0,1-3.15-.31,9.21,9.21,0,0,1-2.48-.84l.53-3.16a10.61,10.61,0,0,0,4.71,1.4,1.34,1.34,0,0,0,1-.3.93.93,0,0,0,.29-.66,1.21,1.21,0,0,0-.23-.76,3.53,3.53,0,0,0-1.13-.73,18.4,18.4,0,0,1-2.19-1.12,7.49,7.49,0,0,1-1.49-1.16,3.79,3.79,0,0,1-.83-1.29,4.16,4.16,0,0,1-.27-1.55,3.49,3.49,0,0,1,1.5-3,6.63,6.63,0,0,1,3.92-1.07,12.5,12.5,0,0,1,2.31.2,11.11,11.11,0,0,1,2.31.79l-.49,3.13a7.59,7.59,0,0,0-2.13-.85,9.89,9.89,0,0,0-2-.23,1.45,1.45,0,0,0-1,.26,1,1,0,0,0-.26.7,1,1,0,0,0,.42.85,9,9,0,0,0,1.65.85,21.27,21.27,0,0,1,1.89,1.07,7,7,0,0,1,1.26,1.06,3.33,3.33,0,0,1,.71,1.14A4.16,4.16,0,0,1,147.06,68.74Z"/><path class="cls-1" d="M159.68,72.53V64.81a4.26,4.26,0,0,0-.14-1.19,1.64,1.64,0,0,0-.4-.69,1.23,1.23,0,0,0-.57-.31,2.84,2.84,0,0,0-.66-.08,1.89,1.89,0,0,0-1,.32,3,3,0,0,0-.87.85,4.85,4.85,0,0,0-.62,1.27,4.91,4.91,0,0,0-.23,1.54v6H151V51.29h4.09v9.15a4.81,4.81,0,0,1,1.72-1.2,5.64,5.64,0,0,1,2.08-.35,6.64,6.64,0,0,1,1.78.24,4.38,4.38,0,0,1,1.56.77,3.92,3.92,0,0,1,1.12,1.4,4.92,4.92,0,0,1,.42,2.14v9.09Z"/></g></svg>