<svg xmlns="http://www.w3.org/2000/svg" viewBox="0 0 256 128"><defs><style>.cls-1{fill:#323232;}</style></defs><g id="_7_Balls" data-name="7 Balls"><path class="cls-1" d="M88.88,72.53H84.2l8.12-18H82.59V50.89h14.6v3.22Z"/><path class="cls-1" d="M123.94,64.72a9.08,9.08,0,0,1-.54,3.21,6.74,6.74,0,0,1-1.53,2.46A6.93,6.93,0,0,1,119.48,72a8.36,8.36,0,0,1-3.11.56,15.66,15.66,0,0,1-3.1-.33,14.23,14.23,0,0,1-2.91-.88v-20h4.13v9.2a4.9,4.9,0,0,1,1.76-1.19,6.25,6.25,0,0,1,2.25-.39,5.7,5.7,0,0,1,2.22.41,4.76,4.76,0,0,1,1.73,1.18,5.37,5.37,0,0,1,1.1,1.84A6.94,6.94,0,0,1,123.94,64.72Zm-4.12.75a2.71,2.71,0,0,0-.63-1.9,2.23,2.23,0,0,0-1.75-.69,2.94,2.94,0,0,0-1.25.26,3.06,3.06,0,0,0-.94.68,2.84,2.84,0,0,0-.6,1,3.61,3.61,0,0,0-.2,1.18v2.36a3.84,3.84,0,0,0,1,.36,5.65,5.65,0,0,0,1.13.09,3.21,3.21,0,0,0,2.39-.89A3.35,3.35,0,0,0,119.82,65.47Z"/><path class="cls-1" d="M137.36,72.53c0-.15,0-.32,0-.53s0-.36-.05-.59,0-.47-.05-.71a4.89,4.89,0,0,1-2,1.59,6.56,6.56,0,0,1-2.64.54,4.88,4.88,0,0,1-4-1.67,7.22,7.22,0,0,1-1.41-4.77,7.32,7.32,0,0,1,2.27-5.78,9.42,9.42,0,0,1,6.49-2q.69,0,1.26,0c.38,0,.75,0,1.13.1s.77.12,1.16.21a12.92,12.92,0,0,1,1.32.34v8.8c0,.48,0,1,0,1.5s0,1,.09,1.45l.12,1.52Zm-.65-10.11a8.27,8.27,0,0,0-1-.16l-.82,0a3.33,3.33,0,0,0-2.65,1.1,4.55,4.55,0,0,0-.94,3.06,3,3,0,0,0,.57,2,1.94,1.94,0,0,0,1.6.68,2.79,2.79,0,0,0,1.25-.28,3,3,0,0,0,1-.79,3.86,3.86,0,0,0,.69-1.21,4.48,4.48,0,0,0,.25-1.56Z"/><path class="cls-1" d="M145.42,72.53V50.92h4.13V72.53Z"/><path class="cls-1" d="M154.38,72.53V50.92h4.12V72.53Z"/><path class="cls-1" d="M173.14,68.74a3.89,3.89,0,0,1-1.32,3.1A5.38,5.38,0,0,1,168.13,73a15.3,15.3,0,0,1-3.15-.31,9.21,9.21,0,0,1-2.48-.84l.53-3.16a10.61,10.61,0,0,0,4.71,1.4,1.34,1.34,0,0,0,1-.3.93.93,0,0,0,.29-.66,1.15,1.15,0,0,0-.23-.76,3.53,3.53,0,0,0-1.13-.73,18.4,18.4,0,0,1-2.19-1.12A7.12,7.12,0,0,1,164,65.35a3.68,3.68,0,0,1-.84-1.29,4.17,4.17,0,0,1-.26-1.55,3.48,3.48,0,0,1,1.49-3,6.63,6.63,0,0,1,3.92-1.07,12.35,12.35,0,0,1,2.31.2,11.37,11.37,0,0,1,2.32.79l-.5,3.13a7.59,7.59,0,0,0-2.13-.85,9.89,9.89,0,0,0-2-.23,1.45,1.45,0,0,0-1,.26,1,1,0,0,0-.26.7,1,1,0,0,0,.42.85,9,9,0,0,0,1.65.85A21.27,21.27,0,0,1,171,65.19a7,7,0,0,1,1.26,1.06,3.33,3.33,0,0,1,.71,1.14A4.15,4.15,0,0,1,173.14,68.74Z"/></g></svg>