<svg xmlns="http://www.w3.org/2000/svg" viewBox="0 0 256 128"><defs><style>.cls-1{fill:#323232;}</style></defs><g id="_9_Frog" data-name="9 Frog"><path class="cls-1" d="M101.08,72.52H96.92l.25-9.14a5.48,5.48,0,0,1-1.77,1.08,6.06,6.06,0,0,1-2.07.31,6.53,6.53,0,0,1-2.59-.49,5.68,5.68,0,0,1-2-1.41,6.29,6.29,0,0,1-1.29-2.19A8.52,8.52,0,0,1,87,57.83a8.16,8.16,0,0,1,.55-3.08,6.4,6.4,0,0,1,4-3.82,9.57,9.57,0,0,1,3.21-.51,6.78,6.78,0,0,1,5,1.8,6.46,6.46,0,0,1,1.71,5ZM97.14,56.75a2.39,2.39,0,0,0-.76-1.8,2.4,2.4,0,0,0-.85-.53,3.07,3.07,0,0,0-1.06-.19,2.82,2.82,0,0,0-2.26,1,3.85,3.85,0,0,0-.84,2.63,3.48,3.48,0,0,0,.73,2.33,2.57,2.57,0,0,0,2,.83,2.82,2.82,0,0,0,2.11-.83,3.43,3.43,0,0,0,.87-2.33Z"/><path class="cls-1" d="M124.88,54.73a5.27,5.27,0,0,0-1.11-.42,4.62,4.62,0,0,0-1-.11,2.94,2.94,0,0,0-1.28.25,1.78,1.78,0,0,0-.77.79,4.15,4.15,0,0,0-.39,1.44,19.38,19.38,0,0,0-.11,2.2h3.29v3h-3.26V72.52h-4.12V61.83h-2.57V58.88h2.51a17.83,17.83,0,0,1,.34-3.82,6.16,6.16,0,0,1,1-2.45,3.81,3.81,0,0,1,1.74-1.31,7,7,0,0,1,2.4-.38,10.59,10.59,0,0,1,3.69.62Z"/><path class="cls-1" d="M135.24,62.7c-.29-.06-.52-.11-.68-.13a4.73,4.73,0,0,0-.56,0,3.17,3.17,0,0,0-2.68,1.21,5.93,5.93,0,0,0-.92,3.6v5.17h-4.12V63.57c0-.5,0-.94,0-1.32s0-.72-.07-1-.1-.64-.17-1-.17-.67-.3-1.08h3.91l.18.65a3.61,3.61,0,0,1,.11.51c0,.16.05.33.07.51a6,6,0,0,1,0,.65,7.18,7.18,0,0,1,1.76-2,3.42,3.42,0,0,1,2-.59,3,3,0,0,1,.73.08c.19.06.47.16.82.31Z"/><path class="cls-1" d="M150.68,65.66a7.87,7.87,0,0,1-.51,2.94,6,6,0,0,1-1.45,2.14,6.15,6.15,0,0,1-2.26,1.33,9.67,9.67,0,0,1-5.83,0,6,6,0,0,1-3.72-3.47,7.67,7.67,0,0,1-.53-2.94,7.56,7.56,0,0,1,.51-2.86,5.9,5.9,0,0,1,1.44-2.13,6,6,0,0,1,2.25-1.33,9.83,9.83,0,0,1,5.88,0,6.38,6.38,0,0,1,2.26,1.3,5.93,5.93,0,0,1,1.45,2.13A7.79,7.79,0,0,1,150.68,65.66Zm-4.13,0a2.85,2.85,0,0,0-3.07-3.12,2.88,2.88,0,0,0-2.2.82,3.22,3.22,0,0,0-.77,2.3,3.42,3.42,0,0,0,.75,2.37,2.82,2.82,0,0,0,2.22.84,3,3,0,0,0,2.27-.83A3.23,3.23,0,0,0,146.55,65.66Z"/><path class="cls-1" d="M167.66,73a14.4,14.4,0,0,1-.52,4.2,7.3,7.3,0,0,1-1.42,2.71,5.15,5.15,0,0,1-2.14,1.47,7.79,7.79,0,0,1-2.69.45,21.63,21.63,0,0,1-2.76-.17,9.8,9.8,0,0,1-2.61-.66V77.83a17.63,17.63,0,0,0,2.37.66,10,10,0,0,0,2,.23,3.44,3.44,0,0,0,1.48-.31,2.86,2.86,0,0,0,1.16-1,5.19,5.19,0,0,0,.75-1.8,12.19,12.19,0,0,0,.26-2.69V71.56a4.61,4.61,0,0,1-1.77,1,6.92,6.92,0,0,1-1.92.23,6.11,6.11,0,0,1-2.42-.46,5.39,5.39,0,0,1-1.84-1.3,5.9,5.9,0,0,1-1.18-2,8,8,0,0,1-.42-2.65,7.84,7.84,0,0,1,.65-3.24,7,7,0,0,1,1.83-2.47,8.32,8.32,0,0,1,2.9-1.56,12.6,12.6,0,0,1,3.83-.55l1.16,0c.34,0,.67,0,1,.08s.67.1,1,.17.79.17,1.27.29ZM163.54,62.6l-.81-.12a6.83,6.83,0,0,0-.72,0,4,4,0,0,0-2.86,1,3.67,3.67,0,0,0-1,2.77,2.6,2.6,0,0,0,.68,2,2.32,2.32,0,0,0,1.71.69,4.7,4.7,0,0,0,1.12-.13,2,2,0,0,0,1-.56,2.9,2.9,0,0,0,.69-1.25,7.79,7.79,0,0,0,.25-2.22Z"/></g></svg>