<svg xmlns="http://www.w3.org/2000/svg" viewBox="0 0 256 128"><defs><style>.cls-1{fill:#323232;}</style></defs><g id="_3_Aeroplane" data-name="3 Aeroplane"><path class="cls-1" d="M60.9,66.68A5.26,5.26,0,0,1,60.38,69a5.19,5.19,0,0,1-1.52,1.85,7.32,7.32,0,0,1-2.42,1.21,10.83,10.83,0,0,1-3.16.43,13.62,13.62,0,0,1-2.41-.19,8.62,8.62,0,0,1-2-.61,7.91,7.91,0,0,1-1.76-1.12,12.9,12.9,0,0,1-1.68-1.7l2-2.76a6.94,6.94,0,0,0,5.18,2.73,3.74,3.74,0,0,0,2.43-.72A2.53,2.53,0,0,0,56,66.26a2.46,2.46,0,0,0-.25-1.35,2.53,2.53,0,0,0-1.06-1,5.86,5.86,0,0,0-2.07-.61,16.41,16.41,0,0,0-3.29-.07V59.54a23.66,23.66,0,0,0,3.12,0,5.6,5.6,0,0,0,1.92-.42,2.15,2.15,0,0,0,1-.88,2.82,2.82,0,0,0,.29-1.36,2.25,2.25,0,0,0-.9-1.72,3.54,3.54,0,0,0-2.23-.65,5.27,5.27,0,0,0-2.2.49,9.27,9.27,0,0,0-2.23,1.57l-1.74-2.93c1.55-1.86,3.94-2.78,7.17-2.78a8.91,8.91,0,0,1,2.73.39,6.18,6.18,0,0,1,2.08,1.11,4.87,4.87,0,0,1,1.34,1.72,5.35,5.35,0,0,1,.46,2.27,4.73,4.73,0,0,1-.9,3,7,7,0,0,1-3,2,5.9,5.9,0,0,1,3.43,1.75A5.22,5.22,0,0,1,60.9,66.68Z"/><path class="cls-1" d="M83.72,72.52c0-.14,0-.32,0-.52s0-.36-.05-.59,0-.47,0-.71a5,5,0,0,1-2,1.59,6.56,6.56,0,0,1-2.64.54,4.91,4.91,0,0,1-4-1.67,7.22,7.22,0,0,1-1.41-4.77,7.37,7.37,0,0,1,2.28-5.79,9.45,9.45,0,0,1,6.49-2c.46,0,.88,0,1.26,0s.75,0,1.13.1.76.12,1.16.21a12.92,12.92,0,0,1,1.32.34v8.8q0,.72,0,1.5c0,.53,0,1,.09,1.45s.09,1,.13,1.51Zm-.65-10.1a6.84,6.84,0,0,0-1-.16l-.82,0a3.31,3.31,0,0,0-2.65,1.1,4.56,4.56,0,0,0-1,3.06,3,3,0,0,0,.57,2,2,2,0,0,0,1.61.68,2.82,2.82,0,0,0,1.25-.28,3.09,3.09,0,0,0,1-.79,3.68,3.68,0,0,0,.69-1.21,4.48,4.48,0,0,0,.26-1.56Z"/><path class="cls-1" d="M103.59,62.64a3.58,3.58,0,0,1-.55,1.92A4.61,4.61,0,0,1,101.48,66a8.72,8.72,0,0,1-2.41,1,13.91,13.91,0,0,1-3.16.34l-.38,0H95A2.87,2.87,0,0,0,96,69.13a3,3,0,0,0,2,.67,9.15,9.15,0,0,0,4.56-1.4v3.26a8.79,8.79,0,0,1-2.24,1,9.32,9.32,0,0,1-2.44.3,8,8,0,0,1-2.8-.47,5.71,5.71,0,0,1-2.13-1.35A6.07,6.07,0,0,1,91.59,69a7.79,7.79,0,0,1-.46-2.78,8.64,8.64,0,0,1,.54-3.11,7.25,7.25,0,0,1,1.52-2.44,6.68,6.68,0,0,1,2.34-1.58,7.91,7.91,0,0,1,3-.56,5.7,5.7,0,0,1,3.67,1.12A3.64,3.64,0,0,1,103.59,62.64ZM99.47,63a1.11,1.11,0,0,0-.43-.86A1.64,1.64,0,0,0,98,61.74a2.44,2.44,0,0,0-1.77.73,3.46,3.46,0,0,0-1,2,2.67,2.67,0,0,0,.49.06h.46C98.38,64.53,99.47,64,99.47,63Z"/><path class="cls-1" d="M116.3,62.7l-.68-.13a4.86,4.86,0,0,0-.56,0,3.17,3.17,0,0,0-2.68,1.21,5.93,5.93,0,0,0-.92,3.6v5.17h-4.12V63.57c0-.5,0-.94,0-1.32s0-.72-.07-1-.1-.64-.17-1-.17-.67-.3-1.08h3.91l.18.65a3.61,3.61,0,0,1,.11.51c0,.16,0,.33.07.51a6,6,0,0,1,0,.65,7.18,7.18,0,0,1,1.76-2,3.41,3.41,0,0,1,2-.58,3.06,3.06,0,0,1,.73.07c.19.06.47.16.82.31Z"/><path class="cls-1" d="M131.74,65.66a7.87,7.87,0,0,1-.51,2.94,6,6,0,0,1-1.45,2.14,6.15,6.15,0,0,1-2.26,1.33,9.67,9.67,0,0,1-5.83,0A6,6,0,0,1,118,68.6a7.67,7.67,0,0,1-.53-2.94A7.56,7.56,0,0,1,118,62.8a5.9,5.9,0,0,1,1.44-2.13,6,6,0,0,1,2.25-1.33,10,10,0,0,1,5.88,0,6.38,6.38,0,0,1,2.26,1.3,5.88,5.88,0,0,1,1.45,2.14A7.7,7.7,0,0,1,131.74,65.66Zm-4.13,0a2.85,2.85,0,0,0-3.07-3.12,2.88,2.88,0,0,0-2.2.82,3.22,3.22,0,0,0-.77,2.3,3.4,3.4,0,0,0,.75,2.37,2.82,2.82,0,0,0,2.22.84,3,3,0,0,0,2.27-.82A3.27,3.27,0,0,0,127.61,65.66Z"/><path class="cls-1" d="M149.22,64.9a10.42,10.42,0,0,1-.43,3.1,7.41,7.41,0,0,1-1.23,2.41A5.39,5.39,0,0,1,145.68,72a5.23,5.23,0,0,1-2.4.55,5.33,5.33,0,0,1-1.63-.21,4.72,4.72,0,0,1-1.39-.8V81.76h-4.34V63c0-.22,0-.48,0-.79s-.07-.62-.12-1-.11-.67-.19-1a6.9,6.9,0,0,0-.26-.93h4.2a3.12,3.12,0,0,1,.23.6c0,.18.08.46.13.85a6.66,6.66,0,0,1,1.87-1.42,4.89,4.89,0,0,1,2.14-.43,5.37,5.37,0,0,1,2.18.43,4.67,4.67,0,0,1,1.69,1.22,5.53,5.53,0,0,1,1.09,1.9A7.47,7.47,0,0,1,149.22,64.9Zm-4.12.69a3,3,0,0,0-.62-2,2.12,2.12,0,0,0-1.7-.72,2.44,2.44,0,0,0-2,.92,3.77,3.77,0,0,0-.74,2.45V68a3.3,3.3,0,0,0,2.2.83,2.64,2.64,0,0,0,2.09-.87A3.52,3.52,0,0,0,145.1,65.59Z"/><path class="cls-1" d="M153.5,72.52V50.92h4.12v21.6Z"/><path class="cls-1" d="M172,72.52c0-.14,0-.32,0-.52s0-.36-.05-.59,0-.47,0-.71a4.89,4.89,0,0,1-2,1.59,6.56,6.56,0,0,1-2.64.54,4.88,4.88,0,0,1-4-1.67,7.22,7.22,0,0,1-1.42-4.77,7.37,7.37,0,0,1,2.28-5.79,9.45,9.45,0,0,1,6.49-2c.46,0,.88,0,1.26,0s.75,0,1.13.1.77.12,1.16.21a12.92,12.92,0,0,1,1.32.34v8.8c0,.48,0,1,0,1.5s.05,1,.09,1.45.08,1,.12,1.51Zm-.65-10.1a6.62,6.62,0,0,0-1-.16l-.82,0a3.33,3.33,0,0,0-2.65,1.1,4.55,4.55,0,0,0-.94,3.06,3,3,0,0,0,.57,2,1.94,1.94,0,0,0,1.6.68,2.79,2.79,0,0,0,1.25-.28,3.12,3.12,0,0,0,1-.79,3.86,3.86,0,0,0,.69-1.21,4.48,4.48,0,0,0,.25-1.56Z"/><path class="cls-1" d="M188.8,72.52V64.78a3,3,0,0,0-.2-1.25,1.68,1.68,0,0,0-.48-.67,1.18,1.18,0,0,0-.59-.27,3.75,3.75,0,0,0-.52-.05,3,3,0,0,0-.65.12,2.25,2.25,0,0,0-1,.57,3.91,3.91,0,0,0-.85,1.32,5.94,5.94,0,0,0-.37,2.33v5.64h-4.13v-9a15.8,15.8,0,0,0-.18-2.35,7.65,7.65,0,0,0-.5-1.9h4.12a4.84,4.84,0,0,1,.27.71c0,.19.11.45.17.81a6.46,6.46,0,0,1,2.12-1.43,6.14,6.14,0,0,1,2.31-.46,4.53,4.53,0,0,1,1.81.36,4.21,4.21,0,0,1,1.44,1,4.47,4.47,0,0,1,1,1.6,6.16,6.16,0,0,1,.35,2.12v8.54Z"/><path class="cls-1" d="M209.76,62.64a3.49,3.49,0,0,1-.55,1.92A4.61,4.61,0,0,1,207.65,66a8.72,8.72,0,0,1-2.41,1,13.85,13.85,0,0,1-3.16.34l-.37,0h-.51a2.87,2.87,0,0,0,.93,1.84,3,3,0,0,0,2,.67,9.19,9.19,0,0,0,4.57-1.4v3.26a9,9,0,0,1-2.25,1,9.24,9.24,0,0,1-2.43.3,8,8,0,0,1-2.81-.47,5.59,5.59,0,0,1-2.12-1.35,6,6,0,0,1-1.34-2.1,7.79,7.79,0,0,1-.46-2.78,8.64,8.64,0,0,1,.54-3.11,7.25,7.25,0,0,1,1.52-2.44,6.68,6.68,0,0,1,2.34-1.58,7.91,7.91,0,0,1,3-.56,5.68,5.68,0,0,1,3.67,1.12A3.64,3.64,0,0,1,209.76,62.64Zm-4.12.31a1.08,1.08,0,0,0-.43-.86,1.64,1.64,0,0,0-1.07-.35,2.44,2.44,0,0,0-1.77.73,3.46,3.46,0,0,0-1,2,2.67,2.67,0,0,0,.5.06h.45C204.55,64.53,205.64,64,205.64,63Z"/></g></svg>