<svg xmlns="http://www.w3.org/2000/svg" viewBox="0 0 256 128"><defs><style>.cls-1{fill:#323232;}</style></defs><g id="_3_Birds" data-name="3 Birds"><path class="cls-1" d="M85.47,66.68A5.4,5.4,0,0,1,85,69a5.19,5.19,0,0,1-1.52,1.85A7.42,7.42,0,0,1,81,72.09a10.9,10.9,0,0,1-3.17.43,13.5,13.5,0,0,1-2.4-.19,8.62,8.62,0,0,1-2-.61,8,8,0,0,1-1.77-1.12A13.51,13.51,0,0,1,70,68.9l2-2.76a6.92,6.92,0,0,0,5.17,2.73,3.75,3.75,0,0,0,2.44-.72,2.49,2.49,0,0,0,.94-1.89,2.46,2.46,0,0,0-.24-1.35,2.53,2.53,0,0,0-1.06-1,5.92,5.92,0,0,0-2.08-.61,16.31,16.31,0,0,0-3.28-.07V59.54a23.51,23.51,0,0,0,3.11,0A5.6,5.6,0,0,0,79,59.15a2.15,2.15,0,0,0,1-.88,2.94,2.94,0,0,0,.29-1.36,2.25,2.25,0,0,0-.9-1.72,3.56,3.56,0,0,0-2.23-.65,5.27,5.27,0,0,0-2.2.49A9.08,9.08,0,0,0,72.7,56.6L71,53.67c1.55-1.86,3.94-2.78,7.16-2.78a9,9,0,0,1,2.74.39,6.18,6.18,0,0,1,2.08,1.11,4.84,4.84,0,0,1,1.33,1.72,5.36,5.36,0,0,1,.47,2.27,4.73,4.73,0,0,1-.9,3,7,7,0,0,1-3,2,5.84,5.84,0,0,1,3.43,1.75A5.18,5.18,0,0,1,85.47,66.68Z"/><path class="cls-1" d="M107.15,72.27a9.24,9.24,0,0,1-2.21.25,7.53,7.53,0,0,1-2.73-.48,6.81,6.81,0,0,1-2.16-1.35,5.9,5.9,0,0,1-1.41-2.07,7.08,7.08,0,0,1-.49-2.69,8.59,8.59,0,0,1,.45-2.84A5.87,5.87,0,0,1,100,60.85a6.42,6.42,0,0,1,2.26-1.45,8.89,8.89,0,0,1,3.15-.51,7.14,7.14,0,0,1,2.37.32,9,9,0,0,1,1.54.7l-.72,3.56-.79-.38a3.73,3.73,0,0,0-.62-.28,2.48,2.48,0,0,0-.65-.16,6.82,6.82,0,0,0-.85,0,3.24,3.24,0,0,0-2.39.85,3.12,3.12,0,0,0-.83,2.29,3.07,3.07,0,0,0,.86,2.3,3.53,3.53,0,0,0,2.52.83,7.16,7.16,0,0,0,1.61-.19,10.26,10.26,0,0,0,1.64-.59l.28,3.37A10.54,10.54,0,0,1,107.15,72.27Z"/><path class="cls-1" d="M112.69,72.52V50.92h4.12v21.6Z"/><path class="cls-1" d="M135.16,65.66a7.87,7.87,0,0,1-.51,2.94,5.84,5.84,0,0,1-1.45,2.14A6.19,6.19,0,0,1,131,72.07a9.7,9.7,0,0,1-5.84,0,6.19,6.19,0,0,1-2.25-1.33,6,6,0,0,1-1.47-2.14,7.68,7.68,0,0,1-.52-2.94,7.56,7.56,0,0,1,.51-2.86,5.84,5.84,0,0,1,3.69-3.46,9.15,9.15,0,0,1,3-.45,9.28,9.28,0,0,1,2.92.43,6.42,6.42,0,0,1,2.25,1.3,5.76,5.76,0,0,1,1.45,2.14A7.7,7.7,0,0,1,135.16,65.66Zm-4.12,0A2.85,2.85,0,0,0,128,62.54a2.9,2.9,0,0,0-2.21.82,3.26,3.26,0,0,0-.77,2.3,3.4,3.4,0,0,0,.75,2.37,2.86,2.86,0,0,0,2.23.84,3,3,0,0,0,2.27-.82A3.32,3.32,0,0,0,131,65.66Z"/><path class="cls-1" d="M148.4,72.15a6.35,6.35,0,0,1-.27-.71c0-.19-.1-.45-.17-.81a6,6,0,0,1-4.37,1.89,4.52,4.52,0,0,1-1.84-.37,4.6,4.6,0,0,1-1.49-1,4.72,4.72,0,0,1-1-1.6,6.26,6.26,0,0,1-.34-2.08c0-.85,0-1.63.06-2.36s.08-1.42.1-2.08,0-1.33,0-2-.07-1.37-.16-2.11h4.13c.06.67.09,1.33.1,2s0,1.25,0,1.87,0,1.25-.06,1.88,0,1.32,0,2a3.4,3.4,0,0,0,.19,1.27,1.55,1.55,0,0,0,.5.67,1.42,1.42,0,0,0,.63.25,4.13,4.13,0,0,0,.55.05,3.09,3.09,0,0,0,.66-.12,2.22,2.22,0,0,0,.94-.57,3.89,3.89,0,0,0,.82-1.32,6.15,6.15,0,0,0,.36-2.33V58.89h4.12v9a14.59,14.59,0,0,0,.19,2.35,7.28,7.28,0,0,0,.49,1.9Z"/><path class="cls-1" d="M167,72.52c0-.12,0-.26-.06-.43s-.05-.31-.07-.49,0-.42-.06-.69a5.65,5.65,0,0,1-2.05,1.54,6.42,6.42,0,0,1-2.46.45,6.11,6.11,0,0,1-2.47-.48A5.42,5.42,0,0,1,158,71.08,5.91,5.91,0,0,1,156.74,69a7.88,7.88,0,0,1-.44-2.7,9.3,9.3,0,0,1,.51-3.13,7.65,7.65,0,0,1,1.43-2.46,6.36,6.36,0,0,1,2.19-1.61,6.54,6.54,0,0,1,2.79-.58,8.53,8.53,0,0,1,1.36.1,7.67,7.67,0,0,1,1.52.4V50.92h4.12V67.81c0,.35,0,.8.05,1.34s.06,1,.11,1.55.09,1.18.15,1.82Zm-.9-9.95a5.08,5.08,0,0,0-1.15-.31,9.79,9.79,0,0,0-1.11-.06,3.15,3.15,0,0,0-2.5,1.07,4.36,4.36,0,0,0-.91,2.93,3.16,3.16,0,0,0,.64,2.12,2.19,2.19,0,0,0,1.77.76,3.86,3.86,0,0,0,1.28-.21,2.49,2.49,0,0,0,1-.75,3.88,3.88,0,0,0,.69-1.38,7.43,7.43,0,0,0,.26-2.12Z"/><path class="cls-1" d="M184.64,68.74a3.89,3.89,0,0,1-1.32,3.1A5.38,5.38,0,0,1,179.63,73a15.3,15.3,0,0,1-3.15-.31,9.57,9.57,0,0,1-2.48-.84l.53-3.16a10.61,10.61,0,0,0,4.71,1.4,1.34,1.34,0,0,0,1-.3.9.9,0,0,0,.29-.67,1.19,1.19,0,0,0-.23-.76,3.61,3.61,0,0,0-1.13-.72A18.4,18.4,0,0,1,177,66.51a7.12,7.12,0,0,1-1.48-1.16,3.68,3.68,0,0,1-.84-1.29,4.17,4.17,0,0,1-.26-1.55,3.5,3.5,0,0,1,1.49-3,6.63,6.63,0,0,1,3.92-1.07,12.35,12.35,0,0,1,2.31.2,11.37,11.37,0,0,1,2.32.79l-.5,3.13a7.59,7.59,0,0,0-2.13-.85,9.89,9.89,0,0,0-2-.23,1.45,1.45,0,0,0-1,.26,1,1,0,0,0-.26.7,1,1,0,0,0,.42.85,8.82,8.82,0,0,0,1.66.85c.73.38,1.36.73,1.88,1.07a7,7,0,0,1,1.27,1.06,3.45,3.45,0,0,1,.7,1.14A4.15,4.15,0,0,1,184.64,68.74Z"/></g></svg>