<svg xmlns="http://www.w3.org/2000/svg" viewBox="0 0 256 128"><defs><style>.cls-1{fill:#323232;}</style></defs><g id="_6_Icecream_candy_stick" data-name="6 Icecream candy stick"><path class="cls-1" d="M69.16,46.94a7.79,7.79,0,0,1-.51,2.89A6.4,6.4,0,0,1,67.2,52,6.48,6.48,0,0,1,65,53.43a8.39,8.39,0,0,1-3,.49,8.11,8.11,0,0,1-3.1-.56,6.48,6.48,0,0,1-2.38-1.61A7.52,7.52,0,0,1,55,49.26,9.17,9.17,0,0,1,54.44,46a11.57,11.57,0,0,1,.66-3.81,20.42,20.42,0,0,1,1.71-3.68,27.31,27.31,0,0,1,2.38-3.37,29.76,29.76,0,0,1,2.66-2.87h5.24a31.88,31.88,0,0,0-3.84,4.15,32.67,32.67,0,0,0-3.13,4.81c.32-.19.61-.34.88-.47a5.91,5.91,0,0,1,.74-.29,3.47,3.47,0,0,1,.71-.16,6.93,6.93,0,0,1,.82,0,5.83,5.83,0,0,1,2.39.48,5.32,5.32,0,0,1,1.85,1.37,6.78,6.78,0,0,1,1.21,2.12A7.73,7.73,0,0,1,69.16,46.94ZM65,47a3.1,3.1,0,0,0-.74-2.17,2.53,2.53,0,0,0-2-.79,4.07,4.07,0,0,0-2.88,1.22c-.06.3-.1.54-.12.69a4.77,4.77,0,0,0,0,.61A3.41,3.41,0,0,0,60.15,49a2.81,2.81,0,0,0,2.19.93,2.54,2.54,0,0,0,2-.8A3,3,0,0,0,65,47Z"/><path class="cls-1" d="M87.08,36.54a1.72,1.72,0,0,1-.71,1.38,2.86,2.86,0,0,1-3.44,0,1.86,1.86,0,0,1-.75-1.42,1.69,1.69,0,0,1,.68-1.42,2.76,2.76,0,0,1,1.8-.58,2.66,2.66,0,0,1,.92.16,2.4,2.4,0,0,1,.77.43,2.14,2.14,0,0,1,.53.66A1.72,1.72,0,0,1,87.08,36.54ZM82.43,53.92V40.29h4.12V53.92Z"/><path class="cls-1" d="M99.65,53.67a9.26,9.26,0,0,1-2.22.25,7.44,7.44,0,0,1-2.72-.48,6.81,6.81,0,0,1-2.16-1.35A5.77,5.77,0,0,1,91.14,50a7.08,7.08,0,0,1-.5-2.69,8.59,8.59,0,0,1,.45-2.84,5.89,5.89,0,0,1,1.37-2.24,6.33,6.33,0,0,1,2.26-1.45,8.89,8.89,0,0,1,3.15-.51,7.14,7.14,0,0,1,2.37.32,8.51,8.51,0,0,1,1.53.7l-.71,3.56-.79-.38a4.13,4.13,0,0,0-.62-.28,2.58,2.58,0,0,0-.65-.16,6.82,6.82,0,0,0-.85,0,3.23,3.23,0,0,0-2.39.85,3.09,3.09,0,0,0-.84,2.29,3,3,0,0,0,.87,2.3,3.52,3.52,0,0,0,2.51.83,7,7,0,0,0,1.61-.19,10,10,0,0,0,1.65-.59l.28,3.37A10.75,10.75,0,0,1,99.65,53.67Z"/><path class="cls-1" d="M117,44a3.49,3.49,0,0,1-.55,1.92,4.48,4.48,0,0,1-1.55,1.47,8.79,8.79,0,0,1-2.42,1,13.85,13.85,0,0,1-3.16.34l-.37,0h-.5a2.87,2.87,0,0,0,.93,1.84,3,3,0,0,0,2,.67,9.19,9.19,0,0,0,4.57-1.4v3.26a8.7,8.7,0,0,1-2.25,1,9.19,9.19,0,0,1-2.43.3,8.08,8.08,0,0,1-2.81-.47,5.75,5.75,0,0,1-2.12-1.35,5.93,5.93,0,0,1-1.33-2.1,7.79,7.79,0,0,1-.47-2.78,8.43,8.43,0,0,1,.55-3.11,7.23,7.23,0,0,1,1.51-2.44,6.77,6.77,0,0,1,2.34-1.58,8,8,0,0,1,3-.56,5.71,5.71,0,0,1,3.68,1.12A3.66,3.66,0,0,1,117,44Zm-4.12.31a1.1,1.1,0,0,0-.42-.86,1.66,1.66,0,0,0-1.07-.35,2.44,2.44,0,0,0-1.77.73,3.4,3.4,0,0,0-1,2,2.58,2.58,0,0,0,.49.06h.46C111.78,45.93,112.87,45.4,112.87,44.35Z"/><path class="cls-1" d="M128.79,53.67a9.26,9.26,0,0,1-2.22.25,7.53,7.53,0,0,1-2.73-.48,6.88,6.88,0,0,1-2.15-1.35A5.77,5.77,0,0,1,120.28,50a7.08,7.08,0,0,1-.5-2.69,8.59,8.59,0,0,1,.45-2.84,5.89,5.89,0,0,1,1.37-2.24,6.33,6.33,0,0,1,2.26-1.45,8.89,8.89,0,0,1,3.15-.51,7.14,7.14,0,0,1,2.37.32,8.51,8.51,0,0,1,1.53.7l-.71,3.56-.79-.38a4.13,4.13,0,0,0-.62-.28,2.58,2.58,0,0,0-.65-.16,6.82,6.82,0,0,0-.85,0,3.23,3.23,0,0,0-2.39.85,3.09,3.09,0,0,0-.84,2.29,3,3,0,0,0,.87,2.3,3.52,3.52,0,0,0,2.51.83,7,7,0,0,0,1.61-.19,10,10,0,0,0,1.65-.59l.27,3.37A10.46,10.46,0,0,1,128.79,53.67Z"/><path class="cls-1" d="M143.62,44.1l-.68-.13a4.73,4.73,0,0,0-.56,0,3.17,3.17,0,0,0-2.68,1.21,5.94,5.94,0,0,0-.91,3.6v5.17h-4.13V45c0-.5,0-.94,0-1.32s0-.72-.08-1-.1-.64-.17-1-.17-.67-.29-1.08H138c.06.26.12.47.18.65a3.61,3.61,0,0,1,.11.51q0,.24.06.51a6,6,0,0,1,0,.65,7.19,7.19,0,0,1,1.77-2,3.35,3.35,0,0,1,2-.58,3,3,0,0,1,.73.07,8.05,8.05,0,0,1,.82.31Z"/><path class="cls-1" d="M157.36,44A3.5,3.5,0,0,1,156.8,46a4.48,4.48,0,0,1-1.55,1.47,8.79,8.79,0,0,1-2.42,1,13.85,13.85,0,0,1-3.16.34l-.37,0h-.5a2.87,2.87,0,0,0,.93,1.84,3,3,0,0,0,2,.67,9.18,9.18,0,0,0,4.56-1.4v3.26a8.7,8.7,0,0,1-2.25,1,9.19,9.19,0,0,1-2.43.3,8.08,8.08,0,0,1-2.81-.47,5.75,5.75,0,0,1-2.12-1.35,5.93,5.93,0,0,1-1.33-2.1,7.79,7.79,0,0,1-.47-2.78,8.43,8.43,0,0,1,.55-3.11A7.1,7.1,0,0,1,147,42.08a6.73,6.73,0,0,1,2.33-1.58,8,8,0,0,1,3-.56A5.71,5.71,0,0,1,156,41.06,3.64,3.64,0,0,1,157.36,44Zm-4.13.31a1.1,1.1,0,0,0-.42-.86,1.66,1.66,0,0,0-1.07-.35,2.44,2.44,0,0,0-1.77.73,3.4,3.4,0,0,0-.95,2,2.58,2.58,0,0,0,.49.06H150C152.14,45.93,153.23,45.4,153.23,44.35Z"/><path class="cls-1" d="M170.28,53.92c0-.14,0-.32,0-.52s0-.36-.05-.59,0-.47,0-.71a4.89,4.89,0,0,1-2,1.59,6.56,6.56,0,0,1-2.64.54,4.88,4.88,0,0,1-4-1.67,7.17,7.17,0,0,1-1.42-4.77A7.37,7.37,0,0,1,162.39,42a9.45,9.45,0,0,1,6.49-2c.46,0,.88,0,1.26,0s.75.05,1.13.1.77.12,1.16.21a12.92,12.92,0,0,1,1.32.34v8.8c0,.48,0,1,0,1.5s.05,1,.09,1.45.08,1,.12,1.51Zm-.65-10.1a6.62,6.62,0,0,0-1-.16l-.82,0a3.33,3.33,0,0,0-2.65,1.1,4.55,4.55,0,0,0-.94,3.06,3.05,3.05,0,0,0,.56,2,2,2,0,0,0,1.61.68,2.79,2.79,0,0,0,1.25-.28,3,3,0,0,0,1-.79,3.7,3.7,0,0,0,.7-1.21,4.48,4.48,0,0,0,.25-1.56Z"/><path class="cls-1" d="M196,53.92V47.18a4.44,4.44,0,0,0-.52-2.53,1.68,1.68,0,0,0-1.42-.71,2.21,2.21,0,0,0-.92.22,2.39,2.39,0,0,0-.85.73,3.68,3.68,0,0,0-.61,1.35,8,8,0,0,0-.23,2.12v5.56h-4.13V47.18a4.84,4.84,0,0,0-.48-2.46,1.73,1.73,0,0,0-1.6-.78A2.22,2.22,0,0,0,183.43,45a5.71,5.71,0,0,0-.78,3.37v5.56h-4.12V45.36c0-.5,0-1,0-1.37s-.06-.79-.11-1.15a9,9,0,0,0-.22-1.06c-.09-.34-.2-.7-.32-1.08H182l.23.72a6.93,6.93,0,0,1,.17.69,9.9,9.9,0,0,1,2.15-1.31,7,7,0,0,1,2.83-.51,4.8,4.8,0,0,1,2.11.44,3.14,3.14,0,0,1,1.4,1.26,4.63,4.63,0,0,1,2.08-1.27,8.57,8.57,0,0,1,2.67-.43A4.44,4.44,0,0,1,199,41.52a5,5,0,0,1,1.17,3.58v8.82Z"/><path class="cls-1" d="M58.86,90.87a9.38,9.38,0,0,1-2.22.25,7.53,7.53,0,0,1-2.73-.48,6.77,6.77,0,0,1-2.15-1.35,5.77,5.77,0,0,1-1.41-2.07,7.08,7.08,0,0,1-.5-2.69,8.59,8.59,0,0,1,.45-2.84,5.87,5.87,0,0,1,1.36-2.24A6.37,6.37,0,0,1,53.93,78a8.87,8.87,0,0,1,3.14-.51,7.24,7.24,0,0,1,2.38.32,8.85,8.85,0,0,1,1.53.7l-.71,3.56-.79-.38a4.64,4.64,0,0,0-.62-.28,2.69,2.69,0,0,0-.65-.16,7.2,7.2,0,0,0-.86,0,3.2,3.2,0,0,0-2.38.84,3.1,3.1,0,0,0-.84,2.29,3,3,0,0,0,.87,2.3,3.5,3.5,0,0,0,2.51.83,7.1,7.1,0,0,0,1.61-.19,9.93,9.93,0,0,0,1.64-.59L61,90.06A10.46,10.46,0,0,1,58.86,90.87Z"/><path class="cls-1" d="M73.9,91.12c0-.14,0-.32,0-.52s0-.36-.05-.59,0-.47,0-.71a4.82,4.82,0,0,1-2,1.59,6.49,6.49,0,0,1-2.64.54,4.89,4.89,0,0,1-4-1.67A7.22,7.22,0,0,1,63.74,85,7.33,7.33,0,0,1,66,79.21a9.41,9.41,0,0,1,6.49-2c.46,0,.88,0,1.25,0s.76.05,1.14.1.76.12,1.16.21a12.92,12.92,0,0,1,1.32.34v8.8q0,.72,0,1.5c0,.53,0,1,.09,1.45s.08,1,.13,1.51ZM73.25,81a6.51,6.51,0,0,0-1-.16l-.82,0a3.31,3.31,0,0,0-2.65,1.1,4.56,4.56,0,0,0-1,3.06,3,3,0,0,0,.57,2,2,2,0,0,0,1.61.68,2.78,2.78,0,0,0,1.24-.28,3.12,3.12,0,0,0,1-.79A3.86,3.86,0,0,0,73,85.37a4.48,4.48,0,0,0,.25-1.56Z"/><path class="cls-1" d="M90.74,91.12V83.38a3.23,3.23,0,0,0-.2-1.25,1.9,1.9,0,0,0-.48-.67,1.26,1.26,0,0,0-.59-.27,4,4,0,0,0-.53,0,3.13,3.13,0,0,0-.65.12,2.25,2.25,0,0,0-1,.57,3.91,3.91,0,0,0-.85,1.32,5.94,5.94,0,0,0-.37,2.33v5.64H82v-9a15.83,15.83,0,0,0-.19-2.35,7.23,7.23,0,0,0-.5-1.9h4.13a6,6,0,0,1,.26.71c0,.19.11.45.17.81A6.5,6.5,0,0,1,88,78a6.14,6.14,0,0,1,2.31-.46,4.49,4.49,0,0,1,1.8.36,4.35,4.35,0,0,1,1.45,1,4.6,4.6,0,0,1,1,1.6,5.93,5.93,0,0,1,.35,2.12v8.54Z"/><path class="cls-1" d="M109.93,91.12c0-.12,0-.26-.06-.43s-.05-.31-.07-.49,0-.42-.06-.69a5.73,5.73,0,0,1-2,1.54,6.42,6.42,0,0,1-2.46.45,6.11,6.11,0,0,1-2.47-.48,5.42,5.42,0,0,1-1.88-1.34,5.91,5.91,0,0,1-1.21-2.06,7.88,7.88,0,0,1-.44-2.7,9.3,9.3,0,0,1,.51-3.13,7.48,7.48,0,0,1,1.43-2.46,6.36,6.36,0,0,1,2.19-1.61,6.54,6.54,0,0,1,2.79-.58,8.53,8.53,0,0,1,1.36.1,7.67,7.67,0,0,1,1.52.4V69.52h4.12V86.41c0,.35,0,.8,0,1.34s.06,1,.11,1.55.09,1.18.15,1.82Zm-.9-10a5.08,5.08,0,0,0-1.15-.31,9.79,9.79,0,0,0-1.11-.06,3.15,3.15,0,0,0-2.5,1.07,4.36,4.36,0,0,0-.91,2.93,3.16,3.16,0,0,0,.64,2.12,2.19,2.19,0,0,0,1.77.76,3.86,3.86,0,0,0,1.28-.21,2.49,2.49,0,0,0,1-.75,3.88,3.88,0,0,0,.69-1.38,7.43,7.43,0,0,0,.26-2.12Z"/><path class="cls-1" d="M129.7,95.58a6.86,6.86,0,0,1-1.35,2.86A4.83,4.83,0,0,1,126,99.93a11.94,11.94,0,0,1-3.43.43,9.6,9.6,0,0,1-2-.2,19,19,0,0,1-2.09-.54v-3.1c.68.06,1.33.1,1.94.14s1.22,0,1.82,0a4.42,4.42,0,0,0,1.67-.29,2.55,2.55,0,0,0,1.15-.94,4.45,4.45,0,0,0,.65-1.72,14.94,14.94,0,0,0,.2-2.64V89.45a5.29,5.29,0,0,1-3.87,1.67,4.49,4.49,0,0,1-1.78-.36,4.27,4.27,0,0,1-1.48-1,5.48,5.48,0,0,1-1-1.64,5.91,5.91,0,0,1-.37-2.17c0-.73,0-1.42,0-2.09s0-1.33,0-2,0-1.35,0-2.06,0-1.47-.11-2.27h4.12c.06.82.1,1.58.11,2.28s0,1.36,0,2,0,1.22,0,1.79,0,1.14,0,1.7a2.54,2.54,0,0,0,.46,1.7,1.65,1.65,0,0,0,1.31.53,2.49,2.49,0,0,0,1.9-.86,3.25,3.25,0,0,0,.8-2.3V77.49h4.12V91.12A19.16,19.16,0,0,1,129.7,95.58Z"/><path class="cls-1" d="M154.35,87.34a3.92,3.92,0,0,1-1.31,3.1,5.43,5.43,0,0,1-3.7,1.15,15.13,15.13,0,0,1-3.14-.31,9.32,9.32,0,0,1-2.48-.84l.52-3.16a10.61,10.61,0,0,0,4.72,1.4,1.31,1.31,0,0,0,1-.3.91.91,0,0,0,.3-.67A1.14,1.14,0,0,0,150,87a3.41,3.41,0,0,0-1.13-.73,18.2,18.2,0,0,1-2.18-1.12A7.21,7.21,0,0,1,145.19,84a4,4,0,0,1-.84-1.29,4.38,4.38,0,0,1-.26-1.55,3.49,3.49,0,0,1,1.5-3A6.6,6.6,0,0,1,149.5,77a12.35,12.35,0,0,1,2.31.2,11,11,0,0,1,2.32.79l-.5,3.13a7.59,7.59,0,0,0-2.13-.85,9.89,9.89,0,0,0-2-.23,1.4,1.4,0,0,0-1,.26.94.94,0,0,0-.27.7,1,1,0,0,0,.43.85,8.33,8.33,0,0,0,1.65.85c.73.38,1.36.73,1.88,1.07a6.65,6.65,0,0,1,1.27,1.06,3.29,3.29,0,0,1,.7,1.14A4.15,4.15,0,0,1,154.35,87.34Z"/><path class="cls-1" d="M159,91.12V80.43h-2.73V77.49H159V74h4.06v3.45h3.5v2.94h-3.5V91.12Z"/><path class="cls-1" d="M173.85,73.74a1.71,1.71,0,0,1-.72,1.38,2.62,2.62,0,0,1-1.7.57,2.72,2.72,0,0,1-1.74-.58,1.88,1.88,0,0,1-.74-1.42,1.69,1.69,0,0,1,.68-1.42,2.76,2.76,0,0,1,1.8-.58,2.61,2.61,0,0,1,.91.16,2.45,2.45,0,0,1,.78.43,2.14,2.14,0,0,1,.53.66A1.72,1.72,0,0,1,173.85,73.74ZM169.2,91.12V77.49h4.12V91.12Z"/><path class="cls-1" d="M186.42,90.87a9.26,9.26,0,0,1-2.22.25,7.53,7.53,0,0,1-2.73-.48,6.88,6.88,0,0,1-2.15-1.35,5.77,5.77,0,0,1-1.41-2.07,7.08,7.08,0,0,1-.5-2.69,8.59,8.59,0,0,1,.45-2.84,5.89,5.89,0,0,1,1.37-2.24A6.24,6.24,0,0,1,181.49,78a8.89,8.89,0,0,1,3.15-.51,7.14,7.14,0,0,1,2.37.32,8.51,8.51,0,0,1,1.53.7l-.71,3.56-.79-.38a4.64,4.64,0,0,0-.62-.28,2.69,2.69,0,0,0-.65-.16,7.09,7.09,0,0,0-.86,0,3.21,3.21,0,0,0-2.38.84,3.1,3.1,0,0,0-.84,2.29,3,3,0,0,0,.87,2.3,3.5,3.5,0,0,0,2.51.83,7,7,0,0,0,1.61-.19,9.61,9.61,0,0,0,1.64-.59l.28,3.37A10.46,10.46,0,0,1,186.42,90.87Z"/><path class="cls-1" d="M200.07,83.07l6.61,8.05h-5.46l-5.15-6.72v6.72H192V69.52h4.12V82l5-4.49H207Z"/></g></svg>