<svg xmlns="http://www.w3.org/2000/svg" viewBox="0 0 256 128"><defs><style>.cls-1{fill:#323232;}</style></defs><g id="_5_mangoes" data-name="5 mangoes"><path class="cls-1" d="M66.92,65.63a6.49,6.49,0,0,1-2,5.1,8.11,8.11,0,0,1-5.62,1.79,10.56,10.56,0,0,1-4.11-.78,9.17,9.17,0,0,1-3.27-2.33l1.74-3A8.19,8.19,0,0,0,59,68.87a4.19,4.19,0,0,0,2.7-.85,2.67,2.67,0,0,0,1-2.19,3,3,0,0,0-.88-2.36,3.7,3.7,0,0,0-2.56-.8,3.78,3.78,0,0,0-1.63.35,7,7,0,0,0-1.53,1.1L53.52,62.6l.31-11.71h12.4l0,3.65H57.8l-.15,5.09c.3-.15.56-.26.78-.36a6.35,6.35,0,0,1,.65-.23,3.46,3.46,0,0,1,.67-.12c.24,0,.51,0,.82,0a6.74,6.74,0,0,1,2.58.49,5.66,5.66,0,0,1,2,1.37,6.28,6.28,0,0,1,1.29,2.14A7.82,7.82,0,0,1,66.92,65.63Z"/><path class="cls-1" d="M98.26,72.52V65.78a4.42,4.42,0,0,0-.53-2.53,1.67,1.67,0,0,0-1.41-.71,2.26,2.26,0,0,0-.93.22,2.29,2.29,0,0,0-.84.73,3.69,3.69,0,0,0-.62,1.35A8.47,8.47,0,0,0,93.7,67v5.56H89.58V65.78a4.84,4.84,0,0,0-.48-2.46,1.74,1.74,0,0,0-1.6-.78,2.25,2.25,0,0,0-1.83,1.05A5.72,5.72,0,0,0,84.9,67v5.56H80.77V64c0-.5,0-1,0-1.37s-.06-.79-.11-1.15a9,9,0,0,0-.21-1.06q-.15-.51-.33-1.08h4.12c.11.32.18.56.24.72s.1.39.17.69a9.6,9.6,0,0,1,2.14-1.31,6.81,6.81,0,0,1,2.83-.52,4.85,4.85,0,0,1,2.12.45,3.23,3.23,0,0,1,1.4,1.25,4.61,4.61,0,0,1,2.07-1.26,8.58,8.58,0,0,1,2.67-.44,4.41,4.41,0,0,1,3.35,1.24,5,5,0,0,1,1.18,3.58v8.82Z"/><path class="cls-1" d="M116.82,72.52c0-.14,0-.32,0-.52s0-.36-.05-.59,0-.47,0-.71a4.82,4.82,0,0,1-2,1.59,6.56,6.56,0,0,1-2.64.54,4.88,4.88,0,0,1-4-1.67,7.22,7.22,0,0,1-1.41-4.77,7.37,7.37,0,0,1,2.28-5.79,9.45,9.45,0,0,1,6.49-2c.46,0,.88,0,1.25,0s.76,0,1.13.1.77.12,1.17.21a12.92,12.92,0,0,1,1.32.34v8.8q0,.72,0,1.5c0,.53,0,1,.09,1.45s.08,1,.12,1.51Zm-.65-10.1a6.51,6.51,0,0,0-1-.16l-.82,0a3.31,3.31,0,0,0-2.65,1.1,4.56,4.56,0,0,0-1,3.06,3,3,0,0,0,.57,2,2,2,0,0,0,1.61.68,2.78,2.78,0,0,0,1.24-.28,3.12,3.12,0,0,0,1-.79,3.86,3.86,0,0,0,.69-1.21,4.48,4.48,0,0,0,.25-1.56Z"/><path class="cls-1" d="M133.66,72.52V64.78a3.23,3.23,0,0,0-.2-1.25,1.9,1.9,0,0,0-.48-.67,1.26,1.26,0,0,0-.59-.27,4,4,0,0,0-.53-.05,3.13,3.13,0,0,0-.65.12,2.25,2.25,0,0,0-1,.57,4,4,0,0,0-.85,1.31,6,6,0,0,0-.37,2.34v5.64h-4.12v-9a15.83,15.83,0,0,0-.19-2.35,7.23,7.23,0,0,0-.5-1.9h4.13a6,6,0,0,1,.26.71c0,.19.11.45.17.81a6.34,6.34,0,0,1,2.13-1.43,6.15,6.15,0,0,1,2.31-.47,4.49,4.49,0,0,1,1.8.37,4.35,4.35,0,0,1,1.45,1,4.6,4.6,0,0,1,1,1.6,6.16,6.16,0,0,1,.35,2.12v8.54Z"/><path class="cls-1" d="M155.79,73a14.4,14.4,0,0,1-.52,4.2,7.3,7.3,0,0,1-1.42,2.71,5.21,5.21,0,0,1-2.14,1.47,7.79,7.79,0,0,1-2.69.45,21.9,21.9,0,0,1-2.77-.17,10,10,0,0,1-2.61-.66V77.83a18.18,18.18,0,0,0,2.38.66,9.89,9.89,0,0,0,2,.23,3.44,3.44,0,0,0,1.48-.31,2.77,2.77,0,0,0,1.15-1,4.83,4.83,0,0,0,.75-1.8,11.56,11.56,0,0,0,.27-2.69V71.56a4.61,4.61,0,0,1-1.77,1,7,7,0,0,1-1.92.23,6.11,6.11,0,0,1-2.42-.46,5.3,5.3,0,0,1-1.84-1.3,5.9,5.9,0,0,1-1.18-2,8,8,0,0,1-.42-2.65,7.84,7.84,0,0,1,.64-3.24,7,7,0,0,1,1.84-2.47,8.24,8.24,0,0,1,2.9-1.56,12.55,12.55,0,0,1,3.83-.55l1.16,0c.34,0,.67,0,1,.08s.67.1,1,.17.79.17,1.27.29ZM151.67,62.6l-.82-.12a6.75,6.75,0,0,0-.71,0,3.93,3.93,0,0,0-2.86,1,3.68,3.68,0,0,0-1,2.77,2.61,2.61,0,0,0,.69,2,2.32,2.32,0,0,0,1.71.69,4.56,4.56,0,0,0,1.11-.13,2,2,0,0,0,1-.56,3,3,0,0,0,.68-1.25,7.75,7.75,0,0,0,.26-2.22Z"/><path class="cls-1" d="M173.8,65.66a7.87,7.87,0,0,1-.51,2.94,5.84,5.84,0,0,1-1.45,2.14,6.19,6.19,0,0,1-2.25,1.33,9,9,0,0,1-2.92.45,8.89,8.89,0,0,1-2.91-.45,6.15,6.15,0,0,1-2.26-1.33A6,6,0,0,1,160,68.6a7.67,7.67,0,0,1-.53-2.94A7.56,7.56,0,0,1,160,62.8a5.91,5.91,0,0,1,3.69-3.46,9.15,9.15,0,0,1,3-.46,9.27,9.27,0,0,1,2.92.44,6.42,6.42,0,0,1,2.25,1.3,5.8,5.8,0,0,1,1.45,2.13A7.79,7.79,0,0,1,173.8,65.66Zm-4.12,0a2.85,2.85,0,0,0-3.07-3.12,2.9,2.9,0,0,0-2.21.82,3.26,3.26,0,0,0-.77,2.3,3.38,3.38,0,0,0,.76,2.37,2.82,2.82,0,0,0,2.22.84,3,3,0,0,0,2.27-.83A3.28,3.28,0,0,0,169.68,65.66Z"/><path class="cls-1" d="M189.61,62.64a3.49,3.49,0,0,1-.55,1.92A4.66,4.66,0,0,1,187.51,66a8.79,8.79,0,0,1-2.42,1,13.85,13.85,0,0,1-3.16.34l-.37,0h-.5a2.82,2.82,0,0,0,.93,1.84,3,3,0,0,0,2,.67,9.19,9.19,0,0,0,4.57-1.4v3.26a9,9,0,0,1-2.25,1,9.19,9.19,0,0,1-2.43.3,8,8,0,0,1-2.81-.47A5.67,5.67,0,0,1,179,71.11a5.79,5.79,0,0,1-1.33-2.1,7.61,7.61,0,0,1-.47-2.78,8.6,8.6,0,0,1,.54-3.11,7.25,7.25,0,0,1,1.52-2.44,6.68,6.68,0,0,1,2.34-1.58,7.91,7.91,0,0,1,3-.56,5.68,5.68,0,0,1,3.67,1.12A3.64,3.64,0,0,1,189.61,62.64Zm-4.12.31a1.08,1.08,0,0,0-.43-.86,1.64,1.64,0,0,0-1.07-.35,2.47,2.47,0,0,0-1.77.72,3.58,3.58,0,0,0-.95,2,2.18,2.18,0,0,0,.5.07h.45C184.4,64.53,185.49,64,185.49,63Z"/><path class="cls-1" d="M202.82,68.74a3.89,3.89,0,0,1-1.32,3.1A5.38,5.38,0,0,1,197.81,73a15.13,15.13,0,0,1-3.14-.31,9.52,9.52,0,0,1-2.49-.84l.53-3.16a10.61,10.61,0,0,0,4.71,1.4,1.34,1.34,0,0,0,1-.3.91.91,0,0,0,.29-.67,1.17,1.17,0,0,0-.23-.76,3.61,3.61,0,0,0-1.13-.72,18.93,18.93,0,0,1-2.18-1.12,7.21,7.21,0,0,1-1.49-1.16,3.82,3.82,0,0,1-.84-1.29,4.17,4.17,0,0,1-.26-1.55,3.49,3.49,0,0,1,1.5-3A6.58,6.58,0,0,1,198,58.42a12.35,12.35,0,0,1,2.31.2,11.18,11.18,0,0,1,2.32.79l-.5,3.13a7.3,7.3,0,0,0-2.13-.85,9.89,9.89,0,0,0-2-.23,1.4,1.4,0,0,0-1,.26.94.94,0,0,0-.27.7,1,1,0,0,0,.43.85,8.33,8.33,0,0,0,1.65.85c.73.38,1.36.73,1.88,1.07a6.65,6.65,0,0,1,1.27,1.06,3.29,3.29,0,0,1,.7,1.14A4.15,4.15,0,0,1,202.82,68.74Z"/></g></svg>