<svg xmlns="http://www.w3.org/2000/svg" viewBox="0 0 256 128"><defs><style>.cls-1{fill:#323232;}</style></defs><g id="_9_Mushroom" data-name="9 Mushroom"><path class="cls-1" d="M55,72.53H50.87l.25-9.15a5.71,5.71,0,0,1-1.77,1.09,6.31,6.31,0,0,1-2.07.31,6.54,6.54,0,0,1-2.59-.5,5.68,5.68,0,0,1-2-1.41,6.29,6.29,0,0,1-1.29-2.19A8.44,8.44,0,0,1,41,57.83a8.2,8.2,0,0,1,.55-3.08A6.52,6.52,0,0,1,43,52.41a6.62,6.62,0,0,1,2.43-1.48,9.57,9.57,0,0,1,3.21-.51,6.76,6.76,0,0,1,5,1.8,6.46,6.46,0,0,1,1.71,5ZM51.09,56.75a2.49,2.49,0,0,0-.2-1,2.58,2.58,0,0,0-.56-.79,2.4,2.4,0,0,0-.85-.53,3.06,3.06,0,0,0-1.06-.18,2.85,2.85,0,0,0-2.26,1,3.86,3.86,0,0,0-.84,2.63,3.48,3.48,0,0,0,.73,2.33,2.59,2.59,0,0,0,2,.83,2.82,2.82,0,0,0,2.11-.83,3.43,3.43,0,0,0,.87-2.33Z"/><path class="cls-1" d="M86.83,72.53V65.78a4.46,4.46,0,0,0-.52-2.53,1.68,1.68,0,0,0-1.42-.71,2.21,2.21,0,0,0-.92.22,2.39,2.39,0,0,0-.85.73,3.86,3.86,0,0,0-.61,1.35A8,8,0,0,0,82.28,67v5.57H78.15V65.78a4.84,4.84,0,0,0-.48-2.46,1.72,1.72,0,0,0-1.59-.78,2.23,2.23,0,0,0-1.83,1.05A5.71,5.71,0,0,0,73.47,67v5.57H69.35V64c0-.5,0-1,0-1.37s-.06-.79-.11-1.15A7.38,7.38,0,0,0,69,60.38c-.09-.34-.2-.7-.32-1.08h4.12L73,60c0,.16.11.4.17.69a9.9,9.9,0,0,1,2.15-1.31,7,7,0,0,1,2.83-.51,4.91,4.91,0,0,1,2.11.44,3.08,3.08,0,0,1,1.4,1.26,4.63,4.63,0,0,1,2.08-1.27,8.57,8.57,0,0,1,2.67-.43,4.42,4.42,0,0,1,3.35,1.23A5,5,0,0,1,91,63.7v8.83Z"/><path class="cls-1" d="M105.12,72.15a6,6,0,0,1-.26-.71c0-.19-.11-.45-.17-.81a6,6,0,0,1-4.37,1.9,4.57,4.57,0,0,1-1.85-.38,4.67,4.67,0,0,1-1.48-1,4.57,4.57,0,0,1-1-1.6,6,6,0,0,1-.34-2.08c0-.85,0-1.63.06-2.36s.07-1.42.09-2.08,0-1.33,0-2-.07-1.37-.15-2.11h4.12c.06.67.1,1.33.11,2s0,1.25,0,1.87,0,1.25-.06,1.88,0,1.32,0,2A3.61,3.61,0,0,0,100,67.9a1.44,1.44,0,0,0,.51.67,1.42,1.42,0,0,0,.63.25,4,4,0,0,0,.54.05,3.25,3.25,0,0,0,.67-.12,2.14,2.14,0,0,0,.93-.57,3.94,3.94,0,0,0,.83-1.31,6.48,6.48,0,0,0,.35-2.34V58.89h4.12v9a15.83,15.83,0,0,0,.19,2.35,7.23,7.23,0,0,0,.5,1.9Z"/><path class="cls-1" d="M123.47,68.74a3.89,3.89,0,0,1-1.31,3.1A5.38,5.38,0,0,1,118.47,73a15.3,15.3,0,0,1-3.15-.31,9.09,9.09,0,0,1-2.48-.84l.53-3.16a10.61,10.61,0,0,0,4.71,1.4,1.34,1.34,0,0,0,1-.3.93.93,0,0,0,.29-.66,1.21,1.21,0,0,0-.23-.76,3.53,3.53,0,0,0-1.13-.73,18.4,18.4,0,0,1-2.19-1.12,7.49,7.49,0,0,1-1.49-1.16,3.79,3.79,0,0,1-.83-1.29,4.16,4.16,0,0,1-.27-1.55,3.49,3.49,0,0,1,1.5-3,6.63,6.63,0,0,1,3.92-1.07,12.5,12.5,0,0,1,2.31.2,11.11,11.11,0,0,1,2.31.79l-.49,3.13a7.59,7.59,0,0,0-2.13-.85,9.89,9.89,0,0,0-2-.23,1.45,1.45,0,0,0-1,.26,1,1,0,0,0-.26.7,1,1,0,0,0,.42.85,9,9,0,0,0,1.65.85,19.64,19.64,0,0,1,1.88,1.07,6.71,6.71,0,0,1,1.27,1.06,3.33,3.33,0,0,1,.71,1.14A4.45,4.45,0,0,1,123.47,68.74Z"/><path class="cls-1" d="M136.09,72.53V64.81a4.26,4.26,0,0,0-.14-1.19,1.64,1.64,0,0,0-.4-.69,1.23,1.23,0,0,0-.57-.31,2.84,2.84,0,0,0-.66-.08,1.89,1.89,0,0,0-1,.32,3,3,0,0,0-.87.85A4.85,4.85,0,0,0,131.8,65a4.91,4.91,0,0,0-.23,1.54v6h-4.13V51.29h4.09v9.15a4.72,4.72,0,0,1,1.72-1.2,5.62,5.62,0,0,1,2.07-.35,6.66,6.66,0,0,1,1.79.24,4.38,4.38,0,0,1,1.56.77,3.92,3.92,0,0,1,1.12,1.4,4.92,4.92,0,0,1,.42,2.14v9.09Z"/><path class="cls-1" d="M154.54,62.7l-.69-.13a4.56,4.56,0,0,0-.55,0,3.18,3.18,0,0,0-2.69,1.21,6,6,0,0,0-.91,3.61v5.17h-4.12v-9c0-.5,0-.94,0-1.32s0-.72-.08-1a7.4,7.4,0,0,0-.17-1c-.07-.31-.17-.67-.29-1.08h3.91l.18.65a3.61,3.61,0,0,1,.11.51q0,.24.06.51a4.11,4.11,0,0,1,0,.65,7,7,0,0,1,1.76-2,3.39,3.39,0,0,1,2-.58,3.06,3.06,0,0,1,.73.07c.19.06.47.16.82.31Z"/><path class="cls-1" d="M170,65.66a7.87,7.87,0,0,1-.51,2.94A5.84,5.84,0,0,1,168,70.74a6.11,6.11,0,0,1-2.25,1.33,9.47,9.47,0,0,1-5.83,0,6,6,0,0,1-3.72-3.47,7.67,7.67,0,0,1-.53-2.94,7.56,7.56,0,0,1,.51-2.86,5.91,5.91,0,0,1,3.69-3.46,10,10,0,0,1,5.88,0,6.34,6.34,0,0,1,2.25,1.3,5.76,5.76,0,0,1,1.45,2.14A7.7,7.7,0,0,1,170,65.66Zm-4.12,0a2.87,2.87,0,0,0-3.07-3.12,2.87,2.87,0,0,0-2.21.83,3.22,3.22,0,0,0-.76,2.29,3.4,3.4,0,0,0,.75,2.37,2.82,2.82,0,0,0,2.22.84,3,3,0,0,0,2.27-.82A3.3,3.3,0,0,0,165.85,65.66Z"/><path class="cls-1" d="M187.49,65.66A7.87,7.87,0,0,1,187,68.6a5.84,5.84,0,0,1-1.45,2.14,6.15,6.15,0,0,1-2.26,1.33,8.63,8.63,0,0,1-2.91.46,8.73,8.73,0,0,1-2.92-.46,6.19,6.19,0,0,1-2.25-1.33,6,6,0,0,1-1.47-2.14,7.68,7.68,0,0,1-.52-2.94,7.56,7.56,0,0,1,.51-2.86,5.88,5.88,0,0,1,1.43-2.13,6,6,0,0,1,2.26-1.33,10,10,0,0,1,5.87,0,6.38,6.38,0,0,1,2.26,1.3A5.76,5.76,0,0,1,187,62.76,7.7,7.7,0,0,1,187.49,65.66Zm-4.12,0a2.88,2.88,0,0,0-3.08-3.12,2.86,2.86,0,0,0-2.2.83,3.22,3.22,0,0,0-.77,2.29,3.4,3.4,0,0,0,.75,2.37,2.82,2.82,0,0,0,2.22.84,3.09,3.09,0,0,0,2.28-.82A3.3,3.3,0,0,0,183.37,65.66Z"/><path class="cls-1" d="M209.16,72.53V65.78a4.44,4.44,0,0,0-.53-2.53,1.67,1.67,0,0,0-1.41-.71,2.26,2.26,0,0,0-.93.22,2.37,2.37,0,0,0-.84.73,3.69,3.69,0,0,0-.62,1.35A8.47,8.47,0,0,0,204.6,67v5.57h-4.12V65.78a4.84,4.84,0,0,0-.48-2.46,1.74,1.74,0,0,0-1.6-.78,2.25,2.25,0,0,0-1.83,1.05A5.72,5.72,0,0,0,195.8,67v5.57h-4.13V64c0-.5,0-1,0-1.37s-.06-.79-.11-1.15a9,9,0,0,0-.21-1.06q-.15-.51-.33-1.08h4.12c.11.32.18.56.24.72s.11.4.17.69a9.83,9.83,0,0,1,2.14-1.31,7,7,0,0,1,2.83-.51,5,5,0,0,1,2.12.44,3.14,3.14,0,0,1,1.4,1.26,4.6,4.6,0,0,1,2.07-1.27,8.57,8.57,0,0,1,2.67-.43,4.41,4.41,0,0,1,3.35,1.23,5,5,0,0,1,1.18,3.58v8.83Z"/></g></svg>