<svg xmlns="http://www.w3.org/2000/svg" viewBox="0 0 256 128"><defs><style>.cls-1{opacity:0.5;}.cls-2{fill:#ff0;}</style></defs><g id="Layer_37" data-name="Layer 37"><g class="cls-1"><path d="M59.26,41.1V87.5H46.7V41H31.82V31.66H74V41.1Z"/><path d="M103.18,87.5V67.6a10.3,10.3,0,0,0-.37-3.08,4,4,0,0,0-1-1.78,3.15,3.15,0,0,0-1.47-.81,7.29,7.29,0,0,0-1.71-.19,4.87,4.87,0,0,0-2.66.81,8.06,8.06,0,0,0-2.24,2.2A11.93,11.93,0,0,0,92.11,68a12.73,12.73,0,0,0-.61,4V87.5H80.86V32.7H91.42V56.3a12.21,12.21,0,0,1,4.42-3.08,14.76,14.76,0,0,1,5.36-.92,17.45,17.45,0,0,1,4.62.62,11.83,11.83,0,0,1,4,2,10.06,10.06,0,0,1,2.88,3.62,12.62,12.62,0,0,1,1.1,5.53V87.5Z"/><path d="M150.78,62.14c-.75-.16-1.33-.27-1.76-.32a12.48,12.48,0,0,0-1.44-.08,8.13,8.13,0,0,0-6.92,3.12c-1.57,2.09-2.36,5.18-2.36,9.3V87.5H127.66V64.39c0-1.3,0-2.44,0-3.4s-.09-1.87-.2-2.7a25,25,0,0,0-.44-2.47c-.19-.81-.44-1.74-.76-2.78h10.1c.16.66.32,1.22.45,1.68a8,8,0,0,1,.29,1.31c.06.42.11.85.17,1.32a15.75,15.75,0,0,1,.08,1.68,18,18,0,0,1,4.55-5.21,8.75,8.75,0,0,1,5.08-1.52,7.67,7.67,0,0,1,1.88.2,19.09,19.09,0,0,1,2.12.78Z"/><path d="M186.22,62a9.13,9.13,0,0,1-1.42,5,12,12,0,0,1-4,3.8,22.19,22.19,0,0,1-6.23,2.44,34.51,34.51,0,0,1-8.15.88c-.28,0-.6,0-1,0s-.8,0-1.3,0a7.39,7.39,0,0,0,2.4,4.76,7.58,7.58,0,0,0,5.17,1.72,23.68,23.68,0,0,0,11.79-3.6v8.4a23.32,23.32,0,0,1-5.8,2.52,24.13,24.13,0,0,1-6.28.76,20.71,20.71,0,0,1-7.24-1.2,14.7,14.7,0,0,1-5.48-3.48,15.53,15.53,0,0,1-3.44-5.44,20.06,20.06,0,0,1-1.2-7.16,22.32,22.32,0,0,1,1.4-8,18.61,18.61,0,0,1,3.92-6.28,17.25,17.25,0,0,1,6-4.08,20.31,20.31,0,0,1,7.76-1.44c3.94,0,7.11,1,9.48,2.88A9.39,9.39,0,0,1,186.22,62Zm-10.64.8a2.79,2.79,0,0,0-1.1-2.2,4.16,4.16,0,0,0-2.76-.92,6.31,6.31,0,0,0-4.56,1.88,8.9,8.9,0,0,0-2.46,5.16,6.49,6.49,0,0,0,1.27.16h1.19Q175.58,66.86,175.58,62.78Z"/><path d="M225.5,62a9.13,9.13,0,0,1-1.42,5,12,12,0,0,1-4,3.8,22.19,22.19,0,0,1-6.23,2.44,34.51,34.51,0,0,1-8.15.88c-.28,0-.6,0-1,0s-.79,0-1.29,0a7.39,7.39,0,0,0,2.4,4.76A7.59,7.59,0,0,0,211,80.46a23.67,23.67,0,0,0,11.78-3.6v8.4a23.48,23.48,0,0,1-5.8,2.52,24.18,24.18,0,0,1-6.28.76,20.71,20.71,0,0,1-7.24-1.2A14.7,14.7,0,0,1,198,83.86a15.53,15.53,0,0,1-3.44-5.44,20.06,20.06,0,0,1-1.2-7.16,22.11,22.11,0,0,1,1.4-8,18.61,18.61,0,0,1,3.92-6.28,17.25,17.25,0,0,1,6-4.08,20.27,20.27,0,0,1,7.76-1.44q5.92,0,9.48,2.88A9.39,9.39,0,0,1,225.5,62Zm-10.64.8a2.79,2.79,0,0,0-1.1-2.2,4.16,4.16,0,0,0-2.76-.92,6.35,6.35,0,0,0-4.57,1.88A9,9,0,0,0,204,66.7a6.41,6.41,0,0,0,1.27.16h1.18Q214.86,66.86,214.86,62.78Z"/></g><path class="cls-2" d="M56.26,38.1V84.5H43.7V38H28.82V28.66H71V38.1Z"/><path class="cls-2" d="M100.18,84.5V64.6a10.3,10.3,0,0,0-.37-3.08,4,4,0,0,0-1-1.78,3.15,3.15,0,0,0-1.47-.81,7.29,7.29,0,0,0-1.71-.19,4.87,4.87,0,0,0-2.66.81,8.06,8.06,0,0,0-2.24,2.2A11.93,11.93,0,0,0,89.11,65a12.73,12.73,0,0,0-.61,4V84.5H77.86V29.7H88.42V53.3a12.21,12.21,0,0,1,4.42-3.08,14.76,14.76,0,0,1,5.36-.92,17.45,17.45,0,0,1,4.62.62,11.83,11.83,0,0,1,4,2,10.06,10.06,0,0,1,2.88,3.62,12.62,12.62,0,0,1,1.1,5.53V84.5Z"/><path class="cls-2" d="M147.78,59.14c-.75-.16-1.33-.27-1.76-.32a12.48,12.48,0,0,0-1.44-.08,8.13,8.13,0,0,0-6.92,3.12c-1.57,2.09-2.36,5.18-2.36,9.3V84.5H124.66V61.39c0-1.3,0-2.44,0-3.4s-.09-1.87-.2-2.7a25,25,0,0,0-.44-2.47c-.19-.81-.44-1.74-.76-2.78h10.1c.16.66.32,1.22.45,1.68a8,8,0,0,1,.29,1.31c.06.42.11.85.17,1.32a15.75,15.75,0,0,1,.08,1.68,18,18,0,0,1,4.55-5.21,8.75,8.75,0,0,1,5.08-1.52,7.67,7.67,0,0,1,1.88.2,19.09,19.09,0,0,1,2.12.78Z"/><path class="cls-2" d="M183.22,59a9.13,9.13,0,0,1-1.42,5,12,12,0,0,1-4,3.8,22.19,22.19,0,0,1-6.23,2.44,34.51,34.51,0,0,1-8.15.88c-.28,0-.6,0-1,0s-.8,0-1.3,0a7.39,7.39,0,0,0,2.4,4.76,7.58,7.58,0,0,0,5.17,1.72,23.68,23.68,0,0,0,11.79-3.6v8.4a23.32,23.32,0,0,1-5.8,2.52,24.13,24.13,0,0,1-6.28.76,20.71,20.71,0,0,1-7.24-1.2,14.7,14.7,0,0,1-5.48-3.48,15.53,15.53,0,0,1-3.44-5.44,20.06,20.06,0,0,1-1.2-7.16,22.32,22.32,0,0,1,1.4-8,18.61,18.61,0,0,1,3.92-6.28,17.25,17.25,0,0,1,6-4.08,20.31,20.31,0,0,1,7.76-1.44c3.94,0,7.11,1,9.48,2.88A9.39,9.39,0,0,1,183.22,59Zm-10.64.8a2.79,2.79,0,0,0-1.1-2.2,4.16,4.16,0,0,0-2.76-.92,6.31,6.31,0,0,0-4.56,1.88,8.9,8.9,0,0,0-2.46,5.16,6.49,6.49,0,0,0,1.27.16h1.19Q172.58,63.86,172.58,59.78Z"/><path class="cls-2" d="M222.5,59a9.13,9.13,0,0,1-1.42,5,12,12,0,0,1-4,3.8,22.19,22.19,0,0,1-6.23,2.44,34.51,34.51,0,0,1-8.15.88c-.28,0-.6,0-1,0s-.79,0-1.29,0a7.39,7.39,0,0,0,2.4,4.76A7.59,7.59,0,0,0,208,77.46a23.67,23.67,0,0,0,11.78-3.6v8.4a23.48,23.48,0,0,1-5.8,2.52,24.18,24.18,0,0,1-6.28.76,20.71,20.71,0,0,1-7.24-1.2A14.7,14.7,0,0,1,195,80.86a15.53,15.53,0,0,1-3.44-5.44,20.06,20.06,0,0,1-1.2-7.16,22.11,22.11,0,0,1,1.4-8,18.61,18.61,0,0,1,3.92-6.28,17.25,17.25,0,0,1,6-4.08,20.27,20.27,0,0,1,7.76-1.44q5.92,0,9.48,2.88A9.39,9.39,0,0,1,222.5,59Zm-10.64.8a2.79,2.79,0,0,0-1.1-2.2,4.16,4.16,0,0,0-2.76-.92,6.35,6.35,0,0,0-4.57,1.88A9,9,0,0,0,201,63.7a6.41,6.41,0,0,0,1.27.16h1.18Q211.86,63.86,211.86,59.78Z"/></g></svg>