<svg xmlns="http://www.w3.org/2000/svg" viewBox="0 0 256 128"><defs><style>.cls-1{fill:#323232;}</style></defs><g id="_8_Insects" data-name="8 Insects"><path class="cls-1" d="M83.45,67.07a4.7,4.7,0,0,1-1.94,4,8.94,8.94,0,0,1-5.41,1.45,11.91,11.91,0,0,1-3.22-.41A8.42,8.42,0,0,1,70.39,71a5.31,5.31,0,0,1-1.61-1.77,5.1,5.1,0,0,1,.46-5.45,8.67,8.67,0,0,1,3.46-2.19c-.85-.53-1.53-1-2-1.39A5.52,5.52,0,0,1,69.46,59a3.51,3.51,0,0,1-.58-1.22,6.67,6.67,0,0,1-.15-1.52,4.74,4.74,0,0,1,1.8-4c1.2-.94,3-1.4,5.52-1.4a11,11,0,0,1,2.92.36,7.09,7.09,0,0,1,2.25,1,4.45,4.45,0,0,1,1.92,3.78A4.78,4.78,0,0,1,82.23,59a9,9,0,0,1-3,2.36,7.62,7.62,0,0,1,3.23,2.34A5.45,5.45,0,0,1,83.45,67.07Zm-4.12-.4a2.12,2.12,0,0,0-.25-1.07,2.44,2.44,0,0,0-.73-.78,6.71,6.71,0,0,0-1.14-.64c-.45-.2-.95-.4-1.51-.61a6.39,6.39,0,0,0-2.26,1.15,2.1,2.1,0,0,0-.65,1.58,2.2,2.2,0,0,0,.93,1.88,4.13,4.13,0,0,0,2.51.69,3.79,3.79,0,0,0,2.26-.6A1.87,1.87,0,0,0,79.33,66.67Zm-.59-9.83a2,2,0,0,0-.82-1.66,3.46,3.46,0,0,0-2.15-.64,3,3,0,0,0-1.93.6,1.89,1.89,0,0,0-.74,1.52c0,1.09,1,2.06,3,2.91a4.6,4.6,0,0,0,2.07-1.18A2.26,2.26,0,0,0,78.74,56.84Z"/><path class="cls-1" d="M101.15,55.14a1.7,1.7,0,0,1-.71,1.38,2.62,2.62,0,0,1-1.7.57A2.7,2.7,0,0,1,97,56.51a1.88,1.88,0,0,1-.74-1.42,1.66,1.66,0,0,1,.68-1.42,2.72,2.72,0,0,1,1.8-.58,2.61,2.61,0,0,1,.91.16,2.45,2.45,0,0,1,.78.43,2.12,2.12,0,0,1,.52.66A1.61,1.61,0,0,1,101.15,55.14ZM96.5,72.53V58.89h4.13V72.53Z"/><path class="cls-1" d="M114.11,72.53V64.79a3.25,3.25,0,0,0-.2-1.26,1.68,1.68,0,0,0-.48-.67,1.22,1.22,0,0,0-.59-.27,3.87,3.87,0,0,0-.53-.05,3.13,3.13,0,0,0-.65.12,2.22,2.22,0,0,0-.94.57,3.76,3.76,0,0,0-.85,1.32,5.92,5.92,0,0,0-.38,2.33v5.65h-4.12v-9a14.68,14.68,0,0,0-.19-2.35,7.7,7.7,0,0,0-.49-1.9h4.12a4.62,4.62,0,0,1,.26.71,8.27,8.27,0,0,1,.18.81,6.36,6.36,0,0,1,2.12-1.43,6.14,6.14,0,0,1,2.31-.46,4.53,4.53,0,0,1,1.81.36,4.41,4.41,0,0,1,1.44,1,4.77,4.77,0,0,1,1,1.6,6.18,6.18,0,0,1,.35,2.13v8.54Z"/><path class="cls-1" d="M133.05,68.74a3.89,3.89,0,0,1-1.31,3.1A5.42,5.42,0,0,1,128.05,73a15.3,15.3,0,0,1-3.15-.31,9.09,9.09,0,0,1-2.48-.84l.53-3.16a10.61,10.61,0,0,0,4.71,1.4,1.35,1.35,0,0,0,1-.3.93.93,0,0,0,.29-.66,1.21,1.21,0,0,0-.23-.76,3.53,3.53,0,0,0-1.13-.73,18.4,18.4,0,0,1-2.19-1.12,7.21,7.21,0,0,1-1.49-1.16,3.79,3.79,0,0,1-.83-1.29,4.16,4.16,0,0,1-.27-1.55,3.49,3.49,0,0,1,1.5-3,6.63,6.63,0,0,1,3.92-1.07,12.5,12.5,0,0,1,2.31.2,11.11,11.11,0,0,1,2.31.79l-.49,3.13a7.53,7.53,0,0,0-2.14-.85,9.8,9.8,0,0,0-2-.23,1.45,1.45,0,0,0-1,.26.94.94,0,0,0-.26.7,1,1,0,0,0,.42.85,8.33,8.33,0,0,0,1.65.85,19.64,19.64,0,0,1,1.88,1.07,7,7,0,0,1,1.27,1.06,3.29,3.29,0,0,1,.7,1.14A4.15,4.15,0,0,1,133.05,68.74Z"/><path class="cls-1" d="M148.83,62.64a3.49,3.49,0,0,1-.55,1.92A4.66,4.66,0,0,1,146.73,66a8.79,8.79,0,0,1-2.42,1,13.85,13.85,0,0,1-3.16.34l-.37,0h-.5a2.78,2.78,0,0,0,.93,1.84,2.9,2.9,0,0,0,2,.67,9.19,9.19,0,0,0,4.57-1.4v3.26a9,9,0,0,1-2.25,1,9.24,9.24,0,0,1-2.43.3,8,8,0,0,1-2.81-.47,5.78,5.78,0,0,1-2.12-1.34A6.09,6.09,0,0,1,136.83,69a7.79,7.79,0,0,1-.46-2.78,8.64,8.64,0,0,1,.54-3.11,7.35,7.35,0,0,1,1.52-2.44,6.68,6.68,0,0,1,2.34-1.58,7.91,7.91,0,0,1,3-.56,5.68,5.68,0,0,1,3.67,1.12A3.64,3.64,0,0,1,148.83,62.64Zm-4.12.31a1.08,1.08,0,0,0-.43-.86,1.64,1.64,0,0,0-1.07-.35,2.44,2.44,0,0,0-1.77.73,3.52,3.52,0,0,0-.95,2,2.76,2.76,0,0,0,.5.06h.45C143.62,64.53,144.71,64,144.71,63Z"/><path class="cls-1" d="M160.63,72.27a9.32,9.32,0,0,1-2.22.26,7.53,7.53,0,0,1-2.73-.49,6.88,6.88,0,0,1-2.15-1.35,5.77,5.77,0,0,1-1.41-2.07,7.08,7.08,0,0,1-.5-2.69,8.63,8.63,0,0,1,.45-2.84,6,6,0,0,1,1.36-2.24,6.37,6.37,0,0,1,2.27-1.45,8.87,8.87,0,0,1,3.14-.51,7.16,7.16,0,0,1,2.38.32,8.51,8.51,0,0,1,1.53.7L162,63.47l-.79-.38a4.64,4.64,0,0,0-.62-.28,2.69,2.69,0,0,0-.65-.16,7.2,7.2,0,0,0-.86,0,3.2,3.2,0,0,0-2.38.84,3.1,3.1,0,0,0-.84,2.29,3,3,0,0,0,.87,2.3,3.5,3.5,0,0,0,2.51.83,7.1,7.1,0,0,0,1.61-.19,9.61,9.61,0,0,0,1.64-.59l.28,3.37A10.46,10.46,0,0,1,160.63,72.27Z"/><path class="cls-1" d="M167.15,72.53V61.83h-2.73V58.89h2.73V55.44h4.06v3.45h3.51v2.94h-3.51v10.7Z"/><path class="cls-1" d="M187,68.74a3.92,3.92,0,0,1-1.31,3.1A5.42,5.42,0,0,1,182,73a15.3,15.3,0,0,1-3.15-.31,9.09,9.09,0,0,1-2.48-.84l.53-3.16a10.57,10.57,0,0,0,4.71,1.4,1.35,1.35,0,0,0,1-.3.93.93,0,0,0,.29-.66,1.21,1.21,0,0,0-.23-.76,3.66,3.66,0,0,0-1.13-.73,18.4,18.4,0,0,1-2.19-1.12,7.21,7.21,0,0,1-1.49-1.16,3.79,3.79,0,0,1-.83-1.29,4.16,4.16,0,0,1-.27-1.55,3.49,3.49,0,0,1,1.5-3,6.63,6.63,0,0,1,3.92-1.07,12.5,12.5,0,0,1,2.31.2,11.11,11.11,0,0,1,2.31.79l-.49,3.13a7.64,7.64,0,0,0-2.14-.85,9.8,9.8,0,0,0-2-.23,1.45,1.45,0,0,0-1,.26.94.94,0,0,0-.27.7,1,1,0,0,0,.43.85,8.33,8.33,0,0,0,1.65.85,19.64,19.64,0,0,1,1.88,1.07,7,7,0,0,1,1.27,1.06,3.29,3.29,0,0,1,.7,1.14A4.15,4.15,0,0,1,187,68.74Z"/></g></svg>