<svg xmlns="http://www.w3.org/2000/svg" viewBox="0 0 256 128"><defs><style>.cls-1{opacity:0.5;}.cls-2{fill:#fff800;}</style></defs><g id="Layer_37" data-name="Layer 37"><g class="cls-1"><path d="M104,59.23q0,13.51-6.52,20.89T77.18,87.5q-13,0-19.88-7.34T50.38,59.23a33.55,33.55,0,0,1,1.8-11.31,23.94,23.94,0,0,1,5.28-8.69A23.3,23.3,0,0,1,66,33.63a31.87,31.87,0,0,1,11.56-2,31.38,31.38,0,0,1,11.6,2,21.92,21.92,0,0,1,8.24,5.56,23.11,23.11,0,0,1,4.92,8.69A37,37,0,0,1,104,59.23Zm-13.76-.09q0-8.09-3.48-12.62A11.3,11.3,0,0,0,77.26,42a11.54,11.54,0,0,0-9.56,4.69,16.16,16.16,0,0,0-2.64,5.41,25.37,25.37,0,0,0-.92,7.06,28.62,28.62,0,0,0,1,7.7,19,19,0,0,0,2.68,5.87,12.05,12.05,0,0,0,4.12,3.73,11,11,0,0,0,5.36,1.3,10.84,10.84,0,0,0,5.36-1.33,12,12,0,0,0,4.08-3.78,18.83,18.83,0,0,0,2.6-5.87A29.58,29.58,0,0,0,90.22,59.14Z"/><path d="M144.54,87.5v-20a8,8,0,0,0-.52-3.23,4.61,4.61,0,0,0-1.24-1.74,3,3,0,0,0-1.52-.69,9.4,9.4,0,0,0-1.36-.12,7.76,7.76,0,0,0-1.68.31,5.74,5.74,0,0,0-2.44,1.46,10,10,0,0,0-2.2,3.4,15.5,15.5,0,0,0-1,6V87.5H122V64.23a39.87,39.87,0,0,0-.48-6.07,19.89,19.89,0,0,0-1.28-4.9h10.64a15,15,0,0,1,.68,1.84c.13.48.28,1.17.44,2.08a16.62,16.62,0,0,1,5.49-3.68,15.8,15.8,0,0,1,5.95-1.2,11.69,11.69,0,0,1,4.67.93,11.38,11.38,0,0,1,3.72,2.61A12.18,12.18,0,0,1,154.28,60a15.89,15.89,0,0,1,.9,5.49v22Z"/><path d="M205,62a9.13,9.13,0,0,1-1.42,5,12,12,0,0,1-4,3.8,22.19,22.19,0,0,1-6.23,2.44,34.51,34.51,0,0,1-8.15.88c-.28,0-.6,0-1,0s-.8,0-1.3,0a7.39,7.39,0,0,0,2.4,4.76,7.59,7.59,0,0,0,5.18,1.72,23.67,23.67,0,0,0,11.78-3.6v8.4a23.32,23.32,0,0,1-5.8,2.52,24.13,24.13,0,0,1-6.28.76,20.71,20.71,0,0,1-7.24-1.2,14.7,14.7,0,0,1-5.48-3.48,15.53,15.53,0,0,1-3.44-5.44,20.06,20.06,0,0,1-1.2-7.16,22.32,22.32,0,0,1,1.4-8,18.61,18.61,0,0,1,3.92-6.28,17.25,17.25,0,0,1,6-4.08A20.31,20.31,0,0,1,192,51.42q5.93,0,9.48,2.88A9.39,9.39,0,0,1,205,62Zm-10.64.8a2.79,2.79,0,0,0-1.1-2.2,4.16,4.16,0,0,0-2.76-.92A6.31,6.31,0,0,0,186,61.54a8.9,8.9,0,0,0-2.46,5.16,6.49,6.49,0,0,0,1.27.16H186Q194.38,66.86,194.38,62.78Z"/></g><path class="cls-2" d="M101,56.23q0,13.51-6.52,20.89T74.18,84.5q-13,0-19.88-7.34T47.38,56.23a33.55,33.55,0,0,1,1.8-11.31,23.94,23.94,0,0,1,5.28-8.69A23.3,23.3,0,0,1,63,30.63a31.87,31.87,0,0,1,11.56-2,31.38,31.38,0,0,1,11.6,2,21.92,21.92,0,0,1,8.24,5.56,23.11,23.11,0,0,1,4.92,8.69A37,37,0,0,1,101,56.23Zm-13.76-.09q0-8.09-3.48-12.62A11.3,11.3,0,0,0,74.26,39a11.54,11.54,0,0,0-9.56,4.69,16.16,16.16,0,0,0-2.64,5.41,25.37,25.37,0,0,0-.92,7.06,28.62,28.62,0,0,0,1,7.7,19,19,0,0,0,2.68,5.87,12.05,12.05,0,0,0,4.12,3.73,11,11,0,0,0,5.36,1.3,10.84,10.84,0,0,0,5.36-1.33,12,12,0,0,0,4.08-3.78,18.83,18.83,0,0,0,2.6-5.87A29.58,29.58,0,0,0,87.22,56.14Z"/><path class="cls-2" d="M141.54,84.5v-20a8,8,0,0,0-.52-3.23,4.61,4.61,0,0,0-1.24-1.74,3,3,0,0,0-1.52-.69,9.4,9.4,0,0,0-1.36-.12,7.76,7.76,0,0,0-1.68.31,5.74,5.74,0,0,0-2.44,1.46,10,10,0,0,0-2.2,3.4,15.5,15.5,0,0,0-1,6V84.5H119V61.23a39.87,39.87,0,0,0-.48-6.07,19.89,19.89,0,0,0-1.28-4.9h10.64a15,15,0,0,1,.68,1.84c.13.48.28,1.17.44,2.08a16.62,16.62,0,0,1,5.49-3.68,15.8,15.8,0,0,1,5.95-1.2,11.69,11.69,0,0,1,4.67.93,11.38,11.38,0,0,1,3.72,2.61A12.18,12.18,0,0,1,151.28,57a15.89,15.89,0,0,1,.9,5.49v22Z"/><path class="cls-2" d="M202,59a9.13,9.13,0,0,1-1.42,5,12,12,0,0,1-4,3.8,22.19,22.19,0,0,1-6.23,2.44,34.51,34.51,0,0,1-8.15.88c-.28,0-.6,0-1,0s-.8,0-1.3,0a7.39,7.39,0,0,0,2.4,4.76,7.59,7.59,0,0,0,5.18,1.72,23.67,23.67,0,0,0,11.78-3.6v8.4a23.32,23.32,0,0,1-5.8,2.52,24.13,24.13,0,0,1-6.28.76,20.71,20.71,0,0,1-7.24-1.2,14.7,14.7,0,0,1-5.48-3.48,15.53,15.53,0,0,1-3.44-5.44,20.06,20.06,0,0,1-1.2-7.16,22.32,22.32,0,0,1,1.4-8,18.61,18.61,0,0,1,3.92-6.28,17.25,17.25,0,0,1,6-4.08A20.31,20.31,0,0,1,189,48.42q5.93,0,9.48,2.88A9.39,9.39,0,0,1,202,59Zm-10.64.8a2.79,2.79,0,0,0-1.1-2.2,4.16,4.16,0,0,0-2.76-.92A6.31,6.31,0,0,0,183,58.54a8.9,8.9,0,0,0-2.46,5.16,6.49,6.49,0,0,0,1.27.16H183Q191.38,63.86,191.38,59.78Z"/></g></svg>