<svg xmlns="http://www.w3.org/2000/svg" viewBox="0 0 256 128"><defs><style>.cls-1{fill:#323232;}</style></defs><g id="_2_Trees" data-name="2 Trees"><path class="cls-1" d="M82.57,72.52l0-2.43c.64-.75,1.32-1.49,2-2.23l2.12-2.21c.71-.73,1.38-1.44,2-2.14a19.85,19.85,0,0,0,1.69-2.12,11.62,11.62,0,0,0,1.16-2.1,5.38,5.38,0,0,0,.44-2.1,2.29,2.29,0,0,0-.81-1.82,2.91,2.91,0,0,0-2-.7,3.38,3.38,0,0,0-1.51.33,3.89,3.89,0,0,0-1.14.86A6,6,0,0,0,85.78,57a11.26,11.26,0,0,0-.61,1.27l-3-2.16c.2-.47.46-1,.77-1.6a6.19,6.19,0,0,1,1.35-1.71,7.46,7.46,0,0,1,2.3-1.37,9.74,9.74,0,0,1,3.61-.56,8.79,8.79,0,0,1,2.73.4,6.26,6.26,0,0,1,2.13,1.17,5,5,0,0,1,1.36,1.83,5.94,5.94,0,0,1,.47,2.4A8.11,8.11,0,0,1,96,60.38a19.68,19.68,0,0,1-2.22,3.43,26.3,26.3,0,0,1-2.73,2.91c-1,.87-1.75,1.58-2.41,2.15h8.46v3.65Z"/><path class="cls-1" d="M111.43,72.52V61.83H108.7V58.89h2.73V55.44h4.06v3.45H119v2.94h-3.51V72.52Z"/><path class="cls-1" d="M130.81,62.7l-.69-.13a4.56,4.56,0,0,0-.55,0,3.18,3.18,0,0,0-2.69,1.21,5.94,5.94,0,0,0-.91,3.6v5.17h-4.12V63.57c0-.5,0-.94,0-1.32s0-.72-.08-1a7.55,7.55,0,0,0-.17-1c-.07-.31-.17-.67-.29-1.08h3.91l.18.65a3.61,3.61,0,0,1,.11.51q0,.24.06.51a4.11,4.11,0,0,1,0,.65,7,7,0,0,1,1.76-2,3.39,3.39,0,0,1,2-.58,3.06,3.06,0,0,1,.73.07c.19.06.47.16.82.31Z"/><path class="cls-1" d="M144.54,62.64a3.58,3.58,0,0,1-.55,1.92A4.61,4.61,0,0,1,142.43,66,8.72,8.72,0,0,1,140,67a13.91,13.91,0,0,1-3.16.34l-.38,0H136a2.87,2.87,0,0,0,.93,1.84,3,3,0,0,0,2,.67,9.15,9.15,0,0,0,4.56-1.4v3.26a8.79,8.79,0,0,1-2.24,1,9.32,9.32,0,0,1-2.44.3,8,8,0,0,1-2.8-.47,5.71,5.71,0,0,1-2.13-1.35,6.07,6.07,0,0,1-1.33-2.1,7.79,7.79,0,0,1-.46-2.78,8.64,8.64,0,0,1,.54-3.11,7.25,7.25,0,0,1,1.52-2.44,6.68,6.68,0,0,1,2.34-1.58,7.91,7.91,0,0,1,3-.56,5.7,5.7,0,0,1,3.67,1.12A3.64,3.64,0,0,1,144.54,62.64Zm-4.12.31a1.11,1.11,0,0,0-.43-.86,1.64,1.64,0,0,0-1.07-.35,2.44,2.44,0,0,0-1.77.73,3.4,3.4,0,0,0-1,2,2.67,2.67,0,0,0,.49.06h.46C139.33,64.53,140.42,64,140.42,63Z"/><path class="cls-1" d="M159.76,62.64a3.49,3.49,0,0,1-.55,1.92A4.61,4.61,0,0,1,157.65,66a8.72,8.72,0,0,1-2.41,1,13.85,13.85,0,0,1-3.16.34l-.37,0h-.51a2.87,2.87,0,0,0,.93,1.84,3,3,0,0,0,2,.67,9.22,9.22,0,0,0,4.57-1.4v3.26a9,9,0,0,1-2.25,1,9.32,9.32,0,0,1-2.44.3,8,8,0,0,1-2.8-.47,5.71,5.71,0,0,1-2.13-1.35,6.07,6.07,0,0,1-1.33-2.1,7.79,7.79,0,0,1-.46-2.78,8.64,8.64,0,0,1,.54-3.11,7.25,7.25,0,0,1,1.52-2.44,6.68,6.68,0,0,1,2.34-1.58,7.91,7.91,0,0,1,3-.56,5.68,5.68,0,0,1,3.67,1.12A3.64,3.64,0,0,1,159.76,62.64Zm-4.12.31a1.11,1.11,0,0,0-.43-.86,1.64,1.64,0,0,0-1.07-.35,2.44,2.44,0,0,0-1.77.73,3.46,3.46,0,0,0-1,2,2.67,2.67,0,0,0,.49.06h.46C154.55,64.53,155.64,64,155.64,63Z"/><path class="cls-1" d="M173,68.74a3.89,3.89,0,0,1-1.31,3.1A5.4,5.4,0,0,1,168,73a15.3,15.3,0,0,1-3.15-.31,9.44,9.44,0,0,1-2.48-.84l.53-3.16a10.61,10.61,0,0,0,4.71,1.4,1.34,1.34,0,0,0,1-.3.93.93,0,0,0,.29-.67,1.25,1.25,0,0,0-.23-.76,3.74,3.74,0,0,0-1.13-.72,18.4,18.4,0,0,1-2.19-1.12,7.49,7.49,0,0,1-1.49-1.16,3.79,3.79,0,0,1-.83-1.29,4.16,4.16,0,0,1-.27-1.55,3.49,3.49,0,0,1,1.5-3,6.63,6.63,0,0,1,3.92-1.07,12.5,12.5,0,0,1,2.31.2,11.11,11.11,0,0,1,2.31.79l-.49,3.13a7.59,7.59,0,0,0-2.13-.85,9.89,9.89,0,0,0-2-.23,1.45,1.45,0,0,0-1,.26,1,1,0,0,0-.26.7,1,1,0,0,0,.42.85,9,9,0,0,0,1.65.85,21.27,21.27,0,0,1,1.89,1.07,6.57,6.57,0,0,1,1.26,1.06,3.33,3.33,0,0,1,.71,1.14A4.45,4.45,0,0,1,173,68.74Z"/></g></svg>