<svg xmlns="http://www.w3.org/2000/svg" viewBox="0 0 256 128"><defs><style>.cls-1{fill:#323232;}</style></defs><g id="_2_Birds" data-name="2 Birds"><path class="cls-1" d="M81.11,72.52l0-2.43c.65-.75,1.32-1.49,2-2.23l2.13-2.21c.7-.73,1.37-1.44,2-2.14A18.67,18.67,0,0,0,89,61.39a11.69,11.69,0,0,0,1.17-2.1,5.37,5.37,0,0,0,.43-2.1,2.29,2.29,0,0,0-.81-1.82,2.89,2.89,0,0,0-2-.7,3.31,3.31,0,0,0-1.5.33,3.81,3.81,0,0,0-1.15.86A6.48,6.48,0,0,0,84.32,57a9.67,9.67,0,0,0-.6,1.27l-3-2.16c.21-.47.47-1,.78-1.6a6.19,6.19,0,0,1,1.35-1.71,7.4,7.4,0,0,1,2.29-1.37,9.74,9.74,0,0,1,3.61-.56,8.79,8.79,0,0,1,2.73.4,6.26,6.26,0,0,1,2.13,1.17A4.93,4.93,0,0,1,95,54.29a5.78,5.78,0,0,1,.48,2.4,8.12,8.12,0,0,1-.92,3.69,20.22,20.22,0,0,1-2.21,3.43,26.3,26.3,0,0,1-2.73,2.91c-1,.87-1.76,1.58-2.42,2.15h8.46v3.65Z"/><path class="cls-1" d="M122.65,64.72a9.32,9.32,0,0,1-.53,3.21,6.8,6.8,0,0,1-3.93,4,8.32,8.32,0,0,1-3.11.55A15.45,15.45,0,0,1,112,72.2a13.85,13.85,0,0,1-2.91-.88v-20h4.12v9.2A4.9,4.9,0,0,1,115,59.28a6.27,6.27,0,0,1,2.26-.39,5.77,5.77,0,0,1,2.22.41,4.81,4.81,0,0,1,1.72,1.18,5.37,5.37,0,0,1,1.1,1.84A6.94,6.94,0,0,1,122.65,64.72Zm-4.12.75a2.75,2.75,0,0,0-.62-1.9,2.25,2.25,0,0,0-1.76-.69,3,3,0,0,0-1.25.26,2.91,2.91,0,0,0-.94.68,3,3,0,0,0-.59,1,3.33,3.33,0,0,0-.2,1.18v2.36a4.2,4.2,0,0,0,1,.36,5.72,5.72,0,0,0,1.13.09,3.19,3.19,0,0,0,2.39-.89A3.35,3.35,0,0,0,118.53,65.47Z"/><path class="cls-1" d="M131.33,55.14a1.72,1.72,0,0,1-.71,1.38,2.64,2.64,0,0,1-1.7.57,2.68,2.68,0,0,1-1.74-.58,1.89,1.89,0,0,1-.75-1.42,1.67,1.67,0,0,1,.69-1.42,2.72,2.72,0,0,1,1.8-.58,2.65,2.65,0,0,1,.91.16,2.3,2.3,0,0,1,.77.43,2,2,0,0,1,.53.66A1.61,1.61,0,0,1,131.33,55.14Zm-4.65,17.38V58.89h4.13V72.52Z"/><path class="cls-1" d="M144.82,62.7l-.68-.13a4.86,4.86,0,0,0-.56,0,3.15,3.15,0,0,0-2.68,1.21,5.93,5.93,0,0,0-.92,3.6v5.17h-4.12V63.57c0-.5,0-.94,0-1.32s0-.72-.07-1-.1-.64-.18-1-.17-.67-.29-1.08h3.91l.18.65a3.61,3.61,0,0,1,.11.51c0,.16,0,.33.07.51a6,6,0,0,1,0,.65,7.18,7.18,0,0,1,1.76-2,3.39,3.39,0,0,1,2-.58,3.06,3.06,0,0,1,.73.07c.19.06.47.16.82.31Z"/><path class="cls-1" d="M156.79,72.52a3.51,3.51,0,0,1-.07-.43c0-.14,0-.31-.06-.49s0-.42-.07-.69a5.57,5.57,0,0,1-2.05,1.54,6.33,6.33,0,0,1-2.45.45,6.08,6.08,0,0,1-2.47-.48,5.33,5.33,0,0,1-1.88-1.34A5.93,5.93,0,0,1,146.52,69a7.89,7.89,0,0,1-.43-2.7,9.3,9.3,0,0,1,.51-3.13A7.48,7.48,0,0,1,148,60.73a6.23,6.23,0,0,1,2.18-1.61,6.61,6.61,0,0,1,2.79-.58,8.66,8.66,0,0,1,1.37.1,7.42,7.42,0,0,1,1.51.4V50.92H160V67.81c0,.35,0,.8,0,1.34s.07,1,.11,1.55.09,1.18.16,1.82Zm-.91-9.95a5,5,0,0,0-1.14-.31,9.92,9.92,0,0,0-1.11-.06,3.14,3.14,0,0,0-2.5,1.07,4.36,4.36,0,0,0-.92,2.93,3.16,3.16,0,0,0,.65,2.12,2.19,2.19,0,0,0,1.77.76,3.8,3.8,0,0,0,1.27-.21,2.43,2.43,0,0,0,1-.75,4.06,4.06,0,0,0,.7-1.38,7.46,7.46,0,0,0,.25-2.12Z"/><path class="cls-1" d="M174.42,68.74a3.92,3.92,0,0,1-1.31,3.1A5.42,5.42,0,0,1,169.42,73a15.3,15.3,0,0,1-3.15-.31,9.44,9.44,0,0,1-2.48-.84l.53-3.16a10.54,10.54,0,0,0,4.71,1.4,1.31,1.31,0,0,0,1-.3.91.91,0,0,0,.3-.67,1.25,1.25,0,0,0-.23-.76,3.83,3.83,0,0,0-1.14-.72,19,19,0,0,1-2.18-1.12,7.21,7.21,0,0,1-1.49-1.16,4,4,0,0,1-.84-1.29,4.38,4.38,0,0,1-.26-1.55,3.49,3.49,0,0,1,1.5-3,6.61,6.61,0,0,1,3.92-1.07,12.31,12.31,0,0,1,2.3.2,11,11,0,0,1,2.32.79l-.49,3.13a7.76,7.76,0,0,0-2.14-.85,9.87,9.87,0,0,0-2-.23,1.45,1.45,0,0,0-1,.26.94.94,0,0,0-.27.7,1,1,0,0,0,.43.85,8.33,8.33,0,0,0,1.65.85,21,21,0,0,1,1.88,1.07,6.65,6.65,0,0,1,1.27,1.06,3.29,3.29,0,0,1,.7,1.14A4.15,4.15,0,0,1,174.42,68.74Z"/></g></svg>