<svg id="_1_Train_engine" data-name="1 Train engine" xmlns="http://www.w3.org/2000/svg" viewBox="0 0 256 128"><defs><style>.cls-1{fill:#323232;}</style></defs><path class="cls-1" d="M76.06,72.52V55.62c-.41.48-.81.91-1.18,1.29s-.77.79-1.21,1.22l-2-2.79c.62-.53,1.22-1.07,1.8-1.61s1-.93,1.51-1.45a18.13,18.13,0,0,0,1.28-1.39h4V72.52Z"/><path class="cls-1" d="M109.14,62.64a3.58,3.58,0,0,1-.55,1.92A4.61,4.61,0,0,1,107,66a8.72,8.72,0,0,1-2.41,1,13.91,13.91,0,0,1-3.16.34l-.38,0h-.5a2.87,2.87,0,0,0,.93,1.84,3,3,0,0,0,2,.67,9.18,9.18,0,0,0,4.56-1.4v3.26a8.79,8.79,0,0,1-2.24,1,9.32,9.32,0,0,1-2.44.3,8,8,0,0,1-2.8-.47,5.71,5.71,0,0,1-2.13-1.35A5.93,5.93,0,0,1,97.14,69a7.79,7.79,0,0,1-.47-2.78,8.64,8.64,0,0,1,.55-3.11,7.25,7.25,0,0,1,1.52-2.44,6.68,6.68,0,0,1,2.34-1.58,7.89,7.89,0,0,1,3-.56,5.71,5.71,0,0,1,3.68,1.12A3.64,3.64,0,0,1,109.14,62.64ZM105,63a1.1,1.1,0,0,0-.42-.86,1.64,1.64,0,0,0-1.07-.35,2.44,2.44,0,0,0-1.77.73,3.4,3.4,0,0,0-1,2,2.67,2.67,0,0,0,.49.06h.46C103.93,64.53,105,64,105,63Z"/><path class="cls-1" d="M121.32,72.52V64.78a3.23,3.23,0,0,0-.2-1.25,1.9,1.9,0,0,0-.48-.67,1.26,1.26,0,0,0-.59-.27,3.87,3.87,0,0,0-.53-.05,3.13,3.13,0,0,0-.65.12,2.31,2.31,0,0,0-1,.57,3.91,3.91,0,0,0-.85,1.32,5.94,5.94,0,0,0-.37,2.33v5.64h-4.12v-9a14.59,14.59,0,0,0-.19-2.35,7.7,7.7,0,0,0-.49-1.9H116a6,6,0,0,1,.26.71c0,.19.11.45.17.81a6.5,6.5,0,0,1,2.13-1.43,6.14,6.14,0,0,1,2.31-.46,4.45,4.45,0,0,1,1.8.36,4.35,4.35,0,0,1,1.45,1,4.6,4.6,0,0,1,1,1.6,5.93,5.93,0,0,1,.35,2.12v8.54Z"/><path class="cls-1" d="M143.45,73a14.4,14.4,0,0,1-.52,4.2,7.3,7.3,0,0,1-1.42,2.71,5.21,5.21,0,0,1-2.14,1.47,7.79,7.79,0,0,1-2.69.45,21.63,21.63,0,0,1-2.76-.17,9.8,9.8,0,0,1-2.61-.66V77.83a17.63,17.63,0,0,0,2.37.66,10.06,10.06,0,0,0,2,.24,3.45,3.45,0,0,0,1.48-.32,2.86,2.86,0,0,0,1.16-1,5,5,0,0,0,.74-1.8,11.56,11.56,0,0,0,.27-2.69V71.56a4.61,4.61,0,0,1-1.77,1,7,7,0,0,1-1.92.23,6.11,6.11,0,0,1-2.42-.46,5.17,5.17,0,0,1-1.84-1.3,5.9,5.9,0,0,1-1.18-2,8,8,0,0,1-.42-2.65,7.84,7.84,0,0,1,.65-3.24,7,7,0,0,1,1.83-2.47,8.24,8.24,0,0,1,2.9-1.56,12.6,12.6,0,0,1,3.83-.55l1.16,0c.34,0,.67,0,1,.08s.67.1,1,.17.79.17,1.27.29ZM139.33,62.6l-.81-.12a7,7,0,0,0-.72,0,4,4,0,0,0-2.86,1,3.67,3.67,0,0,0-1,2.77,2.64,2.64,0,0,0,.68,2,2.35,2.35,0,0,0,1.71.68,4.7,4.7,0,0,0,1.12-.13,2,2,0,0,0,1-.55,3.12,3.12,0,0,0,.69-1.26,7.79,7.79,0,0,0,.25-2.22Z"/><path class="cls-1" d="M152.72,55.14a1.72,1.72,0,0,1-.71,1.38,2.86,2.86,0,0,1-3.44,0,1.86,1.86,0,0,1-.75-1.42,1.67,1.67,0,0,1,.69-1.42,2.71,2.71,0,0,1,1.79-.58,2.66,2.66,0,0,1,.92.16,2.3,2.3,0,0,1,.77.43,2,2,0,0,1,.53.66A1.72,1.72,0,0,1,152.72,55.14Zm-4.65,17.38V58.89h4.13V72.52Z"/><path class="cls-1" d="M165.68,72.52V64.78a3.23,3.23,0,0,0-.2-1.25,1.9,1.9,0,0,0-.48-.67,1.22,1.22,0,0,0-.59-.27,3.87,3.87,0,0,0-.53-.05,3.13,3.13,0,0,0-.65.12,2.22,2.22,0,0,0-.94.57,3.77,3.77,0,0,0-.86,1.32,5.94,5.94,0,0,0-.37,2.33v5.64h-4.12v-9a14.59,14.59,0,0,0-.19-2.35,7.7,7.7,0,0,0-.49-1.9h4.12a6,6,0,0,1,.26.71c.05.19.11.45.17.81a6.5,6.5,0,0,1,2.13-1.43,6.14,6.14,0,0,1,2.31-.46,4.49,4.49,0,0,1,1.8.36,4.35,4.35,0,0,1,1.45,1,4.6,4.6,0,0,1,.95,1.6A5.93,5.93,0,0,1,169.8,64v8.54Z"/><path class="cls-1" d="M186.63,62.64a3.49,3.49,0,0,1-.55,1.92A4.48,4.48,0,0,1,184.53,66a8.79,8.79,0,0,1-2.42,1,13.85,13.85,0,0,1-3.16.34l-.37,0h-.5a2.87,2.87,0,0,0,.93,1.84,3,3,0,0,0,2,.67,9.19,9.19,0,0,0,4.57-1.4v3.26a8.7,8.7,0,0,1-2.25,1,9.19,9.19,0,0,1-2.43.3,8.08,8.08,0,0,1-2.81-.47A5.75,5.75,0,0,1,176,71.11a5.93,5.93,0,0,1-1.33-2.1,7.79,7.79,0,0,1-.47-2.78,8.43,8.43,0,0,1,.55-3.11,7.23,7.23,0,0,1,1.51-2.44,6.81,6.81,0,0,1,2.35-1.58,7.86,7.86,0,0,1,3-.56,5.71,5.71,0,0,1,3.68,1.12A3.66,3.66,0,0,1,186.63,62.64Zm-4.12.31a1.1,1.1,0,0,0-.42-.86,1.66,1.66,0,0,0-1.07-.35,2.44,2.44,0,0,0-1.77.73,3.4,3.4,0,0,0-.95,2,2.58,2.58,0,0,0,.49.06h.46C181.42,64.53,182.51,64,182.51,63Z"/></svg>