<svg id="Layer_1" data-name="Layer 1" xmlns="http://www.w3.org/2000/svg" width="291.09" height="91.74" viewBox="0 0 291.09 91.74">
  <defs>
    <style>
      .cls-1 {
        fill: #193a43;
      }
    </style>
  </defs>
  <g>
    <path class="cls-1" d="M81.65,45.7a12.35,12.35,0,0,0,2.87-2.44,12.64,12.64,0,0,0,3.26-10.39c-.77-4.8-4.49-8.52-9.08-10.09-3.13-1.07-7.66-.71-9.39,1l-1,.93a12.73,12.73,0,0,0,2.84-9.21A12.65,12.65,0,0,0,66,5.91c-4-2.78-9.24-2.69-13.56-.47-2.95,1.51-5.83,5-5.83,7.42,0-2.4-2.89-5.91-5.83-7.42-4.32-2.22-9.58-2.31-13.57.47A12.6,12.6,0,0,0,22,15.46,12.77,12.77,0,0,0,25.72,25.7L27,26.93l-3.36-3.24c-1.72-1.66-6.32-1.9-9.54-.72-4.73,1.74-8.63,5.65-9.54,10.57a12.36,12.36,0,0,0,3,10.52,11.94,11.94,0,0,0,7.11,4c-2.4-.18-6.12,2.23-7.92,4.94-2.7,4-3.39,9.26-1.09,13.53a12.65,12.65,0,0,0,8.9,6.28,12.8,12.8,0,0,0,10.59-2.57l3.36-2.66-.36.36a12.82,12.82,0,0,0-3.77,10.24,12.67,12.67,0,0,0,5.22,9.56c4,2.77,9.24,2.68,13.57.46,2.94-1.5,5.82-5,5.82-7.42,0,2.41,2.89,5.92,5.83,7.42,4.32,2.22,9.58,2.31,13.57-.46a12.62,12.62,0,0,0,5.21-9.56A12.77,12.77,0,0,0,69.82,68l-2-2,2.44,1.92a12.8,12.8,0,0,0,10.61,2.52,12.65,12.65,0,0,0,8.87-6.32c2.28-4.29,1.57-9.5-1.15-13.52A12.06,12.06,0,0,0,81.65,45.7Z"/>
    <path class="cls-1" d="M280.15,45.7A12.35,12.35,0,0,0,283,43.26a12.64,12.64,0,0,0,3.26-10.39c-.77-4.8-4.49-8.52-9.08-10.09-3.13-1.07-7.66-.71-9.39,1l-1,.93a12.73,12.73,0,0,0,2.84-9.21,12.65,12.65,0,0,0-5.22-9.55c-4-2.78-9.24-2.69-13.57-.47-2.94,1.51-5.82,5-5.82,7.42,0-2.4-2.89-5.91-5.83-7.42-4.32-2.22-9.58-2.31-13.57.47a12.6,12.6,0,0,0-5.21,9.55,12.77,12.77,0,0,0,3.76,10.24l1.23,1.23-3.36-3.24c-1.72-1.66-6.32-1.9-9.55-.72-4.73,1.74-8.62,5.65-9.54,10.57a12.4,12.4,0,0,0,3,10.52,11.92,11.92,0,0,0,7.1,4c-2.39-.18-6.11,2.23-7.91,4.94-2.7,4-3.39,9.26-1.09,13.53a12.65,12.65,0,0,0,8.9,6.28,12.81,12.81,0,0,0,10.59-2.57L227,67.59l-.37.36a12.84,12.84,0,0,0-3.76,10.24,12.67,12.67,0,0,0,5.22,9.56c4,2.77,9.24,2.68,13.57.46,2.94-1.5,5.82-5,5.82-7.42,0,2.41,2.89,5.92,5.83,7.42,4.32,2.22,9.58,2.31,13.57-.46a12.62,12.62,0,0,0,5.21-9.56A12.77,12.77,0,0,0,268.32,68l-2-2,2.44,1.92a12.8,12.8,0,0,0,10.61,2.52,12.65,12.65,0,0,0,8.87-6.32c2.28-4.29,1.57-9.5-1.15-13.52A12.06,12.06,0,0,0,280.15,45.7Z"/>
    <path class="cls-1" d="M180.9,45.7a12.35,12.35,0,0,0,2.87-2.44A12.64,12.64,0,0,0,187,32.87c-.77-4.8-4.49-8.52-9.08-10.09-3.13-1.07-7.66-.71-9.39,1l-1,.93a12.73,12.73,0,0,0,2.84-9.21,12.65,12.65,0,0,0-5.22-9.55c-4-2.78-9.24-2.69-13.57-.47-2.94,1.51-5.82,5-5.82,7.42,0-2.4-2.89-5.91-5.83-7.42-4.32-2.22-9.58-2.31-13.57.47a12.6,12.6,0,0,0-5.21,9.55A12.77,12.77,0,0,0,125,25.7l1.23,1.23-3.36-3.24c-1.72-1.66-6.32-1.9-9.54-.72-4.73,1.74-8.63,5.65-9.54,10.57a12.36,12.36,0,0,0,3,10.52,11.92,11.92,0,0,0,7.1,4c-2.39-.18-6.11,2.23-7.91,4.94-2.7,4-3.39,9.26-1.09,13.53a12.65,12.65,0,0,0,8.9,6.28,12.81,12.81,0,0,0,10.59-2.57l3.36-2.66-.37.36a12.84,12.84,0,0,0-3.76,10.24,12.67,12.67,0,0,0,5.22,9.56c4,2.77,9.24,2.68,13.57.46,2.94-1.5,5.82-5,5.82-7.42,0,2.41,2.89,5.92,5.83,7.42,4.32,2.22,9.58,2.31,13.57-.46a12.62,12.62,0,0,0,5.21-9.56A12.77,12.77,0,0,0,169.07,68l-2-2,2.44,1.92a12.8,12.8,0,0,0,10.61,2.52A12.65,12.65,0,0,0,189,64.07c2.28-4.29,1.57-9.5-1.15-13.52A12.06,12.06,0,0,0,180.9,45.7Z"/>
  </g>
</svg>
