<svg id="Layer_1" data-name="Layer 1" xmlns="http://www.w3.org/2000/svg" width="92.81" height="89.49" viewBox="0 0 92.81 89.49">
  <defs>
    <style>
      .cls-1 {
        fill: #193a43;
      }
    </style>
  </defs>
  <path class="cls-1" d="M81.65,43.44A12.35,12.35,0,0,0,84.52,41a12.64,12.64,0,0,0,3.26-10.39C87,25.82,83.29,22.1,78.7,20.52c-3.13-1.07-7.66-.71-9.39,1l-1,.94a12.74,12.74,0,0,0,2.84-9.21A12.67,12.67,0,0,0,66,3.65C62,.88,56.72,1,52.4,3.18c-2.95,1.51-5.83,5-5.83,7.43,0-2.41-2.89-5.92-5.83-7.43C36.42,1,31.16.88,27.17,3.65A12.62,12.62,0,0,0,22,13.21a12.75,12.75,0,0,0,3.76,10.23L27,24.67l-3.36-3.24c-1.72-1.65-6.32-1.89-9.54-.71-4.73,1.73-8.63,5.64-9.54,10.56a12.35,12.35,0,0,0,3,10.52,12,12,0,0,0,7.11,4c-2.4-.19-6.12,2.23-7.92,4.94C4,54.8,3.34,60,5.64,64.29a12.66,12.66,0,0,0,8.9,6.27A12.76,12.76,0,0,0,25.13,68l3.36-2.67-.36.37a12.79,12.79,0,0,0-3.77,10.23,12.67,12.67,0,0,0,5.22,9.56c4,2.78,9.24,2.69,13.57.47,2.94-1.51,5.82-5,5.82-7.42,0,2.4,2.89,5.91,5.83,7.42,4.32,2.22,9.58,2.31,13.57-.47a12.62,12.62,0,0,0,5.21-9.56A12.75,12.75,0,0,0,69.82,65.7l-2-2,2.44,1.92a12.8,12.8,0,0,0,10.61,2.51,12.63,12.63,0,0,0,8.87-6.31c2.28-4.29,1.57-9.5-1.15-13.53A12.06,12.06,0,0,0,81.65,43.44Z"/>
</svg>
