<svg id="Layer_1" data-name="Layer 1" xmlns="http://www.w3.org/2000/svg" width="89.53" height="88.51" viewBox="0 0 89.53 88.51">
  <defs>
    <style>
      .cls-1 {
        fill: #ffd504;
        stroke: #937807;
        stroke-width: 0.25px;
      }

      .cls-1, .cls-2 {
        stroke-miterlimit: 10;
      }

      .cls-2 {
        fill: #f6931d;
        stroke: #ad6210;
        stroke-width: 0.5px;
      }

      .cls-3 {
        fill: #7f4709;
      }
    </style>
  </defs>
  <g>
    <g>
      <path class="cls-1" d="M32.13,32.11l-8.82-8.82a12.82,12.82,0,0,1-3.76-10.23A12.67,12.67,0,0,1,24.77,3.5C28.75.73,34,.81,38.33,3c3,1.51,5.83,5,5.83,7.43V27.3Z"/>
      <path class="cls-1" d="M56.19,32.11,65,23.29a12.75,12.75,0,0,0,3.76-10.23A12.62,12.62,0,0,0,63.56,3.5,13.23,13.23,0,0,0,50,3c-2.94,1.51-5.83,5-5.83,7.43V27.3Z"/>
      <path class="cls-1" d="M59.66,45l12.47.23a12.8,12.8,0,0,0,10-4.4,12.64,12.64,0,0,0,3.26-10.39c-.77-4.79-4.48-8.51-9.08-10.09-3.13-1.07-7.66-.71-9.39,1L54.78,33Z"/>
      <path class="cls-1" d="M58.05,57.76l9.81,7.71A12.78,12.78,0,0,0,78.47,68a12.62,12.62,0,0,0,8.86-6.31c2.28-4.29,1.57-9.5-1.15-13.53-1.84-2.74-5.67-5.19-8.06-4.9l-16.72,2Z"/>
      <path class="cls-1" d="M29.13,46.8l-13.95-.94a12.32,12.32,0,0,1-10-4.21,12.35,12.35,0,0,1-3-10.52C3,26.21,6.91,22.3,11.64,20.57c3.22-1.18,7.83-.94,9.54.71l12,11.61Z"/>
      <path class="cls-1" d="M32.5,60.1l-9.77,7.75a12.79,12.79,0,0,1-10.6,2.56,12.66,12.66,0,0,1-8.9-6.27c-2.3-4.28-1.61-9.49,1.09-13.53,1.84-2.76,5.65-5.22,8-4.94l17.37.88Z"/>
      <path class="cls-1" d="M34.54,56.73l-8.82,8.82A12.75,12.75,0,0,0,22,75.78a12.62,12.62,0,0,0,5.21,9.56c4,2.78,9.25,2.69,13.57.47,2.94-1.51,5.83-5,5.83-7.43V61.54Z"/>
      <path class="cls-1" d="M58.6,56.73l8.82,8.82a12.82,12.82,0,0,1,3.76,10.23A12.67,12.67,0,0,1,66,85.34c-4,2.78-9.24,2.69-13.56.47-2.95-1.51-5.83-5-5.83-7.43V61.54Z"/>
    </g>
    <g>
      <circle class="cls-2" cx="45.36" cy="45.34" r="18.05"/>
      <g>
        <circle class="cls-3" cx="39.35" cy="41.73" r="2.41"/>
        <circle class="cls-3" cx="51.38" cy="41.73" r="2.41"/>
        <path class="cls-3" d="M36.94,49.67s8.35,7.93,16.21,0C53.15,49.67,46.57,62.42,36.94,49.67Z"/>
      </g>
    </g>
  </g>
</svg>
