<svg id="Layer_1" data-name="Layer 1" xmlns="http://www.w3.org/2000/svg" viewBox="0 0 512 512"><defs><style>.cls-1{fill:#fff;}</style></defs><path class="cls-1" d="M385.13,266.81c-9.51-34.29-30-62.36-60.82-83.45C299.67,166.52,273.58,158,246.75,158a124,124,0,0,0-41.2,7V135.26H345.17a38.71,38.71,0,0,0,0-77.41h-179a38,38,0,0,0-38,38v31.42l.08,8v98.5a33.43,33.43,0,0,0,33.4,33.4h7.64a36.38,36.38,0,0,0,26.06-11c17.88-13.21,34.92-19.91,50.65-19.91,37.86,0,58.87,39.48,61.17,44.07,7,23.08,6.11,43.09-2.68,59.48-12.85,23.93-38.93,33.18-42.65,34.4a146.09,146.09,0,0,1-19.87,1.52h0c-28.68,0-39.18-11-48.43-20.62-2-2.08-3.88-4-5.89-5.85-7.55-6.77-15.88-10.21-24.74-10.21s-18.23,3.6-27.43,10.7c-8.93,6.89-13.74,15.77-13.93,25.67-.28,15.48,10.88,32.73,33.16,51.25,28.49,23.69,70.1,27.23,92.37,27.23h0a170.77,170.77,0,0,0,17.43-.78l.39,0,.38-.08c44.46-9.43,78.09-30.56,99.94-62.8,17.64-26,22.19-51.62,23.9-61.26C390.3,322.05,393.61,297.36,385.13,266.81Zm-3.91,60.68c-3.46,19.46-17.73,96.44-117.63,117.63,0,0-65.3,7.36-103.79-24.65S125.2,367.71,140.34,356s29.4-12.11,41.94-.87,24.65,35,81.31,26.81c0,0,76.54-22.05,51-104.65,0,0-41.54-89.17-124.61-27.22a28.2,28.2,0,0,1-20.74,9.05h-7.64a25.4,25.4,0,0,1-25.4-25.4V127.26h-.08V95.84a30,30,0,0,1,30-30h179a30.7,30.7,0,0,1,30.7,30.71h0a30.7,30.7,0,0,1-30.7,30.7H197.56V177c14.27-7,64.56-26.45,122.25,13C388.14,236.68,384.68,308,381.22,327.49Z"/></svg>