<svg id="Layer_1" data-name="Layer 1" xmlns="http://www.w3.org/2000/svg" viewBox="0 0 512 512"><defs><style>.cls-1{fill:#ff0;isolation:isolate;}</style></defs><path class="cls-1" d="M384.58,274.81c-9.51-34.29-30-62.36-60.82-83.45C299.12,174.52,273,166,246.2,166a123.93,123.93,0,0,0-41.2,7V143.26H344.61a38.71,38.71,0,1,0,0-77.41h-179a38,38,0,0,0-38,38v31.42l.07,8v98.5a33.44,33.44,0,0,0,33.41,33.4h7.64a36.4,36.4,0,0,0,26.06-11c17.87-13.21,34.91-19.91,50.64-19.91,37.87,0,58.87,39.48,61.18,44.07,7,23.08,6.11,43.09-2.69,59.48-12.85,23.93-38.93,33.18-42.65,34.4a145.85,145.85,0,0,1-19.87,1.52h0c-28.69,0-39.18-11-48.44-20.62-2-2.08-3.87-4-5.88-5.85C179.5,350.44,171.17,347,162.31,347s-18.22,3.6-27.43,10.7c-8.92,6.89-13.74,15.77-13.92,25.67-.28,15.48,10.87,32.73,33.16,51.25,28.49,23.69,70.1,27.23,92.36,27.23h0a171.33,171.33,0,0,0,17.44-.78l.38,0,.38-.08c44.47-9.43,78.09-30.56,99.94-62.8,17.65-26,22.2-51.62,23.91-61.26C389.75,330.05,393.05,305.36,384.58,274.81Zm-3.93,60.68C377.19,355,362.92,431.93,263,453.12c0,0-65.3,7.36-103.79-24.65s-34.6-52.76-19.46-64.43,29.41-12.11,41.95-.87,24.65,35,81.3,26.81c0,0,76.55-22.05,51-104.65,0,0-41.53-89.17-124.61-27.22a28.17,28.17,0,0,1-20.73,9.05h-7.64a25.41,25.41,0,0,1-25.41-25.4V135.26h-.07V103.84a30,30,0,0,1,30-30h179a30.71,30.71,0,0,1,30.71,30.71h0a30.71,30.71,0,0,1-30.71,30.7H197V185c14.26-7,64.55-26.45,122.24,13C387.57,244.68,384.11,316,380.65,335.49Z"/></svg>