<svg id="Layer_1" data-name="Layer 1" xmlns="http://www.w3.org/2000/svg" viewBox="0 0 512 512"><defs><style>.cls-1{fill:#0267ff;}</style></defs><path class="cls-1" d="M319.25,198.25c-57.69-39.43-108-20-122.24-13V135.55H344.62a30.71,30.71,0,0,0,30.71-30.71h0a30.7,30.7,0,0,0-30.71-30.7h-179a30,30,0,0,0-30,30v31.43h.07V242a25.41,25.41,0,0,0,25.41,25.41h7.64a28.18,28.18,0,0,0,20.73-9.06c83.08-61.95,124.61,27.22,124.61,27.22,25.52,82.6-51,104.66-51,104.66-56.65,8.21-68.76-15.57-81.3-26.82s-26.81-10.81-41.95.87-19,32.43,19.46,64.44S263,453.41,263,453.41c99.9-21.19,114.17-98.17,117.63-117.63S387.58,245,319.25,198.25Z"/></svg>