<svg id="Layer_1" data-name="Layer 1" xmlns="http://www.w3.org/2000/svg" viewBox="0 0 512 512"><defs><style>.cls-1{fill:#92ff9f;}</style></defs><path class="cls-1" d="M384.58,266.82c-9.51-34.29-30-62.36-60.82-83.44C299.12,166.53,273,158,246.2,158a123.93,123.93,0,0,0-41.2,7V135.27H344.61a38.71,38.71,0,1,0,0-77.41h-179a38,38,0,0,0-38,38v31.42l.07,8v98.5a33.44,33.44,0,0,0,33.41,33.4h7.64a36.4,36.4,0,0,0,26.06-11c17.87-13.21,34.91-19.91,50.64-19.91,37.87,0,58.87,39.48,61.18,44.07,7,23.08,6.11,43.09-2.69,59.48C291.05,363.7,265,373,261.25,374.17a144.27,144.27,0,0,1-19.87,1.52h0c-28.69,0-39.18-11-48.44-20.62-2-2.08-3.87-4-5.88-5.85C179.5,342.45,171.17,339,162.31,339s-18.22,3.6-27.43,10.7C126,356.6,121.14,365.48,121,375.38c-.28,15.48,10.87,32.73,33.16,51.26,28.49,23.68,70.1,27.22,92.36,27.22h0a167.86,167.86,0,0,0,17.44-.78l.38,0,.38-.08c44.47-9.43,78.09-30.56,99.94-62.8,17.65-26,22.2-51.62,23.91-61.26C389.75,322.06,393.05,297.37,384.58,266.82Zm-5.92,60.9C375.2,347.18,360.93,424.16,261,445.35c0,0-65.3,7.35-103.79-24.65s-34.6-52.76-19.46-64.44,29.41-12.11,41.95-.87,24.65,35,81.3,26.82c0,0,76.55-22.06,51-104.66,0,0-41.53-89.17-124.61-27.22a28.18,28.18,0,0,1-20.73,9.06h-7.64A25.41,25.41,0,0,1,133.67,234V127.49h-.07V96.06a30,30,0,0,1,30-30h179a30.7,30.7,0,0,1,30.71,30.7h0a30.71,30.71,0,0,1-30.71,30.71H195v49.73c14.26-7,64.55-26.46,122.24,13C385.58,236.9,382.12,308.26,378.66,327.72Z"/></svg>