<svg id="Layer_1" data-name="Layer 1" xmlns="http://www.w3.org/2000/svg" viewBox="0 0 512 512"><defs><style>.cls-1{fill:#999;}</style></defs><path class="cls-1" d="M348.25,198.22c-57.69-39.43-108-20-122.24-13V135.52H373.62a30.71,30.71,0,0,0,30.71-30.71h0a30.7,30.7,0,0,0-30.71-30.7h-179a30,30,0,0,0-30,30v31.43h.07V242a25.41,25.41,0,0,0,25.41,25.41h7.64a28.21,28.21,0,0,0,20.73-9.05c83.08-62,124.61,27.21,124.61,27.21,25.52,82.6-51,104.66-51,104.66-56.65,8.22-68.76-15.57-81.3-26.81s-26.81-10.82-41.95.86-19,32.44,19.46,64.44S292,453.38,292,453.38c99.9-21.19,114.17-98.17,117.63-117.63S416.58,244.93,348.25,198.22Z"/></svg>