<svg xmlns="http://www.w3.org/2000/svg" viewBox="0 0 69.21 55.59"><defs><style>.cls-1{isolation:isolate;}.cls-2{fill:#5c5548;}.cls-3{fill:#424036;}.cls-4{fill:#fad2c6;stroke:#323232;}.cls-4,.cls-7{stroke-miterlimit:10;stroke-width:0.25px;}.cls-5{fill:#e4a58c;}.cls-6{fill:#421b16;}.cls-7{fill:#311415;stroke:#211e1f;}.cls-8{fill:#90856e;}.cls-9{fill:#605e44;}.cls-10,.cls-13{fill:#9e9580;opacity:0.5;}.cls-10,.cls-12{mix-blend-mode:multiply;}.cls-11,.cls-12{fill:#676254;}.cls-12{opacity:0.4;}.cls-13{mix-blend-mode:screen;}.cls-14{fill:#c28974;}</style></defs><g class="cls-1"><g id="Layer_1" data-name="Layer 1"><path class="cls-2" d="M13.61,21.94a15.3,15.3,0,0,0-3.68,2.67C7.62,26.7,2.49,32.88,2.18,35.33S17.71,35,38.32,32.67s28.24-6.14,28.28-7.31-5.37-5.75-11.32-8-14-1.67-23.74-.57A60.2,60.2,0,0,0,13.61,21.94Z"/><path class="cls-3" d="M29,17.24A61.77,61.77,0,0,0,13.66,22,15.72,15.72,0,0,0,10,24.7C7.61,26.86,2.59,33,2.29,35.35a.36.36,0,0,0,.1.31c1.14,1.21,9.84.12,21.88-1.4,4.23-.53,9-1.13,14-1.7,3.44-.39,6.7-.85,9.68-1.34,14-2.37,18.47-5.13,18.5-5.87,0-1.11-5.38-5.65-11.24-7.91-6-2.32-14.3-1.63-23.7-.57C30.7,17,29.83,17.09,29,17.24Z"/><path class="cls-4" d="M52.76,23.09a2.51,2.51,0,0,1,.43,2.71c-3.19,7.37-3,9.6-5.35,18.64-1.71,6.68-9.26,11-15.54,9.46C24.58,52,15.84,47.58,17.11,32.32c.56-6.72-.37-14,1-16.17,4.73-7.18,8.48-5.4,18.11-3C45.26,15.42,49,16.71,52.76,23.09Z"/><path class="cls-5" d="M50.33,34.93s.55-12.84-5.84-11.12c-7,1.87-9.61-1.21-12.43-.64-6.16,1.26-13.2,10.17-15.28,3.94S32,13.88,32,13.88s15.64-1.25,16.68-.8,5.19,8.68,5.19,8.68Z"/><path class="cls-6" d="M45.53,28.52a.47.47,0,0,1-.43-.7l.07-.13c.36-.68,1.37-.65,1.92-.4a4,4,0,0,1,2.62,3.31c0,.21-.2.39-.3.23A5.1,5.1,0,0,0,45.53,28.52Z"/><path class="cls-6" d="M33.85,26.12a.47.47,0,0,0,.72-.4v-.14c0-.78-.88-1.24-1.48-1.29a4,4,0,0,0-3.91,1.61c-.14.15,0,.43.16.35A5.08,5.08,0,0,1,33.85,26.12Z"/><path class="cls-7" d="M46.36,19.31s-2.11,7.8-14.47,1.43c0,0,14.4-1.31.31-5.49,0,0,1.78,5-7.18,1.31,0,0,5.76,6.73-5.7,12.3,0,0-2,.18-2.42,4.89,0,.34,0,.71-.07,1.09-.24,5.78,0-.75,0-.75s-5-2.11-3.65-8.21a8.44,8.44,0,0,1,1.19-10s-1-7.94,7.9-7.71c0,0,3.77-6.95,8.87-5.53,0,0,8.63-4,12.91,3.62,0,0,6.27-.68,8.53,7.09,0,0,4.66,4,2.27,8.48,0,0,3.72,3.48-1.06,6.31,0,0,2.7,3.75-2.13,5.78l-2.35,4.12,1-3.13A15.12,15.12,0,0,0,46.67,19.6C46.57,19.5,46.47,19.4,46.36,19.31Z"/><path class="cls-8" d="M55.28,17.33c-5.94-2.28-14-1.67-23.74-.57a60.2,60.2,0,0,0-17.93,5.18,15.3,15.3,0,0,0-3.68,2.67C7.62,26.7,2.49,32.88,2.18,35.33c.42-1.64,7.34-9,34.55-12.33,17.76-2.16,26.56,0,29.72,1.91C65.56,23.29,60.64,19.39,55.28,17.33Z"/><path class="cls-9" d="M66.47,25a.09.09,0,0,1-.07,0c-1.75-1.08-9.05-4.41-29.66-1.89-2.4.29-4.73.63-6.93,1C8.43,27.71,2.66,33.9,2.29,35.36a.12.12,0,0,1-.13.09.13.13,0,0,1-.09-.13c.33-2.6,5.63-8.85,7.78-10.8a15.46,15.46,0,0,1,3.71-2.69A62,62,0,0,1,28.91,17c.88-.15,1.76-.27,2.61-.37,9.43-1.06,17.73-1.75,23.8.58,5.35,2.06,10.3,6,11.23,7.63a.14.14,0,0,1,0,.14A.09.09,0,0,1,66.47,25Z"/><path class="cls-10" d="M13.18,26.36c1.37-2.65,4.07-4.62,6.42-6.11a31.64,31.64,0,0,1,3-1.68,58.28,58.28,0,0,0-9,3.37,15.3,15.3,0,0,0-3.68,2.67C7.62,26.7,2.49,32.88,2.18,35.33c.26-1,2.9-4.09,11-7.12A2,2,0,0,1,13.18,26.36Z"/><path class="cls-10" d="M44.87,16.12A38.22,38.22,0,0,1,51.36,18c1.59.63,3.52,1.76,3.61,3.85a1.54,1.54,0,0,1,0,.37c6.07.4,9.7,1.56,11.49,2.67-.89-1.62-5.81-5.52-11.17-7.58-3.57-1.37-7.92-1.7-12.94-1.5A21.29,21.29,0,0,1,44.87,16.12Z"/><path class="cls-8" d="M10.21,23.23S8.09,14.4,17.65,6.54C28-2,41.38,1.51,45.47,3.76S54,11.15,55.13,16.33c0,0-15.06-.64-22,.39S14,20.57,10.21,23.23Z"/><path class="cls-9" d="M31.53,16.86l1.61-.26c6.48-1,20.28-.46,21.85-.4C53.72,10.86,49.23,6,45.42,3.86,42.59,2.31,35.87.43,28.89,1.6a23.37,23.37,0,0,0-11.17,5C9,13.77,10.06,21.8,10.28,23,14.11,20.48,25,18,31.53,16.86Z"/><path class="cls-10" d="M48.28,11.77c-1.07,2.1-3.2,3.08-5.13,3.77-.68.24-1.36.45-2,.64,6.76-.16,14,.15,14,.15-1.08-4.79-4.92-9.54-8.73-12C48.21,6.2,49.6,9.17,48.28,11.77Z"/><path class="cls-10" d="M24.52,17.29c-2.61-.2-5.48-.53-7.87-1.94a5.47,5.47,0,0,1-3-4.64c-4.86,6.52-3.42,12.52-3.42,12.52,3.1-2.17,11.87-4.46,18.74-5.79C27.47,17.45,26,17.4,24.52,17.29Z"/><path class="cls-11" d="M32.87,15.34c5.58-.87,20.74-.83,22.35,0a9.57,9.57,0,0,1,.37,2.2c-.13.39-7.48-1.52-20.91.22-17.67,2.29-24,6.6-24.43,6.74s-.47-2-.3-2.35S16.65,17.87,32.87,15.34Z"/><path class="cls-3" d="M55.52,17.7a7.67,7.67,0,0,1-1.5-.1,77.72,77.72,0,0,0-19.33.28c-1.61.21-3.2.44-4.73.7-5.68,1-13.67,2.75-19.33,5.86l-.35.17h0a.24.24,0,0,1-.26-.13,4.25,4.25,0,0,1-.14-2.4c.16-.33,6.58-4.3,23-6.86,5.47-.85,20.76-.85,22.42,0l0,0,0,.05a8.37,8.37,0,0,1,.36,2.27A.19.19,0,0,1,55.52,17.7Z"/><path class="cls-12" d="M55.22,15.34c-.91-.47-6.17-.69-11.58-.63.19,0,.38.06.58.09,5.31.58,1.66,1.49-2.36,1.55a79.65,79.65,0,0,0-14.25,1.52c-6,1.13-8.11.21-3.27-.84a9.33,9.33,0,0,0,1-.27C14.59,19.13,10.09,21.86,10,22.15s-.15,2.5.3,2.35S17,20.05,34.68,17.76c13.43-1.74,20.78.17,20.91-.22A9.57,9.57,0,0,0,55.22,15.34Z"/><path class="cls-13" d="M15.83,26.36s10.75-4.51,36.55-5.15C52.38,21.21,31.82,19.61,15.83,26.36Z"/><path class="cls-4" d="M17.23,36.26c-.26-3.52-1.55-5.1-3.44-5.11s-2.82,1.41-2.72,4.3c.13,3.7,4,6.45,6.54,5.71"/><path class="cls-5" d="M12.55,34.48s-.52-2.06,1.68-1.66,1,3.18,1.62,4.36,1.94,2.38,1,2.63S12.72,38.88,12.55,34.48Z"/><path class="cls-14" d="M40.11,39.83a2.11,2.11,0,0,1,.13,1.66,1.17,1.17,0,0,1-.69.65,2.14,2.14,0,0,1-.9.08,2.25,2.25,0,0,1-1.54-.77,2.36,2.36,0,0,1-.54-1.57,3.11,3.11,0,0,0,.82,1.3,2.29,2.29,0,0,0,1.32.55,1.13,1.13,0,0,0,1.19-.41A2.78,2.78,0,0,0,40.11,39.83Z"/></g></g></svg>