<svg id="Layer_1" data-name="Layer 1" xmlns="http://www.w3.org/2000/svg" viewBox="0 0 22.49 12.05"><defs><style>.cls-1{fill:#dc9e8f;}.cls-2{fill:#f6fbfd;stroke:#323232;stroke-miterlimit:10;stroke-width:0.25px;}.cls-3{fill:#451f16;}.cls-4{fill:#fff;}</style></defs><circle class="cls-1" cx="4.35" cy="7.52" r="4.02"/><path class="cls-2" d="M.74,7.76a3.8,3.8,0,0,0,3.65,3.93c2.09.07,3.82-.91,3.9-3S6.76,4.19,4.67,4.12A3.79,3.79,0,0,0,.74,7.76Z"/><ellipse class="cls-3" cx="4.84" cy="9.41" rx="1.85" ry="2.15" transform="matrix(0.28, -0.96, 0.96, 0.28, -5.54, 11.45)"/><circle class="cls-4" cx="3.04" cy="9.23" r="0.65"/><ellipse class="cls-1" cx="17.96" cy="4.4" rx="4.2" ry="4.02" transform="translate(-0.53 4.73) rotate(-14.78)"/><path class="cls-2" d="M21.67,3.84A3.77,3.77,0,0,1,19,8.46c-2,.54-3.93,0-4.46-2.06s.5-4.73,2.53-5.26A3.79,3.79,0,0,1,21.67,3.84Z"/><ellipse class="cls-3" cx="17.66" cy="6.39" rx="1.77" ry="2.1" transform="translate(1.82 16.48) rotate(-52.41)"/><circle class="cls-4" cx="15.96" cy="6.51" r="0.65"/><path class="cls-1" d="M.38,7.52c-.08,2.17.73-.93,3.85-1.29,3.38-.39,4.17,3.08,4.11.91A3.55,3.55,0,0,0,4.67,4,3.94,3.94,0,0,0,.38,7.52Z"/><path class="cls-1" d="M22.05,3.92c.45,2-.33-1.36-4.2-.81C14.28,3.62,14,7,14,5.48c0-2.34.9-3.92,3-4.48A4.22,4.22,0,0,1,22.05,3.92Z"/></svg>