<svg xmlns="http://www.w3.org/2000/svg" viewBox="0 0 121.66 96.36"><defs><style>.cls-1{isolation:isolate;}.cls-2{fill:#5b5447;}.cls-3{fill:#424036;}.cls-4{fill:#fbd3c7;stroke:#323232;stroke-width:0.5px;}.cls-4,.cls-7{stroke-miterlimit:10;}.cls-5{fill:#e4a68d;}.cls-6{fill:#431b15;}.cls-7{fill:#321213;stroke:#221f1f;}.cls-8{fill:#90866e;}.cls-9{fill:#605e43;}.cls-10,.cls-13{fill:#9f9681;opacity:0.5;}.cls-10,.cls-12{mix-blend-mode:multiply;}.cls-11,.cls-12{fill:#666253;}.cls-12{opacity:0.4;}.cls-13{mix-blend-mode:screen;}.cls-14{fill:#c48a74;}</style></defs><g class="cls-1"><g id="Layer_1" data-name="Layer 1"><path class="cls-2" d="M29.23,34.77a26.46,26.46,0,0,0-6.78,3.87C18.11,41.77,8.22,51.35,7.22,55.48s26.55,2.38,62.17,2.24,49.32-5.19,49.61-7.19-8.09-10.8-17.81-15.81-23.6-5.48-40.4-5.43A103.75,103.75,0,0,0,29.23,34.77Z"/><path class="cls-3" d="M56.29,29.63a106.12,106.12,0,0,0-27,5.32,27,27,0,0,0-6.74,3.86C18.06,42.05,8.36,51.56,7.4,55.53a.61.61,0,0,0,.12.55c1.71,2.28,16.76,2.05,37.58,1.72,7.32-.12,15.62-.24,24.29-.28,5.93,0,11.58-.18,16.76-.48,24.41-1.4,32.48-5.28,32.66-6.54.27-1.88-8.11-10.65-17.69-15.6-9.86-5.08-24.1-5.45-40.33-5.41C59.32,29.5,57.81,29.54,56.29,29.63Z"/><path class="cls-4" d="M95.82,44.08c.46,1,1.5,2.46.23,4.7-6.84,12-7,15.81-12.64,30.8-4.16,11.08-17.86,17-28.28,13.22C42.31,88.12,28.24,78.94,33.26,53.14c2.21-11.36,2-24,4.8-27.4,9.43-11.36,15.49-7.62,31.46-1.69C84.46,29.59,90.57,32.49,95.82,44.08Z"/><path class="cls-5" d="M89.44,63.82S92.79,42,81.57,43.75c-12.22,1.89-16.17-3.87-21.09-3.41-10.74,1-24.42,14.87-26.81,3.85S62.11,24.46,62.11,24.46s26.94.8,28.62,1.76S98,42,98,42Z"/><path class="cls-6" d="M82.47,52a.81.81,0,0,1-.61-1.28l.13-.2c.75-1.1,2.48-.85,3.37-.32,1.35.8,3.35,1.83,3.85,6.14,0,.36-.42.63-.57.33C87.72,54.93,85.43,52.24,82.47,52Z"/><path class="cls-6" d="M63,45.7a.82.82,0,0,0,1.31-.55l0-.24C64.5,43.59,63,42.63,62,42.43c-1.54-.31-3.72-.87-7,2-.27.24-.11.75.2.63C57.09,44.4,60.6,43.91,63,45.7Z"/><path class="cls-7" d="M85.61,36.42s-5.07,12.91-25-.27c0,0,24.82.46,1.56-9.3,0,0,2.1,8.85-12.5.89,0,0,8.57,12.56-12,19.91,0,0-3.38-.06-5,7.9-.12.57-.23,1.19-.33,1.85-1.49,9.81.21-1.28.21-1.28s-8.16-4.55-4.68-14.7c0,0-4.51-9.64,3.89-16.8,0,0-.18-13.73,14.93-11.68,0,0,7.73-11.15,16.16-7.76,0,0,15.48-5.25,21.34,8.59,0,0,10.83,0,13.23,13.7,0,0,7.21,7.72,2.29,14.88,0,0,5.69,6.64-3,10.58,0,0,3.9,6.89-4.71,9.45L87.2,69l2.24-5.15A25.9,25.9,0,0,0,86.07,37Z"/><path class="cls-8" d="M101.19,34.72c-9.7-5-23.6-5.48-40.4-5.43a103.75,103.75,0,0,0-31.56,5.48,26.46,26.46,0,0,0-6.78,3.87C18.11,41.77,8.22,51.35,7.22,55.48c1-2.72,14.2-14,61.25-14.56,30.72-.37,45.34,4.9,50.36,8.82C117.61,46.82,109.94,39.23,101.19,34.72Z"/><path class="cls-9" d="M118.85,49.94a.16.16,0,0,1-.13,0c-2.78-2.16-14.62-9.21-50.25-8.78-4.15.05-8.18.19-12,.4C19.3,43.65,8.31,53.14,7.39,55.55a.18.18,0,0,1-.23.13A.22.22,0,0,1,7,55.43c1.06-4.37,11.27-14,15.31-17,4.31-3.12,6.73-3.88,6.83-3.9a106,106,0,0,1,27.1-5.35c1.52-.09,3-.13,4.52-.14,16.28-.05,30.57.33,40.5,5.45C110,39.05,117.74,46.63,119,49.66a.21.21,0,0,1-.06.24A.14.14,0,0,1,118.85,49.94Z"/><path class="cls-10" d="M27.67,42.23C30.5,38,35.48,35.12,39.77,33a52.73,52.73,0,0,1,5.44-2.3,101.93,101.93,0,0,0-16,4.05,26.46,26.46,0,0,0-6.78,3.87C18.11,41.77,8.22,51.35,7.22,55.48c.62-1.65,5.71-6.44,20.1-10.08A3.36,3.36,0,0,1,27.67,42.23Z"/><path class="cls-10" d="M83.66,30.71a65.72,65.72,0,0,1,10.72,4.45c2.58,1.38,5.67,3.67,5.43,7.24a3.29,3.29,0,0,1-.08.63c10.27,1.82,16.25,4.48,19.1,6.71-1.22-2.92-8.89-10.51-17.64-15-5.83-3-13.2-4.38-21.8-5A33.91,33.91,0,0,1,83.66,30.71Z"/><path class="cls-8" d="M23.18,36.34S21.23,20.88,39,9.26C58.28-3.32,80.43,5.11,87,9.72S100.1,23.93,101.13,33c0,0-25.58-3.91-37.57-3.45S30.16,32.52,23.18,36.34Z"/><path class="cls-9" d="M60.77,29.47c1-.06,1.9-.11,2.78-.14,11.24-.43,34.7,3,37.36,3.41-1.16-9.36-7.9-18.56-14-22.85-4.53-3.18-15.65-7.65-27.78-7a40.31,40.31,0,0,0-20,6.5C23,20,23.2,33.87,23.34,36,30.35,32.38,49.48,30.11,60.77,29.47Z"/><path class="cls-10" d="M90.29,23.92c-2.22,3.38-6,4.66-9.47,5.48-1.19.28-2.39.5-3.59.69,11.56,1,23.9,2.89,23.9,2.89-.95-8.37-6.61-17.2-12.66-22.13C91.21,14.4,93,19.72,90.29,23.92Z"/><path class="cls-10" d="M48.71,28.88c-4.4-.82-9.24-1.93-13.06-4.77-3.31-2.47-4.49-5.43-4.28-8.49-9.52,10.2-8.19,20.72-8.19,20.72C28.89,33.21,44.28,31,56.25,30,53.72,29.7,51.2,29.36,48.71,28.88Z"/><path class="cls-11" d="M63.33,27.13c9.68-.44,35.54,2.46,38.13,4.18,0,0,.49,3.2.21,3.83S89.2,31.14,66,31.6C35.39,32.19,23.8,38.35,23,38.52S22.59,35,23,34.44,35.19,28.4,63.33,27.13Z"/><path class="cls-3" d="M101.53,35.4A15.13,15.13,0,0,1,99,34.94,133.69,133.69,0,0,0,66,31.8c-2.79.05-5.55.15-8.2.3-9.88.57-23.84,2.14-34.09,6.37a4.29,4.29,0,0,1-.62.24H23a.44.44,0,0,1-.42-.27c-.45-.82-.1-3.62.21-4.12s12-6.11,40.54-7.4c9.49-.42,35.58,2.44,38.24,4.21l.07.05,0,.09c0,.33.49,3.28.19,3.95A.32.32,0,0,1,101.53,35.4Z"/><path class="cls-12" d="M101.46,31.31c-1.47-1-10.4-2.33-19.63-3.24a8.39,8.39,0,0,0,1,.25c9,2,2.56,2.86-4.31,2.22a136.47,136.47,0,0,0-24.6-.09C43.35,31.26,40,29.3,48.46,28.4a15,15,0,0,0,1.69-.27C31.43,30.16,23.23,34,23,34.44s-.72,4.25.06,4.08S35.39,32.19,66,31.6c23.24-.46,35.43,4.18,35.71,3.54S101.46,31.31,101.46,31.31Z"/><path class="cls-13" d="M32.19,42.73s19.18-5.68,63.33-1.93C95.52,40.8,60.74,34.21,32.19,42.73Z"/><path class="cls-4" d="M32.73,59.89c.22-6.06-1.69-9-4.92-9.36-3.49-.39-5.08,1.87-5.45,6.82-.47,6.33,5.67,11.76,10.09,11"/><path class="cls-5" d="M25.07,56s-.49-3.61,3.19-2.52,1.14,5.62,1.94,7.75,2.87,4.42,1.2,4.66S24.54,63.52,25.07,56Z"/><path class="cls-14" d="M71.1,70.26a3.6,3.6,0,0,1,0,2.89,2,2,0,0,1-1.33,1,3.65,3.65,0,0,1-1.58,0,4,4,0,0,1-2.51-1.65A3.9,3.9,0,0,1,65,69.69,5.63,5.63,0,0,0,66.25,72a3.87,3.87,0,0,0,2.1,1.15,1.89,1.89,0,0,0,2.05-.44A5,5,0,0,0,71.1,70.26Z"/></g></g></svg>