<svg id="Layer_1" data-name="Layer 1" xmlns="http://www.w3.org/2000/svg" viewBox="0 0 24.91 15.26"><defs><style>.cls-1{fill:#f6fbfd;stroke:#323232;stroke-miterlimit:10;stroke-width:0.25px;}.cls-2{fill:#ce9685;}.cls-3{fill:#451f16;}.cls-4{fill:#fff;}</style></defs><path class="cls-1" d="M23.79,3.54a4.64,4.64,0,0,1-2.42,5.83,4.08,4.08,0,0,1-5.61-2.09,4.63,4.63,0,0,1,2.42-5.82A4.08,4.08,0,0,1,23.79,3.54Z"/><path class="cls-2" d="M23.81,7a4.82,4.82,0,0,0,0-3.72,4.05,4.05,0,0,0-5.61-1.81,5.53,5.53,0,0,0-2.8,3.46A5.06,5.06,0,0,1,18.84.57,4.06,4.06,0,0,1,23.7,2.24C24.52,3.81,24.84,6,23.81,7Z"/><path class="cls-3" d="M21.81,6.8c.44,1-.27,2.1-1.58,2.43A2.72,2.72,0,0,1,17.07,8c-.43-1,.28-2.1,1.59-2.43A2.7,2.7,0,0,1,21.81,6.8Z"/><path class="cls-4" d="M19.93,5.48a.81.81,0,0,1-.1,1.09.72.72,0,0,1-1-.14.8.8,0,0,1,.11-1.09A.71.71,0,0,1,19.93,5.48Z"/><path class="cls-1" d="M.83,11.4a4.23,4.23,0,0,0,4.71,3.34,3.75,3.75,0,0,0,3.07-4.55A4.24,4.24,0,0,0,3.89,6.86,3.73,3.73,0,0,0,.83,11.4Z"/><path class="cls-2" d="M3.26,14.35a4.29,4.29,0,0,1-2.28-3A3.8,3.8,0,0,1,4.11,6.86C5.19,6.68,6,7,7.78,8.42,6.42,6.68,4.68,6.1,3.14,6.62A3.8,3.8,0,0,0,.48,10.7,4.32,4.32,0,0,0,3.26,14.35Z"/><path class="cls-3" d="M3,12.61c-.25-1,.53-1.87,1.75-2a2.43,2.43,0,0,1,2.68,1.5c.26,1-.52,1.86-1.75,2A2.43,2.43,0,0,1,3,12.61Z"/><path class="cls-4" d="M5.31,10.68a.82.82,0,0,1-.15,1.14A.8.8,0,0,1,4,11.71a.82.82,0,0,1,.15-1.14A.8.8,0,0,1,5.31,10.68Z"/><path class="cls-2" d="M.72,11.42a4.36,4.36,0,0,0,4.85,3.43,3.85,3.85,0,0,0,3.15-4.68A4.36,4.36,0,0,0,3.87,6.74,3.85,3.85,0,0,0,.72,11.42Z"/><path class="cls-2" d="M23.93,3.47a4.8,4.8,0,0,1-2.5,6,4.22,4.22,0,0,1-5.81-2.15,4.8,4.8,0,0,1,2.51-6A4.22,4.22,0,0,1,23.93,3.47Z"/></svg>