<svg id="Layer_1" data-name="Layer 1" xmlns="http://www.w3.org/2000/svg" viewBox="0 0 25.79 15.04"><defs><style>.cls-1{fill:#f5968e;}.cls-2{fill:#f48678;}.cls-3{fill:#765a47;}.cls-4{fill:#e9a597;opacity:0.5;}</style></defs><g id="neutral"><path class="cls-1" d="M23.31,4.65a20,20,0,0,1-8.43,5.19,19.77,19.77,0,0,1-10-.49c-.13-.28,4,.6,9.5-.79A64.29,64.29,0,0,0,23.31,4.65Z"/><path class="cls-2" d="M23.49,4.47C23.4,4.27,18.7,7.08,14,8.29s-9.37.82-9.35,1,5,1,9.57-.19C19.09,7.89,23.58,4.67,23.49,4.47Z"/><path class="cls-3" d="M4.5,9.3A30.42,30.42,0,0,0,14.67,9,23.46,23.46,0,0,0,23.44,4.5,26,26,0,0,1,14.67,9C10.13,10.27,4.5,9.3,4.5,9.3Z"/><path class="cls-4" d="M4.27,8.74c.08-.55-.37-.3-.39.17A2.16,2.16,0,0,0,4.43,10,10.55,10.55,0,0,1,4.27,8.74Z"/><path class="cls-4" d="M23.56,3.79c-.41-.38.1-.46.41-.11s.08,1.14.08,1.14C23.75,4,23.69,3.92,23.56,3.79Z"/></g></svg>