<svg id="Layer_1" data-name="Layer 1" xmlns="http://www.w3.org/2000/svg" xmlns:xlink="http://www.w3.org/1999/xlink" viewBox="0 0 83 17"><defs><style>.cls-1{fill:none;}.cls-2{clip-path:url(#clip-path);}.cls-3{fill:#eb652f;}.cls-4{fill:#f6a42c;}.cls-5{fill:#fff18b;}.cls-6{fill:#281b17;}.cls-7{fill:#473a3a;}.cls-8{fill:#5e5454;}</style><clipPath id="clip-path"><path class="cls-1" d="M34.18.32S46,.24,48.32.47c0,0,4.21,4.9,1,8.91s-7.84,6.89-11.62,5.18S30.38,5.23,34.18.32Z"/></clipPath></defs><g class="cls-2"><path class="cls-3" d="M40.43-5.46A2,2,0,0,1,41-4.07c0,.66-2,1.85-2,3.39s1,1.74,1,3.31a1.09,1.09,0,0,1-1,1.13c-.4,0-.85-.25-.85-1.25A1.84,1.84,0,0,1,39,1a2.65,2.65,0,0,0-1.89,2.6c0,1.74,2.43,1.82,2.43,3.29,0,.83-.41,1.21-1.07,1.21s-.83-.66-.83-1.06S38.26,6,38.26,6c-.45.2-1.62.43-1.62,1.89s1.72,3,4.8,3,5-2.5,5-4.1a2.28,2.28,0,0,0-1.62-2.07,2.29,2.29,0,0,1,.58,1.44,1.1,1.1,0,0,1-1.09,1.14c-.62,0-1-.55-1-1.39,0-1.61,2.23-2.08,2.23-4A2.52,2.52,0,0,0,44.4-.3a3.26,3.26,0,0,1,.27,1.35c0,.48-.42,1.2-1,1.2s-.83-.4-.68-1,.38-.6.6-1a2,2,0,0,0,.1-1.59A3,3,0,0,0,42.2-2.7h0a2,2,0,0,1,.74,1.56A.91.91,0,0,1,42-.2c-.35,0-.91-.16-.91-1,0-.58.34-.73.56-1.39A2.71,2.71,0,0,0,41.68-4,2.51,2.51,0,0,0,40.43-5.46Z"/><path class="cls-4" d="M42.27,10.77S44.75,9.62,45,7.59c-.72.55-2.77,1.4-2.74-1,0-2.16,1.6-2.2,1.55-3.47A1.45,1.45,0,0,1,42.57,4c0-.74-1.46-2-1.46-2.6a1.45,1.45,0,0,1,.23-.86,1.19,1.19,0,0,0-.61,1.08c0,.51,1,1.92.23,2.69a1.65,1.65,0,0,1-2.28.14c.25.55,1,.92,1.53,1.62a2,2,0,0,1-.85,2.85,1.27,1.27,0,0,1-1.53-.4A3.47,3.47,0,0,0,41,10.82Z"/><path class="cls-5" d="M41.83,10.82s1.55-.75,1.66-2a1.54,1.54,0,0,1-1.91-1.45,3.23,3.23,0,0,1,.21-1.87,3.36,3.36,0,0,0-.6,1.87,2.73,2.73,0,0,1-.36,1.94,1.21,1.21,0,0,1-1.28.28,2.44,2.44,0,0,0,1.77,1.23Z"/></g><path class="cls-6" d="M25.19,16.66c.94-.62,9.14-6.14,9.35-6.25a2.21,2.21,0,0,0-.37-.14l-.42-.46c-.18,0-9.07,6.19-10,6.79Z"/><path class="cls-6" d="M56,16.7l1.41-.09c-.72-.48-9-7-9.16-7.08l-1.4.24.35.07C47.4,10,55.23,16.17,56,16.7Z"/><path class="cls-7" d="M49.91,6.09V9.92H32.36V5.79a12.43,12.43,0,0,1,3.84-.65,67.31,67.31,0,0,1,11.51.2S49.39,5.44,49.91,6.09Z"/><ellipse class="cls-8" cx="41.14" cy="9.53" rx="8.78" ry="1.66"/><path class="cls-8" d="M32.81,7.88c-.28,0-28.9-4.26-30.28-4.61"/><path class="cls-6" d="M32.81,8.3V7.88l0-.43c-.19,0-28-4.09-29.52-4.48l-2.21.41C2.07,3.62,32.27,8.3,32.81,8.3Z"/><path class="cls-6" d="M49.14,7.9c.09,0,.37,0,4-.54,7.48-1,26.36-3.86,28.71-3.89l-3-.57c-2.41,0-18.31,2.59-25.8,3.62-2.12.29-3.79.52-3.94.53Z"/></svg>