<svg id="Layer_1" data-name="Layer 1" xmlns="http://www.w3.org/2000/svg" xmlns:xlink="http://www.w3.org/1999/xlink" viewBox="0 0 85.46 18.86"><defs><style>.cls-1{fill:none;}.cls-2{clip-path:url(#clip-path);}.cls-3{fill:#eb652f;}.cls-4{fill:#f6a42c;}.cls-5{fill:#fff18b;}.cls-6{fill:#281b17;}.cls-7{fill:#473a3a;}.cls-8{fill:#5e5454;}</style><clipPath id="clip-path"><path class="cls-1" d="M33.67,1.26s13.07-.08,15.68.18c0,0,4.66,5.42,1.13,9.86S41.79,19,37.61,17.05,29.47,6.71,33.67,1.26Z"/></clipPath></defs><g class="cls-2"><path class="cls-3" d="M42,12.92c-2.16,0-5.33-1.17-5.33-4.52s2-4.28,2-4.28a3.09,3.09,0,0,0-.52,1.55,4.8,4.8,0,0,1,3-2.53C43,2.64,44.27,2.49,45,1a2.16,2.16,0,0,1-.76,2.07C44.59,3,47.2,1.9,46.9-.59a3,3,0,0,1,.3,2.49,4.1,4.1,0,0,1-3.41,2.8c-1.89.36-3.21,1.53-3.21,2.89A1.29,1.29,0,0,0,42,8.85a1.19,1.19,0,0,0,1.29-1.3c0-1-1.16-1.45-1.16-1.45A3.16,3.16,0,0,1,45,6.69c-.16-.49-1-1-1-1a3,3,0,0,1,2.55,3.09C46.48,11.21,44,12.92,42,12.92Z"/><path class="cls-3" d="M41.49-5.14A3.29,3.29,0,0,1,43.41-3c.1,1-.54,2.16-.38,2.73a1.75,1.75,0,0,0,1,1.29,3.65,3.65,0,0,1-2.4,1.23c-1.84.34-2-.69-1.8-1.45.4-2,2.27-2,2.34-3.93A2.18,2.18,0,0,0,41.49-5.14Z"/><path class="cls-3" d="M40.23-1.28c-2.55,2.58-.75,4-.75,4a1.63,1.63,0,0,1-1.7-2.2A2.9,2.9,0,0,1,40.23-1.28Z"/><path class="cls-3" d="M44.52-2.7c.78.35,1.87,2,.88,2.73-.38.29-1-.1-.54-.95C45.24-1.58,44.52-2.7,44.52-2.7Z"/><path class="cls-3" d="M45.5,5.41a3.48,3.48,0,0,1,1.88,2.23,3.73,3.73,0,0,1-1,3.82c.7-.23,2-.77,2-3.13A3.15,3.15,0,0,0,45.5,5.41Z"/><path class="cls-3" d="M36.09,7.19c-.76,2.43.16,4.34,1.94,5.07-1.3-.26-2.26-.65-2.63-1.74A3.76,3.76,0,0,1,36.09,7.19Z"/><path class="cls-4" d="M42,12.92a4.45,4.45,0,0,1-4.15-4.49c.72,2.09,2,2.39,2,2.39a3.19,3.19,0,0,1-.33-3.63A2.66,2.66,0,0,0,42,10.06a2.11,2.11,0,0,0,1.9-2.15,2.75,2.75,0,0,1-.42,3A4.79,4.79,0,0,0,45.5,9.23C45.6,11.14,43.1,12.92,42,12.92Z"/><path class="cls-5" d="M42,12.92a3,3,0,0,1-1.84-1.22c.56.29,1.13-.5.85-1.16a2.17,2.17,0,0,0,2.54.81C43.44,12.16,42.58,12.72,42,12.92Z"/><path class="cls-4" d="M40.9,1.43c-.63.22-.63-1.32.58-2.31C41.48-.13,41.55,1.2,40.9,1.43Z"/></g><path class="cls-6" d="M56.78,17.16c-1.08-.71-7.77-4.11-8-4.25a1.86,1.86,0,0,1,.42-.15l.49-.54c.21,0,7.77,4.15,8.82,4.83Z"/><path class="cls-6" d="M25.05,17.16l-1.64-.1c.83-.57,9.23-5.1,9.46-5.16l1.62.28-.41.07C33.86,12.4,25.94,16.55,25.05,17.16Z"/><path class="cls-7" d="M30.94,7.91v4.43H51.29V7.56a14.38,14.38,0,0,0-4.44-.75A76.88,76.88,0,0,0,33.5,7S31.55,7.16,30.94,7.91Z"/><ellipse class="cls-8" cx="41.12" cy="11.9" rx="10.18" ry="1.92"/><path class="cls-6" d="M50.77,10.47V10l-.05-.49c.23,0,30.21-4.25,32-4.7l2.16.48C83.77,5.55,51.4,10.47,50.77,10.47Z"/><path class="cls-6" d="M31.84,10c-.1,0-.43,0-4.68-.62C18.49,8.19,3.33,4.72.6,4.68l2.66-.57c2.8,0,15.36,3.1,24,4.29L31.87,9Z"/></svg>