<svg id="Layer_1" data-name="Layer 1" xmlns="http://www.w3.org/2000/svg" xmlns:xlink="http://www.w3.org/1999/xlink" viewBox="0 0 85.46 18.86"><defs><style>.cls-1{fill:none;}.cls-2{clip-path:url(#clip-path);}.cls-3{fill:#eb652f;}.cls-4{fill:#f6a42c;}.cls-5{fill:#fff18b;}.cls-6{fill:#281b17;}.cls-7{fill:#473a3a;}.cls-8{fill:#5e5454;}</style><clipPath id="clip-path"><path class="cls-1" d="M33.82,1.23s13.12-.09,15.74.18c0,0,4.68,5.44,1.14,9.9S42,19,37.77,17.09,29.59,6.7,33.82,1.23Z"/></clipPath></defs><g class="cls-2"><path class="cls-3" d="M42.6,12.94c-2.82,0-6.92-1.86-6.92-6.13,0-3.66,2.19-4.51,2.19-4.51a4.92,4.92,0,0,0-.74,1.48,3,3,0,0,0,0,2.49,1.83,1.83,0,0,0,1.66.94,1.92,1.92,0,0,0,1.36-1.47c.4-1.65-1.68-2.31-1.67-4.05,0-2.3,3.31-3.91,3.31-5.61a2.3,2.3,0,0,0-.29-1.28,1.77,1.77,0,0,1,1.23,1.52c0,1.35-1.23,2.78-1.23,4.12s.88,1.4,1.23,1.4c.53,0,1.43-.46,1.43-2A2.38,2.38,0,0,0,43.09-2.3s3,.64,3,3.14a5.61,5.61,0,0,1-.27,1.7c-.52,1.64-1.41,2-1.33,3.05A1.81,1.81,0,0,0,45.25,7a1.11,1.11,0,0,0,.56.15c.55,0,1.21-.7,1.21-1.86a2.31,2.31,0,0,0-.76-1.75c.39.19,2,.69,2,4.1S44.67,12.94,42.6,12.94Z"/><path class="cls-4" d="M42.6,12.94c-2.38,0-4.32-2.6-4.69-3.81.92.94,2.68,1,3-1a5.22,5.22,0,0,1,3-4c-1.39,1.7-1.55,4.49.3,5,1.62.43,3.06-1.56,3.06-1.56C46.5,10.83,44.35,12.94,42.6,12.94Z"/><path class="cls-5" d="M42.6,12.94c-.26.12-3.37-1.64-.38-4.69-.52,1.65.07,2.61.75,3A2.78,2.78,0,0,0,44.71,9.9,3.4,3.4,0,0,1,42.6,12.94Z"/></g><path class="cls-6" d="M56.78,17.14c-1.08-.71-7.77-4.12-8-4.25a2.47,2.47,0,0,1,.42-.16l.49-.53c.21.05,7.77,4.15,8.82,4.83Z"/><path class="cls-6" d="M25.05,17.13,23.41,17c.83-.57,9.23-5.11,9.46-5.16l1.62.28-.41.07C33.86,12.38,25.94,16.52,25.05,17.13Z"/><path class="cls-7" d="M30.94,7.89v4.43H51.29V7.54a14.38,14.38,0,0,0-4.44-.75A75.89,75.89,0,0,0,33.5,7S31.55,7.14,30.94,7.89Z"/><ellipse class="cls-8" cx="41.12" cy="11.88" rx="10.18" ry="1.92"/><path class="cls-8" d="M50.77,10C51.09,10,82,5.52,83.63,5.12"/><path class="cls-6" d="M50.77,10.45V10l-.05-.5c.23,0,30.21-4.24,32-4.69l2.16.48C83.77,5.53,51.4,10.45,50.77,10.45Z"/><path class="cls-6" d="M31.84,10c-.1,0-.43,0-4.68-.62C18.49,8.17,3.33,4.7.6,4.66l2.66-.57c2.8,0,15.36,3.1,24,4.29L31.87,9Z"/></svg>