<svg id="Layer_1" data-name="Layer 1" xmlns="http://www.w3.org/2000/svg" viewBox="0 0 24.25 29.29"><defs><style>.cls-1{fill:#fbd3c7;}.cls-1,.cls-2{stroke:#323232;stroke-miterlimit:10;stroke-width:0.25px;}.cls-2{fill:none;}.cls-3{fill:#dc9e8f;}</style></defs><path class="cls-1" d="M1.55,5A5.39,5.39,0,0,0,2.76,6.25C4,9.47,9,14.78,10.3,15.89s2.18,2.25,1.9,3.6c-.54,2.52-.79,2.54-.59,3.41s-.9,1.66-.23,1.92,1.76-.89,1.85-2.1.46-1,.46-1c3.51,3.28,4.9,7.43,5.47,6.64s-.28-2.4-.28-2.4,1.15-2.28,1-3.06-1.18-3.12-3.79-5.71S9.73,6.4,8.54,4.17c-.32-.6-.55-1.1-.72-1.5C7.31,1.47,7,.81,6.93.93A11.65,11.65,0,0,1,1.55,5Z"/><path class="cls-2" d="M18.93,25.9a16.93,16.93,0,0,1-1.12-3"/><path class="cls-2" d="M19.24,25.12a8,8,0,0,0-.43-2.83"/><path class="cls-2" d="M19.65,24.13a8.23,8.23,0,0,0-.2-1.56"/><path class="cls-3" d="M1.74,5.08c.32.57.8.78,1,1,2.47-.31,4-2.45,4.95-3.37C7.21,1.56,7,1,6.94,1.08A12.84,12.84,0,0,1,1.74,5.08Z"/></svg>