<svg id="Layer_1" data-name="Layer 1" xmlns="http://www.w3.org/2000/svg" xmlns:xlink="http://www.w3.org/1999/xlink" viewBox="0 0 83 17"><defs><style>.cls-1{fill:none;}.cls-2{clip-path:url(#clip-path);}.cls-3{fill:#eb652f;}.cls-4{fill:#f6a42c;}.cls-5{fill:#fff18b;}.cls-6{fill:#281b17;}.cls-7{fill:#473a3a;}.cls-8{fill:#5e5454;}</style><clipPath id="clip-path"><path class="cls-1" d="M33.76.31S44.9.23,47.13.46c0,0,4,4.62,1,8.41s-7.41,6.52-11,4.9S30.17,5,33.76.31Z"/></clipPath></defs><g class="cls-2"><path class="cls-3" d="M40.83,10.25c-1.84,0-4.54-1-4.54-3.86S38,2.74,38,2.74a2.69,2.69,0,0,0-.45,1.32,4.09,4.09,0,0,1,2.54-2.15c1.61-.43,2.71-.56,3.36-1.83a1.89,1.89,0,0,1-.65,1.77c.27-.05,2.49-1,2.24-3.13A2.55,2.55,0,0,1,45.29.84a3.45,3.45,0,0,1-2.9,2.39c-1.61.31-2.74,1.31-2.74,2.47a1.1,1.1,0,0,0,1.18,1.07,1,1,0,0,0,1.1-1.1c0-.85-1-1.24-1-1.24a2.71,2.71,0,0,1,2.46.5c-.13-.41-.89-.83-.89-.83a2.54,2.54,0,0,1,2.18,2.64C44.69,8.79,42.55,10.25,40.83,10.25Z"/><path class="cls-3" d="M40.43-5.15c.48.19,1.55.94,1.63,1.83S41.61-1.48,41.74-1a1.51,1.51,0,0,0,.9,1.11,3.12,3.12,0,0,1-2,1C39,1.45,38.93.57,39.05-.08c.35-1.74,1.94-1.73,2-3.35A1.84,1.84,0,0,0,40.43-5.15Z"/><path class="cls-3" d="M39.35-1.86c-2.17,2.19-.63,3.4-.63,3.4A1.4,1.4,0,0,1,37.26-.34,2.47,2.47,0,0,1,39.35-1.86Z"/><path class="cls-3" d="M43.85,3.84a3,3,0,0,1,1.6,1.9A3.18,3.18,0,0,1,44.64,9c.6-.19,1.67-.66,1.67-2.67A2.68,2.68,0,0,0,43.85,3.84Z"/><path class="cls-3" d="M35.82,5.36c-.65,2.08.14,3.7,1.66,4.32-1.11-.22-1.93-.55-2.25-1.48A3.24,3.24,0,0,1,35.82,5.36Z"/><path class="cls-4" d="M40.83,10.25a3.81,3.81,0,0,1-3.54-3.83c.62,1.78,1.72,2,1.72,2a2.71,2.71,0,0,1-.28-3.09,2.25,2.25,0,0,0,2.1,2.44A1.8,1.8,0,0,0,42.45,6a2.33,2.33,0,0,1-.36,2.56A4,4,0,0,0,43.85,7.1C43.94,8.73,41.81,10.25,40.83,10.25Z"/><path class="cls-5" d="M40.83,10.25A2.51,2.51,0,0,1,39.26,9.2c.47.25,1-.42.73-1a1.85,1.85,0,0,0,2.16.69C42.09,9.59,41.36,10.07,40.83,10.25Z"/><path class="cls-4" d="M39.93.45c-.54.19-.54-1.12.49-2C40.42-.88,40.48.25,39.93.45Z"/></g><path class="cls-6" d="M25.19,16.67c.94-.62,9.14-6.14,9.35-6.25a2.21,2.21,0,0,0-.37-.14l-.42-.46c-.18,0-9.07,6.19-10,6.78Z"/><path class="cls-6" d="M56,16.71l1.41-.09c-.72-.49-9-7-9.16-7.08l-1.4.24.35.07C47.4,10,55.23,16.18,56,16.71Z"/><path class="cls-7" d="M49.91,6.1V9.93H32.36V5.8a12.43,12.43,0,0,1,3.84-.65,65.3,65.3,0,0,1,11.51.2S49.39,5.45,49.91,6.1Z"/><ellipse class="cls-8" cx="41.14" cy="9.54" rx="8.78" ry="1.66"/><path class="cls-8" d="M32.81,7.89c-.28,0-28.9-4.26-30.28-4.61"/><path class="cls-6" d="M32.81,8.31V7.89l0-.43c-.19,0-28-4.09-29.52-4.48l-2.21.41C2.07,3.63,32.27,8.31,32.81,8.31Z"/><path class="cls-6" d="M49.14,7.91c.09,0,.37,0,4-.54,7.48-1,26.36-3.86,28.71-3.89l-3-.57c-2.41,0-18.31,2.59-25.8,3.62l-3.94.53Z"/></svg>