<svg id="Layer_1" data-name="Layer 1" xmlns="http://www.w3.org/2000/svg" viewBox="0 0 46.2 47.46"><defs><style>.cls-1,.cls-6{fill:#3d2d16;}.cls-1{stroke:#3d2d16;}.cls-1,.cls-3{stroke-miterlimit:10;stroke-width:0.25px;}.cls-2{fill:#fff;}.cls-3,.cls-9{fill:#fad2c6;}.cls-3{stroke:#323232;}.cls-4{fill:#dc9e8f;}.cls-5{fill:#e8d860;}.cls-7{fill:#a67d48;}.cls-8{fill:#ef4b3b;}.cls-10{fill:#323232;}.cls-11{fill:#f49990;}</style></defs><path class="cls-1" d="M36.24,40.4c-2.21,6.66-9.15,5.9-19.18,2-.1,0-.45,2.33-.55,2.29C7.59,41.16,1.63,40,4.09,27.82c1.4-6.94,11.42-9.72,20.53-6.7S38.47,33.68,36.24,40.4Z"/><path class="cls-1" d="M37.41,28c.18.41,1.16,13.63-4.38,16.7-2.71,1.49-7.72,1.09-7.75,1.09Z"/><path class="cls-2" d="M26.48,40.67s3,.32,4.08,2.6C29.64,43.58,28.7,44,26.48,40.67Z"/><path class="cls-3" d="M37.22,31.06s-.09,0,0,.06.1,0,.14-.06A3.68,3.68,0,0,1,39,30a1.47,1.47,0,0,1,1.3.1,1.79,1.79,0,0,1,.4,1.86,6,6,0,0,1-1.54,2.84,4.43,4.43,0,0,1-5,1.21"/><path class="cls-4" d="M38.58,32.12a5.06,5.06,0,0,0-.7.43c-.18.13-.38.34-.32.56s.26.26.28.45a.39.39,0,0,1-.34.4c-.17,0-.34,0-.51,0a.8.8,0,0,0-.6.48.57.57,0,0,0-.06.28.45.45,0,0,0,.44.42,1.29,1.29,0,0,0,.63-.24,5.37,5.37,0,0,0,1.25-1C39.21,33.33,40.16,31.3,38.58,32.12Z"/><path class="cls-5" d="M35.37,35.29s-2,1.82-1,2.82,1.78-1.77,1.78-1.77-1.29,2-1,.49Z"/><path class="cls-3" d="M40.4,25.45c-.18.2-2.78,8.08-3.81,11.84-1.21,4.4-6.93,9-12.18,8.33-6.43-.79-11.87-3.9-13.94-9.31S10,24.07,10,24.07s-4-7.83,3-12.76S27.72,5.13,36.75,9,40.4,25.45,40.4,25.45Z"/><path class="cls-4" d="M16.32,20c.34-.1,8.11-5,8.11-5s-4,3.21-2.13,3.24c.51,0,5.19-1.29,6.93-2.89,0,0-1.13,2.78-2.76,3,0,0,6.36,1.78,9.3-2.85,0,0-1.3,2.5,3.16,5.71,3.47,2.49.49,6.88.49,6.88l3.08-9.93L39,12.93,28.61,10.2l-9,1-4.41,6.5L10,24.07Z"/><path class="cls-1" d="M38.87,29.84c.37-1.43,1-5.76.45-7.12-1.13-2.74-3-3.46-4-4.53-.64-.68-.08-3.15-.62-3.92s0,1,0,0c-.68,1.42-.63,2.44-2.11,3a11.26,11.26,0,0,1-4.36.53,6.61,6.61,0,0,0,2.08-2,13,13,0,0,0,.92-3.1,17,17,0,0,1-9.2,5,7.89,7.89,0,0,0,3-4.24,2.67,2.67,0,0,0-1.36.66A50.53,50.53,0,0,1,16.36,19c0-.43-.14-.82-.11-1.25-1.48,2.68-6.57,7.3-6.51,7.14,0,0-2.39,13.77,6.41,19.71a24,24,0,0,1-9-2.9c-5-2.76-7.35-8.63-3.1-16.87S6.57,12.7,10,7.88c4-5.73,15.46-11.77,29.62.81,0,0,7.07,4.09,1.43,17.85A35.68,35.68,0,0,1,38.87,29.84Z"/><path class="cls-6" d="M34.13,22.72s2.74-.15,3.7,2a.09.09,0,0,0,.18,0,2.28,2.28,0,0,0-1.64-2.46C33.86,21.31,34.13,22.72,34.13,22.72Z"/><path class="cls-6" d="M24,20.62s-2.9-1-4.66.72a.11.11,0,0,1-.18-.09,2.46,2.46,0,0,1,2.6-1.82C24.77,19.36,24,20.62,24,20.62Z"/><path class="cls-7" d="M29.38,29.64a2.75,2.75,0,0,0-.4,1.95,3,3,0,0,0,.36.92,2.37,2.37,0,0,1,.43,1.06,1.36,1.36,0,0,1-.44,1.15,1.71,1.71,0,0,1-1.12.41,3,3,0,0,1-2-.84l0,0a1.21,1.21,0,0,1-.59-.46.53.53,0,0,1-.06-.37.62.62,0,0,1,.18-.3.49.49,0,0,0,0,.59,1.22,1.22,0,0,0,.55.29h0l0,0a2.93,2.93,0,0,0,1.85.59,1,1,0,0,0,1.1-1.06,2.17,2.17,0,0,0-.33-.89,2.8,2.8,0,0,1-.32-1.08A2.54,2.54,0,0,1,29.38,29.64Z"/><path class="cls-8" d="M41.28,10.2A18.29,18.29,0,0,0,35,7.12C24,4.24,12.55,12,9.28,24.34c-.06.24-.12.47-.17.71-.37-.18-.74-.35-1.12-.51.07-.35.16-.7.25-1.05C11.51,11.1,23,3.39,33.9,6.27A18.22,18.22,0,0,1,41.28,10.2Z"/><path class="cls-9" d="M9.71,25.43c0-.05.08.08,0,.08s-.1-.07-.12-.13a4.09,4.09,0,0,0-1.16-1.81A2.06,2.06,0,0,0,7,23a1.75,1.75,0,0,0-1.41,1.38,5.3,5.3,0,0,0,.07,3.27,5.58,5.58,0,0,0,4.57,3.74"/><path class="cls-10" d="M9.71,25.43s.08.05,0,.08a.11.11,0,0,1-.11-.05,1.36,1.36,0,0,1-.09-.23,3.68,3.68,0,0,0-.21-.45A4.4,4.4,0,0,0,8.77,24a2.5,2.5,0,0,0-1.59-1A1.5,1.5,0,0,0,5.81,24.1,4.81,4.81,0,0,0,5.52,26a5.54,5.54,0,0,0,1.4,3.52,5.43,5.43,0,0,0,3.34,1.84,5.12,5.12,0,0,1-1.9-.51,6,6,0,0,1-1.57-1.22A5.69,5.69,0,0,1,5.27,26a4.94,4.94,0,0,1,.35-2,1.66,1.66,0,0,1,1.57-1.15,2.56,2.56,0,0,1,1.67,1.05,4.1,4.1,0,0,1,.53.84,3.66,3.66,0,0,1,.18.46c0,.07,0,.16.08.23s.06.06.09.05S9.75,25.39,9.71,25.43Z"/><path class="cls-4" d="M7.72,25.6a6.19,6.19,0,0,1,.51.75c.11.21.2.5,0,.66s-.41.08-.54.23,0,.41.13.53.38.16.55.27a.81.81,0,0,1,.37.72.55.55,0,0,1-.09.28.56.56,0,0,1-.69.12,1.71,1.71,0,0,1-.53-.54,5.61,5.61,0,0,1-.79-1.49C6.41,26.31,6.51,24.05,7.72,25.6Z"/><path class="cls-5" d="M9.37,30.05s1.08,2.63-.46,3S8,30.55,8,30.55s.25,2.43.81,1Z"/><path class="cls-8" d="M13.12,10.25s-7.76.44-5.25,4.31,6.87,5.33,7.47-2.26C15.71,7.53,17,11.1,17,11.1S26.67,9,20.12,4.26c-6.05-4.34-4.9,4.36-4.9,4.36S13.27,7.19,13.12,10.25Z"/><ellipse class="cls-11" cx="17.48" cy="3.92" rx="0.6" ry="0.7" transform="translate(9.08 19.74) rotate(-74.68)"/><ellipse class="cls-11" cx="9.72" cy="11.96" rx="0.6" ry="0.7" transform="translate(-4.38 18.17) rotate(-74.68)"/><ellipse class="cls-11" cx="8.55" cy="13.74" rx="0.6" ry="0.7" transform="translate(-6.97 18.36) rotate(-74.68)"/><ellipse class="cls-11" cx="11.59" cy="13.45" rx="0.6" ry="0.7" transform="translate(-4.44 21.08) rotate(-74.68)"/><ellipse class="cls-11" cx="13.83" cy="12.91" rx="0.6" ry="0.7" transform="translate(-2.27 22.84) rotate(-74.68)"/><ellipse class="cls-11" cx="13.15" cy="15.6" rx="0.6" ry="0.7" transform="translate(-5.37 24.16) rotate(-74.68)"/><ellipse class="cls-11" cx="10.58" cy="15.57" rx="0.6" ry="0.7" transform="translate(-7.24 21.66) rotate(-74.68)"/><ellipse class="cls-11" cx="12.1" cy="11.45" rx="0.6" ry="0.7" transform="translate(-2.13 20.1) rotate(-74.68)"/><ellipse class="cls-11" cx="15.96" cy="6.06" rx="0.6" ry="0.7" transform="translate(5.9 19.85) rotate(-74.68)"/><ellipse class="cls-11" cx="20.71" cy="7.03" rx="0.6" ry="0.7" transform="translate(8.46 25.15) rotate(-74.68)"/><ellipse class="cls-11" cx="19.96" cy="4.84" rx="0.6" ry="0.7" transform="translate(10.02 22.81) rotate(-74.68)"/><ellipse class="cls-11" cx="18.2" cy="6.34" rx="0.6" ry="0.7" transform="translate(7.28 22.22) rotate(-74.68)"/><ellipse class="cls-11" cx="16.74" cy="7.9" rx="0.6" ry="0.7" transform="translate(4.7 21.95) rotate(-74.68)"/><ellipse class="cls-11" cx="18.98" cy="8.67" rx="0.6" ry="0.7" transform="translate(5.6 24.69) rotate(-74.68)"/><ellipse class="cls-11" cx="17.37" cy="9.59" rx="0.6" ry="0.7" transform="translate(3.53 23.81) rotate(-74.68)"/><ellipse class="cls-8" cx="15.07" cy="10.41" rx="1.61" ry="2.15" transform="translate(-3.04 13.14) rotate(-43.19)"/></svg>