<svg id="Layer_1" data-name="Layer 1" xmlns="http://www.w3.org/2000/svg" viewBox="0 0 14.63 8.89"><defs><style>.cls-1{fill:#551514;}.cls-2{fill:#d72b5d;}.cls-3{fill:#fff;}.cls-4{fill:#bb7757;}</style></defs><g id="S"><path class="cls-1" d="M12,7A13.29,13.29,0,0,1,9.07,8.23,5.42,5.42,0,0,1,6.12,8C5.79,7.87,4,7,3.57,6.79c-1-.43-2.37-2.85-2.37-2.85a4.9,4.9,0,0,1,1.11-.5A12.9,12.9,0,0,0,3.54,3a6,6,0,0,1,2.3-.28A7.89,7.89,0,0,1,9.38,3.92c.25.13,1.35,1,1.69,1.32A5.38,5.38,0,0,1,12,7Z"/><path class="cls-2" d="M8.49,6.49c-.41-.43-1-.18-1.53-.32L6.13,6a4.93,4.93,0,0,0-1.66-.53c-.89.12-.66,1.06-.48,1.24a2.67,2.67,0,0,0,1.3.48,12.13,12.13,0,0,0,2.3.44c.24,0,.67.18.9,0A.76.76,0,0,0,8.49,6.49Z"/><path class="cls-3" d="M9.12,3.71,6.78,2.86,4.21,2.68l-.64.19a3.2,3.2,0,0,0,.79.65,13.32,13.32,0,0,0,4.9,1.24,9,9,0,0,0,1.2-.15Z"/><path class="cls-3" d="M9.34,8.07S9.22,7.32,9,7.18C8.42,6.74,7.51,7,6.28,6.6a12.92,12.92,0,0,0-2.94-.85,2,2,0,0,0-.57.32l.71.61L6,7.69,8.11,8Z"/><path class="cls-4" d="M12,7a7.78,7.78,0,0,1-3,.59A22.77,22.77,0,0,1,3.83,6.26,18.87,18.87,0,0,1,1.2,3.94a2.34,2.34,0,0,0,.29.79A7,7,0,0,0,3.31,6.87,8.47,8.47,0,0,0,6.1,8a6.19,6.19,0,0,0,3.29.36A7.83,7.83,0,0,0,12,7.07.43.43,0,0,1,12,7Z"/></g><path class="cls-4" d="M1.2,3.94s2.27-1.46,6.1-.45S12,7,12,7s-.17-2.86-4.6-4.13S1.2,3.94,1.2,3.94Z"/></svg>