<svg id="Layer_1" data-name="Layer 1" xmlns="http://www.w3.org/2000/svg" viewBox="0 0 87.1 97.62"><defs><style>.cls-1,.cls-6{fill:#3d2d16;}.cls-1{stroke:#3d2d16;}.cls-1,.cls-3,.cls-8{stroke-miterlimit:10;}.cls-2{fill:#fff;}.cls-3,.cls-9{fill:#fad2c6;}.cls-3{stroke:#323232;stroke-width:0.5px;}.cls-4{fill:#dc9e8f;}.cls-5{fill:#e8d860;}.cls-7{fill:#a67d48;}.cls-8{fill:#ad6428;stroke:#c77929;stroke-width:0.75px;}.cls-10{fill:#323232;}.cls-11{fill:#ef4b3b;}.cls-12{fill:#f49990;}</style></defs><path class="cls-1" d="M83.49,67.51c1.23,14.1-15.35,15.71-37,16.59-.39,0-.08,5.73-.48,5.74-19.51.57-27.51,4.75-32.7-19.92-3-14.09,13.5-27.35,33-29.05S82.24,53.17,83.49,67.51Z"/><path class="cls-1" d="M75.68,43.41C76.35,44,89.42,68.62,81.79,79,69.65,95.5,59.47,88,59.43,88Z"/><path class="cls-2" d="M65.46,75.88s6-1.86,9.72,1.56C73.72,78.77,72.32,80.34,65.46,75.88Z"/><path class="cls-3" d="M77.79,49.28c-.05-.11-.14.13,0,.15s.18-.12.21-.23a7.68,7.68,0,0,1,2.25-3.32A3,3,0,0,1,82.74,45c1.28.29,2,1.79,2.23,3.15a12.25,12.25,0,0,1-.59,6.55C83,58.31,79.7,61.22,76,61"/><path class="cls-4" d="M81.18,50.16a10.46,10.46,0,0,0-1,1.37c-.23.38-.43.94-.15,1.31s.69.27.9.61a.82.82,0,0,1-.31,1c-.3.19-.67.22-1,.4A1.61,1.61,0,0,0,79,56.23a1.33,1.33,0,0,0,.12.59.9.9,0,0,0,1.16.41,2.63,2.63,0,0,0,1-.93,11,11,0,0,0,1.56-2.79C83.33,51.92,83.48,47.35,81.18,50.16Z"/><path class="cls-5" d="M77.75,58.66s-2.23,5,.36,6.1S80,60,80,60s-.78,4.82-1.52,1.73Z"/><path class="cls-3" d="M79.19,36.23c-.17.53,1.34,17.33,2.44,25.19,1.29,9.19-5.7,22.34-16,25.37-12.66,3.71-25.33,2.28-33.54-6.16S21.35,58.15,21.35,58.15,7.51,46.77,16.65,31.89,39.14,8.5,59.14,8.49,79.19,36.23,79.19,36.23Z"/><path class="cls-4" d="M29.8,45.38c.56-.46,11.12-15.86,11.12-15.86s-4.8,9.17-1.36,7.76c1-.4,8.66-6.59,10.63-11,0,0,.12,6.1-2.75,7.85,0,0,13.31-1.81,15.07-12.83,0,0-.42,5.72,10.52,8.12,8.48,1.86,6.44,12.47,6.44,12.47l-2.24-21L66.43,14,44.9,17.26,28.82,26.39l-3,15.69L21.35,58.15Z"/><path class="cls-1" d="M79.89,45.66C79.43,42.7,77.12,34.1,75,32c-4.31-4.21-8.35-4.06-11.1-5.24C62.12,26,61.19,21,59.56,20s.72,1.9,0,0c-.13,3.19.79,5.06-1.55,7.24a23,23,0,0,1-7.72,4.52,13.56,13.56,0,0,0,2.25-5.47c.25-2.19-.49-4.36-.79-6.54A34.58,34.58,0,0,1,38.61,36.47a16,16,0,0,0,2.28-10.38,5.47,5.47,0,0,0-2,2.32A100.92,100.92,0,0,1,29.1,43.56c-.28-.83-.92-1.43-1.21-2.25-.59,6.21-6.38,18.93-6.4,18.58,0,0,3.07,25,24.28,29,0,0-4.43,5.54-15.49,4.51-11.63-1.09-20.69-10.19-19.4-29S5.75,39.67,8.18,28C11.06,14,27.56-6.48,64.16,5.61c0,0,16.49,1.93,17,32.18C81.21,37.79,80,46.61,79.89,45.66Z"/><path class="cls-6" d="M65.3,36.19s5-2.49,8.53.76a.19.19,0,0,0,.3-.2,4.63,4.63,0,0,0-5-3.29C63.65,33.77,65.3,36.19,65.3,36.19Z"/><path class="cls-6" d="M44.66,40.43s-6.23.43-8.13,5.1a.21.21,0,0,1-.4,0c-.2-1.23-.15-3.87,3.4-5.5C45.11,37.46,44.66,40.43,44.66,40.43Z"/><path class="cls-7" d="M62,52.93a5.56,5.56,0,0,0,.82,4,6.17,6.17,0,0,0,1.41,1.43c.25.18.57.41.89.66a3.83,3.83,0,0,1,.77,1,2.75,2.75,0,0,1,.1,2.51,3.56,3.56,0,0,1-1.76,1.67A5,5,0,0,1,62,64.6a7.38,7.38,0,0,1-2.21-.39h.09a3.13,3.13,0,0,1-.75-.08,2.11,2.11,0,0,1-.71-.3A1.07,1.07,0,0,1,58,63.2a1.41,1.41,0,0,1,.09-.71,1.31,1.31,0,0,0,.07.66.82.82,0,0,0,.42.44,2.21,2.21,0,0,0,1.25.1h.09a6.18,6.18,0,0,0,3.94-.39,2.77,2.77,0,0,0,1.27-1.26A1.84,1.84,0,0,0,65,60.42a2.92,2.92,0,0,0-.56-.72c-.23-.2-.48-.42-.79-.67a6,6,0,0,1-1.47-1.75A5.15,5.15,0,0,1,62,52.93Z"/><path class="cls-8" d="M68.56,7a37.1,37.1,0,0,0-14.31-.65C31.56,9.81,16.31,33.46,20.19,59.23c.08.5.16,1,.25,1.48-.83-.05-1.66-.07-2.5-.05-.14-.72-.27-1.44-.38-2.17C13.68,32.72,28.93,9.07,51.62,5.65A37,37,0,0,1,68.56,7Z"/><path class="cls-9" d="M21.88,60.93c0-.12.21.07.09.13s-.24-.06-.32-.15A8.33,8.33,0,0,0,18,58.48a4.1,4.1,0,0,0-3.15,0c-1.36.68-1.68,2.34-1.53,3.72a10.76,10.76,0,0,0,2.78,6c2.7,3,7.43,4.69,11.54,3.3"/><path class="cls-10" d="M21.88,60.93c0-.1.18,0,.12.11a.18.18,0,0,1-.24,0,4,4,0,0,1-.36-.35,6.59,6.59,0,0,0-.74-.66A8.42,8.42,0,0,0,19,59a5,5,0,0,0-3.74-.49,3,3,0,0,0-1.68,3.08,9.49,9.49,0,0,0,1,3.75,11.32,11.32,0,0,0,2.25,3.19,12.1,12.1,0,0,0,3.2,2.23,10.91,10.91,0,0,0,7.72.76,10.21,10.21,0,0,1-4,.57,12.15,12.15,0,0,1-3.92-1A11.54,11.54,0,0,1,14,65.55a10,10,0,0,1-1-4,4.55,4.55,0,0,1,.44-2,2.77,2.77,0,0,1,1.57-1.4,5.35,5.35,0,0,1,4,.63,8.33,8.33,0,0,1,1.66,1.15,6.8,6.8,0,0,1,.71.71,4,4,0,0,0,.34.37A.17.17,0,0,0,22,61C22,61,21.92,60.83,21.88,60.93Z"/><path class="cls-4" d="M18.3,62.85a13.09,13.09,0,0,1,1.54,1c.39.29.79.76.59,1.19s-.7.49-.83.87.28.79.68.88.84,0,1.25.06a1.69,1.69,0,0,1,1.27,1.06,1,1,0,0,1-1.14,1.37,3.05,3.05,0,0,1-1.41-.58,11.17,11.17,0,0,1-2.68-2.15C16.42,65.22,14.78,60.92,18.3,62.85Z"/><path class="cls-5" d="M25,69.84s4.15,4,1.55,5.92-3.68-3.9-3.68-3.9S25.25,76.19,25.1,73Z"/><path class="cls-11" d="M16,29.82S1.87,36.9,9.68,42.11,26.81,46.52,21.8,31.87c-3.15-9.21,2-3.53,2-3.53S40.27,16.51,24.25,13c-14.8-3.24-5.64,12.07-5.64,12.07S13.82,24,16,29.82Z"/><ellipse class="cls-12" cx="19.04" cy="14.49" rx="1.42" ry="1.22" transform="translate(-1.84 2.8) rotate(-8.02)"/><ellipse class="cls-12" cx="11.04" cy="35.75" rx="1.42" ry="1.22" transform="translate(-4.88 1.89) rotate(-8.02)"/><ellipse class="cls-12" cx="10.28" cy="40.04" rx="1.42" ry="1.22" transform="translate(-5.48 1.83) rotate(-8.02)"/><ellipse class="cls-12" cx="15.73" cy="37.03" rx="1.42" ry="1.22" transform="translate(-5.01 2.56) rotate(-8.02)"/><ellipse class="cls-12" cx="19.49" cy="34.22" rx="1.42" ry="1.22" transform="translate(-4.58 3.05) rotate(-8.02)"/><ellipse class="cls-12" cx="20.37" cy="39.79" rx="1.42" ry="1.22" transform="translate(-5.35 3.23) rotate(-8.02)"/><ellipse class="cls-12" cx="15.54" cy="41.82" rx="1.42" ry="1.22" transform="translate(-5.68 2.58) rotate(-8.02)"/><ellipse class="cls-12" cx="15.07" cy="32.88" rx="1.42" ry="1.22" transform="translate(-4.44 2.42) rotate(-8.02)"/><ellipse class="cls-12" cx="17.94" cy="19.71" rx="1.42" ry="1.22" transform="translate(-2.57 2.7) rotate(-8.02)"/><ellipse class="cls-12" cx="27.59" cy="17.69" rx="1.42" ry="1.22" transform="translate(-2.2 4.02) rotate(-8.02)"/><ellipse class="cls-12" cx="24.42" cy="14.21" rx="1.42" ry="1.22" transform="translate(-1.74 3.55) rotate(-8.02)"/><ellipse class="cls-12" cx="22.35" cy="18.43" rx="1.42" ry="1.22" transform="translate(-2.35 3.3) rotate(-8.02)"/><ellipse class="cls-12" cx="20.87" cy="22.52" rx="1.42" ry="1.22" transform="translate(-2.94 3.13) rotate(-8.02)"/><ellipse class="cls-12" cx="25.69" cy="22.16" rx="1.42" ry="1.22" transform="translate(-2.84 3.8) rotate(-8.02)"/><ellipse class="cls-12" cx="23.42" cy="25.18" rx="1.42" ry="1.22" transform="translate(-3.28 3.51) rotate(-8.02)"/><ellipse class="cls-11" cx="19.78" cy="28.54" rx="3.27" ry="4.38" transform="translate(-14.28 35.32) rotate(-66.53)"/></svg>