<svg id="Layer_1" data-name="Layer 1" xmlns="http://www.w3.org/2000/svg" viewBox="0 0 500 650"><defs><style>.cls-1{fill:#4a2a15;}.cls-2{fill:#fad2c6;}.cls-19,.cls-2,.cls-3,.cls-5,.cls-7,.cls-8{stroke:#323232;stroke-miterlimit:10;stroke-width:0.25px;}.cls-3{fill:#fccd3a;}.cls-4{fill:#be9030;}.cls-5{fill:#fbd3c7;}.cls-6{fill:#dc9e8f;}.cls-7{fill:#ffe57b;}.cls-8{fill:#e0604f;}.cls-9{fill:#f5927d;}.cls-10{fill:#fab51b;}.cls-11{fill:#f17125;}.cls-12{fill:#80351b;}.cls-13{fill:#75451c;}.cls-14{fill:#a66638;}.cls-15{fill:#925b24;}.cls-16{fill:#e69847;}.cls-17{fill:#5f2710;}.cls-18{fill:#fff;}.cls-19{fill:none;}.cls-20{fill:#e4a58c;}</style></defs><polygon class="cls-1" points="296.46 474.44 306.01 579.92 307.68 579.9 298.09 474.44 296.46 474.44"/><polygon class="cls-1" points="214.57 474.33 204.67 579.92 203.01 579.9 212.94 474.33 214.57 474.33"/><path class="cls-2" d="M235.31,544.19a.89.89,0,0,0,.06-1h-9.82a5.83,5.83,0,0,1-1.66,5.14c-3.07,3.43,6.78,5.89,6.78,5.89l5.39-4.6A4.24,4.24,0,0,1,235.31,544.19Z"/><path class="cls-3" d="M218.44,548.45c.21.49-2.92,9.2-4.13,32.8L241,583.09s-2.38-11.32-1.59-19.13l1.82,2.58,1.79-.73a7.66,7.66,0,0,0,3.38-2.68l1.15-1.64s-7.16-14-11.69-12.37l-1.18.93a6.2,6.2,0,0,1-2.42.66,8.08,8.08,0,0,1-7.34-4.07c-.53-.8-4.95,1.25-4.95,1.25Z"/><path class="cls-4" d="M216.56,562.69s16.61,5.71,22.37,2l-.13,2.85s-5.48,4.85-22.84-2.72Z"/><path class="cls-4" d="M215.36,567.52s18.09,7.17,23.28,2.05l.29,2.85s-6.79,5.32-23.75-2.45Z"/><path class="cls-5" d="M264.6,568.7l7.52,5.1,1.57-3.94-4.27-4.57,1.37-2.21.67-1.09-4.21-4.43-1.4,1.85-1.53,2C262.73,563.53,262.43,567.22,264.6,568.7Z"/><path class="cls-6" d="M265.91,559.5a7.7,7.7,0,0,0,4.76,3.55l.79-1.06-4.21-4.43Z"/><path class="cls-5" d="M292,564.08c.13.81.33,1.83.57,3,.16.76.35,1.56.54,2.39,1.16,4.91,2.78,10.64,3.47,11.54,1,1.28,3.19-1.62,3.19-1.62a74.8,74.8,0,0,0-1.18-11.46c-.1-.6-.2-1.17-.3-1.7-.41-2.3-.76-3.85-.76-3.85S291.28,559.55,292,564.08Z"/><path class="cls-6" d="M292,564.08c.13.81.44,1.88.69,3,2.16,1,4.31-.12,5.5-.85-.41-2.3-.66-3.91-.66-3.91S291.28,559.55,292,564.08Z"/><path class="cls-2" d="M287.22,551.41s-1.87-1-1.28-2.8a.51.51,0,0,0,0-.17h-7.29a2.26,2.26,0,0,1-.19,1.92,5.17,5.17,0,0,1-.67,1c-1.2,1.51,7.6,3.1,7.88,3.27s2-1.62,2-1.62l-.37-1.25Z"/><path class="cls-6" d="M285.94,548.61a.51.51,0,0,0,0-.17h-7.26a2.15,2.15,0,0,1-.1,2,14.23,14.23,0,0,0,8.72,1.39l-.11-.4S285.35,550.37,285.94,548.61Z"/><path class="cls-7" d="M270,554.33l-3.71,3.9h0a8,8,0,0,0,4.66,4.48l.55.2,1.72-3.31-1.37,19.48a11.55,11.55,0,0,0,10.54,5.53c8-.25,11.91-4.82,11.91-4.82S292,564.25,291.82,562v-.09c-.19-2.61.32-4.18,2.52-5.6v-.61c.56-.36.36-.8-.28-1l.12-.93a16.28,16.28,0,0,0-6.95-2.35h0s-1,2.13-4.76,1.84-4.38-2.38-4.38-2.38l-1.52.18A10.87,10.87,0,0,0,270,554.33Z"/><path class="cls-8" d="M291.58,561.89c.13.24-14.49,4.09-18.64-3.2l-5.18,22s13.26,10.84,26.69-.54Z"/><path class="cls-8" d="M287.22,551.41s.61,10.38.17,13.19l1.77,1,1.25-1.88a47.24,47.24,0,0,0-2.16-12.13Z"/><path class="cls-8" d="M277.82,550.87s-.62,8.86-.32,13l-1.63,1-.95-1.58s0-7.54,1.64-12.33Z"/><path class="cls-7" d="M294,553.63c1.72.93,4.78,10.47,4.79,11.63,0,.32-2,1-3.54,1.14a6.94,6.94,0,0,1-3-.5s-.31-2.06-.7-5.09"/><circle class="cls-9" cx="276.94" cy="574.99" r="1.86"/><circle class="cls-9" cx="277.01" cy="568.7" r="1.86"/><circle class="cls-9" cx="272.68" cy="571.94" r="1.86"/><circle class="cls-9" cx="289.29" cy="569.56" r="1.86"/><circle class="cls-9" cx="276.69" cy="581.21" r="1.86"/><circle class="cls-9" cx="283.72" cy="581.3" r="1.86"/><circle class="cls-9" cx="290.06" cy="579.55" r="1.86"/><circle class="cls-9" cx="271.4" cy="576.36" r="1.86"/><circle class="cls-9" cx="287.2" cy="574.67" r="1.86"/><circle class="cls-9" cx="281.63" cy="575.59" r="1.86"/><circle class="cls-9" cx="283.31" cy="569.75" r="1.86"/><circle class="cls-9" cx="280.14" cy="565.52" r="1.86"/><circle class="cls-9" cx="285.08" cy="565.53" r="1.86"/><ellipse class="cls-9" cx="273.21" cy="565.9" rx="1.56" ry="1.86" transform="translate(-17.56 8.82) rotate(-1.79)"/><ellipse class="cls-9" cx="291.94" cy="575.43" rx="1.42" ry="1.69" transform="translate(-17.85 9.41) rotate(-1.79)"/><ellipse class="cls-9" cx="271.08" cy="580.33" rx="1.42" ry="1.69" transform="translate(-18.01 8.76) rotate(-1.79)"/><path class="cls-5" d="M275.58,571.82c.67.18,2.2.45,2.11,1.34,0,.36-1.43.1-2.75-.13a11.44,11.44,0,0,1-1.73-.78c-.07.1.45.55,1.21.87.41.18,1.94-.06,2,1.06,0,.2-1.88.15-2.32.14-.71,0-4.09-2.16-4.26-2.32-.7-.71-.49-2.61.15-3.79.78-1.33,2.61-1.57,4.34-1.36a19.84,19.84,0,0,1,3.09,1.07c2.23,1.5,3.35,2.11,3,2.51-.8,1-2.57-.27-3.54-.79a11.14,11.14,0,0,0-2.24-.67c-.15.17,1.33.62,2.12,1,.63.32,2.74,1.61,2.47,2-.74,1-1.48.12-3.2-.56a9.05,9.05,0,0,0-2.16-.43C273.93,571.15,274.33,571.28,275.58,571.82Z"/><path class="cls-10" d="M310.34,471.31l-4.71-.21-16.8-.71-16.14-.68-37.8-1.6-16.29-.68-19.74-.84-2-.09S10.79,257.19,25.58,152.54c8-56.42,34.89-85.76,58-100.85l.07,0c19.74-12.83,36.67-15.27,36.67-15.27a118.2,118.2,0,0,1,17.17-9.15h0c24.34-10.46,45.13-9.1,55.88-7.16a52.37,52.37,0,0,1,7.86,1.9c59-26.12,96.18-2.52,102.61,2.12.68.49,1,.76,1,.76,26.68-9,50.62-4.46,65.83.83a89.06,89.06,0,0,1,17.06,7.81A168,168,0,0,1,428.65,55l0,0,.07.06C581.12,167.43,310.34,471.31,310.34,471.31Z"/><path class="cls-11" d="M315.28,160.23c0,121-20.11,258.18-42.59,309.48l-37.8-1.6C216.45,425.74,202,327.93,191,214.8c-8.87-91.74-6.08-153.45,2.39-194.74a52.37,52.37,0,0,1,7.86,1.9c59-26.12,96.18-2.52,102.61,2.12C310.86,58.4,315.28,103.53,315.28,160.23Z"/><path class="cls-11" d="M305.63,471.1l-16.8-.71C453.34,202.31,406.07,48.84,374.19,27l54.46,28,0,0S401,39.4,401,39.42C559.52,150.62,350.87,416.45,305.63,471.1Z"/><path class="cls-11" d="M218.6,467.43l-19.74-.84C147.3,403.32-36.74,160.31,83.58,51.69l.07,0c19.74-12.83,36.67-15.27,36.67-15.27,5.86-3.76-2.42.43,3.14-1.95C103.8,70.56,61.9,207.52,218.6,467.43Z"/><ellipse class="cls-12" cx="255.92" cy="467.95" rx="58.43" ry="10.18"/><path class="cls-13" d="M302.43,637.74h0c-30.49,2.72-57.86,3.31-89.87.82h0c-9-1.49-15.35-6.11-16-11.56l-4.27-37.52H317.77l-3.5,39.27C313.9,632.9,309.19,636.48,302.43,637.74Z"/><rect class="cls-14" x="202.22" y="593.5" width="12.44" height="2.18" rx="0.79"/><rect class="cls-14" x="202.22" y="600.34" width="12.44" height="2.18" rx="0.79"/><rect class="cls-14" x="202.22" y="607.17" width="12.44" height="2.18" rx="0.79"/><rect class="cls-14" x="202.22" y="614" width="12.44" height="2.18" rx="0.79"/><rect class="cls-14" x="202.22" y="620.83" width="12.44" height="2.18" rx="0.79"/><rect class="cls-14" x="202.22" y="627.66" width="12.44" height="2.18" rx="0.79"/><rect class="cls-14" x="220.88" y="593.5" width="12.44" height="2.18" rx="0.79"/><rect class="cls-14" x="220.88" y="600.34" width="12.44" height="2.18" rx="0.79"/><rect class="cls-14" x="220.88" y="607.17" width="12.44" height="2.18" rx="0.79"/><rect class="cls-14" x="220.88" y="614" width="12.44" height="2.18" rx="0.79"/><rect class="cls-14" x="220.88" y="620.83" width="12.44" height="2.18" rx="0.79"/><rect class="cls-14" x="220.88" y="627.66" width="12.44" height="2.18" rx="0.79"/><rect class="cls-14" x="239.55" y="593.5" width="12.44" height="2.18" rx="0.79"/><rect class="cls-14" x="239.55" y="600.34" width="12.44" height="2.18" rx="0.79"/><rect class="cls-14" x="239.55" y="607.17" width="12.44" height="2.18" rx="0.79"/><rect class="cls-14" x="239.55" y="614" width="12.44" height="2.18" rx="0.79"/><rect class="cls-14" x="239.55" y="620.83" width="12.44" height="2.18" rx="0.79"/><rect class="cls-14" x="239.55" y="627.66" width="12.44" height="2.18" rx="0.79"/><rect class="cls-14" x="258.21" y="593.5" width="12.44" height="2.18" rx="0.79"/><rect class="cls-14" x="258.21" y="600.34" width="12.44" height="2.18" rx="0.79"/><rect class="cls-14" x="258.21" y="607.17" width="12.44" height="2.18" rx="0.79"/><rect class="cls-14" x="258.21" y="614" width="12.44" height="2.18" rx="0.79"/><rect class="cls-14" x="258.21" y="620.83" width="12.44" height="2.18" rx="0.79"/><rect class="cls-14" x="258.21" y="627.66" width="12.44" height="2.18" rx="0.79"/><rect class="cls-14" x="276.98" y="593.5" width="12.44" height="2.18" rx="0.79"/><rect class="cls-14" x="276.98" y="600.34" width="12.44" height="2.18" rx="0.79"/><rect class="cls-14" x="276.98" y="607.17" width="12.44" height="2.18" rx="0.79"/><rect class="cls-14" x="276.98" y="614" width="12.44" height="2.18" rx="0.79"/><rect class="cls-14" x="276.98" y="620.83" width="12.44" height="2.18" rx="0.79"/><rect class="cls-14" x="276.98" y="627.66" width="12.44" height="2.18" rx="0.79"/><rect class="cls-14" x="295.76" y="593.5" width="12.44" height="2.18" rx="0.79"/><rect class="cls-14" x="295.76" y="600.34" width="12.44" height="2.18" rx="0.79"/><rect class="cls-14" x="295.76" y="607.17" width="12.44" height="2.18" rx="0.79"/><rect class="cls-14" x="295.76" y="614" width="12.44" height="2.18" rx="0.79"/><rect class="cls-14" x="295.76" y="620.83" width="12.44" height="2.18" rx="0.79"/><rect class="cls-14" x="295.76" y="627.66" width="12.44" height="2.18" rx="0.79"/><rect class="cls-15" x="181.91" y="580.22" width="146.99" height="9.81" rx="3.56"/><rect class="cls-16" x="185.29" y="580.83" width="138.88" height="4.9" rx="1.78"/><ellipse class="cls-17" cx="255.99" cy="468.07" rx="52.23" ry="8.35"/><path class="cls-3" d="M224.91,546.64c-1-.6-8.79-2.36-14.92,15.56l.59.48a9.28,9.28,0,0,0,5.57,1.94l1-.07L221,557.9"/><ellipse class="cls-5" cx="295.21" cy="579.58" rx="2.22" ry="1.05" transform="translate(-17.98 9.51) rotate(-1.79)"/><ellipse class="cls-18" cx="299.07" cy="579.39" rx="1.96" ry="0.25" transform="translate(-69.28 41.38) rotate(-7.1)"/><path class="cls-5" d="M297.29,577.93c1.3-.33,1.21,1,1.38,2.34s-.17,2.55-.76,2.62-1.22-1-1.39-2.35S296.71,578.07,297.29,577.93Z"/><path class="cls-5" d="M299.25,577.68c1.94-.18,1,1,1.18,2.35s-.09,2.5-.57,2.56-1-1-1.19-2.34S298.76,577.73,299.25,577.68Z"/><path class="cls-5" d="M301.12,577.61c1.83,0,1.11.94,1.28,2.25s-.15,2.43-.69,2.49-1.11-.94-1.27-2.25S300.58,577.62,301.12,577.61Z"/><path class="cls-5" d="M302.86,578c1-.15,1.1.68,1.23,1.7s-.39,1.93-.77,2-.79-.73-.91-1.75S302.43,578.11,302.86,578Z"/><polygon class="cls-1" points="306.95 466.14 317.92 580.05 319.94 580.05 308.55 466.14 306.95 466.14"/><polygon class="cls-1" points="205.03 466.02 194.07 579.93 192.04 579.93 203.43 466.02 205.03 466.02"/><path class="cls-19" d="M238.79,564.92a19,19,0,0,0,1.14-8.34"/><path class="cls-5" d="M201.94,582.25a1,1,0,0,1-1.13.27.79.79,0,0,1-.35-1.06,2.32,2.32,0,0,1,.4-.43c.32-.33.49-.79.82-1.11a1.93,1.93,0,0,1,1.24-.47,5.47,5.47,0,0,1,1.33.14,2.46,2.46,0,0,1-1,2.31C202.77,582.21,202.46,582.14,201.94,582.25Z"/><path class="cls-5" d="M201.39,583.73c.66.1,1-.07,1.19-.3-.05.46.09.94.9.77,1.49-.3,1.31-2.17,4.14-2.48s6.38.56,6.69-.47-1.28-1.09-1.47-1.13-1.56-.31-1.64-.65a40.2,40.2,0,0,0,2-10.42s-.3,0,0-.35c.14-.16,1.4-1.83,2.23-3,.38-.53.68-1,.74-1.09a5.14,5.14,0,0,1-3-.5A32,32,0,0,1,210,562.2l-.4,1c-.41,1.07-1,2.64-1.32,3.15a10.78,10.78,0,0,0-1.25,3.32,60.91,60.91,0,0,0-.46,8.35s.84,0-1.17.51S199.83,583.5,201.39,583.73Z"/><path class="cls-20" d="M209.79,563.38a6.27,6.27,0,0,0,5.35,2.35c.38-.54.69-.86.75-1a6.35,6.35,0,0,1-3-.69,21.16,21.16,0,0,1-2.78-1.63S210,562.77,209.79,563.38Z"/><path class="cls-19" d="M211.52,579.71a1.68,1.68,0,0,0-1.88-.83"/><path class="cls-19" d="M202.64,582.93a8,8,0,0,1,3.25-3"/><path class="cls-19" d="M213.27,569.05a4.67,4.67,0,0,0-4.15-1"/><path class="cls-6" d="M235.55,549.12s-1.46-1.58-10.42-2.66v.32S231.81,551.76,235.55,549.12Z"/><path class="cls-19" d="M273,558.53a5.67,5.67,0,0,1-.2-4.73"/><path class="cls-19" d="M291.55,560.72a17.17,17.17,0,0,0,.86-4.91"/><path class="cls-19" d="M269.52,565.29a6.54,6.54,0,0,0-3.86-.93"/></svg>