<svg id="Layer_1" data-name="Layer 1" xmlns="http://www.w3.org/2000/svg" viewBox="0 0 52.85 35.38"><defs><style>.cls-1{fill:#fbd3c7;}.cls-1,.cls-2{stroke:#323232;stroke-miterlimit:10;stroke-width:0.5px;}.cls-2{fill:none;}.cls-3{fill:#e4a68d;}</style></defs><path class="cls-1" d="M49,24.85s-.48-4-1.36-4.89-4.29-3.08-10-4.19S19.85,7.16,16.34,5.27C14.05,4,11.4,2.46,9.57,1.41,7.9,3.86,5,5.43,2.41,6.71a4.78,4.78,0,0,1-.48.19l-.4.28c3.9,2.67,9,5.89,9,5.89C15,16.2,26.22,18.85,28.93,19.14s4.84,1.05,5.65,3.08c1.51,3.78,1.19,4,2.22,5s.27,3,1.38,2.74,1.54-2.72.59-4.39-.28-1.73-.28-1.73c7.49,1.25,13,5.48,13,3.94S49,24.85,49,24.85Z"/><path class="cls-2" d="M49.06,24.75a27,27,0,0,1-4.12-3"/><path class="cls-2" d="M48.78,23.44a12.69,12.69,0,0,0-3-3.33"/><path class="cls-2" d="M48.46,21.79a14,14,0,0,0-1.63-1.89"/><path class="cls-3" d="M9.48,1.55C7.79,3.92,5,5.46,2.41,6.71a4.78,4.78,0,0,1-.48.19L1.74,7l1.66,1S9.11,5.61,10.72,2.4Z"/></svg>