<svg id="Layer_1" data-name="Layer 1" xmlns="http://www.w3.org/2000/svg" viewBox="0 0 21.17 7.96"><defs><style>.cls-1{fill:#dc9e8f;}.cls-2{fill:#fff;stroke:#3d2d16;stroke-miterlimit:10;stroke-width:0.5px;}.cls-3{fill:#3d2d16;}.cls-4{fill:#fff7f4;}.cls-5{fill:#f9d1c6;}</style></defs><path class="cls-1" d="M.6,3.91A3.09,3.09,0,0,1,2,1.86a5.2,5.2,0,0,1,2.3-.71,3.15,3.15,0,0,1,1.55.17,2.56,2.56,0,0,1,1,.88,3.3,3.3,0,0,1,.4,3.23,2,2,0,0,1-2.66,1,4.71,4.71,0,0,1-.81-.68,1.73,1.73,0,0,0-.9-.5.75.75,0,0,0-.83.48c-.09.29.09.81-.16,1s-.52,0-.7-.15A3.66,3.66,0,0,1,.6,3.91Z"/><path class="cls-2" d="M7.39,4.78c.12,1.69-1.23,2.69-3.08,2.83a4.14,4.14,0,0,1-1.62-.18A2.31,2.31,0,0,1,1.12,5.27a3,3,0,0,1,.71-2A3.84,3.84,0,0,1,4.47,1.81C6.32,1.68,7.28,3.13,7.39,4.78Z"/><circle class="cls-3" cx="4.24" cy="4.74" r="1.78"/><circle class="cls-4" cx="5.15" cy="4.1" r="0.55"/><path class="cls-1" d="M13.55,3.12a3.09,3.09,0,0,1,1.39-2A5.16,5.16,0,0,1,17.23.36a3.17,3.17,0,0,1,1.56.17,2.63,2.63,0,0,1,1,.88,3.32,3.32,0,0,1,.4,3.23,2,2,0,0,1-2.67,1A5.13,5.13,0,0,1,16.74,5a1.7,1.7,0,0,0-.89-.5.75.75,0,0,0-.83.48c-.1.29.09.81-.16,1s-.53,0-.7-.15A3.61,3.61,0,0,1,13.55,3.12Z"/><path class="cls-2" d="M20.34,4c.12,1.69-1.23,2.69-3.08,2.83a4.12,4.12,0,0,1-1.62-.18,2.31,2.31,0,0,1-1.57-2.16,3,3,0,0,1,.71-2A3.84,3.84,0,0,1,17.42,1C19.27.89,20.22,2.34,20.34,4Z"/><circle class="cls-3" cx="17.18" cy="3.82" r="1.78"/><circle class="cls-4" cx="18.1" cy="3.31" r="0.55"/><path class="cls-5" d="M1.12,3.86s4.45-1.53,6.28.88c0,0,1-3.59-3.07-3.59C4.33,1.15,1.39,1.15,1.12,3.86Z"/><path class="cls-5" d="M14.26,2.76s4.55-.7,6.34,1.34c0,0,.1-3.57-3.05-3.76A3.7,3.7,0,0,0,14.26,2.76Z"/></svg>