<svg id="Layer_1" data-name="Layer 1" xmlns="http://www.w3.org/2000/svg" xmlns:xlink="http://www.w3.org/1999/xlink" viewBox="0 0 147.05 31.75"><defs><style>.cls-1{fill:none;}.cls-2{clip-path:url(#clip-path);}.cls-3{fill:#eb652f;}.cls-4{fill:#f6a42c;}.cls-5{fill:#fff18b;}.cls-6{fill:#281b17;}.cls-7{fill:#473a3a;}.cls-8{fill:#5e5454;}</style><clipPath id="clip-path"><path class="cls-1" d="M62.86,1.45s16.4-.07,19.68.14c0,0,5.86,4.2,1.43,7.64s-10.91,5.92-16.16,4.45S57.58,5.67,62.86,1.45Z"/></clipPath></defs><g class="cls-2"><path class="cls-3" d="M73.26,10.48c-2.7,0-6.68-.91-6.68-3.5a3.55,3.55,0,0,1,2.51-3.32,1.87,1.87,0,0,0-.65,1.2,6,6,0,0,1,3.73-1.95c2.37-.39,4-.51,5-1.66.35.56-.48,1.44-1,1.6.39,0,3.67-.91,3.29-2.84a1.58,1.58,0,0,1,.38,1.93c-.2.35-.94,1.78-4.28,2.17-2.37.28-4,1.18-4,2.24,0,.44.54,1,1.73,1s1.63-.49,1.63-1c0-.77-1.46-1.13-1.46-1.13a6.16,6.16,0,0,1,3.63.46c-.2-.37-1.33-.75-1.33-.75.7,0,3.21.54,3.21,2.4S75.8,10.48,73.26,10.48Z"/><path class="cls-3" d="M72.67-3.51c.72.18,2.28.86,2.41,1.66S74.41-.17,74.6.27a1.93,1.93,0,0,0,1.33,1,5.87,5.87,0,0,1-3,1c-2.31.27-2.45-.53-2.26-1.12.5-1.58,2.85-1.57,2.95-3A1.56,1.56,0,0,0,72.67-3.51Z"/><path class="cls-3" d="M71.09-.52c-3.2,2-.93,3.09-.93,3.09-.85,0-2.81-.34-2.15-1.71S71.09-.52,71.09-.52Z"/><path class="cls-3" d="M76.47-1.62c1,.27,2.35,1.53,1.11,2.12-.47.22-1.28-.08-.67-.74S76.47-1.62,76.47-1.62Z"/><path class="cls-3" d="M77.71,4.66a3.7,3.7,0,0,1,2.36,1.73c.85,1.89-1.19,3-1.19,3,.88-.17,2.45-.59,2.45-2.42C81.33,5.84,79.55,4.65,77.71,4.66Z"/><path class="cls-3" d="M65.89,6c-1,1.89.2,3.36,2.44,3.93-1.63-.2-2.84-.5-3.31-1.35C64.26,7.26,65.89,6,65.89,6Z"/><path class="cls-4" d="M73.26,10.48c-1.44,0-4.93-.75-5.21-3.48a3.76,3.76,0,0,0,2.54,1.85A1.77,1.77,0,0,1,70.18,6c-.09,1.39,1.65,2.22,3.08,2.22s2.39-.91,2.39-1.66a1.54,1.54,0,0,1-.52,2.33,6.19,6.19,0,0,0,2.58-1.31C77.84,9.1,74.7,10.48,73.26,10.48Z"/><path class="cls-5" d="M73.26,10.48a4.4,4.4,0,0,1-2.3-1c.69.23,1.41-.39,1.06-.89a3.77,3.77,0,0,0,3.19.62C75.13,9.89,74,10.32,73.26,10.48Z"/><path class="cls-4" d="M71.94,1.58c-.8.17-.79-1,.72-1.79C72.66.37,72.75,1.4,71.94,1.58Z"/></g><path class="cls-6" d="M102.27,29.92c-1.71-1.18-16.58-9.23-17-9.45a3.61,3.61,0,0,1,.67-.26l.77-.89c.32.09,16.49,9.32,18.15,10.46Z"/><path class="cls-6" d="M46.48,30.31l-2.57-.16c1.3-.94,15.94-11.27,16.3-11.36l2.57.46-.64.13C61.78,19.62,47.89,29.3,46.48,30.31Z"/><path class="cls-7" d="M57.18,12.17v7.36H89.29V11.59s-2.11-1-7-1.25a113.34,113.34,0,0,0-21,.39S58.14,10.92,57.18,12.17Z"/><ellipse class="cls-8" cx="73.24" cy="18.79" rx="16.06" ry="3.19"/><path class="cls-8" d="M88.46,15.6c.51,0,52.58-7.3,55.09-8"/><path class="cls-6" d="M88.46,16.42V15.6l-.06-.82c.35,0,50.9-7,53.69-7.73l3.51.75C143.88,8.26,89.46,16.42,88.46,16.42Z"/><path class="cls-8" d="M58.59,14.82c-.51,0-48.4-7.69-54.13-7.77"/><path class="cls-6" d="M58.59,15.64c-.16,0-.67-.07-7.38-1-13.68-2-45.47-7.73-49.77-7.79L5.6,6.07C10,6.13,37.73,11,51.45,13c3.87.56,6.92,1,7.19,1Z"/></svg>