<svg id="Layer_1" data-name="Layer 1" xmlns="http://www.w3.org/2000/svg" viewBox="0 0 28 17"><defs><style>.cls-1{fill:#bb7757;}.cls-2{fill:#765a47;}.cls-3{fill:#dc9e8f;}</style></defs><g id="neutral"><path class="cls-1" d="M22,12.39c.22,0-5.61,1.77-10.18.07A17.3,17.3,0,0,1,4.1,5.78c.07-.37,2.81,3.08,8.15,5.09C14.25,11.62,21.36,12.44,22,12.39Z"/><path class="cls-1" d="M22.23,12.31c.06-.25-5.56-.3-10.11-2s-8.07-5-8.2-4.74,3.36,4.1,7.82,5.75C16.46,13.08,22.18,12.57,22.23,12.31Z"/><path class="cls-2" d="M3.8,5.47a25.85,25.85,0,0,0,8.35,6,20.56,20.56,0,0,0,10,.82,22.69,22.69,0,0,1-10-.82C7.69,10,3.8,5.47,3.8,5.47Z"/><path class="cls-3" d="M4,4.76c.43-.51-.1-.54-.43-.07a3.16,3.16,0,0,0-.28,1.48A15.51,15.51,0,0,1,4,4.76Z"/><path class="cls-3" d="M22.73,11.66c-.08-.64.39-.41.4.15S22.45,13,22.45,13C22.77,12,22.76,11.87,22.73,11.66Z"/></g></svg>