<svg id="Layer_1" data-name="Layer 1" xmlns="http://www.w3.org/2000/svg" viewBox="0 0 30 20"><defs><style>.cls-1{fill:#f6fbfd;stroke:#323232;stroke-miterlimit:10;stroke-width:0.5px;}.cls-2{fill:#ce9685;}.cls-3{fill:#451f16;}.cls-4{fill:#fff;}</style></defs><path class="cls-1" d="M28.34,5.25a5.46,5.46,0,0,1-2.85,6.86,4.8,4.8,0,0,1-6.6-2.45A5.46,5.46,0,0,1,21.74,2.8,4.8,4.8,0,0,1,28.34,5.25Z"/><path class="cls-2" d="M28.37,9.31a5.79,5.79,0,0,0,0-4.38,4.76,4.76,0,0,0-6.6-2.13c-1.22.64-2.33,1.5-3.3,4.08a6,6,0,0,1,4.07-5.12c2-.59,4.61-.17,5.72,2C29.2,5.57,29.58,8.19,28.37,9.31Z"/><path class="cls-3" d="M24.41,11.22c-.51,1.19-2,1.47-3.36.62a3.21,3.21,0,0,1-1.51-3.69c.51-1.18,2-1.46,3.36-.61A3.19,3.19,0,0,1,24.41,11.22Z"/><path class="cls-4" d="M22.89,7a1,1,0,0,1-.12,1.29.84.84,0,0,1-1.22-.16,1,1,0,0,1,.12-1.29A.85.85,0,0,1,22.89,7Z"/><path class="cls-1" d="M1.31,14.5a5,5,0,0,0,5.56,3.93,4.4,4.4,0,0,0,3.6-5.35A5,5,0,0,0,4.92,9.15,4.41,4.41,0,0,0,1.31,14.5Z"/><path class="cls-2" d="M4.18,18a5,5,0,0,1-2.69-3.5A4.47,4.47,0,0,1,5.18,9.16C6.45,9,7.45,9.31,9.49,11,7.9,8.94,5.85,8.26,4,8.88a4.46,4.46,0,0,0-3.13,4.8C1.17,15.8,2.72,17.67,4.18,18Z"/><path class="cls-3" d="M2.74,13.8c.63-1,2-1,3.13-.09a2.85,2.85,0,0,1,.84,3.51c-.63,1-2,1-3.13.09A2.86,2.86,0,0,1,2.74,13.8Z"/><path class="cls-4" d="M6,12.87a1,1,0,1,1-1.33-.13A.93.93,0,0,1,6,12.87Z"/></svg>