<svg id="Layer_1" data-name="Layer 1" xmlns="http://www.w3.org/2000/svg" viewBox="0 0 13.71 7.83"><defs><style>.cls-1{fill:#f5968e;}.cls-2{fill:#f48678;}.cls-3{fill:#765a47;}.cls-4{fill:#e9a597;opacity:0.5;}</style></defs><g id="neutral"><path class="cls-1" d="M12.4,2.49a10.63,10.63,0,0,1-4.59,2.6,10.53,10.53,0,0,1-5.29-.44,20.45,20.45,0,0,0,5.07-.24A35.84,35.84,0,0,0,12.4,2.49Z"/><path class="cls-2" d="M12.5,2.4A39.89,39.89,0,0,1,7.39,4.25a29.08,29.08,0,0,1-5,.38,11.11,11.11,0,0,0,5.1.08A13.25,13.25,0,0,0,12.5,2.4Z"/><path class="cls-3" d="M2.3,4.61a16.06,16.06,0,0,0,5.41,0,12.7,12.7,0,0,0,4.76-2.24A14,14,0,0,1,7.71,4.66,14.75,14.75,0,0,1,2.3,4.61Z"/><path class="cls-4" d="M2.19,4.31C2.24,4,2,4.14,2,4.39a1.14,1.14,0,0,0,.27.6A5.53,5.53,0,0,1,2.19,4.31Z"/><path class="cls-4" d="M12.54,2c-.21-.21.07-.25.23-.05s0,.61,0,.61C12.65,2.14,12.61,2.11,12.54,2Z"/></g></svg>