<svg id="Layer_1" data-name="Layer 1" xmlns="http://www.w3.org/2000/svg" viewBox="0 0 720 1000"><defs><style>.cls-1,.cls-14,.cls-3,.cls-7{fill:#fad2c6;}.cls-1,.cls-10,.cls-13,.cls-14,.cls-15,.cls-16,.cls-3,.cls-32,.cls-33,.cls-5,.cls-6,.cls-7,.cls-9{stroke:#323232;stroke-miterlimit:10;}.cls-1,.cls-10,.cls-13,.cls-32,.cls-33,.cls-9{stroke-width:0.25px;}.cls-2{fill:#4a2a15;}.cls-3,.cls-5,.cls-6{stroke-width:0.5px;}.cls-4{fill:#dc9e8f;}.cls-5{fill:#9b9b9b;}.cls-6{fill:#9cb9e1;}.cls-8{fill:#e4a58c;}.cls-9{fill:#ffe57b;}.cls-10{fill:#e0604f;}.cls-11{fill:#f18d7a;}.cls-12{fill:#323232;}.cls-13{fill:#fccd3a;}.cls-14{stroke-width:0.75px;}.cls-15{fill:#81a6d6;}.cls-16{fill:#597dbe;}.cls-17{fill:#3c62a0;}.cls-18{fill:#e6825a;}.cls-19{fill:#fab51b;}.cls-20{fill:#f17125;}.cls-21{fill:#80351b;}.cls-22{fill:#75451c;}.cls-23{fill:#a66638;}.cls-24{fill:#925b24;}.cls-25{fill:#e69847;}.cls-26{fill:#5f2710;}.cls-27{fill:#e13e26;}.cls-28{fill:#fddf0e;}.cls-29{fill:#281b17;}.cls-30{fill:#473a3a;}.cls-31{fill:#5e5454;}.cls-32{fill:none;}.cls-33{fill:#fbd3c7;}</style></defs><path class="cls-1" d="M355.32,844.13l2.77,4.21,11.16-6.17,1.95,4.4-12,10.48a2.39,2.39,0,0,1-3.23-.4L349.45,849Z"/><polygon class="cls-2" points="427.88 716.5 441.83 870.6 444.26 870.58 430.25 716.5 427.88 716.5"/><polygon class="cls-2" points="308.24 716.35 293.78 870.6 291.35 870.58 305.87 716.35 308.24 716.35"/><path class="cls-3" d="M422,832.47a4.65,4.65,0,0,1-1.64-1.27c-1.44-1.81-.37-4-.08-4.54H412.6a4.36,4.36,0,0,0-.22.72,7.55,7.55,0,0,1-1,2.88,1.8,1.8,0,0,1-2.3.88l3.16,7.88S426.08,834.54,422,832.47Z"/><path class="cls-4" d="M420.43,826.66h-7.59a4,4,0,0,0-.17.58,7.53,7.53,0,0,1-1,2.88c1.58.69,3.87,1.49,8.48,1.07C418.77,829.5,420,827.38,420.43,826.66Z"/><path class="cls-5" d="M417.82,915.69c.27-.69.62-1.81,1.5-2.16a.92.92,0,0,1,.68.1c.23.09.47.21.71.31s1.51.33,1.5.35c.05-.18,0-.36.06-.54a1.24,1.24,0,0,1,.31-.41,1.78,1.78,0,0,1,2-.26c.91.36,1.37,1.2,2,1.81a6.89,6.89,0,0,0,2.53,1.46,42.47,42.47,0,0,0,5.56,1.81,2.38,2.38,0,0,1,2.06,1.81c.16.77.22,1.94-.6,2.48a2.82,2.82,0,0,1-.87.34,3.89,3.89,0,0,1-.86.2,24,24,0,0,1-7.65-.34c-.46-.07-.9-.15-1.34-.24a33.46,33.46,0,0,1-3.39-1.07c-1-.37-1.89-.77-2.82-1.18a4.75,4.75,0,0,1-1.9-1.27c0-.26,0-.52,0-.78A12.65,12.65,0,0,1,417.82,915.69Z"/><path class="cls-6" d="M417.46,917.94c.17.13,5.9,2.95,8.91,3.55a28.38,28.38,0,0,0,4.88.55c1.81,0,4.49,0,5.27-1.6.08-.18-.07-.59-.13-.77A2.31,2.31,0,0,0,436,919c-.75-.75-1.94-.83-3-1.1a30.31,30.31,0,0,1-3.47-1.21,7.91,7.91,0,0,1-3.18-1.73c-.41-.45-.71-1-1.15-1.4-.92-.91-2.7-.3-2.7.88,0,0,0,.08-.1.07a8.64,8.64,0,0,1-2.7-.72.65.65,0,0,0-.35.09.47.47,0,0,0-.15.12,2.9,2.9,0,0,0-1.05,1.8C418,916.1,417.46,917.81,417.46,917.94Z"/><path class="cls-5" d="M425.07,916.49a3.89,3.89,0,0,1,1-.81c.26-.16.86-.47,1.22-.33a21.32,21.32,0,0,1,3.13,1.33,3.58,3.58,0,0,0-2,.64,3.36,3.36,0,0,0-.9.86c-.19.28-.31.7-.8.69a1,1,0,0,1-.33-.17C425.21,917.75,424.33,917.37,425.07,916.49Z"/><path class="cls-5" d="M399.42,917.23c.14-.42.3-.82.44-1.22a6.66,6.66,0,0,1,1.35-2.42c.58-.6,2-.46,1.58.45.08,0,.15.09.23.12a3,3,0,0,0,.76.25h.1a3.29,3.29,0,0,1,2.51-.69,1.8,1.8,0,0,1,1.22.57,2.11,2.11,0,0,1,.27.4,10.54,10.54,0,0,0,1.86,2.69,24.39,24.39,0,0,0,3.7,2.35c1.1.6,1.95,1,2.22,2.23a1.25,1.25,0,0,1-1.06,1.71,21.09,21.09,0,0,1-8.74-.2,10.44,10.44,0,0,1-3.57-2.32c-.28-.22-.54-.44-.81-.67l-1.17-1.13c-.42-.41-.94-.89-.94-1.49A4.6,4.6,0,0,1,399.42,917.23Z"/><path class="cls-6" d="M413.73,920c-1-.55-1.94-1.06-2.89-1.64a8.06,8.06,0,0,1-1.93-1.52,4,4,0,0,1-.61-1c-.1-.23-.19-.47-.3-.69a2.58,2.58,0,0,0-.44-.62,2.16,2.16,0,0,0-1.51-.67c-.49,0-3.78-.4-4.09-.34s-1.13.38-1.13.38c-.09.16-.48.87-.57,1s-.45.76-.57,1a1.67,1.67,0,0,0,0,1,20,20,0,0,0,2.51,2.17,38,38,0,0,0,3.26,2.5,8.8,8.8,0,0,0,5.14,1c.54,0,4.53.06,4.82-.75A2.91,2.91,0,0,0,413.73,920Z"/><path class="cls-5" d="M405.15,916.56a10.15,10.15,0,0,1,1.9-.47,3.71,3.71,0,0,1,1.88.16,6.21,6.21,0,0,1,2.13,2.1,7.81,7.81,0,0,0-3,0,4.09,4.09,0,0,0-1.13.39c-.28.17-.58.48-1,.3a1.3,1.3,0,0,1-.17-.26C405.09,917.58,404.14,917,405.15,916.56Z"/><path class="cls-7" d="M412.94,858.59c-.48.46-1.07,1-1.59,1.42-.52-.28-.85-.5-.84-.59S411.64,859,412.94,858.59Z"/><path class="cls-7" d="M412,860.11c-.34.13-1.14.44-1.77.7l-1.37-.13c-1.1-.13-.36-.9.66-1.8C410.2,859.24,411.17,859.71,412,860.11Z"/><path class="cls-7" d="M412,860.11l.17-.06C415.09,861.45,413.79,860.93,412,860.11Z"/><path class="cls-7" d="M411,857.6c.83-.81,1.32-1.53.37-1.8C420,854.42,414.46,856.42,411,857.6Z"/><path class="cls-7" d="M429.68,882.07a22,22,0,0,1-.56,3c-.38,1.64-.91,3.87-1.48,6.7a168.94,168.94,0,0,0-3,22.2c-.7.53-.52,1.09-2.25,1a6,6,0,0,1-2.51-.79s-2.1-12.53-2.25-14.76a23.16,23.16,0,0,1,.31-5.33c.1-.55.2-1,.28-1.41.1-3.6-1.16-2.25-1.29-2.83-.08-.37-.33-2.87-.63-5.71-.34-3.17-.74-6.75-1.06-8.26,0-.16-.52,2.78-.6,3.35a4.17,4.17,0,0,0-.07.93l-.18,1c-.06.52-.11,1-.16,1.55l-.15,1.4a52.4,52.4,0,0,1-.93,5.81c0,.09-.61,1.58-1.44,4a96.87,96.87,0,0,0-4.83,20.42c-1.6.52-1.33.67-3.31.46a2.2,2.2,0,0,1-1.65-1.13s-.39-13.34-.47-15.73a29.93,29.93,0,0,1,1.18-6.73,1,1,0,0,1,.08-.23,20.68,20.68,0,0,0-.92-5.38c-.09-.88-.36-.85-.54-1.33a2,2,0,0,1-.12-.57c-.15-1.24-1.34-1.1-1.48-2.34-.12-1,1.49-3,1.47-4,0-2.45,2.57-6.33,2.55-8.78,0-1.1,2.53-2,2.55-3.12,0-.54-.51-1.26,0-1.42,6.84-2,0,0,0-.28-.1-1.65,2.84-.93,3.12-2.55l.9-.37a78.26,78.26,0,0,0,9.19,0c1.59-.06,3.18-.05,4.77-.14,1.14-.07,2.88-.38,4,0a2.23,2.23,0,0,1,1.45,2.06,18.84,18.84,0,0,1,.18,3.52l0,0c.05.39.11.79.16,1.18a49.76,49.76,0,0,1,.39,5.16C430.49,875.9,429.79,878.85,429.68,882.07Z"/><path class="cls-8" d="M414.1,884.08a51.67,51.67,0,0,1-1.06,5.74c0,.09-.61,1.63-1.44,4a29.36,29.36,0,0,1-8.83-2.53c0-.13.09-.37.1-.39a15,15,0,0,0-1.06-5.38c-.09-.88-.36-.85-.54-1.33C405,884.11,409.55,884,414.1,884.08Z"/><path class="cls-8" d="M429.12,885.06c-.38,1.64-1.06,3.93-1.63,6.76a30.15,30.15,0,0,1-9.4,2.24c.09-.55.18-1,.27-1.41.19-3.76-1.28-2.25-1.41-2.83-.08-.37-.33-2.87-.63-5.71A91.93,91.93,0,0,1,429.12,885.06Z"/><path class="cls-9" d="M405.33,851.19c-.51,3.22-1.24,31.3-1.5,34.55,1.79,2.13,25.83,2,28.53,0,0-2.63-5.34-39.93-6-42.7a20.2,20.2,0,0,1-.57-2.26c-.25-1.38.59-1.81,0-3.41a35.45,35.45,0,0,0-2.95-4.34c0-.35-.38-.55-.38-.9a12.39,12.39,0,0,1-1.63.24c-.56.07-1.08.11-1.55.13a26.78,26.78,0,0,1-5.39-.34,23.35,23.35,0,0,1-3-.71,3.26,3.26,0,0,0-2.58.46"/><path class="cls-10" d="M426.45,840.46a36.62,36.62,0,0,1-8.28,1.09c-4.19,0-11.88-.75-11.88-.75l-.61,7.06-7.49,37.88s4.26,5.89,18.58,5.57,15.59-6.15,15.59-6.15-1.6-18.58-2.3-24.44S426.45,840.46,426.45,840.46Z"/><ellipse class="cls-11" cx="425.73" cy="844.61" rx="1.23" ry="1.2"/><ellipse class="cls-11" cx="420.81" cy="844.61" rx="1.23" ry="1.2"/><ellipse class="cls-11" cx="415.19" cy="844.61" rx="1.23" ry="1.2"/><ellipse class="cls-11" cx="409.57" cy="844.61" rx="1.23" ry="1.2"/><ellipse class="cls-11" cx="406.76" cy="847.81" rx="1.23" ry="1.2"/><ellipse class="cls-11" cx="412.38" cy="847.81" rx="1.23" ry="1.2"/><ellipse class="cls-11" cx="427.13" cy="851" rx="1.23" ry="1.2"/><ellipse class="cls-11" cx="421.52" cy="851" rx="1.23" ry="1.2"/><ellipse class="cls-11" cx="415.9" cy="851" rx="1.23" ry="1.2"/><ellipse class="cls-11" cx="409.57" cy="851" rx="1.23" ry="1.2"/><ellipse class="cls-11" cx="403.96" cy="851" rx="1.23" ry="1.2"/><ellipse class="cls-11" cx="401.85" cy="854.73" rx="1.23" ry="1.2"/><ellipse class="cls-11" cx="406.76" cy="854.73" rx="1.23" ry="1.2"/><ellipse class="cls-11" cx="413.09" cy="854.73" rx="1.23" ry="1.2"/><ellipse class="cls-11" cx="418.71" cy="854.73" rx="1.23" ry="1.2"/><ellipse class="cls-11" cx="424.32" cy="854.73" rx="1.23" ry="1.2"/><ellipse class="cls-11" cx="428.54" cy="857.92" rx="1.23" ry="1.2"/><ellipse class="cls-11" cx="421.52" cy="857.92" rx="1.23" ry="1.2"/><ellipse class="cls-11" cx="415.9" cy="857.92" rx="1.23" ry="1.2"/><ellipse class="cls-11" cx="409.57" cy="857.92" rx="1.23" ry="1.2"/><ellipse class="cls-11" cx="403.96" cy="857.92" rx="1.23" ry="1.2"/><ellipse class="cls-11" cx="406.06" cy="861.12" rx="1.23" ry="1.2"/><ellipse class="cls-11" cx="412.38" cy="861.12" rx="1.23" ry="1.2"/><ellipse class="cls-11" cx="418.71" cy="861.12" rx="1.23" ry="1.2"/><ellipse class="cls-11" cx="425.03" cy="861.12" rx="1.23" ry="1.2"/><ellipse class="cls-11" cx="422.22" cy="864.31" rx="1.23" ry="1.2"/><ellipse class="cls-11" cx="415.19" cy="864.31" rx="1.23" ry="1.2"/><ellipse class="cls-11" cx="408.87" cy="864.31" rx="1.23" ry="1.2"/><ellipse class="cls-11" cx="404.39" cy="864.31" rx="1.23" ry="1.2"/><ellipse class="cls-11" cx="405.36" cy="867.51" rx="1.23" ry="1.2"/><ellipse class="cls-11" cx="411.68" cy="867.51" rx="1.23" ry="1.2"/><ellipse class="cls-11" cx="418.71" cy="867.51" rx="1.23" ry="1.2"/><ellipse class="cls-11" cx="408.17" cy="871.23" rx="1.23" ry="1.2"/><ellipse class="cls-11" cx="402.7" cy="871.23" rx="1.23" ry="1.2"/><ellipse class="cls-11" cx="404.66" cy="874.96" rx="1.23" ry="1.2"/><ellipse class="cls-11" cx="411.68" cy="874.96" rx="1.23" ry="1.2"/><ellipse class="cls-11" cx="418" cy="874.96" rx="1.23" ry="1.2"/><ellipse class="cls-11" cx="425.73" cy="874.96" rx="1.23" ry="1.2"/><ellipse class="cls-11" cx="429.94" cy="878.15" rx="1.23" ry="1.2"/><ellipse class="cls-11" cx="422.22" cy="878.15" rx="1.23" ry="1.2"/><ellipse class="cls-11" cx="414.49" cy="878.15" rx="1.23" ry="1.2"/><ellipse class="cls-11" cx="407.47" cy="878.15" rx="1.23" ry="1.2"/><ellipse class="cls-11" cx="401.15" cy="878.15" rx="1.23" ry="1.2"/><ellipse class="cls-11" cx="403.96" cy="881.35" rx="1.23" ry="1.2"/><ellipse class="cls-11" cx="410.98" cy="881.35" rx="1.23" ry="1.2"/><ellipse class="cls-11" cx="418" cy="881.35" rx="1.23" ry="1.2"/><ellipse class="cls-11" cx="425.73" cy="881.35" rx="1.23" ry="1.2"/><ellipse class="cls-11" cx="429.94" cy="884.54" rx="1.23" ry="1.2"/><ellipse class="cls-11" cx="422.92" cy="884.54" rx="1.23" ry="1.2"/><ellipse class="cls-11" cx="414.49" cy="884.54" rx="1.23" ry="1.2"/><ellipse class="cls-11" cx="407.47" cy="884.54" rx="1.23" ry="1.2"/><ellipse class="cls-11" cx="401.15" cy="884.54" rx="1.23" ry="1.2"/><ellipse class="cls-11" cx="403.96" cy="887.74" rx="1.23" ry="1.2"/><ellipse class="cls-11" cx="410.28" cy="887.74" rx="1.23" ry="1.2"/><ellipse class="cls-11" cx="418" cy="887.74" rx="1.23" ry="1.2"/><ellipse class="cls-11" cx="426.43" cy="887.74" rx="1.23" ry="1.2"/><ellipse class="cls-11" cx="425.73" cy="867.51" rx="1.23" ry="1.2"/><ellipse class="cls-11" cx="415.19" cy="871.23" rx="1.23" ry="1.2"/><ellipse class="cls-11" cx="422.22" cy="871.23" rx="1.23" ry="1.2"/><ellipse class="cls-11" cx="429.94" cy="871.23" rx="1.23" ry="1.2"/><ellipse class="cls-11" cx="429.24" cy="864.31" rx="1.23" ry="1.2"/><ellipse class="cls-11" cx="423.62" cy="847.81" rx="1.23" ry="1.2"/><ellipse class="cls-11" cx="418" cy="847.81" rx="1.23" ry="1.2"/><path class="cls-10" d="M410,831.25c1,.78,1.48,1.64,2.72,3.89,2.31,4.16,1.82,5.5,2.15,7.74l-.6,1.07-1.18-1.07a13.43,13.43,0,0,0-1.82-7.83,11.68,11.68,0,0,0-3.75-3.94C407.61,830.5,409.05,830.15,410,831.25Z"/><path class="cls-10" d="M422.44,831.91a.48.48,0,0,0-.56.72,25.52,25.52,0,0,1,1.79,3.47,37,37,0,0,1,1.4,5.78l1,1.1.77-1.64a47.73,47.73,0,0,0-1.78-5.85c-.6-1.07-2.23-3.46-2.23-3.46Z"/><path class="cls-1" d="M435.09,864.6a3.28,3.28,0,0,0-.39.53,6,6,0,0,1-.75.86,6.12,6.12,0,0,0-.68-1.08c-.2-.16,0,0-.58-.73-.15-.15-.31-.27-.46-.4a.82.82,0,0,0,.06.19c.3.38.58.81.85,1.21s.75,1,.59,1.39a3.71,3.71,0,0,1-.93,1.13,14.87,14.87,0,0,0-.62-1.85c-.1-.17-.65-.68-.76-.86,0,.12.62.6.48.66a1.43,1.43,0,0,0,.08.22c.14.31.29.62.41.94s.68,1.32.07,1.68a6.79,6.79,0,0,1-.83.37s0-.21,0-.31a18.86,18.86,0,0,0-.95-1.91,14.67,14.67,0,0,0,.63,1.75.78.78,0,0,1-.42.94,4.66,4.66,0,0,1-1.91.32,4.57,4.57,0,0,1-1.65-.07c-.91-.32-.31-1,.28-1.34a2,2,0,0,1,1.1-.32.82.82,0,0,1,.29.09c.22.11.39.3.62.44a6.94,6.94,0,0,1-.67-1.14,11.88,11.88,0,0,1-3.09.25,6.86,6.86,0,0,1-4.13-.77c-.45-.13-1-.16-1.36-.23-2.09-.41-21.11-4.5-20.69-9.64.05-.66.09-1.29.13-1.92a46.93,46.93,0,0,1,.53-5.12c.08-.55.19-1.12.32-1.74a26,26,0,0,1,1.09-4c1-2.58,2.59-4.53,5.71-4.35.31.23,1.88,1.53,2.1,4.72a9.39,9.39,0,0,1,0,1.31,48.62,48.62,0,0,1-.57,5.27c-.38,2.55-.82,4.69-.83,4.73a3.41,3.41,0,0,0,.65.73l12.59,6.65a4.69,4.69,0,0,0,1.12.32c4.76-2.34,11-1,11.66-.75S435.66,863.93,435.09,864.6Z"/><path class="cls-4" d="M408.34,843.27c1.5.94.83,4.81.54,6.75a10,10,0,0,1-4.69.18c-.89-.15-3.08-.73-3.57-1.33.1-.6.27-2,.41-2.73.31-1.52,1.55-2.44,2.08-3.83a19.89,19.89,0,0,1,7,0,12.38,12.38,0,0,1,1.69.45C411.34,842.91,402.37,839.52,408.34,843.27Z"/><path class="cls-9" d="M412,838.12a9.68,9.68,0,0,1-.17,1.52c0,.47-.05.92-.09,1.37a33.16,33.16,0,0,1-1.67,8.23l-10.39-1.55c1.42-6.62,1.76-14.24,7.77-16.58"/><path class="cls-12" d="M408.1,856.2a6.71,6.71,0,0,0-4.78-2.21,7,7,0,0,1,5.14,1.86Z"/><path class="cls-13" d="M346.31,829.09l2.86,3a29.52,29.52,0,0,1,4.13,5.5l4.68,8.07h0a13.45,13.45,0,0,1-6.29,4.38l-1,.33-5.88-9.16Z"/><path class="cls-3" d="M348.07,836.77s-14.49,3.85-13.17-3.74c.26-1.49.49-2.83.7-4,.84-4.83,1.23-7.1,1.23-7.1l7.57,4.58,2.15,6Z"/><path class="cls-8" d="M334.59,828.06l.93.72A7,7,0,0,1,334.59,828.06Z"/><path class="cls-8" d="M346.31,832.27a22.58,22.58,0,0,1-5.45-.65,14.88,14.88,0,0,1-5.12-2.57c.84-4.84,1.09-7.13,1.09-7.13l7.51,4.86Z"/><path class="cls-14" d="M355.48,889.18l-.33,4.44-.46,6.22-.33,4.38-1.5,17.24-2.54,5.93c-2.25-1.76-6.14-4-6.14-7a4,4,0,0,1,.56-2l-.8-9.69c-.4-2.38-.94-5-1.31-7.56a37,37,0,0,1-.42-4.93l0-2.16,0-5.21Z"/><path class="cls-8" d="M355.35,893.62l-1.13,6.23a13.62,13.62,0,0,1-6.17,2,12.92,12.92,0,0,1-5.22-.76,35.41,35.41,0,0,1-.42-4.93l0-2.16a53.67,53.67,0,0,1,6.71-.65A23.41,23.41,0,0,1,355.35,893.62Z"/><path class="cls-15" d="M355.7,890.6c-1.09,1.41-5.43,4.27-12.39,2.6l-.11,0-2.05.18a.21.21,0,0,0-.19.24l.52,4.08a.26.26,0,0,0,.16.18c1.3.35,11.51,2.87,15.13-3.11a.2.2,0,0,0,0-.15l-.71-3.91A.22.22,0,0,0,355.7,890.6Z"/><path class="cls-7" d="M343.26,893l-.33,1.12-2.68,9.16-2.2,7.53L333.61,926l-6.48,5.43.62-7.54-.77-9.22a54.16,54.16,0,0,1,.07-14.89c.16-1.37.35-2.84.59-4.44l1.33-5.64.82-3.5Z"/><path class="cls-8" d="M343.26,894.32l-3.33,8.91c-3.78,1-8.68-.52-12.55-3.27.15-1.37.35-2.84.59-4.44l1.32-5.63a34.23,34.23,0,0,1,10.5,1.94A7.89,7.89,0,0,1,343.26,894.32Z"/><path class="cls-16" d="M355.67,890.37c-.29,1.77-7.15,5.66-12,2.87a7.41,7.41,0,0,1-1.81-1.5,6.48,6.48,0,0,1-1.92-4.57,6.6,6.6,0,0,1,2.53-4.54h0a6.45,6.45,0,0,1,.85-.64l9.25-3.57,1.92-.73s.12.69.28,1.75.4,2.64.59,4.22A30.45,30.45,0,0,1,355.67,890.37Z"/><path class="cls-16" d="M352.26,885a4.9,4.9,0,0,1-3.06,2.51s-4.14,2.67-5.53,5.69a4.82,4.82,0,0,0-.27.72c-1.1,3.68-11.68,1.91-16.79-1.94,0,0,.39-3.7,1-8,.17-1.33.37-2.73.58-4.08.35-2.33.73-4.55,1.12-6.17,1.32-5.6-3.1.08-.76-5.94s23.61,8.93,23.61,8.93a14.75,14.75,0,0,1,.46,1.64,16.75,16.75,0,0,1,.31,1.88A8.69,8.69,0,0,1,352.26,885Z"/><path class="cls-17" d="M355.19,883.75a7.94,7.94,0,0,1-3.1,2,28.73,28.73,0,0,1-11.75,2.29c-5.48-.19-10.1-2.67-12.62-4,.17-1.34.44-2.9.65-4.25a31.59,31.59,0,0,0,14.1,2.76h0a31.31,31.31,0,0,0,10.41-2.33c.72-.29,1.36-.59,1.89-.86C355,880.55,355,882.17,355.19,883.75Z"/><path class="cls-13" d="M335.75,827.56c-.33,1.12,6.24,7.08,8.54,6.69,2-.34,2-2.37,1.38-5,0,0,10.1,3,11.77,51.71l-2,1.31s-14.52,9.31-30.26-2.31c0,0-1-33.78,2.17-43.31,1.87-5.54,5.72-9,8-9.48A.32.32,0,0,1,335.75,827.56Z"/><path class="cls-18" d="M326.89,851.15s15.4,6.3,27.13-.52l.68,3.41s-12.1,7.45-28.05,0Z"/><path class="cls-18" d="M326.61,858.33s16.54,6.23,28.74,0l.42,2.67s-12.77,6.94-29.57.4Z"/><path class="cls-19" d="M448.16,711.92l-6.89-.3-24.55-1-23.57-1-55.22-2.35-23.8-1L285.29,705l-2.92-.12S10.52,399.12,32.13,246.22c11.66-82.43,51-125.29,84.74-147.33a.35.35,0,0,1,.11-.08c28.83-18.74,53.57-22.31,53.57-22.31a171.33,171.33,0,0,1,25.08-13.36h0c35.56-15.28,65.93-13.29,81.64-10.47a76.45,76.45,0,0,1,11.47,2.78C375,17.3,429.28,51.77,438.68,58.55c1,.72,1.47,1.11,1.47,1.11,39-13.19,74-6.51,96.18,1.22,15.6,5.44,24.91,11.4,24.91,11.4,23.6,8.79,43.32,19.38,59.77,31.4l0,0s.08.06.1.1C843.75,268,448.16,711.92,448.16,711.92Z"/><path class="cls-20" d="M455.37,257.45c0,176.72-29.37,377.19-62.22,452.15l-55.22-2.35c-26.94-61.9-48.12-204.8-64.14-370.07-13-134-8.88-224.18,3.5-284.51a76.45,76.45,0,0,1,11.47,2.78C375,17.3,429.28,51.77,438.68,58.55,448.91,108.69,455.37,174.62,455.37,257.45Z"/><path class="cls-20" d="M441.27,711.62l-24.55-1C657.08,318.93,588,94.73,541.44,62.76L621,103.68l0,0S580.62,80.93,580.64,81C812.19,243.42,507.37,631.78,441.27,711.62Z"/><path class="cls-20" d="M314.13,706.26,285.29,705C210,612.6-58.92,257.57,116.87,98.89a.35.35,0,0,1,.11-.08c28.83-18.74,53.57-22.31,53.57-22.31,8.56-5.49-3.55.63,4.58-2.85C146.42,126.45,85.2,326.54,314.13,706.26Z"/><ellipse class="cls-21" cx="368.65" cy="707.03" rx="85.36" ry="14.87"/><path class="cls-22" d="M436.6,958.56h0c-44.55,4.15-84.53,5.06-131.3,1.26h0c-13.08-2.27-22.42-9.33-23.33-17.64l-6.23-57.26H459l-5.11,59.93C453.36,951.18,446.47,956.64,436.6,958.56Z"/><rect class="cls-23" x="287.85" y="891.43" width="18.91" height="3.31" rx="0.93"/><rect class="cls-23" x="287.85" y="901.81" width="18.91" height="3.31" rx="0.93"/><rect class="cls-23" x="287.85" y="912.2" width="18.91" height="3.31" rx="0.93"/><rect class="cls-23" x="287.85" y="922.58" width="18.91" height="3.31" rx="0.93"/><rect class="cls-23" x="287.85" y="932.97" width="18.91" height="3.31" rx="0.93"/><rect class="cls-23" x="287.85" y="943.35" width="18.91" height="3.31" rx="0.93"/><rect class="cls-23" x="316.22" y="891.43" width="18.91" height="3.31" rx="0.93"/><rect class="cls-23" x="316.22" y="901.81" width="18.91" height="3.31" rx="0.93"/><rect class="cls-23" x="316.22" y="912.2" width="18.91" height="3.31" rx="0.93"/><rect class="cls-23" x="316.22" y="922.58" width="18.91" height="3.31" rx="0.93"/><rect class="cls-23" x="316.22" y="932.97" width="18.91" height="3.31" rx="0.93"/><rect class="cls-23" x="316.22" y="943.35" width="18.91" height="3.31" rx="0.93"/><rect class="cls-23" x="344.59" y="891.43" width="18.91" height="3.31" rx="0.93"/><rect class="cls-23" x="344.59" y="901.81" width="18.91" height="3.31" rx="0.93"/><rect class="cls-23" x="344.59" y="912.2" width="18.91" height="3.31" rx="0.93"/><rect class="cls-23" x="344.59" y="922.58" width="18.91" height="3.31" rx="0.93"/><rect class="cls-23" x="344.59" y="932.97" width="18.91" height="3.31" rx="0.93"/><rect class="cls-23" x="344.59" y="943.35" width="18.91" height="3.31" rx="0.93"/><rect class="cls-23" x="372.96" y="891.43" width="18.91" height="3.31" rx="0.93"/><rect class="cls-23" x="372.96" y="901.81" width="18.91" height="3.31" rx="0.93"/><rect class="cls-23" x="372.96" y="912.2" width="18.91" height="3.31" rx="0.93"/><rect class="cls-23" x="372.96" y="922.58" width="18.91" height="3.31" rx="0.93"/><rect class="cls-23" x="372.96" y="932.97" width="18.91" height="3.31" rx="0.93"/><rect class="cls-23" x="372.96" y="943.35" width="18.91" height="3.31" rx="0.93"/><rect class="cls-23" x="401.51" y="891.43" width="18.91" height="3.31" rx="0.93"/><rect class="cls-23" x="401.51" y="901.81" width="18.91" height="3.31" rx="0.93"/><rect class="cls-23" x="401.51" y="912.2" width="18.91" height="3.31" rx="0.93"/><rect class="cls-23" x="401.51" y="922.58" width="18.91" height="3.31" rx="0.93"/><rect class="cls-23" x="401.51" y="932.97" width="18.91" height="3.31" rx="0.93"/><rect class="cls-23" x="401.51" y="943.35" width="18.91" height="3.31" rx="0.93"/><rect class="cls-23" x="430.05" y="891.43" width="18.91" height="3.31" rx="0.93"/><rect class="cls-23" x="430.05" y="901.81" width="18.91" height="3.31" rx="0.93"/><rect class="cls-23" x="430.05" y="912.2" width="18.91" height="3.31" rx="0.93"/><rect class="cls-23" x="430.05" y="922.58" width="18.91" height="3.31" rx="0.93"/><rect class="cls-23" x="430.05" y="932.97" width="18.91" height="3.31" rx="0.93"/><rect class="cls-23" x="430.05" y="943.35" width="18.91" height="3.31" rx="0.93"/><rect class="cls-24" x="260.53" y="871.04" width="214.74" height="14.33" rx="4.02"/><rect class="cls-25" x="265.46" y="871.93" width="202.89" height="7.16" rx="2.01"/><ellipse class="cls-26" cx="368.76" cy="707.2" rx="76.31" ry="12.2"/><polygon class="cls-2" points="441.35 704.72 457.37 871.15 460.33 871.15 443.69 704.72 441.35 704.72"/><polygon class="cls-2" points="292.45 704.55 276.43 870.97 273.47 870.97 290.11 704.55 292.45 704.55"/><path class="cls-27" d="M379.93,697.25a.46.46,0,0,1,.81.43c-1.22,3.47-3.32,8.28-5.44,8.92s-4.55.44-6.54,1.52a11.59,11.59,0,0,0-3.53,3.64c.45-2.31.65-5.25-1.32-6.48-3.43-2.15-6.46-14.89-1-8.14,3.41,2.82,1.58-2.09,5.9-2.09,1.74,0,6.93,0,8.63,0-.12.88-1.28,5.65-1.57,6.48a3.3,3.3,0,0,1-2.11,2.12C375.8,703.7,378.11,700,379.93,697.25Z"/><path class="cls-28" d="M375.8,699.26a.28.28,0,0,1,.49.26c-.75,2.12-2,5.07-3.33,5.46s-2.79.27-4,.93a7.09,7.09,0,0,0-2.16,2.23c.27-1.42.4-3.22-.81-4-2.1-1.32-5.27-10.19-.76-3.87,2.08,1.73,4.16-4.45,6.81-4.45h1.06c1.56.65.4,5.52.22,6a2,2,0,0,1-1.29,1.29C373.27,703.2,374.68,700.92,375.8,699.26Z"/><path class="cls-29" d="M394.46,718.8c-1.37-1-13.38-7.64-13.69-7.82a2.77,2.77,0,0,1,.54-.21l.62-.73c.26.07,13.3,7.6,14.63,8.54Z"/><path class="cls-29" d="M349.79,718.32l-2.07-.14c1-.77,12.6-8.5,12.89-8.58l2.06.38-.51.1C361.87,710.28,350.92,717.49,349.79,718.32Z"/><path class="cls-30" d="M358.17,704.17v6H384v-6.5a17.27,17.27,0,0,0-5.64-1,89.81,89.81,0,0,0-16.91.32S359,703.15,358.17,704.17Z"/><ellipse class="cls-31" cx="371.07" cy="709.6" rx="12.9" ry="2.62"/><path class="cls-31" d="M383.3,707c.42,0,44.76-7.56,46.78-8.11"/><path class="cls-29" d="M383.3,707.65V707l-.05-.66c.28,0,38.74-6.42,41-7l2.9.57C425.75,700.24,384.11,707.65,383.3,707.65Z"/><path class="cls-31" d="M359.31,706.35c-.41,0-38.63-5.81-43.23-5.88"/><path class="cls-29" d="M359.31,707c-.13,0-.54-.06-5.93-.85-11-1.62-39.05-6.44-42.51-6.5l4.62-1c3.54,0,27.06,4.6,38.08,6.22,3.11.46,5.56.82,5.78.84Z"/><path class="cls-1" d="M343.79,863.85c-15.39,1.43-20.12-4.87-20.17-5.26-.41-2.91.59-8.31,1.15-10.71h0a7.78,7.78,0,0,1,.32-1.19l8.2,3.13-.35,1.18-1.4,4.67,11.74,3.87Z"/><path class="cls-8" d="M333.29,849.82l-.59,1.08c-4.36.06-6.29-1.51-7.69-2.93h0a6.62,6.62,0,0,0,.08-1.28Z"/><path class="cls-13" d="M331.37,829.83s-4,3-7.43,16.7c0,0,5.6,3.88,8.8,3.81.75,0,.79.37,1.18-.31,0,0,.5-2.2,2.69-8.57"/><path class="cls-32" d="M331.79,855.74a6.67,6.67,0,0,0-4.49-1.4"/><path class="cls-1" d="M342.25,859.3a8,8,0,0,1,4.73-1.48c2.55,0,1.68,0,3-.41s1,1.31-1.51,2.36,1.34.55,2,.57a11.26,11.26,0,0,0,3.75-1.09c.48-.2.54.62.27,1.06a5.57,5.57,0,0,1-3.11,1.63s2-.52,2.35-.66.73,1.76-2.05,2.18c0,0,2.1-.59,1.16.74-.6.85,0,.68-1,1.2-1.5.8-5.5.88-10.43-2"/><path class="cls-32" d="M349.36,862a7.87,7.87,0,0,0,2.22,0"/><path class="cls-32" d="M349.36,863.31a5.32,5.32,0,0,0,2.82.05"/><path class="cls-32" d="M349.23,864.62a5.31,5.31,0,0,0,3.63-.42"/><path class="cls-32" d="M341.48,860.42c-.07,0,0-.11,0-.17a3.49,3.49,0,0,1,1.66-1.6"/><path class="cls-33" d="M367,844.2a14.46,14.46,0,0,1,.12-2.12c.09-1.23,1.69-3.41,4.23-4.4,2.75-1.08,4.94,7.11,4.94,7.11s-.3,3.7-7.73,2.64"/><path class="cls-1" d="M376.49,839.57c.26.67-.09,1.17-1.8,1.44-1.28.2-2.29,1-2.65-.49-.23-.94,1.16-1.27,2.36-1.75C375.38,838.39,375.93,838.18,376.49,839.57Z"/><path class="cls-1" d="M377.19,841.29c.36,1.3-.05,1.3-2.11,1.75-.87.19-1.87.5-2.47-.55-.37-.67,1-1.09,2.43-1.49C376.24,840.65,376.88,840.17,377.19,841.29Z"/><path class="cls-1" d="M375.4,844.85c-.73,0-2.08.62-2.41-.59-.21-.77,1.17-1,2.36-1.12,1-.14,1.73-.31,1.73.61C377.08,843.75,377.47,844.85,375.4,844.85Z"/><path class="cls-1" d="M375.48,846.36c-.7,0-2,.53-2.3-.51-.2-.67,1.11-.84,2.25-1,1-.12,1.66-.27,1.65.52C377.08,845.4,377.46,846.36,375.48,846.36Z"/><path class="cls-32" d="M371.71,841.47a2.85,2.85,0,0,1-.07,1.71,5.7,5.7,0,0,1-1.3,1.39"/><path class="cls-33" d="M368.28,839.84c1.28-1.77,2.19-1.88,2.56-2,1.17-.26,1.52-.3,2.2.19.53.37.55,1.18.95,1.7.23.29.55.54.63.89a.94.94,0,0,1-.38.94,1.47,1.47,0,0,1-1,.23,2.14,2.14,0,0,1-1.87-1.89"/><path class="cls-32" d="M367,843.43a3,3,0,0,0,1.31,2.63"/><path class="cls-32" d="M358.07,848.12a5.54,5.54,0,0,0-1.41,3.28"/></svg>