<svg id="Layer_1" data-name="Layer 1" xmlns="http://www.w3.org/2000/svg" viewBox="0 0 25 15"><defs><style>.cls-1{fill:#f6fbfd;stroke:#323232;stroke-miterlimit:10;stroke-width:0.5px;}.cls-2{fill:#ce9685;}.cls-3{fill:#451f16;}.cls-4{fill:#fff;}</style></defs><path class="cls-1" d="M2.34,3.89A4.15,4.15,0,0,0,4.51,9.1a3.66,3.66,0,0,0,5-1.86A4.15,4.15,0,0,0,7.37,2,3.66,3.66,0,0,0,2.34,3.89Z"/><path class="cls-2" d="M2.32,7a4.39,4.39,0,0,1,0-3.33A3.62,3.62,0,0,1,7.37,2a5,5,0,0,1,2.51,3.1,4.51,4.51,0,0,0-3.1-3.89A3.63,3.63,0,0,0,2.43,2.72C1.69,4.13,1.4,6.13,2.32,7Z"/><path class="cls-3" d="M5.51,8.56a1.68,1.68,0,0,0,2.6-.09,2.43,2.43,0,0,0,.51-3A1.68,1.68,0,0,0,6,5.57,2.43,2.43,0,0,0,5.51,8.56Z"/><path class="cls-4" d="M6.14,5a.73.73,0,0,0,.09,1,.63.63,0,0,0,.92-.12.72.72,0,0,0-.09-1A.63.63,0,0,0,6.14,5Z"/><path class="cls-1" d="M22.92,10.93a3.8,3.8,0,0,1-4.23,3A3.36,3.36,0,0,1,16,9.84a3.79,3.79,0,0,1,4.22-3A3.35,3.35,0,0,1,22.92,10.93Z"/><path class="cls-2" d="M20.74,13.57a3.84,3.84,0,0,0,2-2.66,3.4,3.4,0,0,0-2.8-4c-1-.16-1.73.11-3.29,1.4a3.76,3.76,0,0,1,4.16-1.62,3.42,3.42,0,0,1,2.38,3.66A3.86,3.86,0,0,1,20.74,13.57Z"/><path class="cls-3" d="M21.8,10.81a1.56,1.56,0,0,0-2.35-.44,2.18,2.18,0,0,0-1.05,2.54,1.55,1.55,0,0,0,2.35.44A2.21,2.21,0,0,0,21.8,10.81Z"/><path class="cls-4" d="M19.4,10a.73.73,0,1,0,1-.1A.71.71,0,0,0,19.4,10Z"/></svg>