<svg id="Layer_1" data-name="Layer 1" xmlns="http://www.w3.org/2000/svg" viewBox="0 0 59.38 61.14"><defs><style>.cls-1,.cls-2,.cls-7{fill:#3d2d16;}.cls-1,.cls-2{stroke:#3d2d16;}.cls-1,.cls-2,.cls-4{stroke-miterlimit:10;}.cls-2,.cls-4{stroke-width:0.25px;}.cls-3{fill:#fff;}.cls-10,.cls-4{fill:#fad2c6;}.cls-4{stroke:#323232;}.cls-5{fill:#dc9e8f;}.cls-6{fill:#e8d860;}.cls-8{fill:#a67d48;}.cls-9{fill:#ef4b3b;}.cls-11{fill:#323232;}.cls-12{fill:#f49990;}</style></defs><path class="cls-1" d="M12.36,52.5c2.89,8.71,12.79,5.58,25.9.52.17-.06,0,5.07.13,5C50.11,53.36,57.83,51.92,54.6,36c-1.85-9.12-15-12.77-27-8.8S9.44,43.67,12.36,52.5Z"/><path class="cls-2" d="M10.83,36.21c-.24.53-1.51,17.87,5.75,21.93a11.39,11.39,0,0,0,10.88,0Z"/><path class="cls-3" d="M25.19,52.85s-4,.42-5.36,3.41C21,56.67,22.27,57.25,25.19,52.85Z"/><path class="cls-4" d="M11.08,40.23c0-.07.12,0,.06.08s-.14,0-.19-.08a4.89,4.89,0,0,0-2.18-1.39A2,2,0,0,0,7.05,39a2.4,2.4,0,0,0-.52,2.44,8,8,0,0,0,2,3.74c1.72,1.79,4.44,2.66,6.56,1.59"/><path class="cls-5" d="M9.29,41.62a6.64,6.64,0,0,1,.92.56c.24.17.5.45.43.74s-.34.34-.38.59a.53.53,0,0,0,.44.53c.23,0,.46,0,.69,0a1,1,0,0,1,.78.62,1,1,0,0,1,.08.37.59.59,0,0,1-.58.55,1.63,1.63,0,0,1-.82-.31A6.78,6.78,0,0,1,9.2,44C8.47,43.21,7.21,40.54,9.29,41.62Z"/><path class="cls-6" d="M13.5,45.78s2.6,2.39,1.35,3.71-2.34-2.33-2.34-2.33,1.69,2.66,1.34.64Z"/><path class="cls-4" d="M6.91,32.85c.23.27,3.64,10.62,5,15.56,1.58,5.78,9.09,11.79,16,10.94,8.46-1,15.6-5.13,18.32-12.23s.59-16.07.59-16.07,5.3-10.29-3.93-16.77-19.32-8.12-31.18-3S6.91,32.85,6.91,32.85Z"/><path class="cls-5" d="M38.53,25.64c-.44-.13-10.65-6.56-10.65-6.56s5.2,4.21,2.79,4.25c-.67,0-6.81-1.69-9.1-3.79,0,0,1.48,3.65,3.63,3.95,0,0-8.35,2.33-12.22-3.75,0,0,1.72,3.29-4.15,7.51-4.56,3.27-.64,9-.64,9l-4-13,4.65-6.83,13.6-3.58,11.87,1.3,5.8,8.53,6.75,8.39Z"/><path class="cls-2" d="M8.91,38.62c-.49-1.87-1.32-7.56-.58-9.35,1.48-3.6,3.91-4.54,5.24-5.95.85-.89.1-4.14.81-5.15s.06,1.32,0,0c.9,1.86.83,3.21,2.78,3.9a14.78,14.78,0,0,0,5.73.7,8.81,8.81,0,0,1-2.74-2.66A17.61,17.61,0,0,1,19,16,22.39,22.39,0,0,0,31,22.61,10.39,10.39,0,0,1,27,17a3.53,3.53,0,0,1,1.79.86,65.27,65.27,0,0,0,9.67,6.48c0-.56.19-1.08.14-1.64,1.94,3.53,8.63,9.59,8.56,9.38,0,0,3.28,18-8.28,25.78a29.59,29.59,0,0,0,11.62-3.7C57.14,50.58,60.19,42.87,54.6,32S51.34,16.1,46.9,9.78C41.62,2.25,26.59-5.68,8,10.85c0,0-9.29,5.36-1.88,23.44C6.11,34.29,9.06,39.22,8.91,38.62Z"/><path class="cls-7" d="M15.13,29.27s-3.6-.2-4.86,2.63a.11.11,0,0,1-.22,0,3,3,0,0,1,2.14-3.24C15.5,27.41,15.13,29.27,15.13,29.27Z"/><path class="cls-7" d="M28.46,26.51s3.8-1.34,6.12.94c.1.09.27,0,.24-.11A3.22,3.22,0,0,0,31.4,25C27.43,24.86,28.46,26.51,28.46,26.51Z"/><path class="cls-8" d="M21.38,38.36a3.33,3.33,0,0,1,1,2.63A3.75,3.75,0,0,1,22,42.42a3,3,0,0,0-.43,1.16A1.33,1.33,0,0,0,23,44.93a4,4,0,0,0,2.41-.75l0,0h0a1.42,1.42,0,0,0,.71-.36.64.64,0,0,0,0-.77.81.81,0,0,1,.24.4.68.68,0,0,1-.08.5,1.6,1.6,0,0,1-.77.61l.06,0a3.89,3.89,0,0,1-2.69,1.13,2.37,2.37,0,0,1-1.5-.55,1.78,1.78,0,0,1-.6-1.55,2.32,2.32,0,0,1,.22-.79c.12-.23.25-.45.36-.62a3.94,3.94,0,0,0,.47-1.19A3.67,3.67,0,0,0,21.38,38.36Z"/><path class="cls-9" d="M5.74,12.82a24,24,0,0,1,8.32-4C28.39,5,43.48,15.12,47.77,31.39c.09.32.17.63.24,1,.48-.25,1-.47,1.47-.67-.1-.46-.21-.93-.33-1.39C44.85,14,29.76,3.88,15.44,7.66A24.06,24.06,0,0,0,5.74,12.82Z"/><path class="cls-10" d="M47.21,32.83c0-.06-.11.1,0,.1s.13-.09.15-.17a5.52,5.52,0,0,1,1.53-2.37,2.7,2.7,0,0,1,1.86-.82,2.29,2.29,0,0,1,1.86,1.82,6.92,6.92,0,0,1-.1,4.29,7.29,7.29,0,0,1-6,4.91"/><path class="cls-11" d="M47.21,32.83c-.05,0-.08.08,0,.09a.1.1,0,0,0,.12-.06c.05-.1.07-.21.11-.31s.15-.4.24-.6a6,6,0,0,1,.7-1.1,3.45,3.45,0,0,1,2.19-1.36,1.78,1.78,0,0,1,1.25.42A3,3,0,0,1,52.56,31,6.5,6.5,0,0,1,53,33.57a7.44,7.44,0,0,1-2,4.74A7.74,7.74,0,0,1,49,39.9a6.62,6.62,0,0,1-2.49.69,7.14,7.14,0,0,0,4.42-2.39,7.27,7.27,0,0,0,1.84-4.64,6.19,6.19,0,0,0-.38-2.49,2,2,0,0,0-1.83-1.41,3.31,3.31,0,0,0-2.11,1.27A5.47,5.47,0,0,0,47.7,32a3.38,3.38,0,0,0-.27.58c0,.1-.07.21-.12.3s-.09.09-.14.07S47.16,32.78,47.21,32.83Z"/><path class="cls-5" d="M49.82,33.06a7.92,7.92,0,0,0-.65,1c-.16.27-.28.65-.05.86s.54.11.71.31,0,.53-.18.69-.49.21-.72.36a1.09,1.09,0,0,0-.48,1,.81.81,0,0,0,.12.37.72.72,0,0,0,.9.15,2,2,0,0,0,.7-.7,7.7,7.7,0,0,0,1-2C51.55,34,51.42,31,49.82,33.06Z"/><path class="cls-6" d="M47.67,38.9s-1.43,3.45.59,3.91,1.19-3.26,1.19-3.26-.34,3.2-1.06,1.27Z"/><path class="cls-9" d="M42.73,12.89s10.2.57,6.9,5.67-9,7-9.81-3C39.33,9.32,37.71,14,37.71,14S24.94,11.2,33.54,5c8-5.7,6.44,5.72,6.44,5.72S42.53,8.87,42.73,12.89Z"/><ellipse class="cls-12" cx="37.01" cy="4.57" rx="0.92" ry="0.79" transform="translate(0.11 9.94) rotate(-15.32)"/><ellipse class="cls-12" cx="47.2" cy="15.13" rx="0.92" ry="0.79" transform="translate(-2.32 13.01) rotate(-15.32)"/><ellipse class="cls-12" cx="48.74" cy="17.48" rx="0.92" ry="0.79" transform="matrix(0.96, -0.26, 0.26, 0.96, -2.89, 13.5)"/><ellipse class="cls-12" cx="44.74" cy="17.09" rx="0.92" ry="0.79" transform="translate(-2.93 12.43) rotate(-15.32)"/><ellipse class="cls-12" cx="41.8" cy="16.38" rx="0.92" ry="0.79" transform="translate(-2.84 11.63) rotate(-15.32)"/><ellipse class="cls-12" cx="42.7" cy="19.91" rx="0.92" ry="0.79" transform="translate(-3.74 11.99) rotate(-15.32)"/><ellipse class="cls-12" cx="46.08" cy="19.88" rx="0.92" ry="0.79" transform="translate(-3.62 12.88) rotate(-15.32)"/><ellipse class="cls-12" cx="44.07" cy="14.46" rx="0.92" ry="0.79" transform="translate(-2.25 12.16) rotate(-15.32)"/><ellipse class="cls-12" cx="39" cy="7.39" rx="0.92" ry="0.79" transform="translate(-0.57 10.57) rotate(-15.32)"/><ellipse class="cls-12" cx="32.76" cy="8.66" rx="0.92" ry="0.79" transform="translate(-1.12 8.96) rotate(-15.32)"/><ellipse class="cls-12" cx="33.75" cy="5.78" rx="0.92" ry="0.79" transform="translate(-0.33 9.12) rotate(-15.32)"/><ellipse class="cls-12" cx="36.06" cy="7.76" rx="0.92" ry="0.79" transform="translate(-0.77 9.8) rotate(-15.32)"/><ellipse class="cls-12" cx="37.99" cy="9.8" rx="0.92" ry="0.79" transform="translate(-1.24 10.38) rotate(-15.32)"/><ellipse class="cls-12" cx="35.03" cy="10.82" rx="0.92" ry="0.79" transform="translate(-1.61 9.64) rotate(-15.32)"/><ellipse class="cls-12" cx="37.15" cy="12.03" rx="0.92" ry="0.79" transform="translate(-1.86 10.24) rotate(-15.32)"/><ellipse class="cls-9" cx="40.17" cy="13.09" rx="2.83" ry="2.11" transform="translate(3.13 33.42) rotate(-46.81)"/></svg>