<svg id="Layer_1" data-name="Layer 1" xmlns="http://www.w3.org/2000/svg" viewBox="0 0 46.67 48.93"><defs><style>.cls-1,.cls-6{fill:#3e2c13;}.cls-1{stroke:#3e2c13;}.cls-1,.cls-3,.cls-8{stroke-miterlimit:10;}.cls-1,.cls-3{stroke-width:0.25px;}.cls-2{fill:#fff;}.cls-3,.cls-9{fill:#fbd3c7;}.cls-3{stroke:#323232;}.cls-4{fill:#dd9f8f;}.cls-5{fill:#e9d960;}.cls-7{fill:#a77d48;}.cls-8{fill:#ad6327;stroke:#c87929;stroke-width:0.75px;}.cls-10{fill:#323232;}.cls-11{fill:#ef4b3b;}.cls-12{fill:#f59a91;}</style></defs><path class="cls-1" d="M36.75,41c-2.24,6.75-7.78,6.11-17.93,2.2-.13,0-1.48,2.46-1.62,2.41C8.12,42,1.51,40.5,4,28.13c1.44-7.06,11.63-9.89,20.9-6.81S39,34.1,36.75,41Z"/><path class="cls-1" d="M37.94,28.32c.18.42,1,13.56-4.46,17-6.42,4-8.06,1.07-8.09,1.07Z"/><path class="cls-2" d="M26.81,41.22s3.09.32,4.15,2.64C30,44.18,29.07,44.63,26.81,41.22Z"/><path class="cls-3" d="M37.74,31.44c0-.06-.09,0,0,.06s.1,0,.14-.06a3.83,3.83,0,0,1,1.69-1.08,1.51,1.51,0,0,1,1.33.09,1.84,1.84,0,0,1,.4,1.9,6,6,0,0,1-1.57,2.89,4.52,4.52,0,0,1-5.08,1.24"/><path class="cls-4" d="M39.13,32.51a6.59,6.59,0,0,0-.72.44c-.18.13-.38.35-.32.57s.26.27.29.46a.42.42,0,0,1-.35.41c-.17,0-.35,0-.53,0a.82.82,0,0,0-.6.48.58.58,0,0,0-.06.29.44.44,0,0,0,.45.42,1.19,1.19,0,0,0,.63-.23,5.63,5.63,0,0,0,1.27-1C39.77,33.75,40.74,31.68,39.13,32.51Z"/><path class="cls-5" d="M35.86,35.74s-2,1.85-1,2.88,1.81-1.81,1.81-1.81-1.31,2.06-1,.49Z"/><path class="cls-3" d="M41,25.72c-.19.21-2.83,8.23-3.88,12.05-1.23,4.49-7,9.14-12.39,8.49-6.56-.81-12.1-4-14.2-9.48s-.46-12.46-.46-12.46-4.1-8,3-13S28.07,5,37.26,9,41,25.72,41,25.72Z"/><path class="cls-4" d="M16.47,20.13c.34-.1,8.25-5.08,8.25-5.08s-4,3.26-2.16,3.29c.52,0,5.28-1.31,7.05-2.93,0,0-1.15,2.82-2.81,3.06,0,0,6.47,1.8,9.47-2.91,0,0-1.33,2.55,3.22,5.82,3.53,2.53.49,7,.49,7l3.14-10.11L39.51,13,29,10.2l-9.2,1-4.5,6.61-5.23,6.5Z"/><path class="cls-1" d="M39.42,30.19c.38-1.45,1-5.86.45-7.24-1.14-2.8-3-3.53-4.06-4.61-.66-.7-.08-3.21-.63-4s0,1,0,0c-.69,1.45-.64,2.49-2.15,3a11.3,11.3,0,0,1-4.44.55,6.76,6.76,0,0,0,2.12-2.07,12.82,12.82,0,0,0,.93-3.16,17.28,17.28,0,0,1-9.36,5.1,8,8,0,0,0,3.1-4.32,2.84,2.84,0,0,0-1.38.67,49.85,49.85,0,0,1-7.5,5c0-.44-.14-.84-.1-1.28-1.51,2.74-6.69,7.44-6.63,7.27,0,0-2.12,13.69,8.22,19.25A21.51,21.51,0,0,1,7.18,42.27C2.05,39.46-.31,33.48,4,25.09S6.55,12.74,10,7.84c4.09-5.83,15.74-12,30.16.83,0,0,7.19,4.15,1.45,18.17A35.33,35.33,0,0,1,39.42,30.19Z"/><path class="cls-6" d="M34.6,23s2.79-.16,3.77,2a.09.09,0,0,0,.17,0,2.31,2.31,0,0,0-1.66-2.51C34.32,21.5,34.6,23,34.6,23Z"/><path class="cls-6" d="M24.27,20.8s-2.94-1-4.74.74c-.08.07-.21,0-.18-.09A2.49,2.49,0,0,1,22,19.6C25.07,19.52,24.27,20.8,24.27,20.8Z"/><path class="cls-7" d="M29.76,30a2.85,2.85,0,0,0-.41,2,3.1,3.1,0,0,0,.36.93A2.35,2.35,0,0,1,30.15,34a1.34,1.34,0,0,1-.45,1.17,1.8,1.8,0,0,1-1.13.42,3.11,3.11,0,0,1-2.08-.86l0,0a1.27,1.27,0,0,1-.59-.46.51.51,0,0,1-.07-.38.79.79,0,0,1,.18-.31.49.49,0,0,0,0,.6,1.14,1.14,0,0,0,.55.3h.05a3,3,0,0,0,1.88.6A1.06,1.06,0,0,0,29.67,34a2.21,2.21,0,0,0-.35-.91A3,3,0,0,1,29,32,2.53,2.53,0,0,1,29.76,30Z"/><path class="cls-8" d="M41.88,10.2a18.54,18.54,0,0,0-6.45-3.14C24.32,4.13,12.63,12,9.3,24.59l-.18.73C8.75,25.13,8.37,25,8,24.8c.08-.36.17-.71.26-1.07,3.33-12.61,15-20.46,26.12-17.53A18.66,18.66,0,0,1,41.88,10.2Z"/><path class="cls-9" d="M9.74,25.7s.08.08,0,.08-.1-.07-.12-.13a4.16,4.16,0,0,0-1.19-1.84A2.05,2.05,0,0,0,7,23.18a1.79,1.79,0,0,0-1.44,1.41,5.39,5.39,0,0,0,.08,3.32,5.68,5.68,0,0,0,4.65,3.81"/><path class="cls-10" d="M9.74,25.7s.08.06,0,.08a.09.09,0,0,1-.11-.05,1.46,1.46,0,0,1-.1-.23,3.1,3.1,0,0,0-.21-.45,3.62,3.62,0,0,0-.58-.81,2.55,2.55,0,0,0-1.62-1,1.52,1.52,0,0,0-1.39,1.09,4.81,4.81,0,0,0-.3,1.92,5.71,5.71,0,0,0,4.83,5.45,5.18,5.18,0,0,1-1.93-.52A6,6,0,0,1,6.77,30a5.85,5.85,0,0,1-1.55-3.68,4.94,4.94,0,0,1,.36-2A1.68,1.68,0,0,1,7.17,23.1a2.66,2.66,0,0,1,1.71,1.06,4.24,4.24,0,0,1,.53.86,2.72,2.72,0,0,1,.19.47,2.09,2.09,0,0,0,.08.23s.06.07.09.05S9.78,25.67,9.74,25.7Z"/><path class="cls-4" d="M7.72,25.88a6.3,6.3,0,0,1,.51.76c.12.21.21.51,0,.67s-.42.08-.55.24,0,.41.14.53.38.16.56.28a.83.83,0,0,1,.37.74.55.55,0,0,1-.09.28.57.57,0,0,1-.7.12A1.58,1.58,0,0,1,7.45,29a5.85,5.85,0,0,1-.81-1.52C6.38,26.59,6.48,24.3,7.72,25.88Z"/><path class="cls-5" d="M9.39,30.41s1.1,2.67-.46,3S8,30.91,8,30.91s.26,2.48.82,1Z"/><path class="cls-11" d="M13.21,10.25s-7.9.44-5.34,4.39,7,5.42,7.6-2.3c.38-4.86,1.63-1.22,1.63-1.22s9.9-2.18,3.23-7c-6.16-4.43-5,4.43-5,4.43S13.37,7.13,13.21,10.25Z"/><ellipse class="cls-12" cx="17.64" cy="3.81" rx="0.61" ry="0.71" transform="translate(9.31 19.82) rotate(-74.68)"/><ellipse class="cls-12" cx="9.75" cy="11.99" rx="0.61" ry="0.71" transform="matrix(0.26, -0.96, 0.96, 0.26, -4.39, 18.22)"/><ellipse class="cls-12" cx="8.55" cy="13.81" rx="0.61" ry="0.71" transform="translate(-7.02 18.41) rotate(-74.68)"/><ellipse class="cls-12" cx="11.66" cy="13.51" rx="0.61" ry="0.71" transform="translate(-4.45 21.18) rotate(-74.68)"/><ellipse class="cls-12" cx="13.94" cy="12.96" rx="0.61" ry="0.71" transform="translate(-2.24 22.98) rotate(-74.68)"/><ellipse class="cls-12" cx="13.24" cy="15.69" rx="0.61" ry="0.71" transform="translate(-5.39 24.32) rotate(-74.68)"/><ellipse class="cls-12" cx="10.62" cy="15.67" rx="0.61" ry="0.71" transform="translate(-7.3 21.77) rotate(-74.68)"/><ellipse class="cls-12" cx="12.18" cy="11.47" rx="0.61" ry="0.71" transform="translate(-2.1 20.18) rotate(-74.68)"/><ellipse class="cls-12" cx="16.1" cy="5.98" rx="0.61" ry="0.71" transform="translate(6.08 19.93) rotate(-74.68)"/><ellipse class="cls-12" cx="20.94" cy="6.97" rx="0.61" ry="0.71" transform="translate(8.68 25.32) rotate(-74.68)"/><ellipse class="cls-12" cx="20.17" cy="4.74" rx="0.61" ry="0.71" transform="translate(10.27 22.95) rotate(-74.68)"/><ellipse class="cls-12" cx="18.38" cy="6.27" rx="0.61" ry="0.71" transform="translate(7.48 22.34) rotate(-74.68)"/><ellipse class="cls-12" cx="16.89" cy="7.86" rx="0.61" ry="0.71" transform="translate(4.85 22.07) rotate(-74.68)"/><ellipse class="cls-12" cx="19.18" cy="8.65" rx="0.61" ry="0.71" transform="translate(5.77 24.86) rotate(-74.68)"/><ellipse class="cls-12" cx="17.54" cy="9.58" rx="0.61" ry="0.71" transform="translate(3.66 23.96) rotate(-74.68)"/><ellipse class="cls-11" cx="15.2" cy="10.41" rx="1.64" ry="2.19" transform="translate(-3.01 13.22) rotate(-43.19)"/></svg>