<svg id="Layer_1" data-name="Layer 1" xmlns="http://www.w3.org/2000/svg" viewBox="0 0 52.85 35.38"><defs><style>.cls-1{fill:#fbd3c7;}.cls-1,.cls-2{stroke:#323232;stroke-miterlimit:10;stroke-width:0.5px;}.cls-2{fill:none;}.cls-3{fill:#e4a68d;}</style></defs><path class="cls-1" d="M46,30.42s0-4-.7-5-3.85-3.61-9.37-5.47S19.35,9,16.11,6.7c-2.32-1.68-5-3.82-6.68-5.08C7.74,4,5,5.47,2.41,6.71a4.78,4.78,0,0,1-.48.19,2.48,2.48,0,0,1-.26.19c3.44,3.06,7.69,6.59,7.69,6.59,4,3.69,14.76,7.79,17.41,8.43S31.43,23.8,32,25.9c1,4,.65,4.16,1.54,5.25s-.12,3,1,2.9,1.87-2.49,1.15-4.28,0-1.75,0-1.75c7.26,2.22,12.13,7.14,12.39,5.62S46,30.42,46,30.42Z"/><path class="cls-2" d="M46,30.33a28,28,0,0,1-3.69-3.53"/><path class="cls-2" d="M45.88,29a12.84,12.84,0,0,0-2.58-3.7"/><path class="cls-2" d="M45.77,27.31a12.82,12.82,0,0,0-1.36-2.08"/><path class="cls-3" d="M9.55,1.89s-.37.33-1,.82a21.83,21.83,0,0,1-6.1,4,4.78,4.78,0,0,1-.48.19l0,0,1,.84s6-1.68,8-4.65Z"/></svg>