<svg xmlns="http://www.w3.org/2000/svg" viewBox="0 0 121.66 96.36"><defs><style>.cls-1{isolation:isolate;}.cls-2{fill:#5b5447;}.cls-3{fill:#424036;}.cls-4{fill:#fbd3c7;stroke:#323232;stroke-width:0.5px;}.cls-4,.cls-7{stroke-miterlimit:10;}.cls-5{fill:#e4a68d;}.cls-6{fill:#431b15;}.cls-7{fill:#321213;stroke:#221f1f;}.cls-8{fill:#90866e;}.cls-9{fill:#605e43;}.cls-10,.cls-13{fill:#9f9681;opacity:0.5;}.cls-10,.cls-12{mix-blend-mode:multiply;}.cls-11,.cls-12{fill:#666253;}.cls-12{opacity:0.4;}.cls-13{mix-blend-mode:screen;}.cls-14{fill:#c48a74;}</style></defs><g class="cls-1"><g id="Layer_1" data-name="Layer 1"><path class="cls-2" d="M26.16,36.24a26.45,26.45,0,0,0-6.57,4.23C15.43,43.83,6.06,53.92,5.29,58.1s26.64.95,62.2-1.09,49-7.83,49.16-9.84S108,36.82,98,32.34s-23.87-4.21-40.64-3.26A103.76,103.76,0,0,0,26.16,36.24Z"/><path class="cls-3" d="M52.91,29.66a105.76,105.76,0,0,0-26.68,6.76,26.69,26.69,0,0,0-6.52,4.21C15.4,44.11,6.22,54.12,5.47,58.14a.66.66,0,0,0,.15.54c1.83,2.19,16.85,1.15,37.62-.29,7.31-.51,15.58-1.08,24.24-1.58C73.4,56.46,79,56,84.19,55.43c24.3-2.71,32.15-7,32.27-8.28.16-1.89-8.67-10.2-18.51-14.63C87.84,28,73.6,28.36,57.39,29.28,55.93,29.36,54.42,29.48,52.91,29.66Z"/><path class="cls-4" d="M93.15,42c.52,1,1.63,2.38.48,4.67-6.18,12.34-6.15,16.17-11,31.44C79.1,89.36,65.74,96,55.13,92.8c-13.05-4-27.59-12.4-24-38.43,1.6-11.46.71-24.11,3.32-27.62,8.81-11.85,15.06-8.44,31.33-3.38C81,28.1,87.29,30.67,93.15,42Z"/><path class="cls-5" d="M87.84,62S90,40.07,78.9,42.4c-12.1,2.54-16.35-3-21.23-2.28C47,41.69,34.07,56.29,31.1,45.41S58.44,24.18,58.44,24.18s26.94-.64,28.67.23,8.07,15.38,8.07,15.38Z"/><path class="cls-6" d="M80.24,50.58a.82.82,0,0,1-.68-1.25l.13-.21c.68-1.14,2.42-1,3.34-.5,1.4.72,3.45,1.64,4.17,5.92.06.36-.37.65-.54.37C85.65,53.24,83.22,50.67,80.24,50.58Z"/><path class="cls-6" d="M60.44,45.35a.82.82,0,0,0,1.28-.62l0-.25c.11-1.32-1.4-2.2-2.43-2.35-1.55-.22-3.75-.67-6.84,2.39-.25.25-.07.74.24.61C54.5,44.36,58,43.69,60.44,45.35Z"/><path class="cls-7" d="M82.54,34.87S78.17,48,57.6,35.94c0,0,24.81-.87,1.06-9.38,0,0,2.57,8.73-12.44,1.56,0,0,9.24,12.08-10.93,20.53,0,0-3.38.12-4.61,8.15-.09.58-.17,1.2-.24,1.87-1,9.88.15-1.29.15-1.29s-8.4-4.1-5.47-14.43c0,0-5-9.38,3-17,0,0-.92-13.7,14.28-12.46,0,0,7.12-11.55,15.72-8.62,0,0,15.18-6.07,21.78,7.44,0,0,10.81-.57,13.94,13,0,0,7.61,7.32,3.09,14.73,0,0,6,6.33-2.42,10.73,0,0,4.26,6.67-4.2,9.69l-4.43,6.83,2-5.26A25.91,25.91,0,0,0,83,35.4C82.88,35.22,82.71,35,82.54,34.87Z"/><path class="cls-8" d="M98,32.34c-10-4.49-23.87-4.21-40.64-3.26a103.76,103.76,0,0,0-31.22,7.16,26.45,26.45,0,0,0-6.57,4.23C15.43,43.83,6.06,53.92,5.29,58.1c.87-2.77,13.43-14.74,60.38-17.82,30.65-2,45.54,2.46,50.76,6.11C115.06,43.54,107,36.37,98,32.34Z"/><path class="cls-9" d="M116.46,46.59a.17.17,0,0,1-.12,0c-2.9-2-15.1-8.42-50.65-6.08-4.14.27-8.17.62-12,1C16.72,45.64,6.25,55.7,5.47,58.16a.19.19,0,0,1-.23.14.22.22,0,0,1-.14-.24c.82-4.42,10.5-14.62,14.38-17.75C23.61,37,26,36.08,26.09,36.05a106,106,0,0,1,26.77-6.79c1.52-.17,3-.3,4.51-.38C73.63,28,87.91,27.57,98.1,32.15c9,4,17.08,11.19,18.51,14.15a.22.22,0,0,1,0,.24A.19.19,0,0,1,116.46,46.59Z"/><path class="cls-10" d="M25,43.77c2.6-4.41,7.42-7.52,11.59-9.85a55.23,55.23,0,0,1,5.31-2.58,100.58,100.58,0,0,0-15.74,4.9,26.45,26.45,0,0,0-6.57,4.23C15.43,43.83,6.06,53.92,5.29,58.1c.53-1.68,5.36-6.74,19.54-11.15A3.34,3.34,0,0,1,25,43.77Z"/><path class="cls-10" d="M80.29,29.26a65.32,65.32,0,0,1,10.94,3.88c2.66,1.23,5.86,3.36,5.82,6.94a3.35,3.35,0,0,1,0,.63c10.35,1.27,16.46,3.61,19.43,5.68-1.37-2.85-9.43-10-18.41-14-6-2.7-13.42-3.67-22-3.82A34.33,34.33,0,0,1,80.29,29.26Z"/><path class="cls-8" d="M20.2,38.14S17.43,22.8,34.57,10.24C53.13-3.36,75.7,3.88,82.5,8.13S96.35,21.62,97.86,30.6c0,0-25.76-2.54-37.7-1.43S27,33.94,20.2,38.14Z"/><path class="cls-9" d="M57.37,29.25c1-.11,1.89-.2,2.77-.28,11.2-1,34.81,1.15,37.49,1.4C96,21.09,88.74,12.26,82.4,8.3c-4.69-2.92-16-6.8-28.11-5.46a40.33,40.33,0,0,0-19.62,7.57C19.11,21.8,20.09,35.66,20.35,37.81,27.15,33.8,46.13,30.51,57.37,29.25Z"/><path class="cls-10" d="M86.55,22.13c-2,3.5-5.78,5-9.16,6-1.18.35-2.36.63-3.55.89,11.6.38,24,1.6,24,1.6C96.46,22.29,90.34,13.78,84,9.18,87,12.58,89.06,17.8,86.55,22.13Z"/><path class="cls-10" d="M45.3,29.32C40.86,28.73,36,27.89,32,25.25,28.56,23,27.22,20.06,27.27,17c-9,10.7-7.07,21.14-7.07,21.14C25.73,34.7,41,31.62,52.89,30,50.34,29.87,47.81,29.66,45.3,29.32Z"/><path class="cls-11" d="M59.8,26.78c9.64-1,35.62.55,38.3,2.13,0,0,.66,3.17.42,3.82S85.85,29.4,62.66,31.1c-30.49,2.24-41.73,9-42.51,9.21s-.6-3.49-.28-4.06S31.77,29.56,59.8,26.78Z"/><path class="cls-3" d="M98.39,33a15,15,0,0,1-2.56-.31A133.51,133.51,0,0,0,62.68,31.3c-2.79.2-5.54.46-8.17.75-9.84,1.1-23.69,3.4-33.7,8.19a6.19,6.19,0,0,1-.61.27h-.06a.44.44,0,0,1-.43-.25c-.5-.79-.3-3.61,0-4.13s11.69-6.75,40.08-9.55c9.45-.94,35.66.53,38.41,2.15l.08,0,0,.09c.07.33.66,3.26.4,3.93A.31.31,0,0,1,98.39,33Z"/><path class="cls-12" d="M98.1,28.91c-1.52-.89-10.51-1.76-19.78-2.18.31.08.63.14,1,.2,9,1.51,2.71,2.71-4.19,2.44a136.86,136.86,0,0,0-24.57,1.24C40.08,32,36.63,30.2,45,28.85a14,14,0,0,0,1.68-.37c-18.59,3-26.57,7.29-26.83,7.77s-.49,4.28.28,4.06,12-7,42.51-9.21c23.19-1.7,35.61,2.28,35.86,1.63S98.1,28.91,98.1,28.91Z"/><path class="cls-13" d="M29.54,44s18.85-6.7,63.14-5.32C92.68,38.71,57.59,34,29.54,44Z"/><path class="cls-4" d="M31,61.14c-.11-6.07-2.17-8.9-5.41-9.09-3.51-.2-5,2.14-5.08,7.11-.13,6.35,6.29,11.43,10.66,10.4"/><path class="cls-5" d="M23.14,57.63s-.68-3.58,3.05-2.69,1.44,5.55,2.36,7.64,3.1,4.26,1.44,4.59S23,65.2,23.14,57.63Z"/><path class="cls-14" d="M69.87,69.43A3.57,3.57,0,0,1,70,72.32,2,2,0,0,1,68.7,73.4a3.5,3.5,0,0,1-1.57.07,3.85,3.85,0,0,1-3.34-4.28,5.7,5.7,0,0,0,1.33,2.26,3.85,3.85,0,0,0,2.17,1,1.89,1.89,0,0,0,2-.55A4.91,4.91,0,0,0,69.87,69.43Z"/></g></g></svg>