<svg id="Layer_1" data-name="Layer 1" xmlns="http://www.w3.org/2000/svg" xmlns:xlink="http://www.w3.org/1999/xlink" viewBox="0 0 147.05 31.75"><defs><style>.cls-1{fill:none;}.cls-2{clip-path:url(#clip-path);}.cls-3{fill:#eb652f;}.cls-4{fill:#f6a42c;}.cls-5{fill:#fff18b;}.cls-6{fill:#281b17;}.cls-7{fill:#473a3a;}.cls-8{fill:#5e5454;}</style><clipPath id="clip-path"><path class="cls-1" d="M62.86,1.45s16.4-.07,19.68.14c0,0,5.86,4.2,1.43,7.64s-10.91,5.92-16.16,4.45S57.58,5.67,62.86,1.45Z"/></clipPath></defs><g class="cls-2"><path class="cls-3" d="M73.79-3.51c1.15.53,2.54,1.39,2.44,2.75S74.6,1.13,74.51,2.51C74.44,3.69,76,4.05,76,4.05c-.57-.68-.33-2.19,2.06-3.22a1.54,1.54,0,0,0-.43,2c.33.44,2.53,1.46,2.53,3.69s-3.92,3.92-6.41,3.92S66,9.52,66,6.56a4.35,4.35,0,0,1,.67-2c0,.77,1.36,1.83,2.68,2-1.11-.68-2.24-1.85-1.59-3.5,1-2.53,5.22-3.91,6.18-4.74S73.79-3.51,73.79-3.51Z"/><path class="cls-4" d="M72.07,1.92c-1.58,1.48-1.15,2-.25,3.14S70.61,7.4,70.31,8.22c-.36,1,1.4,2.26,3.48,2.26s3.27-1.39,3.27-2.61-1.62-2.19-3.8-3.14C70.5,3.53,72.07,1.92,72.07,1.92Z"/><path class="cls-5" d="M73.08,6.54C74.19,7.1,75.82,8,75.5,9.05s-1.71,1.43-1.71,1.43c-.4-.11-1.47-.47-1.43-1S73.68,8.79,74,8.27C74.32,7.55,73.08,6.54,73.08,6.54Z"/></g><path class="cls-6" d="M102.27,29.92c-1.71-1.18-16.58-9.23-17-9.45a3.61,3.61,0,0,1,.67-.26l.77-.89c.32.09,16.49,9.32,18.15,10.46Z"/><path class="cls-6" d="M46.48,30.31l-2.57-.16c1.3-.94,15.94-11.27,16.3-11.36l2.57.46-.64.13C61.78,19.62,47.89,29.3,46.48,30.31Z"/><path class="cls-7" d="M57.18,12.17v7.36H89.29V11.59s-2.11-1-7-1.25a113.34,113.34,0,0,0-21,.39S58.14,10.92,57.18,12.17Z"/><ellipse class="cls-8" cx="73.24" cy="18.79" rx="16.06" ry="3.19"/><path class="cls-8" d="M88.46,15.6c.51,0,52.58-7.3,55.09-8"/><path class="cls-6" d="M88.46,16.42V15.6l-.06-.82c.35,0,50.9-7,53.69-7.73l3.51.75C143.88,8.26,89.46,16.42,88.46,16.42Z"/><path class="cls-8" d="M58.59,14.82c-.51,0-48.4-7.69-54.13-7.77"/><path class="cls-6" d="M58.59,15.64c-.16,0-.67-.07-7.38-1-13.68-2-45.47-7.73-49.77-7.79L5.6,6.07C10,6.13,37.73,11,51.45,13c3.87.56,6.92,1,7.19,1Z"/></svg>