<svg id="Layer_1" data-name="Layer 1" xmlns="http://www.w3.org/2000/svg" xmlns:xlink="http://www.w3.org/1999/xlink" viewBox="0 0 115.84 25.12"><defs><style>.cls-1{fill:none;}.cls-2{clip-path:url(#clip-path);}.cls-3{fill:#eb652f;}.cls-4{fill:#f6a42c;}.cls-5{fill:#fff18b;}.cls-6{fill:#281b17;}.cls-7{fill:#473a3a;}.cls-8{fill:#5e5454;}</style><clipPath id="clip-path"><path class="cls-1" d="M46.71,1.2s17-.12,20.45.22c0,0,6.08,7.08,1.48,12.87s-11.34,10-16.79,7.51S41.22,8.3,46.71,1.2Z"/></clipPath></defs><g class="cls-2"><path class="cls-3" d="M58.12,16.4c-3.67,0-9-2.41-9-8C49.13,3.69,52,2.58,52,2.58a6.85,6.85,0,0,0-1,1.93,3.89,3.89,0,0,0,0,3.24A2.38,2.38,0,0,0,53.16,9a2.49,2.49,0,0,0,1.76-1.91c.52-2.15-2.18-3-2.17-5.27,0-3,4.3-5.08,4.3-7.28a3,3,0,0,0-.38-1.67,2.31,2.31,0,0,1,1.6,2c0,1.75-1.6,3.61-1.6,5.35S57.82,2,58.27,2c.7,0,1.87-.59,1.87-2.61a3.1,3.1,0,0,0-1.39-2.77s4,.83,4,4.07a7.49,7.49,0,0,1-.35,2.22c-.67,2.13-1.83,2.53-1.72,4a2.32,2.32,0,0,0,.91,1.78,1.62,1.62,0,0,0,.74.2c.72,0,1.57-.91,1.57-2.41a3,3,0,0,0-1-2.28c.51.24,2.65.89,2.65,5.32S60.81,16.4,58.12,16.4Z"/><path class="cls-4" d="M58.12,16.4C55,16.4,52.5,13,52,11.46c1.19,1.22,3.47,1.35,3.91-1.27A6.79,6.79,0,0,1,59.8,5c-1.8,2.2-2,5.83.4,6.48,2.1.56,4-2,4-2C63.18,13.66,60.39,16.4,58.12,16.4Z"/><path class="cls-5" d="M58.12,16.4c-.34.16-4.38-2.12-.5-6.09-.67,2.15.1,3.4,1,3.91a3.65,3.65,0,0,0,2.26-1.76A4.41,4.41,0,0,1,58.12,16.4Z"/></g><path class="cls-6" d="M79.24,23.94c-1.41-.92-12.79-7.42-13.11-7.6a2.67,2.67,0,0,1,.55-.2l.63-.7c.27.07,12.79,7.47,14.16,8.36Z"/><path class="cls-6" d="M34.18,23.9l-2.12-.12C33.14,23,45.18,15.1,45.47,15l2.11.36-.53.1C46.76,15.68,35.34,23.11,34.18,23.9Z"/><path class="cls-7" d="M43,9.85V15.6H69.41V9.4a18.53,18.53,0,0,0-5.78-1,97.72,97.72,0,0,0-17.33.3S43.77,8.87,43,9.85Z"/><ellipse class="cls-8" cx="56.19" cy="15.03" rx="13.22" ry="2.5"/><path class="cls-8" d="M68.72,12.53c.43,0,42.37-6.51,44.44-7"/><path class="cls-6" d="M68.72,13.17v-.64l0-.64c.29,0,41-6.27,43.29-6.85l2.8.62C113.34,6,69.55,13.17,68.72,13.17Z"/><path class="cls-6" d="M44.14,12.56c-.13,0-.56-.05-6.08-.81C26.8,10.21,4.62,5.33,1.08,5.28l3.46-.75c3.63,0,22.43,4.41,33.72,6,3.18.43,5.7.78,5.92.79Z"/></svg>