<svg id="Layer_1" data-name="Layer 1" xmlns="http://www.w3.org/2000/svg" xmlns:xlink="http://www.w3.org/1999/xlink" viewBox="0 0 110 23"><defs><style>.cls-1{fill:none;}.cls-2{clip-path:url(#clip-path);}.cls-3{fill:#eb652f;}.cls-4{fill:#f6a42c;}.cls-5{fill:#fff18b;}.cls-6{fill:#281b17;}.cls-7{fill:#473a3a;}.cls-8{fill:#5e5454;}</style><clipPath id="clip-path"><path class="cls-1" d="M44.18.82S60.52.72,63.79,1c0,0,5.83,6.78,1.42,12.34s-10.87,9.56-16.1,7.19S38.93,7.63,44.18.82Z"/></clipPath></defs><g class="cls-2"><path class="cls-3" d="M54.55,15.4c-2.7,0-6.66-1.47-6.66-5.66S50.4,4.39,50.4,4.39a3.87,3.87,0,0,0-.65,1.94,6,6,0,0,1,3.71-3.16c2.36-.63,4-.82,4.93-2.68a2.72,2.72,0,0,1-1,2.6C57.83,3,61.1,1.61,60.72-1.5a3.74,3.74,0,0,1,.38,3.11,5.13,5.13,0,0,1-4.27,3.51c-2.35.45-4,1.91-4,3.62a1.61,1.61,0,0,0,1.73,1.57,1.49,1.49,0,0,0,1.61-1.63c0-1.24-1.44-1.81-1.44-1.81a4,4,0,0,1,3.61.73C58.13,7,57,6.39,57,6.39a3.74,3.74,0,0,1,3.2,3.87C60.21,13.26,57.07,15.4,54.55,15.4Z"/><path class="cls-3" d="M54-7.18c.71.28,2.27,1.38,2.4,2.68s-.67,2.71-.48,3.42A2.22,2.22,0,0,0,57.2.54a4.56,4.56,0,0,1-3,1.53C51.9,2.5,51.76,1.2,52,.26c.5-2.55,2.83-2.53,2.93-4.92A2.72,2.72,0,0,0,54-7.18Z"/><path class="cls-3" d="M52.38-2.36c-3.19,3.22-.93,5-.93,5-.84,0-2.79-.54-2.13-2.75C49.92-2.14,52.38-2.36,52.38-2.36Z"/><path class="cls-3" d="M59,6a4.4,4.4,0,0,1,2.36,2.79,4.67,4.67,0,0,1-1.19,4.78c.88-.28,2.44-1,2.44-3.91A4,4,0,0,0,59,6Z"/><path class="cls-3" d="M47.21,8.23c-1,3,.2,5.43,2.43,6.34-1.62-.32-2.83-.81-3.3-2.17A4.72,4.72,0,0,1,47.21,8.23Z"/><path class="cls-4" d="M54.55,15.4a5.58,5.58,0,0,1-5.19-5.62c.91,2.62,2.53,3,2.53,3a4,4,0,0,1-.41-4.54,3.31,3.31,0,0,0,3.07,3.59,2.64,2.64,0,0,0,2.37-2.68,3.42,3.42,0,0,1-.52,3.76A5.83,5.83,0,0,0,59,10.78C59.11,13.18,56,15.4,54.55,15.4Z"/><path class="cls-5" d="M54.55,15.4a3.65,3.65,0,0,1-2.3-1.53c.69.37,1.41-.63,1.06-1.45a2.72,2.72,0,0,0,3.18,1C56.4,14.44,55.32,15.14,54.55,15.4Z"/><path class="cls-4" d="M53.23,1c-.8.28-.79-1.65.72-2.89C54-.92,54,.74,53.23,1Z"/></g><path class="cls-6" d="M75.93,22.11c-1.36-.89-12.56-6.55-12.87-6.72a3.65,3.65,0,0,1,.54-.2l.6-.67c.26.07,12.56,6.6,13.87,7.45Z"/><path class="cls-6" d="M32.46,22.19l-2-.12c1-.7,12.47-7.88,12.76-8l2,.35-.51.1C44.42,14.75,33.58,21.43,32.46,22.19Z"/><path class="cls-7" d="M40.77,9.13v5.55H66.22v-6a18.29,18.29,0,0,0-5.56-.94A94.2,94.2,0,0,0,44,8.05S41.53,8.19,40.77,9.13Z"/><ellipse class="cls-8" cx="53.5" cy="14.12" rx="12.72" ry="2.4"/><path class="cls-6" d="M65.56,12.33v-.61l0-.62c.28,0,39.16-5.67,41.38-6.24l2.7.6C108.22,5.81,66.35,12.33,65.56,12.33Z"/><path class="cls-6" d="M41.89,11.75c-.12,0-.53-.06-5.84-.78C25.21,9.48,3.82,4.91.41,4.86l3.33-.72c3.5.05,21.63,4.12,32.49,5.61l5.7.77Z"/></svg>