<svg id="Layer_1" data-name="Layer 1" xmlns="http://www.w3.org/2000/svg" viewBox="0 0 15 10"><defs><style>.cls-1{fill:#551514;}.cls-2{fill:#fff;}.cls-3{fill:#d72b5d;}.cls-4{fill:#bb7757;}.cls-5{fill:#dc9e8f;}</style></defs><g id="EE"><path class="cls-1" d="M14.31,5.08S12,4.79,11.49,4.71a20.33,20.33,0,0,1-2-.42L6.11,3.4A11,11,0,0,1,4.5,2.82a6.48,6.48,0,0,0-1.41-.53,3.56,3.56,0,0,0-.92-.08L1,1.48a4.78,4.78,0,0,0,.36,2c.13.36.44.95.58,1.31C2.43,6,3.84,6.63,5.32,7.23A9.58,9.58,0,0,0,8,7.85a5,5,0,0,0,1.77.06c.21-.06.29,0,.48-.08s1-.13,1.21-.34.74-.37,1.06-.6S14.31,5.08,14.31,5.08Z"/><path class="cls-2" d="M11.86,5.1l-.95-.52c-.07,0-3.53-.82-3.53-.82S4,2.68,3.91,2.68s-1-.14-1-.14a9.27,9.27,0,0,0,.41,1.29c.33.37,1.6.84,3.67,1.42a9.91,9.91,0,0,0,3.83.65C11.2,5.84,11.86,5.1,11.86,5.1Z"/><path class="cls-3" d="M3.89,6.41A4.71,4.71,0,0,0,6.44,7.67a5.53,5.53,0,0,0,2.83.1c0-.4-1.13-1.07-1.85-1.1s-1.6-.48-2.09-.52S4.15,6.12,3.89,6.41Z"/><path class="cls-2" d="M11.21,7.44s-1.3,0-2-.1-2.48-.41-2.48-.41-1.67-.47-2.2-.7-2.16-1-2.16-1l1.89,2.3,2.07.73h0l.18.06v0l2.16.39Z"/><path class="cls-4" d="M14.31,5.08a10.4,10.4,0,0,1-3.1,2.36A7.09,7.09,0,0,1,6.59,8,8.42,8.42,0,0,1,2.13,4.75,8.08,8.08,0,0,1,1,1.48s0,6,5.29,7.45C11.16,10.25,14.31,5.08,14.31,5.08Z"/><path class="cls-4" d="M7.43,3.65C4.92,3,1,1.48,1,1.48s.84,1.19,6.32,2.67c6.28,1.7,7,.93,7,.93S10,4.32,7.43,3.65Z"/><path class="cls-5" d="M1,1.15C1.33,1,1,.85.79,1a1.39,1.39,0,0,0-.3.72A6.29,6.29,0,0,1,1,1.15Z"/><path class="cls-5" d="M14.2,4.72c-.24-.25.08-.28.27,0s0,.72,0,.72C14.32,4.84,14.28,4.81,14.2,4.72Z"/></g></svg>