<svg id="Layer_1" data-name="Layer 1" xmlns="http://www.w3.org/2000/svg" viewBox="0 0 22.27 28.34"><defs><style>.cls-1{fill:#fbd3c7;stroke:#323232;stroke-miterlimit:10;stroke-width:0.25px;}.cls-2{fill:#323232;}.cls-3{fill:#dc9e8f;}</style></defs><path class="cls-1" d="M.91,4.78A2.7,2.7,0,0,0,2.39,5.91C3.68,9,8.58,14,9.89,15S12,17.14,11.8,18.44c-.45,2.45-.7,2.47-.48,3.31s-.83,1.62-.18,1.86,1.68-.9,1.73-2.08.42-1,.42-1c3.46,3.08,4.91,7.05,5.44,6.27s-.32-2.31-.32-2.31,1-2.22.89-3a13.25,13.25,0,0,0-3.8-5.42C12.91,13.69,9.1,5.88,7.91,3.76a11.48,11.48,0,0,1-.73-1.43C6.7,1.14,6.36.69,6.31.82,5.07,3.79.91,4.78.91,4.78Z"/><path class="cls-2" d="M18.45,24.47a5.82,5.82,0,0,1-.76-1.38,5.67,5.67,0,0,1-.39-1.52c.24.47.42,1,.62,1.43S18.3,24,18.45,24.47Z"/><path class="cls-2" d="M18.73,23.7c-.1-.46-.15-.91-.25-1.35s-.17-.89-.24-1.36a3.93,3.93,0,0,1,.49,2.71Z"/><path class="cls-2" d="M19.1,22.74a2.32,2.32,0,0,1-.24-.73,2.49,2.49,0,0,1,0-.77,2.09,2.09,0,0,1,.24.73A2.48,2.48,0,0,1,19.1,22.74Z"/><path class="cls-3" d="M1.11,4.84a3,3,0,0,0,1,.83c2.38-.36,4.12-2.35,5-3.26C6.58,1.26,6.41.87,6.34,1,4.75,3.79,1.11,4.84,1.11,4.84Z"/></svg>