<svg id="Layer_1" data-name="Layer 1" xmlns="http://www.w3.org/2000/svg" viewBox="0 0 28 17"><defs><style>.cls-1{fill:#551514;}.cls-2{fill:#d72b5d;}.cls-3{fill:#fff;}.cls-4{fill:#bb7757;}</style></defs><g id="S"><path class="cls-1" d="M21.42,14.85c-.16.4-4,1.06-5.58,1.35-1.76.33-3.72-.58-5.27-1.21C10,14.75,7,12.75,6.25,12.32c-1.8-1-3.6-5.53-3.6-5.53a8.73,8.73,0,0,1,2.11-.58c.75-.08,1.56-.29,2.34-.44a11.52,11.52,0,0,1,4.22.08,15.06,15.06,0,0,1,6.11,3c.43.29,2.19,2.17,2.73,2.71C20.92,12.29,21.42,14.85,21.42,14.85Z"/><path class="cls-2" d="M15.19,13c-.63-.85-1.77-.57-2.68-.94l-1.44-.59A9.41,9.41,0,0,0,8.2,10.17,1.32,1.32,0,0,0,7,12.2a5.12,5.12,0,0,0,2.25,1.17,23.06,23.06,0,0,0,4,1.34c.43.08,1.17.48,1.64.14A1.28,1.28,0,0,0,15.19,13Z"/><path class="cls-3" d="M17,8.38,13,6.32l-4.6-1-1.21.17A6.1,6.1,0,0,0,8.46,6.86,25,25,0,0,0,17,10.23a16.33,16.33,0,0,0,2.2,0Z"/><path class="cls-3" d="M16.35,16s0-1.34-.34-1.61c-1-.92-2.7-.76-4.82-1.7S7.4,10.6,6.07,10.47a3.26,3.26,0,0,0-1.11.4L6.1,12.11l4.38,2.39,3.66,1.14Z"/><path class="cls-4" d="M21.42,14.85a14.75,14.75,0,0,1-5.58.26,42.83,42.83,0,0,1-9-3.64c-1.27-.85-4.19-4.68-4.19-4.68A4,4,0,0,0,3,8.24,12.49,12.49,0,0,0,5.75,12.4,15.85,15.85,0,0,0,10.53,15c.34.13,3.14,1.73,5.86,1.46a14.2,14.2,0,0,0,5-1.51S21.42,14.85,21.42,14.85Z"/></g><path class="cls-4" d="M2.65,6.79s4.45-1.95,11.13.75,7.64,7.31,7.64,7.31.4-5-7.31-8.32S2.65,6.79,2.65,6.79Z"/></svg>