<svg id="Layer_1" data-name="Layer 1" xmlns="http://www.w3.org/2000/svg" viewBox="0 0 21 10"><defs><style>.cls-1{fill:#8c3e36;}.cls-2{fill:#d26653;}.cls-3{fill:#fff;}.cls-4{fill:#f5968e;}.cls-5{fill:#f48678;}.cls-6{fill:#e9a597;opacity:0.5;}</style></defs><g id="S"><path class="cls-1" d="M18.72,2.76s-3.34.9-4.18,1.09a14.21,14.21,0,0,1-4.12,0,21.41,21.41,0,0,1-3.8-.49C6.2,3.21,2.28,1.81,2.28,1.81S3.35,4,3.67,4.84a6.89,6.89,0,0,0,1,1.57,5.32,5.32,0,0,0,3,2.1,14.4,14.4,0,0,0,5.54.31,19.91,19.91,0,0,0,3.61-3C17.13,5.43,18.72,2.76,18.72,2.76Z"/><path class="cls-2" d="M13.92,6.06a4.66,4.66,0,0,0-2.29-.45,25,25,0,0,0-3.12,0c-.19,0-.4,0-.59,0s-.28.15-.42.08l-.3.31c-.38.42.08,1,.38,1.2a4.61,4.61,0,0,0,2,.28,20.08,20.08,0,0,0,3.38,0c.34,0,1,.06,1.27-.26A.83.83,0,0,0,13.92,6.06Z"/><path class="cls-3" d="M16.1,3.72l-5.55.61L4.87,3.06A5.34,5.34,0,0,0,5.6,4.48a3.36,3.36,0,0,0,1.57.93,18.46,18.46,0,0,0,6.58.33,3.18,3.18,0,0,0,2-1.21A4.56,4.56,0,0,0,16.1,3.72Z"/><path class="cls-3" d="M15.24,7.63a3.35,3.35,0,0,0-.84-.86c-.9-.39-2.18.28-3.84.19s-3.12-.68-4-.33c-.35.14-.71.77-.71.77L7,8.43l3.52.83,2.92-.78Z"/><path class="cls-4" d="M18.82,2.36a22,22,0,0,1-3.23,4A8.36,8.36,0,0,1,10.22,8,7.08,7.08,0,0,1,5.68,6.21,25.24,25.24,0,0,1,2.3,1.49l0,.32A17.59,17.59,0,0,0,4.69,6.7a6.32,6.32,0,0,0,5.45,2.85,6.92,6.92,0,0,0,6.23-2.71A13.52,13.52,0,0,0,18.8,2.68S18.82,2.36,18.82,2.36Z"/><path class="cls-5" d="M18.82,2.36a13.18,13.18,0,0,1-4.05,1.37A25.48,25.48,0,0,1,7,3.27,21.76,21.76,0,0,1,2.3,1.49s.16.34.19.37A11,11,0,0,0,6,3.69a21.28,21.28,0,0,0,4.72.89,21.3,21.3,0,0,0,4.75-.34,7.51,7.51,0,0,0,3.18-1.47S18.82,2.36,18.82,2.36Z"/><path class="cls-6" d="M1.78.9c.31-.34-.1-.4-.34-.08a2,2,0,0,0-.17,1A8.57,8.57,0,0,1,1.78.9Z"/><path class="cls-6" d="M19.09,1.92c-.37-.27.24-.4.53-.13s0,.94,0,.94C19.27,2,19.21,2,19.09,1.92Z"/></g></svg>