<svg id="Layer_1" data-name="Layer 1" xmlns="http://www.w3.org/2000/svg" xmlns:xlink="http://www.w3.org/1999/xlink" viewBox="0 0 78.13 17.09"><defs><style>.cls-1{fill:none;}.cls-2{clip-path:url(#clip-path);}.cls-3{fill:#ff6425;}.cls-4{fill:#ffa724;}.cls-5{fill:#fff18b;}.cls-6{fill:#281b17;}.cls-7{fill:#473a3a;}.cls-8{fill:#5e5454;}</style><clipPath id="clip-path"><path class="cls-1" d="M33.82.85s9-.06,10.8.12c0,0,3.22,3.73.79,6.79s-6,5.27-8.87,4S30.93,4.6,33.82.85Z"/></clipPath></defs><g class="cls-2"><path class="cls-3" d="M39.82-3.56a2.85,2.85,0,0,1,1.34,2.44c0,1.21-.9,1.69-.94,2.91a1.38,1.38,0,0,0,.84,1.37A2.42,2.42,0,0,1,42.19.3,2,2,0,0,0,42,2.11,5.1,5.1,0,0,1,43.34,5.4a3.88,3.88,0,0,1-3.52,3.48c-1.36,0-4.3-.85-4.3-3.48a5.56,5.56,0,0,1,.37-1.77A2.13,2.13,0,0,0,37.36,5.4a3.17,3.17,0,0,1-.87-3.12C37,0,39.35-1.2,39.88-1.93A1.57,1.57,0,0,0,39.82-3.56Z"/><path class="cls-4" d="M38.88,1.26a2.19,2.19,0,0,0-.14,2.8c.49,1-.66,2.08-.82,2.81a1.9,1.9,0,0,0,1.9,2c1.15,0,1.8-1.24,1.8-2.32s-.89-1.95-2.09-2.8A1.85,1.85,0,0,1,38.88,1.26Z"/><path class="cls-5" d="M39.43,5.38c.61.49,1.51,1.32,1.33,2.23a1.9,1.9,0,0,1-.94,1.27C39.6,8.78,39,8.46,39,8s.72-.61.87-1.08C40.11,6.27,39.43,5.38,39.43,5.38Z"/></g><path class="cls-6" d="M24.55,16.25c.84-.59,8.6-5.45,8.79-5.56a1.75,1.75,0,0,0-.33-.13l-.38-.44c-.16,0-8.7,5.5-9.52,6.06Z"/><path class="cls-6" d="M53.15,16.14l1.27-.08c-.65-.46-8.49-6.16-8.67-6.2l-1.26.22.31.07Z"/><path class="cls-7" d="M47.26,8V11.6H31.37V7.68a10.71,10.71,0,0,1,3.47-.62,56.79,56.79,0,0,1,10.42.19S46.78,7.34,47.26,8Z"/><ellipse class="cls-8" cx="39.31" cy="11.24" rx="7.94" ry="1.58"/><path class="cls-8" d="M31.78,8.28C31.53,8.28,4.23,3.72,3,3.38"/><path class="cls-6" d="M31.78,8.68v-.4l0-.4c-.18,0-26.93-4.44-28.31-4.81L1.2,3.44C2.06,3.67,31.29,8.68,31.78,8.68Z"/><path class="cls-8" d="M46.56,7.89c.25,0,23.78-3.5,26.61-3.54"/><path class="cls-6" d="M46.56,8.3c.08,0,.33,0,3.65-.51C57,6.81,74.8,4.1,76.93,4.07l-2.44-.46C72.31,3.64,56.87,6,50.09,7l-3.56.51Z"/></svg>