<svg id="Layer_1" data-name="Layer 1" xmlns="http://www.w3.org/2000/svg" viewBox="0 0 21.64 13.25"><defs><style>.cls-1{fill:#f6fbfd;stroke:#323232;stroke-miterlimit:10;stroke-width:0.25px;}.cls-2{fill:#ce9685;}.cls-3{fill:#451f16;}.cls-4{fill:#fff;}</style></defs><path class="cls-1" d="M1,3.11A4,4,0,0,0,3.06,8.18,3.55,3.55,0,0,0,7.94,6.37,4,4,0,0,0,5.84,1.3,3.56,3.56,0,0,0,1,3.11Z"/><path class="cls-2" d="M.93,6.11A4.28,4.28,0,0,1,1,2.88,3.53,3.53,0,0,1,5.84,1.3a4.87,4.87,0,0,1,2.44,3,4.42,4.42,0,0,0-3-3.79A3.52,3.52,0,0,0,1,2C.32,3.35,0,5.29.93,6.11Z"/><path class="cls-3" d="M2.68,6c-.38.88.23,1.83,1.37,2.12A2.38,2.38,0,0,0,6.8,7c.38-.88-.24-1.83-1.38-2.12A2.35,2.35,0,0,0,2.68,6Z"/><path class="cls-4" d="M4.31,4.8a.71.71,0,0,0,.09,1,.62.62,0,0,0,.9-.12.7.7,0,0,0-.09-1A.62.62,0,0,0,4.31,4.8Z"/><path class="cls-1" d="M20.94,10a3.68,3.68,0,0,1-4.1,2.9,3.25,3.25,0,0,1-2.67-4A3.68,3.68,0,0,1,18.27,6,3.25,3.25,0,0,1,20.94,10Z"/><path class="cls-2" d="M18.82,12.52a3.73,3.73,0,0,0,2-2.58A3.31,3.31,0,0,0,18.08,6c-.94-.15-1.68.11-3.19,1.36a3.64,3.64,0,0,1,4-1.57,3.31,3.31,0,0,1,2.31,3.56A3.73,3.73,0,0,1,18.82,12.52Z"/><path class="cls-3" d="M19.09,11c.22-.85-.46-1.63-1.52-1.75a2.13,2.13,0,0,0-2.34,1.3c-.22.84.46,1.63,1.53,1.75A2.13,2.13,0,0,0,19.09,11Z"/><path class="cls-4" d="M17,9.33a.71.71,0,0,0,.13,1A.69.69,0,1,0,18,9.24.69.69,0,0,0,17,9.33Z"/></svg>