<svg id="Layer_1" data-name="Layer 1" xmlns="http://www.w3.org/2000/svg" viewBox="0 0 15.42 9.02"><defs><style>.cls-1{fill:#551514;}.cls-2{fill:#d72b5d;}.cls-3{fill:#fff;}.cls-4{fill:#bb7757;}</style></defs><g id="S"><path class="cls-1" d="M2.64,6.85c0,.26,2.12,1.08,2.95,1.42a5.37,5.37,0,0,0,3.05-.14C9,8.05,10.87,7.19,11.33,7c1.11-.4,2.6-2.89,2.6-2.89a4.76,4.76,0,0,0-1.1-.58c-.41-.13-.84-.34-1.25-.51a5.93,5.93,0,0,0-2.35-.42A8.19,8.19,0,0,0,5.51,3.7c-.26.13-1.45,1-1.8,1.31A5.73,5.73,0,0,0,2.64,6.85Z"/><path class="cls-2" d="M6.29,6.46c.45-.44,1-.14,1.59-.26L8.75,6a4.87,4.87,0,0,1,1.73-.48c.91.17.63,1.16.43,1.34a2.78,2.78,0,0,1-1.37.44,12.1,12.1,0,0,1-2.38.35c-.25,0-.71.15-.93-.1A.82.82,0,0,1,6.29,6.46Z"/><path class="cls-3" d="M5.79,3.49l2.46-.78,2.66-.06.65.23a3.59,3.59,0,0,1-.86.65A13.28,13.28,0,0,1,5.59,4.59a8.72,8.72,0,0,1-1.22-.21Z"/><path class="cls-3" d="M5.32,8.08s.17-.78.37-.92c.66-.43,1.58-.15,2.86-.47a12.71,12.71,0,0,1,3.08-.75c.17,0,.57.36.57.36l-.76.61-2.69.94-2.16.27Z"/><path class="cls-4" d="M2.64,6.85a8,8,0,0,0,3.07.77A23.23,23.23,0,0,0,11.1,6.45a20.21,20.21,0,0,0,2.83-2.32A2.6,2.6,0,0,1,13.6,5a7.6,7.6,0,0,1-2,2.16,8.6,8.6,0,0,1-2.94,1,6.21,6.21,0,0,1-3.41.22,7.72,7.72,0,0,1-2.6-1.45S2.64,6.85,2.64,6.85Z"/></g><path class="cls-4" d="M13.93,4.13s-2.25-1.65-6.25-.78-5,3.5-5,3.5.33-3,5-4.14S13.93,4.13,13.93,4.13Z"/></svg>