<svg id="Layer_1" data-name="Layer 1" xmlns="http://www.w3.org/2000/svg" viewBox="0 0 15 10"><defs><style>.cls-1{fill:#8c3e36;}.cls-2{fill:#d26653;}.cls-3{fill:#fff;}.cls-4{fill:#f5968e;}.cls-5{fill:#f48678;}.cls-6{fill:#e9a597;opacity:0.5;}</style></defs><g id="S"><path class="cls-1" d="M2,2.56S4,3.64,4.55,3.9a10.64,10.64,0,0,0,2.69.69,14.21,14.21,0,0,0,2.56.32c.3,0,3.07-.25,3.07-.25s-1,1.16-1.37,1.62a4.45,4.45,0,0,1-.89.78,3.6,3.6,0,0,1-2.26.8,10.75,10.75,0,0,1-3.68-.72,14,14,0,0,1-1.9-2.4C2.62,4.43,2,2.56,2,2.56Z"/><path class="cls-2" d="M4.62,5.34a3.35,3.35,0,0,1,1.57.1,18.43,18.43,0,0,1,2,.54c.12,0,.26.06.38.11s.16.14.26.12L9,6.44c.19.32-.21.62-.43.67A3.38,3.38,0,0,1,7.24,7,16.22,16.22,0,0,1,5,6.41c-.22-.08-.67-.13-.79-.37A.49.49,0,0,1,4.62,5.34Z"/><path class="cls-3" d="M3.55,3.56,7.09,4.84,11,5a3.12,3.12,0,0,1-.69.74,2.36,2.36,0,0,1-1.17.31,13.22,13.22,0,0,1-4.35-.88A2.17,2.17,0,0,1,3.64,4.11,2.83,2.83,0,0,1,3.55,3.56Z"/><path class="cls-3" d="M3.52,6.08A2,2,0,0,1,4.2,5.7c.64-.09,1.38.52,2.48.73s2.14.11,2.68.47a1.35,1.35,0,0,1,.34.58l-.91.43L6.36,7.84l-1.79-1Z"/><path class="cls-4" d="M2,2.3a14,14,0,0,0,1.5,3A5.92,5.92,0,0,0,6.75,7.11,5,5,0,0,0,10,6.78a15.76,15.76,0,0,0,2.93-2.31l0,.19a10.39,10.39,0,0,1-2.31,2.58,4.41,4.41,0,0,1-4,.84A4.87,4.87,0,0,1,2.9,5.41a8.39,8.39,0,0,1-1-2.92S2,2.3,2,2.3Z"/><path class="cls-5" d="M2,2.3A9.34,9.34,0,0,0,4.42,3.79a18.71,18.71,0,0,0,5.14,1,16,16,0,0,0,3.35-.31s-.16.18-.18.19a7.52,7.52,0,0,1-2.59.53A15.31,15.31,0,0,1,6.92,5a15.28,15.28,0,0,1-3-1A5.27,5.27,0,0,1,2,2.57Z"/><path class="cls-6" d="M13.34,4.19c-.16-.25.12-.22.23,0a1.13,1.13,0,0,1,0,.66A6.79,6.79,0,0,0,13.34,4.19Z"/><path class="cls-6" d="M1.87,2c.28-.1-.09-.28-.32-.16s-.14.57-.14.57C1.73,2,1.78,2,1.87,2Z"/></g></svg>