<svg xmlns="http://www.w3.org/2000/svg" viewBox="0 0 69.31 55.28"><defs><style>.cls-1{isolation:isolate;}.cls-2{fill:#5b5447;}.cls-3{fill:#424036;}.cls-4{fill:#fbd3c7;stroke:#323232;}.cls-4,.cls-7{stroke-miterlimit:10;stroke-width:0.25px;}.cls-5{fill:#e4a68d;}.cls-6{fill:#431b15;}.cls-7{fill:#321213;stroke:#221f1f;}.cls-8{fill:#90866e;}.cls-9{fill:#605e43;}.cls-10,.cls-13{fill:#9f9681;opacity:0.5;}.cls-10,.cls-12{mix-blend-mode:multiply;}.cls-11,.cls-12{fill:#666253;}.cls-12{opacity:0.4;}.cls-13{mix-blend-mode:screen;}.cls-14{fill:#c48a74;}</style></defs><g class="cls-1"><g id="Layer_1" data-name="Layer 1"><path class="cls-2" d="M14,21.88a15.6,15.6,0,0,0-3.63,2.66C8.06,26.61,3,32.73,2.71,35.16s15.36-.34,35.75-2.71,27.93-6.14,28-7.3-5.33-5.67-11.22-7.91-13.88-1.63-23.49-.52A59.72,59.72,0,0,0,14,21.88Z"/><path class="cls-3" d="M29.16,17.2A60.48,60.48,0,0,0,14,22a14.93,14.93,0,0,0-3.61,2.64c-2.37,2.14-7.31,8.21-7.61,10.55a.39.39,0,0,0,.1.31c1.13,1.19,9.74.09,21.65-1.43,4.18-.54,8.93-1.14,13.89-1.72,3.4-.4,6.62-.85,9.57-1.35,13.9-2.37,18.27-5.12,18.3-5.85,0-1.09-5.33-5.58-11.14-7.8-6-2.28-14.16-1.57-23.45-.51C30.89,16.93,30,17.05,29.16,17.2Z"/><path class="cls-4" d="M52.73,22.94a2.5,2.5,0,0,1,.43,2.68c-3.14,7.3-3,9.51-5.26,18.45-1.67,6.62-9.14,10.91-15.35,9.4-7.64-1.86-16.3-6.21-15.07-21.32.53-6.65-.4-13.9,1-16,4.67-7.12,8.39-5.36,17.92-3C45.29,15.37,49,16.64,52.73,22.94Z"/><path class="cls-5" d="M50.35,34.66s.51-12.7-5.8-11c-6.88,1.86-9.52-1.18-12.3-.6-6.09,1.26-13,10.09-15.12,3.93s15-13.13,15-13.13S47.64,12.59,48.67,13s5.16,8.58,5.16,8.58Z"/><path class="cls-6" d="M45.59,28.33a.47.47,0,0,1-.43-.7l.06-.12c.36-.68,1.37-.65,1.91-.4a3.93,3.93,0,0,1,2.6,3.27c.05.2-.2.38-.3.23A5,5,0,0,0,45.59,28.33Z"/><path class="cls-6" d="M34,26a.48.48,0,0,0,.72-.4v-.14c0-.77-.88-1.22-1.48-1.27a3.93,3.93,0,0,0-3.85,1.6c-.14.15,0,.43.15.34A5,5,0,0,1,34,26Z"/><path class="cls-7" d="M46.39,19.21s-2.08,7.72-14.32,1.45c0,0,14.25-1.33.29-5.43,0,0,1.78,4.94-7.1,1.31,0,0,5.72,6.64-5.61,12.18,0,0-1.94.18-2.38,4.85,0,.34-.05.69-.07,1.08-.22,5.72,0-.74,0-.74s-5-2.09-3.63-8.13a8.35,8.35,0,0,1,1.16-9.87s-1-7.85,7.8-7.65c0,0,3.71-6.89,8.76-5.49,0,0,8.53-4,12.78,3.56,0,0,6.2-.69,8.45,7,0,0,4.63,4,2.27,8.38,0,0,3.69,3.44-1,6.26,0,0,2.68,3.69-2.09,5.71l-2.32,4.08,1-3.09A15,15,0,0,0,46.69,19.5Z"/><path class="cls-8" d="M55.21,17.24c-5.88-2.25-13.88-1.63-23.49-.52A59.72,59.72,0,0,0,14,21.88a15.6,15.6,0,0,0-3.63,2.66C8.06,26.61,3,32.73,2.71,35.16c.4-1.62,7.23-8.93,34.15-12.27,17.57-2.18,26.29-.11,29.42,1.82C65.39,23.11,60.51,19.26,55.21,17.24Z"/><path class="cls-9" d="M66.3,24.82a.09.09,0,0,1-.07,0c-1.74-1.07-9-4.34-29.35-1.81-2.38.3-4.68.64-6.86,1C8.87,27.61,3.18,33.75,2.81,35.19a.11.11,0,0,1-.13.09.12.12,0,0,1-.08-.13c.32-2.57,5.55-8.77,7.68-10.7a14.84,14.84,0,0,1,3.66-2.67A60.37,60.37,0,0,1,29.12,17c.87-.15,1.73-.28,2.58-.38,9.33-1.07,17.53-1.77,23.55.53,5.3,2,10.21,5.86,11.12,7.52a.12.12,0,0,1,0,.14A.09.09,0,0,1,66.3,24.82Z"/><path class="cls-10" d="M13.57,26.26c1.35-2.63,4-4.58,6.34-6.06a32.07,32.07,0,0,1,3-1.66A58.58,58.58,0,0,0,14,21.88a15.6,15.6,0,0,0-3.63,2.66C8.06,26.61,3,32.73,2.71,35.16c.25-1,2.85-4.06,10.87-7.07A1.91,1.91,0,0,1,13.57,26.26Z"/><path class="cls-10" d="M44.91,16.06a36.75,36.75,0,0,1,6.42,1.87c1.57.62,3.49,1.73,3.58,3.79a2.28,2.28,0,0,1,0,.37c6,.38,9.59,1.52,11.37,2.62-.89-1.6-5.77-5.45-11.07-7.47-3.54-1.36-7.84-1.67-12.81-1.46A19.08,19.08,0,0,1,44.91,16.06Z"/><path class="cls-8" d="M10.62,23.17S8.51,14.44,18,6.64c10.23-8.44,23.47-5,27.52-2.81s8.42,7.29,9.59,12.41c0,0-14.91-.6-21.74.44S14.37,20.53,10.62,23.17Z"/><path class="cls-9" d="M31.71,16.82l1.59-.26c6.41-1,20.07-.5,21.62-.44C53.65,10.83,49.2,6,45.42,3.93,42.62,2.4,36,.55,29.06,1.72a23.3,23.3,0,0,0-11,5c-8.58,7.08-7.55,15-7.33,16.25C14.47,20.44,25.29,17.92,31.71,16.82Z"/><path class="cls-10" d="M48.27,11.75c-1.05,2.07-3.16,3.05-5.07,3.74q-1,.36-2,.63c6.68-.17,13.87.12,13.87.12C54,11.51,50.17,6.81,46.39,4.37,48.19,6.24,49.57,9.17,48.27,11.75Z"/><path class="cls-10" d="M24.77,17.26c-2.58-.19-5.42-.51-7.79-1.9a5.43,5.43,0,0,1-3-4.59c-4.8,6.46-3.36,12.4-3.36,12.4C13.69,21,22.36,18.73,29.16,17.4,27.69,17.41,26.22,17.37,24.77,17.26Z"/><path class="cls-11" d="M33,15.32c5.52-.88,20.52-.88,22.11-.06a9,9,0,0,1,.37,2.18c-.12.39-7.4-1.48-20.69.27C17.35,20,11.1,24.28,10.66,24.43s-.46-2-.3-2.33S17,17.85,33,15.32Z"/><path class="cls-3" d="M55.45,17.6A7.55,7.55,0,0,1,54,17.5a77.32,77.32,0,0,0-19.12.32c-1.6.21-3.17.45-4.68.7-5.63,1-13.52,2.76-19.12,5.84a2.39,2.39,0,0,1-.34.18h0a.26.26,0,0,1-.25-.13,4.34,4.34,0,0,1-.15-2.37c.16-.33,6.51-4.28,22.75-6.84,5.41-.86,20.54-.89,22.18-.05l0,0,0,.05a8.22,8.22,0,0,1,.36,2.25A.17.17,0,0,1,55.45,17.6Z"/><path class="cls-12" d="M55.14,15.26c-.9-.46-6.11-.66-11.45-.59l.57.08c5.26.57,1.65,1.47-2.33,1.55a78.16,78.16,0,0,0-14.1,1.53c-6,1.13-8,.23-3.23-.83a9.88,9.88,0,0,0,.95-.27C15,19.1,10.5,21.82,10.36,22.1s-.13,2.48.3,2.33S17.35,20,34.82,17.71c13.29-1.75,20.57.12,20.69-.27A9,9,0,0,0,55.14,15.26Z"/><path class="cls-13" d="M16.19,26.26s10.63-4.49,36.16-5.18C52.35,21.08,32,19.54,16.19,26.26Z"/><path class="cls-4" d="M17.6,36.05c-.26-3.48-1.54-5-3.41-5-2,0-2.8,1.4-2.69,4.26.14,3.66,4,6.37,6.48,5.63"/><path class="cls-5" d="M13,34.3s-.52-2,1.66-1.65,1,3.14,1.61,4.31,1.93,2.35,1,2.6S13.15,38.65,13,34.3Z"/><path class="cls-14" d="M40.25,39.53a2.1,2.1,0,0,1,.13,1.64,1.15,1.15,0,0,1-.68.65,2.25,2.25,0,0,1-3-2.23,3.06,3.06,0,0,0,.81,1.28,2.25,2.25,0,0,0,1.3.54A1.12,1.12,0,0,0,40,41,2.7,2.7,0,0,0,40.25,39.53Z"/></g></g></svg>