<svg id="Layer_1" data-name="Layer 1" xmlns="http://www.w3.org/2000/svg" viewBox="0 0 34.52 36.97"><defs><style>.cls-1{fill:#fbd3c7;}.cls-1,.cls-2{stroke:#323232;stroke-miterlimit:10;stroke-width:0.25px;}.cls-2{fill:none;}.cls-3{fill:#dc9e8f;}</style></defs><path class="cls-1" d="M33.2,6.59a12.25,12.25,0,0,1-1.53,1.54,3,3,0,0,1-.88.53c-2.5,3.94-10.44,9.72-12.49,10.85s-3.46,2.43-3.43,4.29c.06,3.48.39,3.57-.1,4.67s.76,2.44-.19,2.62-2.11-1.64-1.91-3.27-.36-1.46-.36-1.46c-5.49,3.46-8.42,8.6-9,7.41s1-3.12,1-3.12-.93-3.31-.54-4.31,2.37-3.84,6.51-6.61S21.51,7.06,23.66,4.41c.58-.72,1-1.32,1.34-1.8C26,1.14,26,.84,26.05,1A11.06,11.06,0,0,0,33.2,6.59Z"/><path class="cls-2" d="M4.28,30.58a22.87,22.87,0,0,0,2.26-3.73"/><path class="cls-2" d="M4.07,29.45a11,11,0,0,1,1.3-3.63"/><path class="cls-2" d="M3.78,28a11.92,11.92,0,0,1,.66-2"/><path class="cls-3" d="M33,6.66a9.81,9.81,0,0,1-1.48,1.43,14.36,14.36,0,0,1-6.69-5c1-1.47,1.11-2,1.2-1.83C27.82,4.74,33,6.66,33,6.66Z"/></svg>