<svg id="Layer_1" data-name="Layer 1" xmlns="http://www.w3.org/2000/svg" viewBox="0 0 17.38 10.68"><defs><style>.cls-1{fill:#551514;}.cls-2{fill:#d72b5d;}.cls-3{fill:#fff;}.cls-4{fill:#bb7757;}.cls-5{fill:#dc9e8f;}</style></defs><g id="S"><path class="cls-1" d="M16.08,1.62l-3.3,2.09A14.92,14.92,0,0,1,9.09,5.1,21.82,21.82,0,0,1,5.53,6C5.1,6,1.31,6,1.31,6l2,2.12a5.9,5.9,0,0,0,1.38,1A5.1,5.1,0,0,0,8,9.89,14.93,14.93,0,0,0,13.11,8.3a19.63,19.63,0,0,0,2.32-3.68C15.59,4.16,16.08,1.62,16.08,1.62Z"/><path class="cls-2" d="M12.91,5.75a4.91,4.91,0,0,0-2.2.39A24.6,24.6,0,0,0,7.93,7.22c-.17.08-.36.13-.52.22l-.35.21C7,7.69,6.88,8,6.88,8c-.21.47.39.83.72.87a4.91,4.91,0,0,0,1.87-.43,21.12,21.12,0,0,0,3-1.12c.3-.15.92-.29,1.06-.64A.72.72,0,0,0,12.91,5.75Z"/><path class="cls-3" d="M14.4,3.2l-5.12,2L3.92,6.47a5.31,5.31,0,0,0,.81.72,5.06,5.06,0,0,0,1.95.36,19.31,19.31,0,0,0,6-1.93A3.6,3.6,0,0,0,14.14,4C14.2,3.74,14.4,3.2,14.4,3.2Z"/><path class="cls-3" d="M14.58,6.62a3.88,3.88,0,0,0-1-.32c-.92,0-1.85,1-3.38,1.46s-2.82.4-3.52,1a5,5,0,0,0-.63.82L7.43,10l3.41-.49,2.38-1.62Z"/><path class="cls-4" d="M16.12,1.39A17.32,17.32,0,0,1,14.46,5.3a8.44,8.44,0,0,1-4.28,3.28,8,8,0,0,1-4.42,0,16.08,16.08,0,0,1-4.7-2.77,2.06,2.06,0,0,0,.09.26A11.57,11.57,0,0,0,4.77,9.2a7.46,7.46,0,0,0,5.83.73,7,7,0,0,0,4.56-4.26,11.5,11.5,0,0,0,1-4S16.12,1.39,16.12,1.39Z"/><path class="cls-4" d="M16.06,1.22A12.94,12.94,0,0,1,13,3.52,27.77,27.77,0,0,1,5.65,5.8a15.71,15.71,0,0,1-4.59,0A2,2,0,0,0,1.31,6a11.29,11.29,0,0,0,3.84.57,21.89,21.89,0,0,0,4.5-.83,22.07,22.07,0,0,0,4.17-1.87,7.13,7.13,0,0,0,2.31-2.47S16.06,1.22,16.06,1.22Z"/><path class="cls-5" d="M.58,5.45c.18-.39-.21-.3-.33,0a1.69,1.69,0,0,0,.17.93A8.05,8.05,0,0,1,.58,5.45Z"/><path class="cls-5" d="M16.43.53c-.41-.1-.1-.35.24-.23s.48.73.48.73C16.63.57,16.57.56,16.43.53Z"/></g></svg>