<svg id="Layer_1" data-name="Layer 1" xmlns="http://www.w3.org/2000/svg" viewBox="0 0 15 10"><defs><style>.cls-1{fill:#f5968e;}.cls-2{fill:#f48678;}.cls-3{fill:#765a47;}.cls-4{fill:#e9a597;opacity:0.5;}</style></defs><g id="neutral"><path class="cls-1" d="M2.75,4.06A10.11,10.11,0,0,0,7.16,6.42a10,10,0,0,0,5-.56,18.8,18.8,0,0,1-4.82-.1A33,33,0,0,1,2.75,4.06Z"/><path class="cls-2" d="M2.65,4A37.66,37.66,0,0,0,7.54,5.61a27.7,27.7,0,0,0,4.75.23A10.48,10.48,0,0,1,7.46,6,12.27,12.27,0,0,1,2.65,4Z"/><path class="cls-3" d="M12.38,5.82A15.31,15.31,0,0,1,7.24,6,11.87,11.87,0,0,1,2.68,4,13.23,13.23,0,0,0,7.24,6,13.82,13.82,0,0,0,12.38,5.82Z"/><path class="cls-4" d="M12.48,5.54c-.06-.28.17-.17.2.07a1.08,1.08,0,0,1-.25.57A5.21,5.21,0,0,0,12.48,5.54Z"/><path class="cls-4" d="M2.6,3.63c.19-.2-.07-.23-.21,0s0,.58,0,.58C2.5,3.73,2.53,3.7,2.6,3.63Z"/></g></svg>