<svg id="Layer_1" data-name="Layer 1" xmlns="http://www.w3.org/2000/svg" viewBox="0 0 21 10"><defs><style>.cls-1{fill:#7b2f2c;}.cls-2{fill:#f48a71;}.cls-3{fill:#fff;}.cls-4{fill:#f5968e;}.cls-5{fill:#f48678;}.cls-6{fill:#e9a597;opacity:0.5;}</style></defs><g id="uh"><path class="cls-1" d="M10.32,3.47C7.53,3.4,2.15,1.61,2.15,1.61s3.4,6,4.31,6.28c1.07.28,5.86.81,7.28.44A14.85,14.85,0,0,0,18,4.77a4.79,4.79,0,0,0,1.16-2.72C18.55,2.58,12.51,3.52,10.32,3.47Z"/><path class="cls-2" d="M7.73,7.12c.67.56,1.28.79,3,.89a5,5,0,0,0,3-.64c-.09-.7-2-.94-2.19-.9a17.69,17.69,0,0,1-2.32-.08C8.62,6.49,7.94,6.67,7.73,7.12Z"/><path class="cls-3" d="M13.61,7.23a57.59,57.59,0,0,0-5.78-.11c-.38,0-1.49-.36-1.74-.1l4,1.53,5.42-1.24C15.05,7,14.23,7.31,13.61,7.23Z"/><path class="cls-4" d="M19.1,2.31c0-.59-.36,0-.36,0,0,.65-3,5.73-8,5.33C5.31,7.18,2.43,2.51,2.51,1.87c0,0-.29-.33-.36,0-.14.57,2,7.49,8.67,7.64C16.77,9.63,19.14,2.91,19.1,2.31Z"/><path class="cls-3" d="M17,3c.07-.2-1-.1-1.2-.06A4.66,4.66,0,0,1,14.37,3c-.11,0-3.28.24-3.28.24s-3.72-.45-3.83-.42-2.72-.62-2.72-.62A9.07,9.07,0,0,0,5.69,3.92c.51.47,2.71,1.17,5.44,1.24a9.77,9.77,0,0,0,4.54-.79A2.65,2.65,0,0,0,17,3Z"/><path class="cls-5" d="M19.17,2.18c0-.3-.32,0-.32,0-.85.4-3.52.74-8,.76A26.45,26.45,0,0,1,2.7,1.62c-.12-.07-.43-.13-.55,0-.65.68,4.31,1.78,8.71,1.87S19.21,2.48,19.17,2.18Z"/><path class="cls-6" d="M2.29,1.27C2.58.94,2.19.89,2,1.2a1.89,1.89,0,0,0-.14,1A9.06,9.06,0,0,1,2.29,1.27Z"/><path class="cls-6" d="M19,1.72c-.37-.25,0-.4.29-.15s.23.91.23.91C19.12,1.83,19.07,1.8,19,1.72Z"/></g></svg>