<svg id="Layer_1" data-name="Layer 1" xmlns="http://www.w3.org/2000/svg" viewBox="0 0 63.33 65.7"><defs><style>.cls-1,.cls-2,.cls-7,.cls-8{fill:#3d2d16;}.cls-1,.cls-2,.cls-7{stroke:#3d2d16;}.cls-1,.cls-2,.cls-4,.cls-7{stroke-miterlimit:10;}.cls-1,.cls-4{stroke-width:0.25px;}.cls-3{fill:#fff;}.cls-11,.cls-4{fill:#fad2c6;}.cls-4{stroke:#323232;}.cls-5{fill:#dc9e8f;}.cls-6{fill:#e8d860;}.cls-7{stroke-width:0.5px;}.cls-9{fill:#a67d48;}.cls-10{fill:#ef4b3b;}.cls-12{fill:#323232;}.cls-13{fill:#f49990;}</style></defs><path class="cls-1" d="M13.63,57.31c3.7,8.86,13.52,5.1,26.72-1,.33-.15.63,5.19,1,5,12-5.83,20.27-8.22,15.59-24.8C54.23,27,40.06,24.23,27.74,29.37S9.84,48.22,13.63,57.31Z"/><path class="cls-2" d="M10.72,40.24c-.21.58,0,18.71,7.81,22.69a12.3,12.3,0,0,0,9.92.26Z"/><path class="cls-3" d="M27.2,56.66s-4.19.76-5.39,4C23.12,61,24.46,61.54,27.2,56.66Z"/><path class="cls-4" d="M11.3,44.46c0-.08.13,0,.07.08s-.15,0-.2-.07a5.31,5.31,0,0,0-2.42-1.3,2.06,2.06,0,0,0-1.8.27,2.52,2.52,0,0,0-.35,2.62A8.35,8.35,0,0,0,9,49.84c2,1.75,4.9,2.46,7,1.16"/><path class="cls-5" d="M9.53,46.07a7,7,0,0,1,1,.52c.26.16.55.44.5.75s-.33.38-.35.65a.55.55,0,0,0,.51.52c.24,0,.47-.07.72-.07a1.11,1.11,0,0,1,.87.6.89.89,0,0,1,.12.39.63.63,0,0,1-.57.62,1.83,1.83,0,0,1-.89-.26A7.52,7.52,0,0,1,9.62,48.6C8.78,47.81,7.25,45.1,9.53,46.07Z"/><path class="cls-6" d="M14.3,50.13s2.93,2.32,1.72,3.81-2.66-2.28-2.66-2.28,2,2.68,1.47.57Z"/><path class="cls-4" d="M6.32,37c.27.27,4.68,10.92,6.5,16C15,59,23.36,64.75,30.57,63.31,39.42,61.55,46.64,56.66,48.94,49s-.65-17-.65-17,4.78-11.28-5.47-17.39-21-7-33.16-.7S6.32,37,6.32,37Z"/><path class="cls-5" d="M39.13,26.88c-.49-.1-11.77-6.08-11.77-6.08s5.82,4,3.29,4.27c-.71.07-7.33-1.24-9.91-3.28,0,0,1.85,3.74,4.14,3.89,0,0-8.63,3.12-13.19-3,0,0,2.07,3.33-3.79,8.25-4.55,3.81,0,9.59,0,9.59L2.63,27.08,7,19.5l14.07-4.86,12.63.44,6.8,8.54,7.79,8.32Z"/><path class="cls-7" d="M8.88,42.93c-.65-1.94-2-7.87-1.35-9.82,1.28-3.92,3.77-5.1,5.06-6.69.83-1-.21-4.38.45-5.5s.17,1.38,0,0c1.1,1.89,1.13,3.32,3.24,3.89a15.5,15.5,0,0,0,6.11.29,9.2,9.2,0,0,1-3.1-2.6,17.92,17.92,0,0,1-1.59-4.21,23.67,23.67,0,0,0,13.27,6,11,11,0,0,1-4.67-5.57,3.76,3.76,0,0,1,1.95.77A69,69,0,0,0,39,25.56c-.08-.59.11-1.15,0-1.74,2.33,3.57,9.87,9.44,9.77,9.22,0,0,4.89,18.72-6.69,27.86a31.33,31.33,0,0,0,12-4.81c6.7-4.35,9.3-12.73,2.55-23.72S51.88,15.81,46.7,9.48C40.53,2,24-5.23,5.71,13.69c0,0-9.37,6.4-.12,24.9C5.59,38.59,9.1,43.55,8.88,42.93Z"/><path class="cls-8" d="M14.72,32.58s-3.82.07-4.93,3.16a.12.12,0,0,1-.24,0,3.16,3.16,0,0,1,2-3.59C15,30.58,14.72,32.58,14.72,32.58Z"/><path class="cls-8" d="M28.56,28.6s3.91-1.71,6.54.51c.11.09.28,0,.24-.13-.27-.81-1.14-2.39-3.8-2.26C27.35,26.94,28.56,28.6,28.56,28.6Z"/><path class="cls-9" d="M22,41.67a3.5,3.5,0,0,1,1.18,2.69,4,4,0,0,1-.33,1.5,3.13,3.13,0,0,0-.4,1.3A1.36,1.36,0,0,0,23,48.24a1.92,1.92,0,0,0,1.22.37,4.11,4.11,0,0,0,2.54-1.06l0,0h0a1.69,1.69,0,0,0,.73-.49.68.68,0,0,0-.08-.84,1,1,0,0,1,.27.41.73.73,0,0,1-.06.5,1.73,1.73,0,0,1-.76.66l0,0a4.16,4.16,0,0,1-2.71,1.33,2.35,2.35,0,0,1-1.54-.44A1.79,1.79,0,0,1,22,47.16a3.31,3.31,0,0,1,.47-1.48,4.23,4.23,0,0,0,.4-1.34A3.83,3.83,0,0,0,22,41.67Z"/><path class="cls-10" d="M3.5,16A25.18,25.18,0,0,1,12,11C26.79,5.9,43.52,15.4,49.34,32.23c.11.32.22.65.32,1,.48-.29,1-.57,1.5-.82-.15-.48-.3-1-.47-1.44C44.88,14.11,28.14,4.62,13.32,9.74A25.43,25.43,0,0,0,3.5,16Z"/><path class="cls-11" d="M48.85,33.79c-.05-.06-.1.11,0,.11s.13-.11.15-.19a5.76,5.76,0,0,1,1.42-2.63,2.87,2.87,0,0,1,1.9-1,2.45,2.45,0,0,1,2.11,1.77,7.4,7.4,0,0,1,.23,4.54A7.71,7.71,0,0,1,48.71,42"/><path class="cls-12" d="M48.85,33.79c-.05,0-.08.08,0,.1a.12.12,0,0,0,.12-.08,1.78,1.78,0,0,0,.09-.33c.06-.22.13-.44.21-.65a6.21,6.21,0,0,1,.65-1.22,3.62,3.62,0,0,1,2.2-1.6,1.89,1.89,0,0,1,1.36.34,2.91,2.91,0,0,1,.89,1.08A6.72,6.72,0,0,1,55,34.11a8,8,0,0,1-1.71,5.16,8.27,8.27,0,0,1-2,1.84,7,7,0,0,1-2.57.93,7.49,7.49,0,0,0,4.47-2.88,7.65,7.65,0,0,0,1.59-5,6.48,6.48,0,0,0-.61-2.6,2.11,2.11,0,0,0-2-1.35A3.51,3.51,0,0,0,50,31.69a5.64,5.64,0,0,0-.69,1.16,3.81,3.81,0,0,0-.24.64c0,.11-.05.22-.1.33a.13.13,0,0,1-.15.08C48.76,33.87,48.8,33.74,48.85,33.79Z"/><path class="cls-5" d="M51.63,33.82A9.83,9.83,0,0,0,51,34.91c-.14.3-.24.71,0,.91s.58.08.78.27.08.56-.13.74-.51.27-.74.44a1.16,1.16,0,0,0-.43,1,.69.69,0,0,0,1.12.47,2,2,0,0,0,.67-.8,7.8,7.8,0,0,0,1-2.15C53.52,34.66,53.15,31.54,51.63,33.82Z"/><path class="cls-6" d="M49.81,40.16s-1.22,3.76.94,4.08,1-3.53,1-3.53-.1,3.4-1,1.42Z"/><path class="cls-10" d="M42.54,13.09s10.82-.2,7.74,5.44-9,8.1-10.59-2.36c-1-6.57-2.36-1.49-2.36-1.49s-13.69-2-5.11-9.16c7.94-6.65,7.25,5.53,7.25,5.53S42,8.87,42.54,13.09Z"/><ellipse class="cls-13" cx="35.85" cy="4.77" rx="0.97" ry="0.83" transform="translate(0.48 12.31) rotate(-19.61)"/><ellipse class="cls-13" cx="47.44" cy="15.11" rx="0.97" ry="0.83" transform="translate(-2.32 16.8) rotate(-19.61)"/><ellipse class="cls-13" cx="49.26" cy="17.47" rx="0.97" ry="0.83" transform="translate(-3 17.55) rotate(-19.61)"/><ellipse class="cls-13" cx="45" cy="17.37" rx="0.97" ry="0.83" transform="translate(-3.22 16.11) rotate(-19.61)"/><ellipse class="cls-13" cx="41.84" cy="16.86" rx="0.97" ry="0.83" transform="translate(-3.23 15.02) rotate(-19.61)"/><ellipse class="cls-13" cx="43.07" cy="20.51" rx="0.97" ry="0.83" transform="translate(-4.39 15.64) rotate(-19.61)"/><ellipse class="cls-13" cx="46.63" cy="20.21" rx="0.97" ry="0.83" transform="translate(-4.08 16.82) rotate(-19.61)"/><ellipse class="cls-13" cx="44.08" cy="14.65" rx="0.97" ry="0.83" transform="translate(-2.36 15.65) rotate(-19.61)"/><ellipse class="cls-13" cx="38.17" cy="7.58" rx="0.97" ry="0.83" transform="translate(-0.33 13.25) rotate(-19.61)"/><ellipse class="cls-13" cx="31.69" cy="9.42" rx="0.97" ry="0.83" transform="translate(-1.32 11.18) rotate(-19.61)"/><ellipse class="cls-13" cx="32.5" cy="6.31" rx="0.97" ry="0.83" transform="translate(-0.23 11.27) rotate(-19.61)"/><ellipse class="cls-13" cx="35.1" cy="8.21" rx="0.97" ry="0.83" transform="translate(-0.72 12.26) rotate(-19.61)"/><ellipse class="cls-13" cx="37.29" cy="10.21" rx="0.97" ry="0.83" transform="translate(-1.27 13.11) rotate(-19.61)"/><ellipse class="cls-13" cx="34.26" cy="11.52" rx="0.97" ry="0.83" transform="translate(-1.88 12.17) rotate(-19.61)"/><ellipse class="cls-13" cx="36.59" cy="12.63" rx="0.97" ry="0.83" transform="translate(-2.12 13.01) rotate(-19.61)"/><ellipse class="cls-10" cx="39.86" cy="13.51" rx="2.99" ry="2.24" transform="translate(4.31 36.05) rotate(-51.1)"/></svg>