<svg id="Layer_1" data-name="Layer 1" xmlns="http://www.w3.org/2000/svg" viewBox="0 0 30.3 22.49"><defs><style>.cls-1{fill:#fbd3c7;}.cls-1,.cls-2{stroke:#323232;stroke-miterlimit:10;stroke-width:0.25px;}.cls-2{fill:none;}.cls-3{fill:#e4a68d;}</style></defs><path class="cls-1" d="M25.74,19.44s.19-2.31-.2-2.92A12.36,12.36,0,0,0,20.38,13c-3.1-1.29-9.06-6.93-10.83-8.41C8.3,3.55,6.63,1.76,5.72,1A7.86,7.86,0,0,1,3.86,2.9,19.4,19.4,0,0,1,1.19,4.27C3.07,6.21,5.38,8.33,5.38,8.33c2.17,2.28,8.17,5.08,9.67,5.56s2.61,1.15,2.83,2.39c.42,2.31.21,2.42.68,3.08s-.2,1.71.46,1.7,1.18-1.35.84-2.41.05-1,.05-1c4.08,1.58,6.68,4.6,6.89,3.74S25.74,19.44,25.74,19.44Z"/><path class="cls-2" d="M25.77,19.39a15.64,15.64,0,0,1-2-2.17"/><path class="cls-2" d="M25.76,18.62a7.3,7.3,0,0,0-1.33-2.23"/><path class="cls-2" d="M25.77,17.65a8,8,0,0,0-.7-1.25"/><path class="cls-3" d="M3.82,3.07A19.11,19.11,0,0,1,1.38,4.32L2.1,5A9.37,9.37,0,0,0,6.6,1.92l-.88-.79A5.85,5.85,0,0,1,3.82,3.07Z"/></svg>