<svg id="Layer_1" data-name="Layer 1" xmlns="http://www.w3.org/2000/svg" viewBox="0 0 11.96 5.96"><defs><style>.cls-1{fill:#8c3e36;}.cls-2{fill:#fff;}.cls-3{fill:#d26653;}.cls-4{fill:#f5968e;}.cls-5{fill:#f48678;}.cls-6{fill:#e9a597;opacity:0.5;}</style></defs><g id="EE"><path class="cls-1" d="M11.36.62S9.58,1,9.21,1.11s-1.05.19-1.57.24c-.91.09-1.81.19-2.72.27a7.28,7.28,0,0,1-1.32,0,4.66,4.66,0,0,0-1.18,0,2.54,2.54,0,0,0-.69.18l-1-.21a3.82,3.82,0,0,0,.8,1.32c.19.23.58.57.78.8.7.82,1.89.86,3.13.9a7.73,7.73,0,0,0,2.09-.26,4.31,4.31,0,0,0,1.31-.44c.14-.1.22-.08.34-.19s.65-.36.78-.58.44-.47.61-.73A19.56,19.56,0,0,0,11.36.62Z"/><path class="cls-2" d="M9.8,1.21l-1.05,0c-.07,0-2.8.36-2.8.36s-2.76.13-2.82.15L2,1.88a5.58,5.58,0,0,0,.54.7,9.57,9.57,0,0,0,3.6.28,9.62,9.62,0,0,0,3.36-.75A2.17,2.17,0,0,0,9.8,1.21Z"/><path class="cls-3" d="M4.13,4.42a3.65,3.65,0,0,0,2.2.22A4.26,4.26,0,0,0,8.42,4c-.09-.29-1.12-.47-1.65-.3s-1.3.09-1.66.19S4.24,4.13,4.13,4.42Z"/><path class="cls-2" d="M9.75,3.18s-.95.34-1.47.47S6.35,4,6.35,4,5,4.13,4.56,4.11,2.73,4,2.73,4l2,1.16,1.71,0h.14v0l1.67-.3Z"/><path class="cls-4" d="M11.36.62A8.16,8.16,0,0,1,9.75,3.18,6,6,0,0,1,6.3,4.84,6,6,0,0,1,2.39,3.69,6.49,6.49,0,0,1,.68,1.61S2.07,6,6.34,5.63C10.24,5.27,11.36.62,11.36.62Z"/><path class="cls-5" d="M6,1.44C4,1.65.68,1.61.68,1.61s.94.63,5.34.23c5-.47,5.34-1.22,5.34-1.22S8,1.23,6,1.44Z"/><path class="cls-6" d="M.61,1.36c.16-.22-.09-.22-.21,0A1.05,1.05,0,0,0,.38,2,6.26,6.26,0,0,1,.61,1.36Z"/><path class="cls-6" d="M11.19.39c-.25-.12,0-.24.18-.11s.2.52.2.52C11.31.44,11.27.43,11.19.39Z"/></g></svg>