<svg id="Layer_1" data-name="Layer 1" xmlns="http://www.w3.org/2000/svg" viewBox="0 0 550 750"><defs><style>.cls-1{fill:#4a2a15;}.cls-2{fill:#fad2c6;}.cls-2,.cls-20,.cls-4,.cls-6,.cls-8,.cls-9{stroke:#323232;stroke-miterlimit:10;stroke-width:0.25px;}.cls-3{fill:#e4a58c;}.cls-4{fill:#fccd3a;}.cls-5{fill:#be9030;}.cls-6{fill:#fbd3c7;}.cls-7{fill:#dc9e8f;}.cls-8{fill:#ffe57b;}.cls-9{fill:#e0604f;}.cls-10{fill:#f5927d;}.cls-11{fill:#fab51b;}.cls-12{fill:#f17125;}.cls-13{fill:#80351b;}.cls-14{fill:#75451c;}.cls-15{fill:#a66638;}.cls-16{fill:#925b24;}.cls-17{fill:#e69847;}.cls-18{fill:#5f2710;}.cls-19{fill:#fff;}.cls-20{fill:none;}</style></defs><polygon class="cls-1" points="223.14 541.81 212.47 659.56 210.62 659.55 221.32 541.81 223.14 541.81"/><polygon class="cls-1" points="314.55 541.7 325.6 659.56 327.45 659.55 316.36 541.7 314.55 541.7"/><path class="cls-2" d="M296.58,630.57l-6-5.14.09-.09A4.84,4.84,0,0,0,292,620.7c-.12-.42,10.22-1.84,10.22-1.84a9.35,9.35,0,0,0,.79,3.54,8.54,8.54,0,0,0,1.15,1.59C307.58,627.82,296.58,630.57,296.58,630.57Z"/><path class="cls-3" d="M302.88,622.4a14.2,14.2,0,0,1-12.1,2.88,4.72,4.72,0,0,0,1.31-4.55c.57-.34,5.92-1.09,10-1.8A7.74,7.74,0,0,0,302.88,622.4Z"/><path class="cls-4" d="M310.23,624.43c-.24.55,3.26,10.27,4.61,36.62l-29.79,2.05s2.67-12.63,1.78-21.35l-2,2.88-2-.81a8.6,8.6,0,0,1-3.77-3L277.74,639s8-15.66,13.09-13.85l.91.64a6.34,6.34,0,0,0,3.85,1.17,9.09,9.09,0,0,0,7.42-4.54c.59-.9,5.52,1.4,5.52,1.4Z"/><path class="cls-5" d="M312.33,640.33s-18.86,6.36-25.29,2.21l.09,3.21s6.49,5.38,25.87-3.06Z"/><path class="cls-5" d="M313.67,645.72s-20.78,8-26.57,2.31l-.21,3.24s8.05,5.86,27-2.82Z"/><path class="cls-6" d="M258.71,647l-8.41,5.7-1.74-4.4,4.77-5.1-1.54-2.48-.75-1.21,4.7-4.94,1.56,2.06,1.72,2.26C260.79,641.27,261.13,645.39,258.71,647Z"/><path class="cls-7" d="M257.24,636.77a8.61,8.61,0,0,1-5.31,4l-.89-1.18,4.7-4.94Z"/><path class="cls-6" d="M228.11,641.89c-.15.9-.37,2-.64,3.3-.18.84-.39,1.74-.61,2.67-1.29,5.47-3.1,11.88-3.87,12.88-1.08,1.42-3.56-1.81-3.56-1.81a83,83,0,0,1,1.32-12.79c.11-.67.22-1.31.33-1.9.46-2.57.85-4.29.85-4.29S228.92,636.83,228.11,641.89Z"/><path class="cls-7" d="M228.11,641.89c-.15.9-.5,2.09-.78,3.36-2.4,1.14-4.81-.13-6.14-1,.47-2.56.74-4.35.74-4.35S228.92,636.83,228.11,641.89Z"/><path class="cls-2" d="M243.19,626.57a3,3,0,0,1-.34-1.71h-7.91c.42,1.81-1.48,2.88-1.48,2.88l-.14.44-.41,1.4s1.93,2,2.24,1.81,10.14-2,8.8-3.65A6.49,6.49,0,0,1,243.19,626.57Z"/><path class="cls-7" d="M242.78,624.86h-7.84c.42,1.81-1.48,2.88-1.48,2.88l-.14.44a15.86,15.86,0,0,0,9.74-1.54A2.8,2.8,0,0,1,242.78,624.86Z"/><path class="cls-8" d="M252.68,631l4.15,4.35h0a9,9,0,0,1-5.21,5l-.61.23-1.91-3.7,1.52,21.75a12.88,12.88,0,0,1-11.76,6.17c-9-.28-13.3-5.38-13.3-5.38s2.54-17.35,2.76-19.86v-.1c.22-2.91-1.39-1.49-3.85-3.07l1.05-3.86c-.63-.41-.4-.89.31-1.13l-.14-1a18.18,18.18,0,0,1,7.76-2.62h0s1.14,2.37,5.32,2.06,4.88-2.67,4.88-2.67l1.71.21A12.1,12.1,0,0,1,252.68,631Z"/><path class="cls-9" d="M228.59,639.44c-.16.26,16.17,4.57,20.8-3.58l5.78,24.62s-14.79,12.1-29.79-.6Z"/><path class="cls-9" d="M233.45,627.74s-.68,11.59-.19,14.73l-2,1.06-1.39-2.09s.29-7.73,2.41-13.54Z"/><path class="cls-9" d="M244,627.13s.69,9.9.35,14.57l1.82,1.17,1.06-1.77s0-8.42-1.82-13.76Z"/><path class="cls-8" d="M225.93,630.22c-1.92,1-5.34,11.68-5.35,13,0,.35,2.21,1.12,4,1.26a7.72,7.72,0,0,0,3.35-.56s.33-2.3.77-5.67"/><circle class="cls-10" cx="244.93" cy="654.07" r="2.08"/><circle class="cls-10" cx="244.85" cy="647.04" r="2.08"/><circle class="cls-10" cx="249.68" cy="650.66" r="2.08"/><circle class="cls-10" cx="231.14" cy="648.01" r="2.08"/><circle class="cls-10" cx="245.2" cy="661" r="2.08"/><circle class="cls-10" cx="237.36" cy="661.11" r="2.08"/><circle class="cls-10" cx="230.28" cy="659.16" r="2.08"/><circle class="cls-10" cx="251.11" cy="655.59" r="2.08"/><circle class="cls-10" cx="233.47" cy="653.71" r="2.08"/><circle class="cls-10" cx="239.69" cy="654.73" r="2.08"/><circle class="cls-10" cx="237.82" cy="648.21" r="2.08"/><circle class="cls-10" cx="241.36" cy="643.49" r="2.08"/><circle class="cls-10" cx="235.84" cy="643.5" r="2.08"/><ellipse class="cls-10" cx="249.1" cy="643.91" rx="2.08" ry="1.75" transform="matrix(0.03, -1, 1, 0.03, -402.29, 872.75)"/><ellipse class="cls-10" cx="228.18" cy="654.56" rx="1.89" ry="1.59" transform="translate(-433.19 862.16) rotate(-88.21)"/><ellipse class="cls-10" cx="251.46" cy="660.02" rx="1.89" ry="1.59" transform="translate(-416.1 890.73) rotate(-88.21)"/><path class="cls-6" d="M246.44,650.53c-.74.19-2.45.5-2.34,1.49,0,.4,1.58.11,3.06-.14a12.45,12.45,0,0,0,1.93-.88c.08.12-.5.61-1.35,1-.46.2-2.17-.07-2.2,1.18,0,.22,2.1.17,2.59.15.79,0,4.56-2.4,4.75-2.59.79-.79.55-2.91-.17-4.22-.86-1.49-2.9-1.76-4.84-1.52a22,22,0,0,0-3.45,1.19c-2.48,1.67-3.73,2.35-3.36,2.81.88,1.08,2.86-.31,3.95-.9a12.23,12.23,0,0,1,2.49-.73c.17.18-1.48.68-2.36,1.06-.7.37-3.06,1.8-2.75,2.23.81,1.15,1.65.13,3.56-.62a10.67,10.67,0,0,1,2.41-.5C248.29,649.77,247.85,649.92,246.44,650.53Z"/><path class="cls-11" d="M207.64,538.32l5.26-.23,18.76-.79,18-.76,42.2-1.79,18.18-.76,22-.94,2.23-.09S542,299.31,525.52,182.48c-8.91-63-38.95-95.73-64.75-112.57l-.08-.06c-22-14.32-40.93-17-40.93-17a130.55,130.55,0,0,0-19.17-10.2h0c-27.17-11.68-50.38-10.16-62.38-8a58.81,58.81,0,0,0-8.77,2.13c-65.9-29.15-107.37-2.81-114.55,2.37-.75.54-1.12.85-1.12.85-29.78-10.08-56.51-5-73.49.92a99.76,99.76,0,0,0-19,8.72c-18,6.71-33.1,14.8-45.66,24l0,0s-.06,0-.07.07C-94.63,199.11,207.64,538.32,207.64,538.32Z"/><path class="cls-12" d="M202.13,191.06c0,135,22.44,288.21,47.54,345.48l42.2-1.79c20.58-47.3,36.76-156.48,49-282.77,9.91-102.4,6.79-171.29-2.67-217.39a58.81,58.81,0,0,0-8.77,2.13c-65.9-29.15-107.37-2.81-114.55,2.37C207.06,77.4,202.13,127.78,202.13,191.06Z"/><path class="cls-12" d="M212.9,538.09l18.76-.79C48,238,100.78,66.73,136.37,42.3L75.57,73.57l0,0s30.88-17.41,30.86-17.38C-70.51,180.34,162.4,477.08,212.9,538.09Z"/><path class="cls-12" d="M310.05,534l22-.94c57.56-70.62,263-341.9,128.69-463.14l-.08-.06c-22-14.32-40.93-17-40.93-17-6.54-4.19,2.71.48-3.51-2.17C438.2,91,485,243.86,310.05,534Z"/><ellipse class="cls-13" cx="268.39" cy="534.58" rx="65.22" ry="11.36"/><path class="cls-14" d="M216.47,724.1h0c34,3,64.59,3.7,100.32.93h0c10-1.67,17.14-6.83,17.83-12.91l4.77-41.88h-140l3.9,43.84C203.67,718.71,208.93,722.7,216.47,724.1Z"/><rect class="cls-15" x="314.44" y="674.73" width="13.89" height="2.43" rx="0.92" transform="translate(642.78 1351.89) rotate(-180)"/><rect class="cls-15" x="314.44" y="682.35" width="13.89" height="2.43" rx="0.92" transform="translate(642.78 1367.14) rotate(180)"/><rect class="cls-15" x="314.44" y="689.98" width="13.89" height="2.43" rx="0.92" transform="translate(642.78 1382.39) rotate(-180)"/><rect class="cls-15" x="314.44" y="697.61" width="13.89" height="2.43" rx="0.92" transform="translate(642.78 1397.64) rotate(180)"/><rect class="cls-15" x="314.44" y="705.23" width="13.89" height="2.43" rx="0.92" transform="translate(642.78 1412.89) rotate(180)"/><rect class="cls-15" x="314.44" y="712.86" width="13.89" height="2.43" rx="0.92" transform="translate(642.78 1428.15) rotate(180)"/><rect class="cls-15" x="293.61" y="674.73" width="13.89" height="2.43" rx="0.92" transform="translate(601.12 1351.89) rotate(-180)"/><rect class="cls-15" x="293.61" y="682.35" width="13.89" height="2.43" rx="0.92" transform="translate(601.12 1367.14) rotate(180)"/><rect class="cls-15" x="293.61" y="689.98" width="13.89" height="2.43" rx="0.92" transform="translate(601.12 1382.39) rotate(-180)"/><rect class="cls-15" x="293.61" y="697.61" width="13.89" height="2.43" rx="0.92" transform="translate(601.12 1397.64) rotate(-180)"/><rect class="cls-15" x="293.61" y="705.23" width="13.89" height="2.43" rx="0.92" transform="translate(601.12 1412.89) rotate(180)"/><rect class="cls-15" x="293.61" y="712.86" width="13.89" height="2.43" rx="0.92" transform="translate(601.12 1428.15) rotate(180)"/><rect class="cls-15" x="272.78" y="674.73" width="13.89" height="2.43" rx="0.92" transform="translate(559.45 1351.89) rotate(180)"/><rect class="cls-15" x="272.78" y="682.35" width="13.89" height="2.43" rx="0.92" transform="translate(559.45 1367.14) rotate(-180)"/><rect class="cls-15" x="272.78" y="689.98" width="13.89" height="2.43" rx="0.92" transform="translate(559.45 1382.39) rotate(-180)"/><rect class="cls-15" x="272.78" y="697.61" width="13.89" height="2.43" rx="0.92" transform="translate(559.45 1397.64) rotate(-180)"/><rect class="cls-15" x="272.78" y="705.23" width="13.89" height="2.43" rx="0.92" transform="translate(559.45 1412.89) rotate(-180)"/><rect class="cls-15" x="272.78" y="712.86" width="13.89" height="2.43" rx="0.92" transform="translate(559.45 1428.15) rotate(180)"/><rect class="cls-15" x="251.95" y="674.73" width="13.89" height="2.43" rx="0.92" transform="translate(517.79 1351.89) rotate(-180)"/><rect class="cls-15" x="251.95" y="682.35" width="13.89" height="2.43" rx="0.92" transform="translate(517.79 1367.14) rotate(180)"/><rect class="cls-15" x="251.95" y="689.98" width="13.89" height="2.43" rx="0.92" transform="translate(517.79 1382.39) rotate(180)"/><rect class="cls-15" x="251.95" y="697.61" width="13.89" height="2.43" rx="0.92" transform="translate(517.79 1397.64) rotate(180)"/><rect class="cls-15" x="251.95" y="705.23" width="13.89" height="2.43" rx="0.92" transform="translate(517.79 1412.89) rotate(180)"/><rect class="cls-15" x="251.95" y="712.86" width="13.89" height="2.43" rx="0.92" transform="translate(517.79 1428.15) rotate(-180)"/><rect class="cls-15" x="230.99" y="674.73" width="13.89" height="2.43" rx="0.92" transform="translate(475.87 1351.89) rotate(180)"/><rect class="cls-15" x="230.99" y="682.35" width="13.89" height="2.43" rx="0.92" transform="translate(475.87 1367.14) rotate(180)"/><rect class="cls-15" x="230.99" y="689.98" width="13.89" height="2.43" rx="0.92" transform="translate(475.87 1382.39) rotate(180)"/><rect class="cls-15" x="230.99" y="697.61" width="13.89" height="2.43" rx="0.92" transform="translate(475.87 1397.64) rotate(-180)"/><rect class="cls-15" x="230.99" y="705.23" width="13.89" height="2.43" rx="0.92" transform="translate(475.87 1412.89) rotate(-180)"/><rect class="cls-15" x="230.99" y="712.86" width="13.89" height="2.43" rx="0.92" transform="translate(475.87 1428.15) rotate(180)"/><rect class="cls-15" x="210.03" y="674.73" width="13.89" height="2.43" rx="0.92" transform="translate(433.94 1351.89) rotate(-180)"/><rect class="cls-15" x="210.03" y="682.35" width="13.89" height="2.43" rx="0.92" transform="translate(433.94 1367.14) rotate(180)"/><rect class="cls-15" x="210.03" y="689.98" width="13.89" height="2.43" rx="0.92" transform="translate(433.94 1382.39) rotate(180)"/><rect class="cls-15" x="210.03" y="697.61" width="13.89" height="2.43" rx="0.92" transform="translate(433.94 1397.64) rotate(-180)"/><rect class="cls-15" x="210.03" y="705.23" width="13.89" height="2.43" rx="0.92" transform="translate(433.94 1412.89) rotate(-180)"/><rect class="cls-15" x="210.03" y="712.86" width="13.89" height="2.43" rx="0.92" transform="translate(433.94 1428.15) rotate(180)"/><rect class="cls-16" x="186.92" y="659.9" width="164.08" height="10.95" rx="4.15" transform="translate(537.93 1330.75) rotate(-180)"/><rect class="cls-17" x="192.2" y="660.58" width="155.03" height="5.47" rx="2.74" transform="translate(539.44 1326.63) rotate(-180)"/><ellipse class="cls-18" cx="268.31" cy="534.71" rx="58.3" ry="9.32"/><path class="cls-4" d="M303,622.42c1.11-.67,9.81-2.64,16.66,17.37l-.67.53s-3,2.38-6.21,2.17l-1.16-.08L307.38,635"/><ellipse class="cls-6" cx="224.54" cy="659.18" rx="1.17" ry="2.47" transform="translate(-441.34 862.99) rotate(-88.21)"/><ellipse class="cls-19" cx="220.22" cy="658.97" rx="0.28" ry="2.19" transform="translate(-460.9 796.11) rotate(-82.9)"/><path class="cls-6" d="M222.21,657.34c-1.45-.36-1.35,1.09-1.54,2.62s.19,2.84.85,2.92,1.36-1.09,1.55-2.62S222.86,657.5,222.21,657.34Z"/><path class="cls-6" d="M220,657.07c-2.18-.21-1.14,1.1-1.33,2.62s.1,2.79.65,2.86,1.13-1.11,1.32-2.62S220.57,657.12,220,657.07Z"/><path class="cls-6" d="M217.93,657c-2,0-1.24,1-1.42,2.51s.16,2.71.76,2.78,1.24-1,1.42-2.51S218.54,657,217.93,657Z"/><path class="cls-6" d="M216,657.47c-1.12-.17-1.23.76-1.37,1.89s.44,2.16.86,2.21.88-.82,1-2S216.47,657.55,216,657.47Z"/><polygon class="cls-1" points="212.84 532.82 200.6 659.98 198.34 659.98 211.06 532.82 212.84 532.82"/><polygon class="cls-1" points="324.9 532.68 337.14 659.85 339.4 659.85 326.69 532.68 324.9 532.68"/><path class="cls-20" d="M287.51,642.82a21.2,21.2,0,0,1-1.27-9.3"/><path class="cls-6" d="M328.65,662.17a1.1,1.1,0,0,0,1.27.29.88.88,0,0,0,.38-1.18,2.54,2.54,0,0,0-.45-.48c-.35-.36-.54-.88-.92-1.23a2.13,2.13,0,0,0-1.37-.53,6.23,6.23,0,0,0-1.49.15,2.77,2.77,0,0,0,1.16,2.59C327.72,662.12,328.07,662,328.65,662.17Z"/><path class="cls-6" d="M329.26,663.82a1.32,1.32,0,0,1-1.33-.34c.06.52-.09,1-1,.87-1.66-.34-1.46-2.43-4.61-2.77s-7.13.62-7.46-.53,1.42-1.22,1.63-1.26,1.74-.34,1.83-.73-2-5.12-2.21-11.63c0,0,.33,0,0-.39-.16-.18-1.56-2-2.49-3.34a14.28,14.28,0,0,1-.82-1.21,5.76,5.76,0,0,0,3.31-.57,36.88,36.88,0,0,0,3.57-2.13s.18.49.44,1.17c.46,1.19,1.15,2.95,1.47,3.51a12,12,0,0,1,1.4,3.71,67.64,67.64,0,0,1,.51,9.32s-.94,0,1.31.57S331,663.56,329.26,663.82Z"/><path class="cls-3" d="M320,641.06a7.5,7.5,0,0,1-6.26,2.65c-.42-.59-.69-1-.76-1.1a7.27,7.27,0,0,0,3.41-.76,26.06,26.06,0,0,0,3.2-1.87S319.76,640.39,320,641.06Z"/><path class="cls-20" d="M318,659.33a1.89,1.89,0,0,1,2.1-.93"/><path class="cls-20" d="M327.87,662.92a9.07,9.07,0,0,0-3.63-3.4"/><path class="cls-20" d="M316,647.43a5.17,5.17,0,0,1,4.62-1.13"/><path class="cls-20" d="M249.24,636.28a6.88,6.88,0,0,0-.17-5.14"/><path class="cls-20" d="M228.43,638l-.78-5.29"/></svg>