<svg id="Layer_1" data-name="Layer 1" xmlns="http://www.w3.org/2000/svg" viewBox="0 0 28 17"><defs><style>.cls-1{fill:#8c3e36;}.cls-2{fill:#d26653;}.cls-3{fill:#fff;}.cls-4{fill:#f5968e;}.cls-5{fill:#f48678;}.cls-6{fill:#e9a597;opacity:0.5;}</style></defs><g id="S"><path class="cls-1" d="M23.21,7.61s-3.89.59-4.87.7a15.23,15.23,0,0,1-4.67-.61A22.27,22.27,0,0,1,9.43,6.49C9,6.2,4.71,3.83,4.71,3.83s.94,2.91,1.2,4a9.1,9.1,0,0,0,1,2.11,6.52,6.52,0,0,0,3.1,3.1,15.44,15.44,0,0,0,6.24,1.26c.48,0,3.95-2.59,4.45-3.15S23.21,7.61,23.21,7.61Z"/><path class="cls-2" d="M17.37,11A5.24,5.24,0,0,0,14.82,10a26.17,26.17,0,0,0-3.53-.43,5,5,0,0,0-.67,0c-.16,0-.34.14-.48,0l-.39.34c-.48.47,0,1.31.29,1.57a5,5,0,0,0,2.22.66,21.69,21.69,0,0,0,3.82.54c.4,0,1.13.24,1.47-.13A1.11,1.11,0,0,0,17.37,11Z"/><path class="cls-3" d="M20.13,8.39l-6.37-.11L7.49,5.8a7.25,7.25,0,0,0,.65,1.89A4.06,4.06,0,0,0,9.81,9.1a19.4,19.4,0,0,0,7.41,1.44,3.41,3.41,0,0,0,2.44-1.19A5.6,5.6,0,0,0,20.13,8.39Z"/><path class="cls-3" d="M18.66,13.14a4.39,4.39,0,0,0-.84-1.2c-1-.63-2.5,0-4.37-.38s-3.45-1.33-4.51-1c-.41.11-.9.84-.9.84l1.19,1.47,3.88,1.58,3.4-.51Z"/><path class="cls-4" d="M23.37,7.13a25.9,25.9,0,0,1-4.15,4.51c-1.16,1-4,1.59-6.28,1.14A8.12,8.12,0,0,1,8,9.86,33.86,33.86,0,0,1,4.77,3.44l-.06.39a24.38,24.38,0,0,0,2.12,6.49,7.48,7.48,0,0,0,5.82,4.42,7.38,7.38,0,0,0,7.4-2.41,16.7,16.7,0,0,0,3.26-4.81S23.37,7.13,23.37,7.13Z"/><path class="cls-5" d="M23.37,7.13a13.46,13.46,0,0,1-4.75,1.06A26.85,26.85,0,0,1,9.88,6.41a25.48,25.48,0,0,1-5.11-3s.14.44.17.49A12.83,12.83,0,0,0,8.72,6.77,22.82,22.82,0,0,0,14,8.62,21.72,21.72,0,0,0,19.37,9c1.54-.2,3.41-.84,3.78-1.33Z"/><path class="cls-6" d="M4.25,2.61c.4-.37,0-.51-.37-.15a2.7,2.7,0,0,0-.32,1.28A12,12,0,0,1,4.25,2.61Z"/><path class="cls-6" d="M23.73,6.61c-.39-.39.32-.45.61-.08s-.13,1.18-.13,1.18C23.92,6.8,23.85,6.74,23.73,6.61Z"/></g></svg>