<svg id="Layer_1" data-name="Layer 1" xmlns="http://www.w3.org/2000/svg" viewBox="0 0 20 10"><defs><style>.cls-1{fill:#551514;}.cls-2{fill:#fff;}.cls-3{fill:#d72b5d;}.cls-4{fill:#bb7757;}.cls-5{fill:#dc9e8f;}</style></defs><g id="EE"><path class="cls-1" d="M17.79.83s-2.54.92-3.07,1.09c-.73.22-1.49.44-2.24.59l-3.89.77a9.59,9.59,0,0,1-1.91.19A5.66,5.66,0,0,0,5,3.61,3.9,3.9,0,0,0,4,4L2.48,3.78A6.12,6.12,0,0,0,3.71,5.9c.3.36.87.89,1.17,1.25C6,8.44,7.66,8.37,9.45,8.28a9.73,9.73,0,0,0,3-.7,5.51,5.51,0,0,0,1.86-.89c.19-.19.3-.15.47-.36s.92-.68,1.1-1.06.6-.85.82-1.3C17,3.33,17.79.83,17.79.83Z"/><path class="cls-2" d="M15.27,2.18l-1.21-.11c-.09,0-4,1-4,1s-4,.56-4.06.6S4.92,4,4.92,4a10.72,10.72,0,0,0,1,1.31c.5.26,2,.13,4.41-.3s3.57-.8,4.24-1.32A4.49,4.49,0,0,0,15.27,2.18Z"/><path class="cls-3" d="M7.62,8.08c.78.37,1.44.44,3.18.1a5.86,5.86,0,0,0,3-1.41c-.16-.48-1.64-.65-2.39-.31A22.2,22.2,0,0,1,9,7C8.43,7.23,7.76,7.59,7.62,8.08Z"/><path class="cls-2" d="M15.63,5.31s-1.35.7-2.09,1-2.75.86-2.75.86-1.92.35-2.57.37-2.64,0-2.64,0L8.53,9.26,11,9h0l.21,0v0l2.39-.71Z"/><path class="cls-4" d="M17.79.83a15,15,0,0,1-2.16,4.48,8,8,0,0,1-4.54,3.15,8.21,8.21,0,0,1-6-1.4A10.14,10.14,0,0,1,2.48,3.78s2.61,7.17,8.73,6C16.8,8.7,17.79.83,17.79.83Z"/><path class="cls-4" d="M10.07,2.86a74.79,74.79,0,0,1-7.59.92s1.4,1,7.7-.26C17.41,2.12,17.79.83,17.79.83S13,2.26,10.07,2.86Z"/><path class="cls-5" d="M2.36,3.37c.23-.39-.14-.35-.3,0a2,2,0,0,0,0,1S2.29,3.49,2.36,3.37Z"/><path class="cls-5" d="M17.53.46c-.36-.17,0-.39.25-.21s.32.85.32.85C17.7.53,17.65.51,17.53.46Z"/></g></svg>