<svg id="Layer_1" data-name="Layer 1" xmlns="http://www.w3.org/2000/svg" viewBox="0 0 117.99 113.88"><defs><style>.cls-1{fill:#342516;}.cls-2,.cls-4{fill:#fad2c6;}.cls-2{stroke:#323232;stroke-width:0.25px;}.cls-2,.cls-9{stroke-miterlimit:10;}.cls-3{fill:#3d2d16;}.cls-5{fill:#632323;}.cls-6{fill:#323232;}.cls-7{fill:#dc9e8f;}.cls-8{fill:#e8d860;}.cls-9{fill:none;stroke:#ef4b3b;stroke-width:2px;}.cls-10{fill:#ef4b3b;}.cls-11{fill:#f49990;}</style></defs><path class="cls-1" d="M23,34.81c-.33,1.42-13.12,15.28-7,34.88s-7.94,32.21,11.73,38c18.08,5.33,31.68.81,31.68.81l2-6.39,18.45-5.67-.45,10.62s15.76-2.72,26.11-8.72a19.65,19.65,0,0,0,6.32-5.62c8.69-12.34-2.14-17-3.18-42.27S54.37-10.12,20,34Z"/><path class="cls-2" d="M99.21,37.57c1,8,2.82,29.37,1.63,39.08-2.66,21.86-26.51,29.68-31.1,30-7.39.51-23.87-.55-33-11.5s-11.7-31.69-11.7-31.69-8.18-20.24,4.24-37.31S57,6.49,74.31,9.51C95.44,13.2,99.21,37.57,99.21,37.57Z"/><path class="cls-3" d="M48.43,47.77s-7.54-.07-10.28,5.38a.25.25,0,0,1-.47-.06c-.13-1.5.18-4.68,4.61-6.3C49.26,44.22,48.43,47.77,48.43,47.77Z"/><path class="cls-3" d="M77.36,46s7.41-1.84,11.4,2.81c.16.19.5.07.46-.16-.24-1.49-1.3-4.51-6-5C75.7,42.7,77.36,46,77.36,46Z"/><path class="cls-4" d="M60,76.72c2.71,3,7.34,3.18,9.33-.59"/><path class="cls-5" d="M60,76.72a8.11,8.11,0,0,0,4.87,1.76,5.13,5.13,0,0,0,2.42-.63,7.31,7.31,0,0,0,2-1.72,4.47,4.47,0,0,1-1.61,2.37,4.77,4.77,0,0,1-2.82,1A5.6,5.6,0,0,1,60,76.72Z"/><path class="cls-1" d="M73,29s-2.34,8-14.09,13.26c0,0,4.57-4.64,1.79-10.76,0,0,0,13.69-16.22,14.65l4.1-10.54-12,15.58.69-11.24s-14.94,35.16-20,35.93c0,0-13.53-37.09,13.6-61.91S91.65,11,91.65,11s25.16,19.85,15.41,53.08c0,0-7.68,2.43-8.87.89S98,59,93,47.77C86.7,33.64,73,29,73,29Z"/><path class="cls-4" d="M27,67.24c.06-.13.23.15.07.18s-.27-.14-.33-.27a10.16,10.16,0,0,0-3.51-4,5,5,0,0,0-3.67-1c-1.81.39-2.68,2.22-2.93,3.88A13.09,13.09,0,0,0,18.05,74c2.24,4.33,7.26,7.75,12.49,7.38"/><path class="cls-6" d="M27,67.24c.07-.11.21.09.12.18a.28.28,0,0,1-.31-.08c-.14-.17-.21-.35-.33-.52a8.16,8.16,0,0,0-.68-1,9.48,9.48,0,0,0-1.68-1.67A6,6,0,0,0,20,62.53a3.51,3.51,0,0,0-2.74,3,11.49,11.49,0,0,0,0,4.6A13.88,13.88,0,0,0,21.84,78a13.45,13.45,0,0,0,8.7,3.35A11.72,11.72,0,0,1,25.7,81a14.72,14.72,0,0,1-4.35-2.32A14.29,14.29,0,0,1,18,74.94a14,14,0,0,1-1.79-4.65,12.1,12.1,0,0,1,.09-5A5.59,5.59,0,0,1,17.52,63a3.49,3.49,0,0,1,2.38-1.19,4.83,4.83,0,0,1,2.51.59,8.88,8.88,0,0,1,2,1.44A10.92,10.92,0,0,1,26,65.68a11.24,11.24,0,0,1,.6,1.07,5.44,5.44,0,0,0,.25.54.22.22,0,0,0,.23.1C27.17,67.36,27.09,67.14,27,67.24Z"/><path class="cls-7" d="M22.24,68.4A15.41,15.41,0,0,1,23.74,70c.36.46.69,1.13.32,1.58s-1,.35-1.23.77.08,1,.53,1.22,1,.26,1.43.46A2,2,0,0,1,26,75.69a1.32,1.32,0,0,1-.11.71,1.37,1.37,0,0,1-1.63.54,3.78,3.78,0,0,1-1.48-1.1,13.94,13.94,0,0,1-2.48-3.34C19.31,70.59,18.71,65.07,22.24,68.4Z"/><path class="cls-8" d="M27.89,78.6s3.61,6,0,7.41-3.12-5.7-3.12-5.7,1.53,5.82,2.33,2Z"/><path class="cls-4" d="M99.85,59.71c-.08-.12-.2.19,0,.19s.24-.18.29-.32A10.09,10.09,0,0,1,103,55.17a5,5,0,0,1,3.49-1.49c1.85.13,3,1.82,3.45,3.43a13,13,0,0,1-.27,8c-1.61,4.6-6.09,8.7-11.32,9.07"/><path class="cls-6" d="M99.85,59.71c-.09-.09-.14.14-.07.16a.21.21,0,0,0,.21-.13,4.25,4.25,0,0,0,.17-.57,8.43,8.43,0,0,1,.45-1.14,10.51,10.51,0,0,1,1.29-2.09,9.8,9.8,0,0,1,1.81-1.71,4.92,4.92,0,0,1,2.4-.94,3.54,3.54,0,0,1,2.53.84,5.66,5.66,0,0,1,1.51,2.13,12.18,12.18,0,0,1,.8,5,13.69,13.69,0,0,1-3.89,9,14.89,14.89,0,0,1-4,2.91,11.72,11.72,0,0,1-4.73,1.12,13.45,13.45,0,0,0,8.14-4.55,13.82,13.82,0,0,0,3.45-8.5,11.62,11.62,0,0,0-.67-4.55,3.52,3.52,0,0,0-3.13-2.56,6,6,0,0,0-3.88,2.2,10.28,10.28,0,0,0-1.43,1.9,9.74,9.74,0,0,0-.54,1.07,4.46,4.46,0,0,1-.25.55.24.24,0,0,1-.29.12C99.66,59.83,99.76,59.61,99.85,59.71Z"/><path class="cls-7" d="M104.74,60.19A15.16,15.16,0,0,0,103.49,62c-.3.5-.53,1.21-.1,1.6s1,.22,1.33.59.06,1-.35,1.29-.93.39-1.36.65a2,2,0,0,0-.92,1.78,1.41,1.41,0,0,0,.22.69,1.36,1.36,0,0,0,1.68.3,3.71,3.71,0,0,0,1.31-1.3,13.8,13.8,0,0,0,2-3.65C107.94,61.94,107.76,56.39,104.74,60.19Z"/><path class="cls-8" d="M100.59,71.08s-2.73,6.44,1,7.34,2.29-6.09,2.29-6.09-.69,6-2,2.37Z"/><path class="cls-9" d="M22,62.44S15.24,37.55,33.81,18.18,81.22,6.9,91.7,20.3c14.28,18.27,9.88,36.83,9.88,36.83"/><path class="cls-10" d="M28.7,21.33S27.09-1,35.69,6.85s11.25,17.45-4.5,18.83c-2.75.24-4,1.09-4.69,3.72-1.5,6-3,28.18-17.28,4.37-9.58-16,15.58-6.55,15.58-6.55S21.08,20.35,28.7,21.33Z"/><ellipse class="cls-11" cx="11.35" cy="29.15" rx="1.49" ry="1.73" transform="translate(-4.91 2.43) rotate(-10.05)"/><ellipse class="cls-11" cx="22.51" cy="34.91" rx="1.49" ry="1.73" transform="translate(-5.75 4.46) rotate(-10.05)"/><ellipse class="cls-11" cx="34.6" cy="15.69" rx="1.49" ry="1.73" transform="translate(-2.21 6.28) rotate(-10.05)"/><ellipse class="cls-11" cx="39.08" cy="16.99" rx="1.49" ry="1.73" transform="translate(-2.37 7.08) rotate(-10.05)"/><ellipse class="cls-11" cx="37.73" cy="11.89" rx="1.49" ry="1.73" transform="translate(-1.5 6.77) rotate(-10.05)"/><ellipse class="cls-11" cx="34.73" cy="8.72" rx="1.49" ry="1.73" transform="translate(-0.99 6.19) rotate(-10.05)"/><ellipse class="cls-11" cx="37.09" cy="22.05" rx="1.49" ry="1.73" transform="matrix(0.98, -0.17, 0.17, 0.98, -3.28, 6.81)"/><ellipse class="cls-11" cx="31.32" cy="8.96" rx="1.49" ry="1.73" transform="translate(-1.08 5.6) rotate(-10.05)"/><ellipse class="cls-11" cx="30.5" cy="15.98" rx="1.49" ry="1.73" transform="translate(-2.32 5.57) rotate(-10.05)"/><ellipse class="cls-11" cx="33.32" cy="21.61" rx="1.49" ry="1.73" transform="translate(-3.26 6.15) rotate(-10.05)"/><ellipse class="cls-11" cx="16.23" cy="27.07" rx="1.49" ry="1.73" transform="translate(-4.48 3.25) rotate(-10.05)"/><ellipse class="cls-11" cx="17.04" cy="38.45" rx="1.49" ry="1.73" transform="translate(-6.45 3.56) rotate(-10.05)"/><ellipse class="cls-11" cx="12.65" cy="35.61" rx="1.49" ry="1.73" transform="translate(-6.02 2.75) rotate(-10.05)"/><ellipse class="cls-11" cx="17.23" cy="32.71" rx="1.49" ry="1.73" transform="translate(-5.44 3.51) rotate(-10.05)"/><ellipse class="cls-11" cx="20.85" cy="41.38" rx="1.49" ry="1.73" transform="translate(-6.9 4.27) rotate(-10.05)"/><ellipse class="cls-11" cx="21.48" cy="29.1" rx="1.49" ry="1.73" transform="translate(-4.75 4.19) rotate(-10.05)"/></svg>