<svg id="Layer_1" data-name="Layer 1" xmlns="http://www.w3.org/2000/svg" viewBox="0 0 500 700"><defs><style>.cls-1{fill:#4a2a15;}.cls-2,.cls-7{fill:#fbd3c7;}.cls-17,.cls-2,.cls-4,.cls-5,.cls-7,.cls-8{stroke:#323232;stroke-miterlimit:10;}.cls-2{stroke-width:0.5px;}.cls-3{fill:#e4a68d;}.cls-4{fill:#fcde7d;}.cls-17,.cls-4,.cls-5,.cls-7,.cls-8{stroke-width:0.25px;}.cls-5{fill:#e0614f;}.cls-6{fill:#f5937d;}.cls-8{fill:none;}.cls-9{fill:#fab51b;}.cls-10{fill:#f17125;}.cls-11{fill:#80351b;}.cls-12{fill:#75451c;}.cls-13{fill:#a66638;}.cls-14{fill:#925b24;}.cls-15{fill:#e69847;}.cls-16{fill:#5f2710;}.cls-17{fill:#efc35b;}.cls-18{fill:#c09232;}.cls-19{fill:#dd9f8f;}</style></defs><polygon class="cls-1" points="295.67 492.39 306.72 607.18 308.76 607.18 297.29 492.39 295.67 492.39"/><polygon class="cls-1" points="213.42 492.27 202.38 607.06 200.33 607.06 211.81 492.27 213.42 492.27"/><path class="cls-2" d="M285.22,580.68a9.44,9.44,0,0,1,.29-3.76H277.8a2.64,2.64,0,0,1-.26,2.07,3,3,0,0,1-1.13,1.16c-1.72,1,8.59,2.74,8.87,2.91s2-1.65,2-1.65l-1.76-.52Z"/><path class="cls-3" d="M285.51,576.92h-7.63a2.38,2.38,0,0,1-.19,2c1.44,1.12,3.07,2.13,7.11,1.48l.33-.21A8.22,8.22,0,0,1,285.51,576.92Z"/><path class="cls-4" d="M267.61,583.08l-3.23,3.54,1.86,2.83,2.87,2.51,2-2.38-1.29,18.3a11.73,11.73,0,0,0,10.72,5.63c8.17-.25,3.11-6.5,3.11-6.5s5.33-11.76,5.13-14c0,0,.85-3.09.85-3.12-.2-2.66.51-4.38.19-6.14,0,0-2.24-3-4.75-3.19l.19-.47s-.21,1.87-4,1.58-4.06-2.76-4.06-2.76l-2,.43C272.61,578.79,270.75,579.6,267.61,583.08Z"/><path class="cls-5" d="M289.12,591c-.49-.32-.21.41-1.73.25-4.6-.46-10,.16-15.25-3.51l-.4.47c-2.69,6.41-5.86,14.46-6,21.41h0s14.8,15,28.48,3.4l-3.65-2.87c-.89-4-2.42-10.33-2-14.37l.28-2.77Z"/><path class="cls-5" d="M286.51,581.47a26.51,26.51,0,0,1-.95,10.38.47.47,0,0,0,.07.4l.73,1a.46.46,0,0,0,.75,0l.82-.78s.15-.06.17-.11a21.1,21.1,0,0,0-.35-10.91c0-.12-.59-.42-.59-.42A.47.47,0,0,0,286.51,581.47Z"/><path class="cls-5" d="M276.24,579.53a43.72,43.72,0,0,0-1.46,10.56.55.55,0,0,1-.29.51l-.88.48a.57.57,0,0,1-.78-.25l-.61-1.22a.65.65,0,0,1-.06-.34,43.25,43.25,0,0,1,3-10.11.57.57,0,0,1,.58-.33h0A.57.57,0,0,1,276.24,579.53Z"/><circle class="cls-6" cx="275.05" cy="603.73" r="1.89"/><circle class="cls-6" cx="275.12" cy="597.32" r="1.89"/><circle class="cls-6" cx="270.71" cy="600.62" r="1.89"/><ellipse class="cls-6" cx="286.43" cy="597.56" rx="1.32" ry="1.89"/><ellipse class="cls-6" cx="286.8" cy="602.42" rx="1.32" ry="1.89"/><circle class="cls-6" cx="269.41" cy="605.12" r="1.89"/><circle class="cls-6" cx="284.35" cy="605.98" r="1.89"/><path class="cls-6" d="M286.62,607.62a1.89,1.89,0,0,0,1.95,1.84c1,0,.58-.85.55-1.89s.38-1.93-.67-1.9A1.9,1.9,0,0,0,286.62,607.62Z"/><circle class="cls-6" cx="279.82" cy="604.33" r="1.89"/><circle class="cls-6" cx="276.04" cy="606.54" r="1.89"/><circle class="cls-6" cx="281.76" cy="599.21" r="1.89"/><circle class="cls-6" cx="278.31" cy="594.08" r="1.89"/><circle class="cls-6" cx="283.34" cy="594.09" r="1.89"/><ellipse class="cls-6" cx="271.25" cy="594.47" rx="1.59" ry="1.89" transform="translate(-18.46 8.77) rotate(-1.79)"/><ellipse class="cls-6" cx="269.09" cy="609.16" rx="1.45" ry="1.72" transform="translate(-18.92 8.71) rotate(-1.79)"/><path class="cls-7" d="M273.6,598a4.69,4.69,0,0,1,1.89-1.24,1.65,1.65,0,0,1,.73-.11.69.69,0,0,1,.57.41.73.73,0,0,1,0,.56,2.16,2.16,0,0,1-.34.47l-.4.47"/><path class="cls-7" d="M278.41,601.56a.55.55,0,0,1-.27.4c-.34.18-.63-.1-.88-.34a4.77,4.77,0,0,0-2.08-1.16,1.06,1.06,0,0,0-.91.07c-.25.19-.22.69.1.73,0,0,2,1.06,2.44,1.86s.15,1.3-.45,1.5c0,0,.51,1.56-2,1,0,0,.11.89-1.17.4a6.22,6.22,0,0,1-3.72-3.89,11.25,11.25,0,0,1-6.35-3.86,6.78,6.78,0,0,1,0-8.74l.93-1.24.75-1s1,1.18,2.25,2.49a5,5,0,0,0,2.6,1.52l-1.07,1.27-1,1.16a16.28,16.28,0,0,1,2.45,4.45l.28.6a6.92,6.92,0,0,1,3.68-1,3.65,3.65,0,0,1,1.19,0,3.45,3.45,0,0,1,1,.48,7.27,7.27,0,0,1,1.58,1.24A2.46,2.46,0,0,1,278.41,601.56Z"/><path class="cls-8" d="M272.76,603.92a6.7,6.7,0,0,0,1.74,1.66"/><path class="cls-8" d="M273.22,602.66a12.34,12.34,0,0,0,3.14,2"/><path class="cls-8" d="M270.75,598.52a2.7,2.7,0,0,0-1.64,1.85"/><path class="cls-8" d="M267.72,594a.78.78,0,0,0-.27-.53,3.8,3.8,0,0,0-3.23-1.1"/><path class="cls-3" d="M269.44,591.3l-1,1.13a7.48,7.48,0,0,1-4.35-4.1l.68-.92s.88,1,2.1,2.33A5.16,5.16,0,0,0,269.44,591.3Z"/><path class="cls-4" d="M288.51,582.27s3.12.77,4.34,2.8,4,7,4,7a4.39,4.39,0,0,1-5.59,2.42L289.12,591"/><path class="cls-8" d="M289.12,591a6,6,0,0,0,.75-2.81"/><path class="cls-8" d="M271.67,588.05a.12.12,0,0,0,.15.1,17.09,17.09,0,0,1,.4-4.45"/><path class="cls-9" d="M310.8,497.42l-4.75-.21-16.93-.71-16.25-.68-38.09-1.62-16.42-.69-19.89-.85-2-.08S9,281.68,23.87,176.23c8-56.85,35.16-86.42,58.45-101.62a.21.21,0,0,1,.07,0c19.89-12.93,37-15.39,37-15.39A116.93,116.93,0,0,1,136.63,50h0c24.52-10.54,45.47-9.17,56.3-7.23a52.69,52.69,0,0,1,7.92,1.92c59.49-26.31,96.91-2.53,103.39,2.14.68.49,1,.77,1,.77,26.88-9.1,51-4.5,66.33.83a89.89,89.89,0,0,1,17.19,7.87c16.27,6.06,29.88,13.36,41.22,21.66h0s.06,0,.07.07C583.64,191.23,310.8,497.42,310.8,497.42Z"/><path class="cls-10" d="M315.77,184c0,121.89-20.25,260.15-42.9,311.85l-38.09-1.62C216.19,451.51,201.59,353,190.54,239,181.6,146.53,184.42,84.34,193,42.73a52.69,52.69,0,0,1,7.92,1.92c59.49-26.31,96.91-2.53,103.39,2.14C311.32,81.37,315.77,126.85,315.77,184Z"/><path class="cls-10" d="M306.05,497.21l-16.93-.71c165.77-270.12,118.14-424.76,86-446.81L430,77.92h0s-27.87-15.71-27.86-15.68C561.88,174.29,351.64,442.14,306.05,497.21Z"/><path class="cls-10" d="M218.36,493.51l-19.89-.85c-51.95-63.74-237.4-308.61-116.15-418a.21.21,0,0,1,.07,0c19.89-12.93,37-15.39,37-15.39,5.9-3.79-2.45.43,3.16-2C102.69,93.62,60.47,231.63,218.36,493.51Z"/><ellipse class="cls-11" cx="255.97" cy="494.04" rx="58.87" ry="10.26"/><path class="cls-12" d="M302.83,665.12h0c-30.72,2.74-58.3,3.34-90.56.83h0c-9-1.5-15.46-6.16-16.09-11.65l-4.3-37.81h126.4l-3.52,39.58C314.39,660.25,309.64,663.85,302.83,665.12Z"/><rect class="cls-13" x="201.86" y="620.55" width="12.53" height="2.19" rx="0.94"/><rect class="cls-13" x="201.86" y="627.43" width="12.53" height="2.19" rx="0.94"/><rect class="cls-13" x="201.86" y="634.32" width="12.53" height="2.19" rx="0.94"/><rect class="cls-13" x="201.86" y="641.2" width="12.53" height="2.19" rx="0.94"/><rect class="cls-13" x="201.86" y="648.08" width="12.53" height="2.19" rx="0.94"/><rect class="cls-13" x="201.86" y="654.97" width="12.53" height="2.19" rx="0.94"/><rect class="cls-13" x="220.66" y="620.55" width="12.53" height="2.19" rx="0.94"/><rect class="cls-13" x="220.66" y="627.43" width="12.53" height="2.19" rx="0.94"/><rect class="cls-13" x="220.66" y="634.32" width="12.53" height="2.19" rx="0.94"/><rect class="cls-13" x="220.66" y="641.2" width="12.53" height="2.19" rx="0.94"/><rect class="cls-13" x="220.66" y="648.08" width="12.53" height="2.19" rx="0.94"/><rect class="cls-13" x="220.66" y="654.97" width="12.53" height="2.19" rx="0.94"/><rect class="cls-13" x="239.47" y="620.55" width="12.53" height="2.19" rx="0.94"/><rect class="cls-13" x="239.47" y="627.43" width="12.53" height="2.19" rx="0.94"/><rect class="cls-13" x="239.47" y="634.32" width="12.53" height="2.19" rx="0.94"/><rect class="cls-13" x="239.47" y="641.2" width="12.53" height="2.19" rx="0.94"/><rect class="cls-13" x="239.47" y="648.08" width="12.53" height="2.19" rx="0.94"/><rect class="cls-13" x="239.47" y="654.97" width="12.53" height="2.19" rx="0.94"/><rect class="cls-13" x="258.27" y="620.55" width="12.53" height="2.19" rx="0.94"/><rect class="cls-13" x="258.27" y="627.43" width="12.53" height="2.19" rx="0.94"/><rect class="cls-13" x="258.27" y="634.32" width="12.53" height="2.19" rx="0.94"/><rect class="cls-13" x="258.27" y="641.2" width="12.53" height="2.19" rx="0.94"/><rect class="cls-13" x="258.27" y="648.08" width="12.53" height="2.19" rx="0.94"/><rect class="cls-13" x="258.27" y="654.97" width="12.53" height="2.19" rx="0.94"/><rect class="cls-13" x="277.19" y="620.55" width="12.53" height="2.19" rx="0.94"/><rect class="cls-13" x="277.19" y="627.43" width="12.53" height="2.19" rx="0.94"/><rect class="cls-13" x="277.19" y="634.32" width="12.53" height="2.19" rx="0.94"/><rect class="cls-13" x="277.19" y="641.2" width="12.53" height="2.19" rx="0.94"/><rect class="cls-13" x="277.19" y="648.08" width="12.53" height="2.19" rx="0.94"/><rect class="cls-13" x="277.19" y="654.97" width="12.53" height="2.19" rx="0.94"/><rect class="cls-13" x="296.11" y="620.55" width="12.53" height="2.19" rx="0.94"/><rect class="cls-13" x="296.11" y="627.43" width="12.53" height="2.19" rx="0.94"/><rect class="cls-13" x="296.11" y="634.32" width="12.53" height="2.19" rx="0.94"/><rect class="cls-13" x="296.11" y="641.2" width="12.53" height="2.19" rx="0.94"/><rect class="cls-13" x="296.11" y="648.08" width="12.53" height="2.19" rx="0.94"/><rect class="cls-13" x="296.11" y="654.97" width="12.53" height="2.19" rx="0.94"/><rect class="cls-14" x="181.39" y="607.17" width="148.11" height="9.88" rx="4.22"/><rect class="cls-15" x="184.8" y="607.78" width="139.94" height="4.94" rx="2.47"/><ellipse class="cls-16" cx="256.04" cy="494.16" rx="52.63" ry="8.41"/><polygon class="cls-1" points="308.34 492.45 319.39 607.24 321.43 607.24 309.95 492.45 308.34 492.45"/><polygon class="cls-1" points="203.41 492.33 192.36 607.12 190.32 607.12 201.8 492.33 203.41 492.33"/><path class="cls-17" d="M218.25,575.37c0,.55-3,8.92-4.18,31.62l24.38,0s-.69-13-.69-18.57l2.69,3.61,1.26-.45c2.49-1.2,3.26-1.56,4.9-3.37l1.1-1.28-3.79-5.27a15.82,15.82,0,0,0-4.3-3.48A28.42,28.42,0,0,0,235,576.3h0a85.42,85.42,0,0,0-9.33-3.16c-2.42-.7-7.85.58-7.85.58Z"/><path class="cls-18" d="M215.93,588.52s16.29,5.35,21.83,1.77v2.8s-9,3.4-22.15-2.48Z"/><path class="cls-18" d="M215.09,593.78s16.06,6.43,22.85,2v2.42s-6.72,5.39-23-2.09Z"/><path class="cls-7" d="M214,589.89a20.6,20.6,0,0,1-1.09,2.43,24.72,24.72,0,0,1,1.35,3.92c.15,1.12,2.55,7.45,3.94,8.46l-3,1.07a15.42,15.42,0,0,1-6.24-6.88c-.4-.8-.73-1.51-1-2.14a10.88,10.88,0,0,1-.48-7.35l.89-3.11S210.29,586.47,214,589.89Z"/><path class="cls-7" d="M208.75,590.78c-.67.25,2.82.11,3.88,1.54"/><path class="cls-7" d="M213.93,606.67a3.32,3.32,0,0,0,1.24,3.08c1.54,1,.66-1.54.66-1.54s1.79,3.9,1.55-1c0,0,.29,2.35,1.22,2.4s.54-3.36.54-3.36,2.22,1.45,3.83.32c.19-.14.06-.47-.13-.61a1.39,1.39,0,0,0-.88-.22c-.92,0-2-1.32-3.19-2s-1.66.32-3.2.07-3.33,1.79-3.4,4.1S213.93,606.67,213.93,606.67Z"/><path class="cls-7" d="M215.93,608.4a4,4,0,0,1-.35-1.95"/><path class="cls-7" d="M217.4,608.17a7.25,7.25,0,0,0,0-1.87"/><path class="cls-7" d="M219.12,606.45a1.71,1.71,0,0,0-.22-1.35"/><path class="cls-17" d="M220,573.26c-.64.06-6.13-2.32-13,14.2l.37.3a14.05,14.05,0,0,0,7.34,3h0l1.19-4.31"/><path class="cls-8" d="M216,586.71c0-2.4-.69-2.62,1-6.83"/><path class="cls-8" d="M237.76,588a8.43,8.43,0,0,0,1.62-5.91"/><path class="cls-7" d="M232.08,570.62h-5.9a5.83,5.83,0,0,1-.59,0,4.12,4.12,0,0,0-1.2,3,4.75,4.75,0,0,0,0,.54c.36,2.47,3.1,3.81,5.32,3.81a3.56,3.56,0,0,0,3-1,4,4,0,0,0,.68-2.59A5.55,5.55,0,0,0,232.08,570.62Z"/><path class="cls-3" d="M232.08,570.62h-5.9c-.27,0-.52,0-.77,0a3.62,3.62,0,0,0-1,2.59c0,.19.08.86.11,1,1.64,1.3,4,2.45,8.05,2.68a4,4,0,0,0,.8-2.59A5.55,5.55,0,0,0,232.08,570.62Z"/><path class="cls-3" d="M207.63,589.53s3.24,2,5.47,2l.32-.77a12.78,12.78,0,0,1-5.5-2.38Z"/><path class="cls-7" d="M303.61,607.4a.76.76,0,0,0,.87.2.61.61,0,0,0,.26-.81,1.83,1.83,0,0,0-.3-.32c-.25-.26-.38-.61-.63-.85a1.47,1.47,0,0,0-.94-.36,4.41,4.41,0,0,0-1,.1,1.9,1.9,0,0,0,.79,1.77A2.31,2.31,0,0,0,303.61,607.4Z"/><path class="cls-7" d="M304.05,608.53a1.51,1.51,0,0,1-1.63-.81s.61,1.8-.52,1.57-1-2.07-3.17-2.3-5.27.58-5.5-.2,1.37-1,1.51-1,1.19-.23,1.25-.5a15.54,15.54,0,0,1-2.35-7.38,2.1,2.1,0,0,1-.42-.39c-.16-.17-1.35-2.46-1.5-2.77a6.48,6.48,0,0,0,3-.35,2.92,2.92,0,0,0,2-1.9s1.1,2.23,1.44,2.83a8.07,8.07,0,0,1,.95,2.53,46.28,46.28,0,0,1,.35,6.37s0,.17,1.55.57S305.24,608.36,304.05,608.53Z"/><path class="cls-8" d="M295.75,605.46a2.58,2.58,0,0,1,1.44-.33"/><path class="cls-8" d="M302.52,607.91a6.18,6.18,0,0,0-2.48-2.33"/><path class="cls-19" d="M297.16,593.58a4.52,4.52,0,0,1-4.61,2.39,6.61,6.61,0,0,1-.65-1.14,4.87,4.87,0,0,0,2.88-.35,5.34,5.34,0,0,0,2-1.64A5,5,0,0,0,297.16,593.58Z"/><path class="cls-8" d="M293.64,598a2.36,2.36,0,0,1,.78-1.25,2.92,2.92,0,0,1,1.63-.52"/></svg>