<svg id="Layer_1" data-name="Layer 1" xmlns="http://www.w3.org/2000/svg" xmlns:xlink="http://www.w3.org/1999/xlink" viewBox="0 0 200 60"><defs><style>.cls-1{fill:none;}.cls-2{clip-path:url(#clip-path);}.cls-3{fill:#eb652f;}.cls-4{fill:#f6a42c;}.cls-5{fill:#fff18b;}.cls-6{fill:#281b17;}.cls-7{fill:#473a3a;}.cls-8{fill:#5e5454;}</style><clipPath id="clip-path"><path class="cls-1" d="M84.77,11s21.79-.09,26.15.18c0,0,7.77,5.58,1.88,10.15s-14.49,7.86-21.46,5.91S77.76,16.63,84.77,11Z"/></clipPath></defs><g class="cls-2"><path class="cls-3" d="M99.35,23c-4.68,0-11.49-1.9-11.49-6.27a4.85,4.85,0,0,1,3.65-4.63,4.94,4.94,0,0,0-1.24,1.52c-.35.71-.85,1.7,0,2.55a3.63,3.63,0,0,0,2.75,1,2.7,2.7,0,0,0,2.25-1.51c.67-1.69-2.78-2.36-2.76-4.15,0-2.36,5.49-4,5.49-5.75a1.75,1.75,0,0,0-.48-1.31c.63.16,2,.63,2,1.56,0,1.38-2,2.85-2,4.22s1.46,1.44,2,1.44a2.17,2.17,0,0,0,2.37-2.06c0-1.6-1.77-2.19-1.77-2.19s5.06.66,5.06,3.22a3.87,3.87,0,0,1-.44,1.75c-.86,1.67-2.34,2-2.21,3.12a1.74,1.74,0,0,0,1.18,1.4,2.85,2.85,0,0,0,.94.16,2,2,0,0,0,2-1.91,2.25,2.25,0,0,0-1.26-1.79,4,4,0,0,1,3.39,4.2C108.82,21.05,102.79,23,99.35,23Z"/><path class="cls-4" d="M99.35,23c-3.94,0-7.17-2.66-7.78-3.9,1.53,1,4.44,1.06,5-1,.38-1.38,1.75-3.24,4.94-4.09-2.31,1.74-2.58,4.61.5,5.11,2.69.45,5.09-1.6,5.09-1.6A8.89,8.89,0,0,1,99.35,23Z"/><path class="cls-5" d="M99.35,23c-.42.13-5.59-1.67-.63-4.8A2,2,0,0,0,100,21.3a5.1,5.1,0,0,0,2.9-1.39C102.87,20.68,102.26,22.18,99.35,23Z"/></g><path class="cls-6" d="M137.22,49c-2.28-1.57-22.12-12.39-22.63-12.69a4.49,4.49,0,0,1,.89-.34l1-1.19c.43.12,22,12.53,24.2,14Z"/><path class="cls-6" d="M63.14,49l-3.42-.21c1.74-1.25,21.06-14.59,21.54-14.71l3.4.61-.85.17C83.34,35.16,65,47.64,63.14,49Z"/><path class="cls-7" d="M77.23,25.27V35h42.65V24.5s-2.81-1.28-9.32-1.66a150.81,150.81,0,0,0-28,.51S78.5,23.61,77.23,25.27Z"/><ellipse class="cls-8" cx="98.55" cy="34.06" rx="21.33" ry="4.24"/><path class="cls-8" d="M118.77,29.82c.68,0,71.92-11,75.26-11.9"/><path class="cls-6" d="M118.77,30.91V29.82l-.08-1.08c.46,0,69.69-10.59,73.41-11.58l4.07,1.15C193.88,18.92,120.1,30.91,118.77,30.91Z"/><path class="cls-8" d="M79.1,28.79c-.68,0-64.58-10.29-72.18-10.39"/><path class="cls-6" d="M79.1,29.87c-.21,0-.89-.09-9.79-1.37-18.17-2.62-59.77-10-65.48-10.1l4.6-1.31c5.86.09,43,6.64,61.19,9.26,5.13.74,9.19,1.32,9.55,1.35Z"/></svg>