<svg xmlns="http://www.w3.org/2000/svg" viewBox="0 0 130.64 112.25"><defs><style>.cls-1{isolation:isolate;}.cls-2{fill:#5c5548;}.cls-3{fill:#424036;}.cls-4{fill:#fad2c6;stroke:#323232;stroke-width:0.5px;}.cls-4,.cls-7{stroke-miterlimit:10;}.cls-5{fill:#e4a58c;}.cls-6{fill:#421b16;}.cls-7{fill:#311415;stroke:#211e1f;stroke-width:0.25px;}.cls-8{fill:#90856e;}.cls-9{fill:#605e44;}.cls-10,.cls-13{fill:#9e9580;opacity:0.5;}.cls-10,.cls-12{mix-blend-mode:multiply;}.cls-11,.cls-12{fill:#676254;}.cls-12{opacity:0.4;}.cls-13{mix-blend-mode:screen;}.cls-14{fill:#c28974;}</style></defs><g class="cls-1"><g id="Layer_1" data-name="Layer 1"><path class="cls-2" d="M23.09,62.19s-2.17,2.21-5,8-7.84,21.71-6.53,26.67S41.2,84.16,79,63.55s49.53-33.87,48.68-36.16-14.82-6.85-28-6.6S71.39,28.52,53.55,38.23A125.8,125.8,0,0,0,23.09,62.19Z"/><path class="cls-3" d="M49,41.18A127.21,127.21,0,0,0,23.27,62.36s-2.2,2.26-5,8c-2.92,6-7.78,21.73-6.52,26.51a.77.77,0,0,0,.44.52c3.14,1.44,19-7.46,41-19.77C61,73.26,69.71,68.36,78.92,63.34c6.3-3.44,12.22-6.86,17.56-10.14,25.19-15.52,31.54-24.3,31-25.74-.8-2.15-14.76-6.68-27.81-6.44-13.41.26-28.78,8-46,17.42C52.1,39.29,50.51,40.21,49,41.18Z"/><path class="cls-4" d="M99.33,33.84c1.08.82,3,1.76,2.94,4.87-.39,16.68,1.63,20.86,4.25,40.05,1.93,14.18-9.22,28.39-22.5,30.33-16.34,2.38-36.59.7-46.07-29.66C33.77,66.08,26.27,52.7,27.3,47.52,30.81,30,39.41,30.5,59.82,27.63,78.91,24.94,87.08,24.52,99.33,33.84Z"/><path class="cls-5" d="M103.89,58.52S94.92,33.39,84,41.68c-11.92,9-19.44,5.17-24.41,8.48C48.7,57.39,42.11,80,33.24,69.68S52.17,32.33,52.17,32.33,81.3,17.7,83.65,17.76s16.77,12.65,16.77,12.65Z"/><path class="cls-6" d="M89.66,49.93a1,1,0,0,1-1.39-1l0-.3c.16-1.6,2.15-2.32,3.4-2.28,1.9.08,4.62,0,7.62,4.33.25.35-.07.9-.41.68C97,50.05,93,48.49,89.66,49.93Z"/><path class="cls-6" d="M65.3,54.44a1,1,0,0,0,1.08-1.34l-.11-.27c-.56-1.51-2.67-1.7-3.87-1.32-1.81.56-4.45,1.2-6.25,6.14-.14.41.31.85.58.55C58.29,56.44,61.74,53.9,65.3,54.44Z"/><path class="cls-7" d="M84.06,31.55s2,16.66-26.74,14.07c0,0,26.69-13.78-3.68-10.8,0,0,7.33,8.21-12.79,8.12,0,0,16.34,8.45-1.35,28.11,0,0-3.64,1.88-.83,11.31.2.68.43,1.39.71,2.15,4,11.31-.51-1.47-.51-1.47s-11.3-.16-13.44-13c0,0-10.33-7.68-5.5-20.13,0,0-8.09-14.5,9.18-21,0,0,1.81-16.32,12.73-17.55,0,0,13.47-14.48,27.66-3.12,0,0,11.54-6.21,22,7,0,0,12.12,4.07,11,14.52,0,0,9.87,3.8,2.89,13,0,0,8.11,5.09.42,12.77l-1.31,9.76-.56-6.77a31.37,31.37,0,0,0-19-26.64Z"/><path class="cls-8" d="M99.67,20.79c-13.2.24-28.28,7.73-46.12,17.44a125.8,125.8,0,0,0-30.46,24s-2.17,2.21-5,8-7.84,21.71-6.53,26.67c-.48-3.47,7.08-23.06,56.83-50.7,32.49-18,51.08-20.83,58.68-19.55C124.1,24.23,111.58,20.56,99.67,20.79Z"/><path class="cls-9" d="M127.21,26.85a.16.16,0,0,1-.15,0c-4.21-.7-20.86-1.4-58.54,19.53-4.39,2.44-8.61,4.91-12.55,7.34-38.34,23.62-44.59,40-44.17,43.13a.22.22,0,0,1-.18.26.26.26,0,0,1-.28-.18C10,91.69,15.27,75.53,17.89,70.1c2.8-5.79,4.94-8,5-8.08A127.89,127.89,0,0,1,48.69,40.77c1.58-1,3.17-1.9,4.73-2.75C70.73,28.61,86.16,20.8,99.67,20.55c11.89-.22,24.46,3.4,27.55,5.91a.24.24,0,0,1,.08.28A.24.24,0,0,1,127.21,26.85Z"/><path class="cls-10" d="M25.72,71C26.28,64.87,30,59,33.3,54.28a67.91,67.91,0,0,1,4.48-5.58A123.25,123.25,0,0,0,23.09,62.19s-2.17,2.21-5,8-7.84,21.71-6.53,26.67C11.29,94.78,14,86.75,27.18,74.6A4,4,0,0,1,25.72,71Z"/><path class="cls-10" d="M78.7,26.59a79.44,79.44,0,0,1,14-1.41c3.54,0,8.14.64,9.94,4.58a3.88,3.88,0,0,1,.28.71c12-4,19.87-4.56,24.19-3.83-3-2.41-15.5-6.08-27.41-5.85C91.73,20.94,83.1,23.71,73.6,28A41.5,41.5,0,0,1,78.7,26.59Z"/><path class="cls-8" d="M17.56,67.35S6.6,52,18.85,29.42C32.13,5,60.56,1.2,70.19,2.34S92.31,9.93,98.6,19c0,0-29.48,10.54-42,17.92S22.79,59.27,17.56,67.35Z"/><path class="cls-9" d="M53.62,38.43c1-.62,2-1.21,2.88-1.75C68.22,29.77,95.17,20,98.23,18.85,91.61,9.55,79.15,3.63,70.17,2.58c-6.64-.78-21.06.85-33.57,8.55A48.77,48.77,0,0,0,19.06,29.54C7.92,50.05,16.16,64.7,17.55,66.92,22.92,59,42,45.6,53.62,38.43Z"/><path class="cls-10" d="M81.85,15.56c-.41,4.87-3.74,8.42-6.92,11.27-1.11,1-2.25,1.91-3.42,2.8C84.38,24.06,98.6,19,98.6,19,92.78,10.61,81.68,4.46,72.41,2.69,77.37,4.9,82.36,9.52,81.85,15.56Z"/><path class="cls-10" d="M40.45,44.73C35.29,46.39,29.51,48,23.81,47.16c-4.95-.73-7.91-3.2-9.44-6.58-4.27,16.34,3.19,26.77,3.19,26.77,4.28-6.61,19.36-17.87,31.55-25.78C46.25,42.73,43.37,43.81,40.45,44.73Z"/><path class="cls-11" d="M55,34.47c10.06-6,39.24-17.81,43-17.47,0,0,2.35,3.13,2.42,4S84.85,23.87,60.37,37.71c-32.2,18.21-41,31.42-41.74,32.05s-2.47-3.51-2.41-4.3S25.78,52,55,34.47Z"/><path class="cls-3" d="M100.42,21.32a18.83,18.83,0,0,1-3,1,161.58,161.58,0,0,0-37,15.63c-2.94,1.66-5.82,3.36-8.55,5-10.2,6.29-24.15,16-32.63,26.38-.29.35-.43.52-.52.61l-.07,0a.53.53,0,0,1-.6,0c-.94-.61-2.18-3.79-2.14-4.51S25.28,52,54.88,34.27C64.73,28.36,94.16,16.41,98,16.76h.11l.07.09c.25.32,2.4,3.22,2.47,4.09A.42.42,0,0,1,100.42,21.32Z"/><path class="cls-12" d="M98,17c-2.13-.19-12.42,3.51-22.77,7.84a11.25,11.25,0,0,0,1.18-.29c10.68-3,4.36,1.57-3.32,4.84a165.16,165.16,0,0,0-26.24,14c-10.74,6.9-15.43,6.74-6.94.93a18,18,0,0,0,1.64-1.27C22.78,56,16.26,64.8,16.22,65.46s1.68,4.93,2.41,4.3,9.54-13.84,41.74-32.05C84.85,23.87,100.49,21.8,100.42,21S98,17,98,17Z"/><path class="cls-13" d="M30.82,69S48,51.9,97.13,30.52C97.13,30.52,56.31,43.49,30.82,69Z"/><path class="cls-4" d="M41.26,86.93c-3.25-6.58-7-8.62-10.62-7.14-3.93,1.59-4.33,4.91-1.88,10.39,3.14,7,12.79,9.26,17,5.87"/><path class="cls-5" d="M30.86,87.15s-2.61-3.56,1.94-4.51,4.44,5.32,6.52,7.13,5.59,3.06,4,4.28S34.63,95.49,30.86,87.15Z"/><path class="cls-14" d="M88.06,75.91A4.52,4.52,0,0,1,89.49,79a2.25,2.25,0,0,1-.8,1.68,4.22,4.22,0,0,1-1.61.84,4.72,4.72,0,0,1-3.48-.25,5,5,0,0,1-2.31-2.49,6.16,6.16,0,0,0,2.55,1.95,4.59,4.59,0,0,0,3,.07c1-.27,1.93-.85,2-1.85A5.48,5.48,0,0,0,88.06,75.91Z"/></g></g></svg>