<svg id="Layer_1" data-name="Layer 1" xmlns="http://www.w3.org/2000/svg" xmlns:xlink="http://www.w3.org/1999/xlink" viewBox="0 0 78.13 17.09"><defs><style>.cls-1{fill:none;}.cls-2{clip-path:url(#clip-path);}.cls-3{fill:#ff6425;}.cls-4{fill:#ffa724;}.cls-5{fill:#fff18b;}.cls-6{fill:#281b17;}.cls-7{fill:#473a3a;}.cls-8{fill:#5e5454;}</style><clipPath id="clip-path"><path class="cls-1" d="M33.83.85s9-.06,10.79.12c0,0,3.22,3.73.79,6.79s-6,5.27-8.87,4S30.93,4.6,33.83.85Z"/></clipPath></defs><g class="cls-2"><path class="cls-3" d="M38.6-3.56a1.57,1.57,0,0,1,.46,1.06c0,.5-1.52,1.41-1.52,2.59s.76,1.33.76,2.52a.84.84,0,0,1-.76.87c-.31,0-.65-.19-.65-1a1.41,1.41,0,0,1,.65-1.15,2,2,0,0,0-1.45,2C36.09,4.7,38,4.75,38,5.87c0,.64-.31.93-.81.93S36.5,6.3,36.5,6s.44-.81.44-.81c-.34.15-1.23.33-1.23,1.44S37,8.88,39.37,8.88a3.68,3.68,0,0,0,3.78-3.12,1.75,1.75,0,0,0-1.23-1.59,1.76,1.76,0,0,1,.44,1.1.84.84,0,0,1-.83.87c-.47,0-.77-.42-.77-1.06,0-1.22,1.7-1.59,1.7-3.07A1.94,1.94,0,0,0,41.63.38a2.53,2.53,0,0,1,.21,1c0,.37-.33.91-.79.91s-.64-.3-.52-.79.29-.46.46-.8a1.58,1.58,0,0,0,.08-1.21,2.33,2.33,0,0,0-1.12-1h0a1.58,1.58,0,0,1,.56,1.2.68.68,0,0,1-.75.71c-.27,0-.7-.11-.7-.77,0-.44.27-.55.43-1a2,2,0,0,0,.06-1A1.91,1.91,0,0,0,38.6-3.56Z"/><path class="cls-4" d="M40,8.83S41.9,8,42.1,6.4c-.55.42-2.12,1.07-2.1-.76C40,4,41.22,4,41.19,3a1.12,1.12,0,0,1-.95.66c0-.57-1.12-1.56-1.12-2A1.08,1.08,0,0,1,39.29,1a.9.9,0,0,0-.46.82c0,.39.77,1.46.17,2.06a1.25,1.25,0,0,1-1.73.1c.18.42.75.7,1.16,1.24a1.51,1.51,0,0,1-.65,2.17,1,1,0,0,1-1.16-.3A2.64,2.64,0,0,0,39,8.87Z"/><path class="cls-5" d="M39.66,8.87s1.19-.57,1.28-1.51a1.18,1.18,0,0,1-1.46-1.11,2.47,2.47,0,0,1,.15-1.43,2.56,2.56,0,0,0-.45,1.43,2.08,2.08,0,0,1-.28,1.48.89.89,0,0,1-1,.21,1.84,1.84,0,0,0,1.35.94Z"/></g><path class="cls-6" d="M24.55,16.25c.84-.59,8.6-5.45,8.79-5.56a1.75,1.75,0,0,0-.33-.13l-.38-.44c-.16,0-8.7,5.5-9.52,6.06Z"/><path class="cls-6" d="M53.15,16.14l1.27-.08c-.65-.46-8.49-6.16-8.67-6.2l-1.26.22.31.07Z"/><path class="cls-7" d="M47.26,8V11.6H31.37V7.68a10.71,10.71,0,0,1,3.47-.62,56.79,56.79,0,0,1,10.42.19S46.78,7.34,47.26,8Z"/><ellipse class="cls-8" cx="39.31" cy="11.24" rx="7.94" ry="1.58"/><path class="cls-8" d="M31.78,8.28C31.53,8.28,4.23,3.72,3,3.38"/><path class="cls-6" d="M31.78,8.68v-.4l0-.4c-.18,0-26.93-4.44-28.31-4.81L1.2,3.44C2.06,3.67,31.29,8.68,31.78,8.68Z"/><path class="cls-8" d="M46.56,7.89c.25,0,23.78-3.5,26.61-3.54"/><path class="cls-6" d="M46.56,8.3c.08,0,.33,0,3.65-.51C57,6.81,74.8,4.1,76.93,4.07l-2.44-.46C72.31,3.64,56.87,6,50.09,7l-3.56.51Z"/></svg>