<svg id="Layer_1" data-name="Layer 1" xmlns="http://www.w3.org/2000/svg" viewBox="0 0 15.42 9.02"><defs><style>.cls-1{fill:#551514;}.cls-2{fill:#d72b5d;}.cls-3{fill:#fff;}.cls-4{fill:#bb7757;}.cls-5{fill:#dc9e8f;}</style></defs><g id="S"><path class="cls-1" d="M1.63,4.19l3.2.21A11.4,11.4,0,0,0,8,3.92,17,17,0,0,0,11,3.08C11.26,2.89,14,1.35,14,1.35s-.48,1.8-.65,2.49a5.39,5.39,0,0,1-.63,1.33,4.34,4.34,0,0,1-2.11,2,11.58,11.58,0,0,1-4.29.91,15.26,15.26,0,0,1-3.1-1.85C3,5.94,1.63,4.19,1.63,4.19Z"/><path class="cls-2" d="M5.53,6A3.78,3.78,0,0,1,7.27,5.4,22.22,22.22,0,0,1,9.7,5.05a3.57,3.57,0,0,1,.46,0h.34c.08,0,.26.21.26.21.34.27,0,.8-.18,1a3.79,3.79,0,0,1-1.52.46,16.94,16.94,0,0,1-2.63.42c-.27,0-.78.17-1-.05A.65.65,0,0,1,5.53,6Z"/><path class="cls-3" d="M3.46,4.7,8,4.1l4.36-1.32a4.82,4.82,0,0,1-.31.9,4.38,4.38,0,0,1-1.28,1.1A14.94,14.94,0,0,1,5.64,5.84,2.75,2.75,0,0,1,4,5.17C3.82,5,3.46,4.7,3.46,4.7Z"/><path class="cls-3" d="M4.66,7.41a3.36,3.36,0,0,1,.58-.67c.66-.41,1.73,0,3-.3s2.2-.89,2.94-.73a3.43,3.43,0,0,1,.77.37l-.8.93L8.5,8.08,6.15,7.84Z"/><path class="cls-4" d="M1.51,4A14.12,14.12,0,0,0,4.23,6.34a6.55,6.55,0,0,0,4.37.72A6.61,6.61,0,0,0,11.81,5.2a14.31,14.31,0,0,0,2.32-4.12,1.92,1.92,0,0,1,0,.24,11,11,0,0,1-1.42,3.93,6.32,6.32,0,0,1-3.94,3,5.46,5.46,0,0,1-5-1.35,9.68,9.68,0,0,1-2.3-2.65S1.51,4,1.51,4Z"/><path class="cls-4" d="M1.49,3.88a10,10,0,0,0,3.14.45A22,22,0,0,0,10.8,3a12.63,12.63,0,0,0,3.33-1.92,2.82,2.82,0,0,1-.09.27,9.64,9.64,0,0,1-2.56,2.06A17.17,17.17,0,0,1,7.89,4.67,16.51,16.51,0,0,1,4.16,5a5.67,5.67,0,0,1-2.63-.92A1.77,1.77,0,0,1,1.49,3.88Z"/><path class="cls-5" d="M14.34.58c-.28-.22,0-.31.25-.1a1.46,1.46,0,0,1,.24.79S14.43.66,14.34.58Z"/><path class="cls-5" d="M1,3.5c.26-.25-.06-.31-.26-.07s-.06.76-.06.76C.82,3.62.87,3.58,1,3.5Z"/></g></svg>