<svg id="Layer_1" data-name="Layer 1" xmlns="http://www.w3.org/2000/svg" viewBox="0 0 22 11"><defs><style>.cls-1{fill:#bb7757;}.cls-2{fill:#765a47;}.cls-3{fill:#dc9e8f;}</style></defs><g id="neutral"><path class="cls-1" d="M18.43,5.12C18.6,5,14.6,8,10.76,7.8A13.11,13.11,0,0,1,3.43,4.31c0-.33,2.82,1.8,7.32,2.07A41.17,41.17,0,0,0,18.43,5.12Z"/><path class="cls-1" d="M18.62,5c0-.22-4.28,1.18-8.09,1S3.3,4,3.25,4.2s3.47,2.5,7.22,2.7C14.43,7.11,18.63,5.22,18.62,5Z"/><path class="cls-2" d="M3.13,4.13a19.14,19.14,0,0,0,7.69,2.78A15.26,15.26,0,0,0,18.57,5a16.87,16.87,0,0,1-7.75,1.9C7.09,6.8,3.13,4.13,3.13,4.13Z"/><path class="cls-3" d="M3.11,3.5c.2-.53-.2-.42-.34,0a2.83,2.83,0,0,0,.12,1.28S3,3.67,3.11,3.5Z"/><path class="cls-3" d="M18.84,4.33c-.21-.51.2-.44.34,0A2,2,0,0,1,19,5.51C18.94,4.57,18.91,4.49,18.84,4.33Z"/></g></svg>