<svg xmlns="http://www.w3.org/2000/svg" viewBox="0 0 79.16 63.43"><defs><style>.cls-1{isolation:isolate;}.cls-2{fill:#5c5548;}.cls-3{fill:#424036;}.cls-4{fill:#fad2c6;stroke:#323232;}.cls-4,.cls-7{stroke-miterlimit:10;stroke-width:0.25px;}.cls-5{fill:#e4a58c;}.cls-6{fill:#421b16;}.cls-7{fill:#311415;stroke:#211e1f;}.cls-8{fill:#90856e;}.cls-9{fill:#605e44;}.cls-10,.cls-13{fill:#9e9580;opacity:0.5;}.cls-10,.cls-12{mix-blend-mode:multiply;}.cls-11,.cls-12{fill:#676254;}.cls-12{opacity:0.4;}.cls-13{mix-blend-mode:screen;}.cls-14{fill:#c28974;}</style></defs><g class="cls-1"><g id="Layer_1" data-name="Layer 1"><path class="cls-2" d="M62.68,23.9a17.72,17.72,0,0,1,4.4,2.83c2.78,2.25,9,9,9.57,11.8S58.81,39.17,35,37.8,2.24,32.56,2.12,31.22s5.79-6.93,12.47-9.93,16-2.82,27.19-2.18A69.3,69.3,0,0,1,62.68,23.9Z"/><path class="cls-3" d="M41.78,19.24c-10.85-.61-20.38-.87-27.15,2.17-6.58,3-12.5,8.53-12.38,9.79.07.85,5.33,3.73,21.59,5.54,3.45.39,7.22.7,11.18.93,5.8.33,11.34.71,16.23,1,13.9,1,24,1.66,25.18.2a.43.43,0,0,0,.1-.36C76,35.87,69.88,29.17,67,26.84A18,18,0,0,0,62.63,24a71.13,71.13,0,0,0-17.85-4.53C43.77,19.38,42.76,19.3,41.78,19.24Z"/><path class="cls-4" d="M17.43,27.6a2.89,2.89,0,0,0-.32,3.13c4.14,8.26,4.11,10.82,7.34,21,2.38,7.55,11.32,12,18.43,9.85,8.73-2.67,18.46-8.29,16-25.72-1.07-7.67-.48-16.13-2.22-18.48-5.9-7.93-10.08-5.65-21-2.26C25.54,18.32,21.35,20,17.43,27.6Z"/><path class="cls-5" d="M21.4,41.16s-1.46-14.69,6-13.13c8.1,1.7,11-2,14.21-1.53C48.74,27.55,57.38,37.32,59.37,30s-18.3-14.21-18.3-14.21S23,15.4,21.88,16s-5.39,10.3-5.39,10.3Z"/><path class="cls-6" d="M26.48,33.5a.55.55,0,0,0,.46-.84l-.09-.14c-.45-.76-1.62-.65-2.24-.33-.93.48-2.3,1.1-2.79,4,0,.24.26.43.37.25C22.87,35.28,24.49,33.56,26.48,33.5Z"/><path class="cls-6" d="M39.73,30a.54.54,0,0,1-.85-.41v-.16c-.08-.89.93-1.48,1.62-1.58,1-.15,2.52-.45,4.58,1.6.17.17,0,.5-.16.41C43.71,29.34,41.39,28.89,39.73,30Z"/><path class="cls-7" d="M24.94,23s2.93,8.81,16.7.72c0,0-16.61-.59-.71-6.28,0,0-1.72,5.85,8.32,1,0,0-6.18,8.09,7.32,13.75,0,0,2.26.07,3.09,5.45.06.39.11.81.15,1.25.65,6.62-.09-.86-.09-.86s5.61-2.75,3.65-9.65c0,0,3.36-6.29-2-11.38,0,0,.62-9.16-9.56-8.33,0,0-4.76-7.74-10.52-5.77,0,0-10.15-4.06-14.57,5,0,0-7.24-.38-9.33,8.68,0,0-5.1,4.9-2.07,9.86,0,0-4,4.23,1.62,7.18,0,0-2.85,4.46,2.81,6.48l2.5,4.8-.85-3.74a17.33,17.33,0,0,1,3.21-17.82Z"/><path class="cls-8" d="M14.59,21.29c6.66-3,16-2.82,27.19-2.18a69.3,69.3,0,0,1,20.9,4.79,17.72,17.72,0,0,1,4.4,2.83c2.78,2.25,9,9,9.57,11.8-.59-1.85-9-9.87-40.42-11.93-20.51-1.34-30.47,1.65-34,4.09C3.18,28.78,8.58,24,14.59,21.29Z"/><path class="cls-9" d="M2.17,30.8a.15.15,0,0,1,0-.17c1-2,6.38-6.76,12.38-9.46,6.82-3.07,16.38-2.81,27.26-2.2,1,.06,2,.14,3,.26a71,71,0,0,1,17.91,4.54,17.71,17.71,0,0,1,4.43,2.85c2.6,2.1,9.07,8.93,9.62,11.89a.14.14,0,0,1-.09.15.12.12,0,0,1-.15-.09C76,36.93,69,30.19,44.24,27.44c-2.55-.28-5.24-.52-8-.7C12.43,25.17,4.27,29.46,2.33,30.8a.16.16,0,0,1-.09,0Z"/><path class="cls-10" d="M63.46,28.94c-1.74-3-5-5-7.76-6.59a35.37,35.37,0,0,0-3.56-1.73A67.22,67.22,0,0,1,62.68,23.9a17.72,17.72,0,0,1,4.4,2.83c2.78,2.25,9,9,9.57,11.8-.36-1.12-3.59-4.51-13.08-7.46A2.25,2.25,0,0,0,63.46,28.94Z"/><path class="cls-10" d="M26.45,19.23a44,44,0,0,0-7.32,2.6c-1.78.82-3.92,2.25-3.89,4.64a2,2,0,0,0,0,.42c-6.92.85-11,2.42-13,3.8.92-1.91,6.32-6.7,12.33-9.4,4-1.81,9-2.46,14.75-2.55A21.53,21.53,0,0,0,26.45,19.23Z"/><path class="cls-8" d="M66.67,25.17S68.52,14.91,57.05,6.5C44.63-2.6,29.52,2.24,25,5.09s-9.27,9-10.28,15c0,0,17.24-1.69,25.23-.95S62.14,22.36,66.67,25.17Z"/><path class="cls-9" d="M66.57,25c.17-1.44.83-10.71-9.59-18.34A26.93,26.93,0,0,0,43.85,1.55C35.77.65,28.18,3.24,25,5.2,20.79,7.85,16,13.76,14.85,20c1.79-.17,17.59-1.63,25.09-.94l1.85.19C49.31,20.06,62,22.26,66.57,25Z"/><path class="cls-10" d="M22.26,14.46c1.36,2.34,3.87,3.33,6.13,4,.79.23,1.58.42,2.38.59-7.76.26-16.08,1.07-16.08,1.07.94-5.55,5-11.25,9.25-14.33C22,8.07,20.58,11.56,22.26,14.46Z"/><path class="cls-10" d="M49.87,19.27c3-.39,6.25-1,8.9-2.73A6.31,6.31,0,0,0,61.94,11c6,7.17,4.73,14.15,4.73,14.15-3.71-2.3-13.91-4.36-21.88-5.44C46.49,19.64,48.19,19.49,49.87,19.27Z"/><path class="cls-11" d="M40.17,17.57c-6.46-.64-23.84.37-25.64,1.43a10.54,10.54,0,0,0-.28,2.55c.17.44,8.48-2.22,24-1.09,20.41,1.5,27.93,6,28.45,6.17s.41-2.34.19-2.73S58.93,19.43,40.17,17.57Z"/><path class="cls-3" d="M14.14,21.6A9.25,9.25,0,0,1,14.41,19v-.06l.05,0c1.84-1.09,19.38-2.07,25.71-1.44,19,1.88,26.62,6,26.82,6.4a5,5,0,0,1,0,2.76.29.29,0,0,1-.29.16h0a3.35,3.35,0,0,1-.41-.18c-6.7-3.2-16-4.75-22.55-5.48-1.77-.2-3.61-.37-5.47-.51a90.23,90.23,0,0,0-22.19.92,11.16,11.16,0,0,1-1.71.22S14.17,21.71,14.14,21.6Z"/><path class="cls-12" d="M14.53,19c1-.6,7-1.18,13.24-1.46l-.66.13c-6.06,1-1.81,1.82,2.81,1.64a90.26,90.26,0,0,1,16.44.82c7,.92,9.31-.27,3.69-1.17a10.36,10.36,0,0,1-1.12-.25c12.45,2,17.79,4.88,18,5.19s.33,2.87-.19,2.73-8-4.67-28.45-6.17c-15.52-1.13-23.83,1.53-24,1.09A10.54,10.54,0,0,1,14.53,19Z"/><path class="cls-13" d="M60.42,29.11S47.8,24.63,18.16,25.55C18.16,25.55,41.64,22.39,60.42,29.11Z"/><path class="cls-4" d="M57.81,40.74c.07-4.05,1.46-6,3.62-6.08,2.35-.13,3.33,1.43,3.4,4.76.09,4.25-4.21,7.65-7.13,7"/><path class="cls-5" d="M63.07,38.4s.46-2.4-2-1.8-1,3.71-1.58,5.11-2.07,2.85-1,3.07S63.15,43.46,63.07,38.4Z"/><path class="cls-14" d="M33.43,46.12a3,3,0,0,0,.32,1.71,1.3,1.3,0,0,0,1.42.41,2.57,2.57,0,0,0,1.49-.73A3.48,3.48,0,0,0,37.49,46a2.66,2.66,0,0,1-.54,1.8,2.63,2.63,0,0,1-1.7,1,2.35,2.35,0,0,1-1,0,1.3,1.3,0,0,1-.82-.68A2.5,2.5,0,0,1,33.43,46.12Z"/></g></g></svg>