<svg id="Layer_1" data-name="Layer 1" xmlns="http://www.w3.org/2000/svg" viewBox="0 0 30.3 22.49"><defs><style>.cls-1{fill:#fbd3c7;}.cls-1,.cls-2{stroke:#323232;stroke-miterlimit:10;stroke-width:0.25px;}.cls-2{fill:none;}.cls-3{fill:#e4a68d;}</style></defs><path class="cls-1" d="M27.8,16.27s-.12-2.31-.59-2.87a12.35,12.35,0,0,0-5.6-2.78C18.36,9.76,11.68,5,9.73,3.77c-1.38-.86-3-2-4-2.63A7.26,7.26,0,0,1,3.86,2.87,24.48,24.48,0,0,1,1.18,4.28C3.31,6,6.12,8,6.12,8,8.57,10,14.9,12,16.45,12.23s2.75.79,3.13,2c.73,2.24.54,2.37,1.09,3s0,1.72.7,1.62,1-1.5.5-2.5-.09-1-.09-1C26,16.28,29,18.93,29.12,18S27.8,16.27,27.8,16.27Z"/><path class="cls-2" d="M27.82,16.22a15.73,15.73,0,0,1-2.26-1.89"/><path class="cls-2" d="M27.71,15.45a7.29,7.29,0,0,0-1.63-2"/><path class="cls-2" d="M27.58,14.49a8,8,0,0,0-.86-1.15"/><path class="cls-3" d="M3.59,3.1A10.83,10.83,0,0,1,1.38,4.32l.81.57s3.37-1.2,4.42-3l-.84-.65A7.91,7.91,0,0,1,3.59,3.1Z"/></svg>