<svg id="Layer_1" data-name="Layer 1" xmlns="http://www.w3.org/2000/svg" viewBox="0 0 13.71 7.83"><defs><style>.cls-1{fill:#8c3e36;}.cls-2{fill:#d26653;}.cls-3{fill:#fff;}.cls-4{fill:#f5968e;}.cls-5{fill:#f48678;}.cls-6{fill:#e9a597;opacity:0.5;}</style></defs><g id="S"><path class="cls-1" d="M12.65,1.3S10.52,2.5,10,2.78a10.41,10.41,0,0,1-2.81.8A16.48,16.48,0,0,1,4.48,4c-.32,0-3.25-.19-3.25-.19S2.35,5,2.72,5.48a5,5,0,0,0,1,.8,3.8,3.8,0,0,0,2.41.77A11,11,0,0,0,9.94,6.2a15.15,15.15,0,0,0,1.94-2.57C12,3.3,12.65,1.3,12.65,1.3Z"/><path class="cls-2" d="M10,4.3a3.68,3.68,0,0,0-1.65.15c-.72.16-1.43.39-2.13.62l-.39.13c-.09,0-.17.15-.28.13l-.15.26c-.19.34.24.64.47.69a3.58,3.58,0,0,0,1.41-.2,15.31,15.31,0,0,0,2.32-.64c.23-.09.69-.15.82-.41A.53.53,0,0,0,10,4.3Z"/><path class="cls-3" d="M11,2.4,7.33,3.84l-4.1.28A3.11,3.11,0,0,0,4,4.88a2.36,2.36,0,0,0,1.24.29,14,14,0,0,0,4.56-1A2.34,2.34,0,0,0,11,3,2.91,2.91,0,0,0,11,2.4Z"/><path class="cls-3" d="M11.12,5.05a2.23,2.23,0,0,0-.72-.38c-.68-.08-1.44.59-2.59.84S5.55,5.68,5,6.07a1.37,1.37,0,0,0-.35.62l1,.44L8.18,7,10,5.93Z"/><path class="cls-4" d="M12.65,1a15,15,0,0,1-1.5,3.16,6.28,6.28,0,0,1-3.4,2A5.31,5.31,0,0,1,4.33,6,17.32,17.32,0,0,1,1.19,3.61l0,.2A11.25,11.25,0,0,0,3.74,6.47,4.62,4.62,0,0,0,8,7.24a5.1,5.1,0,0,0,3.79-2.91,8.58,8.58,0,0,0,.93-3.1S12.65,1,12.65,1Z"/><path class="cls-5" d="M12.65,1a9.69,9.69,0,0,1-2.53,1.63A19.32,19.32,0,0,1,4.73,3.85a17.29,17.29,0,0,1-3.54-.24l.19.2a8,8,0,0,0,2.75.49A16.32,16.32,0,0,0,7.51,4,16.4,16.4,0,0,0,10.7,2.85a5.53,5.53,0,0,0,1.92-1.54Z"/><path class="cls-6" d="M.73,3.33c.16-.27-.14-.23-.24,0A1.2,1.2,0,0,0,.55,4,6.72,6.72,0,0,1,.73,3.33Z"/><path class="cls-6" d="M12.75.69c-.3-.1.09-.3.34-.18s.16.6.16.6C12.9.74,12.85.72,12.75.69Z"/></g></svg>