<svg id="Layer_1" data-name="Layer 1" xmlns="http://www.w3.org/2000/svg" viewBox="0 0 12.76 7.1"><defs><style>.cls-1{fill:#8c3e36;}.cls-2{fill:#d26653;}.cls-3{fill:#fff;}.cls-4{fill:#f5968e;}.cls-5{fill:#f48678;}.cls-6{fill:#e9a597;opacity:0.5;}</style></defs><g id="S"><path class="cls-1" d="M11.79,3.41s-2.32.21-2.9.24a10.7,10.7,0,0,1-2.75-.41,14.46,14.46,0,0,1-2.49-.7C3.39,2.39.91,1.11.91,1.11s.5,1.47.63,2a5,5,0,0,0,.52,1.07A3.68,3.68,0,0,0,3.84,5.82a10.62,10.62,0,0,0,3.68.77,13.56,13.56,0,0,0,2.69-1.47C10.47,4.9,11.79,3.41,11.79,3.41Z"/><path class="cls-2" d="M8.27,5a3.45,3.45,0,0,0-1.49-.52,21,21,0,0,0-2.09-.29c-.12,0-.26,0-.39,0s-.21.06-.29,0l-.23.16c-.29.22,0,.65.14.79a3.38,3.38,0,0,0,1.3.38,15.7,15.7,0,0,0,2.25.35c.24,0,.67.14.87,0A.5.5,0,0,0,8.27,5Z"/><path class="cls-3" d="M10,3.73l-3.77-.2L2.51,2.16a3,3,0,0,0,.36.95,2.23,2.23,0,0,0,1,.74,13.29,13.29,0,0,0,4.36.89,2.17,2.17,0,0,0,1.46-.55A2.38,2.38,0,0,0,10,3.73Z"/><path class="cls-3" d="M9,6.06a2,2,0,0,0-.47-.61C8,5.11,7,5.39,5.94,5.16s-2-.74-2.66-.62A1.39,1.39,0,0,0,2.74,5l.67.75,2.27.88,2-.18Z"/><path class="cls-4" d="M11.89,3.17A14.09,14.09,0,0,1,9.35,5.33a6,6,0,0,1-3.74.43A5,5,0,0,1,2.75,4.19,15.49,15.49,0,0,1,1,.92l0,.19A10.45,10.45,0,0,0,2,4.39,4.4,4.4,0,0,0,5.4,6.73a4.86,4.86,0,0,0,4.43-1,8.23,8.23,0,0,0,2-2.33A1.62,1.62,0,0,0,11.89,3.17Z"/><path class="cls-5" d="M11.89,3.17a9.68,9.68,0,0,1-2.83.43A18.84,18.84,0,0,1,3.92,2.51,16,16,0,0,1,1,.92,1.86,1.86,0,0,0,1,1.16,7.69,7.69,0,0,0,3.22,2.67a15.9,15.9,0,0,0,3.06,1A16,16,0,0,0,9.49,4a5.2,5.2,0,0,0,2.26-.58Z"/><path class="cls-6" d="M.66.5C.9.32.63.24.44.41A1.12,1.12,0,0,0,.23,1,5,5,0,0,1,.66.5Z"/><path class="cls-6" d="M12.11,2.92c-.22-.2.2-.22.37,0s-.1.59-.1.59C12.22,3,12.19,3,12.11,2.92Z"/></g></svg>