<svg xmlns="http://www.w3.org/2000/svg" viewBox="0 0 79.16 63.43"><defs><style>.cls-1{isolation:isolate;}.cls-2{fill:#5c5548;}.cls-3{fill:#424036;}.cls-4{fill:#fad2c6;stroke:#323232;}.cls-4,.cls-7{stroke-miterlimit:10;stroke-width:0.25px;}.cls-5{fill:#e4a58c;}.cls-6{fill:#421b16;}.cls-7{fill:#311415;stroke:#211e1f;}.cls-8{fill:#90856e;}.cls-9{fill:#605e44;}.cls-10,.cls-13{fill:#9e9580;opacity:0.5;}.cls-10,.cls-12{mix-blend-mode:multiply;}.cls-11,.cls-12{fill:#676254;}.cls-12{opacity:0.4;}.cls-13{mix-blend-mode:screen;}.cls-14{fill:#c28974;}</style></defs><g class="cls-1"><g id="Layer_1" data-name="Layer 1"><path class="cls-2" d="M61.59,23.34a17.71,17.71,0,0,1,4.47,2.71c2.85,2.16,9.31,8.74,9.91,11.52S58.16,38.71,34.34,38,1.42,33.74,1.26,32.4s5.6-7.1,12.18-10.29,15.89-3.27,27.12-3A69.75,69.75,0,0,1,61.59,23.34Z"/><path class="cls-3" d="M40.56,19.29C29.7,19,20.17,19,13.49,22.24,7,25.39,1.24,31.12,1.39,32.38c.1.84,5.44,3.58,21.75,4.92,3.46.28,7.23.48,11.2.6,5.8.17,11.35.39,16.25.59,13.92.56,24,1,25.17-.53a.39.39,0,0,0,.09-.36c-.58-2.68-6.91-9.2-9.86-11.44a17.44,17.44,0,0,0-4.45-2.69,70.09,70.09,0,0,0-18-4C42.55,19.37,41.54,19.32,40.56,19.29Z"/><path class="cls-4" d="M16.46,28.35a2.91,2.91,0,0,0-.23,3.13c4.38,8.14,4.43,10.7,7.94,20.82,2.6,7.48,11.67,11.69,18.71,9.32C51.53,58.7,61.1,52.8,58.17,35.45c-1.3-7.64-.94-16.11-2.76-18.41-6.12-7.76-10.23-5.36-21-1.66C24.3,18.84,20.17,20.68,16.46,28.35Z"/><path class="cls-5" d="M20.82,41.78s-1.88-14.64,5.6-13.3c8.15,1.47,10.89-2.32,14.17-1.93,7.17.84,16.09,10.36,17.87,3S39.76,15.9,39.76,15.9s-18,.09-19.18.7-5.1,10.45-5.1,10.45Z"/><path class="cls-6" d="M25.68,34a.55.55,0,0,0,.43-.85L26,33c-.47-.75-1.64-.61-2.24-.27-.92.51-2.27,1.17-2.68,4,0,.24.27.43.38.24C22.12,35.86,23.7,34.1,25.68,34Z"/><path class="cls-6" d="M38.83,30.1a.55.55,0,0,1-.87-.39v-.17c-.1-.88.89-1.5,1.57-1.62,1-.18,2.5-.52,4.62,1.47.18.16.07.5-.14.41C42.79,29.32,40.45,28.94,38.83,30.1Z"/><path class="cls-7" d="M23.84,23.51s3.18,8.72,16.71.24c0,0-16.62-.11-.89-6.25,0,0-1.55,5.88,8.35.8,0,0-5.95,8.26,7.71,13.52,0,0,2.26,0,3.24,5.37.07.39.14.8.19,1.24C60,45,59,37.58,59,37.58s5.54-2.91,3.38-9.76c0,0,3.17-6.38-2.33-11.31,0,0,.36-9.18-9.79-8.06,0,0-5-7.59-10.68-5.46,0,0-10.27-3.77-14.43,5.39,0,0-7.24-.17-9.07,8.95,0,0-5,5-1.79,9.91,0,0-3.91,4.35,1.83,7.13,0,0-2.72,4.55,3,6.41l2.63,4.72-1-3.72a17.34,17.34,0,0,1,2.7-17.9Z"/><path class="cls-8" d="M13.44,22.11c6.58-3.19,15.89-3.27,27.12-3a69.75,69.75,0,0,1,21,4.19,17.71,17.71,0,0,1,4.47,2.71c2.85,2.16,9.31,8.74,9.91,11.52C75.33,35.73,66.7,28,35.23,26.81c-20.54-.76-30.41,2.52-33.84,5.06C2.25,29.94,7.51,25,13.44,22.11Z"/><path class="cls-9" d="M1.31,32a.14.14,0,0,1,0-.16c.9-2,6.19-6.95,12.11-9.83,6.73-3.26,16.29-3.27,27.19-3,1,0,2,.08,3,.17a70.44,70.44,0,0,1,18,4,17.68,17.68,0,0,1,4.51,2.72c2.65,2,9.32,8.66,10,11.6a.15.15,0,0,1-.09.16.13.13,0,0,1-.16-.09c-.57-1.63-7.77-8.16-32.59-10.2-2.56-.21-5.26-.37-8-.47C11.4,26.06,3.36,30.58,1.46,32a.13.13,0,0,1-.08,0Z"/><path class="cls-10" d="M62.51,28.36c-1.82-2.9-5.11-4.89-7.94-6.36A36.33,36.33,0,0,0,51,20.37a67.48,67.48,0,0,1,10.63,3,17.71,17.71,0,0,1,4.47,2.71c2.85,2.16,9.31,8.74,9.91,11.52-.39-1.11-3.71-4.41-13.28-7.08A2.26,2.26,0,0,0,62.51,28.36Z"/><path class="cls-10" d="M25.24,19.72A43.33,43.33,0,0,0,18,22.52c-1.76.88-3.86,2.36-3.76,4.76a2,2,0,0,0,0,.42c-6.9,1-10.94,2.73-12.89,4.17.86-1.93,6.12-6.88,12-9.76,4-1.92,8.9-2.71,14.67-3A23.15,23.15,0,0,0,25.24,19.72Z"/><path class="cls-8" d="M65.61,24.5S67.17,14.19,55.47,6.11C42.79-2.63,27.82,2.65,23.36,5.63s-9,9.28-9.85,15.32c0,0,17.19-2.19,25.2-1.68S61,21.82,65.61,24.5Z"/><path class="cls-9" d="M65.51,24.28c.13-1.44.52-10.73-10.11-18A26.94,26.94,0,0,0,42.13,1.54C34,.88,26.51,3.69,23.42,5.74c-4.16,2.77-8.82,8.81-9.76,15.05,1.79-.22,17.55-2.13,25.06-1.66l1.86.14C48.12,19.89,60.88,21.73,65.51,24.28Z"/><path class="cls-10" d="M20.92,15.07c1.42,2.3,4,3.22,6.24,3.82.79.21,1.59.38,2.39.53-7.75.47-16,1.53-16,1.53.78-5.58,4.71-11.4,8.84-14.6C20.46,8.69,19.15,12.22,20.92,15.07Z"/><path class="cls-10" d="M48.65,19.08c3-.47,6.22-1.13,8.82-3a6.3,6.3,0,0,0,3-5.61c6.2,7,5.13,14,5.13,14-3.77-2.19-14-4-22-4.81C45.29,19.55,47,19.36,48.65,19.08Z"/><path class="cls-11" d="M38.9,17.67c-6.47-.46-23.82,1-25.58,2.16a10.63,10.63,0,0,0-.21,2.56c.18.43,8.41-2.47,24-1.78,20.44.91,28.09,5.22,28.61,5.35s.34-2.35.12-2.73S57.71,19,38.9,17.67Z"/><path class="cls-3" d="M13,22.44a9.51,9.51,0,0,1,.19-2.64l0-.06,0,0c1.81-1.14,19.32-2.62,25.66-2.18,19,1.34,26.78,5.26,27,5.63A4.93,4.93,0,0,1,66,25.92a.28.28,0,0,1-.28.17h0l-.41-.17c-6.79-3-16.1-4.29-22.71-4.83-1.77-.15-3.61-.26-5.48-.35A89.31,89.31,0,0,0,14.91,22.3a9.49,9.49,0,0,1-1.71.26A.21.21,0,0,1,13,22.44Z"/><path class="cls-12" d="M13.32,19.83c1-.63,7-1.39,13.19-1.84-.21.06-.42.1-.65.15-6,1.18-1.76,1.87,2.85,1.55A92.33,92.33,0,0,1,45.17,20c7,.72,9.3-.53,3.66-1.27a10.31,10.31,0,0,1-1.13-.22c12.5,1.67,17.91,4.37,18.1,4.68s.41,2.85-.12,2.73-8.17-4.44-28.61-5.35c-15.55-.69-23.78,2.21-24,1.78A10.63,10.63,0,0,1,13.32,19.83Z"/><path class="cls-13" d="M59.48,28.62S46.74,24.5,17.13,26.28C17.13,26.28,40.52,22.44,59.48,28.62Z"/><path class="cls-4" d="M57.21,40.32c-.05-4.06,1.28-6,3.44-6.18,2.34-.2,3.37,1.33,3.54,4.65.21,4.25-4,7.78-6.94,7.17"/><path class="cls-5" d="M62.39,37.82s.4-2.4-2.08-1.74-.86,3.75-1.43,5.16-2,2.91-.88,3.1S62.62,42.88,62.39,37.82Z"/><path class="cls-14" d="M33,46.39a3.12,3.12,0,0,0,.36,1.7,1.32,1.32,0,0,0,1.44.38,2.54,2.54,0,0,0,1.46-.77,3.58,3.58,0,0,0,.8-1.59,2.71,2.71,0,0,1-.5,1.83,2.57,2.57,0,0,1-1.67,1,2.34,2.34,0,0,1-1,0,1.26,1.26,0,0,1-.83-.66A2.42,2.42,0,0,1,33,46.39Z"/></g></g></svg>