<svg id="Layer_1" data-name="Layer 1" xmlns="http://www.w3.org/2000/svg" viewBox="0 0 20 15"><defs><style>.cls-1{fill:#dc9e8f;}.cls-2{fill:#f6fbfd;stroke:#323232;stroke-miterlimit:10;stroke-width:0.44px;}.cls-3{fill:#451f16;}.cls-4{fill:#fff;}.cls-5{fill:#efbfb4;}</style></defs><circle class="cls-1" cx="16.17" cy="8.84" r="3.61"/><path class="cls-2" d="M19.4,9.06a3.39,3.39,0,0,1-3.27,3.51c-1.87.07-3.42-.81-3.49-2.68s1.37-4,3.25-4.1A3.39,3.39,0,0,1,19.4,9.06Z"/><ellipse class="cls-3" cx="16.44" cy="10.42" rx="1.92" ry="1.65" transform="translate(-0.33 20.31) rotate(-62.88)"/><circle class="cls-4" cx="15.81" cy="8.95" r="0.58"/><ellipse class="cls-1" cx="3.98" cy="6.04" rx="3.61" ry="3.77" transform="translate(-2.88 8.35) rotate(-75.22)"/><path class="cls-2" d="M.65,5.54A3.38,3.38,0,0,0,3.07,9.68c1.81.48,3.51,0,4-1.85S6.61,3.6,4.8,3.12A3.4,3.4,0,0,0,.65,5.54Z"/><ellipse class="cls-3" cx="4.85" cy="7.82" rx="1.88" ry="1.59" transform="translate(-4.12 9.87) rotate(-71.05)"/><circle class="cls-4" cx="4.23" cy="6.34" r="0.58"/><path class="cls-5" d="M19.4,9.06c0,.5-1.2,1.52-3.07,1.58s-3.62-.27-3.69-.75a3.79,3.79,0,0,1,3.25-4.1A3.38,3.38,0,0,1,19.4,9.06Z"/><path class="cls-5" d="M.65,5.54C.17,7.35,1.94,7.78,3.75,8.26s3.13.26,3.31-.43C7.54,6,6.61,3.6,4.8,3.12A3.4,3.4,0,0,0,.65,5.54Z"/></svg>