<svg id="Layer_1" data-name="Layer 1" xmlns="http://www.w3.org/2000/svg" viewBox="0 0 13.71 7.83"><defs><style>.cls-1{fill:#7b2f2c;}.cls-2{fill:#f48a71;}.cls-3{fill:#fff;}.cls-4{fill:#f5968e;}.cls-5{fill:#f48678;}.cls-6{fill:#e9a597;opacity:0.5;}</style></defs><g id="uh"><path class="cls-1" d="M7,3.34a29.82,29.82,0,0,1-5.91.37S4.5,6.91,5.17,6.88a19.8,19.8,0,0,0,5.05-1.1,10.38,10.38,0,0,0,2.26-3.06A3.08,3.08,0,0,0,12.79.77C12.5,1.22,8.53,3,7,3.34Z"/><path class="cls-2" d="M5.9,6.16a3.32,3.32,0,0,0,2.18,0,3.86,3.86,0,0,0,1.94-1C9.83,4.75,8.51,5,8.36,5a16,16,0,0,1-1.59.4C6.39,5.58,6,5.83,5.9,6.16Z"/><path class="cls-3" d="M9.94,5.11a40.79,40.79,0,0,0-4,1c-.24.09-1.07.05-1.2.26l3,.21,3.49-1.82C10.88,4.66,10.38,5,9.94,5.11Z"/><path class="cls-4" d="M12.83.94c-.14-.37-.25.06-.25.06A6.07,6.07,0,0,1,8.05,5.9c-3.8.75-6.59-1.67-6.65-2.09,0,0-.26-.15-.25.06A6.48,6.48,0,0,0,8.43,7.08C12.53,6,13,1.31,12.83.94Z"/><path class="cls-3" d="M11.51,1.78c0-.14-.7.13-.84.19a3.25,3.25,0,0,1-.95.32c-.08,0-2.2.78-2.2.78s-2.63.42-2.7.46-2,.12-2,.12a6,6,0,0,0,1.09.86,8.36,8.36,0,0,0,3.94-.24,7.73,7.73,0,0,0,3-1.37A1.84,1.84,0,0,0,11.51,1.78Z"/><path class="cls-5" d="M12.85.84c-.08-.18-.22.06-.22.06a20.74,20.74,0,0,1-5.32,2,20.3,20.3,0,0,1-5.83.72c-.09,0-.31,0-.37.09C.78,4.27,4.37,4,7.4,3.25S12.94,1,12.85.84Z"/><path class="cls-6" d="M1.14,3.47c.15-.27-.13-.22-.23,0A1.14,1.14,0,0,0,1,4.16S1.1,3.56,1.14,3.47Z"/><path class="cls-6" d="M12.62.59c-.29-.09-.06-.25.18-.15s.31.54.31.54C12.76.63,12.71.62,12.62.59Z"/></g></svg>