<svg id="Layer_1" data-name="Layer 1" xmlns="http://www.w3.org/2000/svg" xmlns:xlink="http://www.w3.org/1999/xlink" viewBox="0 0 161.48 34.2"><defs><style>.cls-1{fill:none;}.cls-2{clip-path:url(#clip-path);}.cls-3{fill:#eb652f;}.cls-4{fill:#f6a42c;}.cls-5{fill:#fff18b;}.cls-6{fill:#281b17;}.cls-7{fill:#473a3a;}.cls-8{fill:#5e5454;}</style><clipPath id="clip-path"><path class="cls-1" d="M63.6,1.13S88.75,1,93.78,1.46c0,0,9,10.44,2.18,19S79.24,35.16,71.19,31.51,55.51,11.6,63.6,1.13Z"/></clipPath></defs><g class="cls-2"><path class="cls-3" d="M80.37-11.19c1.76,1.32,3.88,3.45,3.74,6.82S81.6.33,81.47,3.77a3.85,3.85,0,0,0,2.34,3.81c-.88-1.69-.51-5.43,3.16-8a5.55,5.55,0,0,0-.66,5.06c.51,1.1,3.88,3.63,3.88,9.18s-6,9.73-9.82,9.73-12-2.38-12-9.73a15.56,15.56,0,0,1,1-4.93,5.9,5.9,0,0,0,4.1,4.93,8.88,8.88,0,0,1-2.42-8.7c1.54-6.3,8-9.72,9.46-11.77S80.37-11.19,80.37-11.19Z"/><path class="cls-4" d="M77.73,2.28c-2.42,3.69-1.76,5-.39,7.81S75.49,15.91,75,18c-.55,2.48,2.15,5.61,5.34,5.61s5-3.46,5-6.49-2.47-5.44-5.83-7.8A5.16,5.16,0,0,1,77.73,2.28Z"/><path class="cls-5" d="M79.27,13.78C81,15.15,83.47,17.48,83,20a5.25,5.25,0,0,1-2.61,3.55c-.62-.27-2.26-1.17-2.2-2.49s2-1.7,2.43-3C81.17,16.27,79.27,13.78,79.27,13.78Z"/></g><path class="cls-6" d="M110.73,33.1c-2-1.3-18.46-10.39-18.91-10.63a4.29,4.29,0,0,1,.78-.29l.89-1c.38.1,18.45,10.44,20.38,11.7Z"/><path class="cls-6" d="M46.94,33l-3-.17c1.52-1,18.34-12.11,18.76-12.22l3,.51-.74.15C64.53,21.53,48.57,31.89,46.94,33Z"/><path class="cls-7" d="M59.19,13.32v8.11H96.44V12.68S94,11.62,88.3,11.3a138.28,138.28,0,0,0-24.43.43S60.3,11.94,59.19,13.32Z"/><ellipse class="cls-8" cx="77.82" cy="20.61" rx="18.63" ry="3.52"/><path class="cls-8" d="M95.47,17.1c.6,0,59.62-8.94,62.54-9.68"/><path class="cls-6" d="M95.47,18v-.9l-.07-.9c.41,0,57.67-8.59,60.92-9.42l4,.88C158.27,8.17,96.64,18,95.47,18Z"/><path class="cls-6" d="M60.83,17.14c-.19,0-.78-.08-8.56-1.14C36.41,13.83,6.19,7.05,1.2,7L6.07,5.93C11.19,6,36.64,12,52.54,14.21c4.49.62,8,1.1,8.35,1.13Z"/></svg>