<svg id="Layer_1" data-name="Layer 1" xmlns="http://www.w3.org/2000/svg" viewBox="0 0 56 22"><defs><style>.cls-1{fill:#dc9e8f;}.cls-2{fill:#fff;stroke-width:0.5px;}.cls-2,.cls-3{stroke:#3d2d16;stroke-miterlimit:10;}.cls-3{fill:#3d2d16;}.cls-4{fill:#fff7f4;}</style></defs><path class="cls-1" d="M1.31,10.81A8.36,8.36,0,0,1,5.05,5.3a13.52,13.52,0,0,1,6.18-1.91,8.41,8.41,0,0,1,4.19.46,7.17,7.17,0,0,1,2.76,2.36,8.91,8.91,0,0,1,1.08,8.71c-1.3,2.72-4.69,4.15-7.18,2.66a15,15,0,0,1-2.17-1.84,4.74,4.74,0,0,0-2.42-1.35,2.05,2.05,0,0,0-2.23,1.29c-.25.8.24,2.19-.43,2.79s-1.41.05-1.89-.41C1.41,16.57,1,12.86,1.31,10.81Z"/><path class="cls-2" d="M19.59,13.16c.32,4.54-3.32,7.25-8.3,7.6a10.91,10.91,0,0,1-4.36-.48,6.2,6.2,0,0,1-4.22-5.82A8,8,0,0,1,4.61,9a10.26,10.26,0,0,1,7.11-3.82C16.7,4.82,19.28,8.73,19.59,13.16Z"/><circle class="cls-3" cx="11.1" cy="13.05" r="4.79"/><circle class="cls-4" cx="13.56" cy="11.34" r="1.48"/><path class="cls-1" d="M36.15,8.68a8.33,8.33,0,0,1,3.75-5.5,13.4,13.4,0,0,1,6.17-1.91,8.29,8.29,0,0,1,4.19.46A7,7,0,0,1,53,4.09a8.89,8.89,0,0,1,1.09,8.7c-1.3,2.73-4.69,4.16-7.18,2.67a14,14,0,0,1-2.17-1.85,4.82,4.82,0,0,0-2.42-1.35,2,2,0,0,0-2.23,1.3c-.25.79.24,2.18-.44,2.78s-1.4.05-1.88-.41C36.26,14.45,35.81,10.73,36.15,8.68Z"/><path class="cls-2" d="M54.44,11c.32,4.54-3.32,7.25-8.3,7.61a10.69,10.69,0,0,1-4.36-.49,6.19,6.19,0,0,1-4.22-5.81,8,8,0,0,1,1.9-5.48,10.27,10.27,0,0,1,7.1-3.81C51.55,2.69,54.12,6.6,54.44,11Z"/><circle class="cls-3" cx="45.92" cy="10.57" r="4.79"/><circle class="cls-4" cx="48.41" cy="9.21" r="1.48"/><path class="cls-1" d="M11.72,5.17A10.26,10.26,0,0,0,4.61,9a8.85,8.85,0,0,0-1.73,3.45C6.55,11,13.39,9.07,19.45,12,18.81,8.09,16.27,4.85,11.72,5.17Z"/><path class="cls-1" d="M54.16,10.57c0-2.31-2.36-8.1-7.6-7.52a10.73,10.73,0,0,0-7.1,3.81,8.24,8.24,0,0,0-1.91,4.79C43.81,8.35,50.2,6.93,54.16,10.57Z"/></svg>