<svg xmlns="http://www.w3.org/2000/svg" viewBox="0 0 161.91 167.16"><defs><style>.cls-1{isolation:isolate;}.cls-2{fill:#fac7b3;}.cls-2,.cls-4{stroke:#323232;stroke-width:0.75px;}.cls-2,.cls-4,.cls-7{stroke-miterlimit:10;}.cls-3{fill:#424036;}.cls-4{fill:#fad2c6;}.cls-5{fill:#e7b4a7;}.cls-6{fill:#561211;}.cls-7{fill:#311415;stroke:#211e1f;}.cls-8{fill:#90856e;}.cls-9{fill:#605e44;}.cls-10,.cls-13{fill:#9e9580;opacity:0.5;}.cls-10,.cls-12{mix-blend-mode:multiply;}.cls-11,.cls-12{fill:#676254;}.cls-12{opacity:0.4;}.cls-13{mix-blend-mode:screen;}.cls-14{fill:#c28974;}.cls-15{fill:#d6a398;}</style></defs><g class="cls-1"><g id="Layer_1" data-name="Layer 1"><path class="cls-2" d="M27.08,116.34c2.32,5.49,6.91,8.52,9.61,7.58s2.17-5.63.41-11-5.38-9-8.08-8C25.33,106.23,24.91,111.18,27.08,116.34Z"/><path class="cls-3" d="M68.42,58.29a128,128,0,0,0-32.75,6.12s-3,.92-8.21,4.59C22,72.87,3.2,88.63,2,93.43c-.05.25-.14-.2,0,0,2.05,2.79,27,4.12,52.23,4,8.87,0,19.23-5.25,29.73-5.19,7.19,0,14-.08,20.3-.37,29.58-1.4,46.77-10.68,47-12.19.35-2.28-17.07-8.34-28.62-14.44-11.87-6.27-29.1-6.9-48.76-7C72.1,58.17,70.26,58.2,68.42,58.29Z"/><path class="cls-4" d="M129.58,106.72c-1,5.88-5.12,9.86-8.27,9.56s-3.84-5-3.39-10.62,3.37-10,6.52-9.63C128.74,96.47,130.53,101.2,129.58,106.72Z"/><path class="cls-4" d="M120.17,113.32c.26,21.38-29.27,33.81-37.67,34.61-12.3,1.14-46.41-7.53-47.32-40.9,0-.34,0-.7,0-1v0c-.71-15.84-7.47-29.84-6.38-36.08,3.75-21.59,8.16-13.58,33.08-17.74,23.31-3.89,33.31-4.67,48.62,6.38,1.35,1,5.68,1.89,6,5.69.57,6.48,1.07,11.33,1.48,15.22C119.38,92.85,119.93,94.92,120.17,113.32Z"/><path class="cls-5" d="M118,79.44a54.63,54.63,0,0,0-27.5-10.58,50.45,50.45,0,0,1-38.06,11,62.68,62.68,0,0,0,9.5-9.42,20,20,0,0,1-9,3c-2.65,6.12-5.43,12.45-10.4,16.91-1.69,1.53-3.66,2.85-4.82,4.82a13,13,0,0,0-1.31,3.51c-.38,1.44-.69,2.9-1,4.38-.15.87-.14,1.94-.25,2.93-.71-15.84-7.47-29.84-6.38-36.08,3.75-21.59,8.16-13.58,33.08-17.74,23.31-3.89,33.31-4.67,48.62,6.38,1.35,1,5.68,1.89,6,5.69C117,70.7,117.54,75.55,118,79.44Z"/><path class="cls-6" d="M65.17,87l-1-1a8.46,8.46,0,0,0-7.88-2.1,16.07,16.07,0,0,0-9.77,7.31c-.33.53-.58.76-.09.36C49.85,88.77,58.7,84.75,65.17,87Z"/><path class="cls-6" d="M88.14,85.34l.78-1.13a7.19,7.19,0,0,1,6.41-3.42,11.89,11.89,0,0,1,8.78,5.46c.32.46.55.64.1.33C101.09,84.45,93.36,82.06,88.14,85.34Z"/><path class="cls-7" d="M92.33,55.49s.7,24-34.62,21.76c0,0,34.57-21.41-2.56-16.81,0,0,9.23,9.84-15.43,10.36,0,0,17.59-3.1-3.48,21.56,0,0-2.86,1.8-1.06,14.67.12.86-6.51-.58-7.46-9.65,0,0-9.46-7.87-1-20.71,0,0-10-17.33,5.42-20.85,0,0,.32-13.63,13.67-15.49,0,0,12.18-20.66,29.94-7.19,0,0,12.66-11.84,25.83,4,0,0,15.58-.47,14.54,12.38,0,0,15.94,6.87,7.68,18.34,0,0,10.9,7.74,2.32,20.28l-6.31,13.16-.12-1.47a66.33,66.33,0,0,0-9.06-28.44l-.5-.84S108.76,61.4,92.33,55.49Z"/><path class="cls-8" d="M126.79,60.49c-13.27-6.19-31.93-6.06-54.44-5.08a139.17,139.17,0,0,0-42,9.06S27.11,65.61,21.47,70,3.09,87.85,2,93.43C3.2,89.74,20.26,73.9,83.28,70.58c41.14-2.17,61,4.09,68,9.08C149.46,75.8,138.77,66.06,126.79,60.49Z"/><path class="cls-9" d="M151.28,79.92a.21.21,0,0,1-.17,0c-3.85-2.76-20.09-11.55-67.82-9-5.56.29-11,.7-16.08,1.19-49.68,4.88-63.9,18.19-65,21.48a.26.26,0,0,1-.31.18.29.29,0,0,1-.18-.32C2.91,87.47,16.07,74,21.32,69.82c5.6-4.41,8.8-5.56,8.94-5.6a141.89,141.89,0,0,1,36-8.64q3.07-.3,6-.44c21.83-1,41-1.22,54.58,5.1,12,5.57,22.71,15.3,24.57,19.3a.29.29,0,0,1-.06.32A.2.2,0,0,1,151.28,79.92Z"/><path class="cls-10" d="M28.66,74.56c3.56-5.87,10.09-10,15.72-13a70.75,70.75,0,0,1,7.17-3.37,136.41,136.41,0,0,0-21.2,6.29S27.11,65.61,21.47,70,3.09,87.85,2,93.43c.75-2.24,7.31-8.94,26.4-14.61A4.51,4.51,0,0,1,28.66,74.56Z"/><path class="cls-10" d="M103.08,56.06a87.46,87.46,0,0,1,14.6,5.39c3.54,1.7,7.8,4.61,7.68,9.4a6,6,0,0,1-.07.85c13.86,1.88,22,5.12,26,8-1.79-3.86-12.48-13.6-24.46-19.17-8-3.72-17.93-5.16-29.49-5.5A44.91,44.91,0,0,1,103.08,56.06Z"/><path class="cls-8" d="M22.33,66.92S18.87,46.3,42.07,29.75c25.14-17.91,55.29-7.81,64.33-2s18.34,18.32,20.21,30.39c0,0-34.5-3.84-50.54-2.57S31.47,61.41,22.33,66.92Z"/><path class="cls-9" d="M72.33,55.65c1.3-.13,2.54-.25,3.72-.34,15-1.19,46.67,2.15,50.25,2.54-2.07-12.48-11.6-24.44-20-29.86-6.25-4-21.4-9.41-37.62-7.82A54,54,0,0,0,42.22,30c-21.08,15-20,33.62-19.69,36.5C31.72,61.22,57.24,57.13,72.33,55.65Z"/><path class="cls-10" d="M111.58,46.6c-2.78,4.65-7.83,6.58-12.38,7.86-1.58.45-3.17.81-4.77,1.13,15.54.71,32.18,2.56,32.18,2.56-1.73-11.16-9.8-22.68-18.17-29C112.3,33.8,115,40.83,111.58,46.6Z"/><path class="cls-10" d="M56.14,55.52c-6-.85-12.49-2.08-17.76-5.68-4.58-3.13-6.32-7-6.21-11.15C20,52.89,22.33,66.92,22.33,66.92c7.48-4.51,28-8.39,44-10.34C62.9,56.35,59.5,56,56.14,55.52Z"/><path class="cls-11" d="M75.63,52.38c13-1.12,47.76,1.35,51.34,3.52,0,0,.82,4.26.49,5.12s-16.94-4.67-48.06-2.8C38.46,60.69,23.26,69.57,22.23,69.84s-.76-4.7-.32-5.46S38,55.62,75.63,52.38Z"/><path class="cls-3" d="M127.28,61.37a19.17,19.17,0,0,1-3.43-.47,179.46,179.46,0,0,0-44.43-2.41c-3.74.22-7.44.51-11,.86-13.21,1.3-31.83,4.16-45.34,10.4a7.83,7.83,0,0,1-.82.35H22.2a.57.57,0,0,1-.57-.34c-.65-1.07-.33-4.84.06-5.53s15.8-8.85,53.91-12.12c12.7-1.1,47.83,1.32,51.49,3.54l.1.07,0,.11c.09.45.83,4.38.47,5.29A.44.44,0,0,1,127.28,61.37Z"/><path class="cls-12" d="M127,55.9c-2-1.23-14.08-2.55-26.5-3.27.42.11.85.2,1.31.28,12.12,2.18,3.59,3.69-5.66,3.21a183.08,183.08,0,0,0-33,1.22C49.09,59,44.49,56.56,55.78,54.9A20.63,20.63,0,0,0,58,54.43c-25,3.75-35.76,9.32-36.12,9.95s-.73,5.73.32,5.46S38.46,60.69,79.4,58.22c31.12-1.87,47.72,3.67,48.06,2.8S127,55.9,127,55.9Z"/><path class="cls-13" d="M34.75,75s25.4-8.67,84.77-6C119.52,69,72.55,62,34.75,75Z"/><path class="cls-14" d="M74.34,113.26s.78,2.95,5.24,2.74,5.07-3.47,5.07-3.47S80.45,117.33,74.34,113.26Z"/><path class="cls-15" d="M122.39,98.91A2.2,2.2,0,0,1,125,98a2.71,2.71,0,0,1,1.29,1.67,12.7,12.7,0,0,1,.22,6.22c-.4,2.5-1.26,5.2-3.42,6.53a1,1,0,0,1-.64.2c-.51-.07-.67-.72-.7-1.23l-.15-2.13a2.6,2.6,0,0,1,.15-1.36,3.19,3.19,0,0,1,1-.94A3.2,3.2,0,0,0,124,105a1.65,1.65,0,0,0-.71-1.6c-.5-.28-1.41.19-1.78-.19C120.9,102.55,121.94,99.57,122.39,98.91Z"/><path class="cls-15" d="M32.09,107.75a2.45,2.45,0,0,0-2.92-.26,2.74,2.74,0,0,0-.91,2,12.28,12.28,0,0,0,1.39,6.2c1.08,2.36,2.68,4.79,5.29,5.52a1.11,1.11,0,0,0,.72,0c.52-.2.51-.89.41-1.41l-.41-2.14a2.4,2.4,0,0,0-.51-1.29,3.26,3.26,0,0,0-1.24-.68A3.26,3.26,0,0,1,32,114.17a1.6,1.6,0,0,1,.32-1.77c.45-.41,1.52-.19,1.81-.66C34.61,111,32.73,108.28,32.09,107.75Z"/></g></g></svg>