<svg id="Layer_1" data-name="Layer 1" xmlns="http://www.w3.org/2000/svg" viewBox="0 0 43.07 31.82"><defs><style>.cls-1{fill:#fad2c6;}.cls-1,.cls-2{stroke:#323232;stroke-miterlimit:10;stroke-width:0.5px;}.cls-2{fill:none;}.cls-3{fill:#dc9e8f;}.cls-4{fill:#323232;}</style></defs><path class="cls-1" d="M17.5,18.5c1.62-.25,7.43,10.79,15.89,12.17a11.23,11.23,0,0,0,6.93-7.59c0-.15.12-.28.17-.42,1.84-5-4.13-9.91-4.13-9.91l-1.57,1.64L29.94,20.8A47.58,47.58,0,0,1,18.2,9.62c-.26-.35-.35-.86-.7-1C14.25,7,12.16,4.45,11.89,6.43c-.31,2.31,5,4.82,2.79,4.61C11.23,10.69,11,8.72,10,13.24,8.62,19.48,12.84,19.2,17.5,18.5Z"/><path class="cls-1" d="M10,16.07c-5.27-1.56-5.21-3.16-6.27-2C2.43,15.44,8.93,17.89,12,18.61"/><path class="cls-2" d="M15.15,10.7A4.1,4.1,0,0,0,14,13.37a12.07,12.07,0,0,0,.27,2.93"/><path class="cls-1" d="M12.07,10.42c-1-.5-5.81-2.12-7.3-1.68-1.25.38,2.77,3,5.79,3.75"/><path class="cls-1" d="M10.11,13.84c-4.66-.67-6.25-3.12-7.4-2.06C1.14,13.22,7,15.55,10,16.27"/><path class="cls-1" d="M10.54,12.52c-5.34-2-6.82-3.74-8.11-2.85s4.68,3.66,7.7,4.38"/><path class="cls-3" d="M34.79,14.81a3.61,3.61,0,0,1,.35.33,22.56,22.56,0,0,1,4.06,5.25c.47.87.59,1.56,1,2.46,1.84-5-3.84-9.69-3.84-9.69Z"/><path class="cls-4" d="M29.93,20.56a7.69,7.69,0,0,1,1.16.52,5.84,5.84,0,0,1,1.07.66A2.5,2.5,0,0,1,33,24.08l-.2,0a2.18,2.18,0,0,0-.85-2,6.78,6.78,0,0,0-1-.55A8,8,0,0,0,29.8,21Z"/></svg>