<svg id="Layer_1" data-name="Layer 1" xmlns="http://www.w3.org/2000/svg" viewBox="0 0 110.75 89.04"><defs><style>.cls-1{fill:#fad2c6;stroke:#5f4a43;}.cls-1,.cls-3{stroke-miterlimit:10;}.cls-2{fill:#d6a398;}.cls-3{fill:#facc35;stroke:#323232;}</style></defs><path class="cls-1" d="M96.52,62.81,89.93,76a55.71,55.71,0,0,1-16.7-4.82c-11.88-5.43-21.73-14-33.91-20-1.86-.92-3.78-1.78-5.77-2.56-1.55-.6,5.28-12.7,6.8-12,2.09,1,4.19,1.86,6.28,2.73,9.08,3.81,18.05,7,26,10.15C81.27,53,88.73,56.36,94,60.55l.24.19A30.91,30.91,0,0,1,96.52,62.81Z"/><path class="cls-1" d="M46.63,39.38c.16-2.71-.79-11.08-1.35-21.15-.09-1.59-3.29,0-4,2.06-1.54,4.42-.69,5.93-1.66,8.13s-2.84,1.73-4.74.49c-7.45-8.63-10.81-14.39-14.16-13.56-2.65,1.11,1.69,7.75,6.92,15C19.4,25.18,12.38,21.7,11.36,24c-1.21,2.77,5.79,7.38,11.8,12.14-7.42.11-15.14-1.89-15.08,2,0,2.84,15.58,4.42,14.43,6.88-.41.87-1.85,1.25-4.08,1.91-1.94.58-4.86,1.36-5.8,2.57S13,51.82,15.35,52c3.89.22,12.7.4,17.08.17,2.57,0,4.74.27,6.89-.91"/><path class="cls-1" d="M38.58,29.67c-.42.18-6.08,2-3.27,9.66"/><path class="cls-2" d="M96.72,64.32l-6.58,13.2C84,76.78,77.87,73,72.78,70.71a51.48,51.48,0,0,1,1.36-19.64c8.61,3.41,14.8,6.8,20,11a3,3,0,0,1-1,.74c.41-.19.81-.38,1.23-.56A29.11,29.11,0,0,1,96.72,64.32Z"/><path class="cls-3" d="M106.63,61.79C99.16,56,78.23,49.71,78.23,49.71s-4.09,13.81-2,27.06l16.24,5.36"/></svg>