<svg id="Layer_1" data-name="Layer 1" xmlns="http://www.w3.org/2000/svg" viewBox="0 0 37 24"><defs><style>.cls-1{fill:#f7fbff;stroke:#323232;stroke-miterlimit:10;stroke-width:0.5px;}.cls-2{fill:#d09787;}.cls-3{fill:#451e15;}.cls-4{fill:#fff;}</style></defs><path class="cls-1" d="M1.56,6a6.93,6.93,0,0,0,3.62,8.71,6.1,6.1,0,0,0,8.38-3.12A6.92,6.92,0,0,0,10,2.86,6.1,6.1,0,0,0,1.56,6Z"/><path class="cls-2" d="M1.53,11.12a7.22,7.22,0,0,1,0-5.55A6,6,0,0,1,10,2.86c1.54.81,3,1.9,4.18,5.18A7.56,7.56,0,0,0,9,1.54C6.36.79,3.11,1.32,1.7,4,.47,6.38,0,9.71,1.53,11.12Z"/><path class="cls-3" d="M7.8,13.75c1.11,1.22,3,.93,4.29-.65s1.39-3.83.29-5-3-.93-4.29.65S6.7,12.54,7.8,13.75Z"/><path class="cls-4" d="M8.27,6.66a1.19,1.19,0,0,0,.15,1.63A1.06,1.06,0,0,0,10,8.08a1.2,1.2,0,0,0-.15-1.63A1.06,1.06,0,0,0,8.27,6.66Z"/><path class="cls-1" d="M35.88,17.72a6.34,6.34,0,0,1-7.05,5,5.59,5.59,0,0,1-4.58-6.79,6.31,6.31,0,0,1,7-5A5.59,5.59,0,0,1,35.88,17.72Z"/><path class="cls-2" d="M32.24,22.12a6.42,6.42,0,0,0,3.41-4.44A5.68,5.68,0,0,0,31,10.93c-1.61-.27-2.88.19-5.48,2.34,2-2.61,4.63-3.48,6.93-2.7a5.68,5.68,0,0,1,4,6.1C36.06,19.37,34.09,21.74,32.24,22.12Z"/><path class="cls-3" d="M34,16.48c-.91-1.18-2.69-1.07-4,.25s-1.57,3.36-.65,4.54,2.69,1.07,4-.25S34.89,17.66,34,16.48Z"/><path class="cls-4" d="M30.05,15.3A1.22,1.22,0,0,0,32,16.83a1.22,1.22,0,0,0-.22-1.69A1.19,1.19,0,0,0,30.05,15.3Z"/></svg>