<svg id="Layer_1" data-name="Layer 1" xmlns="http://www.w3.org/2000/svg" viewBox="0 0 61.06 39.83"><defs><style>.cls-1{fill:#dc9e8f;}.cls-2{fill:#f6fbfd;stroke:#323232;stroke-miterlimit:10;stroke-width:0.44px;}.cls-3{fill:#451f16;}.cls-4{fill:#fff;}</style></defs><circle class="cls-1" cx="43.06" cy="16.84" r="7.33"/><ellipse class="cls-1" cx="18.31" cy="22.73" rx="7.66" ry="7.33" transform="translate(-4.17 4.12) rotate(-11.54)"/><path class="cls-2" d="M49.14,14.32a6.89,6.89,0,0,1-2.78,9.35c-3.36,1.81-7,1.61-8.79-1.74s-1.13-8.59,2.22-10.4A6.9,6.9,0,0,1,49.14,14.32Z"/><ellipse class="cls-3" cx="46.79" cy="16.57" rx="2.6" ry="4.28" transform="translate(-2.8 18.77) rotate(-22.04)"/><circle class="cls-4" cx="44.03" cy="14.66" r="1.19"/><path class="cls-2" d="M11.79,24.81a6.9,6.9,0,0,0,8.14,5.38c3.73-.76,6.38-3.24,5.61-7s-4.64-7.3-8.37-6.54A6.88,6.88,0,0,0,11.79,24.81Z"/><ellipse class="cls-3" cx="22.17" cy="23.15" rx="2.88" ry="4.28" transform="matrix(0.95, -0.3, 0.3, 0.95, -5.88, 7.64)"/><circle class="cls-4" cx="19.57" cy="21.22" r="1.19"/></svg>