<svg id="Layer_1" data-name="Layer 1" xmlns="http://www.w3.org/2000/svg" xmlns:xlink="http://www.w3.org/1999/xlink" viewBox="0 0 147.05 31.75"><defs><style>.cls-1{fill:none;}.cls-2{clip-path:url(#clip-path);}.cls-3{fill:#eb652f;}.cls-4{fill:#f6a42c;}.cls-5{fill:#fff18b;}.cls-6{fill:#281b17;}.cls-7{fill:#473a3a;}.cls-8{fill:#5e5454;}</style><clipPath id="clip-path"><path class="cls-1" d="M62.86,1.45s16.4-.07,19.68.14c0,0,5.86,4.2,1.43,7.64s-10.91,5.92-16.16,4.45S57.58,5.67,62.86,1.45Z"/></clipPath></defs><g class="cls-2"><path class="cls-3" d="M73.84,10.48c-3.53,0-8.65-1.43-8.65-4.73a3.64,3.64,0,0,1,2.74-3.48A3.64,3.64,0,0,0,67,3.42c-.27.53-.64,1.28,0,1.92a2.73,2.73,0,0,0,2.07.72,2,2,0,0,0,1.7-1.13c.5-1.27-2.1-1.78-2.08-3.13,0-1.77,4.13-3,4.13-4.32a1.33,1.33,0,0,0-.36-1C72.92-3.39,74-3,74-2.33c0,1-1.54,2.14-1.54,3.17S73.55,1.92,74,1.92A1.63,1.63,0,0,0,75.78.37c0-1.2-1.33-1.65-1.33-1.65s3.81.5,3.81,2.43a2.82,2.82,0,0,1-.34,1.31C77.27,3.73,76.16,4,76.26,4.82a1.31,1.31,0,0,0,.89,1,2.1,2.1,0,0,0,.7.12,1.5,1.5,0,0,0,1.51-1.43,1.7,1.7,0,0,0-1-1.36A3,3,0,0,1,81,6.37C81,9,76.43,10.48,73.84,10.48Z"/><path class="cls-4" d="M73.84,10.48A7.41,7.41,0,0,1,68,7.55c1.15.72,3.34.79,3.77-.76.28-1,1.31-2.44,3.71-3.08-1.74,1.31-1.94,3.47.38,3.85a5.38,5.38,0,0,0,3.83-1.2A6.71,6.71,0,0,1,73.84,10.48Z"/><path class="cls-5" d="M73.84,10.48c-.32.09-4.21-1.26-.48-3.62a1.52,1.52,0,0,0,.94,2.32,3.75,3.75,0,0,0,2.18-1C76.48,8.72,76,9.85,73.84,10.48Z"/></g><path class="cls-6" d="M102.27,29.92c-1.71-1.18-16.58-9.23-17-9.45a3.61,3.61,0,0,1,.67-.26l.77-.89c.32.09,16.49,9.32,18.15,10.46Z"/><path class="cls-6" d="M46.48,30.31l-2.57-.16c1.3-.94,15.94-11.27,16.3-11.36l2.57.46-.64.13C61.78,19.62,47.89,29.3,46.48,30.31Z"/><path class="cls-7" d="M57.18,12.17v7.36H89.29V11.59s-2.11-1-7-1.25a113.34,113.34,0,0,0-21,.39S58.14,10.92,57.18,12.17Z"/><ellipse class="cls-8" cx="73.24" cy="18.79" rx="16.06" ry="3.19"/><path class="cls-8" d="M88.46,15.6c.51,0,52.58-7.3,55.09-8"/><path class="cls-6" d="M88.46,16.42V15.6l-.06-.82c.35,0,50.9-7,53.7-7.73l3.51.75C143.88,8.26,89.46,16.42,88.46,16.42Z"/><path class="cls-8" d="M58.59,14.82c-.51,0-48.4-7.69-54.13-7.77"/><path class="cls-6" d="M58.59,15.64c-.16,0-.67-.07-7.38-1-13.68-2-45.47-7.73-49.77-7.79L5.6,6.07C10,6.13,37.73,11,51.45,13c3.87.56,6.92,1,7.19,1Z"/></svg>