<svg id="Layer_1" data-name="Layer 1" xmlns="http://www.w3.org/2000/svg" viewBox="0 0 25.65 19.35"><defs><style>.cls-1{fill:#f7fbff;stroke:#323232;stroke-miterlimit:10;stroke-width:0.5px;}.cls-2{fill:#d09787;}.cls-3{fill:#451e15;}.cls-4{fill:#fff;}</style></defs><path class="cls-1" d="M2.85,6.37a4,4,0,0,0,2.09,5A3.51,3.51,0,0,0,9.77,9.6a4,4,0,0,0-2.09-5A3.51,3.51,0,0,0,2.85,6.37Z"/><path class="cls-2" d="M2.71,9.47a4.34,4.34,0,0,1,.14-3.59A3.82,3.82,0,0,1,8,4.45c.89.47,1.51,1,2.22,2.93A4.79,4.79,0,0,0,7,3.44,4.07,4.07,0,0,0,2.59,5.05C1.81,6.3,1.8,8.62,2.71,9.47Z"/><path class="cls-3" d="M6.45,10.86a1.61,1.61,0,0,0,2.47-.37,2.33,2.33,0,0,0,.16-2.91A1.61,1.61,0,0,0,6.61,8,2.33,2.33,0,0,0,6.45,10.86Z"/><path class="cls-4" d="M6.72,6.77a.69.69,0,0,0,.08.94.61.61,0,0,0,.89-.12.69.69,0,0,0-.09-.94A.61.61,0,0,0,6.72,6.77Z"/><path class="cls-1" d="M22.63,13.15A3.65,3.65,0,0,1,18.57,16a3.23,3.23,0,0,1-2.64-3.92A3.65,3.65,0,0,1,20,9.23,3.22,3.22,0,0,1,22.63,13.15Z"/><path class="cls-2" d="M20.71,15.94a4.08,4.08,0,0,0,2.12-2.61A3.44,3.44,0,0,0,20,9C19,8.82,18,9.06,16.52,10.3a4.58,4.58,0,0,1,4.23-1.7,3.4,3.4,0,0,1,2.81,4A4.82,4.82,0,0,1,20.71,15.94Z"/><path class="cls-3" d="M21.54,12.43a1.49,1.49,0,0,0-2.29.15,2.1,2.1,0,0,0-.38,2.62,1.49,1.49,0,0,0,2.29-.15A2.11,2.11,0,0,0,21.54,12.43Z"/><path class="cls-4" d="M19.27,11.75a.7.7,0,0,0,.13,1,.68.68,0,1,0,.85-1.07A.7.7,0,0,0,19.27,11.75Z"/><path class="cls-2" d="M2.85,6.37a4,4,0,0,0,2.09,5A3.51,3.51,0,0,0,9.77,9.6a4,4,0,0,0-2.09-5A3.51,3.51,0,0,0,2.85,6.37Z"/><path class="cls-2" d="M22.63,13.15A3.65,3.65,0,0,1,18.57,16a3.23,3.23,0,0,1-2.64-3.92A3.65,3.65,0,0,1,20,9.23,3.22,3.22,0,0,1,22.63,13.15Z"/></svg>