<svg xmlns="http://www.w3.org/2000/svg" viewBox="0 0 67.26 53.43"><defs><style>.cls-1{isolation:isolate;}.cls-2{fill:#5c5548;}.cls-3{fill:#424036;}.cls-4{fill:#fad2c6;stroke:#323232;}.cls-4,.cls-7{stroke-miterlimit:10;stroke-width:0.25px;}.cls-5{fill:#e4a58c;}.cls-6{fill:#421b16;}.cls-7{fill:#311415;stroke:#211e1f;}.cls-8{fill:#90856e;}.cls-9{fill:#605e44;}.cls-10,.cls-13{fill:#9e9580;opacity:0.5;}.cls-10,.cls-12{mix-blend-mode:multiply;}.cls-11,.cls-12{fill:#676254;}.cls-12{opacity:0.4;}.cls-13{mix-blend-mode:screen;}.cls-14{fill:#c28974;}</style></defs><g class="cls-1"><g id="Layer_1" data-name="Layer 1"><path class="cls-2" d="M15.4,19.52a15,15,0,0,0-3.78,2.24c-2.4,1.8-7.87,7.28-8.39,9.61s15,1.08,35,.66S65.86,28.64,66,27.51s-4.65-6-10.16-8.71S42.52,16,33.08,16.14A58.35,58.35,0,0,0,15.4,19.52Z"/><path class="cls-3" d="M30.56,16.37a59.54,59.54,0,0,0-15.12,3.25,15.55,15.55,0,0,0-3.75,2.23c-2.5,1.87-7.86,7.31-8.36,9.55a.39.39,0,0,0,.07.31c1,1.26,9.44,1,21.14.6,4.11-.14,8.77-.29,13.65-.39,3.33-.07,6.5-.22,9.41-.43,13.7-1,18.2-3.29,18.29-4,.14-1.06-4.66-5.91-10.09-8.6-5.59-2.76-13.59-2.83-22.72-2.65C32.26,16.27,31.41,16.31,30.56,16.37Z"/><path class="cls-4" d="M52.91,24.11a2.43,2.43,0,0,1,.17,2.64c-3.72,6.8-3.78,9-6.8,17.43-2.23,6.26-9.87,9.74-15.77,7.7-7.24-2.5-15.24-7.53-12.67-22.07,1.14-6.41.9-13.53,2.43-15.45,5.19-6.47,8.63-4.43,17.67-1.25C46.39,16.08,49.85,17.65,52.91,24.11Z"/><path class="cls-5" d="M49.52,35.27S51.19,23,44.9,24.06c-6.85,1.18-9.13-2-11.88-1.71-6,.66-13.59,8.59-15,2.42S33.78,13.41,33.78,13.41s15.14.19,16.1.72,4.21,8.8,4.21,8.8Z"/><path class="cls-6" d="M45.48,28.68a.46.46,0,0,1-.35-.71l.07-.12c.41-.62,1.38-.5,1.89-.21a3.83,3.83,0,0,1,2.22,3.41c0,.2-.22.36-.31.2A4.91,4.91,0,0,0,45.48,28.68Z"/><path class="cls-6" d="M34.47,25.34A.46.46,0,0,0,35.2,25v-.14c.09-.74-.74-1.27-1.31-1.37A3.84,3.84,0,0,0,30,24.71c-.15.14-.06.42.12.35A4.88,4.88,0,0,1,34.47,25.34Z"/><path class="cls-7" d="M47.1,19.9s-2.73,7.31-14,.09c0,0,14,0,.79-5.24,0,0,1.27,5-7,.62,0,0,4.94,7-6.56,11.31,0,0-1.9,0-2.76,4.48-.06.33-.11.67-.16,1.05-.75,5.53.1-.72.1-.72S12.82,29,14.68,23.27a8.14,8.14,0,0,1,2-9.48S16.47,6.08,25,7.09c0,0,4.24-6.35,9-4.52,0,0,8.65-3.1,12.08,4.62,0,0,6.08-.1,7.56,7.57,0,0,4.13,4.27,1.43,8.34,0,0,3.26,3.68-1.58,6,0,0,2.26,3.83-2.55,5.35L48.3,38.18l1.22-2.91a14.56,14.56,0,0,0-2.16-15.05C47.28,20.11,47.19,20,47.1,19.9Z"/><path class="cls-8" d="M55.84,18.8c-5.5-2.72-13.32-2.85-22.76-2.66A58.35,58.35,0,0,0,15.4,19.52a15,15,0,0,0-3.78,2.24c-2.4,1.8-7.87,7.28-8.39,9.61.55-1.53,7.85-8,34.28-8.77C54.77,22.1,63,24.91,65.9,27.07,65.18,25.44,60.8,21.25,55.84,18.8Z"/><path class="cls-9" d="M65.91,27.18a.06.06,0,0,1-.07,0c-1.59-1.19-8.31-5-28.33-4.45-2.33.07-4.6.19-6.74.34C9.91,24.61,3.82,30,3.33,31.41a.1.1,0,0,1-.13.07.13.13,0,0,1-.08-.13c.56-2.47,6.2-8,8.44-9.68a15,15,0,0,1,3.81-2.26,59.61,59.61,0,0,1,15.17-3.26c.86-.07,1.71-.11,2.54-.12,9.15-.19,17.18-.11,22.81,2.67,5,2.45,9.36,6.63,10.1,8.32a.14.14,0,0,1,0,.14Z"/><path class="cls-10" d="M14.59,23.73c1.55-2.43,4.33-4.07,6.71-5.3a31.52,31.52,0,0,1,3-1.34,57.54,57.54,0,0,0-8.94,2.43,15,15,0,0,0-3.78,2.24c-2.4,1.8-7.87,7.28-8.39,9.61.33-.93,3.15-3.67,11.2-5.86A1.87,1.87,0,0,1,14.59,23.73Z"/><path class="cls-10" d="M46,16.71A37.45,37.45,0,0,1,52,19.11c1.47.75,3.22,2,3.13,4,0,.12,0,.24,0,.35,5.79.93,9.17,2.36,10.8,3.59-.72-1.63-5.1-5.82-10.06-8.27-3.31-1.64-7.46-2.34-12.3-2.59A19.43,19.43,0,0,1,46,16.71Z"/><path class="cls-8" d="M12,20.46s-1.24-8.67,8.64-15.37c10.71-7.26,23.24-2.73,27-.2s7.5,7.86,8.17,12.93c0,0-14.42-2-21.15-1.58S15.9,18.25,12,20.46Z"/><path class="cls-9" d="M33.07,16.24l1.56-.11c6.31-.35,19.53,1.36,21,1.56C54.92,12.44,51,7.34,47.56,5A27.28,27.28,0,0,0,31.88,1.34,22.54,22.54,0,0,0,20.71,5.19c-9,6.08-8.71,13.88-8.61,15.1C16,18.17,26.74,16.71,33.07,16.24Z"/><path class="cls-10" d="M49.6,12.83c-1.21,1.92-3.34,2.68-5.26,3.17-.67.17-1.34.31-2,.43,6.5.45,13.46,1.39,13.46,1.39-.62-4.69-3.88-9.6-7.33-12.31C50,7.48,51.11,10.45,49.6,12.83Z"/><path class="cls-10" d="M26.29,16a17.33,17.33,0,0,1-7.38-2.55,5.29,5.29,0,0,1-2.49-4.73C11.17,14.57,12,20.46,12,20.46c3.18-1.81,11.81-3.23,18.53-3.89C29.11,16.44,27.69,16.27,26.29,16Z"/><path class="cls-11" d="M34.49,14.9c5.43-.34,20,1,21.47,2A8.77,8.77,0,0,1,56.11,19c-.15.36-7-2.13-20.1-1.65-17.18.63-23.63,4.2-24.07,4.31s-.27-2-.07-2.29S18.69,15.89,34.49,14.9Z"/><path class="cls-3" d="M56,19.18A9.61,9.61,0,0,1,54.6,19,74.79,74.79,0,0,0,36,17.5c-1.57.05-3.12.14-4.6.25-5.55.41-13.38,1.43-19.1,3.91L12,21.8h0a.25.25,0,0,1-.24-.15,4.16,4.16,0,0,1,.08-2.31c.19-.31,6.71-3.56,22.71-4.55,5.33-.33,20,1,21.53,2l0,0v.05a7.78,7.78,0,0,1,.15,2.22A.19.19,0,0,1,56,19.18Z"/><path class="cls-12" d="M56,16.88c-.84-.54-5.87-1.21-11.07-1.63l.55.13c5.05,1,1.46,1.58-2.41,1.29a75.75,75.75,0,0,0-13.82.19c-5.91.55-7.81-.52-3.06-1.1a7.91,7.91,0,0,0,.94-.17C16.59,16.91,12,19.14,11.87,19.4s-.37,2.39.07,2.29S18.83,18,36,17.38c13.05-.48,20,2,20.1,1.65A8.77,8.77,0,0,0,56,16.88Z"/><path class="cls-13" d="M17.14,24s10.72-3.38,35.57-1.7C52.71,22.27,33.1,18.9,17.14,24Z"/><path class="cls-4" d="M17.61,33.6c.06-3.4-1-5-2.86-5.21s-2.83,1.1-3,3.89c-.21,3.56,3.3,6.55,5.77,6.06"/><path class="cls-5" d="M13.27,31.47S13,29.45,15,30s.7,3.14,1.17,4.33,1.65,2.46.72,2.61S13,35.72,13.27,31.47Z"/><path class="cls-14" d="M39.27,39.06a2,2,0,0,1,0,1.61,1.09,1.09,0,0,1-.72.57,2.3,2.3,0,0,1-2.29-.89,2.22,2.22,0,0,1-.38-1.55,3.09,3.09,0,0,0,.68,1.31,2.11,2.11,0,0,0,1.21.64,1.08,1.08,0,0,0,1.17-.28A2.64,2.64,0,0,0,39.27,39.06Z"/></g></g></svg>