<svg id="Layer_1" data-name="Layer 1" xmlns="http://www.w3.org/2000/svg" viewBox="0 0 500 650"><defs><style>.cls-1{fill:#4a2a15;}.cls-2{fill:#fad2c6;}.cls-2,.cls-23,.cls-3,.cls-5,.cls-8,.cls-9{stroke:#323232;stroke-miterlimit:10;stroke-width:0.25px;}.cls-3{fill:#fccd3a;}.cls-4{fill:#be9030;}.cls-5{fill:#fbd3c7;}.cls-6{fill:#dc9e8f;}.cls-7{fill:#edc1b7;}.cls-8{fill:#ffe57b;}.cls-9{fill:#e0604f;}.cls-10{fill:#f5927d;}.cls-11{fill:#fab51b;}.cls-12{fill:#f17125;}.cls-13{fill:#80351b;}.cls-14{fill:#75451c;}.cls-15{fill:#a66638;}.cls-16{fill:#925b24;}.cls-17{fill:#e69847;}.cls-18{fill:#5f2710;}.cls-19{fill:#fff;}.cls-20{fill:#323232;}.cls-21{fill:#efbfb4;}.cls-22{fill:#e4a58c;}.cls-23{fill:none;}</style></defs><polygon class="cls-1" points="293.55 465.08 302.51 563.97 304.07 563.95 295.08 465.08 293.55 465.08"/><polygon class="cls-1" points="216.79 464.99 207.51 563.97 205.95 563.95 215.26 464.99 216.79 464.99"/><path class="cls-2" d="M226.63,528s1.78,2.89-1.11,6.1,6.36,5.52,6.36,5.52l5.05-4.32a4,4,0,0,1-.7-5.06C238,527.38,226.63,528,226.63,528Z"/><path class="cls-3" d="M220.41,534.47c.21.46-2.73,8.62-3.87,30.75l25,1.72s-2.24-10.61-1.5-17.93l1.71,2.42,1.68-.69a7.22,7.22,0,0,0,3.17-2.51l1.08-1.53s-6.53-12.92-10.77-11.4l-2,1s-5,1.7-8.43-3.55c-.5-.76-4.64,1.17-4.64,1.17Z"/><path class="cls-4" d="M218.65,547.81s15.84,5.13,21.24,1.65l-.13,2.66s-5.4,4.77-21.67-2.32Z"/><path class="cls-4" d="M217.53,552.34s17.39,6.43,22.26,1.64l.18,2.7s-6.71,5.25-22.61-2Z"/><path class="cls-5" d="M263.68,553.45l7.06,4.79,1.46-3.7-4-4.28,1.29-2.08.63-1L266.17,543l-1.31,1.73-1.44,1.9C261.93,548.6,261.65,552.06,263.68,553.45Z"/><path class="cls-6" d="M264.91,544.82a7.17,7.17,0,0,0,4.47,3.33l.74-1L266.17,543Z"/><path class="cls-5" d="M289.38,549.12c.12.76.31,1.71.54,2.78.15.71.32,1.46.5,2.24,1.09,4.59,2.61,10,3.25,10.81.92,1.2,3-1.52,3-1.52a71.71,71.71,0,0,0-1.11-10.74c-.1-.56-.19-1.1-.28-1.59-.39-2.16-.71-3.61-.71-3.61S288.7,544.88,289.38,549.12Z"/><path class="cls-6" d="M289.38,549.12c.12.76.42,1.76.65,2.83,2,1,4-.12,5.16-.8-.39-2.15-.62-3.66-.62-3.66S288.7,544.88,289.38,549.12Z"/><path class="cls-2" d="M276.08,537.25c-1.13,1.41,7.13,2.9,7.39,3.06s1.87-1.52,1.87-1.52l-.34-1.17-.24-1.22-7.63-1.87A23.8,23.8,0,0,1,276.08,537.25Z"/><polygon class="cls-7" points="276.74 536.04 285.24 538.76 284.91 537.61 284.67 536.42 277.2 534.59 276.74 536.04"/><path class="cls-8" d="M268.84,539.86l-3.47,3.66h0a7.53,7.53,0,0,0,4.37,4.2l.51.19,1.61-3.11-1.28,18.26a10.82,10.82,0,0,0,9.88,5.18c7.52-.23,11.16-4.52,11.16-4.52s-2.13-14.56-2.31-16.67V547c-.18-2.44.66-3,2.72-4.36l-.36-1.45c.53-.34.34-.75-.26-.95l.11-.88a15.08,15.08,0,0,0-6.52-2.19h0s-.95,2-4.46,1.72-4.1-2.24-4.1-2.24l-1.43.17A10.2,10.2,0,0,0,268.84,539.86Z"/><path class="cls-9" d="M289,547.07c.12.22-13.58,3.83-17.48-3l-4.85,20.66s12.43,10.17,25-.5Z"/><path class="cls-9" d="M284.89,537.25s.58,9.72.16,12.36l1.66.9,1.17-1.76a44.31,44.31,0,0,0-2-11.38Z"/><path class="cls-9" d="M276.08,536.73a122,122,0,0,0-.3,12.24l-1.53,1-.89-1.49s0-7.07,1.53-11.56Z"/><path class="cls-8" d="M291.21,539.32c1.61.88,4.48,9.82,4.49,10.91,0,.3-1.86.94-3.32,1.06a6.59,6.59,0,0,1-2.82-.47s-.28-1.93-.65-4.76"/><circle class="cls-10" cx="275.25" cy="559.35" r="1.74"/><circle class="cls-10" cx="275.32" cy="553.45" r="1.74"/><circle class="cls-10" cx="271.26" cy="556.49" r="1.74"/><circle class="cls-10" cx="286.83" cy="554.26" r="1.74"/><circle class="cls-10" cx="275.02" cy="565.18" r="1.74"/><circle class="cls-10" cx="281.61" cy="565.26" r="1.74"/><circle class="cls-10" cx="287.56" cy="563.63" r="1.74"/><circle class="cls-10" cx="270.06" cy="560.63" r="1.74"/><circle class="cls-10" cx="284.88" cy="559.05" r="1.74"/><circle class="cls-10" cx="279.65" cy="559.91" r="1.74"/><circle class="cls-10" cx="281.23" cy="554.44" r="1.74"/><circle class="cls-10" cx="278.25" cy="550.47" r="1.74"/><circle class="cls-10" cx="282.89" cy="550.47" r="1.74"/><ellipse class="cls-10" cx="271.75" cy="550.82" rx="1.47" ry="1.74" transform="matrix(1, -0.03, 0.03, 1, -17.09, 8.77)"/><ellipse class="cls-10" cx="289.31" cy="559.76" rx="1.33" ry="1.58" transform="matrix(1, -0.03, 0.03, 1, -17.36, 9.32)"/><ellipse class="cls-10" cx="269.76" cy="564.35" rx="1.33" ry="1.58" transform="translate(-17.52 8.71) rotate(-1.79)"/><path class="cls-5" d="M274,556.38c.62.16,2.06.42,2,1.25,0,.34-1.33.1-2.57-.12a9.77,9.77,0,0,1-1.62-.73c-.06.09.42.51,1.13.82.39.16,1.82-.06,1.85,1,0,.18-1.76.14-2.18.13a19.47,19.47,0,0,1-4-2.18c-.66-.66-.46-2.44.14-3.54s2.44-1.48,4.07-1.28a19.63,19.63,0,0,1,2.9,1c2.08,1.4,3.13,2,2.82,2.36-.74.91-2.4-.26-3.31-.75a10.56,10.56,0,0,0-2.1-.62c-.14.15,1.25.57,2,.89s2.57,1.51,2.32,1.87c-.69,1-1.39.11-3-.52a8.13,8.13,0,0,0-2-.41C272.43,555.74,272.8,555.87,274,556.38Z"/><path class="cls-11" d="M306.57,462.15l-4.42-.19-15.75-.66-15.13-.64-35.43-1.51-15.27-.63-18.51-.79-1.87-.08S25.76,261.44,39.62,163.33C47.11,110.44,72.33,82.94,94,68.8a.15.15,0,0,1,.06,0c18.51-12,34.38-14.32,34.38-14.32a109.56,109.56,0,0,1,16.09-8.57h0c22.82-9.81,42.31-8.53,52.39-6.72a49.93,49.93,0,0,1,7.36,1.78c55.35-24.48,90.17-2.36,96.19,2,.63.46.95.72.95.72,25-8.47,47.45-4.19,61.71.77a83.78,83.78,0,0,1,16,7.32,157.63,157.63,0,0,1,38.35,20.15h0s.05,0,.06.07C560.4,177.29,306.57,462.15,306.57,462.15Z"/><path class="cls-12" d="M311.19,170.54c0,113.39-18.84,242-39.92,290.12l-35.43-1.51C218.55,419.43,205,327.74,194.68,221.69c-8.32-86-5.7-143.84,2.25-182.55a49.93,49.93,0,0,1,7.36,1.78c55.35-24.48,90.17-2.36,96.19,2C307.05,75.08,311.19,117.39,311.19,170.54Z"/><path class="cls-12" d="M302.15,462l-15.75-.66C440.62,210,396.3,66.12,366.42,45.61l51.06,26.26h0s-25.93-14.61-25.92-14.59C540.15,161.53,344.56,410.73,302.15,462Z"/><path class="cls-12" d="M220.57,458.52l-18.51-.79C153.73,398.42-18.8,170.61,94,68.8a.15.15,0,0,1,.06,0c18.51-12,34.38-14.32,34.38-14.32,5.49-3.52-2.28.4,2.94-1.83C113,86.48,73.67,214.87,220.57,458.52Z"/><ellipse class="cls-13" cx="255.55" cy="459.01" rx="54.77" ry="9.54"/><path class="cls-14" d="M299.15,618.17h0a484.45,484.45,0,0,1-84.25.77h0c-8.39-1.39-14.39-5.73-15-10.83l-4-35.18h117.6l-3.28,36.82C309.9,613.63,305.48,617,299.15,618.17Z"/><rect class="cls-15" x="205.21" y="576.7" width="11.66" height="2.04" rx="0.92"/><rect class="cls-15" x="205.21" y="583.11" width="11.66" height="2.04" rx="0.92"/><rect class="cls-15" x="205.21" y="589.51" width="11.66" height="2.04" rx="0.92"/><rect class="cls-15" x="205.21" y="595.91" width="11.66" height="2.04" rx="0.92"/><rect class="cls-15" x="205.21" y="602.32" width="11.66" height="2.04" rx="0.92"/><rect class="cls-15" x="205.21" y="608.72" width="11.66" height="2.04" rx="0.92"/><rect class="cls-15" x="222.71" y="576.7" width="11.66" height="2.04" rx="0.92"/><rect class="cls-15" x="222.71" y="583.11" width="11.66" height="2.04" rx="0.92"/><rect class="cls-15" x="222.71" y="589.51" width="11.66" height="2.04" rx="0.92"/><rect class="cls-15" x="222.71" y="595.91" width="11.66" height="2.04" rx="0.92"/><rect class="cls-15" x="222.71" y="602.32" width="11.66" height="2.04" rx="0.92"/><rect class="cls-15" x="222.71" y="608.72" width="11.66" height="2.04" rx="0.92"/><rect class="cls-15" x="240.2" y="576.7" width="11.66" height="2.04" rx="0.92"/><rect class="cls-15" x="240.2" y="583.11" width="11.66" height="2.04" rx="0.92"/><rect class="cls-15" x="240.2" y="589.51" width="11.66" height="2.04" rx="0.92"/><rect class="cls-15" x="240.2" y="595.91" width="11.66" height="2.04" rx="0.92"/><rect class="cls-15" x="240.2" y="602.32" width="11.66" height="2.04" rx="0.92"/><rect class="cls-15" x="240.2" y="608.72" width="11.66" height="2.04" rx="0.92"/><rect class="cls-15" x="257.69" y="576.7" width="11.66" height="2.04" rx="0.92"/><rect class="cls-15" x="257.69" y="583.11" width="11.66" height="2.04" rx="0.92"/><rect class="cls-15" x="257.69" y="589.51" width="11.66" height="2.04" rx="0.92"/><rect class="cls-15" x="257.69" y="595.91" width="11.66" height="2.04" rx="0.92"/><rect class="cls-15" x="257.69" y="602.32" width="11.66" height="2.04" rx="0.92"/><rect class="cls-15" x="257.69" y="608.72" width="11.66" height="2.04" rx="0.92"/><rect class="cls-15" x="275.3" y="576.7" width="11.66" height="2.04" rx="0.92"/><rect class="cls-15" x="275.3" y="583.11" width="11.66" height="2.04" rx="0.92"/><rect class="cls-15" x="275.3" y="589.51" width="11.66" height="2.04" rx="0.92"/><rect class="cls-15" x="275.3" y="595.91" width="11.66" height="2.04" rx="0.92"/><rect class="cls-15" x="275.3" y="602.32" width="11.66" height="2.04" rx="0.92"/><rect class="cls-15" x="275.3" y="608.72" width="11.66" height="2.04" rx="0.92"/><rect class="cls-15" x="292.9" y="576.7" width="11.66" height="2.04" rx="0.92"/><rect class="cls-15" x="292.9" y="583.11" width="11.66" height="2.04" rx="0.92"/><rect class="cls-15" x="292.9" y="589.51" width="11.66" height="2.04" rx="0.92"/><rect class="cls-15" x="292.9" y="595.91" width="11.66" height="2.04" rx="0.92"/><rect class="cls-15" x="292.9" y="602.32" width="11.66" height="2.04" rx="0.92"/><rect class="cls-15" x="292.9" y="608.72" width="11.66" height="2.04" rx="0.92"/><rect class="cls-16" x="186.17" y="564.25" width="137.79" height="9.19" rx="4.15"/><rect class="cls-17" x="189.34" y="564.82" width="130.19" height="4.6" rx="2.28"/><ellipse class="cls-18" cx="255.62" cy="459.12" rx="48.96" ry="7.83"/><path class="cls-3" d="M226.48,532.78c-.93-.57-8.24-2.22-14,14.58l.56.44a8.71,8.71,0,0,0,5.21,1.83l1-.07,3.57-6.23"/><ellipse class="cls-5" cx="292.38" cy="563.65" rx="2.08" ry="0.98" transform="translate(-17.48 9.42) rotate(-1.79)"/><ellipse class="cls-19" cx="296" cy="563.47" rx="1.84" ry="0.24" transform="translate(-67.34 40.88) rotate(-7.1)"/><path class="cls-5" d="M294.33,562.1c1.22-.31,1.14.92,1.3,2.2s-.16,2.38-.72,2.45-1.14-.91-1.3-2.2S293.79,562.24,294.33,562.1Z"/><path class="cls-5" d="M296.16,561.87c1.83-.17,1,.93,1.11,2.2s-.08,2.35-.53,2.4-1-.92-1.11-2.19S295.71,561.92,296.16,561.87Z"/><path class="cls-5" d="M297.92,561.81c1.72,0,1,.88,1.2,2.1s-.14,2.28-.64,2.34-1-.88-1.2-2.11S297.42,561.81,297.92,561.81Z"/><path class="cls-5" d="M299.56,562.21c.93-.15,1,.64,1.15,1.59s-.37,1.81-.73,1.85-.73-.69-.85-1.64S299.15,562.27,299.56,562.21Z"/><path class="cls-20" d="M268.25,550.34a10.73,10.73,0,0,0-3.62-.87A4.39,4.39,0,0,1,268.25,550.34Z"/><path class="cls-21" d="M227,531.77s9.92,4.52,8.92,2.44a4.53,4.53,0,0,1-.44-2.44,4.12,4.12,0,0,1,.59-1.54c1.72-2.78-9.34-2.18-9.34-2.18A4.68,4.68,0,0,1,227,531.77Z"/><path class="cls-20" d="M239.49,549.91a24.78,24.78,0,0,0,.85-3.87,26,26,0,0,0,.22-3.95,14,14,0,0,1,0,4A13.79,13.79,0,0,1,239.49,549.91Z"/><path class="cls-5" d="M204.94,566.16a.91.91,0,0,1-1.06.24.73.73,0,0,1-.32-1,2.05,2.05,0,0,1,.38-.4c.3-.31.45-.74.77-1a1.77,1.77,0,0,1,1.15-.44,4.79,4.79,0,0,1,1.25.13,2.34,2.34,0,0,1-1,2.17A2.82,2.82,0,0,1,204.94,566.16Z"/><path class="cls-5" d="M204.43,567.54a1.13,1.13,0,0,0,1.12-.28c-.05.43.08.88.85.73,1.39-.29,1.22-2,3.87-2.33s6,.53,6.27-.44-1.19-1-1.37-1.06-1.47-.29-1.54-.61a37.91,37.91,0,0,0,1.86-9.77s-.29,0,0-.33c.13-.15,1.3-1.71,2.09-2.8a11.79,11.79,0,0,0,.68-1,4.76,4.76,0,0,1-2.77-.48,29.94,29.94,0,0,1-3-1.79l-.37,1c-.39,1-1,2.48-1.24,2.95a10,10,0,0,0-1.17,3.12,56.68,56.68,0,0,0-.43,7.83s.79,0-1.1.47S203,567.33,204.43,567.54Z"/><path class="cls-22" d="M212.2,548.43a6.33,6.33,0,0,0,5.25,2.23c.36-.5.58-.81.64-.93a6,6,0,0,1-2.86-.64,21.2,21.2,0,0,1-2.69-1.57Z"/><path class="cls-23" d="M213.93,563.77c-.31-.78-1.15-.82-1.77-.78"/><path class="cls-23" d="M205.6,566.79a7.56,7.56,0,0,1,3.05-2.86"/><path class="cls-20" d="M215.56,553.78a5.68,5.68,0,0,0-3.88-.95A3.57,3.57,0,0,1,215.56,553.78Z"/><path class="cls-20" d="M271.52,544a4,4,0,0,1-.71-2.19,4.14,4.14,0,0,1,.52-2.24,6.5,6.5,0,0,0-.27,2.23A6.71,6.71,0,0,0,271.52,544Z"/><path class="cls-20" d="M288.91,546.06c.09-.38.16-.77.23-1.15l.22-1.15c.07-.38.13-.76.2-1.14s.12-.77.15-1.16a7.43,7.43,0,0,1-.11,2.35A8.88,8.88,0,0,1,288.91,546.06Z"/><polygon class="cls-1" points="302.2 457.53 312.48 564.32 314.38 564.32 303.7 457.53 302.2 457.53"/><polygon class="cls-1" points="207.91 457.42 197.64 564.21 195.74 564.21 206.41 457.42 207.91 457.42"/></svg>