<svg id="Layer_1" data-name="Layer 1" xmlns="http://www.w3.org/2000/svg" viewBox="0 0 14.63 8.89"><defs><style>.cls-1{fill:#bb7757;}.cls-2{fill:#765a47;}.cls-3{fill:#dc9e8f;}</style></defs><g id="neutral"><path class="cls-1" d="M12.11,5.59a9.56,9.56,0,0,1-5.52.84A9.63,9.63,0,0,1,1.91,3.26c0-.22,1.76,1.52,4.82,2.23A29.39,29.39,0,0,0,12.11,5.59Z"/><path class="cls-1" d="M12.25,5.52c0-.14-3,.27-5.63-.31a24.43,24.43,0,0,1-4.82-2A9.85,9.85,0,0,0,6.48,5.8,11.12,11.12,0,0,0,12.25,5.52Z"/><path class="cls-2" d="M1.73,3.1a14,14,0,0,0,5,2.76,10.89,10.89,0,0,0,5.5-.33,12,12,0,0,1-5.5.33A12.69,12.69,0,0,1,1.73,3.1Z"/><path class="cls-3" d="M1.77,2.69c.2-.33-.09-.3-.23,0a1.85,1.85,0,0,0,0,.86S1.71,2.79,1.77,2.69Z"/><path class="cls-3" d="M12.47,5.12c-.09-.36.18-.27.23,0a1.29,1.29,0,0,1-.27.74C12.52,5.29,12.5,5.23,12.47,5.12Z"/></g></svg>