<svg xmlns="http://www.w3.org/2000/svg" viewBox="0 0 130.64 112.25"><defs><style>.cls-1{isolation:isolate;}.cls-2{fill:#5c5548;}.cls-3{fill:#424036;}.cls-4{fill:#fad2c6;stroke:#323232;stroke-width:0.5px;}.cls-4,.cls-7{stroke-miterlimit:10;}.cls-5{fill:#e4a58c;}.cls-6{fill:#421b16;}.cls-7{fill:#311415;stroke:#211e1f;stroke-width:0.25px;}.cls-8{fill:#90856e;}.cls-9{fill:#605e44;}.cls-10,.cls-13{fill:#9e9580;opacity:0.5;}.cls-10,.cls-12{mix-blend-mode:multiply;}.cls-11,.cls-12{fill:#676254;}.cls-12{opacity:0.4;}.cls-13{mix-blend-mode:screen;}.cls-14{fill:#c28974;}</style></defs><g class="cls-1"><g id="Layer_1" data-name="Layer 1"><path class="cls-2" d="M19.1,66.07s-2,2.39-4.24,8.45S9,96.85,10.79,101.68,39.14,86.3,74.93,62.32s46.23-38.24,45.18-40.45-15.39-5.47-28.53-4S64.13,28.14,47.24,39.43A125.5,125.5,0,0,0,19.1,66.07Z"/><path class="cls-3" d="M42.93,42.78A127.8,127.8,0,0,0,19.29,66.22s-2,2.45-4.21,8.39C12.72,80.89,9.31,97,11,101.61a.76.76,0,0,0,.49.47c3.25,1.16,18.26-9.16,39-23.42,7.3-5,15.57-10.7,24.29-16.54,6-4,11.54-7.94,16.56-11.7C115,32.67,120.56,23.35,119.9,22c-1-2.07-15.3-5.3-28.28-3.87C78.29,19.57,63.7,28.72,47.37,39.63,45.9,40.62,44.4,41.68,42.93,42.78Z"/><path class="cls-4" d="M92.43,30.89c1.15.72,3.16,1.47,3.37,4.57,1.14,16.66,3.53,20.63,7.89,39.5,3.22,14-6.6,29.11-19.65,32.25-16,3.86-36.37,4-48.58-25.32C30.09,69,21.39,56.33,22,51.07c1.9-17.76,10.51-18,30.57-22.77C71.28,23.88,79.38,22.72,92.43,30.89Z"/><path class="cls-5" d="M99.22,55S88,30.84,77.85,40.09C66.8,50.18,59,47,54.32,50.76,44.16,59,39.67,82.1,29.88,72.6S45.33,33.68,45.33,33.68,73,16.45,75.35,16.3,93.21,27.37,93.21,27.37Z"/><path class="cls-6" d="M84.27,47.79a1,1,0,0,1-1.48-.88v-.3C82.81,45,84.72,44.1,86,44c1.89-.1,4.59-.4,8,3.61.28.33,0,.91-.35.72C91.54,47.24,87.42,46.06,84.27,47.79Z"/><path class="cls-6" d="M60.42,54.5a1,1,0,0,0,.95-1.43l-.13-.26c-.7-1.45-2.81-1.44-4-1-1.76.73-4.33,1.61-5.66,6.69-.11.42.38.82.62.5C53.62,57.13,56.83,54.29,60.42,54.5Z"/><path class="cls-7" d="M77,30s3.53,16.4-25.34,16.44C51.67,46.44,77,30.29,47,36c0,0,8,7.51-12,9.26,0,0,17,6.91,1.22,28.11,0,0-3.45,2.2.21,11.33.26.66.56,1.35.9,2.08,5.07,10.89-.64-1.42-.64-1.42s-11.27.88-14.56-11.68c0,0-11-6.7-7.32-19.54,0,0-9.37-13.7,7.23-21.75,0,0,.31-16.42,11.08-18.64,0,0,12.09-15.65,27.26-5.63,0,0,10.92-7.24,22.49,4.95,0,0,12.44,2.94,12.28,13.45,0,0,10.17,2.89,4.06,12.67,0,0,8.54,4.33,1.58,12.68l-.41,9.84L99.22,55A31.32,31.32,0,0,0,77.86,30.26Z"/><path class="cls-8" d="M91.58,17.86C78.45,19.3,64.13,28.14,47.24,39.43A125.5,125.5,0,0,0,19.1,66.07s-2,2.39-4.24,8.45S9,96.85,10.79,101.68C10,98.26,15.73,78.06,62.76,46c30.7-20.93,49-25.41,56.65-24.82C116.23,19.06,103.42,16.55,91.58,17.86Z"/><path class="cls-9" d="M119.56,21.38a.2.2,0,0,1-.15,0c-4.26-.32-20.9.51-56.51,24.79-4.15,2.83-8.13,5.67-11.84,8.44-36,27-40.74,43.94-40.05,47a.21.21,0,0,1-.15.27.26.26,0,0,1-.29-.15c-1.86-5.11,1.95-21.7,4.07-27.34,2.26-6,4.19-8.4,4.28-8.5A127.88,127.88,0,0,1,42.64,42.4c1.48-1.12,3-2.17,4.46-3.17,16.38-10.95,31-20.13,44.46-21.62,11.82-1.3,24.67,1.17,28,3.38a.26.26,0,0,1,.11.28A.44.44,0,0,1,119.56,21.38Z"/><path class="cls-10" d="M22.52,74.64c0-6.19,3.12-12.4,6-17.38a67.59,67.59,0,0,1,4-6A123.5,123.5,0,0,0,19.1,66.07s-2,2.39-4.24,8.45S9,96.85,10.79,101.68c-.48-2.08,1.44-10.32,13.51-23.62A4.07,4.07,0,0,1,22.52,74.64Z"/><path class="cls-10" d="M71.23,25.55A78.81,78.81,0,0,1,85,22.87c3.53-.35,8.17-.1,10.32,3.65a3.68,3.68,0,0,1,.34.69c11.57-5,19.37-6.36,23.74-6-3.18-2.13-16-4.64-27.83-3.33-7.9.87-16.23,4.42-25.3,9.56A40.53,40.53,0,0,1,71.23,25.55Z"/><path class="cls-8" d="M14.06,71.71S1.75,57.44,11.89,33.82c11-25.57,39-31.9,48.65-31.65s22.72,5.54,29.81,14c0,0-28.4,13.19-40.16,21.67S18.53,63.19,14.06,71.71Z"/><path class="cls-9" d="M47.33,39.62c.94-.71,1.85-1.38,2.71-2,11-8,37-20.19,39.93-21.57C82.53,7.4,69.59,2.64,60.55,2.41,53.86,2.24,39.65,5.18,27.89,14A48.79,48.79,0,0,0,12.1,33.93C2.88,55.37,12.43,69.2,14,71.29,18.64,62.92,36.39,47.83,47.33,39.62Z"/><path class="cls-10" d="M73.36,14.27c0,4.89-3,8.73-5.87,11.86-1,1.08-2.07,2.11-3.15,3.1,12.32-6.72,26-13.09,26-13.09C83.79,8.35,72.18,3.24,62.78,2.32,67.92,4.07,73.32,8.21,73.36,14.27Z"/><path class="cls-10" d="M34.79,47.1c-5,2.13-10.6,4.25-16.35,3.93-5-.27-8.17-2.46-10-5.68C5.68,62,14.06,71.71,14.06,71.71c3.66-7,17.65-19.56,29.06-28.55C40.39,44.58,37.61,45.92,34.79,47.1Z"/><path class="cls-11" d="M48.35,35.55c9.46-6.92,37.45-21.31,41.22-21.31,0,0,2.63,2.9,2.78,3.72S77.1,22.28,54,38.29C23.58,59.36,16,73.32,15.35,74s-2.78-3.26-2.8-4.06S20.84,55.67,48.35,35.55Z"/><path class="cls-3" d="M92.37,18.31a17.23,17.23,0,0,1-2.86,1.25A161.36,161.36,0,0,0,54.13,38.49c-2.78,1.92-5.5,3.88-8.06,5.8C36.49,51.48,23.47,62.4,16,73.53a7.39,7.39,0,0,1-.46.66l-.06,0a.55.55,0,0,1-.61,0c-1-.52-2.51-3.58-2.54-4.29s8-14.22,35.89-34.58C57.48,28.58,85.69,14,89.55,14h.11l.08.08c.27.3,2.69,3,2.83,3.85A.39.39,0,0,1,92.37,18.31Z"/><path class="cls-12" d="M89.57,14.24c-2.14,0-12,4.62-21.95,9.88.37-.11.74-.24,1.14-.39,10.36-4,4.49,1.16-2.87,5.12A164.56,164.56,0,0,0,41.05,45.23C31,53.08,26.3,53.35,34.22,46.79a19.41,19.41,0,0,0,1.52-1.41C18.23,60,12.53,69.29,12.55,70s2.12,4.76,2.8,4.06S23.58,59.36,54,38.29c23.11-16,38.5-19.5,38.36-20.33S89.57,14.24,89.57,14.24Z"/><path class="cls-13" d="M27.41,72.12S42.94,53.55,89.94,27.78C89.94,27.78,50.47,44.42,27.41,72.12Z"/><path class="cls-4" d="M39.44,89.05c-3.83-6.25-7.73-7.94-11.22-6.15-3.77,1.95-3.87,5.29-.92,10.53,3.76,6.7,13.58,8,17.5,4.29"/><path class="cls-5" d="M29.1,90.22s-2.91-3.31,1.53-4.67,4.91,4.9,7.14,6.51,5.85,2.53,4.33,3.9S33.63,98.18,29.1,90.22Z"/><path class="cls-14" d="M85.05,73.81a4.54,4.54,0,0,1,1.7,3,2.24,2.24,0,0,1-.64,1.75,4.31,4.31,0,0,1-1.52,1,4.76,4.76,0,0,1-3.5.07,5,5,0,0,1-2.52-2.27A6.19,6.19,0,0,0,81.28,79a4.57,4.57,0,0,0,3-.21c1-.35,1.85-1,1.86-2A5.52,5.52,0,0,0,85.05,73.81Z"/></g></g></svg>