<svg id="Layer_1" data-name="Layer 1" xmlns="http://www.w3.org/2000/svg" xmlns:xlink="http://www.w3.org/1999/xlink" viewBox="0 0 200 60"><defs><style>.cls-1{fill:none;}.cls-2{clip-path:url(#clip-path);}.cls-3{fill:#eb652f;}.cls-4{fill:#f6a42c;}.cls-5{fill:#fff18b;}.cls-6{fill:#281b17;}.cls-7{fill:#473a3a;}.cls-8{fill:#5e5454;}</style><clipPath id="clip-path"><path class="cls-1" d="M84.77,11s21.79-.09,26.15.18c0,0,7.77,5.58,1.88,10.15s-14.49,7.86-21.46,5.91S77.76,16.63,84.77,11Z"/></clipPath></defs><g class="cls-2"><path class="cls-3" d="M99.29,4.45c1.53.7,3.37,1.84,3.24,3.64s-2.17,2.52-2.28,4.35c-.1,1.56,2,2,2,2-.76-.9-.44-2.9,2.73-4.27a2,2,0,0,0-.57,2.7c.44.59,3.37,1.94,3.37,4.91S102.6,23,99.29,23s-10.41-1.28-10.41-5.21a5.84,5.84,0,0,1,.88-2.63c0,1,1.82,2.43,3.56,2.63-1.47-.9-3-2.46-2.1-4.65,1.33-3.37,6.93-5.2,8.2-6.29S99.29,4.45,99.29,4.45Z"/><path class="cls-4" d="M97,11.65c-2.1,2-1.53,2.64-.34,4.17s-1.61,3.12-2,4.21c-.47,1.32,1.86,3,4.62,3s4.34-1.86,4.34-3.47-2.14-2.91-5-4.18C94.91,13.79,97,11.65,97,11.65Z"/><path class="cls-5" d="M98.34,17.79c1.48.74,3.64,2,3.22,3.33S99.29,23,99.29,23c-.53-.15-2-.63-1.9-1.34s1.75-.91,2.11-1.6C100,19.13,98.34,17.79,98.34,17.79Z"/></g><path class="cls-6" d="M137.22,49c-2.28-1.57-22.12-12.39-22.63-12.69a4.49,4.49,0,0,1,.89-.34l1-1.19c.43.12,22,12.53,24.2,14Z"/><path class="cls-6" d="M63.14,49l-3.42-.21c1.74-1.25,21.06-14.59,21.54-14.71l3.4.61-.85.17C83.34,35.16,65,47.64,63.14,49Z"/><path class="cls-7" d="M77.23,25.27V35h42.65V24.5s-2.81-1.28-9.32-1.66a150.81,150.81,0,0,0-28,.51S78.5,23.61,77.23,25.27Z"/><ellipse class="cls-8" cx="98.55" cy="34.06" rx="21.33" ry="4.24"/><path class="cls-8" d="M118.77,29.82c.68,0,71.92-11,75.26-11.9"/><path class="cls-6" d="M118.77,30.91V29.82l-.08-1.08c.46,0,69.69-10.59,73.41-11.58l4.07,1.15C193.88,18.92,120.1,30.91,118.77,30.91Z"/><path class="cls-8" d="M79.1,28.79c-.68,0-64.58-10.29-72.18-10.39"/><path class="cls-6" d="M79.1,29.87c-.21,0-.89-.09-9.79-1.37-18.17-2.62-59.77-10-65.48-10.1l4.6-1.31c5.86.09,43,6.64,61.19,9.26,5.13.74,9.19,1.32,9.55,1.35Z"/></svg>