<svg id="Layer_1" data-name="Layer 1" xmlns="http://www.w3.org/2000/svg" viewBox="0 0 650 850"><defs><style>.cls-1{fill:#4a2a15;}.cls-2,.cls-8{fill:#fad2c6;}.cls-10,.cls-2,.cls-21,.cls-4,.cls-6,.cls-8,.cls-9{stroke:#323232;stroke-miterlimit:10;}.cls-2{stroke-width:0.25px;}.cls-3{fill:#e4a58c;}.cls-4{fill:#fccd3a;}.cls-10,.cls-21,.cls-4,.cls-6,.cls-9{stroke-width:0.5px;}.cls-5{fill:#be9030;}.cls-6{fill:#fbd3c7;}.cls-7{fill:#dc9e8f;}.cls-8{stroke-width:0.75px;}.cls-9{fill:#ffe57b;}.cls-10{fill:#e0604f;}.cls-11{fill:#f5927d;}.cls-12{fill:#fab51b;}.cls-13{fill:#f17125;}.cls-14{fill:#80351b;}.cls-15{fill:#75451c;}.cls-16{fill:#a66638;}.cls-17{fill:#925b24;}.cls-18{fill:#e69847;}.cls-19{fill:#5f2710;}.cls-20{fill:#fff;}.cls-21{fill:none;}</style></defs><polygon class="cls-1" points="263.97 621.3 251.42 759.86 249.24 759.84 261.83 621.3 263.97 621.3"/><polygon class="cls-1" points="371.54 621.16 384.54 759.86 386.72 759.84 373.68 621.16 371.54 621.16"/><path class="cls-2" d="M358,716.14a7.58,7.58,0,0,1-.95-3.24H344.46a5.86,5.86,0,0,1,.53,1.23,5.68,5.68,0,0,1-1.56,5.46l-.11.1,7.07,6s12.95-3.24,8.91-7.73A10.87,10.87,0,0,1,358,716.14Z"/><path class="cls-3" d="M350.54,712.9c-1.9.38-3.82.81-5.55,1.23a5.68,5.68,0,0,1-1.56,5.46A17,17,0,0,0,358,716.14a7.58,7.58,0,0,1-.95-3.24Z"/><path class="cls-4" d="M366.46,718.52c-.28.65,3.83,12.09,5.43,43.1L336.83,764s3.14-14.86,2.1-25.13l-2.39,3.39-2.36-1a10.09,10.09,0,0,1-4.44-3.52l-1.51-2.15s9.44-18.42,15.39-16.29l1.08.75a7.37,7.37,0,0,0,4.53,1.37c2.47-.09,6-1.1,8.73-5.34.69-1,6.5,1.65,6.5,1.65Z"/><path class="cls-5" d="M368.92,737.23s-21.82,7.5-29.38,2.61l.18,3.73s7.19,6.37,30-3.57Z"/><path class="cls-5" d="M370.51,743.57s-23.77,9.42-30.59,2.7l-.38,3.74s8.92,7,31.2-3.22Z"/><path class="cls-6" d="M305.83,745.13l-9.89,6.7-2.05-5.17,5.61-6-1.81-2.91-.89-1.43,5.54-5.82,1.83,2.43,2,2.66C308.28,738.34,308.68,743.18,305.83,745.13Z"/><path class="cls-7" d="M304.1,733a10.15,10.15,0,0,1-6.25,4.66l-1.05-1.39,5.54-5.82Z"/><path class="cls-6" d="M269.82,739.06c-.17,1.06-.43,2.4-.76,3.89-.21,1-.45,2-.7,3.14-1.53,6.44-3.66,14-4.56,15.16-1.28,1.67-4.19-2.13-4.19-2.13a98.15,98.15,0,0,1,1.55-15c.13-.8.26-1.55.39-2.24.54-3,1-5.05,1-5.05S270.77,733.11,269.82,739.06Z"/><path class="cls-7" d="M269.82,739.06c-.17,1.06-.59,2.47-.91,4-2.83,1.34-5.67-.16-7.23-1.11.55-3,.87-5.13.87-5.13S270.77,733.11,269.82,739.06Z"/><path class="cls-8" d="M287.57,721c-.55-1.14-.64-2.28.12-3h-9.63a.63.63,0,0,0-.28.74c.79,2.3-1.67,3.68-1.67,3.68l-.15.52-.49,1.64s2.27,2.35,2.63,2.13,11.93-2.32,10.36-4.29A7,7,0,0,1,287.57,721Z"/><path class="cls-7" d="M287.68,718h-9.62a.63.63,0,0,0-.28.74c.79,2.3-1.67,3.68-1.67,3.68l-.15.52a18.73,18.73,0,0,0,11.46-1.82A2.57,2.57,0,0,1,287.68,718Z"/><path class="cls-9" d="M298.74,726.26l4.88,5.11h0a10.55,10.55,0,0,1-6.13,5.89l-.72.26-2.25-4.35,1.79,25.59A15.16,15.16,0,0,1,282.47,766c-10.54-.33-15.65-6.33-15.65-6.33s3-20.41,3.24-23.36a.53.53,0,0,0,0-.13c.26-3.42-.41-5.49-3.3-7.35v-.8c-.74-.48-.47-1,.37-1.32L267,725.5a21.27,21.27,0,0,1,9.14-3.08h0s1.34,2.79,6.25,2.41,5.75-3.13,5.75-3.13l2,.24A14.2,14.2,0,0,1,298.74,726.26Z"/><path class="cls-10" d="M270.38,736.18c-.18.31,19,5.38,24.49-4.2l6.8,29s-17.41,14.24-35.06-.7Z"/><path class="cls-10" d="M276.11,722.42s-.81,13.63-.22,17.33L273.55,741l-1.63-2.46s.34-9.1,2.83-15.94Z"/><path class="cls-10" d="M288.46,721.7s.81,11.65.41,17.15l2.15,1.37,1.25-2.08s0-9.91-2.15-16.2Z"/><path class="cls-9" d="M267.25,725.33C265,726.56,261,739.08,261,740.61c0,.42,2.6,1.33,4.66,1.49a9.16,9.16,0,0,0,3.94-.66s.39-2.7.91-6.67"/><circle class="cls-11" cx="289.61" cy="753.39" r="2.44"/><circle class="cls-11" cx="289.52" cy="745.13" r="2.44"/><circle class="cls-11" cx="295.2" cy="749.39" r="2.44"/><circle class="cls-11" cx="273.39" cy="746.26" r="2.44"/><circle class="cls-11" cx="289.94" cy="761.56" r="2.44"/><circle class="cls-11" cx="280.71" cy="761.68" r="2.44"/><circle class="cls-11" cx="272.37" cy="759.38" r="2.44"/><circle class="cls-11" cx="296.89" cy="755.19" r="2.44"/><circle class="cls-11" cx="276.13" cy="752.97" r="2.44"/><circle class="cls-11" cx="283.45" cy="754.17" r="2.44"/><circle class="cls-11" cx="281.24" cy="746.51" r="2.44"/><circle class="cls-11" cx="285.41" cy="740.95" r="2.44"/><circle class="cls-11" cx="278.92" cy="740.96" r="2.44"/><ellipse class="cls-11" cx="294.52" cy="741.44" rx="2.44" ry="2.05" transform="translate(-455.77 1012.63) rotate(-88.21)"/><ellipse class="cls-11" cx="269.91" cy="753.97" rx="2.22" ry="1.87" transform="translate(-492.13 1000.17) rotate(-88.21)"/><ellipse class="cls-11" cx="297.3" cy="760.4" rx="2.22" ry="1.87" transform="translate(-472.03 1033.79) rotate(-88.21)"/><path class="cls-6" d="M291.39,749.23c-.87.23-2.88.59-2.76,1.75.05.48,1.87.14,3.61-.16a13.54,13.54,0,0,0,2.26-1c.1.13-.57.72-1.58,1.15-.54.23-2.55-.08-2.59,1.39,0,.25,2.47.2,3.05.18.93,0,5.37-2.83,5.59-3,.93-.93.65-3.43-.19-5-1-1.75-3.42-2.07-5.7-1.79a26.2,26.2,0,0,0-4.06,1.4c-2.93,2-4.4,2.77-4,3.3,1,1.28,3.36-.35,4.64-1a14.2,14.2,0,0,1,2.94-.87c.2.22-1.74.8-2.77,1.25-.83.43-3.61,2.11-3.25,2.62,1,1.36,1.94.16,4.2-.73a11.62,11.62,0,0,1,2.83-.58C293.56,748.34,293.05,748.52,291.39,749.23Z"/><path class="cls-12" d="M245.74,617.19l6.18-.27L274,616l21.19-.89L344.85,613l21.39-.89L392.17,611l2.63-.11s244.43-274.95,225-412.42C609.31,124.34,574,85.8,543.61,66l-.1-.07c-25.93-16.85-48.17-20.06-48.17-20.06a154.38,154.38,0,0,0-22.55-12h0c-32-13.74-59.28-12-73.4-9.42a69,69,0,0,0-10.32,2.5c-77.55-34.3-126.35-3.3-134.79,2.79-.88.65-1.33,1-1.33,1-35-11.86-66.49-5.86-86.47,1.09a117,117,0,0,0-22.41,10.26c-21.21,7.9-39,17.42-53.73,28.23l0,0a.26.26,0,0,0-.09.09C-110,218,245.74,617.19,245.74,617.19Z"/><path class="cls-13" d="M239.25,208.55c0,158.9,26.41,339.15,55.94,406.55L344.85,613c24.22-55.66,43.26-184.15,57.66-332.75,11.66-120.5,8-201.57-3.14-255.82a69,69,0,0,0-10.32,2.5c-77.55-34.3-126.35-3.3-134.79,2.79C245.06,74.79,239.25,134.08,239.25,208.55Z"/><path class="cls-13" d="M251.92,616.92,274,616C57.89,263.83,120,62.24,161.86,33.5L90.32,70.29l0,0s36.33-20.48,36.31-20.44C-81.59,195.93,192.5,545.13,251.92,616.92Z"/><path class="cls-13" d="M366.24,612.1,392.17,611c67.73-83.11,309.5-402.33,151.44-545l-.1-.07c-25.93-16.85-48.17-20.06-48.17-20.06-7.69-4.93,3.19.57-4.12-2.56C517,90.76,572.09,270.68,366.24,612.1Z"/><ellipse class="cls-14" cx="317.22" cy="612.79" rx="76.75" ry="13.37"/><path class="cls-15" d="M256.13,835.81h0c40.05,3.57,76,4.36,118.05,1.09h0c11.77-2,20.16-8,21-15.19l5.61-49.29H236L240.57,824C241.06,829.46,247.25,834.16,256.13,835.81Z"/><rect class="cls-16" x="371.42" y="777.71" width="16.34" height="2.86" rx="0.92" transform="translate(759.17 1558.28) rotate(-180)"/><rect class="cls-16" x="371.42" y="786.68" width="16.34" height="2.86" rx="0.92" transform="translate(759.17 1576.23) rotate(180)"/><rect class="cls-16" x="371.42" y="795.66" width="16.34" height="2.86" rx="0.92" transform="translate(759.17 1594.17) rotate(-180)"/><rect class="cls-16" x="371.42" y="804.63" width="16.34" height="2.86" rx="0.92" transform="translate(759.17 1612.12) rotate(180)"/><rect class="cls-16" x="371.42" y="813.6" width="16.34" height="2.86" rx="0.92" transform="translate(759.17 1630.07) rotate(180)"/><rect class="cls-16" x="371.42" y="822.58" width="16.34" height="2.86" rx="0.92" transform="translate(759.17 1648.02) rotate(180)"/><rect class="cls-16" x="346.9" y="777.71" width="16.34" height="2.86" rx="0.92" transform="translate(710.15 1558.28) rotate(-180)"/><rect class="cls-16" x="346.9" y="786.68" width="16.34" height="2.86" rx="0.92" transform="translate(710.15 1576.23) rotate(180)"/><rect class="cls-16" x="346.9" y="795.66" width="16.34" height="2.86" rx="0.92" transform="translate(710.15 1594.17) rotate(-180)"/><rect class="cls-16" x="346.9" y="804.63" width="16.34" height="2.86" rx="0.92" transform="translate(710.15 1612.12) rotate(-180)"/><rect class="cls-16" x="346.9" y="813.6" width="16.34" height="2.86" rx="0.92" transform="translate(710.15 1630.07) rotate(180)"/><rect class="cls-16" x="346.9" y="822.58" width="16.34" height="2.86" rx="0.92" transform="translate(710.15 1648.02) rotate(180)"/><rect class="cls-16" x="322.39" y="777.71" width="16.34" height="2.86" rx="0.92" transform="translate(661.13 1558.28) rotate(180)"/><rect class="cls-16" x="322.39" y="786.68" width="16.34" height="2.86" rx="0.92" transform="translate(661.13 1576.23) rotate(-180)"/><rect class="cls-16" x="322.39" y="795.66" width="16.34" height="2.86" rx="0.92" transform="translate(661.13 1594.17) rotate(-180)"/><rect class="cls-16" x="322.39" y="804.63" width="16.34" height="2.86" rx="0.92" transform="translate(661.13 1612.12) rotate(-180)"/><rect class="cls-16" x="322.39" y="813.6" width="16.34" height="2.86" rx="0.92" transform="translate(661.13 1630.07) rotate(-180)"/><rect class="cls-16" x="322.39" y="822.58" width="16.34" height="2.86" rx="0.92" transform="translate(661.13 1648.02) rotate(180)"/><rect class="cls-16" x="297.88" y="777.71" width="16.34" height="2.86" rx="0.92" transform="translate(612.1 1558.28) rotate(-180)"/><rect class="cls-16" x="297.88" y="786.68" width="16.34" height="2.86" rx="0.92" transform="translate(612.1 1576.23) rotate(180)"/><rect class="cls-16" x="297.88" y="795.66" width="16.34" height="2.86" rx="0.92" transform="translate(612.1 1594.17) rotate(180)"/><rect class="cls-16" x="297.88" y="804.63" width="16.34" height="2.86" rx="0.92" transform="translate(612.1 1612.12) rotate(180)"/><rect class="cls-16" x="297.88" y="813.6" width="16.34" height="2.86" rx="0.92" transform="translate(612.1 1630.07) rotate(180)"/><rect class="cls-16" x="297.88" y="822.58" width="16.34" height="2.86" rx="0.92" transform="translate(612.1 1648.02) rotate(-180)"/><rect class="cls-16" x="273.21" y="777.71" width="16.34" height="2.86" rx="0.92" transform="translate(562.76 1558.28) rotate(180)"/><rect class="cls-16" x="273.21" y="786.68" width="16.34" height="2.86" rx="0.92" transform="translate(562.76 1576.23) rotate(180)"/><rect class="cls-16" x="273.21" y="795.66" width="16.34" height="2.86" rx="0.92" transform="translate(562.76 1594.17) rotate(180)"/><rect class="cls-16" x="273.21" y="804.63" width="16.34" height="2.86" rx="0.92" transform="translate(562.76 1612.12) rotate(-180)"/><rect class="cls-16" x="273.21" y="813.6" width="16.34" height="2.86" rx="0.92" transform="translate(562.76 1630.07) rotate(-180)"/><rect class="cls-16" x="273.21" y="822.58" width="16.34" height="2.86" rx="0.92" transform="translate(562.76 1648.02) rotate(180)"/><rect class="cls-16" x="248.54" y="777.71" width="16.34" height="2.86" rx="0.92" transform="translate(513.43 1558.28) rotate(-180)"/><rect class="cls-16" x="248.54" y="786.68" width="16.34" height="2.86" rx="0.92" transform="translate(513.43 1576.23) rotate(180)"/><rect class="cls-16" x="248.54" y="795.66" width="16.34" height="2.86" rx="0.92" transform="translate(513.43 1594.17) rotate(180)"/><rect class="cls-16" x="248.54" y="804.63" width="16.34" height="2.86" rx="0.92" transform="translate(513.43 1612.12) rotate(-180)"/><rect class="cls-16" x="248.54" y="813.6" width="16.34" height="2.86" rx="0.92" transform="translate(513.43 1630.07) rotate(-180)"/><rect class="cls-16" x="248.54" y="822.58" width="16.34" height="2.86" rx="0.92" transform="translate(513.43 1648.02) rotate(180)"/><rect class="cls-17" x="221.36" y="760.26" width="193.08" height="12.88" rx="4.15" transform="translate(635.8 1533.4) rotate(-180)"/><rect class="cls-18" x="227.57" y="761.06" width="182.43" height="6.44" rx="3.22" transform="translate(637.57 1528.56) rotate(-180)"/><ellipse class="cls-19" cx="317.13" cy="612.94" rx="68.61" ry="10.97"/><path class="cls-4" d="M358,716.15c1.31-.79,11.54-3.11,19.6,20.44l-.78.62s-3.52,2.81-7.31,2.56l-1.37-.09-5-8.74"/><ellipse class="cls-6" cx="265.62" cy="759.41" rx="1.38" ry="2.91" transform="translate(-501.73 1001.15) rotate(-88.21)"/><ellipse class="cls-20" cx="260.54" cy="759.17" rx="0.33" ry="2.58" transform="translate(-524.99 923.93) rotate(-82.9)"/><path class="cls-6" d="M262.88,757.25c-1.71-.43-1.59,1.28-1.82,3.08s.23,3.34,1,3.44,1.59-1.29,1.82-3.09S263.64,757.44,262.88,757.25Z"/><path class="cls-6" d="M260.31,756.93c-2.56-.24-1.33,1.3-1.56,3.08s.12,3.28.76,3.36,1.33-1.3,1.56-3.08S261,757,260.31,756.93Z"/><path class="cls-6" d="M257.84,756.83c-2.4,0-1.45,1.24-1.67,3s.19,3.18.9,3.27,1.46-1.23,1.67-2.95S258.56,756.84,257.84,756.83Z"/><path class="cls-6" d="M255.56,757.4c-1.31-.21-1.45.89-1.61,2.23s.51,2.53,1,2.59,1-1,1.2-2.3S256.12,757.49,255.56,757.4Z"/><polygon class="cls-1" points="251.85 610.71 237.45 760.35 234.79 760.35 249.75 610.71 251.85 610.71"/><polygon class="cls-1" points="383.72 610.55 398.12 760.2 400.79 760.2 385.82 610.55 383.72 610.55"/><path class="cls-21" d="M339.72,740.16a25.06,25.06,0,0,1-1.49-10.95"/><path class="cls-6" d="M388.14,762.93a1.27,1.27,0,0,0,1.48.35,1,1,0,0,0,.46-1.39,3.17,3.17,0,0,0-.53-.57c-.42-.43-.64-1-1.08-1.45a2.51,2.51,0,0,0-1.62-.62,6.89,6.89,0,0,0-1.75.18,3.27,3.27,0,0,0,1.36,3A3.79,3.79,0,0,0,388.14,762.93Z"/><path class="cls-6" d="M388.85,764.87c-.86.13-1.32-.09-1.56-.4.06.61-.11,1.24-1.19,1-2-.4-1.72-2.86-5.43-3.26s-8.38.74-8.78-.61,1.67-1.45,1.92-1.49,2.05-.4,2.16-.86-2.41-6-2.61-13.69c0,0,.4,0,0-.45-.18-.21-1.83-2.4-2.92-3.93a15.59,15.59,0,0,1-1-1.43,6.76,6.76,0,0,0,3.89-.67,41.54,41.54,0,0,0,4.2-2.51l.53,1.38a44.63,44.63,0,0,0,1.73,4.13,14.39,14.39,0,0,1,1.64,4.37,79.72,79.72,0,0,1,.6,11s-1.1,0,1.54.67S390.91,764.57,388.85,764.87Z"/><path class="cls-3" d="M378,738.09a8.82,8.82,0,0,1-7.36,3.12,15.75,15.75,0,0,1-.89-1.3,8.51,8.51,0,0,0,4-.89,29.16,29.16,0,0,0,3.76-2.21Z"/><path class="cls-21" d="M375.54,759.59A2.2,2.2,0,0,1,378,758.5"/><path class="cls-21" d="M387.22,763.82a10.66,10.66,0,0,0-4.28-4"/><path class="cls-21" d="M373.25,745.58a6.13,6.13,0,0,1,5.45-1.32"/><path class="cls-21" d="M294.69,732.47a8.07,8.07,0,0,0-.2-6.05"/><path class="cls-21" d="M270.19,734.46l-.91-6.22"/></svg>