<svg id="Layer_1" data-name="Layer 1" xmlns="http://www.w3.org/2000/svg" viewBox="0 0 43.18 44.52"><defs><style>.cls-1,.cls-6{fill:#3d2d16;}.cls-1{stroke:#3d2d16;}.cls-1,.cls-3{stroke-miterlimit:10;stroke-width:0.25px;}.cls-2{fill:#fff;}.cls-3,.cls-9{fill:#fad2c6;}.cls-3{stroke:#323232;}.cls-4{fill:#dc9e8f;}.cls-5{fill:#e8d860;}.cls-7{fill:#a67d48;}.cls-8{fill:#ef4b3b;}.cls-10{fill:#323232;}.cls-11{fill:#f49990;}</style></defs><path class="cls-1" d="M34.07,37.92c-2,6.16-8.52,4.53-17.73,1.06-.22-.08-.71,3-.93,2.91C7.05,38.57,1.62,37.51,3.92,26.12c1.32-6.5,10.71-9.11,19.25-6.28S36.16,31.62,34.07,37.92Z"/><path class="cls-1" d="M35.16,26.3c.17.38,1.42,13.48-4.1,15.64-3.47,1.36-5.27,1.06-6.56.79Z"/><path class="cls-2" d="M24.91,38.17s2.86.3,3.83,2.43C27.88,40.9,27,41.31,24.91,38.17Z"/><path class="cls-3" d="M35,29.16c0-.05-.09,0-.05.06s.1,0,.14-.06a3.56,3.56,0,0,1,1.55-1,1.39,1.39,0,0,1,1.23.09A1.72,1.72,0,0,1,38.23,30a5.78,5.78,0,0,1-1.45,2.67A4.15,4.15,0,0,1,32.1,33.8"/><path class="cls-4" d="M36.26,30.15a5.59,5.59,0,0,0-.66.41c-.17.12-.35.32-.3.52s.24.25.27.43a.38.38,0,0,1-.32.37c-.16,0-.32,0-.49,0a.74.74,0,0,0-.55.45.48.48,0,0,0-.06.26.41.41,0,0,0,.42.39,1.21,1.21,0,0,0,.58-.21,4.81,4.81,0,0,0,1.17-.9C36.85,31.29,37.74,29.39,36.26,30.15Z"/><path class="cls-5" d="M33.25,33.12s-1.85,1.71-1,2.65S34,34.11,34,34.11s-1.21,1.9-1,.46Z"/><path class="cls-3" d="M38,23.9c-.17.19-2.6,7.58-3.57,11.1C33.26,39.13,27.9,43.41,23,42.81c-6-.74-11.14-3.66-13.07-8.73s-.43-11.47-.43-11.47-3.78-7.34,2.81-12S26.08,4.85,34.54,8.5,38,23.9,38,23.9Z"/><path class="cls-4" d="M15.39,18.75c.32-.09,7.6-4.68,7.6-4.68s-3.7,3-2,3c.48,0,4.87-1.21,6.5-2.71,0,0-1.06,2.6-2.59,2.82,0,0,6,1.66,8.72-2.68,0,0-1.23,2.35,3,5.36,3.25,2.34.45,6.45.45,6.45L39.94,17l-3.32-4.87L26.91,9.61l-8.47.93L14.3,16.62l-4.82,6Z"/><path class="cls-1" d="M36.53,28c.35-1.33.94-5.39.42-6.67-1.06-2.57-2.8-3.24-3.74-4.24-.61-.64-.08-3-.58-3.68s-.05.94,0,0c-.64,1.33-.59,2.29-2,2.78a10.51,10.51,0,0,1-4.1.51,6.17,6.17,0,0,0,2-1.91,11.9,11.9,0,0,0,.85-2.91,15.89,15.89,0,0,1-8.62,4.7,7.35,7.35,0,0,0,2.86-4,2.53,2.53,0,0,0-1.27.62,46.91,46.91,0,0,1-6.9,4.62c0-.4-.13-.77-.1-1.17-1.39,2.52-6.16,6.85-6.11,6.7,0,0-3.14,12.66,5.11,18.22,0,0-3,0-7.49-2.46-4.73-2.59-6.9-8.09-2.92-15.82S6.26,12,9.42,7.43c3.77-5.37,14.49-11,27.77.76,0,0,6.63,3.83,1.34,16.74A31.47,31.47,0,0,1,36.53,28Z"/><path class="cls-6" d="M32.09,21.35s2.57-.15,3.47,1.87a.08.08,0,0,0,.16,0,2.13,2.13,0,0,0-1.53-2.31C31.83,20,32.09,21.35,32.09,21.35Z"/><path class="cls-6" d="M22.58,19.37s-2.71-.95-4.37.67c-.07.07-.19,0-.17-.07a2.3,2.3,0,0,1,2.44-1.71C23.31,18.19,22.58,19.37,22.58,19.37Z"/><path class="cls-7" d="M27.64,27.83a2.57,2.57,0,0,0-.37,1.83,3,3,0,0,0,.34.85,2.4,2.4,0,0,1,.41,1,1.29,1.29,0,0,1-.42,1.09,1.63,1.63,0,0,1-1.07.39,2.81,2.81,0,0,1-1.91-.8l0,0a1.19,1.19,0,0,1-.55-.44.47.47,0,0,1-.06-.35.57.57,0,0,1,.17-.28.45.45,0,0,0,0,.55,1,1,0,0,0,.51.26h0l0,0a2.77,2.77,0,0,0,1.73.54,1,1,0,0,0,1-1,2.14,2.14,0,0,0-.31-.83,2.57,2.57,0,0,1-.3-1A2.32,2.32,0,0,1,27.64,27.83Z"/><path class="cls-8" d="M38.79,9.61a16.94,16.94,0,0,0-5.94-2.89c-10.22-2.7-21,4.53-24,16.14-.06.22-.12.45-.17.67q-.51-.26-1.05-.48.11-.5.24-1C10.88,10.45,21.65,3.23,31.87,5.92A17,17,0,0,1,38.79,9.61Z"/><path class="cls-9" d="M9.2,23.88s.07.08,0,.08-.09-.07-.11-.13A3.77,3.77,0,0,0,8,22.14a1.89,1.89,0,0,0-1.32-.58,1.63,1.63,0,0,0-1.33,1.29,5,5,0,0,0,.07,3.07,5.21,5.21,0,0,0,4.28,3.5"/><path class="cls-10" d="M9.2,23.88s.07.05,0,.08a.09.09,0,0,1-.11-.05A1,1,0,0,1,9,23.7a3.17,3.17,0,0,0-.21-.41,3.8,3.8,0,0,0-.54-.71,2.25,2.25,0,0,0-1.45-.83,1.3,1.3,0,0,0-1.15.94A4.48,4.48,0,0,0,5.4,24.4a5.36,5.36,0,0,0,4.31,5A4.44,4.44,0,0,1,7.9,29a5.39,5.39,0,0,1-1.52-1.12A5.25,5.25,0,0,1,4.9,24.41a4.63,4.63,0,0,1,.34-1.9,2.11,2.11,0,0,1,.6-.83,1.35,1.35,0,0,1,1-.31,2.49,2.49,0,0,1,1.61,1.05,3.93,3.93,0,0,1,.48.81c.06.15.12.3.16.44a1.16,1.16,0,0,0,.06.22.07.07,0,0,0,.08.05S9.24,23.85,9.2,23.88Z"/><path class="cls-4" d="M7.33,24.05a4.08,4.08,0,0,1,.47.7c.11.19.2.46,0,.61s-.38.08-.5.22,0,.38.13.49.35.15.51.26a.76.76,0,0,1,.34.68.5.5,0,0,1-.08.26.54.54,0,0,1-.65.11,1.47,1.47,0,0,1-.49-.5,5.23,5.23,0,0,1-.74-1.4C6.11,24.7,6.2,22.59,7.33,24.05Z"/><path class="cls-5" d="M8.87,28.21s1,2.47-.42,2.8-.85-2.33-.85-2.33.24,2.28.76.91Z"/><path class="cls-8" d="M12.4,9.65s-7.28.41-4.93,4,6.44,5,7-2.13C14.82,7.1,16,10.45,16,10.45s9.11-2,3-6.41C13.28,0,14.36,8.12,14.36,8.12S12.54,6.78,12.4,9.65Z"/><ellipse class="cls-11" cx="16.48" cy="3.72" rx="0.56" ry="0.65" transform="translate(8.54 18.63) rotate(-74.68)"/><ellipse class="cls-11" cx="9.21" cy="11.25" rx="0.56" ry="0.65" transform="translate(-4.08 17.16) rotate(-74.68)"/><ellipse class="cls-11" cx="8.1" cy="12.93" rx="0.56" ry="0.65" transform="translate(-6.51 17.33) rotate(-74.68)"/><ellipse class="cls-11" cx="10.96" cy="12.65" rx="0.56" ry="0.65" transform="translate(-4.14 19.88) rotate(-74.68)"/><ellipse class="cls-11" cx="13.06" cy="12.15" rx="0.56" ry="0.65" transform="translate(-2.1 21.54) rotate(-74.68)"/><ellipse class="cls-11" cx="12.42" cy="14.67" rx="0.56" ry="0.65" transform="translate(-5.01 22.77) rotate(-74.68)"/><ellipse class="cls-11" cx="10.01" cy="14.64" rx="0.56" ry="0.65" transform="translate(-6.76 20.43) rotate(-74.68)"/><ellipse class="cls-11" cx="11.44" cy="10.77" rx="0.56" ry="0.65" transform="translate(-1.97 18.96) rotate(-74.68)"/><ellipse class="cls-11" cx="15.06" cy="5.72" rx="0.56" ry="0.65" transform="translate(5.56 18.73) rotate(-74.68)"/><ellipse class="cls-11" cx="19.51" cy="6.63" rx="0.56" ry="0.65" transform="translate(7.96 23.7) rotate(-74.68)"/><ellipse class="cls-11" cx="18.81" cy="4.58" rx="0.56" ry="0.65" transform="translate(9.42 21.51) rotate(-74.68)"/><ellipse class="cls-11" cx="17.16" cy="5.99" rx="0.56" ry="0.65" transform="translate(6.85 20.95) rotate(-74.68)"/><ellipse class="cls-11" cx="15.78" cy="7.45" rx="0.56" ry="0.65" transform="translate(4.43 20.7) rotate(-74.68)"/><ellipse class="cls-11" cx="17.89" cy="8.17" rx="0.56" ry="0.65" transform="translate(5.28 23.27) rotate(-74.68)"/><ellipse class="cls-11" cx="16.38" cy="9.04" rx="0.56" ry="0.65" transform="translate(3.33 22.45) rotate(-74.68)"/><ellipse class="cls-8" cx="14.22" cy="9.8" rx="1.51" ry="2.02" transform="translate(-2.85 12.39) rotate(-43.19)"/></svg>