<svg id="Layer_1" data-name="Layer 1" xmlns="http://www.w3.org/2000/svg" viewBox="0 0 12.76 7.1"><defs><style>.cls-1{fill:#8c3e36;}.cls-2{fill:#fff;}.cls-3{fill:#d26653;}.cls-4{fill:#f5968e;}.cls-5{fill:#f48678;}.cls-6{fill:#e9a597;opacity:0.5;}</style></defs><g id="EE"><path class="cls-1" d="M12.13,3.07s-2-.13-2.38-.18c-.56-.06-1.14-.14-1.69-.25-1-.21-1.93-.39-2.88-.59A9.15,9.15,0,0,1,3.8,1.64a4.59,4.59,0,0,0-1.21-.37,3,3,0,0,0-.77,0L.81.68a3.9,3.9,0,0,0,.4,1.62c.13.29.41.78.54,1.07.47,1.07,1.68,1.49,3,1.93a8.1,8.1,0,0,0,2.23.39,4.13,4.13,0,0,0,1.49,0c.17-.06.25,0,.41-.09s.79-.16,1-.34.6-.35.86-.56S12.13,3.07,12.13,3.07Z"/><path class="cls-2" d="M10.33,3.18,9.26,2.81c-.07,0-3-.52-3-.52s-2.89-.74-3-.74S2,1.36,2,1.36a7,7,0,0,0,.33.9A10.29,10.29,0,0,0,6,3.7,10.49,10.49,0,0,0,9.68,4,2.27,2.27,0,0,0,10.33,3.18Z"/><path class="cls-3" d="M3.46,4.68a3.91,3.91,0,0,0,2.2.93A4.63,4.63,0,0,0,8,5.56c0-.33-1-.84-1.6-.83S5.06,4.4,4.66,4.39,3.67,4.42,3.46,4.68Z"/><path class="cls-2" d="M9.65,5.19s-1.09,0-1.67,0S5.88,5,5.88,5,4.46,4.66,4,4.5L2.15,3.8,3.84,5.64l1.77.51h0l.15,0v0l1.82.22Z"/><path class="cls-4" d="M12.13,3.07A8.85,8.85,0,0,1,9.65,5.19a6.54,6.54,0,0,1-4.09.61A6.44,6.44,0,0,1,1.9,3.37,6.87,6.87,0,0,1,.81.68s0,5,4.55,6C9.49,7.5,12.13,3.07,12.13,3.07Z"/><path class="cls-5" d="M6.3,2.2C4.16,1.77.81.68.81.68s.77,1,5.42,1.94c5.35,1.13,5.9.45,5.9.45S8.49,2.63,6.3,2.2Z"/><path class="cls-6" d="M.81.4C1.05.23.79.15.6.32A1.13,1.13,0,0,0,.39.93,5.93,5.93,0,0,1,.81.4Z"/><path class="cls-6" d="M12,2.77c-.21-.2.06-.24.22,0s0,.6,0,.6C12.13,2.87,12.09,2.84,12,2.77Z"/></g></svg>