<svg xmlns="http://www.w3.org/2000/svg" viewBox="0 0 101.76 85.17"><defs><style>.cls-1{isolation:isolate;}.cls-2{fill:#5c5548;}.cls-3{fill:#424036;}.cls-4{fill:#fad2c6;stroke:#323232;stroke-width:0.25px;}.cls-4,.cls-7{stroke-miterlimit:10;}.cls-5{fill:#e4a58c;}.cls-6{fill:#421b16;}.cls-7{fill:#311415;stroke:#211e1f;stroke-width:0.5px;}.cls-8{fill:#90856e;}.cls-9{fill:#605e44;}.cls-10,.cls-13{fill:#9e9580;opacity:0.5;}.cls-10,.cls-12{mix-blend-mode:multiply;}.cls-11,.cls-12{fill:#676254;}.cls-12{opacity:0.4;}.cls-13{mix-blend-mode:screen;}.cls-14{fill:#c28974;}</style></defs><g class="cls-1"><g id="Layer_1" data-name="Layer 1"><path class="cls-2" d="M12.21,44.66a24.55,24.55,0,0,0-4.12,5.78c-2.38,4.24-6.9,15.91-6.15,19.7S24.76,62,54.1,48.31,92.82,25.24,92.3,23.48s-10.79-5.83-20.72-6.27S50,21.68,36.17,28.12A94.27,94.27,0,0,0,12.21,44.66Z"/><path class="cls-3" d="M32.59,30.11A95.82,95.82,0,0,0,12.34,44.79a24,24,0,0,0-4.1,5.75C5.77,54.93,1.38,66.47,2.11,70.11a.6.6,0,0,0,.3.41C4.7,71.75,17,65.82,34.09,57.62c6-2.88,12.79-6.15,19.93-9.48,4.89-2.28,9.49-4.56,13.65-6.78C87.28,30.91,92.46,24.63,92.13,23.53c-.49-1.66-10.75-5.71-20.54-6.14-10.07-.44-22,4.68-35.34,10.9C35,28.85,33.81,29.46,32.59,30.11Z"/><path class="cls-4" d="M70.71,27c.77.66,2.18,1.45,2,3.78C71.61,43.27,72.93,46.49,74,61c.79,10.73-8.25,20.86-18.3,21.69-12.36,1-27.47-1.2-33.15-24.4C20,48.07,15,37.69,16.06,33.85c3.45-13,9.88-12.19,25.32-13.38C55.82,19.35,62,19.42,70.71,27Z"/><path class="cls-5" d="M73,45.7S67.42,26.44,58.83,32.14c-9.37,6.21-14.82,3-18.7,5.21-8.49,4.92-14.49,21.58-20.66,13.4s16-27.12,16-27.12S58,14,59.71,14.19s12,10.27,12,10.27Z"/><path class="cls-6" d="M62.7,38.59a.74.74,0,0,1-1-.82l0-.22c.19-1.19,1.72-1.64,2.65-1.55,1.42.14,3.46.23,5.52,3.6.17.28-.1.67-.34.49C68.16,39,65.25,37.67,62.7,38.59Z"/><path class="cls-6" d="M44.23,40.83a.74.74,0,0,0,.87-.95L45,39.67c-.35-1.16-1.92-1.4-2.84-1.18-1.39.34-3.4.7-5,4.32-.13.3.19.65.4.44C38.88,42,41.58,40.26,44.23,40.83Z"/><path class="cls-7" d="M59.37,24.55s.73,12.59-20.71,9.29c0,0,20.66-9.08-2.26-8.27,0,0,5.11,6.5-10,5.49,0,0,11.86,7.1-2.33,21,0,0-2.82,1.23-1.16,8.43.12.52.26,1.07.43,1.65,2.51,8.67-.31-1.13-.31-1.13s-8.47-.65-9.46-10.35c0,0-7.39-6.24-3.19-15.35,0,0-5.38-11.25,7.87-15.32,0,0,2.13-12.15,10.38-12.56,0,0,10.78-10.22,20.89-1,0,0,8.94-4.11,16.13,6.27,0,0,8.89,3.62,7.56,11.4,0,0,7.22,3.32,1.56,9.88,0,0,5.84,4.2-.29,9.59l-1.43,7.26L73,45.7A23.55,23.55,0,0,0,60,24.84Z"/><path class="cls-8" d="M71.58,17.21C61.67,16.78,50,21.68,36.17,28.12a94.27,94.27,0,0,0-24,16.54,24.55,24.55,0,0,0-4.12,5.78c-2.38,4.24-6.9,15.91-6.15,19.7-.19-2.63,6.39-17,45-35.35,25.21-12,39.28-13.22,44.92-11.9C89.74,20.94,80.52,17.6,71.58,17.21Z"/><path class="cls-9" d="M92,23.05a.13.13,0,0,1-.12,0C88.71,22.34,76.26,21,47,35c-3.41,1.62-6.69,3.27-9.76,4.9C7.41,55.77,2,67.79,2.11,70.13a.16.16,0,0,1-.14.19.19.19,0,0,1-.2-.15c-.79-4,4-15.88,6.17-19.82a24.67,24.67,0,0,1,4.15-5.83A96.51,96.51,0,0,1,32.42,29.8c1.22-.66,2.46-1.28,3.67-1.84C49.51,21.71,61.45,16.59,71.59,17c8.93.39,18.18,3.71,20.38,5.73A.18.18,0,0,1,92,23,.23.23,0,0,1,92,23.05Z"/><path class="cls-10" d="M13.77,51.42c.71-4.6,3.74-8.85,6.47-12.22a52.61,52.61,0,0,1,3.62-4,92.21,92.21,0,0,0-11.65,9.43,24.55,24.55,0,0,0-4.12,5.78c-2.38,4.24-6.9,15.91-6.15,19.7-.11-1.6,2.26-7.5,12.75-16A3.07,3.07,0,0,1,13.77,51.42Z"/><path class="cls-10" d="M55.58,20.58a59.79,59.79,0,0,1,10.54-.41c2.66.15,6.08.87,7.25,3.91a3.5,3.5,0,0,1,.17.55c9.17-2.41,15.11-2.49,18.32-1.74-2.12-1.95-11.34-5.29-20.28-5.68C65.62,17,59,18.62,51.69,21.4A30.94,30.94,0,0,1,55.58,20.58Z"/><path class="cls-8" d="M7.82,48.27s-7.5-12,2.75-28.39C21.68,2.16,43.17.69,50.34,2S66.57,8.72,70.87,15.8c0,0-22.61,6.52-32.32,11.46S12.12,42.45,7.82,48.27Z"/><path class="cls-9" d="M36.22,28.27c.78-.41,1.53-.81,2.24-1.17,9.11-4.63,29.79-10.73,32.13-11.41C66.07,8.41,57,3.38,50.32,2.17c-5-.9-15.83-.35-25.58,4.84a36.53,36.53,0,0,0-14,13c-9.31,14.85-3.82,26.22-2.89,28C12.23,42.27,27.16,33.11,36.22,28.27Z"/><path class="cls-10" d="M58.47,12.45c-.54,3.64-3.21,6.15-5.73,8.13-.87.69-1.77,1.33-2.69,1.94C60,19,70.87,15.8,70.87,15.8c-4-6.54-12-11.68-18.88-13.44C55.6,4.25,59.13,8,58.47,12.45Z"/><path class="cls-10" d="M26.05,32.38c-3.95,1-8.36,1.93-12.6,1C9.78,32.64,7.68,30.65,6.68,28c-4,12.05,1.14,20.23,1.14,20.23,3.52-4.76,15.36-12.49,24.87-17.85C30.5,31.15,28.28,31.83,26.05,32.38Z"/><path class="cls-11" d="M37.44,25.37c7.83-4.05,30.27-11.51,33.06-11.08a14.53,14.53,0,0,1,1.64,3.09c0,.63-11.82,1.45-30.83,10.67-25,12.14-32.22,21.64-32.8,22.07S6.83,47.38,6.9,46.78,14.71,37.14,37.44,25.37Z"/><path class="cls-3" d="M72.12,17.64a13.94,13.94,0,0,1-2.27.6,121.07,121.07,0,0,0-28.45,10c-2.29,1.11-4.53,2.24-6.65,3.38C26.81,35.83,15.88,42.44,9,49.84a6,6,0,0,1-.42.43l0,0a.4.4,0,0,1-.45-.07,6.7,6.7,0,0,1-1.39-3.47c.08-.58,7.6-9.64,30.63-21.55,7.67-4,30.29-11.54,33.16-11.09h.08l.05.07c.17.25,1.65,2.52,1.66,3.18A.28.28,0,0,1,72.12,17.64Z"/><path class="cls-12" d="M70.5,14.29c-1.58-.24-9.47,2.05-17.43,4.81.29,0,.58-.09.89-.16,8.15-1.77,3.2,1.38-2.72,3.47a124.26,124.26,0,0,0-20.33,9.3C22.53,36.38,19,36,25.66,32.08A12.56,12.56,0,0,0,27,31.21C12.27,40,7,46.3,6.9,46.78s1,3.78,1.61,3.34,7.81-9.93,32.8-22.07c19-9.22,30.84-10,30.83-10.67A14.53,14.53,0,0,0,70.5,14.29Z"/><path class="cls-13" d="M17.69,50.11s13.66-12,51.53-25.72C69.22,24.39,38,32.2,17.69,50.11Z"/><path class="cls-4" d="M24.67,64.06c-2.13-5.08-4.82-6.79-7.62-5.85-3,1-3.48,3.48-1.9,7.7,2,5.41,9.15,7.55,12.5,5.21"/><path class="cls-5" d="M16.86,63.74S15.08,61,18.53,60.45s3.08,4.2,4.55,5.65,4.05,2.56,2.77,3.4S19.3,70.17,16.86,63.74Z"/><path class="cls-14" d="M60.28,58a3.21,3.21,0,0,1,1.1,2.41,1.9,1.9,0,0,1-.72,1.37,3.39,3.39,0,0,1-1.33.6A3.57,3.57,0,0,1,56.61,62a3.47,3.47,0,0,1-1.54-2.12A5.3,5.3,0,0,0,57,61.27a3.51,3.51,0,0,0,2.15.13c.73-.15,1.34-.46,1.49-1.1A4.39,4.39,0,0,0,60.28,58Z"/></g></g></svg>