<svg id="Layer_1" data-name="Layer 1" xmlns="http://www.w3.org/2000/svg" viewBox="0 0 28 17"><defs><style>.cls-1{fill:#8c3e36;}.cls-2{fill:#fff;}.cls-3{fill:#d26653;}.cls-4{fill:#f5968e;}.cls-5{fill:#f48678;}.cls-6{fill:#e9a597;opacity:0.5;}</style></defs><g id="EE"><path class="cls-1" d="M23.76,6.91s-3.34-.12-4-.18a25.34,25.34,0,0,1-2.87-.38l-4.9-1a11.75,11.75,0,0,1-2.34-.72A7.66,7.66,0,0,0,7.56,4,4.74,4.74,0,0,0,6.25,4L4.52,3a9.17,9.17,0,0,0,.77,3.22c.24.58.75,1.52,1,2.11.86,2.1,2.92,2.85,5.09,3.63a11.78,11.78,0,0,0,3.8.63,6.33,6.33,0,0,0,2.5-.19c.29-.13.42,0,.68-.2s1.33-.39,1.66-.77,1-.74,1.41-1.18C22,9.59,23.76,6.91,23.76,6.91Z"/><path class="cls-2" d="M20.74,7.27,18.9,6.6c-.11,0-5.09-.81-5.09-.81s-4.92-1.27-5-1.26-2.16-.28-2.16-.28A15.47,15.47,0,0,0,7.23,6c.33.48,3.21,2,6.21,2.61s5.87.57,6.25.31A4.63,4.63,0,0,0,20.74,7.27Z"/><path class="cls-3" d="M9.24,10.78c.82.84,1.59,1.25,3.77,1.7a6.57,6.57,0,0,0,4-.27c0-.67-1.74-1.61-2.75-1.56s-2.33-.54-3-.53S9.57,10.25,9.24,10.78Z"/><path class="cls-2" d="M19.71,11.34s-1.83.19-2.81.16-3.56-.3-3.56-.3-2.41-.53-3.19-.82C9.21,10,7,9.12,7,9.12l3,3.55,3,.91h0l.25.07V13.6l3.08.31Z"/><path class="cls-4" d="M23.76,6.91a16.23,16.23,0,0,1-4.05,4.43,9.53,9.53,0,0,1-6.85,1.54,10.76,10.76,0,0,1-6.33-4.6A15.26,15.26,0,0,1,4.52,3s.36,10,8.05,11.58C19.6,16,23.76,6.91,23.76,6.91Z"/><path class="cls-5" d="M13.87,5.6A93.58,93.58,0,0,1,4.52,3s1.35,1.86,9.27,3.48c9.09,1.86,10,.46,10,.46S17.59,6.31,13.87,5.6Z"/><path class="cls-6" d="M4.51,2.41c.39-.36-.06-.5-.36-.15a2.61,2.61,0,0,0-.32,1.25A11.64,11.64,0,0,1,4.51,2.41Z"/><path class="cls-6" d="M23.57,6.33c-.38-.39.07-.5.36-.13S24,7.4,24,7.4C23.75,6.51,23.69,6.45,23.57,6.33Z"/></g></svg>