<svg id="Layer_1" data-name="Layer 1" xmlns="http://www.w3.org/2000/svg" viewBox="0 0 62.59 69.55"><defs><style>.cls-1,.cls-6{fill:#3d2d16;}.cls-1{stroke:#3d2d16;}.cls-1,.cls-3,.cls-8{stroke-miterlimit:10;}.cls-2{fill:#fff;}.cls-3,.cls-9{fill:#fad2c6;}.cls-3{stroke:#323232;stroke-width:0.5px;}.cls-4{fill:#dc9e8f;}.cls-5{fill:#e8d860;}.cls-7{fill:#a67d48;}.cls-8{fill:#ad6428;stroke:#c77929;stroke-width:0.75px;}.cls-10{fill:#323232;}.cls-11{fill:#ef4b3b;}.cls-12{fill:#f49990;}</style></defs><path class="cls-1" d="M54.91,56.59C53.39,64.31,46.12,67.49,35.55,67c-.56,0-.73-2.1-1.21-2.34a28.26,28.26,0,0,0-7-3.06c-.3-.07-3.19,3.89-3.5,3.81-13.67-3.51-19.49-3-18.16-21.16C6.41,33.82,20.51,27.9,34.36,30.62S56.91,46.37,54.91,56.59Z"/><path class="cls-1" d="M54.31,38.28c.34.56,4.2,19.64-3.29,25.17-11.89,8.79-17.7,1.7-17.74,1.7Z"/><path class="cls-2" d="M40.71,58.8s4.5-.11,6.44,3C45.86,62.46,44.58,63.27,40.71,58.8Z"/><path class="cls-3" d="M54.6,42.78c0-.08-.13.06-.05.1s.14-.05.19-.12A5.57,5.57,0,0,1,57,40.9a2.21,2.21,0,0,1,1.92-.1,2.66,2.66,0,0,1,.92,2.64,8.9,8.9,0,0,1-1.72,4.44c-1.66,2.23-4.55,3.58-7.06,2.7"/><path class="cls-4" d="M56.78,44.07a7.53,7.53,0,0,0-1,.76c-.23.22-.48.57-.36.88s.43.33.5.6a.59.59,0,0,1-.42.65c-.25.07-.51,0-.76.08a1.17,1.17,0,0,0-.77.8.8.8,0,0,0,0,.43.65.65,0,0,0,.72.52,1.78,1.78,0,0,0,.87-.45,7.91,7.91,0,0,0,1.64-1.63C57.92,45.72,58.94,42.58,56.78,44.07Z"/><path class="cls-5" d="M52.69,49.29s-2.54,3-1,4.31S54,50.68,54,50.68s-1.51,3.2-1.4.9Z"/><path class="cls-3" d="M58.19,34c-.23.33-2.55,12.31-3.35,18-1,6.65-8.44,14.39-16.22,14.42-9.54,0-18.06-3.48-22.08-11s-2.93-17.77-2.93-17.77S6.26,27,15.59,18.46,35.91,6.7,49.81,10.7,58.19,34,58.19,34Z"/><path class="cls-4" d="M22,30.46c.48-.21,10.91-8.8,10.91-8.8s-5.18,5.42-2.5,5.13c.75-.09,7.33-2.85,9.58-5.5,0,0-1.14,4.26-3.48,4.9,0,0,9.61,1.4,13-5.9,0,0-1.44,3.89,5.68,7.75,5.52,3,2,10,2,10L59.9,22.93,53.76,16l-15.6-2.06-13,3.13-5.23,10.3L13.61,37.64Z"/><path class="cls-1" d="M56.78,40.68c.27-2.15.39-8.58-.68-10.46-2.15-3.79-5-4.5-6.66-5.87-1.07-.87-.71-4.58-1.64-5.6s.12,1.47,0,0c-.73,2.19-.46,3.67-2.52,4.72A16.59,16.59,0,0,1,39,25.06a9.81,9.81,0,0,0,2.67-3.35,18.84,18.84,0,0,0,.75-4.7,25,25,0,0,1-12.48,9,11.61,11.61,0,0,0,3.66-6.76,3.82,3.82,0,0,0-1.86,1.21,73.55,73.55,0,0,1-9.83,8.57c0-.63-.36-1.18-.39-1.81-1.65,4.2-8.22,11.88-8.17,11.63,0,0-3,17.65,11,24.67,0,0-4.06,3.27-11.54.34C4.9,60.8.42,52.67,5.09,39.84S6.46,21.68,10.5,14C15.29,4.92,30.86-6,53.87,9.7c0,0,11.07,4.64,5.41,25.78C59.28,35.48,56.69,41.37,56.78,40.68Z"/><path class="cls-6" d="M48.54,31.19s4-.74,5.77,2.23a.14.14,0,0,0,.25-.08A3.35,3.35,0,0,0,51.72,30C47.88,29.17,48.54,31.19,48.54,31.19Z"/><path class="cls-6" d="M33.35,30s-4.41-.95-6.67,1.92c-.09.11-.29,0-.27-.09.1-.9.67-2.72,3.45-3.15C34.26,28,33.35,30,33.35,30Z"/><path class="cls-7" d="M42.9,42.16a4.06,4.06,0,0,0-.13,2.9,4.27,4.27,0,0,0,.69,1.23c.14.16.31.39.5.64a2.75,2.75,0,0,1,.36.86,2.08,2.08,0,0,1-.46,1.88,2.64,2.64,0,0,1-1.64.84A4.38,4.38,0,0,1,39,49.6l.09,0a1.92,1.92,0,0,1-1-.6.76.76,0,0,1-.15-.56,1,1,0,0,1,.23-.48.68.68,0,0,0,.15.83,1.6,1.6,0,0,0,.83.29h0l.07,0a4.45,4.45,0,0,0,2.75.46A1.43,1.43,0,0,0,43.37,48a2.16,2.16,0,0,0-.22-.58c-.12-.18-.23-.37-.41-.62a4.23,4.23,0,0,1-.66-1.56A3.62,3.62,0,0,1,42.9,42.16Z"/><path class="cls-8" d="M56.64,11.58a26.78,26.78,0,0,0-9.81-3.32C30.38,6.1,15.05,19.48,12.58,38.16c0,.36-.09.72-.12,1.08-.57-.2-1.14-.38-1.73-.53,0-.53.1-1.06.17-1.59C13.37,18.44,28.7,5.05,45.15,7.22A26.86,26.86,0,0,1,56.64,11.58Z"/><path class="cls-9" d="M13.41,39.68c0-.08.14.1,0,.11s-.16-.09-.19-.17a6.08,6.08,0,0,0-2-2.42A3,3,0,0,0,9,36.56a2.59,2.59,0,0,0-1.81,2.28A7.9,7.9,0,0,0,8,43.6a8.2,8.2,0,0,0,7.36,4.6"/><path class="cls-10" d="M13.41,39.68c.05-.06.13.06.07.11a.16.16,0,0,1-.18-.06,2.48,2.48,0,0,1-.18-.31,6.17,6.17,0,0,0-.39-.6,6.45,6.45,0,0,0-1-1,3.63,3.63,0,0,0-2.47-1.06,2.15,2.15,0,0,0-1.73,1.76,6.8,6.8,0,0,0-.08,2.77,8.12,8.12,0,0,0,2.67,4.84,8,8,0,0,0,5.17,2.11,7.09,7.09,0,0,1-2.88-.37,8.85,8.85,0,0,1-2.55-1.45A8.37,8.37,0,0,1,7,41.33a7.1,7.1,0,0,1,.13-3A3.3,3.3,0,0,1,7.84,37a2,2,0,0,1,1.41-.67,4,4,0,0,1,2.67,1.26,6.66,6.66,0,0,1,.92,1.14c.13.21.24.42.35.64a2.52,2.52,0,0,0,.14.33.12.12,0,0,0,.14.06S13.46,39.62,13.41,39.68Z"/><path class="cls-4" d="M10.55,40.3a9.07,9.07,0,0,1,.86,1c.21.28.4.69.17,1s-.58.2-.74.44,0,.6.3.74.57.17.84.3a1.18,1.18,0,0,1,.67,1,.87.87,0,0,1-.07.42.83.83,0,0,1-1,.3,2.28,2.28,0,0,1-.86-.68,8.42,8.42,0,0,1-1.44-2C8.76,41.57,8.48,38.26,10.55,40.3Z"/><path class="cls-5" d="M13.77,46.48s2.07,3.64-.11,4.43-1.78-3.45-1.78-3.45.82,3.5,1.36,1.26Z"/><path class="cls-11" d="M15.57,16.89S4.32,19,8.71,24.16s11,6.5,10.47-4.69c-.35-7,2.12-2,2.12-2s13.79-4.94,3.36-10.57c-9.64-5.22-6.34,7.26-6.34,7.26S15.21,12.4,15.57,16.89Z"/><ellipse class="cls-12" cx="20.74" cy="6.85" rx="0.88" ry="1.03" transform="translate(11.05 26.42) rotate(-81.95)"/><ellipse class="cls-12" cx="10.92" cy="20.02" rx="0.88" ry="1.03" transform="translate(-10.43 28.02) rotate(-81.95)"/><ellipse class="cls-12" cx="9.54" cy="22.84" rx="0.88" ry="1.03" transform="translate(-14.42 29.09) rotate(-81.95)"/><ellipse class="cls-12" cx="13.93" cy="21.85" rx="0.88" ry="1.03" transform="translate(-9.65 32.58) rotate(-81.95)"/><ellipse class="cls-12" cx="17.1" cy="20.64" rx="0.88" ry="1.03" transform="translate(-5.74 34.68) rotate(-81.95)"/><ellipse class="cls-12" cx="16.6" cy="24.69" rx="0.88" ry="1.03" transform="matrix(0.14, -0.99, 0.99, 0.14, -10.17, 37.67)"/><ellipse class="cls-12" cx="12.84" cy="25.14" rx="0.88" ry="1.03" transform="translate(-13.85 34.33) rotate(-81.95)"/><ellipse class="cls-12" cx="14.3" cy="18.83" rx="0.88" ry="1.03" transform="translate(-6.34 30.35) rotate(-81.95)"/><ellipse class="cls-12" cx="18.93" cy="10.25" rx="0.88" ry="1.03" transform="translate(6.13 27.56) rotate(-81.95)"/><ellipse class="cls-12" cx="26.04" cy="10.78" rx="0.88" ry="1.03" transform="translate(11.72 35.05) rotate(-81.95)"/><ellipse class="cls-12" cx="24.54" cy="7.73" rx="0.88" ry="1.03" transform="translate(13.45 30.94) rotate(-81.95)"/><ellipse class="cls-12" cx="22.25" cy="10.25" rx="0.88" ry="1.03" transform="matrix(0.14, -0.99, 0.99, 0.14, 8.99, 30.84)"/><ellipse class="cls-12" cx="20.4" cy="12.79" rx="0.88" ry="1.03" transform="translate(4.88 31.2) rotate(-81.95)"/><ellipse class="cls-12" cx="23.82" cy="13.5" rx="0.88" ry="1.03" transform="translate(7.12 35.2) rotate(-81.95)"/><ellipse class="cls-12" cx="21.64" cy="15.15" rx="0.88" ry="1.03" transform="translate(3.61 34.45) rotate(-81.95)"/><ellipse class="cls-11" cx="18.44" cy="16.76" rx="2.37" ry="3.16" transform="translate(-6.22 20.31) rotate(-50.46)"/></svg>