<svg xmlns="http://www.w3.org/2000/svg" viewBox="0 0 70.19 56.41"><defs><style>.cls-1{isolation:isolate;}.cls-2{fill:#5c5548;}.cls-3{fill:#424036;}.cls-4{fill:#fad2c6;stroke:#323232;}.cls-4,.cls-7{stroke-miterlimit:10;stroke-width:0.25px;}.cls-5{fill:#e4a58c;}.cls-6{fill:#421b16;}.cls-7{fill:#311415;stroke:#211e1f;}.cls-8{fill:#90856e;}.cls-9{fill:#605e44;}.cls-10,.cls-13{fill:#9e9580;opacity:0.5;}.cls-10,.cls-12{mix-blend-mode:multiply;}.cls-11,.cls-12{fill:#676254;}.cls-12{opacity:0.4;}.cls-13{mix-blend-mode:screen;}.cls-14{fill:#c28974;}</style></defs><g class="cls-1"><g id="Layer_1" data-name="Layer 1"><path class="cls-2" d="M12,23a16.25,16.25,0,0,0-3.68,2.91C6.06,28.13,1.06,34.7.84,37.23s16-1,37.05-4.23,28.78-7.49,28.77-8.7-5.76-5.68-12-7.78-14.49-1.14-24.44.39A62.46,62.46,0,0,0,12,23Z"/><path class="cls-3" d="M27.61,17.52a63.57,63.57,0,0,0-15.53,5.57A16.38,16.38,0,0,0,8.43,26C6.06,28.3,1.16,34.81.94,37.25a.42.42,0,0,0,.13.31c1.21,1.2,10.12-.28,22.43-2.34,4.33-.73,9.24-1.54,14.37-2.34,3.52-.55,6.85-1.15,9.9-1.78,14.34-3,18.78-6.05,18.78-6.81,0-1.13-5.77-5.59-11.89-7.66-6.3-2.13-14.77-1.08-24.39.4C29.4,17.17,28.5,17.33,27.61,17.52Z"/><path class="cls-4" d="M52.34,22.55a2.59,2.59,0,0,1,.55,2.76c-3,7.72-2.73,10-4.73,19.39-1.48,6.94-9.06,11.7-15.58,10.37-8-1.63-17.18-5.81-16.52-21.55.3-6.93-1-14.43.39-16.68C21,9.26,25,10.94,35,13,44.31,15,48.19,16.14,52.34,22.55Z"/><path class="cls-5" d="M50.33,34.82s0-13.23-6.47-11.19c-7.08,2.21-9.93-.85-12.8-.14-6.28,1.55-13.15,11-15.55,4.69S30.6,13.93,30.6,13.93s16-1.94,17.12-1.52,5.7,8.72,5.7,8.72Z"/><path class="cls-6" d="M45.13,28.43a.5.5,0,0,1-.48-.71l.07-.13c.34-.72,1.39-.72,2-.49.88.35,2.15.78,2.83,3.29.06.21-.18.41-.3.25A5.21,5.21,0,0,0,45.13,28.43Z"/><path class="cls-6" d="M33,26.45a.5.5,0,0,0,.73-.45v-.14c0-.8-1-1.24-1.59-1.27a4.11,4.11,0,0,0-3.94,1.82c-.14.17,0,.45.17.35A5.22,5.22,0,0,1,33,26.45Z"/><path class="cls-7" d="M45.6,18.92S43.75,27,30.77,21c0,0,14.76-1.95.1-5.65,0,0,2,5.06-7.33,1.64,0,0,6.2,6.68-5.35,12.89,0,0-2,.26-2.28,5.13,0,.35,0,.72,0,1.12,0,6,0-.77,0-.77s-5.25-2-4.09-8.3a8.69,8.69,0,0,1,.8-10.31s-1.33-8.12,7.81-8.25c0,0,3.58-7.31,8.88-6.05,0,0,8.71-4.5,13.43,3.18,0,0,6.42-1,9.06,6.94,0,0,5,3.93,2.7,8.61,0,0,4,3.43-.83,6.54,0,0,2.93,3.74-1.95,6l-2.24,4.33.87-3.25a15.54,15.54,0,0,0-4.4-15.61Z"/><path class="cls-8" d="M54.69,16.52c-6.2-2.1-14.49-1.14-24.44.39A62.46,62.46,0,0,0,12,23a16.25,16.25,0,0,0-3.68,2.91C6.06,28.13,1.06,34.7.84,37.23c.36-1.7,7.16-9.57,35-14.11,18.18-3,27.32-1.15,30.65.72C65.51,22.22,60.28,18.41,54.69,16.52Z"/><path class="cls-9" d="M66.52,24a.11.11,0,0,1-.08,0c-1.85-1-9.49-4.16-30.58-.71-2.45.4-4.83.84-7.08,1.31C6.94,29.14,1.27,35.75.94,37.26a.1.1,0,0,1-.12.1.14.14,0,0,1-.1-.14C1,34.54,6.14,27.89,8.28,25.8A15.42,15.42,0,0,1,12,22.88a63.27,63.27,0,0,1,15.58-5.6c.9-.19,1.79-.35,2.67-.49,9.65-1.48,18.15-2.53,24.5-.39,5.58,1.89,10.83,5.69,11.86,7.38a.16.16,0,0,1,0,.15Z"/><path class="cls-10" d="M11.77,27.55c1.3-2.78,4-4.92,6.35-6.55,1-.67,2-1.28,3-1.85A61.38,61.38,0,0,0,12,23a16.25,16.25,0,0,0-3.68,2.91C6.06,28.13,1.06,34.7.84,37.23c.22-1,2.8-4.33,11-7.77A2,2,0,0,1,11.77,27.55Z"/><path class="cls-10" d="M43.93,15.7a39.69,39.69,0,0,1,6.75,1.69c1.66.58,3.7,1.67,3.88,3.8,0,.13,0,.26,0,.38,6.25.16,10,1.21,11.92,2.27-1-1.62-6.21-5.43-11.8-7.32-3.73-1.27-8.22-1.42-13.37-1A20.56,20.56,0,0,1,43.93,15.7Z"/><path class="cls-8" d="M8.58,24.46S6,15.47,15.55,7C25.84-2.2,39.73.82,44,3s9,7.25,10.46,12.52c0,0-15.51,0-22.58,1.32S12.38,21.57,8.58,24.46Z"/><path class="cls-9" d="M30.25,17l1.64-.33c6.62-1.26,20.84-1.32,22.45-1.32C52.81,9.92,48,5.07,44,3.07,41,1.6,34-.06,26.89,1.43A24.3,24.3,0,0,0,15.62,7.08C7,14.78,8.38,23,8.65,24.26,12.48,21.47,23.62,18.41,30.25,17Z"/><path class="cls-10" d="M47.25,11.09c-1,2.2-3.16,3.3-5.12,4.09-.68.28-1.37.52-2.06.74,6.94-.44,14.42-.43,14.42-.43C53.18,10.61,49,5.88,45,3.5,47,5.36,48.5,8.36,47.25,11.09Z"/><path class="cls-10" d="M23.05,17.75c-2.68-.09-5.65-.31-8.17-1.66a5.67,5.67,0,0,1-3.3-4.65c-4.73,6.9-3,13-3,13,3.11-2.36,12-5.09,19-6.73C26.09,17.79,24.57,17.81,23.05,17.75Z"/><path class="cls-11" d="M31.56,15.41c5.7-1.13,21.29-1.73,23-.94A9.69,9.69,0,0,1,55,16.72c-.11.4-7.75-1.25-21.49,1.1C15.45,20.91,9.13,25.59,8.68,25.76s-.56-2.05-.4-2.41S15,18.68,31.56,15.41Z"/><path class="cls-3" d="M55,16.89a9.87,9.87,0,0,1-1.55,0,79.7,79.7,0,0,0-19.86,1.08c-1.65.29-3.28.6-4.83.92-5.81,1.22-13.95,3.4-19.64,6.83a2.81,2.81,0,0,1-.35.2h0a.27.27,0,0,1-.27-.13,4.44,4.44,0,0,1-.24-2.46c.15-.34,6.59-4.7,23.36-8,5.59-1.1,21.32-1.74,23-.93l.05,0,0,0a9,9,0,0,1,.47,2.33C55.09,16.86,55,16.88,55,16.89Z"/><path class="cls-12" d="M54.54,14.47c-1-.45-6.38-.45-11.93-.16a5.54,5.54,0,0,0,.6.06c5.49.38,1.77,1.46-2.36,1.7a81.38,81.38,0,0,0-14.6,2.15c-6.16,1.42-8.32.56-3.39-.73a9.47,9.47,0,0,0,1-.31C12.92,20.06,8.4,23.06,8.28,23.35s0,2.59.4,2.41,6.77-4.85,24.84-7.94c13.74-2.35,21.38-.7,21.49-1.1A9.69,9.69,0,0,0,54.54,14.47Z"/><path class="cls-13" d="M14.5,27.44s10.86-5.08,37.37-6.81C51.87,20.63,30.66,19.83,14.5,27.44Z"/><path class="cls-4" d="M16.35,37.57c-.41-3.62-1.81-5.19-3.75-5.11C10.5,32.54,9.75,34,10,37c.29,3.8,4.41,6.46,7,5.59"/><path class="cls-5" d="M11.46,35.93s-.61-2.1,1.66-1.78S14.3,37.38,15,38.57s2.1,2.36,1.13,2.66S11.83,40.45,11.46,35.93Z"/><path class="cls-14" d="M40,40.28a2.21,2.21,0,0,1,.19,1.7,1.16,1.16,0,0,1-.68.69,2.24,2.24,0,0,1-.91.13A2.34,2.34,0,0,1,37,42.06a2.37,2.37,0,0,1-.62-1.58,3.15,3.15,0,0,0,.89,1.31,2.36,2.36,0,0,0,1.38.51,1.16,1.16,0,0,0,1.21-.48A2.89,2.89,0,0,0,40,40.28Z"/></g></g></svg>