<svg id="Layer_1" data-name="Layer 1" xmlns="http://www.w3.org/2000/svg" viewBox="0 0 14.63 8.89"><defs><style>.cls-1{fill:#551514;}.cls-2{fill:#d72b5d;}.cls-3{fill:#fff;}.cls-4{fill:#bb7757;}.cls-5{fill:#dc9e8f;}</style></defs><g id="S"><path class="cls-1" d="M13.12,4.56,10,4.61A11.43,11.43,0,0,1,6.92,4a16.49,16.49,0,0,1-2.78-.93c-.29-.19-2.9-1.77-2.9-1.77s.37,1.72.5,2.38A5.53,5.53,0,0,0,2.28,5,4.19,4.19,0,0,0,4.22,7,11.67,11.67,0,0,0,8.33,8a15.34,15.34,0,0,0,3.1-1.61C11.73,6.15,13.12,4.56,13.12,4.56Z"/><path class="cls-2" d="M9.25,6.12a3.73,3.73,0,0,0-1.66-.68A18.52,18.52,0,0,0,5.25,5a3.11,3.11,0,0,0-.44-.07H4.49c-.08,0-.27.18-.27.18-.34.25-.08.76.12.93a3.68,3.68,0,0,0,1.45.5,16,16,0,0,0,2.53.52c.26,0,.74.19,1,0A.6.6,0,0,0,9.25,6.12Z"/><path class="cls-3" d="M11.32,5,7,4.19,2.84,2.74a4.35,4.35,0,0,0,.25.87A4.31,4.31,0,0,0,4.27,4.7,14.8,14.8,0,0,0,9.15,5.93a2.68,2.68,0,0,0,1.67-.55C11,5.25,11.32,5,11.32,5Z"/><path class="cls-3" d="M10,7.46a3,3,0,0,0-.53-.66c-.62-.41-1.67-.1-2.9-.42S4.5,5.44,3.78,5.55A3.75,3.75,0,0,0,3,5.87l.73.92L6.27,7.92,8.55,7.8Z"/><path class="cls-4" d="M13.24,4.41a13.72,13.72,0,0,1-2.75,2.06A6.53,6.53,0,0,1,6.22,7a6.39,6.39,0,0,1-3-1.9,13.51,13.51,0,0,1-2-4,1.4,1.4,0,0,0,0,.23A10.23,10.23,0,0,0,2.28,5.05,6,6,0,0,0,6,8.08a5.42,5.42,0,0,0,4.87-1,9.61,9.61,0,0,0,2.37-2.39S13.24,4.41,13.24,4.41Z"/><path class="cls-4" d="M13.27,4.27a9.92,9.92,0,0,1-3.07.29A21.7,21.7,0,0,1,4.29,3a12.17,12.17,0,0,1-3.13-2l.08.26A9,9,0,0,0,3.62,3.37,16.89,16.89,0,0,0,7,4.73a17.12,17.12,0,0,0,3.6.47,5.53,5.53,0,0,0,2.6-.74Z"/><path class="cls-5" d="M1,.57C1.28.38,1,.27.75.46a1.38,1.38,0,0,0-.27.73S.9.64,1,.57Z"/><path class="cls-5" d="M13.81,3.94c-.24-.25.08-.29.26-.06s0,.73,0,.73C13.93,4.06,13.89,4,13.81,3.94Z"/></g></svg>