<svg id="Layer_1" data-name="Layer 1" xmlns="http://www.w3.org/2000/svg" viewBox="0 0 46.2 47.46"><defs><style>.cls-1,.cls-6{fill:#3d2d16;}.cls-1{stroke:#3d2d16;}.cls-1,.cls-3{stroke-miterlimit:10;stroke-width:0.25px;}.cls-2{fill:#fff;}.cls-3,.cls-9{fill:#fad2c6;}.cls-3{stroke:#323232;}.cls-4{fill:#dc9e8f;}.cls-5{fill:#e8d860;}.cls-7{fill:#a67d48;}.cls-8{fill:#ef4b3b;}.cls-10{fill:#323232;}.cls-11{fill:#f49990;}</style></defs><path class="cls-1" d="M36,39.55c-1.84,6.77-8.81,6.4-19,3.07-.1,0-.33,2.36-.43,2.33-9.1-3-15.12-3.9-13.34-16.17,1-7,10.86-10.34,20.12-7.83S37.82,32.72,36,39.55Z"/><path class="cls-1" d="M36.44,27.11c.2.39,1.92,13.54-3.44,16.91-2.62,1.64-7.65,1.52-7.67,1.52Z"/><path class="cls-2" d="M26.23,40.36s3.06.15,4.22,2.37C29.55,43.09,28.64,43.58,26.23,40.36Z"/><path class="cls-3" d="M36.42,30.17c0-.06-.09,0,0,.06s.1,0,.14-.06A3.8,3.8,0,0,1,38.12,29a1.47,1.47,0,0,1,1.31,0,1.79,1.79,0,0,1,.49,1.83,6,6,0,0,1-1.38,2.92,4.42,4.42,0,0,1-4.91,1.5"/><path class="cls-4" d="M37.84,31.15a5.15,5.15,0,0,0-.68.47c-.17.14-.36.36-.29.58s.27.24.31.43a.39.39,0,0,1-.31.42c-.17,0-.35,0-.52,0a.78.78,0,0,0-.57.51.7.7,0,0,0,0,.29.44.44,0,0,0,.46.38,1.22,1.22,0,0,0,.61-.26A5.8,5.8,0,0,0,38,33C38.53,32.33,39.37,30.24,37.84,31.15Z"/><path class="cls-5" d="M34.81,34.49s-1.87,1.93-.86,2.88,1.68-1.87,1.68-1.87-1.18,2.1-1,.54Z"/><path class="cls-3" d="M39.28,24.38c-.17.22-2.32,8.23-3.14,12-1,4.47-6.41,9.35-11.69,9C18,45,12.37,42.19,10,36.9S8.87,24.71,8.87,24.71,4.41,17.12,11.14,11.8s14.34-7,23.58-3.61S39.28,24.38,39.28,24.38Z"/><path class="cls-4" d="M14.93,20.25c.34-.12,7.82-5.44,7.82-5.44S19,18.23,20.81,18.16c.51,0,5.11-1.57,6.76-3.27,0,0-1,2.84-2.6,3.16,0,0,6.45,1.42,9.13-3.37,0,0-1.16,2.57,3.48,5.53,3.6,2.29.87,6.84.87,6.84L41,17l-3.83-5L26.66,9.82l-9,1.5-4.05,6.73L8.87,24.71Z"/><path class="cls-1" d="M38,28.85c.29-1.44.68-5.8,0-7.12-1.28-2.68-3.17-3.29-4.24-4.3-.69-.65-.26-3.15-.84-3.88s0,1,0,0C32.37,15,32.48,16,31,16.63a11.58,11.58,0,0,1-4.33.78,6.74,6.74,0,0,0,2-2.15,13.27,13.27,0,0,0,.74-3.15,17,17,0,0,1-8.91,5.52,7.89,7.89,0,0,0,2.81-4.41A2.65,2.65,0,0,0,22,14a49.59,49.59,0,0,1-7.07,5.33c0-.43-.19-.81-.18-1.24-1.32,2.76-6.15,7.66-6.1,7.49,0,0-1.62,13.89,7.5,19.32A23.93,23.93,0,0,1,7,42.47C1.85,40-.79,34.27,3,25.8S4.8,13.55,7.9,8.55c3.69-5.94,14.77-12.62,29.62-.84,0,0,7.28,3.68,2.42,17.74A32.79,32.79,0,0,1,38,28.85Z"/><path class="cls-6" d="M32.87,22s2.73-.31,3.81,1.79a.09.09,0,0,0,.17,0,2.27,2.27,0,0,0-1.77-2.37C32.52,20.62,32.87,22,32.87,22Z"/><path class="cls-6" d="M22.63,20.48s-2.95-.85-4.62,1c-.07.07-.2,0-.18-.07a2.46,2.46,0,0,1,2.5-2C23.34,19.18,22.63,20.48,22.63,20.48Z"/><path class="cls-7" d="M28.51,29.19a2.75,2.75,0,0,0-.29,2,2.89,2.89,0,0,0,.41.89,2.34,2.34,0,0,1,.49,1,1.31,1.31,0,0,1-.38,1.17,1.72,1.72,0,0,1-1.09.48A3,3,0,0,1,25.57,34l0,0a1.19,1.19,0,0,1-.61-.42.55.55,0,0,1-.09-.37.76.76,0,0,1,.16-.31.51.51,0,0,0,0,.59,1.14,1.14,0,0,0,.56.25h0l0,0a3,3,0,0,0,1.88.48,1,1,0,0,0,1-1.12,2.08,2.08,0,0,0-.39-.87,2.9,2.9,0,0,1-.37-1.07A2.49,2.49,0,0,1,28.51,29.19Z"/><path class="cls-8" d="M39.31,9.11a18.4,18.4,0,0,0-6.5-2.72C21.76,4.13,10.72,12.47,8.15,25c-.05.24-.09.48-.14.72-.37-.16-.75-.31-1.14-.44.06-.36.12-.71.19-1.07C9.63,11.68,20.67,3.34,31.72,5.6A18.19,18.19,0,0,1,39.31,9.11Z"/><path class="cls-9" d="M8.64,26.09c0-.05.09.07,0,.07s-.1-.06-.12-.12A4.22,4.22,0,0,0,7.28,24.3a2.05,2.05,0,0,0-1.45-.54,1.76,1.76,0,0,0-1.34,1.46,5.31,5.31,0,0,0,.26,3.26A5.54,5.54,0,0,0,9.52,32"/><path class="cls-10" d="M8.64,26.09s.08,0,0,.07a.09.09,0,0,1-.11,0c-.05-.08-.07-.16-.11-.23a2.55,2.55,0,0,0-.23-.43,4.42,4.42,0,0,0-.61-.76A2.56,2.56,0,0,0,6,23.83,1.51,1.51,0,0,0,4.67,25a4.82,4.82,0,0,0-.18,1.89,5.49,5.49,0,0,0,1.59,3.44A5.4,5.4,0,0,0,9.52,32a5,5,0,0,1-1.93-.4A6.07,6.07,0,0,1,6,30.43a5.8,5.8,0,0,1-1.72-3.54,4.78,4.78,0,0,1,.24-2A1.66,1.66,0,0,1,6,23.67a2.6,2.6,0,0,1,1.73.95,4.09,4.09,0,0,1,.57.81,4.54,4.54,0,0,1,.21.45,2.18,2.18,0,0,0,.09.23.08.08,0,0,0,.1,0S8.68,26.05,8.64,26.09Z"/><path class="cls-4" d="M6.67,26.37a7.51,7.51,0,0,1,.54.72c.13.2.24.48.07.65s-.41.11-.53.26,0,.41.17.52.38.14.56.24a.79.79,0,0,1,.4.71.53.53,0,0,1-.07.28.56.56,0,0,1-.68.15,1.46,1.46,0,0,1-.55-.5A5.68,5.68,0,0,1,5.7,28C5.4,27.14,5.37,24.88,6.67,26.37Z"/><path class="cls-5" d="M8.56,30.72s1.22,2.56-.29,3-1-2.43-1-2.43.39,2.41.86.92Z"/><path class="cls-8" d="M11.2,10.74s-7.73.87-5,4.6,7.16,4.93,7.32-2.68c.11-4.78,1.54-1.28,1.54-1.28s9.59-2.69,2.79-7C11.56.37,13.2,9,13.2,9S11.18,7.67,11.2,10.74Z"/><ellipse class="cls-11" cx="15.19" cy="4.17" rx="0.6" ry="0.7" transform="translate(7.92 18.15) rotate(-77.89)"/><ellipse class="cls-11" cx="7.9" cy="12.63" rx="0.6" ry="0.7" transform="translate(-6.11 17.7) rotate(-77.89)"/><ellipse class="cls-11" cx="6.82" cy="14.48" rx="0.6" ry="0.7" transform="translate(-8.77 18.12) rotate(-77.89)"/><ellipse class="cls-11" cx="9.85" cy="14.02" rx="0.6" ry="0.7" transform="translate(-5.92 20.71) rotate(-77.89)"/><ellipse class="cls-11" cx="12.06" cy="13.35" rx="0.6" ry="0.7" transform="translate(-3.53 22.34) rotate(-77.89)"/><ellipse class="cls-11" cx="11.52" cy="16.08" rx="0.6" ry="0.7" transform="translate(-6.61 23.97) rotate(-77.89)"/><ellipse class="cls-11" cx="8.95" cy="16.2" rx="0.6" ry="0.7" transform="translate(-8.76 21.55) rotate(-77.89)"/><ellipse class="cls-11" cx="10.25" cy="11.99" rx="0.6" ry="0.7" transform="translate(-3.62 19.49) rotate(-77.89)"/><ellipse class="cls-11" cx="13.8" cy="6.4" rx="0.6" ry="0.7" transform="translate(4.65 18.55) rotate(-77.89)"/><ellipse class="cls-11" cx="18.6" cy="7.1" rx="0.6" ry="0.7" transform="translate(7.75 23.79) rotate(-77.89)"/><ellipse class="cls-11" cx="17.72" cy="4.95" rx="0.6" ry="0.7" transform="translate(9.16 21.24) rotate(-77.89)"/><ellipse class="cls-11" cx="16.05" cy="6.55" rx="0.6" ry="0.7" transform="translate(6.28 20.87) rotate(-77.89)"/><ellipse class="cls-11" cx="14.67" cy="8.19" rx="0.6" ry="0.7" transform="translate(3.59 20.82) rotate(-77.89)"/><ellipse class="cls-11" cx="16.96" cy="8.84" rx="0.6" ry="0.7" transform="translate(4.76 23.57) rotate(-77.89)"/><ellipse class="cls-11" cx="15.4" cy="9.85" rx="0.6" ry="0.7" transform="translate(2.54 22.84) rotate(-77.89)"/><ellipse class="cls-8" cx="13.15" cy="10.78" rx="1.61" ry="2.15" transform="translate(-3.73 12.87) rotate(-46.4)"/></svg>