<svg id="Layer_1" data-name="Layer 1" xmlns="http://www.w3.org/2000/svg" viewBox="0 0 87.95 72.51"><defs><style>.cls-1{fill:#fad2c6;stroke:#5f4a43;}.cls-1,.cls-3{stroke-miterlimit:10;}.cls-2{fill:#e7b4a7;}.cls-3{fill:#fcde7d;stroke:#323232;}</style></defs><path class="cls-1" d="M62.14,27.13c-11.08,6.14-18.3,15.69-28.79,21.51-2.82,1.56-7.7,5.14-11.13,6L18,43.48a34.6,34.6,0,0,1,8.47-7.41c7.93-5.27,19-10.31,29.59-17C57.08,18.45,63.2,26.54,62.14,27.13Z"/><path class="cls-1" d="M51.78,21.69c-.38-1.94-.51-8.09-1.08-15.42-.09-1.17,2.37-.33,3.09,1.09,1.55,3.05,1.08,4.22,2,5.72s2.22,1,3.47-.1c4.55-7,6.42-11.46,8.92-11.19,2,.55-.47,5.77-3.54,11.53,5.44-4.55,10.18-7.75,11.14-6.16,1.15,1.89-3.47,5.9-7.34,9.93,5.37-.65,10.75-2.84,11.09,0,.25,2.06-10.83,4.71-9.76,6.37.38.59,1.46.73,3.14,1,1.45.23,3.64.51,4.44,1.29s0,1.7-1.73,2c-2.79.54-9.15,1.53-12.33,1.79-1.86.28-3.4.66-5.07,0"/><path class="cls-1" d="M56.66,13.88c.31.09,4.58.86,3.3,6.67"/><path class="cls-2" d="M30,49.91c-2.82,1.56-3.23,2.49-6.67,3.38l-6-8.9A34.35,34.35,0,0,1,25.78,37C27.26,39.72,29.46,48.36,30,49.91Z"/><path class="cls-3" d="M2.72,48.44,21,38.4s5,6,5,16.68L9,70.73"/></svg>