<svg id="Layer_1" data-name="Layer 1" xmlns="http://www.w3.org/2000/svg" viewBox="0 0 17.38 10.68"><defs><style>.cls-1{fill:#bb7757;}.cls-2{fill:#765a47;}.cls-3{fill:#dc9e8f;}</style></defs><g id="neutral"><path class="cls-1" d="M15.65,3.33c.11-.11-2.22,3.39-5.39,4.48a12,12,0,0,1-7-.2c-.12-.23,2.84.41,6.56-.85A38.61,38.61,0,0,0,15.65,3.33Z"/><path class="cls-1" d="M15.76,3.18c-.08-.16-3.1,2.26-6.25,3.36s-6.47.87-6.43,1a12.35,12.35,0,0,0,6.67-.35A14.8,14.8,0,0,0,15.76,3.18Z"/><path class="cls-2" d="M3,7.57A17.91,17.91,0,0,0,10,7.14a14.2,14.2,0,0,0,5.7-3.93A15.72,15.72,0,0,1,10,7.14,16.24,16.24,0,0,1,3,7.57Z"/><path class="cls-3" d="M2.74,7.11c0-.46-.29-.24-.26.15a2.23,2.23,0,0,0,.5.91S2.74,7.26,2.74,7.11Z"/><path class="cls-3" d="M15.74,2.61c-.33-.3,0-.39.28-.09a1.49,1.49,0,0,1,.17.94C15.89,2.76,15.84,2.71,15.74,2.61Z"/></g></svg>