<svg id="Layer_1" data-name="Layer 1" xmlns="http://www.w3.org/2000/svg" viewBox="0 0 25.79 15.04"><defs><style>.cls-1{fill:#8c3e36;}.cls-2{fill:#d26653;}.cls-3{fill:#fff;}.cls-4{fill:#f5968e;}.cls-5{fill:#f48678;}.cls-6{fill:#e9a597;opacity:0.5;}</style></defs><g id="S"><path class="cls-1" d="M23.7,2.4s-3.91,2.39-4.9,3a21,21,0,0,1-5.23,1.69,30.24,30.24,0,0,1-5,1c-.6,0-6.1-.13-6.1-.13s2.18,2.16,2.9,3a8.8,8.8,0,0,0,1.86,1.44,7.11,7.11,0,0,0,4.57,1.29,20.88,20.88,0,0,0,7.16-1.86c.5-.23,3.16-4.22,3.47-5S23.7,2.4,23.7,2.4Z"/><path class="cls-2" d="M18.83,8.21a7,7,0,0,0-3.09.39A39.53,39.53,0,0,0,11.8,9.91a6.39,6.39,0,0,0-.73.27c-.17.09-.31.29-.51.26l-.27.49c-.33.65.49,1.19.94,1.26a6.51,6.51,0,0,0,2.63-.47,29,29,0,0,0,4.3-1.35c.42-.18,1.3-.33,1.51-.81A1,1,0,0,0,18.83,8.21Z"/><path class="cls-3" d="M20.73,4.57l-6.84,3-7.68.79A6.34,6.34,0,0,0,7.67,9.7a4.59,4.59,0,0,0,2.34.46A26.31,26.31,0,0,0,18.5,7.9a4.28,4.28,0,0,0,2.12-2.24A5.59,5.59,0,0,0,20.73,4.57Z"/><path class="cls-3" d="M21.09,9.54a4.3,4.3,0,0,0-1.39-.67c-1.28-.1-2.66,1.2-4.8,1.75s-4.22.47-5.24,1.24a2.7,2.7,0,0,0-.61,1.19l1.86.75,4.78-.44,3.42-2.09Z"/><path class="cls-4" d="M23.68,1.88a27.56,27.56,0,0,1-2.6,6.05c-.85,1.43-3.65,3.36-6.24,4a9.89,9.89,0,0,1-6.43-.25A31.09,31.09,0,0,1,2.35,7.49l.1.38a20.76,20.76,0,0,0,4.88,4.81c2.66,2,5.34,1.87,8,1.18a9.58,9.58,0,0,0,6.91-5.72,16.54,16.54,0,0,0,1.54-5.88S23.68,1.88,23.68,1.88Z"/><path class="cls-5" d="M23.68,1.88a18.13,18.13,0,0,1-4.63,3.24A37,37,0,0,1,9,7.71a30.82,30.82,0,0,1-6.66-.22,4.58,4.58,0,0,0,.38.36,14.83,14.83,0,0,0,5.18.74,30.69,30.69,0,0,0,6.32-.84,31.23,31.23,0,0,0,5.92-2.31c1.56-.92,3.3-2.39,3.49-3C23.65,2.41,23.68,1.88,23.68,1.88Z"/><path class="cls-6" d="M1.47,7c.28-.53-.27-.44-.46,0a2.33,2.33,0,0,0,.17,1.31A11.93,11.93,0,0,1,1.47,7Z"/><path class="cls-6" d="M23.85,1.25c-.57-.17.16-.56.62-.37S24.82,2,24.82,2C24.13,1.33,24,1.31,23.85,1.25Z"/></g></svg>