<svg id="Layer_1" data-name="Layer 1" xmlns="http://www.w3.org/2000/svg" viewBox="0 0 14.62 8.45"><defs><style>.cls-1{fill:#551514;}.cls-2{fill:#d72b5d;}.cls-3{fill:#fff;}.cls-4{fill:#bb7757;}</style></defs><g id="S"><path class="cls-1" d="M12,6.65A12.87,12.87,0,0,1,9.07,7.8a5.52,5.52,0,0,1-2.93-.25c-.33-.08-2.08-.93-2.52-1.1-1-.4-2.35-2.7-2.35-2.7a4.9,4.9,0,0,1,1.08-.47c.4-.1.82-.27,1.23-.41a6.19,6.19,0,0,1,2.27-.28A8.23,8.23,0,0,1,9.36,3.71c.25.13,1.34,1,1.67,1.24A5,5,0,0,1,12,6.65Z"/><path class="cls-2" d="M8.48,6.16C8.07,5.74,7.48,6,7,5.85l-.82-.2a5,5,0,0,0-1.65-.5A.71.71,0,0,0,4,6.33a2.67,2.67,0,0,0,1.29.45,11.9,11.9,0,0,0,2.27.41c.24,0,.67.17.9-.05A.69.69,0,0,0,8.48,6.16Z"/><path class="cls-3" d="M9.1,3.51l-2.32-.8L4.24,2.55l-.64.19a3.25,3.25,0,0,0,.79.61A13.78,13.78,0,0,0,9.24,4.51a9,9,0,0,0,1.19-.15Z"/><path class="cls-3" d="M9.33,7.65S9.2,6.93,9,6.81c-.61-.41-1.51-.2-2.72-.55a13.07,13.07,0,0,0-2.92-.79,2,2,0,0,0-.56.3l.7.58,2.54,1,2.06.33Z"/><path class="cls-4" d="M12,6.65a8.1,8.1,0,0,1-3,.57A24.13,24.13,0,0,1,3.87,6a18.48,18.48,0,0,1-2.6-2.2,2.09,2.09,0,0,0,.28.76,6.85,6.85,0,0,0,1.81,2,8.6,8.6,0,0,0,2.76,1,6.43,6.43,0,0,0,3.26.33A7.54,7.54,0,0,0,12,6.69S12,6.65,12,6.65Z"/></g><path class="cls-4" d="M1.27,3.75a8.26,8.26,0,0,1,6-.44C11.08,4.24,12,6.65,12,6.65S11.79,3.93,7.4,2.74,1.27,3.75,1.27,3.75Z"/></svg>