<svg id="Layer_1" data-name="Layer 1" xmlns="http://www.w3.org/2000/svg" viewBox="0 0 14.62 8.45"><defs><style>.cls-1{fill:#551514;}.cls-2{fill:#d72b5d;}.cls-3{fill:#fff;}.cls-4{fill:#bb7757;}.cls-5{fill:#dc9e8f;}</style></defs><g id="S"><path class="cls-1" d="M13.06,4.31,10,4.37A12,12,0,0,1,6.92,3.8a16.66,16.66,0,0,1-2.75-.87C3.88,2.75,1.3,1.26,1.3,1.26s.37,1.63.5,2.26a4.89,4.89,0,0,0,.54,1.22A4,4,0,0,0,4.26,6.6a11.81,11.81,0,0,0,4.07,1,14.88,14.88,0,0,0,3.06-1.54C11.69,5.82,13.06,4.31,13.06,4.31Z"/><path class="cls-2" d="M9.23,5.8a3.71,3.71,0,0,0-1.64-.64,20.29,20.29,0,0,0-2.31-.4c-.15,0-.3-.06-.44-.07H4.52c-.08,0-.27.17-.27.17-.34.23-.08.72.13.88a3.71,3.71,0,0,0,1.43.47,16.83,16.83,0,0,0,2.51.48c.26,0,.73.19,1,0A.55.55,0,0,0,9.23,5.8Z"/><path class="cls-3" d="M11.28,4.69,7,4,2.88,2.61a4.39,4.39,0,0,0,.25.82,4.14,4.14,0,0,0,1.17,1A15.22,15.22,0,0,0,9.14,5.62a2.75,2.75,0,0,0,1.65-.53C10.92,5,11.28,4.69,11.28,4.69Z"/><path class="cls-3" d="M10,7.07a2.83,2.83,0,0,0-.53-.62c-.61-.4-1.65-.1-2.87-.4s-2.07-.88-2.78-.77a3.88,3.88,0,0,0-.76.3l.73.87,2.5,1.07,2.26-.13Z"/><path class="cls-4" d="M13.18,4.16a13,13,0,0,1-2.72,2,6.65,6.65,0,0,1-4.22.47,6.32,6.32,0,0,1-3-1.79A12.34,12.34,0,0,1,1.22,1s-.05.17-.06.22A9.38,9.38,0,0,0,2.34,4.8,5.87,5.87,0,0,0,6,7.67a5.54,5.54,0,0,0,4.82-1,8.94,8.94,0,0,0,2.33-2.28S13.18,4.16,13.18,4.16Z"/><path class="cls-4" d="M13.21,4a10.42,10.42,0,0,1-3,.28A21.9,21.9,0,0,1,4.32,2.87,12.23,12.23,0,0,1,1.22,1a1.77,1.77,0,0,0,.08.25,8.63,8.63,0,0,0,2.35,2A18,18,0,0,0,7,4.49a17.45,17.45,0,0,0,3.57.44,5.74,5.74,0,0,0,2.56-.72A1.67,1.67,0,0,0,13.21,4Z"/><path class="cls-5" d="M1,.56C1.32.37,1,.27.81.46a1.26,1.26,0,0,0-.27.69A6.61,6.61,0,0,1,1,.56Z"/><path class="cls-5" d="M13.74,3.72c-.24-.24.07-.28.25-.06s0,.69,0,.69C13.86,3.83,13.82,3.79,13.74,3.72Z"/></g></svg>