<svg id="Layer_1" data-name="Layer 1" xmlns="http://www.w3.org/2000/svg" viewBox="0 0 28 17"><defs><style>.cls-1{fill:#f5968e;}.cls-2{fill:#f48678;}.cls-3{fill:#765a47;}.cls-4{fill:#e9a597;opacity:0.5;}</style></defs><g id="neutral"><path class="cls-1" d="M22.11,9.54c.18,0-4.3,2.14-8.4,1.29a16.44,16.44,0,0,1-7.6-4.61c0-.31,2.9,2.22,7.69,3.23A47.8,47.8,0,0,0,22.11,9.54Z"/><path class="cls-2" d="M22.32,9.44c0-.21-4.66.42-8.73-.41S6,5.89,5.93,6.1s3.54,3,7.54,3.81C17.69,10.78,22.32,9.67,22.32,9.44Z"/><path class="cls-3" d="M5.81,6a24,24,0,0,0,8,4,17.05,17.05,0,0,0,8.43-.53,18.8,18.8,0,0,1-8.43.53C9.86,9.25,5.81,6,5.81,6Z"/><path class="cls-4" d="M5.83,5.39c.26-.48-.19-.43-.37,0a2.57,2.57,0,0,0,0,1.25A11.33,11.33,0,0,1,5.83,5.39Z"/><path class="cls-4" d="M22.6,8.84c-.18-.52.25-.38.36.08S22.63,10,22.63,10C22.7,9.09,22.66,9,22.6,8.84Z"/></g></svg>