<svg id="Layer_1" data-name="Layer 1" xmlns="http://www.w3.org/2000/svg" viewBox="0 0 10.53 5.66"><defs><style>.cls-1{fill:#8c3e36;}.cls-2{fill:#fff;}.cls-3{fill:#d26653;}.cls-4{fill:#f5968e;}.cls-5{fill:#f48678;}.cls-6{fill:#e9a597;opacity:0.5;}</style></defs><g id="EE"><path class="cls-1" d="M9.76,2.36s-1.54-.08-1.85-.11a12.13,12.13,0,0,1-1.33-.18L4.33,1.64a6.64,6.64,0,0,1-1.08-.3,4,4,0,0,0-1-.28,2.53,2.53,0,0,0-.61,0L.9.63a3.19,3.19,0,0,0,.33,1.26c.11.22.33.6.44.83C2.05,3.54,3,3.86,4,4.19a6.46,6.46,0,0,0,1.75.28,3.73,3.73,0,0,0,1.16,0,3,3,0,0,0,.32-.08c.19-.1.61-.13.77-.28s.47-.28.66-.44A15.28,15.28,0,0,0,9.76,2.36Z"/><path class="cls-2" d="M8.37,2.47l-.85-.28s-2.35-.37-2.35-.37-2.26-.55-2.32-.54l-1-.13a5.59,5.59,0,0,0,.27.69A8.14,8.14,0,0,0,5,2.92a8.19,8.19,0,0,0,2.89.19A1.89,1.89,0,0,0,8.37,2.47Z"/><path class="cls-3" d="M3,3.72a3.14,3.14,0,0,0,1.73.7A3.62,3.62,0,0,0,6.6,4.36c0-.27-.79-.65-1.26-.64S4.27,3.48,4,3.48,3.17,3.51,3,3.72Z"/><path class="cls-2" d="M7.85,4s-.85.06-1.3,0-1.64-.16-1.64-.16S3.8,3.69,3.44,3.57L2,3.05,3.33,4.46l1.38.38h0l.11,0v0L6.26,5Z"/><path class="cls-4" d="M9.76,2.36A6.69,6.69,0,0,1,7.85,4a5.07,5.07,0,0,1-3.18.53A5,5,0,0,1,1.79,2.71,5.41,5.41,0,0,1,.9.63S1,4.52,4.52,5.22C7.76,5.85,9.76,2.36,9.76,2.36Z"/><path class="cls-5" d="M5.2,1.75C3.53,1.44.9.63.9.63s.61.74,4.26,1.45c4.19.82,4.6.28,4.6.28S6.92,2.06,5.2,1.75Z"/><path class="cls-6" d="M.9.41C1.09.27.88.21.74.34A.85.85,0,0,0,.58.83,3.92,3.92,0,0,1,.9.41Z"/><path class="cls-6" d="M9.68,2.13c-.17-.15,0-.19.17,0s0,.47,0,.47C9.76,2.2,9.74,2.18,9.68,2.13Z"/></g></svg>