<svg id="Layer_1" data-name="Layer 1" xmlns="http://www.w3.org/2000/svg" viewBox="0 0 17.07 9.98"><defs><style>.cls-1{fill:#8c3e36;}.cls-2{fill:#fff;}.cls-3{fill:#d26653;}.cls-4{fill:#f5968e;}.cls-5{fill:#f48678;}.cls-6{fill:#e9a597;opacity:0.5;}</style></defs><g id="EE"><path class="cls-1" d="M16.09.79s-2.45,1-3,1.23c-.71.26-1.45.52-2.19.71l-3.81,1a12.6,12.6,0,0,1-1.9.33,6.33,6.33,0,0,0-1.67.27,4.05,4.05,0,0,0-.95.44L1.06,4.72A5.4,5.4,0,0,0,2.49,6.49c.33.29.95.71,1.29,1,1.19,1,2.89.83,4.68.59a10.34,10.34,0,0,0,2.92-.87,5.69,5.69,0,0,0,1.77-1c.17-.18.29-.16.44-.36s.86-.68,1-1,.51-.8.7-1.22C15.55,3.06,16.09.79,16.09.79Z"/><path class="cls-2" d="M14,2s-1.43.19-1.52.19S8.57,3.4,8.57,3.4s-3.92.84-4,.89-1.65.54-1.65.54a9.07,9.07,0,0,0,.93.91,13.69,13.69,0,0,0,5.21-.43,13.64,13.64,0,0,0,4.63-1.89A3.2,3.2,0,0,0,14,2Z"/><path class="cls-3" d="M6.6,8.07a5.11,5.11,0,0,0,3.2-.19,6.06,6.06,0,0,0,2.83-1.5c-.2-.41-1.7-.44-2.42-.07A21,21,0,0,1,7.87,7C7.33,7.25,6.7,7.62,6.6,8.07Z"/><path class="cls-2" d="M14.35,4.93s-1.28.73-2,1S9.69,7,9.69,7s-1.89.48-2.54.55-2.64.27-2.64.27L7.63,9l2.43-.43h0l.21,0v0l2.32-.84Z"/><path class="cls-4" d="M16.09.79a12.26,12.26,0,0,1-1.74,4.14A8.8,8.8,0,0,1,9.79,8.19,8.35,8.35,0,0,1,4,7.39a9.27,9.27,0,0,1-2.9-2.67s3,6.18,9,4.61C15.53,7.89,16.09.79,16.09.79Z"/><path class="cls-5" d="M8.56,3.26C5.73,4,1.06,4.72,1.06,4.72s1.48.73,7.67-.89c7.1-1.86,7.36-3,7.36-3S11.45,2.47,8.56,3.26Z"/><path class="cls-6" d="M.9,4.37c.19-.36-.18-.29-.3,0a1.59,1.59,0,0,0,.1.9A8.93,8.93,0,0,1,.9,4.37Z"/><path class="cls-6" d="M15.79.49c-.38-.12-.08-.34.23-.21s.41.72.41.72C16,.54,15.91.52,15.79.49Z"/></g></svg>