<svg id="Layer_1" data-name="Layer 1" xmlns="http://www.w3.org/2000/svg" viewBox="0 0 30 13"><defs><style>.cls-1{fill:#dc9e8f;}.cls-2{fill:#f6fbfd;stroke:#323232;stroke-miterlimit:10;stroke-width:0.44px;}.cls-3{fill:#451f16;}.cls-4{fill:#fff;}.cls-5{fill:#fad2c6;}</style></defs><circle class="cls-1" cx="24.3" cy="6.89" r="5.3"/><ellipse class="cls-1" cx="5.93" cy="5.87" rx="5.3" ry="5.54" transform="translate(-0.44 11.27) rotate(-84.98)"/><path class="cls-2" d="M29,6.36a5,5,0,0,1-3.86,5.91c-2.69.57-5.16-.32-5.73-3s1-6.18,3.69-6.75A5,5,0,0,1,29,6.36Z"/><ellipse class="cls-3" cx="26.71" cy="8.17" rx="3.1" ry="1.88" transform="translate(13.26 32.65) rotate(-78.22)"/><circle class="cls-4" cx="26.31" cy="6.75" r="0.86"/><path class="cls-2" d="M.93,5.94a5,5,0,0,0,4.53,5.4c2.75.25,5.09-.93,5.33-3.67s-1.71-6-4.46-6.27A5,5,0,0,0,.93,5.94Z"/><ellipse class="cls-3" cx="8.57" cy="7.74" rx="3.1" ry="2.08" transform="translate(-0.73 14.58) rotate(-78.41)"/><circle class="cls-4" cx="7.44" cy="6.41" r="0.86"/><path class="cls-5" d="M1.61,4.42a7.44,7.44,0,0,1,8.87.79s-2-4.15-5-3.54A4.17,4.17,0,0,0,1.61,4.42Z"/><path class="cls-5" d="M19.88,5.89s2.87-3.25,8.52-.68a5.39,5.39,0,0,0-5-2.76A6.18,6.18,0,0,0,19.88,5.89Z"/></svg>