<svg id="Layer_1" data-name="Layer 1" xmlns="http://www.w3.org/2000/svg" viewBox="0 0 14 8"><defs><style>.cls-1{fill:#bb7757;}.cls-2{fill:#765a47;}.cls-3{fill:#dc9e8f;}</style></defs><g id="neutral"><path class="cls-1" d="M12.37,4a10.1,10.1,0,0,1-5.6,1.19,9.83,9.83,0,0,1-5-2.82A18,18,0,0,0,6.85,4.3,30.54,30.54,0,0,0,12.37,4Z"/><path class="cls-1" d="M12.51,4c0-.15-3.1.46-5.79,0a25.16,25.16,0,0,1-5-1.69,10.09,10.09,0,0,0,5,2.29A12.07,12.07,0,0,0,12.51,4Z"/><path class="cls-2" d="M1.59,2.28A14.58,14.58,0,0,0,6.87,4.65,11.45,11.45,0,0,0,12.47,4a12.78,12.78,0,0,1-5.6.67A13.16,13.16,0,0,1,1.59,2.28Z"/><path class="cls-3" d="M1.61,1.86c.18-.33-.12-.28-.24,0a1.71,1.71,0,0,0,0,.85A8.85,8.85,0,0,1,1.61,1.86Z"/><path class="cls-3" d="M12.71,3.56c-.12-.35.16-.27.23,0a1.27,1.27,0,0,1-.23.75C12.76,3.72,12.74,3.67,12.71,3.56Z"/></g></svg>