<svg id="Layer_1" data-name="Layer 1" xmlns="http://www.w3.org/2000/svg" viewBox="0 0 21.17 7.96"><defs><style>.cls-1{fill:#dc9e8f;}.cls-2{fill:#fff;stroke:#3d2d16;stroke-miterlimit:10;stroke-width:0.5px;}.cls-3{fill:#3d2d16;}.cls-4{fill:#fff7f4;}.cls-5{fill:#f9d1c6;}</style></defs><path class="cls-1" d="M.67,3.91a3.09,3.09,0,0,1,1.39-2,5.12,5.12,0,0,1,2.29-.71,3.17,3.17,0,0,1,1.56.17,2.6,2.6,0,0,1,1,.88,3.3,3.3,0,0,1,.41,3.23,2,2,0,0,1-2.67,1,4.71,4.71,0,0,1-.81-.68,1.69,1.69,0,0,0-.9-.5.74.74,0,0,0-.82.48c-.1.29.08.81-.17,1s-.52,0-.7-.15A3.61,3.61,0,0,1,.67,3.91Z"/><path class="cls-2" d="M7.46,4.78c.12,1.69-1.23,2.69-3.08,2.83a4.09,4.09,0,0,1-1.62-.18A2.31,2.31,0,0,1,1.19,5.27a3,3,0,0,1,.7-2A3.89,3.89,0,0,1,4.53,1.81C6.38,1.68,7.34,3.13,7.46,4.78Z"/><circle class="cls-3" cx="4.3" cy="4.74" r="1.78"/><circle class="cls-4" cx="5.22" cy="4.1" r="0.55"/><path class="cls-1" d="M13.61,3.12a3.12,3.12,0,0,1,1.39-2A5.2,5.2,0,0,1,17.3.36a3.19,3.19,0,0,1,1.56.17,2.6,2.6,0,0,1,1,.88,3.27,3.27,0,0,1,.4,3.23,2,2,0,0,1-2.66,1A4.71,4.71,0,0,1,16.81,5a1.69,1.69,0,0,0-.9-.5.75.75,0,0,0-.83.48c-.09.29.09.81-.16,1s-.52,0-.7-.15A3.66,3.66,0,0,1,13.61,3.12Z"/><path class="cls-2" d="M20.41,4c.12,1.69-1.24,2.69-3.09,2.83a4.14,4.14,0,0,1-1.62-.18,2.31,2.31,0,0,1-1.57-2.16,3,3,0,0,1,.71-2A3.84,3.84,0,0,1,17.48,1C19.33.89,20.29,2.34,20.41,4Z"/><circle class="cls-3" cx="17.24" cy="3.82" r="1.78"/><circle class="cls-4" cx="18.16" cy="3.31" r="0.55"/><path class="cls-5" d="M4.54,1.66a4,4,0,0,0-2.77,1.5A3,3,0,0,0,1,5.29,2.43,2.43,0,0,0,2.67,7.57a4.39,4.39,0,0,0,1.71.19c1.94-.14,3.37-1.2,3.24-3S6.49,1.53,4.54,1.66Z"/><path class="cls-5" d="M17.49.85A4,4,0,0,0,14.7,2.36,3.13,3.13,0,0,0,14,4.51a2.43,2.43,0,0,0,1.66,2.28,4.23,4.23,0,0,0,1.72.2c2-.14,3.39-1.21,3.26-3S19.45.72,17.49.85Z"/></svg>