<svg id="Layer_1" data-name="Layer 1" xmlns="http://www.w3.org/2000/svg" viewBox="0 0 10.53 5.66"><defs><style>.cls-1{fill:#7b2f2c;}.cls-2{fill:#f48a71;}.cls-3{fill:#fff;}.cls-4{fill:#f5968e;}.cls-5{fill:#f48678;}.cls-6{fill:#e9a597;opacity:0.5;}</style></defs><g id="uh"><path class="cls-1" d="M5,2.22A22.69,22.69,0,0,1,.87.72S2.24,3.9,2.69,4.08a15.54,15.54,0,0,0,3.78.75A8,8,0,0,0,8.91,3.41a2.23,2.23,0,0,0,.78-1.24A17.22,17.22,0,0,1,5,2.22Z"/><path class="cls-2" d="M3.41,3.8a2.37,2.37,0,0,0,1.48.65,3,3,0,0,0,1.62-.09c0-.35-1-.6-1.09-.6a10,10,0,0,1-1.2-.21C3.91,3.56,3.55,3.6,3.41,3.8Z"/><path class="cls-3" d="M6.47,4.29a27.74,27.74,0,0,0-3-.48c-.2,0-.75-.29-.9-.18l2,1,2.92-.21C7.24,4.26,6.79,4.37,6.47,4.29Z"/><path class="cls-4" d="M9.67,2.3c0-.29-.19,0-.19,0A4.52,4.52,0,0,1,5,4.27,5.15,5.15,0,0,1,1,.87S.91.69.85.84a4.81,4.81,0,0,0,4,4.34C8,5.68,9.66,2.59,9.67,2.3Z"/><path class="cls-3" d="M8.53,2.48c.05-.09-.52-.12-.63-.12a2.29,2.29,0,0,1-.74-.06c-.06,0-1.74-.12-1.74-.12s-1.91-.49-2-.49-1.38-.5-1.38-.5a4.48,4.48,0,0,0,.49.91,6.13,6.13,0,0,0,2.76,1A5.45,5.45,0,0,0,7.74,3,1.27,1.27,0,0,0,8.53,2.48Z"/><path class="cls-5" d="M9.72,2.24c0-.15-.17,0-.17,0A15.25,15.25,0,0,1,5.34,2,15,15,0,0,1,1.15.76S.94.67.87.72C.48,1,3,1.89,5.29,2.26A10.65,10.65,0,0,0,9.72,2.24Z"/><path class="cls-6" d="M1,.56C1.14.42.94.37.8.51S.66,1,.66,1A4.4,4.4,0,0,1,1,.56Z"/><path class="cls-6" d="M9.63,2c-.17-.15,0-.19.17-.05s0,.46,0,.46C9.72,2.07,9.69,2.05,9.63,2Z"/></g></svg>