<svg id="Layer_1" data-name="Layer 1" xmlns="http://www.w3.org/2000/svg" viewBox="0 0 23.88 17.65"><defs><style>.cls-1{fill:#dd9f8f;}.cls-2{fill:#f7fbff;stroke:#323232;stroke-miterlimit:10;stroke-width:0.44px;}.cls-3{fill:#451e15;}.cls-4{fill:#fff;}</style></defs><circle class="cls-1" cx="18.22" cy="10.19" r="3.67"/><ellipse class="cls-1" cx="5.81" cy="7.34" rx="3.67" ry="3.83" transform="translate(-2.77 11.09) rotate(-75.22)"/><path class="cls-2" d="M21.51,10.41A3.45,3.45,0,0,1,18.18,14c-1.9.07-3.48-.82-3.55-2.73s1.4-4.1,3.3-4.17A3.45,3.45,0,0,1,21.51,10.41Z"/><ellipse class="cls-3" cx="19.17" cy="11.48" rx="1.96" ry="1.68" transform="translate(1.29 24.88) rotate(-67.75)"/><circle class="cls-4" cx="20.4" cy="10.22" r="0.6"/><path class="cls-2" d="M2.42,6.83a3.47,3.47,0,0,0,2.46,4.22c1.85.48,3.58,0,4.07-1.89s-.46-4.3-2.31-4.79A3.45,3.45,0,0,0,2.42,6.83Z"/><ellipse class="cls-3" cx="6.83" cy="8.97" rx="1.91" ry="1.62" transform="translate(-4.29 10.85) rotate(-62.26)"/><circle class="cls-4" cx="8.17" cy="7.98" r="0.6"/><path class="cls-1" d="M17.93,7.08c-1.9.07-3.37,2.27-3.3,4.17s1.65,2.8,3.55,2.73a3.45,3.45,0,1,0-.25-6.9Z"/><path class="cls-1" d="M6.64,4.37a3.45,3.45,0,0,0-1.76,6.68c1.85.48,3.58,0,4.07-1.89S8.49,4.86,6.64,4.37Z"/></svg>