<svg xmlns="http://www.w3.org/2000/svg" viewBox="0 0 79.16 63.43"><defs><style>.cls-1{isolation:isolate;}.cls-2{fill:#5c5548;}.cls-3{fill:#424036;}.cls-4{fill:#fad2c6;stroke:#323232;}.cls-4,.cls-7{stroke-miterlimit:10;stroke-width:0.25px;}.cls-5{fill:#e4a58c;}.cls-6{fill:#421b16;}.cls-7{fill:#311415;stroke:#211e1f;}.cls-8{fill:#90856e;}.cls-9{fill:#605e44;}.cls-10,.cls-13{fill:#9e9580;opacity:0.5;}.cls-10,.cls-12{mix-blend-mode:multiply;}.cls-11,.cls-12{fill:#676254;}.cls-12{opacity:0.4;}.cls-13{mix-blend-mode:screen;}.cls-14{fill:#c28974;}</style></defs><g class="cls-1"><g id="Layer_1" data-name="Layer 1"><path class="cls-2" d="M64.57,25A17.5,17.5,0,0,1,68.81,28c2.67,2.39,8.59,9.45,9,12.27S59.93,40,36.24,37.43,3.77,30.54,3.71,29.18s6.14-6.62,13-9.28,16.1-2,27.27-.79A69.31,69.31,0,0,1,64.57,25Z"/><path class="cls-3" d="M43.93,19.24c-10.8-1.16-20.31-1.91-27.22.79C10,22.65,3.79,27.91,3.84,29.18c0,.85,5.14,4,21.29,6.63,3.42.56,7.17,1.06,11.12,1.49,5.77.63,11.28,1.29,16.15,1.88,13.83,1.67,23.83,2.88,25.13,1.48a.41.41,0,0,0,.12-.36c-.36-2.71-6.16-9.72-8.92-12.19a17.78,17.78,0,0,0-4.22-3,70.43,70.43,0,0,0-17.6-5.43C45.91,19.48,44.9,19.35,43.93,19.24Z"/><path class="cls-4" d="M19.19,26.36a2.86,2.86,0,0,0-.48,3.1c3.71,8.46,3.56,11,6.26,21.39,2,7.66,10.7,12.58,17.9,10.77,8.86-2.22,18.87-7.34,17.32-24.87-.68-7.71.35-16.14-1.27-18.57C53.43,10,49.14,12,38.09,14.85,27.76,17.5,23.49,19,19.19,26.36Z"/><path class="cls-5" d="M22.46,40.09s-.7-14.74,6.64-12.81c8,2.11,11-1.44,14.28-.8C50.46,27.89,58.6,38.09,61,30.92S43.4,15.8,43.4,15.8s-18-1.35-19.17-.82-5.92,10-5.92,10Z"/><path class="cls-6" d="M27.93,32.7a.55.55,0,0,0,.5-.81l-.08-.14c-.42-.79-1.59-.74-2.22-.45-.95.43-2.36,1-3,3.81-.05.24.23.45.36.27C24.23,34.3,25.94,32.66,27.93,32.7Z"/><path class="cls-6" d="M41.34,29.88a.55.55,0,0,1-.83-.46v-.16c0-.89,1-1.43,1.7-1.49,1-.1,2.53-.32,4.49,1.82.16.18,0,.51-.18.41C45.35,29.42,43.05,28.86,41.34,29.88Z"/><path class="cls-7" d="M26.93,22.12s2.47,9,16.64,1.57c0,0-16.56-1.43-.39-6.31,0,0-2,5.75,8.25,1.47,0,0-6.58,7.76,6.61,14.09,0,0,2.26.2,2.81,5.61,0,.39.07.81.09,1.25.31,6.64,0-.86,0-.86s5.75-2.46,4.14-9.46c0,0,3.67-6.1-1.42-11.46,0,0,1.08-9.12-9.12-8.81,0,0-4.36-8-10.21-6.29,0,0-9.94-4.57-14.81,4.23,0,0-7.21-.75-9.76,8.19,0,0-5.34,4.63-2.57,9.75,0,0-4.25,4,1.26,7.25,0,0-3.08,4.31,2.47,6.62l2.26,4.92-.67-3.79a17.35,17.35,0,0,1,4.12-17.63Z"/><path class="cls-8" d="M16.67,19.9c6.81-2.65,16.1-2,27.27-.79A69.31,69.31,0,0,1,64.57,25,17.5,17.5,0,0,1,68.81,28c2.67,2.39,8.59,9.45,9,12.27C77.28,38.4,69.3,30,38,26.31c-20.42-2.38-30.52.1-34.14,2.36C4.9,26.81,10.53,22.3,16.67,19.9Z"/><path class="cls-9" d="M3.79,28.77a.15.15,0,0,1,0-.17c1.05-1.93,6.72-6.43,12.85-8.82,7-2.72,16.5-2,27.34-.8,1,.1,2,.24,3,.41a71.15,71.15,0,0,1,17.66,5.44,17.64,17.64,0,0,1,4.28,3.08c2.48,2.22,8.6,9.37,9,12.35a.13.13,0,0,1-.1.15.12.12,0,0,1-.15-.09c-.44-1.68-7.09-8.76-31.68-12.77-2.53-.41-5.21-.78-8-1.1C14.32,23.67,6,27.54,3.94,28.78a.08.08,0,0,1-.08,0A.09.09,0,0,1,3.79,28.77Z"/><path class="cls-10" d="M65.09,30c-1.59-3-4.71-5.28-7.41-7a37.82,37.82,0,0,0-3.47-1.9A66.79,66.79,0,0,1,64.57,25,17.5,17.5,0,0,1,68.81,28c2.67,2.39,8.59,9.45,9,12.27-.3-1.14-3.35-4.69-12.68-8.12A2.26,2.26,0,0,0,65.09,30Z"/><path class="cls-10" d="M28.62,18.45a43.79,43.79,0,0,0-7.44,2.22c-1.82.74-4,2-4.13,4.44,0,.15,0,.28,0,.42-7,.5-11.12,1.85-13.18,3.14,1-1.86,6.65-6.37,12.79-8.77,4.1-1.6,9.09-2,14.86-1.8A23.59,23.59,0,0,0,28.62,18.45Z"/><path class="cls-8" d="M68.49,26.43s2.37-10.16-8.66-19.14c-11.94-9.71-27.27-5.65-32-3s-9.72,8.55-11,14.5c0,0,17.31-.82,25.25.32S64.11,23.39,68.49,26.43Z"/><path class="cls-9" d="M68.4,26.21c.24-1.43,1.37-10.66-8.64-18.81A27,27,0,0,0,46.9,1.68c-8-1.31-15.74.89-19,2.69C23.55,6.8,18.43,12.46,17,18.61c1.8-.08,17.65-.74,25.11.33.58.08,1.19.18,1.84.29C51.41,20.45,64,23.29,68.4,26.21Z"/><path class="cls-10" d="M24.69,13.47c1.23,2.41,3.69,3.53,5.91,4.31.78.27,1.56.5,2.34.72-7.76-.15-16.11.25-16.11.25,1.22-5.51,5.61-11,10-13.85C24.73,7.08,23.15,10.49,24.69,13.47Z"/><path class="cls-10" d="M52,19.68c3-.24,6.29-.64,9-2.27a6.28,6.28,0,0,0,3.44-5.35c5.62,7.46,4,14.37,4,14.37C64.9,24,54.82,21.36,46.92,19.88,48.62,19.88,50.32,19.82,52,19.68Z"/><path class="cls-11" d="M42.41,17.49c-6.42-1-23.83-.84-25.68.12a10.48,10.48,0,0,0-.41,2.54c.15.44,8.58-1.79,24,.13,20.31,2.53,27.59,7.44,28.1,7.61s.53-2.32.33-2.71S61.05,20.3,42.41,17.49Z"/><path class="cls-3" d="M16.2,20.19a9.52,9.52,0,0,1,.41-2.61l0-.06.05,0c1.89-1,19.46-1.07,25.75-.13C61.3,20.2,68.7,24.74,68.89,25.12a4.94,4.94,0,0,1-.15,2.75.28.28,0,0,1-.29.15h0a2.72,2.72,0,0,1-.4-.2c-6.53-3.53-15.71-5.55-22.25-6.62-1.75-.28-3.58-.55-5.44-.78a89.52,89.52,0,0,0-22.2-.21,9.29,9.29,0,0,1-1.72.13A.25.25,0,0,1,16.2,20.19Z"/><path class="cls-12" d="M16.73,17.61c1.05-.55,7.09-.82,13.3-.78l-.67.1c-6.1.7-1.9,1.72,2.72,1.77a92.11,92.11,0,0,1,16.38,1.66c6.95,1.27,9.32.2,3.75-1-.4-.09-.77-.19-1.1-.3,12.32,2.65,17.5,5.77,17.66,6.1s.18,2.87-.33,2.71-7.79-5.08-28.1-7.61c-15.44-1.92-23.87.31-24-.13A10.48,10.48,0,0,1,16.73,17.61Z"/><path class="cls-13" d="M62,30.05s-12.37-5.12-42-5.7C20,24.35,43.64,22.38,62,30.05Z"/><path class="cls-4" d="M58.85,41.53c.28-4.05,1.75-5.87,3.93-5.89,2.35,0,3.25,1.6,3.15,4.92-.13,4.25-4.6,7.43-7.48,6.6"/><path class="cls-5" d="M64.22,39.46s.58-2.37-1.94-1.9-1.16,3.66-1.84,5-2.22,2.74-1.12,3S64,44.52,64.22,39.46Z"/><path class="cls-14" d="M34.22,45.66a3.12,3.12,0,0,0,.24,1.72,1.3,1.3,0,0,0,1.39.49,2.61,2.61,0,0,0,1.53-.65,3.54,3.54,0,0,0,.91-1.52,2.75,2.75,0,0,1-.63,1.78,2.62,2.62,0,0,1-1.75.89,2.55,2.55,0,0,1-1-.09,1.32,1.32,0,0,1-.78-.72A2.48,2.48,0,0,1,34.22,45.66Z"/></g></g></svg>