<svg id="Layer_1" data-name="Layer 1" xmlns="http://www.w3.org/2000/svg" xmlns:xlink="http://www.w3.org/1999/xlink" viewBox="0 0 85.46 18.86"><defs><style>.cls-1{fill:none;}.cls-2{clip-path:url(#clip-path);}.cls-3{fill:#eb652f;}.cls-4{fill:#f6a42c;}.cls-5{fill:#fff18b;}.cls-6{fill:#281b17;}.cls-7{fill:#473a3a;}.cls-8{fill:#5e5454;}</style><clipPath id="clip-path"><path class="cls-1" d="M32.77.73S46.68.64,49.47.92c0,0,5,5.78,1.2,10.51S41.42,19.57,37,17.55,28.29,6.53,32.77.73Z"/></clipPath></defs><g class="cls-2"><path class="cls-3" d="M40.15-6.08a2.4,2.4,0,0,1,.72,1.64c0,.77-2.36,2.18-2.36,4s1.18,2.06,1.18,3.91A1.3,1.3,0,0,1,38.51,4.8c-.47,0-1-.3-1-1.47a2.2,2.2,0,0,1,1-1.78,3.14,3.14,0,0,0-2.23,3.07c0,2.06,2.86,2.15,2.86,3.88,0,1-.48,1.43-1.25,1.43s-1-.77-1-1.25.69-1.25.69-1.25c-.54.23-1.91.5-1.91,2.23s2,3.49,5.67,3.49,5.84-3,5.84-4.83a2.68,2.68,0,0,0-1.91-2.44A2.67,2.67,0,0,1,46,7.58a1.3,1.3,0,0,1-1.28,1.34c-.74,0-1.2-.65-1.2-1.64,0-1.9,2.63-2.46,2.63-4.76A3,3,0,0,0,44.83,0a3.86,3.86,0,0,1,.33,1.6c0,.57-.5,1.41-1.22,1.41s-1-.47-.8-1.22.45-.71.71-1.24A2.41,2.41,0,0,0,44-1.32a3.51,3.51,0,0,0-1.73-1.51h0A2.43,2.43,0,0,1,43.11-1,1.06,1.06,0,0,1,41.94.12c-.41,0-1.07-.18-1.07-1.19,0-.68.4-.86.65-1.63a3,3,0,0,0,.1-1.61A3,3,0,0,0,40.15-6.08Z"/><path class="cls-4" d="M42.32,13.08s2.93-1.37,3.24-3.76c-.85.65-3.27,1.65-3.24-1.19,0-2.54,1.89-2.58,1.83-4.09a1.7,1.7,0,0,1-1.47,1C42.7,4.19,41,2.66,41,2a1.65,1.65,0,0,1,.27-1,1.39,1.39,0,0,0-.72,1.27c0,.61,1.19,2.26.27,3.18a1.93,1.93,0,0,1-2.68.16c.29.64,1.17,1.09,1.8,1.91a2.35,2.35,0,0,1-1,3.37,1.51,1.51,0,0,1-1.81-.48,4.11,4.11,0,0,0,3.69,2.75Z"/><path class="cls-5" d="M41.8,13.14s1.83-.89,2-2.34a1.82,1.82,0,0,1-2.25-1.72,3.85,3.85,0,0,1,.24-2.21,4,4,0,0,0-.7,2.21,3.26,3.26,0,0,1-.43,2.3,1.43,1.43,0,0,1-1.51.32,2.88,2.88,0,0,0,2.09,1.45Z"/></g><path class="cls-6" d="M56.78,16.66c-1.08-.71-7.77-4.12-8-4.25a2.47,2.47,0,0,1,.42-.16l.49-.53c.21,0,7.77,4.14,8.82,4.83Z"/><path class="cls-6" d="M25.05,16.65l-1.64-.09c.83-.57,9.23-5.11,9.46-5.16l1.62.28-.41.07C33.86,11.9,25.94,16,25.05,16.65Z"/><path class="cls-7" d="M30.94,7.41v4.43H51.29V7.06a14.38,14.38,0,0,0-4.44-.75,75.89,75.89,0,0,0-13.35.23S31.55,6.66,30.94,7.41Z"/><ellipse class="cls-8" cx="41.12" cy="11.4" rx="10.18" ry="1.92"/><path class="cls-8" d="M50.77,9.48C51.09,9.48,82,5,83.63,4.63"/><path class="cls-6" d="M50.77,10V9.48L50.72,9c.23,0,30.21-4.24,32-4.69l2.16.48C83.77,5.05,51.4,10,50.77,10Z"/><path class="cls-6" d="M31.84,9.5c-.1,0-.43,0-4.68-.63C18.49,7.69,3.33,4.22.6,4.18l2.66-.57c2.8,0,15.36,3.1,24,4.29l4.56.62Z"/></svg>