<svg id="Layer_1" data-name="Layer 1" xmlns="http://www.w3.org/2000/svg" viewBox="0 0 45.72 43.81"><defs><style>.cls-1{fill:#342516;}.cls-2,.cls-4{fill:#fad2c6;}.cls-2{stroke:#323232;stroke-width:0.25px;}.cls-2,.cls-9{stroke-miterlimit:10;}.cls-3{fill:#3d2d16;}.cls-5{fill:#632323;}.cls-6{fill:#323232;}.cls-7{fill:#dc9e8f;}.cls-8{fill:#e8d860;}.cls-9{fill:none;stroke:#ef4b3b;stroke-width:2px;}.cls-10{fill:#ef4b3b;}.cls-11{fill:#f49990;}</style></defs><path class="cls-1" d="M10.25,13.21c-.13.52-4.88,5.67-2.62,13S5,37.81,12,40.91c4.61,2.06,11.68.07,11.77-.13s.25-1,.25-1l6.78-2.82.54,2.55s9.22-1.76,10.79-4c3.23-4.58.35-7.08,0-16.48S21.88-3.49,9.11,12.9Z"/><path class="cls-2" d="M38.54,14.23c.37,3,1.05,10.91.61,14.52-1,8.12-9.85,11-11.56,11.15-2.74.19-8.86-.21-12.25-4.28S11,23.85,11,23.85,8,16.33,12.57,10,22.86,2.68,29.29,3.81C37.14,5.18,38.54,14.23,38.54,14.23Z"/><path class="cls-3" d="M19.68,18s-2.8,0-3.82,2a.1.1,0,0,1-.18,0,2.24,2.24,0,0,1,1.71-2.34C20,16.7,19.68,18,19.68,18Z"/><path class="cls-3" d="M30.43,17.35s2.75-.69,4.23,1a.09.09,0,0,0,.17-.06,2.25,2.25,0,0,0-2.24-1.87C29.81,16.14,30.43,17.35,30.43,17.35Z"/><path class="cls-4" d="M24,28.78a2.06,2.06,0,0,0,3.47-.22"/><path class="cls-5" d="M24,28.78a3.38,3.38,0,0,0,1.81.59,2.06,2.06,0,0,0,.87-.21,3.3,3.3,0,0,0,.79-.6,1.6,1.6,0,0,1-.58.92,1.71,1.71,0,0,1-1.07.39A2,2,0,0,1,24,28.78Z"/><path class="cls-1" d="M28.82,11S28,14,23.58,16a3.69,3.69,0,0,0,.67-4s0,5.08-6,5.44l1.52-3.92-4.47,5.79.25-4.18S10,28.17,8.08,28.45c0,0-5-13.78,5.06-23S35.73,4.36,35.73,4.36a18.86,18.86,0,0,1,5.73,19.72s-2.85.9-3.3.33-.07-2.2-1.93-6.39A13.76,13.76,0,0,0,28.82,11Z"/><path class="cls-4" d="M11.72,25.25s.08.06,0,.07-.1-.05-.12-.1a3.74,3.74,0,0,0-1.3-1.47A1.84,1.84,0,0,0,9,23.39a1.58,1.58,0,0,0-1.08,1.44,4.82,4.82,0,0,0,.52,2.94A5.06,5.06,0,0,0,13,30.51"/><path class="cls-6" d="M11.72,25.25s.07,0,0,.07a.09.09,0,0,1-.11,0,1.28,1.28,0,0,1-.11-.2c-.08-.13-.16-.25-.25-.37a4.1,4.1,0,0,0-.62-.63,2.29,2.29,0,0,0-1.57-.63A1.35,1.35,0,0,0,8,24.6a4.2,4.2,0,0,0,0,1.73,5.15,5.15,0,0,0,5,4.18,4.7,4.7,0,0,1-3.38-1.06,5.15,5.15,0,0,1-1.87-3.07,4.39,4.39,0,0,1,0-1.84,1.52,1.52,0,0,1,1.27-1.27,2.41,2.41,0,0,1,1.67.73,4.3,4.3,0,0,1,.59.69,2.46,2.46,0,0,1,.22.39,2,2,0,0,0,.11.2.07.07,0,0,0,.09,0S11.75,25.22,11.72,25.25Z"/><path class="cls-7" d="M10,25.69a5.22,5.22,0,0,1,.55.6c.14.17.26.42.12.59s-.36.13-.45.28,0,.38.19.46.36.09.53.17a.78.78,0,0,1,.44.61.58.58,0,0,1-.05.26.5.5,0,0,1-.6.2,1.37,1.37,0,0,1-.55-.41,4.82,4.82,0,0,1-.92-1.24C8.86,26.5,8.63,24.45,10,25.69Z"/><path class="cls-8" d="M12.05,29.48s1.34,2.22,0,2.75-1.16-2.12-1.16-2.12.57,2.16.86.76Z"/><path class="cls-4" d="M38.78,22.46c0-.05-.07.07,0,.07s.1-.07.11-.12A3.92,3.92,0,0,1,40,20.77a1.83,1.83,0,0,1,1.3-.55,1.57,1.57,0,0,1,1.28,1.27,4.86,4.86,0,0,1-.1,3,5.06,5.06,0,0,1-4.2,3.37"/><path class="cls-6" d="M38.78,22.46s-.06.05,0,.06.07,0,.09-.05,0-.14.07-.21a3.69,3.69,0,0,1,.17-.42,3.4,3.4,0,0,1,.49-.76,2.38,2.38,0,0,1,1.54-1,1.53,1.53,0,0,1,1.44,1.08A4.5,4.5,0,0,1,42.84,23a5.16,5.16,0,0,1-1.41,3.31,4.72,4.72,0,0,1-3.2,1.53A5.14,5.14,0,0,0,42.59,23a4.11,4.11,0,0,0-.25-1.71,1.36,1.36,0,0,0-1.22-1,2.22,2.22,0,0,0-1.46.85,3.75,3.75,0,0,0-.53.71,3.62,3.62,0,0,0-.19.4,1.89,1.89,0,0,1-.09.21.1.1,0,0,1-.1.05S38.75,22.42,38.78,22.46Z"/><path class="cls-7" d="M40.6,22.63a5.91,5.91,0,0,0-.47.68c-.11.19-.19.46,0,.6s.37.08.49.22,0,.37-.13.48-.35.14-.5.24a.77.77,0,0,0-.35.66.61.61,0,0,0,.08.26.51.51,0,0,0,.63.11,1.5,1.5,0,0,0,.49-.48A5.26,5.26,0,0,0,41.54,24C41.79,23.29,41.72,21.22,40.6,22.63Z"/><path class="cls-8" d="M39.05,26.68s-1,2.39.39,2.73.85-2.26.85-2.26-.26,2.22-.75.88Z"/><path class="cls-9" d="M9.87,23.47S7.35,14.22,14.24,7s17.62-4.19,21.51.78A17.26,17.26,0,0,1,39.42,21.5"/><path class="cls-10" d="M12.35,8.2s-.6-8.29,2.59-5.38,4.18,6.48-1.67,7a1.63,1.63,0,0,0-1.74,1.39c-.56,2.22-1.11,10.46-6.42,1.62-3.56-5.93,5.79-2.43,5.79-2.43S9.51,7.83,12.35,8.2Z"/><ellipse class="cls-11" cx="5.9" cy="11.11" rx="0.55" ry="0.64" transform="translate(-1.85 1.2) rotate(-10.05)"/><ellipse class="cls-11" cx="10.05" cy="13.24" rx="0.55" ry="0.64" transform="translate(-2.16 1.96) rotate(-10.05)"/><ellipse class="cls-11" cx="14.54" cy="6.1" rx="0.55" ry="0.64" transform="translate(-0.84 2.63) rotate(-10.05)"/><ellipse class="cls-11" cx="16.2" cy="6.59" rx="0.55" ry="0.64" transform="translate(-0.9 2.93) rotate(-10.05)"/><ellipse class="cls-11" cx="15.7" cy="4.69" rx="0.55" ry="0.64" transform="translate(-0.58 2.81) rotate(-10.05)"/><ellipse class="cls-11" cx="14.59" cy="3.51" rx="0.55" ry="0.64" transform="translate(-0.39 2.6) rotate(-10.05)"/><ellipse class="cls-11" cx="15.46" cy="8.47" rx="0.55" ry="0.64" transform="matrix(0.98, -0.17, 0.17, 0.98, -1.24, 2.83)"/><ellipse class="cls-11" cx="13.32" cy="3.6" rx="0.55" ry="0.64" transform="translate(-0.42 2.38) rotate(-10.05)"/><ellipse class="cls-11" cx="13.01" cy="6.21" rx="0.55" ry="0.64" transform="matrix(0.98, -0.17, 0.17, 0.98, -0.88, 2.37)"/><ellipse class="cls-11" cx="14.06" cy="8.3" rx="0.55" ry="0.64" transform="translate(-1.23 2.58) rotate(-10.05)"/><ellipse class="cls-11" cx="7.71" cy="10.33" rx="0.55" ry="0.64" transform="translate(-1.68 1.5) rotate(-10.05)"/><ellipse class="cls-11" cx="8.01" cy="14.56" rx="0.55" ry="0.64" transform="translate(-2.42 1.62) rotate(-10.05)"/><ellipse class="cls-11" cx="6.38" cy="13.5" rx="0.55" ry="0.64" transform="translate(-2.26 1.32) rotate(-10.05)"/><ellipse class="cls-11" cx="8.09" cy="12.43" rx="0.55" ry="0.64" transform="translate(-2.04 1.6) rotate(-10.05)"/><ellipse class="cls-11" cx="9.43" cy="15.65" rx="0.55" ry="0.64" transform="translate(-2.59 1.89) rotate(-10.05)"/><ellipse class="cls-11" cx="9.66" cy="11.08" rx="0.55" ry="0.64" transform="translate(-1.79 1.86) rotate(-10.05)"/></svg>