<svg id="Layer_1" data-name="Layer 1" xmlns="http://www.w3.org/2000/svg" viewBox="0 0 17.38 10.68"><defs><style>.cls-1{fill:#551514;}.cls-2{fill:#d72b5d;}.cls-3{fill:#fff;}.cls-4{fill:#bb7757;}</style></defs><g id="S"><path class="cls-1" d="M16.43,4.88c.09.29-1.68,2.32-2.38,3.16a7,7,0,0,1-3.34,1.65c-.41.13-2.88.36-3.46.46-1.4.24-4.33-1.38-4.33-1.38a5.89,5.89,0,0,1,.87-1.23c.36-.37.7-.83,1-1.25a7.91,7.91,0,0,1,2.29-1.8A10.4,10.4,0,0,1,11.67,3.4c.36,0,2.11.2,2.63.26A6.22,6.22,0,0,1,16.43,4.88Z"/><path class="cls-2" d="M12.33,6.63c-.72-.18-1.2.47-1.84.67l-1,.32a6.3,6.3,0,0,0-2.11.54.9.9,0,0,0,.26,1.59,3.5,3.5,0,0,0,1.7-.36,15.65,15.65,0,0,0,2.74-1.05c.26-.14.83-.25.93-.64A.89.89,0,0,0,12.33,6.63Z"/><path class="cls-3" d="M11.26,3.36,8.22,4,5.35,5.51l-.57.62A4.35,4.35,0,0,0,6,6.28a17.13,17.13,0,0,0,6-1.94,11,11,0,0,0,1.19-.93Z"/><path class="cls-3" d="M14.23,7.7S13.62,7,13.34,7c-.93,0-1.77.77-3.31,1.2A16.09,16.09,0,0,0,6.34,9.24a2.36,2.36,0,0,0-.41.7l1.15.16,3.37-.63,2.45-1Z"/><path class="cls-4" d="M16.43,4.88a10,10,0,0,1-2.86,2.57,29.25,29.25,0,0,1-6.38,2,23.11,23.11,0,0,1-4.27-.67,2.82,2.82,0,0,0,.8.64,8.82,8.82,0,0,0,3.29,1,10.81,10.81,0,0,0,3.67-.71,8.13,8.13,0,0,0,3.76-1.79,9.92,9.92,0,0,0,2-3Z"/></g><path class="cls-4" d="M2.92,8.77s1.52-3,6.25-4.45,7.26.56,7.26.56-2-2.83-7.52-1.24S2.92,8.77,2.92,8.77Z"/></svg>