<svg id="Layer_1" data-name="Layer 1" xmlns="http://www.w3.org/2000/svg" viewBox="0 0 62 22"><defs><style>.cls-1{fill:#f6fbfd;stroke:#323232;stroke-miterlimit:10;stroke-width:0.5px;}.cls-2{fill:#602220;}.cls-3{fill:#451f16;}.cls-4{fill:#fff;}</style></defs><path class="cls-1" d="M2.43,11.19c0,5,4.47,9.22,10,9.32s10.09-3.89,10.11-8.94-4.47-9.21-10-9.32S2.45,6.15,2.43,11.19Z"/><path class="cls-2" d="M6.71,18.77A9.41,9.41,0,0,1,2.78,11.2,9.07,9.07,0,0,1,12.3,2.45c2.62,0,5.65.73,9,4.65A11.11,11.11,0,0,0,10.14,1.51C6.32,2,2.35,4.75,2,9.49,1.6,13.6,3.93,17.69,6.71,18.77Z"/><path class="cls-3" d="M7.11,9.81A5.78,5.78,0,0,0,10.92,17a5.61,5.61,0,0,0,6.93-4A5.78,5.78,0,0,0,14,5.82,5.59,5.59,0,0,0,7.11,9.81Z"/><path class="cls-4" d="M12.71,7.87a1.4,1.4,0,1,0,1.73-1A1.41,1.41,0,0,0,12.71,7.87Z"/><path class="cls-1" d="M59.36,12.66c-.68,5-5.69,8.51-11.19,7.84s-9.41-5.26-8.73-10.26,5.69-8.5,11.19-7.83S60,7.67,59.36,12.66Z"/><path class="cls-2" d="M54.09,19.57a9.37,9.37,0,0,0,4.92-7,9,9,0,0,0-8.17-10C48.26,2.32,45.18,2.57,41.3,6A11.05,11.05,0,0,1,53.1,2c3.7,1,7.24,4.3,7,9C59.84,15.16,57,18.88,54.09,19.57Z"/><path class="cls-3" d="M54.94,10.64a5.78,5.78,0,0,1-4.75,6.54,5.58,5.58,0,0,1-6.27-4.91,5.78,5.78,0,0,1,4.75-6.54A5.58,5.58,0,0,1,54.94,10.64Z"/><path class="cls-4" d="M49.69,7.94a1.42,1.42,0,0,1-1.18,1.62,1.43,1.43,0,1,1,1.18-1.62Z"/></svg>