<svg id="Layer_1" data-name="Layer 1" xmlns="http://www.w3.org/2000/svg" viewBox="0 0 32 19"><defs><style>.cls-1{fill:#f6fbfd;stroke:#323232;stroke-miterlimit:10;stroke-width:0.5px;}.cls-2{fill:#ce9685;}.cls-3{fill:#451f16;}.cls-4{fill:#fff;}.cls-5{fill:#f9d1c6;}</style></defs><path class="cls-1" d="M30.17,4.52a5.76,5.76,0,0,1-3,7.25,5.08,5.08,0,0,1-7-2.59,5.79,5.79,0,0,1,3-7.26A5.09,5.09,0,0,1,30.17,4.52Z"/><path class="cls-2" d="M30.2,8.81a6.05,6.05,0,0,0,0-4.63,5,5,0,0,0-7-2.26c-1.29.68-2.46,1.59-3.49,4.32A6.32,6.32,0,0,1,24,.82C26.17.2,28.87.64,30.05,2.9,31.08,4.86,31.48,7.63,30.2,8.81Z"/><path class="cls-3" d="M27.7,8.58c.54,1.26-.34,2.61-2,3a3.37,3.37,0,0,1-3.93-1.52c-.54-1.26.34-2.62,2-3A3.37,3.37,0,0,1,27.7,8.58Z"/><path class="cls-4" d="M25.35,6.93a1,1,0,0,1-.12,1.36.89.89,0,0,1-1.29-.17,1,1,0,0,1,.13-1.36A.88.88,0,0,1,25.35,6.93Z"/><path class="cls-1" d="M1.56,14.31a5.28,5.28,0,0,0,5.88,4.15,4.65,4.65,0,0,0,3.82-5.66A5.28,5.28,0,0,0,5.38,8.65,4.67,4.67,0,0,0,1.56,14.31Z"/><path class="cls-2" d="M4.59,18a5.35,5.35,0,0,1-2.84-3.7A4.74,4.74,0,0,1,5.66,8.65c1.34-.22,2.4.16,4.56,1.95C8.53,8.42,6.36,7.71,4.44,8.35a4.75,4.75,0,0,0-3.31,5.09C1.41,15.68,3.05,17.66,4.59,18Z"/><path class="cls-3" d="M4.21,15.81c-.31-1.2.66-2.32,2.18-2.5a3,3,0,0,1,3.34,1.86c.32,1.21-.66,2.33-2.18,2.51A3.05,3.05,0,0,1,4.21,15.81Z"/><path class="cls-4" d="M7.15,13.42A1,1,0,0,1,7,14.83a1,1,0,0,1-1.41-.14,1,1,0,0,1,.19-1.41A1,1,0,0,1,7.15,13.42Z"/><path class="cls-5" d="M2.45,16.79s6.24-.44,8.67-5.22c0,0-2-4.89-7.43-2.43C3.69,9.14-.37,11.69,2.45,16.79Z"/><path class="cls-5" d="M20.27,10s6.78.24,10.23-4.67a4.76,4.76,0,0,0-4.17-3.94,6.36,6.36,0,0,0-5.55,2.2A5.64,5.64,0,0,0,20.27,10Z"/></svg>