<svg id="Layer_1" data-name="Layer 1" xmlns="http://www.w3.org/2000/svg" viewBox="0 0 86.24 41.53"><defs><style>.cls-1{fill:#fad2c6;}.cls-1,.cls-3{stroke:#323232;stroke-miterlimit:10;stroke-width:0.5px;}.cls-2{fill:#e4a58c;}.cls-3{fill:#ffd02a;}</style></defs><polygon class="cls-1" points="59.39 25.91 27.53 32.9 21.58 34.21 19.73 20.74 31.5 19.86 58.33 17.86 59.39 25.91"/><path class="cls-1" d="M58.77,26.06S63.16,27,67,27.51a8.75,8.75,0,0,1,6,3.66c.4.51,1.42-2.71-.26-4.1-.26-.22-2-1.59-3-2.38a.59.59,0,0,1,.1-1l7.82-2s4-.74,6.34-3.06c0,0,2.78-2.21-10.84-.05,0,0-.84-4.8-5.28-3.78s-11,3.08-11,3.08"/><path class="cls-2" d="M27.63,32.56l-6.05,1.65L19.73,20.74l11.77-.88C31.52,24.41,29.15,29.49,27.63,32.56Z"/><path class="cls-3" d="M3,21.33l25.23-1.08v.16a32.64,32.64,0,0,1-3.8,14.47h0L2.07,38.27Z"/></svg>