<svg id="Layer_1" data-name="Layer 1" xmlns="http://www.w3.org/2000/svg" viewBox="0 0 14 8"><defs><style>.cls-1{fill:#551514;}.cls-2{fill:#fff;}.cls-3{fill:#d72b5d;}.cls-4{fill:#bb7757;}.cls-5{fill:#dc9e8f;}</style></defs><g id="EE"><path class="cls-1" d="M13.15,3.35l-2.52-.12C10,3.17,9.42,3.11,8.84,3L5.77,2.45a8.31,8.31,0,0,1-1.46-.4A5.75,5.75,0,0,0,3,1.69a3.79,3.79,0,0,0-.82,0L1.12,1.12a4.28,4.28,0,0,0,.46,1.7c.15.31.46.81.61,1.12C2.71,5.06,4,5.47,5.35,5.9a8.8,8.8,0,0,0,2.38.36A4.83,4.83,0,0,0,9.3,6.19c.18-.07.26,0,.43-.11s.83-.19,1-.39.63-.38.89-.61S13.15,3.35,13.15,3.35Z"/><path class="cls-2" d="M11,3.55l-.87-.4c-.07,0-3.19-.47-3.19-.47S3.85,2,3.77,2l-.88-.06A8,8,0,0,0,3.35,3,9.38,9.38,0,0,0,6.69,4a9.1,9.1,0,0,0,3.44.3C10.45,4.25,11,3.55,11,3.55Z"/><path class="cls-3" d="M4,5.28a4.12,4.12,0,0,0,2.35.92,4.88,4.88,0,0,0,2.51-.1c0-.36-1.08-.87-1.72-.85S5.72,4.94,5.29,5,4.24,5,4,5.28Z"/><path class="cls-2" d="M10.58,5.66s-1.15.08-1.76.06-2.23-.19-2.23-.19-1.5-.3-2-.46l-2-.68L4.46,6.28l1.88.5h0l.15,0v0L8.44,7Z"/><path class="cls-4" d="M13.15,3.35a9.39,9.39,0,0,1-2.57,2.31,6.26,6.26,0,0,1-4,.8A7.48,7.48,0,0,1,2.35,3.94,7.25,7.25,0,0,1,1.12,1.12s.41,5.33,5.22,6.22C10.73,8.15,13.15,3.35,13.15,3.35Z"/><path class="cls-4" d="M7,2.58C4.7,2.18,1.12,1.12,1.12,1.12S2,2.11,6.91,3c5.68,1.05,6.24.32,6.24.32S9.29,3,7,2.58Z"/><path class="cls-5" d="M1.12.83C1.37.64,1.09.56.89.74a1.21,1.21,0,0,0-.21.66A6.42,6.42,0,0,1,1.12.83Z"/><path class="cls-5" d="M13,3c-.23-.21.05-.26.23-.06s.06.63.06.63C13.15,3.14,13.11,3.11,13,3Z"/></g></svg>