<svg id="Layer_1" data-name="Layer 1" xmlns="http://www.w3.org/2000/svg" xmlns:xlink="http://www.w3.org/1999/xlink" viewBox="0 0 161.48 34.2"><defs><style>.cls-1{fill:none;}.cls-2{clip-path:url(#clip-path);}.cls-3{fill:#eb652f;}.cls-4{fill:#f6a42c;}.cls-5{fill:#fff18b;}.cls-6{fill:#281b17;}.cls-7{fill:#473a3a;}.cls-8{fill:#5e5454;}</style><clipPath id="clip-path"><path class="cls-1" d="M64.45,1.13s24-.16,28.82.32c0,0,8.57,10,2.09,18.13s-16,14.05-23.66,10.57S56.72,11.13,64.45,1.13Z"/></clipPath></defs><g class="cls-2"><path class="cls-3" d="M80.53,22.55c-5.16,0-12.67-3.4-12.67-11.21,0-6.7,4-8.26,4-8.26a9.12,9.12,0,0,0-1.37,2.71c-.39,1.26-.94,3,0,4.56a3.3,3.3,0,0,0,3,1.72A3.46,3.46,0,0,0,76,9.39c.74-3-3.07-4.23-3-7.43C73-2.25,79-5.2,79-8.3a4.16,4.16,0,0,0-.53-2.34,3.22,3.22,0,0,1,2.26,2.78c0,2.46-2.26,5.08-2.26,7.54s1.62,2.56,2.26,2.56c1,0,2.62-.83,2.62-3.68a4.38,4.38,0,0,0-2-3.9S87-4.17,87,.4a10.54,10.54,0,0,1-.49,3.13c-1,3-2.58,3.56-2.43,5.58a3.3,3.3,0,0,0,1.29,2.5,2.16,2.16,0,0,0,1,.29c1,0,2.21-1.29,2.21-3.41a4.21,4.21,0,0,0-1.4-3.21C88,5.62,91,6.54,91,12.79S84.32,22.55,80.53,22.55Z"/><path class="cls-4" d="M80.53,22.55c-4.35,0-7.91-4.76-8.58-7,1.68,1.72,4.89,1.89,5.51-1.79a9.6,9.6,0,0,1,5.45-7.31c-2.55,3.1-2.84,8.23.55,9.13,3,.79,5.61-2.86,5.61-2.86C87.66,18.69,83.73,22.55,80.53,22.55Z"/><path class="cls-5" d="M80.53,22.55c-.47.22-6.17-3-.7-8.58-.94,3,.14,4.79,1.38,5.5A5.12,5.12,0,0,0,84.4,17,6.23,6.23,0,0,1,80.53,22.55Z"/></g><path class="cls-6" d="M110.73,33.1c-2-1.3-18.46-10.39-18.91-10.63a4.29,4.29,0,0,1,.78-.29l.89-1c.38.1,18.45,10.44,20.38,11.7Z"/><path class="cls-6" d="M46.94,33l-3-.18c1.52-1,18.34-12.1,18.76-12.21l3,.51-.74.15C64.53,21.53,48.57,31.89,46.94,33Z"/><path class="cls-7" d="M59.19,13.32v8.11H96.44V12.68S94,11.62,88.3,11.3a139.1,139.1,0,0,0-24.43.42S60.3,11.94,59.19,13.32Z"/><ellipse class="cls-8" cx="77.82" cy="20.61" rx="18.63" ry="3.52"/><path class="cls-8" d="M95.47,17.1c.6,0,59.62-8.94,62.54-9.68"/><path class="cls-6" d="M95.47,18v-.9l-.07-.9c.41,0,57.67-8.59,60.92-9.42l4,.88C158.27,8.17,96.64,18,95.47,18Z"/><path class="cls-6" d="M60.83,17.14c-.19,0-.78-.08-8.56-1.14C36.41,13.83,6.19,7.05,1.2,7L6.07,5.93C11.19,6,36.64,12,52.54,14.21c4.49.62,8,1.1,8.35,1.13Z"/></svg>