<svg id="Layer_1" data-name="Layer 1" xmlns="http://www.w3.org/2000/svg" viewBox="0 0 1300 1500"><defs><style>.cls-1{fill:#4a2a15;}.cls-2,.cls-4,.cls-6{fill:#fad2c6;}.cls-13,.cls-2,.cls-4{stroke:#5f4a43;}.cls-10,.cls-12,.cls-13,.cls-2,.cls-4,.cls-6,.cls-7,.cls-9{stroke-miterlimit:10;}.cls-2,.cls-6{stroke-width:0.75px;}.cls-3{fill:#e7b4a7;}.cls-5{fill:#d6a398;}.cls-10,.cls-12,.cls-6,.cls-7,.cls-9{stroke:#323232;}.cls-7{fill:#facc35;}.cls-8{fill:#be9030;}.cls-9{fill:#fcde7d;}.cls-10{fill:#e0604f;}.cls-11{fill:#f5927d;}.cls-12,.cls-13{fill:none;}.cls-14{fill:#fab51b;}.cls-15{fill:#f17125;}.cls-16{fill:#80351b;}.cls-17{fill:#75451c;}.cls-18{fill:#a66638;}.cls-19{fill:#925b24;}.cls-20{fill:#e69847;}.cls-21{fill:#5f2710;}</style></defs><polygon class="cls-1" points="758.66 1101.32 781 1349 784.89 1348.97 762.46 1101.32 758.66 1101.32"/><polygon class="cls-1" points="567.14 1101.08 543.99 1349.15 540.11 1349.12 563.34 1101.08 567.14 1101.08"/><path class="cls-2" d="M706.18,1306.64c-.06.46-.12.95-.2,1.46-.31,2.16-.76,4.76-1.3,7.58-2.38,12.54-6.5,29.53-8.26,32-2.25,3.14-9.44,1.45-9.44,1.45-2.63-15.4.71-28.61,3.94-35.24,1.48-3,1-6.17,1.28-8.12s.51-2.88.51-2.88S707.59,1295.68,706.18,1306.64Z"/><path class="cls-3" d="M706,1308.1c-.31,2.16-1.19,4.77-1.72,7.59h.13a44.34,44.34,0,0,1-5.65-.1,43.27,43.27,0,0,1-7.46-1.51c.49-3.34.59-6.37.92-8.32a38.06,38.06,0,0,1,5.65,0,18.52,18.52,0,0,1,5.39.92A13.52,13.52,0,0,1,706,1308.1Z"/><path class="cls-4" d="M636.58,1347.14l-2.14-10.7,8.45-24.8-3.8-1.88-10-5,6-16c1-.15,5.27,1.57,10.19,4.4,7.66,4.42,15.26,10.21,15,17.19C659.7,1324.28,636.58,1347.14,636.58,1347.14Z"/><path class="cls-5" d="M645,1293.53a105.67,105.67,0,0,1-5.92,15.7l-10-5,6-16C636.08,1288.15,640.09,1290.7,645,1293.53Z"/><path class="cls-6" d="M618.46,1283.51s-4.45,4.35-5.13,3.91-24.71-4.17-21.59-7.84a9,9,0,0,0,.75-1,6.68,6.68,0,0,0,.84-6.34s22.71-4.34,21.09,0a8.27,8.27,0,0,0,.27,6.59,7,7,0,0,0,.59,1Z"/><path class="cls-3" d="M614.41,1278.94c-2.31,1.66-6.6,2.25-10,2.21a28.82,28.82,0,0,1-11.53-2.57,6.68,6.68,0,0,0,.84-6.34s22-4.23,20.39.12A8.23,8.23,0,0,0,614.41,1278.94Z"/><path class="cls-7" d="M577.16,1298.76l-3.33,52.91a45.71,45.71,0,0,0,35.65,8.1c20.8-4.12,25.23-8.09,25.23-8.09s-5.3-35-5.66-41.33c-.13-2.35,5.47,1.88,6-1.08l7.84-19.72-25.34-9.25a.7.7,0,0,0-.83.26c-1,1.36-4.58,5.24-13.29,4.3-10.51-1.14-12.11-7.11-12.11-7.11l-22.6,2.85Z"/><path class="cls-8" d="M576.94,1309.23s14.17,10.71,51.83,4.46l.77,6s-29.79,9-53.09-4Z"/><path class="cls-8" d="M576,1322.63s17.35,10,55,3.79l.9,6.4s-33.08,9.35-56.38-3.66Z"/><path class="cls-4" d="M631.91,1330.51c0-1.07,4.41,5.83,5.42,12.58s-5.14,10.82-10.75,9.92c-5.11-.82-.9-3.25-.1-3.68a0,0,0,0,0,0-.07c-1,0-7-.38-1.36-4.65a.09.09,0,0,0,0-.16c-1.24-.1-6.91-.78-3.29-4.74a3.18,3.18,0,0,1,1.4-.46C635.06,1338,632,1335.22,631.91,1330.51Z"/><path class="cls-6" d="M720.61,1283.53c-.66.42-4.94-3.77-4.94-3.77l3.06-3.52a5.6,5.6,0,0,0,.53-.93,7.92,7.92,0,0,0,.3-6.39c-1.57-4.18,20.29,0,20.29,0a6.13,6.13,0,0,0,0,4.41,8.6,8.6,0,0,0,1.58,2.65C744.39,1279.5,721.26,1283.1,720.61,1283.53Z"/><path class="cls-3" d="M739.44,1273.05c-.45.13-.26.37-.63.64-3.28,2.43-8.19,3.17-13.53,3a17.3,17.3,0,0,1-5.68-1.35,7.92,7.92,0,0,0,.3-6.39c-1.57-4.18,19.84-.44,19.84-.44A6,6,0,0,0,739.44,1273.05Z"/><path class="cls-9" d="M751.61,1291.69l4.23,49.56s-6.85,14.11-25,14.11c-19.35,0-29-10.71-29-10.71s4.3-37.6,4.6-43c0-.08,0-.17,0-.27.27-6.28-8.67-18.3-7.14-18.85l.84-.56c5-3.3,17.81-5,17.81-5s1.39,3.86,10.37,2.89,11.45-6.67,11.45-6.67l5.27-2.72"/><path class="cls-10" d="M707,1301.33c-.31.58,35.2,8.77,44.65-9.12l14.13,57.41s-31.95,26.08-65.17-.32Z"/><path class="cls-10" d="M713.62,1277.72s2.06,20.65,3.35,27.4l-3.88,4.87-3.14-4.43s-.81-15,.84-27.09Z"/><path class="cls-10" d="M742.19,1271.82s-.71,23.23-1.14,33.34l4,2.39,2.17-3.89s1.26-21.58-3-33Z"/><path class="cls-9" d="M699.29,1282.5c-3.43,3.19-10.76,27-9.33,27.5.68.25,3.83,3.19,7.82,4.08a28.28,28.28,0,0,0,9.85,0s2.28-10.85-.13-20.16"/><circle class="cls-11" cx="743.24" cy="1331.79" r="4.48"/><circle class="cls-11" cx="742.59" cy="1316.64" r="4.48"/><circle class="cls-11" cx="753.27" cy="1324.13" r="4.48"/><circle class="cls-11" cx="713.08" cy="1319.64" r="4.48"/><circle class="cls-11" cx="744.31" cy="1346.74" r="4.48"/><circle class="cls-11" cx="727.4" cy="1347.5" r="4.48"/><circle class="cls-11" cx="711.98" cy="1343.77" r="4.48"/><circle class="cls-11" cx="756.69" cy="1334.67" r="4.48"/><circle class="cls-11" cx="718.5" cy="1331.79" r="4.48"/><circle class="cls-11" cx="731.99" cy="1333.57" r="4.48"/><circle class="cls-11" cx="727.5" cy="1319.64" r="4.48"/><circle class="cls-11" cx="734.82" cy="1309.21" r="4.48"/><circle class="cls-11" cx="722.92" cy="1309.6" r="4.48"/><ellipse class="cls-11" cx="751.55" cy="1309.6" rx="3.77" ry="4.48"/><ellipse class="cls-11" cx="707.15" cy="1333.98" rx="3.42" ry="4.07"/><ellipse class="cls-11" cx="757.75" cy="1344.21" rx="3.42" ry="4.07"/><path class="cls-4" d="M633.84,1333.58a12.18,12.18,0,0,0-.12-7.29c-.58-1.58-4.3-1.9-2.94,2.85,1.72,6,1.63,6,1.63,6"/><path class="cls-12" d="M629.11,1311.13a44.35,44.35,0,0,1,.36-6.42,38.53,38.53,0,0,0,.31-13.46"/><path class="cls-13" d="M642.52,1312.14a13.11,13.11,0,0,1,5.16-6.7"/><path class="cls-14" d="M791.13,1094l-11-.48-39.3-1.65-37.74-1.59-88.41-3.75-38.09-1.6-46.17-2-4.67-.19S90.53,593.24,125.13,348.48c18.67-132,81.61-200.58,135.65-235.86a.84.84,0,0,1,.17-.13c46.17-30,85.76-35.73,85.76-35.73a274,274,0,0,1,40.15-21.37h0C443.82,30.92,492.44,34.1,517.58,38.62A122.71,122.71,0,0,1,536,43.08C674-18,760.91,37.19,776,48c1.57,1.14,2.36,1.78,2.36,1.78,62.38-21.12,118.39-10.43,154,1.94,25,8.72,39.89,18.26,39.89,18.26,37.76,14.06,69.35,31,95.67,50.26l0,0c.07.06.13.09.16.16C1424.43,383.31,791.13,1094,791.13,1094Z"/><path class="cls-15" d="M802.67,366.45c0,282.91-47,603.83-99.6,723.83l-88.41-3.75c-43.13-99.1-77-327.86-102.67-592.45-20.76-214.54-14.22-358.88,5.59-455.46A122.71,122.71,0,0,1,536,43.08C674-18,760.91,37.19,776,48,792.34,128.3,802.67,233.85,802.67,366.45Z"/><path class="cls-15" d="M780.11,1093.52l-39.3-1.65C1125.58,464.88,1015,106,940.46,54.78l127.38,65.5,0,0c.07.06-64.69-36.46-64.66-36.4C1373.9,344,885.91,965.7,780.11,1093.52Z"/><path class="cls-15" d="M576.57,1084.93l-46.17-2c-120.58-148-551-716.32-269.62-970.34a.84.84,0,0,1,.17-.13c46.17-30,85.76-35.73,85.76-35.73,13.7-8.78-5.67,1,7.34-4.55C308.08,156.74,210.07,477.06,576.57,1084.93Z"/><ellipse class="cls-16" cx="663.85" cy="1086.16" rx="136.65" ry="23.8"/><path class="cls-13" d="M626.46,1349.26c-.62.12,5.7-1,8-2.1"/><path class="cls-17" d="M772.63,1479.6h0c-71.32,6.36-135.33,7.75-210.2,1.93h0c-20.94-3.48-35.89-14.3-37.34-27l-10-87.76H808.5l-8.18,91.85C799.46,1468.29,788.42,1476.66,772.63,1479.6Z"/><rect class="cls-18" x="537.74" y="1379.8" width="29.09" height="5.09" rx="2.1"/><rect class="cls-18" x="537.74" y="1395.78" width="29.09" height="5.09" rx="2.1"/><rect class="cls-18" x="537.74" y="1411.75" width="29.09" height="5.09" rx="2.1"/><rect class="cls-18" x="537.74" y="1427.73" width="29.09" height="5.09" rx="2.1"/><rect class="cls-18" x="537.74" y="1443.71" width="29.09" height="5.09" rx="2.1"/><rect class="cls-18" x="537.74" y="1459.68" width="29.09" height="5.09" rx="2.1"/><rect class="cls-18" x="581.38" y="1379.8" width="29.09" height="5.09" rx="2.1"/><rect class="cls-18" x="581.38" y="1395.78" width="29.09" height="5.09" rx="2.1"/><rect class="cls-18" x="581.38" y="1411.75" width="29.09" height="5.09" rx="2.1"/><rect class="cls-18" x="581.38" y="1427.73" width="29.09" height="5.09" rx="2.1"/><rect class="cls-18" x="581.38" y="1443.71" width="29.09" height="5.09" rx="2.1"/><rect class="cls-18" x="581.38" y="1459.68" width="29.09" height="5.09" rx="2.1"/><rect class="cls-18" x="625.02" y="1379.8" width="29.09" height="5.09" rx="2.1"/><rect class="cls-18" x="625.02" y="1395.78" width="29.09" height="5.09" rx="2.1"/><rect class="cls-18" x="625.02" y="1411.75" width="29.09" height="5.09" rx="2.1"/><rect class="cls-18" x="625.02" y="1427.73" width="29.09" height="5.09" rx="2.1"/><rect class="cls-18" x="625.02" y="1443.71" width="29.09" height="5.09" rx="2.1"/><rect class="cls-18" x="625.02" y="1459.68" width="29.09" height="5.09" rx="2.1"/><rect class="cls-18" x="668.67" y="1379.8" width="29.09" height="5.09" rx="2.1"/><rect class="cls-18" x="668.67" y="1395.78" width="29.09" height="5.09" rx="2.1"/><rect class="cls-18" x="668.67" y="1411.75" width="29.09" height="5.09" rx="2.1"/><rect class="cls-18" x="668.67" y="1427.73" width="29.09" height="5.09" rx="2.1"/><rect class="cls-18" x="668.67" y="1443.71" width="29.09" height="5.09" rx="2.1"/><rect class="cls-18" x="668.67" y="1459.68" width="29.09" height="5.09" rx="2.1"/><rect class="cls-18" x="712.59" y="1379.8" width="29.09" height="5.09" rx="2.1"/><rect class="cls-18" x="712.59" y="1395.78" width="29.09" height="5.09" rx="2.1"/><rect class="cls-18" x="712.59" y="1411.75" width="29.09" height="5.09" rx="2.1"/><rect class="cls-18" x="712.59" y="1427.73" width="29.09" height="5.09" rx="2.1"/><rect class="cls-18" x="712.59" y="1443.71" width="29.09" height="5.09" rx="2.1"/><rect class="cls-18" x="712.59" y="1459.68" width="29.09" height="5.09" rx="2.1"/><rect class="cls-18" x="756.51" y="1379.8" width="29.09" height="5.09" rx="2.1"/><rect class="cls-18" x="756.51" y="1395.78" width="29.09" height="5.09" rx="2.1"/><rect class="cls-18" x="756.51" y="1411.75" width="29.09" height="5.09" rx="2.1"/><rect class="cls-18" x="756.51" y="1427.73" width="29.09" height="5.09" rx="2.1"/><rect class="cls-18" x="756.51" y="1443.71" width="29.09" height="5.09" rx="2.1"/><rect class="cls-18" x="756.51" y="1459.68" width="29.09" height="5.09" rx="2.1"/><rect class="cls-19" x="490.76" y="1348.73" width="343.77" height="22.94" rx="9.46"/><rect class="cls-20" x="498.66" y="1350.16" width="324.81" height="11.47" rx="4.73"/><path class="cls-21" d="M786.17,1086.44c0,10.79-54.69,19.53-122.15,19.53s-122.16-8.74-122.16-19.53c0-9.64,43.71-17.65,101.19-19.24,6.81-.19,13.82-.29,21-.29q4.29,0,8.51,0C736,1067.66,786.17,1076.11,786.17,1086.44Z"/><path class="cls-13" d="M625.06,1344.45a35.2,35.2,0,0,0,9.91-2.8"/><path class="cls-2" d="M687,1346.33c-2,.48-6.37,2.9-6.69,5.72s.53,7.65,4.17,6.44,2.27-6.69,3.47-5.13c1.54,2,8.08.89,8.21,0,0,0,2.44,2.39,4.77.46,0,0,1.76-1.93-1-2.25s-3.35-5.48-6.33-4.83"/><path class="cls-2" d="M691.17,1351.24s.41,7.06,3.3,7.82c1.91.5,1.93-6,.81-8.54"/><path class="cls-2" d="M683.11,1352.05c-.08.24-.59,8.21,2.77,6.2s1-6.2,1-6.2"/><path class="cls-2" d="M690.44,1351.64a4.82,4.82,0,0,0-1.21,3.71c.16,2.42-.64,4.43-2,4.19s-2.18-2.18-1.61-7.9"/><path class="cls-12" d="M577.8,1288.94l-1.13,18.22"/></svg>