<svg id="Layer_1" data-name="Layer 1" xmlns="http://www.w3.org/2000/svg" viewBox="0 0 56.04 20.51"><defs><style>.cls-1,.cls-4{fill:#fad2c6;}.cls-1,.cls-3{stroke:#323232;stroke-miterlimit:10;stroke-width:0.25px;}.cls-2{fill:#dc9e8f;}.cls-3{fill:#ffe57b;}</style></defs><path class="cls-1" d="M38.49,16.88l1.18-.09a7.38,7.38,0,0,0,3.61,2.05c2.73.87,4.25,1.07,5.34.52l-.74-4.29-3-2.47-4.74.92Z"/><path class="cls-1" d="M46.45,12.25l6.68.54a.74.74,0,0,1,.57.32c.15.22.34.65-.57.82-1.38.25-6.27.3-6.27.3A1.37,1.37,0,0,1,46.45,12.25Z"/><path class="cls-1" d="M40.38,13.39,39.1,16.81l-13.43,1a10.8,10.8,0,0,1-7-1.94l-2.89-2L13.63,12.3l2.86-4.67,1.11-.85,1.43,1,.3.21,4.32,3.06Z"/><path class="cls-2" d="M15.82,13.66l-2.14-1.5,2.87-4.68,1.1-.84s-.07.27.74.84l.91.63A13.59,13.59,0,0,1,15.82,13.66Z"/><path class="cls-3" d="M18.62,6.86c-1.37-1-6.19-4.24-7.7-5C9.64,1.14,5.2.88,1.75,1.07V5.79C6,8.84,12,12.8,13.94,13.54,14.6,13.8,19.09,7.2,18.62,6.86Z"/><path class="cls-1" d="M45.91,14.34s3,.06,3.68.63a.76.76,0,0,1-.34,1.42c-.53,0-3.92-.16-4.75-1S45.91,14.34,45.91,14.34Z"/><path class="cls-1" d="M45.47,15.91a36.08,36.08,0,0,1,3.8.66c.51.18.36,1.54-.56,1.51-.53,0-3.06-.36-3.9-1.21S45.47,15.91,45.47,15.91Z"/><path class="cls-1" d="M45.18,17.23s2.75.75,3.47,1c.5.18.37,1.29-.55,1.27a7.31,7.31,0,0,1-3.44-1.43C44,17.37,45.18,17.23,45.18,17.23Z"/><path class="cls-1" d="M39.51,13.27a6.51,6.51,0,0,0,3.88-1.09c1.8-1,3.18-.72,3.39.3s-.35,1.7.78,3.71c0,0-1.78,1-2.73-1.29L44.45,14a3,3,0,0,1-1.72,2"/><path class="cls-4" d="M39.43,13.79a1.69,1.69,0,0,0-1,1.18.77.77,0,0,0,0,.37c0,.11.08.21.09.32s-.06.25-.18.25l.34.55a.66.66,0,0,0,.25.27.71.71,0,0,0,.29,0l.69-.1a1.11,1.11,0,0,0,.45-.12.79.79,0,0,0,.29-.4.91.91,0,0,0,0-.67,1.17,1.17,0,0,1-.14-.3c0-.21.09-.41.18-.61C41.23,13.57,40.12,13.49,39.43,13.79Z"/></svg>