<svg id="Layer_1" data-name="Layer 1" xmlns="http://www.w3.org/2000/svg" viewBox="0 0 35 15"><defs><style>.cls-1{fill:#f6fbfd;stroke:#323232;stroke-miterlimit:10;stroke-width:0.5px;}.cls-2{fill:#ce9685;}.cls-3{fill:#451f16;}.cls-4{fill:#fff;}.cls-5{fill:#fad2c6;}</style></defs><path class="cls-1" d="M1.17,6.84a6.29,6.29,0,0,0,5.5,6.57,5.55,5.55,0,0,0,6.43-5A6.3,6.3,0,0,0,7.6,1.87,5.54,5.54,0,0,0,1.17,6.84Z"/><path class="cls-2" d="M2.54,11.32A6.58,6.58,0,0,1,1.06,6.49,5.5,5.5,0,0,1,7.6,1.87c1.55.29,3.07.85,5,3.35A6.86,6.86,0,0,0,6.39,1C3.92,1.05,1.25,2.39.76,5.12.33,7.49.82,10.51,2.54,11.32Z"/><path class="cls-3" d="M7.52,7c-1,1.74-.85,4,.35,5.11s3,.56,4-1.17.86-4-.35-5.11S8.54,5.23,7.52,7Z"/><path class="cls-4" d="M7.24,6.41a1.09,1.09,0,0,0,.58,1.38,1,1,0,0,0,1.28-.6,1.09,1.09,0,0,0-.58-1.37A1,1,0,0,0,7.24,6.41Z"/><path class="cls-1" d="M34.12,7.72A5.75,5.75,0,0,1,29.36,14,5.08,5.08,0,0,1,23.54,9.3,5.76,5.76,0,0,1,28.3,3.07,5.08,5.08,0,0,1,34.12,7.72Z"/><path class="cls-2" d="M32.16,12.52a5.83,5.83,0,0,0,1.76-4.77A5.16,5.16,0,0,0,28,3.17c-1.47.2-2.45.94-4.12,3.51C25,3.86,27,2.41,29.19,2.46a5.16,5.16,0,0,1,5.09,4.21C34.73,9.1,33.66,11.69,32.16,12.52Z"/><path class="cls-3" d="M32.7,11.82c1.09-1.76,1.1-4.13,0-5.28s-2.81-.66-3.9,1.1-1.1,4.13,0,5.28S31.62,13.59,32.7,11.82Z"/><path class="cls-4" d="M28.9,6.87a1.1,1.1,0,0,0,.65,1.41A1.09,1.09,0,0,0,31,7.68a1.1,1.1,0,0,0-.65-1.41A1.09,1.09,0,0,0,28.9,6.87Z"/><path class="cls-5" d="M1.17,6.84a6.29,6.29,0,0,0,5.5,6.57,5.55,5.55,0,0,0,6.43-5A6.3,6.3,0,0,0,7.6,1.87,5.54,5.54,0,0,0,1.17,6.84Z"/><path class="cls-5" d="M34.12,7.72A5.75,5.75,0,0,1,29.36,14,5.08,5.08,0,0,1,23.54,9.3,5.76,5.76,0,0,1,28.3,3.07,5.08,5.08,0,0,1,34.12,7.72Z"/></svg>