<svg id="Layer_1" data-name="Layer 1" xmlns="http://www.w3.org/2000/svg" xmlns:xlink="http://www.w3.org/1999/xlink" viewBox="0 0 200 60"><defs><style>.cls-1{fill:none;}.cls-2{clip-path:url(#clip-path);}.cls-3{fill:#eb652f;}.cls-4{fill:#f6a42c;}.cls-5{fill:#fff18b;}.cls-6{fill:#281b17;}.cls-7{fill:#473a3a;}.cls-8{fill:#5e5454;}</style><clipPath id="clip-path"><path class="cls-1" d="M84.77,11s21.79-.09,26.15.18c0,0,7.77,5.58,1.88,10.15s-14.49,7.86-21.46,5.91S77.76,16.63,84.77,11Z"/></clipPath></defs><g class="cls-2"><path class="cls-3" d="M96.33,4.45A2.08,2.08,0,0,1,97.45,6c0,.75-3.68,2.1-3.68,3.86s1.84,2,1.84,3.77c0,.84-1.1,1.3-1.84,1.3s-1.59-.29-1.59-1.43,1.59-1.71,1.59-1.71c-1.12.23-3.51,1-3.51,3s4.49,2.07,4.49,3.74c0,.95-.75,1.38-2,1.38s-1.55-.74-1.55-1.21,1.08-1.21,1.08-1.21c-.84.23-3,.49-3,2.16S92.51,23,98.2,23s9.15-2.85,9.15-4.66-3-2.36-3-2.36a2.21,2.21,0,0,1,1.08,1.64c0,.55-.61,1.29-2,1.29-1.16,0-1.88-.62-1.88-1.57,0-1.84,4.12-2.39,4.12-4.6,0-1.69-2-2.44-2-2.44a2.52,2.52,0,0,1,.51,1.55,1.83,1.83,0,0,1-1.91,1.36c-1.12,0-1.55-.45-1.26-1.18s.71-.69,1.11-1.2A1.54,1.54,0,0,0,102.3,9c-.62-.93-2.7-1.45-2.7-1.45h0c.7.46,1.36.89,1.36,1.78s-1.17,1.07-1.83,1.07-1.68-.18-1.68-1.15c0-.66.64-.83,1-1.58a1.93,1.93,0,0,0,.15-1.55C98.24,5.16,96.82,4.62,96.33,4.45Z"/><path class="cls-4" d="M99.72,23s4.59-1.31,5.08-3.63c-1.34.63-5.12,1.6-5.08-1.14,0-2.46,3-2.5,2.87-3.95a3,3,0,0,1-2.3,1c0-.84-2.71-2.32-2.71-3a1.25,1.25,0,0,1,.42-1c-.73.3-1.12.64-1.12,1.23s1.86,2.18.42,3.06a4.49,4.49,0,0,1-4.2.16c.46.62,1.83,1,2.81,1.85,1.31,1.06.26,2.88-1.56,3.25a3.18,3.18,0,0,1-2.83-.46C91.66,21.12,94,23,97.3,23Z"/><path class="cls-5" d="M98.9,23s2.87-.85,3.08-2.26c-1.63.14-3.24-.25-3.52-1.66A2.51,2.51,0,0,1,98.83,17a3,3,0,0,0-1.1,2.13,2.16,2.16,0,0,1-.67,2.22,3.3,3.3,0,0,1-2.36.32c.37.46,1.21,1.09,3.27,1.39Z"/></g><path class="cls-6" d="M137.22,49c-2.28-1.57-22.12-12.39-22.63-12.69a4.49,4.49,0,0,1,.89-.34l1-1.19c.43.12,22,12.53,24.2,14Z"/><path class="cls-6" d="M63.14,49l-3.42-.21c1.74-1.25,21.06-14.59,21.54-14.71l3.4.61-.85.17C83.34,35.16,65,47.64,63.14,49Z"/><path class="cls-7" d="M77.23,25.27V35h42.65V24.5s-2.81-1.28-9.32-1.66a151.69,151.69,0,0,0-28,.51S78.5,23.61,77.23,25.27Z"/><ellipse class="cls-8" cx="98.55" cy="34.06" rx="21.33" ry="4.24"/><path class="cls-8" d="M118.77,29.82c.68,0,71.92-11,75.26-11.9"/><path class="cls-6" d="M118.77,30.91V29.82l-.08-1.08c.46,0,69.69-10.59,73.41-11.58l4.07,1.15C193.88,18.92,120.1,30.91,118.77,30.91Z"/><path class="cls-8" d="M79.1,28.79c-.68,0-64.58-10.29-72.18-10.39"/><path class="cls-6" d="M79.1,29.87c-.21,0-.89-.09-9.79-1.37-18.17-2.62-59.77-10-65.48-10.1l4.6-1.31c5.86.09,43,6.64,61.19,9.26,5.13.74,9.19,1.32,9.55,1.35Z"/></svg>