<svg id="Layer_1" data-name="Layer 1" xmlns="http://www.w3.org/2000/svg" xmlns:xlink="http://www.w3.org/1999/xlink" viewBox="0 0 88.34 19.71"><defs><style>.cls-1{fill:none;}.cls-2{clip-path:url(#clip-path);}.cls-3{fill:#ff6425;}.cls-4{fill:#ffa724;}.cls-5{fill:#fff18b;}.cls-6{fill:#281b17;}.cls-7{fill:#473a3a;}.cls-8{fill:#5e5454;}</style><clipPath id="clip-path"><path class="cls-1" d="M37.56.73S47.77.66,49.81.87c0,0,3.64,4.23.88,7.71s-6.79,6-10,4.49S34.27,5,37.56.73Z"/></clipPath></defs><g class="cls-2"><path class="cls-3" d="M44,9.84c-1.68,0-4.16-.92-4.16-3.54S41.44,3,41.44,3A2.42,2.42,0,0,0,41,4.17a3.8,3.8,0,0,1,2.32-2c1.48-.4,2.49-.51,3.08-1.68a1.68,1.68,0,0,1-.59,1.62c.25,0,2.28-.92,2-2.86a2.29,2.29,0,0,1,.23,1.94,3.16,3.16,0,0,1-2.66,2.19C44,3.7,43,4.61,43,5.68a1,1,0,0,0,1.08,1,.93.93,0,0,0,1-1c0-.77-.9-1.13-.9-1.13A2.46,2.46,0,0,1,46.39,5c-.12-.38-.82-.76-.82-.76a2.33,2.33,0,0,1,2,2.42C47.57,8.5,45.61,9.84,44,9.84Z"/><path class="cls-3" d="M43.67-4.27c.44.18,1.41.86,1.49,1.67s-.41,1.69-.29,2.14a1.37,1.37,0,0,0,.82,1,2.83,2.83,0,0,1-1.88,1c-1.43.27-1.52-.54-1.4-1.13.31-1.6,1.77-1.58,1.83-3.07A1.72,1.72,0,0,0,43.67-4.27Z"/><path class="cls-3" d="M42.68-1.26c-2,2-.58,3.12-.58,3.12A1.27,1.27,0,0,1,40.77.14,2.27,2.27,0,0,1,42.68-1.26Z"/><path class="cls-3" d="M46.8,4a2.73,2.73,0,0,1,1.47,1.74,2.91,2.91,0,0,1-.74,3c.55-.17,1.52-.6,1.52-2.44A2.46,2.46,0,0,0,46.8,4Z"/><path class="cls-3" d="M39.44,5.36c-.59,1.9.13,3.39,1.52,4-1-.2-1.76-.5-2.06-1.36A3,3,0,0,1,39.44,5.36Z"/><path class="cls-4" d="M44,9.84a3.47,3.47,0,0,1-3.24-3.51c.57,1.63,1.58,1.86,1.58,1.86a2.47,2.47,0,0,1-.26-2.83A2.07,2.07,0,0,0,44,7.6a1.65,1.65,0,0,0,1.49-1.67,2.14,2.14,0,0,1-.33,2.35A3.71,3.71,0,0,0,46.8,7C46.88,8.45,44.93,9.84,44,9.84Z"/><path class="cls-5" d="M44,9.84a2.28,2.28,0,0,1-1.43-1c.43.23.88-.39.66-.9a1.7,1.7,0,0,0,2,.63C45.19,9.24,44.52,9.68,44,9.84Z"/><path class="cls-4" d="M43.21.86c-.5.17-.5-1,.45-1.81C43.66-.36,43.71.68,43.21.86Z"/></g><path class="cls-6" d="M25.87,19c1-.66,10.92-7,11.14-7.1a1.51,1.51,0,0,0-.38-.14l-.43-.5c-.18.05-11,7-12,7.66Z"/><path class="cls-6" d="M60.67,19l1.44-.09c-.73-.53-10.82-7.86-11-7.91l-1.44.26.36.07Z"/><path class="cls-7" d="M52.79,8.8v4.13h-18V8.48a12.39,12.39,0,0,1,3.94-.71A64.37,64.37,0,0,1,50.53,8S52.25,8.1,52.79,8.8Z"/><ellipse class="cls-8" cx="43.78" cy="12.51" rx="9.01" ry="1.79"/><path class="cls-8" d="M35.24,9.16C35,9.16,4,4,2.57,3.6"/><path class="cls-6" d="M35.24,9.62V9.16l0-.46c-.2,0-30.55-5-32.12-5.45L.54,3.68C1.51,3.94,34.68,9.62,35.24,9.62Z"/><path class="cls-8" d="M52,8.72c.29,0,27-4,30.19-4"/><path class="cls-6" d="M52,9.18c.09,0,.38,0,4.14-.58C63.82,7.49,85.39,4.2,87.8,4.17L85,3.64c-2.48,0-21.34,2.94-29,4.05-2.17.31-3.89.56-4,.57Z"/></svg>