<svg id="Layer_1" data-name="Layer 1" xmlns="http://www.w3.org/2000/svg" xmlns:xlink="http://www.w3.org/1999/xlink" viewBox="0 0 79.97 17.87"><defs><style>.cls-1{fill:none;}.cls-2{clip-path:url(#clip-path);}.cls-3{fill:#ff6425;}.cls-4{fill:#ffa724;}.cls-5{fill:#fff18b;}.cls-6{fill:#281b17;}.cls-7{fill:#473a3a;}.cls-8{fill:#5e5454;}</style><clipPath id="clip-path"><path class="cls-1" d="M33.42.64s9-.06,10.8.12c0,0,3.21,3.73.78,6.79s-6,5.27-8.86,4S30.53,4.39,33.42.64Z"/></clipPath></defs><g class="cls-2"><path class="cls-3" d="M39.45,8.67c-1.93,0-4.75-1.28-4.75-4.2,0-2.51,1.51-3.1,1.51-3.1a3.42,3.42,0,0,0-.51,1,2.08,2.08,0,0,0,0,1.71,1.24,1.24,0,0,0,1.14.64,1.28,1.28,0,0,0,.93-1C38,2.6,36.61,2.15,36.62,1c0-1.58,2.26-2.68,2.26-3.84a1.62,1.62,0,0,0-.19-.88,1.21,1.21,0,0,1,.84,1c0,.92-.84,1.91-.84,2.83s.6,1,.84,1,1-.31,1-1.38a1.62,1.62,0,0,0-.74-1.46s2.09.43,2.09,2.15a4,4,0,0,1-.18,1.17c-.36,1.12-1,1.34-.91,2.09a1.26,1.26,0,0,0,.48.94.87.87,0,0,0,.39.11c.38,0,.83-.49.83-1.28A1.58,1.58,0,0,0,42,2.2c.27.12,1.4.47,1.4,2.81S40.87,8.67,39.45,8.67Z"/><path class="cls-4" d="M39.45,8.67c-1.63,0-3-1.79-3.21-2.61a1.15,1.15,0,0,0,2.06-.67,3.6,3.6,0,0,1,2-2.74c-1,1.16-1.06,3.08.21,3.42,1.11.3,2.1-1.07,2.1-1.07C42.12,7.22,40.65,8.67,39.45,8.67Z"/><path class="cls-5" d="M39.45,8.67c-.18.08-2.31-1.12-.26-3.22-.36,1.13.05,1.8.51,2.06a1.89,1.89,0,0,0,1.2-.93A2.34,2.34,0,0,1,39.45,8.67Z"/></g><path class="cls-6" d="M22.92,17c.85-.59,9.83-6.43,10-6.54a1.75,1.75,0,0,0-.33-.13l-.38-.44c-.16,0-9.93,6.48-10.75,7Z"/><path class="cls-6" d="M53.85,17.24l1.28-.08c-.65-.47-9.6-7.47-9.78-7.51l-1.26.22.31.07C44.58,10.06,53.15,16.74,53.85,17.24Z"/><path class="cls-7" d="M46.86,7.75v3.64H31V7.47a10.71,10.71,0,0,1,3.47-.62A56.79,56.79,0,0,1,44.86,7S46.38,7.13,46.86,7.75Z"/><ellipse class="cls-8" cx="38.91" cy="11.03" rx="7.94" ry="1.58"/><path class="cls-8" d="M31.38,8.07c-.25,0-27.27-4.35-28.51-4.68"/><path class="cls-6" d="M31.38,8.47v-.4l0-.4c-.18,0-26.65-4.22-28-4.6l-2.31.38C1.94,3.68,30.89,8.47,31.38,8.47Z"/><path class="cls-8" d="M46.16,7.68c.25,0,23.78-3.5,26.61-3.54"/><path class="cls-6" d="M46.16,8.09l3.65-.51c6.76-1,27-4.13,29.08-4.16L76.19,3C74,3,56.47,5.8,49.69,6.77l-3.56.51Z"/></svg>