<svg id="Layer_1" data-name="Layer 1" xmlns="http://www.w3.org/2000/svg" viewBox="0 0 11.96 5.96"><defs><style>.cls-1{fill:#7b2f2c;}.cls-2{fill:#f48a71;}.cls-3{fill:#fff;}.cls-4{fill:#f5968e;}.cls-5{fill:#f48678;}.cls-6{fill:#e9a597;opacity:0.5;}</style></defs><g id="uh"><path class="cls-1" d="M6,2.18A26.32,26.32,0,0,1,.79,1.86S3.41,5,4,5.08a18.17,18.17,0,0,0,4.55-.41,9.25,9.25,0,0,0,2.31-2.44A2.56,2.56,0,0,0,11.33.57,20.81,20.81,0,0,1,6,2.18Z"/><path class="cls-2" d="M4.71,4.52a2.84,2.84,0,0,0,1.91.24,3.35,3.35,0,0,0,1.81-.64C8.31,3.73,7.13,3.76,7,3.8,6.49,4,5.87,3.87,5.55,4S4.8,4.24,4.71,4.52Z"/><path class="cls-3" d="M8.37,4.05c-.7,0-3.14.35-3.6.46-.23.06-.95-.07-1.08.1l2.62.52L9.56,3.92C9.23,3.76,8.76,4,8.37,4.05Z"/><path class="cls-4" d="M11.35.72c-.08-.34-.23,0-.23,0A5.33,5.33,0,0,1,6.63,4.54C3.22,4.78,1,2.35,1,2c0,0-.2-.16-.22,0a5.71,5.71,0,0,0,6,3.61C10.53,5.14,11.43,1.06,11.35.72Z"/><path class="cls-3" d="M10.1,1.31c0-.13-.62,0-.75.07a3.11,3.11,0,0,1-.87.18c-.07,0-2,.44-2,.44s-2.34.08-2.41.1S2.32,2,2.32,2a5.43,5.43,0,0,0,.86.88,7.45,7.45,0,0,0,3.47.22A6.53,6.53,0,0,0,9.4,2.21,1.54,1.54,0,0,0,10.1,1.31Z"/><path class="cls-5" d="M11.38.64c-.05-.17-.2,0-.2,0A17.8,17.8,0,0,1,6.31,1.82a17.81,17.81,0,0,1-5.18,0,.34.34,0,0,0-.34,0c-.35.45,2.82.63,5.56.28S11.44.8,11.38.64Z"/><path class="cls-6" d="M.85,1.65c.15-.22-.1-.21-.21,0a1,1,0,0,0,0,.6A3.92,3.92,0,0,1,.85,1.65Z"/><path class="cls-6" d="M11.21.39c-.25-.11,0-.23.17-.11s.21.5.21.5C11.32.44,11.29.43,11.21.39Z"/></g></svg>