<svg id="Layer_1" data-name="Layer 1" xmlns="http://www.w3.org/2000/svg" xmlns:xlink="http://www.w3.org/1999/xlink" viewBox="0 0 83 17"><defs><style>.cls-1{fill:none;}.cls-2{clip-path:url(#clip-path);}.cls-3{fill:#eb652f;}.cls-4{fill:#f6a42c;}.cls-5{fill:#fff18b;}.cls-6{fill:#281b17;}.cls-7{fill:#473a3a;}.cls-8{fill:#5e5454;}</style><clipPath id="clip-path"><path class="cls-1" d="M33.86.31S45.23.23,47.5.46c0,0,4,4.72,1,8.58s-7.56,6.65-11.2,5S30.21,5,33.86.31Z"/></clipPath></defs><g class="cls-2"><path class="cls-3" d="M41.47,10.44c-2.44,0-6-1.61-6-5.3,0-3.17,1.9-3.91,1.9-3.91a4.5,4.5,0,0,0-.65,1.29,2.6,2.6,0,0,0,0,2.15,1.58,1.58,0,0,0,1.43.82,1.66,1.66,0,0,0,1.18-1.27c.35-1.44-1.45-2-1.44-3.52,0-2,2.86-3.38,2.86-4.85a2,2,0,0,0-.25-1.11,1.54,1.54,0,0,1,1.07,1.32c0,1.16-1.07,2.4-1.07,3.56S41.27.84,41.58.84c.46,0,1.24-.4,1.24-1.75a2.06,2.06,0,0,0-.93-1.84S44.53-2.2,44.53,0a4.88,4.88,0,0,1-.23,1.47c-.45,1.42-1.22,1.69-1.15,2.65a1.59,1.59,0,0,0,.61,1.18,1.08,1.08,0,0,0,.49.13c.48,0,1-.6,1-1.61a2,2,0,0,0-.66-1.51c.34.15,1.77.59,1.77,3.55S43.27,10.44,41.47,10.44Z"/><path class="cls-4" d="M41.47,10.44c-2.06,0-3.74-2.25-4.06-3.29A1.45,1.45,0,0,0,40,6.3,4.52,4.52,0,0,1,42.6,2.85c-1.21,1.46-1.35,3.89.26,4.32,1.4.37,2.65-1.36,2.65-1.36C44.85,8.62,43,10.44,41.47,10.44Z"/><path class="cls-5" d="M41.47,10.44c-.22.11-2.92-1.41-.33-4.06-.45,1.43.07,2.27.65,2.61A2.41,2.41,0,0,0,43.3,7.81,2.93,2.93,0,0,1,41.47,10.44Z"/></g><path class="cls-6" d="M25.19,16.66c.94-.61,9.14-6.13,9.35-6.24a2.21,2.21,0,0,0-.37-.14l-.42-.46c-.18,0-9.07,6.19-10,6.78Z"/><path class="cls-6" d="M56,16.7l1.41-.08c-.72-.49-9-7-9.16-7.08l-1.4.24.35.07C47.4,10,55.23,16.18,56,16.7Z"/><path class="cls-7" d="M49.91,6.1V9.92H32.36V5.8a12.43,12.43,0,0,1,3.84-.65,65.3,65.3,0,0,1,11.51.2S49.39,5.45,49.91,6.1Z"/><ellipse class="cls-8" cx="41.14" cy="9.54" rx="8.78" ry="1.66"/><path class="cls-8" d="M32.81,7.88c-.28,0-28.9-4.25-30.28-4.6"/><path class="cls-6" d="M32.81,8.31V7.88l0-.42c-.19,0-28-4.09-29.52-4.48l-2.21.4C2.07,3.63,32.27,8.31,32.81,8.31Z"/><path class="cls-6" d="M49.14,7.9c.09,0,.37,0,4-.53,7.48-1,26.36-3.86,28.71-3.9l-3-.57c-2.41,0-18.31,2.6-25.8,3.63l-3.94.53Z"/></svg>