<svg id="Layer_1" data-name="Layer 1" xmlns="http://www.w3.org/2000/svg" viewBox="0 0 50.1 52.26"><defs><style>.cls-1,.cls-6{fill:#3d2d16;}.cls-1{stroke:#3d2d16;}.cls-1,.cls-3{stroke-miterlimit:10;stroke-width:0.25px;}.cls-2{fill:#fff;}.cls-3,.cls-9{fill:#fad2c6;}.cls-3{stroke:#323232;}.cls-4{fill:#dc9e8f;}.cls-5{fill:#e8d860;}.cls-7{fill:#a67d48;}.cls-8{fill:#ef4b3b;}.cls-10{fill:#323232;}.cls-11{fill:#f49990;}</style></defs><path class="cls-1" d="M10.5,44.37c2.33,7.47,9.55,7.32,20.83,3.16.1,0,1,2.09,1.06,2,10-3.78,16.75-5,14.24-18.63-1.43-7.77-12.55-11.07-22.78-7.87S8.14,36.82,10.5,44.37Z"/><path class="cls-1" d="M9.44,30.51C9.23,31,8,45.5,14,49.22a10.77,10.77,0,0,0,8.32,1.15Z"/><path class="cls-2" d="M21.39,44.86s-3.4.29-4.6,2.82C17.81,48.05,18.84,48.55,21.39,44.86Z"/><path class="cls-3" d="M9.59,33.93c0-.07.1,0,.05.06s-.12,0-.16-.07a4.2,4.2,0,0,0-1.83-1.21,1.62,1.62,0,0,0-1.46.08,2,2,0,0,0-.48,2.06,6.85,6.85,0,0,0,1.67,3.21c1.43,1.54,3.73,2.33,5.55,1.45"/><path class="cls-4" d="M8.05,35.08a6.36,6.36,0,0,1,.78.49c.19.15.41.39.34.63s-.29.29-.32.5a.43.43,0,0,0,.37.45c.19,0,.38,0,.58,0a.86.86,0,0,1,.65.53.77.77,0,0,1,.06.33.5.5,0,0,1-.5.45,1.45,1.45,0,0,1-.69-.27,6.25,6.25,0,0,1-1.38-1.09C7.33,36.42,6.3,34.13,8.05,35.08Z"/><path class="cls-5" d="M11.57,38.68s2.17,2.07,1.09,3.17-2-2-2-2,1.4,2.28,1.14.56Z"/><path class="cls-3" d="M6.16,27.59c.19.23,2.93,9.08,4,13.29C11.43,45.82,17.73,51,23.6,50.42c7.2-.75,13.33-4.12,15.74-10.12s.75-13.64.75-13.64S44.74,18,37,12.35s-16.29-7.19-26.45-3S6.16,27.59,6.16,27.59Z"/><path class="cls-4" d="M33.14,21.94c-.38-.12-9-5.74-9-5.74s4.36,3.66,2.31,3.66c-.57,0-5.76-1.54-7.68-3.36,0,0,1.21,3.13,3,3.42,0,0-7.13,1.85-10.32-3.38,0,0,1.4,2.82-3.65,6.32C4,25.57,7.2,30.53,7.2,30.53L4,19.38,8,13.65l11.6-2.84,10.07,1.28,4.8,7.34,5.61,7.23Z"/><path class="cls-1" d="M7.77,32.52c-.38-1.59-1-6.44-.35-8,1.31-3,3.39-3.8,4.54-5,.73-.75.15-3.52.77-4.37s0,1.12,0,0c.73,1.6.65,2.74,2.3,3.35a12.47,12.47,0,0,0,4.86.69A7.42,7.42,0,0,1,17.6,17a14.58,14.58,0,0,1-1-3.48,19,19,0,0,0,10.17,5.77,8.79,8.79,0,0,1-3.32-4.79,2.87,2.87,0,0,1,1.5.76,55.57,55.57,0,0,0,8.12,5.65c0-.48.18-.92.15-1.4,1.59,3,7.18,8.29,7.12,8.1,0,0,2.52,15.33-7.41,21.78a25.18,25.18,0,0,0,9.93-3c5.67-3,8.38-9.49,3.8-18.77S44.16,14,40.48,8.59c-4.37-6.48-17-13.45-33.08.32,0,0-8,4.42-1.94,19.89A38,38,0,0,0,7.77,32.52Z"/><path class="cls-6" d="M13.2,24.68S10.14,24.45,9,26.84a.1.1,0,0,1-.19,0,2.54,2.54,0,0,1,1.87-2.72C13.54,23.1,13.2,24.68,13.2,24.68Z"/><path class="cls-6" d="M24.56,22.52s3.25-1.07,5.19.9c.08.08.23,0,.2-.09a2.71,2.71,0,0,0-2.87-2.08C23.72,21.11,24.56,22.52,24.56,22.52Z"/><path class="cls-7" d="M18.37,32.49a2.78,2.78,0,0,1,.77,2.24,3.07,3.07,0,0,1-.37,1.19,2.5,2.5,0,0,0-.4,1,1.2,1.2,0,0,0,1.24,1.24,3.3,3.3,0,0,0,2.08-.64l0,0h0a1.24,1.24,0,0,0,.61-.32.55.55,0,0,0,0-.67.83.83,0,0,1,.18.35.53.53,0,0,1-.08.4,1.34,1.34,0,0,1-.66.49l0,0a3.38,3.38,0,0,1-2.28.89,2,2,0,0,1-1.22-.48,1.43,1.43,0,0,1-.46-1.27,2.76,2.76,0,0,1,.49-1.17,2.91,2.91,0,0,0,0-3.21Z"/><path class="cls-8" d="M5.47,10.56A20.38,20.38,0,0,1,12.6,7.24c12.23-3,24.9,5.84,28.3,19.73.07.26.13.53.19.8.41-.2.83-.38,1.26-.55-.08-.39-.17-.78-.27-1.18C38.68,12.15,26,3.32,13.78,6.32A20.34,20.34,0,0,0,5.47,10.56Z"/><path class="cls-9" d="M40.4,28.18c0-.06-.09.08,0,.08s.11-.07.14-.14a4.55,4.55,0,0,1,1.33-2,2.31,2.31,0,0,1,1.59-.67A2,2,0,0,1,45,27a5.93,5.93,0,0,1-.16,3.65,6.19,6.19,0,0,1-5.17,4.08"/><path class="cls-10" d="M40.4,28.18s-.06.06,0,.07.07,0,.09-.06a1.6,1.6,0,0,0,.08-.26,5.49,5.49,0,0,1,.21-.51,4.07,4.07,0,0,1,.59-1,3,3,0,0,1,1.93-1.2,1.61,1.61,0,0,1,1.15.39,2.63,2.63,0,0,1,.68,1,5.65,5.65,0,0,1,.36,2.26A6.39,6.39,0,0,1,43.65,33a6.91,6.91,0,0,1-1.82,1.31,5.39,5.39,0,0,1-2.16.48,6.13,6.13,0,0,0,3.7-2A6.2,6.2,0,0,0,45,28.87a5.12,5.12,0,0,0-.28-2.06,1.6,1.6,0,0,0-1.4-1.16,2.72,2.72,0,0,0-1.76,1,4.6,4.6,0,0,0-.66.85c-.09.15-.17.32-.25.48a1.42,1.42,0,0,1-.12.25.11.11,0,0,1-.13.06S40.36,28.13,40.4,28.18Z"/><path class="cls-4" d="M42.62,28.41a6.85,6.85,0,0,0-.58.83c-.13.23-.24.55,0,.73s.46.1.61.27,0,.45-.17.58-.42.17-.62.29a1,1,0,0,0-.42.81.57.57,0,0,0,.1.31.62.62,0,0,0,.76.14,1.67,1.67,0,0,0,.6-.58,6.07,6.07,0,0,0,.91-1.65C44.07,29.22,44,26.7,42.62,28.41Z"/><path class="cls-5" d="M40.7,33.34s-1.26,2.92.45,3.34,1.05-2.76,1.05-2.76-.33,2.71-.92,1.07Z"/><path class="cls-8" d="M36.89,11.17s8.66.64,5.78,4.92-7.77,5.81-8.29-2.68c-.32-5.33-1.77-1.36-1.77-1.36S21.8,9.46,29.2,4.35c6.84-4.73,5.39,5,5.39,5S36.79,7.75,36.89,11.17Z"/><ellipse class="cls-11" cx="32.16" cy="4.02" rx="0.78" ry="0.67" transform="translate(0.01 8.07) rotate(-14.31)"/><ellipse class="cls-11" cx="40.66" cy="13.14" rx="0.78" ry="0.67" transform="translate(-1.99 10.46) rotate(-14.31)"/><ellipse class="cls-11" cx="41.93" cy="15.16" rx="0.78" ry="0.67" transform="translate(-2.45 10.84) rotate(-14.31)"/><ellipse class="cls-11" cx="38.54" cy="14.77" rx="0.78" ry="0.67" transform="translate(-2.45 9.98) rotate(-14.31)"/><ellipse class="cls-11" cx="36.05" cy="14.12" rx="0.78" ry="0.67" transform="translate(-2.37 9.35) rotate(-14.31)"/><ellipse class="cls-11" cx="36.76" cy="17.14" rx="0.78" ry="0.67" transform="translate(-3.09 9.62) rotate(-14.31)"/><ellipse class="cls-11" cx="39.63" cy="17.16" rx="0.78" ry="0.67" transform="translate(-3.01 10.33) rotate(-14.31)"/><ellipse class="cls-11" cx="38.01" cy="12.52" rx="0.78" ry="0.67" transform="translate(-1.92 9.78) rotate(-14.31)"/><ellipse class="cls-11" cx="33.81" cy="6.44" rx="0.78" ry="0.67" transform="translate(-0.54 8.56) rotate(-14.31)"/><ellipse class="cls-11" cx="28.49" cy="7.42" rx="0.78" ry="0.67" transform="translate(-0.95 7.27) rotate(-14.31)"/><ellipse class="cls-11" cx="29.37" cy="4.99" rx="0.78" ry="0.67" transform="translate(-0.32 7.41) rotate(-14.31)"/><ellipse class="cls-11" cx="31.3" cy="6.71" rx="0.78" ry="0.67" transform="translate(-0.69 7.95) rotate(-14.31)"/><ellipse class="cls-11" cx="32.91" cy="8.47" rx="0.78" ry="0.67" transform="translate(-1.07 8.4) rotate(-14.31)"/><ellipse class="cls-11" cx="30.39" cy="9.29" rx="0.78" ry="0.67" transform="translate(-1.35 7.8) rotate(-14.31)"/><ellipse class="cls-11" cx="32.17" cy="10.35" rx="0.78" ry="0.67" transform="translate(-1.56 8.27) rotate(-14.31)"/><ellipse class="cls-8" cx="34.72" cy="11.3" rx="2.4" ry="1.8" transform="translate(2.41 28.31) rotate(-45.8)"/></svg>