<svg id="Layer_1" data-name="Layer 1" xmlns="http://www.w3.org/2000/svg" viewBox="0 0 62.71 44.12"><defs><style>.cls-1{fill:#f6fbfd;stroke:#323232;stroke-miterlimit:10;}.cls-2{fill:#ce9685;}.cls-3{fill:#451f16;}.cls-4{fill:#fff;}</style></defs><path class="cls-1" d="M10.34,28.2a8.38,8.38,0,0,0,9.7,6,7.39,7.39,0,0,0,6-9,8.37,8.37,0,0,0-9.7-6A7.38,7.38,0,0,0,10.34,28.2Z"/><path class="cls-2" d="M13.74,33.5a10,10,0,0,1-4-6.09c-.85-3.64,2-7.88,6.53-8.51,2.09-.29,3.95-.54,7.48,1.8a8.29,8.29,0,0,0-9.32-2.09c-3.09,1.11-5.72,3.83-5.64,7.52C8.91,29.18,11.23,33.2,13.74,33.5Z"/><path class="cls-3" d="M18,24.94c.68,2.58,3,4.59,5.14,4.47s3.36-2.29,2.68-4.88-3-4.59-5.13-4.48S17.32,22.35,18,24.94Z"/><path class="cls-4" d="M16.87,23.05a1.46,1.46,0,0,0,1.3,1.49,1.29,1.29,0,0,0,1.38-1.29,1.46,1.46,0,0,0-1.31-1.49A1.29,1.29,0,0,0,16.87,23.05Z"/><path class="cls-1" d="M52.34,15.49a7.67,7.67,0,0,1-3.4,9.87,6.76,6.76,0,0,1-9.3-3.43A7.65,7.65,0,0,1,43,12.06,6.77,6.77,0,0,1,52.34,15.49Z"/><path class="cls-2" d="M52.72,21.83c1.16-2,.59-5.15-.32-7.16a6.73,6.73,0,0,0-9.29-3.16c-1.78.87-3.39,1.58-4.42,5.53.15-4,2.78-6,5.59-6.91s6.57-.27,8.38,3C54.24,16.06,54.27,20.15,52.72,21.83Z"/><path class="cls-3" d="M52.74,16.72c-.81-2.63-3.17-4.72-5.27-4.66s-3.12,2.24-2.31,4.87,3.18,4.72,5.27,4.66S53.56,19.35,52.74,16.72Z"/><path class="cls-4" d="M43.41,15.35a1.47,1.47,0,0,0,1.42,1.5,1.44,1.44,0,0,0,1.54-1.35,1.48,1.48,0,0,0-3-.15Z"/><path class="cls-2" d="M16.38,19.22a7.38,7.38,0,0,0-6,9,7.77,7.77,0,0,0,1.71,3.25c3-2.36,9-6.51,13.87-6.77A8.4,8.4,0,0,0,16.38,19.22Z"/><path class="cls-2" d="M52.91,17.52a7.42,7.42,0,0,0-.57-2A6.77,6.77,0,0,0,43,12.06a7.66,7.66,0,0,0-3.45,9.75C42.17,20.37,48,17.46,52.91,17.52Z"/></svg>