<svg id="Layer_1" data-name="Layer 1" xmlns="http://www.w3.org/2000/svg" viewBox="0 0 10.53 5.66"><defs><style>.cls-1{fill:#f5968e;}.cls-2{fill:#f48678;}.cls-3{fill:#765a47;}.cls-4{fill:#e9a597;opacity:0.5;}</style></defs><g id="neutral"><path class="cls-1" d="M9,3.37a8,8,0,0,1-3.9.41A7.79,7.79,0,0,1,1.61,1.91,15.13,15.13,0,0,0,5.14,3.25,26.78,26.78,0,0,0,9,3.37Z"/><path class="cls-2" d="M9.08,3.33a27.5,27.5,0,0,1-4-.25A21.5,21.5,0,0,1,1.53,1.86,8.33,8.33,0,0,0,5,3.42,9.72,9.72,0,0,0,9.08,3.33Z"/><path class="cls-3" d="M1.47,1.82A12,12,0,0,0,5.15,3.45a9.38,9.38,0,0,0,3.9-.11,10.22,10.22,0,0,1-3.9.11A10.79,10.79,0,0,1,1.47,1.82Z"/><path class="cls-4" d="M1.49,1.58c.12-.18-.09-.17-.17,0a.79.79,0,0,0,0,.48A4.45,4.45,0,0,1,1.49,1.58Z"/><path class="cls-4" d="M9.21,3.1c-.08-.2.12-.15.17,0s-.16.42-.16.42C9.25,3.2,9.24,3.17,9.21,3.1Z"/></g></svg>