<svg id="Layer_1" data-name="Layer 1" xmlns="http://www.w3.org/2000/svg" viewBox="0 0 34.52 36.97"><defs><style>.cls-1{fill:#fbd3c7;}.cls-1,.cls-2{stroke:#323232;stroke-miterlimit:10;stroke-width:0.25px;}.cls-2{fill:none;}.cls-3{fill:#dc9e8f;}</style></defs><path class="cls-1" d="M33.09,6.52A7.7,7.7,0,0,1,32,7.88a2.79,2.79,0,0,1-.83.6C29,12.62,21.58,19.07,19.63,20.36s-3.24,2.72-3.05,4.57c.36,3.47.7,3.53.3,4.67s1,2.36,0,2.62-2.23-1.45-2.18-3.1-.48-1.41-.48-1.41C9.08,31.62,6.6,37,6,35.85s.72-3.19.72-3.19-1.21-3.21-.91-4.24,2-4,5.92-7.14,10.08-13.59,12-16.42c.52-.77.91-1.4,1.19-1.91.85-1.55,1.12-2,1.21-1.85C28.23,5.26,33.09,6.52,33.09,6.52Z"/><path class="cls-2" d="M6.62,32.6a23.77,23.77,0,0,0,1.93-3.92"/><path class="cls-2" d="M6.31,31.49a10.73,10.73,0,0,1,1-3.73"/><path class="cls-2" d="M5.9,30.11A11.31,11.31,0,0,1,6.38,28"/><path class="cls-3" d="M32.91,6.63a6.17,6.17,0,0,1-1.09,1.22,14.08,14.08,0,0,1-7-4.44C25.66,1.86,25.93,1.13,26,1.3,28.05,5.08,32.91,6.63,32.91,6.63Z"/></svg>