<svg id="Layer_1" data-name="Layer 1" xmlns="http://www.w3.org/2000/svg" viewBox="0 0 110.75 89.04"><defs><style>.cls-1{fill:#fad2c6;stroke:#5f4a43;}.cls-1,.cls-3{stroke-miterlimit:10;}.cls-2{fill:#d6a398;}.cls-3{fill:#facc35;stroke:#323232;}</style></defs><path class="cls-1" d="M97.82,63.4,89.54,75.59a55.45,55.45,0,0,1-15.92-7c-11-7-19.67-16.76-30.94-24.32C41,43.11,39.18,42,37.31,41c-1.46-.81,6.93-11.89,8.34-11,1.94,1.22,3.91,2.4,5.86,3.54C60,38.5,68.46,42.84,76,47.05,84,51.58,91,56,95.61,60.82c.07.06.14.14.21.21A27.3,27.3,0,0,1,97.82,63.4Z"/><path class="cls-1" d="M51.51,33.51c.52-2.66.7-11.09,1.48-21.14.13-1.59-3.25-.45-4.24,1.5-2.12,4.18-1.48,5.79-2.74,7.84s-3,1.34-4.76-.14C35,12,32.46,5.86,29,6.23c-2.78.76.63,7.92,4.85,15.81-7.46-6.24-14-10.62-15.28-8.44C17,16.19,23.36,21.69,28.67,27.21c-7.36-.88-14.74-3.9-15.21,0-.34,2.82,14.85,6.46,13.38,8.74-.52.81-2,1-4.3,1.35-2,.32-5,.7-6.08,1.77s.05,2.32,2.37,2.77c3.83.74,12.53,2.09,16.9,2.45,2.54.38,4.66.9,7,0"/><path class="cls-1" d="M44.82,22.82c-.43.12-6.28,1.17-4.53,9.14"/><path class="cls-2" d="M97.82,64.92,89.54,77.11C83.52,75.56,78,71,73.25,68.05a51.38,51.38,0,0,1,4-19.28C85.28,53.3,91,57.49,95.61,62.34a2.91,2.91,0,0,1-1.09.6c.43-.14.86-.27,1.3-.39A28.88,28.88,0,0,1,97.82,64.92Z"/><path class="cls-3" d="M106.54,61.81,81.44,48S75.55,61.1,75.85,74.52l16.54,8.3"/></svg>