<svg id="Layer_1" data-name="Layer 1" xmlns="http://www.w3.org/2000/svg" xmlns:xlink="http://www.w3.org/1999/xlink" viewBox="0 0 30 15"><defs><style>.cls-1{fill:none;}.cls-2{fill:#dc9e8f;}.cls-3{fill:#f6fbfd;stroke:#323232;stroke-miterlimit:10;stroke-width:0.44px;}.cls-4{fill:#451f16;}.cls-5{fill:#fff;}.cls-6{fill:#efbfb4;}.cls-7{clip-path:url(#clip-path);}.cls-8{fill:#eb652f;}</style><clipPath id="clip-path"><path class="cls-1" d="M-6.14,23.4s17.4-.11,20.88.23c0,0,6.2,7.23,1.5,13.14S4.67,47-.9,44.43-11.74,30.65-6.14,23.4Z"/></clipPath></defs><circle class="cls-2" cx="6.89" cy="9.26" r="4.74"/><path class="cls-3" d="M2.65,9.55a4.46,4.46,0,0,0,4.29,4.61c2.46.09,4.5-1.06,4.59-3.52s-1.8-5.3-4.26-5.39A4.47,4.47,0,0,0,2.65,9.55Z"/><ellipse class="cls-4" cx="6.28" cy="11.4" rx="2.17" ry="2.52" transform="matrix(0.95, -0.3, 0.3, 0.95, -3.15, 2.43)"/><circle class="cls-5" cx="4.33" cy="10.34" r="0.77"/><ellipse class="cls-2" cx="22.91" cy="5.59" rx="4.95" ry="4.74" transform="translate(-0.67 6.03) rotate(-14.78)"/><path class="cls-3" d="M27.28,4.92a4.46,4.46,0,0,1-3.17,5.45c-2.38.63-4.62,0-5.25-2.43s.6-5.56,3-6.19A4.45,4.45,0,0,1,27.28,4.92Z"/><ellipse class="cls-4" cx="21.96" cy="7.92" rx="2.09" ry="2.47" transform="matrix(0.98, -0.18, 0.18, 0.98, -1.06, 4.03)"/><circle class="cls-5" cx="20.3" cy="6.79" r="0.77"/><path class="cls-6" d="M2.65,9.55c-.09,2.45.61-2.45,4.46-2s4.39,3.76,4.42,3.11c.12-2.46-1.8-5.3-4.26-5.39A4.47,4.47,0,0,0,2.65,9.55Z"/><path class="cls-6" d="M27.28,4.92c.63,2.38-.67-1.86-4.79-1.06s-3,6.46-3.63,4.08.6-5.56,3-6.19A4.45,4.45,0,0,1,27.28,4.92Z"/><g class="cls-7"><path class="cls-8" d="M3.09,14.88a3,3,0,0,1,.9,2c0,1-2.95,2.72-2.95,5s1.47,2.57,1.47,4.88A1.63,1.63,0,0,1,1,28.49c-.6,0-1.27-.37-1.27-1.85A2.75,2.75,0,0,1,1,24.42a3.92,3.92,0,0,0-2.8,3.84c0,2.58,3.58,2.69,3.58,4.85,0,1.23-.59,1.79-1.56,1.79S-1,33.93-1,33.34s.85-1.57.85-1.57c-.67.3-2.38.63-2.38,2.8S0,38.93,4.58,38.93s7.31-3.69,7.31-6A3.37,3.37,0,0,0,9.5,29.83,3.38,3.38,0,0,1,10.36,32a1.61,1.61,0,0,1-1.6,1.67c-.92,0-1.5-.81-1.5-2,0-2.38,3.29-3.08,3.29-5.95a3.75,3.75,0,0,0-1.61-3.15,4.75,4.75,0,0,1,.41,2c0,.71-.63,1.76-1.52,1.76s-1.24-.59-1-1.53c.18-.75.56-.89.89-1.55a3,3,0,0,0,.15-2.34A4.47,4.47,0,0,0,5.7,18.94h0a3.06,3.06,0,0,1,1.08,2.32,1.33,1.33,0,0,1-1.45,1.38c-.52,0-1.34-.23-1.34-1.5,0-.85.5-1.07.82-2a3.9,3.9,0,0,0,.12-2A3.72,3.72,0,0,0,3.09,14.88Z"/></g></svg>