<svg id="Layer_1" data-name="Layer 1" xmlns="http://www.w3.org/2000/svg" viewBox="0 0 59.38 61.14"><defs><style>.cls-1,.cls-2,.cls-7{fill:#3d2d16;}.cls-1,.cls-2{stroke:#3d2d16;}.cls-1,.cls-2,.cls-4{stroke-miterlimit:10;}.cls-2,.cls-4{stroke-width:0.25px;}.cls-3{fill:#fff;}.cls-10,.cls-4{fill:#fad2c6;}.cls-4{stroke:#323232;}.cls-5{fill:#dc9e8f;}.cls-6{fill:#e8d860;}.cls-8{fill:#a67d48;}.cls-9{fill:#ef4b3b;}.cls-11{fill:#323232;}.cls-12{fill:#f49990;}</style></defs><path class="cls-1" d="M12.63,51.65c2.52,8.83,12.53,6.12,25.85,1.62.17-.06-.26,5.06-.08,5C50.3,54.12,58.08,53,55.53,36.93,54.07,27.74,41.09,23.54,29,27S10.08,42.7,12.63,51.65Z"/><path class="cls-2" d="M11.79,35.31c-.26.52-2.26,17.79,4.81,22.15a11.34,11.34,0,0,0,10.87.43Z"/><path class="cls-3" d="M25.43,52.54s-4,.25-5.5,3.18C21.12,56.19,22.32,56.81,25.43,52.54Z"/><path class="cls-4" d="M11.86,39.34c0-.08.12,0,.06.08s-.13,0-.18-.09a5,5,0,0,0-2.12-1.49,2,2,0,0,0-1.72.06,2.36,2.36,0,0,0-.62,2.41,7.88,7.88,0,0,0,1.86,3.82C10.78,46,13.46,47,15.63,46"/><path class="cls-5" d="M10,40.64a7.5,7.5,0,0,1,.9.61c.23.18.48.47.39.75s-.35.33-.4.58a.5.5,0,0,0,.42.54c.23.05.46,0,.68,0a1,1,0,0,1,.76.66,1,1,0,0,1,.06.37.58.58,0,0,1-.6.52,1.64,1.64,0,0,1-.81-.34A6.86,6.86,0,0,1,9.83,43C9.13,42.2,8,39.48,10,40.64Z"/><path class="cls-6" d="M14.05,45s2.5,2.5,1.19,3.77S13,46.32,13,46.32s1.58,2.73,1.32.7Z"/><path class="cls-4" d="M8,31.78c.23.28,3.19,10.77,4.34,15.76,1.34,5.85,8.59,12.17,15.51,11.62,8.49-.68,15.81-4.46,18.82-11.45s1.28-16,1.28-16,5.73-10-3.21-16.92-19-8.93-31-4.33S8,31.78,8,31.78Z"/><path class="cls-5" d="M39.92,25.92c-.44-.15-10.37-7-10.37-7s5,4.43,2.61,4.37c-.67,0-6.74-2-8.93-4.18,0,0,1.32,3.71,3.46,4.11,0,0-8.44,2-12-4.27,0,0,1.57,3.35-4.47,7.32-4.69,3.08-1,9-1,9L5.66,22.07l4.94-6.63,13.73-3,11.81,1.8L41.57,23,48,31.68Z"/><path class="cls-2" d="M9.77,37.63c-.41-1.89-1-7.61-.19-9.36,1.64-3.54,4.11-4.37,5.5-5.72.88-.86.28-4.13,1-5.11s0,1.31,0,0c.81,1.9.69,3.24,2.6,4a14.92,14.92,0,0,0,5.7.95,8.79,8.79,0,0,1-2.62-2.78,17.36,17.36,0,0,1-1-4.13,22.37,22.37,0,0,0,11.79,7.09,10.36,10.36,0,0,1-3.77-5.74,3.53,3.53,0,0,1,1.75.94,65.84,65.84,0,0,0,9.39,6.89c0-.57.23-1.08.21-1.64,1.79,3.61,8.21,9.95,8.15,9.74,0,0,2.51,18.1-9.37,25.4A29.55,29.55,0,0,0,50.68,55c6.77-3.33,10.14-10.91,5-22S53.11,16.94,49,10.43C44,2.69,29.32-5.88,10,9.85c0,0-9.51,5-2.87,23.34C7.16,33.19,9.9,38.24,9.77,37.63Z"/><path class="cls-7" d="M16.39,28.56s-3.6-.35-5,2.42a.12.12,0,0,1-.23-.05,3,3,0,0,1,2.28-3.15C16.83,26.72,16.39,28.56,16.39,28.56Z"/><path class="cls-7" d="M29.82,26.36s3.85-1.17,6.08,1.21c.08.09.26,0,.23-.1-.16-.79-.8-2.37-3.31-2.54C28.86,24.67,29.82,26.36,29.82,26.36Z"/><path class="cls-8" d="M22.23,37.9a3.31,3.31,0,0,1,.91,2.68A3.92,3.92,0,0,1,22.67,42a2.91,2.91,0,0,0-.49,1.13,1.34,1.34,0,0,0,1.35,1.41A4,4,0,0,0,26,43.89l.05,0h0a1.4,1.4,0,0,0,.73-.33.65.65,0,0,0,.05-.77.91.91,0,0,1,.22.41.64.64,0,0,1-.1.5,1.67,1.67,0,0,1-.8.58l.07,0a3.89,3.89,0,0,1-2.74,1A2.35,2.35,0,0,1,22,44.61,1.8,1.8,0,0,1,21.46,43a2.25,2.25,0,0,1,.25-.77c.14-.23.28-.45.39-.61a3.84,3.84,0,0,0,.52-1.17A3.59,3.59,0,0,0,22.23,37.9Z"/><path class="cls-9" d="M7.7,11.73A23.81,23.81,0,0,1,16.19,8c14.47-3.17,29.12,7.59,32.72,24,.07.32.13.63.19,1,.49-.22,1-.43,1.5-.61-.08-.46-.18-.93-.28-1.4C46.73,14.58,32.08,3.82,17.61,7A23.85,23.85,0,0,0,7.7,11.73Z"/><path class="cls-10" d="M48.28,33.48c0-.06-.11.1,0,.1s.13-.09.16-.16a5.38,5.38,0,0,1,1.63-2.31,2.66,2.66,0,0,1,1.89-.74,2.32,2.32,0,0,1,1.78,1.9,6.92,6.92,0,0,1-.29,4.28,7.28,7.28,0,0,1-6.2,4.65"/><path class="cls-11" d="M48.28,33.48c-.05,0-.09.07,0,.09a.1.1,0,0,0,.12-.06,1.57,1.57,0,0,0,.12-.3,6.28,6.28,0,0,1,.27-.59,5.53,5.53,0,0,1,.74-1.07,3.5,3.5,0,0,1,2.25-1.27,1.76,1.76,0,0,1,1.23.48,2.83,2.83,0,0,1,.73,1.11A6.52,6.52,0,0,1,54,34.46a7.48,7.48,0,0,1-2.18,4.65,7.69,7.69,0,0,1-2.11,1.51,6.67,6.67,0,0,1-2.52.58A7.1,7.1,0,0,0,51.74,39a7.3,7.3,0,0,0,2-4.56,6.21,6.21,0,0,0-.28-2.5,2,2,0,0,0-1.77-1.49,3.33,3.33,0,0,0-2.16,1.18,6,6,0,0,0-.78,1,3.81,3.81,0,0,0-.29.57c0,.1-.07.2-.13.3a.14.14,0,0,1-.15.06S48.24,33.43,48.28,33.48Z"/><path class="cls-5" d="M50.88,33.82a9.29,9.29,0,0,0-.7,1c-.16.27-.3.64-.08.86s.54.13.7.34,0,.53-.21.68-.5.19-.73.32a1.08,1.08,0,0,0-.52.94.69.69,0,0,0,.1.37.73.73,0,0,0,.89.19,2.13,2.13,0,0,0,.73-.67,7.72,7.72,0,0,0,1.12-1.92C52.56,34.81,52.56,31.84,50.88,33.82Z"/><path class="cls-6" d="M48.48,39.56s-1.57,3.39.43,3.94,1.32-3.21,1.32-3.21-.47,3.18-1.11,1.23Z"/><path class="cls-9" d="M44.65,13.36s10.17,1,6.65,6S42,25.93,41.63,15.93c-.22-6.28-2-1.66-2-1.66S27,10.92,35.81,5.12C44-.25,42,11.1,42,11.1S44.63,9.34,44.65,13.36Z"/><ellipse class="cls-12" cx="39.3" cy="4.81" rx="0.92" ry="0.79" transform="translate(-0.08 8.88) rotate(-12.88)"/><ellipse class="cls-12" cx="49.02" cy="15.8" rx="0.92" ry="0.79" transform="matrix(0.97, -0.22, 0.22, 0.97, -2.29, 11.33)"/><ellipse class="cls-12" cx="50.47" cy="18.21" rx="0.92" ry="0.79" transform="translate(-2.79 11.71) rotate(-12.88)"/><ellipse class="cls-12" cx="46.48" cy="17.65" rx="0.92" ry="0.79" transform="translate(-2.76 10.81) rotate(-12.88)"/><ellipse class="cls-12" cx="43.57" cy="16.82" rx="0.92" ry="0.79" transform="translate(-2.65 10.14) rotate(-12.88)"/><ellipse class="cls-12" cx="44.32" cy="20.38" rx="0.92" ry="0.79" transform="translate(-3.43 10.39) rotate(-12.88)"/><ellipse class="cls-12" cx="47.7" cy="20.5" rx="0.92" ry="0.79" transform="translate(-3.37 11.15) rotate(-12.88)"/><ellipse class="cls-12" cx="45.92" cy="14.99" rx="0.92" ry="0.79" transform="translate(-2.19 10.62) rotate(-12.88)"/><ellipse class="cls-12" cx="41.16" cy="7.71" rx="0.92" ry="0.79" transform="translate(-0.68 9.37) rotate(-12.88)"/><ellipse class="cls-12" cx="34.87" cy="8.71" rx="0.92" ry="0.79" transform="translate(-1.06 7.99) rotate(-12.88)"/><ellipse class="cls-12" cx="35.98" cy="5.88" rx="0.92" ry="0.79" transform="translate(-0.41 8.17) rotate(-12.88)"/><ellipse class="cls-12" cx="38.21" cy="7.95" rx="0.92" ry="0.79" transform="translate(-0.81 8.72) rotate(-12.88)"/><ellipse class="cls-12" cx="40.04" cy="10.08" rx="0.92" ry="0.79" transform="translate(-1.24 9.18) rotate(-12.88)"/><ellipse class="cls-12" cx="37.05" cy="10.97" rx="0.92" ry="0.79" transform="translate(-1.51 8.54) rotate(-12.88)"/><ellipse class="cls-12" cx="39.12" cy="12.27" rx="0.92" ry="0.79" transform="translate(-1.75 9.03) rotate(-12.88)"/><ellipse class="cls-9" cx="42.09" cy="13.46" rx="2.83" ry="2.11" transform="translate(2.59 33.27) rotate(-44.37)"/></svg>