<svg xmlns="http://www.w3.org/2000/svg" viewBox="0 0 67.26 53.43"><defs><style>.cls-1{isolation:isolate;}.cls-2{fill:#5c5548;}.cls-3{fill:#424036;}.cls-4{fill:#fad2c6;stroke:#323232;}.cls-4,.cls-7{stroke-miterlimit:10;stroke-width:0.25px;}.cls-5{fill:#e4a58c;}.cls-6{fill:#421b16;}.cls-7{fill:#311415;stroke:#211e1f;}.cls-8{fill:#90856e;}.cls-9{fill:#605e44;}.cls-10,.cls-13{fill:#9e9580;opacity:0.5;}.cls-10,.cls-12{mix-blend-mode:multiply;}.cls-11,.cls-12{fill:#676254;}.cls-12{opacity:0.4;}.cls-13{mix-blend-mode:screen;}.cls-14{fill:#c28974;}</style></defs><g class="cls-1"><g id="Layer_1" data-name="Layer 1"><path class="cls-2" d="M14.24,20.09a15.36,15.36,0,0,0-3.69,2.38C8.21,24.36,3,30,2.51,32.38s15,.53,35-.61S65,27.37,65.1,26.24s-4.87-5.82-10.47-8.34-13.42-2.36-22.84-1.83A58.28,58.28,0,0,0,14.24,20.09Z"/><path class="cls-3" d="M29.27,16.4a59.34,59.34,0,0,0-15,3.8,14.81,14.81,0,0,0-3.67,2.36c-2.42,2-7.58,7.59-8,9.84a.35.35,0,0,0,.09.31c1,1.23,9.46.64,21.14-.17,4.11-.28,8.76-.6,13.62-.88,3.33-.2,6.5-.46,9.39-.78C60.51,29.36,64.93,26.94,65,26.23c.09-1.07-4.87-5.74-10.4-8.23-5.69-2.55-13.69-2.33-22.8-1.82C31,16.23,30.12,16.3,29.27,16.4Z"/><path class="cls-4" d="M51.89,23.32a2.42,2.42,0,0,1,.27,2.62C48.68,32.88,48.7,35,46,43.61c-2,6.34-9.51,10.1-15.48,8.27-7.33-2.24-15.51-7-13.46-21.6.89-6.44.4-13.54,1.86-15.52,4.95-6.66,8.46-4.74,17.61-1.9C45.08,15.52,48.6,17,51.89,23.32Z"/><path class="cls-5" d="M48.91,34.59s1.22-12.34-5-11C37.08,25,34.69,21.87,32,22.28c-6,.88-13.26,9.08-14.93,3S32.38,13.32,32.38,13.32s15.14-.36,16.12.13S53,22.09,53,22.09Z"/><path class="cls-6" d="M44.64,28.15a.46.46,0,0,1-.39-.7l.08-.11c.38-.65,1.36-.55,1.88-.29a3.86,3.86,0,0,1,2.34,3.33c0,.2-.21.37-.31.21A4.92,4.92,0,0,0,44.64,28.15Z"/><path class="cls-6" d="M33.51,25.21a.46.46,0,0,0,.72-.34v-.14c.06-.75-.79-1.24-1.37-1.32A3.82,3.82,0,0,0,29,24.75c-.15.14,0,.42.13.34A4.91,4.91,0,0,1,33.51,25.21Z"/><path class="cls-7" d="M45.93,19.32s-2.46,7.4-14,.6c0,0,13.94-.48.59-5.26,0,0,1.45,4.9-7,.87,0,0,5.19,6.79-6.15,11.54,0,0-1.9.07-2.59,4.58-.05.33-.1.68-.13,1.05-.54,5.56.08-.72.08-.72a6.67,6.67,0,0,1-3.07-8.11,8.14,8.14,0,0,1,1.68-9.55s-.52-7.69,8-7c0,0,4-6.49,8.84-4.84,0,0,8.53-3.41,12.24,4.18,0,0,6.07-.32,7.83,7.29,0,0,4.28,4.11,1.74,8.28,0,0,3.39,3.55-1.36,6,0,0,2.39,3.75-2.36,5.44L47.8,37.54l1.11-2.95a14.57,14.57,0,0,0-2.7-15C46.12,19.52,46,19.42,45.93,19.32Z"/><path class="cls-8" d="M54.63,17.9c-5.6-2.52-13.42-2.36-22.84-1.83a58.28,58.28,0,0,0-17.55,4,15.36,15.36,0,0,0-3.69,2.38C8.21,24.36,3,30,2.51,32.38c.49-1.55,7.55-8.28,33.94-10C53.67,21.24,62,23.75,65,25.8,64.21,24.2,59.67,20.17,54.63,17.9Z"/><path class="cls-9" d="M65,25.91a.07.07,0,0,1-.07,0c-1.63-1.13-8.48-4.73-28.46-3.41-2.33.15-4.59.35-6.73.59C8.94,25.38,3.05,31,2.61,32.42a.1.1,0,0,1-.13.07.13.13,0,0,1-.08-.13c.47-2.48,5.91-8.22,8.08-10A15.06,15.06,0,0,1,14.2,20a59.52,59.52,0,0,1,15.05-3.82c.85-.09,1.7-.16,2.53-.21,9.14-.52,17.17-.74,22.89,1.84,5,2.27,9.6,6.29,10.4,8a.12.12,0,0,1,0,.14Z"/><path class="cls-10" d="M13.59,24.33c1.46-2.48,4.17-4.23,6.51-5.54a30.5,30.5,0,0,1,3-1.45,57.87,57.87,0,0,0-8.85,2.75,15.36,15.36,0,0,0-3.69,2.38C8.21,24.36,3,30,2.51,32.38c.3-.94,3-3.79,11-6.26A1.88,1.88,0,0,1,13.59,24.33Z"/><path class="cls-10" d="M44.67,16.18a36.74,36.74,0,0,1,6.14,2.17c1.5.7,3.3,1.89,3.27,3.9,0,.12,0,.24,0,.36,5.81.71,9.25,2,10.92,3.19-.77-1.6-5.31-5.63-10.35-7.9-3.37-1.51-7.54-2.06-12.39-2.14A18.15,18.15,0,0,1,44.67,16.18Z"/><path class="cls-8" d="M10.89,21.16S9.33,12.54,19,5.48C29.4-2.16,42.08,1.91,45.9,4.3s7.79,7.58,8.64,12.62c0,0-14.48-1.42-21.19-.8S14.69,18.8,10.89,21.16Z"/><path class="cls-9" d="M31.78,16.17c.54-.06,1.06-.12,1.56-.16,6.29-.58,19.56.65,21.07.79-.94-5.22-5-10.18-8.56-12.4a27.29,27.29,0,0,0-15.8-3.08A22.64,22.64,0,0,0,19,5.58C10.28,12,10.83,19.77,11,21,14.8,18.72,25.47,16.87,31.78,16.17Z"/><path class="cls-10" d="M48.18,12.17C47,14.13,44.93,15,43,15.53c-.66.19-1.32.35-2,.5,6.52.21,13.5.89,13.5.89-.79-4.66-4.23-9.45-7.77-12C48.41,6.8,49.59,9.73,48.18,12.17Z"/><path class="cls-10" d="M25,16.2a17.37,17.37,0,0,1-7.48-2.28,5.33,5.33,0,0,1-2.66-4.64c-5,6-4,11.88-4,11.88C14,19.23,22.57,17.5,29.26,16.59,27.83,16.51,26.41,16.4,25,16.2Z"/><path class="cls-11" d="M33.15,14.78c5.42-.54,20,.31,21.52,1.2a9,9,0,0,1,.24,2.14c-.14.37-7.12-1.87-20.15-.91-17.14,1.25-23.46,5.06-23.9,5.18s-.34-2-.16-2.29S17.39,16.34,33.15,14.78Z"/><path class="cls-3" d="M54.84,18.27a8.36,8.36,0,0,1-1.45-.18,74.83,74.83,0,0,0-18.62-.77c-1.57.11-3.12.26-4.6.42-5.53.62-13.31,1.91-18.94,4.6a2,2,0,0,1-.34.15h0a.23.23,0,0,1-.24-.14,4.24,4.24,0,0,1,0-2.32c.17-.31,6.57-3.79,22.52-5.37,5.32-.53,20,.3,21.59,1.21l.05,0v0A7.92,7.92,0,0,1,55,18.16.16.16,0,0,1,54.84,18.27Z"/><path class="cls-12" d="M54.67,16c-.85-.51-5.91-1-11.11-1.23a4.11,4.11,0,0,0,.55.11c5.09.85,1.52,1.53-2.36,1.38a76.05,76.05,0,0,0-13.81.69c-5.88.77-7.82-.23-3.1-1a7.36,7.36,0,0,0,.94-.2c-10.45,1.7-14.93,4.09-15.08,4.36s-.27,2.4.16,2.29,6.76-3.93,23.9-5.18c13-1,20,1.28,20.15.91A9,9,0,0,0,54.67,16Z"/><path class="cls-13" d="M16.14,24.47s10.59-3.76,35.49-3C51.63,21.48,31.91,18.83,16.14,24.47Z"/><path class="cls-4" d="M17,34.09c-.06-3.41-1.22-5-3-5.11-2-.11-2.8,1.2-2.86,4-.07,3.56,3.54,6.42,6,5.84"/><path class="cls-5" d="M12.54,32.12s-.38-2,1.72-1.51.81,3.12,1.32,4.29,1.74,2.39.81,2.58S12.48,36.37,12.54,32.12Z"/><path class="cls-14" d="M38.81,38.75a2,2,0,0,1,0,1.61,1.09,1.09,0,0,1-.7.59,2,2,0,0,1-.87,0,2.22,2.22,0,0,1-1.45-.83,2.3,2.3,0,0,1-.43-1.54,3,3,0,0,0,.73,1.29,2.16,2.16,0,0,0,1.23.59,1.09,1.09,0,0,0,1.16-.33A2.66,2.66,0,0,0,38.81,38.75Z"/></g></g></svg>