<svg id="Layer_1" data-name="Layer 1" xmlns="http://www.w3.org/2000/svg" viewBox="0 0 40 20"><defs><style>.cls-1{fill:#bb7757;}.cls-2{fill:#765a47;}.cls-3{fill:#dc9e8f;}</style></defs><g id="neutral"><path class="cls-1" d="M34.16,7.87c.29-.16-6.35,5.83-13.47,6.4C14,14.82,6.42,10.52,6.33,10.16c-.12-.54,5.65,2.35,14,1.71C23.44,11.63,33.38,8.31,34.16,7.87Z"/><path class="cls-1" d="M34.47,7.61c-.08-.37-7.58,3-14.65,3.64S6,9.65,6,10s7,3.37,13.94,2.79C27.27,12.21,34.56,8,34.47,7.61Z"/><path class="cls-2" d="M5.75,9.93s7.55,3.25,14.83,2.83,13.81-5.1,13.81-5.1a33.3,33.3,0,0,1-13.81,5.1C13.69,13.48,5.75,9.93,5.75,9.93Z"/><path class="cls-3" d="M5.55,8.87c.25-.95-.47-.65-.61.18a4.52,4.52,0,0,0,.54,2.13A21.89,21.89,0,0,1,5.55,8.87Z"/><path class="cls-3" d="M34.73,6.44c-.51-.8.26-.79.62-.06a3.19,3.19,0,0,1-.14,2C35,6.82,34.89,6.7,34.73,6.44Z"/></g></svg>