<svg id="Layer_1" data-name="Layer 1" xmlns="http://www.w3.org/2000/svg" viewBox="0 0 25.83 32.47"><defs><style>.cls-1{fill:#fbd3c7;}.cls-1,.cls-2{stroke:#323232;stroke-miterlimit:10;stroke-width:0.25px;}.cls-2{fill:none;}.cls-3{fill:#dc9e8f;}</style></defs><path class="cls-1" d="M25.06,5.43a8.36,8.36,0,0,1-1.15,1.25,2.76,2.76,0,0,1-.73.48c-2,3.44-8.51,8.64-10.21,9.66S10.12,19,10.21,20.59c.18,3,.47,3,.09,4s.74,2.05-.07,2.23-1.85-1.31-1.74-2.71-.35-1.22-.35-1.22C3.6,26,1.3,30.47.79,29.47s.73-2.68.73-2.68S.6,24,.9,23.15s1.87-3.34,5.29-5.84S15.25,6.14,17,3.81A17.13,17.13,0,0,0,18,2.23C18.83,1,18.8.55,18.88.69A9.4,9.4,0,0,0,25.06,5.43Z"/><path class="cls-2" d="M1.47,26.73a19,19,0,0,0,1.79-3.25"/><path class="cls-2" d="M1.25,25.79a9.42,9.42,0,0,1,1-3.14"/><path class="cls-2" d="M1,24.6a9.33,9.33,0,0,1,.48-1.74"/><path class="cls-3" d="M24.85,5.5a6.44,6.44,0,0,1-1.07,1.14c-2.76-.76-4.73-3.1-5.66-4.31.79-1.28.69-1.53.77-1.39A9.31,9.31,0,0,0,24.85,5.5Z"/></svg>