<svg xmlns="http://www.w3.org/2000/svg" viewBox="0 0 93.36 75.15"><defs><style>.cls-1{isolation:isolate;}.cls-2{fill:#5c5548;}.cls-3{fill:#424036;}.cls-4{fill:#fad2c6;stroke:#323232;}.cls-4,.cls-7{stroke-miterlimit:10;stroke-width:0.25px;}.cls-5{fill:#e4a58c;}.cls-6{fill:#421b16;}.cls-7{fill:#311415;stroke:#211e1f;}.cls-8{fill:#90856e;}.cls-9{fill:#605e44;}.cls-10,.cls-13{fill:#9e9580;opacity:0.5;}.cls-10,.cls-12{mix-blend-mode:multiply;}.cls-11,.cls-12{fill:#676254;}.cls-12{opacity:0.4;}.cls-13{mix-blend-mode:screen;}.cls-14{fill:#c28974;}</style></defs><g class="cls-1"><g id="Layer_1" data-name="Layer 1"><path class="cls-2" d="M74,28.21a21.06,21.06,0,0,1,5.17,3.34c3.28,2.64,10.65,10.59,11.26,13.88s-21,.75-49-.86S2.83,38.41,2.69,36.83s6.82-8.16,14.68-11.69,18.79-3.31,32-2.56A81.6,81.6,0,0,1,74,28.21Z"/><path class="cls-3" d="M49.36,22.73c-12.77-.72-24-1-31.94,2.56-7.75,3.48-14.71,10-14.58,11.52.09,1,6.28,4.39,25.41,6.52,4.07.45,8.5.82,13.16,1.09,6.82.39,13.34.84,19.09,1.24,16.37,1.13,28.19,2,29.63.23a.47.47,0,0,0,.12-.42C89.66,42.3,82.43,34.41,79,31.67a21.27,21.27,0,0,0-5.14-3.31,83.26,83.26,0,0,0-21-5.33C51.7,22.9,50.51,22.8,49.36,22.73Z"/><path class="cls-4" d="M20.71,32.57a3.42,3.42,0,0,0-.38,3.69C25.2,46,25.17,49,29,61c2.81,8.89,13.33,14.15,21.68,11.6,10.28-3.14,21.74-9.77,18.87-30.27-1.26-9-.56-19-2.61-21.75C60,11.25,55.05,13.94,42.24,17.93,30.25,21.65,25.32,23.68,20.71,32.57Z"/><path class="cls-5" d="M25.38,48.52s-1.71-17.28,7-15.45c9.53,2,12.88-2.36,16.72-1.79C57.55,32.51,67.72,44,70.07,35.44S48.53,18.72,48.53,18.72,27.32,18.21,26,18.9,19.6,31,19.6,31Z"/><path class="cls-6" d="M31.36,39.51a.65.65,0,0,0,.54-1l-.1-.17c-.54-.9-1.91-.77-2.64-.39-1.09.57-2.71,1.29-3.28,4.66-.05.28.3.51.43.29C27.11,41.61,29,39.58,31.36,39.51Z"/><path class="cls-6" d="M47,35.39a.65.65,0,0,1-1-.49v-.19c-.09-1,1.1-1.74,1.91-1.85,1.22-.18,3-.53,5.38,1.87.21.2.06.59-.18.49C51.64,34.62,48.9,34.08,47,35.39Z"/><path class="cls-7" d="M29.55,27.14S33,37.5,49.2,28c0,0-19.54-.69-.84-7.38,0,0-2,6.87,9.8,1.22,0,0-7.28,9.52,8.61,16.17,0,0,2.66.09,3.63,6.42q.1.69.18,1.47c.76,7.79-.11-1-.11-1s6.61-3.23,4.3-11.36c0,0,4-7.39-2.35-13.38,0,0,.72-10.79-11.25-9.81,0,0-5.6-9.1-12.38-6.79,0,0-11.95-4.78-17.15,5.85,0,0-8.51-.44-11,10.22,0,0-6,5.76-2.43,11.61,0,0-4.75,5,1.91,8.44,0,0-3.36,5.26,3.3,7.64l3.49,5.38-1.55-4.15a20.39,20.39,0,0,1,3.78-21Z"/><path class="cls-8" d="M17.37,25.14c7.84-3.53,18.79-3.31,32-2.56A81.6,81.6,0,0,1,74,28.21a21.06,21.06,0,0,1,5.17,3.34c3.28,2.64,10.65,10.59,11.26,13.88-.68-2.18-10.58-11.61-47.55-14C18.7,29.81,7,33.34,2.86,36.21,3.94,34,10.29,28.32,17.37,25.14Z"/><path class="cls-9" d="M2.76,36.33a.17.17,0,0,1,0-.19c1.13-2.33,7.52-8,14.58-11.14,8-3.61,19.27-3.31,32.08-2.58,1.16.07,2.35.16,3.55.3A83.25,83.25,0,0,1,74,28.07a20.46,20.46,0,0,1,5.21,3.35c3,2.46,10.68,10.5,11.32,14a.18.18,0,0,1-.11.19.14.14,0,0,1-.17-.11c-.62-1.94-8.87-9.86-38-13.1-3-.33-6.17-.61-9.43-.83-28-1.84-37.61,3.2-39.89,4.79a.13.13,0,0,1-.1,0A.2.2,0,0,1,2.76,36.33Z"/><path class="cls-10" d="M74.87,34.15c-2-3.47-5.84-5.92-9.12-7.76a43.61,43.61,0,0,0-4.19-2A80,80,0,0,1,74,28.21a21.06,21.06,0,0,1,5.17,3.34c3.28,2.64,10.65,10.59,11.26,13.88C90,44.11,86.17,40.12,75,36.65A2.63,2.63,0,0,0,74.87,34.15Z"/><path class="cls-10" d="M31.32,22.72a51.62,51.62,0,0,0-8.61,3.06c-2.1,1-4.62,2.64-4.58,5.46a2.8,2.8,0,0,0,0,.5c-8.15,1-13,2.84-15.3,4.47C3.94,34,10.29,28.32,17.37,25.14c4.71-2.12,10.56-2.89,17.35-3A27.75,27.75,0,0,0,31.32,22.72Z"/><path class="cls-8" d="M78.65,29.71s2.19-12.08-11.31-22C52.72-3,34.94,2.73,29.59,6.08S18.68,16.7,17.49,23.77c0,0,20.28-2,29.69-1.12S73.32,26.41,78.65,29.71Z"/><path class="cls-9" d="M78.54,29.45c.2-1.69,1-12.6-11.29-21.58a31.78,31.78,0,0,0-15.44-6c-9.51-1-18.45,2-22.15,4.31-5,3.12-10.68,10.07-12,17.38,2.11-.2,20.71-1.92,29.53-1.11l2.18.22C58.23,23.7,73.18,26.29,78.54,29.45Z"/><path class="cls-10" d="M26.4,17.11C28,19.86,31,21,33.61,21.81c.93.28,1.86.5,2.79.7-9.13.3-18.91,1.26-18.91,1.26,1.1-6.54,5.92-13.24,10.89-16.87C26.07,9.58,24.42,13.69,26.4,17.11Z"/><path class="cls-10" d="M58.89,22.76c3.49-.45,7.34-1.12,10.47-3.2a7.43,7.43,0,0,0,3.73-6.5c7,8.43,5.56,16.65,5.56,16.65-4.36-2.7-16.37-5.13-25.74-6.4C54.91,23.2,56.91,23,58.89,22.76Z"/><path class="cls-11" d="M47.46,20.77c-7.59-.75-28,.43-30.16,1.68a12.28,12.28,0,0,0-.33,3c.19.51,10-2.62,28.24-1.28,24,1.76,32.87,7.09,33.48,7.26s.48-2.76.22-3.21S69.54,23,47.46,20.77Z"/><path class="cls-3" d="M16.83,25.51a11.32,11.32,0,0,1,.32-3.1l0-.07.06,0C19.39,21,40,19.88,47.48,20.62c22.35,2.21,31.32,7.09,31.57,7.52a5.88,5.88,0,0,1,0,3.25.36.36,0,0,1-.34.2h0c-.08,0-.21-.09-.48-.21-7.88-3.77-18.79-5.59-26.54-6.45-2.07-.23-4.24-.43-6.44-.59a105.06,105.06,0,0,0-26.1,1.08,11.62,11.62,0,0,1-2,.25A.26.26,0,0,1,16.83,25.51Z"/><path class="cls-12" d="M17.3,22.45c1.19-.71,8.28-1.39,15.58-1.72l-.78.16C25,22.07,30,23,35.41,22.81a107.86,107.86,0,0,1,19.35,1c8.24,1.08,10.95-.32,4.34-1.38a13.09,13.09,0,0,1-1.32-.29c14.65,2.39,20.93,5.74,21.13,6.11s.39,3.37-.22,3.21-9.47-5.5-33.48-7.26C27,22.83,17.16,26,17,25.45A12.28,12.28,0,0,1,17.3,22.45Z"/><path class="cls-13" d="M71.3,34.35s-14.85-5.28-49.73-4.19C21.57,30.16,49.2,26.45,71.3,34.35Z"/><path class="cls-4" d="M68.23,48c.08-4.78,1.71-7,4.26-7.16,2.76-.16,3.92,1.69,4,5.6.11,5-4.95,9-8.4,8.19"/><path class="cls-5" d="M74.42,45.28S75,42.46,72,43.16s-1.14,4.37-1.86,6S67.72,52.53,69,52.79,74.51,51.23,74.42,45.28Z"/><path class="cls-14" d="M39.53,54.36a3.74,3.74,0,0,0,.44,2,1.49,1.49,0,0,0,1.6.44A3,3,0,0,0,43.29,56a4.33,4.33,0,0,0,1-1.79,3.13,3.13,0,0,1-.59,2.17,3.09,3.09,0,0,1-2,1.18,2.86,2.86,0,0,1-1.23-.05,1.59,1.59,0,0,1-1-.84A2.83,2.83,0,0,1,39.53,54.36Z"/></g></g></svg>