<svg xmlns="http://www.w3.org/2000/svg" viewBox="0 0 93.36 75.15"><defs><style>.cls-1{isolation:isolate;}.cls-2{fill:#5c5548;}.cls-3{fill:#424036;}.cls-4{fill:#fad2c6;stroke:#323232;}.cls-4,.cls-7{stroke-miterlimit:10;stroke-width:0.25px;}.cls-5{fill:#e4a58c;}.cls-6{fill:#421b16;}.cls-7{fill:#311415;stroke:#211e1f;}.cls-8{fill:#90856e;}.cls-9{fill:#605e44;}.cls-10,.cls-13{fill:#9e9580;opacity:0.5;}.cls-10,.cls-12{mix-blend-mode:multiply;}.cls-11,.cls-12{fill:#676254;}.cls-12{opacity:0.4;}.cls-13{mix-blend-mode:screen;}.cls-14{fill:#c28974;}</style></defs><g class="cls-1"><g id="Layer_1" data-name="Layer 1"><path class="cls-2" d="M72,27.26a21,21,0,0,1,5.31,3.11c3.39,2.5,11.1,10.13,11.85,13.39S68.27,45.4,40.22,45s-38.8-4.5-39-6.08,6.47-8.44,14.16-12.3S34,22.49,47.23,22.68A81.68,81.68,0,0,1,72,27.26Z"/><path class="cls-3" d="M47.24,22.84c-12.79-.18-24,0-31.81,3.91C7.84,30.57,1.16,37.4,1.36,38.89c.13,1,6.45,4.11,25.67,5.43,4.07.27,8.52.45,13.19.52,6.83.1,13.36.27,19.13.42,16.39.44,28.24.75,29.61-1a.51.51,0,0,0,.1-.43c-.72-3.14-8.28-10.71-11.79-13.3A20.61,20.61,0,0,0,72,27.41,83,83,0,0,0,50.78,23C49.58,22.9,48.39,22.85,47.24,22.84Z"/><path class="cls-4" d="M19,33.89a3.41,3.41,0,0,0-.22,3.7C24.09,47.08,24.19,50.1,28.5,62c3.18,8.76,13.92,13.57,22.16,10.66C60.79,69,72,61.92,68.22,41.56c-1.65-9-1.38-18.94-3.55-21.62-7.33-9-12.13-6.13-24.76-1.6C28.1,22.57,23.26,24.81,19,33.89Z"/><path class="cls-5" d="M24.38,49.63s-2.45-17.2,6.37-15.74c9.61,1.59,12.77-2.91,16.63-2.51,8.45.87,19.11,11.92,21.09,3.26S46.24,18.86,46.24,18.86,25,19.26,23.68,20s-5.83,12.37-5.83,12.37Z"/><path class="cls-6" d="M30,40.36a.64.64,0,0,0,.49-1l-.1-.16c-.58-.87-1.95-.69-2.65-.28-1.07.61-2.66,1.41-3.08,4.8,0,.28.31.5.44.27C25.81,42.64,27.63,40.54,30,40.36Z"/><path class="cls-6" d="M45.37,35.58a.64.64,0,0,1-1-.44l0-.19c-.14-1,1-1.79,1.83-1.94,1.21-.22,2.93-.65,5.46,1.65.21.19.08.59-.17.49C50,34.61,47.26,34.19,45.37,35.58Z"/><path class="cls-7" d="M27.63,28.08s3.88,10.21,19.67,0c0,0-19.56.15-1.15-7.34,0,0-1.73,7,9.83.81,0,0-6.86,9.81,9.3,15.79,0,0,2.66,0,3.9,6.26.09.45.17.93.25,1.45,1.09,7.75-.16-1-.16-1s6.47-3.52,3.81-11.54c0,0,3.63-7.55-2.92-13.27,0,0,.26-10.8-11.66-9.32,0,0-6-8.85-12.65-6.25,0,0-12.15-4.26-16.89,6.59,0,0-8.53-.09-10.53,10.67,0,0-5.75,6-1.94,11.7,0,0-4.53,5.18,2.27,8.36,0,0-3.13,5.39,3.63,7.48L26.1,53.7l-1.72-4.07a20.41,20.41,0,0,1,2.88-21.11Z"/><path class="cls-8" d="M15.37,26.61c7.68-3.86,18.64-4.12,31.86-3.93A81.68,81.68,0,0,1,72,27.26a21,21,0,0,1,5.31,3.11c3.39,2.5,11.1,10.13,11.85,13.39-.78-2.15-11.07-11.15-48.11-12C16.9,31.22,5.34,35.24,1.35,38.29,2.34,36,8.44,30.09,15.37,26.61Z"/><path class="cls-9" d="M1.25,38.41a.16.16,0,0,1,0-.19c1-2.38,7.17-8.28,14.09-11.75,7.86-3.95,19.11-4.13,31.94-3.95,1.16,0,2.36.07,3.56.15a83.25,83.25,0,0,1,21.29,4.44,20.7,20.7,0,0,1,5.35,3.13c3.15,2.33,11.11,10,11.91,13.48a.17.17,0,0,1-.11.19.14.14,0,0,1-.18-.09c-.7-1.92-9.27-9.48-38.52-11.47-3-.2-6.19-.35-9.46-.42-28-.64-37.43,4.8-39.65,6.48a.11.11,0,0,1-.09,0Z"/><path class="cls-10" d="M73.21,33.15c-2.19-3.38-6.09-5.67-9.45-7.36a45.94,45.94,0,0,0-4.27-1.86A80.53,80.53,0,0,1,72,27.26a21,21,0,0,1,5.31,3.11c3.39,2.5,11.1,10.13,11.85,13.39-.48-1.3-4.44-5.12-15.75-8.11A2.64,2.64,0,0,0,73.21,33.15Z"/><path class="cls-10" d="M29.21,23.6A51,51,0,0,0,20.74,27c-2,1.06-4.5,2.85-4.35,5.66a3.86,3.86,0,0,0,.06.49c-8.1,1.35-12.83,3.4-15.1,5.13,1-2.29,7.09-8.2,14-11.68C20,24.28,25.8,23.27,32.58,22.87A25.59,25.59,0,0,0,29.21,23.6Z"/><path class="cls-8" d="M76.8,28.55S78.46,16.39,64.55,7.09C49.49-3,32,3.47,26.77,7S16.32,18.12,15.43,25.23c0,0,20.19-2.85,29.62-2.39S71.33,25.48,76.8,28.55Z"/><path class="cls-9" d="M76.67,28.3c.13-1.7.44-12.64-12.2-21.08A31.68,31.68,0,0,0,48.79,1.93c-9.55-.65-18.35,2.78-21.94,5.24C22,10.5,16.61,17.69,15.61,25.05c2.1-.29,20.61-2.8,29.45-2.37.69,0,1.43.08,2.19.14C56.13,23.42,71.18,25.37,76.67,28.3Z"/><path class="cls-10" d="M24.05,18.19c1.72,2.69,4.71,3.72,7.41,4.4.94.23,1.87.42,2.82.58-9.11.69-18.85,2.06-18.85,2.06.83-6.57,5.36-13.48,10.16-17.32C23.41,10.69,21.93,14.87,24.05,18.19Z"/><path class="cls-10" d="M56.75,22.46C60.23,21.85,64,21,67.08,18.81a7.42,7.42,0,0,0,3.44-6.65c7.41,8.12,6.28,16.39,6.28,16.39-4.47-2.51-16.57-4.43-26-5.29C52.8,23.06,54.79,22.81,56.75,22.46Z"/><path class="cls-11" d="M45.26,21c-7.63-.42-28,1.63-30.07,3a12.45,12.45,0,0,0-.2,3c.21.5,9.86-3.05,28.16-2.49,24.07.73,33.14,5.68,33.76,5.82s.36-2.77.08-3.22S67.41,22.2,45.26,21Z"/><path class="cls-3" d="M14.86,27A11.38,11.38,0,0,1,15,23.89v-.07l.06,0c2.11-1.36,22.69-3.4,30.16-3C67.69,22.05,76.86,26.55,77.12,27a5.76,5.76,0,0,1,.14,3.24.37.37,0,0,1-.33.22h-.05a3.41,3.41,0,0,1-.49-.19c-8-3.43-19-4.78-26.79-5.31-2.09-.14-4.26-.25-6.46-.31a104.75,104.75,0,0,0-26,2.19,12.37,12.37,0,0,1-2,.34A.24.24,0,0,1,14.86,27Z"/><path class="cls-12" d="M15.19,23.92c1.16-.76,8.21-1.74,15.49-2.38-.24.07-.49.13-.76.19-7.08,1.49-2.05,2.22,3.38,1.78a106.78,106.78,0,0,1,19.37.14c8.28.72,10.93-.79,4.28-1.57a9.92,9.92,0,0,1-1.33-.23c14.73,1.76,21.15,4.84,21.37,5.2s.53,3.36-.08,3.22-9.69-5.09-33.76-5.82c-18.3-.56-27.95,3-28.16,2.49A12.45,12.45,0,0,1,15.19,23.92Z"/><path class="cls-13" d="M69.65,33.51s-15.06-4.64-49.86-2.06C19.79,31.45,47.24,26.55,69.65,33.51Z"/><path class="cls-4" d="M67.17,47.31c-.12-4.78,1.41-7.08,4-7.33,2.75-.28,4,1.51,4.23,5.42.32,5-4.56,9.21-8,8.54"/><path class="cls-5" d="M73.23,44.29s.42-2.84-2.49-2-.94,4.42-1.59,6.09-2.3,3.46-1,3.66S73.58,50.23,73.23,44.29Z"/><path class="cls-14" d="M38.77,54.85a3.66,3.66,0,0,0,.52,2,1.49,1.49,0,0,0,1.62.38,3.05,3.05,0,0,0,1.67-.9,4.28,4.28,0,0,0,1-1.83,3.05,3.05,0,0,1-.5,2.19,3.11,3.11,0,0,1-2,1.27,2.88,2.88,0,0,1-1.24,0,1.63,1.63,0,0,1-1-.8A2.85,2.85,0,0,1,38.77,54.85Z"/></g></g></svg>