<svg id="Layer_1" data-name="Layer 1" xmlns="http://www.w3.org/2000/svg" viewBox="0 0 20 10"><defs><style>.cls-1{fill:#bb7757;}.cls-2{fill:#765a47;}.cls-3{fill:#dc9e8f;}</style></defs><g id="neutral"><path class="cls-1" d="M16.4,3.27c.12-.1-2.55,3.33-5.63,4A9.68,9.68,0,0,1,4.36,6c-.08-.26,2.55.87,6.16.07A33.51,33.51,0,0,0,16.4,3.27Z"/><path class="cls-1" d="M16.53,3.12c-.05-.18-3.19,2-6.25,2.69S4.2,5.79,4.21,6a9.88,9.88,0,0,0,6.17.61A13.53,13.53,0,0,0,16.53,3.12Z"/><path class="cls-2" d="M4.1,6a14.16,14.16,0,0,0,6.56.59,13,13,0,0,0,5.83-3.39,14.5,14.5,0,0,1-5.83,3.39C7.69,7.3,4.1,6,4.1,6Z"/><path class="cls-3" d="M4,5.42c.08-.49-.23-.3-.26.13A2.54,2.54,0,0,0,4,6.6S3.94,5.59,4,5.42Z"/><path class="cls-3" d="M16.6,2.51c-.25-.38.08-.41.27-.06a2,2,0,0,1,0,1C16.72,2.69,16.68,2.64,16.6,2.51Z"/></g></svg>