<svg id="Layer_1" data-name="Layer 1" xmlns="http://www.w3.org/2000/svg" viewBox="0 0 110.75 89.04"><defs><style>.cls-1{fill:#fad2c6;stroke:#5f4a43;}.cls-1,.cls-3{stroke-miterlimit:10;}.cls-2{fill:#d6a398;}.cls-3{fill:#facc35;stroke:#323232;}</style></defs><path class="cls-1" d="M95.11,62.38l-4.75,14a55.71,55.71,0,0,1-17.2-2.53C60.66,70,49.74,62.88,36.87,58.58c-2-.66-4-1.25-6.06-1.75-1.62-.39,3.52-13.31,5.12-12.83q3.3,1,6.59,1.87c9.51,2.55,18.82,4.49,27.16,6.56,9,2.22,16.84,4.6,22.61,8l.25.15A26.92,26.92,0,0,1,95.11,62.38Z"/><path class="cls-1" d="M42.52,45.87c-.2-2.71-2.27-10.88-4.18-20.78-.31-1.57-3.26.43-3.7,2.58-.93,4.59.11,6-.56,8.28s-2.57,2.1-4.62,1.13C20.91,29.53,16.81,24.27,13.6,25.54c-2.47,1.46,2.71,7.46,8.87,14-8.84-4-16.27-6.54-17-4.08C4.68,38.32,12.24,42,18.83,45.86c-7.34,1.1-15.25.15-14.68,4,.42,2.8,16,2.28,15.23,4.87-.29.92-1.67,1.49-3.79,2.45-1.84.83-4.63,2-5.4,3.31s.67,2.23,3,2c3.89-.31,12.64-1.32,17-2.13,2.55-.31,4.73-.37,6.7-1.83"/><path class="cls-1" d="M33.23,37.33c-.38.24-5.75,2.8-1.94,10"/><path class="cls-2" d="M95.51,63.85,90.76,77.8C84.55,77.9,78,75,72.65,73.4a51.3,51.3,0,0,1-1.3-19.65c9,2.23,15.58,4.75,21.34,8.19a3,3,0,0,1-.89.88c.38-.25.76-.49,1.15-.72A26.76,26.76,0,0,1,95.51,63.85Z"/><path class="cls-3" d="M106.63,61.84s-2.75-2-4-2.64C96.38,56,75.22,51.85,75.22,51.85S73,66.08,76.87,78.94l15.18,3"/></svg>