<svg id="Layer_1" data-name="Layer 1" xmlns="http://www.w3.org/2000/svg" viewBox="0 0 28 17"><defs><style>.cls-1{fill:#551514;}.cls-2{fill:#d72b5d;}.cls-3{fill:#fff;}.cls-4{fill:#bb7757;}.cls-5{fill:#dc9e8f;}</style></defs><g id="S"><path class="cls-1" d="M24,10.86l-5.62-.69A21.57,21.57,0,0,1,13,8.35,31.24,31.24,0,0,1,8.17,6c-.48-.41-4.81-3.8-4.81-3.8s.25,3.07.32,4.25a9.17,9.17,0,0,0,.67,2.36,7.45,7.45,0,0,0,3,3.91,21.57,21.57,0,0,0,7.17,2.88c.57.12,5.27-1.58,6-2S24,10.86,24,10.86Z"/><path class="cls-2" d="M16.66,12.59A7,7,0,0,0,13.83,11,37.36,37.36,0,0,0,9.71,9.66a5.75,5.75,0,0,0-.78-.23l-.59-.1c-.14,0-.53.24-.53.24-.67.34-.33,1.3,0,1.64a6.9,6.9,0,0,0,2.5,1.24A30,30,0,0,0,14.76,14c.47.11,1.29.53,1.77.25A1,1,0,0,0,16.66,12.59Z"/><path class="cls-3" d="M20.68,11.09,13.06,8.67,5.89,5.12a8,8,0,0,0,.25,1.56A7.78,7.78,0,0,0,8,8.88a27.87,27.87,0,0,0,8.52,3.36,5.14,5.14,0,0,0,3.15-.53C20,11.52,20.68,11.09,20.68,11.09Z"/><path class="cls-3" d="M17.74,15.1a5.55,5.55,0,0,0-.82-1.27c-1-.87-3-.6-5.13-1.46s-3.55-2.16-4.88-2.14a7.34,7.34,0,0,0-1.46.35l1.1,1.79L10.84,15l4.16.36Z"/><path class="cls-4" d="M24.28,10.63a24.47,24.47,0,0,1-5.46,2.87A12.34,12.34,0,0,1,11,13.26a11.67,11.67,0,0,1-5-4C4.9,7.78,3.56,3.63,3.28,1.77a3.35,3.35,0,0,0-.16.38A17.43,17.43,0,0,0,4.34,9a10.81,10.81,0,0,0,5.88,6.17,10.18,10.18,0,0,0,9-.58A16.81,16.81,0,0,0,24.13,11S24.28,10.63,24.28,10.63Z"/><path class="cls-4" d="M24.38,10.39c-1.2.35-3.91,0-5.62-.27-2.51-.35-8.4-3-10.31-4.16C7,5,3.88,2.84,3.28,1.77a3.55,3.55,0,0,0,.08.47A15.84,15.84,0,0,0,7.15,6.41,32.15,32.15,0,0,0,13,9.62a31.79,31.79,0,0,0,6.4,1.73,10.38,10.38,0,0,0,4.87-.64S24.38,10.39,24.38,10.39Z"/><path class="cls-5" d="M3.08.9c.56-.27,0-.53-.4-.25S2,1.85,2,1.85A13,13,0,0,1,3.08.9Z"/><path class="cls-5" d="M25.43,10c-.37-.5.2-.49.47,0s-.13,1.26-.13,1.26C25.61,10.19,25.55,10.12,25.43,10Z"/></g></svg>