<svg xmlns="http://www.w3.org/2000/svg" viewBox="0 0 101.76 85.17"><defs><style>.cls-1{isolation:isolate;}.cls-2{fill:#5c5548;}.cls-3{fill:#424036;}.cls-4{fill:#fad2c6;stroke:#323232;stroke-width:0.25px;}.cls-4,.cls-7{stroke-miterlimit:10;}.cls-5{fill:#e4a58c;}.cls-6{fill:#421b16;}.cls-7{fill:#311415;stroke:#211e1f;stroke-width:0.5px;}.cls-8{fill:#90856e;}.cls-9{fill:#605e44;}.cls-10,.cls-13{fill:#9e9580;opacity:0.5;}.cls-10,.cls-12{mix-blend-mode:multiply;}.cls-11,.cls-12{fill:#676254;}.cls-12{opacity:0.4;}.cls-13{mix-blend-mode:screen;}.cls-14{fill:#c28974;}</style></defs><g class="cls-1"><g id="Layer_1" data-name="Layer 1"><path class="cls-2" d="M17.83,39.9A24.31,24.31,0,0,0,13,45.05c-2.95,3.87-9,14.8-8.82,18.66s23.73-4.92,54.68-14.4S100.35,31.82,100.08,30s-9.88-7.26-19.65-9.07-22,1.44-36.58,5.9A94.36,94.36,0,0,0,17.83,39.9Z"/><path class="cls-3" d="M40,28.31A96.06,96.06,0,0,0,17.94,40a24.52,24.52,0,0,0-4.85,5.13C10,49.17,4.09,60,4.3,63.7a.59.59,0,0,0,.25.45c2.09,1.54,15.12-2.63,33.15-8.39,6.34-2,13.52-4.32,21.06-6.63,5.15-1.58,10-3.2,14.45-4.82C94.08,36.67,100.08,31.17,99.91,30c-.26-1.71-9.86-7.14-19.5-8.92C70.5,19.28,58,22.7,43.9,27,42.63,27.4,41.32,27.83,40,28.31Z"/><path class="cls-4" d="M78.21,30.49c.67.77,2,1.74,1.44,4-2.8,12.23-1.94,15.61-2.9,30.12-.7,10.74-11.06,19.52-21.12,19-12.38-.71-27-5-29.46-28.76-1.06-10.46-4.58-21.43-3-25.1C28.35,17.36,34.61,19,50.06,20,64.52,20.87,70.6,21.78,78.21,30.49Z"/><path class="cls-5" d="M77.86,49.34S75,29.49,65.73,34c-10.14,4.86-15.09.89-19.24,2.57C37.4,40.21,29.15,55.89,24.17,46.93S43.73,22.28,43.73,22.28s23.64-6.38,25.36-6S79.53,28.13,79.53,28.13Z"/><path class="cls-6" d="M68.68,40.88a.75.75,0,0,1-.87-1l.07-.21c.35-1.15,1.92-1.39,2.84-1.16,1.38.33,3.39.7,5,4.32.13.3-.19.66-.41.44C74,42.06,71.32,40.32,68.68,40.88Z"/><path class="cls-6" d="M50.07,40.53a.74.74,0,0,0,1-.82l0-.22c-.18-1.19-1.71-1.64-2.65-1.55-1.41.14-3.46.22-5.52,3.58-.17.28.1.68.34.5C44.61,41,47.53,39.61,50.07,40.53Z"/><path class="cls-7" d="M67.32,26.51s-1,12.56-21.8,6.33c0,0,21.72-6.13-1.09-8.5,0,0,4.16,7.15-10.64,4.06,0,0,10.77,8.67-5.22,20.49,0,0-2.95.83-2.31,8.19,0,.53.12,1.1.2,1.7,1.29,8.93-.15-1.17-.15-1.17S18,55.8,18.37,46.05c0,0-6.45-7.2-1-15.64,0,0-3.77-11.89,9.92-14.08,0,0,3.79-11.74,12-11,0,0,12.09-8.63,20.83,1.86,0,0,9.43-2.83,15.11,8.44,0,0,8.3,4.82,5.91,12.35,0,0,6.7,4.28.18,10,0,0,5.2,5-1.61,9.46l-2.43,7,.6-5.07a23.54,23.54,0,0,0-10-22.46Z"/><path class="cls-8" d="M80.43,20.93c-9.76-1.8-22,1.44-36.58,5.9a94.36,94.36,0,0,0-26,13.07A24.31,24.31,0,0,0,13,45.05c-2.95,3.87-9,14.8-8.82,18.66.17-2.63,8.68-15.92,49.46-28.78,26.63-8.4,40.73-7.66,46.13-5.57C97.9,27.14,89.23,22.56,80.43,20.93Z"/><path class="cls-9" d="M99.79,29.53a.13.13,0,0,1-.12,0c-3-1.15-15.14-4.17-46,5.57-3.6,1.14-7.08,2.32-10.35,3.51C11.53,50.24,4.46,61.38,4.3,63.73a.17.17,0,0,1-.17.16A.18.18,0,0,1,4,63.72c-.23-4.08,6.11-15.19,8.85-18.78a24.07,24.07,0,0,1,4.92-5.19A96.23,96.23,0,0,1,39.9,28c1.3-.48,2.61-.92,3.89-1.31C58,22.33,70.48,18.91,80.46,20.75c8.79,1.63,17.5,6.19,19.4,8.5a.2.2,0,0,1,0,.22A.16.16,0,0,1,99.79,29.53Z"/><path class="cls-10" d="M18.44,46.8c1.34-4.45,4.93-8.24,8.1-11.2a53.62,53.62,0,0,1,4.13-3.43A92.51,92.51,0,0,0,17.83,39.9,24.31,24.31,0,0,0,13,45.05c-2.95,3.87-9,14.8-8.82,18.66C4.24,62.11,7.41,56.6,19,49.65A3,3,0,0,1,18.44,46.8Z"/><path class="cls-10" d="M64.12,22.05a59.89,59.89,0,0,1,10.49,1.06c2.62.51,5.9,1.7,6.64,4.87a2.72,2.72,0,0,1,.09.56c9.41-1.11,15.31-.37,18.38.82-1.82-2.22-10.49-6.8-19.29-8.43-5.87-1.08-12.64-.34-20.28,1.4A29.44,29.44,0,0,1,64.12,22.05Z"/><path class="cls-8" d="M13,42.86S7.22,29.92,19.64,15.13C33.09-.88,54.58.63,61.5,2.92s15.14,8.91,18.42,16.51c0,0-23.29,3.33-33.6,6.88S18.05,37.7,13,42.86Z"/><path class="cls-9" d="M43.87,27c.84-.3,1.63-.59,2.39-.85,9.66-3.33,31-6.5,33.4-6.85C76.19,11.45,67.91,5.22,61.45,3.09c-4.77-1.57-15.63-2.54-26,1.25A36.62,36.62,0,0,0,19.77,15.26C8.49,28.68,12.35,40.7,13,42.54,18.18,37.53,34.23,30.52,43.87,27Z"/><path class="cls-10" d="M68.1,14.4c-1,3.53-4,5.64-6.79,7.26-1,.56-2,1.07-2.94,1.55C68.68,21,79.92,19.43,79.92,19.43c-3-7-10.28-13.22-16.84-15.92C66.4,5.88,69.38,10,68.1,14.4Z"/><path class="cls-10" d="M33.23,29.65c-4,.45-8.54.76-12.61-.71-3.54-1.28-5.34-3.55-6-6.26C9.06,34.06,13,42.86,13,42.86c4.15-4.22,16.94-10.24,27.1-14.23C37.81,29.05,35.52,29.41,33.23,29.65Z"/><path class="cls-11" d="M45.49,24.29c8.31-2.93,31.56-7.21,34.28-6.4A14.48,14.48,0,0,1,81,21.17c-.08.63-11.91-.2-32,6.31-26.44,8.56-34.9,17-35.54,17.31s-1.29-2.95-1.13-3.53S21.34,32.79,45.49,24.29Z"/><path class="cls-3" d="M80.9,21.43a14.39,14.39,0,0,1-2.33.28A121.1,121.1,0,0,0,49,27.65c-2.42.78-4.79,1.6-7,2.43-8.45,3.09-20.18,8.12-28,14.51a4.9,4.9,0,0,1-.48.37l-.05,0a.38.38,0,0,1-.43-.13,6.71,6.71,0,0,1-.9-3.64c.16-.55,8.87-8.48,33.32-17.09,8.14-2.87,31.6-7.24,34.38-6.4l.07,0,0,.08c.13.27,1.29,2.73,1.2,3.38A.27.27,0,0,1,80.9,21.43Z"/><path class="cls-12" d="M79.77,17.89c-1.54-.46-9.67.71-17.94,2.35.29,0,.59,0,.91,0,8.32-.62,3,1.81-3.18,3.07a124.86,124.86,0,0,0-21.42,6.39c-8.94,3.47-12.37,2.65-5.25-.36a13.08,13.08,0,0,0,1.4-.68c-15.76,6.69-21.88,12.17-22,12.64s.49,3.89,1.13,3.53S22.51,36,49,27.48C69.05,21,80.88,21.8,81,21.17A14.48,14.48,0,0,0,79.77,17.89Z"/><path class="cls-13" d="M22.5,46.05s15.19-10,54.59-18.34C77.09,27.71,45.1,31.13,22.5,46.05Z"/><path class="cls-4" d="M27.48,60.84c-1.4-5.33-3.84-7.39-6.74-6.86-3.13.58-3.92,3-2.94,7.37,1.25,5.64,8,8.74,11.66,6.89"/><path class="cls-5" d="M19.79,59.44s-1.38-3,2.11-3,2.47,4.58,3.73,6.23,3.66,3.09,2.27,3.74S21.32,66.14,19.79,59.44Z"/><path class="cls-14" d="M63.59,59.77a3.13,3.13,0,0,1,.75,2.53,1.87,1.87,0,0,1-.9,1.26,3.46,3.46,0,0,1-1.39.41,3.62,3.62,0,0,1-2.65-.79,3.5,3.5,0,0,1-1.22-2.32,5.08,5.08,0,0,0,1.68,1.68A3.44,3.44,0,0,0,62,63c.75,0,1.39-.27,1.63-.88A4.45,4.45,0,0,0,63.59,59.77Z"/></g></g></svg>