<svg id="Layer_1" data-name="Layer 1" xmlns="http://www.w3.org/2000/svg" viewBox="0 0 87.1 97.62"><defs><style>.cls-1,.cls-6{fill:#3d2d16;}.cls-1{stroke:#3d2d16;}.cls-1,.cls-3,.cls-8{stroke-miterlimit:10;}.cls-2{fill:#fff;}.cls-3,.cls-9{fill:#fad2c6;}.cls-3{stroke:#323232;stroke-width:0.5px;}.cls-4{fill:#dc9e8f;}.cls-5{fill:#e8d860;}.cls-7{fill:#a67d48;}.cls-8{fill:#ad6428;stroke:#c77929;stroke-width:0.75px;}.cls-10{fill:#323232;}.cls-11{fill:#ef4b3b;}.cls-12{fill:#f49990;}</style></defs><path class="cls-1" d="M81.22,64.64c2.64,13.9-13.69,17.17-35.17,20.21-.39.06.49,5.71.1,5.76-19.36,2.53-26.89,7.48-34.53-16.54C7.26,60.34,22.31,45.5,41.49,41.86S78.54,50.5,81.22,64.64Z"/><path class="cls-1" d="M71,41.45c.72.54,16.19,23.7,9.64,34.78C70.26,93.88,59.38,87.42,59.33,87.45Z"/><path class="cls-2" d="M64.13,74.77s5.72-2.44,9.82.58C72.63,76.82,71.4,78.53,64.13,74.77Z"/><path class="cls-3" d="M73.73,47.07c-.06-.1-.14.15,0,.15s.16-.13.19-.25a7.71,7.71,0,0,1,1.9-3.52,3,3,0,0,1,2.42-1.12c1.3.16,2.15,1.58,2.54,2.91a12.35,12.35,0,0,1,.07,6.58c-1,3.72-4,6.94-7.68,7.09"/><path class="cls-4" d="M77.19,47.61a11,11,0,0,0-.82,1.46c-.19.4-.34,1,0,1.31s.72.21,1,.52A.81.81,0,0,1,77.1,52c-.28.22-.64.29-.93.49a1.6,1.6,0,0,0-.59,1.43,1.4,1.4,0,0,0,.17.57.91.91,0,0,0,1.2.3,2.63,2.63,0,0,0,.88-1,11,11,0,0,0,1.28-2.93C79.5,49.14,79.19,44.58,77.19,47.61Z"/><path class="cls-5" d="M74.62,56.41s-1.71,5.19,1,6S77,57.53,77,57.53s-.29,4.88-1.34,1.88Z"/><path class="cls-3" d="M73.82,34c-.12.54,3.06,17.11,4.94,24.81,2.21,9-3.44,22.81-13.4,26.86-12.23,5-25,4.8-34-2.77s-12.9-21.3-12.9-21.3S3.55,51.62,11.15,35.9s20-25.53,39.94-27.55S73.82,34,73.82,34Z"/><path class="cls-4" d="M25.59,48c.5-.51,9.47-16.89,9.47-16.89S31.2,40.71,34.49,39c.92-.49,7.95-7.42,9.47-12C44,27,44.7,33,42,35.06c0,0,13-3.14,13.71-14.28,0,0,.15,5.74,11.27,7,8.63,1,7.66,11.76,7.66,11.76L70.33,18.86,58.89,13.12,37.79,18.5,22.71,29.21,21.28,45.12,18.46,61.55Z"/><path class="cls-1" d="M75.45,43.26C74.7,40.36,71.54,32,69.2,30.17c-4.71-3.76-8.72-3.2-11.57-4.1-1.83-.57-3.26-5.52-5-6.36s.91,1.83,0,0c.19,3.2,1.29,5-.82,7.36a22.8,22.8,0,0,1-7.23,5.27,13.56,13.56,0,0,0,1.7-5.67c0-2.2-.93-4.28-1.45-6.42a34.57,34.57,0,0,1-11.39,18,16.06,16.06,0,0,0,1.23-10.56,5.4,5.4,0,0,0-1.77,2.52,100.72,100.72,0,0,1-8.21,16c-.37-.79-1.06-1.33-1.43-2.12,0,6.23-4.45,19.48-4.51,19.13,0,0,5.56,24.52,27.06,26.37,0,0-3.86,6-15,6-11.68.08-21.61-8.07-22.21-26.93s-7.57-24-6.33-35.92C3.8,18.67,18.16-3.38,55.79,5c0,0,16.6.26,20.19,30.31C76,35.3,75.69,44.19,75.45,43.26Z"/><path class="cls-6" d="M60,35.3s4.72-3,8.56-.1a.19.19,0,0,0,.28-.22,4.64,4.64,0,0,0-5.35-2.78C58.1,33.06,60,35.3,60,35.3Z"/><path class="cls-6" d="M39.87,41.59s-6.15,1-7.57,5.89c-.06.19-.35.21-.4,0-.32-1.21-.53-3.84,2.83-5.82C40,38.58,39.87,41.59,39.87,41.59Z"/><path class="cls-7" d="M58.38,52.29a5.56,5.56,0,0,0,1.22,3.87,5.78,5.78,0,0,0,1.54,1.28c.27.16.61.36,1,.58a3.28,3.28,0,0,1,.86.88,2.71,2.71,0,0,1,.35,2.47,3.53,3.53,0,0,1-1.58,1.85,5,5,0,0,1-2.21.68,7.26,7.26,0,0,1-2.24-.16h.09a2.76,2.76,0,0,1-.76,0,1.83,1.83,0,0,1-.73-.23,1.07,1.07,0,0,1-.48-.59,1.46,1.46,0,0,1,0-.72,1.34,1.34,0,0,0,.15.66.79.79,0,0,0,.45.39,2.25,2.25,0,0,0,1.26,0h.09a6.06,6.06,0,0,0,3.88-.78,2.79,2.79,0,0,0,1.14-1.37,1.83,1.83,0,0,0-.23-1.62,2.79,2.79,0,0,0-.62-.67l-.86-.58A5.91,5.91,0,0,1,59,56.59,5.13,5.13,0,0,1,58.38,52.29Z"/><path class="cls-8" d="M60.32,6A36.91,36.91,0,0,0,46,6.76c-22.24,5.67-35,30.74-28.6,56,.13.49.26,1,.4,1.45-.83,0-1.66.1-2.5.2-.21-.7-.4-1.41-.59-2.12C8.28,37,21.08,12,43.31,6.28A37.22,37.22,0,0,1,60.32,6Z"/><path class="cls-9" d="M19.26,64.26c0-.12.22.06.1.12s-.24,0-.33-.11a8.41,8.41,0,0,0-3.86-2.06A4.18,4.18,0,0,0,12,62.5c-1.29.83-1.43,2.5-1.15,3.86a10.86,10.86,0,0,0,3.37,5.74c3,2.7,7.87,3.91,11.81,2.12"/><path class="cls-10" d="M19.26,64.26c0-.1.18,0,.14.1a.2.2,0,0,1-.25,0,4.16,4.16,0,0,1-.39-.32,7.91,7.91,0,0,0-.81-.58,8.51,8.51,0,0,0-1.78-.84,5,5,0,0,0-3.77-.11A3,3,0,0,0,11,65.75a9.42,9.42,0,0,0,1.33,3.64,10.91,10.91,0,0,0,2.55,3,12,12,0,0,0,3.41,1.9,10.89,10.89,0,0,0,7.75,0,10.14,10.14,0,0,1-3.88,1,12,12,0,0,1-4-.58,11.56,11.56,0,0,1-6.27-5,9.9,9.9,0,0,1-1.35-3.85,4.44,4.44,0,0,1,.23-2.07,2.77,2.77,0,0,1,1.42-1.55,5.32,5.32,0,0,1,4,.23,8.21,8.21,0,0,1,1.77,1,7,7,0,0,1,.78.64,2.83,2.83,0,0,0,.37.33.15.15,0,0,0,.21,0C19.43,64.3,19.29,64.16,19.26,64.26Z"/><path class="cls-4" d="M15.9,66.54a13.86,13.86,0,0,1,1.63.83c.41.25.86.68.7,1.13s-.65.56-.73,1,.35.75.76.8.83-.08,1.25-.06a1.66,1.66,0,0,1,1.36.93,1.1,1.1,0,0,1,.12.59,1.12,1.12,0,0,1-1.11.88,3.09,3.09,0,0,1-1.46-.43,11.46,11.46,0,0,1-2.89-1.87C14.26,69.08,12.2,65,15.9,66.54Z"/><path class="cls-5" d="M23.21,72.82s4.53,3.6,2.14,5.74S21.29,75,21.29,75s2.86,4.07,2.39.93Z"/><path class="cls-11" d="M10.31,33.9S-3.06,42.36,5.24,46.77s17.48,2.67,11-11.41c-4-8.85,1.68-3.72,1.68-3.72s15.16-13.42-1.12-15.3c-15.06-1.73-4.41,12.59-4.41,12.59S7.55,28.31,10.31,33.9Z"/><ellipse class="cls-12" cx="11.79" cy="18.35" rx="1.42" ry="1.22" transform="translate(-4.03 3.33) rotate(-13.77)"/><ellipse class="cls-12" cx="5.95" cy="40.3" rx="1.42" ry="1.22" transform="translate(-9.42 2.57) rotate(-13.77)"/><ellipse class="cls-12" cx="5.63" cy="44.64" rx="1.42" ry="1.22" transform="translate(-10.46 2.62) rotate(-13.77)"/><ellipse class="cls-12" cx="10.75" cy="41.1" rx="1.42" ry="1.22" transform="translate(-9.47 3.74) rotate(-13.77)"/><ellipse class="cls-12" cx="14.21" cy="37.93" rx="1.42" ry="1.22" transform="translate(-8.62 4.47) rotate(-13.77)"/><ellipse class="cls-12" cx="15.64" cy="43.38" rx="1.42" ry="1.22" transform="translate(-9.88 4.97) rotate(-13.77)"/><ellipse class="cls-12" cx="11.05" cy="45.89" rx="1.42" ry="1.22" transform="translate(-10.6 3.95) rotate(-13.77)"/><ellipse class="cls-12" cx="9.68" cy="37.04" rx="1.42" ry="1.22" transform="translate(-8.54 3.37) rotate(-13.77)"/><ellipse class="cls-12" cx="11.21" cy="23.65" rx="1.42" ry="1.22" transform="translate(-5.31 3.35) rotate(-13.77)"/><ellipse class="cls-12" cx="20.62" cy="20.67" rx="1.42" ry="1.22" transform="translate(-4.33 5.5) rotate(-13.77)"/><ellipse class="cls-12" cx="17.12" cy="17.52" rx="1.42" ry="1.22" transform="translate(-3.68 4.58) rotate(-13.77)"/><ellipse class="cls-12" cx="15.47" cy="21.94" rx="1.42" ry="1.22" transform="translate(-4.78 4.31) rotate(-13.77)"/><ellipse class="cls-12" cx="14.41" cy="26.15" rx="1.42" ry="1.22" transform="translate(-5.81 4.18) rotate(-13.77)"/><ellipse class="cls-12" cx="19.17" cy="25.31" rx="1.42" ry="1.22" transform="translate(-5.47 5.29) rotate(-13.77)"/><ellipse class="cls-12" cx="17.21" cy="28.54" rx="1.42" ry="1.22" transform="translate(-6.3 4.92) rotate(-13.77)"/><ellipse class="cls-11" cx="13.93" cy="32.25" rx="3.27" ry="4.38" transform="translate(-21.03 35.7) rotate(-72.28)"/></svg>