<svg id="Layer_1" data-name="Layer 1" xmlns="http://www.w3.org/2000/svg" viewBox="0 0 21 13"><defs><style>.cls-1{fill:#f6fbfd;stroke:#323232;stroke-miterlimit:10;stroke-width:0.25px;}.cls-2{fill:#ce9685;}.cls-3{fill:#451f16;}.cls-4{fill:#fff;}</style></defs><path class="cls-1" d="M.94,3.11A3.89,3.89,0,0,0,3,8,3.42,3.42,0,0,0,7.69,6.25a3.89,3.89,0,0,0-2-4.89A3.44,3.44,0,0,0,.94,3.11Z"/><path class="cls-2" d="M.93,6A4.07,4.07,0,0,1,1,2.88,3.4,3.4,0,0,1,5.66,1.36,4.69,4.69,0,0,1,8,4.27,4.26,4.26,0,0,0,5.11.62,3.42,3.42,0,0,0,1,2C.33,3.34.06,5.21.93,6Z"/><path class="cls-3" d="M3.86,7.5a1.57,1.57,0,0,0,2.44.11A2.27,2.27,0,0,0,7,4.86a1.57,1.57,0,0,0-2.43-.12A2.3,2.3,0,0,0,3.86,7.5Z"/><path class="cls-4" d="M4.61,4.26a.66.66,0,0,0,.09.91.59.59,0,0,0,.86-.11.68.68,0,0,0-.08-.92A.6.6,0,0,0,4.61,4.26Z"/><path class="cls-1" d="M20.23,9.71a3.55,3.55,0,0,1-4,2.8A3.14,3.14,0,0,1,13.69,8.7a3.56,3.56,0,0,1,4-2.8A3.14,3.14,0,0,1,20.23,9.71Z"/><path class="cls-2" d="M18.19,12.19a3.63,3.63,0,0,0,1.92-2.5A3.2,3.2,0,0,0,17.47,5.9c-.9-.15-1.62.1-3.08,1.31a3.51,3.51,0,0,1,3.9-1.51,3.19,3.19,0,0,1,2.23,3.43A3.63,3.63,0,0,1,18.19,12.19Z"/><path class="cls-3" d="M19.11,9.49a1.45,1.45,0,0,0-2.2-.36,2.05,2.05,0,0,0-.94,2.4,1.45,1.45,0,0,0,2.21.36A2,2,0,0,0,19.11,9.49Z"/><path class="cls-4" d="M16.71,8.81a.69.69,0,0,0,1.07.86.68.68,0,0,0-.12-.95A.67.67,0,0,0,16.71,8.81Z"/><path class="cls-2" d="M.73,3C-.06,5,.85,5.54,3.39,6.72c1.07.5,3.73,1.59,4.52-.36A4.14,4.14,0,0,0,5.74,1.15,3.65,3.65,0,0,0,.73,3Z"/><path class="cls-2" d="M20.54,9.76c-.42,2-2,2.37-3.83,1.72s-3.63-1.73-3.32-2.83a4,4,0,0,1,4.33-3.06A3.43,3.43,0,0,1,20.54,9.76Z"/></svg>