<svg xmlns="http://www.w3.org/2000/svg" viewBox="0 0 69.21 55.59"><defs><style>.cls-1{isolation:isolate;}.cls-2{fill:#5c5548;}.cls-3{fill:#424036;}.cls-4{fill:#fad2c6;stroke:#323232;}.cls-4,.cls-7{stroke-miterlimit:10;stroke-width:0.25px;}.cls-5{fill:#e4a58c;}.cls-6{fill:#421b16;}.cls-7{fill:#311415;stroke:#211e1f;}.cls-8{fill:#90856e;}.cls-9{fill:#605e44;}.cls-10,.cls-13{fill:#9e9580;opacity:0.5;}.cls-10,.cls-12{mix-blend-mode:multiply;}.cls-11,.cls-12{fill:#676254;}.cls-12{opacity:0.4;}.cls-13{mix-blend-mode:screen;}.cls-14{fill:#c28974;}</style></defs><g class="cls-1"><g id="Layer_1" data-name="Layer 1"><path class="cls-2" d="M15.42,21a15.48,15.48,0,0,0-3.83,2.46c-2.42,2-7.88,7.84-8.33,10.27s15.52.56,36.23-.63S68,28.5,68.13,27.33s-5-6-10.85-8.65-13.9-2.45-23.67-1.89A60.31,60.31,0,0,0,15.42,21Z"/><path class="cls-3" d="M31,17.12a61.85,61.85,0,0,0-15.54,3.94,15.74,15.74,0,0,0-3.8,2.45c-2.51,2-7.86,7.87-8.3,10.21a.35.35,0,0,0,.09.31c1.07,1.28,9.82.67,21.92-.17,4.26-.3,9.08-.63,14.12-.92,3.45-.2,6.73-.47,9.73-.8C63.38,30.56,68,28.05,68,27.31c.1-1.1-5-5.94-10.78-8.52-5.89-2.65-14.18-2.42-23.63-1.89C32.76,17,31.88,17,31,17.12Z"/><path class="cls-4" d="M54.44,24.3A2.48,2.48,0,0,1,54.72,27c-3.6,7.19-3.58,9.42-6.39,18.31-2.07,6.58-9.85,10.47-16,8.58-7.6-2.32-16.07-7.22-13.95-22.39.93-6.68.41-14,1.93-16.09,5.13-6.91,8.77-4.92,18.25-2C47.39,16.22,51,17.72,54.44,24.3Z"/><path class="cls-5" d="M51.35,36s1.27-12.79-5.21-11.43c-7,1.48-9.52-1.75-12.37-1.33-6.22.91-13.74,9.42-15.48,3.08S34.22,13.93,34.22,13.93s15.7-.37,16.71.14,4.7,9,4.7,9Z"/><path class="cls-6" d="M46.92,29.31a.48.48,0,0,1-.39-.73l.07-.12c.4-.66,1.42-.57,1.95-.29A4,4,0,0,1,51,31.62c0,.21-.22.38-.32.21A5.06,5.06,0,0,0,46.92,29.31Z"/><path class="cls-6" d="M35.39,26.26a.47.47,0,0,0,.74-.36v-.14c.07-.77-.81-1.29-1.41-1.37a4,4,0,0,0-4,1.39c-.15.15,0,.43.13.36A5.09,5.09,0,0,1,35.39,26.26Z"/><path class="cls-7" d="M48.27,20.16s-2.55,7.67-14.54.62c0,0,14.46-.51.62-5.46,0,0,1.5,5.09-7.24.91,0,0,5.38,7-6.37,12,0,0-2,.07-2.69,4.75-.05.34-.1.7-.14,1.08-.56,5.76.09-.74.09-.74s-4.89-2.4-3.19-8.41A8.43,8.43,0,0,1,16.56,15S16,7,24.87,7.72c0,0,4.15-6.74,9.16-5,0,0,8.84-3.53,12.69,4.34,0,0,6.3-.33,8.12,7.55,0,0,4.44,4.27,1.8,8.59,0,0,3.52,3.68-1.41,6.25,0,0,2.48,3.88-2.45,5.64l-2.57,4L51.35,36a15.07,15.07,0,0,0-2.8-15.51Z"/><path class="cls-8" d="M57.28,18.68c-5.8-2.61-13.9-2.45-23.67-1.89A60.31,60.31,0,0,0,15.42,21a15.48,15.48,0,0,0-3.83,2.46c-2.42,2-7.88,7.84-8.33,10.27.51-1.61,7.83-8.58,35.18-10.38C56.29,22.14,65,24.75,68,26.87,67.21,25.21,62.51,21,57.28,18.68Z"/><path class="cls-9" d="M68,27A.11.11,0,0,1,68,27c-1.69-1.18-8.79-4.9-29.51-3.54-2.41.16-4.75.36-7,.61C9.92,26.44,3.82,32.3,3.36,33.73a.11.11,0,0,1-.13.08.12.12,0,0,1-.08-.14c.48-2.57,6.12-8.52,8.37-10.34a15.12,15.12,0,0,1,3.86-2.48,61.53,61.53,0,0,1,15.59-4c.89-.1,1.77-.17,2.63-.22,9.47-.54,17.79-.76,23.73,1.91,5.22,2.35,10,6.51,10.78,8.24a.14.14,0,0,1,0,.14Z"/><path class="cls-10" d="M14.74,25.35c1.51-2.57,4.32-4.38,6.75-5.74a31.63,31.63,0,0,1,3.1-1.51A58.7,58.7,0,0,0,15.42,21a15.48,15.48,0,0,0-3.83,2.46c-2.42,2-7.88,7.84-8.33,10.27.31-1,3.12-3.92,11.38-6.49A1.94,1.94,0,0,1,14.74,25.35Z"/><path class="cls-10" d="M47,16.89a39.92,39.92,0,0,1,6.37,2.26c1.55.72,3.41,2,3.39,4a2.22,2.22,0,0,1,0,.37c6,.74,9.59,2.1,11.32,3.31-.8-1.66-5.5-5.83-10.73-8.19-3.49-1.57-7.82-2.13-12.84-2.22A21.39,21.39,0,0,1,47,16.89Z"/><path class="cls-8" d="M11.94,22.06s-1.61-8.93,8.37-16.25c10.82-7.92,24-3.7,27.93-1.23s8.07,7.86,8.95,13.09c0,0-15-1.47-22-.83S15.89,19.62,11.94,22.06Z"/><path class="cls-9" d="M33.6,16.89c.56-.07,1.1-.12,1.61-.17,6.53-.6,20.28.67,21.84.82-1-5.41-5.17-10.55-8.87-12.86C45.45,3,38.84.72,31.8,1.5A23.49,23.49,0,0,0,20.38,5.91c-9.07,6.64-8.5,14.71-8.35,16C16,19.53,27.05,17.62,33.6,16.89Z"/><path class="cls-10" d="M50.6,12.74c-1.18,2-3.37,2.9-5.34,3.48-.68.2-1.37.37-2.06.52,6.75.22,14,.93,14,.93-.82-4.84-4.38-9.8-8.06-12.48C50.84,7.17,52.06,10.21,50.6,12.74Z"/><path class="cls-10" d="M26.57,16.92c-2.59-.34-5.44-.83-7.75-2.37a5.49,5.49,0,0,1-2.76-4.8C10.84,16,11.94,22.06,11.94,22.06c3.23-2,12.11-3.8,19-4.73C29.51,17.25,28,17.12,26.57,16.92Z"/><path class="cls-11" d="M35,15.45c5.62-.56,20.76.32,22.32,1.24a9.19,9.19,0,0,1,.24,2.22c-.14.38-7.38-1.93-20.89-.95-17.76,1.31-24.31,5.25-24.76,5.37s-.36-2-.17-2.37S18.68,17.07,35,15.45Z"/><path class="cls-3" d="M57.5,19.07a9.43,9.43,0,0,1-1.5-.19,77.73,77.73,0,0,0-19.31-.8c-1.62.12-3.22.27-4.76.44-5.73.64-13.8,2-19.63,4.77a2.3,2.3,0,0,1-.36.15h0a.24.24,0,0,1-.25-.15,4.35,4.35,0,0,1,0-2.4c.18-.32,6.82-3.93,23.35-5.56,5.51-.55,20.78.3,22.38,1.25l0,0v.06A8.41,8.41,0,0,1,57.67,19C57.64,19.05,57.53,19.06,57.5,19.07Z"/><path class="cls-12" d="M57.33,16.69c-.89-.52-6.13-1-11.52-1.27l.57.12c5.27.87,1.57,1.58-2.45,1.42a79.28,79.28,0,0,0-14.31.72c-6.1.79-8.11-.24-3.21-1a7.81,7.81,0,0,0,1-.21C16.55,18.21,11.9,20.69,11.75,21s-.28,2.5.17,2.37,7-4.06,24.76-5.37c13.51-1,20.75,1.33,20.89.95A9.19,9.19,0,0,0,57.33,16.69Z"/><path class="cls-13" d="M17.39,25.5s11-3.91,36.78-3.1C54.17,22.4,33.73,19.65,17.39,25.5Z"/><path class="cls-4" d="M18.24,35.46c-.07-3.53-1.27-5.18-3.16-5.29-2-.12-2.89,1.25-2.95,4.14-.08,3.7,3.66,6.66,6.21,6.06"/><path class="cls-5" d="M13.66,33.42s-.4-2.08,1.77-1.57.84,3.24,1.38,4.45,1.8,2.48.84,2.68S13.59,37.83,13.66,33.42Z"/><path class="cls-14" d="M40.88,40.3a2.08,2.08,0,0,1,0,1.66,1.1,1.1,0,0,1-.72.61,2.12,2.12,0,0,1-.9,0,2.26,2.26,0,0,1-1.49-.86,2.34,2.34,0,0,1-.46-1.59,3.2,3.2,0,0,0,.75,1.34,2.34,2.34,0,0,0,1.28.62,1.14,1.14,0,0,0,1.21-.35A2.68,2.68,0,0,0,40.88,40.3Z"/></g></g></svg>