<svg id="Layer_1" data-name="Layer 1" xmlns="http://www.w3.org/2000/svg" viewBox="0 0 22.27 28.34"><defs><style>.cls-1{fill:#fbd3c7;stroke:#323232;stroke-miterlimit:10;stroke-width:0.25px;}.cls-2{fill:#323232;}.cls-3{fill:#dc9e8f;}</style></defs><path class="cls-1" d="M1.13,4.62a7.1,7.1,0,0,0,1,1,2,2,0,0,0,.61.41c1.63,2.91,7.07,7.33,8.49,8.2s2.38,1.86,2.28,3.19c-.17,2.48-.41,2.53-.1,3.34s-.64,1.7,0,1.87,1.56-1.09,1.48-2.26.31-1,.31-1C19,22.06,20.87,25.84,21.31,25s-.58-2.26-.58-2.26.78-2.32.54-3.05a13,13,0,0,0-4.39-4.95C14,12.62,9.37,5.29,7.94,3.32A15.32,15.32,0,0,1,7.05,2C6.4.9,6.43.57,6.36.69A7.93,7.93,0,0,1,1.13,4.62Z"/><path class="cls-2" d="M20.76,22.7a6.07,6.07,0,0,1-.91-1.28A6.3,6.3,0,0,1,19.29,20a15.05,15.05,0,0,1,.78,1.34C20.3,21.77,20.56,22.21,20.76,22.7Z"/><path class="cls-2" d="M21,21.91c-.16-.45-.26-.89-.4-1.32s-.28-.86-.4-1.32a3.62,3.62,0,0,1,.64,1.25A3.84,3.84,0,0,1,21,21.91Z"/><path class="cls-2" d="M21.21,20.91a2.42,2.42,0,0,1-.31-.7,2.15,2.15,0,0,1-.08-.77,2.28,2.28,0,0,1,.32.71A2.16,2.16,0,0,1,21.21,20.91Z"/><path class="cls-3" d="M1.3,4.68a6,6,0,0,0,.9,1A9.77,9.77,0,0,0,7,2.07C6.33,1,6.42.78,6.35.89A7.84,7.84,0,0,1,1.3,4.68Z"/></svg>