<svg id="Layer_1" data-name="Layer 1" xmlns="http://www.w3.org/2000/svg" viewBox="0 0 14.63 8.89"><defs><style>.cls-1{fill:#551514;}.cls-2{fill:#fff;}.cls-3{fill:#d72b5d;}.cls-4{fill:#bb7757;}.cls-5{fill:#dc9e8f;}</style></defs><g id="EE"><path class="cls-1" d="M13.87,4.35S11.63,4.1,11.17,4c-.64-.1-1.3-.22-1.92-.38C8.16,3.36,7.06,3.09,6,2.81a9.2,9.2,0,0,1-1.55-.55,6,6,0,0,0-1.36-.5,3.75,3.75,0,0,0-.89-.07L1.06,1a5,5,0,0,0,.38,1.94c.14.36.44.94.58,1.31C2.51,5.53,3.86,6.08,5.3,6.66a8.84,8.84,0,0,0,2.53.57,4.87,4.87,0,0,0,1.7,0c.2-.07.28,0,.47-.09s.91-.15,1.15-.36.7-.39,1-.63S13.87,4.35,13.87,4.35Z"/><path class="cls-2" d="M11.52,4.41l-.91-.51c-.07,0-3.4-.75-3.4-.75s-3.27-1-3.35-1L2.91,2a8.18,8.18,0,0,0,.42,1.28c.32.37,1.55.82,3.54,1.36a9.2,9.2,0,0,0,3.68.58C10.91,5.16,11.52,4.41,11.52,4.41Z"/><path class="cls-3" d="M3.91,5.87a4.44,4.44,0,0,0,2.47,1.2,5,5,0,0,0,2.71.06c0-.4-1.1-1-1.79-1.07s-1.55-.45-2-.48S4.16,5.57,3.91,5.87Z"/><path class="cls-2" d="M11,6.76s-1.25,0-1.9-.06-2.39-.37-2.39-.37-1.61-.44-2.12-.65-2.09-.92-2.09-.92L4.3,7l2,.7h0l.17.06v0l2.07.35Z"/><path class="cls-4" d="M13.87,4.35A10.14,10.14,0,0,1,11,6.76a6.52,6.52,0,0,1-4.42.61A8.07,8.07,0,0,1,2.19,4.24,8.48,8.48,0,0,1,1.06,1s.08,6,5.2,7.35C10.94,9.57,13.87,4.35,13.87,4.35Z"/><path class="cls-4" d="M7.26,3c-2.42-.61-6.2-2-6.2-2s.83,1.17,6.1,2.55c6.06,1.59,6.71.81,6.71.81S9.74,3.66,7.26,3Z"/><path class="cls-5" d="M1.07.65c.29-.19,0-.3-.23-.1s-.27.72-.27.72S1,.72,1.07.65Z"/><path class="cls-5" d="M13.77,4c-.24-.25.07-.29.25-.06s0,.72,0,.72C13.88,4.11,13.85,4.07,13.77,4Z"/></g></svg>