<svg id="Layer_1" data-name="Layer 1" xmlns="http://www.w3.org/2000/svg" viewBox="0 0 117.99 113.88"><defs><style>.cls-1{fill:#342516;}.cls-2,.cls-4{fill:#fad2c6;}.cls-2{stroke:#323232;stroke-width:0.25px;}.cls-2,.cls-9{stroke-miterlimit:10;}.cls-3{fill:#3d2d16;}.cls-5{fill:#632323;}.cls-6{fill:#323232;}.cls-7{fill:#dc9e8f;}.cls-8{fill:#e8d860;}.cls-9{fill:none;stroke:#ef4b3b;stroke-width:2px;}.cls-10{fill:#ef4b3b;}.cls-11{fill:#f49990;}</style></defs><path class="cls-1" d="M17.7,38.54C17.48,40,5.78,54.79,13.35,73.86s-5.46,32.72,14.6,37c18.43,3.94,31.65-1.61,31.65-1.61l1.48-6.52,18-7.06.36,10.62s15.5-3.91,25.37-10.69a19.59,19.59,0,0,0,5.87-6.08c7.72-13-3.42-16.77-6.39-41.9S45.5-8.65,14.6,38Z"/><path class="cls-2" d="M93.86,35.48c1.6,7.92,5,29.07,4.61,38.84-1,22-24.17,31.62-28.72,32.29-7.33,1.08-23.84,1.27-33.76-9S21.91,67,21.91,67,12.2,47.4,23.29,29.43,49.4,7.71,66.89,9.4C88.24,11.47,93.86,35.48,93.86,35.48Z"/><path class="cls-3" d="M44,49.53s-7.53.5-9.84,6.15c-.1.22-.44.21-.48,0C33.45,54.17,33.52,51,37.8,49,44.56,45.93,44,49.53,44,49.53Z"/><path class="cls-3" d="M72.71,45.51S80,43.11,84.3,47.45c.17.17.49,0,.44-.2-.35-1.47-1.64-4.39-6.41-4.57C70.81,42.39,72.71,45.51,72.71,45.51Z"/><path class="cls-4" d="M57.77,77.51c2.93,2.84,7.56,2.61,9.25-1.3"/><path class="cls-5" d="M57.77,77.51a8,8,0,0,0,5,1.38,5.09,5.09,0,0,0,2.36-.81A7.32,7.32,0,0,0,67,76.21a4.52,4.52,0,0,1-1.43,2.49,4.77,4.77,0,0,1-2.73,1.19A5.6,5.6,0,0,1,57.77,77.51Z"/><path class="cls-1" d="M67.1,28.91s-1.72,8.19-13,14.3c0,0,4.2-5,1-10.87C55,32.34,56.09,46,40,48.19l3.29-10.83L32.43,53.82l-.17-11.26S20.05,78.76,15,79.91c0,0-16.31-35.95,8.84-62.77S84.29,9.55,84.29,9.55s26.6,17.88,19.41,51.75c0,0-7.46,3-8.77,1.57s-.65-5.89-6.5-16.75C81.08,32.52,67.1,28.91,67.1,28.91Z"/><path class="cls-4" d="M24.13,70.58c.06-.14.24.13.09.17s-.28-.12-.36-.25a10.06,10.06,0,0,0-3.79-3.67,5,5,0,0,0-3.74-.7c-1.77.53-2.5,2.42-2.62,4.1a13,13,0,0,0,2,7.79c2.56,4.13,7.83,7.17,13,6.4"/><path class="cls-6" d="M24.13,70.58c.07-.12.22.07.14.16a.24.24,0,0,1-.31,0,3.32,3.32,0,0,1-.37-.49,9.91,9.91,0,0,0-.76-.93A10.24,10.24,0,0,0,21,67.73a6,6,0,0,0-4.26-1.31,3.51,3.51,0,0,0-2.5,3.18,11.46,11.46,0,0,0,.33,4.58,13.83,13.83,0,0,0,5.21,7.56,13.41,13.41,0,0,0,8.94,2.68,11.88,11.88,0,0,1-4.86-.07,15.07,15.07,0,0,1-4.52-2,14.1,14.1,0,0,1-3.59-3.43,13.82,13.82,0,0,1-2.14-4.5,12,12,0,0,1-.3-5,5.65,5.65,0,0,1,1-2.41,3.47,3.47,0,0,1,2.28-1.36,4.88,4.88,0,0,1,2.55.39,9.35,9.35,0,0,1,2.13,1.28A10.61,10.61,0,0,1,23,69.1a9.52,9.52,0,0,1,.68,1c.11.17.18.37.3.52a.2.2,0,0,0,.23.08C24.31,70.68,24.21,70.47,24.13,70.58Z"/><path class="cls-7" d="M19.47,72.1a15.31,15.31,0,0,1,1.61,1.51c.4.43.78,1.08.45,1.55s-.94.43-1.17.86.15,1,.62,1.18,1,.18,1.46.35a2,2,0,0,1,1.28,1.54,1.36,1.36,0,0,1,0,.72,1.37,1.37,0,0,1-1.59.65,3.69,3.69,0,0,1-1.56-1,14.08,14.08,0,0,1-2.73-3.14C16.72,74.51,15.69,69.05,19.47,72.1Z"/><path class="cls-8" d="M25.88,81.84s4.06,5.69.57,7.38-3.55-5.44-3.55-5.44,2,5.69,2.47,1.87Z"/><path class="cls-4" d="M96.19,57.51c-.09-.11-.19.2,0,.19s.23-.19.26-.34A10.13,10.13,0,0,1,99,52.74,5,5,0,0,1,102.36,51c1.85,0,3.1,1.59,3.7,3.16a13,13,0,0,1,.34,8c-1.25,4.71-5.41,9.14-10.6,9.91"/><path class="cls-6" d="M96.19,57.51c-.1-.08-.14.15-.07.17a.21.21,0,0,0,.2-.15,4.92,4.92,0,0,0,.14-.58,9.28,9.28,0,0,1,.35-1.17A10.06,10.06,0,0,1,98,53.6a8.86,8.86,0,0,1,1.67-1.85,4.85,4.85,0,0,1,2.32-1.12,3.5,3.5,0,0,1,2.58.65,5.53,5.53,0,0,1,1.67,2,12.24,12.24,0,0,1,1.18,4.88,14.27,14.27,0,0,1-.75,4.93,14.52,14.52,0,0,1-2.44,4.32,14.72,14.72,0,0,1-3.75,3.2,11.65,11.65,0,0,1-4.63,1.48,13.31,13.31,0,0,0,7.77-5.16,13.84,13.84,0,0,0,2.8-8.74,11.59,11.59,0,0,0-1-4.48A3.51,3.51,0,0,0,102,51.39a6,6,0,0,0-3.69,2.5,10.43,10.43,0,0,0-1.29,2A10.73,10.73,0,0,0,96.6,57a5.12,5.12,0,0,1-.21.58.25.25,0,0,1-.28.14C96,57.65,96.09,57.42,96.19,57.51Z"/><path class="cls-7" d="M101.09,57.61a15.14,15.14,0,0,0-1.1,1.92c-.25.53-.44,1.25,0,1.61s1,.14,1.37.48.14,1-.25,1.31-.9.46-1.3.76a2,2,0,0,0-.78,1.84,1.21,1.21,0,0,0,.27.67,1.34,1.34,0,0,0,1.7.17A3.71,3.71,0,0,0,102.23,65a14.17,14.17,0,0,0,1.7-3.79C104.43,59.12,103.82,53.59,101.09,57.61Z"/><path class="cls-8" d="M97.79,68.79s-2.23,6.63,1.6,7.23,1.81-6.23,1.81-6.23-.23,6-1.82,2.5Z"/><path class="cls-9" d="M18.79,66.17s-8.66-24.3,8.38-45S73.58,6.27,85.05,18.83c15.64,17.14,12.67,36,12.67,36"/><path class="cls-10" d="M22.31,24.67S19,2.56,28.18,9.7s12.54,16.54-3.05,19.12c-2.73.45-3.93,1.39-4.39,4.07-1,6.07-.84,28.32-16.9,5.67-10.77-15.19,15-7.72,15-7.72S14.64,24.28,22.31,24.67Z"/><ellipse class="cls-11" cx="5.61" cy="33.8" rx="1.49" ry="1.73" transform="translate(-8.24 2.46) rotate(-14.43)"/><ellipse class="cls-11" cx="17.18" cy="38.69" rx="1.49" ry="1.73" transform="translate(-9.1 5.5) rotate(-14.43)"/><ellipse class="cls-11" cx="27.76" cy="18.6" rx="1.49" ry="1.73" transform="translate(-3.76 7.5) rotate(-14.43)"/><ellipse class="cls-11" cx="32.34" cy="19.55" rx="1.49" ry="1.73" transform="translate(-3.85 8.67) rotate(-14.43)"/><ellipse class="cls-11" cx="30.59" cy="14.57" rx="1.49" ry="1.73" transform="translate(-2.67 8.08) rotate(-14.43)"/><ellipse class="cls-11" cx="27.36" cy="11.64" rx="1.49" ry="1.73" transform="translate(-2.04 7.18) rotate(-14.43)"/><ellipse class="cls-11" cx="30.73" cy="24.75" rx="1.49" ry="1.73" transform="translate(-5.2 8.44) rotate(-14.43)"/><ellipse class="cls-11" cx="23.98" cy="12.14" rx="1.49" ry="1.73" transform="translate(-2.27 6.36) rotate(-14.43)"/><ellipse class="cls-11" cx="23.7" cy="19.2" rx="1.49" ry="1.73" transform="translate(-4.04 6.51) rotate(-14.43)"/><ellipse class="cls-11" cx="26.94" cy="24.6" rx="1.49" ry="1.73" transform="translate(-5.28 7.49) rotate(-14.43)"/><ellipse class="cls-11" cx="10.32" cy="31.35" rx="1.49" ry="1.73" transform="translate(-7.49 3.56) rotate(-14.43)"/><ellipse class="cls-11" cx="12" cy="42.64" rx="1.49" ry="1.73" transform="translate(-10.25 4.33) rotate(-14.43)"/><ellipse class="cls-11" cx="7.4" cy="40.14" rx="1.49" ry="1.73" transform="translate(-9.77 3.11) rotate(-14.43)"/><ellipse class="cls-11" cx="11.75" cy="36.9" rx="1.49" ry="1.73" transform="translate(-8.82 4.09) rotate(-14.43)"/><ellipse class="cls-11" cx="16.02" cy="45.26" rx="1.49" ry="1.73" transform="translate(-10.77 5.42) rotate(-14.43)"/><ellipse class="cls-11" cx="15.71" cy="32.97" rx="1.49" ry="1.73" transform="translate(-7.72 4.95) rotate(-14.43)"/></svg>