<svg xmlns="http://www.w3.org/2000/svg" viewBox="0 0 67.26 53.43"><defs><style>.cls-1{isolation:isolate;}.cls-2{fill:#5c5548;}.cls-3{fill:#424036;}.cls-4{fill:#fad2c6;stroke:#323232;}.cls-4,.cls-7{stroke-miterlimit:10;stroke-width:0.25px;}.cls-5{fill:#e4a58c;}.cls-6{fill:#421b16;}.cls-7{fill:#311415;stroke:#211e1f;}.cls-8{fill:#90856e;}.cls-9{fill:#605e44;}.cls-10,.cls-13{fill:#9e9580;opacity:0.5;}.cls-10,.cls-12{mix-blend-mode:multiply;}.cls-11,.cls-12{fill:#676254;}.cls-12{opacity:0.4;}.cls-13{mix-blend-mode:screen;}.cls-14{fill:#c28974;}</style></defs><g class="cls-1"><g id="Layer_1" data-name="Layer 1"><path class="cls-2" d="M12.3,21.18a15.29,15.29,0,0,0-3.53,2.61c-2.22,2-7.12,8-7.4,10.39s15-.4,34.85-2.8,27.2-6.11,27.23-7.24-5.22-5.51-11-7.67-13.53-1.52-22.9-.4A58.4,58.4,0,0,0,12.3,21.18Z"/><path class="cls-3" d="M27.08,16.55a59.4,59.4,0,0,0-14.73,4.74,14.45,14.45,0,0,0-3.51,2.58C6.55,26,1.75,31.92,1.47,34.2a.37.37,0,0,0,.1.3c1.11,1.16,9.49,0,21.1-1.49,4.08-.54,8.7-1.15,13.54-1.74,3.31-.4,6.45-.86,9.32-1.36,13.54-2.37,17.79-5.07,17.81-5.78,0-1.07-5.22-5.42-10.9-7.56s-13.8-1.47-22.86-.39C28.76,16.28,27.92,16.4,27.08,16.55Z"/><path class="cls-4" d="M50.08,22.05a2.42,2.42,0,0,1,.44,2.6c-3,7.14-2.88,9.29-5.05,18-1.6,6.45-8.86,10.67-14.93,9.22-7.45-1.77-15.91-6-14.79-20.71.5-6.48-.45-13.55.89-15.61,4.53-7,8.15-5.26,17.46-3C42.8,14.69,46.4,15.92,50.08,22.05Z"/><path class="cls-5" d="M47.81,33.48s.45-12.39-5.7-10.69c-6.7,1.85-9.28-1.11-12-.53-5.93,1.25-12.66,9.89-14.71,3.9S30,13.29,30,13.29,45.08,12,46.08,12.41s5.07,8.34,5.07,8.34Z"/><path class="cls-6" d="M43.15,27.33a.46.46,0,0,1-.43-.68l.07-.12c.34-.66,1.32-.63,1.85-.4a3.85,3.85,0,0,1,2.55,3.18c.05.19-.19.37-.29.22A4.89,4.89,0,0,0,43.15,27.33Z"/><path class="cls-6" d="M31.86,25.09a.46.46,0,0,0,.69-.39v-.14c0-.75-.86-1.19-1.44-1.24a3.85,3.85,0,0,0-3.75,1.58c-.14.15,0,.43.15.34A4.92,4.92,0,0,1,31.86,25.09Z"/><path class="cls-7" d="M43.89,18.43s-2,7.54-14,1.48c0,0,13.89-1.36.26-5.29,0,0,1.75,4.8-6.92,1.31,0,0,5.61,6.45-5.41,11.9,0,0-1.89.18-2.3,4.73,0,.33-.05.68-.06,1.06-.19,5.57,0-.73,0-.73A6.68,6.68,0,0,1,12,25,8.15,8.15,0,0,1,13,15.35s-1-7.64,7.57-7.48c0,0,3.59-6.74,8.52-5.39,0,0,8.3-3.94,12.47,3.4,0,0,6-.69,8.28,6.79,0,0,4.53,3.84,2.25,8.16,0,0,3.61,3.33-1,6.1,0,0,2.62,3.59-2,5.58l-2.24,4,.92-3a14.55,14.55,0,0,0-3.63-14.76Z"/><path class="cls-8" d="M52.47,16.47c-5.74-2.16-13.53-1.52-22.9-.4A58.4,58.4,0,0,0,12.3,21.18a15.29,15.29,0,0,0-3.53,2.61c-2.22,2-7.12,8-7.4,10.39.39-1.58,7-8.74,33.24-12.12,17.12-2.2,25.63-.22,28.69,1.65C62.43,22.15,57.65,18.42,52.47,16.47Z"/><path class="cls-9" d="M63.32,23.82a.1.1,0,0,1-.07,0c-1.69-1-8.76-4.19-28.62-1.63-2.32.3-4.56.64-6.68,1C7.34,26.79,1.82,32.8,1.47,34.21a.09.09,0,0,1-.12.08.11.11,0,0,1-.09-.12c.31-2.51,5.38-8.58,7.44-10.47a14.86,14.86,0,0,1,3.56-2.62A59.76,59.76,0,0,1,27,16.33c.84-.15,1.69-.27,2.51-.37,9.09-1.09,17.09-1.81,23,.4,5.17,1.95,10,5.68,10.87,7.29a.12.12,0,0,1,0,.14Z"/><path class="cls-10" d="M11.92,25.45c1.3-2.56,3.9-4.48,6.15-5.93C19,18.92,20,18.38,21,17.88a57.43,57.43,0,0,0-8.66,3.3,15.29,15.29,0,0,0-3.53,2.61c-2.22,2-7.12,8-7.4,10.39.24-1,2.77-4,10.56-6.94A1.89,1.89,0,0,1,11.92,25.45Z"/><path class="cls-10" d="M42.43,15.37a36.66,36.66,0,0,1,6.27,1.79c1.53.6,3.4,1.68,3.5,3.69a2,2,0,0,1,0,.35c5.85.35,9.36,1.45,11.1,2.51-.87-1.56-5.65-5.29-10.83-7.24C49,15.17,44.82,14.88,40,15.11A18.34,18.34,0,0,1,42.43,15.37Z"/><path class="cls-8" d="M9,22.46S6.93,14,16.11,6.31C26-2,39,1.29,42.92,3.44s8.24,7.08,9.41,12.06c0,0-14.54-.51-21.2.52S12.68,19.87,9,22.46Z"/><path class="cls-9" d="M29.56,16.17l1.55-.26c6.24-1,19.57-.58,21.08-.53-1.26-5.15-5.62-9.84-9.32-11.84-2.73-1.48-9.24-3.25-16-2.08A22.63,22.63,0,0,0,16.17,6.4C7.84,13.34,8.88,21.08,9.1,22.27,12.78,19.78,23.31,17.27,29.56,16.17Z"/><path class="cls-10" d="M45.68,11.15c-1,2-3.06,3-4.92,3.68-.65.23-1.3.43-2,.62,6.51-.2,13.53.05,13.53.05C51.25,10.89,47.52,6.33,43.82,4,45.58,5.78,46.94,8.63,45.68,11.15Z"/><path class="cls-10" d="M22.8,16.63a17.36,17.36,0,0,1-7.6-1.81,5.29,5.29,0,0,1-2.95-4.46C7.6,16.67,9,22.46,9,22.46c3-2.12,11.43-4.39,18-5.71C25.65,16.76,24.22,16.73,22.8,16.63Z"/><path class="cls-11" d="M30.84,14.7c5.38-.88,20-.95,21.56-.15a8.88,8.88,0,0,1,.37,2.12c-.12.38-7.22-1.42-20.17.35-17,2.33-23.09,6.52-23.52,6.66s-.46-1.94-.3-2.27S15.22,17.24,30.84,14.7Z"/><path class="cls-3" d="M52.71,16.83a10,10,0,0,1-1.45-.09,75.34,75.34,0,0,0-18.64.39c-1.56.21-3.09.45-4.56.71-5.48,1-13.17,2.74-18.62,5.78a2.61,2.61,0,0,1-.33.17h0a.23.23,0,0,1-.25-.13,4.12,4.12,0,0,1-.15-2.31c.15-.32,6.32-4.2,22.14-6.77,5.27-.86,20-1,21.63-.14l0,0,0,0a8.14,8.14,0,0,1,.36,2.19C52.84,16.8,52.74,16.82,52.71,16.83Z"/><path class="cls-12" d="M52.4,14.55c-.88-.45-6-.62-11.17-.53l.56.08c5.13.52,1.61,1.42-2.27,1.51a76.52,76.52,0,0,0-13.74,1.56c-5.82,1.13-7.82.26-3.15-.79a9.21,9.21,0,0,0,.92-.27c-10.32,2.36-14.64,5-14.77,5.3s-.13,2.42.3,2.27S15.57,19.35,32.6,17c12.95-1.77,20,0,20.17-.35A8.88,8.88,0,0,0,52.4,14.55Z"/><path class="cls-13" d="M14.48,25.44S24.81,21,49.71,20.23C49.71,20.23,29.86,18.82,14.48,25.44Z"/><path class="cls-4" d="M15.89,35c-.27-3.39-1.53-4.91-3.35-4.9s-2.71,1.37-2.6,4.16c.15,3.57,3.93,6.19,6.35,5.46"/><path class="cls-5" d="M11.37,33.29s-.52-2,1.61-1.61,1,3.06,1.59,4.2,1.89,2.28,1,2.52S11.56,37.54,11.37,33.29Z"/><path class="cls-14" d="M38,38.27a2.07,2.07,0,0,1,.14,1.61,1.14,1.14,0,0,1-.66.63,2,2,0,0,1-.87.09,2.17,2.17,0,0,1-1.5-.74,2.27,2.27,0,0,1-.53-1.51,3.08,3.08,0,0,0,.81,1.24,2.2,2.2,0,0,0,1.27.51,1.06,1.06,0,0,0,1.13-.39A2.6,2.6,0,0,0,38,38.27Z"/></g></g></svg>