<svg id="Layer_1" data-name="Layer 1" xmlns="http://www.w3.org/2000/svg" viewBox="0 0 22.49 12.05"><defs><style>.cls-1{fill:#dc9e8f;}.cls-2{fill:#f6fbfd;stroke:#323232;stroke-miterlimit:10;stroke-width:0.25px;}.cls-3{fill:#451f16;}.cls-4{fill:#fff;}</style></defs><circle class="cls-1" cx="4.36" cy="7.45" r="4.02"/><path class="cls-2" d="M.75,7.69A3.79,3.79,0,0,0,4.4,11.61c2.09.08,3.82-.9,3.9-3S6.76,4.12,4.67,4.05A3.78,3.78,0,0,0,.75,7.69Z"/><ellipse class="cls-3" cx="4.85" cy="9.34" rx="1.85" ry="2.15" transform="translate(-5.47 11.41) rotate(-73.9)"/><circle class="cls-4" cx="3.05" cy="9.16" r="0.65"/><ellipse class="cls-1" cx="17.96" cy="4.33" rx="4.2" ry="4.02" transform="translate(-0.51 4.72) rotate(-14.78)"/><path class="cls-2" d="M21.68,3.77A3.78,3.78,0,0,1,19,8.39c-2,.54-3.93,0-4.47-2.06S15,1.6,17.05,1.07A3.78,3.78,0,0,1,21.68,3.77Z"/><ellipse class="cls-3" cx="17.66" cy="6.32" rx="1.77" ry="2.1" transform="translate(1.88 16.46) rotate(-52.41)"/><circle class="cls-4" cx="15.97" cy="6.44" r="0.65"/><path class="cls-1" d="M.61,7.69a3.92,3.92,0,0,0,3.78,4.07c2.17.08,4-.94,4.05-3.11S6.85,4,4.68,3.9A3.94,3.94,0,0,0,.61,7.69Z"/><path class="cls-1" d="M21.82,3.73A3.93,3.93,0,0,1,19,8.53c-2.1.56-4.07,0-4.63-2.14S14.92,1.48,17,.93A3.93,3.93,0,0,1,21.82,3.73Z"/></svg>