<svg id="Layer_1" data-name="Layer 1" xmlns="http://www.w3.org/2000/svg" viewBox="0 0 56.04 20.51"><defs><style>.cls-1,.cls-4{fill:#fad2c6;}.cls-1,.cls-3{stroke:#323232;stroke-miterlimit:10;stroke-width:0.25px;}.cls-2{fill:#dc9e8f;}.cls-3{fill:#ffe57b;}</style></defs><path class="cls-1" d="M40,10.9l1.14-.33a7.49,7.49,0,0,0,4,1.25c2.84.28,4.38.16,5.32-.61l-1.62-4-3.42-1.8L40.94,7.26Z"/><path class="cls-1" d="M46.81,4.71l6.64-.87a.73.73,0,0,1,.63.2c.19.18.46.57-.39.92-1.3.53-6.07,1.6-6.07,1.6A1.36,1.36,0,0,1,46.81,4.71Z"/><path class="cls-1" d="M41.11,7.1l-.54,3.61L27.64,14.46A10.79,10.79,0,0,1,20.38,14l-3.26-1.39-2.4-1,1.83-5.17.9-1.06s.7.29,1.61.68l.34.14L24.25,8.3Z"/><path class="cls-2" d="M17.15,12.49l-2.41-1L16.57,6.3l.9-1.06s0,.28.9.67l1,.43A13.68,13.68,0,0,1,17.15,12.49Z"/><path class="cls-3" d="M18.46,5.25c-1.55-.69-7-3.38-8.64-3.85-1.31-.37-5-.28-8.07.08V5.63c4.57,2.83,11.35,6.81,13.53,7.13C16,12.89,19,5.49,18.46,5.25Z"/><path class="cls-1" d="M46.71,6.87s2.93-.56,3.74-.15a.77.77,0,0,1,0,1.46c-.52.07-3.87.65-4.86,0S46.71,6.87,46.71,6.87Z"/><path class="cls-1" d="M46.61,8.5a37.08,37.08,0,0,1,3.86-.16c.53.07.67,1.43-.24,1.6-.52.1-3.06.28-4.06-.36C45.33,9,46.61,8.5,46.61,8.5Z"/><path class="cls-1" d="M46.6,9.84s2.85.16,3.61.27c.53.07.63,1.18-.28,1.35a7.09,7.09,0,0,1-3.65-.68C45.44,10.24,46.6,9.84,46.6,9.84Z"/><path class="cls-1" d="M40.23,7.16A6.5,6.5,0,0,0,43.8,5.28c1.54-1.4,3-1.37,3.38-.42s0,1.74,1.54,3.47c0,0-1.54,1.37-2.94-.69l-.56-.79A3,3,0,0,1,44,9.18"/><path class="cls-4" d="M40.26,7.69A1.69,1.69,0,0,0,39.57,9a.74.74,0,0,0,.06.36,2.8,2.8,0,0,1,.15.3c0,.11,0,.26-.12.28l.45.47a.55.55,0,0,0,.3.2.5.5,0,0,0,.29-.05l.65-.23a1,1,0,0,0,.41-.22.78.78,0,0,0,.2-.44.91.91,0,0,0-.1-.67,2.56,2.56,0,0,1-.2-.26,1,1,0,0,1,.06-.64C42,7.09,40.87,7.24,40.26,7.69Z"/></svg>