<svg id="Layer_1" data-name="Layer 1" xmlns="http://www.w3.org/2000/svg" viewBox="0 0 15 10"><defs><style>.cls-1{fill:#551514;}.cls-2{fill:#d72b5d;}.cls-3{fill:#fff;}.cls-4{fill:#bb7757;}</style></defs><g id="S"><path class="cls-1" d="M12.31,7.72A13.93,13.93,0,0,1,9.23,8.87a5.75,5.75,0,0,1-3.07-.32c-.35-.1-2.18-1-2.64-1.22-1.08-.45-2.41-2.9-2.41-2.9A4.94,4.94,0,0,1,2.26,4c.42-.1.87-.27,1.3-.41A6.66,6.66,0,0,1,6,3.31,8.56,8.56,0,0,1,9.63,4.57c.26.14,1.39,1.08,1.73,1.35A5.21,5.21,0,0,1,12.31,7.72Z"/><path class="cls-2" d="M8.65,7.13c-.42-.45-1.05-.21-1.58-.36L6.2,6.54A5.21,5.21,0,0,0,4.49,6,.76.76,0,0,0,4,7.21a2.91,2.91,0,0,0,1.35.5,12.27,12.27,0,0,0,2.38.49c.25,0,.7.19.94,0A.72.72,0,0,0,8.65,7.13Z"/><path class="cls-3" d="M9.36,4.35,6.94,3.46,4.26,3.23l-.67.18a3.66,3.66,0,0,0,.81.67A14.58,14.58,0,0,0,9.49,5.41a9.29,9.29,0,0,0,1.25-.13Z"/><path class="cls-3" d="M9.51,8.72S9.39,8,9.2,7.83c-.63-.45-1.58-.25-2.85-.64a13.2,13.2,0,0,0-3-.9,1.93,1.93,0,0,0-.6.3l.73.63,2.64,1,2.16.4Z"/><path class="cls-4" d="M12.31,7.72a8.24,8.24,0,0,1-3.15.53A24,24,0,0,1,3.8,6.8,18.66,18.66,0,0,1,1.11,4.43a2.08,2.08,0,0,0,.28.8A7,7,0,0,0,3.25,7.4,8.9,8.9,0,0,0,6.14,8.54,6.66,6.66,0,0,0,9.56,9,8.1,8.1,0,0,0,12.3,7.77S12.31,7.72,12.31,7.72Z"/></g><path class="cls-4" d="M1.11,4.43S3.5,3,7.47,4.1s4.84,3.62,4.84,3.62S12.19,4.86,7.59,3.5,1.11,4.43,1.11,4.43Z"/></svg>