<svg xmlns="http://www.w3.org/2000/svg" viewBox="0 0 69.21 55.59"><defs><style>.cls-1{isolation:isolate;}.cls-2{fill:#5c5548;}.cls-3{fill:#424036;}.cls-4{fill:#fad2c6;stroke:#323232;}.cls-4,.cls-7{stroke-miterlimit:10;stroke-width:0.25px;}.cls-5{fill:#e4a58c;}.cls-6{fill:#421b16;}.cls-7{fill:#311415;stroke:#211e1f;}.cls-8{fill:#90856e;}.cls-9{fill:#605e44;}.cls-10,.cls-13{fill:#9e9580;opacity:0.5;}.cls-10,.cls-12{mix-blend-mode:multiply;}.cls-11,.cls-12{fill:#676254;}.cls-12{opacity:0.4;}.cls-13{mix-blend-mode:screen;}.cls-14{fill:#c28974;}</style></defs><g class="cls-1"><g id="Layer_1" data-name="Layer 1"><path class="cls-2" d="M11.85,23a15.47,15.47,0,0,0-3.52,2.88c-2.2,2.21-7,8.67-7.14,11.13s15.49-1.18,35.94-4.67S65,24.65,65,23.48,59.26,18.05,53.2,16.1s-14.09-.89-23.74.75A60.42,60.42,0,0,0,11.85,23Z"/><path class="cls-3" d="M26.91,17.48a61.49,61.49,0,0,0-15,5.65A15.69,15.69,0,0,0,8.4,26c-2.27,2.3-6.93,8.69-7.1,11.07a.35.35,0,0,0,.12.3c1.2,1.15,9.83-.43,21.76-2.62,4.2-.77,9-1.64,13.93-2.49,3.41-.58,6.64-1.22,9.59-1.88,13.89-3.15,18.16-6.15,18.14-6.89,0-1.11-5.68-5.35-11.67-7.27-6.15-2-14.36-.82-23.69.76C28.64,17.11,27.77,17.28,26.91,17.48Z"/><path class="cls-4" d="M51,22a2.54,2.54,0,0,1,.58,2.68c-2.78,7.54-2.51,9.76-4.3,18.91-1.33,6.77-8.63,11.5-15,10.31-7.81-1.46-16.78-5.38-16.37-20.69.18-6.74-1.15-14,.13-16.2,4.33-7.44,8.17-5.87,17.92-4C43.09,14.75,46.88,15.84,51,22Z"/><path class="cls-5" d="M49.24,34s-.17-12.85-6.45-10.78c-6.84,2.26-9.66-.67-12.44.06-6.08,1.6-12.61,10.89-15,4.79S29.76,14,29.76,14s15.55-2.12,16.61-1.73S52,20.6,52,20.6Z"/><path class="cls-6" d="M44.1,27.82a.48.48,0,0,1-.48-.68l.06-.13c.32-.71,1.34-.73,1.91-.51a4,4,0,0,1,2.79,3.16c.06.2-.17.4-.29.25A5.07,5.07,0,0,0,44.1,27.82Z"/><path class="cls-6" d="M32.29,26.07a.47.47,0,0,0,.7-.44v-.14c0-.77-1-1.19-1.56-1.2a4,4,0,0,0-3.8,1.82c-.14.17,0,.44.17.34A5.1,5.1,0,0,1,32.29,26.07Z"/><path class="cls-7" d="M44.41,18.57S42.73,26.48,30,20.81c0,0,14.31-2.12,0-5.49,0,0,2.06,4.88-7.1,1.7,0,0,6.13,6.4-5,12.6,0,0-1.95.29-2.15,5,0,.34,0,.71,0,1.1.09,5.78,0-.76,0-.76s-5.13-1.83-4.1-8a8.44,8.44,0,0,1,.63-10s-1.43-7.87,7.45-8.14c0,0,3.37-7.16,8.54-6,0,0,8.4-4.5,13.1,2.88,0,0,6.22-1,8.91,6.61,0,0,4.88,3.74,2.75,8.33,0,0,3.9,3.27-.71,6.37,0,0,2.9,3.58-1.8,5.88l-2.12,4.24.8-3.17a15.1,15.1,0,0,0-4.51-15.1Z"/><path class="cls-8" d="M53.2,16.1c-6.05-2-14.09-.89-23.74.75A60.42,60.42,0,0,0,11.85,23a15.47,15.47,0,0,0-3.52,2.88c-2.2,2.21-7,8.67-7.14,11.13C1.52,35.39,8,27.64,35,22.8c17.62-3.16,26.52-1.53,29.79.24C63.8,21.48,58.66,17.85,53.2,16.1Z"/><path class="cls-9" d="M64.81,23.15a.08.08,0,0,1-.08,0c-1.81-1-9.28-3.89-29.72-.23-2.38.43-4.68.9-6.86,1.39C7,29.09,1.59,35.59,1.3,37.07a.11.11,0,0,1-.12.09.13.13,0,0,1-.1-.13c.19-2.61,5.13-9.15,7.17-11.21a15.72,15.72,0,0,1,3.55-2.9,62,62,0,0,1,15.06-5.66c.87-.2,1.73-.37,2.58-.52C38.8,15.15,47,14,53.24,16c5.45,1.75,10.61,5.36,11.63,7a.12.12,0,0,1,0,.14A.05.05,0,0,1,64.81,23.15Z"/><path class="cls-10" d="M11.67,27.47c1.22-2.72,3.81-4.84,6.07-6.46a33,33,0,0,1,2.91-1.84A59.73,59.73,0,0,0,11.85,23a15.47,15.47,0,0,0-3.52,2.88c-2.2,2.21-7,8.67-7.14,11.13.2-1,2.67-4.25,10.59-7.72A2,2,0,0,1,11.67,27.47Z"/><path class="cls-10" d="M42.74,15.47A37.94,37.94,0,0,1,49.33,17c1.61.54,3.61,1.56,3.81,3.63a2.36,2.36,0,0,1,0,.37c6.07.06,9.76,1,11.62,2-1-1.56-6.12-5.19-11.58-6.94-3.64-1.17-8-1.25-13-.78A21.55,21.55,0,0,1,42.74,15.47Z"/><path class="cls-8" d="M8.53,24.52S5.92,15.82,15,7.43c9.86-9.08,23.4-6.35,27.61-4.33S51.54,10,53,15.1c0,0-15.08.21-21.92,1.63S12.17,21.65,8.53,24.52Z"/><path class="cls-9" d="M29.47,17c.55-.13,1.08-.25,1.58-.35C37.47,15.29,51.28,15,52.85,15,51.28,9.72,46.53,5.08,42.6,3.2,39.69,1.81,32.87.31,26,1.87A23.5,23.5,0,0,0,15.1,7.52c-8.27,7.61-6.8,15.57-6.51,16.8C12.27,21.55,23,18.41,29.47,17Z"/><path class="cls-10" d="M45.9,10.94C45,13.09,42.88,14.19,41,15c-.65.28-1.32.52-2,.75,6.73-.53,14-.64,14-.64-1.35-4.71-5.45-9.25-9.4-11.5C45.51,5.38,47.07,8.26,45.9,10.94Z"/><path class="cls-10" d="M22.48,17.78c-2.61-.05-5.49-.22-8-1.49a5.51,5.51,0,0,1-3.28-4.47c-4.49,6.78-2.71,12.7-2.71,12.7,3-2.35,11.6-5.13,18.39-6.83C25.44,17.77,24,17.81,22.48,17.78Z"/><path class="cls-11" d="M30.71,15.37c5.53-1.18,20.66-2,22.32-1.26a9.62,9.62,0,0,1,.49,2.18c-.1.4-7.55-1.1-20.87,1.39-17.51,3.28-23.58,7.93-24,8.1s-.58-2-.43-2.34S14.67,18.8,30.71,15.37Z"/><path class="cls-3" d="M53.46,16.46a9.6,9.6,0,0,1-1.51,0A77.29,77.29,0,0,0,32.68,17.8c-1.6.3-3.18.62-4.69,1C22.37,20,14.5,22.27,9,25.69a1.94,1.94,0,0,1-.33.2h0a.24.24,0,0,1-.26-.12,4.27,4.27,0,0,1-.27-2.38c.14-.34,6.33-4.67,22.58-8.14,5.41-1.16,20.68-2,22.38-1.26l0,0,0,.05a7.88,7.88,0,0,1,.49,2.25C53.6,16.42,53.49,16.45,53.46,16.46Z"/><path class="cls-12" d="M53,14.11c-.94-.42-6.2-.34-11.6,0l.58,0c5.34.28,1.75,1.39-2.26,1.68A80.54,80.54,0,0,0,25.6,18.18c-6,1.48-8.08.67-3.31-.65.35-.1.66-.21.95-.32-10.57,3-14.91,5.94-15,6.23s0,2.51.43,2.34,6.5-4.82,24-8.1c13.32-2.49,20.77-1,20.87-1.39A9.62,9.62,0,0,0,53,14.11Z"/><path class="cls-13" d="M14.32,27.32s10.47-5.1,36.2-7.18C50.52,20.14,29.9,19.69,14.32,27.32Z"/><path class="cls-4" d="M16.27,37.13c-.45-3.5-1.83-5-3.72-4.91-2,.11-2.74,1.56-2.48,4.45.34,3.68,4.39,6.21,6.85,5.33"/><path class="cls-5" d="M11.5,35.61s-.63-2,1.59-1.75S14.28,37,15,38.12s2.07,2.27,1.13,2.57S11.92,40,11.5,35.61Z"/><path class="cls-14" d="M39.32,39.41a2.08,2.08,0,0,1,.21,1.65,1.14,1.14,0,0,1-.65.69,2.12,2.12,0,0,1-.89.13,2.23,2.23,0,0,1-1.58-.69,2.32,2.32,0,0,1-.63-1.53,3.13,3.13,0,0,0,.89,1.25,2.21,2.21,0,0,0,1.35.47,1.1,1.1,0,0,0,1.16-.47A2.75,2.75,0,0,0,39.32,39.41Z"/></g></g></svg>