<svg id="Layer_1" data-name="Layer 1" xmlns="http://www.w3.org/2000/svg" xmlns:xlink="http://www.w3.org/1999/xlink" viewBox="0 0 78.13 17.09"><defs><style>.cls-1{fill:none;}.cls-2{clip-path:url(#clip-path);}.cls-3{fill:#ff6425;}.cls-4{fill:#ffa724;}.cls-5{fill:#fff18b;}.cls-6{fill:#281b17;}.cls-7{fill:#473a3a;}.cls-8{fill:#5e5454;}</style><clipPath id="clip-path"><path class="cls-1" d="M33.82.85s9-.06,10.8.12c0,0,3.21,3.73.78,6.79s-6,5.27-8.86,4S30.93,4.6,33.82.85Z"/></clipPath></defs><g class="cls-2"><path class="cls-3" d="M39.53,8.88c-1.48,0-3.66-.81-3.66-3.12s1.38-2.94,1.38-2.94a2.16,2.16,0,0,0-.36,1.06,3.32,3.32,0,0,1,2-1.74c1.3-.34,2.19-.45,2.71-1.47a1.52,1.52,0,0,1-.52,1.43A2.57,2.57,0,0,0,42.94-.43a2.07,2.07,0,0,1,.2,1.71,2.8,2.8,0,0,1-2.35,1.93c-1.29.25-2.21,1.06-2.21,2a.89.89,0,0,0,1,.86.81.81,0,0,0,.89-.89c0-.68-.79-1-.79-1a2.17,2.17,0,0,1,2,.4c-.1-.33-.72-.66-.72-.66a2,2,0,0,1,1.76,2.13A3.14,3.14,0,0,1,39.53,8.88Z"/><path class="cls-3" d="M39.21-3.56c.39.16,1.25.76,1.32,1.48S40.16-.59,40.27-.2A1.2,1.2,0,0,0,41,.69a2.57,2.57,0,0,1-1.66.85c-1.27.23-1.34-.48-1.24-1,.28-1.41,1.56-1.4,1.62-2.71A1.51,1.51,0,0,0,39.21-3.56Z"/><path class="cls-3" d="M38.34-.9c-1.76,1.77-.51,2.75-.51,2.75A1.13,1.13,0,0,1,36.65.33,2,2,0,0,1,38.34-.9Z"/><path class="cls-3" d="M41.3-1.88c.53.24,1.28,1.36.6,1.88-.26.2-.7-.07-.37-.65S41.3-1.88,41.3-1.88Z"/><path class="cls-3" d="M42,3.7a2.42,2.42,0,0,1,1.3,1.54,2.56,2.56,0,0,1-.66,2.63C43.1,7.72,44,7.34,44,5.71A2.18,2.18,0,0,0,42,3.7Z"/><path class="cls-3" d="M35.49,4.93a2.64,2.64,0,0,0,1.34,3.49C35.94,8.24,35.27,8,35,7.23A2.63,2.63,0,0,1,35.49,4.93Z"/><path class="cls-4" d="M39.53,8.88a3.07,3.07,0,0,1-2.85-3.09c.5,1.44,1.39,1.64,1.39,1.64a2.2,2.2,0,0,1-.23-2.5,1.82,1.82,0,0,0,1.69,2,1.45,1.45,0,0,0,1.31-1.47,1.9,1.9,0,0,1-.28,2.07A3.21,3.21,0,0,0,42,6.33C42.05,7.65,40.32,8.88,39.53,8.88Z"/><path class="cls-5" d="M39.53,8.88A2,2,0,0,1,38.27,8c.38.21.77-.34.58-.79a1.5,1.5,0,0,0,1.75.56C40.56,8.35,40,8.74,39.53,8.88Z"/><path class="cls-4" d="M38.81,1c-.44.15-.44-.9.39-1.59C39.2-.11,39.25.81,38.81,1Z"/></g><path class="cls-6" d="M24.55,16.25c.84-.59,8.6-5.45,8.79-5.56a1.75,1.75,0,0,0-.33-.13l-.38-.44c-.16,0-8.7,5.5-9.52,6.06Z"/><path class="cls-6" d="M53.15,16.14l1.27-.08c-.65-.46-8.49-6.16-8.67-6.2l-1.26.22.31.07Z"/><path class="cls-7" d="M47.26,8V11.6H31.37V7.68a10.71,10.71,0,0,1,3.47-.62,56.79,56.79,0,0,1,10.42.19S46.78,7.34,47.26,8Z"/><ellipse class="cls-8" cx="39.31" cy="11.24" rx="7.94" ry="1.58"/><path class="cls-8" d="M31.78,8.28C31.53,8.28,4.23,3.72,3,3.38"/><path class="cls-6" d="M31.78,8.68v-.4l0-.4c-.18,0-26.93-4.44-28.31-4.81L1.2,3.44C2.06,3.67,31.29,8.68,31.78,8.68Z"/><path class="cls-8" d="M46.56,7.89c.25,0,23.78-3.5,26.61-3.54"/><path class="cls-6" d="M46.56,8.3c.08,0,.33,0,3.65-.51C57,6.81,74.8,4.1,76.93,4.07l-2.44-.46C72.31,3.64,56.87,6,50.09,7l-3.56.51Z"/></svg>