<svg id="Layer_1" data-name="Layer 1" xmlns="http://www.w3.org/2000/svg" viewBox="0 0 32 20"><defs><style>.cls-1{fill:#f5968e;}.cls-2{fill:#f48678;}.cls-3{fill:#765a47;}.cls-4{fill:#e9a597;opacity:0.5;}</style></defs><g id="neutral"><path class="cls-1" d="M28.88,7.59c.23-.15-4.92,5-11,6.37-5.76,1.29-12.68-.74-12.79-1s5.1.91,12.24-.68C20,11.71,28.25,8,28.88,7.59Z"/><path class="cls-2" d="M29.12,7.36c-.11-.25-6.25,3.19-12.29,4.57s-12.07.73-12.06,1,6.37,1.45,12.31.1C23.35,11.6,29.23,7.62,29.12,7.36Z"/><path class="cls-3" d="M4.55,12.9a39.09,39.09,0,0,0,13.07,0A30.28,30.28,0,0,0,29.06,7.41,33.68,33.68,0,0,1,17.62,12.9C11.75,14.34,4.55,12.9,4.55,12.9Z"/><path class="cls-4" d="M4.28,12.17c.13-.7-.46-.4-.51.21a2.79,2.79,0,0,0,.67,1.44A14.63,14.63,0,0,1,4.28,12.17Z"/><path class="cls-4" d="M29.23,6.5c-.52-.5.15-.6.53-.13s.07,1.47.07,1.47C29.48,6.73,29.4,6.66,29.23,6.5Z"/></g></svg>