<svg id="Layer_1" data-name="Layer 1" xmlns="http://www.w3.org/2000/svg" viewBox="0 0 20 10"><defs><style>.cls-1{fill:#551514;}.cls-2{fill:#d72b5d;}.cls-3{fill:#fff;}.cls-4{fill:#bb7757;}</style></defs><g id="S"><path class="cls-1" d="M16.89,5.06c0,.32-1.91,2.25-2.68,3a6.07,6.07,0,0,1-3.32,1.29c-.4.07-2.69,0-3.25,0-1.32.05-3.76-2.13-3.76-2.13a6.51,6.51,0,0,1,1-1.2c.4-.34.78-.79,1.17-1.18A7.2,7.2,0,0,1,8.4,3.26a8.38,8.38,0,0,1,4.34-.5c.33,0,1.91.53,2.38.66C15.79,3.62,16.89,5.06,16.89,5.06Z"/><path class="cls-2" d="M12.85,6.34c-.63-.3-1.18.32-1.8.44l-1,.19a5.12,5.12,0,0,0-2,.27A1.07,1.07,0,0,0,8,9a2.82,2.82,0,0,0,1.62-.13,14,14,0,0,0,2.68-.72c.26-.12.8-.15.95-.55A1,1,0,0,0,12.85,6.34Z"/><path class="cls-3" d="M12.37,2.65,9.48,2.9,6.61,4.09,6,4.67A3.34,3.34,0,0,0,7.13,5,14.32,14.32,0,0,0,13,3.83,12,12,0,0,0,14.2,3Z"/><path class="cls-3" d="M14.43,7.77s-.45-.84-.71-.9c-.84-.19-1.74.57-3.22.8S7.73,7.82,7,8.25a2.91,2.91,0,0,0-.49.7l1,.34,3.2-.18,2.4-.71Z"/><path class="cls-4" d="M16.89,5.06a10.11,10.11,0,0,1-3,2.35A23.94,23.94,0,0,1,7.7,8.59,18.43,18.43,0,0,1,3.88,7.24a2.65,2.65,0,0,0,.64.8A7.3,7.3,0,0,0,7.39,9.61a8.82,8.82,0,0,0,3.48-.22A6.94,6.94,0,0,0,14.59,8a10.82,10.82,0,0,0,2.3-2.91A.11.11,0,0,0,16.89,5.06Z"/></g><path class="cls-4" d="M3.88,7.24A9.92,9.92,0,0,1,10.3,3.37c4.56-.87,6.59,1.69,6.59,1.69S15.51,1.71,10.17,2.6,3.88,7.24,3.88,7.24Z"/></svg>