<svg id="Layer_1" data-name="Layer 1" xmlns="http://www.w3.org/2000/svg" viewBox="0 0 32 20"><defs><style>.cls-1{fill:#7b2f2c;}.cls-2{fill:#f5968e;}.cls-3{fill:#f48678;}.cls-4{fill:#fff6f3;}.cls-5{fill:#f48a71;}.cls-6{fill:#e9a597;opacity:0.5;}</style></defs><path class="cls-1" d="M2.38,9.28a13.4,13.4,0,0,0,.91,1.24c1.94,2.38,6.22,6.61,10.64,7.54a11.37,11.37,0,0,0,9.26-2.29c3.41-2.68,4.65-5.24,6-9.36.44-1.34.9-2.85,1.45-4.59,0,0,.15-.33-.21-.26a2,2,0,0,0-.57.24c-2,1.09-6.76,5.38-15.3,6.9C8,9.86,4.14,9.24,2.7,8.89a.3.3,0,0,0-.36.22A.33.33,0,0,0,2.38,9.28Z"/><path class="cls-2" d="M3.29,10.52c1.94,2.38,6.22,6.61,10.64,7.54a11.37,11.37,0,0,0,9.26-2.29c3.41-2.68,4.65-5.24,6-9.36-1.9,3.42-5.35,8.13-10.5,9.68C11.65,18.22,5.2,12.45,3.29,10.52Z"/><path class="cls-3" d="M2.34,9.11a28,28,0,0,0,15.49.09C25.54,7.09,29.28,3,30.44,1.56a1.87,1.87,0,0,0-.57.24c-2,1.09-6.76,5.38-15.3,6.9C8,9.86,4.14,9.24,2.7,8.89A.3.3,0,0,0,2.34,9.11Z"/><path class="cls-4" d="M27.65,3.94c-.15.11-8,7.67-21.46,6,0,0,2.74,3.73,10.35,2.4C25.23,10.82,27.65,3.94,27.65,3.94Z"/><path class="cls-5" d="M18.64,16c1.75-.5,3.85-1.48,4.53-2.47-1.92-1.19-3.67.4-5.48.3-3.8-.23-4.74,1.35-5,2.17A9.38,9.38,0,0,0,18.64,16Z"/><path class="cls-6" d="M1.94,8.63c.13-.7-.46-.4-.51.21a2.79,2.79,0,0,0,.67,1.44A14.63,14.63,0,0,1,1.94,8.63Z"/><path class="cls-6" d="M30.79,1c-.52-.5.15-.6.53-.13s.07,1.47.07,1.47C31,1.27,31,1.2,30.79,1Z"/></svg>