<svg id="Layer_1" data-name="Layer 1" xmlns="http://www.w3.org/2000/svg" viewBox="0 0 32 20"><defs><style>.cls-1{fill:#8c3e36;}.cls-2{fill:#d26653;}.cls-3{fill:#fff;}.cls-4{fill:#f5968e;}.cls-5{fill:#f48678;}.cls-6{fill:#e9a597;opacity:0.5;}</style></defs><g id="S"><path class="cls-1" d="M30,3.54s-5.11,2.94-6.4,3.64a27,27,0,0,1-6.78,2c-.86.2-5.27,1.17-6.48,1.05-.77-.08-7.83-.38-7.83-.38s2.71,2.85,3.62,4a10.9,10.9,0,0,0,2.33,1.92,9.32,9.32,0,0,0,5.82,1.82,26.86,26.86,0,0,0,9.27-2.15c.66-.28,4.21-5.3,4.63-6.24S30,3.54,30,3.54Z"/><path class="cls-2" d="M23.5,10.84a8.81,8.81,0,0,0-4,.39,50.1,50.1,0,0,0-5.11,1.54,7.61,7.61,0,0,0-.95.33c-.22.1-.41.36-.67.31l-.36.62c-.44.82.58,1.54,1.16,1.66A8.61,8.61,0,0,0,17,15.18a39,39,0,0,0,5.57-1.58c.55-.22,1.68-.38,2-1A1.28,1.28,0,0,0,23.5,10.84Z"/><path class="cls-3" d="M26.06,6.23,17.18,9.79l-9.9.74A8,8,0,0,0,9.1,12.35a6,6,0,0,0,3,.69,33.77,33.77,0,0,0,11-2.61,5.52,5.52,0,0,0,2.8-2.8A6.41,6.41,0,0,0,26.06,6.23Z"/><path class="cls-3" d="M26.35,12.63a5.32,5.32,0,0,0-1.76-.91c-1.64-.18-3.46,1.45-6.24,2.08-2.61.6-5.43.45-6.76,1.4a3.46,3.46,0,0,0-.84,1.51l2.37,1,6.16-.4,4.46-2.56Z"/><path class="cls-4" d="M30,2.89a35.7,35.7,0,0,1-3.56,7.67c-1.13,1.8-4.8,4.19-8.16,5C15.12,16.24,12,16,10,15A40.55,40.55,0,0,1,2.35,9.33l.12.5c.11.49,2.57,3.55,6.1,6.35,3.34,2.66,6.79,2.58,10.22,1.79a12.3,12.3,0,0,0,9.08-7.09,21.18,21.18,0,0,0,2.19-7.5S30,2.89,30,2.89Z"/><path class="cls-5" d="M30,2.89c-1,1.18-4.15,3.07-6.07,4a47.51,47.51,0,0,1-13,3c-2.13.05-6.86,0-8.54-.52a5.4,5.4,0,0,0,.48.48c1.62.81,4.31,1,6.62,1.14a40,40,0,0,0,8.16-.87,39.29,39.29,0,0,0,7.68-2.75c2-1.13,4.32-3,4.59-3.75C29.89,3.56,30,2.89,30,2.89Z"/><path class="cls-6" d="M1.23,8.68c.38-.67-.32-.57-.58,0a3,3,0,0,0,.17,1.68A15.08,15.08,0,0,1,1.23,8.68Z"/><path class="cls-6" d="M30.19,2.08c-.72-.24.22-.72.81-.45s.4,1.45.4,1.45C30.54,2.18,30.43,2.15,30.19,2.08Z"/></g></svg>