<svg id="Layer_1" data-name="Layer 1" xmlns="http://www.w3.org/2000/svg" viewBox="0 0 15.42 9.02"><defs><style>.cls-1{fill:#bb7757;}.cls-2{fill:#765a47;}.cls-3{fill:#dc9e8f;}</style></defs><g id="neutral"><path class="cls-1" d="M2.61,5.33A9.57,9.57,0,0,0,8.24,6.49a9.86,9.86,0,0,0,5-3.12A17.64,17.64,0,0,1,8.16,5.5,30.23,30.23,0,0,1,2.61,5.33Z"/><path class="cls-1" d="M2.47,5.25c0-.15,3.11.44,5.82,0s5-2.06,5.07-1.91a10.11,10.11,0,0,1-5,2.54A11.18,11.18,0,0,1,2.47,5.25Z"/><path class="cls-2" d="M13.44,3.22A14.43,14.43,0,0,1,8.15,5.88,10.9,10.9,0,0,1,2.5,5.26a12.11,12.11,0,0,0,5.65.62A13.1,13.1,0,0,0,13.44,3.22Z"/><path class="cls-3" d="M13.42,2.78c-.19-.35.11-.31.24,0a1.92,1.92,0,0,1,0,.9A9.33,9.33,0,0,0,13.42,2.78Z"/><path class="cls-3" d="M2.26,4.81c.12-.37-.17-.29-.24,0a1.35,1.35,0,0,0,.25.8C2.2,5,2.22,4.93,2.26,4.81Z"/></g></svg>