<svg id="Layer_1" data-name="Layer 1" xmlns="http://www.w3.org/2000/svg" viewBox="0 0 20 10"><defs><style>.cls-1{fill:#7b2f2c;}.cls-2{fill:#f5968e;}.cls-3{fill:#f48678;}.cls-4{fill:#fff6f3;}.cls-5{fill:#f48a71;}.cls-6{fill:#e9a597;opacity:0.5;}</style></defs><path class="cls-1" d="M1.8,4.24A6.56,6.56,0,0,0,2.29,5c1,1.4,3.38,3.9,5.85,4.52a6.27,6.27,0,0,0,5.24-1.12,9.64,9.64,0,0,0,3.54-5.21c.27-.76.55-1.61.89-2.59,0,0,.09-.19-.11-.16a1.24,1.24,0,0,0-.33.13c-1.14.58-3.89,2.93-8.71,3.62A16.37,16.37,0,0,1,2,4a.18.18,0,0,0-.21.12A.16.16,0,0,0,1.8,4.24Z"/><path class="cls-2" d="M2.29,5c1,1.4,3.38,3.9,5.85,4.52a6.27,6.27,0,0,0,5.24-1.12,9.64,9.64,0,0,0,3.54-5.21c-1.13,1.91-3.15,4.52-6.07,5.3C6.85,9.53,3.33,6.11,2.29,5Z"/><path class="cls-3" d="M1.78,4.14a15.41,15.41,0,0,0,8.7.37A13.51,13.51,0,0,0,17.7.41a1.24,1.24,0,0,0-.33.13c-1.14.58-3.89,2.93-8.71,3.62A16.37,16.37,0,0,1,2,4,.18.18,0,0,0,1.78,4.14Z"/><path class="cls-4" d="M16.09,1.71a15,15,0,0,1-12.16,3S5.4,6.87,9.7,6.27A8,8,0,0,0,16.09,1.71Z"/><path class="cls-5" d="M10.82,8.41a5.4,5.4,0,0,0,2.59-1.32c-1.06-.72-2.07.15-3.09.06-2.13-.21-2.68.67-2.87,1.13A5.18,5.18,0,0,0,10.82,8.41Z"/><path class="cls-6" d="M1.71,3.74c.22-.37-.17-.33-.33,0a1.7,1.7,0,0,0,.06,1A8.65,8.65,0,0,1,1.71,3.74Z"/><path class="cls-6" d="M18,.59c-.41-.15-.07-.36.26-.2s.39.78.39.78C18.21.66,18.15.64,18,.59Z"/></svg>