<svg id="Layer_1" data-name="Layer 1" xmlns="http://www.w3.org/2000/svg" viewBox="0 0 59.38 61.14"><defs><style>.cls-1,.cls-2,.cls-7{fill:#3d2d16;}.cls-1,.cls-2{stroke:#3d2d16;}.cls-1,.cls-2,.cls-4{stroke-miterlimit:10;}.cls-2,.cls-4{stroke-width:0.25px;}.cls-3{fill:#fff;}.cls-10,.cls-4{fill:#fad2c6;}.cls-4{stroke:#323232;}.cls-5{fill:#dc9e8f;}.cls-6{fill:#e8d860;}.cls-8{fill:#a67d48;}.cls-9{fill:#ef4b3b;}.cls-11{fill:#323232;}.cls-12{fill:#f49990;}</style></defs><path class="cls-1" d="M12.06,53.6c3.37,8.54,13.08,4.86,25.88-.92.17-.08.25,5,.42,5,11.44-5.3,19.07-7.18,15-22.92-2.35-9-15.69-11.91-27.42-7.28S8.64,45,12.06,53.6Z"/><path class="cls-2" d="M9.62,37.42c-.21.55-.51,17.93,7,21.58a11.33,11.33,0,0,0,10.85-.64Z"/><path class="cls-3" d="M24.89,53.23s-4,.64-5.17,3.71C21,57.29,22.21,57.79,24.89,53.23Z"/><path class="cls-4" d="M10.09,41.42c0-.07.12,0,.06.08s-.13,0-.19-.07a5,5,0,0,0-2.25-1.27A2,2,0,0,0,6,40.38a2.41,2.41,0,0,0-.38,2.47,7.85,7.85,0,0,0,2.23,3.61c1.82,1.69,4.58,2.41,6.64,1.23"/><path class="cls-5" d="M8.39,42.91a8,8,0,0,1,.95.51c.24.16.52.42.46.71s-.32.36-.34.62a.53.53,0,0,0,.47.5c.23,0,.45-.07.68,0a1,1,0,0,1,.81.57.87.87,0,0,1,.11.37.59.59,0,0,1-.55.58,1.65,1.65,0,0,1-.84-.26A6.89,6.89,0,0,1,8.43,45.3C7.65,44.54,6.25,42,8.39,42.91Z"/><path class="cls-6" d="M12.82,46.83s2.73,2.24,1.55,3.63-2.46-2.2-2.46-2.2,1.84,2.57,1.38.57Z"/><path class="cls-4" d="M5.51,34.29c.25.25,4.24,10.4,5.87,15.25,1.9,5.69,9.74,11.27,16.58,10,8.38-1.51,15.29-6,17.6-13.24s-.3-16.08-.3-16.08S50,19.69,40.4,13.73s-19.75-7-31.31-1.25S5.51,34.29,5.51,34.29Z"/><path class="cls-5" d="M36.69,25.32c-.45-.11-11-6-11-6s5.42,3.92,3,4.1c-.67.05-6.9-1.31-9.3-3.28,0,0,1.68,3.56,3.85,3.74,0,0-8.21,2.8-12.41-3.06,0,0,1.89,3.18-3.73,7.73C2.76,32.11,7,37.65,7,37.65L2.21,24.85l4.27-7.08,13.37-4.34,11.93.64,6.27,8.19,7.21,8Z"/><path class="cls-2" d="M7.83,39.93c-.58-1.84-1.73-7.47-1.1-9.29C8,27,10.39,25.88,11.64,24.4c.79-.94-.13-4.14.52-5.18s.13,1.3,0,0c1,1.8,1,3.15,3,3.73a14.69,14.69,0,0,0,5.76.38A8.61,8.61,0,0,1,18,20.82a17.46,17.46,0,0,1-1.43-4A22.38,22.38,0,0,0,29,22.72a10.42,10.42,0,0,1-4.31-5.35,3.63,3.63,0,0,1,1.83.77,64.71,64.71,0,0,0,10,5.93c-.07-.56.12-1.09,0-1.65,2.13,3.41,9.15,9.1,9.06,8.89,0,0,4.28,17.77-6.82,26.2a29.68,29.68,0,0,0,11.4-4.34c6.4-4,9-11.86,2.83-22.36S48.94,15.09,44.16,9C38.47,1.8,23-5.29,5.36,12.26c0,0-9,5.87-.56,23.51C4.8,35.77,8,40.52,7.83,39.93Z"/><path class="cls-7" d="M13.53,30.26s-3.61,0-4.71,2.89a.12.12,0,0,1-.23,0,3,3,0,0,1,2-3.36C13.79,28.38,13.53,30.26,13.53,30.26Z"/><path class="cls-7" d="M26.68,26.75s3.72-1.55,6.17.6c.1.09.26,0,.22-.12-.24-.77-1-2.28-3.54-2.2C25.56,25.16,26.68,26.75,26.68,26.75Z"/><path class="cls-8" d="M20.27,39a3.29,3.29,0,0,1,1.17,2.57A4,4,0,0,1,21.1,43a3,3,0,0,0-.37,1.18,1.34,1.34,0,0,0,1.48,1.27,3.92,3.92,0,0,0,2.37-.89l0,0h0a1.39,1.39,0,0,0,.69-.41.65.65,0,0,0,0-.77,1,1,0,0,1,.26.39.67.67,0,0,1-.05.5,1.63,1.63,0,0,1-.74.66l.06,0a3.9,3.9,0,0,1-2.63,1.28,2.3,2.3,0,0,1-1.53-.47A1.8,1.8,0,0,1,20,44.16a2.23,2.23,0,0,1,.17-.79c.12-.25.23-.48.33-.65a3.75,3.75,0,0,0,.4-1.21A3.61,3.61,0,0,0,20.27,39Z"/><path class="cls-9" d="M3.23,14.36a23.82,23.82,0,0,1,8.08-4.51c14.1-4.57,29.73,4.7,34.93,20.7.1.31.19.62.28.93.47-.27.95-.52,1.43-.75-.12-.46-.26-.91-.41-1.37-5.19-16-20.82-25.27-34.92-20.7A24.07,24.07,0,0,0,3.23,14.36Z"/><path class="cls-10" d="M45.76,32c0-.06-.11.1,0,.1s.12-.1.14-.18a5.42,5.42,0,0,1,1.4-2.45,2.62,2.62,0,0,1,1.81-.92,2.3,2.3,0,0,1,2,1.71,7,7,0,0,1,.13,4.29,7.27,7.27,0,0,1-5.71,5.23"/><path class="cls-11" d="M45.75,32c0-.05-.08.07,0,.09a.12.12,0,0,0,.12-.07c0-.1,0-.21.09-.31a4.48,4.48,0,0,1,.2-.62A6,6,0,0,1,46.77,30a3.41,3.41,0,0,1,2.11-1.48,1.73,1.73,0,0,1,1.28.35,3,3,0,0,1,.83,1,6.43,6.43,0,0,1,.59,2.55,7.42,7.42,0,0,1-1.71,4.84,7.64,7.64,0,0,1-2,1.71,6.41,6.41,0,0,1-2.44.82,7.11,7.11,0,0,0,4.27-2.63,7.3,7.3,0,0,0,1.59-4.74A6.28,6.28,0,0,0,50.8,30a2,2,0,0,0-1.9-1.31,3.3,3.3,0,0,0-2,1.39A5.46,5.46,0,0,0,46,31.74a1.76,1.76,0,0,1-.1.3c0,.05-.08.1-.13.08S45.7,32,45.75,32Z"/><path class="cls-5" d="M48.38,32.1a7.43,7.43,0,0,0-.61,1c-.13.28-.23.66,0,.86s.54.08.73.26.06.53-.14.7-.49.24-.7.4a1.1,1.1,0,0,0-.43,1,.76.76,0,0,0,.14.36.73.73,0,0,0,.91.1,2,2,0,0,0,.65-.74,7.26,7.26,0,0,0,.93-2C50.15,32.92,49.86,30,48.38,32.1Z"/><path class="cls-6" d="M46.55,38.05s-1.23,3.53.81,3.87,1-3.32,1-3.32-.16,3.21-1,1.33Z"/><path class="cls-9" d="M40.17,12.35s10.21,0,7.2,5.28-8.62,7.49-10-2.42c-.83-6.23-2.19-1.45-2.19-1.45S22.31,11.66,30.55,5c7.62-6.14,6.75,5.35,6.75,5.35S39.75,8.35,40.17,12.35Z"/><ellipse class="cls-12" cx="34" cy="4.37" rx="0.92" ry="0.79" transform="translate(0.37 11.03) rotate(-18.52)"/><ellipse class="cls-12" cx="44.75" cy="14.35" rx="0.92" ry="0.79" transform="translate(-2.24 14.96) rotate(-18.52)"/><ellipse class="cls-12" cx="46.43" cy="16.6" rx="0.92" ry="0.79" transform="translate(-2.87 15.61) rotate(-18.52)"/><ellipse class="cls-12" cx="42.41" cy="16.44" rx="0.92" ry="0.79" transform="translate(-3.03 14.32) rotate(-18.52)"/><ellipse class="cls-12" cx="39.43" cy="15.9" rx="0.92" ry="0.79" transform="translate(-3.01 13.35) rotate(-18.52)"/><ellipse class="cls-12" cx="40.53" cy="19.37" rx="0.92" ry="0.79" transform="translate(-4.05 13.88) rotate(-18.52)"/><ellipse class="cls-12" cx="43.9" cy="19.15" rx="0.92" ry="0.79" transform="translate(-3.81 14.94) rotate(-18.52)"/><ellipse class="cls-12" cx="41.59" cy="13.85" rx="0.92" ry="0.79" transform="translate(-2.25 13.93) rotate(-18.52)"/><ellipse class="cls-12" cx="36.14" cy="7.07" rx="0.92" ry="0.79" transform="translate(-0.37 11.85) rotate(-18.52)"/><ellipse class="cls-12" cx="29.98" cy="8.69" rx="0.92" ry="0.79" transform="translate(-1.21 9.97) rotate(-18.52)"/><ellipse class="cls-12" cx="30.8" cy="5.76" rx="0.92" ry="0.79" transform="translate(-0.23 10.08) rotate(-18.52)"/><ellipse class="cls-12" cx="33.22" cy="7.6" rx="0.92" ry="0.79" transform="translate(-0.69 10.95) rotate(-18.52)"/><ellipse class="cls-12" cx="35.26" cy="9.54" rx="0.92" ry="0.79" transform="translate(-1.2 11.69) rotate(-18.52)"/><ellipse class="cls-12" cx="32.37" cy="10.72" rx="0.92" ry="0.79" transform="translate(-1.73 10.84) rotate(-18.52)"/><ellipse class="cls-12" cx="34.55" cy="11.81" rx="0.92" ry="0.79" transform="translate(-1.96 11.59) rotate(-18.52)"/><ellipse class="cls-9" cx="37.62" cy="12.7" rx="2.83" ry="2.11" transform="translate(3.71 33.36) rotate(-50.01)"/></svg>