<svg xmlns="http://www.w3.org/2000/svg" viewBox="0 0 161.91 167.16"><defs><style>.cls-1{isolation:isolate;}.cls-2{fill:#fac7b3;}.cls-2,.cls-4{stroke:#323232;stroke-width:0.75px;}.cls-2,.cls-4,.cls-7{stroke-miterlimit:10;}.cls-3{fill:#424036;}.cls-4{fill:#fad2c6;}.cls-5{fill:#e7b4a7;}.cls-6{fill:#561211;}.cls-7{fill:#311415;stroke:#211e1f;}.cls-8{fill:#90856e;}.cls-9{fill:#605e44;}.cls-10,.cls-13{fill:#9e9580;opacity:0.5;}.cls-10,.cls-12{mix-blend-mode:multiply;}.cls-11,.cls-12{fill:#676254;}.cls-12{opacity:0.4;}.cls-13{mix-blend-mode:screen;}.cls-14{fill:#c28974;}.cls-15{fill:#d6a398;}</style></defs><g class="cls-1"><g id="Layer_1" data-name="Layer 1"><path class="cls-2" d="M29.44,112.51c1.93,5.64,6.29,9,9.05,8.24s2.57-5.47,1.19-10.93-4.74-9.31-7.5-8.56C28.41,102.3,27.64,107.21,29.44,112.51Z"/><path class="cls-3" d="M74.77,57.52a128.16,128.16,0,0,0-33.1,3.8s-3.08.7-8.51,4C27.42,68.79,7.57,83.19,6,87.89c-.07.24-.13-.22,0,0,1.85,2.92,26.65,6,51.82,7.65,8.85.57,19.56-3.88,30-3.07,7.16.54,14,.9,20.27,1,29.6.69,47.41-7.35,47.75-8.84.51-2.25-16.44-9.52-27.53-16.43C117,61.16,99.82,59.32,80.22,57.8,78.45,57.66,76.62,57.56,74.77,57.52Z"/><path class="cls-4" d="M132.36,110.15c-1.42,5.79-5.8,9.47-8.92,8.95s-3.47-5.26-2.63-10.84,4.06-9.68,7.18-9.14C132.25,99.86,133.7,104.7,132.36,110.15Z"/><path class="cls-4" d="M122.51,116.06c-1.24,21.35-31.58,31.67-40,31.87-12.35.27-45.77-10.79-44.33-44.13,0-.35,0-.7,0-1h0c.42-15.86-5.34-30.3-3.82-36.45,5.27-21.27,9.1-13,34.26-15.36,23.52-2.24,33.55-2.31,48,9.8,1.28,1.06,5.53,2.28,5.6,6.1.11,6.5.26,11.37.4,15.28C123.17,95.59,123.57,97.69,122.51,116.06Z"/><path class="cls-5" d="M122.69,82.11A54.85,54.85,0,0,0,96,69.61a50.43,50.43,0,0,1-38.74,8.31,63.56,63.56,0,0,0,10.15-8.73,20,20,0,0,1-9.22,2.32c-3.07,5.93-6.29,12-11.56,16.15-1.8,1.4-3.85,2.58-5.15,4.45a13.18,13.18,0,0,0-1.56,3.41c-.47,1.42-.89,2.85-1.25,4.31-.21.86-.28,1.92-.46,2.91.42-15.86-5.34-30.3-3.82-36.45,5.27-21.27,9.1-13,34.26-15.36,23.52-2.24,33.55-2.31,48,9.8,1.28,1.06,5.53,2.28,5.6,6.1C122.4,73.33,122.55,78.2,122.69,82.11Z"/><path class="cls-6" d="M69.51,85.89l-1-1a8.44,8.44,0,0,0-7.72-2.65,16.12,16.12,0,0,0-10.26,6.6c-.36.51-.63.72-.11.35C54.1,86.61,63.21,83.23,69.51,85.89Z"/><path class="cls-6" d="M92.54,85.89l.86-1.07a7.18,7.18,0,0,1,6.63-3,11.92,11.92,0,0,1,8.37,6.06c.28.49.5.69.07.35C105.52,85.92,98,83,92.54,85.89Z"/><path class="cls-7" d="M98.82,56.41s-1,24-36.07,19.27c0,0,36-18.92-1.37-17,0,0,8.52,10.47-16.12,9.24,0,0,17.76-1.84-5,21.27,0,0-3,1.59-2.09,14.56.06.86-6.45-1-6.76-10.16,0,0-8.89-8.52.44-20.73,0,0-8.8-18,6.88-20.41,0,0,1.28-13.58,14.72-14.49,0,0,13.62-19.75,30.38-5.06,0,0,13.46-10.92,25.49,5.81,0,0,15.57.62,13.62,13.36,0,0,15.42,8,6.37,18.84,0,0,10.33,8.49.88,20.39L123,104l0-1.48a66.23,66.23,0,0,0-7-29l-.44-.88S114.79,63.46,98.82,56.41Z"/><path class="cls-8" d="M132.84,63.83c-12.8-7.11-31.43-8.3-53.94-8.9A139.21,139.21,0,0,0,36.36,61s-3.31.9-9.25,4.93S7.52,82.4,6,87.89c1.48-3.6,19.61-18.2,82.71-17.06,41.19.74,60.58,8.39,67.16,13.85C154.37,80.71,144.4,70.23,132.84,63.83Z"/><path class="cls-9" d="M155.9,85a.25.25,0,0,1-.16-.06c-3.65-3-19.23-12.94-67-13.8-5.56-.09-11-.07-16.12.06C22.7,72.52,7.58,84.79,6.25,88a.25.25,0,0,1-.31.15.29.29,0,0,1-.17-.33C7.37,82,21.44,69.44,27,65.7c5.91-4,9.18-4.92,9.32-5a142.63,142.63,0,0,1,36.54-6.07c2-.06,4.09-.06,6.07,0,21.84.59,41,1.67,54.08,8.94,11.53,6.39,21.57,16.86,23.15,21a.32.32,0,0,1-.08.32A.44.44,0,0,1,155.9,85Z"/><path class="cls-10" d="M34,71c4-5.61,10.76-9.22,16.59-11.87A73.14,73.14,0,0,1,58,56.22,135.94,135.94,0,0,0,36.36,61s-3.31.9-9.25,4.93S7.52,82.4,6,87.89c.9-2.18,7.92-8.41,27.36-12.71A4.51,4.51,0,0,1,34,71Z"/><path class="cls-10" d="M109.5,57.74a88.05,88.05,0,0,1,14.19,6.41c3.41,1.94,7.45,5.14,7,9.92a4.6,4.6,0,0,1-.13.84c13.7,2.85,21.6,6.66,25.34,9.77-1.52-4-11.49-14.45-23-20.85-7.7-4.28-17.51-6.4-29-7.56A45.51,45.51,0,0,1,109.5,57.74Z"/><path class="cls-8" d="M28.19,62.87s-2-20.8,22.32-35.67c26.33-16.1,55.69-3.9,64.3,2.54s17,19.58,18,31.75c0,0-34.14-6.27-50.23-6.13S37.7,58,28.19,62.87Z"/><path class="cls-9" d="M78.85,55.16c1.31,0,2.56-.06,3.74-.07,15.09-.13,46.4,5.43,49.95,6.07C131.36,48.57,122.69,36,114.66,30c-5.94-4.44-20.68-10.89-37-10.45a54.13,54.13,0,0,0-27.06,7.92c-22.08,13.49-22.31,32.13-22.22,35C38,57.85,63.7,55.58,78.85,55.16Z"/><path class="cls-10" d="M118.65,48.91c-3.1,4.44-8.27,6-12.9,7-1.61.34-3.22.59-4.84.79,15.45,1.81,31.92,4.83,31.92,4.83-.94-11.26-8.17-23.32-16.08-30.18C120.28,36.19,122.5,43.39,118.65,48.91Z"/><path class="cls-10" d="M62.72,53.89c-5.88-1.27-12.31-3-17.32-6.92-4.34-3.45-5.8-7.46-5.4-11.56C26.83,48.72,28.19,62.87,28.19,62.87c7.78-4,28.5-6.38,44.59-7.2C69.4,55.2,66,54.63,62.72,53.89Z"/><path class="cls-11" d="M82.38,52.13c13-.2,47.55,4.72,51,7.13,0,0,.52,4.32.13,5.15s-16.56-5.86-47.74-6.19c-41-.42-56.8,7.37-57.85,7.56S27.46,61,28,60.31,44.6,52.71,82.38,52.13Z"/><path class="cls-3" d="M133.27,64.75a20.92,20.92,0,0,1-3.39-.71c-6.33-1.59-21.16-5.31-44.15-5.55-3.75,0-7.45,0-11,.09-13.27.36-32,1.9-46,7.17a5.48,5.48,0,0,1-.84.29h-.09a.59.59,0,0,1-.54-.38c-.57-1.11,0-4.85.45-5.51s16.39-7.72,54.63-8.29c12.75-.2,47.62,4.7,51.11,7.17l.1.07,0,.12c.05.45.52,4.42.09,5.3A.44.44,0,0,1,133.27,64.75Z"/><path class="cls-12" d="M133.34,59.26c-1.93-1.36-13.85-3.53-26.19-5.12.41.14.83.26,1.28.37,11.94,3,3.32,3.93-5.87,2.8a183,183,0,0,0-33-1.1c-14.14.65-18.55-2.1-7.18-3a20.4,20.4,0,0,0,2.28-.3c-25.19,2-36.33,6.77-36.73,7.37s-1.13,5.67-.07,5.47,16.84-8,57.85-7.56c31.18.33,47.34,7,47.74,6.19S133.34,59.26,133.34,59.26Z"/><path class="cls-13" d="M40,71.8S66,65,125,71.75C125,71.75,78.63,61.52,40,71.8Z"/><path class="cls-14" d="M76.8,112.77s.57,3,5,3.1,5.31-3.1,5.31-3.1S82.61,117.26,76.8,112.77Z"/><path class="cls-15" d="M125.74,101.84a2.22,2.22,0,0,1,2.62-.77,2.7,2.7,0,0,1,1.17,1.76,12.74,12.74,0,0,1-.21,6.22c-.58,2.47-1.63,5.09-3.88,6.27a1.08,1.08,0,0,1-.65.15c-.51-.1-.62-.76-.62-1.28v-2.13a2.54,2.54,0,0,1,.25-1.34,3,3,0,0,1,1-.87,3.27,3.27,0,0,0,1.48-1.84,1.63,1.63,0,0,0-.6-1.65c-.48-.32-1.41.09-1.76-.31C124,105.37,125.25,102.47,125.74,101.84Z"/><path class="cls-15" d="M35.05,104.3a2.45,2.45,0,0,0-2.9-.47,2.74,2.74,0,0,0-1,1.93,12.28,12.28,0,0,0,.95,6.28c.91,2.43,2.34,5,4.89,5.88a1.17,1.17,0,0,0,.71.08c.53-.16.58-.85.51-1.37l-.25-2.16a2.62,2.62,0,0,0-.42-1.34,3.22,3.22,0,0,0-1.2-.75,3.36,3.36,0,0,1-1.8-1.69,1.61,1.61,0,0,1,.45-1.74c.48-.38,1.52-.09,1.85-.54C37.33,107.66,35.65,104.87,35.05,104.3Z"/></g></g></svg>