<svg id="Layer_1" data-name="Layer 1" xmlns="http://www.w3.org/2000/svg" viewBox="0 0 24.91 15.26"><defs><style>.cls-1{fill:#f6fbfd;stroke:#323232;stroke-miterlimit:10;stroke-width:0.25px;}.cls-2{fill:#ce9685;}.cls-3{fill:#451f16;}.cls-4{fill:#fff;}</style></defs><path class="cls-1" d="M23.79,3.6a4.63,4.63,0,0,1-2.42,5.82,4.08,4.08,0,0,1-5.61-2.08,4.64,4.64,0,0,1,2.42-5.83A4.08,4.08,0,0,1,23.79,3.6Z"/><path class="cls-2" d="M23.81,7a4.82,4.82,0,0,0,0-3.72,4.05,4.05,0,0,0-5.61-1.81A5.59,5.59,0,0,0,15.38,5,5.06,5.06,0,0,1,18.84.63C20.58.13,22.75.48,23.7,2.3,24.52,3.87,24.84,6.1,23.81,7Z"/><path class="cls-3" d="M21.81,6.86c.44,1-.27,2.1-1.58,2.43a2.72,2.72,0,0,1-3.16-1.22c-.43-1,.28-2.1,1.59-2.44A2.72,2.72,0,0,1,21.81,6.86Z"/><path class="cls-4" d="M19.93,5.53a.81.81,0,0,1-.1,1.09.71.71,0,0,1-1-.13A.8.8,0,0,1,18.9,5.4.7.7,0,0,1,19.93,5.53Z"/><path class="cls-1" d="M.83,11.46a4.22,4.22,0,0,0,4.71,3.33,3.73,3.73,0,0,0,3.07-4.54A4.25,4.25,0,0,0,3.89,6.91,3.74,3.74,0,0,0,.83,11.46Z"/><path class="cls-2" d="M3.26,14.4a4.27,4.27,0,0,1-2.28-3A3.79,3.79,0,0,1,4.11,6.92C5.19,6.74,6,7,7.78,8.48c-1.36-1.75-3.1-2.32-4.64-1.8A3.79,3.79,0,0,0,.48,10.76C.7,12.56,2,14.15,3.26,14.4Z"/><path class="cls-3" d="M3,12.66c-.25-1,.53-1.86,1.75-2a2.42,2.42,0,0,1,2.68,1.49c.26,1-.52,1.87-1.75,2A2.45,2.45,0,0,1,3,12.66Z"/><path class="cls-4" d="M5.31,10.74a.81.81,0,0,1-.15,1.13A.79.79,0,0,1,4,11.76a.82.82,0,0,1,1.28-1Z"/></svg>