<svg id="Layer_1" data-name="Layer 1" xmlns="http://www.w3.org/2000/svg" viewBox="0 0 33.08 26.65"><defs><style>.cls-1{fill:#fad2c6;stroke:#5f4a43;}.cls-1,.cls-3{stroke-miterlimit:10;stroke-width:0.25px;}.cls-2{fill:#e7b4a7;}.cls-3{fill:#fcde7d;stroke:#323232;}</style></defs><path class="cls-1" d="M23,10.08c-4.12,2.29-6.8,5.83-10.7,8A22.72,22.72,0,0,1,8.2,20.31L6.63,16.16a12.55,12.55,0,0,1,3.14-2.75c3-2,7.05-3.83,11-6.31C21.15,6.86,23.42,9.86,23,10.08Z"/><path class="cls-1" d="M19.18,8.06c-.14-.72-.19-3-.4-5.73,0-.43.88-.12,1.15.41.57,1.13.4,1.57.74,2.12s.82.37,1.29,0C23.65,2.24,24.34.57,25.27.67,26,.87,25.1,2.81,24,5c2-1.69,3.78-2.88,4.14-2.28s-1.29,2.19-2.73,3.68c2-.24,4-1,4.12,0,.09.77-4,1.75-3.63,2.37.14.22.55.27,1.17.37a3.69,3.69,0,0,1,1.65.48c.31.31,0,.63-.64.75-1,.2-3.4.56-4.59.66a3.53,3.53,0,0,1-1.88,0"/><path class="cls-1" d="M21,5.16c.12,0,1.7.32,1.23,2.48"/><path class="cls-2" d="M11.1,18.55A7.92,7.92,0,0,1,8.62,19.8L6.38,16.5a12.57,12.57,0,0,1,3.14-2.76A45.77,45.77,0,0,1,11.1,18.55Z"/><path class="cls-3" d="M3.39,26l6.21-5.5s0-3.95-1.86-6.2L.9,17.93"/></svg>