<svg id="Layer_1" data-name="Layer 1" xmlns="http://www.w3.org/2000/svg" xmlns:xlink="http://www.w3.org/1999/xlink" viewBox="0 0 88.34 19.71"><defs><style>.cls-1{fill:none;}.cls-2{clip-path:url(#clip-path);}.cls-3{fill:#ff6425;}.cls-4{fill:#ffa724;}.cls-5{fill:#fff18b;}.cls-6{fill:#281b17;}.cls-7{fill:#473a3a;}.cls-8{fill:#5e5454;}</style><clipPath id="clip-path"><path class="cls-1" d="M37.56.73S47.77.66,49.81.87c0,0,3.64,4.23.88,7.71s-6.79,6-10,4.49S34.27,5,37.56.73Z"/></clipPath></defs><g class="cls-2"><path class="cls-3" d="M44.39,9.84C42.2,9.84,39,8.39,39,5.07c0-2.84,1.7-3.51,1.7-3.51a4,4,0,0,0-.58,1.16,2.32,2.32,0,0,0,0,1.93,1.42,1.42,0,0,0,1.29.74,1.49,1.49,0,0,0,1-1.15c.32-1.28-1.3-1.79-1.29-3.15,0-1.79,2.57-3,2.57-4.37a1.75,1.75,0,0,0-.23-1,1.38,1.38,0,0,1,1,1.18c0,1-1,2.16-1,3.21s.69,1.09,1,1.09S45.6.85,45.6-.36A1.86,1.86,0,0,0,44.77-2s2.37.5,2.37,2.44a4.31,4.31,0,0,1-.21,1.33c-.4,1.28-1.09,1.52-1,2.38a1.41,1.41,0,0,0,.55,1.06.9.9,0,0,0,.44.12c.43,0,.94-.55.94-1.45a1.78,1.78,0,0,0-.59-1.36c.3.14,1.59.53,1.59,3.19S46,9.84,44.39,9.84Z"/><path class="cls-4" d="M44.39,9.84c-1.85,0-3.36-2-3.65-3a1.31,1.31,0,0,0,2.35-.76A4.07,4.07,0,0,1,45.4,3c-1.08,1.32-1.21,3.5.24,3.88C46.9,7.23,48,5.68,48,5.68,47.42,8.2,45.75,9.84,44.39,9.84Z"/><path class="cls-5" d="M44.39,9.84c-.2.09-2.62-1.27-.3-3.65-.4,1.28.06,2,.59,2.34A2.19,2.19,0,0,0,46,7.47,2.66,2.66,0,0,1,44.39,9.84Z"/></g><path class="cls-6" d="M25.87,19c1-.66,10.92-7,11.14-7.1a1.51,1.51,0,0,0-.38-.14l-.43-.5c-.18.05-11,7-12,7.66Z"/><path class="cls-6" d="M60.67,19l1.44-.09c-.73-.53-10.82-7.86-11-7.91l-1.44.26.36.07Z"/><path class="cls-7" d="M52.79,8.8v4.13h-18V8.48a12.39,12.39,0,0,1,3.94-.71A64.37,64.37,0,0,1,50.53,8S52.25,8.1,52.79,8.8Z"/><ellipse class="cls-8" cx="43.78" cy="12.51" rx="9.01" ry="1.79"/><path class="cls-8" d="M35.24,9.16C35,9.16,4,4,2.57,3.6"/><path class="cls-6" d="M35.24,9.62V9.16l0-.46c-.2,0-30.55-5-32.12-5.45L.54,3.68C1.51,3.94,34.68,9.62,35.24,9.62Z"/><path class="cls-8" d="M52,8.72c.29,0,27-4,30.19-4"/><path class="cls-6" d="M52,9.18c.09,0,.38,0,4.14-.58C63.82,7.49,85.39,4.2,87.8,4.17L85,3.64c-2.48,0-21.34,2.94-29,4.05-2.17.31-3.89.56-4,.57Z"/></svg>