<svg id="Layer_1" data-name="Layer 1" xmlns="http://www.w3.org/2000/svg" viewBox="0 0 15.42 9.02"><defs><style>.cls-1{fill:#551514;}.cls-2{fill:#fff;}.cls-3{fill:#d72b5d;}.cls-4{fill:#bb7757;}.cls-5{fill:#dc9e8f;}</style></defs><g id="EE"><path class="cls-1" d="M.87,3.93s2.32-.15,2.8-.21a19.71,19.71,0,0,0,2-.3C6.8,3.17,8,3,9.08,2.7a9.2,9.2,0,0,0,1.62-.5,6,6,0,0,1,1.44-.46,3.61,3.61,0,0,1,.91,0L14.25,1a5.42,5.42,0,0,1-.5,2c-.16.37-.51,1-.67,1.35-.58,1.34-2,1.86-3.51,2.4a9.31,9.31,0,0,1-2.65.48,4.88,4.88,0,0,1-1.75-.06c-.2-.08-.29,0-.47-.11s-.93-.21-1.17-.45-.7-.44-1-.71S.87,3.93.87,3.93Z"/><path class="cls-2" d="M3.28,4.11l1-.49C4.33,3.59,7.79,3,7.79,3s3.43-.91,3.51-.91l1-.08a8.81,8.81,0,0,1-.5,1.33c-.35.37-1.64.78-3.72,1.26S4.91,5.19,4.23,5C3.87,4.94,3.28,4.11,3.28,4.11Z"/><path class="cls-3" d="M11,6A4.53,4.53,0,0,1,8.43,7.18a5.18,5.18,0,0,1-2.8-.07c0-.43,1.2-1.06,1.9-1.05a20.16,20.16,0,0,0,2.11-.4C10.16,5.65,10.8,5.7,11,6Z"/><path class="cls-2" d="M3.74,6.62s1.28.08,2,0,2.48-.28,2.48-.28S9.86,6,10.4,5.8s2.2-.86,2.2-.86l-2,2.29-2.1.64h0l-.18,0v0l-2.15.26Z"/><path class="cls-4" d="M.87,3.93A10.42,10.42,0,0,0,3.74,6.62a6.53,6.53,0,0,0,4.52.87A8.39,8.39,0,0,0,12.9,4.4,9.13,9.13,0,0,0,14.25,1s-.42,6.35-5.77,7.51C3.59,9.59.87,3.93.87,3.93Z"/><path class="cls-4" d="M7.75,2.88C10.27,2.36,14.25,1,14.25,1s-.93,1.2-6.43,2.4C1.49,4.79.87,3.93.87,3.93S5.16,3.41,7.75,2.88Z"/><path class="cls-5" d="M14.25.67c-.28-.22,0-.32.25-.11a1.53,1.53,0,0,1,.24.78A7.27,7.27,0,0,0,14.25.67Z"/><path class="cls-5" d="M1,3.56c.26-.26-.06-.31-.25-.08s-.07.76-.07.76C.87,3.67.91,3.64,1,3.56Z"/></g></svg>