<svg id="Layer_1" data-name="Layer 1" xmlns="http://www.w3.org/2000/svg" viewBox="0 0 37 20"><defs><style>.cls-1{fill:#dd9f8f;}.cls-2{fill:#f7fbff;stroke:#323232;stroke-miterlimit:10;stroke-width:0.44px;}.cls-3{fill:#451e15;}.cls-4{fill:#fff;}</style></defs><circle class="cls-1" cx="29.4" cy="12.48" r="6.37"/><ellipse class="cls-1" cx="7.87" cy="7.54" rx="6.37" ry="6.65" transform="matrix(0.26, -0.97, 0.97, 0.26, -1.43, 13.23)"/><path class="cls-2" d="M35.4,12.64a6,6,0,0,1-5.77,6.2c-3.3.12-6-1.43-6.16-4.74S25.89,7,29.2,6.87A6,6,0,0,1,35.4,12.64Z"/><ellipse class="cls-3" cx="31.35" cy="14.5" rx="3.39" ry="2.92" transform="translate(6.06 38.02) rotate(-67.75)"/><circle class="cls-4" cx="33.47" cy="12.31" r="1.03"/><path class="cls-2" d="M2.3,6.43a6,6,0,0,0,4.26,7.31c3.2.85,6.21-.06,7.06-3.26s-.81-7.48-4-8.32A6,6,0,0,0,2.3,6.43Z"/><ellipse class="cls-3" cx="9.95" cy="10.15" rx="3.32" ry="2.8" transform="translate(-3.67 14.23) rotate(-62.26)"/><circle class="cls-4" cx="12.27" cy="8.42" r="1.03"/></svg>