<svg id="Layer_1" data-name="Layer 1" xmlns="http://www.w3.org/2000/svg" viewBox="0 0 43.18 44.52"><defs><style>.cls-1,.cls-6{fill:#3d2d16;}.cls-1{stroke:#3d2d16;}.cls-1,.cls-3{stroke-miterlimit:10;stroke-width:0.25px;}.cls-2{fill:#fff;}.cls-3,.cls-9{fill:#fad2c6;}.cls-3{stroke:#323232;}.cls-4{fill:#dc9e8f;}.cls-5{fill:#e8d860;}.cls-7{fill:#a67d48;}.cls-8{fill:#ef4b3b;}.cls-10{fill:#323232;}.cls-11{fill:#f49990;}</style></defs><path class="cls-1" d="M33.72,36.89c-1.58,6.3-8.15,5.16-17.6,2.39-.22-.06-.49,3-.71,3C6.82,39.57,1.33,38.91,2.78,27.38c.83-6.58,10-9.88,18.72-7.7S35.33,30.46,33.72,36.89Z"/><path class="cls-1" d="M33.94,25.22c.2.37,2.43,13.34-2.92,15.91-3.36,1.62-5.17,1.45-6.48,1.28Z"/><path class="cls-2" d="M24.61,37.83s2.87.08,4,2.14C27.77,40.33,26.93,40.8,24.61,37.83Z"/><path class="cls-3" d="M34,28.1c0-.06-.08,0,0,0s.1,0,.13-.06A3.5,3.5,0,0,1,35.55,27a1.37,1.37,0,0,1,1.23,0,1.72,1.72,0,0,1,.5,1.71A5.62,5.62,0,0,1,36,31.45a4.15,4.15,0,0,1-4.58,1.49"/><path class="cls-4" d="M35.32,29a5.12,5.12,0,0,0-.62.45c-.16.13-.33.35-.26.55s.26.22.3.4a.38.38,0,0,1-.29.4c-.16,0-.32,0-.49,0a.77.77,0,0,0-.52.49.61.61,0,0,0,0,.27.42.42,0,0,0,.45.35,1.07,1.07,0,0,0,.56-.26,5.09,5.09,0,0,0,1.11-1C36,30.08,36.75,28.11,35.32,29Z"/><path class="cls-5" d="M32.55,32.17s-1.72,1.84-.76,2.72,1.54-1.79,1.54-1.79-1.06,2-.92.53Z"/><path class="cls-3" d="M36.56,22.62c-.16.2-2,7.75-2.73,11.34C33,38.16,28,42.83,23,42.6,17,42.31,11.65,39.78,9.34,34.87s-1.28-11.4-1.28-11.4-4.32-7,1.9-12.15,13.32-6.8,22-3.8S36.56,22.62,36.56,22.62Z"/><path class="cls-4" d="M13.66,19.17c.31-.11,7.23-5.23,7.23-5.23s-3.47,3.27-1.76,3.18c.48,0,4.77-1.57,6.28-3.19,0,0-.86,2.68-2.37,3,0,0,6.06,1.21,8.49-3.32,0,0-1,2.43,3.36,5.12,3.41,2.08.93,6.4.93,6.4L38,15.63,34.34,11,24.47,9.2l-8.38,1.56-3.67,6.38L8.06,23.47Z"/><path class="cls-1" d="M35.44,26.83c.24-1.36.53-5.45-.09-6.68-1.24-2.48-3-3-4.05-3.95-.65-.6-.29-2.94-.85-3.63s0,.94,0,0C29.91,14,30,14.9,28.69,15.5a10.75,10.75,0,0,1-4.05.8,6.19,6.19,0,0,0,1.81-2,12.78,12.78,0,0,0,.64-3,16,16,0,0,1-8.25,5.33,7.38,7.38,0,0,0,2.55-4.18,2.53,2.53,0,0,0-1.22.71,46.32,46.32,0,0,1-6.54,5.13c0-.4-.19-.76-.19-1.16-1.19,2.61-5.62,7.29-5.58,7.13,0,0-2.19,12.86,6.45,17.79,0,0-3,.22-7.65-1.9C1.75,37.92-.83,32.59,2.57,24.59S4,13.07,6.86,8.33C10.22,2.7,20.49-3.75,34.61,7c0,0,6.89,3.32,2.59,16.58A31.94,31.94,0,0,1,35.44,26.83Z"/><path class="cls-6" d="M30.51,20.51s2.55-.33,3.6,1.62a.09.09,0,0,0,.16,0,2.14,2.14,0,0,0-1.7-2.2C30.15,19.21,30.51,20.51,30.51,20.51Z"/><path class="cls-6" d="M20.88,19.26s-2.78-.75-4.31,1c-.06.07-.19,0-.17-.07a2.28,2.28,0,0,1,2.3-1.88C21.52,18,20.88,19.26,20.88,19.26Z"/><path class="cls-7" d="M26.55,27.31a2.64,2.64,0,0,0-.23,1.86,3,3,0,0,0,.4.82,2.22,2.22,0,0,1,.49,1,1.3,1.3,0,0,1-.34,1.12,1.65,1.65,0,0,1-1,.46,2.8,2.8,0,0,1-2-.65l0,0a1.2,1.2,0,0,1-.58-.39.47.47,0,0,1-.08-.34.6.6,0,0,1,.14-.3.48.48,0,0,0,.05.55,1,1,0,0,0,.53.22H24a2.76,2.76,0,0,0,1.76.42A1,1,0,0,0,26.73,31a2.14,2.14,0,0,0-.38-.8,2.89,2.89,0,0,1-.37-1A2.36,2.36,0,0,1,26.55,27.31Z"/><path class="cls-8" d="M36.32,8.31a16.91,16.91,0,0,0-6.14-2.44C19.78,4,9.58,12,7.39,23.76c0,.23-.08.46-.11.69-.35-.15-.72-.28-1.08-.4,0-.33.1-.67.16-1C8.55,11.24,18.74,3.23,29.14,5.15A17.14,17.14,0,0,1,36.32,8.31Z"/><path class="cls-9" d="M7.87,24.76c0-.05.08.06,0,.07s-.1-.06-.12-.11a3.8,3.8,0,0,0-1.21-1.61,1.89,1.89,0,0,0-1.37-.48A1.61,1.61,0,0,0,4,24a4.88,4.88,0,0,0,.3,3.05A5.19,5.19,0,0,0,8.8,30.24"/><path class="cls-10" d="M7.87,24.76s.08,0,0,.07-.09,0-.12,0-.07-.14-.11-.2a2.55,2.55,0,0,0-.24-.39,3.46,3.46,0,0,0-.59-.67,2.26,2.26,0,0,0-1.51-.72,1.29,1.29,0,0,0-1.08,1,4.33,4.33,0,0,0-.13,1.72A5.34,5.34,0,0,0,8.8,30.24,4.46,4.46,0,0,1,7,30a5.48,5.48,0,0,1-1.6-1,5.24,5.24,0,0,1-1.73-3.34,4.68,4.68,0,0,1,.19-1.93,2.12,2.12,0,0,1,.54-.86,1.36,1.36,0,0,1,1-.39A2.54,2.54,0,0,1,7,23.35a4.17,4.17,0,0,1,.54.78c.07.14.13.28.19.43s0,.15.07.21a.07.07,0,0,0,.08,0S7.91,24.72,7.87,24.76Z"/><path class="cls-4" d="M6,25.06a8.38,8.38,0,0,1,.52.66c.12.19.23.45.07.61s-.38.11-.49.26,0,.38.17.48.36.12.53.22a.75.75,0,0,1,.39.65.51.51,0,0,1-.06.27.53.53,0,0,1-.64.15A1.46,1.46,0,0,1,6,27.9a5.21,5.21,0,0,1-.84-1.34C4.85,25.81,4.78,23.69,6,25.06Z"/><path class="cls-5" d="M7.87,29.1s1.2,2.38-.21,2.82-1-2.26-1-2.26.41,2.26.82.85Z"/><path class="cls-8" d="M10,10.32s-7.23,1-4.61,4.41,6.8,4.5,6.82-2.64c0-4.49,1.42-1.23,1.42-1.23s8.93-2.69,2.49-6.62c-6-3.64-4.28,4.41-4.28,4.41S9.92,7.45,10,10.32Z"/><ellipse class="cls-11" cx="13.62" cy="4.1" rx="0.56" ry="0.65" transform="translate(6.99 16.69) rotate(-78.97)"/><ellipse class="cls-11" cx="6.94" cy="12.16" rx="0.56" ry="0.65" transform="translate(-6.33 16.64) rotate(-78.97)"/><ellipse class="cls-11" cx="5.96" cy="13.91" rx="0.56" ry="0.65" transform="translate(-8.84 17.1) rotate(-78.97)"/><ellipse class="cls-11" cx="8.79" cy="13.42" rx="0.56" ry="0.65" transform="translate(-6.07 19.48) rotate(-78.97)"/><ellipse class="cls-11" cx="10.85" cy="12.76" rx="0.56" ry="0.65" transform="translate(-3.76 20.97) rotate(-78.97)"/><ellipse class="cls-11" cx="10.39" cy="15.32" rx="0.56" ry="0.65" transform="translate(-6.64 22.59) rotate(-78.97)"/><ellipse class="cls-11" cx="7.99" cy="15.48" rx="0.56" ry="0.65" transform="translate(-8.74 20.36) rotate(-78.97)"/><ellipse class="cls-11" cx="9.13" cy="11.52" rx="0.56" ry="0.65" transform="translate(-3.92 18.27) rotate(-78.97)"/><ellipse class="cls-11" cx="12.36" cy="6.21" rx="0.56" ry="0.65" transform="translate(3.9 17.15) rotate(-78.97)"/><ellipse class="cls-11" cx="16.87" cy="6.78" rx="0.56" ry="0.65" transform="translate(6.98 22.04) rotate(-78.97)"/><ellipse class="cls-11" cx="16.01" cy="4.79" rx="0.56" ry="0.65" transform="translate(8.24 19.59) rotate(-78.97)"/><ellipse class="cls-11" cx="14.47" cy="6.32" rx="0.56" ry="0.65" transform="translate(5.5 19.31) rotate(-78.97)"/><ellipse class="cls-11" cx="13.21" cy="7.88" rx="0.56" ry="0.65" transform="translate(2.95 19.33) rotate(-78.97)"/><ellipse class="cls-11" cx="15.36" cy="8.44" rx="0.56" ry="0.65" transform="translate(4.14 21.91) rotate(-78.97)"/><ellipse class="cls-11" cx="13.92" cy="9.42" rx="0.56" ry="0.65" transform="translate(2.01 21.28) rotate(-78.97)"/><ellipse class="cls-8" cx="11.83" cy="10.34" rx="1.51" ry="2.02" transform="translate(-3.78 12.07) rotate(-47.48)"/></svg>