<svg xmlns="http://www.w3.org/2000/svg" viewBox="0 0 69.31 55.28"><defs><style>.cls-1{isolation:isolate;}.cls-2{fill:#5b5447;}.cls-3{fill:#424036;}.cls-4{fill:#fbd3c7;stroke:#323232;}.cls-4,.cls-7{stroke-miterlimit:10;stroke-width:0.25px;}.cls-5{fill:#e4a68d;}.cls-6{fill:#431b15;}.cls-7{fill:#321213;stroke:#221f1f;}.cls-8{fill:#90866e;}.cls-9{fill:#605e43;}.cls-10,.cls-13{fill:#9f9681;opacity:0.5;}.cls-10,.cls-12{mix-blend-mode:multiply;}.cls-11,.cls-12{fill:#666253;}.cls-12{opacity:0.4;}.cls-13{mix-blend-mode:screen;}.cls-14{fill:#c48a74;}</style></defs><g class="cls-1"><g id="Layer_1" data-name="Layer 1"><path class="cls-2" d="M15.82,20.87A15.69,15.69,0,0,0,12,23.31c-2.4,1.94-7.8,7.76-8.25,10.16s15.36.55,35.86-.63S67.88,28.33,68,27.17s-5-6-10.74-8.55S43.49,16.2,33.82,16.74A59.9,59.9,0,0,0,15.82,20.87Z"/><path class="cls-3" d="M31.24,17.08A60.43,60.43,0,0,0,15.87,21,15.06,15.06,0,0,0,12.1,23.4c-2.48,2-7.77,7.78-8.2,10.1a.39.39,0,0,0,.08.31c1.06,1.26,9.71.66,21.69-.17,4.21-.29,9-.62,14-.91,3.42-.2,6.66-.47,9.64-.79,14-1.56,18.53-4.05,18.6-4.78.09-1.09-5-5.88-10.67-8.43-5.83-2.62-14-2.4-23.38-1.87C33,16.91,32.11,17,31.24,17.08Z"/><path class="cls-4" d="M54.44,24.18a2.49,2.49,0,0,1,.28,2.69C51.15,34,51.17,36.19,48.4,45c-2.06,6.51-9.76,10.36-15.88,8.49-7.52-2.3-15.9-7.15-13.81-22.16.92-6.6.41-13.89,1.92-15.92,5.07-6.83,8.68-4.86,18.05-2C47.46,16.18,51.06,17.66,54.44,24.18Z"/><path class="cls-5" d="M51.38,35.74s1.25-12.66-5.15-11.31c-7,1.46-9.43-1.73-12.24-1.32-6.16.91-13.6,9.32-15.32,3.05S34.43,13.92,34.43,13.92,50,13.55,51,14.05s4.65,8.87,4.65,8.87Z"/><path class="cls-6" d="M47,29.14a.47.47,0,0,1-.39-.72l.07-.12c.4-.66,1.4-.57,1.93-.29A3.94,3.94,0,0,1,51,31.42c0,.21-.21.38-.31.21A5,5,0,0,0,47,29.14Z"/><path class="cls-6" d="M35.59,26.12a.47.47,0,0,0,.73-.35v-.14c.07-.77-.8-1.28-1.39-1.36A4,4,0,0,0,31,25.64c-.14.15,0,.43.14.36A5,5,0,0,1,35.59,26.12Z"/><path class="cls-7" d="M48.33,20.08S45.81,27.67,34,20.7c0,0,14.3-.5.61-5.41,0,0,1.48,5-7.17.9,0,0,5.32,7-6.3,11.84,0,0-1.95.06-2.66,4.7-.05.33-.1.69-.14,1.07-.55,5.7.09-.74.09-.74s-4.84-2.37-3.15-8.32A8.34,8.34,0,0,1,17,15s-.53-7.89,8.23-7.18c0,0,4.11-6.66,9.06-5,0,0,8.75-3.5,12.56,4.29,0,0,6.23-.33,8,7.47,0,0,4.39,4.22,1.78,8.5,0,0,3.48,3.65-1.39,6.18,0,0,2.46,3.85-2.42,5.59l-2.55,3.94,1.13-3a14.92,14.92,0,0,0-2.77-15.35C48.52,20.29,48.43,20.18,48.33,20.08Z"/><path class="cls-8" d="M57.25,18.62C51.51,16,43.49,16.2,33.82,16.74a59.9,59.9,0,0,0-18,4.13A15.69,15.69,0,0,0,12,23.31c-2.4,1.94-7.8,7.76-8.25,10.16C4.3,31.88,11.54,25,38.6,23.2,56.27,22,64.85,24.62,67.87,26.72,67.07,25.08,62.42,21,57.25,18.62Z"/><path class="cls-9" d="M67.88,26.84a.08.08,0,0,1-.07,0c-1.67-1.16-8.7-4.85-29.2-3.5-2.39.15-4.71.36-6.9.6C10.38,26.29,4.35,32.09,3.89,33.51a.11.11,0,0,1-.13.08.15.15,0,0,1-.08-.14C4.16,30.9,9.74,25,12,23.22a15.29,15.29,0,0,1,3.81-2.46,61.3,61.3,0,0,1,15.44-3.91c.87-.1,1.74-.17,2.59-.22,9.38-.53,17.61-.76,23.49,1.89C62.46,20.84,67.14,25,68,26.67a.11.11,0,0,1,0,.14A.09.09,0,0,1,67.88,26.84Z"/><path class="cls-10" d="M15.15,25.22c1.5-2.55,4.28-4.34,6.68-5.68a31,31,0,0,1,3.07-1.49,57.81,57.81,0,0,0-9.08,2.82A15.69,15.69,0,0,0,12,23.31c-2.4,1.94-7.8,7.76-8.25,10.16.31-1,3.09-3.88,11.26-6.42A2,2,0,0,1,15.15,25.22Z"/><path class="cls-10" d="M47,16.85a37.92,37.92,0,0,1,6.31,2.24c1.53.71,3.38,1.93,3.35,4a2.22,2.22,0,0,1,0,.37c6,.73,9.49,2.08,11.21,3.27-.8-1.64-5.45-5.77-10.62-8.1-3.46-1.55-7.74-2.11-12.71-2.2A20.22,20.22,0,0,1,47,16.85Z"/><path class="cls-8" d="M12.39,22s-1.6-8.85,8.28-16.09C31.37-1.95,44.38,2.22,48.3,4.67s8,7.77,8.86,13c0,0-14.85-1.46-21.74-.83S16.29,19.55,12.39,22Z"/><path class="cls-9" d="M33.81,16.84l1.6-.16c6.46-.6,20.07.66,21.61.81-1-5.35-5.12-10.44-8.77-12.72C45.54,3.08,39,.85,32,1.62A23.27,23.27,0,0,0,20.73,6c-9,6.57-8.4,14.56-8.26,15.8C16.4,19.46,27.34,17.57,33.81,16.84Z"/><path class="cls-10" d="M50.64,12.74c-1.17,2-3.33,2.87-5.28,3.45-.68.2-1.36.36-2,.51,6.69.22,13.85.92,13.85.92-.81-4.79-4.34-9.7-8-12.35C50.87,7.23,52.08,10.24,50.64,12.74Z"/><path class="cls-10" d="M26.86,16.88a17.84,17.84,0,0,1-7.67-2.34,5.46,5.46,0,0,1-2.73-4.76C11.3,16,12.39,22,12.39,22c3.19-2,12-3.76,18.84-4.69C29.76,17.2,28.3,17.08,26.86,16.88Z"/><path class="cls-11" d="M35.22,15.42c5.56-.55,20.53.32,22.08,1.23a9.53,9.53,0,0,1,.24,2.2c-.15.37-7.31-1.92-20.67-.94C19.29,19.2,12.81,23.1,12.36,23.22s-.35-2-.16-2.34S19.06,17,35.22,15.42Z"/><path class="cls-3" d="M57.46,19A8.78,8.78,0,0,1,56,18.82a76.58,76.58,0,0,0-19.1-.8c-1.61.12-3.19.27-4.71.44-5.68.63-13.66,2-19.43,4.72a2.37,2.37,0,0,1-.35.15h0a.26.26,0,0,1-.25-.15,4.24,4.24,0,0,1,0-2.37c.18-.32,6.74-3.89,23.1-5.51,5.45-.54,20.56.3,22.15,1.24l0,0v.05a7.91,7.91,0,0,1,.24,2.27A.18.18,0,0,1,57.46,19Z"/><path class="cls-12" d="M57.3,16.65c-.88-.52-6.06-1-11.41-1.26.18,0,.37.08.57.12,5.22.87,1.56,1.56-2.42,1.4a80.26,80.26,0,0,0-14.16.71c-6,.79-8-.23-3.18-1a7.64,7.64,0,0,0,1-.21C17,18.15,12.35,20.6,12.2,20.88s-.29,2.46.16,2.34,6.93-4,24.51-5.31c13.36-1,20.52,1.31,20.67.94A9.53,9.53,0,0,0,57.3,16.65Z"/><path class="cls-13" d="M17.77,25.36s10.87-3.86,36.4-3.06C54.17,22.3,33.94,19.58,17.77,25.36Z"/><path class="cls-4" d="M18.61,35.22c-.06-3.49-1.25-5.13-3.12-5.23-2-.12-2.86,1.23-2.92,4.09-.08,3.66,3.62,6.6,6.14,6"/><path class="cls-5" d="M14.09,33.2s-.4-2.06,1.75-1.55.83,3.2,1.36,4.41S19,38.51,18,38.7,14,37.56,14.09,33.2Z"/><path class="cls-14" d="M41,40a2.05,2.05,0,0,1,0,1.65,1.12,1.12,0,0,1-.71.6,2.08,2.08,0,0,1-.89,0A2.2,2.2,0,0,1,38,41.44a2.26,2.26,0,0,1-.45-1.57,3,3,0,0,0,.74,1.32,2.25,2.25,0,0,0,1.27.62,1.13,1.13,0,0,0,1.19-.34A2.74,2.74,0,0,0,41,40Z"/></g></g></svg>