<svg id="Layer_1" data-name="Layer 1" xmlns="http://www.w3.org/2000/svg" viewBox="0 0 21.64 13.25"><defs><style>.cls-1{fill:#f6fbfd;stroke:#323232;stroke-miterlimit:10;stroke-width:0.25px;}.cls-2{fill:#ce9685;}.cls-3{fill:#451f16;}.cls-4{fill:#fff;}.cls-5{fill:#f9d1c6;}</style></defs><path class="cls-1" d="M.93,3.13A4,4,0,0,0,3,8.2,3.55,3.55,0,0,0,7.92,6.39a4,4,0,0,0-2.1-5.07A3.56,3.56,0,0,0,.93,3.13Z"/><path class="cls-2" d="M.91,6.13a4.28,4.28,0,0,1,0-3.23A3.53,3.53,0,0,1,5.82,1.32a4.87,4.87,0,0,1,2.44,3,4.42,4.42,0,0,0-3-3.78A3.52,3.52,0,0,0,1,2C.3,3.37,0,5.31.91,6.13Z"/><path class="cls-3" d="M2.66,6C2.28,6.85,2.89,7.8,4,8.09A2.37,2.37,0,0,0,6.78,7c.38-.87-.24-1.82-1.38-2.11A2.34,2.34,0,0,0,2.66,6Z"/><path class="cls-4" d="M4.29,4.82a.71.71,0,0,0,.09.95.62.62,0,0,0,.9-.12.7.7,0,0,0-.09-1A.62.62,0,0,0,4.29,4.82Z"/><path class="cls-1" d="M20.92,10a3.68,3.68,0,0,1-4.1,2.9,3.26,3.26,0,0,1-2.67-4A3.68,3.68,0,0,1,18.25,6,3.25,3.25,0,0,1,20.92,10Z"/><path class="cls-2" d="M18.8,12.54a3.73,3.73,0,0,0,2-2.59A3.3,3.3,0,0,0,18.06,6c-.94-.15-1.68.11-3.19,1.36a3.64,3.64,0,0,1,4-1.57,3.31,3.31,0,0,1,2.31,3.56A3.74,3.74,0,0,1,18.8,12.54Z"/><path class="cls-3" d="M19.07,11c.22-.85-.46-1.63-1.52-1.75a2.13,2.13,0,0,0-2.34,1.3c-.22.84.46,1.62,1.53,1.75A2.13,2.13,0,0,0,19.07,11Z"/><path class="cls-4" d="M17,9.35a.71.71,0,0,0,.13,1A.69.69,0,1,0,18,9.26.69.69,0,0,0,17,9.35Z"/><path class="cls-5" d="M8.23,6.36S6.32,0,.42,4.41A4.29,4.29,0,0,1,2.5,1.22,4.69,4.69,0,0,1,5.57,1C7.06,1.41,9.15,2.69,8.23,6.36Z"/><path class="cls-5" d="M14.05,8.33s5-2,6.77,2.67a3.93,3.93,0,0,0-.27-3.55A3,3,0,0,0,18,5.77,3.69,3.69,0,0,0,14.05,8.33Z"/></svg>