<svg id="Layer_1" data-name="Layer 1" xmlns="http://www.w3.org/2000/svg" xmlns:xlink="http://www.w3.org/1999/xlink" viewBox="0 0 110 23"><defs><style>.cls-1{fill:none;}.cls-2{clip-path:url(#clip-path);}.cls-3{fill:#eb652f;}.cls-4{fill:#f6a42c;}.cls-5{fill:#fff18b;}.cls-6{fill:#281b17;}.cls-7{fill:#473a3a;}.cls-8{fill:#5e5454;}</style><clipPath id="clip-path"><path class="cls-1" d="M43.79.76S61,.65,64.4,1c0,0,6.13,7.13,1.49,13S54.47,24,49,21.52,38.26,7.92,43.79.76Z"/></clipPath></defs><g class="cls-2"><path class="cls-3" d="M55.24-7.65A5.48,5.48,0,0,1,57.79-3C57.69-.69,56.08.22,56,2.57a2.63,2.63,0,0,0,1.6,2.6C57,4,57.24,1.47,59.75-.29a3.81,3.81,0,0,0-.45,3.46C59.65,3.92,62,5.65,62,9.44s-4.11,6.65-6.71,6.65S47,14.46,47,9.44a10.59,10.59,0,0,1,.71-3.37,4,4,0,0,0,2.8,3.37A6,6,0,0,1,48.87,3.5c1.06-4.3,5.47-6.64,6.47-8A3,3,0,0,0,55.24-7.65Z"/><path class="cls-4" d="M53.44,1.55c-1.66,2.52-1.21,3.39-.27,5.34s-1.26,4-1.57,5.37c-.38,1.69,1.46,3.83,3.64,3.83s3.42-2.36,3.42-4.43-1.69-3.72-4-5.33A3.54,3.54,0,0,1,53.44,1.55Z"/><path class="cls-5" d="M54.49,9.41c1.16.93,2.87,2.53,2.53,4.25a3.59,3.59,0,0,1-1.78,2.43c-.42-.18-1.54-.8-1.5-1.7s1.38-1.16,1.66-2.05C55.79,11.11,54.49,9.41,54.49,9.41Z"/></g><path class="cls-6" d="M75.93,22.07c-1.36-.89-12.56-6.56-12.87-6.73a2.81,2.81,0,0,1,.54-.19l.6-.67c.26.06,12.56,6.59,13.87,7.45Z"/><path class="cls-6" d="M32.46,22.15l-2-.12c1-.71,12.47-7.88,12.76-8l2,.35c.09,0-.51.09-.51.09C44.42,14.71,33.58,21.39,32.46,22.15Z"/><path class="cls-7" d="M40.77,9.09v5.54H66.22v-6a17.89,17.89,0,0,0-5.56-.94A94.2,94.2,0,0,0,44,8S41.53,8.15,40.77,9.09Z"/><ellipse class="cls-8" cx="53.5" cy="14.08" rx="12.72" ry="2.4"/><path class="cls-8" d="M65.56,11.68c.41,0,40.49-5.92,42.48-6.43"/><path class="cls-6" d="M65.56,12.29v-.61l0-.62c.28,0,39.16-5.68,41.38-6.24l2.7.6C108.22,5.77,66.35,12.29,65.56,12.29Z"/><path class="cls-6" d="M41.89,11.7c-.12,0-.53,0-5.84-.78C25.21,9.44,3.82,4.86.41,4.82L3.74,4.1c3.5,0,21.63,4.12,32.49,5.61,3.07.42,5.49.75,5.7.76Z"/></svg>