<svg id="Layer_1" data-name="Layer 1" xmlns="http://www.w3.org/2000/svg" viewBox="0 0 26.51 19.91"><defs><style>.cls-1{fill:#551514;}.cls-2{fill:#d72b5d;}.cls-3{fill:#fff;}.cls-4{fill:#bb7757;}</style></defs><g id="S"><path class="cls-1" d="M5.6,17.56c.18.46,4.26,1.15,5.9,1.46,1.85.34,3.9-.76,5.52-1.51.61-.29,3.71-2.67,4.49-3.18,1.87-1.21,3.69-6.49,3.69-6.49A8.72,8.72,0,0,0,23,7.21c-.79-.07-1.64-.3-2.46-.45a10.91,10.91,0,0,0-4.44.17c-2.4.47-4.42,2-6.38,3.55-.44.35-2.26,2.55-2.81,3.19C6.08,14.58,5.6,17.56,5.6,17.56Z"/><path class="cls-2" d="M12.12,15.34c.65-1,1.86-.7,2.8-1.14l1.51-.71s2.09-1.58,3-1.61c1.72-.06,1.57,1.92,1.28,2.33a5.3,5.3,0,0,1-2.34,1.39,22.16,22.16,0,0,1-4.22,1.63c-.45.11-1.23.58-1.73.2A1.6,1.6,0,0,1,12.12,15.34Z"/><path class="cls-3" d="M10.13,10,14.32,7.5l4.82-1.2,1.27.18A6.86,6.86,0,0,1,19.1,8a25.14,25.14,0,0,1-8.94,4.08,16.15,16.15,0,0,1-2.31.1Z"/><path class="cls-3" d="M11,18.78s0-1.55.34-1.88c1-1.07,2.82-.93,5-2.06s3.94-2.48,5.34-2.66a3.46,3.46,0,0,1,1.17.45l-1.17,1.46-4.56,2.85-3.84,1.39Z"/><path class="cls-4" d="M5.6,17.56a14.25,14.25,0,0,0,5.88.19,42.7,42.7,0,0,0,9.4-4.4c1.32-1,4.32-5.51,4.32-5.51a5.18,5.18,0,0,1-.31,1.69A14.71,14.71,0,0,1,22,14.41a16,16,0,0,1-5,3.08c-.35.15-3.27,2.06-6.14,1.8-1.77-.16-4.72-1.1-5.28-1.65A.28.28,0,0,1,5.6,17.56Z"/></g><path class="cls-4" d="M25.2,7.84S20.48,5.67,13.52,8.93,5.6,17.56,5.6,17.56s-.49-5.79,7.55-9.79S25.2,7.84,25.2,7.84Z"/></svg>