<svg id="Layer_1" data-name="Layer 1" xmlns="http://www.w3.org/2000/svg" viewBox="0 0 62.59 69.55"><defs><style>.cls-1,.cls-6{fill:#3d2d16;}.cls-1{stroke:#3d2d16;}.cls-1,.cls-3,.cls-8{stroke-miterlimit:10;}.cls-2{fill:#fff;}.cls-3,.cls-9{fill:#fad2c6;}.cls-3{stroke:#323232;stroke-width:0.5px;}.cls-4{fill:#dc9e8f;}.cls-5{fill:#e8d860;}.cls-7{fill:#a67d48;}.cls-8{fill:#ad6428;stroke:#c77929;stroke-width:0.75px;}.cls-10{fill:#323232;}.cls-11{fill:#ef4b3b;}.cls-12{fill:#f49990;}</style></defs><path class="cls-1" d="M54.51,55.5c-1.18,7.78-8.3,11.27-18.9,11.21-.55,0-.81-2.07-1.3-2.3a28.54,28.54,0,0,0-7.16-2.74c-.31-.06-3,4-3.33,4C10,62.72,4.22,63.49,4.76,45.27c.31-10.41,14.13-16.93,28.09-14.82S56.06,45.2,54.51,55.5Z"/><path class="cls-1" d="M53.11,37.24c.36.54,5,19.43-2.19,25.29C39.43,71.82,33.31,65,33.27,65Z"/><path class="cls-2" d="M40.42,58.32S44.91,58,47,61.07C45.73,61.76,44.48,62.62,40.42,58.32Z"/><path class="cls-3" d="M53.6,41.72c0-.09-.13.06-.05.1s.15-.06.19-.13a5.63,5.63,0,0,1,2.14-1.95,2.22,2.22,0,0,1,1.92-.19,2.69,2.69,0,0,1,1,2.6,9,9,0,0,1-1.53,4.51c-1.56,2.3-4.4,3.78-6.94,3"/><path class="cls-4" d="M55.83,42.91a8.54,8.54,0,0,0-.91.8c-.22.23-.46.59-.32.89s.44.31.52.59a.58.58,0,0,1-.39.66c-.24.09-.5,0-.75.12a1.14,1.14,0,0,0-.74.83.9.9,0,0,0,0,.43.65.65,0,0,0,.74.49,1.89,1.89,0,0,0,.85-.49,7.9,7.9,0,0,0,1.57-1.69C57,44.51,57.92,41.33,55.83,42.91Z"/><path class="cls-5" d="M52,48.3s-2.41,3.14-.78,4.36,2.14-3,2.14-3S52,52.9,52,50.6Z"/><path class="cls-3" d="M56.8,32.78c-.21.34-2,12.41-2.56,18.12C53.58,57.58,46.43,65.64,38.66,66c-9.53.46-18.19-2.7-22.53-10s-3.71-17.62-3.71-17.62S4.62,28,13.57,19.11,33.36,6.49,47.42,9.88,56.8,32.78,56.8,32.78Z"/><path class="cls-4" d="M20.53,30.82C21,30.59,31,21.56,31,21.56s-4.93,5.64-2.27,5.23c.74-.12,7.2-3.16,9.33-5.91,0,0-1,4.31-3.26,5.05,0,0,9.66,1,12.77-6.46,0,0-1.27,4,6,7.49C59.27,29.71,56,36.82,56,36.82l2-15.17L51.6,15,35.92,13.62,23.06,17.31,18.28,27.83,12.42,38.37Z"/><path class="cls-1" d="M55.69,39.53c.18-2.16,0-8.6-1.13-10.43-2.32-3.69-5.19-4.27-6.92-5.57-1.11-.83-.9-4.55-1.88-5.53s.19,1.46,0,0c-.63,2.23-.3,3.7-2.32,4.83a16.42,16.42,0,0,1-6.19,1.86,9.74,9.74,0,0,0,2.52-3.46,19.56,19.56,0,0,0,.55-4.73,25,25,0,0,1-12.09,9.56,11.57,11.57,0,0,0,3.37-6.91,3.87,3.87,0,0,0-1.81,1.29,73,73,0,0,1-9.45,9c-.06-.63-.4-1.16-.46-1.79-1.47,4.26-7.7,12.23-7.66,12,0,0-2.22,17.75,12,24.16,0,0-3.92,3.45-11.51.84C4.73,61.88-.1,54,4,40.94s.58-18.21,4.28-26C12.68,5.6,27.76-6,51.43,8.7c0,0,11.27,4.16,6.52,25.52C58,34.22,55.63,40.22,55.69,39.53Z"/><path class="cls-6" d="M47,30.4s3.94-.91,5.87,2a.13.13,0,0,0,.24-.08,3.34,3.34,0,0,0-3-3.17C46.29,28.41,47,30.4,47,30.4Z"/><path class="cls-6" d="M31.81,29.87s-4.45-.75-6.58,2.21A.15.15,0,0,1,25,32c.06-.9.55-2.75,3.31-3.29C32.63,27.85,31.81,29.87,31.81,29.87Z"/><path class="cls-7" d="M41.88,41.6a4.11,4.11,0,0,0,0,2.91,4.32,4.32,0,0,0,.74,1.19c.15.16.33.39.53.63a2.84,2.84,0,0,1,.4.84,2.14,2.14,0,0,1-.38,1.9,2.65,2.65,0,0,1-1.6.91,4.41,4.41,0,0,1-3.23-.77l.1,0a1.92,1.92,0,0,1-1-.55.79.79,0,0,1-.18-.56,1.1,1.1,0,0,1,.21-.48.69.69,0,0,0,.19.82,1.59,1.59,0,0,0,.83.25h0l.07,0a4.43,4.43,0,0,0,2.77.33,1.41,1.41,0,0,0,1.23-1.66,1.88,1.88,0,0,0-.24-.57c-.12-.17-.25-.36-.44-.6a4.31,4.31,0,0,1-.72-1.53A3.65,3.65,0,0,1,41.88,41.6Z"/><path class="cls-8" d="M54.29,10.46a26.77,26.77,0,0,0-9.95-2.89C27.8,6.12,13.07,20.16,11.42,38.93c0,.36-.06.72-.08,1.08-.57-.17-1.15-.33-1.75-.46,0-.52.06-1.06.11-1.59C11.35,19.19,26.08,5.15,42.61,6.6A27,27,0,0,1,54.29,10.46Z"/><path class="cls-9" d="M12.32,40.41c0-.08.13.09,0,.11s-.16-.08-.2-.16A6,6,0,0,0,10,38a3,3,0,0,0-2.21-.55A2.6,2.6,0,0,0,6.1,39.84,7.84,7.84,0,0,0,7,44.56a8.17,8.17,0,0,0,7.55,4.27"/><path class="cls-10" d="M12.32,40.41c0-.07.12.05.07.1a.15.15,0,0,1-.18,0,2.7,2.7,0,0,1-.2-.31,6,6,0,0,0-.41-.58,6,6,0,0,0-1-1,3.66,3.66,0,0,0-2.52-1A2.17,2.17,0,0,0,6.4,39.47a6.81,6.81,0,0,0,0,2.77A8.09,8.09,0,0,0,9.32,47a7.92,7.92,0,0,0,5.26,1.88,7.09,7.09,0,0,1-2.89-.23,9,9,0,0,1-2.61-1.34A8.42,8.42,0,0,1,6,42.34a7.25,7.25,0,0,1,0-3A3.39,3.39,0,0,1,6.63,38,2.07,2.07,0,0,1,8,37.25a3.91,3.91,0,0,1,2.72,1.15,6.32,6.32,0,0,1,1,1.1,5,5,0,0,1,.38.63,1.82,1.82,0,0,0,.16.31.12.12,0,0,0,.14.06S12.37,40.35,12.32,40.41Z"/><path class="cls-4" d="M9.48,41.16a8.26,8.26,0,0,1,.91,1c.22.27.43.66.21.94s-.57.22-.73.47.06.6.33.73.59.14.87.26a1.21,1.21,0,0,1,.71,1,.86.86,0,0,1-.06.42.81.81,0,0,1-1,.34,2.29,2.29,0,0,1-.9-.64,8.51,8.51,0,0,1-1.52-2C7.75,42.5,7.33,39.2,9.48,41.16Z"/><path class="cls-5" d="M13,47.19s2.22,3.54.08,4.43-1.93-3.37-1.93-3.37,1,3.46,1.41,1.2Z"/><path class="cls-11" d="M13.48,17.55S2.33,20.12,6.94,25.11s11.29,6,10.26-5.14c-.65-7,2-2.13,2-2.13s13.56-5.53,2.9-10.71c-9.86-4.79-6,7.53-6,7.53S12.93,13.07,13.48,17.55Z"/><ellipse class="cls-12" cx="18.21" cy="7.29" rx="0.88" ry="1.03" transform="translate(9.19 24.71) rotate(-84.44)"/><ellipse class="cls-12" cx="8.97" cy="20.87" rx="0.88" ry="1.03" transform="translate(-12.67 27.78) rotate(-84.44)"/><ellipse class="cls-12" cx="7.71" cy="23.76" rx="0.88" ry="1.03" transform="translate(-16.68 29.13) rotate(-84.44)"/><ellipse class="cls-12" cx="12.06" cy="22.57" rx="0.88" ry="1.03" transform="translate(-11.58 32.38) rotate(-84.44)"/><ellipse class="cls-12" cx="15.17" cy="21.23" rx="0.88" ry="1.03" transform="translate(-7.43 34.27) rotate(-84.44)"/><ellipse class="cls-12" cx="14.85" cy="25.3" rx="0.88" ry="1.03" transform="translate(-11.77 37.62) rotate(-84.44)"/><ellipse class="cls-12" cx="11.11" cy="25.91" rx="0.88" ry="1.03" transform="translate(-15.75 34.45) rotate(-84.44)"/><ellipse class="cls-12" cx="12.3" cy="19.54" rx="0.88" ry="1.03" transform="translate(-8.34 29.89) rotate(-84.44)"/><ellipse class="cls-12" cx="16.55" cy="10.77" rx="0.88" ry="1.03" transform="translate(4.23 26.2) rotate(-84.44)"/><ellipse class="cls-12" cx="23.68" cy="10.99" rx="0.88" ry="1.03" transform="translate(10.44 33.49) rotate(-84.44)"/><ellipse class="cls-12" cx="22.04" cy="8" rx="0.88" ry="1.03" transform="translate(11.94 29.17) rotate(-84.44)"/><ellipse class="cls-12" cx="19.86" cy="10.62" rx="0.88" ry="1.03" transform="matrix(0.1, -1, 1, 0.1, 7.37, 29.36)"/><ellipse class="cls-12" cx="18.13" cy="13.24" rx="0.88" ry="1.03" transform="translate(3.19 30) rotate(-84.44)"/><ellipse class="cls-12" cx="21.58" cy="13.81" rx="0.88" ry="1.03" transform="translate(5.75 33.94) rotate(-84.44)"/><ellipse class="cls-12" cx="19.47" cy="15.54" rx="0.88" ry="1.03" transform="translate(2.11 33.42) rotate(-84.44)"/><ellipse class="cls-11" cx="16.34" cy="17.29" rx="2.37" ry="3.16" transform="translate(-7.3 19.92) rotate(-52.95)"/></svg>