<svg id="Layer_1" data-name="Layer 1" xmlns="http://www.w3.org/2000/svg" viewBox="0 0 30 15"><defs><style>.cls-1{fill:#dc9e8f;}.cls-2{fill:#f6fbfd;stroke:#323232;stroke-miterlimit:10;stroke-width:0.44px;}.cls-3{fill:#451f16;}.cls-4{fill:#fff;}.cls-5{fill:#efbfb4;}</style></defs><circle class="cls-1" cx="6.89" cy="9.26" r="4.74"/><path class="cls-2" d="M2.65,9.55a4.46,4.46,0,0,0,4.29,4.61c2.46.09,4.5-1.06,4.59-3.52s-1.8-5.3-4.26-5.39A4.47,4.47,0,0,0,2.65,9.55Z"/><ellipse class="cls-3" cx="6.28" cy="11.4" rx="2.17" ry="2.52" transform="translate(-3.15 2.43) rotate(-17.57)"/><circle class="cls-4" cx="4.33" cy="10.34" r="0.77"/><ellipse class="cls-1" cx="22.91" cy="5.59" rx="4.95" ry="4.74" transform="translate(-0.67 6.03) rotate(-14.78)"/><path class="cls-2" d="M27.28,4.92a4.46,4.46,0,0,1-3.17,5.45c-2.38.63-4.62,0-5.25-2.43s.6-5.56,3-6.19A4.45,4.45,0,0,1,27.28,4.92Z"/><ellipse class="cls-3" cx="21.96" cy="7.92" rx="2.09" ry="2.47" transform="translate(-1.06 4.03) rotate(-10.24)"/><circle class="cls-4" cx="20.3" cy="6.79" r="0.77"/><path class="cls-5" d="M2.65,9.55c0,1.45,1.66,2.14,4.12,2.23s4.75-.49,4.76-1.14c0-2.46-1.8-5.3-4.26-5.39A4.45,4.45,0,0,0,2.65,9.55Z"/><path class="cls-5" d="M27.28,4.92c.31,1.23-1.22,2.39-3.6,3s-4.67.7-4.82,0c-.51-2.41.6-5.56,3-6.19A4.44,4.44,0,0,1,27.28,4.92Z"/></svg>