<svg id="Layer_1" data-name="Layer 1" xmlns="http://www.w3.org/2000/svg" viewBox="0 0 28.84 15.22"><defs><style>.cls-1{fill:#dc9e8f;}.cls-2{fill:#f6fbfd;stroke:#323232;stroke-miterlimit:10;stroke-width:0.25px;}.cls-3{fill:#451f16;}.cls-4{fill:#fff;}.cls-5{fill:#f9d1c6;}</style></defs><circle class="cls-1" cx="5.84" cy="9.48" r="5.01"/><ellipse class="cls-1" cx="22.89" cy="5.57" rx="5.13" ry="5.01" transform="translate(-0.66 6.02) rotate(-14.78)"/><path class="cls-2" d="M1.35,9.78a4.72,4.72,0,0,0,4.54,4.89c2.6.09,4.76-1.13,4.85-3.73s-1.91-5.6-4.51-5.7A4.71,4.71,0,0,0,1.35,9.78Z"/><ellipse class="cls-3" cx="7.03" cy="11.88" rx="2.67" ry="2.3" transform="translate(-0.6 0.38) rotate(-2.94)"/><circle class="cls-4" cx="4.39" cy="12.6" r="0.81"/><path class="cls-2" d="M27.42,4.89a4.71,4.71,0,0,1-3.36,5.76c-2.52.67-4.89-.05-5.56-2.57s.63-5.88,3.15-6.55A4.73,4.73,0,0,1,27.42,4.89Z"/><ellipse class="cls-3" cx="22.73" cy="8.29" rx="2.61" ry="2.21" transform="translate(-0.94 3.28) rotate(-8.08)"/><circle class="cls-4" cx="20.66" cy="8.89" r="0.81"/><path class="cls-5" d="M1.88,12.42s7.36.57,8.69-3.53c0,0-1.94-5.8-7-3.13A4.87,4.87,0,0,0,1.88,12.42Z"/><path class="cls-5" d="M18.36,8.15s5.76,1.31,9.31-2.78c0,0-.75-5.62-5.94-4.2C21.73,1.17,16.73,2.52,18.36,8.15Z"/></svg>