<svg id="Layer_1" data-name="Layer 1" xmlns="http://www.w3.org/2000/svg" viewBox="0 0 21.17 7.96"><defs><style>.cls-1{fill:#dc9e8f;}.cls-2{fill:#fff;stroke:#3d2d16;stroke-miterlimit:10;stroke-width:0.5px;}.cls-3{fill:#3d2d16;}.cls-4{fill:#fff7f4;}.cls-5{fill:#f9d1c6;}</style></defs><path class="cls-1" d="M.65,3.94A3.16,3.16,0,0,1,2,1.9a5,5,0,0,1,2.3-.71,3.07,3.07,0,0,1,1.56.17,2.6,2.6,0,0,1,1,.88,3.27,3.27,0,0,1,.4,3.23,2,2,0,0,1-2.66,1,5.22,5.22,0,0,1-.81-.68,1.69,1.69,0,0,0-.9-.5.76.76,0,0,0-.83.48c-.09.29.09.81-.16,1s-.52,0-.7-.15A3.67,3.67,0,0,1,.65,3.94Z"/><path class="cls-2" d="M7.45,4.82C7.57,6.5,6.21,7.51,4.36,7.64a4,4,0,0,1-1.62-.18A2.3,2.3,0,0,1,1.17,5.3a3,3,0,0,1,.71-2A3.83,3.83,0,0,1,4.52,1.85C6.37,1.72,7.33,3.17,7.45,4.82Z"/><circle class="cls-3" cx="4.29" cy="4.78" r="1.78"/><circle class="cls-4" cx="5.21" cy="4.14" r="0.55"/><path class="cls-1" d="M13.6,3.15a3.09,3.09,0,0,1,1.39-2A4.92,4.92,0,0,1,17.29.4a3,3,0,0,1,1.55.17,2.63,2.63,0,0,1,1,.88,3.32,3.32,0,0,1,.4,3.23,2,2,0,0,1-2.67,1A5.14,5.14,0,0,1,16.8,5a1.77,1.77,0,0,0-.9-.5.75.75,0,0,0-.83.48c-.09.29.09.81-.16,1s-.53,0-.7-.15A3.63,3.63,0,0,1,13.6,3.15Z"/><path class="cls-2" d="M20.39,4c.12,1.68-1.23,2.69-3.08,2.82a3.94,3.94,0,0,1-1.62-.18,2.3,2.3,0,0,1-1.57-2.16,3,3,0,0,1,.71-2,3.81,3.81,0,0,1,2.64-1.42C19.32.93,20.28,2.38,20.39,4Z"/><circle class="cls-3" cx="17.23" cy="3.86" r="1.78"/><circle class="cls-4" cx="18.15" cy="3.35" r="0.55"/><path class="cls-5" d="M13.89,4.14s3.71,1.66,6.64.35c0,0,.53-4.07-3.27-4.19C17.26.3,13.33.1,13.89,4.14Z"/><path class="cls-5" d="M1,4.75s3.73,1.58,6.6.51c0,0,1.15-4.1-3-4.09C4.59,1.17.5,1.32,1,4.75Z"/></svg>