<svg id="Layer_1" data-name="Layer 1" xmlns="http://www.w3.org/2000/svg" xmlns:xlink="http://www.w3.org/1999/xlink" viewBox="0 0 161.48 34.2"><defs><style>.cls-1{fill:none;}.cls-2{clip-path:url(#clip-path);}.cls-3{fill:#eb652f;}.cls-4{fill:#f6a42c;}.cls-5{fill:#fff18b;}.cls-6{fill:#281b17;}.cls-7{fill:#473a3a;}.cls-8{fill:#5e5454;}</style><clipPath id="clip-path"><path class="cls-1" d="M64.18,1.14S88.1,1,92.89,1.46c0,0,8.53,9.92,2.07,18.05S79.05,33.51,71.4,30,56.49,11.1,64.18,1.14Z"/></clipPath></defs><g class="cls-2"><path class="cls-3" d="M79.35,22.48c-3.94,0-9.74-2.15-9.74-8.29s3.67-7.83,3.67-7.83a5.66,5.66,0,0,0-1,2.83,8.81,8.81,0,0,1,5.44-4.62c3.45-.92,5.82-1.2,7.21-3.92.51,1.33-.7,3.42-1.39,3.8.57-.1,5.35-2.16,4.81-6.71a5.46,5.46,0,0,1,.54,4.55c-.29.84-1.37,4.2-6.24,5.13-3.45.66-5.88,2.8-5.88,5.3A2.36,2.36,0,0,0,79.35,15a2.18,2.18,0,0,0,2.37-2.38c0-1.81-2.12-2.66-2.12-2.66a5.84,5.84,0,0,1,5.28,1.08C84.6,10.17,83,9.29,83,9.29A5.45,5.45,0,0,1,87.64,15C87.64,19.35,83.05,22.48,79.35,22.48Z"/><path class="cls-3" d="M78.5-10.58c1,.41,3.32,2,3.51,3.92s-1,4-.7,5A3.27,3.27,0,0,0,83.24.72c-.81,1-2.1,1.82-4.4,2.24-3.36.63-3.56-1.27-3.29-2.65.73-3.74,4.15-3.71,4.29-7.19C80-9.67,78.5-10.58,78.5-10.58Z"/><path class="cls-3" d="M76.19-3.52c-4.67,4.72-1.36,7.3-1.36,7.3-1.24,0-4.09-.8-3.13-4C72.58-3.21,76.19-3.52,76.19-3.52Z"/><path class="cls-3" d="M85.83,8.72a6.43,6.43,0,0,1,3.45,4.08,6.83,6.83,0,0,1-1.74,7c1.29-.4,3.58-1.41,3.58-5.73A5.77,5.77,0,0,0,85.83,8.72Z"/><path class="cls-3" d="M68.61,12c-1.4,4.46.29,8,3.56,9.28-2.38-.47-4.14-1.18-4.83-3.18C66.23,14.86,68.61,12,68.61,12Z"/><path class="cls-4" d="M79.35,22.48c-2.1,0-7.18-1.77-7.59-8.23,1.33,3.83,3.7,4.37,3.7,4.37a5.81,5.81,0,0,1-.6-6.64,4.84,4.84,0,0,0,4.49,5.25c2.09,0,3.48-2.15,3.48-3.92a5,5,0,0,1-.76,5.5,8.53,8.53,0,0,0,3.76-3.1C86,19.22,81.45,22.48,79.35,22.48Z"/><path class="cls-5" d="M79.35,22.48S76.86,22,76,20.23c1,.54,2-.91,1.55-2.12A4,4,0,0,0,82.2,19.6C82.07,21.07,80.49,22.1,79.35,22.48Z"/><path class="cls-4" d="M77.42,1.44c-1.16.4-1.15-2.41,1.06-4.24C78.48-1.42,78.61,1,77.42,1.44Z"/></g><path class="cls-6" d="M110.73,33.09c-2-1.3-18.46-10.39-18.91-10.64a5.27,5.27,0,0,1,.78-.28l.89-1c.38.09,18.45,10.44,20.38,11.7Z"/><path class="cls-6" d="M46.94,33l-3-.18c1.52-1,18.34-12.1,18.76-12.21l3,.51-.74.14C64.53,21.52,48.57,31.87,46.94,33Z"/><path class="cls-7" d="M59.19,13.3v8.11H96.44V12.67S94,11.61,88.3,11.29a139.1,139.1,0,0,0-24.43.42S60.3,11.92,59.19,13.3Z"/><ellipse class="cls-8" cx="77.82" cy="20.6" rx="18.63" ry="3.52"/><path class="cls-6" d="M95.47,18v-.91l-.07-.89c.41,0,57.67-8.6,60.92-9.42l4,.87C158.27,8.16,96.64,18,95.47,18Z"/><path class="cls-6" d="M60.83,17.13c-.19,0-.78-.08-8.56-1.14C36.41,13.81,6.19,7,1.2,7l4.87-1C11.19,6,36.64,12,52.54,14.2c4.49.62,8,1.1,8.35,1.13Z"/></svg>