<svg id="Layer_1" data-name="Layer 1" xmlns="http://www.w3.org/2000/svg" viewBox="0 0 43.18 44.52"><defs><style>.cls-1,.cls-6{fill:#3d2d16;}.cls-1{stroke:#3d2d16;}.cls-1,.cls-3{stroke-miterlimit:10;stroke-width:0.25px;}.cls-2{fill:#fff;}.cls-3,.cls-9{fill:#fad2c6;}.cls-3{stroke:#323232;}.cls-4{fill:#dc9e8f;}.cls-5{fill:#e8d860;}.cls-7{fill:#a67d48;}.cls-8{fill:#ef4b3b;}.cls-10{fill:#323232;}.cls-11{fill:#f49990;}</style></defs><path class="cls-1" d="M34.31,38.72c-2.41,6-8.78,4-17.76,0-.21-.09-.9,2.95-1.11,2.85C7.3,37.74,1.94,36.35,4.93,25.13,6.64,18.71,16.17,16.68,24.52,20S36.77,32.56,34.31,38.72Z"/><path class="cls-1" d="M36.1,27.18c.15.39.6,13.55-5,15.38-3.54,1.14-5.32.73-6.59.39Z"/><path class="cls-2" d="M25.15,38.42s2.83.47,3.68,2.66C28,41.32,27.05,41.68,25.15,38.42Z"/><path class="cls-3" d="M35.75,30c0-.06-.09,0,0,.05s.09,0,.13-.05a3.62,3.62,0,0,1,1.62-.9,1.36,1.36,0,0,1,1.21.17,1.7,1.7,0,0,1,.27,1.76,5.69,5.69,0,0,1-1.61,2.57,4.14,4.14,0,0,1-4.74.85"/><path class="cls-4" d="M37,31.1a5,5,0,0,0-.68.37c-.17.11-.37.29-.33.5s.23.26.24.44a.36.36,0,0,1-.34.35c-.16,0-.32,0-.48,0a.72.72,0,0,0-.58.41.5.5,0,0,0-.08.26.42.42,0,0,0,.39.41,1.13,1.13,0,0,0,.6-.18,4.93,4.93,0,0,0,1.22-.82C37.48,32.27,38.49,30.42,37,31.1Z"/><path class="cls-5" d="M33.78,33.88s-2,1.6-1.11,2.59,1.76-1.56,1.76-1.56-1.32,1.82-1,.4Z"/><path class="cls-3" d="M39,25c-.18.18-3,7.41-4.23,10.86-1.38,4.06-7,8-11.87,7.11-6-1.1-10.89-4.32-12.52-9.5S10.69,22,10.69,22,7.36,14.4,14.21,10.18s14.12-4.95,22.35-.8S39,25,39,25Z"/><path class="cls-4" d="M16.82,18.46c.33-.08,7.87-4.22,7.87-4.22S20.81,17,22.52,17.16c.48,0,4.93-.92,6.65-2.31,0,0-1.21,2.53-2.76,2.66,0,0,5.85,2,8.87-2.15,0,0-1.37,2.27,2.63,5.53,3.11,2.52.06,6.46.06,6.46l3.45-9.12-3-5.06L28.88,10l-8.52.42-4.5,5.82L10.69,22Z"/><path class="cls-1" d="M37.37,29c.42-1.31,1.26-5.33.81-6.63-.9-2.63-2.59-3.41-3.48-4.46-.56-.68.11-3-.35-3.71s-.1.94,0,0c-.72,1.29-.73,2.25-2.15,2.66a10.52,10.52,0,0,1-4.11.25,6.21,6.21,0,0,0,2.06-1.78,11.68,11.68,0,0,0,1-2.85,16,16,0,0,1-8.88,4.17,7.44,7.44,0,0,0,3.09-3.8,2.41,2.41,0,0,0-1.31.54,47.18,47.18,0,0,1-7.17,4.2c.06-.4-.08-.78,0-1.18-1.53,2.43-6.56,6.46-6.49,6.31,0,0-3.9,12.45,4,18.5,0,0-3-.19-7.33-2.91C2.49,35.43.66,29.8,5.1,22.33s3-11.21,6.45-15.53C15.63,1.67,26.68-3.34,39.22,9.24c0,0,6.38,4.22.33,16.78A32.82,32.82,0,0,1,37.37,29Z"/><path class="cls-6" d="M33.33,22.06s2.58,0,3.35,2.08a.09.09,0,0,0,.17,0,2.14,2.14,0,0,0-1.39-2.4C33.16,20.72,33.33,22.06,33.33,22.06Z"/><path class="cls-6" d="M24,19.51s-2.65-1.11-4.4.41c-.07.06-.19,0-.16-.09a2.28,2.28,0,0,1,2.53-1.55C24.76,18.38,24,19.51,24,19.51Z"/><path class="cls-7" d="M28.5,28.26a2.55,2.55,0,0,0-.48,1.8,2.86,2.86,0,0,0,.28.87,2.17,2.17,0,0,1,.35,1A1.26,1.26,0,0,1,28.17,33a1.63,1.63,0,0,1-1.09.33,2.84,2.84,0,0,1-1.86-.92l0,0a1.18,1.18,0,0,1-.52-.47.43.43,0,0,1,0-.35.61.61,0,0,1,.19-.28.47.47,0,0,0,0,.56,1.07,1.07,0,0,0,.49.29h0l0,0a2.77,2.77,0,0,0,1.69.65A1,1,0,0,0,28.17,32a2.09,2.09,0,0,0-.27-.85,2.81,2.81,0,0,1-.23-1A2.3,2.3,0,0,1,28.5,28.26Z"/><path class="cls-8" d="M40.73,10.74A17,17,0,0,0,35,7.5c-10-3.31-21.23,3.26-25,14.66l-.21.66c-.33-.19-.67-.37-1-.54.09-.32.19-.65.29-1,3.76-11.4,15-18,25-14.66A17.17,17.17,0,0,1,40.73,10.74Z"/><path class="cls-9" d="M10.33,23.21s.07.08,0,.07-.09-.07-.1-.13a3.85,3.85,0,0,0-1-1.75A1.89,1.89,0,0,0,8,20.74,1.64,1.64,0,0,0,6.56,22,4.92,4.92,0,0,0,6.45,25a5.21,5.21,0,0,0,4.06,3.76"/><path class="cls-10" d="M10.33,23.21s.07.05,0,.08a.1.1,0,0,1-.11-.06,1.89,1.89,0,0,1-.09-.21A2.65,2.65,0,0,0,10,22.6a4.26,4.26,0,0,0-.5-.75,2.23,2.23,0,0,0-1.4-.91,1.28,1.28,0,0,0-1.2.87,4.16,4.16,0,0,0-.37,1.68,5.36,5.36,0,0,0,4,5.28,4.48,4.48,0,0,1-1.78-.53A5.85,5.85,0,0,1,7.27,27,5.28,5.28,0,0,1,6,23.48a4.56,4.56,0,0,1,.45-1.88,2.14,2.14,0,0,1,.65-.79,1.37,1.37,0,0,1,1-.25A2.48,2.48,0,0,1,9.67,21.7a4.17,4.17,0,0,1,.43.84,3.88,3.88,0,0,1,.14.45,1.57,1.57,0,0,0,0,.23s0,.06.07.05S10.37,23.18,10.33,23.21Z"/><path class="cls-4" d="M8.46,23.26a6.65,6.65,0,0,1,.43.73c.09.2.16.47,0,.61s-.39.06-.52.19,0,.38.1.5.34.17.5.28a.79.79,0,0,1,.3.7.46.46,0,0,1-.1.26.51.51,0,0,1-.65.07,1.39,1.39,0,0,1-.46-.53,4.94,4.94,0,0,1-.66-1.44C7.19,23.84,7.41,21.73,8.46,23.26Z"/><path class="cls-5" d="M9.75,27.51s.86,2.52-.6,2.76-.7-2.37-.7-2.37.1,2.29.7,1Z"/><path class="cls-8" d="M14.38,9.19s-7.29,0-5.16,3.75,6.13,5.37,7.12-1.7c.61-4.44,1.57-1,1.57-1S27.13,8.76,21.27,4c-5.42-4.41-4.84,3.8-4.84,3.8S14.69,6.34,14.38,9.19Z"/><ellipse class="cls-11" cx="18.81" cy="3.52" rx="0.56" ry="0.65" transform="translate(9.42 20.2) rotate(-71.22)"/><ellipse class="cls-11" cx="11.1" cy="10.6" rx="0.56" ry="0.65" transform="translate(-2.51 17.7) rotate(-71.22)"/><ellipse class="cls-11" cx="9.9" cy="12.21" rx="0.56" ry="0.65" transform="translate(-4.85 17.65) rotate(-71.22)"/><ellipse class="cls-11" cx="12.77" cy="12.1" rx="0.56" ry="0.65" transform="translate(-2.8 20.3) rotate(-71.22)"/><ellipse class="cls-11" cx="14.9" cy="11.73" rx="0.56" ry="0.65" transform="translate(-1 22.05) rotate(-71.22)"/><ellipse class="cls-11" cx="14.1" cy="14.2" rx="0.56" ry="0.65" transform="translate(-3.88 22.98) rotate(-71.22)"/><ellipse class="cls-11" cx="11.69" cy="14.04" rx="0.56" ry="0.65" transform="translate(-5.36 20.59) rotate(-71.22)"/><ellipse class="cls-11" cx="13.36" cy="10.26" rx="0.56" ry="0.65" transform="translate(-0.65 19.6) rotate(-71.22)"/><ellipse class="cls-11" cx="17.27" cy="5.44" rx="0.56" ry="0.65" transform="translate(6.57 20.04) rotate(-71.22)"/><ellipse class="cls-11" cx="21.67" cy="6.61" rx="0.56" ry="0.65" transform="translate(8.43 24.99) rotate(-71.22)"/><ellipse class="cls-11" cx="21.09" cy="4.52" rx="0.56" ry="0.65" transform="translate(10.02 23.03) rotate(-71.22)"/><ellipse class="cls-11" cx="19.35" cy="5.83" rx="0.56" ry="0.65" transform="matrix(0.32, -0.95, 0.95, 0.32, 7.61, 22.27)"/><ellipse class="cls-11" cx="17.89" cy="7.2" rx="0.56" ry="0.65" transform="translate(5.31 21.83) rotate(-71.22)"/><ellipse class="cls-11" cx="19.95" cy="8.05" rx="0.56" ry="0.65" transform="matrix(0.32, -0.95, 0.95, 0.32, 5.9, 24.35)"/><ellipse class="cls-11" cx="18.39" cy="8.82" rx="0.56" ry="0.65" transform="translate(4.12 23.4) rotate(-71.22)"/><ellipse class="cls-8" cx="16.2" cy="9.45" rx="1.51" ry="2.02" transform="translate(-2.3 12.54) rotate(-39.73)"/></svg>