<svg id="Layer_1" data-name="Layer 1" xmlns="http://www.w3.org/2000/svg" viewBox="0 0 11.96 5.96"><defs><style>.cls-1{fill:#f5968e;}.cls-2{fill:#f48678;}.cls-3{fill:#765a47;}.cls-4{fill:#e9a597;opacity:0.5;}</style></defs><g id="neutral"><path class="cls-1" d="M10.8,2A9.45,9.45,0,0,1,6.5,3.8a9.38,9.38,0,0,1-4.58-1,17.76,17.76,0,0,0,4.46.35A31.51,31.51,0,0,0,10.8,2Z"/><path class="cls-2" d="M10.9,2A35.43,35.43,0,0,1,6.22,3,25,25,0,0,1,1.81,2.8a9.75,9.75,0,0,0,4.45.63A11.56,11.56,0,0,0,10.9,2Z"/><path class="cls-3" d="M1.73,2.77a14.24,14.24,0,0,0,4.74.64A11,11,0,0,0,10.88,2,12.25,12.25,0,0,1,6.47,3.41,12.83,12.83,0,0,1,1.73,2.77Z"/><path class="cls-4" d="M1.67,2.5c.08-.25-.15-.17-.2,0a1,1,0,0,0,.18.55A4.36,4.36,0,0,1,1.67,2.5Z"/><path class="cls-4" d="M11,1.65c-.16-.21.08-.21.2,0s0,.53,0,.53C11.06,1.75,11,1.72,11,1.65Z"/></g></svg>