<svg id="Layer_1" data-name="Layer 1" xmlns="http://www.w3.org/2000/svg" xmlns:xlink="http://www.w3.org/1999/xlink" viewBox="0 0 115.84 25.12"><defs><style>.cls-1{fill:none;}.cls-2{clip-path:url(#clip-path);}.cls-3{fill:#eb652f;}.cls-4{fill:#f6a42c;}.cls-5{fill:#fff18b;}.cls-6{fill:#281b17;}.cls-7{fill:#473a3a;}.cls-8{fill:#5e5454;}</style><clipPath id="clip-path"><path class="cls-1" d="M45.35,1.19S63.42,1.07,67,1.43c0,0,6.44,7.5,1.56,13.65s-12,10.57-17.8,8S39.53,8.72,45.35,1.19Z"/></clipPath></defs><g class="cls-2"><path class="cls-3" d="M54.94-7.67a3.15,3.15,0,0,1,.93,2.14c0,1-3.06,2.82-3.06,5.19s1.53,2.67,1.53,5.07a1.69,1.69,0,0,1-1.53,1.74c-.62,0-1.32-.39-1.32-1.92a2.83,2.83,0,0,1,1.32-2.3,4.07,4.07,0,0,0-2.91,4c0,2.67,3.72,2.79,3.72,5,0,1.28-.62,1.86-1.62,1.86s-1.28-1-1.28-1.62.89-1.63.89-1.63c-.7.31-2.48.66-2.48,2.9s2.63,4.54,7.36,4.54,7.59-3.84,7.59-6.28A3.49,3.49,0,0,0,61.6,7.87a3.49,3.49,0,0,1,.89,2.2,1.68,1.68,0,0,1-1.66,1.75c-1,0-1.56-.85-1.56-2.13,0-2.47,3.42-3.2,3.42-6.18A3.88,3.88,0,0,0,61,.24a5,5,0,0,1,.42,2.08c0,.73-.65,1.83-1.58,1.83s-1.29-.61-1-1.59c.19-.78.59-.93.92-1.61a3.09,3.09,0,0,0,.16-2.43,4.51,4.51,0,0,0-2.24-2h0A3.16,3.16,0,0,1,58.77-1,1.37,1.37,0,0,1,57.26.39c-.54,0-1.39-.23-1.39-1.55,0-.88.52-1.11.85-2.12a4.06,4.06,0,0,0,.13-2.08A3.93,3.93,0,0,0,54.94-7.67Z"/><path class="cls-4" d="M57.75,17.22s3.81-1.77,4.21-4.88c-1.1.84-4.25,2.15-4.21-1.54,0-3.3,2.46-3.36,2.38-5.32a2.25,2.25,0,0,1-1.91,1.33c0-1.13-2.24-3.13-2.24-4a2.25,2.25,0,0,1,.34-1.31,1.83,1.83,0,0,0-.93,1.66c0,.78,1.54,2.93.35,4.13a2.5,2.5,0,0,1-3.48.2c.37.84,1.52,1.41,2.33,2.49a3,3,0,0,1-1.3,4.37A1.94,1.94,0,0,1,51,13.73a5.33,5.33,0,0,0,4.79,3.57Z"/><path class="cls-5" d="M57.07,17.3s2.38-1.15,2.56-3A2.36,2.36,0,0,1,56.7,12,5,5,0,0,1,57,9.16,5.21,5.21,0,0,0,56.1,12a4.21,4.21,0,0,1-.56,3,1.84,1.84,0,0,1-2,.43,3.76,3.76,0,0,0,2.71,1.88Z"/></g><path class="cls-6" d="M79.24,24c-1.41-.92-12.79-7.42-13.11-7.6a2.67,2.67,0,0,1,.55-.2l.63-.7c.27.07,12.79,7.47,14.16,8.36Z"/><path class="cls-6" d="M34.18,23.91l-2.12-.12c1.08-.74,13.12-8.68,13.41-8.75l2.11.36-.53.1C46.76,15.69,35.34,23.12,34.18,23.91Z"/><path class="cls-7" d="M43,9.86v5.75H69.41V9.41a18.53,18.53,0,0,0-5.78-1,97.72,97.72,0,0,0-17.33.3S43.77,8.88,43,9.86Z"/><ellipse class="cls-8" cx="56.19" cy="15.04" rx="13.22" ry="2.5"/><path class="cls-8" d="M68.72,12.54c.43,0,42.37-6.51,44.44-7"/><path class="cls-6" d="M68.72,13.18v-.64l0-.64c.29,0,41-6.27,43.29-6.85l2.8.62C113.34,6,69.55,13.18,68.72,13.18Z"/><path class="cls-6" d="M44.14,12.57c-.13,0-.56-.05-6.08-.81C26.8,10.22,4.62,5.34,1.08,5.29l3.46-.75C8.17,4.59,27,9,38.26,10.5c3.18.43,5.7.78,5.92.79Z"/></svg>