<svg id="Layer_1" data-name="Layer 1" xmlns="http://www.w3.org/2000/svg" viewBox="0 0 31.94 41.81"><defs><style>.cls-1{fill:#fbd3c7;}.cls-1,.cls-2{stroke:#323232;stroke-miterlimit:10;stroke-width:0.25px;}.cls-2{fill:none;}.cls-3{fill:#dc9e8f;}</style></defs><path class="cls-1" d="M30.93,6.87A8.06,8.06,0,0,1,29.5,8.6C27.83,13.24,21,21,19.09,22.67s-3,3.3-2.56,5.22c.86,3.59,1.23,3.6,1,4.85s1.35,2.35.41,2.75-2.55-1.21-2.72-2.94-.71-1.42-.71-1.42C9.59,36,7.75,41.94,6.9,40.83s.31-3.44.31-3.44-1.72-3.21-1.55-4.33,1.57-4.51,5.21-8.32S19.55,9.07,21.16,5.84a23.71,23.71,0,0,0,1-2.17c.69-1.75,1-3,1.1-2.81A12.42,12.42,0,0,0,30.93,6.87Z"/><path class="cls-2" d="M7.15,37.33A25.05,25.05,0,0,0,8.62,33"/><path class="cls-2" d="M6.67,36.21a11.32,11.32,0,0,1,.51-4.05"/><path class="cls-2" d="M6.05,34.82a12.16,12.16,0,0,1,.21-2.25"/><path class="cls-3" d="M30.7,7a6.56,6.56,0,0,1-1.28,1.55c-3.55-.34-5.69-3.72-7.09-5,.68-1.75.8-2.54.9-2.37A13,13,0,0,0,30.7,7Z"/></svg>