<svg id="Layer_1" data-name="Layer 1" xmlns="http://www.w3.org/2000/svg" viewBox="0 0 14 8"><defs><style>.cls-1{fill:#551514;}.cls-2{fill:#d72b5d;}.cls-3{fill:#fff;}.cls-4{fill:#bb7757;}</style></defs><g id="S"><path class="cls-1" d="M12.08,5.07A12.27,12.27,0,0,1,9.44,6.31a5.14,5.14,0,0,1-2.75-.07c-.31-.06-2-.75-2.42-.89C3.28,5,1.92,3,1.92,3a4.71,4.71,0,0,1,1-.5c.37-.11.75-.3,1.12-.45a5.81,5.81,0,0,1,2.11-.39,7.73,7.73,0,0,1,3.34.85c.24.1,1.31.86,1.63,1.07A4.74,4.74,0,0,1,12.08,5.07Z"/><path class="cls-2" d="M8.8,4.8c-.41-.36-1-.1-1.43-.19l-.78-.15A4.47,4.47,0,0,0,5,4.09a.66.66,0,0,0-.38,1.12,2.52,2.52,0,0,0,1.23.36A11.15,11.15,0,0,0,8,5.82c.23,0,.64.12.84-.09A.67.67,0,0,0,8.8,4.8Z"/><path class="cls-3" d="M9.23,2.3,7,1.68H4.63l-.58.21a3,3,0,0,0,.77.53,12.84,12.84,0,0,0,4.59.81,7.75,7.75,0,0,0,1.1-.2Z"/><path class="cls-3" d="M9.67,6.15s-.16-.66-.34-.77C8.74,5,7.92,5.28,6.77,5A12.13,12.13,0,0,0,4,4.45a1.68,1.68,0,0,0-.51.31l.69.5L6.6,6l1.94.2Z"/><path class="cls-4" d="M12.08,5.07a7.79,7.79,0,0,1-2.75.7,22.12,22.12,0,0,1-4.85-.9A17.36,17.36,0,0,1,1.92,3a2.06,2.06,0,0,0,.31.69A6.28,6.28,0,0,0,4,5.44a7.85,7.85,0,0,0,2.63.8,6,6,0,0,0,3.07.12,7.22,7.22,0,0,0,2.33-1.25A.23.23,0,0,1,12.08,5.07Z"/></g><path class="cls-4" d="M1.92,3a7.71,7.71,0,0,1,5.61-.75c3.59.66,4.55,2.86,4.55,2.86s-.32-2.53-4.49-3.39S1.92,3,1.92,3Z"/></svg>