<svg id="Layer_1" data-name="Layer 1" xmlns="http://www.w3.org/2000/svg" viewBox="0 0 20 10"><defs><style>.cls-1{fill:#551514;}.cls-2{fill:#d72b5d;}.cls-3{fill:#fff;}.cls-4{fill:#bb7757;}.cls-5{fill:#dc9e8f;}</style></defs><g id="S"><path class="cls-1" d="M17.06,1.5,13.71,3.25a12.63,12.63,0,0,1-3.6,1,17.22,17.22,0,0,1-3.4.4c-.4-.08-3.89-.55-3.89-.55S3.94,5.92,4.36,6.65A6,6,0,0,0,5.48,7.9,4.34,4.34,0,0,0,8.41,9.21a12.27,12.27,0,0,0,4.9-1A21.28,21.28,0,0,0,16,4.63C16.22,4.15,17.06,1.5,17.06,1.5Z"/><path class="cls-2" d="M13.52,5.47a4,4,0,0,0-2.08.09,23.3,23.3,0,0,0-2.72.75,4.36,4.36,0,0,0-.51.17l-.36.16c-.09,0-.22.36-.22.36-.26.49.24,1,.53,1.05a3.75,3.75,0,0,0,1.78-.18,18.63,18.63,0,0,0,3-.76c.3-.12.89-.17,1.07-.54A.78.78,0,0,0,13.52,5.47Z"/><path class="cls-3" d="M15.27,3l-5,1.43-5.11.53a5,5,0,0,0,.64.9,4.26,4.26,0,0,0,1.73.67A15.66,15.66,0,0,0,13.33,5.3a3.64,3.64,0,0,0,1.59-1.57C15,3.5,15.27,3,15.27,3Z"/><path class="cls-3" d="M14.91,6.66a3.27,3.27,0,0,0-.85-.5C13.22,6,12.2,7,10.73,7.24s-2.65,0-3.38.53a5.32,5.32,0,0,0-.71.8l1.18.71,3.21,0,2.43-1.39Z"/><path class="cls-4" d="M17.13,1.25a20,20,0,0,1-2.12,4,8,8,0,0,1-4.44,2.91,6.46,6.46,0,0,1-4.06-.64A14.7,14.7,0,0,1,2.63,3.79a2.13,2.13,0,0,0,0,.3A12.09,12.09,0,0,0,5.51,8a6.12,6.12,0,0,0,5.24,1.65A6.89,6.89,0,0,0,15.6,5.72a14.1,14.1,0,0,0,1.57-4.17S17.13,1.25,17.13,1.25Z"/><path class="cls-4" d="M17.11,1.06a12.63,12.63,0,0,1-3.21,2A23,23,0,0,1,6.84,4.45c-1.11,0-3.54-.21-4.21-.66a2.78,2.78,0,0,0,.19.27A9,9,0,0,0,6.26,5.24,17.79,17.79,0,0,0,10.52,5a19,19,0,0,0,4.11-1.4,7.11,7.11,0,0,0,2.5-2.31A2,2,0,0,0,17.11,1.06Z"/><path class="cls-5" d="M2.24,3.31c.22-.39-.15-.35-.31,0a2.06,2.06,0,0,0,0,1A9.39,9.39,0,0,1,2.24,3.31Z"/><path class="cls-5" d="M17.55.37c-.36-.17,0-.39.26-.21s.32.86.32.86C17.73.45,17.67.43,17.55.37Z"/></g></svg>