<svg id="Layer_1" data-name="Layer 1" xmlns="http://www.w3.org/2000/svg" viewBox="0 0 50.1 52.26"><defs><style>.cls-1,.cls-6{fill:#3d2d16;}.cls-1{stroke:#3d2d16;}.cls-1,.cls-3{stroke-miterlimit:10;stroke-width:0.25px;}.cls-2{fill:#fff;}.cls-3,.cls-9{fill:#fad2c6;}.cls-3{stroke:#323232;}.cls-4{fill:#dc9e8f;}.cls-5{fill:#e8d860;}.cls-7{fill:#a67d48;}.cls-8{fill:#ef4b3b;}.cls-10{fill:#323232;}.cls-11{fill:#f49990;}</style></defs><path class="cls-1" d="M10.17,45.52c2.84,7.3,10,6.65,21,1.73.1,0,1.1,2,1.2,2,9.74-4.45,16.37-6.15,12.94-19.56C43.35,22,32,19.49,22,23.37S7.31,38.16,10.17,45.52Z"/><path class="cls-1" d="M8.17,31.77C8,32.23,7.75,46.82,14,50.13a10.82,10.82,0,0,0,8.38.58Z"/><path class="cls-2" d="M21.07,45.27s-3.37.52-4.4,3.12C17.71,48.69,18.78,49.13,21.07,45.27Z"/><path class="cls-3" d="M8.55,35.17c0-.07.11,0,0,.06s-.11,0-.16-.06a4.17,4.17,0,0,0-1.91-1.09,1.67,1.67,0,0,0-1.45.18,2,2,0,0,0-.33,2.1,6.7,6.7,0,0,0,1.88,3.08c1.53,1.44,3.88,2.07,5.63,1.07"/><path class="cls-4" d="M7.1,36.42a5.72,5.72,0,0,1,.8.44c.21.13.44.36.39.61S8,37.77,8,38a.43.43,0,0,0,.4.42c.19,0,.38,0,.58,0a.91.91,0,0,1,.69.5.71.71,0,0,1,.08.31.5.5,0,0,1-.47.49,1.37,1.37,0,0,1-.71-.22,6.32,6.32,0,0,1-1.45-1C6.46,37.81,5.28,35.6,7.1,36.42Z"/><path class="cls-5" d="M10.85,39.77s2.31,1.92,1.3,3.1S10.07,41,10.07,41s1.55,2.18,1.16.48Z"/><path class="cls-3" d="M4.69,29.08c.22.22,3.55,8.86,4.92,13,1.59,4.84,8.23,9.62,14,8.6,7.14-1.24,13-5,15-11.17s-.19-13.66-.19-13.66,4.06-9-4-14.07S17.68,5.71,7.83,10.56,4.69,29.08,4.69,29.08Z"/><path class="cls-4" d="M31.23,21.6c-.39-.09-9.33-5.11-9.33-5.11s4.59,3.35,2.56,3.49c-.57,0-5.86-1.14-7.9-2.82,0,0,1.42,3,3.26,3.19,0,0-7,2.34-10.53-2.65,0,0,1.59,2.71-3.21,6.54-3.72,3-.15,7.7-.15,7.7l-4-10.89,3.66-6L17,11.42,27.1,12l5.29,7,6.09,6.83Z"/><path class="cls-1" d="M6.64,33.89c-.49-1.57-1.44-6.36-.9-7.91,1.11-3.12,3.13-4,4.2-5.27.68-.8-.09-3.52.47-4.41s.11,1.12,0,0c.84,1.54.84,2.69,2.52,3.19a12.62,12.62,0,0,0,4.9.35,7.31,7.31,0,0,1-2.44-2.14,14.68,14.68,0,0,1-1.2-3.41,19.08,19.08,0,0,0,10.54,5.06,8.73,8.73,0,0,1-3.64-4.55,2.93,2.93,0,0,1,1.55.65,54.47,54.47,0,0,0,8.49,5.08c-.06-.47.11-.92.05-1.4,1.79,2.92,7.73,7.78,7.66,7.6,0,0,3.56,15.12-5.91,22.23a25.18,25.18,0,0,0,9.7-3.63c5.46-3.36,7.71-10,2.51-19S41.68,13,37.64,7.78c-4.8-6.16-17.9-12.25-33,2.58,0,0-7.64,5-.58,20A39,39,0,0,0,6.64,33.89Z"/><path class="cls-6" d="M11.52,25.69s-3.06,0-4,2.44a.1.1,0,0,1-.19,0A2.53,2.53,0,0,1,9,25.27C11.75,24.1,11.52,25.69,11.52,25.69Z"/><path class="cls-6" d="M22.71,22.77s3.17-1.3,5.24.54c.09.07.22,0,.19-.1a2.72,2.72,0,0,0-3-1.89C21.77,21.41,22.71,22.77,22.71,22.77Z"/><path class="cls-7" d="M17.21,33.13a2.86,2.86,0,0,1,.93,2.19,3.35,3.35,0,0,1-.29,1.21,2.5,2.5,0,0,0-.34,1,1.19,1.19,0,0,0,1.32,1.15,3.32,3.32,0,0,0,2-.77l0,0h0a1.25,1.25,0,0,0,.59-.36.56.56,0,0,0,0-.67.75.75,0,0,1,.21.34.54.54,0,0,1-.05.41,1.33,1.33,0,0,1-.62.53l0,0a3.42,3.42,0,0,1-2.22,1.05,1.93,1.93,0,0,1-1.25-.4A1.45,1.45,0,0,1,17,37.54a2.6,2.6,0,0,1,.42-1.2,3.49,3.49,0,0,0,.34-1.05A3.06,3.06,0,0,0,17.21,33.13Z"/><path class="cls-8" d="M2.84,12.14a20.17,20.17,0,0,1,6.89-3.8c12-3.82,25.24,4.12,29.59,17.75l.24.79c.39-.23.8-.44,1.21-.64-.1-.38-.22-.77-.34-1.16C36.09,11.46,22.84,3.51,10.85,7.34A20.4,20.4,0,0,0,2.84,12.14Z"/><path class="cls-9" d="M38.9,27.33s-.09.09,0,.09.1-.09.12-.15a4.55,4.55,0,0,1,1.19-2.08,2.29,2.29,0,0,1,1.55-.78,2,2,0,0,1,1.66,1.46,5.91,5.91,0,0,1,.09,3.65A6.21,6.21,0,0,1,38.62,34"/><path class="cls-10" d="M38.9,27.33s-.06.07,0,.07.07,0,.09-.06a2,2,0,0,0,.06-.26,4.64,4.64,0,0,1,.7-1.52,3,3,0,0,1,1.84-1.33,1.57,1.57,0,0,1,1.18.32,2.55,2.55,0,0,1,.74.93A5.54,5.54,0,0,1,44,27.7a6.37,6.37,0,0,1-1.52,4.19,6.77,6.77,0,0,1-1.73,1.43,5.48,5.48,0,0,1-2.12.63,6.05,6.05,0,0,0,3.55-2.3,6.15,6.15,0,0,0,1.32-3.94,5.19,5.19,0,0,0-.42-2,1.58,1.58,0,0,0-1.47-1.07,2.74,2.74,0,0,0-1.69,1.1,4.48,4.48,0,0,0-.6.89c-.08.16-.15.33-.22.5a1.72,1.72,0,0,1-.1.26.11.11,0,0,1-.13.06S38.86,27.29,38.9,27.33Z"/><path class="cls-4" d="M41.13,27.41a6.45,6.45,0,0,0-.52.87c-.12.23-.2.56,0,.73s.46.06.62.22.05.46-.13.6-.41.2-.59.33a.94.94,0,0,0-.37.83.69.69,0,0,0,.12.31.61.61,0,0,0,.77.09,1.7,1.7,0,0,0,.56-.63,6.22,6.22,0,0,0,.8-1.71C42.63,28.12,42.39,25.61,41.13,27.41Z"/><path class="cls-5" d="M39.55,32.46s-1.06,3,.67,3.3.87-2.82.87-2.82-.15,2.73-.85,1.12Z"/><path class="cls-8" d="M34.24,10.6s8.68.05,6.1,4.51S33,21.44,31.89,13C31.2,7.71,30,11.77,30,11.77s-11-1.84-3.93-7.45c6.5-5.19,5.71,4.57,5.71,4.57S33.9,7.19,34.24,10.6Z"/><ellipse class="cls-11" cx="29.03" cy="3.79" rx="0.78" ry="0.67" transform="translate(0.27 9.27) rotate(-18.22)"/><ellipse class="cls-11" cx="38.13" cy="12.31" rx="0.78" ry="0.67" transform="translate(-1.94 12.54) rotate(-18.22)"/><ellipse class="cls-11" cx="39.54" cy="14.24" rx="0.78" ry="0.67" transform="translate(-2.47 13.08) rotate(-18.22)"/><ellipse class="cls-11" cx="36.13" cy="14.08" rx="0.78" ry="0.67" transform="translate(-2.59 12) rotate(-18.22)"/><ellipse class="cls-11" cx="33.6" cy="13.61" rx="0.78" ry="0.67" transform="translate(-2.57 11.19) rotate(-18.22)"/><ellipse class="cls-11" cx="34.51" cy="16.56" rx="0.78" ry="0.67" transform="translate(-3.45 11.62) rotate(-18.22)"/><ellipse class="cls-11" cx="37.38" cy="16.39" rx="0.78" ry="0.67" transform="translate(-3.25 12.51) rotate(-18.22)"/><ellipse class="cls-11" cx="35.44" cy="11.87" rx="0.78" ry="0.67" transform="matrix(0.95, -0.31, 0.31, 0.95, -1.94, 11.68)"/><ellipse class="cls-11" cx="30.84" cy="6.09" rx="0.78" ry="0.67" transform="translate(-0.36 9.95) rotate(-18.22)"/><ellipse class="cls-11" cx="25.6" cy="7.44" rx="0.78" ry="0.67" transform="translate(-1.04 8.38) rotate(-18.22)"/><ellipse class="cls-11" cx="26.31" cy="4.95" rx="0.78" ry="0.67" transform="matrix(0.95, -0.31, 0.31, 0.95, -0.23, 8.48)"/><ellipse class="cls-11" cx="28.36" cy="6.53" rx="0.78" ry="0.67" transform="translate(-0.62 9.2) rotate(-18.22)"/><ellipse class="cls-11" cx="30.08" cy="8.18" rx="0.78" ry="0.67" transform="translate(-1.05 9.82) rotate(-18.22)"/><ellipse class="cls-11" cx="27.62" cy="9.17" rx="0.78" ry="0.67" transform="translate(-1.48 9.1) rotate(-18.22)"/><ellipse class="cls-11" cx="29.47" cy="10.11" rx="0.78" ry="0.67" transform="translate(-1.68 9.72) rotate(-18.22)"/><ellipse class="cls-8" cx="32.08" cy="10.88" rx="2.4" ry="1.8" transform="translate(3.03 28.31) rotate(-49.71)"/></svg>