<svg id="Layer_1" data-name="Layer 1" xmlns="http://www.w3.org/2000/svg" viewBox="0 0 14.62 8.45"><defs><style>.cls-1{fill:#551514;}.cls-2{fill:#fff;}.cls-3{fill:#d72b5d;}.cls-4{fill:#bb7757;}.cls-5{fill:#dc9e8f;}</style></defs><g id="EE"><path class="cls-1" d="M13.8,4.1s-2.22-.23-2.67-.29c-.63-.1-1.29-.2-1.91-.36C8.15,3.18,7.06,2.94,6,2.67a9.84,9.84,0,0,1-1.53-.52A5.89,5.89,0,0,0,3.1,1.69a3.59,3.59,0,0,0-.87-.07L1.11,1A4.72,4.72,0,0,0,1.49,2.8c.14.34.44.89.58,1.23.49,1.23,1.83,1.75,3.25,2.3a9.44,9.44,0,0,0,2.52.53,5,5,0,0,0,1.68,0c.19-.06.27,0,.46-.08s.9-.15,1.14-.35.69-.37,1-.6A24.09,24.09,0,0,0,13.8,4.1Z"/><path class="cls-2" d="M11.48,4.17l-.91-.48C10.5,3.66,7.2,3,7.2,3S4,2,3.89,2L3,1.92a7.74,7.74,0,0,0,.42,1.22,10.26,10.26,0,0,0,3.5,1.27A9.5,9.5,0,0,0,10.52,5C10.87,4.89,11.48,4.17,11.48,4.17Z"/><path class="cls-3" d="M4,5.58A4.44,4.44,0,0,0,6.4,6.71a5.2,5.2,0,0,0,2.68,0c0-.38-1.09-1-1.77-1s-1.54-.42-2-.45S4.19,5.29,4,5.58Z"/><path class="cls-2" d="M10.92,6.4S9.69,6.42,9,6.35,6.67,6,6.67,6s-1.59-.41-2.1-.62S2.5,4.53,2.5,4.53L4.34,6.67l2,.66h0l.17,0v0l2.05.32Z"/><path class="cls-4" d="M13.8,4.1a9.85,9.85,0,0,1-2.88,2.3A6.67,6.67,0,0,1,6.55,7,8,8,0,0,1,2.24,4,7.93,7.93,0,0,1,1.11,1s.1,5.7,5.18,7C10.92,9.07,13.8,4.1,13.8,4.1Z"/><path class="cls-4" d="M7.25,2.88C4.86,2.32,1.11,1,1.11,1s.83,1.11,6.05,2.4c6,1.49,6.64.74,6.64.74S9.71,3.46,7.25,2.88Z"/><path class="cls-5" d="M1.13.64C1.4.45,1.11.35.89.54a1.31,1.31,0,0,0-.26.69A6.61,6.61,0,0,1,1.13.64Z"/><path class="cls-5" d="M13.7,3.76c-.24-.23.07-.27.25,0s0,.68,0,.68C13.81,3.87,13.78,3.84,13.7,3.76Z"/></g></svg>