<svg id="Layer_1" data-name="Layer 1" xmlns="http://www.w3.org/2000/svg" viewBox="0 0 117.99 113.88"><defs><style>.cls-1{fill:#342516;}.cls-2,.cls-4{fill:#fad2c6;}.cls-2{stroke:#323232;stroke-width:0.25px;}.cls-2,.cls-9{stroke-miterlimit:10;}.cls-3{fill:#3d2d16;}.cls-5{fill:#632323;}.cls-6{fill:#323232;}.cls-7{fill:#dc9e8f;}.cls-8{fill:#e8d860;}.cls-9{fill:none;stroke:#ef4b3b;stroke-width:2px;}.cls-10{fill:#ef4b3b;}.cls-11{fill:#f49990;}</style></defs><path class="cls-1" d="M28.41,31.6C28,33,14.2,45.89,18.84,65.88S8.57,97.42,27.77,104.64c17.64,6.64,31.53,3.12,31.53,3.12l2.44-6.23,18.82-4.31-1.22,10.56S95.25,106.22,106,101a19.69,19.69,0,0,0,6.71-5.15c9.56-11.66-.89-17.09-.09-42.38S62.92-10.93,25.42,30.57Z"/><path class="cls-2" d="M104.17,39.91c.4,8.07.67,29.5-1.23,39.1-4.25,21.6-28.6,27.66-33.21,27.65-7.41,0-23.76-2.3-32-13.88s-9.35-32.46-9.35-32.46-6.69-20.78,7-36.9S64.34,5.83,81.38,10.11C102.19,15.33,104.17,39.91,104.17,39.91Z"/><path class="cls-3" d="M52.78,46.38S45.26,45.76,42.13,51c-.12.21-.46.15-.46-.08,0-1.51.52-4.66,5-6C53.86,42.9,52.78,46.38,52.78,46.38Z"/><path class="cls-3" d="M81.76,46.68s7.53-1.29,11.17,3.64c.15.2.49.1.47-.13-.13-1.5-1-4.59-5.66-5.48C80.35,43.32,81.76,46.68,81.76,46.68Z"/><path class="cls-4" d="M62.22,76.09c2.48,3.25,7.09,3.71,9.35.1"/><path class="cls-5" d="M62.22,76.09A8,8,0,0,0,67,78.21a5.19,5.19,0,0,0,2.45-.45,7.44,7.44,0,0,0,2.17-1.57,4.57,4.57,0,0,1-1.79,2.25,4.78,4.78,0,0,1-2.88.77A5.59,5.59,0,0,1,62.22,76.09Z"/><path class="cls-1" d="M78.69,29.43s-2.92,7.84-15,12.2c0,0,4.9-4.31,2.57-10.61,0,0-1,13.66-17.24,13.43l4.86-10.21L40.7,48.89l1.5-11.16s-17.46,34-22.59,34.38c0,0-10.78-38,18.08-60.76s60.87,1.5,60.87,1.5,23.65,21.63,11.5,54.06c0,0-7.84,1.87-8.91.24-1-1.47.24-5.92-3.94-17.52C92,35.08,78.69,29.43,78.69,29.43Z"/><path class="cls-4" d="M30,64.23c.08-.12.22.17.06.19s-.26-.16-.31-.3a10.13,10.13,0,0,0-3.21-4.2,5,5,0,0,0-3.59-1.25c-1.83.26-2.83,2-3.2,3.66a13.11,13.11,0,0,0,.82,8c1.92,4.47,6.68,8.26,11.92,8.27"/><path class="cls-6" d="M30,64.23c.08-.1.21.11.11.19a.25.25,0,0,1-.3-.1,5.77,5.77,0,0,1-.29-.54,8.2,8.2,0,0,0-.61-1A10.28,10.28,0,0,0,27.34,61a6,6,0,0,0-4-1.93,3.49,3.49,0,0,0-2.94,2.77A11.37,11.37,0,0,0,20,66.38a13.87,13.87,0,0,0,4,8.25,13.46,13.46,0,0,0,8.43,4,12,12,0,0,1-4.79-.8,14.88,14.88,0,0,1-4.17-2.62,14.24,14.24,0,0,1-3-3.93A13.91,13.91,0,0,1,19,66.49a12.07,12.07,0,0,1,.45-5,5.74,5.74,0,0,1,1.36-2.23,3.54,3.54,0,0,1,2.46-1,5,5,0,0,1,2.47.77,9.8,9.8,0,0,1,1.92,1.58,10.42,10.42,0,0,1,1.43,2,9.4,9.4,0,0,1,.53,1.11,4.48,4.48,0,0,0,.21.55c.05.08.14.15.22.12S30.08,64.14,30,64.23Z"/><path class="cls-7" d="M25.15,65a16.46,16.46,0,0,1,1.38,1.74c.32.49.61,1.18.2,1.6s-1,.28-1.28.67,0,1,.44,1.27.95.32,1.39.56a2,2,0,0,1,1,1.71,1.31,1.31,0,0,1-.16.7,1.36,1.36,0,0,1-1.66.41,3.67,3.67,0,0,1-1.4-1.2A13.65,13.65,0,0,1,22.87,69C22.07,67,21.87,61.46,25.15,65Z"/><path class="cls-8" d="M30,75.63s3.17,6.23-.53,7.39-2.7-5.91-2.7-5.91S27.91,83,29,79.32Z"/><path class="cls-4" d="M103.19,62c-.07-.12-.22.17-.06.18s.26-.15.32-.29a10.07,10.07,0,0,1,3.22-4.19,5,5,0,0,1,3.6-1.23c1.83.26,2.82,2,3.19,3.67a13.09,13.09,0,0,1-.87,8c-1.93,4.47-6.7,8.23-12,8.23"/><path class="cls-6" d="M103.19,62c-.09-.09-.15.13-.09.16a.22.22,0,0,0,.22-.12,4.5,4.5,0,0,0,.22-.55,9.4,9.4,0,0,1,.53-1.11,10.28,10.28,0,0,1,1.44-2,9.21,9.21,0,0,1,1.93-1.57,4.82,4.82,0,0,1,2.46-.76,3.47,3.47,0,0,1,2.46,1,5.6,5.6,0,0,1,1.35,2.23,12.13,12.13,0,0,1,.44,5,14.18,14.18,0,0,1-1.47,4.76A14.41,14.41,0,0,1,109.62,73a14.9,14.9,0,0,1-4.18,2.61,11.82,11.82,0,0,1-4.8.78,13.47,13.47,0,0,0,8.45-4,13.8,13.8,0,0,0,4.06-8.23,11.36,11.36,0,0,0-.33-4.58,3.52,3.52,0,0,0-2.94-2.79,6,6,0,0,0-4,1.92,9.87,9.87,0,0,0-1.57,1.78,8.2,8.2,0,0,0-.61,1c-.11.17-.17.36-.3.54a.25.25,0,0,1-.3.1C103,62.15,103.11,61.94,103.19,62Z"/><path class="cls-7" d="M108,62.87a14.44,14.44,0,0,0-1.38,1.74c-.33.48-.62,1.17-.22,1.59s1,.29,1.29.68,0,1-.45,1.26-1,.32-1.4.56a2,2,0,0,0-1,1.7,1.33,1.33,0,0,0,.16.71,1.37,1.37,0,0,0,1.66.42,3.67,3.67,0,0,0,1.4-1.2,13.94,13.94,0,0,0,2.25-3.5C111.1,64.86,111.32,59.3,108,62.87Z"/><path class="cls-8" d="M103.09,73.44s-3.19,6.22.51,7.39,2.72-5.9,2.72-5.9-1.12,5.91-2.17,2.21Z"/><path class="cls-9" d="M25.37,59.08s-4.95-25.32,15-43.28S88.47,8,97.93,22.14c12.92,19.27,7.18,37.45,7.18,37.45"/><path class="cls-10" d="M35,18.57s0-22.36,8-13.93S53,22.86,37.19,23.09c-2.76,0-4.09.79-4.94,3.37-1.93,5.85-5.05,27.88-17.56,3.09-8.39-16.62,16-5.39,16-5.39S27.5,17,35,18.57Z"/><ellipse class="cls-11" cx="17.15" cy="25.11" rx="1.49" ry="1.73" transform="translate(-2.48 1.88) rotate(-5.87)"/><ellipse class="cls-11" cx="27.86" cy="31.66" rx="1.49" ry="1.73" transform="translate(-3.09 3.01) rotate(-5.87)"/><ellipse class="cls-11" cx="41.32" cy="13.37" rx="1.49" ry="1.73" transform="translate(-1.15 4.29) rotate(-5.87)"/><ellipse class="cls-11" cx="45.7" cy="15" rx="1.49" ry="1.73" transform="translate(-1.29 4.75) rotate(-5.87)"/><ellipse class="cls-11" cx="44.72" cy="9.81" rx="1.49" ry="1.73" transform="translate(-0.77 4.62) rotate(-5.87)"/><ellipse class="cls-11" cx="41.96" cy="6.43" rx="1.49" ry="1.73" transform="translate(-0.44 4.32) rotate(-5.87)"/><ellipse class="cls-11" cx="43.34" cy="19.9" rx="1.49" ry="1.73" transform="translate(-1.81 4.53) rotate(-5.87)"/><ellipse class="cls-11" cx="38.55" cy="6.42" rx="1.49" ry="1.73" transform="translate(-0.45 3.97) rotate(-5.87)"/><ellipse class="cls-11" cx="37.21" cy="13.36" rx="1.49" ry="1.73" transform="translate(-1.17 3.87) rotate(-5.87)"/><ellipse class="cls-11" cx="39.62" cy="19.19" rx="1.49" ry="1.73" transform="translate(-1.75 4.15) rotate(-5.87)"/><ellipse class="cls-11" cx="22.17" cy="23.39" rx="1.49" ry="1.73" transform="translate(-2.27 2.39) rotate(-5.87)"/><ellipse class="cls-11" cx="22.15" cy="34.8" rx="1.49" ry="1.73" transform="translate(-3.44 2.45) rotate(-5.87)"/><ellipse class="cls-11" cx="17.98" cy="31.64" rx="1.49" ry="1.73" transform="translate(-3.14 2) rotate(-5.87)"/><ellipse class="cls-11" cx="22.76" cy="29.09" rx="1.49" ry="1.73" transform="translate(-2.85 2.48) rotate(-5.87)"/><ellipse class="cls-11" cx="25.74" cy="37.99" rx="1.49" ry="1.73" transform="matrix(0.99, -0.1, 0.1, 0.99, -3.75, 2.83)"/><ellipse class="cls-11" cx="27.26" cy="25.79" rx="1.49" ry="1.73" transform="translate(-2.49 2.92) rotate(-5.87)"/></svg>