<svg id="Layer_1" data-name="Layer 1" xmlns="http://www.w3.org/2000/svg" viewBox="0 0 25.83 32.47"><defs><style>.cls-1{fill:#fbd3c7;}.cls-1,.cls-2{stroke:#323232;stroke-miterlimit:10;stroke-width:0.25px;}.cls-2{fill:none;}.cls-3{fill:#dc9e8f;}</style></defs><path class="cls-1" d="M25,5.43a5.8,5.8,0,0,1-.91,1.11,2.66,2.66,0,0,1-.71.51c-1.8,3.53-8.07,9-9.72,10.15s-2.74,2.33-2.57,3.9c.32,2.95.61,3,.28,4s.84,2,0,2.22-1.91-1.22-1.87-2.62-.41-1.2-.41-1.2c-4.38,3.35-6.46,7.93-7,7s.6-2.71.6-2.71-1.05-2.73-.8-3.6,1.71-3.44,5-6.1S15.38,6.42,17,4a17,17,0,0,0,1-1.63c.72-1.32.76-1.82.83-1.67C20.56,4.31,25,5.43,25,5.43Z"/><path class="cls-2" d="M2.63,27.66a19.33,19.33,0,0,0,1.62-3.33"/><path class="cls-2" d="M2.36,26.73a9.22,9.22,0,0,1,.82-3.18"/><path class="cls-2" d="M2,25.56a9.85,9.85,0,0,1,.4-1.77"/><path class="cls-3" d="M24.78,5.52a7.37,7.37,0,0,1-1,1.19C21,6.08,19.05,3.64,18.07,2.48c.72-1.32.66-1.67.73-1.52C20.35,4.26,24.78,5.52,24.78,5.52Z"/></svg>