<svg id="Layer_1" data-name="Layer 1" xmlns="http://www.w3.org/2000/svg" viewBox="0 0 23.65 29.97"><defs><style>.cls-1{fill:#fbd3c7;}.cls-1,.cls-2{stroke:#323232;stroke-miterlimit:10;stroke-width:0.25px;}.cls-2{fill:none;}.cls-3{fill:#dc9e8f;}</style></defs><path class="cls-1" d="M1,5.17A7.5,7.5,0,0,0,2,6.29a2.29,2.29,0,0,0,.65.43c1.77,3.08,7.62,7.74,9.14,8.66s2.56,2,2.47,3.37c-.15,2.65-.41,2.71-.07,3.56s-.66,1.83.06,2,1.65-1.18,1.56-2.43.31-1.09.31-1.09c4.07,2.8,6.13,6.81,6.59,5.92s-.65-2.4-.65-2.4.81-2.49.55-3.26-1.68-3-4.74-5.24S9.75,5.81,8.2,3.72c-.42-.56-.73-1-1-1.41C6.54,1.16,6.56.8,6.49.93A8.42,8.42,0,0,1,1,5.17Z"/><path class="cls-2" d="M22.08,24.26a17.93,17.93,0,0,1-1.59-2.92"/><path class="cls-2" d="M22.28,23.41a8.14,8.14,0,0,0-.87-2.81"/><path class="cls-2" d="M22.55,22.34a9.53,9.53,0,0,0-.44-1.56"/><path class="cls-3" d="M1.14,5.24a4.87,4.87,0,0,0,1.1,1A9.58,9.58,0,0,0,7.09,2.46C6.39,1.32,6.55,1,6.48,1.15A8.35,8.35,0,0,1,1.14,5.24Z"/></svg>