<svg id="Layer_1" data-name="Layer 1" xmlns="http://www.w3.org/2000/svg" viewBox="0 0 21 13"><defs><style>.cls-1{fill:#f6fbfd;stroke:#323232;stroke-miterlimit:10;stroke-width:0.25px;}.cls-2{fill:#ce9685;}.cls-3{fill:#451f16;}.cls-4{fill:#fff;}</style></defs><path class="cls-1" d="M1,3.11A3.89,3.89,0,0,0,3,8,3.43,3.43,0,0,0,7.73,6.25a3.89,3.89,0,0,0-2-4.89A3.43,3.43,0,0,0,1,3.11Z"/><path class="cls-2" d="M1,6A4.12,4.12,0,0,1,1,2.88,3.4,3.4,0,0,1,5.69,1.36,4.7,4.7,0,0,1,8.05,4.27,4.27,4.27,0,0,0,5.14.62,3.41,3.41,0,0,0,1.06,2C.37,3.34.1,5.21,1,6Z"/><path class="cls-3" d="M3.9,7.5a1.56,1.56,0,0,0,2.43.11,2.29,2.29,0,0,0,.72-2.75,1.58,1.58,0,0,0-2.44-.12A2.28,2.28,0,0,0,3.9,7.5Z"/><path class="cls-4" d="M4.65,4.26a.67.67,0,0,0,.08.91.6.6,0,0,0,.87-.11.69.69,0,0,0-.09-.92A.59.59,0,0,0,4.65,4.26Z"/><path class="cls-1" d="M20.27,9.71a3.56,3.56,0,0,1-4,2.8A3.14,3.14,0,0,1,13.73,8.7a3.55,3.55,0,0,1,4-2.8A3.14,3.14,0,0,1,20.27,9.71Z"/><path class="cls-2" d="M18.22,12.19a3.6,3.6,0,0,0,1.92-2.5A3.2,3.2,0,0,0,17.51,5.9c-.91-.15-1.62.1-3.08,1.31A3.5,3.5,0,0,1,18.32,5.7a3.2,3.2,0,0,1,2.24,3.43A3.64,3.64,0,0,1,18.22,12.19Z"/><path class="cls-3" d="M19.15,9.49a1.46,1.46,0,0,0-2.21-.36,2,2,0,0,0-.93,2.4,1.45,1.45,0,0,0,2.21.36A2.05,2.05,0,0,0,19.15,9.49Z"/><path class="cls-4" d="M16.74,8.81a.69.69,0,0,0,1.08.86.68.68,0,0,0-.13-.95A.67.67,0,0,0,16.74,8.81Z"/></svg>