<svg id="Layer_1" data-name="Layer 1" xmlns="http://www.w3.org/2000/svg" xmlns:xlink="http://www.w3.org/1999/xlink" viewBox="0 0 110 23"><defs><style>.cls-1{fill:none;}.cls-2{clip-path:url(#clip-path);}.cls-3{fill:#eb652f;}.cls-4{fill:#f6a42c;}.cls-5{fill:#fff18b;}.cls-6{fill:#281b17;}.cls-7{fill:#473a3a;}.cls-8{fill:#5e5454;}</style><clipPath id="clip-path"><path class="cls-1" d="M43.06.63S60.46.51,63.94.86c0,0,6.2,7.22,1.5,13.14S53.87,24.17,48.3,21.65,37.46,7.88,43.06.63Z"/></clipPath></defs><g class="cls-2"><path class="cls-3" d="M52.29-7.9a3,3,0,0,1,.9,2.05c0,1-2.95,2.73-2.95,5S51.71,1.72,51.71,4a1.62,1.62,0,0,1-1.47,1.68c-.6,0-1.27-.37-1.27-1.84a2.73,2.73,0,0,1,1.27-2.22,3.92,3.92,0,0,0-2.8,3.84c0,2.57,3.58,2.68,3.58,4.85,0,1.23-.59,1.79-1.56,1.79s-1.23-1-1.23-1.57S49.08,9,49.08,9c-.67.3-2.38.64-2.38,2.8s2.53,4.36,7.08,4.36,7.31-3.69,7.31-6A3.37,3.37,0,0,0,58.7,7.05a3.4,3.4,0,0,1,.86,2.13A1.62,1.62,0,0,1,58,10.86c-.92,0-1.5-.82-1.5-2,0-2.37,3.29-3.08,3.29-6A3.75,3.75,0,0,0,58.14-.29a4.81,4.81,0,0,1,.41,2c0,.71-.63,1.77-1.52,1.77S55.79,2.89,56,2c.18-.75.56-.89.89-1.56a3,3,0,0,0,.15-2.34A4.43,4.43,0,0,0,54.9-3.83h0A3,3,0,0,1,56-1.52,1.32,1.32,0,0,1,54.53-.14c-.52,0-1.34-.22-1.34-1.49,0-.85.5-1.08.82-2a4,4,0,0,0,.12-2A3.72,3.72,0,0,0,52.29-7.9Z"/><path class="cls-4" d="M55,16.06s3.66-1.71,4-4.7C58,12.17,55,13.43,55,9.88c0-3.18,2.36-3.24,2.29-5.12A2.16,2.16,0,0,1,55.45,6c0-1.09-2.16-3-2.16-3.85A2.14,2.14,0,0,1,53.62.93a1.75,1.75,0,0,0-.89,1.59c0,.76,1.48,2.83.33,4a2.42,2.42,0,0,1-3.35.19c.36.81,1.46,1.36,2.25,2.4a2.93,2.93,0,0,1-1.25,4.21,1.88,1.88,0,0,1-2.26-.6,5.12,5.12,0,0,0,4.61,3.43Z"/><path class="cls-5" d="M54.34,16.13s2.29-1.1,2.46-2.92A2.27,2.27,0,0,1,54,11.06a4.76,4.76,0,0,1,.3-2.76,4.93,4.93,0,0,0-.88,2.76,4,4,0,0,1-.54,2.87,1.74,1.74,0,0,1-1.88.41,3.57,3.57,0,0,0,2.61,1.81Z"/></g><path class="cls-6" d="M75.93,22c-1.36-.89-12.56-6.56-12.87-6.73A3.71,3.71,0,0,1,63.6,15l.6-.67c.26.07,12.56,6.59,13.87,7.45Z"/><path class="cls-6" d="M32.46,22l-2-.12c1-.71,12.47-7.88,12.76-7.95l2,.35c.09,0-.51.09-.51.09C44.42,14.59,33.58,21.27,32.46,22Z"/><path class="cls-7" d="M40.77,9v5.54H66.22v-6a17.89,17.89,0,0,0-5.56-.94A94.2,94.2,0,0,0,44,7.89S41.53,8,40.77,9Z"/><ellipse class="cls-8" cx="53.5" cy="13.96" rx="12.72" ry="2.4"/><path class="cls-8" d="M65.56,11.56c.41,0,40.49-5.92,42.48-6.43"/><path class="cls-6" d="M65.56,12.17v-.61l0-.62c.28,0,39.16-5.68,41.38-6.24l2.7.6C108.22,5.65,66.35,12.17,65.56,12.17Z"/><path class="cls-6" d="M41.89,11.58c-.12,0-.53-.05-5.84-.78C25.21,9.32,3.82,4.74.41,4.7L3.74,4C7.24,4,25.37,8.1,36.23,9.59c3.07.42,5.49.75,5.7.76Z"/></svg>