<svg id="Layer_1" data-name="Layer 1" xmlns="http://www.w3.org/2000/svg" viewBox="0 0 12.76 7.1"><defs><style>.cls-1{fill:#f5968e;}.cls-2{fill:#f48678;}.cls-3{fill:#765a47;}.cls-4{fill:#e9a597;opacity:0.5;}</style></defs><g id="neutral"><path class="cls-1" d="M11.1,4.34a10,10,0,0,1-5,.46A10.12,10.12,0,0,1,1.69,2.34,20.06,20.06,0,0,0,6.18,4.12,32.54,32.54,0,0,0,11.1,4.34Z"/><path class="cls-2" d="M11.22,4.3a36.64,36.64,0,0,1-5.15-.4A27.32,27.32,0,0,1,1.59,2.27,10.55,10.55,0,0,0,6,4.34,12.49,12.49,0,0,0,11.22,4.3Z"/><path class="cls-3" d="M1.52,2.22A15.3,15.3,0,0,0,6.19,4.38a11.79,11.79,0,0,0,5-.08,13.23,13.23,0,0,1-5,.08A13.88,13.88,0,0,1,1.52,2.22Z"/><path class="cls-4" d="M1.54,1.91c.16-.23-.1-.22-.22,0a1.12,1.12,0,0,0,0,.62S1.49,2,1.54,1.91Z"/><path class="cls-4" d="M11.41,4c-.1-.27.15-.19.21,0s-.22.54-.22.54C11.46,4.13,11.44,4.09,11.41,4Z"/></g></svg>