<svg id="Layer_1" data-name="Layer 1" xmlns="http://www.w3.org/2000/svg" viewBox="0 0 20 10"><defs><style>.cls-1{fill:#8c3e36;}.cls-2{fill:#d26653;}.cls-3{fill:#fff;}.cls-4{fill:#f5968e;}.cls-5{fill:#f48678;}.cls-6{fill:#e9a597;opacity:0.5;}</style></defs><g id="S"><path class="cls-1" d="M18,1.45s-3,1.58-3.73,2a14.89,14.89,0,0,1-3.91,1,21.92,21.92,0,0,1-3.72.48c-.44-.06-4.46-.37-4.46-.37s1.49,1.68,2,2.35A6.22,6.22,0,0,0,5.49,8,5.3,5.3,0,0,0,8.77,9.15,15.24,15.24,0,0,0,14.11,8.1a19.5,19.5,0,0,0,2.76-3.47C17.09,4.18,18,1.45,18,1.45Z"/><path class="cls-2" d="M14.19,5.49a5,5,0,0,0-2.28.15A26.65,26.65,0,0,0,9,6.42a5,5,0,0,0-.55.17c-.13,0-.24.2-.39.16L7.8,7.1c-.26.46.31.89.64,1a4.77,4.77,0,0,0,1.94-.23,21.5,21.5,0,0,0,3.21-.79c.32-.12,1-.19,1.15-.53A.73.73,0,0,0,14.19,5.49Z"/><path class="cls-3" d="M15.74,2.91,10.6,4.77,4.93,5a4.58,4.58,0,0,0,1,1.08,3.36,3.36,0,0,0,1.7.45A19.55,19.55,0,0,0,14,5.25,3.18,3.18,0,0,0,15.61,3.7,3.85,3.85,0,0,0,15.74,2.91Z"/><path class="cls-3" d="M15.78,6.57a3.13,3.13,0,0,0-1-.56c-.94-.13-2,.76-3.61,1.07s-3.11.15-3.89.68a2,2,0,0,0-.5.84l1.33.63,3.52-.11,2.6-1.38Z"/><path class="cls-4" d="M18,1.07a20,20,0,0,1-2.17,4.31,8.66,8.66,0,0,1-4.76,2.68,7.27,7.27,0,0,1-4.7-.47A23.1,23.1,0,0,1,2.14,4.23l.06.28A15,15,0,0,0,5.56,8.25a6.37,6.37,0,0,0,5.8,1.23A7.08,7.08,0,0,0,16.69,5.6a12,12,0,0,0,1.39-4.25S18,1.07,18,1.07Z"/><path class="cls-5" d="M18,1.07a13,13,0,0,1-3.54,2.16A27,27,0,0,1,7,4.68a23.25,23.25,0,0,1-4.87-.45,3.08,3.08,0,0,0,.26.28,11.13,11.13,0,0,0,3.76.77A22.67,22.67,0,0,0,10.84,5a23.81,23.81,0,0,0,4.44-1.43,7.67,7.67,0,0,0,2.69-2S18,1.07,18,1.07Z"/><path class="cls-6" d="M1.51,3.83c.23-.38-.17-.33-.33,0a1.64,1.64,0,0,0,.06,1A9.5,9.5,0,0,1,1.51,3.83Z"/><path class="cls-6" d="M18.18.61c-.41-.15.14-.4.47-.24s.2.84.2.84C18.38.68,18.31.66,18.18.61Z"/></g></svg>