<svg id="Layer_1" data-name="Layer 1" xmlns="http://www.w3.org/2000/svg" viewBox="0 0 19.29 10.6"><defs><style>.cls-1{fill:#dc9e8f;}.cls-2{fill:#f6fbfd;stroke:#323232;stroke-miterlimit:10;stroke-width:0.25px;}.cls-3{fill:#451f16;}.cls-4{fill:#fff;}</style></defs><circle class="cls-1" cx="15.43" cy="6.56" r="3.38"/><path class="cls-2" d="M18.46,6.76a3.18,3.18,0,0,1-3.07,3.29c-1.75.07-3.21-.76-3.27-2.51s1.29-3.78,3-3.84A3.18,3.18,0,0,1,18.46,6.76Z"/><ellipse class="cls-3" cx="15.02" cy="8.14" rx="1.8" ry="1.55" transform="translate(-1.67 4.48) rotate(-16.1)"/><circle class="cls-4" cx="16.53" cy="7.99" r="0.55"/><path class="cls-1" d="M18.6,6.75c.06,1.84-1.24,2-3.07,1.94-1.35,0-3.48.06-3.55-1.12-.1-1.83,1.35-3.95,3.18-4A3.32,3.32,0,0,1,18.6,6.75Z"/><ellipse class="cls-1" cx="4" cy="3.93" rx="3.38" ry="3.53" transform="translate(-0.82 6.8) rotate(-75.22)"/><path class="cls-2" d="M.88,3.46A3.19,3.19,0,0,0,3.14,7.35c1.7.44,3.3,0,3.75-1.74s-.43-4-2.12-4.41A3.18,3.18,0,0,0,.88,3.46Z"/><ellipse class="cls-3" cx="4.26" cy="5.6" rx="1.76" ry="1.49" transform="translate(-2.53 3.76) rotate(-37.59)"/><circle class="cls-4" cx="5.68" cy="5.7" r="0.55"/><path class="cls-1" d="M.75,3.43C.28,5.2,1.64,5.86,3.47,5.9S6.8,6.08,7,5.67c.86-1.62-.45-4.14-2.22-4.61A3.32,3.32,0,0,0,.75,3.43Z"/></svg>