<svg id="Layer_1" data-name="Layer 1" xmlns="http://www.w3.org/2000/svg" viewBox="0 0 32 19"><defs><style>.cls-1{fill:#f6fbfd;stroke:#323232;stroke-miterlimit:10;stroke-width:0.5px;}.cls-2{fill:#ce9685;}.cls-3{fill:#451f16;}.cls-4{fill:#fff;}</style></defs><path class="cls-1" d="M30.12,4.47a5.77,5.77,0,0,1-3,7.26,5.08,5.08,0,0,1-7-2.59,5.79,5.79,0,0,1,3-7.26A5.08,5.08,0,0,1,30.12,4.47Z"/><path class="cls-2" d="M30.15,8.77a6.05,6.05,0,0,0,0-4.63,5,5,0,0,0-7-2.26c-1.28.68-2.46,1.59-3.49,4.32A6.3,6.3,0,0,1,24,.78C26.12.15,28.83.6,30,2.85,31,4.81,31.43,7.59,30.15,8.77Z"/><path class="cls-3" d="M27.65,8.54c.54,1.25-.34,2.61-2,3A3.39,3.39,0,0,1,21.75,10c-.54-1.25.34-2.61,2-3A3.39,3.39,0,0,1,27.65,8.54Z"/><path class="cls-4" d="M25.31,6.89a1,1,0,0,1-.13,1.36.9.9,0,0,1-1.29-.17A1,1,0,0,1,24,6.72.88.88,0,0,1,25.31,6.89Z"/><path class="cls-1" d="M1.52,14.27a5.27,5.27,0,0,0,5.87,4.15,4.66,4.66,0,0,0,3.82-5.66A5.3,5.3,0,0,0,5.33,8.6,4.67,4.67,0,0,0,1.52,14.27Z"/><path class="cls-2" d="M4.55,17.93A5.32,5.32,0,0,1,1.7,14.24,4.74,4.74,0,0,1,5.61,8.61c1.34-.22,2.4.15,4.56,2C8.48,8.38,6.31,7.66,4.39,8.31A4.76,4.76,0,0,0,1.08,13.4C1.36,15.64,3,17.62,4.55,17.93Z"/><path class="cls-3" d="M4.17,15.77c-.32-1.21.65-2.33,2.18-2.5a3,3,0,0,1,3.33,1.86C10,16.34,9,17.46,7.5,17.63A3,3,0,0,1,4.17,15.77Z"/><path class="cls-4" d="M7.1,13.37a1,1,0,0,1-.19,1.41,1,1,0,0,1-1.4-.13A1,1,0,0,1,7.1,13.37Z"/></svg>