<svg id="Layer_1" data-name="Layer 1" xmlns="http://www.w3.org/2000/svg" viewBox="0 0 800 1200"><defs><style>.cls-1{fill:#4a2a15;}.cls-2{fill:#fbd3c7;}.cls-16,.cls-2,.cls-4,.cls-5,.cls-7{stroke:#323232;stroke-miterlimit:10;stroke-width:0.5px;}.cls-3{fill:#e4a68d;}.cls-4{fill:#fcde7d;}.cls-5{fill:#e0614f;}.cls-6{fill:#f5937d;}.cls-7{fill:none;}.cls-8{fill:#fab51b;}.cls-9{fill:#f17125;}.cls-10{fill:#80351b;}.cls-11{fill:#75451c;}.cls-12{fill:#a66638;}.cls-13{fill:#925b24;}.cls-14{fill:#e69847;}.cls-15{fill:#5f2710;}.cls-16{fill:#efc35b;}.cls-17{fill:#c09232;}.cls-18{fill:#dd9f8f;}</style></defs><polygon class="cls-1" points="479.23 847 498.39 1046.11 501.93 1046.11 482.02 847 479.23 847"/><polygon class="cls-1" points="336.55 846.79 317.39 1045.9 313.85 1045.9 333.75 846.79 336.55 846.79"/><path class="cls-2" d="M461.1,1000.15a15.89,15.89,0,0,1,.53-6.59.77.77,0,0,0-.23-.84H447.74a4.08,4.08,0,0,1,0,4.5,5.09,5.09,0,0,1-1.95,2c-3,1.64,14.9,4.75,15.38,5s3.54-2.86,3.54-2.86l-3.06-.91Z"/><path class="cls-3" d="M461.4,992.72H447.78a3.8,3.8,0,0,1,.25,4.41c2.5,1.94,5.33,3.69,12.33,2.57l.57-.36a14,14,0,0,1,.7-5.78A.77.77,0,0,0,461.4,992.72Z"/><path class="cls-4" d="M430.54,1004.32l-5.59,6.13,3.22,4.91,5,4.36,3.54-4.14-2.24,31.76a20.36,20.36,0,0,0,18.6,9.76c14.17-.44,5.39-11.28,5.39-11.28s9.25-20.39,8.9-24.36c0-.05,1.48-5.37,1.48-5.42-.36-4.61.88-7.6.33-10.65,0,0-3.89-5.12-8.25-5.54l.33-.81s-.36,3.25-7,2.75-7-4.8-7-4.8l-3.54.75C439.21,996.86,436,998.28,430.54,1004.32Z"/><path class="cls-5" d="M467.86,1018c-.85-.55-.37.71-3,.45-8-.8-17.31.26-26.46-6.1l-.68.81c-4.67,11.12-10.17,25.09-10.47,37.15h0s25.68,26,49.4,5.88l-6.32-5c-1.55-6.87-4.2-17.91-3.48-24.92l.49-4.8Z"/><path class="cls-5" d="M463.23,1000.45a50.68,50.68,0,0,1-1.55,19.08.83.83,0,0,0,.13.7l1.26,1.67a.81.81,0,0,0,1.31,0l1.41-1.35c0-.08.27-.1.29-.19.34-1.29,2.24-11.47-.7-20a.82.82,0,0,0-.45-.48l-.57-.25A.82.82,0,0,0,463.23,1000.45Z"/><path class="cls-5" d="M445.52,998.16c-.76,3-2.73,11.46-2.53,18.31a1,1,0,0,1-.51.89l-1.53.83a1,1,0,0,1-1.35-.43l-1.06-2.12a1,1,0,0,1-.09-.59,73.56,73.56,0,0,1,5.21-17.53,1,1,0,0,1,1-.58h0A1,1,0,0,1,445.52,998.16Z"/><circle class="cls-6" cx="443.45" cy="1040.13" r="3.28"/><circle class="cls-6" cx="443.58" cy="1029.01" r="3.28"/><circle class="cls-6" cx="435.93" cy="1034.74" r="3.28"/><ellipse class="cls-6" cx="463.19" cy="1029.43" rx="2.28" ry="3.28"/><ellipse class="cls-6" cx="463.84" cy="1037.87" rx="2.28" ry="3.28"/><circle class="cls-6" cx="433.67" cy="1042.54" r="3.28"/><circle class="cls-6" cx="459.58" cy="1044.03" r="3.28"/><path class="cls-6" d="M463.52,1046.89a3.29,3.29,0,0,0,3.38,3.18c1.82-.06,1-1.47,1-3.28s.65-3.34-1.16-3.29A3.29,3.29,0,0,0,463.52,1046.89Z"/><circle class="cls-6" cx="451.74" cy="1041.17" r="3.28"/><circle class="cls-6" cx="445.17" cy="1045.01" r="3.28"/><circle class="cls-6" cx="455.1" cy="1032.3" r="3.28"/><circle class="cls-6" cx="449.1" cy="1023.39" r="3.28"/><circle class="cls-6" cx="457.83" cy="1023.41" r="3.28"/><ellipse class="cls-6" cx="436.86" cy="1024.06" rx="2.76" ry="3.28" transform="translate(-31.81 14.16) rotate(-1.79)"/><ellipse class="cls-6" cx="433.11" cy="1049.55" rx="2.51" ry="2.98" transform="translate(-32.61 14.06) rotate(-1.79)"/><path class="cls-2" d="M440.94,1030.12a8.07,8.07,0,0,1,3.28-2.14,2.86,2.86,0,0,1,1.26-.2,1.24,1.24,0,0,1,1,.71,1.26,1.26,0,0,1-.08,1,4.33,4.33,0,0,1-.58.82l-.71.82"/><path class="cls-2" d="M449.29,1036.37a1,1,0,0,1-.48.7c-.58.3-1.1-.19-1.52-.59a8.32,8.32,0,0,0-3.61-2,1.88,1.88,0,0,0-1.58.13c-.43.34-.37,1.2.17,1.28,0,0,3.54,1.83,4.23,3.22s.26,2.26-.78,2.61c0,0,.89,2.69-3.42,1.64,0,0,.21,1.54-2,.69s-5.57-3.19-6.44-6.76a19.42,19.42,0,0,1-11-6.68,11.75,11.75,0,0,1-.07-15.17l1.61-2.15,1.3-1.74s1.79,2,3.91,4.32a8.57,8.57,0,0,0,4.52,2.63l-1.86,2.21-1.68,2a28.82,28.82,0,0,1,4.25,7.72l.47,1c1.81-1.31,4.16-1.52,6.38-1.69a6.24,6.24,0,0,1,2.07.08,5.87,5.87,0,0,1,1.66.83,12,12,0,0,1,2.75,2.15A4.3,4.3,0,0,1,449.29,1036.37Z"/><path class="cls-7" d="M439.48,1040.46a11.23,11.23,0,0,0,3,2.88"/><path class="cls-7" d="M440.27,1038.28a22.07,22.07,0,0,0,5.45,3.41"/><path class="cls-7" d="M436,1031.09a4.68,4.68,0,0,0-2.85,3.22"/><path class="cls-7" d="M430.74,1023.22a1.3,1.3,0,0,0-.47-.92,6.64,6.64,0,0,0-5.61-1.9"/><path class="cls-3" d="M433.73,1018.56l-1.67,2a13,13,0,0,1-7.55-7.11l1.19-1.59s1.52,1.75,3.63,4A8.81,8.81,0,0,0,433.73,1018.56Z"/><path class="cls-4" d="M466.8,1002.91s5.42,1.33,7.53,4.86,7,12.14,7,12.14-2.34,6.24-9.7,4.19l-3.76-6.14"/><path class="cls-7" d="M467.86,1018c.65-1.06,1-1.92,1.3-4.88"/><path class="cls-7" d="M437.59,1012.93a.24.24,0,0,0,.26.19,30.38,30.38,0,0,1,.69-7.73"/><path class="cls-8" d="M505.47,855.72l-8.24-.35-29.37-1.24-28.2-1.19-66.07-2.81L345.12,849l-34.5-1.48-3.49-.14S-18.11,481.49,7.74,298.56c14-98.61,61-149.89,101.39-176.26a.69.69,0,0,1,.12-.1c34.5-22.42,64.09-26.69,64.09-26.69a204.25,204.25,0,0,1,30-16h0C245.92,61.25,282.25,63.62,301,67a90.84,90.84,0,0,1,13.73,3.33C418,24.68,482.89,65.93,494.13,74c1.17.85,1.76,1.33,1.76,1.33,46.62-15.79,88.48-7.8,115.07,1.45,18.66,6.51,29.81,13.64,29.81,13.64C669,101,692.59,113.65,712.26,128l0,0c.05,0,.1.07.12.12C978.76,324.6,505.47,855.72,505.47,855.72Z"/><path class="cls-9" d="M514.09,312c0,211.42-35.13,451.26-74.43,540.94l-66.07-2.81c-32.23-74-57.57-245-76.73-442.75C281.35,247,286.23,139.18,301,67a90.84,90.84,0,0,1,13.73,3.33C418,24.68,482.89,65.93,494.13,74,506.37,134,514.09,212.9,514.09,312Z"/><path class="cls-9" d="M497.23,855.37l-29.37-1.24C755.42,385.56,672.78,117.32,617.07,79.07l95.19,49,0,0c.05,0-48.34-27.24-48.32-27.2C941,295.21,576.31,759.84,497.23,855.37Z"/><path class="cls-9" d="M345.12,849l-34.5-1.48C220.5,736.9-101.19,312.14,109.13,122.3a.69.69,0,0,1,.12-.1c34.5-22.42,64.09-26.69,64.09-26.69,10.24-6.57-4.24.75,5.49-3.41C144.47,155.27,71.23,394.66,345.12,849Z"/><ellipse class="cls-10" cx="410.35" cy="849.86" rx="102.13" ry="17.79"/><path class="cls-11" d="M491.64,1146.62h0c-53.29,4.75-101.13,5.79-157.08,1.44h0c-15.66-2.6-26.83-10.68-27.91-20.2l-7.46-65.59H518.45l-6.11,68.65C511.69,1138.17,503.45,1144.42,491.64,1146.62Z"/><rect class="cls-12" x="316.5" y="1069.31" width="21.74" height="3.81" rx="0.94"/><rect class="cls-12" x="316.5" y="1081.25" width="21.74" height="3.81" rx="0.94"/><rect class="cls-12" x="316.5" y="1093.19" width="21.74" height="3.81" rx="0.94"/><rect class="cls-12" x="316.5" y="1105.13" width="21.74" height="3.81" rx="0.94"/><rect class="cls-12" x="316.5" y="1117.07" width="21.74" height="3.81" rx="0.94"/><rect class="cls-12" x="316.5" y="1129.01" width="21.74" height="3.81" rx="0.94"/><rect class="cls-12" x="349.11" y="1069.31" width="21.74" height="3.81" rx="0.94"/><rect class="cls-12" x="349.11" y="1081.25" width="21.74" height="3.81" rx="0.94"/><rect class="cls-12" x="349.11" y="1093.19" width="21.74" height="3.81" rx="0.94"/><rect class="cls-12" x="349.11" y="1105.13" width="21.74" height="3.81" rx="0.94"/><rect class="cls-12" x="349.11" y="1117.07" width="21.74" height="3.81" rx="0.94"/><rect class="cls-12" x="349.11" y="1129.01" width="21.74" height="3.81" rx="0.94"/><rect class="cls-12" x="381.73" y="1069.31" width="21.74" height="3.81" rx="0.94"/><rect class="cls-12" x="381.73" y="1081.25" width="21.74" height="3.81" rx="0.94"/><rect class="cls-12" x="381.73" y="1093.19" width="21.74" height="3.81" rx="0.94"/><rect class="cls-12" x="381.73" y="1105.13" width="21.74" height="3.81" rx="0.94"/><rect class="cls-12" x="381.73" y="1117.07" width="21.74" height="3.81" rx="0.94"/><rect class="cls-12" x="381.73" y="1129.01" width="21.74" height="3.81" rx="0.94"/><rect class="cls-12" x="414.34" y="1069.31" width="21.74" height="3.81" rx="0.94"/><rect class="cls-12" x="414.34" y="1081.25" width="21.74" height="3.81" rx="0.94"/><rect class="cls-12" x="414.34" y="1093.19" width="21.74" height="3.81" rx="0.94"/><rect class="cls-12" x="414.34" y="1105.13" width="21.74" height="3.81" rx="0.94"/><rect class="cls-12" x="414.34" y="1117.07" width="21.74" height="3.81" rx="0.94"/><rect class="cls-12" x="414.34" y="1129.01" width="21.74" height="3.81" rx="0.94"/><rect class="cls-12" x="447.17" y="1069.31" width="21.74" height="3.81" rx="0.94"/><rect class="cls-12" x="447.17" y="1081.25" width="21.74" height="3.81" rx="0.94"/><rect class="cls-12" x="447.17" y="1093.19" width="21.74" height="3.81" rx="0.94"/><rect class="cls-12" x="447.17" y="1105.13" width="21.74" height="3.81" rx="0.94"/><rect class="cls-12" x="447.17" y="1117.07" width="21.74" height="3.81" rx="0.94"/><rect class="cls-12" x="447.17" y="1129.01" width="21.74" height="3.81" rx="0.94"/><rect class="cls-12" x="479.99" y="1069.31" width="21.74" height="3.81" rx="0.94"/><rect class="cls-12" x="479.99" y="1081.25" width="21.74" height="3.81" rx="0.94"/><rect class="cls-12" x="479.99" y="1093.19" width="21.74" height="3.81" rx="0.94"/><rect class="cls-12" x="479.99" y="1105.13" width="21.74" height="3.81" rx="0.94"/><rect class="cls-12" x="479.99" y="1117.07" width="21.74" height="3.81" rx="0.94"/><rect class="cls-12" x="479.99" y="1129.01" width="21.74" height="3.81" rx="0.94"/><rect class="cls-13" x="280.99" y="1046.09" width="256.91" height="17.14" rx="4.22"/><rect class="cls-14" x="286.9" y="1047.16" width="242.74" height="8.57" rx="3.63"/><ellipse class="cls-15" cx="410.47" cy="850.07" rx="91.29" ry="14.6"/><polygon class="cls-1" points="501.2 847.11 520.37 1046.22 523.91 1046.22 504 847.11 501.2 847.11"/><polygon class="cls-1" points="319.18 846.9 300.02 1046.01 296.48 1046.01 316.39 846.9 319.18 846.9"/><path class="cls-16" d="M344.93,990.93c0,1-5.22,15.48-7.25,54.86l42.28-.08s-1.2-22.52-1.2-32.22l4.67,6.26,2.19-.78c4.32-2.09,5.65-2.7,8.5-5.84l1.91-2.23-6.58-9.14c-1.38-2.36-6.43-4.32-8.64-5.93-4.34-3.14-5.53-2.22-6.85-3.28h0a148.62,148.62,0,0,0-16.19-5.49c-4.19-1.2-13.61,1-13.61,1Z"/><path class="cls-17" d="M340.89,1013.75s28.26,9.27,37.87,3.07v4.86s-15.63,5.89-38.42-4.3Z"/><path class="cls-17" d="M339.44,1022.87s27.86,11.15,39.64,3.5v4.21s-11.65,9.35-39.94-3.62Z"/><path class="cls-2" d="M337.57,1016.12a36.75,36.75,0,0,1-1.89,4.22s2.09,4.85,2.34,6.8,4.43,12.92,6.83,14.67l-5.21,1.85s-6.46-3.11-10.84-11.93c-.68-1.38-1.25-2.61-1.72-3.7a18.9,18.9,0,0,1-.84-12.75l1.54-5.41S331.12,1010.19,337.57,1016.12Z"/><path class="cls-2" d="M328.45,1017.67c-1.16.43,4.89.19,6.73,2.67"/><path class="cls-2" d="M337.43,1045.24s-.51,3.62,2.16,5.34,1.14-2.67,1.14-2.67,3.1,6.75,2.68-1.66c0,0,.51,4.09,2.13,4.17,1.36.06.92-5.82.92-5.82s3.85,2.5,6.65.54c.34-.23.1-.81-.23-1.05a2.34,2.34,0,0,0-1.52-.38c-1.59.06-3.5-2.29-5.54-3.56s-2.87.56-5.54.12-5.78,3.1-5.9,7.11S337.43,1045.24,337.43,1045.24Z"/><path class="cls-2" d="M340.9,1048.24a6.84,6.84,0,0,1-.61-3.39"/><path class="cls-2" d="M343.45,1047.83a12.39,12.39,0,0,0,0-3.23"/><path class="cls-2" d="M346.43,1044.85a2.87,2.87,0,0,0-.38-2.34"/><path class="cls-16" d="M348,987.27c-1.11.12-10.64-4-22.5,24.64l.64.52a24.29,24.29,0,0,0,12.73,5.27h0l2.07-7.48"/><path class="cls-7" d="M341,1010.61c0-4.16-1.18-4.55,1.77-11.84"/><path class="cls-7" d="M378.76,1012.83c2.81-4.08,2.84-6.45,2.81-10.25"/><path class="cls-2" d="M371.23,989.07a7,7,0,0,1-1.19,4.49c-1.06,1.32-2.81,1.79-5.18,1.79-3.85,0-8.61-2.33-9.22-6.61a5.78,5.78,0,0,1-.07-.94c0-4.88,4.07-7.56,8.19-7.56S371.23,984.19,371.23,989.07Z"/><path class="cls-3" d="M371.23,989.07a7,7,0,0,1-1.4,4.48c-7-.39-11.12-2.39-14-4.63,0-.31-.18-1.47-.18-1.8,0-4.87,4-6.88,8.08-6.88S371.23,984.19,371.23,989.07Z"/><path class="cls-3" d="M326.51,1015.49s5.62,3.42,9.48,3.52l.56-1.34s-3.93-.32-9.55-4.13Z"/><path class="cls-2" d="M493,1046.49a1.28,1.28,0,0,0,1.5.35,1,1,0,0,0,.46-1.4,3.52,3.52,0,0,0-.53-.56c-.43-.44-.65-1.05-1.09-1.47a2.56,2.56,0,0,0-1.63-.62,7.05,7.05,0,0,0-1.77.18,3.28,3.28,0,0,0,1.37,3.06A3.71,3.71,0,0,0,493,1046.49Z"/><path class="cls-2" d="M493.75,1048.46a2.61,2.61,0,0,1-2.82-1.41s1.06,3.13-.91,2.72-1.76-3.58-5.5-4-9.12,1-9.53-.35,2.37-1.72,2.62-1.77,2.07-.4,2.17-.86-3.88-5.09-4.08-12.81a3.16,3.16,0,0,1-.73-.67c-.27-.31-2.35-4.26-2.6-4.81,0,0,3.47.4,5.29-.61,0,0,2.23-.33,3.51-3.29,0,0,1.9,3.86,2.49,4.9a14.23,14.23,0,0,1,1.65,4.4,79.66,79.66,0,0,1,.61,11s0,.31,2.69,1S495.82,1048.16,493.75,1048.46Z"/><path class="cls-7" d="M479.36,1043.13a4.34,4.34,0,0,1,2.49-.56"/><path class="cls-7" d="M491.11,1047.39a10.68,10.68,0,0,0-4.31-4"/><path class="cls-18" d="M481.81,1022.52a7.86,7.86,0,0,1-8,4.16,10.83,10.83,0,0,1-1-1.82,8.81,8.81,0,0,0,4.84-.77,9.15,9.15,0,0,0,3.47-2.84A7.29,7.29,0,0,0,481.81,1022.52Z"/><path class="cls-7" d="M475.69,1030.18a4,4,0,0,1,1.37-2.16,4.94,4.94,0,0,1,2.83-.91"/></svg>