<svg xmlns="http://www.w3.org/2000/svg" viewBox="0 0 93.36 75.15"><defs><style>.cls-1{isolation:isolate;}.cls-2{fill:#5c5548;}.cls-3{fill:#424036;}.cls-4{fill:#fad2c6;stroke:#323232;}.cls-4,.cls-7{stroke-miterlimit:10;stroke-width:0.25px;}.cls-5{fill:#e4a58c;}.cls-6{fill:#421b16;}.cls-7{fill:#311415;stroke:#211e1f;}.cls-8{fill:#90856e;}.cls-9{fill:#605e44;}.cls-10,.cls-13{fill:#9e9580;opacity:0.5;}.cls-10,.cls-12{mix-blend-mode:multiply;}.cls-11,.cls-12{fill:#676254;}.cls-12{opacity:0.4;}.cls-13{mix-blend-mode:screen;}.cls-14{fill:#c28974;}</style></defs><g class="cls-1"><g id="Layer_1" data-name="Layer 1"><path class="cls-2" d="M76.69,29.78a21.06,21.06,0,0,1,5,3.65C84.75,36.28,91.61,44.68,92,48s-21-.57-48.83-3.93S5.07,35.5,5,33.91,12.34,26.2,20.4,23.17s19-2.13,32.1-.56A81.92,81.92,0,0,1,76.69,29.78Z"/><path class="cls-3" d="M52.49,22.77c-12.7-1.52-23.87-2.53-32,.54-8,3-15.31,9.09-15.27,10.59,0,1,6,4.77,25,8.1,4,.7,8.43,1.35,13.07,1.91,6.78.82,13.25,1.68,19,2.44,16.26,2.16,28,3.72,29.56,2.09a.51.51,0,0,0,.14-.42c-.39-3.2-7.11-11.52-10.33-14.47a20.92,20.92,0,0,0-4.92-3.63A83.26,83.26,0,0,0,56,23.29C54.81,23.08,53.63,22.91,52.49,22.77Z"/><path class="cls-4" d="M23.27,30.79c-.45.76-1.4,1.79-.61,3.65,4.26,10,4,13,7.07,25.25,2.25,9,12.42,15,20.92,12.93,10.45-2.49,22.3-8.38,20.73-29-.69-9.09.63-19-1.25-21.87C63.8,12,58.71,14.35,45.68,17.52,33.48,20.49,28.44,22.2,23.27,30.79Z"/><path class="cls-5" d="M26.93,47s-.62-17.36,8-15c9.39,2.6,13-1.55,16.8-.74C60.05,33,69.48,45.15,72.36,36.75s-20.45-18-20.45-18-21.14-1.83-22.55-1.24-7.1,11.7-7.1,11.7Z"/><path class="cls-6" d="M33.47,38.38a.64.64,0,0,0,.6-.94L34,37.27c-.48-.94-1.86-.89-2.61-.56-1.13.5-2.78,1.12-3.57,4.44-.06.28.27.53.42.32C29.09,40.21,31.13,38.31,33.47,38.38Z"/><path class="cls-6" d="M49.29,35.25a.64.64,0,0,1-1-.55v-.19c0-1,1.21-1.67,2-1.73,1.23-.1,3-.34,5.26,2.21.19.21,0,.59-.22.47C54,34.77,51.32,34.07,49.29,35.25Z"/><path class="cls-7" d="M32.44,25.92S35.23,36.48,52,28c0,0-19.47-1.91-.38-7.42,0,0-2.45,6.74,9.7,1.84,0,0-7.85,9,7.58,16.68,0,0,2.65.26,3.22,6.64q.07.69.09,1.47c.27,7.82,0-1,0-1s6.8-2.82,5-11.08c0,0,4.41-7.12-1.51-13.5,0,0,1.4-10.71-10.61-10.49,0,0-5-9.44-11.93-7.55,0,0-11.63-5.52-17.48,4.76,0,0-8.47-1-11.6,9.51,0,0-6.35,5.38-3.16,11.43,0,0-5,4.68,1.38,8.55,0,0-3.68,5,2.82,7.83l3.14,5.59L26.93,47A20.41,20.41,0,0,1,32,26.32Z"/><path class="cls-8" d="M20.4,23.17c8.05-3,19-2.13,32.1-.56a81.92,81.92,0,0,1,24.19,7.17,21.06,21.06,0,0,1,5,3.65C84.75,36.28,91.61,44.68,92,48c-.54-2.22-9.83-12.25-46.58-17-24-3.1-35.91-.32-40.2,2.29C6.45,31.13,13.14,25.9,20.4,23.17Z"/><path class="cls-9" d="M5.12,33.42a.18.18,0,0,1,0-.2C6.37,31,13.1,25.75,20.34,23c8.24-3.1,19.45-2.09,32.18-.56,1.16.14,2.34.31,3.53.52a82.84,82.84,0,0,1,20.7,6.66,20.74,20.74,0,0,1,5,3.67C84.63,36,91.74,44.46,92.16,48a.16.16,0,0,1-.12.18.16.16,0,0,1-.17-.12c-.49-2-8.23-10.4-37.1-15.46-3-.52-6.12-1-9.36-1.42C17.58,27.57,7.68,32,5.3,33.44a.16.16,0,0,1-.1,0Z"/><path class="cls-10" d="M77.23,35.76c-1.82-3.59-5.46-6.27-8.62-8.31a41.66,41.66,0,0,0-4-2.3,79.79,79.79,0,0,1,12.13,4.63,21.06,21.06,0,0,1,5,3.65C84.75,36.28,91.61,44.68,92,48c-.33-1.35-3.87-5.57-14.8-9.73A2.65,2.65,0,0,0,77.23,35.76Z"/><path class="cls-10" d="M34.48,21.63a51.66,51.66,0,0,0-8.79,2.5c-2.15.84-4.77,2.36-4.91,5.17a4.17,4.17,0,0,0,0,.5c-8.19.48-13.11,2-15.55,3.5,1.22-2.17,7.91-7.4,15.17-10.13,4.84-1.83,10.73-2.23,17.51-1.91A24.64,24.64,0,0,0,34.48,21.63Z"/><path class="cls-8" d="M81.28,31.57s2.94-11.92-9.91-22.64c-13.92-11.6-32-7-37.58-4s-11.55,9.91-13.18,16.9c0,0,20.37-.72,29.7.73S76.17,27.94,81.28,31.57Z"/><path class="cls-9" d="M81.18,31.31c.31-1.68,1.77-12.53-9.91-22.25a31.78,31.78,0,0,0-15-6.92C46.81.49,37.7,3,33.86,5.05c-5.18,2.8-11.29,9.38-13.06,16.59,2.12-.07,20.79-.62,29.54.75l2.17.36C61.27,24.29,76,27.81,81.18,31.31Z"/><path class="cls-10" d="M29.92,15.71c1.42,2.85,4.29,4.2,6.9,5.15.91.33,1.83.62,2.75.88-9.13-.28-19,.07-19,.07C22.12,15.35,27.35,9,32.54,5.65,30.07,8.18,28.16,12.18,29.92,15.71Z"/><path class="cls-10" d="M62,23.4c3.52-.24,7.4-.67,10.65-2.54a7.43,7.43,0,0,0,4.13-6.25c6.51,8.85,4.51,17,4.51,17-4.18-3-16-6.15-25.29-8C58,23.58,60,23.54,62,23.4Z"/><path class="cls-11" d="M50.72,20.69c-7.54-1.23-28-1.33-30.22-.22a12.28,12.28,0,0,0-.51,3c.16.52,10.12-2,28.26.49,23.86,3.26,32.36,9.14,33,9.34s.65-2.71.43-3.18S72.61,24.26,50.72,20.69Z"/><path class="cls-3" d="M19.85,23.5a11.37,11.37,0,0,1,.51-3.07l0-.07.06,0c2.24-1.14,22.92-1,30.3.21,22.17,3.6,30.82,9,31,9.49a5.8,5.8,0,0,1-.21,3.24.36.36,0,0,1-.35.18l0,0a2.93,2.93,0,0,1-.46-.24c-7.63-4.25-18.41-6.75-26.09-8.1-2-.36-4.2-.69-6.38-1a105.3,105.3,0,0,0-26.12-.56,11.28,11.28,0,0,1-2,.12A.24.24,0,0,1,19.85,23.5Z"/><path class="cls-12" d="M20.5,20.47c1.24-.63,8.36-.87,15.66-.74-.25.05-.5.08-.78.11-7.19.74-2.26,2,3.17,2.13a108.17,108.17,0,0,1,19.26,2.18c8.15,1.59,11,.37,4.42-1.1a11.93,11.93,0,0,1-1.3-.38c14.46,3.3,20.52,7,20.71,7.43s.17,3.39-.43,3.18-9.1-6.08-33-9.34c-18.14-2.48-28.1,0-28.26-.49A12.28,12.28,0,0,1,20.5,20.47Z"/><path class="cls-13" d="M73.65,35.74s-14.49-6.2-49.37-7.3C24.28,28.44,52.1,26.46,73.65,35.74Z"/><path class="cls-4" d="M69.73,49.21c.38-4.76,2.15-6.89,4.7-6.88,2.77,0,3.81,1.93,3.64,5.84-.21,5-5.51,8.68-8.89,7.65"/><path class="cls-5" d="M76.08,46.84s.72-2.78-2.26-2.26-1.41,4.29-2.23,5.88-2.65,3.2-1.36,3.54S75.8,52.79,76.08,46.84Z"/><path class="cls-14" d="M40.69,53.72a3.78,3.78,0,0,0,.31,2,1.5,1.5,0,0,0,1.58.54,3,3,0,0,0,1.76-.71,4.29,4.29,0,0,0,1.14-1.72A3.1,3.1,0,0,1,44.76,56a3.14,3.14,0,0,1-2.11,1,2.9,2.9,0,0,1-1.23-.13,1.6,1.6,0,0,1-.94-.9A2.83,2.83,0,0,1,40.69,53.72Z"/></g></g></svg>