<svg id="Layer_1" data-name="Layer 1" xmlns="http://www.w3.org/2000/svg" viewBox="0 0 14.62 8.45"><defs><style>.cls-1{fill:#bb7757;}.cls-2{fill:#765a47;}.cls-3{fill:#dc9e8f;}</style></defs><g id="neutral"><path class="cls-1" d="M12.07,5.28a9.65,9.65,0,0,1-5.46.82A9.6,9.6,0,0,1,2,3.11a17.71,17.71,0,0,0,4.77,2.1A29.44,29.44,0,0,0,12.07,5.28Z"/><path class="cls-1" d="M12.21,5.22c0-.14-3,.27-5.59-.28A23.87,23.87,0,0,1,1.86,3,9.64,9.64,0,0,0,6.5,5.51,11.47,11.47,0,0,0,12.21,5.22Z"/><path class="cls-2" d="M1.78,3a14.18,14.18,0,0,0,5,2.6,11.16,11.16,0,0,0,5.44-.33,12.35,12.35,0,0,1-5.44.33A12.85,12.85,0,0,1,1.78,3Z"/><path class="cls-3" d="M1.82,2.56c.2-.3-.09-.28-.23,0a1.64,1.64,0,0,0,0,.81S1.76,2.66,1.82,2.56Z"/><path class="cls-3" d="M12.42,4.84c-.09-.34.18-.25.23,0a1.2,1.2,0,0,1-.27.71C12.47,5,12.45,5,12.42,4.84Z"/></g></svg>