<svg id="Layer_1" data-name="Layer 1" xmlns="http://www.w3.org/2000/svg" viewBox="0 0 87.1 97.62"><defs><style>.cls-1,.cls-6{fill:#3d2d16;}.cls-1{stroke:#3d2d16;}.cls-1,.cls-3,.cls-8{stroke-miterlimit:10;}.cls-2{fill:#fff;}.cls-3,.cls-9{fill:#fad2c6;}.cls-3{stroke:#323232;stroke-width:0.5px;}.cls-4{fill:#dc9e8f;}.cls-5{fill:#e8d860;}.cls-7{fill:#a67d48;}.cls-8{fill:#ad6428;stroke:#c77929;stroke-width:0.75px;}.cls-10{fill:#323232;}.cls-11{fill:#ef4b3b;}.cls-12{fill:#f49990;}</style></defs><path class="cls-1" d="M82.35,66c2,14-14.51,16.48-36.11,18.48-.39,0,.22,5.73-.18,5.76-19.45,1.58-27.22,6.16-33.68-18.2C8.68,58.13,24.44,44,43.77,41.33S80.36,51.75,82.35,66Z"/><path class="cls-1" d="M73.3,42.35c.7.57,15,24.45,8,35.21C70,94.67,59.43,87.7,59.38,87.73Z"/><path class="cls-2" d="M64.79,75.3s5.83-2.17,9.78,1C73.18,77.76,71.87,79.4,64.79,75.3Z"/><path class="cls-3" d="M75.72,48.09c-.06-.1-.14.14,0,.15s.17-.12.21-.24A7.65,7.65,0,0,1,78,44.57a3,3,0,0,1,2.46-1c1.3.23,2.07,1.69,2.4,3a12.32,12.32,0,0,1-.25,6.57c-1.16,3.66-4.33,6.74-8,6.71"/><path class="cls-4" d="M79.15,48.79a10.92,10.92,0,0,0-.89,1.42c-.21.4-.38,1-.08,1.32s.7.23.92.56a.8.8,0,0,1-.25,1c-.29.21-.66.26-1,.46A1.6,1.6,0,0,0,77.24,55a1.41,1.41,0,0,0,.14.58.92.92,0,0,0,1.18.36,2.48,2.48,0,0,0,.93-1,11.07,11.07,0,0,0,1.42-2.86C81.38,50.44,81.3,45.87,79.15,48.79Z"/><path class="cls-5" d="M76.16,57.46s-2,5.11.68,6.08,1.65-4.84,1.65-4.84-.53,4.86-1.43,1.81Z"/><path class="cls-3" d="M76.44,35c-.14.53,2.23,17.24,3.74,25C82,69.13,75.64,82.63,65.49,86.19,53,90.55,40.31,89.78,31.67,81.78s-11.86-21.9-11.86-21.9S5.4,49.24,13.75,33.9,35,9.37,55,8.32,76.44,35,76.44,35Z"/><path class="cls-4" d="M27.59,46.68c.53-.48,10.28-16.41,10.28-16.41s-4.32,9.41-.95,7.82c.94-.44,8.3-7,10-11.51,0,0,.44,6.08-2.33,8,0,0,13.19-2.5,14.38-13.6,0,0-.13,5.74,10.92,7.57C78.5,30,77,40.64,77,40.64L73.69,19.75,62.54,13.46,41.21,17.82l-15.59,10L23.42,43.6,19.81,59.88Z"/><path class="cls-1" d="M77.62,44.37C77,41.44,74.26,33,72,31c-4.52-4-8.55-3.62-11.36-4.65-1.79-.66-3-5.68-4.66-6.59s.82,1.86,0,0c0,3.19,1,5-1.18,7.31A22.88,22.88,0,0,1,47.34,32a13.64,13.64,0,0,0,2-5.58c.13-2.2-.72-4.32-1.14-6.48A34.66,34.66,0,0,1,35.93,37.34a16.1,16.1,0,0,0,1.73-10.49,5.32,5.32,0,0,0-1.88,2.42,100.27,100.27,0,0,1-9,15.64c-.32-.81-1-1.38-1.32-2.19C25.21,49,20.08,62,20,61.61c0,0,4.36,24.76,25.75,27.65,0,0-4.14,5.77-15.24,5.3-11.66-.48-21.19-9.09-20.88-28S3.28,42.24,5.09,30.41C7.25,16.34,22.66-5,59.84,5.19c0,0,16.56,1.07,18.7,31.25C78.54,36.44,77.82,45.31,77.62,44.37Z"/><path class="cls-6" d="M62.57,35.67s4.86-2.75,8.55.31a.18.18,0,0,0,.29-.21,4.65,4.65,0,0,0-5.21-3C60.79,33.34,62.57,35.67,62.57,35.67Z"/><path class="cls-6" d="M42.17,41s-6.19.75-7.85,5.51c-.07.19-.36.2-.4,0-.26-1.22-.35-3.86,3.1-5.67C42.46,38,42.17,41,42.17,41Z"/><path class="cls-7" d="M60.14,52.56a5.52,5.52,0,0,0,1,3.93,5.73,5.73,0,0,0,1.47,1.35l.92.62a3.45,3.45,0,0,1,.82.92,2.71,2.71,0,0,1,.23,2.49,3.56,3.56,0,0,1-1.67,1.77,5,5,0,0,1-2.24.57,6.93,6.93,0,0,1-2.23-.27h.1a2.4,2.4,0,0,1-.76,0,1.89,1.89,0,0,1-.72-.26,1,1,0,0,1-.45-.62,1.41,1.41,0,0,1,0-.71,1.44,1.44,0,0,0,.11.66.84.84,0,0,0,.44.41,2.3,2.3,0,0,0,1.25,0h.1a6.14,6.14,0,0,0,3.91-.59,2.85,2.85,0,0,0,1.21-1.32,1.88,1.88,0,0,0-.15-1.63,3.18,3.18,0,0,0-.59-.69c-.25-.19-.5-.39-.83-.63a5.91,5.91,0,0,1-1.56-1.67A5.15,5.15,0,0,1,60.14,52.56Z"/><path class="cls-8" d="M64.31,6.39A37.17,37.17,0,0,0,50,6.48C27.5,11.07,13.5,35.49,18.71,61c.1.49.21,1,.32,1.46-.82,0-1.66,0-2.5.09q-.26-1.07-.48-2.16C10.84,34.89,24.83,10.47,47.31,5.88A37,37,0,0,1,64.31,6.39Z"/><path class="cls-9" d="M20.48,62.63c0-.12.22.06.1.12s-.25,0-.33-.13a8.31,8.31,0,0,0-3.75-2.24,4.11,4.11,0,0,0-3.14.14C12,61.28,11.8,63,12,64.32a10.87,10.87,0,0,0,3.09,5.89,11.3,11.3,0,0,0,11.7,2.69"/><path class="cls-10" d="M20.48,62.63c0-.11.18,0,.13.1a.19.19,0,0,1-.24,0A4.17,4.17,0,0,1,20,62.4a7.73,7.73,0,0,0-.77-.62,8.65,8.65,0,0,0-1.75-.93,5.09,5.09,0,0,0-3.76-.29,3,3,0,0,0-1.52,3.16,9.35,9.35,0,0,0,1.15,3.69,11.18,11.18,0,0,0,2.4,3.07,12,12,0,0,0,3.32,2.07,10.9,10.9,0,0,0,7.75.35,10.13,10.13,0,0,1-3.93.78,12.22,12.22,0,0,1-4-.77,11.49,11.49,0,0,1-6-5.26,10.08,10.08,0,0,1-1.17-3.91,4.73,4.73,0,0,1,.33-2.06,2.77,2.77,0,0,1,1.5-1.47,5.31,5.31,0,0,1,4,.42,8.47,8.47,0,0,1,1.72,1.06,6.68,6.68,0,0,1,.74.67c.13.11.23.26.35.35a.17.17,0,0,0,.22,0S20.52,62.53,20.48,62.63Z"/><path class="cls-4" d="M17,64.73a14,14,0,0,1,1.59.92c.4.27.83.71.65,1.16s-.67.52-.78.91.32.77.73.84.83,0,1.24,0a1.67,1.67,0,0,1,1.32,1,1.08,1.08,0,0,1,.09.59A1.12,1.12,0,0,1,20.7,71a3.17,3.17,0,0,1-1.44-.49,11.4,11.4,0,0,1-2.79-2C15.25,67.2,13.39,63,17,64.73Z"/><path class="cls-5" d="M24,71.36s4.34,3.82,1.85,5.84S22,73.49,22,73.49s2.66,4.21,2.34,1Z"/><path class="cls-11" d="M13,31.86S-.75,39.67,7.33,44.47,24.66,48,18.9,33.61c-3.62-9,1.85-3.63,1.85-3.63s15.79-12.67-.38-15.33c-14.95-2.47-5,12.35-5,12.35S10.52,26.15,13,31.86Z"/><ellipse class="cls-12" cx="15.24" cy="16.4" rx="1.42" ry="1.22" transform="translate(-2.85 3.21) rotate(-10.99)"/><ellipse class="cls-12" cx="8.35" cy="38.05" rx="1.42" ry="1.22" transform="translate(-7.1 2.29) rotate(-10.99)"/><ellipse class="cls-12" cx="7.82" cy="42.37" rx="1.42" ry="1.22" transform="translate(-7.93 2.27) rotate(-10.99)"/><ellipse class="cls-12" cx="13.11" cy="39.08" rx="1.42" ry="1.22" transform="translate(-7.21 3.22) rotate(-10.99)"/><ellipse class="cls-12" cx="16.71" cy="36.08" rx="1.42" ry="1.22" transform="translate(-6.57 3.85) rotate(-10.99)"/><ellipse class="cls-12" cx="17.88" cy="41.6" rx="1.42" ry="1.22" transform="translate(-7.6 4.17) rotate(-10.99)"/><ellipse class="cls-12" cx="13.17" cy="43.88" rx="1.42" ry="1.22" transform="translate(-8.12 3.32) rotate(-10.99)"/><ellipse class="cls-12" cx="12.23" cy="34.97" rx="1.42" ry="1.22" transform="translate(-6.44 2.97) rotate(-10.99)"/><ellipse class="cls-12" cx="14.41" cy="21.67" rx="1.42" ry="1.22" transform="translate(-3.87 3.15) rotate(-10.99)"/><ellipse class="cls-12" cx="23.95" cy="19.15" rx="1.42" ry="1.22" transform="translate(-3.21 4.92) rotate(-10.99)"/><ellipse class="cls-12" cx="20.6" cy="15.84" rx="1.42" ry="1.22" transform="translate(-2.64 4.22) rotate(-10.99)"/><ellipse class="cls-12" cx="18.75" cy="20.16" rx="1.42" ry="1.22" transform="translate(-3.5 3.94) rotate(-10.99)"/><ellipse class="cls-12" cx="17.48" cy="24.33" rx="1.42" ry="1.22" transform="translate(-4.32 3.78) rotate(-10.99)"/><ellipse class="cls-12" cx="22.28" cy="23.71" rx="1.42" ry="1.22" transform="translate(-4.11 4.68) rotate(-10.99)"/><ellipse class="cls-12" cx="20.17" cy="26.85" rx="1.42" ry="1.22" transform="translate(-4.75 4.34) rotate(-10.99)"/><ellipse class="cls-11" cx="16.71" cy="30.4" rx="3.27" ry="4.38" transform="translate(-17.61 35.4) rotate(-69.51)"/></svg>