<svg xmlns="http://www.w3.org/2000/svg" viewBox="0 0 101.76 85.17"><defs><style>.cls-1{isolation:isolate;}.cls-2{fill:#5c5548;}.cls-3{fill:#424036;}.cls-4{fill:#fad2c6;stroke:#323232;stroke-width:0.25px;}.cls-4,.cls-7{stroke-miterlimit:10;}.cls-5{fill:#e4a58c;}.cls-6{fill:#421b16;}.cls-7{fill:#311415;stroke:#211e1f;stroke-width:0.5px;}.cls-8{fill:#90856e;}.cls-9{fill:#605e44;}.cls-10,.cls-13{fill:#9e9580;opacity:0.5;}.cls-10,.cls-12{mix-blend-mode:multiply;}.cls-11,.cls-12{fill:#676254;}.cls-12{opacity:0.4;}.cls-13{mix-blend-mode:screen;}.cls-14{fill:#c28974;}</style></defs><g class="cls-1"><g id="Layer_1" data-name="Layer 1"><path class="cls-2" d="M15.19,41.93a24.34,24.34,0,0,0-4.54,5.46C8,51.43,2.56,62.73,3,66.56s23.36-6.41,53.65-17.83S97,28.65,96.65,26.86s-10.32-6.63-20.19-7.81-21.84,2.83-36.13,8.2A94.31,94.31,0,0,0,15.19,41.93Z"/><path class="cls-3" d="M36.61,29a95.81,95.81,0,0,0-21.3,13.1,24.46,24.46,0,0,0-4.52,5.43c-2.8,4.18-8,15.36-7.6,19a.6.6,0,0,0,.28.43C5.65,68.38,18.39,63.4,36,56.51c6.2-2.42,13.22-5.16,20.6-7.95,5-1.9,9.8-3.83,14.12-5.73,20.34-8.94,26-14.81,25.74-15.94-.37-1.68-10.29-6.5-20-7.67-10-1.19-22.24,3-36.06,8.2C39.15,27.89,37.87,28.41,36.61,29Z"/><path class="cls-4" d="M74.86,28.73c.72.72,2.06,1.61,1.68,3.92-2,12.38-.94,15.69-1,30.24,0,10.76-9.8,20.18-19.89,20.24-12.4.09-27.3-3.26-31.21-26.83-1.72-10.37-5.93-21.1-4.62-24.85C24.27,18.78,30.62,20,46.1,20,60.58,20,66.71,20.52,74.86,28.73Z"/><path class="cls-5" d="M75.7,47.56S71.62,27.93,62.62,33c-9.81,5.49-15,1.84-19,3.78C34.74,41,27.5,57.18,22,48.55s18-25.83,18-25.83,23.19-7.87,24.93-7.59S76,26.28,76,26.28Z"/><path class="cls-6" d="M66,39.69a.74.74,0,0,1-.93-.89l.05-.22c.29-1.17,1.84-1.51,2.77-1.34,1.4.25,3.43.49,5.22,4,.15.3-.15.67-.37.47C71.41,40.54,68.6,39,66,39.69Z"/><path class="cls-6" d="M47.4,40.53a.74.74,0,0,0,.94-.88l-.05-.22c-.26-1.18-1.81-1.53-2.74-1.38-1.41.23-3.44.44-5.29,3.92-.15.29.15.67.37.48C42,41.29,44.81,39.77,47.4,40.53Z"/><path class="cls-7" d="M63.73,25.44s-.22,12.61-21.35,7.7c0,0,21.29-7.49-1.62-8.42,0,0,4.6,6.88-10.37,4.73,0,0,11.29,8-3.91,20.78,0,0-2.9,1-1.79,8.32.08.53.18,1.09.31,1.68,1.85,8.83-.23-1.15-.23-1.15s-8.39-1.29-8.65-11c0,0-6.9-6.78-2-15.54,0,0-4.51-11.63,9-14.68,0,0,3-12,11.29-11.75,0,0,11.52-9.38,20.91.54,0,0,9.22-3.42,15.61,7.47,0,0,8.59,4.28,6.68,11.94,0,0,7,3.85.81,10,0,0,5.51,4.63-1,9.55l-2,7.13.28-5.1A23.55,23.55,0,0,0,64.3,25.77Z"/><path class="cls-8" d="M76.46,19.05c-9.85-1.19-21.84,2.83-36.13,8.2A94.31,94.31,0,0,0,15.19,41.93a24.34,24.34,0,0,0-4.54,5.46C8,51.43,2.56,62.73,3,66.56c0-2.63,7.65-16.43,47.53-31.84,26.05-10.07,40.17-10.23,45.69-8.48C94.29,24.14,85.35,20.11,76.46,19.05Z"/><path class="cls-9" d="M96.33,26.41a.17.17,0,0,1-.12,0c-3.06-1-15.37-3.2-45.58,8.47-3.52,1.37-6.91,2.77-10.1,4.16C9.56,52.65,3.21,64.22,3.2,66.57a.18.18,0,0,1-.16.18.2.2,0,0,1-.19-.17c-.49-4,5.14-15.53,7.65-19.3a24,24,0,0,1,4.58-5.49A96.32,96.32,0,0,1,36.46,28.64c1.27-.57,2.55-1.08,3.8-1.56,13.86-5.21,26.14-9.42,36.23-8.21,8.87,1.06,17.85,5.06,19.89,7.25a.2.2,0,0,1,0,.22A.27.27,0,0,1,96.33,26.41Z"/><path class="cls-10" d="M16.23,48.79c1.06-4.53,4.4-8.54,7.38-11.69a50.36,50.36,0,0,1,3.91-3.69,92.84,92.84,0,0,0-12.33,8.52,24.34,24.34,0,0,0-4.54,5.46C8,51.43,2.56,62.73,3,66.56c0-1.6,2.81-7.3,13.92-15A3,3,0,0,1,16.23,48.79Z"/><path class="cls-10" d="M60.26,21.19a59.13,59.13,0,0,1,10.54.4c2.64.34,6,1.32,6.92,4.44a2.7,2.7,0,0,1,.14.56c9.32-1.72,15.25-1.34,18.39-.35-2-2.1-10.9-6.13-19.79-7.19-5.93-.72-12.63.46-20.15,2.67A31.21,31.21,0,0,1,60.26,21.19Z"/><path class="cls-8" d="M10.54,45.2S4,32.65,15.43,17.1C27.84.27,49.38.42,56.43,2.27S72.11,10.2,75.86,17.58c0,0-23,4.8-33.09,9S15.27,39.73,10.54,45.2Z"/><path class="cls-9" d="M40.37,27.41c.81-.36,1.58-.7,2.32-1,9.44-3.94,30.51-8.45,32.9-9-4-7.6-12.62-13.29-19.19-15C51.53,1.18,40.64.89,30.53,5.33a36.64,36.64,0,0,0-15,11.89c-10.41,14.11-5.8,25.86-5,27.66C15.39,39.55,31,31.54,40.37,27.41Z"/><path class="cls-10" d="M63.74,13.31c-.81,3.58-3.65,5.88-6.32,7.67-.92.62-1.87,1.19-2.83,1.73,10.16-2.81,21.27-5.13,21.27-5.13C72.39,10.76,64.77,5,58.05,2.75,61.51,4.91,64.75,8.87,63.74,13.31Z"/><path class="cls-10" d="M29.91,30.74c-4,.7-8.48,1.29-12.63.08-3.61-1.05-5.55-3.2-6.35-5.87-4.86,11.71-.39,20.25-.39,20.25,3.87-4.48,16.25-11.3,26.14-15.92C34.44,29.85,32.18,30.35,29.91,30.74Z"/><path class="cls-11" d="M41.81,24.6c8.1-3.44,31-9.19,33.8-8.55A14.15,14.15,0,0,1,77,19.25c0,.63-11.89.56-31.54,8.32C19.62,37.79,11.7,46.71,11.09,47.1s-1.48-2.86-1.35-3.45S18.25,34.62,41.81,24.6Z"/><path class="cls-3" d="M77,19.52a13.41,13.41,0,0,1-2.31.42,121.26,121.26,0,0,0-29.12,7.8c-2.36.93-4.68,1.9-6.88,2.87C30.41,34.23,19,40,11.64,46.86a4.64,4.64,0,0,1-.46.4l0,0a.37.37,0,0,1-.44-.1,6.8,6.8,0,0,1-1.13-3.57c.12-.56,8.32-9,32.17-19.17,8-3.38,31.08-9.22,33.91-8.56l.07,0,.05.07c.15.27,1.46,2.64,1.41,3.3C77.17,19.43,77,19.5,77,19.52Z"/><path class="cls-12" d="M75.61,16.05c-1.56-.36-9.6,1.33-17.75,3.48.29,0,.59-.05.9-.09,8.26-1.15,3.09,1.62-3,3.26a123.71,123.71,0,0,0-21,7.73c-8.7,4-12.18,3.43-5.26,0a13.82,13.82,0,0,0,1.35-.77c-15.3,7.67-21.06,13.53-21.16,14s.74,3.85,1.35,3.45,8.53-9.31,34.37-19.53C65.11,19.81,77,19.88,77,19.25A14.15,14.15,0,0,0,75.61,16.05Z"/><path class="cls-13" d="M20.24,47.78S34.77,36.85,73.56,26C73.56,26,41.85,31.45,20.24,47.78Z"/><path class="cls-4" d="M26.15,62.22C24.41,57,21.85,55.09,19,55.81c-3.1.77-3.73,3.2-2.48,7.54,1.61,5.54,8.56,8.21,12.08,6.13"/><path class="cls-5" d="M18.38,61.31s-1.56-2.92,1.92-3.16,2.75,4.43,4.11,6,3.85,2.85,2.5,3.59S20.33,67.91,18.38,61.31Z"/><path class="cls-14" d="M62.12,58.87A3.19,3.19,0,0,1,63,61.35a1.91,1.91,0,0,1-.82,1.31,3.36,3.36,0,0,1-1.37.5,3.63,3.63,0,0,1-2.69-.62,3.52,3.52,0,0,1-1.37-2.23,5.46,5.46,0,0,0,1.78,1.57,3.5,3.5,0,0,0,2.14.29c.74-.1,1.37-.36,1.57-1A4.44,4.44,0,0,0,62.12,58.87Z"/></g></g></svg>