<svg id="Layer_1" data-name="Layer 1" xmlns="http://www.w3.org/2000/svg" viewBox="0 0 28 17"><defs><style>.cls-1{fill:#551514;}.cls-2{fill:#fff;}.cls-3{fill:#d72b5d;}.cls-4{fill:#bb7757;}.cls-5{fill:#dc9e8f;}</style></defs><g id="EE"><path class="cls-1" d="M25.44,10.68s-4-1-4.81-1.23c-1.12-.34-2.28-.7-3.38-1.15C15.36,7.53,13.44,6.8,11.56,6A16.66,16.66,0,0,1,8.89,4.69a10.63,10.63,0,0,0-2.35-1.2A6.44,6.44,0,0,0,5,3.14L3.1,1.64A8.43,8.43,0,0,0,3.32,5.1c.16.65.57,1.75.73,2.41.57,2.35,2.89,3.66,5.34,5a17.27,17.27,0,0,0,4.44,1.62,8.87,8.87,0,0,0,3.06.47c.38-.06.51.07.87,0,.55-.16,1.68,0,2.17-.34s1.36-.49,2-.83A44.49,44.49,0,0,0,25.44,10.68Z"/><path class="cls-2" d="M21.18,10.2,19.65,9.09c-.12-.08-6-2.15-6-2.15S8,4.35,7.89,4.33,6.2,3.88,6.2,3.88a14.63,14.63,0,0,0,.45,2.33c.48.71,2.59,1.79,6.06,3.24s5.29,2,6.52,1.92C19.89,11.35,21.18,10.2,21.18,10.2Z"/><path class="cls-3" d="M7.07,10.81c.8,1.07,1.64,1.68,4.18,2.71a9.6,9.6,0,0,0,4.89.78c.11-.69-1.75-2.09-3-2.31s-2.69-1.16-3.53-1.33S7.59,10.35,7.07,10.81Z"/><path class="cls-2" d="M19.58,14.12s-2.25-.29-3.42-.57-4.23-1.25-4.23-1.25-2.79-1.16-3.67-1.66c-1-.6-3.55-2.11-3.55-2.11l2.8,4.38L11,14.62h0l.29.14,0,0,3.66,1.12Z"/><path class="cls-4" d="M25.44,10.68a18,18,0,0,1-5.86,3.44,12.28,12.28,0,0,1-8.14,0A14.73,14.73,0,0,1,4.36,7.55,14.26,14.26,0,0,1,3.1,1.64S1.8,12.08,10.73,15.7C18.89,19,25.44,10.68,25.44,10.68Z"/><path class="cls-4" d="M13.8,6.75C9.58,5.09,3.1,1.64,3.1,1.64s1.22,2.24,10.42,6c10.55,4.28,11.92,3.08,11.92,3.08S18.13,8.45,13.8,6.75Z"/><path class="cls-5" d="M3.21,1.06c.55-.26,0-.52-.4-.24S2.14,2,2.14,2A13.08,13.08,0,0,1,3.21,1.06Z"/><path class="cls-5" d="M25.34,10c-.37-.5.2-.49.47,0s-.13,1.25-.13,1.25C25.52,10.27,25.46,10.2,25.34,10Z"/></g></svg>