<svg id="Layer_1" data-name="Layer 1" xmlns="http://www.w3.org/2000/svg" viewBox="0 0 33.08 26.65"><defs><style>.cls-1{fill:#fad2c6;stroke:#5f4a43;}.cls-1,.cls-3{stroke-miterlimit:10;stroke-width:0.25px;}.cls-2{fill:#e7b4a7;}.cls-3{fill:#fcde7d;stroke:#323232;}</style></defs><path class="cls-1" d="M24.09,12.22c-4.33,1.86-7.35,5.12-11.45,6.88a22.56,22.56,0,0,1-4.33,1.81L7.16,16.62a12.53,12.53,0,0,1,3.41-2.42C13.69,12.54,18,11.09,22.14,9,22.54,8.82,24.5,12,24.09,12.22Z"/><path class="cls-1" d="M20.46,9.82c-.07-.73.11-3,.17-5.74,0-.43.89,0,1.11.52.45,1.18.24,1.6.52,2.19s.79.44,1.29.09c1.94-2.41,2.8-4,3.71-3.8.73.27-.38,2.11-1.73,4.13,2.18-1.48,4-2.49,4.34-1.86s-1.5,2.05-3.08,3.39c2,0,4.08-.65,4.1.4,0,.77-4.18,1.34-3.84,2,.11.23.51.32,1.12.48a3.68,3.68,0,0,1,1.59.64c.28.34-.08.63-.71.68-1.05.1-3.44.23-4.63.21A3.54,3.54,0,0,1,22.55,13"/><path class="cls-1" d="M22.55,7.12c.12,0,1.67.49,1,2.59"/><path class="cls-2" d="M11.37,19.45a8,8,0,0,1-2.59,1l-1.9-3.52a12.63,12.63,0,0,1,3.4-2.42A46.65,46.65,0,0,1,11.37,19.45Z"/><path class="cls-3" d="M3.4,26l6.29-4.75s.42-3.93-1.24-6.35a51.67,51.67,0,0,0-7.46,3"/></svg>