<svg id="Layer_1" data-name="Layer 1" xmlns="http://www.w3.org/2000/svg" xmlns:xlink="http://www.w3.org/1999/xlink" viewBox="0 0 79.97 17.87"><defs><style>.cls-1{fill:none;}.cls-2{clip-path:url(#clip-path);}.cls-3{fill:#ff6425;}.cls-4{fill:#ffa724;}.cls-5{fill:#fff18b;}.cls-6{fill:#281b17;}.cls-7{fill:#473a3a;}.cls-8{fill:#5e5454;}</style><clipPath id="clip-path"><path class="cls-1" d="M33.42.64s9-.06,10.8.12c0,0,3.21,3.73.78,6.79s-6,5.27-8.86,4S30.53,4.39,33.42.64Z"/></clipPath></defs><g class="cls-2"><path class="cls-3" d="M39.13,8.67c-1.48,0-3.66-.81-3.66-3.12s1.38-2.94,1.38-2.94a2,2,0,0,0-.36,1.06,3.29,3.29,0,0,1,2-1.74c1.3-.34,2.19-.45,2.71-1.47a1.52,1.52,0,0,1-.52,1.43A2.57,2.57,0,0,0,42.54-.64a2.07,2.07,0,0,1,.2,1.71A2.8,2.8,0,0,1,40.39,3c-1.29.25-2.21,1.06-2.21,2a.89.89,0,0,0,1,.86A.81.81,0,0,0,40,5c0-.68-.79-1-.79-1a2.17,2.17,0,0,1,2,.4c-.1-.33-.72-.66-.72-.66a2,2,0,0,1,1.76,2.13A3.14,3.14,0,0,1,39.13,8.67Z"/><path class="cls-3" d="M38.81-3.77c.39.16,1.25.76,1.32,1.48S39.76-.8,39.87-.41a1.2,1.2,0,0,0,.73.89,2.57,2.57,0,0,1-1.66.85c-1.27.23-1.34-.48-1.24-1,.28-1.41,1.56-1.4,1.62-2.71A1.51,1.51,0,0,0,38.81-3.77Z"/><path class="cls-3" d="M37.94-1.11c-1.76,1.77-.51,2.75-.51,2.75A1.13,1.13,0,0,1,36.25.12,2,2,0,0,1,37.94-1.11Z"/><path class="cls-3" d="M41.57,3.49A2.42,2.42,0,0,1,42.87,5a2.56,2.56,0,0,1-.66,2.63c.49-.15,1.35-.53,1.35-2.16A2.18,2.18,0,0,0,41.57,3.49Z"/><path class="cls-3" d="M35.09,4.72a2.64,2.64,0,0,0,1.34,3.49C35.54,8,34.87,7.77,34.61,7A2.63,2.63,0,0,1,35.09,4.72Z"/><path class="cls-4" d="M39.13,8.67a3.08,3.08,0,0,1-2.86-3.09c.5,1.44,1.4,1.64,1.4,1.64a2.2,2.2,0,0,1-.23-2.5,1.82,1.82,0,0,0,1.69,2,1.45,1.45,0,0,0,1.31-1.47,1.9,1.9,0,0,1-.28,2.07,3.26,3.26,0,0,0,1.41-1.17C41.64,7.44,39.92,8.67,39.13,8.67Z"/><path class="cls-5" d="M39.13,8.67a2,2,0,0,1-1.26-.85c.38.21.77-.34.58-.79a1.5,1.5,0,0,0,1.75.56C40.16,8.14,39.56,8.53,39.13,8.67Z"/><path class="cls-4" d="M38.41.75C38,.9,38-.15,38.8-.84,38.8-.32,38.85.6,38.41.75Z"/></g><path class="cls-6" d="M22.92,17c.85-.59,9.83-6.43,10-6.54a1.75,1.75,0,0,0-.33-.13l-.38-.44c-.16,0-9.93,6.48-10.75,7Z"/><path class="cls-6" d="M53.85,17.24l1.28-.08c-.65-.47-9.6-7.47-9.78-7.51l-1.26.22.31.07C44.58,10.06,53.15,16.74,53.85,17.24Z"/><path class="cls-7" d="M46.86,7.75v3.38L31,11.07V7.47a10.71,10.71,0,0,1,3.47-.62A56.79,56.79,0,0,1,44.86,7S46.38,7.13,46.86,7.75Z"/><ellipse class="cls-8" cx="38.91" cy="11.03" rx="7.94" ry="1.58"/><path class="cls-8" d="M31.38,8.07c-.25,0-27.27-4.35-28.51-4.68"/><path class="cls-6" d="M31.38,8.47V7.65c-.17,0-26.61-4.2-28-4.58l-2.31.38C1.94,3.68,30.89,8.47,31.38,8.47Z"/><path class="cls-8" d="M46.16,7.68c.25,0,23.78-3.5,26.61-3.54"/><path class="cls-6" d="M46.16,8.09l3.65-.51c6.76-1,27-4.13,29.08-4.16L76.19,3C74,3,56.47,5.8,49.69,6.77l-3.56.51Z"/></svg>