<svg id="Layer_1" data-name="Layer 1" xmlns="http://www.w3.org/2000/svg" viewBox="0 0 80.93 83.96"><defs><style>.cls-1,.cls-6{fill:#3e2c13;}.cls-1{stroke:#3e2c13;stroke-width:0.25px;}.cls-1,.cls-3,.cls-8{stroke-miterlimit:10;}.cls-2{fill:#fff;}.cls-3,.cls-9{fill:#fbd3c7;}.cls-3{stroke:#323232;stroke-width:0.5px;}.cls-4{fill:#dd9f8f;}.cls-5{fill:#e9d960;}.cls-7{fill:#a77d48;}.cls-8{fill:#ad6327;stroke:#c87929;stroke-width:0.75px;}.cls-10{fill:#323232;}.cls-11{fill:#ef4b3b;}.cls-12{fill:#f59a91;}</style></defs><path class="cls-1" d="M63.92,71.07c-2.87,8.65-9.28,11-19.86,9.84-.52-.06.38-4.29-.18-4.32-3.05-.17-7.47-2.91-11.31-2.88-.77,0-1.55,5.62-2.25,5.34C14.57,72.8,2.79,70.29,7.14,48.85,9.62,36.59,27.31,31.68,43.39,37S67.85,59.2,63.92,71.07Z"/><path class="cls-1" d="M66,49.17c.32.72,2,24-7.73,29.48a19.25,19.25,0,0,1-14,2.34c-.13,0-1.68-3.6-1.71-3.6Z"/><path class="cls-2" d="M46.67,71.54s5.38.56,7.21,4.58C52.26,76.68,50.61,77.45,46.67,71.54Z"/><path class="cls-3" d="M65.65,54.58c0-.11-.16.05-.08.1s.18,0,.25-.11a6.7,6.7,0,0,1,2.93-1.87,2.63,2.63,0,0,1,2.31.17c.92.67,1,2.11.69,3.28a10.65,10.65,0,0,1-2.72,5c-2.31,2.41-6,3.58-8.81,2.15"/><path class="cls-4" d="M68.05,56.44a9.37,9.37,0,0,0-1.24.76c-.32.23-.67.6-.57,1s.46.46.51.8a.7.7,0,0,1-.6.7c-.31.06-.61,0-.92,0a1.41,1.41,0,0,0-1,.83,1.3,1.3,0,0,0-.11.51.79.79,0,0,0,.79.73,2.25,2.25,0,0,0,1.1-.41,9.31,9.31,0,0,0,2.2-1.68C69.16,58.58,70.84,55,68.05,56.44Z"/><path class="cls-5" d="M62.39,62s-3.49,3.22-1.81,5,3.14-3.14,3.14-3.14-2.28,3.58-1.81.86Z"/><path class="cls-3" d="M71.25,44.65c-.31.36-4.9,14.28-6.72,20.92C62.4,73.34,52.3,81.42,43,80.28c-11.37-1.39-21-6.89-24.62-16.44s-.8-21.61-.8-21.61-7.12-13.82,5.28-22.54,26-10.91,41.92-4S71.25,44.65,71.25,44.65Z"/><path class="cls-4" d="M28.74,35c.6-.18,14.32-8.82,14.32-8.82s-7,5.66-3.76,5.72c.91,0,9.17-2.27,12.25-5.1,0,0-2,4.91-4.89,5.32,0,0,11.23,3.13,16.43-5,0,0-2.31,4.42,5.58,10.09,6.12,4.4.85,12.16.85,12.16L75,31.74l-6.25-9.18L50.44,17.74l-16,1.75L26.69,31,17.61,42.23Z"/><path class="cls-1" d="M68.56,52.41c.65-2.52,1.77-10.16.79-12.57-2-4.84-5.27-6.11-7-8-1.14-1.21-.14-5.57-1.1-6.93s-.08,1.77,0,0c-1.2,2.5-1.11,4.31-3.72,5.24a19.9,19.9,0,0,1-7.71.95,11.79,11.79,0,0,0,3.68-3.59c.94-1.66,1.1-3.63,1.61-5.48a30,30,0,0,1-16.24,8.85,13.91,13.91,0,0,0,5.39-7.49,4.66,4.66,0,0,0-2.4,1.16,87.59,87.59,0,0,1-13,8.71c.06-.76-.24-1.45-.18-2.21C26,35.8,17,44,17.12,43.67c0,0-7,24.77,11,34.42a36.64,36.64,0,0,1-15.48-4.73c-8.89-4.87-13-15.24-5.48-29.8s4.39-21.42,10.35-29.92c7.1-10.12,27.3-20.79,52.31,1.44,0,0,12.48,7.2,2.52,31.51C72.32,46.59,68.36,53.21,68.56,52.41Z"/><path class="cls-6" d="M60.19,39.85s4.85-.27,6.54,3.53a.16.16,0,0,0,.3-.05A4,4,0,0,0,64.15,39C59.71,37.34,60.19,39.85,60.19,39.85Z"/><path class="cls-6" d="M42.28,36.13s-5.11-1.8-8.23,1.27c-.13.12-.35,0-.31-.15C34,36.2,35,34.11,38.33,34,43.66,33.91,42.28,36.13,42.28,36.13Z"/><path class="cls-7" d="M51.8,52.06a4.84,4.84,0,0,0-.66,3.44,5.4,5.4,0,0,0,.63,1.6c.14.23.31.52.49.84A3.34,3.34,0,0,1,52.55,59a2.42,2.42,0,0,1-.8,2.08,3.06,3.06,0,0,1-2,.74,5.28,5.28,0,0,1-3.62-1.51l.08,0a2.15,2.15,0,0,1-1-.83.92.92,0,0,1-.12-.66,1.29,1.29,0,0,1,.33-.54,1.16,1.16,0,0,0-.16.56.7.7,0,0,0,.18.48,2,2,0,0,0,1,.48h0l.06,0a5.3,5.3,0,0,0,3.24,1,2.37,2.37,0,0,0,1.41-.55,1.53,1.53,0,0,0,.49-1.27,2.3,2.3,0,0,0-.19-.75c-.11-.23-.23-.49-.4-.8a5.31,5.31,0,0,1-.56-1.93A4.43,4.43,0,0,1,51.8,52.06Z"/><path class="cls-8" d="M72.82,17.73a32,32,0,0,0-11.19-5.44C42.37,7.21,22.08,20.83,16.32,42.7c-.12.42-.22.84-.32,1.26-.64-.32-1.3-.62-2-.9.13-.62.28-1.24.44-1.86C20.24,19.33,40.53,5.72,59.79,10.8A32.18,32.18,0,0,1,72.82,17.73Z"/><path class="cls-9" d="M17.07,44.63c.06-.09.15.13,0,.13s-.17-.12-.2-.22a7.28,7.28,0,0,0-2.06-3.19,3.57,3.57,0,0,0-2.5-1.1,3.1,3.1,0,0,0-2.5,2.44A9.34,9.34,0,0,0,10,48.46,9.82,9.82,0,0,0,18,55.06"/><path class="cls-10" d="M17.07,44.63c.07-.07.13.09.07.13a.18.18,0,0,1-.2-.09,2.23,2.23,0,0,1-.16-.4,7,7,0,0,0-.37-.78,7.26,7.26,0,0,0-1-1.39,4.38,4.38,0,0,0-2.8-1.66,2.6,2.6,0,0,0-2.37,1.86,8.21,8.21,0,0,0-.53,3.3,9.89,9.89,0,0,0,2.47,6.19A9.53,9.53,0,0,0,18,55.06a8.83,8.83,0,0,1-3.36-.89A10.55,10.55,0,0,1,11.88,52a10,10,0,0,1-2.67-6.42,8.59,8.59,0,0,1,.6-3.5,4,4,0,0,1,1.06-1.48,2.38,2.38,0,0,1,1.75-.58,4.64,4.64,0,0,1,3,1.88,7.39,7.39,0,0,1,.92,1.49,6.32,6.32,0,0,1,.32.82,2.83,2.83,0,0,0,.14.41.14.14,0,0,0,.16.09C17.19,44.73,17.14,44.57,17.07,44.63Z"/><path class="cls-4" d="M13.56,44.94a9.84,9.84,0,0,1,.89,1.32c.2.36.37.87.06,1.15s-.73.15-1,.41-.05.72.24.93.66.29,1,.48a1.42,1.42,0,0,1,.64,1.28,1,1,0,0,1-.15.5,1,1,0,0,1-1.22.2,2.79,2.79,0,0,1-.93-.94,10,10,0,0,1-1.4-2.64C11.25,46.17,11.42,42.19,13.56,44.94Z"/><path class="cls-5" d="M16.46,52.79s1.92,4.64-.8,5.26-1.6-4.39-1.6-4.39.46,4.3,1.43,1.71Z"/><path class="cls-11" d="M23.1,17.82s-13.71.77-9.28,7.62S26,34.84,27,21.44c.65-8.42,2.84-2.11,2.84-2.11S47,15.55,35.45,7.25c-10.69-7.67-8.66,7.69-8.66,7.69S23.36,12.41,23.1,17.82Z"/><ellipse class="cls-12" cx="30.78" cy="6.64" rx="1.06" ry="1.23" transform="translate(16.24 34.57) rotate(-74.68)"/><ellipse class="cls-12" cx="17.09" cy="20.84" rx="1.06" ry="1.23" transform="matrix(0.26, -0.96, 0.96, 0.26, -7.52, 31.81)"/><ellipse class="cls-12" cx="15.01" cy="23.99" rx="1.06" ry="1.23" transform="translate(-12.09 32.13) rotate(-74.68)"/><ellipse class="cls-12" cx="20.39" cy="23.47" rx="1.06" ry="1.23" transform="translate(-7.63 36.94) rotate(-74.68)"/><ellipse class="cls-12" cx="24.35" cy="22.52" rx="1.06" ry="1.23" transform="translate(-3.8 40.06) rotate(-74.68)"/><ellipse class="cls-12" cx="23.14" cy="27.26" rx="1.06" ry="1.23" transform="translate(-9.27 42.38) rotate(-74.68)"/><ellipse class="cls-12" cx="18.6" cy="27.22" rx="1.06" ry="1.23" transform="translate(-12.57 37.97) rotate(-74.68)"/><ellipse class="cls-12" cx="21.3" cy="19.93" rx="1.06" ry="1.23" transform="translate(-3.55 35.21) rotate(-74.68)"/><ellipse class="cls-12" cx="28.11" cy="10.42" rx="1.06" ry="1.23" transform="translate(10.63 34.78) rotate(-74.68)"/><ellipse class="cls-12" cx="36.5" cy="12.13" rx="1.06" ry="1.23" transform="translate(15.15 44.13) rotate(-74.68)"/><ellipse class="cls-12" cx="35.17" cy="8.27" rx="1.06" ry="1.23" transform="matrix(0.26, -0.96, 0.96, 0.26, 17.9, 40)"/><ellipse class="cls-12" cx="32.06" cy="10.92" rx="1.06" ry="1.23" transform="translate(13.06 38.96) rotate(-74.68)"/><ellipse class="cls-12" cx="29.48" cy="13.67" rx="1.06" ry="1.23" transform="translate(8.5 38.49) rotate(-74.68)"/><ellipse class="cls-12" cx="33.44" cy="15.04" rx="1.06" ry="1.23" transform="translate(10.1 43.32) rotate(-74.68)"/><ellipse class="cls-12" cx="30.6" cy="16.66" rx="1.06" ry="1.23" transform="translate(6.44 41.77) rotate(-74.68)"/><ellipse class="cls-11" cx="26.54" cy="18.1" rx="2.84" ry="3.8" transform="translate(-5.2 23.07) rotate(-43.19)"/></svg>