<svg id="Layer_1" data-name="Layer 1" xmlns="http://www.w3.org/2000/svg" viewBox="0 0 46.2 47.46"><defs><style>.cls-1,.cls-6{fill:#3d2d16;}.cls-1{stroke:#3d2d16;}.cls-1,.cls-3{stroke-miterlimit:10;stroke-width:0.25px;}.cls-2{fill:#fff;}.cls-3,.cls-9{fill:#fad2c6;}.cls-3{stroke:#323232;}.cls-4{fill:#dc9e8f;}.cls-5{fill:#e8d860;}.cls-7{fill:#a67d48;}.cls-8{fill:#ef4b3b;}.cls-10{fill:#323232;}.cls-11{fill:#f49990;}</style></defs><path class="cls-1" d="M36.52,41.39c-2.64,6.49-9.52,5.29-19.27.75-.1,0-.61,2.3-.7,2.26C7.87,40.28,2,38.7,5.25,26.74c1.85-6.83,12-9,20.92-5.35S39.18,34.82,36.52,41.39Z"/><path class="cls-1" d="M38.49,29.09c.15.41.27,13.67-5.45,16.37-2.8,1.32-7.78.59-7.81.59Z"/><path class="cls-2" d="M26.75,41s3,.51,3.91,2.85C29.72,44.13,28.76,44.5,26.75,41Z"/><path class="cls-3" d="M38.1,32.13c0-.06-.09,0-.05.06s.11,0,.15-.06a3.81,3.81,0,0,1,1.72-1,1.51,1.51,0,0,1,1.3.18,1.83,1.83,0,0,1,.27,1.88A6,6,0,0,1,39.77,36a4.43,4.43,0,0,1-5.06.89"/><path class="cls-4" d="M39.39,33.27a5.12,5.12,0,0,0-.73.39c-.19.11-.4.31-.36.53s.24.28.26.47a.41.41,0,0,1-.36.38c-.18,0-.35,0-.52,0a.79.79,0,0,0-.63.43,1,1,0,0,0-.08.28.45.45,0,0,0,.42.44A1.21,1.21,0,0,0,38,36a5.24,5.24,0,0,0,1.31-.87C39.93,34.52,41,32.56,39.39,33.27Z"/><path class="cls-5" d="M36,36.22s-2.09,1.69-1.2,2.76,1.89-1.66,1.89-1.66-1.42,1.94-1.05.42Z"/><path class="cls-3" d="M41.63,26.73c-.19.19-3.29,7.89-4.56,11.57-1.49,4.31-7.5,8.51-12.69,7.53-6.38-1.21-11.6-4.67-13.31-10.2s.34-12.24.34-12.24-3.52-8.08,3.81-12.55S30.3,5.63,39.06,10.1,41.63,26.73,41.63,26.73Z"/><path class="cls-4" d="M18,19.69c.35-.08,8.42-4.46,8.42-4.46s-4.16,2.94-2.33,3.1c.51,0,5.26-.95,7.1-2.44,0,0-1.31,2.7-2.95,2.83,0,0,6.23,2.18,9.46-2.25,0,0-1.46,2.41,2.79,5.91,3.3,2.71,0,6.9,0,6.9l3.73-9.72L41,14.15l-10.15-3.4-9.08.41L17,17.35l-5.54,6Z"/><path class="cls-1" d="M39.83,31c.46-1.4,1.37-5.68.9-7.07C39.78,21.13,38,20.29,37,19.16c-.6-.72.13-3.15-.36-3.95s-.11,1,0,0c-.78,1.37-.79,2.39-2.3,2.82a11.18,11.18,0,0,1-4.39.25,6.61,6.61,0,0,0,2.21-1.89,13.07,13.07,0,0,0,1.11-3,17,17,0,0,1-9.5,4.4,7.92,7.92,0,0,0,3.32-4,2.73,2.73,0,0,0-1.4.57,49.71,49.71,0,0,1-7.67,4.45c.06-.43-.08-.83,0-1.26-1.65,2.59-7,6.86-7,6.7,0,0-3.28,13.59,5.11,20.09A24.06,24.06,0,0,1,7.44,40.8c-4.84-3.08-6.78-9.09-2-17s3.27-12,7-16.53C16.77,1.77,28.58-3.52,41.9,10c0,0,6.79,4.53.27,17.9A34.47,34.47,0,0,1,39.83,31Z"/><path class="cls-6" d="M35.56,23.61s2.75,0,3.56,2.23a.09.09,0,0,0,.18,0,2.29,2.29,0,0,0-1.47-2.57C35.38,22.17,35.56,23.61,35.56,23.61Z"/><path class="cls-6" d="M25.57,20.85s-2.82-1.21-4.7.41c-.07.07-.2,0-.17-.09a2.44,2.44,0,0,1,2.72-1.65C26.43,19.64,25.57,20.85,25.57,20.85Z"/><path class="cls-7" d="M30.37,30.2a2.72,2.72,0,0,0-.53,1.92,3.13,3.13,0,0,0,.3.94,2.34,2.34,0,0,1,.36,1.08A1.34,1.34,0,0,1,30,35.26a1.75,1.75,0,0,1-1.15.34,3,3,0,0,1-2-1l0,0a1.21,1.21,0,0,1-.55-.5.48.48,0,0,1,0-.37.73.73,0,0,1,.19-.3.51.51,0,0,0,0,.6,1.15,1.15,0,0,0,.53.32h0l0,0a3,3,0,0,0,1.8.7,1.05,1.05,0,0,0,1.18-1,2.41,2.41,0,0,0-.28-.91,2.94,2.94,0,0,1-.25-1.1A2.5,2.5,0,0,1,30.37,30.2Z"/><path class="cls-8" d="M43.51,11.57a18.29,18.29,0,0,0-6.13-3.48C26.69,4.51,14.72,11.46,10.66,23.6c-.08.24-.16.47-.23.71-.35-.21-.71-.4-1.08-.58.1-.35.21-.69.32-1C13.73,10.54,25.7,3.6,36.4,7.17A18.38,18.38,0,0,1,43.51,11.57Z"/><path class="cls-9" d="M11,24.73c0-.05.07.08,0,.07s-.1-.08-.11-.14a4.12,4.12,0,0,0-1.05-1.87,2,2,0,0,0-1.37-.71A1.74,1.74,0,0,0,7,23.36a5.29,5.29,0,0,0-.14,3.27,5.57,5.57,0,0,0,4.32,4"/><path class="cls-10" d="M11,24.73s.07.05,0,.07-.09,0-.11-.06a1.55,1.55,0,0,1-.08-.23,3.66,3.66,0,0,0-.18-.46,3.87,3.87,0,0,0-.51-.82,2.49,2.49,0,0,0-1.53-1.06,1.47,1.47,0,0,0-1.43,1A4.62,4.62,0,0,0,6.8,25,5.56,5.56,0,0,0,8,28.61a5.42,5.42,0,0,0,3.22,2A5,5,0,0,1,9.32,30a6,6,0,0,1-1.49-1.31A5.7,5.7,0,0,1,6.55,25,4.9,4.9,0,0,1,7,23.05,1.68,1.68,0,0,1,8.66,22a2.62,2.62,0,0,1,1.61,1.16,4.06,4.06,0,0,1,.47.87,3.68,3.68,0,0,1,.15.47,1.68,1.68,0,0,0,.06.24.11.11,0,0,0,.09.06S11.06,24.69,11,24.73Z"/><path class="cls-4" d="M9,24.77a6.06,6.06,0,0,1,.45.78c.1.21.18.51,0,.65s-.41.06-.55.2-.06.4.1.53.36.19.53.31a.84.84,0,0,1,.32.75.64.64,0,0,1-.11.27.54.54,0,0,1-.69.07,1.53,1.53,0,0,1-.5-.57,5.47,5.47,0,0,1-.69-1.54C7.67,25.38,7.91,23.14,9,24.77Z"/><path class="cls-5" d="M10.37,29.31s.91,2.7-.65,2.94S9,29.72,9,29.72s.1,2.44.75,1Z"/><path class="cls-8" d="M15.4,9.79s-7.77-.06-5.52,4,6.51,5.76,7.6-1.77c.68-4.74,1.68-1.09,1.68-1.09S29,9.39,22.77,4.28C17-.45,17.6,8.3,17.6,8.3S15.75,6.75,15.4,9.79Z"/><ellipse class="cls-11" cx="20.16" cy="3.76" rx="0.6" ry="0.7" transform="translate(10.03 21.59) rotate(-70.96)"/><ellipse class="cls-11" cx="11.9" cy="11.28" rx="0.6" ry="0.7" transform="translate(-2.64 18.85) rotate(-70.96)"/><ellipse class="cls-11" cx="10.61" cy="12.99" rx="0.6" ry="0.7" transform="translate(-5.13 18.78) rotate(-70.96)"/><ellipse class="cls-11" cx="13.67" cy="12.89" rx="0.6" ry="0.7" transform="translate(-2.97 21.61) rotate(-70.96)"/><ellipse class="cls-11" cx="15.94" cy="12.5" rx="0.6" ry="0.7" transform="translate(-1.07 23.49) rotate(-70.96)"/><ellipse class="cls-11" cx="15.08" cy="15.13" rx="0.6" ry="0.7" transform="translate(-4.14 24.45) rotate(-70.96)"/><ellipse class="cls-11" cx="12.51" cy="14.95" rx="0.6" ry="0.7" transform="translate(-5.7 21.9) rotate(-70.96)"/><ellipse class="cls-11" cx="14.31" cy="10.92" rx="0.6" ry="0.7" transform="translate(-0.68 20.89) rotate(-70.96)"/><ellipse class="cls-11" cx="18.51" cy="5.8" rx="0.6" ry="0.7" transform="translate(6.99 21.4) rotate(-70.96)"/><ellipse class="cls-11" cx="23.19" cy="7.07" rx="0.6" ry="0.7" transform="translate(8.94 26.68) rotate(-70.96)"/><ellipse class="cls-11" cx="22.58" cy="4.84" rx="0.6" ry="0.7" transform="translate(10.64 24.6) rotate(-70.96)"/><ellipse class="cls-11" cx="20.72" cy="6.23" rx="0.6" ry="0.7" transform="translate(8.08 23.78) rotate(-70.96)"/><ellipse class="cls-11" cx="19.16" cy="7.69" rx="0.6" ry="0.7" transform="translate(5.65 23.29) rotate(-70.96)"/><ellipse class="cls-11" cx="21.35" cy="8.6" rx="0.6" ry="0.7" transform="translate(6.25 25.98) rotate(-70.96)"/><ellipse class="cls-11" cx="19.68" cy="9.42" rx="0.6" ry="0.7" transform="translate(4.36 24.95) rotate(-70.96)"/><ellipse class="cls-8" cx="17.34" cy="10.08" rx="1.61" ry="2.15" transform="translate(-2.45 13.32) rotate(-39.48)"/></svg>