<svg id="Layer_1" data-name="Layer 1" xmlns="http://www.w3.org/2000/svg" viewBox="0 0 43.07 31.82"><defs><style>.cls-1{fill:#fad2c6;}.cls-1,.cls-2{stroke:#323232;stroke-miterlimit:10;stroke-width:0.5px;}.cls-2{fill:none;}.cls-3{fill:#dc9e8f;}.cls-4{fill:#323232;}</style></defs><path class="cls-1" d="M18.94,16.46c1.62-.25,10.28,12.83,15.68,13.28,0,0,3.47-1.35,5.7-6.66.06-.14.12-.28.17-.42,1.84-5-4.13-9.91-4.13-9.91l-1.57,1.64-3.41,4.37A47.58,47.58,0,0,1,19.64,7.58c-.26-.35-.35-.86-.7-1C15.69,5,13.6,2.41,13.33,4.39,13,6.7,18.33,9.21,16.12,9c-3.45-.35-3.64-2.32-4.66,2.2C10.06,17.44,14.28,17.16,18.94,16.46Z"/><path class="cls-1" d="M11.39,14c-5.27-1.56-5.21-3.16-6.27-2-1.25,1.37,5.25,3.82,8.27,4.54"/><path class="cls-2" d="M16.59,8.66a4.1,4.1,0,0,0-1.11,2.67,12.07,12.07,0,0,0,.27,2.93"/><path class="cls-1" d="M13.51,8.38c-1-.5-5.81-2.12-7.3-1.68C5,7.08,9,9.73,12,10.45"/><path class="cls-1" d="M11.55,11.8c-4.66-.67-6.25-3.12-7.4-2.06-1.57,1.44,4.31,3.77,7.33,4.49"/><path class="cls-1" d="M12,10.48c-5.34-2-6.82-3.74-8.11-2.85s4.68,3.66,7.7,4.38"/><path class="cls-3" d="M34.79,14.81a3.61,3.61,0,0,1,.35.33,22.56,22.56,0,0,1,4.06,5.25c.47.87.59,1.56,1,2.46,1.84-5-3.84-9.69-3.84-9.69Z"/><path class="cls-4" d="M31.37,18.52a3.78,3.78,0,0,1,1.2.81,8.88,8.88,0,0,1,1,1,6,6,0,0,1,1.36,2.39l-.2,0a5.53,5.53,0,0,0-1.42-2.2,8.3,8.3,0,0,0-1-.88A3.27,3.27,0,0,0,31.24,19Z"/></svg>