<svg id="Layer_1" data-name="Layer 1" xmlns="http://www.w3.org/2000/svg" viewBox="0 0 21 10"><defs><style>.cls-1{fill:#f5968e;}.cls-2{fill:#f48678;}.cls-3{fill:#765a47;}.cls-4{fill:#e9a597;opacity:0.5;}</style></defs><g id="neutral"><path class="cls-1" d="M17.93,4.4a14.28,14.28,0,0,1-7.21,1.95,14.31,14.31,0,0,1-7-2.8c0-.25,2.71,1.42,7,1.7A45.64,45.64,0,0,0,17.93,4.4Z"/><path class="cls-2" d="M18.1,4.31c0-.17-4,.84-7.63.63S3.58,3.29,3.54,3.46a14.8,14.8,0,0,0,6.89,2.19A17.4,17.4,0,0,0,18.1,4.31Z"/><path class="cls-3" d="M3.42,3.4a21.69,21.69,0,0,0,7.34,2.27,16.64,16.64,0,0,0,7.3-1.35,18.34,18.34,0,0,1-7.3,1.35A19.65,19.65,0,0,1,3.42,3.4Z"/><path class="cls-4" d="M3.39,2.92c.18-.41-.2-.32-.32,0a1.86,1.86,0,0,0,.14,1A9.71,9.71,0,0,1,3.39,2.92Z"/><path class="cls-4" d="M18.3,3.8c-.21-.39.18-.33.32,0s-.2.9-.2.9C18.4,4,18.37,3.93,18.3,3.8Z"/></g></svg>