<svg id="Layer_1" data-name="Layer 1" xmlns="http://www.w3.org/2000/svg" viewBox="0 0 46.67 48.93"><defs><style>.cls-1,.cls-6{fill:#3e2c13;}.cls-1{stroke:#3e2c13;}.cls-1,.cls-3,.cls-8{stroke-miterlimit:10;}.cls-1,.cls-3{stroke-width:0.25px;}.cls-2{fill:#fff;}.cls-3,.cls-9{fill:#fbd3c7;}.cls-3{stroke:#323232;}.cls-4{fill:#dd9f8f;}.cls-5{fill:#e9d960;}.cls-7{fill:#a77d48;}.cls-8{fill:#ad6327;stroke:#c87929;stroke-width:0.75px;}.cls-10{fill:#323232;}.cls-11{fill:#ef4b3b;}.cls-12{fill:#f59a91;}</style></defs><path class="cls-1" d="M37,41.91c-2.66,6.6-8.15,5.62-18,1.08-.12-.06-1.64,2.36-1.76,2.3-8.84-4.17-15.35-6-12.08-18.21,1.87-7,12.22-9.15,21.29-5.5S39.7,35.22,37,41.91Z"/><path class="cls-1" d="M39,29.39c.16.42.15,13.59-5.51,16.68-6.66,3.63-8.11.56-8.13.56Z"/><path class="cls-2" d="M27.07,41.56s3.07.51,4,2.89C30.1,44.72,29.12,45.1,27.07,41.56Z"/><path class="cls-3" d="M38.6,32.48c0-.06-.1,0-.05.06s.1,0,.15,0a3.82,3.82,0,0,1,1.75-1,1.55,1.55,0,0,1,1.32.18,1.85,1.85,0,0,1,.28,1.92,6.13,6.13,0,0,1-1.74,2.79,4.51,4.51,0,0,1-5.15.91"/><path class="cls-4" d="M39.91,33.64a5.83,5.83,0,0,0-.74.39c-.19.12-.41.33-.36.55s.24.28.26.48a.4.4,0,0,1-.37.38c-.18,0-.35,0-.53,0a.81.81,0,0,0-.63.44.6.6,0,0,0-.08.29.45.45,0,0,0,.42.45,1.32,1.32,0,0,0,.65-.19,5.53,5.53,0,0,0,1.33-.89C40.47,34.91,41.57,32.91,39.91,33.64Z"/><path class="cls-5" d="M36.45,36.65s-2.12,1.73-1.22,2.81,1.92-1.69,1.92-1.69-1.44,2-1.07.43Z"/><path class="cls-3" d="M42.18,27c-.2.19-3.33,8-4.62,11.79-1.51,4.39-7.61,8.67-12.9,7.69-6.49-1.22-11.82-4.73-13.58-10.35s.32-12.46.32-12.46-3.6-8.21,3.85-12.78,15.34-5.34,24.27-.82S42.18,27,42.18,27Z"/><path class="cls-4" d="M18.07,19.86c.35-.08,8.55-4.55,8.55-4.55s-4.22,3-2.36,3.15c.52,0,5.35-1,7.23-2.49,0,0-1.33,2.75-3,2.88,0,0,6.35,2.21,9.64-2.31,0,0-1.49,2.46,2.85,6,3.36,2.75.05,7,.05,7l3.77-9.89-3.27-5.51L31.18,10.74l-9.25.43L17,17.49,11.4,23.65Z"/><path class="cls-1" d="M40.35,31.34c.47-1.42,1.39-5.78.91-7.2-1-2.86-2.81-3.71-3.77-4.86-.61-.73.12-3.2-.38-4s-.11,1,0,0c-.79,1.4-.8,2.44-2.33,2.88a11.6,11.6,0,0,1-4.47.27,6.75,6.75,0,0,0,2.24-1.93,13.2,13.2,0,0,0,1.13-3.1A17.29,17.29,0,0,1,24,17.89a8.11,8.11,0,0,0,3.37-4.12,2.73,2.73,0,0,0-1.43.58,50.1,50.1,0,0,1-7.79,4.54c.06-.43-.09-.84,0-1.27-1.67,2.63-7.14,7-7.07,6.84,0,0-3,13.53,7,19.73A21.58,21.58,0,0,1,7.41,41.38C2.47,38.26.49,32.14,5.33,24s3.3-12.17,7-16.85c4.44-5.56,16.45-11,30,2.72,0,0,6.92,4.59.32,18.22A34.45,34.45,0,0,1,40.35,31.34Z"/><path class="cls-6" d="M36,23.81s2.8,0,3.63,2.27a.09.09,0,0,0,.18,0,2.33,2.33,0,0,0-1.5-2.61C35.8,22.35,36,23.81,36,23.81Z"/><path class="cls-6" d="M25.82,21s-2.88-1.21-4.79.44c-.07.06-.2,0-.17-.1a2.49,2.49,0,0,1,2.76-1.68C26.69,19.8,25.82,21,25.82,21Z"/><path class="cls-7" d="M30.72,30.53a2.84,2.84,0,0,0-.54,2,3.18,3.18,0,0,0,.31,1,2.32,2.32,0,0,1,.37,1.1,1.35,1.35,0,0,1-.52,1.14,1.78,1.78,0,0,1-1.16.35,3.08,3.08,0,0,1-2-1l0,0a1.29,1.29,0,0,1-.56-.5.57.57,0,0,1-.05-.38.72.72,0,0,1,.2-.3.51.51,0,0,0,0,.6,1.12,1.12,0,0,0,.54.33h0l0,0a2.93,2.93,0,0,0,1.84.71,1.06,1.06,0,0,0,1.2-1,2.48,2.48,0,0,0-.29-.93,2.85,2.85,0,0,1-.25-1.11A2.58,2.58,0,0,1,30.72,30.53Z"/><path class="cls-8" d="M44.05,11.54A18.55,18.55,0,0,0,37.81,8c-10.9-3.62-23.06,3.48-27.17,15.86-.08.24-.15.48-.23.71-.35-.21-.72-.4-1.1-.58.1-.36.21-.71.33-1.06C13.74,10.57,25.91,3.46,36.8,7.08A18.59,18.59,0,0,1,44.05,11.54Z"/><path class="cls-9" d="M11,25c0-.05.08.08,0,.08s-.1-.08-.11-.14A4.15,4.15,0,0,0,9.84,23a2.07,2.07,0,0,0-1.4-.72,1.77,1.77,0,0,0-1.52,1.31A5.4,5.4,0,0,0,6.79,27,5.64,5.64,0,0,0,11.19,31"/><path class="cls-10" d="M11,25s.07,0,0,.08a.11.11,0,0,1-.11-.06,2.25,2.25,0,0,1-.08-.24,3.66,3.66,0,0,0-.18-.46,3.84,3.84,0,0,0-.53-.84,2.55,2.55,0,0,0-1.55-1.08,1.51,1.51,0,0,0-1.46,1,4.87,4.87,0,0,0-.42,1.89A5.68,5.68,0,0,0,7.91,29,5.51,5.51,0,0,0,11.19,31a5,5,0,0,1-1.9-.64,6,6,0,0,1-2.83-5.11,5.24,5.24,0,0,1,.48-2,1.71,1.71,0,0,1,1.67-1.07,2.75,2.75,0,0,1,1.63,1.17,4,4,0,0,1,.48.89,3,3,0,0,1,.16.48,1.68,1.68,0,0,0,.06.24.1.1,0,0,0,.1.06S11.05,25,11,25Z"/><path class="cls-4" d="M9,25.06a6.8,6.8,0,0,1,.46.79c.1.22.18.52,0,.67s-.42.05-.57.2,0,.41.11.54.37.19.54.31a.83.83,0,0,1,.32.76.56.56,0,0,1-.1.28.57.57,0,0,1-.71.07,1.53,1.53,0,0,1-.5-.57,5.84,5.84,0,0,1-.71-1.57C7.6,25.69,7.84,23.4,9,25.06Z"/><path class="cls-5" d="M10.36,29.68s.94,2.74-.65,3S9,30.1,9,30.1s.11,2.48.76,1Z"/><path class="cls-11" d="M15.44,9.8s-7.92-.05-5.61,4S16.47,19.7,17.56,12c.68-4.82,1.71-1.11,1.71-1.11s10-1.56,3.66-6.75c-5.87-4.8-5.26,4.11-5.26,4.11S15.79,6.7,15.44,9.8Z"/><ellipse class="cls-12" cx="20.26" cy="3.65" rx="0.61" ry="0.71" transform="translate(10.25 21.64) rotate(-71.09)"/><ellipse class="cls-12" cx="11.88" cy="11.32" rx="0.61" ry="0.71" transform="translate(-2.68 18.89) rotate(-71.09)"/><ellipse class="cls-12" cx="10.57" cy="13.06" rx="0.61" ry="0.71" transform="translate(-5.21 18.82) rotate(-71.09)"/><ellipse class="cls-12" cx="13.68" cy="12.95" rx="0.61" ry="0.71" transform="translate(-3.01 21.7) rotate(-71.09)"/><ellipse class="cls-12" cx="15.99" cy="12.55" rx="0.61" ry="0.71" transform="translate(-1.06 23.61) rotate(-71.09)"/><ellipse class="cls-12" cx="15.12" cy="15.24" rx="0.61" ry="0.71" transform="translate(-4.19 24.61) rotate(-71.09)"/><ellipse class="cls-12" cx="12.51" cy="15.05" rx="0.61" ry="0.71" transform="translate(-5.78 22.01) rotate(-71.09)"/><ellipse class="cls-12" cx="14.33" cy="10.95" rx="0.61" ry="0.71" transform="translate(-0.67 20.96) rotate(-71.09)"/><ellipse class="cls-12" cx="18.59" cy="5.72" rx="0.61" ry="0.71" transform="translate(7.15 21.46) rotate(-71.09)"/><ellipse class="cls-12" cx="23.36" cy="7.01" rx="0.61" ry="0.71" transform="translate(9.16 26.84) rotate(-71.09)"/><ellipse class="cls-12" cx="22.73" cy="4.74" rx="0.61" ry="0.71" transform="translate(10.88 24.71) rotate(-71.09)"/><ellipse class="cls-12" cx="20.85" cy="6.15" rx="0.61" ry="0.71" transform="translate(8.27 23.88) rotate(-71.09)"/><ellipse class="cls-12" cx="19.26" cy="7.64" rx="0.61" ry="0.71" transform="translate(5.79 23.39) rotate(-71.09)"/><ellipse class="cls-12" cx="21.49" cy="8.57" rx="0.61" ry="0.71" transform="translate(6.42 26.13) rotate(-71.09)"/><ellipse class="cls-12" cx="19.8" cy="9.41" rx="0.61" ry="0.71" transform="translate(4.48 25.09) rotate(-71.09)"/><ellipse class="cls-11" cx="17.41" cy="10.08" rx="1.64" ry="2.19" transform="translate(-2.43 13.41) rotate(-39.61)"/></svg>