<svg id="Layer_1" data-name="Layer 1" xmlns="http://www.w3.org/2000/svg" viewBox="0 0 40 20"><defs><style>.cls-1{fill:#551514;}.cls-2{fill:#d72b5d;}.cls-3{fill:#fff;}.cls-4{fill:#bb7757;}</style></defs><g id="S"><path class="cls-1" d="M35.29,10.19c0,.63-4.69,3.9-6.58,5.25C26.58,17,23.4,17,21,17.09c-.92.05-6.12-.77-7.39-.87-3-.24-8.2-5.13-8.2-5.13A13,13,0,0,1,7.8,9c1-.56,1.89-1.35,2.84-2a16.56,16.56,0,0,1,5.66-2.5c3.26-.94,6.64-.44,10,.14.75.13,4.25,1.53,5.3,1.91C33,7.09,35.29,10.19,35.29,10.19Z"/><path class="cls-2" d="M25.9,11.64c-1.37-.75-2.72.33-4.15.41l-2.28.11s-3.49-.52-4.64,0c-2.19,1-.9,3.13-.31,3.42,1.15.56,2.51.22,3.7.16a33.86,33.86,0,0,0,6.2-.72c.62-.16,1.85-.09,2.27-.83A1.88,1.88,0,0,0,25.9,11.64Z"/><path class="cls-3" d="M25.42,4.32l-6.61-.25L12.1,5.64l-1.49,1a8.86,8.86,0,0,0,2.51,1,36.76,36.76,0,0,0,13.46-.81,25.15,25.15,0,0,0,2.94-1.29Z"/><path class="cls-3" d="M29.26,14.84s-.88-1.75-1.46-1.93c-1.89-.6-4.05.66-7.45.72-3.21.06-6.32-.41-8.17.23C11.77,14,11,15.09,11,15.09l2.28.94,7.29.46,5.58-.75Z"/><path class="cls-4" d="M35.29,10.19A21.9,21.9,0,0,1,28,14a62.49,62.49,0,0,1-14.21.73c-2.21-.34-8.46-3.63-8.46-3.63a5.81,5.81,0,0,0,1.32,1.73A18.27,18.27,0,0,0,13,16.62c3.24,1,8,.47,8,.47.52,0,5.23.36,8.69-1.7,2.13-1.26,5.3-4.12,5.71-5.09A.31.31,0,0,0,35.29,10.19Z"/></g><path class="cls-4" d="M5.36,11.09S10.07,5.74,20.6,5.2s14.69,5,14.69,5S32.72,3.3,20.43,3.66C8.3,4,5.36,11.09,5.36,11.09Z"/></svg>