<svg id="Layer_1" data-name="Layer 1" xmlns="http://www.w3.org/2000/svg" viewBox="0 0 22 11"><defs><style>.cls-1{fill:#551514;}.cls-2{fill:#fff;}.cls-3{fill:#d72b5d;}.cls-4{fill:#bb7757;}.cls-5{fill:#dc9e8f;}</style></defs><g id="EE"><path class="cls-1" d="M20.67,2.82s-3.25.22-3.92.23A26.43,26.43,0,0,1,13.94,3c-1.61-.14-3.22-.25-4.82-.39A12.8,12.8,0,0,1,6.8,2.18a7.5,7.5,0,0,0-2-.38,4.59,4.59,0,0,0-1.27.12L1.73,1.16A7.48,7.48,0,0,0,2.68,4c.27.49.83,1.28,1.1,1.78C4.75,7.52,6.8,8,9,8.48a12.31,12.31,0,0,0,3.73.19,7,7,0,0,0,2.42-.4c.27-.15.4-.08.65-.25s1.26-.47,1.56-.84.92-.76,1.29-1.19C19.15,5.38,20.67,2.82,20.67,2.82Z"/><path class="cls-2" d="M17.34,3.53,15.93,3c-.11,0-5-.23-5-.23s-4.87-.66-5-.64-1.38.06-1.38.06A13.63,13.63,0,0,0,5.45,4c.53.45,2.37.8,5.32,1.09s4.44.26,5.36-.1C16.62,4.8,17.34,3.53,17.34,3.53Z"/><path class="cls-3" d="M6.82,7.66c.85.67,1.62,1,3.77,1.15a7.09,7.09,0,0,0,3.87-.62c-.07-.6-1.79-1.27-2.77-1.13a28.1,28.1,0,0,1-3-.18C8,7,7.11,7.15,6.82,7.66Z"/><path class="cls-2" d="M17,7.15s-1.76.35-2.71.42-3.48.06-3.48.06S8.45,7.4,7.68,7.21C6.75,7,4.52,6.4,4.52,6.4L7.63,9.27l3,.52h0l.25,0v0l3,0Z"/><path class="cls-4" d="M20.67,2.82A15.33,15.33,0,0,1,17,7.15a9.16,9.16,0,0,1-6.15,2.06A11.06,11.06,0,0,1,4,5.69a12.67,12.67,0,0,1-2.3-4.53s1.4,8.9,9,9.56C17.61,11.33,20.67,2.82,20.67,2.82Z"/><path class="cls-4" d="M11,2.6C7.41,2.33,1.73,1.16,1.73,1.16S3.16,2.69,11,3.37c8.94.78,9.71-.55,9.71-.55S14.64,2.88,11,2.6Z"/><path class="cls-5" d="M1.68.67C2,.31,1.59.23,1.32.57a2.17,2.17,0,0,0-.23,1.14A9.43,9.43,0,0,1,1.68.67Z"/><path class="cls-5" d="M20.44,2.32c-.39-.31,0-.45.35-.15S21,3.23,21,3.23C20.63,2.46,20.57,2.42,20.44,2.32Z"/></g></svg>