<svg id="Layer_1" data-name="Layer 1" xmlns="http://www.w3.org/2000/svg" viewBox="0 0 23.65 29.97"><defs><style>.cls-1{fill:#fbd3c7;}.cls-1,.cls-2{stroke:#323232;stroke-miterlimit:10;stroke-width:0.25px;}.cls-2{fill:none;}.cls-3{fill:#dc9e8f;}</style></defs><path class="cls-1" d="M1,5.22A5.47,5.47,0,0,0,2.2,6.47c1.33,3.29,6.49,8.71,7.87,9.83s2.26,2.29,2,3.68c-.52,2.61-.79,2.63-.56,3.52s-.91,1.72-.22,2,1.8-.94,1.88-2.19.46-1,.46-1c3.65,3.34,5.13,7.59,5.71,6.77S19,26.55,19,26.55s1.15-2.35,1-3.15-1.25-3.2-4-5.84-6.66-11-7.91-13.3c-.34-.62-.58-1.12-.76-1.53-.54-1.24-.73-2-.8-1.87A9,9,0,0,1,1,5.22Z"/><path class="cls-2" d="M19.06,26.51a17.45,17.45,0,0,1-1.18-3.11"/><path class="cls-2" d="M19.37,25.69a8.21,8.21,0,0,0-.48-2.9"/><path class="cls-2" d="M19.78,24.68a8.67,8.67,0,0,0-.22-1.61"/><path class="cls-3" d="M1.15,5.29a4.08,4.08,0,0,0,1.16,1.1c2.54-.34,4-2.61,5-3.56C6.73,1.59,6.62,1,6.55,1.14,5.12,4,1.15,5.29,1.15,5.29Z"/></svg>