<svg id="Layer_1" data-name="Layer 1" xmlns="http://www.w3.org/2000/svg" viewBox="0 0 24.25 29.29"><defs><style>.cls-1{fill:#fbd3c7;}.cls-1,.cls-2{stroke:#323232;stroke-miterlimit:10;stroke-width:0.25px;}.cls-2{fill:none;}.cls-3{fill:#dc9e8f;}</style></defs><path class="cls-1" d="M1.57,5a7.09,7.09,0,0,0,1,1.09,2.32,2.32,0,0,0,.63.42c1.72,3,7.41,7.52,8.88,8.41s2.49,1.91,2.41,3.28c-.16,2.58-.41,2.63-.08,3.46s-.64,1.78.06,1.94,1.61-1.15,1.52-2.36.3-1.06.3-1.06c4,2.72,5.95,6.62,6.4,5.75s-.63-2.33-.63-2.33.79-2.42.53-3.17S21,17.51,18,15.33,10.12,5.61,8.61,3.58c-.4-.55-.71-1-.93-1.37C7,1.09,7,.74,7,.87A8.16,8.16,0,0,1,1.57,5Z"/><path class="cls-2" d="M22.11,23.54a16.94,16.94,0,0,1-1.56-2.83"/><path class="cls-2" d="M22.3,22.71A8.07,8.07,0,0,0,21.45,20"/><path class="cls-2" d="M22.56,21.68a8.79,8.79,0,0,0-.43-1.52"/><path class="cls-3" d="M1.75,5.06a6.16,6.16,0,0,0,.94,1A10.11,10.11,0,0,0,7.61,2.3C6.93,1.18,7,1,6.94,1.08A8.11,8.11,0,0,1,1.75,5.06Z"/></svg>