<svg id="Layer_1" data-name="Layer 1" xmlns="http://www.w3.org/2000/svg" viewBox="0 0 87.95 72.51"><defs><style>.cls-1{fill:#fad2c6;stroke:#5f4a43;}.cls-1,.cls-3{stroke-miterlimit:10;}.cls-2{fill:#e7b4a7;}.cls-3{fill:#fcde7d;stroke:#323232;}</style></defs><path class="cls-1" d="M66.46,36.57C54.51,40.8,45.82,49,34.51,53c-3,1.07-8.44,3.8-12,4.11L20.22,45.41a34.43,34.43,0,0,1,9.57-5.91c8.69-3.9,20.42-7,32-11.86C62.9,27.18,67.6,36.16,66.46,36.57Z"/><path class="cls-1" d="M57.14,29.49c-.06-2,.83-8.06,1.47-15.39.11-1.16,2.4.07,2.88,1.59,1,3.26.36,4.35,1,6s2,1.33,3.44.47c5.64-6.11,8.22-10.24,10.64-9.56,1.91.88-1.4,5.62-5.39,10.79,6.12-3.59,11.32-6,12-4.23.82,2.05-4.4,5.25-8.88,8.58,5.4.25,11.07-1,10.94,1.8-.09,2.07-11.46,2.86-10.68,4.67.28.65,1.32,1,2.93,1.5,1.4.46,3.51,1.1,4.17,2s-.32,1.67-2,1.71c-2.84.07-9.27,0-12.46-.27-1.87,0-3.46.08-5-.83"/><path class="cls-1" d="M63.24,22.6c.29.14,4.38,1.6,2.15,7.12"/><path class="cls-2" d="M31,53.74c-3,1.08-3.6,1.92-7.13,2.23l-4.5-9.78A34.5,34.5,0,0,1,29,40.28C30,43.23,30.72,52.11,31,53.74Z"/><path class="cls-3" d="M2.67,48.49,24,40.89s4,6.76,2.21,17.28l-17.1,11"/></svg>