<svg id="Layer_1" data-name="Layer 1" xmlns="http://www.w3.org/2000/svg" viewBox="0 0 10.53 5.66"><defs><style>.cls-1{fill:#8c3e36;}.cls-2{fill:#d26653;}.cls-3{fill:#fff;}.cls-4{fill:#f5968e;}.cls-5{fill:#f48678;}.cls-6{fill:#e9a597;opacity:0.5;}</style></defs><g id="S"><path class="cls-1" d="M9.5,2.63s-1.8.19-2.25.22a8.33,8.33,0,0,1-2.16-.29,12.53,12.53,0,0,1-1.95-.51C2.93,1.93,1,1,1,1s.41,1.14.52,1.58a3.6,3.6,0,0,0,.42.83A2.9,2.9,0,0,0,3.33,4.61a8.1,8.1,0,0,0,2.88.55A10.45,10.45,0,0,0,8.29,4C8.49,3.81,9.5,2.63,9.5,2.63Z"/><path class="cls-2" d="M6.77,3.88a2.62,2.62,0,0,0-1.16-.39A15.14,15.14,0,0,0,4,3.28l-.31,0c-.08,0-.16,0-.23,0l-.18.13c-.22.17,0,.5.12.61a2.77,2.77,0,0,0,1,.28,11.84,11.84,0,0,0,1.76.25c.19,0,.52.11.68,0A.39.39,0,0,0,6.77,3.88Z"/><path class="cls-3" d="M8.07,2.9,5.13,2.79l-2.88-1a2.63,2.63,0,0,0,.28.74,2,2,0,0,0,.76.57,10.52,10.52,0,0,0,3.42.64,1.76,1.76,0,0,0,1.14-.44A1.88,1.88,0,0,0,8.07,2.9Z"/><path class="cls-3" d="M7.35,4.73A1.55,1.55,0,0,0,7,4.26c-.44-.26-1.15,0-2-.2a8.44,8.44,0,0,0-2.08-.45,1.06,1.06,0,0,0-.42.32L3,4.52l1.78.66L6.35,5Z"/><path class="cls-4" d="M9.58,2.44a10.85,10.85,0,0,1-2,1.72,4.7,4.7,0,0,1-2.91.37A3.88,3.88,0,0,1,2.46,3.35,12.47,12.47,0,0,1,1,.81L1,1a8.41,8.41,0,0,0,.93,2.55A3.42,3.42,0,0,0,4.56,5.29,3.76,3.76,0,0,0,8,4.43,6.37,6.37,0,0,0,9.55,2.59,1,1,0,0,0,9.58,2.44Z"/><path class="cls-5" d="M9.58,2.44a7.06,7.06,0,0,1-2.2.37,14.63,14.63,0,0,1-4-.79A12.22,12.22,0,0,1,1,.81,1.32,1.32,0,0,0,1.09,1,6,6,0,0,0,2.81,2.15a12.28,12.28,0,0,0,2.4.78,13,13,0,0,0,2.51.18,4.08,4.08,0,0,0,1.76-.48Z"/><path class="cls-6" d="M.78.48C1,.34.76.28.61.42A.92.92,0,0,0,.45.91S.72.53.78.48Z"/><path class="cls-6" d="M9.75,2.25c-.17-.16.15-.18.29,0s-.07.46-.07.46C9.84,2.32,9.81,2.3,9.75,2.25Z"/></g></svg>