<svg xmlns="http://www.w3.org/2000/svg" viewBox="0 0 99.38 79.59"><defs><style>.cls-1{isolation:isolate;}.cls-2{fill:#5c5548;}.cls-3{fill:#424036;}.cls-4{fill:#fad2c6;stroke:#323232;}.cls-4,.cls-7{stroke-miterlimit:10;stroke-width:0.25px;}.cls-5{fill:#e4a58c;}.cls-6{fill:#421b16;}.cls-7{fill:#311415;stroke:#211e1f;}.cls-8{fill:#90856e;}.cls-9{fill:#605e44;}.cls-10,.cls-13{fill:#9e9580;opacity:0.5;}.cls-10,.cls-12{mix-blend-mode:multiply;}.cls-11,.cls-12{fill:#676254;}.cls-12{opacity:0.4;}.cls-13{mix-blend-mode:screen;}.cls-14{fill:#c28974;}</style></defs><g class="cls-1"><g id="Layer_1" data-name="Layer 1"><path class="cls-2" d="M78.6,30a22.41,22.41,0,0,1,5.47,3.52C87.54,36.3,95.35,44.72,96,48.2s-22.21.79-51.84-.91-40.83-6.52-41-8.2,7.22-8.63,15.53-12.37S38.59,23.22,52.57,24A86.47,86.47,0,0,1,78.6,30Z"/><path class="cls-3" d="M52.56,24.18c-13.51-.77-25.38-1.09-33.81,2.7C10.55,30.57,3.19,37.5,3.33,39.07,3.42,40.13,10,43.72,30.22,46c4.3.47,9,.86,13.93,1.14,7.22.42,14.12.9,20.21,1.32,17.32,1.2,29.83,2.07,31.36.25a.53.53,0,0,0,.12-.45c-.62-3.36-8.27-11.7-11.86-14.6a22.42,22.42,0,0,0-5.44-3.51A88.16,88.16,0,0,0,56.3,24.49C55,24.35,53.78,24.24,52.56,24.18Z"/><path class="cls-4" d="M22.24,34.59c-.43.83-1.37,2-.4,3.9C27,48.77,27,52,31,64.69c3,9.41,14.11,15,23,12.27,10.88-3.32,23-10.33,20-32-1.33-9.55-.59-20.09-2.76-23C63.79,12,58.58,14.87,45,19.09,32.34,23,27.12,25.18,22.24,34.59Z"/><path class="cls-5" d="M27.18,51.47s-1.81-18.3,7.45-16.35c10.09,2.11,13.64-2.5,17.7-1.9,8.9,1.3,19.67,13.47,22.15,4.4S51.69,19.93,51.69,19.93s-22.46-.54-23.9.19-6.73,12.82-6.73,12.82Z"/><path class="cls-6" d="M33.52,41.93a.68.68,0,0,0,.56-1L34,40.72c-.56-.95-2-.82-2.78-.42-1.16.6-2.87,1.37-3.48,4.94-.05.29.32.54.46.3C29,44.15,31,42,33.52,41.93Z"/><path class="cls-6" d="M50,37.57A.69.69,0,0,1,49,37.05v-.2c-.09-1.1,1.17-1.84,2-2,1.3-.19,3.13-.56,5.7,2,.22.21.06.62-.19.51C55,36.75,52.08,36.19,50,37.57Z"/><path class="cls-7" d="M31.6,28.83s3.64,11,20.79.9c0,0-20.68-.73-.88-7.82,0,0-2.15,7.28,10.36,1.3,0,0-7.7,10.07,9.12,17.12,0,0,2.81.09,3.84,6.79.08.48.14,1,.2,1.55.8,8.24-.12-1.07-.12-1.07s7-3.42,4.55-12c0,0,4.18-7.83-2.49-14.17,0,0,.77-11.41-11.91-10.38,0,0-5.93-9.63-13.1-7.18,0,0-12.65-5.06-18.15,6.2,0,0-9-.48-11.62,10.81,0,0-6.35,6.1-2.58,12.28,0,0-5,5.28,2,8.94,0,0-3.55,5.56,3.5,8.08L28.38,56l-1.2-4.53a21.59,21.59,0,0,1,4-22.19Z"/><path class="cls-8" d="M18.7,26.72C27,23,38.59,23.22,52.57,24a86.47,86.47,0,0,1,26,6,22.41,22.41,0,0,1,5.47,3.52C87.54,36.3,95.35,44.72,96,48.2c-.72-2.31-11.19-12.29-50.33-14.85-25.55-1.68-38,2-42.31,5.09C4.49,36.06,11.21,30.09,18.7,26.72Z"/><path class="cls-9" d="M3.24,38.57a.18.18,0,0,1,0-.2c1.19-2.47,8-8.43,15.43-11.8,8.49-3.82,20.4-3.5,34-2.73,1.23.07,2.49.18,3.76.32a88.34,88.34,0,0,1,22.31,5.66,22.09,22.09,0,0,1,5.52,3.55c3.23,2.61,11.3,11.12,12,14.8a.18.18,0,0,1-.12.2.15.15,0,0,1-.18-.12c-.66-2-9.39-10.43-40.22-13.87-3.18-.35-6.53-.64-10-.87C16,31.56,5.84,36.9,3.43,38.58a.2.2,0,0,1-.11,0A.2.2,0,0,1,3.24,38.57Z"/><path class="cls-10" d="M79.57,36.26c-2.17-3.68-6.19-6.27-9.66-8.21a46.37,46.37,0,0,0-4.43-2.16A84.9,84.9,0,0,1,78.6,30a22.41,22.41,0,0,1,5.47,3.52C87.54,36.3,95.35,44.72,96,48.2c-.44-1.4-4.46-5.62-16.28-9.29A2.81,2.81,0,0,0,79.57,36.26Z"/><path class="cls-10" d="M33.47,24.16a53.83,53.83,0,0,0-9.12,3.24c-2.21,1-4.88,2.8-4.85,5.78a4.73,4.73,0,0,0,0,.53c-8.63,1-13.72,3-16.19,4.73,1.14-2.38,7.86-8.35,15.35-11.72,5-2.24,11.18-3,18.37-3.17A27.06,27.06,0,0,0,33.47,24.16Z"/><path class="cls-8" d="M83.57,31.56s2.31-12.78-12-23.25C56.12-3,37.3,3,31.63,6.55S20.09,17.79,18.83,25.27c0,0,21.47-2.11,31.42-1.19S77.93,28.06,83.57,31.56Z"/><path class="cls-9" d="M83.44,31.29c.22-1.79,1-13.35-11.94-22.84A33.53,33.53,0,0,0,55.15,2.14C45.09,1,35.63,4.25,31.71,6.69,26.43,10,20.41,17.35,19,25.09c2.23-.21,21.92-2,31.26-1.17.72.06,1.5.14,2.3.24C62,25.2,77.77,27.94,83.44,31.29Z"/><path class="cls-10" d="M28.26,18.22c1.69,2.91,4.81,4.15,7.63,5,1,.29,2,.53,3,.74-9.67.32-20,1.33-20,1.33,1.17-6.92,6.27-14,11.52-17.85C27.91,10.26,26.16,14.6,28.26,18.22Z"/><path class="cls-10" d="M62.64,24.21c3.71-.49,7.78-1.19,11.09-3.39,2.87-1.91,4-4.32,3.94-6.88,7.47,8.92,5.9,17.62,5.9,17.62C79,28.7,66.24,26.12,56.32,24.78,58.44,24.67,60.55,24.49,62.64,24.21Z"/><path class="cls-11" d="M50.56,22.1c-8-.8-29.7.45-31.93,1.77a13.15,13.15,0,0,0-.35,3.18c.2.54,10.56-2.77,29.89-1.35C73.59,27.56,83,33.2,83.6,33.37s.51-2.91.24-3.39S73.92,24.41,50.56,22.1Z"/><path class="cls-3" d="M18.14,27.11a11.72,11.72,0,0,1,.33-3.27l0-.08.06,0c2.29-1.35,24.14-2.57,32-1.79,23.65,2.34,33.14,7.51,33.4,8a6.18,6.18,0,0,1,0,3.44.39.39,0,0,1-.36.21h-.05a4.31,4.31,0,0,1-.51-.23c-8.34-4-19.89-5.91-28.09-6.83-2.2-.24-4.49-.45-6.82-.62A111.31,111.31,0,0,0,20.52,27a12.2,12.2,0,0,1-2.13.26A.26.26,0,0,1,18.14,27.11Z"/><path class="cls-12" d="M18.63,23.87c1.26-.75,8.76-1.47,16.49-1.82-.27.07-.53.12-.82.17-7.55,1.26-2.26,2.26,3.49,2a113.75,113.75,0,0,1,20.49,1c8.72,1.14,11.59-.34,4.59-1.46a12,12,0,0,1-1.39-.31C77,26,83.62,29.59,83.84,30s.41,3.57-.24,3.39-10-5.81-35.43-7.67c-19.33-1.42-29.69,1.89-29.89,1.35A13.15,13.15,0,0,1,18.63,23.87Z"/><path class="cls-13" d="M75.78,36.47S60.07,30.89,23.15,32C23.15,32,52.4,28.1,75.78,36.47Z"/><path class="cls-4" d="M72.54,51c.08-5.06,1.81-7.42,4.51-7.58,2.92-.17,4.14,1.79,4.23,5.93C81.39,54.6,76,58.84,72.39,58"/><path class="cls-5" d="M79.08,48s.58-3-2.53-2.24-1.21,4.63-2,6.37S72,55.71,73.38,56,79.19,54.34,79.08,48Z"/><path class="cls-14" d="M42.16,57.65a3.73,3.73,0,0,0,.36,2.15,1.66,1.66,0,0,0,1.82.56,3.22,3.22,0,0,0,1.88-.94,4.26,4.26,0,0,0,1-2,3.46,3.46,0,0,1-.72,2.22,3.2,3.2,0,0,1-2.09,1.18,3.06,3.06,0,0,1-1.24,0,1.56,1.56,0,0,1-1-.82A3.11,3.11,0,0,1,42.16,57.65Z"/></g></g></svg>