<svg xmlns="http://www.w3.org/2000/svg" viewBox="0 0 70.19 56.41"><defs><style>.cls-1{isolation:isolate;}.cls-2{fill:#5c5548;}.cls-3{fill:#424036;}.cls-4{fill:#fad2c6;stroke:#323232;}.cls-4,.cls-7{stroke-miterlimit:10;stroke-width:0.25px;}.cls-5{fill:#e4a58c;}.cls-6{fill:#421b16;}.cls-7{fill:#311415;stroke:#211e1f;}.cls-8{fill:#90856e;}.cls-9{fill:#605e44;}.cls-10,.cls-13{fill:#9e9580;opacity:0.5;}.cls-10,.cls-12{mix-blend-mode:multiply;}.cls-11,.cls-12{fill:#676254;}.cls-12{opacity:0.4;}.cls-13{mix-blend-mode:screen;}.cls-14{fill:#c28974;}</style></defs><g class="cls-1"><g id="Layer_1" data-name="Layer 1"><path class="cls-2" d="M13.86,21.89A15.92,15.92,0,0,0,10,24.58C7.62,26.7,2.25,33,1.89,35.49s16-.07,37.23-2.15,29.15-5.87,29.21-7.08-5.43-6-11.51-8.44-14.4-1.94-24.42-1A62.22,62.22,0,0,0,13.86,21.89Z"/><path class="cls-3" d="M29.73,17.3A63.2,63.2,0,0,0,13.91,22a16,16,0,0,0-3.81,2.68C7.61,26.87,2.35,33.09,2,35.51a.37.37,0,0,0,.1.32c1.15,1.27,10.12.28,22.53-1.08,4.37-.48,9.31-1,14.48-1.53,3.54-.35,6.9-.76,10-1.23,14.49-2.21,19.09-5,19.13-5.74.06-1.14-5.44-5.9-11.44-8.32C50.61,15.45,42.09,16,32.4,17,31.53,17.05,30.63,17.16,29.73,17.3Z"/><path class="cls-4" d="M54.13,23.71a2.57,2.57,0,0,1,.4,2.79c-3.4,7.54-3.29,9.83-5.81,19.09-1.86,6.85-9.7,11.17-16.14,9.49C24.67,53,15.75,48.32,17.3,32.63c.68-6.9-.15-14.46,1.32-16.62,5-7.32,8.82-5.42,18.69-2.78C46.54,15.7,50.35,17.08,54.13,23.71Z"/><path class="cls-5" d="M51.44,35.85s.77-13.2-5.83-11.54c-7.19,1.82-9.87-1.4-12.78-.85C26.47,24.66,19.09,33.71,17,27.27S32.91,13.89,32.91,13.89s16.12-1,17.18-.55,5.21,9,5.21,9Z"/><path class="cls-6" d="M46.61,29.18a.49.49,0,0,1-.44-.73l.07-.13c.38-.7,1.43-.65,2-.38a4.11,4.11,0,0,1,2.65,3.44c0,.22-.22.4-.32.24A5.22,5.22,0,0,0,46.61,29.18Z"/><path class="cls-6" d="M34.62,26.52a.49.49,0,0,0,.75-.4V26c0-.79-.9-1.29-1.51-1.35a4.11,4.11,0,0,0-4,1.6c-.15.15,0,.44.15.36A5.25,5.25,0,0,1,34.62,26.52Z"/><path class="cls-7" d="M47.61,19.71s-2.3,8-14.92,1.24c0,0,14.84-1.12.41-5.64,0,0,1.75,5.17-7.41,1.23,0,0,5.82,7-6.06,12.57,0,0-2,.15-2.56,5,0,.35-.08.73-.1,1.12-.34,6,.06-.77.06-.77s-5.13-2.26-3.63-8.51a8.69,8.69,0,0,1,1.39-10.25S13.91,7.51,23,7.88c0,0,4-7.09,9.21-5.54,0,0,9-4,13.22,3.93,0,0,6.47-.6,8.67,7.43,0,0,4.74,4.21,2.2,8.76,0,0,3.77,3.64-1.19,6.48,0,0,2.72,3.9-2.28,5.91l-2.48,4.2,1-3.2A15.53,15.53,0,0,0,47.92,20Z"/><path class="cls-8" d="M56.82,17.82c-6.08-2.44-14.4-1.94-24.42-1a62.22,62.22,0,0,0-18.54,5A15.92,15.92,0,0,0,10,24.58C7.62,26.7,2.25,33,1.89,35.49c.45-1.68,7.69-9.15,35.74-12.13C56,21.41,65,23.74,68.19,25.8,67.3,24.12,62.29,20,56.82,17.82Z"/><path class="cls-9" d="M68.21,25.91a.11.11,0,0,1-.08,0c-1.78-1.14-9.24-4.68-30.48-2.42-2.48.26-4.88.57-7.15.91C8.44,27.75,2.41,34,2,35.53a.12.12,0,0,1-.14.08.16.16,0,0,1-.09-.14c.39-2.66,5.94-9,8.19-11a15.76,15.76,0,0,1,3.86-2.71,63.58,63.58,0,0,1,15.87-4.71c.91-.14,1.81-.25,2.69-.34,9.72-.94,18.27-1.52,24.48,1,5.47,2.2,10.5,6.29,11.43,8a.11.11,0,0,1,0,.14A.09.09,0,0,1,68.21,25.91Z"/><path class="cls-10" d="M13.35,26.43c1.45-2.7,4.27-4.68,6.7-6.18a33.66,33.66,0,0,1,3.13-1.67,59.93,59.93,0,0,0-9.32,3.31A15.92,15.92,0,0,0,10,24.58C7.62,26.7,2.25,33,1.89,35.49c.28-1,3.05-4.17,11.43-7.15A2,2,0,0,1,13.35,26.43Z"/><path class="cls-10" d="M46.13,16.41a39.21,39.21,0,0,1,6.64,2.06c1.62.67,3.59,1.87,3.65,4a1.6,1.6,0,0,1,0,.38c6.23.51,10,1.76,11.78,2.94-.89-1.68-5.9-5.78-11.37-8-3.66-1.47-8.13-1.87-13.3-1.75A19,19,0,0,1,46.13,16.41Z"/><path class="cls-8" d="M10.34,23.17s-2-9.12,7.93-17.06C29.06-2.48,42.76,1.31,46.94,3.7s8.62,7.74,9.74,13.08c0,0-15.49-.89-22.62,0S14.29,20.5,10.34,23.17Z"/><path class="cls-9" d="M32.39,17c.58-.08,1.13-.17,1.65-.23,6.69-.89,20.89-.15,22.5-.07C55.32,11.13,50.78,6,46.88,3.8,44,2.16,37.11.11,29.91,1.21a24.14,24.14,0,0,0-11.57,5c-9,7.2-8.13,15.48-7.92,16.76C14.4,20.4,25.69,18,32.39,17Z"/><path class="cls-10" d="M49.7,12c-1.13,2.14-3.34,3.11-5.34,3.8-.7.23-1.4.43-2.1.61,7,0,14.42.38,14.42.38-1-4.94-4.91-9.89-8.8-12.5C49.72,6.25,51.1,9.33,49.7,12Z"/><path class="cls-10" d="M25.16,17.28c-2.67-.24-5.62-.63-8.06-2.11a5.66,5.66,0,0,1-3-4.83C9,17,10.34,23.17,10.34,23.17c3.23-2.19,12.29-4.41,19.38-5.66C28.2,17.49,26.67,17.43,25.16,17.28Z"/><path class="cls-11" d="M33.79,15.42c5.75-.81,21.35-.53,23,.35A9.84,9.84,0,0,1,57.13,18c-.14.4-7.67-1.68-21.52-.11C17.39,20,10.82,24.33,10.36,24.48s-.44-2.08-.27-2.43S17.06,17.76,33.79,15.42Z"/><path class="cls-3" d="M57.06,18.21a9.51,9.51,0,0,1-1.55-.13,79.89,79.89,0,0,0-19.89,0c-1.66.19-3.3.41-4.87.65-5.87.89-14.12,2.61-20,5.72l-.35.17h0a.28.28,0,0,1-.27-.14A4.47,4.47,0,0,1,10,22c.17-.34,6.84-4.32,23.78-6.69,5.64-.79,21.38-.54,23.06.36l.05,0,0,.05a8.52,8.52,0,0,1,.33,2.34C57.2,18.18,57.09,18.2,57.06,18.21Z"/><path class="cls-12" d="M56.79,15.77c-.94-.5-6.35-.81-11.91-.83a5.58,5.58,0,0,0,.59.09c5.46.69,1.69,1.56-2.45,1.57a81.83,81.83,0,0,0-14.69,1.33C22.1,19,20,18,25,17a7.89,7.89,0,0,0,1-.26c-11.06,2.27-15.74,5-15.89,5.3s-.19,2.57.27,2.43,7-4.47,25.25-6.55c13.85-1.57,21.38.51,21.52.11A9.84,9.84,0,0,0,56.79,15.77Z"/><path class="cls-13" d="M16.08,26.48S27.21,22,53.77,21.77C53.77,21.77,32.64,19.79,16.08,26.48Z"/><path class="cls-4" d="M17.36,36.69c-.21-3.63-1.51-5.28-3.46-5.31-2.1,0-2.93,1.4-2.87,4.38.08,3.8,4.05,6.7,6.64,6"/><path class="cls-5" d="M12.57,34.78s-.5-2.13,1.76-1.68,1,3.29,1.6,4.51,2,2.48,1,2.72S12.68,39.31,12.57,34.78Z"/><path class="cls-14" d="M40.85,40.72a2.19,2.19,0,0,1,.1,1.71,1.2,1.2,0,0,1-.72.66,2.23,2.23,0,0,1-.92.07,2.33,2.33,0,0,1-1.57-.82,2.43,2.43,0,0,1-.54-1.61A3.36,3.36,0,0,0,38,42.08a2.35,2.35,0,0,0,1.35.58,1.18,1.18,0,0,0,1.24-.4A2.86,2.86,0,0,0,40.85,40.72Z"/></g></g></svg>