<svg id="Layer_1" data-name="Layer 1" xmlns="http://www.w3.org/2000/svg" viewBox="0 0 12.76 7.1"><defs><style>.cls-1{fill:#7b2f2c;}.cls-2{fill:#f48a71;}.cls-3{fill:#fff;}.cls-4{fill:#f5968e;}.cls-5{fill:#f48678;}.cls-6{fill:#e9a597;opacity:0.5;}</style></defs><g id="uh"><path class="cls-1" d="M6.11,3A28.68,28.68,0,0,1,.84,1s1.69,4.1,2.27,4.34a19.23,19.23,0,0,0,4.82,1,10,10,0,0,0,3.15-1.77,2.77,2.77,0,0,0,1-1.57C11.69,3.28,7.57,3.24,6.11,3Z"/><path class="cls-2" d="M4,5a3.1,3.1,0,0,0,1.89.86A3.69,3.69,0,0,0,8,5.74C8,5.3,6.76,5,6.61,5,6,5,5.43,4.67,5.07,4.67S4.21,4.71,4,5Z"/><path class="cls-3" d="M8,5.65C7.22,5.45,4.6,5,4.1,5c-.26,0-1-.38-1.15-.25L5.48,6.1l3.74-.21C8.93,5.63,8.36,5.76,8,5.65Z"/><path class="cls-4" d="M12.08,3.17c0-.38-.24,0-.24,0A5.75,5.75,0,0,1,6,5.6c-3.59-.84-5.06-4-4.95-4.43,0,0-.16-.23-.24,0A6.17,6.17,0,0,0,5.87,6.76C9.83,7.46,12.05,3.54,12.08,3.17Z"/><path class="cls-3" d="M10.61,3.37c.07-.11-.66-.16-.8-.16a3.56,3.56,0,0,1-1-.09c-.07,0-2.21-.19-2.21-.19s-2.44-.66-2.52-.66S2.37,1.6,2.37,1.6A6,6,0,0,0,3,2.78,7.94,7.94,0,0,0,6.49,4.11a6.91,6.91,0,0,0,3.11,0A1.68,1.68,0,0,0,10.61,3.37Z"/><path class="cls-5" d="M12.14,3.09c0-.19-.21,0-.21,0A19.09,19.09,0,0,1,6.54,2.7,19.29,19.29,0,0,1,1.2,1C1.13,1,.93.91.84,1,.34,1.33,3.55,2.52,6.47,3S12.14,3.28,12.14,3.09Z"/><path class="cls-6" d="M1,.78C1.19.6.93.53.75.7a1.19,1.19,0,0,0-.19.62S.89.84,1,.78Z"/><path class="cls-6" d="M12,2.78c-.22-.19.05-.24.21-.06s.06.59.06.59C12.15,2.87,12.11,2.84,12,2.78Z"/></g></svg>