<svg id="Layer_1" data-name="Layer 1" xmlns="http://www.w3.org/2000/svg" viewBox="0 0 13.71 7.83"><defs><style>.cls-1{fill:#8c3e36;}.cls-2{fill:#fff;}.cls-3{fill:#d26653;}.cls-4{fill:#f5968e;}.cls-5{fill:#f48678;}.cls-6{fill:#e9a597;opacity:0.5;}</style></defs><g id="EE"><path class="cls-1" d="M12.83.83s-1.95.73-2.36.86c-.56.18-1.15.36-1.73.49l-3,.68a8.45,8.45,0,0,1-1.5.2,5.43,5.43,0,0,0-1.32.17,3.2,3.2,0,0,0-.75.31L1,3.44A4.24,4.24,0,0,0,2,4.82c.26.23.74.57,1,.79.91.82,2.25.7,3.66.57A8.35,8.35,0,0,0,9,5.59a4.5,4.5,0,0,0,1.41-.68c.14-.13.23-.11.35-.26s.69-.49.81-.76.42-.59.57-.9S12.83.83,12.83.83Z"/><path class="cls-2" d="M11.16,1.71,10,1.82c-.07,0-3.09.81-3.09.81s-3.09.54-3.16.57-1.3.37-1.3.37a7.74,7.74,0,0,0,.71.72,11.21,11.21,0,0,0,4.1-.2,10.7,10.7,0,0,0,3.66-1.32A2.32,2.32,0,0,0,11.16,1.71Z"/><path class="cls-3" d="M5.22,6.12a4.09,4.09,0,0,0,2.51-.06A4.82,4.82,0,0,0,10,5c-.15-.32-1.32-.37-1.9-.11s-1.45.28-1.84.45S5.31,5.79,5.22,6.12Z"/><path class="cls-2" d="M11.37,3.93s-1,.53-1.59.74-2.11.69-2.11.69-1.49.31-2,.36-2.08.13-2.08.13L6,6.88l1.91-.27h0l.16,0v0L9.92,6Z"/><path class="cls-4" d="M12.83.83a9.18,9.18,0,0,1-1.46,3.1A6.8,6.8,0,0,1,7.72,6.29a6.75,6.75,0,0,1-4.55-.74A7.28,7.28,0,0,1,1,3.44S3.14,8.21,7.89,7.17C12.23,6.21,12.83.83,12.83.83Z"/><path class="cls-5" d="M6.86,2.52C4.64,3,1,3.44,1,3.44S2.1,4,7,3C12.6,1.72,12.83.83,12.83.83S9.15,2,6.86,2.52Z"/><path class="cls-6" d="M.84,3.17C1,2.91.7,2.94.6,3.19a1.15,1.15,0,0,0,.06.68A4.83,4.83,0,0,1,.84,3.17Z"/><path class="cls-6" d="M12.6.59c-.29-.1,0-.26.19-.15s.3.56.3.56C12.74.64,12.7.62,12.6.59Z"/></g></svg>