<svg id="Layer_1" data-name="Layer 1" xmlns="http://www.w3.org/2000/svg" viewBox="0 0 63.33 65.7"><defs><style>.cls-1,.cls-2,.cls-7,.cls-8{fill:#3d2d16;}.cls-1,.cls-2,.cls-7{stroke:#3d2d16;}.cls-1,.cls-2,.cls-4,.cls-7{stroke-miterlimit:10;}.cls-1,.cls-4{stroke-width:0.25px;}.cls-3{fill:#fff;}.cls-11,.cls-4{fill:#fad2c6;}.cls-4{stroke:#323232;}.cls-5{fill:#dc9e8f;}.cls-6{fill:#e8d860;}.cls-7{stroke-width:0.5px;}.cls-9{fill:#a67d48;}.cls-10{fill:#ef4b3b;}.cls-12{fill:#323232;}.cls-13{fill:#f49990;}</style></defs><path class="cls-1" d="M14,55.72c3,9.11,13.1,6.09,26.72,1,.34-.13.24,5.22.58,5.08,12.4-4.92,20.83-6.68,17.41-23.57-2-9.65-15.88-13.51-28.55-9.31S10.93,46.37,14,55.72Z"/><path class="cls-2" d="M12.4,38.48C12.15,39,11,57.13,18.49,61.69a12.34,12.34,0,0,0,9.88,1Z"/><path class="cls-3" d="M27.61,56.09s-4.24.44-5.68,3.61C23.21,60.14,24.51,60.74,27.61,56.09Z"/><path class="cls-4" d="M12.67,42.73c0-.08.13,0,.06.08s-.14,0-.2-.08a5.18,5.18,0,0,0-2.31-1.47,2,2,0,0,0-1.81.13A2.5,2.5,0,0,0,7.86,44a8.44,8.44,0,0,0,2.14,4c1.82,1.89,4.7,2.81,7,1.68"/><path class="cls-5" d="M10.78,44.2a7.15,7.15,0,0,1,1,.6c.24.18.52.47.44.78s-.36.36-.4.63a.55.55,0,0,0,.47.55c.25,0,.48,0,.73,0a1.1,1.1,0,0,1,.82.66.9.9,0,0,1,.09.4.62.62,0,0,1-.62.57,1.85,1.85,0,0,1-.87-.32,7.54,7.54,0,0,1-1.73-1.33C9.91,45.88,8.58,43.06,10.78,44.2Z"/><path class="cls-6" d="M15.24,48.6s2.74,2.54,1.42,3.94-2.47-2.47-2.47-2.47,1.79,2.81,1.42.67Z"/><path class="cls-4" d="M8.25,34.92c.25.28,3.86,11.24,5.3,16.47C15.23,57.51,23.18,63.87,30.47,63c9-1.1,16.52-5.43,19.39-12.95s.63-17,.63-17,5.61-10.88-4.16-17.75-20.45-8.59-33-3.18S8.25,34.92,8.25,34.92Z"/><path class="cls-5" d="M41.73,27.28c-.47-.13-11.28-6.94-11.28-6.94s5.5,4.46,3,4.51c-.71,0-7.22-1.79-9.64-4,0,0,1.57,3.87,3.85,4.19,0,0-8.84,2.46-12.93-4,0,0,1.81,3.47-4.4,7.94-4.82,3.47-.67,9.57-.67,9.57L5.33,24.75l4.92-7.23,14.39-3.79L37.21,15.1l6.14,9L50.49,33Z"/><path class="cls-7" d="M10.37,41c-.51-2-1.39-8-.61-9.89,1.56-3.81,4.14-4.81,5.55-6.29.89-.95.11-4.39.86-5.46s.06,1.4,0,0c.95,2,.87,3.4,2.93,4.13a15.57,15.57,0,0,0,6.07.74,9.41,9.41,0,0,1-2.9-2.82A18.47,18.47,0,0,1,21,17.12a23.76,23.76,0,0,0,12.79,7,10.89,10.89,0,0,1-4.24-5.9,3.77,3.77,0,0,1,1.89.92A69.82,69.82,0,0,0,41.68,26c0-.6.19-1.15.15-1.74C43.88,28,51,34.37,50.88,34.15c0,0,3.47,19-8.76,27.28a31.28,31.28,0,0,0,12.3-3.91c7-3.83,10.23-12,4.32-23.46S55.28,17.2,50.58,10.5C45,2.53,29.09-5.87,9.4,11.63c0,0-9.83,5.68-2,24.82C7.41,36.45,10.54,41.66,10.37,41Z"/><path class="cls-8" d="M17,31.13s-3.81-.21-5.14,2.79a.13.13,0,0,1-.24,0,3.17,3.17,0,0,1,2.27-3.44C17.35,29.16,17,31.13,17,31.13Z"/><path class="cls-8" d="M31.07,28.21s4-1.42,6.48,1c.1.09.28,0,.24-.12-.2-.83-.95-2.47-3.61-2.53C30,26.46,31.07,28.21,31.07,28.21Z"/><path class="cls-9" d="M23.57,40.75a3.52,3.52,0,0,1,1,2.77A4.17,4.17,0,0,1,24.1,45a3,3,0,0,0-.49,1.27A1.36,1.36,0,0,0,24,47.38a2.05,2.05,0,0,0,1.19.46A4.17,4.17,0,0,0,27.84,47l0,0h0a1.62,1.62,0,0,0,.76-.44.7.7,0,0,0,0-.84,1.12,1.12,0,0,1,.23.43.75.75,0,0,1-.1.5,1.73,1.73,0,0,1-.81.6l.05,0a4.21,4.21,0,0,1-2.8,1.13,2.29,2.29,0,0,1-1.5-.56,1.78,1.78,0,0,1-.59-1.52,3.28,3.28,0,0,1,.59-1.44,4.36,4.36,0,0,0,.49-1.3A3.82,3.82,0,0,0,23.57,40.75Z"/><path class="cls-10" d="M7,13.72a25.35,25.35,0,0,1,8.81-4.28C31,5.44,47,16.16,51.51,33.38c.09.33.17.66.25,1,.5-.25,1-.49,1.55-.7-.1-.49-.22-1-.35-1.47C48.42,15,32.45,4.26,17.28,8.26A25.51,25.51,0,0,0,7,13.72Z"/><path class="cls-11" d="M50.91,34.9c0-.07-.11.11,0,.11s.14-.1.16-.18a5.71,5.71,0,0,1,1.62-2.51,2.86,2.86,0,0,1,2-.87,2.44,2.44,0,0,1,2,1.92,7.45,7.45,0,0,1-.11,4.55,7.7,7.7,0,0,1-6.35,5.19"/><path class="cls-12" d="M50.91,34.9s-.09.08,0,.1a.13.13,0,0,0,.13-.08,2.39,2.39,0,0,0,.11-.32,4.91,4.91,0,0,1,.26-.63,5.86,5.86,0,0,1,.74-1.16,3.61,3.61,0,0,1,2.31-1.44,1.93,1.93,0,0,1,1.33.44A3.16,3.16,0,0,1,56.57,33,6.89,6.89,0,0,1,57,35.68a7.88,7.88,0,0,1-2.09,5,8.09,8.09,0,0,1-2.17,1.69,6.94,6.94,0,0,1-2.63.73,7.49,7.49,0,0,0,4.68-2.53,7.72,7.72,0,0,0,2-4.91A6.77,6.77,0,0,0,56.38,33a2.1,2.1,0,0,0-2-1.49,3.47,3.47,0,0,0-2.23,1.35A5.82,5.82,0,0,0,51.42,34a5.67,5.67,0,0,0-.28.61,1.27,1.27,0,0,1-.13.32.11.11,0,0,1-.14.07C50.81,35,50.86,34.85,50.91,34.9Z"/><path class="cls-5" d="M53.68,35.14a9,9,0,0,0-.7,1c-.16.29-.29.69,0,.91s.57.12.75.32,0,.57-.19.74-.52.22-.76.37a1.15,1.15,0,0,0-.51,1,.75.75,0,0,0,.12.39.77.77,0,0,0,1,.16,2.16,2.16,0,0,0,.73-.74,7.7,7.7,0,0,0,1.1-2.08C55.5,36.12,55.37,33,53.68,35.14Z"/><path class="cls-6" d="M51.4,41.32S49.89,45,52,45.46,53.28,42,53.28,42s-.35,3.39-1.12,1.35Z"/><path class="cls-10" d="M46.17,13.79s10.8.61,7.3,6-9.55,7.41-10.38-3.15C42.58,10,40.86,15,40.86,15s-13.52-3-4.41-9.51c8.41-6,6.81,6.05,6.81,6.05S46,9.53,46.17,13.79Z"/><ellipse class="cls-13" cx="40.12" cy="4.99" rx="0.97" ry="0.83" transform="translate(0.11 10.78) rotate(-15.32)"/><ellipse class="cls-13" cx="50.9" cy="16.17" rx="0.97" ry="0.83" transform="translate(-2.46 14.02) rotate(-15.32)"/><ellipse class="cls-13" cx="52.54" cy="18.65" rx="0.97" ry="0.83" transform="translate(-3.06 14.54) rotate(-15.32)"/><ellipse class="cls-13" cx="48.3" cy="18.24" rx="0.97" ry="0.83" transform="translate(-3.1 13.41) rotate(-15.32)"/><ellipse class="cls-13" cx="45.18" cy="17.49" rx="0.97" ry="0.83" transform="translate(-3.02 12.56) rotate(-15.32)"/><ellipse class="cls-13" cx="46.14" cy="21.23" rx="0.97" ry="0.83" transform="translate(-3.97 12.94) rotate(-15.32)"/><ellipse class="cls-13" cx="49.72" cy="21.2" rx="0.97" ry="0.83" transform="translate(-3.83 13.89) rotate(-15.32)"/><ellipse class="cls-13" cx="47.59" cy="15.46" rx="0.97" ry="0.83" transform="translate(-2.39 13.12) rotate(-15.32)"/><ellipse class="cls-13" cx="42.22" cy="7.97" rx="0.97" ry="0.83" transform="translate(-0.6 11.44) rotate(-15.32)"/><ellipse class="cls-13" cx="35.62" cy="9.31" rx="0.97" ry="0.83" transform="matrix(0.96, -0.26, 0.26, 0.96, -1.19, 9.74)"/><ellipse class="cls-13" cx="36.67" cy="6.27" rx="0.97" ry="0.83" transform="translate(-0.35 9.91) rotate(-15.32)"/><ellipse class="cls-13" cx="39.11" cy="8.36" rx="0.97" ry="0.83" transform="translate(-0.82 10.63) rotate(-15.32)"/><ellipse class="cls-13" cx="41.15" cy="10.53" rx="0.97" ry="0.83" transform="translate(-1.32 11.25) rotate(-15.32)"/><ellipse class="cls-13" cx="38.03" cy="11.6" rx="0.97" ry="0.83" transform="translate(-1.71 10.46) rotate(-15.32)"/><ellipse class="cls-13" cx="40.27" cy="12.88" rx="0.97" ry="0.83" transform="translate(-1.97 11.1) rotate(-15.32)"/><ellipse class="cls-10" cx="43.46" cy="14.01" rx="2.99" ry="2.24" transform="translate(3.5 36.11) rotate(-46.81)"/></svg>