<svg id="Layer_1" data-name="Layer 1" xmlns="http://www.w3.org/2000/svg" viewBox="0 0 17.07 9.98"><defs><style>.cls-1{fill:#7b2f2c;}.cls-2{fill:#f48a71;}.cls-3{fill:#fff;}.cls-4{fill:#f5968e;}.cls-5{fill:#f48678;}.cls-6{fill:#e9a597;opacity:0.5;}</style></defs><g id="uh"><path class="cls-1" d="M8.79,4.34a38,38,0,0,1-7.53.73s4.45,4.06,5.3,4,5.27-1,6.4-1.66a14,14,0,0,0,2.75-4.12A4.16,4.16,0,0,0,16,.71C15.68,1.31,10.7,3.77,8.79,4.34Z"/><path class="cls-2" d="M7.46,8.08A4,4,0,0,0,10.24,8a4.85,4.85,0,0,0,2.44-1.36c-.26-.56-1.94-.24-2.12-.14a17.2,17.2,0,0,1-2,.58C8.07,7.31,7.53,7.65,7.46,8.08Z"/><path class="cls-3" d="M12.58,6.54a50.16,50.16,0,0,0-5,1.51c-.32.14-1.38.12-1.53.4l3.85.15,4.38-2.54C13.75,5.91,13.13,6.43,12.58,6.54Z"/><path class="cls-4" d="M16.1.93c-.19-.48-.32.1-.32.1.2.52-1.21,5.59-5.58,6.63C5.38,8.81,1.74,5.74,1.64,5.18c0,0-.33-.18-.32.1a8.18,8.18,0,0,0,9.41,3.91C15.91,7.64,16.28,1.42,16.1.93Z"/><path class="cls-3" d="M14.45,2.09c0-.19-.89.2-1.06.29a5,5,0,0,1-1.2.47C12.08,2.85,9.41,4,9.41,4S6.08,4.62,6,4.67s-2.51.25-2.51.25A8.23,8.23,0,0,0,4.9,6a10.19,10.19,0,0,0,5-.49,9.37,9.37,0,0,0,3.72-1.92A2.36,2.36,0,0,0,14.45,2.09Z"/><path class="cls-5" d="M16.12.81c-.11-.24-.28.08-.28.08-.63.56-2.85,1.59-6.7,2.85a25,25,0,0,1-7.4,1.19.54.54,0,0,0-.48.14c-.39.74,4.18.27,8-.87S16.23,1,16.12.81Z"/><path class="cls-6" d="M1.3,4.75c.17-.35-.18-.28-.3,0a1.6,1.6,0,0,0,.13.87A7.66,7.66,0,0,1,1.3,4.75Z"/><path class="cls-6" d="M15.82.48c-.38-.1-.09-.33.22-.2s.41.69.41.69C16,.53,15.94.52,15.82.48Z"/></g></svg>