<svg id="Layer_1" data-name="Layer 1" xmlns="http://www.w3.org/2000/svg" viewBox="0 0 21.64 13.25"><defs><style>.cls-1{fill:#f6fbfd;stroke:#323232;stroke-miterlimit:10;stroke-width:0.25px;}.cls-2{fill:#451f16;}.cls-3{fill:#fff;}.cls-4{fill:#f9d1c6;}</style></defs><path class="cls-1" d="M.92,2.82A4,4,0,0,0,3,7.89,3.55,3.55,0,0,0,7.91,6.08,4,4,0,0,0,5.8,1,3.55,3.55,0,0,0,.92,2.82Z"/><path class="cls-2" d="M2.64,5.66c-.37.88.24,1.83,1.38,2.12A2.37,2.37,0,0,0,6.77,6.71c.37-.87-.24-1.82-1.38-2.11A2.36,2.36,0,0,0,2.64,5.66Z"/><path class="cls-3" d="M4.28,4.51a.71.71,0,0,0,.09,1,.62.62,0,0,0,.9-.12.71.71,0,0,0-.09-1A.62.62,0,0,0,4.28,4.51Z"/><path class="cls-1" d="M20.91,9.67a3.7,3.7,0,0,1-4.11,2.9,3.27,3.27,0,0,1-2.67-4,3.7,3.7,0,0,1,4.11-2.9A3.25,3.25,0,0,1,20.91,9.67Z"/><path class="cls-2" d="M19.06,10.72c.22-.85-.46-1.63-1.53-1.75a2.12,2.12,0,0,0-2.33,1.3c-.22.84.46,1.63,1.53,1.75A2.13,2.13,0,0,0,19.06,10.72Z"/><path class="cls-3" d="M17,9a.71.71,0,0,0,.13,1A.69.69,0,1,0,18,9,.69.69,0,0,0,17,9Z"/><path class="cls-4" d="M5.8,1A3.55,3.55,0,0,0,.92,2.82,4,4,0,0,0,3,7.89,3.55,3.55,0,0,0,7.91,6.08,4,4,0,0,0,5.8,1Z"/><path class="cls-4" d="M18.24,5.71a3.7,3.7,0,0,0-4.11,2.9,3.27,3.27,0,0,0,2.67,4,3.7,3.7,0,0,0,4.11-2.9A3.25,3.25,0,0,0,18.24,5.71Z"/></svg>