<svg id="Layer_1" data-name="Layer 1" xmlns="http://www.w3.org/2000/svg" viewBox="0 0 33.08 26.65"><defs><style>.cls-1{fill:#fad2c6;stroke:#5f4a43;}.cls-1,.cls-3{stroke-miterlimit:10;stroke-width:0.25px;}.cls-2{fill:#e7b4a7;}.cls-3{fill:#fcde7d;stroke:#323232;}</style></defs><path class="cls-1" d="M25,14.66C20.51,16,17.15,19,12.89,20.25a22.84,22.84,0,0,1-4.51,1.33l-.67-4.39a12.79,12.79,0,0,1,3.65-2c3.29-1.3,7.69-2.28,12.07-3.88C23.85,11.12,25.45,14.53,25,14.66Z"/><path class="cls-1" d="M21.67,11.88c0-.73.44-3,.8-5.68.06-.43.89.06,1,.63.33,1.23.07,1.62.29,2.24s.73.52,1.27.23c2.19-2.18,3.21-3.67,4.1-3.38.69.36-.61,2.07-2.18,3.92,2.33-1.23,4.3-2,4.53-1.37s-1.72,1.87-3.44,3c2,.19,4.13-.2,4,.85-.07.77-4.31.87-4,1.56.1.25.48.38,1.07.6a3.74,3.74,0,0,1,1.51.82c.24.36-.14.61-.78.6-1.06,0-3.44-.16-4.62-.31a3.45,3.45,0,0,1-1.85-.39"/><path class="cls-1" d="M24.05,9.43c.11.05,1.6.66.68,2.68"/><path class="cls-2" d="M11.58,20.46a7.9,7.9,0,0,1-2.68.71l-1.51-3.7a12.59,12.59,0,0,1,3.65-2A45.81,45.81,0,0,1,11.58,20.46Z"/><path class="cls-3" d="M3.42,26l6.3-4s.84-3.85-.53-6.45A21,21,0,0,0,1,17.88"/></svg>