<svg id="Layer_1" data-name="Layer 1" xmlns="http://www.w3.org/2000/svg" xmlns:xlink="http://www.w3.org/1999/xlink" viewBox="0 0 88.34 19.71"><defs><style>.cls-1{fill:none;}.cls-2{clip-path:url(#clip-path);}.cls-3{fill:#ff6425;}.cls-4{fill:#ffa724;}.cls-5{fill:#fff18b;}.cls-6{fill:#281b17;}.cls-7{fill:#473a3a;}.cls-8{fill:#5e5454;}</style><clipPath id="clip-path"><path class="cls-1" d="M37.56.73S47.77.66,49.81.87c0,0,3.64,4.23.88,7.71s-6.79,6-10,4.49S34.27,5,37.56.73Z"/></clipPath></defs><g class="cls-2"><path class="cls-3" d="M44.36-4.27A3.26,3.26,0,0,1,45.88-1.5c-.06,1.37-1,1.91-1.07,3.3a1.55,1.55,0,0,0,.95,1.55A2.75,2.75,0,0,1,47,.11a2.28,2.28,0,0,0-.27,2.05,5.76,5.76,0,0,1,1.58,3.73c0,2.25-2.44,4-4,4s-4.88-1-4.88-3.95a6.26,6.26,0,0,1,.42-2,2.41,2.41,0,0,0,1.66,2,3.61,3.61,0,0,1-1-3.53c.62-2.56,3.25-3.95,3.84-4.78A1.77,1.77,0,0,0,44.36-4.27Z"/><path class="cls-4" d="M43.29,1.2a2.49,2.49,0,0,0-.16,3.17c.56,1.16-.75,2.37-.93,3.19a2.16,2.16,0,0,0,2.16,2.28c1.3,0,2-1.4,2-2.63S45.39,5,44,4A2.1,2.1,0,0,1,43.29,1.2Z"/><path class="cls-5" d="M43.92,5.87c.69.56,1.7,1.5,1.5,2.53a2.14,2.14,0,0,1-1.06,1.44c-.25-.11-.91-.47-.89-1s.82-.69,1-1.22C44.69,6.88,43.92,5.87,43.92,5.87Z"/></g><path class="cls-6" d="M25.87,19c1-.66,10.92-7,11.14-7.1a1.51,1.51,0,0,0-.38-.14l-.43-.5c-.18.05-11,7-12,7.66Z"/><path class="cls-6" d="M60.67,19l1.44-.09c-.73-.53-10.82-7.86-11-7.91l-1.44.26.36.07Z"/><path class="cls-7" d="M52.79,8.8v4.13h-18V8.48a12.39,12.39,0,0,1,3.94-.71A64.37,64.37,0,0,1,50.53,8S52.25,8.1,52.79,8.8Z"/><ellipse class="cls-8" cx="43.78" cy="12.51" rx="9.01" ry="1.79"/><path class="cls-8" d="M35.24,9.16C35,9.16,4,4,2.57,3.6"/><path class="cls-6" d="M35.24,9.62V9.16l0-.46c-.2,0-30.55-5-32.12-5.45L.54,3.68C1.51,3.94,34.68,9.62,35.24,9.62Z"/><path class="cls-8" d="M52,8.72c.29,0,27-4,30.19-4"/><path class="cls-6" d="M52,9.18c.09,0,.38,0,4.14-.58C63.82,7.49,85.39,4.2,87.8,4.17L85,3.64c-2.48,0-21.34,2.94-29,4.05-2.17.31-3.89.56-4,.57Z"/></svg>