<svg xmlns="http://www.w3.org/2000/svg" viewBox="0 0 69.31 55.28"><defs><style>.cls-1{isolation:isolate;}.cls-2{fill:#5b5447;}.cls-3{fill:#424036;}.cls-4{fill:#fbd3c7;stroke:#323232;}.cls-4,.cls-7{stroke-miterlimit:10;stroke-width:0.25px;}.cls-5{fill:#e4a68d;}.cls-6{fill:#431b15;}.cls-7{fill:#321213;stroke:#221f1f;}.cls-8{fill:#90866e;}.cls-9{fill:#605e43;}.cls-10,.cls-13{fill:#9f9681;opacity:0.5;}.cls-10,.cls-12{mix-blend-mode:multiply;}.cls-11,.cls-12{fill:#666253;}.cls-12{opacity:0.4;}.cls-13{mix-blend-mode:screen;}.cls-14{fill:#c48a74;}</style></defs><g class="cls-1"><g id="Layer_1" data-name="Layer 1"><path class="cls-2" d="M11.68,23.35a15.57,15.57,0,0,0-3.43,2.92C6.13,28.51,1.55,35,1.43,37.44s15.3-1.5,35.45-5.39,27.39-8.22,27.34-9.39-5.74-5.25-11.78-7S38.48,15,29,16.87A60,60,0,0,0,11.68,23.35Z"/><path class="cls-3" d="M26.46,17.54a60.84,60.84,0,0,0-14.72,5.91,15.39,15.39,0,0,0-3.41,2.91c-2.2,2.32-6.68,8.74-6.79,11.09a.34.34,0,0,0,.12.3c1.22,1.11,9.72-.64,21.48-3,4.13-.85,8.82-1.81,13.72-2.76,3.36-.65,6.54-1.35,9.45-2.07,13.67-3.41,17.83-6.47,17.8-7.2,0-1.1-5.74-5.17-11.7-6.94C46.29,13.9,38.18,15.22,29,17,28.16,17.14,27.31,17.33,26.46,17.54Z"/><path class="cls-4" d="M50.39,21.49A2.5,2.5,0,0,1,51,24.13c-2.59,7.52-2.28,9.71-3.86,18.8C46,49.65,38.88,54.49,32.57,53.45c-7.76-1.28-16.72-5-16.64-20.12,0-6.67-1.44-13.83-.22-16,4.13-7.44,8-6,17.64-4.33C42.41,14.5,46.18,15.49,50.39,21.49Z"/><path class="cls-5" d="M48.9,33.36s-.44-12.71-6.61-10.53c-6.72,2.38-9.58-.46-12.31.33-6,1.71-12.24,11-14.78,5.06S29.2,14,29.2,14s15.34-2.43,16.4-2.07,5.79,8.17,5.79,8.17Z"/><path class="cls-6" d="M43.68,27.4a.47.47,0,0,1-.48-.66l0-.13c.31-.7,1.31-.74,1.87-.54A3.94,3.94,0,0,1,48,29.13c.06.2-.16.4-.28.25A5.06,5.06,0,0,0,43.68,27.4Z"/><path class="cls-6" d="M32,25.93a.47.47,0,0,0,.68-.45v-.14c0-.77-1-1.16-1.57-1.16a3.92,3.92,0,0,0-3.72,1.89c-.13.16,0,.43.18.33A5,5,0,0,1,32,25.93Z"/><path class="cls-7" d="M43.79,18.25S42.3,26.1,29.62,20.77c0,0,14.11-2.4-.11-5.43,0,0,2.14,4.78-7,1.84,0,0,6.2,6.19-4.67,12.57,0,0-1.92.32-2,5,0,.34,0,.7,0,1.08.2,5.72,0-.74,0-.74s-5.11-1.71-4.23-7.83A8.36,8.36,0,0,1,12,17.33s-1.58-7.75,7.2-8.21c0,0,3.18-7.14,8.32-6.13,0,0,8.21-4.63,13,2.58,0,0,6.13-1.15,9,6.35,0,0,4.92,3.59,2.9,8.18,0,0,3.93,3.15-.56,6.31,0,0,2.94,3.49-1.66,5.86l-2,4.25.72-3.16a14.92,14.92,0,0,0-4.79-14.84Z"/><path class="cls-8" d="M52.44,15.62c-6-1.8-14-.58-23.47,1.25a60,60,0,0,0-17.29,6.48,15.57,15.57,0,0,0-3.43,2.92C6.13,28.51,1.55,35,1.43,37.44,1.72,35.8,8,28,34.57,22.63c17.35-3.5,26.2-2.08,29.47-.39C63,20.71,57.88,17.23,52.44,15.62Z"/><path class="cls-9" d="M64.07,22.35H64c-1.81-.93-9.27-3.65-29.4.41-2.35.47-4.62,1-6.76,1.51C7,29.45,1.8,36,1.54,37.47a.1.1,0,0,1-.12.09.12.12,0,0,1-.1-.12c.13-2.59,4.88-9.16,6.85-11.25a15.35,15.35,0,0,1,3.46-2.94A60.68,60.68,0,0,1,26.4,17.32c.86-.21,1.71-.4,2.55-.56C38.17,15,46.3,13.67,52.47,15.51c5.43,1.61,10.62,5.08,11.66,6.66a.12.12,0,0,1,0,.14A.1.1,0,0,1,64.07,22.35Z"/><path class="cls-10" d="M11.59,27.75c1.15-2.72,3.67-4.87,5.87-6.52a31,31,0,0,1,2.84-1.88,58.16,58.16,0,0,0-8.62,4,15.57,15.57,0,0,0-3.43,2.92C6.13,28.51,1.55,35,1.43,37.44c.18-1,2.55-4.26,10.31-7.86A1.94,1.94,0,0,1,11.59,27.75Z"/><path class="cls-10" d="M42.08,15.22a37,37,0,0,1,6.54,1.38c1.62.5,3.61,1.47,3.86,3.51a2.36,2.36,0,0,1,0,.37c6-.07,9.68.8,11.54,1.76-1-1.53-6.16-5-11.6-6.62-3.63-1.09-7.95-1.07-12.89-.49A19.39,19.39,0,0,1,42.08,15.22Z"/><path class="cls-8" d="M8.42,24.89s-2.76-8.54,6.07-17c9.56-9.2,23-6.79,27.23-4.88s8.94,6.64,10.49,11.65c0,0-14.91.53-21.65,2.08S12,22,8.42,24.89Z"/><path class="cls-9" d="M29,17l1.56-.38c6.33-1.44,20-2,21.53-2.06C50.4,9.35,45.6,4.86,41.67,3.08c-2.9-1.31-9.68-2.65-16.48-1A23.34,23.34,0,0,0,14.56,7.94c-8,7.71-6.39,15.55-6.08,16.76C12.06,21.88,22.65,18.55,29,17Z"/><path class="cls-10" d="M45.1,10.67c-.89,2.15-2.92,3.28-4.77,4.11-.65.29-1.3.55-2,.78,6.65-.67,13.84-.93,13.84-.93-1.43-4.63-5.58-9-9.54-11.17C44.6,5.18,46.2,8,45.1,10.67Z"/><path class="cls-10" d="M22.08,17.93a17.9,17.9,0,0,1-7.91-1.3,5.44,5.44,0,0,1-3.33-4.35c-4.3,6.8-2.42,12.61-2.42,12.61,2.9-2.38,11.37-5.31,18-7.14C25,17.86,23.54,17.93,22.08,17.93Z"/><path class="cls-11" d="M30.17,15.37c5.44-1.28,20.4-2.41,22-1.72a9.07,9.07,0,0,1,.53,2.15c-.09.39-7.49-.93-20.61,1.82C14.89,21.23,9,26,8.56,26.14s-.62-1.95-.47-2.3S14.37,19.11,30.17,15.37Z"/><path class="cls-3" d="M52.7,16a8.6,8.6,0,0,1-1.49,0,77.31,77.31,0,0,0-19,1.75c-1.58.33-3.13.69-4.61,1.06C22,20.17,14.28,22.55,8.93,26.05a1.94,1.94,0,0,1-.33.2h0a.26.26,0,0,1-.27-.11A4.31,4.31,0,0,1,8,23.8c.14-.34,6.17-4.76,22.17-8.54,5.33-1.26,20.42-2.43,22.11-1.71l.05,0,0,0a8.74,8.74,0,0,1,.53,2.21A.18.18,0,0,1,52.7,16Z"/><path class="cls-12" d="M52.22,13.65c-.93-.39-6.14-.2-11.47.27a3.69,3.69,0,0,0,.58,0c5.29.17,1.75,1.35-2.21,1.72a77.82,77.82,0,0,0-13.94,2.59c-5.88,1.58-8,.83-3.29-.58.34-.11.65-.22.93-.34C12.43,20.51,8.2,23.55,8.09,23.84s0,2.48.47,2.3,6.33-4.91,23.58-8.52c13.12-2.75,20.52-1.43,20.61-1.82A9.07,9.07,0,0,0,52.22,13.65Z"/><path class="cls-13" d="M14.21,27.55s10.25-5.28,35.67-7.88C49.88,19.67,29.47,19.66,14.21,27.55Z"/><path class="cls-4" d="M16.35,37.21c-.52-3.46-1.92-4.92-3.79-4.78S9.89,34,10.21,36.88c.41,3.64,4.47,6,6.89,5.13"/><path class="cls-5" d="M11.6,35.81s-.67-2,1.53-1.77,1.25,3.06,1.93,4.18,2.1,2.2,1.18,2.51S12.11,40.14,11.6,35.81Z"/><path class="cls-14" d="M39.2,39a2.08,2.08,0,0,1,.25,1.63,1.13,1.13,0,0,1-.63.69,2,2,0,0,1-.88.16,2.23,2.23,0,0,1-1.58-.65,2.32,2.32,0,0,1-.65-1.5,3,3,0,0,0,.91,1.21A2.21,2.21,0,0,0,38,41a1.13,1.13,0,0,0,1.15-.49A2.73,2.73,0,0,0,39.2,39Z"/></g></g></svg>