<svg id="Layer_1" data-name="Layer 1" xmlns="http://www.w3.org/2000/svg" viewBox="0 0 26.51 19.91"><defs><style>.cls-1{fill:#551514;}.cls-2{fill:#fff;}.cls-3{fill:#d72b5d;}.cls-4{fill:#bb7757;}.cls-5{fill:#dc9e8f;}</style></defs><g id="EE"><path class="cls-1" d="M1.31,12.8s4.18-1.23,5-1.52c1.18-.41,2.39-.86,3.53-1.39,2-.93,4-1.82,6-2.74A18.28,18.28,0,0,0,18.6,5.54,10.79,10.79,0,0,1,21.05,4.1a6.37,6.37,0,0,1,1.65-.44l1.94-1.78a11.05,11.05,0,0,1-.17,4c-.16.75-.57,2-.73,2.8-.56,2.74-3,4.3-5.52,5.93a17,17,0,0,1-4.65,2,8.7,8.7,0,0,1-3.21.61c-.4-.06-.53.09-.91,0-.58-.17-1.77,0-2.28-.35s-1.44-.55-2.08-.93A48,48,0,0,1,1.31,12.8Z"/><path class="cls-2" d="M5.77,12.16s1.47-1.22,1.6-1.31S13.6,8.23,13.6,8.23s5.9-3.1,6-3.13,1.76-.56,1.76-.56A18.88,18.88,0,0,1,21,7.25c-.5.83-2.7,2.13-6.32,3.87-3.77,1.81-5.52,2.39-6.82,2.36C7.16,13.47,5.77,12.16,5.77,12.16Z"/><path class="cls-3" d="M20.62,12.59c-.82,1.26-1.69,2-4.34,3.23a9.3,9.3,0,0,1-5.13,1C11,16,13,14.35,14.24,14.08s2.81-1.4,3.69-1.61S20.07,12.07,20.62,12.59Z"/><path class="cls-2" d="M7.53,16.68s2.37-.38,3.59-.74,4.42-1.52,4.42-1.52,2.92-1.41,3.83-2c1.1-.71,3.69-2.52,3.69-2.52L20.2,15l-3.59,2.05h0l-.3.18,0-.06-3.83,1.37Z"/><path class="cls-4" d="M1.31,12.8a18.92,18.92,0,0,0,6.22,3.88,11.81,11.81,0,0,0,8.55-.21,16.26,16.26,0,0,0,7.34-7.7,18.32,18.32,0,0,0,1.22-6.89S26.19,14,16.86,18.33C8.34,22.32,1.31,12.8,1.31,12.8Z"/><path class="cls-4" d="M13.48,8c4.4-2,11.16-6.14,11.16-6.14S23.39,4.51,13.79,9c-11,5.16-12.48,3.8-12.48,3.8S9,10.08,13.48,8Z"/><path class="cls-5" d="M24.51,1.22c-.59-.3-.05-.6.42-.29s.72,1.36.72,1.36A14.14,14.14,0,0,0,24.51,1.22Z"/><path class="cls-5" d="M1.4,12.05c.38-.58-.22-.56-.49,0s.16,1.45.16,1.45C1.22,12.32,1.28,12.24,1.4,12.05Z"/></g></svg>