<svg id="Layer_1" data-name="Layer 1" xmlns="http://www.w3.org/2000/svg" xmlns:xlink="http://www.w3.org/1999/xlink" viewBox="0 0 79.97 17.87"><defs><style>.cls-1{fill:none;}.cls-2{clip-path:url(#clip-path);}.cls-3{fill:#ff6425;}.cls-4{fill:#ffa724;}.cls-5{fill:#fff18b;}.cls-6{fill:#281b17;}.cls-7{fill:#473a3a;}.cls-8{fill:#5e5454;}</style><clipPath id="clip-path"><path class="cls-1" d="M33.42.64s9-.06,10.8.12c0,0,3.21,3.73.78,6.79s-6,5.27-8.86,4S30.53,4.39,33.42.64Z"/></clipPath></defs><g class="cls-2"><path class="cls-3" d="M39.42-3.77a2.85,2.85,0,0,1,1.34,2.44c0,1.21-.9,1.69-.94,2.91A1.38,1.38,0,0,0,40.66,3,2.42,2.42,0,0,1,41.79.09a2,2,0,0,0-.24,1.81,5.1,5.1,0,0,1,1.39,3.29,3.88,3.88,0,0,1-3.52,3.48c-1.36,0-4.3-.85-4.3-3.48a5.56,5.56,0,0,1,.37-1.77A2.13,2.13,0,0,0,37,5.19a3.17,3.17,0,0,1-.87-3.12C36.64-.18,39-1.41,39.48-2.14A1.57,1.57,0,0,0,39.42-3.77Z"/><path class="cls-4" d="M38.48,1.05a2.19,2.19,0,0,0-.14,2.8c.49,1-.66,2.08-.82,2.81a1.9,1.9,0,0,0,1.9,2c1.15,0,1.8-1.24,1.8-2.32s-.89-1.95-2.09-2.8A1.85,1.85,0,0,1,38.48,1.05Z"/><path class="cls-5" d="M39,5.17c.61.49,1.51,1.32,1.33,2.23a1.9,1.9,0,0,1-.94,1.27c-.22-.1-.8-.42-.78-.89s.72-.61.87-1.08C39.71,6.06,39,5.17,39,5.17Z"/></g><path class="cls-6" d="M22.92,17c.85-.59,9.83-6.43,10-6.54a1.75,1.75,0,0,0-.33-.13l-.38-.44c-.16,0-9.93,6.48-10.75,7Z"/><path class="cls-6" d="M53.85,17.24l1.27-.08c-.64-.47-9.59-7.47-9.77-7.51l-1.26.22.31.07C44.58,10.06,53.15,16.74,53.85,17.24Z"/><path class="cls-7" d="M46.86,7.75v3.64H31V7.47a10.71,10.71,0,0,1,3.47-.62A56.79,56.79,0,0,1,44.86,7S46.38,7.13,46.86,7.75Z"/><ellipse class="cls-8" cx="38.91" cy="11.03" rx="7.94" ry="1.58"/><path class="cls-8" d="M31.38,8.07c-.25,0-27.27-4.35-28.51-4.68"/><path class="cls-6" d="M31.38,8.47v-.4l0-.4c-.18,0-26.65-4.22-28-4.6l-2.31.38C1.94,3.68,30.89,8.47,31.38,8.47Z"/><path class="cls-8" d="M46.16,7.68c.25,0,23.78-3.5,26.61-3.54"/><path class="cls-6" d="M46.16,8.09l3.65-.51c6.76-1,27-4.13,29.08-4.16L76.19,3C74,3,56.47,5.8,49.69,6.77l-3.56.51Z"/></svg>