<svg id="Layer_1" data-name="Layer 1" xmlns="http://www.w3.org/2000/svg" viewBox="0 0 22 11"><defs><style>.cls-1{fill:#551514;}.cls-2{fill:#d72b5d;}.cls-3{fill:#fff;}.cls-4{fill:#bb7757;}</style></defs><g id="S"><path class="cls-1" d="M18.58,7.28c0,.37-2.8,1.91-3.91,2.54s-2.94.48-4.26.37c-.49,0-3.2-.92-3.87-1.08-1.58-.36-4-3.61-4-3.61A7.29,7.29,0,0,1,4,4.48c.54-.25,1.11-.64,1.66-1a8.63,8.63,0,0,1,3.21-1,11,11,0,0,1,5.29.85c.39.14,2.15,1.22,2.68,1.52A7.78,7.78,0,0,1,18.58,7.28Z"/><path class="cls-2" d="M13.47,7.4c-.68-.54-1.48,0-2.24-.08L10,7.21a6.71,6.71,0,0,0-2.47-.36,1.19,1.19,0,0,0-.43,2,3.68,3.68,0,0,0,2,.37,16.43,16.43,0,0,0,3.36.06c.34,0,1,.09,1.27-.31A1.16,1.16,0,0,0,13.47,7.4Z"/><path class="cls-3" d="M13.77,3.11l-3.5-.66-3.7.4-.87.46A4.81,4.81,0,0,0,7,4.07a18.46,18.46,0,0,0,7.24.56,13.54,13.54,0,0,0,1.67-.53Z"/><path class="cls-3" d="M15,9.52s-.33-1.09-.63-1.24c-1-.49-2.21.08-4-.15S7,7.41,6,7.64c-.22.05-.74.62-.74.62L6.38,9l3.85.83h3Z"/><path class="cls-4" d="M18.58,7.28a11.28,11.28,0,0,1-4.16,1.65,30.72,30.72,0,0,1-7.63-.67A26,26,0,0,1,2.56,5.5a3.48,3.48,0,0,0,.58,1.11A9.81,9.81,0,0,0,6.19,9.3a11.26,11.26,0,0,0,4.19.88,8.64,8.64,0,0,0,4.76-.31,11.51,11.51,0,0,0,3.44-2.53Z"/></g><path class="cls-4" d="M2.56,5.5s2.92-2.74,8.58-2.25,7.44,4,7.44,4-.84-4.2-7.42-4.94S2.56,5.5,2.56,5.5Z"/></svg>