<svg id="Layer_1" data-name="Layer 1" xmlns="http://www.w3.org/2000/svg" viewBox="0 0 1000 1300"><defs><style>.cls-1{fill:#4a2a15;}.cls-2{fill:#9b9b9b;}.cls-10,.cls-13,.cls-15,.cls-16,.cls-17,.cls-19,.cls-2,.cls-3,.cls-4,.cls-5,.cls-6,.cls-7,.cls-9{stroke:#323232;stroke-miterlimit:10;}.cls-19,.cls-2,.cls-3,.cls-4,.cls-5,.cls-6,.cls-9{stroke-width:0.5px;}.cls-3{fill:#9cb9e1;}.cls-13,.cls-15,.cls-4,.cls-7{fill:#fad2c6;}.cls-5{fill:none;}.cls-6{fill:#fcd97e;}.cls-8{fill:#dc9e8f;}.cls-10,.cls-9{fill:#e0604f;}.cls-10{stroke-width:0.22px;}.cls-11{fill:#f18d7a;}.cls-12{fill:#323232;}.cls-13{stroke-width:0.25px;}.cls-14{fill:#e4a58c;}.cls-15{stroke-width:0.75px;}.cls-16{fill:#81a6d6;}.cls-17{fill:#597dbe;}.cls-18{fill:#3c62a0;}.cls-19{fill:#fccd3a;}.cls-20{fill:#be9030;}.cls-21{fill:#fab51b;}.cls-22{fill:#f17125;}.cls-23{fill:#80351b;}.cls-24{fill:#75451c;}.cls-25{fill:#a66638;}.cls-26{fill:#925b24;}.cls-27{fill:#e69847;}.cls-28{fill:#5f2710;}</style></defs><polygon class="cls-1" points="590.34 940.58 608.92 1145.68 612.15 1145.66 593.5 940.58 590.34 940.58"/><polygon class="cls-1" points="431.11 940.38 411.86 1145.68 408.63 1145.66 427.95 940.38 431.11 940.38"/><path class="cls-2" d="M571.3,1214c.38-1.16.87-3.08,2.1-3.67.34-.15.64,0,1,.17s.66.36,1,.53c.16.07,2.12.55,2.12.59.07-.3,0-.61.08-.91a2.07,2.07,0,0,1,.44-.71,2.18,2.18,0,0,1,2.83-.44c1.29.62,1.93,2,2.78,3.09a9.47,9.47,0,0,0,3.56,2.48,52.86,52.86,0,0,0,7.82,3.07,3.73,3.73,0,0,1,2.91,3.09c.22,1.31.31,3.31-.86,4.23a3.65,3.65,0,0,1-1.21.57,5.5,5.5,0,0,1-1.22.35c-3.48.69-7.35.11-10.76-.58-.64-.12-1.26-.27-1.88-.42a38.47,38.47,0,0,1-4.77-1.82c-1.36-.62-2.67-1.31-4-2a6.85,6.85,0,0,1-2.68-2.16c0-.44,0-.88,0-1.32A25.45,25.45,0,0,1,571.3,1214Z"/><path class="cls-3" d="M570.8,1217.84c.24.23,8.29,5,12.53,6a31.75,31.75,0,0,0,6.87.94c2.54,0,6.32-.08,7.41-2.72a2.79,2.79,0,0,0-.19-1.3,3.43,3.43,0,0,0-.62-1.14c-1-1.28-2.72-1.41-4.2-1.86a37.19,37.19,0,0,1-4.88-2.07c-1.6-.71-3.41-1.49-4.48-2.94-.57-.77-1-1.62-1.61-2.37a2.18,2.18,0,0,0-3.81,1.49c0,.07-.06.14-.13.12a10.8,10.8,0,0,1-3.8-1.23.86.86,0,0,0-.5.15,1.39,1.39,0,0,0-.21.21,5.3,5.3,0,0,0-1.48,3.06C571.58,1214.72,570.79,1217.63,570.8,1217.84Z"/><path class="cls-2" d="M581.5,1215.38a6,6,0,0,1,1.37-1.38c.38-.28,1.21-.81,1.72-.56a26.57,26.57,0,0,1,4.41,2.26,4.49,4.49,0,0,0-2.78,1.1,5.63,5.63,0,0,0-1.26,1.45c-.26.48-.43,1.19-1.13,1.18a1.18,1.18,0,0,1-.45-.28C581.69,1217.53,580.46,1216.88,581.5,1215.38Z"/><path class="cls-2" d="M568.15,1218.73c-.2-.67-.42-1.32-.63-2a10.7,10.7,0,0,0-1.89-3.86c-.81-1-2.84-.75-2.21.71-.12.06-.22.15-.34.2a3.76,3.76,0,0,1-1.06.39,1.05,1.05,0,0,0-.13,0,4.31,4.31,0,0,0-3.54-1.11,2.46,2.46,0,0,0-1.71.91,4.89,4.89,0,0,0-.38.65c-.88,1.45-1.31,3.1-2.62,4.31a34.62,34.62,0,0,1-5.19,3.76c-1.55,1-2.75,1.68-3.13,3.58-.26,1.36.08,2.43,1.5,2.73a26.14,26.14,0,0,0,12.28-.32c1.88-.54,3.63-2.42,5-3.71.38-.35.75-.71,1.13-1.08l1.65-1.81a3.84,3.84,0,0,0,1.31-2.39A6.77,6.77,0,0,0,568.15,1218.73Z"/><path class="cls-3" d="M548,1223.16c1.36-.88,2.73-1.7,4.07-2.63a11.67,11.67,0,0,0,2.71-2.44,6.85,6.85,0,0,0,.85-1.57c.14-.38.27-.76.42-1.11a4.17,4.17,0,0,1,.62-1,2.82,2.82,0,0,1,2.12-1.08c.69,0,5.31-.64,5.75-.54s1.59.61,1.59.61c.13.24.67,1.39.8,1.63,0,0,.63,1.22.79,1.63a2.91,2.91,0,0,1,0,1.62,29.57,29.57,0,0,1-3.51,3.48,54.19,54.19,0,0,1-4.59,4c-2.14,1.57-4.67,1.78-7.22,1.7-.77,0-6.37.09-6.78-1.21A4.51,4.51,0,0,1,548,1223.16Z"/><path class="cls-2" d="M560.1,1217.65a13.11,13.11,0,0,0-2.67-.76,4.55,4.55,0,0,0-2.64.26,9.51,9.51,0,0,0-3,3.36,10,10,0,0,1,4.18,0,5.11,5.11,0,0,1,1.59.64c.39.27.81.77,1.35.47a2,2,0,0,0,.24-.42C560.18,1219.28,561.52,1218.41,560.1,1217.65Z"/><path class="cls-4" d="M589.9,1117.43l-2.24-4.26s-7.47,3.23-6.64,8.84,2.49,7.17,2.49,7.17c3.19,1.52,17.5-11.23,19-10.54,4.28,1.95,8.26,3.38,8.62-3,.26-4.62-2.34-3.21-3.87-3.4-2.2-.26,3.61-1.35,4-3.66.28-2-2.43-.07-6,.54-.39.07-.62.53-1,.8A47.35,47.35,0,0,1,589.9,1117.43Z"/><path class="cls-5" d="M606.9,1111.79a4,4,0,0,1,.33,2.86,11.87,11.87,0,0,1-1.06,2.74"/><path class="cls-4" d="M609.7,1112.21c.2.26,6.22.12,7.72.54s-3.48,2-6.58,1.89"/><path class="cls-4" d="M610.3,1118.36c5.85,0,6-1.59,6.7-.2.83,1.67-6.18,2.26-9.28,2.12"/><path class="cls-4" d="M610.87,1116.2c5.49.27,6.88-1.3,7.7,0,1.11,1.82-5.21,2.64-8.36,2.31"/><path class="cls-4" d="M610.83,1114.8c4.75-.34,7.59-1.73,8.59-.52s-5.54,2.24-8.64,2.1"/><path class="cls-6" d="M578,1094.26a22.61,22.61,0,0,1,7,8.11c2.24,4.9,4.67,11.55,4.33,11.75s-5.72,2.73-5.72,2.73Z"/><path class="cls-7" d="M558.62,1096.87l8.2,4.07,7-1.87-.77-5.47-.58-4.16-13.49-5a44.26,44.26,0,0,1,.51,8A11.65,11.65,0,0,1,558.62,1096.87Z"/><path class="cls-8" d="M559.85,1092.49a14.22,14.22,0,0,0,1.42.39c2.85.69,7.78,1.7,11.51.79l-.52-4.31-13.25-5A34,34,0,0,1,559.85,1092.49Z"/><path class="cls-6" d="M560.18,1097.62s-3-5.25-.7-4c14.09,7.64,13.26-1.57,17.31.08,2.26.92,4.17,2.91,5.24,6.58,4.25,14.58,7,18.27,7,18.27l-22.79-3.07Z"/><path class="cls-6" d="M561.83,1096.53l-1.89-2.83a1.52,1.52,0,0,0-2.46-.09l-13.29,17a21.22,21.22,0,0,1,6,10.58.35.35,0,0,0,.65.09l5.32-10.6.37,13.6,12.18-1.57-5-22Z"/><path class="cls-7" d="M573.09,1211.36l2.35,1a4.22,4.22,0,0,0,5.46-2.29,172.33,172.33,0,0,0,8.72-26.79q.72-3.09,1.3-6.3c3.54-19.7-7-8.09-7-8.09l-9,6.25-.5,9.93Z"/><path class="cls-8" d="M574.71,1185a35,35,0,0,0,13.82-1.39c.36-.12.43-.14.79-.28.48-2,1-4.13,1.39-6.27,3.54-19.7-6.82-8.22-6.82-8.22l-8.6,6Z"/><path class="cls-7" d="M557.9,1213a3,3,0,0,0,2.32,2.23l1.69.34a3,3,0,0,0,3.6-2.86,127.66,127.66,0,0,1,4-28c.51-2,1.08-3.93,1.73-5.93,5.56-17.11-10.47-3.24-14.48.42a3,3,0,0,0-1,2c0,.55-.07,1.28-.11,2.16C555.42,1189.35,555.27,1202.19,557.9,1213Z"/><path class="cls-8" d="M555.86,1183.44a21.84,21.84,0,0,0,6.07,1.43,31.88,31.88,0,0,0,5.44,0c.71-.05,1.09-.07,1.8-.16.68-2.59,1.42-4,2.07-6,5.56-17.11-10.47-3.24-14.48.42-.58.52-1.27.54-.92,1.24A6.74,6.74,0,0,1,555.86,1183.44Z"/><path class="cls-9" d="M564.48,1114.91c17.58-4.27,22-1.29,22-1.29s4.11,3.44,10.87,36c0,0,5.54,25.21,3.69,26.44-10.53,7-39.33,7.7-47.65,4l2.54-70C556,1116,557.71,1116.55,564.48,1114.91Z"/><path class="cls-10" d="M557.21,1093.21s9,12.48,7.35,24h3.57s-1.13-18.76-9.35-25.22Z"/><path class="cls-10" d="M573.06,1093.44s7,11.88,7.49,21.7h3.3s-3.62-19.21-9.49-22.14Z"/><ellipse class="cls-11" cx="562.71" cy="1120.24" rx="1.62" ry="1.58"/><ellipse class="cls-11" cx="569.19" cy="1120.24" rx="1.62" ry="1.58"/><ellipse class="cls-11" cx="572.11" cy="1116.85" rx="1.62" ry="1.58"/><ellipse class="cls-11" cx="572.4" cy="1124.8" rx="1.62" ry="1.58"/><ellipse class="cls-11" cx="576.59" cy="1120.24" rx="1.62" ry="1.58"/><ellipse class="cls-11" cx="583.12" cy="1120.35" rx="1.62" ry="1.58"/><ellipse class="cls-11" cx="585.15" cy="1116.85" rx="1.62" ry="1.58"/><ellipse class="cls-11" cx="586.54" cy="1126.38" rx="1.62" ry="1.58"/><ellipse class="cls-11" cx="579.37" cy="1125.33" rx="1.62" ry="1.58"/><ellipse class="cls-11" cx="560.86" cy="1128.66" rx="1.62" ry="1.58"/><ellipse class="cls-11" cx="568.26" cy="1128.66" rx="1.62" ry="1.58"/><ellipse class="cls-11" cx="575.67" cy="1128.66" rx="1.62" ry="1.58"/><ellipse class="cls-11" cx="582.84" cy="1129.98" rx="1.62" ry="1.58"/><ellipse class="cls-11" cx="590.33" cy="1129.98" rx="1.62" ry="1.58"/><ellipse class="cls-11" cx="577.75" cy="1115.58" rx="1.62" ry="1.58"/><ellipse class="cls-11" cx="587.7" cy="1121.93" rx="1.62" ry="1.58"/><ellipse class="cls-11" cx="558.08" cy="1123.75" rx="1.62" ry="1.58"/><ellipse class="cls-11" cx="558.08" cy="1118.77" rx="1.62" ry="1.58"/><ellipse class="cls-11" cx="587.7" cy="1133.57" rx="1.62" ry="1.58"/><ellipse class="cls-11" cx="579.37" cy="1133.57" rx="1.62" ry="1.58"/><ellipse class="cls-11" cx="571.96" cy="1133.57" rx="1.62" ry="1.58"/><ellipse class="cls-11" cx="564.56" cy="1133.57" rx="1.62" ry="1.58"/><ellipse class="cls-11" cx="559.01" cy="1138.13" rx="1.62" ry="1.58"/><ellipse class="cls-11" cx="568.26" cy="1137.78" rx="1.62" ry="1.58"/><ellipse class="cls-11" cx="575.67" cy="1137.78" rx="1.62" ry="1.58"/><ellipse class="cls-11" cx="584" cy="1137.78" rx="1.62" ry="1.58"/><ellipse class="cls-11" cx="591.17" cy="1136.73" rx="1.62" ry="1.58"/><ellipse class="cls-11" cx="588.62" cy="1141.99" rx="1.62" ry="1.58"/><ellipse class="cls-11" cx="580.29" cy="1141.99" rx="1.62" ry="1.58"/><ellipse class="cls-11" cx="571.96" cy="1141.99" rx="1.62" ry="1.58"/><ellipse class="cls-11" cx="563.63" cy="1141.99" rx="1.62" ry="1.58"/><ellipse class="cls-11" cx="567.34" cy="1146.2" rx="1.62" ry="1.58"/><ellipse class="cls-11" cx="576.59" cy="1146.2" rx="1.62" ry="1.58"/><ellipse class="cls-11" cx="584.92" cy="1146.2" rx="1.62" ry="1.58"/><ellipse class="cls-11" cx="592.92" cy="1145.14" rx="1.62" ry="1.58"/><ellipse class="cls-11" cx="589.55" cy="1150.41" rx="1.62" ry="1.58"/><ellipse class="cls-11" cx="595.1" cy="1149.35" rx="1.62" ry="1.58"/><ellipse class="cls-11" cx="581.22" cy="1150.41" rx="1.62" ry="1.58"/><ellipse class="cls-11" cx="571.96" cy="1150.41" rx="1.62" ry="1.58"/><ellipse class="cls-11" cx="585.85" cy="1155.32" rx="1.62" ry="1.58"/><ellipse class="cls-11" cx="593.06" cy="1155.32" rx="1.62" ry="1.58"/><ellipse class="cls-11" cx="596.69" cy="1158.49" rx="1.62" ry="1.58"/><ellipse class="cls-11" cx="591.59" cy="1160.23" rx="1.62" ry="1.58"/><ellipse class="cls-11" cx="581.22" cy="1160.23" rx="1.62" ry="1.58"/><ellipse class="cls-11" cx="572.89" cy="1160.23" rx="1.62" ry="1.58"/><ellipse class="cls-11" cx="562.71" cy="1160.23" rx="1.62" ry="1.58"/><ellipse class="cls-11" cx="557.16" cy="1164.44" rx="1.62" ry="1.58"/><ellipse class="cls-11" cx="567.34" cy="1164.44" rx="1.62" ry="1.58"/><ellipse class="cls-11" cx="577.52" cy="1164.44" rx="1.62" ry="1.58"/><ellipse class="cls-11" cx="586.77" cy="1164.44" rx="1.62" ry="1.58"/><ellipse class="cls-11" cx="595.1" cy="1164.44" rx="1.62" ry="1.58"/><ellipse class="cls-11" cx="591.4" cy="1168.64" rx="1.62" ry="1.58"/><ellipse class="cls-11" cx="585.15" cy="1170.22" rx="1.62" ry="1.58"/><ellipse class="cls-11" cx="572.89" cy="1168.64" rx="1.62" ry="1.58"/><ellipse class="cls-11" cx="562.01" cy="1168.64" rx="1.62" ry="1.58"/><ellipse class="cls-11" cx="557.16" cy="1172.85" rx="1.62" ry="1.58"/><ellipse class="cls-11" cx="566.75" cy="1172.85" rx="1.62" ry="1.58"/><ellipse class="cls-11" cx="568.26" cy="1179.45" rx="1.62" ry="1.58"/><ellipse class="cls-11" cx="578.21" cy="1171.28" rx="1.62" ry="1.58"/><ellipse class="cls-11" cx="585.38" cy="1176.54" rx="1.62" ry="1.58"/><ellipse class="cls-11" cx="596.78" cy="1170.22" rx="1.62" ry="1.58"/><ellipse class="cls-11" cx="598.4" cy="1174.96" rx="1.62" ry="1.58"/><ellipse class="cls-11" cx="591.59" cy="1174.96" rx="1.62" ry="1.58"/><ellipse class="cls-11" cx="572.89" cy="1173.96" rx="1.62" ry="1.58"/><ellipse class="cls-11" cx="576.59" cy="1178.64" rx="1.62" ry="1.58"/><ellipse class="cls-11" cx="561.09" cy="1177.06" rx="1.62" ry="1.58"/><ellipse class="cls-11" cx="562.71" cy="1150.41" rx="1.62" ry="1.58"/><ellipse class="cls-11" cx="576.59" cy="1155.32" rx="1.62" ry="1.58"/><ellipse class="cls-11" cx="567.34" cy="1155.32" rx="1.62" ry="1.58"/><ellipse class="cls-11" cx="558.08" cy="1154.81" rx="1.62" ry="1.58"/><ellipse class="cls-11" cx="558.08" cy="1146.2" rx="1.62" ry="1.58"/><ellipse class="cls-11" cx="565.49" cy="1124.45" rx="1.62" ry="1.58"/><ellipse class="cls-11" cx="558.78" cy="1133.57" rx="1.62" ry="1.58"/><path class="cls-12" d="M556.25,1112.1a17.92,17.92,0,0,1,.11-8.53Z"/><path class="cls-13" d="M467.17,1102.84s-19.29,5.13-17.52-5c.34-2,.65-3.76.93-5.34l1.63-9.45,11.6,5.7,1.34,8.41Z"/><path class="cls-14" d="M449.23,1091.26l1.25,1A9.57,9.57,0,0,1,449.23,1091.26Z"/><path class="cls-14" d="M464.83,1096.86a30.43,30.43,0,0,1-7.26-.87,20,20,0,0,1-6.81-3.42c1.12-6.44,1.45-9.49,1.45-9.49l11.17,5.14Z"/><path class="cls-15" d="M477,1172.6l-.44,5.91-.62,8.28-.44,5.84-2,22.94-3.38,7.89c-3-2.35-8.16-5.35-8.16-9.34a5.36,5.36,0,0,1,.74-2.64l-1.06-12.9c-.54-3.16-1.26-6.64-1.75-10.06a48.69,48.69,0,0,1-.56-6.55l0-2.88.06-6.95Z"/><path class="cls-14" d="M476.86,1178.51l-1.5,8.3a18.22,18.22,0,0,1-8.22,2.72,17.2,17.2,0,0,1-6.95-1,48.63,48.63,0,0,1-.55-6.55l0-2.88a71.81,71.81,0,0,1,8.93-.88A31.64,31.64,0,0,1,476.86,1178.51Z"/><path class="cls-16" d="M477.33,1174.49c-1.45,1.88-7.22,5.68-16.49,3.46l-.15,0-2.72.24a.3.3,0,0,0-.27.33l.71,5.42a.27.27,0,0,0,.21.24c1.73.47,15.32,3.83,20.14-4.13a.3.3,0,0,0,0-.21l-1-5.19A.29.29,0,0,0,477.33,1174.49Z"/><path class="cls-7" d="M460.77,1177.68l-.44,1.49-3.56,12.2-2.93,10-5.91,20.2-8.63,7.23.83-10-1-12.26c-.79-5.44-.94-11,.09-19.83.21-1.82.47-3.78.79-5.91l1.77-7.5,1.1-4.66Z"/><path class="cls-14" d="M460.77,1179.44l-4.42,11.86c-5,1.34-11.57-.69-16.72-4.35.21-1.82.47-3.78.79-5.91l1.76-7.5a45.75,45.75,0,0,1,14,2.59A10.53,10.53,0,0,1,460.77,1179.44Z"/><path class="cls-17" d="M477.29,1174.18c-.39,2.36-9.52,7.54-16,3.82a9.46,9.46,0,0,1-2.41-2c-2-2.26-2.64-4.31-2.56-6.08a8.81,8.81,0,0,1,3.38-6h0a9.81,9.81,0,0,1,1.13-.84l12.32-4.75,2.55-1s.16.91.38,2.33.53,3.51.78,5.61C477.31,1168.69,477.6,1172.34,477.29,1174.18Z"/><path class="cls-17" d="M472.75,1167.09a6.51,6.51,0,0,1-4.08,3.34s-5.5,3.55-7.35,7.57a7.57,7.57,0,0,0-.37,1c-1.45,4.9-15.54,2.55-22.34-2.58,0,0,.52-4.92,1.27-10.61.24-1.78.5-3.64.77-5.44.48-3.11,1-6,1.5-8.22,1.76-7.45-4.12.11-1-7.9s31.43,11.89,31.43,11.89a21.19,21.19,0,0,1,.61,2.19,20.71,20.71,0,0,1,.41,2.5A11.59,11.59,0,0,1,472.75,1167.09Z"/><path class="cls-18" d="M476.64,1165.37a10.59,10.59,0,0,1-4.12,2.71c-5.95,2.3-10.75,3.21-15.63,3-7.3-.25-13.44-3.54-16.81-5.25.24-1.78.6-3.86.87-5.66a42,42,0,0,0,18.78,3.67h0a41.53,41.53,0,0,0,13.86-3.09c1-.4,1.8-.79,2.52-1.15C476.34,1161.12,476.39,1163.27,476.64,1165.37Z"/><path class="cls-19" d="M451,1090.59c-.44,1.48,8.3,9.42,11.36,8.9,2.68-.45,2.66-3.16,1.84-6.68,0,0,13.44,4,15.66,68.82l-2.62,1.75s-19.32,12.39-40.27-3.07c0,0,1.12-52.49,5-61.09,3.2-7.09,5.51-8.55,8.52-9.18A.44.44,0,0,1,451,1090.59Z"/><path class="cls-20" d="M439,1122s20.49,8.38,36.1-.7l.9,4.54s-16.09,9.92-37.33,0Z"/><path class="cls-20" d="M438.61,1131.55s22,8.28,38.25,0l.56,3.55s-17,9.23-39.36.52Z"/><path class="cls-4" d="M462.22,1140.31c-21.5,2-28.11-6.79-28.18-7.34-.56-4.06.83-11.61,1.61-15h0a12.59,12.59,0,0,1,.44-1.66l11.46,4.38-.49,1.63-2,6.53,16.41,5.4Z"/><path class="cls-14" d="M447.55,1120.73l-.82,1.51c-6.09.07-8.8-2.12-10.74-4.1h0a9.11,9.11,0,0,0,.1-1.79Z"/><path class="cls-19" d="M445.63,1092.67s-6.35,4-11.14,23.19c0,0,7.82,5.42,12.3,5.32,1,0,1.1.52,1.64-.42,0,0,.7-3.07,3.76-12"/><path class="cls-21" d="M617.33,934.49l-9.16-.4-32.67-1.37-31.37-1.32-73.51-3.13L439,927l-38.38-1.64-3.89-.16s-361.83-407-333.06-610.5C79.14,204.94,131.47,147.89,176.4,118.56a.57.57,0,0,1,.14-.11c38.38-24.94,71.3-29.7,71.3-29.7A228.38,228.38,0,0,1,281.23,71h0C328.58,50.64,369,53.28,389.91,57a102.61,102.61,0,0,1,15.28,3.7C520,10,592.21,55.85,604.72,64.87c1.3.95,2,1.48,2,1.48,51.86-17.56,98.43-8.68,128,1.61,20.77,7.25,33.16,15.18,33.16,15.18,31.4,11.69,57.66,25.79,79.54,41.79l0,0a.6.6,0,0,1,.14.13C1143.87,343.62,617.33,934.49,617.33,934.49Z"/><path class="cls-22" d="M626.93,329.6c0,235.21-39.09,502-82.8,601.8l-73.51-3.13c-35.86-82.39-64.05-272.58-85.36-492.56C368,257.34,373.44,137.34,389.91,57a102.61,102.61,0,0,1,15.28,3.7C520,10,592.21,55.85,604.72,64.87,618.34,131.6,626.93,219.36,626.93,329.6Z"/><path class="cls-22" d="M608.17,934.09l-32.67-1.37c319.9-521.29,228-819.7,166-862.25l105.9,54.46,0,0c.06.05-53.78-30.31-53.75-30.26C1101.86,310.92,696.14,827.82,608.17,934.09Z"/><path class="cls-22" d="M439,927l-38.38-1.64C300.31,802.3-57.57,329.76,176.4,118.56a.57.57,0,0,1,.14-.11c38.38-24.94,71.3-29.7,71.3-29.7,11.39-7.3-4.71.84,6.1-3.78C215.72,155.24,134.24,421.56,439,927Z"/><ellipse class="cls-23" cx="511.51" cy="927.97" rx="113.61" ry="19.79"/><path class="cls-24" d="M602,1258.11h0c-59.29,5.29-112.51,6.45-174.75,1.61h0c-17.42-2.89-29.85-11.89-31.05-22.47l-8.3-73H631.78l-6.8,76.37C624.26,1248.71,615.09,1255.67,602,1258.11Z"/><rect class="cls-25" x="406.96" y="1172.62" width="24.19" height="4.24" rx="0.97"/><rect class="cls-25" x="406.96" y="1185.9" width="24.19" height="4.24" rx="0.97"/><rect class="cls-25" x="406.96" y="1199.18" width="24.19" height="4.24" rx="0.97"/><rect class="cls-25" x="406.96" y="1212.47" width="24.19" height="4.24" rx="0.97"/><rect class="cls-25" x="406.96" y="1225.75" width="24.19" height="4.24" rx="0.97"/><rect class="cls-25" x="406.96" y="1239.03" width="24.19" height="4.24" rx="0.97"/><rect class="cls-25" x="443.24" y="1172.62" width="24.19" height="4.24" rx="0.97"/><rect class="cls-25" x="443.24" y="1185.9" width="24.19" height="4.24" rx="0.97"/><rect class="cls-25" x="443.24" y="1199.18" width="24.19" height="4.24" rx="0.97"/><rect class="cls-25" x="443.24" y="1212.47" width="24.19" height="4.24" rx="0.97"/><rect class="cls-25" x="443.24" y="1225.75" width="24.19" height="4.24" rx="0.97"/><rect class="cls-25" x="443.24" y="1239.03" width="24.19" height="4.24" rx="0.97"/><rect class="cls-25" x="479.52" y="1172.62" width="24.19" height="4.24" rx="0.97"/><rect class="cls-25" x="479.52" y="1185.9" width="24.19" height="4.24" rx="0.97"/><rect class="cls-25" x="479.52" y="1199.18" width="24.19" height="4.24" rx="0.97"/><rect class="cls-25" x="479.52" y="1212.47" width="24.19" height="4.24" rx="0.97"/><rect class="cls-25" x="479.52" y="1225.75" width="24.19" height="4.24" rx="0.97"/><rect class="cls-25" x="479.52" y="1239.03" width="24.19" height="4.24" rx="0.97"/><rect class="cls-25" x="515.81" y="1172.62" width="24.19" height="4.24" rx="0.97"/><rect class="cls-25" x="515.81" y="1185.9" width="24.19" height="4.24" rx="0.97"/><rect class="cls-25" x="515.81" y="1199.18" width="24.19" height="4.24" rx="0.97"/><rect class="cls-25" x="515.81" y="1212.47" width="24.19" height="4.24" rx="0.97"/><rect class="cls-25" x="515.81" y="1225.75" width="24.19" height="4.24" rx="0.97"/><rect class="cls-25" x="515.81" y="1239.03" width="24.19" height="4.24" rx="0.97"/><rect class="cls-25" x="552.33" y="1172.62" width="24.19" height="4.24" rx="0.97"/><rect class="cls-25" x="552.33" y="1185.9" width="24.19" height="4.24" rx="0.97"/><rect class="cls-25" x="552.33" y="1199.18" width="24.19" height="4.24" rx="0.97"/><rect class="cls-25" x="552.33" y="1212.47" width="24.19" height="4.24" rx="0.97"/><rect class="cls-25" x="552.33" y="1225.75" width="24.19" height="4.24" rx="0.97"/><rect class="cls-25" x="552.33" y="1239.03" width="24.19" height="4.24" rx="0.97"/><rect class="cls-25" x="588.84" y="1172.62" width="24.19" height="4.24" rx="0.97"/><rect class="cls-25" x="588.84" y="1185.9" width="24.19" height="4.24" rx="0.97"/><rect class="cls-25" x="588.84" y="1199.18" width="24.19" height="4.24" rx="0.97"/><rect class="cls-25" x="588.84" y="1212.47" width="24.19" height="4.24" rx="0.97"/><rect class="cls-25" x="588.84" y="1225.75" width="24.19" height="4.24" rx="0.97"/><rect class="cls-25" x="588.84" y="1239.03" width="24.19" height="4.24" rx="0.97"/><rect class="cls-26" x="367.6" y="1146.28" width="285.82" height="19.07" rx="4.35"/><rect class="cls-27" x="374.18" y="1147.46" width="270.05" height="9.53" rx="2.17"/><ellipse class="cls-28" cx="511.65" cy="928.2" rx="101.56" ry="16.24"/><polygon class="cls-1" points="608.27 924.9 629.59 1146.41 633.53 1146.41 611.38 924.9 608.27 924.9"/><polygon class="cls-1" points="410.09 924.67 388.77 1146.18 384.83 1146.18 406.98 924.67 410.09 924.67"/><path class="cls-5" d="M445.45,1129a9.19,9.19,0,0,0-6.26-2"/><path class="cls-4" d="M460.07,1134a11.21,11.21,0,0,1,6.6-2.06c3.56-.06,2.35,0,4.24-.57s1.45,1.82-2.11,3.29,1.87.76,2.78.8c1.45.06,3.51-.84,5.23-1.53.68-.27.77.87.38,1.49a7.79,7.79,0,0,1-4.34,2.28s2.79-.74,3.29-.93,1,2.45-2.87,3c0,0,2.93-.82,1.62,1-.84,1.2,0,1-1.37,1.69-2.09,1.11-7.68,1.22-14.58-2.77"/><path class="cls-5" d="M470,1137.69a10.4,10.4,0,0,0,3.1-.06"/><path class="cls-5" d="M470,1139.57a7.56,7.56,0,0,0,3.94.07"/><path class="cls-5" d="M469.82,1141.4a7.36,7.36,0,0,0,5.07-.6"/><path class="cls-5" d="M459,1135.53c-.09,0,0-.16,0-.24a4.88,4.88,0,0,1,2.31-2.24"/></svg>