<svg id="Layer_1" data-name="Layer 1" xmlns="http://www.w3.org/2000/svg" viewBox="0 0 80.93 83.96"><defs><style>.cls-1,.cls-6{fill:#3e2c13;}.cls-1{stroke:#3e2c13;stroke-width:0.25px;}.cls-1,.cls-3,.cls-8{stroke-miterlimit:10;}.cls-2{fill:#fff;}.cls-3,.cls-9{fill:#fbd3c7;}.cls-3{stroke:#323232;stroke-width:0.5px;}.cls-4{fill:#dd9f8f;}.cls-5{fill:#e9d960;}.cls-7{fill:#a77d48;}.cls-8{fill:#ad6327;stroke:#c87929;stroke-width:0.75px;}.cls-10{fill:#323232;}.cls-11{fill:#ef4b3b;}.cls-12{fill:#f59a91;}</style></defs><path class="cls-1" d="M64.35,72.57C61,81.05,54.46,83.05,44,81.26c-.52-.09.62-4.26.07-4.32-3-.35-7.29-3.34-11.13-3.53-.77,0-1.86,5.52-2.55,5.2C15,71.46,3.37,68.29,8.94,47.13c3.19-12.09,21.12-16,36.88-9.73S69,61,64.35,72.57Z"/><path class="cls-1" d="M67.67,50.83c.28.74.64,24.1-9.41,29a19.29,19.29,0,0,1-14.08,1.53c-.13,0-1.48-3.69-1.5-3.69Z"/><path class="cls-2" d="M47.11,72.05s5.33.87,6.93,5C52.39,77.51,50.7,78.18,47.11,72.05Z"/><path class="cls-3" d="M67,56.21c0-.1-.17,0-.09.1s.19,0,.26-.09a6.62,6.62,0,0,1,3-1.71,2.62,2.62,0,0,1,2.29.31c.88.72.84,2.15.51,3.31A10.67,10.67,0,0,1,70,63c-2.44,2.27-6.16,3.23-8.92,1.63"/><path class="cls-4" d="M69.31,58.21A8.83,8.83,0,0,0,68,58.9c-.32.2-.7.56-.62,1s.43.48.46.83-.33.63-.64.67-.6-.09-.91-.07a1.39,1.39,0,0,0-1.1.77,1.14,1.14,0,0,0-.14.5.79.79,0,0,0,.74.77A2.21,2.21,0,0,0,67,63a9.89,9.89,0,0,0,2.3-1.55C70.3,60.41,72.19,56.92,69.31,58.21Z"/><path class="cls-5" d="M63.34,63.47s-3.67,3-2.09,4.88,3.32-2.95,3.32-2.95-2.48,3.44-1.86.75Z"/><path class="cls-3" d="M73.19,46.62c-.34.35-5.71,14-7.91,20.5C62.7,74.76,52.16,82.24,43,80.57c-11.27-2-20.54-8.09-23.64-17.83s.45-21.61.45-21.61-6.32-14.22,6.56-22.21S52.9,9.52,68.43,17.3,73.19,46.62,73.19,46.62Z"/><path class="cls-4" d="M31.3,34.5c.61-.14,14.81-8,14.81-8S38.81,31.77,42,32c.9.07,9.28-1.75,12.51-4.39,0,0-2.27,4.79-5.18,5,0,0,11,3.77,16.69-4.1,0,0-2.55,4.28,5,10.4,5.86,4.74.15,12.18.15,12.18l6.45-17.2-5.72-9.52L54,18.56l-16,.83-8.45,11-9.7,10.74Z"/><path class="cls-1" d="M70.06,54.21c.79-2.47,2.35-10,1.5-12.5-1.71-4.94-4.9-6.4-6.58-8.39-1.06-1.26.18-5.56-.69-7s-.18,1.76,0,0c-1.35,2.43-1.36,4.24-4,5a19.82,19.82,0,0,1-7.75.51A11.8,11.8,0,0,0,56.4,28.5c1-1.6,1.31-3.57,1.92-5.38A30.06,30.06,0,0,1,41.61,31a13.89,13.89,0,0,0,5.8-7.17,4.66,4.66,0,0,0-2.46,1,86.88,86.88,0,0,1-13.48,8c.1-.75-.16-1.46-.06-2.22C28.53,35.19,19.09,42.82,19.2,42.53c0,0-8.37,24.33,9,35A36.71,36.71,0,0,1,13,71.91C4.41,66.54.92,56,9.24,41.85S14.86,20.72,21.3,12.57C29,2.88,49.74-6.61,73.44,17c0,0,12,7.91.71,31.61C74.15,48.62,69.81,55,70.06,54.21Z"/><path class="cls-6" d="M62.43,41.19s4.85,0,6.32,3.9a.16.16,0,0,0,.31,0,4,4,0,0,0-2.63-4.52C62.08,38.66,62.43,41.19,62.43,41.19Z"/><path class="cls-6" d="M44.76,36.45s-5-2.09-8.3.79c-.13.12-.35,0-.3-.16.33-1,1.39-3.06,4.77-2.95C46.26,34.31,44.76,36.45,44.76,36.45Z"/><path class="cls-7" d="M53.35,52.9a4.82,4.82,0,0,0-.86,3.4A5,5,0,0,0,53,57.93c.12.23.28.54.43.87a3.09,3.09,0,0,1,.23,1.06,2.43,2.43,0,0,1-.91,2,3.15,3.15,0,0,1-2.06.62,5.26,5.26,0,0,1-3.53-1.72l.08.05a2.3,2.3,0,0,1-1-.89,1,1,0,0,1-.07-.67,1.29,1.29,0,0,1,.35-.52,1.29,1.29,0,0,0-.19.55.72.72,0,0,0,.16.49,2,2,0,0,0,.93.54h0l.06,0a5.35,5.35,0,0,0,3.18,1.2,2.39,2.39,0,0,0,1.44-.47,1.58,1.58,0,0,0,.56-1.24,2.6,2.6,0,0,0-.14-.76c-.1-.24-.2-.5-.35-.82a4.89,4.89,0,0,1-.45-2A4.42,4.42,0,0,1,53.35,52.9Z"/><path class="cls-8" d="M76.3,19.84a32.06,32.06,0,0,0-10.85-6.08c-18.94-6.17-40,6.25-47,27.75-.14.42-.27.83-.39,1.25-.62-.36-1.26-.7-1.92-1,.17-.61.36-1.22.55-1.83,7-21.51,28.05-33.93,47-27.76A32.26,32.26,0,0,1,76.3,19.84Z"/><path class="cls-9" d="M19.1,43.49c.07-.08.14.14,0,.13s-.16-.13-.19-.24a7.31,7.31,0,0,0-1.87-3.3,3.62,3.62,0,0,0-2.43-1.24A3.12,3.12,0,0,0,12,41.14a9.38,9.38,0,0,0-.19,5.77A9.82,9.82,0,0,0,19.47,54"/><path class="cls-10" d="M19.1,43.49c.07-.07.13.1.06.14a.18.18,0,0,1-.19-.1c-.07-.14-.09-.28-.15-.42a6.07,6.07,0,0,0-.32-.8,7.19,7.19,0,0,0-.92-1.44,4.42,4.42,0,0,0-2.7-1.82,2.6,2.6,0,0,0-2.48,1.72A8.11,8.11,0,0,0,11.69,44a9.82,9.82,0,0,0,2.1,6.31A9.59,9.59,0,0,0,19.47,54a9,9,0,0,1-3.31-1.08,10.64,10.64,0,0,1-2.67-2.29A10,10,0,0,1,11.19,44a8.84,8.84,0,0,1,.8-3.46,4.07,4.07,0,0,1,1.15-1.43,2.41,2.41,0,0,1,1.78-.47,4.65,4.65,0,0,1,2.85,2,7.21,7.21,0,0,1,.84,1.54,6.18,6.18,0,0,1,.27.83c.05.14.06.29.11.42s.09.12.16.1S19.17,43.43,19.1,43.49Z"/><path class="cls-4" d="M15.58,43.59A12.63,12.63,0,0,1,16.39,45c.18.38.32.9,0,1.16s-.73.1-1,.35-.09.72.19.94.64.33.94.54a1.47,1.47,0,0,1,.57,1.32.87.87,0,0,1-1.41.61,2.72,2.72,0,0,1-.88-1,9.78,9.78,0,0,1-1.24-2.71C13.2,44.7,13.6,40.72,15.58,43.59Z"/><path class="cls-5" d="M18,51.6s1.65,4.74-1.1,5.2-1.34-4.47-1.34-4.47.2,4.32,1.32,1.79Z"/><path class="cls-11" d="M26.66,17.07s-13.74,0-9.7,7.07,11.57,10.09,13.39-3.23c1.14-8.37,3-1.94,3-1.94s17.35-2.8,6.28-11.74C29.37-1,30.51,14.4,30.51,14.4S27.23,11.69,26.66,17.07Z"/><ellipse class="cls-12" cx="34.97" cy="6.35" rx="1.06" ry="1.23" transform="translate(17.79 37.46) rotate(-71.39)"/><ellipse class="cls-12" cx="20.49" cy="19.73" rx="1.06" ry="1.23" transform="translate(-4.76 32.85) rotate(-71.39)"/><ellipse class="cls-12" cx="18.23" cy="22.77" rx="1.06" ry="1.23" transform="translate(-9.16 32.78) rotate(-71.39)"/><ellipse class="cls-12" cx="23.63" cy="22.56" rx="1.06" ry="1.23" transform="translate(-5.28 37.75) rotate(-71.39)"/><ellipse class="cls-12" cx="27.64" cy="21.83" rx="1.06" ry="1.23" transform="translate(-1.87 41.06) rotate(-71.39)"/><ellipse class="cls-12" cx="26.16" cy="26.5" rx="1.06" ry="1.23" transform="translate(-7.31 42.83) rotate(-71.39)"/><ellipse class="cls-12" cx="21.62" cy="26.2" rx="1.06" ry="1.23" transform="translate(-10.11 38.33) rotate(-71.39)"/><ellipse class="cls-12" cx="24.74" cy="19.08" rx="1.06" ry="1.23" transform="translate(-1.24 36.43) rotate(-71.39)"/><ellipse class="cls-12" cx="32.09" cy="9.97" rx="1.06" ry="1.23" transform="translate(12.39 37.2) rotate(-71.39)"/><ellipse class="cls-12" cx="40.36" cy="12.16" rx="1.06" ry="1.23" transform="translate(15.95 46.53) rotate(-71.39)"/><ellipse class="cls-12" cx="39.26" cy="8.23" rx="1.06" ry="1.23" transform="translate(18.93 42.81) rotate(-71.39)"/><ellipse class="cls-12" cx="36" cy="10.7" rx="1.06" ry="1.23" transform="translate(14.38 41.4) rotate(-71.39)"/><ellipse class="cls-12" cx="33.26" cy="13.29" rx="1.06" ry="1.23" transform="translate(10.05 40.57) rotate(-71.39)"/><ellipse class="cls-12" cx="37.14" cy="14.89" rx="1.06" ry="1.23" transform="translate(11.18 45.34) rotate(-71.39)"/><ellipse class="cls-12" cx="34.21" cy="16.35" rx="1.06" ry="1.23" transform="matrix(0.32, -0.95, 0.95, 0.32, 7.8, 43.55)"/><ellipse class="cls-11" cx="30.08" cy="17.54" rx="2.84" ry="3.8" transform="translate(-4.25 23.38) rotate(-39.9)"/></svg>