<svg id="Layer_1" data-name="Layer 1" xmlns="http://www.w3.org/2000/svg" viewBox="0 0 500 650"><defs><style>.cls-1{fill:#fbd3c7;}.cls-1,.cls-10,.cls-20,.cls-5,.cls-6,.cls-7{stroke:#323232;}.cls-1,.cls-10,.cls-20,.cls-3,.cls-5,.cls-6,.cls-7{stroke-miterlimit:10;stroke-width:0.25px;}.cls-2{fill:#4a2a15;}.cls-3,.cls-5{fill:#fad2c6;}.cls-3{stroke:#5f4a43;}.cls-4{fill:#e7b4a7;}.cls-6{fill:#fcde7d;}.cls-7{fill:#e0604f;}.cls-8{fill:#f5927d;}.cls-9{fill:#e4a58c;}.cls-10{fill:#fccd3a;}.cls-11{fill:#be9030;}.cls-12{fill:#fab51b;}.cls-13{fill:#f17125;}.cls-14{fill:#80351b;}.cls-15{fill:#75451c;}.cls-16{fill:#a66638;}.cls-17{fill:#925b24;}.cls-18{fill:#e69847;}.cls-19{fill:#5f2710;}.cls-20{fill:none;}.cls-21{fill:#dc9e8f;}</style></defs><path class="cls-1" d="M195.37,544.42a.51.51,0,0,0-.25.29c0,.21.17.38.36.48a2.48,2.48,0,0,0,1.26.22,1.44,1.44,0,0,1-.07-.54c0-.31.05-.68-.32-.74A2,2,0,0,0,195.37,544.42Z"/><path class="cls-1" d="M200.12,549.57a20.88,20.88,0,0,1-.33-2.28,4,4,0,0,0-2.73-3.17c-2.11-.82-2,5.15-2,5.15s-1.14,2,4.13,2.31"/><polygon class="cls-2" points="295.15 470.21 304.43 572.7 306.04 572.69 296.73 470.21 295.15 470.21"/><polygon class="cls-2" points="215.57 470.11 205.96 572.7 204.34 572.69 213.99 470.11 215.57 470.11"/><path class="cls-3" d="M277.59,559.45c0,.18,0,.36-.07.55-.12.8-.29,1.76-.49,2.81-.88,4.66-2.41,11-3.07,11.89-.83,1.17-2.9-1.36-2.9-1.36-1-5.73-.34-8.73.86-11.2a8.79,8.79,0,0,0,.48-3c.11-.68.19-1.08.19-1.08S278.11,555.38,277.59,559.45Z"/><path class="cls-4" d="M277.52,560c-.12.8-.45,1.77-.64,2.82h0a18.4,18.4,0,0,1-2.1,0,16.59,16.59,0,0,1-2.77-.56c.18-1.24.22-2.37.35-3.09a13.26,13.26,0,0,1,2.09,0,6.83,6.83,0,0,1,2,.34A4.76,4.76,0,0,1,277.52,560Z"/><path class="cls-5" d="M283,550.87c-.24.15-1.83-1.4-1.83-1.4l1.13-1.31a2.27,2.27,0,0,0,.2-.35,3,3,0,0,0,.11-2.37c-.58-1.55,7.54,0,7.54,0a2.28,2.28,0,0,0,0,1.64,3.27,3.27,0,0,0,.59,1C291.78,549.37,283.19,550.71,283,550.87Z"/><path class="cls-4" d="M289.94,547c-.16,0-.09.14-.23.24a8.11,8.11,0,0,1-5,1.11,6.47,6.47,0,0,1-2.1-.51,3,3,0,0,0,.11-2.37c-.59-1.55,7.37-.16,7.37-.16A2.23,2.23,0,0,0,289.94,547Z"/><path class="cls-6" d="M294.47,553.9,296,572.31a10.35,10.35,0,0,1-9.28,5.24c-7.19,0-10.79-4-10.79-4s1.6-14,1.71-16v-.1c.1-2.34-.48-3.38-2.48-4.58l-.17,1.34c-.52-.31-.23-3.35,0-3.77,0,0,2.28-2,7-2.11,0,0,.47,1.49,3.81,1.12s4.26-2.48,4.26-2.48l1.92-1.16"/><path class="cls-7" d="M277.89,557.48c-.11.22,13.08,3.26,16.59-3.39l5.25,21.33A20,20,0,0,1,275.84,574Z"/><path class="cls-7" d="M280.15,548.37s1,8.12,1.45,10.56l-1.44,1.77L279,559.09a58.28,58.28,0,0,1,.11-10.45Z"/><path class="cls-7" d="M291,546.52s-.27,8.63-.42,12.38l1.49.89.8-1.44s.47-8-1.09-12.26Z"/><path class="cls-6" d="M275.17,550.39c-.39.31-4.14,10.12-3.61,10.31a9.52,9.52,0,0,0,2.91,1.52,10.49,10.49,0,0,0,3.66,0,19.18,19.18,0,0,0-.05-7.49"/><circle class="cls-8" cx="291.36" cy="568.8" r="1.67"/><circle class="cls-8" cx="291.12" cy="563.17" r="1.67"/><circle class="cls-8" cx="295.08" cy="565.95" r="1.67"/><circle class="cls-8" cx="280.15" cy="564.28" r="1.67"/><circle class="cls-8" cx="291.75" cy="574.35" r="1.67"/><circle class="cls-8" cx="285.47" cy="574.63" r="1.67"/><circle class="cls-8" cx="279.74" cy="573.25" r="1.67"/><circle class="cls-8" cx="296.36" cy="569.87" r="1.67"/><circle class="cls-8" cx="282.16" cy="568.8" r="1.67"/><circle class="cls-8" cx="287.18" cy="569.46" r="1.67"/><circle class="cls-8" cx="285.51" cy="564.28" r="1.67"/><circle class="cls-8" cx="288.23" cy="560.41" r="1.67"/><circle class="cls-8" cx="283.81" cy="560.55" r="1.67"/><ellipse class="cls-8" cx="294.45" cy="560.55" rx="1.4" ry="1.67"/><ellipse class="cls-8" cx="277.95" cy="569.61" rx="1.27" ry="1.51"/><ellipse class="cls-8" cx="296.75" cy="573.41" rx="1.27" ry="1.51"/><polygon class="cls-2" points="205.5 462.29 194.85 572.99 192.88 572.99 203.94 462.29 205.5 462.29"/><path class="cls-5" d="M235.1,540.45a3.88,3.88,0,0,1,.59-2.65h-8.53a7.26,7.26,0,0,1-.83,0c0,.11,0,.23,0,.35a5.69,5.69,0,0,1-.85,2.53,7.72,7.72,0,0,1-.84,1.11c-3,3.33,6.59,5.72,6.59,5.72l4.89-4.18.34-.29A4.59,4.59,0,0,1,235.1,540.45Z"/><path class="cls-9" d="M225.47,540.63a15.28,15.28,0,0,0,10.64,2.65l.34-.29a4.59,4.59,0,0,1-1.35-2.54,29.71,29.71,0,0,0-8.78-2.35A5.69,5.69,0,0,1,225.47,540.63Z"/><path class="cls-10" d="M219.26,542.66c.21.48-2.76,8.4-3.94,31.34l25.93,1.79s-2.32-11-1.55-18.59l1.77,2.51,1.74-.71a7.43,7.43,0,0,0,3.28-2.61l1.12-1.59s-7.23-13.56-11.63-12h0a6.6,6.6,0,0,1-7,.7,8.85,8.85,0,0,1-3.36-3.15c-.51-.78-4.81,1.22-4.81,1.22Z"/><path class="cls-11" d="M217.51,556s16.14,5.55,21.74,1.93l-.14,2.77s-5.32,4.71-22.19-2.64Z"/><path class="cls-11" d="M216.34,560.66s17.58,7,22.62,2l.29,2.77s-6.61,5.17-23.08-2.38Z"/><path class="cls-12" d="M308.63,467.17l-4.57-.2-16.33-.69-15.68-.66-36.73-1.56-15.83-.66-19.18-.82-1.94-.08S17.56,259.11,31.93,157.42c7.76-54.83,33.91-83.33,56.36-98l.07-.06C107.54,46.91,124,44.53,124,44.53a113.79,113.79,0,0,1,16.68-8.88h0c23.65-10.16,43.85-8.84,54.3-7a51.35,51.35,0,0,1,7.63,1.85C260,5.16,296.08,28.09,302.33,32.6c.65.47,1,.74,1,.74,25.92-8.78,49.19-4.34,64,.8a85.86,85.86,0,0,1,16.57,7.59A163.72,163.72,0,0,1,423.6,62.61v0a.22.22,0,0,1,.07.06C571.75,171.89,308.63,467.17,308.63,467.17Z"/><path class="cls-13" d="M313.43,164.89c0,117.54-19.54,250.87-41.38,300.73l-36.73-1.56c-17.92-41.17-32-136.22-42.66-246.14C184,128.78,186.75,68.81,195,28.68a51.35,51.35,0,0,1,7.63,1.85C260,5.16,296.08,28.09,302.33,32.6,309.14,65.94,313.43,109.8,313.43,164.89Z"/><path class="cls-13" d="M304.06,467l-16.33-.69C447.59,205.78,401.65,56.66,370.68,35.4L423.6,62.61v0S396.74,47.48,396.75,47.5C550.76,155.55,348,413.86,304.06,467Z"/><path class="cls-13" d="M219.49,463.4l-19.18-.82C150.21,401.11-28.63,165,88.29,59.43l.07-.06C107.54,46.91,124,44.53,124,44.53c5.69-3.65-2.36.42,3.05-1.89C107.94,77.76,67.22,210.84,219.49,463.4Z"/><ellipse class="cls-14" cx="255.75" cy="463.91" rx="56.78" ry="9.89"/><path class="cls-15" d="M301,628.89h0c-29.63,2.64-56.23,3.22-87.33.8h0c-8.7-1.45-14.92-5.94-15.52-11.23L194,582h121.9l-3.4,38.16C312.09,624.19,307.51,627.67,301,628.89Z"/><rect class="cls-16" x="203.58" y="585.91" width="12.09" height="2.12" rx="0.92"/><rect class="cls-16" x="203.58" y="592.55" width="12.09" height="2.12" rx="0.92"/><rect class="cls-16" x="203.58" y="599.18" width="12.09" height="2.12" rx="0.92"/><rect class="cls-16" x="203.58" y="605.82" width="12.09" height="2.12" rx="0.92"/><rect class="cls-16" x="203.58" y="612.46" width="12.09" height="2.12" rx="0.92"/><rect class="cls-16" x="203.58" y="619.1" width="12.09" height="2.12" rx="0.92"/><rect class="cls-16" x="221.71" y="585.91" width="12.09" height="2.12" rx="0.92"/><rect class="cls-16" x="221.71" y="592.55" width="12.09" height="2.12" rx="0.92"/><rect class="cls-16" x="221.71" y="599.18" width="12.09" height="2.12" rx="0.92"/><rect class="cls-16" x="221.71" y="605.82" width="12.09" height="2.12" rx="0.92"/><rect class="cls-16" x="221.71" y="612.46" width="12.09" height="2.12" rx="0.92"/><rect class="cls-16" x="221.71" y="619.1" width="12.09" height="2.12" rx="0.92"/><rect class="cls-16" x="239.84" y="585.91" width="12.09" height="2.12" rx="0.92"/><rect class="cls-16" x="239.84" y="592.55" width="12.09" height="2.12" rx="0.92"/><rect class="cls-16" x="239.84" y="599.18" width="12.09" height="2.12" rx="0.92"/><rect class="cls-16" x="239.84" y="605.82" width="12.09" height="2.12" rx="0.92"/><rect class="cls-16" x="239.84" y="612.46" width="12.09" height="2.12" rx="0.92"/><rect class="cls-16" x="239.84" y="619.1" width="12.09" height="2.12" rx="0.92"/><rect class="cls-16" x="257.97" y="585.91" width="12.09" height="2.12" rx="0.92"/><rect class="cls-16" x="257.97" y="592.55" width="12.09" height="2.12" rx="0.92"/><rect class="cls-16" x="257.97" y="599.18" width="12.09" height="2.12" rx="0.92"/><rect class="cls-16" x="257.97" y="605.82" width="12.09" height="2.12" rx="0.92"/><rect class="cls-16" x="257.97" y="612.46" width="12.09" height="2.12" rx="0.92"/><rect class="cls-16" x="257.97" y="619.1" width="12.09" height="2.12" rx="0.92"/><rect class="cls-16" x="276.22" y="585.91" width="12.09" height="2.12" rx="0.92"/><rect class="cls-16" x="276.22" y="592.55" width="12.09" height="2.12" rx="0.92"/><rect class="cls-16" x="276.22" y="599.18" width="12.09" height="2.12" rx="0.92"/><rect class="cls-16" x="276.22" y="605.82" width="12.09" height="2.12" rx="0.92"/><rect class="cls-16" x="276.22" y="612.46" width="12.09" height="2.12" rx="0.92"/><rect class="cls-16" x="276.22" y="619.1" width="12.09" height="2.12" rx="0.92"/><rect class="cls-16" x="294.47" y="585.91" width="12.09" height="2.12" rx="0.92"/><rect class="cls-16" x="294.47" y="592.55" width="12.09" height="2.12" rx="0.92"/><rect class="cls-16" x="294.47" y="599.18" width="12.09" height="2.12" rx="0.92"/><rect class="cls-16" x="294.47" y="605.82" width="12.09" height="2.12" rx="0.92"/><rect class="cls-16" x="294.47" y="612.46" width="12.09" height="2.12" rx="0.92"/><rect class="cls-16" x="294.47" y="619.1" width="12.09" height="2.12" rx="0.92"/><rect class="cls-17" x="183.84" y="573" width="142.83" height="9.53" rx="4.15"/><rect class="cls-18" x="187.12" y="573.59" width="134.95" height="4.76" rx="2.38"/><ellipse class="cls-19" cx="255.82" cy="464.02" rx="50.75" ry="8.11"/><path class="cls-3" d="M271.83,572.29l-.89.21c-.9.22-2.83,1.29-3,2.54s.24,3.39,1.85,2.86,1-3,1.54-2.28c.68.88,3.58.4,3.64,0a1.62,1.62,0,0,0,2.11.21s.78-.86-.43-1-1.49-2.43-2.81-2.14"/><path class="cls-3" d="M272.79,574.68s.18,3.13,1.47,3.47c.84.22.85-2.68.35-3.79"/><path class="cls-3" d="M269.22,575c0,.11-.26,3.64,1.23,2.75s.45-2.75.45-2.75"/><path class="cls-3" d="M272.47,574.86a2.1,2.1,0,0,0-.53,1.64c.07,1.08-.29,2-.9,1.86s-1-1-.71-3.5"/><path class="cls-20" d="M239.11,558.13a18.46,18.46,0,0,0,1.11-8.1"/><path class="cls-1" d="M198.43,551.2s4.65,7.15,10.7,8.65c0,0,.09.17.22,0s4.67-2.51,7.1-5.64a8.5,8.5,0,0,0,1-1.57l-2.77-5.93s-.54.59-1.36,1.41a29.78,29.78,0,0,1-5.63,4.7s-6-3.27-7.66-3.86"/><path class="cls-21" d="M213.45,548.23a10.48,10.48,0,0,0,1.17,3.37,11.49,11.49,0,0,0,1.77,2.49,7.77,7.77,0,0,0,1-1.45l-2.63-5.82S214.26,547.41,213.45,548.23Z"/><path class="cls-10" d="M220.81,541.59c-.25.28-4.76,2.56-6.48,4.92a12.9,12.9,0,0,0,2.9,7l1.37-5.08"/><path class="cls-20" d="M207.38,552.74a4.58,4.58,0,0,1,1.36,1.06,3.66,3.66,0,0,1,.61,1.82"/><path class="cls-5" d="M194.16,546c-.21,1,.47.78,1.78,1,1,.15,1.75.76,2-.37.18-.72-1.33-.93-2.25-1.3C195,545,194.39,544.89,194.16,546Z"/><path class="cls-5" d="M194.06,547.58c-.09,1.17.21,1.1,1.83,1.17.68,0,1.47.15,1.78-.85.19-.63-.92-.78-2-.9C194.69,546.89,194.15,546.57,194.06,547.58Z"/><path class="cls-5" d="M194,549.06c0,.62.35,1,1.74,1,.58,0,1.26.11,1.53-.69.16-.51-.94-.64-1.89-.74S194,548.45,194,549.06Z"/><path class="cls-5" d="M194.3,550.44c-.16.47.37.73,1.48.64.46,0,1,0,1.14-.69.08-.42-.69-.41-1.45-.4S194.52,549.82,194.3,550.44Z"/><path class="cls-20" d="M199.83,548.24a6.79,6.79,0,0,1,.17,2"/><polygon class="cls-2" points="304.54 462.41 315.19 573.1 317.16 573.1 306.09 462.41 304.54 462.41"/></svg>