<svg id="Layer_1" data-name="Layer 1" xmlns="http://www.w3.org/2000/svg" viewBox="0 0 11.96 5.96"><defs><style>.cls-1{fill:#8c3e36;}.cls-2{fill:#d26653;}.cls-3{fill:#fff;}.cls-4{fill:#f5968e;}.cls-5{fill:#f48678;}.cls-6{fill:#e9a597;opacity:0.5;}</style></defs><g id="S"><path class="cls-1" d="M11.15,1s-2,.82-2.49,1a10,10,0,0,1-2.55.39,14.44,14.44,0,0,1-2.4.07C3.43,2.41.89,2,.89,2S1.74,3.12,2,3.58a3.82,3.82,0,0,0,.75.81,3.4,3.4,0,0,0,2,.94A9.83,9.83,0,0,0,8.24,5a12,12,0,0,0,2-2C10.39,2.69,11.15,1,11.15,1Z"/><path class="cls-2" d="M8.46,3.35A3.13,3.13,0,0,0,7,3.29a15.85,15.85,0,0,0-1.93.32,2.29,2.29,0,0,0-.36.07c-.08,0-.16.11-.25.08L4.3,4c-.2.28.13.59.34.66a3.1,3.1,0,0,0,1.25,0A13.15,13.15,0,0,0,8,4.3c.21-.06.63-.06.77-.27A.46.46,0,0,0,8.46,3.35Z"/><path class="cls-3" d="M9.61,1.8l-3.39.86L2.6,2.45a3,3,0,0,0,.57.75,2.28,2.28,0,0,0,1,.39,12.38,12.38,0,0,0,4.11-.41,2.08,2.08,0,0,0,1.15-.89A2.39,2.39,0,0,0,9.61,1.8Z"/><path class="cls-3" d="M9.41,4.13a2.07,2.07,0,0,0-.6-.42c-.58-.14-1.32.36-2.36.46a9.52,9.52,0,0,0-2.52.18,1.3,1.3,0,0,0-.37.51l.81.48,2.25.16,1.74-.72Z"/><path class="cls-4" d="M11.18.77A12.53,12.53,0,0,1,9.52,3.38,5.54,5.54,0,0,1,6.33,4.79a4.67,4.67,0,0,1-3-.61A15.25,15.25,0,0,1,.87,1.78L.89,2a10,10,0,0,0,1.9,2.6A4.1,4.1,0,0,0,6.41,5.7,4.5,4.5,0,0,0,10,3.57,7.75,7.75,0,0,0,11.2,1S11.18.77,11.18.77Z"/><path class="cls-5" d="M11.18.77A8.45,8.45,0,0,1,8.79,1.93a17,17,0,0,1-4.85.44A14.54,14.54,0,0,1,.87,1.78,2,2,0,0,0,1,2a7.14,7.14,0,0,0,2.35.73,14,14,0,0,0,3,.09,15.34,15.34,0,0,0,2.92-.63A4.86,4.86,0,0,0,11.13,1Z"/><path class="cls-6" d="M.5,1.48c.17-.22-.09-.22-.22,0a1.05,1.05,0,0,0,0,.61A5.29,5.29,0,0,1,.5,1.48Z"/><path class="cls-6" d="M11.31.49c-.25-.12.11-.25.32-.12s.07.54.07.54C11.43.55,11.39.53,11.31.49Z"/></g></svg>