<svg id="Layer_1" data-name="Layer 1" xmlns="http://www.w3.org/2000/svg" viewBox="0 0 22 11"><defs><style>.cls-1{fill:#551514;}.cls-2{fill:#d72b5d;}.cls-3{fill:#fff;}.cls-4{fill:#bb7757;}.cls-5{fill:#dc9e8f;}</style></defs><g id="S"><path class="cls-1" d="M19.64,3.34l-4.41.88a15.58,15.58,0,0,1-4.52-.1,22.36,22.36,0,0,1-4.15-.65c-.45-.21-4.5-1.87-4.5-1.87S3,4.05,3.28,5a7.9,7.9,0,0,0,1,1.77A5.82,5.82,0,0,0,7.5,9.18a15.58,15.58,0,0,0,6.07.51A22.38,22.38,0,0,0,17.63,6.5C18,6.05,19.64,3.34,19.64,3.34Z"/><path class="cls-2" d="M14.47,6.65A5,5,0,0,0,12,6.08,26,26,0,0,0,8.55,6a4.56,4.56,0,0,0-.64,0l-.47.07c-.11,0-.34.34-.34.34-.44.45.05,1.15.37,1.34a5,5,0,0,0,2.17.37,21.92,21.92,0,0,0,3.71.11c.38,0,1.1.1,1.4-.25A.92.92,0,0,0,14.47,6.65Z"/><path class="cls-3" d="M17.16,4.39l-6.31,0L4.63,3.3a6.44,6.44,0,0,0,.55,1.22,5.94,5.94,0,0,0,1.9,1.32,20.64,20.64,0,0,0,7.21.56,4,4,0,0,0,2.26-1.25C16.72,4.92,17.16,4.39,17.16,4.39Z"/><path class="cls-3" d="M15.85,8.43A4.24,4.24,0,0,0,15,7.6c-1-.46-2.39.28-4.21.12s-3.17-.85-4.17-.49a5.42,5.42,0,0,0-1,.66L6.78,9.07l3.83,1,3.23-.77Z"/><path class="cls-4" d="M19.78,3.08a20.73,20.73,0,0,1-3.47,3.76,9.22,9.22,0,0,1-6,1.82,8.74,8.74,0,0,1-4.68-2,19.46,19.46,0,0,1-3.76-5.4s0,.27,0,.35A15.25,15.25,0,0,0,4.34,6.87a8.26,8.26,0,0,0,5.85,3.54,7.78,7.78,0,0,0,6.7-2.81,14.79,14.79,0,0,0,2.86-4.17S19.78,3.08,19.78,3.08Z"/><path class="cls-4" d="M19.8,2.86a14.28,14.28,0,0,1-4.31,1.23c-2,.36-7-.26-8.73-.76C5.44,3,2.59,2,1.89,1.23c0,0,.14.33.17.37A12.74,12.74,0,0,0,5.88,4,23.31,23.31,0,0,0,11,5.17a23,23,0,0,0,5.23-.24,7.86,7.86,0,0,0,3.53-1.78S19.8,2.86,19.8,2.86Z"/><path class="cls-5" d="M1.54.57C1.91.2,1.46.12,1.18.46A2.25,2.25,0,0,0,1,1.62,11.42,11.42,0,0,1,1.54.57Z"/><path class="cls-5" d="M20.49,2.24c-.39-.32.05-.46.35-.16S21,3.15,21,3.15C20.68,2.38,20.62,2.34,20.49,2.24Z"/></g></svg>