<svg id="Layer_1" data-name="Layer 1" xmlns="http://www.w3.org/2000/svg" viewBox="0 0 30.3 22.49"><defs><style>.cls-1{fill:#fbd3c7;}.cls-1,.cls-2{stroke:#323232;stroke-miterlimit:10;stroke-width:0.25px;}.cls-2{fill:none;}.cls-3{fill:#e4a68d;}</style></defs><path class="cls-1" d="M27,17.67s0-2.31-.42-2.89a12.38,12.38,0,0,0-5.43-3.11c-3.19-1.05-9.57-6.21-11.45-7.54-1.32-.94-3-2.33-3.95-3.06A7.56,7.56,0,0,1,3.86,2.88,10.63,10.63,0,0,1,1.19,4.26c2,1.79,4.62,3.92,4.62,3.92,2.34,2.11,8.54,4.43,10.07,4.79s2.69.95,3,2.16c.59,2.28.39,2.4.91,3s-.06,1.72.6,1.66,1.07-1.44.65-2.47,0-1,0-1c4.2,1.25,7,4.06,7.17,3.18S27,17.67,27,17.67Z"/><path class="cls-2" d="M27,17.62a16.27,16.27,0,0,1-2.14-2"/><path class="cls-2" d="M26.93,16.85a7.2,7.2,0,0,0-1.51-2.12"/><path class="cls-2" d="M26.86,15.88a8,8,0,0,0-.8-1.19"/><path class="cls-3" d="M3.58,3.1A12.84,12.84,0,0,1,1.41,4.3L2.18,5s2.09-.17,4.46-3l-.9-.7A11,11,0,0,1,3.58,3.1Z"/></svg>