<svg id="Layer_1" data-name="Layer 1" xmlns="http://www.w3.org/2000/svg" viewBox="0 0 17.38 10.68"><defs><style>.cls-1{fill:#551514;}.cls-2{fill:#fff;}.cls-3{fill:#d72b5d;}.cls-4{fill:#bb7757;}.cls-5{fill:#dc9e8f;}</style></defs><g id="EE"><path class="cls-1" d="M16.75.91s-2.56,1.21-3.1,1.44c-.74.31-1.52.62-2.29.86l-4,1.28a12.81,12.81,0,0,1-2,.45,7.25,7.25,0,0,0-1.78.38,4.52,4.52,0,0,0-1,.5H.91A5.81,5.81,0,0,0,2.54,7.58c.37.28,1.06.68,1.43,1,1.34,1,3.14.69,5,.35a12,12,0,0,0,3.08-1.07,6.49,6.49,0,0,0,1.84-1.09c.17-.2.3-.18.44-.39s.88-.76,1-1.13.51-.86.68-1.3A30.09,30.09,0,0,0,16.75.91Z"/><path class="cls-2" d="M14.28,2.51,13,2.59C12.88,2.59,8.86,4,8.86,4S4.72,5.13,4.63,5.18s-1.09.49-1.09.49a10.67,10.67,0,0,0,1.25,1c.57.17,2.17-.18,4.64-.92S13.11,4.55,13.75,4C14.09,3.69,14.28,2.51,14.28,2.51Z"/><path class="cls-3" d="M7,9c.89.23,1.6.19,3.4-.37a6.55,6.55,0,0,0,3-1.72c-.24-.41-1.85-.35-2.6.07a23.78,23.78,0,0,1-2.46.83C7.76,8.09,7.1,8.51,7,9Z"/><path class="cls-2" d="M15.13,5.3s-1.32.83-2.07,1.18-2.8,1.19-2.8,1.19-2,.59-2.68.71-2.81.42-2.81.42l3.4,1.12,2.58-.59h0L11,9.28v0l2.44-1Z"/><path class="cls-4" d="M16.75.91A12.5,12.5,0,0,1,15.13,5.3a8.44,8.44,0,0,1-4.35,3.52,10.16,10.16,0,0,1-6.62-.38A10,10,0,0,1,.91,5.83S4.77,12,11.1,10C16.89,8.2,16.75.91,16.75.91Z"/><path class="cls-4" d="M8.84,3.89c-3,1-7.93,1.94-7.93,1.94s1.63.67,8.15-1.36C16.55,2.14,16.75.91,16.75.91S11.89,2.91,8.84,3.89Z"/><path class="cls-5" d="M.72,5.48c.18-.38-.21-.3-.32,0a1.58,1.58,0,0,0,.16.92A7.93,7.93,0,0,1,.72,5.48Z"/><path class="cls-5" d="M16.42.61c-.41-.1-.1-.35.23-.22s.48.72.48.72C16.62.65,16.55.64,16.42.61Z"/></g></svg>