<svg id="Layer_1" data-name="Layer 1" xmlns="http://www.w3.org/2000/svg" viewBox="0 0 62.59 69.55"><defs><style>.cls-1,.cls-6{fill:#3d2d16;}.cls-1{stroke:#3d2d16;}.cls-1,.cls-3,.cls-8{stroke-miterlimit:10;}.cls-2{fill:#fff;}.cls-3,.cls-9{fill:#fad2c6;}.cls-3{stroke:#323232;stroke-width:0.5px;}.cls-4{fill:#dc9e8f;}.cls-5{fill:#e8d860;}.cls-7{fill:#a67d48;}.cls-8{fill:#ad6428;stroke:#c77929;stroke-width:0.75px;}.cls-10{fill:#323232;}.cls-11{fill:#ef4b3b;}.cls-12{fill:#f49990;}</style></defs><path class="cls-1" d="M54,54.22c-.77,7.83-7.7,11.69-18.28,12.18-.55,0-.93-2-1.42-2.22A28.75,28.75,0,0,0,27,61.82c-.32,0-2.8,4.18-3.12,4.13C9.9,63.77,4.16,64.85,3.74,46.63,3.5,36.21,17,29,31,30.34S55,43.85,54,54.22Z"/><path class="cls-1" d="M51.6,36.05c.39.52,6.07,19.14-.85,25.37-11,9.89-17.46,3.39-17.5,3.4Z"/><path class="cls-2" d="M40,57.78s4.47-.54,6.71,2.39C45.52,60.93,44.32,61.86,40,57.78Z"/><path class="cls-3" d="M52.32,40.5c0-.08-.12.07,0,.1s.14-.06.18-.13a5.6,5.6,0,0,1,2-2.06,2.14,2.14,0,0,1,1.9-.29,2.66,2.66,0,0,1,1.17,2.54,8.86,8.86,0,0,1-1.28,4.58c-1.44,2.38-4.19,4-6.77,3.36"/><path class="cls-4" d="M54.61,41.57a8.61,8.61,0,0,0-.86.85c-.22.24-.43.61-.28.91s.46.29.56.55a.6.6,0,0,1-.36.69c-.24.1-.5.07-.75.15a1.18,1.18,0,0,0-.69.88.89.89,0,0,0,0,.43.65.65,0,0,0,.77.44,1.84,1.84,0,0,0,.82-.53,7.7,7.7,0,0,0,1.48-1.77C55.91,43.11,56.62,39.88,54.61,41.57Z"/><path class="cls-5" d="M51.05,47.16s-2.24,3.26-.55,4.39,2-3.12,2-3.12-1.19,3.32-1.31,1Z"/><path class="cls-3" d="M55.05,31.41c-.19.35-1.35,12.5-1.61,18.23-.3,6.7-7,15.13-14.75,15.91-9.5,1-18.31-1.74-23-8.82S11,39.33,11,39.33,2.69,29.4,11.16,20,30.25,6.39,44.47,9,55.05,31.41,55.05,31.41Z"/><path class="cls-4" d="M18.72,31.36c.46-.25,10-9.8,10-9.8s-4.63,5.89-2,5.34c.73-.15,7-3.53,9-6.39,0,0-.71,4.35-3,5.21,0,0,9.7.48,12.42-7.12,0,0-1.06,4,6.4,7.17,5.78,2.44,2.92,9.71,2.92,9.71l1.2-15.25-6.77-6.31-15.74-.54L20.54,17.74,16.32,28.49,11,39.33Z"/><path class="cls-1" d="M54.29,38.2c.07-2.16-.43-8.58-1.68-10.35-2.51-3.56-5.4-4-7.2-5.19-1.15-.77-1.14-4.5-2.16-5.43s.26,1.45,0,0c-.52,2.26-.11,3.71-2.06,4.94a16.44,16.44,0,0,1-6.09,2.19,9.85,9.85,0,0,0,2.33-3.59,19.26,19.26,0,0,0,.3-4.75A25,25,0,0,1,26.17,26.2a11.55,11.55,0,0,0,3-7.08,4,4,0,0,0-1.73,1.39,73,73,0,0,1-9,9.47c-.1-.62-.47-1.13-.56-1.76-1.25,4.34-7,12.62-7,12.36,0,0-1.28,17.85,13.27,23.5,0,0-3.73,3.65-11.45,1.45-8.13-2.32-13.36-10-10-23.2s-.38-18.2,2.9-26.21C9.56,6.59,24-5.8,48.42,7.65c0,0,11.47,3.55,7.86,25.14C56.28,32.79,54.27,38.9,54.29,38.2Z"/><path class="cls-6" d="M45.18,29.54s3.88-1.11,6,1.67a.13.13,0,0,0,.24-.1,3.36,3.36,0,0,0-3.15-3C44.32,27.6,45.18,29.54,45.18,29.54Z"/><path class="cls-6" d="M29.94,29.82s-4.48-.52-6.45,2.55c-.08.12-.29.08-.28-.06,0-.9.4-2.78,3.14-3.46C30.65,27.76,29.94,29.82,29.94,29.82Z"/><path class="cls-7" d="M40.61,41a4.16,4.16,0,0,0,.15,2.9,4.6,4.6,0,0,0,.81,1.15c.15.15.35.37.56.6a2.49,2.49,0,0,1,.44.82,2.08,2.08,0,0,1-.28,1.91,2.64,2.64,0,0,1-1.54,1,4.44,4.44,0,0,1-3.27-.6l.1,0a1.86,1.86,0,0,1-1-.5.79.79,0,0,1-.2-.54,1,1,0,0,1,.18-.5.69.69,0,0,0,.23.82,1.75,1.75,0,0,0,.85.2h0l.07,0a4.48,4.48,0,0,0,2.78.19,1.42,1.42,0,0,0,1.15-1.73,1.87,1.87,0,0,0-.27-.55c-.13-.17-.27-.35-.47-.58a4.32,4.32,0,0,1-.81-1.49A3.67,3.67,0,0,1,40.61,41Z"/><path class="cls-8" d="M51.36,9.25A26.83,26.83,0,0,0,41.27,6.89C24.69,6.31,10.71,21.11,10.06,39.94c0,.36,0,.72,0,1.09-.59-.15-1.18-.27-1.78-.37,0-.53,0-1.06,0-1.6C8.94,20.24,22.92,5.44,39.5,6A26.76,26.76,0,0,1,51.36,9.25Z"/><path class="cls-9" d="M11,41.37c0-.08.14.08.05.1s-.17-.07-.21-.14a6.07,6.07,0,0,0-2.26-2.21,3,3,0,0,0-2.23-.44,2.6,2.6,0,0,0-1.59,2.45A7.84,7.84,0,0,0,6,45.79a8.17,8.17,0,0,0,7.77,3.88"/><path class="cls-10" d="M11,41.37c0-.07.13.05.08.1a.15.15,0,0,1-.18,0,1.91,1.91,0,0,1-.22-.3,5,5,0,0,0-.45-.56,6,6,0,0,0-1.07-.94,3.59,3.59,0,0,0-2.56-.81,2.14,2.14,0,0,0-1.56,1.92,6.8,6.8,0,0,0,.19,2.76,8.14,8.14,0,0,0,3.12,4.55,7.94,7.94,0,0,0,5.36,1.6,6.92,6.92,0,0,1-2.9-.08,8.85,8.85,0,0,1-2.68-1.2,8.39,8.39,0,0,1-3.38-4.74,7.29,7.29,0,0,1-.15-3,3.3,3.3,0,0,1,.59-1.41,2,2,0,0,1,1.34-.8,3.91,3.91,0,0,1,2.78,1,6.75,6.75,0,0,1,1,1,5.81,5.81,0,0,1,.4.61c.07.1.11.22.18.31s.1.07.14.05S11.07,41.31,11,41.37Z"/><path class="cls-4" d="M8.23,42.27a8.36,8.36,0,0,1,1,.91c.23.26.46.64.26.92s-.57.26-.71.51.09.6.37.71.59.11.88.22a1.21,1.21,0,0,1,.76.92.8.8,0,0,1,0,.43.82.82,0,0,1-1,.39,2.33,2.33,0,0,1-.93-.6A8.31,8.31,0,0,1,7.22,44.8C6.58,43.7,6,40.43,8.23,42.27Z"/><path class="cls-5" d="M12,48.11s2.41,3.42.31,4.42-2.1-3.27-2.1-3.27,1.16,3.41,1.47,1.13Z"/><path class="cls-11" d="M11,18.48s-11,3.16-6.13,7.9,11.59,5.41,10-5.68c-1-7,1.92-2.23,1.92-2.23S30,12.23,19.07,7.62C9,3.36,13.45,15.46,13.45,15.46S10.2,14,11,18.48Z"/><ellipse class="cls-12" cx="15.17" cy="7.99" rx="0.88" ry="1.03" transform="translate(6.52 22.78) rotate(-87.46)"/><ellipse class="cls-12" cx="6.66" cy="22.04" rx="0.88" ry="1.03" transform="translate(-15.65 27.71) rotate(-87.46)"/><ellipse class="cls-12" cx="5.55" cy="24.99" rx="0.88" ry="1.03" transform="translate(-19.65 29.42) rotate(-87.46)"/><ellipse class="cls-12" cx="9.83" cy="23.57" rx="0.88" ry="1.03" transform="translate(-14.15 32.34) rotate(-87.46)"/><ellipse class="cls-12" cx="12.87" cy="22.07" rx="0.88" ry="1.03" transform="translate(-9.75 33.95) rotate(-87.46)"/><ellipse class="cls-12" cx="12.76" cy="26.15" rx="0.88" ry="1.03" transform="translate(-13.93 37.73) rotate(-87.46)"/><ellipse class="cls-12" cx="9.06" cy="26.95" rx="0.88" ry="1.03" transform="translate(-18.27 34.81) rotate(-87.46)"/><ellipse class="cls-12" cx="9.91" cy="20.53" rx="0.88" ry="1.03" transform="translate(-11.04 29.52) rotate(-87.46)"/><ellipse class="cls-12" cx="13.69" cy="11.55" rx="0.88" ry="1.03" transform="translate(1.55 24.72) rotate(-87.46)"/><ellipse class="cls-12" cx="20.82" cy="11.39" rx="0.88" ry="1.03" transform="translate(8.52 31.69) rotate(-87.46)"/><ellipse class="cls-12" cx="19.03" cy="8.5" rx="0.88" ry="1.03" transform="translate(9.7 27.13) rotate(-87.46)"/><ellipse class="cls-12" cx="16.99" cy="11.22" rx="0.88" ry="1.03" transform="matrix(0.04, -1, 1, 0.04, 5.03, 27.7)"/><ellipse class="cls-12" cx="15.4" cy="13.94" rx="0.88" ry="1.03" transform="translate(0.8 28.71) rotate(-87.46)"/><ellipse class="cls-12" cx="18.88" cy="14.32" rx="0.88" ry="1.03" transform="translate(3.74 32.54) rotate(-87.46)"/><ellipse class="cls-12" cx="16.86" cy="16.16" rx="0.88" ry="1.03" transform="translate(-0.03 32.29) rotate(-87.46)"/><ellipse class="cls-11" cx="13.83" cy="18.07" rx="2.37" ry="3.16" transform="translate(-8.89 19.42) rotate(-55.97)"/></svg>