<svg id="Layer_1" data-name="Layer 1" xmlns="http://www.w3.org/2000/svg" viewBox="0 0 34.52 36.97"><defs><style>.cls-1{fill:#fbd3c7;}.cls-1,.cls-2{stroke:#323232;stroke-miterlimit:10;stroke-width:0.25px;}.cls-2{fill:none;}.cls-3{fill:#dc9e8f;}</style></defs><path class="cls-1" d="M33.21,6.8a13.52,13.52,0,0,1-1.82,1.52,3,3,0,0,1-.91.47c-2.78,3.75-11.12,8.94-13.24,9.91s-3.63,2.18-3.74,4c-.19,3.49.14,3.6-.44,4.66s.59,2.48-.37,2.59-2-1.78-1.67-3.4-.25-1.47-.25-1.47c-5.73,3.05-9,8-9.48,6.73s1.21-3,1.21-3-.69-3.37-.23-4.34,2.64-3.66,7-6.12S21.34,6.52,23.67,4a22.34,22.34,0,0,0,1.47-1.7c1.09-1.39.68-1.45.79-1.28A15.78,15.78,0,0,0,33.21,6.8Z"/><path class="cls-2" d="M2.46,28.73A22.88,22.88,0,0,0,5,25.17"/><path class="cls-2" d="M2.32,27.6a10.88,10.88,0,0,1,1.57-3.53"/><path class="cls-2" d="M2.14,26.17a12.11,12.11,0,0,1,.81-2"/><path class="cls-3" d="M33,6.84a9.16,9.16,0,0,1-1.55,1.31,14.94,14.94,0,0,1-6.54-5.33C26,1.43,25.91,1.19,26,1.36,28.21,4.83,33,6.84,33,6.84Z"/></svg>