<svg xmlns="http://www.w3.org/2000/svg" viewBox="0 0 99.38 79.59"><defs><style>.cls-1{isolation:isolate;}.cls-2{fill:#5c5548;}.cls-3{fill:#424036;}.cls-4{fill:#fad2c6;stroke:#323232;}.cls-4,.cls-7{stroke-miterlimit:10;stroke-width:0.25px;}.cls-5{fill:#e4a58c;}.cls-6{fill:#421b16;}.cls-7{fill:#311415;stroke:#211e1f;}.cls-8{fill:#90856e;}.cls-9{fill:#605e44;}.cls-10,.cls-13{fill:#9e9580;opacity:0.5;}.cls-10,.cls-12{mix-blend-mode:multiply;}.cls-11,.cls-12{fill:#676254;}.cls-12{opacity:0.4;}.cls-13{mix-blend-mode:screen;}.cls-14{fill:#c28974;}</style></defs><g class="cls-1"><g id="Layer_1" data-name="Layer 1"><path class="cls-2" d="M81.3,31.5a22.36,22.36,0,0,1,5.26,3.85c3.3,3,10.6,11.86,11,15.37s-22.22-.52-51.71-3.95S5.52,37.86,5.47,36.17,13.18,28,21.7,24.74s20.06-2.33,34-.72A86.57,86.57,0,0,1,81.3,31.5Z"/><path class="cls-3" d="M55.65,24.18c-13.44-1.55-25.27-2.57-33.91.72-8.4,3.2-16.16,9.68-16.12,11.27,0,1,6.36,5,26.45,8.47,4.26.72,8.93,1.38,13.84,2,7.18.84,14,1.72,20.09,2.5,17.22,2.22,29.66,3.82,31.29,2.09a.53.53,0,0,0,.15-.45c-.42-3.38-7.57-12.16-11-15.27a22.18,22.18,0,0,0-5.22-3.82,87.74,87.74,0,0,0-21.86-6.93C58.12,24.5,56.86,24.32,55.65,24.18Z"/><path class="cls-4" d="M24.77,32.8c-.48.8-1.48,1.9-.63,3.87,4.54,10.56,4.32,13.75,7.59,26.69,2.41,9.57,13.2,15.78,22.19,13.6,11-2.68,23.57-9,21.82-30.81C75,36.54,76.32,26.06,74.33,23c-6.75-10.3-12.12-7.76-25.91-4.35C35.53,21.86,30.2,23.69,24.77,32.8Z"/><path class="cls-5" d="M28.71,49.94S28,31.57,37.11,34.05c9.94,2.71,13.76-1.69,17.78-.85C63.7,35,73.73,47.8,76.74,38.9S55,19.89,55,19.89,32.64,18,31.16,18.68s-7.47,12.4-7.47,12.4Z"/><path class="cls-6" d="M35.59,40.79a.68.68,0,0,0,.63-1l-.1-.18c-.51-1-2-.94-2.75-.58-1.2.53-2.95,1.19-3.77,4.72-.06.29.29.56.44.33C31,42.74,33.11,40.72,35.59,40.79Z"/><path class="cls-6" d="M52.32,37.41a.68.68,0,0,1-1-.58v-.2c0-1.11,1.27-1.77,2.13-1.85,1.31-.1,3.16-.37,5.58,2.33.2.22,0,.62-.23.5C57.32,36.88,54.46,36.15,52.32,37.41Z"/><path class="cls-7" d="M34.45,27.6s3,11.17,20.7,2.11c0,0-20.6-1.93-.42-7.85,0,0-2.57,7.14,10.27,1.91,0,0-8.27,9.6,8.1,17.62,0,0,2.8.26,3.43,7,0,.49.08,1,.11,1.56.31,8.27-.06-1.07-.06-1.07s7.19-3,5.25-11.74c0,0,4.63-7.57-1.65-14.29,0,0,1.43-11.35-11.28-11.06,0,0-5.36-10-12.65-7.94,0,0-12.34-5.8-18.49,5.12,0,0-9-1-12.24,10.11,0,0-6.69,5.72-3.29,12.11,0,0-5.33,5,1.49,9,0,0-3.87,5.35,3,8.27l2.9,6-.93-4.59A21.57,21.57,0,0,1,34,28C34.15,27.88,34.3,27.74,34.45,27.6Z"/><path class="cls-8" d="M21.7,24.74c8.5-3.24,20.06-2.33,34-.72A86.57,86.57,0,0,1,81.3,31.5a22.36,22.36,0,0,1,5.26,3.85c3.3,3,10.6,11.86,11,15.37C97,48.37,87.14,37.79,48.22,32.93c-25.41-3.17-38-.17-42.54,2.6C7,33.23,14,27.66,21.7,24.74Z"/><path class="cls-9" d="M5.56,35.66a.2.2,0,0,1,0-.21c1.33-2.39,8.44-8,16.09-10.87,8.71-3.31,20.57-2.29,34.06-.73,1.22.15,2.47.32,3.73.54a88.13,88.13,0,0,1,22,7,22.15,22.15,0,0,1,5.29,3.87C89.73,38,97.29,47,97.76,50.7a.21.21,0,0,1-.13.19.16.16,0,0,1-.18-.13c-.54-2.08-8.76-11-39.34-16.2-3.15-.54-6.48-1-9.91-1.46-29.47-3.69-39.94,1-42.45,2.58a.12.12,0,0,1-.1,0Z"/><path class="cls-10" d="M81.9,37.83c-2-3.8-5.81-6.62-9.16-8.76a44.41,44.41,0,0,0-4.3-2.41A84.59,84.59,0,0,1,81.3,31.5a22.36,22.36,0,0,1,5.26,3.85c3.3,3,10.6,11.86,11,15.37-.37-1.42-4.13-5.87-15.71-10.23A2.81,2.81,0,0,0,81.9,37.83Z"/><path class="cls-10" d="M36.59,23.05a54.42,54.42,0,0,0-9.29,2.69c-2.27.9-5,2.51-5.18,5.49a3.13,3.13,0,0,0,0,.53C13.45,32.31,8.25,34,5.68,35.53,7,33.23,14,27.66,21.7,24.74c5.11-1.95,11.34-2.4,18.52-2.09A27.6,27.6,0,0,0,36.59,23.05Z"/><path class="cls-8" d="M86.17,33.38S89.23,20.75,75.58,9.46C60.8-2.76,41.66,2.15,35.79,5.36S23.61,15.9,21.91,23.3c0,0,21.56-.85,31.44.66S80.74,29.55,86.17,33.38Z"/><path class="cls-9" d="M86.06,33.1c.32-1.78,1.82-13.26-10.58-23.51a33.64,33.64,0,0,0-16-7.25c-10-1.71-19.62,1-23.67,3.17-5.47,3-11.91,10-13.75,17.62,2.25-.08,22-.75,31.27.66.73.11,1.49.24,2.29.38C65,25.76,80.59,29.42,86.06,33.1Z"/><path class="cls-10" d="M31.74,16.81c1.52,3,4.56,4.42,7.33,5.42,1,.35,1.93.65,2.9.92-9.66-.25-20.06.15-20.06.15C23.48,16.46,29,9.67,34.46,6.15,31.86,8.84,29.86,13.08,31.74,16.81Z"/><path class="cls-10" d="M65.71,24.81c3.73-.27,7.84-.73,11.27-2.74a7.85,7.85,0,0,0,4.34-6.63c6.93,9.35,4.85,17.94,4.85,17.94-4.44-3.13-17-6.45-26.81-8.37C61.49,25,63.61,25,65.71,24.81Z"/><path class="cls-11" d="M53.77,22c-8-1.27-29.67-1.29-32-.1A13.09,13.09,0,0,0,21.26,25c.17.55,10.7-2.14,29.91.4C76.44,28.8,85.47,35,86.1,35.19s.68-2.88.44-3.37S77,25.68,53.77,22Z"/><path class="cls-3" d="M21.11,25.1a11.88,11.88,0,0,1,.53-3.26l0-.07.06,0c2.37-1.22,24.26-1.15,32.08.09,23.48,3.72,32.65,9.44,32.88,9.91a6.18,6.18,0,0,1-.21,3.43.36.36,0,0,1-.37.19h0a4.46,4.46,0,0,1-.49-.25c-8.1-4.47-19.51-7.07-27.65-8.47-2.17-.37-4.45-.72-6.76-1a111.35,111.35,0,0,0-27.65-.48,12.42,12.42,0,0,1-2.15.14C21.3,25.26,21.15,25.24,21.11,25.1Z"/><path class="cls-12" d="M21.79,21.89c1.31-.67,8.84-1,16.57-.85-.27.05-.53.09-.83.12-7.6.81-2.38,2.12,3.37,2.24a113,113,0,0,1,20.39,2.23c8.64,1.65,11.6.34,4.67-1.19-.5-.12-.95-.25-1.37-.39,15.32,3.43,21.75,7.36,22,7.77s.19,3.59-.44,3.37-9.66-6.39-34.93-9.75C32,22.9,21.43,25.59,21.26,25A13.09,13.09,0,0,1,21.79,21.89Z"/><path class="cls-13" d="M78.11,37.82s-15.36-6.5-52.29-7.51C25.82,30.31,55.25,28.1,78.11,37.82Z"/><path class="cls-4" d="M74,52.09c.38-5,2.24-7.3,4.94-7.29,2.93,0,4,2,3.88,6.16-.2,5.29-5.79,9.21-9.38,8.14"/><path class="cls-5" d="M80.72,49.56s.75-2.94-2.4-2.39S76.85,51.72,76,53.41s-2.79,3.4-1.43,3.75S80.46,55.86,80.72,49.56Z"/><path class="cls-14" d="M43.3,57a3.75,3.75,0,0,0,.23,2.17,1.68,1.68,0,0,0,1.79.66A3.21,3.21,0,0,0,47.25,59a4.33,4.33,0,0,0,1.12-1.91,3.48,3.48,0,0,1-.84,2.17,3.22,3.22,0,0,1-2.16,1.06,2.94,2.94,0,0,1-1.24-.12,1.56,1.56,0,0,1-.94-.87A3.14,3.14,0,0,1,43.3,57Z"/></g></g></svg>