<svg id="Layer_1" data-name="Layer 1" xmlns="http://www.w3.org/2000/svg" viewBox="0 0 20 10"><defs><style>.cls-1{fill:#8c3e36;}.cls-2{fill:#fff;}.cls-3{fill:#d26653;}.cls-4{fill:#f5968e;}.cls-5{fill:#f48678;}.cls-6{fill:#e9a597;opacity:0.5;}</style></defs><g id="EE"><path class="cls-1" d="M18.32.93s-2.71.94-3.27,1.1c-.79.24-1.6.46-2.41.62l-4.18.83a12,12,0,0,1-2.06.23,7.48,7.48,0,0,0-1.83.18,4.54,4.54,0,0,0-1.05.4L1.86,4.12A6,6,0,0,0,3.3,6.06c.34.31,1,.8,1.34,1.12,1.22,1.16,3.07,1.05,5,.91a11.78,11.78,0,0,0,3.21-.73,6.46,6.46,0,0,0,2-.88c.2-.18.32-.16.49-.35s1-.66,1.14-1,.61-.8.83-1.23A30.4,30.4,0,0,0,18.32.93Z"/><path class="cls-2" d="M16,2.09l-1.65.11c-.1,0-4.29,1-4.29,1s-4.28.64-4.38.68-1.8.46-1.8.46a10,10,0,0,0,1,1,15,15,0,0,0,5.65-.12,15,15,0,0,0,5.1-1.69A3.26,3.26,0,0,0,16,2.09Z"/><path class="cls-3" d="M7.65,8a5.72,5.72,0,0,0,3.46,0,6.73,6.73,0,0,0,3.15-1.4c-.19-.45-1.81-.56-2.61-.22s-2,.34-2.56.56S7.78,7.5,7.65,8Z"/><path class="cls-2" d="M16.2,5.16s-1.42.69-2.21,1S11.05,7,11.05,7,9,7.37,8.28,7.42l-2.87.11L8.7,9l2.66-.31h0l.22,0v0l2.56-.73Z"/><path class="cls-4" d="M18.32.93A12.59,12.59,0,0,1,16.2,5.16a9.42,9.42,0,0,1-5.11,3.12A9.26,9.26,0,0,1,4.84,7.09a9.92,9.92,0,0,1-3-3s2.85,6.65,9.43,5.38C17.3,8.33,18.32.93,18.32.93Z"/><path class="cls-5" d="M10,3.05C7,3.68,1.86,4.12,1.86,4.12S3.42,5,10.2,3.65C18,2.15,18.32.93,18.32.93S13.21,2.4,10,3.05Z"/><path class="cls-6" d="M1.71,3.74c.22-.36-.17-.32-.33,0a1.67,1.67,0,0,0,.06.94A9.32,9.32,0,0,1,1.71,3.74Z"/><path class="cls-6" d="M18,.6c-.41-.15-.07-.36.26-.2s.39.78.39.78C18.21.66,18.15.64,18,.6Z"/></g></svg>