<svg id="Layer_1" data-name="Layer 1" xmlns="http://www.w3.org/2000/svg" viewBox="0 0 650 900"><defs><style>.cls-1{fill:#4a2a15;}.cls-2,.cls-8{fill:#fad2c6;}.cls-10,.cls-2,.cls-21,.cls-22,.cls-4,.cls-6,.cls-8,.cls-9{stroke:#323232;stroke-miterlimit:10;}.cls-10,.cls-2,.cls-21,.cls-4,.cls-6,.cls-9{stroke-width:0.25px;}.cls-3{fill:#e4a58c;}.cls-4{fill:#fccd3a;}.cls-5{fill:#be9030;}.cls-6{fill:#fbd3c7;}.cls-7{fill:#dc9e8f;}.cls-22,.cls-8{stroke-width:0.5px;}.cls-9{fill:#ffe57b;}.cls-10{fill:#e0604f;}.cls-11{fill:#f5927d;}.cls-12{fill:#fab51b;}.cls-13{fill:#f17125;}.cls-14{fill:#80351b;}.cls-15{fill:#75451c;}.cls-16{fill:#a66638;}.cls-17{fill:#925b24;}.cls-18{fill:#e69847;}.cls-19{fill:#5f2710;}.cls-20{fill:#fff;}.cls-21,.cls-22{fill:none;}</style></defs><polygon class="cls-1" points="260.4 657.77 247.12 804.43 244.81 804.41 258.14 657.77 260.4 657.77"/><polygon class="cls-1" points="374.26 657.63 388.02 804.43 390.33 804.41 376.52 657.63 374.26 657.63"/><path class="cls-2" d="M351.88,768.31l-7.49-6.39.11-.11a6,6,0,0,0,1.66-5.79,6.3,6.3,0,0,0-.73-1.61c-2.63-4.24,14.24-3.32,14.24-3.32a6.49,6.49,0,0,0-.78,2.65,7.63,7.63,0,0,0,1,4.41,10.66,10.66,0,0,0,1.42,2C365.58,764.89,351.88,768.31,351.88,768.31Z"/><path class="cls-3" d="M359.88,758.15a18.05,18.05,0,0,1-15.38,3.66,6,6,0,0,0,1.66-5.79,83.39,83.39,0,0,1,12.73-2.28A7.63,7.63,0,0,0,359.88,758.15Z"/><path class="cls-4" d="M368.88,760.68c-.3.68,4.06,12.79,5.75,45.61l-37.11,2.55s3.32-15.73,2.22-26.59l-2.53,3.58-2.49-1a10.71,10.71,0,0,1-4.7-3.74l-1.6-2.27s10-19.49,16.29-17.24l1.14.8a7.88,7.88,0,0,0,4.8,1.45c2.61-.1,6.3-1.17,9.24-5.65.73-1.12,6.88,1.74,6.88,1.74Z"/><path class="cls-5" d="M371.49,780.47s-23.1,7.94-31.11,2.77l.2,4s7.61,6.74,31.75-3.78Z"/><path class="cls-5" d="M373.16,787.19S348,797.16,340.8,790l-.42,4s9.45,7.4,33-3.41Z"/><path class="cls-6" d="M304.7,788.83l-10.46,7.1-2.17-5.48L298,784.1,296.1,781l-.94-1.51,5.85-6.15,1.95,2.57,2.13,2.81C307.3,781.65,307.72,786.77,304.7,788.83Z"/><path class="cls-7" d="M302.88,776a10.72,10.72,0,0,1-6.62,4.93l-1.1-1.47,5.85-6.15Z"/><path class="cls-6" d="M266.59,782.41c-.18,1.13-.45,2.54-.79,4.12-.23,1.05-.48,2.17-.75,3.32-1.62,6.82-3.87,14.8-4.83,16-1.35,1.78-4.43-2.25-4.43-2.25a103.36,103.36,0,0,1,1.64-15.93c.14-.84.28-1.63.41-2.37.58-3.19,1.06-5.34,1.06-5.34S267.61,776.12,266.59,782.41Z"/><path class="cls-7" d="M266.59,782.41c-.18,1.13-.62,2.62-1,4.2-3,1.42-6-.17-7.65-1.18.58-3.2.92-5.43.92-5.43S267.61,776.12,266.59,782.41Z"/><path class="cls-8" d="M286.32,764.8c1.67,2.09-10.57,4.31-11,4.54s-2.78-2.25-2.78-2.25l.51-1.74.17-.55s2.59-1.46,1.76-3.9,12.08-1.55,12.08-1.55c-2.42.5-2.56,2.25-1.72,4A8.1,8.1,0,0,0,286.32,764.8Z"/><path class="cls-7" d="M285.22,763.42a19.74,19.74,0,0,1-12.13,1.93l.17-.55s2.59-1.46,1.76-3.9,12.08-1.55,12.08-1.55C284.68,759.85,284.38,761.69,285.22,763.42Z"/><path class="cls-9" d="M297.21,768.86l5.16,5.42h0a11.22,11.22,0,0,1-6.49,6.23l-.76.28-2.38-4.62,1.89,27.09A16,16,0,0,1,280,811c-11.15-.35-16.56-6.7-16.56-6.7s3.16-21.6,3.43-24.73a.53.53,0,0,0,0-.13c.28-3.63-.43-5.82-3.49-7.78v-.85c-.79-.5-.5-1.11.39-1.4l-.18-1.3a22.56,22.56,0,0,1,9.67-3.26h0s1.42,3,6.62,2.55S286,764,286,764l2.13.25A15.1,15.1,0,0,1,297.21,768.86Z"/><path class="cls-10" d="M267.19,779.36c-.19.34,20.14,5.7,25.92-4.45l7.19,30.66s-18.43,15.08-37.1-.74Z"/><path class="cls-10" d="M273.25,764.8s-.85,14.43-.23,18.34l-2.47,1.33-1.73-2.61s.36-9.63,3-16.87Z"/><path class="cls-10" d="M286.32,764s.87,12.32.44,18.15l2.27,1.45,1.32-2.2s-.05-10.49-2.27-17.15Z"/><path class="cls-9" d="M263.88,767.88c-2.39,1.3-6.65,14.55-6.67,16.18,0,.44,2.76,1.4,4.94,1.58a9.85,9.85,0,0,0,4.17-.7s.42-2.86,1-7.07"/><circle class="cls-11" cx="287.54" cy="797.59" r="2.59"/><circle class="cls-11" cx="287.44" cy="788.83" r="2.59"/><circle class="cls-11" cx="293.46" cy="793.34" r="2.59"/><circle class="cls-11" cx="270.37" cy="790.04" r="2.59"/><circle class="cls-11" cx="287.89" cy="806.22" r="2.59"/><circle class="cls-11" cx="278.12" cy="806.36" r="2.59"/><circle class="cls-11" cx="269.3" cy="803.92" r="2.59"/><circle class="cls-11" cx="295.25" cy="799.48" r="2.59"/><circle class="cls-11" cx="273.27" cy="797.14" r="2.59"/><circle class="cls-11" cx="281.02" cy="798.41" r="2.59"/><circle class="cls-11" cx="278.69" cy="790.3" r="2.59"/><circle class="cls-11" cx="283.09" cy="784.41" r="2.59"/><circle class="cls-11" cx="276.22" cy="784.42" r="2.59"/><ellipse class="cls-11" cx="292.74" cy="784.94" rx="2.59" ry="2.17" transform="translate(-500.97 1052.98) rotate(-88.21)"/><ellipse class="cls-11" cx="266.69" cy="798.2" rx="2.35" ry="1.97" transform="translate(-539.46 1039.8) rotate(-88.21)"/><ellipse class="cls-11" cx="295.69" cy="805.01" rx="2.35" ry="1.97" transform="translate(-518.17 1075.37) rotate(-88.21)"/><path class="cls-6" d="M289.43,793.17c-.92.25-3.05.63-2.92,1.86.05.51,2,.15,3.81-.17a14.42,14.42,0,0,0,2.4-1.09c.1.14-.61.76-1.67,1.21-.58.25-2.7-.08-2.74,1.48,0,.27,2.61.21,3.23.19,1,0,5.68-3,5.91-3.23,1-1,.69-3.63-.21-5.26-1.07-1.85-3.62-2.19-6-1.89a27.38,27.38,0,0,0-4.29,1.48c-3.1,2.08-4.66,2.93-4.2,3.49,1.1,1.35,3.57-.37,4.92-1.11a15.66,15.66,0,0,1,3.11-.91c.21.23-1.85.85-2.94,1.32-.87.45-3.81,2.24-3.43,2.78,1,1.43,2.05.16,4.44-.78a12.45,12.45,0,0,1,3-.61C291.73,792.24,291.18,792.42,289.43,793.17Z"/><path class="cls-12" d="M241.1,653.42l6.55-.29,23.37-1,22.43-.94L346,649l22.64-.94,27.45-1.17,2.78-.12S657.59,355.73,637,210.22C625.93,131.77,588.51,91,556.38,70l-.1-.07c-27.44-17.84-51-21.24-51-21.24A163.34,163.34,0,0,0,481.43,36h0c-33.84-14.54-62.74-12.65-77.69-10a73.09,73.09,0,0,0-10.93,2.65c-82.08-36.31-133.73-3.5-142.67,2.95-.93.68-1.4,1.06-1.4,1.06-37.08-12.56-70.38-6.2-91.53,1.16C142.34,39,133.48,44.68,133.48,44.68,111,53,92.25,63.12,76.6,74.56l0,0a.41.41,0,0,0-.09.1C-135.38,230.93,241.1,653.42,241.1,653.42Z"/><path class="cls-13" d="M234.24,220.9c0,168.19,27.95,359,59.21,430.31L346,649c25.64-58.91,45.79-194.9,61-352.19C419.39,169.23,415.5,83.43,403.72,26a73.09,73.09,0,0,0-10.93,2.65c-82.08-36.31-133.73-3.5-142.67,2.95C240.38,79.33,234.24,142.08,234.24,220.9Z"/><path class="cls-13" d="M247.65,653.13l23.37-1C42.28,279.42,108,66,152.33,35.62L76.6,74.56l0,0S115,52.91,115,52.94C-105.35,207.55,184.75,577.15,247.65,653.13Z"/><path class="cls-13" d="M368.65,648l27.45-1.17C467.78,558.9,723.68,221,556.38,70l-.1-.07c-27.44-17.84-51-21.24-51-21.24-8.15-5.22,3.37.6-4.36-2.71C528.27,96.23,586.53,286.66,368.65,648Z"/><ellipse class="cls-14" cx="316.77" cy="648.76" rx="81.24" ry="14.15"/><path class="cls-15" d="M252.1,884.82h0c42.39,3.78,80.45,4.61,125,1.15h0c12.45-2.07,21.34-8.5,22.2-16.07l5.93-52.18H230.78l4.86,54.61C236.15,878.1,242.71,883.07,252.1,884.82Z"/><rect class="cls-16" x="374.13" y="823.32" width="17.3" height="3.03" rx="0.92" transform="translate(765.55 1649.67) rotate(-180)"/><rect class="cls-16" x="374.13" y="832.82" width="17.3" height="3.03" rx="0.92" transform="translate(765.55 1668.67) rotate(180)"/><rect class="cls-16" x="374.13" y="842.32" width="17.3" height="3.03" rx="0.92" transform="translate(765.55 1687.66) rotate(-180)"/><rect class="cls-16" x="374.13" y="851.81" width="17.3" height="3.03" rx="0.92" transform="translate(765.55 1706.66) rotate(180)"/><rect class="cls-16" x="374.13" y="861.31" width="17.3" height="3.03" rx="0.92" transform="translate(765.55 1725.65) rotate(180)"/><rect class="cls-16" x="374.13" y="870.81" width="17.3" height="3.03" rx="0.92" transform="translate(765.55 1744.65) rotate(180)"/><rect class="cls-16" x="348.18" y="823.32" width="17.3" height="3.03" rx="0.92" transform="translate(713.67 1649.67) rotate(-180)"/><rect class="cls-16" x="348.18" y="832.82" width="17.3" height="3.03" rx="0.92" transform="translate(713.67 1668.67) rotate(180)"/><rect class="cls-16" x="348.18" y="842.32" width="17.3" height="3.03" rx="0.92" transform="translate(713.67 1687.66) rotate(-180)"/><rect class="cls-16" x="348.18" y="851.81" width="17.3" height="3.03" rx="0.92" transform="translate(713.67 1706.66) rotate(-180)"/><rect class="cls-16" x="348.18" y="861.31" width="17.3" height="3.03" rx="0.92" transform="translate(713.67 1725.65) rotate(180)"/><rect class="cls-16" x="348.18" y="870.81" width="17.3" height="3.03" rx="0.92" transform="translate(713.67 1744.65) rotate(180)"/><rect class="cls-16" x="322.24" y="823.32" width="17.3" height="3.03" rx="0.92" transform="translate(661.78 1649.67) rotate(180)"/><rect class="cls-16" x="322.24" y="832.82" width="17.3" height="3.03" rx="0.92" transform="translate(661.78 1668.67) rotate(-180)"/><rect class="cls-16" x="322.24" y="842.32" width="17.3" height="3.03" rx="0.92" transform="translate(661.78 1687.66) rotate(-180)"/><rect class="cls-16" x="322.24" y="851.81" width="17.3" height="3.03" rx="0.92" transform="translate(661.78 1706.66) rotate(-180)"/><rect class="cls-16" x="322.24" y="861.31" width="17.3" height="3.03" rx="0.92" transform="translate(661.78 1725.65) rotate(-180)"/><rect class="cls-16" x="322.24" y="870.81" width="17.3" height="3.03" rx="0.92" transform="translate(661.78 1744.65) rotate(180)"/><rect class="cls-16" x="296.3" y="823.32" width="17.3" height="3.03" rx="0.92" transform="translate(609.89 1649.67) rotate(-180)"/><rect class="cls-16" x="296.3" y="832.82" width="17.3" height="3.03" rx="0.92" transform="translate(609.89 1668.67) rotate(180)"/><rect class="cls-16" x="296.3" y="842.32" width="17.3" height="3.03" rx="0.92" transform="translate(609.89 1687.66) rotate(180)"/><rect class="cls-16" x="296.3" y="851.81" width="17.3" height="3.03" rx="0.92" transform="translate(609.89 1706.66) rotate(180)"/><rect class="cls-16" x="296.3" y="861.31" width="17.3" height="3.03" rx="0.92" transform="translate(609.89 1725.65) rotate(180)"/><rect class="cls-16" x="296.3" y="870.81" width="17.3" height="3.03" rx="0.92" transform="translate(609.89 1744.65) rotate(-180)"/><rect class="cls-16" x="270.19" y="823.32" width="17.3" height="3.03" rx="0.92" transform="translate(557.67 1649.67) rotate(180)"/><rect class="cls-16" x="270.19" y="832.82" width="17.3" height="3.03" rx="0.92" transform="translate(557.67 1668.67) rotate(180)"/><rect class="cls-16" x="270.19" y="842.32" width="17.3" height="3.03" rx="0.92" transform="translate(557.67 1687.66) rotate(180)"/><rect class="cls-16" x="270.19" y="851.81" width="17.3" height="3.03" rx="0.92" transform="translate(557.67 1706.66) rotate(-180)"/><rect class="cls-16" x="270.19" y="861.31" width="17.3" height="3.03" rx="0.92" transform="translate(557.67 1725.65) rotate(-180)"/><rect class="cls-16" x="270.19" y="870.81" width="17.3" height="3.03" rx="0.92" transform="translate(557.67 1744.65) rotate(180)"/><rect class="cls-16" x="244.08" y="823.32" width="17.3" height="3.03" rx="0.92" transform="translate(505.45 1649.67) rotate(-180)"/><rect class="cls-16" x="244.08" y="832.82" width="17.3" height="3.03" rx="0.92" transform="translate(505.45 1668.67) rotate(180)"/><rect class="cls-16" x="244.08" y="842.32" width="17.3" height="3.03" rx="0.92" transform="translate(505.45 1687.66) rotate(180)"/><rect class="cls-16" x="244.08" y="851.81" width="17.3" height="3.03" rx="0.92" transform="translate(505.45 1706.66) rotate(-180)"/><rect class="cls-16" x="244.08" y="861.31" width="17.3" height="3.03" rx="0.92" transform="translate(505.45 1725.65) rotate(-180)"/><rect class="cls-16" x="244.08" y="870.81" width="17.3" height="3.03" rx="0.92" transform="translate(505.45 1744.65) rotate(180)"/><rect class="cls-17" x="215.3" y="804.85" width="204.37" height="13.63" rx="4.15" transform="translate(634.97 1623.34) rotate(-180)"/><rect class="cls-18" x="221.88" y="805.7" width="193.09" height="6.82" rx="3.41" transform="translate(636.85 1618.21) rotate(-180)"/><ellipse class="cls-19" cx="316.67" cy="648.92" rx="72.62" ry="11.61"/><path class="cls-4" d="M359.89,758.17c1.38-.84,12.21-3.29,20.75,21.63l-.83.66s-3.73,3-7.74,2.7l-1.45-.1-5.3-9.24"/><ellipse class="cls-6" cx="262.15" cy="803.96" rx="1.46" ry="3.08" transform="matrix(0.03, -1, 1, 0.03, -549.61, 1040.83)"/><ellipse class="cls-20" cx="256.77" cy="803.69" rx="0.35" ry="2.73" transform="translate(-572.48 959.22) rotate(-82.9)"/><path class="cls-6" d="M259.25,801.66c-1.81-.45-1.69,1.36-1.93,3.27s.24,3.53,1.07,3.63,1.69-1.36,1.92-3.26S260.05,801.86,259.25,801.66Z"/><path class="cls-6" d="M256.53,801.32c-2.71-.25-1.41,1.38-1.65,3.26s.13,3.48.8,3.57,1.41-1.38,1.65-3.26S257.21,801.39,256.53,801.32Z"/><path class="cls-6" d="M253.92,801.23c-2.54,0-1.54,1.3-1.77,3.12s.2,3.37.95,3.47,1.54-1.31,1.77-3.13S254.67,801.24,253.92,801.23Z"/><path class="cls-6" d="M251.5,801.83c-1.39-.22-1.53.94-1.71,2.35s.55,2.68,1.07,2.75,1.1-1,1.27-2.43S252.1,801.92,251.5,801.83Z"/><polygon class="cls-1" points="247.58 646.57 232.34 804.95 229.52 804.95 245.36 646.57 247.58 646.57"/><polygon class="cls-1" points="387.15 646.4 402.4 804.78 405.21 804.78 389.38 646.4 387.15 646.4"/><path class="cls-21" d="M340.58,783.58A26.59,26.59,0,0,1,339,772"/><path class="cls-6" d="M391.83,807.68a1.36,1.36,0,0,0,1.57.37,1.1,1.1,0,0,0,.48-1.48,3.47,3.47,0,0,0-.56-.59c-.44-.46-.68-1.1-1.14-1.54a2.68,2.68,0,0,0-1.71-.66,8.27,8.27,0,0,0-1.86.19,3.44,3.44,0,0,0,1.44,3.22A4.07,4.07,0,0,0,391.83,807.68Z"/><path class="cls-6" d="M392.58,809.74a1.66,1.66,0,0,1-1.65-.43c.07.65-.12,1.31-1.26,1.08-2.07-.42-1.82-3-5.74-3.45s-8.88.78-9.3-.65,1.77-1.53,2-1.58,2.18-.42,2.28-.9-2.54-6.38-2.75-14.49c0,0,0-.2-.4-.69-.19-.22-1.54-2.34-2.7-4a16.58,16.58,0,0,1-1-1.52,7.11,7.11,0,0,0,4.12-.7,45.72,45.72,0,0,0,4.45-2.66s.22.62.55,1.46c.57,1.48,1.43,3.67,1.83,4.37a15.09,15.09,0,0,1,1.74,4.62c.71,3.77.64,11.61.64,11.61s-1.17,0,1.63.71S394.76,809.41,392.58,809.74Z"/><path class="cls-3" d="M381.07,781.39a9.34,9.34,0,0,1-7.79,3.3c-.53-.74-.86-1.2-.95-1.38a8.94,8.94,0,0,0,4.24-.94,30.28,30.28,0,0,0,4-2.34S380.75,780.55,381.07,781.39Z"/><path class="cls-21" d="M378.5,804.14c.46-1.16,1.71-1.22,2.62-1.15"/><path class="cls-21" d="M390.85,808.62a11.24,11.24,0,0,0-4.53-4.25"/><path class="cls-21" d="M376.07,789.32a6.47,6.47,0,0,1,5.77-1.41"/><path class="cls-22" d="M292.92,775.44a8.61,8.61,0,0,0-.21-6.41"/><path class="cls-22" d="M267,777.55,266,771"/></svg>