<svg id="Layer_1" data-name="Layer 1" xmlns="http://www.w3.org/2000/svg" viewBox="0 0 15 10"><defs><style>.cls-1{fill:#8c3e36;}.cls-2{fill:#fff;}.cls-3{fill:#d26653;}.cls-4{fill:#f5968e;}.cls-5{fill:#f48678;}.cls-6{fill:#e9a597;opacity:0.5;}</style></defs><g id="EE"><path class="cls-1" d="M1.77,2.2S3.64,2.84,4,3c.54.16,1.1.31,1.65.42,1,.19,1.92.39,2.88.57A7.53,7.53,0,0,0,10,4.11a4.91,4.91,0,0,1,1.26.13,3.22,3.22,0,0,1,.72.27l1.14-.12a4,4,0,0,1-1,1.34c-.23.22-.68.55-.92.77-.84.8-2.11.72-3.45.63a8.25,8.25,0,0,1-2.21-.5A4.61,4.61,0,0,1,4.18,6C4,5.89,4,5.91,3.84,5.78s-.67-.46-.79-.7-.41-.56-.57-.85S1.77,2.2,1.77,2.2Z"/><path class="cls-2" d="M3.38,3s1.06.08,1.13.07,3,.69,3,.69,2.94.44,3,.47l1.24.32a6.35,6.35,0,0,1-.65.69,10.39,10.39,0,0,1-3.89-.08A10.56,10.56,0,0,1,3.66,4,2.39,2.39,0,0,1,3.38,3Z"/><path class="cls-3" d="M9.11,7A3.92,3.92,0,0,1,6.73,7a4.52,4.52,0,0,1-2.16-1c.13-.31,1.24-.39,1.79-.15s1.39.23,1.77.38S9,6.72,9.11,7Z"/><path class="cls-2" d="M3.23,5.11s1,.47,1.53.66,2,.6,2,.6,1.42.26,1.9.29,2,.08,2,.08l-2.27,1L6.57,7.56h0l-.15,0v0L4.66,7Z"/><path class="cls-4" d="M1.77,2.2A8.66,8.66,0,0,0,3.23,5.11,6.52,6.52,0,0,0,6.75,7.26a6.36,6.36,0,0,0,4.3-.82,6.82,6.82,0,0,0,2-2.05s-2,4.58-6.49,3.7C2.48,7.29,1.77,2.2,1.77,2.2Z"/><path class="cls-5" d="M7.47,3.66c2.13.43,5.63.73,5.63.73S12,5,7.36,4.07C2,3,1.77,2.2,1.77,2.2S5.29,3.21,7.47,3.66Z"/><path class="cls-6" d="M13.21,4.13c-.16-.25.11-.22.22,0a1.1,1.1,0,0,1,0,.65A6.28,6.28,0,0,0,13.21,4.13Z"/><path class="cls-6" d="M2,2c.28-.1,0-.25-.18-.14s-.27.54-.27.54C1.85,2,1.89,2,2,2Z"/></g></svg>