<svg id="Layer_1" data-name="Layer 1" xmlns="http://www.w3.org/2000/svg" xmlns:xlink="http://www.w3.org/1999/xlink" viewBox="0 0 88.34 19.71"><defs><style>.cls-1{fill:none;}.cls-2{clip-path:url(#clip-path);}.cls-3{fill:#ff6425;}.cls-4{fill:#ffa724;}.cls-5{fill:#fff18b;}.cls-6{fill:#281b17;}.cls-7{fill:#473a3a;}.cls-8{fill:#5e5454;}</style><clipPath id="clip-path"><path class="cls-1" d="M37.56.73S47.77.66,49.81.87c0,0,3.64,4.23.88,7.71s-6.79,6-10,4.49S34.27,5,37.56.73Z"/></clipPath></defs><g class="cls-2"><path class="cls-3" d="M43-4.27a1.8,1.8,0,0,1,.52,1.2c0,.57-1.73,1.6-1.73,2.93s.87,1.51.87,2.87a1,1,0,0,1-.87,1c-.35,0-.74-.22-.74-1.09a1.61,1.61,0,0,1,.74-1.3,2.3,2.3,0,0,0-1.64,2.25c0,1.51,2.1,1.58,2.1,2.85,0,.72-.35,1.05-.92,1.05s-.72-.57-.72-.92.5-.92.5-.92c-.39.18-1.4.37-1.4,1.64s1.49,2.56,4.16,2.56A4.18,4.18,0,0,0,48.14,6.3a2,2,0,0,0-1.4-1.8,2,2,0,0,1,.5,1.25.94.94,0,0,1-.94,1c-.54,0-.88-.47-.88-1.19,0-1.4,1.93-1.81,1.93-3.5A2.21,2.21,0,0,0,46.41.19a2.77,2.77,0,0,1,.24,1.18c0,.41-.37,1-.9,1s-.72-.34-.59-.89.33-.53.52-.92a1.71,1.71,0,0,0,.09-1.37,2.57,2.57,0,0,0-1.26-1.11h0a1.81,1.81,0,0,1,.63,1.36.78.78,0,0,1-.85.81c-.31,0-.79-.13-.79-.87,0-.5.3-.63.48-1.2A2.27,2.27,0,0,0,44.05-3,2.19,2.19,0,0,0,43-4.27Z"/><path class="cls-4" d="M44.56,9.79s2.15-1,2.38-2.76c-.62.48-2.4,1.21-2.38-.87,0-1.86,1.39-1.9,1.35-3a1.28,1.28,0,0,1-1.08.75c0-.64-1.27-1.77-1.27-2.26a1.24,1.24,0,0,1,.2-.74,1,1,0,0,0-.53.93c0,.45.87,1.66.2,2.34a1.43,1.43,0,0,1-2,.11c.21.48.86.8,1.32,1.41a1.72,1.72,0,0,1-.73,2.47,1.12,1.12,0,0,1-1.33-.35,3,3,0,0,0,2.71,2Z"/><path class="cls-5" d="M44.18,9.83s1.34-.65,1.44-1.72A1.33,1.33,0,0,1,44,6.86a2.79,2.79,0,0,1,.18-1.62,2.84,2.84,0,0,0-.52,1.62,2.38,2.38,0,0,1-.32,1.68,1,1,0,0,1-1.1.24,2.1,2.1,0,0,0,1.53,1.06Z"/></g><path class="cls-6" d="M25.87,19c1-.66,10.92-7,11.14-7.1a1.51,1.51,0,0,0-.38-.14l-.43-.5c-.18.05-11,7-12,7.66Z"/><path class="cls-6" d="M60.67,19l1.44-.09c-.73-.53-10.82-7.86-11-7.91l-1.44.26.36.07Z"/><path class="cls-7" d="M52.79,8.8v4.13h-18V8.48a12.39,12.39,0,0,1,3.94-.71A64.37,64.37,0,0,1,50.53,8S52.25,8.1,52.79,8.8Z"/><ellipse class="cls-8" cx="43.78" cy="12.51" rx="9.01" ry="1.79"/><path class="cls-8" d="M35.24,9.16C35,9.16,4,4,2.57,3.6"/><path class="cls-6" d="M35.24,9.62V9.16l0-.46c-.2,0-30.55-5-32.12-5.45L.54,3.68C1.51,3.94,34.68,9.62,35.24,9.62Z"/><path class="cls-8" d="M52,8.72c.29,0,27-4,30.19-4"/><path class="cls-6" d="M52,9.18c.09,0,.38,0,4.14-.58C63.82,7.49,85.39,4.2,87.8,4.17L85,3.64c-2.48,0-21.34,2.94-29,4.05-2.17.31-3.89.56-4,.57Z"/></svg>