<svg id="Layer_1" data-name="Layer 1" xmlns="http://www.w3.org/2000/svg" viewBox="0 0 46.67 48.93"><defs><style>.cls-1,.cls-6{fill:#3e2c13;}.cls-1{stroke:#3e2c13;}.cls-1,.cls-3,.cls-8{stroke-miterlimit:10;}.cls-1,.cls-3{stroke-width:0.25px;}.cls-2{fill:#fff;}.cls-3,.cls-9{fill:#fbd3c7;}.cls-3{stroke:#323232;}.cls-4{fill:#dd9f8f;}.cls-5{fill:#e9d960;}.cls-7{fill:#a77d48;}.cls-8{fill:#ad6327;stroke:#c87929;stroke-width:0.75px;}.cls-10{fill:#323232;}.cls-11{fill:#ef4b3b;}.cls-12{fill:#f59a91;}</style></defs><path class="cls-1" d="M36.46,40.15C34.59,47,29,46.67,18.68,43.32c-.13,0-1.35,2.53-1.48,2.49C7.93,42.7,1.25,41.61,3.08,29.13c1-7.13,11.07-10.51,20.5-7.94S38.35,33.19,36.46,40.15Z"/><path class="cls-1" d="M37,27.48c.21.4,1.73,13.48-3.53,17.21-6.19,4.38-8,1.5-8,1.51Z"/><path class="cls-2" d="M26.55,41s3.11.15,4.29,2.41C29.92,43.74,29,44.24,26.55,41Z"/><path class="cls-3" d="M36.94,30.6c0-.06-.09,0,0,.06s.1,0,.14-.07a3.85,3.85,0,0,1,1.63-1.17,1.51,1.51,0,0,1,1.33,0,1.84,1.84,0,0,1,.5,1.87,6.08,6.08,0,0,1-1.41,3,4.49,4.49,0,0,1-5,1.51"/><path class="cls-4" d="M38.38,31.6a6.45,6.45,0,0,0-.69.47c-.17.14-.36.37-.3.59s.28.25.32.44a.41.41,0,0,1-.32.43c-.18,0-.35,0-.53,0a.82.82,0,0,0-.58.51.79.79,0,0,0-.05.3.46.46,0,0,0,.48.39,1.31,1.31,0,0,0,.62-.27,5.22,5.22,0,0,0,1.22-1C39.08,32.79,39.94,30.68,38.38,31.6Z"/><path class="cls-5" d="M35.3,35s-1.91,2-.89,2.93S36.12,36,36.12,36s-1.2,2.13-1,.55Z"/><path class="cls-3" d="M39.86,24.71c-.17.22-2.38,8.37-3.22,12.25-1,4.54-6.54,9.51-11.91,9.14-6.59-.45-12.29-3.31-14.69-8.69S8.9,25,8.9,25s-4.53-7.74,2.34-13.15,14.61-7.09,24-3.63S39.86,24.71,39.86,24.71Z"/><path class="cls-4" d="M15.08,20.46c.34-.12,8-5.52,8-5.52s-3.85,3.47-2,3.41c.52,0,5.2-1.6,6.88-3.32,0,0-1,2.89-2.64,3.21,0,0,6.56,1.45,9.29-3.42,0,0-1.18,2.62,3.54,5.64,3.66,2.34.86,7,.86,7l2.59-10.27-3.88-5.09L27,9.87l-9.14,1.5-4.13,6.85L8.9,25Z"/><path class="cls-1" d="M38.55,29.26c.3-1.47.7-5.91.06-7.26-1.3-2.72-3.22-3.35-4.31-4.38-.69-.66-.25-3.2-.85-4s0,1,0,0c-.61,1.48-.5,2.51-2,3.13a11.57,11.57,0,0,1-4.41.79,6.74,6.74,0,0,0,2-2.18,13.79,13.79,0,0,0,.76-3.21,17.35,17.35,0,0,1-9.07,5.6,8,8,0,0,0,2.87-4.48,2.71,2.71,0,0,0-1.35.75,50.63,50.63,0,0,1-7.21,5.41c0-.43-.19-.82-.18-1.26C13.54,21,8.61,26,8.66,25.84c0,0-1.36,13.78,9.26,18.78A21.52,21.52,0,0,1,7,43.07c-5.27-2.53-7.95-8.37-4.09-17s1.86-12.47,5-17.55C11.71,2.49,23-4.28,38.1,7.73c0,0,7.41,3.76,2.43,18.06A34.16,34.16,0,0,1,38.55,29.26Z"/><path class="cls-6" d="M33.34,22.29s2.78-.31,3.87,1.83a.09.09,0,0,0,.18,0,2.32,2.32,0,0,0-1.8-2.42C33,20.87,33.34,22.29,33.34,22.29Z"/><path class="cls-6" d="M22.91,20.71s-3-.88-4.7,1c-.07.07-.2,0-.18-.08a2.49,2.49,0,0,1,2.54-2C23.64,19.39,22.91,20.71,22.91,20.71Z"/><path class="cls-7" d="M28.89,29.58a2.87,2.87,0,0,0-.31,2,3.28,3.28,0,0,0,.42.91,2.51,2.51,0,0,1,.5,1,1.38,1.38,0,0,1-.39,1.2,1.75,1.75,0,0,1-1.11.48,3.08,3.08,0,0,1-2.12-.75l.05,0a1.14,1.14,0,0,1-.62-.43.48.48,0,0,1-.09-.37.69.69,0,0,1,.16-.32.5.5,0,0,0,0,.6,1.16,1.16,0,0,0,.57.27h0l0,0a3,3,0,0,0,1.91.5A1.07,1.07,0,0,0,29,33.62a2.24,2.24,0,0,0-.4-.89,2.83,2.83,0,0,1-.37-1.08A2.56,2.56,0,0,1,28.89,29.58Z"/><path class="cls-8" d="M39.92,9.17a18.44,18.44,0,0,0-6.61-2.79C22.06,4.06,10.81,12.53,8.17,25.3c-.05.25-.1.49-.14.74-.38-.17-.77-.32-1.17-.46.06-.36.13-.72.2-1.08C9.7,11.73,21,3.26,32.2,5.58A18.59,18.59,0,0,1,39.92,9.17Z"/><path class="cls-9" d="M8.67,26.39c0-.05.09.07,0,.08s-.11-.07-.13-.13a4.18,4.18,0,0,0-1.28-1.77A2.09,2.09,0,0,0,5.81,24,1.79,1.79,0,0,0,4.44,25.5a5.5,5.5,0,0,0,.26,3.32,5.64,5.64,0,0,0,4.85,3.54"/><path class="cls-10" d="M8.67,26.39s.08.05,0,.08-.09,0-.12,0-.06-.15-.1-.23a3.75,3.75,0,0,0-.24-.44A3.81,3.81,0,0,0,7.63,25,2.54,2.54,0,0,0,6,24.09a1.5,1.5,0,0,0-1.33,1.16,4.86,4.86,0,0,0-.19,1.93,5.7,5.7,0,0,0,5.11,5.18,5.1,5.1,0,0,1-2-.41A6.1,6.1,0,0,1,5.93,30.8a5.77,5.77,0,0,1-1.74-3.59,5,5,0,0,1,.24-2A1.7,1.7,0,0,1,6,23.93a2.62,2.62,0,0,1,1.76,1,4.21,4.21,0,0,1,.58.82c.08.15.15.3.22.46a1.57,1.57,0,0,0,.09.23s.06.06.09.05S8.71,26.35,8.67,26.39Z"/><path class="cls-4" d="M6.66,26.68a6.64,6.64,0,0,1,.55.73c.13.2.24.49.07.66s-.42.11-.54.27,0,.41.17.53.39.14.57.24a.85.85,0,0,1,.41.72.59.59,0,0,1-.07.29.56.56,0,0,1-.7.15,1.6,1.6,0,0,1-.56-.51,5.66,5.66,0,0,1-.89-1.47C5.36,27.46,5.34,25.16,6.66,26.68Z"/><path class="cls-5" d="M8.57,31.11s1.25,2.61-.3,3-1-2.48-1-2.48.39,2.46.87,1Z"/><path class="cls-11" d="M11.3,10.77s-7.87.87-5.1,4.68,7.28,5,7.46-2.72c.12-4.87,1.57-1.3,1.57-1.3S25,8.71,18.08,4.3C11.69.22,13.33,9,13.33,9S11.28,7.65,11.3,10.77Z"/><ellipse class="cls-12" cx="15.37" cy="4.1" rx="0.61" ry="0.71" transform="matrix(0.21, -0.98, 0.98, 0.21, 8.12, 18.25)"/><ellipse class="cls-12" cx="7.93" cy="12.69" rx="0.61" ry="0.71" transform="translate(-6.15 17.76) rotate(-77.79)"/><ellipse class="cls-12" cx="6.84" cy="14.58" rx="0.61" ry="0.71" transform="translate(-8.86 18.17) rotate(-77.79)"/><ellipse class="cls-12" cx="9.92" cy="14.11" rx="0.61" ry="0.71" transform="translate(-5.97 20.82) rotate(-77.79)"/><ellipse class="cls-12" cx="12.17" cy="13.44" rx="0.61" ry="0.71" transform="translate(-3.54 22.49) rotate(-77.79)"/><ellipse class="cls-12" cx="11.62" cy="16.21" rx="0.61" ry="0.71" transform="translate(-6.68 24.13) rotate(-77.79)"/><ellipse class="cls-12" cx="9" cy="16.32" rx="0.61" ry="0.71" transform="translate(-8.86 21.67) rotate(-77.79)"/><ellipse class="cls-12" cx="10.33" cy="12.04" rx="0.61" ry="0.71" transform="matrix(0.21, -0.98, 0.98, 0.21, -3.63, 19.59)"/><ellipse class="cls-12" cx="13.95" cy="6.36" rx="0.61" ry="0.71" transform="translate(4.79 18.65) rotate(-77.79)"/><ellipse class="cls-12" cx="18.83" cy="7.08" rx="0.61" ry="0.71" transform="translate(7.93 23.99) rotate(-77.79)"/><ellipse class="cls-12" cx="17.95" cy="4.89" rx="0.61" ry="0.71" transform="translate(9.37 21.4) rotate(-77.79)"/><ellipse class="cls-12" cx="16.24" cy="6.52" rx="0.61" ry="0.71" transform="translate(6.44 21.01) rotate(-77.79)"/><ellipse class="cls-12" cx="14.84" cy="8.18" rx="0.61" ry="0.71" transform="translate(3.7 20.96) rotate(-77.79)"/><ellipse class="cls-12" cx="17.17" cy="8.85" rx="0.61" ry="0.71" transform="translate(4.89 23.75) rotate(-77.79)"/><ellipse class="cls-12" cx="15.58" cy="9.87" rx="0.61" ry="0.71" transform="translate(2.64 23.01) rotate(-77.79)"/><ellipse class="cls-11" cx="13.29" cy="10.82" rx="1.64" ry="2.19" transform="translate(-3.72 12.95) rotate(-46.3)"/></svg>