<svg id="Layer_1" data-name="Layer 1" xmlns="http://www.w3.org/2000/svg" viewBox="0 0 86.24 41.53"><defs><style>.cls-1{fill:#fad2c6;}.cls-1,.cls-3{stroke:#323232;stroke-miterlimit:10;stroke-width:0.5px;}.cls-2{fill:#e4a58c;}.cls-3{fill:#ffd02a;}</style></defs><polygon class="cls-1" points="57.25 14.86 27.8 28.89 22.31 31.51 17.45 18.82 28.71 15.29 54.39 7.26 57.25 14.86"/><path class="cls-1" d="M56.67,15.14S61.16,15,65,14.7a8.76,8.76,0,0,1,6.64,2.21c.51.41.78-3-1.18-3.93L67,11.34a.58.58,0,0,1-.13-1l7.17-3.69S77.81,5,79.54,2.26c0,0,2.21-2.79-10.57,2.4,0,0-1.91-4.47-6-2.47S53,7.67,53,7.67"/><path class="cls-2" d="M27.82,28.54l-5.51,3L17.45,18.82l11.26-3.53C29.76,19.72,28.6,25.2,27.82,28.54Z"/><path class="cls-3" d="M5.33,23.92S11.58,20.6,14,19.69c2.62-1,11.61-3.29,11.61-3.29l0,.17a32.52,32.52,0,0,1-.42,14.94h0l-21,8.38Z"/></svg>