<svg id="Layer_1" data-name="Layer 1" xmlns="http://www.w3.org/2000/svg" viewBox="0 0 86.24 41.53"><defs><style>.cls-1{fill:#fad2c6;}.cls-1,.cls-3{stroke:#323232;stroke-miterlimit:10;stroke-width:0.5px;}.cls-2{fill:#e4a58c;}.cls-3{fill:#ffd02a;}</style></defs><polygon class="cls-1" points="58.71 20.8 27.76 31.09 21.99 33.02 18.73 19.82 30.34 17.71 56.82 12.9 58.71 20.8"/><path class="cls-1" d="M58.11,21s4.46.45,8.28.59a8.77,8.77,0,0,1,6.33,3c.45.47,1.13-2.84-.69-4.05L68.84,18.5a.58.58,0,0,1,0-1l7.57-2.78s3.92-1.16,6-3.72c0,0,2.54-2.49-10.78,1.09,0,0-1.34-4.68-5.65-3.2s-10.58,4.21-10.58,4.21"/><path class="cls-2" d="M27.83,30.74,22,33l-3.26-13.2,11.61-2.11C30.84,22.23,29,27.53,27.83,30.74Z"/><path class="cls-3" d="M3.93,24s7.35-2.75,10.42-3.47c2.76-.65,12.81-2.07,12.81-2.07l0,.17a32.62,32.62,0,0,1-2.26,14.78h0L3,39.1Z"/></svg>