<svg id="Layer_1" data-name="Layer 1" xmlns="http://www.w3.org/2000/svg" viewBox="0 0 24.25 29.29"><defs><style>.cls-1{fill:#fbd3c7;}.cls-1,.cls-2{stroke:#323232;stroke-miterlimit:10;stroke-width:0.25px;}.cls-2{fill:none;}.cls-3{fill:#dc9e8f;}</style></defs><path class="cls-1" d="M1.53,5.08A7.39,7.39,0,0,0,3,6.38c1.48,3.12,6.8,8.06,8.21,9.07s2.33,2.09,2.14,3.45c-.35,2.56-.61,2.6-.34,3.45s-.78,1.72-.09,1.93,1.69-1,1.69-2.23S15,21,15,21c3.73,3,5.42,7.06,5.93,6.23s-.45-2.37-.45-2.37,1-2.35.78-3.12-1.4-3-4.19-5.43S9.93,6,8.59,3.89C8.22,3.31,8,2.83,7.76,2.45,7.17,1.28,7.07.84,7,1A8.46,8.46,0,0,1,1.53,5.08Z"/><path class="cls-2" d="M20.5,24.82a17.61,17.61,0,0,1-1.32-2.94"/><path class="cls-2" d="M20.76,24a7.88,7.88,0,0,0-.64-2.78"/><path class="cls-2" d="M21.1,23a8.94,8.94,0,0,0-.31-1.54"/><path class="cls-3" d="M1.78,5.15c.36.55.81.71,1.05,1,2.45-.48,4-2.56,4.85-3.54C7.08,1.41,7.1,1,7,1.16A9.88,9.88,0,0,1,1.78,5.15Z"/></svg>