<svg xmlns="http://www.w3.org/2000/svg" viewBox="0 0 99.38 79.59"><defs><style>.cls-1{isolation:isolate;}.cls-2{fill:#5c5548;}.cls-3{fill:#424036;}.cls-4{fill:#fad2c6;stroke:#323232;}.cls-4,.cls-7{stroke-miterlimit:10;stroke-width:0.25px;}.cls-5{fill:#e4a58c;}.cls-6{fill:#421b16;}.cls-7{fill:#311415;stroke:#211e1f;}.cls-8{fill:#90856e;}.cls-9{fill:#605e44;}.cls-10,.cls-13{fill:#9e9580;opacity:0.5;}.cls-10,.cls-12{mix-blend-mode:multiply;}.cls-11,.cls-12{fill:#676254;}.cls-12{opacity:0.4;}.cls-13{mix-blend-mode:screen;}.cls-14{fill:#c28974;}</style></defs><g class="cls-1"><g id="Layer_1" data-name="Layer 1"><path class="cls-2" d="M76.61,29a22.33,22.33,0,0,1,5.62,3.3C85.81,34.92,94,43,94.76,46.45S72.6,48.17,42.92,47.72,1.85,42.92,1.63,41.25s6.85-8.93,15-13S36.36,23.9,50.35,24.1A86.7,86.7,0,0,1,76.61,29Z"/><path class="cls-3" d="M50.36,24.27c-13.54-.19-25.41,0-33.67,4.12-8,4-15.11,11.27-14.9,12.84.14,1,6.83,4.36,27.16,5.76,4.32.29,9,.48,14,.56,7.23.11,14.14.3,20.24.47,17.35.47,29.9.81,31.34-1.08a.53.53,0,0,0,.11-.45c-.76-3.32-8.76-11.34-12.47-14.09a22.36,22.36,0,0,0-5.58-3.27,88,88,0,0,0-22.46-4.7C52.84,24.34,51.58,24.29,50.36,24.27Z"/><path class="cls-4" d="M20.49,36c-.39.85-1.27,2-.23,3.91C25.84,49.92,26,53.11,30.49,65.66,33.86,74.93,45.22,80,53.94,77,64.67,73.17,76.49,65.66,72.55,44.1c-1.74-9.48-1.44-20-3.73-22.88C61.07,11.66,56,14.72,42.61,19.5,30.1,24,25,26.34,20.49,36Z"/><path class="cls-5" d="M26.14,52.61S23.56,34.4,32.9,36c10.17,1.69,13.52-3.07,17.61-2.65,8.94.94,20.21,12.64,22.31,3.48S49.3,20.06,49.3,20.06s-22.46.41-23.87,1.2-6.18,13.09-6.18,13.09Z"/><path class="cls-6" d="M32.07,42.81a.68.68,0,0,0,.52-1.06l-.11-.17c-.61-.93-2-.73-2.8-.3-1.14.65-2.81,1.49-3.27,5.08,0,.29.34.52.47.28C27.66,45.22,29.6,43,32.07,42.81Z"/><path class="cls-6" d="M48.38,37.76a.69.69,0,0,1-1.09-.47l0-.2C47.13,36,48.36,35.2,49.21,35c1.28-.24,3.1-.69,5.78,1.75.22.2.08.62-.18.52C53.29,36.73,50.38,36.29,48.38,37.76Z"/><path class="cls-7" d="M29.6,29.81s4.11,10.81,20.82,0c0,0-20.7.15-1.21-7.77,0,0-1.84,7.36,10.41.86,0,0-7.27,10.39,9.82,16.72,0,0,2.82,0,4.13,6.63.09.48.18,1,.26,1.54,1.15,8.2-.17-1.06-.17-1.06s6.85-3.72,4-12.21c0,0,3.85-8-3.09-14,0,0,.29-11.44-12.33-9.88,0,0-6.33-9.37-13.39-6.62,0,0-12.85-4.53-17.88,7,0,0-9-.09-11.15,11.29,0,0-6.09,6.36-2.06,12.38,0,0-4.8,5.49,2.4,8.85,0,0-3.32,5.71,3.83,7.93l3.49,5.69-1.39-4.47a21.61,21.61,0,0,1,3.07-22.34Z"/><path class="cls-8" d="M16.63,28.24c8.13-4.08,19.73-4.34,33.72-4.14A86.7,86.7,0,0,1,76.61,29a22.33,22.33,0,0,1,5.62,3.3C85.81,34.92,94,43,94.76,46.45c-.82-2.27-11.71-11.81-50.92-12.73C18.24,33.12,6,37.37,1.78,40.59,2.82,38.17,9.29,31.92,16.63,28.24Z"/><path class="cls-9" d="M1.68,40.72a.17.17,0,0,1-.05-.2C2.72,38,9.23,31.77,16.55,28.09c8.33-4.17,20.24-4.35,33.81-4.15,1.23,0,2.5.07,3.77.16a88.12,88.12,0,0,1,22.53,4.71,22.07,22.07,0,0,1,5.66,3.32c3.34,2.47,11.76,10.63,12.59,14.28a.17.17,0,0,1-.1.2.16.16,0,0,1-.2-.1c-.74-2-9.81-10-40.76-12.17-3.19-.21-6.55-.37-10-.45-29.7-.7-39.63,5.06-42,6.84a.19.19,0,0,1-.1,0A.15.15,0,0,1,1.68,40.72Z"/><path class="cls-10" d="M77.84,35.21c-2.32-3.58-6.44-6-10-7.8a46.12,46.12,0,0,0-4.52-2A84.76,84.76,0,0,1,76.61,29a22.33,22.33,0,0,1,5.62,3.3C85.81,34.92,94,43,94.76,46.45c-.5-1.38-4.7-5.43-16.66-8.6A2.79,2.79,0,0,0,77.84,35.21Z"/><path class="cls-10" d="M31.28,25.06a55,55,0,0,0-9,3.61c-2.18,1.12-4.77,3-4.61,6a4.29,4.29,0,0,0,.06.53c-8.57,1.42-13.58,3.58-16,5.41,1-2.42,7.51-8.67,14.85-12.35,4.89-2.46,11-3.52,18.22-3.95A28.7,28.7,0,0,0,31.28,25.06Z"/><path class="cls-8" d="M81.64,30.34S83.41,17.47,68.7,7.61c-15.94-10.67-34.48-3.85-40-.07s-11.06,11.72-12,19.25c0,0,21.36-3,31.35-2.52S75.86,27.09,81.64,30.34Z"/><path class="cls-9" d="M81.51,30.08c.13-1.8.47-13.38-12.9-22.32A33.51,33.51,0,0,0,52,2.14C41.91,1.45,32.6,5.08,28.79,7.68,23.65,11.2,17.94,18.8,16.88,26.59c2.22-.3,21.81-2.95,31.18-2.48.73,0,1.51.08,2.32.14C59.77,24.9,75.7,27,81.51,30.08Z"/><path class="cls-10" d="M25.82,19.34c1.82,2.84,5,3.94,7.84,4.66,1,.25,2,.44,3,.61C27,25.34,16.7,26.79,16.7,26.79c.87-7,5.67-14.27,10.76-18.33C25.14,11.4,23.58,15.82,25.82,19.34Z"/><path class="cls-10" d="M60.43,23.88c3.68-.64,7.72-1.52,10.93-3.85,2.79-2,3.8-4.49,3.65-7,7.84,8.6,6.63,17.35,6.63,17.35-4.73-2.66-17.54-4.7-27.51-5.62C56.25,24.52,58.35,24.25,60.43,23.88Z"/><path class="cls-11" d="M48.26,22.28c-8.06-.46-29.64,1.7-31.83,3.11a13.34,13.34,0,0,0-.21,3.2c.23.53,10.44-3.22,29.81-2.62,25.47.8,35.08,6,35.73,6.19s.38-2.93.09-3.4S71.71,23.61,48.26,22.28Z"/><path class="cls-3" d="M16.08,28.65a11.86,11.86,0,0,1,.2-3.29v-.07l.07,0c2.23-1.45,24-3.59,31.92-3.14C72,23.46,81.71,28.22,82,28.67a6.25,6.25,0,0,1,.14,3.43.38.38,0,0,1-.35.23h-.06c-.08,0-.22-.08-.51-.2-8.51-3.64-20.12-5.07-28.36-5.64-2.2-.15-4.5-.27-6.83-.34a111.24,111.24,0,0,0-27.56,2.31,12.91,12.91,0,0,1-2.12.35A.26.26,0,0,1,16.08,28.65Z"/><path class="cls-12" d="M16.43,25.39c1.24-.8,8.7-1.84,16.4-2.51-.25.08-.52.14-.8.2-7.49,1.58-2.17,2.36,3.57,1.89a113.31,113.31,0,0,1,20.51.17c8.76.77,11.57-.83,4.53-1.66a10.36,10.36,0,0,1-1.4-.25c15.59,1.88,22.38,5.14,22.61,5.53s.56,3.55-.09,3.4S71.5,26.77,46,26c-19.37-.6-29.58,3.15-29.81,2.62A13.34,13.34,0,0,1,16.43,25.39Z"/><path class="cls-13" d="M74.07,35.58S58.13,30.66,21.3,33.36C21.3,33.36,50.35,28.2,74.07,35.58Z"/><path class="cls-4" d="M71.44,50.19c-.13-5,1.49-7.49,4.18-7.76,2.92-.29,4.22,1.61,4.48,5.74.34,5.29-4.84,9.75-8.51,9"/><path class="cls-5" d="M77.86,47s.44-3-2.63-2.13-1,4.67-1.7,6.44-2.43,3.66-1,3.88S78.22,53.29,77.86,47Z"/><path class="cls-14" d="M41.37,58.15a3.78,3.78,0,0,0,.45,2.14,1.67,1.67,0,0,0,1.84.48,3.2,3.2,0,0,0,1.84-1,4.18,4.18,0,0,0,.92-2A3.48,3.48,0,0,1,45.8,60a3.24,3.24,0,0,1-2,1.27,2.88,2.88,0,0,1-1.24,0,1.52,1.52,0,0,1-1-.77A3.08,3.08,0,0,1,41.37,58.15Z"/></g></g></svg>