<svg id="Layer_1" data-name="Layer 1" xmlns="http://www.w3.org/2000/svg" viewBox="0 0 80.93 83.96"><defs><style>.cls-1,.cls-6{fill:#3e2c13;}.cls-1{stroke:#3e2c13;stroke-width:0.25px;}.cls-1,.cls-3,.cls-8{stroke-miterlimit:10;}.cls-2{fill:#fff;}.cls-3,.cls-9{fill:#fbd3c7;}.cls-3{stroke:#323232;stroke-width:0.5px;}.cls-4{fill:#dd9f8f;}.cls-5{fill:#e9d960;}.cls-7{fill:#a77d48;}.cls-8{fill:#ad6327;stroke:#c87929;stroke-width:0.75px;}.cls-10{fill:#323232;}.cls-11{fill:#ef4b3b;}.cls-12{fill:#f59a91;}</style></defs><path class="cls-1" d="M63.37,69.5c-2.34,8.81-8.58,11.58-19.22,11-.53,0,.11-4.3-.45-4.3-3.05,0-7.63-2.45-11.46-2.18-.77,0-1.2,5.7-1.92,5.47-16.11-5.28-28-7.06-25-28.73,1.73-12.38,19.08-18.36,35.46-14S66.57,57.42,63.37,69.5Z"/><path class="cls-1" d="M64.09,47.52c.36.7,3.49,23.86-5.92,29.9a19.3,19.3,0,0,1-13.79,3.19c-.14,0-1.91-3.49-1.93-3.49Z"/><path class="cls-2" d="M46.18,71s5.4.23,7.48,4.13C52.07,75.82,50.47,76.69,46.18,71Z"/><path class="cls-3" d="M64.08,52.94c0-.11-.16.06-.07.1s.18,0,.25-.12a6.7,6.7,0,0,1,2.81-2.05,2.64,2.64,0,0,1,2.31,0c1,.62,1.08,2.05.89,3.24a10.56,10.56,0,0,1-2.41,5.17C65.7,61.86,62.13,63.25,59.2,62"/><path class="cls-4" d="M66.59,54.65a8.57,8.57,0,0,0-1.19.84c-.3.24-.63.64-.5,1s.48.43.55.76a.7.7,0,0,1-.55.74c-.31.07-.61,0-.92,0a1.42,1.42,0,0,0-1,.9,1.11,1.11,0,0,0-.07.51.77.77,0,0,0,.82.68,2.16,2.16,0,0,0,1.08-.47,9.48,9.48,0,0,0,2.1-1.82C67.83,56.72,69.29,53,66.59,54.65Z"/><path class="cls-5" d="M61.28,60.58S58,64,59.78,65.67s2.95-3.32,2.95-3.32-2,3.71-1.75,1Z"/><path class="cls-3" d="M69.07,42.69c-.29.38-4,14.55-5.43,21.28C62,71.86,52.41,80.54,43.08,80c-11.43-.7-21.35-5.6-25.58-14.91s-2.12-21.51-2.12-21.51-8-13.37,3.89-22.83,25.26-12.48,41.59-6.6S69.07,42.69,69.07,42.69Z"/><path class="cls-4" d="M26,35.61c.59-.21,13.75-9.67,13.75-9.67S33.17,32,36.4,31.88c.9,0,9-2.83,11.9-5.84,0,0-1.69,5-4.55,5.6,0,0,11.4,2.44,16.09-6,0,0-2,4.55,6.19,9.73,6.38,4,1.6,12.08,1.6,12.08L72,29.57l-6.8-8.78L46.65,17.1,30.83,19.82,23.75,31.75,15.38,43.56Z"/><path class="cls-1" d="M66.86,50.59C67.36,48,68,40.34,66.87,38c-2.28-4.7-5.63-5.77-7.52-7.54-1.22-1.14-.49-5.55-1.52-6.85s0,1.77,0,0c-1,2.57-.85,4.37-3.4,5.46a20.21,20.21,0,0,1-7.64,1.42,11.76,11.76,0,0,0,3.46-3.81c.84-1.71.88-3.7,1.27-5.57a30.07,30.07,0,0,1-15.66,9.83,13.92,13.92,0,0,0,4.92-7.81,4.62,4.62,0,0,0-2.33,1.31A88.38,88.38,0,0,1,26,33.93c0-.76-.33-1.44-.32-2.2C23.37,36.63,14.89,45.32,15,45,15,45,9.55,70.17,28,78.71a36.73,36.73,0,0,1-15.73-3.78C3.13,70.62-1.59,60.52,5,45.53S8.08,23.88,13.51,15c6.46-10.53,26-22.41,52.3-1.76,0,0,12.9,6.43,4.45,31.3C70.26,44.56,66.7,51.41,66.86,50.59Z"/><path class="cls-6" d="M57.74,38.57s4.81-.57,6.74,3.12a.16.16,0,0,0,.3-.06,4,4,0,0,0-3.15-4.18C57.1,36.1,57.74,38.57,57.74,38.57Z"/><path class="cls-6" d="M39.63,36s-5.21-1.48-8.14,1.78c-.12.13-.35,0-.32-.13.2-1.07,1-3.21,4.39-3.49C40.87,33.65,39.63,36,39.63,36Z"/><path class="cls-7" d="M50.11,51.27a4.81,4.81,0,0,0-.45,3.48,5,5,0,0,0,.73,1.55l.53.81a3.32,3.32,0,0,1,.36,1,2.44,2.44,0,0,1-.67,2.13,3.19,3.19,0,0,1-2,.87,5.3,5.3,0,0,1-3.71-1.3l.09,0a2.15,2.15,0,0,1-1.09-.76.92.92,0,0,1-.15-.66,1.25,1.25,0,0,1,.29-.56,1.21,1.21,0,0,0-.13.57.67.67,0,0,0,.22.47,2,2,0,0,0,1,.43h0l.06,0a5.42,5.42,0,0,0,3.3.81,2.37,2.37,0,0,0,1.37-.64,1.52,1.52,0,0,0,.41-1.29,2.34,2.34,0,0,0-.23-.74c-.12-.23-.26-.47-.44-.78A4.88,4.88,0,0,1,49,54.88,4.41,4.41,0,0,1,50.11,51.27Z"/><path class="cls-8" d="M69,15.72A32,32,0,0,0,57.49,11C38,7.09,18.53,21.92,14.12,44.1c-.09.43-.17.85-.24,1.28-.66-.28-1.34-.54-2-.77.1-.63.21-1.26.34-1.89C16.6,20.54,36,5.71,55.55,9.6A32.33,32.33,0,0,1,69,15.72Z"/><path class="cls-9" d="M15,46c0-.09.15.13,0,.14s-.18-.12-.22-.22a7.38,7.38,0,0,0-2.25-3.06A3.64,3.64,0,0,0,10,41.9a3.1,3.1,0,0,0-2.35,2.59,9.41,9.41,0,0,0,.49,5.75,9.8,9.8,0,0,0,8.46,6.09"/><path class="cls-10" d="M15,46c.06-.07.14.09.07.13a.17.17,0,0,1-.2-.07,3.62,3.62,0,0,1-.19-.4,5.52,5.52,0,0,0-.42-.75,7.31,7.31,0,0,0-1.08-1.33,4.36,4.36,0,0,0-2.9-1.48,2.61,2.61,0,0,0-2.26,2,8.47,8.47,0,0,0-.32,3.33,9.88,9.88,0,0,0,2.84,6,9.5,9.5,0,0,0,6.07,2.9,8.72,8.72,0,0,1-3.41-.68,10.27,10.27,0,0,1-2.93-1.95A10,10,0,0,1,7.2,47.45a8.84,8.84,0,0,1,.38-3.53,4.1,4.1,0,0,1,1-1.54,2.45,2.45,0,0,1,1.72-.69,4.64,4.64,0,0,1,3.07,1.7,7.46,7.46,0,0,1,1,1.43,8.25,8.25,0,0,1,.37.8,2.78,2.78,0,0,0,.16.4.15.15,0,0,0,.16.08C15.11,46.08,15.05,45.92,15,46Z"/><path class="cls-4" d="M11.51,46.5a10.84,10.84,0,0,1,1,1.27c.23.35.42.85.13,1.15s-.72.19-.93.47,0,.72.3.91.68.24,1,.42A1.42,1.42,0,0,1,13.68,52a1,1,0,0,1-.12.5,1,1,0,0,1-1.2.28,2.81,2.81,0,0,1-1-.89,9.93,9.93,0,0,1-1.56-2.54C9.27,47.88,9.19,43.89,11.51,46.5Z"/><path class="cls-5" d="M14.88,54.16s2.19,4.52-.48,5.3-1.86-4.28-1.86-4.28.71,4.26,1.53,1.62Z"/><path class="cls-11" d="M19.36,18.85S5.72,20.47,10.57,27s12.69,8.64,12.91-4.8c.14-8.45,2.71-2.28,2.71-2.28S43.09,15.12,31,7.55c-11.13-7-8.17,8.2-8.17,8.2S19.29,13.44,19.36,18.85Z"/><ellipse class="cls-12" cx="26.35" cy="7.23" rx="1.06" ry="1.23" transform="translate(13.88 31.54) rotate(-78.19)"/><ellipse class="cls-12" cx="13.55" cy="22.23" rx="1.06" ry="1.23" transform="translate(-10.99 30.95) rotate(-78.19)"/><ellipse class="cls-12" cx="11.67" cy="25.51" rx="1.06" ry="1.23" transform="translate(-15.69 31.71) rotate(-78.19)"/><ellipse class="cls-12" cx="17.01" cy="24.66" rx="1.06" ry="1.23" transform="translate(-10.61 36.26) rotate(-78.19)"/><ellipse class="cls-12" cx="20.9" cy="23.47" rx="1.06" ry="1.23" transform="translate(-6.35 39.12) rotate(-78.19)"/><ellipse class="cls-12" cx="19.98" cy="28.28" rx="1.06" ry="1.23" transform="translate(-11.79 42.05) rotate(-78.19)"/><ellipse class="cls-12" cx="15.44" cy="28.52" rx="1.06" ry="1.23" transform="translate(-15.63 37.8) rotate(-78.19)"/><ellipse class="cls-12" cx="17.69" cy="21.08" rx="1.06" ry="1.23" transform="translate(-6.56 34.08) rotate(-78.19)"/><ellipse class="cls-12" cx="23.91" cy="11.17" rx="1.06" ry="1.23" transform="translate(8.09 32.29) rotate(-78.19)"/><ellipse class="cls-12" cx="32.39" cy="12.36" rx="1.06" ry="1.23" transform="translate(13.66 41.53) rotate(-78.19)"/><ellipse class="cls-12" cx="30.83" cy="8.58" rx="1.06" ry="1.23" transform="translate(16.12 37) rotate(-78.19)"/><ellipse class="cls-12" cx="27.89" cy="11.42" rx="1.06" ry="1.23" transform="translate(11 36.38) rotate(-78.19)"/><ellipse class="cls-12" cx="25.47" cy="14.32" rx="1.06" ry="1.23" transform="translate(6.24 36.33) rotate(-78.19)"/><ellipse class="cls-12" cx="29.52" cy="15.45" rx="1.06" ry="1.23" transform="translate(8.36 41.18) rotate(-78.19)"/><ellipse class="cls-12" cx="26.77" cy="17.24" rx="1.06" ry="1.23" transform="translate(4.42 39.92) rotate(-78.19)"/><ellipse class="cls-11" cx="22.81" cy="18.92" rx="2.84" ry="3.8" transform="translate(-6.6 22.55) rotate(-46.7)"/></svg>