<svg id="Layer_1" data-name="Layer 1" xmlns="http://www.w3.org/2000/svg" xmlns:xlink="http://www.w3.org/1999/xlink" viewBox="0 0 110 23"><defs><style>.cls-1{fill:none;}.cls-2{clip-path:url(#clip-path);}.cls-3{fill:#eb652f;}.cls-4{fill:#f6a42c;}.cls-5{fill:#fff18b;}.cls-6{fill:#281b17;}.cls-7{fill:#473a3a;}.cls-8{fill:#5e5454;}</style><clipPath id="clip-path"><path class="cls-1" d="M44.37.82S60.77.71,64.06,1c0,0,5.85,6.81,1.42,12.39S54.57,23,49.32,20.64,39.09,7.65,44.37.82Z"/></clipPath></defs><g class="cls-2"><path class="cls-3" d="M55.35,15.45c-3.53,0-8.65-2.32-8.65-7.66,0-4.57,2.74-5.64,2.74-5.64A6.18,6.18,0,0,0,48.51,4a3.77,3.77,0,0,0,0,3.12A2.29,2.29,0,0,0,50.57,8.3a2.4,2.4,0,0,0,1.7-1.84c.5-2.07-2.1-2.89-2.08-5.07,0-2.88,4.13-4.89,4.13-7A2.85,2.85,0,0,0,54-7.22a2.22,2.22,0,0,1,1.54,1.9C55.5-3.64,54-1.85,54-.17s1.1,1.75,1.54,1.75c.67,0,1.79-.57,1.79-2.52A3,3,0,0,0,56-3.6s3.81.8,3.81,3.92a7.4,7.4,0,0,1-.33,2.14c-.65,2.05-1.77,2.43-1.67,3.81A2.26,2.26,0,0,0,58.66,8a1.48,1.48,0,0,0,.7.19c.7,0,1.52-.87,1.52-2.32a2.86,2.86,0,0,0-1-2.19c.5.23,2.56.85,2.56,5.12S57.94,15.45,55.35,15.45Z"/><path class="cls-4" d="M55.35,15.45c-3,0-5.41-3.25-5.86-4.75,1.15,1.17,3.34,1.29,3.77-1.23a6.53,6.53,0,0,1,3.71-5c-1.74,2.12-1.94,5.62.38,6.24,2,.54,3.83-2,3.83-2C60.22,12.81,57.54,15.45,55.35,15.45Z"/><path class="cls-5" d="M55.35,15.45c-.32.15-4.21-2-.48-5.86-.64,2.06.1,3.27.94,3.76A3.5,3.5,0,0,0,58,11.65,4.24,4.24,0,0,1,55.35,15.45Z"/></g><path class="cls-6" d="M75.93,22.12c-1.36-.89-12.56-6.56-12.87-6.72a2.79,2.79,0,0,1,.54-.2l.6-.67c.26.07,12.56,6.59,13.87,7.45Z"/><path class="cls-6" d="M32.46,22.2l-2-.12c1-.71,12.47-7.88,12.76-7.95l2,.35-.51.09C44.42,14.76,33.58,21.44,32.46,22.2Z"/><path class="cls-7" d="M40.77,9.14v5.54H66.22v-6a17.89,17.89,0,0,0-5.56-.94A94.2,94.2,0,0,0,44,8.06S41.53,8.2,40.77,9.14Z"/><ellipse class="cls-8" cx="53.5" cy="14.13" rx="12.72" ry="2.4"/><path class="cls-8" d="M65.56,11.73c.41,0,40.49-5.92,42.48-6.43"/><path class="cls-6" d="M65.56,12.34v-.61l0-.62c.28,0,39.16-5.68,41.38-6.24l2.7.6C108.22,5.82,66.35,12.34,65.56,12.34Z"/><path class="cls-6" d="M41.89,11.76c-.12,0-.53-.06-5.84-.78C25.21,9.49,3.82,4.91.41,4.87l3.33-.72c3.5,0,21.63,4.12,32.49,5.61l5.7.77Z"/></svg>