<svg id="Layer_1" data-name="Layer 1" xmlns="http://www.w3.org/2000/svg" viewBox="0 0 26.51 19.91"><defs><style>.cls-1{fill:#551514;}.cls-2{fill:#d72b5d;}.cls-3{fill:#fff;}.cls-4{fill:#bb7757;}.cls-5{fill:#dc9e8f;}</style></defs><g id="S"><path class="cls-1" d="M2.8,13s4.65-.72,5.9-.9a21.49,21.49,0,0,0,5.68-2.22,32.85,32.85,0,0,0,5-2.77c.49-.49,5-4.5,5-4.5s-.21,3.56-.26,4.93a11.8,11.8,0,0,1-.66,2.76,8.7,8.7,0,0,1-3.12,4.59,22.06,22.06,0,0,1-7.48,3.47c-.6.14-5.57-1.73-6.33-2.22S2.8,13,2.8,13Z"/><path class="cls-2" d="M10.57,14.84A7.22,7.22,0,0,1,13.52,13a35.67,35.67,0,0,1,4.31-1.64,6.1,6.1,0,0,1,.82-.28l.61-.13c.15,0,.56.28.56.28.72.38.37,1.49,0,1.9a7.13,7.13,0,0,1-2.61,1.48,30.16,30.16,0,0,1-4.64,1.86c-.49.14-1.36.64-1.86.33A1.27,1.27,0,0,1,10.57,14.84Z"/><path class="cls-3" d="M6.32,13.19l8-2.95L21.76,6a9.57,9.57,0,0,1-.24,1.81,8.74,8.74,0,0,1-1.91,2.58,27.82,27.82,0,0,1-8.91,4.06,4.9,4.9,0,0,1-3.32-.55C7.09,13.66,6.32,13.19,6.32,13.19Z"/><path class="cls-3" d="M9.49,17.78a6.27,6.27,0,0,1,.83-1.49c1-1,3.13-.75,5.37-1.8s3.69-2.56,5.09-2.57a7,7,0,0,1,1.54.38l-1.13,2.09-4.45,3.09-4.38.5Z"/><path class="cls-4" d="M2.52,12.72A25.49,25.49,0,0,0,8.32,16a11.85,11.85,0,0,0,8.23-.44,12.63,12.63,0,0,0,5.16-4.79C22.86,9,24.18,4.21,24.45,2a3.43,3.43,0,0,1,.17.44,22.15,22.15,0,0,1-1.15,7.94,12.18,12.18,0,0,1-6.08,7.27,9.85,9.85,0,0,1-9.53-.5,17.89,17.89,0,0,1-5.17-4S2.52,12.72,2.52,12.72Z"/><path class="cls-4" d="M2.42,12.45c1.26.37,4.11-.12,5.9-.43C11,11.57,17.1,8.43,19.08,7c1.53-1.1,4.75-3.71,5.37-5a4.86,4.86,0,0,1-.08.55A18.12,18.12,0,0,1,20.46,7.5a32.42,32.42,0,0,1-6.07,3.83,31.27,31.27,0,0,1-6.7,2.13,10,10,0,0,1-5.13-.65S2.42,12.45,2.42,12.45Z"/><path class="cls-5" d="M24.64,1c-.59-.3-.05-.61.42-.3s.73,1.38.73,1.38A12.84,12.84,0,0,0,24.64,1Z"/><path class="cls-5" d="M1.31,12c.38-.59-.22-.57-.5,0S1,13.4,1,13.4C1.12,12.24,1.18,12.16,1.31,12Z"/></g></svg>