<svg id="Layer_1" data-name="Layer 1" xmlns="http://www.w3.org/2000/svg" viewBox="0 0 32 20"><defs><style>.cls-1{fill:#8c3e36;}.cls-2{fill:#fff;}.cls-3{fill:#d26653;}.cls-4{fill:#f5968e;}.cls-5{fill:#f48678;}.cls-6{fill:#e9a597;opacity:0.5;}</style></defs><g id="EE"><path class="cls-1" d="M30.51,2.65s-4.68,1.79-5.66,2.11A43.24,43.24,0,0,1,20.68,6c-2.43.55-4.85,1.15-7.27,1.7a21,21,0,0,1-3.59.52,12.83,12.83,0,0,0-3.19.43,7.87,7.87,0,0,0-1.81.76L1.91,9.18a10.22,10.22,0,0,0,2.63,3.31c.62.54,1.78,1.34,2.4,1.89,2.22,1.95,5.44,1.65,8.84,1.3a20.64,20.64,0,0,0,5.57-1.47,11.34,11.34,0,0,0,3.38-1.66c.34-.33.56-.29.84-.64.44-.54,1.65-1.21,1.93-1.85s1-1.44,1.38-2.2C29.4,6.79,30.51,2.65,30.51,2.65Z"/><path class="cls-2" d="M26.5,4.81s-2.7.29-2.88.29-7.45,2-7.45,2S8.72,8.46,8.56,8.54s-3.12.92-3.12.92a18.17,18.17,0,0,0,1.71,1.71c.69.37,5.41.43,9.88-.55,4.65-1,8.42-2.73,8.83-3.25A5.78,5.78,0,0,0,26.5,4.81Z"/><path class="cls-3" d="M12.27,15.57c1.54.51,2.8.54,6.05-.2a11.65,11.65,0,0,0,5.42-2.63c-.37-.77-3.2-.87-4.58-.23s-3.5.71-4.45,1.13S12.46,14.75,12.27,15.57Z"/><path class="cls-2" d="M27.05,10.16S24.6,11.45,23.24,12s-5.09,1.7-5.09,1.7-3.6.78-4.82.89c-1.47.14-5,.37-5,.37l5.84,2.43,4.63-.69h0l.38-.06,0-.06,4.44-1.44Z"/><path class="cls-4" d="M30.51,2.65a22.05,22.05,0,0,1-3.46,7.51,16.58,16.58,0,0,1-8.75,5.77,16.31,16.31,0,0,1-11-1.72,17.47,17.47,0,0,1-5.38-5S7.28,20.65,18.71,18C29.16,15.65,30.51,2.65,30.51,2.65Z"/><path class="cls-5" d="M16.15,6.83C10.79,8.12,1.91,9.18,1.91,9.18s2.78,1.39,14.55-1.3C30,4.79,30.51,2.65,30.51,2.65S21.66,5.51,16.15,6.83Z"/><path class="cls-6" d="M1.62,8.53c.37-.65-.32-.55-.57,0a2.88,2.88,0,0,0,.16,1.65A15.32,15.32,0,0,1,1.62,8.53Z"/><path class="cls-6" d="M30,2.08c-.71-.24-.14-.63.44-.37s.74,1.34.74,1.34C30.3,2.18,30.19,2.15,30,2.08Z"/></g></svg>