<svg id="Layer_1" data-name="Layer 1" xmlns="http://www.w3.org/2000/svg" xmlns:xlink="http://www.w3.org/1999/xlink" viewBox="0 0 115.84 25.12"><defs><style>.cls-1{fill:none;}.cls-2{clip-path:url(#clip-path);}.cls-3{fill:#eb652f;}.cls-4{fill:#f6a42c;}.cls-5{fill:#fff18b;}.cls-6{fill:#281b17;}.cls-7{fill:#473a3a;}.cls-8{fill:#5e5454;}</style><clipPath id="clip-path"><path class="cls-1" d="M46.52,1.21s17-.12,20.37.22c0,0,6,7.05,1.47,12.82s-11.29,9.93-16.72,7.47S41.06,8.28,46.52,1.21Z"/></clipPath></defs><g class="cls-2"><path class="cls-3" d="M57.28,16.35c-2.79,0-6.91-1.53-6.91-5.88S53,4.91,53,4.91a4,4,0,0,0-.67,2,6.22,6.22,0,0,1,3.86-3.27C58.61,3,60.29,2.79,61.28.86a2.85,2.85,0,0,1-1,2.7C60.7,3.48,64.09,2,63.7-1.2A3.89,3.89,0,0,1,64.09,2a5.32,5.32,0,0,1-4.43,3.64c-2.45.46-4.17,2-4.17,3.76a1.67,1.67,0,0,0,1.79,1.63A1.54,1.54,0,0,0,59,9.37c0-1.29-1.5-1.89-1.5-1.89a4.14,4.14,0,0,1,3.75.77C61,7.62,59.84,7,59.84,7a3.87,3.87,0,0,1,3.32,4C63.16,14.13,59.91,16.35,57.28,16.35Z"/><path class="cls-3" d="M56.67-7.11c.74.29,2.36,1.44,2.5,2.79s-.7,2.81-.5,3.54A2.32,2.32,0,0,0,60,.91,4.73,4.73,0,0,1,56.92,2.5c-2.39.44-2.53-.9-2.34-1.88C55.1-2,57.53-2,57.63-4.49A2.84,2.84,0,0,0,56.67-7.11Z"/><path class="cls-3" d="M55-2.1c-3.32,3.35-1,5.18-1,5.18-.88,0-2.9-.56-2.22-2.86C52.48-1.88,55-2.1,55-2.1Z"/><path class="cls-3" d="M61.88,6.59a4.55,4.55,0,0,1,2.45,2.89,4.84,4.84,0,0,1-1.24,5c.92-.28,2.54-1,2.54-4.06A4.09,4.09,0,0,0,61.88,6.59Z"/><path class="cls-3" d="M49.66,8.9c-1,3.16.21,5.64,2.52,6.59-1.68-.34-2.94-.84-3.42-2.26A4.9,4.9,0,0,1,49.66,8.9Z"/><path class="cls-4" d="M57.28,16.35c-1.49,0-5.1-1.26-5.39-5.84,1,2.72,2.63,3.1,2.63,3.1a4.12,4.12,0,0,1-.43-4.71,3.44,3.44,0,0,0,3.19,3.72,2.74,2.74,0,0,0,2.47-2.78,3.56,3.56,0,0,1-.54,3.91,6.08,6.08,0,0,0,2.67-2.2C62,14,58.77,16.35,57.28,16.35Z"/><path class="cls-5" d="M57.28,16.35a3.81,3.81,0,0,1-2.38-1.59c.72.38,1.46-.65,1.1-1.51a2.81,2.81,0,0,0,3.3,1.06C59.21,15.35,58.09,16.08,57.28,16.35Z"/><path class="cls-4" d="M55.91,1.42c-.82.29-.82-1.71.75-3C56.66-.61,56.75,1.12,55.91,1.42Z"/></g><path class="cls-6" d="M79.24,23.94c-1.41-.93-12.79-7.43-13.11-7.61a3.41,3.41,0,0,1,.55-.2l.63-.69c.27.06,12.79,7.46,14.16,8.36Z"/><path class="cls-6" d="M34.18,23.89l-2.12-.12C33.14,23,45.18,15.09,45.47,15l2.11.36-.53.1C46.76,15.67,35.34,23.1,34.18,23.89Z"/><path class="cls-7" d="M43,9.84V15.6H69.41V9.39a18.92,18.92,0,0,0-5.78-1,97.72,97.72,0,0,0-17.33.3S43.77,8.86,43,9.84Z"/><ellipse class="cls-8" cx="56.19" cy="15.02" rx="13.22" ry="2.5"/><path class="cls-6" d="M68.72,13.16v-.64l0-.63c.29,0,41-6.28,43.29-6.86l2.8.62C113.34,6,69.55,13.16,68.72,13.16Z"/><path class="cls-6" d="M44.14,12.55c-.13,0-.56-.05-6.08-.81C26.8,10.2,4.62,5.32,1.08,5.27l3.46-.74c3.63,0,22.43,4.4,33.72,6l5.92.8Z"/></svg>