<svg id="Layer_1" data-name="Layer 1" xmlns="http://www.w3.org/2000/svg" xmlns:xlink="http://www.w3.org/1999/xlink" viewBox="0 0 200 60"><defs><style>.cls-1{fill:none;}.cls-2{clip-path:url(#clip-path);}.cls-3{fill:#eb652f;}.cls-4{fill:#f6a42c;}.cls-5{fill:#fff18b;}.cls-6{fill:#281b17;}.cls-7{fill:#473a3a;}.cls-8{fill:#5e5454;}</style><clipPath id="clip-path"><path class="cls-1" d="M84.77,11s21.79-.09,26.15.18c0,0,7.77,5.58,1.88,10.15s-14.49,7.86-21.46,5.91S77.76,16.63,84.77,11Z"/></clipPath></defs><g class="cls-2"><path class="cls-3" d="M98.59,23c-3.59,0-8.88-1.21-8.88-4.66A4.7,4.7,0,0,1,93.05,14a2.4,2.4,0,0,0-.86,1.59,8,8,0,0,1,5-2.6c3.15-.52,5.31-.67,6.57-2.2.46.74-.63,1.92-1.26,2.13.52-.05,4.87-1.21,4.38-3.77a2.1,2.1,0,0,1,.49,2.56c-.26.47-1.24,2.36-5.68,2.88-3.14.37-5.36,1.58-5.36,3,0,.57.72,1.29,2.31,1.29s2.16-.65,2.16-1.33c0-1-1.93-1.5-1.93-1.5a8.06,8.06,0,0,1,4.81.61c-.26-.5-1.76-1-1.76-1,.92,0,4.26.71,4.26,3.18S102,23,98.59,23Z"/><path class="cls-3" d="M97.81,4.45c1,.23,3,1.13,3.2,2.2s-.9,2.23-.64,2.81a2.57,2.57,0,0,0,1.76,1.33,7.75,7.75,0,0,1-4,1.27c-3.06.35-3.25-.72-3-1.5.67-2.1,3.78-2.08,3.91-4A2,2,0,0,0,97.81,4.45Z"/><path class="cls-3" d="M95.7,8.41c-4.25,2.65-1.24,4.11-1.24,4.11-1.12,0-3.72-.45-2.84-2.27C92.42,8.59,95.7,8.41,95.7,8.41Z"/><path class="cls-3" d="M102.85,7c1.31.36,3.12,2,1.47,2.81-.62.3-1.7-.1-.89-1C104.06,8.11,102.85,7,102.85,7Z"/><path class="cls-3" d="M104.49,15.29a5,5,0,0,1,3.14,2.29c1.13,2.52-1.58,3.93-1.58,3.93,1.17-.22,3.25-.79,3.25-3.21C109.3,16.86,106.94,15.28,104.49,15.29Z"/><path class="cls-3" d="M88.8,17.12c-1.27,2.51.27,4.47,3.24,5.22-2.16-.27-3.77-.66-4.39-1.79C86.64,18.74,88.8,17.12,88.8,17.12Z"/><path class="cls-4" d="M98.59,23c-1.92,0-6.55-1-6.92-4.63A5,5,0,0,0,95,20.86a2.36,2.36,0,0,1-.55-3.74c-.11,1.85,2.2,2.95,4.1,2.95s3.16-1.21,3.16-2.2a2,2,0,0,1-.69,3.09,8.09,8.09,0,0,0,3.43-1.74C104.67,21.19,100.5,23,98.59,23Z"/><path class="cls-5" d="M98.59,23s-2.27-.3-3.06-1.27c.92.3,1.87-.51,1.41-1.19a5,5,0,0,0,4.24.84C101.06,22.23,99.62,22.81,98.59,23Z"/><path class="cls-4" d="M96.83,11.2c-1.06.23-1-1.35,1-2.38C97.79,9.59,97.91,11,96.83,11.2Z"/></g><path class="cls-6" d="M137.22,49c-2.28-1.57-22.12-12.39-22.63-12.69a4.49,4.49,0,0,1,.89-.34l1-1.19c.43.12,22,12.53,24.2,14Z"/><path class="cls-6" d="M63.14,49l-3.42-.21c1.74-1.25,21.06-14.59,21.54-14.71l3.4.61-.85.17C83.34,35.16,65,47.64,63.14,49Z"/><path class="cls-7" d="M77.23,25.27V35h42.65V24.5s-2.81-1.28-9.32-1.66a150.81,150.81,0,0,0-28,.51S78.5,23.61,77.23,25.27Z"/><ellipse class="cls-8" cx="98.55" cy="34.06" rx="21.33" ry="4.24"/><path class="cls-8" d="M118.77,29.82c.68,0,71.92-11,75.26-11.9"/><path class="cls-6" d="M118.77,30.91V29.82l-.08-1.08c.46,0,69.69-10.59,73.41-11.58l4.07,1.15C193.88,18.92,120.1,30.91,118.77,30.91Z"/><path class="cls-8" d="M79.1,28.79c-.68,0-64.58-10.29-72.18-10.39"/><path class="cls-6" d="M79.1,29.87c-.21,0-.89-.09-9.79-1.37-18.17-2.62-59.77-10-65.48-10.1l4.6-1.31c5.86.09,43,6.64,61.19,9.26,5.13.74,9.19,1.32,9.55,1.35Z"/></svg>