<svg id="Layer_1" data-name="Layer 1" xmlns="http://www.w3.org/2000/svg" viewBox="0 0 31.94 41.81"><defs><style>.cls-1{fill:#fbd3c7;}.cls-1,.cls-2{stroke:#323232;stroke-miterlimit:10;stroke-width:0.25px;}.cls-2{fill:none;}.cls-3{fill:#dc9e8f;}</style></defs><path class="cls-1" d="M31.11,6.93a10.63,10.63,0,0,1-1.44,1.56,3.22,3.22,0,0,1-.9.59c-2.46,4.28-10.6,10.76-12.71,12s-3.56,2.73-3.44,4.69c.22,3.69.58,3.77.1,5s.92,2.54-.08,2.78-2.3-1.64-2.17-3.38S10,28.64,10,28.64c-5.65,3.9-8.51,9.48-9.15,8.24s.9-3.34.9-3.34S.65,30.08,1,29s2.33-4.16,6.58-7.28S18.89,7.81,21,4.91a22.94,22.94,0,0,0,1.33-2c1-1.59.95-2.09,1.05-1.91A11.69,11.69,0,0,0,31.11,6.93Z"/><path class="cls-2" d="M1.73,33.46A23.75,23.75,0,0,0,4,29.41"/><path class="cls-2" d="M1.46,32.28a11.49,11.49,0,0,1,1.21-3.9"/><path class="cls-2" d="M1.09,30.81a11.73,11.73,0,0,1,.6-2.18"/><path class="cls-3" d="M30.85,7a8.29,8.29,0,0,1-1.33,1.42c-3.44-1-5.9-3.87-7-5.37,1-1.59.85-1.91,1-1.73A11.59,11.59,0,0,0,30.85,7Z"/></svg>