<svg id="Layer_1" data-name="Layer 1" xmlns="http://www.w3.org/2000/svg" viewBox="0 0 17.07 9.98"><defs><style>.cls-1{fill:#8c3e36;}.cls-2{fill:#d26653;}.cls-3{fill:#fff;}.cls-4{fill:#f5968e;}.cls-5{fill:#f48678;}.cls-6{fill:#e9a597;opacity:0.5;}</style></defs><g id="S"><path class="cls-1" d="M15.88,1.41s-2.66,1.67-3.34,2.07A14.3,14.3,0,0,1,9,4.65a19.85,19.85,0,0,1-3.41.65c-.4,0-4.14-.1-4.14-.1s1.47,1.52,2,2.13a5.71,5.71,0,0,0,1.26,1,4.75,4.75,0,0,0,3.09.92A14,14,0,0,0,12.61,8,19.53,19.53,0,0,0,15,4.5C15.16,4.07,15.88,1.41,15.88,1.41Z"/><path class="cls-2" d="M12.55,5.48a4.44,4.44,0,0,0-2.1.26,25.61,25.61,0,0,0-2.68.91,3.41,3.41,0,0,0-.5.19c-.11.06-.21.2-.34.18l-.19.34c-.22.45.33.83.63.89a4.47,4.47,0,0,0,1.79-.33A19.46,19.46,0,0,0,12.08,7c.29-.13.89-.23,1-.57A.68.68,0,0,0,12.55,5.48Z"/><path class="cls-3" d="M13.85,2.93,9.2,5,4,5.52a4.54,4.54,0,0,0,1,1,3.12,3.12,0,0,0,1.6.33,17.36,17.36,0,0,0,5.77-1.56,3,3,0,0,0,1.44-1.57A3.24,3.24,0,0,0,13.85,2.93Z"/><path class="cls-3" d="M14.08,6.41a2.93,2.93,0,0,0-.94-.47c-.87-.08-1.81.83-3.27,1.22S7,7.47,6.31,8a1.88,1.88,0,0,0-.42.83l1.26.53,3.25-.3,2.33-1.45Z"/><path class="cls-4" d="M15.87,1.06a20.35,20.35,0,0,1-1.79,4.22A8,8,0,0,1,9.82,8.09,6.46,6.46,0,0,1,5.46,7.9a21.21,21.21,0,0,1-4.09-3l.06.27a14.48,14.48,0,0,0,3.3,3.38,5.73,5.73,0,0,0,5.42.84,6.56,6.56,0,0,0,4.71-4,11.8,11.8,0,0,0,1.07-4.12S15.87,1.06,15.87,1.06Z"/><path class="cls-5" d="M15.87,1.06a12.44,12.44,0,0,1-3.16,2.25A24.54,24.54,0,0,1,5.88,5.1a20.08,20.08,0,0,1-4.51-.17,2,2,0,0,0,.25.25,10.08,10.08,0,0,0,3.51.54,20.23,20.23,0,0,0,4.3-.58,20.33,20.33,0,0,0,4-1.6,7.25,7.25,0,0,0,2.38-2.1S15.87,1.06,15.87,1.06Z"/><path class="cls-6" d="M.77,4.59c.19-.37-.18-.31-.31,0a1.63,1.63,0,0,0,.11.92A7,7,0,0,1,.77,4.59Z"/><path class="cls-6" d="M16,.61c-.39-.12.1-.39.42-.25s.23.78.23.78C16.17.67,16.11.65,16,.61Z"/></g></svg>