<svg id="Layer_1" data-name="Layer 1" xmlns="http://www.w3.org/2000/svg" viewBox="0 0 28 17"><defs><style>.cls-1{fill:#7b2f2c;}.cls-2{fill:#f48a71;}.cls-3{fill:#fff;}.cls-4{fill:#f5968e;}.cls-5{fill:#f48678;}.cls-6{fill:#e9a597;opacity:0.5;}</style></defs><g id="uh"><path class="cls-1" d="M13.61,7.17c-3.15-.53-9-3.61-9-3.61S7.7,11.64,8.7,12.08c1.17.52,6.53,1.94,8.19,1.7A16.61,16.61,0,0,0,22.09,10a6.08,6.08,0,0,0,1.64-3.21C23,7.36,16.08,7.58,13.61,7.17Z"/><path class="cls-2" d="M10.22,11.32c.7.81,1.36,1.19,3.25,1.58A5.25,5.25,0,0,0,17,12.57c0-.89-2.12-1.49-2.37-1.47-1,.08-2-.48-2.62-.46S10.51,10.79,10.22,11.32Z"/><path class="cls-3" d="M16.88,12.39a55.31,55.31,0,0,0-6.54-1.05c-.43,0-1.64-.69-2-.41l4.36,2.55,6.29-.7C18.53,12.28,17.57,12.58,16.88,12.39Z"/><path class="cls-4" d="M23.69,7.11c0-.75-.41-.07-.41-.07,0,.81-4.15,6.67-9.7,5.39C7.48,11,4.8,4.73,5,3.94c0,0-.29-.45-.41-.07-.22.7,1.36,9.68,8.89,10.91C20.16,15.88,23.67,7.86,23.69,7.11Z"/><path class="cls-3" d="M21.22,7.63c.11-.24-1.12-.27-1.36-.26a5,5,0,0,1-1.61-.11C18.13,7.2,14.5,7,14.5,7S10.35,5.9,10.22,5.91s-3-1.2-3-1.2A13.49,13.49,0,0,0,8.3,7c.53.66,2.93,1.89,6,2.4a10.11,10.11,0,0,0,5.24-.28A3,3,0,0,0,21.22,7.63Z"/><path class="cls-5" d="M23.79,7c0-.38-.36-.07-.36-.07-1,.37-4.07.37-9.13-.3-3.62-.48-8.4-2.31-9.1-2.93-.12-.11-.47-.23-.61-.1-.83.74,4.66,2.9,9.63,3.71S23.8,7.33,23.79,7Z"/><path class="cls-6" d="M4.78,3.16c.38-.37-.06-.49-.35-.13a2.56,2.56,0,0,0-.29,1.24A12.33,12.33,0,0,1,4.78,3.16Z"/><path class="cls-6" d="M23.59,6.34c-.38-.37.07-.49.36-.14s.14,1.18.14,1.18C23.78,6.51,23.72,6.46,23.59,6.34Z"/></g></svg>