<svg id="Layer_1" data-name="Layer 1" xmlns="http://www.w3.org/2000/svg" viewBox="0 0 25.79 15.04"><defs><style>.cls-1{fill:#7b2f2c;}.cls-2{fill:#f48a71;}.cls-3{fill:#fff;}.cls-4{fill:#f5968e;}.cls-5{fill:#f48678;}.cls-6{fill:#e9a597;opacity:0.5;}</style></defs><g id="uh"><path class="cls-1" d="M13.28,6.61C9.71,7.64,2.21,7.69,2.21,7.69S8.79,13.46,10,13.37c1.46-.1,7.76-1.39,9.42-2.41a19.3,19.3,0,0,0,4-5.89,5.61,5.61,0,0,0,.46-3.67C23.41,2.25,16.09,5.79,13.28,6.61Z"/><path class="cls-2" d="M11.35,12c1.07.39,1.93.41,4.11-.14a7.1,7.1,0,0,0,3.57-2c-.38-.78-2.85-.32-3.12-.18-1,.53-2.35.53-3,.84S11.45,11.35,11.35,12Z"/><path class="cls-3" d="M18.88,9.73a76.61,76.61,0,0,0-7.4,2.19c-.46.19-2,.17-2.25.57l5.68.2L21.34,9C20.6,8.83,19.7,9.57,18.88,9.73Z"/><path class="cls-4" d="M24,1.71c-.28-.69-.47.13-.47.13.29.75-1.73,8-8.17,9.5C8.3,13,2.91,8.64,2.76,7.85c0,0-.49-.26-.46.14,0,.73,5.36,8,13.88,5.53C23.79,11.28,24.29,2.4,24,1.71Z"/><path class="cls-3" d="M21.6,3.37c0-.27-1.31.29-1.56.42a7,7,0,0,1-1.77.67c-.15,0-4.08,1.6-4.08,1.6s-4.89,1-5,1-3.7.36-3.7.36A12.05,12.05,0,0,0,7.57,9c.82.34,3.88.29,7.38-.73a14,14,0,0,0,5.48-2.77A3.45,3.45,0,0,0,21.6,3.37Z"/><path class="cls-5" d="M24.06,1.53c-.17-.34-.41.12-.41.12-.94.81-4.2,2.28-9.86,4.1C9.73,7.06,3.9,7.71,2.91,7.49c-.18,0-.6,0-.7.2C1.63,8.76,8.35,8.06,14,6.4S24.22,1.86,24.06,1.53Z"/><path class="cls-6" d="M2.26,7.24c.25-.51-.27-.41-.44,0A2.24,2.24,0,0,0,2,8.54,10,10,0,0,1,2.26,7.24Z"/><path class="cls-6" d="M23.6,1.07c-.55-.15-.13-.47.32-.3s.63,1,.63,1C23.87,1.13,23.78,1.12,23.6,1.07Z"/></g></svg>