<svg id="Layer_1" data-name="Layer 1" xmlns="http://www.w3.org/2000/svg" viewBox="0 0 15 10"><defs><style>.cls-1{fill:#7b2f2c;}.cls-2{fill:#f5968e;}.cls-3{fill:#f48678;}.cls-4{fill:#fff6f3;}.cls-5{fill:#f48a71;}.cls-6{fill:#e9a597;opacity:0.5;}</style></defs><path class="cls-1" d="M13.14,4.48a4.47,4.47,0,0,1-.34.5,8.61,8.61,0,0,1-4,3.11,4.32,4.32,0,0,1-3.61-.77A6.61,6.61,0,0,1,2.74,3.73C2.55,3.21,2.36,2.62,2.12,2c0,0-.06-.13.08-.11a.67.67,0,0,1,.22.09,14.65,14.65,0,0,0,6,2.49A11.24,11.24,0,0,0,13,4.33a.11.11,0,0,1,.13.08A.06.06,0,0,1,13.14,4.48Z"/><path class="cls-2" d="M12.8,5a8.61,8.61,0,0,1-4,3.11,4.32,4.32,0,0,1-3.61-.77A6.61,6.61,0,0,1,2.74,3.73,7.55,7.55,0,0,0,6.92,7.38C9.66,8.12,12.09,5.76,12.8,5Z"/><path class="cls-3" d="M13.15,4.41a10.54,10.54,0,0,1-6,.25,9.27,9.27,0,0,1-5-2.82.79.79,0,0,1,.23.09,14.52,14.52,0,0,0,6,2.49A11.24,11.24,0,0,0,13,4.33.1.1,0,0,1,13.15,4.41Z"/><path class="cls-4" d="M3.31,2.74a10.35,10.35,0,0,0,8.37,2.05s-1,1.5-4,1.09A5.51,5.51,0,0,1,3.31,2.74Z"/><path class="cls-5" d="M6.94,7.34a3.68,3.68,0,0,1-1.79-.9c.73-.5,1.43.1,2.13,0,1.47-.14,1.85.46,2,.78A3.47,3.47,0,0,1,6.94,7.34Z"/><path class="cls-6" d="M13.21,4.13c-.16-.25.11-.22.22,0a1.09,1.09,0,0,1,0,.65A5.6,5.6,0,0,0,13.21,4.13Z"/><path class="cls-6" d="M2,2c.28-.11,0-.25-.18-.14s-.27.54-.27.54C1.85,2,1.89,2,2,2Z"/></svg>