<svg id="Layer_1" data-name="Layer 1" xmlns="http://www.w3.org/2000/svg" viewBox="0 0 250 150"><defs><style>.cls-1{fill:#75441b;}.cls-2{fill:#a76639;}</style></defs><path class="cls-1" d="M205.55,113.2h0c-51.83,4.62-98.36,5.63-152.78,1.4h0C37.55,112.08,26.68,104.21,25.63,95L18.37,31.17H231.63l-5.95,66.76C225.06,105,217,111.06,205.55,113.2Z"/><rect class="cls-2" x="35.21" y="38.01" width="21.15" height="3.7" rx="0.94"/><rect class="cls-2" x="35.21" y="49.62" width="21.15" height="3.7" rx="0.94"/><rect class="cls-2" x="35.21" y="61.23" width="21.15" height="3.7" rx="0.94"/><rect class="cls-2" x="35.21" y="72.85" width="21.15" height="3.7" rx="0.94"/><rect class="cls-2" x="35.21" y="84.46" width="21.15" height="3.7" rx="0.94"/><rect class="cls-2" x="35.21" y="96.07" width="21.15" height="3.7" rx="0.94"/><rect class="cls-2" x="66.93" y="38.01" width="21.15" height="3.7" rx="0.94"/><rect class="cls-2" x="66.93" y="49.62" width="21.15" height="3.7" rx="0.94"/><rect class="cls-2" x="66.93" y="61.23" width="21.15" height="3.7" rx="0.94"/><rect class="cls-2" x="66.93" y="72.85" width="21.15" height="3.7" rx="0.94"/><rect class="cls-2" x="66.93" y="84.46" width="21.15" height="3.7" rx="0.94"/><rect class="cls-2" x="66.93" y="96.07" width="21.15" height="3.7" rx="0.94"/><rect class="cls-2" x="98.65" y="38.01" width="21.15" height="3.7" rx="0.94"/><rect class="cls-2" x="98.65" y="49.62" width="21.15" height="3.7" rx="0.94"/><rect class="cls-2" x="98.65" y="61.23" width="21.15" height="3.7" rx="0.94"/><rect class="cls-2" x="98.65" y="72.85" width="21.15" height="3.7" rx="0.94"/><rect class="cls-2" x="98.65" y="84.46" width="21.15" height="3.7" rx="0.94"/><rect class="cls-2" x="98.65" y="96.07" width="21.15" height="3.7" rx="0.94"/><rect class="cls-2" x="130.37" y="38.01" width="21.15" height="3.7" rx="0.94"/><rect class="cls-2" x="130.37" y="49.62" width="21.15" height="3.7" rx="0.94"/><rect class="cls-2" x="130.37" y="61.23" width="21.15" height="3.7" rx="0.94"/><rect class="cls-2" x="130.37" y="72.85" width="21.15" height="3.7" rx="0.94"/><rect class="cls-2" x="130.37" y="84.46" width="21.15" height="3.7" rx="0.94"/><rect class="cls-2" x="130.37" y="96.07" width="21.15" height="3.7" rx="0.94"/><rect class="cls-2" x="162.3" y="38.01" width="21.15" height="3.7" rx="0.94"/><rect class="cls-2" x="162.3" y="49.62" width="21.15" height="3.7" rx="0.94"/><rect class="cls-2" x="162.3" y="61.23" width="21.15" height="3.7" rx="0.94"/><rect class="cls-2" x="162.3" y="72.85" width="21.15" height="3.7" rx="0.94"/><rect class="cls-2" x="162.3" y="84.46" width="21.15" height="3.7" rx="0.94"/><rect class="cls-2" x="162.3" y="96.07" width="21.15" height="3.7" rx="0.94"/><rect class="cls-2" x="194.22" y="38.01" width="21.15" height="3.7" rx="0.94"/><rect class="cls-2" x="194.22" y="49.62" width="21.15" height="3.7" rx="0.94"/><rect class="cls-2" x="194.22" y="61.23" width="21.15" height="3.7" rx="0.94"/><rect class="cls-2" x="194.22" y="72.85" width="21.15" height="3.7" rx="0.94"/><rect class="cls-2" x="194.22" y="84.46" width="21.15" height="3.7" rx="0.94"/><rect class="cls-2" x="194.22" y="96.07" width="21.15" height="3.7" rx="0.94"/></svg>