<svg xmlns="http://www.w3.org/2000/svg" viewBox="0 0 70.19 56.41"><defs><style>.cls-1{isolation:isolate;}.cls-2{fill:#5c5548;}.cls-3{fill:#424036;}.cls-4{fill:#fad2c6;stroke:#323232;}.cls-4,.cls-7{stroke-miterlimit:10;stroke-width:0.25px;}.cls-5{fill:#e4a58c;}.cls-6{fill:#421b16;}.cls-7{fill:#311415;stroke:#211e1f;}.cls-8{fill:#90856e;}.cls-9{fill:#605e44;}.cls-10,.cls-13{fill:#9e9580;opacity:0.5;}.cls-10,.cls-12{mix-blend-mode:multiply;}.cls-11,.cls-12{fill:#676254;}.cls-12{opacity:0.4;}.cls-13{mix-blend-mode:screen;}.cls-14{fill:#c28974;}</style></defs><g class="cls-1"><g id="Layer_1" data-name="Layer 1"><path class="cls-2" d="M15.21,21.16a16.29,16.29,0,0,0-3.94,2.54c-2.49,2-8.11,8.07-8.57,10.57s16,.57,37.29-.65,29.37-4.69,29.47-5.9-5.19-6.21-11.17-8.89-14.3-2.53-24.36-2A62.28,62.28,0,0,0,15.21,21.16Z"/><path class="cls-3" d="M31.25,17.22a63.32,63.32,0,0,0-16,4.05,16.23,16.23,0,0,0-3.92,2.53c-2.58,2.08-8.08,8.09-8.53,10.5a.38.38,0,0,0,.09.32c1.1,1.31,10.1.69,22.56-.18,4.37-.3,9.34-.64,14.53-.94,3.55-.21,6.92-.49,10-.83,14.57-1.62,19.28-4.21,19.35-5,.1-1.14-5.2-6.12-11.1-8.78C52.19,16.21,43.66,16.44,33.94,17,33.06,17,32.15,17.12,31.25,17.22Z"/><path class="cls-4" d="M55.38,24.6a2.6,2.6,0,0,1,.29,2.8C52,34.8,52,37.1,49.09,46.25,47,53,38.94,57,32.58,55.08,24.76,52.69,16,47.64,18.22,32c1-6.87.42-14.45,2-16.55,5.28-7.11,9-5.06,18.78-2C48.11,16.29,51.86,17.83,55.38,24.6Z"/><path class="cls-5" d="M52.19,36.62s1.31-13.16-5.35-11.76c-7.26,1.52-9.81-1.8-12.74-1.37-6.4.94-14.14,9.69-15.93,3.17s16.4-12.72,16.4-12.72,16.15-.39,17.19.13,4.83,9.22,4.83,9.22Z"/><path class="cls-6" d="M47.64,29.76a.49.49,0,0,1-.41-.75l.08-.12c.41-.69,1.45-.59,2-.3.84.43,2.07,1,2.5,3.55,0,.21-.22.39-.33.22A5.22,5.22,0,0,0,47.64,29.76Z"/><path class="cls-6" d="M35.77,26.62a.48.48,0,0,0,.76-.37v-.14c.07-.8-.84-1.33-1.45-1.41-.93-.14-2.25-.4-4.1,1.43-.15.15,0,.45.14.37A5.24,5.24,0,0,1,35.77,26.62Z"/><path class="cls-7" d="M49,20.34s-2.62,7.89-15,.64c0,0,14.88-.52.64-5.62,0,0,1.54,5.24-7.46.94,0,0,5.54,7.24-6.55,12.31,0,0-2,.07-2.77,4.89-.05.34-.1.71-.14,1.11-.58,5.93.09-.77.09-.77s-5-2.46-3.28-8.65A8.68,8.68,0,0,1,16.38,15S15.83,6.8,25,7.54c0,0,4.26-6.93,9.42-5.17,0,0,9.1-3.64,13.06,4.46,0,0,6.48-.34,8.35,7.77,0,0,4.57,4.39,1.86,8.84,0,0,3.61,3.79-1.46,6.43,0,0,2.56,4-2.51,5.81L51,39.78l1.18-3.16a15.53,15.53,0,0,0-2.87-16Z"/><path class="cls-8" d="M58.29,18.83c-6-2.69-14.3-2.53-24.36-2a62.28,62.28,0,0,0-18.72,4.29,16.29,16.29,0,0,0-3.94,2.54c-2.49,2-8.11,8.07-8.57,10.57.52-1.66,8.05-8.84,36.2-10.68,18.38-1.21,27.3,1.47,30.44,3.66C68.51,25.54,63.68,21.25,58.29,18.83Z"/><path class="cls-9" d="M69.35,27.37a.1.1,0,0,1-.07,0c-1.74-1.21-9.05-5-30.37-3.64-2.48.16-4.89.37-7.18.62-22.18,2.47-28.45,8.5-28.92,10a.11.11,0,0,1-.14.08.12.12,0,0,1-.08-.14c.49-2.65,6.29-8.77,8.62-10.64a15.77,15.77,0,0,1,4-2.56,63.8,63.8,0,0,1,16-4.07c.91-.1,1.82-.18,2.7-.23,9.75-.55,18.32-.78,24.43,2,5.37,2.41,10.23,6.7,11.09,8.48a.14.14,0,0,1,0,.14A.11.11,0,0,1,69.35,27.37Z"/><path class="cls-10" d="M14.52,25.68c1.55-2.64,4.45-4.51,6.94-5.9a33.46,33.46,0,0,1,3.19-1.55,60.55,60.55,0,0,0-9.44,2.93,16.29,16.29,0,0,0-3.94,2.54c-2.49,2-8.11,8.07-8.57,10.57.32-1,3.21-4,11.71-6.68A2,2,0,0,1,14.52,25.68Z"/><path class="cls-10" d="M47.67,17a39.12,39.12,0,0,1,6.56,2.33c1.59.74,3.51,2,3.48,4.16a1.62,1.62,0,0,1,0,.38c6.2.75,9.87,2.16,11.65,3.4-.83-1.71-5.66-6-11.05-8.42-3.59-1.62-8-2.2-13.21-2.29A22.22,22.22,0,0,1,47.67,17Z"/><path class="cls-8" d="M11.64,22.3S10,13.11,20.25,5.58C31.38-2.57,44.92,1.76,49,4.31S57.3,12.4,58.2,17.78c0,0-15.44-1.52-22.6-.86S15.7,19.79,11.64,22.3Z"/><path class="cls-9" d="M33.92,17l1.66-.18c6.72-.61,20.88.7,22.48.85-1-5.57-5.33-10.86-9.13-13.23C46.12,2.66,39.32.34,32.08,1.14A24.12,24.12,0,0,0,20.32,5.68C11,12.51,11.57,20.82,11.73,22.11,15.81,19.7,27.19,17.73,33.92,17Z"/><path class="cls-10" d="M51.42,12.71c-1.22,2.09-3.46,3-5.49,3.58-.71.21-1.42.38-2.13.53,7,.23,14.4,1,14.4,1-.84-5-4.51-10.08-8.29-12.84C51.67,7,52.92,10.11,51.42,12.71Z"/><path class="cls-10" d="M26.69,17c-2.67-.34-5.6-.85-8-2.43a5.65,5.65,0,0,1-2.84-4.95c-5.37,6.42-4.24,12.67-4.24,12.67,3.32-2.05,12.46-3.91,19.6-4.87C29.71,17.35,28.19,17.22,26.69,17Z"/><path class="cls-11" d="M35.38,15.5c5.78-.58,21.36.32,23,1.27a9.64,9.64,0,0,1,.25,2.29c-.15.39-7.6-2-21.5-1-18.28,1.34-25,5.4-25.49,5.53s-.36-2.1-.17-2.44S18.57,17.16,35.38,15.5Z"/><path class="cls-3" d="M58.52,19.22A10,10,0,0,1,57,19a80.13,80.13,0,0,0-19.87-.83c-1.67.13-3.32.28-4.9.45-5.9.66-14.21,2-20.21,4.91a1.84,1.84,0,0,1-.36.16h0a.25.25,0,0,1-.26-.15,4.5,4.5,0,0,1,0-2.47c.19-.33,7-4.05,24-5.73,5.67-.56,21.38.32,23,1.29l0,0,0,.06a8.93,8.93,0,0,1,.24,2.36C58.67,19.2,58.55,19.22,58.52,19.22Z"/><path class="cls-12" d="M58.35,16.77c-.91-.53-6.31-1.06-11.86-1.31a5,5,0,0,0,.58.12c5.43.91,1.63,1.63-2.51,1.47a82.27,82.27,0,0,0-14.73.74c-6.27.82-8.34-.25-3.31-1.05.37-.06.7-.14,1-.22-11.15,1.81-15.93,4.37-16.09,4.65s-.29,2.57.17,2.44,7.21-4.19,25.49-5.53c13.9-1,21.35,1.37,21.5,1A9.64,9.64,0,0,0,58.35,16.77Z"/><path class="cls-13" d="M17.24,25.84s11.3-4,37.85-3.19C55.09,22.65,34.06,19.82,17.24,25.84Z"/><path class="cls-4" d="M18.11,36.09c-.06-3.63-1.3-5.33-3.24-5.45-2.1-.12-3,1.29-3,4.26-.08,3.81,3.77,6.86,6.39,6.24"/><path class="cls-5" d="M13.4,34s-.41-2.14,1.83-1.61.86,3.33,1.41,4.58,1.86,2.55.87,2.75S13.33,38.53,13.4,34Z"/><path class="cls-14" d="M41.42,41.07a2.2,2.2,0,0,1,0,1.71,1.18,1.18,0,0,1-.74.62,2.26,2.26,0,0,1-.93,0,2.34,2.34,0,0,1-1.53-.88,2.42,2.42,0,0,1-.47-1.64,3.14,3.14,0,0,0,.76,1.39,2.42,2.42,0,0,0,1.32.64,1.16,1.16,0,0,0,1.25-.36A2.77,2.77,0,0,0,41.42,41.07Z"/></g></g></svg>