<svg id="Layer_1" data-name="Layer 1" xmlns="http://www.w3.org/2000/svg" xmlns:xlink="http://www.w3.org/1999/xlink" viewBox="0 0 78.13 17.09"><defs><style>.cls-1{fill:none;}.cls-2{clip-path:url(#clip-path);}.cls-3{fill:#ff6425;}.cls-4{fill:#ffa724;}.cls-5{fill:#fff18b;}.cls-6{fill:#281b17;}.cls-7{fill:#473a3a;}.cls-8{fill:#5e5454;}</style><clipPath id="clip-path"><path class="cls-1" d="M33.83.85s9-.06,10.79.12c0,0,3.22,3.73.79,6.79s-6,5.27-8.87,4S30.93,4.6,33.83.85Z"/></clipPath></defs><g class="cls-2"><path class="cls-3" d="M39.85,8.88c-1.93,0-4.75-1.28-4.75-4.2,0-2.51,1.51-3.1,1.51-3.1a3.42,3.42,0,0,0-.51,1,2.08,2.08,0,0,0,0,1.71A1.24,1.24,0,0,0,37.23,5a1.28,1.28,0,0,0,.93-1C38.44,2.81,37,2.36,37,1.16c0-1.58,2.26-2.68,2.26-3.84a1.62,1.62,0,0,0-.19-.88,1.21,1.21,0,0,1,.84,1c0,.92-.84,1.91-.84,2.83s.6,1,.84,1,1-.31,1-1.38a1.62,1.62,0,0,0-.74-1.46s2.09.43,2.09,2.15a4,4,0,0,1-.18,1.17c-.36,1.12-1,1.34-.91,2.09a1.26,1.26,0,0,0,.48.94.87.87,0,0,0,.39.11c.38,0,.83-.49.83-1.28a1.58,1.58,0,0,0-.52-1.2c.27.12,1.4.47,1.4,2.81S41.27,8.88,39.85,8.88Z"/><path class="cls-4" d="M39.85,8.88c-1.63,0-3-1.79-3.21-2.61A1.15,1.15,0,0,0,38.7,5.6a3.6,3.6,0,0,1,2-2.74c-1,1.16-1.06,3.08.21,3.42,1.11.3,2.1-1.07,2.1-1.07C42.52,7.43,41.05,8.88,39.85,8.88Z"/><path class="cls-5" d="M39.85,8.88c-.18.08-2.31-1.12-.26-3.22-.36,1.13,0,1.8.51,2.06a1.89,1.89,0,0,0,1.2-.93A2.34,2.34,0,0,1,39.85,8.88Z"/></g><path class="cls-6" d="M24.55,16.25c.84-.59,8.6-5.45,8.79-5.56a1.75,1.75,0,0,0-.33-.13l-.38-.44c-.16,0-8.7,5.5-9.52,6.06Z"/><path class="cls-6" d="M53.15,16.14l1.27-.08c-.65-.46-8.49-6.16-8.67-6.2l-1.26.22.31.07Z"/><path class="cls-7" d="M47.26,8V11.6H31.37V7.68a10.71,10.71,0,0,1,3.47-.62,56.79,56.79,0,0,1,10.42.19S46.78,7.34,47.26,8Z"/><ellipse class="cls-8" cx="39.31" cy="11.24" rx="7.94" ry="1.58"/><path class="cls-8" d="M31.78,8.28C31.53,8.28,4.23,3.72,3,3.38"/><path class="cls-6" d="M31.78,8.68v-.4l0-.4c-.18,0-26.93-4.44-28.31-4.81L1.2,3.44C2.06,3.67,31.29,8.68,31.78,8.68Z"/><path class="cls-8" d="M46.56,7.89c.25,0,23.78-3.5,26.61-3.54"/><path class="cls-6" d="M46.56,8.3c.08,0,.33,0,3.65-.51C57,6.81,74.8,4.1,76.93,4.07l-2.44-.46C72.31,3.64,56.87,6,50.09,7l-3.56.51Z"/></svg>