<svg id="Layer_1" data-name="Layer 1" xmlns="http://www.w3.org/2000/svg" viewBox="0 0 20 10"><defs><style>.cls-1{fill:#f5968e;}.cls-2{fill:#f48678;}.cls-3{fill:#765a47;}.cls-4{fill:#e9a597;opacity:0.5;}</style></defs><g id="neutral"><path class="cls-1" d="M16.9,3.63a14.61,14.61,0,0,1-6.41,3.43,14.56,14.56,0,0,1-7.28-.8c-.09-.22,2.89.61,7-.16A46.27,46.27,0,0,0,16.9,3.63Z"/><path class="cls-2" d="M17.05,3.51c-.06-.15-3.63,1.7-7.11,2.37A38.23,38.23,0,0,1,3,6.22a15.2,15.2,0,0,0,7,.29A18,18,0,0,0,17.05,3.51Z"/><path class="cls-3" d="M2.91,6.2a22.38,22.38,0,0,0,7.46.25A17.27,17.27,0,0,0,17,3.53a19,19,0,0,1-6.64,2.92A20.22,20.22,0,0,1,2.91,6.2Z"/><path class="cls-4" d="M2.77,5.78c.08-.4-.26-.24-.3.11a1.61,1.61,0,0,0,.36.83A7.66,7.66,0,0,1,2.77,5.78Z"/><path class="cls-4" d="M17.13,3c-.29-.3.09-.34.3-.06s0,.83,0,.83C17.26,3.15,17.22,3.11,17.13,3Z"/></g></svg>