<svg id="Layer_1" data-name="Layer 1" xmlns="http://www.w3.org/2000/svg" viewBox="0 0 50.1 52.26"><defs><style>.cls-1,.cls-6{fill:#3d2d16;}.cls-1{stroke:#3d2d16;}.cls-1,.cls-3{stroke-miterlimit:10;stroke-width:0.25px;}.cls-2{fill:#fff;}.cls-3,.cls-9{fill:#fad2c6;}.cls-3{stroke:#323232;}.cls-4{fill:#dc9e8f;}.cls-5{fill:#e8d860;}.cls-7{fill:#a67d48;}.cls-8{fill:#ef4b3b;}.cls-10{fill:#323232;}.cls-11{fill:#f49990;}</style></defs><path class="cls-1" d="M10.41,44.66c2.46,7.44,9.67,7.15,20.88,2.8.1,0,1,2.07,1.1,2,10-4,16.66-5.32,13.91-18.87-1.57-7.75-12.75-10.85-22.92-7.48S7.92,37.16,10.41,44.66Z"/><path class="cls-1" d="M9.1,30.82c-.2.46-1.18,15,4.89,18.64a10.81,10.81,0,0,0,8.34,1Z"/><path class="cls-2" d="M21.31,45s-3.4.36-4.56,2.9C17.78,48.21,18.82,48.7,21.31,45Z"/><path class="cls-3" d="M9.31,34.24c0-.07.11,0,0,.07s-.11,0-.16-.07a4.17,4.17,0,0,0-1.85-1.19,1.66,1.66,0,0,0-1.46.11,2,2,0,0,0-.44,2.08,6.84,6.84,0,0,0,1.72,3.17c1.47,1.52,3.78,2.26,5.58,1.35"/><path class="cls-4" d="M7.8,35.42a6.28,6.28,0,0,1,.78.48c.2.14.42.38.36.62s-.29.29-.32.51a.43.43,0,0,0,.38.44c.19,0,.38,0,.58,0a.86.86,0,0,1,.66.52.88.88,0,0,1,.07.32.49.49,0,0,1-.5.46,1.32,1.32,0,0,1-.69-.25,6,6,0,0,1-1.4-1.07C7.1,36.77,6,34.5,7.8,35.42Z"/><path class="cls-5" d="M11.38,39s2.2,2,1.14,3.16-2-2-2-2,1.44,2.26,1.14.54Z"/><path class="cls-3" d="M5.77,28c.2.22,3.1,9,4.25,13.22,1.35,4.91,7.73,10,13.59,9.3,7.19-.88,13.26-4.36,15.56-10.4s.51-13.65.51-13.65,4.5-8.74-3.34-14.26S19.92,5.29,9.84,9.63,5.77,28,5.77,28Z"/><path class="cls-4" d="M32.65,21.84c-.38-.11-9.06-5.58-9.06-5.58S28,19.84,26,19.88c-.57,0-5.8-1.44-7.74-3.22,0,0,1.26,3.1,3.09,3.36,0,0-7.1,2-10.39-3.19,0,0,1.46,2.79-3.53,6.38-3.87,2.78-.54,7.68-.54,7.68L3.42,19.8l4-5.8L18.92,11,29,12.06l4.93,7.25,5.74,7.13Z"/><path class="cls-1" d="M7.47,32.87c-.41-1.59-1.12-6.43-.49-7.94,1.25-3.06,3.32-3.87,4.45-5.06.72-.76.09-3.52.69-4.38s.05,1.12,0,0c.77,1.59.71,2.73,2.36,3.32a12.7,12.7,0,0,0,4.87.59A7.37,7.37,0,0,1,17,17.14a14.47,14.47,0,0,1-1-3.47,19,19,0,0,0,10.26,5.6,8.74,8.74,0,0,1-3.4-4.74,3,3,0,0,1,1.51.73,55.89,55.89,0,0,0,8.22,5.51c0-.48.16-.92.12-1.4,1.65,3,7.34,8.16,7.27,8,0,0,2.79,15.28-7,21.9a25.09,25.09,0,0,0,9.87-3.14c5.63-3.07,8.22-9.63,3.47-18.83S43.52,13.74,39.76,8.36C35.27,2,22.5-4.78,6.69,9.27c0,0-7.89,4.56-1.6,19.92A37.91,37.91,0,0,0,7.47,32.87Z"/><path class="cls-6" d="M12.76,24.93s-3.06-.17-4.13,2.23a.1.1,0,0,1-.19,0,2.54,2.54,0,0,1,1.82-2.76C13.07,23.35,12.76,24.93,12.76,24.93Z"/><path class="cls-6" d="M24.09,22.58s3.23-1.14,5.2.8a.12.12,0,0,0,.2-.09,2.74,2.74,0,0,0-2.91-2C23.21,21.17,24.09,22.58,24.09,22.58Z"/><path class="cls-7" d="M18.06,32.65a2.78,2.78,0,0,1,.82,2.23,3.33,3.33,0,0,1-.35,1.19,2.51,2.51,0,0,0-.39,1,1.2,1.2,0,0,0,1.26,1.21,3.25,3.25,0,0,0,2.08-.67l0,0h0a1.34,1.34,0,0,0,.61-.33.55.55,0,0,0,0-.67.83.83,0,0,1,.2.34.54.54,0,0,1-.08.41,1.35,1.35,0,0,1-.65.5l0,0a3.34,3.34,0,0,1-2.26.92,1.88,1.88,0,0,1-1.24-.45A1.51,1.51,0,0,1,17.66,37a2.63,2.63,0,0,1,.48-1.18,3.4,3.4,0,0,0,.4-1A3.06,3.06,0,0,0,18.06,32.65Z"/><path class="cls-8" d="M4.78,11a20.24,20.24,0,0,1,7.07-3.44C24,4.3,36.85,12.9,40.5,26.73c.07.27.14.53.2.8A12.89,12.89,0,0,1,42,27c-.09-.39-.18-.78-.29-1.18C38,12,25.19,3.35,13,6.56A20.46,20.46,0,0,0,4.78,11Z"/><path class="cls-9" d="M40,28c0-.05-.09.09,0,.09s.11-.08.13-.15a4.6,4.6,0,0,1,1.3-2,2.26,2.26,0,0,1,1.58-.7,2,2,0,0,1,1.58,1.54,6,6,0,0,1-.08,3.66,6.2,6.2,0,0,1-5.1,4.16"/><path class="cls-10" d="M40,28S40,28,40,28s.07,0,.09-.06a1.6,1.6,0,0,0,.08-.26,3.63,3.63,0,0,1,.19-.52,4.72,4.72,0,0,1,.58-1A3,3,0,0,1,42.83,25a1.59,1.59,0,0,1,1.16.38,2.54,2.54,0,0,1,.7,1,5.67,5.67,0,0,1,.4,2.25,6.35,6.35,0,0,1-1.74,4.11A6.52,6.52,0,0,1,41.55,34a5.18,5.18,0,0,1-2.14.52,6.08,6.08,0,0,0,3.66-2.11,6.17,6.17,0,0,0,1.52-3.87,5.1,5.1,0,0,0-.32-2,1.59,1.59,0,0,0-1.42-1.14,2.79,2.79,0,0,0-1.74,1,4.93,4.93,0,0,0-.64.86,4.44,4.44,0,0,0-.24.49,1.42,1.42,0,0,1-.12.25S40,28.06,40,28,40,27.91,40,28Z"/><path class="cls-4" d="M42.24,28.14a7.66,7.66,0,0,0-.56.84c-.13.23-.23.55,0,.73s.46.09.61.26,0,.45-.15.59-.42.18-.62.3a.92.92,0,0,0-.4.81.5.5,0,0,0,.1.31.6.6,0,0,0,.76.13,1.67,1.67,0,0,0,.59-.59,6.4,6.4,0,0,0,.89-1.67C43.7,28.93,43.6,26.41,42.24,28.14Z"/><path class="cls-5" d="M40.41,33.11s-1.21,2.93.5,3.32,1-2.77,1-2.77-.28,2.72-.9,1.08Z"/><path class="cls-8" d="M36.21,11s8.67.49,5.86,4.82-7.67,5.95-8.33-2.53C33.33,8,32,12,32,12S21.1,9.57,28.4,4.32c6.76-4.85,5.48,4.86,5.48,4.86S36.05,7.59,36.21,11Z"/><ellipse class="cls-11" cx="31.35" cy="3.94" rx="0.78" ry="0.67" transform="translate(0.07 8.42) rotate(-15.32)"/><ellipse class="cls-11" cx="40.01" cy="12.91" rx="0.78" ry="0.67" transform="translate(-1.99 11.03) rotate(-15.32)"/><ellipse class="cls-11" cx="41.32" cy="14.91" rx="0.78" ry="0.67" transform="translate(-2.47 11.45) rotate(-15.32)"/><ellipse class="cls-11" cx="37.92" cy="14.58" rx="0.78" ry="0.67" transform="translate(-2.5 10.54) rotate(-15.32)"/><ellipse class="cls-11" cx="35.42" cy="13.97" rx="0.78" ry="0.67" transform="translate(-2.43 9.85) rotate(-15.32)"/><ellipse class="cls-11" cx="36.18" cy="16.97" rx="0.78" ry="0.67" transform="translate(-3.2 10.16) rotate(-15.32)"/><ellipse class="cls-11" cx="39.06" cy="16.95" rx="0.78" ry="0.67" transform="translate(-3.09 10.92) rotate(-15.32)"/><ellipse class="cls-11" cx="37.35" cy="12.34" rx="0.78" ry="0.67" transform="translate(-1.93 10.31) rotate(-15.32)"/><ellipse class="cls-11" cx="33.04" cy="6.33" rx="0.78" ry="0.67" transform="translate(-0.5 8.95) rotate(-15.32)"/><ellipse class="cls-11" cx="27.74" cy="7.41" rx="0.78" ry="0.67" transform="translate(-0.97 7.59) rotate(-15.32)"/><ellipse class="cls-11" cx="28.58" cy="4.96" rx="0.78" ry="0.67" transform="translate(-0.3 7.73) rotate(-15.32)"/><ellipse class="cls-11" cx="30.55" cy="6.64" rx="0.78" ry="0.67" transform="translate(-0.67 8.31) rotate(-15.32)"/><ellipse class="cls-11" cx="32.18" cy="8.38" rx="0.78" ry="0.67" transform="translate(-1.07 8.8) rotate(-15.32)"/><ellipse class="cls-11" cx="29.67" cy="9.25" rx="0.78" ry="0.67" transform="translate(-1.39 8.17) rotate(-15.32)"/><ellipse class="cls-11" cx="31.47" cy="10.27" rx="0.78" ry="0.67" transform="translate(-1.6 8.68) rotate(-15.32)"/><ellipse class="cls-8" cx="34.04" cy="11.18" rx="2.4" ry="1.8" transform="translate(2.59 28.34) rotate(-46.81)"/></svg>