<svg id="Layer_1" data-name="Layer 1" xmlns="http://www.w3.org/2000/svg" viewBox="0 0 23.65 29.97"><defs><style>.cls-1{fill:#fbd3c7;}.cls-1,.cls-2{stroke:#323232;stroke-miterlimit:10;stroke-width:0.25px;}.cls-2{fill:none;}.cls-3{fill:#dc9e8f;}</style></defs><path class="cls-1" d="M.93,5.21A8.39,8.39,0,0,0,2.41,6.6C4,9.79,9.49,14.84,10.94,15.86S13.36,18,13.18,19.4c-.34,2.63-.6,2.67-.32,3.55s-.79,1.77-.08,2,1.73-1.06,1.72-2.31.4-1.07.4-1.07c3.86,3.07,5.64,7.21,6.16,6.36s-.49-2.45-.49-2.45,1-2.42.78-3.21-1.47-3.1-4.37-5.55S9.57,6.18,8.17,4c-.38-.6-.66-1.08-.86-1.48C6.68,1.32,6.62.78,6.55.92A8.62,8.62,0,0,1,.93,5.21Z"/><path class="cls-2" d="M20.61,25.43a18.35,18.35,0,0,1-1.39-3"/><path class="cls-2" d="M20.87,24.59a8.09,8.09,0,0,0-.68-2.86"/><path class="cls-2" d="M21.21,23.55A8.64,8.64,0,0,0,20.88,22"/><path class="cls-3" d="M1.14,5.29a4.76,4.76,0,0,0,1.1,1c2.51-.52,4.08-2.7,5-3.72-.63-1.19-.59-1.53-.66-1.4A9.22,9.22,0,0,1,1.14,5.29Z"/></svg>