<svg id="Layer_1" data-name="Layer 1" xmlns="http://www.w3.org/2000/svg" xmlns:xlink="http://www.w3.org/1999/xlink" viewBox="0 0 79.97 17.87"><defs><style>.cls-1{fill:none;}.cls-2{clip-path:url(#clip-path);}.cls-3{fill:#ff6425;}.cls-4{fill:#ffa724;}.cls-5{fill:#fff18b;}.cls-6{fill:#281b17;}.cls-7{fill:#473a3a;}.cls-8{fill:#5e5454;}</style><clipPath id="clip-path"><path class="cls-1" d="M33.42.64s9-.06,10.8.12c0,0,3.21,3.73.78,6.79s-6,5.27-8.86,4S30.53,4.39,33.42.64Z"/></clipPath></defs><g class="cls-2"><path class="cls-3" d="M38.2-3.77a1.57,1.57,0,0,1,.46,1.06c0,.5-1.52,1.41-1.52,2.59s.76,1.33.76,2.52a.84.84,0,0,1-.76.87c-.31,0-.65-.19-.65-1a1.41,1.41,0,0,1,.65-1.15,2,2,0,0,0-1.45,2c0,1.34,1.86,1.39,1.86,2.51,0,.64-.31.93-.81.93s-.64-.5-.64-.81.44-.81.44-.81c-.34.15-1.23.33-1.23,1.44S36.62,8.67,39,8.67a3.68,3.68,0,0,0,3.78-3.12A1.75,1.75,0,0,0,41.52,4,1.76,1.76,0,0,1,42,5.06a.84.84,0,0,1-.83.87c-.47,0-.77-.42-.77-1.06,0-1.22,1.7-1.59,1.7-3.07A1.94,1.94,0,0,0,41.23.17a2.53,2.53,0,0,1,.21,1c0,.37-.33.91-.79.91s-.64-.3-.52-.79.29-.46.46-.8a1.58,1.58,0,0,0,.08-1.21,2.33,2.33,0,0,0-1.12-1h0a1.58,1.58,0,0,1,.56,1.2.68.68,0,0,1-.75.71c-.27,0-.7-.11-.7-.77,0-.44.27-.55.43-1a2,2,0,0,0,.06-1A1.91,1.91,0,0,0,38.2-3.77Z"/><path class="cls-4" d="M39.6,8.62s1.9-.88,2.1-2.43c-.55.42-2.12,1.07-2.1-.76,0-1.65,1.22-1.68,1.19-2.65a1.12,1.12,0,0,1-.95.66c0-.57-1.12-1.56-1.12-2A1.08,1.08,0,0,1,38.89.8a.9.9,0,0,0-.46.82c0,.39.76,1.46.17,2.06a1.25,1.25,0,0,1-1.73.1c.18.42.75.7,1.16,1.24a1.51,1.51,0,0,1-.65,2.17,1,1,0,0,1-1.16-.3A2.64,2.64,0,0,0,38.6,8.66Z"/><path class="cls-5" d="M39.26,8.66s1.19-.57,1.27-1.51A1.17,1.17,0,0,1,39.08,6a2.47,2.47,0,0,1,.15-1.43A2.56,2.56,0,0,0,38.78,6a2.08,2.08,0,0,1-.28,1.48.89.89,0,0,1-1,.21,1.84,1.84,0,0,0,1.35.94Z"/></g><path class="cls-6" d="M22.92,17c.85-.59,9.83-6.43,10-6.54a1.75,1.75,0,0,0-.33-.13l-.38-.44c-.16,0-9.93,6.48-10.75,7Z"/><path class="cls-6" d="M53.85,17.24l1.28-.08c-.65-.47-9.6-7.47-9.78-7.51l-1.26.22.31.07C44.58,10.06,53.15,16.74,53.85,17.24Z"/><path class="cls-7" d="M46.86,7.75v3.64H31V7.47a10.71,10.71,0,0,1,3.47-.62A56.79,56.79,0,0,1,44.86,7S46.38,7.13,46.86,7.75Z"/><ellipse class="cls-8" cx="38.91" cy="11.03" rx="7.94" ry="1.58"/><path class="cls-8" d="M31.38,8.07c-.25,0-27.27-4.35-28.51-4.68"/><path class="cls-6" d="M31.38,8.47v-.4l0-.4c-.18,0-26.65-4.22-28-4.6l-2.31.38C1.94,3.68,30.89,8.47,31.38,8.47Z"/><path class="cls-8" d="M46.16,7.68c.25,0,23.78-3.5,26.61-3.54"/><path class="cls-6" d="M46.16,8.09l3.65-.51c6.76-1,27-4.13,29.08-4.16L76.19,3C74,3,56.47,5.8,49.69,6.77l-3.56.51Z"/></svg>