<svg id="Layer_1" data-name="Layer 1" xmlns="http://www.w3.org/2000/svg" xmlns:xlink="http://www.w3.org/1999/xlink" viewBox="0 0 115.84 25.12"><defs><style>.cls-1{fill:none;}.cls-2{clip-path:url(#clip-path);}.cls-3{fill:#eb652f;}.cls-4{fill:#f6a42c;}.cls-5{fill:#fff18b;}.cls-6{fill:#281b17;}.cls-7{fill:#473a3a;}.cls-8{fill:#5e5454;}</style><clipPath id="clip-path"><path class="cls-1" d="M46.11,1.2S64,1.08,67.52,1.44c0,0,6.37,7.4,1.55,13.47S57.2,25.35,51.49,22.76,40.37,8.63,46.11,1.2Z"/></clipPath></defs><g class="cls-2"><path class="cls-3" d="M58-7.54A5.7,5.7,0,0,1,60.66-2.7C60.55-.31,58.88.64,58.78,3.07a2.75,2.75,0,0,0,1.67,2.71c-.63-1.2-.37-3.85,2.24-5.67a3.93,3.93,0,0,0-.47,3.59c.36.78,2.76,2.57,2.76,6.51s-4.27,6.91-7,6.91-8.53-1.69-8.53-6.91a11.11,11.11,0,0,1,.73-3.5,4.18,4.18,0,0,0,2.91,3.5A6.29,6.29,0,0,1,51.39,4c1.09-4.47,5.68-6.9,6.72-8.36S58-7.54,58-7.54Z"/><path class="cls-4" d="M56.13,2c-1.72,2.61-1.25,3.51-.27,5.54s-1.32,4.13-1.64,5.58c-.39,1.76,1.52,4,3.78,4s3.55-2.46,3.55-4.6S59.8,8.65,57.42,7A3.66,3.66,0,0,1,56.13,2Z"/><path class="cls-5" d="M57.22,10.17c1.21,1,3,2.63,2.64,4.43A3.76,3.76,0,0,1,58,17.12c-.43-.19-1.6-.83-1.56-1.77s1.44-1.21,1.73-2.13C58.57,11.94,57.22,10.17,57.22,10.17Z"/></g><path class="cls-6" d="M79.24,23.94c-1.41-.92-12.79-7.42-13.11-7.6a2.67,2.67,0,0,1,.55-.2l.63-.7c.27.07,12.79,7.47,14.16,8.36Z"/><path class="cls-6" d="M34.18,23.9l-2.12-.12C33.14,23,45.18,15.1,45.47,15l2.11.36-.53.1C46.76,15.68,35.34,23.11,34.18,23.9Z"/><path class="cls-7" d="M43,9.85V15.6H69.41V9.4a18.53,18.53,0,0,0-5.78-1,97.72,97.72,0,0,0-17.33.3S43.77,8.87,43,9.85Z"/><ellipse class="cls-8" cx="56.19" cy="15.03" rx="13.22" ry="2.5"/><path class="cls-8" d="M68.72,12.53c.43,0,42.37-6.51,44.44-7"/><path class="cls-6" d="M68.72,13.17v-.64l0-.64c.29,0,41-6.27,43.29-6.85l2.8.62C113.34,6,69.55,13.17,68.72,13.17Z"/><path class="cls-6" d="M44.14,12.56c-.13,0-.56-.05-6.08-.81C26.8,10.21,4.62,5.33,1.08,5.28l3.46-.74c3.63,0,22.43,4.4,33.72,6,3.18.43,5.7.78,5.92.79Z"/></svg>