<svg id="Layer_1" data-name="Layer 1" xmlns="http://www.w3.org/2000/svg" viewBox="0 0 22.49 12.05"><defs><style>.cls-1{fill:#dc9e8f;}.cls-2{fill:#f6fbfd;stroke:#323232;stroke-miterlimit:10;stroke-width:0.25px;}.cls-3{fill:#451f16;}.cls-4{fill:#fff;}</style></defs><circle class="cls-1" cx="4.36" cy="7.52" r="4.02"/><path class="cls-2" d="M.75,7.76A3.8,3.8,0,0,0,4.4,11.69c2.09.07,3.82-.91,3.9-3S6.76,4.19,4.67,4.12A3.78,3.78,0,0,0,.75,7.76Z"/><ellipse class="cls-3" cx="4.85" cy="9.41" rx="1.85" ry="2.15" transform="matrix(0.28, -0.96, 0.96, 0.28, -5.54, 11.46)"/><circle class="cls-4" cx="3.05" cy="9.23" r="0.65"/><ellipse class="cls-1" cx="17.96" cy="4.4" rx="4.2" ry="4.02" transform="translate(-0.53 4.73) rotate(-14.78)"/><path class="cls-2" d="M21.68,3.84A3.78,3.78,0,0,1,19,8.46c-2,.54-3.93,0-4.47-2.06S15,1.67,17.05,1.14A3.79,3.79,0,0,1,21.68,3.84Z"/><ellipse class="cls-3" cx="17.66" cy="6.39" rx="1.77" ry="2.1" transform="translate(1.83 16.49) rotate(-52.41)"/><circle class="cls-4" cx="15.97" cy="6.51" r="0.65"/><path class="cls-1" d="M.38,7.52C.31,9.69,2.28,10.11,4.45,10s4-.66,3.9-2.83A3.55,3.55,0,0,0,4.68,4,4,4,0,0,0,.38,7.52Z"/><path class="cls-1" d="M22.06,3.92c.45,2-1.44,2.43-3.6,2.91S14.05,7,14,5.48c0-2.34.9-3.92,3-4.48A4.22,4.22,0,0,1,22.06,3.92Z"/></svg>