<svg id="Layer_1" data-name="Layer 1" xmlns="http://www.w3.org/2000/svg" viewBox="0 0 87.95 72.51"><defs><style>.cls-1{fill:#fad2c6;stroke:#5f4a43;}.cls-1,.cls-3{stroke-miterlimit:10;}.cls-2{fill:#e7b4a7;}.cls-3{fill:#fcde7d;stroke:#323232;}</style></defs><path class="cls-1" d="M64.45,31.68C52.9,36.9,44.93,45.84,34,50.78c-2.93,1.33-8.09,4.5-11.58,5.1l-3.3-11.49a34.37,34.37,0,0,1,9-6.69C36.49,33.08,47.9,29,59,23.19,60.1,22.63,65.55,31.18,64.45,31.68Z"/><path class="cls-1" d="M54.56,25.42c-.22-2,.15-8.1.18-15.46,0-1.16,2.39-.13,3,1.35,1.29,3.16.73,4.29,1.53,5.86s2.13,1.15,3.47.18c5.09-6.57,7.32-10.9,9.79-10.43,2,.72-.93,5.72-4.46,11.21,5.79-4.09,10.77-6.9,11.61-5.23,1,2-3.94,5.6-8.13,9.29,5.4-.2,10.95-2,11.06.88.08,2.07-11.18,3.81-10.25,5.56.33.61,1.4.84,3.05,1.24,1.43.34,3.59.8,4.31,1.64s-.17,1.69-1.88,1.88c-2.83.31-9.24.77-12.44.78-1.87.12-3.44.37-5-.41"/><path class="cls-1" d="M60.06,18c.3.12,4.5,1.23,2.75,6.91"/><path class="cls-2" d="M30.58,51.78c-2.93,1.33-3.42,2.22-6.91,2.82l-5.3-9.36a34.2,34.2,0,0,1,9-6.69C28.65,41.4,30.14,50.18,30.58,51.78Z"/><path class="cls-3" d="M2.92,48.51,22.5,39.57S27,46,26.15,56.6L9.26,70.07"/></svg>