<svg xmlns="http://www.w3.org/2000/svg" viewBox="0 0 161.91 167.16"><defs><style>.cls-1{isolation:isolate;}.cls-2{fill:#fac7b3;}.cls-2,.cls-4{stroke:#323232;stroke-width:0.75px;}.cls-2,.cls-4,.cls-7{stroke-miterlimit:10;}.cls-3{fill:#424036;}.cls-4{fill:#fad2c6;}.cls-5{fill:#e7b4a7;}.cls-6{fill:#561211;}.cls-7{fill:#311415;stroke:#211e1f;}.cls-8{fill:#90856e;}.cls-9{fill:#605e44;}.cls-10,.cls-13{fill:#9e9580;opacity:0.5;}.cls-10,.cls-12{mix-blend-mode:multiply;}.cls-11,.cls-12{fill:#676254;}.cls-12{opacity:0.4;}.cls-13{mix-blend-mode:screen;}.cls-14{fill:#c28974;}.cls-15{fill:#d6a398;}</style></defs><g class="cls-1"><g id="Layer_1" data-name="Layer 1"><path class="cls-2" d="M32.39,108.46c1.47,5.78,5.56,9.45,8.38,8.92s3-5.24,2-10.8-4-9.65-6.8-9.12C32.16,98.2,31,103,32.39,108.46Z"/><path class="cls-3" d="M81.9,57.2a128.17,128.17,0,0,0-33.3,1.19c-.05,0-3.13.45-8.8,3.31-6,3-26.91,15.81-28.82,20.38-.1.23-.12-.23,0,0C12.59,85.14,37.07,90.17,62,93.77c8.78,1.27,19.8-2.33,30.18-.71,7.09,1.11,13.88,2,20.12,2.65,29.46,3,47.84-3.61,48.3-5.07.68-2.2-15.64-10.78-26.15-18.53C123.67,64.14,106.72,61,87.3,57.9,85.55,57.62,83.73,57.39,81.9,57.2Z"/><path class="cls-4" d="M135.18,114.19c-1.87,5.66-6.53,9-9.6,8.21s-3-5.51-1.77-11,4.81-9.34,7.87-8.55C135.87,103.92,136.94,108.86,135.18,114.19Z"/><path class="cls-4" d="M124.89,119.3c-2.91,21.19-34,29.1-42.39,28.63-12.33-.69-44.77-14.34-40.72-47.47l.12-1h0C43.56,83.63,39,68.78,41,62.77,47.87,42,51,50.56,76.31,50.15c23.63-.39,33.63.33,47.12,13.54,1.19,1.16,5.34,2.71,5.1,6.52-.39,6.49-.62,11.36-.79,15.26C127.15,99,127.39,101.07,124.89,119.3Z"/><path class="cls-5" d="M127.74,85.47a54.84,54.84,0,0,0-25.63-14.55,50.41,50.41,0,0,1-39.27,5.24,63.45,63.45,0,0,0,10.8-7.91,19.94,19.94,0,0,1-9.37,1.6C60.74,75.51,57.05,81.36,51.48,85c-1.91,1.26-4,2.27-5.49,4a13.3,13.3,0,0,0-1.82,3.28c-.59,1.37-1.11,2.77-1.58,4.19-.28.84-.44,1.9-.69,2.87C43.56,83.63,39,68.78,41,62.77,47.87,42,51,50.56,76.31,50.15c23.63-.39,33.63.33,47.12,13.54,1.19,1.16,5.34,2.71,5.1,6.52C128.14,76.7,127.91,81.57,127.74,85.47Z"/><path class="cls-6" d="M74.42,85.07,73.55,84a8.45,8.45,0,0,0-7.49-3.24,16.09,16.09,0,0,0-10.74,5.77c-.41.48-.69.67-.14.34C59,84.58,68.35,81.92,74.42,85.07Z"/><path class="cls-6" d="M97.38,86.88l.94-1a7.18,7.18,0,0,1,6.84-2.42,11.89,11.89,0,0,1,7.87,6.7c.25.51.45.72,0,.35C110.32,87.93,103,84.41,97.38,86.88Z"/><path class="cls-7" d="M106,58s-2.87,23.88-37.46,16.38c0,0,37.37-16,0-17,0,0,7.67,11.11-16.79,7.95,0,0,17.85-.44-6.65,20.81,0,0-3.1,1.36-3.23,14.35,0,.87-6.35-1.55-5.94-10.66,0,0-8.19-9.18,2.07-20.63,0,0-7.36-18.63,8.45-19.81,0,0,2.35-13.43,15.82-13.28,0,0,15.13-18.63,30.68-2.66,0,0,14.28-9.83,25,7.78,0,0,15.47,1.85,12.53,14.4,0,0,14.75,9.17,4.87,19.28,0,0,9.63,9.28-.72,20.4l-8.19,12.08.1-1.48a66.26,66.26,0,0,0-4.74-29.46l-.37-.91S121.32,66.26,106,58Z"/><path class="cls-8" d="M139.29,68.05C127.08,60,108.61,57.31,86.21,54.94a139.4,139.4,0,0,0-42.88,2.71s-3.37.64-9.61,4.19S12.9,76.72,11,82.08c1.75-3.48,21-16.61,83.78-10.52,41,4,59.74,13.12,65.87,19.08C159.43,86.56,150.31,75.33,139.29,68.05Z"/><path class="cls-9" d="M160.62,90.91a.33.33,0,0,1-.16-.07c-3.39-3.3-18.15-14.41-65.72-19-5.54-.54-10.95-.94-16.08-1.21C28.8,68.06,12.77,79.11,11.19,82.2a.25.25,0,0,1-.32.13.28.28,0,0,1-.14-.34c2-5.67,17.07-17.09,22.87-20.39,6.2-3.52,9.54-4.19,9.68-4.21A142.35,142.35,0,0,1,80.19,54.2c2,.1,4.07.26,6,.47C108,57,127,59.55,139.45,67.82c11,7.28,20.18,18.51,21.43,22.74a.3.3,0,0,1-.11.31A.28.28,0,0,1,160.62,90.91Z"/><path class="cls-10" d="M40.16,67.38C44.56,62.1,51.62,59,57.63,56.85a71.83,71.83,0,0,1,7.6-2.27,135.87,135.87,0,0,0-21.9,3.07s-3.37.64-9.61,4.19S12.9,76.72,11,82.08C12,80,19.53,74.32,39.25,71.55A4.52,4.52,0,0,1,40.16,67.38Z"/><path class="cls-10" d="M116.5,60.15a87.53,87.53,0,0,1,13.64,7.49c3.25,2.21,7,5.72,6.2,10.45a5.77,5.77,0,0,1-.2.82c13.43,3.92,21,8.34,24.49,11.73-1.2-4.08-10.32-15.31-21.34-22.59-7.34-4.87-17-7.76-28.34-9.82A44.91,44.91,0,0,1,116.5,60.15Z"/><path class="cls-8" d="M35,58.88s-.35-20.9,25-33.82c27.52-14,55.83.49,63.91,7.59s15.42,20.85,15.47,33.06c0,0-33.54-8.93-49.59-10S44.89,54.79,35,58.88Z"/><path class="cls-9" d="M86.15,55.17c1.31.06,2.55.13,3.73.22,15.05,1.06,45.83,9.06,49.32,10-.19-12.65-7.84-25.9-15.37-32.51-5.58-4.89-19.76-12.48-36-13.32a54.07,54.07,0,0,0-27.6,5.77C37.12,37,35.42,55.58,35.29,58.48,45.17,54.64,71,54.39,86.15,55.17Z"/><path class="cls-10" d="M126.32,52.06c-3.44,4.18-8.72,5.33-13.42,5.93-1.63.2-3.25.33-4.88.41,15.26,3,31.44,7.31,31.44,7.31-.05-11.29-6.31-23.89-13.66-31.35C128.93,39.5,130.59,46.86,126.32,52.06Z"/><path class="cls-10" d="M70.16,52.64c-5.75-1.74-12-3.91-16.72-8.26-4.06-3.78-5.2-7.9-4.48-12C34.79,44.66,35,58.88,35,58.88c8.07-3.34,28.92-4.13,45-3.68C76.72,54.46,73.41,53.63,70.16,52.64Z"/><path class="cls-11" d="M89.91,52.42c13,.82,47,8.44,50.24,11.11,0,0,.18,4.34-.28,5.15s-16.05-7.15-47.1-9.92c-40.85-3.64-57.2,2.88-58.27,3s0-4.75.5-5.44S52.2,50,89.91,52.42Z"/><path class="cls-3" d="M139.64,69a19.82,19.82,0,0,1-3.32-1c-6.18-2.08-20.67-6.95-43.57-9-3.74-.34-7.43-.6-11-.78-13.26-.68-32.09-.62-46.38,3.54a5.32,5.32,0,0,1-.86.23h-.09a.58.58,0,0,1-.51-.43c-.48-1.15.39-4.83.88-5.45s16.94-6.41,55.12-4c12.72.81,47.1,8.42,50.38,11.16l.09.08v.12c0,.45.17,4.45-.31,5.29C140,69,139.72,69,139.64,69Z"/><path class="cls-12" d="M140.15,63.53c-1.82-1.51-13.54-4.61-25.71-7.17a12.07,12.07,0,0,0,1.25.48c11.66,4,3,4.18-6.08,2.33a182.63,182.63,0,0,0-32.79-3.69C62.67,55,58.49,51.93,69.9,52a20.33,20.33,0,0,0,2.29-.12c-25.26,0-36.74,3.9-37.19,4.47s-1.57,5.56-.5,5.44,17.42-6.63,58.27-3c31.05,2.77,46.64,10.72,47.1,9.92S140.15,63.53,140.15,63.53Z"/><path class="cls-13" d="M46.12,68.7s26.4-4.79,84.73,6.63C130.85,75.33,85.42,61.49,46.12,68.7Z"/><path class="cls-14" d="M79.58,112.43s.33,3,4.77,3.49,5.53-2.67,5.53-2.67S85,117.37,79.58,112.43Z"/><path class="cls-15" d="M129.23,105.39a2.2,2.2,0,0,1,2.67-.57,2.7,2.7,0,0,1,1,1.85,12.72,12.72,0,0,1-.7,6.18c-.77,2.41-2,5-4.36,5.94a1,1,0,0,1-.66.11c-.5-.14-.56-.81-.51-1.33l.17-2.12a2.61,2.61,0,0,1,.35-1.32,3,3,0,0,1,1.09-.79,3.24,3.24,0,0,0,1.62-1.72,1.61,1.61,0,0,0-.47-1.68c-.45-.36-1.41,0-1.72-.46C127.21,108.77,128.69,106,129.23,105.39Z"/><path class="cls-15" d="M38.62,100.71a2.45,2.45,0,0,0-2.85-.69,2.75,2.75,0,0,0-1.2,1.84A12.25,12.25,0,0,0,35,108.2c.71,2.49,1.94,5.13,4.41,6.24a1.17,1.17,0,0,0,.7.14c.55-.12.64-.81.62-1.33l-.08-2.18a2.56,2.56,0,0,0-.32-1.36,3.47,3.47,0,0,0-1.13-.85A3.33,3.33,0,0,1,37.56,107a1.63,1.63,0,0,1,.59-1.7c.5-.34,1.52,0,1.88-.39C40.63,104.24,39.18,101.33,38.62,100.71Z"/></g></g></svg>