<svg id="Layer_1" data-name="Layer 1" xmlns="http://www.w3.org/2000/svg" viewBox="0 0 43.07 31.82"><defs><style>.cls-1{fill:#fad2c6;}.cls-1,.cls-2{stroke:#323232;stroke-miterlimit:10;stroke-width:0.5px;}.cls-2{fill:none;}.cls-3{fill:#dc9e8f;}.cls-4{fill:#323232;}</style></defs><path class="cls-1" d="M20.59,13.94C22.21,13.69,32.47,29.88,36,29.29c0,0,2-1,4.36-6.21a3.69,3.69,0,0,0,.17-.42c1.84-5-4.13-9.91-4.13-9.91l-1.57,1.64L33,16.24A47.58,47.58,0,0,1,21.29,5.06c-.26-.35-.35-.86-.7-1C17.34,2.47,15.25-.11,15,1.87c-.31,2.31,5,4.82,2.79,4.6-3.44-.34-3.64-2.31-4.65,2.21C11.71,14.92,15.93,14.64,20.59,13.94Z"/><path class="cls-1" d="M13,11.51C7.77,10,7.83,8.35,6.78,9.51c-1.26,1.37,5.24,3.82,8.27,4.54"/><path class="cls-2" d="M18.24,6.14a4.15,4.15,0,0,0-1.11,2.67,12.07,12.07,0,0,0,.27,2.93"/><path class="cls-1" d="M15.16,5.86c-1-.5-5.81-2.13-7.3-1.68-1.25.38,2.77,3,5.79,3.75"/><path class="cls-1" d="M13.2,9.28C8.54,8.61,7,6.16,5.8,7.22,4.23,8.66,10.11,11,13.13,11.71"/><path class="cls-1" d="M13.63,8C8.3,5.93,6.81,4.22,5.52,5.1s4.68,3.67,7.7,4.39"/><path class="cls-3" d="M34.79,14.81a3.61,3.61,0,0,1,.35.33,22.56,22.56,0,0,1,4.06,5.25c.47.87.59,1.56,1,2.46,1.84-5-3.84-9.69-3.84-9.69Z"/><path class="cls-4" d="M32.21,15.37a4.19,4.19,0,0,1,1.67,1.28,16.16,16.16,0,0,1,1.35,1.51,5.75,5.75,0,0,1,1.39,3.73A5.68,5.68,0,0,0,35,18.32a17.07,17.07,0,0,0-1.42-1.4,3.92,3.92,0,0,0-1.54-1.07Z"/></svg>