<svg id="Layer_1" data-name="Layer 1" xmlns="http://www.w3.org/2000/svg" viewBox="0 0 14 8"><defs><style>.cls-1{fill:#551514;}.cls-2{fill:#d72b5d;}.cls-3{fill:#fff;}.cls-4{fill:#bb7757;}.cls-5{fill:#dc9e8f;}</style></defs><g id="S"><path class="cls-1" d="M12.46,3.58,9.6,3.81a10.89,10.89,0,0,1-2.89-.35A16.76,16.76,0,0,1,4.09,2.8c-.28-.16-2.78-1.4-2.78-1.4s.44,1.5.59,2.08a4.47,4.47,0,0,0,.58,1.1,3.73,3.73,0,0,0,1.9,1.64,10.85,10.85,0,0,0,3.86.7A15,15,0,0,0,11,5.32C11.27,5.07,12.46,3.58,12.46,3.58Z"/><path class="cls-2" d="M9,5.19a3.62,3.62,0,0,0-1.57-.5,20.1,20.1,0,0,0-2.19-.25c-.13,0-.27,0-.41,0l-.3,0c-.08,0-.24.17-.24.17-.3.24,0,.68.17.82a3.7,3.7,0,0,0,1.37.36,17.13,17.13,0,0,0,2.36.31c.25,0,.7.13.91-.06A.53.53,0,0,0,9,5.19Z"/><path class="cls-3" d="M10.82,4l-4-.43-3.93-1a3.79,3.79,0,0,0,.29.75,3.72,3.72,0,0,0,1.15.9A14,14,0,0,0,8.88,5a2.56,2.56,0,0,0,1.51-.58C10.51,4.32,10.82,4,10.82,4Z"/><path class="cls-3" d="M9.77,6.33a2.87,2.87,0,0,0-.54-.55c-.59-.33-1.54,0-2.7-.2s-2-.72-2.64-.57a3.57,3.57,0,0,0-.69.32l.73.78L6.32,7l2.11-.24Z"/><path class="cls-4" d="M12.57,3.44a12.57,12.57,0,0,1-2.43,2,6.21,6.21,0,0,1-3.92.67A5.86,5.86,0,0,1,3.34,4.59,11.38,11.38,0,0,1,1.22,1.17s0,.16,0,.2A8.64,8.64,0,0,0,2.48,4.65,5.55,5.55,0,0,0,6,7.12a5.19,5.19,0,0,0,4.45-1.21,8.46,8.46,0,0,0,2-2.26S12.57,3.44,12.57,3.44Z"/><path class="cls-4" d="M12.59,3.32a9.56,9.56,0,0,1-2.82.43,20.9,20.9,0,0,1-5.55-1,11.53,11.53,0,0,1-3-1.56s.07.2.09.23A8.27,8.27,0,0,0,3.62,3.09a16.12,16.12,0,0,0,3.23,1,16.61,16.61,0,0,0,3.35.21,5.23,5.23,0,0,0,2.36-.81S12.59,3.32,12.59,3.32Z"/><path class="cls-5" d="M1,.76C1.29.57,1,.49.81.67a1.26,1.26,0,0,0-.21.67A6.37,6.37,0,0,1,1,.76Z"/><path class="cls-5" d="M13.07,3c-.24-.2,0-.26.23-.06s.06.64.06.64C13.18,3.09,13.15,3.06,13.07,3Z"/></g></svg>