<svg id="Layer_1" data-name="Layer 1" xmlns="http://www.w3.org/2000/svg" viewBox="0 0 63.33 65.7"><defs><style>.cls-1,.cls-2,.cls-7,.cls-8{fill:#3d2d16;}.cls-1,.cls-2,.cls-7{stroke:#3d2d16;}.cls-1,.cls-2,.cls-4,.cls-7{stroke-miterlimit:10;}.cls-1,.cls-4{stroke-width:0.25px;}.cls-3{fill:#fff;}.cls-11,.cls-4{fill:#fad2c6;}.cls-4{stroke:#323232;}.cls-5{fill:#dc9e8f;}.cls-6{fill:#e8d860;}.cls-7{stroke-width:0.5px;}.cls-9{fill:#a67d48;}.cls-10{fill:#ef4b3b;}.cls-12{fill:#323232;}.cls-13{fill:#f49990;}</style></defs><path class="cls-1" d="M13.82,56.52c3.36,9,13.32,5.6,26.73,0,.34-.14.44,5.21.78,5.06,12.21-5.39,20.56-7.47,16.51-24.21C55.53,27.79,41.47,24.45,29,29.12S10.37,47.29,13.82,56.52Z"/><path class="cls-2" d="M11.55,39.35c-.23.57-.74,18.7,7,23a12.31,12.31,0,0,0,9.91.64Z"/><path class="cls-3" d="M27.4,56.38s-4.21.6-5.54,3.82C23.16,60.59,24.48,61.15,27.4,56.38Z"/><path class="cls-4" d="M12,43.59c0-.08.13,0,.07.08s-.15,0-.2-.08a5.2,5.2,0,0,0-2.37-1.38,2,2,0,0,0-1.8.2A2.51,2.51,0,0,0,7.21,45,8.45,8.45,0,0,0,9.5,48.88c1.89,1.82,4.81,2.64,7,1.43"/><path class="cls-5" d="M10.14,45.13a8.21,8.21,0,0,1,1,.56c.25.17.54.45.47.76s-.34.38-.37.64a.55.55,0,0,0,.49.54c.24,0,.48-.06.72,0a1.11,1.11,0,0,1,.85.63.9.9,0,0,1,.1.39.62.62,0,0,1-.59.6,1.65,1.65,0,0,1-.88-.29,7.26,7.26,0,0,1-1.79-1.26C9.33,46.84,7.9,44.07,10.14,45.13Z"/><path class="cls-6" d="M14.76,49.36s2.84,2.43,1.57,3.88-2.57-2.38-2.57-2.38,1.9,2.75,1.45.63Z"/><path class="cls-4" d="M7.27,36c.26.27,4.28,11.09,5.9,16.25,1.91,6.06,10.09,12.12,17.35,10.95,8.91-1.43,16.31-6,18.89-13.66s0-17,0-17,5.19-11.09-4.82-17.58-20.76-7.82-33.1-1.94S7.27,36,7.27,36Z"/><path class="cls-5" d="M40.44,27.07C40,27,28.91,20.55,28.91,20.55S34.57,24.8,32,24.94c-.71,0-7.28-1.52-9.78-3.65,0,0,1.71,3.8,4,4,0,0-8.74,2.79-13.07-3.49,0,0,1.94,3.41-4.1,8.11-4.69,3.64-.31,9.58-.31,9.58L4,25.89l4.65-7.4,14.24-4.33,12.61.9,6.47,8.8,7.48,8.6Z"/><path class="cls-7" d="M9.61,42C9,40,7.92,34,8.63,32.11c1.42-3.87,4-5,5.31-6.5.86-1,0-4.39.66-5.48s.11,1.39,0,0c1,1.93,1,3.36,3.08,4a15.87,15.87,0,0,0,6.1.52,9.31,9.31,0,0,1-3-2.71,17.73,17.73,0,0,1-1.43-4.27,23.65,23.65,0,0,0,13,6.48,11,11,0,0,1-4.46-5.73,3.65,3.65,0,0,1,1.93.84,69.17,69.17,0,0,0,10.48,6.47c-.06-.59.16-1.15.09-1.74,2.19,3.65,9.5,9.8,9.41,9.58,0,0,4.19,18.89-7.73,27.59a31.33,31.33,0,0,0,12.15-4.36C61.1,52.72,64,44.44,57.69,33.2S53.6,16.48,48.66,10C42.78,2.21,26.57-5.59,7.54,12.63c0,0-9.61,6-1.06,24.87C6.48,37.5,9.8,42.6,9.61,42Z"/><path class="cls-8" d="M15.83,31.84s-3.82-.07-5,3a.12.12,0,0,1-.24,0,3.16,3.16,0,0,1,2.14-3.51C16.14,29.86,15.83,31.84,15.83,31.84Z"/><path class="cls-8" d="M29.82,28.39s4-1.57,6.51.75c.1.1.28,0,.24-.12-.24-.82-1-2.43-3.71-2.4C28.66,26.68,29.82,28.39,29.82,28.39Z"/><path class="cls-9" d="M22.79,41.2a3.56,3.56,0,0,1,1.08,2.73,4,4,0,0,1-.39,1.49A3,3,0,0,0,23,46.71a1.34,1.34,0,0,0,.47,1.1,2,2,0,0,0,1.21.41,4.12,4.12,0,0,0,2.57-1l0,0h0a1.51,1.51,0,0,0,.74-.46.69.69,0,0,0,0-.84,1,1,0,0,1,.25.42.73.73,0,0,1-.08.5,1.69,1.69,0,0,1-.79.63l0,0a4.19,4.19,0,0,1-2.76,1.22,2.34,2.34,0,0,1-1.52-.5,1.79,1.79,0,0,1-.64-1.5,3.36,3.36,0,0,1,.53-1.46,4,4,0,0,0,.44-1.32A3.81,3.81,0,0,0,22.79,41.2Z"/><path class="cls-10" d="M5.25,14.81a25.15,25.15,0,0,1,8.64-4.61c15-4.56,31.37,5.55,36.55,22.59.1.33.19.66.28,1,.5-.28,1-.53,1.53-.77-.12-.48-.26-1-.41-1.45C46.66,14.52,30.3,4.41,15.29,9A25.36,25.36,0,0,0,5.25,14.81Z"/><path class="cls-11" d="M49.9,34.33c0-.06-.11.11,0,.11s.13-.1.16-.19a5.64,5.64,0,0,1,1.52-2.56,2.81,2.81,0,0,1,1.93-.94,2.42,2.42,0,0,1,2,1.84,7.44,7.44,0,0,1,.07,4.55,7.73,7.73,0,0,1-6.16,5.43"/><path class="cls-12" d="M49.9,34.33c-.06,0-.09.08,0,.1s.1,0,.13-.08a2.42,2.42,0,0,0,.1-.32,5,5,0,0,1,.23-.65A5.65,5.65,0,0,1,51,32.2a3.63,3.63,0,0,1,2.26-1.53,1.87,1.87,0,0,1,1.34.4,3,3,0,0,1,.85,1.11,6.82,6.82,0,0,1,.58,2.7A8,8,0,0,1,54.15,40a8.28,8.28,0,0,1-2.1,1.77,7.12,7.12,0,0,1-2.61.83A7.51,7.51,0,0,0,54,39.87a7.74,7.74,0,0,0,1.78-5,6.64,6.64,0,0,0-.51-2.61,2.1,2.1,0,0,0-2-1.43,3.51,3.51,0,0,0-2.18,1.43,6.14,6.14,0,0,0-.73,1.14,4.39,4.39,0,0,0-.26.63,3,3,0,0,1-.12.32s-.08.1-.14.08S49.85,34.28,49.9,34.33Z"/><path class="cls-5" d="M52.67,34.47A10.59,10.59,0,0,0,52,35.54c-.15.29-.26.7,0,.91s.58.09.77.29a.54.54,0,0,1-.17.74c-.22.17-.51.24-.74.41a1.11,1.11,0,0,0-.47,1,.69.69,0,0,0,.14.39.77.77,0,0,0,1,.12,2.17,2.17,0,0,0,.7-.77,7.62,7.62,0,0,0,1-2.11C54.53,35.38,54.28,32.24,52.67,34.47Z"/><path class="cls-6" d="M50.62,40.73s-1.37,3.71.79,4.12,1.12-3.5,1.12-3.5-.23,3.4-1.07,1.39Z"/><path class="cls-10" d="M44.37,13.41s10.81.21,7.52,5.73S42.62,26.9,41.4,16.38c-.76-6.61-2.3-1.58-2.3-1.58s-13.61-2.47-4.76-9.34c8.18-6.35,7,5.8,7,5.8S44,9.17,44.37,13.41Z"/><ellipse class="cls-13" cx="38" cy="4.85" rx="0.97" ry="0.83" transform="translate(0.3 11.63) rotate(-17.46)"/><ellipse class="cls-13" cx="49.19" cy="15.61" rx="0.97" ry="0.83" transform="translate(-2.42 15.48) rotate(-17.46)"/><ellipse class="cls-13" cx="50.91" cy="18.04" rx="0.97" ry="0.83" transform="translate(-3.07 16.11) rotate(-17.46)"/><ellipse class="cls-13" cx="46.66" cy="17.78" rx="0.97" ry="0.83" transform="translate(-3.19 14.82) rotate(-17.46)"/><ellipse class="cls-13" cx="43.52" cy="17.15" rx="0.97" ry="0.83" transform="translate(-3.14 13.85) rotate(-17.46)"/><ellipse class="cls-13" cx="44.61" cy="20.85" rx="0.97" ry="0.83" transform="matrix(0.95, -0.3, 0.3, 0.95, -4.2, 14.35)"/><ellipse class="cls-13" cx="48.19" cy="20.68" rx="0.97" ry="0.83" transform="translate(-3.99 15.41) rotate(-17.46)"/><ellipse class="cls-13" cx="45.85" cy="15.03" rx="0.97" ry="0.83" transform="translate(-2.4 14.45) rotate(-17.46)"/><ellipse class="cls-13" cx="40.21" cy="7.74" rx="0.97" ry="0.83" transform="translate(-0.47 12.42) rotate(-17.46)"/><ellipse class="cls-13" cx="33.66" cy="9.34" rx="0.97" ry="0.83" transform="translate(-1.25 10.53) rotate(-17.46)"/><ellipse class="cls-13" cx="34.59" cy="6.26" rx="0.97" ry="0.83" transform="matrix(0.95, -0.3, 0.3, 0.95, -0.28, 10.67)"/><ellipse class="cls-13" cx="37.11" cy="8.25" rx="0.97" ry="0.83" transform="translate(-0.77 11.52) rotate(-17.46)"/><ellipse class="cls-13" cx="39.23" cy="10.34" rx="0.97" ry="0.83" transform="translate(-1.3 12.25) rotate(-17.46)"/><ellipse class="cls-13" cx="36.15" cy="11.53" rx="0.97" ry="0.83" transform="translate(-1.79 11.38) rotate(-17.46)"/><ellipse class="cls-13" cx="38.44" cy="12.73" rx="0.97" ry="0.83" transform="translate(-2.05 12.12) rotate(-17.46)"/><ellipse class="cls-10" cx="41.67" cy="13.73" rx="2.99" ry="2.24" transform="translate(3.95 36.14) rotate(-48.95)"/></svg>