<svg id="Layer_1" data-name="Layer 1" xmlns="http://www.w3.org/2000/svg" viewBox="0 0 21 10"><defs><style>.cls-1{fill:#8c3e36;}.cls-2{fill:#fff;}.cls-3{fill:#d26653;}.cls-4{fill:#f5968e;}.cls-5{fill:#f48678;}.cls-6{fill:#e9a597;opacity:0.5;}</style></defs><g id="EE"><path class="cls-1" d="M19.14,2.15s-2.92.27-3.52.3a23.72,23.72,0,0,1-2.53,0L8.74,2.24a12.08,12.08,0,0,1-2.1-.31,6.88,6.88,0,0,0-1.86-.29,4,4,0,0,0-1.14.14L2,1.15A6.57,6.57,0,0,0,3,3.61c.25.43.78,1.12,1,1.55C5,6.73,6.82,7.1,8.78,7.48a11.14,11.14,0,0,0,3.36.07,5.86,5.86,0,0,0,2.17-.42c.24-.13.36-.07.57-.23s1.12-.45,1.38-.79.8-.7,1.13-1.09C17.85,4.46,19.14,2.15,19.14,2.15Z"/><path class="cls-2" d="M16.54,2.76S15,2.47,14.88,2.44s-4.5-.08-4.5-.08S6,1.89,5.88,1.91,4,1.93,4,1.93a11.6,11.6,0,0,0,.69,1.33,14.82,14.82,0,0,0,5.63,1.38,14.47,14.47,0,0,0,5.48-.44A3.66,3.66,0,0,0,16.54,2.76Z"/><path class="cls-3" d="M6.83,6.8c.78.58,1.48.82,3.43.93a6.39,6.39,0,0,0,3.46-.65c-.08-.53-1.66-1.08-2.53-.93a25.8,25.8,0,0,1-2.68-.09C7.85,6.15,7.07,6.34,6.83,6.8Z"/><path class="cls-2" d="M16,6.09s-1.58.36-2.43.44-3.13.15-3.13.15-2.14-.15-2.85-.29-2.87-.65-2.87-.65L7.6,8.22l2.71.38h0l.23,0v0l2.72-.09Z"/><path class="cls-4" d="M19.14,2.15A13.64,13.64,0,0,1,16,6.09a9.17,9.17,0,0,1-5.83,2A9.22,9.22,0,0,1,4.25,5.12,11.16,11.16,0,0,1,2,1.15s1.17,7.86,8,8.26C16.29,9.78,19.14,2.15,19.14,2.15Z"/><path class="cls-5" d="M10.41,2.2C7.19,2,2,1.15,2,1.15s1.34,1.32,8.38,1.73c8.07.47,8.72-.73,8.72-.73S13.72,2.35,10.41,2.2Z"/><path class="cls-6" d="M2,.71C2.29.38,1.89.32,1.66.63a1.91,1.91,0,0,0-.18,1A10.21,10.21,0,0,1,2,.71Z"/><path class="cls-6" d="M18.92,1.71c-.36-.27,0-.4.31-.14s.2.94.2.94C19.1,1.83,19,1.79,18.92,1.71Z"/></g></svg>