<svg id="Layer_1" data-name="Layer 1" xmlns="http://www.w3.org/2000/svg" viewBox="0 0 17.07 9.98"><defs><style>.cls-1{fill:#f5968e;}.cls-2{fill:#f48678;}.cls-3{fill:#765a47;}.cls-4{fill:#e9a597;opacity:0.5;}</style></defs><g id="neutral"><path class="cls-1" d="M15.6,3A13.54,13.54,0,0,1,9.86,6.61a13.09,13.09,0,0,1-6.77-.37C3,6,5.8,6.67,9.55,5.71A44,44,0,0,0,15.6,3Z"/><path class="cls-2" d="M15.73,2.87c-.06-.14-3.27,1.81-6.44,2.65a36,36,0,0,1-6.36.7,13.88,13.88,0,0,0,6.5-.11A16.58,16.58,0,0,0,15.73,2.87Z"/><path class="cls-3" d="M2.81,6.2A20,20,0,0,0,9.72,6a15.85,15.85,0,0,0,6-3.14A17.62,17.62,0,0,1,9.72,6,18,18,0,0,1,2.81,6.2Z"/><path class="cls-4" d="M2.66,5.81c.06-.39-.25-.21-.26.12a1.49,1.49,0,0,0,.37.78A7.61,7.61,0,0,1,2.66,5.81Z"/><path class="cls-4" d="M15.77,2.39c-.27-.27.08-.32.29-.07s.05.79.05.79C15.91,2.52,15.86,2.48,15.77,2.39Z"/></g></svg>