<svg id="Layer_1" data-name="Layer 1" xmlns="http://www.w3.org/2000/svg" xmlns:xlink="http://www.w3.org/1999/xlink" viewBox="0 0 83 17"><defs><style>.cls-1{fill:none;}.cls-2{clip-path:url(#clip-path);}.cls-3{fill:#eb652f;}.cls-4{fill:#f6a42c;}.cls-5{fill:#fff18b;}.cls-6{fill:#281b17;}.cls-7{fill:#473a3a;}.cls-8{fill:#5e5454;}</style><clipPath id="clip-path"><path class="cls-1" d="M34.51.31S45.69.24,47.92.46c0,0,4,4.64,1,8.44s-7.43,6.54-11,4.92S30.91,5,34.51.31Z"/></clipPath></defs><g class="cls-2"><path class="cls-3" d="M42-5.16a3.56,3.56,0,0,1,1.66,3C43.56-.63,42.51,0,42.45,1.49a1.71,1.71,0,0,0,1,1.69,3,3,0,0,1,1.4-3.55,2.46,2.46,0,0,0-.29,2.25A6.29,6.29,0,0,1,46.33,6c0,2.47-2.68,4.33-4.37,4.33S36.61,9.23,36.61,6a6.87,6.87,0,0,1,.46-2.19A2.62,2.62,0,0,0,38.9,6,3.9,3.9,0,0,1,37.82,2.1C38.5-.71,41.37-2.23,42-3.14A1.92,1.92,0,0,0,42-5.16Z"/><path class="cls-4" d="M40.79.83C39.71,2.47,40,3,40.61,4.3s-.82,2.59-1,3.49A2.37,2.37,0,0,0,42,10.29c1.42,0,2.22-1.54,2.22-2.89S43.08,5,41.59,3.93A2.28,2.28,0,0,1,40.79.83Z"/><path class="cls-5" d="M41.47,5.94c.76.61,1.87,1.64,1.65,2.77A2.35,2.35,0,0,1,42,10.29c-.27-.12-1-.52-1-1.11s.9-.76,1.08-1.34C42.32,7,41.47,5.94,41.47,5.94Z"/></g><path class="cls-6" d="M25.19,16.66c.94-.61,9.14-6.13,9.35-6.25a1.6,1.6,0,0,0-.37-.13l-.42-.47c-.18,0-9.07,6.19-10,6.79Z"/><path class="cls-6" d="M56,16.7l1.41-.09c-.72-.48-9-7-9.16-7.07l-1.4.24.35.06C47.4,10,55.23,16.17,56,16.7Z"/><path class="cls-7" d="M49.91,6.1V9.92H32.36V5.8a12.43,12.43,0,0,1,3.84-.65,65.3,65.3,0,0,1,11.51.2S49.39,5.45,49.91,6.1Z"/><ellipse class="cls-8" cx="41.14" cy="9.54" rx="8.78" ry="1.66"/><path class="cls-8" d="M32.81,7.88c-.28,0-28.9-4.26-30.28-4.61"/><path class="cls-6" d="M32.81,8.3V7.88l0-.43c-.19,0-28-4.09-29.52-4.48l-2.21.41C2.07,3.62,32.27,8.3,32.81,8.3Z"/><path class="cls-6" d="M49.14,7.9c.09,0,.37,0,4-.54,7.48-1,26.36-3.86,28.71-3.89l-3-.57c-2.41,0-18.31,2.59-25.8,3.62-2.12.29-3.79.52-3.94.53Z"/></svg>