<svg id="Layer_1" data-name="Layer 1" xmlns="http://www.w3.org/2000/svg" viewBox="0 0 40 20"><defs><style>.cls-1{fill:#551514;}.cls-2{fill:#fff;}.cls-3{fill:#d72b5d;}.cls-4{fill:#bb7757;}.cls-5{fill:#dc9e8f;}</style></defs><g id="EE"><path class="cls-1" d="M37.86,2.76S31.94,3.92,30.71,4.1c-1.7.26-3.47.49-5.2.58-3,.15-6,.36-9,.51a25.42,25.42,0,0,1-4.37-.13A15.68,15.68,0,0,0,8.3,4.91,9.47,9.47,0,0,0,6,5.43L2.58,4.58A12.24,12.24,0,0,0,5,9.05c.61.76,1.83,2,2.45,2.74,2.22,2.78,6.11,3.08,10.21,3.38a25.06,25.06,0,0,0,6.91-.59c1.37-.3,3.23-.51,4.36-1.27.47-.31.72-.22,1.13-.58.64-.55,2.22-1.09,2.67-1.79s1.51-1.5,2.1-2.32C35.69,7.45,37.86,2.76,37.86,2.76Z"/><path class="cls-2" d="M31.91,4.76l-2.72-.52c-.21,0-9.26.83-9.26.83s-9.12.07-9.32.13-2.52.44-2.52.44a21.93,21.93,0,0,0,2,2.81c1.09.65,4.56.78,10.06.55,5.73-.23,8.25-.64,9.86-1.47C30.9,7.09,31.91,4.76,31.91,4.76Z"/><path class="cls-3" d="M13.54,14.31c1.72.92,3.22,1.22,7.22,1a14.09,14.09,0,0,0,7-2c-.28-1-3.62-1.71-5.39-1.23-1.93.53-4.3.12-5.51.41S13.94,13.38,13.54,14.31Z"/><path class="cls-2" d="M32.2,11S29,12,27.3,12.32s-6.39,1-6.39,1-4.43.18-5.9.06c-1.77-.15-6-.61-6-.61l6.43,4.09,5.63.15h.47v-.08l5.55-.78Z"/><path class="cls-4" d="M37.86,2.76A26.42,26.42,0,0,1,32.2,11a17.89,17.89,0,0,1-10.83,5A21.51,21.51,0,0,1,7.92,11.66,21.11,21.11,0,0,1,2.58,4.58s4.73,14.68,18.84,14C34.31,17.87,37.86,2.76,37.86,2.76Z"/><path class="cls-4" d="M20,4.75c-6.64.41-17.39-.17-17.39-.17s3,2.23,17.53,1.48c16.67-.86,17.75-3.3,17.75-3.3S26.78,4.33,20,4.75Z"/><path class="cls-5" d="M2.37,3.75c.57-.7-.26-.72-.68-.08a3.43,3.43,0,0,0-.15,2A17.33,17.33,0,0,1,2.37,3.75Z"/><path class="cls-5" d="M37.33,2c-.8-.42,0-.77.6-.33s.6,1.74.6,1.74C37.71,2.17,37.59,2.11,37.33,2Z"/></g></svg>