<svg id="Layer_1" data-name="Layer 1" xmlns="http://www.w3.org/2000/svg" viewBox="0 0 22.27 28.34"><defs><style>.cls-1{fill:#fbd3c7;stroke:#323232;stroke-miterlimit:10;stroke-width:0.25px;}.cls-2{fill:#323232;}.cls-3{fill:#dc9e8f;}</style></defs><path class="cls-1" d="M1,4.72c.07.25,1.23,1.1,1.23,1.1,1.13,3.13,5.76,8.4,7,9.5s2,2.23,1.72,3.52c-.58,2.42-.83,2.43-.66,3.28s-.91,1.57-.27,1.85,1.72-.81,1.83-2,.48-.95.48-.95c3.29,3.26,4.52,7.3,5.09,6.55s-.2-2.32-.2-2.32,1.16-2.16,1.05-2.92a13.18,13.18,0,0,0-3.5-5.61C12.34,14.15,9,6.15,7.88,4a8,8,0,0,1-.65-1.46C6.94,1.21,6.48.57,6.42.69,4.94,3.91,1,4.72,1,4.72Z"/><path class="cls-2" d="M17.29,25.22a6.18,6.18,0,0,1-.68-1.42,6.12,6.12,0,0,1-.31-1.53c.22.48.37,1,.55,1.46S17.18,24.7,17.29,25.22Z"/><path class="cls-2" d="M17.62,24.47c-.08-.47-.1-.92-.18-1.37s-.13-.9-.16-1.37a3.94,3.94,0,0,1,.41,1.34A3.88,3.88,0,0,1,17.62,24.47Z"/><path class="cls-2" d="M18,23.53a2.32,2.32,0,0,1-.2-.75,2.2,2.2,0,0,1,.05-.76,2.14,2.14,0,0,1,.2.74A2.21,2.21,0,0,1,18,23.53Z"/><path class="cls-3" d="M1.22,4.81a4.5,4.5,0,0,0,.61.49A9.72,9.72,0,0,0,7.15,2.58C6.84,1.47,6.51.74,6.45.87,5.35,3.58,1.22,4.81,1.22,4.81Z"/></svg>