<svg id="Layer_1" data-name="Layer 1" xmlns="http://www.w3.org/2000/svg" viewBox="0 0 15 10"><defs><style>.cls-1{fill:#551514;}.cls-2{fill:#d72b5d;}.cls-3{fill:#fff;}.cls-4{fill:#bb7757;}.cls-5{fill:#dc9e8f;}</style></defs><g id="S"><path class="cls-1" d="M13.51,5.28s-2.55,0-3.23,0a12.24,12.24,0,0,1-3.21-.67,17.61,17.61,0,0,1-2.89-1c-.29-.2-3-1.82-3-1.82s.35,1.72.47,2.38a4.9,4.9,0,0,0,.54,1.3,4.26,4.26,0,0,0,2,2A12.48,12.48,0,0,0,8.46,8.64a15.73,15.73,0,0,0,3.26-1.55C12,6.84,13.51,5.28,13.51,5.28Z"/><path class="cls-2" d="M9.45,6.76a4.08,4.08,0,0,0-1.71-.7,20.46,20.46,0,0,0-2.43-.48,3.69,3.69,0,0,0-.46-.08H4.51c-.08,0-.29.17-.29.17-.36.24-.09.76.12.93a3.9,3.9,0,0,0,1.5.53,17.14,17.14,0,0,0,2.63.57c.27,0,.77.21,1,0A.6.6,0,0,0,9.45,6.76Z"/><path class="cls-3" d="M11.63,5.64,7.14,4.79,2.83,3.27a4.35,4.35,0,0,0,.25.87A4.38,4.38,0,0,0,4.29,5.25,15.92,15.92,0,0,0,9.35,6.58a3,3,0,0,0,1.76-.52C11.25,5.93,11.63,5.64,11.63,5.64Z"/><path class="cls-3" d="M10.23,8.12a3.06,3.06,0,0,0-.54-.67C9.05,7,8,7.32,6.67,7S4.51,6,3.76,6.1A3.82,3.82,0,0,0,3,6.4l.75.93L6.31,8.51,8.7,8.43Z"/><path class="cls-4" d="M13.64,5.13a14,14,0,0,1-2.9,2,7,7,0,0,1-4.46.39A6.64,6.64,0,0,1,3.17,5.58a13.27,13.27,0,0,1-2-4,1.46,1.46,0,0,0-.06.23A9.7,9.7,0,0,0,2.21,5.56,6.22,6.22,0,0,0,6,8.66a5.83,5.83,0,0,0,5.1-1,9.67,9.67,0,0,0,2.51-2.35S13.64,5.13,13.64,5.13Z"/><path class="cls-4" d="M13.68,5a10.67,10.67,0,0,1-3.21.23A23.19,23.19,0,0,1,4.34,3.57a12.92,12.92,0,0,1-3.22-2,2.46,2.46,0,0,0,.08.27,9.28,9.28,0,0,0,2.43,2.1A18.19,18.19,0,0,0,7.16,5.33a18.3,18.3,0,0,0,3.75.55,5.83,5.83,0,0,0,2.72-.7A1.8,1.8,0,0,0,13.68,5Z"/><path class="cls-5" d="M1,1.06C1.25.87.94.76.7,1a1.36,1.36,0,0,0-.3.72A6.53,6.53,0,0,1,1,1.06Z"/><path class="cls-5" d="M14.25,4.67c-.25-.25.08-.29.26,0s0,.73,0,.73C14.37,4.8,14.33,4.76,14.25,4.67Z"/></g></svg>