<svg id="Layer_1" data-name="Layer 1" xmlns="http://www.w3.org/2000/svg" viewBox="0 0 45.72 43.81"><defs><style>.cls-1{fill:#342516;}.cls-2,.cls-4{fill:#fad2c6;}.cls-2{stroke:#323232;stroke-width:0.25px;}.cls-2,.cls-9{stroke-miterlimit:10;}.cls-3{fill:#3d2d16;}.cls-5{fill:#632323;}.cls-6{fill:#323232;}.cls-7{fill:#dc9e8f;}.cls-8{fill:#e8d860;}.cls-9{fill:none;stroke:#ef4b3b;stroke-width:2px;}.cls-10{fill:#ef4b3b;}.cls-11{fill:#f49990;}</style></defs><path class="cls-1" d="M7.79,15c-.07.54-4.32,6.11-1.37,13.15S4.9,40,12.12,42.39c4.79,1.61,11.64-1,11.71-1.25a10.19,10.19,0,0,0,.15-1l6.49-3.45.78,2.49s9-2.63,10.35-5c2.78-4.87-.32-7.09-1.6-16.4s-22.21-20.49-33.37-3Z"/><path class="cls-2" d="M36.06,13.3c.65,2.93,2.07,10.77,2,14.4-.22,8.18-8.76,11.91-10.45,12.19-2.71.45-8.85.64-12.6-3.09S9.55,25.49,9.55,25.49,5.81,18.3,9.8,11.55,19.35,3.3,25.86,3.8C33.8,4.42,36.06,13.3,36.06,13.3Z"/><path class="cls-3" d="M17.64,18.87s-2.8.24-3.62,2.35c0,.08-.16.08-.17,0a2.24,2.24,0,0,1,1.48-2.5C17.82,17.53,17.64,18.87,17.64,18.87Z"/><path class="cls-3" d="M28.27,17.18s2.68-.95,4.32.64c.06.06.18,0,.16-.08a2.26,2.26,0,0,0-2.41-1.66C27.54,16,28.27,17.18,28.27,17.18Z"/><path class="cls-4" d="M22.94,29.17a2.06,2.06,0,0,0,3.43-.55"/><path class="cls-5" d="M22.94,29.17a3.28,3.28,0,0,0,1.86.41,2,2,0,0,0,.84-.29,3,3,0,0,0,.73-.67,1.59,1.59,0,0,1-.49,1,1.69,1.69,0,0,1-1,.49A2,2,0,0,1,22.94,29.17Z"/><path class="cls-1" d="M26.07,11.05s-.58,3-4.74,5.4a3.71,3.71,0,0,0,.28-4s.49,5.06-5.48,6l1.14-4-3.9,6.19-.15-4.18s-4.28,13.53-6.14,14c0,0-6.31-13.24,2.85-23.37S32.32,3.74,32.32,3.74a18.85,18.85,0,0,1,7.57,19.09s-2.75,1.17-3.25.64-.28-2.18-2.53-6.17A13.73,13.73,0,0,0,26.07,11.05Z"/><path class="cls-4" d="M10.4,26.82c0-.05.09.05,0,.07s-.1,0-.13-.09a3.8,3.8,0,0,0-1.44-1.34,1.81,1.81,0,0,0-1.39-.23,1.59,1.59,0,0,0-1,1.54,4.9,4.9,0,0,0,.8,2.88,5.07,5.07,0,0,0,4.88,2.28"/><path class="cls-6" d="M10.4,26.82s.08,0,0,.06a.08.08,0,0,1-.11,0,1.24,1.24,0,0,1-.14-.18,2.3,2.3,0,0,0-.28-.34,3.37,3.37,0,0,0-.68-.57,2.22,2.22,0,0,0-1.62-.48,1.35,1.35,0,0,0-1,1.23,4.42,4.42,0,0,0,.16,1.73,5.15,5.15,0,0,0,5.38,3.68,4.71,4.71,0,0,1-3.47-.73,5.19,5.19,0,0,1-2.15-2.88,4.57,4.57,0,0,1-.14-1.84A1.52,1.52,0,0,1,7.59,25.1a2.37,2.37,0,0,1,1.72.57,3.92,3.92,0,0,1,.66.63c.09.11.18.24.26.36a.88.88,0,0,0,.12.19.07.07,0,0,0,.09,0S10.42,26.78,10.4,26.82Z"/><path class="cls-7" d="M8.68,27.42a6.31,6.31,0,0,1,.61.55c.15.16.29.4.17.57s-.34.17-.43.33.07.37.24.44.37.06.55.12a.75.75,0,0,1,.49.56.57.57,0,0,1,0,.26.5.5,0,0,1-.58.26,1.3,1.3,0,0,1-.59-.36,5.12,5.12,0,0,1-1-1.14C7.67,28.34,7.25,26.31,8.68,27.42Z"/><path class="cls-8" d="M11.12,31s1.55,2.09.27,2.74-1.36-2-1.36-2,.77,2.1.93.67Z"/><path class="cls-4" d="M37.07,21.47s-.07.08,0,.07.09-.07.1-.13a3.84,3.84,0,0,1,.92-1.73A1.89,1.89,0,0,1,39.32,19a1.63,1.63,0,0,1,1.4,1.15,4.84,4.84,0,0,1,.18,3A5.08,5.08,0,0,1,37,26.89"/><path class="cls-6" d="M37.07,21.47s0,.06,0,.07a.1.1,0,0,0,.08-.06,1.19,1.19,0,0,0,0-.22,3.52,3.52,0,0,1,.13-.43,3.86,3.86,0,0,1,.41-.81,2.45,2.45,0,0,1,1.45-1.1,1.54,1.54,0,0,1,1.54.94,4.6,4.6,0,0,1,.46,1.78,5.15,5.15,0,0,1-1.1,3.42,4.68,4.68,0,0,1-3,1.83,5.16,5.16,0,0,0,3.89-5.24A4.21,4.21,0,0,0,40.5,20a1.34,1.34,0,0,0-1.3-.86,2.29,2.29,0,0,0-1.38,1,3.9,3.9,0,0,0-.45.76,3.61,3.61,0,0,0-.16.42.94.94,0,0,1-.07.22s0,.07-.09.05S37,21.44,37.07,21.47Z"/><path class="cls-7" d="M38.9,21.47a5.18,5.18,0,0,0-.4.73c-.09.19-.15.46,0,.59s.38.05.51.17.06.37-.08.49-.33.18-.48.29a.74.74,0,0,0-.28.69.57.57,0,0,0,.11.25.49.49,0,0,0,.63.05,1.42,1.42,0,0,0,.44-.53,5.23,5.23,0,0,0,.6-1.42C40.14,22,39.88,20,38.9,21.47Z"/><path class="cls-8" d="M37.75,25.65s-.79,2.48.64,2.68S39,26,39,26s0,2.23-.66.94Z"/><path class="cls-9" d="M8.38,25.22s-3.38-9,2.8-16.78S28.32,2.6,32.67,7.18a17.24,17.24,0,0,1,4.95,13.27"/><path class="cls-10" d="M9.4,9.79S8,1.59,11.48,4.18s4.77,6.06-1,7.13c-1,.18-1.45.54-1.6,1.54-.35,2.26-.12,10.52-6.24,2.22-4.11-5.57,5.53-3,5.53-3S6.55,9.69,9.4,9.79Z"/><ellipse class="cls-11" cx="3.26" cy="13.29" rx="0.55" ry="0.64" transform="translate(-3.43 1.36) rotate(-15.5)"/><ellipse class="cls-11" cx="7.59" cy="15.03" rx="0.55" ry="0.64" transform="translate(-3.74 2.58) rotate(-15.5)"/><ellipse class="cls-11" cx="11.39" cy="7.49" rx="0.55" ry="0.64" transform="translate(-1.59 3.31) rotate(-15.5)"/><ellipse class="cls-11" cx="13.09" cy="7.81" rx="0.55" ry="0.64" transform="translate(-1.61 3.78) rotate(-15.5)"/><ellipse class="cls-11" cx="12.41" cy="5.98" rx="0.55" ry="0.64" transform="translate(-1.15 3.53) rotate(-15.5)"/><ellipse class="cls-11" cx="11.19" cy="4.91" rx="0.55" ry="0.64" transform="translate(-0.9 3.17) rotate(-15.5)"/><ellipse class="cls-11" cx="12.53" cy="9.76" rx="0.55" ry="0.64" transform="translate(-2.15 3.7) rotate(-15.5)"/><ellipse class="cls-11" cx="9.94" cy="5.12" rx="0.55" ry="0.64" transform="translate(-1.01 2.84) rotate(-15.5)"/><ellipse class="cls-11" cx="9.88" cy="7.74" rx="0.55" ry="0.64" transform="translate(-1.71 2.92) rotate(-15.5)"/><ellipse class="cls-11" cx="11.12" cy="9.73" rx="0.55" ry="0.64" transform="translate(-2.19 3.33) rotate(-15.5)"/><ellipse class="cls-11" cx="5" cy="12.35" rx="0.55" ry="0.64" transform="translate(-3.12 1.78) rotate(-15.5)"/><ellipse class="cls-11" cx="5.7" cy="16.53" rx="0.55" ry="0.64" transform="translate(-4.21 2.12) rotate(-15.5)"/><ellipse class="cls-11" cx="3.97" cy="15.63" rx="0.55" ry="0.64" transform="translate(-4.03 1.63) rotate(-15.5)"/><ellipse class="cls-11" cx="5.56" cy="14.4" rx="0.55" ry="0.64" transform="translate(-3.64 2.01) rotate(-15.5)"/><ellipse class="cls-11" cx="7.21" cy="17.48" rx="0.55" ry="0.64" transform="translate(-4.41 2.56) rotate(-15.5)"/><ellipse class="cls-11" cx="7.01" cy="12.91" rx="0.55" ry="0.64" transform="translate(-3.2 2.34) rotate(-15.5)"/></svg>