<svg id="Layer_1" data-name="Layer 1" xmlns="http://www.w3.org/2000/svg" viewBox="0 0 25.79 15.04"><defs><style>.cls-1{fill:#8c3e36;}.cls-2{fill:#fff;}.cls-3{fill:#d26653;}.cls-4{fill:#f5968e;}.cls-5{fill:#f48678;}.cls-6{fill:#e9a597;opacity:0.5;}</style></defs><g id="EE"><path class="cls-1" d="M24,1.5S20.4,3,19.65,3.27a33.47,33.47,0,0,1-3.22,1L10.82,5.79A17.89,17.89,0,0,1,8,6.27a10,10,0,0,0-2.47.4,5.79,5.79,0,0,0-1.4.63L1.9,7.2A7.87,7.87,0,0,0,4,9.71c.49.41,1.41,1,1.91,1.43,1.76,1.47,4.26,1.16,6.9.82a16.12,16.12,0,0,0,4.3-1.27,8.53,8.53,0,0,0,2.59-1.36c.26-.26.43-.24.64-.51.34-.44,1.26-1,1.46-1.48s.76-1.15,1-1.74C23.23,4.75,24,1.5,24,1.5Z"/><path class="cls-2" d="M20.93,3.27l-2.23.29C18.56,3.56,13,5.27,13,5.27S7.18,6.49,7.06,6.56s-2.41.78-2.41.78A14,14,0,0,0,6,8.63c.54.28,4.22.22,7.67-.63s6.49-2.31,6.8-2.72A4.58,4.58,0,0,0,20.93,3.27Z"/><path class="cls-3" d="M10.09,12c1.21.36,2.2.36,4.71-.29A9.16,9.16,0,0,0,19,9.5c-.3-.59-2.51-.61-3.57-.08s-2.71.63-3.44,1S10.23,11.3,10.09,12Z"/><path class="cls-2" d="M21.48,7.42s-1.88,1.06-2.93,1.5-3.92,1.43-3.92,1.43-2.78.68-3.73.8c-1.14.14-3.89.39-3.89.39l4.6,1.76,3.58-.63h0l.29-.06v0l3.42-1.21Z"/><path class="cls-4" d="M24,1.5a17.15,17.15,0,0,1-2.52,5.92,12.86,12.86,0,0,1-6.69,4.67A12.65,12.65,0,0,1,6.19,11,13.76,13.76,0,0,1,1.9,7.2S6.32,16,15.16,13.73C23.24,11.65,24,1.5,24,1.5Z"/><path class="cls-5" d="M12.93,5.07C8.78,6.18,1.9,7.2,1.9,7.2s2.19,1,11.29-1.32C23.64,3.18,24,1.5,24,1.5S17.19,3.92,12.93,5.07Z"/><path class="cls-6" d="M1.66,6.7c.27-.51-.26-.42-.44,0A2.18,2.18,0,0,0,1.38,8,11.39,11.39,0,0,1,1.66,6.7Z"/><path class="cls-6" d="M23.56,1.07C23,.9,23.45.59,23.9.78s.61,1,.61,1C23.83,1.15,23.75,1.12,23.56,1.07Z"/></g></svg>