<svg id="Layer_1" data-name="Layer 1" xmlns="http://www.w3.org/2000/svg" viewBox="0 0 15 10"><defs><style>.cls-1{fill:#bb7757;}.cls-2{fill:#765a47;}.cls-3{fill:#dc9e8f;}</style></defs><g id="neutral"><path class="cls-1" d="M12.45,6.29A10.35,10.35,0,0,1,6.68,7,9.89,9.89,0,0,1,1.86,3.76a17.81,17.81,0,0,0,5,2.33A31.63,31.63,0,0,0,12.45,6.29Z"/><path class="cls-1" d="M12.6,6.23c0-.15-3.18.21-5.88-.43a25.24,25.24,0,0,1-5-2.13A10.13,10.13,0,0,0,6.58,6.4,12.23,12.23,0,0,0,12.6,6.23Z"/><path class="cls-2" d="M1.67,3.61A14.66,14.66,0,0,0,6.82,6.45a11.76,11.76,0,0,0,5.74-.21,13,13,0,0,1-5.74.21A13.29,13.29,0,0,1,1.67,3.61Z"/><path class="cls-3" d="M1.72,3.19c.21-.32-.09-.3-.25,0A1.76,1.76,0,0,0,1.42,4,8.2,8.2,0,0,1,1.72,3.19Z"/><path class="cls-3" d="M12.83,5.83c-.09-.36.19-.27.24,0s-.3.74-.3.74C12.88,6,12.86,5.94,12.83,5.83Z"/></g></svg>