<svg id="Layer_1" data-name="Layer 1" xmlns="http://www.w3.org/2000/svg" xmlns:xlink="http://www.w3.org/1999/xlink" viewBox="0 0 85.46 18.86"><defs><style>.cls-1{fill:none;}.cls-2{clip-path:url(#clip-path);}.cls-3{fill:#eb652f;}.cls-4{fill:#f6a42c;}.cls-5{fill:#fff18b;}.cls-6{fill:#281b17;}.cls-7{fill:#473a3a;}.cls-8{fill:#5e5454;}</style><clipPath id="clip-path"><path class="cls-1" d="M33.35.85S47.09.75,49.84,1c0,0,4.9,5.7,1.19,10.37s-9.14,8-13.53,6S28.93,6.57,33.35.85Z"/></clipPath></defs><g class="cls-2"><path class="cls-3" d="M42.51-5.88a4.38,4.38,0,0,1,2,3.72C44.47-.32,43.18.41,43.11,2.29a2.1,2.1,0,0,0,1.28,2.08c-.48-.92-.28-3,1.73-4.36a3,3,0,0,0-.36,2.76c.28.6,2.12,2,2.12,5s-3.29,5.31-5.37,5.31-6.57-1.3-6.57-5.31a8.51,8.51,0,0,1,.56-2.7,3.23,3.23,0,0,0,2.25,2.7A4.83,4.83,0,0,1,37.42,3c.84-3.45,4.37-5.32,5.17-6.44A2.38,2.38,0,0,0,42.51-5.88Z"/><path class="cls-4" d="M41.07,1.48c-1.32,2-1,2.7-.21,4.26s-1,3.18-1.26,4.3c-.3,1.35,1.17,3.06,2.91,3.06s2.74-1.89,2.74-3.54-1.36-3-3.19-4.27A2.81,2.81,0,0,1,41.07,1.48Z"/><path class="cls-5" d="M41.91,7.76c.93.75,2.3,2,2,3.4a2.87,2.87,0,0,1-1.43,1.94c-.33-.14-1.23-.64-1.2-1.36s1.1-.93,1.33-1.64C43,9.12,41.91,7.76,41.91,7.76Z"/></g><path class="cls-6" d="M56.78,16.76c-1.08-.71-7.77-4.12-8-4.26a3.92,3.92,0,0,1,.42-.15l.49-.54c.21.06,7.77,4.15,8.82,4.84Z"/><path class="cls-6" d="M25.05,16.75l-1.64-.1c.83-.56,9.23-5.1,9.46-5.16l1.62.28-.41.08C33.86,12,25.94,16.14,25.05,16.75Z"/><path class="cls-7" d="M30.94,7.5v4.44H51.29V7.16a14.52,14.52,0,0,0-4.44-.76,76.05,76.05,0,0,0-13.35.24S31.55,6.75,30.94,7.5Z"/><ellipse class="cls-8" cx="41.12" cy="11.49" rx="10.18" ry="1.92"/><path class="cls-8" d="M50.77,9.57c.32,0,31.26-4.43,32.86-4.84"/><path class="cls-6" d="M50.77,10.06V9.57l-.05-.49c.23,0,30.21-4.25,32-4.7l2.16.48C83.77,5.14,51.4,10.06,50.77,10.06Z"/><path class="cls-6" d="M31.84,9.59c-.1,0-.43,0-4.68-.62C18.49,7.78,3.33,4.31.6,4.28L3.26,3.7c2.8,0,15.36,3.11,24,4.3,2.45.33,4.39.6,4.56.61Z"/></svg>