<svg id="Layer_1" data-name="Layer 1" xmlns="http://www.w3.org/2000/svg" xmlns:xlink="http://www.w3.org/1999/xlink" viewBox="0 0 147.05 31.75"><defs><style>.cls-1{fill:none;}.cls-2{clip-path:url(#clip-path);}.cls-3{fill:#eb652f;}.cls-4{fill:#f6a42c;}.cls-5{fill:#fff18b;}.cls-6{fill:#281b17;}.cls-7{fill:#473a3a;}.cls-8{fill:#5e5454;}</style><clipPath id="clip-path"><path class="cls-1" d="M62.86,1.45s16.4-.07,19.68.14c0,0,5.86,4.2,1.43,7.64s-10.91,5.92-16.16,4.45S57.58,5.67,62.86,1.45Z"/></clipPath></defs><g class="cls-2"><path class="cls-3" d="M71.56-3.51a1.58,1.58,0,0,1,.85,1.2c0,.56-2.78,1.58-2.78,2.9S71,2.09,71,3.43c0,.63-.83,1-1.39,1s-1.19-.22-1.19-1.07,1.19-1.29,1.19-1.29c-.84.17-2.64.73-2.64,2.23s3.38,1.56,3.38,2.82c0,.71-.56,1-1.48,1s-1.16-.56-1.16-.91.81-.91.81-.91c-.63.17-2.25.37-2.25,1.62s2.39,2.54,6.68,2.54S79.86,8.34,79.86,7s-2.25-1.78-2.25-1.78a1.65,1.65,0,0,1,.81,1.24c0,.41-.46,1-1.51,1-.87,0-1.41-.47-1.41-1.19,0-1.38,3.09-1.79,3.09-3.46,0-1.27-1.51-1.83-1.51-1.83a1.91,1.91,0,0,1,.38,1.16,1.37,1.37,0,0,1-1.43,1c-.84,0-1.17-.34-1-.89s.53-.52.84-.9A1.19,1.19,0,0,0,76.06,0a4.33,4.33,0,0,0-2-1.09h0c.53.34,1,.67,1,1.34s-.87.8-1.37.8S72.41.87,72.41.14c0-.5.47-.63.77-1.19a1.44,1.44,0,0,0,.11-1.17C73-3,71.93-3.38,71.56-3.51Z"/><path class="cls-4" d="M74.12,10.43s3.45-1,3.82-2.73c-1,.47-3.86,1.2-3.82-.87,0-1.85,2.23-1.88,2.15-3a2.28,2.28,0,0,1-1.73.74c0-.64-2-1.75-2-2.24a.94.94,0,0,1,.32-.73c-.55.23-.84.49-.84.93s1.39,1.64.31,2.3A3.36,3.36,0,0,1,69.13,5c.34.47,1.38.79,2.12,1.39,1,.8.19,2.17-1.18,2.45a2.41,2.41,0,0,1-2.13-.34c.11.57,1.9,2,4.35,2Z"/><path class="cls-5" d="M73.5,10.47s2.16-.64,2.32-1.7c-1.23.11-2.45-.19-2.66-1.25a1.88,1.88,0,0,1,.28-1.6,2.23,2.23,0,0,0-.82,1.6,1.63,1.63,0,0,1-.51,1.67,2.46,2.46,0,0,1-1.78.24,3.72,3.72,0,0,0,2.46,1.05Z"/></g><path class="cls-6" d="M102.27,29.92c-1.71-1.18-16.58-9.23-17-9.45a3.61,3.61,0,0,1,.67-.26l.77-.89c.32.09,16.49,9.32,18.15,10.46Z"/><path class="cls-6" d="M46.48,30.31l-2.57-.16c1.3-.94,15.94-11.27,16.3-11.36l2.57.46-.64.13C61.78,19.62,47.89,29.3,46.48,30.31Z"/><path class="cls-7" d="M57.18,12.17v7.36H89.29V11.59s-2.11-1-7-1.25a113.34,113.34,0,0,0-21,.39S58.14,10.92,57.18,12.17Z"/><ellipse class="cls-8" cx="73.24" cy="18.79" rx="16.06" ry="3.19"/><path class="cls-8" d="M88.46,15.6c.51,0,52.58-7.3,55.09-8"/><path class="cls-6" d="M88.46,16.42V15.6l-.06-.82c.35,0,50.9-7,53.7-7.73l3.51.75C143.88,8.26,89.46,16.42,88.46,16.42Z"/><path class="cls-8" d="M58.59,14.82c-.51,0-48.4-7.69-54.13-7.77"/><path class="cls-6" d="M58.59,15.64c-.16,0-.67-.07-7.38-1-13.68-2-45.47-7.73-49.77-7.79L5.6,6.07C10,6.13,37.73,11,51.45,13l7.19,1Z"/></svg>