<svg id="Layer_1" data-name="Layer 1" xmlns="http://www.w3.org/2000/svg" viewBox="0 0 25.83 32.47"><defs><style>.cls-1{fill:#fbd3c7;}.cls-1,.cls-2{stroke:#323232;stroke-miterlimit:10;stroke-width:0.25px;}.cls-2{fill:none;}.cls-3{fill:#dc9e8f;}</style></defs><path class="cls-1" d="M25,5.41a3.43,3.43,0,0,1-.7.92,2.35,2.35,0,0,1-.66.56c-1.56,3.65-7.44,9.58-9,10.8S12,20.2,12.29,21.76c.52,2.91.82,2.94.55,3.93s1,1.94.2,2.22-2-1.08-2-2.48-.5-1.17-.5-1.17C6.36,27.9,4.6,32.62,4,31.69s.4-2.75.4-2.75-1.23-2.65-1-3.54S4.81,21.86,7.9,19,15.59,6.82,17,4.3c.39-.68.67-1.24.88-1.7.63-1.36.82-2.06.9-1.91A9.63,9.63,0,0,0,25,5.41Z"/><path class="cls-2" d="M4.33,28.89a19.66,19.66,0,0,0,1.39-3.44"/><path class="cls-2" d="M4,28a9.38,9.38,0,0,1,.6-3.23"/><path class="cls-2" d="M3.57,26.83A8.9,8.9,0,0,1,3.85,25"/><path class="cls-3" d="M24.75,5.5a2.77,2.77,0,0,1-.63.81C21.29,5.87,19.06,3.78,18,2.7c.63-1.37.73-1.93.81-1.79A9.76,9.76,0,0,0,24.75,5.5Z"/></svg>