<svg id="Layer_1" data-name="Layer 1" xmlns="http://www.w3.org/2000/svg" viewBox="0 0 45.72 43.81"><defs><style>.cls-1{fill:#342516;}.cls-2,.cls-4{fill:#fad2c6;}.cls-2{stroke:#323232;stroke-width:0.25px;}.cls-2,.cls-9{stroke-miterlimit:10;}.cls-3{fill:#3d2d16;}.cls-5{fill:#632323;}.cls-6{fill:#323232;}.cls-7{fill:#dc9e8f;}.cls-8{fill:#e8d860;}.cls-9{fill:none;stroke:#ef4b3b;stroke-width:2px;}.cls-10{fill:#ef4b3b;}.cls-11{fill:#f49990;}</style></defs><path class="cls-1" d="M11.82,12.25c-.15.52-5.2,5.39-3.36,12.79s-3.3,11.47,3.46,15c4.49,2.32,11.67.75,11.76.55a9.57,9.57,0,0,0,.31-1l6.94-2.42.39,2.57s9.3-1.22,11-3.35c3.49-4.39.76-7.06.91-16.46s-18.83-23.64-32.52-8Z"/><path class="cls-2" d="M40,14.91c.2,3,.41,11-.24,14.54-1.46,8-10.47,10.43-12.18,10.45-2.75,0-8.84-.72-12-5s-3.65-12-3.65-12S9.35,15.24,14.33,9.17,25,2.48,31.38,4C39.14,5.79,40,14.91,40,14.91Z"/><path class="cls-3" d="M21,17.6s-2.8-.19-3.93,1.78a.1.1,0,0,1-.18,0,2.24,2.24,0,0,1,1.85-2.24C21.34,16.31,21,17.6,21,17.6Z"/><path class="cls-3" d="M31.73,17.55s2.78-.52,4.16,1.29c.06.08.19,0,.18-.05a2.26,2.26,0,0,0-2.13-2C31.18,16.31,31.73,17.55,31.73,17.55Z"/><path class="cls-4" d="M24.63,28.59a2.05,2.05,0,0,0,3.47,0"/><path class="cls-5" d="M24.63,28.59a3.3,3.3,0,0,0,1.77.7,2.22,2.22,0,0,0,.88-.16,3,3,0,0,0,.82-.56,1.59,1.59,0,0,1-.62.89,1.72,1.72,0,0,1-1.1.32A2,2,0,0,1,24.63,28.59Z"/><path class="cls-1" d="M30.49,11.16s-1,2.93-5.52,4.62a3.71,3.71,0,0,0,.9-4s-.29,5.08-6.33,5.09l1.75-3.82-4.81,5.52.5-4.16s-6.3,12.72-8.2,12.9c0,0-4.22-14,6.38-22.67s22.62.21,22.62.21a18.88,18.88,0,0,1,4.57,20s-2.9.74-3.31.14.06-2.2-1.56-6.49A13.8,13.8,0,0,0,30.49,11.16Z"/><path class="cls-4" d="M12.59,24.36s.08.07,0,.07-.09-.06-.11-.11a3.77,3.77,0,0,0-1.22-1.54,1.8,1.8,0,0,0-1.34-.44,1.6,1.6,0,0,0-1.17,1.38,4.82,4.82,0,0,0,.35,3,5.1,5.1,0,0,0,4.48,3"/><path class="cls-6" d="M12.59,24.36s.07,0,0,.07a.08.08,0,0,1-.1,0,1.28,1.28,0,0,1-.11-.2,3,3,0,0,0-.23-.38,3.37,3.37,0,0,0-.58-.67,2.29,2.29,0,0,0-1.53-.72A1.34,1.34,0,0,0,9,23.49a4.22,4.22,0,0,0-.11,1.73,5.15,5.15,0,0,0,4.76,4.47,4.7,4.7,0,0,1-3.32-1.26,5.19,5.19,0,0,1-1.69-3.17,4.52,4.52,0,0,1,.14-1.83,1.54,1.54,0,0,1,1.35-1.2,2.38,2.38,0,0,1,1.61.82,3.5,3.5,0,0,1,.55.73,3,3,0,0,1,.21.4,1.21,1.21,0,0,0,.09.2s.05.06.09,0S12.62,24.33,12.59,24.36Z"/><path class="cls-7" d="M10.8,24.69a6.32,6.32,0,0,1,.52.64c.12.18.23.43.08.59s-.36.11-.47.26,0,.37.17.47.36.11.52.2a.76.76,0,0,1,.4.63.48.48,0,0,1-.06.26.49.49,0,0,1-.61.16,1.32,1.32,0,0,1-.53-.44A5.06,5.06,0,0,1,10,26.17C9.67,25.44,9.56,23.38,10.8,24.69Z"/><path class="cls-8" d="M12.67,28.6s1.22,2.29-.15,2.74-1-2.18-1-2.18.44,2.19.82.82Z"/><path class="cls-4" d="M39.77,23.14c0-.05-.08.07,0,.07s.1-.06.12-.11A3.74,3.74,0,0,1,41,21.53a1.8,1.8,0,0,1,1.33-.48,1.58,1.58,0,0,1,1.2,1.34,4.78,4.78,0,0,1-.27,3,5.07,5.07,0,0,1-4.4,3.12"/><path class="cls-6" d="M39.77,23.14s-.06.05,0,.06a.09.09,0,0,0,.09,0c0-.06.05-.14.08-.21s.12-.27.19-.41a4.25,4.25,0,0,1,.53-.73,2.42,2.42,0,0,1,1.6-.87,1.55,1.55,0,0,1,1.38,1.16,4.56,4.56,0,0,1,.18,1.83,5.15,5.15,0,0,1-1.6,3.22,4.71,4.71,0,0,1-3.29,1.34,5.17,5.17,0,0,0,4.65-4.59,4.16,4.16,0,0,0-.16-1.72,1.36,1.36,0,0,0-1.16-1.05,2.28,2.28,0,0,0-1.51.76,4.12,4.12,0,0,0-.56.69,1.87,1.87,0,0,0-.22.39c0,.06-.06.13-.1.2a.09.09,0,0,1-.11,0S39.74,23.1,39.77,23.14Z"/><path class="cls-7" d="M41.57,23.42a7.51,7.51,0,0,0-.5.65c-.12.18-.22.44-.07.6s.37.1.48.24a.35.35,0,0,1-.16.47c-.16.1-.35.13-.52.22a.75.75,0,0,0-.37.64.48.48,0,0,0,.06.26.52.52,0,0,0,.62.15,1.4,1.4,0,0,0,.51-.46,5.24,5.24,0,0,0,.82-1.31C42.72,24.14,42.78,22.08,41.57,23.42Z"/><path class="cls-8" d="M39.8,27.37s-1.15,2.33.23,2.75,1-2.21,1-2.21-.39,2.2-.8.83Z"/><path class="cls-9" d="M10.85,22.48s-2-9.38,5.32-16.17S34,3.15,37.6,8.35a17.27,17.27,0,0,1,2.87,13.87"/><path class="cls-10" d="M14.21,7.37s-.12-8.3,2.9-5.22S20.91,8.87,15,9a1.62,1.62,0,0,0-1.82,1.28c-.69,2.18-1.72,10.38-6.5,1.25-3.22-6.13,5.91-2.1,5.91-2.1S11.4,6.85,14.21,7.37Z"/><ellipse class="cls-11" cx="7.6" cy="9.9" rx="0.55" ry="0.64" transform="translate(-1.11 0.96) rotate(-6.73)"/><ellipse class="cls-11" cx="11.62" cy="12.28" rx="0.55" ry="0.64" transform="translate(-1.36 1.45) rotate(-6.73)"/><ellipse class="cls-11" cx="16.52" cy="5.41" rx="0.55" ry="0.64" transform="translate(-0.52 1.97) rotate(-6.73)"/><ellipse class="cls-11" cx="18.15" cy="5.99" rx="0.55" ry="0.64" transform="translate(-0.58 2.17) rotate(-6.73)"/><ellipse class="cls-11" cx="17.76" cy="4.07" rx="0.55" ry="0.64" transform="translate(-0.35 2.11) rotate(-6.73)"/><ellipse class="cls-11" cx="16.71" cy="2.82" rx="0.55" ry="0.64" transform="matrix(0.99, -0.12, 0.12, 0.99, -0.22, 1.98)"/><ellipse class="cls-11" cx="17.3" cy="7.82" rx="0.55" ry="0.64" transform="translate(-0.8 2.08) rotate(-6.73)"/><ellipse class="cls-11" cx="15.45" cy="2.84" rx="0.55" ry="0.64" transform="translate(-0.23 1.83) rotate(-6.73)"/><ellipse class="cls-11" cx="14.99" cy="5.43" rx="0.55" ry="0.64" transform="matrix(0.99, -0.12, 0.12, 0.99, -0.53, 1.79)"/><ellipse class="cls-11" cx="15.92" cy="7.58" rx="0.55" ry="0.64" transform="translate(-0.78 1.92) rotate(-6.73)"/><ellipse class="cls-11" cx="9.46" cy="9.23" rx="0.55" ry="0.64" transform="translate(-1.02 1.17) rotate(-6.73)"/><ellipse class="cls-11" cx="9.51" cy="13.47" rx="0.55" ry="0.64" transform="translate(-1.51 1.21) rotate(-6.73)"/><ellipse class="cls-11" cx="7.95" cy="12.32" rx="0.55" ry="0.64" transform="translate(-1.39 1.02) rotate(-6.73)"/><ellipse class="cls-11" cx="9.71" cy="11.35" rx="0.55" ry="0.64" transform="translate(-1.26 1.22) rotate(-6.73)"/><ellipse class="cls-11" cx="10.87" cy="14.64" rx="0.55" ry="0.64" transform="translate(-1.64 1.37) rotate(-6.73)"/><ellipse class="cls-11" cx="11.36" cy="10.1" rx="0.55" ry="0.64" transform="translate(-1.1 1.4) rotate(-6.73)"/></svg>