<svg id="Layer_1" data-name="Layer 1" xmlns="http://www.w3.org/2000/svg" viewBox="0 0 52.85 35.38"><defs><style>.cls-1{fill:#fbd3c7;}.cls-1,.cls-2{stroke:#323232;stroke-miterlimit:10;stroke-width:0.5px;}.cls-2{fill:none;}.cls-3{fill:#e4a68d;}</style></defs><path class="cls-1" d="M47.6,27.64s-.22-4-1-5-4.08-3.35-9.71-4.83S19.63,8.08,16.25,6c-2.31-1.44-5-3.29-6.74-4.45C7.83,3.9,5,5.45,2.41,6.71a4.78,4.78,0,0,1-.48.19l-.3.22C5.31,10,10,13.37,10,13.37c4.26,3.41,15.24,6.79,17.93,7.25s4.76,1.38,5.43,3.44c1.26,3.89.92,4.11,1.89,5.14s.08,3,1.2,2.82,1.71-2.61.87-4.35-.16-1.74-.16-1.74c7.39,1.74,12.58,6.32,12.74,4.78S47.6,27.64,47.6,27.64Z"/><path class="cls-2" d="M47.63,27.55a27.31,27.31,0,0,1-3.92-3.27"/><path class="cls-2" d="M47.43,26.22a12.65,12.65,0,0,0-2.82-3.52"/><path class="cls-2" d="M47.22,24.55a13.83,13.83,0,0,0-1.5-2"/><path class="cls-3" d="M9.42,1.62C7.73,4,5,5.47,2.41,6.71a4.78,4.78,0,0,1-.48.19L1.84,7l1.32.94S9,5.83,10.84,2.73Z"/></svg>