<svg id="Layer_1" data-name="Layer 1" xmlns="http://www.w3.org/2000/svg" viewBox="0 0 19.29 10.6"><defs><style>.cls-1{fill:#dc9e8f;}.cls-2{fill:#f6fbfd;stroke:#323232;stroke-miterlimit:10;stroke-width:0.25px;}.cls-3{fill:#451f16;}.cls-4{fill:#fff;}</style></defs><circle class="cls-1" cx="15.43" cy="6.49" r="3.38"/><path class="cls-2" d="M18.46,6.69A3.18,3.18,0,0,1,15.39,10c-1.75.07-3.21-.76-3.27-2.51s1.29-3.78,3-3.84A3.18,3.18,0,0,1,18.46,6.69Z"/><ellipse class="cls-3" cx="15.02" cy="8.07" rx="1.8" ry="1.55" transform="translate(-1.65 4.48) rotate(-16.1)"/><circle class="cls-4" cx="16.53" cy="7.92" r="0.55"/><path class="cls-1" d="M18.6,6.68a3.33,3.33,0,0,1-3.2,3.44c-1.83.07-3.35-.79-3.42-2.62s1.35-3.95,3.18-4A3.32,3.32,0,0,1,18.6,6.68Z"/><ellipse class="cls-1" cx="4" cy="3.86" rx="3.38" ry="3.53" transform="matrix(0.26, -0.97, 0.97, 0.26, -0.75, 6.75)"/><path class="cls-2" d="M.88,3.39A3.19,3.19,0,0,0,3.14,7.28c1.7.44,3.3,0,3.75-1.74s-.43-4-2.12-4.41A3.18,3.18,0,0,0,.88,3.39Z"/><ellipse class="cls-3" cx="4.26" cy="5.53" rx="1.76" ry="1.49" transform="translate(-2.49 3.74) rotate(-37.59)"/><circle class="cls-4" cx="5.68" cy="5.63" r="0.55"/><path class="cls-1" d="M.75,3.36A3.31,3.31,0,0,0,3.11,7.41c1.77.47,3.44,0,3.91-1.81S6.57,1.46,4.8,1A3.32,3.32,0,0,0,.75,3.36Z"/></svg>