<svg id="Layer_1" data-name="Layer 1" xmlns="http://www.w3.org/2000/svg" viewBox="0 0 31.94 41.81"><defs><style>.cls-1{fill:#fbd3c7;}.cls-1,.cls-2{stroke:#323232;stroke-miterlimit:10;stroke-width:0.25px;}.cls-2{fill:none;}.cls-3{fill:#dc9e8f;}</style></defs><path class="cls-1" d="M31,6.94A9.5,9.5,0,0,1,30,8.22a3.15,3.15,0,0,1-.86.66c-2.13,4.46-9.76,11.53-11.76,13s-3.34,3-3.08,4.94c.5,3.65.86,3.71.48,4.92s1.11,2.47.13,2.78S12.44,33,12.44,31.28s-.55-1.48-.55-1.48c-5.35,4.32-7.78,10.09-8.51,8.91s.65-3.4.65-3.4-1.39-3.37-1.11-4.46,2-4.33,6-7.76S19.14,8.37,21.07,5.31c.52-.83.9-1.51,1.18-2.06.85-1.67,1-2.39,1.12-2.22A13.77,13.77,0,0,0,31,6.94Z"/><path class="cls-2" d="M4,35.24A24.17,24.17,0,0,0,5.88,31"/><path class="cls-2" d="M3.61,34.08a11.44,11.44,0,0,1,.92-4"/><path class="cls-2" d="M3.13,32.64a13,13,0,0,1,.44-2.22"/><path class="cls-3" d="M30.8,7A5.93,5.93,0,0,1,29,8.78c-3.49-.69-5.43-4-6.69-5.42.86-1.67.93-2.28,1-2.1A14.45,14.45,0,0,0,30.8,7Z"/></svg>