<svg id="Layer_1" data-name="Layer 1" xmlns="http://www.w3.org/2000/svg" viewBox="0 0 26.51 19.91"><defs><style>.cls-1{fill:#bb7757;}.cls-2{fill:#765a47;}.cls-3{fill:#dc9e8f;}</style></defs><g id="neutral"><path class="cls-1" d="M5,14.71c-.24,0,5.93,1.95,10.7-.11,4.51-1.94,8-7.6,8-7.89s-2.9,3.63-8.49,6.06C13.09,13.67,5.63,14.76,5,14.71Z"/><path class="cls-1" d="M4.71,14.63c-.07-.29,5.84-.46,10.59-2.48s8.4-5.92,8.54-5.65-3.46,4.82-8.12,6.81C10.79,15.41,4.77,14.93,4.71,14.63Z"/><path class="cls-2" d="M24,6.34s-3.85,4.93-8.68,7.15S4.77,14.64,4.77,14.64a21.86,21.86,0,0,0,10.52-1.15C20,11.62,24,6.34,24,6.34Z"/><path class="cls-3" d="M23.76,5.52c-.46-.58.1-.62.45-.08a3.85,3.85,0,0,1,.32,1.7S23.91,5.71,23.76,5.52Z"/><path class="cls-3" d="M4.18,13.89c.07-.75-.42-.47-.42.17a2.55,2.55,0,0,0,.73,1.4C4.14,14.24,4.15,14.13,4.18,13.89Z"/></g></svg>