<svg id="Layer_1" data-name="Layer 1" xmlns="http://www.w3.org/2000/svg" viewBox="0 0 40 20"><defs><style>.cls-1{fill:#551514;}.cls-2{fill:#d72b5d;}.cls-3{fill:#fff;}.cls-4{fill:#bb7757;}.cls-5{fill:#dc9e8f;}</style></defs><g id="S"><path class="cls-1" d="M36.2,4.18,28.3,6.75c-2.67.88-5.56.79-8.35.94-1.05.06-6.41.29-7.8-.1-.89-.24-8.74-2.06-8.74-2.06S5.64,9.45,6.47,11A13.4,13.4,0,0,0,8.82,13.7,10.89,10.89,0,0,0,15.26,17a31.85,31.85,0,0,0,11.31-.61c.82-.2,6-5.36,6.71-6.38C33.86,9.16,36.2,4.18,36.2,4.18Z"/><path class="cls-2" d="M27.49,11a10.45,10.45,0,0,0-4.75-.35,57.62,57.62,0,0,0-6.3.76,11.79,11.79,0,0,0-1.19.19l-.84.23c-.2.05-.55.65-.55.65-.69.87.37,1.93,1,2.18,1.26.48,2.77.16,4.08.09a46,46,0,0,0,6.86-.71c.69-.15,2.05-.1,2.51-.77A1.52,1.52,0,0,0,27.49,11Z"/><path class="cls-3" d="M31.89,6.56,20.27,8.07,8.56,7.79A11,11,0,0,0,9.86,9.7a11,11,0,0,0,3.83,1.76,40.78,40.78,0,0,0,13.4-.81A7.44,7.44,0,0,0,31,8C31.2,7.57,31.89,6.56,31.89,6.56Z"/><path class="cls-3" d="M30.47,13.71a7.79,7.79,0,0,0-1.87-1.18c-1.88-.54-4.34,1.05-7.73,1.23-3.19.16-6-.67-7.79.18a10.22,10.22,0,0,0-1.73,1.37L13.92,17l7.29.79L27,15.7Z"/><path class="cls-4" d="M36.4,3.72a36,36,0,0,1-5.48,7.2c-1.7,1.89-6.47,4.3-10.56,4.52a17.08,17.08,0,0,1-9.12-2.29C8.88,11.93,4.54,7.25,3,5a5,5,0,0,0,0,.6,25.18,25.18,0,0,0,5.83,8.32,15.93,15.93,0,0,0,11.64,4.56,14.92,14.92,0,0,0,11.67-6.38,24.62,24.62,0,0,0,4.25-7.73C36.44,4.27,36.4,3.72,36.4,3.72Z"/><path class="cls-4" d="M36.38,3.35C35,4.54,31.17,5.72,28.75,6.46c-3.55,1.09-13,1.27-16.27.85C10,7,4.47,6,3,5a5.62,5.62,0,0,0,.4.58A23.68,23.68,0,0,0,11,8.72a47,47,0,0,0,9.74.65,46.27,46.27,0,0,0,9.57-1.66c2.62-.91,5.59-3,6.07-3.87C36.41,3.82,36.38,3.35,36.38,3.35Z"/><path class="cls-5" d="M2.21,3.91c.58-.7-.27-.73-.7-.08a3.56,3.56,0,0,0-.14,2A17.75,17.75,0,0,1,2.21,3.91Z"/><path class="cls-5" d="M37.51,2.12c-.81-.43,0-.78.6-.34s.61,1.76.61,1.76C37.9,2.32,37.77,2.26,37.51,2.12Z"/></g></svg>