<svg id="Layer_1" data-name="Layer 1" xmlns="http://www.w3.org/2000/svg" viewBox="0 0 512 512"><defs><style>.cls-1{fill:#92ff9f;}</style></defs><path class="cls-1" d="M336,125.54c-38.11,0-69,58.41-69,130.46s30.88,130.46,69,130.46S405,328.05,405,256,374.1,125.54,336,125.54Zm0,252.92c-33.06,0-61-56.08-61-122.46s27.93-122.46,61-122.46S397,189.62,397,256,369.06,378.46,336,378.46Z"/><path class="cls-1" d="M431.8,117.92C406.46,79.92,372.43,59,336,59s-70.46,20.92-95.8,58.92c-24.68,37-38.27,86-38.27,138.08s13.59,101.08,38.27,138.08c25.34,38,59.36,58.92,95.8,58.92s70.46-20.92,95.8-58.92c24.68-37,38.27-86,38.27-138.08S456.48,154.92,431.8,117.92ZM336,445c-69.63,0-126.07-84.62-126.07-189S266.37,67,336,67s126.07,84.62,126.07,189S405.62,445,336,445Z"/><path class="cls-1" d="M85.3,59C61.39,59,41.93,75.88,41.93,96.62V415.38C41.93,436.12,61.39,453,85.3,453s43.36-16.88,43.36-37.62V96.62C128.66,75.88,109.21,59,85.3,59Zm35.36,356.38c0,16.29-15.91,29.62-35.36,29.62h0c-19.45,0-35.37-13.33-35.37-29.62V96.62C49.93,80.33,65.85,67,85.3,67h0c19.45,0,35.36,13.33,35.36,29.62Z"/></svg>