<svg id="Layer_1" data-name="Layer 1" xmlns="http://www.w3.org/2000/svg" viewBox="0 0 512 512"><defs><style>.cls-1{fill:#ff5dad;}</style></defs><path class="cls-1" d="M336,67c-69.63,0-126.07,84.62-126.07,189S266.37,445,336,445s126.07-84.62,126.07-189S405.62,67,336,67Zm0,319.46c-38.11,0-69-58.41-69-130.46s30.88-130.46,69-130.46S405,184,405,256,374.1,386.46,336,386.46Z"/><path class="cls-1" d="M85.3,67h0C65.85,67,49.93,80.33,49.93,96.62V415.38C49.93,431.67,65.85,445,85.3,445h0c19.45,0,35.36-13.33,35.36-29.62V96.62C120.66,80.33,104.75,67,85.3,67Z"/></svg>