<svg id="Layer_1" data-name="Layer 1" xmlns="http://www.w3.org/2000/svg" viewBox="0 0 512 512"><defs><style>.cls-1{fill:#ff5dad;}</style></defs><path class="cls-1" d="M256,203.69a120.3,120.3,0,0,0-30.73,4c24-61.91,62.45-88.83,69.29-97.82a25.26,25.26,0,0,0,3.86-24C289.61,59.29,265,60.57,260.71,62.28s-50.56,23.14-93.62,123.41c-28.9,67.27-32.81,109.46-32.26,130-.34,3.77-.52,7.59-.52,11.45,0,68.16,54.48,123.41,121.69,123.41s121.69-55.25,121.69-123.41S323.21,203.69,256,203.69Zm-.43,185.11c-34.09,0-61.72-27.25-61.72-60.85s27.63-60.85,61.72-60.85,61.72,27.24,61.72,60.85S289.66,388.8,255.57,388.8Z"/></svg>