<svg id="Layer_1" data-name="Layer 1" xmlns="http://www.w3.org/2000/svg" viewBox="0 0 512 512"><defs><style>.cls-1{fill:#ff0;isolation:isolate;}</style></defs><path class="cls-1" d="M255.57,267.1c-34.09,0-61.72,27.24-61.72,60.85s27.63,60.85,61.72,60.85,61.72-27.25,61.72-60.85S289.66,267.1,255.57,267.1Zm0,113.7c-29.62,0-53.72-23.71-53.72-52.85S226,275.1,255.57,275.1s53.72,23.71,53.72,52.85S285.19,380.8,255.57,380.8Z"/><path class="cls-1" d="M256,195.69a128.93,128.93,0,0,0-17.47,1.18c18.16-39.32,42-62,54-73.54a86.78,86.78,0,0,0,8.39-8.64A33.13,33.13,0,0,0,306,83.33c-9.18-27.68-32.47-29.83-39.39-29.83a26.31,26.31,0,0,0-8.88,1.35c-5.33,2.14-53.42,23.86-98,127.68-29.65,69-33.38,112.71-32.92,132.86-.34,3.93-.51,7.86-.51,11.7,0,72.46,58.18,131.41,129.69,131.41s129.69-58.95,129.69-131.41S327.51,195.69,256,195.69Zm0,254.81c-67.21,0-121.69-55.25-121.69-123.41,0-3.86.18-7.68.52-11.45-.55-20.49,3.37-62.68,32.26-129.95C210.15,85.42,256.43,64,260.71,62.28s28.9-3,37.71,23.57a25.26,25.26,0,0,1-3.86,24c-6.84,9-45.28,35.91-69.29,97.82a120.3,120.3,0,0,1,30.73-4c67.21,0,121.69,55.25,121.69,123.4S323.21,450.5,256,450.5Z"/></svg>