<svg id="Layer_1" data-name="Layer 1" xmlns="http://www.w3.org/2000/svg" viewBox="0 0 512 512"><defs><style>.cls-1{fill:#92ff9f;}</style></defs><path class="cls-1" d="M349.7,59H164a38.4,38.4,0,1,0,0,76.79H285L160,395.43a40.07,40.07,0,0,0,18.72,53.49l.92.44A36.4,36.4,0,0,0,195.5,453h0a36.94,36.94,0,0,0,33.11-20.8l152-315.69a40,40,0,0,0,5.82-20.79A36.76,36.76,0,0,0,349.7,59Zm28.72,36.72a31.92,31.92,0,0,1-4.85,17L221.4,428.73a28.72,28.72,0,0,1-38.33,13.42l-.92-.44a32.06,32.06,0,0,1-15-42.81L297.69,127.79H164a30.4,30.4,0,0,1-30.4-30.4h0A30.4,30.4,0,0,1,164,67H349.7a28.72,28.72,0,0,1,28.72,28.72Z"/></svg>