<svg id="Layer_1" data-name="Layer 1" xmlns="http://www.w3.org/2000/svg" viewBox="0 0 512 512"><defs><style>.cls-1{fill:#fff;}</style></defs><path class="cls-1" d="M256.26,123.39c-32.27.44-58.44,26.16-58.44,58.43a58.44,58.44,0,0,0,58.44,58.44c32.27,0,59.17-24,58.44-58.44C314,149.56,299,122.81,256.26,123.39Zm37,93.89c-9.46,9.66-22.59,15-37,15a50.5,50.5,0,0,1-50.44-50.44c0-27.89,22.21-50,50.55-50.43h1.25c31.85,0,48.37,17,49.08,50.61C307,195.79,302.34,208,293.24,217.28Z"/><path class="cls-1" d="M383.44,185.76c-.06-1.5-.11-2.91-.11-4.26,0-37.47-9.4-67.58-27.94-89.47C334,66.8,301.61,54,259.06,54l-2.91,0A129.68,129.68,0,0,0,165.9,91.78a126.15,126.15,0,0,0-37.45,90.05A127.84,127.84,0,0,0,304,300.4V424.54A33.5,33.5,0,0,0,337.47,458h12.4a33.5,33.5,0,0,0,33.46-33.46v-229A72.69,72.69,0,0,0,383.44,185.76Zm-8.11,9.36V424.54A25.46,25.46,0,0,1,349.87,450h-12.4A25.46,25.46,0,0,1,312,424.54V287.9A119.84,119.84,0,0,1,136.45,181.83c0-66.17,53.65-118.91,119.81-119.81C344,60.83,375.33,115.33,375.33,181.5,375.33,186,375.82,190.75,375.33,195.12Z"/></svg>