<svg id="Layer_1" data-name="Layer 1" xmlns="http://www.w3.org/2000/svg" viewBox="0 0 512 512"><defs><style>.cls-1{fill:#e7395e;}</style></defs><path class="cls-1" d="M375.33,181.5C375.33,115.33,344,60.83,256.26,62c-66.16.9-119.81,53.64-119.81,119.81A119.84,119.84,0,0,0,312,287.9V424.54A25.46,25.46,0,0,0,337.47,450h12.41a25.45,25.45,0,0,0,25.45-25.46V195.12C375.82,190.75,375.33,186,375.33,181.5ZM256.26,240.26a58.43,58.43,0,0,1-58.43-58.44c0-32.27,26.16-58,58.43-58.43,42.77-.58,57.75,26.17,58.44,58.43C315.43,216.3,288.53,240.26,256.26,240.26Z"/></svg>