<svg xmlns="http://www.w3.org/2000/svg" xmlns:xlink="http://www.w3.org/1999/xlink" viewBox="0 0 1280 720"><defs><style>.cls-1{mask:url(#mask);}.cls-10,.cls-11,.cls-2,.cls-4,.cls-6,.cls-8,.cls-9{opacity:0.8;mix-blend-mode:multiply;}.cls-2{fill:url(#linear-gradient);}.cls-3{mask:url(#mask-2);}.cls-4{fill:url(#linear-gradient-2);}.cls-5{mask:url(#mask-3);}.cls-6{fill:url(#linear-gradient-3);}.cls-7{mask:url(#mask-4);}.cls-8{fill:url(#linear-gradient-4);}.cls-9{fill:url(#linear-gradient-5);}.cls-10{fill:url(#linear-gradient-6);}.cls-11{fill:url(#linear-gradient-7);}.cls-12{fill:#00aff2;}.cls-13{opacity:0.06;}.cls-14,.cls-27,.cls-28{fill:#fff;}.cls-15{fill:#92ff9f;}.cls-15,.cls-16{isolation:isolate;}.cls-16,.cls-21{fill:#ff0;}.cls-17{fill:#e7395e;}.cls-18{font-size:42.66px;fill:#323232;}.cls-18,.cls-64,.cls-65{font-family:SassoonSansUSBold, Sassoon Sans US;}.cls-19{letter-spacing:0.02em;}.cls-20,.cls-28,.cls-64{opacity:0.5;}.cls-22{fill:#ffa63b;}.cls-23{fill:#5c00ed;}.cls-24{fill:#7210ff;}.cls-25{fill:#5300f4;}.cls-26{mask:url(#mask-8);}.cls-27{opacity:0.3;}.cls-29{fill:#6b6b6b;}.cls-29,.cls-30,.cls-31,.cls-33{fill-rule:evenodd;}.cls-30{fill:#dd2c2c;}.cls-31,.cls-65{fill:#fff200;}.cls-32{fill:#ff8500;}.cls-33{fill:none;stroke:#f96500;stroke-miterlimit:10;stroke-width:0.5px;}.cls-34{fill:url(#linear-gradient-8);}.cls-35{fill:#fff289;}.cls-36{fill:url(#linear-gradient-9);}.cls-37{opacity:0.2;}.cls-38{fill:url(#linear-gradient-10);}.cls-39{fill:url(#linear-gradient-11);}.cls-40{fill:#d8001f;}.cls-41{fill:#fc0b17;}.cls-42{fill:#c40216;}.cls-43{mask:url(#mask-9);}.cls-44{fill:#00e01a;}.cls-45{fill:#00bc0d;}.cls-46{fill:#0ff730;}.cls-47{mask:url(#mask-10);}.cls-48{fill:#eade00;}.cls-49{fill:#c6b700;}.cls-50{fill:#f9f20d;}.cls-51{mask:url(#mask-11);}.cls-52{fill:#a400c1;}.cls-53{fill:#8800a0;}.cls-54{fill:#b900d3;}.cls-55{mask:url(#mask-12);}.cls-56{fill:#d300c9;}.cls-57{fill:#a800a0;}.cls-58{fill:#f411df;}.cls-59{mask:url(#mask-13);}.cls-60{fill:#e05a00;}.cls-61{fill:#a54300;}.cls-62{fill:#ff6700;}.cls-63{mask:url(#mask-14);}.cls-64,.cls-65{font-size:80px;}.cls-66{filter:url(#luminosity-noclip-4);}.cls-67{filter:url(#luminosity-noclip-3);}.cls-68{filter:url(#luminosity-noclip-2);}.cls-69{filter:url(#luminosity-noclip);}</style><filter id="luminosity-noclip" x="607.21" y="-8552" width="36.14" height="32766" filterUnits="userSpaceOnUse" color-interpolation-filters="sRGB"><feFlood flood-color="#fff" result="bg"/><feBlend in="SourceGraphic" in2="bg"/></filter><mask id="mask" x="607.21" y="-8552" width="36.14" height="32766" maskUnits="userSpaceOnUse"><g class="cls-69"/></mask><linearGradient id="linear-gradient" x1="1655.2" y1="586.38" x2="1669.74" y2="611.78" gradientTransform="translate(-881.02 -599.68) rotate(11.71)" gradientUnits="userSpaceOnUse"><stop offset="0" stop-color="#fff"/><stop offset="1"/></linearGradient><filter id="luminosity-noclip-2" x="1001.18" y="-8552" width="57.69" height="32766" filterUnits="userSpaceOnUse" color-interpolation-filters="sRGB"><feFlood flood-color="#fff" result="bg"/><feBlend in="SourceGraphic" in2="bg"/></filter><mask id="mask-2" x="1001.18" y="-8552" width="57.69" height="32766" maskUnits="userSpaceOnUse"><g class="cls-68"/></mask><linearGradient id="linear-gradient-2" x1="2084.47" y1="676.59" x2="2107.68" y2="717.14" xlink:href="#linear-gradient"/><filter id="luminosity-noclip-3" x="1096.09" y="-8552" width="57.69" height="32766" filterUnits="userSpaceOnUse" color-interpolation-filters="sRGB"><feFlood flood-color="#fff" result="bg"/><feBlend in="SourceGraphic" in2="bg"/></filter><mask id="mask-3" x="1096.09" y="-8552" width="57.69" height="32766" maskUnits="userSpaceOnUse"><g class="cls-67"/></mask><linearGradient id="linear-gradient-3" x1="2177.41" y1="657.32" x2="2200.61" y2="697.88" xlink:href="#linear-gradient"/><filter id="luminosity-noclip-4" x="906.26" y="-8552" width="57.69" height="32766" filterUnits="userSpaceOnUse" color-interpolation-filters="sRGB"><feFlood flood-color="#fff" result="bg"/><feBlend in="SourceGraphic" in2="bg"/></filter><mask id="mask-4" x="906.26" y="-8552" width="57.69" height="32766" maskUnits="userSpaceOnUse"><g class="cls-66"/></mask><linearGradient id="linear-gradient-4" x1="1966.21" y1="573.68" x2="1989.42" y2="614.24" xlink:href="#linear-gradient"/><linearGradient id="linear-gradient-5" x1="2059.14" y1="554.42" x2="2082.35" y2="594.97" xlink:href="#linear-gradient"/><linearGradient id="linear-gradient-6" x1="2152.08" y1="535.15" x2="2175.29" y2="575.7" xlink:href="#linear-gradient"/><linearGradient id="linear-gradient-7" x1="1991.54" y1="695.86" x2="2014.75" y2="736.41" xlink:href="#linear-gradient"/><mask id="mask-8" x="607.21" y="309.56" width="36.14" height="29.8" maskUnits="userSpaceOnUse"><g class="cls-1"><path class="cls-2" d="M642.83,319.09c2.35,7.67-3.6,16.3-13.3,19.27s-19.46-.84-21.81-8.52,3.61-16.3,13.3-19.27S640.48,311.42,642.83,319.09Z"/></g></mask><linearGradient id="linear-gradient-8" x1="1095.05" y1="51.31" x2="1095.05" y2="106.66" gradientUnits="userSpaceOnUse"><stop offset="0" stop-color="#f8f096"/><stop offset="0.23" stop-color="#eac200"/><stop offset="0.61" stop-color="#dc8e06"/><stop offset="1" stop-color="#ad6318"/></linearGradient><linearGradient id="linear-gradient-9" x1="1095.05" y1="54.88" x2="1095.05" y2="103.46" gradientUnits="userSpaceOnUse"><stop offset="0" stop-color="#f8f096"/><stop offset="0.32" stop-color="#ffdf00"/><stop offset="0.7" stop-color="#f5a200"/><stop offset="1" stop-color="#d7ab00"/></linearGradient><linearGradient id="linear-gradient-10" x1="995.51" y1="51.31" x2="995.51" y2="106.66" xlink:href="#linear-gradient-8"/><linearGradient id="linear-gradient-11" x1="995.51" y1="54.88" x2="995.51" y2="103.46" xlink:href="#linear-gradient-9"/><mask id="mask-9" x="906.26" y="359.7" width="57.69" height="47.58" maskUnits="userSpaceOnUse"><g class="cls-7"><path class="cls-8" d="M963.14,374.91c3.75,12.25-5.76,26-21.24,30.77s-31.07-1.35-34.82-13.6,5.76-26,21.24-30.77S959.39,362.66,963.14,374.91Z"/></g></mask><mask id="mask-10" x="1001.18" y="359.7" width="57.69" height="47.58" maskUnits="userSpaceOnUse"><g class="cls-3"><path class="cls-9" d="M1058.05,374.91c3.75,12.25-5.76,26-21.24,30.77s-31.06-1.35-34.82-13.6,5.76-26,21.24-30.77S1054.3,362.66,1058.05,374.91Z"/></g></mask><mask id="mask-11" x="1096.09" y="359.7" width="57.69" height="47.58" maskUnits="userSpaceOnUse"><g class="cls-5"><path class="cls-10" d="M1153,374.91c3.75,12.25-5.75,26-21.23,30.77s-31.07-1.35-34.82-13.6,5.75-26,21.23-30.77S1149.21,362.66,1153,374.91Z"/></g></mask><mask id="mask-12" x="906.26" y="484.47" width="57.69" height="47.58" maskUnits="userSpaceOnUse"><g class="cls-7"><path class="cls-11" d="M963.14,499.68c3.75,12.25-5.76,26-21.24,30.77s-31.07-1.35-34.82-13.6,5.76-26,21.24-30.77S959.39,487.43,963.14,499.68Z"/></g></mask><mask id="mask-13" x="1001.18" y="484.47" width="57.69" height="47.58" maskUnits="userSpaceOnUse"><g class="cls-3"><path class="cls-4" d="M1058.05,499.68c3.75,12.25-5.76,26-21.24,30.77s-31.06-1.35-34.82-13.6,5.76-26,21.24-30.77S1054.3,487.43,1058.05,499.68Z"/></g></mask><mask id="mask-14" x="1096.09" y="484.47" width="57.69" height="47.58" maskUnits="userSpaceOnUse"><g class="cls-5"><path class="cls-6" d="M1153,499.68c3.75,12.25-5.75,26-21.23,30.77s-31.07-1.35-34.82-13.6,5.75-26,21.23-30.77S1149.21,487.43,1153,499.68Z"/></g></mask></defs><g id="Layer_2" data-name="Layer 2"><g id="BG_1" data-name="BG 1"><rect class="cls-12" width="1279.71" height="720"/><g id="BG_texture" data-name="BG texture" class="cls-13"><polygon class="cls-14" points="83.67 438.06 92.73 443.66 90.38 432.98 98.3 425.77 87.8 424.79 83.64 414.73 79.51 424.8 69.01 425.8 76.95 433 74.63 443.68 83.67 438.06"/><path class="cls-14" d="M27.15,422.18l12.88,8L36.69,415,48,404.71,33,403.33,27.12,389l-5.88,14.31L6.32,404.77,17.61,415,14.3,430.17Zm-11.6-14.31,8.3-.8,3.28-8,3.29,8,8.31.77-6.27,5.71L34.32,422l-7.17-4.43L20,422l1.84-8.45Z"/><polygon class="cls-14" points="83.8 548.62 79.66 558.69 69.17 559.69 77.11 566.89 74.78 577.57 83.83 571.95 92.89 577.54 90.53 566.87 98.46 559.65 87.96 558.68 83.8 548.62"/><path class="cls-14" d="M27.27,517.32l12.87,8L36.8,510.11l11.26-10.26-14.92-1.38-5.91-14.3-5.88,14.31L6.43,499.91l11.29,10.23-3.31,15.17ZM15.66,503l8.3-.8,3.28-8,3.29,8,8.31.77-6.27,5.71,1.86,8.45-7.17-4.43-7.16,4.44,1.84-8.45Z"/><path class="cls-14" d="M92.56,487.88l-8.32-20.11L76,487.9l-21,2L70.86,504.3l-4.65,21.36L84.3,514.42l18.11,11.19-4.7-21.34,15.85-14.44Zm-.8,14.39,2.62,11.89-10.09-6.24-10.08,6.26,2.6-11.89-8.85-8,11.69-1.12,4.61-11.21,4.63,11.2,11.7,1.09Z"/><polygon class="cls-14" points="26.82 463.06 33.26 467.04 31.59 459.46 37.22 454.33 29.76 453.63 26.8 446.49 23.86 453.64 16.4 454.35 22.05 459.47 20.39 467.06 26.82 463.06"/><polygon class="cls-14" points="90.22 299.1 98.14 291.88 87.65 290.9 83.49 280.84 79.35 290.91 68.85 291.92 76.8 299.11 74.47 309.79 83.51 304.17 92.57 309.77 90.22 299.1"/><path class="cls-14" d="M27,327.05,39.92,335l-3.34-15.17,11.26-10.25-14.92-1.39L27,293.89l-5.88,14.32L6.21,309.63,17.5,319.86,14.19,335ZM15.43,312.73l8.31-.79L27,304l3.29,8,8.31.77-6.27,5.71,1.86,8.45L27,322.43l-7.16,4.45,1.84-8.45Z"/><path class="cls-14" d="M102.26,391.73l-4.71-21.35L113.4,356l-21-1.95-8.32-20.12L75.81,354l-21,2,15.88,14.4-4.65,21.35,18.09-11.24ZM76.65,368.4l-8.85-8,11.69-1.11,4.61-11.22,4.64,11.2,11.69,1.09-8.83,8,2.62,11.89L84.13,374l-10.07,6.26Z"/><polygon class="cls-14" points="26.71 367.92 33.15 371.9 31.48 364.32 37.11 359.19 29.65 358.5 26.69 351.35 23.75 358.5 16.29 359.22 21.94 364.33 20.28 371.92 26.71 367.92"/><path class="cls-14" d="M27.45,674.45l-5.88,14.31L6.65,690.18l11.29,10.23-3.31,15.18,12.86-8,12.87,8L37,700.39l11.26-10.26-14.92-1.38Zm11.61,18.81L32.79,699l1.86,8.44L27.48,703l-7.16,4.45L22.16,699l-6.28-5.7,8.31-.79,3.27-8,3.29,8Z"/><polygon class="cls-14" points="83.96 682.51 79.82 692.58 69.32 693.58 77.26 700.78 74.94 711.46 83.98 705.83 93.04 711.43 90.69 700.76 98.61 693.54 88.12 692.57 83.96 682.51"/><path class="cls-14" d="M36.91,605.25,48.17,595l-14.92-1.38-5.91-14.3-5.88,14.31L6.54,595l11.29,10.23-3.31,15.18,12.86-8,12.87,8Zm-9.54,2.6-7.16,4.44,1.84-8.45-6.28-5.69,8.31-.8,3.27-8,3.29,8,8.31.78-6.27,5.71,1.86,8.45Z"/><polygon class="cls-14" points="27.02 636.76 24.08 643.92 16.63 644.63 22.27 649.75 20.61 657.33 27.04 653.34 33.48 657.32 31.81 649.74 37.44 644.61 29.98 643.91 27.02 636.76"/><path class="cls-14" d="M84.4,601.65l-8.28,20.14-21,2L71,638.19l-4.66,21.36,18.09-11.24,18.12,11.19-4.7-21.34,15.85-14.44-21-2Zm16.34,26.47-8.82,8L94.54,648l-10.09-6.23-10.08,6.26L77,636.18l-8.84-8L79.81,627l4.6-11.21L89.05,627Z"/><polygon class="cls-14" points="26.93 558.2 33.37 562.18 31.7 554.6 37.33 549.47 29.87 548.77 26.91 541.63 23.97 548.78 16.52 549.49 22.16 554.61 20.5 562.2 26.93 558.2"/><polygon class="cls-14" points="79.47 157.21 68.97 158.21 76.91 165.41 74.58 176.09 83.63 170.47 92.69 176.07 90.33 165.39 98.26 158.18 87.76 157.2 83.6 147.14 79.47 157.21"/><path class="cls-14" d="M27.13,232,40,240l-3.34-15.16,11.26-10.26L33,213.18l-5.91-14.29L21.21,213.2,6.29,214.62l11.29,10.23L14.27,240ZM15.52,217.72l8.3-.79,3.28-8,3.29,8,8.31.77-6.27,5.72,1.86,8.44-7.17-4.43L20,231.87l1.84-8.45Z"/><path class="cls-14" d="M102.37,258l-4.7-21.34,15.85-14.44-21-2L84.2,200.18l-8.27,20.13-21,2,15.88,14.39-4.65,21.36,18.09-11.24ZM76.76,234.7l-8.84-8,11.69-1.12,4.61-11.21,4.63,11.2,11.7,1.09-8.83,8,2.62,11.89-10.09-6.24-10.08,6.26Z"/><polygon class="cls-14" points="26.79 272.92 33.23 276.89 31.56 269.31 37.19 264.18 29.73 263.49 26.77 256.34 23.83 263.5 16.37 264.21 22.02 269.32 20.36 276.91 26.79 272.92"/><polygon class="cls-14" points="79.47 18.86 68.97 19.86 76.91 27.06 74.58 37.74 83.63 32.12 92.69 37.72 90.33 27.04 98.26 19.82 87.76 18.85 83.6 8.79 79.47 18.86"/><path class="cls-14" d="M27.13,133.73l12.87,8-3.34-15.16,11.26-10.26L33,114.87l-5.91-14.29-5.88,14.31L6.29,116.31l11.29,10.23-3.31,15.18ZM15.52,119.41l8.3-.79,3.28-8,3.29,8,8.31.77-6.27,5.72,1.86,8.44-7.17-4.43L20,133.56l1.84-8.45Z"/><path class="cls-14" d="M102.37,119.67l-4.7-21.34,15.85-14.44-21-2L84.2,61.82,75.93,82l-21,2L70.82,98.36l-4.65,21.36,18.09-11.24ZM76.76,96.35l-8.84-8,11.69-1.12L84.22,76l4.63,11.2,11.7,1.09-8.83,8,2.62,11.88L84.25,102l-10.08,6.26Z"/><polygon class="cls-14" points="26.79 174.61 33.23 178.59 31.56 171 37.19 165.87 29.73 165.18 26.77 158.03 23.83 165.19 16.37 165.9 22.02 171.01 20.36 178.6 26.79 174.61"/><path class="cls-14" d="M27.13,35.42,40,43.37,36.66,28.21,47.92,18,33,16.56,27.09,2.27,21.21,16.58,6.29,18,17.58,28.23,14.27,43.41ZM15.52,21.1l8.3-.79,3.28-8,3.29,8,8.31.77-6.27,5.72,1.86,8.44L27.12,30.8,20,35.25,21.8,26.8Z"/><polygon class="cls-14" points="26.79 76.3 33.23 80.28 31.56 72.69 37.19 67.56 29.73 66.87 26.77 59.72 23.83 66.88 16.37 67.59 22.02 72.7 20.36 80.29 26.79 76.3"/><polygon class="cls-14" points="195.65 438.06 204.7 443.66 202.35 432.98 210.28 425.77 199.78 424.79 195.62 414.73 191.48 424.8 180.99 425.8 188.93 433 186.6 443.68 195.65 438.06"/><path class="cls-14" d="M139.13,422.18l12.87,8L148.66,415l11.26-10.26L145,403.33,139.09,389l-5.88,14.31-14.91,1.43L129.58,415l-3.31,15.17Zm-11.61-14.31,8.31-.8,3.27-8,3.3,8,8.3.77-6.27,5.71,1.86,8.45-7.17-4.43L132,422l1.84-8.45Z"/><polygon class="cls-14" points="195.77 548.62 191.64 558.69 181.14 559.69 189.08 566.89 186.76 577.57 195.8 571.95 204.86 577.54 202.51 566.87 210.43 559.65 199.93 558.68 195.77 548.62"/><path class="cls-14" d="M139.24,517.32l12.87,8-3.34-15.17L160,499.85l-14.92-1.38-5.91-14.3-5.88,14.31-14.91,1.43,11.28,10.23-3.3,15.17ZM127.63,503l8.31-.8,3.27-8,3.3,8,8.31.77-6.28,5.71,1.86,8.45-7.17-4.43-7.15,4.44,1.84-8.45Z"/><path class="cls-14" d="M204.54,487.88l-8.32-20.11-8.28,20.13-21,2,15.88,14.39-4.65,21.36,18.09-11.24,18.12,11.19-4.71-21.34,15.85-14.44Zm-.81,14.39,2.62,11.89-10.09-6.24-10.07,6.26,2.59-11.89-8.85-8,11.7-1.12,4.6-11.21,4.64,11.2,11.69,1.09Z"/><polygon class="cls-14" points="138.79 463.06 145.23 467.04 143.56 459.46 149.19 454.33 141.73 453.63 138.78 446.49 135.84 453.64 128.38 454.35 134.02 459.47 132.37 467.06 138.79 463.06"/><polygon class="cls-14" points="202.19 299.1 210.12 291.88 199.62 290.9 195.46 280.84 191.32 290.91 180.83 291.92 188.77 299.11 186.44 309.79 195.49 304.17 204.55 309.77 202.19 299.1"/><path class="cls-14" d="M139,327.05,151.89,335l-3.34-15.17,11.26-10.25-14.92-1.39L139,293.89l-5.88,14.32-14.92,1.42,11.29,10.23L126.16,335Zm-11.61-14.32,8.31-.79,3.27-8,3.29,8,8.31.77-6.27,5.71,1.86,8.45L139,322.43l-7.16,4.45,1.84-8.45Z"/><path class="cls-14" d="M214.23,391.73l-4.7-21.35L225.38,356l-21-1.95-8.32-20.12L187.79,354l-21,2,15.88,14.4L178,391.77l18.09-11.24ZM188.62,368.4l-8.84-8,11.69-1.11,4.61-11.22,4.63,11.2,11.7,1.09-8.83,8,2.62,11.89L196.11,374,186,380.29Z"/><polygon class="cls-14" points="138.68 367.92 145.12 371.9 143.45 364.32 149.08 359.19 141.62 358.5 138.66 351.35 135.72 358.5 128.27 359.22 133.91 364.33 132.26 371.92 138.68 367.92"/><path class="cls-14" d="M139.42,674.45l-5.88,14.31-14.91,1.42,11.28,10.23-3.3,15.18,12.85-8,12.88,8L149,700.39l11.27-10.26-14.92-1.38ZM151,693.26,144.77,699l1.86,8.44L139.46,703l-7.16,4.45,1.84-8.45-6.29-5.7,8.31-.79,3.28-8,3.29,8Z"/><polygon class="cls-14" points="195.93 682.51 191.79 692.58 181.3 693.58 189.24 700.78 186.91 711.46 195.96 705.83 205.01 711.43 202.66 700.76 210.59 693.54 200.09 692.57 195.93 682.51"/><path class="cls-14" d="M148.88,605.25,160.14,595l-14.92-1.38-5.91-14.3-5.88,14.31L118.52,595l11.28,10.23-3.3,15.18,12.85-8,12.87,8Zm-9.53,2.6-7.16,4.44,1.84-8.45-6.29-5.69,8.31-.8,3.27-8,3.3,8,8.31.78-6.28,5.71,1.87,8.45Z"/><polygon class="cls-14" points="139 636.76 136.06 643.92 128.6 644.63 134.24 649.75 132.59 657.33 139.02 653.34 145.45 657.32 143.78 649.74 149.41 644.61 141.95 643.91 139 636.76"/><path class="cls-14" d="M196.37,601.65l-8.27,20.14-21,2L183,638.19l-4.65,21.36,18.09-11.24,18.11,11.19-4.7-21.34,15.85-14.44-21-2Zm16.35,26.47-8.83,8L206.51,648l-10.09-6.23-10.07,6.26,2.59-11.89-8.85-8L191.78,627l4.61-11.21L201,627Z"/><polygon class="cls-14" points="138.91 558.2 145.34 562.18 143.67 554.6 149.3 549.47 141.84 548.77 138.89 541.63 135.95 548.78 128.49 549.49 134.13 554.61 132.48 562.2 138.91 558.2"/><polygon class="cls-14" points="191.44 157.21 180.94 158.21 188.88 165.41 186.56 176.09 195.6 170.47 204.66 176.07 202.31 165.39 210.24 158.18 199.74 157.2 195.58 147.14 191.44 157.21"/><path class="cls-14" d="M139.1,232,152,240l-3.34-15.16,11.26-10.26L145,213.18l-5.91-14.29-5.88,14.31-14.91,1.42,11.28,10.23L126.25,240Zm-11.61-14.32,8.31-.79,3.27-8,3.3,8,8.31.77-6.28,5.72,1.86,8.44-7.17-4.43-7.15,4.45,1.84-8.45Z"/><path class="cls-14" d="M214.35,258l-4.71-21.34,15.85-14.44-21-2-8.32-20.11-8.28,20.13-21,2,15.88,14.39-4.65,21.36,18.09-11.24ZM188.74,234.7l-8.85-8,11.69-1.12,4.61-11.21,4.64,11.2,11.69,1.09-8.83,8,2.62,11.89-10.09-6.24-10.07,6.26Z"/><polygon class="cls-14" points="138.77 272.92 145.2 276.89 143.53 269.31 149.16 264.18 141.7 263.49 138.75 256.34 135.81 263.5 128.35 264.21 133.99 269.32 132.34 276.91 138.77 272.92"/><polygon class="cls-14" points="191.44 18.86 180.94 19.86 188.88 27.06 186.56 37.74 195.6 32.12 204.66 37.72 202.31 27.04 210.24 19.82 199.74 18.85 195.58 8.79 191.44 18.86"/><path class="cls-14" d="M139.1,133.73l12.87,8-3.34-15.16,11.26-10.26L145,114.87l-5.91-14.29-5.88,14.31-14.91,1.42,11.28,10.23-3.3,15.18Zm-11.61-14.32,8.31-.79,3.27-8,3.3,8,8.31.77-6.28,5.72,1.86,8.44-7.17-4.43-7.15,4.45,1.84-8.45Z"/><path class="cls-14" d="M214.35,119.67l-4.71-21.34,15.85-14.44-21-2-8.32-20.12L187.9,82l-21,2,15.88,14.39-4.65,21.36,18.09-11.24ZM188.74,96.35l-8.85-8,11.69-1.12L196.19,76l4.64,11.2,11.69,1.09-8.83,8,2.62,11.88L196.22,102l-10.07,6.26Z"/><polygon class="cls-14" points="138.77 174.61 145.2 178.59 143.53 171 149.16 165.87 141.7 165.18 138.75 158.03 135.81 165.19 128.35 165.9 133.99 171.01 132.34 178.6 138.77 174.61"/><path class="cls-14" d="M139.1,35.42,152,43.37l-3.34-15.16L159.89,18,145,16.56,139.06,2.27l-5.88,14.31L118.27,18l11.28,10.23-3.3,15.18ZM127.49,21.1l8.31-.79,3.27-8,3.3,8,8.31.77-6.28,5.72,1.86,8.44-7.17-4.43-7.15,4.45,1.84-8.45Z"/><polygon class="cls-14" points="138.77 76.3 145.2 80.28 143.53 72.69 149.16 67.56 141.7 66.87 138.75 59.72 135.81 66.88 128.35 67.59 133.99 72.7 132.34 80.29 138.77 76.3"/><polygon class="cls-14" points="307.62 438.06 316.68 443.66 314.33 432.98 322.25 425.77 311.75 424.79 307.59 414.73 303.45 424.8 292.96 425.8 300.9 433 298.57 443.68 307.62 438.06"/><path class="cls-14" d="M251.1,422.18l12.88,8L260.63,415l11.27-10.26L257,403.33,251.07,389l-5.88,14.31-14.92,1.43L241.56,415l-3.31,15.17Zm-11.61-14.31,8.31-.8,3.28-8,3.29,8,8.31.77-6.27,5.71,1.86,8.45-7.17-4.43L243.94,422l1.84-8.45Z"/><polygon class="cls-14" points="307.75 548.62 303.61 558.69 293.12 559.69 301.06 566.89 298.73 577.57 307.77 571.95 316.83 577.54 314.48 566.87 322.41 559.65 311.91 558.68 307.75 548.62"/><path class="cls-14" d="M251.21,517.32l12.88,8-3.34-15.17L272,499.85l-14.92-1.38-5.91-14.3-5.88,14.31-14.92,1.43,11.29,10.23-3.31,15.17ZM239.61,503l8.3-.8,3.28-8,3.29,8,8.31.77-6.27,5.71,1.86,8.45-7.17-4.43-7.16,4.44,1.84-8.45Z"/><path class="cls-14" d="M316.51,487.88l-8.32-20.11-8.27,20.13-21,2,15.88,14.39-4.65,21.36,18.09-11.24,18.11,11.19-4.7-21.34,15.85-14.44Zm-.8,14.39,2.62,11.89-10.09-6.24-10.08,6.26,2.59-11.89-8.84-8,11.69-1.12,4.61-11.21,4.63,11.2,11.7,1.09Z"/><polygon class="cls-14" points="250.77 463.06 257.21 467.04 255.53 459.46 261.17 454.33 253.71 453.63 250.75 446.49 247.81 453.64 240.35 454.35 246 459.47 244.34 467.06 250.77 463.06"/><polygon class="cls-14" points="314.17 299.1 322.09 291.88 311.6 290.9 307.44 280.84 303.3 290.91 292.8 291.92 300.75 299.11 298.42 309.79 307.46 304.17 316.52 309.77 314.17 299.1"/><path class="cls-14" d="M251,327.05,263.87,335l-3.35-15.17,11.27-10.25-14.92-1.39L251,293.89l-5.88,14.32-14.91,1.42,11.28,10.23L238.14,335Zm-11.61-14.32,8.31-.79,3.28-8,3.29,8,8.31.77-6.27,5.71,1.86,8.45L251,322.43l-7.16,4.45,1.84-8.45Z"/><path class="cls-14" d="M326.21,391.73l-4.71-21.35L337.35,356l-21-1.95L308,333.88,299.76,354l-21,2,15.88,14.4L290,391.77l18.09-11.24ZM300.6,368.4l-8.85-8,11.69-1.11,4.61-11.22,4.64,11.2,11.69,1.09-8.83,8,2.62,11.89L308.08,374,298,380.29Z"/><polygon class="cls-14" points="250.66 367.92 257.1 371.9 255.42 364.32 261.06 359.19 253.6 358.5 250.64 351.35 247.7 358.5 240.24 359.22 245.88 364.33 244.23 371.92 250.66 367.92"/><path class="cls-14" d="M251.4,674.45l-5.88,14.31-14.92,1.42,11.29,10.23-3.31,15.18,12.86-8,12.87,8L261,700.39l11.26-10.26-14.92-1.38ZM263,693.26,256.74,699l1.86,8.44L251.43,703l-7.16,4.45,1.84-8.45-6.28-5.7,8.31-.79,3.27-8,3.29,8Z"/><polygon class="cls-14" points="307.9 682.51 303.77 692.58 293.27 693.58 301.21 700.78 298.89 711.46 307.93 705.83 316.99 711.43 314.64 700.76 322.56 693.54 312.06 692.57 307.9 682.51"/><path class="cls-14" d="M260.86,605.25,272.12,595l-14.92-1.38-5.91-14.3-5.88,14.31L230.49,595l11.29,10.23-3.31,15.18,12.86-8,12.87,8Zm-9.54,2.6-7.16,4.44,1.84-8.45-6.28-5.69,8.3-.8,3.28-8,3.29,8,8.31.78-6.27,5.71,1.86,8.45Z"/><polygon class="cls-14" points="250.97 636.76 248.03 643.92 240.57 644.63 246.22 649.75 244.56 657.33 250.99 653.34 257.43 657.32 255.76 649.74 261.39 644.61 253.93 643.91 250.97 636.76"/><path class="cls-14" d="M308.35,601.65l-8.28,20.14-21,2L295,638.19l-4.65,21.36,18.09-11.24,18.12,11.19-4.71-21.34,15.85-14.44-21-2Zm16.34,26.47-8.83,8L318.48,648l-10.09-6.23-10.07,6.26,2.59-11.89-8.85-8,11.7-1.12,4.6-11.21L313,627Z"/><polygon class="cls-14" points="250.88 558.2 257.32 562.18 255.65 554.6 261.28 549.47 253.82 548.77 250.86 541.63 247.92 548.78 240.46 549.49 246.11 554.61 244.45 562.2 250.88 558.2"/><polygon class="cls-14" points="303.41 157.21 292.92 158.21 300.86 165.41 298.53 176.09 307.58 170.47 316.64 176.07 314.28 165.39 322.21 158.18 311.71 157.2 307.55 147.14 303.41 157.21"/><path class="cls-14" d="M251.07,232,264,240l-3.34-15.16,11.26-10.26L257,213.18,251,198.89l-5.88,14.31-14.92,1.42,11.29,10.23L238.22,240Zm-11.61-14.32,8.31-.79,3.28-8,3.29,8,8.31.77-6.27,5.72,1.86,8.44-7.17-4.43-7.16,4.45,1.84-8.45Z"/><path class="cls-14" d="M326.32,258l-4.7-21.34,15.85-14.44-21-2-8.32-20.11-8.27,20.13-21,2,15.89,14.39-4.66,21.36,18.09-11.24ZM300.71,234.7l-8.84-8,11.69-1.12,4.61-11.21,4.63,11.2,11.69,1.09-8.82,8,2.62,11.89-10.09-6.24-10.08,6.26Z"/><polygon class="cls-14" points="250.74 272.92 257.18 276.89 255.51 269.31 261.14 264.18 253.68 263.49 250.72 256.34 247.78 263.5 240.32 264.21 245.97 269.32 244.31 276.91 250.74 272.92"/><polygon class="cls-14" points="303.41 18.86 292.92 19.86 300.86 27.06 298.53 37.74 307.58 32.12 316.64 37.72 314.28 27.04 322.21 19.82 311.71 18.85 307.55 8.79 303.41 18.86"/><path class="cls-14" d="M251.07,133.73l12.88,8-3.34-15.16,11.26-10.26L257,114.87,251,100.58l-5.88,14.31-14.92,1.42,11.29,10.23-3.31,15.18Zm-11.61-14.32,8.31-.79,3.28-8,3.29,8,8.31.77-6.27,5.72,1.86,8.44-7.17-4.43-7.16,4.45,1.84-8.45Z"/><path class="cls-14" d="M326.32,119.67l-4.7-21.34,15.85-14.44-21-2-8.32-20.12L299.88,82l-21,2,15.89,14.39-4.66,21.36,18.09-11.24ZM300.71,96.35l-8.84-8,11.69-1.12L308.17,76l4.63,11.2,11.69,1.09-8.82,8,2.62,11.88L308.2,102l-10.08,6.26Z"/><polygon class="cls-14" points="250.74 174.61 257.18 178.59 255.51 171 261.14 165.87 253.68 165.18 250.72 158.03 247.78 165.19 240.32 165.9 245.97 171.01 244.31 178.6 250.74 174.61"/><path class="cls-14" d="M251.07,35.42,264,43.37l-3.34-15.16L271.87,18,257,16.56,251,2.27l-5.88,14.31L230.24,18l11.29,10.23-3.31,15.18ZM239.46,21.1l8.31-.79,3.28-8,3.29,8,8.31.77-6.27,5.72,1.86,8.44-7.17-4.43-7.16,4.45,1.84-8.45Z"/><polygon class="cls-14" points="250.74 76.3 257.18 80.28 255.51 72.69 261.14 67.56 253.68 66.87 250.72 59.72 247.78 66.88 240.32 67.59 245.97 72.7 244.31 80.29 250.74 76.3"/><polygon class="cls-14" points="419.59 438.06 428.65 443.66 426.3 432.98 434.23 425.77 423.73 424.79 419.57 414.73 415.43 424.8 404.93 425.8 412.88 433 410.55 443.68 419.59 438.06"/><path class="cls-14" d="M363.08,422.18l12.87,8L372.61,415l11.26-10.26L369,403.33,363,389l-5.88,14.31-14.92,1.43L353.53,415l-3.31,15.17Zm-11.61-14.31,8.31-.8,3.27-8,3.29,8,8.31.77-6.27,5.71,1.86,8.45-7.17-4.43L355.91,422l1.84-8.45Z"/><polygon class="cls-14" points="419.72 548.62 415.59 558.69 405.09 559.69 413.03 566.89 410.7 577.57 419.75 571.95 428.81 577.54 426.46 566.87 434.38 559.65 423.88 558.68 419.72 548.62"/><path class="cls-14" d="M363.19,517.32l12.87,8-3.34-15.17L384,499.85l-14.92-1.38-5.91-14.3-5.88,14.31-14.91,1.43,11.28,10.23-3.31,15.17ZM351.58,503l8.31-.8,3.27-8,3.3,8,8.3.77-6.27,5.71,1.86,8.45-7.17-4.43L356,517.15l1.85-8.45Z"/><path class="cls-14" d="M428.49,487.88l-8.32-20.11-8.28,20.13-21,2,15.88,14.39-4.65,21.36,18.09-11.24,18.12,11.19-4.71-21.34,15.85-14.44Zm-.81,14.39,2.62,11.89-10.09-6.24-10.07,6.26,2.59-11.89-8.85-8,11.69-1.12,4.61-11.21,4.64,11.2,11.69,1.09Z"/><polygon class="cls-14" points="362.74 463.06 369.18 467.04 367.51 459.46 373.14 454.33 365.68 453.63 362.73 446.49 359.79 453.64 352.33 454.35 357.97 459.47 356.32 467.06 362.74 463.06"/><polygon class="cls-14" points="426.14 299.1 434.07 291.88 423.57 290.9 419.41 280.84 415.27 290.91 404.78 291.92 412.72 299.11 410.39 309.79 419.44 304.17 428.5 309.77 426.14 299.1"/><path class="cls-14" d="M363,327.05,375.84,335l-3.34-15.17,11.26-10.25-14.92-1.39-5.91-14.3-5.88,14.32-14.92,1.42,11.29,10.23L350.11,335Zm-11.61-14.32,8.31-.79,3.27-8,3.29,8,8.31.77-6.27,5.71,1.86,8.45L363,322.43l-7.16,4.45,1.84-8.45Z"/><path class="cls-14" d="M438.18,391.73l-4.7-21.35L449.33,356l-21-1.95L420,333.88,411.74,354l-21,2,15.89,14.4L402,391.77l18.09-11.24ZM412.57,368.4l-8.84-8,11.69-1.11L420,348.05l4.63,11.2,11.69,1.09-8.82,8,2.62,11.89L420.06,374,410,380.29Z"/><polygon class="cls-14" points="362.63 367.92 369.07 371.9 367.4 364.32 373.03 359.19 365.57 358.5 362.61 351.35 359.67 358.5 352.22 359.22 357.86 364.33 356.21 371.92 362.63 367.92"/><path class="cls-14" d="M363.37,674.45l-5.88,14.31-14.91,1.42,11.28,10.23-3.3,15.18,12.85-8,12.87,8-3.34-15.17,11.26-10.26-14.92-1.38ZM375,693.26,368.71,699l1.87,8.44L363.41,703l-7.16,4.45,1.84-8.45-6.29-5.7,8.31-.79,3.27-8,3.3,8Z"/><polygon class="cls-14" points="419.88 682.51 415.74 692.58 405.25 693.58 413.19 700.78 410.86 711.46 419.91 705.83 428.96 711.43 426.61 700.76 434.54 693.54 424.04 692.57 419.88 682.51"/><path class="cls-14" d="M372.83,605.25,384.09,595l-14.92-1.38-5.91-14.3-5.88,14.31L342.47,595l11.28,10.23-3.3,15.18,12.85-8,12.87,8Zm-9.54,2.6-7.15,4.44,1.84-8.45-6.29-5.69,8.31-.8,3.27-8,3.3,8,8.31.78-6.28,5.71,1.86,8.45Z"/><polygon class="cls-14" points="362.95 636.76 360.01 643.92 352.55 644.63 358.19 649.75 356.54 657.33 362.97 653.34 369.4 657.32 367.73 649.74 373.36 644.61 365.9 643.91 362.95 636.76"/><path class="cls-14" d="M420.32,601.65l-8.27,20.14-21,2,15.88,14.4-4.65,21.36,18.09-11.24,18.11,11.19-4.7-21.34,15.85-14.44-21-2Zm16.35,26.47-8.83,8L430.46,648l-10.09-6.23-10.08,6.26,2.59-11.89-8.84-8L415.73,627l4.61-11.21L425,627Z"/><polygon class="cls-14" points="362.86 558.2 369.29 562.18 367.62 554.6 373.25 549.47 365.79 548.77 362.84 541.63 359.9 548.78 352.44 549.49 358.08 554.61 356.43 562.2 362.86 558.2"/><polygon class="cls-14" points="415.39 157.21 404.89 158.21 412.83 165.41 410.51 176.09 419.55 170.47 428.61 176.07 426.26 165.39 434.18 158.18 423.69 157.2 419.52 147.14 415.39 157.21"/><path class="cls-14" d="M363.05,232l12.87,8-3.34-15.16,11.26-10.26-14.92-1.39L363,198.89l-5.88,14.31-14.92,1.42,11.29,10.23L350.19,240Zm-11.61-14.32,8.31-.79,3.27-8,3.3,8,8.3.77-6.27,5.72,1.86,8.44L363,227.42l-7.16,4.45,1.85-8.45Z"/><path class="cls-14" d="M438.29,258l-4.7-21.34,15.85-14.44-21-2-8.32-20.11-8.27,20.13-21,2,15.88,14.39-4.65,21.36,18.09-11.24Zm-25.6-23.32-8.85-8,11.69-1.12,4.61-11.21,4.64,11.2,11.69,1.09-8.83,8,2.62,11.89-10.09-6.24-10.07,6.26Z"/><polygon class="cls-14" points="362.71 272.92 369.15 276.89 367.48 269.31 373.11 264.18 365.65 263.49 362.69 256.34 359.76 263.5 352.3 264.21 357.94 269.32 356.29 276.91 362.71 272.92"/><polygon class="cls-14" points="415.39 18.86 404.89 19.86 412.83 27.06 410.51 37.74 419.55 32.12 428.61 37.72 426.26 27.04 434.18 19.82 423.69 18.85 419.52 8.79 415.39 18.86"/><path class="cls-14" d="M363.05,133.73l12.87,8-3.34-15.16,11.26-10.26-14.92-1.39L363,100.58l-5.88,14.31-14.92,1.42,11.29,10.23-3.31,15.18Zm-11.61-14.32,8.31-.79,3.27-8,3.3,8,8.3.77-6.27,5.72,1.86,8.44L363,129.11l-7.16,4.45,1.85-8.45Z"/><path class="cls-14" d="M438.29,119.67l-4.7-21.34,15.85-14.44-21-2-8.32-20.12L411.85,82l-21,2,15.88,14.39-4.65,21.36,18.09-11.24Zm-25.6-23.32-8.85-8,11.69-1.12L420.14,76l4.64,11.2,11.69,1.09-8.83,8,2.62,11.88L420.17,102l-10.07,6.26Z"/><polygon class="cls-14" points="362.71 174.61 369.15 178.59 367.48 171 373.11 165.87 365.65 165.18 362.69 158.03 359.76 165.19 352.3 165.9 357.94 171.01 356.29 178.6 362.71 174.61"/><path class="cls-14" d="M363.05,35.42l12.87,7.95-3.34-15.16L383.84,18l-14.92-1.39L363,2.27l-5.88,14.31L342.21,18,353.5,28.23l-3.31,15.18ZM351.44,21.1l8.31-.79,3.27-8,3.3,8,8.3.77-6.27,5.72,1.86,8.44L363,30.8l-7.16,4.45,1.85-8.45Z"/><polygon class="cls-14" points="362.71 76.3 369.15 80.28 367.48 72.69 373.11 67.56 365.65 66.87 362.69 59.72 359.76 66.88 352.3 67.59 357.94 72.7 356.29 80.29 362.71 76.3"/><polygon class="cls-14" points="531.57 438.06 540.63 443.66 538.27 432.98 546.2 425.77 535.7 424.79 531.54 414.73 527.4 424.8 516.91 425.8 524.85 433 522.52 443.68 531.57 438.06"/><path class="cls-14" d="M475.05,422.18l12.88,8L484.58,415l11.27-10.26-14.92-1.38L475,389l-5.88,14.31-14.91,1.43L465.5,415l-3.3,15.17Zm-11.61-14.31,8.31-.8,3.28-8,3.29,8,8.31.77-6.27,5.71,1.86,8.45-7.17-4.43L467.89,422l1.84-8.45Z"/><polygon class="cls-14" points="531.7 548.62 527.56 558.69 517.07 559.69 525.01 566.89 522.68 577.57 531.72 571.95 540.78 577.54 538.43 566.87 546.36 559.65 535.86 558.68 531.7 548.62"/><path class="cls-14" d="M475.16,517.32l12.88,8-3.35-15.17L496,499.85,481,498.47l-5.92-14.3-5.87,14.31-14.92,1.43,11.29,10.23-3.31,15.17ZM463.55,503l8.31-.8,3.28-8,3.29,8,8.31.77-6.27,5.71,1.86,8.45-7.17-4.43L468,517.15l1.84-8.45Z"/><path class="cls-14" d="M540.46,487.88l-8.32-20.11-8.27,20.13-21,2,15.89,14.39-4.66,21.36,18.09-11.24,18.12,11.19-4.7-21.34,15.85-14.44Zm-.8,14.39,2.62,11.89-10.09-6.24-10.08,6.26,2.59-11.89-8.84-8,11.69-1.12,4.61-11.21,4.63,11.2,11.69,1.09Z"/><polygon class="cls-14" points="474.72 463.06 481.15 467.04 479.48 459.46 485.12 454.33 477.65 453.63 474.7 446.49 471.76 453.64 464.3 454.35 469.94 459.47 468.29 467.06 474.72 463.06"/><polygon class="cls-14" points="538.12 299.1 546.04 291.88 535.54 290.9 531.38 280.84 527.25 290.91 516.75 291.92 524.69 299.11 522.37 309.79 531.41 304.17 540.47 309.77 538.12 299.1"/><path class="cls-14" d="M474.94,327.05,487.81,335l-3.34-15.17,11.27-10.25-14.92-1.39-5.92-14.3L469,308.21l-14.91,1.42,11.28,10.23L462.09,335Zm-11.61-14.32,8.31-.79,3.27-8,3.3,8,8.31.77-6.28,5.71,1.87,8.45-7.17-4.43-7.16,4.45,1.84-8.45Z"/><path class="cls-14" d="M550.15,391.73l-4.7-21.35L561.3,356l-21-1.95L532,333.88,523.71,354l-21,2,15.88,14.4L514,391.77,532,380.53Zm-25.6-23.33-8.85-8,11.69-1.11L532,348.05l4.64,11.2,11.69,1.09-8.83,8,2.62,11.89L532,374,522,380.29Z"/><polygon class="cls-14" points="474.61 367.92 481.04 371.9 479.37 364.32 485 359.19 477.55 358.5 474.59 351.35 471.65 358.5 464.19 359.22 469.83 364.33 468.18 371.92 474.61 367.92"/><path class="cls-14" d="M475.35,674.45l-5.88,14.31-14.92,1.42,11.29,10.23-3.31,15.18,12.86-8,12.87,8-3.34-15.17,11.26-10.26-14.92-1.38ZM487,693.26,480.69,699l1.86,8.44L475.38,703l-7.16,4.45,1.84-8.45-6.28-5.7,8.3-.79,3.28-8,3.29,8Z"/><polygon class="cls-14" points="531.85 682.51 527.72 692.58 517.22 693.58 525.16 700.78 522.84 711.46 531.88 705.83 540.94 711.43 538.59 700.76 546.51 693.54 536.01 692.57 531.85 682.51"/><path class="cls-14" d="M484.81,605.25,496.07,595l-14.92-1.38-5.91-14.3-5.88,14.31L454.44,595l11.29,10.23-3.31,15.18,12.85-8,12.88,8Zm-9.54,2.6-7.16,4.44,1.84-8.45-6.28-5.69,8.3-.8,3.28-8,3.29,8,8.31.78-6.27,5.71,1.86,8.45Z"/><polygon class="cls-14" points="474.92 636.76 471.98 643.92 464.52 644.63 470.17 649.75 468.51 657.33 474.94 653.34 481.38 657.32 479.71 649.74 485.34 644.61 477.88 643.91 474.92 636.76"/><path class="cls-14" d="M532.3,601.65,524,621.79l-21,2,15.88,14.4-4.65,21.36,18.09-11.24,18.12,11.19-4.71-21.34,15.85-14.44-21-2Zm16.34,26.47-8.83,8L542.43,648l-10.09-6.23-10.07,6.26,2.59-11.89-8.85-8,11.7-1.12,4.6-11.21L537,627Z"/><polygon class="cls-14" points="474.83 558.2 481.27 562.18 479.6 554.6 485.23 549.47 477.77 548.77 474.81 541.63 471.87 548.78 464.41 549.49 470.06 554.61 468.4 562.2 474.83 558.2"/><polygon class="cls-14" points="527.36 157.21 516.87 158.21 524.81 165.41 522.48 176.09 531.53 170.47 540.59 176.07 538.23 165.39 546.16 158.18 535.66 157.2 531.5 147.14 527.36 157.21"/><path class="cls-14" d="M475,232l12.88,8-3.35-15.16,11.27-10.26-14.92-1.39L475,198.89l-5.87,14.31-14.92,1.42,11.29,10.23L462.17,240Zm-11.61-14.32,8.31-.79,3.28-8,3.29,8,8.31.77-6.27,5.72,1.86,8.44L475,227.42l-7.16,4.45,1.84-8.45Z"/><path class="cls-14" d="M550.27,258l-4.7-21.34,15.85-14.44-21-2-8.32-20.11-8.28,20.13-21,2,15.89,14.39-4.66,21.36,18.09-11.24ZM524.66,234.7l-8.84-8,11.69-1.12,4.61-11.21,4.63,11.2,11.69,1.09-8.82,8,2.62,11.89-10.09-6.24-10.08,6.26Z"/><polygon class="cls-14" points="474.69 272.92 481.13 276.89 479.45 269.31 485.09 264.18 477.63 263.49 474.67 256.34 471.73 263.5 464.27 264.21 469.92 269.32 468.26 276.91 474.69 272.92"/><polygon class="cls-14" points="527.36 18.86 516.87 19.86 524.81 27.06 522.48 37.74 531.53 32.12 540.59 37.72 538.23 27.04 546.16 19.82 535.66 18.85 531.5 8.79 527.36 18.86"/><path class="cls-14" d="M475,133.73l12.88,8-3.35-15.16,11.27-10.26-14.92-1.39L475,100.58l-5.87,14.31-14.92,1.42,11.29,10.23-3.31,15.18Zm-11.61-14.32,8.31-.79,3.28-8,3.29,8,8.31.77-6.27,5.72,1.86,8.44L475,129.11l-7.16,4.45,1.84-8.45Z"/><path class="cls-14" d="M550.27,119.67l-4.7-21.34,15.85-14.44-21-2L532.1,61.82,523.82,82l-21,2,15.89,14.39-4.66,21.36,18.09-11.24ZM524.66,96.35l-8.84-8,11.69-1.12L532.12,76l4.63,11.2,11.69,1.09-8.82,8,2.62,11.88L532.15,102l-10.08,6.26Z"/><polygon class="cls-14" points="474.69 174.61 481.13 178.59 479.45 171 485.09 165.87 477.63 165.18 474.67 158.03 471.73 165.19 464.27 165.9 469.92 171.01 468.26 178.6 474.69 174.61"/><path class="cls-14" d="M475,35.42l12.88,7.95-3.35-15.16L495.82,18,480.9,16.56,475,2.27l-5.87,14.31L454.19,18l11.29,10.23-3.31,15.18ZM463.41,21.1l8.31-.79,3.28-8,3.29,8,8.31.77-6.27,5.72,1.86,8.44L475,30.8l-7.16,4.45,1.84-8.45Z"/><polygon class="cls-14" points="474.69 76.3 481.13 80.28 479.45 72.69 485.09 67.56 477.63 66.87 474.67 59.72 471.73 66.88 464.27 67.59 469.92 72.7 468.26 80.29 474.69 76.3"/><polygon class="cls-14" points="643.54 438.06 652.6 443.66 650.25 432.98 658.17 425.77 647.68 424.79 643.52 414.73 639.38 424.8 628.88 425.8 636.82 433 634.5 443.68 643.54 438.06"/><path class="cls-14" d="M587,422.18l12.87,8L596.56,415l11.26-10.26-14.92-1.38L587,389l-5.88,14.31-14.92,1.43L577.48,415l-3.31,15.17Zm-11.61-14.31,8.31-.8,3.27-8,3.29,8,8.31.77-6.27,5.71,1.86,8.45L587,417.57,579.86,422l1.84-8.45Z"/><polygon class="cls-14" points="643.67 548.62 639.53 558.69 629.04 559.69 636.98 566.89 634.65 577.57 643.7 571.95 652.76 577.54 650.41 566.87 658.33 559.65 647.83 558.68 643.67 548.62"/><path class="cls-14" d="M587.14,517.32l12.87,8-3.34-15.17,11.26-10.26L593,498.47l-5.91-14.3-5.88,14.31-14.92,1.43,11.29,10.23-3.31,15.17ZM575.53,503l8.31-.8,3.27-8,3.29,8,8.31.77-6.27,5.71,1.86,8.45-7.17-4.43L580,517.15l1.84-8.45Z"/><path class="cls-14" d="M652.44,487.88l-8.33-20.11-8.27,20.13-21,2,15.88,14.39-4.65,21.36,18.09-11.24,18.11,11.19-4.7-21.34,15.85-14.44Zm-.81,14.39,2.62,11.89-10.09-6.24-10.07,6.26,2.59-11.89-8.85-8,11.69-1.12,4.61-11.21,4.64,11.2,11.69,1.09Z"/><polygon class="cls-14" points="586.69 463.06 593.13 467.04 591.46 459.46 597.09 454.33 589.63 453.63 586.67 446.49 583.73 453.64 576.28 454.35 581.92 459.47 580.27 467.06 586.69 463.06"/><polygon class="cls-14" points="650.09 299.1 658.02 291.88 647.52 290.9 643.36 280.84 639.22 290.91 628.73 291.92 636.67 299.11 634.34 309.79 643.39 304.17 652.45 309.77 650.09 299.1"/><path class="cls-14" d="M586.92,327.05,599.79,335l-3.34-15.17,11.26-10.25-14.92-1.39-5.91-14.3L581,308.21l-14.92,1.42,11.29,10.23L574.06,335Zm-11.61-14.32,8.31-.79,3.27-8,3.29,8,8.31.77-6.27,5.71,1.86,8.45-7.17-4.43-7.16,4.45,1.84-8.45Z"/><path class="cls-14" d="M662.13,391.73l-4.7-21.35L673.28,356l-21-1.95L644,333.88,635.68,354l-21,2,15.89,14.4-4.66,21.35L644,380.53ZM636.52,368.4l-8.84-8,11.69-1.11,4.6-11.22,4.64,11.2,11.69,1.09-8.82,8,2.62,11.89L644,374l-10.08,6.26Z"/><polygon class="cls-14" points="586.58 367.92 593.02 371.9 591.35 364.32 596.98 359.19 589.52 358.5 586.56 351.35 583.62 358.5 576.16 359.22 581.81 364.33 580.15 371.92 586.58 367.92"/><path class="cls-14" d="M587.32,674.45l-5.88,14.31-14.91,1.42,11.28,10.23-3.3,15.18,12.85-8,12.87,8-3.34-15.17,11.26-10.26-14.92-1.38Zm11.62,18.81L592.66,699l1.86,8.44L587.35,703l-7.15,4.45L582,699l-6.29-5.7,8.31-.79,3.27-8,3.3,8Z"/><polygon class="cls-14" points="643.83 682.51 639.69 692.58 629.2 693.58 637.14 700.78 634.81 711.46 643.86 705.83 652.91 711.43 650.56 700.76 658.49 693.54 647.99 692.57 643.83 682.51"/><path class="cls-14" d="M596.78,605.25,608,595l-14.92-1.38-5.91-14.3-5.88,14.31L566.41,595l11.29,10.23-3.31,15.18,12.86-8,12.87,8Zm-9.54,2.6-7.16,4.44,1.85-8.45-6.29-5.69,8.31-.8,3.27-8,3.3,8,8.3.78-6.27,5.71,1.86,8.45Z"/><polygon class="cls-14" points="586.9 636.76 583.96 643.92 576.5 644.63 582.14 649.75 580.49 657.33 586.91 653.34 593.35 657.32 591.68 649.74 597.31 644.61 589.85 643.91 586.9 636.76"/><path class="cls-14" d="M644.27,601.65,636,621.79l-21,2,15.88,14.4-4.65,21.36,18.09-11.24,18.11,11.19-4.7-21.34,15.85-14.44-21-2Zm16.35,26.47-8.83,8L654.41,648l-10.09-6.23-10.08,6.26,2.59-11.89-8.84-8L639.68,627l4.61-11.21,4.63,11.2Z"/><polygon class="cls-14" points="586.8 558.2 593.24 562.18 591.57 554.6 597.2 549.47 589.74 548.77 586.78 541.63 583.85 548.78 576.39 549.49 582.03 554.61 580.38 562.2 586.8 558.2"/><polygon class="cls-14" points="639.34 157.21 628.84 158.21 636.78 165.41 634.46 176.09 643.5 170.47 652.56 176.07 650.21 165.39 658.13 158.18 647.63 157.2 643.47 147.14 639.34 157.21"/><path class="cls-14" d="M587,232l12.87,8-3.34-15.16,11.26-10.26-14.92-1.39L587,198.89l-5.88,14.31-14.92,1.42,11.29,10.23L574.14,240Zm-11.61-14.32,8.31-.79,3.27-8,3.29,8,8.31.77-6.27,5.72,1.86,8.44L587,227.42l-7.16,4.45,1.84-8.45Z"/><path class="cls-14" d="M662.24,258l-4.7-21.34,15.85-14.44-21-2-8.32-20.11-8.27,20.13-21,2,15.88,14.39L626,258.07l18.09-11.24Zm-25.6-23.32-8.85-8,11.69-1.12,4.61-11.21,4.63,11.2,11.7,1.09-8.83,8,2.62,11.89-10.09-6.24-10.07,6.26Z"/><polygon class="cls-14" points="586.66 272.92 593.1 276.89 591.43 269.31 597.06 264.18 589.6 263.49 586.64 256.34 583.71 263.5 576.25 264.21 581.89 269.32 580.24 276.91 586.66 272.92"/><polygon class="cls-14" points="639.34 18.86 628.84 19.86 636.78 27.06 634.46 37.74 643.5 32.12 652.56 37.72 650.21 27.04 658.13 19.82 647.63 18.85 643.47 8.79 639.34 18.86"/><path class="cls-14" d="M587,133.73l12.87,8-3.34-15.16,11.26-10.26-14.92-1.39L587,100.58l-5.88,14.31-14.92,1.42,11.29,10.23-3.31,15.18Zm-11.61-14.32,8.31-.79,3.27-8,3.29,8,8.31.77-6.27,5.72,1.86,8.44L587,129.11l-7.16,4.45,1.84-8.45Z"/><path class="cls-14" d="M662.24,119.67l-4.7-21.34,15.85-14.44-21-2-8.32-20.12L635.8,82l-21,2,15.88,14.39L626,119.72l18.09-11.24Zm-25.6-23.32-8.85-8,11.69-1.12L644.09,76l4.63,11.2,11.7,1.09-8.83,8,2.62,11.88L644.12,102l-10.07,6.26Z"/><polygon class="cls-14" points="586.66 174.61 593.1 178.59 591.43 171 597.06 165.87 589.6 165.18 586.64 158.03 583.71 165.19 576.25 165.9 581.89 171.01 580.24 178.6 586.66 174.61"/><path class="cls-14" d="M587,35.42l12.87,7.95-3.34-15.16L607.79,18l-14.92-1.39L587,2.27l-5.88,14.31L566.16,18l11.29,10.23-3.31,15.18ZM575.39,21.1l8.31-.79,3.27-8,3.29,8,8.31.77-6.27,5.72,1.86,8.44L587,30.8l-7.16,4.45,1.84-8.45Z"/><polygon class="cls-14" points="586.66 76.3 593.1 80.28 591.43 72.69 597.06 67.56 589.6 66.87 586.64 59.72 583.71 66.88 576.25 67.59 581.89 72.7 580.24 80.29 586.66 76.3"/><polygon class="cls-14" points="755.52 438.06 764.58 443.66 762.22 432.98 770.15 425.77 759.65 424.79 755.49 414.73 751.35 424.8 740.86 425.8 748.8 433 746.47 443.68 755.52 438.06"/><path class="cls-14" d="M699,422.18l12.87,8L708.53,415l11.26-10.26-14.91-1.38L699,389l-5.88,14.31-14.91,1.43L689.45,415l-3.3,15.17Zm-11.61-14.31,8.31-.8,3.27-8,3.3,8,8.31.77-6.28,5.71,1.87,8.45L699,417.57,691.84,422l1.84-8.45Z"/><polygon class="cls-14" points="755.65 548.62 751.51 558.69 741.01 559.69 748.96 566.89 746.63 577.57 755.67 571.95 764.73 577.54 762.38 566.87 770.3 559.65 759.81 558.68 755.65 548.62"/><path class="cls-14" d="M699.11,517.32l12.88,8-3.35-15.17,11.27-10.26L705,498.47l-5.92-14.3-5.88,14.31-14.91,1.43,11.28,10.23-3.3,15.17ZM687.5,503l8.31-.8,3.28-8,3.29,8,8.31.77-6.27,5.71,1.86,8.45-7.17-4.43L692,517.15l1.84-8.45Z"/><path class="cls-14" d="M764.41,487.88l-8.32-20.11-8.27,20.13-21,2,15.89,14.39-4.66,21.36,18.09-11.24,18.12,11.19-4.7-21.34,15.85-14.44Zm-.8,14.39,2.62,11.89-10.09-6.24-10.08,6.26,2.59-11.89-8.84-8,11.69-1.12,4.61-11.21,4.63,11.2,11.69,1.09Z"/><polygon class="cls-14" points="698.67 463.06 705.1 467.04 703.43 459.46 709.06 454.33 701.6 453.63 698.65 446.49 695.71 453.64 688.25 454.35 693.89 459.47 692.24 467.06 698.67 463.06"/><polygon class="cls-14" points="762.07 299.1 769.99 291.88 759.49 290.9 755.33 280.84 751.2 290.91 740.7 291.92 748.64 299.11 746.32 309.79 755.36 304.17 764.42 309.77 762.07 299.1"/><path class="cls-14" d="M698.89,327.05,711.76,335l-3.34-15.17,11.26-10.25-14.92-1.39-5.91-14.3L693,308.21l-14.91,1.42,11.28,10.23L686,335Zm-11.61-14.32,8.31-.79,3.27-8,3.3,8,8.31.77-6.28,5.71,1.87,8.45-7.17-4.43-7.16,4.45,1.84-8.45Z"/><path class="cls-14" d="M774.1,391.73l-4.7-21.35L785.25,356l-21-1.95-8.32-20.12L747.66,354l-21,2,15.88,14.4-4.65,21.35L756,380.53ZM748.5,368.4l-8.85-8,11.69-1.11L756,348.05l4.63,11.2,11.7,1.09-8.83,8,2.62,11.89L756,374l-10.07,6.26Z"/><polygon class="cls-14" points="698.56 367.92 704.99 371.9 703.32 364.32 708.95 359.19 701.49 358.5 698.54 351.35 695.6 358.5 688.14 359.22 693.78 364.33 692.13 371.92 698.56 367.92"/><path class="cls-14" d="M699.3,674.45l-5.88,14.31-14.92,1.42,11.29,10.23-3.31,15.18,12.85-8,12.88,8-3.34-15.17,11.26-10.26-14.92-1.38Zm11.61,18.81L704.64,699l1.86,8.44L699.33,703l-7.16,4.45L694,699l-6.28-5.7,8.3-.79,3.28-8,3.29,8Z"/><polygon class="cls-14" points="755.8 682.51 751.66 692.58 741.17 693.58 749.11 700.78 746.78 711.46 755.83 705.83 764.89 711.43 762.54 700.76 770.46 693.54 759.96 692.57 755.8 682.51"/><path class="cls-14" d="M708.75,605.25,720,595l-14.92-1.38-5.92-14.3-5.87,14.31L678.39,595l11.29,10.23-3.31,15.18,12.85-8,12.88,8Zm-9.53,2.6-7.16,4.44,1.84-8.45-6.29-5.69,8.31-.8,3.28-8,3.29,8,8.31.78-6.27,5.71,1.86,8.45Z"/><polygon class="cls-14" points="698.87 636.76 695.93 643.92 688.47 644.63 694.12 649.75 692.46 657.33 698.89 653.34 705.33 657.32 703.65 649.74 709.29 644.61 701.83 643.91 698.87 636.76"/><path class="cls-14" d="M756.25,601.65,748,621.79l-21,2,15.88,14.4-4.65,21.36,18.09-11.24,18.12,11.19-4.71-21.34,15.85-14.44-21-2Zm16.34,26.47-8.83,8L766.38,648l-10.09-6.23-10.07,6.26,2.59-11.89-8.85-8L751.65,627l4.61-11.21L760.9,627Z"/><polygon class="cls-14" points="698.78 558.2 705.22 562.18 703.54 554.6 709.17 549.47 701.72 548.77 698.76 541.63 695.82 548.78 688.36 549.49 694 554.61 692.35 562.2 698.78 558.2"/><polygon class="cls-14" points="751.31 157.21 740.82 158.21 748.76 165.41 746.43 176.09 755.48 170.47 764.53 176.07 762.18 165.39 770.11 158.18 759.61 157.2 755.45 147.14 751.31 157.21"/><path class="cls-14" d="M699,232l12.87,8-3.34-15.16,11.27-10.26-14.92-1.39-5.92-14.29-5.88,14.31-14.91,1.42,11.28,10.23L686.12,240Zm-11.61-14.32,8.31-.79,3.28-8,3.29,8,8.31.77-6.27,5.72,1.86,8.44L699,227.42l-7.16,4.45,1.84-8.45Z"/><path class="cls-14" d="M774.22,258l-4.71-21.34,15.85-14.44-21-2-8.32-20.11-8.28,20.13-21,2,15.88,14.39L738,258.07l18.09-11.24ZM748.61,234.7l-8.85-8,11.7-1.12,4.6-11.21,4.64,11.2,11.69,1.09-8.83,8,2.62,11.89-10.09-6.24L746,246.59Z"/><polygon class="cls-14" points="698.64 272.92 705.07 276.89 703.4 269.31 709.03 264.18 701.58 263.49 698.62 256.34 695.68 263.5 688.22 264.21 693.86 269.32 692.21 276.91 698.64 272.92"/><polygon class="cls-14" points="751.31 18.86 740.82 19.86 748.76 27.06 746.43 37.74 755.48 32.12 764.53 37.72 762.18 27.04 770.11 19.82 759.61 18.85 755.45 8.79 751.31 18.86"/><path class="cls-14" d="M699,133.73l12.87,8-3.34-15.16,11.27-10.26-14.92-1.39-5.92-14.29-5.88,14.31-14.91,1.42,11.28,10.23-3.3,15.18Zm-11.61-14.32,8.31-.79,3.28-8,3.29,8,8.31.77-6.27,5.72,1.86,8.44L699,129.11l-7.16,4.45,1.84-8.45Z"/><path class="cls-14" d="M774.22,119.67l-4.71-21.34,15.85-14.44-21-2-8.32-20.12L747.77,82l-21,2,15.88,14.39L738,119.72l18.09-11.24ZM748.61,96.35l-8.85-8,11.7-1.12L756.06,76l4.64,11.2,11.69,1.09-8.83,8,2.62,11.88L756.09,102,746,108.24Z"/><polygon class="cls-14" points="698.64 174.61 705.07 178.59 703.4 171 709.03 165.87 701.58 165.18 698.62 158.03 695.68 165.19 688.22 165.9 693.86 171.01 692.21 178.6 698.64 174.61"/><path class="cls-14" d="M699,35.42l12.87,7.95L708.5,28.21,719.77,18l-14.92-1.39L698.93,2.27l-5.88,14.31L678.14,18l11.28,10.23-3.3,15.18ZM687.36,21.1l8.31-.79,3.28-8,3.29,8,8.31.77-6.27,5.72,1.86,8.44L699,30.8l-7.16,4.45,1.84-8.45Z"/><polygon class="cls-14" points="698.64 76.3 705.07 80.28 703.4 72.69 709.03 67.56 701.58 66.87 698.62 59.72 695.68 66.88 688.22 67.59 693.86 72.7 692.21 80.29 698.64 76.3"/><polygon class="cls-14" points="867.49 438.06 876.55 443.66 874.2 432.98 882.12 425.77 871.63 424.79 867.47 414.73 863.33 424.8 852.83 425.8 860.77 433 858.45 443.68 867.49 438.06"/><path class="cls-14" d="M811,422.18l12.87,8L820.51,415l11.26-10.26-14.92-1.38L810.94,389l-5.88,14.31-14.92,1.43L801.43,415l-3.31,15.17Zm-11.61-14.31,8.3-.8,3.28-8,3.29,8,8.31.77-6.27,5.71,1.86,8.45L811,417.57,803.81,422l1.84-8.45Z"/><polygon class="cls-14" points="867.62 548.62 863.48 558.69 852.99 559.69 860.93 566.89 858.6 577.57 867.65 571.95 876.71 577.54 874.35 566.87 882.28 559.65 871.78 558.68 867.62 548.62"/><path class="cls-14" d="M811.09,517.32l12.87,8-3.34-15.17,11.26-10.26L817,498.47l-5.91-14.3-5.88,14.31-14.92,1.43,11.29,10.23-3.31,15.17ZM799.48,503l8.31-.8,3.27-8,3.29,8,8.31.77-6.27,5.71,1.86,8.45-7.17-4.43-7.16,4.44,1.84-8.45Z"/><path class="cls-14" d="M876.38,487.88l-8.32-20.11-8.27,20.13-21,2,15.88,14.39L850,525.66l18.09-11.24,18.11,11.19-4.7-21.34,15.85-14.44Zm-.8,14.39,2.62,11.89-10.09-6.24L858,514.18l2.59-11.89-8.85-8,11.69-1.12,4.61-11.21,4.63,11.2,11.7,1.09Z"/><polygon class="cls-14" points="810.64 463.06 817.08 467.04 815.41 459.46 821.04 454.33 813.58 453.63 810.62 446.49 807.68 453.64 800.23 454.35 805.87 459.47 804.22 467.06 810.64 463.06"/><polygon class="cls-14" points="874.04 299.1 881.97 291.88 871.47 290.9 867.31 280.84 863.17 290.91 852.68 291.92 860.62 299.11 858.29 309.79 867.34 304.17 876.39 309.77 874.04 299.1"/><path class="cls-14" d="M810.87,327.05,823.74,335l-3.34-15.17,11.26-10.25-14.92-1.39-5.91-14.3L805,308.21,790,309.63l11.29,10.23L798,335Zm-11.61-14.32,8.3-.79,3.28-8,3.29,8,8.31.77-6.27,5.71,1.86,8.45-7.17-4.43-7.16,4.45,1.84-8.45Z"/><path class="cls-14" d="M886.08,391.73l-4.71-21.35L897.22,356l-21-1.95-8.32-20.12L859.63,354l-21,2,15.88,14.4-4.65,21.35L868,380.53ZM860.47,368.4l-8.85-8,11.7-1.11,4.6-11.22,4.64,11.2,11.69,1.09-8.83,8L878,380.27,868,374l-10.07,6.26Z"/><polygon class="cls-14" points="810.53 367.92 816.97 371.9 815.3 364.32 820.93 359.19 813.47 358.5 810.51 351.35 807.57 358.5 800.11 359.22 805.76 364.33 804.1 371.92 810.53 367.92"/><path class="cls-14" d="M811.27,674.45l-5.88,14.31-14.92,1.42,11.29,10.23-3.31,15.18,12.86-8,12.87,8-3.34-15.17,11.26-10.26-14.92-1.38Zm11.61,18.81L816.61,699l1.86,8.44L811.3,703l-7.16,4.45L806,699l-6.29-5.7,8.31-.79,3.27-8,3.3,8Z"/><polygon class="cls-14" points="867.78 682.51 863.64 692.58 853.14 693.58 861.09 700.78 858.76 711.46 867.8 705.83 876.86 711.43 874.51 700.76 882.43 693.54 871.94 692.57 867.78 682.51"/><path class="cls-14" d="M820.73,605.25,832,595l-14.92-1.38-5.91-14.3-5.88,14.31L790.36,595l11.29,10.23-3.31,15.18,12.86-8,12.87,8Zm-9.54,2.6L804,612.29l1.84-8.45-6.28-5.69,8.31-.8,3.27-8,3.29,8,8.31.78-6.27,5.71,1.86,8.45Z"/><polygon class="cls-14" points="810.85 636.76 807.9 643.92 800.45 644.63 806.09 649.75 804.44 657.33 810.86 653.34 817.3 657.32 815.63 649.74 821.26 644.61 813.8 643.91 810.85 636.76"/><path class="cls-14" d="M868.22,601.65,860,621.79l-21,2,15.89,14.4-4.66,21.36,18.09-11.24,18.12,11.19-4.7-21.34,15.85-14.44-21-2Zm16.34,26.47-8.82,8L878.36,648l-10.09-6.23-10.08,6.26,2.59-11.89-8.84-8L863.63,627l4.61-11.21,4.63,11.2Z"/><polygon class="cls-14" points="810.75 558.2 817.19 562.18 815.52 554.6 821.15 549.47 813.69 548.77 810.73 541.63 807.79 548.78 800.34 549.49 805.98 554.61 804.33 562.2 810.75 558.2"/><polygon class="cls-14" points="863.29 157.21 852.79 158.21 860.73 165.41 858.4 176.09 867.45 170.47 876.51 176.07 874.16 165.39 882.08 158.18 871.58 157.2 867.42 147.14 863.29 157.21"/><path class="cls-14" d="M811,232l12.87,8-3.34-15.16,11.26-10.26-14.92-1.39-5.91-14.29L805,213.2l-14.92,1.42,11.29,10.23L798.09,240Zm-11.61-14.32,8.31-.79,3.27-8,3.29,8,8.31.77-6.27,5.72,1.86,8.44-7.17-4.43-7.16,4.45,1.84-8.45Z"/><path class="cls-14" d="M886.19,258l-4.7-21.34,15.85-14.44-21-2L868,200.18l-8.27,20.13-21,2,15.88,14.39L850,258.07l18.09-11.24ZM860.58,234.7l-8.84-8,11.69-1.12L868,214.35l4.63,11.2,11.7,1.09-8.83,8,2.62,11.89-10.09-6.24L858,246.59Z"/><polygon class="cls-14" points="810.61 272.92 817.05 276.89 815.38 269.31 821.01 264.18 813.55 263.49 810.59 256.34 807.65 263.5 800.2 264.21 805.84 269.32 804.18 276.91 810.61 272.92"/><polygon class="cls-14" points="863.29 18.86 852.79 19.86 860.73 27.06 858.4 37.74 867.45 32.12 876.51 37.72 874.16 27.04 882.08 19.82 871.58 18.85 867.42 8.79 863.29 18.86"/><path class="cls-14" d="M811,133.73l12.87,8-3.34-15.16,11.26-10.26-14.92-1.39-5.91-14.29L805,114.89l-14.92,1.42,11.29,10.23-3.31,15.18Zm-11.61-14.32,8.31-.79,3.27-8,3.29,8,8.31.77-6.27,5.72,1.86,8.44-7.17-4.43-7.16,4.45,1.84-8.45Z"/><path class="cls-14" d="M886.19,119.67l-4.7-21.34,15.85-14.44-21-2L868,61.82,859.75,82l-21,2,15.88,14.39L850,119.72l18.09-11.24ZM860.58,96.35l-8.84-8,11.69-1.12L868,76l4.63,11.2,11.7,1.09-8.83,8,2.62,11.88L868.07,102,858,108.24Z"/><polygon class="cls-14" points="810.61 174.61 817.05 178.59 815.38 171 821.01 165.87 813.55 165.18 810.59 158.03 807.65 165.19 800.2 165.9 805.84 171.01 804.18 178.6 810.61 174.61"/><path class="cls-14" d="M811,35.42l12.87,7.95-3.34-15.16L831.74,18l-14.92-1.39L810.91,2.27,805,16.58,790.11,18,801.4,28.23l-3.31,15.18ZM799.34,21.1l8.31-.79,3.27-8,3.29,8,8.31.77-6.27,5.72,1.86,8.44-7.17-4.43-7.16,4.45,1.84-8.45Z"/><polygon class="cls-14" points="810.61 76.3 817.05 80.28 815.38 72.69 821.01 67.56 813.55 66.87 810.59 59.72 807.65 66.88 800.2 67.59 805.84 72.7 804.18 80.29 810.61 76.3"/><polygon class="cls-14" points="979.47 438.06 988.52 443.66 986.17 432.98 994.1 425.77 983.6 424.79 979.44 414.73 975.3 424.8 964.81 425.8 972.75 433 970.42 443.68 979.47 438.06"/><path class="cls-14" d="M923,422.18l12.87,8L932.48,415l11.26-10.26-14.92-1.38L922.91,389,917,403.34l-14.91,1.43L913.4,415l-3.3,15.17Zm-11.61-14.31,8.31-.8,3.27-8,3.3,8,8.31.77-6.28,5.71,1.86,8.45L923,417.57,915.79,422l1.84-8.45Z"/><polygon class="cls-14" points="979.6 548.62 975.46 558.69 964.96 559.69 972.9 566.89 970.58 577.57 979.62 571.95 988.68 577.54 986.33 566.87 994.25 559.65 983.75 558.68 979.6 548.62"/><path class="cls-14" d="M923.06,517.32l12.87,8-3.34-15.17,11.26-10.26-14.91-1.38L923,484.17l-5.88,14.31-14.91,1.43,11.28,10.23-3.3,15.17ZM911.45,503l8.31-.8,3.27-8,3.3,8,8.31.77-6.28,5.71,1.87,8.45-7.17-4.43-7.16,4.44,1.84-8.45Z"/><path class="cls-14" d="M988.36,487.88,980,467.77l-8.28,20.13-21,2,15.89,14.39L962,525.66l18.09-11.24,18.12,11.19-4.7-21.34,15.84-14.44Zm-.8,14.39,2.61,11.89-10.09-6.24L970,514.18l2.59-11.89-8.85-8,11.7-1.12,4.6-11.21,4.64,11.2,11.69,1.09Z"/><polygon class="cls-14" points="922.62 463.06 929.05 467.04 927.38 459.46 933.01 454.33 925.55 453.63 922.6 446.49 919.66 453.64 912.2 454.35 917.84 459.47 916.19 467.06 922.62 463.06"/><polygon class="cls-14" points="986.02 299.1 993.94 291.88 983.44 290.9 979.28 280.84 975.15 290.91 964.65 291.92 972.59 299.11 970.26 309.79 979.31 304.17 988.37 309.77 986.02 299.1"/><path class="cls-14" d="M922.84,327.05,935.71,335l-3.34-15.17,11.26-10.25-14.92-1.39-5.91-14.3-5.88,14.32L902,309.63l11.28,10.23L910,335Zm-11.61-14.32,8.31-.79,3.27-8,3.3,8,8.31.77-6.28,5.71,1.86,8.45-7.17-4.43-7.15,4.45,1.84-8.45Z"/><path class="cls-14" d="M998.05,391.73l-4.7-21.35L1009.2,356l-21-1.95-8.32-20.12L971.61,354l-21,2,15.88,14.4-4.65,21.35,18.09-11.24ZM972.44,368.4l-8.84-8,11.69-1.11,4.61-11.22,4.63,11.2,11.7,1.09-8.83,8L990,380.27,979.93,374l-10.08,6.26Z"/><polygon class="cls-14" points="922.51 367.92 928.94 371.9 927.27 364.32 932.9 359.19 925.44 358.5 922.49 351.35 919.55 358.5 912.09 359.22 917.73 364.33 916.08 371.92 922.51 367.92"/><path class="cls-14" d="M923.24,674.45l-5.87,14.31-14.92,1.42,11.29,10.23-3.31,15.18,12.85-8,12.88,8-3.35-15.17,11.27-10.26-14.92-1.38Zm11.62,18.81L928.59,699l1.86,8.44L923.28,703l-7.16,4.45L918,699l-6.29-5.7,8.31-.79,3.28-8,3.29,8Z"/><polygon class="cls-14" points="979.75 682.51 975.61 692.58 965.12 693.58 973.06 700.78 970.73 711.46 979.78 705.83 988.84 711.43 986.49 700.76 994.41 693.54 983.91 692.57 979.75 682.51"/><path class="cls-14" d="M932.7,605.25,944,595l-14.92-1.38-5.92-14.3-5.88,14.31L902.34,595l11.28,10.23-3.3,15.18,12.85-8,12.88,8Zm-9.53,2.6L916,612.29l1.84-8.45-6.29-5.69,8.31-.8,3.28-8,3.29,8,8.31.78-6.27,5.71,1.86,8.45Z"/><polygon class="cls-14" points="922.82 636.76 919.88 643.92 912.42 644.63 918.06 649.75 916.41 657.33 922.84 653.34 929.27 657.32 927.6 649.74 933.24 644.61 925.77 643.91 922.82 636.76"/><path class="cls-14" d="M980.19,601.65l-8.27,20.14-21,2,15.88,14.4-4.65,21.36,18.09-11.24,18.11,11.19-4.7-21.34,15.85-14.44-21-2Zm16.35,26.47-8.83,8L990.33,648l-10.09-6.23-10.07,6.26,2.59-11.89-8.85-8L975.6,627l4.61-11.21,4.64,11.2Z"/><polygon class="cls-14" points="922.73 558.2 929.16 562.18 927.49 554.6 933.12 549.47 925.66 548.77 922.71 541.63 919.77 548.78 912.31 549.49 917.95 554.61 916.3 562.2 922.73 558.2"/><polygon class="cls-14" points="975.26 157.21 964.76 158.21 972.71 165.41 970.38 176.09 979.42 170.47 988.48 176.07 986.13 165.39 994.06 158.18 983.56 157.2 979.4 147.14 975.26 157.21"/><path class="cls-14" d="M922.92,232l12.87,8-3.34-15.16,11.26-10.26-14.92-1.39-5.91-14.29L917,213.2l-14.91,1.42,11.28,10.23L910.07,240Zm-11.61-14.32,8.31-.79,3.27-8,3.3,8,8.31.77-6.28,5.72,1.87,8.44-7.17-4.43-7.16,4.45,1.84-8.45Z"/><path class="cls-14" d="M998.17,258l-4.71-21.34,15.85-14.44-21-2L980,200.18l-8.28,20.13-21,2,15.88,14.39L962,258.07l18.09-11.24ZM972.56,234.7l-8.85-8,11.7-1.12,4.6-11.21,4.64,11.2,11.69,1.09-8.83,8,2.62,11.89L980,240.33,970,246.59Z"/><polygon class="cls-14" points="922.59 272.92 929.02 276.89 927.35 269.31 932.98 264.18 925.52 263.49 922.57 256.34 919.63 263.5 912.17 264.21 917.81 269.32 916.16 276.91 922.59 272.92"/><polygon class="cls-14" points="975.26 18.86 964.76 19.86 972.71 27.06 970.38 37.74 979.42 32.12 988.48 37.72 986.13 27.04 994.06 19.82 983.56 18.85 979.4 8.79 975.26 18.86"/><path class="cls-14" d="M922.92,133.73l12.87,8-3.34-15.16,11.26-10.26-14.92-1.39-5.91-14.29L917,114.89l-14.91,1.42,11.28,10.23-3.3,15.18Zm-11.61-14.32,8.31-.79,3.27-8,3.3,8,8.31.77-6.28,5.72,1.87,8.44-7.17-4.43-7.16,4.45,1.84-8.45Z"/><path class="cls-14" d="M998.17,119.67l-4.71-21.34,15.85-14.44-21-2L980,61.82,971.72,82l-21,2,15.88,14.39L962,119.72l18.09-11.24ZM972.56,96.35l-8.85-8,11.7-1.12L980,76l4.64,11.2,11.69,1.09-8.83,8,2.62,11.88L980,102,970,108.24Z"/><polygon class="cls-14" points="922.59 174.61 929.02 178.59 927.35 171 932.98 165.87 925.52 165.18 922.57 158.03 919.63 165.19 912.17 165.9 917.81 171.01 916.16 178.6 922.59 174.61"/><path class="cls-14" d="M922.92,35.42l12.87,7.95-3.34-15.16L943.71,18l-14.92-1.39L922.88,2.27,917,16.58,902.09,18l11.28,10.23-3.3,15.18ZM911.31,21.1l8.31-.79,3.27-8,3.3,8,8.31.77-6.28,5.72,1.87,8.44-7.17-4.43-7.16,4.45,1.84-8.45Z"/><polygon class="cls-14" points="922.59 76.3 929.02 80.28 927.35 72.69 932.98 67.56 925.52 66.87 922.57 59.72 919.63 66.88 912.17 67.59 917.81 72.7 916.16 80.29 922.59 76.3"/><polygon class="cls-14" points="1091.44 438.06 1100.5 443.66 1098.15 432.98 1106.07 425.77 1095.57 424.79 1091.41 414.73 1087.28 424.8 1076.78 425.8 1084.72 433 1082.4 443.68 1091.44 438.06"/><path class="cls-14" d="M1034.92,422.18l12.88,8L1044.46,415l11.26-10.26-14.92-1.38-5.91-14.3L1029,403.34l-14.92,1.43L1025.38,415l-3.31,15.17Zm-11.6-14.31,8.3-.8,3.28-8,3.29,8,8.31.77-6.27,5.71,1.86,8.45-7.17-4.43-7.16,4.45,1.84-8.45Z"/><polygon class="cls-14" points="1091.57 548.62 1087.43 558.69 1076.94 559.69 1084.88 566.89 1082.55 577.57 1091.6 571.95 1100.65 577.54 1098.3 566.87 1106.23 559.65 1095.73 558.68 1091.57 548.62"/><path class="cls-14" d="M1035,517.32l12.87,8-3.34-15.17,11.26-10.26-14.92-1.38-5.91-14.3-5.88,14.31-14.92,1.43,11.29,10.23-3.31,15.17ZM1023.43,503l8.3-.8,3.28-8,3.29,8,8.31.77-6.27,5.71,1.86,8.45-7.17-4.43-7.16,4.44,1.84-8.45Z"/><path class="cls-14" d="M1100.33,487.88,1092,467.77l-8.27,20.13-21,2,15.88,14.39L1074,525.66l18.09-11.24,18.11,11.19-4.7-21.34,15.85-14.44Zm-.8,14.39,2.62,11.89-10.09-6.24L1082,514.18l2.6-11.89-8.85-8,11.69-1.12,4.61-11.21,4.63,11.2,11.7,1.09Z"/><polygon class="cls-14" points="1034.59 463.06 1041.03 467.04 1039.36 459.46 1044.99 454.33 1037.53 453.63 1034.57 446.49 1031.63 453.64 1024.17 454.35 1029.82 459.47 1028.16 467.06 1034.59 463.06"/><polygon class="cls-14" points="1097.99 299.1 1105.92 291.88 1095.42 290.9 1091.26 280.84 1087.12 290.91 1076.63 291.92 1084.57 299.11 1082.24 309.79 1091.28 304.17 1100.34 309.77 1097.99 299.1"/><path class="cls-14" d="M1034.81,327.05l12.88,7.95-3.34-15.17,11.26-10.25-14.92-1.39-5.91-14.3-5.88,14.32L1014,309.63l11.29,10.23L1022,335Zm-11.61-14.32,8.31-.79,3.28-8,3.29,8,8.31.77-6.27,5.71,1.86,8.45-7.17-4.43-7.16,4.45,1.84-8.45Z"/><path class="cls-14" d="M1110,391.73l-4.71-21.35L1121.17,356l-21-1.95-8.32-20.12L1083.58,354l-21,2,15.88,14.4-4.65,21.35,18.09-11.24Zm-25.61-23.33-8.85-8,11.7-1.11,4.6-11.22,4.64,11.2,11.69,1.09-8.83,8,2.62,11.89L1091.9,374l-10.07,6.26Z"/><polygon class="cls-14" points="1034.48 367.92 1040.92 371.9 1039.25 364.32 1044.88 359.19 1037.42 358.5 1034.46 351.35 1031.52 358.5 1024.06 359.22 1029.71 364.33 1028.05 371.92 1034.48 367.92"/><path class="cls-14" d="M1035.22,674.45l-5.88,14.31-14.92,1.42,11.29,10.23-3.31,15.18,12.86-8,12.87,8-3.34-15.17,11.26-10.26-14.92-1.38Zm11.61,18.81-6.27,5.71,1.86,8.44-7.17-4.43-7.16,4.45,1.84-8.45-6.28-5.7,8.31-.79,3.27-8,3.29,8Z"/><polygon class="cls-14" points="1091.73 682.51 1087.59 692.58 1077.09 693.58 1085.03 700.78 1082.71 711.46 1091.75 705.83 1100.81 711.43 1098.46 700.76 1106.38 693.54 1095.89 692.57 1091.73 682.51"/><path class="cls-14" d="M1044.68,605.25,1055.94,595,1041,593.61l-5.91-14.3-5.88,14.31L1014.31,595l11.29,10.23-3.31,15.18,12.86-8,12.87,8Zm-9.54,2.6-7.16,4.44,1.84-8.45-6.28-5.69,8.31-.8,3.27-8,3.29,8,8.31.78-6.27,5.71,1.86,8.45Z"/><polygon class="cls-14" points="1034.79 636.76 1031.85 643.92 1024.4 644.63 1030.04 649.75 1028.39 657.33 1034.81 653.34 1041.25 657.32 1039.58 649.74 1045.21 644.61 1037.75 643.91 1034.79 636.76"/><path class="cls-14" d="M1092.17,601.65l-8.28,20.14-21,2,15.89,14.4-4.66,21.36,18.09-11.24,18.12,11.19-4.7-21.34,15.85-14.44-21-2Zm16.34,26.47-8.82,8,2.62,11.88-10.09-6.23-10.08,6.26,2.59-11.89-8.84-8,11.69-1.12,4.61-11.21,4.63,11.2Z"/><polygon class="cls-14" points="1034.7 558.2 1041.14 562.18 1039.47 554.6 1045.1 549.47 1037.64 548.77 1034.68 541.63 1031.74 548.78 1024.29 549.49 1029.93 554.61 1028.28 562.2 1034.7 558.2"/><polygon class="cls-14" points="1087.23 157.21 1076.74 158.21 1084.68 165.41 1082.35 176.09 1091.4 170.47 1100.46 176.07 1098.11 165.39 1106.03 158.18 1095.53 157.2 1091.37 147.14 1087.23 157.21"/><path class="cls-14" d="M1034.9,232l12.87,8-3.34-15.16,11.26-10.26-14.92-1.39-5.91-14.29L1029,213.2l-14.92,1.42,11.29,10.23L1022,240Zm-11.61-14.32,8.3-.79,3.28-8,3.29,8,8.31.77-6.27,5.72,1.86,8.44-7.17-4.43-7.16,4.45,1.84-8.45Z"/><path class="cls-14" d="M1110.14,258l-4.7-21.34,15.85-14.44-21-2L1092,200.18l-8.27,20.13-21,2,15.88,14.39-4.65,21.36L1092,246.83Zm-25.61-23.32-8.84-8,11.69-1.12,4.61-11.21,4.63,11.2,11.7,1.09-8.83,8,2.62,11.89L1092,240.33l-10.08,6.26Z"/><polygon class="cls-14" points="1034.56 272.92 1041 276.89 1039.33 269.31 1044.96 264.18 1037.5 263.49 1034.54 256.34 1031.6 263.5 1024.14 264.21 1029.79 269.32 1028.13 276.91 1034.56 272.92"/><polygon class="cls-14" points="1087.23 18.86 1076.74 19.86 1084.68 27.06 1082.35 37.74 1091.4 32.12 1100.46 37.72 1098.11 27.04 1106.03 19.82 1095.53 18.85 1091.37 8.79 1087.23 18.86"/><path class="cls-14" d="M1034.9,133.73l12.87,8-3.34-15.16,11.26-10.26-14.92-1.39-5.91-14.29L1029,114.89l-14.92,1.42,11.29,10.23L1022,141.72Zm-11.61-14.32,8.3-.79,3.28-8,3.29,8,8.31.77-6.27,5.72,1.86,8.44-7.17-4.43-7.16,4.45,1.84-8.45Z"/><path class="cls-14" d="M1110.14,119.67l-4.7-21.34,15.85-14.44-21-2L1092,61.82,1083.7,82l-21,2,15.88,14.39-4.65,21.36L1092,108.48Zm-25.61-23.32-8.84-8,11.69-1.12L1092,76l4.63,11.2,11.7,1.09-8.83,8,2.62,11.88L1092,102l-10.08,6.26Z"/><polygon class="cls-14" points="1034.56 174.61 1041 178.59 1039.33 171 1044.96 165.87 1037.5 165.18 1034.54 158.03 1031.6 165.19 1024.14 165.9 1029.79 171.01 1028.13 178.6 1034.56 174.61"/><path class="cls-14" d="M1034.9,35.42l12.87,7.95-3.34-15.16L1055.69,18l-14.92-1.39-5.91-14.29L1029,16.58,1014.06,18l11.29,10.23L1022,43.41ZM1023.29,21.1l8.3-.79,3.28-8,3.29,8,8.31.77-6.27,5.72,1.86,8.44-7.17-4.43-7.16,4.45,1.84-8.45Z"/><polygon class="cls-14" points="1034.56 76.3 1041 80.28 1039.33 72.69 1044.96 67.56 1037.5 66.87 1034.54 59.72 1031.6 66.88 1024.14 67.59 1029.79 72.7 1028.13 80.29 1034.56 76.3"/><polygon class="cls-14" points="1203.41 438.06 1212.47 443.66 1210.12 432.98 1218.05 425.77 1207.55 424.79 1203.39 414.73 1199.25 424.8 1188.76 425.8 1196.7 433 1194.37 443.68 1203.41 438.06"/><path class="cls-14" d="M1146.9,422.18l12.87,8L1156.43,415l11.26-10.26-14.92-1.38-5.91-14.3L1141,403.34l-14.91,1.43L1137.35,415l-3.3,15.17Zm-11.61-14.31,8.31-.8,3.27-8,3.3,8,8.31.77-6.28,5.71,1.86,8.45-7.17-4.43-7.15,4.45,1.84-8.45Z"/><polygon class="cls-14" points="1203.54 548.62 1199.41 558.69 1188.91 559.69 1196.85 566.89 1194.53 577.57 1203.57 571.95 1212.63 577.54 1210.28 566.87 1218.2 559.65 1207.7 558.68 1203.54 548.62"/><path class="cls-14" d="M1147,517.32l12.87,8-3.34-15.17,11.26-10.26-14.92-1.38-5.91-14.3-5.88,14.31-14.91,1.43,11.28,10.23-3.3,15.17ZM1135.4,503l8.31-.8,3.27-8,3.3,8,8.31.77-6.28,5.71,1.86,8.45-7.17-4.43-7.15,4.44,1.84-8.45Z"/><path class="cls-14" d="M1212.31,487.88,1204,467.77l-8.28,20.13-21,2,15.88,14.39L1186,525.66,1204,514.42l18.12,11.19-4.71-21.34,15.85-14.44Zm-.81,14.39,2.62,11.89L1204,507.92,1194,514.18l2.59-11.89-8.85-8,11.7-1.12,4.6-11.21,4.64,11.2,11.69,1.09Z"/><polygon class="cls-14" points="1146.57 463.06 1153 467.04 1151.33 459.46 1156.96 454.33 1149.5 453.63 1146.55 446.49 1143.61 453.64 1136.15 454.35 1141.79 459.47 1140.14 467.06 1146.57 463.06"/><polygon class="cls-14" points="1209.97 299.1 1217.89 291.88 1207.39 290.9 1203.23 280.84 1199.1 290.91 1188.6 291.92 1196.54 299.11 1194.21 309.79 1203.26 304.17 1212.32 309.77 1209.97 299.1"/><path class="cls-14" d="M1146.79,327.05l12.87,7.95-3.34-15.17,11.26-10.25-14.92-1.39-5.91-14.3-5.88,14.32L1126,309.63l11.29,10.23L1133.93,335Zm-11.61-14.32,8.31-.79,3.27-8,3.29,8,8.31.77-6.27,5.71,1.86,8.45-7.17-4.43-7.16,4.45,1.85-8.45Z"/><path class="cls-14" d="M1222,391.73l-4.7-21.35L1233.15,356l-21-1.95-8.32-20.12L1195.56,354l-21,2,15.88,14.4-4.65,21.35,18.09-11.24Zm-25.61-23.33-8.84-8,11.69-1.11,4.61-11.22,4.63,11.2,11.7,1.09-8.83,8,2.62,11.89L1203.88,374l-10.08,6.26Z"/><polygon class="cls-14" points="1146.45 367.92 1152.89 371.9 1151.22 364.32 1156.85 359.19 1149.39 358.5 1146.43 351.35 1143.5 358.5 1136.04 359.22 1141.68 364.33 1140.03 371.92 1146.45 367.92"/><path class="cls-14" d="M1147.19,674.45l-5.88,14.31-14.91,1.42,11.28,10.23-3.3,15.18,12.85-8,12.88,8-3.35-15.17L1168,690.13l-14.92-1.38Zm11.62,18.81-6.27,5.71,1.86,8.44-7.17-4.43-7.16,4.45,1.84-8.45-6.29-5.7,8.31-.79,3.28-8,3.29,8Z"/><polygon class="cls-14" points="1203.7 682.51 1199.56 692.58 1189.07 693.58 1197.01 700.78 1194.68 711.46 1203.73 705.83 1212.79 711.43 1210.43 700.76 1218.36 693.54 1207.86 692.57 1203.7 682.51"/><path class="cls-14" d="M1156.65,605.25,1167.91,595,1153,593.61l-5.92-14.3-5.88,14.31L1126.29,595l11.28,10.23-3.3,15.18,12.85-8,12.87,8Zm-9.53,2.6-7.16,4.44,1.84-8.45-6.29-5.69,8.31-.8,3.27-8,3.3,8,8.31.78-6.28,5.71,1.87,8.45Z"/><polygon class="cls-14" points="1146.77 636.76 1143.83 643.92 1136.37 644.63 1142.01 649.75 1140.36 657.33 1146.79 653.34 1153.22 657.32 1151.55 649.74 1157.18 644.61 1149.72 643.91 1146.77 636.76"/><path class="cls-14" d="M1204.14,601.65l-8.27,20.14-21,2,15.88,14.4-4.65,21.36,18.09-11.24,18.11,11.19-4.7-21.34,15.85-14.44-21-2Zm16.35,26.47-8.83,8,2.62,11.88-10.09-6.23-10.07,6.26,2.59-11.89-8.85-8,11.69-1.12,4.61-11.21,4.63,11.2Z"/><polygon class="cls-14" points="1146.68 558.2 1153.11 562.18 1151.44 554.6 1157.07 549.47 1149.61 548.77 1146.66 541.63 1143.72 548.78 1136.26 549.49 1141.9 554.61 1140.25 562.2 1146.68 558.2"/><polygon class="cls-14" points="1199.21 157.21 1188.71 158.21 1196.65 165.41 1194.33 176.09 1203.37 170.47 1212.43 176.07 1210.08 165.39 1218.01 158.18 1207.51 157.2 1203.35 147.14 1199.21 157.21"/><path class="cls-14" d="M1146.87,232l12.87,8-3.34-15.16,11.26-10.26-14.92-1.39-5.91-14.29L1141,213.2,1126,214.62l11.28,10.23L1134,240Zm-11.61-14.32,8.31-.79,3.27-8,3.3,8,8.31.77-6.28,5.72,1.86,8.44-7.17-4.43-7.15,4.45,1.84-8.45Z"/><path class="cls-14" d="M1222.12,258l-4.71-21.34,15.85-14.44-21-2L1204,200.18l-8.28,20.13-21,2,15.88,14.39-4.65,21.36L1204,246.83Zm-25.61-23.32-8.85-8,11.69-1.12,4.61-11.21,4.64,11.2,11.69,1.09-8.83,8,2.62,11.89L1204,240.33l-10.07,6.26Z"/><polygon class="cls-14" points="1146.54 272.92 1152.97 276.89 1151.3 269.31 1156.93 264.18 1149.47 263.49 1146.52 256.34 1143.58 263.5 1136.12 264.21 1141.76 269.32 1140.11 276.91 1146.54 272.92"/><polygon class="cls-14" points="1199.21 18.86 1188.71 19.86 1196.65 27.06 1194.33 37.74 1203.37 32.12 1212.43 37.72 1210.08 27.04 1218.01 19.82 1207.51 18.85 1203.35 8.79 1199.21 18.86"/><path class="cls-14" d="M1146.87,133.73l12.87,8-3.34-15.16,11.26-10.26-14.92-1.39-5.91-14.29L1141,114.89,1126,116.31l11.28,10.23-3.3,15.18Zm-11.61-14.32,8.31-.79,3.27-8,3.3,8,8.31.77-6.28,5.72,1.86,8.44-7.17-4.43-7.15,4.45,1.84-8.45Z"/><path class="cls-14" d="M1222.12,119.67l-4.71-21.34,15.85-14.44-21-2L1204,61.82,1195.67,82l-21,2,15.88,14.39-4.65,21.36L1204,108.48Zm-25.61-23.32-8.85-8,11.69-1.12L1204,76l4.64,11.2,11.69,1.09-8.83,8,2.62,11.88L1204,102l-10.07,6.26Z"/><polygon class="cls-14" points="1146.54 174.61 1152.97 178.59 1151.3 171 1156.93 165.87 1149.47 165.18 1146.52 158.03 1143.58 165.19 1136.12 165.9 1141.76 171.01 1140.11 178.6 1146.54 174.61"/><path class="cls-14" d="M1146.87,35.42l12.87,7.95-3.34-15.16L1167.66,18l-14.92-1.39-5.91-14.29L1141,16.58,1126,18l11.28,10.23L1134,43.41ZM1135.26,21.1l8.31-.79,3.27-8,3.3,8,8.31.77-6.28,5.72,1.86,8.44-7.17-4.43-7.15,4.45,1.84-8.45Z"/><polygon class="cls-14" points="1146.54 76.3 1152.97 80.28 1151.3 72.69 1156.93 67.56 1149.47 66.87 1146.52 59.72 1143.58 66.88 1136.12 67.59 1141.76 72.7 1140.11 80.29 1146.54 76.3"/><path class="cls-14" d="M1258.87,422.18l12.88,8L1268.4,415l11.27-10.26-14.92-1.38-5.91-14.3L1253,403.34,1238,404.77,1249.33,415,1246,430.17Zm-11.61-14.31,8.31-.8,3.28-8,3.29,8,8.31.77-6.27,5.71L1266,422l-7.17-4.43-7.16,4.45,1.84-8.45Z"/><path class="cls-14" d="M1259,517.32l12.88,8-3.34-15.17,11.26-10.26-14.92-1.38-5.91-14.3-5.88,14.31-14.92,1.43,11.29,10.23-3.31,15.17ZM1247.38,503l8.3-.8,3.28-8,3.29,8,8.31.77-6.27,5.71,1.86,8.45-7.17-4.43-7.16,4.44,1.84-8.45Z"/><polygon class="cls-14" points="1258.54 463.06 1264.98 467.04 1263.31 459.46 1268.94 454.33 1261.48 453.63 1258.52 446.49 1255.58 453.64 1248.12 454.35 1253.77 459.47 1252.11 467.06 1258.54 463.06"/><path class="cls-14" d="M1258.76,327.05l12.88,7.95-3.35-15.17,11.27-10.25-14.92-1.39-5.92-14.3-5.87,14.32-14.92,1.42,11.28,10.23-3.3,15.17Zm-11.61-14.32,8.31-.79,3.28-8,3.29,8,8.31.77-6.27,5.71,1.86,8.45-7.17-4.43-7.16,4.45,1.84-8.45Z"/><polygon class="cls-14" points="1258.43 367.92 1264.87 371.9 1263.19 364.32 1268.83 359.19 1261.37 358.5 1258.41 351.35 1255.47 358.5 1248.01 359.22 1253.65 364.33 1252 371.92 1258.43 367.92"/><path class="cls-14" d="M1259.17,674.45l-5.88,14.31-14.92,1.42,11.29,10.23-3.31,15.18,12.86-8,12.87,8-3.34-15.17L1280,690.13l-14.92-1.38Zm11.61,18.81-6.27,5.71,1.86,8.44L1259.2,703l-7.16,4.45,1.84-8.45-6.28-5.7,8.31-.79,3.27-8,3.29,8Z"/><path class="cls-14" d="M1268.63,605.25,1279.89,595,1265,593.61l-5.91-14.3-5.88,14.31L1238.26,595l11.29,10.23-3.31,15.18,12.86-8,12.87,8Zm-9.54,2.6-7.16,4.44,1.84-8.45-6.28-5.69,8.3-.8,3.28-8,3.29,8,8.31.78-6.27,5.71,1.86,8.45Z"/><polygon class="cls-14" points="1258.74 636.76 1255.8 643.92 1248.35 644.63 1253.99 649.75 1252.34 657.33 1258.76 653.34 1265.2 657.32 1263.53 649.74 1269.16 644.61 1261.7 643.91 1258.74 636.76"/><polygon class="cls-14" points="1258.65 558.2 1265.09 562.18 1263.42 554.6 1269.05 549.47 1261.59 548.77 1258.63 541.63 1255.69 548.78 1248.23 549.49 1253.88 554.61 1252.22 562.2 1258.65 558.2"/><path class="cls-14" d="M1258.84,232l12.88,8-3.34-15.16,11.26-10.26-14.92-1.39-5.91-14.29-5.88,14.31L1238,214.62l11.29,10.23L1246,240Zm-11.6-14.32,8.3-.79,3.28-8,3.29,8,8.31.77-6.27,5.72,1.86,8.44-7.17-4.43-7.16,4.45,1.84-8.45Z"/><polygon class="cls-14" points="1258.51 272.92 1264.95 276.89 1263.28 269.31 1268.91 264.18 1261.45 263.49 1258.49 256.34 1255.55 263.5 1248.09 264.21 1253.74 269.32 1252.08 276.91 1258.51 272.92"/><path class="cls-14" d="M1258.84,133.73l12.88,8-3.34-15.16,11.26-10.26-14.92-1.39-5.91-14.29-5.88,14.31L1238,116.31l11.29,10.23L1246,141.72Zm-11.6-14.32,8.3-.79,3.28-8,3.29,8,8.31.77-6.27,5.72,1.86,8.44-7.17-4.43-7.16,4.45,1.84-8.45Z"/><polygon class="cls-14" points="1258.51 174.61 1264.95 178.59 1263.28 171 1268.91 165.87 1261.45 165.18 1258.49 158.03 1255.55 165.19 1248.09 165.9 1253.74 171.01 1252.08 178.6 1258.51 174.61"/><path class="cls-14" d="M1258.84,35.42l12.88,7.95-3.34-15.16L1279.64,18l-14.92-1.39-5.91-14.29-5.88,14.31L1238,18l11.29,10.23L1246,43.41Zm-11.6-14.32,8.3-.79,3.28-8,3.29,8,8.31.77-6.27,5.72,1.86,8.44-7.17-4.43-7.16,4.45,1.84-8.45Z"/><polygon class="cls-14" points="1258.51 76.3 1264.95 80.28 1263.28 72.69 1268.91 67.56 1261.45 66.87 1258.49 59.72 1255.55 66.88 1248.09 67.59 1253.74 72.7 1252.08 80.29 1258.51 76.3"/></g></g><path class="cls-15" d="M640,574.35c-75.9,0-137.64-62.56-137.64-139.46,0-4.07.18-8.25.55-12.42-.5-21.38,3.47-67.73,34.92-141,47.32-110.17,98.34-133.21,104-135.48a27.81,27.81,0,0,1,9.44-1.44c7.35,0,32.09,2.29,41.83,31.68a35.2,35.2,0,0,1-5.4,33.31c-1.86,2.45-4.82,5.27-8.91,9.18C666,231,640.8,255,621.54,296.68A137,137,0,0,1,640,295.43c75.9,0,137.64,62.56,137.64,139.46S715.9,574.35,640,574.35Zm-.45-194.57c-31.41,0-57,25.13-57,56s25.55,56,57,56,57-25.13,57-56S671,379.78,639.55,379.78Z"/><path class="cls-16" d="M640,574.35c-75.9,0-137.64-62.56-137.64-139.46,0-4.07.18-8.25.55-12.42-.5-21.38,3.47-67.73,34.92-141,47.32-110.17,98.34-133.21,104-135.48a27.81,27.81,0,0,1,9.44-1.44c7.35,0,32.09,2.29,41.83,31.68a35.2,35.2,0,0,1-5.4,33.31c-1.86,2.45-4.82,5.27-8.91,9.18C666,231,640.8,255,621.54,296.68A137,137,0,0,1,640,295.43c75.9,0,137.64,62.56,137.64,139.46S715.9,574.35,640,574.35Zm-.45-194.57c-31.41,0-57,25.13-57,56s25.55,56,57,56,57-25.13,57-56S671,379.78,639.55,379.78Z"/><path class="cls-17" d="M640,304a127.51,127.51,0,0,0-32.6,4.22c25.47-65.68,66.25-94.25,73.52-103.78A26.81,26.81,0,0,0,685,179c-9.35-28.18-35.46-26.83-40-25s-53.64,24.55-99.33,130.93C515,356.24,510.86,401,511.45,422.74c-.36,4-.56,8.05-.56,12.15,0,72.31,57.8,130.93,129.11,130.93S769.11,507.2,769.11,434.89,711.31,304,640,304Zm-.45,196.4c-36.17,0-65.49-28.91-65.49-64.56s29.32-64.55,65.49-64.55S705,400.15,705,435.8,675.71,500.36,639.55,500.36Z"/><text class="cls-18" transform="translate(842.08 667.05)">6 colou<tspan class="cls-19" x="140.85" y="0">r</tspan><tspan x="158.21" y="0">ful balloons</tspan></text><circle class="cls-20" cx="628.74" cy="343.11" r="45.59"/><circle class="cls-21" cx="627.67" cy="339.91" r="45.59"/><circle class="cls-22" cx="627.67" cy="339.91" r="39.01"/><path class="cls-23" d="M627.32,372.44c0-1-1-2.21.65-2.21s.66,1.19.66,2.21-.3,1.85-.66,1.85S627.32,373.46,627.32,372.44Z"/><path class="cls-24" d="M630.49,373.44a2.81,2.81,0,0,0-.84-1,2.34,2.34,0,0,0-.57-.47,2.85,2.85,0,0,0-.72,0c-.25,0-.5,0-.76,0s-.35,0-.49,0l-.1.08a3.22,3.22,0,0,0-.84.62c-.32.29-1.19,1.13-.94,1.62.17.33.8.29,1.09.21s.68-.34,1-.2.33.53.67.62.37-.14.49-.37.31-.49.65-.39.61.49,1,.39S630.63,373.79,630.49,373.44Z"/><path class="cls-25" d="M628.25,372.14c-.26-.05-.55,0-.72-.05s-.7.09-.58-.44c.07-.26.35-.22.5-.23a3.05,3.05,0,0,0,.5-.08.94.94,0,0,1,.57.1c.08.05.42,0,.46.06C629.33,372,628.47,372.19,628.25,372.14Z"/><path class="cls-23" d="M630.42,373.77c-.06-.4-.65-.6-1-.55a7.8,7.8,0,0,1-1.35.24c-.51,0-1.05-.18-1.57-.16s-1.5.39-1.11.94a.56.56,0,0,0,0-.08c.37.53,1,.16,1.46,0,.2-.06.54-.13.7,0s.41.7.66.42.72-.83,1.32-.48c.41.24,1,.29.94-.4C630.38,373.47,630.44,373.93,630.42,373.77Z"/><path class="cls-24" d="M652,335.79c0,15.5-9.81,35.21-24.62,35.21-12.26,0-24.62-19.71-24.62-35.21s11-28,24.62-28S652,320.3,652,335.79Z"/><g class="cls-26"><path class="cls-27" d="M642.83,319.09c2.35,7.67-3.6,16.3-13.3,19.27s-19.46-.84-21.81-8.52,3.61-16.3,13.3-19.27S640.48,311.42,642.83,319.09Z"/></g><path class="cls-28" d="M608.81,332.26a11.5,11.5,0,0,1-1-2.41,12,12,0,0,1-.24-6,25.62,25.62,0,0,1,6.28-6.45c.61,1.33,1.26,2.67,2,4A21,21,0,0,0,608.81,332.26Zm11.68-19.5a49.11,49.11,0,0,0-4.25,2.71c.39,1.45.84,2.91,1.34,4.37a47,47,0,0,1,4-2.94C621.16,315.52,620.8,314.13,620.49,312.76ZM618,321.07c.43,1.19.9,2.38,1.41,3.58a44.37,44.37,0,0,1,3.67-3.17c-.43-1.14-.82-2.27-1.17-3.41A45,45,0,0,0,618,321.07Zm-1.66,1.45a20.1,20.1,0,0,0-6.58,11.17,13.11,13.11,0,0,0,3.15,2.87,18.48,18.48,0,0,1,5.29-10.76C617.57,324.7,617,323.61,616.36,322.52Z"/><g id="Gray_Medel" data-name="Gray Medel"><path class="cls-29" d="M1240,84.19a41,41,0,1,0-65.18,33.13v32.52l23.8-15.14,23.8,15.14v-32A41,41,0,0,0,1240,84.19Z"/><path class="cls-29" d="M1140.68,84.19a41,41,0,1,0-65.17,33.13v32.52l23.8-15.14,23.8,15.14v-32A41,41,0,0,0,1140.68,84.19Z"/><path class="cls-29" d="M1041.36,84.19a41,41,0,1,0-65.17,33.13v32.52L1000,134.7l23.8,15.14v-32A41,41,0,0,0,1041.36,84.19Z"/></g><g id="Yellow_Medel" data-name="Yellow Medel"><g id="Yellow_Medel-2" data-name="Yellow Medel"><polygon class="cls-30" points="1070.9 78.61 1118.5 78.61 1118.5 146.66 1094.7 131.52 1070.9 146.66 1070.9 78.61"/><path class="cls-31" d="M1095,122a41,41,0,1,0-41-41,41.1,41.1,0,0,0,41,41Z"/><path class="cls-32" d="M1106.64,63.89c-13.1-33.5-23.23,0-23.23,0s-34.31.14-8.78,23.1c0,0-9.44,35,20.94,14.72,30.12,21.62,19.18-15.26,19.18-15.26S1141.49,64.7,1106.64,63.89Z"/><path class="cls-33" d="M1095,118a37,37,0,1,0-37-37,37.07,37.07,0,0,0,37,37Z"/><path class="cls-34" d="M1084.39,65.16s9.42-31.17,21.61,0c32.43.75,7.55,21,7.55,21s10.17,34.31-17.85,14.21c-28.27,18.85-19.48-13.7-19.48-13.7C1052.47,65.28,1084.39,65.16,1084.39,65.16Z"/><path class="cls-35" d="M1085,65.91s8.91-29.48,20.44,0c30.67.71,7.13,19.85,7.13,19.85s9.63,32.45-16.88,13.43c-26.73,17.83-18.42-13-18.42-13C1054.77,66,1085,65.91,1085,65.91Z"/><path class="cls-36" d="M1085.21,67s8.7-27.35,20,0c29.94.66,7,18.42,7,18.42s9.4,30.11-16.48,12.46c-26.1,16.55-18-12-18-12C1055.73,67.14,1085.21,67,1085.21,67Z"/><g class="cls-37"><path class="cls-35" d="M1098,55.92c-6.18-4.29-10.79,5.85-12.27,9.7C1090.05,62.09,1094.38,58.65,1098,55.92Z"/><path class="cls-35" d="M1113.42,67.87a44.21,44.21,0,0,0-8.25-.84c-.39-.93-.77-1.79-1.14-2.6-4.91,2.62-10,5.69-12.58,8.37l-14.16,14.62c-.57,2.62-1.47,8-.09,11.77,5.37-2.64,14-7.09,17.85-10.31C1100.9,84,1109.58,73.93,1113.42,67.87Z"/><path class="cls-35" d="M1118.87,70.18c-1,1.13-1.8,2.12-2.31,2.81-2.18,2.91-7.16,13.65-10.72,19.44a38.4,38.4,0,0,1-6.71,7.7c21.52,12.61,13-14.68,13-14.68S1125.08,75.44,1118.87,70.18Z"/><path class="cls-35" d="M1083.93,67.08c-4.41.23-18.45,1.72-13.23,11.07C1074.37,75,1079.1,71,1083.93,67.08Z"/></g><path class="cls-14" d="M1073.16,68.24A27.08,27.08,0,0,1,1085,65.91c2.69-9,6.63-11.73,6.63-11.73s-3.78,3.09-6.46,12.36A43.39,43.39,0,0,0,1073.16,68.24Z"/><path class="cls-27" d="M1095.57,97.91s-11.56,8-16.53,4c5.63,2.19,16.53-5.11,16.53-5.11Z"/><path class="cls-14" d="M1102.06,60.31c.71,1.83.24,3.72-1,4.21s-2.9-.58-3.61-2.41-.24-3.71,1-4.21S1101.35,58.48,1102.06,60.31Z"/><path class="cls-14" d="M1104.57,66.65a1.39,1.39,0,1,1-1.39-1.39A1.39,1.39,0,0,1,1104.57,66.65Z"/></g></g><g id="Yellow_Medel-3" data-name="Yellow Medel"><g id="Yellow_Medel-4" data-name="Yellow Medel"><polygon class="cls-30" points="971.36 78.61 1018.96 78.61 1018.96 146.66 995.16 131.52 971.36 146.66 971.36 78.61"/><path class="cls-31" d="M995.5,122a41,41,0,1,0-41-41,41.1,41.1,0,0,0,41,41Z"/><path class="cls-32" d="M1007.1,63.89c-13.1-33.5-23.23,0-23.23,0S949.56,64,975.09,87c0,0-9.45,35,20.94,14.72,30.12,21.62,19.18-15.26,19.18-15.26S1042,64.7,1007.1,63.89Z"/><path class="cls-33" d="M995.5,118a37,37,0,1,0-37-37,37.07,37.07,0,0,0,37,37Z"/><path class="cls-38" d="M984.85,65.16s9.42-31.17,21.61,0c32.43.75,7.54,21,7.54,21s10.18,34.31-17.84,14.21c-28.27,18.85-19.48-13.7-19.48-13.7C952.93,65.28,984.85,65.16,984.85,65.16Z"/><path class="cls-35" d="M985.43,65.91s8.91-29.48,20.44,0c30.67.71,7.13,19.85,7.13,19.85s9.63,32.45-16.88,13.43c-26.73,17.83-18.42-13-18.42-13C955.23,66,985.43,65.91,985.43,65.91Z"/><path class="cls-39" d="M985.67,67s8.7-27.35,20,0c29.94.66,7,18.42,7,18.42s9.4,30.11-16.48,12.46c-26.1,16.55-18-12-18-12C956.19,67.14,985.67,67,985.67,67Z"/><g class="cls-37"><path class="cls-35" d="M998.44,55.92c-6.18-4.29-10.79,5.85-12.27,9.7C990.51,62.09,994.83,58.65,998.44,55.92Z"/><path class="cls-35" d="M1013.88,67.87a44.23,44.23,0,0,0-8.26-.84c-.38-.93-.76-1.79-1.13-2.6-4.91,2.62-10,5.69-12.58,8.37L977.75,87.42c-.57,2.62-1.47,8-.09,11.77,5.37-2.64,14-7.09,17.85-10.31A113.52,113.52,0,0,0,1013.88,67.87Z"/><path class="cls-35" d="M1019.33,70.18c-1,1.13-1.8,2.12-2.31,2.81-2.19,2.91-7.17,13.65-10.72,19.44a38.4,38.4,0,0,1-6.71,7.7c21.52,12.61,13-14.68,13-14.68S1025.53,75.44,1019.33,70.18Z"/><path class="cls-35" d="M984.39,67.08c-4.41.23-18.45,1.72-13.23,11.07C974.83,75,979.56,71,984.39,67.08Z"/></g><path class="cls-14" d="M973.62,68.24a27,27,0,0,1,11.81-2.33c2.69-9,6.63-11.73,6.63-11.73s-3.78,3.09-6.46,12.36A43.39,43.39,0,0,0,973.62,68.24Z"/><path class="cls-27" d="M996,97.91s-11.57,8-16.53,4c5.63,2.19,16.53-5.11,16.53-5.11Z"/><path class="cls-14" d="M1002.52,60.31c.71,1.83.24,3.72-1,4.21s-2.9-.58-3.61-2.41-.24-3.71,1-4.21S1001.81,58.48,1002.52,60.31Z"/><path class="cls-14" d="M1005,66.65a1.39,1.39,0,1,1-1.38-1.39A1.38,1.38,0,0,1,1005,66.65Z"/></g></g><path class="cls-20" d="M944.93,473.66a5.1,5.1,0,0,1-1.34-.19,5.19,5.19,0,0,1-1.19-.5,6.77,6.77,0,0,1-1,.07,5.24,5.24,0,0,1-4.81-2.73,4.93,4.93,0,0,1-.22-4.12c-19.81-6.2-36.15-35.81-36.15-59.28,0-27,19.54-49,43.56-49s43.57,22,43.57,49a78.23,78.23,0,0,1-10.68,38.39C970.3,456,962,463.11,952.9,466a6,6,0,0,1-.37,4.22,5.15,5.15,0,0,1-3.27,2.7,5.21,5.21,0,0,1-1.3.17h0a4.92,4.92,0,0,1-.67,0A4.66,4.66,0,0,1,944.93,473.66Z"/><path class="cls-14" d="M939.6,468.33a5.1,5.1,0,0,1-1.34-.19,5.19,5.19,0,0,1-1.19-.5,8.42,8.42,0,0,1-1,.07,5.23,5.23,0,0,1-4.81-2.73,4.86,4.86,0,0,1-.22-4.12c-19.81-6.2-36.16-35.81-36.16-59.28,0-27,19.55-49,43.57-49s43.57,22,43.57,49A78.23,78.23,0,0,1,971.33,440c-6.36,10.66-14.63,17.81-23.76,20.66a6.06,6.06,0,0,1-.37,4.23,5.1,5.1,0,0,1-4.58,2.87h0c-.23,0-.45,0-.66,0A4.66,4.66,0,0,1,939.6,468.33Z"/><path class="cls-40" d="M938.38,460.09c0-1.63-1.62-3.53,1-3.53s1.05,1.9,1.05,3.53-.47,3-1,3S938.38,461.72,938.38,460.09Z"/><path class="cls-41" d="M943.43,461.68a4.44,4.44,0,0,0-1.34-1.64,4,4,0,0,0-.9-.75,4.37,4.37,0,0,0-1.15-.07c-.41,0-.81,0-1.21,0a1.89,1.89,0,0,0-.79.07.61.61,0,0,0-.15.13,5.05,5.05,0,0,0-1.35,1c-.52.47-1.91,1.81-1.5,2.59.27.53,1.28.46,1.75.33s1.08-.54,1.56-.3.52.83,1.06,1,.6-.22.79-.59.49-.78,1-.62,1,.78,1.6.62S943.66,462.23,943.43,461.68Z"/><path class="cls-42" d="M939.86,459.61c-.41-.09-.88,0-1.15-.08s-1.13.14-.92-.7c.1-.42.56-.35.79-.37a7.22,7.22,0,0,0,.79-.13,1.53,1.53,0,0,1,.92.16c.13.08.67,0,.73.09C941.58,459.35,940.21,459.69,939.86,459.61Z"/><path class="cls-40" d="M943.33,462.21c-.1-.65-1.05-1-1.61-.88a12.22,12.22,0,0,1-2.16.38c-.81,0-1.67-.28-2.5-.26s-2.39.64-1.77,1.51a.57.57,0,0,0-.08-.13c.59.85,1.59.25,2.33,0,.32-.08.87-.2,1.12.07s.66,1.12,1.06.67c.59-.69,1.14-1.32,2.09-.76.67.39,1.67.47,1.52-.64C943.26,461.72,943.36,462.46,943.33,462.21Z"/><path class="cls-41" d="M977.74,401.58c0,24.73-15.66,56.2-39.3,56.2-19.57,0-39.3-31.47-39.3-56.2s17.59-44.78,39.3-44.78S977.74,376.85,977.74,401.58Z"/><g class="cls-43"><path class="cls-27" d="M963.14,374.91c3.75,12.25-5.76,26-21.24,30.77s-31.07-1.35-34.82-13.6,5.76-26,21.24-30.77S959.39,362.66,963.14,374.91Z"/></g><path class="cls-28" d="M908.82,395.93a18.83,18.83,0,0,1-1.67-3.84,19,19,0,0,1-.38-9.59,40.79,40.79,0,0,1,10-10.3q1.46,3.18,3.13,6.39C914.41,383.32,910.32,389.43,908.82,395.93Zm18.65-31.12a76.87,76.87,0,0,0-6.79,4.33c.63,2.31,1.34,4.64,2.15,7a73.82,73.82,0,0,1,6.36-4.69C928.54,369.21,928,367,927.47,364.81Zm-4,13.26c.7,1.91,1.45,3.81,2.26,5.72a66.92,66.92,0,0,1,5.85-5.06c-.67-1.82-1.3-3.63-1.87-5.44A73.15,73.15,0,0,0,923.52,378.07Zm-2.65,2.32c-5.43,4.91-9.34,11.19-10.5,17.83a21.44,21.44,0,0,0,5,4.59,29.59,29.59,0,0,1,8.44-17.19C922.8,383.88,921.81,382.13,920.87,380.39Z"/><path class="cls-20" d="M1039.84,473.66a5.09,5.09,0,0,1-1.33-.19,5.28,5.28,0,0,1-1.2-.5,6.77,6.77,0,0,1-1,.07,5.24,5.24,0,0,1-4.81-2.73,4.93,4.93,0,0,1-.22-4.12c-19.81-6.2-36.15-35.81-36.15-59.28,0-27,19.54-49,43.56-49s43.57,22,43.57,49a78.32,78.32,0,0,1-10.67,38.39c-6.36,10.66-14.64,17.81-23.76,20.67a6,6,0,0,1-.38,4.22,5.08,5.08,0,0,1-4.57,2.87h0a4.85,4.85,0,0,0-3,.6Z"/><path class="cls-14" d="M1034.51,468.33a5.1,5.1,0,0,1-1.34-.19,5.19,5.19,0,0,1-1.19-.5,8.42,8.42,0,0,1-1,.07,5.24,5.24,0,0,1-4.81-2.73,4.89,4.89,0,0,1-.22-4.12c-19.81-6.2-36.15-35.81-36.15-59.28,0-27,19.54-49,43.56-49s43.57,22,43.57,49A78.23,78.23,0,0,1,1066.24,440c-6.36,10.66-14.63,17.81-23.76,20.66a6,6,0,0,1-.37,4.23,5.15,5.15,0,0,1-3.27,2.7,5.21,5.21,0,0,1-1.3.17h0c-.23,0-.46,0-.67,0A4.66,4.66,0,0,1,1034.51,468.33Z"/><path class="cls-44" d="M1033.29,460.09c0-1.63-1.62-3.53,1-3.53s1,1.9,1,3.53-.46,3-1,3S1033.29,461.72,1033.29,460.09Z"/><path class="cls-44" d="M1038.34,461.68A4.51,4.51,0,0,0,1037,460a4,4,0,0,0-.91-.75,4.37,4.37,0,0,0-1.15-.07c-.4,0-.81,0-1.21,0a1.9,1.9,0,0,0-.79.07.87.87,0,0,0-.15.13,5.05,5.05,0,0,0-1.35,1c-.52.47-1.91,1.81-1.5,2.59.27.53,1.28.46,1.75.33s1.08-.54,1.56-.3.52.83,1.06,1,.6-.22.79-.59.49-.78,1-.62,1,.78,1.6.62S1038.57,462.23,1038.34,461.68Z"/><path class="cls-45" d="M1034.77,459.61c-.41-.09-.88,0-1.15-.08s-1.12.14-.92-.7c.1-.42.56-.35.79-.37a7.4,7.4,0,0,0,.8-.13,1.52,1.52,0,0,1,.91.16c.13.08.67,0,.73.09C1036.5,459.35,1035.12,459.69,1034.77,459.61Z"/><path class="cls-45" d="M1038.24,462.21c-.09-.65-1-1-1.61-.88a12.27,12.27,0,0,1-2.15.38c-.82,0-1.68-.28-2.51-.26s-2.39.64-1.76,1.51l-.09-.13c.59.85,1.59.25,2.34,0,.31-.08.86-.2,1.11.07s.66,1.12,1.06.67c.6-.69,1.15-1.32,2.1-.76.66.39,1.66.47,1.51-.64C1038.17,461.72,1038.27,462.46,1038.24,462.21Z"/><path class="cls-46" d="M1072.65,401.58c0,24.73-15.66,56.2-39.3,56.2-19.57,0-39.3-31.47-39.3-56.2s17.6-44.78,39.3-44.78S1072.65,376.85,1072.65,401.58Z"/><g class="cls-47"><path class="cls-27" d="M1058.05,374.91c3.75,12.25-5.76,26-21.24,30.77s-31.06-1.35-34.82-13.6,5.76-26,21.24-30.77S1054.3,362.66,1058.05,374.91Z"/></g><path class="cls-28" d="M1003.73,395.93a18.83,18.83,0,0,1-1.67-3.84,19,19,0,0,1-.38-9.59,40.79,40.79,0,0,1,10-10.3q1.45,3.18,3.13,6.39C1009.32,383.32,1005.23,389.43,1003.73,395.93Zm18.65-31.12a76.87,76.87,0,0,0-6.79,4.33c.63,2.31,1.34,4.64,2.15,7a72.44,72.44,0,0,1,6.37-4.69C1023.45,369.21,1022.88,367,1022.38,364.81Zm-4,13.26c.7,1.91,1.45,3.81,2.26,5.72a65.61,65.61,0,0,1,5.86-5.06q-1-2.73-1.87-5.44A71.75,71.75,0,0,0,1018.43,378.07Zm-2.65,2.32c-5.43,4.91-9.34,11.19-10.5,17.83a21.44,21.44,0,0,0,5,4.59,29.59,29.59,0,0,1,8.44-17.19C1017.71,383.88,1016.72,382.13,1015.78,380.39Z"/><path class="cls-20" d="M1134.75,473.66a5.09,5.09,0,0,1-1.33-.19,5,5,0,0,1-1.19-.5,7,7,0,0,1-1,.07,5.24,5.24,0,0,1-4.81-2.73,4.9,4.9,0,0,1-.21-4.12c-19.81-6.2-36.16-35.81-36.16-59.28,0-27,19.54-49,43.57-49s43.56,22,43.56,49a78.32,78.32,0,0,1-10.67,38.39c-6.36,10.66-14.64,17.81-23.76,20.67a6,6,0,0,1-.38,4.22,5.08,5.08,0,0,1-4.57,2.87h0a4.85,4.85,0,0,0-3,.6Z"/><path class="cls-14" d="M1129.42,468.33a5.22,5.22,0,0,1-1.34-.19,5.39,5.39,0,0,1-1.19-.5,8.42,8.42,0,0,1-1,.07,5.24,5.24,0,0,1-4.81-2.73,4.93,4.93,0,0,1-.22-4.12c-19.81-6.2-36.15-35.81-36.15-59.28,0-27,19.54-49,43.56-49s43.57,22,43.57,49A78.32,78.32,0,0,1,1161.16,440c-6.36,10.66-14.64,17.81-23.76,20.66a6,6,0,0,1-.38,4.23,5.08,5.08,0,0,1-4.57,2.87h0c-.23,0-.45,0-.67,0A4.66,4.66,0,0,1,1129.42,468.33Z"/><path class="cls-48" d="M1128.2,460.09c0-1.63-1.62-3.53,1-3.53s1,1.9,1,3.53-.46,3-1,3S1128.2,461.72,1128.2,460.09Z"/><path class="cls-48" d="M1133.25,461.68a4.51,4.51,0,0,0-1.33-1.64,4,4,0,0,0-.91-.75,4.37,4.37,0,0,0-1.15-.07c-.4,0-.81,0-1.21,0a1.84,1.84,0,0,0-.78.07.65.65,0,0,0-.16.13,5.05,5.05,0,0,0-1.35,1c-.51.47-1.9,1.81-1.5,2.59.27.53,1.28.46,1.75.33s1.08-.54,1.56-.3.52.83,1.06,1,.6-.22.79-.59.49-.78,1-.62,1,.78,1.6.62S1133.48,462.23,1133.25,461.68Z"/><path class="cls-49" d="M1129.69,459.61c-.42-.09-.88,0-1.16-.08s-1.12.14-.92-.7c.1-.42.56-.35.79-.37a7.4,7.4,0,0,0,.8-.13,1.52,1.52,0,0,1,.91.16c.13.08.67,0,.73.09C1131.41,459.35,1130,459.69,1129.69,459.61Z"/><path class="cls-49" d="M1133.15,462.21c-.09-.65-1.05-1-1.6-.88a12.38,12.38,0,0,1-2.16.38c-.82,0-1.68-.28-2.51-.26s-2.39.64-1.76,1.51l-.08-.13c.58.85,1.58.25,2.33,0,.31-.08.86-.2,1.12.07s.66,1.12,1,.67c.6-.69,1.15-1.32,2.1-.76.66.39,1.67.47,1.51-.64C1133.08,461.72,1133.18,462.46,1133.15,462.21Z"/><path class="cls-50" d="M1167.56,401.58c0,24.73-15.66,56.2-39.3,56.2-19.57,0-39.3-31.47-39.3-56.2s17.6-44.78,39.3-44.78S1167.56,376.85,1167.56,401.58Z"/><g class="cls-51"><path class="cls-27" d="M1153,374.91c3.75,12.25-5.75,26-21.23,30.77s-31.07-1.35-34.82-13.6,5.75-26,21.23-30.77S1149.21,362.66,1153,374.91Z"/></g><path class="cls-28" d="M1098.64,395.93a18.83,18.83,0,0,1-1.67-3.84,19.15,19.15,0,0,1-.38-9.59,40.66,40.66,0,0,1,10-10.3c1,2.12,2,4.25,3.12,6.39C1104.23,383.32,1100.14,389.43,1098.64,395.93Zm18.65-31.12a78.36,78.36,0,0,0-6.79,4.33c.63,2.31,1.35,4.64,2.15,7a74,74,0,0,1,6.37-4.69C1118.36,369.21,1117.79,367,1117.29,364.81Zm-3.94,13.26c.69,1.91,1.44,3.81,2.25,5.72a65.61,65.61,0,0,1,5.86-5.06q-1-2.73-1.87-5.44A70.13,70.13,0,0,0,1113.35,378.07Zm-2.66,2.32c-5.43,4.91-9.34,11.19-10.5,17.83a21.44,21.44,0,0,0,5,4.59,29.59,29.59,0,0,1,8.44-17.19C1112.63,383.88,1111.64,382.13,1110.69,380.39Z"/><path class="cls-20" d="M944.93,598.43a4.72,4.72,0,0,1-1.34-.19,4.79,4.79,0,0,1-1.19-.5,6.77,6.77,0,0,1-1,.07,5.24,5.24,0,0,1-4.81-2.73,4.93,4.93,0,0,1-.22-4.12c-19.81-6.19-36.15-35.81-36.15-59.28,0-27,19.54-49,43.56-49s43.57,22,43.57,49a78.17,78.17,0,0,1-10.68,38.39c-6.36,10.66-14.63,17.81-23.76,20.67a6,6,0,0,1-.37,4.22,5.15,5.15,0,0,1-3.27,2.7,4.79,4.79,0,0,1-1.3.17h0a4.92,4.92,0,0,1-.67,0A4.56,4.56,0,0,1,944.93,598.43Z"/><path class="cls-14" d="M939.6,593.1a5.1,5.1,0,0,1-1.34-.19,5.19,5.19,0,0,1-1.19-.5,6.77,6.77,0,0,1-1,.07,5.23,5.23,0,0,1-4.81-2.73,4.86,4.86,0,0,1-.22-4.12c-19.81-6.2-36.16-35.81-36.16-59.28,0-27,19.55-49,43.57-49s43.57,22,43.57,49a78.23,78.23,0,0,1-10.68,38.39c-6.36,10.66-14.63,17.81-23.76,20.67a6,6,0,0,1-.37,4.22,5.1,5.1,0,0,1-4.58,2.87h0a4.82,4.82,0,0,0-3,.6Z"/><path class="cls-52" d="M938.38,584.86c0-1.63-1.62-3.53,1-3.53s1.05,1.9,1.05,3.53-.47,2.95-1,2.95S938.38,586.49,938.38,584.86Z"/><path class="cls-52" d="M943.43,586.45a4.44,4.44,0,0,0-1.34-1.64,4,4,0,0,0-.9-.75A4.37,4.37,0,0,0,940,584c-.41,0-.81,0-1.21,0a2.07,2.07,0,0,0-.79.07.61.61,0,0,0-.15.13,5.05,5.05,0,0,0-1.35,1c-.52.47-1.91,1.81-1.5,2.6.27.52,1.28.45,1.75.32s1.08-.54,1.56-.3.52.83,1.06,1,.6-.22.79-.58.49-.79,1-.63,1,.78,1.6.62S943.66,587,943.43,586.45Z"/><path class="cls-53" d="M939.86,584.38c-.41-.09-.88,0-1.15-.08s-1.13.14-.92-.7c.1-.42.56-.35.79-.37a7.22,7.22,0,0,0,.79-.13,1.47,1.47,0,0,1,.92.17c.13.07.67,0,.73.08C941.58,584.12,940.21,584.46,939.86,584.38Z"/><path class="cls-53" d="M943.33,587c-.1-.65-1.05-1-1.61-.88a12.22,12.22,0,0,1-2.16.38c-.81,0-1.67-.28-2.5-.26s-2.39.64-1.77,1.51a.57.57,0,0,0-.08-.13c.59.85,1.59.25,2.33,0,.32-.09.87-.21,1.12.06s.66,1.13,1.06.67c.59-.69,1.14-1.32,2.09-.76.67.39,1.67.47,1.52-.64C943.26,586.49,943.36,587.23,943.33,587Z"/><path class="cls-54" d="M977.74,526.35c0,24.73-15.66,56.2-39.3,56.2-19.57,0-39.3-31.47-39.3-56.2s17.59-44.78,39.3-44.78S977.74,501.62,977.74,526.35Z"/><g class="cls-55"><path class="cls-27" d="M963.14,499.68c3.75,12.25-5.76,26-21.24,30.77s-31.07-1.35-34.82-13.6,5.76-26,21.24-30.77S959.39,487.43,963.14,499.68Z"/></g><path class="cls-28" d="M908.82,520.7a18.83,18.83,0,0,1-1.67-3.84,19,19,0,0,1-.38-9.59,40.79,40.79,0,0,1,10-10.3c1,2.12,2,4.26,3.13,6.39C914.41,508.1,910.32,514.2,908.82,520.7Zm18.65-31.12a76.87,76.87,0,0,0-6.79,4.33c.63,2.31,1.34,4.64,2.15,7a73.82,73.82,0,0,1,6.36-4.69C928.54,494,928,491.77,927.47,489.58Zm-4,13.26c.7,1.91,1.45,3.81,2.26,5.72a68.66,68.66,0,0,1,5.85-5.06c-.67-1.81-1.3-3.63-1.87-5.44A73.15,73.15,0,0,0,923.52,502.84Zm-2.65,2.32c-5.43,4.91-9.34,11.19-10.5,17.83a21.44,21.44,0,0,0,5,4.59,29.59,29.59,0,0,1,8.44-17.19C922.8,508.65,921.81,506.9,920.87,505.16Z"/><path class="cls-20" d="M1039.84,598.43a4.7,4.7,0,0,1-1.33-.19,4.86,4.86,0,0,1-1.2-.5,6.77,6.77,0,0,1-1,.07,5.24,5.24,0,0,1-4.81-2.73,4.93,4.93,0,0,1-.22-4.12c-19.81-6.19-36.15-35.81-36.15-59.28,0-27,19.54-49,43.56-49s43.57,22,43.57,49a78.26,78.26,0,0,1-10.67,38.39c-6.36,10.66-14.64,17.81-23.76,20.67a6,6,0,0,1-.38,4.22,5.15,5.15,0,0,1-3.27,2.7,4.74,4.74,0,0,1-1.3.17h0a4.68,4.68,0,0,1-.66,0A4.62,4.62,0,0,1,1039.84,598.43Z"/><path class="cls-14" d="M1034.51,593.1a5.1,5.1,0,0,1-1.34-.19,5.19,5.19,0,0,1-1.19-.5,6.77,6.77,0,0,1-1,.07,5.24,5.24,0,0,1-4.81-2.73,4.89,4.89,0,0,1-.22-4.12c-19.81-6.2-36.15-35.81-36.15-59.28,0-27,19.54-49,43.56-49s43.57,22,43.57,49a78.23,78.23,0,0,1-10.68,38.39c-6.36,10.66-14.63,17.81-23.76,20.67a6,6,0,0,1-.37,4.22,5.15,5.15,0,0,1-3.27,2.7,5.21,5.21,0,0,1-1.3.17h0a4.83,4.83,0,0,1-.67,0A4.66,4.66,0,0,1,1034.51,593.1Z"/><path class="cls-56" d="M1033.29,584.86c0-1.63-1.62-3.53,1-3.53s1,1.9,1,3.53-.46,2.95-1,2.95S1033.29,586.49,1033.29,584.86Z"/><path class="cls-56" d="M1038.34,586.45a4.51,4.51,0,0,0-1.33-1.64,4,4,0,0,0-.91-.75A4.37,4.37,0,0,0,1035,584c-.4,0-.81,0-1.21,0a2.09,2.09,0,0,0-.79.07.87.87,0,0,0-.15.13,5.05,5.05,0,0,0-1.35,1c-.52.47-1.91,1.81-1.5,2.6.27.52,1.28.45,1.75.32s1.08-.54,1.56-.3.52.83,1.06,1,.6-.22.79-.58.49-.79,1-.63,1,.78,1.6.62S1038.57,587,1038.34,586.45Z"/><path class="cls-57" d="M1034.77,584.38c-.41-.09-.88,0-1.15-.08s-1.12.14-.92-.7c.1-.42.56-.35.79-.37a7.4,7.4,0,0,0,.8-.13,1.45,1.45,0,0,1,.91.17c.13.07.67,0,.73.08C1036.5,584.12,1035.12,584.46,1034.77,584.38Z"/><path class="cls-57" d="M1038.24,587c-.09-.65-1-1-1.61-.88a12.27,12.27,0,0,1-2.15.38c-.82,0-1.68-.28-2.51-.26s-2.39.64-1.76,1.51l-.09-.13c.59.85,1.59.25,2.34,0,.31-.09.86-.21,1.11.06s.66,1.13,1.06.67c.6-.69,1.15-1.32,2.1-.76.66.39,1.66.47,1.51-.64C1038.17,586.49,1038.27,587.23,1038.24,587Z"/><path class="cls-58" d="M1072.65,526.35c0,24.73-15.66,56.2-39.3,56.2-19.57,0-39.3-31.47-39.3-56.2s17.6-44.78,39.3-44.78S1072.65,501.62,1072.65,526.35Z"/><g class="cls-59"><path class="cls-27" d="M1058.05,499.68c3.75,12.25-5.76,26-21.24,30.77s-31.06-1.35-34.82-13.6,5.76-26,21.24-30.77S1054.3,487.43,1058.05,499.68Z"/></g><path class="cls-28" d="M1003.73,520.7a18.83,18.83,0,0,1-1.67-3.84,19,19,0,0,1-.38-9.59,40.79,40.79,0,0,1,10-10.3c1,2.12,2,4.26,3.13,6.39C1009.32,508.1,1005.23,514.2,1003.73,520.7Zm18.65-31.12a76.87,76.87,0,0,0-6.79,4.33c.63,2.31,1.34,4.64,2.15,7a72.44,72.44,0,0,1,6.37-4.69C1023.45,494,1022.88,491.77,1022.38,489.58Zm-4,13.26c.7,1.91,1.45,3.81,2.26,5.72a67.28,67.28,0,0,1,5.86-5.06c-.68-1.81-1.3-3.63-1.87-5.44A71.75,71.75,0,0,0,1018.43,502.84Zm-2.65,2.32c-5.43,4.91-9.34,11.19-10.5,17.83a21.44,21.44,0,0,0,5,4.59,29.59,29.59,0,0,1,8.44-17.19C1017.71,508.65,1016.72,506.9,1015.78,505.16Z"/><path class="cls-20" d="M1134.75,598.43a4.7,4.7,0,0,1-1.33-.19,4.63,4.63,0,0,1-1.19-.5,7,7,0,0,1-1,.07,5.24,5.24,0,0,1-4.81-2.73,4.9,4.9,0,0,1-.21-4.12c-19.81-6.19-36.16-35.81-36.16-59.28,0-27,19.54-49,43.57-49s43.56,22,43.56,49a78.26,78.26,0,0,1-10.67,38.39c-6.36,10.66-14.64,17.81-23.76,20.67a6,6,0,0,1-.38,4.22,5.12,5.12,0,0,1-3.27,2.7,4.74,4.74,0,0,1-1.3.17h0a4.68,4.68,0,0,1-.66,0A4.62,4.62,0,0,1,1134.75,598.43Z"/><path class="cls-14" d="M1129.42,593.1a5.22,5.22,0,0,1-1.34-.19,5.39,5.39,0,0,1-1.19-.5,6.77,6.77,0,0,1-1,.07,5.24,5.24,0,0,1-4.81-2.73,4.93,4.93,0,0,1-.22-4.12c-19.81-6.2-36.15-35.81-36.15-59.28,0-27,19.54-49,43.56-49s43.57,22,43.57,49a78.32,78.32,0,0,1-10.67,38.39c-6.36,10.66-14.64,17.81-23.76,20.67a6,6,0,0,1-.38,4.22,5.08,5.08,0,0,1-4.57,2.87h0a4.92,4.92,0,0,1-.67,0A4.66,4.66,0,0,1,1129.42,593.1Z"/><path class="cls-60" d="M1128.2,584.86c0-1.63-1.62-3.53,1-3.53s1,1.9,1,3.53-.46,2.95-1,2.95S1128.2,586.49,1128.2,584.86Z"/><path class="cls-60" d="M1133.25,586.45a4.51,4.51,0,0,0-1.33-1.64,4,4,0,0,0-.91-.75,4.37,4.37,0,0,0-1.15-.07c-.4,0-.81,0-1.21,0a2,2,0,0,0-.78.07.65.65,0,0,0-.16.13,5.05,5.05,0,0,0-1.35,1c-.51.47-1.9,1.81-1.5,2.6.27.52,1.28.45,1.75.32s1.08-.54,1.56-.3.52.83,1.06,1,.6-.22.79-.58.49-.79,1-.63,1,.78,1.6.62S1133.48,587,1133.25,586.45Z"/><path class="cls-61" d="M1129.69,584.38c-.42-.09-.88,0-1.16-.08s-1.12.14-.92-.7c.1-.42.56-.35.79-.37a7.4,7.4,0,0,0,.8-.13,1.45,1.45,0,0,1,.91.17c.13.07.67,0,.73.08C1131.41,584.12,1130,584.46,1129.69,584.38Z"/><path class="cls-61" d="M1133.15,587c-.09-.65-1.05-1-1.6-.88a12.38,12.38,0,0,1-2.16.38c-.82,0-1.68-.28-2.51-.26s-2.39.64-1.76,1.51l-.08-.13c.58.85,1.58.25,2.33,0,.31-.09.86-.21,1.12.06s.66,1.13,1,.67c.6-.69,1.15-1.32,2.1-.76.66.39,1.67.47,1.51-.64C1133.08,586.49,1133.18,587.23,1133.15,587Z"/><path class="cls-62" d="M1167.56,526.35c0,24.73-15.66,56.2-39.3,56.2-19.57,0-39.3-31.47-39.3-56.2s17.6-44.78,39.3-44.78S1167.56,501.62,1167.56,526.35Z"/><g class="cls-63"><path class="cls-27" d="M1153,499.68c3.75,12.25-5.75,26-21.23,30.77s-31.07-1.35-34.82-13.6,5.75-26,21.23-30.77S1149.21,487.43,1153,499.68Z"/></g><path class="cls-28" d="M1098.64,520.7a18.83,18.83,0,0,1-1.67-3.84,19.15,19.15,0,0,1-.38-9.59,40.66,40.66,0,0,1,10-10.3c1,2.12,2,4.26,3.12,6.39C1104.23,508.1,1100.14,514.2,1098.64,520.7Zm18.65-31.12a78.36,78.36,0,0,0-6.79,4.33c.63,2.31,1.35,4.64,2.15,7a74,74,0,0,1,6.37-4.69C1118.36,494,1117.79,491.77,1117.29,489.58Zm-3.94,13.26c.69,1.91,1.44,3.81,2.25,5.72a67.28,67.28,0,0,1,5.86-5.06c-.68-1.81-1.3-3.63-1.87-5.44A70.13,70.13,0,0,0,1113.35,502.84Zm-2.66,2.32c-5.43,4.91-9.34,11.19-10.5,17.83a21.44,21.44,0,0,0,5,4.59,29.59,29.59,0,0,1,8.44-17.19C1112.63,508.65,1111.64,506.9,1110.69,505.16Z"/><text class="cls-64" transform="translate(207.22 383.5)">Six</text><text class="cls-65" transform="translate(204.22 380.5)">Six</text></g></svg>