<svg xmlns="http://www.w3.org/2000/svg" xmlns:xlink="http://www.w3.org/1999/xlink" viewBox="0 0 1280 720"><defs><style>.cls-1,.cls-100,.cls-101,.cls-119,.cls-55,.cls-64,.cls-67{fill:none;}.cls-2{isolation:isolate;}.cls-3{clip-path:url(#clip-path);}.cls-4{clip-path:url(#clip-path-2);}.cls-5{fill:url(#linear-gradient);}.cls-6{fill:#539b56;}.cls-7{fill:#104c16;}.cls-8{fill:#3f201c;}.cls-9{fill:url(#linear-gradient-2);}.cls-10{fill:url(#linear-gradient-3);}.cls-11{fill:url(#linear-gradient-4);}.cls-12{fill:#158240;}.cls-13{clip-path:url(#clip-path-3);}.cls-14{clip-path:url(#clip-path-4);}.cls-15{clip-path:url(#clip-path-5);}.cls-16{fill:url(#linear-gradient-5);}.cls-17{clip-path:url(#clip-path-6);}.cls-18{clip-path:url(#clip-path-7);}.cls-19{fill:url(#linear-gradient-6);}.cls-20{clip-path:url(#clip-path-8);}.cls-21{clip-path:url(#clip-path-9);}.cls-22{fill:url(#linear-gradient-7);}.cls-23{fill:url(#linear-gradient-8);}.cls-24{clip-path:url(#clip-path-11);}.cls-25{clip-path:url(#clip-path-12);}.cls-26{fill:url(#linear-gradient-9);}.cls-27{fill:url(#linear-gradient-10);}.cls-28{fill:url(#linear-gradient-11);}.cls-29{fill:url(#linear-gradient-12);}.cls-30{fill:#5ccae5;}.cls-31{fill:#e69847;}.cls-32{fill:#cc7e48;}.cls-33{fill:#41b2a9;}.cls-34{fill:#3daa9a;}.cls-35{fill:#68b4a8;opacity:0.89;}.cls-36{fill:#5a796c;}.cls-37{fill:#46685c;}.cls-38{fill:#468678;}.cls-39{fill:#4b863e;}.cls-40{fill:#1d9045;}.cls-41,.cls-45,.cls-47{fill:#517d1b;}.cls-42{fill:#147139;}.cls-43{fill:#147239;}.cls-44{fill:#329a4e;}.cls-45{opacity:0.6;}.cls-46{fill:#2f9f56;}.cls-47{opacity:0.72;}.cls-48{fill:#468476;}.cls-112,.cls-49,.cls-50,.cls-51,.cls-84{fill:#fff;}.cls-49{opacity:0.23;}.cls-50{opacity:0.66;}.cls-51{opacity:0.9;}.cls-52{fill:url(#linear-gradient-13);}.cls-53{fill:#d88a50;opacity:0.84;}.cls-54{fill:#cec0aa;}.cls-55,.cls-67{stroke:#775e49;}.cls-100,.cls-101,.cls-109,.cls-112,.cls-119,.cls-146,.cls-55,.cls-56,.cls-61,.cls-63,.cls-64,.cls-67,.cls-70,.cls-74,.cls-76,.cls-78,.cls-79,.cls-81,.cls-87,.cls-94,.cls-96,.cls-97{stroke-miterlimit:10;}.cls-55,.cls-56{stroke-width:0.4px;}.cls-56{fill:#594a39;stroke:#44331d;}.cls-57{fill:#ff7f00;}.cls-58{fill:#824107;}.cls-59{fill:#f6e6d4;}.cls-60{fill:#273a4b;}.cls-61{fill:#536a7c;}.cls-61,.cls-64{stroke:#ffe9cc;stroke-width:0.79px;}.cls-62{fill:#0d1a23;}.cls-63{fill:#b4d109;stroke:#5d6602;}.cls-63,.cls-70,.cls-74,.cls-78,.cls-79{stroke-width:0.75px;}.cls-65{fill:#112737;}.cls-66{fill:#e4d5c3;}.cls-67{stroke-width:0.59px;}.cls-68{fill:#e3113a;}.cls-69{fill:#af042d;}.cls-70{fill:#13a1ba;stroke:#18539b;}.cls-71{fill:#fdf5ed;}.cls-72{fill:#4a2a15;}.cls-73{fill:#342516;}.cls-109,.cls-115,.cls-74,.cls-76,.cls-78{fill:#fad2c6;}.cls-101,.cls-74,.cls-76{stroke:#5f4a43;}.cls-75{fill:#e7b4a7;}.cls-77{fill:#d6a398;}.cls-100,.cls-109,.cls-78,.cls-79,.cls-81,.cls-94,.cls-96,.cls-97{stroke:#323232;}.cls-79{fill:#fac7b3;}.cls-80{fill:#424036;}.cls-81{fill:#f6fbfd;}.cls-112,.cls-81{stroke-width:0.5px;}.cls-82{fill:#602220;}.cls-83{fill:#451f16;}.cls-85{fill:#561211;}.cls-86{fill:#d26653;}.cls-87{fill:#311415;stroke:#211e1f;}.cls-88{fill:#90856e;}.cls-89{fill:#605e44;}.cls-90,.cls-93{fill:#9e9580;opacity:0.5;}.cls-90,.cls-92{mix-blend-mode:multiply;}.cls-91,.cls-92{fill:#676254;}.cls-92{opacity:0.4;}.cls-93{mix-blend-mode:screen;}.cls-94{fill:#facc35;}.cls-95{fill:#be9030;}.cls-96{fill:#fcde7d;}.cls-97{fill:#e0604f;}.cls-98{fill:#f5927d;}.cls-99{fill:#c28974;}.cls-102{fill:#fab51b;}.cls-103{fill:#f17125;}.cls-104{fill:#80351b;}.cls-105{fill:#75451c;}.cls-106{fill:#a66638;}.cls-107{fill:#925b24;}.cls-108{fill:#5f2710;}.cls-109,.cls-146{stroke-width:0.25px;}.cls-110{fill:#3d2d16;}.cls-111{fill:#dc9e8f;}.cls-112{stroke:#3d2d16;}.cls-113{fill:#fff7f4;}.cls-114{fill:#411e16;}.cls-116{fill:#632323;}.cls-117{fill:#323232;}.cls-118{fill:#e8d860;}.cls-119{stroke:#ef4b3b;stroke-width:2px;}.cls-120{fill:#ef4b3b;}.cls-121{fill:#f49990;}.cls-122{fill:#e13e26;}.cls-123{fill:#fddf0e;}.cls-124{fill:#281b17;}.cls-125{fill:#473a3a;}.cls-126{fill:#5e5454;}.cls-127{clip-path:url(#clip-path-13);}.cls-128{clip-path:url(#clip-path-14);}.cls-129{fill:url(#linear-gradient-14);}.cls-130{clip-path:url(#clip-path-15);}.cls-131{clip-path:url(#clip-path-16);}.cls-132{fill:url(#linear-gradient-15);}.cls-133{fill:url(#linear-gradient-16);}.cls-134{clip-path:url(#clip-path-17);}.cls-135{clip-path:url(#clip-path-18);}.cls-136{fill:#b7dfe7;}.cls-137{clip-path:url(#clip-path-19);}.cls-138{clip-path:url(#clip-path-20);}.cls-139{fill:url(#linear-gradient-17);}.cls-140{clip-path:url(#clip-path-21);}.cls-141{clip-path:url(#clip-path-22);}.cls-142{fill:url(#linear-gradient-18);}.cls-143{fill:url(#linear-gradient-19);}.cls-144{fill:url(#linear-gradient-20);}.cls-145{fill:#5fde85;}.cls-146{fill:url(#linear-gradient-21);stroke:url(#linear-gradient-22);}</style><clipPath id="clip-path"><rect class="cls-1" x="-1300" y="-740" width="1280" height="720"/></clipPath><clipPath id="clip-path-2"><rect class="cls-1" x="-1460" y="-830" width="1600" height="900"/></clipPath><linearGradient id="linear-gradient" x1="-605.35" y1="45.02" x2="-608.07" y2="-376.34" gradientUnits="userSpaceOnUse"><stop offset="0.17" stop-color="#66d579"/><stop offset="0.94" stop-color="#8ace9a"/></linearGradient><linearGradient id="linear-gradient-2" x1="-196.66" y1="-158.98" x2="398.01" y2="-506.72" gradientTransform="translate(-1.88 18.32) rotate(-3.08)" gradientUnits="userSpaceOnUse"><stop offset="0.03" stop-color="#15492e"/><stop offset="0.18" stop-color="#1a4f33"/><stop offset="0.37" stop-color="#276040"/><stop offset="0.6" stop-color="#3c7c57"/><stop offset="0.68" stop-color="#468961"/></linearGradient><linearGradient id="linear-gradient-3" x1="-40.95" y1="-368.38" x2="468.28" y2="-781.86" gradientTransform="matrix(1, -0.05, 0.05, 0.85, 8.89, 218.16)" xlink:href="#linear-gradient-2"/><linearGradient id="linear-gradient-4" x1="24.08" y1="8.3" x2="144.45" y2="8.3" gradientUnits="userSpaceOnUse"><stop offset="0" stop-color="#174124"/><stop offset="0" stop-color="#1c251b"/><stop offset="0" stop-color="#1b331d"/><stop offset="0.18" stop-color="#1b361e"/><stop offset="0.86" stop-color="#1a3b20"/></linearGradient><clipPath id="clip-path-3"><rect class="cls-1" y="-740" width="1280" height="720"/></clipPath><clipPath id="clip-path-4"><rect class="cls-1" x="-160" y="-830" width="1600" height="900"/></clipPath><clipPath id="clip-path-5"/><linearGradient id="linear-gradient-5" x1="599.07" y1="-1379.69" x2="676.41" y2="665.43" gradientUnits="userSpaceOnUse"><stop offset="0.21" stop-color="#a2d9d8"/><stop offset="0.22" stop-color="#9ad7d7"/><stop offset="0.24" stop-color="#86d1d4"/><stop offset="0.26" stop-color="#7acdd3"/><stop offset="0.27" stop-color="#76ccd2"/><stop offset="0.33" stop-color="#7acdd2"/><stop offset="0.39" stop-color="#86d1d2"/><stop offset="0.45" stop-color="#9ad6d2"/><stop offset="0.5" stop-color="#addcd2"/><stop offset="0.52" stop-color="#b5dfd6"/><stop offset="0.57" stop-color="#cae8e2"/><stop offset="0.62" stop-color="#ecf7f4"/><stop offset="0.64" stop-color="#fff"/><stop offset="1" stop-color="#c8e5d2"/></linearGradient><clipPath id="clip-path-6"><rect class="cls-1" x="1300" y="-740" width="1280" height="720"/></clipPath><clipPath id="clip-path-7"><rect class="cls-1" x="1140" y="-830" width="1600" height="900" transform="translate(3880 -760) rotate(-180)"/></clipPath><linearGradient id="linear-gradient-6" x1="2539.07" y1="-1379.69" x2="2616.41" y2="665.43" gradientTransform="matrix(1, 0, 0, -1, -632.92, -782.16)" xlink:href="#linear-gradient-5"/><clipPath id="clip-path-8"><rect class="cls-1" x="-1300" width="1280" height="720"/></clipPath><clipPath id="clip-path-9"><rect class="cls-1" x="-1460" y="-90" width="1600" height="900"/></clipPath><linearGradient id="linear-gradient-7" x1="-678.6" y1="-619.56" x2="-602.76" y2="1386.15" xlink:href="#linear-gradient-5"/><linearGradient id="linear-gradient-8" x1="-33.38" y1="-56.23" x2="-33.38" y2="745.89" gradientUnits="userSpaceOnUse"><stop offset="0.17" stop-color="#a2d9d8"/><stop offset="0.19" stop-color="#9ad7d7"/><stop offset="0.25" stop-color="#86d1d4"/><stop offset="0.3" stop-color="#7acdd2"/><stop offset="0.36" stop-color="#76ccd1"/><stop offset="0.44" stop-color="#79cdd1"/><stop offset="0.48" stop-color="#81cfd1"/><stop offset="0.51" stop-color="#90d3d1"/><stop offset="0.55" stop-color="#a4d9d1"/><stop offset="0.56" stop-color="#addcd1"/><stop offset="0.57" stop-color="#b5dfd5"/><stop offset="0.6" stop-color="#cae8e1"/><stop offset="0.63" stop-color="#ecf7f4"/><stop offset="0.64" stop-color="#fff"/><stop offset="1" stop-color="#c7e5d2"/></linearGradient><clipPath id="clip-path-11"><rect class="cls-1" width="1280" height="720"/></clipPath><clipPath id="clip-path-12"><rect class="cls-1" x="-160" y="-89" width="1600" height="898"/></clipPath><linearGradient id="linear-gradient-9" x1="652.54" y1="-522.23" x2="652.54" y2="1248.53" gradientUnits="userSpaceOnUse"><stop offset="0.08" stop-color="#a2d9d8"/><stop offset="0.09" stop-color="#9ad7d7"/><stop offset="0.12" stop-color="#86d1d4"/><stop offset="0.15" stop-color="#7acdd3"/><stop offset="0.18" stop-color="#76ccd2"/><stop offset="0.29" stop-color="#79cdd2"/><stop offset="0.35" stop-color="#81d0d2"/><stop offset="0.41" stop-color="#90d5d2"/><stop offset="0.45" stop-color="#a4dcd2"/><stop offset="0.46" stop-color="#a7ddd2"/><stop offset="0.5" stop-color="#afdfd3"/><stop offset="0.55" stop-color="#c4e5d5"/><stop offset="0.57" stop-color="#cde7d6"/><stop offset="0.65" stop-color="#f2f9f4"/><stop offset="1" stop-color="#c8e5d2"/></linearGradient><linearGradient id="linear-gradient-10" x1="502.8" y1="324.81" x2="444.85" y2="393.56" gradientUnits="userSpaceOnUse"><stop offset="0.18" stop-color="#bfe3d4"/><stop offset="0.57" stop-color="#b3e0d3"/></linearGradient><linearGradient id="linear-gradient-11" x1="578.38" y1="298.63" x2="510.36" y2="452.89" gradientUnits="userSpaceOnUse"><stop offset="0" stop-color="#bfe3d4"/><stop offset="0.57" stop-color="#b3e0d3"/></linearGradient><linearGradient id="linear-gradient-12" x1="1026.48" y1="106.55" x2="953.24" y2="284.92" gradientUnits="userSpaceOnUse"><stop offset="0.14" stop-color="#b2e0d3"/><stop offset="0.46" stop-color="#9dd9d2"/><stop offset="0.7" stop-color="#93d6d2"/></linearGradient><linearGradient id="linear-gradient-13" x1="116.73" y1="116.88" x2="13.9" y2="263.19" gradientUnits="userSpaceOnUse"><stop offset="0.14" stop-color="#b2e0d3"/><stop offset="0.21" stop-color="#abded3"/><stop offset="0.46" stop-color="#99d8d2"/><stop offset="0.65" stop-color="#93d6d2"/></linearGradient><clipPath id="clip-path-13"><rect class="cls-1" x="1300" width="1280" height="720"/></clipPath><clipPath id="clip-path-14"><rect class="cls-1" x="1140" y="-89" width="1600" height="898"/></clipPath><linearGradient id="linear-gradient-14" x1="1952.54" y1="-522.23" x2="1952.54" y2="1248.53" xlink:href="#linear-gradient-9"/><clipPath id="clip-path-15"><rect class="cls-1" x="-1300" y="740" width="1280" height="720"/></clipPath><clipPath id="clip-path-16"><rect class="cls-1" x="-1460" y="615.44" width="1600" height="900"/></clipPath><linearGradient id="linear-gradient-15" x1="-660" y1="154.38" x2="-660" y2="2115.86" gradientUnits="userSpaceOnUse"><stop offset="0.21" stop-color="#a2d9d8"/><stop offset="0.22" stop-color="#9ad7d7"/><stop offset="0.24" stop-color="#86d1d4"/><stop offset="0.26" stop-color="#7acdd2"/><stop offset="0.27" stop-color="#76ccd1"/><stop offset="0.38" stop-color="#79cdd1"/><stop offset="0.44" stop-color="#81cfd1"/><stop offset="0.49" stop-color="#90d3d1"/><stop offset="0.54" stop-color="#a4d9d1"/><stop offset="0.56" stop-color="#addcd1"/><stop offset="0.57" stop-color="#b5dfd5"/><stop offset="0.6" stop-color="#cae8e1"/><stop offset="0.63" stop-color="#ecf7f4"/><stop offset="0.64" stop-color="#fff"/><stop offset="1" stop-color="#c7e5d2"/></linearGradient><linearGradient id="linear-gradient-16" x1="-5.16" y1="656.71" x2="-82.53" y2="851.51" gradientUnits="userSpaceOnUse"><stop offset="0.16" stop-color="#a2d9d8"/><stop offset="0.52" stop-color="#83d0d3"/><stop offset="0.73" stop-color="#77ccd1"/></linearGradient><clipPath id="clip-path-17"><rect class="cls-1" x="1300" y="740" width="1280" height="720"/></clipPath><clipPath id="clip-path-18"><rect class="cls-1" x="1140" y="650" width="1600" height="900"/></clipPath><clipPath id="clip-path-19"><rect class="cls-1" x="-1300" y="1480" width="1280" height="720"/></clipPath><clipPath id="clip-path-20"><rect class="cls-1" x="-2763.97" y="506.31" width="3238.61" height="1821.72"/></clipPath><linearGradient id="linear-gradient-17" x1="-1141.28" y1="1695.29" x2="-1149.07" y2="488.25" gradientUnits="userSpaceOnUse"><stop offset="0.3" stop-color="#90e7de"/><stop offset="0.94" stop-color="#bee7ea"/></linearGradient><clipPath id="clip-path-21"><rect class="cls-1" y="740" width="1280" height="720"/></clipPath><clipPath id="clip-path-22"><rect class="cls-1" y="560" width="1600" height="900"/></clipPath><linearGradient id="linear-gradient-18" x1="800" y1="98.94" x2="800" y2="2060.42" xlink:href="#linear-gradient-15"/><linearGradient id="linear-gradient-19" x1="451.17" y1="650.77" x2="393.24" y2="805.39" gradientUnits="userSpaceOnUse"><stop offset="0.06" stop-color="#a2d9d8"/><stop offset="0.24" stop-color="#93d4d6"/><stop offset="0.54" stop-color="#7eced2"/><stop offset="0.75" stop-color="#77ccd1"/></linearGradient><linearGradient id="linear-gradient-20" x1="-24.1" y1="777.86" x2="183.44" y2="641.06" gradientTransform="translate(142.41 -17.43) rotate(8.3)" gradientUnits="userSpaceOnUse"><stop offset="0" stop-color="#307e3e"/><stop offset="0" stop-color="#368349"/><stop offset="0" stop-color="#479266"/><stop offset="0" stop-color="#62aa95"/><stop offset="0" stop-color="#87cad6"/><stop offset="0" stop-color="#93d5ec"/><stop offset="0.21" stop-color="#a5dcee"/><stop offset="0.58" stop-color="#cfecf4"/></linearGradient><linearGradient id="linear-gradient-21" x1="-257.3" y1="941.8" x2="456.92" y2="609.19" gradientUnits="userSpaceOnUse"><stop offset="0.13" stop-color="#005b38"/><stop offset="0.33" stop-color="#1f753a"/><stop offset="0.64" stop-color="#48983e"/><stop offset="0.79" stop-color="#58a53f"/><stop offset="0.89" stop-color="#59a641"/><stop offset="0.92" stop-color="#5ca948"/><stop offset="0.95" stop-color="#61ad53"/><stop offset="0.97" stop-color="#69b464"/><stop offset="0.99" stop-color="#73bd7a"/><stop offset="1" stop-color="#7ec793"/></linearGradient><linearGradient id="linear-gradient-22" x1="-195.77" y1="779.97" x2="317.36" y2="779.97" gradientUnits="userSpaceOnUse"><stop offset="0" stop-color="#277948"/><stop offset="1" stop-color="#03654a"/></linearGradient></defs><g class="cls-2"><g id="Layer_1" data-name="Layer 1"><g class="cls-3"><g class="cls-4"><path class="cls-5" d="M-1513.14-128.3s300-23.86,555.56-127.39C-591.16-404.12-279.85-436.16,198.17-412.81L315-211.1,261.91,49.39-1526.95,109.5Z"/><path class="cls-6" d="M-1472.44-88.06s249.12,61.38,563.76-20.7c118.62-30.94,309.82-95,501.12-95,149,0,268.56,7.2,332.64,17.28,51.22,8.06,177.12,27,222.48,43.2l2.16,175H-1474.6Z"/><path class="cls-7" d="M-1472.44-63.5s170.35,55,533.52,5.22C-740.2-85.52-591.16-16.76-152.68,4.36-100.89,6.85,116.6-10.52,154,7.72L149.72,84-1474.6,77.56Z"/><rect class="cls-8" x="-29.46" y="-47.51" width="35.99" height="145.56"/><path class="cls-9" d="M-124-42.27S-133.79-404.09-8.87-571c0,0,33-33.44,65,86.83S112-142.53,96.26-40.35C84.28,37.28-119.74,58.26-124-42.27Z"/><rect class="cls-8" x="83.5" y="-35.48" width="33.66" height="137.93"/><path class="cls-10" d="M8.62-45.63S41-431.72,111.38-475c0,0,39.14-23.64,68.29,72.66s50.16,273.88,34.79,356.11C202.79,16.24,9.89,36.19,8.62-45.63Z"/><path class="cls-11" d="M128.42,32.52S122.36-40.61,93.25-53c-19.4-5.63-8.49,48.27,17.59,93.9C52.63-15.24,64.15-2.36,64.15-2.36,35-27.11,36.26,2.14,53.23,19A301.41,301.41,0,0,0,94.46,56.15s.06,6.75-12.7,0-33.38-18-33.38-18S81.13,53.9,46,37,24.13,52.78,43.53,60.65s14.82,8.63,14.82,8.63l86.1.72-3.9-94.06s-5-22.38-9.78-9.34S128.42,32.52,128.42,32.52Z"/><polygon class="cls-12" points="133.04 64.43 93.63 -38.86 134.03 64.04 133.04 64.43"/><path class="cls-12" d="M123.57,68.88Q104.72,52,86.11,34.83C79.92,29.1,73.75,23.35,67.66,17.51c-1.54-1.45-3-2.92-4.56-4.39s-3-2.94-4.51-4.44-3-3-4.43-4.52S51.3,1.06,49.92-.53c1.4,1.58,2.79,3.16,4.29,4.65s3,3,4.48,4.47,3,2.94,4.55,4.39,3.05,2.91,4.6,4.34C74,23.09,80.22,28.77,86.47,34.44q18.77,17,37.8,33.64Z"/><path class="cls-12" d="M85.56,69A138.06,138.06,0,0,1,71.7,64.85a142.51,142.51,0,0,1-13.35-5.52,105.55,105.55,0,0,1-12.52-7.18A65.25,65.25,0,0,1,35,42.71a65.27,65.27,0,0,0,11,9.22,106.28,106.28,0,0,0,12.6,6.92A142.18,142.18,0,0,0,72,64.1,134.36,134.36,0,0,0,85.78,68Z"/></g></g><g class="cls-13"><g class="cls-14"><g id="Slide_1" data-name="Slide 1"><g class="cls-15"><rect class="cls-16" x="-197.89" y="-864.04" width="1668.71" height="945.92"/></g></g></g></g><g class="cls-17"><g class="cls-18"><rect class="cls-19" x="1109.19" y="-864.04" width="1668.71" height="945.92" transform="translate(3887.08 -782.16) rotate(-180)"/></g></g><g class="cls-20"><g class="cls-21"><g id="Slide_1-2" data-name="Slide 1"><g class="cls-15"><rect class="cls-22" x="-1476.29" y="-113.24" width="1668.71" height="926.47"/></g></g><path class="cls-23" d="M-143.18,104.09C-140.3,96.62-68.9,63.65,3.55,76.34c75.2,19.19,106.39,57.12,33.94,61.45S-94.58,134.54-112,132.37-152.35,127.83-143.18,104.09Z"/></g></g><g class="cls-24"><g class="cls-25"><g id="BG"><rect class="cls-26" x="-208" y="-106" width="1721.08" height="693"/><path class="cls-27" d="M448.13,348.42s18.93-9.69,47.63-6.92,24.27,10.86,10.36,11.35-41.13.58-47,0S446.06,352.42,448.13,348.42Z"/><path class="cls-28" d="M494.43,345.4s34.45-35.79,86.67-25.56,44.14,40.1,18.84,41.92-74.83,2.15-85.59,0S490.66,360.17,494.43,345.4Z"/><path class="cls-29" d="M884.92,184.31s59.71-62,150.23-44.32,76.53,69.52,32.67,72.67-129.71,3.74-148.37,0S878.39,209.91,884.92,184.31Z"/><polygon class="cls-30" points="-168 541 1475 541 1458 706 -175 686.18 -168 541"/><path class="cls-31" d="M-175,650s930,6.84,1121,35.16,530.94,2.93,551,10.74-46,153.32-46,153.32l-1626,9.19V650Z"/><path class="cls-32" d="M-179,706s930,5.32,1121,27.37,530.94,2.28,551,8.36-46,119.37-46,119.37l-1626,7.15V706Z"/><path class="cls-33" d="M406,577.33H-374l35.22-106.51s92.18-.18,145,31.93,105.65,22.79,124.29,4.14,43.87-29.67,68.55-36.07,60.83,1.48,103.39,23.65c49.72,25.89,58,33.14,101.51,35.21S406,577.33,406,577.33Z"/><path class="cls-34" d="M322.05,573.26H-374l31.43-66.14S-260.3,507-213.16,527s94.29,14.15,110.92,2.57,39.15-18.43,61.17-22.4,54.3.91,92.28,14.68c44.37,16.08,51.76,20.58,90.59,21.87S322.05,573.26,322.05,573.26Z"/><path class="cls-35" d="M406,580.44H-374l35.22,22.33s92.18,0,145-6.69,105.65-4.78,124.29-.87,43.87,6.22,68.55,7.56,60.83-.31,103.39-5c49.72-5.43,58-6.95,101.51-7.38S406,580.44,406,580.44Z"/><path class="cls-36" d="M384.37,479.36s-4.44,14.34-34.3,17.4-61.64,8.91-71.27,46.93l-11.28-1.62s6.15-23.54,22.19-35.66,33.4-14.22,56.85-16.12,31.56-7.34,36.53-17l3.48.5Z"/><polygon class="cls-37" points="379.81 478.38 380.55 477.43 384.01 480.67 383.2 481.65 379.81 478.38"/><path class="cls-37" d="M374.28,483.27l1.19-.81,3.14,4.29s-1.06.85-1.38,1.08Z"/><polygon class="cls-37" points="370.2 485.43 372.21 490.9 370.89 491.54 369.09 485.84 370.2 485.43"/><polygon class="cls-37" points="360.21 495.11 361.82 494.72 360.5 488.4 359.04 488.69 360.21 495.11"/><polygon class="cls-37" points="347 497.09 349.03 496.87 348.38 490.04 346.56 490.29 347 497.09"/><polygon class="cls-37" points="333.83 498.87 336.15 498.49 335.67 491.27 333.4 491.51 333.83 498.87"/><polygon class="cls-37" points="321.12 501.65 323.3 501.07 321.92 493.13 319.63 493.57 321.12 501.65"/><polygon class="cls-37" points="309.78 505.71 311.98 504.76 309.1 496.3 307.1 496.99 309.78 505.71"/><polygon class="cls-37" points="299.82 511.36 301.98 509.91 296.99 501.62 295.09 502.73 299.82 511.36"/><polygon class="cls-37" points="291.56 518.68 293.41 516.75 286.37 509.21 284.76 510.79 291.56 518.68"/><polygon class="cls-37" points="285.15 527.58 283.89 529.91 274.01 525.98 275.25 523.7 285.15 527.58"/><polygon class="cls-37" points="279.7 540.46 280.52 537.89 269.67 535.62 268.51 538.85 279.7 540.46"/><path class="cls-38" d="M230,396.39s-20.2,92.64-12.67,136.2h-17s11.14-100.74,27.43-138.84Z"/><polygon class="cls-37" points="218.63 423.21 224.76 423.79 224.4 425.85 218.22 424.89 218.63 423.21"/><polygon class="cls-37" points="216.41 432.71 223.14 433.36 222.86 435.11 216.04 434.42 216.41 432.71"/><polygon class="cls-37" points="213.59 446.17 221.03 447.02 220.7 449.33 213.1 448.67 213.59 446.17"/><polygon class="cls-37" points="211.01 459.83 219.29 459.83 218.96 462.5 210.59 462.2 211.01 459.83"/><polygon class="cls-37" points="209.1 470.88 218 470.88 217.75 473.29 208.7 473.29 209.1 470.88"/><polygon class="cls-37" points="206.82 485.08 216.65 485.54 216.44 488.4 206.31 488.4 206.82 485.08"/><polygon class="cls-37" points="204.73 499.18 215.87 499.18 215.76 502.54 204.31 502.11 204.73 499.18"/><polygon class="cls-37" points="202.83 512.99 215.7 512.43 215.77 515.27 202.4 516.35 202.83 512.99"/><polygon class="cls-37" points="200.94 528.06 216.46 525.96 216.69 528.06 200.68 530.23 200.94 528.06"/><path class="cls-39" d="M404.69,450.89a13.2,13.2,0,0,1,.21,3.13l-5.67,1.58-2.1-4.2,3.79-1Z"/><path class="cls-40" d="M385.6,455.84s1.93-9.94,4.66-12.09c0,0,9.19,1.23,14.43,7.14l-2.24,1.28-2.58-.37,1.51,1.24-6.32,6.13-5.29,5.62-3.11-2Z"/><path class="cls-41" d="M396.54,445.5S390,450.11,389,460.33l.75,1.42.38-1S389.59,452.92,396.54,445.5Z"/><path class="cls-42" d="M389.13,467.27a28.72,28.72,0,0,0-5.51-21.58s-10-2.23-13.72,1.18l15.19,14.64,1.79,6.47Z"/><path class="cls-40" d="M388.45,468.21s-2.4-13.35-8-17.94a25.34,25.34,0,0,0-12.58-5.14l-2.34,3.35.52-3.63-1.44-.2-.29,2-.94-2.21s-5.81-.28-8-2.84c0,0-1.48,4,.49,6.64l4.35.36-3.5,1.2a9.14,9.14,0,0,0,5,5.22L377.54,464Z"/><path class="cls-41" d="M361.16,448.33A148.1,148.1,0,0,0,376,453.71c8.37,2.62,11.68,15.41,11.68,15.41s-4.95-11.85-11.85-14.19C365.53,451.42,361.16,448.33,361.16,448.33Z"/><path class="cls-43" d="M395.1,465.47s12.43-6.15,19.3-1.19,7.67,9.78,7.67,9.78l-1.44.19,2,.9a28.75,28.75,0,0,1-1.26,12.43s-1.67-5.53-2.71-6.92l1.33-2.45-2.16.92a42.19,42.19,0,0,0-4-4.88C412.52,473.08,395.1,465.47,395.1,465.47Z"/><path class="cls-44" d="M386.87,467.33s-3.89-12.14-16.5-15c-12.3-2.77-24.94,13.27-26.33,19.38a4,4,0,0,0-.09.45c-.82,5.72-2.19-3.9,18.31-8s24.85,19.08,24.85,19.08Z"/><path class="cls-45" d="M348.32,467.25s17.22-16.76,35.24-2.38c0,0,2.22,2.05,2.4,3.41l.53-.83s-5.56-11.27-22.45-8.89C355.15,459.82,348.32,467.25,348.32,467.25Z"/><path class="cls-43" d="M381.74,463.14s3.06,5.21,3.84,7.13l-4,1.05s-3.23-4-4.29-4.34l-1.8-3.12Z"/><path class="cls-46" d="M390,468.66s14.2-8.51,27.93-4.85l.78-2.53a6.44,6.44,0,0,1,.61,3l1.89,1,.85-1.3-.26,1.77s5.57,3.21,7.18,5.74c0,0-1-14.94-16.25-17.79s-24.76,5.25-25.46,13.19C387.29,466.87,384.93,470.33,390,468.66Z"/><path class="cls-46" d="M381.74,463.14A26.79,26.79,0,0,0,373,473.28L369.1,471l3.06,3.72L371,478.07l-2.83-.83,2.18,2.42s-1.51,8.33-1.09,12.72c0,0-7.23-6.95-7.32-16.56s3.63-15,3.63-15A16.92,16.92,0,0,1,381.74,463.14Z"/><path class="cls-46" d="M390,468.66s4.67.56,10.91,10l3.4-.88-2.68,2.67.81,1.5,2.78-1L403,483.6l4,10.08,2.09-2.76-1.72,3.87,2.61,7.55s3.88-7.88,5.3-11.9l-2.36-2.66,2.63.8.44-3.1-3-2,3.31-.27s.78-14.09-11.54-18.44C394.68,461.2,390,468.66,390,468.66Z"/><path class="cls-47" d="M388.56,467.45s15.51-17.31,33.84-6c0,0-8.47-8.67-24.52-2.23,0,0-8.2,4.1-10.38,8.12Z"/><path class="cls-41" d="M391.11,467.8s22.89-4.73,19.68,23.47c0,0,2.61-12-3.62-19.85-4.71-5.95-15.43-4.7-16-4.17l-.58.6Z"/><path class="cls-48" d="M379.76,465.92s10.9.51,16.2,4l-1.54,4.85-3.21-.46,2.62,1.64-1,3.23-2.45-1.3,1.74,2.57s-4.64,8.83-7.77,11.87l-1.74-16.19,2.34-.82-3-.74Z"/><path class="cls-41" d="M375.09,460.12a26.41,26.41,0,0,0-8.6,25.13,27.05,27.05,0,0,1,7.3-25.36S374.73,460,375.09,460.12Z"/><path class="cls-41" d="M386.19,466.68s2.66,4.52-.58,21.32c0,0,3.25-12.77,1.34-21.2Z"/><path class="cls-39" d="M223.5,369.62a15.63,15.63,0,0,0-1.93,3.09l4.82,4.72,4.43-3.14-3.23-3.16Z"/><path class="cls-40" d="M239.94,385.16s3.56-11.26,2-15c0,0-9.9-3.77-18.44-.59l1.56,2.53,2.78,1-2.2.45,3,9.74,2.21,8.66,4.25-.39Z"/><path class="cls-41" d="M234.67,368.55s4,8.33-.57,19.36L232.55,389l.18-1.26S237.54,380,234.67,368.55Z"/><path class="cls-42" d="M230.08,394.93s4.08-13.15,17.46-19.09c0,0,11.26,3.19,13.12,8.73l-23.34,6.67-5.38,5.65Z"/><path class="cls-40" d="M230.24,396.26s9.79-12.36,18-14a28.41,28.41,0,0,1,15.46,1.63l.51,4.72,1.48-4,1.56.58-.84,2.25,2.17-1.76s6,2.9,9.56,1.46c0,0-.73,4.93-4.15,6.54l-4.58-2,2.85,3.16a10.47,10.47,0,0,1-7.91,2.6l-20.81.48Z"/><path class="cls-41" d="M268.63,390.86a168.14,168.14,0,0,1-17.89-2.64c-9.85-1.9-20.24,9.4-20.24,9.4s11.52-9.43,19.74-8.05C262.53,391.63,268.63,390.86,268.63,390.86Z"/><path class="cls-43" d="M225.07,389.81S216,376.7,206.36,378s-13.11,5.82-13.11,5.82l1.34,1-2.49-.16a33.9,33.9,0,0,0-5.61,13.41s4.74-4.74,6.54-5.59l0-3.24,1.66,2.13a47.52,47.52,0,0,1,6.68-2.83C203.38,388.07,225.07,389.81,225.07,389.81Z"/><path class="cls-44" d="M232.31,396.22s10.62-10.3,24.85-6.3c13.88,3.9,17.71,27.26,15.73,34.29-.05.18-.1.35-.16.51-2.34,6.31,4.35-2.8-14-18.2s-35.49,5.92-35.49,5.92Z"/><path class="cls-45" d="M271.06,417.29s-8-26.62-34.07-21.77c0,0-3.36.88-4.29,2.18l-.08-1.14s11.82-8.5,27.46,3.2C268.32,405.92,271.06,417.29,271.06,417.29Z"/><path class="cls-43" d="M239.78,394.75s-5.95,3.65-7.79,5.2l3.4,3.26s5.45-2.33,6.7-2.1l3.53-2.21Z"/><path class="cls-46" d="M228.41,395.86s-9.55-16.51-25.35-20.28l.61-3a7.6,7.6,0,0,0-2.27,2.74l-2.44,0-.13-1.8-.72,2s-7.37.24-10.39,1.95c0,0,9.3-14.75,26.15-9.33s22,19,18.28,27.48C232.15,395.53,232.6,400.37,228.41,395.86Z"/><path class="cls-46" d="M239.78,394.75A31.12,31.12,0,0,1,243,409.94l5.16-.17L243,411.9l-.72,4,3.3.7L242,417.9s-3.09,9.37-5.94,13.63c0,0,11.1-3.15,16.52-13s4.64-17.35,4.64-17.35A19,19,0,0,0,239.78,394.75Z"/><path class="cls-46" d="M228.41,395.86s-5-2-16.48,4.28L209,397.37l1.21,4.21-1.65,1.09-2.25-2.53.84,3.94-9.63,8.12-.57-4-.41,4.91-6.79,6.31s.46-10.21,1.26-15.11l3.84-1.43-3.08-.62,1.26-3.42,4.11-.42L194,396.35s7-14.87,21.79-12.57C227.86,385.67,228.41,395.86,228.41,395.86Z"/><path class="cls-47" d="M230.55,395.43s-6-26.24-30.63-24.75c0,0,13.29-4.23,25.84,11.16,0,0,6,8.69,5.94,14Z"/><path class="cls-41" d="M227.79,394.39S207.43,377,195.06,407.64c0,0,4-13.71,14.61-18.36,8-3.51,18.09,3.65,18.35,4.5l.25.93Z"/><path class="cls-44" d="M240.24,398.68s-11.23-5.45-18.49-4.76l-1.13,5.8,3.47,1.29-3.53.25-.79,3.86H223l-3.17,1.68s-.22,11.59,1.25,16.42l10.69-15.64-1.89-2.12,3.37.86Z"/><path class="cls-41" d="M248.12,395.3a31.16,31.16,0,0,1-5.25,30.47,32,32,0,0,0,6.69-30S248.53,395.41,248.12,395.3Z"/><path class="cls-41" d="M233.35,395.94s-5.16,3.17-11.2,22.16c0,0,3.8-14.87,10.38-22.45Z"/><path class="cls-49" d="M-185.71,615s749.47,1.85,822.49,4,818.83,17.58,838.22,16.35V642s-790.28-16.51-807.55-16.51c-13.11,0-836-5.55-853.16-6.48S-185.71,615-185.71,615Z"/><path class="cls-50" d="M1714.34,678.6s-343.61-8.52-646.23-13.13C843,662,639,647.94,596.86,647.9,497.56,647.8-228,640-228,640s759.44,15.2,782.89,16c17.81.58,1135.92,29,1159.25,28.47S1714.34,678.6,1714.34,678.6Z"/><path class="cls-51" d="M-221.86,660.27s296.22-.89,649.75,13.43c87.57,3.55,216.63,1.74,253.87,7.22,11.18,1.64-893.9-11-892.8-7.67,3.57,10.7,922.76,11.63,931.15,12,28.15,1.42,52.5,4.53,74,5.57,43.92,2.12,74.28,3.34,92.11,3.17,116.34-1.08,717.68,3.55,712-5.12,0,0-434.77-3.25-462.23-4.28-20.85-.78-1330.17-35.75-1357.52-34.44S-221.86,660.27-221.86,660.27Z"/><path class="cls-52" d="M-11.89,181.05s45.05-40.55,113.36-29,57.74,45.44,24.64,47.5-97.87,2.45-111.95,0S-16.82,197.78-11.89,181.05Z"/><path class="cls-53" d="M258,753c0,21.54-41.67,16-61,16s-51,5.54-51-16,25.67-38,45-38S258,731.46,258,753Z"/></g><polygon class="cls-54" points="886.81 487.79 890.54 514.5 956.53 514.95 956.53 486.88 886.81 487.79"/><line class="cls-55" x1="887.28" y1="491.15" x2="956.53" y2="491.15"/><line class="cls-55" x1="887.9" y1="495.64" x2="956.53" y2="495.64"/><line class="cls-55" x1="888.64" y1="500.92" x2="956.53" y2="500.92"/><line class="cls-55" x1="889.33" y1="505.83" x2="956.53" y2="505.83"/><line class="cls-55" x1="889.98" y1="510.46" x2="956.53" y2="510.46"/><rect class="cls-56" x="922.55" y="499.42" width="7.9" height="14.33"/><path class="cls-57" d="M831.84,507.78s6.26,28.57,31.85,38.58H995s7-9.38,13.83-11.28,19.72-7.16,21.94-22l-1.43-1.51-45.15-.16-5.56,1.11-3.34,2.07h-86.8l-9.22-6.79-47.43-1.95Z"/><polygon class="cls-58" points="831.24 505.55 879.31 508.13 889.11 514.53 975.95 514.53 978.4 511.52 1030.77 512.54 1030.5 514.61 979.72 514.53 977.08 517.17 887.98 517.17 879.12 511.33 832.22 509.28 831.24 505.55"/><polygon class="cls-59" points="830.14 504.02 879.31 506.65 889.11 513.06 975.95 513.06 978.4 510.05 1030.77 509.67 1030.77 513.06 979.72 513.06 977.08 515.7 887.98 515.7 879.12 509.86 831.84 507.79 830.14 504.02"/><path class="cls-60" d="M842.79,530.31H1019.6a33.32,33.32,0,0,1-12.36,5.8c-5.51,1.4-12.25,10.71-12.25,10.71H863.77S849.31,540.89,842.79,530.31Z"/><rect class="cls-57" x="878.54" y="482.95" width="80.49" height="5.93" rx="1.86"/><rect class="cls-61" x="894.85" y="494.42" width="10" height="12.12" rx="1.8"/><rect class="cls-61" x="908.32" y="494.42" width="10" height="12.12" rx="1.8"/><rect class="cls-61" x="935.63" y="494.42" width="10" height="12.12" rx="1.8"/><path class="cls-62" d="M866.41,546.82s94.31-2.46,100.22-3,25.88-4.12,30.73-6.44,19.39-5.15,19.39-5.15a76.9,76.9,0,0,1-11.38,5c-2.54.79-10.38,9.62-10.38,9.62Z"/><path class="cls-63" d="M965.7,407.49s29.28,18.44,51,47.36c0,0-12.74,29.15-49.94,46.9Z"/><line class="cls-64" x1="842.79" y1="530.31" x2="1019.6" y2="530.31"/><rect class="cls-65" x="967.73" y="502.89" width="2.49" height="3.79"/><rect class="cls-60" x="963.94" y="501.75" width="4.01" height="11.31"/><polygon class="cls-66" points="964.58 501.75 965.18 403.54 965.95 403.54 966.81 501.75 964.58 501.75"/><polyline class="cls-67" points="834.17 504.23 965.7 407.49 945.61 483.05"/><polygon class="cls-59" points="899.23 441.97 898.47 482.95 900.48 482.95 899.23 441.97"/><polygon class="cls-65" points="965.18 403.54 964.26 401 966.81 401 965.95 403.54 965.18 403.54"/><polygon class="cls-65" points="898.84 444.52 897.93 441.97 900.48 441.97 899.61 444.52 898.84 444.52"/><polygon class="cls-54" points="641.94 486.67 645.68 513.38 711.66 513.83 711.66 485.76 641.94 486.67"/><line class="cls-55" x1="642.41" y1="490.03" x2="711.66" y2="490.03"/><line class="cls-55" x1="643.04" y1="494.52" x2="711.66" y2="494.52"/><line class="cls-55" x1="643.78" y1="499.8" x2="711.66" y2="499.8"/><line class="cls-55" x1="644.46" y1="504.71" x2="711.66" y2="504.71"/><line class="cls-55" x1="645.11" y1="509.35" x2="711.66" y2="509.35"/><rect class="cls-56" x="677.69" y="498.3" width="7.9" height="14.33"/><path class="cls-68" d="M587,506.67s6.27,28.56,31.86,38.58h131.3s7-9.38,13.83-11.29,19.73-7.15,21.95-22l-1.44-1.51-45.15-.16-5.56,1.12-3.34,2.06H643.63l-9.22-6.78-47.44-2Z"/><polygon class="cls-69" points="586.37 504.44 634.44 507.01 644.24 513.42 731.09 513.42 733.53 510.4 785.91 511.42 785.63 513.49 734.85 513.42 732.22 516.06 643.11 516.06 634.25 510.22 587.36 508.16 586.37 504.44"/><polygon class="cls-59" points="585.27 502.9 634.44 505.54 644.24 511.94 731.09 511.94 733.53 508.93 785.91 508.55 785.91 511.94 734.85 511.94 732.22 514.58 643.11 514.58 634.25 508.74 586.97 506.67 585.27 502.9"/><path class="cls-60" d="M597.93,529.2h176.8A33.12,33.12,0,0,1,762.38,535c-5.51,1.4-12.26,10.72-12.26,10.72H618.9S604.45,539.78,597.93,529.2Z"/><rect class="cls-68" x="633.67" y="481.83" width="80.49" height="5.93" rx="1.86"/><rect class="cls-61" x="649.99" y="493.3" width="10" height="12.12" rx="1.8"/><rect class="cls-61" x="663.45" y="493.3" width="10" height="12.12" rx="1.8"/><rect class="cls-61" x="690.77" y="493.3" width="10" height="12.12" rx="1.8"/><path class="cls-62" d="M621.55,545.71s94.3-2.47,100.22-3,25.87-4.11,30.73-6.44,19.38-5.15,19.38-5.15a76.35,76.35,0,0,1-11.38,5c-2.53.8-10.38,9.63-10.38,9.63Z"/><path class="cls-70" d="M720.83,406.38s29.29,18.43,51,47.35c0,0-12.74,29.16-49.93,46.91Z"/><line class="cls-64" x1="597.93" y1="529.2" x2="774.73" y2="529.2"/><rect class="cls-65" x="722.87" y="501.77" width="2.49" height="3.79"/><rect class="cls-60" x="719.08" y="500.64" width="4.01" height="11.31"/><polygon class="cls-66" points="719.72 500.64 720.31 402.43 721.08 402.43 721.95 500.64 719.72 500.64"/><polyline class="cls-67" points="589.31 503.12 720.83 406.38 700.74 481.93"/><polygon class="cls-59" points="654.37 440.86 653.61 481.83 655.61 481.83 654.37 440.86"/><polygon class="cls-65" points="720.31 402.43 719.4 399.88 721.95 399.88 721.08 402.43 720.31 402.43"/><polygon class="cls-65" points="653.97 443.4 653.06 440.86 655.61 440.86 654.75 443.4 653.97 443.4"/><polygon class="cls-54" points="1120.42 486.67 1124.16 513.38 1190.15 513.83 1190.15 485.76 1120.42 486.67"/><line class="cls-55" x1="1120.89" y1="490.03" x2="1190.15" y2="490.03"/><line class="cls-55" x1="1121.52" y1="494.52" x2="1190.15" y2="494.52"/><line class="cls-55" x1="1122.26" y1="499.8" x2="1190.15" y2="499.8"/><line class="cls-55" x1="1122.95" y1="504.71" x2="1190.15" y2="504.71"/><line class="cls-55" x1="1123.59" y1="509.35" x2="1190.15" y2="509.35"/><rect class="cls-56" x="1156.17" y="498.3" width="7.9" height="14.33"/><path class="cls-68" d="M1065.45,506.67s6.27,28.56,31.86,38.58h131.31s7-9.38,13.83-11.29,19.72-7.15,21.94-22l-1.44-1.51-45.14-.16-5.57,1.12-3.34,2.06h-86.79l-9.22-6.78-47.44-2Z"/><polygon class="cls-69" points="1064.85 504.44 1112.93 507.01 1122.72 513.42 1209.57 513.42 1212.02 510.4 1264.39 511.42 1264.12 513.49 1213.34 513.42 1210.7 516.06 1121.59 516.06 1112.74 510.22 1065.84 508.16 1064.85 504.44"/><polygon class="cls-59" points="1063.76 502.9 1112.93 505.54 1122.72 511.94 1209.57 511.94 1212.02 508.93 1264.39 508.55 1264.39 511.94 1213.34 511.94 1210.7 514.58 1121.59 514.58 1112.74 508.74 1065.45 506.67 1063.76 502.9"/><path class="cls-60" d="M1076.41,529.2h176.8a33.12,33.12,0,0,1-12.35,5.79c-5.51,1.4-12.25,10.72-12.25,10.72H1097.38S1082.93,539.78,1076.41,529.2Z"/><rect class="cls-68" x="1112.15" y="481.83" width="80.49" height="5.93" rx="1.86"/><rect class="cls-61" x="1128.47" y="493.3" width="10" height="12.12" rx="1.8"/><rect class="cls-61" x="1141.94" y="493.3" width="10" height="12.12" rx="1.8"/><rect class="cls-61" x="1169.25" y="493.3" width="10" height="12.12" rx="1.8"/><path class="cls-62" d="M1100,545.71s94.31-2.47,100.22-3,25.87-4.11,30.73-6.44,19.39-5.15,19.39-5.15a76.9,76.9,0,0,1-11.38,5c-2.54.8-10.38,9.63-10.38,9.63Z"/><path class="cls-70" d="M1199.31,406.38s29.29,18.43,51.06,47.35c0,0-12.75,29.16-49.94,46.91Z"/><line class="cls-64" x1="1076.41" y1="529.2" x2="1253.21" y2="529.2"/><rect class="cls-65" x="1201.35" y="501.77" width="2.49" height="3.79"/><rect class="cls-60" x="1197.56" y="500.64" width="4.01" height="11.31"/><polygon class="cls-66" points="1198.2 500.64 1198.79 402.43 1199.57 402.43 1200.43 500.64 1198.2 500.64"/><polyline class="cls-67" points="1067.79 503.12 1199.31 406.38 1179.22 481.93"/><polygon class="cls-59" points="1132.85 440.86 1132.09 481.83 1134.09 481.83 1132.85 440.86"/><polygon class="cls-65" points="1198.79 402.43 1197.88 399.88 1200.43 399.88 1199.57 402.43 1198.79 402.43"/><polygon class="cls-65" points="1132.46 443.4 1131.54 440.86 1134.09 440.86 1133.23 443.4 1132.46 443.4"/><line class="cls-71" x1="301.98" y1="545.61" x2="1456.52" y2="546.82"/></g><polygon class="cls-72" points="340.44 68.96 352.85 206.02 355.01 206 342.55 68.96 340.44 68.96"/><polygon class="cls-72" points="234.03 68.83 221.18 206.02 219.02 206 231.92 68.83 234.03 68.83"/><path class="cls-73" d="M298.46,124.05c-.19.79-7.29,8.49-3.91,19.38s-4.43,18.73,6.47,22a37,37,0,0,0,20.57.09h4.94s16-.23,20.85-7.08-.78-11.69-1.36-25.74-30.16-33.66-49.26-9.15Z"/><path class="cls-74" d="M311.28,183c0,.26-.07.53-.11.81-.17,1.2-.42,2.64-.72,4.22-1.33,7-3.61,16.4-4.59,17.77-1.25,1.74-5.25.8-5.25.8-1.46-8.55.4-15.89,2.19-19.58.83-1.69.53-3.43.71-4.51s.29-1.6.29-1.6S312.06,176.94,311.28,183Z"/><path class="cls-75" d="M311.17,183.84c-.17,1.2-.66,2.65-1,4.22h.08a25.48,25.48,0,0,1-3.15-.06,22.86,22.86,0,0,1-4.14-.84c.27-1.85.33-3.54.51-4.62a21.94,21.94,0,0,1,3.14,0,10.49,10.49,0,0,1,3,.51A7.36,7.36,0,0,1,311.17,183.84Z"/><path class="cls-76" d="M272.61,205.53l-1.19-5.94,4.7-13.78L274,184.76,268.43,182l3.34-8.87c.57-.09,2.93.87,5.66,2.44,4.26,2.46,8.48,5.67,8.33,9.55C285.46,192.83,272.61,205.53,272.61,205.53Z"/><path class="cls-77" d="M277.3,175.75a59.13,59.13,0,0,1-3.29,8.72l-5.58-2.75,3.34-8.88C272.34,172.76,274.57,174.17,277.3,175.75Z"/><path class="cls-78" d="M262.55,170.18s-2.48,2.42-2.85,2.17S246,170,247.7,168a5,5,0,0,0,.42-.55,3.75,3.75,0,0,0,.47-3.52s12.61-2.41,11.71,0a4.63,4.63,0,0,0,.15,3.66,4,4,0,0,0,.33.56Z"/><path class="cls-75" d="M260.29,167.64c-1.27.93-3.66,1.25-5.57,1.23a16,16,0,0,1-6.41-1.43,3.7,3.7,0,0,0,.46-3.52s12.24-2.35,11.33.07A4.59,4.59,0,0,0,260.29,167.64Z"/><path class="cls-79" d="M227,147.68c1.07,3.13,3.49,5,5,4.57s1.42-3,.66-6.07-2.64-5.17-4.17-4.75C226.38,142,226,144.73,227,147.68Z"/><path class="cls-80" d="M252.14,117.13a70.72,70.72,0,0,0-18.39,2.11,17.64,17.64,0,0,0-4.73,2.21c-3.19,1.94-14.21,9.93-15.07,12.55,0,.13-.08-.12,0,0,1,1.62,14.8,3.34,28.78,4.25,4.92.32,10.87-2.16,16.69-1.71,4,.3,7.77.5,11.26.59,16.44.38,26.34-4.09,26.53-4.92.28-1.24-9.13-5.28-15.3-9.12-6.33-3.94-15.85-5-26.74-5.81Q253.69,117.16,252.14,117.13Z"/><path class="cls-78" d="M284.14,146.36c-.79,3.22-3.22,5.27-5,5s-1.93-2.92-1.46-6,2.26-5.37,4-5.07C284.07,140.65,284.88,143.34,284.14,146.36Z"/><path class="cls-78" d="M278.66,149.65c-.69,11.86-17.54,17.59-22.23,17.7-6.86.16-25.42-6-24.62-24.52,0-.19,0-.38,0-.57h0c.23-8.81-3-16.84-2.12-20.25,2.92-11.82,5-7.21,19-8.54,13.07-1.24,18.64-1.28,26.69,5.45.71.59,3.07,1.27,3.11,3.39.06,3.61.15,6.32.22,8.49A138.74,138.74,0,0,1,278.66,149.65Z"/><path class="cls-75" d="M278.76,130.79a30.4,30.4,0,0,0-14.82-6.95,28.06,28.06,0,0,1-21.53,4.62,35.82,35.82,0,0,0,5.64-4.85,11.14,11.14,0,0,1-5.12,1.29c-1.71,3.29-3.49,6.69-6.42,9a12.6,12.6,0,0,0-2.86,2.47,7.28,7.28,0,0,0-.87,1.9c-.27.78-.49,1.58-.69,2.39-.12.48-.16,1.07-.26,1.62.23-8.81-3-16.84-2.12-20.25,2.92-11.82,5-7.21,19-8.54,13.07-1.24,18.64-1.28,26.69,5.45.71.59,3.07,1.27,3.11,3.39C278.6,125.91,278.69,128.62,278.76,130.79Z"/><path class="cls-81" d="M240,141.54a5.43,5.43,0,0,0,5.57,5.17,5.25,5.25,0,0,0,5.62-5,5.45,5.45,0,0,0-5.58-5.18A5.26,5.26,0,0,0,240,141.54Z"/><path class="cls-82" d="M242.41,145.74a5.22,5.22,0,0,1-2.19-4.2,5,5,0,0,1,5.29-4.86,6.33,6.33,0,0,1,5,2.58,6.18,6.18,0,0,0-6.22-3.1,5,5,0,0,0-4.55,4.43C239.57,142.87,240.86,145.14,242.41,145.74Z"/><path class="cls-83" d="M242.63,140.77a3.2,3.2,0,0,0,2.11,4,3.11,3.11,0,0,0,3.85-2.21,3.21,3.21,0,0,0-2.12-4A3.11,3.11,0,0,0,242.63,140.77Z"/><path class="cls-84" d="M245.74,139.69a.78.78,0,1,0,1.49.43.79.79,0,0,0-.53-1A.78.78,0,0,0,245.74,139.69Z"/><path class="cls-85" d="M247.23,157.1c.82,1,4.93,4,8.33,4,7,0,13-9.63,11.62-9.35-3.49.71-2.32.88-7.85,1.17-1.08.06-2.88.22-4.54.15C248.59,152.78,239.74,148.19,247.23,157.1Z"/><path class="cls-86" d="M255.63,160.71a7.26,7.26,0,0,1-3.9-1.17,4.65,4.65,0,0,1,3-1.9c1.83-.35,4.4.17,5.41,1.58C259.1,160.28,256.92,160.68,255.63,160.71Z"/><path class="cls-84" d="M246.94,152.4a31,31,0,0,0,18.08.25c-1.1,1.63-4.51,3.73-8.89,3.83A11.42,11.42,0,0,1,246.94,152.4Z"/><path class="cls-85" d="M249.22,132.89l-.54-.58a4.67,4.67,0,0,0-4.28-1.47,9,9,0,0,0-5.7,3.66c-.21.29-.36.4-.06.2C240.65,133.29,245.72,131.41,249.22,132.89Z"/><path class="cls-85" d="M262,132.89l.48-.6a4,4,0,0,1,3.68-1.64,6.6,6.6,0,0,1,4.65,3.37c.16.27.28.38,0,.19C269.22,132.9,265,131.27,262,132.89Z"/><path class="cls-87" d="M265.5,116.51s-.55,13.35-20,10.7c0,0,20-10.51-.76-9.41,0,0,4.74,5.81-8.95,5.13,0,0,9.86-1-2.78,11.82,0,0-1.65.88-1.16,8.09,0,.48-3.58-.58-3.76-5.65,0,0-4.93-4.73.25-11.52,0,0-4.89-10,3.82-11.34,0,0,.71-7.54,8.18-8,0,0,7.57-11,16.88-2.81,0,0,7.48-6.07,14.16,3.22,0,0,8.65.35,7.57,7.43,0,0,8.57,4.43,3.54,10.46,0,0,5.74,4.72.49,11.33l-4,7.05v-.82A37,37,0,0,0,275,126l-.25-.48S274.37,120.43,265.5,116.51Z"/><path class="cls-88" d="M284.4,120.63c-7.11-3.95-17.46-4.61-30-4.95a77.53,77.53,0,0,0-23.63,3.38,19.84,19.84,0,0,0-5.14,2.74C222.36,124,214.78,131,214,134c.81-2,10.89-10.11,45.94-9.48,22.89.41,33.66,4.66,37.32,7.69C296.37,130,290.82,124.19,284.4,120.63Z"/><path class="cls-89" d="M297.21,132.36l-.09,0c-2-1.68-10.68-7.19-37.23-7.66-3.09-.06-6.1,0-9,0-27.72.76-36.12,7.58-36.86,9.36a.13.13,0,0,1-.17.08.16.16,0,0,1-.09-.18c.88-3.23,8.7-10.21,11.78-12.29a19.39,19.39,0,0,1,5.17-2.75,78.52,78.52,0,0,1,20.3-3.38c1.14,0,2.27,0,3.37,0,12.14.32,22.77.92,30.05,5,6.4,3.55,12,9.37,12.86,11.66a.16.16,0,0,1,0,.17A.11.11,0,0,1,297.21,132.36Z"/><path class="cls-90" d="M229.47,124.59c2.21-3.12,6-5.13,9.22-6.6a41,41,0,0,1,4.11-1.59,75.29,75.29,0,0,0-12,2.66,19.84,19.84,0,0,0-5.14,2.74C222.36,124,214.78,131,214,134c.5-1.21,4.39-4.67,15.2-7.07A2.46,2.46,0,0,1,229.47,124.59Z"/><path class="cls-90" d="M271.44,117.25a49.21,49.21,0,0,1,7.88,3.56c1.89,1.08,4.14,2.86,3.88,5.51a2.54,2.54,0,0,1-.07.47c7.61,1.58,12,3.7,14.08,5.42-.84-2.2-6.39-8-12.81-11.58-4.28-2.38-9.73-3.56-16.12-4.2A24.43,24.43,0,0,1,271.44,117.25Z"/><path class="cls-88" d="M226.26,120.1s-1.11-11.56,12.4-19.82c14.63-8.94,30.94-2.17,35.73,1.41s9.44,10.88,10,17.64c0,0-19-3.48-27.91-3.41S231.54,117.41,226.26,120.1Z"/><path class="cls-89" d="M254.41,115.81l2.07,0c8.39-.07,25.78,3,27.76,3.38-.66-7-5.47-14-9.94-17.34-3.3-2.46-11.49-6-20.54-5.8a30,30,0,0,0-15,4.4c-12.27,7.49-12.4,17.85-12.34,19.46C231.69,117.31,246,116.05,254.41,115.81Z"/><path class="cls-90" d="M276.52,112.34c-1.72,2.47-4.6,3.34-7.17,3.87-.89.18-1.79.32-2.69.44,8.59,1,17.74,2.68,17.74,2.68-.53-6.25-4.54-13-8.94-16.77C277.42,105.27,278.66,109.28,276.52,112.34Z"/><path class="cls-90" d="M245.44,115.11c-3.26-.71-6.84-1.64-9.62-3.85a7,7,0,0,1-3-6.42c-7.32,7.39-6.56,15.26-6.56,15.26,4.32-2.2,15.84-3.55,24.78-4C249.16,115.83,247.29,115.52,245.44,115.11Z"/><path class="cls-91" d="M256.37,114.13c7.22-.11,26.42,2.62,28.31,4a11.68,11.68,0,0,1,.07,2.86c-.22.47-9.2-3.25-26.52-3.43-22.78-.24-31.55,4.09-32.14,4.19s-.24-2.63,0-3S235.38,114.45,256.37,114.13Z"/><path class="cls-80" d="M284.64,121.14a10.91,10.91,0,0,1-1.88-.39,99.17,99.17,0,0,0-24.53-3.08c-2.08,0-4.14,0-6.12,0-7.37.21-17.8,1.06-25.53,4a2.75,2.75,0,0,1-.47.16h-.05a.33.33,0,0,1-.3-.22,5.54,5.54,0,0,1,.25-3.06c.27-.39,9.1-4.29,30.35-4.6,7.08-.11,26.46,2.6,28.4,4l.05,0v.06a11,11,0,0,1,.06,3A.25.25,0,0,1,284.64,121.14Z"/><path class="cls-92" d="M284.68,118.09c-1.07-.76-7.7-2-14.55-2.85a6.6,6.6,0,0,0,.71.21c6.63,1.69,1.85,2.19-3.26,1.56a102.48,102.48,0,0,0-18.32-.62c-7.86.37-10.31-1.16-4-1.64.46,0,.88-.1,1.26-.17-14,1.1-20.18,3.76-20.4,4.1s-.63,3.14,0,3,9.36-4.43,32.14-4.19c17.32.18,26.3,3.9,26.52,3.43A11.68,11.68,0,0,0,284.68,118.09Z"/><path class="cls-93" d="M232.83,125.06s14.41-3.81,47.21,0C280,125,254.28,119.35,232.83,125.06Z"/><path class="cls-81" d="M271.66,142.35a5.44,5.44,0,0,1-6.22,4.36,5.25,5.25,0,0,1-4.85-5.7,5.44,5.44,0,0,1,6.22-4.36A5.27,5.27,0,0,1,271.66,142.35Z"/><path class="cls-82" d="M268.73,146.19a5.24,5.24,0,0,0,2.73-3.86,5,5,0,0,0-4.54-5.55,6.29,6.29,0,0,0-5.3,1.87,6.13,6.13,0,0,1,6.56-2.22,5,5,0,0,1,3.87,5C271.92,143.74,270.33,145.81,268.73,146.19Z"/><path class="cls-83" d="M269.2,141.23a3.21,3.21,0,0,1-2.64,3.63,3.09,3.09,0,0,1-3.48-2.73,3.21,3.21,0,0,1,2.64-3.63A3.09,3.09,0,0,1,269.2,141.23Z"/><path class="cls-84" d="M266.28,139.73a.77.77,0,1,1-1.53.22.81.81,0,0,1,.66-.9A.78.78,0,0,1,266.28,139.73Z"/><path class="cls-76" d="M242.62,167.86l-4.6,6.78a31.14,31.14,0,0,1-8.84-3.89c-6.14-3.87-10.93-9.31-17.19-13.51-1-.65-2-1.26-3-1.84-.81-.45,3.85-6.6,4.64-6.11,1.08.68,2.17,1.34,3.25,2,4.72,2.77,9.42,5.18,13.58,7.52,4.49,2.52,8.34,4.95,10.92,7.65l.12.12A16.42,16.42,0,0,1,242.62,167.86Z"/><path class="cls-76" d="M216.89,151.26c.29-1.48.39-6.16.83-11.74.07-.89-1.81-.25-2.36.83-1.18,2.32-.82,3.21-1.52,4.36s-1.69.74-2.65-.08c-3.46-5.31-4.88-8.73-6.79-8.52-1.54.41.35,4.39,2.7,8.78-4.15-3.47-7.76-5.9-8.49-4.69-.87,1.44,2.64,4.49,5.59,7.56-4.09-.49-8.19-2.17-8.45,0-.19,1.56,8.26,3.58,7.44,4.85-.29.45-1.11.55-2.39.75-1.11.18-2.78.39-3.38,1s0,1.3,1.31,1.54c2.13.41,7,1.17,9.4,1.37a7.22,7.22,0,0,0,3.86,0"/><path class="cls-76" d="M213.18,145.32c-.24.07-3.49.65-2.52,5.08"/><path class="cls-77" d="M242.62,168.71l-4.6,6.77c-3.34-.86-6.43-3.37-9.05-5a28.62,28.62,0,0,1,2.2-10.71,42,42,0,0,1,10.22,7.53,1.56,1.56,0,0,1-.6.34l.72-.22A14.93,14.93,0,0,1,242.62,168.71Z"/><path class="cls-94" d="M233.52,159.29h0A36.55,36.55,0,0,0,230.41,174h0l9.19,4.61-1.85,29.4a25.4,25.4,0,0,0,19.81,4.5c11.55-2.29,14-4.5,14-4.5s-2.95-19.43-3.15-23c-.07-1.31,3,1,3.34-.6l4.35-11L262,168.39a.39.39,0,0,0-.46.15c-.55.76-2.55,2.91-7.38,2.39-5.84-.63-6.73-4-6.73-4Z"/><path class="cls-95" d="M239.48,184.47s7.87,5.95,28.8,2.48l.42,3.3s-16.55,5-29.49-2.21Z"/><path class="cls-95" d="M239,191.91s9.64,5.58,30.57,2.11l.5,3.55s-18.38,5.2-31.32-2Z"/><path class="cls-76" d="M270,196.29c0-.59,2.45,3.24,3,7s-2.85,6-6,5.51c-2.84-.45-.5-1.8-.06-2a0,0,0,0,0,0,0c-.56,0-3.91-.21-.76-2.58,0,0,0-.09,0-.09-.68-.06-3.84-.44-1.82-2.64a1.67,1.67,0,0,1,.77-.25C271.77,200.48,270,198.91,270,196.29Z"/><path class="cls-78" d="M319.3,170.19c-.37.23-2.75-2.09-2.75-2.09l1.7-2a3.12,3.12,0,0,0,.3-.51,4.44,4.44,0,0,0,.17-3.55c-.88-2.33,11.27,0,11.27,0a3.34,3.34,0,0,0,0,2.44,4.91,4.91,0,0,0,.88,1.48C332.51,168,319.66,170,319.3,170.19Z"/><path class="cls-75" d="M329.76,164.37c-.25.07-.14.2-.35.35-1.82,1.36-4.55,1.77-7.52,1.66a9.67,9.67,0,0,1-3.15-.75,4.44,4.44,0,0,0,.16-3.55c-.87-2.33,11-.25,11-.25A3.33,3.33,0,0,0,329.76,164.37Z"/><path class="cls-76" d="M365.73,151c-6.16,3.41-10.17,8.72-16,12-1.57.87-4.28,2.86-6.18,3.35l-2.35-6.21a19.23,19.23,0,0,1,4.7-4.12c4.41-2.93,10.55-5.73,16.45-9.43C362.92,146.22,366.32,150.71,365.73,151Z"/><path class="cls-76" d="M360,148c-.21-1.08-.28-4.5-.6-8.57-.05-.64,1.32-.18,1.72.61.86,1.69.6,2.34,1.11,3.18s1.23.54,1.93-.06c2.52-3.87,3.56-6.37,4.95-6.22,1.13.31-.26,3.21-2,6.41,3-2.53,5.65-4.31,6.19-3.42.63,1.05-1.93,3.28-4.08,5.51,3-.35,6-1.58,6.16,0,.14,1.14-6,2.61-5.42,3.54.21.33.81.4,1.74.55a5.72,5.72,0,0,1,2.47.71c.47.47,0,.94-1,1.13-1.56.3-5.08.84-6.86,1a5.36,5.36,0,0,1-2.81,0"/><path class="cls-76" d="M362.68,143.68c.18,0,2.55.48,1.84,3.71"/><path class="cls-75" d="M347.89,163.7c-1.57.87-1.8,1.38-3.7,1.87l-3.36-4.94a19.23,19.23,0,0,1,4.7-4.12C346.35,158,347.57,162.83,347.89,163.7Z"/><path class="cls-96" d="M342.86,157.3h0a16,16,0,0,1,2.76,8.34l0,.93-9.13,8.15,2.35,27.54A15.47,15.47,0,0,1,325,210.1c-10.75,0-16.14-5.95-16.14-5.95s2.39-20.89,2.55-23.91a.71.71,0,0,0,0-.15,9.54,9.54,0,0,0-4.65-8.57h0c-.77-.46-.17-1.59.68-1.9l.47-.31a21.57,21.57,0,0,1,9.21-3.43h0s1.46,2.8,6.45,2.26,6.36-3.71,6.36-3.71Z"/><path class="cls-97" d="M311.74,180.08c-.18.32,19.55,4.87,24.8-5.06l7.85,31.89s-17.75,14.49-36.2-.18Z"/><path class="cls-97" d="M315.12,166s1.44,12.46,2.15,16.2l-2.15,2.71-1.74-2.46a91.84,91.84,0,0,1,.16-16Z"/><path class="cls-97" d="M331.29,163.69s-.4,12.9-.63,18.52l2.23,1.33,1.2-2.16s.7-12-1.64-18.34Z"/><path class="cls-96" d="M307.45,169.62c-1.18-.6-6,15-5.18,15.28.38.13,2.13,1.77,4.34,2.26a15.67,15.67,0,0,0,5.48,0s1.26-6-.08-11.2"/><circle class="cls-98" cx="331.87" cy="197.01" r="2.49"/><circle class="cls-98" cx="331.51" cy="188.58" r="2.49"/><circle class="cls-98" cx="337.44" cy="192.75" r="2.49"/><circle class="cls-98" cx="315.12" cy="190.26" r="2.49"/><circle class="cls-98" cx="332.46" cy="205.31" r="2.49"/><circle class="cls-98" cx="323.07" cy="205.73" r="2.49"/><circle class="cls-98" cx="314.5" cy="203.66" r="2.49"/><circle class="cls-98" cx="339.34" cy="198.6" r="2.49"/><circle class="cls-98" cx="318.12" cy="197.01" r="2.49"/><circle class="cls-98" cx="325.62" cy="197.99" r="2.49"/><circle class="cls-98" cx="323.13" cy="190.26" r="2.49"/><circle class="cls-98" cx="327.19" cy="184.46" r="2.49"/><circle class="cls-98" cx="320.58" cy="184.67" r="2.49"/><ellipse class="cls-98" cx="336.49" cy="184.67" rx="2.09" ry="2.49"/><ellipse class="cls-98" cx="311.82" cy="198.22" rx="1.9" ry="2.26"/><ellipse class="cls-98" cx="339.93" cy="203.9" rx="1.9" ry="2.26"/><path class="cls-76" d="M271.09,198A6.82,6.82,0,0,0,271,194c-.33-.88-2.4-1.06-1.64,1.58,1,3.35.91,3.33.91,3.33"/><path class="cls-99" d="M253.27,147.82s.31,1.66,2.79,1.72,2.95-1.72,2.95-1.72A4.26,4.26,0,0,1,253.27,147.82Z"/><path class="cls-100" d="M239.5,173.06l-.32,10.13"/><path class="cls-100" d="M268.46,185.53a25,25,0,0,1,.2-3.57,21.37,21.37,0,0,0,.18-7.48"/><path class="cls-101" d="M275.91,186.08a7.35,7.35,0,0,1,2.87-3.72"/><path class="cls-77" d="M280.46,141.75a1.22,1.22,0,0,1,1.45-.43,1.47,1.47,0,0,1,.65,1,7,7,0,0,1-.12,3.45,5,5,0,0,1-2.15,3.48.59.59,0,0,1-.36.09c-.28-.06-.34-.42-.34-.71v-1.18a1.46,1.46,0,0,1,.14-.75,1.86,1.86,0,0,1,.56-.48,1.79,1.79,0,0,0,.83-1,.91.91,0,0,0-.33-.91c-.27-.18-.79.05-1-.18S280.18,142.1,280.46,141.75Z"/><path class="cls-102" d="M358.47,64.9l-6.12-.27-21.83-.92-21-.88-49.12-2.09-21.17-.88-25.65-1.1-2.59-.1s-241.78-272-222.56-408c10.37-73.32,45.34-111.44,75.36-131l.1-.07c25.64-16.67,47.64-19.85,47.64-19.85a151.94,151.94,0,0,1,22.31-11.87h0c31.62-13.6,58.63-11.83,72.6-9.32A67.58,67.58,0,0,1,216.71-519c76.71-33.94,125-3.27,133.34,2.75.87.64,1.3,1,1.3,1,34.66-11.73,65.78-5.79,85.54,1.08A114.82,114.82,0,0,1,459.05-504c21,7.81,38.53,17.23,53.16,27.92v0s.08.05.1.09C710.32-329.94,358.47,64.9,358.47,64.9Z"/><path class="cls-103" d="M364.89-339.31c0,157.18-26.13,335.47-55.33,402.14l-49.12-2.09c-24-55-42.8-182.15-57-329.14-11.54-119.19-7.9-199.38,3.1-253A67.58,67.58,0,0,1,216.71-519c76.71-33.94,125-3.27,133.34,2.75C359.15-471.62,364.89-413,364.89-339.31Z"/><path class="cls-103" d="M352.35,64.63l-21.83-.92C544.29-284.62,482.86-484,441.44-512.46l70.77,36.39v0s-35.93-20.26-35.92-20.22C682.25-351.79,411.13-6.38,352.35,64.63Z"/><path class="cls-103" d="M239.27,59.86l-25.65-1.1c-67-82.2-306.13-398-149.79-539.09l.1-.07c25.64-16.67,47.64-19.85,47.64-19.85,7.61-4.88-3.15.57,4.08-2.53C90.11-455.82,35.66-277.86,239.27,59.86Z"/><ellipse class="cls-104" cx="287.76" cy="60.54" rx="75.92" ry="13.23"/><path class="cls-101" d="M267,206.71a27,27,0,0,0,4.46-1.17"/><path class="cls-105" d="M348.2,279.12h0c-39.62,3.54-75.19,4.31-116.78,1.08h0c-11.64-1.94-19.94-7.95-20.75-15l-5.54-48.76h163l-4.55,51C363.1,272.84,357,277.49,348.2,279.12Z"/><rect class="cls-106" x="217.7" y="223.68" width="16.16" height="2.83" rx="1.42"/><rect class="cls-106" x="217.7" y="232.55" width="16.16" height="2.83" rx="1.42"/><rect class="cls-106" x="217.7" y="241.43" width="16.16" height="2.83" rx="1.42"/><rect class="cls-106" x="217.7" y="250.3" width="16.16" height="2.83" rx="1.42"/><rect class="cls-106" x="217.7" y="259.18" width="16.16" height="2.83" rx="1.42"/><rect class="cls-106" x="217.7" y="268.06" width="16.16" height="2.83" rx="1.42"/><rect class="cls-106" x="241.95" y="223.68" width="16.16" height="2.83" rx="1.42"/><rect class="cls-106" x="241.95" y="232.55" width="16.16" height="2.83" rx="1.42"/><rect class="cls-106" x="241.95" y="241.43" width="16.16" height="2.83" rx="1.42"/><rect class="cls-106" x="241.95" y="250.3" width="16.16" height="2.83" rx="1.42"/><rect class="cls-106" x="241.95" y="259.18" width="16.16" height="2.83" rx="1.42"/><rect class="cls-106" x="241.95" y="268.06" width="16.16" height="2.83" rx="1.42"/><rect class="cls-106" x="266.19" y="223.68" width="16.16" height="2.83" rx="1.42"/><rect class="cls-106" x="266.19" y="232.55" width="16.16" height="2.83" rx="1.42"/><rect class="cls-106" x="266.19" y="241.43" width="16.16" height="2.83" rx="1.42"/><rect class="cls-106" x="266.19" y="250.3" width="16.16" height="2.83" rx="1.42"/><rect class="cls-106" x="266.19" y="259.18" width="16.16" height="2.83" rx="1.42"/><rect class="cls-106" x="266.19" y="268.06" width="16.16" height="2.83" rx="1.42"/><rect class="cls-106" x="290.44" y="223.68" width="16.16" height="2.83" rx="1.42"/><rect class="cls-106" x="290.44" y="232.55" width="16.16" height="2.83" rx="1.42"/><rect class="cls-106" x="290.44" y="241.43" width="16.16" height="2.83" rx="1.42"/><rect class="cls-106" x="290.44" y="250.3" width="16.16" height="2.83" rx="1.42"/><rect class="cls-106" x="290.44" y="259.18" width="16.16" height="2.83" rx="1.42"/><rect class="cls-106" x="290.44" y="268.06" width="16.16" height="2.83" rx="1.42"/><rect class="cls-106" x="314.84" y="223.68" width="16.16" height="2.83" rx="1.42"/><rect class="cls-106" x="314.84" y="232.55" width="16.16" height="2.83" rx="1.42"/><rect class="cls-106" x="314.84" y="241.43" width="16.16" height="2.83" rx="1.42"/><rect class="cls-106" x="314.84" y="250.3" width="16.16" height="2.83" rx="1.42"/><rect class="cls-106" x="314.84" y="259.18" width="16.16" height="2.83" rx="1.42"/><rect class="cls-106" x="314.84" y="268.06" width="16.16" height="2.83" rx="1.42"/><rect class="cls-106" x="339.24" y="223.68" width="16.16" height="2.83" rx="1.42"/><rect class="cls-106" x="339.24" y="232.55" width="16.16" height="2.83" rx="1.42"/><rect class="cls-106" x="339.24" y="241.43" width="16.16" height="2.83" rx="1.42"/><rect class="cls-106" x="339.24" y="250.3" width="16.16" height="2.83" rx="1.42"/><rect class="cls-106" x="339.24" y="259.18" width="16.16" height="2.83" rx="1.42"/><rect class="cls-106" x="339.24" y="268.06" width="16.16" height="2.83" rx="1.42"/><rect class="cls-107" x="191.6" y="206.42" width="190.99" height="12.74" rx="6.37"/><rect class="cls-31" x="195.99" y="207.21" width="180.45" height="6.37" rx="3.19"/><path class="cls-108" d="M355.72,60.69c0,6-30.38,10.85-67.86,10.85S220,66.69,220,60.69c0-5.35,24.29-9.8,56.22-10.68,3.78-.11,7.67-.16,11.65-.16,1.59,0,3.16,0,4.73,0C327.86,50.26,355.72,55,355.72,60.69Z"/><path class="cls-101" d="M266.21,204a19.52,19.52,0,0,0,5.51-1.56"/><path class="cls-77" d="M230.07,143.11a1.38,1.38,0,0,0-1.61-.26,1.55,1.55,0,0,0-.58,1.08,6.76,6.76,0,0,0,.53,3.48,5,5,0,0,0,2.71,3.27.62.62,0,0,0,.4,0c.29-.1.32-.48.28-.77l-.14-1.2a1.47,1.47,0,0,0-.23-.74,2,2,0,0,0-.67-.42,1.9,1.9,0,0,1-1-.93.91.91,0,0,1,.25-1c.27-.21.85,0,1-.3C231.34,145,230.4,143.43,230.07,143.11Z"/><path class="cls-109" d="M340.77,125.58c.55,4.46,1.57,16.32.91,21.72C340.2,159.44,327,163.79,324.4,164c-4.11.29-13.26-.3-18.32-6.38s-6.5-17.61-6.5-17.61-4.55-11.24,2.36-20.73,15.38-10.92,25-9.24C338.68,112.05,340.77,125.58,340.77,125.58Z"/><path class="cls-110" d="M312.56,131.25s-4.19,0-5.71,3c-.06.12-.25.1-.26,0-.07-.83.1-2.6,2.56-3.5C313,129.28,312.56,131.25,312.56,131.25Z"/><path class="cls-110" d="M328.63,130.24s4.12-1,6.34,1.57c.09.1.27,0,.25-.09-.13-.83-.72-2.51-3.35-2.81C327.71,128.44,328.63,130.24,328.63,130.24Z"/><path class="cls-111" d="M306.28,138.85a4.59,4.59,0,0,1,2.08-3,7.5,7.5,0,0,1,3.43-1.07,4.72,4.72,0,0,1,2.33.26,3.86,3.86,0,0,1,1.53,1.31,4.94,4.94,0,0,1,.61,4.84,3,3,0,0,1-4,1.48,7.85,7.85,0,0,1-1.21-1,2.69,2.69,0,0,0-1.34-.75,1.15,1.15,0,0,0-1.24.72c-.14.45.13,1.22-.24,1.55s-.78,0-1.05-.23C306.34,142.06,306.09,140,306.28,138.85Z"/><path class="cls-112" d="M316.44,140.16c.18,2.52-1.84,4-4.61,4.23a6.12,6.12,0,0,1-2.42-.27,3.45,3.45,0,0,1-2.35-3.23,4.42,4.42,0,0,1,1.06-3,5.69,5.69,0,0,1,3.95-2.12C314.83,135.53,316.27,137.7,316.44,140.16Z"/><circle class="cls-110" cx="311.72" cy="140.1" r="2.66"/><circle class="cls-113" cx="313.09" cy="139.15" r="0.82"/><path class="cls-111" d="M325.64,137.67a4.64,4.64,0,0,1,2.08-3.06,7.61,7.61,0,0,1,3.43-1.06,4.61,4.61,0,0,1,2.33.26,3.86,3.86,0,0,1,1.53,1.31,4.94,4.94,0,0,1,.61,4.84,3,3,0,0,1-4,1.48,7.85,7.85,0,0,1-1.21-1,2.69,2.69,0,0,0-1.34-.75,1.13,1.13,0,0,0-1.24.72c-.14.44.13,1.22-.24,1.55s-.78,0-1.05-.23C325.7,140.88,325.45,138.81,325.64,137.67Z"/><path class="cls-112" d="M335.8,139c.18,2.52-1.84,4-4.61,4.22a5.78,5.78,0,0,1-2.42-.27,3.44,3.44,0,0,1-2.35-3.23,4.46,4.46,0,0,1,1.06-3,5.69,5.69,0,0,1,3.95-2.12C334.19,134.35,335.63,136.52,335.8,139Z"/><circle class="cls-110" cx="331.07" cy="138.72" r="2.66"/><circle class="cls-113" cx="332.45" cy="137.97" r="0.82"/><path class="cls-111" d="M314.93,152a6,6,0,0,1-.93-.41,2.27,2.27,0,0,0-1-.17c-.44,0-.94.27-1,.68s.28.59.59.75a2.8,2.8,0,0,0,1.76.25.86.86,0,0,0,.65-.38c.11-.22-.11-.55-.36-.47Z"/><path class="cls-111" d="M329.3,150.41a3.59,3.59,0,0,1,.6-.7,1.48,1.48,0,0,1,.53-.31,1,1,0,0,1,1.05.46,1.15,1.15,0,0,1-.07,1.12,2.18,2.18,0,0,1-.93.79,1.7,1.7,0,0,1-.8.21.73.73,0,0,1-.65-.42.67.67,0,0,1,.25-.71,2.36,2.36,0,0,1,.74-.38Z"/><path class="cls-114" d="M313.84,152.43s-.6-.53.35-.37a20.53,20.53,0,0,0,9.74.56,17.34,17.34,0,0,0,6.4-2.46.16.16,0,0,1,.25.14,10.34,10.34,0,0,1-4.39,6.62,7.12,7.12,0,0,1-5.79.66C318.4,156.86,316.56,155.7,313.84,152.43Z"/><path class="cls-113" d="M315.9,152.91a15.79,15.79,0,0,0,12.78-1.44s-.66,2.57-5,3.5A8.23,8.23,0,0,1,315.9,152.91Z"/><path class="cls-86" d="M323.32,157.37a4.68,4.68,0,0,1-2.9-.54c.4-.58.86-.72,1.75-1.06a5.58,5.58,0,0,1,3.94.46C325.49,156.89,324.76,157.09,323.32,157.37Z"/><path class="cls-115" d="M319,147.33c1.5,1.7,4.07,1.77,5.18-.32"/><path class="cls-116" d="M319,147.33a5.5,5.5,0,0,0,2.7.76,3.81,3.81,0,0,0,2.48-1.08,2.26,2.26,0,0,1-.8,1.46,2.64,2.64,0,0,1-1.66.62A2.86,2.86,0,0,1,319,147.33Z"/><path class="cls-73" d="M326.23,120.81s-1.3,4.47-7.83,7.37a5.52,5.52,0,0,0,1-6s0,7.6-9,8.14l2.28-5.86L306,133.14l.38-6.25s-8.3,19.54-11.13,20c0,0-7.51-20.6,7.56-34.39s33.79-1.64,33.79-1.64,14,11,8.56,29.49c0,0-4.26,1.35-4.93.49s-.1-3.29-2.89-9.55A20.56,20.56,0,0,0,326.23,120.81Z"/><path class="cls-115" d="M300.66,142.07c0-.07.13.08,0,.1s-.15-.08-.19-.15a5.61,5.61,0,0,0-1.94-2.2,2.82,2.82,0,0,0-2-.55,2.4,2.4,0,0,0-1.63,2.16,7.21,7.21,0,0,0,.78,4.4,7.6,7.6,0,0,0,6.94,4.1"/><path class="cls-117" d="M300.66,142.07c0-.06.13,0,.07.1a.15.15,0,0,1-.19,0c-.09-.1-.13-.2-.2-.29a6.55,6.55,0,0,0-.39-.53,6.15,6.15,0,0,0-1-.88,3.34,3.34,0,0,0-2.22-.81,1.76,1.76,0,0,0-1.33,1.53,6.17,6.17,0,0,0,0,2.46,7.88,7.88,0,0,0,7.18,6.31,6.43,6.43,0,0,1-2.72-.14,7.88,7.88,0,0,1-2.49-1.25,8.1,8.1,0,0,1-1.92-2.08,8,8,0,0,1-1-2.65,7,7,0,0,1,.06-2.88,3.48,3.48,0,0,1,.72-1.37,2.13,2.13,0,0,1,1.45-.7,3.6,3.6,0,0,1,2.61,1.22,6,6,0,0,1,.86,1.09,5.07,5.07,0,0,1,.32.61,2.85,2.85,0,0,0,.12.31.09.09,0,0,0,.11,0S300.71,142,300.66,142.07Z"/><path class="cls-111" d="M298,142.71a8.86,8.86,0,0,1,.83.91c.2.26.39.63.18.88s-.54.19-.68.42,0,.56.29.69.54.14.8.25a1.12,1.12,0,0,1,.64.91.75.75,0,0,1-.06.39.76.76,0,0,1-.9.3,2.16,2.16,0,0,1-.83-.61A7.82,7.82,0,0,1,296.9,145C296.38,143.93,296.05,140.86,298,142.71Z"/><path class="cls-118" d="M301.15,148.38s2,3.33,0,4.12-1.73-3.17-1.73-3.17.85,3.23,1.29,1.14Z"/><path class="cls-115" d="M341.13,137.89c-.05-.07-.11.1,0,.1s.14-.1.17-.17a5.5,5.5,0,0,1,1.61-2.45,2.7,2.7,0,0,1,1.94-.83,2.39,2.39,0,0,1,1.92,1.9,7.28,7.28,0,0,1-.15,4.47,7.6,7.6,0,0,1-6.29,5"/><path class="cls-117" d="M341.13,137.89c-.06,0-.07.08,0,.08s.08,0,.1-.07a3,3,0,0,0,.08-.32,5,5,0,0,1,.23-.65,5.81,5.81,0,0,1,.69-1.21,3.62,3.62,0,0,1,2.41-1.57,2.1,2.1,0,0,1,1.54.49,3.3,3.3,0,0,1,.9,1.25,6.82,6.82,0,0,1,.47,2.84,7.78,7.78,0,0,1-4.53,6.69,6.45,6.45,0,0,1-2.68.53,7.9,7.9,0,0,0,6.22-7.26,6.21,6.21,0,0,0-.35-2.44,1.77,1.77,0,0,0-1.54-1.33,3.3,3.3,0,0,0-2.08,1.12,5.33,5.33,0,0,0-.82,1,5.39,5.39,0,0,0-.32.58,3.07,3.07,0,0,1-.16.31.14.14,0,0,1-.18.06C341,138,341.08,137.83,341.13,137.89Z"/><path class="cls-111" d="M343.84,138.15a7.93,7.93,0,0,0-.69,1c-.16.28-.3.67-.06.89s.56.12.74.33,0,.55-.19.71-.52.22-.76.37a1.13,1.13,0,0,0-.51,1,.85.85,0,0,0,.12.39.77.77,0,0,0,.94.16,2.1,2.1,0,0,0,.73-.72,7.83,7.83,0,0,0,1.1-2C345.62,139.13,345.52,136,343.84,138.15Z"/><path class="cls-118" d="M341.54,144.2s-1.52,3.58.58,4.08,1.27-3.38,1.27-3.38-.39,3.32-1.12,1.31Z"/><path class="cls-119" d="M297.89,139.4s-3.77-13.83,6.55-24.59,26.34-6.26,32.16,1.18c7.93,10.15,5.49,20.46,5.49,20.46"/><path class="cls-120" d="M301.6,116.56s-.89-12.39,3.88-8,6.25,9.69-2.5,10.46c-1.53.13-2.23.6-2.6,2.07-.84,3.32-1.67,15.65-9.6,2.42-5.33-8.87,8.65-3.63,8.65-3.63S297.36,116,301.6,116.56Z"/><ellipse class="cls-121" cx="291.96" cy="120.91" rx="0.83" ry="0.96" transform="translate(-16.62 52.8) rotate(-10.05)"/><ellipse class="cls-121" cx="298.16" cy="124.11" rx="0.83" ry="0.96" transform="translate(-17.08 53.93) rotate(-10.05)"/><ellipse class="cls-121" cx="304.87" cy="113.43" rx="0.83" ry="0.96" transform="translate(-15.12 54.94) rotate(-10.05)"/><ellipse class="cls-121" cx="307.37" cy="114.15" rx="0.83" ry="0.96" transform="translate(-15.2 55.39) rotate(-10.05)"/><ellipse class="cls-121" cx="306.61" cy="111.32" rx="0.83" ry="0.96" transform="translate(-14.72 55.21) rotate(-10.05)"/><ellipse class="cls-121" cx="304.95" cy="109.56" rx="0.83" ry="0.96" transform="translate(-14.44 54.89) rotate(-10.05)"/><ellipse class="cls-121" cx="306.26" cy="116.96" rx="0.83" ry="0.96" transform="translate(-15.71 55.24) rotate(-10.05)"/><ellipse class="cls-121" cx="303.06" cy="109.69" rx="0.83" ry="0.96" transform="translate(-14.49 54.57) rotate(-10.05)"/><ellipse class="cls-121" cx="302.6" cy="113.59" rx="0.83" ry="0.96" transform="matrix(0.98, -0.17, 0.17, 0.98, -15.18, 54.55)"/><ellipse class="cls-121" cx="304.17" cy="116.72" rx="0.83" ry="0.96" transform="translate(-15.7 54.87) rotate(-10.05)"/><ellipse class="cls-121" cx="294.67" cy="119.75" rx="0.83" ry="0.96" transform="translate(-16.38 53.26) rotate(-10.05)"/><ellipse class="cls-121" cx="295.12" cy="126.08" rx="0.83" ry="0.96" transform="translate(-17.47 53.43) rotate(-10.05)"/><ellipse class="cls-121" cx="292.68" cy="124.5" rx="0.83" ry="0.96" transform="translate(-17.23 52.98) rotate(-10.05)"/><ellipse class="cls-121" cx="295.23" cy="122.89" rx="0.83" ry="0.96" transform="translate(-16.91 53.4) rotate(-10.05)"/><ellipse class="cls-121" cx="297.24" cy="127.7" rx="0.83" ry="0.96" transform="translate(-17.72 53.83) rotate(-10.05)"/><ellipse class="cls-121" cx="297.59" cy="120.88" rx="0.83" ry="0.96" transform="translate(-16.53 53.78) rotate(-10.05)"/><polygon class="cls-72" points="352.42 58.49 366.67 206.51 369.3 206.51 354.5 58.49 352.42 58.49"/><polygon class="cls-72" points="219.99 58.34 205.75 206.35 203.11 206.35 217.91 58.34 219.99 58.34"/><path class="cls-122" d="M292.4,52.13a.42.42,0,0,1,.75.38c-1.13,3.12-3.06,7.45-5,8s-4.19.4-6,1.37a10.46,10.46,0,0,0-3.24,3.28c.41-2.08.6-4.73-1.22-5.84-3.15-1.93-5.93-13.39-.89-7.31,3.12,2.54,1.44-1.88,5.42-1.88,1.59,0,6.36,0,7.92,0-.11.79-1.18,5.07-1.44,5.83a3,3,0,0,1-1.94,1.9C288.61,57.92,290.73,54.57,292.4,52.13Z"/><path class="cls-123" d="M288.6,53.93a.26.26,0,0,1,.46.23c-.69,1.92-1.88,4.57-3.06,4.92s-2.56.24-3.68.83a6.34,6.34,0,0,0-2,2c.25-1.27.36-2.89-.75-3.57-1.93-1.18-4.83-9.16-.7-3.48,1.92,1.55,3.83-4,6.26-4h1c1.44.58.37,5,.21,5.42a1.83,1.83,0,0,1-1.19,1.16C286.28,57.48,287.58,55.43,288.6,53.93Z"/><path class="cls-124" d="M305.75,71.51c-1.27-.87-12.29-6.87-12.58-7a2.38,2.38,0,0,1,.5-.19l.56-.66c.24.06,12.22,6.84,13.44,7.68Z"/><path class="cls-124" d="M264.71,71.08l-1.9-.12c1-.69,11.58-7.65,11.84-7.73l1.9.35c.08,0-.48.09-.48.09C275.81,63.85,265.75,70.33,264.71,71.08Z"/><path class="cls-125" d="M272.42,58.35v5.43h23.69V57.93a16.21,16.21,0,0,0-5.18-.93,84.18,84.18,0,0,0-15.53.29S273.12,57.43,272.42,58.35Z"/><ellipse class="cls-126" cx="284.26" cy="63.23" rx="11.85" ry="2.35"/><path class="cls-126" d="M295.5,60.88c.38,0,41.1-6.8,43-7.3"/><path class="cls-124" d="M295.5,61.48v-.6l-.05-.6c.26,0,39.86-6.57,41.93-7.13l2.26.64C338.37,54.13,296.24,61.48,295.5,61.48Z"/><path class="cls-126" d="M273.46,60.31c-.38,0-35.48-5.23-39.7-5.29"/><path class="cls-124" d="M273.46,60.91c-.12,0-.5,0-5.45-.76-10.09-1.46-32.8-5.08-36-5.13l2.56-.72c3.25.05,23.47,3.2,33.59,4.65l5.3.76Z"/><path class="cls-74" d="M300.61,205.08c-1.12.27-3.53,1.61-3.71,3.18s.29,4.25,2.32,3.58,1.26-3.72,1.92-2.85c.86,1.1,4.49.49,4.56,0a2,2,0,0,0,2.66.25s1-1.07-.55-1.25-1.86-3-3.52-2.68"/><path class="cls-74" d="M302.94,207.81s.23,3.92,1.84,4.34c1.06.28,1.07-3.36.44-4.74"/><path class="cls-74" d="M298.46,208.26c0,.13-.33,4.56,1.54,3.45s.57-3.45.57-3.45"/><path class="cls-74" d="M302.54,208a2.68,2.68,0,0,0-.67,2.06c.09,1.35-.36,2.46-1.12,2.33s-1.21-1.21-.9-4.39"/></g><g class="cls-127"><g class="cls-128"><g id="BG-2" data-name="BG"><rect class="cls-129" x="1092" y="-106" width="1721.08" height="693"/><polygon class="cls-30" points="1132 541 2775 541 2758 706 1125 686.18 1132 541"/><path class="cls-31" d="M1125,650s930,6.84,1121,35.16,530.94,2.93,551,10.74-46,153.32-46,153.32l-1626,9.19V650Z"/><path class="cls-32" d="M1121,706s930,5.32,1121,27.37,530.94,2.28,551,8.36-46,119.37-46,119.37l-1626,7.15V706Z"/><path class="cls-33" d="M1706,577.33H926l35.22-106.51s92.18-.18,145,31.93,105.65,22.79,124.29,4.14,43.87-29.67,68.55-36.07,60.83,1.48,103.39,23.65c49.72,25.89,58,33.14,101.51,35.21S1706,577.33,1706,577.33Z"/><path class="cls-34" d="M1622.05,573.26H926l31.43-66.14S1039.7,507,1086.84,527s94.29,14.15,110.92,2.57,39.15-18.43,61.17-22.4,54.3.91,92.28,14.68c44.37,16.08,51.76,20.58,90.59,21.87S1622.05,573.26,1622.05,573.26Z"/><path class="cls-35" d="M1706,580.44H926l35.22,22.33s92.18,0,145-6.69,105.65-4.78,124.29-.87,43.87,6.22,68.55,7.56,60.83-.31,103.39-5c49.72-5.43,58-6.95,101.51-7.38S1706,580.44,1706,580.44Z"/><path class="cls-49" d="M1114.29,615s749.47,1.85,822.49,4,818.83,17.58,838.22,16.35V642s-790.28-16.51-807.55-16.51c-13.11,0-836-5.55-853.16-6.48S1114.29,615,1114.29,615Z"/><path class="cls-50" d="M3014.34,678.6s-343.61-8.52-646.23-13.13C2143,662,1939,647.94,1896.86,647.9c-99.3-.1-824.86-7.9-824.86-7.9s759.44,15.2,782.89,16c17.81.58,1135.92,29,1159.25,28.47S3014.34,678.6,3014.34,678.6Z"/><path class="cls-51" d="M1078.14,660.27s296.22-.89,649.75,13.43c87.57,3.55,216.63,1.74,253.87,7.22,11.18,1.64-893.9-11-892.8-7.67,3.57,10.7,922.76,11.63,931.15,12,28.15,1.42,52.5,4.53,74,5.57,43.92,2.12,74.28,3.34,92.11,3.17,116.34-1.08,717.68,3.55,712-5.12,0,0-434.77-3.25-462.23-4.28-20.85-.78-1330.17-35.75-1357.52-34.44S1078.14,660.27,1078.14,660.27Z"/></g></g></g><g class="cls-130"><g class="cls-131"><g id="Slide_12" data-name="Slide 12"><rect class="cls-132" x="-1460" y="615.44" width="1600" height="767.64"/><path class="cls-133" d="M-151.08,748.23s59.71-62,150.24-44.32,76.52,69.52,32.66,72.67-129.71,3.74-148.37,0S-157.61,773.83-151.08,748.23Z"/></g></g></g><g class="cls-134"><g class="cls-135"><rect class="cls-136" x="1133.94" y="650" width="1613.65" height="777.16"/></g></g><g class="cls-137"><g class="cls-138"><rect class="cls-139" x="-2763.97" y="506.31" width="3239.51" height="1468.15"/></g></g><g class="cls-140"><g class="cls-141"><g id="Slide_12-2" data-name="Slide 12"><rect class="cls-142" y="560" width="1600" height="767.64"/><path class="cls-143" d="M345.12,715.13s64.31-42.07,139.35-29.89c69.67,34.31,28.14,68.81-40.2,64.85-72.35-4-99.15-6.18-99.15-6.18S298.83,736.26,345.12,715.13Z"/><path class="cls-144" d="M-9.44,724.22c5-4.31,68.36-33.13,125.65-10.13,8.91,37.89-81.78,26.13-104.82,25.7S-9.44,724.22-9.44,724.22Z"/><path class="cls-145" d="M-157.3,886.25c.76-2.27-67.62-55.22-25.14-126.57,0,0,44.17-119.78,220.86-81.55,0,0,180.94,27.18,269.28,153.75,0,0,16.55,16.94,4.3,26.13s-73.5,24.5-73.5,24.5L60.89,885.57Z"/><path class="cls-146" d="M-156.58,887.79c.75-2.27-67.62-55.22-25.15-126.57,0,0,44.17-119.78,220.86-81.55,0,0,180.94,27.18,269.29,153.75,0,0,16.54,16.94,4.29,26.13s-73.49,24.5-73.49,24.5L61.6,887.11Z"/></g></g></g></g></g></svg>