<svg id="Layer_2" data-name="Layer 2" xmlns="http://www.w3.org/2000/svg" viewBox="0 0 1280 720"><defs><style>.cls-1{fill:#00aff2;}.cls-2{opacity:0.06;}.cls-3{fill:#fff;}.cls-4,.cls-6{fill:#ff0;}.cls-4{isolation:isolate;}.cls-5{fill:#0267ff;}.cls-7{opacity:0.5;}.cls-8{fill:#ffa63b;}.cls-9{fill:#fdffa9;}.cls-10{fill:#e5e157;}.cls-11{fill:#e5e51c;}.cls-12{fill:#721c45;}.cls-13{fill:#ef8934;}.cls-14{fill:#ffa9a9;}.cls-15,.cls-16,.cls-17{fill:none;stroke:#000;stroke-miterlimit:10;stroke-width:2px;}.cls-16{stroke-dasharray:11.84 11.84;}.cls-17{stroke-dasharray:11.91 11.91;}</style></defs><rect class="cls-1" y="0.01" width="1280" height="719.97"/><g class="cls-2"><rect class="cls-3" x="593.61" y="41.42" width="21.57" height="6.35"/><rect class="cls-3" x="634.4" y="41.42" width="21.57" height="6.35"/><rect class="cls-3" x="621.73" y="12.21" width="6.12" height="22.39"/><rect class="cls-3" x="621.73" y="54.58" width="6.12" height="22.39"/><rect class="cls-3" x="546.15" y="227.96" width="6.12" height="17.12"/><rect class="cls-3" x="546.15" y="266.29" width="6.12" height="17.12"/><rect class="cls-3" x="559.42" y="252.51" width="16.48" height="6.35"/><polygon class="cls-3" points="538.99 258.86 538.99 252.51 525.45 252.51 524.74 252.51 523.22 252.51 523.22 258.86 524.74 258.86 525.45 258.86 538.99 258.86"/><rect class="cls-3" x="781.4" y="2.87" width="6.12" height="9.55"/><rect class="cls-3" x="661.42" y="241.88" width="6.12" height="9.55"/><rect class="cls-3" x="661.42" y="216.32" width="6.12" height="9.55"/><rect class="cls-3" x="647.57" y="230.7" width="9.2" height="6.35"/><rect class="cls-3" x="672.19" y="230.7" width="9.2" height="6.35"/><rect class="cls-3" x="798.24" y="243.49" width="9.2" height="6.35"/><rect class="cls-3" x="813.56" y="243.49" width="9.2" height="6.35"/><rect class="cls-3" x="807.44" y="249.84" width="6.12" height="9.55"/><rect class="cls-3" x="807.44" y="233.93" width="6.12" height="9.55"/><rect class="cls-3" x="532.4" y="110.49" width="6.12" height="6.35"/><rect class="cls-3" x="544.63" y="110.49" width="6.12" height="6.35"/><rect class="cls-3" x="538.52" y="116.84" width="6.12" height="6.35"/><rect class="cls-3" x="538.52" y="104.14" width="6.12" height="6.35"/><rect class="cls-3" x="533.95" y="24.29" width="15.26" height="6.35"/><rect class="cls-3" x="730.09" y="177.19" width="15.26" height="6.35"/><rect class="cls-3" x="769.2" y="177.19" width="15.26" height="6.35"/><rect class="cls-3" x="754.55" y="152.14" width="6.12" height="15.85"/><rect class="cls-3" x="754.55" y="192.75" width="6.12" height="15.85"/><rect class="cls-3" x="877.36" y="140.43" width="6.12" height="22.39"/><rect class="cls-3" x="877.36" y="169.17" width="6.12" height="22.39"/><rect class="cls-3" x="855.8" y="162.82" width="21.57" height="6.35"/><polygon class="cls-3" points="902.7 169.17 905.04 169.17 905.04 162.82 902.7 162.82 883.48 162.82 883.48 169.17 902.7 169.17"/><rect class="cls-3" x="825.82" y="88.17" width="6.12" height="6.35"/><rect class="cls-3" x="825.82" y="69.12" width="6.12" height="6.35"/><rect class="cls-3" x="816.64" y="78.64" width="6.12" height="6.35"/><rect class="cls-3" x="834.99" y="78.64" width="6.12" height="6.35"/><rect class="cls-3" x="872.79" y="24.29" width="15.26" height="6.35"/><rect class="cls-3" x="607.59" y="148.45" width="17.06" height="6.35"/><rect class="cls-3" x="636.88" y="148.45" width="17.06" height="6.35"/><rect class="cls-3" x="627.71" y="127.56" width="6.12" height="17.71"/><rect class="cls-3" x="627.71" y="157.98" width="6.12" height="17.71"/><rect class="cls-3" x="725.31" y="53.07" width="6.12" height="22.39"/><rect class="cls-3" x="725.31" y="81.82" width="6.12" height="22.39"/><rect class="cls-3" x="703.74" y="75.47" width="21.57" height="6.35"/><rect class="cls-3" x="731.42" y="75.47" width="21.57" height="6.35"/><rect class="cls-3" x="857.15" y="282.34" width="6.12" height="22.39"/><polygon class="cls-3" points="639.97 326.71 630.76 326.71 630.76 328.29 630.76 333.06 639.97 333.06 639.97 328.29 639.97 326.71"/><rect class="cls-3" x="639.97" y="317.15" width="6.12" height="9.55"/><rect class="cls-3" x="690.55" y="304.29" width="17.06" height="6.35"/><rect class="cls-3" x="719.84" y="304.29" width="17.06" height="6.35"/><rect class="cls-3" x="710.66" y="283.4" width="6.12" height="17.71"/><polygon class="cls-3" points="710.66 328.29 710.66 331.53 716.78 331.53 716.78 328.29 716.78 313.82 710.66 313.82 710.66 328.29"/><rect class="cls-3" x="971.56" y="41.42" width="21.56" height="6.35"/><rect class="cls-3" x="1012.35" y="41.42" width="21.56" height="6.35"/><rect class="cls-3" x="999.68" y="12.21" width="6.12" height="22.39"/><rect class="cls-3" x="999.68" y="54.58" width="6.12" height="22.39"/><rect class="cls-3" x="940.11" y="215.77" width="6.12" height="17.12"/><rect class="cls-3" x="940.11" y="254.09" width="6.12" height="17.12"/><rect class="cls-3" x="953.38" y="240.31" width="16.48" height="6.35"/><polygon class="cls-3" points="916.47 240.31 916.47 246.66 918.7 246.66 932.95 246.66 932.95 240.31 918.7 240.31 916.47 240.31"/><rect class="cls-3" x="1159.35" y="2.87" width="6.12" height="9.55"/><rect class="cls-3" x="1039.38" y="241.88" width="6.12" height="9.55"/><rect class="cls-3" x="1039.38" y="216.32" width="6.12" height="9.55"/><rect class="cls-3" x="1025.52" y="230.7" width="9.2" height="6.35"/><rect class="cls-3" x="1050.14" y="230.7" width="9.2" height="6.35"/><rect class="cls-3" x="1176.19" y="243.49" width="9.2" height="6.35"/><rect class="cls-3" x="1191.51" y="243.49" width="9.2" height="6.35"/><rect class="cls-3" x="1185.39" y="249.84" width="6.12" height="9.55"/><rect class="cls-3" x="1185.39" y="233.93" width="6.12" height="9.55"/><rect class="cls-3" x="925.82" y="100.97" width="6.12" height="6.35"/><rect class="cls-3" x="938.05" y="100.97" width="6.12" height="6.35"/><rect class="cls-3" x="931.93" y="107.32" width="6.12" height="6.35"/><rect class="cls-3" x="931.93" y="94.62" width="6.12" height="6.35"/><rect class="cls-3" x="911.9" y="24.29" width="15.26" height="6.35"/><polygon class="cls-3" points="903.37 55.69 903.37 39.84 902.7 39.84 897.25 39.84 897.25 55.69 902.7 55.69 903.37 55.69"/><rect class="cls-3" x="1108.04" y="177.19" width="15.26" height="6.35"/><rect class="cls-3" x="1147.15" y="177.19" width="15.26" height="6.35"/><rect class="cls-3" x="1132.5" y="152.14" width="6.12" height="15.85"/><rect class="cls-3" x="1132.5" y="192.75" width="6.12" height="15.85"/><rect class="cls-3" x="1255.32" y="140.43" width="6.12" height="22.39"/><rect class="cls-3" x="1255.32" y="169.17" width="6.12" height="22.39"/><rect class="cls-3" x="1233.75" y="162.82" width="21.57" height="6.35"/><rect class="cls-3" x="1203.77" y="88.17" width="6.12" height="6.35"/><rect class="cls-3" x="1203.77" y="69.12" width="6.12" height="6.35"/><rect class="cls-3" x="1194.6" y="78.64" width="6.12" height="6.35"/><rect class="cls-3" x="1212.94" y="78.64" width="6.12" height="6.35"/><rect class="cls-3" x="1250.74" y="24.29" width="15.26" height="6.35"/><rect class="cls-3" x="985.54" y="148.45" width="17.06" height="6.35"/><rect class="cls-3" x="1014.83" y="148.45" width="17.06" height="6.35"/><rect class="cls-3" x="1005.66" y="127.56" width="6.12" height="17.71"/><rect class="cls-3" x="1005.66" y="157.98" width="6.12" height="17.71"/><rect class="cls-3" x="1103.26" y="53.07" width="6.12" height="22.39"/><rect class="cls-3" x="1103.26" y="81.82" width="6.12" height="22.39"/><rect class="cls-3" x="1081.69" y="75.47" width="21.57" height="6.35"/><rect class="cls-3" x="1109.38" y="75.47" width="21.56" height="6.35"/><rect class="cls-3" x="1219.63" y="295.91" width="6.12" height="22.39"/><polygon class="cls-3" points="979.28 325.86 979.28 324.28 970.08 324.28 970.08 325.86 970.08 330.63 979.28 330.63 979.28 325.86"/><rect class="cls-3" x="979.28" y="314.72" width="6.12" height="9.55"/><rect class="cls-3" x="1068.5" y="304.29" width="17.06" height="6.35"/><rect class="cls-3" x="1097.79" y="304.29" width="17.06" height="6.35"/><rect class="cls-3" x="1088.61" y="283.4" width="6.12" height="17.71"/><polygon class="cls-3" points="1088.62 328.29 1088.62 331.53 1094.73 331.53 1094.73 328.29 1094.73 313.82 1088.62 313.82 1088.62 328.29"/><polygon class="cls-3" points="573.94 328.29 573.94 321.88 567.82 321.88 567.82 328.29 567.82 344.27 573.94 344.27 573.94 328.29"/><rect class="cls-3" x="567.82" y="350.62" width="6.12" height="22.39"/><rect class="cls-3" x="546.26" y="344.27" width="21.57" height="6.35"/><rect class="cls-3" x="573.94" y="344.27" width="21.57" height="6.35"/><polygon class="cls-3" points="829.02 314.72 829.02 317.9 850.59 317.9 850.59 314.72 850.59 311.55 829.02 311.55 829.02 314.72"/><polygon class="cls-3" points="891.38 314.72 891.38 311.55 869.82 311.55 869.82 314.72 869.82 317.9 891.38 317.9 891.38 314.72"/><rect class="cls-3" x="857.15" y="324.71" width="6.12" height="22.39"/><rect class="cls-3" x="593.61" y="433.89" width="21.57" height="6.35"/><rect class="cls-3" x="634.4" y="433.89" width="21.57" height="6.35"/><rect class="cls-3" x="621.73" y="404.69" width="6.12" height="22.39"/><rect class="cls-3" x="621.73" y="447.05" width="6.12" height="22.39"/><rect class="cls-3" x="546.15" y="620.43" width="6.12" height="17.12"/><rect class="cls-3" x="546.15" y="658.76" width="6.12" height="17.12"/><rect class="cls-3" x="559.42" y="644.98" width="16.48" height="6.35"/><polygon class="cls-3" points="900.46 644.98 900.46 651.33 902.7 651.33 916.95 651.33 916.95 644.98 902.7 644.98 900.46 644.98"/><rect class="cls-3" x="781.4" y="395.34" width="6.12" height="9.55"/><rect class="cls-3" x="781.4" y="369.78" width="6.12" height="9.55"/><rect class="cls-3" x="767.55" y="384.16" width="9.2" height="6.35"/><rect class="cls-3" x="792.16" y="384.16" width="9.2" height="6.35"/><rect class="cls-3" x="661.42" y="634.36" width="6.12" height="9.55"/><rect class="cls-3" x="661.42" y="608.79" width="6.12" height="9.55"/><rect class="cls-3" x="647.57" y="623.18" width="9.2" height="6.35"/><rect class="cls-3" x="672.19" y="623.18" width="9.2" height="6.35"/><polygon class="cls-3" points="646.08 333.06 655.28 333.06 655.28 328.29 655.28 326.71 646.08 326.71 646.08 328.29 646.08 333.06"/><rect class="cls-3" x="639.97" y="333.06" width="6.12" height="9.55"/><rect class="cls-3" x="798.24" y="635.96" width="9.2" height="6.35"/><rect class="cls-3" x="813.56" y="635.96" width="9.2" height="6.35"/><rect class="cls-3" x="807.44" y="642.31" width="6.12" height="9.55"/><rect class="cls-3" x="807.44" y="626.4" width="6.12" height="9.55"/><rect class="cls-3" x="532.4" y="502.97" width="6.12" height="6.35"/><rect class="cls-3" x="544.63" y="502.97" width="6.12" height="6.35"/><rect class="cls-3" x="538.52" y="509.32" width="6.12" height="6.35"/><rect class="cls-3" x="538.52" y="496.62" width="6.12" height="6.35"/><rect class="cls-3" x="689.9" y="392.17" width="6.12" height="6.35"/><rect class="cls-3" x="702.13" y="392.17" width="6.12" height="6.35"/><rect class="cls-3" x="696.02" y="398.52" width="6.12" height="6.35"/><rect class="cls-3" x="696.02" y="385.82" width="6.12" height="6.35"/><rect class="cls-3" x="533.95" y="416.76" width="15.26" height="6.35"/><rect class="cls-3" x="730.09" y="569.67" width="15.26" height="6.35"/><rect class="cls-3" x="769.2" y="569.67" width="15.26" height="6.35"/><rect class="cls-3" x="754.55" y="544.62" width="6.12" height="15.85"/><rect class="cls-3" x="754.55" y="585.22" width="6.12" height="15.85"/><rect class="cls-3" x="877.36" y="532.9" width="6.12" height="22.39"/><rect class="cls-3" x="877.36" y="561.65" width="6.12" height="22.39"/><rect class="cls-3" x="855.8" y="555.3" width="21.57" height="6.35"/><rect class="cls-3" x="831.93" y="485.59" width="6.12" height="6.35"/><rect class="cls-3" x="831.93" y="466.54" width="6.12" height="6.35"/><rect class="cls-3" x="822.76" y="476.06" width="6.12" height="6.35"/><rect class="cls-3" x="841.11" y="476.06" width="6.12" height="6.35"/><rect class="cls-3" x="607.59" y="540.92" width="17.06" height="6.35"/><rect class="cls-3" x="636.88" y="540.92" width="17.06" height="6.35"/><rect class="cls-3" x="627.71" y="520.03" width="6.12" height="17.71"/><rect class="cls-3" x="627.71" y="550.45" width="6.12" height="17.71"/><rect class="cls-3" x="725.31" y="445.55" width="6.12" height="22.39"/><rect class="cls-3" x="725.31" y="474.29" width="6.12" height="22.39"/><rect class="cls-3" x="703.74" y="467.94" width="21.57" height="6.35"/><rect class="cls-3" x="731.42" y="467.94" width="21.57" height="6.35"/><rect class="cls-3" x="841.68" y="688.39" width="6.12" height="22.39"/><rect class="cls-3" x="639.97" y="709.63" width="6.12" height="9.55"/><rect class="cls-3" x="690.55" y="696.77" width="17.06" height="6.35"/><rect class="cls-3" x="719.84" y="696.77" width="17.06" height="6.35"/><rect class="cls-3" x="710.66" y="675.88" width="6.12" height="17.71"/><polygon class="cls-3" points="908.1 382.18 901.99 382.18 901.99 388.6 901.99 404.58 908.1 404.58 908.1 388.6 908.1 382.18"/><rect class="cls-3" x="901.99" y="410.93" width="6.12" height="22.39"/><rect class="cls-3" x="880.42" y="404.58" width="21.57" height="6.35"/><rect class="cls-3" x="908.1" y="404.58" width="21.56" height="6.35"/><polygon class="cls-3" points="905.04 561.65 905.04 555.3 902.7 555.3 883.48 555.3 883.48 561.65 902.7 561.65 905.04 561.65"/><polygon class="cls-3" points="1213.08 328.29 1213.08 325.12 1191.51 325.12 1191.51 328.29 1191.51 331.47 1213.08 331.47 1213.08 328.29"/><polygon class="cls-3" points="1253.87 328.29 1253.87 325.12 1232.31 325.12 1232.31 328.29 1232.31 331.47 1253.87 331.47 1253.87 328.29"/><rect class="cls-3" x="1219.63" y="338.28" width="6.12" height="22.39"/><rect class="cls-3" x="971.56" y="433.89" width="21.56" height="6.35"/><rect class="cls-3" x="1012.35" y="433.89" width="21.56" height="6.35"/><rect class="cls-3" x="999.68" y="404.69" width="6.12" height="22.39"/><rect class="cls-3" x="999.68" y="447.05" width="6.12" height="22.39"/><rect class="cls-3" x="924.1" y="620.43" width="6.12" height="17.12"/><rect class="cls-3" x="924.1" y="658.76" width="6.12" height="17.12"/><rect class="cls-3" x="937.37" y="644.98" width="16.48" height="6.35"/><rect class="cls-3" x="1159.35" y="395.34" width="6.12" height="9.55"/><rect class="cls-3" x="1159.35" y="369.78" width="6.12" height="9.55"/><rect class="cls-3" x="1145.5" y="384.16" width="9.2" height="6.35"/><rect class="cls-3" x="1170.12" y="384.16" width="9.2" height="6.35"/><rect class="cls-3" x="1039.38" y="634.36" width="6.12" height="9.55"/><rect class="cls-3" x="1039.38" y="608.79" width="6.12" height="9.55"/><rect class="cls-3" x="1025.52" y="623.18" width="9.2" height="6.35"/><rect class="cls-3" x="1050.14" y="623.18" width="9.2" height="6.35"/><polygon class="cls-3" points="985.4 330.63 994.6 330.63 994.6 325.86 994.6 324.28 985.4 324.28 985.4 325.86 985.4 330.63"/><rect class="cls-3" x="979.28" y="330.63" width="6.12" height="9.55"/><rect class="cls-3" x="1176.19" y="635.96" width="9.2" height="6.35"/><rect class="cls-3" x="1191.51" y="635.96" width="9.2" height="6.35"/><rect class="cls-3" x="1185.39" y="642.31" width="6.12" height="9.55"/><rect class="cls-3" x="1185.39" y="626.4" width="6.12" height="9.55"/><rect class="cls-3" x="918.08" y="489.12" width="6.12" height="6.35"/><rect class="cls-3" x="930.31" y="489.12" width="6.12" height="6.35"/><rect class="cls-3" x="924.2" y="495.47" width="6.12" height="6.35"/><rect class="cls-3" x="924.2" y="482.77" width="6.12" height="6.35"/><rect class="cls-3" x="1072.52" y="382.18" width="6.12" height="6.35"/><rect class="cls-3" x="1084.75" y="382.18" width="6.12" height="6.35"/><rect class="cls-3" x="1078.64" y="388.53" width="6.12" height="6.35"/><rect class="cls-3" x="1078.64" y="375.83" width="6.12" height="6.35"/><rect class="cls-3" x="1108.04" y="569.67" width="15.26" height="6.35"/><rect class="cls-3" x="1147.15" y="569.67" width="15.26" height="6.35"/><rect class="cls-3" x="1132.5" y="544.62" width="6.12" height="15.85"/><rect class="cls-3" x="1132.5" y="585.22" width="6.12" height="15.85"/><rect class="cls-3" x="1255.32" y="532.9" width="6.12" height="22.39"/><rect class="cls-3" x="1255.32" y="561.65" width="6.12" height="22.39"/><rect class="cls-3" x="1233.75" y="555.3" width="21.57" height="6.35"/><rect class="cls-3" x="1203.77" y="480.64" width="6.12" height="6.35"/><rect class="cls-3" x="1203.77" y="461.59" width="6.12" height="6.35"/><rect class="cls-3" x="1194.6" y="471.12" width="6.12" height="6.35"/><rect class="cls-3" x="1212.94" y="471.12" width="6.12" height="6.35"/><rect class="cls-3" x="1250.74" y="416.76" width="15.26" height="6.35"/><rect class="cls-3" x="985.54" y="540.92" width="17.06" height="6.35"/><rect class="cls-3" x="1014.83" y="540.92" width="17.06" height="6.35"/><rect class="cls-3" x="1005.66" y="520.03" width="6.12" height="17.71"/><rect class="cls-3" x="1005.66" y="550.45" width="6.12" height="17.71"/><rect class="cls-3" x="1103.26" y="445.55" width="6.12" height="22.39"/><rect class="cls-3" x="1103.26" y="474.29" width="6.12" height="22.39"/><rect class="cls-3" x="1081.69" y="467.94" width="21.57" height="6.35"/><rect class="cls-3" x="1109.38" y="467.94" width="21.56" height="6.35"/><rect class="cls-3" x="1219.63" y="688.39" width="6.12" height="22.39"/><rect class="cls-3" x="1017.92" y="709.63" width="6.12" height="9.55"/><rect class="cls-3" x="1068.5" y="696.77" width="17.06" height="6.35"/><rect class="cls-3" x="1097.79" y="696.77" width="17.06" height="6.35"/><rect class="cls-3" x="1088.61" y="675.88" width="6.12" height="17.71"/><rect class="cls-3" x="26.2" y="2.87" width="6.12" height="9.55"/><rect class="cls-3" x="43.04" y="243.49" width="9.2" height="6.35"/><rect class="cls-3" x="58.36" y="243.49" width="9.2" height="6.35"/><rect class="cls-3" x="52.24" y="249.84" width="6.12" height="9.55"/><rect class="cls-3" x="52.24" y="233.93" width="6.12" height="9.55"/><rect class="cls-3" x="14" y="177.19" width="15.26" height="6.35"/><rect class="cls-3" x="122.16" y="140.43" width="6.12" height="22.39"/><rect class="cls-3" x="122.16" y="169.17" width="6.12" height="22.39"/><rect class="cls-3" x="100.6" y="162.82" width="21.57" height="6.35"/><polygon class="cls-3" points="147.5 169.17 149.84 169.17 149.84 162.82 147.5 162.82 128.28 162.82 128.28 169.17 147.5 169.17"/><rect class="cls-3" x="70.62" y="88.17" width="6.12" height="6.35"/><rect class="cls-3" x="70.62" y="69.12" width="6.12" height="6.35"/><rect class="cls-3" x="61.44" y="78.64" width="6.12" height="6.35"/><rect class="cls-3" x="79.79" y="78.64" width="6.12" height="6.35"/><rect class="cls-3" x="117.59" y="24.29" width="15.26" height="6.35"/><rect class="cls-3" x="101.95" y="282.34" width="6.12" height="22.39"/><rect class="cls-3" x="216.36" y="41.42" width="21.56" height="6.35"/><rect class="cls-3" x="257.15" y="41.42" width="21.56" height="6.35"/><rect class="cls-3" x="244.48" y="12.21" width="6.12" height="22.39"/><rect class="cls-3" x="244.48" y="54.58" width="6.12" height="22.39"/><rect class="cls-3" x="184.91" y="215.77" width="6.12" height="17.12"/><rect class="cls-3" x="184.91" y="254.09" width="6.12" height="17.12"/><rect class="cls-3" x="198.18" y="240.31" width="16.48" height="6.35"/><polygon class="cls-3" points="161.27 240.31 161.27 246.66 163.5 246.66 177.75 246.66 177.75 240.31 163.5 240.31 161.27 240.31"/><rect class="cls-3" x="404.15" y="2.87" width="6.12" height="9.55"/><rect class="cls-3" x="284.18" y="241.88" width="6.12" height="9.55"/><rect class="cls-3" x="284.18" y="216.32" width="6.12" height="9.55"/><rect class="cls-3" x="270.32" y="230.7" width="9.2" height="6.35"/><rect class="cls-3" x="294.94" y="230.7" width="9.2" height="6.35"/><rect class="cls-3" x="420.99" y="243.49" width="9.2" height="6.35"/><rect class="cls-3" x="436.31" y="243.49" width="9.2" height="6.35"/><rect class="cls-3" x="430.19" y="249.84" width="6.12" height="9.55"/><rect class="cls-3" x="430.19" y="233.93" width="6.12" height="9.55"/><rect class="cls-3" x="170.62" y="100.97" width="6.12" height="6.35"/><rect class="cls-3" x="182.85" y="100.97" width="6.12" height="6.35"/><rect class="cls-3" x="176.73" y="107.32" width="6.12" height="6.35"/><rect class="cls-3" x="176.73" y="94.62" width="6.12" height="6.35"/><rect class="cls-3" x="156.7" y="24.29" width="15.26" height="6.35"/><polygon class="cls-3" points="148.17 55.69 148.17 39.84 147.5 39.84 142.05 39.84 142.05 55.69 147.5 55.69 148.17 55.69"/><rect class="cls-3" x="352.84" y="177.19" width="15.26" height="6.35"/><rect class="cls-3" x="391.95" y="177.19" width="15.26" height="6.35"/><rect class="cls-3" x="377.3" y="152.14" width="6.12" height="15.85"/><rect class="cls-3" x="377.3" y="192.75" width="6.12" height="15.85"/><rect class="cls-3" x="500.12" y="140.43" width="6.12" height="22.39"/><rect class="cls-3" x="500.12" y="169.17" width="6.12" height="22.39"/><rect class="cls-3" x="478.55" y="162.82" width="21.57" height="6.35"/><polygon class="cls-3" points="524.74 169.17 525.45 169.17 527.09 169.17 527.09 162.82 525.45 162.82 524.74 162.82 506.23 162.82 506.23 169.17 524.74 169.17"/><rect class="cls-3" x="448.57" y="88.17" width="6.12" height="6.35"/><rect class="cls-3" x="448.57" y="69.12" width="6.12" height="6.35"/><rect class="cls-3" x="439.4" y="78.64" width="6.12" height="6.35"/><rect class="cls-3" x="457.74" y="78.64" width="6.12" height="6.35"/><rect class="cls-3" x="495.54" y="24.29" width="15.26" height="6.35"/><polygon class="cls-3" points="525.42 55.69 525.45 55.69 525.45 39.84 525.42 39.84 524.74 39.84 520 39.84 520 55.69 524.74 55.69 525.42 55.69"/><rect class="cls-3" x="230.34" y="148.45" width="17.06" height="6.35"/><rect class="cls-3" x="259.63" y="148.45" width="17.06" height="6.35"/><rect class="cls-3" x="250.46" y="127.56" width="6.12" height="17.71"/><rect class="cls-3" x="250.46" y="157.98" width="6.12" height="17.71"/><rect class="cls-3" x="348.06" y="53.07" width="6.12" height="22.39"/><rect class="cls-3" x="348.06" y="81.82" width="6.12" height="22.39"/><rect class="cls-3" x="326.49" y="75.47" width="21.57" height="6.35"/><rect class="cls-3" x="354.18" y="75.47" width="21.56" height="6.35"/><rect class="cls-3" x="464.43" y="295.91" width="6.12" height="22.39"/><polygon class="cls-3" points="224.08 325.86 224.08 324.28 214.88 324.28 214.88 325.86 214.88 330.63 224.08 330.63 224.08 325.86"/><rect class="cls-3" x="224.08" y="314.72" width="6.12" height="9.55"/><rect class="cls-3" x="313.3" y="304.29" width="17.06" height="6.35"/><rect class="cls-3" x="342.59" y="304.29" width="17.06" height="6.35"/><rect class="cls-3" x="333.41" y="283.4" width="6.12" height="17.71"/><polygon class="cls-3" points="333.42 328.29 333.42 331.53 339.53 331.53 339.53 328.29 339.53 313.82 333.42 313.82 333.42 328.29"/><polygon class="cls-3" points="73.83 314.72 73.83 317.9 95.39 317.9 95.39 314.72 95.39 311.55 73.83 311.55 73.83 314.72"/><polygon class="cls-3" points="136.18 314.72 136.18 311.55 114.62 311.55 114.62 314.72 114.62 317.9 136.18 317.9 136.18 314.72"/><rect class="cls-3" x="101.95" y="324.71" width="6.12" height="22.39"/><polygon class="cls-3" points="145.26 644.98 145.26 651.33 147.5 651.33 161.75 651.33 161.75 644.98 147.5 644.98 145.26 644.98"/><rect class="cls-3" x="26.2" y="395.34" width="6.12" height="9.55"/><rect class="cls-3" x="26.2" y="369.78" width="6.12" height="9.55"/><rect class="cls-3" x="12.35" y="384.16" width="9.2" height="6.35"/><rect class="cls-3" x="36.96" y="384.16" width="9.2" height="6.35"/><rect class="cls-3" x="43.04" y="635.96" width="9.2" height="6.35"/><rect class="cls-3" x="58.36" y="635.96" width="9.2" height="6.35"/><rect class="cls-3" x="52.24" y="642.31" width="6.12" height="9.55"/><rect class="cls-3" x="52.24" y="626.4" width="6.12" height="9.55"/><rect class="cls-3" x="14" y="569.67" width="15.26" height="6.35"/><rect class="cls-3" x="122.16" y="532.9" width="6.12" height="22.39"/><rect class="cls-3" x="122.16" y="561.65" width="6.12" height="22.39"/><rect class="cls-3" x="100.6" y="555.3" width="21.57" height="6.35"/><rect class="cls-3" x="76.73" y="485.59" width="6.12" height="6.35"/><rect class="cls-3" x="76.73" y="466.54" width="6.12" height="6.35"/><rect class="cls-3" x="67.56" y="476.06" width="6.12" height="6.35"/><rect class="cls-3" x="85.91" y="476.06" width="6.12" height="6.35"/><rect class="cls-3" x="86.48" y="688.39" width="6.12" height="22.39"/><polygon class="cls-3" points="152.9 382.18 146.79 382.18 146.79 388.6 146.79 404.58 152.9 404.58 152.9 388.6 152.9 382.18"/><rect class="cls-3" x="146.79" y="410.93" width="6.12" height="22.39"/><rect class="cls-3" x="125.22" y="404.58" width="21.57" height="6.35"/><rect class="cls-3" x="152.9" y="404.58" width="21.56" height="6.35"/><polygon class="cls-3" points="149.84 561.65 149.84 555.3 147.5 555.3 128.28 555.3 128.28 561.65 147.5 561.65 149.84 561.65"/><polygon class="cls-3" points="457.88 328.29 457.88 325.12 436.31 325.12 436.31 328.29 436.31 331.47 457.88 331.47 457.88 328.29"/><polygon class="cls-3" points="498.67 328.29 498.67 325.12 477.11 325.12 477.11 328.29 477.11 331.47 498.67 331.47 498.67 328.29"/><rect class="cls-3" x="464.43" y="338.28" width="6.12" height="22.39"/><rect class="cls-3" x="216.36" y="433.89" width="21.56" height="6.35"/><rect class="cls-3" x="257.15" y="433.89" width="21.56" height="6.35"/><rect class="cls-3" x="244.48" y="404.69" width="6.12" height="22.39"/><rect class="cls-3" x="244.48" y="447.05" width="6.12" height="22.39"/><rect class="cls-3" x="168.9" y="620.43" width="6.12" height="17.12"/><rect class="cls-3" x="168.9" y="658.76" width="6.12" height="17.12"/><rect class="cls-3" x="182.17" y="644.98" width="16.48" height="6.35"/><polygon class="cls-3" points="524.74 644.98 523.22 644.98 523.22 651.33 524.74 651.33 525.45 651.33 538.99 651.33 538.99 644.98 525.45 644.98 524.74 644.98"/><rect class="cls-3" x="404.15" y="395.34" width="6.12" height="9.55"/><rect class="cls-3" x="404.15" y="369.78" width="6.12" height="9.55"/><rect class="cls-3" x="390.3" y="384.16" width="9.2" height="6.35"/><rect class="cls-3" x="414.92" y="384.16" width="9.2" height="6.35"/><rect class="cls-3" x="284.18" y="634.36" width="6.12" height="9.55"/><rect class="cls-3" x="284.18" y="608.79" width="6.12" height="9.55"/><rect class="cls-3" x="270.32" y="623.18" width="9.2" height="6.35"/><rect class="cls-3" x="294.94" y="623.18" width="9.2" height="6.35"/><polygon class="cls-3" points="230.2 330.63 239.4 330.63 239.4 325.86 239.4 324.28 230.2 324.28 230.2 325.86 230.2 330.63"/><rect class="cls-3" x="224.08" y="330.63" width="6.12" height="9.55"/><rect class="cls-3" x="420.99" y="635.96" width="9.2" height="6.35"/><rect class="cls-3" x="436.31" y="635.96" width="9.2" height="6.35"/><rect class="cls-3" x="430.19" y="642.31" width="6.12" height="9.55"/><rect class="cls-3" x="430.19" y="626.4" width="6.12" height="9.55"/><rect class="cls-3" x="162.88" y="489.12" width="6.12" height="6.35"/><rect class="cls-3" x="175.11" y="489.12" width="6.12" height="6.35"/><rect class="cls-3" x="169" y="495.47" width="6.12" height="6.35"/><rect class="cls-3" x="169" y="482.77" width="6.12" height="6.35"/><rect class="cls-3" x="317.32" y="382.18" width="6.12" height="6.35"/><rect class="cls-3" x="329.55" y="382.18" width="6.12" height="6.35"/><rect class="cls-3" x="323.44" y="388.53" width="6.12" height="6.35"/><rect class="cls-3" x="323.44" y="375.83" width="6.12" height="6.35"/><rect class="cls-3" x="352.84" y="569.67" width="15.26" height="6.35"/><rect class="cls-3" x="391.95" y="569.67" width="15.26" height="6.35"/><rect class="cls-3" x="377.3" y="544.62" width="6.12" height="15.85"/><rect class="cls-3" x="377.3" y="585.22" width="6.12" height="15.85"/><rect class="cls-3" x="500.12" y="532.9" width="6.12" height="22.39"/><rect class="cls-3" x="500.12" y="561.65" width="6.12" height="22.39"/><rect class="cls-3" x="478.55" y="555.3" width="21.57" height="6.35"/><polygon class="cls-3" points="525.45 561.65 527.09 561.65 527.09 555.3 525.45 555.3 524.74 555.3 506.23 555.3 506.23 561.65 524.74 561.65 525.45 561.65"/><rect class="cls-3" x="448.57" y="480.64" width="6.12" height="6.35"/><rect class="cls-3" x="448.57" y="461.59" width="6.12" height="6.35"/><rect class="cls-3" x="439.4" y="471.12" width="6.12" height="6.35"/><rect class="cls-3" x="457.74" y="471.12" width="6.12" height="6.35"/><rect class="cls-3" x="495.54" y="416.76" width="15.26" height="6.35"/><polygon class="cls-3" points="525.45 391.71 525.42 391.71 524.74 391.71 520 391.71 520 407.56 524.74 407.56 525.42 407.56 525.45 407.56 525.45 391.71"/><polygon class="cls-3" points="524.74 432.32 520 432.32 520 448.16 524.74 448.16 525.42 448.16 525.45 448.16 525.45 432.32 525.42 432.32 524.74 432.32"/><rect class="cls-3" x="230.34" y="540.92" width="17.06" height="6.35"/><rect class="cls-3" x="259.63" y="540.92" width="17.06" height="6.35"/><rect class="cls-3" x="250.46" y="520.03" width="6.12" height="17.71"/><rect class="cls-3" x="250.46" y="550.45" width="6.12" height="17.71"/><rect class="cls-3" x="348.06" y="445.55" width="6.12" height="22.39"/><rect class="cls-3" x="348.06" y="474.29" width="6.12" height="22.39"/><rect class="cls-3" x="326.49" y="467.94" width="21.57" height="6.35"/><rect class="cls-3" x="354.18" y="467.94" width="21.56" height="6.35"/><rect class="cls-3" x="464.43" y="688.39" width="6.12" height="22.39"/><rect class="cls-3" x="262.72" y="709.63" width="6.12" height="9.55"/><rect class="cls-3" x="313.3" y="696.77" width="17.06" height="6.35"/><rect class="cls-3" x="342.59" y="696.77" width="17.06" height="6.35"/><rect class="cls-3" x="333.41" y="675.88" width="6.12" height="17.71"/></g><path class="cls-4" d="M525.16,572.19a35.34,35.34,0,0,1-35.29-35.3V445.34H381.36v.45H338.79a30.86,30.86,0,0,1-30.86-31.57l5.36-232.52a34.35,34.35,0,0,1,34.2-34.51h.15A34.35,34.35,0,0,1,382,181.62l-.46,192.46H489.87V301.52a35.29,35.29,0,0,1,70.58,0v72.56h13.21a28.43,28.43,0,0,1,28.39,28.39V417a28.43,28.43,0,0,1-28.39,28.39H560.45v91.55A35.34,35.34,0,0,1,525.16,572.19Z"/><path class="cls-5" d="M573.66,382.58H552V301.52a26.78,26.78,0,0,0-26.79-26.79h0a26.78,26.78,0,0,0-26.79,26.79v81.06H373l.48-201a25.84,25.84,0,0,0-26-25.91h0a25.85,25.85,0,0,0-25.74,26.08l-5.36,232.64a22.37,22.37,0,0,0,22.36,22.88h34.09v-.45H498.37V536.89a26.79,26.79,0,0,0,26.79,26.8h0A26.79,26.79,0,0,0,552,536.89V436.84h21.71A19.89,19.89,0,0,0,593.55,417V402.47A19.89,19.89,0,0,0,573.66,382.58Z"/><path class="cls-6" d="M238.45,572.81a40.54,40.54,0,0,1-40.5-40.5V188.8a40.5,40.5,0,0,1,81,0V532.31A40.54,40.54,0,0,1,238.45,572.81Z"/><path class="cls-5" d="M238.45,156.56h0a32,32,0,0,0-31.77,32V532.58a32,32,0,0,0,31.77,32h0a32,32,0,0,0,31.76-32V188.53A32,32,0,0,0,238.45,156.56Z"/><circle class="cls-7" cx="525.12" cy="529.88" r="42.75"/><circle class="cls-6" cx="524.12" cy="526.88" r="42.75"/><circle class="cls-8" cx="524.12" cy="526.88" r="36.58"/><path class="cls-9" d="M540.81,533.87c-5.2,0-15.54-3.27-15.54-7.3s10.34-7.3,15.54-7.3c9.13,0,13.11,3.81,13.11,7.3S549.76,533.87,540.81,533.87Z"/><path class="cls-10" d="M533.81,527.31c-.67,0-2-.33-2-.74s1.31-.74,2-.74c1.16,0,1.66.38,1.66.74S535,527.31,533.81,527.31Z"/><path class="cls-9" d="M507.22,519.27c5.2,0,15.54,3.27,15.54,7.3s-10.34,7.3-15.54,7.3c-9.13,0-13.11-3.81-13.11-7.3S498.26,519.27,507.22,519.27Z"/><path class="cls-9" d="M526.35,544.73c-2.66-4.46-5.15-15-1.69-17.08s11.57,5.13,14.23,9.6c4.68,7.83,3.45,13.2.45,15S530.94,552.42,526.35,544.73Z"/><path class="cls-9" d="M521.67,508.4c2.67,4.47,5.16,15,1.7,17.09s-11.57-5.14-14.23-9.61c-4.68-7.83-3.45-13.2-.45-15S517.09,500.71,521.67,508.4Z"/><path class="cls-9" d="M509.27,537.43c2.61-4.5,10.63-11.8,14.11-9.77s1.13,12.6-1.49,17.1c-4.58,7.89-9.87,9.42-12.89,7.67S504.77,545.17,509.27,537.43Z"/><path class="cls-9" d="M538.76,515.71c-2.61,4.5-10.63,11.79-14.11,9.77s-1.13-12.61,1.49-17.1c4.58-7.9,9.87-9.43,12.89-7.67S543.26,508,538.76,515.71Z"/><path class="cls-11" d="M523.79,533.28a6.71,6.71,0,1,1,6.71-6.71A6.71,6.71,0,0,1,523.79,533.28Z"/><path class="cls-10" d="M513.62,525.83c.67,0,2,.33,2,.74s-1.31.74-2,.74c-1.16,0-1.67-.39-1.67-.74S512.48,525.83,513.62,525.83Z"/><path class="cls-10" d="M527.87,535.79c-.31-.58-.65-1.89-.29-2.09s1.28.8,1.6,1.39c.55,1,.45,1.65.14,1.82S528.42,536.8,527.87,535.79Z"/><path class="cls-10" d="M519.55,517.34c.32.58.66,1.9.3,2.09s-1.28-.8-1.6-1.38c-.55-1-.45-1.65-.14-1.82S519,516.34,519.55,517.34Z"/><path class="cls-10" d="M529.59,518.33c-.34.56-1.31,1.52-1.66,1.3s.05-1.5.39-2.07c.61-1,1.2-1.23,1.5-1S530.18,517.35,529.59,518.33Z"/><path class="cls-10" d="M517.84,534.81c.34-.57,1.31-1.52,1.66-1.31s0,1.51-.39,2.08c-.61,1-1.2,1.22-1.5,1S517.25,535.78,517.84,534.81Z"/><path class="cls-10" d="M532,532.39c-.57-.34-1.53-1.3-1.32-1.65s1.51,0,2.08.38c1,.6,1.23,1.19,1,1.5S533,533,532,532.39Z"/><path class="cls-10" d="M515.44,520.74c.57.34,1.52,1.3,1.31,1.66s-1.5,0-2.07-.39c-1-.59-1.23-1.19-1-1.49S514.46,520.16,515.44,520.74Z"/><path class="cls-10" d="M522.54,536.62c0-.66.41-2,.82-2s.69,1.35.66,2c0,1.16-.46,1.65-.81,1.64S522.49,537.76,522.54,536.62Z"/><path class="cls-10" d="M524.89,516.52c0,.66-.42,2-.82,1.94s-.69-1.35-.66-2c.05-1.16.46-1.65.81-1.63S524.94,515.38,524.89,516.52Z"/><path class="cls-10" d="M533,522.52c-.59.31-1.91.63-2.1.27s.82-1.27,1.41-1.58c1-.54,1.66-.43,1.82-.12S534,522,533,522.52Z"/><path class="cls-10" d="M514.44,530.61c.59-.31,1.9-.62,2.09-.26s-.82,1.27-1.4,1.58c-1,.54-1.66.43-1.82.12S513.43,531.15,514.44,530.61Z"/><path class="cls-7" d="M732.27,247.26a11,11,0,0,1-5.54-1.46c-3.41-2-5.49-5.75-5.7-10.35a24,24,0,0,1,2.35-10.74c-11.4-1.14-16.56-7.34-16.56-13.49,0-5.9,5.13-12.2,16.28-13.45-4.71-10.24-2-17.75,3.21-20.88a10.88,10.88,0,0,1,5.6-1.51c5.2,0,10.45,3.3,14.73,9.17,5.66-8.07,11.53-9.37,14.7-9.37a11.07,11.07,0,0,1,5.54,1.46c3.41,2,5.49,5.76,5.7,10.36a24,24,0,0,1-2.35,10.73c11.4,1.14,16.56,7.34,16.56,13.49,0,5.9-5.13,12.2-16.28,13.46a23.13,23.13,0,0,1,2.4,10.54c-.18,4.55-2.22,8.31-5.61,10.34a11,11,0,0,1-5.6,1.5c-5.2,0-10.45-3.3-14.73-9.17C741.31,246,735.44,247.26,732.27,247.26Z"/><path class="cls-3" d="M728,243a11.1,11.1,0,0,1-5.54-1.46c-3.41-2-5.48-5.76-5.7-10.36a23.88,23.88,0,0,1,2.36-10.73c-11.41-1.14-16.57-7.34-16.57-13.49,0-5.9,5.13-12.2,16.28-13.46-4.7-10.24-2-17.75,3.21-20.88a11,11,0,0,1,5.61-1.5c5.2,0,10.44,3.3,14.72,9.17,5.67-8.08,11.53-9.37,14.71-9.37a11,11,0,0,1,5.54,1.46c3.41,2,5.48,5.75,5.7,10.35a24,24,0,0,1-2.36,10.74c11.41,1.13,16.57,7.34,16.57,13.49,0,5.9-5.13,12.2-16.28,13.45a23.15,23.15,0,0,1,2.39,10.55c-.17,4.54-2.22,8.31-5.61,10.33a10.85,10.85,0,0,1-5.6,1.51c-5.2,0-10.44-3.31-14.72-9.17C737,241.65,731.13,243,728,243Z"/><path class="cls-12" d="M753.89,207.77c-.77,0-2.3-.39-2.3-.86s1.53-.87,2.3-.87c1.35,0,1.94.46,1.94.87S755.22,207.77,753.89,207.77Z"/><path class="cls-13" d="M777.3,206.91c0-4.07-4.64-8.5-15.26-8.5a28.24,28.24,0,0,0-6.35.9,28.82,28.82,0,0,0,4-5c5.23-9,3.82-15.42.31-17.46s-9.68-.27-15,8.92a28.66,28.66,0,0,0-2.56,6.43,29,29,0,0,0-2.63-6.4c-5.34-8.95-11.63-10.82-15.12-8.74s-4.92,8.33.52,17.45a27.78,27.78,0,0,0,3.8,4.76,27.75,27.75,0,0,0-6-.82c-10.42,0-15.26,4.43-15.26,8.5s4.64,8.5,15.26,8.5a28.24,28.24,0,0,0,6.35-.9,28.45,28.45,0,0,0-4,5c-5.23,9-3.82,15.42-.31,17.46s9.68.26,15-8.93a28.94,28.94,0,0,0,2.56-6.43,29,29,0,0,0,2.63,6.4c5.35,8.95,11.63,10.83,15.12,8.75s4.92-8.34-.52-17.46a27.78,27.78,0,0,0-3.8-4.76,27.82,27.82,0,0,0,6,.83C772.46,215.41,777.3,211,777.3,206.91Zm-34.8,1.91a2.91,2.91,0,0,0-.75-.65,2.71,2.71,0,0,0-.89-.32,2.66,2.66,0,0,0,0-1.87,2.67,2.67,0,0,0,.88-.33,3.08,3.08,0,0,0,.74-.66,3,3,0,0,0,.74.65,3.09,3.09,0,0,0,.91.33,2.75,2.75,0,0,0-.18.94,2.93,2.93,0,0,0,.17.92,3,3,0,0,0-.88.34A2.84,2.84,0,0,0,742.5,208.82Z"/><path class="cls-14" d="M742.23,214.72a7.81,7.81,0,1,1,7.81-7.81A7.81,7.81,0,0,1,742.23,214.72Z"/><path class="cls-12" d="M730.39,206c.77,0,2.3.39,2.3.87s-1.53.86-2.3.86c-1.35,0-1.94-.45-1.94-.86S729.07,206,730.39,206Z"/><path class="cls-12" d="M747,217.65c-.37-.68-.76-2.21-.34-2.44s1.49.94,1.86,1.61c.64,1.19.53,1.93.17,2.12S747.61,218.81,747,217.65Z"/><path class="cls-12" d="M737.3,196.17c.37.68.76,2.21.34,2.43s-1.49-.93-1.86-1.61c-.64-1.19-.53-1.92-.17-2.12S736.67,195,737.3,196.17Z"/><path class="cls-12" d="M749,197.32c-.4.65-1.53,1.76-1.93,1.52s.05-1.76.46-2.42c.7-1.16,1.39-1.43,1.74-1.21S749.67,196.18,749,197.32Z"/><path class="cls-12" d="M735.3,216.5c.4-.66,1.53-1.77,1.93-1.52s-.05,1.76-.45,2.41c-.71,1.16-1.4,1.43-1.75,1.22S734.61,217.63,735.3,216.5Z"/><path class="cls-12" d="M751.77,213.69c-.66-.4-1.77-1.52-1.53-1.93s1.76.05,2.42.45c1.16.69,1.43,1.38,1.22,1.74S752.91,214.37,751.77,213.69Z"/><path class="cls-12" d="M732.51,200.13c.66.39,1.77,1.51,1.53,1.92s-1.76-.05-2.42-.44c-1.16-.7-1.43-1.39-1.22-1.74S731.37,199.44,732.51,200.13Z"/><path class="cls-12" d="M740.77,218.61c0-.77.49-2.29,1-2.27s.8,1.57.76,2.34c0,1.35-.53,1.92-.94,1.9S740.71,219.93,740.77,218.61Z"/><path class="cls-12" d="M743.51,195.21c0,.77-.49,2.28-1,2.26s-.8-1.57-.76-2.34c.05-1.35.53-1.92.94-1.9S743.57,193.88,743.51,195.21Z"/><path class="cls-12" d="M752.94,202.2c-.68.36-2.22.73-2.44.31s1-1.48,1.63-1.84c1.2-.63,1.93-.5,2.13-.14S754.11,201.58,752.94,202.2Z"/><path class="cls-12" d="M731.34,211.62c.69-.36,2.22-.73,2.44-.31s-.95,1.47-1.63,1.83c-1.2.63-1.93.51-2.12.15S730.17,212.24,731.34,211.62Z"/><path class="cls-7" d="M1011.06,247a11,11,0,0,1-5.55-1.46c-3.41-2-5.48-5.75-5.69-10.35a23.7,23.7,0,0,1,2.35-10.73c-11.41-1.15-16.56-7.35-16.56-13.5,0-5.9,5.12-12.2,16.27-13.45-4.7-10.24-2-17.75,3.22-20.88a10.85,10.85,0,0,1,5.6-1.51c5.2,0,10.44,3.31,14.72,9.17,5.67-8.07,11.53-9.37,14.71-9.37a11.1,11.1,0,0,1,5.54,1.46c3.41,2,5.49,5.76,5.7,10.36a23.88,23.88,0,0,1-2.36,10.73c11.41,1.14,16.57,7.34,16.57,13.49,0,5.9-5.13,12.2-16.28,13.46a23.26,23.26,0,0,1,2.4,10.54c-.18,4.55-2.22,8.31-5.61,10.34a11,11,0,0,1-5.61,1.5c-5.19,0-10.44-3.3-14.72-9.17C1020.1,245.67,1014.23,247,1011.06,247Z"/><path class="cls-3" d="M1006.74,242.65a11.07,11.07,0,0,1-5.54-1.46c-3.41-2-5.49-5.76-5.7-10.36a24,24,0,0,1,2.35-10.73c-11.4-1.14-16.56-7.34-16.56-13.49,0-5.9,5.13-12.2,16.28-13.46-4.7-10.24-2-17.75,3.21-20.88a11,11,0,0,1,5.6-1.5c5.2,0,10.45,3.3,14.73,9.17,5.66-8.08,11.53-9.37,14.7-9.37a11,11,0,0,1,5.54,1.46c3.41,2,5.49,5.75,5.7,10.35a23.93,23.93,0,0,1-2.35,10.74c11.4,1.14,16.56,7.34,16.56,13.49,0,5.9-5.12,12.2-16.27,13.45a23.28,23.28,0,0,1,2.39,10.55c-.17,4.54-2.22,8.31-5.61,10.33a10.88,10.88,0,0,1-5.6,1.51c-5.2,0-10.45-3.31-14.73-9.17C1015.78,241.35,1009.91,242.65,1006.74,242.65Z"/><path class="cls-12" d="M1032.68,207.47c-.78,0-2.31-.39-2.31-.86s1.53-.87,2.31-.87c1.35,0,1.94.46,1.94.87S1034,207.47,1032.68,207.47Z"/><path class="cls-13" d="M1056.08,206.61c0-4.07-4.63-8.5-15.25-8.5a28.32,28.32,0,0,0-6.36.9,27.89,27.89,0,0,0,4-5c5.24-9,3.83-15.42.31-17.46s-9.67-.27-15,8.92a28.66,28.66,0,0,0-2.56,6.43,29,29,0,0,0-2.64-6.4c-5.34-9-11.62-10.82-15.11-8.74s-4.93,8.33.52,17.45a27.29,27.29,0,0,0,3.8,4.76,27.91,27.91,0,0,0-6-.82c-10.42,0-15.25,4.43-15.25,8.5s4.63,8.5,15.25,8.5a28.32,28.32,0,0,0,6.36-.9,28,28,0,0,0-4,5c-5.23,9-3.83,15.42-.31,17.46s9.67.26,15-8.93a29,29,0,0,0,2.55-6.43,29,29,0,0,0,2.64,6.4c5.34,8.95,11.62,10.83,15.12,8.75s4.92-8.34-.53-17.46a27.67,27.67,0,0,0-3.8-4.76,28,28,0,0,0,6,.83C1051.25,215.11,1056.08,210.67,1056.08,206.61Zm-34.79,1.91a2.91,2.91,0,0,0-.75-.65,2.76,2.76,0,0,0-.9-.32,2.79,2.79,0,0,0,.17-.94,3,3,0,0,0-.16-.93,2.75,2.75,0,0,0,.88-.33.75.75,0,0,1,1.48,0,3.14,3.14,0,0,0,.9.33,3.05,3.05,0,0,0-.17.94,2.92,2.92,0,0,0,.16.92,3,3,0,0,0-.87.34A2.84,2.84,0,0,0,1021.29,208.52Z"/><path class="cls-14" d="M1021,214.42a7.81,7.81,0,1,1,7.81-7.81A7.81,7.81,0,0,1,1021,214.42Z"/><path class="cls-12" d="M1009.18,205.74c.77,0,2.3.39,2.3.87s-1.53.86-2.3.86c-1.35,0-1.94-.45-1.94-.86S1007.85,205.74,1009.18,205.74Z"/><path class="cls-12" d="M1025.77,217.35c-.37-.68-.76-2.21-.34-2.44s1.49.94,1.85,1.61c.65,1.19.53,1.93.17,2.12S1026.4,218.51,1025.77,217.35Z"/><path class="cls-12" d="M1016.08,195.87c.37.68.76,2.21.34,2.43s-1.48-.93-1.85-1.61c-.65-1.19-.53-1.92-.17-2.12S1015.45,194.7,1016.08,195.87Z"/><path class="cls-12" d="M1027.77,197c-.4.66-1.53,1.76-1.94,1.52s.06-1.76.46-2.42c.7-1.16,1.4-1.43,1.75-1.21S1028.46,195.88,1027.77,197Z"/><path class="cls-12" d="M1014.09,216.2c.4-.66,1.52-1.77,1.93-1.52s-.06,1.76-.46,2.42c-.7,1.15-1.39,1.42-1.74,1.21S1013.4,217.33,1014.09,216.2Z"/><path class="cls-12" d="M1030.56,213.39c-.66-.4-1.78-1.52-1.53-1.93s1.75,0,2.42.45c1.16.69,1.43,1.38,1.22,1.74S1031.7,214.07,1030.56,213.39Z"/><path class="cls-12" d="M1011.29,199.83c.67.39,1.78,1.51,1.54,1.92s-1.76-.05-2.42-.44c-1.16-.7-1.44-1.39-1.23-1.74S1010.16,199.14,1011.29,199.83Z"/><path class="cls-12" d="M1019.56,218.31c0-.77.48-2.29,1-2.27s.79,1.57.76,2.34c-.06,1.35-.53,1.92-.95,1.9S1019.5,219.63,1019.56,218.31Z"/><path class="cls-12" d="M1022.3,194.91c0,.77-.49,2.28-1,2.26s-.8-1.57-.77-2.34c.06-1.35.54-1.92.95-1.9S1022.35,193.58,1022.3,194.91Z"/><path class="cls-12" d="M1031.72,201.9c-.68.36-2.21.73-2.44.31s1-1.48,1.64-1.84c1.2-.63,1.93-.5,2.12-.14S1032.9,201.28,1031.72,201.9Z"/><path class="cls-12" d="M1010.13,211.32c.68-.36,2.22-.73,2.44-.31s-1,1.47-1.64,1.83c-1.19.63-1.93.51-2.12.15S1009,211.94,1010.13,211.32Z"/><path class="cls-7" d="M1106.86,246.6a11,11,0,0,1-5.54-1.46c-3.41-2-5.49-5.75-5.7-10.35a24,24,0,0,1,2.35-10.73c-11.4-1.15-16.56-7.35-16.56-13.5,0-5.9,5.13-12.2,16.28-13.45-4.7-10.24-2-17.75,3.21-20.88a10.89,10.89,0,0,1,5.61-1.51c5.19,0,10.44,3.31,14.72,9.17,5.66-8.07,11.53-9.37,14.7-9.37a11.07,11.07,0,0,1,5.54,1.46c3.41,2,5.49,5.76,5.7,10.36a23.73,23.73,0,0,1-2.35,10.73c11.41,1.14,16.56,7.34,16.56,13.49,0,5.9-5.12,12.2-16.27,13.46a23.24,23.24,0,0,1,2.39,10.54c-.17,4.55-2.22,8.31-5.61,10.34a11,11,0,0,1-5.6,1.5c-5.2,0-10.44-3.3-14.72-9.17C1115.9,245.31,1110,246.6,1106.86,246.6Z"/><path class="cls-3" d="M1102.55,242.29a11.14,11.14,0,0,1-5.55-1.46c-3.41-2-5.48-5.76-5.69-10.36a23.73,23.73,0,0,1,2.35-10.73c-11.41-1.14-16.56-7.34-16.56-13.49,0-5.9,5.12-12.2,16.27-13.46-4.7-10.24-2-17.75,3.22-20.88a11,11,0,0,1,5.6-1.5c5.2,0,10.44,3.3,14.72,9.17,5.67-8.08,11.53-9.37,14.71-9.37a11,11,0,0,1,5.54,1.46c3.41,2,5.49,5.75,5.7,10.35a24,24,0,0,1-2.36,10.74c11.41,1.14,16.57,7.34,16.57,13.49,0,5.9-5.13,12.2-16.28,13.45a23.3,23.3,0,0,1,2.4,10.55c-.18,4.54-2.22,8.31-5.61,10.33a10.89,10.89,0,0,1-5.61,1.51c-5.19,0-10.44-3.31-14.72-9.17C1111.59,241,1105.72,242.29,1102.55,242.29Z"/><path class="cls-12" d="M1128.48,207.11c-.77,0-2.3-.39-2.3-.86s1.53-.87,2.3-.87c1.35,0,1.94.46,1.94.87S1129.81,207.11,1128.48,207.11Z"/><path class="cls-13" d="M1151.89,206.25c0-4.07-4.63-8.5-15.26-8.5a28.24,28.24,0,0,0-6.35.9,28.35,28.35,0,0,0,4-5c5.23-9,3.83-15.42.31-17.46s-9.68-.27-15,8.92a29.14,29.14,0,0,0-2.56,6.43,29,29,0,0,0-2.63-6.4c-5.34-8.95-11.63-10.82-15.12-8.74s-4.92,8.33.52,17.45a27.78,27.78,0,0,0,3.8,4.76,27.75,27.75,0,0,0-6-.82c-10.42,0-15.26,4.43-15.26,8.5s4.64,8.5,15.26,8.5a28.16,28.16,0,0,0,6.35-.9,28.45,28.45,0,0,0-4,5c-5.23,9-3.82,15.42-.31,17.46s9.68.26,15-8.93a28.47,28.47,0,0,0,2.56-6.43,28.52,28.52,0,0,0,2.64,6.4c5.34,9,11.62,10.83,15.11,8.75s4.92-8.34-.52-17.46a28.16,28.16,0,0,0-3.8-4.76,27.9,27.9,0,0,0,6,.83C1147.06,214.75,1151.89,210.31,1151.89,206.25Zm-34.8,1.91a3,3,0,0,0-.74-.65,2.85,2.85,0,0,0-.9-.32,2.73,2.73,0,0,0,0-1.87,2.7,2.7,0,0,0,.87-.33,3.08,3.08,0,0,0,.74-.66,2.73,2.73,0,0,0,.75.65,3,3,0,0,0,.9.33,2.79,2.79,0,0,0-.17.94,2.92,2.92,0,0,0,.16.92,3,3,0,0,0-.88.34A2.84,2.84,0,0,0,1117.09,208.16Z"/><path class="cls-14" d="M1116.82,214.06a7.81,7.81,0,1,1,7.81-7.81A7.81,7.81,0,0,1,1116.82,214.06Z"/><path class="cls-12" d="M1105,205.38c.78,0,2.31.39,2.31.87s-1.53.86-2.31.86c-1.35,0-1.94-.45-1.94-.86S1103.66,205.38,1105,205.38Z"/><path class="cls-12" d="M1121.57,217c-.36-.68-.75-2.21-.34-2.44s1.49.94,1.86,1.61c.64,1.19.53,1.93.17,2.12S1122.21,218.15,1121.57,217Z"/><path class="cls-12" d="M1111.89,195.51c.37.68.76,2.21.34,2.43s-1.49-.93-1.86-1.61c-.64-1.19-.53-1.92-.16-2.12S1111.26,194.34,1111.89,195.51Z"/><path class="cls-12" d="M1123.57,196.66c-.4.66-1.52,1.76-1.93,1.52s.06-1.76.46-2.42c.7-1.16,1.39-1.43,1.74-1.21S1124.26,195.52,1123.57,196.66Z"/><path class="cls-12" d="M1109.89,215.84c.4-.66,1.53-1.77,1.94-1.52s-.06,1.76-.46,2.42c-.71,1.15-1.4,1.42-1.75,1.21S1109.2,217,1109.89,215.84Z"/><path class="cls-12" d="M1126.37,213c-.67-.4-1.78-1.52-1.54-1.93s1.76.05,2.42.45c1.16.69,1.44,1.38,1.22,1.74S1127.5,213.71,1126.37,213Z"/><path class="cls-12" d="M1107.1,199.47c.66.39,1.78,1.51,1.53,1.92s-1.75,0-2.42-.44c-1.16-.7-1.43-1.39-1.22-1.74S1106,198.78,1107.1,199.47Z"/><path class="cls-12" d="M1115.36,218c0-.77.49-2.29,1-2.27s.8,1.57.77,2.34c-.06,1.35-.54,1.92-.95,1.9S1115.3,219.27,1115.36,218Z"/><path class="cls-12" d="M1118.1,194.55c0,.77-.48,2.28-1,2.26s-.79-1.57-.76-2.34c.06-1.35.53-1.92.94-1.9S1118.16,193.22,1118.1,194.55Z"/><path class="cls-12" d="M1127.53,201.54c-.68.36-2.22.73-2.44.31s1-1.48,1.64-1.84c1.19-.63,1.92-.5,2.12-.14S1128.7,200.92,1127.53,201.54Z"/><path class="cls-12" d="M1105.93,211c.69-.36,2.22-.73,2.44-.31s-.95,1.47-1.63,1.83c-1.2.63-1.93.51-2.12.15S1104.76,211.58,1105.93,211Z"/><path class="cls-7" d="M824.62,247.26a11,11,0,0,1-5.54-1.46c-3.41-2-5.49-5.75-5.7-10.35a23.92,23.92,0,0,1,2.36-10.74c-11.41-1.14-16.57-7.34-16.57-13.49,0-5.9,5.13-12.2,16.28-13.45-4.7-10.24-2-17.75,3.21-20.88a10.92,10.92,0,0,1,5.61-1.51c5.2,0,10.44,3.3,14.72,9.17,5.67-8.07,11.53-9.37,14.7-9.37a11.11,11.11,0,0,1,5.55,1.46c3.41,2,5.48,5.76,5.69,10.36a23.73,23.73,0,0,1-2.35,10.73c11.41,1.14,16.56,7.34,16.56,13.49,0,5.9-5.12,12.2-16.27,13.46a23.24,23.24,0,0,1,2.39,10.54c-.17,4.55-2.22,8.31-5.61,10.34a10.94,10.94,0,0,1-5.6,1.5c-5.2,0-10.44-3.3-14.72-9.17C833.66,246,827.8,247.26,824.62,247.26Z"/><path class="cls-3" d="M820.31,243a11.07,11.07,0,0,1-5.54-1.46c-3.41-2-5.49-5.76-5.7-10.36a23.86,23.86,0,0,1,2.35-10.73c-11.4-1.14-16.56-7.34-16.56-13.49,0-5.9,5.12-12.2,16.28-13.46-4.71-10.24-2-17.75,3.21-20.88a11,11,0,0,1,5.6-1.5c5.2,0,10.45,3.3,14.73,9.17,5.66-8.08,11.53-9.37,14.7-9.37a11,11,0,0,1,5.54,1.46c3.41,2,5.49,5.75,5.7,10.35a24.06,24.06,0,0,1-2.35,10.74c11.4,1.13,16.56,7.34,16.56,13.49,0,5.9-5.13,12.2-16.28,13.45a23.3,23.3,0,0,1,2.4,10.55c-.18,4.54-2.22,8.31-5.61,10.33a10.89,10.89,0,0,1-5.61,1.51c-5.19,0-10.44-3.31-14.72-9.17C829.35,241.65,823.48,243,820.31,243Z"/><path class="cls-12" d="M846.24,207.77c-.77,0-2.3-.39-2.3-.86s1.53-.87,2.3-.87c1.35,0,1.94.46,1.94.87S847.57,207.77,846.24,207.77Z"/><path class="cls-13" d="M869.65,206.91c0-4.07-4.63-8.5-15.25-8.5a28.32,28.32,0,0,0-6.36.9,28.35,28.35,0,0,0,4-5c5.23-9,3.83-15.42.31-17.46s-9.67-.27-15,8.92a29.64,29.64,0,0,0-2.56,6.43,28.54,28.54,0,0,0-2.63-6.4c-5.34-8.95-11.63-10.82-15.12-8.74s-4.92,8.33.52,17.45a27.88,27.88,0,0,0,3.81,4.76,27.91,27.91,0,0,0-6-.82c-10.42,0-15.25,4.43-15.25,8.5s4.63,8.5,15.25,8.5a28.32,28.32,0,0,0,6.36-.9,27.55,27.55,0,0,0-4,5c-5.24,9-3.83,15.42-.31,17.46s9.67.26,15-8.93a28.47,28.47,0,0,0,2.56-6.43,29,29,0,0,0,2.64,6.4c5.34,8.95,11.62,10.83,15.11,8.75s4.93-8.34-.52-17.46a27.78,27.78,0,0,0-3.8-4.76,28,28,0,0,0,6,.83C864.82,215.41,869.65,211,869.65,206.91Zm-34.79,1.91a3.08,3.08,0,0,0-.75-.65,2.85,2.85,0,0,0-.9-.32,2.73,2.73,0,0,0,0-1.87,2.7,2.7,0,0,0,.87-.33,3.08,3.08,0,0,0,.74-.66,2.91,2.91,0,0,0,.75.65,3,3,0,0,0,.9.33,2.74,2.74,0,0,0-.17.94,2.92,2.92,0,0,0,.16.92,2.87,2.87,0,0,0-.87.34A2.55,2.55,0,0,0,834.86,208.82Z"/><path class="cls-14" d="M834.58,214.72a7.81,7.81,0,1,1,7.81-7.81A7.81,7.81,0,0,1,834.58,214.72Z"/><path class="cls-12" d="M822.75,206c.77,0,2.3.39,2.3.87s-1.53.86-2.3.86c-1.36,0-2-.45-2-.86S821.42,206,822.75,206Z"/><path class="cls-12" d="M839.33,217.65c-.36-.68-.75-2.21-.33-2.44s1.48.94,1.85,1.61c.65,1.19.53,1.93.17,2.12S840,218.81,839.33,217.65Z"/><path class="cls-12" d="M829.65,196.17c.37.68.76,2.21.34,2.43s-1.49-.93-1.85-1.61c-.65-1.19-.53-1.92-.17-2.12S829,195,829.65,196.17Z"/><path class="cls-12" d="M841.33,197.32c-.4.65-1.52,1.76-1.93,1.52s.06-1.76.46-2.42c.7-1.16,1.39-1.43,1.74-1.21S842,196.18,841.33,197.32Z"/><path class="cls-12" d="M827.65,216.5c.4-.66,1.53-1.77,1.94-1.52s-.06,1.76-.46,2.41c-.7,1.16-1.4,1.43-1.75,1.22S827,217.63,827.65,216.5Z"/><path class="cls-12" d="M844.13,213.69c-.67-.4-1.78-1.52-1.54-1.93s1.76.05,2.42.45c1.16.69,1.44,1.38,1.23,1.74S845.26,214.37,844.13,213.69Z"/><path class="cls-12" d="M824.86,200.13c.66.39,1.78,1.51,1.53,1.92s-1.75-.05-2.42-.44c-1.16-.7-1.43-1.39-1.22-1.74S823.72,199.44,824.86,200.13Z"/><path class="cls-12" d="M833.12,218.61c0-.77.49-2.29,1-2.27s.8,1.57.77,2.34c-.06,1.35-.54,1.92-1,1.9S833.07,219.93,833.12,218.61Z"/><path class="cls-12" d="M835.86,195.21c0,.77-.48,2.28-1,2.26s-.79-1.57-.76-2.34c.06-1.35.53-1.92,1-1.9S835.92,193.88,835.86,195.21Z"/><path class="cls-12" d="M845.29,202.2c-.68.36-2.22.73-2.44.31s1-1.48,1.64-1.84c1.19-.63,1.93-.5,2.12-.14S846.46,201.58,845.29,202.2Z"/><path class="cls-12" d="M823.7,211.62c.68-.36,2.21-.73,2.44-.31s-1,1.47-1.64,1.83c-1.2.63-1.93.51-2.12.15S822.52,212.24,823.7,211.62Z"/><path class="cls-7" d="M917.84,247a11,11,0,0,1-5.54-1.46c-3.41-2-5.49-5.75-5.7-10.35A24,24,0,0,1,909,224.42c-11.4-1.15-16.56-7.35-16.56-13.5,0-5.9,5.13-12.2,16.28-13.45-4.71-10.24-2-17.75,3.21-20.88a10.88,10.88,0,0,1,5.6-1.51c5.2,0,10.45,3.31,14.73,9.17,5.66-8.07,11.53-9.37,14.7-9.37a11.07,11.07,0,0,1,5.54,1.46c3.41,2,5.49,5.76,5.7,10.36a24,24,0,0,1-2.35,10.73c11.4,1.14,16.56,7.34,16.56,13.49,0,5.9-5.13,12.2-16.28,13.46a23.26,23.26,0,0,1,2.4,10.54c-.18,4.55-2.22,8.31-5.61,10.34a11,11,0,0,1-5.6,1.5c-5.2,0-10.45-3.3-14.73-9.17C926.88,245.67,921,247,917.84,247Z"/><path class="cls-3" d="M913.52,242.65a11.1,11.1,0,0,1-5.54-1.46c-3.41-2-5.48-5.76-5.7-10.36a23.88,23.88,0,0,1,2.36-10.73c-11.41-1.14-16.57-7.34-16.57-13.49,0-5.9,5.13-12.2,16.28-13.46-4.7-10.24-2-17.75,3.21-20.88a11,11,0,0,1,5.61-1.5c5.2,0,10.44,3.3,14.72,9.17,5.67-8.08,11.53-9.37,14.71-9.37a11,11,0,0,1,5.54,1.46c3.41,2,5.48,5.75,5.7,10.35a24,24,0,0,1-2.36,10.74c11.41,1.14,16.57,7.34,16.57,13.49,0,5.9-5.13,12.2-16.28,13.45a23.15,23.15,0,0,1,2.39,10.55c-.17,4.54-2.22,8.31-5.61,10.33a10.85,10.85,0,0,1-5.6,1.51c-5.2,0-10.44-3.31-14.72-9.17C922.56,241.35,916.7,242.65,913.52,242.65Z"/><path class="cls-12" d="M939.46,207.47c-.77,0-2.3-.39-2.3-.86s1.53-.87,2.3-.87c1.35,0,1.94.46,1.94.87S940.79,207.47,939.46,207.47Z"/><path class="cls-13" d="M962.87,206.61c0-4.07-4.64-8.5-15.26-8.5a28.24,28.24,0,0,0-6.35.9,28.82,28.82,0,0,0,4-5c5.23-9,3.82-15.42.31-17.46s-9.68-.27-15,8.92a28.66,28.66,0,0,0-2.56,6.43,29,29,0,0,0-2.63-6.4c-5.34-9-11.63-10.82-15.12-8.74s-4.92,8.33.52,17.45a27.78,27.78,0,0,0,3.8,4.76,27.75,27.75,0,0,0-6-.82c-10.42,0-15.26,4.43-15.26,8.5s4.64,8.5,15.26,8.5a28.24,28.24,0,0,0,6.35-.9,28.45,28.45,0,0,0-4,5c-5.23,9-3.82,15.42-.31,17.46s9.68.26,15-8.93a28.94,28.94,0,0,0,2.56-6.43,29,29,0,0,0,2.63,6.4c5.34,8.95,11.63,10.83,15.12,8.75s4.92-8.34-.52-17.46a28.16,28.16,0,0,0-3.8-4.76,27.82,27.82,0,0,0,6,.83C958,215.11,962.87,210.67,962.87,206.61Zm-34.8,1.91a2.91,2.91,0,0,0-.75-.65,2.71,2.71,0,0,0-.89-.32,2.66,2.66,0,0,0,0-1.87,2.67,2.67,0,0,0,.88-.33,3.08,3.08,0,0,0,.74-.66,2.84,2.84,0,0,0,.74.65,3.09,3.09,0,0,0,.91.33,2.8,2.8,0,0,0-.18.94,2.93,2.93,0,0,0,.17.92,2.93,2.93,0,0,0-.88.34A2.84,2.84,0,0,0,928.07,208.52Z"/><path class="cls-14" d="M927.8,214.42a7.81,7.81,0,1,1,7.81-7.81A7.81,7.81,0,0,1,927.8,214.42Z"/><path class="cls-12" d="M916,205.74c.77,0,2.3.39,2.3.87s-1.53.86-2.3.86c-1.35,0-1.94-.45-1.94-.86S914.64,205.74,916,205.74Z"/><path class="cls-12" d="M932.55,217.35c-.37-.68-.76-2.21-.34-2.44s1.49.94,1.86,1.61c.64,1.19.53,1.93.17,2.12S933.18,218.51,932.55,217.35Z"/><path class="cls-12" d="M922.87,195.87c.37.68.76,2.21.34,2.43s-1.49-.93-1.86-1.61c-.64-1.19-.53-1.92-.17-2.12S922.24,194.7,922.87,195.87Z"/><path class="cls-12" d="M934.55,197c-.4.66-1.53,1.76-1.93,1.52s0-1.76.45-2.42c.71-1.16,1.4-1.43,1.75-1.21S935.24,195.88,934.55,197Z"/><path class="cls-12" d="M920.87,216.2c.4-.66,1.53-1.77,1.93-1.52s0,1.76-.45,2.42c-.71,1.15-1.4,1.42-1.75,1.21S920.18,217.33,920.87,216.2Z"/><path class="cls-12" d="M937.34,213.39c-.66-.4-1.77-1.52-1.53-1.93s1.76,0,2.42.45c1.16.69,1.43,1.38,1.22,1.74S938.48,214.07,937.34,213.39Z"/><path class="cls-12" d="M918.08,199.83c.66.39,1.77,1.51,1.53,1.92s-1.76-.05-2.42-.44c-1.16-.7-1.43-1.39-1.22-1.74S916.94,199.14,918.08,199.83Z"/><path class="cls-12" d="M926.34,218.31c0-.77.49-2.29,1-2.27s.8,1.57.76,2.34c0,1.35-.53,1.92-.94,1.9S926.28,219.63,926.34,218.31Z"/><path class="cls-12" d="M929.08,194.91c0,.77-.49,2.28-1,2.26s-.8-1.57-.76-2.34c0-1.35.53-1.92.94-1.9S929.14,193.58,929.08,194.91Z"/><path class="cls-12" d="M938.51,201.9c-.68.36-2.22.73-2.44.31s.95-1.48,1.63-1.84c1.2-.63,1.93-.5,2.13-.14S939.68,201.28,938.51,201.9Z"/><path class="cls-12" d="M916.91,211.32c.69-.36,2.22-.73,2.44-.31s-1,1.47-1.63,1.83c-1.2.63-1.93.51-2.12.15S915.74,211.94,916.91,211.32Z"/><path class="cls-7" d="M732.27,342.72a11.07,11.07,0,0,1-5.54-1.46c-3.41-2-5.49-5.76-5.7-10.36a24,24,0,0,1,2.35-10.73c-11.4-1.14-16.56-7.34-16.56-13.49,0-5.9,5.13-12.2,16.28-13.46-4.71-10.24-2-17.75,3.21-20.88a11,11,0,0,1,5.6-1.5c5.2,0,10.45,3.3,14.73,9.17,5.66-8.08,11.53-9.37,14.7-9.37a11,11,0,0,1,5.54,1.46c3.41,2,5.49,5.75,5.7,10.35a24.06,24.06,0,0,1-2.35,10.74c11.4,1.13,16.56,7.34,16.56,13.49,0,5.9-5.13,12.2-16.28,13.45a23.17,23.17,0,0,1,2.4,10.55c-.18,4.54-2.22,8.31-5.61,10.33a10.88,10.88,0,0,1-5.6,1.51c-5.2,0-10.45-3.31-14.73-9.17C741.31,341.42,735.44,342.72,732.27,342.72Z"/><path class="cls-3" d="M728,338.4a11,11,0,0,1-5.54-1.46c-3.41-2-5.48-5.75-5.7-10.35a23.92,23.92,0,0,1,2.36-10.74c-11.41-1.14-16.57-7.34-16.57-13.49,0-5.9,5.13-12.2,16.28-13.45-4.7-10.25-2-17.76,3.21-20.88a10.92,10.92,0,0,1,5.61-1.51c5.2,0,10.44,3.3,14.72,9.17,5.67-8.07,11.53-9.37,14.71-9.37a11.1,11.1,0,0,1,5.54,1.46c3.41,2,5.48,5.75,5.7,10.36a23.88,23.88,0,0,1-2.36,10.73c11.41,1.14,16.57,7.34,16.57,13.49,0,5.9-5.13,12.2-16.28,13.45a23.15,23.15,0,0,1,2.39,10.55c-.17,4.55-2.22,8.31-5.61,10.34a10.94,10.94,0,0,1-5.6,1.5c-5.2,0-10.44-3.3-14.72-9.17C737,337.11,731.13,338.4,728,338.4Z"/><path class="cls-12" d="M753.89,303.22c-.77,0-2.3-.38-2.3-.86s1.53-.86,2.3-.86c1.35,0,1.94.45,1.94.86S755.22,303.22,753.89,303.22Z"/><path class="cls-13" d="M777.3,302.36c0-4.06-4.64-8.5-15.26-8.5a28.24,28.24,0,0,0-6.35.9,28.45,28.45,0,0,0,4-5c5.23-9,3.82-15.42.31-17.46s-9.68-.26-15,8.92a28.56,28.56,0,0,0-2.56,6.44,28.81,28.81,0,0,0-2.63-6.4c-5.34-9-11.63-10.83-15.12-8.75s-4.92,8.34.52,17.46a28.16,28.16,0,0,0,3.8,4.76,27.21,27.21,0,0,0-6-.83c-10.42,0-15.26,4.44-15.26,8.5s4.64,8.5,15.26,8.5a28.24,28.24,0,0,0,6.35-.9,28.82,28.82,0,0,0-4,5c-5.23,9-3.82,15.42-.31,17.46s9.68.26,15-8.92a29,29,0,0,0,2.56-6.44,29.11,29.11,0,0,0,2.63,6.41c5.35,8.95,11.63,10.82,15.12,8.74s4.92-8.33-.52-17.45A27.4,27.4,0,0,0,756,310a27.75,27.75,0,0,0,6,.82C772.46,310.86,777.3,306.43,777.3,302.36Zm-34.8,1.92a2.73,2.73,0,0,0-.75-.65,3,3,0,0,0-.89-.33,3.05,3.05,0,0,0,.17-.94,2.93,2.93,0,0,0-.17-.92,2.93,2.93,0,0,0,.88-.34,2.84,2.84,0,0,0,.74-.65,3,3,0,0,0,.74.64,2.83,2.83,0,0,0,.91.33,2.8,2.8,0,0,0-.18.94,3,3,0,0,0,.17.93,2.75,2.75,0,0,0-.88.33A3.08,3.08,0,0,0,742.5,304.28Z"/><path class="cls-14" d="M742.23,310.17a7.81,7.81,0,1,1,7.81-7.81A7.8,7.8,0,0,1,742.23,310.17Z"/><path class="cls-12" d="M730.39,301.5c.77,0,2.3.39,2.3.86s-1.53.86-2.3.86c-1.35,0-1.94-.45-1.94-.86S729.07,301.5,730.39,301.5Z"/><path class="cls-12" d="M747,313.1c-.37-.68-.76-2.21-.34-2.43s1.49.93,1.86,1.61c.64,1.19.53,1.92.17,2.12S747.61,314.27,747,313.1Z"/><path class="cls-12" d="M737.3,291.62c.37.68.76,2.21.34,2.44s-1.49-.94-1.86-1.62c-.64-1.18-.53-1.92-.17-2.11S736.67,290.46,737.3,291.62Z"/><path class="cls-12" d="M749,292.77c-.4.66-1.53,1.77-1.93,1.52s.05-1.76.46-2.42c.7-1.15,1.39-1.42,1.74-1.21S749.67,291.64,749,292.77Z"/><path class="cls-12" d="M735.3,312c.4-.66,1.53-1.76,1.93-1.52s-.05,1.76-.45,2.42c-.71,1.15-1.4,1.42-1.75,1.21S734.61,313.09,735.3,312Z"/><path class="cls-12" d="M751.77,309.14c-.66-.4-1.77-1.51-1.53-1.92s1.76,0,2.42.44c1.16.7,1.43,1.39,1.22,1.74S752.91,309.82,751.77,309.14Z"/><path class="cls-12" d="M732.51,295.58c.66.4,1.77,1.52,1.53,1.92s-1.76,0-2.42-.44c-1.16-.7-1.43-1.39-1.22-1.74S731.37,294.9,732.51,295.58Z"/><path class="cls-12" d="M740.77,314.06c0-.77.49-2.28,1-2.26s.8,1.56.76,2.34c0,1.35-.53,1.92-.94,1.9S740.71,315.39,740.77,314.06Z"/><path class="cls-12" d="M743.51,290.66c0,.77-.49,2.29-1,2.26s-.8-1.56-.76-2.33c.05-1.35.53-1.92.94-1.91S743.57,289.34,743.51,290.66Z"/><path class="cls-12" d="M752.94,297.65c-.68.36-2.22.73-2.44.31s1-1.47,1.63-1.84c1.2-.62,1.93-.5,2.13-.14S754.11,297,752.94,297.65Z"/><path class="cls-12" d="M731.34,307.07c.69-.36,2.22-.73,2.44-.31s-.95,1.48-1.63,1.84c-1.2.63-1.93.5-2.12.14S730.17,307.69,731.34,307.07Z"/><path class="cls-7" d="M1011.06,342.42a11.14,11.14,0,0,1-5.55-1.46c-3.41-2-5.48-5.76-5.69-10.36a23.73,23.73,0,0,1,2.35-10.73c-11.41-1.14-16.56-7.34-16.56-13.49,0-5.9,5.12-12.2,16.27-13.46-4.7-10.24-2-17.75,3.22-20.88a10.94,10.94,0,0,1,5.6-1.5c5.2,0,10.44,3.3,14.72,9.17,5.67-8.08,11.53-9.37,14.71-9.37a11,11,0,0,1,5.54,1.46c3.41,2,5.49,5.75,5.7,10.35a24,24,0,0,1-2.36,10.74c11.41,1.13,16.57,7.34,16.57,13.49,0,5.9-5.13,12.2-16.28,13.45a23.3,23.3,0,0,1,2.4,10.55c-.18,4.54-2.22,8.31-5.61,10.33a10.89,10.89,0,0,1-5.61,1.51c-5.19,0-10.44-3.31-14.72-9.17C1020.1,341.12,1014.23,342.42,1011.06,342.42Z"/><path class="cls-3" d="M1006.74,338.1a11,11,0,0,1-5.54-1.46c-3.41-2-5.49-5.75-5.7-10.35a24,24,0,0,1,2.35-10.74c-11.4-1.14-16.56-7.34-16.56-13.49,0-5.9,5.13-12.2,16.28-13.45-4.7-10.25-2-17.76,3.21-20.88a10.88,10.88,0,0,1,5.6-1.51c5.2,0,10.45,3.3,14.73,9.17,5.66-8.07,11.53-9.37,14.7-9.37a11.07,11.07,0,0,1,5.54,1.46c3.41,2,5.49,5.76,5.7,10.36a23.86,23.86,0,0,1-2.35,10.73c11.4,1.14,16.56,7.34,16.56,13.49,0,5.9-5.12,12.2-16.27,13.46a23.21,23.21,0,0,1,2.39,10.54c-.17,4.55-2.22,8.31-5.61,10.34a11,11,0,0,1-5.6,1.5c-5.2,0-10.45-3.3-14.73-9.17C1015.78,336.81,1009.91,338.1,1006.74,338.1Z"/><path class="cls-12" d="M1032.68,302.92c-.78,0-2.31-.38-2.31-.86s1.53-.86,2.31-.86c1.35,0,1.94.45,1.94.86S1034,302.92,1032.68,302.92Z"/><path class="cls-13" d="M1056.08,302.06c0-4.06-4.63-8.5-15.25-8.5a28.32,28.32,0,0,0-6.36.9,27.55,27.55,0,0,0,4-5c5.24-9,3.83-15.42.31-17.46s-9.67-.26-15,8.92a28.56,28.56,0,0,0-2.56,6.44,28.79,28.79,0,0,0-2.64-6.4c-5.34-8.95-11.62-10.83-15.11-8.75s-4.93,8.34.52,17.46a27.67,27.67,0,0,0,3.8,4.76,27.37,27.37,0,0,0-6-.83c-10.42,0-15.25,4.44-15.25,8.5s4.63,8.5,15.25,8.5a28.32,28.32,0,0,0,6.36-.9,28.35,28.35,0,0,0-4,5c-5.23,9-3.83,15.42-.31,17.46s9.67.26,15-8.92a29.16,29.16,0,0,0,2.55-6.43,29.2,29.2,0,0,0,2.64,6.4c5.34,9,11.62,10.82,15.12,8.74s4.92-8.33-.53-17.45a26.93,26.93,0,0,0-3.8-4.76,27.91,27.91,0,0,0,6,.82C1051.25,310.56,1056.08,306.13,1056.08,302.06ZM1021.29,304a2.73,2.73,0,0,0-.75-.65,3,3,0,0,0-.9-.33,2.79,2.79,0,0,0,.17-.94,2.92,2.92,0,0,0-.16-.92,3,3,0,0,0,.88-.34,2.65,2.65,0,0,0,.73-.65,2.75,2.75,0,0,0,1.65,1,2.73,2.73,0,0,0,0,1.87,2.7,2.7,0,0,0-.87.33A3.08,3.08,0,0,0,1021.29,304Z"/><path class="cls-14" d="M1021,309.87a7.81,7.81,0,1,1,7.81-7.81A7.81,7.81,0,0,1,1021,309.87Z"/><path class="cls-12" d="M1009.18,301.2c.77,0,2.3.39,2.3.86s-1.53.86-2.3.86c-1.35,0-1.94-.45-1.94-.86S1007.85,301.2,1009.18,301.2Z"/><path class="cls-12" d="M1025.77,312.8c-.37-.68-.76-2.21-.34-2.43s1.49.93,1.85,1.61c.65,1.19.53,1.92.17,2.12S1026.4,314,1025.77,312.8Z"/><path class="cls-12" d="M1016.08,291.32c.37.68.76,2.21.34,2.44s-1.48-.94-1.85-1.62c-.65-1.18-.53-1.92-.17-2.11S1015.45,290.16,1016.08,291.32Z"/><path class="cls-12" d="M1027.77,292.47c-.4.66-1.53,1.77-1.94,1.52s.06-1.76.46-2.42c.7-1.15,1.4-1.42,1.75-1.21S1028.46,291.34,1027.77,292.47Z"/><path class="cls-12" d="M1014.09,311.65c.4-.66,1.52-1.76,1.93-1.52s-.06,1.76-.46,2.42c-.7,1.15-1.39,1.42-1.74,1.21S1013.4,312.79,1014.09,311.65Z"/><path class="cls-12" d="M1030.56,308.84c-.66-.4-1.78-1.51-1.53-1.92s1.75.05,2.42.44c1.16.7,1.43,1.39,1.22,1.74S1031.7,309.52,1030.56,308.84Z"/><path class="cls-12" d="M1011.29,295.28c.67.4,1.78,1.52,1.54,1.92s-1.76,0-2.42-.44c-1.16-.7-1.44-1.39-1.23-1.74S1010.16,294.6,1011.29,295.28Z"/><path class="cls-12" d="M1019.56,313.76c0-.77.48-2.28,1-2.26s.79,1.56.76,2.34c-.06,1.35-.53,1.92-.95,1.9S1019.5,315.09,1019.56,313.76Z"/><path class="cls-12" d="M1022.3,290.36c0,.77-.49,2.29-1,2.27s-.8-1.57-.77-2.34c.06-1.35.54-1.92.95-1.91S1022.35,289,1022.3,290.36Z"/><path class="cls-12" d="M1031.72,297.35c-.68.36-2.21.73-2.44.31s1-1.47,1.64-1.84c1.2-.62,1.93-.5,2.12-.14S1032.9,296.73,1031.72,297.35Z"/><path class="cls-12" d="M1010.13,306.77c.68-.36,2.22-.73,2.44-.31s-1,1.48-1.64,1.84c-1.19.63-1.93.5-2.12.14S1009,307.39,1010.13,306.77Z"/><path class="cls-7" d="M1106.86,342.06a11.1,11.1,0,0,1-5.54-1.46c-3.41-2-5.49-5.76-5.7-10.36a24,24,0,0,1,2.35-10.73c-11.4-1.14-16.56-7.34-16.56-13.49,0-5.9,5.13-12.2,16.28-13.46-4.7-10.24-2-17.75,3.21-20.88a11,11,0,0,1,5.61-1.5c5.19,0,10.44,3.3,14.72,9.17,5.66-8.08,11.53-9.37,14.7-9.37a11,11,0,0,1,5.54,1.46c3.41,2,5.49,5.75,5.7,10.35a23.8,23.8,0,0,1-2.35,10.74c11.41,1.13,16.56,7.34,16.56,13.49,0,5.9-5.12,12.2-16.27,13.45A23.28,23.28,0,0,1,1147.5,330c-.17,4.54-2.22,8.31-5.61,10.33a10.88,10.88,0,0,1-5.6,1.51c-5.2,0-10.44-3.31-14.72-9.17C1115.9,340.76,1110,342.06,1106.86,342.06Z"/><path class="cls-3" d="M1102.55,337.74a11,11,0,0,1-5.55-1.46c-3.41-2-5.48-5.75-5.69-10.35a23.77,23.77,0,0,1,2.35-10.74c-11.41-1.14-16.56-7.34-16.56-13.49,0-5.9,5.12-12.2,16.27-13.45-4.7-10.25-2-17.76,3.22-20.88a10.88,10.88,0,0,1,5.6-1.51c5.2,0,10.44,3.3,14.72,9.17,5.67-8.07,11.53-9.37,14.71-9.37a11.1,11.1,0,0,1,5.54,1.46c3.41,2,5.49,5.76,5.7,10.36a23.88,23.88,0,0,1-2.36,10.73c11.41,1.14,16.57,7.34,16.57,13.49,0,5.9-5.13,12.2-16.28,13.46a23.23,23.23,0,0,1,2.4,10.54c-.18,4.55-2.22,8.31-5.61,10.34a11,11,0,0,1-5.61,1.5c-5.19,0-10.44-3.3-14.72-9.17C1111.59,336.45,1105.72,337.74,1102.55,337.74Z"/><path class="cls-12" d="M1128.48,302.56c-.77,0-2.3-.38-2.3-.86s1.53-.86,2.3-.86c1.35,0,1.94.45,1.94.86S1129.81,302.56,1128.48,302.56Z"/><path class="cls-13" d="M1151.89,301.7c0-4.06-4.63-8.5-15.26-8.5a28.24,28.24,0,0,0-6.35.9,28,28,0,0,0,4-5c5.23-9,3.83-15.42.31-17.46s-9.68-.26-15,8.92A29,29,0,0,0,1117,287a28.81,28.81,0,0,0-2.63-6.4c-5.34-8.95-11.63-10.83-15.12-8.75s-4.92,8.34.52,17.46a28.16,28.16,0,0,0,3.8,4.76,27.21,27.21,0,0,0-6-.83c-10.42,0-15.26,4.44-15.26,8.5s4.64,8.5,15.26,8.5a28.16,28.16,0,0,0,6.35-.9,28.82,28.82,0,0,0-4,5c-5.23,9-3.82,15.42-.31,17.46s9.68.26,15-8.92a28.66,28.66,0,0,0,2.56-6.43,28.72,28.72,0,0,0,2.64,6.4c5.34,8.95,11.62,10.82,15.11,8.74s4.92-8.33-.52-17.45a27.4,27.4,0,0,0-3.8-4.76,27.83,27.83,0,0,0,6,.82C1147.06,310.2,1151.89,305.77,1151.89,301.7Zm-34.8,1.92a2.84,2.84,0,0,0-.74-.65,3.14,3.14,0,0,0-.9-.33,3.05,3.05,0,0,0,.17-.94,2.92,2.92,0,0,0-.16-.92,3,3,0,0,0,.87-.34,2.84,2.84,0,0,0,.74-.65,2.69,2.69,0,0,0,.75.64,2.78,2.78,0,0,0,.9.33,2.79,2.79,0,0,0-.17.94,3,3,0,0,0,.16.93,2.75,2.75,0,0,0-.88.33A3.08,3.08,0,0,0,1117.09,303.62Z"/><path class="cls-14" d="M1116.82,309.51a7.81,7.81,0,1,1,7.81-7.81A7.8,7.8,0,0,1,1116.82,309.51Z"/><path class="cls-12" d="M1105,300.84c.78,0,2.31.39,2.31.86s-1.53.86-2.31.86c-1.35,0-1.94-.45-1.94-.86S1103.66,300.84,1105,300.84Z"/><path class="cls-12" d="M1121.57,312.44c-.36-.68-.75-2.21-.34-2.43s1.49.93,1.86,1.61c.64,1.19.53,1.92.17,2.12S1122.21,313.61,1121.57,312.44Z"/><path class="cls-12" d="M1111.89,291c.37.68.76,2.21.34,2.44s-1.49-.94-1.86-1.62c-.64-1.18-.53-1.92-.16-2.11S1111.26,289.8,1111.89,291Z"/><path class="cls-12" d="M1123.57,292.11c-.4.66-1.52,1.77-1.93,1.52s.06-1.76.46-2.42c.7-1.15,1.39-1.42,1.74-1.21S1124.26,291,1123.57,292.11Z"/><path class="cls-12" d="M1109.89,311.29c.4-.66,1.53-1.76,1.94-1.52s-.06,1.76-.46,2.42c-.71,1.15-1.4,1.42-1.75,1.21S1109.2,312.43,1109.89,311.29Z"/><path class="cls-12" d="M1126.37,308.48c-.67-.4-1.78-1.51-1.54-1.92s1.76.05,2.42.44c1.16.7,1.44,1.39,1.22,1.74S1127.5,309.16,1126.37,308.48Z"/><path class="cls-12" d="M1107.1,294.92c.66.4,1.78,1.52,1.53,1.92s-1.75,0-2.42-.44c-1.16-.7-1.43-1.38-1.22-1.74S1106,294.24,1107.1,294.92Z"/><path class="cls-12" d="M1115.36,313.4c0-.77.49-2.28,1-2.26s.8,1.57.77,2.34c-.06,1.35-.54,1.92-.95,1.9S1115.3,314.73,1115.36,313.4Z"/><path class="cls-12" d="M1118.1,290c0,.77-.48,2.29-1,2.27s-.79-1.57-.76-2.34c.06-1.35.53-1.92.94-1.91S1118.16,288.68,1118.1,290Z"/><path class="cls-12" d="M1127.53,297c-.68.36-2.22.73-2.44.31s1-1.47,1.64-1.83c1.19-.63,1.92-.51,2.12-.15S1128.7,296.37,1127.53,297Z"/><path class="cls-12" d="M1105.93,306.41c.69-.36,2.22-.73,2.44-.31s-.95,1.48-1.63,1.84c-1.2.63-1.93.5-2.12.14S1104.76,307,1105.93,306.41Z"/><path class="cls-7" d="M824.62,342.72a11.1,11.1,0,0,1-5.54-1.46c-3.41-2-5.49-5.76-5.7-10.36a23.88,23.88,0,0,1,2.36-10.73c-11.41-1.14-16.57-7.34-16.57-13.49,0-5.9,5.13-12.2,16.28-13.46-4.7-10.24-2-17.75,3.21-20.88a11,11,0,0,1,5.61-1.5c5.2,0,10.44,3.3,14.72,9.17,5.67-8.08,11.53-9.37,14.7-9.37a11,11,0,0,1,5.55,1.46c3.41,2,5.48,5.75,5.69,10.35a23.8,23.8,0,0,1-2.35,10.74c11.41,1.13,16.56,7.34,16.56,13.49,0,5.9-5.12,12.2-16.27,13.45a23.28,23.28,0,0,1,2.39,10.55c-.17,4.54-2.22,8.31-5.61,10.33a10.85,10.85,0,0,1-5.6,1.51c-5.2,0-10.44-3.31-14.72-9.17C833.66,341.42,827.8,342.72,824.62,342.72Z"/><path class="cls-3" d="M820.31,338.4a11,11,0,0,1-5.54-1.46c-3.41-2-5.49-5.75-5.7-10.35a23.9,23.9,0,0,1,2.35-10.74c-11.4-1.14-16.56-7.34-16.56-13.49,0-5.9,5.12-12.2,16.28-13.45-4.71-10.25-2-17.76,3.21-20.88a10.88,10.88,0,0,1,5.6-1.51c5.2,0,10.45,3.3,14.73,9.17,5.66-8.07,11.53-9.37,14.7-9.37a11.07,11.07,0,0,1,5.54,1.46c3.41,2,5.49,5.75,5.7,10.36a24,24,0,0,1-2.35,10.73c11.4,1.14,16.56,7.34,16.56,13.49,0,5.9-5.13,12.2-16.28,13.45a23.3,23.3,0,0,1,2.4,10.55c-.18,4.55-2.22,8.31-5.61,10.34a11,11,0,0,1-5.61,1.5c-5.19,0-10.44-3.3-14.72-9.17C829.35,337.11,823.48,338.4,820.31,338.4Z"/><path class="cls-12" d="M846.24,303.22c-.77,0-2.3-.38-2.3-.86s1.53-.86,2.3-.86c1.35,0,1.94.45,1.94.86S847.57,303.22,846.24,303.22Z"/><path class="cls-13" d="M869.65,302.36c0-4.06-4.63-8.5-15.25-8.5a28.32,28.32,0,0,0-6.36.9,28,28,0,0,0,4-5c5.23-9,3.83-15.42.31-17.46s-9.67-.26-15,8.92a29.54,29.54,0,0,0-2.56,6.44,28.34,28.34,0,0,0-2.63-6.4c-5.34-9-11.63-10.83-15.12-8.75s-4.92,8.34.52,17.46a28.27,28.27,0,0,0,3.81,4.76,27.37,27.37,0,0,0-6-.83c-10.42,0-15.25,4.44-15.25,8.5s4.63,8.5,15.25,8.5a28.32,28.32,0,0,0,6.36-.9,27.89,27.89,0,0,0-4,5c-5.24,9-3.83,15.42-.31,17.46s9.67.26,15-8.92a28.56,28.56,0,0,0,2.56-6.44,29.09,29.09,0,0,0,2.64,6.41c5.34,8.95,11.62,10.82,15.11,8.74s4.93-8.33-.52-17.45a27.4,27.4,0,0,0-3.8-4.76,27.91,27.91,0,0,0,6,.82C864.82,310.86,869.65,306.43,869.65,302.36Zm-34.79,1.92a2.88,2.88,0,0,0-.75-.65,3.14,3.14,0,0,0-.9-.33,3.05,3.05,0,0,0,.17-.94,2.92,2.92,0,0,0-.16-.92,3,3,0,0,0,.87-.34.75.75,0,0,1,1.49,0,2.78,2.78,0,0,0,.9.33,2.79,2.79,0,0,0-.17.94,3,3,0,0,0,.16.93,2.62,2.62,0,0,0-.87.33A2.74,2.74,0,0,0,834.86,304.28Z"/><path class="cls-14" d="M834.58,310.17a7.81,7.81,0,1,1,7.81-7.81A7.81,7.81,0,0,1,834.58,310.17Z"/><path class="cls-12" d="M822.75,301.5c.77,0,2.3.39,2.3.86s-1.53.86-2.3.86c-1.36,0-2-.45-2-.86S821.42,301.5,822.75,301.5Z"/><path class="cls-12" d="M839.33,313.1c-.36-.68-.75-2.21-.33-2.43s1.48.93,1.85,1.61c.65,1.19.53,1.92.17,2.12S840,314.27,839.33,313.1Z"/><path class="cls-12" d="M829.65,291.62c.37.68.76,2.21.34,2.44s-1.49-.94-1.85-1.62c-.65-1.18-.53-1.92-.17-2.11S829,290.46,829.65,291.62Z"/><path class="cls-12" d="M841.33,292.77c-.4.66-1.52,1.77-1.93,1.52s.06-1.76.46-2.42c.7-1.15,1.39-1.42,1.74-1.21S842,291.64,841.33,292.77Z"/><path class="cls-12" d="M827.65,312c.4-.66,1.53-1.76,1.94-1.52s-.06,1.76-.46,2.42c-.7,1.15-1.4,1.42-1.75,1.21S827,313.09,827.65,312Z"/><path class="cls-12" d="M844.13,309.14c-.67-.4-1.78-1.51-1.54-1.92s1.76,0,2.42.44c1.16.7,1.44,1.39,1.23,1.74S845.26,309.82,844.13,309.14Z"/><path class="cls-12" d="M824.86,295.58c.66.4,1.78,1.52,1.53,1.92s-1.75,0-2.42-.44c-1.16-.7-1.43-1.39-1.22-1.74S823.72,294.9,824.86,295.58Z"/><path class="cls-12" d="M833.12,314.06c0-.77.49-2.28,1-2.26s.8,1.56.77,2.34c-.06,1.35-.54,1.92-1,1.9S833.07,315.39,833.12,314.06Z"/><path class="cls-12" d="M835.86,290.66c0,.77-.48,2.29-1,2.26s-.79-1.56-.76-2.33c.06-1.35.53-1.92,1-1.91S835.92,289.34,835.86,290.66Z"/><path class="cls-12" d="M845.29,297.65c-.68.36-2.22.73-2.44.31s1-1.47,1.64-1.84c1.19-.62,1.93-.5,2.12-.14S846.46,297,845.29,297.65Z"/><path class="cls-12" d="M823.7,307.07c.68-.36,2.21-.73,2.44-.31s-1,1.48-1.64,1.84c-1.2.63-1.93.5-2.12.14S822.52,307.69,823.7,307.07Z"/><path class="cls-7" d="M917.84,342.42A11.07,11.07,0,0,1,912.3,341c-3.41-2-5.49-5.76-5.7-10.36A24,24,0,0,1,909,319.87c-11.4-1.14-16.56-7.34-16.56-13.49,0-5.9,5.13-12.2,16.28-13.46-4.71-10.24-2-17.75,3.21-20.88a11,11,0,0,1,5.6-1.5c5.2,0,10.45,3.3,14.73,9.17,5.66-8.08,11.53-9.37,14.7-9.37a11,11,0,0,1,5.54,1.46c3.41,2,5.49,5.75,5.7,10.35a24.06,24.06,0,0,1-2.35,10.74c11.4,1.13,16.56,7.34,16.56,13.49,0,5.9-5.13,12.2-16.28,13.45a23.3,23.3,0,0,1,2.4,10.55c-.18,4.54-2.22,8.31-5.61,10.33a10.88,10.88,0,0,1-5.6,1.51c-5.2,0-10.45-3.31-14.73-9.17C926.88,341.12,921,342.42,917.84,342.42Z"/><path class="cls-3" d="M913.52,338.1a11,11,0,0,1-5.54-1.46c-3.41-2-5.48-5.75-5.7-10.35a23.92,23.92,0,0,1,2.36-10.74c-11.41-1.14-16.57-7.34-16.57-13.49,0-5.9,5.13-12.2,16.28-13.45-4.7-10.25-2-17.76,3.21-20.88a10.92,10.92,0,0,1,5.61-1.51c5.2,0,10.44,3.3,14.72,9.17,5.67-8.07,11.53-9.37,14.71-9.37a11.1,11.1,0,0,1,5.54,1.46c3.41,2,5.48,5.76,5.7,10.36a23.88,23.88,0,0,1-2.36,10.73c11.41,1.14,16.57,7.34,16.57,13.49,0,5.9-5.13,12.2-16.28,13.46a23.08,23.08,0,0,1,2.39,10.54c-.17,4.55-2.22,8.31-5.61,10.34a10.94,10.94,0,0,1-5.6,1.5c-5.2,0-10.44-3.3-14.72-9.17C922.56,336.81,916.7,338.1,913.52,338.1Z"/><path class="cls-12" d="M939.46,302.92c-.77,0-2.3-.38-2.3-.86s1.53-.86,2.3-.86c1.35,0,1.94.45,1.94.86S940.79,302.92,939.46,302.92Z"/><path class="cls-13" d="M962.87,302.06c0-4.06-4.64-8.5-15.26-8.5a28.24,28.24,0,0,0-6.35.9,28.45,28.45,0,0,0,4-5c5.23-9,3.82-15.42.31-17.46s-9.68-.26-15,8.92a28.56,28.56,0,0,0-2.56,6.44,28.81,28.81,0,0,0-2.63-6.4c-5.34-8.95-11.63-10.83-15.12-8.75s-4.92,8.34.52,17.46a28.16,28.16,0,0,0,3.8,4.76,27.21,27.21,0,0,0-6-.83c-10.42,0-15.26,4.44-15.26,8.5s4.64,8.5,15.26,8.5a28.24,28.24,0,0,0,6.35-.9,28.82,28.82,0,0,0-4,5c-5.23,9-3.82,15.42-.31,17.46s9.68.26,15-8.92a29.14,29.14,0,0,0,2.56-6.43,29.22,29.22,0,0,0,2.63,6.4c5.34,9,11.63,10.82,15.12,8.74s4.92-8.33-.52-17.45a27.4,27.4,0,0,0-3.8-4.76,27.75,27.75,0,0,0,6,.82C958,310.56,962.87,306.13,962.87,302.06ZM928.07,304a2.73,2.73,0,0,0-.75-.65,3,3,0,0,0-.89-.33,3.05,3.05,0,0,0,.17-.94,2.93,2.93,0,0,0-.17-.92,2.93,2.93,0,0,0,.88-.34,2.84,2.84,0,0,0,.74-.65,2.8,2.8,0,0,0,.74.64,2.83,2.83,0,0,0,.91.33,2.8,2.8,0,0,0-.18.94,3,3,0,0,0,.17.93,2.67,2.67,0,0,0-.88.33A3.08,3.08,0,0,0,928.07,304Z"/><path class="cls-14" d="M927.8,309.87a7.81,7.81,0,1,1,7.81-7.81A7.8,7.8,0,0,1,927.8,309.87Z"/><path class="cls-12" d="M916,301.2c.77,0,2.3.39,2.3.86s-1.53.86-2.3.86c-1.35,0-1.94-.45-1.94-.86S914.64,301.2,916,301.2Z"/><path class="cls-12" d="M932.55,312.8c-.37-.68-.76-2.21-.34-2.43s1.49.93,1.86,1.61c.64,1.19.53,1.92.17,2.12S933.18,314,932.55,312.8Z"/><path class="cls-12" d="M922.87,291.32c.37.68.76,2.21.34,2.44s-1.49-.94-1.86-1.62c-.64-1.18-.53-1.92-.17-2.11S922.24,290.16,922.87,291.32Z"/><path class="cls-12" d="M934.55,292.47c-.4.66-1.53,1.77-1.93,1.52s0-1.76.45-2.42c.71-1.15,1.4-1.42,1.75-1.21S935.24,291.34,934.55,292.47Z"/><path class="cls-12" d="M920.87,311.65c.4-.66,1.53-1.76,1.93-1.52s0,1.76-.45,2.42c-.71,1.15-1.4,1.42-1.75,1.21S920.18,312.79,920.87,311.65Z"/><path class="cls-12" d="M937.34,308.84c-.66-.4-1.77-1.51-1.53-1.92s1.76.05,2.42.44c1.16.7,1.43,1.39,1.22,1.74S938.48,309.52,937.34,308.84Z"/><path class="cls-12" d="M918.08,295.28c.66.4,1.77,1.52,1.53,1.92s-1.76,0-2.42-.44c-1.16-.7-1.43-1.39-1.22-1.74S916.94,294.6,918.08,295.28Z"/><path class="cls-12" d="M926.34,313.76c0-.77.49-2.28,1-2.26s.8,1.56.76,2.34c0,1.35-.53,1.92-.94,1.9S926.28,315.09,926.34,313.76Z"/><path class="cls-12" d="M929.08,290.36c0,.77-.49,2.29-1,2.27s-.8-1.57-.76-2.34c0-1.35.53-1.92.94-1.91S929.14,289,929.08,290.36Z"/><path class="cls-12" d="M938.51,297.35c-.68.36-2.22.73-2.44.31s.95-1.47,1.63-1.84c1.2-.62,1.93-.5,2.13-.14S939.68,296.73,938.51,297.35Z"/><path class="cls-12" d="M916.91,306.77c.69-.36,2.22-.73,2.44-.31s-1,1.48-1.63,1.84c-1.2.63-1.93.5-2.12.14S915.74,307.39,916.91,306.77Z"/><path class="cls-7" d="M732.27,470a11.07,11.07,0,0,1-5.54-1.46c-3.41-2-5.49-5.75-5.7-10.36a24,24,0,0,1,2.35-10.73C712,446.3,706.82,440.1,706.82,434c0-5.9,5.13-12.2,16.28-13.45-4.71-10.25-2-17.76,3.21-20.89a11,11,0,0,1,5.6-1.5c5.2,0,10.45,3.3,14.73,9.17,5.66-8.08,11.53-9.37,14.7-9.37a11,11,0,0,1,5.54,1.46c3.41,2,5.49,5.75,5.7,10.35a24,24,0,0,1-2.35,10.74c11.4,1.14,16.56,7.34,16.56,13.49,0,5.9-5.13,12.2-16.28,13.45a23.17,23.17,0,0,1,2.4,10.55c-.18,4.54-2.22,8.31-5.61,10.33a10.88,10.88,0,0,1-5.6,1.51c-5.2,0-10.45-3.3-14.73-9.17C741.31,468.69,735.44,470,732.27,470Z"/><path class="cls-3" d="M728,465.67a11,11,0,0,1-5.54-1.46c-3.41-2-5.48-5.75-5.7-10.35a23.88,23.88,0,0,1,2.36-10.73c-11.41-1.14-16.57-7.35-16.57-13.5,0-5.89,5.13-12.2,16.28-13.45-4.7-10.24-2-17.75,3.21-20.88a10.92,10.92,0,0,1,5.61-1.51c5.2,0,10.44,3.31,14.72,9.17,5.67-8.07,11.53-9.37,14.71-9.37a11.1,11.1,0,0,1,5.54,1.46c3.41,2,5.48,5.76,5.7,10.36a23.88,23.88,0,0,1-2.36,10.73c11.41,1.14,16.57,7.34,16.57,13.49,0,5.9-5.13,12.2-16.28,13.46a23.11,23.11,0,0,1,2.39,10.54c-.17,4.55-2.22,8.31-5.61,10.34a10.94,10.94,0,0,1-5.6,1.5c-5.2,0-10.44-3.3-14.72-9.17C737,464.38,731.13,465.67,728,465.67Z"/><path class="cls-12" d="M753.89,430.5c-.77,0-2.3-.39-2.3-.87s1.53-.86,2.3-.86c1.35,0,1.94.45,1.94.86S755.22,430.5,753.89,430.5Z"/><path class="cls-13" d="M777.3,429.63c0-4.06-4.64-8.5-15.26-8.5a27.74,27.74,0,0,0-6.35.91,28.85,28.85,0,0,0,4-5.05c5.23-9,3.82-15.42.31-17.46s-9.68-.26-15,8.93a28.47,28.47,0,0,0-2.56,6.43,29,29,0,0,0-2.63-6.4c-5.34-8.95-11.63-10.83-15.12-8.74s-4.92,8.33.52,17.45A27.78,27.78,0,0,0,729,422a27.82,27.82,0,0,0-6-.83c-10.42,0-15.26,4.44-15.26,8.5s4.64,8.5,15.26,8.5a28.24,28.24,0,0,0,6.35-.9,28.82,28.82,0,0,0-4,5c-5.23,9-3.82,15.42-.31,17.46s9.68.27,15-8.92a29.14,29.14,0,0,0,2.56-6.43,29,29,0,0,0,2.63,6.4c5.35,9,11.63,10.83,15.12,8.74s4.92-8.33-.52-17.45a27.78,27.78,0,0,0-3.8-4.76,27.75,27.75,0,0,0,6,.82C772.46,438.13,777.3,433.7,777.3,429.63Zm-34.8,1.92a2.91,2.91,0,0,0-.75-.65,2.71,2.71,0,0,0-.89-.32,3.12,3.12,0,0,0,.17-.95.73.73,0,0,1,.71-1.25,3.08,3.08,0,0,0,.74-.66,3,3,0,0,0,.74.65.74.74,0,0,1,.73,1.26.73.73,0,0,1-.71,1.26A3.08,3.08,0,0,0,742.5,431.55Z"/><path class="cls-14" d="M742.23,437.45a7.82,7.82,0,1,1,7.81-7.82A7.81,7.81,0,0,1,742.23,437.45Z"/><path class="cls-12" d="M730.39,428.77c.77,0,2.3.39,2.3.86s-1.53.87-2.3.87c-1.35,0-1.94-.45-1.94-.87S729.07,428.77,730.39,428.77Z"/><path class="cls-12" d="M747,440.37c-.37-.68-.76-2.21-.34-2.43s1.49.93,1.86,1.61c.64,1.19.53,1.92.17,2.12S747.61,441.54,747,440.37Z"/><path class="cls-12" d="M737.3,418.89c.37.68.76,2.21.34,2.44s-1.49-.93-1.86-1.61c-.64-1.19-.53-1.92-.17-2.12S736.67,417.73,737.3,418.89Z"/><path class="cls-12" d="M749,420c-.4.66-1.53,1.77-1.93,1.52s.05-1.75.46-2.41c.7-1.16,1.39-1.43,1.74-1.22S749.67,418.91,749,420Z"/><path class="cls-12" d="M735.3,439.23c.4-.66,1.53-1.77,1.93-1.52s-.05,1.75-.45,2.41c-.71,1.16-1.4,1.43-1.75,1.21S734.61,440.36,735.3,439.23Z"/><path class="cls-12" d="M751.77,436.41c-.66-.39-1.77-1.51-1.53-1.92s1.76.05,2.42.45c1.16.69,1.43,1.38,1.22,1.73S752.91,437.1,751.77,436.41Z"/><path class="cls-12" d="M732.51,422.85c.66.4,1.77,1.52,1.53,1.93s-1.76,0-2.42-.45c-1.16-.69-1.43-1.38-1.22-1.74S731.37,422.17,732.51,422.85Z"/><path class="cls-12" d="M740.77,441.33c0-.77.49-2.28,1-2.26s.8,1.57.76,2.34c0,1.35-.53,1.92-.94,1.9S740.71,442.66,740.77,441.33Z"/><path class="cls-12" d="M743.51,417.93c0,.77-.49,2.29-1,2.27s-.8-1.57-.76-2.34c.05-1.35.53-1.92.94-1.9S743.57,416.61,743.51,417.93Z"/><path class="cls-12" d="M752.94,424.92c-.68.36-2.22.74-2.44.31s1-1.47,1.63-1.83c1.2-.63,1.93-.51,2.13-.14S754.11,424.31,752.94,424.92Z"/><path class="cls-12" d="M731.34,434.34c.69-.36,2.22-.73,2.44-.31s-.95,1.48-1.63,1.84c-1.2.63-1.93.51-2.12.14S730.17,435,731.34,434.34Z"/><path class="cls-7" d="M1011.06,469.69a11.14,11.14,0,0,1-5.55-1.46c-3.41-2-5.48-5.75-5.69-10.36a23.73,23.73,0,0,1,2.35-10.73c-11.41-1.14-16.56-7.34-16.56-13.49,0-5.9,5.12-12.2,16.27-13.45-4.7-10.25-2-17.76,3.22-20.89a10.94,10.94,0,0,1,5.6-1.5c5.2,0,10.44,3.3,14.72,9.17,5.67-8.08,11.53-9.37,14.71-9.37a11,11,0,0,1,5.54,1.46c3.41,2,5.49,5.75,5.7,10.36a23.91,23.91,0,0,1-2.36,10.73c11.41,1.14,16.57,7.34,16.57,13.49,0,5.9-5.13,12.2-16.28,13.45a23.3,23.3,0,0,1,2.4,10.55c-.18,4.54-2.22,8.31-5.61,10.33a10.89,10.89,0,0,1-5.61,1.51c-5.19,0-10.44-3.3-14.72-9.17C1020.1,468.39,1014.23,469.69,1011.06,469.69Z"/><path class="cls-3" d="M1006.74,465.37a11,11,0,0,1-5.54-1.46c-3.41-2-5.49-5.75-5.7-10.35a24,24,0,0,1,2.35-10.73c-11.4-1.14-16.56-7.35-16.56-13.5,0-5.89,5.13-12.2,16.28-13.45-4.7-10.24-2-17.75,3.21-20.88a10.88,10.88,0,0,1,5.6-1.51c5.2,0,10.45,3.31,14.73,9.18,5.66-8.08,11.53-9.38,14.7-9.38a11.07,11.07,0,0,1,5.54,1.46c3.41,2,5.49,5.76,5.7,10.36a23.86,23.86,0,0,1-2.35,10.73c11.4,1.14,16.56,7.34,16.56,13.49,0,5.9-5.12,12.2-16.27,13.46a23.24,23.24,0,0,1,2.39,10.54c-.17,4.55-2.22,8.32-5.61,10.34a11,11,0,0,1-5.6,1.5c-5.2,0-10.45-3.3-14.73-9.17C1015.78,464.08,1009.91,465.37,1006.74,465.37Z"/><path class="cls-12" d="M1032.68,430.2c-.78,0-2.31-.39-2.31-.87s1.53-.86,2.31-.86c1.35,0,1.94.45,1.94.86S1034,430.2,1032.68,430.2Z"/><path class="cls-13" d="M1056.08,429.33c0-4.06-4.63-8.5-15.25-8.5a27.82,27.82,0,0,0-6.36.91,27.93,27.93,0,0,0,4-5.05c5.24-9,3.83-15.42.31-17.46s-9.67-.26-15,8.93a28.47,28.47,0,0,0-2.56,6.43,29,29,0,0,0-2.64-6.4c-5.34-8.95-11.62-10.83-15.11-8.74s-4.93,8.33.52,17.45a27.29,27.29,0,0,0,3.8,4.76,28,28,0,0,0-6-.83c-10.42,0-15.25,4.44-15.25,8.5s4.63,8.5,15.25,8.5a28.32,28.32,0,0,0,6.36-.9,28.35,28.35,0,0,0-4,5c-5.23,9-3.83,15.42-.31,17.46s9.67.27,15-8.92a29.16,29.16,0,0,0,2.55-6.43,29,29,0,0,0,2.64,6.4c5.34,8.95,11.62,10.83,15.12,8.74s4.92-8.33-.53-17.45a27.29,27.29,0,0,0-3.8-4.76,27.91,27.91,0,0,0,6,.82C1051.25,437.83,1056.08,433.4,1056.08,429.33Zm-34.79,1.92a2.91,2.91,0,0,0-.75-.65,2.76,2.76,0,0,0-.9-.32,2.84,2.84,0,0,0,.17-.95,2.92,2.92,0,0,0-.16-.92,3,3,0,0,0,.88-.33,2.86,2.86,0,0,0,.73-.66,3.08,3.08,0,0,0,.75.65,2.85,2.85,0,0,0,.9.32,3.11,3.11,0,0,0-.17.94.74.74,0,0,1-.71,1.26A3.08,3.08,0,0,0,1021.29,431.25Z"/><path class="cls-14" d="M1021,437.15a7.82,7.82,0,1,1,7.81-7.82A7.82,7.82,0,0,1,1021,437.15Z"/><path class="cls-12" d="M1009.18,428.47c.77,0,2.3.39,2.3.86s-1.53.87-2.3.87c-1.35,0-1.94-.45-1.94-.87S1007.85,428.47,1009.18,428.47Z"/><path class="cls-12" d="M1025.77,440.07c-.37-.68-.76-2.21-.34-2.43s1.49.93,1.85,1.61c.65,1.19.53,1.92.17,2.12S1026.4,441.24,1025.77,440.07Z"/><path class="cls-12" d="M1016.08,418.59c.37.68.76,2.21.34,2.44s-1.48-.93-1.85-1.61c-.65-1.19-.53-1.92-.17-2.12S1015.45,417.43,1016.08,418.59Z"/><path class="cls-12" d="M1027.77,419.74c-.4.66-1.53,1.77-1.94,1.52s.06-1.75.46-2.41c.7-1.16,1.4-1.43,1.75-1.21S1028.46,418.61,1027.77,419.74Z"/><path class="cls-12" d="M1014.09,438.93c.4-.66,1.52-1.77,1.93-1.52s-.06,1.75-.46,2.41c-.7,1.16-1.39,1.43-1.74,1.21S1013.4,440.06,1014.09,438.93Z"/><path class="cls-12" d="M1030.56,436.11c-.66-.39-1.78-1.51-1.53-1.92s1.75.05,2.42.45c1.16.69,1.43,1.38,1.22,1.73S1031.7,436.8,1030.56,436.11Z"/><path class="cls-12" d="M1011.29,422.55c.67.4,1.78,1.52,1.54,1.93s-1.76-.05-2.42-.45c-1.16-.69-1.44-1.38-1.23-1.74S1010.16,421.87,1011.29,422.55Z"/><path class="cls-12" d="M1019.56,441c0-.77.48-2.28,1-2.26s.79,1.57.76,2.34c-.06,1.35-.53,1.92-.95,1.9S1019.5,442.36,1019.56,441Z"/><path class="cls-12" d="M1022.3,417.63c0,.77-.49,2.29-1,2.27s-.8-1.57-.77-2.34c.06-1.35.54-1.92.95-1.9S1022.35,416.31,1022.3,417.63Z"/><path class="cls-12" d="M1031.72,424.62c-.68.36-2.21.74-2.44.31s1-1.47,1.64-1.83c1.2-.63,1.93-.51,2.12-.14S1032.9,424,1031.72,424.62Z"/><path class="cls-12" d="M1010.13,434c.68-.36,2.22-.73,2.44-.31s-1,1.48-1.64,1.84c-1.19.63-1.93.51-2.12.14S1009,434.66,1010.13,434Z"/><path class="cls-7" d="M824.62,470a11.1,11.1,0,0,1-5.54-1.46c-3.41-2-5.49-5.75-5.7-10.36a23.88,23.88,0,0,1,2.36-10.73c-11.41-1.14-16.57-7.34-16.57-13.49,0-5.9,5.13-12.2,16.28-13.45-4.7-10.25-2-17.76,3.21-20.89a11,11,0,0,1,5.61-1.5c5.2,0,10.44,3.3,14.72,9.17,5.67-8.08,11.53-9.37,14.7-9.37a11,11,0,0,1,5.55,1.46c3.41,2,5.48,5.75,5.69,10.35a23.77,23.77,0,0,1-2.35,10.74C874,421.6,879.14,427.8,879.14,434c0,5.9-5.12,12.2-16.27,13.45A23.28,23.28,0,0,1,865.26,458c-.17,4.54-2.22,8.31-5.61,10.33a10.85,10.85,0,0,1-5.6,1.51c-5.2,0-10.44-3.3-14.72-9.17C833.66,468.69,827.8,470,824.62,470Z"/><path class="cls-3" d="M820.31,465.67a11,11,0,0,1-5.54-1.46c-3.41-2-5.49-5.75-5.7-10.35a23.86,23.86,0,0,1,2.35-10.73c-11.4-1.14-16.56-7.35-16.56-13.5,0-5.89,5.12-12.2,16.28-13.45-4.71-10.24-2-17.75,3.21-20.88a10.88,10.88,0,0,1,5.6-1.51c5.2,0,10.45,3.31,14.73,9.17,5.66-8.07,11.53-9.37,14.7-9.37a11.07,11.07,0,0,1,5.54,1.46c3.41,2,5.49,5.76,5.7,10.36a24,24,0,0,1-2.35,10.73c11.4,1.14,16.56,7.34,16.56,13.49,0,5.9-5.13,12.2-16.28,13.46a23.26,23.26,0,0,1,2.4,10.54c-.18,4.55-2.22,8.31-5.61,10.34a11,11,0,0,1-5.61,1.5c-5.19,0-10.44-3.3-14.72-9.17C829.35,464.38,823.48,465.67,820.31,465.67Z"/><path class="cls-12" d="M846.24,430.5c-.77,0-2.3-.39-2.3-.87s1.53-.86,2.3-.86c1.35,0,1.94.45,1.94.86S847.57,430.5,846.24,430.5Z"/><path class="cls-13" d="M869.65,429.63c0-4.06-4.63-8.5-15.25-8.5A27.82,27.82,0,0,0,848,422a28.38,28.38,0,0,0,4-5.05c5.23-9,3.83-15.42.31-17.46s-9.67-.26-15,8.93a29.44,29.44,0,0,0-2.56,6.43,28.54,28.54,0,0,0-2.63-6.4c-5.34-8.95-11.63-10.83-15.12-8.74s-4.92,8.33.52,17.45a27.88,27.88,0,0,0,3.81,4.76,28,28,0,0,0-6-.83c-10.42,0-15.25,4.44-15.25,8.5s4.63,8.5,15.25,8.5a28.32,28.32,0,0,0,6.36-.9,27.89,27.89,0,0,0-4,5c-5.24,9-3.83,15.42-.31,17.46s9.67.27,15-8.92a28.66,28.66,0,0,0,2.56-6.43,29,29,0,0,0,2.64,6.4c5.34,9,11.62,10.83,15.11,8.74s4.93-8.33-.52-17.45a27.78,27.78,0,0,0-3.8-4.76,27.91,27.91,0,0,0,6,.82C864.82,438.13,869.65,433.7,869.65,429.63Zm-34.79,1.92a3.08,3.08,0,0,0-.75-.65,2.85,2.85,0,0,0-.9-.32,3.12,3.12,0,0,0,.17-.95,2.92,2.92,0,0,0-.16-.92,3,3,0,0,0,.87-.33,3.08,3.08,0,0,0,.74-.66,2.91,2.91,0,0,0,.75.65.74.74,0,0,1,.73,1.26,3,3,0,0,0,.16.93,2.85,2.85,0,0,0-.87.33A2.74,2.74,0,0,0,834.86,431.55Z"/><path class="cls-14" d="M834.58,437.45a7.82,7.82,0,1,1,7.81-7.82A7.82,7.82,0,0,1,834.58,437.45Z"/><path class="cls-12" d="M822.75,428.77c.77,0,2.3.39,2.3.86s-1.53.87-2.3.87c-1.36,0-2-.45-2-.87S821.42,428.77,822.75,428.77Z"/><path class="cls-12" d="M839.33,440.37c-.36-.68-.75-2.21-.33-2.43s1.48.93,1.85,1.61c.65,1.19.53,1.92.17,2.12S840,441.54,839.33,440.37Z"/><path class="cls-12" d="M829.65,418.89c.37.68.76,2.21.34,2.44s-1.49-.93-1.85-1.61c-.65-1.19-.53-1.92-.17-2.12S829,417.73,829.65,418.89Z"/><path class="cls-12" d="M841.33,420c-.4.66-1.52,1.77-1.93,1.52s.06-1.75.46-2.41c.7-1.16,1.39-1.43,1.74-1.22S842,418.91,841.33,420Z"/><path class="cls-12" d="M827.65,439.23c.4-.66,1.53-1.77,1.94-1.52s-.06,1.75-.46,2.41c-.7,1.16-1.4,1.43-1.75,1.21S827,440.36,827.65,439.23Z"/><path class="cls-12" d="M844.13,436.41c-.67-.39-1.78-1.51-1.54-1.92s1.76.05,2.42.45c1.16.69,1.44,1.38,1.23,1.73S845.26,437.1,844.13,436.41Z"/><path class="cls-12" d="M824.86,422.85c.66.4,1.78,1.52,1.53,1.93s-1.75,0-2.42-.45c-1.16-.69-1.43-1.38-1.22-1.74S823.72,422.17,824.86,422.85Z"/><path class="cls-12" d="M833.12,441.33c0-.77.49-2.28,1-2.26s.8,1.57.77,2.34c-.06,1.35-.54,1.92-1,1.9S833.07,442.66,833.12,441.33Z"/><path class="cls-12" d="M835.86,417.93c0,.77-.48,2.29-1,2.27s-.79-1.57-.76-2.34c.06-1.35.53-1.92,1-1.9S835.92,416.61,835.86,417.93Z"/><path class="cls-12" d="M845.29,424.92c-.68.36-2.22.74-2.44.31s1-1.47,1.64-1.83c1.19-.63,1.93-.51,2.12-.14S846.46,424.31,845.29,424.92Z"/><path class="cls-12" d="M823.7,434.34c.68-.36,2.21-.73,2.44-.31s-1,1.48-1.64,1.84c-1.2.63-1.93.51-2.12.14S822.52,435,823.7,434.34Z"/><path class="cls-7" d="M917.84,469.69a11.07,11.07,0,0,1-5.54-1.46c-3.41-2-5.49-5.75-5.7-10.36A24,24,0,0,1,909,447.14c-11.4-1.14-16.56-7.34-16.56-13.49,0-5.9,5.13-12.2,16.28-13.45-4.71-10.25-2-17.76,3.21-20.89a11,11,0,0,1,5.6-1.5c5.2,0,10.45,3.3,14.73,9.17,5.66-8.08,11.53-9.37,14.7-9.37a11,11,0,0,1,5.54,1.46c3.41,2,5.49,5.75,5.7,10.36a24,24,0,0,1-2.35,10.73c11.4,1.14,16.56,7.34,16.56,13.49,0,5.9-5.13,12.2-16.28,13.45a23.3,23.3,0,0,1,2.4,10.55c-.18,4.54-2.22,8.31-5.61,10.33a10.88,10.88,0,0,1-5.6,1.51c-5.2,0-10.45-3.3-14.73-9.17C926.88,468.39,921,469.69,917.84,469.69Z"/><path class="cls-3" d="M913.52,465.37a11,11,0,0,1-5.54-1.46c-3.41-2-5.48-5.75-5.7-10.35a23.88,23.88,0,0,1,2.36-10.73c-11.41-1.14-16.57-7.35-16.57-13.5,0-5.89,5.13-12.2,16.28-13.45-4.7-10.24-2-17.75,3.21-20.88a10.92,10.92,0,0,1,5.61-1.51c5.2,0,10.44,3.31,14.72,9.18,5.67-8.08,11.53-9.38,14.71-9.38a11.1,11.1,0,0,1,5.54,1.46c3.41,2,5.48,5.76,5.7,10.36a23.88,23.88,0,0,1-2.36,10.73c11.41,1.14,16.57,7.34,16.57,13.49,0,5.9-5.13,12.2-16.28,13.46a23.11,23.11,0,0,1,2.39,10.54c-.17,4.55-2.22,8.32-5.61,10.34a10.94,10.94,0,0,1-5.6,1.5c-5.2,0-10.44-3.3-14.72-9.17C922.56,464.08,916.7,465.37,913.52,465.37Z"/><path class="cls-12" d="M939.46,430.2c-.77,0-2.3-.39-2.3-.87s1.53-.86,2.3-.86c1.35,0,1.94.45,1.94.86S940.79,430.2,939.46,430.2Z"/><path class="cls-13" d="M962.87,429.33c0-4.06-4.64-8.5-15.26-8.5a27.74,27.74,0,0,0-6.35.91,28.85,28.85,0,0,0,4-5.05c5.23-9,3.82-15.42.31-17.46s-9.68-.26-15,8.93a28.47,28.47,0,0,0-2.56,6.43,29,29,0,0,0-2.63-6.4c-5.34-8.95-11.63-10.83-15.12-8.74s-4.92,8.33.52,17.45a27.78,27.78,0,0,0,3.8,4.76,27.82,27.82,0,0,0-6-.83c-10.42,0-15.26,4.44-15.26,8.5s4.64,8.5,15.26,8.5a28.24,28.24,0,0,0,6.35-.9,28.82,28.82,0,0,0-4,5c-5.23,9-3.82,15.42-.31,17.46s9.68.27,15-8.92a29.14,29.14,0,0,0,2.56-6.43,29,29,0,0,0,2.63,6.4c5.34,8.95,11.63,10.83,15.12,8.74s4.92-8.33-.52-17.45a27.78,27.78,0,0,0-3.8-4.76,27.75,27.75,0,0,0,6,.82C958,437.83,962.87,433.4,962.87,429.33Zm-34.8,1.92a2.91,2.91,0,0,0-.75-.65,2.71,2.71,0,0,0-.89-.32,3.12,3.12,0,0,0,.17-.95.73.73,0,0,1,.71-1.25,3.08,3.08,0,0,0,.74-.66,3,3,0,0,0,.74.65,2.82,2.82,0,0,0,.91.32,2.85,2.85,0,0,0-.18.94,3,3,0,0,0,.17.93,2.91,2.91,0,0,0-.88.33A3.08,3.08,0,0,0,928.07,431.25Z"/><path class="cls-14" d="M927.8,437.15a7.82,7.82,0,1,1,7.81-7.82A7.81,7.81,0,0,1,927.8,437.15Z"/><path class="cls-12" d="M916,428.47c.77,0,2.3.39,2.3.86s-1.53.87-2.3.87c-1.35,0-1.94-.45-1.94-.87S914.64,428.47,916,428.47Z"/><path class="cls-12" d="M932.55,440.07c-.37-.68-.76-2.21-.34-2.43s1.49.93,1.86,1.61c.64,1.19.53,1.92.17,2.12S933.18,441.24,932.55,440.07Z"/><path class="cls-12" d="M922.87,418.59c.37.68.76,2.21.34,2.44s-1.49-.93-1.86-1.61c-.64-1.19-.53-1.92-.17-2.12S922.24,417.43,922.87,418.59Z"/><path class="cls-12" d="M934.55,419.74c-.4.66-1.53,1.77-1.93,1.52s0-1.75.45-2.41c.71-1.16,1.4-1.43,1.75-1.21S935.24,418.61,934.55,419.74Z"/><path class="cls-12" d="M920.87,438.93c.4-.66,1.53-1.77,1.93-1.52s0,1.75-.45,2.41c-.71,1.16-1.4,1.43-1.75,1.21S920.18,440.06,920.87,438.93Z"/><path class="cls-12" d="M937.34,436.11c-.66-.39-1.77-1.51-1.53-1.92s1.76.05,2.42.45c1.16.69,1.43,1.38,1.22,1.73S938.48,436.8,937.34,436.11Z"/><path class="cls-12" d="M918.08,422.55c.66.4,1.77,1.52,1.53,1.93s-1.76-.05-2.42-.45c-1.16-.69-1.43-1.38-1.22-1.74S916.94,421.87,918.08,422.55Z"/><path class="cls-12" d="M926.34,441c0-.77.49-2.28,1-2.26s.8,1.57.76,2.34c0,1.35-.53,1.92-.94,1.9S926.28,442.36,926.34,441Z"/><path class="cls-12" d="M929.08,417.63c0,.77-.49,2.29-1,2.27s-.8-1.57-.76-2.34c0-1.35.53-1.92.94-1.9S929.14,416.31,929.08,417.63Z"/><path class="cls-12" d="M938.51,424.62c-.68.36-2.22.74-2.44.31s.95-1.47,1.63-1.83c1.2-.63,1.93-.51,2.13-.14S939.68,424,938.51,424.62Z"/><path class="cls-12" d="M916.91,434c.69-.36,2.22-.73,2.44-.31s-1,1.48-1.63,1.84c-1.2.63-1.93.51-2.12.14S915.74,434.66,916.91,434Z"/><polyline class="cls-15" points="1168.9 345.71 1168.9 351.71 1162.9 351.71"/><line class="cls-16" x1="1151.05" y1="351.71" x2="706.91" y2="351.71"/><polyline class="cls-15" points="700.99 351.71 694.99 351.71 694.99 345.71"/><line class="cls-17" x1="694.99" y1="333.79" x2="694.99" y2="172.96"/><polyline class="cls-15" points="694.99 167 694.99 161 700.99 161"/><line class="cls-16" x1="712.83" y1="161" x2="1156.98" y2="161"/><polyline class="cls-15" points="1162.9 161 1168.9 161 1168.9 167"/><line class="cls-17" x1="1168.9" y1="178.91" x2="1168.9" y2="339.75"/></svg>