<svg id="Layer_1" data-name="Layer 1" xmlns="http://www.w3.org/2000/svg" xmlns:xlink="http://www.w3.org/1999/xlink" viewBox="0 0 1280 720"><defs><style>.cls-1,.cls-64,.cls-65,.cls-66,.cls-67,.cls-68,.cls-69,.cls-70,.cls-71,.cls-72,.cls-73,.cls-74,.cls-75,.cls-76,.cls-81,.cls-82{fill:none;}.cls-2{clip-path:url(#clip-path);}.cls-3{clip-path:url(#clip-path-2);}.cls-4{fill:url(#linear-gradient);}.cls-5{fill:url(#linear-gradient-2);}.cls-6{clip-path:url(#clip-path-3);}.cls-7{clip-path:url(#clip-path-4);}.cls-8{fill:url(#linear-gradient-3);}.cls-9{fill:url(#linear-gradient-4);}.cls-10{fill:url(#linear-gradient-5);}.cls-11{fill:url(#linear-gradient-6);}.cls-12{fill:url(#linear-gradient-7);}.cls-13{clip-path:url(#clip-path-5);}.cls-14{clip-path:url(#clip-path-6);}.cls-15{fill:url(#linear-gradient-8);}.cls-16{fill:#a6cbe6;}.cls-17{fill:url(#linear-gradient-9);}.cls-18{fill:url(#linear-gradient-10);}.cls-19{fill:#19b851;}.cls-20{fill:#532016;}.cls-21{fill:url(#linear-gradient-11);}.cls-22{fill:url(#linear-gradient-12);}.cls-23{fill:url(#linear-gradient-13);}.cls-24{fill:url(#linear-gradient-14);}.cls-25{fill:#68522c;}.cls-26{fill:url(#linear-gradient-15);}.cls-27{fill:#a17949;}.cls-28{fill:#dfa851;}.cls-29{fill:#3a59b2;}.cls-30{fill:#293973;}.cls-31{fill:#163e73;}.cls-32{fill:#08254b;}.cls-33{fill:#fab51b;}.cls-34{fill:#f17125;}.cls-35{clip-path:url(#clip-path-7);}.cls-36{clip-path:url(#clip-path-8);}.cls-37{fill:url(#linear-gradient-16);}.cls-38{fill:url(#linear-gradient-17);}.cls-39{fill:url(#linear-gradient-18);}.cls-40,.cls-64,.cls-65,.cls-66,.cls-67,.cls-68,.cls-69,.cls-70,.cls-71,.cls-72,.cls-73,.cls-74,.cls-75,.cls-76,.cls-78,.cls-79,.cls-80,.cls-81,.cls-82{stroke-miterlimit:10;}.cls-40{stroke-width:0.26px;fill:url(#linear-gradient-19);stroke:url(#linear-gradient-20);}.cls-41{fill:url(#linear-gradient-21);}.cls-42{fill:url(#linear-gradient-22);}.cls-43{fill:url(#linear-gradient-23);}.cls-44{fill:url(#linear-gradient-24);}.cls-45{fill:url(#linear-gradient-25);}.cls-46{fill:url(#linear-gradient-26);}.cls-47{clip-path:url(#clip-path-9);}.cls-48{clip-path:url(#clip-path-10);}.cls-49{fill:url(#linear-gradient-27);}.cls-50{fill:#5fde85;}.cls-51{clip-path:url(#clip-path-11);}.cls-52{clip-path:url(#clip-path-12);}.cls-53{fill:url(#linear-gradient-28);}.cls-54{fill:#8fc4ec;}.cls-55{fill:#72aae5;}.cls-56{fill:url(#linear-gradient-29);}.cls-57{fill:#5e2106;}.cls-58{fill:#e68851;}.cls-59{fill:#843812;}.cls-60{fill:#301102;}.cls-61{fill:url(#linear-gradient-30);}.cls-62{fill:url(#linear-gradient-31);}.cls-63{fill:#4c3d20;opacity:0.51;}.cls-64{stroke:#841a02;}.cls-64,.cls-76{stroke-width:5.43px;}.cls-65{stroke:#269e05;}.cls-65,.cls-66,.cls-67,.cls-68{stroke-width:5.59px;}.cls-66{stroke:#ff4729;}.cls-67{stroke:#ffd60b;}.cls-68{stroke:#03a7f9;}.cls-69{stroke:#f50;}.cls-69,.cls-70,.cls-71,.cls-72,.cls-73,.cls-74,.cls-75{stroke-width:5.62px;}.cls-70{stroke:#ff9700;}.cls-71{stroke:#1ec900;}.cls-72{stroke:#1515ff;}.cls-73{stroke:#f200ff;}.cls-74{stroke:#00d6f9;}.cls-75{stroke:#ffe708;}.cls-76{stroke:#d63200;}.cls-77{opacity:0.4;}.cls-78{fill:#f73b16;}.cls-78,.cls-81{stroke:#6d1d07;}.cls-78,.cls-79,.cls-80,.cls-81,.cls-82{stroke-width:0.45px;}.cls-79{fill:#a5a4a4;stroke:#5b1e06;}.cls-80{fill:#bf2516;}.cls-80,.cls-82{stroke:#701d07;}.cls-83{clip-path:url(#clip-path-13);}.cls-84{clip-path:url(#clip-path-14);}.cls-85{fill:url(#linear-gradient-32);}.cls-86{clip-path:url(#clip-path-15);}.cls-87{clip-path:url(#clip-path-16);}.cls-88{fill:url(#linear-gradient-33);}.cls-89{fill:url(#linear-gradient-34);}.cls-90{clip-path:url(#clip-path-17);}.cls-91{clip-path:url(#clip-path-18);}.cls-92{fill:url(#linear-gradient-35);}.cls-93{fill:url(#linear-gradient-36);}</style><clipPath id="clip-path"><rect class="cls-1" x="-1300" y="-740" width="1280" height="720"/></clipPath><clipPath id="clip-path-2"><rect class="cls-1" x="-1620" y="-830" width="1600" height="900"/></clipPath><linearGradient id="linear-gradient" x1="-798.83" y1="476.9" x2="-410.32" y2="-399.91" gradientUnits="userSpaceOnUse"><stop offset="0.13" stop-color="#22441f"/><stop offset="0.54" stop-color="#3b7639"/><stop offset="1" stop-color="#03654a"/></linearGradient><linearGradient id="linear-gradient-2" x1="559.41" y1="8.87" x2="681.01" y2="-265.58" gradientTransform="translate(-1019.82 184.94) scale(1.46 1.65)" gradientUnits="userSpaceOnUse"><stop offset="0" stop-color="#0a512e"/><stop offset="0.54" stop-color="#0b532f"/><stop offset="0.77" stop-color="#107053"/></linearGradient><clipPath id="clip-path-3"><rect class="cls-1" y="-740" width="1280" height="720"/></clipPath><clipPath id="clip-path-4"><rect class="cls-1" x="-160" y="-864.56" width="1600" height="900"/></clipPath><linearGradient id="linear-gradient-3" x1="-227.74" y1="-150.93" x2="1296.72" y2="30.04" gradientUnits="userSpaceOnUse"><stop offset="0" stop-color="#64b66a"/><stop offset="0" stop-color="#1e542a"/><stop offset="0" stop-color="#337a3c"/><stop offset="0" stop-color="#166839"/><stop offset="0" stop-color="#21592c"/><stop offset="0.23" stop-color="#33763a"/><stop offset="0.56" stop-color="#19925d"/><stop offset="0.66" stop-color="#1d965f"/><stop offset="0.75" stop-color="#28a063"/><stop offset="0.81" stop-color="#32a967"/><stop offset="0.86" stop-color="#31a261"/><stop offset="1" stop-color="#4b9a45"/></linearGradient><linearGradient id="linear-gradient-4" x1="661.17" y1="442.34" x2="1049.68" y2="-434.47" xlink:href="#linear-gradient"/><linearGradient id="linear-gradient-5" x1="563.5" y1="2.13" x2="710.26" y2="-329.07" xlink:href="#linear-gradient-2"/><linearGradient id="linear-gradient-6" x1="1436.11" y1="-36.1" x2="1524.66" y2="-235.95" gradientTransform="translate(-1019.82 184.94) scale(1.46 1.65)" gradientUnits="userSpaceOnUse"><stop offset="0.29" stop-color="#0a512e"/><stop offset="0.66" stop-color="#107053"/></linearGradient><linearGradient id="linear-gradient-7" x1="1559.3" y1="-12.02" x2="1680.9" y2="-286.47" xlink:href="#linear-gradient-2"/><clipPath id="clip-path-5"><rect class="cls-1" x="-1300" width="1280" height="720"/></clipPath><clipPath id="clip-path-6"><rect class="cls-1" x="-1460" y="-90" width="1600" height="900"/></clipPath><linearGradient id="linear-gradient-8" x1="-658.33" y1="497.4" x2="-662.17" y2="-98.92" gradientUnits="userSpaceOnUse"><stop offset="0.3" stop-color="#90e7de"/><stop offset="0.94" stop-color="#bee7ea"/></linearGradient><linearGradient id="linear-gradient-9" x1="-23.25" y1="139.34" x2="43.02" y2="16.87" gradientUnits="userSpaceOnUse"><stop offset="0.22" stop-color="#a8e7e4"/><stop offset="0.27" stop-color="#ace8e5"/><stop offset="0.57" stop-color="#beebeb"/><stop offset="0.78" stop-color="#c5eced"/></linearGradient><linearGradient id="linear-gradient-10" x1="-1153.32" y1="514.34" x2="102.41" y2="514.34" gradientUnits="userSpaceOnUse"><stop offset="0" stop-color="#61986a"/><stop offset="0.94" stop-color="#5da1a2"/></linearGradient><linearGradient id="linear-gradient-11" x1="-86.18" y1="444.69" x2="-45.88" y2="216.25" gradientTransform="translate(79.64 86.13) rotate(-3.08)" gradientUnits="userSpaceOnUse"><stop offset="0.15" stop-color="#0a5731"/><stop offset="0.3" stop-color="#1f784a"/><stop offset="0.59" stop-color="#43b377"/><stop offset="0.81" stop-color="#59d892"/><stop offset="0.92" stop-color="#62e69d"/></linearGradient><linearGradient id="linear-gradient-12" x1="-154.27" y1="547.5" x2="-118.09" y2="342.45" gradientTransform="matrix(1, -0.05, 0.05, 0.85, 78.25, 60.29)" gradientUnits="userSpaceOnUse"><stop offset="0.04" stop-color="#0a5731"/><stop offset="0.21" stop-color="#1f784a"/><stop offset="0.54" stop-color="#43b377"/><stop offset="0.79" stop-color="#59d892"/><stop offset="0.92" stop-color="#62e69d"/></linearGradient><linearGradient id="linear-gradient-13" x1="-20.49" y1="436.86" x2="4.36" y2="296" gradientTransform="translate(79.64 86.13) rotate(-3.08)" xlink:href="#linear-gradient-12"/><linearGradient id="linear-gradient-14" x1="-1460.47" y1="666.36" x2="105.65" y2="666.36" gradientUnits="userSpaceOnUse"><stop offset="0" stop-color="#6cb053"/><stop offset="0.94" stop-color="#80e15c"/></linearGradient><linearGradient id="linear-gradient-15" x1="-767.03" y1="748.43" x2="26.66" y2="691.44" gradientUnits="userSpaceOnUse"><stop offset="0.12" stop-color="#fab676"/><stop offset="0.52" stop-color="#e8b073"/><stop offset="0.92" stop-color="#daac70"/></linearGradient><clipPath id="clip-path-7"><rect class="cls-1" x="1300" width="1280" height="720"/></clipPath><clipPath id="clip-path-8"><rect class="cls-1" x="1140" y="-90" width="1600" height="900"/></clipPath><linearGradient id="linear-gradient-16" x1="1936.51" y1="-523.67" x2="1936.51" y2="1358.03" gradientUnits="userSpaceOnUse"><stop offset="0.3" stop-color="#90e7de"/><stop offset="0.33" stop-color="#94e7df"/><stop offset="0.55" stop-color="#abe7e5"/><stop offset="0.76" stop-color="#b9e7e9"/><stop offset="0.94" stop-color="#bee7ea"/></linearGradient><linearGradient id="linear-gradient-17" x1="767.63" y1="1080.02" x2="2119.51" y2="335.93" gradientUnits="userSpaceOnUse"><stop offset="0" stop-color="#76ccd2"/><stop offset="0" stop-color="#78bbce"/><stop offset="0" stop-color="#7ba5c8"/><stop offset="0.26" stop-color="#78a8c6"/><stop offset="0.33" stop-color="#75abc4"/><stop offset="0.34" stop-color="#75abc4"/><stop offset="0.56" stop-color="#87c7ca"/><stop offset="0.69" stop-color="#8dd1cc"/></linearGradient><linearGradient id="linear-gradient-18" x1="943.63" y1="501.41" x2="2137.19" y2="501.41" gradientUnits="userSpaceOnUse"><stop offset="0" stop-color="#76ccd2"/><stop offset="0" stop-color="#6fbbca"/><stop offset="0" stop-color="#5e92b6"/><stop offset="0.22" stop-color="#6eaecc"/><stop offset="0.42" stop-color="#7ac5dd"/><stop offset="0.62" stop-color="#7cc9d3"/><stop offset="0.73" stop-color="#7ecdcc"/><stop offset="0.77" stop-color="#80ccc3"/><stop offset="0.82" stop-color="#86c8ab"/><stop offset="0.9" stop-color="#90c283"/><stop offset="0.98" stop-color="#9dba4c"/><stop offset="1" stop-color="#a0b841"/></linearGradient><linearGradient id="linear-gradient-19" x1="1832.45" y1="-528.13" x2="1894.03" y2="1416.2" gradientTransform="matrix(1.06, 0, 0, 1.44, -78.73, 92.25)" gradientUnits="userSpaceOnUse"><stop offset="0" stop-color="#76ccd2"/><stop offset="0" stop-color="#6fc4c0"/><stop offset="0" stop-color="#5db193"/><stop offset="0" stop-color="#40914a"/><stop offset="0" stop-color="#3d8e42"/><stop offset="0.03" stop-color="#4c9945"/><stop offset="0.09" stop-color="#64ac49"/><stop offset="0.15" stop-color="#75b94c"/><stop offset="0.22" stop-color="#80c04d"/><stop offset="0.31" stop-color="#83c34e"/><stop offset="0.37" stop-color="#7fc056"/><stop offset="0.43" stop-color="#7bbc61"/><stop offset="0.53" stop-color="#068241"/><stop offset="1" stop-color="#047d3f"/></linearGradient><linearGradient id="linear-gradient-20" x1="1017.53" y1="595.56" x2="2705.37" y2="595.56" gradientTransform="matrix(1.06, 0, 0, 1, -78.79, 0.05)" gradientUnits="userSpaceOnUse"><stop offset="0" stop-color="#76ccd2"/><stop offset="0" stop-color="#6fc4c0"/><stop offset="0" stop-color="#5db193"/><stop offset="0" stop-color="#40914a"/><stop offset="0" stop-color="#3d8e42"/><stop offset="0.01" stop-color="#3c9443"/><stop offset="0.03" stop-color="#39a547"/><stop offset="0.06" stop-color="#38b049"/><stop offset="0.1" stop-color="#37b34a"/><stop offset="0.1" stop-color="#40b451"/><stop offset="0.12" stop-color="#51b55f"/><stop offset="0.14" stop-color="#5cb568"/><stop offset="0.17" stop-color="#63b66d"/><stop offset="0.26" stop-color="#65b66f"/><stop offset="0.29" stop-color="#6fba63"/><stop offset="0.37" stop-color="#7ec04f"/><stop offset="0.45" stop-color="#88c443"/><stop offset="0.53" stop-color="#8bc53f"/><stop offset="0.62" stop-color="#91c73d"/><stop offset="0.76" stop-color="#a3cd36"/><stop offset="0.91" stop-color="#c1d72b"/><stop offset="1" stop-color="#d6de23"/></linearGradient><linearGradient id="linear-gradient-21" x1="1084.99" y1="694.72" x2="2321.29" y2="694.72" gradientUnits="userSpaceOnUse"><stop offset="0" stop-color="#76ccd2"/><stop offset="0" stop-color="#6ac4c0"/><stop offset="0" stop-color="#4cae93"/><stop offset="0" stop-color="#1c8a4a"/><stop offset="0" stop-color="#178743"/><stop offset="0.01" stop-color="#1f8448"/><stop offset="0.03" stop-color="#2b7f4f"/><stop offset="0.05" stop-color="#2f7d51"/><stop offset="0.48" stop-color="#267344"/><stop offset="0.96" stop-color="#206b3a"/><stop offset="0.98" stop-color="#226c3c"/><stop offset="0.98" stop-color="#297142"/><stop offset="0.99" stop-color="#347a4d"/><stop offset="0.99" stop-color="#45865c"/><stop offset="0.99" stop-color="#5b9670"/><stop offset="1" stop-color="#7a8"/><stop offset="1" stop-color="#97c1a6"/><stop offset="1" stop-color="#bbdcc7"/><stop offset="1" stop-color="#c8e5d2"/></linearGradient><linearGradient id="linear-gradient-22" x1="838.39" y1="719.83" x2="3163.79" y2="719.83" gradientUnits="userSpaceOnUse"><stop offset="0" stop-color="#76ccd2"/><stop offset="0" stop-color="#6ac4c0"/><stop offset="0" stop-color="#4cae93"/><stop offset="0" stop-color="#1c8a4a"/><stop offset="0" stop-color="#178743"/><stop offset="0.01" stop-color="#136d36"/><stop offset="0.02" stop-color="#10592d"/><stop offset="0.04" stop-color="#0e4d27"/><stop offset="0.05" stop-color="#0d4925"/><stop offset="0.25" stop-color="#085028"/><stop offset="0.57" stop-color="#055429"/><stop offset="0.74" stop-color="#07552b"/><stop offset="0.8" stop-color="#0e5a31"/><stop offset="0.84" stop-color="#19633b"/><stop offset="0.88" stop-color="#2a7049"/><stop offset="0.91" stop-color="#40805d"/><stop offset="0.93" stop-color="#5c9474"/><stop offset="0.96" stop-color="#7cad90"/><stop offset="0.98" stop-color="#a0c8b0"/><stop offset="1" stop-color="#c8e5d2"/></linearGradient><linearGradient id="linear-gradient-23" x1="1189.84" y1="567.69" x2="1198.84" y2="567.69" gradientUnits="userSpaceOnUse"><stop offset="0.03" stop-color="#403f2f"/><stop offset="0.39" stop-color="#555644"/><stop offset="1" stop-color="#777b65"/></linearGradient><linearGradient id="linear-gradient-24" x1="1249.84" y1="571.17" x2="1258.84" y2="571.17" xlink:href="#linear-gradient-23"/><linearGradient id="linear-gradient-25" x1="1145.34" y1="563.12" x2="1320.37" y2="461.03" gradientUnits="userSpaceOnUse"><stop offset="0.15" stop-color="#1e6c36"/><stop offset="0.33" stop-color="#166c36"/><stop offset="0.46" stop-color="#0d6c37"/><stop offset="0.55" stop-color="#2a843b"/><stop offset="0.7" stop-color="#50a340"/><stop offset="0.82" stop-color="#67b743"/><stop offset="0.89" stop-color="#70be44"/></linearGradient><linearGradient id="linear-gradient-26" x1="1087.84" y1="538.01" x2="1260.1" y2="437.53" gradientUnits="userSpaceOnUse"><stop offset="0.15" stop-color="#1e6c36"/><stop offset="0.33" stop-color="#166c36"/><stop offset="0.44" stop-color="#0d6c37"/><stop offset="0.96" stop-color="#70be44"/></linearGradient><clipPath id="clip-path-9"><rect class="cls-1" y="740" width="1280" height="720"/></clipPath><clipPath id="clip-path-10"><rect class="cls-1" x="-160" y="650" width="1600" height="900"/></clipPath><linearGradient id="linear-gradient-27" x1="-196.64" y1="1122.29" x2="1509.27" y2="955.51" gradientUnits="userSpaceOnUse"><stop offset="0" stop-color="#fff"/><stop offset="0" stop-color="#acdfec"/><stop offset="1" stop-color="#b2e1ee"/></linearGradient><clipPath id="clip-path-11"><rect class="cls-1" width="1280" height="720"/></clipPath><clipPath id="clip-path-12"><rect class="cls-1" x="-1463.97" y="-973.69" width="3238.61" height="1821.72"/></clipPath><linearGradient id="linear-gradient-28" x1="158.72" y1="215.29" x2="150.93" y2="-991.75" xlink:href="#linear-gradient-8"/><linearGradient id="linear-gradient-29" x1="-843.2" y1="249.58" x2="1698.56" y2="249.58" xlink:href="#linear-gradient-10"/><linearGradient id="linear-gradient-30" x1="-1464.92" y1="557.29" x2="1705.11" y2="557.29" xlink:href="#linear-gradient-14"/><linearGradient id="linear-gradient-31" x1="-61.31" y1="723.41" x2="1545.23" y2="608.06" xlink:href="#linear-gradient-15"/><clipPath id="clip-path-13"><rect class="cls-1" x="1300" y="-740" width="1280" height="720"/></clipPath><clipPath id="clip-path-14"><rect class="cls-1" x="1300" y="-920" width="1600" height="900"/></clipPath><linearGradient id="linear-gradient-32" x1="2121.17" y1="386.9" x2="2509.68" y2="-489.91" xlink:href="#linear-gradient"/><clipPath id="clip-path-15"><rect class="cls-1" x="-1300" y="740" width="1280" height="720"/></clipPath><clipPath id="clip-path-16"><rect class="cls-1" x="-1714.68" y="498.12" width="1936.57" height="1089.32"/></clipPath><linearGradient id="linear-gradient-33" x1="-745.17" y1="-192.86" x2="-745.17" y2="2430.12" gradientUnits="userSpaceOnUse"><stop offset="0.08" stop-color="#a2d9d8"/><stop offset="0.09" stop-color="#9ad7d7"/><stop offset="0.14" stop-color="#86d1d4"/><stop offset="0.18" stop-color="#7acdd3"/><stop offset="0.23" stop-color="#76ccd2"/><stop offset="0.3" stop-color="#7acdd2"/><stop offset="0.37" stop-color="#86d1d2"/><stop offset="0.44" stop-color="#9ad6d2"/><stop offset="0.5" stop-color="#addcd2"/><stop offset="0.52" stop-color="#b5dfd6"/><stop offset="0.57" stop-color="#cae8e2"/><stop offset="0.62" stop-color="#ecf7f4"/><stop offset="0.64" stop-color="#fff"/><stop offset="1" stop-color="#c8e5d2"/></linearGradient><linearGradient id="linear-gradient-34" x1="97.21" y1="586.16" x2="97.21" y2="897.53" gradientUnits="userSpaceOnUse"><stop offset="0.26" stop-color="#a2d9d8"/><stop offset="0.37" stop-color="#a0d8d8"/><stop offset="0.41" stop-color="#99d6d7"/><stop offset="0.43" stop-color="#8ed3d5"/><stop offset="0.46" stop-color="#7dced3"/><stop offset="0.46" stop-color="#76ccd2"/><stop offset="0.5" stop-color="#79cdd2"/><stop offset="0.52" stop-color="#81cfd2"/><stop offset="0.54" stop-color="#90d3d2"/><stop offset="0.55" stop-color="#a4d9d2"/><stop offset="0.56" stop-color="#addcd2"/><stop offset="0.57" stop-color="#b5dfd6"/><stop offset="0.6" stop-color="#cae8e2"/><stop offset="0.63" stop-color="#ecf7f4"/><stop offset="0.64" stop-color="#fff"/><stop offset="1" stop-color="#c8e5d2"/></linearGradient><clipPath id="clip-path-17"><rect class="cls-1" x="1300" y="740" width="1280" height="720"/></clipPath><clipPath id="clip-path-18"><rect class="cls-1" x="671.2" y="397.32" width="2057.98" height="1157.61"/></clipPath><linearGradient id="linear-gradient-35" x1="624.07" y1="1004.79" x2="2818.28" y2="790.27" xlink:href="#linear-gradient-27"/><linearGradient id="linear-gradient-36" x1="939.15" y1="734.49" x2="939.15" y2="469.81" gradientUnits="userSpaceOnUse"><stop offset="0" stop-color="#91d4ec"/><stop offset="0.05" stop-color="#9dd9ee"/><stop offset="0.16" stop-color="#b4e1f1"/><stop offset="0.27" stop-color="#c4e7f3"/><stop offset="0.41" stop-color="#cdebf5"/><stop offset="0.59" stop-color="#d0ecf5"/></linearGradient></defs><g class="cls-2"><g class="cls-3"><g id="Slide_12" data-name="Slide 12"><path class="cls-4" d="M-1494-37c18.29-20.84,51.21-59.6,62.81-55.39-38.39,38-36.64,61.72-36.64,61.72s33.15-45.89,69.79-49.06c-44.3,28.08-52.35,42.78-52.35,58.55,0,4.25,5.17-21.83,53.65-15.11,10.47,3.16,40.64-16.69,40.57-16.54-17.53,37.18-63.44,26.87-80.89,34.78-45.63,20.7,864.15-5.33,990.77-11.83C265-66.39,422.86-56.09,445.66-12.51c16.85,32.2,7,76.32-15.24,102.12C377.36,151.16,260,98.72-21.7,110c-34.26,1.36-87.6,4.34-167.57,4.28-86.77-.07-150.29-3.66-162.85-4.28C-568.63,99.15-1580.79,174-1620,110.12c-10.72-17.47-34-101.5-29.72-109.44C-1630.37-34.87-1527.62,1.27-1494-37Z"/><path class="cls-5" d="M-313.26,76.42c1-1.65,8.83-14.3,23-15.35,9.66-.72,16.7,4.36,19,6.14.06-1,1.89-23,16.25-30.69,14.14-7.6,35.5,1.32,44.69,24.36-8.14-79.42,58.47-34,67.82-12.31,10.58-73.22,60.81-24.33,58.1,3.29C-81,37.63-70.72,27.72-60.06,27.31-45.9,26.76-31.53,43-33,64.14-19.89,53-12.76,52.64-8.61,54.93-1,59.15,3.63,76.42,3.63,76.42H-313.26Z"/></g></g></g><g class="cls-6"><g class="cls-7"><g id="Slide_12-2" data-name="Slide 12"><path class="cls-8" d="M-31.66-226.67c-27.59,3.48-66.73,9.21-113.68,18.84-42,8.61-50.52,14.57-56.64,21.24C-239.25-146-181.89-40.86-173.66-26.1L40.26,7.81,738.7,3.28s572.76,71.13,582.38,19.49c4-21.22-91-55.6-137.25-72.33C825.33-179.3,316.23-216.15-31.66-226.67Z"/><path class="cls-9" d="M-34-71.55c18.29-20.84,51.21-59.6,62.81-55.39C-9.6-89-7.85-65.22-7.85-65.22s33.15-45.89,69.79-49.06C17.64-86.2,9.59-71.5,9.59-55.73c0,4.25,5.17-21.83,53.65-15.11,10.47,3.16,40.64-16.69,40.57-16.54C86.28-50.2,40.37-60.51,22.92-52.6c-45.63,20.7,864.15-5.33,990.77-11.83,711.35-36.52,869.17-26.22,892,17.36,16.85,32.2,7,76.32-15.24,102.12C1837.36,116.6,1720,64.16,1438.3,75.4c-34.26,1.36-87.6,4.34-167.57,4.28C1184,79.61,1120.44,76,1107.88,75.4,891.37,64.59-120.79,139.48-160,75.56c-10.72-17.47-34-101.5-29.72-109.44C-170.37-69.43-67.62-33.29-34-71.55Z"/><path class="cls-10" d="M-332.48,38.59c1.21-1.9,10.81-16.51,28.18-17.73,11.83-.83,20.45,5,23.22,7.09.08-1.11,2.31-26.55,19.9-35.47C-243.86-16.3-217.7-6-206.43,20.64c-10-91.78,71.62-39.32,83.07-14.23,13-84.61,74.48-28.12,71.16,3.81C-48-6.23-35.4-17.68-22.34-18.16-5-18.8,12.6,0,10.83,24.4c16-12.82,24.77-13.29,29.85-10.64,9.36,4.88,15,24.83,15,24.83H-332.48Z"/><path class="cls-11" d="M998.48,36.33c.71-1.26,6.32-10.91,16.47-11.71,6.91-.55,12,3.32,13.56,4.68,0-.73,1.36-17.53,11.63-23.42s25.41,1,32,18.59c-5.83-60.61,41.85-26,48.54-9.39,7.57-55.88,43.52-18.57,41.58,2.51,2.45-10.86,9.82-18.42,17.45-18.74,10.14-.42,20.42,12,19.38,28.11,9.38-8.47,14.48-8.78,17.45-7,5.47,3.23,8.76,16.4,8.76,16.4H998.48Z"/><path class="cls-12" d="M1146.74,41.86c1-1.65,8.83-14.3,23-15.35,9.66-.72,16.7,4.36,19,6.14.06-1,1.89-23,16.25-30.69,14.14-7.6,35.5,1.32,44.69,24.36-8.14-79.42,58.47-34,67.82-12.31,10.58-73.22,60.81-24.33,58.1,3.29,3.42-14.23,13.72-24.14,24.38-24.55,14.16-.55,28.53,15.68,27.08,36.83,13.09-11.1,20.22-11.5,24.37-9.21,7.64,4.22,12.24,21.49,12.24,21.49H1146.74Z"/></g></g></g><g class="cls-13"><g class="cls-14"><rect class="cls-15" x="-1460" y="-90" width="1600.45" height="725.32"/><path class="cls-16" d="M-535.44,412.06s184-73.95,341.79-73.95,334.1,129,334.1,129l-1.18,72.29-641.5,16.92Z"/><path class="cls-17" d="M-63.66,94.09S-46,62.68,16,64.21s55.17,41.37,34.48,44.43S-55.68,118.45-63.66,94.09Z"/><path class="cls-18" d="M-1153.32,543s225.19-107.77,588.67-106.84S22.41,493.5,22.41,493.5l80,44.9-785.67,54.18Z"/><path class="cls-19" d="M-335.87,528.21S-45.43,501.61,140.45,481v75.36S-323,548.13-335.87,528.21Z"/><rect class="cls-20" x="17.27" y="476.79" width="19.26" height="48.68"/><path class="cls-21" d="M-33.32,478.54s-5.25-121,61.61-176.83c0,0,17.68-11.18,34.79,29S93,445,84.56,479.18C78.15,505.15-31,512.17-33.32,478.54Z"/><path class="cls-22" d="M-84.37,489.66s-2.81-92.43,44.82-135.46c0,0,12.56-8.65,24.34,22S5.07,463.31-1.14,489.47C-5.86,509.35-83,515.34-84.37,489.66Z"/><rect class="cls-20" x="80.42" y="500.24" width="13.61" height="29.93"/><path class="cls-23" d="M45.9,488.52s-3.71-74.39,43.53-108.7c0,0,12.48-6.88,24.57,17.85s21.14,70.24,15.17,91.25C124.64,504.88,47.5,509.2,45.9,488.52Z"/><path class="cls-24" d="M-1460,541.24s199.81-9.41,378.39,0,388.21-28.87,782.36-15.75,438.52,13.9,438.52,13.9L140,810H-1460.47Z"/><path class="cls-25" d="M136,646.51S-73.39,615.05-232.51,601s-321.13-6.38-321.13-6.38-27.38,7.43-13.13,24.06-28.94,21.35-64.2,23.5-94.93,1.2-140.66,11.25-208.8,12.81-253.21,33.08S-959.16,789.33-687.26,807H136Z"/><path class="cls-26" d="M140,654.45s-214.34-28.83-371.36-42.29S-548.27,606-548.27,606s-28.86,3.24-14.8,19.21-26.71,24.42-61.5,26.48-93.68,1.15-138.81,10.8-206,12.31-249.87,31.78S-948.44,793-680.12,810H140Z"/><polygon class="cls-27" points="-55.71 660.03 -92.55 671.41 179.32 740.66 358.59 679.4 334.18 675.33 -55.71 660.03"/><path class="cls-28" d="M-63.66,591.65s21.73-50,121.49-44.18c82.76,4.8,83.35,13,112.8,9.59,0,0,44.18-3.42,79.53,4.8s94.39,29.79,94.39,29.79L179.32,635.32Z"/><polygon class="cls-29" points="179.32 729.34 181.09 648.16 -55.71 605.01 -55.71 672.82 179.32 729.34"/><polygon class="cls-30" points="337.04 605.01 333.95 681.04 179.32 729.34 181.09 648.16 337.04 605.01"/><polygon class="cls-31" points="-63.66 606.04 179.32 651.76 179.32 635.32 -63.66 591.65 -63.66 606.04"/><polygon class="cls-32" points="179.32 635.32 344.55 591.65 344.55 607.07 179.32 651.76 179.32 635.32"/></g><path class="cls-33" d="M-365.58,73.23-359,73l23.37-1,22.43-.94,52.56-2.23,22.64-1,27.45-1.17,2.78-.12S50.91-224.46,30.35-370C19.25-448.42-18.17-489.21-50.3-510.18a.44.44,0,0,0-.1-.08c-27.44-17.83-51-21.24-51-21.24a163.34,163.34,0,0,0-23.87-12.71h0c-33.84-14.54-62.74-12.65-77.69-10a74.06,74.06,0,0,0-10.93,2.64C-296-587.84-347.62-555-356.56-548.58c-.93.69-1.4,1.06-1.4,1.06-37.08-12.55-70.38-6.2-91.53,1.16-14.85,5.18-23.71,10.85-23.71,10.85-22.45,8.36-41.23,18.44-56.88,29.88l0,0a.41.41,0,0,0-.09.1C-742.06-349.26-365.58,73.23-365.58,73.23Z"/><path class="cls-34" d="M-238,67.84l27.45-1.17C-138.9-21.29,117-359.17-50.3-510.18a.44.44,0,0,0-.1-.08c-27.44-17.83-51-21.24-51-21.24-8.15-5.22,3.37.6-4.36-2.7C-78.41-484-20.15-293.53-238,67.84Z"/></g><g class="cls-35"><g class="cls-36"><rect class="cls-37" x="1092.46" y="-90" width="1688.09" height="825.78"/><path class="cls-38" d="M980.75,433.9a1050.13,1050.13,0,0,1,158.67-54.1c119.36-30.2,218-32,295.9-29.16,65.47,2.36,204.89,11.15,574.15,101.9,238.27,58.57,440.06,118.77,440.05,118.82a.07.07,0,0,1,0,0l0,126.82L906.39,670.47V459.71Z"/><path class="cls-39" d="M1087.44,354.73a1769.8,1769.8,0,0,1,241.39,48.61c154.4,42.62,219.08,83.53,461,160.93,57.75,18.48,86.62,27.71,122.37,36.88A1496.93,1496.93,0,0,0,2281,648.09L1087.44,609Z"/><path class="cls-40" d="M996.86,561c73.88-16.74,170.31-36.32,283.62-53.21,54.33-8.1,238-34.28,488.71-40.91,421-11.12,737.86,40.67,849,60.53,67.4,12,123.33,23.82,162.29,32.44l.11,164.7L997,725.74Z"/><path class="cls-41" d="M1140,579.44c165.16,8.86,305.52,22.06,414.3,34.28,298.39,33.53,538.88,79.66,662.27,103.92l.08,0L1140,810Z"/><path class="cls-42" d="M1089.35,835.57c-3.64-29.53,355.82-91.72,978.76-199.48,60-10.38,159.37-27.13,288.92-36.47,88.68-6.4,160.34-7,200.57-6.85,65,.26,176.17,3.26,225.6,6.71,3.35,72.18-25.9,138.34-22.55,210.52-496.44-1.27-928.64,14.62-1232.73,25.57C1250.83,845.55,1091.76,855.08,1089.35,835.57Z"/><rect class="cls-43" x="1189.84" y="551.12" width="9" height="33.15"/><rect class="cls-44" x="1249.84" y="554.59" width="9" height="33.15"/><path class="cls-45" d="M1226.39,517.1s-3.78-6.51,8.52-59.58,42.55-28.57,47.28,6.82,4.73,71.47,4.73,71.47c-6.62,47.65-61.62,33.69-61.08,7.49Z"/><path class="cls-46" d="M1164.89,496.56s-3.79-7.2,8.51-65.9,42.56-31.6,47.29,7.55,4.73,79.05,4.73,79.05c-6.62,52.7-61.63,37.27-61.08,8.28Z"/></g><path class="cls-33" d="M1524.36,48.09,1520,47.9l-15.76-.66-15.12-.64-35.44-1.5-15.27-.64-18.5-.79-1.87-.08s-174.44-196.21-160.57-294.32c7.48-52.89,32.71-80.39,54.37-94.53,0,0,0,0,.07-.05,18.5-12,34.37-14.32,34.37-14.32a109.64,109.64,0,0,1,16.1-8.57h0c22.82-9.81,42.3-8.53,52.38-6.72a49.89,49.89,0,0,1,7.37,1.78c55.34-24.48,90.16-2.35,96.19,2,.63.46.94.72.94.72,25-8.47,47.46-4.18,61.72.78a83.44,83.44,0,0,1,16,7.31,158.08,158.08,0,0,1,38.34,20.15h0s0,0,.06.07C1778.2-236.76,1524.36,48.09,1524.36,48.09Z"/><path class="cls-34" d="M1438.36,44.46l-18.5-.79C1371.53-15.64,1199-243.45,1311.79-345.26c0,0,0,0,.07-.05,18.5-12,34.37-14.32,34.37-14.32,5.49-3.52-2.27.4,2.94-1.83C1330.75-327.58,1291.47-199.19,1438.36,44.46Z"/></g><g class="cls-47"><g class="cls-48"><path class="cls-49" d="M1499,1438.66l-1692.86,8.64q14.07-405.09,28.13-810.18H1499Z"/><path class="cls-50" d="M1523.81,935c-.75-2.27,67.62-55.22,25.15-126.57,0,0-44.17-119.78-220.86-81.55,0,0-180.94,27.18-269.28,153.75,0,0-16.55,16.94-4.3,26.13s73.49,24.5,73.49,24.5l177.62,3.06Z"/></g><path class="cls-33" d="M302.76,817.25,298,817l-16.93-.71-16.26-.68L226.73,814l-16.41-.69-19.89-.85-2-.08S.92,601.51,15.83,496.06c8-56.85,35.16-86.42,58.44-101.62l.07-.05c19.89-12.93,37-15.39,37-15.39a117,117,0,0,1,17.3-9.21h0c24.52-10.54,45.47-9.17,56.3-7.23a52.69,52.69,0,0,1,7.92,1.92c59.48-26.31,96.91-2.53,103.39,2.14.68.49,1,.77,1,.77,26.87-9.1,51-4.5,66.33.83a89.89,89.89,0,0,1,17.19,7.87c16.27,6.06,29.87,13.36,41.21,21.66h0l.07.07C575.6,511.06,302.76,817.25,302.76,817.25Z"/><path class="cls-34" d="M307.73,503.8c0,121.88-20.26,260.15-42.91,311.85L226.73,814c-18.58-42.7-33.19-141.25-44.23-255.24-8.94-92.43-6.13-154.62,2.41-196.23a52.69,52.69,0,0,1,7.92,1.92c59.48-26.31,96.91-2.53,103.39,2.14C303.28,401.2,307.73,446.67,307.73,503.8Z"/><path class="cls-34" d="M298,817l-16.93-.71c165.77-270.12,118.13-424.76,86-446.81L422,397.75h0s-27.87-15.71-27.86-15.68C553.83,494.12,343.6,762,298,817Z"/><path class="cls-34" d="M210.32,813.34l-19.89-.85c-52-63.74-237.4-308.61-116.16-418l.07-.05c19.89-12.93,37-15.39,37-15.39,5.91-3.79-2.44.43,3.16-2C94.65,413.45,52.42,551.45,210.32,813.34Z"/></g><g class="cls-51"><g class="cls-52"><rect class="cls-53" x="-1463.97" y="-973.69" width="3239.51" height="1468.15"/><path class="cls-16" d="M407.47,42.55s372.32-149.68,691.82-149.68S1775.54,154,1775.54,154l-2.38,146.33L474.68,334.54Z"/><path class="cls-54" d="M-650.25-116.4s345.74-129.47,758.5-31.07S869.9,179.18,869.9,179.18l292.6,152.36L-487.23,307.37Z"/><path class="cls-55" d="M-1464.92-397.24s814.39,104.3,1357.4,518L199.82,334.54l-367.57,127.3-806.74,20.51-490.43-25.44Z"/><path class="cls-56" d="M-843.2,307.49S-387.4,89.36,348.34,91.22,1536.62,207.4,1536.62,207.4l161.94,90.87L108.25,408Z"/><path class="cls-19" d="M811.42,277.65S1399.3,223.81,1775.54,182V334.54S837.43,318,811.42,277.65Z"/><path class="cls-57" d="M-1464,211.11s212.37,2,335.68,0,515.06-4.23,584.83-5.7,369.31-24.6,432.11-33.11,337.9-8.33,468.12,8.77,350.91,3.69,350.91,3.69v17s-274.46,4.43-340.47,1.48S168.76,180.34,17.28,184s-293.37,21.41-293.37,21.41L-667,221.53l-312.33,9L-1464,222.7Z"/><polygon class="cls-58" points="-62.52 144.51 10.77 140.53 0.11 283.86 -44.6 283.86 -62.52 144.51"/><polygon class="cls-58" points="54.18 145.56 108.25 145.56 95.28 287.99 54.18 283.86 54.18 145.56"/><polygon class="cls-58" points="152.24 148.45 195.49 148.45 199.82 221.53 199.82 287.99 147.91 283.86 152.24 148.45"/><path class="cls-58" d="M238,145.56h46.15s14.42.69,13.69,23.39-11.53,109.4-11.53,109.4H240.92Z"/><polygon class="cls-58" points="348.34 162.07 390.88 166.06 390.88 278.35 333.2 278.35 348.34 162.07"/><polygon class="cls-58" points="445.68 140.53 429.1 242.94 432.7 278.35 495.43 278.35 486.25 140.53 445.68 140.53"/><path class="cls-58" d="M527.15,140.53l47.59,5s12.25-2.34,13,20.5-10.09,115-10.09,115H535.08Z"/><polygon class="cls-58" points="634.58 162.07 675.67 165.51 678.56 278.35 623.76 281.1 634.58 162.07"/><polygon class="cls-59" points="-62.52 144.51 4.64 145.56 -4.53 283.86 0.11 283.86 10.77 140.53 -62.52 144.51"/><polygon class="cls-59" points="54.18 145.56 101.1 148.45 89.53 287.41 95.28 287.99 108.25 145.56 54.18 145.56"/><polygon class="cls-59" points="152.24 148.45 188.93 151.76 195.52 211.96 195.52 287.99 199.82 287.99 199.54 216.77 195.49 148.45 152.24 148.45"/><path class="cls-59" d="M238,145.56l46,4.55s9.37,2,10.06,18.87-11.45,109.37-11.45,109.37h3.72l10.72-96.79s7.07-31.94-12.88-36Z"/><polygon class="cls-59" points="348.34 162.07 385.68 169.98 385.68 278.35 390.88 278.35 390.88 166.06 348.34 162.07"/><polygon class="cls-59" points="445.68 140.53 480.07 145.56 489.09 278.35 495.43 278.35 486.25 140.53 445.68 140.53"/><path class="cls-59" d="M527.15,140.53l46.61,8.91s12.15,4.64,9.37,34.44l-9.72,97.22h4.21l8.71-86s8.51-43.89-8.8-49.42Z"/><polygon class="cls-59" points="634.58 162.07 670.58 168.98 673.79 278.35 678.56 278.35 675.67 165.51 634.58 162.07"/><ellipse class="cls-60" cx="75.14" cy="175.29" rx="6.07" ry="5.8"/><ellipse class="cls-60" cx="173.86" cy="179.58" rx="6.07" ry="5.8"/><ellipse class="cls-60" cx="266.51" cy="185.38" rx="6.07" ry="5.8"/><ellipse class="cls-60" cx="368.12" cy="195.61" rx="6.07" ry="5.8"/><ellipse class="cls-60" cx="462.26" cy="197.26" rx="6.07" ry="5.8"/><ellipse class="cls-60" cx="559.59" cy="198.65" rx="6.07" ry="5.8"/><ellipse class="cls-60" cx="654" cy="197.26" rx="6.07" ry="5.8"/><path class="cls-61" d="M-1464,304s404.45-19,765.91,0S87.73,245.59,885.55,272.15s887.61,28.14,887.61,28.14L1774.64,848H-1464.92Z"/><path class="cls-25" d="M1766.54,517.1s-423.82-63.67-745.9-92-650-12.92-650-12.92S315.2,427.21,344,460.86s-58.57,43.22-130,47.57S21.94,510.85-70.62,531.19s-422.64,25.93-512.52,67,132.94,208,683.3,243.8H1766.54Z"/><path class="cls-62" d="M1774.64,533.19S1340.79,474.82,1023,447.58,381.5,435.17,381.5,435.17s-58.43,6.55-30,38.88-54,49.43-124.49,53.61S37.42,530-53.92,549.51-471,574.42-559.69,613.84-428.5,813.68,114.6,848h1660Z"/><path class="cls-63" d="M899.8,323.94l368.59,47.92,10.47-4.27L768,300.34l9.32,7.68,37.89,4.92-73.52,16.62.77.12-97.1-15.19-4.27,3.15,512.24,81.21,9.74-3.33-17-2.66L1214,364.79l-18.23-1.59-65,27.27.23,0L1051.2,378l49.19-28-12.48-1.62-51.28,27.33-94-14.72,48.33-24.91-10-1.61-49.63,24.75-81.22-12.72Zm-72.73-9.45,66.27,8.61-5-.65-52,21.92,2.72.43L757,332Z"/><path class="cls-64" d="M771.07,306.47S822.26,94.91,959.53,71.89C1178,35.25,1272.67,370.43,1272.67,370.43"/><line class="cls-64" x1="1152.76" y1="370.43" x2="1267.83" y2="355.05"/><line class="cls-65" x1="1130.24" y1="317.97" x2="1247.42" y2="305.83"/><line class="cls-66" x1="1108.02" y1="267.15" x2="1224.6" y2="258.84"/><line class="cls-67" x1="1075.23" y1="215.53" x2="1197.74" y2="212.18"/><line class="cls-68" x1="1036.07" y1="161.74" x2="1162.5" y2="163.28"/><line class="cls-69" x1="992.8" y1="118.52" x2="1124.87" y2="122.91"/><line class="cls-70" x1="949.33" y1="89.36" x2="1084.09" y2="93.09"/><line class="cls-71" x1="837.43" y1="66.78" x2="961.05" y2="71.64"/><line class="cls-72" x1="770.27" y1="91.22" x2="901.23" y2="95.05"/><line class="cls-73" x1="720.4" y1="137.72" x2="852.34" y2="142.5"/><line class="cls-74" x1="683.02" y1="199.99" x2="811.42" y2="202.36"/><line class="cls-75" x1="656.32" y1="272.24" x2="783.29" y2="267.15"/><path class="cls-76" d="M645.43,318.7s35.92-224.33,180.15-249C1055.08,30.49,1157,397.55,1157,397.55"/></g><ellipse class="cls-77" cx="803.77" cy="489.43" rx="59.76" ry="17"/><g id="ball"><circle class="cls-78" cx="793.52" cy="431.8" r="63.47"/><path class="cls-79" d="M768.2,467.32S810.74,437,842.44,436.2c0,0,7.54-8.3,7.69-9.17s-2.81-22.32-2.81-22.32S790.2,416.88,742,448.82L748.56,464Z"/><path class="cls-79" d="M735.58,429.33s16.23-22.54,38.28-33.47,44.31-13.59,63-7.05c0,0-3.88-7.47-10.71-11.32s-23-11.53-36.8-6.23l-5.61,4A98.51,98.51,0,0,0,741.45,400l-6.7,11.28Z"/><path class="cls-80" d="M777,488.56s-45.66-10.44-46.71-62.6c0,0,1.1-31.31,28.25-47.13l6.73,4.06s-16.87,9.29-23.84,17.06c0,0-6.85,14.85-4.56,27.81s5.17,26.9,31.31,39.56Z"/><path class="cls-80" d="M795.45,451.29l18.67-8.66s14.73,21,19.57,38.32c0,0-14.31,11.94-30.76,13.64A232.32,232.32,0,0,1,795.45,451.29Z"/><path class="cls-80" d="M842.44,436.2s10.13-25.37-6.18-48.33-41.38-17.18-52.47-12.62l-.58-6.1s32.1-4.66,51.77,14.57,27,42.17,13.13,73.79Z"/><path class="cls-81" d="M848.26,463.52s.66-1.81-1.09-9.53"/><path class="cls-82" d="M779.85,493.54s-.73-1.06-3-5.17"/></g><ellipse class="cls-77" cx="664.63" cy="564.88" rx="59.76" ry="17"/><g id="ball-2" data-name="ball"><circle class="cls-78" cx="657.61" cy="505.66" r="63.47"/><path class="cls-79" d="M623.08,479s28.71,43.67,28.27,75.38c0,0,8,7.85,8.87,8s22.41-1.95,22.41-1.95-10-57.54-40.06-106.92l-15.42,6Z"/><path class="cls-79" d="M662.29,447.86s21.9,17.08,32,39.53,11.89,44.79,4.65,63.27c0,0,7.61-3.6,11.71-10.27s12.4-22.58,7.63-36.54l-3.77-5.76a98.48,98.48,0,0,0-23.07-43.24l-11-7.13Z"/><path class="cls-80" d="M601.52,487s12.18-45.23,64.34-44.28c0,0,31.24,2.28,46,30l-4.32,6.57s-8.64-17.21-16.14-24.46c0,0-14.58-7.42-27.61-5.62s-27.09,4.14-40.73,29.77Z"/><path class="cls-80" d="M638.07,506.85l7.94,19s-21.59,13.91-39,18.08c0,0-11.39-14.75-12.46-31.25A231.77,231.77,0,0,1,638.07,506.85Z"/><path class="cls-80" d="M651.35,554.38s25,11.09,48.53-4.34,18.74-40.69,14.61-51.95l6.12-.34S724,530,704.07,548.93s-43.17,25.38-74.23,10.3Z"/><path class="cls-81" d="M623.83,559.16s1.78.72,9.56-.73"/><path class="cls-82" d="M596.43,489.65s1.09-.69,5.29-2.81"/></g><ellipse class="cls-77" cx="497.66" cy="495.23" rx="59.76" ry="17"/><g id="ball-3" data-name="ball"><circle class="cls-78" cx="509.08" cy="445.15" r="63.47"/><path class="cls-79" d="M519.53,487.5s4.69-52.05,24.76-76.6c0,0-1.38-11.12-1.95-11.81s-18.76-12.41-18.76-12.41-28,51.27-35.15,108.64l15.79,4.91Z"/><path class="cls-79" d="M469.46,487.5s-6.52-27-.45-50.85,18.55-42.47,35.72-52.42c0,0-8.19-1.93-15.56.75s-23.75,10-28.7,23.86l-.63,6.85A98.45,98.45,0,0,0,451,463.9l4.2,12.44Z"/><path class="cls-80" d="M541.4,494.65s-37.67,27.83-77.93-5.35c0,0-23-21.23-17.35-52.14l7.46-2.45s-3.94,18.84-2.58,29.19c0,0,6.8,14.88,18.12,21.58s23.79,13.61,50.41,2Z"/><path class="cls-80" d="M525.12,456.38l5.6-19.81s25.56,2.54,41.82,10.13c0,0-.27,18.63-9.69,32.21A232.47,232.47,0,0,1,525.12,456.38Z"/><path class="cls-80" d="M544.29,410.9s-12.64-24.21-40.69-26.79-40,20.2-43.76,31.58l-5-3.53s17.37-27.39,44.78-29.79,49.59,7,64.53,38.11Z"/><path class="cls-81" d="M568.81,424.28s-.95-1.67-7.94-5.38"/><path class="cls-82" d="M547,495.74s-1.28-.13-5.89-1.08"/></g><ellipse class="cls-77" cx="361.8" cy="600.07" rx="59.76" ry="17"/><g id="ball-4" data-name="ball"><circle class="cls-78" cx="357.95" cy="542.79" r="63.47"/><path class="cls-79" d="M318.7,523.75s37,36.88,43.07,68c0,0,9.44,6,10.33,6s21.54-6.49,21.54-6.49S372.1,537,332.56,494.84l-13.86,9Z"/><path class="cls-79" d="M350.71,485.25s24.93,12.24,39.39,32.16,20.79,41.41,17.48,61c0,0,6.71-5.07,9.36-12.45s7.53-24.64,0-37.32l-4.86-4.87a98.45,98.45,0,0,0-31.43-37.62l-12.24-4.72Z"/><path class="cls-80" d="M299.22,536s2.68-46.76,53.93-56.5c0,0,31.06-4.15,51.19,20l-2.89,7.31s-12-15.08-20.8-20.65c0,0-15.78-4.28-28.17.15s-25.67,9.59-33.78,37.47Z"/><path class="cls-80" d="M339.05,547.94l11.66,17s-18.29,18-34.52,25.68c0,0-14.16-12.11-18.58-28A232,232,0,0,1,339.05,547.94Z"/><path class="cls-80" d="M361.77,591.76s26.7,5.75,46.62-14.17,10-43.66,3.69-53.84l5.91-1.58s10,30.87-5.72,53.47-37.07,33.67-70.56,25.26Z"/><path class="cls-81" d="M335.81,602.06s1.89.34,9.21-2.67"/><path class="cls-82" d="M294.79,539.62s.92-.9,4.59-3.84"/></g><ellipse class="cls-77" cx="527.93" cy="638.46" rx="59.76" ry="17"/><g id="ball-5" data-name="ball"><circle class="cls-78" cx="527.37" cy="583.1" r="63.47"/><path class="cls-79" d="M495.32,612.7s47.85-21,79-15.29c0,0,9.08-6.58,9.4-7.4s1.82-22.42,1.82-22.42-58.41.23-112.11,21.64l3.31,16.2Z"/><path class="cls-79" d="M471.16,568.84s20.5-18.74,44.32-24.93,46.15-4.25,63.15,6c0,0-2.27-8.1-8.17-13.26s-20.19-16-34.75-13.63l-6.3,2.76a98.55,98.55,0,0,0-46.5,15.52L474.05,551Z"/><path class="cls-80" d="M499.62,635.29s-42.57-19.56-32.92-70.83c0,0,7.47-30.42,37.28-40.36l5.75,5.36s-18.41,5.64-26.82,11.82c0,0-9.74,13.14-10.14,26.29s-.44,27.4,22.55,45.13Z"/><path class="cls-80" d="M525.28,602.57l20.05-4.65s10.11,23.6,11.31,41.51c0,0-16.45,8.76-32.89,7.06A231.64,231.64,0,0,1,525.28,602.57Z"/><path class="cls-80" d="M574.36,597.41s15.1-22.75,3.83-48.56-37-25.28-48.78-23.09l.68-6.09s32.37,2,47.7,24.85,17.81,46.8-2.24,74.91Z"/><path class="cls-81" d="M574.47,625.35s1-1.64.89-9.55"/><path class="cls-82" d="M501.37,640.75s-.5-1.19-1.89-5.68"/></g><ellipse class="cls-77" cx="944.92" cy="568.7" rx="59.76" ry="17"/><g id="ball-6" data-name="ball"><circle class="cls-78" cx="946.6" cy="512.33" r="63.47"/><path class="cls-79" d="M958.05,470.24s-29.4,43.21-58.87,54.92c0,0-4.19,10.39-4,11.26s10.37,20,10.37,20,49.36-31.21,83.51-77.87l-11.41-12Z"/><path class="cls-79" d="M1001.81,494.57s-7.42,26.77-24.32,44.66-36.85,28.11-56.69,28.46c0,0,6.22,5.66,14,6.91s25.61,2.83,36.68-6.91l3.89-5.68a98.45,98.45,0,0,0,31.15-37.84l2.37-12.91Z"/><path class="cls-80" d="M942.41,453.37s46.45-6,65.5,42.54c0,0,9.83,29.75-10.16,54L990,548.43s12.61-14.56,16.45-24.26c0,0,1.28-16.31-5.36-27.66S987,473.05,958.05,470.24Z"/><path class="cls-80" d="M938,494.72l-14.52,14.6s-21.1-14.64-31.63-29.17c0,0,9.29-16.16,24.13-23.45A232.5,232.5,0,0,1,938,494.72Z"/><path class="cls-80" d="M899.18,525.16s-.71,27.3,22.55,43.19,44.77,1.77,53.6-6.34l2.65,5.52s-28.5,15.49-53.61,4.27-40-30.2-37.89-64.67Z"/><path class="cls-81" d="M884.26,501.55s0,1.92,4.32,8.56"/><path class="cls-82" d="M938,449.68s1.06.74,4.62,3.81"/></g><ellipse class="cls-77" cx="806.88" cy="637.04" rx="59.76" ry="17"/><g id="ball-7" data-name="ball"><circle class="cls-78" cx="808.53" cy="580.6" r="63.47"/><path class="cls-79" d="M765.82,571.71s44.91,26.74,58.36,55.45c0,0,10.63,3.56,11.49,3.34S855,619,855,619s-34.13-47.4-82.76-78.67L761,552.39Z"/><path class="cls-79" d="M787.48,526.56s27.16,5.8,46,21.59,30.27,35.09,31.82,54.87c0,0,5.28-6.55,6-14.35s1.29-25.73-9.1-36.2l-5.91-3.53a98.4,98.4,0,0,0-39.64-28.82l-13-1.59Z"/><path class="cls-80" d="M749.92,588.33s-8.8-46,38.53-67.94c0,0,29.1-11.6,54.51,6.89l-1,7.79s-15.28-11.7-25.2-15c0,0-16.35-.3-27.29,7s-22.56,15.56-23.63,44.58Z"/><path class="cls-80" d="M791.47,590.21l15.43,13.61s-13.33,21.95-27.21,33.33c0,0-16.68-8.3-24.86-22.67A232.14,232.14,0,0,1,791.47,590.21Z"/><path class="cls-80" d="M824.18,627.16s27.3-.93,41.76-25.1-.92-44.8-9.56-53.12l5.35-3s17.19,27.51,7.49,53.26-27.74,41.69-62.27,41.7Z"/><path class="cls-81" d="M801.51,643.48s1.92-.13,8.29-4.83"/><path class="cls-82" d="M746.5,592.93s.68-1.09,3.53-4.84"/></g></g><g class="cls-83"><g class="cls-84"><g id="Slide_12-3" data-name="Slide 12"><path class="cls-85" d="M1426-127c18.29-20.84,51.21-59.6,62.81-55.39-38.39,38-36.64,61.72-36.64,61.72s33.15-45.89,69.79-49.06c-44.3,28.08-52.35,42.78-52.35,58.55,0,4.25,5.17-21.83,53.65-15.11,10.47,3.16,40.64-16.69,40.57-16.54-17.53,37.18-63.44,26.87-80.89,34.78-45.63,20.7,864.15-5.33,990.77-11.83,711.35-36.52,869.17-26.22,892,17.36,16.85,32.2,7,76.32-15.24,102.12C3297.36,61.16,3180,8.72,2898.3,20c-34.26,1.36-87.6,4.34-167.57,4.28-86.77-.07-150.29-3.66-162.85-4.28C2351.37,9.15,1339.21,84,1300,20.12c-10.72-17.47-34-101.5-29.72-109.44C1289.63-124.87,1392.38-88.73,1426-127Z"/></g></g></g><g class="cls-86"><g class="cls-87"><rect class="cls-88" x="-1712.22" y="498.12" width="1934.1" height="950.07"/><path class="cls-89" d="M16.14,704.75S61,660.2,128.89,672.93s57.44,49.92,24.52,52.19-97.35,2.68-111.36,0S11.23,723.14,16.14,704.75Z"/></g></g><g class="cls-90"><g class="cls-91"><path class="cls-92" d="M2805,1411.72,627.62,1422.84q18.11-521,36.19-1042.09H2805Z"/><path class="cls-93" d="M1003.29,648.24c-28.72-7.09-54.86,5.61-70.39,16.09a58.17,58.17,0,0,0-42.24-2.9c-22.44,7.18-34.4,25.93-37.59,31.3,0,0-1.21,10.95,17.18,11.73,25.65,1.08,53.2,4.19,69.29.64,9.41.91,22.25,2.09,39.18,3.5C1020.48,712.29,1045.86,680.18,1003.29,648.24Z"/></g></g></svg>