<svg xmlns="http://www.w3.org/2000/svg" xmlns:xlink="http://www.w3.org/1999/xlink" viewBox="0 0 1280 720"><defs><style>.cls-1{isolation:isolate;}.cls-2{fill:#00aff2;}.cls-3{opacity:0.06;}.cls-4,.cls-40,.cls-72{fill:#fff;}.cls-5{font-size:42.66px;fill:#323232;}.cls-5,.cls-73,.cls-74{font-family:SassoonSansUSBold, Sassoon Sans US;}.cls-48,.cls-6,.cls-73{opacity:0.5;}.cls-7{fill:#003b49;}.cls-16,.cls-8{fill:#f23636;stroke:#a50e0e;}.cls-10,.cls-13,.cls-16,.cls-19,.cls-21,.cls-23,.cls-24,.cls-26,.cls-30,.cls-39,.cls-42,.cls-43,.cls-49,.cls-59,.cls-67,.cls-8{stroke-miterlimit:10;}.cls-8{stroke-width:2.56px;}.cls-9{fill:#f4a800;}.cls-10,.cls-21,.cls-54{fill:#ea2424;}.cls-10,.cls-24,.cls-26{stroke:#000;}.cls-10,.cls-13,.cls-26{stroke-width:2px;}.cls-11{fill:#f95353;}.cls-12{fill:#b52121;}.cls-13,.cls-55{fill:#c4000c;}.cls-13{stroke:#680710;}.cls-14{fill:#e83d56;}.cls-15{fill:#ff83a1;}.cls-16{stroke-width:1.9px;}.cls-17{fill:#fc7c7c;}.cls-18{fill:#571094;}.cls-19{fill:#d6d6d0;stroke:#8e888a;}.cls-20{fill:#efefed;opacity:0.6;}.cls-21{stroke:#af0404;stroke-width:1.98px;}.cls-22{fill:#ff4824;}.cls-23{fill:#8b8c88;stroke:#383535;}.cls-24,.cls-26{fill:#32332e;}.cls-25{fill:#ff4821;}.cls-27{fill:#ff4822;}.cls-28,.cls-38{fill:#d7f7ff;}.cls-28{opacity:0.25;}.cls-29{fill:#9f1dfd;}.cls-30{fill:#25a4d6;stroke:#0b5b68;}.cls-31{fill:#9ae9f7;}.cls-32{fill:#defcff;}.cls-33{fill:#931ad8;}.cls-34{fill:#e5bfff;}.cls-35{fill:#5a1197;}.cls-36{fill:#941ad9;}.cls-37{fill:#b132ff;}.cls-38{opacity:0.37;}.cls-39{fill:#8aeeff;stroke:#044a66;stroke-width:1.61px;}.cls-40{mix-blend-mode:soft-light;}.cls-41{fill:#5c0f95;}.cls-42,.cls-43{fill:#ff9022;stroke:#c96a0a;}.cls-42{stroke-width:0.82px;}.cls-43{stroke-width:0.82px;}.cls-44{fill:#92ff9f;}.cls-45,.cls-49{fill:#ff0;}.cls-46{fill:#999;}.cls-47{fill:#0267ff;}.cls-49{stroke:#494949;stroke-width:0.75px;}.cls-50{fill:#ffa63b;}.cls-51{fill:#9a3714;}.cls-52{fill:#c9ffff;}.cls-53{fill:#a5bbc1;mix-blend-mode:multiply;}.cls-53,.cls-72{opacity:0.3;}.cls-56{fill:#8b00d2;}.cls-57{fill:#a12ce5;}.cls-58{fill:#ffa700;}.cls-59,.cls-67{fill:none;}.cls-59{stroke:#9a3714;}.cls-60{fill:#ff4833;}.cls-61{fill:#b222a1;}.cls-62{fill:#86251c;}.cls-63{fill:#6b6b6b;}.cls-63,.cls-64,.cls-65,.cls-67{fill-rule:evenodd;}.cls-64{fill:#dd2c2c;}.cls-65{fill:#fff200;}.cls-66{fill:#ff8500;}.cls-67{stroke:#f96500;stroke-width:0.5px;}.cls-68{fill:url(#linear-gradient);}.cls-69{fill:#fff289;}.cls-70{fill:url(#linear-gradient-2);}.cls-71{opacity:0.2;}.cls-73,.cls-74{font-size:80px;letter-spacing:0.08em;}.cls-74{fill:#fff800;}</style><linearGradient id="linear-gradient" x1="995.51" y1="51.31" x2="995.51" y2="106.66" gradientUnits="userSpaceOnUse"><stop offset="0" stop-color="#f8f096"/><stop offset="0.23" stop-color="#eac200"/><stop offset="0.61" stop-color="#dc8e06"/><stop offset="1" stop-color="#ad6318"/></linearGradient><linearGradient id="linear-gradient-2" x1="995.51" y1="54.88" x2="995.51" y2="103.46" gradientUnits="userSpaceOnUse"><stop offset="0" stop-color="#f8f096"/><stop offset="0.32" stop-color="#ffdf00"/><stop offset="0.7" stop-color="#f5a200"/><stop offset="1" stop-color="#d7ab00"/></linearGradient></defs><g class="cls-1"><g id="Layer_2" data-name="Layer 2"><g id="BG_1" data-name="BG 1"><rect class="cls-2" width="1279.71" height="720"/><g id="BG_texture" data-name="BG texture" class="cls-3"><polygon class="cls-4" points="83.67 438.06 92.73 443.66 90.38 432.98 98.3 425.77 87.8 424.79 83.64 414.73 79.51 424.8 69.01 425.8 76.95 433 74.63 443.68 83.67 438.06"/><path class="cls-4" d="M27.15,422.18l12.88,8L36.69,415,48,404.71,33,403.33,27.12,389l-5.88,14.31L6.32,404.77,17.61,415,14.3,430.17Zm-11.6-14.31,8.3-.8,3.28-8,3.29,8,8.31.77-6.27,5.71L34.32,422l-7.17-4.43L20,422l1.84-8.45Z"/><polygon class="cls-4" points="83.8 548.62 79.66 558.69 69.17 559.69 77.11 566.89 74.78 577.57 83.83 571.95 92.89 577.54 90.53 566.87 98.46 559.65 87.96 558.68 83.8 548.62"/><path class="cls-4" d="M27.27,517.32l12.87,8L36.8,510.11l11.26-10.26-14.92-1.38-5.91-14.3-5.88,14.31L6.43,499.91l11.29,10.23-3.31,15.17ZM15.66,503l8.3-.8,3.28-8,3.29,8,8.31.77-6.27,5.71,1.86,8.45-7.17-4.43-7.16,4.44,1.84-8.45Z"/><path class="cls-4" d="M92.56,487.88l-8.32-20.11L76,487.9l-21,2L70.86,504.3l-4.65,21.36L84.3,514.42l18.11,11.19-4.7-21.34,15.85-14.44Zm-.8,14.39,2.62,11.89-10.09-6.24-10.08,6.26,2.6-11.89-8.85-8,11.69-1.12,4.61-11.21,4.63,11.2,11.7,1.09Z"/><polygon class="cls-4" points="26.82 463.06 33.26 467.04 31.59 459.46 37.22 454.33 29.76 453.63 26.8 446.49 23.86 453.64 16.4 454.35 22.05 459.47 20.39 467.06 26.82 463.06"/><polygon class="cls-4" points="90.22 299.1 98.14 291.88 87.65 290.9 83.49 280.84 79.35 290.91 68.85 291.92 76.8 299.11 74.47 309.79 83.51 304.17 92.57 309.77 90.22 299.1"/><path class="cls-4" d="M27,327.05,39.92,335l-3.34-15.17,11.26-10.25-14.92-1.39L27,293.89l-5.88,14.32L6.21,309.63,17.5,319.86,14.19,335ZM15.43,312.73l8.31-.79L27,304l3.29,8,8.31.77-6.27,5.71,1.86,8.45L27,322.43l-7.16,4.45,1.84-8.45Z"/><path class="cls-4" d="M102.26,391.73l-4.71-21.35L113.4,356l-21-1.95-8.32-20.12L75.81,354l-21,2,15.88,14.4-4.65,21.35,18.09-11.24ZM76.65,368.4l-8.85-8,11.69-1.11,4.61-11.22,4.64,11.2,11.69,1.09-8.83,8,2.62,11.89L84.13,374l-10.07,6.26Z"/><polygon class="cls-4" points="26.71 367.92 33.15 371.9 31.48 364.32 37.11 359.19 29.65 358.5 26.69 351.35 23.75 358.5 16.29 359.22 21.94 364.33 20.28 371.92 26.71 367.92"/><path class="cls-4" d="M27.45,674.45l-5.88,14.31L6.65,690.18l11.29,10.23-3.31,15.18,12.86-8,12.87,8L37,700.39l11.26-10.26-14.92-1.38Zm11.61,18.81L32.79,699l1.86,8.44L27.48,703l-7.16,4.45L22.16,699l-6.28-5.7,8.31-.79,3.27-8,3.29,8Z"/><polygon class="cls-4" points="83.96 682.51 79.82 692.58 69.32 693.58 77.26 700.78 74.94 711.46 83.98 705.83 93.04 711.43 90.69 700.76 98.61 693.54 88.12 692.57 83.96 682.51"/><path class="cls-4" d="M36.91,605.25,48.17,595l-14.92-1.38-5.91-14.3-5.88,14.31L6.54,595l11.29,10.23-3.31,15.18,12.86-8,12.87,8Zm-9.54,2.6-7.16,4.44,1.84-8.45-6.28-5.69,8.31-.8,3.27-8,3.29,8,8.31.78-6.27,5.71,1.86,8.45Z"/><polygon class="cls-4" points="27.02 636.76 24.08 643.92 16.63 644.63 22.27 649.75 20.61 657.33 27.04 653.34 33.48 657.32 31.81 649.74 37.44 644.61 29.98 643.91 27.02 636.76"/><path class="cls-4" d="M84.4,601.65l-8.28,20.14-21,2L71,638.19l-4.66,21.36,18.09-11.24,18.12,11.19-4.7-21.34,15.85-14.44-21-2Zm16.34,26.47-8.82,8L94.54,648l-10.09-6.23-10.08,6.26L77,636.18l-8.84-8L79.81,627l4.6-11.21L89.05,627Z"/><polygon class="cls-4" points="26.93 558.2 33.37 562.18 31.7 554.6 37.33 549.47 29.87 548.77 26.91 541.63 23.97 548.78 16.52 549.49 22.16 554.61 20.5 562.2 26.93 558.2"/><polygon class="cls-4" points="79.47 157.21 68.97 158.21 76.91 165.41 74.58 176.09 83.63 170.47 92.69 176.07 90.33 165.39 98.26 158.18 87.76 157.2 83.6 147.14 79.47 157.21"/><path class="cls-4" d="M27.13,232,40,240l-3.34-15.16,11.26-10.26L33,213.18l-5.91-14.29L21.21,213.2,6.29,214.62l11.29,10.23L14.27,240ZM15.52,217.72l8.3-.79,3.28-8,3.29,8,8.31.77-6.27,5.72,1.86,8.44-7.17-4.43L20,231.87l1.84-8.45Z"/><path class="cls-4" d="M102.37,258l-4.7-21.34,15.85-14.44-21-2L84.2,200.18l-8.27,20.13-21,2,15.88,14.39-4.65,21.36,18.09-11.24ZM76.76,234.7l-8.84-8,11.69-1.12,4.61-11.21,4.63,11.2,11.7,1.09-8.83,8,2.62,11.89-10.09-6.24-10.08,6.26Z"/><polygon class="cls-4" points="26.79 272.92 33.23 276.89 31.56 269.31 37.19 264.18 29.73 263.49 26.77 256.34 23.83 263.5 16.37 264.21 22.02 269.32 20.36 276.91 26.79 272.92"/><polygon class="cls-4" points="79.47 18.86 68.97 19.86 76.91 27.06 74.58 37.74 83.63 32.12 92.69 37.72 90.33 27.04 98.26 19.82 87.76 18.85 83.6 8.79 79.47 18.86"/><path class="cls-4" d="M27.13,133.73l12.87,8-3.34-15.16,11.26-10.26L33,114.87l-5.91-14.29-5.88,14.31L6.29,116.31l11.29,10.23-3.31,15.18ZM15.52,119.41l8.3-.79,3.28-8,3.29,8,8.31.77-6.27,5.72,1.86,8.44-7.17-4.43L20,133.56l1.84-8.45Z"/><path class="cls-4" d="M102.37,119.67l-4.7-21.34,15.85-14.44-21-2L84.2,61.82,75.93,82l-21,2L70.82,98.36l-4.65,21.36,18.09-11.24ZM76.76,96.35l-8.84-8,11.69-1.12L84.22,76l4.63,11.2,11.7,1.09-8.83,8,2.62,11.88L84.25,102l-10.08,6.26Z"/><polygon class="cls-4" points="26.79 174.61 33.23 178.59 31.56 171 37.19 165.87 29.73 165.18 26.77 158.03 23.83 165.19 16.37 165.9 22.02 171.01 20.36 178.6 26.79 174.61"/><path class="cls-4" d="M27.13,35.42,40,43.37,36.66,28.21,47.92,18,33,16.56,27.09,2.27,21.21,16.58,6.29,18,17.58,28.23,14.27,43.41ZM15.52,21.1l8.3-.79,3.28-8,3.29,8,8.31.77-6.27,5.72,1.86,8.44L27.12,30.8,20,35.25,21.8,26.8Z"/><polygon class="cls-4" points="26.79 76.3 33.23 80.28 31.56 72.69 37.19 67.56 29.73 66.87 26.77 59.72 23.83 66.88 16.37 67.59 22.02 72.7 20.36 80.29 26.79 76.3"/><polygon class="cls-4" points="195.65 438.06 204.7 443.66 202.35 432.98 210.28 425.77 199.78 424.79 195.62 414.73 191.48 424.8 180.99 425.8 188.93 433 186.6 443.68 195.65 438.06"/><path class="cls-4" d="M139.13,422.18l12.87,8L148.66,415l11.26-10.26L145,403.33,139.09,389l-5.88,14.31-14.91,1.43L129.58,415l-3.31,15.17Zm-11.61-14.31,8.31-.8,3.27-8,3.3,8,8.3.77-6.27,5.71,1.86,8.45-7.17-4.43L132,422l1.84-8.45Z"/><polygon class="cls-4" points="195.77 548.62 191.64 558.69 181.14 559.69 189.08 566.89 186.76 577.57 195.8 571.95 204.86 577.54 202.51 566.87 210.43 559.65 199.93 558.68 195.77 548.62"/><path class="cls-4" d="M139.24,517.32l12.87,8-3.34-15.17L160,499.85l-14.92-1.38-5.91-14.3-5.88,14.31-14.91,1.43,11.28,10.23-3.3,15.17ZM127.63,503l8.31-.8,3.27-8,3.3,8,8.31.77-6.28,5.71,1.86,8.45-7.17-4.43-7.15,4.44,1.84-8.45Z"/><path class="cls-4" d="M204.54,487.88l-8.32-20.11-8.28,20.13-21,2,15.88,14.39-4.65,21.36,18.09-11.24,18.12,11.19-4.71-21.34,15.85-14.44Zm-.81,14.39,2.62,11.89-10.09-6.24-10.07,6.26,2.59-11.89-8.85-8,11.7-1.12,4.6-11.21,4.64,11.2,11.69,1.09Z"/><polygon class="cls-4" points="138.79 463.06 145.23 467.04 143.56 459.46 149.19 454.33 141.73 453.63 138.78 446.49 135.84 453.64 128.38 454.35 134.02 459.47 132.37 467.06 138.79 463.06"/><polygon class="cls-4" points="202.19 299.1 210.12 291.88 199.62 290.9 195.46 280.84 191.32 290.91 180.83 291.92 188.77 299.11 186.44 309.79 195.49 304.17 204.55 309.77 202.19 299.1"/><path class="cls-4" d="M139,327.05,151.89,335l-3.34-15.17,11.26-10.25-14.92-1.39L139,293.89l-5.88,14.32-14.92,1.42,11.29,10.23L126.16,335Zm-11.61-14.32,8.31-.79,3.27-8,3.29,8,8.31.77-6.27,5.71,1.86,8.45L139,322.43l-7.16,4.45,1.84-8.45Z"/><path class="cls-4" d="M214.23,391.73l-4.7-21.35L225.38,356l-21-1.95-8.32-20.12L187.79,354l-21,2,15.88,14.4L178,391.77l18.09-11.24ZM188.62,368.4l-8.84-8,11.69-1.11,4.61-11.22,4.63,11.2,11.7,1.09-8.83,8,2.62,11.89L196.11,374,186,380.29Z"/><polygon class="cls-4" points="138.68 367.92 145.12 371.9 143.45 364.32 149.08 359.19 141.62 358.5 138.66 351.35 135.72 358.5 128.27 359.22 133.91 364.33 132.26 371.92 138.68 367.92"/><path class="cls-4" d="M139.42,674.45l-5.88,14.31-14.91,1.42,11.28,10.23-3.3,15.18,12.85-8,12.88,8L149,700.39l11.27-10.26-14.92-1.38ZM151,693.26,144.77,699l1.86,8.44L139.46,703l-7.16,4.45,1.84-8.45-6.29-5.7,8.31-.79,3.28-8,3.29,8Z"/><polygon class="cls-4" points="195.93 682.51 191.79 692.58 181.3 693.58 189.24 700.78 186.91 711.46 195.96 705.83 205.01 711.43 202.66 700.76 210.59 693.54 200.09 692.57 195.93 682.51"/><path class="cls-4" d="M148.88,605.25,160.14,595l-14.92-1.38-5.91-14.3-5.88,14.31L118.52,595l11.28,10.23-3.3,15.18,12.85-8,12.87,8Zm-9.53,2.6-7.16,4.44,1.84-8.45-6.29-5.69,8.31-.8,3.27-8,3.3,8,8.31.78-6.28,5.71,1.87,8.45Z"/><polygon class="cls-4" points="139 636.76 136.06 643.92 128.6 644.63 134.24 649.75 132.59 657.33 139.02 653.34 145.45 657.32 143.78 649.74 149.41 644.61 141.95 643.91 139 636.76"/><path class="cls-4" d="M196.37,601.65l-8.27,20.14-21,2L183,638.19l-4.65,21.36,18.09-11.24,18.11,11.19-4.7-21.34,15.85-14.44-21-2Zm16.35,26.47-8.83,8L206.51,648l-10.09-6.23-10.07,6.26,2.59-11.89-8.85-8L191.78,627l4.61-11.21L201,627Z"/><polygon class="cls-4" points="138.91 558.2 145.34 562.18 143.67 554.6 149.3 549.47 141.84 548.77 138.89 541.63 135.95 548.78 128.49 549.49 134.13 554.61 132.48 562.2 138.91 558.2"/><polygon class="cls-4" points="191.44 157.21 180.94 158.21 188.88 165.41 186.56 176.09 195.6 170.47 204.66 176.07 202.31 165.39 210.24 158.18 199.74 157.2 195.58 147.14 191.44 157.21"/><path class="cls-4" d="M139.1,232,152,240l-3.34-15.16,11.26-10.26L145,213.18l-5.91-14.29-5.88,14.31-14.91,1.42,11.28,10.23L126.25,240Zm-11.61-14.32,8.31-.79,3.27-8,3.3,8,8.31.77-6.28,5.72,1.86,8.44-7.17-4.43-7.15,4.45,1.84-8.45Z"/><path class="cls-4" d="M214.35,258l-4.71-21.34,15.85-14.44-21-2-8.32-20.11-8.28,20.13-21,2,15.88,14.39-4.65,21.36,18.09-11.24ZM188.74,234.7l-8.85-8,11.69-1.12,4.61-11.21,4.64,11.2,11.69,1.09-8.83,8,2.62,11.89-10.09-6.24-10.07,6.26Z"/><polygon class="cls-4" points="138.77 272.92 145.2 276.89 143.53 269.31 149.16 264.18 141.7 263.49 138.75 256.34 135.81 263.5 128.35 264.21 133.99 269.32 132.34 276.91 138.77 272.92"/><polygon class="cls-4" points="191.44 18.86 180.94 19.86 188.88 27.06 186.56 37.74 195.6 32.12 204.66 37.72 202.31 27.04 210.24 19.82 199.74 18.85 195.58 8.79 191.44 18.86"/><path class="cls-4" d="M139.1,133.73l12.87,8-3.34-15.16,11.26-10.26L145,114.87l-5.91-14.29-5.88,14.31-14.91,1.42,11.28,10.23-3.3,15.18Zm-11.61-14.32,8.31-.79,3.27-8,3.3,8,8.31.77-6.28,5.72,1.86,8.44-7.17-4.43-7.15,4.45,1.84-8.45Z"/><path class="cls-4" d="M214.35,119.67l-4.71-21.34,15.85-14.44-21-2-8.32-20.12L187.9,82l-21,2,15.88,14.39-4.65,21.36,18.09-11.24ZM188.74,96.35l-8.85-8,11.69-1.12L196.19,76l4.64,11.2,11.69,1.09-8.83,8,2.62,11.88L196.22,102l-10.07,6.26Z"/><polygon class="cls-4" points="138.77 174.61 145.2 178.59 143.53 171 149.16 165.87 141.7 165.18 138.75 158.03 135.81 165.19 128.35 165.9 133.99 171.01 132.34 178.6 138.77 174.61"/><path class="cls-4" d="M139.1,35.42,152,43.37l-3.34-15.16L159.89,18,145,16.56,139.06,2.27l-5.88,14.31L118.27,18l11.28,10.23-3.3,15.18ZM127.49,21.1l8.31-.79,3.27-8,3.3,8,8.31.77-6.28,5.72,1.86,8.44-7.17-4.43-7.15,4.45,1.84-8.45Z"/><polygon class="cls-4" points="138.77 76.3 145.2 80.28 143.53 72.69 149.16 67.56 141.7 66.87 138.75 59.72 135.81 66.88 128.35 67.59 133.99 72.7 132.34 80.29 138.77 76.3"/><polygon class="cls-4" points="307.62 438.06 316.68 443.66 314.33 432.98 322.25 425.77 311.75 424.79 307.59 414.73 303.45 424.8 292.96 425.8 300.9 433 298.57 443.68 307.62 438.06"/><path class="cls-4" d="M251.1,422.18l12.88,8L260.63,415l11.27-10.26L257,403.33,251.07,389l-5.88,14.31-14.92,1.43L241.56,415l-3.31,15.17Zm-11.61-14.31,8.31-.8,3.28-8,3.29,8,8.31.77-6.27,5.71,1.86,8.45-7.17-4.43L243.94,422l1.84-8.45Z"/><polygon class="cls-4" points="307.75 548.62 303.61 558.69 293.12 559.69 301.06 566.89 298.73 577.57 307.77 571.95 316.83 577.54 314.48 566.87 322.41 559.65 311.91 558.68 307.75 548.62"/><path class="cls-4" d="M251.21,517.32l12.88,8-3.34-15.17L272,499.85l-14.92-1.38-5.91-14.3-5.88,14.31-14.92,1.43,11.29,10.23-3.31,15.17ZM239.61,503l8.3-.8,3.28-8,3.29,8,8.31.77-6.27,5.71,1.86,8.45-7.17-4.43-7.16,4.44,1.84-8.45Z"/><path class="cls-4" d="M316.51,487.88l-8.32-20.11-8.27,20.13-21,2,15.88,14.39-4.65,21.36,18.09-11.24,18.11,11.19-4.7-21.34,15.85-14.44Zm-.8,14.39,2.62,11.89-10.09-6.24-10.08,6.26,2.59-11.89-8.84-8,11.69-1.12,4.61-11.21,4.63,11.2,11.7,1.09Z"/><polygon class="cls-4" points="250.77 463.06 257.21 467.04 255.53 459.46 261.17 454.33 253.71 453.63 250.75 446.49 247.81 453.64 240.35 454.35 246 459.47 244.34 467.06 250.77 463.06"/><polygon class="cls-4" points="314.17 299.1 322.09 291.88 311.6 290.9 307.44 280.84 303.3 290.91 292.8 291.92 300.75 299.11 298.42 309.79 307.46 304.17 316.52 309.77 314.17 299.1"/><path class="cls-4" d="M251,327.05,263.87,335l-3.35-15.17,11.27-10.25-14.92-1.39L251,293.89l-5.88,14.32-14.91,1.42,11.28,10.23L238.14,335Zm-11.61-14.32,8.31-.79,3.28-8,3.29,8,8.31.77-6.27,5.71,1.86,8.45L251,322.43l-7.16,4.45,1.84-8.45Z"/><path class="cls-4" d="M326.21,391.73l-4.71-21.35L337.35,356l-21-1.95L308,333.88,299.76,354l-21,2,15.88,14.4L290,391.77l18.09-11.24ZM300.6,368.4l-8.85-8,11.69-1.11,4.61-11.22,4.64,11.2,11.69,1.09-8.83,8,2.62,11.89L308.08,374,298,380.29Z"/><polygon class="cls-4" points="250.66 367.92 257.1 371.9 255.42 364.32 261.06 359.19 253.6 358.5 250.64 351.35 247.7 358.5 240.24 359.22 245.88 364.33 244.23 371.92 250.66 367.92"/><path class="cls-4" d="M251.4,674.45l-5.88,14.31-14.92,1.42,11.29,10.23-3.31,15.18,12.86-8,12.87,8L261,700.39l11.26-10.26-14.92-1.38ZM263,693.26,256.74,699l1.86,8.44L251.43,703l-7.16,4.45,1.84-8.45-6.28-5.7,8.31-.79,3.27-8,3.29,8Z"/><polygon class="cls-4" points="307.9 682.51 303.77 692.58 293.27 693.58 301.21 700.78 298.89 711.46 307.93 705.83 316.99 711.43 314.64 700.76 322.56 693.54 312.06 692.57 307.9 682.51"/><path class="cls-4" d="M260.86,605.25,272.12,595l-14.92-1.38-5.91-14.3-5.88,14.31L230.49,595l11.29,10.23-3.31,15.18,12.86-8,12.87,8Zm-9.54,2.6-7.16,4.44,1.84-8.45-6.28-5.69,8.3-.8,3.28-8,3.29,8,8.31.78-6.27,5.71,1.86,8.45Z"/><polygon class="cls-4" points="250.97 636.76 248.03 643.92 240.57 644.63 246.22 649.75 244.56 657.33 250.99 653.34 257.43 657.32 255.76 649.74 261.39 644.61 253.93 643.91 250.97 636.76"/><path class="cls-4" d="M308.35,601.65l-8.28,20.14-21,2L295,638.19l-4.65,21.36,18.09-11.24,18.12,11.19-4.71-21.34,15.85-14.44-21-2Zm16.34,26.47-8.83,8L318.48,648l-10.09-6.23-10.07,6.26,2.59-11.89-8.85-8,11.7-1.12,4.6-11.21L313,627Z"/><polygon class="cls-4" points="250.88 558.2 257.32 562.18 255.65 554.6 261.28 549.47 253.82 548.77 250.86 541.63 247.92 548.78 240.46 549.49 246.11 554.61 244.45 562.2 250.88 558.2"/><polygon class="cls-4" points="303.41 157.21 292.92 158.21 300.86 165.41 298.53 176.09 307.58 170.47 316.64 176.07 314.28 165.39 322.21 158.18 311.71 157.2 307.55 147.14 303.41 157.21"/><path class="cls-4" d="M251.07,232,264,240l-3.34-15.16,11.26-10.26L257,213.18,251,198.89l-5.88,14.31-14.92,1.42,11.29,10.23L238.22,240Zm-11.61-14.32,8.31-.79,3.28-8,3.29,8,8.31.77-6.27,5.72,1.86,8.44-7.17-4.43-7.16,4.45,1.84-8.45Z"/><path class="cls-4" d="M326.32,258l-4.7-21.34,15.85-14.44-21-2-8.32-20.11-8.27,20.13-21,2,15.89,14.39-4.66,21.36,18.09-11.24ZM300.71,234.7l-8.84-8,11.69-1.12,4.61-11.21,4.63,11.2,11.69,1.09-8.82,8,2.62,11.89-10.09-6.24-10.08,6.26Z"/><polygon class="cls-4" points="250.74 272.92 257.18 276.89 255.51 269.31 261.14 264.18 253.68 263.49 250.72 256.34 247.78 263.5 240.32 264.21 245.97 269.32 244.31 276.91 250.74 272.92"/><polygon class="cls-4" points="303.41 18.86 292.92 19.86 300.86 27.06 298.53 37.74 307.58 32.12 316.64 37.72 314.28 27.04 322.21 19.82 311.71 18.85 307.55 8.79 303.41 18.86"/><path class="cls-4" d="M251.07,133.73l12.88,8-3.34-15.16,11.26-10.26L257,114.87,251,100.58l-5.88,14.31-14.92,1.42,11.29,10.23-3.31,15.18Zm-11.61-14.32,8.31-.79,3.28-8,3.29,8,8.31.77-6.27,5.72,1.86,8.44-7.17-4.43-7.16,4.45,1.84-8.45Z"/><path class="cls-4" d="M326.32,119.67l-4.7-21.34,15.85-14.44-21-2-8.32-20.12L299.88,82l-21,2,15.89,14.39-4.66,21.36,18.09-11.24ZM300.71,96.35l-8.84-8,11.69-1.12L308.17,76l4.63,11.2,11.69,1.09-8.82,8,2.62,11.88L308.2,102l-10.08,6.26Z"/><polygon class="cls-4" points="250.74 174.61 257.18 178.59 255.51 171 261.14 165.87 253.68 165.18 250.72 158.03 247.78 165.19 240.32 165.9 245.97 171.01 244.31 178.6 250.74 174.61"/><path class="cls-4" d="M251.07,35.42,264,43.37l-3.34-15.16L271.87,18,257,16.56,251,2.27l-5.88,14.31L230.24,18l11.29,10.23-3.31,15.18ZM239.46,21.1l8.31-.79,3.28-8,3.29,8,8.31.77-6.27,5.72,1.86,8.44-7.17-4.43-7.16,4.45,1.84-8.45Z"/><polygon class="cls-4" points="250.74 76.3 257.18 80.28 255.51 72.69 261.14 67.56 253.68 66.87 250.72 59.72 247.78 66.88 240.32 67.59 245.97 72.7 244.31 80.29 250.74 76.3"/><polygon class="cls-4" points="419.59 438.06 428.65 443.66 426.3 432.98 434.23 425.77 423.73 424.79 419.57 414.73 415.43 424.8 404.93 425.8 412.88 433 410.55 443.68 419.59 438.06"/><path class="cls-4" d="M363.08,422.18l12.87,8L372.61,415l11.26-10.26L369,403.33,363,389l-5.88,14.31-14.92,1.43L353.53,415l-3.31,15.17Zm-11.61-14.31,8.31-.8,3.27-8,3.29,8,8.31.77-6.27,5.71,1.86,8.45-7.17-4.43L355.91,422l1.84-8.45Z"/><polygon class="cls-4" points="419.72 548.62 415.59 558.69 405.09 559.69 413.03 566.89 410.7 577.57 419.75 571.95 428.81 577.54 426.46 566.87 434.38 559.65 423.88 558.68 419.72 548.62"/><path class="cls-4" d="M363.19,517.32l12.87,8-3.34-15.17L384,499.85l-14.92-1.38-5.91-14.3-5.88,14.31-14.91,1.43,11.28,10.23-3.31,15.17ZM351.58,503l8.31-.8,3.27-8,3.3,8,8.3.77-6.27,5.71,1.86,8.45-7.17-4.43L356,517.15l1.85-8.45Z"/><path class="cls-4" d="M428.49,487.88l-8.32-20.11-8.28,20.13-21,2,15.88,14.39-4.65,21.36,18.09-11.24,18.12,11.19-4.71-21.34,15.85-14.44Zm-.81,14.39,2.62,11.89-10.09-6.24-10.07,6.26,2.59-11.89-8.85-8,11.69-1.12,4.61-11.21,4.64,11.2,11.69,1.09Z"/><polygon class="cls-4" points="362.74 463.06 369.18 467.04 367.51 459.46 373.14 454.33 365.68 453.63 362.73 446.49 359.79 453.64 352.33 454.35 357.97 459.47 356.32 467.06 362.74 463.06"/><polygon class="cls-4" points="426.14 299.1 434.07 291.88 423.57 290.9 419.41 280.84 415.27 290.91 404.78 291.92 412.72 299.11 410.39 309.79 419.44 304.17 428.5 309.77 426.14 299.1"/><path class="cls-4" d="M363,327.05,375.84,335l-3.34-15.17,11.26-10.25-14.92-1.39-5.91-14.3-5.88,14.32-14.92,1.42,11.29,10.23L350.11,335Zm-11.61-14.32,8.31-.79,3.27-8,3.29,8,8.31.77-6.27,5.71,1.86,8.45L363,322.43l-7.16,4.45,1.84-8.45Z"/><path class="cls-4" d="M438.18,391.73l-4.7-21.35L449.33,356l-21-1.95L420,333.88,411.74,354l-21,2,15.89,14.4L402,391.77l18.09-11.24ZM412.57,368.4l-8.84-8,11.69-1.11L420,348.05l4.63,11.2,11.69,1.09-8.82,8,2.62,11.89L420.06,374,410,380.29Z"/><polygon class="cls-4" points="362.63 367.92 369.07 371.9 367.4 364.32 373.03 359.19 365.57 358.5 362.61 351.35 359.67 358.5 352.22 359.22 357.86 364.33 356.21 371.92 362.63 367.92"/><path class="cls-4" d="M363.37,674.45l-5.88,14.31-14.91,1.42,11.28,10.23-3.3,15.18,12.85-8,12.87,8-3.34-15.17,11.26-10.26-14.92-1.38ZM375,693.26,368.71,699l1.87,8.44L363.41,703l-7.16,4.45,1.84-8.45-6.29-5.7,8.31-.79,3.27-8,3.3,8Z"/><polygon class="cls-4" points="419.88 682.51 415.74 692.58 405.25 693.58 413.19 700.78 410.86 711.46 419.91 705.83 428.96 711.43 426.61 700.76 434.54 693.54 424.04 692.57 419.88 682.51"/><path class="cls-4" d="M372.83,605.25,384.09,595l-14.92-1.38-5.91-14.3-5.88,14.31L342.47,595l11.28,10.23-3.3,15.18,12.85-8,12.87,8Zm-9.54,2.6-7.15,4.44,1.84-8.45-6.29-5.69,8.31-.8,3.27-8,3.3,8,8.31.78-6.28,5.71,1.86,8.45Z"/><polygon class="cls-4" points="362.95 636.76 360.01 643.92 352.55 644.63 358.19 649.75 356.54 657.33 362.97 653.34 369.4 657.32 367.73 649.74 373.36 644.61 365.9 643.91 362.95 636.76"/><path class="cls-4" d="M420.32,601.65l-8.27,20.14-21,2,15.88,14.4-4.65,21.36,18.09-11.24,18.11,11.19-4.7-21.34,15.85-14.44-21-2Zm16.35,26.47-8.83,8L430.46,648l-10.09-6.23-10.08,6.26,2.59-11.89-8.84-8L415.73,627l4.61-11.21L425,627Z"/><polygon class="cls-4" points="362.86 558.2 369.29 562.18 367.62 554.6 373.25 549.47 365.79 548.77 362.84 541.63 359.9 548.78 352.44 549.49 358.08 554.61 356.43 562.2 362.86 558.2"/><polygon class="cls-4" points="415.39 157.21 404.89 158.21 412.83 165.41 410.51 176.09 419.55 170.47 428.61 176.07 426.26 165.39 434.18 158.18 423.69 157.2 419.52 147.14 415.39 157.21"/><path class="cls-4" d="M363.05,232l12.87,8-3.34-15.16,11.26-10.26-14.92-1.39L363,198.89l-5.88,14.31-14.92,1.42,11.29,10.23L350.19,240Zm-11.61-14.32,8.31-.79,3.27-8,3.3,8,8.3.77-6.27,5.72,1.86,8.44L363,227.42l-7.16,4.45,1.85-8.45Z"/><path class="cls-4" d="M438.29,258l-4.7-21.34,15.85-14.44-21-2-8.32-20.11-8.27,20.13-21,2,15.88,14.39-4.65,21.36,18.09-11.24Zm-25.6-23.32-8.85-8,11.69-1.12,4.61-11.21,4.64,11.2,11.69,1.09-8.83,8,2.62,11.89-10.09-6.24-10.07,6.26Z"/><polygon class="cls-4" points="362.71 272.92 369.15 276.89 367.48 269.31 373.11 264.18 365.65 263.49 362.69 256.34 359.76 263.5 352.3 264.21 357.94 269.32 356.29 276.91 362.71 272.92"/><polygon class="cls-4" points="415.39 18.86 404.89 19.86 412.83 27.06 410.51 37.74 419.55 32.12 428.61 37.72 426.26 27.04 434.18 19.82 423.69 18.85 419.52 8.79 415.39 18.86"/><path class="cls-4" d="M363.05,133.73l12.87,8-3.34-15.16,11.26-10.26-14.92-1.39L363,100.58l-5.88,14.31-14.92,1.42,11.29,10.23-3.31,15.18Zm-11.61-14.32,8.31-.79,3.27-8,3.3,8,8.3.77-6.27,5.72,1.86,8.44L363,129.11l-7.16,4.45,1.85-8.45Z"/><path class="cls-4" d="M438.29,119.67l-4.7-21.34,15.85-14.44-21-2-8.32-20.12L411.85,82l-21,2,15.88,14.39-4.65,21.36,18.09-11.24Zm-25.6-23.32-8.85-8,11.69-1.12L420.14,76l4.64,11.2,11.69,1.09-8.83,8,2.62,11.88L420.17,102l-10.07,6.26Z"/><polygon class="cls-4" points="362.71 174.61 369.15 178.59 367.48 171 373.11 165.87 365.65 165.18 362.69 158.03 359.76 165.19 352.3 165.9 357.94 171.01 356.29 178.6 362.71 174.61"/><path class="cls-4" d="M363.05,35.42l12.87,7.95-3.34-15.16L383.84,18l-14.92-1.39L363,2.27l-5.88,14.31L342.21,18,353.5,28.23l-3.31,15.18ZM351.44,21.1l8.31-.79,3.27-8,3.3,8,8.3.77-6.27,5.72,1.86,8.44L363,30.8l-7.16,4.45,1.85-8.45Z"/><polygon class="cls-4" points="362.71 76.3 369.15 80.28 367.48 72.69 373.11 67.56 365.65 66.87 362.69 59.72 359.76 66.88 352.3 67.59 357.94 72.7 356.29 80.29 362.71 76.3"/><polygon class="cls-4" points="531.57 438.06 540.63 443.66 538.27 432.98 546.2 425.77 535.7 424.79 531.54 414.73 527.4 424.8 516.91 425.8 524.85 433 522.52 443.68 531.57 438.06"/><path class="cls-4" d="M475.05,422.18l12.88,8L484.58,415l11.27-10.26-14.92-1.38L475,389l-5.88,14.31-14.91,1.43L465.5,415l-3.3,15.17Zm-11.61-14.31,8.31-.8,3.28-8,3.29,8,8.31.77-6.27,5.71,1.86,8.45-7.17-4.43L467.89,422l1.84-8.45Z"/><polygon class="cls-4" points="531.7 548.62 527.56 558.69 517.07 559.69 525.01 566.89 522.68 577.57 531.72 571.95 540.78 577.54 538.43 566.87 546.36 559.65 535.86 558.68 531.7 548.62"/><path class="cls-4" d="M475.16,517.32l12.88,8-3.35-15.17L496,499.85,481,498.47l-5.92-14.3-5.87,14.31-14.92,1.43,11.29,10.23-3.31,15.17ZM463.55,503l8.31-.8,3.28-8,3.29,8,8.31.77-6.27,5.71,1.86,8.45-7.17-4.43L468,517.15l1.84-8.45Z"/><path class="cls-4" d="M540.46,487.88l-8.32-20.11-8.27,20.13-21,2,15.89,14.39-4.66,21.36,18.09-11.24,18.12,11.19-4.7-21.34,15.85-14.44Zm-.8,14.39,2.62,11.89-10.09-6.24-10.08,6.26,2.59-11.89-8.84-8,11.69-1.12,4.61-11.21,4.63,11.2,11.69,1.09Z"/><polygon class="cls-4" points="474.72 463.06 481.15 467.04 479.48 459.46 485.12 454.33 477.65 453.63 474.7 446.49 471.76 453.64 464.3 454.35 469.94 459.47 468.29 467.06 474.72 463.06"/><polygon class="cls-4" points="538.12 299.1 546.04 291.88 535.54 290.9 531.38 280.84 527.25 290.91 516.75 291.92 524.69 299.11 522.37 309.79 531.41 304.17 540.47 309.77 538.12 299.1"/><path class="cls-4" d="M474.94,327.05,487.81,335l-3.34-15.17,11.27-10.25-14.92-1.39-5.92-14.3L469,308.21l-14.91,1.42,11.28,10.23L462.09,335Zm-11.61-14.32,8.31-.79,3.27-8,3.3,8,8.31.77-6.28,5.71,1.87,8.45-7.17-4.43-7.16,4.45,1.84-8.45Z"/><path class="cls-4" d="M550.15,391.73l-4.7-21.35L561.3,356l-21-1.95L532,333.88,523.71,354l-21,2,15.88,14.4L514,391.77,532,380.53Zm-25.6-23.33-8.85-8,11.69-1.11L532,348.05l4.64,11.2,11.69,1.09-8.83,8,2.62,11.89L532,374,522,380.29Z"/><polygon class="cls-4" points="474.61 367.92 481.04 371.9 479.37 364.32 485 359.19 477.55 358.5 474.59 351.35 471.65 358.5 464.19 359.22 469.83 364.33 468.18 371.92 474.61 367.92"/><path class="cls-4" d="M475.35,674.45l-5.88,14.31-14.92,1.42,11.29,10.23-3.31,15.18,12.86-8,12.87,8-3.34-15.17,11.26-10.26-14.92-1.38ZM487,693.26,480.69,699l1.86,8.44L475.38,703l-7.16,4.45,1.84-8.45-6.28-5.7,8.3-.79,3.28-8,3.29,8Z"/><polygon class="cls-4" points="531.85 682.51 527.72 692.58 517.22 693.58 525.16 700.78 522.84 711.46 531.88 705.83 540.94 711.43 538.59 700.76 546.51 693.54 536.01 692.57 531.85 682.51"/><path class="cls-4" d="M484.81,605.25,496.07,595l-14.92-1.38-5.91-14.3-5.88,14.31L454.44,595l11.29,10.23-3.31,15.18,12.85-8,12.88,8Zm-9.54,2.6-7.16,4.44,1.84-8.45-6.28-5.69,8.3-.8,3.28-8,3.29,8,8.31.78-6.27,5.71,1.86,8.45Z"/><polygon class="cls-4" points="474.92 636.76 471.98 643.92 464.52 644.63 470.17 649.75 468.51 657.33 474.94 653.34 481.38 657.32 479.71 649.74 485.34 644.61 477.88 643.91 474.92 636.76"/><path class="cls-4" d="M532.3,601.65,524,621.79l-21,2,15.88,14.4-4.65,21.36,18.09-11.24,18.12,11.19-4.71-21.34,15.85-14.44-21-2Zm16.34,26.47-8.83,8L542.43,648l-10.09-6.23-10.07,6.26,2.59-11.89-8.85-8,11.7-1.12,4.6-11.21L537,627Z"/><polygon class="cls-4" points="474.83 558.2 481.27 562.18 479.6 554.6 485.23 549.47 477.77 548.77 474.81 541.63 471.87 548.78 464.41 549.49 470.06 554.61 468.4 562.2 474.83 558.2"/><polygon class="cls-4" points="527.36 157.21 516.87 158.21 524.81 165.41 522.48 176.09 531.53 170.47 540.59 176.07 538.23 165.39 546.16 158.18 535.66 157.2 531.5 147.14 527.36 157.21"/><path class="cls-4" d="M475,232l12.88,8-3.35-15.16,11.27-10.26-14.92-1.39L475,198.89l-5.87,14.31-14.92,1.42,11.29,10.23L462.17,240Zm-11.61-14.32,8.31-.79,3.28-8,3.29,8,8.31.77-6.27,5.72,1.86,8.44L475,227.42l-7.16,4.45,1.84-8.45Z"/><path class="cls-4" d="M550.27,258l-4.7-21.34,15.85-14.44-21-2-8.32-20.11-8.28,20.13-21,2,15.89,14.39-4.66,21.36,18.09-11.24ZM524.66,234.7l-8.84-8,11.69-1.12,4.61-11.21,4.63,11.2,11.69,1.09-8.82,8,2.62,11.89-10.09-6.24-10.08,6.26Z"/><polygon class="cls-4" points="474.69 272.92 481.13 276.89 479.45 269.31 485.09 264.18 477.63 263.49 474.67 256.34 471.73 263.5 464.27 264.21 469.92 269.32 468.26 276.91 474.69 272.92"/><polygon class="cls-4" points="527.36 18.86 516.87 19.86 524.81 27.06 522.48 37.74 531.53 32.12 540.59 37.72 538.23 27.04 546.16 19.82 535.66 18.85 531.5 8.79 527.36 18.86"/><path class="cls-4" d="M475,133.73l12.88,8-3.35-15.16,11.27-10.26-14.92-1.39L475,100.58l-5.87,14.31-14.92,1.42,11.29,10.23-3.31,15.18Zm-11.61-14.32,8.31-.79,3.28-8,3.29,8,8.31.77-6.27,5.72,1.86,8.44L475,129.11l-7.16,4.45,1.84-8.45Z"/><path class="cls-4" d="M550.27,119.67l-4.7-21.34,15.85-14.44-21-2L532.1,61.82,523.82,82l-21,2,15.89,14.39-4.66,21.36,18.09-11.24ZM524.66,96.35l-8.84-8,11.69-1.12L532.12,76l4.63,11.2,11.69,1.09-8.82,8,2.62,11.88L532.15,102l-10.08,6.26Z"/><polygon class="cls-4" points="474.69 174.61 481.13 178.59 479.45 171 485.09 165.87 477.63 165.18 474.67 158.03 471.73 165.19 464.27 165.9 469.92 171.01 468.26 178.6 474.69 174.61"/><path class="cls-4" d="M475,35.42l12.88,7.95-3.35-15.16L495.82,18,480.9,16.56,475,2.27l-5.87,14.31L454.19,18l11.29,10.23-3.31,15.18ZM463.41,21.1l8.31-.79,3.28-8,3.29,8,8.31.77-6.27,5.72,1.86,8.44L475,30.8l-7.16,4.45,1.84-8.45Z"/><polygon class="cls-4" points="474.69 76.3 481.13 80.28 479.45 72.69 485.09 67.56 477.63 66.87 474.67 59.72 471.73 66.88 464.27 67.59 469.92 72.7 468.26 80.29 474.69 76.3"/><polygon class="cls-4" points="643.54 438.06 652.6 443.66 650.25 432.98 658.17 425.77 647.68 424.79 643.52 414.73 639.38 424.8 628.88 425.8 636.82 433 634.5 443.68 643.54 438.06"/><path class="cls-4" d="M587,422.18l12.87,8L596.56,415l11.26-10.26-14.92-1.38L587,389l-5.88,14.31-14.92,1.43L577.48,415l-3.31,15.17Zm-11.61-14.31,8.31-.8,3.27-8,3.29,8,8.31.77-6.27,5.71,1.86,8.45L587,417.57,579.86,422l1.84-8.45Z"/><polygon class="cls-4" points="643.67 548.62 639.53 558.69 629.04 559.69 636.98 566.89 634.65 577.57 643.7 571.95 652.76 577.54 650.41 566.87 658.33 559.65 647.83 558.68 643.67 548.62"/><path class="cls-4" d="M587.14,517.32l12.87,8-3.34-15.17,11.26-10.26L593,498.47l-5.91-14.3-5.88,14.31-14.92,1.43,11.29,10.23-3.31,15.17ZM575.53,503l8.31-.8,3.27-8,3.29,8,8.31.77-6.27,5.71,1.86,8.45-7.17-4.43L580,517.15l1.84-8.45Z"/><path class="cls-4" d="M652.44,487.88l-8.33-20.11-8.27,20.13-21,2,15.88,14.39-4.65,21.36,18.09-11.24,18.11,11.19-4.7-21.34,15.85-14.44Zm-.81,14.39,2.62,11.89-10.09-6.24-10.07,6.26,2.59-11.89-8.85-8,11.69-1.12,4.61-11.21,4.64,11.2,11.69,1.09Z"/><polygon class="cls-4" points="586.69 463.06 593.13 467.04 591.46 459.46 597.09 454.33 589.63 453.63 586.67 446.49 583.73 453.64 576.28 454.35 581.92 459.47 580.27 467.06 586.69 463.06"/><polygon class="cls-4" points="650.09 299.1 658.02 291.88 647.52 290.9 643.36 280.84 639.22 290.91 628.73 291.92 636.67 299.11 634.34 309.79 643.39 304.17 652.45 309.77 650.09 299.1"/><path class="cls-4" d="M586.92,327.05,599.79,335l-3.34-15.17,11.26-10.25-14.92-1.39-5.91-14.3L581,308.21l-14.92,1.42,11.29,10.23L574.06,335Zm-11.61-14.32,8.31-.79,3.27-8,3.29,8,8.31.77-6.27,5.71,1.86,8.45-7.17-4.43-7.16,4.45,1.84-8.45Z"/><path class="cls-4" d="M662.13,391.73l-4.7-21.35L673.28,356l-21-1.95L644,333.88,635.68,354l-21,2,15.89,14.4-4.66,21.35L644,380.53ZM636.52,368.4l-8.84-8,11.69-1.11,4.6-11.22,4.64,11.2,11.69,1.09-8.82,8,2.62,11.89L644,374l-10.08,6.26Z"/><polygon class="cls-4" points="586.58 367.92 593.02 371.9 591.35 364.32 596.98 359.19 589.52 358.5 586.56 351.35 583.62 358.5 576.16 359.22 581.81 364.33 580.15 371.92 586.58 367.92"/><path class="cls-4" d="M587.32,674.45l-5.88,14.31-14.91,1.42,11.28,10.23-3.3,15.18,12.85-8,12.87,8-3.34-15.17,11.26-10.26-14.92-1.38Zm11.62,18.81L592.66,699l1.86,8.44L587.35,703l-7.15,4.45L582,699l-6.29-5.7,8.31-.79,3.27-8,3.3,8Z"/><polygon class="cls-4" points="643.83 682.51 639.69 692.58 629.2 693.58 637.14 700.78 634.81 711.46 643.86 705.83 652.91 711.43 650.56 700.76 658.49 693.54 647.99 692.57 643.83 682.51"/><path class="cls-4" d="M596.78,605.25,608,595l-14.92-1.38-5.91-14.3-5.88,14.31L566.41,595l11.29,10.23-3.31,15.18,12.86-8,12.87,8Zm-9.54,2.6-7.16,4.44,1.85-8.45-6.29-5.69,8.31-.8,3.27-8,3.3,8,8.3.78-6.27,5.71,1.86,8.45Z"/><polygon class="cls-4" points="586.9 636.76 583.96 643.92 576.5 644.63 582.14 649.75 580.49 657.33 586.91 653.34 593.35 657.32 591.68 649.74 597.31 644.61 589.85 643.91 586.9 636.76"/><path class="cls-4" d="M644.27,601.65,636,621.79l-21,2,15.88,14.4-4.65,21.36,18.09-11.24,18.11,11.19-4.7-21.34,15.85-14.44-21-2Zm16.35,26.47-8.83,8L654.41,648l-10.09-6.23-10.08,6.26,2.59-11.89-8.84-8L639.68,627l4.61-11.21,4.63,11.2Z"/><polygon class="cls-4" points="586.8 558.2 593.24 562.18 591.57 554.6 597.2 549.47 589.74 548.77 586.78 541.63 583.85 548.78 576.39 549.49 582.03 554.61 580.38 562.2 586.8 558.2"/><polygon class="cls-4" points="639.34 157.21 628.84 158.21 636.78 165.41 634.46 176.09 643.5 170.47 652.56 176.07 650.21 165.39 658.13 158.18 647.63 157.2 643.47 147.14 639.34 157.21"/><path class="cls-4" d="M587,232l12.87,8-3.34-15.16,11.26-10.26-14.92-1.39L587,198.89l-5.88,14.31-14.92,1.42,11.29,10.23L574.14,240Zm-11.61-14.32,8.31-.79,3.27-8,3.29,8,8.31.77-6.27,5.72,1.86,8.44L587,227.42l-7.16,4.45,1.84-8.45Z"/><path class="cls-4" d="M662.24,258l-4.7-21.34,15.85-14.44-21-2-8.32-20.11-8.27,20.13-21,2,15.88,14.39L626,258.07l18.09-11.24Zm-25.6-23.32-8.85-8,11.69-1.12,4.61-11.21,4.63,11.2,11.7,1.09-8.83,8,2.62,11.89-10.09-6.24-10.07,6.26Z"/><polygon class="cls-4" points="586.66 272.92 593.1 276.89 591.43 269.31 597.06 264.18 589.6 263.49 586.64 256.34 583.71 263.5 576.25 264.21 581.89 269.32 580.24 276.91 586.66 272.92"/><polygon class="cls-4" points="639.34 18.86 628.84 19.86 636.78 27.06 634.46 37.74 643.5 32.12 652.56 37.72 650.21 27.04 658.13 19.82 647.63 18.85 643.47 8.79 639.34 18.86"/><path class="cls-4" d="M587,133.73l12.87,8-3.34-15.16,11.26-10.26-14.92-1.39L587,100.58l-5.88,14.31-14.92,1.42,11.29,10.23-3.31,15.18Zm-11.61-14.32,8.31-.79,3.27-8,3.29,8,8.31.77-6.27,5.72,1.86,8.44L587,129.11l-7.16,4.45,1.84-8.45Z"/><path class="cls-4" d="M662.24,119.67l-4.7-21.34,15.85-14.44-21-2-8.32-20.12L635.8,82l-21,2,15.88,14.39L626,119.72l18.09-11.24Zm-25.6-23.32-8.85-8,11.69-1.12L644.09,76l4.63,11.2,11.7,1.09-8.83,8,2.62,11.88L644.12,102l-10.07,6.26Z"/><polygon class="cls-4" points="586.66 174.61 593.1 178.59 591.43 171 597.06 165.87 589.6 165.18 586.64 158.03 583.71 165.19 576.25 165.9 581.89 171.01 580.24 178.6 586.66 174.61"/><path class="cls-4" d="M587,35.42l12.87,7.95-3.34-15.16L607.79,18l-14.92-1.39L587,2.27l-5.88,14.31L566.16,18l11.29,10.23-3.31,15.18ZM575.39,21.1l8.31-.79,3.27-8,3.29,8,8.31.77-6.27,5.72,1.86,8.44L587,30.8l-7.16,4.45,1.84-8.45Z"/><polygon class="cls-4" points="586.66 76.3 593.1 80.28 591.43 72.69 597.06 67.56 589.6 66.87 586.64 59.72 583.71 66.88 576.25 67.59 581.89 72.7 580.24 80.29 586.66 76.3"/><polygon class="cls-4" points="755.52 438.06 764.58 443.66 762.22 432.98 770.15 425.77 759.65 424.79 755.49 414.73 751.35 424.8 740.86 425.8 748.8 433 746.47 443.68 755.52 438.06"/><path class="cls-4" d="M699,422.18l12.87,8L708.53,415l11.26-10.26-14.91-1.38L699,389l-5.88,14.31-14.91,1.43L689.45,415l-3.3,15.17Zm-11.61-14.31,8.31-.8,3.27-8,3.3,8,8.31.77-6.28,5.71,1.87,8.45L699,417.57,691.84,422l1.84-8.45Z"/><polygon class="cls-4" points="755.65 548.62 751.51 558.69 741.01 559.69 748.96 566.89 746.63 577.57 755.67 571.95 764.73 577.54 762.38 566.87 770.3 559.65 759.81 558.68 755.65 548.62"/><path class="cls-4" d="M699.11,517.32l12.88,8-3.35-15.17,11.27-10.26L705,498.47l-5.92-14.3-5.88,14.31-14.91,1.43,11.28,10.23-3.3,15.17ZM687.5,503l8.31-.8,3.28-8,3.29,8,8.31.77-6.27,5.71,1.86,8.45-7.17-4.43L692,517.15l1.84-8.45Z"/><path class="cls-4" d="M764.41,487.88l-8.32-20.11-8.27,20.13-21,2,15.89,14.39-4.66,21.36,18.09-11.24,18.12,11.19-4.7-21.34,15.85-14.44Zm-.8,14.39,2.62,11.89-10.09-6.24-10.08,6.26,2.59-11.89-8.84-8,11.69-1.12,4.61-11.21,4.63,11.2,11.69,1.09Z"/><polygon class="cls-4" points="698.67 463.06 705.1 467.04 703.43 459.46 709.06 454.33 701.6 453.63 698.65 446.49 695.71 453.64 688.25 454.35 693.89 459.47 692.24 467.06 698.67 463.06"/><polygon class="cls-4" points="762.07 299.1 769.99 291.88 759.49 290.9 755.33 280.84 751.2 290.91 740.7 291.92 748.64 299.11 746.32 309.79 755.36 304.17 764.42 309.77 762.07 299.1"/><path class="cls-4" d="M698.89,327.05,711.76,335l-3.34-15.17,11.26-10.25-14.92-1.39-5.91-14.3L693,308.21l-14.91,1.42,11.28,10.23L686,335Zm-11.61-14.32,8.31-.79,3.27-8,3.3,8,8.31.77-6.28,5.71,1.87,8.45-7.17-4.43-7.16,4.45,1.84-8.45Z"/><path class="cls-4" d="M774.1,391.73l-4.7-21.35L785.25,356l-21-1.95-8.32-20.12L747.66,354l-21,2,15.88,14.4-4.65,21.35L756,380.53ZM748.5,368.4l-8.85-8,11.69-1.11L756,348.05l4.63,11.2,11.7,1.09-8.83,8,2.62,11.89L756,374l-10.07,6.26Z"/><polygon class="cls-4" points="698.56 367.92 704.99 371.9 703.32 364.32 708.95 359.19 701.49 358.5 698.54 351.35 695.6 358.5 688.14 359.22 693.78 364.33 692.13 371.92 698.56 367.92"/><path class="cls-4" d="M699.3,674.45l-5.88,14.31-14.92,1.42,11.29,10.23-3.31,15.18,12.85-8,12.88,8-3.34-15.17,11.26-10.26-14.92-1.38Zm11.61,18.81L704.64,699l1.86,8.44L699.33,703l-7.16,4.45L694,699l-6.28-5.7,8.3-.79,3.28-8,3.29,8Z"/><polygon class="cls-4" points="755.8 682.51 751.66 692.58 741.17 693.58 749.11 700.78 746.78 711.46 755.83 705.83 764.89 711.43 762.54 700.76 770.46 693.54 759.96 692.57 755.8 682.51"/><path class="cls-4" d="M708.75,605.25,720,595l-14.92-1.38-5.92-14.3-5.87,14.31L678.39,595l11.29,10.23-3.31,15.18,12.85-8,12.88,8Zm-9.53,2.6-7.16,4.44,1.84-8.45-6.29-5.69,8.31-.8,3.28-8,3.29,8,8.31.78-6.27,5.71,1.86,8.45Z"/><polygon class="cls-4" points="698.87 636.76 695.93 643.92 688.47 644.63 694.12 649.75 692.46 657.33 698.89 653.34 705.33 657.32 703.65 649.74 709.29 644.61 701.83 643.91 698.87 636.76"/><path class="cls-4" d="M756.25,601.65,748,621.79l-21,2,15.88,14.4-4.65,21.36,18.09-11.24,18.12,11.19-4.71-21.34,15.85-14.44-21-2Zm16.34,26.47-8.83,8L766.38,648l-10.09-6.23-10.07,6.26,2.59-11.89-8.85-8L751.65,627l4.61-11.21L760.9,627Z"/><polygon class="cls-4" points="698.78 558.2 705.22 562.18 703.54 554.6 709.17 549.47 701.72 548.77 698.76 541.63 695.82 548.78 688.36 549.49 694 554.61 692.35 562.2 698.78 558.2"/><polygon class="cls-4" points="751.31 157.21 740.82 158.21 748.76 165.41 746.43 176.09 755.48 170.47 764.53 176.07 762.18 165.39 770.11 158.18 759.61 157.2 755.45 147.14 751.31 157.21"/><path class="cls-4" d="M699,232l12.87,8-3.34-15.16,11.27-10.26-14.92-1.39-5.92-14.29-5.88,14.31-14.91,1.42,11.28,10.23L686.12,240Zm-11.61-14.32,8.31-.79,3.28-8,3.29,8,8.31.77-6.27,5.72,1.86,8.44L699,227.42l-7.16,4.45,1.84-8.45Z"/><path class="cls-4" d="M774.22,258l-4.71-21.34,15.85-14.44-21-2-8.32-20.11-8.28,20.13-21,2,15.88,14.39L738,258.07l18.09-11.24ZM748.61,234.7l-8.85-8,11.7-1.12,4.6-11.21,4.64,11.2,11.69,1.09-8.83,8,2.62,11.89-10.09-6.24L746,246.59Z"/><polygon class="cls-4" points="698.64 272.92 705.07 276.89 703.4 269.31 709.03 264.18 701.58 263.49 698.62 256.34 695.68 263.5 688.22 264.21 693.86 269.32 692.21 276.91 698.64 272.92"/><polygon class="cls-4" points="751.31 18.86 740.82 19.86 748.76 27.06 746.43 37.74 755.48 32.12 764.53 37.72 762.18 27.04 770.11 19.82 759.61 18.85 755.45 8.79 751.31 18.86"/><path class="cls-4" d="M699,133.73l12.87,8-3.34-15.16,11.27-10.26-14.92-1.39-5.92-14.29-5.88,14.31-14.91,1.42,11.28,10.23-3.3,15.18Zm-11.61-14.32,8.31-.79,3.28-8,3.29,8,8.31.77-6.27,5.72,1.86,8.44L699,129.11l-7.16,4.45,1.84-8.45Z"/><path class="cls-4" d="M774.22,119.67l-4.71-21.34,15.85-14.44-21-2-8.32-20.12L747.77,82l-21,2,15.88,14.39L738,119.72l18.09-11.24ZM748.61,96.35l-8.85-8,11.7-1.12L756.06,76l4.64,11.2,11.69,1.09-8.83,8,2.62,11.88L756.09,102,746,108.24Z"/><polygon class="cls-4" points="698.64 174.61 705.07 178.59 703.4 171 709.03 165.87 701.58 165.18 698.62 158.03 695.68 165.19 688.22 165.9 693.86 171.01 692.21 178.6 698.64 174.61"/><path class="cls-4" d="M699,35.42l12.87,7.95L708.5,28.21,719.77,18l-14.92-1.39L698.93,2.27l-5.88,14.31L678.14,18l11.28,10.23-3.3,15.18ZM687.36,21.1l8.31-.79,3.28-8,3.29,8,8.31.77-6.27,5.72,1.86,8.44L699,30.8l-7.16,4.45,1.84-8.45Z"/><polygon class="cls-4" points="698.64 76.3 705.07 80.28 703.4 72.69 709.03 67.56 701.58 66.87 698.62 59.72 695.68 66.88 688.22 67.59 693.86 72.7 692.21 80.29 698.64 76.3"/><polygon class="cls-4" points="867.49 438.06 876.55 443.66 874.2 432.98 882.12 425.77 871.63 424.79 867.47 414.73 863.33 424.8 852.83 425.8 860.77 433 858.45 443.68 867.49 438.06"/><path class="cls-4" d="M811,422.18l12.87,8L820.51,415l11.26-10.26-14.92-1.38L810.94,389l-5.88,14.31-14.92,1.43L801.43,415l-3.31,15.17Zm-11.61-14.31,8.3-.8,3.28-8,3.29,8,8.31.77-6.27,5.71,1.86,8.45L811,417.57,803.81,422l1.84-8.45Z"/><polygon class="cls-4" points="867.62 548.62 863.48 558.69 852.99 559.69 860.93 566.89 858.6 577.57 867.65 571.95 876.71 577.54 874.35 566.87 882.28 559.65 871.78 558.68 867.62 548.62"/><path class="cls-4" d="M811.09,517.32l12.87,8-3.34-15.17,11.26-10.26L817,498.47l-5.91-14.3-5.88,14.31-14.92,1.43,11.29,10.23-3.31,15.17ZM799.48,503l8.31-.8,3.27-8,3.29,8,8.31.77-6.27,5.71,1.86,8.45-7.17-4.43-7.16,4.44,1.84-8.45Z"/><path class="cls-4" d="M876.38,487.88l-8.32-20.11-8.27,20.13-21,2,15.88,14.39L850,525.66l18.09-11.24,18.11,11.19-4.7-21.34,15.85-14.44Zm-.8,14.39,2.62,11.89-10.09-6.24L858,514.18l2.59-11.89-8.85-8,11.69-1.12,4.61-11.21,4.63,11.2,11.7,1.09Z"/><polygon class="cls-4" points="810.64 463.06 817.08 467.04 815.41 459.46 821.04 454.33 813.58 453.63 810.62 446.49 807.68 453.64 800.23 454.35 805.87 459.47 804.22 467.06 810.64 463.06"/><polygon class="cls-4" points="874.04 299.1 881.97 291.88 871.47 290.9 867.31 280.84 863.17 290.91 852.68 291.92 860.62 299.11 858.29 309.79 867.34 304.17 876.39 309.77 874.04 299.1"/><path class="cls-4" d="M810.87,327.05,823.74,335l-3.34-15.17,11.26-10.25-14.92-1.39-5.91-14.3L805,308.21,790,309.63l11.29,10.23L798,335Zm-11.61-14.32,8.3-.79,3.28-8,3.29,8,8.31.77-6.27,5.71,1.86,8.45-7.17-4.43-7.16,4.45,1.84-8.45Z"/><path class="cls-4" d="M886.08,391.73l-4.71-21.35L897.22,356l-21-1.95-8.32-20.12L859.63,354l-21,2,15.88,14.4-4.65,21.35L868,380.53ZM860.47,368.4l-8.85-8,11.7-1.11,4.6-11.22,4.64,11.2,11.69,1.09-8.83,8L878,380.27,868,374l-10.07,6.26Z"/><polygon class="cls-4" points="810.53 367.92 816.97 371.9 815.3 364.32 820.93 359.19 813.47 358.5 810.51 351.35 807.57 358.5 800.11 359.22 805.76 364.33 804.1 371.92 810.53 367.92"/><path class="cls-4" d="M811.27,674.45l-5.88,14.31-14.92,1.42,11.29,10.23-3.31,15.18,12.86-8,12.87,8-3.34-15.17,11.26-10.26-14.92-1.38Zm11.61,18.81L816.61,699l1.86,8.44L811.3,703l-7.16,4.45L806,699l-6.29-5.7,8.31-.79,3.27-8,3.3,8Z"/><polygon class="cls-4" points="867.78 682.51 863.64 692.58 853.14 693.58 861.09 700.78 858.76 711.46 867.8 705.83 876.86 711.43 874.51 700.76 882.43 693.54 871.94 692.57 867.78 682.51"/><path class="cls-4" d="M820.73,605.25,832,595l-14.92-1.38-5.91-14.3-5.88,14.31L790.36,595l11.29,10.23-3.31,15.18,12.86-8,12.87,8Zm-9.54,2.6L804,612.29l1.84-8.45-6.28-5.69,8.31-.8,3.27-8,3.29,8,8.31.78-6.27,5.71,1.86,8.45Z"/><polygon class="cls-4" points="810.85 636.76 807.9 643.92 800.45 644.63 806.09 649.75 804.44 657.33 810.86 653.34 817.3 657.32 815.63 649.74 821.26 644.61 813.8 643.91 810.85 636.76"/><path class="cls-4" d="M868.22,601.65,860,621.79l-21,2,15.89,14.4-4.66,21.36,18.09-11.24,18.12,11.19-4.7-21.34,15.85-14.44-21-2Zm16.34,26.47-8.82,8L878.36,648l-10.09-6.23-10.08,6.26,2.59-11.89-8.84-8L863.63,627l4.61-11.21,4.63,11.2Z"/><polygon class="cls-4" points="810.75 558.2 817.19 562.18 815.52 554.6 821.15 549.47 813.69 548.77 810.73 541.63 807.79 548.78 800.34 549.49 805.98 554.61 804.33 562.2 810.75 558.2"/><polygon class="cls-4" points="863.29 157.21 852.79 158.21 860.73 165.41 858.4 176.09 867.45 170.47 876.51 176.07 874.16 165.39 882.08 158.18 871.58 157.2 867.42 147.14 863.29 157.21"/><path class="cls-4" d="M811,232l12.87,8-3.34-15.16,11.26-10.26-14.92-1.39-5.91-14.29L805,213.2l-14.92,1.42,11.29,10.23L798.09,240Zm-11.61-14.32,8.31-.79,3.27-8,3.29,8,8.31.77-6.27,5.72,1.86,8.44-7.17-4.43-7.16,4.45,1.84-8.45Z"/><path class="cls-4" d="M886.19,258l-4.7-21.34,15.85-14.44-21-2L868,200.18l-8.27,20.13-21,2,15.88,14.39L850,258.07l18.09-11.24ZM860.58,234.7l-8.84-8,11.69-1.12L868,214.35l4.63,11.2,11.7,1.09-8.83,8,2.62,11.89-10.09-6.24L858,246.59Z"/><polygon class="cls-4" points="810.61 272.92 817.05 276.89 815.38 269.31 821.01 264.18 813.55 263.49 810.59 256.34 807.65 263.5 800.2 264.21 805.84 269.32 804.18 276.91 810.61 272.92"/><polygon class="cls-4" points="863.29 18.86 852.79 19.86 860.73 27.06 858.4 37.74 867.45 32.12 876.51 37.72 874.16 27.04 882.08 19.82 871.58 18.85 867.42 8.79 863.29 18.86"/><path class="cls-4" d="M811,133.73l12.87,8-3.34-15.16,11.26-10.26-14.92-1.39-5.91-14.29L805,114.89l-14.92,1.42,11.29,10.23-3.31,15.18Zm-11.61-14.32,8.31-.79,3.27-8,3.29,8,8.31.77-6.27,5.72,1.86,8.44-7.17-4.43-7.16,4.45,1.84-8.45Z"/><path class="cls-4" d="M886.19,119.67l-4.7-21.34,15.85-14.44-21-2L868,61.82,859.75,82l-21,2,15.88,14.39L850,119.72l18.09-11.24ZM860.58,96.35l-8.84-8,11.69-1.12L868,76l4.63,11.2,11.7,1.09-8.83,8,2.62,11.88L868.07,102,858,108.24Z"/><polygon class="cls-4" points="810.61 174.61 817.05 178.59 815.38 171 821.01 165.87 813.55 165.18 810.59 158.03 807.65 165.19 800.2 165.9 805.84 171.01 804.18 178.6 810.61 174.61"/><path class="cls-4" d="M811,35.42l12.87,7.95-3.34-15.16L831.74,18l-14.92-1.39L810.91,2.27,805,16.58,790.11,18,801.4,28.23l-3.31,15.18ZM799.34,21.1l8.31-.79,3.27-8,3.29,8,8.31.77-6.27,5.72,1.86,8.44-7.17-4.43-7.16,4.45,1.84-8.45Z"/><polygon class="cls-4" points="810.61 76.3 817.05 80.28 815.38 72.69 821.01 67.56 813.55 66.87 810.59 59.72 807.65 66.88 800.2 67.59 805.84 72.7 804.18 80.29 810.61 76.3"/><polygon class="cls-4" points="979.47 438.06 988.52 443.66 986.17 432.98 994.1 425.77 983.6 424.79 979.44 414.73 975.3 424.8 964.81 425.8 972.75 433 970.42 443.68 979.47 438.06"/><path class="cls-4" d="M923,422.18l12.87,8L932.48,415l11.26-10.26-14.92-1.38L922.91,389,917,403.34l-14.91,1.43L913.4,415l-3.3,15.17Zm-11.61-14.31,8.31-.8,3.27-8,3.3,8,8.31.77-6.28,5.71,1.86,8.45L923,417.57,915.79,422l1.84-8.45Z"/><polygon class="cls-4" points="979.6 548.62 975.46 558.69 964.96 559.69 972.9 566.89 970.58 577.57 979.62 571.95 988.68 577.54 986.33 566.87 994.25 559.65 983.75 558.68 979.6 548.62"/><path class="cls-4" d="M923.06,517.32l12.87,8-3.34-15.17,11.26-10.26-14.91-1.38L923,484.17l-5.88,14.31-14.91,1.43,11.28,10.23-3.3,15.17ZM911.45,503l8.31-.8,3.27-8,3.3,8,8.31.77-6.28,5.71,1.87,8.45-7.17-4.43-7.16,4.44,1.84-8.45Z"/><path class="cls-4" d="M988.36,487.88,980,467.77l-8.28,20.13-21,2,15.89,14.39L962,525.66l18.09-11.24,18.12,11.19-4.7-21.34,15.84-14.44Zm-.8,14.39,2.61,11.89-10.09-6.24L970,514.18l2.59-11.89-8.85-8,11.7-1.12,4.6-11.21,4.64,11.2,11.69,1.09Z"/><polygon class="cls-4" points="922.62 463.06 929.05 467.04 927.38 459.46 933.01 454.33 925.55 453.63 922.6 446.49 919.66 453.64 912.2 454.35 917.84 459.47 916.19 467.06 922.62 463.06"/><polygon class="cls-4" points="986.02 299.1 993.94 291.88 983.44 290.9 979.28 280.84 975.15 290.91 964.65 291.92 972.59 299.11 970.26 309.79 979.31 304.17 988.37 309.77 986.02 299.1"/><path class="cls-4" d="M922.84,327.05,935.71,335l-3.34-15.17,11.26-10.25-14.92-1.39-5.91-14.3-5.88,14.32L902,309.63l11.28,10.23L910,335Zm-11.61-14.32,8.31-.79,3.27-8,3.3,8,8.31.77-6.28,5.71,1.86,8.45-7.17-4.43-7.15,4.45,1.84-8.45Z"/><path class="cls-4" d="M998.05,391.73l-4.7-21.35L1009.2,356l-21-1.95-8.32-20.12L971.61,354l-21,2,15.88,14.4-4.65,21.35,18.09-11.24ZM972.44,368.4l-8.84-8,11.69-1.11,4.61-11.22,4.63,11.2,11.7,1.09-8.83,8L990,380.27,979.93,374l-10.08,6.26Z"/><polygon class="cls-4" points="922.51 367.92 928.94 371.9 927.27 364.32 932.9 359.19 925.44 358.5 922.49 351.35 919.55 358.5 912.09 359.22 917.73 364.33 916.08 371.92 922.51 367.92"/><path class="cls-4" d="M923.24,674.45l-5.87,14.31-14.92,1.42,11.29,10.23-3.31,15.18,12.85-8,12.88,8-3.35-15.17,11.27-10.26-14.92-1.38Zm11.62,18.81L928.59,699l1.86,8.44L923.28,703l-7.16,4.45L918,699l-6.29-5.7,8.31-.79,3.28-8,3.29,8Z"/><polygon class="cls-4" points="979.75 682.51 975.61 692.58 965.12 693.58 973.06 700.78 970.73 711.46 979.78 705.83 988.84 711.43 986.49 700.76 994.41 693.54 983.91 692.57 979.75 682.51"/><path class="cls-4" d="M932.7,605.25,944,595l-14.92-1.38-5.92-14.3-5.88,14.31L902.34,595l11.28,10.23-3.3,15.18,12.85-8,12.88,8Zm-9.53,2.6L916,612.29l1.84-8.45-6.29-5.69,8.31-.8,3.28-8,3.29,8,8.31.78-6.27,5.71,1.86,8.45Z"/><polygon class="cls-4" points="922.82 636.76 919.88 643.92 912.42 644.63 918.06 649.75 916.41 657.33 922.84 653.34 929.27 657.32 927.6 649.74 933.24 644.61 925.77 643.91 922.82 636.76"/><path class="cls-4" d="M980.19,601.65l-8.27,20.14-21,2,15.88,14.4-4.65,21.36,18.09-11.24,18.11,11.19-4.7-21.34,15.85-14.44-21-2Zm16.35,26.47-8.83,8L990.33,648l-10.09-6.23-10.07,6.26,2.59-11.89-8.85-8L975.6,627l4.61-11.21,4.64,11.2Z"/><polygon class="cls-4" points="922.73 558.2 929.16 562.18 927.49 554.6 933.12 549.47 925.66 548.77 922.71 541.63 919.77 548.78 912.31 549.49 917.95 554.61 916.3 562.2 922.73 558.2"/><polygon class="cls-4" points="975.26 157.21 964.76 158.21 972.71 165.41 970.38 176.09 979.42 170.47 988.48 176.07 986.13 165.39 994.06 158.18 983.56 157.2 979.4 147.14 975.26 157.21"/><path class="cls-4" d="M922.92,232l12.87,8-3.34-15.16,11.26-10.26-14.92-1.39-5.91-14.29L917,213.2l-14.91,1.42,11.28,10.23L910.07,240Zm-11.61-14.32,8.31-.79,3.27-8,3.3,8,8.31.77-6.28,5.72,1.87,8.44-7.17-4.43-7.16,4.45,1.84-8.45Z"/><path class="cls-4" d="M998.17,258l-4.71-21.34,15.85-14.44-21-2L980,200.18l-8.28,20.13-21,2,15.88,14.39L962,258.07l18.09-11.24ZM972.56,234.7l-8.85-8,11.7-1.12,4.6-11.21,4.64,11.2,11.69,1.09-8.83,8,2.62,11.89L980,240.33,970,246.59Z"/><polygon class="cls-4" points="922.59 272.92 929.02 276.89 927.35 269.31 932.98 264.18 925.52 263.49 922.57 256.34 919.63 263.5 912.17 264.21 917.81 269.32 916.16 276.91 922.59 272.92"/><polygon class="cls-4" points="975.26 18.86 964.76 19.86 972.71 27.06 970.38 37.74 979.42 32.12 988.48 37.72 986.13 27.04 994.06 19.82 983.56 18.85 979.4 8.79 975.26 18.86"/><path class="cls-4" d="M922.92,133.73l12.87,8-3.34-15.16,11.26-10.26-14.92-1.39-5.91-14.29L917,114.89l-14.91,1.42,11.28,10.23-3.3,15.18Zm-11.61-14.32,8.31-.79,3.27-8,3.3,8,8.31.77-6.28,5.72,1.87,8.44-7.17-4.43-7.16,4.45,1.84-8.45Z"/><path class="cls-4" d="M998.17,119.67l-4.71-21.34,15.85-14.44-21-2L980,61.82,971.72,82l-21,2,15.88,14.39L962,119.72l18.09-11.24ZM972.56,96.35l-8.85-8,11.7-1.12L980,76l4.64,11.2,11.69,1.09-8.83,8,2.62,11.88L980,102,970,108.24Z"/><polygon class="cls-4" points="922.59 174.61 929.02 178.59 927.35 171 932.98 165.87 925.52 165.18 922.57 158.03 919.63 165.19 912.17 165.9 917.81 171.01 916.16 178.6 922.59 174.61"/><path class="cls-4" d="M922.92,35.42l12.87,7.95-3.34-15.16L943.71,18l-14.92-1.39L922.88,2.27,917,16.58,902.09,18l11.28,10.23-3.3,15.18ZM911.31,21.1l8.31-.79,3.27-8,3.3,8,8.31.77-6.28,5.72,1.87,8.44-7.17-4.43-7.16,4.45,1.84-8.45Z"/><polygon class="cls-4" points="922.59 76.3 929.02 80.28 927.35 72.69 932.98 67.56 925.52 66.87 922.57 59.72 919.63 66.88 912.17 67.59 917.81 72.7 916.16 80.29 922.59 76.3"/><polygon class="cls-4" points="1091.44 438.06 1100.5 443.66 1098.15 432.98 1106.07 425.77 1095.57 424.79 1091.41 414.73 1087.28 424.8 1076.78 425.8 1084.72 433 1082.4 443.68 1091.44 438.06"/><path class="cls-4" d="M1034.92,422.18l12.88,8L1044.46,415l11.26-10.26-14.92-1.38-5.91-14.3L1029,403.34l-14.92,1.43L1025.38,415l-3.31,15.17Zm-11.6-14.31,8.3-.8,3.28-8,3.29,8,8.31.77-6.27,5.71,1.86,8.45-7.17-4.43-7.16,4.45,1.84-8.45Z"/><polygon class="cls-4" points="1091.57 548.62 1087.43 558.69 1076.94 559.69 1084.88 566.89 1082.55 577.57 1091.6 571.95 1100.65 577.54 1098.3 566.87 1106.23 559.65 1095.73 558.68 1091.57 548.62"/><path class="cls-4" d="M1035,517.32l12.87,8-3.34-15.17,11.26-10.26-14.92-1.38-5.91-14.3-5.88,14.31-14.92,1.43,11.29,10.23-3.31,15.17ZM1023.43,503l8.3-.8,3.28-8,3.29,8,8.31.77-6.27,5.71,1.86,8.45-7.17-4.43-7.16,4.44,1.84-8.45Z"/><path class="cls-4" d="M1100.33,487.88,1092,467.77l-8.27,20.13-21,2,15.88,14.39L1074,525.66l18.09-11.24,18.11,11.19-4.7-21.34,15.85-14.44Zm-.8,14.39,2.62,11.89-10.09-6.24L1082,514.18l2.6-11.89-8.85-8,11.69-1.12,4.61-11.21,4.63,11.2,11.7,1.09Z"/><polygon class="cls-4" points="1034.59 463.06 1041.03 467.04 1039.36 459.46 1044.99 454.33 1037.53 453.63 1034.57 446.49 1031.63 453.64 1024.17 454.35 1029.82 459.47 1028.16 467.06 1034.59 463.06"/><polygon class="cls-4" points="1097.99 299.1 1105.92 291.88 1095.42 290.9 1091.26 280.84 1087.12 290.91 1076.63 291.92 1084.57 299.11 1082.24 309.79 1091.28 304.17 1100.34 309.77 1097.99 299.1"/><path class="cls-4" d="M1034.81,327.05l12.88,7.95-3.34-15.17,11.26-10.25-14.92-1.39-5.91-14.3-5.88,14.32L1014,309.63l11.29,10.23L1022,335Zm-11.61-14.32,8.31-.79,3.28-8,3.29,8,8.31.77-6.27,5.71,1.86,8.45-7.17-4.43-7.16,4.45,1.84-8.45Z"/><path class="cls-4" d="M1110,391.73l-4.71-21.35L1121.17,356l-21-1.95-8.32-20.12L1083.58,354l-21,2,15.88,14.4-4.65,21.35,18.09-11.24Zm-25.61-23.33-8.85-8,11.7-1.11,4.6-11.22,4.64,11.2,11.69,1.09-8.83,8,2.62,11.89L1091.9,374l-10.07,6.26Z"/><polygon class="cls-4" points="1034.48 367.92 1040.92 371.9 1039.25 364.32 1044.88 359.19 1037.42 358.5 1034.46 351.35 1031.52 358.5 1024.06 359.22 1029.71 364.33 1028.05 371.92 1034.48 367.92"/><path class="cls-4" d="M1035.22,674.45l-5.88,14.31-14.92,1.42,11.29,10.23-3.31,15.18,12.86-8,12.87,8-3.34-15.17,11.26-10.26-14.92-1.38Zm11.61,18.81-6.27,5.71,1.86,8.44-7.17-4.43-7.16,4.45,1.84-8.45-6.28-5.7,8.31-.79,3.27-8,3.29,8Z"/><polygon class="cls-4" points="1091.73 682.51 1087.59 692.58 1077.09 693.58 1085.03 700.78 1082.71 711.46 1091.75 705.83 1100.81 711.43 1098.46 700.76 1106.38 693.54 1095.89 692.57 1091.73 682.51"/><path class="cls-4" d="M1044.68,605.25,1055.94,595,1041,593.61l-5.91-14.3-5.88,14.31L1014.31,595l11.29,10.23-3.31,15.18,12.86-8,12.87,8Zm-9.54,2.6-7.16,4.44,1.84-8.45-6.28-5.69,8.31-.8,3.27-8,3.29,8,8.31.78-6.27,5.71,1.86,8.45Z"/><polygon class="cls-4" points="1034.79 636.76 1031.85 643.92 1024.4 644.63 1030.04 649.75 1028.39 657.33 1034.81 653.34 1041.25 657.32 1039.58 649.74 1045.21 644.61 1037.75 643.91 1034.79 636.76"/><path class="cls-4" d="M1092.17,601.65l-8.28,20.14-21,2,15.89,14.4-4.66,21.36,18.09-11.24,18.12,11.19-4.7-21.34,15.85-14.44-21-2Zm16.34,26.47-8.82,8,2.62,11.88-10.09-6.23-10.08,6.26,2.59-11.89-8.84-8,11.69-1.12,4.61-11.21,4.63,11.2Z"/><polygon class="cls-4" points="1034.7 558.2 1041.14 562.18 1039.47 554.6 1045.1 549.47 1037.64 548.77 1034.68 541.63 1031.74 548.78 1024.29 549.49 1029.93 554.61 1028.28 562.2 1034.7 558.2"/><polygon class="cls-4" points="1087.23 157.21 1076.74 158.21 1084.68 165.41 1082.35 176.09 1091.4 170.47 1100.46 176.07 1098.11 165.39 1106.03 158.18 1095.53 157.2 1091.37 147.14 1087.23 157.21"/><path class="cls-4" d="M1034.9,232l12.87,8-3.34-15.16,11.26-10.26-14.92-1.39-5.91-14.29L1029,213.2l-14.92,1.42,11.29,10.23L1022,240Zm-11.61-14.32,8.3-.79,3.28-8,3.29,8,8.31.77-6.27,5.72,1.86,8.44-7.17-4.43-7.16,4.45,1.84-8.45Z"/><path class="cls-4" d="M1110.14,258l-4.7-21.34,15.85-14.44-21-2L1092,200.18l-8.27,20.13-21,2,15.88,14.39-4.65,21.36L1092,246.83Zm-25.61-23.32-8.84-8,11.69-1.12,4.61-11.21,4.63,11.2,11.7,1.09-8.83,8,2.62,11.89L1092,240.33l-10.08,6.26Z"/><polygon class="cls-4" points="1034.56 272.92 1041 276.89 1039.33 269.31 1044.96 264.18 1037.5 263.49 1034.54 256.34 1031.6 263.5 1024.14 264.21 1029.79 269.32 1028.13 276.91 1034.56 272.92"/><polygon class="cls-4" points="1087.23 18.86 1076.74 19.86 1084.68 27.06 1082.35 37.74 1091.4 32.12 1100.46 37.72 1098.11 27.04 1106.03 19.82 1095.53 18.85 1091.37 8.79 1087.23 18.86"/><path class="cls-4" d="M1034.9,133.73l12.87,8-3.34-15.16,11.26-10.26-14.92-1.39-5.91-14.29L1029,114.89l-14.92,1.42,11.29,10.23L1022,141.72Zm-11.61-14.32,8.3-.79,3.28-8,3.29,8,8.31.77-6.27,5.72,1.86,8.44-7.17-4.43-7.16,4.45,1.84-8.45Z"/><path class="cls-4" d="M1110.14,119.67l-4.7-21.34,15.85-14.44-21-2L1092,61.82,1083.7,82l-21,2,15.88,14.39-4.65,21.36L1092,108.48Zm-25.61-23.32-8.84-8,11.69-1.12L1092,76l4.63,11.2,11.7,1.09-8.83,8,2.62,11.88L1092,102l-10.08,6.26Z"/><polygon class="cls-4" points="1034.56 174.61 1041 178.59 1039.33 171 1044.96 165.87 1037.5 165.18 1034.54 158.03 1031.6 165.19 1024.14 165.9 1029.79 171.01 1028.13 178.6 1034.56 174.61"/><path class="cls-4" d="M1034.9,35.42l12.87,7.95-3.34-15.16L1055.69,18l-14.92-1.39-5.91-14.29L1029,16.58,1014.06,18l11.29,10.23L1022,43.41ZM1023.29,21.1l8.3-.79,3.28-8,3.29,8,8.31.77-6.27,5.72,1.86,8.44-7.17-4.43-7.16,4.45,1.84-8.45Z"/><polygon class="cls-4" points="1034.56 76.3 1041 80.28 1039.33 72.69 1044.96 67.56 1037.5 66.87 1034.54 59.72 1031.6 66.88 1024.14 67.59 1029.79 72.7 1028.13 80.29 1034.56 76.3"/><polygon class="cls-4" points="1203.41 438.06 1212.47 443.66 1210.12 432.98 1218.05 425.77 1207.55 424.79 1203.39 414.73 1199.25 424.8 1188.76 425.8 1196.7 433 1194.37 443.68 1203.41 438.06"/><path class="cls-4" d="M1146.9,422.18l12.87,8L1156.43,415l11.26-10.26-14.92-1.38-5.91-14.3L1141,403.34l-14.91,1.43L1137.35,415l-3.3,15.17Zm-11.61-14.31,8.31-.8,3.27-8,3.3,8,8.31.77-6.28,5.71,1.86,8.45-7.17-4.43-7.15,4.45,1.84-8.45Z"/><polygon class="cls-4" points="1203.54 548.62 1199.41 558.69 1188.91 559.69 1196.85 566.89 1194.53 577.57 1203.57 571.95 1212.63 577.54 1210.28 566.87 1218.2 559.65 1207.7 558.68 1203.54 548.62"/><path class="cls-4" d="M1147,517.32l12.87,8-3.34-15.17,11.26-10.26-14.92-1.38-5.91-14.3-5.88,14.31-14.91,1.43,11.28,10.23-3.3,15.17ZM1135.4,503l8.31-.8,3.27-8,3.3,8,8.31.77-6.28,5.71,1.86,8.45-7.17-4.43-7.15,4.44,1.84-8.45Z"/><path class="cls-4" d="M1212.31,487.88,1204,467.77l-8.28,20.13-21,2,15.88,14.39L1186,525.66,1204,514.42l18.12,11.19-4.71-21.34,15.85-14.44Zm-.81,14.39,2.62,11.89L1204,507.92,1194,514.18l2.59-11.89-8.85-8,11.7-1.12,4.6-11.21,4.64,11.2,11.69,1.09Z"/><polygon class="cls-4" points="1146.57 463.06 1153 467.04 1151.33 459.46 1156.96 454.33 1149.5 453.63 1146.55 446.49 1143.61 453.64 1136.15 454.35 1141.79 459.47 1140.14 467.06 1146.57 463.06"/><polygon class="cls-4" points="1209.97 299.1 1217.89 291.88 1207.39 290.9 1203.23 280.84 1199.1 290.91 1188.6 291.92 1196.54 299.11 1194.21 309.79 1203.26 304.17 1212.32 309.77 1209.97 299.1"/><path class="cls-4" d="M1146.79,327.05l12.87,7.95-3.34-15.17,11.26-10.25-14.92-1.39-5.91-14.3-5.88,14.32L1126,309.63l11.29,10.23L1133.93,335Zm-11.61-14.32,8.31-.79,3.27-8,3.29,8,8.31.77-6.27,5.71,1.86,8.45-7.17-4.43-7.16,4.45,1.85-8.45Z"/><path class="cls-4" d="M1222,391.73l-4.7-21.35L1233.15,356l-21-1.95-8.32-20.12L1195.56,354l-21,2,15.88,14.4-4.65,21.35,18.09-11.24Zm-25.61-23.33-8.84-8,11.69-1.11,4.61-11.22,4.63,11.2,11.7,1.09-8.83,8,2.62,11.89L1203.88,374l-10.08,6.26Z"/><polygon class="cls-4" points="1146.45 367.92 1152.89 371.9 1151.22 364.32 1156.85 359.19 1149.39 358.5 1146.43 351.35 1143.5 358.5 1136.04 359.22 1141.68 364.33 1140.03 371.92 1146.45 367.92"/><path class="cls-4" d="M1147.19,674.45l-5.88,14.31-14.91,1.42,11.28,10.23-3.3,15.18,12.85-8,12.88,8-3.35-15.17L1168,690.13l-14.92-1.38Zm11.62,18.81-6.27,5.71,1.86,8.44-7.17-4.43-7.16,4.45,1.84-8.45-6.29-5.7,8.31-.79,3.28-8,3.29,8Z"/><polygon class="cls-4" points="1203.7 682.51 1199.56 692.58 1189.07 693.58 1197.01 700.78 1194.68 711.46 1203.73 705.83 1212.79 711.43 1210.43 700.76 1218.36 693.54 1207.86 692.57 1203.7 682.51"/><path class="cls-4" d="M1156.65,605.25,1167.91,595,1153,593.61l-5.92-14.3-5.88,14.31L1126.29,595l11.28,10.23-3.3,15.18,12.85-8,12.87,8Zm-9.53,2.6-7.16,4.44,1.84-8.45-6.29-5.69,8.31-.8,3.27-8,3.3,8,8.31.78-6.28,5.71,1.87,8.45Z"/><polygon class="cls-4" points="1146.77 636.76 1143.83 643.92 1136.37 644.63 1142.01 649.75 1140.36 657.33 1146.79 653.34 1153.22 657.32 1151.55 649.74 1157.18 644.61 1149.72 643.91 1146.77 636.76"/><path class="cls-4" d="M1204.14,601.65l-8.27,20.14-21,2,15.88,14.4-4.65,21.36,18.09-11.24,18.11,11.19-4.7-21.34,15.85-14.44-21-2Zm16.35,26.47-8.83,8,2.62,11.88-10.09-6.23-10.07,6.26,2.59-11.89-8.85-8,11.69-1.12,4.61-11.21,4.63,11.2Z"/><polygon class="cls-4" points="1146.68 558.2 1153.11 562.18 1151.44 554.6 1157.07 549.47 1149.61 548.77 1146.66 541.63 1143.72 548.78 1136.26 549.49 1141.9 554.61 1140.25 562.2 1146.68 558.2"/><polygon class="cls-4" points="1199.21 157.21 1188.71 158.21 1196.65 165.41 1194.33 176.09 1203.37 170.47 1212.43 176.07 1210.08 165.39 1218.01 158.18 1207.51 157.2 1203.35 147.14 1199.21 157.21"/><path class="cls-4" d="M1146.87,232l12.87,8-3.34-15.16,11.26-10.26-14.92-1.39-5.91-14.29L1141,213.2,1126,214.62l11.28,10.23L1134,240Zm-11.61-14.32,8.31-.79,3.27-8,3.3,8,8.31.77-6.28,5.72,1.86,8.44-7.17-4.43-7.15,4.45,1.84-8.45Z"/><path class="cls-4" d="M1222.12,258l-4.71-21.34,15.85-14.44-21-2L1204,200.18l-8.28,20.13-21,2,15.88,14.39-4.65,21.36L1204,246.83Zm-25.61-23.32-8.85-8,11.69-1.12,4.61-11.21,4.64,11.2,11.69,1.09-8.83,8,2.62,11.89L1204,240.33l-10.07,6.26Z"/><polygon class="cls-4" points="1146.54 272.92 1152.97 276.89 1151.3 269.31 1156.93 264.18 1149.47 263.49 1146.52 256.34 1143.58 263.5 1136.12 264.21 1141.76 269.32 1140.11 276.91 1146.54 272.92"/><polygon class="cls-4" points="1199.21 18.86 1188.71 19.86 1196.65 27.06 1194.33 37.74 1203.37 32.12 1212.43 37.72 1210.08 27.04 1218.01 19.82 1207.51 18.85 1203.35 8.79 1199.21 18.86"/><path class="cls-4" d="M1146.87,133.73l12.87,8-3.34-15.16,11.26-10.26-14.92-1.39-5.91-14.29L1141,114.89,1126,116.31l11.28,10.23-3.3,15.18Zm-11.61-14.32,8.31-.79,3.27-8,3.3,8,8.31.77-6.28,5.72,1.86,8.44-7.17-4.43-7.15,4.45,1.84-8.45Z"/><path class="cls-4" d="M1222.12,119.67l-4.71-21.34,15.85-14.44-21-2L1204,61.82,1195.67,82l-21,2,15.88,14.39-4.65,21.36L1204,108.48Zm-25.61-23.32-8.85-8,11.69-1.12L1204,76l4.64,11.2,11.69,1.09-8.83,8,2.62,11.88L1204,102l-10.07,6.26Z"/><polygon class="cls-4" points="1146.54 174.61 1152.97 178.59 1151.3 171 1156.93 165.87 1149.47 165.18 1146.52 158.03 1143.58 165.19 1136.12 165.9 1141.76 171.01 1140.11 178.6 1146.54 174.61"/><path class="cls-4" d="M1146.87,35.42l12.87,7.95-3.34-15.16L1167.66,18l-14.92-1.39-5.91-14.29L1141,16.58,1126,18l11.28,10.23L1134,43.41ZM1135.26,21.1l8.31-.79,3.27-8,3.3,8,8.31.77-6.28,5.72,1.86,8.44-7.17-4.43-7.15,4.45,1.84-8.45Z"/><polygon class="cls-4" points="1146.54 76.3 1152.97 80.28 1151.3 72.69 1156.93 67.56 1149.47 66.87 1146.52 59.72 1143.58 66.88 1136.12 67.59 1141.76 72.7 1140.11 80.29 1146.54 76.3"/><path class="cls-4" d="M1258.87,422.18l12.88,8L1268.4,415l11.27-10.26-14.92-1.38-5.91-14.3L1253,403.34,1238,404.77,1249.33,415,1246,430.17Zm-11.61-14.31,8.31-.8,3.28-8,3.29,8,8.31.77-6.27,5.71L1266,422l-7.17-4.43-7.16,4.45,1.84-8.45Z"/><path class="cls-4" d="M1259,517.32l12.88,8-3.34-15.17,11.26-10.26-14.92-1.38-5.91-14.3-5.88,14.31-14.92,1.43,11.29,10.23-3.31,15.17ZM1247.38,503l8.3-.8,3.28-8,3.29,8,8.31.77-6.27,5.71,1.86,8.45-7.17-4.43-7.16,4.44,1.84-8.45Z"/><polygon class="cls-4" points="1258.54 463.06 1264.98 467.04 1263.31 459.46 1268.94 454.33 1261.48 453.63 1258.52 446.49 1255.58 453.64 1248.12 454.35 1253.77 459.47 1252.11 467.06 1258.54 463.06"/><path class="cls-4" d="M1258.76,327.05l12.88,7.95-3.35-15.17,11.27-10.25-14.92-1.39-5.92-14.3-5.87,14.32-14.92,1.42,11.28,10.23-3.3,15.17Zm-11.61-14.32,8.31-.79,3.28-8,3.29,8,8.31.77-6.27,5.71,1.86,8.45-7.17-4.43-7.16,4.45,1.84-8.45Z"/><polygon class="cls-4" points="1258.43 367.92 1264.87 371.9 1263.19 364.32 1268.83 359.19 1261.37 358.5 1258.41 351.35 1255.47 358.5 1248.01 359.22 1253.65 364.33 1252 371.92 1258.43 367.92"/><path class="cls-4" d="M1259.17,674.45l-5.88,14.31-14.92,1.42,11.29,10.23-3.31,15.18,12.86-8,12.87,8-3.34-15.17L1280,690.13l-14.92-1.38Zm11.61,18.81-6.27,5.71,1.86,8.44L1259.2,703l-7.16,4.45,1.84-8.45-6.28-5.7,8.31-.79,3.27-8,3.29,8Z"/><path class="cls-4" d="M1268.63,605.25,1279.89,595,1265,593.61l-5.91-14.3-5.88,14.31L1238.26,595l11.29,10.23-3.31,15.18,12.86-8,12.87,8Zm-9.54,2.6-7.16,4.44,1.84-8.45-6.28-5.69,8.3-.8,3.28-8,3.29,8,8.31.78-6.27,5.71,1.86,8.45Z"/><polygon class="cls-4" points="1258.74 636.76 1255.8 643.92 1248.35 644.63 1253.99 649.75 1252.34 657.33 1258.76 653.34 1265.2 657.32 1263.53 649.74 1269.16 644.61 1261.7 643.91 1258.74 636.76"/><polygon class="cls-4" points="1258.65 558.2 1265.09 562.18 1263.42 554.6 1269.05 549.47 1261.59 548.77 1258.63 541.63 1255.69 548.78 1248.23 549.49 1253.88 554.61 1252.22 562.2 1258.65 558.2"/><path class="cls-4" d="M1258.84,232l12.88,8-3.34-15.16,11.26-10.26-14.92-1.39-5.91-14.29-5.88,14.31L1238,214.62l11.29,10.23L1246,240Zm-11.6-14.32,8.3-.79,3.28-8,3.29,8,8.31.77-6.27,5.72,1.86,8.44-7.17-4.43-7.16,4.45,1.84-8.45Z"/><polygon class="cls-4" points="1258.51 272.92 1264.95 276.89 1263.28 269.31 1268.91 264.18 1261.45 263.49 1258.49 256.34 1255.55 263.5 1248.09 264.21 1253.74 269.32 1252.08 276.91 1258.51 272.92"/><path class="cls-4" d="M1258.84,133.73l12.88,8-3.34-15.16,11.26-10.26-14.92-1.39-5.91-14.29-5.88,14.31L1238,116.31l11.29,10.23L1246,141.72Zm-11.6-14.32,8.3-.79,3.28-8,3.29,8,8.31.77-6.27,5.72,1.86,8.44-7.17-4.43-7.16,4.45,1.84-8.45Z"/><polygon class="cls-4" points="1258.51 174.61 1264.95 178.59 1263.28 171 1268.91 165.87 1261.45 165.18 1258.49 158.03 1255.55 165.19 1248.09 165.9 1253.74 171.01 1252.08 178.6 1258.51 174.61"/><path class="cls-4" d="M1258.84,35.42l12.88,7.95-3.34-15.16L1279.64,18l-14.92-1.39-5.91-14.29-5.88,14.31L1238,18l11.29,10.23L1246,43.41Zm-11.6-14.32,8.3-.79,3.28-8,3.29,8,8.31.77-6.27,5.72,1.86,8.44-7.17-4.43-7.16,4.45,1.84-8.45Z"/><polygon class="cls-4" points="1258.51 76.3 1264.95 80.28 1263.28 72.69 1268.91 67.56 1261.45 66.87 1258.49 59.72 1255.55 66.88 1248.09 67.59 1253.74 72.7 1252.08 80.29 1258.51 76.3"/></g></g><text class="cls-5" transform="translate(941.35 667.45)">1 engine</text><g class="cls-6"><path d="M994.61,447.84a11.73,11.73,0,0,1-10.21-17.5,13.24,13.24,0,0,1-.63-4A13.06,13.06,0,0,1,1003,414.82a11.48,11.48,0,0,1,2.26-.23,11.74,11.74,0,0,1,9,19.22,13.08,13.08,0,0,1-13,12.25h-.46A11.73,11.73,0,0,1,994.61,447.84Z"/><path d="M1014,411.41a14.14,14.14,0,0,1-5.94-1.3,16,16,0,0,1-4.52.65,16.19,16.19,0,0,1-8.52-30,16.19,16.19,0,0,1,26.35-5.69h.47a14.24,14.24,0,0,1,5.35,27.44A14.26,14.26,0,0,1,1014,411.41Z"/><path d="M1041.91,383.41a16.53,16.53,0,0,1-9.49-3,16.86,16.86,0,0,1-2.28-1.93,14.55,14.55,0,0,1-2.93-27.14,16.58,16.58,0,0,1,16.1-12.57,16.53,16.53,0,0,1,15.38,10.45,14.54,14.54,0,0,1,7.67,22.24,14.54,14.54,0,0,1-11.91,6.21,16.58,16.58,0,0,1-12.54,5.73Z"/><path d="M1046.53,431.61c-5.36,0-9.56-4.83-9.56-11v-3.79a12.16,12.16,0,0,1,2-6.71,9.53,9.53,0,0,1,7.86-4.46,181.36,181.36,0,0,1,75.29,0,10.78,10.78,0,0,1,3.14.72,9.41,9.41,0,0,1,4.52,3.56,12.24,12.24,0,0,1,2,6.87v3.79c0,6.16-4.2,11-9.56,11Z"/><path d="M1076.52,582.66a28.74,28.74,0,0,1-25.36-15,30.21,30.21,0,0,1-50.16,3,21.52,21.52,0,0,1-29.85,8.46,19.47,19.47,0,0,1-2.16-1.28,8.68,8.68,0,0,1-6.4,2.85H927.28a6.74,6.74,0,0,1-6-3.66,6.84,6.84,0,0,1,.49-7.09l16-22.56v-.22h-.21l-.05-8.61-.09-4.37-.15-14.55,5.66,0a25.75,25.75,0,0,1-2.53-11.17A26.8,26.8,0,0,1,953.23,486v-4.39a15.16,15.16,0,0,1,15.14-15.14h.94a15.08,15.08,0,0,1,9.56,3.41l-.57-4.7a10.16,10.16,0,0,1-5.12-8.82V456a10.12,10.12,0,0,1,1.5-5.31,7.68,7.68,0,0,1,.47-.78,8.25,8.25,0,0,1,6.93-4,10.83,10.83,0,0,1,1.27-.08h32.2a11,11,0,0,1,1.28.08,8.24,8.24,0,0,1,7,4.23,10.1,10.1,0,0,1,1.88,5.86v.41a10.16,10.16,0,0,1-5.12,8.82l-1.76,14.51h28.4V419.24h76.41v60.64h.47l-.13,30.69h5.42v1l.11,5.56,0,20.1,0,9.73-18.26.07v13.16h-5.08a29.26,29.26,0,0,1-22.3,21.5A28.88,28.88,0,0,1,1076.52,582.66Z"/></g><path class="cls-4" d="M989.28,442.51A11.73,11.73,0,0,1,979.07,425a13.25,13.25,0,0,1-.63-4,13.08,13.08,0,0,1,19.25-11.51,12.19,12.19,0,0,1,2.26-.22,11.74,11.74,0,0,1,9,19.22,13.08,13.08,0,0,1-13,12.25h-.46A11.73,11.73,0,0,1,989.28,442.51Z"/><path class="cls-4" d="M1008.66,406.08a14.14,14.14,0,0,1-5.94-1.3,16,16,0,0,1-4.52.65,16.19,16.19,0,0,1-8.52-30,16.19,16.19,0,0,1,26.35-5.69h.47a14.24,14.24,0,0,1,5.35,27.44A14.27,14.27,0,0,1,1008.66,406.08Z"/><path class="cls-4" d="M1036.58,378.08a16.53,16.53,0,0,1-9.49-3,16.86,16.86,0,0,1-2.28-1.93,14.55,14.55,0,0,1-2.93-27.14,16.54,16.54,0,0,1,16.1-12.57,16.53,16.53,0,0,1,15.38,10.45,14.54,14.54,0,0,1-4.24,28.45,16.61,16.61,0,0,1-12.54,5.73Z"/><path class="cls-4" d="M1041.2,426.28c-5.36,0-9.56-4.83-9.56-11V411.5a12.14,12.14,0,0,1,2-6.71,9.51,9.51,0,0,1,7.86-4.46,181.31,181.31,0,0,1,75.28,0,10.71,10.71,0,0,1,3.15.71,9.53,9.53,0,0,1,4.52,3.57,12.22,12.22,0,0,1,2,6.87v3.79c0,6.16-4.2,11-9.56,11Z"/><path class="cls-4" d="M1071.18,577.33a28.74,28.74,0,0,1-25.35-15,28.89,28.89,0,0,1-19.33,14,28.47,28.47,0,0,1-7.44,1,28.85,28.85,0,0,1-23.39-12,21.55,21.55,0,0,1-29.85,8.46,21.16,21.16,0,0,1-2.16-1.28,8.68,8.68,0,0,1-6.41,2.85H922a6.8,6.8,0,0,1-5.51-10.75l16-22.56v-.22h-.2l0-8.61-.09-4.37L932,514.35l5.67,0a25.67,25.67,0,0,1-2.53-11.16,26.78,26.78,0,0,1,12.81-22.52V476.3A15.15,15.15,0,0,1,963,461.16H964a15.08,15.08,0,0,1,9.56,3.41l-.57-4.7a10.18,10.18,0,0,1-5.12-8.83v-.4a10.07,10.07,0,0,1,1.5-5.32c.14-.26.3-.52.47-.78a8.23,8.23,0,0,1,6.92-4,11,11,0,0,1,1.28-.08h32.2a11.13,11.13,0,0,1,1.28.08,8.23,8.23,0,0,1,7,4.22,10.15,10.15,0,0,1,1.88,5.87v.4a10.18,10.18,0,0,1-5.12,8.83l-1.76,14.51h28.4V413.91h76.41v60.64h.47l-.14,30.69h5.43v1l.1,5.55,0,20.11,0,9.73-18.26.07v13.16h-5.08a29.26,29.26,0,0,1-22.3,21.49A28.49,28.49,0,0,1,1071.18,577.33Z"/><rect class="cls-7" x="953.64" y="535.05" width="35.19" height="27.26"/><rect class="cls-7" x="974.95" y="521.18" width="124.66" height="27.26"/><path class="cls-8" d="M959.68,535.27H946.52a2.74,2.74,0,0,0-2.22,1.19l-22.64,31.9a.41.41,0,0,0,.29.65h35.3a2.54,2.54,0,0,0,2.41-2.66v-30Z"/><polygon class="cls-9" points="958 567.28 958 536.68 955.94 536.68 951.25 567.28 958 567.28"/><polygon class="cls-9" points="949.35 567.28 954.89 536.68 952.87 536.68 941.87 567.28 949.35 567.28"/><polygon class="cls-9" points="940.42 567.28 951.43 536.68 948.99 536.68 932.35 567.28 940.42 567.28"/><polygon class="cls-9" points="930.79 567.28 947.64 536.68 945.67 536.68 924.43 567.28 930.79 567.28"/><polygon class="cls-10" points="1010.02 450.05 1005.77 485.02 982.46 485.02 981.81 479.62 978.22 450.05 1010.02 450.05"/><polygon class="cls-11" points="1000.21 451.81 997.35 486.79 982.81 487.5 982.26 481.44 978.74 451.81 1000.21 451.81"/><polygon class="cls-12" points="1009.16 454.34 1005.53 486.18 1003.18 487.38 1002.86 481.33 1005.75 452.36 1009.16 454.34"/><rect class="cls-13" x="974.24" y="446.87" width="39.75" height="7.95" rx="3.54"/><rect class="cls-14" x="974.69" y="446.98" width="38.77" height="5.4" rx="2.4"/><rect class="cls-15" x="975.06" y="446.95" width="38.08" height="3.78" rx="1.68"/><ellipse class="cls-16" cx="963.82" cy="503.21" rx="22.33" ry="20.68"/><ellipse class="cls-17" cx="967.49" cy="502.86" rx="22.33" ry="20.68"/><path class="cls-18" d="M1112.14,530.59l-157.87,2.07,0-44.62a6.28,6.28,0,0,1,6-6.45l35.36-.7,116.76.06Z"/><path class="cls-19" d="M1005.28,421a5.33,5.33,0,0,0-8.61-4.2,6.66,6.66,0,1,0-9.63,9.15,5.33,5.33,0,1,0,6.56,7.95,6.54,6.54,0,0,0,2.35.44,6.67,6.67,0,0,0,6.66-6.67,7,7,0,0,0-.27-1.9A5.34,5.34,0,0,0,1005.28,421Z"/><path class="cls-20" d="M1001.39,422.77a3.66,3.66,0,0,0-3.66-3.66,3.61,3.61,0,0,0-2.25.78,4.57,4.57,0,1,0-6.6,6.27,3.65,3.65,0,1,0,4.49,5.46,4.84,4.84,0,0,0,1.62.29,4.57,4.57,0,0,0,4.57-4.57,4.64,4.64,0,0,0-.19-1.3A3.67,3.67,0,0,0,1001.39,422.77Z"/><path class="cls-19" d="M1016.5,376.16a7.86,7.86,0,0,0-3.11.64A9.79,9.79,0,0,0,995.05,380a9.79,9.79,0,1,0,8.27,17.62,7.84,7.84,0,0,0,13.18-5.74,7.84,7.84,0,0,0,0-15.68Z"/><path class="cls-20" d="M1013.22,377.87a6.06,6.06,0,0,0-2.38.49,7.49,7.49,0,0,0-14,2.42,7.5,7.5,0,1,0,6.33,13.49,6,6,0,0,0,4.08,1.61,6,6,0,0,0,6-6,6,6,0,0,0,0-12Z"/><path class="cls-19" d="M1043.8,341.68a10.18,10.18,0,0,0-14.18,2.52,10.07,10.07,0,0,0-1.79,6.72,8.14,8.14,0,0,0,.33,16.27,10.16,10.16,0,0,0,16.78.14,10.37,10.37,0,0,0,1.07-2,8.14,8.14,0,1,0,2.13-15.61A10.16,10.16,0,0,0,1043.8,341.68Z"/><path class="cls-20" d="M1042,343.48a7.67,7.67,0,0,0-12,7,6.14,6.14,0,0,0-3.12,11.16,6.2,6.2,0,0,0,3.37,1.1,7.41,7.41,0,0,0,2,2,7.68,7.68,0,0,0,10.69-1.89,8,8,0,0,0,.81-1.49,6.14,6.14,0,1,0,1.6-11.78A7.65,7.65,0,0,0,1042,343.48Z"/><circle class="cls-21" cx="976.65" cy="555.21" r="15.17"/><circle class="cls-22" cx="975.52" cy="555" r="14.8"/><circle class="cls-23" cx="975.69" cy="555.21" r="6.79"/><path class="cls-24" d="M973,555.21a2.72,2.72,0,1,0,2.72-2.72A2.71,2.71,0,0,0,973,555.21Z"/><path class="cls-17" d="M975.79,541.59s-10.1,0-12.32,8.48c0,0-.58.37.74.44s2.07-7.52,12.17-7.22C976.38,543.29,978.51,542.7,975.79,541.59Z"/><path class="cls-17" d="M973.71,567.27s-10-1.75-10.65-10.48c0,0-.52-.47.8-.31s.73,7.76,10.73,9.23C974.59,565.71,976.59,566.66,973.71,567.27Z"/><circle class="cls-21" cx="1072.74" cy="547.87" r="22.67"/><circle class="cls-25" cx="1071.18" cy="548.44" r="22.49"/><circle class="cls-23" cx="1071.3" cy="547.87" r="10.15"/><path class="cls-26" d="M1067.24,547.87a4.06,4.06,0,1,0,4.06-4.06A4.06,4.06,0,0,0,1067.24,547.87Z"/><path class="cls-17" d="M1090.14,550.51s-2.6,14.86-15.65,15.93c0,0-.69.78-.46-1.19s11.6-1.11,13.76-16C1087.79,549.2,1089.21,546.21,1090.14,550.51Z"/><path class="cls-17" d="M1072.15,528.69s-15.09,0-18.39,12.67c0,0-.89.55,1.1.66s3.08-11.24,18.17-10.8C1073,531.22,1076.23,530.34,1072.15,528.69Z"/><circle class="cls-21" cx="1020.61" cy="547.87" r="22.67"/><circle class="cls-27" cx="1019.06" cy="548.44" r="22.49"/><circle class="cls-23" cx="1019.17" cy="547.87" r="10.15"/><path class="cls-24" d="M1015.11,547.87a4.06,4.06,0,1,0,4.06-4.06A4.06,4.06,0,0,0,1015.11,547.87Z"/><path class="cls-17" d="M1038,550.51s-2.6,14.86-15.65,15.93c0,0-.69.78-.46-1.19s11.6-1.11,13.76-16C1035.66,549.2,1037.08,546.21,1038,550.51Z"/><path class="cls-17" d="M1020,528.69s-15.09,0-18.39,12.67c0,0-.88.55,1.1.66s3.08-11.24,18.17-10.8C1020.9,531.22,1024.1,530.34,1020,528.69Z"/><path class="cls-28" d="M1050.57,480.78h-44.5l-38.67.44-7.16,21.37S964,491,995.93,485.73A375.84,375.84,0,0,1,1050.57,480.78Z"/><polygon class="cls-29" points="1110.35 509.84 954.9 510.02 954.93 492.05 995.6 491.76 1110.49 491.73 1110.35 509.84"/><path class="cls-30" d="M1116.9,419.88h-75.7c-1.75,0-3.16-2.05-3.16-4.59V411.5c0-2.53,1.41-4.59,3.16-4.59a175.92,175.92,0,0,1,75.7,0,2.78,2.78,0,0,1,2.24,1.35,5.79,5.79,0,0,1,.92,3.24v3.79C1120.06,417.83,1118.65,419.88,1116.9,419.88Z"/><path class="cls-31" d="M1116.48,415.31h-74.83a3,3,0,0,1-3.13-2.93V410a3,3,0,0,1,3.13-2.92,195.22,195.22,0,0,1,37.48-3.91,186.53,186.53,0,0,1,37.35,3.91,3.33,3.33,0,0,1,2.21.85,2.83,2.83,0,0,1,.92,2.07v2.42A3,3,0,0,1,1116.48,415.31Z"/><path class="cls-32" d="M1115.92,412.38H1042c-1.7,0-3.09-.9-3.09-2v-1.65c0-1.11,1.39-2,3.09-2,10.85-1.44,23.2-3.58,37.13-3.58s26.19,2.09,36.79,3.58a4.24,4.24,0,0,1,2.19.59,1.75,1.75,0,0,1,.9,1.42v1.65C1119,411.48,1117.63,412.38,1115.92,412.38Z"/><rect class="cls-33" x="1048.31" y="420.3" width="63.61" height="98.14"/><path class="cls-33" d="M938.61,535.47l-.08-14.54,94,.43a15.78,15.78,0,0,1,14.69-9.42c11.26-.2,70.59-.15,70.59-.15l.06,23.18Z"/><path class="cls-34" d="M938.51,528.83l-.09-8.05,94,.43a15.76,15.76,0,0,1,14.68-9.42c11.27-.2,70.6-.15,70.6-.15l.06,16.7Z"/><path class="cls-35" d="M1111.21,420.74l-62.39-.11-.1,91.21,9.15.17S1065.23,449.19,1111.21,420.74Z"/><path class="cls-36" d="M962.5,467.56h2a8.2,8.2,0,0,1,8.2,8.2v45a0,0,0,0,1,0,0H954.3a0,0,0,0,1,0,0v-45A8.2,8.2,0,0,1,962.5,467.56Z"/><path class="cls-37" d="M962.65,469.87h1.58a4.06,4.06,0,0,1,4.06,4.06V494a0,0,0,0,1,0,0h-9.69a0,0,0,0,1,0,0V473.93A4.06,4.06,0,0,1,962.65,469.87Z"/><rect class="cls-33" x="1026.66" y="444.41" width="3.34" height="179.02" transform="translate(1558.19 -496.51) rotate(89.77)"/><path class="cls-38" d="M1111.92,420.3s-41.52,18.18-54.05,91.71l4.15-.17s8.27-35.36,49.9-73.36Z"/><path class="cls-39" d="M1104.53,434.8V462a4.68,4.68,0,0,1-4.8,4.56h-36.18a5,5,0,0,1-2.39-.6,4.54,4.54,0,0,1-2.41-4V434.8a4.68,4.68,0,0,1,4.8-4.56h36.18a4.91,4.91,0,0,1,3.13,1.11A4.42,4.42,0,0,1,1104.53,434.8Z"/><polygon class="cls-40" points="1059.14 443.93 1059.22 457.31 1104.29 448.18 1104.53 434.8 1059.14 443.93"/><path class="cls-41" d="M994.6,520.46h1.07a4.31,4.31,0,0,1,4.31,4.31v24.79a3.56,3.56,0,0,1-3.56,3.56h-2.57a3.56,3.56,0,0,1-3.56-3.56V524.77a4.31,4.31,0,0,1,4.31-4.31Z" transform="translate(1531.92 -458.35) rotate(90)"/><path class="cls-42" d="M1005.2,533.22h.58a2.35,2.35,0,0,1,2.35,2.35V552.4a2.16,2.16,0,0,1-2.16,2.16h-1a2.16,2.16,0,0,1-2.16-2.16V535.56a2.35,2.35,0,0,1,2.35-2.35Z" transform="translate(1958.81 -86.98) rotate(118.1)"/><path class="cls-43" d="M1050.65,507.19h.63a2.54,2.54,0,0,1,2.54,2.54V586a2.1,2.1,0,0,1-2.1,2.1h-1.51a2.1,2.1,0,0,1-2.1-2.1v-76.3a2.54,2.54,0,0,1,2.54-2.54Z" transform="translate(1598.62 -503.31) rotate(90)"/><path class="cls-4" d="M640,571.15a40.33,40.33,0,0,1-40.29-40.29V189.14a40.29,40.29,0,0,1,80.58,0V530.86A40.33,40.33,0,0,1,640,571.15Z"/><path class="cls-44" d="M640,571.15a40.33,40.33,0,0,1-40.29-40.29V189.14a40.29,40.29,0,0,1,80.58,0V530.86A40.33,40.33,0,0,1,640,571.15Z"/><path class="cls-45" d="M640,571.15a40.33,40.33,0,0,1-40.29-40.29V189.14a40.29,40.29,0,0,1,80.58,0V530.86A40.33,40.33,0,0,1,640,571.15Z"/><rect class="cls-46" x="608.24" y="157.38" width="63.51" height="405.24" rx="31.76"/><rect class="cls-47" x="608.24" y="157.38" width="63.51" height="405.24" rx="31.76"/><ellipse class="cls-48" cx="640.53" cy="527.87" rx="45.43" ry="45.1"/><ellipse class="cls-49" cx="639.47" cy="523.67" rx="45.43" ry="45.1"/><ellipse class="cls-50" cx="639.47" cy="523.67" rx="38.87" ry="38.6"/><polygon class="cls-51" points="639 556.41 621.91 556.41 630.46 541.72 638.83 539.47 647.55 541.72 656.09 556.41 639 556.41"/><path class="cls-52" d="M652.18,489a.65.65,0,0,0-.85,0,.94.94,0,0,0-.29.38.57.57,0,0,0-.53.15,1.09,1.09,0,0,0-.3.75,1.29,1.29,0,0,0,0,.34h0a.63.63,0,0,0-.5.07,1,1,0,0,0-.5.92,1.52,1.52,0,0,0,.11.6.62.62,0,0,0,.38.35.76.76,0,0,0,.83-.39.32.32,0,0,0,.27,0,.69.69,0,0,0,.3-.36.37.37,0,0,0,.12.13.43.43,0,0,0,.6,0,1.16,1.16,0,0,0,.37-.85,1,1,0,0,0-.12-.5.82.82,0,0,0,.34-.46,1.9,1.9,0,0,0,0-.63A.88.88,0,0,0,652.18,489Z"/><path class="cls-53" d="M652.4,489.52a.88.88,0,0,0-.22-.51.65.65,0,0,0-.85,0,.94.94,0,0,0-.29.38.57.57,0,0,0-.53.15,1.09,1.09,0,0,0-.3.75,1.29,1.29,0,0,0,0,.34h0a.63.63,0,0,0-.5.07,1,1,0,0,0-.5.92,1.52,1.52,0,0,0,.11.6.62.62,0,0,0,.38.35.76.76,0,0,0,.83-.39.32.32,0,0,0,.27,0,.69.69,0,0,0,.3-.36.37.37,0,0,0,.12.13.43.43,0,0,0,.6,0,1.16,1.16,0,0,0,.37-.85,1,1,0,0,0-.12-.5.82.82,0,0,0,.34-.46A1.9,1.9,0,0,0,652.4,489.52Zm-.61,1.23c0,.3-.17.67-.43.7a.3.3,0,0,1-.3-.19.83.83,0,0,1-.3.56.27.27,0,0,1-.31,0,1.74,1.74,0,0,1-.13.2c-.24.28-.69.54-.91.05a.89.89,0,0,1,.31-1.13.51.51,0,0,1,.61.1,1.42,1.42,0,0,1,.12-.4.73.73,0,0,1-.06-.43,1.24,1.24,0,0,1,0-.16.75.75,0,0,1,.33-.5c.22-.11.42,0,.48.28a.37.37,0,0,1,.17.05A1,1,0,0,1,651.79,490.75Zm.2-1.3c-.06.2-.33.44-.49.31a.49.49,0,0,1-.09-.5c.05-.2.18-.29.33-.25a.17.17,0,0,1,.16.06A.37.37,0,0,1,652,489.45Z"/><path class="cls-4" d="M649.9,490.93c-.19,0-.35.2-.43.4a.74.74,0,0,0-.06.41.43.43,0,0,0,0,.35.16.16,0,0,0,.11.09.15.15,0,0,0,.15-.14,1.51,1.51,0,0,0,0-.3.21.21,0,0,0-.07-.18c0-.05-.11,0-.16,0a1.55,1.55,0,0,1,0-.21c.06-.2.22-.43.39-.45Z"/><path class="cls-4" d="M650.94,489.56a.49.49,0,0,0-.4.28l0,0a.88.88,0,0,0-.1.37c0,.13.06.36.18.35a.07.07,0,0,0,.06-.07,1.94,1.94,0,0,1,0-.34c0-.13.05-.25.05-.38s0-.06-.05-.06a.5.5,0,0,1,.26-.15S651,489.56,650.94,489.56Z"/><path class="cls-4" d="M650.5,490.73a.21.21,0,0,0-.06.1s0,.1,0,.11,0,0,0,0a.27.27,0,0,0,0-.09.23.23,0,0,1,0-.1S650.5,490.72,650.5,490.73Z"/><path class="cls-4" d="M651.63,489.18l0,0,0-.06h0l-.1.07a.05.05,0,0,0,0,0,.28.28,0,0,0-.08.28.12.12,0,0,0,.06.1s.08,0,.09-.07a.3.3,0,0,0,0-.1C651.64,489.34,651.68,489.24,651.63,489.18Z"/><path class="cls-52" d="M642.25,492.56a.82.82,0,0,0-.43-.38.47.47,0,0,0-.33,0,.51.51,0,0,0-.1-.32.31.31,0,0,0-.47,0,.64.64,0,0,0-.95-.29,1,1,0,0,0-.39.75.87.87,0,0,0,.12.54.74.74,0,0,0-.19.27.71.71,0,0,0,.11.72.43.43,0,0,0,.26.16.75.75,0,0,0-.06.13,1.09,1.09,0,0,0-.08.31.52.52,0,0,0-.28,0,.72.72,0,0,0-.39.62.75.75,0,0,0,.28.69.5.5,0,0,0,.6-.25.82.82,0,0,0,.11-.23.53.53,0,0,0,.51.18,1,1,0,0,0,.6-.57l.06-.17a1.06,1.06,0,0,0,.95-.51A1.7,1.7,0,0,0,642.25,492.56Z"/><path class="cls-53" d="M642.25,492.56a.82.82,0,0,0-.43-.38.47.47,0,0,0-.33,0,.51.51,0,0,0-.1-.32.31.31,0,0,0-.47,0,.64.64,0,0,0-.95-.29,1,1,0,0,0-.39.75.87.87,0,0,0,.12.54.74.74,0,0,0-.19.27.71.71,0,0,0,.11.72.43.43,0,0,0,.26.16.75.75,0,0,0-.06.13,1.09,1.09,0,0,0-.08.31.52.52,0,0,0-.28,0,.72.72,0,0,0-.39.62.75.75,0,0,0,.28.69.5.5,0,0,0,.6-.25.82.82,0,0,0,.11-.23.53.53,0,0,0,.51.18,1,1,0,0,0,.6-.57l.06-.17a1.06,1.06,0,0,0,.95-.51A1.7,1.7,0,0,0,642.25,492.56ZM639.81,495c0,.22-.18.51-.39.47a.42.42,0,0,1-.26-.3.51.51,0,0,1,.08-.4c.09-.15.35-.35.48-.19S639.84,494.86,639.81,495Zm2.22-1a.81.81,0,0,1-.16.16,1,1,0,0,1-.47.24c-.13,0-.31.05-.41,0l-.06.23c-.08.21-.23.53-.43.5s-.31-.23-.29-.47a.2.2,0,0,1-.23-.05c-.2-.2-.05-.55.1-.77l0,0a.43.43,0,0,1-.29-.07c-.27-.18-.15-.6.08-.82a.83.83,0,0,1,.38-1.19.32.32,0,0,1,.27,0,.64.64,0,0,1,.25.45.39.39,0,0,1,.55.17.63.63,0,0,1,.07.22.82.82,0,0,1,.26,0c.34,0,.6.3.6.76A1.17,1.17,0,0,1,642,494Z"/><path class="cls-4" d="M639.58,494.62a.4.4,0,0,0-.31.23.52.52,0,0,0-.06.28.14.14,0,0,0,0,.09.18.18,0,0,0,.09.13s.08,0,.1-.06a.54.54,0,0,0,.05-.21.24.24,0,0,0,0-.12s-.07,0-.11,0h0s0-.05,0-.07a.52.52,0,0,1,.26-.25S639.59,494.61,639.58,494.62Z"/><path class="cls-4" d="M640.09,494.41v0S640.08,494.43,640.09,494.41Z"/><path class="cls-4" d="M640.08,494.16a.08.08,0,0,0-.09,0,.65.65,0,0,1,.13-.35h0a.55.55,0,0,0-.2.46.19.19,0,0,0,0,.18s.05.07.09.06.06,0,.08-.08,0,0,0,0h0v-.06s0,0,0-.05S640.13,494.19,640.08,494.16Z"/><path class="cls-4" d="M639.94,492.24a.67.67,0,0,1,.31-.47s0,0,0,0a.7.7,0,0,0-.39.69s0,0,0,.06a.31.31,0,0,0,0,.21c0,.07.06.11.13.12s.15-.08.17-.15a1.11,1.11,0,0,0,0-.19.5.5,0,0,0,0-.17.12.12,0,0,0-.17-.06l-.06.06Z"/><path class="cls-4" d="M641.47,493.19c-.05-.1-.14,0-.19,0a.42.42,0,0,0-.08.38.21.21,0,0,0,.15.18s.09,0,.08-.1a.78.78,0,0,1,0-.22A.45.45,0,0,0,641.47,493.19Z"/><path class="cls-52" d="M658.22,494.42a1,1,0,0,0-1.58-.08.72.72,0,0,0-.72-.08,1.21,1.21,0,0,0-.62.8,2.14,2.14,0,0,0-.08.44l0,0a.94.94,0,0,0-.66-.18,1.15,1.15,0,0,0-.91.93,2,2,0,0,0-.05.81,1.06,1.06,0,0,0,.39.66.94.94,0,0,0,1.18-.08.41.41,0,0,0,.33.14.72.72,0,0,0,.5-.3,1.63,1.63,0,0,0,.11.23.64.64,0,0,0,.77.32,1.28,1.28,0,0,0,.73-.91,1.5,1.5,0,0,0,0-.7.82.82,0,0,0,.57-.41,2.3,2.3,0,0,0,.2-.8A1.44,1.44,0,0,0,658.22,494.42Z"/><path class="cls-53" d="M658.34,495.19a1.44,1.44,0,0,0-.12-.77,1,1,0,0,0-1.58-.08.72.72,0,0,0-.72-.08,1.21,1.21,0,0,0-.62.8,2.14,2.14,0,0,0-.08.44l0,0a.94.94,0,0,0-.66-.18,1.15,1.15,0,0,0-.91.93,2,2,0,0,0-.05.81,1.06,1.06,0,0,0,.39.66.94.94,0,0,0,1.18-.08.41.41,0,0,0,.33.14.72.72,0,0,0,.5-.3,1.63,1.63,0,0,0,.11.23.64.64,0,0,0,.77.32,1.28,1.28,0,0,0,.73-.91,1.5,1.5,0,0,0,0-.7.82.82,0,0,0,.57-.41A2.3,2.3,0,0,0,658.34,495.19Zm-1.15,1.27c-.13.36-.42.76-.76.66a.49.49,0,0,1-.32-.39.84.84,0,0,1-.56.55.39.39,0,0,1-.39-.17,1,1,0,0,1-.23.18c-.39.24-1,.34-1.17-.4s.24-1.27.74-1.29a.8.8,0,0,1,.75.46,1.17,1.17,0,0,1,.27-.46,1,1,0,0,1,.05-.59l.1-.17a.82.82,0,0,1,.57-.48c.32,0,.52.27.54.61a.53.53,0,0,1,.19.15A1.43,1.43,0,0,1,657.19,496.46Zm.65-1.58c-.14.23-.55.41-.72.15a.71.71,0,0,1,0-.68c.14-.22.33-.28.51-.15a.29.29,0,0,1,.18.15A.53.53,0,0,1,657.84,494.88Z"/><path class="cls-4" d="M654.72,495.71c-.23-.12-.5.08-.67.29a.9.9,0,0,0-.21.49.68.68,0,0,0,0,.47.26.26,0,0,0,.11.17.16.16,0,0,0,.23-.09,2.7,2.7,0,0,0,.08-.39.38.38,0,0,0,0-.28c-.05-.08-.14-.06-.22,0a2,2,0,0,1,.11-.26c.14-.22.41-.43.64-.37C654.72,495.72,654.73,495.71,654.72,495.71Z"/><path class="cls-4" d="M656.47,494.5a.55.55,0,0,0-.6.14l0,0a.88.88,0,0,0-.24.41c0,.16,0,.49.13.55a.07.07,0,0,0,.08-.06c0-.15.09-.3.13-.44a4.32,4.32,0,0,0,.19-.45.07.07,0,0,0,0-.1.59.59,0,0,1,.37-.06S656.48,494.5,656.47,494.5Z"/><path class="cls-4" d="M655.55,495.76a.21.21,0,0,0-.11.1s-.07.12,0,.15,0,0,0,0,0-.07,0-.1a.36.36,0,0,1,.08-.12S655.56,495.75,655.55,495.76Z"/><path class="cls-4" d="M657.46,494.36a.05.05,0,0,0,0,0l.07-.05s0,0,0,0l-.14,0-.06,0a.34.34,0,0,0-.2.32.22.22,0,0,0,0,.16c.05,0,.11,0,.15,0l.07-.11C657.43,494.57,657.51,494.46,657.46,494.36Z"/><path class="cls-52" d="M650.82,494.61c-.21.07-.29.33-.33.57a1.41,1.41,0,0,0-.31-.14.72.72,0,0,0-.65.18,1.07,1.07,0,0,0-.3.5l-.1-.15a1.77,1.77,0,0,0-1-.66.87.87,0,0,0-.85.32,1.17,1.17,0,0,0-.22.77l-.18-.17c-.32-.26-.73-.37-1-.15a.54.54,0,0,0-.13.22,1,1,0,0,0-1.3.13.89.89,0,0,0-.19.59,1.49,1.49,0,0,0-.67-.42,1.12,1.12,0,0,0-1.33.64,1.3,1.3,0,0,0-.1.79.86.86,0,0,0-.7.61,1.68,1.68,0,0,0,.23,1.33l0,.07a1.09,1.09,0,0,0-.33-.19.5.5,0,0,0-.66.24l0,.06a1.79,1.79,0,0,0-.47-.6,1.49,1.49,0,0,0-1.06-.36.79.79,0,0,0-.67.69,1.85,1.85,0,0,0,0,.41,2,2,0,0,0-.63-.52,1,1,0,0,0-1,0,1.24,1.24,0,0,0-.4,1.56l-.22,0a1.05,1.05,0,0,0-.85.4,1.52,1.52,0,0,0-.3,1,2.2,2.2,0,0,0,.36,1,2.75,2.75,0,0,0,.8.83l-.07.08a.89.89,0,0,0-.13.82,1.79,1.79,0,0,0,.12.24,1.3,1.3,0,0,0-.62-.18.94.94,0,0,0-.83.48,1.43,1.43,0,0,0,.14,1.3.53.53,0,0,0-.27.28,1,1,0,0,0,0,.71,1.92,1.92,0,0,0,.52.74,1.56,1.56,0,0,0,.4.25l0,0,0,.1a.88.88,0,0,0,.07.63,1.59,1.59,0,0,0,.73.65,1,1,0,0,0,.49.08.4.4,0,0,0,0,.26.51.51,0,0,0,.23.25h0a.26.26,0,0,0,.14.17.22.22,0,0,0,.28,0,.16.16,0,0,0,0,.07.45.45,0,0,0,.24.21.24.24,0,0,0,.15,0,.64.64,0,0,0,.08.2.54.54,0,0,0,.49.22c.15,0,.22-.18.24-.32a.62.62,0,0,0-.07-.32.26.26,0,0,0,.05-.12.57.57,0,0,0-.06-.33.64.64,0,0,0-.29-.32.43.43,0,0,0,.07-.44,1,1,0,0,0-.61-.55.36.36,0,0,0,.11-.2.87.87,0,0,0-.06-.44l-.06-.12a.78.78,0,0,0,.52-.23,1.3,1.3,0,0,0,.27-1,2.15,2.15,0,0,0-.17-.65.93.93,0,0,0,.69.3.53.53,0,0,0,.49-.41,1.26,1.26,0,0,0,0-.58.64.64,0,0,0,.48.16.53.53,0,0,0,.44-.53.8.8,0,0,0-.08-.33.65.65,0,0,0,.46-.32,1.19,1.19,0,0,0,0-.93,1.67,1.67,0,0,0-.23-.44.43.43,0,0,0,.28-.15l0,0a1.2,1.2,0,0,0,.41.46.7.7,0,0,0,.61.13.45.45,0,0,0,.25-.24,1.16,1.16,0,0,0,.59.26,1,1,0,0,0,.89-.3,1.37,1.37,0,0,0,.4-.91,1.75,1.75,0,0,0,.85.28,1,1,0,0,0,.84-.37.78.78,0,0,0,.1-.15.92.92,0,0,0,.65.13c.51-.12.55-.82.34-1.37a.67.67,0,0,0,.63-.2.93.93,0,0,0,.19-.43,1.32,1.32,0,0,0,.9.3.72.72,0,0,0,.66-.58,1.41,1.41,0,0,0-.09-.8,1,1,0,0,0,.5,0,.85.85,0,0,0,.7-.67,1.92,1.92,0,0,0,.05-.64,1.44,1.44,0,0,0,.71-.6,1.48,1.48,0,0,0,.23-1,1.63,1.63,0,0,0-.08-.37.8.8,0,0,0,.43-.26.84.84,0,0,0,0-1A.92.92,0,0,0,650.82,494.61Z"/><path class="cls-53" d="M650.82,494.61c-.21.07-.29.33-.33.57a1.41,1.41,0,0,0-.31-.14.72.72,0,0,0-.65.18,1.07,1.07,0,0,0-.3.5l-.1-.15a1.77,1.77,0,0,0-1-.66.87.87,0,0,0-.85.32,1.17,1.17,0,0,0-.22.77l-.18-.17c-.32-.26-.73-.37-1-.15a.54.54,0,0,0-.13.22,1,1,0,0,0-1.3.13.89.89,0,0,0-.19.59,1.49,1.49,0,0,0-.67-.42,1.12,1.12,0,0,0-1.33.64,1.3,1.3,0,0,0-.1.79.86.86,0,0,0-.7.61,1.68,1.68,0,0,0,.23,1.33l0,.07a1.09,1.09,0,0,0-.33-.19.5.5,0,0,0-.66.24l0,.06a1.79,1.79,0,0,0-.47-.6,1.49,1.49,0,0,0-1.06-.36.79.79,0,0,0-.67.69,1.85,1.85,0,0,0,0,.41,2,2,0,0,0-.63-.52,1,1,0,0,0-1,0,1.24,1.24,0,0,0-.4,1.56l-.22,0a1.05,1.05,0,0,0-.85.4,1.52,1.52,0,0,0-.3,1,2.2,2.2,0,0,0,.36,1,2.75,2.75,0,0,0,.8.83l-.07.08a.89.89,0,0,0-.13.82,1.79,1.79,0,0,0,.12.24,1.3,1.3,0,0,0-.62-.18.94.94,0,0,0-.83.48,1.11,1.11,0,0,0-.08.66c.06-.47.34-.85.88-.78a1.17,1.17,0,0,1,.72.39.57.57,0,0,1,.25-.32h0a1.69,1.69,0,0,1-.21-.66.62.62,0,0,1,.42-.59h.06a3,3,0,0,1-.75-.77,1.55,1.55,0,0,1-.24-1.38.85.85,0,0,1,.87-.48l.26.05c-.25-.57-.33-1.29.15-1.57a1,1,0,0,1,.52-.14,1.23,1.23,0,0,1,.33,0,1.8,1.8,0,0,1,.89.4,1.17,1.17,0,0,1,0-.58.77.77,0,0,1,.41-.61.8.8,0,0,1,.53,0,.65.65,0,0,1,.26.06,1.84,1.84,0,0,1,.79.84.73.73,0,0,1,.09-.13.52.52,0,0,1,.7-.07,1.74,1.74,0,0,1,.46.41.56.56,0,0,1,.36-.1,2.3,2.3,0,0,1-.52-1.45,1.26,1.26,0,0,1,.32-.9.64.64,0,0,1,.35-.14,1.2,1.2,0,0,1,0-.38.88.88,0,0,1,.76-.79,1.68,1.68,0,0,1,1.29.75v-.14a1.07,1.07,0,0,1,.2-.59.75.75,0,0,1,.82-.28,1.59,1.59,0,0,1,.71.45l.07,0a.86.86,0,0,1,.82.17,2.16,2.16,0,0,1,.37.37,1.22,1.22,0,0,1,0-.33.85.85,0,0,1,1-.85,1.42,1.42,0,0,1,.85.54.83.83,0,0,1,.66-.73c.44-.05.81.48.93.87a.75.75,0,0,1-.52,1,1.28,1.28,0,0,1-.7,0,.91.91,0,0,1-.06,1.21.94.94,0,0,1-.79.19,1.33,1.33,0,0,1-.05,1.15.71.71,0,0,1-1,.07,1.78,1.78,0,0,1-.26-.22,1,1,0,0,1-.33.69.74.74,0,0,1-.67.13l-.06,0c0,.08.09.16.12.24.17.35.32.87.12,1.14a.69.69,0,0,1-1-.15,1.41,1.41,0,0,1-.13-.24,1,1,0,0,1-.17.39c-.35.52-1.09.49-1.72.06a1.25,1.25,0,0,1,.12.87.77.77,0,0,1-.94.5,1.17,1.17,0,0,1-.64-.44.57.57,0,0,1-.58.24,1,1,0,0,1-.67-.83c-.06.48-.3.9-.73.89a1.13,1.13,0,0,1,.32.73c0,.23-.13.52-.38.54h0a.82.82,0,0,1,0,.68c-.21.25-.63.15-1,0a3.28,3.28,0,0,1-.31-.2,1.17,1.17,0,0,1,0,.49.59.59,0,0,1-.56.54,1.33,1.33,0,0,1-.75-.2l-.09-.05a1.35,1.35,0,0,1,.15.9,2.3,2.3,0,0,1,.26.52.73.73,0,0,1-.2.82.85.85,0,0,1-.53.07,1.15,1.15,0,0,1,.26.33.59.59,0,0,1,0,.56,1.43,1.43,0,0,1,.5.4.69.69,0,0,1,.11.68.43.43,0,0,1-.2.2,1.17,1.17,0,0,1,.61.63c.06.18,0,.46-.16.5h0a.42.42,0,0,0,.26,0c.15,0,.22-.18.24-.32a.62.62,0,0,0-.07-.32.26.26,0,0,0,.05-.12.57.57,0,0,0-.06-.33.64.64,0,0,0-.29-.32.43.43,0,0,0,.07-.44,1,1,0,0,0-.61-.55.36.36,0,0,0,.11-.2.87.87,0,0,0-.06-.44l-.06-.12a.78.78,0,0,0,.52-.23,1.3,1.3,0,0,0,.27-1,2.15,2.15,0,0,0-.17-.65.93.93,0,0,0,.69.3.53.53,0,0,0,.49-.41,1.26,1.26,0,0,0,0-.58.64.64,0,0,0,.48.16.53.53,0,0,0,.44-.53.8.8,0,0,0-.08-.33.65.65,0,0,0,.46-.32,1.19,1.19,0,0,0,0-.93,1.67,1.67,0,0,0-.23-.44.43.43,0,0,0,.28-.15l0,0a1.2,1.2,0,0,0,.41.46.7.7,0,0,0,.61.13.45.45,0,0,0,.25-.24,1.16,1.16,0,0,0,.59.26,1,1,0,0,0,.89-.3,1.37,1.37,0,0,0,.4-.91,1.75,1.75,0,0,0,.85.28,1,1,0,0,0,.84-.37.78.78,0,0,0,.1-.15.92.92,0,0,0,.65.13c.51-.12.55-.82.34-1.37a.67.67,0,0,0,.63-.2.93.93,0,0,0,.19-.43,1.32,1.32,0,0,0,.9.3.72.72,0,0,0,.66-.58,1.41,1.41,0,0,0-.09-.8,1,1,0,0,0,.5,0,.85.85,0,0,0,.7-.67,1.92,1.92,0,0,0,.05-.64,1.44,1.44,0,0,0,.71-.6,1.48,1.48,0,0,0,.23-1,1.63,1.63,0,0,0-.08-.37.8.8,0,0,0,.43-.26.84.84,0,0,0,0-1A.92.92,0,0,0,650.82,494.61Zm.35,1.27c-.43.08-.61-.76-.37-1a.28.28,0,0,1,.46-.09A.61.61,0,0,1,651.17,495.88Z"/><path class="cls-4" d="M635.76,508.92a.69.69,0,0,0,0,.65.86.86,0,0,0,.58.55c.1.07.18.09.2,0a.36.36,0,0,0-.17-.31.64.64,0,0,0-.31-.15h0a.85.85,0,0,1-.19-.7S635.77,508.9,635.76,508.92Z"/><path class="cls-4" d="M636.89,510.39a.37.37,0,0,0,0,.23c0,.08.1.18.18.19s0-.06,0-.09a1.67,1.67,0,0,1-.12-.16,1,1,0,0,1-.06-.16S636.89,510.37,636.89,510.39Z"/><path class="cls-4" d="M637.28,510.86s0,0,0,.05.06.07.09,0,0,0,0-.05S637.31,510.88,637.28,510.86Z"/><path class="cls-4" d="M634.87,507.24a.37.37,0,0,0-.12.37.6.6,0,0,0,.22.42s0,0,0,0a2,2,0,0,0-.11-.32.82.82,0,0,1,0-.38S634.89,507.23,634.87,507.24Z"/><path class="cls-4" d="M634.85,506.36c-.08,0-.05.17,0,.24a.33.33,0,0,0,.12.14s0,0,0,0a1.09,1.09,0,0,1,0-.18,1,1,0,0,0,0-.12S634.89,506.35,634.85,506.36Z"/><path class="cls-4" d="M637.47,508.1a.23.23,0,0,0-.12,0,.44.44,0,0,1-.16,0,.76.76,0,0,1-.36-.08s0,0,0,0a.8.8,0,0,0,.39.24c.13,0,.29,0,.31-.15A.09.09,0,0,0,637.47,508.1Z"/><path class="cls-4" d="M636.47,504.8c-.17.18,0,.61.27.75,0,0,0,0,0,0a2.26,2.26,0,0,1-.13-.33c0-.11,0-.21-.07-.32S636.5,504.77,636.47,504.8Z"/><path class="cls-4" d="M636,502.46c-.16.14-.13.39-.07.61a1.29,1.29,0,0,0,.47.66s0,0,0,0a1.66,1.66,0,0,1-.35-1.17S636,502.43,636,502.46Z"/><path class="cls-4" d="M636.87,500.84c-.08,0-.06.2,0,.29a.46.46,0,0,0,.12.28s0,0,0,0,0-.15,0-.23a.62.62,0,0,0,0-.27S636.9,500.83,636.87,500.84Z"/><path class="cls-4" d="M642.32,498.12a1.44,1.44,0,0,0-.24.46,1.83,1.83,0,0,0,0,.62,2,2,0,0,0,.68,1.18c.09.07.1-.08.06-.14s-.2-.28-.31-.42a1.79,1.79,0,0,1-.23-.56,1.63,1.63,0,0,1,.08-1.12S642.33,498.1,642.32,498.12Z"/><path class="cls-4" d="M645,496.88a.51.51,0,0,0-.27.47,1.07,1.07,0,0,0,.22.66s0,0,0,0a1.68,1.68,0,0,1-.05-.54,1.81,1.81,0,0,1,.14-.45S645,496.86,645,496.88Z"/><path class="cls-4" d="M647.93,496.58c-.22,0-.26.27-.28.47a.91.91,0,0,0,.2.63s0,0,0,0a1.79,1.79,0,0,1,0-.51,1.83,1.83,0,0,1,.14-.47S648,496.58,647.93,496.58Z"/><path class="cls-4" d="M649.45,496.51c-.22.14-.09.69.2.86,0,0,0,0,0,0a1.58,1.58,0,0,1-.14-.75S649.48,496.48,649.45,496.51Z"/><path class="cls-4" d="M650.8,495.14a.5.5,0,0,0,0,.3.6.6,0,0,0,.08.19h0a.27.27,0,0,0,.09.15.17.17,0,0,0,.1.06.07.07,0,0,0,.06,0,.12.12,0,0,0,0-.1.3.3,0,0,0-.06-.2l-.07-.07a.09.09,0,0,0-.08,0h0l0-.05a.52.52,0,0,1,0-.24S650.81,495.12,650.8,495.14Z"/><path class="cls-4" d="M648,500.22c-.12-.09-.34-.16-.38-.32s0,0,0,0a.58.58,0,0,0,.4.48C648.06,500.39,648.05,500.26,648,500.22Z"/><path class="cls-4" d="M641.1,502.58s0,0,0,0a.7.7,0,0,0,.09.5c.1.15.33.39.45.25a.13.13,0,0,0,0-.12c-.08-.11-.22-.14-.31-.25A.87.87,0,0,1,641.1,502.58Z"/><path class="cls-4" d="M639.23,505.25a.6.6,0,0,1-.34-.27s0,0,0,0a.52.52,0,0,0,.12.33.44.44,0,0,0,.33.21c.05,0,.06-.09.05-.14A.21.21,0,0,0,639.23,505.25Z"/><path class="cls-4" d="M645.67,501.45s0-.05,0,0a.61.61,0,0,0,0,.51c.07.18.31.41.46.28a.11.11,0,0,0,0-.15c-.09-.09-.21-.13-.29-.25A.83.83,0,0,1,645.67,501.45Z"/><path class="cls-4" d="M645,500.69c0,.08,0,.2.13.25s0-.08,0-.11a.39.39,0,0,1-.11-.15S645,500.65,645,500.69Z"/><path class="cls-4" d="M642.16,502.32c-.43.16.17,1.21.52,1,.05,0,0-.12,0-.17s-.25-.2-.37-.31a.42.42,0,0,1-.1-.46S642.19,502.31,642.16,502.32Z"/><path class="cls-4" d="M645.43,499.19a.55.55,0,0,0,0,.51c.09.2.32.41.51.36s0-.12,0-.16-.24-.15-.34-.25a.57.57,0,0,1-.16-.43S645.45,499.16,645.43,499.19Z"/><path class="cls-4" d="M638,501.86a.7.7,0,0,0-.42.68.84.84,0,0,0,.52.75c.08,0,.06-.11,0-.15a1.1,1.1,0,0,1-.32-.61c0-.26.21-.39.23-.63C638,501.88,638,501.84,638,501.86Z"/><polygon class="cls-54" points="644.09 506.17 642.62 518.45 635.07 518.47 634.76 515.88 633.58 506.17 644.09 506.17"/><polygon class="cls-12" points="643.8 507.58 642.6 518.42 641.8 518.41 641.94 516.44 642.67 506.93 643.8 507.58"/><rect class="cls-55" x="632.26" y="505.13" width="13.14" height="2.61" rx="1.07"/><ellipse class="cls-56" cx="639" cy="534.92" rx="17.58" ry="17.45"/><ellipse class="cls-57" cx="639" cy="534.92" rx="13.67" ry="13.57"/><polygon class="cls-58" points="639 556 622.74 556 630.87 542.01 638.84 539.88 647.13 542.01 655.27 556 639 556"/><line class="cls-59" x1="628.86" y1="548.06" x2="624.68" y2="556.33"/><line class="cls-59" x1="630.87" y1="547.97" x2="627.27" y2="556.03"/><line class="cls-59" x1="632.95" y1="547.91" x2="629.65" y2="556.09"/><line class="cls-59" x1="635.45" y1="548.01" x2="632.47" y2="556.31"/><line class="cls-59" x1="637.18" y1="547.96" x2="635.94" y2="556.33"/><line class="cls-59" x1="639.18" y1="547.92" x2="638.7" y2="556.39"/><line class="cls-59" x1="649.12" y1="548.06" x2="653.26" y2="556.18"/><line class="cls-59" x1="647.1" y1="547.97" x2="650.75" y2="556.2"/><line class="cls-59" x1="645.02" y1="547.91" x2="648.33" y2="556.09"/><line class="cls-59" x1="642.53" y1="548.01" x2="645.51" y2="556.31"/><line class="cls-59" x1="640.79" y1="547.96" x2="642.04" y2="556.28"/><ellipse class="cls-60" cx="639" cy="534.92" rx="8.46" ry="8.4"/><rect class="cls-61" x="618.45" y="541.2" width="41.1" height="6.92" rx="2.85"/><ellipse class="cls-62" cx="639" cy="534.92" rx="3.91" ry="3.88"/><g id="Gray_Medel" data-name="Gray Medel"><path class="cls-63" d="M1240,84.19a41,41,0,1,0-65.18,33.13v32.52l23.8-15.14,23.8,15.14v-32A41,41,0,0,0,1240,84.19Z"/><path class="cls-63" d="M1140.68,84.19a41,41,0,1,0-65.17,33.13v32.52l23.8-15.14,23.8,15.14v-32A41,41,0,0,0,1140.68,84.19Z"/><path class="cls-63" d="M1041.36,84.19a41,41,0,1,0-65.17,33.13v32.52L1000,134.7l23.8,15.14v-32A41,41,0,0,0,1041.36,84.19Z"/></g><g id="Yellow_Medel" data-name="Yellow Medel"><g id="Yellow_Medel-2" data-name="Yellow Medel"><polygon class="cls-64" points="971.36 78.61 1018.96 78.61 1018.96 146.66 995.16 131.52 971.36 146.66 971.36 78.61"/><path class="cls-65" d="M995.5,122a41,41,0,1,0-41-41,41.1,41.1,0,0,0,41,41Z"/><path class="cls-66" d="M1007.1,63.89c-13.1-33.5-23.23,0-23.23,0S949.56,64,975.09,87c0,0-9.45,35,20.94,14.72,30.12,21.62,19.18-15.26,19.18-15.26S1042,64.7,1007.1,63.89Z"/><path class="cls-67" d="M995.5,118a37,37,0,1,0-37-37,37.07,37.07,0,0,0,37,37Z"/><path class="cls-68" d="M984.85,65.16s9.42-31.17,21.61,0c32.43.75,7.54,21,7.54,21s10.18,34.31-17.84,14.21c-28.27,18.85-19.48-13.7-19.48-13.7C952.93,65.28,984.85,65.16,984.85,65.16Z"/><path class="cls-69" d="M985.43,65.91s8.91-29.48,20.44,0c30.67.71,7.13,19.85,7.13,19.85s9.63,32.45-16.88,13.43c-26.73,17.83-18.42-13-18.42-13C955.23,66,985.43,65.91,985.43,65.91Z"/><path class="cls-70" d="M985.67,67s8.7-27.35,20,0c29.94.66,7,18.42,7,18.42s9.4,30.11-16.48,12.46c-26.1,16.55-18-12-18-12C956.19,67.14,985.67,67,985.67,67Z"/><g class="cls-71"><path class="cls-69" d="M998.44,55.92c-6.18-4.29-10.79,5.85-12.27,9.7C990.51,62.09,994.83,58.65,998.44,55.92Z"/><path class="cls-69" d="M1013.88,67.87a44.23,44.23,0,0,0-8.26-.84c-.38-.93-.76-1.79-1.13-2.6-4.91,2.62-10,5.69-12.58,8.37L977.75,87.42c-.57,2.62-1.47,8-.09,11.77,5.37-2.64,14-7.09,17.85-10.31A113.52,113.52,0,0,0,1013.88,67.87Z"/><path class="cls-69" d="M1019.33,70.18c-1,1.13-1.8,2.12-2.31,2.81-2.19,2.91-7.17,13.65-10.72,19.44a38.4,38.4,0,0,1-6.71,7.7c21.52,12.61,13-14.68,13-14.68S1025.53,75.44,1019.33,70.18Z"/><path class="cls-69" d="M984.39,67.08c-4.41.23-18.45,1.72-13.23,11.07C974.83,75,979.56,71,984.39,67.08Z"/></g><path class="cls-4" d="M973.62,68.24a27,27,0,0,1,11.81-2.33c2.69-9,6.63-11.73,6.63-11.73s-3.78,3.09-6.46,12.36A43.39,43.39,0,0,0,973.62,68.24Z"/><path class="cls-72" d="M996,97.91s-11.57,8-16.53,4c5.63,2.19,16.53-5.11,16.53-5.11Z"/><path class="cls-4" d="M1002.52,60.31c.71,1.83.24,3.72-1,4.21s-2.9-.58-3.61-2.41-.24-3.71,1-4.21S1001.81,58.48,1002.52,60.31Z"/><path class="cls-4" d="M1005,66.65a1.39,1.39,0,1,1-1.38-1.39A1.38,1.38,0,0,1,1005,66.65Z"/></g></g><text class="cls-73" transform="translate(223.5 383.5)">One</text><text class="cls-74" transform="translate(220.5 380.5)">One</text></g></g></svg>