<svg xmlns="http://www.w3.org/2000/svg" xmlns:xlink="http://www.w3.org/1999/xlink" viewBox="0 0 1280 720"><defs><style>.cls-1{fill:#00aff2;}.cls-2{opacity:0.06;}.cls-3,.cls-36{fill:#fff;}.cls-4{fill:#92ff9f;}.cls-4,.cls-5{isolation:isolate;}.cls-25,.cls-5{fill:#ff0;}.cls-6{fill:#727272;}.cls-31,.cls-7{fill:none;stroke-miterlimit:10;}.cls-7{stroke:#fff;stroke-width:4px;stroke-dasharray:15 6;}.cls-8{fill:#0267ff;}.cls-15,.cls-9{opacity:0.5;}.cls-11,.cls-9{font-size:80px;}.cls-11,.cls-12,.cls-9{font-family:SassoonSansUSBold, Sassoon Sans US;}.cls-10{letter-spacing:-0.06em;}.cls-11,.cls-29{fill:#fff200;}.cls-12{font-size:42.67px;fill:#323232;}.cls-13{letter-spacing:-0.01em;}.cls-14{letter-spacing:0em;}.cls-16{fill:#2c2b39;}.cls-17{fill:#d9cebc;}.cls-18{fill:#e52828;}.cls-19{fill:#e5e528;}.cls-20{fill:#f1ece6;}.cls-21{opacity:0.4;}.cls-22{fill:#d334ea;}.cls-23{fill:#7dcc29;}.cls-24{fill:#5c05e5;}.cls-26{fill:#ffa63b;}.cls-27{fill:#6b6b6b;}.cls-27,.cls-28,.cls-29,.cls-31{fill-rule:evenodd;}.cls-28{fill:#dd2c2c;}.cls-30{fill:#ff8500;}.cls-31{stroke:#f96500;stroke-width:0.5px;}.cls-32{fill:url(#linear-gradient);}.cls-33{fill:#fff289;}.cls-34{fill:url(#linear-gradient-2);}.cls-35{opacity:0.2;}.cls-36{opacity:0.3;}</style><linearGradient id="linear-gradient" x1="995.46" y1="51.31" x2="995.46" y2="106.68" gradientUnits="userSpaceOnUse"><stop offset="0" stop-color="#f8f096"/><stop offset="0.23" stop-color="#eac200"/><stop offset="0.61" stop-color="#dc8e06"/><stop offset="1" stop-color="#ad6318"/></linearGradient><linearGradient id="linear-gradient-2" x1="995.46" y1="54.88" x2="995.46" y2="103.47" gradientUnits="userSpaceOnUse"><stop offset="0" stop-color="#f8f096"/><stop offset="0.32" stop-color="#ffdf00"/><stop offset="0.7" stop-color="#f5a200"/><stop offset="1" stop-color="#d7ab00"/></linearGradient></defs><g id="Layer_1" data-name="Layer 1"><rect class="cls-1" y="0.78" width="1279.96" height="718.44"/><g class="cls-2"><rect class="cls-3" x="593.59" y="42.09" width="21.56" height="6.34"/><rect class="cls-3" x="634.38" y="42.09" width="21.56" height="6.34"/><rect class="cls-3" x="621.71" y="12.95" width="6.12" height="22.35"/><rect class="cls-3" x="621.71" y="55.22" width="6.12" height="22.35"/><rect class="cls-3" x="546.13" y="228.24" width="6.12" height="17.08"/><rect class="cls-3" x="546.13" y="266.49" width="6.12" height="17.08"/><rect class="cls-3" x="559.4" y="252.73" width="16.48" height="6.34"/><polygon class="cls-3" points="538.98 259.07 538.98 252.74 525.43 252.74 524.73 252.74 523.2 252.74 523.2 259.07 524.73 259.07 525.43 259.07 538.98 259.07"/><rect class="cls-3" x="781.37" y="3.63" width="6.12" height="9.53"/><rect class="cls-3" x="661.4" y="242.13" width="6.12" height="9.53"/><rect class="cls-3" x="661.4" y="216.63" width="6.12" height="9.53"/><rect class="cls-3" x="647.55" y="230.98" width="9.2" height="6.34"/><rect class="cls-3" x="672.17" y="230.98" width="9.2" height="6.34"/><rect class="cls-3" x="798.22" y="243.73" width="9.2" height="6.34"/><rect class="cls-3" x="813.53" y="243.73" width="9.2" height="6.34"/><rect class="cls-3" x="807.42" y="250.07" width="6.12" height="9.53"/><rect class="cls-3" x="807.42" y="234.2" width="6.12" height="9.53"/><rect class="cls-3" x="532.39" y="111.02" width="6.12" height="6.34"/><rect class="cls-3" x="544.62" y="111.02" width="6.12" height="6.34"/><rect class="cls-3" x="538.5" y="117.36" width="6.12" height="6.34"/><rect class="cls-3" x="538.5" y="104.69" width="6.12" height="6.34"/><rect class="cls-3" x="533.93" y="25" width="15.26" height="6.34"/><rect class="cls-3" x="730.07" y="177.58" width="15.26" height="6.34"/><rect class="cls-3" x="769.17" y="177.58" width="15.26" height="6.34"/><rect class="cls-3" x="754.53" y="152.58" width="6.12" height="15.81"/><rect class="cls-3" x="754.53" y="193.11" width="6.12" height="15.81"/><rect class="cls-3" x="877.34" y="140.89" width="6.12" height="22.35"/><rect class="cls-3" x="877.34" y="169.58" width="6.12" height="22.35"/><rect class="cls-3" x="855.77" y="163.24" width="21.56" height="6.34"/><polygon class="cls-3" points="902.67 169.58 905.01 169.58 905.01 163.24 902.67 163.24 883.45 163.24 883.45 169.58 902.67 169.58"/><rect class="cls-3" x="825.79" y="88.75" width="6.12" height="6.34"/><rect class="cls-3" x="825.79" y="69.73" width="6.12" height="6.34"/><rect class="cls-3" x="816.62" y="79.24" width="6.12" height="6.34"/><rect class="cls-3" x="834.96" y="79.24" width="6.12" height="6.34"/><rect class="cls-3" x="872.76" y="25" width="15.26" height="6.34"/><rect class="cls-3" x="607.57" y="148.9" width="17.06" height="6.34"/><rect class="cls-3" x="636.86" y="148.9" width="17.06" height="6.34"/><rect class="cls-3" x="627.69" y="128.05" width="6.12" height="17.68"/><rect class="cls-3" x="627.69" y="158.4" width="6.12" height="17.68"/><rect class="cls-3" x="725.28" y="53.73" width="6.12" height="22.35"/><rect class="cls-3" x="725.28" y="82.41" width="6.12" height="22.35"/><rect class="cls-3" x="703.72" y="76.07" width="21.56" height="6.34"/><rect class="cls-3" x="731.4" y="76.07" width="21.56" height="6.34"/><rect class="cls-3" x="857.12" y="282.51" width="6.12" height="22.35"/><polygon class="cls-3" points="639.95 326.78 630.75 326.78 630.75 328.36 630.75 333.12 639.95 333.12 639.95 328.36 639.95 326.78"/><rect class="cls-3" x="639.95" y="317.25" width="6.12" height="9.53"/><rect class="cls-3" x="690.52" y="304.41" width="17.06" height="6.34"/><rect class="cls-3" x="719.81" y="304.41" width="17.06" height="6.34"/><rect class="cls-3" x="710.64" y="283.57" width="6.12" height="17.68"/><polygon class="cls-3" points="710.64 328.36 710.64 331.59 716.75 331.59 716.75 328.36 716.75 313.92 710.64 313.92 710.64 328.36"/><rect class="cls-3" x="971.53" y="42.09" width="21.56" height="6.34"/><rect class="cls-3" x="1012.32" y="42.09" width="21.56" height="6.34"/><rect class="cls-3" x="999.65" y="12.95" width="6.12" height="22.35"/><rect class="cls-3" x="999.65" y="55.22" width="6.12" height="22.35"/><rect class="cls-3" x="940.08" y="216.07" width="6.12" height="17.08"/><rect class="cls-3" x="940.08" y="254.32" width="6.12" height="17.08"/><rect class="cls-3" x="953.35" y="240.56" width="16.48" height="6.34"/><polygon class="cls-3" points="916.44 240.56 916.44 246.9 918.67 246.9 932.92 246.9 932.92 240.56 918.67 240.56 916.44 240.56"/><rect class="cls-3" x="1278.38" y="252.73" width="2.23" height="6.34"/><rect class="cls-3" x="1159.31" y="3.63" width="6.12" height="9.53"/><rect class="cls-3" x="1039.34" y="242.13" width="6.12" height="9.53"/><rect class="cls-3" x="1039.34" y="216.63" width="6.12" height="9.53"/><rect class="cls-3" x="1025.49" y="230.98" width="9.2" height="6.34"/><rect class="cls-3" x="1050.11" y="230.98" width="9.2" height="6.34"/><rect class="cls-3" x="1176.16" y="243.73" width="9.2" height="6.34"/><rect class="cls-3" x="1191.47" y="243.73" width="9.2" height="6.34"/><rect class="cls-3" x="1185.36" y="250.07" width="6.12" height="9.53"/><rect class="cls-3" x="1185.36" y="234.2" width="6.12" height="9.53"/><rect class="cls-3" x="925.79" y="101.52" width="6.12" height="6.34"/><rect class="cls-3" x="938.02" y="101.52" width="6.12" height="6.34"/><rect class="cls-3" x="931.9" y="107.85" width="6.12" height="6.34"/><rect class="cls-3" x="931.9" y="95.18" width="6.12" height="6.34"/><rect class="cls-3" x="911.87" y="25" width="15.26" height="6.34"/><polygon class="cls-3" points="903.34 15.81 903.34 0 902.67 0 897.23 0 897.23 15.81 902.67 15.81 903.34 15.81"/><polygon class="cls-3" points="903.34 56.34 903.34 40.52 902.67 40.52 897.23 40.52 897.23 56.34 902.67 56.34 903.34 56.34"/><rect class="cls-3" x="1108.01" y="177.58" width="15.26" height="6.34"/><rect class="cls-3" x="1147.11" y="177.58" width="15.26" height="6.34"/><rect class="cls-3" x="1132.47" y="152.58" width="6.11" height="15.81"/><rect class="cls-3" x="1132.47" y="193.11" width="6.11" height="15.81"/><rect class="cls-3" x="1255.28" y="140.89" width="6.12" height="22.35"/><rect class="cls-3" x="1255.28" y="169.58" width="6.12" height="22.35"/><rect class="cls-3" x="1233.71" y="163.24" width="21.56" height="6.34"/><rect class="cls-3" x="1261.39" y="163.24" width="19.22" height="6.34"/><rect class="cls-3" x="1203.73" y="88.75" width="6.12" height="6.34"/><rect class="cls-3" x="1203.73" y="69.73" width="6.12" height="6.34"/><rect class="cls-3" x="1194.56" y="79.24" width="6.11" height="6.34"/><rect class="cls-3" x="1212.9" y="79.24" width="6.12" height="6.34"/><rect class="cls-3" x="1250.7" y="25" width="15.26" height="6.34"/><rect class="cls-3" x="1275.16" width="5.44" height="15.81"/><rect class="cls-3" x="1275.16" y="40.52" width="5.44" height="15.81"/><rect class="cls-3" x="985.51" y="148.9" width="17.06" height="6.34"/><rect class="cls-3" x="1014.8" y="148.9" width="17.06" height="6.34"/><rect class="cls-3" x="1005.63" y="128.05" width="6.12" height="17.68"/><rect class="cls-3" x="1005.63" y="158.4" width="6.12" height="17.68"/><rect class="cls-3" x="1103.22" y="53.73" width="6.12" height="22.35"/><rect class="cls-3" x="1103.22" y="82.41" width="6.12" height="22.35"/><rect class="cls-3" x="1081.66" y="76.07" width="21.56" height="6.34"/><rect class="cls-3" x="1109.34" y="76.07" width="21.56" height="6.34"/><rect class="cls-3" x="1219.59" y="296.05" width="6.12" height="22.35"/><polygon class="cls-3" points="979.25 325.93 979.25 324.35 970.05 324.35 970.05 325.93 970.05 330.69 979.25 330.69 979.25 325.93"/><rect class="cls-3" x="979.25" y="314.82" width="6.12" height="9.53"/><rect class="cls-3" x="1068.46" y="304.41" width="17.06" height="6.34"/><rect class="cls-3" x="1097.75" y="304.41" width="17.06" height="6.34"/><rect class="cls-3" x="1088.58" y="283.57" width="6.12" height="17.68"/><polygon class="cls-3" points="1088.58 328.36 1088.58 331.59 1094.69 331.59 1094.69 328.36 1094.69 313.92 1088.58 313.92 1088.58 328.36"/><polygon class="cls-3" points="573.92 328.36 573.92 321.95 567.8 321.95 567.8 328.36 567.8 344.3 573.92 344.3 573.92 328.36"/><rect class="cls-3" x="567.8" y="350.64" width="6.12" height="22.35"/><rect class="cls-3" x="546.24" y="344.3" width="21.56" height="6.34"/><rect class="cls-3" x="573.92" y="344.3" width="21.56" height="6.34"/><polygon class="cls-3" points="829 314.82 829 317.99 850.56 317.99 850.56 314.82 850.56 311.65 829 311.65 829 314.82"/><polygon class="cls-3" points="891.36 314.82 891.36 311.65 869.79 311.65 869.79 314.82 869.79 317.99 891.36 317.99 891.36 314.82"/><rect class="cls-3" x="857.12" y="324.78" width="6.12" height="22.35"/><rect class="cls-3" x="593.59" y="433.73" width="21.56" height="6.34"/><rect class="cls-3" x="634.38" y="433.73" width="21.56" height="6.34"/><rect class="cls-3" x="621.71" y="404.59" width="6.12" height="22.35"/><rect class="cls-3" x="621.71" y="446.86" width="6.12" height="22.35"/><rect class="cls-3" x="546.13" y="619.88" width="6.12" height="17.08"/><rect class="cls-3" x="546.13" y="658.13" width="6.12" height="17.08"/><rect class="cls-3" x="559.4" y="644.38" width="16.48" height="6.34"/><polygon class="cls-3" points="900.43 644.38 900.43 650.71 902.67 650.71 916.92 650.71 916.92 644.38 902.67 644.38 900.43 644.38"/><rect class="cls-3" x="781.37" y="395.27" width="6.12" height="9.53"/><rect class="cls-3" x="781.37" y="369.76" width="6.12" height="9.53"/><rect class="cls-3" x="767.52" y="384.11" width="9.2" height="6.34"/><rect class="cls-3" x="792.14" y="384.11" width="9.2" height="6.34"/><rect class="cls-3" x="661.4" y="633.77" width="6.12" height="9.53"/><rect class="cls-3" x="661.4" y="608.27" width="6.12" height="9.53"/><rect class="cls-3" x="647.55" y="622.62" width="9.2" height="6.34"/><rect class="cls-3" x="672.17" y="622.62" width="9.2" height="6.34"/><polygon class="cls-3" points="646.06 333.12 655.26 333.12 655.26 328.36 655.26 326.78 646.06 326.78 646.06 328.36 646.06 333.12"/><rect class="cls-3" x="639.95" y="333.12" width="6.12" height="9.53"/><rect class="cls-3" x="798.22" y="635.37" width="9.2" height="6.34"/><rect class="cls-3" x="813.53" y="635.37" width="9.2" height="6.34"/><rect class="cls-3" x="807.42" y="641.71" width="6.12" height="9.53"/><rect class="cls-3" x="807.42" y="625.84" width="6.12" height="9.53"/><rect class="cls-3" x="532.39" y="502.66" width="6.12" height="6.34"/><rect class="cls-3" x="544.62" y="502.66" width="6.12" height="6.34"/><rect class="cls-3" x="538.5" y="509" width="6.12" height="6.34"/><rect class="cls-3" x="538.5" y="496.33" width="6.12" height="6.34"/><rect class="cls-3" x="689.88" y="392.1" width="6.12" height="6.34"/><rect class="cls-3" x="702.11" y="392.1" width="6.12" height="6.34"/><rect class="cls-3" x="696" y="398.43" width="6.11" height="6.34"/><rect class="cls-3" x="696" y="385.76" width="6.11" height="6.34"/><rect class="cls-3" x="533.93" y="416.64" width="15.26" height="6.34"/><rect class="cls-3" x="730.07" y="569.22" width="15.26" height="6.34"/><rect class="cls-3" x="769.17" y="569.22" width="15.26" height="6.34"/><rect class="cls-3" x="754.53" y="544.22" width="6.12" height="15.81"/><rect class="cls-3" x="754.53" y="584.75" width="6.12" height="15.81"/><rect class="cls-3" x="877.34" y="532.54" width="6.12" height="22.35"/><rect class="cls-3" x="877.34" y="561.22" width="6.12" height="22.35"/><rect class="cls-3" x="855.77" y="554.88" width="21.56" height="6.34"/><rect class="cls-3" x="831.91" y="485.32" width="6.12" height="6.34"/><rect class="cls-3" x="831.91" y="466.31" width="6.12" height="6.34"/><rect class="cls-3" x="822.73" y="475.82" width="6.12" height="6.34"/><rect class="cls-3" x="841.08" y="475.82" width="6.12" height="6.34"/><rect class="cls-3" x="607.57" y="540.54" width="17.06" height="6.34"/><rect class="cls-3" x="636.86" y="540.54" width="17.06" height="6.34"/><rect class="cls-3" x="627.69" y="519.69" width="6.12" height="17.68"/><rect class="cls-3" x="627.69" y="550.05" width="6.12" height="17.68"/><rect class="cls-3" x="725.28" y="445.37" width="6.12" height="22.35"/><rect class="cls-3" x="725.28" y="474.05" width="6.12" height="22.35"/><rect class="cls-3" x="703.72" y="467.71" width="21.56" height="6.34"/><rect class="cls-3" x="731.4" y="467.71" width="21.56" height="6.34"/><rect class="cls-3" x="813.53" y="716.83" width="21.56" height="3.17"/><rect class="cls-3" x="854.33" y="716.83" width="21.56" height="3.17"/><rect class="cls-3" x="841.65" y="687.69" width="6.12" height="22.35"/><rect class="cls-3" x="630.75" y="718.42" width="9.2" height="1.58"/><rect class="cls-3" x="646.06" y="718.42" width="9.2" height="1.58"/><rect class="cls-3" x="639.95" y="708.89" width="6.12" height="9.53"/><rect class="cls-3" x="690.52" y="696.05" width="17.06" height="6.34"/><rect class="cls-3" x="719.81" y="696.05" width="17.06" height="6.34"/><rect class="cls-3" x="710.64" y="675.21" width="6.12" height="17.68"/><rect class="cls-3" x="710.64" y="705.56" width="6.12" height="14.44"/><polygon class="cls-3" points="908.07 382.13 901.96 382.13 901.96 388.54 901.96 404.48 908.07 404.48 908.07 388.54 908.07 382.13"/><rect class="cls-3" x="901.96" y="410.82" width="6.12" height="22.35"/><rect class="cls-3" x="880.39" y="404.48" width="21.56" height="6.34"/><rect class="cls-3" x="908.07" y="404.48" width="21.56" height="6.34"/><polygon class="cls-3" points="905.01 561.22 905.01 554.88 902.67 554.88 883.45 554.88 883.45 561.22 902.67 561.22 905.01 561.22"/><polygon class="cls-3" points="1213.04 328.36 1213.04 325.19 1191.47 325.19 1191.47 328.36 1191.47 331.53 1213.04 331.53 1213.04 328.36"/><polygon class="cls-3" points="1253.83 328.36 1253.83 325.19 1232.27 325.19 1232.27 328.36 1232.27 331.53 1253.83 331.53 1253.83 328.36"/><rect class="cls-3" x="1219.59" y="338.32" width="6.12" height="22.35"/><rect class="cls-3" x="971.53" y="433.73" width="21.56" height="6.34"/><rect class="cls-3" x="1012.32" y="433.73" width="21.56" height="6.34"/><rect class="cls-3" x="999.65" y="404.59" width="6.12" height="22.35"/><rect class="cls-3" x="999.65" y="446.86" width="6.12" height="22.35"/><rect class="cls-3" x="924.07" y="619.88" width="6.12" height="17.08"/><rect class="cls-3" x="924.07" y="658.13" width="6.12" height="17.08"/><rect class="cls-3" x="937.34" y="644.38" width="16.48" height="6.34"/><rect class="cls-3" x="1278.38" y="644.38" width="2.23" height="6.34"/><rect class="cls-3" x="1159.31" y="395.27" width="6.12" height="9.53"/><rect class="cls-3" x="1159.31" y="369.76" width="6.12" height="9.53"/><rect class="cls-3" x="1145.46" y="384.11" width="9.2" height="6.34"/><rect class="cls-3" x="1170.08" y="384.11" width="9.2" height="6.34"/><rect class="cls-3" x="1039.34" y="633.77" width="6.12" height="9.53"/><rect class="cls-3" x="1039.34" y="608.27" width="6.12" height="9.53"/><rect class="cls-3" x="1025.49" y="622.62" width="9.2" height="6.34"/><rect class="cls-3" x="1050.11" y="622.62" width="9.2" height="6.34"/><polygon class="cls-3" points="985.37 330.69 994.57 330.69 994.57 325.93 994.57 324.35 985.37 324.35 985.37 325.93 985.37 330.69"/><rect class="cls-3" x="979.25" y="330.69" width="6.12" height="9.53"/><rect class="cls-3" x="1176.16" y="635.37" width="9.2" height="6.34"/><rect class="cls-3" x="1191.47" y="635.37" width="9.2" height="6.34"/><rect class="cls-3" x="1185.36" y="641.71" width="6.12" height="9.53"/><rect class="cls-3" x="1185.36" y="625.84" width="6.12" height="9.53"/><rect class="cls-3" x="918.05" y="488.85" width="6.12" height="6.34"/><rect class="cls-3" x="930.28" y="488.85" width="6.12" height="6.34"/><rect class="cls-3" x="924.17" y="495.18" width="6.12" height="6.34"/><rect class="cls-3" x="924.17" y="482.51" width="6.12" height="6.34"/><rect class="cls-3" x="1072.49" y="382.14" width="6.12" height="6.34"/><rect class="cls-3" x="1084.72" y="382.14" width="6.12" height="6.34"/><rect class="cls-3" x="1078.6" y="388.47" width="6.12" height="6.34"/><rect class="cls-3" x="1078.6" y="375.8" width="6.12" height="6.34"/><rect class="cls-3" x="1108.01" y="569.22" width="15.26" height="6.34"/><rect class="cls-3" x="1147.11" y="569.22" width="15.26" height="6.34"/><rect class="cls-3" x="1132.47" y="544.22" width="6.11" height="15.81"/><rect class="cls-3" x="1132.47" y="584.75" width="6.11" height="15.81"/><rect class="cls-3" x="1255.28" y="532.54" width="6.12" height="22.35"/><rect class="cls-3" x="1255.28" y="561.22" width="6.12" height="22.35"/><rect class="cls-3" x="1233.71" y="554.88" width="21.56" height="6.34"/><rect class="cls-3" x="1261.39" y="554.88" width="19.22" height="6.34"/><rect class="cls-3" x="1203.73" y="480.39" width="6.12" height="6.34"/><rect class="cls-3" x="1203.73" y="461.38" width="6.12" height="6.34"/><rect class="cls-3" x="1194.56" y="470.88" width="6.11" height="6.34"/><rect class="cls-3" x="1212.9" y="470.88" width="6.12" height="6.34"/><rect class="cls-3" x="1250.7" y="416.64" width="15.26" height="6.34"/><rect class="cls-3" x="1275.16" y="391.64" width="5.44" height="15.81"/><rect class="cls-3" x="1275.16" y="432.16" width="5.44" height="15.81"/><rect class="cls-3" x="985.51" y="540.54" width="17.06" height="6.34"/><rect class="cls-3" x="1014.8" y="540.54" width="17.06" height="6.34"/><rect class="cls-3" x="1005.63" y="519.69" width="6.12" height="17.68"/><rect class="cls-3" x="1005.63" y="550.05" width="6.12" height="17.68"/><rect class="cls-3" x="945.74" y="713.6" width="6.12" height="6.4"/><rect class="cls-3" x="1103.22" y="445.37" width="6.12" height="22.35"/><rect class="cls-3" x="1103.22" y="474.05" width="6.12" height="22.35"/><rect class="cls-3" x="1081.66" y="467.71" width="21.56" height="6.34"/><rect class="cls-3" x="1109.34" y="467.71" width="21.56" height="6.34"/><rect class="cls-3" x="1191.47" y="716.83" width="21.56" height="3.17"/><rect class="cls-3" x="1232.27" y="716.83" width="21.56" height="3.17"/><rect class="cls-3" x="1219.59" y="687.69" width="6.12" height="22.35"/><rect class="cls-3" x="1008.69" y="718.42" width="9.2" height="1.58"/><rect class="cls-3" x="1024" y="718.42" width="9.2" height="1.58"/><rect class="cls-3" x="1017.89" y="708.89" width="6.12" height="9.53"/><rect class="cls-3" x="1068.46" y="696.05" width="17.06" height="6.34"/><rect class="cls-3" x="1097.75" y="696.05" width="17.06" height="6.34"/><rect class="cls-3" x="1088.58" y="675.21" width="6.12" height="17.68"/><rect class="cls-3" x="1088.58" y="705.56" width="6.12" height="14.44"/><rect class="cls-3" x="26.2" y="3.63" width="6.12" height="9.53"/><rect class="cls-3" x="43.04" y="243.73" width="9.2" height="6.34"/><rect class="cls-3" x="58.36" y="243.73" width="9.2" height="6.34"/><rect class="cls-3" x="52.24" y="250.07" width="6.12" height="9.53"/><rect class="cls-3" x="52.24" y="234.2" width="6.12" height="9.53"/><rect class="cls-3" x="14" y="177.58" width="15.26" height="6.34"/><rect class="cls-3" x="122.16" y="140.89" width="6.12" height="22.35"/><rect class="cls-3" x="122.16" y="169.58" width="6.12" height="22.35"/><rect class="cls-3" x="100.6" y="163.24" width="21.56" height="6.34"/><polygon class="cls-3" points="147.49 169.58 149.84 169.58 149.84 163.24 147.49 163.24 128.28 163.24 128.28 169.58 147.49 169.58"/><rect class="cls-3" x="70.61" y="88.75" width="6.12" height="6.34"/><rect class="cls-3" x="70.61" y="69.73" width="6.12" height="6.34"/><rect class="cls-3" x="61.44" y="79.24" width="6.12" height="6.34"/><rect class="cls-3" x="79.79" y="79.24" width="6.12" height="6.34"/><rect class="cls-3" x="117.59" y="25" width="15.26" height="6.34"/><rect class="cls-3" x="101.94" y="282.51" width="6.12" height="22.35"/><rect class="cls-3" x="216.35" y="42.09" width="21.56" height="6.34"/><rect class="cls-3" x="257.15" y="42.09" width="21.56" height="6.34"/><rect class="cls-3" x="244.47" y="12.95" width="6.12" height="22.35"/><rect class="cls-3" x="244.47" y="55.22" width="6.12" height="22.35"/><rect class="cls-3" x="184.9" y="216.07" width="6.12" height="17.08"/><rect class="cls-3" x="184.9" y="254.32" width="6.12" height="17.08"/><rect class="cls-3" x="198.17" y="240.56" width="16.48" height="6.34"/><polygon class="cls-3" points="161.26 240.56 161.26 246.9 163.5 246.9 177.75 246.9 177.75 240.56 163.5 240.56 161.26 240.56"/><rect class="cls-3" x="404.14" y="3.63" width="6.12" height="9.53"/><rect class="cls-3" x="284.17" y="242.13" width="6.12" height="9.53"/><rect class="cls-3" x="284.17" y="216.63" width="6.12" height="9.53"/><rect class="cls-3" x="270.32" y="230.98" width="9.2" height="6.34"/><rect class="cls-3" x="294.93" y="230.98" width="9.2" height="6.34"/><rect class="cls-3" x="420.98" y="243.73" width="9.2" height="6.34"/><rect class="cls-3" x="436.3" y="243.73" width="9.2" height="6.34"/><rect class="cls-3" x="430.18" y="250.07" width="6.12" height="9.53"/><rect class="cls-3" x="430.18" y="234.2" width="6.12" height="9.53"/><rect class="cls-3" x="170.61" y="101.52" width="6.12" height="6.34"/><rect class="cls-3" x="182.84" y="101.52" width="6.12" height="6.34"/><rect class="cls-3" x="176.73" y="107.85" width="6.12" height="6.34"/><rect class="cls-3" x="176.73" y="95.18" width="6.12" height="6.34"/><rect class="cls-3" x="156.69" y="25" width="15.26" height="6.34"/><polygon class="cls-3" points="148.16 15.81 148.16 0 147.49 0 142.05 0 142.05 15.81 147.49 15.81 148.16 15.81"/><polygon class="cls-3" points="148.16 56.34 148.16 40.52 147.49 40.52 142.05 40.52 142.05 56.34 147.49 56.34 148.16 56.34"/><rect class="cls-3" x="352.83" y="177.58" width="15.26" height="6.34"/><rect class="cls-3" x="391.94" y="177.58" width="15.26" height="6.34"/><rect class="cls-3" x="377.29" y="152.58" width="6.11" height="15.81"/><rect class="cls-3" x="377.29" y="193.11" width="6.11" height="15.81"/><rect class="cls-3" x="500.1" y="140.89" width="6.12" height="22.35"/><rect class="cls-3" x="500.1" y="169.58" width="6.12" height="22.35"/><rect class="cls-3" x="478.54" y="163.24" width="21.56" height="6.34"/><polygon class="cls-3" points="524.73 169.58 525.43 169.58 527.08 169.58 527.08 163.24 525.43 163.24 524.73 163.24 506.21 163.24 506.21 169.58 524.73 169.58"/><rect class="cls-3" x="448.55" y="88.75" width="6.12" height="6.34"/><rect class="cls-3" x="448.55" y="69.73" width="6.12" height="6.34"/><rect class="cls-3" x="439.38" y="79.24" width="6.11" height="6.34"/><rect class="cls-3" x="457.73" y="79.24" width="6.12" height="6.34"/><rect class="cls-3" x="495.53" y="25" width="15.26" height="6.34"/><polygon class="cls-3" points="525.4 15.81 525.43 15.81 525.43 0 525.4 0 524.73 0 519.99 0 519.99 15.81 524.73 15.81 525.4 15.81"/><polygon class="cls-3" points="525.4 56.34 525.43 56.34 525.43 40.52 525.4 40.52 524.73 40.52 519.99 40.52 519.99 56.34 524.73 56.34 525.4 56.34"/><rect class="cls-3" x="230.34" y="148.9" width="17.06" height="6.34"/><rect class="cls-3" x="259.62" y="148.9" width="17.06" height="6.34"/><rect class="cls-3" x="250.45" y="128.05" width="6.12" height="17.68"/><rect class="cls-3" x="250.45" y="158.4" width="6.12" height="17.68"/><rect class="cls-3" x="348.05" y="53.73" width="6.12" height="22.35"/><rect class="cls-3" x="348.05" y="82.41" width="6.12" height="22.35"/><rect class="cls-3" x="326.48" y="76.07" width="21.56" height="6.34"/><rect class="cls-3" x="354.16" y="76.07" width="21.56" height="6.34"/><rect class="cls-3" x="464.42" y="296.05" width="6.12" height="22.35"/><polygon class="cls-3" points="224.08 325.93 224.08 324.35 214.88 324.35 214.88 325.93 214.88 330.69 224.08 330.69 224.08 325.93"/><rect class="cls-3" x="224.08" y="314.82" width="6.12" height="9.53"/><rect class="cls-3" x="313.29" y="304.41" width="17.06" height="6.34"/><rect class="cls-3" x="342.58" y="304.41" width="17.06" height="6.34"/><rect class="cls-3" x="333.4" y="283.57" width="6.12" height="17.68"/><polygon class="cls-3" points="333.4 328.36 333.4 331.59 339.52 331.59 339.52 328.36 339.52 313.92 333.4 313.92 333.4 328.36"/><polygon class="cls-3" points="73.82 314.82 73.82 317.99 95.39 317.99 95.39 314.82 95.39 311.65 73.82 311.65 73.82 314.82"/><polygon class="cls-3" points="136.18 314.82 136.18 311.65 114.62 311.65 114.62 314.82 114.62 317.99 136.18 317.99 136.18 314.82"/><rect class="cls-3" x="101.94" y="324.78" width="6.12" height="22.35"/><polygon class="cls-3" points="145.26 644.38 145.26 650.71 147.49 650.71 161.74 650.71 161.74 644.38 147.49 644.38 145.26 644.38"/><rect class="cls-3" x="26.2" y="395.27" width="6.12" height="9.53"/><rect class="cls-3" x="26.2" y="369.76" width="6.12" height="9.53"/><rect class="cls-3" x="12.35" y="384.11" width="9.2" height="6.34"/><rect class="cls-3" x="36.96" y="384.11" width="9.2" height="6.34"/><rect class="cls-3" x="43.04" y="635.37" width="9.2" height="6.34"/><rect class="cls-3" x="58.36" y="635.37" width="9.2" height="6.34"/><rect class="cls-3" x="52.24" y="641.71" width="6.12" height="9.53"/><rect class="cls-3" x="52.24" y="625.84" width="6.12" height="9.53"/><rect class="cls-3" x="14" y="569.22" width="15.26" height="6.34"/><rect class="cls-3" x="122.16" y="532.54" width="6.12" height="22.35"/><rect class="cls-3" x="122.16" y="561.22" width="6.12" height="22.35"/><rect class="cls-3" x="100.6" y="554.88" width="21.56" height="6.34"/><rect class="cls-3" x="76.73" y="485.32" width="6.12" height="6.34"/><rect class="cls-3" x="76.73" y="466.31" width="6.12" height="6.34"/><rect class="cls-3" x="67.56" y="475.82" width="6.12" height="6.34"/><rect class="cls-3" x="85.9" y="475.82" width="6.12" height="6.34"/><rect class="cls-3" x="86.48" y="687.69" width="6.12" height="22.35"/><polygon class="cls-3" points="152.9 382.13 146.78 382.13 146.78 388.54 146.78 404.48 152.9 404.48 152.9 388.54 152.9 382.13"/><rect class="cls-3" x="146.78" y="410.82" width="6.12" height="22.35"/><rect class="cls-3" x="125.22" y="404.48" width="21.56" height="6.34"/><rect class="cls-3" x="152.9" y="404.48" width="21.56" height="6.34"/><polygon class="cls-3" points="149.84 561.22 149.84 554.88 147.49 554.88 128.28 554.88 128.28 561.22 147.49 561.22 149.84 561.22"/><polygon class="cls-3" points="457.86 328.36 457.86 325.19 436.3 325.19 436.3 328.36 436.3 331.53 457.86 331.53 457.86 328.36"/><polygon class="cls-3" points="498.65 328.36 498.65 325.19 477.09 325.19 477.09 328.36 477.09 331.53 498.65 331.53 498.65 328.36"/><rect class="cls-3" x="464.42" y="338.32" width="6.12" height="22.35"/><rect class="cls-3" x="216.35" y="433.73" width="21.56" height="6.34"/><rect class="cls-3" x="257.15" y="433.73" width="21.56" height="6.34"/><rect class="cls-3" x="244.47" y="404.59" width="6.12" height="22.35"/><rect class="cls-3" x="244.47" y="446.86" width="6.12" height="22.35"/><rect class="cls-3" x="168.9" y="619.88" width="6.12" height="17.08"/><rect class="cls-3" x="168.9" y="658.13" width="6.12" height="17.08"/><rect class="cls-3" x="182.17" y="644.38" width="16.48" height="6.34"/><polygon class="cls-3" points="524.73 644.38 523.2 644.38 523.2 650.71 524.73 650.71 525.43 650.71 538.98 650.71 538.98 644.38 525.43 644.38 524.73 644.38"/><rect class="cls-3" x="404.14" y="395.27" width="6.12" height="9.53"/><rect class="cls-3" x="404.14" y="369.76" width="6.12" height="9.53"/><rect class="cls-3" x="390.29" y="384.11" width="9.2" height="6.34"/><rect class="cls-3" x="414.9" y="384.11" width="9.2" height="6.34"/><rect class="cls-3" x="284.17" y="633.77" width="6.12" height="9.53"/><rect class="cls-3" x="284.17" y="608.27" width="6.12" height="9.53"/><rect class="cls-3" x="270.32" y="622.62" width="9.2" height="6.34"/><rect class="cls-3" x="294.93" y="622.62" width="9.2" height="6.34"/><polygon class="cls-3" points="230.19 330.69 239.39 330.69 239.39 325.93 239.39 324.35 230.19 324.35 230.19 325.93 230.19 330.69"/><rect class="cls-3" x="224.08" y="330.69" width="6.12" height="9.53"/><rect class="cls-3" x="420.98" y="635.37" width="9.2" height="6.34"/><rect class="cls-3" x="436.3" y="635.37" width="9.2" height="6.34"/><rect class="cls-3" x="430.18" y="641.71" width="6.12" height="9.53"/><rect class="cls-3" x="430.18" y="625.84" width="6.12" height="9.53"/><rect class="cls-3" x="162.87" y="488.85" width="6.12" height="6.34"/><rect class="cls-3" x="175.11" y="488.85" width="6.12" height="6.34"/><rect class="cls-3" x="168.99" y="495.18" width="6.12" height="6.34"/><rect class="cls-3" x="168.99" y="482.51" width="6.12" height="6.34"/><rect class="cls-3" x="317.31" y="382.14" width="6.12" height="6.34"/><rect class="cls-3" x="329.54" y="382.14" width="6.12" height="6.34"/><rect class="cls-3" x="323.43" y="388.47" width="6.12" height="6.34"/><rect class="cls-3" x="323.43" y="375.8" width="6.12" height="6.34"/><rect class="cls-3" x="352.83" y="569.22" width="15.26" height="6.34"/><rect class="cls-3" x="391.94" y="569.22" width="15.26" height="6.34"/><rect class="cls-3" x="377.29" y="544.22" width="6.11" height="15.81"/><rect class="cls-3" x="377.29" y="584.75" width="6.11" height="15.81"/><rect class="cls-3" x="500.1" y="532.54" width="6.12" height="22.35"/><rect class="cls-3" x="500.1" y="561.22" width="6.12" height="22.35"/><rect class="cls-3" x="478.54" y="554.88" width="21.56" height="6.34"/><polygon class="cls-3" points="525.43 561.22 527.08 561.22 527.08 554.88 525.43 554.88 524.73 554.88 506.21 554.88 506.21 561.22 524.73 561.22 525.43 561.22"/><rect class="cls-3" x="448.55" y="480.39" width="6.12" height="6.34"/><rect class="cls-3" x="448.55" y="461.38" width="6.12" height="6.34"/><rect class="cls-3" x="439.38" y="470.88" width="6.11" height="6.34"/><rect class="cls-3" x="457.73" y="470.88" width="6.12" height="6.34"/><rect class="cls-3" x="495.53" y="416.64" width="15.26" height="6.34"/><polygon class="cls-3" points="525.43 391.64 525.4 391.64 524.73 391.64 519.99 391.64 519.99 407.45 524.73 407.45 525.4 407.45 525.43 407.45 525.43 391.64"/><polygon class="cls-3" points="524.73 432.16 519.99 432.16 519.99 447.98 524.73 447.98 525.4 447.98 525.43 447.98 525.43 432.16 525.4 432.16 524.73 432.16"/><rect class="cls-3" x="230.34" y="540.54" width="17.06" height="6.34"/><rect class="cls-3" x="259.62" y="540.54" width="17.06" height="6.34"/><rect class="cls-3" x="250.45" y="519.69" width="6.12" height="17.68"/><rect class="cls-3" x="250.45" y="550.05" width="6.12" height="17.68"/><rect class="cls-3" x="348.05" y="445.37" width="6.12" height="22.35"/><rect class="cls-3" x="348.05" y="474.05" width="6.12" height="22.35"/><rect class="cls-3" x="326.48" y="467.71" width="21.56" height="6.34"/><rect class="cls-3" x="354.16" y="467.71" width="21.56" height="6.34"/><rect class="cls-3" x="436.3" y="716.83" width="21.56" height="3.17"/><rect class="cls-3" x="477.09" y="716.83" width="21.56" height="3.17"/><rect class="cls-3" x="464.42" y="687.69" width="6.12" height="22.35"/><rect class="cls-3" x="262.71" y="708.89" width="6.12" height="9.53"/><rect class="cls-3" x="313.29" y="696.05" width="17.06" height="6.34"/><rect class="cls-3" x="342.58" y="696.05" width="17.06" height="6.34"/><rect class="cls-3" x="333.4" y="675.21" width="6.12" height="17.68"/></g><path class="cls-4" d="M710.42,573.33A35.48,35.48,0,0,1,675,537.9V446H566.07v.45H523.33a31,31,0,0,1-31-31.7l5.38-233.42a34.5,34.5,0,0,1,34.33-34.65h.16a34.48,34.48,0,0,1,34.48,34.57l-.46,193.21H675V301.61a35.43,35.43,0,0,1,70.86,0v72.84h13.26A28.54,28.54,0,0,1,787.62,403v14.52A28.54,28.54,0,0,1,759.11,446H745.85V537.9A35.47,35.47,0,0,1,710.42,573.33Z"/><path class="cls-5" d="M710.42,573.33A35.48,35.48,0,0,1,675,537.9V446H566.07v.45H523.33a31,31,0,0,1-31-31.7l5.38-233.42a34.5,34.5,0,0,1,34.33-34.65h.16a34.48,34.48,0,0,1,34.48,34.57l-.46,193.21H675V301.61a35.43,35.43,0,0,1,70.86,0v72.84h13.26A28.54,28.54,0,0,1,787.62,403v14.52A28.54,28.54,0,0,1,759.11,446H745.85V537.9A35.47,35.47,0,0,1,710.42,573.33Z"/><path class="cls-6" d="M759.11,383H737.32V301.61a26.9,26.9,0,0,0-26.9-26.9h0a26.89,26.89,0,0,0-26.89,26.9V383H557.68l.49-201.76a26,26,0,0,0-26.07-26h0a26,26,0,0,0-25.84,26.18l-5.38,233.55a22.46,22.46,0,0,0,22.45,23h34.22v-.45h126V537.9a26.89,26.89,0,0,0,26.89,26.89h0a26.89,26.89,0,0,0,26.9-26.89V437.46h21.79a20,20,0,0,0,20-20V403A20,20,0,0,0,759.11,383Z"/><line class="cls-7" x1="531.18" y1="170.14" x2="528.36" y2="382.53"/><polygon class="cls-3" points="508.5 376.43 527.98 411.23 548.38 376.95 508.5 376.43"/><line class="cls-7" x1="531.18" y1="170.14" x2="530.33" y2="286.5"/><polygon class="cls-3" points="510.43 280.51 530.12 315.2 550.32 280.81 510.43 280.51"/><line class="cls-7" x1="525.85" y1="410.13" x2="740.34" y2="412.01"/><polygon class="cls-3" points="734.33 431.91 769.04 412.26 734.68 392.02 734.33 431.91"/><line class="cls-7" x1="525.85" y1="410.13" x2="630.47" y2="410.15"/><polygon class="cls-3" points="624.63 430.1 659.18 410.16 624.64 390.21 624.63 430.1"/><line class="cls-7" x1="710.38" y1="294.94" x2="710.38" y2="527.58"/><polygon class="cls-3" points="690.43 521.75 710.38 556.29 730.32 521.75 690.43 521.75"/><line class="cls-7" x1="710.38" y1="294.94" x2="710.38" y2="397.46"/><polygon class="cls-3" points="690.43 391.62 710.38 426.16 730.32 391.62 690.43 391.62"/><path class="cls-8" d="M759.11,383H737.32V301.61a26.9,26.9,0,0,0-26.9-26.9h0a26.89,26.89,0,0,0-26.89,26.9V383H557.68l.49-201.76a26,26,0,0,0-26.07-26h0a26,26,0,0,0-25.84,26.18l-5.38,233.55a22.46,22.46,0,0,0,22.45,23h34.22v-.45h126V537.9a26.89,26.89,0,0,0,26.89,26.89h0a26.89,26.89,0,0,0,26.9-26.89V437.46h21.79a20,20,0,0,0,20-20V403A20,20,0,0,0,759.11,383Z"/><text class="cls-9" transform="translate(184.19 383.5)"><tspan class="cls-10">F</tspan><tspan x="37.36" y="0">our</tspan></text><text class="cls-11" transform="translate(181.19 380.5)"><tspan class="cls-10">F</tspan><tspan x="37.36" y="0">our</tspan></text><text class="cls-12" transform="translate(960.82 667.11)">4 bo<tspan class="cls-13" x="84.99" y="0">a</tspan><tspan class="cls-14" x="108.75" y="0">ts</tspan></text><path class="cls-15" d="M916.91,601.06a180.76,180.76,0,0,1-40.45-4.16c-7.48-1.74-12-5.08-16.36-8.31a55.77,55.77,0,0,0-8.85-5.69l2-7.91h-.56l2.75-8.27c5.06-15.18,45.48-79,57.4-97.6l-1.32-3.42,13.23-5.12L968.13,573l13.11.23-23.61,24.5-2,.37a243.89,243.89,0,0,1-38.68,3Zm35.91-28.39-18.68-48.33c1.3,18.83,1.89,37,2.15,48Z"/><path class="cls-3" d="M911.58,595.73a180.66,180.66,0,0,1-40.45-4.17c-7.48-1.73-12-5.07-16.37-8.31a57.09,57.09,0,0,0-8.84-5.69l1.4-7.91,2.75-8.28c5-15.17,45.47-78.94,57.4-97.6l-1.33-3.41,13.24-5.12,43.41,112.37,13.11.24-23.6,24.5-2,.36a241.42,241.42,0,0,1-38.67,3Zm35.9-28.4L928.81,519c1.29,18.83,1.88,37,2.15,48Z"/><rect class="cls-16" x="834.69" y="521.15" width="115.32" height="1.38" transform="translate(33.15 1096.64) rotate(-64.1)"/><path class="cls-17" d="M961.11,574s-84.72-1.53-112.34-2.14C848.77,571.84,922.43,590.56,961.11,574Z"/><path class="cls-18" d="M848.77,571.84s72.74,12.73,112.34,2.14l-12,12.43s-40.68,7.23-76.56-1.08C862.19,582.92,858.79,576.83,848.77,571.84Z"/><rect class="cls-16" x="935.82" y="459.77" width="1.38" height="118.99" transform="translate(-124.21 372.45) rotate(-21.13)"/><rect class="cls-16" x="858.19" y="567.81" width="13.03" height="1.38" transform="translate(-165.12 670.26) rotate(-38.97)"/><path class="cls-19" d="M921.91,563.39s2.83-57-6.84-99.62c0,0-53.41,83.05-58.93,99.63,0,0,15.32.23,21.17,4.36C886.53,574.27,910.36,570.65,921.91,563.39Z"/><path class="cls-16" d="M915.07,463.77S925.54,534,921,576.33h3.74S923.81,495.35,915.07,463.77Z"/><path class="cls-20" d="M882.84,574.76s42.13,4.06,56.4,1.57C939.24,576.33,900.68,573.8,882.84,574.76Z"/><g class="cls-21"><path class="cls-3" d="M911,473.85s-18.49,59-18.68,69.06.82,18.11-3.14,21.48c0,0-16.39-11.81-24.51-7Z"/></g><path class="cls-15" d="M1075.61,601.06a180.69,180.69,0,0,1-40.45-4.16c-7.49-1.74-12-5.08-16.37-8.31a55.65,55.65,0,0,0-8.84-5.69l1.95-7.91h-.55l2.75-8.27c5-15.18,45.47-79,57.39-97.6l-1.32-3.42,13.23-5.12L1126.82,573l13.11.24-23.6,24.49-2,.37a243.53,243.53,0,0,1-38.67,3Zm35.9-28.39-18.67-48.33c1.29,18.83,1.88,37,2.14,48Z"/><path class="cls-3" d="M1070.27,595.73a180.79,180.79,0,0,1-40.45-4.17c-7.48-1.73-12-5.07-16.36-8.31a57.21,57.21,0,0,0-8.85-5.69l1.4-7.91,2.76-8.28c5.05-15.17,45.47-78.94,57.39-97.6l-1.32-3.41,13.23-5.12,43.42,112.37,13.11.24L1111,592.35l-2,.36a241.63,241.63,0,0,1-38.68,3Zm35.91-28.4L1087.51,519c1.29,18.83,1.88,37,2.14,48Z"/><rect class="cls-16" x="993.39" y="521.15" width="115.32" height="1.38" transform="translate(122.53 1239.39) rotate(-64.1)"/><path class="cls-17" d="M1119.8,574s-84.71-1.53-112.33-2.14C1007.47,571.84,1081.13,590.56,1119.8,574Z"/><path class="cls-18" d="M1007.47,571.84s72.74,12.73,112.33,2.14l-12,12.43s-40.69,7.23-76.56-1.08C1020.89,582.92,1017.49,576.83,1007.47,571.84Z"/><rect class="cls-16" x="1094.51" y="459.77" width="1.38" height="118.99" transform="translate(-113.55 429.65) rotate(-21.13)"/><rect class="cls-16" x="1016.88" y="567.81" width="13.03" height="1.38" transform="translate(-129.82 770.06) rotate(-38.97)"/><path class="cls-22" d="M1080.61,563.39s2.82-57-6.85-99.62c0,0-53.4,83.05-58.92,99.63,0,0,15.31.23,21.17,4.36C1045.22,574.27,1069.05,570.65,1080.61,563.39Z"/><path class="cls-16" d="M1073.76,463.77s10.48,70.26,5.93,112.56h3.74S1082.51,495.35,1073.76,463.77Z"/><path class="cls-20" d="M1041.53,574.76s42.13,4.06,56.4,1.57C1097.93,576.33,1059.37,573.8,1041.53,574.76Z"/><g class="cls-21"><path class="cls-3" d="M1069.73,473.85s-18.49,59-18.68,69.06.82,18.11-3.14,21.48c0,0-16.39-11.81-24.51-7Z"/></g><path class="cls-15" d="M1002.23,468.74a180.69,180.69,0,0,1-40.45-4.16c-7.48-1.73-12-5.08-16.36-8.31a56.48,56.48,0,0,0-8.85-5.69l1.95-7.9H938l2.75-8.28c5.06-15.18,45.48-79,57.4-97.6l-1.32-3.42,13.23-5.11,43.42,112.37,13.1.24-23.6,24.5-2,.36a243.53,243.53,0,0,1-38.67,3Zm35.91-28.39L1019.46,392c1.29,18.84,1.89,37,2.15,48Z"/><path class="cls-3" d="M996.9,463.41a180.69,180.69,0,0,1-40.45-4.16c-7.48-1.74-12-5.08-16.37-8.31a55.65,55.65,0,0,0-8.84-5.69l1.4-7.92,2.75-8.27c5.06-15.19,45.48-79,57.4-97.61L991.46,328l13.24-5.1,43.41,112.37,13.11.24L1037.62,460l-2,.37a243.53,243.53,0,0,1-38.67,3ZM1032.8,435l-18.67-48.33c1.29,18.83,1.88,37,2.15,48Z"/><rect class="cls-16" x="920.01" y="388.84" width="115.32" height="1.38" transform="translate(200.23 1098.86) rotate(-64.1)"/><path class="cls-17" d="M1046.43,441.67s-84.72-1.54-112.34-2.15C934.09,439.52,1007.75,458.24,1046.43,441.67Z"/><path class="cls-18" d="M934.09,439.52s72.74,12.74,112.34,2.15l-12,12.43s-40.68,7.22-76.56-1.09C947.51,450.61,944.11,444.51,934.09,439.52Z"/><rect class="cls-16" x="1021.14" y="327.45" width="1.38" height="118.99" transform="translate(-70.79 394.31) rotate(-21.13)"/><rect class="cls-16" x="943.51" y="435.49" width="13.03" height="1.38" transform="translate(-62.93 694.48) rotate(-38.97)"/><path class="cls-23" d="M1007.23,431.08s2.82-57-6.84-99.63c0,0-53.41,83.06-58.93,99.63,0,0,15.32.23,21.17,4.37C971.84,442,995.68,438.33,1007.23,431.08Z"/><path class="cls-16" d="M1000.39,331.45s10.47,70.26,5.93,112.57h3.73S1009.13,363,1000.39,331.45Z"/><path class="cls-20" d="M968.16,442.44s42.13,4.06,56.39,1.58C1024.55,444,986,441.49,968.16,442.44Z"/><g class="cls-21"><path class="cls-3" d="M996.36,341.54s-18.5,59-18.68,69,.82,18.11-3.14,21.49c0,0-16.39-11.82-24.52-7Z"/></g><path class="cls-15" d="M1154.31,468.74a180.67,180.67,0,0,1-40.44-4.16c-7.49-1.73-12-5.08-16.37-8.31a56.36,56.36,0,0,0-8.84-5.69l1.95-7.89h-.56l2.76-8.29c5-15.17,45.48-79,57.4-97.61l-1.32-3.42,13.22-5.1,43.42,112.37,13.11.24-23.6,24.5-2,.36a243.53,243.53,0,0,1-38.67,3Zm35.91-28.39L1171.55,392c1.29,18.84,1.88,37,2.14,48Z"/><path class="cls-3" d="M1149,463.41a180.76,180.76,0,0,1-40.45-4.16c-7.48-1.74-12-5.08-16.36-8.31a55.77,55.77,0,0,0-8.85-5.69l1.4-7.91,2.75-8.28c5.06-15.17,45.48-79,57.4-97.61l-1.32-3.42,13.23-5.1L1200.2,435.3l13.11.24L1189.7,460l-2,.37a243.89,243.89,0,0,1-38.68,3ZM1184.89,435l-18.68-48.33c1.3,18.83,1.89,37,2.15,48Z"/><rect class="cls-16" x="1072.1" y="388.84" width="115.32" height="1.38" transform="translate(285.89 1235.67) rotate(-64.1)"/><path class="cls-17" d="M1198.51,441.67s-84.71-1.54-112.33-2.15C1086.18,439.52,1159.84,458.24,1198.51,441.67Z"/><path class="cls-18" d="M1086.18,439.52s72.74,12.74,112.33,2.15l-12,12.43s-40.69,7.22-76.56-1.09C1099.6,450.61,1096.2,444.51,1086.18,439.52Z"/><rect class="cls-16" x="1173.22" y="327.45" width="1.38" height="118.99" transform="translate(-60.56 449.12) rotate(-21.13)"/><rect class="cls-16" x="1095.59" y="435.49" width="13.03" height="1.38" transform="translate(-29.1 790.12) rotate(-38.97)"/><path class="cls-24" d="M1159.32,431.08s2.82-57-6.85-99.63c0,0-53.41,83.06-58.92,99.63,0,0,15.31.23,21.17,4.37C1123.93,442,1147.76,438.33,1159.32,431.08Z"/><path class="cls-16" d="M1152.47,331.45S1163,401.71,1158.4,444h3.74S1161.22,363,1152.47,331.45Z"/><path class="cls-20" d="M1120.24,442.44s42.13,4.06,56.4,1.58C1176.64,444,1138.08,441.49,1120.24,442.44Z"/><g class="cls-21"><path class="cls-3" d="M1148.44,341.54s-18.49,59-18.68,69,.82,18.11-3.14,21.49c0,0-16.39-11.82-24.51-7Z"/></g><circle class="cls-15" cx="712.43" cy="528.97" r="45.6"/><circle class="cls-25" cx="711.36" cy="525.77" r="45.6"/><circle class="cls-26" cx="711.36" cy="525.77" r="39.02"/><rect class="cls-16" x="678.32" y="521.42" width="52.74" height="0.63" transform="translate(-72.45 927.76) rotate(-64.1)"/><path class="cls-17" d="M736.13,545.59s-38.74-.7-51.37-1C684.76,544.6,718.44,553.17,736.13,545.59Z"/><path class="cls-18" d="M684.76,544.6s33.26,5.83,51.37,1l-5.48,5.68s-18.6,3.31-35-.5C690.89,549.67,689.34,546.89,684.76,544.6Z"/><rect class="cls-16" x="724.57" y="493.35" width="0.63" height="54.42" transform="translate(-138.9 296.26) rotate(-21.13)"/><rect class="cls-16" x="689.06" y="542.76" width="5.96" height="0.63" transform="translate(-187.55 556.03) rotate(-38.97)"/><path class="cls-20" d="M718.21,540.74s1.29-26.06-3.13-45.56c0,0-24.43,38-27,45.56,0,0,7,.11,9.68,2C702,545.72,712.92,544.06,718.21,540.74Z"/><path class="cls-16" d="M715.08,495.18s4.79,32.13,2.71,51.48h1.71S719.08,509.62,715.08,495.18Z"/><path class="cls-20" d="M700.34,545.94s19.26,1.86,25.79.72C726.13,546.66,708.49,545.5,700.34,545.94Z"/><path class="cls-3" d="M713.23,499.79s-8.45,27-8.54,31.58.38,8.29-1.44,9.83c0,0-7.49-5.4-11.21-3.19Z"/><g id="Gray_Medel" data-name="Gray Medel"><path class="cls-27" d="M1240,84.2a41,41,0,1,0-65.19,33.14v32.52l23.81-15.14,23.8,15.14v-32A41,41,0,0,0,1240,84.2Z"/><path class="cls-27" d="M1140.66,84.2a41,41,0,1,0-65.19,33.14v32.52l23.81-15.14,23.8,15.14v-32A41,41,0,0,0,1140.66,84.2Z"/><path class="cls-27" d="M1041.32,84.2a41,41,0,1,0-65.18,33.14v32.52l23.8-15.14,23.8,15.14v-32A41,41,0,0,0,1041.32,84.2Z"/></g><g id="Yellow_Medel" data-name="Yellow Medel"><g id="Yellow_Medel-2" data-name="Yellow Medel"><polygon class="cls-28" points="971.3 78.62 1018.91 78.62 1018.91 146.68 995.11 131.54 971.3 146.68 971.3 78.62"/><path class="cls-29" d="M995.46,122.06a41,41,0,1,0-41-41,41.12,41.12,0,0,0,41,41Z"/><path class="cls-30" d="M1007.06,63.9c-13.11-33.51-23.24,0-23.24,0S949.5,64,975,87c0,0-9.45,35,20.94,14.73,30.13,21.61,19.18-15.27,19.18-15.27S1041.92,64.71,1007.06,63.9Z"/><path class="cls-31" d="M995.46,118a37,37,0,1,0-37-37,37.08,37.08,0,0,0,37,37Z"/><path class="cls-32" d="M984.8,65.16s9.43-31.17,21.62,0c32.43.76,7.54,21,7.54,21s10.18,34.32-17.85,14.21c-28.27,18.85-19.48-13.7-19.48-13.7C952.87,65.29,984.8,65.16,984.8,65.16Z"/><path class="cls-33" d="M985.38,65.91s8.91-29.48,20.44,0c30.68.71,7.14,19.86,7.14,19.86s9.63,32.45-16.88,13.43c-26.75,17.83-18.43-13-18.43-13C955.18,66,985.38,65.91,985.38,65.91Z"/><path class="cls-34" d="M985.62,67s8.7-27.36,20,0c29.94.66,7,18.42,7,18.42s9.4,30.12-16.48,12.47c-26.11,16.54-18-12-18-12C956.13,67.15,985.62,67,985.62,67Z"/><g class="cls-35"><path class="cls-33" d="M998.39,55.92c-6.18-4.28-10.79,5.85-12.27,9.71C990.46,62.09,994.79,58.65,998.39,55.92Z"/><path class="cls-33" d="M1013.83,67.87a44.13,44.13,0,0,0-8.25-.83c-.38-.93-.76-1.79-1.14-2.6-4.91,2.61-10,5.69-12.58,8.37L977.7,87.43c-.57,2.62-1.47,8-.09,11.77,5.37-2.64,14-7.09,17.85-10.31C1001.31,84,1010,73.93,1013.83,67.87Z"/><path class="cls-33" d="M1019.28,70.18c-1,1.13-1.79,2.13-2.3,2.81-2.19,2.92-7.17,13.65-10.72,19.45a38.46,38.46,0,0,1-6.72,7.7c21.52,12.62,13-14.68,13-14.68S1025.49,75.45,1019.28,70.18Z"/><path class="cls-33" d="M984.34,67.08c-4.41.24-18.45,1.72-13.23,11.08C974.77,75,979.51,71,984.34,67.08Z"/></g><path class="cls-3" d="M973.57,68.25a26.94,26.94,0,0,1,11.81-2.34c2.69-9,6.63-11.73,6.63-11.73s-3.78,3.09-6.46,12.36A43.2,43.2,0,0,0,973.57,68.25Z"/><path class="cls-36" d="M996,97.93s-11.57,8-16.53,4c5.63,2.19,16.53-5.1,16.53-5.1Z"/><path class="cls-3" d="M1002.47,60.31c.71,1.83.25,3.72-1,4.22s-2.9-.59-3.61-2.41-.24-3.72,1-4.22S1001.76,58.48,1002.47,60.31Z"/><path class="cls-3" d="M1005,66.65a1.39,1.39,0,1,1-1.39-1.38A1.39,1.39,0,0,1,1005,66.65Z"/></g></g></g></svg>