<svg id="Layer_1" data-name="Layer 1" xmlns="http://www.w3.org/2000/svg" xmlns:xlink="http://www.w3.org/1999/xlink" viewBox="0 0 1280 720"><defs><style>.cls-1{fill:none;}.cls-2{clip-path:url(#clip-path);}.cls-3{clip-path:url(#clip-path-2);}.cls-4{clip-path:url(#clip-path-3);}.cls-5{fill:url(#linear-gradient);}.cls-6{clip-path:url(#clip-path-4);}.cls-7{clip-path:url(#clip-path-5);}.cls-8{fill:url(#linear-gradient-2);}.cls-9{fill:#539b56;}.cls-10{fill:#104c16;}.cls-11{fill:#3f201c;}.cls-12{fill:url(#linear-gradient-3);}.cls-13{fill:url(#linear-gradient-4);}.cls-14{clip-path:url(#clip-path-6);}.cls-15{clip-path:url(#clip-path-7);}.cls-16{fill:url(#linear-gradient-5);}.cls-17{clip-path:url(#clip-path-9);}.cls-18{clip-path:url(#clip-path-10);}.cls-19{fill:url(#linear-gradient-6);}.cls-20{fill:url(#linear-gradient-7);}.cls-21{clip-path:url(#clip-path-12);}.cls-22{clip-path:url(#clip-path-13);}.cls-23{fill:url(#linear-gradient-8);}.cls-24{fill:url(#linear-gradient-9);}.cls-25{fill:url(#linear-gradient-10);}.cls-26{fill:#ff440b;}.cls-27{fill:#eadfc7;}.cls-28{fill:#ff603b;}.cls-29{fill:#8c7c72;}.cls-30{fill:#fff3d4;}.cls-31{fill:#6d615a;}.cls-32,.cls-46,.cls-47,.cls-48{fill:#fff;}.cls-32{opacity:0.35;}.cls-33{fill:#e0340b;}.cls-34{fill:#eadfc5;}.cls-35{fill:#dbc8af;}.cls-36{fill:#e55438;}.cls-37{clip-path:url(#clip-path-15);}.cls-38{clip-path:url(#clip-path-16);}.cls-39{fill:url(#linear-gradient-11);}.cls-40{fill:#5ccae5;}.cls-41{fill:#e69847;}.cls-42{fill:#cc7e48;}.cls-43{fill:#41b2a9;}.cls-44{fill:#3daa9a;}.cls-45{fill:#68b4a8;opacity:0.89;}.cls-46{opacity:0.23;}.cls-47{opacity:0.66;}.cls-48{opacity:0.9;}.cls-49{clip-path:url(#clip-path-17);}.cls-50{clip-path:url(#clip-path-18);}.cls-51{fill:#fab51b;}.cls-52{fill:#f17125;}.cls-53{clip-path:url(#clip-path-19);}.cls-54{clip-path:url(#clip-path-20);}.cls-55{fill:url(#linear-gradient-12);}.cls-56{fill:url(#linear-gradient-13);}.cls-57{clip-path:url(#clip-path-21);}.cls-58{clip-path:url(#clip-path-22);}.cls-59{fill:url(#linear-gradient-14);}.cls-60{clip-path:url(#clip-path-23);}.cls-61{clip-path:url(#clip-path-24);}.cls-62{fill:#5fde85;}.cls-63{stroke-miterlimit:10;stroke-width:0.25px;fill:url(#linear-gradient-15);stroke:url(#linear-gradient-16);}</style><clipPath id="clip-path"><rect class="cls-1" x="-1300" y="-740" width="1280" height="720"/></clipPath><clipPath id="clip-path-2"><rect class="cls-1" x="-1460" y="-830" width="1600" height="900"/></clipPath><clipPath id="clip-path-3"/><linearGradient id="linear-gradient" x1="-700.93" y1="-1379.69" x2="-623.59" y2="665.43" gradientUnits="userSpaceOnUse"><stop offset="0.21" stop-color="#a2d9d8"/><stop offset="0.22" stop-color="#9ad7d7"/><stop offset="0.24" stop-color="#86d1d4"/><stop offset="0.26" stop-color="#7acdd3"/><stop offset="0.27" stop-color="#76ccd2"/><stop offset="0.33" stop-color="#7acdd2"/><stop offset="0.39" stop-color="#86d1d2"/><stop offset="0.45" stop-color="#9ad6d2"/><stop offset="0.5" stop-color="#addcd2"/><stop offset="0.52" stop-color="#b5dfd6"/><stop offset="0.57" stop-color="#cae8e2"/><stop offset="0.62" stop-color="#ecf7f4"/><stop offset="0.64" stop-color="#fff"/><stop offset="1" stop-color="#c8e5d2"/></linearGradient><clipPath id="clip-path-4"><rect class="cls-1" y="-740" width="1280" height="720"/></clipPath><clipPath id="clip-path-5"><rect class="cls-1" x="-160" y="-830" width="1600" height="900"/></clipPath><linearGradient id="linear-gradient-2" x1="694.65" y1="45.02" x2="691.93" y2="-376.34" gradientUnits="userSpaceOnUse"><stop offset="0.17" stop-color="#66d579"/><stop offset="0.94" stop-color="#8ace9a"/></linearGradient><linearGradient id="linear-gradient-3" x1="1103.34" y1="-158.98" x2="1698.01" y2="-506.72" gradientTransform="translate(0.01 88.28) rotate(-3.08)" gradientUnits="userSpaceOnUse"><stop offset="0.03" stop-color="#15492e"/><stop offset="0.18" stop-color="#1a4f33"/><stop offset="0.37" stop-color="#276040"/><stop offset="0.6" stop-color="#3c7c57"/><stop offset="0.68" stop-color="#468961"/></linearGradient><linearGradient id="linear-gradient-4" x1="1051.39" y1="-356.69" x2="1471.19" y2="-697.56" gradientTransform="matrix(1, -0.05, 0.05, 0.85, 10.77, 288.11)" xlink:href="#linear-gradient-3"/><clipPath id="clip-path-6"><rect class="cls-1" x="1300" y="-740" width="1280" height="720"/></clipPath><clipPath id="clip-path-7"><rect class="cls-1" x="1140" y="-830" width="1600" height="900"/></clipPath><linearGradient id="linear-gradient-5" x1="1899.07" y1="-1379.69" x2="1976.41" y2="665.43" xlink:href="#linear-gradient"/><clipPath id="clip-path-9"><rect class="cls-1" x="-1300" width="1280" height="720"/></clipPath><clipPath id="clip-path-10"><rect class="cls-1" x="-1460" y="-90" width="1600" height="900"/></clipPath><linearGradient id="linear-gradient-6" x1="-700.93" y1="-639.69" x2="-623.59" y2="1405.43" xlink:href="#linear-gradient"/><linearGradient id="linear-gradient-7" x1="-107.3" y1="427.75" x2="29.17" y2="101.46" gradientUnits="userSpaceOnUse"><stop offset="0.13" stop-color="#b8e1d8"/><stop offset="0.51" stop-color="#d0ebe5"/><stop offset="0.54" stop-color="#d2ece6"/></linearGradient><clipPath id="clip-path-12"><rect class="cls-1" width="1280" height="720"/></clipPath><clipPath id="clip-path-13"><rect class="cls-1" x="-160" y="-90" width="1600" height="900"/></clipPath><linearGradient id="linear-gradient-8" x1="621.4" y1="-619.56" x2="697.24" y2="1386.15" xlink:href="#linear-gradient"/><linearGradient id="linear-gradient-9" x1="50.77" y1="339.5" x2="50.77" y2="775.6" gradientUnits="userSpaceOnUse"><stop offset="0.06" stop-color="#a2d9d8"/><stop offset="0.14" stop-color="#92d4d5"/><stop offset="0.28" stop-color="#7dced2"/><stop offset="0.36" stop-color="#76ccd1"/><stop offset="0.44" stop-color="#79cdd1"/><stop offset="0.48" stop-color="#81cfd1"/><stop offset="0.51" stop-color="#90d3d1"/><stop offset="0.55" stop-color="#a4d9d1"/><stop offset="0.56" stop-color="#addcd1"/><stop offset="0.57" stop-color="#b5dfd5"/><stop offset="0.6" stop-color="#cae8e1"/><stop offset="0.63" stop-color="#ecf7f4"/><stop offset="0.64" stop-color="#fff"/><stop offset="1" stop-color="#c7e5d2"/></linearGradient><linearGradient id="linear-gradient-10" x1="1266.62" y1="-56.23" x2="1266.62" y2="745.89" gradientUnits="userSpaceOnUse"><stop offset="0.17" stop-color="#a2d9d8"/><stop offset="0.19" stop-color="#9ad7d7"/><stop offset="0.25" stop-color="#86d1d4"/><stop offset="0.3" stop-color="#7acdd2"/><stop offset="0.36" stop-color="#76ccd1"/><stop offset="0.44" stop-color="#79cdd1"/><stop offset="0.48" stop-color="#81cfd1"/><stop offset="0.51" stop-color="#90d3d1"/><stop offset="0.55" stop-color="#a4d9d1"/><stop offset="0.56" stop-color="#addcd1"/><stop offset="0.57" stop-color="#b5dfd5"/><stop offset="0.6" stop-color="#cae8e1"/><stop offset="0.63" stop-color="#ecf7f4"/><stop offset="0.64" stop-color="#fff"/><stop offset="1" stop-color="#c7e5d2"/></linearGradient><clipPath id="clip-path-15"><rect class="cls-1" x="1300" width="1280" height="720"/></clipPath><clipPath id="clip-path-16"><rect class="cls-1" x="1140" y="-89" width="1600" height="898"/></clipPath><linearGradient id="linear-gradient-11" x1="1952.54" y1="-522.23" x2="1952.54" y2="1248.53" gradientUnits="userSpaceOnUse"><stop offset="0.08" stop-color="#a2d9d8"/><stop offset="0.09" stop-color="#9ad7d7"/><stop offset="0.12" stop-color="#86d1d4"/><stop offset="0.15" stop-color="#7acdd3"/><stop offset="0.18" stop-color="#76ccd2"/><stop offset="0.29" stop-color="#79cdd2"/><stop offset="0.35" stop-color="#81d0d2"/><stop offset="0.41" stop-color="#90d5d2"/><stop offset="0.45" stop-color="#a4dcd2"/><stop offset="0.46" stop-color="#a7ddd2"/><stop offset="0.5" stop-color="#afdfd3"/><stop offset="0.55" stop-color="#c4e5d5"/><stop offset="0.57" stop-color="#cde7d6"/><stop offset="0.65" stop-color="#f2f9f4"/><stop offset="1" stop-color="#c8e5d2"/></linearGradient><clipPath id="clip-path-17"><rect class="cls-1" x="-1300" y="740" width="1280" height="720"/></clipPath><clipPath id="clip-path-18"><rect class="cls-1" x="-1620" y="650" width="1600" height="900"/></clipPath><clipPath id="clip-path-19"><rect class="cls-1" y="740" width="1280" height="720"/></clipPath><clipPath id="clip-path-20"><rect class="cls-1" x="-160" y="615.44" width="1600" height="900"/></clipPath><linearGradient id="linear-gradient-12" x1="640" y1="154.38" x2="640" y2="2115.86" gradientUnits="userSpaceOnUse"><stop offset="0.21" stop-color="#a2d9d8"/><stop offset="0.22" stop-color="#9ad7d7"/><stop offset="0.24" stop-color="#86d1d4"/><stop offset="0.26" stop-color="#7acdd2"/><stop offset="0.27" stop-color="#76ccd1"/><stop offset="0.38" stop-color="#79cdd1"/><stop offset="0.44" stop-color="#81cfd1"/><stop offset="0.49" stop-color="#90d3d1"/><stop offset="0.54" stop-color="#a4d9d1"/><stop offset="0.56" stop-color="#addcd1"/><stop offset="0.57" stop-color="#b5dfd5"/><stop offset="0.6" stop-color="#cae8e1"/><stop offset="0.63" stop-color="#ecf7f4"/><stop offset="0.64" stop-color="#fff"/><stop offset="1" stop-color="#c7e5d2"/></linearGradient><linearGradient id="linear-gradient-13" x1="1294.84" y1="656.71" x2="1217.47" y2="851.51" gradientUnits="userSpaceOnUse"><stop offset="0.16" stop-color="#a2d9d8"/><stop offset="0.52" stop-color="#83d0d3"/><stop offset="0.73" stop-color="#77ccd1"/></linearGradient><clipPath id="clip-path-21"><rect class="cls-1" y="1480" width="1280" height="720"/></clipPath><clipPath id="clip-path-22"><rect class="cls-1" x="-1463.97" y="506.31" width="3238.61" height="1821.72"/></clipPath><linearGradient id="linear-gradient-14" x1="158.72" y1="1695.29" x2="150.93" y2="488.25" gradientUnits="userSpaceOnUse"><stop offset="0.3" stop-color="#90e7de"/><stop offset="0.94" stop-color="#bee7ea"/></linearGradient><clipPath id="clip-path-23"><rect class="cls-1" x="1300" y="740" width="1280" height="720"/></clipPath><clipPath id="clip-path-24"><rect class="cls-1" x="1300" y="560" width="1600" height="900"/></clipPath><linearGradient id="linear-gradient-15" x1="1042.7" y1="941.8" x2="1756.92" y2="609.19" gradientUnits="userSpaceOnUse"><stop offset="0.13" stop-color="#005b38"/><stop offset="0.33" stop-color="#1f753a"/><stop offset="0.64" stop-color="#48983e"/><stop offset="0.79" stop-color="#58a53f"/><stop offset="0.89" stop-color="#59a641"/><stop offset="0.92" stop-color="#5ca948"/><stop offset="0.95" stop-color="#61ad53"/><stop offset="0.97" stop-color="#69b464"/><stop offset="0.99" stop-color="#73bd7a"/><stop offset="1" stop-color="#7ec793"/></linearGradient><linearGradient id="linear-gradient-16" x1="1104.23" y1="779.97" x2="1617.36" y2="779.97" gradientUnits="userSpaceOnUse"><stop offset="0" stop-color="#277948"/><stop offset="1" stop-color="#03654a"/></linearGradient></defs><g class="cls-2"><g class="cls-3"><g id="Slide_1" data-name="Slide 1"><g class="cls-4"><rect class="cls-5" x="-1497.89" y="-864.04" width="1668.71" height="945.92"/></g></g></g></g><g class="cls-6"><g class="cls-7"><path class="cls-8" d="M-213.14-128.3s300-23.86,555.56-127.39c366.42-148.43,677.73-180.47,1155.75-157.12L1615-211.1,1561.91,49.39-226.95,109.5Z"/><path class="cls-9" d="M-172.44-88.06s249.12,61.38,563.76-20.7c118.62-30.94,309.82-95,501.12-95,149,0,268.56,7.2,332.64,17.28,51.22,8.06,177.12,27,222.48,43.2l2.16,175H-174.6Z"/><path class="cls-10" d="M-172.44-63.5s170.35,55,533.52,5.22C559.8-85.52,708.84-16.76,1147.32,4.36,1199.11,6.85,1416.6-10.52,1454,7.72L1449.72,84-174.6,77.56Z"/><rect class="cls-11" x="1270.54" y="-47.51" width="35.99" height="145.56"/><path class="cls-12" d="M1176-42.27s-9.8-361.82,115.12-528.7c0,0,33-33.44,65,86.83s55.9,341.61,40.13,443.79C1384.28,37.28,1180.26,58.26,1176-42.27Z"/><rect class="cls-11" x="1153.44" y="-24.22" width="27.75" height="113.71"/><path class="cls-13" d="M1091.71-32.58s26.71-318.3,84.71-354c0,0,32.27-19.49,56.3,59.9s41.35,225.78,28.68,293.57C1251.78,18.42,1092.76,34.86,1091.71-32.58Z"/></g></g><g class="cls-14"><g class="cls-15"><g id="Slide_1-2" data-name="Slide 1"><g class="cls-4"><rect class="cls-16" x="1102.11" y="-864.04" width="1668.71" height="945.92"/></g></g></g></g><g class="cls-17"><g class="cls-18"><g id="Slide_1-3" data-name="Slide 1"><g class="cls-4"><rect class="cls-19" x="-1497.89" y="-124.04" width="1668.71" height="945.92"/><path class="cls-20" d="M95,346.68c-1.39-34.8-105.25-46.38-143.6-52.92C-167.26,273.51-272.92,339.12-237.39,369c8,6.74,23.93,5.5,37.11,7.8,24.47,4.27,137,3.61,194.5,0C5.67,376.08,95.72,364.68,95,346.68Z"/></g></g></g></g><g class="cls-21"><g class="cls-22"><g id="Slide_1-4" data-name="Slide 1"><g class="cls-4"><rect class="cls-23" x="-176.29" y="-113.24" width="1668.71" height="926.47"/></g></g><path class="cls-24" d="M-26.59,395.91S37.73,353.85,112.76,366c69.68,34.31,28.14,68.81-40.2,64.85-72.35-4-99.15-6.18-99.15-6.18S-72.88,417.05-26.59,395.91Z"/><path class="cls-25" d="M1156.82,104.09c2.88-7.47,74.28-40.44,146.73-27.75,75.2,19.19,106.39,57.12,33.94,61.45s-132.07-3.25-149.49-5.42S1147.65,127.83,1156.82,104.09Z"/></g><path class="cls-26" d="M902.49,444.05l29.67-.11s84.43-94.67,99.64-142.39c13.16-41.25,7.66-91.55-26.72-121.49-40.5-35.27-103.72-34.62-103.72-34.62Z"/><path class="cls-27" d="M901.36,145.44s51.62,2.34,82.06,31.95c32.19,31.32,31.55,52.1,30.7,81.38C1011.88,336.1,927.77,444,927.77,444l-25.28.1Z"/><path class="cls-28" d="M901.36,145.44s27.16,5.22,51.86,28.35c26.37,24.69,31.21,67.19,25.93,104.38-6.78,47.86-58,165.81-58,165.81l-18.68.07Z"/><polygon class="cls-29" points="933.97 444.05 917.2 466.25 921.1 485.01 918.67 485.05 914.93 466.29 931.09 444.1 933.97 444.05"/><path class="cls-26" d="M901.13,444.05H871.47s-84.8-94.35-100.19-142c-13.31-41.2-8-91.51,26.26-121.59,40.37-35.42,103.59-35,103.59-35Z"/><path class="cls-27" d="M901.13,145.44S849.52,148,819.2,177.7c-32.08,31.44-31.36,52.22-30.4,81.49,2.54,77.32,87.05,184.86,87.05,184.86h25.28Z"/><path class="cls-28" d="M901.13,145.44S874,150.76,849.38,174c-26.28,24.79-31,67.31-25.54,104.49,7,47.83,58.61,165.58,58.61,165.58h18.68Z"/><path class="cls-30" d="M928.82,177.56c-8.9-21.32-27.69-32.12-27.69-32.12h0s-18.73,10.9-27.52,32.26c-8.19,19.92-12.4,49.08-8.16,97.38s28.58,169,28.58,169l15.76,0s23.71-120.8,27.7-169.12S937.12,197.44,928.82,177.56Z"/><rect class="cls-29" x="869.71" y="442.06" width="64.26" height="1.99"/><path class="cls-29" d="M902.62,520.93h0c-5.76,0-11.24.32-14.64-3.8-2.64-3.2-3.9-10.26-3.9-14.74V484.76h37.08v17.63c0,5.24-.19,11.82-3.68,15.19C914.14,520.79,907.62,520.93,902.62,520.93Z"/><path class="cls-31" d="M917.38,484.76v29.36a3.93,3.93,0,0,1-3.94,3.93l-29.05-.34c.11-.25,0,.29,0,.29a3.8,3.8,0,0,0,3.64,2.93h29.21a3.94,3.94,0,0,0,3.93-3.94V484.76Z"/><path class="cls-31" d="M888,484.76v29.36a3.93,3.93,0,0,0,3.93,3.93l29.06-.48,0,.4a3.86,3.86,0,0,1-3.67,3h-29.2a3.94,3.94,0,0,1-3.94-3.94V484.76Z"/><polygon class="cls-29" points="869.71 444.05 886.82 465.99 884.08 484.76 886.5 484.76 889.1 465.99 872.6 444.05 869.71 444.05"/><polygon class="cls-29" points="886.82 465.99 917.2 466.25 917.92 469.69 886.28 469.69 886.82 465.99"/><path class="cls-32" d="M876.77,247c.55,2.85,1.24,5.79,3.06,8.05s5.06,3.64,7.7,2.45c3-1.35,3.91-5.08,4.31-8.33,2.93-23.3-1.24-48,8.13-69.56,2-4.67,4.71-9.86,2.73-14.55-3.11-7.34-11.06-5.1-14.29.05-4.64,7.4-7.42,16.9-9.63,25.27A127.69,127.69,0,0,0,876.77,247Z"/><path class="cls-32" d="M834,235.7c.19,2.91.88,6.32,3.53,7.55a5.67,5.67,0,0,0,6-1.29,12.74,12.74,0,0,0,3.16-5.63c4.6-14.5-.31-31.33,6.78-44.79,4.62-8.77,14.87-14.76,17.73-24.37-11.07-5.75-23.63,17.06-27.65,24.68A83,83,0,0,0,834,235.7Z"/><path class="cls-32" d="M799,220.21c-2.37,6-4.2,13.09-1.18,18.85a5.77,5.77,0,0,0,2.86,2.9c2.87,1.1,5.8-1.59,7.21-4.33,2.82-5.51,3-11.93,4-18a66.11,66.11,0,0,1,17.49-34.86c4-4.21,8.82-8.13,10.71-13.65.32-.93-6-.12-6.73.26-1.65.87-2.54,2.73-3.8,4-4.23,4.4-8.57,8.56-12.39,13.35A121.29,121.29,0,0,0,799,220.21Z"/><path class="cls-32" d="M775.91,226.34c-1.47,4.68-2.6,9.9-.56,14.35a4.32,4.32,0,0,0,2,2.26c2.41,1.09,4.77-1.7,5.68-4.18,2.35-6.38,2.32-13.36,3.71-20,2.95-14.22,12.15-26.23,21.09-37.68.52-.67-4.83.1-5.45.47-1.25.73-2.3,2.87-3.2,4a149.72,149.72,0,0,0-9.54,12.34A112,112,0,0,0,775.91,226.34Z"/><path class="cls-33" d="M1033.4,299.62c4.15-13,5.22-43,4.92-40.73-1.77,13.16-3.26,15.78-4.16,18.62a269.68,269.68,0,0,1-34.83,71.28,265.8,265.8,0,0,1-29,35.34c-12.58,12.86-26.43,24.41-39.11,37.16-5.67,5.69-11.5,13-10.46,20.77l13-.05S1018.19,347.34,1033.4,299.62Z"/><path class="cls-34" d="M904.32,442h6S934,321.2,938,272.89c.86-10.47,1.33-20,1.46-28.8-4.12,6.83-3.75,20-5,27.14-1.94,11.3-4,22.57-6.64,33.74-3.19,13.78-7.11,27.39-9.89,41.25-2.17,10.78-3.64,21.67-5.11,32.56Q908.59,410.4,904.32,442Z"/><path class="cls-35" d="M929.13,442s82.29-108.35,85.2-185.61c-1,.55-7.07,21.27-9.08,28.43-3,10.66-8.51,18.28-12.34,28.66-9.41,25.49-18,38.19-37.38,71-10.74,18.23-27.49,35.6-33,56a14.82,14.82,0,0,0-.34,1.56Z"/><path class="cls-36" d="M922,442s51.21-117.94,58-165.8c1.48-10.42,1.22-21.72.86-32.47-2.81,3.91-2.41,15.81-3.14,19.25q-4.6,21.78-10.61,43.24a694,694,0,0,1-29.88,85.07Q927.09,415,915.23,438a18.33,18.33,0,0,0-1.57,4.1Z"/><path class="cls-26" d="M395.33,444.05l29.67-.11s84.44-94.67,99.65-142.39c13.15-41.25,7.66-91.55-26.72-121.49-40.5-35.27-103.72-34.62-103.72-34.62Z"/><path class="cls-27" d="M394.21,145.44s51.62,2.34,82.05,31.95c32.2,31.32,31.56,52.1,30.71,81.38C504.72,336.1,420.62,444,420.62,444l-25.29.1Z"/><path class="cls-28" d="M394.21,145.44s27.15,5.22,51.85,28.35C472.44,198.48,477.27,241,472,278.17,465.21,326,414,444,414,444l-18.68.07Z"/><polygon class="cls-29" points="426.82 444.05 410.05 466.25 413.94 485.01 411.52 485.05 407.77 466.29 423.93 444.1 426.82 444.05"/><path class="cls-26" d="M394,444.05H364.31S279.52,349.7,264.12,302c-13.3-41.2-8-91.51,26.27-121.59,40.36-35.42,103.59-35,103.59-35Z"/><path class="cls-27" d="M394,145.44S342.37,148,312,177.7c-32.07,31.44-31.36,52.22-30.4,81.49,2.54,77.32,87.06,184.86,87.06,184.86H394Z"/><path class="cls-28" d="M394,145.44s-27.14,5.32-51.75,28.54c-26.28,24.79-31,67.31-25.54,104.49,7,47.83,58.61,165.58,58.61,165.58H394Z"/><path class="cls-30" d="M421.67,177.56c-8.9-21.32-27.69-32.12-27.69-32.12h0s-18.74,10.9-27.52,32.26c-8.2,19.92-12.4,49.08-8.16,97.38s28.57,169,28.57,169l15.77,0s23.71-120.8,27.69-169.12S430,197.44,421.67,177.56Z"/><rect class="cls-29" x="362.56" y="442.06" width="64.26" height="1.99"/><path class="cls-29" d="M395.47,520.93h0c-5.76,0-11.24.32-14.64-3.8-2.65-3.2-3.9-10.26-3.9-14.74V484.76H414v17.63c0,5.24-.18,11.82-3.68,15.19C407,520.79,400.46,520.93,395.47,520.93Z"/><path class="cls-31" d="M410.22,484.76v29.36a3.93,3.93,0,0,1-3.93,3.93l-29.06-.34c.11-.25,0,.29,0,.29a3.8,3.8,0,0,0,3.63,2.93h29.21A3.94,3.94,0,0,0,414,517V484.76Z"/><path class="cls-31" d="M380.86,484.76v29.36a3.93,3.93,0,0,0,3.93,3.93l29.06-.48,0,.4a3.86,3.86,0,0,1-3.66,3H381a3.94,3.94,0,0,1-3.93-3.94V484.76Z"/><polygon class="cls-29" points="362.56 444.05 379.67 465.99 376.93 484.76 379.35 484.76 381.94 465.99 365.45 444.05 362.56 444.05"/><polygon class="cls-29" points="379.67 465.99 410.05 466.25 410.76 469.69 379.13 469.69 379.67 465.99"/><path class="cls-32" d="M369.61,247c.55,2.85,1.25,5.79,3.06,8.05s5.06,3.64,7.71,2.45c3-1.35,3.9-5.08,4.31-8.33,2.92-23.3-1.24-48,8.13-69.56,2-4.67,4.71-9.86,2.73-14.55-3.11-7.34-11.06-5.1-14.29.05-4.64,7.4-7.43,16.9-9.64,25.27A128,128,0,0,0,369.61,247Z"/><path class="cls-32" d="M326.8,235.7c.19,2.91.87,6.32,3.52,7.55a5.66,5.66,0,0,0,6-1.29,12.74,12.74,0,0,0,3.16-5.63c4.6-14.5-.31-31.33,6.78-44.79,4.63-8.77,14.88-14.76,17.73-24.37-11.07-5.75-23.63,17.06-27.65,24.68A83,83,0,0,0,326.8,235.7Z"/><path class="cls-32" d="M291.83,220.21c-2.37,6-4.2,13.09-1.18,18.85a5.81,5.81,0,0,0,2.86,2.9c2.88,1.1,5.81-1.59,7.21-4.33,2.83-5.51,3-11.93,4-18a66.1,66.1,0,0,1,17.48-34.86c4-4.21,8.83-8.13,10.72-13.65.31-.93-6-.12-6.74.26-1.65.87-2.53,2.73-3.8,4-4.23,4.4-8.57,8.56-12.39,13.35A121.86,121.86,0,0,0,291.83,220.21Z"/><path class="cls-32" d="M268.76,226.34c-1.48,4.68-2.61,9.9-.57,14.35a4.36,4.36,0,0,0,2,2.26c2.42,1.09,4.77-1.7,5.69-4.18,2.35-6.38,2.32-13.36,3.7-20,3-14.22,12.16-26.23,21.09-37.68.53-.67-4.83.1-5.45.47-1.25.73-2.3,2.87-3.2,4a151.93,151.93,0,0,0-9.54,12.34A112,112,0,0,0,268.76,226.34Z"/><path class="cls-33" d="M526.25,299.62c4.14-13,5.22-43,4.91-40.73-1.76,13.16-3.25,15.78-4.15,18.62a270,270,0,0,1-34.84,71.28,265,265,0,0,1-29,35.34C450.55,397,436.71,408.54,424,421.29c-5.67,5.69-11.49,13-10.45,20.77l13-.05S511,347.34,526.25,299.62Z"/><path class="cls-34" d="M397.17,442h6s23.71-120.81,27.69-169.12c.87-10.47,1.34-20,1.46-28.8-4.12,6.83-3.75,20-5,27.14-1.94,11.3-4,22.57-6.63,33.74-3.2,13.78-7.12,27.39-9.9,41.25-2.16,10.78-3.63,21.67-5.1,32.56Q401.44,410.4,397.17,442Z"/><path class="cls-35" d="M422,442s82.28-108.35,85.2-185.61c-1,.55-7.08,21.27-9.08,28.43-3,10.66-8.52,18.28-12.35,28.66-9.4,25.49-18.05,38.19-37.37,71-10.74,18.23-27.49,35.6-33.06,56a14.83,14.83,0,0,0-.33,1.56Z"/><path class="cls-36" d="M414.81,442s51.2-117.94,58-165.8c1.47-10.42,1.21-21.72.85-32.47-2.81,3.91-2.41,15.81-3.13,19.25q-4.62,21.78-10.62,43.24A695.61,695.61,0,0,1,430,391.31Q419.92,415,408.07,438a18.81,18.81,0,0,0-1.56,4.1Z"/><path class="cls-26" d="M648.5,547.5l20.62-.08s58.68-65.79,69.26-99c9.13-28.66,5.32-63.62-18.58-84.43C691.66,339.52,647.72,340,647.72,340Z"/><path class="cls-27" d="M647.72,340s35.87,1.63,57,22.2c22.37,21.77,21.93,36.21,21.34,56.56-1.56,53.74-60,128.7-60,128.7l-17.57.07Z"/><path class="cls-28" d="M647.72,340a80.84,80.84,0,0,1,36,19.7c18.33,17.16,21.69,46.7,18,72.55-4.71,33.26-40.3,115.23-40.3,115.23l-13,0Z"/><polygon class="cls-29" points="670.38 547.5 658.73 562.93 661.43 575.97 659.75 576 657.15 562.96 668.38 547.53 670.38 547.5"/><path class="cls-26" d="M647.56,547.5H626.94S568,481.93,557.31,448.8c-9.24-28.63-5.56-63.6,18.26-84.5,28-24.62,72-24.33,72-24.33Z"/><path class="cls-27" d="M647.56,340s-35.87,1.76-56.94,22.42c-22.3,21.85-21.8,36.29-21.13,56.64C571.25,472.76,630,547.5,630,547.5h17.57Z"/><path class="cls-28" d="M647.56,340a80.82,80.82,0,0,0-36,19.84c-18.26,17.23-21.51,46.78-17.75,72.61,4.84,33.24,40.74,115.08,40.74,115.08h13Z"/><path class="cls-30" d="M666.8,362.29C660.62,347.48,647.56,340,647.56,340h0s-13,7.57-19.13,22.42c-5.69,13.84-8.61,34.11-5.67,67.68S642.62,547.5,642.62,547.5l11,0s16.48-84,19.25-117.53S672.57,376.11,666.8,362.29Z"/><rect class="cls-29" x="625.72" y="546.11" width="44.66" height="1.39"/><path class="cls-29" d="M648.6,600.93h0c-4,0-7.82.22-10.18-2.64-1.84-2.23-2.71-7.13-2.71-10.25V575.79h25.77V588c0,3.65-.13,8.22-2.56,10.56S652.07,600.93,648.6,600.93Z"/><path class="cls-31" d="M658.85,575.79V596.2a2.73,2.73,0,0,1-2.73,2.73l-20.2-.24c.08-.17,0,.21,0,.21a2.64,2.64,0,0,0,2.53,2h20.29a2.74,2.74,0,0,0,2.74-2.74v-22.4Z"/><path class="cls-31" d="M638.44,575.79V596.2a2.74,2.74,0,0,0,2.74,2.73l20.19-.33,0,.28a2.7,2.7,0,0,1-2.55,2h-20.3a2.74,2.74,0,0,1-2.74-2.74v-22.4Z"/><polygon class="cls-29" points="625.72 547.5 637.62 562.75 635.71 575.79 637.39 575.79 639.2 562.75 627.73 547.5 625.72 547.5"/><polygon class="cls-29" points="637.62 562.75 658.73 562.93 659.23 565.32 637.24 565.32 637.62 562.75"/><path class="cls-32" d="M630.63,410.53a12.57,12.57,0,0,0,2.12,5.6c1.27,1.57,3.52,2.53,5.36,1.7,2.07-.94,2.71-3.53,3-5.79,2-16.19-.86-33.38,5.65-48.34,1.41-3.25,3.28-6.86,1.9-10.11-2.16-5.11-7.68-3.55-9.93,0-3.22,5.15-5.16,11.74-6.7,17.56A88.79,88.79,0,0,0,630.63,410.53Z"/><path class="cls-32" d="M600.87,402.7c.13,2,.61,4.39,2.45,5.25a3.93,3.93,0,0,0,4.18-.9,8.77,8.77,0,0,0,2.2-3.92c3.2-10.07-.22-21.77,4.71-31.12,3.22-6.1,10.34-10.26,12.33-16.94-7.7-4-16.43,11.86-19.22,17.15A57.6,57.6,0,0,0,600.87,402.7Z"/><path class="cls-32" d="M576.57,391.93c-1.65,4.21-2.92,9.1-.82,13.11a4.06,4.06,0,0,0,2,2c2,.77,4-1.11,5-3,2-3.83,2.1-8.29,2.8-12.54a45.91,45.91,0,0,1,12.15-24.23c2.81-2.92,6.13-5.64,7.44-9.48.22-.65-4.19-.08-4.68.18-1.14.61-1.76,1.9-2.64,2.81-2.94,3.07-6,6-8.61,9.28A84.65,84.65,0,0,0,576.57,391.93Z"/><path class="cls-32" d="M560.53,396.2c-1,3.25-1.81,6.87-.39,10a3.09,3.09,0,0,0,1.36,1.57c1.68.76,3.32-1.18,4-2.91,1.64-4.43,1.62-9.28,2.58-13.91,2.05-9.88,8.45-18.23,14.66-26.19.36-.47-3.36.07-3.79.33-.87.51-1.6,2-2.22,2.75a104.2,104.2,0,0,0-6.64,8.57A77.85,77.85,0,0,0,560.53,396.2Z"/><path class="cls-33" d="M739.49,447.12c2.88-9,3.63-29.89,3.41-28.3-1.22,9.14-2.26,11-2.89,12.94A187.37,187.37,0,0,1,715.8,481.3a184.67,184.67,0,0,1-20.18,24.56c-8.74,8.93-18.36,17-27.18,25.82-3.94,4-8,9.06-7.27,14.43l9.06,0S728.91,480.29,739.49,447.12Z"/><path class="cls-34" d="M649.78,546.09h4.16s16.48-84,19.25-117.53c.6-7.28.93-13.92,1-20-2.86,4.75-2.6,13.87-3.46,18.86-1.35,7.85-2.81,15.69-4.61,23.45-2.22,9.58-4.94,19-6.88,28.67-1.5,7.49-2.52,15.06-3.54,22.63Q652.74,524.12,649.78,546.09Z"/><path class="cls-35" d="M667,546.1s57.19-75.31,59.21-129c-.7.38-4.91,14.78-6.31,19.76-2.08,7.41-5.91,12.7-8.58,19.92-6.53,17.71-12.54,26.54-26,49.33-7.47,12.66-19.11,24.74-23,38.93-.09.34-.17.71-.23,1.07Z"/><path class="cls-36" d="M662,546.09s35.58-82,40.3-115.23c1-7.24.84-15.1.59-22.56-1.95,2.71-1.67,11-2.18,13.37q-3.19,15.13-7.37,30.05a481.32,481.32,0,0,1-20.77,59.13q-7,16.49-15.25,32.42a12.57,12.57,0,0,0-1.09,2.84Z"/></g><g class="cls-37"><g class="cls-38"><g id="BG"><rect class="cls-39" x="1092" y="-106" width="1721.08" height="693"/><polygon class="cls-40" points="1132 541 2775 541 2758 706 1125 686.18 1132 541"/><path class="cls-41" d="M1125,650s930,6.84,1121,35.16,530.94,2.93,551,10.74-46,153.32-46,153.32l-1626,9.19V650Z"/><path class="cls-42" d="M1121,706s930,5.32,1121,27.37,530.94,2.28,551,8.36-46,119.37-46,119.37l-1626,7.15V706Z"/><path class="cls-43" d="M1706,577.33H926l35.22-106.51s92.18-.18,145,31.93,105.65,22.79,124.29,4.14,43.87-29.67,68.55-36.07,60.83,1.48,103.39,23.65c49.72,25.89,58,33.14,101.51,35.21S1706,577.33,1706,577.33Z"/><path class="cls-44" d="M1622.05,573.26H926l31.43-66.14S1039.7,507,1086.84,527s94.29,14.15,110.92,2.57,39.15-18.43,61.17-22.4,54.3.91,92.28,14.68c44.37,16.08,51.76,20.58,90.59,21.87S1622.05,573.26,1622.05,573.26Z"/><path class="cls-45" d="M1706,580.44H926l35.22,22.33s92.18,0,145-6.69,105.65-4.78,124.29-.87,43.87,6.22,68.55,7.56,60.83-.31,103.39-5c49.72-5.43,58-6.95,101.51-7.38S1706,580.44,1706,580.44Z"/><path class="cls-46" d="M1114.29,615s749.47,1.85,822.49,4,818.83,17.58,838.22,16.35V642s-790.28-16.51-807.55-16.51c-13.11,0-836-5.55-853.16-6.48S1114.29,615,1114.29,615Z"/><path class="cls-47" d="M3014.34,678.6s-343.61-8.52-646.23-13.13C2143,662,1939,647.94,1896.86,647.9c-99.3-.1-824.86-7.9-824.86-7.9s759.44,15.2,782.89,16c17.81.58,1135.92,29,1159.25,28.47S3014.34,678.6,3014.34,678.6Z"/><path class="cls-48" d="M1078.14,660.27s296.22-.89,649.75,13.43c87.57,3.55,216.63,1.74,253.87,7.22,11.18,1.64-893.9-11-892.8-7.67,3.57,10.7,922.76,11.63,931.15,12,28.15,1.42,52.5,4.53,74,5.57,43.92,2.12,74.28,3.34,92.11,3.17,116.34-1.08,717.68,3.55,712-5.12,0,0-434.77-3.25-462.23-4.28-20.85-.78-1330.17-35.75-1357.52-34.44S1078.14,660.27,1078.14,660.27Z"/></g></g></g><g class="cls-49"><path class="cls-51" d="M-220.56,829.26l-7-.3-25.11-1.06-24.11-1-56.49-2.4-24.34-1-29.5-1.26-3-.12s-278.07-312.79-256-469.19c11.93-84.32,52.15-128.16,86.68-150.71l.11-.08c29.5-19.17,54.8-22.83,54.8-22.83a174.68,174.68,0,0,1,25.65-13.65h0c36.38-15.64,67.44-13.6,83.51-10.72a77.87,77.87,0,0,1,11.74,2.85c88.23-39,143.74-3.76,153.35,3.17,1,.73,1.5,1.14,1.5,1.14,39.87-13.5,75.65-6.67,98.38,1.24,16,5.57,25.49,11.67,25.49,11.67,24.13,9,44.32,19.81,61.13,32.11l0,0s.09.06.11.1C184.1,375.16-220.56,829.26-220.56,829.26Z"/><path class="cls-52" d="M-227.6,829l-25.11-1.06C-6.85,427.28-77.5,197.93-125.14,165.24l81.39,41.85,0,0S-85.06,183.82-85,183.86C151.82,350-160,747.29-227.6,829Z"/></g><g class="cls-53"><g class="cls-54"><g id="Slide_12-2" data-name="Slide 12"><rect class="cls-55" x="-160" y="615.44" width="1600" height="767.64"/><path class="cls-56" d="M1148.92,748.23s59.71-62,150.24-44.32,76.52,69.52,32.66,72.67-129.71,3.74-148.37,0S1142.39,773.83,1148.92,748.23Z"/></g></g><path class="cls-51" d="M911,811.14l6.19-.26,22.08-.93,21.19-.9,49.66-2.11,21.39-.89,25.93-1.11,2.63-.1s244.43-275,225-412.43c-10.49-74.11-45.84-112.65-76.19-132.47l-.1-.07c-25.93-16.85-48.17-20.07-48.17-20.07a153.32,153.32,0,0,0-22.55-12h0c-32-13.74-59.28-12-73.4-9.42a69,69,0,0,0-10.32,2.5c-77.55-34.3-126.35-3.3-134.79,2.79-.89.64-1.33,1-1.33,1-35-11.86-66.49-5.86-86.48,1.09A115.89,115.89,0,0,0,809.29,236c-21.21,7.89-38.95,17.42-53.73,28.23h0s-.08.06-.09.09C555.27,412,911,811.14,911,811.14Z"/><path class="cls-52" d="M904.49,402.51c0,158.9,26.41,339.15,55.94,406.54l49.66-2.11c24.22-55.65,43.26-184.14,57.66-332.75,11.66-120.5,8-201.56-3.14-255.81a69,69,0,0,0-10.32,2.5c-77.55-34.3-126.35-3.3-134.79,2.79C910.29,268.75,904.49,328,904.49,402.51Z"/><path class="cls-52" d="M917.16,810.88l22.08-.93c-216.12-352.16-154-553.75-112.14-582.5l-71.54,36.8h0s36.33-20.47,36.31-20.44C583.65,389.89,857.74,739.08,917.16,810.88Z"/><path class="cls-52" d="M1031.48,806.05l25.93-1.11c67.73-83.1,309.5-402.33,151.44-545l-.1-.07c-25.93-16.85-48.17-20.07-48.17-20.07-7.69-4.93,3.19.57-4.12-2.55C1182.28,284.72,1237.33,464.63,1031.48,806.05Z"/></g><g class="cls-57"><g class="cls-58"><rect class="cls-59" x="-1463.97" y="506.31" width="3239.51" height="1468.15"/></g></g><g class="cls-60"><g class="cls-61"><g id="Slide_12-3" data-name="Slide 12"><path class="cls-62" d="M1142.7,886.25c.76-2.27-67.62-55.22-25.14-126.57,0,0,44.17-119.78,220.86-81.55,0,0,180.94,27.18,269.28,153.75,0,0,16.55,16.94,4.3,26.13s-73.5,24.5-73.5,24.5l-177.61,3.06Z"/><path class="cls-63" d="M1143.42,887.79c.75-2.27-67.62-55.22-25.15-126.57,0,0,44.17-119.78,220.86-81.55,0,0,180.94,27.18,269.29,153.75,0,0,16.54,16.94,4.29,26.13s-73.49,24.5-73.49,24.5l-177.62,3.06Z"/></g></g></g></svg>