<svg xmlns="http://www.w3.org/2000/svg" xmlns:xlink="http://www.w3.org/1999/xlink" viewBox="0 0 1280 720"><defs><style>.cls-1,.cls-41,.cls-42,.cls-62,.cls-76,.cls-77{fill:none;}.cls-2{isolation:isolate;}.cls-3{clip-path:url(#clip-path);}.cls-4{clip-path:url(#clip-path-2);}.cls-5{clip-path:url(#clip-path-3);}.cls-6{fill:url(#linear-gradient);}.cls-7{fill:url(#linear-gradient-2);}.cls-8{fill:url(#linear-gradient-3);}.cls-9{fill:url(#linear-gradient-4);}.cls-10{fill:url(#linear-gradient-5);}.cls-11{fill:url(#linear-gradient-6);}.cls-12{fill:url(#linear-gradient-7);}.cls-13{fill:#4a2a15;}.cls-14{fill:#342516;}.cls-15,.cls-17,.cls-19,.cls-51,.cls-58{fill:#fad2c6;}.cls-15,.cls-17,.cls-42{stroke:#5f4a43;}.cls-15,.cls-17,.cls-19,.cls-20,.cls-22,.cls-28,.cls-35,.cls-37,.cls-38,.cls-41,.cls-42,.cls-51,.cls-54,.cls-55,.cls-62,.cls-76,.cls-77{stroke-miterlimit:10;}.cls-15,.cls-19,.cls-20{stroke-width:0.75px;}.cls-16{fill:#e7b4a7;}.cls-18{fill:#d6a398;}.cls-19,.cls-20,.cls-22,.cls-35,.cls-37,.cls-38,.cls-41,.cls-51{stroke:#323232;}.cls-20{fill:#fac7b3;}.cls-21{fill:#424036;}.cls-22{fill:#f6fbfd;}.cls-22,.cls-54{stroke-width:0.5px;}.cls-23{fill:#602220;}.cls-24{fill:#451f16;}.cls-25,.cls-54{fill:#fff;}.cls-26{fill:#561211;}.cls-27{fill:#d26653;}.cls-28{fill:#311415;stroke:#211e1f;}.cls-29{fill:#90856e;}.cls-30{fill:#605e44;}.cls-31,.cls-34{fill:#9e9580;opacity:0.5;}.cls-31,.cls-33{mix-blend-mode:multiply;}.cls-32,.cls-33{fill:#676254;}.cls-33{opacity:0.4;}.cls-34{mix-blend-mode:screen;}.cls-35{fill:#facc35;}.cls-36{fill:#be9030;}.cls-37{fill:#fcde7d;}.cls-38{fill:#e0604f;}.cls-39{fill:#f5927d;}.cls-40{fill:#c28974;}.cls-43{fill:#fab51b;}.cls-44{fill:#f17125;}.cls-45{fill:#80351b;}.cls-46{fill:#75451c;}.cls-47{fill:#a66638;}.cls-48{fill:#925b24;}.cls-49{fill:#e69847;}.cls-50{fill:#5f2710;}.cls-51{stroke-width:0.25px;}.cls-52,.cls-55{fill:#3d2d16;}.cls-53{fill:#dc9e8f;}.cls-54,.cls-55{stroke:#3d2d16;}.cls-56{fill:#fff7f4;}.cls-57{fill:#411e16;}.cls-59{fill:#632323;}.cls-60{fill:#323232;}.cls-61{fill:#e8d860;}.cls-62{stroke:#ef4b3b;}.cls-62,.cls-76,.cls-77{stroke-width:2px;}.cls-63{fill:#ef4b3b;}.cls-64{fill:#f49990;}.cls-65{fill:#e13e26;}.cls-66{fill:#fddf0e;}.cls-67{fill:#281b17;}.cls-68{fill:#473a3a;}.cls-69{fill:#5e5454;}.cls-70{clip-path:url(#clip-path-4);}.cls-71{clip-path:url(#clip-path-5);}.cls-72{fill:url(#linear-gradient-8);}.cls-73{fill:url(#linear-gradient-9);}.cls-74{fill:url(#linear-gradient-10);}.cls-75{fill:#a8774a;}.cls-76{stroke:#3e484c;}.cls-77{stroke:#2a383f;}.cls-78{fill:url(#linear-gradient-11);}.cls-79{fill:url(#linear-gradient-12);}.cls-80{fill:#532016;}.cls-81{fill:url(#linear-gradient-13);}.cls-82{fill:#539b56;}.cls-83{fill:#104c16;}.cls-84{fill:url(#linear-gradient-14);}.cls-85{fill:#158240;}.cls-86{clip-path:url(#clip-path-6);}.cls-87{clip-path:url(#clip-path-7);}.cls-88{fill:url(#linear-gradient-15);}.cls-89{clip-path:url(#clip-path-9);}.cls-90{clip-path:url(#clip-path-10);}.cls-91{fill:url(#linear-gradient-16);}</style><clipPath id="clip-path"><rect class="cls-1" width="1280" height="720"/></clipPath><clipPath id="clip-path-2"><rect class="cls-1" x="-160" y="-90" width="1600" height="900"/></clipPath><clipPath id="clip-path-3"/><linearGradient id="linear-gradient" x1="599.07" y1="-639.69" x2="676.41" y2="1405.43" gradientUnits="userSpaceOnUse"><stop offset="0.21" stop-color="#a2d9d8"/><stop offset="0.22" stop-color="#9ad7d7"/><stop offset="0.24" stop-color="#86d1d4"/><stop offset="0.26" stop-color="#7acdd3"/><stop offset="0.27" stop-color="#76ccd2"/><stop offset="0.33" stop-color="#7acdd2"/><stop offset="0.39" stop-color="#86d1d2"/><stop offset="0.45" stop-color="#9ad6d2"/><stop offset="0.5" stop-color="#addcd2"/><stop offset="0.52" stop-color="#b5dfd6"/><stop offset="0.57" stop-color="#cae8e2"/><stop offset="0.62" stop-color="#ecf7f4"/><stop offset="0.64" stop-color="#fff"/><stop offset="1" stop-color="#c8e5d2"/></linearGradient><linearGradient id="linear-gradient-2" x1="61.58" y1="233.65" x2="182.25" y2="-54.86" gradientUnits="userSpaceOnUse"><stop offset="0.06" stop-color="#7dced2"/><stop offset="0.22" stop-color="#8cd2d2"/><stop offset="0.48" stop-color="#addcd2"/><stop offset="0.96" stop-color="#afddd3"/></linearGradient><linearGradient id="linear-gradient-3" x1="1061.66" y1="747.73" x2="1182.33" y2="459.22" gradientUnits="userSpaceOnUse"><stop offset="0.06" stop-color="#f8fcf9"/><stop offset="0.18" stop-color="#e9f6f3"/><stop offset="0.41" stop-color="#c2e6e2"/><stop offset="0.59" stop-color="#9dd7d2"/></linearGradient><linearGradient id="linear-gradient-4" x1="1192.7" y1="427.75" x2="1329.17" y2="101.46" gradientUnits="userSpaceOnUse"><stop offset="0.13" stop-color="#b8e1d8"/><stop offset="0.51" stop-color="#d0ebe5"/><stop offset="0.54" stop-color="#d2ece6"/></linearGradient><linearGradient id="linear-gradient-5" x1="150.03" y1="568.9" x2="274.92" y2="270.31" gradientUnits="userSpaceOnUse"><stop offset="0" stop-color="#c5e6df"/><stop offset="0.54" stop-color="#d2ece6"/></linearGradient><linearGradient id="linear-gradient-6" x1="1110.39" y1="24.21" x2="856.39" y2="379.02" gradientUnits="userSpaceOnUse"><stop offset="0.17" stop-color="#a2d9d8"/><stop offset="0.19" stop-color="#9ad7d7"/><stop offset="0.27" stop-color="#86d1d4"/><stop offset="0.35" stop-color="#7acdd2"/><stop offset="0.44" stop-color="#76ccd1"/></linearGradient><linearGradient id="linear-gradient-7" x1="129.75" y1="434.61" x2="-124.25" y2="789.42" gradientUnits="userSpaceOnUse"><stop offset="0.08" stop-color="#b3dfd5"/><stop offset="0.49" stop-color="#b0ddd4"/></linearGradient><clipPath id="clip-path-4"><rect class="cls-1" x="1300" width="1280" height="720"/></clipPath><clipPath id="clip-path-5"><rect class="cls-1" x="1140" y="-90" width="1600" height="900"/></clipPath><linearGradient id="linear-gradient-8" x1="1941.43" y1="530.63" x2="1937.21" y2="-123.75" gradientUnits="userSpaceOnUse"><stop offset="0.11" stop-color="#bdedf4"/><stop offset="0.29" stop-color="#b5e9f2"/><stop offset="0.58" stop-color="#9edeeb"/><stop offset="0.9" stop-color="#7ecfe2"/></linearGradient><linearGradient id="linear-gradient-9" x1="1411.63" y1="911.19" x2="1411.63" y2="178.69" gradientUnits="userSpaceOnUse"><stop offset="0.46" stop-color="#bdedf2"/><stop offset="0.5" stop-color="#b3ebf1"/><stop offset="0.64" stop-color="#97e4ed"/><stop offset="0.73" stop-color="#8de1eb"/></linearGradient><linearGradient id="linear-gradient-10" x1="1994.65" y1="785.02" x2="1991.93" y2="363.66" gradientUnits="userSpaceOnUse"><stop offset="0.17" stop-color="#66d579"/><stop offset="0.94" stop-color="#8ace9a"/></linearGradient><linearGradient id="linear-gradient-11" x1="1279.1" y1="275.65" x2="1354.69" y2="173.63" gradientUnits="userSpaceOnUse"><stop offset="0.31" stop-color="#bdedf4"/><stop offset="0.51" stop-color="#c7f5f9"/><stop offset="0.8" stop-color="#d2feff"/></linearGradient><linearGradient id="linear-gradient-12" x1="1311.57" y1="619.74" x2="1374.06" y2="265.56" gradientTransform="translate(-37.93 159.3) rotate(-3.08)" gradientUnits="userSpaceOnUse"><stop offset="0.23" stop-color="#0a5731"/><stop offset="0.34" stop-color="#186e43"/><stop offset="0.92" stop-color="#62e69d"/></linearGradient><linearGradient id="linear-gradient-13" x1="1225.76" y1="344.94" x2="1284.99" y2="9.24" gradientTransform="matrix(1, -0.05, 0.05, 0.85, -21.08, 471.98)" gradientUnits="userSpaceOnUse"><stop offset="0.04" stop-color="#0a5731"/><stop offset="0.21" stop-color="#1f784a"/><stop offset="0.54" stop-color="#43b377"/><stop offset="0.79" stop-color="#59d892"/><stop offset="0.92" stop-color="#62e69d"/></linearGradient><linearGradient id="linear-gradient-14" x1="3468.16" y1="748.3" x2="3588.53" y2="748.3" gradientTransform="matrix(-1, 0, 0, 1, 4728.53, 0)" gradientUnits="userSpaceOnUse"><stop offset="0" stop-color="#174124"/><stop offset="0" stop-color="#1c251b"/><stop offset="0" stop-color="#1b331d"/><stop offset="0.18" stop-color="#1b361e"/><stop offset="0.86" stop-color="#1a3b20"/></linearGradient><clipPath id="clip-path-6"><rect class="cls-1" y="740" width="1280" height="720"/></clipPath><clipPath id="clip-path-7"><rect class="cls-1" x="-160" y="650" width="1600" height="900"/></clipPath><linearGradient id="linear-gradient-15" x1="599.07" y1="100.31" x2="676.41" y2="2145.43" xlink:href="#linear-gradient"/><clipPath id="clip-path-9"><rect class="cls-1" x="1300" y="740" width="1280" height="720"/></clipPath><clipPath id="clip-path-10"><rect class="cls-1" x="1140" y="650" width="1600" height="900"/></clipPath><linearGradient id="linear-gradient-16" x1="1921.4" y1="120.44" x2="1997.24" y2="2126.15" xlink:href="#linear-gradient"/></defs><g class="cls-2"><g id="Layer_1" data-name="Layer 1"><g class="cls-3"><g class="cls-4"><g id="Slide_1" data-name="Slide 1"><g class="cls-5"><rect class="cls-6" x="-197.89" y="-124.04" width="1668.71" height="945.92"/><path class="cls-7" d="M231.48,162.36c-1.16-34.8-87.62-46.38-119.54-52.92C13.17,89.19-74.78,154.8-45.2,184.67c6.67,6.74,19.92,5.5,30.89,7.8,20.37,4.27,114,3.61,161.9,0C157.12,191.76,232.08,180.36,231.48,162.36Z"/><path class="cls-8" d="M1231.56,676.44c-1.16-34.8-87.62-46.38-119.54-52.92-98.77-20.25-186.72,45.36-157.14,75.23,6.67,6.74,19.92,5.5,30.89,7.8,20.37,4.27,114,3.61,161.9,0C1157.2,705.84,1232.16,694.44,1231.56,676.44Z"/><path class="cls-9" d="M1395,346.68c-1.39-34.8-105.25-46.38-143.6-52.92-118.66-20.25-224.32,45.36-188.79,75.23,8,6.74,23.93,5.5,37.11,7.8,24.47,4.27,137,3.61,194.5,0C1305.67,376.08,1395.72,364.68,1395,346.68Z"/><path class="cls-10" d="M335.16,494.72c-1.28-31.85-96.32-42.44-131.42-48.43C95.15,427.75-1.53,487.8,31,515.13c7.34,6.17,21.9,5,34,7.14,22.39,3.91,125.38,3.3,178,0C253.41,521.62,335.81,511.19,335.16,494.72Z"/></g></g><path class="cls-11" d="M938.66,99.77c2.88-7.47,74.28-40.44,146.73-27.75,75.2,19.19,106.39,57.12,33.94,61.45s-132.07-3.25-149.49-5.42S929.49,123.51,938.66,99.77Z"/><path class="cls-12" d="M-42,510.17c2.88-7.47,74.28-40.44,146.73-27.75,75.2,19.19,106.39,57.12,33.94,61.45S6.62,540.62-10.8,538.45-51.15,533.91-42,510.17Z"/></g><polygon class="cls-13" points="737.86 137.48 760.21 384.18 764.09 384.15 741.66 137.48 737.86 137.48"/><polygon class="cls-13" points="546.34 137.24 523.19 384.18 519.31 384.15 542.54 137.24 546.34 137.24"/><path class="cls-14" d="M662.3,236.64c-.33,1.42-13.13,15.28-7,34.88s-8,33.71,11.65,39.7a66.74,66.74,0,0,0,37,.16h8.89s28.85-.42,37.54-12.75-1.41-21.05-2.46-46.34-54.28-60.58-88.66-16.46Z"/><path class="cls-15" d="M685.38,342.8c-.06.46-.12.95-.2,1.46-.31,2.16-.76,4.76-1.3,7.58-2.38,12.54-6.5,29.53-8.26,32-2.25,3.14-9.44,1.45-9.44,1.45-2.63-15.4.71-28.61,3.94-35.24,1.48-3,1-6.17,1.28-8.12s.51-2.88.51-2.88S686.79,331.84,685.38,342.8Z"/><path class="cls-16" d="M685.18,344.26c-.31,2.16-1.19,4.77-1.72,7.59h.13a44.34,44.34,0,0,1-5.65-.1,43.27,43.27,0,0,1-7.46-1.51c.49-3.34.59-6.37.92-8.32a38.06,38.06,0,0,1,5.65,0,18.52,18.52,0,0,1,5.39.92A13.52,13.52,0,0,1,685.18,344.26Z"/><path class="cls-17" d="M615.78,383.3l-2.14-10.7,8.45-24.8-3.8-1.88-10-5,6-16c1-.15,5.27,1.57,10.19,4.4,7.66,4.42,15.26,10.21,15,17.19C638.9,360.44,615.78,383.3,615.78,383.3Z"/><path class="cls-18" d="M624.21,329.69a105.67,105.67,0,0,1-5.92,15.7l-10-5,6-16C615.28,324.31,619.29,326.86,624.21,329.69Z"/><path class="cls-19" d="M597.66,319.67s-4.45,4.35-5.13,3.91-24.71-4.17-21.59-7.84a9,9,0,0,0,.75-1,6.68,6.68,0,0,0,.84-6.34s22.71-4.34,21.09,0a8.27,8.27,0,0,0,.27,6.59,7,7,0,0,0,.59,1Z"/><path class="cls-16" d="M593.61,315.1c-2.31,1.66-6.6,2.25-10.05,2.21A28.82,28.82,0,0,1,572,314.74a6.68,6.68,0,0,0,.84-6.34s22-4.23,20.39.12A8.23,8.23,0,0,0,593.61,315.1Z"/><path class="cls-20" d="M533.6,279.17c1.92,5.64,6.29,9,9,8.23s2.57-5.47,1.19-10.93-4.74-9.31-7.5-8.55C532.57,269,531.8,273.86,533.6,279.17Z"/><path class="cls-21" d="M578.93,224.18a127.91,127.91,0,0,0-33.1,3.79s-3.08.7-8.51,4c-5.74,3.48-25.59,17.88-27.14,22.58-.07.24-.13-.22,0,0,1.85,2.92,26.65,6,51.82,7.65,8.84.58,19.55-3.88,30-3.07,7.17.55,14,.9,20.28,1.05,29.6.69,47.41-7.35,47.75-8.84.5-2.25-16.44-9.52-27.53-16.42-11.4-7.1-28.54-8.93-48.15-10.46C582.61,224.31,580.77,224.21,578.93,224.18Z"/><path class="cls-19" d="M636.52,276.8c-1.42,5.79-5.8,9.47-8.92,8.95s-3.47-5.26-2.63-10.84,4.06-9.68,7.18-9.14C636.41,266.51,637.86,271.36,636.52,276.8Z"/><path class="cls-19" d="M626.67,282.71c-1.24,21.35-31.58,31.67-40,31.87-12.35.27-45.77-10.79-44.33-44.13,0-.35,0-.7,0-1v0c.41-15.86-5.35-30.3-3.82-36.45,5.27-21.26,9.1-13,34.26-15.36,23.52-2.23,33.55-2.3,48,9.8,1.28,1.06,5.54,2.28,5.6,6.1.12,6.5.27,11.37.41,15.28C627.33,262.24,627.73,264.34,626.67,282.71Z"/><path class="cls-16" d="M626.85,248.76a54.79,54.79,0,0,0-26.69-12.49,50.47,50.47,0,0,1-38.74,8.3,63.06,63.06,0,0,0,10.14-8.73,20.07,20.07,0,0,1-9.21,2.33c-3.07,5.92-6.29,12-11.56,16.14-1.8,1.4-3.85,2.58-5.15,4.46a13.11,13.11,0,0,0-1.56,3.4c-.48,1.42-.89,2.85-1.25,4.31-.21.86-.28,1.92-.46,2.91.41-15.86-5.35-30.3-3.82-36.45,5.27-21.26,9.1-13,34.26-15.36,23.52-2.23,33.55-2.3,48,9.8,1.28,1.06,5.54,2.28,5.6,6.1C626.56,240,626.71,244.85,626.85,248.76Z"/><path class="cls-22" d="M557.12,268.11c0,5.05,4.48,9.22,10,9.32s10.1-3.9,10.12-8.94-4.48-9.21-10-9.32S557.14,263.07,557.12,268.11Z"/><path class="cls-23" d="M561.41,275.69a9.41,9.41,0,0,1-3.93-7.57,9.06,9.06,0,0,1,9.52-8.75c2.61.05,5.64.72,9,4.65a11.11,11.11,0,0,0-11.19-5.59c-3.82.51-7.79,3.24-8.19,8C556.3,270.51,558.63,274.6,561.41,275.69Z"/><path class="cls-24" d="M561.8,266.73a5.79,5.79,0,0,0,3.82,7.14,5.6,5.6,0,0,0,6.92-4,5.78,5.78,0,0,0-3.81-7.14A5.6,5.6,0,0,0,561.8,266.73Z"/><path class="cls-25" d="M567.4,264.79a1.42,1.42,0,0,0,1,1.76,1.43,1.43,0,1,0-1-1.76Z"/><path class="cls-26" d="M570.09,296.13c1.47,1.76,8.88,7.15,15,7.15,12.58,0,23.42-17.33,20.93-16.83-6.29,1.27-4.18,1.57-14.13,2.09a80.51,80.51,0,0,1-8.18.28C572.55,288.35,556.61,280.1,570.09,296.13Z"/><path class="cls-27" d="M585.21,302.63a13.16,13.16,0,0,1-7-2.12,8.36,8.36,0,0,1,5.41-3.41c3.3-.63,7.93.3,9.73,2.85C591.46,301.86,587.54,302.57,585.21,302.63Z"/><path class="cls-25" d="M569.57,287.67c14.13,4.19,23.75,2.7,32.54.45-2,2.92-8.12,6.7-16,6.89C577.57,295.22,572.87,291.16,569.57,287.67Z"/><path class="cls-26" d="M573.67,252.54l-1-1a8.46,8.46,0,0,0-7.72-2.65,16.16,16.16,0,0,0-10.26,6.6c-.36.51-.63.72-.11.35C558.25,253.27,567.36,249.88,573.67,252.54Z"/><path class="cls-26" d="M596.7,252.54l.85-1.07a7.19,7.19,0,0,1,6.63-3,11.91,11.91,0,0,1,8.38,6.07c.28.48.5.68.07.34C609.68,252.58,602.13,249.64,596.7,252.54Z"/><path class="cls-28" d="M603,223.06s-1,24-36.07,19.27c0,0,36-18.92-1.37-17,0,0,8.52,10.47-16.12,9.24,0,0,17.76-1.84-5,21.27,0,0-3,1.6-2.09,14.56.06.87-6.46-1-6.76-10.16,0,0-8.89-8.51.44-20.73,0,0-8.8-18,6.87-20.41,0,0,1.28-13.58,14.73-14.49,0,0,13.61-19.75,30.37-5.06,0,0,13.47-10.92,25.49,5.81,0,0,15.58.62,13.63,13.36,0,0,15.42,8,6.37,18.85,0,0,10.33,8.48.88,20.39l-7.22,12.68v-1.48a66.41,66.41,0,0,0-7-29l-.44-.87S619,230.12,603,223.06Z"/><path class="cls-29" d="M637,230.48c-12.8-7.1-31.43-8.29-53.94-8.9a139.21,139.21,0,0,0-42.54,6.07s-3.31.91-9.25,4.93-19.59,16.47-21.09,22c1.47-3.6,19.61-18.2,82.7-17.06,41.2.74,60.59,8.39,67.17,13.85C658.53,247.36,648.55,236.88,637,230.48Z"/><path class="cls-30" d="M660.06,251.6a.23.23,0,0,1-.16-.06c-3.65-3-19.24-12.94-67-13.79-5.57-.1-11-.08-16.12.06-49.91,1.36-65,13.63-66.35,16.84a.25.25,0,0,1-.32.15.29.29,0,0,1-.16-.33c1.59-5.81,15.67-18.37,21.2-22.12,5.9-4,9.18-4.92,9.32-4.95A141.77,141.77,0,0,1,577,221.32c2-.06,4.09-.06,6.07,0,21.83.59,41,1.67,54.08,8.94,11.53,6.39,21.57,16.86,23.15,21a.3.3,0,0,1-.09.32A.34.34,0,0,1,660.06,251.6Z"/><path class="cls-31" d="M538.12,237.6c4-5.61,10.77-9.22,16.6-11.87a73.14,73.14,0,0,1,7.39-2.86,135.94,135.94,0,0,0-21.59,4.78s-3.31.91-9.25,4.93-19.59,16.47-21.09,22c.9-2.18,7.92-8.41,27.36-12.71A4.51,4.51,0,0,1,538.12,237.6Z"/><path class="cls-31" d="M613.66,224.39a88,88,0,0,1,14.18,6.41c3.42,1.94,7.46,5.15,7,9.92a4.6,4.6,0,0,1-.13.84c13.69,2.85,21.6,6.66,25.34,9.77-1.52-4-11.5-14.45-23-20.85-7.7-4.27-17.52-6.4-29-7.56A45.51,45.51,0,0,1,613.66,224.39Z"/><path class="cls-29" d="M532.34,229.53s-2-20.81,22.32-35.68c26.34-16.1,55.7-3.9,64.31,2.55s17,19.57,18,31.74c0,0-34.15-6.27-50.23-6.13S541.85,224.68,532.34,229.53Z"/><path class="cls-30" d="M583,221.81c1.31,0,2.56-.06,3.74-.07,15.08-.13,46.4,5.43,50,6.08-1.18-12.6-9.85-25.2-17.88-31.21-5.94-4.43-20.68-10.88-37-10.44a53.9,53.9,0,0,0-27.06,7.92c-22.08,13.48-22.32,32.12-22.22,35C542.12,224.5,567.86,222.23,583,221.81Z"/><path class="cls-31" d="M622.81,215.56c-3.1,4.44-8.27,6-12.9,7-1.61.33-3.23.58-4.84.79,15.45,1.8,31.92,4.82,31.92,4.82-.94-11.25-8.17-23.32-16.08-30.18C624.43,202.84,626.66,210,622.81,215.56Z"/><path class="cls-31" d="M566.88,220.55c-5.88-1.28-12.32-3-17.32-6.93-4.35-3.45-5.81-7.46-5.41-11.55-13.16,13.3-11.81,27.46-11.81,27.46,7.78-4,28.51-6.39,44.6-7.21C573.56,221.85,570.19,221.28,566.88,220.55Z"/><path class="cls-32" d="M586.54,218.78c13-.2,47.55,4.72,51,7.13,0,0,.52,4.32.13,5.15s-16.56-5.86-47.74-6.18c-41-.43-56.8,7.36-57.85,7.55s-.43-4.74.07-5.47S548.76,219.36,586.54,218.78Z"/><path class="cls-21" d="M637.43,231.4a19.8,19.8,0,0,1-3.39-.71c-6.33-1.59-21.16-5.31-44.15-5.55-3.75,0-7.45,0-11,.09-13.27.37-32,1.9-46,7.17a6.59,6.59,0,0,1-.84.3H532a.61.61,0,0,1-.55-.39c-.57-1.11,0-4.85.45-5.51s16.39-7.72,54.64-8.29c12.74-.19,47.62,4.7,51.11,7.17l.09.07,0,.12c.06.45.52,4.43.1,5.3A.44.44,0,0,1,637.43,231.4Z"/><path class="cls-33" d="M637.5,225.91c-1.93-1.36-13.86-3.53-26.19-5.12a13,13,0,0,0,1.28.37c11.93,3,3.32,3.93-5.88,2.8a182.87,182.87,0,0,0-33-1.1c-14.14.66-18.55-2.1-7.18-3a20.62,20.62,0,0,0,2.28-.31c-25.19,2-36.33,6.77-36.73,7.37s-1.13,5.67-.07,5.47,16.84-8,57.85-7.55c31.18.32,47.34,7,47.74,6.18S637.5,225.91,637.5,225.91Z"/><path class="cls-34" d="M544.17,238.45s25.94-6.85,85,0C629.15,238.41,582.78,228.17,544.17,238.45Z"/><path class="cls-22" d="M614.06,269.58c-.68,5-5.69,8.51-11.19,7.84s-9.41-5.26-8.73-10.26,5.69-8.5,11.19-7.84S614.74,264.59,614.06,269.58Z"/><path class="cls-23" d="M608.78,276.49a9.39,9.39,0,0,0,4.92-6.95,9,9,0,0,0-8.17-10c-2.58-.32-5.66-.07-9.54,3.35a11,11,0,0,1,11.81-4c3.7,1,7.23,4.3,7,9C614.54,272.08,611.67,275.8,608.78,276.49Z"/><path class="cls-24" d="M609.64,267.56a5.78,5.78,0,0,1-4.75,6.54,5.58,5.58,0,0,1-6.28-4.91,5.78,5.78,0,0,1,4.75-6.54A5.58,5.58,0,0,1,609.64,267.56Z"/><path class="cls-25" d="M604.38,264.86a1.43,1.43,0,0,1-1.18,1.62,1.4,1.4,0,0,1-1.57-1.22,1.44,1.44,0,0,1,1.19-1.62A1.39,1.39,0,0,1,604.38,264.86Z"/><path class="cls-17" d="M561.8,315.5l-8.29,12.19a55.39,55.39,0,0,1-15.91-7c-11.05-7-19.67-16.76-30.94-24.32-1.73-1.16-3.51-2.27-5.38-3.3-1.46-.81,6.93-11.89,8.34-11,1.95,1.22,3.91,2.4,5.86,3.55,8.49,5,16.95,9.33,24.45,13.53,8.07,4.54,15,8.92,19.65,13.77l.21.21A29,29,0,0,1,561.8,315.5Z"/><path class="cls-17" d="M515.48,285.62c.52-2.67.7-11.09,1.49-21.15.12-1.59-3.26-.45-4.25,1.51-2.12,4.17-1.48,5.78-2.74,7.84s-3,1.33-4.75-.15C499,264.12,496.43,258,493,258.34c-2.77.75.64,7.91,4.85,15.8-7.46-6.23-14-10.62-15.28-8.44-1.56,2.59,4.76,8.09,10.08,13.61-7.37-.88-14.75-3.9-15.22,0-.34,2.82,14.86,6.46,13.39,8.74-.52.81-2,1-4.3,1.35-2,.32-5,.7-6.09,1.77s.05,2.32,2.37,2.77c3.83.74,12.54,2.09,16.91,2.46,2.54.37,4.66.89,6.94,0"/><path class="cls-17" d="M508.79,274.92c-.43.12-6.28,1.17-4.52,9.14"/><path class="cls-18" d="M561.8,317l-8.29,12.2c-6-1.56-11.56-6.08-16.29-9.06a51.67,51.67,0,0,1,4-19.29c8.08,4.53,13.76,8.72,18.4,13.57a2.94,2.94,0,0,1-1.08.6l1.29-.39A30.83,30.83,0,0,1,561.8,317Z"/><path class="cls-35" d="M545.42,300.07h0a65.81,65.81,0,0,0-5.6,26.55h0l16.54,8.3L553,387.83a45.71,45.71,0,0,0,35.65,8.1c20.8-4.12,25.23-8.09,25.23-8.09s-5.3-35-5.66-41.33c-.13-2.35,5.47,1.88,6-1.08l7.84-19.72-25.34-9.25a.7.7,0,0,0-.83.26c-1,1.36-4.58,5.24-13.29,4.3-10.51-1.14-12.11-7.11-12.11-7.11Z"/><path class="cls-36" d="M556.14,345.39s14.17,10.71,51.83,4.46l.77,5.95s-29.79,9-53.09-4Z"/><path class="cls-36" d="M555.21,358.79s17.35,10,55,3.79l.9,6.4s-33.08,9.35-56.38-3.66Z"/><path class="cls-17" d="M611.11,366.67c0-1.07,4.41,5.83,5.42,12.58s-5.14,10.82-10.75,9.92c-5.11-.82-.9-3.25-.1-3.68a0,0,0,0,0,0-.07c-1,0-7-.38-1.36-4.65a.09.09,0,0,0,0-.16c-1.24-.1-6.91-.78-3.29-4.74a3.18,3.18,0,0,1,1.4-.46C614.26,374.2,611.15,371.38,611.11,366.67Z"/><path class="cls-19" d="M699.81,319.69c-.66.42-4.94-3.77-4.94-3.77l3.06-3.52a5.6,5.6,0,0,0,.53-.93,7.92,7.92,0,0,0,.3-6.39c-1.57-4.18,20.29,0,20.29,0a6.13,6.13,0,0,0,0,4.41,8.6,8.6,0,0,0,1.58,2.65C723.59,315.66,700.46,319.26,699.81,319.69Z"/><path class="cls-16" d="M718.64,309.21c-.45.13-.26.37-.63.64-3.28,2.43-8.19,3.17-13.53,3a17.3,17.3,0,0,1-5.68-1.35,7.92,7.92,0,0,0,.3-6.39c-1.57-4.18,19.84-.44,19.84-.44A6,6,0,0,0,718.64,309.21Z"/><path class="cls-17" d="M783.38,285.22c-11.08,6.14-18.3,15.69-28.79,21.51-2.82,1.56-7.7,5.14-11.13,6l-4.22-11.19a34.35,34.35,0,0,1,8.46-7.41c7.93-5.27,19-10.31,29.59-17C778.32,276.55,784.44,284.63,783.38,285.22Z"/><path class="cls-17" d="M773,279.78c-.38-1.94-.51-8.09-1.08-15.42-.09-1.16,2.37-.33,3.09,1.09,1.55,3.05,1.08,4.22,2,5.72s2.22,1,3.47-.1c4.55-7,6.42-11.46,8.92-11.19,2,.55-.46,5.77-3.54,11.53,5.44-4.55,10.18-7.75,11.15-6.16,1.14,1.89-3.47,5.91-7.35,9.93,5.37-.64,10.76-2.84,11.1,0,.24,2.06-10.84,4.71-9.77,6.37.38.6,1.46.73,3.14,1,1.45.23,3.64.51,4.44,1.29s0,1.7-1.73,2c-2.79.54-9.14,1.53-12.33,1.79-1.85.28-3.4.66-5.07,0"/><path class="cls-17" d="M777.9,272c.31.09,4.58.85,3.3,6.66"/><path class="cls-16" d="M751.27,308c-2.82,1.57-3.23,2.49-6.66,3.38l-6.05-8.9a34.41,34.41,0,0,1,8.47-7.41C748.5,297.81,750.7,306.45,751.27,308Z"/><path class="cls-37" d="M742.22,296.49h0a28.58,28.58,0,0,1,5,15l.07,1.68-16.44,14.68L735,377.41s-6.85,14.11-25,14.11c-19.35,0-29.05-10.71-29.05-10.71s4.3-37.6,4.6-43c0-.08,0-.17,0-.27a17.16,17.16,0,0,0-8.36-15.42h0c-1.39-.84-.3-2.88,1.23-3.43l.84-.56a39,39,0,0,1,16.58-6.17h0s2.62,5,11.6,4.06S719,309.32,719,309.32Z"/><path class="cls-38" d="M686.2,337.49c-.31.58,35.2,8.77,44.65-9.12L745,385.78s-32,26.08-65.17-.32Z"/><path class="cls-38" d="M692.28,312.11s2.6,22.42,3.89,29.17l-3.88,4.87-3.14-4.43s-1.35-16.74.3-28.87Z"/><path class="cls-38" d="M721.39,308s-.71,23.23-1.14,33.34l4,2.39,2.17-3.89s1.26-21.58-3-33Z"/><path class="cls-37" d="M678.49,318.66c-2.13-1.09-10.76,27-9.33,27.5.68.25,3.83,3.19,7.82,4.08a28.28,28.28,0,0,0,9.85,0s2.28-10.85-.13-20.16"/><circle class="cls-39" cx="722.44" cy="367.95" r="4.48"/><circle class="cls-39" cx="721.79" cy="352.8" r="4.48"/><circle class="cls-39" cx="732.47" cy="360.29" r="4.48"/><circle class="cls-39" cx="692.28" cy="355.8" r="4.48"/><circle class="cls-39" cx="723.51" cy="382.9" r="4.48"/><circle class="cls-39" cx="706.6" cy="383.66" r="4.48"/><circle class="cls-39" cx="691.18" cy="379.93" r="4.48"/><circle class="cls-39" cx="735.89" cy="370.83" r="4.48"/><circle class="cls-39" cx="697.7" cy="367.95" r="4.48"/><circle class="cls-39" cx="711.19" cy="369.73" r="4.48"/><circle class="cls-39" cx="706.7" cy="355.8" r="4.48"/><circle class="cls-39" cx="714.02" cy="345.37" r="4.48"/><circle class="cls-39" cx="702.12" cy="345.76" r="4.48"/><ellipse class="cls-39" cx="730.75" cy="345.76" rx="3.77" ry="4.48"/><ellipse class="cls-39" cx="686.35" cy="370.14" rx="3.42" ry="4.07"/><ellipse class="cls-39" cx="736.95" cy="380.37" rx="3.42" ry="4.07"/><path class="cls-17" d="M613,369.74a12.18,12.18,0,0,0-.12-7.29c-.58-1.58-4.3-1.9-2.94,2.85,1.72,6,1.63,6,1.63,6"/><path class="cls-40" d="M581,279.42s.57,3,5,3.1,5.3-3.1,5.3-3.1S586.77,283.92,581,279.42Z"/><path class="cls-41" d="M556.18,324.84l-.58,18.25"/><path class="cls-41" d="M608.31,347.29a44.35,44.35,0,0,1,.36-6.42,38.53,38.53,0,0,0,.31-13.46"/><path class="cls-42" d="M621.72,348.3a13.11,13.11,0,0,1,5.16-6.7"/><path class="cls-18" d="M629.9,268.5a2.2,2.2,0,0,1,2.62-.78,2.7,2.7,0,0,1,1.17,1.76,12.86,12.86,0,0,1-.21,6.22c-.59,2.47-1.63,5.1-3.88,6.27a1,1,0,0,1-.65.15c-.51-.1-.62-.76-.62-1.28v-2.13a2.55,2.55,0,0,1,.25-1.34,3,3,0,0,1,1-.87,3.21,3.21,0,0,0,1.49-1.84,1.63,1.63,0,0,0-.6-1.65c-.48-.31-1.41.09-1.76-.31C628.15,272,629.41,269.12,629.9,268.5Z"/><path class="cls-43" d="M770.33,130.16l-11-.48L720,128l-37.74-1.59-88.41-3.75-38.09-1.6-46.17-2-4.67-.19S69.73-370.6,104.33-615.36C123-747.32,185.94-815.94,240-851.22a.84.84,0,0,1,.17-.13c46.17-30,85.76-35.73,85.76-35.73a274,274,0,0,1,40.15-21.37h0c56.92-24.47,105.54-21.29,130.68-16.77a122.71,122.71,0,0,1,18.38,4.46c138.08-61.08,225-5.89,240,5,1.57,1.14,2.36,1.78,2.36,1.78,62.38-21.12,118.39-10.43,154,1.94,25,8.72,39.89,18.26,39.89,18.26,37.76,14.06,69.35,31,95.67,50.26l0,0c.07.06.13.09.16.16C1403.63-580.53,770.33,130.16,770.33,130.16Z"/><path class="cls-44" d="M781.87-597.39c0,282.91-47,603.83-99.6,723.83l-88.41-3.75c-43.13-99.1-77-327.86-102.67-592.45C470.43-684.3,477-828.64,496.78-925.22a122.71,122.71,0,0,1,18.38,4.46c138.08-61.08,225-5.89,240,5C771.54-835.54,781.87-730,781.87-597.39Z"/><path class="cls-44" d="M759.31,129.68,720,128c384.77-627,274.2-985.92,199.65-1037.09L1047-843.56l0,0c.07.06-64.69-36.46-64.66-36.4C1353.1-619.86,865.11,1.86,759.31,129.68Z"/><path class="cls-44" d="M555.77,121.09l-46.17-2C389-28.84-41.44-597.2,240-851.22a.84.84,0,0,1,.17-.13c46.17-30,85.76-35.73,85.76-35.73,13.7-8.78-5.67,1,7.34-4.55C287.28-807.1,189.27-486.78,555.77,121.09Z"/><ellipse class="cls-45" cx="643.05" cy="122.32" rx="136.65" ry="23.8"/><path class="cls-42" d="M605.66,385.42c-.62.12,5.7-1,8-2.1"/><path class="cls-46" d="M751.83,515.76h0c-71.32,6.36-135.33,7.75-210.2,1.93h0c-20.94-3.48-35.89-14.3-37.34-27l-10-87.76H787.7l-8.18,91.85C778.66,504.45,767.62,512.82,751.83,515.76Z"/><rect class="cls-47" x="516.94" y="415.96" width="29.09" height="5.09" rx="2.1"/><rect class="cls-47" x="516.94" y="431.94" width="29.09" height="5.09" rx="2.1"/><rect class="cls-47" x="516.94" y="447.91" width="29.09" height="5.09" rx="2.1"/><rect class="cls-47" x="516.94" y="463.89" width="29.09" height="5.09" rx="2.1"/><rect class="cls-47" x="516.94" y="479.87" width="29.09" height="5.09" rx="2.1"/><rect class="cls-47" x="516.94" y="495.84" width="29.09" height="5.09" rx="2.1"/><rect class="cls-47" x="560.58" y="415.96" width="29.09" height="5.09" rx="2.1"/><rect class="cls-47" x="560.58" y="431.94" width="29.09" height="5.09" rx="2.1"/><rect class="cls-47" x="560.58" y="447.91" width="29.09" height="5.09" rx="2.1"/><rect class="cls-47" x="560.58" y="463.89" width="29.09" height="5.09" rx="2.1"/><rect class="cls-47" x="560.58" y="479.87" width="29.09" height="5.09" rx="2.1"/><rect class="cls-47" x="560.58" y="495.84" width="29.09" height="5.09" rx="2.1"/><rect class="cls-47" x="604.22" y="415.96" width="29.09" height="5.09" rx="2.1"/><rect class="cls-47" x="604.22" y="431.94" width="29.09" height="5.09" rx="2.1"/><rect class="cls-47" x="604.22" y="447.91" width="29.09" height="5.09" rx="2.1"/><rect class="cls-47" x="604.22" y="463.89" width="29.09" height="5.09" rx="2.1"/><rect class="cls-47" x="604.22" y="479.87" width="29.09" height="5.09" rx="2.1"/><rect class="cls-47" x="604.22" y="495.84" width="29.09" height="5.09" rx="2.1"/><rect class="cls-47" x="647.87" y="415.96" width="29.09" height="5.09" rx="2.1"/><rect class="cls-47" x="647.87" y="431.94" width="29.09" height="5.09" rx="2.1"/><rect class="cls-47" x="647.87" y="447.91" width="29.09" height="5.09" rx="2.1"/><rect class="cls-47" x="647.87" y="463.89" width="29.09" height="5.09" rx="2.1"/><rect class="cls-47" x="647.87" y="479.87" width="29.09" height="5.09" rx="2.1"/><rect class="cls-47" x="647.87" y="495.84" width="29.09" height="5.09" rx="2.1"/><rect class="cls-47" x="691.79" y="415.96" width="29.09" height="5.09" rx="2.1"/><rect class="cls-47" x="691.79" y="431.94" width="29.09" height="5.09" rx="2.1"/><rect class="cls-47" x="691.79" y="447.91" width="29.09" height="5.09" rx="2.1"/><rect class="cls-47" x="691.79" y="463.89" width="29.09" height="5.09" rx="2.1"/><rect class="cls-47" x="691.79" y="479.87" width="29.09" height="5.09" rx="2.1"/><rect class="cls-47" x="691.79" y="495.84" width="29.09" height="5.09" rx="2.1"/><rect class="cls-47" x="735.71" y="415.96" width="29.09" height="5.09" rx="2.1"/><rect class="cls-47" x="735.71" y="431.94" width="29.09" height="5.09" rx="2.1"/><rect class="cls-47" x="735.71" y="447.91" width="29.09" height="5.09" rx="2.1"/><rect class="cls-47" x="735.71" y="463.89" width="29.09" height="5.09" rx="2.1"/><rect class="cls-47" x="735.71" y="479.87" width="29.09" height="5.09" rx="2.1"/><rect class="cls-47" x="735.71" y="495.84" width="29.09" height="5.09" rx="2.1"/><rect class="cls-48" x="469.96" y="384.89" width="343.77" height="22.94" rx="9.46"/><rect class="cls-49" x="477.86" y="386.32" width="324.81" height="11.47" rx="4.73"/><path class="cls-50" d="M765.37,122.6c0,10.79-54.69,19.53-122.15,19.53s-122.16-8.74-122.16-19.53c0-9.64,43.71-17.65,101.19-19.24,6.81-.19,13.82-.29,21-.29q4.29,0,8.51.05C715.23,103.82,765.37,112.27,765.37,122.6Z"/><path class="cls-42" d="M604.26,380.61a35.2,35.2,0,0,0,9.91-2.8"/><path class="cls-18" d="M539.2,271a2.46,2.46,0,0,0-2.89-.47,2.74,2.74,0,0,0-1,1.93,12.28,12.28,0,0,0,1,6.28c.91,2.44,2.34,5,4.89,5.88a1.09,1.09,0,0,0,.71.08c.53-.16.57-.85.51-1.37l-.25-2.16a2.55,2.55,0,0,0-.42-1.33,3.32,3.32,0,0,0-1.2-.76,3.36,3.36,0,0,1-1.8-1.69,1.6,1.6,0,0,1,.45-1.74c.47-.38,1.52-.08,1.84-.54C541.49,274.31,539.81,271.52,539.2,271Z"/><path class="cls-51" d="M738.46,239.4c1,8,2.82,29.37,1.64,39.08-2.67,21.86-26.52,29.68-31.11,30-7.39.52-23.87-.55-33-11.5s-11.69-31.69-11.69-31.69-8.19-20.24,4.23-37.31,27.69-19.66,45-16.64C734.7,215,738.46,239.4,738.46,239.4Z"/><path class="cls-52" d="M687.69,249.6s-7.55-.07-10.29,5.38a.25.25,0,0,1-.47,0c-.12-1.51.19-4.69,4.61-6.31C688.51,246.05,687.69,249.6,687.69,249.6Z"/><path class="cls-52" d="M716.61,247.79S724,246,728,250.6c.16.19.49.07.45-.16-.23-1.49-1.3-4.51-6-5.05C715,244.53,716.61,247.79,716.61,247.79Z"/><path class="cls-53" d="M676.38,263.28a8.31,8.31,0,0,1,3.74-5.5,13.59,13.59,0,0,1,6.18-1.91,8.3,8.3,0,0,1,4.19.46,7,7,0,0,1,2.76,2.36,8.89,8.89,0,0,1,1.08,8.7c-1.3,2.73-4.68,4.16-7.17,2.67a14.56,14.56,0,0,1-2.18-1.84,4.64,4.64,0,0,0-2.41-1.35,2,2,0,0,0-2.23,1.29c-.26.8.24,2.19-.44,2.78s-1.41.05-1.88-.41C676.49,269.05,676,265.34,676.38,263.28Z"/><path class="cls-54" d="M694.67,265.63c.32,4.54-3.32,7.26-8.3,7.61a10.69,10.69,0,0,1-4.36-.49,6.2,6.2,0,0,1-4.23-5.81,7.94,7.94,0,0,1,1.91-5.47,10.24,10.24,0,0,1,7.1-3.82C691.77,257.29,694.35,261.2,694.67,265.63Z"/><circle class="cls-55" cx="686.17" cy="265.52" r="4.79"/><circle class="cls-56" cx="688.64" cy="263.81" r="1.48"/><path class="cls-53" d="M711.23,261.16a8.33,8.33,0,0,1,3.74-5.51,13.52,13.52,0,0,1,6.18-1.91,8.41,8.41,0,0,1,4.19.46,7.17,7.17,0,0,1,2.76,2.36,8.91,8.91,0,0,1,1.08,8.71c-1.3,2.72-4.68,4.15-7.17,2.66a14.56,14.56,0,0,1-2.18-1.84,4.75,4.75,0,0,0-2.41-1.35,2,2,0,0,0-2.23,1.29c-.26.8.23,2.19-.44,2.79s-1.41.05-1.89-.41C711.33,266.92,710.89,263.21,711.23,261.16Z"/><path class="cls-54" d="M729.51,263.5c.33,4.55-3.31,7.26-8.3,7.61a10.91,10.91,0,0,1-4.36-.48,6.21,6.21,0,0,1-4.22-5.82,7.93,7.93,0,0,1,1.91-5.47,10.24,10.24,0,0,1,7.1-3.82C726.62,255.17,729.2,259.07,729.51,263.5Z"/><circle class="cls-55" cx="720.99" cy="263.04" r="4.79"/><circle class="cls-56" cx="723.48" cy="261.68" r="1.48"/><path class="cls-53" d="M692,286.92a10.41,10.41,0,0,1-1.68-.73,3.89,3.89,0,0,0-1.79-.3c-.8.05-1.7.48-1.75,1.22,0,.59.51,1.07,1.06,1.35a5.13,5.13,0,0,0,3.16.45,1.61,1.61,0,0,0,1.18-.68c.19-.41-.2-1-.66-.85Z"/><path class="cls-53" d="M717.81,284.09a6.21,6.21,0,0,1,1.09-1.26,2.43,2.43,0,0,1,.94-.56,1.72,1.72,0,0,1,1.89.83,2.06,2.06,0,0,1-.12,2,4,4,0,0,1-1.66,1.41,2.87,2.87,0,0,1-1.45.37,1.28,1.28,0,0,1-1.17-.75,1.22,1.22,0,0,1,.45-1.27,4.16,4.16,0,0,1,1.32-.69Z"/><path class="cls-57" d="M690,287.72s-1.09-1,.62-.66c2.34.39,8.72,2.86,17.53,1,6.77-1.43,10.27-3.53,11.52-4.42a.28.28,0,0,1,.46.25c-.32,1.92-2.15,8.32-7.9,11.91A12.81,12.81,0,0,1,701.79,297C698.19,295.7,694.88,293.61,690,287.72Z"/><path class="cls-56" d="M693.7,288.58c.18,0,10.65,4.24,23-2.59,0,0-1.19,4.62-9,6.3C698.7,294.21,693.7,288.58,693.7,288.58Z"/><path class="cls-27" d="M707.06,296.61a8.32,8.32,0,0,1-5.23-1c.71-1,1.54-1.29,3.14-1.89,2.29-.87,5.51,0,7.1.82C711,295.75,709.64,296.11,707.06,296.61Z"/><path class="cls-58" d="M699.27,278.55c2.7,3.06,7.34,3.18,9.33-.59"/><path class="cls-59" d="M699.27,278.55a8.09,8.09,0,0,0,4.87,1.76,5.12,5.12,0,0,0,2.41-.63A7.32,7.32,0,0,0,708.6,278a4.61,4.61,0,0,1-1.62,2.38,4.83,4.83,0,0,1-2.82,1A5.59,5.59,0,0,1,699.27,278.55Z"/><path class="cls-14" d="M712.29,230.81s-2.35,8-14.1,13.26c0,0,4.57-4.65,1.79-10.77,0,0,0,13.69-16.22,14.66l4.1-10.54-12,15.57.68-11.24s-14.94,35.17-20,35.93c0,0-13.53-37.09,13.6-61.91s60.82-3,60.82-3,25.16,19.85,15.41,53.08c0,0-7.68,2.43-8.87.89s-.19-5.92-5.21-17.19C726,235.47,712.29,230.81,712.29,230.81Z"/><path class="cls-58" d="M666.26,269.07c.07-.13.23.15.07.18s-.27-.14-.33-.27a10.21,10.21,0,0,0-3.5-4,5,5,0,0,0-3.68-1c-1.81.39-2.68,2.23-2.93,3.88a13.12,13.12,0,0,0,1.41,7.93c2.24,4.32,7.26,7.74,12.5,7.37"/><path class="cls-60" d="M666.26,269.07c.08-.11.21.09.12.18a.25.25,0,0,1-.3-.08,3.75,3.75,0,0,1-.33-.52,9.59,9.59,0,0,0-.69-1,10.21,10.21,0,0,0-1.68-1.67,6,6,0,0,0-4.15-1.64,3.51,3.51,0,0,0-2.74,3,11.49,11.49,0,0,0,0,4.6,13.88,13.88,0,0,0,4.62,7.93,13.41,13.41,0,0,0,8.71,3.35,11.75,11.75,0,0,1-4.85-.44,14.75,14.75,0,0,1-4.34-2.31,14.48,14.48,0,0,1-3.33-3.69,14.14,14.14,0,0,1-1.79-4.66,12.1,12.1,0,0,1,.09-5,5.59,5.59,0,0,1,1.19-2.32,3.5,3.5,0,0,1,2.39-1.19,4.88,4.88,0,0,1,2.51.59,9.44,9.44,0,0,1,2,1.44,10.57,10.57,0,0,1,1.58,1.89,10,10,0,0,1,.6,1.06,5.44,5.44,0,0,0,.25.54.22.22,0,0,0,.23.1C666.43,269.19,666.34,269,666.26,269.07Z"/><path class="cls-53" d="M661.49,270.23a15.51,15.51,0,0,1,1.5,1.64c.36.45.69,1.12.32,1.57s-1,.36-1.23.77.08,1,.53,1.23,1,.25,1.43.46a2,2,0,0,1,1.16,1.62,1.26,1.26,0,0,1-.11.72,1.37,1.37,0,0,1-1.63.53,3.78,3.78,0,0,1-1.48-1.1,13.89,13.89,0,0,1-2.48-3.33C658.57,272.43,658,266.9,661.49,270.23Z"/><path class="cls-61" d="M667.14,280.43s3.62,6,0,7.41-3.13-5.7-3.13-5.7,1.53,5.82,2.33,2.06Z"/><path class="cls-58" d="M739.1,261.54c-.08-.12-.2.19,0,.19s.25-.17.29-.32a10.09,10.09,0,0,1,2.91-4.41,5,5,0,0,1,3.5-1.49c1.84.13,3,1.83,3.45,3.43a13.1,13.1,0,0,1-.28,8c-1.6,4.6-6.09,8.7-11.32,9.07"/><path class="cls-60" d="M739.1,261.54c-.09-.08-.14.14-.07.16s.17,0,.21-.12a4.74,4.74,0,0,0,.17-.57,11.25,11.25,0,0,1,.45-1.14,9.92,9.92,0,0,1,1.3-2.1,9.44,9.44,0,0,1,1.8-1.71,4.81,4.81,0,0,1,2.4-.93,3.47,3.47,0,0,1,2.53.83,5.74,5.74,0,0,1,1.51,2.13,12.21,12.21,0,0,1,.8,5,14.29,14.29,0,0,1-1.12,4.86,14.05,14.05,0,0,1-2.76,4.12,14.94,14.94,0,0,1-4,2.91,11.72,11.72,0,0,1-4.73,1.12,13.4,13.4,0,0,0,8.14-4.55,13.82,13.82,0,0,0,3.45-8.5,11.44,11.44,0,0,0-.67-4.55,3.51,3.51,0,0,0-3.13-2.56,6,6,0,0,0-3.88,2.21,9.89,9.89,0,0,0-1.43,1.89,8.19,8.19,0,0,0-.53,1.07,5.53,5.53,0,0,1-.26.56.26.26,0,0,1-.29.12C738.91,261.66,739,261.44,739.1,261.54Z"/><path class="cls-53" d="M744,262a15.16,15.16,0,0,0-1.25,1.83c-.29.5-.53,1.21-.1,1.61s1,.21,1.33.58.06,1-.35,1.29-.93.39-1.36.66a2,2,0,0,0-.91,1.77,1.27,1.27,0,0,0,.21.69,1.37,1.37,0,0,0,1.69.3,3.79,3.79,0,0,0,1.31-1.3,14.06,14.06,0,0,0,2-3.65C747.2,263.78,747,258.22,744,262Z"/><path class="cls-61" d="M739.84,272.91s-2.73,6.44,1,7.34,2.29-6.08,2.29-6.08-.69,6-2,2.36Z"/><path class="cls-62" d="M661.27,264.27s-6.78-24.89,11.79-44.26,47.42-11.28,57.89,2.12c14.28,18.28,9.89,36.83,9.89,36.83"/><path class="cls-63" d="M668,223.16s-1.6-22.3,7-14.48,11.25,17.45-4.5,18.83c-2.75.24-4,1.09-4.68,3.72-1.51,6-3,28.18-17.29,4.37-9.58-16,15.58-6.55,15.58-6.55S660.33,222.18,668,223.16Z"/><ellipse class="cls-64" cx="650.6" cy="230.98" rx="1.49" ry="1.73" transform="translate(-30.32 117.07) rotate(-10.05)"/><ellipse class="cls-64" cx="661.76" cy="236.74" rx="1.49" ry="1.73" transform="translate(-31.16 119.11) rotate(-10.05)"/><ellipse class="cls-64" cx="673.85" cy="217.52" rx="1.49" ry="1.73" transform="translate(-27.62 120.92) rotate(-10.05)"/><ellipse class="cls-64" cx="678.34" cy="218.82" rx="1.49" ry="1.73" transform="matrix(0.98, -0.17, 0.17, 0.98, -27.78, 121.73)"/><ellipse class="cls-64" cx="676.98" cy="213.72" rx="1.49" ry="1.73" transform="translate(-26.91 121.41) rotate(-10.05)"/><ellipse class="cls-64" cx="673.98" cy="210.55" rx="1.49" ry="1.73" transform="translate(-26.4 120.84) rotate(-10.05)"/><ellipse class="cls-64" cx="676.34" cy="223.88" rx="1.49" ry="1.73" transform="translate(-28.69 121.46) rotate(-10.05)"/><ellipse class="cls-64" cx="670.57" cy="210.79" rx="1.49" ry="1.73" transform="translate(-26.49 120.25) rotate(-10.05)"/><ellipse class="cls-64" cx="669.75" cy="217.81" rx="1.49" ry="1.73" transform="translate(-27.73 120.21) rotate(-10.05)"/><ellipse class="cls-64" cx="672.57" cy="223.44" rx="1.49" ry="1.73" transform="translate(-28.67 120.79) rotate(-10.05)"/><ellipse class="cls-64" cx="655.48" cy="228.9" rx="1.49" ry="1.73" transform="translate(-29.89 117.89) rotate(-10.05)"/><ellipse class="cls-64" cx="656.29" cy="240.29" rx="1.49" ry="1.73" transform="translate(-31.86 118.21) rotate(-10.05)"/><ellipse class="cls-64" cx="651.9" cy="237.44" rx="1.49" ry="1.73" transform="translate(-31.43 117.4) rotate(-10.05)"/><ellipse class="cls-64" cx="656.48" cy="234.54" rx="1.49" ry="1.73" transform="translate(-30.86 118.15) rotate(-10.05)"/><ellipse class="cls-64" cx="660.11" cy="243.21" rx="1.49" ry="1.73" transform="translate(-32.31 118.92) rotate(-10.05)"/><ellipse class="cls-64" cx="660.73" cy="230.93" rx="1.49" ry="1.73" transform="translate(-30.16 118.84) rotate(-10.05)"/><polygon class="cls-13" points="759.43 118.63 785.07 385.06 789.81 385.06 763.17 118.63 759.43 118.63"/><polygon class="cls-13" points="521.06 118.35 495.42 384.78 490.68 384.78 517.32 118.35 521.06 118.35"/><path class="cls-65" d="M651.4,107.18a.76.76,0,0,1,1.34.68c-2,5.63-5.51,13.42-9,14.45s-7.53.71-10.81,2.46c-2.46,1.32-4.2,3.65-5.84,5.91.74-3.75,1.08-8.51-2.18-10.51-5.68-3.48-10.69-24.11-1.62-13.17,5.63,4.57,2.61-3.38,9.76-3.38,2.86,0,11.45,0,14.26,0-.2,1.42-2.12,9.13-2.6,10.49a5.45,5.45,0,0,1-3.48,3.43C644.57,117.61,648.38,111.57,651.4,107.18Z"/><path class="cls-66" d="M644.56,110.43a.46.46,0,0,1,.81.41c-1.23,3.45-3.36,8.22-5.5,8.85s-4.61.43-6.62,1.5a11.64,11.64,0,0,0-3.57,3.62c.45-2.3.66-5.21-1.34-6.43-3.47-2.13-8.7-16.49-1.26-6.27,3.44,2.8,6.89-7.2,11.26-7.2,1.75,0,0,0,1.75,0,2.59,1,.67,8.93.37,9.76a3.34,3.34,0,0,1-2.13,2.1C640.38,116.81,642.71,113.12,644.56,110.43Z"/><path class="cls-67" d="M675.42,142.07c-2.28-1.56-22.12-12.37-22.63-12.67a4.9,4.9,0,0,1,.89-.34l1-1.18c.43.12,22,12.32,24.19,13.83Z"/><path class="cls-67" d="M601.56,141.29l-3.42-.22c1.74-1.24,20.84-13.77,21.31-13.9l3.41.62c.15,0-.86.17-.85.17C621.54,128.28,603.43,139.94,601.56,141.29Z"/><path class="cls-68" d="M615.42,118.38v9.77h42.66V117.62s-2.81-1.28-9.33-1.66a149.83,149.83,0,0,0-28,.51S616.7,116.72,615.42,118.38Z"/><ellipse class="cls-69" cx="636.75" cy="127.17" rx="21.33" ry="4.24"/><path class="cls-69" d="M657,122.94c.68,0,74-12.25,77.32-13.15"/><path class="cls-67" d="M657,124v-1.08l-.09-1.09c.47,0,71.76-11.83,75.48-12.83l4.07,1.15C734.14,110.79,658.3,124,657,124Z"/><path class="cls-69" d="M617.3,121.9c-.68,0-63.86-9.4-71.46-9.51"/><path class="cls-67" d="M617.3,123c-.21,0-.89-.1-9.8-1.38-18.16-2.61-59-9.14-64.75-9.22l4.6-1.3c5.86.08,42.25,5.75,60.46,8.37,5.14.74,9.2,1.33,9.56,1.36Z"/><path class="cls-15" d="M666.18,382.49c-2,.48-6.37,2.9-6.69,5.72s.53,7.65,4.17,6.44,2.27-6.69,3.47-5.13c1.54,2,8.08.89,8.21,0,0,0,2.44,2.39,4.77.46,0,0,1.76-1.93-1-2.25s-3.35-5.48-6.33-4.83"/><path class="cls-15" d="M670.37,387.4s.41,7.06,3.3,7.82c1.91.5,1.93-6.05.81-8.54"/><path class="cls-15" d="M662.31,388.21c-.08.24-.59,8.21,2.77,6.2s1-6.2,1-6.2"/><path class="cls-15" d="M669.64,387.8a4.82,4.82,0,0,0-1.21,3.71c.16,2.42-.64,4.43-2,4.19s-2.18-2.18-1.61-7.9"/></g><g class="cls-70"><g class="cls-71"><rect class="cls-72" x="1139.5" y="-90.45" width="1600.98" height="796.95"/><path class="cls-73" d="M1045.38,282.05s337.69-28.32,672.89,180.34l59.6,73.34S1391.68,603.34,1384.43,610s-339,37.48-339,37.48Z"/><path class="cls-74" d="M1086.86,611.7s300-23.86,555.56-127.39c366.42-148.43,677.73-180.47,1155.75-157.12L2915,528.9l-53.11,260.49L1073.05,849.5Z"/><polygon class="cls-75" points="1283.17 619.65 1278.37 620.6 1285.02 607.86 1289.48 607.2 1283.17 619.65"/><polygon class="cls-75" points="1258.33 623.25 1253.63 624.13 1260.61 611.58 1265.1 611.04 1258.33 623.25"/><polygon class="cls-75" points="1233.67 626.85 1228.65 627.48 1235.64 614.93 1240.12 614.39 1233.67 626.85"/><polygon class="cls-75" points="1209.1 630.18 1204.4 630.2 1210.53 618.64 1215.03 618.27 1209.1 630.18"/><polygon class="cls-75" points="1183.63 633.06 1178.93 633.08 1184.69 622.54 1189.19 622.17 1183.63 633.06"/><polygon class="cls-75" points="1152.75 636.25 1148.05 636.27 1154.26 625.21 1158.76 624.84 1152.75 636.25"/><polygon class="cls-75" points="1131.12 641.1 1126.42 641.11 1133.89 628.84 1138.39 628.47 1131.12 641.1"/><polygon class="cls-75" points="1110.83 643.49 1106.13 643.51 1113.59 631.23 1118.09 630.86 1110.83 643.49"/><path class="cls-76" d="M1130.06,627.74s237.55-16.66,429.15-87.12c219.83-80.84,476.24-161.92,620-173.6,78-6.33,254.46-18.52,373.44-14.4,135.08,4.68,176.33,2.88,190.56,4.32"/><path class="cls-77" d="M1139.54,636.32s237.55-16.66,429.15-87.12c219.83-80.84,474-158.6,617.42-171.84,77.91-7.19,257.43-18.24,376.41-14.12,135.08,4.68,163.75,3,178,4.4"/><path class="cls-78" d="M1256.89,228.29s15.33-32.52,69.31-30.93,48,42.83,30,46S1263.84,253.52,1256.89,228.29Z"/><path class="cls-79" d="M1258.56,621.55s-5.37-188.8,63-275.88c0,0,18.09-17.45,35.6,45.31s30.61,178.26,22,231.58C1372.62,663.06,1260.88,674,1258.56,621.55Z"/><polygon class="cls-80" points="1235.59 710.28 1218.94 705.63 1218.94 633.56 1235.59 633.56 1235.59 710.28"/><path class="cls-81" d="M1181.91,629.36s-3.44-151.82,54.81-222.51c0,0,15.37-14.2,29.78,36.12s24.81,143.11,17.21,186.08C1277.94,661.69,1183.57,671.54,1181.91,629.36Z"/><path class="cls-82" d="M1127.56,651.94s249.12,61.38,563.76-20.7c118.62-30.94,309.82-95,501.12-95,149,0,268.56,7.2,332.64,17.28,51.22,8.06,177.12,27,222.48,43.2l2.16,175H1125.4Z"/><path class="cls-83" d="M1127.56,676.5s170.35,55,533.52,5.22c198.72-27.24,347.76,41.52,786.24,62.64,51.79,2.49,269.28-14.88,306.72,3.36L2749.72,824,1125.4,817.56Z"/><path class="cls-84" d="M1156,772.52s6.06-73.13,35.17-85.51c19.4-5.63,8.49,48.27-17.59,93.9,58.21-56.15,46.69-43.27,46.69-43.27,29.11-24.75,27.89,4.5,10.92,21.38A301.15,301.15,0,0,1,1190,796.15s0,6.75,12.71,0,33.38-18,33.38-18-32.75,15.75,2.42-1.13,21.83,15.76,2.43,23.63-14.82,8.63-14.82,8.63L1140,810l3.9-94.06s5-22.38,9.78-9.34S1156,772.52,1156,772.52Z"/><polygon class="cls-85" points="1150.41 804.04 1190.82 701.14 1151.41 804.43 1150.41 804.04"/></g><path class="cls-43" d="M1637.22,72.51l-6.88-.3-24.56-1-23.56-1L1527,67.84l-23.8-1-28.84-1.23-2.92-.12S1199.59-240.3,1221.2-393.19c11.66-82.43,51-125.3,84.74-147.33a.44.44,0,0,1,.1-.08c28.84-18.74,53.57-22.32,53.57-22.32a170.27,170.27,0,0,1,25.08-13.35h0c35.56-15.29,65.93-13.3,81.64-10.48a75.91,75.91,0,0,1,11.48,2.79c86.25-38.16,140.52-3.68,149.91,3.1,1,.71,1.47,1.11,1.47,1.11,39-13.2,74-6.52,96.18,1.21,15.6,5.45,24.92,11.41,24.92,11.41,23.59,8.78,43.32,19.37,59.76,31.39l0,0s.08.06.1.1C2032.82-371.43,1637.22,72.51,1637.22,72.51Z"/><path class="cls-44" d="M1503.19,66.84l-28.84-1.23C1399-26.81,1130.14-381.85,1305.94-540.52a.44.44,0,0,1,.1-.08c28.84-18.74,53.57-22.32,53.57-22.32,8.56-5.49-3.54.63,4.58-2.84C1335.48-513,1274.26-312.87,1503.19,66.84Z"/></g><g class="cls-86"><g class="cls-87"><g id="Slide_1-2" data-name="Slide 1"><g class="cls-5"><rect class="cls-88" x="-197.89" y="615.96" width="1668.71" height="945.92"/></g></g></g><path class="cls-43" d="M417.38,1001.75l-9.16-.39L375.55,1000l-31.37-1.32-73.51-3.12L239,994.22l-38.38-1.64-3.89-.16s-361.82-407-333.06-610.5c15.52-109.71,67.85-166.76,112.79-196.1a.49.49,0,0,1,.13-.1C15,160.78,47.9,156,47.9,156a228.4,228.4,0,0,1,33.38-17.78h0C128.63,117.9,169.06,120.55,190,124.3A101.67,101.67,0,0,1,205.24,128c114.8-50.79,187-4.9,199.53,4.12,1.31,1,2,1.48,2,1.48,51.87-17.56,98.43-8.67,128,1.62,20.77,7.24,33.16,15.18,33.16,15.18,31.4,11.69,57.66,25.79,79.55,41.79l0,0c.06.06.11.08.14.14C943.92,410.88,417.38,1001.75,417.38,1001.75Z"/><path class="cls-44" d="M427,396.86c0,235.21-39.09,502-82.8,601.8l-73.51-3.12C234.81,913.15,206.62,723,185.31,503,168.05,324.6,173.49,204.6,190,124.3A101.67,101.67,0,0,1,205.24,128c114.8-50.79,187-4.9,199.53,4.12C418.39,198.86,427,286.62,427,396.86Z"/><path class="cls-44" d="M408.22,1001.36,375.55,1000c319.9-521.29,228-819.7,166-862.25L647.45,192.2l0,0c.06.06-53.78-30.31-53.75-30.26C901.91,378.18,496.19,895.08,408.22,1001.36Z"/><path class="cls-44" d="M239,994.22l-38.38-1.64C100.36,869.56-257.52,397-23.54,185.82a.49.49,0,0,1,.13-.1C15,160.78,47.9,156,47.9,156c11.39-7.3-4.72.84,6.1-3.79C15.78,222.51-65.71,488.83,239,994.22Z"/></g><g class="cls-89"><g class="cls-90"><g id="Slide_1-3" data-name="Slide 1"><g class="cls-5"><rect class="cls-91" x="1123.71" y="626.76" width="1668.71" height="926.47"/></g></g></g></g></g></g></svg>