<svg xmlns="http://www.w3.org/2000/svg" xmlns:xlink="http://www.w3.org/1999/xlink" viewBox="0 0 1280 720"><defs><style>.cls-1,.cls-56{fill:none;}.cls-2{isolation:isolate;}.cls-3{clip-path:url(#clip-path);}.cls-4{clip-path:url(#clip-path-2);}.cls-5{clip-path:url(#clip-path-3);}.cls-6{fill:url(#linear-gradient);}.cls-7{fill:url(#linear-gradient-2);}.cls-8{fill:#414042;}.cls-13,.cls-9{fill:#79c3c6;}.cls-10{fill:#1ca1c4;}.cls-10,.cls-12,.cls-13,.cls-16,.cls-18,.cls-19,.cls-20,.cls-23{stroke:#007ea5;}.cls-10,.cls-12,.cls-13,.cls-14,.cls-15,.cls-16,.cls-18,.cls-19,.cls-20,.cls-21,.cls-22,.cls-23,.cls-24,.cls-27,.cls-36,.cls-37,.cls-39,.cls-40,.cls-46,.cls-54,.cls-56,.cls-65,.cls-67,.cls-71,.cls-73,.cls-74,.cls-76,.cls-89,.cls-90{stroke-miterlimit:10;}.cls-10,.cls-12,.cls-13,.cls-14,.cls-16,.cls-18,.cls-19,.cls-20,.cls-21,.cls-22,.cls-23,.cls-90{stroke-width:2px;}.cls-11{fill:#8fdff2;}.cls-12{fill:#50b9d6;}.cls-14{fill:#ffcfa1;stroke:#e0b17e;}.cls-15{fill:#2994b8;}.cls-15,.cls-89{stroke:#094c5b;}.cls-16{fill:#2977b8;}.cls-17{fill:#70c5f9;}.cls-18{fill:#73b1de;}.cls-19{fill:#5492c6;}.cls-20{fill:#64c8d8;}.cls-21{fill:#ebe8c8;stroke:#ffb7a4;}.cls-22{fill:#ffe2a1;stroke:#d8c08b;}.cls-23{fill:#509ed6;}.cls-24,.cls-26{fill:#fff;}.cls-24,.cls-27,.cls-37,.cls-39,.cls-40,.cls-54,.cls-56,.cls-65,.cls-67,.cls-71,.cls-73,.cls-74{stroke:#323232;}.cls-24,.cls-37,.cls-39,.cls-40,.cls-56,.cls-67,.cls-71,.cls-73,.cls-74{stroke-width:0.5px;}.cls-25{fill:#231f20;}.cls-27{fill:#562415;}.cls-28{clip-path:url(#clip-path-4);}.cls-29{clip-path:url(#clip-path-5);}.cls-30{fill:url(#linear-gradient-3);}.cls-31{fill:url(#linear-gradient-4);}.cls-32{fill:url(#linear-gradient-5);}.cls-33{fill:url(#linear-gradient-6);}.cls-34{fill:url(#linear-gradient-7);}.cls-35{fill:#4a2a15;}.cls-36,.cls-44{fill:#3e2c13;}.cls-36{stroke:#3e2c13;}.cls-37,.cls-47{fill:#fbd3c7;}.cls-38{fill:#e4a68d;}.cls-39{fill:#fcde7d;}.cls-40{fill:#e0614f;}.cls-41{fill:#f5937d;}.cls-42{fill:#dd9f8f;}.cls-43{fill:#e9d960;}.cls-45{fill:#a77d48;}.cls-46{fill:#ad6327;stroke:#c87929;}.cls-46,.cls-65{stroke-width:0.75px;}.cls-48{fill:#323232;}.cls-49{fill:#421e15;}.cls-50{fill:#fff8f5;}.cls-51,.cls-74{fill:#d26553;}.cls-52{fill:#ef4b3b;}.cls-53{fill:#f59a91;}.cls-54,.cls-71{fill:#f7fbff;}.cls-54{stroke-width:0.44px;}.cls-55{fill:#451e15;}.cls-57{fill:#fab51b;}.cls-58{fill:#f17125;}.cls-59{fill:#80351b;}.cls-60{fill:#75451c;}.cls-61{fill:#a66638;}.cls-62{fill:#925b24;}.cls-63{fill:#e69847;}.cls-64{fill:#5f2710;}.cls-65{fill:#fad2c6;}.cls-66{fill:#e4a58c;}.cls-67{fill:#efc35b;}.cls-68{fill:#c09232;}.cls-69{fill:#5b5447;}.cls-70{fill:#424036;}.cls-72{fill:#d09787;}.cls-73{fill:#580d0d;}.cls-75{fill:#431b15;}.cls-76{fill:#321213;stroke:#221f1f;}.cls-77{fill:#90866e;}.cls-78{fill:#605e43;}.cls-79,.cls-82{fill:#9f9681;opacity:0.5;}.cls-79,.cls-81{mix-blend-mode:multiply;}.cls-80,.cls-81{fill:#666253;}.cls-81{opacity:0.4;}.cls-82{mix-blend-mode:screen;}.cls-83{fill:#c48a74;}.cls-84{fill:#e13e26;}.cls-85{fill:#fddf0e;}.cls-86{fill:#281b17;}.cls-87{fill:#473a3a;}.cls-88{fill:#5e5454;}.cls-89{fill:#2aa6b7;}.cls-90{fill:#ebe1c8;stroke:#e2af9f;}.cls-91{clip-path:url(#clip-path-6);}.cls-92{clip-path:url(#clip-path-7);}.cls-93{fill:url(#linear-gradient-8);}.cls-94{fill:#75441b;}.cls-95{fill:#a76639;}.cls-96{clip-path:url(#clip-path-9);}.cls-97{clip-path:url(#clip-path-10);}.cls-98{fill:url(#linear-gradient-9);}.cls-99{clip-path:url(#clip-path-11);}.cls-100{clip-path:url(#clip-path-12);}.cls-101{fill:url(#linear-gradient-10);}.cls-102{clip-path:url(#clip-path-13);}.cls-103{clip-path:url(#clip-path-14);}.cls-104{fill:url(#linear-gradient-11);}</style><clipPath id="clip-path"><rect class="cls-1" x="-1300" width="1280" height="720"/></clipPath><clipPath id="clip-path-2"><rect class="cls-1" x="-1460" y="-90" width="1600" height="900"/></clipPath><clipPath id="clip-path-3"/><linearGradient id="linear-gradient" x1="-700.93" y1="-639.69" x2="-623.59" y2="1405.43" gradientUnits="userSpaceOnUse"><stop offset="0.21" stop-color="#a2d9d8"/><stop offset="0.22" stop-color="#9ad7d7"/><stop offset="0.24" stop-color="#86d1d4"/><stop offset="0.26" stop-color="#7acdd3"/><stop offset="0.27" stop-color="#76ccd2"/><stop offset="0.33" stop-color="#7acdd2"/><stop offset="0.39" stop-color="#86d1d2"/><stop offset="0.45" stop-color="#9ad6d2"/><stop offset="0.5" stop-color="#addcd2"/><stop offset="0.52" stop-color="#b5dfd6"/><stop offset="0.57" stop-color="#cae8e2"/><stop offset="0.62" stop-color="#ecf7f4"/><stop offset="0.64" stop-color="#fff"/><stop offset="1" stop-color="#c8e5d2"/></linearGradient><linearGradient id="linear-gradient-2" x1="-107.3" y1="427.75" x2="29.17" y2="101.46" gradientUnits="userSpaceOnUse"><stop offset="0.13" stop-color="#b8e1d8"/><stop offset="0.51" stop-color="#d0ebe5"/><stop offset="0.54" stop-color="#d2ece6"/></linearGradient><clipPath id="clip-path-4"><rect class="cls-1" width="1280" height="720"/></clipPath><clipPath id="clip-path-5"><rect class="cls-1" x="-160" y="-90" width="1600" height="900" transform="translate(1280 720) rotate(-180)"/></clipPath><linearGradient id="linear-gradient-3" x1="1239.07" y1="-639.69" x2="1316.41" y2="1405.43" gradientTransform="matrix(1, 0, 0, -1, -632.92, 697.84)" xlink:href="#linear-gradient"/><linearGradient id="linear-gradient-4" x1="67.34" y1="340.21" x2="188.01" y2="51.7" gradientTransform="translate(1099.53)" gradientUnits="userSpaceOnUse"><stop offset="0.06" stop-color="#a0d8d2"/><stop offset="0.48" stop-color="#addcd2"/><stop offset="0.96" stop-color="#afddd3"/></linearGradient><linearGradient id="linear-gradient-5" x1="1081.82" y1="704.53" x2="1202.49" y2="416.02" gradientTransform="translate(-900.63)" gradientUnits="userSpaceOnUse"><stop offset="0.06" stop-color="#f8fcf9"/><stop offset="0.18" stop-color="#e9f6f3"/><stop offset="0.41" stop-color="#c2e6e2"/><stop offset="0.59" stop-color="#9dd7d2"/></linearGradient><linearGradient id="linear-gradient-6" x1="1192.7" y1="427.75" x2="1329.17" y2="101.46" gradientTransform="translate(-1170.63)" xlink:href="#linear-gradient-2"/><linearGradient id="linear-gradient-7" x1="1512.15" y1="24.21" x2="1258.15" y2="379.02" gradientTransform="translate(-816.91)" gradientUnits="userSpaceOnUse"><stop offset="0.17" stop-color="#a2d9d8"/><stop offset="0.19" stop-color="#9ad7d7"/><stop offset="0.27" stop-color="#86d1d4"/><stop offset="0.35" stop-color="#7acdd2"/><stop offset="0.44" stop-color="#76ccd1"/></linearGradient><clipPath id="clip-path-6"><rect class="cls-1" x="1300" width="1280" height="720"/></clipPath><clipPath id="clip-path-7"><rect class="cls-1" x="1140" y="-90" width="1600" height="900"/></clipPath><linearGradient id="linear-gradient-8" x1="1921.4" y1="-619.56" x2="1997.24" y2="1386.15" xlink:href="#linear-gradient"/><clipPath id="clip-path-9"><rect class="cls-1" x="-1300" y="740" width="1280" height="720"/></clipPath><clipPath id="clip-path-10"><rect class="cls-1" x="-1460" y="651" width="1600" height="898"/></clipPath><linearGradient id="linear-gradient-9" x1="-647.46" y1="217.77" x2="-647.46" y2="1988.53" gradientUnits="userSpaceOnUse"><stop offset="0.08" stop-color="#a2d9d8"/><stop offset="0.09" stop-color="#9ad7d7"/><stop offset="0.12" stop-color="#86d1d4"/><stop offset="0.15" stop-color="#7acdd3"/><stop offset="0.18" stop-color="#76ccd2"/><stop offset="0.29" stop-color="#79cdd2"/><stop offset="0.35" stop-color="#81d0d2"/><stop offset="0.41" stop-color="#90d5d2"/><stop offset="0.45" stop-color="#a4dcd2"/><stop offset="0.46" stop-color="#a7ddd2"/><stop offset="0.5" stop-color="#afdfd3"/><stop offset="0.55" stop-color="#c4e5d5"/><stop offset="0.57" stop-color="#cde7d6"/><stop offset="0.65" stop-color="#f2f9f4"/><stop offset="1" stop-color="#c8e5d2"/></linearGradient><clipPath id="clip-path-11"><rect class="cls-1" y="740" width="1280" height="720"/></clipPath><clipPath id="clip-path-12"><rect class="cls-1" x="-160" y="651" width="1600" height="898"/></clipPath><linearGradient id="linear-gradient-10" x1="652.54" y1="217.77" x2="652.54" y2="1988.53" xlink:href="#linear-gradient-9"/><clipPath id="clip-path-13"><rect class="cls-1" x="1300" y="740" width="1280" height="720"/></clipPath><clipPath id="clip-path-14"><rect class="cls-1" x="980" y="651" width="1600" height="898"/></clipPath><linearGradient id="linear-gradient-11" x1="1761.12" y1="47.18" x2="1761.12" y2="2203.32" xlink:href="#linear-gradient-9"/></defs><g class="cls-2"><g id="Layer_1" data-name="Layer 1"><g class="cls-3"><g class="cls-4"><g id="Slide_1" data-name="Slide 1"><g class="cls-5"><rect class="cls-6" x="-1497.89" y="-124.04" width="1668.71" height="945.92"/><path class="cls-7" d="M95,346.68c-1.39-34.8-105.25-46.38-143.6-52.92C-167.26,273.51-272.92,339.12-237.39,369c8,6.74,23.93,5.5,37.11,7.8,24.47,4.27,137,3.61,194.5,0C5.67,376.08,95.72,364.68,95,346.68Z"/></g></g></g><path class="cls-8" d="M-4.88,643.83l.19-.32.23-.28.24-.27.27-.23c.18-.14.37-.28.56-.4s.39-.23.59-.34a14.26,14.26,0,0,1,2.48-.92c.85-.23,1.69-.4,2.55-.55l1.29-.18,1-.11,5.92-6.5L7.61,630.4c.06-.36.65-.88,1-.81s3.5,4.1,3.5,4.1l0,.15L12,634l-6.1,6.71c.19.08.38.15.57.25a6.8,6.8,0,0,1,.7.38c.23.13.44.29.66.44a8.52,8.52,0,0,1,1.19,1,7.79,7.79,0,0,1,.51.63,2.7,2.7,0,0,1,.22.33,2.7,2.7,0,0,1,.21.38.37.37,0,0,1-.15.5.39.39,0,0,1-.52-.14l0,0c0-.07-.11-.18-.17-.28l-.22-.27a4.6,4.6,0,0,0-.47-.52,7.8,7.8,0,0,0-1.11-.88,4.77,4.77,0,0,0-.62-.36,4.73,4.73,0,0,0-.64-.31c-.21-.1-.44-.16-.66-.26l-.27-.08H4.88l-.55,0a7.64,7.64,0,0,0-2.44,1.35,15.18,15.18,0,0,0-1.34,1.19c-.42.43-.83.89-1.2,1.35h0a.43.43,0,0,1-.58.08.42.42,0,0,1-.09-.59A15.72,15.72,0,0,1-.1,643.47a14.45,14.45,0,0,1,1.38-1.33l.45-.36c-.6.08-1.2.18-1.8.31a12.17,12.17,0,0,0-2.33.74,4.39,4.39,0,0,0-.53.27,4.19,4.19,0,0,0-.5.31l-.22.18-.2.19L-4,644l-.16.22,0,0a.39.39,0,0,1-.53.11A.4.4,0,0,1-4.88,643.83Z"/><path class="cls-9" d="M-88,590c6.25-15.43,21.72-23.95,41.67-19.1S20.85,588,44.35,580.38c2,23.48-8.76,44.13-36.85,57.24s-57.51-2-71.53-9.55c-22.69-12.28-22.48-19.67-25.11-29.78A19.12,19.12,0,0,1-88,590Z"/><path class="cls-10" d="M44.35,580.38c6.94-5.9,22.65-21.1,26.14-24.18s9.79-.59,6.47,4.31c6.2-.66,7,3,4,5.67,4.17-.69,8.36,2.12,4,5.75,4.62-.2,10.06,3.2.66,5.53S50.3,587.69,44,594C42.26,588,44.35,580.38,44.35,580.38Z"/><path class="cls-11" d="M46,580.81l4.27-2.94,4.36-3,2.46-1.72,2.53-1.78,2.52-1.79,2.43-1.75,2.28-1.64,2-1.5c.62-.47,1.21-.88,1.7-1.27l1.28-1,1.12-.89-1.13.87-1.3,1c-.5.38-1.09.79-1.71,1.25l-2,1.46-2.3,1.61-2.46,1.71c-.84.58-1.69,1.17-2.55,1.75L57,572.87l-2.48,1.68-4.41,3-4.31,2.87a.26.26,0,0,0-.08.35.25.25,0,0,0,.35.07Z"/><path class="cls-11" d="M47.48,584.59l4.58-2.84,4.7-2.9,2.66-1.62,2.75-1.66,2.76-1.66,2.68-1.58,2.51-1.47,2.27-1.29c.71-.39,1.34-.77,1.92-1.07l1.51-.79,1.32-.67-1.33.66-1.52.75c-.58.3-1.22.67-1.94,1l-2.29,1.25c-.81.46-1.65,1-2.53,1.44l-2.71,1.54L62,575.35,59.27,577l-2.69,1.58-4.74,2.82-4.62,2.78a.25.25,0,1,0,.26.43Z"/><path class="cls-11" d="M50.36,586.91,82.1,572.83,50.15,586.45a.25.25,0,0,0-.13.33.26.26,0,0,0,.33.14Z"/><path class="cls-12" d="M-42.74,573.85C-37.88,561-52.93,524-50.68,516.18s13.43,1.37,15.33,7.37c2.36-5.4,10.76-5.39,13.59,4.38,5.85-3.55,14.52-2.71,14.39,9.12,7.27-5.48,11.24,9.36,8,24.31s-14.39,29.17-20.7,30.52S-42.74,573.85-42.74,573.85Z"/><path class="cls-13" d="M-15.79,611.17c-17.81-.22-35.08-13.27-41.3-19.75s-15.22-8.94-22.52,1.93c-3.62,5.37-7.57,3.2-10.13,1.93C-89.89,593.42-88,590-88,590c6.25-15.43,21.72-23.95,41.67-19.1S20.85,588,44.35,580.38a62.92,62.92,0,0,1,.22,6.7C32.05,607.62,1.62,611.38-15.79,611.17Z"/><path class="cls-14" d="M-66.52,612.85c2.85,2.3,26.65,9.12,19.68-13,8.22,5.63,19.52,11.15,31.05,11.29,17.41.21,47.84-3.55,60.36-24.09-.42,20.68-11.68,38.69-37.07,50.54-28.09,13.12-57.51-2-71.53-9.55-10.81-5.86-16.42-10.6-19.62-15.05C-84.12,609.7-72.9,607.71-66.52,612.85Z"/><path class="cls-12" d="M-34.21,602.82C-11.38,587.07-8.54,569.75,2,552.12s33.68-46.47,32.92-24.8c12-6.34,10.3,13.68,6.47,21.93C49.7,547,48.05,559.71,40.07,567c5.13,1.12,3.76,13.54-4.63,18.86,1.56,2.51,1.28,10.64-12.06,17.79C-9,621-45.27,610.46-34.21,602.82Z"/><path class="cls-15" d="M-34.21,602.82c19.29-13.31,24.31-27.74,31.74-42.53,2.24-1.15,4-.24,2.88,5.17,3.44-2.67,5.25.74,3.19,5.11,3.83-1.84,3.47,3.72.92,6.76,4.18-.77,4.48,2.58,0,8.23,5.73-2,2.67,5.9-.63,8.84,6.09-1.61,4,4.8-1.72,7.91,2.59.36,2.89,4.91-2.61,9.55C-24,616-42.55,608.58-34.21,602.82Z"/><path class="cls-11" d="M3.71,559.33l3.7-5.08,3.83-5.19c1.39-1.9,2.9-3.91,4.41-5.93s3-4,4.46-5.89c.71-.94,1.42-1.83,2.08-2.69l1.87-2.4c.57-.75,1.13-1.41,1.61-2l1.24-1.54L28,527.25l-1.1,1.33-1.27,1.53c-.48.59-1.05,1.25-1.63,2l-1.9,2.38c-.67.85-1.39,1.73-2.11,2.67C18.54,539,17,541,15.45,543s-3.07,4-4.49,5.87L7.07,554,3.3,559a.25.25,0,0,0,.05.35.24.24,0,0,0,.35,0Z"/><path class="cls-11" d="M9.23,566.88l.37-.3,1.05-.82,1.58-1.36c.6-.53,1.28-1.12,2-1.79s1.51-1.4,2.33-2.18l1.25-1.2,1.3-1.27c.88-.86,1.78-1.77,2.69-2.69s1.82-1.86,2.74-2.8,1.81-1.91,2.69-2.86,1.74-1.88,2.56-2.8l1.2-1.36,1.14-1.31c.74-.85,1.41-1.69,2-2.45.32-.38.6-.75.88-1.11l.77-1c.48-.64.87-1.22,1.2-1.69s.54-.87.7-1.14l.24-.4-.24.4c-.17.26-.4.65-.72,1.13s-.73,1-1.21,1.68c-.25.31-.52.64-.79,1s-.57.73-.89,1.1c-.64.75-1.31,1.58-2.07,2.42-.37.42-.75.86-1.15,1.3l-1.22,1.34c-.83.91-1.71,1.83-2.59,2.77s-1.81,1.88-2.72,2.82-1.85,1.87-2.77,2.77-1.83,1.8-2.72,2.65L17.57,559l-1.27,1.18c-.82.78-1.62,1.49-2.35,2.15s-1.41,1.24-2,1.77l-1.59,1.31-1,.82-.38.28h0a.25.25,0,0,0-.05.35.27.27,0,0,0,.36,0Z"/><path class="cls-11" d="M10.11,579.08s2-1.21,5-3.09c1.49-.93,3.22-2,5.06-3.26.92-.61,1.87-1.23,2.83-1.89s1.93-1.3,2.89-2,1.92-1.35,2.85-2l1.39-1,1.34-1c.43-.33.87-.65,1.28-1l1.21-1c.8-.62,1.52-1.25,2.18-1.83.33-.29.66-.55,1-.83s.57-.54.83-.78l.73-.69c.23-.21.41-.43.59-.62l1.1-1.18s-.41.42-1.11,1.17c-.19.18-.37.4-.6.6l-.74.68-.84.78c-.29.26-.62.53-1,.81-.67.57-1.4,1.19-2.2,1.8l-1.22,1c-.42.33-.86.64-1.3,1l-1.35,1-1.4,1c-.94.67-1.91,1.34-2.88,2s-1.95,1.3-2.91,1.94-1.92,1.25-2.84,1.85c-1.86,1.19-3.6,2.27-5.11,3.19-3,1.84-5,3-5,3a.26.26,0,0,0-.09.35.25.25,0,0,0,.34.09Z"/><path class="cls-11" d="M11.05,589.61l.31-.09.87-.28,1.34-.45c.52-.19,1.1-.39,1.73-.63l2-.8c.72-.28,1.46-.62,2.23-.94s1.57-.7,2.36-1.1,1.6-.77,2.39-1.19l1.19-.63,1.16-.65,1.14-.65,1.09-.67c.36-.22.72-.43,1.06-.65l1-.66.94-.62c.3-.2.57-.42.85-.61.54-.4,1-.76,1.47-1.09l1.1-.89,1-.77-1,.76-1.11.87-1.5,1c-.28.19-.55.4-.86.6l-.94.61-1,.63-1.06.64-1.1.64c-.38.22-.76.42-1.15.63l-1.17.63-1.19.6c-.8.41-1.61.78-2.41,1.15s-1.6.71-2.36,1.05-1.52.63-2.24.9-1.4.53-2,.76-1.21.42-1.73.59-1,.32-1.34.43-.66.21-.86.26l-.31.09h0a.25.25,0,0,0,.14.48Z"/><path class="cls-11" d="M9.2,602.84s1.46-.51,3.62-1.34c1.09-.41,2.35-.91,3.69-1.46l2.06-.85c.7-.31,1.42-.6,2.12-.92s1.42-.63,2.1-1l1-.48,1-.5,1-.47.9-.49.85-.46.78-.46L29,594l.63-.41c.39-.27.74-.48,1-.7l.84-.66-.85.64c-.27.21-.62.42-1,.68L29,594l-.72.41-.79.44-.86.45-.9.46-1,.46-1,.47-1,.46c-.69.32-1.41.61-2.12.91s-1.43.59-2.13.88l-2.08.81c-1.35.52-2.61,1-3.7,1.38-2.18.78-3.65,1.27-3.65,1.27a.25.25,0,1,0,.16.47Z"/><path class="cls-8" d="M-16,648.76l.22-.36.26-.34.29-.3.31-.27a8,8,0,0,1,.66-.48l.69-.39a15.71,15.71,0,0,1,2.91-1.08,27.4,27.4,0,0,1,3-.64c.5-.09,1-.16,1.51-.21s.79-.1,1.2-.13l6.92-7.63L-1.41,633c.07-.42.76-1,1.18-1s4.09,4.81,4.09,4.81l0,.17-.1.15-7.15,7.86c.23.1.45.18.67.3s.55.28.82.45.52.34.78.51a9.63,9.63,0,0,1,1.39,1.24,8.19,8.19,0,0,1,.59.73,3.39,3.39,0,0,1,.27.39,4.31,4.31,0,0,1,.25.44.45.45,0,0,1-.8.42l0,0c-.05-.08-.13-.22-.2-.32l-.25-.33a5.3,5.3,0,0,0-.56-.6,7.71,7.71,0,0,0-1.3-1c-.24-.14-.46-.3-.71-.42a7.51,7.51,0,0,0-.76-.36c-.25-.12-.52-.2-.78-.3l-.31-.09h-.29l-.64,0a9,9,0,0,0-2.86,1.58,17.26,17.26,0,0,0-1.57,1.4,20.67,20.67,0,0,0-1.4,1.57v0a.51.51,0,0,1-.68.09.51.51,0,0,1-.11-.69,21.73,21.73,0,0,1,1.43-1.72,18.28,18.28,0,0,1,1.62-1.55l.53-.42q-1.06.14-2.1.36a14.59,14.59,0,0,0-2.74.87c-.22.09-.42.2-.63.31s-.39.24-.57.36l-.27.21-.23.23-.22.24-.17.26,0,.06a.46.46,0,0,1-.62.13A.46.46,0,0,1-16,648.76Z"/><path class="cls-8" d="M150.87,713.91l.19-.31.23-.29.24-.26.27-.23c.18-.14.37-.28.56-.4s.39-.23.59-.34a14.26,14.26,0,0,1,2.48-.92,25.2,25.2,0,0,1,2.55-.55l1.29-.18,1-.11,5.92-6.51-2.85-3.32c.06-.36.65-.88,1-.82s3.5,4.11,3.5,4.11l0,.15-.08.12-6.1,6.71c.19.09.38.16.56.26a4.84,4.84,0,0,1,.71.38c.23.13.44.28.66.43a8.58,8.58,0,0,1,1.19,1.06,7.79,7.79,0,0,1,.51.63,2.7,2.7,0,0,1,.22.33,3.25,3.25,0,0,1,.21.37.38.38,0,0,1-.67.36l0,0-.17-.28-.22-.27a4.6,4.6,0,0,0-.47-.52,7.22,7.22,0,0,0-1.11-.89c-.2-.12-.4-.25-.62-.36a6.27,6.27,0,0,0-.64-.3c-.21-.1-.44-.17-.66-.26l-.27-.08h-.24l-.55,0a7.45,7.45,0,0,0-2.44,1.35,13.73,13.73,0,0,0-1.34,1.19,17,17,0,0,0-1.2,1.35h0a.42.42,0,0,1-.58.07.41.41,0,0,1-.09-.58,15.72,15.72,0,0,1,1.22-1.46,14.45,14.45,0,0,1,1.38-1.33l.45-.36c-.6.08-1.2.18-1.8.31a12.89,12.89,0,0,0-2.33.73l-.53.27c-.18.1-.34.21-.5.32l-.22.18-.2.18-.18.21-.16.23,0,0a.39.39,0,0,1-.66-.43Z"/><path class="cls-9" d="M67.77,660.13c6.25-15.43,21.72-24,41.67-19.1s67.16,17.09,90.66,9.44c2,23.48-8.76,44.12-36.85,57.24s-57.51-2-71.53-9.56C69,685.87,69.24,678.48,66.61,668.38A19.12,19.12,0,0,1,67.77,660.13Z"/><path class="cls-16" d="M200.1,650.47c6.94-5.9,22.65-21.1,26.14-24.18s9.79-.59,6.47,4.31c6.2-.66,7,3,4,5.66,4.17-.68,8.36,2.13,4,5.76,4.62-.21,10.06,3.2.66,5.52s-35.39,10.24-41.68,16.57C198,658.07,200.1,650.47,200.1,650.47Z"/><path class="cls-17" d="M201.79,650.9l4.27-2.95,4.36-3,2.46-1.71,2.53-1.79,2.52-1.78,2.43-1.75,2.28-1.64c.71-.54,1.39-1,2-1.5s1.21-.88,1.7-1.27l1.28-1,1.12-.89-1.13.87-1.3,1c-.5.38-1.09.79-1.71,1.25l-2,1.46-2.3,1.61-2.46,1.71-2.55,1.75L212.71,643l-2.48,1.68-4.41,3-4.31,2.88a.25.25,0,1,0,.27.42Z"/><path class="cls-17" d="M203.23,654.68l4.58-2.85,4.7-2.89,2.66-1.62,2.75-1.66,2.76-1.66,2.68-1.58c.87-.51,1.71-1,2.51-1.48l2.27-1.28c.71-.39,1.34-.78,1.92-1.07l1.51-.79,1.32-.68-1.33.66-1.52.76c-.58.3-1.22.67-1.94,1.05l-2.29,1.25c-.81.45-1.65.94-2.53,1.44l-2.71,1.54-2.78,1.62L215,647.06l-2.69,1.59-4.74,2.82L203,654.25a.25.25,0,0,0-.09.34.26.26,0,0,0,.35.09Z"/><path class="cls-17" d="M206.11,657l31.74-14.08L205.9,656.54a.25.25,0,0,0-.13.33.25.25,0,0,0,.33.13Z"/><path class="cls-18" d="M113,643.94c4.86-12.82-10.19-49.83-7.94-57.67s13.43,1.37,15.33,7.37c2.36-5.4,10.76-5.4,13.59,4.38,5.85-3.56,14.52-2.72,14.39,9.11,7.26-5.47,11.24,9.37,8,24.32S142,660.62,135.69,662,113,643.94,113,643.94Z"/><path class="cls-19" d="M119.46,621.16c2.52-3.43,5.19-2.06,7.24,2.15,2.77-4.52,7.16-1.86,8.37,2.81,1.28-4.32,5.7-1.92,6.53,3.08,2.35-4.64,5.61-1.29,5.11,4.08,3.31-3.62,5.29,3,5.24,6.85a1.66,1.66,0,0,1,1.71,0c-4.7,11.4-12.9,20.78-18,21.87-6.3,1.34-22.68-18-22.68-18,1.77-4.67.89-12.56-.82-21.07C113.73,618.33,118.42,617.74,119.46,621.16Z"/><path class="cls-17" d="M115.56,615.56s-.28-1.55-.71-3.88-1-5.42-1.67-8.51c-.32-1.55-.65-3.09-1-4.53-.17-.73-.32-1.43-.48-2.08s-.31-1.28-.46-1.86-.28-1.1-.43-1.56-.24-.86-.35-1.19l-.36-1s.12.38.34,1c.1.33.2.73.33,1.2s.25,1,.39,1.56.27,1.2.43,1.86.28,1.37.44,2.09c.29,1.44.59,3,.89,4.55.57,3.1,1.11,6.2,1.49,8.54s.63,3.89.63,3.89h0a.25.25,0,0,0,.28.21.25.25,0,0,0,.21-.29Z"/><path class="cls-17" d="M126,619s0-.35,0-1,0-1.49,0-2.53,0-2.27-.06-3.58c0-.66,0-1.33-.05-2s0-1.38-.08-2.08,0-1.39-.09-2.08-.07-1.36-.11-2-.08-1.28-.13-1.88-.1-1.16-.14-1.68-.09-1-.15-1.42-.11-.79-.15-1.09c-.08-.61-.12-1-.12-1s0,.35.1,1c0,.3.07.67.12,1.09s.1.9.12,1.42.07,1.09.1,1.69.08,1.23.1,1.88,0,1.33.06,2,0,1.38,0,2.07l0,2.09c0,.68,0,1.36,0,2,0,1.31,0,2.53,0,3.57s0,1.92,0,2.53,0,1,0,1a.26.26,0,0,0,.25.26A.26.26,0,0,0,126,619Z"/><path class="cls-17" d="M136.73,619.71s.35-4.33.49-8.68c0-1.08.06-2.17.06-3.19,0-.5,0-1,0-1.46s0-.91,0-1.32c0-.2,0-.4,0-.58s0-.36,0-.53c0-.33,0-.62-.07-.85-.05-.48-.09-.75-.09-.75s0,.27.07.75c0,.23,0,.52,0,.85,0,.17,0,.34,0,.53v.58c0,.41,0,.85,0,1.31s0,1,0,1.47c0,1-.09,2.1-.15,3.18-.27,4.33-.74,8.64-.74,8.64a.25.25,0,1,0,.5.06Z"/><path class="cls-17" d="M145.15,623.28s.39-3.93.67-7.87c.07-1,.14-2,.19-2.89,0-.46,0-.91.06-1.33s0-.83,0-1.2,0-.71,0-1,0-.56,0-.78-.05-.38-.06-.5l0-.17a1.06,1.06,0,0,0,0,.17c0,.12,0,.28,0,.5s0,.48,0,.78,0,.64,0,1,0,.77-.08,1.19-.06.87-.1,1.32c-.08.93-.18,1.91-.28,2.89-.41,3.92-.92,7.83-.92,7.83a.26.26,0,0,0,.21.29.27.27,0,0,0,.29-.22Z"/><path class="cls-17" d="M151.45,627.41s.6-3.67,1-7.37c0-.47.09-.93.12-1.39s.07-.9.09-1.34,0-.85.06-1.25,0-.78,0-1.13,0-.67,0-.95,0-.53,0-.73c0-.4-.06-.64-.06-.64s0,.24,0,.64c0,.21,0,.45,0,.73s0,.6,0,.95,0,.72-.06,1.12-.06.82-.1,1.25-.09.88-.15,1.33-.1.92-.16,1.38c-.12.92-.26,1.83-.39,2.69s-.27,1.66-.39,2.34c-.24,1.37-.42,2.28-.42,2.28a.25.25,0,0,0,.2.3.26.26,0,0,0,.3-.2Z"/><path class="cls-20" d="M140,681.26c-17.81-.23-35.08-13.27-41.3-19.75s-15.22-8.94-22.52,1.92c-3.62,5.38-7.58,3.21-10.13,1.94-.15-1.86,1.76-5.24,1.76-5.24,6.25-15.43,21.72-24,41.67-19.1s67.16,17.09,90.66,9.44a62.92,62.92,0,0,1,.22,6.7C187.8,677.71,157.37,681.47,140,681.26Z"/><path class="cls-21" d="M66,665.37c2.55,1.27,6.51,3.44,10.13-1.94,7.3-10.86,16.3-8.41,22.52-1.92A68.42,68.42,0,0,0,108.91,670c7,22.09-16.83,15.27-19.68,13-6.38-5.15-17.6-3.15-17.13.16-3.51-4.89-4.11-9.43-5.49-14.72A24.45,24.45,0,0,1,66,665.37Z"/><path class="cls-22" d="M89.23,682.94c2.85,2.3,26.65,9.12,19.68-13,8.22,5.63,19.52,11.14,31.05,11.29,17.41.21,47.84-3.55,60.36-24.09-.42,20.68-11.68,38.69-37.07,50.54-28.09,13.12-57.51-2-71.53-9.56-10.81-5.85-16.42-10.59-19.62-15C71.63,679.79,82.85,677.79,89.23,682.94Z"/><path class="cls-23" d="M121.54,672.91c22.83-15.76,25.67-33.07,36.18-50.7s33.68-46.48,32.92-24.8c12-6.34,10.3,13.68,6.47,21.93,8.34-2.27,6.69,10.46-1.29,17.76,5.13,1.13,3.76,13.55-4.63,18.86,1.56,2.51,1.28,10.65-12.06,17.8C146.73,691.12,110.48,680.54,121.54,672.91Z"/><path class="cls-16" d="M121.54,672.91c19.29-13.31,24.31-27.74,31.74-42.53,2.24-1.15,4-.25,2.88,5.16,3.44-2.66,5.25.74,3.19,5.12,3.83-1.84,3.47,3.72.92,6.75,4.18-.77,4.48,2.59,0,8.24,5.73-2,2.67,5.9-.63,8.83,6.09-1.6,4,4.81-1.72,7.92,2.59.36,2.89,4.9-2.61,9.55C131.78,686.1,113.2,678.67,121.54,672.91Z"/><path class="cls-17" d="M159.46,629.41l3.7-5.08,3.83-5.18c1.39-1.91,2.9-3.91,4.41-5.93s3-4,4.46-5.89c.71-.94,1.42-1.83,2.08-2.69l1.87-2.4c.57-.75,1.13-1.41,1.61-2l1.24-1.55,1.09-1.34-1.1,1.33-1.27,1.53c-.48.59-1,1.25-1.63,2s-1.23,1.53-1.9,2.38-1.39,1.73-2.11,2.66c-1.45,1.87-3,3.84-4.54,5.84s-3.07,4-4.49,5.87l-3.89,5.14-3.77,5a.25.25,0,0,0,.4.3h0Z"/><path class="cls-17" d="M165,637l.37-.29,1.05-.82,1.58-1.36c.6-.53,1.28-1.12,2-1.8s1.51-1.39,2.33-2.18l1.25-1.2,1.3-1.26c.88-.86,1.78-1.77,2.69-2.69s1.82-1.87,2.74-2.81,1.81-1.9,2.69-2.85,1.74-1.88,2.56-2.81c.41-.45.81-.91,1.2-1.35l1.14-1.32c.74-.85,1.41-1.68,2-2.44.32-.38.6-.76.88-1.11l.77-1c.48-.64.87-1.22,1.2-1.69s.54-.88.7-1.14l.24-.4-.24.4c-.17.26-.4.65-.72,1.13s-.73,1-1.21,1.67l-.79,1c-.28.35-.57.73-.89,1.1-.64.75-1.31,1.58-2.07,2.42l-1.15,1.3-1.22,1.34c-.83.91-1.71,1.83-2.59,2.77s-1.81,1.88-2.72,2.82-1.85,1.87-2.77,2.77-1.83,1.8-2.72,2.65l-1.31,1.25-1.27,1.18c-.82.78-1.62,1.49-2.35,2.15l-2,1.77c-.62.5-1.15,1-1.59,1.31l-1,.82-.38.28h0a.26.26,0,0,0,.31.41Z"/><path class="cls-17" d="M165.86,649.17s2-1.21,5-3.09c1.49-.94,3.22-2.05,5.06-3.26l2.83-1.89c1-.65,1.93-1.3,2.89-2s1.92-1.35,2.85-2l1.39-1,1.34-1c.43-.33.87-.65,1.28-1l1.21-1c.8-.62,1.52-1.25,2.18-1.83.33-.29.66-.56.95-.83l.83-.78.73-.69c.23-.21.41-.44.59-.62l1.1-1.18L195,628.15c-.18.18-.36.4-.59.6l-.74.68-.84.77c-.29.27-.62.54-1,.82-.67.57-1.4,1.19-2.2,1.8l-1.22,1-1.3,1-1.35,1-1.4,1c-.94.67-1.91,1.33-2.88,2s-1.95,1.3-2.91,1.94-1.92,1.25-2.84,1.85c-1.86,1.18-3.6,2.27-5.11,3.19-3,1.84-5,3-5,3a.25.25,0,0,0-.09.34.24.24,0,0,0,.34.1Z"/><path class="cls-17" d="M166.8,659.7l.31-.09.87-.28,1.34-.45c.52-.19,1.1-.39,1.73-.64s1.31-.5,2-.79,1.46-.62,2.23-1,1.57-.69,2.36-1.09,1.6-.77,2.39-1.19l1.19-.63,1.16-.65,1.14-.65,1.09-.67,1.06-.65,1-.66.94-.62c.3-.2.57-.42.85-.61l1.47-1.09,1.1-.89,1-.77-1,.76c-.31.23-.68.53-1.11.86l-1.5,1.06c-.28.19-.55.4-.86.6l-.94.6-1,.64-1.06.63-1.1.65-1.15.63-1.17.63-1.19.6c-.8.41-1.61.78-2.41,1.15s-1.6.71-2.36,1-1.52.64-2.24.91-1.4.53-2,.75-1.21.43-1.73.6l-1.34.43-.86.26-.31.08h0a.25.25,0,0,0-.17.31.25.25,0,0,0,.31.17Z"/><path class="cls-17" d="M165,672.93s1.46-.52,3.62-1.34c1.09-.42,2.35-.91,3.69-1.46l2.06-.86c.7-.3,1.42-.59,2.12-.92s1.42-.62,2.1-1l1-.49,1-.49,1-.48.9-.48.85-.46.78-.47.71-.42.63-.42a12,12,0,0,0,1-.69l.84-.66-.85.64c-.27.21-.62.42-1,.67l-.63.41-.72.41-.79.44c-.27.15-.56.29-.86.44l-.9.47-1,.46-1,.46-1,.47c-.69.32-1.41.61-2.12.91s-1.43.59-2.13.88l-2.08.81c-1.35.51-2.61,1-3.7,1.38-2.18.78-3.65,1.26-3.65,1.26a.25.25,0,1,0,.16.48Z"/><path class="cls-8" d="M139.71,718.85l.22-.37.26-.33.29-.31.31-.27a7.85,7.85,0,0,1,.66-.47l.69-.39a15,15,0,0,1,2.91-1.08,27.43,27.43,0,0,1,3-.65c.5-.08,1-.15,1.51-.21s.79-.09,1.2-.12l6.92-7.63-3.33-3.9c.07-.42.76-1,1.18-1s4.09,4.81,4.09,4.81l0,.17-.1.14-7.15,7.87a5.71,5.71,0,0,1,.67.3c.28.14.55.28.82.44s.52.34.78.52a9.63,9.63,0,0,1,1.39,1.24,8.06,8.06,0,0,1,.59.72,3.51,3.51,0,0,1,.27.4c.09.14.16.26.25.43a.47.47,0,0,1-.18.6.46.46,0,0,1-.62-.17l0,0c0-.09-.13-.22-.2-.32s-.17-.22-.25-.33a6.42,6.42,0,0,0-.56-.61,8.18,8.18,0,0,0-1.3-1c-.24-.14-.46-.3-.71-.42a7.51,7.51,0,0,0-.76-.36c-.25-.12-.52-.2-.78-.3a1.58,1.58,0,0,0-.31-.09h-.29l-.64,0a9,9,0,0,0-2.86,1.57,19,19,0,0,0-1.57,1.41,20.67,20.67,0,0,0-1.4,1.57h0a.49.49,0,0,1-.79-.59,20.06,20.06,0,0,1,1.43-1.72,18.28,18.28,0,0,1,1.62-1.55c.17-.15.35-.29.53-.43-.71.1-1.41.22-2.1.37a14.59,14.59,0,0,0-2.74.87c-.22.09-.42.2-.63.31s-.39.24-.57.36l-.27.21-.23.23-.22.24-.17.26,0,.06a.48.48,0,0,1-.62.13A.46.46,0,0,1,139.71,718.85Z"/><path class="cls-24" d="M78.8,661.58a5.14,5.14,0,1,0,6.83-2.47A5.13,5.13,0,0,0,78.8,661.58Z"/><path class="cls-25" d="M79.88,662.2a3.38,3.38,0,1,0,4.5-1.62A3.37,3.37,0,0,0,79.88,662.2Z"/><path class="cls-26" d="M83.54,661.61a1.64,1.64,0,1,0,2.18-.78A1.64,1.64,0,0,0,83.54,661.61Z"/><path class="cls-27" d="M65.78,661.37s-8.62,1.93-8.27,2.9,8.86,7.14,10.47,6.81c1.11-.22,3.23-2.52,3.63-3.68s-1.73-1.75-2.28-2.28S67.71,660.91,65.78,661.37Z"/></g><g class="cls-28"><g class="cls-29"><rect class="cls-30" x="-190.81" y="-124.04" width="1668.71" height="945.92" transform="translate(1287.08 697.84) rotate(-180)"/><path class="cls-31" d="M1336.77,268.92c-1.16-34.8-87.61-46.38-119.53-52.92-98.78-20.25-186.72,45.36-157.14,75.23,6.67,6.74,19.91,5.5,30.88,7.8,20.37,4.27,114,3.61,161.9,0C1262.41,298.32,1337.37,286.92,1336.77,268.92Z"/><path class="cls-32" d="M351.09,633.24c-1.16-34.8-87.61-46.38-119.53-52.92-98.78-20.25-186.72,45.36-157.14,75.23,6.67,6.74,19.91,5.5,30.88,7.8,20.37,4.27,114.05,3.61,161.9,0C276.73,662.64,351.69,651.24,351.09,633.24Z"/><path class="cls-33" d="M224.37,346.68c-1.39-34.8-105.25-46.38-143.6-52.92C-37.89,273.51-143.55,339.12-108,369c8,6.74,23.93,5.5,37.11,7.8,24.47,4.27,137,3.61,194.5,0C135,376.08,225.09,364.68,224.37,346.68Z"/><path class="cls-34" d="M523.51,99.77C526.39,92.3,597.79,59.33,670.24,72c75.2,19.19,106.38,57.12,33.93,61.45s-132.06-3.25-149.48-5.42S514.33,123.51,523.51,99.77Z"/></g><polygon class="cls-35" points="354.42 99.1 373.58 298.21 377.12 298.21 357.21 99.1 354.42 99.1"/><polygon class="cls-35" points="211.74 98.89 192.58 298 189.03 298 208.94 98.89 211.74 98.89"/><path class="cls-36" d="M356.17,241.08c-3.94,11.87-15.77,15.15-33.75,8-15.75-6.25-27.38-8.79-23-30.23,2.48-12.26,20.17-17.16,36.25-11.83S360.1,229.21,356.17,241.08Z"/><path class="cls-36" d="M358.23,219.18c.32.72,2,24-7.73,29.48-15.49,8.66-21,.51-21,.51Z"/><path class="cls-37" d="M339.91,253.52s-3,3.16-3.53,2.86S318,253,321,251.33a5.12,5.12,0,0,0,2-2c1.19-2.14.91-5-1.95-5.57,0,0,16.87-1.18,15.81,1.91a16,16,0,0,0-.52,6.59l.57.36Z"/><path class="cls-38" d="M336.81,245.66a14.06,14.06,0,0,0-.69,5.78l-.57.36c-7,1.12-9.83-.63-12.33-2.56,1.19-2.15.64-4.9-2.22-5.49C321,243.75,337.87,242.57,336.81,245.66Z"/><path class="cls-39" d="M305.73,256.42l-5.59,6.13,3.22,4.92,5,4.35,3.54-4.13-2.25,31.75a20.4,20.4,0,0,0,18.61,9.77c14.17-.45,5.39-11.28,5.39-11.28s9.24-20.4,8.9-24.37c0-.05,1.48-5.36,1.47-5.42-.35-4.61.89-7.59.33-10.65,0,0-3.88-5.12-8.24-5.54l.33-.81s-.36,3.25-7,2.75-7-4.8-7-4.8l-3.54.75C314.4,249,311.19,250.38,305.73,256.42Z"/><path class="cls-40" d="M343,270.06c-.85-.54-.36.71-3,.45-8-.8-17.31.26-26.46-6.09l-.69.8c-4.67,11.12-10.17,25.09-10.47,37.15h0s25.68,26,49.4,5.89l-6.32-5c-1.54-6.87-4.19-17.91-3.47-24.92l.49-4.8Z"/><path class="cls-40" d="M338.42,252.55a50.68,50.68,0,0,1-1.55,19.08.8.8,0,0,0,.13.7l1.26,1.68a.8.8,0,0,0,1.3,0l1.42-1.36c0-.08.27-.1.29-.19.34-1.28,2.24-11.47-.7-20a.85.85,0,0,0-.45-.48l-.58-.25A.81.81,0,0,0,338.42,252.55Z"/><path class="cls-40" d="M320.71,250.26c-.76,3-2.74,11.46-2.53,18.31a1,1,0,0,1-.52.9l-1.52.82a1,1,0,0,1-1.35-.43l-1.06-2.12a1,1,0,0,1-.1-.58,73.94,73.94,0,0,1,5.22-17.54,1,1,0,0,1,1-.58h0A1,1,0,0,1,320.71,250.26Z"/><circle class="cls-41" cx="318.64" cy="292.23" r="3.28"/><circle class="cls-41" cx="318.77" cy="281.12" r="3.28"/><circle class="cls-41" cx="311.12" cy="286.85" r="3.28"/><ellipse class="cls-41" cx="338.37" cy="281.53" rx="2.28" ry="3.28"/><ellipse class="cls-41" cx="339.02" cy="289.97" rx="2.28" ry="3.28"/><circle class="cls-41" cx="308.85" cy="294.64" r="3.28"/><circle class="cls-41" cx="334.76" cy="296.13" r="3.28"/><path class="cls-41" d="M338.71,299a3.28,3.28,0,0,0,3.38,3.18c1.81-.06,1-1.47,1-3.28s.65-3.34-1.16-3.28A3.27,3.27,0,0,0,338.71,299Z"/><circle class="cls-41" cx="326.92" cy="293.27" r="3.28"/><circle class="cls-41" cx="320.36" cy="297.11" r="3.28"/><circle class="cls-41" cx="330.29" cy="284.4" r="3.28"/><circle class="cls-41" cx="324.29" cy="275.5" r="3.28"/><circle class="cls-41" cx="333.02" cy="275.51" r="3.28"/><ellipse class="cls-41" cx="312.04" cy="276.17" rx="2.76" ry="3.28" transform="translate(-8.48 9.89) rotate(-1.79)"/><ellipse class="cls-41" cx="308.3" cy="301.65" rx="2.51" ry="2.98" transform="translate(-9.28 9.79) rotate(-1.79)"/><path class="cls-26" d="M338.92,241.55s5.38.56,7.21,4.58C344.51,246.69,342.86,247.46,338.92,241.55Z"/><path class="cls-37" d="M357.9,224.59c0-.11-.17,0-.08.1s.18,0,.25-.11a6.65,6.65,0,0,1,2.93-1.87,2.63,2.63,0,0,1,2.31.17c.92.67,1,2.11.69,3.28a10.65,10.65,0,0,1-2.72,5c-2.31,2.41-6,3.58-8.82,2.15"/><path class="cls-42" d="M360.3,226.45a9.8,9.8,0,0,0-1.24.76c-.32.23-.67.61-.57,1s.46.46.51.8a.72.72,0,0,1-.6.71c-.31,0-.61-.05-.92,0a1.41,1.41,0,0,0-1.05.83,1.14,1.14,0,0,0-.11.51.79.79,0,0,0,.79.73,2.16,2.16,0,0,0,1.1-.41,9.31,9.31,0,0,0,2.2-1.68C361.4,228.59,363.09,225,360.3,226.45Z"/><path class="cls-43" d="M354.64,232s-3.49,3.22-1.81,5S356,233.9,356,233.9s-2.28,3.58-1.81.86Z"/><path class="cls-37" d="M363.5,214.67c-.31.36-4.9,14.27-6.72,20.91-2.13,7.77-12.23,15.85-21.5,14.71-11.37-1.39-21-6.89-24.62-16.44s-.8-21.6-.8-21.6-7.12-13.83,5.28-22.55,26-10.91,41.92-4S363.5,214.67,363.5,214.67Z"/><path class="cls-42" d="M321,205c.6-.18,14.32-8.82,14.32-8.82s-7,5.66-3.76,5.72c.91,0,9.17-2.27,12.24-5.09,0,0-2,4.9-4.88,5.31,0,0,11.23,3.13,16.43-5.05,0,0-2.31,4.42,5.58,10.1,6.12,4.4.85,12.15.85,12.15l5.45-17.54L361,192.57l-18.28-4.82-16,1.75L318.93,201l-9.07,11.28Z"/><path class="cls-36" d="M360.81,222.42c.65-2.52,1.77-10.16.78-12.56-2-4.85-5.26-6.11-7-8-1.14-1.21-.15-5.57-1.1-6.92s-.08,1.76,0,0c-1.2,2.5-1.11,4.3-3.72,5.23a19.9,19.9,0,0,1-7.71,1,11.87,11.87,0,0,0,3.68-3.58c.94-1.67,1.1-3.64,1.61-5.49a30,30,0,0,1-16.24,8.85,13.91,13.91,0,0,0,5.39-7.49,4.66,4.66,0,0,0-2.4,1.16,87.59,87.59,0,0,1-13,8.71c.06-.76-.24-1.45-.18-2.21-2.61,4.75-11.6,12.9-11.5,12.61,0,0-3.67,23.74,14.27,33.4,0,0-10.31.92-18.77-3.71-8.89-4.87-13-15.24-5.48-29.8s4.39-21.41,10.35-29.92c7.1-10.12,27.3-20.79,52.31,1.44,0,0,12.48,7.2,2.52,31.51C364.57,216.6,360.6,223.22,360.81,222.42Z"/><path class="cls-44" d="M352.44,209.86s4.85-.27,6.54,3.53a.16.16,0,0,0,.3,0A4,4,0,0,0,356.4,209C352,207.36,352.44,209.86,352.44,209.86Z"/><path class="cls-44" d="M334.53,206.14s-5.11-1.8-8.23,1.27a.18.18,0,0,1-.31-.15c.26-1,1.21-3.14,4.59-3.21C335.91,203.92,334.53,206.14,334.53,206.14Z"/><path class="cls-45" d="M344.05,222.07a4.84,4.84,0,0,0-.66,3.44,5.14,5.14,0,0,0,.63,1.6c.14.23.31.53.49.84a3.34,3.34,0,0,1,.29,1.05,2.44,2.44,0,0,1-.8,2.08,3.13,3.13,0,0,1-2,.75,5.29,5.29,0,0,1-3.62-1.52l.08,0a2.26,2.26,0,0,1-1-.82,1,1,0,0,1-.11-.67,1.29,1.29,0,0,1,.33-.54,1.16,1.16,0,0,0-.16.56.66.66,0,0,0,.18.48,2,2,0,0,0,1,.49h0l.06,0a5.3,5.3,0,0,0,3.24,1,2.4,2.4,0,0,0,1.41-.55,1.56,1.56,0,0,0,.49-1.27,2.31,2.31,0,0,0-.19-.74c-.11-.24-.23-.49-.4-.81a5.32,5.32,0,0,1-.56-1.92A4.44,4.44,0,0,1,344.05,222.07Z"/><path class="cls-46" d="M365.07,187.74a32.3,32.3,0,0,0-11.19-5.44c-19.26-5.08-39.55,8.54-45.31,30.41-.12.42-.22.84-.32,1.26q-1-.48-2-.9.21-.93.45-1.86c5.77-21.87,26.06-35.48,45.32-30.4A32.18,32.18,0,0,1,365.07,187.74Z"/><path class="cls-47" d="M309.32,214.64c.06-.08.15.14,0,.14s-.17-.13-.2-.23a7.33,7.33,0,0,0-2.06-3.19,3.57,3.57,0,0,0-2.5-1.1,3.09,3.09,0,0,0-2.5,2.44,9.34,9.34,0,0,0,.14,5.77,9.8,9.8,0,0,0,8.06,6.6"/><path class="cls-48" d="M309.32,214.64c.07-.07.13.09.07.13a.16.16,0,0,1-.2-.08c-.08-.14-.11-.28-.17-.41a5.56,5.56,0,0,0-.37-.78,6.81,6.81,0,0,0-1-1.39,4.42,4.42,0,0,0-2.8-1.66,2.6,2.6,0,0,0-2.37,1.86,8.25,8.25,0,0,0-.53,3.31,9.83,9.83,0,0,0,2.47,6.18,9.49,9.49,0,0,0,5.87,3.27,8.83,8.83,0,0,1-3.36-.89,10.72,10.72,0,0,1-2.8-2.12,10,10,0,0,1-2.67-6.43,8.59,8.59,0,0,1,.6-3.5,4,4,0,0,1,1.06-1.48,2.42,2.42,0,0,1,1.75-.58,4.7,4.7,0,0,1,3,1.89,7.39,7.39,0,0,1,.92,1.49,5.68,5.68,0,0,1,.32.81,2.47,2.47,0,0,0,.14.41.14.14,0,0,0,.16.09C309.43,214.74,309.39,214.58,309.32,214.64Z"/><path class="cls-42" d="M305.81,215a11.73,11.73,0,0,1,.89,1.32c.2.36.37.87.05,1.15s-.72.15-.95.41-.05.72.24.93.66.29,1,.48a1.46,1.46,0,0,1,.64,1.29.94.94,0,0,1-.15.49,1,1,0,0,1-1.22.2,2.7,2.7,0,0,1-.93-.94,9.84,9.84,0,0,1-1.4-2.64C303.5,216.19,303.67,212.2,305.81,215Z"/><path class="cls-43" d="M308.71,222.8s1.91,4.64-.8,5.26-1.6-4.39-1.6-4.39.46,4.3,1.43,1.71Z"/><path class="cls-42" d="M329.79,231.35a6.57,6.57,0,0,1-.88-.87,2.52,2.52,0,0,0-1.06-.59c-.51-.14-1.18,0-1.37.45a1.16,1.16,0,0,0,.36,1.15,3.18,3.18,0,0,0,1.88,1,1,1,0,0,0,.88-.2c.22-.24.11-.72-.21-.72"/><path class="cls-42" d="M346.64,235.06a4.32,4.32,0,0,1,1-.62,1.54,1.54,0,0,1,.72-.18,1.15,1.15,0,0,1,1,1,1.59,1.59,0,0,1-.54,1.34,2.66,2.66,0,0,1-1.37.6,1.75,1.75,0,0,1-1-.06.88.88,0,0,1-.56-.76.92.92,0,0,1,.57-.77,2.76,2.76,0,0,1,1-.18"/><path class="cls-49" d="M328.38,231.46s-.46-.88.54-.31c1.38.78,4.81,3.85,10.76,4.5a19.45,19.45,0,0,0,8.22-.5.2.2,0,0,1,.24.27c-.65,1.24-3.25,5.2-7.67,6.39a7.94,7.94,0,0,1-6.81-1.46C331.7,238.68,330.11,236.54,328.38,231.46Z"/><path class="cls-50" d="M330.51,232.86c.11.07,5.7,5.21,15,3.25,0,0-1.8,2.88-7.1,2.32A9.51,9.51,0,0,1,330.51,232.86Z"/><path class="cls-51" d="M337.05,241.23a5.18,5.18,0,0,1-3.05-1.8,3.59,3.59,0,0,1,2.4-.61,6.24,6.24,0,0,1,4.25,2.11C339.69,241.49,338.78,241.46,337.05,241.23Z"/><path class="cls-52" d="M315.35,187.83s-13.71.77-9.28,7.62,12.14,9.41,13.18-4c.66-8.42,2.85-2.11,2.85-2.11s17.16-3.78,5.6-12.08C317,169.59,319,185,319,185S315.61,182.42,315.35,187.83Z"/><ellipse class="cls-53" cx="323.03" cy="176.65" rx="1.06" ry="1.23" transform="translate(67.31 441.53) rotate(-74.68)"/><ellipse class="cls-53" cx="309.34" cy="190.85" rx="1.06" ry="1.23" transform="translate(43.55 438.77) rotate(-74.68)"/><ellipse class="cls-53" cx="307.26" cy="194" rx="1.06" ry="1.23" transform="translate(38.97 439.09) rotate(-74.68)"/><ellipse class="cls-53" cx="312.64" cy="193.48" rx="1.06" ry="1.23" transform="translate(43.44 443.9) rotate(-74.68)"/><ellipse class="cls-53" cx="316.6" cy="192.53" rx="1.06" ry="1.23" transform="matrix(0.26, -0.96, 0.96, 0.26, 47.26, 447.02)"/><ellipse class="cls-53" cx="315.39" cy="197.28" rx="1.06" ry="1.23" transform="translate(41.8 449.34) rotate(-74.68)"/><ellipse class="cls-53" cx="310.85" cy="197.24" rx="1.06" ry="1.23" transform="translate(38.49 444.93) rotate(-74.68)"/><ellipse class="cls-53" cx="313.55" cy="189.95" rx="1.06" ry="1.23" transform="translate(47.51 442.17) rotate(-74.68)"/><ellipse class="cls-53" cx="320.36" cy="180.43" rx="1.06" ry="1.23" transform="translate(61.7 441.74) rotate(-74.68)"/><ellipse class="cls-53" cx="328.75" cy="182.14" rx="1.06" ry="1.23" transform="translate(66.22 451.09) rotate(-74.68)"/><ellipse class="cls-53" cx="327.42" cy="178.28" rx="1.06" ry="1.23" transform="translate(68.97 446.96) rotate(-74.68)"/><ellipse class="cls-53" cx="324.31" cy="180.93" rx="1.06" ry="1.23" transform="translate(64.13 445.92) rotate(-74.68)"/><ellipse class="cls-53" cx="321.73" cy="183.68" rx="1.06" ry="1.23" transform="translate(59.57 445.45) rotate(-74.68)"/><ellipse class="cls-53" cx="325.69" cy="185.05" rx="1.06" ry="1.23" transform="translate(61.17 450.28) rotate(-74.68)"/><ellipse class="cls-53" cx="322.85" cy="186.68" rx="1.06" ry="1.23" transform="matrix(0.26, -0.96, 0.96, 0.26, 57.51, 448.73)"/><ellipse class="cls-52" cx="318.79" cy="188.11" rx="2.84" ry="3.8" transform="translate(-42.38 269.17) rotate(-43.19)"/><circle class="cls-42" cx="352.1" cy="220.89" r="6.37"/><ellipse class="cls-42" cx="330.57" cy="215.95" rx="6.37" ry="6.65" transform="matrix(0.26, -0.97, 0.97, 0.26, 37.45, 480.52)"/><path class="cls-54" d="M357.8,221.28a6,6,0,0,1-5.77,6.2c-3.3.12-6-1.43-6.16-4.74s2.42-7.11,5.73-7.23A6,6,0,0,1,357.8,221.28Z"/><ellipse class="cls-55" cx="353.75" cy="223.13" rx="3.39" ry="2.92" transform="translate(13.28 466.05) rotate(-67.75)"/><circle class="cls-26" cx="355.87" cy="220.94" r="1.03"/><path class="cls-54" d="M324.69,215.06a6,6,0,0,0,4.27,7.32c3.2.85,6.21-.07,7.05-3.26s-.8-7.48-4-8.32A6,6,0,0,0,324.69,215.06Z"/><ellipse class="cls-55" cx="332.34" cy="218.79" rx="3.32" ry="2.8" transform="translate(-15.99 411.1) rotate(-62.26)"/><circle class="cls-26" cx="334.66" cy="217.06" r="1.03"/><path class="cls-37" d="M316.13,282.22a8.13,8.13,0,0,1,3.27-2.14,2.78,2.78,0,0,1,1.27-.19,1.21,1.21,0,0,1,1,.71,1.27,1.27,0,0,1-.09,1,3.76,3.76,0,0,1-.58.81l-.7.82"/><path class="cls-37" d="M324.48,288.47a1,1,0,0,1-.48.7c-.58.31-1.1-.19-1.52-.59a8.23,8.23,0,0,0-3.62-2,1.79,1.79,0,0,0-1.57.13c-.43.33-.38,1.19.16,1.27,0,0,3.55,1.84,4.24,3.22s.26,2.26-.78,2.61c0,0,.89,2.69-3.42,1.64,0,0,.2,1.54-2,.7s-5.57-3.2-6.44-6.76a19.48,19.48,0,0,1-11-6.69,11.74,11.74,0,0,1-.08-15.16l1.61-2.16,1.31-1.74s1.79,2,3.9,4.32a8.64,8.64,0,0,0,4.52,2.63l-1.85,2.21-1.69,2a28.48,28.48,0,0,1,4.25,7.73l.48,1c1.8-1.31,4.16-1.52,6.38-1.68a4.6,4.6,0,0,1,3.73.9,12.76,12.76,0,0,1,2.74,2.15A4.28,4.28,0,0,1,324.48,288.47Z"/><path class="cls-56" d="M314.67,292.57a11.46,11.46,0,0,0,3,2.87"/><path class="cls-56" d="M315.46,290.38a22.07,22.07,0,0,0,5.45,3.41"/><path class="cls-56" d="M311.19,283.19a4.68,4.68,0,0,0-2.85,3.22"/><path class="cls-56" d="M305.93,275.32a1.32,1.32,0,0,0-.47-.92,6.67,6.67,0,0,0-5.61-1.9"/><path class="cls-38" d="M308.91,270.67l-1.66,2a12.9,12.9,0,0,1-7.55-7.11l1.18-1.59s1.52,1.76,3.64,4A8.9,8.9,0,0,0,308.91,270.67Z"/><path class="cls-39" d="M342,255s5.42,1.33,7.53,4.86,7,12.14,7,12.14-2.33,6.24-9.69,4.2L343,270.06"/><path class="cls-56" d="M343,270.06c.66-1.06,1-1.92,1.31-4.87"/><path class="cls-56" d="M312.78,265a.23.23,0,0,0,.26.19,30,30,0,0,1,.69-7.73"/><path class="cls-57" d="M380.66,107.82l-8.24-.35-29.37-1.24L314.85,105l-66.07-2.8-28.47-1.19-34.5-1.48-3.5-.14S-142.92-266.41-117.07-449.33c13.95-98.62,61-149.9,101.38-176.27a.73.73,0,0,1,.13-.09c34.5-22.42,64.09-26.7,64.09-26.7a205.21,205.21,0,0,1,30-16h0c42.54-18.28,78.88-15.9,97.67-12.53A92.4,92.4,0,0,1,190-677.57c103.19-45.65,168.12-4.4,179.36,3.71,1.17.85,1.76,1.33,1.76,1.33,46.62-15.79,88.48-7.8,115.06,1.45,18.67,6.51,29.81,13.65,29.81,13.65,28.23,10.51,51.83,23.18,71.5,37.56l0,0,.12.12C853.94-423.3,380.66,107.82,380.66,107.82Z"/><path class="cls-58" d="M389.28-435.9c0,211.43-35.14,451.26-74.43,540.94l-66.07-2.8c-32.23-74.06-57.57-245-76.73-442.76-15.52-160.33-10.63-268.2,4.18-340.38A92.4,92.4,0,0,1,190-677.57c103.19-45.65,168.12-4.4,179.36,3.71C381.56-613.88,389.28-535,389.28-435.9Z"/><path class="cls-58" d="M372.42,107.47l-29.37-1.24C630.6-362.34,548-630.58,492.26-668.83l95.19,49,0,0c0,.05-48.35-27.24-48.32-27.19C816.18-452.69,451.49,11.94,372.42,107.47Z"/><path class="cls-58" d="M220.31,101.05l-34.5-1.48C95.69-11-226-435.76-15.69-625.6a.73.73,0,0,1,.13-.09c34.5-22.42,64.09-26.7,64.09-26.7,10.24-6.56-4.24.76,5.48-3.41C19.66-592.63-53.59-353.24,220.31,101.05Z"/><ellipse class="cls-59" cx="285.54" cy="101.97" rx="102.13" ry="17.79"/><path class="cls-60" d="M366.83,398.72h0c-53.29,4.76-101.13,5.79-157.08,1.44h0c-15.66-2.6-26.83-10.68-27.91-20.2l-7.47-65.58H393.64L387.53,383C386.88,390.27,378.64,396.53,366.83,398.72Z"/><rect class="cls-61" x="191.68" y="321.41" width="21.74" height="3.81" rx="0.94"/><rect class="cls-61" x="191.68" y="333.35" width="21.74" height="3.81" rx="0.94"/><rect class="cls-61" x="191.68" y="345.29" width="21.74" height="3.81" rx="0.94"/><rect class="cls-61" x="191.68" y="357.23" width="21.74" height="3.81" rx="0.94"/><rect class="cls-61" x="191.68" y="369.17" width="21.74" height="3.81" rx="0.94"/><rect class="cls-61" x="191.68" y="381.11" width="21.74" height="3.81" rx="0.94"/><rect class="cls-61" x="224.3" y="321.41" width="21.74" height="3.81" rx="0.94"/><rect class="cls-61" x="224.3" y="333.35" width="21.74" height="3.81" rx="0.94"/><rect class="cls-61" x="224.3" y="345.29" width="21.74" height="3.81" rx="0.94"/><rect class="cls-61" x="224.3" y="357.23" width="21.74" height="3.81" rx="0.94"/><rect class="cls-61" x="224.3" y="369.17" width="21.74" height="3.81" rx="0.94"/><rect class="cls-61" x="224.3" y="381.11" width="21.74" height="3.81" rx="0.94"/><rect class="cls-61" x="256.91" y="321.41" width="21.74" height="3.81" rx="0.94"/><rect class="cls-61" x="256.91" y="333.35" width="21.74" height="3.81" rx="0.94"/><rect class="cls-61" x="256.91" y="345.29" width="21.74" height="3.81" rx="0.94"/><rect class="cls-61" x="256.91" y="357.23" width="21.74" height="3.81" rx="0.94"/><rect class="cls-61" x="256.91" y="369.17" width="21.74" height="3.81" rx="0.94"/><rect class="cls-61" x="256.91" y="381.11" width="21.74" height="3.81" rx="0.94"/><rect class="cls-61" x="289.53" y="321.41" width="21.74" height="3.81" rx="0.94"/><rect class="cls-61" x="289.53" y="333.35" width="21.74" height="3.81" rx="0.94"/><rect class="cls-61" x="289.53" y="345.29" width="21.74" height="3.81" rx="0.94"/><rect class="cls-61" x="289.53" y="357.23" width="21.74" height="3.81" rx="0.94"/><rect class="cls-61" x="289.53" y="369.17" width="21.74" height="3.81" rx="0.94"/><rect class="cls-61" x="289.53" y="381.11" width="21.74" height="3.81" rx="0.94"/><rect class="cls-61" x="322.35" y="321.41" width="21.74" height="3.81" rx="0.94"/><rect class="cls-61" x="322.35" y="333.35" width="21.74" height="3.81" rx="0.94"/><rect class="cls-61" x="322.35" y="345.29" width="21.74" height="3.81" rx="0.94"/><rect class="cls-61" x="322.35" y="357.23" width="21.74" height="3.81" rx="0.94"/><rect class="cls-61" x="322.35" y="369.17" width="21.74" height="3.81" rx="0.94"/><rect class="cls-61" x="322.35" y="381.11" width="21.74" height="3.81" rx="0.94"/><rect class="cls-61" x="355.18" y="321.41" width="21.74" height="3.81" rx="0.94"/><rect class="cls-61" x="355.18" y="333.35" width="21.74" height="3.81" rx="0.94"/><rect class="cls-61" x="355.18" y="345.29" width="21.74" height="3.81" rx="0.94"/><rect class="cls-61" x="355.18" y="357.23" width="21.74" height="3.81" rx="0.94"/><rect class="cls-61" x="355.18" y="369.17" width="21.74" height="3.81" rx="0.94"/><rect class="cls-61" x="355.18" y="381.11" width="21.74" height="3.81" rx="0.94"/><rect class="cls-62" x="156.18" y="298.19" width="256.91" height="17.14" rx="4.22"/><rect class="cls-63" x="162.09" y="299.26" width="242.74" height="8.57" rx="3.63"/><ellipse class="cls-64" cx="285.66" cy="102.17" rx="91.29" ry="14.6"/><polygon class="cls-35" points="376.39 99.21 395.55 298.32 399.1 298.32 379.19 99.21 376.39 99.21"/><polygon class="cls-35" points="194.37 99 175.21 298.11 171.67 298.11 191.57 99 194.37 99"/><path class="cls-65" d="M216.24,209.8c-.11-6.35-2.27-9.33-5.67-9.52-3.67-.21-5.21,2.24-5.32,7.44-.14,6.66,6.59,12,11.17,10.91"/><path class="cls-66" d="M208,206.13s-.72-3.75,3.19-2.82,1.51,5.82,2.47,8,3.25,4.46,1.51,4.81S207.88,214.05,208,206.13Z"/><path class="cls-37" d="M257.84,267.6s9.51-3.51,9.8-3.57,4.94,3.27,8.62,5.58c3.39,2.12,15,10.39,20.6,11.87s8.9,3.88,9.72,4.84,1,5,1,5,2.44,1.53,2.28,3.07-5.34-3.05-12.73-4.78c0,0-.69,0,.15,1.74s.26,4.18-.86,4.34-.24-1.79-1.21-2.82-.63-1.25-1.89-5.13c-.67-2.07-2.73-3-5.42-3.44S274.25,280.43,270,277C270,277,260.28,270,257.84,267.6Z"/><path class="cls-56" d="M307.64,291.19a27.2,27.2,0,0,1-3.92-3.27"/><path class="cls-56" d="M307.45,289.87a12.84,12.84,0,0,0-2.82-3.53"/><path class="cls-56" d="M307.23,288.2a13.3,13.3,0,0,0-1.5-2"/><path class="cls-38" d="M263.17,271.55s5.85-2.08,7.68-5.18l-1.45-1.13a25.14,25.14,0,0,1-7.95,5.09Z"/><path class="cls-67" d="M220.12,243c0,1-5.23,15.48-7.25,54.86l42.27-.08S254,275.29,254,265.59l4.66,6.26,2.2-.78c4.32-2.09,5.65-2.7,8.5-5.84l1.91-2.23-6.59-9.14c-1.38-2.36-6.42-4.32-8.64-5.92-4.34-3.15-5.52-2.23-6.84-3.29h0A150.29,150.29,0,0,0,233,239.17c-4.19-1.21-13.61,1-13.61,1Z"/><path class="cls-68" d="M216.08,265.85s28.26,9.28,37.87,3.07v4.86s-15.63,5.89-38.42-4.3Z"/><path class="cls-68" d="M214.63,275s27.85,11.16,39.64,3.5v4.21s-11.66,9.35-39.94-3.62Z"/><path class="cls-37" d="M212.76,268.22a36.75,36.75,0,0,1-1.89,4.22s2.09,4.85,2.34,6.8,4.43,12.92,6.83,14.67l-5.21,1.86s-6.46-3.12-10.84-11.94c-.68-1.38-1.25-2.61-1.73-3.7a18.9,18.9,0,0,1-.83-12.75L203,262S206.3,262.3,212.76,268.22Z"/><path class="cls-37" d="M203.64,269.78c-1.17.43,4.88.19,6.73,2.66"/><path class="cls-37" d="M212.61,297.34s-.5,3.62,2.17,5.34,1.14-2.67,1.14-2.67,3.09,6.75,2.68-1.66c0,0,.5,4.09,2.13,4.17,1.36.06.92-5.82.92-5.82s3.85,2.5,6.65.54c.34-.23.1-.81-.23-1.05a2.42,2.42,0,0,0-1.53-.38c-1.59.07-3.49-2.29-5.53-3.56s-2.87.56-5.54.12-5.78,3.1-5.91,7.11S212.61,297.34,212.61,297.34Z"/><path class="cls-37" d="M216.08,300.34a6.93,6.93,0,0,1-.6-3.38"/><path class="cls-37" d="M218.63,299.93a12.48,12.48,0,0,0,0-3.23"/><path class="cls-37" d="M221.62,297a2.84,2.84,0,0,0-.39-2.34"/><path class="cls-67" d="M223.2,239.37c-1.11.12-10.64-4-22.5,24.64l.64.53a24.36,24.36,0,0,0,12.73,5.26h0l2.07-7.48"/><path class="cls-56" d="M216.19,262.71c0-4.16-1.19-4.55,1.77-11.84"/><path class="cls-56" d="M254,264.93c2.81-4.08,2.83-6.45,2.81-10.25"/><path class="cls-37" d="M246.42,241.17a7.06,7.06,0,0,1-1.19,4.5c-1.06,1.32-2.81,1.78-5.18,1.78-3.85,0-8.61-2.33-9.23-6.61a7.16,7.16,0,0,1-.07-.94c0-4.88,4.07-7.56,8.2-7.56S246.42,236.3,246.42,241.17Z"/><path class="cls-38" d="M246.42,241.17a6.94,6.94,0,0,1-1.4,4.48c-7-.39-11.12-2.39-14-4.63,0-.31-.19-1.47-.19-1.79,0-4.88,4-6.89,8.09-6.89S246.42,236.3,246.42,241.17Z"/><path class="cls-69" d="M210.83,186.25a26.54,26.54,0,0,0-6.56,4.23c-4.16,3.36-13.53,13.45-14.3,17.63s26.64.95,62.19-1.09,49-7.83,49.16-9.84-8.66-10.35-18.63-14.83-23.87-4.21-40.63-3.26A103.87,103.87,0,0,0,210.83,186.25Z"/><path class="cls-70" d="M237.58,179.67a105.46,105.46,0,0,0-26.67,6.76,26.38,26.38,0,0,0-6.53,4.21c-4.31,3.48-13.49,13.49-14.24,17.51a.66.66,0,0,0,.15.54c1.84,2.19,16.85,1.15,37.63-.29,7.3-.51,15.58-1.08,24.23-1.58,5.93-.35,11.56-.81,16.71-1.38,24.31-2.71,32.16-7,32.27-8.28.17-1.89-8.67-10.2-18.51-14.63-10.11-4.55-24.35-4.16-40.56-3.24C240.6,179.37,239.09,179.49,237.58,179.67Z"/><path class="cls-37" d="M277.82,192c.52,1,1.64,2.38.49,4.67-6.19,12.34-6.15,16.17-11,31.44-3.57,11.28-16.93,18-27.54,14.72-13-4-27.59-12.4-24-38.43,1.6-11.46.72-24.11,3.32-27.62,8.81-11.85,15.06-8.44,31.33-3.38C265.71,178.11,272,180.68,277.82,192Z"/><path class="cls-38" d="M272.52,212s2.17-21.95-8.94-19.62c-12.11,2.54-16.36-3-21.24-2.28-10.67,1.57-23.59,16.17-26.57,5.29s27.35-21.23,27.35-21.23,26.93-.64,28.67.23,8.06,15.38,8.06,15.38Z"/><path class="cls-71" d="M234.33,205.11a6.93,6.93,0,0,0,3.62,8.7,6.1,6.1,0,0,0,8.39-3.11,6.93,6.93,0,0,0-3.62-8.7A6.1,6.1,0,0,0,234.33,205.11Z"/><path class="cls-72" d="M234.3,210.26a7.29,7.29,0,0,1,0-5.56,6,6,0,0,1,8.38-2.7c1.54.81,2.95,1.9,4.19,5.17a7.55,7.55,0,0,0-5.17-6.49c-2.61-.75-5.85-.22-7.27,2.49C233.25,205.52,232.76,208.85,234.3,210.26Z"/><path class="cls-55" d="M240.58,212.89c1.1,1.22,3,.93,4.29-.65s1.39-3.83.28-5-3-.93-4.29.64S239.47,211.68,240.58,212.89Z"/><path class="cls-26" d="M241,205.79a1.21,1.21,0,0,0,.15,1.63,1.05,1.05,0,0,0,1.54-.2,1.19,1.19,0,0,0-.15-1.63A1.07,1.07,0,0,0,241,205.79Z"/><path class="cls-71" d="M268.65,216.86a6.34,6.34,0,0,1-7,5A5.59,5.59,0,0,1,257,215a6.34,6.34,0,0,1,7.05-5A5.6,5.6,0,0,1,268.65,216.86Z"/><path class="cls-72" d="M265,221.26a6.47,6.47,0,0,0,3.41-4.44,5.69,5.69,0,0,0-4.69-6.75c-1.61-.27-2.88.19-5.48,2.34,2-2.61,4.64-3.48,6.94-2.7a5.7,5.7,0,0,1,4,6.1C268.83,218.5,266.86,220.88,265,221.26Z"/><path class="cls-55" d="M266.75,215.62c-.92-1.18-2.7-1.07-4,.25s-1.58,3.36-.66,4.54,2.7,1.07,4-.25S267.66,216.8,266.75,215.62Z"/><path class="cls-26" d="M262.82,214.44a1.21,1.21,0,0,0,.22,1.69,1.2,1.2,0,0,0,1.69-.16,1.21,1.21,0,0,0-.22-1.7A1.2,1.2,0,0,0,262.82,214.44Z"/><path class="cls-73" d="M235.46,226.88c1,1.85,3.49,7.11,8.76,8.48s14-5.52,12.34-6.12c-4.81-1.8-4.78-2.06-10-4.12C240.73,222.79,231.48,219.28,235.46,226.88Z"/><path class="cls-74" d="M244,234.81a8.58,8.58,0,0,1-4.11-2.59,5.61,5.61,0,0,1,4.11-1.29c2.25.21,5.22,1.3,5.91,3.29A9.42,9.42,0,0,1,244,234.81Z"/><path class="cls-26" d="M237,222.79c2.67.46,7.18,2.62,10.72,3.84,4.46,1.54,5.11,1.8,7.75,2.83-2.26,1.52-5.79,1.83-9.44.37C240.72,227.69,236.78,224.86,237,222.79Z"/><path class="cls-75" d="M264.92,200.59a.82.82,0,0,1-.68-1.25l.13-.21c.68-1.14,2.42-1,3.34-.5,1.39.72,3.44,1.64,4.17,5.92.06.36-.38.65-.55.37C270.32,203.25,267.89,200.68,264.92,200.59Z"/><path class="cls-75" d="M245.12,195.35a.82.82,0,0,0,1.28-.61v-.25c.11-1.32-1.4-2.21-2.42-2.35-1.56-.22-3.76-.67-6.84,2.38-.26.26-.07.75.23.62C239.17,194.37,242.64,193.7,245.12,195.35Z"/><path class="cls-76" d="M267.22,184.88s-4.37,13.16-25,1.07c0,0,24.81-.88,1.06-9.38,0,0,2.58,8.73-12.43,1.56,0,0,9.23,12.08-10.94,20.53,0,0-3.38.12-4.61,8.15-.09.58-.17,1.2-.23,1.87-1,9.88.14-1.29.14-1.29s-8.39-4.1-5.46-14.43c0,0-5-9.38,3-17,0,0-.92-13.7,14.28-12.46,0,0,7.12-11.55,15.72-8.62,0,0,15.17-6.07,21.77,7.44,0,0,10.82-.57,13.94,13,0,0,7.62,7.32,3.09,14.73,0,0,6,6.33-2.42,10.73,0,0,4.26,6.67-4.2,9.69l-4.42,6.83,2-5.26a25.91,25.91,0,0,0-4.81-26.62C267.55,185.23,267.39,185.05,267.22,184.88Z"/><path class="cls-77" d="M282.69,182.35c-10-4.49-23.87-4.21-40.63-3.26a103.87,103.87,0,0,0-31.23,7.16,26.54,26.54,0,0,0-6.56,4.23c-4.16,3.36-13.53,13.45-14.3,17.63.87-2.77,13.43-14.74,60.38-17.82,30.65-2,45.53,2.46,50.76,6.11C299.74,193.55,291.67,186.38,282.69,182.35Z"/><path class="cls-78" d="M301.14,196.6a.28.28,0,0,1-.13,0c-2.9-2-15.09-8.42-50.65-6.08-4.14.27-8.16.62-12,1-37,4.12-47.46,14.18-48.25,16.64a.19.19,0,0,1-.22.14.22.22,0,0,1-.14-.24c.82-4.42,10.5-14.62,14.37-17.75,4.14-3.34,6.51-4.23,6.62-4.26a105.86,105.86,0,0,1,26.76-6.79c1.53-.17,3-.3,4.51-.38,16.26-.92,30.55-1.31,40.74,3.27,9,4,17.07,11.19,18.5,14.15a.21.21,0,0,1,0,.24A.24.24,0,0,1,301.14,196.6Z"/><path class="cls-79" d="M209.67,193.78c2.6-4.41,7.43-7.52,11.59-9.85a54.27,54.27,0,0,1,5.32-2.58,100.5,100.5,0,0,0-15.75,4.9,26.54,26.54,0,0,0-6.56,4.23c-4.16,3.36-13.53,13.45-14.3,17.63.53-1.68,5.35-6.74,19.53-11.15A3.37,3.37,0,0,1,209.67,193.78Z"/><path class="cls-79" d="M265,179.27a66,66,0,0,1,10.94,3.88c2.66,1.23,5.86,3.36,5.81,6.94a3.33,3.33,0,0,1,0,.63c10.35,1.27,16.46,3.6,19.43,5.68-1.37-2.85-9.44-10-18.42-14.05-6-2.7-13.41-3.67-22-3.82A34.8,34.8,0,0,1,265,179.27Z"/><path class="cls-77" d="M204.88,188.15s-2.78-15.34,14.36-27.9c18.56-13.6,41.14-6.36,47.93-2.11s13.85,13.49,15.37,22.47c0,0-25.76-2.54-37.71-1.43S211.64,184,204.88,188.15Z"/><path class="cls-78" d="M242,179.26c1-.11,1.9-.2,2.77-.28,11.2-1,34.81,1.15,37.49,1.4-1.66-9.28-8.88-18.11-15.22-22.07-4.7-2.92-16-6.8-28.12-5.46a40.3,40.3,0,0,0-19.61,7.57c-15.57,11.39-14.58,25.25-14.33,27.4C211.83,183.81,230.81,180.51,242,179.26Z"/><path class="cls-79" d="M271.22,172.14c-2,3.5-5.77,5-9.16,6-1.17.35-2.35.63-3.54.89,11.59.38,24,1.6,24,1.6-1.41-8.31-7.53-16.82-13.83-21.42C271.63,162.59,273.73,167.81,271.22,172.14Z"/><path class="cls-79" d="M230,179.33c-4.44-.59-9.33-1.43-13.29-4.07-3.45-2.29-4.78-5.19-4.74-8.25-8.95,10.7-7.06,21.14-7.06,21.14,5.53-3.44,20.78-6.52,32.68-8.13C235,179.88,232.48,179.67,230,179.33Z"/><path class="cls-80" d="M244.47,176.79c9.65-.95,35.62.55,38.31,2.13,0,0,.65,3.17.41,3.82s-12.67-3.33-35.85-1.63c-30.5,2.24-41.74,9-42.51,9.21s-.61-3.49-.29-4.06S216.44,179.57,244.47,176.79Z"/><path class="cls-70" d="M283.06,183a14.47,14.47,0,0,1-2.56-.32,134.16,134.16,0,0,0-33.14-1.37c-2.79.2-5.54.46-8.18.75-9.84,1.1-23.69,3.4-33.7,8.19a5.26,5.26,0,0,1-.61.27h-.06a.44.44,0,0,1-.43-.25c-.49-.79-.29-3.61,0-4.13s11.7-6.75,40.08-9.55c9.45-.94,35.67.53,38.42,2.15l.07,0,0,.09c.07.33.66,3.26.41,3.93A.32.32,0,0,1,283.06,183Z"/><path class="cls-81" d="M282.78,178.92c-1.52-.89-10.52-1.76-19.78-2.18.31.08.63.14,1,.2,9,1.51,2.7,2.71-4.2,2.44a136.86,136.86,0,0,0-24.57,1.24c-10.46,1.36-13.91-.41-5.51-1.76a14.28,14.28,0,0,0,1.67-.37c-18.59,3-26.57,7.29-26.83,7.77s-.49,4.28.29,4.06,12-7,42.51-9.21c23.18-1.7,35.61,2.28,35.85,1.63S282.78,178.92,282.78,178.92Z"/><path class="cls-82" d="M214.21,194s18.85-6.7,63.14-5.32C277.35,188.72,242.27,184,214.21,194Z"/><path class="cls-37" d="M215.67,211.15c-.1-6.07-2.17-8.9-5.41-9.09-3.5-.2-5,2.14-5.08,7.11-.13,6.35,6.3,11.43,10.67,10.4"/><path class="cls-38" d="M207.82,207.64s-.69-3.58,3-2.69,1.44,5.55,2.36,7.64,3.1,4.26,1.44,4.59S207.7,215.21,207.82,207.64Z"/><path class="cls-83" d="M254.54,219.44a3.53,3.53,0,0,1,.11,2.89,2,2,0,0,1-1.27,1.08,3.55,3.55,0,0,1-1.58.07,3.83,3.83,0,0,1-3.33-4.28,5.57,5.57,0,0,0,1.32,2.26,4,4,0,0,0,2.17,1,1.91,1.91,0,0,0,2-.55A4.81,4.81,0,0,0,254.54,219.44Z"/><path class="cls-38" d="M201.7,267.59s5.62,3.42,9.48,3.52l.56-1.33s-3.93-.33-9.56-4.14Z"/><path class="cls-37" d="M368.19,298.6a1.3,1.3,0,0,0,1.5.35,1.05,1.05,0,0,0,.45-1.4,3.17,3.17,0,0,0-.53-.57c-.42-.44-.64-1.05-1.09-1.47a2.57,2.57,0,0,0-1.63-.62,7.46,7.46,0,0,0-1.76.18,3.28,3.28,0,0,0,1.37,3.06A3.84,3.84,0,0,0,368.19,298.6Z"/><path class="cls-37" d="M368.94,300.57a2.62,2.62,0,0,1-2.82-1.42s1.06,3.13-.91,2.73-1.77-3.58-5.5-4-9.13,1-9.53-.35,2.37-1.72,2.62-1.77,2.07-.4,2.17-.85-3.88-5.1-4.09-12.82a3.41,3.41,0,0,1-.73-.67c-.27-.3-2.34-4.26-2.59-4.81,0,0,3.47.4,5.29-.6,0,0,2.23-.33,3.51-3.29,0,0,1.89,3.85,2.49,4.89a14.33,14.33,0,0,1,1.65,4.4,81.47,81.47,0,0,1,.61,11.05s0,.3,2.69,1S371,300.26,368.94,300.57Z"/><path class="cls-56" d="M354.55,295.23a4.34,4.34,0,0,1,2.49-.56"/><path class="cls-56" d="M366.3,299.49a10.75,10.75,0,0,0-4.31-4"/><path class="cls-42" d="M357,274.63a7.85,7.85,0,0,1-8,4.15,10.15,10.15,0,0,1-1-1.82,8.75,8.75,0,0,0,4.84-.76,9.32,9.32,0,0,0,3.47-2.85A7.63,7.63,0,0,0,357,274.63Z"/><path class="cls-56" d="M350.88,282.28a4,4,0,0,1,1.37-2.16,4.91,4.91,0,0,1,2.82-.91"/><path class="cls-84" d="M293.24,90a.55.55,0,0,1,1,.5c-1.46,4.08-4,9.74-6.52,10.49s-5.47.51-7.85,1.78A13.57,13.57,0,0,0,275.6,107c.53-2.72.78-6.18-1.59-7.63-4.12-2.52-7.75-17.5-1.17-9.56,4.09,3.32,1.89-2.45,7.08-2.45,2.08,0,8.31,0,10.36,0-.15,1-1.54,6.63-1.89,7.61a3.92,3.92,0,0,1-2.53,2.49C288.29,97.56,291.05,93.17,293.24,90Z"/><path class="cls-85" d="M288.27,92.34a.34.34,0,0,1,.6.3c-.9,2.5-2.45,6-4,6.42s-3.34.32-4.8,1.1a8.31,8.31,0,0,0-2.59,2.62c.33-1.67.48-3.78-1-4.67-2.52-1.55-6.32-12-.92-4.55,2.5,2,5-5.22,8.17-5.22,1.28,0,0,0,1.28,0,1.87.75.48,6.48.27,7.08a2.44,2.44,0,0,1-1.55,1.52C285.24,97,286.94,94.29,288.27,92.34Z"/><path class="cls-86" d="M310.68,115.31c-1.65-1.14-16.06-9-16.43-9.19a3.16,3.16,0,0,1,.65-.25l.74-.86c.31.08,16,8.94,17.56,10Z"/><path class="cls-86" d="M257.06,114.74l-2.48-.15c1.27-.91,15.13-10,15.47-10.1l2.48.45-.62.13C271.57,105.3,258.42,113.77,257.06,114.74Z"/><path class="cls-87" d="M267.13,98.11v7.1h31V97.56a21,21,0,0,0-6.77-1.21,110.26,110.26,0,0,0-20.3.37S268.06,96.91,267.13,98.11Z"/><ellipse class="cls-88" cx="282.61" cy="104.49" rx="15.48" ry="3.07"/><path class="cls-88" d="M297.29,101.42c.49,0,53.7-8.89,56.12-9.54"/><path class="cls-86" d="M297.29,102.21v-.79l-.07-.78c.34,0,52.09-8.6,54.79-9.32l3,.84C353.3,92.6,298.25,102.21,297.29,102.21Z"/><path class="cls-88" d="M268.49,100.67c-.5,0-46.35-6.83-51.87-6.9"/><path class="cls-86" d="M268.49,101.46c-.15,0-.65-.07-7.11-1-13.19-1.9-42.86-6.64-47-6.69l3.35-1c4.25.06,30.66,4.18,43.88,6.08,3.73.54,6.68,1,6.94,1Z"/><path class="cls-8" d="M934,525.91l.2-.33.22-.29.26-.26.27-.24c.18-.15.38-.28.57-.41s.4-.24.61-.34a13.08,13.08,0,0,1,2.53-.94,23.14,23.14,0,0,1,2.6-.56c.44-.08.88-.13,1.32-.19l1-.11,6-6.64-2.91-3.4a1.21,1.21,0,0,1,1-.83c.37.06,3.57,4.19,3.57,4.19l0,.15-.09.13L945,522.69c.2.09.4.16.58.26a6.23,6.23,0,0,1,.72.39c.23.13.45.29.68.44a10.37,10.37,0,0,1,1.21,1.08c.19.21.35.42.52.64a4,4,0,0,1,.23.34,2.7,2.7,0,0,1,.21.38.38.38,0,0,1-.15.51.39.39,0,0,1-.54-.14l0,0-.17-.28-.22-.28a6,6,0,0,0-.49-.53,7.09,7.09,0,0,0-1.13-.9,6.34,6.34,0,0,0-.62-.37c-.21-.11-.44-.22-.66-.31s-.45-.17-.68-.26l-.27-.08H944l-.56,0a7.65,7.65,0,0,0-2.49,1.37,15.9,15.9,0,0,0-1.37,1.22,17.33,17.33,0,0,0-1.22,1.37h0a.43.43,0,0,1-.59.08.44.44,0,0,1-.1-.6,18.23,18.23,0,0,1,1.25-1.49,13.86,13.86,0,0,1,1.41-1.35l.46-.37c-.61.08-1.23.18-1.84.32a12,12,0,0,0-2.38.75,4.53,4.53,0,0,0-.54.27c-.18.1-.35.21-.51.32l-.23.19-.2.19-.19.21-.15.23,0,.05a.41.41,0,0,1-.68-.44Z"/><path class="cls-9" d="M849.18,471c6.38-15.75,22.17-24.45,42.54-19.51s68.55,17.45,92.54,9.64c2.09,24-8.94,45.05-37.61,58.43s-58.71-2-73-9.75c-23.16-12.54-23-20.08-25.63-30.39A19.45,19.45,0,0,1,849.18,471Z"/><path class="cls-10" d="M984.26,461.14c7.09-6,23.12-21.54,26.69-24.68s10-.6,6.6,4.4c6.33-.67,7.11,3.08,4.12,5.78,4.27-.7,8.54,2.17,4.12,5.88,4.71-.21,10.27,3.27.67,5.64s-36.13,10.44-42.55,16.9C982.13,468.91,984.26,461.14,984.26,461.14Z"/><path class="cls-11" d="M986,461.58l4.36-3,4.45-3.1,2.51-1.75,2.58-1.82,2.58-1.82,2.48-1.79,2.32-1.68,2.06-1.52c.63-.48,1.23-.9,1.73-1.3l1.31-1,1.14-.91-1.16.89-1.32,1c-.51.39-1.11.8-1.75,1.27l-2.08,1.5-2.34,1.64-2.51,1.74-2.61,1.79-2.61,1.78-2.53,1.71-4.5,3-4.4,2.93a.26.26,0,0,0-.07.36.25.25,0,0,0,.35.07Z"/><path class="cls-11" d="M987.46,465.44l4.67-2.9,4.8-3,2.72-1.65,2.81-1.7,2.81-1.69,2.74-1.62c.88-.51,1.74-1,2.56-1.5l2.32-1.31c.72-.4,1.37-.79,2-1.1s1.12-.57,1.54-.8l1.35-.69-1.36.67-1.55.78c-.6.3-1.25.68-2,1.07s-1.51.83-2.34,1.27l-2.58,1.47-2.77,1.58-2.83,1.65-2.84,1.66-2.74,1.61-4.84,2.89L987.19,465a.25.25,0,0,0-.08.35.25.25,0,0,0,.35.09Z"/><path class="cls-11" d="M990.4,467.81l32.4-14.38-32.61,13.91a.27.27,0,0,0-.14.34.26.26,0,0,0,.34.13Z"/><path class="cls-12" d="M895.36,454.47c5-13.08-10.4-50.86-8.1-58.87S901,397,902.91,403.13c2.4-5.51,11-5.51,13.87,4.47,6-3.63,14.83-2.77,14.69,9.31,7.41-5.59,11.47,9.56,8.18,24.82S925,471.5,918.52,472.88,895.36,454.47,895.36,454.47Z"/><path class="cls-89" d="M902,431.23c2.57-3.5,5.3-2.11,7.39,2.19,2.83-4.62,7.3-1.9,8.54,2.87,1.31-4.42,5.82-2,6.67,3.14,2.4-4.73,5.72-1.31,5.22,4.16,3.38-3.69,5.4,3.07,5.35,7a1.71,1.71,0,0,1,1.74,0c-4.8,11.64-13.17,21.22-18.34,22.33-6.44,1.38-23.16-18.41-23.16-18.41,1.81-4.76.92-12.81-.84-21.5C896.09,428.34,900.89,427.74,902,431.23Z"/><path class="cls-11" d="M898,425.51l-.73-4c-.44-2.37-1-5.54-1.7-8.69-.33-1.58-.66-3.16-1-4.63-.17-.74-.33-1.45-.49-2.12s-.32-1.31-.48-1.89-.28-1.12-.43-1.59-.25-.89-.36-1.22l-.36-1.05.34,1.05c.1.34.2.76.34,1.23s.25,1,.4,1.6.28,1.22.43,1.9.29,1.39.45,2.13c.3,1.47.61,3.05.91,4.64.59,3.16,1.13,6.33,1.53,8.72s.64,4,.64,4h0a.26.26,0,0,0,.3.22.27.27,0,0,0,.21-.3Z"/><path class="cls-11" d="M908.58,429.05v-1c0-.63,0-1.52,0-2.59s0-2.31-.06-3.65c0-.67,0-1.36,0-2.06s-.05-1.41-.08-2.12-.05-1.43-.09-2.13-.08-1.39-.11-2-.09-1.31-.14-1.92-.1-1.19-.14-1.73-.1-1-.16-1.44-.1-.81-.14-1.12c-.09-.62-.13-1-.13-1s0,.36.1,1c0,.32.08.69.13,1.12s.1.92.12,1.45.07,1.11.1,1.72.08,1.26.1,1.93,0,1.35.06,2,0,1.41,0,2.12,0,1.43,0,2.13,0,1.39,0,2.06c0,1.33,0,2.57,0,3.64s0,2,0,2.58,0,1,0,1a.27.27,0,0,0,.25.27.26.26,0,0,0,.27-.26Z"/><path class="cls-11" d="M919.58,429.75s.35-4.43.49-8.86c0-1.11.07-2.22.07-3.26,0-.52,0-1,0-1.5s0-.92,0-1.34c0-.21,0-.41,0-.59s0-.37,0-.54c0-.34,0-.64-.07-.87-.06-.49-.09-.76-.09-.76s0,.27.06.76c0,.24,0,.53,0,.87,0,.17,0,.35,0,.54s0,.38,0,.59c0,.42,0,.87,0,1.34s0,1,0,1.5c0,1-.1,2.14-.16,3.25-.27,4.42-.75,8.82-.75,8.82a.24.24,0,0,0,.22.28.25.25,0,0,0,.29-.22Z"/><path class="cls-11" d="M928.17,433.39s.4-4,.69-8c.07-1,.14-2,.19-3,0-.47,0-.93.06-1.36s0-.84,0-1.22,0-.72,0-1,0-.57,0-.8a3.58,3.58,0,0,0-.06-.5l0-.18a1.23,1.23,0,0,0,0,.18c0,.12,0,.28,0,.51s0,.48,0,.79,0,.65,0,1,0,.78-.08,1.21-.06.89-.11,1.36c-.08.94-.17,1.94-.28,2.94-.42,4-.94,8-.94,8a.26.26,0,1,0,.51.07Z"/><path class="cls-11" d="M934.6,437.61s.61-3.75,1-7.53c0-.48.09-.95.13-1.41s.07-.93.09-1.37,0-.88.06-1.28,0-.8,0-1.15,0-.68,0-1,0-.54,0-.75c0-.41-.06-.65-.06-.65s0,.24,0,.65a6,6,0,0,1,0,.75c0,.29,0,.61,0,1s0,.74-.06,1.14-.05.84-.1,1.28-.09.89-.14,1.36-.11.93-.17,1.4c-.12.94-.26,1.87-.4,2.75s-.28,1.69-.4,2.39c-.24,1.4-.43,2.32-.43,2.32a.28.28,0,0,0,.2.31.26.26,0,0,0,.31-.2Z"/><path class="cls-13" d="M922.87,492.57c-18.17-.23-35.8-13.54-42.15-20.16s-15.54-9.12-23,2c-3.69,5.48-7.73,3.27-10.33,2-.16-1.89,1.79-5.34,1.79-5.34,6.38-15.75,22.17-24.45,42.54-19.51s68.55,17.45,92.54,9.64a63,63,0,0,1,.23,6.84C971.7,489,940.65,492.79,922.87,492.57Z"/><path class="cls-90" d="M847.39,476.35c2.6,1.3,6.64,3.51,10.33-2,7.46-11.09,16.64-8.59,23-2a69.87,69.87,0,0,0,10.46,8.64c7.11,22.55-17.18,15.58-20.09,13.24-6.52-5.25-18-3.22-17.49.17-3.58-5-4.2-9.64-5.6-15A24,24,0,0,1,847.39,476.35Z"/><path class="cls-14" d="M871.09,494.29c2.91,2.34,27.2,9.31,20.09-13.24,8.39,5.74,19.93,11.37,31.69,11.52,17.78.22,48.83-3.62,61.62-24.59-.43,21.11-11.93,39.49-37.84,51.59-28.68,13.4-58.71-2-73-9.75-11-6-16.76-10.82-20-15.36C853.12,491.07,864.57,489,871.09,494.29Z"/><path class="cls-12" d="M904.07,484.05C927.38,468,930.28,450.29,941,432.29s34.38-47.44,33.61-25.31c12.22-6.47,10.52,14,6.6,22.39,8.52-2.32,6.83,10.67-1.31,18.13,5.23,1.15,3.83,13.82-4.73,19.25,1.59,2.56,1.31,10.86-12.31,18.16C929.78,502.64,892.78,491.84,904.07,484.05Z"/><path class="cls-15" d="M904.07,484.05c19.7-13.59,24.82-28.32,32.4-43.41,2.29-1.18,4.09-.26,2.94,5.27,3.51-2.72,5.36.75,3.26,5.22,3.9-1.88,3.54,3.79.94,6.89,4.27-.78,4.57,2.64,0,8.41,5.85-2,2.72,6-.65,9,6.22-1.64,4.08,4.91-1.76,8.08,2.65.37,2.95,5-2.66,9.75C914.52,497.52,895.56,489.93,904.07,484.05Z"/><path class="cls-11" d="M942.78,439.65s1.51-2.08,3.78-5.18c1.14-1.56,2.47-3.36,3.9-5.3s3-4,4.51-6.05,3.1-4.09,4.55-6c.72-1,1.45-1.87,2.12-2.75l1.91-2.45c.59-.77,1.16-1.44,1.64-2.06s.92-1.13,1.28-1.57l1.1-1.37-1.12,1.36-1.29,1.56c-.5.6-1.08,1.27-1.67,2l-1.94,2.43c-.69.86-1.42,1.77-2.16,2.72-1.47,1.9-3.07,3.92-4.63,5.95s-3.13,4.08-4.58,6l-4,5.25-3.85,5.14a.27.27,0,0,0,0,.36.26.26,0,0,0,.36,0h0Z"/><path class="cls-11" d="M948.41,447.36l.38-.3,1.07-.84,1.62-1.39c.61-.54,1.31-1.15,2-1.83s1.54-1.42,2.37-2.23c.42-.39.85-.8,1.28-1.22s.88-.86,1.33-1.3c.9-.87,1.81-1.8,2.74-2.74s1.86-1.9,2.8-2.86,1.85-1.94,2.75-2.91,1.78-1.93,2.61-2.87l1.23-1.38,1.16-1.35c.76-.86,1.44-1.72,2.08-2.49.33-.39.61-.77.9-1.13l.79-1c.49-.66.88-1.25,1.22-1.73s.55-.89.72-1.16l.25-.42-.26.41c-.17.27-.4.67-.72,1.16s-.76,1.05-1.25,1.71l-.8,1c-.29.36-.58.74-.91,1.12-.65.76-1.34,1.61-2.11,2.47l-1.17,1.32-1.25,1.37c-.84.93-1.74,1.87-2.64,2.83s-1.85,1.92-2.79,2.88S962,434.38,961,435.3s-1.87,1.84-2.78,2.7l-1.34,1.28-1.29,1.21c-.84.79-1.65,1.51-2.39,2.19s-1.45,1.26-2.06,1.8l-1.62,1.34c-.46.37-.83.64-1.08.83l-.38.3h0a.25.25,0,0,0-.05.36.26.26,0,0,0,.36.05Z"/><path class="cls-11" d="M949.32,459.81s2.06-1.23,5.11-3.15c1.52-1,3.28-2.09,5.16-3.32l2.89-1.93c1-.67,2-1.34,2.95-2s2-1.38,2.91-2.08l1.42-1,1.36-1c.45-.34.89-.67,1.32-1l1.23-1c.81-.63,1.55-1.28,2.23-1.87.33-.29.67-.57,1-.85l.85-.8.74-.7c.23-.21.42-.44.6-.63l1.12-1.21-1.14,1.2c-.18.18-.37.41-.61.61l-.75.7c-.27.24-.55.51-.85.79s-.65.54-1,.83c-.68.58-1.42,1.22-2.24,1.83l-1.25,1c-.43.34-.88.66-1.33,1l-1.37,1-1.43,1c-1,.68-2,1.36-2.94,2s-2,1.33-3,2-2,1.28-2.91,1.89c-1.89,1.21-3.67,2.32-5.2,3.26-3.07,1.87-5.14,3.07-5.14,3.07a.25.25,0,0,0-.1.35.27.27,0,0,0,.35.1Z"/><path class="cls-11" d="M950.27,470.57l.31-.1.9-.28c.38-.12.84-.28,1.37-.47s1.12-.39,1.76-.64,1.33-.52,2.06-.81,1.49-.63,2.28-1,1.6-.71,2.4-1.11,1.64-.79,2.45-1.22l1.21-.64,1.19-.67,1.16-.66,1.11-.68,1.08-.67,1-.67,1-.64c.31-.2.59-.42.87-.62l1.51-1.11,1.12-.9c.62-.51,1-.79,1-.79l-1,.77-1.14.89-1.53,1.08c-.28.19-.56.4-.87.6l-1,.62-1,.65c-.35.22-.72.43-1.09.65l-1.12.66c-.38.22-.78.42-1.17.64l-1.2.65-1.22.61c-.81.42-1.64.79-2.45,1.17s-1.63.72-2.41,1.07-1.56.65-2.29.92l-2.07.77c-.64.24-1.24.43-1.76.61l-1.37.44c-.39.12-.68.21-.89.26l-.31.09h0a.26.26,0,0,0-.17.32.25.25,0,0,0,.31.18Z"/><path class="cls-11" d="M948.38,484.07s1.49-.52,3.7-1.37c1.11-.42,2.39-.93,3.77-1.49l2.1-.87c.72-.31,1.45-.61,2.16-.94s1.45-.64,2.15-1l1-.49,1-.5,1-.49.91-.5c.3-.16.6-.31.87-.47l.8-.47.73-.43.64-.43a10.32,10.32,0,0,0,1-.71l.85-.67-.86.65a11.71,11.71,0,0,1-1,.69l-.64.41-.74.42-.81.45c-.27.16-.57.3-.87.46l-.93.47-1,.47-1,.48-1.05.47c-.7.33-1.43.62-2.16.93s-1.46.6-2.17.9l-2.12.83c-1.38.52-2.67,1-3.79,1.4-2.22.8-3.72,1.29-3.72,1.29a.26.26,0,0,0-.16.33.25.25,0,0,0,.32.16Z"/><path class="cls-8" d="M922.61,531l.23-.38.27-.34.3-.31.31-.28c.22-.17.44-.33.67-.48s.47-.28.71-.4a15.64,15.64,0,0,1,3-1.1,28.53,28.53,0,0,1,3-.66c.51-.08,1-.16,1.54-.21s.81-.1,1.22-.14l7.07-7.78-3.4-4a1.42,1.42,0,0,1,1.21-1c.43.06,4.18,4.91,4.18,4.91l0,.17-.1.15-7.29,8c.23.1.45.19.67.31a8.44,8.44,0,0,1,.84.45c.28.15.53.35.79.52a10.15,10.15,0,0,1,1.43,1.27,8.43,8.43,0,0,1,.6.74c.1.13.19.26.28.4a4.54,4.54,0,0,1,.25.45.46.46,0,0,1-.19.6.45.45,0,0,1-.62-.17l0,0-.21-.33-.26-.33a4.76,4.76,0,0,0-.57-.62,8.4,8.4,0,0,0-1.32-1.06c-.24-.14-.48-.3-.73-.43a7.67,7.67,0,0,0-.77-.36c-.26-.13-.54-.21-.8-.31a1.68,1.68,0,0,0-.32-.09h-.29l-.65,0a9.09,9.09,0,0,0-2.93,1.61,18,18,0,0,0-1.6,1.43,21.12,21.12,0,0,0-1.42,1.6v0a.5.5,0,0,1-.8-.61,20.65,20.65,0,0,1,1.46-1.76,17.55,17.55,0,0,1,1.65-1.57l.54-.44c-.72.1-1.44.22-2.15.37a14.64,14.64,0,0,0-2.79.89c-.22.09-.43.2-.64.31s-.4.25-.59.38l-.27.21-.24.23-.22.25-.18.27,0,.05a.47.47,0,0,1-.8-.51Z"/><path class="cls-24" d="M860.44,472.48a5.24,5.24,0,1,0,7-2.51A5.26,5.26,0,0,0,860.44,472.48Z"/><path class="cls-25" d="M861.54,473.12a3.45,3.45,0,1,0,4.59-1.66A3.45,3.45,0,0,0,861.54,473.12Z"/><path class="cls-26" d="M865.28,472.52a1.67,1.67,0,1,0,2.23-.8A1.67,1.67,0,0,0,865.28,472.52Z"/><path class="cls-27" d="M847.15,472.28s-8.8,2-8.44,3,9,7.29,10.69,7c1.13-.24,3.29-2.58,3.71-3.76s-1.77-1.79-2.34-2.33S849.12,471.8,847.15,472.28Z"/><path class="cls-8" d="M1093,597.45l.2-.32.22-.29.26-.27.26-.24c.19-.14.38-.28.58-.4s.4-.24.6-.35a14.33,14.33,0,0,1,2.53-.94,26.38,26.38,0,0,1,2.61-.56l1.32-.19,1-.1,6-6.65-2.9-3.39c.06-.37.67-.9,1-.83s3.57,4.19,3.57,4.19l0,.15-.08.13-6.23,6.85a5.06,5.06,0,0,1,.58.25q.38.18.72.39c.23.13.45.3.67.45a8.34,8.34,0,0,1,1.22,1.08,6.59,6.59,0,0,1,.52.64c.08.1.15.22.23.33a3.58,3.58,0,0,1,.21.39.38.38,0,0,1-.15.51.39.39,0,0,1-.54-.14l0,0c0-.08-.11-.18-.17-.28s-.15-.19-.22-.28a4.1,4.1,0,0,0-.49-.53,7.63,7.63,0,0,0-1.13-.91c-.21-.12-.41-.26-.63-.36s-.43-.22-.65-.32-.45-.16-.68-.26l-.27-.08H1103l-.56,0a7.82,7.82,0,0,0-2.49,1.37,16,16,0,0,0-1.37,1.23,14.39,14.39,0,0,0-1.22,1.37h0a.41.41,0,0,1-.58.08.43.43,0,0,1-.1-.6,18.13,18.13,0,0,1,1.24-1.49,16.44,16.44,0,0,1,1.41-1.36l.47-.37c-.62.08-1.23.19-1.84.32a13.46,13.46,0,0,0-2.38.75l-.55.28c-.17.09-.34.21-.5.31l-.23.19-.2.19-.19.21-.15.23,0,0a.41.41,0,0,1-.55.11A.39.39,0,0,1,1093,597.45Z"/><path class="cls-9" d="M1008.17,542.55c6.38-15.75,22.17-24.45,42.54-19.5s68.55,17.45,92.54,9.64c2.09,24-8.94,45-37.61,58.43s-58.71-2-73-9.76c-23.16-12.53-22.95-20.07-25.63-30.39A19.31,19.31,0,0,1,1008.17,542.55Z"/><path class="cls-16" d="M1143.25,532.69c7.09-6,23.12-21.54,26.68-24.68s10-.61,6.61,4.39c6.33-.67,7.11,3.08,4.12,5.79,4.26-.7,8.54,2.17,4.12,5.87,4.71-.21,10.27,3.27.67,5.64s-36.13,10.45-42.55,16.91C1141.12,540.45,1143.25,532.69,1143.25,532.69Z"/><path class="cls-17" d="M1145,533.12l4.36-3,4.45-3.09,2.51-1.75,2.58-1.83,2.58-1.82c.84-.61,1.67-1.21,2.48-1.78s1.58-1.15,2.32-1.68l2.06-1.53c.63-.48,1.22-.9,1.73-1.3l1.31-1,1.13-.9-1.15.88c-.36.29-.81.63-1.32,1s-1.11.81-1.75,1.28l-2.08,1.49-2.34,1.64-2.51,1.75-2.61,1.78-2.61,1.78-2.53,1.72-4.5,3-4.4,2.94a.26.26,0,1,0,.28.43Z"/><path class="cls-17" d="M1146.45,537l4.67-2.9,4.8-3,2.72-1.66,2.81-1.7,2.81-1.69,2.74-1.61c.88-.52,1.74-1,2.56-1.5l2.32-1.32c.72-.4,1.37-.79,2-1.09l1.54-.8,1.35-.7-1.36.68-1.55.77c-.6.3-1.26.68-2,1.07l-2.34,1.28c-.83.46-1.69,1-2.59,1.47l-2.76,1.57-2.84,1.65-2.83,1.66-2.74,1.62-4.84,2.88-4.72,2.83a.26.26,0,1,0,.27.45h0Z"/><path class="cls-17" d="M1149.38,539.36,1181.79,525l-32.61,13.9a.25.25,0,0,0-.14.34.27.27,0,0,0,.34.14Z"/><path class="cls-18" d="M1054.35,526c5-13.08-10.4-50.87-8.1-58.87s13.7,1.4,15.64,7.53c2.41-5.52,11-5.51,13.88,4.47,6-3.63,14.82-2.77,14.68,9.3,7.42-5.59,11.48,9.56,8.19,24.83s-14.7,29.77-21.13,31.14S1054.35,526,1054.35,526Z"/><path class="cls-19" d="M1060.93,502.77c2.58-3.5,5.31-2.11,7.4,2.19,2.83-4.61,7.3-1.89,8.54,2.87,1.31-4.41,5.82-2,6.67,3.15,2.39-4.74,5.72-1.32,5.21,4.16,3.39-3.69,5.4,3.07,5.35,7a1.71,1.71,0,0,1,1.75,0c-4.8,11.64-13.18,21.22-18.34,22.32-6.44,1.38-23.16-18.4-23.16-18.4,1.8-4.76.91-12.82-.84-21.51C1055.08,499.88,1059.88,499.28,1060.93,502.77Z"/><path class="cls-17" d="M1057,497.06s-.28-1.59-.72-4-1-5.54-1.7-8.7c-.33-1.58-.67-3.15-1-4.62-.17-.74-.33-1.45-.5-2.12s-.31-1.31-.47-1.9-.28-1.12-.43-1.59-.25-.88-.37-1.22c-.22-.66-.36-1.05-.36-1.05l.35,1.06c.1.34.2.75.33,1.23s.26,1,.4,1.59.28,1.23.44,1.9.29,1.39.45,2.13c.3,1.48.61,3.06.91,4.64.58,3.17,1.13,6.34,1.52,8.72l.65,4h0a.25.25,0,0,0,.29.21.27.27,0,0,0,.22-.3Z"/><path class="cls-17" d="M1067.57,500.59s0-.35,0-1,0-1.51,0-2.58,0-2.32-.06-3.65c0-.67,0-1.36-.06-2.06s-.05-1.42-.07-2.13,0-1.42-.09-2.12-.08-1.39-.11-2.06-.09-1.31-.14-1.92-.1-1.19-.14-1.72-.1-1-.16-1.45-.11-.8-.15-1.11c-.08-.62-.12-1-.12-1s0,.35.1,1c0,.31.08.69.12,1.12s.11.91.13,1.45.07,1.11.1,1.72.08,1.25.09,1.92,0,1.36.07,2.06,0,1.41,0,2.12l0,2.12c0,.7,0,1.39,0,2.06,0,1.34,0,2.58,0,3.65s0,2,0,2.58,0,1,0,1a.26.26,0,0,0,.25.26.27.27,0,0,0,.27-.25Z"/><path class="cls-17" d="M1078.57,501.29s.35-4.42.49-8.86c0-1.1.06-2.21.07-3.25,0-.52,0-1,0-1.5s0-.93,0-1.34l0-.6,0-.54c0-.34,0-.63-.07-.87-.06-.48-.09-.76-.09-.76s0,.28.06.76c0,.24,0,.54,0,.87,0,.17,0,.35,0,.54v.6c0,.41,0,.86,0,1.34s0,1,0,1.49c0,1-.09,2.15-.16,3.25-.26,4.42-.75,8.82-.75,8.82a.27.27,0,0,0,.23.29.27.27,0,0,0,.29-.23Z"/><path class="cls-17" d="M1087.16,504.94s.4-4,.69-8c.07-1,.13-2,.19-2.95,0-.47,0-.93.06-1.36s0-.84,0-1.22,0-.73,0-1,0-.58,0-.8,0-.39-.06-.51l0-.18s0,.06,0,.18a3.08,3.08,0,0,1,0,.51c0,.22,0,.49,0,.79s0,.66,0,1,0,.79-.08,1.22-.06.89-.11,1.35c-.08.95-.18,1.95-.28,2.95-.42,4-.94,8-.94,8a.26.26,0,0,0,.22.29.27.27,0,0,0,.29-.23Z"/><path class="cls-17" d="M1093.59,509.15s.61-3.75,1-7.53q.07-.71.12-1.41c0-.47.07-.92.1-1.37s0-.87.06-1.28,0-.79,0-1.14,0-.69,0-1,0-.54,0-.74c0-.42-.06-.65-.06-.65s0,.23,0,.65a5.88,5.88,0,0,1,0,.74c0,.29,0,.62,0,1s0,.74-.06,1.14-.06.84-.1,1.28-.09.9-.15,1.36-.1.93-.17,1.4c-.12.94-.26,1.88-.39,2.75s-.28,1.7-.4,2.39c-.24,1.4-.43,2.33-.43,2.33a.25.25,0,0,0,.2.3.26.26,0,0,0,.31-.2Z"/><path class="cls-20" d="M1081.86,564.12c-18.18-.23-35.8-13.55-42.16-20.16s-15.53-9.13-23,2c-3.69,5.49-7.73,3.28-10.33,2-.16-1.9,1.79-5.35,1.79-5.35,6.38-15.75,22.17-24.45,42.54-19.5s68.55,17.45,92.54,9.64a62.77,62.77,0,0,1,.23,6.83C1130.69,560.49,1099.64,564.34,1081.86,564.12Z"/><path class="cls-21" d="M1006.38,547.9c2.6,1.3,6.64,3.51,10.33-2,7.46-11.09,16.64-8.58,23-2a69.47,69.47,0,0,0,10.47,8.63c7.11,22.56-17.18,15.59-20.09,13.24-6.52-5.25-18-3.22-17.49.17-3.59-5-4.2-9.63-5.6-15A23.92,23.92,0,0,1,1006.38,547.9Z"/><path class="cls-22" d="M1030.08,565.83c2.91,2.35,27.2,9.32,20.09-13.24,8.39,5.75,19.93,11.38,31.69,11.53,17.78.22,48.83-3.63,61.62-24.6-.43,21.12-11.93,39.5-37.84,51.6-28.68,13.39-58.71-2-73-9.76-11-6-16.77-10.81-20-15.36C1012.11,562.61,1023.56,560.58,1030.08,565.83Z"/><path class="cls-23" d="M1063.06,555.6c23.31-16.09,26.21-33.77,36.93-51.76s34.38-47.44,33.6-25.31c12.23-6.48,10.52,14,6.61,22.38,8.51-2.31,6.83,10.68-1.32,18.13,5.24,1.15,3.84,13.83-4.72,19.26,1.59,2.56,1.31,10.86-12.31,18.16C1088.77,574.18,1051.77,563.39,1063.06,555.6Z"/><path class="cls-16" d="M1063.06,555.6c19.69-13.6,24.82-28.32,32.4-43.42,2.29-1.17,4.09-.25,2.94,5.27,3.51-2.72,5.36.76,3.25,5.22,3.91-1.87,3.55,3.8.94,6.9,4.28-.79,4.57,2.64,0,8.41,5.85-2,2.72,6-.65,9,6.21-1.64,4.08,4.91-1.76,8.08,2.65.37,3,5-2.66,9.75C1073.51,569.06,1054.54,561.48,1063.06,555.6Z"/><path class="cls-17" d="M1101.77,511.2l3.78-5.19,3.9-5.3c1.43-1.94,3-4,4.51-6s3.1-4.1,4.55-6c.72-1,1.45-1.87,2.12-2.74s1.32-1.69,1.91-2.46,1.15-1.44,1.64-2.05l1.27-1.57,1.11-1.38-1.12,1.36-1.3,1.56c-.49.61-1.07,1.28-1.66,2l-1.94,2.43c-.69.87-1.42,1.77-2.16,2.72-1.47,1.9-3.07,3.92-4.63,6s-3.13,4.07-4.58,6l-4,5.25-3.85,5.14a.26.26,0,0,0,.05.36.25.25,0,0,0,.36-.05h0Z"/><path class="cls-17" d="M1107.4,518.9l.38-.3,1.07-.84,1.62-1.38c.61-.55,1.31-1.15,2-1.84s1.55-1.42,2.38-2.22l1.28-1.23,1.33-1.29c.9-.88,1.81-1.8,2.74-2.74s1.86-1.91,2.8-2.87,1.85-1.94,2.74-2.91,1.79-1.92,2.62-2.87c.42-.46.83-.93,1.23-1.38l1.16-1.34c.76-.87,1.44-1.72,2.08-2.5.33-.38.61-.77.89-1.13l.8-1c.48-.66.88-1.25,1.22-1.73s.55-.89.72-1.16l.24-.41-.25.41c-.17.27-.4.66-.73,1.15s-.75,1.06-1.24,1.71l-.81,1c-.28.36-.58.74-.9,1.12-.66.77-1.34,1.61-2.11,2.47l-1.18,1.33-1.24,1.37c-.85.93-1.74,1.87-2.65,2.83s-1.85,1.91-2.78,2.87-1.88,1.91-2.82,2.83-1.87,1.84-2.78,2.71l-1.34,1.27-1.29,1.21c-.84.79-1.65,1.52-2.4,2.19s-1.44,1.27-2.06,1.81l-1.61,1.34-1.08.83-.38.29h0a.26.26,0,0,0,.32.42Z"/><path class="cls-17" d="M1108.31,531.36s2.06-1.23,5.1-3.15c1.53-1,3.29-2.1,5.17-3.33.94-.62,1.91-1.26,2.89-1.93s2-1.33,3-2,2-1.38,2.91-2.08l1.42-1,1.36-1c.44-.35.89-.67,1.31-1l1.24-1c.81-.64,1.55-1.28,2.23-1.87.33-.3.67-.57,1-.85l.84-.8.75-.71c.23-.21.41-.44.6-.63l1.12-1.2L1138,509.9c-.19.19-.37.41-.61.62l-.75.69-.85.79c-.31.28-.65.54-1,.84-.68.57-1.43,1.21-2.24,1.83l-1.25,1-1.33,1-1.37,1-1.43,1c-1,.69-2,1.37-2.94,2s-2,1.33-3,2-2,1.27-2.91,1.89c-1.89,1.2-3.67,2.31-5.21,3.25-3.06,1.88-5.14,3.07-5.14,3.07a.26.26,0,0,0-.09.35.25.25,0,0,0,.35.1Z"/><path class="cls-17" d="M1109.26,542.11l.31-.09.89-.29,1.38-.46c.52-.19,1.12-.39,1.76-.65s1.33-.51,2.06-.81,1.49-.63,2.28-1,1.59-.71,2.4-1.12,1.64-.78,2.45-1.22l1.21-.64,1.19-.66c.39-.23.78-.44,1.16-.67l1.11-.68,1.08-.66,1-.67,1-.64c.31-.21.59-.43.87-.62l1.51-1.11,1.12-.91,1-.79-1,.77-1.13.89-1.53,1.08c-.28.19-.56.41-.88.61l-1,.62c-.33.21-.67.42-1,.65l-1.09.64-1.12.66-1.18.65-1.19.64-1.22.61c-.81.42-1.64.8-2.46,1.18s-1.63.72-2.41,1.06-1.55.65-2.28.93l-2.07.77-1.77.61-1.37.43-.88.27-.31.08h0a.25.25,0,0,0-.18.31.26.26,0,0,0,.32.18Z"/><path class="cls-17" d="M1107.37,555.62s1.49-.53,3.7-1.37l3.77-1.49,2.1-.88c.72-.31,1.45-.61,2.16-.94s1.45-.64,2.15-1l1-.5,1-.5,1-.49.92-.49.87-.47.8-.47.73-.44.64-.42a10.47,10.47,0,0,0,1-.72l.86-.66-.87.65c-.27.21-.63.43-1,.69l-.65.41-.73.42-.81.45c-.27.15-.57.3-.87.45l-.93.48-1,.47-1,.47-1,.47c-.71.33-1.43.63-2.16.94s-1.46.6-2.17.89l-2.12.83c-1.38.53-2.68,1-3.79,1.41-2.22.8-3.72,1.29-3.72,1.29a.25.25,0,0,0-.16.32.26.26,0,0,0,.32.17Z"/><path class="cls-8" d="M1081.6,602.49l.23-.37.27-.35.29-.31.32-.27c.22-.17.44-.34.67-.49s.47-.27.71-.39a15.85,15.85,0,0,1,3-1.11c1-.28,2-.48,3.06-.66.51-.08,1-.15,1.54-.21s.81-.1,1.22-.13l7.07-7.78-3.4-4c.07-.43.78-1.05,1.21-1s4.18,4.91,4.18,4.91l0,.18-.1.15-7.3,8c.23.1.46.19.68.31s.57.29.84.45.53.35.79.53a9.48,9.48,0,0,1,1.42,1.27,8.42,8.42,0,0,1,.61.73,4.81,4.81,0,0,1,.27.41c.09.14.17.27.26.44a.48.48,0,0,1-.19.61.47.47,0,0,1-.63-.17v0c-.06-.08-.14-.22-.22-.32a2.7,2.7,0,0,0-.25-.34,8.2,8.2,0,0,0-.57-.62,8.34,8.34,0,0,0-1.32-1.05,7.89,7.89,0,0,0-.74-.43,6.67,6.67,0,0,0-.76-.37c-.26-.12-.54-.2-.8-.3l-.32-.1h-.29l-.66,0a9.35,9.35,0,0,0-2.92,1.61,18.09,18.09,0,0,0-1.6,1.44c-.5.51-1,1.05-1.43,1.6h0a.51.51,0,0,1-.69.1.52.52,0,0,1-.12-.71,22.66,22.66,0,0,1,1.47-1.75,18.85,18.85,0,0,1,1.64-1.58l.55-.43c-.72.09-1.44.21-2.15.37a14.41,14.41,0,0,0-2.79.89c-.22.09-.43.2-.64.31a5.87,5.87,0,0,0-.59.37l-.27.22-.24.23-.22.24-.18.27,0,.06a.47.47,0,0,1-.63.13A.48.48,0,0,1,1081.6,602.49Z"/><path class="cls-24" d="M1019.43,544a5.24,5.24,0,1,0,7-2.52A5.24,5.24,0,0,0,1019.43,544Z"/><path class="cls-25" d="M1020.53,544.66a3.45,3.45,0,1,0,4.59-1.65A3.46,3.46,0,0,0,1020.53,544.66Z"/><path class="cls-26" d="M1024.27,544.06a1.68,1.68,0,1,0,2.23-.8A1.68,1.68,0,0,0,1024.27,544.06Z"/><path class="cls-27" d="M1006.14,543.82s-8.8,2-8.45,2.95,9,7.3,10.7,7c1.13-.23,3.29-2.58,3.71-3.76s-1.77-1.79-2.34-2.32S1008.11,543.35,1006.14,543.82Z"/></g><g class="cls-91"><g class="cls-92"><g id="Slide_1-2" data-name="Slide 1"><g class="cls-5"><rect class="cls-93" x="1123.71" y="-113.24" width="1668.71" height="926.47"/></g></g></g><path class="cls-94" d="M1447.4,82h0c-51.84,4.62-98.36,5.63-152.78,1.4h0c-15.23-2.53-26.1-10.39-27.15-19.65L1260.21,0h213.26l-5.94,66.77C1466.9,73.82,1458.88,79.9,1447.4,82Z"/><rect class="cls-95" x="1277.05" y="6.84" width="21.15" height="3.7" rx="0.94"/><rect class="cls-95" x="1277.05" y="18.46" width="21.15" height="3.7" rx="0.94"/><rect class="cls-95" x="1277.05" y="30.07" width="21.15" height="3.7" rx="0.94"/><rect class="cls-95" x="1277.05" y="41.68" width="21.15" height="3.7" rx="0.94"/><rect class="cls-95" x="1277.05" y="53.3" width="21.15" height="3.7" rx="0.94"/><rect class="cls-95" x="1277.05" y="64.91" width="21.15" height="3.7" rx="0.94"/></g><g class="cls-96"><g class="cls-97"><g id="BG"><rect class="cls-98" x="-1508" y="634" width="1721.08" height="693"/></g></g></g><g class="cls-99"><g class="cls-100"><g id="BG-2" data-name="BG"><rect class="cls-101" x="-208" y="634" width="1721.08" height="693"/></g></g><path class="cls-57" d="M338.39,863l-4.71-.2-16.81-.71-16.13-.68-37.8-1.6-16.29-.68-19.74-.85-2-.08S38.84,648.91,53.63,544.26c8-56.42,34.89-85.76,58-100.85a.21.21,0,0,1,.07-.05c19.74-12.83,36.67-15.28,36.67-15.28a117.59,117.59,0,0,1,17.17-9.14h0c24.34-10.46,45.13-9.1,55.88-7.17a53,53,0,0,1,7.86,1.91c59-26.12,96.18-2.52,102.61,2.12.67.49,1,.76,1,.76,26.67-9,50.62-4.46,65.83.83a89.06,89.06,0,0,1,17.06,7.81,168.15,168.15,0,0,1,40.9,21.49h0s0,0,.07.07C609.17,559.15,338.39,863,338.39,863Z"/><path class="cls-58" d="M343.32,551.94c0,121-20.1,258.18-42.58,309.49l-37.8-1.6C244.5,817.46,230,719.64,219,606.51c-8.88-91.73-6.08-153.44,2.39-194.74a53,53,0,0,1,7.86,1.91c59-26.12,96.18-2.52,102.61,2.12C338.9,450.12,343.32,495.25,343.32,551.94Z"/><path class="cls-58" d="M333.68,862.82l-16.81-.71C481.39,594,434.11,440.56,402.24,418.68l54.46,28h0s-27.66-15.58-27.65-15.56C587.57,542.34,378.92,808.17,333.68,862.82Z"/><path class="cls-58" d="M246.65,859.15l-19.74-.85C175.35,795-8.7,552,111.63,443.41a.21.21,0,0,1,.07-.05c19.74-12.83,36.67-15.28,36.67-15.28,5.86-3.75-2.43.44,3.14-1.94C131.85,462.28,90,599.24,246.65,859.15Z"/></g><g class="cls-102"><g class="cls-103"><g id="BG-3" data-name="BG"><rect class="cls-104" x="713.3" y="554" width="2095.64" height="843.82"/></g></g></g></g></g></svg>