<svg xmlns="http://www.w3.org/2000/svg" xmlns:xlink="http://www.w3.org/1999/xlink" viewBox="0 0 1280 720"><defs><style>.cls-1,.cls-39,.cls-94{fill:none;}.cls-2{isolation:isolate;}.cls-3{clip-path:url(#clip-path);}.cls-4{clip-path:url(#clip-path-2);}.cls-5{clip-path:url(#clip-path-3);}.cls-6{fill:url(#linear-gradient);}.cls-7{clip-path:url(#clip-path-4);}.cls-8{clip-path:url(#clip-path-5);}.cls-9{fill:url(#linear-gradient-2);}.cls-10{fill:#539b56;}.cls-11{fill:#104c16;}.cls-12{fill:url(#linear-gradient-3);}.cls-13{fill:#158240;}.cls-14{clip-path:url(#clip-path-6);}.cls-15{clip-path:url(#clip-path-7);}.cls-16{fill:url(#linear-gradient-4);}.cls-17{fill:url(#linear-gradient-5);}.cls-18{fill:url(#linear-gradient-6);}.cls-19{fill:url(#linear-gradient-7);}.cls-20{fill:url(#linear-gradient-8);}.cls-21{fill:url(#linear-gradient-9);}.cls-22{fill:#ff440b;}.cls-23{fill:#eadfc7;}.cls-24{fill:#ff603b;}.cls-25{fill:#8c7c72;}.cls-26{fill:#fff3d4;}.cls-27{fill:#6d615a;}.cls-28,.cls-46{fill:#fff;}.cls-28{opacity:0.35;}.cls-29{fill:#e0340b;}.cls-30{fill:#eadfc5;}.cls-31{fill:#dbc8af;}.cls-32{fill:#e55438;}.cls-33{fill:#4a2a15;}.cls-34{fill:#9b9b9b;}.cls-34,.cls-35,.cls-37,.cls-38,.cls-39,.cls-40,.cls-42,.cls-43,.cls-57,.cls-60,.cls-61,.cls-62,.cls-64,.cls-68,.cls-70,.cls-71,.cls-94{stroke:#323232;}.cls-34,.cls-35,.cls-36,.cls-37,.cls-38,.cls-39,.cls-40,.cls-42,.cls-43,.cls-50,.cls-57,.cls-60,.cls-61,.cls-62,.cls-64,.cls-68,.cls-70,.cls-71,.cls-73,.cls-94{stroke-miterlimit:10;}.cls-34,.cls-35,.cls-70,.cls-71{stroke-width:0.5px;}.cls-35{fill:#9cb9e1;}.cls-36,.cls-48{fill:#3d2d16;}.cls-36{stroke:#3d2d16;}.cls-37,.cls-38,.cls-51{fill:#fad2c6;}.cls-37,.cls-50,.cls-94{stroke-width:0.75px;}.cls-40{fill:#fcd97e;}.cls-41{fill:#dc9e8f;}.cls-42,.cls-43{fill:#e0604f;}.cls-43{stroke-width:0.22px;}.cls-44{fill:#f18d7a;}.cls-45{fill:#323232;}.cls-47{fill:#e8d860;}.cls-49{fill:#a67d48;}.cls-50{fill:#ad6428;stroke:#c77929;}.cls-52{fill:#411e16;}.cls-53{fill:#fff7f4;}.cls-54,.cls-71{fill:#d26653;}.cls-55{fill:#ef4b3b;}.cls-56{fill:#f49990;}.cls-57,.cls-68{fill:#f6fbfd;}.cls-57{stroke-width:0.44px;}.cls-58{fill:#451f16;}.cls-59{fill:#e4a58c;}.cls-60{fill:#ffd02a;}.cls-61{fill:#81a6d6;}.cls-62{fill:#597dbe;}.cls-63{fill:#3c62a0;}.cls-64{fill:#fccd3a;}.cls-65{fill:#be9030;}.cls-66{fill:#5c5548;}.cls-67{fill:#424036;}.cls-69{fill:#ce9685;}.cls-70{fill:#561211;}.cls-72{fill:#421b16;}.cls-73{fill:#311415;stroke:#211e1f;}.cls-74{fill:#90856e;}.cls-75{fill:#605e44;}.cls-76,.cls-79{fill:#9e9580;opacity:0.5;}.cls-76,.cls-78{mix-blend-mode:multiply;}.cls-77,.cls-78{fill:#676254;}.cls-78{opacity:0.4;}.cls-79{mix-blend-mode:screen;}.cls-80{fill:#c28974;}.cls-81{fill:#fab51b;}.cls-82{fill:#f17125;}.cls-83{fill:#80351b;}.cls-84{fill:#75451c;}.cls-85{fill:#a66638;}.cls-86{fill:#925b24;}.cls-87{fill:#e69847;}.cls-88{fill:#5f2710;}.cls-89{fill:#e13e26;}.cls-90{fill:#fddf0e;}.cls-91{fill:#281b17;}.cls-92{fill:#473a3a;}.cls-93{fill:#5e5454;}.cls-95{clip-path:url(#clip-path-9);}.cls-96{clip-path:url(#clip-path-10);}.cls-97{fill:url(#linear-gradient-10);}.cls-98{fill:url(#linear-gradient-11);}.cls-99{clip-path:url(#clip-path-12);}.cls-100{clip-path:url(#clip-path-13);}.cls-101{fill:url(#linear-gradient-12);}.cls-102{clip-path:url(#clip-path-14);}.cls-103{clip-path:url(#clip-path-15);}.cls-104{fill:url(#linear-gradient-13);}.cls-105{clip-path:url(#clip-path-16);}.cls-106{clip-path:url(#clip-path-17);}.cls-107{fill:url(#linear-gradient-14);}</style><clipPath id="clip-path"><rect class="cls-1" y="-740" width="1280" height="720"/></clipPath><clipPath id="clip-path-2"><rect class="cls-1" x="-160" y="-830" width="1600" height="900"/></clipPath><clipPath id="clip-path-3"/><linearGradient id="linear-gradient" x1="599.07" y1="-1379.69" x2="676.41" y2="665.43" gradientUnits="userSpaceOnUse"><stop offset="0.21" stop-color="#a2d9d8"/><stop offset="0.22" stop-color="#9ad7d7"/><stop offset="0.24" stop-color="#86d1d4"/><stop offset="0.26" stop-color="#7acdd3"/><stop offset="0.27" stop-color="#76ccd2"/><stop offset="0.33" stop-color="#7acdd2"/><stop offset="0.39" stop-color="#86d1d2"/><stop offset="0.45" stop-color="#9ad6d2"/><stop offset="0.5" stop-color="#addcd2"/><stop offset="0.52" stop-color="#b5dfd6"/><stop offset="0.57" stop-color="#cae8e2"/><stop offset="0.62" stop-color="#ecf7f4"/><stop offset="0.64" stop-color="#fff"/><stop offset="1" stop-color="#c8e5d2"/></linearGradient><clipPath id="clip-path-4"><rect class="cls-1" x="1300" y="-740" width="1280" height="720"/></clipPath><clipPath id="clip-path-5"><rect class="cls-1" x="1140" y="-830" width="1600" height="900"/></clipPath><linearGradient id="linear-gradient-2" x1="1994.65" y1="45.02" x2="1991.93" y2="-376.34" gradientUnits="userSpaceOnUse"><stop offset="0.17" stop-color="#66d579"/><stop offset="0.94" stop-color="#8ace9a"/></linearGradient><linearGradient id="linear-gradient-3" x1="3468.16" y1="8.3" x2="3588.53" y2="8.3" gradientTransform="matrix(-1, 0, 0, 1, 4728.53, 0)" gradientUnits="userSpaceOnUse"><stop offset="0" stop-color="#174124"/><stop offset="0" stop-color="#1c251b"/><stop offset="0" stop-color="#1b331d"/><stop offset="0.18" stop-color="#1b361e"/><stop offset="0.86" stop-color="#1a3b20"/></linearGradient><clipPath id="clip-path-6"><rect class="cls-1" width="1280" height="720"/></clipPath><clipPath id="clip-path-7"><rect class="cls-1" x="-160" y="-90" width="1600" height="900"/></clipPath><linearGradient id="linear-gradient-4" x1="599.07" y1="-639.69" x2="676.41" y2="1405.43" xlink:href="#linear-gradient"/><linearGradient id="linear-gradient-5" x1="608.75" y1="251.6" x2="705.3" y2="20.75" gradientUnits="userSpaceOnUse"><stop offset="0.06" stop-color="#7dced2"/><stop offset="0.22" stop-color="#8cd2d2"/><stop offset="0.48" stop-color="#addcd2"/><stop offset="0.96" stop-color="#afddd3"/></linearGradient><linearGradient id="linear-gradient-6" x1="1192.7" y1="427.75" x2="1329.17" y2="101.46" gradientUnits="userSpaceOnUse"><stop offset="0.13" stop-color="#b8e1d8"/><stop offset="0.51" stop-color="#d0ebe5"/><stop offset="0.54" stop-color="#d2ece6"/></linearGradient><linearGradient id="linear-gradient-7" x1="150.03" y1="568.9" x2="274.92" y2="270.31" gradientUnits="userSpaceOnUse"><stop offset="0" stop-color="#c5e6df"/><stop offset="0.54" stop-color="#d2ece6"/></linearGradient><linearGradient id="linear-gradient-8" x1="1110.39" y1="24.21" x2="856.39" y2="379.02" gradientUnits="userSpaceOnUse"><stop offset="0.17" stop-color="#a2d9d8"/><stop offset="0.19" stop-color="#9ad7d7"/><stop offset="0.27" stop-color="#86d1d4"/><stop offset="0.35" stop-color="#7acdd2"/><stop offset="0.44" stop-color="#76ccd1"/></linearGradient><linearGradient id="linear-gradient-9" x1="129.75" y1="434.61" x2="-124.25" y2="789.42" gradientUnits="userSpaceOnUse"><stop offset="0.08" stop-color="#b3dfd5"/><stop offset="0.49" stop-color="#b0ddd4"/></linearGradient><clipPath id="clip-path-9"><rect class="cls-1" x="1300" width="1280" height="720"/></clipPath><clipPath id="clip-path-10"><rect class="cls-1" x="1140" y="-90" width="1600" height="900"/></clipPath><linearGradient id="linear-gradient-10" x1="1921.4" y1="-619.56" x2="1997.24" y2="1386.15" xlink:href="#linear-gradient"/><linearGradient id="linear-gradient-11" x1="1350.77" y1="339.5" x2="1350.77" y2="775.6" gradientUnits="userSpaceOnUse"><stop offset="0.06" stop-color="#a2d9d8"/><stop offset="0.14" stop-color="#92d4d5"/><stop offset="0.28" stop-color="#7dced2"/><stop offset="0.36" stop-color="#76ccd1"/><stop offset="0.44" stop-color="#79cdd1"/><stop offset="0.48" stop-color="#81cfd1"/><stop offset="0.51" stop-color="#90d3d1"/><stop offset="0.55" stop-color="#a4d9d1"/><stop offset="0.56" stop-color="#addcd1"/><stop offset="0.57" stop-color="#b5dfd5"/><stop offset="0.6" stop-color="#cae8e1"/><stop offset="0.63" stop-color="#ecf7f4"/><stop offset="0.64" stop-color="#fff"/><stop offset="1" stop-color="#c7e5d2"/></linearGradient><clipPath id="clip-path-12"><rect class="cls-1" y="740" width="1280" height="720"/></clipPath><clipPath id="clip-path-13"><rect class="cls-1" x="-320" y="650" width="1600" height="900"/></clipPath><linearGradient id="linear-gradient-12" x1="480" y1="188.94" x2="480" y2="2150.42" gradientUnits="userSpaceOnUse"><stop offset="0.21" stop-color="#a2d9d8"/><stop offset="0.22" stop-color="#9ad7d7"/><stop offset="0.24" stop-color="#86d1d4"/><stop offset="0.26" stop-color="#7acdd2"/><stop offset="0.27" stop-color="#76ccd1"/><stop offset="0.38" stop-color="#79cdd1"/><stop offset="0.44" stop-color="#81cfd1"/><stop offset="0.49" stop-color="#90d3d1"/><stop offset="0.54" stop-color="#a4d9d1"/><stop offset="0.56" stop-color="#addcd1"/><stop offset="0.57" stop-color="#b5dfd5"/><stop offset="0.6" stop-color="#cae8e1"/><stop offset="0.63" stop-color="#ecf7f4"/><stop offset="0.64" stop-color="#fff"/><stop offset="1" stop-color="#c7e5d2"/></linearGradient><clipPath id="clip-path-14"><rect class="cls-1" x="1300" y="740" width="1280" height="720"/></clipPath><clipPath id="clip-path-15"><rect class="cls-1" x="1140" y="615.44" width="1600" height="900"/></clipPath><linearGradient id="linear-gradient-13" x1="1940" y1="154.38" x2="1940" y2="2115.86" xlink:href="#linear-gradient-12"/><clipPath id="clip-path-16"><rect class="cls-1" x="1300" y="1480" width="1280" height="720"/></clipPath><clipPath id="clip-path-17"><rect class="cls-1" x="-163.97" y="506.31" width="3238.61" height="1821.72"/></clipPath><linearGradient id="linear-gradient-14" x1="1458.72" y1="1695.29" x2="1450.93" y2="488.25" gradientUnits="userSpaceOnUse"><stop offset="0.3" stop-color="#90e7de"/><stop offset="0.94" stop-color="#bee7ea"/></linearGradient></defs><g class="cls-2"><g id="Layer_1" data-name="Layer 1"><g class="cls-3"><g class="cls-4"><g id="Slide_1" data-name="Slide 1"><g class="cls-5"><rect class="cls-6" x="-197.89" y="-864.04" width="1668.71" height="945.92"/></g></g></g></g><g class="cls-7"><g class="cls-8"><path class="cls-9" d="M1086.86-128.3s300-23.86,555.56-127.39c366.42-148.43,677.73-180.47,1155.75-157.12L2915-211.1,2861.91,49.39,1073.05,109.5Z"/><path class="cls-10" d="M1127.56-88.06s249.12,61.38,563.76-20.7c118.62-30.94,309.82-95,501.12-95,149,0,268.56,7.2,332.64,17.28,51.22,8.06,177.12,27,222.48,43.2l2.16,175H1125.4Z"/><path class="cls-11" d="M1127.56-63.5s170.35,55,533.52,5.22c198.72-27.24,347.76,41.52,786.24,62.64C2499.11,6.85,2716.6-10.52,2754,7.72L2749.72,84,1125.4,77.56Z"/><path class="cls-12" d="M1156,32.52s6.06-73.13,35.17-85.51c19.4-5.63,8.49,48.27-17.59,93.9,58.21-56.15,46.69-43.27,46.69-43.27,29.11-24.75,27.89,4.5,10.92,21.38A301.15,301.15,0,0,1,1190,56.15s0,6.75,12.71,0,33.38-18,33.38-18-32.75,15.75,2.42-1.13,21.83,15.76,2.43,23.63-14.82,8.63-14.82,8.63L1140,70l3.9-94.06s5-22.38,9.78-9.34S1156,32.52,1156,32.52Z"/><polygon class="cls-13" points="1150.41 64.04 1190.82 -38.86 1151.41 64.43 1150.41 64.04"/><path class="cls-13" d="M1160.18,68.08q19-16.68,37.8-33.64c6.25-5.67,12.48-11.35,18.63-17.12,1.55-1.43,3.07-2.89,4.6-4.34s3.06-2.91,4.55-4.39,3-2.95,4.48-4.47,2.89-3.07,4.29-4.65c-1.38,1.59-2.76,3.19-4.24,4.69s-2.94,3-4.43,4.52-3,3-4.51,4.44-3,2.94-4.56,4.39c-6.09,5.84-12.26,11.59-18.45,17.32q-18.6,17.18-37.46,34.05Z"/><path class="cls-13" d="M1198.67,68a134.36,134.36,0,0,0,13.82-3.86,142.18,142.18,0,0,0,13.38-5.25,106.28,106.28,0,0,0,12.6-6.92,65.66,65.66,0,0,0,11-9.22,65.25,65.25,0,0,1-10.87,9.44,105.55,105.55,0,0,1-12.52,7.18,142.51,142.51,0,0,1-13.35,5.52A138.06,138.06,0,0,1,1198.89,69Z"/></g></g><g class="cls-14"><g class="cls-15"><g id="Slide_1-2" data-name="Slide 1"><g class="cls-5"><rect class="cls-16" x="-197.89" y="-124.04" width="1668.71" height="945.92"/><path class="cls-17" d="M744.69,194.56c-.93-27.85-70.1-37.11-95.64-42.35-79-16.21-149.41,36.3-125.74,60.2,5.34,5.39,15.93,4.4,24.71,6.24,16.3,3.42,91.25,2.89,129.55,0C685.19,218.08,745.17,209,744.69,194.56Z"/><path class="cls-18" d="M1395,346.68c-1.39-34.8-105.25-46.38-143.6-52.92-118.66-20.25-224.32,45.36-188.79,75.23,8,6.74,23.93,5.5,37.11,7.8,24.47,4.27,137,3.61,194.5,0C1305.67,376.08,1395.72,364.68,1395,346.68Z"/><path class="cls-19" d="M335.16,494.72c-1.28-31.85-96.32-42.44-131.42-48.43C95.15,427.75-1.53,487.8,31,515.13c7.34,6.17,21.9,5,34,7.14,22.39,3.91,125.38,3.3,178,0C253.41,521.62,335.81,511.19,335.16,494.72Z"/></g></g><path class="cls-20" d="M938.66,99.77c2.88-7.47,74.28-40.44,146.73-27.75,75.2,19.19,106.39,57.12,33.94,61.45s-132.07-3.25-149.49-5.42S929.49,123.51,938.66,99.77Z"/><path class="cls-21" d="M-42,510.17c2.88-7.47,74.28-40.44,146.73-27.75,75.2,19.19,106.39,57.12,33.94,61.45S6.62,540.62-10.8,538.45-51.15,533.91-42,510.17Z"/></g><path class="cls-22" d="M1150.8,234.49l19.57-.07s55.71-62.47,65.75-94c8.68-27.21,5.06-60.4-17.63-80.16-26.72-23.27-68.44-22.84-68.44-22.84Z"/><path class="cls-23" d="M1150.05,37.46s34.06,1.55,54.14,21.08c21.25,20.66,20.83,34.38,20.27,53.69-1.48,51-57,122.2-57,122.2l-16.68.06Z"/><path class="cls-24" d="M1150.05,37.46a76.68,76.68,0,0,1,34.22,18.7c17.4,16.3,20.59,44.34,17.11,68.88-4.47,31.58-38.26,109.41-38.26,109.41l-12.32,0Z"/><polygon class="cls-25" points="1171.57 234.49 1160.51 249.15 1163.07 261.52 1161.48 261.55 1159.01 249.17 1169.66 234.52 1171.57 234.49"/><path class="cls-22" d="M1149.9,234.49h-19.57s-55.95-62.25-66.11-93.7c-8.78-27.19-5.28-60.38,17.33-80.23,26.63-23.38,68.35-23.1,68.35-23.1Z"/><path class="cls-23" d="M1149.9,37.46s-34.06,1.67-54.06,21.28c-21.17,20.75-20.7,34.46-20.06,53.78,1.67,51,57.44,122,57.44,122h16.68Z"/><path class="cls-24" d="M1149.9,37.46a76.7,76.7,0,0,0-34.15,18.83c-17.34,16.36-20.42,44.42-16.85,68.94,4.6,31.56,38.68,109.26,38.68,109.26h12.32Z"/><path class="cls-26" d="M1168.17,58.65c-5.87-14.06-18.27-21.19-18.27-21.19h0s-12.36,7.19-18.16,21.28c-5.41,13.15-8.18,32.39-5.38,64.26s18.85,111.49,18.85,111.49l10.4,0s15.65-79.71,18.28-111.59S1173.65,71.77,1168.17,58.65Z"/><rect class="cls-25" x="1129.17" y="233.18" width="42.4" height="1.32"/><path class="cls-25" d="M1150.88,285.22h0c-3.8,0-7.41.21-9.66-2.51-1.74-2.11-2.57-6.77-2.57-9.72V261.35h24.47V273c0,3.46-.13,7.8-2.44,10S1154.18,285.22,1150.88,285.22Z"/><path class="cls-27" d="M1160.62,261.35v19.38a2.59,2.59,0,0,1-2.6,2.59l-19.17-.23c.07-.16,0,.2,0,.2a2.51,2.51,0,0,0,2.4,1.93h19.27a2.6,2.6,0,0,0,2.6-2.6V261.35Z"/><path class="cls-27" d="M1141.25,261.35v19.38a2.59,2.59,0,0,0,2.59,2.59L1163,283l0,.26a2.55,2.55,0,0,1-2.42,2h-19.27a2.59,2.59,0,0,1-2.6-2.6V261.35Z"/><polygon class="cls-25" points="1129.17 234.49 1140.46 248.97 1138.65 261.35 1140.25 261.35 1141.96 248.97 1131.08 234.49 1129.17 234.49"/><polygon class="cls-25" points="1140.46 248.97 1160.51 249.15 1160.98 251.41 1140.1 251.41 1140.46 248.97"/><path class="cls-28" d="M1133.82,104.45a12.06,12.06,0,0,0,2,5.31c1.2,1.5,3.34,2.4,5.09,1.62,2-.89,2.57-3.35,2.84-5.5,1.93-15.37-.82-31.69,5.36-45.89,1.34-3.08,3.11-6.51,1.81-9.6-2-4.85-7.3-3.37-9.43,0-3.06,4.88-4.9,11.15-6.36,16.67A84.48,84.48,0,0,0,1133.82,104.45Z"/><path class="cls-28" d="M1105.57,97c.13,1.93.58,4.17,2.33,5a3.74,3.74,0,0,0,4-.85,8.32,8.32,0,0,0,2.08-3.72c3-9.57-.2-20.67,4.48-29.55,3-5.79,9.81-9.74,11.7-16.09-7.31-3.78-15.59,11.26-18.25,16.29A54.81,54.81,0,0,0,1105.57,97Z"/><path class="cls-28" d="M1082.5,86.79c-1.56,4-2.77,8.64-.78,12.44a3.84,3.84,0,0,0,1.89,1.92c1.9.72,3.83-1.05,4.76-2.86,1.86-3.64,2-7.87,2.65-11.9a43.69,43.69,0,0,1,11.54-23c2.67-2.77,5.82-5.36,7.07-9,.21-.61-4-.08-4.44.17-1.09.57-1.68,1.8-2.51,2.67-2.79,2.91-5.66,5.65-8.18,8.81A80.55,80.55,0,0,0,1082.5,86.79Z"/><path class="cls-28" d="M1067.27,90.84c-1,3.09-1.71,6.53-.37,9.47a2.84,2.84,0,0,0,1.3,1.49c1.59.72,3.14-1.12,3.75-2.76,1.55-4.21,1.53-8.81,2.44-13.21,1.95-9.38,8-17.3,13.92-24.86.34-.45-3.19.07-3.6.31-.82.48-1.51,1.89-2.11,2.61a97.57,97.57,0,0,0-6.3,8.14A74.11,74.11,0,0,0,1067.27,90.84Z"/><path class="cls-29" d="M1237.18,139.19c2.73-8.58,3.44-28.38,3.24-26.87-1.16,8.68-2.15,10.41-2.74,12.28a178,178,0,0,1-23,47A174.69,174.69,0,0,1,1195.53,195c-8.3,8.48-17.43,16.1-25.81,24.52-3.74,3.75-7.58,8.6-6.89,13.7l8.6,0S1227.14,170.68,1237.18,139.19Z"/><path class="cls-30" d="M1152,233.15h4s15.64-79.71,18.27-111.59c.57-6.9.88-13.21,1-19-2.72,4.51-2.48,13.17-3.29,17.91-1.28,7.45-2.67,14.89-4.38,22.26-2.11,9.09-4.69,18.07-6.53,27.22-1.43,7.11-2.4,14.3-3.36,21.49Z"/><path class="cls-31" d="M1168.38,233.16s54.29-71.49,56.22-122.47c-.68.36-4.67,14-6,18.76-2,7-5.61,12.06-8.14,18.91-6.21,16.81-11.91,25.2-24.66,46.83-7.09,12-18.14,23.5-21.82,37-.09.33-.16.68-.22,1Z"/><path class="cls-32" d="M1163.65,233.16s33.78-77.83,38.26-109.41c1-6.87.8-14.33.56-21.42-1.85,2.58-1.59,10.43-2.07,12.7q-3,14.37-7,28.53a460.56,460.56,0,0,1-19.71,56.14q-6.68,15.65-14.49,30.77a11.88,11.88,0,0,0-1,2.71Z"/><path class="cls-22" d="M816.16,234.49l19.57-.07s55.71-62.47,65.75-94c8.68-27.21,5.06-60.4-17.63-80.16C857.13,37,815.41,37.46,815.41,37.46Z"/><path class="cls-23" d="M815.41,37.46S849.47,39,869.55,58.54c21.25,20.66,20.83,34.38,20.27,53.69-1.49,51-57,122.2-57,122.2l-16.68.06Z"/><path class="cls-24" d="M815.41,37.46a76.68,76.68,0,0,1,34.22,18.7C867,72.46,870.22,100.5,866.74,125c-4.48,31.58-38.26,109.41-38.26,109.41l-12.32,0Z"/><polygon class="cls-25" points="836.93 234.49 825.86 249.15 828.43 261.52 826.84 261.55 824.36 249.17 835.02 234.52 836.93 234.49"/><path class="cls-22" d="M815.26,234.49H795.68s-55.94-62.25-66.1-93.7c-8.78-27.19-5.28-60.38,17.33-80.23,26.63-23.38,68.35-23.1,68.35-23.1Z"/><path class="cls-23" d="M815.26,37.46S781.2,39.13,761.2,58.74C740,79.49,740.5,93.2,741.14,112.52c1.67,51,57.44,122,57.44,122h16.68Z"/><path class="cls-24" d="M815.26,37.46a76.7,76.7,0,0,0-34.15,18.83c-17.34,16.36-20.42,44.42-16.85,68.94,4.6,31.56,38.68,109.26,38.68,109.26h12.32Z"/><path class="cls-26" d="M833.53,58.65c-5.87-14.06-18.27-21.19-18.27-21.19h0S802.9,44.65,797.1,58.74c-5.41,13.15-8.18,32.39-5.38,64.26s18.85,111.49,18.85,111.49l10.4,0s15.65-79.71,18.28-111.59S839,71.77,833.53,58.65Z"/><rect class="cls-25" x="794.53" y="233.18" width="42.4" height="1.32"/><path class="cls-25" d="M816.24,285.22h0c-3.8,0-7.41.21-9.66-2.51-1.74-2.11-2.57-6.77-2.57-9.72V261.35h24.46V273c0,3.46-.12,7.8-2.43,10S819.54,285.22,816.24,285.22Z"/><path class="cls-27" d="M826,261.35v19.38a2.59,2.59,0,0,1-2.6,2.59l-19.17-.23c.07-.16,0,.2,0,.2a2.51,2.51,0,0,0,2.4,1.93h19.27a2.59,2.59,0,0,0,2.59-2.6V261.35Z"/><path class="cls-27" d="M806.6,261.35v19.38a2.6,2.6,0,0,0,2.6,2.59l19.17-.31,0,.26a2.55,2.55,0,0,1-2.42,2H806.7a2.59,2.59,0,0,1-2.59-2.6V261.35Z"/><polygon class="cls-25" points="794.53 234.49 805.82 248.97 804.01 261.35 805.61 261.35 807.32 248.97 796.43 234.49 794.53 234.49"/><polygon class="cls-25" points="805.82 248.97 825.86 249.15 826.34 251.41 805.46 251.41 805.82 248.97"/><path class="cls-28" d="M799.18,104.45a12.06,12.06,0,0,0,2,5.31c1.2,1.5,3.34,2.4,5.09,1.62,2-.89,2.57-3.35,2.84-5.5,1.93-15.37-.82-31.69,5.36-45.89,1.34-3.08,3.11-6.51,1.8-9.6-2-4.85-7.29-3.37-9.42,0-3.06,4.88-4.9,11.15-6.36,16.67A84.34,84.34,0,0,0,799.18,104.45Z"/><path class="cls-28" d="M770.93,97c.13,1.93.58,4.17,2.33,5a3.74,3.74,0,0,0,4-.85,8.32,8.32,0,0,0,2.08-3.72c3-9.57-.2-20.67,4.48-29.55,3.05-5.79,9.81-9.74,11.7-16.09C788.18,48,779.9,63.05,777.24,68.08A54.81,54.81,0,0,0,770.93,97Z"/><path class="cls-28" d="M747.86,86.79c-1.56,4-2.77,8.64-.78,12.44a3.84,3.84,0,0,0,1.89,1.92c1.9.72,3.83-1.05,4.76-2.86,1.86-3.64,2-7.87,2.65-11.9a43.69,43.69,0,0,1,11.54-23c2.67-2.77,5.82-5.36,7.07-9,.21-.61-4-.08-4.45.17-1.08.57-1.67,1.8-2.5,2.67-2.79,2.91-5.66,5.65-8.18,8.81A80.55,80.55,0,0,0,747.86,86.79Z"/><path class="cls-28" d="M732.63,90.84c-1,3.09-1.72,6.53-.37,9.47a2.87,2.87,0,0,0,1.29,1.49c1.6.72,3.15-1.12,3.76-2.76,1.55-4.21,1.53-8.81,2.44-13.21,2-9.38,8-17.3,13.92-24.86.34-.45-3.19.07-3.6.31-.82.48-1.52,1.89-2.11,2.61a97.57,97.57,0,0,0-6.3,8.14A74.11,74.11,0,0,0,732.63,90.84Z"/><path class="cls-29" d="M902.54,139.19c2.73-8.58,3.44-28.38,3.24-26.87-1.16,8.68-2.15,10.41-2.74,12.28a178,178,0,0,1-23,47A174.69,174.69,0,0,1,860.89,195c-8.3,8.48-17.44,16.1-25.81,24.52-3.74,3.75-7.58,8.6-6.9,13.7l8.6,0S892.5,170.68,902.54,139.19Z"/><path class="cls-30" d="M817.36,233.15h4S837,153.43,839.59,121.55c.57-6.9.88-13.21,1-19-2.72,4.51-2.48,13.17-3.29,17.91-1.28,7.45-2.67,14.89-4.38,22.26-2.11,9.09-4.69,18.07-6.53,27.22-1.43,7.11-2.4,14.3-3.37,21.49Q820.19,212.3,817.36,233.15Z"/><path class="cls-31" d="M833.73,233.16S888,161.67,890,110.69c-.67.36-4.66,14-6,18.76-2,7-5.61,12.06-8.14,18.91-6.21,16.81-11.91,25.2-24.67,46.83-7.08,12-18.13,23.5-21.81,37-.09.33-.16.68-.22,1Z"/><path class="cls-32" d="M829,233.16s33.78-77.83,38.26-109.41c1-6.87.8-14.33.56-21.42-1.85,2.58-1.59,10.43-2.07,12.7q-3,14.37-7,28.53a460.56,460.56,0,0,1-19.71,56.14q-6.67,15.65-14.49,30.77a11.88,11.88,0,0,0-1,2.71Z"/><path class="cls-22" d="M983.21,302.75l13.6-.05s38.72-43.41,45.7-65.3c6-18.91,3.51-42-12.26-55.71-18.57-16.17-47.56-15.87-47.56-15.87Z"/><path class="cls-23" d="M982.69,165.82s23.67,1.07,37.63,14.65c14.76,14.36,14.47,23.89,14.08,37.32-1,35.46-39.6,84.92-39.6,84.92l-11.59,0Z"/><path class="cls-24" d="M982.69,165.82a53.28,53.28,0,0,1,23.78,13c12.09,11.32,14.31,30.81,11.89,47.87-3.11,21.94-26.59,76-26.59,76l-8.56,0Z"/><polygon class="cls-25" points="997.64 302.75 989.95 312.94 991.74 321.54 990.63 321.56 988.91 312.95 996.32 302.77 997.64 302.75"/><path class="cls-22" d="M982.58,302.75H969S930.1,259.49,923,237.63c-6.11-18.89-3.68-42,12-55.76,18.51-16.24,47.5-16.05,47.5-16.05Z"/><path class="cls-23" d="M982.58,165.81S958.92,167,945,180.61C930.3,195,930.63,204.56,931.07,218c1.16,35.46,39.92,84.77,39.92,84.77h11.59Z"/><path class="cls-24" d="M982.58,165.81a53.4,53.4,0,0,0-23.73,13.1c-12.05,11.37-14.19,30.86-11.71,47.91,3.19,21.93,26.88,75.93,26.88,75.93h8.56Z"/><path class="cls-26" d="M995.28,180.54a33.33,33.33,0,0,0-12.7-14.72h0A33.3,33.3,0,0,0,970,180.61c-3.76,9.14-5.68,22.51-3.74,44.66s13.11,77.48,13.11,77.48h7.22s10.88-55.4,12.7-77.56S999.09,189.66,995.28,180.54Z"/><rect class="cls-25" x="968.18" y="301.84" width="29.47" height="0.91"/><path class="cls-25" d="M983.27,338h0c-2.64,0-5.16.15-6.72-1.74-1.21-1.47-1.78-4.71-1.78-6.76v-8.09h17v8.09c0,2.4-.09,5.42-1.69,7S985.56,338,983.27,338Z"/><path class="cls-27" d="M990,321.42v13.46a1.8,1.8,0,0,1-1.8,1.81l-13.33-.16c.05-.11,0,.14,0,.14a1.74,1.74,0,0,0,1.67,1.34H990a1.81,1.81,0,0,0,1.81-1.81V321.42Z"/><path class="cls-27" d="M976.57,321.42v13.46a1.81,1.81,0,0,0,1.8,1.81l13.33-.22v.18A1.77,1.77,0,0,1,990,338H976.64a1.81,1.81,0,0,1-1.81-1.81V321.42Z"/><polygon class="cls-25" points="968.18 302.75 976.02 312.82 974.76 321.42 975.88 321.42 977.06 312.82 969.5 302.75 968.18 302.75"/><polygon class="cls-25" points="976.02 312.82 989.95 312.94 990.28 314.51 975.77 314.51 976.02 312.82"/><path class="cls-28" d="M971.41,212.38a8.3,8.3,0,0,0,1.4,3.69,3.12,3.12,0,0,0,3.54,1.12c1.37-.62,1.79-2.33,2-3.82,1.34-10.68-.56-22,3.73-31.9.93-2.14,2.16-4.52,1.25-6.67-1.42-3.37-5.07-2.34-6.55,0-2.13,3.39-3.4,7.74-4.42,11.58A58.7,58.7,0,0,0,971.41,212.38Z"/><path class="cls-28" d="M951.78,207.21c.08,1.33.4,2.9,1.61,3.46a2.59,2.59,0,0,0,2.76-.59,5.76,5.76,0,0,0,1.45-2.58c2.11-6.65-.14-14.37,3.11-20.54,2.12-4,6.82-6.77,8.13-11.18-5.07-2.63-10.83,7.82-12.68,11.32A38,38,0,0,0,951.78,207.21Z"/><path class="cls-28" d="M935.74,200.1c-1.09,2.78-1.92,6-.54,8.65a2.73,2.73,0,0,0,1.31,1.33c1.32.5,2.67-.73,3.31-2,1.29-2.52,1.38-5.47,1.84-8.27a30.38,30.38,0,0,1,8-16c1.86-1.93,4.05-3.72,4.92-6.26.14-.42-2.77,0-3.09.12-.76.4-1.16,1.26-1.74,1.86-1.94,2-3.93,3.93-5.69,6.12A56,56,0,0,0,935.74,200.1Z"/><path class="cls-28" d="M925.16,202.92c-.68,2.14-1.2,4.53-.26,6.58a2,2,0,0,0,.9,1c1.11.5,2.19-.77,2.61-1.92,1.08-2.92,1.06-6.12,1.7-9.17,1.35-6.53,5.57-12,9.67-17.28.24-.31-2.22,0-2.5.21-.58.34-1.06,1.32-1.47,1.81a68.23,68.23,0,0,0-4.37,5.66A51.36,51.36,0,0,0,925.16,202.92Z"/><path class="cls-29" d="M1043.24,236.52c1.9-6,2.39-19.72,2.25-18.68-.81,6-1.49,7.24-1.9,8.54a123.54,123.54,0,0,1-29.29,48.9c-5.77,5.89-12.12,11.19-17.94,17-2.6,2.61-5.27,6-4.79,9.52l6,0S1036.26,258.4,1043.24,236.52Z"/><path class="cls-30" d="M984.05,301.82h2.74s10.88-55.4,12.7-77.56c.4-4.8.62-9.18.67-13.2-1.89,3.13-1.72,9.15-2.28,12.44-.89,5.18-1.86,10.35-3,15.48-1.47,6.31-3.27,12.55-4.54,18.91-1,4.94-1.67,9.94-2.34,14.93Q986,287.33,984.05,301.82Z"/><path class="cls-31" d="M995.42,301.83s37.74-49.69,39.08-85.12c-.47.25-3.25,9.75-4.17,13-1.37,4.89-3.9,8.38-5.66,13.14-4.31,11.69-8.28,17.51-17.14,32.55-4.93,8.36-12.61,16.33-15.16,25.69-.06.22-.11.47-.15.71Z"/><path class="cls-32" d="M992.14,301.82s23.48-54.08,26.59-76a86.79,86.79,0,0,0,.39-14.89c-1.29,1.79-1.1,7.25-1.44,8.83q-2.11,10-4.86,19.82a318.28,318.28,0,0,1-13.71,39q-4.62,10.88-10.06,21.39a8.62,8.62,0,0,0-.72,1.88Z"/><polygon class="cls-33" points="390.39 267.84 408.97 472.95 412.2 472.92 393.56 267.84 390.39 267.84"/><polygon class="cls-33" points="231.16 267.64 211.92 472.95 208.69 472.92 228 267.64 231.16 267.64"/><path class="cls-34" d="M371.35,541.28c.38-1.17.87-3.08,2.1-3.67a1.11,1.11,0,0,1,1,.16c.33.16.67.37,1,.53.16.07,2.12.56,2.12.59.07-.29,0-.6.08-.9a2,2,0,0,1,.44-.71,2.18,2.18,0,0,1,2.83-.45c1.29.62,1.93,2,2.78,3.09a9.45,9.45,0,0,0,3.57,2.49,52.74,52.74,0,0,0,7.81,3.07,3.69,3.69,0,0,1,2.91,3.08c.22,1.32.31,3.31-.85,4.23a3.94,3.94,0,0,1-1.22.58,6.12,6.12,0,0,1-1.22.34c-3.48.7-7.34.12-10.76-.58-.64-.12-1.26-.26-1.88-.41a40.85,40.85,0,0,1-4.77-1.83c-1.36-.62-2.67-1.31-4-2a6.75,6.75,0,0,1-2.68-2.16c0-.44,0-.88,0-1.32A25.13,25.13,0,0,1,371.35,541.28Z"/><path class="cls-35" d="M370.85,545.1c.24.24,8.3,5,12.54,6a31.58,31.58,0,0,0,6.86.94c2.54,0,6.32-.08,7.42-2.71a3.1,3.1,0,0,0-.19-1.31,3.73,3.73,0,0,0-.62-1.14c-1.06-1.27-2.73-1.41-4.21-1.86a37,37,0,0,1-4.87-2.06c-1.61-.72-3.41-1.49-4.49-3-.57-.77-1-1.62-1.61-2.37a2.18,2.18,0,0,0-3.81,1.49c0,.08-.06.14-.13.12a11,11,0,0,1-3.8-1.22.89.89,0,0,0-.5.14,1.08,1.08,0,0,0-.21.22,5.24,5.24,0,0,0-1.48,3.05C371.63,542,370.84,544.89,370.85,545.1Z"/><path class="cls-34" d="M381.55,542.64a6,6,0,0,1,1.38-1.38c.37-.27,1.2-.8,1.71-.55a27.31,27.31,0,0,1,4.41,2.25,4.5,4.5,0,0,0-2.77,1.1,5.48,5.48,0,0,0-1.27,1.45c-.26.48-.43,1.2-1.13,1.19a1.22,1.22,0,0,1-.45-.29C381.74,544.79,380.51,544.14,381.55,542.64Z"/><path class="cls-34" d="M368.2,546c-.2-.67-.42-1.32-.62-2a10.91,10.91,0,0,0-1.89-3.87c-.82-1-2.85-.74-2.22.71-.11.06-.22.15-.33.2a4,4,0,0,1-1.06.4h-.14a4.31,4.31,0,0,0-3.54-1.1,2.45,2.45,0,0,0-1.71.91,4.32,4.32,0,0,0-.38.65c-.87,1.44-1.31,3.09-2.61,4.3a34,34,0,0,1-5.2,3.76c-1.55,1-2.75,1.68-3.13,3.58-.26,1.36.09,2.44,1.5,2.73a26,26,0,0,0,12.28-.32c1.88-.54,3.63-2.41,5-3.7l1.13-1.09,1.65-1.81a3.86,3.86,0,0,0,1.32-2.38A8.74,8.74,0,0,0,368.2,546Z"/><path class="cls-35" d="M348.09,550.42c1.36-.88,2.73-1.7,4.07-2.63a11.63,11.63,0,0,0,2.71-2.43,7.37,7.37,0,0,0,.86-1.58c.13-.38.26-.76.41-1.11a4.61,4.61,0,0,1,.62-1,2.87,2.87,0,0,1,2.12-1.08c.69-.05,5.32-.64,5.75-.53a15.73,15.73,0,0,1,1.59.61c.13.24.67,1.38.8,1.62,0,.05.63,1.23.8,1.63a3.06,3.06,0,0,1,0,1.63A30.34,30.34,0,0,1,364.3,549a54.31,54.31,0,0,1-4.59,4c-2.14,1.57-4.67,1.77-7.22,1.69-.76,0-6.37.09-6.78-1.21A4.54,4.54,0,0,1,348.09,550.42Z"/><path class="cls-34" d="M360.15,544.91a13.11,13.11,0,0,0-2.67-.76,4.57,4.57,0,0,0-2.64.27,9.36,9.36,0,0,0-3,3.35,9.94,9.94,0,0,1,4.17,0,4.85,4.85,0,0,1,1.59.63c.39.27.82.77,1.35.47a1.79,1.79,0,0,0,.24-.42C360.24,546.55,361.57,545.67,360.15,544.91Z"/><path class="cls-36" d="M396.27,395.85c2,14.27-8.55,23.7-30.76,25.51-19.46,1.58-32.75,4.9-39.22-19.46-3.69-13.92,12.07-28,31.4-30.72S394.27,381.59,396.27,395.85Z"/><path class="cls-37" d="M410,446c.2.25,6.4-2,7.09-.61.83,1.67-5.7,2.24-8.8,2.1"/><path class="cls-38" d="M390,444.7l-2.24-4.27s-7.48,3.23-6.65,8.85,2.5,7.17,2.5,7.17c3.18,1.52,17.49-11.23,19-10.55,4.28,2,8.26,3.38,8.62-3,.26-4.62-2.33-3.2-3.87-3.39-2.2-.27,3.62-1.36,3.95-3.67.28-2-2.43-.06-6,.54-.39.07-.62.53-1,.8A47.44,47.44,0,0,1,390,444.7Z"/><path class="cls-39" d="M407,439.05a4.09,4.09,0,0,1,.34,2.86,12.45,12.45,0,0,1-1.07,2.75"/><path class="cls-37" d="M409.76,439.29c.2.26,6.21.3,7.72.72s-3.2,1.79-6.3,1.66"/><path class="cls-37" d="M411.79,443.15c.2.26,6-1,6.83.35,1.11,1.82-4.71,2.51-7.81,2.37"/><path class="cls-37" d="M410.88,442.06c.2.26,7.6-1.72,8.59-.52s-5.11,2.23-8.21,2.09"/><path class="cls-40" d="M378,421.53a22.4,22.4,0,0,1,7,8.11c2.24,4.89,4.68,11.54,4.33,11.74s-5.71,2.73-5.71,2.73Z"/><path class="cls-38" d="M358.68,424.14l8.19,4.06,7-1.86-.76-5.47-.59-4.16-13.49-5a44.31,44.31,0,0,1,.51,8A11.85,11.85,0,0,1,358.68,424.14Z"/><path class="cls-41" d="M359.91,419.75a11.31,11.31,0,0,0,1.41.39c2.85.69,7.78,1.7,11.52.8l-.53-4.32-13.25-5A34.41,34.41,0,0,1,359.91,419.75Z"/><path class="cls-40" d="M360.23,424.88s-3-5.25-.7-4c14.1,7.63,13.26-1.58,17.31.07,2.26.93,4.18,2.91,5.24,6.58,4.25,14.59,7,18.28,7,18.28l-22.78-3.08Z"/><path class="cls-40" d="M361.88,423.8,360,421a1.53,1.53,0,0,0-2.47-.09l-13.29,17a21.26,21.26,0,0,1,6,10.59.34.34,0,0,0,.64.08l5.32-10.6.38,13.6L368.72,450l-5-22Z"/><path class="cls-38" d="M373.14,538.63l2.36.94a4.22,4.22,0,0,0,5.46-2.28,173.45,173.45,0,0,0,8.71-26.8c.48-2.05.91-4.16,1.3-6.3,3.55-19.7-7-8.08-7-8.08l-9,6.24-.5,9.93Z"/><path class="cls-41" d="M374.76,512.26a34.85,34.85,0,0,0,13.82-1.39l.79-.27c.48-2.06,1-4.14,1.39-6.27,3.54-19.7-6.82-8.22-6.82-8.22l-8.59,6Z"/><path class="cls-38" d="M358,540.26a3,3,0,0,0,2.32,2.23l1.69.34a3,3,0,0,0,3.61-2.86,126.88,126.88,0,0,1,4-28c.51-1.94,1.08-3.92,1.73-5.92,5.56-17.12-10.47-3.25-14.48.41a3,3,0,0,0-1,2c0,.55-.07,1.28-.11,2.16C355.47,516.61,355.32,529.45,358,540.26Z"/><path class="cls-41" d="M355.91,510.7a21.94,21.94,0,0,0,6.07,1.44,34.07,34.07,0,0,0,5.44,0c.71,0,1.09-.08,1.8-.16.68-2.6,1.42-4,2.07-6,5.56-17.12-10.47-3.25-14.48.41-.58.52-1.26.55-.92,1.25A6.56,6.56,0,0,1,355.91,510.7Z"/><path class="cls-42" d="M364.53,442.17c17.58-4.26,22-1.29,22-1.29s4.11,3.45,10.88,36c0,0,5.53,25.21,3.68,26.44-10.53,7-39.33,7.7-47.65,4l2.54-70C356,443.23,357.77,443.82,364.53,442.17Z"/><path class="cls-43" d="M357.26,420.48s9,12.47,7.35,23.94h3.57s-1.13-18.75-9.35-25.21Z"/><path class="cls-43" d="M373.11,420.71s7,11.87,7.49,21.69h3.3s-3.62-19.2-9.49-22.14Z"/><ellipse class="cls-44" cx="362.76" cy="447.5" rx="1.62" ry="1.58"/><ellipse class="cls-44" cx="369.24" cy="447.5" rx="1.62" ry="1.58"/><ellipse class="cls-44" cx="372.16" cy="444.11" rx="1.62" ry="1.58"/><ellipse class="cls-44" cx="372.45" cy="452.06" rx="1.62" ry="1.58"/><ellipse class="cls-44" cx="376.64" cy="447.5" rx="1.62" ry="1.58"/><ellipse class="cls-44" cx="383.17" cy="447.61" rx="1.62" ry="1.58"/><ellipse class="cls-44" cx="385.2" cy="444.11" rx="1.62" ry="1.58"/><ellipse class="cls-44" cx="386.59" cy="453.64" rx="1.62" ry="1.58"/><ellipse class="cls-44" cx="379.42" cy="452.59" rx="1.62" ry="1.58"/><ellipse class="cls-44" cx="360.91" cy="455.92" rx="1.62" ry="1.58"/><ellipse class="cls-44" cx="368.31" cy="455.92" rx="1.62" ry="1.58"/><ellipse class="cls-44" cx="375.72" cy="455.92" rx="1.62" ry="1.58"/><ellipse class="cls-44" cx="382.89" cy="457.25" rx="1.62" ry="1.58"/><ellipse class="cls-44" cx="390.38" cy="457.25" rx="1.62" ry="1.58"/><ellipse class="cls-44" cx="377.8" cy="442.84" rx="1.62" ry="1.58"/><ellipse class="cls-44" cx="387.75" cy="449.19" rx="1.62" ry="1.58"/><ellipse class="cls-44" cx="358.13" cy="451.01" rx="1.62" ry="1.58"/><ellipse class="cls-44" cx="358.13" cy="446.04" rx="1.62" ry="1.58"/><ellipse class="cls-44" cx="387.75" cy="460.83" rx="1.62" ry="1.58"/><ellipse class="cls-44" cx="379.42" cy="460.83" rx="1.62" ry="1.58"/><ellipse class="cls-44" cx="372.02" cy="460.83" rx="1.62" ry="1.58"/><ellipse class="cls-44" cx="364.61" cy="460.83" rx="1.62" ry="1.58"/><ellipse class="cls-44" cx="359.06" cy="465.39" rx="1.62" ry="1.58"/><ellipse class="cls-44" cx="368.31" cy="465.04" rx="1.62" ry="1.58"/><ellipse class="cls-44" cx="375.72" cy="465.04" rx="1.62" ry="1.58"/><ellipse class="cls-44" cx="384.05" cy="465.04" rx="1.62" ry="1.58"/><ellipse class="cls-44" cx="391.22" cy="463.99" rx="1.62" ry="1.58"/><ellipse class="cls-44" cx="388.68" cy="469.25" rx="1.62" ry="1.58"/><ellipse class="cls-44" cx="380.35" cy="469.25" rx="1.62" ry="1.58"/><ellipse class="cls-44" cx="372.02" cy="469.25" rx="1.62" ry="1.58"/><ellipse class="cls-44" cx="363.69" cy="469.25" rx="1.62" ry="1.58"/><ellipse class="cls-44" cx="367.39" cy="473.46" rx="1.62" ry="1.58"/><ellipse class="cls-44" cx="376.64" cy="473.46" rx="1.62" ry="1.58"/><ellipse class="cls-44" cx="384.97" cy="473.46" rx="1.62" ry="1.58"/><ellipse class="cls-44" cx="392.97" cy="472.41" rx="1.62" ry="1.58"/><ellipse class="cls-44" cx="389.6" cy="477.67" rx="1.62" ry="1.58"/><ellipse class="cls-44" cx="395.15" cy="476.62" rx="1.62" ry="1.58"/><ellipse class="cls-44" cx="381.27" cy="477.67" rx="1.62" ry="1.58"/><ellipse class="cls-44" cx="372.02" cy="477.67" rx="1.62" ry="1.58"/><ellipse class="cls-44" cx="385.9" cy="482.58" rx="1.62" ry="1.58"/><ellipse class="cls-44" cx="393.11" cy="482.58" rx="1.62" ry="1.58"/><ellipse class="cls-44" cx="396.75" cy="485.75" rx="1.62" ry="1.58"/><ellipse class="cls-44" cx="391.64" cy="487.49" rx="1.62" ry="1.58"/><ellipse class="cls-44" cx="381.27" cy="487.49" rx="1.62" ry="1.58"/><ellipse class="cls-44" cx="372.94" cy="487.49" rx="1.62" ry="1.58"/><ellipse class="cls-44" cx="362.76" cy="487.49" rx="1.62" ry="1.58"/><ellipse class="cls-44" cx="357.21" cy="491.7" rx="1.62" ry="1.58"/><ellipse class="cls-44" cx="367.39" cy="491.7" rx="1.62" ry="1.58"/><ellipse class="cls-44" cx="377.57" cy="491.7" rx="1.62" ry="1.58"/><ellipse class="cls-44" cx="386.82" cy="491.7" rx="1.62" ry="1.58"/><ellipse class="cls-44" cx="395.15" cy="491.7" rx="1.62" ry="1.58"/><ellipse class="cls-44" cx="391.45" cy="495.91" rx="1.62" ry="1.58"/><ellipse class="cls-44" cx="385.2" cy="497.49" rx="1.62" ry="1.58"/><ellipse class="cls-44" cx="372.94" cy="495.91" rx="1.62" ry="1.58"/><ellipse class="cls-44" cx="362.07" cy="495.91" rx="1.62" ry="1.58"/><ellipse class="cls-44" cx="357.21" cy="500.12" rx="1.62" ry="1.58"/><ellipse class="cls-44" cx="366.8" cy="500.12" rx="1.62" ry="1.58"/><ellipse class="cls-44" cx="368.31" cy="506.72" rx="1.62" ry="1.58"/><ellipse class="cls-44" cx="378.26" cy="498.54" rx="1.62" ry="1.58"/><ellipse class="cls-44" cx="385.44" cy="503.8" rx="1.62" ry="1.58"/><ellipse class="cls-44" cx="396.83" cy="497.49" rx="1.62" ry="1.58"/><ellipse class="cls-44" cx="398.45" cy="502.22" rx="1.62" ry="1.58"/><ellipse class="cls-44" cx="391.64" cy="502.22" rx="1.62" ry="1.58"/><ellipse class="cls-44" cx="372.94" cy="501.23" rx="1.62" ry="1.58"/><ellipse class="cls-44" cx="376.64" cy="505.91" rx="1.62" ry="1.58"/><ellipse class="cls-44" cx="361.14" cy="504.33" rx="1.62" ry="1.58"/><ellipse class="cls-44" cx="362.76" cy="477.67" rx="1.62" ry="1.58"/><ellipse class="cls-44" cx="376.64" cy="482.58" rx="1.62" ry="1.58"/><ellipse class="cls-44" cx="367.39" cy="482.58" rx="1.62" ry="1.58"/><ellipse class="cls-44" cx="358.13" cy="482.07" rx="1.62" ry="1.58"/><ellipse class="cls-44" cx="358.13" cy="473.46" rx="1.62" ry="1.58"/><ellipse class="cls-44" cx="365.54" cy="451.71" rx="1.62" ry="1.58"/><ellipse class="cls-44" cx="358.83" cy="460.83" rx="1.62" ry="1.58"/><path class="cls-45" d="M356.3,439.36a6,6,0,0,1-.95-2.09,8.56,8.56,0,0,1-.25-2.19,8.13,8.13,0,0,1,.3-2.18,6.21,6.21,0,0,1,1-2.07A8.51,8.51,0,0,1,357,433a13.33,13.33,0,0,1,.13,2.09,14.75,14.75,0,0,1-.19,2.08A8.46,8.46,0,0,1,356.3,439.36Z"/><path class="cls-37" d="M322.5,437.77c-.26.19-5.6-3.69-6.65-2.54-1.26,1.38,4.87,3.73,7.89,4.45"/><path class="cls-38" d="M329.66,439.67c1.63-.25,11.88,15.94,15.37,15.35,0,0,2-1,4.37-6.21.06-.14.11-.28.16-.42,1.84-5-4.13-9.91-4.13-9.91l-1.57,1.64L342.11,442a47.23,47.23,0,0,1-11.74-11.18c-.26-.35-.36-.86-.71-1-3.25-1.56-5.34-4.14-5.61-2.16-.31,2.31,5,4.95,2.8,4.6-1.53-.24-3.64-2.31-4.66,2.21C320.78,440.65,325,440.37,329.66,439.67Z"/><path class="cls-39" d="M327.31,431.87a4.13,4.13,0,0,0-1.11,2.67,12.46,12.46,0,0,0,.27,2.92"/><path class="cls-37" d="M324.54,431.33c-.26.19-6.05-1.41-7.61-1.42s2.58,2.6,5.6,3.32"/><path class="cls-37" d="M321.53,434.49c-.26.19-5.51-2.6-6.66-1.54-1.57,1.44,3.84,3.71,6.86,4.43"/><path class="cls-37" d="M322.71,433.69c-.26.19-6.83-3.74-8.12-2.86s4.3,3.55,7.32,4.27"/><path class="cls-41" d="M343.86,440.53c.12.11.24.22.35.34a22.3,22.3,0,0,1,4.06,5.25c.47.87.6,1.56,1,2.46,1.84-5-3.84-9.69-3.84-9.69Z"/><path class="cls-45" d="M341.34,440.86a4.29,4.29,0,0,1,1.74,1.38,18.26,18.26,0,0,1,1.32,1.57,5.83,5.83,0,0,1,1.29,3.81,5.55,5.55,0,0,0-1.68-3.49,16.9,16.9,0,0,0-1.45-1.35,3.51,3.51,0,0,0-1.47-.95Z"/><path class="cls-36" d="M387.22,372.19c.7.58,14.36,23.78,7.07,34.39-11.58,16.85-21.42,11.24-21.47,11.27Z"/><path class="cls-46" d="M378.7,405.14s5.84-2.16,9.79,1.06C387.1,407.6,385.78,409.24,378.7,405.14Z"/><path class="cls-38" d="M389.64,377.94c-.06-.1-.15.14,0,.15s.17-.13.2-.24a7.68,7.68,0,0,1,2.07-3.43,3,3,0,0,1,2.47-1c1.29.22,2.07,1.68,2.4,3a12.45,12.45,0,0,1-.25,6.58c-1.16,3.66-4.34,6.74-8,6.71"/><path class="cls-41" d="M393.06,378.64a13.6,13.6,0,0,0-.89,1.42c-.2.4-.38,1-.08,1.31s.71.24.93.57a.8.8,0,0,1-.25,1c-.29.21-.66.26-1,.45a1.58,1.58,0,0,0-.65,1.4,1.16,1.16,0,0,0,.14.58.9.9,0,0,0,1.18.35,2.59,2.59,0,0,0,.93-1,11,11,0,0,0,1.42-2.87C395.3,380.29,395.21,375.72,393.06,378.64Z"/><path class="cls-47" d="M390.08,387.31s-2,5.1.68,6.08,1.64-4.84,1.64-4.84-.52,4.85-1.42,1.81Z"/><path class="cls-38" d="M390.36,364.83c-.15.54,2.23,17.25,3.74,25,1.76,9.12-4.54,22.61-14.69,26.17-12.45,4.37-25.18,3.59-33.82-4.41s-11.86-21.9-11.86-21.9-14.41-10.64-6.06-26,21.25-24.53,41.22-25.58S390.36,364.83,390.36,364.83Z"/><path class="cls-41" d="M341.5,376.53c.54-.49,10.29-16.42,10.29-16.42s-4.32,9.42-1,7.83c.94-.45,8.31-7,10-11.52,0,0,.45,6.09-2.33,8,0,0,13.19-2.49,14.39-13.59,0,0-.13,5.74,10.92,7.57,8.57,1.42,7.08,12.11,7.08,12.11L387.6,349.6l-11.14-6.29-21.33,4.35-15.59,10-2.2,15.83-3.61,16.27Z"/><path class="cls-36" d="M391.54,374.21c-.61-2.93-3.36-11.39-5.61-13.37-4.53-4-8.55-3.62-11.36-4.66-1.79-.66-3-5.67-4.66-6.59s.81,1.87,0,0c0,3.2,1,5-1.18,7.31a23,23,0,0,1-7.48,4.92,13.62,13.62,0,0,0,2-5.58c.12-2.2-.72-4.32-1.14-6.49a34.59,34.59,0,0,1-12.25,17.43,16,16,0,0,0,1.74-10.49,5.42,5.42,0,0,0-1.89,2.43,101.39,101.39,0,0,1-9,15.63c-.33-.81-1-1.37-1.32-2.18-.27,6.23-5.39,19.24-5.43,18.89,0,0,4.8,24,26.19,26.89,0,0-4.58,6.52-15.68,6.06-11.67-.48-21.19-9.1-20.88-28s-6.4-24.36-4.58-36.19c2.16-14.07,17.57-35.4,54.74-25.23,0,0,16.57,1.07,18.7,31.26C392.45,366.29,391.74,375.15,391.54,374.21Z"/><path class="cls-48" d="M376.48,365.52s4.87-2.75,8.55.31a.18.18,0,0,0,.29-.21,4.62,4.62,0,0,0-5.2-3C374.7,363.18,376.48,365.52,376.48,365.52Z"/><path class="cls-48" d="M356.09,370.82s-6.2.76-7.86,5.52c-.06.19-.35.2-.39,0-.27-1.22-.35-3.86,3.1-5.67C356.38,367.83,356.09,370.82,356.09,370.82Z"/><path class="cls-49" d="M374.05,382.41a5.63,5.63,0,0,0,1,3.93,6,6,0,0,0,1.48,1.35l.92.62a3.63,3.63,0,0,1,.82.92,2.71,2.71,0,0,1,.23,2.49,3.5,3.5,0,0,1-1.67,1.76,5,5,0,0,1-2.24.58,7.5,7.5,0,0,1-2.23-.27h.09a3.12,3.12,0,0,1-.75,0,2.08,2.08,0,0,1-.72-.26,1,1,0,0,1-.46-.62,1.58,1.58,0,0,1,.05-.72,1.48,1.48,0,0,0,.11.67.84.84,0,0,0,.44.41,2.21,2.21,0,0,0,1.25,0h.1a6.15,6.15,0,0,0,3.91-.59,2.77,2.77,0,0,0,1.2-1.32,1.81,1.81,0,0,0-.15-1.63,2.88,2.88,0,0,0-.58-.69c-.25-.19-.51-.4-.84-.63a5.92,5.92,0,0,1-1.55-1.68A5.16,5.16,0,0,1,374.05,382.41Z"/><path class="cls-50" d="M378.23,336.24a36.78,36.78,0,0,0-14.33.09c-22.48,4.59-36.48,29-31.27,54.53.1.5.21,1,.32,1.47-.83,0-1.66,0-2.5.08-.18-.71-.34-1.42-.49-2.15-5.21-25.53,8.79-49.94,31.27-54.53A37,37,0,0,1,378.23,336.24Z"/><path class="cls-51" d="M334.4,392.47c0-.11.22.07.1.13s-.25,0-.33-.13a8.44,8.44,0,0,0-3.75-2.25,4.11,4.11,0,0,0-3.14.15c-1.33.76-1.56,2.42-1.34,3.79a10.8,10.8,0,0,0,3.09,5.9c2.85,2.84,7.66,4.29,11.69,2.69"/><path class="cls-45" d="M334.4,392.47c0-.1.19,0,.14.12a.21.21,0,0,1-.27,0,3.17,3.17,0,0,1-.39-.32,7.73,7.73,0,0,0-.79-.59,8.44,8.44,0,0,0-1.75-.88,4.93,4.93,0,0,0-3.64-.23,2.83,2.83,0,0,0-1.35,3,9.46,9.46,0,0,0,1.12,3.59,11.5,11.5,0,0,0,5.58,5.08,11.23,11.23,0,0,0,7.67.53,9.55,9.55,0,0,1-3.93.9,12.14,12.14,0,0,1-4-.72,11.89,11.89,0,0,1-3.57-2.08,11.68,11.68,0,0,1-2.6-3.24,10.26,10.26,0,0,1-1.19-4,4.94,4.94,0,0,1,.38-2.16,3,3,0,0,1,1.62-1.56,5.43,5.43,0,0,1,4.13.48,8.62,8.62,0,0,1,1.72,1.12,7.94,7.94,0,0,1,.73.69c.12.12.22.28.33.37a.15.15,0,0,0,.2,0S334.44,392.37,334.4,392.47Z"/><path class="cls-41" d="M330.93,394.58a12.62,12.62,0,0,1,1.59.92c.4.27.83.71.65,1.16s-.68.52-.78.91.31.77.72.84.83-.05,1.25,0a1.66,1.66,0,0,1,1.32,1,1.1,1.1,0,0,1,.09.59,1.13,1.13,0,0,1-1.15.83,3,3,0,0,1-1.44-.5,11.36,11.36,0,0,1-2.79-2C329.17,397,327.31,392.84,330.93,394.58Z"/><path class="cls-47" d="M337.93,401.21s4.35,3.82,1.86,5.84-3.89-3.71-3.89-3.71,2.66,4.2,2.35,1Z"/><path class="cls-41" d="M364.06,399.27a7.6,7.6,0,0,1-1.35-.44,2.85,2.85,0,0,0-1.39-.07c-.6.11-1.24.56-1.19,1.16a1.35,1.35,0,0,0,1,1,3.65,3.65,0,0,0,2.44.06,1.12,1.12,0,0,0,.81-.66c.11-.35-.26-.8-.58-.64"/><path class="cls-41" d="M383.36,394.5a4.78,4.78,0,0,1,.68-1.13,1.67,1.67,0,0,1,.66-.55,1.3,1.3,0,0,1,1.52.49,1.79,1.79,0,0,1,.13,1.67,3.06,3.06,0,0,1-1.1,1.32,2.17,2.17,0,0,1-1.05.44,1,1,0,0,1-1-.51,1.07,1.07,0,0,1,.2-1.08,3.18,3.18,0,0,1,.93-.69"/><path class="cls-52" d="M362.67,400.11s-.93-.67.39-.6c1.82.1,6.94,1.52,13.41-.84,5-1.82,7.39-3.86,8.24-4.72a.22.22,0,0,1,.38.16c0,1.61-.7,7-4.66,10.52a9.11,9.11,0,0,1-7.77,2C369.78,405.87,367,404.47,362.67,400.11Z"/><path class="cls-53" d="M365.58,400.46c.14,0,8.55,2.47,17.15-4.3,0,0-.39,3.9-6.15,6A10.92,10.92,0,0,1,365.58,400.46Z"/><path class="cls-54" d="M376.6,405.77a5.92,5.92,0,0,1-4.07-.3c.43-.91,1-1.2,2.17-1.85,1.64-.92,4.18-.52,5.48,0C379.47,404.7,378.51,405.12,376.6,405.77Z"/><path class="cls-55" d="M326.93,361.71s-13.76,7.8-5.68,12.61,17.33,3.51,11.56-10.86c-3.62-9,1.86-3.63,1.86-3.63s15.79-12.67-.38-15.34c-15-2.46-5,12.36-5,12.36S324.44,356,326.93,361.71Z"/><ellipse class="cls-56" cx="329.16" cy="346.25" rx="1.42" ry="1.22" transform="translate(-59.98 69.11) rotate(-10.99)"/><ellipse class="cls-56" cx="322.27" cy="367.9" rx="1.42" ry="1.22" transform="translate(-64.23 68.2) rotate(-10.99)"/><ellipse class="cls-56" cx="321.73" cy="372.22" rx="1.42" ry="1.22" transform="translate(-65.07 68.17) rotate(-10.99)"/><ellipse class="cls-56" cx="327.02" cy="368.93" rx="1.42" ry="1.22" transform="translate(-64.34 69.12) rotate(-10.99)"/><ellipse class="cls-56" cx="330.62" cy="365.93" rx="1.42" ry="1.22" transform="translate(-63.71 69.75) rotate(-10.99)"/><ellipse class="cls-56" cx="331.8" cy="371.44" rx="1.42" ry="1.22" transform="translate(-64.74 70.08) rotate(-10.99)"/><ellipse class="cls-56" cx="327.08" cy="373.72" rx="1.42" ry="1.22" transform="translate(-65.26 69.22) rotate(-10.99)"/><ellipse class="cls-56" cx="326.15" cy="364.82" rx="1.42" ry="1.22" transform="translate(-63.58 68.88) rotate(-10.99)"/><ellipse class="cls-56" cx="328.33" cy="351.52" rx="1.42" ry="1.22" transform="translate(-61 69.05) rotate(-10.99)"/><ellipse class="cls-56" cx="337.86" cy="349" rx="1.42" ry="1.22" transform="translate(-60.35 70.82) rotate(-10.99)"/><ellipse class="cls-56" cx="334.52" cy="345.69" rx="1.42" ry="1.22" transform="translate(-59.77 70.12) rotate(-10.99)"/><ellipse class="cls-56" cx="332.66" cy="350.01" rx="1.42" ry="1.22" transform="translate(-60.63 69.85) rotate(-10.99)"/><ellipse class="cls-56" cx="331.4" cy="354.17" rx="1.42" ry="1.22" transform="translate(-61.45 69.69) rotate(-10.99)"/><ellipse class="cls-56" cx="336.19" cy="353.56" rx="1.42" ry="1.22" transform="translate(-61.25 70.59) rotate(-10.99)"/><ellipse class="cls-56" cx="334.08" cy="356.69" rx="1.42" ry="1.22" transform="translate(-61.88 70.24) rotate(-10.99)"/><ellipse class="cls-55" cx="330.62" cy="360.24" rx="3.27" ry="4.38" transform="translate(-122.58 543.81) rotate(-69.51)"/><circle class="cls-41" cx="381.76" cy="377.09" r="7.33"/><ellipse class="cls-41" cx="357.01" cy="382.98" rx="7.66" ry="7.33" transform="translate(-69.38 79.13) rotate(-11.54)"/><path class="cls-57" d="M387.84,374.57a6.89,6.89,0,0,1-2.79,9.35c-3.35,1.81-7,1.61-8.78-1.74s-1.13-8.59,2.22-10.4A6.9,6.9,0,0,1,387.84,374.57Z"/><ellipse class="cls-58" cx="385.49" cy="376.82" rx="2.6" ry="4.28" transform="translate(-113.24 172.2) rotate(-22.04)"/><circle class="cls-46" cx="382.73" cy="374.91" r="1.19"/><path class="cls-57" d="M350.49,385.06a6.9,6.9,0,0,0,8.14,5.38c3.73-.76,6.38-3.24,5.61-7s-4.64-7.31-8.37-6.55A6.89,6.89,0,0,0,350.49,385.06Z"/><ellipse class="cls-58" cx="360.87" cy="383.4" rx="2.88" ry="4.28" transform="translate(-97.64 124.58) rotate(-17.29)"/><circle class="cls-46" cx="358.27" cy="381.47" r="1.19"/><polygon class="cls-37" points="315.95 411.01 286.5 425.05 281 427.67 276.15 414.97 287.41 411.44 313.09 403.41 315.95 411.01"/><path class="cls-37" d="M315.37,411.3s4.49-.11,8.3-.45a8.71,8.71,0,0,1,6.64,2.22c.51.4.77-3-1.18-3.94l-3.41-1.64a.58.58,0,0,1-.13-1l7.17-3.69s3.75-1.63,5.48-4.42c0,0,2.21-2.79-10.57,2.4,0,0-1.91-4.47-6-2.47s-10,5.48-10,5.48"/><path class="cls-59" d="M286.52,424.69l-5.51,3L276.15,415l11.26-3.53C288.46,415.87,287.3,421.36,286.52,424.69Z"/><path class="cls-60" d="M264,420.08l20.32-7.52,0,.16a32.56,32.56,0,0,1-.42,14.95h0l-21,8.37Z"/><path class="cls-38" d="M267.22,430.11s-19.29,5.13-17.52-5q.51-3,.93-5.33l1.63-9.46,10.08,6.11,2.86,8Z"/><path class="cls-59" d="M249.28,418.52l1.25,1A8.84,8.84,0,0,1,249.28,418.52Z"/><path class="cls-59" d="M264.88,424.12a30.34,30.34,0,0,1-7.25-.86,19.93,19.93,0,0,1-6.82-3.43c1.12-6.43,1.45-9.49,1.45-9.49l10,6.48Z"/><path class="cls-37" d="M277.09,499.86l-.44,5.91-.62,8.29-.44,5.83-2,22.94-3.39,7.89c-3-2.34-8.16-5.34-8.16-9.33a5.22,5.22,0,0,1,.75-2.64l-1.07-12.91c-.54-3.16-1.26-6.63-1.75-10.06a48.5,48.5,0,0,1-.55-6.55l0-2.88.06-6.94Z"/><path class="cls-59" d="M276.91,505.77l-1.5,8.3c-2.81,1.53-5,2.54-8.21,2.73a17.19,17.19,0,0,1-6.95-1,47,47,0,0,1-.56-6.55l0-2.88a70,70,0,0,1,8.93-.87A31.64,31.64,0,0,1,276.91,505.77Z"/><path class="cls-61" d="M277.39,501.75c-1.45,1.89-7.23,5.69-16.5,3.46a.36.36,0,0,0-.14,0l-2.73.24a.28.28,0,0,0-.26.32l.7,5.42a.27.27,0,0,0,.21.24c1.73.47,15.32,3.83,20.14-4.13a.34.34,0,0,0,0-.2l-1-5.2A.29.29,0,0,0,277.39,501.75Z"/><path class="cls-38" d="M260.82,505l-.44,1.49-3.56,12.2-2.93,10L248,548.85l-8.63,7.23.83-10.05-1-12.26c-.78-5.43-.93-10.94.09-19.83.22-1.81.48-3.77.79-5.9l1.77-7.5,1.1-4.66Z"/><path class="cls-59" d="M260.82,506.71l-4.42,11.85c-5,1.35-11.57-.69-16.72-4.35.21-1.81.47-3.77.79-5.9l1.77-7.5a45.49,45.49,0,0,1,14,2.58A10.55,10.55,0,0,1,260.82,506.71Z"/><path class="cls-62" d="M277.34,501.45c-.39,2.36-9.52,7.53-16,3.81a9.46,9.46,0,0,1-2.41-2,8.62,8.62,0,0,1-2.56-6.08,8.81,8.81,0,0,1,3.38-6.05h0a9.81,9.81,0,0,1,1.13-.84l12.32-4.75,2.55-1s.16.92.38,2.34.53,3.5.78,5.61C277.36,496,277.65,499.6,277.34,501.45Z"/><path class="cls-62" d="M272.8,494.36a6.51,6.51,0,0,1-4.07,3.33s-5.51,3.55-7.36,7.57a6,6,0,0,0-.36,1c-1.46,4.89-15.55,2.54-22.35-2.59,0,0,.52-4.91,1.27-10.61.24-1.78.5-3.64.78-5.44.47-3.1,1-6,1.49-8.21,1.76-7.46-4.12.11-1-7.9s31.43,11.89,31.43,11.89a18.62,18.62,0,0,1,.61,2.18,21,21,0,0,1,.41,2.5A11.63,11.63,0,0,1,272.8,494.36Z"/><path class="cls-63" d="M276.7,492.64a10.68,10.68,0,0,1-4.13,2.7c-5.95,2.31-10.74,3.22-15.63,3.05-7.3-.25-13.44-3.55-16.81-5.26.24-1.78.6-3.85.87-5.66a41.68,41.68,0,0,0,18.78,3.67h0a41.53,41.53,0,0,0,13.86-3.09c1-.39,1.8-.78,2.52-1.14C276.39,488.39,276.45,490.53,276.7,492.64Z"/><path class="cls-64" d="M251,417.85c-.44,1.49,8.3,9.42,11.36,8.91,2.69-.46,2.66-3.16,1.84-6.68,0,0,13.44,4,15.66,68.81l-2.62,1.75S257.92,503,237,487.57c0,0,1.12-52.48,5-61.08,3.2-7.1,5.51-8.55,8.52-9.19A.44.44,0,0,1,251,417.85Z"/><path class="cls-65" d="M239,449.25s20.49,8.39,36.1-.69l.91,4.53s-16.1,9.92-37.34,0Z"/><path class="cls-65" d="M238.66,458.81s22,8.29,38.25,0l.56,3.55s-17,9.24-39.36.53Z"/><path class="cls-66" d="M211.53,382s-1.75,2.56-3.46,8.8-3.78,22.77-1.59,27.41,26.83-17.89,60.3-45,42.57-42.29,41.33-44.39-15.82-4.05-28.78-1.4-26.41,12.72-42.2,25.5A125.35,125.35,0,0,0,211.53,382Z"/><path class="cls-67" d="M233.14,356.59a128.38,128.38,0,0,0-21.41,25.49s-1.75,2.62-3.43,8.74c-1.78,6.46-3.72,22.78-1.61,27.26a.76.76,0,0,0,.53.42c3.34.86,17.35-10.78,36.73-26.87,6.81-5.66,14.54-12.07,22.69-18.67,5.57-4.52,10.77-9,15.43-13.16C304,340,308.69,330.19,307.91,328.87c-1.18-2-15.73-3.89-28.52-1.29-13.14,2.68-26.84,13.12-42.11,25.47C235.9,354.17,234.51,355.36,233.14,356.59Z"/><path class="cls-38" d="M281.36,340.25c1.21.62,3.28,1.18,3.77,4.25,2.64,16.49,5.39,20.23,11.44,38.62,4.48,13.6-3.92,29.6-16.63,33.91-15.63,5.3-35.86,7.32-50.68-20.82C222.73,383.83,212.93,372,213,366.75c.27-17.86,8.82-18.92,28.37-25.45C259.67,335.2,267.62,333.3,281.36,340.25Z"/><path class="cls-59" d="M290.32,363.69s-13.38-23.08-22.64-12.95c-10.09,11.05-18.18,8.62-22.47,12.77-9.37,9.08-11.75,32.54-22.35,24s11.85-40.16,11.85-40.16,26-19.67,28.32-20,18.78,9.4,18.78,9.4Z"/><path class="cls-68" d="M247.93,383.87a8.37,8.37,0,0,0,9.7,6,7.38,7.38,0,0,0,6-9,8.38,8.38,0,0,0-9.7-6A7.39,7.39,0,0,0,247.93,383.87Z"/><path class="cls-69" d="M251.54,389a8.73,8.73,0,0,1-3.89-5.48,7.32,7.32,0,0,1,6.32-8.58c2.09-.29,4.24-.22,7.77,2.13a9.15,9.15,0,0,0-9.67-2.73c-3.09,1.1-5.9,3.92-5.38,7.58C247.15,385,249,388.65,251.54,389Z"/><path class="cls-58" d="M255.58,380.61c.68,2.59,3,4.59,5.14,4.48s3.36-2.3,2.68-4.88-3-4.59-5.13-4.48S254.91,378,255.58,380.61Z"/><path class="cls-46" d="M254.46,378.72a1.45,1.45,0,0,0,1.31,1.49,1.28,1.28,0,0,0,1.37-1.28,1.47,1.47,0,0,0-1.31-1.5A1.29,1.29,0,0,0,254.46,378.72Z"/><path class="cls-68" d="M289.93,371.16a7.66,7.66,0,0,1-3.4,9.87,6.76,6.76,0,0,1-9.3-3.43,7.66,7.66,0,0,1,3.4-9.87A6.77,6.77,0,0,1,289.93,371.16Z"/><path class="cls-69" d="M289.47,378.05a7.78,7.78,0,0,0,.21-6.77,6.86,6.86,0,0,0-9.37-3.31c-1.77.87-2.7,2.22-3.73,6.16.15-4,2.1-6.68,4.91-7.54a6.85,6.85,0,0,1,8.2,3.18C291.27,372.65,291,376.37,289.47,378.05Z"/><path class="cls-58" d="M290.33,372.39c-.81-2.63-3.17-4.72-5.26-4.66s-3.13,2.25-2.32,4.88,3.18,4.72,5.27,4.66S291.15,375,290.33,372.39Z"/><path class="cls-46" d="M281,371a1.48,1.48,0,1,0,1.54-1.35A1.43,1.43,0,0,0,281,371Z"/><path class="cls-70" d="M264.42,404.45c2.26,1.13,8.44,4.53,14.59,2.15s9.8-15.28,7.8-14.74c-6,1.64-6.15,1.36-12.71,3C266.71,396.71,255.13,399.8,264.42,404.45Z"/><path class="cls-71" d="M278.38,406.23a10.35,10.35,0,0,1-5.87.36,6.78,6.78,0,0,1,3.12-4.16c2.36-1.4,6.05-2.42,8.13-1A11.34,11.34,0,0,1,278.38,406.23Z"/><path class="cls-46" d="M263.08,399.33c2.94-1.44,8.9-2.51,13.24-3.81,5.46-1.64,6.28-1.84,9.61-2.7-1.15,3.09-4.4,5.89-9,7C270.16,401.53,264.29,401.54,263.08,399.33Z"/><path class="cls-72" d="M274.76,357.82a1,1,0,0,1-1.54-.74l0-.29c-.14-1.61,1.68-2.68,2.92-2.86,1.88-.27,4.55-.82,8.28,2.87.31.31.09.9-.28.75C282,356.62,277.75,355.81,274.76,357.82Z"/><path class="cls-72" d="M251.63,366.67a1,1,0,0,0,.82-1.5l-.16-.26c-.83-1.38-2.93-1.18-4-.59-1.68.87-4.16,2-5,7.17-.08.43.45.78.66.44C245.1,369.91,248,366.8,251.63,366.67Z"/><path class="cls-73" d="M265.93,340.77s5,16-23.75,18.68c0,0,23.76-18.39-5.58-10,0,0,8.7,6.76-11.11,10.31,0,0,17.61,5.34,3.77,27.89,0,0-3.23,2.5,1.23,11.27.33.63.69,1.29,1.09,2,6,10.39-.76-1.36-.76-1.36s-11.15,1.9-15.56-10.31c0,0-11.56-5.67-9.07-18.79,0,0-10.58-12.8,5.22-22.32,0,0-1.17-16.38,9.35-19.57,0,0,10.62-16.68,26.64-8.09,0,0,10.21-8.19,22.85,2.89,0,0,12.65,1.81,13.44,12.29,0,0,10.4,1.95,5.2,12.24,0,0,8.9,3.54,2.73,12.49l.48,9.83-1.78-6.56A31.36,31.36,0,0,0,266.79,341Z"/><path class="cls-74" d="M279.33,327.36c-12.94,2.63-26.41,12.72-42.2,25.5A125.35,125.35,0,0,0,211.53,382s-1.75,2.56-3.46,8.8-3.78,22.77-1.59,27.41c-1.1-3.33,2.78-24,46.7-60.16,28.68-23.63,46.46-29.74,54.17-29.86C304,326.31,291,325,279.33,327.36Z"/><path class="cls-75" d="M307.51,328.32a.2.2,0,0,1-.14.06c-4.27.06-20.77,2.4-54,29.81-3.87,3.19-7.58,6.38-11,9.49-33.42,30.17-36.59,47.45-35.62,50.42a.22.22,0,0,1-.13.29.25.25,0,0,1-.3-.13c-2.32-4.92,0-21.78,1.57-27.59,1.71-6.2,3.41-8.75,3.49-8.86a128,128,0,0,1,21.49-25.57c1.37-1.25,2.77-2.44,4.15-3.56,15.32-12.39,29.07-22.86,42.32-25.57,11.65-2.37,24.67-1.08,28.16.82a.26.26,0,0,1,.13.27A.19.19,0,0,1,307.51,328.32Z"/><path class="cls-76" d="M215.71,390.17c-.56-6.17,2-12.63,4.42-17.86a68.88,68.88,0,0,1,3.39-6.29,122.92,122.92,0,0,0-12,15.93s-1.75,2.56-3.46,8.8-3.78,22.77-1.59,27.41c-.66-2,.5-10.4,11.31-24.74A4.08,4.08,0,0,1,215.71,390.17Z"/><path class="cls-76" d="M259.76,336.86a79.57,79.57,0,0,1,13.48-3.92c3.48-.67,8.13-.84,10.61,2.7a4.07,4.07,0,0,1,.4.65c11.06-6.07,18.71-8.08,23.1-8.15-3.37-1.83-16.35-3.17-28-.78-7.79,1.58-15.76,5.87-24.33,11.82A39.45,39.45,0,0,1,259.76,336.86Z"/><path class="cls-74" d="M207,388s-13.56-13.1-5.6-37.54C210,324,237.32,315.18,247,314.55S270.12,318,278,325.76c0,0-27.08,15.71-38,25.23S210.7,379.13,207,388Z"/><path class="cls-75" d="M237.24,353.05c.87-.79,1.71-1.54,2.51-2.24,10.27-8.93,35-23.47,37.81-25.11-8.19-7.94-21.51-11.5-30.54-10.91-6.67.44-20.56,4.65-31.47,14.5a48.79,48.79,0,0,0-13.91,21.28c-7.23,22.19,3.52,35.1,5.29,37C210.78,378.85,227.09,362.21,237.24,353.05Z"/><path class="cls-76" d="M260.86,325.44c.48,4.86-2.16,9-4.77,12.34-.91,1.17-1.87,2.29-2.85,3.37,11.65-7.81,24.71-15.39,24.71-15.39-7.24-7.17-19.27-11.2-28.71-11.27C254.52,315.77,260.26,319.4,260.86,325.44Z"/><path class="cls-76" d="M225.43,361.63c-4.77,2.57-10.17,5.19-15.93,5.4-5,.19-8.35-1.71-10.48-4.75-1.23,16.84,8,25.75,8,25.75,3-7.28,15.8-21.09,26.35-31.08C230.78,358.61,228.13,360.2,225.43,361.63Z"/><path class="cls-77" d="M237.88,348.9c8.8-7.75,35.37-24.62,39.12-25,0,0,2.88,2.66,3.1,3.46s-14.79,5.68-36.35,23.73c-28.37,23.74-34.63,38.33-35.24,39.08s-3.07-3-3.15-3.8S212.32,371.44,237.88,348.9Z"/><path class="cls-67" d="M280.16,327.74a18.41,18.41,0,0,1-2.74,1.5A161.2,161.2,0,0,0,243.9,351.3c-2.59,2.17-5.11,4.36-7.49,6.51-8.89,8-20.86,20.08-27.31,31.85a6.46,6.46,0,0,1-.41.7l-.05.05a.52.52,0,0,1-.6.06c-1-.43-2.83-3.33-2.92-4s6.71-14.9,32.6-37.7c8.62-7.6,35.4-24.68,39.24-25h.11l.08.07c.3.27,3,2.73,3.17,3.58A.38.38,0,0,1,280.16,327.74Z"/><path class="cls-78" d="M277,323.93c-2.13.2-11.58,5.7-21,11.84.37-.15.72-.31,1.11-.5,9.95-4.92,4.57.75-2.4,5.36a165.5,165.5,0,0,0-23.25,18.57c-9.31,8.74-14,9.43-6.65,2.17a18.74,18.74,0,0,0,1.38-1.54c-16.12,16.11-20.94,25.93-20.86,26.57.08.8,2.54,4.55,3.15,3.8s6.87-15.34,35.24-39.08c21.56-18.05,36.57-22.92,36.35-23.73S277,323.93,277,323.93Z"/><path class="cls-79" d="M220.35,387.22s13.78-19.9,58.24-49.83C278.59,337.39,240.8,357.54,220.35,387.22Z"/><path class="cls-37" d="M233.87,403c-4.39-5.87-8.42-7.2-11.73-5.1-3.59,2.28-3.37,5.62,0,10.57,4.36,6.33,14.26,6.78,17.82,2.68"/><path class="cls-59" d="M223.68,405.09s-3.2-3,1.09-4.79,5.34,4.43,7.71,5.83,6.05,2,4.66,3.49S228.91,412.61,223.68,405.09Z"/><path class="cls-80" d="M277.9,383.67a4.18,4.18,0,0,1,1.7.87,3.58,3.58,0,0,1,1.15,1.82,3.11,3.11,0,0,1-.53,2.56,4.66,4.66,0,0,1-.83.88,5.67,5.67,0,0,1-.93.57,5,5,0,0,1-4.18.24,4.18,4.18,0,0,1-2.52-2.88,8.84,8.84,0,0,0,3.07.59,5.27,5.27,0,0,0,2.29-.63,4.11,4.11,0,0,0,.88-.54.94.94,0,0,0,.41-.55A6.37,6.37,0,0,0,277.9,383.67Z"/><path class="cls-37" d="M262.28,467.58c-21.51,2-28.12-6.79-28.19-7.34-.56-4.07.83-11.61,1.61-15h0a12.59,12.59,0,0,1,.44-1.66L247.6,448l-.49,1.64-2,6.52,16.41,5.41Z"/><path class="cls-59" d="M247.6,448l-.82,1.51c-6.09.07-8.79-2.12-10.74-4.09h0a9.2,9.2,0,0,0,.1-1.8Z"/><path class="cls-64" d="M245.69,419.93s-6.36,4-11.15,23.2c0,0,7.82,5.41,12.3,5.32,1,0,1.1.51,1.64-.43,0,0,.7-3.07,3.77-12"/><path class="cls-81" d="M417.38,261.75l-9.16-.39L375.55,260l-31.37-1.32-73.51-3.12L239,254.22l-38.38-1.64-3.89-.16s-361.82-407-333.06-610.5c15.52-109.71,67.85-166.76,112.79-196.1a.49.49,0,0,1,.13-.1C15-579.22,47.9-584,47.9-584a228.4,228.4,0,0,1,33.38-17.78h0C128.63-622.1,169.06-619.45,190-615.7A101.67,101.67,0,0,1,205.24-612c114.8-50.79,187-4.9,199.53,4.12,1.31,1,2,1.48,2,1.48,51.87-17.56,98.43-8.67,128,1.62,20.77,7.24,33.16,15.18,33.16,15.18,31.4,11.69,57.66,25.79,79.55,41.79l0,0c.06.06.11.08.14.14C943.92-329.12,417.38,261.75,417.38,261.75Z"/><path class="cls-82" d="M427-343.14c0,235.21-39.09,502-82.8,601.8l-73.51-3.12C234.81,173.15,206.62-17,185.31-237,168.05-415.4,173.49-535.4,190-615.7A101.67,101.67,0,0,1,205.24-612c114.8-50.79,187-4.9,199.53,4.12C418.39-541.14,427-453.38,427-343.14Z"/><path class="cls-82" d="M408.22,261.36,375.55,260c319.9-521.29,228-819.7,166-862.25L647.45-547.8l0,0c.06.06-53.78-30.31-53.75-30.26C901.91-361.82,496.19,155.08,408.22,261.36Z"/><path class="cls-82" d="M239,254.22l-38.38-1.64C100.36,129.56-257.52-343-23.54-554.18a.49.49,0,0,1,.13-.1C15-579.22,47.9-584,47.9-584c11.39-7.3-4.72.84,6.1-3.79C15.78-517.49-65.71-251.17,239,254.22Z"/><ellipse class="cls-83" cx="311.57" cy="255.24" rx="113.61" ry="19.79"/><path class="cls-84" d="M402,585.38h0c-59.28,5.29-112.51,6.44-174.75,1.6h0c-17.42-2.89-29.85-11.89-31.05-22.47l-8.3-73H431.83L425,567.91C424.31,576,415.14,582.93,402,585.38Z"/><rect class="cls-85" x="207.01" y="499.88" width="24.19" height="4.24" rx="0.97"/><rect class="cls-85" x="207.01" y="513.16" width="24.19" height="4.24" rx="0.97"/><rect class="cls-85" x="207.01" y="526.45" width="24.19" height="4.24" rx="0.97"/><rect class="cls-85" x="207.01" y="539.73" width="24.19" height="4.24" rx="0.97"/><rect class="cls-85" x="207.01" y="553.01" width="24.19" height="4.24" rx="0.97"/><rect class="cls-85" x="207.01" y="566.3" width="24.19" height="4.24" rx="0.97"/><rect class="cls-85" x="243.29" y="499.88" width="24.19" height="4.24" rx="0.97"/><rect class="cls-85" x="243.29" y="513.16" width="24.19" height="4.24" rx="0.97"/><rect class="cls-85" x="243.29" y="526.45" width="24.19" height="4.24" rx="0.97"/><rect class="cls-85" x="243.29" y="539.73" width="24.19" height="4.24" rx="0.97"/><rect class="cls-85" x="243.29" y="553.01" width="24.19" height="4.24" rx="0.97"/><rect class="cls-85" x="243.29" y="566.3" width="24.19" height="4.24" rx="0.97"/><rect class="cls-85" x="279.58" y="499.88" width="24.19" height="4.24" rx="0.97"/><rect class="cls-85" x="279.58" y="513.16" width="24.19" height="4.24" rx="0.97"/><rect class="cls-85" x="279.58" y="526.45" width="24.19" height="4.24" rx="0.97"/><rect class="cls-85" x="279.58" y="539.73" width="24.19" height="4.24" rx="0.97"/><rect class="cls-85" x="279.58" y="553.01" width="24.19" height="4.24" rx="0.97"/><rect class="cls-85" x="279.58" y="566.3" width="24.19" height="4.24" rx="0.97"/><rect class="cls-85" x="315.86" y="499.88" width="24.19" height="4.24" rx="0.97"/><rect class="cls-85" x="315.86" y="513.16" width="24.19" height="4.24" rx="0.97"/><rect class="cls-85" x="315.86" y="526.45" width="24.19" height="4.24" rx="0.97"/><rect class="cls-85" x="315.86" y="539.73" width="24.19" height="4.24" rx="0.97"/><rect class="cls-85" x="315.86" y="553.01" width="24.19" height="4.24" rx="0.97"/><rect class="cls-85" x="315.86" y="566.3" width="24.19" height="4.24" rx="0.97"/><rect class="cls-85" x="352.38" y="499.88" width="24.19" height="4.24" rx="0.97"/><rect class="cls-85" x="352.38" y="513.16" width="24.19" height="4.24" rx="0.97"/><rect class="cls-85" x="352.38" y="526.45" width="24.19" height="4.24" rx="0.97"/><rect class="cls-85" x="352.38" y="539.73" width="24.19" height="4.24" rx="0.97"/><rect class="cls-85" x="352.38" y="553.01" width="24.19" height="4.24" rx="0.97"/><rect class="cls-85" x="352.38" y="566.3" width="24.19" height="4.24" rx="0.97"/><rect class="cls-85" x="388.89" y="499.88" width="24.19" height="4.24" rx="0.97"/><rect class="cls-85" x="388.89" y="513.16" width="24.19" height="4.24" rx="0.97"/><rect class="cls-85" x="388.89" y="526.45" width="24.19" height="4.24" rx="0.97"/><rect class="cls-85" x="388.89" y="539.73" width="24.19" height="4.24" rx="0.97"/><rect class="cls-85" x="388.89" y="553.01" width="24.19" height="4.24" rx="0.97"/><rect class="cls-85" x="388.89" y="566.3" width="24.19" height="4.24" rx="0.97"/><rect class="cls-86" x="167.66" y="473.54" width="285.82" height="19.07" rx="4.35"/><rect class="cls-87" x="174.23" y="474.72" width="270.05" height="9.53" rx="2.17"/><ellipse class="cls-88" cx="311.7" cy="255.47" rx="101.56" ry="16.24"/><polygon class="cls-33" points="408.33 252.17 429.64 473.68 433.58 473.68 411.44 252.17 408.33 252.17"/><polygon class="cls-33" points="210.14 251.94 188.83 473.44 184.89 473.44 207.03 251.94 210.14 251.94"/><path class="cls-89" d="M322.43,242a.62.62,0,0,1,1.11.54c-1.67,4.44-4.57,10.58-7.46,11.39s-6.25.56-9,1.94a15.16,15.16,0,0,0-4.84,4.66c.61-3,.89-6.71-1.82-8.29-4.7-2.74-8.86-19-1.33-10.38,4.66,3.6,2.15-2.67,8.08-2.67,2.38,0,9.5,0,11.84,0-.17,1.12-1.76,7.21-2.16,8.27a4.41,4.41,0,0,1-2.89,2.71C316.76,250.19,319.93,245.43,322.43,242Z"/><path class="cls-90" d="M316.75,244.52a.38.38,0,0,1,.68.33c-1,2.72-2.79,6.48-4.56,7s-3.83.35-5.49,1.19a9.39,9.39,0,0,0-3,2.85c.38-1.81.55-4.11-1.11-5.07-2.88-1.68-7.22-13-1-4.94,2.85,2.21,5.71-5.68,9.34-5.68h1.45c2.15.83.55,7,.31,7.69a2.71,2.71,0,0,1-1.77,1.66C313.29,249.56,315.22,246.64,316.75,244.52Z"/><path class="cls-91" d="M342.35,269.47c-1.88-1.23-18.35-9.75-18.77-10a3.5,3.5,0,0,1,.74-.27l.84-.94c.36.09,18.25,9.72,20.07,10.91Z"/><path class="cls-91" d="M281.09,268.85l-2.84-.16c1.44-1,17.29-10.86,17.68-11l2.83.49c.12,0-.71.14-.71.13C297.66,258.6,282.64,267.8,281.09,268.85Z"/><path class="cls-92" d="M292.59,250.79v7.71H328v-8.31s-2.33-1-7.74-1.31a132.54,132.54,0,0,0-23.19.4S293.65,249.48,292.59,250.79Z"/><ellipse class="cls-93" cx="310.28" cy="257.72" rx="17.69" ry="3.34"/><path class="cls-93" d="M327.05,254.39c.56,0,61.37-9.66,64.14-10.37"/><path class="cls-91" d="M327.05,255.24v-.85l-.07-.86c.38,0,54.71-8.55,57.8-9.34l4.59.73C387.46,245.4,328.15,255.24,327.05,255.24Z"/><path class="cls-93" d="M294.14,253.57c-.56,0-53-7.41-59.27-7.5"/><path class="cls-91" d="M294.14,254.43c-.17,0-.74-.08-8.12-1.09-15.07-2.06-50.48-7.62-55.22-7.69l4.83-.87c4.86.06,35.54,4.8,50.64,6.87l7.93,1.07Z"/><path class="cls-94" d="M245.5,456.26a9.25,9.25,0,0,0-6.26-2"/><path class="cls-37" d="M260.12,461.23a11.17,11.17,0,0,1,6.6-2.07c3.56-.06,2.35,0,4.24-.57s1.45,1.83-2.11,3.29,1.87.77,2.78.8c1.45.06,3.51-.84,5.24-1.53.67-.27.76.88.37,1.49a7.76,7.76,0,0,1-4.34,2.28s2.8-.73,3.29-.93,1,2.46-2.87,3.05c0,0,2.93-.83,1.63,1-.85,1.19,0,.95-1.38,1.69-2.09,1.11-7.68,1.22-14.58-2.78"/><path class="cls-94" d="M270.05,465a10.4,10.4,0,0,0,3.1-.06"/><path class="cls-94" d="M270.05,466.83a7.45,7.45,0,0,0,3.94.07"/><path class="cls-94" d="M269.88,468.67a7.49,7.49,0,0,0,5.07-.6"/><path class="cls-94" d="M259,462.8c-.09,0,0-.16,0-.25a4.88,4.88,0,0,1,2.32-2.23"/></g><g class="cls-95"><g class="cls-96"><g id="Slide_1-3" data-name="Slide 1"><g class="cls-5"><rect class="cls-97" x="1123.71" y="-113.24" width="1668.71" height="926.47"/></g></g><path class="cls-98" d="M1273.41,395.91s64.32-42.06,139.35-29.88c69.68,34.31,28.14,68.81-40.2,64.85-72.35-4-99.15-6.18-99.15-6.18S1227.12,417.05,1273.41,395.91Z"/></g></g><g class="cls-99"><g class="cls-100"><g id="Slide_12" data-name="Slide 12"><rect class="cls-101" x="-320" y="650" width="1600" height="767.64"/></g></g><path class="cls-81" d="M1079.44,829.26l-7-.3-25.11-1.06-24.11-1-56.49-2.4-24.34-1-29.5-1.26-3-.12S631.79,509.3,653.89,352.9c11.93-84.32,52.15-128.16,86.68-150.71l.11-.08c29.5-19.17,54.8-22.83,54.8-22.83a174.68,174.68,0,0,1,25.65-13.65h0c36.38-15.64,67.44-13.6,83.51-10.72a77.87,77.87,0,0,1,11.74,2.85c88.23-39,143.74-3.76,153.35,3.17,1,.73,1.5,1.14,1.5,1.14,39.87-13.5,75.65-6.67,98.38,1.24,16,5.57,25.49,11.67,25.49,11.67,24.13,9,44.32,19.81,61.13,32.11l0,0s.09.06.11.1C1484.1,375.16,1079.44,829.26,1079.44,829.26Z"/><path class="cls-82" d="M1086.82,364.38c0,180.77-30,385.83-63.64,462.51l-56.49-2.4c-27.56-63.32-49.22-209.49-65.6-378.55-13.27-137.09-9.09-229.31,3.57-291a77.87,77.87,0,0,1,11.74,2.85c88.23-39,143.74-3.76,153.35,3.17C1080.22,212.21,1086.82,279.66,1086.82,364.38Z"/><path class="cls-82" d="M1072.4,829l-25.11-1.06c245.86-400.62,175.21-630,127.57-662.66l81.39,41.85,0,0s-41.33-23.29-41.31-23.25C1451.82,350,1140,747.29,1072.4,829Z"/><path class="cls-82" d="M942.35,823.47l-29.5-1.26c-77.05-94.54-352.09-457.7-172.28-620l.11-.08c29.5-19.17,54.8-22.83,54.8-22.83,8.75-5.61-3.63.65,4.69-2.9C770.79,230.38,708.17,435.06,942.35,823.47Z"/></g><g class="cls-102"><g class="cls-103"><g id="Slide_12-2" data-name="Slide 12"><rect class="cls-104" x="1140" y="615.44" width="1600" height="767.64"/></g></g></g><g class="cls-105"><g class="cls-106"><rect class="cls-107" x="-163.97" y="506.31" width="3239.51" height="1468.15"/></g></g></g></g></svg>