<svg id="Layer_3" data-name="Layer 3" xmlns="http://www.w3.org/2000/svg" xmlns:xlink="http://www.w3.org/1999/xlink" viewBox="0 0 1280 720"><defs><style>.cls-1{fill:#00aff2;}.cls-2{opacity:0.06;}.cls-28,.cls-3{fill:#fff;}.cls-4{fill:#92ff9f;}.cls-4,.cls-5{isolation:isolate;}.cls-17,.cls-5{fill:#ff0;}.cls-6{fill:#ff5dad;}.cls-7{font-size:42.62px;fill:#323232;}.cls-33,.cls-34,.cls-7{font-family:SassoonSansUSBold, Sassoon Sans US;}.cls-8{letter-spacing:-0.02em;}.cls-33,.cls-9{opacity:0.5;}.cls-10{fill:#d70411;stroke:#af0000;}.cls-10,.cls-11,.cls-13,.cls-23{stroke-miterlimit:10;}.cls-11{fill:#f63e3e;stroke:#c40000;}.cls-12{fill:#8b0211;}.cls-13{fill:#f7db8f;stroke:#e59e00;}.cls-14{fill:#f7c151;}.cls-15{fill:#b5001a;}.cls-16{fill:#f96b79;}.cls-18{fill:#ffa63b;}.cls-19{fill:#6b6b6b;}.cls-19,.cls-20,.cls-21,.cls-23{fill-rule:evenodd;}.cls-20{fill:#dd2c2c;}.cls-21,.cls-34{fill:#fff200;}.cls-22{fill:#ff8500;}.cls-23{fill:none;stroke:#f96500;stroke-width:0.5px;}.cls-24{fill:url(#linear-gradient);}.cls-25{fill:#fff289;}.cls-26{fill:url(#linear-gradient-2);}.cls-27{opacity:0.2;}.cls-28{opacity:0.3;}.cls-29{fill:url(#linear-gradient-3);}.cls-30{fill:url(#linear-gradient-4);}.cls-31{fill:url(#linear-gradient-5);}.cls-32{fill:url(#linear-gradient-6);}.cls-33,.cls-34{font-size:80px;}</style><linearGradient id="linear-gradient" x1="1194.25" y1="51.3" x2="1194.25" y2="106.61" gradientUnits="userSpaceOnUse"><stop offset="0" stop-color="#f8f096"/><stop offset="0.23" stop-color="#eac200"/><stop offset="0.61" stop-color="#dc8e06"/><stop offset="1" stop-color="#ad6318"/></linearGradient><linearGradient id="linear-gradient-2" x1="1194.25" y1="54.86" x2="1194.25" y2="103.41" gradientUnits="userSpaceOnUse"><stop offset="0" stop-color="#f8f096"/><stop offset="0.32" stop-color="#ffdf00"/><stop offset="0.7" stop-color="#f5a200"/><stop offset="1" stop-color="#d7ab00"/></linearGradient><linearGradient id="linear-gradient-3" x1="1095.16" y1="51.3" x2="1095.16" y2="106.61" xlink:href="#linear-gradient"/><linearGradient id="linear-gradient-4" x1="1095.16" y1="54.86" x2="1095.16" y2="103.41" xlink:href="#linear-gradient-2"/><linearGradient id="linear-gradient-5" x1="995.7" y1="51.3" x2="995.7" y2="106.61" xlink:href="#linear-gradient"/><linearGradient id="linear-gradient-6" x1="995.7" y1="54.86" x2="995.7" y2="103.41" xlink:href="#linear-gradient-2"/></defs><rect class="cls-1" x="0.65" y="0.78" width="1278.7" height="718.44"/><g class="cls-2"><rect class="cls-3" x="593.65" y="42.09" width="21.54" height="6.34"/><rect class="cls-3" x="634.41" y="42.09" width="21.54" height="6.34"/><rect class="cls-3" x="621.75" y="12.95" width="6.11" height="22.35"/><rect class="cls-3" x="621.75" y="55.22" width="6.11" height="22.35"/><rect class="cls-3" x="546.24" y="228.24" width="6.11" height="17.08"/><rect class="cls-3" x="546.24" y="266.49" width="6.11" height="17.08"/><rect class="cls-3" x="559.5" y="252.73" width="16.47" height="6.34"/><polygon class="cls-3" points="539.1 259.07 539.1 252.74 525.57 252.74 524.86 252.74 523.33 252.74 523.33 259.07 524.86 259.07 525.57 259.07 539.1 259.07"/><rect class="cls-3" x="781.26" y="3.63" width="6.11" height="9.53"/><rect class="cls-3" x="661.4" y="242.13" width="6.11" height="9.53"/><rect class="cls-3" x="661.4" y="216.63" width="6.11" height="9.53"/><rect class="cls-3" x="647.56" y="230.98" width="9.19" height="6.34"/><rect class="cls-3" x="672.16" y="230.98" width="9.19" height="6.34"/><rect class="cls-3" x="798.08" y="243.73" width="9.19" height="6.34"/><rect class="cls-3" x="813.38" y="243.73" width="9.19" height="6.34"/><rect class="cls-3" x="807.27" y="250.07" width="6.11" height="9.53"/><rect class="cls-3" x="807.27" y="234.2" width="6.11" height="9.53"/><rect class="cls-3" x="532.51" y="111.02" width="6.11" height="6.34"/><rect class="cls-3" x="544.73" y="111.02" width="6.11" height="6.34"/><rect class="cls-3" x="538.62" y="117.36" width="6.11" height="6.34"/><rect class="cls-3" x="538.62" y="104.69" width="6.11" height="6.34"/><rect class="cls-3" x="534.05" y="25" width="15.24" height="6.34"/><rect class="cls-3" x="730" y="177.58" width="15.24" height="6.34"/><rect class="cls-3" x="769.07" y="177.58" width="15.24" height="6.34"/><rect class="cls-3" x="754.44" y="152.58" width="6.11" height="15.81"/><rect class="cls-3" x="754.44" y="193.11" width="6.11" height="15.81"/><rect class="cls-3" x="877.12" y="140.89" width="6.11" height="22.35"/><rect class="cls-3" x="877.12" y="169.58" width="6.11" height="22.35"/><rect class="cls-3" x="855.58" y="163.24" width="21.54" height="6.34"/><polygon class="cls-3" points="902.43 169.58 904.78 169.58 904.78 163.24 902.43 163.24 883.23 163.24 883.23 169.58 902.43 169.58"/><rect class="cls-3" x="825.63" y="88.75" width="6.11" height="6.34"/><rect class="cls-3" x="825.63" y="69.73" width="6.11" height="6.34"/><rect class="cls-3" x="816.46" y="79.24" width="6.11" height="6.34"/><rect class="cls-3" x="834.79" y="79.24" width="6.11" height="6.34"/><rect class="cls-3" x="872.56" y="25" width="15.24" height="6.34"/><rect class="cls-3" x="607.62" y="148.9" width="17.04" height="6.34"/><rect class="cls-3" x="636.88" y="148.9" width="17.04" height="6.34"/><rect class="cls-3" x="627.72" y="128.05" width="6.11" height="17.68"/><rect class="cls-3" x="627.72" y="158.4" width="6.11" height="17.68"/><rect class="cls-3" x="725.22" y="53.73" width="6.11" height="22.35"/><rect class="cls-3" x="725.22" y="82.41" width="6.11" height="22.35"/><rect class="cls-3" x="703.68" y="76.07" width="21.54" height="6.34"/><rect class="cls-3" x="731.33" y="76.07" width="21.54" height="6.34"/><rect class="cls-3" x="856.93" y="282.51" width="6.11" height="22.35"/><polygon class="cls-3" points="639.97 326.78 630.77 326.78 630.77 328.36 630.77 333.12 639.97 333.12 639.97 328.36 639.97 326.78"/><rect class="cls-3" x="639.97" y="317.25" width="6.11" height="9.53"/><rect class="cls-3" x="690.49" y="304.41" width="17.04" height="6.34"/><rect class="cls-3" x="719.75" y="304.41" width="17.04" height="6.34"/><rect class="cls-3" x="710.59" y="283.57" width="6.11" height="17.68"/><polygon class="cls-3" points="710.59 328.36 710.59 331.59 716.7 331.59 716.7 328.36 716.7 313.92 710.59 313.92 710.59 328.36"/><rect class="cls-3" x="971.22" y="42.09" width="21.54" height="6.34"/><rect class="cls-3" x="1011.98" y="42.09" width="21.54" height="6.34"/><rect class="cls-3" x="999.32" y="12.95" width="6.11" height="22.35"/><rect class="cls-3" x="999.32" y="55.22" width="6.11" height="22.35"/><rect class="cls-3" x="939.8" y="216.07" width="6.11" height="17.08"/><rect class="cls-3" x="939.8" y="254.32" width="6.11" height="17.08"/><rect class="cls-3" x="953.06" y="240.56" width="16.47" height="6.34"/><polygon class="cls-3" points="916.19 240.56 916.19 246.9 918.42 246.9 932.66 246.9 932.66 240.56 918.42 240.56 916.19 240.56"/><rect class="cls-3" x="1277.77" y="252.73" width="2.23" height="6.34"/><rect class="cls-3" x="1158.83" y="3.63" width="6.11" height="9.53"/><rect class="cls-3" x="1038.97" y="242.13" width="6.11" height="9.53"/><rect class="cls-3" x="1038.97" y="216.63" width="6.11" height="9.53"/><rect class="cls-3" x="1025.13" y="230.98" width="9.19" height="6.34"/><rect class="cls-3" x="1049.73" y="230.98" width="9.19" height="6.34"/><rect class="cls-3" x="1175.65" y="243.73" width="9.19" height="6.34"/><rect class="cls-3" x="1190.95" y="243.73" width="9.19" height="6.34"/><rect class="cls-3" x="1184.84" y="250.07" width="6.11" height="9.53"/><rect class="cls-3" x="1184.84" y="234.2" width="6.11" height="9.53"/><rect class="cls-3" x="925.53" y="101.52" width="6.11" height="6.34"/><rect class="cls-3" x="937.75" y="101.52" width="6.11" height="6.34"/><rect class="cls-3" x="931.64" y="107.85" width="6.11" height="6.34"/><rect class="cls-3" x="931.64" y="95.18" width="6.11" height="6.34"/><rect class="cls-3" x="911.62" y="25" width="15.24" height="6.34"/><polygon class="cls-3" points="903.1 15.81 903.1 0 902.43 0 896.99 0 896.99 15.81 902.43 15.81 903.1 15.81"/><polygon class="cls-3" points="903.1 56.34 903.1 40.52 902.43 40.52 896.99 40.52 896.99 56.34 902.43 56.34 903.1 56.34"/><rect class="cls-3" x="1107.57" y="177.58" width="15.25" height="6.34"/><rect class="cls-3" x="1146.64" y="177.58" width="15.24" height="6.34"/><rect class="cls-3" x="1132.01" y="152.58" width="6.11" height="15.81"/><rect class="cls-3" x="1132.01" y="193.11" width="6.11" height="15.81"/><rect class="cls-3" x="1254.69" y="140.89" width="6.11" height="22.35"/><rect class="cls-3" x="1254.69" y="169.58" width="6.11" height="22.35"/><rect class="cls-3" x="1233.15" y="163.24" width="21.54" height="6.34"/><rect class="cls-3" x="1260.8" y="163.24" width="19.2" height="6.34"/><rect class="cls-3" x="1203.2" y="88.75" width="6.11" height="6.34"/><rect class="cls-3" x="1203.2" y="69.73" width="6.11" height="6.34"/><rect class="cls-3" x="1194.03" y="79.24" width="6.11" height="6.34"/><rect class="cls-3" x="1212.36" y="79.24" width="6.11" height="6.34"/><rect class="cls-3" x="1250.13" y="25" width="15.25" height="6.34"/><rect class="cls-3" x="1274.56" width="5.44" height="15.81"/><rect class="cls-3" x="1274.56" y="40.52" width="5.44" height="15.81"/><rect class="cls-3" x="985.19" y="148.9" width="17.04" height="6.34"/><rect class="cls-3" x="1014.45" y="148.9" width="17.04" height="6.34"/><rect class="cls-3" x="1005.29" y="128.05" width="6.11" height="17.68"/><rect class="cls-3" x="1005.29" y="158.4" width="6.11" height="17.68"/><rect class="cls-3" x="1102.79" y="53.73" width="6.11" height="22.35"/><rect class="cls-3" x="1102.79" y="82.41" width="6.11" height="22.35"/><rect class="cls-3" x="1081.25" y="76.07" width="21.54" height="6.34"/><rect class="cls-3" x="1108.9" y="76.07" width="21.54" height="6.34"/><rect class="cls-3" x="1219.05" y="296.05" width="6.11" height="22.35"/><polygon class="cls-3" points="978.94 325.93 978.94 324.35 969.75 324.35 969.75 325.93 969.75 330.69 978.94 330.69 978.94 325.93"/><rect class="cls-3" x="978.94" y="314.82" width="6.11" height="9.53"/><rect class="cls-3" x="1068.06" y="304.41" width="17.04" height="6.34"/><rect class="cls-3" x="1097.32" y="304.41" width="17.04" height="6.34"/><rect class="cls-3" x="1088.16" y="283.57" width="6.11" height="17.68"/><polygon class="cls-3" points="1088.16 328.36 1088.16 331.59 1094.27 331.59 1094.27 328.36 1094.27 313.92 1088.16 313.92 1088.16 328.36"/><polygon class="cls-3" points="574 328.36 574 321.95 567.89 321.95 567.89 328.36 567.89 344.3 574 344.3 574 328.36"/><rect class="cls-3" x="567.9" y="350.64" width="6.11" height="22.35"/><rect class="cls-3" x="546.35" y="344.3" width="21.54" height="6.34"/><rect class="cls-3" x="574" y="344.3" width="21.54" height="6.34"/><polygon class="cls-3" points="828.83 314.82 828.83 317.99 850.38 317.99 850.38 314.82 850.38 311.65 828.83 311.65 828.83 314.82"/><polygon class="cls-3" points="891.13 314.82 891.13 311.65 869.59 311.65 869.59 314.82 869.59 317.99 891.13 317.99 891.13 314.82"/><rect class="cls-3" x="856.93" y="324.78" width="6.11" height="22.35"/><rect class="cls-3" x="593.65" y="433.73" width="21.54" height="6.34"/><rect class="cls-3" x="634.41" y="433.73" width="21.54" height="6.34"/><rect class="cls-3" x="621.75" y="404.59" width="6.11" height="22.35"/><rect class="cls-3" x="621.75" y="446.86" width="6.11" height="22.35"/><rect class="cls-3" x="546.24" y="619.88" width="6.11" height="17.08"/><rect class="cls-3" x="546.24" y="658.13" width="6.11" height="17.08"/><rect class="cls-3" x="559.5" y="644.38" width="16.47" height="6.34"/><polygon class="cls-3" points="900.2 644.38 900.2 650.71 902.43 650.71 916.66 650.71 916.66 644.38 902.43 644.38 900.2 644.38"/><rect class="cls-3" x="781.26" y="395.27" width="6.11" height="9.53"/><rect class="cls-3" x="781.26" y="369.76" width="6.11" height="9.53"/><rect class="cls-3" x="767.42" y="384.11" width="9.19" height="6.34"/><rect class="cls-3" x="792.01" y="384.11" width="9.19" height="6.34"/><rect class="cls-3" x="661.4" y="633.77" width="6.11" height="9.53"/><rect class="cls-3" x="661.4" y="608.27" width="6.11" height="9.53"/><rect class="cls-3" x="647.56" y="622.62" width="9.19" height="6.34"/><rect class="cls-3" x="672.16" y="622.62" width="9.19" height="6.34"/><polygon class="cls-3" points="646.08 333.12 655.27 333.12 655.27 328.36 655.27 326.78 646.08 326.78 646.08 328.36 646.08 333.12"/><rect class="cls-3" x="639.97" y="333.12" width="6.11" height="9.53"/><rect class="cls-3" x="798.08" y="635.37" width="9.19" height="6.34"/><rect class="cls-3" x="813.38" y="635.37" width="9.19" height="6.34"/><rect class="cls-3" x="807.27" y="641.71" width="6.11" height="9.53"/><rect class="cls-3" x="807.27" y="625.84" width="6.11" height="9.53"/><rect class="cls-3" x="532.51" y="502.66" width="6.11" height="6.34"/><rect class="cls-3" x="544.73" y="502.66" width="6.11" height="6.34"/><rect class="cls-3" x="538.62" y="509" width="6.11" height="6.34"/><rect class="cls-3" x="538.62" y="496.33" width="6.11" height="6.34"/><rect class="cls-3" x="689.85" y="392.1" width="6.11" height="6.34"/><rect class="cls-3" x="702.07" y="392.1" width="6.11" height="6.34"/><rect class="cls-3" x="695.96" y="398.43" width="6.11" height="6.34"/><rect class="cls-3" x="695.96" y="385.76" width="6.11" height="6.34"/><rect class="cls-3" x="534.05" y="416.64" width="15.24" height="6.34"/><rect class="cls-3" x="730" y="569.22" width="15.24" height="6.34"/><rect class="cls-3" x="769.07" y="569.22" width="15.24" height="6.34"/><rect class="cls-3" x="754.44" y="544.22" width="6.11" height="15.81"/><rect class="cls-3" x="754.44" y="584.75" width="6.11" height="15.81"/><rect class="cls-3" x="877.12" y="532.54" width="6.11" height="22.35"/><rect class="cls-3" x="877.12" y="561.22" width="6.11" height="22.35"/><rect class="cls-3" x="855.58" y="554.88" width="21.54" height="6.34"/><rect class="cls-3" x="831.74" y="485.32" width="6.11" height="6.34"/><rect class="cls-3" x="831.74" y="466.31" width="6.11" height="6.34"/><rect class="cls-3" x="822.57" y="475.82" width="6.11" height="6.34"/><rect class="cls-3" x="840.9" y="475.82" width="6.11" height="6.34"/><rect class="cls-3" x="607.62" y="540.54" width="17.04" height="6.34"/><rect class="cls-3" x="636.88" y="540.54" width="17.04" height="6.34"/><rect class="cls-3" x="627.72" y="519.69" width="6.11" height="17.68"/><rect class="cls-3" x="627.72" y="550.05" width="6.11" height="17.68"/><rect class="cls-3" x="567.9" y="713.6" width="6.11" height="6.4"/><rect class="cls-3" x="725.22" y="445.37" width="6.11" height="22.35"/><rect class="cls-3" x="725.22" y="474.05" width="6.11" height="22.35"/><rect class="cls-3" x="703.68" y="467.71" width="21.54" height="6.34"/><rect class="cls-3" x="731.33" y="467.71" width="21.54" height="6.34"/><rect class="cls-3" x="813.38" y="716.83" width="21.54" height="3.17"/><rect class="cls-3" x="854.14" y="716.83" width="21.54" height="3.17"/><rect class="cls-3" x="841.48" y="687.69" width="6.11" height="22.35"/><rect class="cls-3" x="630.77" y="718.42" width="9.19" height="1.58"/><rect class="cls-3" x="646.08" y="718.42" width="9.19" height="1.58"/><rect class="cls-3" x="639.97" y="708.89" width="6.11" height="9.53"/><rect class="cls-3" x="690.49" y="696.05" width="17.04" height="6.34"/><rect class="cls-3" x="719.75" y="696.05" width="17.04" height="6.34"/><rect class="cls-3" x="710.59" y="675.21" width="6.11" height="17.68"/><rect class="cls-3" x="710.59" y="705.56" width="6.11" height="14.44"/><polygon class="cls-3" points="907.83 382.13 901.72 382.13 901.72 388.54 901.72 404.48 907.83 404.48 907.83 388.54 907.83 382.13"/><rect class="cls-3" x="901.72" y="410.82" width="6.11" height="22.35"/><rect class="cls-3" x="880.18" y="404.48" width="21.54" height="6.34"/><rect class="cls-3" x="907.83" y="404.48" width="21.54" height="6.34"/><polygon class="cls-3" points="904.78 561.22 904.78 554.88 902.43 554.88 883.23 554.88 883.23 561.22 902.43 561.22 904.78 561.22"/><polygon class="cls-3" points="1212.49 328.36 1212.49 325.19 1190.95 325.19 1190.95 328.36 1190.95 331.53 1212.49 331.53 1212.49 328.36"/><polygon class="cls-3" points="1253.25 328.36 1253.25 325.19 1231.7 325.19 1231.7 328.36 1231.7 331.53 1253.25 331.53 1253.25 328.36"/><rect class="cls-3" x="1219.05" y="338.32" width="6.11" height="22.35"/><rect class="cls-3" x="971.22" y="433.73" width="21.54" height="6.34"/><rect class="cls-3" x="1011.98" y="433.73" width="21.54" height="6.34"/><rect class="cls-3" x="999.32" y="404.59" width="6.11" height="22.35"/><rect class="cls-3" x="999.32" y="446.86" width="6.11" height="22.35"/><rect class="cls-3" x="923.81" y="619.88" width="6.11" height="17.08"/><rect class="cls-3" x="923.81" y="658.13" width="6.11" height="17.08"/><rect class="cls-3" x="937.07" y="644.38" width="16.47" height="6.34"/><rect class="cls-3" x="1277.77" y="644.38" width="2.23" height="6.34"/><rect class="cls-3" x="1158.83" y="395.27" width="6.11" height="9.53"/><rect class="cls-3" x="1158.83" y="369.76" width="6.11" height="9.53"/><rect class="cls-3" x="1144.99" y="384.11" width="9.19" height="6.34"/><rect class="cls-3" x="1169.58" y="384.11" width="9.19" height="6.34"/><rect class="cls-3" x="1038.97" y="633.77" width="6.11" height="9.53"/><rect class="cls-3" x="1038.97" y="608.27" width="6.11" height="9.53"/><rect class="cls-3" x="1025.13" y="622.62" width="9.19" height="6.34"/><rect class="cls-3" x="1049.73" y="622.62" width="9.19" height="6.34"/><polygon class="cls-3" points="985.05 330.69 994.24 330.69 994.24 325.93 994.24 324.35 985.05 324.35 985.05 325.93 985.05 330.69"/><rect class="cls-3" x="978.94" y="330.69" width="6.11" height="9.53"/><rect class="cls-3" x="1175.65" y="635.37" width="9.19" height="6.34"/><rect class="cls-3" x="1190.95" y="635.37" width="9.19" height="6.34"/><rect class="cls-3" x="1184.84" y="641.71" width="6.11" height="9.53"/><rect class="cls-3" x="1184.84" y="625.84" width="6.11" height="9.53"/><rect class="cls-3" x="917.8" y="488.85" width="6.11" height="6.34"/><rect class="cls-3" x="930.02" y="488.85" width="6.11" height="6.34"/><rect class="cls-3" x="923.91" y="495.18" width="6.11" height="6.34"/><rect class="cls-3" x="923.91" y="482.51" width="6.11" height="6.34"/><rect class="cls-3" x="1072.08" y="382.14" width="6.11" height="6.34"/><rect class="cls-3" x="1084.3" y="382.14" width="6.11" height="6.34"/><rect class="cls-3" x="1078.19" y="388.47" width="6.11" height="6.34"/><rect class="cls-3" x="1078.19" y="375.8" width="6.11" height="6.34"/><rect class="cls-3" x="1107.57" y="569.22" width="15.25" height="6.34"/><rect class="cls-3" x="1146.64" y="569.22" width="15.24" height="6.34"/><rect class="cls-3" x="1132.01" y="544.22" width="6.11" height="15.81"/><rect class="cls-3" x="1132.01" y="584.75" width="6.11" height="15.81"/><rect class="cls-3" x="1254.69" y="532.54" width="6.11" height="22.35"/><rect class="cls-3" x="1254.69" y="561.22" width="6.11" height="22.35"/><rect class="cls-3" x="1233.15" y="554.88" width="21.54" height="6.34"/><rect class="cls-3" x="1260.8" y="554.88" width="19.2" height="6.34"/><rect class="cls-3" x="1203.2" y="480.39" width="6.11" height="6.34"/><rect class="cls-3" x="1203.2" y="461.38" width="6.11" height="6.34"/><rect class="cls-3" x="1194.03" y="470.88" width="6.11" height="6.34"/><rect class="cls-3" x="1212.36" y="470.88" width="6.11" height="6.34"/><rect class="cls-3" x="1250.13" y="416.64" width="15.25" height="6.34"/><rect class="cls-3" x="1274.56" y="391.64" width="5.44" height="15.81"/><rect class="cls-3" x="1274.56" y="432.16" width="5.44" height="15.81"/><rect class="cls-3" x="985.19" y="540.54" width="17.04" height="6.34"/><rect class="cls-3" x="1014.45" y="540.54" width="17.04" height="6.34"/><rect class="cls-3" x="1005.29" y="519.69" width="6.11" height="17.68"/><rect class="cls-3" x="1005.29" y="550.05" width="6.11" height="17.68"/><rect class="cls-3" x="945.47" y="713.6" width="6.11" height="6.4"/><rect class="cls-3" x="1102.79" y="445.37" width="6.11" height="22.35"/><rect class="cls-3" x="1102.79" y="474.05" width="6.11" height="22.35"/><rect class="cls-3" x="1081.25" y="467.71" width="21.54" height="6.34"/><rect class="cls-3" x="1108.9" y="467.71" width="21.54" height="6.34"/><rect class="cls-3" x="1190.95" y="716.83" width="21.54" height="3.17"/><rect class="cls-3" x="1231.7" y="716.83" width="21.54" height="3.17"/><rect class="cls-3" x="1219.05" y="687.69" width="6.11" height="22.35"/><rect class="cls-3" x="1008.34" y="718.42" width="9.19" height="1.58"/><rect class="cls-3" x="1023.65" y="718.42" width="9.19" height="1.58"/><rect class="cls-3" x="1017.54" y="708.89" width="6.11" height="9.53"/><rect class="cls-3" x="1068.06" y="696.05" width="17.04" height="6.34"/><rect class="cls-3" x="1097.32" y="696.05" width="17.04" height="6.34"/><rect class="cls-3" x="1088.16" y="675.21" width="6.11" height="17.68"/><rect class="cls-3" x="1088.16" y="705.56" width="6.11" height="14.44"/><rect class="cls-3" x="26.82" y="3.63" width="6.11" height="9.53"/><rect class="cls-3" x="43.65" y="243.73" width="9.19" height="6.34"/><rect class="cls-3" x="58.95" y="243.73" width="9.19" height="6.34"/><rect class="cls-3" x="52.84" y="250.07" width="6.11" height="9.53"/><rect class="cls-3" x="52.84" y="234.2" width="6.11" height="9.53"/><rect class="cls-3" x="14.63" y="177.58" width="15.24" height="6.34"/><rect class="cls-3" y="152.58" width="6.11" height="15.81"/><rect class="cls-3" y="193.11" width="6.11" height="15.81"/><rect class="cls-3" x="122.69" y="140.89" width="6.11" height="22.35"/><rect class="cls-3" x="122.69" y="169.58" width="6.11" height="22.35"/><rect class="cls-3" x="101.14" y="163.24" width="21.54" height="6.34"/><polygon class="cls-3" points="148 169.58 150.34 169.58 150.34 163.24 148 163.24 128.8 163.24 128.8 169.58 148 169.58"/><rect class="cls-3" x="71.19" y="88.75" width="6.11" height="6.34"/><rect class="cls-3" x="71.19" y="69.73" width="6.11" height="6.34"/><rect class="cls-3" x="62.03" y="79.24" width="6.11" height="6.34"/><rect class="cls-3" x="80.36" y="79.24" width="6.11" height="6.34"/><rect class="cls-3" x="118.12" y="25" width="15.24" height="6.34"/><rect class="cls-3" x="102.49" y="282.51" width="6.11" height="22.35"/><rect class="cls-3" x="216.79" y="42.09" width="21.54" height="6.34"/><rect class="cls-3" x="257.54" y="42.09" width="21.54" height="6.34"/><rect class="cls-3" x="244.88" y="12.95" width="6.11" height="22.35"/><rect class="cls-3" x="244.88" y="55.22" width="6.11" height="22.35"/><rect class="cls-3" x="185.37" y="216.07" width="6.11" height="17.08"/><rect class="cls-3" x="185.37" y="254.32" width="6.11" height="17.08"/><rect class="cls-3" x="198.63" y="240.56" width="16.47" height="6.34"/><polygon class="cls-3" points="161.75 240.56 161.75 246.9 163.99 246.9 178.22 246.9 178.22 240.56 163.99 240.56 161.75 240.56"/><rect class="cls-3" x="404.39" y="3.63" width="6.11" height="9.53"/><rect class="cls-3" x="284.54" y="242.13" width="6.11" height="9.53"/><rect class="cls-3" x="284.54" y="216.63" width="6.11" height="9.53"/><rect class="cls-3" x="270.7" y="230.98" width="9.19" height="6.34"/><rect class="cls-3" x="295.29" y="230.98" width="9.19" height="6.34"/><rect class="cls-3" x="421.22" y="243.73" width="9.19" height="6.34"/><rect class="cls-3" x="436.52" y="243.73" width="9.19" height="6.34"/><rect class="cls-3" x="430.41" y="250.07" width="6.11" height="9.53"/><rect class="cls-3" x="430.41" y="234.2" width="6.11" height="9.53"/><rect class="cls-3" x="171.09" y="101.52" width="6.11" height="6.34"/><rect class="cls-3" x="183.31" y="101.52" width="6.11" height="6.34"/><rect class="cls-3" x="177.2" y="107.85" width="6.11" height="6.34"/><rect class="cls-3" x="177.2" y="95.18" width="6.11" height="6.34"/><rect class="cls-3" x="157.19" y="25" width="15.24" height="6.34"/><polygon class="cls-3" points="148.67 15.81 148.67 0 148 0 142.56 0 142.56 15.81 148 15.81 148.67 15.81"/><polygon class="cls-3" points="148.67 56.34 148.67 40.52 148 40.52 142.56 40.52 142.56 56.34 148 56.34 148.67 56.34"/><rect class="cls-3" x="353.13" y="177.58" width="15.25" height="6.34"/><rect class="cls-3" x="392.2" y="177.58" width="15.24" height="6.34"/><rect class="cls-3" x="377.57" y="152.58" width="6.11" height="15.81"/><rect class="cls-3" x="377.57" y="193.11" width="6.11" height="15.81"/><rect class="cls-3" x="500.26" y="140.89" width="6.11" height="22.35"/><rect class="cls-3" x="500.26" y="169.58" width="6.11" height="22.35"/><rect class="cls-3" x="478.71" y="163.24" width="21.54" height="6.34"/><polygon class="cls-3" points="524.86 169.58 525.57 169.58 527.21 169.58 527.21 163.24 525.57 163.24 524.86 163.24 506.37 163.24 506.37 169.58 524.86 169.58"/><rect class="cls-3" x="448.76" y="88.75" width="6.11" height="6.34"/><rect class="cls-3" x="448.76" y="69.73" width="6.11" height="6.34"/><rect class="cls-3" x="439.6" y="79.24" width="6.11" height="6.34"/><rect class="cls-3" x="457.93" y="79.24" width="6.11" height="6.34"/><rect class="cls-3" x="495.69" y="25" width="15.25" height="6.34"/><polygon class="cls-3" points="525.53 15.81 525.57 15.81 525.57 0 525.53 0 524.86 0 520.13 0 520.13 15.81 524.86 15.81 525.53 15.81"/><polygon class="cls-3" points="525.53 56.34 525.57 56.34 525.57 40.52 525.53 40.52 524.86 40.52 520.13 40.52 520.13 56.34 524.86 56.34 525.53 56.34"/><rect class="cls-3" x="230.76" y="148.9" width="17.04" height="6.34"/><rect class="cls-3" x="260.02" y="148.9" width="17.04" height="6.34"/><rect class="cls-3" x="250.85" y="128.05" width="6.11" height="17.68"/><rect class="cls-3" x="250.85" y="158.4" width="6.11" height="17.68"/><rect class="cls-3" x="348.36" y="53.73" width="6.11" height="22.35"/><rect class="cls-3" x="348.36" y="82.41" width="6.11" height="22.35"/><rect class="cls-3" x="326.81" y="76.07" width="21.54" height="6.34"/><rect class="cls-3" x="354.46" y="76.07" width="21.54" height="6.34"/><rect class="cls-3" x="464.61" y="296.05" width="6.11" height="22.35"/><polygon class="cls-3" points="224.5 325.93 224.5 324.35 215.31 324.35 215.31 325.93 215.31 330.69 224.5 330.69 224.5 325.93"/><rect class="cls-3" x="224.5" y="314.82" width="6.11" height="9.53"/><rect class="cls-3" x="313.63" y="304.41" width="17.04" height="6.34"/><rect class="cls-3" x="342.89" y="304.41" width="17.04" height="6.34"/><rect class="cls-3" x="333.73" y="283.57" width="6.11" height="17.68"/><polygon class="cls-3" points="333.73 328.36 333.73 331.59 339.83 331.59 339.83 328.36 339.83 313.92 333.73 313.92 333.73 328.36"/><polygon class="cls-3" points="74.4 314.82 74.4 317.99 95.94 317.99 95.94 314.82 95.94 311.65 74.4 311.65 74.4 314.82"/><polygon class="cls-3" points="136.69 314.82 136.69 311.65 115.15 311.65 115.15 314.82 115.15 317.99 136.69 317.99 136.69 314.82"/><rect class="cls-3" x="102.49" y="324.78" width="6.11" height="22.35"/><polygon class="cls-3" points="145.76 644.38 145.76 650.71 148 650.71 162.23 650.71 162.23 644.38 148 644.38 145.76 644.38"/><rect class="cls-3" x="26.82" y="395.27" width="6.11" height="9.53"/><rect class="cls-3" x="26.82" y="369.76" width="6.11" height="9.53"/><rect class="cls-3" x="12.98" y="384.11" width="9.19" height="6.34"/><rect class="cls-3" x="37.57" y="384.11" width="9.19" height="6.34"/><rect class="cls-3" x="43.65" y="635.37" width="9.19" height="6.34"/><rect class="cls-3" x="58.95" y="635.37" width="9.19" height="6.34"/><rect class="cls-3" x="52.84" y="641.71" width="6.11" height="9.53"/><rect class="cls-3" x="52.84" y="625.84" width="6.11" height="9.53"/><rect class="cls-3" x="14.63" y="569.22" width="15.24" height="6.34"/><rect class="cls-3" y="544.22" width="6.11" height="15.81"/><rect class="cls-3" y="584.75" width="6.11" height="15.81"/><rect class="cls-3" x="122.69" y="532.54" width="6.11" height="22.35"/><rect class="cls-3" x="122.69" y="561.22" width="6.11" height="22.35"/><rect class="cls-3" x="101.14" y="554.88" width="21.54" height="6.34"/><rect class="cls-3" x="77.3" y="485.32" width="6.11" height="6.34"/><rect class="cls-3" x="77.3" y="466.31" width="6.11" height="6.34"/><rect class="cls-3" x="68.14" y="475.82" width="6.11" height="6.34"/><rect class="cls-3" x="86.47" y="475.82" width="6.11" height="6.34"/><rect class="cls-3" x="58.95" y="716.83" width="21.54" height="3.17"/><rect class="cls-3" x="99.7" y="716.83" width="21.54" height="3.17"/><rect class="cls-3" x="87.04" y="687.69" width="6.11" height="22.35"/><polygon class="cls-3" points="153.4 382.13 147.29 382.13 147.29 388.54 147.29 404.48 153.4 404.48 153.4 388.54 153.4 382.13"/><rect class="cls-3" x="147.29" y="410.82" width="6.11" height="22.35"/><rect class="cls-3" x="125.74" y="404.48" width="21.54" height="6.34"/><rect class="cls-3" x="153.4" y="404.48" width="21.54" height="6.34"/><polygon class="cls-3" points="150.34 561.22 150.34 554.88 148 554.88 128.8 554.88 128.8 561.22 148 561.22 150.34 561.22"/><polygon class="cls-3" points="458.06 328.36 458.06 325.19 436.52 325.19 436.52 328.36 436.52 331.53 458.06 331.53 458.06 328.36"/><polygon class="cls-3" points="498.81 328.36 498.81 325.19 477.27 325.19 477.27 328.36 477.27 331.53 498.81 331.53 498.81 328.36"/><rect class="cls-3" x="464.61" y="338.32" width="6.11" height="22.35"/><rect class="cls-3" x="216.79" y="433.73" width="21.54" height="6.34"/><rect class="cls-3" x="257.54" y="433.73" width="21.54" height="6.34"/><rect class="cls-3" x="244.88" y="404.59" width="6.11" height="22.35"/><rect class="cls-3" x="244.88" y="446.86" width="6.11" height="22.35"/><rect class="cls-3" x="169.38" y="619.88" width="6.11" height="17.08"/><rect class="cls-3" x="169.38" y="658.13" width="6.11" height="17.08"/><rect class="cls-3" x="182.63" y="644.38" width="16.47" height="6.34"/><polygon class="cls-3" points="524.86 644.38 523.33 644.38 523.33 650.71 524.86 650.71 525.57 650.71 539.1 650.71 539.1 644.38 525.57 644.38 524.86 644.38"/><rect class="cls-3" x="404.39" y="395.27" width="6.11" height="9.53"/><rect class="cls-3" x="404.39" y="369.76" width="6.11" height="9.53"/><rect class="cls-3" x="390.55" y="384.11" width="9.19" height="6.34"/><rect class="cls-3" x="415.14" y="384.11" width="9.19" height="6.34"/><rect class="cls-3" x="284.54" y="633.77" width="6.11" height="9.53"/><rect class="cls-3" x="284.54" y="608.27" width="6.11" height="9.53"/><rect class="cls-3" x="270.7" y="622.62" width="9.19" height="6.34"/><rect class="cls-3" x="295.29" y="622.62" width="9.19" height="6.34"/><polygon class="cls-3" points="230.61 330.69 239.81 330.69 239.81 325.93 239.81 324.35 230.61 324.35 230.61 325.93 230.61 330.69"/><rect class="cls-3" x="224.5" y="330.69" width="6.11" height="9.53"/><rect class="cls-3" x="421.22" y="635.37" width="9.19" height="6.34"/><rect class="cls-3" x="436.52" y="635.37" width="9.19" height="6.34"/><rect class="cls-3" x="430.41" y="641.71" width="6.11" height="9.53"/><rect class="cls-3" x="430.41" y="625.84" width="6.11" height="9.53"/><rect class="cls-3" x="163.36" y="488.85" width="6.11" height="6.34"/><rect class="cls-3" x="175.58" y="488.85" width="6.11" height="6.34"/><rect class="cls-3" x="169.47" y="495.18" width="6.11" height="6.34"/><rect class="cls-3" x="169.47" y="482.51" width="6.11" height="6.34"/><rect class="cls-3" x="317.65" y="382.14" width="6.11" height="6.34"/><rect class="cls-3" x="329.87" y="382.14" width="6.11" height="6.34"/><rect class="cls-3" x="323.76" y="388.47" width="6.11" height="6.34"/><rect class="cls-3" x="323.76" y="375.8" width="6.11" height="6.34"/><rect class="cls-3" x="353.13" y="569.22" width="15.25" height="6.34"/><rect class="cls-3" x="392.2" y="569.22" width="15.24" height="6.34"/><rect class="cls-3" x="377.57" y="544.22" width="6.11" height="15.81"/><rect class="cls-3" x="377.57" y="584.75" width="6.11" height="15.81"/><rect class="cls-3" x="500.26" y="532.54" width="6.11" height="22.35"/><rect class="cls-3" x="500.26" y="561.22" width="6.11" height="22.35"/><rect class="cls-3" x="478.71" y="554.88" width="21.54" height="6.34"/><polygon class="cls-3" points="525.57 561.22 527.21 561.22 527.21 554.88 525.57 554.88 524.86 554.88 506.37 554.88 506.37 561.22 524.86 561.22 525.57 561.22"/><rect class="cls-3" x="448.76" y="480.39" width="6.11" height="6.34"/><rect class="cls-3" x="448.76" y="461.38" width="6.11" height="6.34"/><rect class="cls-3" x="439.6" y="470.88" width="6.11" height="6.34"/><rect class="cls-3" x="457.93" y="470.88" width="6.11" height="6.34"/><rect class="cls-3" x="495.69" y="416.64" width="15.25" height="6.34"/><polygon class="cls-3" points="525.57 391.64 525.53 391.64 524.86 391.64 520.13 391.64 520.13 407.45 524.86 407.45 525.53 407.45 525.57 407.45 525.57 391.64"/><polygon class="cls-3" points="524.86 432.16 520.13 432.16 520.13 447.98 524.86 447.98 525.53 447.98 525.57 447.98 525.57 432.16 525.53 432.16 524.86 432.16"/><rect class="cls-3" x="230.76" y="540.54" width="17.04" height="6.34"/><rect class="cls-3" x="260.02" y="540.54" width="17.04" height="6.34"/><rect class="cls-3" x="250.85" y="519.69" width="6.11" height="17.68"/><rect class="cls-3" x="250.85" y="550.05" width="6.11" height="17.68"/><rect class="cls-3" x="191.03" y="713.6" width="6.11" height="6.4"/><rect class="cls-3" x="348.36" y="445.37" width="6.11" height="22.35"/><rect class="cls-3" x="348.36" y="474.05" width="6.11" height="22.35"/><rect class="cls-3" x="326.81" y="467.71" width="21.54" height="6.34"/><rect class="cls-3" x="354.46" y="467.71" width="21.54" height="6.34"/><rect class="cls-3" x="436.52" y="716.83" width="21.54" height="3.17"/><rect class="cls-3" x="477.27" y="716.83" width="21.54" height="3.17"/><rect class="cls-3" x="464.61" y="687.69" width="6.11" height="22.35"/><rect class="cls-3" x="253.91" y="718.42" width="9.19" height="1.58"/><rect class="cls-3" x="269.21" y="718.42" width="9.19" height="1.58"/><rect class="cls-3" x="263.1" y="708.89" width="6.11" height="9.53"/><rect class="cls-3" x="313.63" y="696.05" width="17.04" height="6.34"/><rect class="cls-3" x="342.89" y="696.05" width="17.04" height="6.34"/><rect class="cls-3" x="333.73" y="675.21" width="6.11" height="17.68"/><rect class="cls-3" x="333.73" y="705.56" width="6.11" height="14.44"/></g><path class="cls-4" d="M726.81,575.25a35.7,35.7,0,0,1-35.66-35.66V407.31a136.69,136.69,0,0,1-50.87,9.85c-75.1,0-136.19-61.1-136.19-136.2A134.49,134.49,0,0,1,544,185a138.27,138.27,0,0,1,96.17-40.23l3.1,0c45.33,0,79.87,13.64,102.65,40.53,19.76,23.33,29.78,55.4,29.78,95.33,0,1.44,0,2.95.1,4.54a78.89,78.89,0,0,1-.1,10.41v244A35.7,35.7,0,0,1,740,575.25Zm-86.42-348c-30.2.41-53.86,24-53.86,53.75a53.81,53.81,0,0,0,53.75,53.74c15.33,0,29.33-5.66,39.4-16,9.7-9.9,14.66-22.9,14.34-37.6-.76-35.79-18.35-53.93-52.3-53.93Z"/><path class="cls-5" d="M726.81,575.25a35.7,35.7,0,0,1-35.66-35.66V407.31a136.69,136.69,0,0,1-50.87,9.85c-75.1,0-136.19-61.1-136.19-136.2A134.49,134.49,0,0,1,544,185a138.27,138.27,0,0,1,96.17-40.23l3.1,0c45.33,0,79.87,13.64,102.65,40.53,19.76,23.33,29.78,55.4,29.78,95.33,0,1.44,0,2.95.1,4.54a78.89,78.89,0,0,1-.1,10.41v244A35.7,35.7,0,0,1,740,575.25Zm-86.42-348c-30.2.41-53.86,24-53.86,53.75a53.81,53.81,0,0,0,53.75,53.74c15.33,0,29.33-5.66,39.4-16,9.7-9.9,14.66-22.9,14.34-37.6-.76-35.79-18.35-53.93-52.3-53.93Z"/><path class="cls-6" d="M767.16,280.61c0-70.51-33.44-128.58-126.88-127.31-70.5.95-127.67,57.16-127.67,127.66A127.7,127.7,0,0,0,699.68,394v145.6a27.13,27.13,0,0,0,27.13,27.13H740a27.12,27.12,0,0,0,27.13-27.13V295.12C767.67,290.47,767.16,285.4,767.16,280.61ZM640.28,343.23A62.27,62.27,0,0,1,578,281c0-34.39,27.88-61.8,62.27-62.27,45.58-.62,61.54,27.89,62.27,62.27C703.33,317.69,674.67,343.23,640.28,343.23Z"/><text class="cls-7" transform="translate(900.64 666.81)">9 mush<tspan class="cls-8" x="141.25" y="0">r</tspan><tspan x="156.68" y="0">ooms</tspan></text><path class="cls-9" d="M944.51,411.75c-2.08,0-4.07-.1-6.09-.3-11-1.1-14-7.23-14.84-10.78-1.15-4.93.07-9.79,1.3-13.95.43-1.47.93-3,1.51-4.52a39.44,39.44,0,0,1-6,.48,30.49,30.49,0,0,1-5-.41l-.85,0c-5.77-.34-10-3.08-11.52-7.5-2.09-6.08,2-11.25,3.79-13.46,3.36-4.19,6.36-8.08,9.16-11.88.54-.74,1.11-1.49,1.69-2.25a42.22,42.22,0,0,0,5.09-7.76c.27-.6.49-1.18.69-1.73,1.19-3.12,3-7.83,9.83-9.78a33.41,33.41,0,0,1,6.79-1.2l.23,0,.62,0c.56,0,1.13,0,1.7,0a32.47,32.47,0,0,1,4.94.37c1,.12,1.87.27,2.71.45,1.56.31,10.09,2.35,18.49,11.44,1,1.05,7.84,8.3,11,14.86,3.69,6.73,4.7,12.71,3,17.76-1,2.88-3.31,6.84-9,9.45l-.48.25-.38.1a10.1,10.1,0,0,1-1.4.4,14,14,0,0,1-4.27.63h0A30.3,30.3,0,0,1,960,381.2l-.43-.1c.19.45.37.93.54,1.43.37.7.77,1.38,1.16,2.07,1.88,3.3,4,7,4.5,11.79a12.41,12.41,0,0,1-2.84,9.69c-2.92,3.41-7.61,5.22-14.33,5.56C947.14,411.71,945.79,411.75,944.51,411.75Z"/><path class="cls-3" d="M939.19,406.42a60.87,60.87,0,0,1-6.09-.3c-11-1.1-14-7.22-14.85-10.77-1.15-4.93.07-9.79,1.3-14,.43-1.47.93-3,1.51-4.51a40.77,40.77,0,0,1-6,.47,30.52,30.52,0,0,1-5-.41c-.28,0-.56,0-.85,0-5.77-.34-10-3.08-11.52-7.5-2.09-6.08,2-11.25,3.8-13.46,3.36-4.19,6.35-8.07,9.15-11.88.54-.74,1.11-1.49,1.69-2.24a42.91,42.91,0,0,0,5.09-7.76c.27-.61.49-1.19.7-1.74,1.19-3.11,3-7.82,9.82-9.78a34.11,34.11,0,0,1,6.79-1.2l.24,0,.61,0c.57,0,1.13,0,1.7,0a32.47,32.47,0,0,1,4.94.37c1,.12,1.87.27,2.71.45,1.56.31,10.1,2.35,18.49,11.44,1,1.05,7.84,8.3,11,14.86,3.69,6.73,4.7,12.71,3,17.76-1,2.88-3.32,6.84-9,9.45l-.48.25-.38.11a10.05,10.05,0,0,1-1.4.39,14,14,0,0,1-4.27.63h0a30.12,30.12,0,0,1-7.1-1.08l-.44-.1c.19.45.38.93.54,1.43.38.7.77,1.38,1.16,2.07,1.88,3.3,4,7.05,4.51,11.79a12.45,12.45,0,0,1-2.85,9.69c-2.92,3.41-7.61,5.23-14.33,5.56C941.81,406.38,940.46,406.42,939.19,406.42Z"/><path class="cls-10" d="M965.56,369.82l-.08,0a3,3,0,0,1-1.67.24,4.41,4.41,0,0,0,2.81-2.14c1.86-3.26-.06-8.4-2-11-3.21-4.27-7.76-6.39-13.78-6.39a40.12,40.12,0,0,0-11.71,2.05c-1.83.57-3.69,1.13-5.49,1.67-3.75,1.13-7.64,2.29-11.41,3.61-.91.31-1.87.62-2.88.94-3.81,1.22-8.14,2.6-11,5.06-1.3,1.13-1.85,2.39-1.54,3.57.38,1.38,1.87,2.48,3.89,2.87l.12,0-.16.2c-.32,0-.65,0-1,0-2.34-.14-5.11-.89-5.92-3.22-.92-2.68,1.22-5.46,2.75-7.38q4.77-5.94,9.31-12.08c2.59-3.52,5.72-7.21,7.49-11.22,1.66-3.79,1.79-6.62,6.42-7.94a26.36,26.36,0,0,1,24.61,5.22C961.56,340.23,982,362.49,965.56,369.82Z"/><path class="cls-11" d="M964.78,356.81c-6.29-8.36-16.9-7.16-25.74-4.41-5.65,1.75-11.32,3.32-16.91,5.27-4.43,1.55-10.31,2.92-13.94,6.05-3.35,2.89-1.33,6.11,2.46,6.83,5,1,10.16.07,15-1.14a58.76,58.76,0,0,1,6-1.17l.29,0a49.74,49.74,0,0,0-2.22,4.5,80.43,80.43,0,0,0-4.05,10.5c-1,3.33-2,7.22-1.2,10.69,1,4.21,5.48,5.49,9.25,5.87a59.9,59.9,0,0,0,9.27.16c5.18-.25,11.8-1.65,11.13-8.2-.64-6.17-5.62-10.79-7.11-16.75a20.63,20.63,0,0,1-.61-5.8c0-.4,0-.8,0-1.19l.22,0a75.11,75.11,0,0,1,8.22,1.33c3.61.79,9.6,2.85,12-1.27C968.7,364.78,966.88,359.61,964.78,356.81Z"/><path class="cls-12" d="M956.4,357.66c-4.25-5.66-11.42-4.84-17.4-3-3.81,1.19-7.65,2.25-11.43,3.57-3,1.05-7,2-9.42,4.09-2.27,1.95-.9,4.13,1.66,4.62a24,24,0,0,0,10.15-.77c1.36-.34,2.71-.6,4-.8l.2,0a33.17,33.17,0,0,0-1.5,3,54,54,0,0,0-2.74,7.1c-.66,2.25-1.36,4.88-.81,7.22.66,2.85,3.71,3.71,6.26,4a39.71,39.71,0,0,0,6.26.11c3.5-.17,8-1.12,7.52-5.55-.43-4.17-3.8-7.29-4.8-11.31A13.69,13.69,0,0,1,944,366c0-.27,0-.54,0-.8l.15,0a49.66,49.66,0,0,1,5.55.9c2.45.53,6.49,1.93,8.08-.86C959.05,363,957.82,359.55,956.4,357.66Z"/><path class="cls-13" d="M947.2,360.22c1.18,2.1-.7,7.77-.77,7.76,0,.39,0,.79,0,1.19A20.63,20.63,0,0,0,947,375c1.49,6,6.47,10.58,7.11,16.75.67,6.55-6,7.95-11.13,8.2a59.9,59.9,0,0,1-9.27-.16c-3.77-.38-8.27-1.66-9.25-5.87-.81-3.47.22-7.36,1.2-10.69a80.43,80.43,0,0,1,4.05-10.5,49.74,49.74,0,0,1,2.22-4.5c-.09,0,2.84-7.33,2.75-7.31S941.79,350.55,947.2,360.22Z"/><path class="cls-14" d="M935.45,361.07s6.31-9.67,11.72,0c1.17,2.09-.67,6.92-.74,6.91,0,.39,0,.79,0,1.19A20.63,20.63,0,0,0,947,375c1.49,6,5.91,10.83,6.54,17,.68,6.55-5.47,7.2-10.65,7.46,0,0,5.55-4.21.4-19,0,0-1.23-10,.12-14.44S941.16,358.41,935.45,361.07Z"/><path class="cls-15" d="M928.2,329.86a30.4,30.4,0,0,1,7.37-2.18,37.12,37.12,0,0,1,8.08.65s7.55,1.34,15.11,9.55c0,0,7.68,8,10.23,14,0,0,6.58,11.15-1.75,16.24,0,0,5.65-3.72.37-15.19,0,0-6.09-10.51-10-13.83,0,0-8.41-8.59-13.76-9.38a17.84,17.84,0,0,1-1.8-.33,12.58,12.58,0,0,0-6.8-.32A10.33,10.33,0,0,0,928.2,329.86Z"/><path class="cls-16" d="M905.66,363.2s7.8-10.53,12.06-15.94c3.46-4.38,5-7.8,6.56-9.33,0,0-.17,3.75-6.21,11.16C915.82,351.84,909.93,359.23,905.66,363.2Z"/><path class="cls-9" d="M1035.09,411.75c-2.08,0-4.08-.1-6.09-.3-11-1.1-14-7.23-14.85-10.78-1.15-4.93.07-9.79,1.3-13.95.44-1.47.94-3,1.51-4.52a39.31,39.31,0,0,1-6,.48,30.52,30.52,0,0,1-5-.41l-.85,0c-5.77-.34-10-3.08-11.52-7.5-2.09-6.08,2-11.25,3.8-13.46,3.36-4.19,6.35-8.08,9.15-11.88.55-.74,1.11-1.49,1.69-2.25a42.83,42.83,0,0,0,5.1-7.76c.26-.6.48-1.18.69-1.73,1.19-3.12,3-7.83,9.82-9.78a33.38,33.38,0,0,1,6.8-1.2l.23,0,.61,0c.57,0,1.14,0,1.7,0a32.47,32.47,0,0,1,4.94.37c1,.12,1.87.27,2.71.45,1.57.31,10.1,2.35,18.49,11.44,1,1.05,7.85,8.3,11,14.86,3.68,6.73,4.69,12.71,3,17.76-1,2.88-3.32,6.84-9,9.45l-.48.25-.37.1a9.85,9.85,0,0,1-1.41.4,13.9,13.9,0,0,1-4.27.63h0a30.21,30.21,0,0,1-7.1-1.08l-.43-.1c.19.45.37.93.53,1.43.38.7.77,1.38,1.16,2.07,1.89,3.3,4,7,4.51,11.79a12.49,12.49,0,0,1-2.84,9.69c-2.93,3.41-7.62,5.22-14.33,5.56C1037.71,411.71,1036.36,411.75,1035.09,411.75Z"/><path class="cls-3" d="M1029.76,406.42c-2.08,0-4.07-.1-6.09-.3-11-1.1-14-7.22-14.85-10.77-1.15-4.93.07-9.79,1.31-14,.43-1.47.93-3,1.51-4.51a40.8,40.8,0,0,1-6,.47,30.49,30.49,0,0,1-5-.41c-.28,0-.57,0-.86,0-5.77-.34-10-3.08-11.52-7.5-2.09-6.08,2-11.25,3.8-13.46,3.36-4.19,6.35-8.07,9.15-11.88.55-.74,1.12-1.49,1.69-2.24a42.46,42.46,0,0,0,5.1-7.76c.26-.61.48-1.19.69-1.74,1.19-3.11,3-7.82,9.82-9.78a34.21,34.21,0,0,1,6.8-1.2l.23,0,.61,0c.57,0,1.14,0,1.71,0a32.66,32.66,0,0,1,4.94.37c1,.12,1.86.27,2.71.45,1.56.31,10.09,2.35,18.48,11.44,1,1.05,7.85,8.3,11,14.86,3.68,6.73,4.69,12.71,3,17.76-1,2.88-3.32,6.84-9,9.45l-.48.25-.37.11a9.81,9.81,0,0,1-1.41.39,13.86,13.86,0,0,1-4.27.63h0a30.29,30.29,0,0,1-7.1-1.08l-.43-.1c.19.45.37.93.54,1.43.37.7.76,1.38,1.15,2.07,1.89,3.3,4,7.05,4.51,11.79a12.45,12.45,0,0,1-2.84,9.69c-2.93,3.41-7.61,5.23-14.33,5.56C1032.38,406.38,1031,406.42,1029.76,406.42Z"/><path class="cls-10" d="M1056.14,369.82l-.08,0a3,3,0,0,1-1.67.24,4.41,4.41,0,0,0,2.81-2.14c1.86-3.26-.06-8.4-2-11-3.21-4.27-7.77-6.39-13.79-6.39a40.23,40.23,0,0,0-11.71,2.05c-1.82.57-3.68,1.13-5.48,1.67-3.76,1.13-7.64,2.29-11.42,3.61-.91.31-1.86.62-2.87.94-3.82,1.22-8.14,2.6-11,5.06-1.31,1.13-1.86,2.39-1.54,3.57.37,1.38,1.86,2.48,3.89,2.87l.11,0-.15.2c-.33,0-.66,0-1,0-2.33-.14-5.11-.89-5.91-3.22-.92-2.68,1.22-5.46,2.75-7.38q4.77-5.94,9.3-12.08c2.59-3.52,5.73-7.21,7.49-11.22,1.67-3.79,1.8-6.62,6.42-7.94a26.36,26.36,0,0,1,24.61,5.22C1052.14,340.23,1072.58,362.49,1056.14,369.82Z"/><path class="cls-11" d="M1055.36,356.81c-6.3-8.36-16.91-7.16-25.74-4.41-5.65,1.75-11.32,3.32-16.91,5.27-4.44,1.55-10.32,2.92-13.94,6.05-3.36,2.89-1.34,6.11,2.46,6.83,5,1,10.15.07,15-1.14a59.48,59.48,0,0,1,6-1.17l.29,0a45,45,0,0,0-2.22,4.5,79,79,0,0,0-4,10.5c-1,3.33-2,7.22-1.21,10.69,1,4.21,5.49,5.49,9.26,5.87a59.75,59.75,0,0,0,9.26.16c5.18-.25,11.81-1.65,11.13-8.2-.63-6.17-5.62-10.79-7.1-16.75a19.92,19.92,0,0,1-.61-5.8c0-.4,0-.8,0-1.19l.23,0a75.5,75.5,0,0,1,8.22,1.33c3.61.79,9.59,2.85,11.94-1.27C1059.27,364.78,1057.46,359.61,1055.36,356.81Z"/><path class="cls-12" d="M1047,357.66c-4.26-5.66-11.43-4.84-17.4-3-3.82,1.19-7.65,2.25-11.43,3.57-3,1.05-7,2-9.42,4.09-2.27,1.95-.91,4.13,1.66,4.62a24,24,0,0,0,10.14-.77c1.36-.34,2.72-.6,4.06-.8l.2,0a30.78,30.78,0,0,0-1.5,3,52.59,52.59,0,0,0-2.74,7.1c-.67,2.25-1.36,4.88-.82,7.22.67,2.85,3.71,3.71,6.26,4a39.73,39.73,0,0,0,6.26.11c3.51-.17,8-1.12,7.53-5.55-.43-4.17-3.8-7.29-4.81-11.31a13.69,13.69,0,0,1-.41-3.93c0-.27,0-.54,0-.8l.15,0a49.83,49.83,0,0,1,5.56.9c2.44.53,6.49,1.93,8.08-.86C1049.63,363,1048.4,359.55,1047,357.66Z"/><path class="cls-13" d="M1037.78,360.22c1.17,2.1-.7,7.77-.78,7.76,0,.39,0,.79,0,1.19a19.92,19.92,0,0,0,.61,5.8c1.48,6,6.47,10.58,7.1,16.75.68,6.55-6,7.95-11.13,8.2a59.75,59.75,0,0,1-9.26-.16c-3.77-.38-8.28-1.66-9.26-5.87-.81-3.47.22-7.36,1.21-10.69a79,79,0,0,1,4-10.5,45,45,0,0,1,2.22-4.5c-.1,0,2.84-7.33,2.74-7.31S1032.37,350.55,1037.78,360.22Z"/><path class="cls-14" d="M1026,361.07s6.31-9.67,11.72,0c1.18,2.09-.66,6.92-.74,6.91,0,.39,0,.79,0,1.19a19.92,19.92,0,0,0,.61,5.8c1.48,6,5.9,10.83,6.54,17,.67,6.55-5.48,7.2-10.66,7.46,0,0,5.56-4.21.41-19,0,0-1.23-10,.11-14.44S1031.73,358.41,1026,361.07Z"/><path class="cls-15" d="M1018.78,329.86a30.21,30.21,0,0,1,7.37-2.18,37,37,0,0,1,8.07.65s7.56,1.34,15.12,9.55c0,0,7.68,8,10.22,14,0,0,6.59,11.15-1.75,16.24,0,0,5.66-3.72.37-15.19,0,0-6.09-10.51-10-13.83,0,0-8.42-8.59-13.77-9.38a18.17,18.17,0,0,1-1.79-.33,12.63,12.63,0,0,0-6.81-.32A10.3,10.3,0,0,0,1018.78,329.86Z"/><path class="cls-16" d="M996.23,363.2s7.8-10.53,12.07-15.94c3.46-4.38,5-7.8,6.55-9.33,0,0-.16,3.75-6.21,11.16C1006.39,351.84,1000.51,359.23,996.23,363.2Z"/><path class="cls-9" d="M1125.66,411.75c-2.08,0-4.07-.1-6.09-.3-11-1.1-14-7.23-14.84-10.78-1.15-4.93.07-9.79,1.3-13.95.43-1.47.93-3,1.51-4.52a39.44,39.44,0,0,1-6,.48,30.49,30.49,0,0,1-5-.41l-.85,0c-5.77-.34-10-3.08-11.52-7.5-2.09-6.08,2-11.25,3.79-13.46,3.36-4.19,6.35-8.08,9.16-11.88.54-.74,1.11-1.49,1.69-2.25a42.22,42.22,0,0,0,5.09-7.76c.27-.6.49-1.18.69-1.73,1.19-3.12,3-7.83,9.83-9.78a33.41,33.41,0,0,1,6.79-1.2l.23,0,.62,0c.56,0,1.13,0,1.7,0a32.47,32.47,0,0,1,4.94.37c1,.12,1.87.27,2.71.45,1.56.31,10.09,2.35,18.49,11.44,1,1.05,7.84,8.3,11,14.86,3.69,6.73,4.7,12.71,3,17.76-1,2.88-3.31,6.84-9,9.45l-.48.25-.38.1a10.1,10.1,0,0,1-1.4.4,14,14,0,0,1-4.27.63h0a30.3,30.3,0,0,1-7.11-1.08l-.43-.1c.19.45.37.93.54,1.43.37.7.77,1.38,1.16,2.07,1.88,3.3,4,7,4.5,11.79a12.41,12.41,0,0,1-2.84,9.69c-2.92,3.41-7.61,5.22-14.33,5.56C1128.29,411.71,1126.94,411.75,1125.66,411.75Z"/><path class="cls-3" d="M1120.34,406.42a60.87,60.87,0,0,1-6.09-.3c-11-1.1-14-7.22-14.85-10.77-1.15-4.93.07-9.79,1.3-14,.43-1.47.93-3,1.51-4.51a40.77,40.77,0,0,1-6,.47,30.52,30.52,0,0,1-5-.41c-.28,0-.56,0-.85,0-5.77-.34-10-3.08-11.52-7.5-2.09-6.08,2-11.25,3.79-13.46,3.37-4.19,6.36-8.07,9.16-11.88.54-.74,1.11-1.49,1.69-2.24a42.91,42.91,0,0,0,5.09-7.76c.27-.61.49-1.19.7-1.74,1.19-3.11,3-7.82,9.82-9.78a34.11,34.11,0,0,1,6.79-1.2l.24,0,.61,0c.57,0,1.13,0,1.7,0a32.47,32.47,0,0,1,4.94.37c1,.12,1.87.27,2.71.45,1.56.31,10.1,2.35,18.49,11.44,1,1.05,7.84,8.3,11,14.86,3.69,6.73,4.7,12.71,3,17.76-1,2.88-3.32,6.84-9,9.45l-.48.25-.38.11a10.05,10.05,0,0,1-1.4.39,14,14,0,0,1-4.27.63h0a30.12,30.12,0,0,1-7.1-1.08l-.44-.1c.19.45.38.93.54,1.43.38.7.77,1.38,1.16,2.07,1.88,3.3,4,7.05,4.51,11.79a12.45,12.45,0,0,1-2.85,9.69c-2.92,3.41-7.61,5.23-14.33,5.56C1123,406.38,1121.61,406.42,1120.34,406.42Z"/><path class="cls-10" d="M1146.71,369.82l-.08,0a3,3,0,0,1-1.67.24,4.41,4.41,0,0,0,2.81-2.14c1.86-3.26-.06-8.4-2-11-3.21-4.27-7.76-6.39-13.78-6.39a40.12,40.12,0,0,0-11.71,2.05c-1.83.57-3.69,1.13-5.49,1.67-3.75,1.13-7.64,2.29-11.41,3.61-.91.31-1.87.62-2.88.94-3.81,1.22-8.14,2.6-11,5.06-1.3,1.13-1.85,2.39-1.54,3.57.38,1.38,1.87,2.48,3.89,2.87l.12,0-.16.2c-.32,0-.66,0-1,0-2.34-.14-5.11-.89-5.92-3.22-.92-2.68,1.22-5.46,2.75-7.38q4.77-5.94,9.31-12.08c2.59-3.52,5.72-7.21,7.49-11.22,1.66-3.79,1.79-6.62,6.42-7.94a26.36,26.36,0,0,1,24.61,5.22C1142.71,340.23,1163.16,362.49,1146.71,369.82Z"/><path class="cls-11" d="M1145.93,356.81c-6.29-8.36-16.9-7.16-25.74-4.41-5.65,1.75-11.32,3.32-16.91,5.27-4.43,1.55-10.31,2.92-13.94,6.05-3.35,2.89-1.33,6.11,2.46,6.83,5,1,10.16.07,15-1.14a58.76,58.76,0,0,1,6-1.17l.29,0a49.74,49.74,0,0,0-2.22,4.5,80.43,80.43,0,0,0-4.05,10.5c-1,3.33-2,7.22-1.2,10.69,1,4.21,5.48,5.49,9.25,5.87a59.9,59.9,0,0,0,9.27.16c5.18-.25,11.8-1.65,11.13-8.2-.64-6.17-5.62-10.79-7.11-16.75a20.63,20.63,0,0,1-.61-5.8c0-.4,0-.8,0-1.19l.22,0a75.11,75.11,0,0,1,8.22,1.33c3.61.79,9.6,2.85,12-1.27C1149.85,364.78,1148,359.61,1145.93,356.81Z"/><path class="cls-12" d="M1137.55,357.66c-4.25-5.66-11.42-4.84-17.4-3-3.81,1.19-7.65,2.25-11.43,3.57-3,1.05-7,2-9.42,4.09-2.27,1.95-.9,4.13,1.66,4.62a24,24,0,0,0,10.15-.77c1.36-.34,2.71-.6,4.05-.8l.2,0a33.17,33.17,0,0,0-1.5,3,54,54,0,0,0-2.74,7.1c-.66,2.25-1.36,4.88-.81,7.22.66,2.85,3.71,3.71,6.26,4a39.71,39.71,0,0,0,6.26.11c3.5-.17,8-1.12,7.52-5.55-.43-4.17-3.8-7.29-4.8-11.31a13.69,13.69,0,0,1-.41-3.93c0-.27,0-.54,0-.8l.15,0a49.66,49.66,0,0,1,5.55.9c2.45.53,6.49,1.93,8.08-.86C1140.2,363,1139,359.55,1137.55,357.66Z"/><path class="cls-13" d="M1128.35,360.22c1.18,2.1-.7,7.77-.77,7.76,0,.39,0,.79,0,1.19a20.63,20.63,0,0,0,.61,5.8c1.49,6,6.47,10.58,7.11,16.75.67,6.55-6,7.95-11.13,8.2a59.9,59.9,0,0,1-9.27-.16c-3.77-.38-8.27-1.66-9.25-5.87-.81-3.47.22-7.36,1.2-10.69a80.43,80.43,0,0,1,4.05-10.5,49.74,49.74,0,0,1,2.22-4.5c-.09,0,2.84-7.33,2.75-7.31S1122.94,350.55,1128.35,360.22Z"/><path class="cls-14" d="M1116.6,361.07s6.31-9.67,11.72,0c1.17,2.09-.67,6.92-.74,6.91,0,.39,0,.79,0,1.19a20.63,20.63,0,0,0,.61,5.8c1.49,6,5.91,10.83,6.54,17,.68,6.55-5.47,7.2-10.65,7.46,0,0,5.55-4.21.4-19,0,0-1.23-10,.12-14.44S1122.31,358.41,1116.6,361.07Z"/><path class="cls-15" d="M1109.35,329.86a30.4,30.4,0,0,1,7.37-2.18,37.12,37.12,0,0,1,8.08.65s7.55,1.34,15.11,9.55c0,0,7.68,8,10.23,14,0,0,6.58,11.15-1.75,16.24,0,0,5.65-3.72.36-15.19,0,0-6.08-10.51-10-13.83,0,0-8.41-8.59-13.76-9.38a17.84,17.84,0,0,1-1.8-.33,12.58,12.58,0,0,0-6.8-.32A10.33,10.33,0,0,0,1109.35,329.86Z"/><path class="cls-16" d="M1086.81,363.2s7.79-10.53,12.06-15.94c3.46-4.38,5-7.8,6.56-9.33,0,0-.17,3.75-6.21,11.16C1097,351.84,1091.08,359.23,1086.81,363.2Z"/><path class="cls-9" d="M944.51,507.65c-2.08,0-4.07-.1-6.09-.3-11-1.1-14-7.22-14.84-10.77-1.15-4.93.07-9.79,1.3-14,.43-1.47.93-3,1.51-4.51a40.8,40.8,0,0,1-6,.47,30.49,30.49,0,0,1-5-.41l-.85,0c-5.77-.35-10-3.09-11.52-7.51-2.09-6.08,2-11.25,3.79-13.45,3.36-4.2,6.36-8.08,9.16-11.89.54-.74,1.11-1.49,1.69-2.24a42.91,42.91,0,0,0,5.09-7.76c.27-.61.49-1.19.69-1.74,1.19-3.11,3-7.82,9.83-9.78a34.11,34.11,0,0,1,6.79-1.2l.23,0,.62,0c.56,0,1.13,0,1.7,0a32.47,32.47,0,0,1,4.94.37c1,.12,1.87.27,2.71.45,1.56.31,10.09,2.35,18.49,11.44,1,1.06,7.84,8.3,11,14.86,3.69,6.73,4.7,12.71,3,17.76-1,2.88-3.31,6.84-9,9.45l-.48.25-.38.11a10.05,10.05,0,0,1-1.4.39,14,14,0,0,1-4.27.63h0A30.3,30.3,0,0,1,960,477.1l-.43-.1c.19.45.37.93.54,1.43.37.7.77,1.39,1.16,2.07,1.88,3.3,4,7.05,4.5,11.79A12.41,12.41,0,0,1,963,502c-2.92,3.41-7.61,5.23-14.33,5.56C947.14,507.61,945.79,507.65,944.51,507.65Z"/><path class="cls-3" d="M939.19,502.32a60.87,60.87,0,0,1-6.09-.3c-11-1.1-14-7.22-14.85-10.77-1.15-4.93.07-9.79,1.3-14,.43-1.47.93-3,1.51-4.51a40.77,40.77,0,0,1-6,.47,30.54,30.54,0,0,1-5-.4l-.85,0c-5.77-.35-10-3.08-11.52-7.51-2.09-6.08,2-11.25,3.8-13.45,3.36-4.2,6.35-8.08,9.15-11.89.54-.74,1.11-1.49,1.69-2.24a42.22,42.22,0,0,0,5.09-7.76c.27-.61.49-1.19.7-1.73,1.19-3.12,3-7.83,9.82-9.79a34.11,34.11,0,0,1,6.79-1.2l.24,0,.61,0c.57,0,1.13,0,1.7,0a32.47,32.47,0,0,1,4.94.37c1,.12,1.87.27,2.71.45,1.56.31,10.1,2.36,18.49,11.44,1,1.06,7.84,8.3,11,14.86,3.69,6.74,4.7,12.71,3,17.76-1,2.88-3.32,6.84-9,9.46l-.48.25-.38.1a8.84,8.84,0,0,1-1.4.39,14,14,0,0,1-4.27.63h0a30.15,30.15,0,0,1-7.1-1.07l-.44-.11c.19.46.38.93.54,1.44.38.69.77,1.38,1.16,2.06,1.88,3.31,4,7.05,4.51,11.8a12.44,12.44,0,0,1-2.85,9.68c-2.92,3.41-7.61,5.23-14.33,5.56C941.81,502.28,940.46,502.32,939.19,502.32Z"/><path class="cls-10" d="M965.56,465.72l-.08,0a3,3,0,0,1-1.67.24,4.43,4.43,0,0,0,2.81-2.13c1.86-3.27-.06-8.4-2-11-3.21-4.26-7.76-6.38-13.78-6.38a39.79,39.79,0,0,0-11.71,2c-1.83.57-3.69,1.12-5.49,1.66-3.75,1.13-7.64,2.29-11.41,3.61-.91.31-1.87.62-2.88.94-3.81,1.22-8.14,2.6-11,5.06-1.3,1.13-1.85,2.4-1.54,3.57.38,1.38,1.87,2.49,3.89,2.87l.12,0-.16.21-1,0c-2.34-.14-5.11-.89-5.92-3.22-.92-2.67,1.22-5.45,2.75-7.37q4.77-6,9.31-12.08c2.59-3.53,5.72-7.21,7.49-11.23,1.66-3.79,1.79-6.62,6.42-7.94a26.36,26.36,0,0,1,24.61,5.22C961.56,436.13,982,458.4,965.56,465.72Z"/><path class="cls-11" d="M964.78,452.71c-6.29-8.36-16.9-7.15-25.74-4.41-5.65,1.76-11.32,3.32-16.91,5.27-4.43,1.55-10.31,2.92-13.94,6.05-3.35,2.9-1.33,6.11,2.46,6.84,5,1,10.16.06,15-1.14q3-.75,6-1.18l.29,0a49.74,49.74,0,0,0-2.22,4.5,80.43,80.43,0,0,0-4.05,10.5c-1,3.33-2,7.22-1.2,10.69,1,4.21,5.48,5.49,9.25,5.87a61.18,61.18,0,0,0,9.27.17c5.18-.26,11.8-1.66,11.13-8.21-.64-6.17-5.62-10.79-7.11-16.74a20.67,20.67,0,0,1-.61-5.81c0-.4,0-.79,0-1.18l.22,0a72.84,72.84,0,0,1,8.22,1.34c3.61.78,9.6,2.85,12-1.28C968.7,460.68,966.88,455.51,964.78,452.71Z"/><path class="cls-12" d="M956.4,453.56c-4.25-5.65-11.42-4.84-17.4-3-3.81,1.18-7.65,2.24-11.43,3.56-3,1.05-7,2-9.42,4.09-2.27,2-.9,4.13,1.66,4.62a23.89,23.89,0,0,0,10.15-.77,39.6,39.6,0,0,1,4-.79l.2,0a33.17,33.17,0,0,0-1.5,3,55.06,55.06,0,0,0-2.74,7.1c-.66,2.25-1.36,4.88-.81,7.23.66,2.84,3.71,3.71,6.26,4a39.71,39.71,0,0,0,6.26.11c3.5-.17,8-1.11,7.52-5.54-.43-4.17-3.8-7.29-4.8-11.32a13.69,13.69,0,0,1-.41-3.93c0-.26,0-.53,0-.8l.15,0a49.66,49.66,0,0,1,5.55.9c2.45.54,6.49,1.93,8.08-.86C959.05,459,957.82,455.45,956.4,453.56Z"/><path class="cls-13" d="M947.2,456.12c1.18,2.1-.7,7.77-.77,7.77,0,.39,0,.78,0,1.18a20.67,20.67,0,0,0,.61,5.81c1.49,5.95,6.47,10.57,7.11,16.74.67,6.55-6,7.95-11.13,8.21a61.18,61.18,0,0,1-9.27-.17c-3.77-.38-8.27-1.66-9.25-5.87-.81-3.47.22-7.36,1.2-10.69a80.43,80.43,0,0,1,4.05-10.5,49.74,49.74,0,0,1,2.22-4.5c-.09,0,2.84-7.32,2.75-7.31S941.79,446.45,947.2,456.12Z"/><path class="cls-14" d="M935.45,457s6.31-9.67,11.72,0c1.17,2.1-.67,6.92-.74,6.92,0,.39,0,.78,0,1.18a20.67,20.67,0,0,0,.61,5.81c1.49,5.95,5.91,10.82,6.54,17,.68,6.55-5.47,7.2-10.65,7.46,0,0,5.55-4.2.4-19,0,0-1.23-10,.12-14.44S941.16,454.31,935.45,457Z"/><path class="cls-15" d="M928.2,425.77a30.66,30.66,0,0,1,7.37-2.19,37.12,37.12,0,0,1,8.08.65s7.55,1.34,15.11,9.56c0,0,7.68,7.95,10.23,14,0,0,6.58,11.16-1.75,16.24,0,0,5.65-3.72.37-15.18,0,0-6.09-10.52-10-13.84,0,0-8.41-8.58-13.76-9.38a17.84,17.84,0,0,1-1.8-.33,12.79,12.79,0,0,0-6.8-.32A10.3,10.3,0,0,0,928.2,425.77Z"/><path class="cls-16" d="M905.66,459.1s7.8-10.52,12.06-15.94c3.46-4.38,5-7.8,6.56-9.33,0,0-.17,3.76-6.21,11.16C915.82,447.75,909.93,455.13,905.66,459.1Z"/><path class="cls-9" d="M1035.09,507.65c-2.08,0-4.08-.1-6.09-.3-11-1.1-14-7.22-14.85-10.77-1.15-4.93.07-9.79,1.3-14,.44-1.47.94-3,1.51-4.51a40.66,40.66,0,0,1-6,.47,30.52,30.52,0,0,1-5-.41l-.85,0c-5.77-.35-10-3.09-11.52-7.51-2.09-6.08,2-11.25,3.8-13.45,3.36-4.2,6.35-8.08,9.15-11.89.55-.74,1.11-1.49,1.69-2.24a43.53,43.53,0,0,0,5.1-7.76c.26-.61.48-1.19.69-1.74,1.19-3.11,3-7.82,9.82-9.78a34.08,34.08,0,0,1,6.8-1.2l.23,0,.61,0c.57,0,1.14,0,1.7,0a32.47,32.47,0,0,1,4.94.37c1,.12,1.87.27,2.71.45,1.57.31,10.1,2.35,18.49,11.44,1,1.06,7.85,8.3,11,14.86,3.68,6.73,4.69,12.71,3,17.76-1,2.88-3.32,6.84-9,9.45l-.48.25-.37.11a9.81,9.81,0,0,1-1.41.39,13.9,13.9,0,0,1-4.27.63h0a30.21,30.21,0,0,1-7.1-1.08l-.43-.1c.19.45.37.93.53,1.43.38.7.77,1.39,1.16,2.07,1.89,3.3,4,7.05,4.51,11.79a12.49,12.49,0,0,1-2.84,9.69c-2.93,3.41-7.62,5.23-14.33,5.56C1037.71,507.61,1036.36,507.65,1035.09,507.65Z"/><path class="cls-3" d="M1029.76,502.32c-2.08,0-4.07-.1-6.09-.3-11-1.1-14-7.22-14.85-10.77-1.15-4.93.07-9.79,1.31-14,.43-1.47.93-3,1.51-4.51a40.8,40.8,0,0,1-6,.47,30.5,30.5,0,0,1-5-.4l-.86,0c-5.77-.35-10-3.08-11.52-7.51-2.09-6.08,2-11.25,3.8-13.45,3.36-4.2,6.35-8.08,9.15-11.89.55-.74,1.12-1.49,1.69-2.24A41.79,41.79,0,0,0,1008,430c.26-.61.48-1.19.69-1.73,1.19-3.12,3-7.83,9.82-9.79a34.21,34.21,0,0,1,6.8-1.2l.23,0,.61,0c.57,0,1.14,0,1.71,0a32.66,32.66,0,0,1,4.94.37c1,.12,1.86.27,2.71.45,1.56.31,10.09,2.36,18.48,11.44,1,1.06,7.85,8.3,11,14.86,3.68,6.74,4.69,12.71,3,17.76-1,2.88-3.32,6.84-9,9.46l-.48.25-.37.1a8.67,8.67,0,0,1-1.41.39,13.86,13.86,0,0,1-4.27.63h0a30.32,30.32,0,0,1-7.1-1.07l-.43-.11c.19.46.37.93.54,1.44.37.69.76,1.38,1.15,2.06,1.89,3.31,4,7.05,4.51,11.8a12.44,12.44,0,0,1-2.84,9.68c-2.93,3.41-7.61,5.23-14.33,5.56C1032.38,502.28,1031,502.32,1029.76,502.32Z"/><path class="cls-10" d="M1056.14,465.72l-.08,0a3,3,0,0,1-1.67.24,4.43,4.43,0,0,0,2.81-2.13c1.86-3.27-.06-8.4-2-11-3.21-4.26-7.77-6.38-13.79-6.38a39.9,39.9,0,0,0-11.71,2c-1.82.57-3.68,1.12-5.48,1.66-3.76,1.13-7.64,2.29-11.42,3.61-.91.31-1.86.62-2.87.94-3.82,1.22-8.14,2.6-11,5.06-1.31,1.13-1.86,2.4-1.54,3.57.37,1.38,1.86,2.49,3.89,2.87l.11,0-.15.21-1,0c-2.33-.14-5.11-.89-5.91-3.22-.92-2.67,1.22-5.45,2.75-7.37q4.77-6,9.3-12.08c2.59-3.53,5.73-7.21,7.49-11.23,1.67-3.79,1.8-6.62,6.42-7.94a26.36,26.36,0,0,1,24.61,5.22C1052.14,436.13,1072.58,458.4,1056.14,465.72Z"/><path class="cls-11" d="M1055.36,452.71c-6.3-8.36-16.91-7.15-25.74-4.41-5.65,1.76-11.32,3.32-16.91,5.27-4.44,1.55-10.32,2.92-13.94,6.05-3.36,2.9-1.34,6.11,2.46,6.84,5,1,10.15.06,15-1.14q3-.75,6-1.18l.29,0a45,45,0,0,0-2.22,4.5,79,79,0,0,0-4,10.5c-1,3.33-2,7.22-1.21,10.69,1,4.21,5.49,5.49,9.26,5.87a61,61,0,0,0,9.26.17c5.18-.26,11.81-1.66,11.13-8.21-.63-6.17-5.62-10.79-7.1-16.74a20,20,0,0,1-.61-5.81c0-.4,0-.79,0-1.18l.23,0a73.21,73.21,0,0,1,8.22,1.34c3.61.78,9.59,2.85,11.94-1.28C1059.27,460.68,1057.46,455.51,1055.36,452.71Z"/><path class="cls-12" d="M1047,453.56c-4.26-5.65-11.43-4.84-17.4-3-3.82,1.18-7.65,2.24-11.43,3.56-3,1.05-7,2-9.42,4.09-2.27,2-.91,4.13,1.66,4.62a23.84,23.84,0,0,0,10.14-.77,39.79,39.79,0,0,1,4.06-.79l.2,0a30.78,30.78,0,0,0-1.5,3,53.63,53.63,0,0,0-2.74,7.1c-.67,2.25-1.36,4.88-.82,7.23.67,2.84,3.71,3.71,6.26,4a39.73,39.73,0,0,0,6.26.11c3.51-.17,8-1.11,7.53-5.54-.43-4.17-3.8-7.29-4.81-11.32a13.69,13.69,0,0,1-.41-3.93c0-.26,0-.53,0-.8l.15,0a49.83,49.83,0,0,1,5.56.9c2.44.54,6.49,1.93,8.08-.86C1049.63,459,1048.4,455.45,1047,453.56Z"/><path class="cls-13" d="M1037.78,456.12c1.17,2.1-.7,7.77-.78,7.77,0,.39,0,.78,0,1.18a20,20,0,0,0,.61,5.81c1.48,5.95,6.47,10.57,7.1,16.74.68,6.55-6,7.95-11.13,8.21a61,61,0,0,1-9.26-.17c-3.77-.38-8.28-1.66-9.26-5.87-.81-3.47.22-7.36,1.21-10.69a79,79,0,0,1,4-10.5,45,45,0,0,1,2.22-4.5c-.1,0,2.84-7.32,2.74-7.31S1032.37,446.45,1037.78,456.12Z"/><path class="cls-14" d="M1026,457s6.31-9.67,11.72,0c1.18,2.1-.66,6.92-.74,6.92,0,.39,0,.78,0,1.18a20,20,0,0,0,.61,5.81c1.48,5.95,5.9,10.82,6.54,17,.67,6.55-5.48,7.2-10.66,7.46,0,0,5.56-4.2.41-19,0,0-1.23-10,.11-14.44S1031.73,454.31,1026,457Z"/><path class="cls-15" d="M1018.78,425.77a30.47,30.47,0,0,1,7.37-2.19,37,37,0,0,1,8.07.65s7.56,1.34,15.12,9.56c0,0,7.68,7.95,10.22,14,0,0,6.59,11.16-1.75,16.24,0,0,5.66-3.72.37-15.18,0,0-6.09-10.52-10-13.84,0,0-8.42-8.58-13.77-9.38a18.17,18.17,0,0,1-1.79-.33,12.84,12.84,0,0,0-6.81-.32A10.27,10.27,0,0,0,1018.78,425.77Z"/><path class="cls-16" d="M996.23,459.1s7.8-10.52,12.07-15.94c3.46-4.38,5-7.8,6.55-9.33,0,0-.16,3.76-6.21,11.16C1006.39,447.75,1000.51,455.13,996.23,459.1Z"/><path class="cls-9" d="M1125.66,507.65c-2.08,0-4.07-.1-6.09-.3-11-1.1-14-7.22-14.84-10.77-1.15-4.93.07-9.79,1.3-14,.43-1.47.93-3,1.51-4.51a40.8,40.8,0,0,1-6,.47,30.49,30.49,0,0,1-5-.41l-.85,0c-5.77-.35-10-3.09-11.52-7.51-2.09-6.08,2-11.25,3.79-13.45,3.36-4.2,6.35-8.08,9.16-11.89.54-.74,1.11-1.49,1.69-2.24a42.91,42.91,0,0,0,5.09-7.76c.27-.61.49-1.19.69-1.74,1.19-3.11,3-7.82,9.83-9.78a34.11,34.11,0,0,1,6.79-1.2l.23,0,.62,0c.56,0,1.13,0,1.7,0a32.47,32.47,0,0,1,4.94.37c1,.12,1.87.27,2.71.45,1.56.31,10.09,2.35,18.49,11.44,1,1.06,7.84,8.3,11,14.86,3.69,6.73,4.7,12.71,3,17.76-1,2.88-3.31,6.84-9,9.45l-.48.25-.38.11a10.05,10.05,0,0,1-1.4.39,14,14,0,0,1-4.27.63h0a30.3,30.3,0,0,1-7.11-1.08l-.43-.1c.19.45.37.93.54,1.43.37.7.77,1.39,1.16,2.07,1.88,3.3,4,7.05,4.5,11.79a12.41,12.41,0,0,1-2.84,9.69c-2.92,3.41-7.61,5.23-14.33,5.56C1128.29,507.61,1126.94,507.65,1125.66,507.65Z"/><path class="cls-3" d="M1120.34,502.32a60.87,60.87,0,0,1-6.09-.3c-11-1.1-14-7.22-14.85-10.77-1.15-4.93.07-9.79,1.3-14,.43-1.47.93-3,1.51-4.51a40.77,40.77,0,0,1-6,.47,30.54,30.54,0,0,1-5-.4l-.85,0c-5.77-.35-10-3.08-11.52-7.51-2.09-6.08,2-11.25,3.79-13.45,3.37-4.2,6.36-8.08,9.16-11.89.54-.74,1.11-1.49,1.69-2.24a42.22,42.22,0,0,0,5.09-7.76c.27-.61.49-1.19.7-1.73,1.19-3.12,3-7.83,9.82-9.79a34.11,34.11,0,0,1,6.79-1.2l.24,0,.61,0c.57,0,1.13,0,1.7,0a32.47,32.47,0,0,1,4.94.37c1,.12,1.87.27,2.71.45,1.56.31,10.1,2.36,18.49,11.44,1,1.06,7.84,8.3,11,14.86,3.69,6.74,4.7,12.71,3,17.76-1,2.88-3.32,6.84-9,9.46l-.48.25-.38.1a8.84,8.84,0,0,1-1.4.39,14,14,0,0,1-4.27.63h0a30.15,30.15,0,0,1-7.1-1.07l-.44-.11c.19.46.38.93.54,1.44.38.69.77,1.38,1.16,2.06,1.88,3.31,4,7.05,4.51,11.8a12.44,12.44,0,0,1-2.85,9.68c-2.92,3.41-7.61,5.23-14.33,5.56C1123,502.28,1121.61,502.32,1120.34,502.32Z"/><path class="cls-10" d="M1146.71,465.72l-.08,0a3,3,0,0,1-1.67.24,4.43,4.43,0,0,0,2.81-2.13c1.86-3.27-.06-8.4-2-11-3.21-4.26-7.76-6.38-13.78-6.38a39.79,39.79,0,0,0-11.71,2c-1.83.57-3.69,1.12-5.49,1.66-3.75,1.13-7.64,2.29-11.41,3.61-.91.31-1.87.62-2.88.94-3.81,1.22-8.14,2.6-11,5.06-1.3,1.13-1.85,2.4-1.54,3.57.38,1.38,1.87,2.49,3.89,2.87l.12,0-.16.21-1,0c-2.34-.14-5.11-.89-5.92-3.22-.92-2.67,1.22-5.45,2.75-7.37q4.77-6,9.31-12.08c2.59-3.53,5.72-7.21,7.49-11.23,1.66-3.79,1.79-6.62,6.42-7.94a26.36,26.36,0,0,1,24.61,5.22C1142.71,436.13,1163.16,458.4,1146.71,465.72Z"/><path class="cls-11" d="M1145.93,452.71c-6.29-8.36-16.9-7.15-25.74-4.41-5.65,1.76-11.32,3.32-16.91,5.27-4.43,1.55-10.31,2.92-13.94,6.05-3.35,2.9-1.33,6.11,2.46,6.84,5,1,10.16.06,15-1.14q3-.75,6-1.18l.29,0a49.74,49.74,0,0,0-2.22,4.5,80.43,80.43,0,0,0-4.05,10.5c-1,3.33-2,7.22-1.2,10.69,1,4.21,5.48,5.49,9.25,5.87a61.18,61.18,0,0,0,9.27.17c5.18-.26,11.8-1.66,11.13-8.21-.64-6.17-5.62-10.79-7.11-16.74a20.67,20.67,0,0,1-.61-5.81c0-.4,0-.79,0-1.18l.22,0a72.84,72.84,0,0,1,8.22,1.34c3.61.78,9.6,2.85,12-1.28C1149.85,460.68,1148,455.51,1145.93,452.71Z"/><path class="cls-12" d="M1137.55,453.56c-4.25-5.65-11.42-4.84-17.4-3-3.81,1.18-7.65,2.24-11.43,3.56-3,1.05-7,2-9.42,4.09-2.27,2-.9,4.13,1.66,4.62a23.89,23.89,0,0,0,10.15-.77,39.6,39.6,0,0,1,4.05-.79l.2,0a33.17,33.17,0,0,0-1.5,3,55.06,55.06,0,0,0-2.74,7.1c-.66,2.25-1.36,4.88-.81,7.23.66,2.84,3.71,3.71,6.26,4a39.71,39.71,0,0,0,6.26.11c3.5-.17,8-1.11,7.52-5.54-.43-4.17-3.8-7.29-4.8-11.32a13.69,13.69,0,0,1-.41-3.93c0-.26,0-.53,0-.8l.15,0a49.66,49.66,0,0,1,5.55.9c2.45.54,6.49,1.93,8.08-.86C1140.2,459,1139,455.45,1137.55,453.56Z"/><path class="cls-13" d="M1128.35,456.12c1.18,2.1-.7,7.77-.77,7.77,0,.39,0,.78,0,1.18a20.67,20.67,0,0,0,.61,5.81c1.49,5.95,6.47,10.57,7.11,16.74.67,6.55-6,7.95-11.13,8.21a61.18,61.18,0,0,1-9.27-.17c-3.77-.38-8.27-1.66-9.25-5.87-.81-3.47.22-7.36,1.2-10.69a80.43,80.43,0,0,1,4.05-10.5,49.74,49.74,0,0,1,2.22-4.5c-.09,0,2.84-7.32,2.75-7.31S1122.94,446.45,1128.35,456.12Z"/><path class="cls-14" d="M1116.6,457s6.31-9.67,11.72,0c1.17,2.1-.67,6.92-.74,6.92,0,.39,0,.78,0,1.18a20.67,20.67,0,0,0,.61,5.81c1.49,5.95,5.91,10.82,6.54,17,.68,6.55-5.47,7.2-10.65,7.46,0,0,5.55-4.2.4-19,0,0-1.23-10,.12-14.44S1122.31,454.31,1116.6,457Z"/><path class="cls-15" d="M1109.35,425.77a30.66,30.66,0,0,1,7.37-2.19,37.12,37.12,0,0,1,8.08.65s7.55,1.34,15.11,9.56c0,0,7.68,7.95,10.23,14,0,0,6.58,11.16-1.75,16.24,0,0,5.65-3.72.36-15.18,0,0-6.08-10.52-10-13.84,0,0-8.41-8.58-13.76-9.38a17.84,17.84,0,0,1-1.8-.33,12.79,12.79,0,0,0-6.8-.32A10.3,10.3,0,0,0,1109.35,425.77Z"/><path class="cls-16" d="M1086.81,459.1s7.79-10.52,12.06-15.94c3.46-4.38,5-7.8,6.56-9.33,0,0-.17,3.76-6.21,11.16C1097,447.75,1091.08,455.13,1086.81,459.1Z"/><path class="cls-9" d="M944.51,603.55c-2.08,0-4.07-.1-6.09-.3-11-1.1-14-7.22-14.84-10.77-1.15-4.93.07-9.79,1.3-14,.43-1.47.93-3,1.51-4.51a40.8,40.8,0,0,1-6,.47,30.5,30.5,0,0,1-5-.4l-.85,0c-5.77-.35-10-3.08-11.52-7.51-2.09-6.08,2-11.24,3.79-13.45,3.36-4.2,6.36-8.08,9.16-11.88.54-.75,1.11-1.49,1.69-2.25a42.22,42.22,0,0,0,5.09-7.76c.27-.61.49-1.19.69-1.73,1.19-3.12,3-7.83,9.83-9.79a34.85,34.85,0,0,1,6.79-1.2l.23,0,.62,0c.56,0,1.13,0,1.7,0a33.8,33.8,0,0,1,4.94.37c1,.12,1.87.27,2.71.45,1.56.31,10.09,2.36,18.49,11.44,1,1.06,7.84,8.3,11,14.86,3.69,6.74,4.7,12.71,3,17.76-1,2.88-3.31,6.84-9,9.46l-.48.25-.38.1a10.1,10.1,0,0,1-1.4.4,14.26,14.26,0,0,1-4.27.63h0A30.3,30.3,0,0,1,960,573l-.43-.11q.28.69.54,1.44c.37.69.77,1.38,1.16,2.06,1.88,3.31,4,7.05,4.5,11.8a12.4,12.4,0,0,1-2.84,9.68c-2.92,3.41-7.61,5.23-14.33,5.56C947.14,603.52,945.79,603.55,944.51,603.55Z"/><path class="cls-3" d="M939.19,598.22a58,58,0,0,1-6.09-.3c-11-1.1-14-7.22-14.85-10.77-1.15-4.93.07-9.79,1.3-14q.65-2.19,1.51-4.51a40.77,40.77,0,0,1-6,.47,30.54,30.54,0,0,1-5-.4l-.85,0c-5.77-.35-10-3.08-11.52-7.51-2.09-6.07,2-11.24,3.8-13.45,3.36-4.19,6.35-8.08,9.15-11.88.54-.74,1.11-1.49,1.69-2.25a42.22,42.22,0,0,0,5.09-7.76c.27-.61.49-1.19.7-1.73,1.19-3.12,3-7.83,9.82-9.78a34.12,34.12,0,0,1,6.79-1.21l.24,0,.61,0c.57,0,1.13-.05,1.7-.05a33.8,33.8,0,0,1,4.94.37c1,.13,1.87.27,2.71.46,1.56.31,10.1,2.35,18.49,11.44,1,1.05,7.84,8.29,11,14.85,3.69,6.74,4.7,12.71,3,17.77-1,2.87-3.32,6.84-9,9.45l-.48.25-.38.1a10.1,10.1,0,0,1-1.4.4,14.26,14.26,0,0,1-4.27.63h0a30.12,30.12,0,0,1-7.1-1.08l-.44-.11c.19.46.38.94.54,1.44.38.69.77,1.38,1.16,2.07,1.88,3.3,4,7,4.51,11.79a12.48,12.48,0,0,1-2.85,9.69c-2.92,3.4-7.61,5.22-14.33,5.55C941.81,598.19,940.46,598.22,939.19,598.22Z"/><path class="cls-10" d="M965.56,561.62l-.08,0a2.91,2.91,0,0,1-1.67.24,4.4,4.4,0,0,0,2.81-2.13c1.86-3.27-.06-8.4-2-11-3.21-4.26-7.76-6.38-13.78-6.38a40.12,40.12,0,0,0-11.71,2c-1.83.57-3.69,1.13-5.49,1.66-3.75,1.13-7.64,2.29-11.41,3.61-.91.32-1.87.62-2.88.94-3.81,1.22-8.14,2.61-11,5.07-1.3,1.12-1.85,2.39-1.54,3.56.38,1.39,1.87,2.49,3.89,2.88l.12,0-.16.2c-.32,0-.65,0-1,0-2.34-.14-5.11-.88-5.92-3.22-.92-2.67,1.22-5.45,2.75-7.37q4.77-6,9.31-12.08c2.59-3.52,5.72-7.21,7.49-11.23,1.66-3.78,1.79-6.61,6.42-7.94a26.33,26.33,0,0,1,24.61,5.23C961.56,532,982,554.3,965.56,561.62Z"/><path class="cls-11" d="M964.78,548.62c-6.29-8.37-16.9-7.16-25.74-4.42-5.65,1.76-11.32,3.32-16.91,5.28-4.43,1.54-10.31,2.92-13.94,6-3.35,2.9-1.33,6.11,2.46,6.84,5,.95,10.16.07,15-1.14a58.76,58.76,0,0,1,6-1.17l.29,0a48.47,48.47,0,0,0-2.22,4.5A80.3,80.3,0,0,0,925.68,575c-1,3.34-2,7.23-1.2,10.7,1,4.2,5.48,5.48,9.25,5.86a58.69,58.69,0,0,0,9.27.17c5.18-.26,11.8-1.66,11.13-8.21-.64-6.17-5.62-10.78-7.11-16.74a20.67,20.67,0,0,1-.61-5.81c0-.39,0-.79,0-1.18l.22,0a75.17,75.17,0,0,1,8.22,1.34c3.61.79,9.6,2.85,12-1.28C968.7,556.59,966.88,551.41,964.78,548.62Z"/><path class="cls-12" d="M956.4,549.46c-4.25-5.65-11.42-4.84-17.4-3-3.81,1.19-7.65,2.25-11.43,3.56-3,1.05-7,2-9.42,4.09-2.27,2-.9,4.13,1.66,4.62A23.73,23.73,0,0,0,930,558a39.6,39.6,0,0,1,4-.79l.2,0a33.17,33.17,0,0,0-1.5,3,55.06,55.06,0,0,0-2.74,7.1c-.66,2.25-1.36,4.88-.81,7.23.66,2.84,3.71,3.71,6.26,4a41,41,0,0,0,6.26.12c3.5-.18,8-1.12,7.52-5.55-.43-4.17-3.8-7.29-4.8-11.32a13.66,13.66,0,0,1-.41-3.92c0-.27,0-.54,0-.8h.15a52.07,52.07,0,0,1,5.55.9c2.45.54,6.49,1.93,8.08-.86C959.05,554.85,957.82,551.35,956.4,549.46Z"/><path class="cls-13" d="M947.2,552c1.18,2.1-.7,7.78-.77,7.77,0,.39,0,.79,0,1.18a20.67,20.67,0,0,0,.61,5.81c1.49,6,6.47,10.57,7.11,16.74.67,6.55-6,8-11.13,8.21a58.69,58.69,0,0,1-9.27-.17c-3.77-.38-8.27-1.66-9.25-5.86-.81-3.47.22-7.36,1.2-10.7a80.3,80.3,0,0,1,4.05-10.49A48.47,48.47,0,0,1,932,560c-.09,0,2.84-7.33,2.75-7.32S941.79,542.36,947.2,552Z"/><path class="cls-14" d="M935.45,552.87s6.31-9.66,11.72,0c1.17,2.1-.67,6.93-.74,6.92,0,.39,0,.79,0,1.18a20.67,20.67,0,0,0,.61,5.81c1.49,6,5.91,10.83,6.54,17,.68,6.56-5.47,7.21-10.65,7.46,0,0,5.55-4.2.4-19,0,0-1.23-10,.12-14.44S941.16,550.21,935.45,552.87Z"/><path class="cls-15" d="M928.2,521.67a30.66,30.66,0,0,1,7.37-2.19,37.84,37.84,0,0,1,8.08.65s7.55,1.34,15.11,9.56c0,0,7.68,7.95,10.23,14,0,0,6.58,11.16-1.75,16.25,0,0,5.65-3.72.37-15.19,0,0-6.09-10.52-10-13.84,0,0-8.41-8.58-13.76-9.37a17.86,17.86,0,0,1-1.8-.34,12.79,12.79,0,0,0-6.8-.32A10.3,10.3,0,0,0,928.2,521.67Z"/><path class="cls-16" d="M905.66,555s7.8-10.52,12.06-15.93c3.46-4.39,5-7.81,6.56-9.34,0,0-.17,3.76-6.21,11.16C915.82,543.65,909.93,551,905.66,555Z"/><path class="cls-9" d="M1035.09,603.55c-2.08,0-4.08-.1-6.09-.3-11-1.1-14-7.22-14.85-10.77-1.15-4.93.07-9.79,1.3-14,.44-1.47.94-3,1.51-4.51a40.66,40.66,0,0,1-6,.47,30.54,30.54,0,0,1-5-.4l-.85,0c-5.77-.35-10-3.08-11.52-7.51-2.09-6.08,2-11.24,3.8-13.45,3.36-4.2,6.35-8.08,9.15-11.88.55-.75,1.11-1.49,1.69-2.25a42.83,42.83,0,0,0,5.1-7.76c.26-.61.48-1.19.69-1.73,1.19-3.12,3-7.83,9.82-9.79a34.81,34.81,0,0,1,6.8-1.2l.23,0,.61,0c.57,0,1.14,0,1.7,0a33.8,33.8,0,0,1,4.94.37c1,.12,1.87.27,2.71.45,1.57.31,10.1,2.36,18.49,11.44,1,1.06,7.85,8.3,11,14.86,3.68,6.74,4.69,12.71,3,17.76-1,2.88-3.32,6.84-9,9.46l-.48.25-.37.1a9.85,9.85,0,0,1-1.41.4,14.21,14.21,0,0,1-4.27.63h0a30.21,30.21,0,0,1-7.1-1.08l-.43-.11c.19.46.37.94.53,1.44.38.69.77,1.38,1.16,2.06,1.89,3.31,4,7.05,4.51,11.8a12.48,12.48,0,0,1-2.84,9.68c-2.93,3.41-7.62,5.23-14.33,5.56C1037.71,603.52,1036.36,603.55,1035.09,603.55Z"/><path class="cls-3" d="M1029.76,598.22a58.3,58.3,0,0,1-6.09-.3c-11-1.1-14-7.22-14.85-10.77-1.15-4.93.07-9.79,1.31-14q.64-2.19,1.51-4.51a40.8,40.8,0,0,1-6,.47,30.5,30.5,0,0,1-5-.4l-.86,0c-5.77-.35-10-3.08-11.52-7.51-2.09-6.07,2-11.24,3.8-13.45,3.36-4.19,6.35-8.08,9.15-11.88l1.69-2.25a41.79,41.79,0,0,0,5.1-7.76c.26-.61.48-1.19.69-1.73,1.19-3.12,3-7.83,9.82-9.78a34.22,34.22,0,0,1,6.8-1.21l.23,0,.61,0c.57,0,1.14-.05,1.71-.05a34,34,0,0,1,4.94.37c1,.13,1.86.27,2.71.46,1.56.31,10.09,2.35,18.48,11.44,1,1.05,7.85,8.29,11,14.85,3.68,6.74,4.69,12.71,3,17.77-1,2.87-3.32,6.84-9,9.45l-.48.25-.37.1a9.85,9.85,0,0,1-1.41.4,14.16,14.16,0,0,1-4.27.63h0a30.29,30.29,0,0,1-7.1-1.08l-.43-.11q.29.69.54,1.44c.37.69.76,1.38,1.15,2.07,1.89,3.3,4,7,4.51,11.79a12.48,12.48,0,0,1-2.84,9.69c-2.93,3.4-7.61,5.22-14.33,5.55C1032.38,598.19,1031,598.22,1029.76,598.22Z"/><path class="cls-10" d="M1056.14,561.62l-.08,0a2.92,2.92,0,0,1-1.67.24,4.4,4.4,0,0,0,2.81-2.13c1.86-3.27-.06-8.4-2-11-3.21-4.26-7.77-6.38-13.79-6.38a40.23,40.23,0,0,0-11.71,2c-1.82.57-3.68,1.13-5.48,1.66-3.76,1.13-7.64,2.29-11.42,3.61-.91.32-1.86.62-2.87.94-3.82,1.22-8.14,2.61-11,5.07-1.31,1.12-1.86,2.39-1.54,3.56.37,1.39,1.86,2.49,3.89,2.88l.11,0-.15.2c-.33,0-.66,0-1,0-2.33-.14-5.11-.88-5.91-3.22-.92-2.67,1.22-5.45,2.75-7.37q4.77-6,9.3-12.08c2.59-3.52,5.73-7.21,7.49-11.23,1.67-3.78,1.8-6.61,6.42-7.94a26.33,26.33,0,0,1,24.61,5.23C1052.14,532,1072.58,554.3,1056.14,561.62Z"/><path class="cls-11" d="M1055.36,548.62c-6.3-8.37-16.91-7.16-25.74-4.42-5.65,1.76-11.32,3.32-16.91,5.28-4.44,1.54-10.32,2.92-13.94,6-3.36,2.9-1.34,6.11,2.46,6.84,5,.95,10.15.07,15-1.14a59.48,59.48,0,0,1,6-1.17l.29,0a43.92,43.92,0,0,0-2.22,4.5,78.9,78.9,0,0,0-4,10.49c-1,3.34-2,7.23-1.21,10.7,1,4.2,5.49,5.48,9.26,5.86a58.54,58.54,0,0,0,9.26.17c5.18-.26,11.81-1.66,11.13-8.21-.63-6.17-5.62-10.78-7.1-16.74A20,20,0,0,1,1037,561c0-.39,0-.79,0-1.18l.23,0a75.57,75.57,0,0,1,8.22,1.34c3.61.79,9.59,2.85,11.94-1.28C1059.27,556.59,1057.46,551.41,1055.36,548.62Z"/><path class="cls-12" d="M1047,549.46c-4.26-5.65-11.43-4.84-17.4-3-3.82,1.19-7.65,2.25-11.43,3.56-3,1.05-7,2-9.42,4.09-2.27,2-.91,4.13,1.66,4.62a23.68,23.68,0,0,0,10.14-.77,39.79,39.79,0,0,1,4.06-.79l.2,0a30.78,30.78,0,0,0-1.5,3,53.63,53.63,0,0,0-2.74,7.1c-.67,2.25-1.36,4.88-.82,7.23.67,2.84,3.71,3.71,6.26,4a41,41,0,0,0,6.26.12c3.51-.18,8-1.12,7.53-5.55-.43-4.17-3.8-7.29-4.81-11.32a13.66,13.66,0,0,1-.41-3.92c0-.27,0-.54,0-.8h.15a52.25,52.25,0,0,1,5.56.9c2.44.54,6.49,1.93,8.08-.86C1049.63,554.85,1048.4,551.35,1047,549.46Z"/><path class="cls-13" d="M1037.78,552c1.17,2.1-.7,7.78-.78,7.77,0,.39,0,.79,0,1.18a20,20,0,0,0,.61,5.81c1.48,6,6.47,10.57,7.1,16.74.68,6.55-6,8-11.13,8.21a58.54,58.54,0,0,1-9.26-.17c-3.77-.38-8.28-1.66-9.26-5.86-.81-3.47.22-7.36,1.21-10.7a78.9,78.9,0,0,1,4-10.49,43.92,43.92,0,0,1,2.22-4.5c-.1,0,2.84-7.33,2.74-7.32S1032.37,542.36,1037.78,552Z"/><path class="cls-14" d="M1026,552.87s6.31-9.66,11.72,0c1.18,2.1-.66,6.93-.74,6.92,0,.39,0,.79,0,1.18a20,20,0,0,0,.61,5.81c1.48,6,5.9,10.83,6.54,17,.67,6.56-5.48,7.21-10.66,7.46,0,0,5.56-4.2.41-19,0,0-1.23-10,.11-14.44S1031.73,550.21,1026,552.87Z"/><path class="cls-15" d="M1018.78,521.67a30.47,30.47,0,0,1,7.37-2.19,37.73,37.73,0,0,1,8.07.65s7.56,1.34,15.12,9.56c0,0,7.68,7.95,10.22,14,0,0,6.59,11.16-1.75,16.25,0,0,5.66-3.72.37-15.19,0,0-6.09-10.52-10-13.84,0,0-8.42-8.58-13.77-9.37a18.21,18.21,0,0,1-1.79-.34,12.84,12.84,0,0,0-6.81-.32A10.27,10.27,0,0,0,1018.78,521.67Z"/><path class="cls-16" d="M996.23,555s7.8-10.52,12.07-15.93c3.46-4.39,5-7.81,6.55-9.34,0,0-.16,3.76-6.21,11.16C1006.39,543.65,1000.51,551,996.23,555Z"/><path class="cls-9" d="M1125.66,603.55c-2.08,0-4.07-.1-6.09-.3-11-1.1-14-7.22-14.84-10.77-1.15-4.93.07-9.79,1.3-14,.43-1.47.93-3,1.51-4.51a40.8,40.8,0,0,1-6,.47,30.5,30.5,0,0,1-5-.4l-.85,0c-5.77-.35-10-3.08-11.52-7.51-2.09-6.08,2-11.24,3.79-13.45,3.36-4.2,6.35-8.08,9.16-11.88.54-.75,1.11-1.49,1.69-2.25a42.22,42.22,0,0,0,5.09-7.76c.27-.61.49-1.19.69-1.73,1.19-3.12,3-7.83,9.83-9.79a34.85,34.85,0,0,1,6.79-1.2l.23,0,.62,0c.56,0,1.13,0,1.7,0a33.8,33.8,0,0,1,4.94.37c1,.12,1.87.27,2.71.45,1.56.31,10.09,2.36,18.49,11.44,1,1.06,7.84,8.3,11,14.86,3.69,6.74,4.7,12.71,3,17.76-1,2.88-3.31,6.84-9,9.46l-.48.25-.38.1a10.1,10.1,0,0,1-1.4.4,14.26,14.26,0,0,1-4.27.63h0a30.3,30.3,0,0,1-7.11-1.08l-.43-.11q.29.69.54,1.44c.37.69.77,1.38,1.16,2.06,1.88,3.31,4,7.05,4.5,11.8a12.4,12.4,0,0,1-2.84,9.68c-2.92,3.41-7.61,5.23-14.33,5.56C1128.29,603.52,1126.94,603.55,1125.66,603.55Z"/><path class="cls-3" d="M1120.34,598.22a58,58,0,0,1-6.09-.3c-11-1.1-14-7.22-14.85-10.77-1.15-4.93.07-9.79,1.3-14q.65-2.19,1.51-4.51a40.77,40.77,0,0,1-6,.47,30.54,30.54,0,0,1-5-.4l-.85,0c-5.77-.35-10-3.08-11.52-7.51-2.09-6.07,2-11.24,3.79-13.45,3.37-4.19,6.36-8.08,9.16-11.88.54-.74,1.11-1.49,1.69-2.25a42.22,42.22,0,0,0,5.09-7.76c.27-.61.49-1.19.7-1.73,1.19-3.12,3-7.83,9.82-9.78a34.12,34.12,0,0,1,6.79-1.21l.24,0,.61,0c.57,0,1.13-.05,1.7-.05a33.8,33.8,0,0,1,4.94.37c1,.13,1.87.27,2.71.46,1.56.31,10.1,2.35,18.49,11.44,1,1.05,7.84,8.29,11,14.85,3.69,6.74,4.7,12.71,3,17.77-1,2.87-3.32,6.84-9,9.45l-.48.25-.38.1a10.1,10.1,0,0,1-1.4.4,14.26,14.26,0,0,1-4.27.63h0a30.12,30.12,0,0,1-7.1-1.08l-.44-.11c.19.46.38.94.54,1.44.38.69.77,1.38,1.16,2.07,1.88,3.3,4,7,4.51,11.79a12.48,12.48,0,0,1-2.85,9.69c-2.92,3.4-7.61,5.22-14.33,5.55C1123,598.19,1121.61,598.22,1120.34,598.22Z"/><path class="cls-10" d="M1146.71,561.62l-.08,0a2.91,2.91,0,0,1-1.67.24,4.4,4.4,0,0,0,2.81-2.13c1.86-3.27-.06-8.4-2-11-3.21-4.26-7.76-6.38-13.78-6.38a40.12,40.12,0,0,0-11.71,2c-1.83.57-3.69,1.13-5.49,1.66-3.75,1.13-7.64,2.29-11.41,3.61-.91.32-1.87.62-2.88.94-3.81,1.22-8.14,2.61-11,5.07-1.3,1.12-1.85,2.39-1.54,3.56.38,1.39,1.87,2.49,3.89,2.88l.12,0-.16.2c-.32,0-.66,0-1,0-2.34-.14-5.11-.88-5.92-3.22-.92-2.67,1.22-5.45,2.75-7.37q4.77-6,9.31-12.08c2.59-3.52,5.72-7.21,7.49-11.23,1.66-3.78,1.79-6.61,6.42-7.94a26.33,26.33,0,0,1,24.61,5.23C1142.71,532,1163.16,554.3,1146.71,561.62Z"/><path class="cls-11" d="M1145.93,548.62c-6.29-8.37-16.9-7.16-25.74-4.42-5.65,1.76-11.32,3.32-16.91,5.28-4.43,1.54-10.31,2.92-13.94,6-3.35,2.9-1.33,6.11,2.46,6.84,5,.95,10.16.07,15-1.14a58.76,58.76,0,0,1,6-1.17l.29,0a48.47,48.47,0,0,0-2.22,4.5,80.3,80.3,0,0,0-4.05,10.49c-1,3.34-2,7.23-1.2,10.7,1,4.2,5.48,5.48,9.25,5.86a58.69,58.69,0,0,0,9.27.17c5.18-.26,11.8-1.66,11.13-8.21-.64-6.17-5.62-10.78-7.11-16.74a20.67,20.67,0,0,1-.61-5.81c0-.39,0-.79,0-1.18l.22,0a75.17,75.17,0,0,1,8.22,1.34c3.61.79,9.6,2.85,12-1.28C1149.85,556.59,1148,551.41,1145.93,548.62Z"/><path class="cls-12" d="M1137.55,549.46c-4.25-5.65-11.42-4.84-17.4-3-3.81,1.19-7.65,2.25-11.43,3.56-3,1.05-7,2-9.42,4.09-2.27,2-.9,4.13,1.66,4.62a23.73,23.73,0,0,0,10.15-.77,39.6,39.6,0,0,1,4.05-.79l.2,0a33.17,33.17,0,0,0-1.5,3,55.06,55.06,0,0,0-2.74,7.1c-.66,2.25-1.36,4.88-.81,7.23.66,2.84,3.71,3.71,6.26,4a41,41,0,0,0,6.26.12c3.5-.18,8-1.12,7.52-5.55-.43-4.17-3.8-7.29-4.8-11.32a13.66,13.66,0,0,1-.41-3.92c0-.27,0-.54,0-.8h.15a52.07,52.07,0,0,1,5.55.9c2.45.54,6.49,1.93,8.08-.86C1140.2,554.85,1139,551.35,1137.55,549.46Z"/><path class="cls-13" d="M1128.35,552c1.18,2.1-.7,7.78-.77,7.77,0,.39,0,.79,0,1.18a20.67,20.67,0,0,0,.61,5.81c1.49,6,6.47,10.57,7.11,16.74.67,6.55-6,8-11.13,8.21a58.69,58.69,0,0,1-9.27-.17c-3.77-.38-8.27-1.66-9.25-5.86-.81-3.47.22-7.36,1.2-10.7a80.3,80.3,0,0,1,4.05-10.49,48.47,48.47,0,0,1,2.22-4.5c-.09,0,2.84-7.33,2.75-7.32S1122.94,542.36,1128.35,552Z"/><path class="cls-14" d="M1116.6,552.87s6.31-9.66,11.72,0c1.17,2.1-.67,6.93-.74,6.92,0,.39,0,.79,0,1.18a20.67,20.67,0,0,0,.61,5.81c1.49,6,5.91,10.83,6.54,17,.68,6.56-5.47,7.21-10.65,7.46,0,0,5.55-4.2.4-19,0,0-1.23-10,.12-14.44S1122.31,550.21,1116.6,552.87Z"/><path class="cls-15" d="M1109.35,521.67a30.66,30.66,0,0,1,7.37-2.19,37.84,37.84,0,0,1,8.08.65s7.55,1.34,15.11,9.56c0,0,7.68,7.95,10.23,14,0,0,6.58,11.16-1.75,16.25,0,0,5.65-3.72.36-15.19,0,0-6.08-10.52-10-13.84,0,0-8.41-8.58-13.76-9.37a17.86,17.86,0,0,1-1.8-.34,12.79,12.79,0,0,0-6.8-.32A10.3,10.3,0,0,0,1109.35,521.67Z"/><path class="cls-16" d="M1086.81,555s7.79-10.52,12.06-15.93c3.46-4.39,5-7.81,6.56-9.34,0,0-.17,3.76-6.21,11.16C1097,543.65,1091.08,551,1086.81,555Z"/><circle class="cls-9" cx="735.09" cy="534.91" r="45.55"/><circle class="cls-17" cx="734.03" cy="531.71" r="45.55"/><circle class="cls-18" cx="734.03" cy="531.71" r="38.98"/><path class="cls-10" d="M757.52,536.84l-.07,0a2.5,2.5,0,0,1-1.41.2,3.76,3.76,0,0,0,2.38-1.8c1.57-2.76,0-7.11-1.71-9.31-2.72-3.61-6.57-5.4-11.66-5.4a33.61,33.61,0,0,0-9.9,1.74c-1.55.48-3.12,1-4.65,1.4-3.17,1-6.46,1.94-9.65,3-.77.27-1.58.53-2.43.8-3.23,1-6.89,2.2-9.3,4.28a3.06,3.06,0,0,0-1.3,3,4,4,0,0,0,3.29,2.43l.1,0a1.09,1.09,0,0,0-.13.17c-.28,0-.56,0-.85,0-2-.12-4.32-.75-5-2.73-.77-2.26,1-4.61,2.33-6.23q4-5,7.87-10.22c2.19-3,4.84-6.1,6.33-9.5,1.41-3.2,1.52-5.59,5.43-6.71A22.29,22.29,0,0,1,748,506.47C754.14,511.81,771.43,530.64,757.52,536.84Z"/><path class="cls-12" d="M756.86,525.84c-5.33-7.08-14.3-6.06-21.77-3.74-4.78,1.49-9.58,2.81-14.3,4.46-3.75,1.31-8.73,2.47-11.79,5.12-2.84,2.45-1.13,5.16,2.08,5.78,4.22.8,8.59,0,12.69-1a51.12,51.12,0,0,1,5.08-1l.24,0a39.65,39.65,0,0,0-1.87,3.8,67.84,67.84,0,0,0-3.43,8.88c-.83,2.82-1.71,6.11-1,9.05.83,3.55,4.64,4.64,7.83,5a51.37,51.37,0,0,0,7.84.14c4.38-.22,10-1.4,9.41-6.94-.54-5.22-4.76-9.12-6-14.16a17.32,17.32,0,0,1-.52-4.91c0-.34,0-.67,0-1h.19a64,64,0,0,1,7,1.13c3,.67,8.11,2.42,10.1-1.08C760.17,532.58,758.64,528.2,756.86,525.84Z"/><path class="cls-13" d="M742,528.72c1,1.77-.59,6.57-.65,6.57,0,.33,0,.66,0,1a17.32,17.32,0,0,0,.52,4.91c1.25,5,5.47,8.94,6,14.16.57,5.54-5,6.72-9.41,6.94a51.37,51.37,0,0,1-7.84-.14c-3.19-.32-7-1.41-7.83-5-.69-2.94.19-6.23,1-9.05a67.84,67.84,0,0,1,3.43-8.88,39.65,39.65,0,0,1,1.87-3.8c-.08,0,2.41-6.2,2.32-6.19S737.42,520.54,742,528.72Z"/><path class="cls-14" d="M731.41,529.28s6-8.74,10.58-.56c1,1.77-.59,6.57-.65,6.57,0,.33,0,.66,0,1a17.32,17.32,0,0,0,.52,4.91c1.25,5,5.47,8.94,6,14.16.57,5.54-5,6.72-9.41,6.94,0,0,4.62-4,.26-16.47,0,0-1-8.43.1-12.21S736.24,527,731.41,529.28Z"/><g id="Gray_Medel" data-name="Gray Medel"><path class="cls-19" d="M1240,84.16a41,41,0,1,0-65.12,33.1v32.5l23.78-15.14,23.78,15.14v-32A41,41,0,0,0,1240,84.16Z"/><path class="cls-19" d="M1140.76,84.16a41,41,0,1,0-65.12,33.1v32.5l23.78-15.14,23.78,15.14v-32A41,41,0,0,0,1140.76,84.16Z"/><path class="cls-19" d="M1041.52,84.16a41,41,0,1,0-65.13,33.1v32.5l23.79-15.14L1024,149.76v-32A41,41,0,0,0,1041.52,84.16Z"/></g><g id="Yellow_Medel" data-name="Yellow Medel"><g id="Yellow_Medel-2" data-name="Yellow Medel"><polygon class="cls-20" points="1170.11 78.58 1217.67 78.58 1217.67 146.58 1193.89 131.45 1170.11 146.58 1170.11 78.58"/><path class="cls-21" d="M1194.24,122a41,41,0,1,0-41-41,41.08,41.08,0,0,0,41,41Z"/><path class="cls-22" d="M1205.83,63.87c-13.09-33.47-23.21,0-23.21,0s-34.29.14-8.78,23.08c0,0-9.44,35,20.92,14.72,30.1,21.59,19.17-15.26,19.17-15.26S1240.65,64.68,1205.83,63.87Z"/><path class="cls-23" d="M1194.24,118a37,37,0,1,0-37-37,37,37,0,0,0,37,37Z"/><path class="cls-24" d="M1183.59,65.14s9.42-31.14,21.6,0c32.4.75,7.54,21,7.54,21s10.17,34.28-17.84,14.19c-28.24,18.83-19.46-13.69-19.46-13.69C1151.7,65.26,1183.59,65.14,1183.59,65.14Z"/><path class="cls-25" d="M1184.17,65.89s8.91-29.46,20.43,0c30.64.71,7.13,19.83,7.13,19.83s9.62,32.43-16.87,13.42c-26.72,17.82-18.41-12.94-18.41-12.94C1154,66,1184.17,65.89,1184.17,65.89Z"/><path class="cls-26" d="M1184.41,67s8.7-27.33,19.94,0c29.92.66,7,18.41,7,18.41s9.39,30.08-16.47,12.45c-26.08,16.53-18-12-18-12C1155,67.12,1184.41,67,1184.41,67Z"/><g class="cls-27"><path class="cls-25" d="M1197.17,55.91c-6.17-4.29-10.78,5.84-12.26,9.69C1189.25,62.07,1193.57,58.64,1197.17,55.91Z"/><path class="cls-25" d="M1212.6,67.85a44,44,0,0,0-8.25-.84c-.38-.93-.76-1.79-1.13-2.59-4.91,2.61-10,5.68-12.57,8.36-3.2,3.29-9.23,9.52-14.15,14.6-.57,2.62-1.47,8-.09,11.76,5.36-2.64,14-7.08,17.84-10.3C1200.09,84,1208.76,73.9,1212.6,67.85Z"/><path class="cls-25" d="M1218,70.15c-1,1.13-1.79,2.13-2.3,2.81-2.18,2.91-7.16,13.64-10.71,19.43a38.35,38.35,0,0,1-6.71,7.69c21.5,12.61,13-14.66,13-14.66S1224.25,75.42,1218,70.15Z"/><path class="cls-25" d="M1183.14,67.06c-4.41.23-18.44,1.71-13.22,11.06C1173.58,75,1178.31,71,1183.14,67.06Z"/></g><path class="cls-3" d="M1172.38,68.22a26.93,26.93,0,0,1,11.79-2.33c2.69-9,6.63-11.72,6.63-11.72s-3.78,3.08-6.46,12.35A42.83,42.83,0,0,0,1172.38,68.22Z"/><path class="cls-28" d="M1194.77,97.87s-11.56,8-16.52,4c5.62,2.19,16.52-5.1,16.52-5.1Z"/><path class="cls-3" d="M1201.25,60.29c.71,1.83.24,3.72-1,4.21s-2.9-.58-3.6-2.41-.25-3.71,1-4.21S1200.54,58.47,1201.25,60.29Z"/><path class="cls-3" d="M1203.75,66.63a1.39,1.39,0,1,1-1.38-1.39A1.38,1.38,0,0,1,1203.75,66.63Z"/></g></g><g id="Yellow_Medel-3" data-name="Yellow Medel"><g id="Yellow_Medel-4" data-name="Yellow Medel"><polygon class="cls-20" points="1071.03 78.58 1118.59 78.58 1118.59 146.58 1094.81 131.45 1071.03 146.58 1071.03 78.58"/><path class="cls-21" d="M1095.16,122a41,41,0,1,0-41-41,41.07,41.07,0,0,0,41,41Z"/><path class="cls-22" d="M1106.75,63.87c-13.09-33.47-23.22,0-23.22,0s-34.28.14-8.77,23.08c0,0-9.44,35,20.92,14.72,30.1,21.59,19.17-15.26,19.17-15.26S1141.57,64.68,1106.75,63.87Z"/><path class="cls-23" d="M1095.16,118a37,37,0,1,0-37-37,37,37,0,0,0,37,37Z"/><path class="cls-29" d="M1084.51,65.14s9.42-31.14,21.6,0c32.4.75,7.53,21,7.53,21s10.18,34.28-17.83,14.19c-28.24,18.83-19.46-13.69-19.46-13.69C1052.62,65.26,1084.51,65.14,1084.51,65.14Z"/><path class="cls-25" d="M1085.09,65.89s8.91-29.46,20.43,0c30.64.71,7.12,19.83,7.12,19.83s9.62,32.43-16.86,13.42c-26.72,17.82-18.41-12.94-18.41-12.94C1054.92,66,1085.09,65.89,1085.09,65.89Z"/><path class="cls-30" d="M1085.33,67s8.69-27.33,19.94,0c29.92.66,7,18.41,7,18.41s9.39,30.08-16.47,12.45c-26.08,16.53-18-12-18-12C1055.87,67.12,1085.33,67,1085.33,67Z"/><g class="cls-27"><path class="cls-25" d="M1098.09,55.91c-6.18-4.29-10.78,5.84-12.26,9.69C1090.17,62.07,1094.49,58.64,1098.09,55.91Z"/><path class="cls-25" d="M1113.52,67.85a44,44,0,0,0-8.25-.84c-.38-.93-.76-1.79-1.14-2.59-4.9,2.61-10,5.68-12.57,8.36l-14.14,14.6c-.57,2.62-1.47,8-.09,11.76,5.36-2.64,14-7.08,17.83-10.3A113.67,113.67,0,0,0,1113.52,67.85Z"/><path class="cls-25" d="M1119,70.15c-1,1.13-1.79,2.13-2.3,2.81-2.19,2.91-7.16,13.64-10.71,19.43a38.35,38.35,0,0,1-6.71,7.69c21.5,12.61,13-14.66,13-14.66S1125.17,75.42,1119,70.15Z"/><path class="cls-25" d="M1084.05,67.06c-4.4.23-18.43,1.71-13.22,11.06C1074.5,75,1079.23,71,1084.05,67.06Z"/></g><path class="cls-3" d="M1073.29,68.22a27,27,0,0,1,11.8-2.33c2.69-9,6.63-11.72,6.63-11.72s-3.78,3.08-6.46,12.35A42.86,42.86,0,0,0,1073.29,68.22Z"/><path class="cls-28" d="M1095.69,97.87s-11.56,8-16.52,4c5.62,2.19,16.52-5.1,16.52-5.1Z"/><path class="cls-3" d="M1102.17,60.29c.71,1.83.24,3.72-1,4.21s-2.9-.58-3.61-2.41-.24-3.71,1-4.21S1101.46,58.47,1102.17,60.29Z"/><path class="cls-3" d="M1104.67,66.63a1.39,1.39,0,1,1-1.38-1.39A1.38,1.38,0,0,1,1104.67,66.63Z"/></g></g><g id="Yellow_Medel-5" data-name="Yellow Medel"><g id="Yellow_Medel-6" data-name="Yellow Medel"><polygon class="cls-20" points="971.57 78.58 1019.13 78.58 1019.13 146.58 995.35 131.45 971.57 146.58 971.57 78.58"/><path class="cls-21" d="M995.7,122a41,41,0,1,0-41-41,41.07,41.07,0,0,0,41,41Z"/><path class="cls-22" d="M1007.29,63.87c-13.1-33.47-23.22,0-23.22,0S949.79,64,975.3,87c0,0-9.44,35,20.92,14.72,30.1,21.59,19.16-15.26,19.16-15.26S1042.11,64.68,1007.29,63.87Z"/><path class="cls-23" d="M995.7,118a37,37,0,1,0-37-37,37,37,0,0,0,37,37Z"/><path class="cls-31" d="M985.05,65.14s9.42-31.14,21.6,0c32.4.75,7.53,21,7.53,21s10.17,34.28-17.83,14.19c-28.24,18.83-19.46-13.69-19.46-13.69C953.15,65.26,985.05,65.14,985.05,65.14Z"/><path class="cls-25" d="M985.63,65.89s8.9-29.46,20.42,0c30.65.71,7.13,19.83,7.13,19.83s9.62,32.43-16.86,13.42C969.6,117,977.91,86.2,977.91,86.2,955.46,66,985.63,65.89,985.63,65.89Z"/><path class="cls-32" d="M985.86,67s8.7-27.33,19.95,0c29.91.66,7,18.41,7,18.41s9.39,30.08-16.47,12.45c-26.08,16.53-18-12-18-12C956.41,67.12,985.86,67,985.86,67Z"/><g class="cls-27"><path class="cls-25" d="M998.63,55.91c-6.18-4.29-10.78,5.84-12.26,9.69C990.71,62.07,995,58.64,998.63,55.91Z"/><path class="cls-25" d="M1014.06,67.85a44.21,44.21,0,0,0-8.25-.84c-.38-.93-.76-1.79-1.14-2.59-4.9,2.61-10,5.68-12.57,8.36L978,87.38c-.58,2.62-1.47,8-.1,11.76,5.37-2.64,14-7.08,17.84-10.3A113.67,113.67,0,0,0,1014.06,67.85Z"/><path class="cls-25" d="M1019.5,70.15c-1,1.13-1.79,2.13-2.31,2.81-2.18,2.91-7.16,13.64-10.7,19.43a38.35,38.35,0,0,1-6.71,7.69c21.5,12.61,13-14.66,13-14.66S1025.7,75.42,1019.5,70.15Z"/><path class="cls-25" d="M984.59,67.06c-4.4.23-18.44,1.71-13.22,11.06C975,75,979.76,71,984.59,67.06Z"/></g><path class="cls-3" d="M973.83,68.22a27,27,0,0,1,11.8-2.33c2.69-9,6.63-11.72,6.63-11.72s-3.78,3.08-6.46,12.35A42.86,42.86,0,0,0,973.83,68.22Z"/><path class="cls-28" d="M996.22,97.87s-11.56,8-16.52,4c5.63,2.19,16.52-5.1,16.52-5.1Z"/><path class="cls-3" d="M1002.71,60.29c.7,1.83.24,3.72-1,4.21s-2.9-.58-3.61-2.41-.24-3.71,1-4.21S1002,58.47,1002.71,60.29Z"/><path class="cls-3" d="M1005.21,66.63a1.39,1.39,0,1,1-1.39-1.39A1.38,1.38,0,0,1,1005.21,66.63Z"/></g></g><text class="cls-33" transform="translate(197.1 383.5)">Nine</text><text class="cls-34" transform="translate(194.1 380.5)">Nine</text></svg>