<svg xmlns="http://www.w3.org/2000/svg" xmlns:xlink="http://www.w3.org/1999/xlink" viewBox="0 0 1280 720"><defs><style>.cls-1,.cls-55,.cls-56,.cls-76,.cls-8,.cls-9{fill:none;}.cls-2{isolation:isolate;}.cls-3{clip-path:url(#clip-path);}.cls-4{clip-path:url(#clip-path-2);}.cls-5{fill:url(#linear-gradient);}.cls-6{fill:url(#linear-gradient-2);}.cls-7{fill:#a8774a;}.cls-8{stroke:#3e484c;}.cls-29,.cls-31,.cls-33,.cls-34,.cls-36,.cls-42,.cls-49,.cls-51,.cls-52,.cls-55,.cls-56,.cls-65,.cls-68,.cls-69,.cls-76,.cls-8,.cls-85,.cls-86,.cls-88,.cls-89,.cls-9,.cls-90,.cls-91,.cls-92,.cls-94{stroke-miterlimit:10;}.cls-76,.cls-8,.cls-85,.cls-88,.cls-89,.cls-9,.cls-90{stroke-width:2px;}.cls-9{stroke:#2a383f;}.cls-10{fill:url(#linear-gradient-3);}.cls-11{fill:#539b56;}.cls-12{fill:#104c16;}.cls-13{fill:#3f201c;}.cls-14{fill:url(#linear-gradient-4);}.cls-15{fill:url(#linear-gradient-5);}.cls-16{fill:url(#linear-gradient-6);}.cls-17{fill:#158240;}.cls-18{clip-path:url(#clip-path-3);}.cls-19{clip-path:url(#clip-path-4);}.cls-20{clip-path:url(#clip-path-5);}.cls-21{fill:url(#linear-gradient-7);}.cls-22{fill:url(#linear-gradient-8);}.cls-23{fill:url(#linear-gradient-9);}.cls-24{fill:url(#linear-gradient-10);}.cls-25{fill:url(#linear-gradient-11);}.cls-26{fill:url(#linear-gradient-12);}.cls-27{fill:#4a2a15;}.cls-28{fill:#342516;}.cls-29,.cls-31,.cls-33,.cls-65,.cls-72{fill:#fad2c6;}.cls-29,.cls-31,.cls-56{stroke:#5f4a43;}.cls-29,.cls-33,.cls-34{stroke-width:0.75px;}.cls-30{fill:#e7b4a7;}.cls-32{fill:#d6a398;}.cls-33,.cls-34,.cls-36,.cls-49,.cls-51,.cls-52,.cls-55,.cls-65,.cls-92,.cls-94{stroke:#323232;}.cls-34{fill:#fac7b3;}.cls-35{fill:#424036;}.cls-36{fill:#f6fbfd;}.cls-36,.cls-68,.cls-92{stroke-width:0.5px;}.cls-37{fill:#602220;}.cls-38{fill:#451f16;}.cls-39,.cls-68,.cls-92{fill:#fff;}.cls-40{fill:#561211;}.cls-41{fill:#d26653;}.cls-42{fill:#311415;stroke:#211e1f;}.cls-43{fill:#90856e;}.cls-44{fill:#605e44;}.cls-45,.cls-48{fill:#9e9580;opacity:0.5;}.cls-45,.cls-47{mix-blend-mode:multiply;}.cls-46,.cls-47{fill:#676254;}.cls-47{opacity:0.4;}.cls-48{mix-blend-mode:screen;}.cls-49{fill:#facc35;}.cls-50{fill:#be9030;}.cls-51{fill:#fcde7d;}.cls-52{fill:#e0604f;}.cls-53{fill:#f5927d;}.cls-54{fill:#c28974;}.cls-57{fill:#fab51b;}.cls-58{fill:#f17125;}.cls-59{fill:#80351b;}.cls-60{fill:#75451c;}.cls-61{fill:#a66638;}.cls-62{fill:#925b24;}.cls-63{fill:#e69847;}.cls-64{fill:#5f2710;}.cls-65{stroke-width:0.25px;}.cls-66,.cls-69{fill:#3d2d16;}.cls-67{fill:#dc9e8f;}.cls-68,.cls-69{stroke:#3d2d16;}.cls-70{fill:#fff7f4;}.cls-71{fill:#411e16;}.cls-73{fill:#632323;}.cls-74{fill:#323232;}.cls-75{fill:#e8d860;}.cls-76{stroke:#ef4b3b;}.cls-77{fill:#ef4b3b;}.cls-78{fill:#f49990;}.cls-79{fill:#e13e26;}.cls-80{fill:#fddf0e;}.cls-81{fill:#281b17;}.cls-82{fill:#473a3a;}.cls-83{fill:#5e5454;}.cls-84,.cls-88{fill:#79c3c6;}.cls-85{fill:#50b9d6;}.cls-85,.cls-88{stroke:#007ea5;}.cls-86{fill:#2aa6b7;}.cls-86,.cls-91{stroke:#094c5b;}.cls-87{fill:#8fdff2;}.cls-89{fill:#ebe1c8;stroke:#e2af9f;}.cls-90{fill:#ffcfa1;stroke:#e0b17e;}.cls-91{fill:#2994b8;}.cls-93{fill:#231f20;}.cls-94{fill:#562415;}.cls-95{clip-path:url(#clip-path-6);}.cls-96{clip-path:url(#clip-path-7);}.cls-97{fill:url(#linear-gradient-13);}.cls-98{fill:url(#linear-gradient-14);}.cls-99{clip-path:url(#clip-path-8);}.cls-100{clip-path:url(#clip-path-9);}.cls-101{fill:url(#linear-gradient-15);}.cls-102{clip-path:url(#clip-path-11);}.cls-103{clip-path:url(#clip-path-12);}.cls-104{fill:url(#linear-gradient-16);}.cls-105{clip-path:url(#clip-path-13);}.cls-106{clip-path:url(#clip-path-14);}.cls-107{fill:url(#linear-gradient-17);}</style><clipPath id="clip-path"><rect class="cls-1" x="-1300" width="1280" height="720"/></clipPath><clipPath id="clip-path-2"><rect class="cls-1" x="-1460" y="-90" width="1600" height="900"/></clipPath><linearGradient id="linear-gradient" x1="-658.57" y1="530.63" x2="-662.79" y2="-123.75" gradientUnits="userSpaceOnUse"><stop offset="0.11" stop-color="#bdedf4"/><stop offset="0.29" stop-color="#b5e9f2"/><stop offset="0.58" stop-color="#9edeeb"/><stop offset="0.9" stop-color="#7ecfe2"/></linearGradient><linearGradient id="linear-gradient-2" x1="-605.35" y1="785.02" x2="-608.07" y2="363.66" gradientUnits="userSpaceOnUse"><stop offset="0.17" stop-color="#66d579"/><stop offset="0.94" stop-color="#8ace9a"/></linearGradient><linearGradient id="linear-gradient-3" x1="13.46" y1="196.09" x2="87.2" y2="58.11" gradientUnits="userSpaceOnUse"><stop offset="0.22" stop-color="#a8e3ee"/><stop offset="0.45" stop-color="#ade6f0"/><stop offset="0.72" stop-color="#bcedf4"/></linearGradient><linearGradient id="linear-gradient-4" x1="-196.66" y1="581.02" x2="398.01" y2="233.28" gradientTransform="translate(-41.7 19.4) rotate(-3.08)" gradientUnits="userSpaceOnUse"><stop offset="0.03" stop-color="#15492e"/><stop offset="0.18" stop-color="#1a4f33"/><stop offset="0.37" stop-color="#276040"/><stop offset="0.6" stop-color="#3c7c57"/><stop offset="0.68" stop-color="#468961"/></linearGradient><linearGradient id="linear-gradient-5" x1="-40.95" y1="371.62" x2="468.28" y2="-41.86" gradientTransform="matrix(1, -0.05, 0.05, 0.85, -24.85, 332.07)" xlink:href="#linear-gradient-4"/><linearGradient id="linear-gradient-6" x1="24.08" y1="748.3" x2="144.45" y2="748.3" gradientUnits="userSpaceOnUse"><stop offset="0" stop-color="#174124"/><stop offset="0" stop-color="#1c251b"/><stop offset="0" stop-color="#1b331d"/><stop offset="0.18" stop-color="#1b361e"/><stop offset="0.86" stop-color="#1a3b20"/></linearGradient><clipPath id="clip-path-3"><rect class="cls-1" width="1280" height="720"/></clipPath><clipPath id="clip-path-4"><rect class="cls-1" x="-160" y="-90" width="1600" height="900"/></clipPath><clipPath id="clip-path-5"/><linearGradient id="linear-gradient-7" x1="599.07" y1="-639.69" x2="676.41" y2="1405.43" gradientUnits="userSpaceOnUse"><stop offset="0.21" stop-color="#a2d9d8"/><stop offset="0.22" stop-color="#9ad7d7"/><stop offset="0.24" stop-color="#86d1d4"/><stop offset="0.26" stop-color="#7acdd3"/><stop offset="0.27" stop-color="#76ccd2"/><stop offset="0.33" stop-color="#7acdd2"/><stop offset="0.39" stop-color="#86d1d2"/><stop offset="0.45" stop-color="#9ad6d2"/><stop offset="0.5" stop-color="#addcd2"/><stop offset="0.52" stop-color="#b5dfd6"/><stop offset="0.57" stop-color="#cae8e2"/><stop offset="0.62" stop-color="#ecf7f4"/><stop offset="0.64" stop-color="#fff"/><stop offset="1" stop-color="#c8e5d2"/></linearGradient><linearGradient id="linear-gradient-8" x1="608.75" y1="251.6" x2="705.3" y2="20.75" gradientUnits="userSpaceOnUse"><stop offset="0.06" stop-color="#7dced2"/><stop offset="0.22" stop-color="#8cd2d2"/><stop offset="0.48" stop-color="#addcd2"/><stop offset="0.96" stop-color="#afddd3"/></linearGradient><linearGradient id="linear-gradient-9" x1="1192.7" y1="427.75" x2="1329.17" y2="101.46" gradientUnits="userSpaceOnUse"><stop offset="0.13" stop-color="#b8e1d8"/><stop offset="0.51" stop-color="#d0ebe5"/><stop offset="0.54" stop-color="#d2ece6"/></linearGradient><linearGradient id="linear-gradient-10" x1="150.03" y1="568.9" x2="274.92" y2="270.31" gradientUnits="userSpaceOnUse"><stop offset="0" stop-color="#c5e6df"/><stop offset="0.54" stop-color="#d2ece6"/></linearGradient><linearGradient id="linear-gradient-11" x1="1110.39" y1="24.21" x2="856.39" y2="379.02" gradientUnits="userSpaceOnUse"><stop offset="0.17" stop-color="#a2d9d8"/><stop offset="0.19" stop-color="#9ad7d7"/><stop offset="0.27" stop-color="#86d1d4"/><stop offset="0.35" stop-color="#7acdd2"/><stop offset="0.44" stop-color="#76ccd1"/></linearGradient><linearGradient id="linear-gradient-12" x1="129.75" y1="434.61" x2="-124.25" y2="789.42" gradientUnits="userSpaceOnUse"><stop offset="0.08" stop-color="#b3dfd5"/><stop offset="0.49" stop-color="#b0ddd4"/></linearGradient><clipPath id="clip-path-6"><rect class="cls-1" x="1300" width="1280" height="720"/></clipPath><clipPath id="clip-path-7"><rect class="cls-1" x="1140" y="-90" width="1600" height="900" transform="translate(3880 720) rotate(-180)"/></clipPath><linearGradient id="linear-gradient-13" x1="2539.07" y1="-639.69" x2="2616.41" y2="1405.43" gradientTransform="matrix(1, 0, 0, -1, -632.92, 697.84)" xlink:href="#linear-gradient-7"/><linearGradient id="linear-gradient-14" x1="2492.7" y1="427.75" x2="2629.17" y2="101.46" gradientTransform="translate(-1170.63)" xlink:href="#linear-gradient-9"/><clipPath id="clip-path-8"><rect class="cls-1" x="-1300" y="740" width="1280" height="720"/></clipPath><clipPath id="clip-path-9"><rect class="cls-1" x="-1460" y="650" width="1600" height="900"/></clipPath><linearGradient id="linear-gradient-15" x1="-678.6" y1="120.44" x2="-602.76" y2="2126.15" xlink:href="#linear-gradient-7"/><clipPath id="clip-path-11"><rect class="cls-1" y="740" width="1280" height="720"/></clipPath><clipPath id="clip-path-12"><rect class="cls-1" x="-160" y="651" width="1600" height="898"/></clipPath><linearGradient id="linear-gradient-16" x1="652.54" y1="217.77" x2="652.54" y2="1988.53" gradientUnits="userSpaceOnUse"><stop offset="0.08" stop-color="#a2d9d8"/><stop offset="0.09" stop-color="#9ad7d7"/><stop offset="0.12" stop-color="#86d1d4"/><stop offset="0.15" stop-color="#7acdd3"/><stop offset="0.18" stop-color="#76ccd2"/><stop offset="0.29" stop-color="#79cdd2"/><stop offset="0.35" stop-color="#81d0d2"/><stop offset="0.41" stop-color="#90d5d2"/><stop offset="0.45" stop-color="#a4dcd2"/><stop offset="0.46" stop-color="#a7ddd2"/><stop offset="0.5" stop-color="#afdfd3"/><stop offset="0.55" stop-color="#c4e5d5"/><stop offset="0.57" stop-color="#cde7d6"/><stop offset="0.65" stop-color="#f2f9f4"/><stop offset="1" stop-color="#c8e5d2"/></linearGradient><clipPath id="clip-path-13"><rect class="cls-1" x="1300" y="740" width="1280" height="720"/></clipPath><clipPath id="clip-path-14"><rect class="cls-1" x="1140" y="651" width="1600" height="898"/></clipPath><linearGradient id="linear-gradient-17" x1="1952.54" y1="217.77" x2="1952.54" y2="1988.53" xlink:href="#linear-gradient-16"/></defs><g class="cls-2"><g id="Layer_1" data-name="Layer 1"><g class="cls-3"><g class="cls-4"><rect class="cls-5" x="-1460.5" y="-90.45" width="1600.98" height="796.95"/><path class="cls-6" d="M-1513.14,611.7s300-23.86,555.56-127.39C-591.16,335.88-279.85,303.84,198.17,327.19L315,528.9,261.91,789.39-1526.95,849.5Z"/><polygon class="cls-7" points="12.98 365.54 8.39 365.34 0.59 353.35 4.75 353.31 12.98 365.54"/><polygon class="cls-7" points="41.15 366.39 36.57 366.19 28.77 354.2 32.93 354.17 41.15 366.39"/><polygon class="cls-7" points="69.14 366.97 64.55 366.77 56.75 354.78 60.91 354.74 69.14 366.97"/><polygon class="cls-7" points="96.93 366.97 92.35 367.14 83.6 355.82 87.74 355.45 96.93 366.97"/><polygon class="cls-7" points="127.24 367.42 122.65 367.59 113.91 356.27 118.05 355.9 127.24 367.42"/><path class="cls-8" d="M-1469.94,627.74s237.55-16.66,429.15-87.12C-821,459.78-564.55,378.7-420.76,367c78-6.33,254.46-18.52,373.44-14.4C87.76,357.3,129,355.5,143.24,356.94"/><path class="cls-9" d="M-1460.46,636.32s237.55-16.66,429.15-87.12c219.83-80.84,474-158.6,617.42-171.84,77.91-7.19,257.43-18.24,376.41-14.12,135.08,4.68,163.75,3,178,4.4"/><path class="cls-10" d="M-20.84,128.81s19-39.49,85.93-37.56,59.49,52,37.18,55.87S-12.23,159.45-20.84,128.81Z"/><path class="cls-11" d="M-1472.44,651.94s249.12,61.38,563.76-20.7c118.62-30.94,309.82-95,501.12-95,149,0,268.56,7.2,332.64,17.28,51.22,8.06,177.12,27,222.48,43.2l2.16,175H-1474.6Z"/><path class="cls-12" d="M-1472.44,676.5s170.35,55,533.52,5.22c198.72-27.24,347.76,41.52,786.24,62.64,51.79,2.49,269.28-14.88,306.72,3.36L149.72,824l-1624.32-6.48Z"/><rect class="cls-13" x="-29.46" y="692.49" width="35.99" height="145.56"/><path class="cls-14" d="M-124,697.73S-133.79,335.91-8.87,169c0,0,33-33.44,65,86.83S112,597.47,96.26,699.65C84.28,777.28-119.74,798.26-124,697.73Z"/><rect class="cls-13" x="83.5" y="704.52" width="33.66" height="137.93"/><path class="cls-15" d="M8.62,694.37S41,308.28,111.38,265c0,0,39.14-23.64,68.29,72.66s50.16,273.88,34.79,356.11C202.79,756.24,9.89,776.19,8.62,694.37Z"/><path class="cls-16" d="M128.42,772.52S122.36,699.39,93.25,687c-19.4-5.63-8.49,48.27,17.59,93.9-58.21-56.15-46.69-43.27-46.69-43.27C35,712.89,36.26,742.14,53.23,759a301.41,301.41,0,0,0,41.23,37.13s.06,6.75-12.7,0-33.38-18-33.38-18S81.13,793.9,46,777s-21.83,15.76-2.43,23.63,14.82,8.63,14.82,8.63l86.1.72-3.9-94.06s-5-22.38-9.78-9.34S128.42,772.52,128.42,772.52Z"/><polygon class="cls-17" points="133.04 804.43 93.63 701.14 134.03 804.04 133.04 804.43"/></g></g><g class="cls-18"><g class="cls-19"><g id="Slide_1" data-name="Slide 1"><g class="cls-20"><rect class="cls-21" x="-197.89" y="-124.04" width="1668.71" height="945.92"/><path class="cls-22" d="M744.69,194.56c-.93-27.85-70.1-37.11-95.64-42.35-79-16.21-149.41,36.3-125.74,60.2,5.34,5.39,15.93,4.4,24.71,6.24,16.3,3.42,91.25,2.89,129.55,0C685.19,218.08,745.17,209,744.69,194.56Z"/><path class="cls-23" d="M1395,346.68c-1.39-34.8-105.25-46.38-143.6-52.92-118.66-20.25-224.32,45.36-188.79,75.23,8,6.74,23.93,5.5,37.11,7.8,24.47,4.27,137,3.61,194.5,0C1305.67,376.08,1395.72,364.68,1395,346.68Z"/><path class="cls-24" d="M335.16,494.72c-1.28-31.85-96.32-42.44-131.42-48.43C95.15,427.75-1.53,487.8,31,515.13c7.34,6.17,21.9,5,34,7.14,22.39,3.91,125.38,3.3,178,0C253.41,521.62,335.81,511.19,335.16,494.72Z"/></g></g><path class="cls-25" d="M938.66,99.77c2.88-7.47,74.28-40.44,146.73-27.75,75.2,19.19,106.39,57.12,33.94,61.45s-132.07-3.25-149.49-5.42S929.49,123.51,938.66,99.77Z"/><path class="cls-26" d="M-42,510.17c2.88-7.47,74.28-40.44,146.73-27.75,75.2,19.19,106.39,57.12,33.94,61.45S6.62,540.62-10.8,538.45-51.15,533.91-42,510.17Z"/></g><polygon class="cls-27" points="392.04 80.88 410.78 287.83 414.04 287.8 395.22 80.88 392.04 80.88"/><polygon class="cls-27" points="231.37 80.67 211.95 287.83 208.69 287.8 228.18 80.67 231.37 80.67"/><path class="cls-28" d="M328.64,164.06c-.27,1.19-11,12.82-5.9,29.26s-6.68,28.28,9.77,33.3a56,56,0,0,0,31.06.14H371s24.2-.35,31.49-10.7-1.19-17.66-2.06-38.87-45.54-50.83-74.38-13.81Z"/><path class="cls-29" d="M348,253.12c-.05.38-.1.79-.17,1.22-.26,1.81-.64,4-1.09,6.36-2,10.51-5.45,24.77-6.93,26.84-1.89,2.63-7.92,1.21-7.92,1.21-2.21-12.92.59-24,3.31-29.57,1.24-2.54.79-5.17,1.07-6.8s.43-2.42.43-2.42S349.19,243.92,348,253.12Z"/><path class="cls-30" d="M347.84,254.34c-.26,1.81-1,4-1.44,6.37h.11a37.63,37.63,0,0,1-4.75-.09,35.17,35.17,0,0,1-6.25-1.27c.41-2.8.49-5.34.77-7a30,30,0,0,1,4.74,0,15.7,15.7,0,0,1,4.52.77A11,11,0,0,1,347.84,254.34Z"/><path class="cls-31" d="M289.62,287.09l-1.8-9,7.1-20.8-3.2-1.58-8.41-4.16,5-13.4c.87-.13,4.43,1.32,8.56,3.7,6.42,3.71,12.8,8.56,12.57,14.41C309,267.91,289.62,287.09,289.62,287.09Z"/><path class="cls-32" d="M296.69,242.12a87.5,87.5,0,0,1-5,13.17l-8.41-4.16,5-13.4C289.21,237.6,292.57,239.74,296.69,242.12Z"/><path class="cls-33" d="M274.42,233.71s-3.74,3.65-4.3,3.28-20.73-3.5-18.11-6.58a7.66,7.66,0,0,0,.63-.84,5.55,5.55,0,0,0,.7-5.31s19-3.64,17.69,0a7,7,0,0,0,.23,5.53,5.68,5.68,0,0,0,.5.84Z"/><path class="cls-30" d="M271,229.87c-1.93,1.4-5.53,1.89-8.42,1.86a24.08,24.08,0,0,1-9.68-2.16,5.55,5.55,0,0,0,.7-5.31s18.48-3.55,17.11.1A6.87,6.87,0,0,0,271,229.87Z"/><path class="cls-34" d="M220.68,199.73c1.62,4.73,5.28,7.53,7.6,6.91s2.15-4.59,1-9.17-4-7.81-6.29-7.18C219.82,191.17,219.17,195.28,220.68,199.73Z"/><path class="cls-35" d="M258.71,153.6a107.4,107.4,0,0,0-27.77,3.19,26.76,26.76,0,0,0-7.14,3.35c-4.81,2.91-21.46,15-22.76,18.94-.06.2-.11-.19,0,0,1.55,2.45,22.35,5,43.46,6.42,7.43.47,16.41-3.26,25.19-2.59,6,.46,11.74.76,17,.89,24.83.58,39.77-6.17,40.06-7.42.42-1.88-13.79-8-23.09-13.78-9.57-5.95-23.95-7.49-40.39-8.77C261.79,153.71,260.26,153.63,258.71,153.6Z"/><path class="cls-33" d="M307,197.75c-1.19,4.86-4.86,7.94-7.48,7.5s-2.92-4.41-2.21-9.09,3.41-8.12,6-7.66C306.93,189.12,308.14,193.18,307,197.75Z"/><path class="cls-33" d="M298.75,202.71c-1,17.91-26.48,26.56-33.56,26.73-10.36.23-38.39-9.05-37.18-37l0-.88h0c.35-13.3-4.48-25.41-3.21-30.57,4.43-17.84,7.64-10.88,28.74-12.89,19.74-1.88,28.15-1.93,40.3,8.22,1.07.89,4.65,1.92,4.7,5.12.09,5.45.22,9.54.34,12.82C299.31,185.54,299.65,187.3,298.75,202.71Z"/><path class="cls-30" d="M298.91,174.23a46,46,0,0,0-22.39-10.49,42.3,42.3,0,0,1-32.5,7,52.19,52.19,0,0,0,8.51-7.33,16.76,16.76,0,0,1-7.73,2c-2.58,5-5.28,10.1-9.7,13.54-1.51,1.17-3.23,2.16-4.32,3.74a11.25,11.25,0,0,0-1.31,2.86c-.39,1.19-.74,2.39-1,3.61-.18.72-.24,1.61-.39,2.44.35-13.3-4.48-25.41-3.21-30.57,4.43-17.84,7.64-10.88,28.74-12.89,19.74-1.88,28.15-1.93,40.3,8.22,1.07.89,4.65,1.92,4.7,5.12C298.66,166.86,298.79,171,298.91,174.23Z"/><path class="cls-36" d="M240.42,190.46c0,4.23,3.75,7.73,8.42,7.82s8.47-3.27,8.48-7.5-3.75-7.73-8.42-7.82S240.43,186.23,240.42,190.46Z"/><path class="cls-37" d="M244,196.81a7.89,7.89,0,0,1-3.3-6.34,7.6,7.6,0,0,1,8-7.34c2.19,0,4.73.6,7.57,3.9a9.31,9.31,0,0,0-9.39-4.69A7.6,7.6,0,0,0,240,189C239.73,192.47,241.68,195.9,244,196.81Z"/><path class="cls-38" d="M244.34,189.3a4.85,4.85,0,0,0,3.2,6,4.7,4.7,0,0,0,5.81-3.35,4.85,4.85,0,0,0-3.2-6A4.7,4.7,0,0,0,244.34,189.3Z"/><path class="cls-39" d="M249,187.67a1.2,1.2,0,0,0,.8,1.48,1.17,1.17,0,0,0,1.45-.83,1.2,1.2,0,0,0-.8-1.48A1.17,1.17,0,0,0,249,187.67Z"/><path class="cls-40" d="M251.29,214c1.24,1.48,7.45,6,12.58,6,10.55,0,19.64-14.54,17.55-14.12-5.27,1.07-3.5,1.32-11.85,1.76a68,68,0,0,1-6.86.23C253.36,207.43,240,200.51,251.29,214Z"/><path class="cls-41" d="M264,219.41a11.1,11.1,0,0,1-5.9-1.77,7,7,0,0,1,4.54-2.86c2.76-.53,6.65.25,8.16,2.38C269.22,218.77,265.93,219.37,264,219.41Z"/><path class="cls-39" d="M250.86,206.86a46.74,46.74,0,0,0,27.29.38c-1.66,2.45-6.81,5.63-13.42,5.78C257.57,213.2,253.62,209.79,250.86,206.86Z"/><path class="cls-40" d="M254.29,177.4l-.8-.88A7.09,7.09,0,0,0,247,174.3a13.52,13.52,0,0,0-8.61,5.54c-.31.43-.53.6-.09.29C241.36,178,249,175.17,254.29,177.4Z"/><path class="cls-40" d="M273.61,177.4l.72-.9A6,6,0,0,1,279.9,174a10,10,0,0,1,7,5.08c.24.41.42.58.06.29C284.5,177.43,278.18,175,273.61,177.4Z"/><path class="cls-42" d="M278.88,152.67s-.83,20.16-30.25,16.16c0,0,30.19-15.87-1.15-14.22,0,0,7.14,8.78-13.52,7.76,0,0,14.89-1.55-4.2,17.83,0,0-2.5,1.34-1.75,12.22.05.73-5.41-.88-5.67-8.52,0,0-7.45-7.15.37-17.39,0,0-7.38-15.1,5.77-17.12,0,0,1.07-11.4,12.35-12.16,0,0,11.42-16.57,25.48-4.24,0,0,11.3-9.16,21.39,4.87,0,0,13.06.52,11.43,11.21,0,0,12.93,6.7,5.34,15.81,0,0,8.67,7.12.74,17.1l-6,10.64,0-1.24a55.61,55.61,0,0,0-5.9-24.33l-.37-.73S292.28,158.58,278.88,152.67Z"/><path class="cls-43" d="M307.42,158.89c-10.74-6-26.36-7-45.25-7.47a116.67,116.67,0,0,0-35.68,5.1s-2.78.76-7.76,4.13S202.3,174.47,201,179.08c1.23-3,16.44-15.27,69.38-14.32,34.55.62,50.82,7,56.34,11.62C325.49,173.05,317.12,164.26,307.42,158.89Z"/><path class="cls-44" d="M326.77,176.61a.24.24,0,0,1-.14-.05C323.57,174,310.5,165.7,270.41,165c-4.67-.09-9.21-.07-13.52,0-41.87,1.14-54.55,11.44-55.66,14.12a.2.2,0,0,1-.27.13.23.23,0,0,1-.13-.27c1.33-4.88,13.14-15.42,17.78-18.56,4.95-3.35,7.7-4.13,7.82-4.16a119.56,119.56,0,0,1,30.65-5.09c1.72-.06,3.43-.05,5.09,0,18.32.49,34.37,1.4,45.37,7.5,9.67,5.36,18.1,14.14,19.42,17.6a.23.23,0,0,1-.07.26A.31.31,0,0,1,326.77,176.61Z"/><path class="cls-45" d="M224.48,164.86c3.33-4.7,9-7.73,13.92-10a62.36,62.36,0,0,1,6.2-2.39,114,114,0,0,0-18.11,4s-2.78.76-7.76,4.13S202.3,174.47,201,179.08c.75-1.83,6.64-7.06,23-10.67A3.79,3.79,0,0,1,224.48,164.86Z"/><path class="cls-45" d="M287.84,153.78a73.84,73.84,0,0,1,11.9,5.38c2.87,1.63,6.26,4.32,5.87,8.32a3.39,3.39,0,0,1-.11.71c11.49,2.39,18.12,5.58,21.26,8.19-1.27-3.33-9.64-12.12-19.34-17.49-6.46-3.59-14.69-5.37-24.34-6.34A36.94,36.94,0,0,1,287.84,153.78Z"/><path class="cls-43" d="M219.63,158.09s-1.67-17.45,18.72-29.93c22.09-13.5,46.72-3.27,54,2.14s14.26,16.42,15.11,26.63c0,0-28.64-5.26-42.13-5.15S227.61,154,219.63,158.09Z"/><path class="cls-44" d="M262.13,151.62l3.14-.06c12.65-.11,38.92,4.56,41.9,5.1-1-10.57-8.26-21.14-15-26.18-5-3.72-17.34-9.13-31-8.76a45.27,45.27,0,0,0-22.7,6.64c-18.52,11.31-18.72,26.95-18.64,29.38C227.83,153.88,249.42,152,262.13,151.62Z"/><path class="cls-45" d="M295.52,146.38c-2.6,3.72-6.94,5-10.83,5.84-1.35.28-2.7.49-4.05.66,13,1.52,26.77,4.05,26.77,4.05-.79-9.44-6.85-19.57-13.49-25.32C296.88,135.7,298.75,141.75,295.52,146.38Z"/><path class="cls-45" d="M248.6,150.56c-4.93-1.07-10.33-2.48-14.53-5.81-3.64-2.89-4.87-6.26-4.53-9.69-11,11.15-9.91,23-9.91,23,6.53-3.33,23.91-5.36,37.41-6C254.2,151.65,251.38,151.17,248.6,150.56Z"/><path class="cls-46" d="M265.09,149.08c10.91-.17,39.89,4,42.75,6,0,0,.44,3.62.11,4.32s-13.89-4.92-40.05-5.19c-34.4-.36-47.64,6.18-48.53,6.34s-.35-4,.06-4.59S233.4,149.56,265.09,149.08Z"/><path class="cls-35" d="M307.78,159.66a15.91,15.91,0,0,1-2.84-.59,149.86,149.86,0,0,0-37-4.66c-3.14,0-6.25,0-9.23.08-11.14.3-26.89,1.59-38.56,6a4.82,4.82,0,0,1-.7.25h-.08a.51.51,0,0,1-.46-.33c-.47-.93,0-4.06.38-4.62s13.75-6.47,45.84-6.95c10.69-.17,39.94,3.94,42.87,6l.08.06,0,.1c0,.38.43,3.71.08,4.45A.37.37,0,0,1,307.78,159.66Z"/><path class="cls-47" d="M307.84,155.06c-1.62-1.15-11.62-3-22-4.3.34.12.69.22,1.08.32,10,2.54,2.78,3.29-4.93,2.34a153.56,153.56,0,0,0-27.67-.92c-11.86.55-15.56-1.77-6-2.49a16.75,16.75,0,0,0,1.91-.25c-21.13,1.65-30.47,5.67-30.81,6.18s-1,4.75-.06,4.59,14.13-6.7,48.53-6.34c26.16.27,39.71,5.89,40.05,5.19S307.84,155.06,307.84,155.06Z"/><path class="cls-48" d="M229.55,165.58s21.76-5.75,71.29,0C300.84,165.54,261.94,157,229.55,165.58Z"/><path class="cls-36" d="M288.18,191.69c-.57,4.19-4.78,7.14-9.39,6.58s-7.89-4.42-7.32-8.61,4.77-7.13,9.39-6.57S288.75,187.5,288.18,191.69Z"/><path class="cls-37" d="M283.75,197.48a7.83,7.83,0,0,0,4.13-5.82,7.58,7.58,0,0,0-6.85-8.38c-2.17-.26-4.75-.05-8,2.82a9.27,9.27,0,0,1,9.91-3.35,7.58,7.58,0,0,1,5.84,7.58C288.58,193.78,286.18,196.91,283.75,197.48Z"/><path class="cls-38" d="M284.47,190a4.84,4.84,0,0,1-4,5.48,4.67,4.67,0,0,1-5.26-4.12,4.85,4.85,0,0,1,4-5.49A4.69,4.69,0,0,1,284.47,190Z"/><path class="cls-39" d="M280.06,187.73a1.19,1.19,0,0,1-1,1.36,1.16,1.16,0,0,1-1.31-1,1.19,1.19,0,0,1,1-1.36A1.18,1.18,0,0,1,280.06,187.73Z"/><path class="cls-31" d="M244.34,230.21l-7,10.23A46.43,46.43,0,0,1,224,234.57c-9.27-5.85-16.51-14.06-26-20.41-1.44-1-2.94-1.9-4.51-2.77-1.22-.67,5.82-10,7-9.22,1.63,1,3.28,2,4.91,3,7.12,4.19,14.23,7.83,20.51,11.36,6.77,3.8,12.6,7.48,16.49,11.55a1.45,1.45,0,0,1,.17.18A23.66,23.66,0,0,1,244.34,230.21Z"/><path class="cls-31" d="M205.49,205.14c.43-2.23.58-9.3,1.24-17.73.1-1.34-2.73-.38-3.56,1.26-1.78,3.5-1.24,4.85-2.3,6.57s-2.55,1.12-4-.12c-5.23-8-7.38-13.17-10.25-12.86-2.33.63.53,6.64,4.06,13.26-6.25-5.23-11.7-8.91-12.81-7.08-1.32,2.17,4,6.79,8.45,11.41-6.18-.74-12.37-3.27-12.76,0-.29,2.36,12.46,5.42,11.22,7.33-.43.68-1.68.83-3.6,1.14-1.68.26-4.19.58-5.11,1.48s0,1.95,2,2.32c3.21.62,10.51,1.76,14.18,2.06,2.13.32,3.91.75,5.83,0"/><path class="cls-31" d="M199.87,196.17c-.36.1-5.27,1-3.8,7.67"/><path class="cls-32" d="M244.34,231.49l-7,10.23c-5-1.31-9.7-5.1-13.66-7.6a42.94,42.94,0,0,1,3.33-16.18c6.77,3.8,11.54,7.31,15.43,11.38a2.41,2.41,0,0,1-.91.51q.54-.18,1.08-.33A23.77,23.77,0,0,1,244.34,231.49Z"/><path class="cls-49" d="M230.6,217.27h0a55.11,55.11,0,0,0-4.7,22.27h0l13.88,7L237,290.89a38.35,38.35,0,0,0,29.91,6.79c17.45-3.45,21.16-6.78,21.16-6.78s-4.44-29.34-4.74-34.67c-.11-2,4.59,1.58,5-.91l6.58-16.54L273.66,231a.61.61,0,0,0-.7.22c-.82,1.15-3.84,4.4-11.14,3.61-8.82-1-10.17-6-10.17-6Z"/><path class="cls-50" d="M239.59,255.29s11.89,9,43.48,3.74l.65,5s-25,7.57-44.54-3.35Z"/><path class="cls-50" d="M238.81,266.52S253.37,275,285,269.71l.76,5.36S258,282.92,238.43,272Z"/><path class="cls-31" d="M285.7,273.13c0-.89,3.7,4.9,4.55,10.56s-4.31,9.08-9,8.32c-4.28-.68-.75-2.72-.08-3.09,0,0,0-.05,0-.05-.85,0-5.9-.32-1.14-3.9a.08.08,0,0,0,0-.14c-1-.08-5.8-.66-2.76-4a2.74,2.74,0,0,1,1.17-.38C288.35,279.46,285.74,277.09,285.7,273.13Z"/><path class="cls-33" d="M360.11,233.72c-.55.36-4.14-3.15-4.14-3.15l2.56-3a3.83,3.83,0,0,0,.45-.78,6.65,6.65,0,0,0,.25-5.36c-1.31-3.5,17,0,17,0a5.06,5.06,0,0,0,0,3.7,7.15,7.15,0,0,0,1.32,2.22C380.06,230.35,360.66,233.36,360.11,233.72Z"/><path class="cls-30" d="M375.91,224.93c-.38.11-.22.31-.53.54-2.75,2-6.87,2.67-11.35,2.5a14.69,14.69,0,0,1-4.76-1.14,6.73,6.73,0,0,0,.25-5.36c-1.32-3.5,16.64-.37,16.64-.37A5.05,5.05,0,0,0,375.91,224.93Z"/><path class="cls-31" d="M430.22,204.81c-9.3,5.15-15.35,13.17-24.15,18-2.37,1.31-6.46,4.32-9.34,5.06l-3.54-9.38a28.75,28.75,0,0,1,7.1-6.22c6.65-4.42,15.92-8.65,24.82-14.24C426,197.53,431.11,204.31,430.22,204.81Z"/><path class="cls-31" d="M421.53,200.25c-.32-1.63-.43-6.79-.91-12.94-.08-1,2-.28,2.6.92,1.29,2.55.9,3.54,1.67,4.8s1.86.81,2.91-.09c3.82-5.84,5.39-9.61,7.48-9.39,1.7.46-.38,4.85-3,9.68,4.56-3.82,8.54-6.5,9.35-5.17.95,1.59-2.92,4.95-6.17,8.33,4.51-.54,9-2.39,9.31,0,.21,1.73-9.09,4-8.19,5.35.32.5,1.23.61,2.63.83,1.22.19,3.06.43,3.73,1.08s0,1.42-1.45,1.7c-2.35.45-7.67,1.28-10.35,1.5-1.55.23-2.85.55-4.25,0"/><path class="cls-31" d="M425.62,193.7c.26.08,3.85.72,2.77,5.59"/><path class="cls-30" d="M403.28,223.92c-2.36,1.31-2.71,2.09-5.59,2.84l-5.07-7.47a28.94,28.94,0,0,1,7.1-6.22C401,215.38,402.81,222.62,403.28,223.92Z"/><path class="cls-51" d="M395.69,214.27h0a24,24,0,0,1,4.16,12.58l.06,1.41-13.79,12.31,3.54,41.58S383.92,294,368.72,294c-16.23,0-24.37-9-24.37-9s3.6-31.54,3.86-36.1c0-.07,0-.14,0-.23a14.42,14.42,0,0,0-7-12.93h0c-1.17-.7-.25-2.41,1-2.88l.7-.47a32.75,32.75,0,0,1,13.91-5.18h0s2.2,4.23,9.74,3.42,9.6-5.6,9.6-5.6Z"/><path class="cls-52" d="M348.69,248.66c-.26.49,29.53,7.35,37.46-7.65L398,289.17S371.2,311,343.34,288.9Z"/><path class="cls-52" d="M353.8,227.36s2.18,18.82,3.26,24.47l-3.26,4.09-2.63-3.71s-1.13-14.05.26-24.22Z"/><path class="cls-52" d="M378.22,223.9s-.6,19.49-1,28l3.37,2,1.82-3.26s1.06-18.11-2.48-27.68Z"/><path class="cls-51" d="M342.23,232.86c-1.79-.91-9,22.63-7.83,23.07.57.21,3.21,2.68,6.56,3.42a23.46,23.46,0,0,0,8.26,0s1.91-9.1-.11-16.91"/><circle class="cls-53" cx="379.1" cy="274.21" r="3.76"/><circle class="cls-53" cx="378.56" cy="261.5" r="3.76"/><circle class="cls-53" cx="387.51" cy="267.78" r="3.76"/><circle class="cls-53" cx="353.8" cy="264.02" r="3.76"/><circle class="cls-53" cx="379.99" cy="286.75" r="3.76"/><circle class="cls-53" cx="365.81" cy="287.39" r="3.76"/><circle class="cls-53" cx="352.87" cy="284.26" r="3.76"/><circle class="cls-53" cx="390.38" cy="276.62" r="3.76"/><circle class="cls-53" cx="358.34" cy="274.21" r="3.76"/><circle class="cls-53" cx="369.66" cy="275.71" r="3.76"/><circle class="cls-53" cx="365.9" cy="264.02" r="3.76"/><circle class="cls-53" cx="372.04" cy="255.27" r="3.76"/><circle class="cls-53" cx="362.05" cy="255.59" r="3.76"/><ellipse class="cls-53" cx="386.07" cy="255.59" rx="3.16" ry="3.76"/><ellipse class="cls-53" cx="348.82" cy="276.05" rx="2.87" ry="3.41"/><ellipse class="cls-53" cx="391.27" cy="284.63" rx="2.87" ry="3.41"/><path class="cls-31" d="M287.32,275.71a10.27,10.27,0,0,0-.09-6.11c-.49-1.33-3.62-1.59-2.47,2.39,1.44,5.05,1.36,5,1.36,5"/><path class="cls-54" d="M260.41,200s.48,2.51,4.22,2.6,4.45-2.6,4.45-2.6S265.28,203.72,260.41,200Z"/><path class="cls-55" d="M239.63,238.05l-.49,15.31"/><path class="cls-55" d="M283.36,256.88a37.3,37.3,0,0,1,.29-5.39,32.45,32.45,0,0,0,.27-11.29"/><path class="cls-56" d="M294.6,257.72a11,11,0,0,1,4.33-5.61"/><path class="cls-32" d="M301.47,190.78a1.84,1.84,0,0,1,2.19-.65,2.24,2.24,0,0,1,1,1.48,10.59,10.59,0,0,1-.17,5.21c-.49,2.07-1.37,4.28-3.26,5.26a.82.82,0,0,1-.54.13c-.43-.08-.52-.64-.52-1.07v-1.79a2.24,2.24,0,0,1,.2-1.12,2.57,2.57,0,0,1,.86-.74,2.69,2.69,0,0,0,1.24-1.54,1.36,1.36,0,0,0-.5-1.38c-.4-.27-1.18.07-1.47-.26C300,193.74,301.05,191.31,301.47,190.78Z"/><path class="cls-57" d="M419.27,74.74,410,74.33l-33-1.38L345.4,71.61l-74.16-3.15-32-1.33-38.73-1.66-3.92-.16s-365.07-410.65-336.06-616C-123.76-661.37-71-718.93-25.62-748.53a.49.49,0,0,1,.13-.1c38.73-25.17,72-30,72-30a229.62,229.62,0,0,1,33.68-17.94h0c47.75-20.52,88.54-17.85,109.63-14.06a101.67,101.67,0,0,1,15.41,3.74c115.84-51.24,188.71-4.94,201.33,4.16,1.32,1,2,1.49,2,1.49,52.33-17.72,99.31-8.75,129.16,1.63,21,7.31,33.46,15.32,33.46,15.32,31.68,11.8,58.18,26,80.26,42.16l0,0a.6.6,0,0,1,.14.13C950.53-521.45,419.27,74.74,419.27,74.74Z"/><path class="cls-58" d="M429-535.59C429-298.27,389.51-29,345.4,71.61l-74.16-3.15c-36.18-83.13-64.63-275-86.13-497-17.42-180-11.93-301.06,4.69-382.08a101.67,101.67,0,0,1,15.41,3.74c115.84-51.24,188.71-4.94,201.33,4.16C420.28-735.37,429-646.82,429-535.59Z"/><path class="cls-58" d="M410,74.33l-33-1.38c322.78-526,230-827.07,167.49-870L651.4-742.1l0,0c.06.05-54.26-30.58-54.24-30.53C908.15-554.44,498.78-32.89,410,74.33Z"/><path class="cls-58" d="M239.28,67.13l-38.73-1.66C99.4-58.65-261.7-535.43-25.62-748.53a.49.49,0,0,1,.13-.1c38.73-25.17,72-30,72-30,11.49-7.37-4.76.85,6.15-3.82C14.05-711.52-68.17-442.8,239.28,67.13Z"/><ellipse class="cls-59" cx="312.5" cy="68.16" rx="114.63" ry="19.97"/><path class="cls-56" d="M281.13,288.87a41.49,41.49,0,0,0,6.74-1.77"/><path class="cls-60" d="M403.75,398.21h0c-59.82,5.33-113.52,6.5-176.33,1.62h0c-17.57-2.92-30.11-12-31.33-22.68l-8.37-73.62H433.84L427,380.58C426.25,388.72,417,395.74,403.75,398.21Z"/><rect class="cls-61" x="206.71" y="314.49" width="24.41" height="4.27" rx="2.1"/><rect class="cls-61" x="206.71" y="327.89" width="24.41" height="4.27" rx="2.1"/><rect class="cls-61" x="206.71" y="341.29" width="24.41" height="4.27" rx="2.1"/><rect class="cls-61" x="206.71" y="354.69" width="24.41" height="4.27" rx="2.1"/><rect class="cls-61" x="206.71" y="368.1" width="24.41" height="4.27" rx="2.1"/><rect class="cls-61" x="206.71" y="381.5" width="24.41" height="4.27" rx="2.1"/><rect class="cls-61" x="243.32" y="314.49" width="24.41" height="4.27" rx="2.1"/><rect class="cls-61" x="243.32" y="327.89" width="24.41" height="4.27" rx="2.1"/><rect class="cls-61" x="243.32" y="341.29" width="24.41" height="4.27" rx="2.1"/><rect class="cls-61" x="243.32" y="354.69" width="24.41" height="4.27" rx="2.1"/><rect class="cls-61" x="243.32" y="368.1" width="24.41" height="4.27" rx="2.1"/><rect class="cls-61" x="243.32" y="381.5" width="24.41" height="4.27" rx="2.1"/><rect class="cls-61" x="279.93" y="314.49" width="24.41" height="4.27" rx="2.1"/><rect class="cls-61" x="279.93" y="327.89" width="24.41" height="4.27" rx="2.1"/><rect class="cls-61" x="279.93" y="341.29" width="24.41" height="4.27" rx="2.1"/><rect class="cls-61" x="279.93" y="354.69" width="24.41" height="4.27" rx="2.1"/><rect class="cls-61" x="279.93" y="368.1" width="24.41" height="4.27" rx="2.1"/><rect class="cls-61" x="279.93" y="381.5" width="24.41" height="4.27" rx="2.1"/><rect class="cls-61" x="316.54" y="314.49" width="24.41" height="4.27" rx="2.1"/><rect class="cls-61" x="316.54" y="327.89" width="24.41" height="4.27" rx="2.1"/><rect class="cls-61" x="316.54" y="341.29" width="24.41" height="4.27" rx="2.1"/><rect class="cls-61" x="316.54" y="354.69" width="24.41" height="4.27" rx="2.1"/><rect class="cls-61" x="316.54" y="368.1" width="24.41" height="4.27" rx="2.1"/><rect class="cls-61" x="316.54" y="381.5" width="24.41" height="4.27" rx="2.1"/><rect class="cls-61" x="353.38" y="314.49" width="24.41" height="4.27" rx="2.1"/><rect class="cls-61" x="353.38" y="327.89" width="24.41" height="4.27" rx="2.1"/><rect class="cls-61" x="353.38" y="341.29" width="24.41" height="4.27" rx="2.1"/><rect class="cls-61" x="353.38" y="354.69" width="24.41" height="4.27" rx="2.1"/><rect class="cls-61" x="353.38" y="368.1" width="24.41" height="4.27" rx="2.1"/><rect class="cls-61" x="353.38" y="381.5" width="24.41" height="4.27" rx="2.1"/><rect class="cls-61" x="390.23" y="314.49" width="24.41" height="4.27" rx="2.1"/><rect class="cls-61" x="390.23" y="327.89" width="24.41" height="4.27" rx="2.1"/><rect class="cls-61" x="390.23" y="341.29" width="24.41" height="4.27" rx="2.1"/><rect class="cls-61" x="390.23" y="354.69" width="24.41" height="4.27" rx="2.1"/><rect class="cls-61" x="390.23" y="368.1" width="24.41" height="4.27" rx="2.1"/><rect class="cls-61" x="390.23" y="381.5" width="24.41" height="4.27" rx="2.1"/><rect class="cls-62" x="167.29" y="288.42" width="288.38" height="19.24" rx="9.46"/><rect class="cls-63" x="173.92" y="289.62" width="272.47" height="9.62" rx="4.73"/><path class="cls-64" d="M415.11,68.39c0,9-45.88,16.38-102.47,16.38S210.17,77.44,210.17,68.39c0-8.09,36.66-14.81,84.88-16.14,5.71-.15,11.59-.24,17.59-.24q3.6,0,7.14,0C373.05,52.64,415.11,59.73,415.11,68.39Z"/><path class="cls-56" d="M280,284.83a29.57,29.57,0,0,0,8.31-2.34"/><path class="cls-32" d="M225.38,192.84a2,2,0,0,0-2.43-.39,2.33,2.33,0,0,0-.88,1.62,10.29,10.29,0,0,0,.8,5.26c.76,2,2,4.17,4.1,4.94a1,1,0,0,0,.6.06c.45-.13.48-.71.43-1.15l-.21-1.81a2.19,2.19,0,0,0-.36-1.12,2.71,2.71,0,0,0-1-.63,2.77,2.77,0,0,1-1.51-1.42,1.37,1.37,0,0,1,.37-1.46c.4-.32,1.28-.07,1.55-.45C227.3,195.66,225.89,193.32,225.38,192.84Z"/><path class="cls-65" d="M392.54,166.37c.83,6.73,2.36,24.64,1.37,32.79-2.24,18.33-22.24,24.89-26.09,25.16-6.21.44-20-.46-27.66-9.64s-9.81-26.59-9.81-26.59-6.87-17,3.55-31.3,23.23-16.49,37.75-13.95C389.38,145.93,392.54,166.37,392.54,166.37Z"/><path class="cls-66" d="M349.94,174.93s-6.32-.06-8.62,4.51a.21.21,0,0,1-.4,0c-.11-1.26.16-3.93,3.87-5.29C350.63,172,349.94,174.93,349.94,174.93Z"/><path class="cls-66" d="M374.21,173.41s6.21-1.54,9.57,2.36a.21.21,0,0,0,.38-.14c-.2-1.25-1.09-3.78-5.07-4.23C372.82,170.68,374.21,173.41,374.21,173.41Z"/><path class="cls-67" d="M340.46,186.41a7,7,0,0,1,3.14-4.62,11.31,11.31,0,0,1,5.18-1.6,6.92,6.92,0,0,1,3.52.39,6,6,0,0,1,2.31,2,7.47,7.47,0,0,1,.91,7.31c-1.09,2.28-3.93,3.48-6,2.23a12.07,12.07,0,0,1-1.82-1.54,4.07,4.07,0,0,0-2-1.14,1.71,1.71,0,0,0-1.87,1.09c-.21.67.2,1.83-.37,2.33s-1.18,0-1.58-.34C340.55,191.25,340.18,188.13,340.46,186.41Z"/><path class="cls-68" d="M355.8,188.38c.27,3.81-2.79,6.08-7,6.38a9,9,0,0,1-3.66-.41,5.18,5.18,0,0,1-3.54-4.87,6.69,6.69,0,0,1,1.59-4.6,8.63,8.63,0,0,1,6-3.2C353.37,181.38,355.53,184.66,355.8,188.38Z"/><circle class="cls-69" cx="348.67" cy="188.29" r="4.02"/><circle class="cls-70" cx="350.74" cy="186.85" r="1.24"/><path class="cls-67" d="M369.69,184.62a7,7,0,0,1,3.14-4.61,11.26,11.26,0,0,1,5.18-1.6,7,7,0,0,1,3.52.38,5.93,5.93,0,0,1,2.31,2,7.45,7.45,0,0,1,.91,7.3c-1.09,2.29-3.93,3.49-6,2.24a12.05,12.05,0,0,1-1.82-1.55,3.94,3.94,0,0,0-2-1.13,1.73,1.73,0,0,0-1.87,1.08c-.21.67.2,1.84-.36,2.34s-1.19,0-1.59-.34C369.78,189.46,369.41,186.35,369.69,184.62Z"/><path class="cls-68" d="M385,186.59c.27,3.82-2.78,6.09-7,6.39a9.17,9.17,0,0,1-3.66-.41,5.21,5.21,0,0,1-3.54-4.88,6.64,6.64,0,0,1,1.6-4.59,8.61,8.61,0,0,1,6-3.2C382.6,179.6,384.77,182.88,385,186.59Z"/><circle class="cls-69" cx="377.88" cy="186.21" r="4.02"/><circle class="cls-70" cx="379.97" cy="185.07" r="1.24"/><path class="cls-67" d="M353.52,206.24a9.29,9.29,0,0,1-1.41-.62,3.46,3.46,0,0,0-1.5-.25c-.67,0-1.43.41-1.47,1s.43.89.89,1.13a4.31,4.31,0,0,0,2.65.37,1.31,1.31,0,0,0,1-.57c.16-.33-.17-.83-.55-.71Z"/><path class="cls-67" d="M375.22,203.86a4.52,4.52,0,0,1,.91-1.05,1.87,1.87,0,0,1,.79-.47,1.44,1.44,0,0,1,1.58.69,1.71,1.71,0,0,1-.1,1.69,3.27,3.27,0,0,1-1.4,1.19,2.35,2.35,0,0,1-1.21.31,1.09,1.09,0,0,1-1-.63,1,1,0,0,1,.38-1.07,3.54,3.54,0,0,1,1.11-.57Z"/><path class="cls-71" d="M351.87,206.91s-.91-.8.52-.56c2,.33,7.32,2.4,14.71.84,5.68-1.2,8.61-3,9.66-3.71a.24.24,0,0,1,.39.21,15.63,15.63,0,0,1-6.62,10,10.78,10.78,0,0,1-8.75,1C358.75,213.6,356,211.84,351.87,206.91Z"/><path class="cls-70" d="M355,207.63c.15,0,8.93,3.56,19.29-2.18,0,0-1,3.88-7.58,5.29A12.4,12.4,0,0,1,355,207.63Z"/><path class="cls-41" d="M366.19,214.36a6.92,6.92,0,0,1-4.38-.81c.6-.87,1.29-1.09,2.63-1.59,1.93-.73,4.62,0,6,.69C369.46,213.64,368.36,214,366.19,214.36Z"/><path class="cls-72" d="M359.66,199.21c2.27,2.57,6.15,2.67,7.82-.49"/><path class="cls-73" d="M359.66,199.21a7,7,0,0,0,4.08,1.4,4.42,4.42,0,0,0,2-.5,6.53,6.53,0,0,0,1.74-1.39,3.67,3.67,0,0,1-1.32,2.05,4,4,0,0,1-2.4.84A4.57,4.57,0,0,1,359.66,199.21Z"/><path class="cls-28" d="M370.58,159.16s-2,6.75-11.82,11.13a8.36,8.36,0,0,0,1.5-9s0,11.48-13.61,12.29l3.44-8.84L340,177.77l.57-9.42s-12.53,29.49-16.8,30.14c0,0-11.34-31.12,11.41-51.94s51-2.48,51-2.48,21.11,16.66,12.93,44.53c0,0-6.44,2-7.44.75s-.16-5-4.37-14.42A31.09,31.09,0,0,0,370.58,159.16Z"/><path class="cls-72" d="M332,191.26c0-.11.19.13.06.15s-.23-.11-.28-.22a8.43,8.43,0,0,0-2.94-3.32,4.17,4.17,0,0,0-3.08-.83c-1.52.33-2.25,1.87-2.46,3.26a11,11,0,0,0,1.18,6.65c1.88,3.62,6.1,6.5,10.48,6.19"/><path class="cls-74" d="M332,191.26c.06-.09.18.08.1.15a.22.22,0,0,1-.26-.06,3.49,3.49,0,0,1-.28-.43,8,8,0,0,0-.58-.82,8.42,8.42,0,0,0-1.42-1.38,5,5,0,0,0-3.45-1.34,2.86,2.86,0,0,0-2.23,2.45,9.45,9.45,0,0,0,0,3.82,11.61,11.61,0,0,0,3.83,6.63,11.41,11.41,0,0,0,7.26,2.86,9.71,9.71,0,0,1-4.07-.34,12.3,12.3,0,0,1-3.67-1.93,11.45,11.45,0,0,1-4.34-7,10.45,10.45,0,0,1,.08-4.24,4.86,4.86,0,0,1,1-2,3,3,0,0,1,2-1,5.5,5.5,0,0,1,3.84,1.74,8.39,8.39,0,0,1,1.32,1.6,7.92,7.92,0,0,1,.5.9,2.67,2.67,0,0,0,.21.45c0,.06.12.11.18.08S332,191.18,332,191.26Z"/><path class="cls-67" d="M328,192.24a11.61,11.61,0,0,1,1.25,1.37c.31.38.59.94.28,1.32s-.81.3-1,.64.07.84.45,1,.82.22,1.2.39a1.67,1.67,0,0,1,1,1.36,1.1,1.1,0,0,1-.09.6,1.14,1.14,0,0,1-1.37.45,3.17,3.17,0,0,1-1.24-.92,11.59,11.59,0,0,1-2.08-2.8C325.51,194.08,325,189.44,328,192.24Z"/><path class="cls-75" d="M332.71,200.79s3,5,0,6.22-2.62-4.78-2.62-4.78,1.29,4.88,2,1.72Z"/><path class="cls-72" d="M393.08,185c-.07-.1-.17.15,0,.16s.21-.15.24-.27a8.6,8.6,0,0,1,2.44-3.7,4.16,4.16,0,0,1,2.94-1.25c1.54.11,2.48,1.53,2.89,2.88a11,11,0,0,1-.23,6.74c-1.35,3.86-5.11,7.3-9.5,7.61"/><path class="cls-74" d="M393.08,185c-.09-.07-.12.12-.07.13s.14,0,.17-.11a3,3,0,0,0,.14-.48,8.63,8.63,0,0,1,.37-1,8.92,8.92,0,0,1,1.08-1.77,5.55,5.55,0,0,1,3.56-2.26,3,3,0,0,1,2.16.72,4.65,4.65,0,0,1,1.29,1.8,10.09,10.09,0,0,1,.68,4.19,11.42,11.42,0,0,1-3.29,7.57,12.32,12.32,0,0,1-3.36,2.43,9.8,9.8,0,0,1-4,.91,11.32,11.32,0,0,0,6.78-3.86,11.62,11.62,0,0,0,2.87-7.09,9.68,9.68,0,0,0-.56-3.79,2.87,2.87,0,0,0-2.55-2.11,5,5,0,0,0-3.22,1.81,8.92,8.92,0,0,0-1.22,1.57,7.56,7.56,0,0,0-.45.9,4.81,4.81,0,0,1-.22.46.2.2,0,0,1-.25.1C392.91,185.05,393,184.87,393.08,185Z"/><path class="cls-67" d="M397.17,185.35a13.28,13.28,0,0,0-1,1.53c-.25.43-.45,1-.09,1.35s.85.18,1.12.49,0,.84-.3,1.08-.78.33-1.13.55a1.7,1.7,0,0,0-.77,1.49,1.07,1.07,0,0,0,.18.58,1.13,1.13,0,0,0,1.41.25,3.1,3.1,0,0,0,1.1-1.09,11.68,11.68,0,0,0,1.67-3.06C399.86,186.82,399.71,182.16,397.17,185.35Z"/><path class="cls-75" d="M393.69,194.49s-2.29,5.4.88,6.15,1.92-5.1,1.92-5.1-.58,5-1.69,2Z"/><path class="cls-76" d="M327.79,187.24s-5.69-20.89,9.88-37.13,39.78-9.47,48.56,1.77c12,15.34,8.3,30.9,8.3,30.9"/><path class="cls-77" d="M333.39,152.75S332,134,339.25,140.6s9.44,14.64-3.77,15.8c-2.31.2-3.38.91-3.93,3.12-1.26,5-2.52,23.64-14.5,3.67-8-13.4,13.07-5.5,13.07-5.5S327,151.93,333.39,152.75Z"/><ellipse class="cls-78" cx="318.83" cy="159.31" rx="1.25" ry="1.45" transform="translate(-22.91 58.08) rotate(-10.05)"/><ellipse class="cls-78" cx="328.2" cy="164.14" rx="1.25" ry="1.45" transform="translate(-23.61 59.79) rotate(-10.05)"/><ellipse class="cls-78" cx="338.34" cy="148.02" rx="1.25" ry="1.45" transform="translate(-20.64 61.31) rotate(-10.05)"/><ellipse class="cls-78" cx="342.1" cy="149.11" rx="1.25" ry="1.45" transform="translate(-20.77 61.98) rotate(-10.05)"/><ellipse class="cls-78" cx="340.96" cy="144.83" rx="1.25" ry="1.45" transform="translate(-20.04 61.72) rotate(-10.05)"/><ellipse class="cls-78" cx="338.44" cy="142.17" rx="1.25" ry="1.45" transform="translate(-19.62 61.24) rotate(-10.05)"/><ellipse class="cls-78" cx="340.43" cy="153.36" rx="1.25" ry="1.45" transform="translate(-21.54 61.76) rotate(-10.05)"/><ellipse class="cls-78" cx="335.59" cy="142.37" rx="1.25" ry="1.45" transform="translate(-19.7 60.74) rotate(-10.05)"/><ellipse class="cls-78" cx="334.9" cy="148.26" rx="1.25" ry="1.45" transform="translate(-20.73 60.71) rotate(-10.05)"/><ellipse class="cls-78" cx="337.26" cy="152.99" rx="1.25" ry="1.45" transform="translate(-21.52 61.2) rotate(-10.05)"/><ellipse class="cls-78" cx="322.93" cy="157.57" rx="1.25" ry="1.45" transform="translate(-22.54 58.77) rotate(-10.05)"/><ellipse class="cls-78" cx="323.61" cy="167.12" rx="1.25" ry="1.45" transform="translate(-24.2 59.03) rotate(-10.05)"/><ellipse class="cls-78" cx="319.92" cy="164.73" rx="1.25" ry="1.45" transform="translate(-23.84 58.35) rotate(-10.05)"/><ellipse class="cls-78" cx="323.77" cy="162.3" rx="1.25" ry="1.45" transform="translate(-23.35 58.99) rotate(-10.05)"/><ellipse class="cls-78" cx="326.81" cy="169.57" rx="1.25" ry="1.45" transform="matrix(0.98, -0.17, 0.17, 0.98, -24.58, 59.63)"/><ellipse class="cls-78" cx="327.33" cy="159.27" rx="1.25" ry="1.45" transform="translate(-22.77 59.56) rotate(-10.05)"/><polygon class="cls-27" points="410.13 65.06 431.64 288.56 435.61 288.56 413.27 65.06 410.13 65.06"/><polygon class="cls-27" points="210.16 64.83 188.66 288.33 184.68 288.33 207.03 64.83 210.16 64.83"/><path class="cls-79" d="M319.5,55.46a.63.63,0,0,1,1.12.57c-1.69,4.72-4.61,11.25-7.54,12.12s-6.32.6-9.07,2.06c-2.06,1.11-3.52,3.06-4.9,5,.62-3.15.91-7.14-1.83-8.82-4.76-2.92-9-20.22-1.35-11,4.72,3.84,2.18-2.83,8.18-2.83,2.4,0,9.6,0,12,0-.17,1.19-1.78,7.66-2.18,8.8A4.53,4.53,0,0,1,311,64.14C313.77,64.21,317,59.14,319.5,55.46Z"/><path class="cls-80" d="M313.76,58.18a.39.39,0,0,1,.69.35c-1,2.89-2.83,6.89-4.62,7.42s-3.87.36-5.55,1.26a9.86,9.86,0,0,0-3,3c.38-1.92.56-4.36-1.12-5.39-2.91-1.79-7.3-13.83-1.06-5.26,2.89,2.35,5.78-6,9.45-6,1.47,0,0,0,1.47,0,2.17.87.55,7.48.31,8.18a2.8,2.8,0,0,1-1.79,1.76C310.26,63.54,312.21,60.44,313.76,58.18Z"/><path class="cls-81" d="M339.65,84.73c-1.91-1.32-18.56-10.38-19-10.63a4.08,4.08,0,0,1,.74-.29l.86-1c.36.1,18.45,10.34,20.29,11.61Z"/><path class="cls-81" d="M277.69,84.07l-2.87-.18c1.46-1,17.48-11.56,17.88-11.66l2.86.51-.71.15C294.45,73.16,279.26,82.94,277.69,84.07Z"/><path class="cls-82" d="M289.32,64.85v8.2H325.1V64.21s-2.35-1.07-7.82-1.39a126.66,126.66,0,0,0-23.46.43S290.39,63.46,289.32,64.85Z"/><ellipse class="cls-83" cx="307.21" cy="72.23" rx="17.89" ry="3.55"/><path class="cls-83" d="M324.18,68.67c.57,0,62.06-10.27,64.86-11"/><path class="cls-81" d="M324.17,69.59v-.92l-.07-.9c.39,0,60.2-9.93,63.32-10.77l3.41,1C388.91,58.48,325.29,69.59,324.17,69.59Z"/><path class="cls-83" d="M290.9,67.81c-.58,0-53.57-7.89-59.95-8"/><path class="cls-81" d="M290.9,68.72c-.18,0-.75-.08-8.22-1.16-15.24-2.19-49.53-7.66-54.32-7.73l3.86-1.1c4.91.07,35.44,4.83,50.72,7,4.31.62,7.72,1.11,8,1.14Z"/><path class="cls-29" d="M331.9,286.41c-1.69.4-5.34,2.43-5.61,4.79s.45,6.43,3.5,5.41,1.9-5.61,2.91-4.31c1.29,1.68,6.78.75,6.89,0,0,0,2,2,4,.39,0,0,1.47-1.62-.82-1.89s-2.81-4.59-5.31-4.05"/><path class="cls-29" d="M335.41,290.53s.35,5.92,2.77,6.55c1.61.43,1.63-5.06.68-7.16"/><path class="cls-29" d="M328.65,291.2c-.06.21-.49,6.9,2.33,5.21s.85-5.21.85-5.21"/><path class="cls-29" d="M334.81,290.87a4,4,0,0,0-1,3.11c.14,2-.54,3.71-1.69,3.51s-1.82-1.82-1.35-6.62"/><path class="cls-84" d="M1212,590c6.25-15.43,21.72-23.95,41.67-19.1s67.16,17.09,90.66,9.44c2,23.48-8.76,44.13-36.85,57.24s-57.51-2-71.53-9.55c-22.69-12.28-22.48-19.67-25.11-29.78A19.12,19.12,0,0,1,1212,590Z"/><path class="cls-85" d="M1257.26,573.85c4.86-12.82-10.19-49.83-7.94-57.67s13.43,1.37,15.33,7.37c2.36-5.4,10.76-5.39,13.59,4.38,5.85-3.55,14.52-2.71,14.39,9.12,7.27-5.48,11.24,9.36,8,24.31s-14.39,29.17-20.7,30.52S1257.26,573.85,1257.26,573.85Z"/><path class="cls-86" d="M1263.71,551.07c2.52-3.42,5.19-2.06,7.24,2.15,2.77-4.52,7.16-1.86,8.37,2.81,1.28-4.32,5.7-1.92,6.53,3.08,2.35-4.64,5.61-1.29,5.11,4.08,3.31-3.61,5.29,3,5.24,6.85a1.66,1.66,0,0,1,1.71,0c-4.7,11.4-12.9,20.78-18,21.87-6.3,1.35-22.68-18-22.68-18,1.77-4.67.89-12.56-.82-21.07C1258,548.24,1262.67,547.66,1263.71,551.07Z"/><path class="cls-87" d="M1259.81,545.48s-.28-1.56-.71-3.88-1-5.43-1.67-8.52c-.32-1.55-.65-3.09-1-4.53-.17-.72-.32-1.42-.48-2.08s-.31-1.28-.46-1.85-.28-1.1-.43-1.56-.24-.87-.35-1.2l-.36-1,.34,1c.1.33.2.74.33,1.2s.25,1,.39,1.56.27,1.2.43,1.86.28,1.37.44,2.09c.29,1.45.59,3,.89,4.55.57,3.1,1.11,6.21,1.49,8.54s.63,3.89.63,3.89h0a.24.24,0,0,0,.28.21.25.25,0,0,0,.21-.29Z"/><path class="cls-87" d="M1270.21,548.94s0-.35,0-1,0-1.48,0-2.53,0-2.27-.06-3.58c0-.66,0-1.33,0-2s0-1.38-.08-2.08,0-1.39-.09-2.08-.07-1.36-.11-2-.08-1.29-.13-1.89-.1-1.16-.14-1.68-.09-1-.15-1.42-.11-.79-.15-1.09c-.08-.61-.12-1-.12-1s0,.35.1,1c0,.3.07.67.12,1.1a13.75,13.75,0,0,1,.12,1.42c0,.52.07,1.08.1,1.68s.08,1.23.1,1.88,0,1.33.06,2,0,1.38,0,2.08l0,2.08c0,.68,0,1.36,0,2,0,1.31,0,2.53,0,3.58s0,1.91,0,2.52,0,1,0,1a.26.26,0,0,0,.25.26.26.26,0,0,0,.26-.24Z"/><path class="cls-88" d="M1284.21,611.17c-17.81-.22-35.08-13.27-41.3-19.75s-15.22-8.94-22.52,1.93c-3.62,5.37-7.57,3.2-10.13,1.93-.15-1.86,1.76-5.24,1.76-5.24,6.25-15.43,21.72-23.95,41.67-19.1s67.16,17.09,90.66,9.44a62.92,62.92,0,0,1,.22,6.7C1332.05,607.62,1301.62,611.38,1284.21,611.17Z"/><path class="cls-89" d="M1210.26,595.28c2.56,1.27,6.51,3.44,10.13-1.93,7.3-10.87,16.3-8.41,22.52-1.93a68.42,68.42,0,0,0,10.25,8.46c7,22.09-16.83,15.27-19.68,13-6.38-5.14-17.6-3.15-17.13.17-3.51-4.89-4.11-9.44-5.49-14.73A24.45,24.45,0,0,1,1210.26,595.28Z"/><path class="cls-90" d="M1233.48,612.85c2.85,2.3,26.65,9.12,19.68-13,8.22,5.63,19.52,11.15,31,11.29,17.41.21,47.84-3.55,60.36-24.09-.42,20.68-11.68,38.69-37.07,50.54-28.09,13.12-57.51-2-71.53-9.55-10.81-5.86-16.42-10.6-19.62-15.05C1215.88,609.7,1227.1,607.71,1233.48,612.85Z"/><path class="cls-85" d="M1265.79,602.82c22.83-15.75,25.67-33.07,36.18-50.7s33.68-46.47,32.92-24.8c12-6.34,10.3,13.68,6.47,21.93,8.34-2.26,6.69,10.46-1.29,17.77,5.13,1.12,3.76,13.54-4.63,18.86,1.56,2.51,1.28,10.64-12.06,17.79C1291,621,1254.73,610.46,1265.79,602.82Z"/><path class="cls-91" d="M1265.79,602.82c19.29-13.31,24.31-27.74,31.74-42.53,2.24-1.15,4-.24,2.88,5.17,3.44-2.67,5.25.74,3.19,5.11,3.83-1.84,3.47,3.72.92,6.76,4.18-.77,4.48,2.58,0,8.23,5.73-2,2.67,5.9-.63,8.84,6.09-1.61,4,4.8-1.72,7.91,2.59.36,2.89,4.91-2.61,9.55C1276,616,1257.45,608.58,1265.79,602.82Z"/><path class="cls-92" d="M1223.05,591.49a5.14,5.14,0,1,0,6.83-2.46A5.13,5.13,0,0,0,1223.05,591.49Z"/><path class="cls-93" d="M1224.13,592.11a3.38,3.38,0,1,0,4.5-1.62A3.37,3.37,0,0,0,1224.13,592.11Z"/><path class="cls-39" d="M1227.79,591.53a1.64,1.64,0,1,0,2.18-.79A1.64,1.64,0,0,0,1227.79,591.53Z"/><path class="cls-94" d="M1210,591.29s-8.62,1.92-8.27,2.89,8.86,7.14,10.47,6.82c1.11-.23,3.23-2.53,3.63-3.69s-1.73-1.75-2.28-2.27S1212,590.82,1210,591.29Z"/></g><g class="cls-95"><g class="cls-96"><rect class="cls-97" x="1109.19" y="-124.04" width="1668.71" height="945.92" transform="translate(3887.08 697.84) rotate(-180)"/><path class="cls-98" d="M1524.37,346.68c-1.39-34.8-105.25-46.38-143.6-52.92C1262.11,273.51,1156.45,339.12,1192,369c8,6.74,23.93,5.5,37.11,7.8,24.47,4.27,137,3.61,194.5,0C1435,376.08,1525.09,364.68,1524.37,346.68Z"/></g><path class="cls-57" d="M1680.66,107.82l-8.24-.35-29.37-1.24-28.2-1.19-66.07-2.8-28.47-1.19-34.5-1.48-3.5-.14s-325.23-365.84-299.38-548.76c14-98.62,61-149.9,101.38-176.27a.73.73,0,0,1,.13-.09c34.5-22.42,64.09-26.7,64.09-26.7a205.21,205.21,0,0,1,30-16h0c42.54-18.28,78.88-15.9,97.67-12.53a92.4,92.4,0,0,1,13.73,3.33c103.19-45.65,168.12-4.4,179.36,3.71,1.17.85,1.76,1.33,1.76,1.33,46.62-15.79,88.48-7.8,115.06,1.45,18.67,6.51,29.81,13.65,29.81,13.65,28.23,10.51,51.83,23.18,71.5,37.56l0,0,.12.12C2153.94-423.3,1680.66,107.82,1680.66,107.82Z"/><path class="cls-58" d="M1520.31,101.05l-34.5-1.48C1395.69-11,1074-435.76,1284.31-625.6a.73.73,0,0,1,.13-.09c34.5-22.42,64.09-26.7,64.09-26.7,10.24-6.56-4.24.76,5.48-3.41C1319.66-592.63,1246.41-353.24,1520.31,101.05Z"/></g><g class="cls-99"><g class="cls-100"><g id="Slide_1-2" data-name="Slide 1"><g class="cls-20"><rect class="cls-101" x="-1476.29" y="626.76" width="1668.71" height="926.47"/></g></g></g></g><g class="cls-102"><g class="cls-103"><g id="BG"><rect class="cls-104" x="-208" y="634" width="1721.08" height="693"/></g></g><path class="cls-57" d="M358.47,804.9l-6.12-.27-21.83-.92-21-.88-49.12-2.09-21.17-.88-25.65-1.1-2.59-.1s-241.78-272-222.56-407.95c10.37-73.32,45.34-111.44,75.36-131l.1-.07c25.64-16.67,47.64-19.85,47.64-19.85a151.94,151.94,0,0,1,22.31-11.87h0c31.62-13.6,58.63-11.83,72.6-9.32A67.58,67.58,0,0,1,216.71,221c76.71-33.94,125-3.27,133.34,2.75.87.64,1.3,1,1.3,1,34.66-11.73,65.78-5.79,85.54,1.08A114.82,114.82,0,0,1,459.05,236c21,7.81,38.53,17.23,53.16,27.92v0s.08.05.1.09C710.32,410.06,358.47,804.9,358.47,804.9Z"/><path class="cls-58" d="M364.89,400.69c0,157.18-26.13,335.47-55.33,402.14l-49.12-2.09c-24-55-42.8-182.15-57-329.14-11.54-119.19-7.9-199.38,3.1-253A67.58,67.58,0,0,1,216.71,221c76.71-33.94,125-3.27,133.34,2.75C359.15,268.38,364.89,327,364.89,400.69Z"/><path class="cls-58" d="M352.35,804.63l-21.83-.92C544.29,455.38,482.86,256,441.44,227.54l70.77,36.39v0s-35.93-20.26-35.92-20.22C682.25,388.21,411.13,733.62,352.35,804.63Z"/><path class="cls-58" d="M239.27,799.86l-25.65-1.1c-67-82.2-306.13-398-149.79-539.09l.1-.07c25.64-16.67,47.64-19.85,47.64-19.85,7.61-4.88-3.15.57,4.08-2.53C90.11,284.18,35.66,462.14,239.27,799.86Z"/></g><g class="cls-105"><g class="cls-106"><g id="BG-2" data-name="BG"><rect class="cls-107" x="1092" y="634" width="1721.08" height="693"/></g></g></g></g></g></svg>