<svg xmlns="http://www.w3.org/2000/svg" viewBox="0 0 1280 720"><defs><style>.cls-1{isolation:isolate;}.cls-2{fill:#00aff2;}.cls-3{opacity:0.06;}.cls-4,.cls-47{fill:#fff;}.cls-13,.cls-5,.cls-52{opacity:0.5;}.cls-5,.cls-6{font-size:80px;letter-spacing:0.08em;}.cls-5,.cls-6,.cls-7{font-family:SassoonSansUSBold, Sassoon Sans US;}.cls-6{fill:#fff800;}.cls-7{font-size:42.66px;fill:#323232;}.cls-53,.cls-8{fill:#ff0;}.cls-9{fill:#92ff9f;}.cls-10{fill:#999;}.cls-11{opacity:0.7;}.cls-12,.cls-63{fill:none;}.cls-12{stroke:#fff;stroke-width:4px;stroke-dasharray:15 6;}.cls-12,.cls-15,.cls-17,.cls-20,.cls-23,.cls-26,.cls-28,.cls-30,.cls-31,.cls-33,.cls-37,.cls-46,.cls-49,.cls-50,.cls-53,.cls-63{stroke-miterlimit:10;}.cls-14{fill:#003b49;}.cls-15,.cls-23{fill:#f23636;stroke:#a50e0e;}.cls-15{stroke-width:2.56px;}.cls-16{fill:#f4a800;}.cls-17,.cls-28,.cls-58{fill:#ea2424;}.cls-17,.cls-31,.cls-33{stroke:#000;}.cls-17,.cls-20,.cls-33{stroke-width:2px;}.cls-18{fill:#f95353;}.cls-19{fill:#b52121;}.cls-20,.cls-59{fill:#c4000c;}.cls-20{stroke:#680710;}.cls-21{fill:#e83d56;}.cls-22{fill:#ff83a1;}.cls-23{stroke-width:1.9px;}.cls-24{fill:#fc7c7c;}.cls-25{fill:#571094;}.cls-26{fill:#d6d6d0;stroke:#8e888a;}.cls-27{fill:#efefed;opacity:0.6;}.cls-28{stroke:#af0404;stroke-width:1.98px;}.cls-29{fill:#ff4824;}.cls-30{fill:#8b8c88;stroke:#383535;}.cls-31,.cls-33{fill:#32332e;}.cls-32{fill:#ff4821;}.cls-34{fill:#ff4822;}.cls-35,.cls-45{fill:#d7f7ff;}.cls-35{opacity:0.25;}.cls-36{fill:#9f1dfd;}.cls-37{fill:#25a4d6;stroke:#0b5b68;}.cls-38{fill:#9ae9f7;}.cls-39{fill:#defcff;}.cls-40{fill:#931ad8;}.cls-41{fill:#e5bfff;}.cls-42{fill:#5a1197;}.cls-43{fill:#941ad9;}.cls-44{fill:#b132ff;}.cls-45{opacity:0.37;}.cls-46{fill:#8aeeff;stroke:#044a66;stroke-width:1.61px;}.cls-47{mix-blend-mode:soft-light;}.cls-48{fill:#5c0f95;}.cls-49,.cls-50{fill:#ff9022;stroke:#c96a0a;}.cls-49{stroke-width:0.82px;}.cls-50{stroke-width:0.82px;}.cls-51{fill:#6b6b6b;fill-rule:evenodd;}.cls-53{stroke:#494949;stroke-width:0.75px;}.cls-54{fill:#ffa63b;}.cls-55{fill:#9a3714;}.cls-56{fill:#c9ffff;}.cls-57{fill:#a5bbc1;opacity:0.3;mix-blend-mode:multiply;}.cls-60{fill:#8b00d2;}.cls-61{fill:#a12ce5;}.cls-62{fill:#ffa700;}.cls-63{stroke:#9a3714;}.cls-64{fill:#ff4833;}.cls-65{fill:#b222a1;}.cls-66{fill:#86251c;}</style></defs><g class="cls-1"><g id="Layer_1" data-name="Layer 1"><g id="BG_1" data-name="BG 1"><rect class="cls-2" x="-0.38" width="1280.47" height="719.59"/><g id="BG_texture" data-name="BG texture" class="cls-3"><polygon class="cls-4" points="83.34 437.81 92.4 443.4 90.05 432.74 97.98 425.52 87.47 424.55 83.31 414.49 79.17 424.56 68.67 425.56 76.62 432.75 74.29 443.42 83.34 437.81"/><path class="cls-4" d="M26.79,421.94l12.88,7.95-3.34-15.15L47.6,404.48,32.67,403.1l-5.92-14.29-5.88,14.3L5.94,404.54l11.3,10.22-3.31,15.17ZM15.17,407.63l8.32-.79,3.27-8,3.3,7.95,8.31.78-6.27,5.71L34,421.76l-7.18-4.43-7.16,4.44,1.84-8.44Z"/><polygon class="cls-4" points="83.47 548.31 79.33 558.37 68.83 559.37 76.77 566.56 74.44 577.24 83.5 571.62 92.56 577.21 90.21 566.55 98.14 559.33 87.63 558.36 83.47 548.31"/><path class="cls-4" d="M26.9,517l12.88,8-3.34-15.16,11.27-10.25-14.93-1.39L26.86,483.9,21,498.2,6.05,499.62l11.3,10.22L14,525ZM15.29,502.72l8.31-.79,3.27-8,3.3,8,8.31.77-6.27,5.71,1.86,8.44-7.17-4.43-7.17,4.45,1.84-8.45Z"/><path class="cls-4" d="M92.24,487.6l-8.33-20.1-8.28,20.12-21,2L70.52,504l-4.65,21.35L84,514.12l18.12,11.19L97.39,504l15.86-14.43ZM91.43,502l2.62,11.88L84,507.63l-10.08,6.26L76.47,502l-8.85-8,11.7-1.12,4.61-11.21,4.64,11.2,11.7,1.09Z"/><polygon class="cls-4" points="26.46 462.8 32.9 466.77 31.22 459.19 36.86 454.07 29.39 453.38 26.44 446.23 23.5 453.38 16.03 454.09 21.68 459.21 20.02 466.79 26.46 462.8"/><polygon class="cls-4" points="89.89 298.93 97.82 291.71 87.32 290.74 83.16 280.68 79.02 290.75 68.52 291.75 76.46 298.94 74.13 309.61 83.18 304 92.25 309.59 89.89 298.93"/><path class="cls-4" d="M26.68,326.86l12.88,7.95-3.34-15.16L47.48,309.4,32.56,308l-5.92-14.28L20.76,308,5.83,309.45l11.3,10.22-3.31,15.17ZM15.06,312.55l8.32-.79,3.27-8,3.3,8,8.31.77L32,318.23l1.86,8.44-7.18-4.43-7.16,4.45,1.84-8.45Z"/><path class="cls-4" d="M101.94,391.5l-4.71-21.33,15.86-14.43-21-1.95-8.32-20.1-8.28,20.12-21,2L70.36,370.2l-4.65,21.35,18.1-11.24ZM76.31,368.19l-8.85-8,11.7-1.12,4.61-11.21,4.64,11.2,11.7,1.09-8.83,8,2.62,11.88-10.1-6.23-10.08,6.26Z"/><polygon class="cls-4" points="26.34 367.71 32.78 371.69 31.11 364.11 36.75 358.98 29.28 358.29 26.33 351.15 23.38 358.3 15.92 359.01 21.57 364.12 19.91 371.7 26.34 367.71"/><path class="cls-4" d="M27.08,674.06,21.2,688.37,6.28,689.79,17.57,700l-3.31,15.17,12.86-8L40,715.15,36.66,700l11.27-10.25L33,688.35Zm11.63,18.8-6.28,5.71L34.29,707l-7.17-4.43L20,707l1.85-8.45-6.29-5.69,8.31-.8,3.28-8,3.29,8Z"/><polygon class="cls-4" points="83.63 682.12 79.48 692.18 68.98 693.18 76.93 700.38 74.6 711.05 83.65 705.43 92.72 711.02 90.36 700.36 98.29 693.14 87.79 692.17 83.63 682.12"/><path class="cls-4" d="M36.55,604.9l11.27-10.25-14.93-1.38L27,579l-5.88,14.3L6.17,594.7l11.29,10.23-3.31,15.16,12.86-8,12.88,7.95ZM27,607.5l-7.17,4.44,1.85-8.44-6.29-5.7,8.31-.79,3.28-8,3.29,8,8.31.77-6.27,5.71,1.86,8.45Z"/><polygon class="cls-4" points="26.66 636.4 23.72 643.55 16.25 644.26 21.9 649.38 20.25 656.96 26.68 652.97 33.12 656.94 31.45 649.36 37.08 644.24 29.62 643.54 26.66 636.4"/><path class="cls-4" d="M84.07,601.31l-8.28,20.13-21,2,15.89,14.39L66,659.17l18.1-11.24,18.13,11.19-4.71-21.33,15.86-14.43-21-2Zm16.35,26.45-8.83,8,2.62,11.88-10.1-6.23L74,647.7l2.6-11.89-8.85-8,11.69-1.12,4.61-11.21,4.64,11.2Z"/><polygon class="cls-4" points="26.57 557.88 33.01 561.86 31.34 554.28 36.97 549.15 29.51 548.46 26.55 541.32 23.61 548.47 16.14 549.18 21.79 554.29 20.14 561.87 26.57 557.88"/><polygon class="cls-4" points="79.13 157.12 68.63 158.12 76.58 165.32 74.25 175.99 83.3 170.37 92.36 175.97 90.01 165.3 97.94 158.09 87.43 157.11 83.27 147.06 79.13 157.12"/><path class="cls-4" d="M26.76,231.91l12.88,8L36.3,224.7l11.27-10.25-14.93-1.39-5.92-14.29-5.88,14.31L5.91,214.5l11.3,10.22L13.9,239.89ZM15.14,217.6l8.32-.79,3.27-8,3.3,8,8.31.77-6.27,5.71,1.86,8.44-7.17-4.43-7.17,4.45,1.84-8.45Z"/><path class="cls-4" d="M102.05,257.88l-4.7-21.34,15.85-14.42-21-2-8.33-20.11-8.28,20.13-21,2,15.89,14.39-4.66,21.34,18.1-11.23ZM76.43,234.56l-8.85-8,11.7-1.11,4.61-11.21,4.63,11.19,11.7,1.09-8.83,8L94,246.42l-10.09-6.23-10.08,6.26Z"/><polygon class="cls-4" points="26.43 272.76 32.87 276.74 31.2 269.16 36.83 264.03 29.36 263.34 26.41 256.19 23.47 263.35 16 264.06 21.65 269.17 20 276.75 26.43 272.76"/><polygon class="cls-4" points="79.13 18.85 68.63 19.85 76.58 27.04 74.25 37.72 83.3 32.1 92.36 37.69 90.01 27.03 97.94 19.81 87.43 18.84 83.27 8.79 79.13 18.85"/><path class="cls-4" d="M26.76,133.65l12.88,7.95L36.3,126.44l11.27-10.25-14.93-1.38-5.92-14.29-5.88,14.3L5.91,116.24l11.3,10.23L13.9,141.64ZM15.14,119.34l8.32-.79,3.27-8,3.3,8,8.31.77L32.07,125l1.86,8.45L26.76,129l-7.17,4.44L21.43,125Z"/><path class="cls-4" d="M102.05,119.6l-4.7-21.33L113.2,83.84l-21-2-8.33-20.1L75.59,81.92l-21,2L70.48,98.31l-4.66,21.34,18.1-11.24ZM76.43,96.29l-8.85-8,11.7-1.12L83.89,76l4.63,11.2,11.7,1.09-8.83,8L94,108.15l-10.09-6.23-10.08,6.26Z"/><polygon class="cls-4" points="26.43 174.51 32.87 178.48 31.2 170.9 36.83 165.78 29.36 165.09 26.41 157.94 23.47 165.09 16 165.8 21.65 170.92 20 178.5 26.43 174.51"/><path class="cls-4" d="M26.76,35.4l12.88,8L36.3,28.19,47.57,17.94,32.64,16.55,26.72,2.27l-5.88,14.3L5.91,18l11.3,10.22L13.9,43.38ZM15.14,21.09l8.32-.79,3.27-8,3.3,8,8.31.77-6.27,5.71,1.86,8.44-7.17-4.43-7.17,4.45,1.84-8.45Z"/><polygon class="cls-4" points="26.43 76.25 32.87 80.23 31.2 72.65 36.83 67.52 29.36 66.83 26.41 59.69 23.47 66.84 16 67.55 21.65 72.66 20 80.25 26.43 76.25"/><polygon class="cls-4" points="195.38 437.81 204.44 443.4 202.09 432.74 210.02 425.52 199.52 424.55 195.35 414.49 191.21 424.56 180.71 425.56 188.66 432.75 186.33 443.42 195.38 437.81"/><path class="cls-4" d="M138.83,421.94l12.88,7.95-3.34-15.15,11.27-10.26-14.93-1.38-5.92-14.29-5.88,14.3L118,404.54l11.3,10.22L126,429.93Zm-11.61-14.31,8.31-.79,3.27-8,3.3,7.95,8.31.78-6.27,5.71,1.86,8.44-7.17-4.43-7.17,4.44,1.84-8.44Z"/><polygon class="cls-4" points="195.51 548.31 191.37 558.37 180.87 559.37 188.81 566.56 186.49 577.24 195.54 571.62 204.6 577.21 202.25 566.55 210.18 559.33 199.67 558.36 195.51 548.31"/><path class="cls-4" d="M138.94,517l12.88,8-3.34-15.16,11.27-10.25-14.93-1.39L138.9,483.9,133,498.2l-14.92,1.42,11.29,10.22L126.08,525Zm-11.61-14.31,8.31-.79,3.28-8,3.29,8,8.31.77-6.27,5.71,1.86,8.44-7.17-4.43-7.17,4.45,1.85-8.45Z"/><path class="cls-4" d="M204.28,487.6,196,467.5l-8.28,20.12-21,2L182.56,504l-4.65,21.35L196,514.12l18.12,11.19L209.43,504l15.86-14.43ZM203.47,502l2.63,11.88L196,507.63l-10.08,6.26L188.51,502l-8.85-8,11.7-1.12L196,481.66l4.64,11.2,11.7,1.09Z"/><polygon class="cls-4" points="138.5 462.8 144.94 466.77 143.27 459.19 148.9 454.07 141.44 453.38 138.48 446.23 135.54 453.38 128.07 454.09 133.72 459.21 132.07 466.79 138.5 462.8"/><polygon class="cls-4" points="201.94 298.93 209.86 291.71 199.36 290.74 195.2 280.68 191.06 290.75 180.56 291.75 188.5 298.94 186.17 309.61 195.22 304 204.29 309.59 201.94 298.93"/><path class="cls-4" d="M138.72,326.86l12.88,7.95-3.34-15.16,11.27-10.25L144.6,308l-5.92-14.28L132.8,308l-14.93,1.42,11.3,10.22-3.31,15.17ZM127.1,312.55l8.32-.79,3.27-8,3.3,8,8.31.77L144,318.23l1.86,8.44-7.18-4.43-7.16,4.45,1.84-8.45Z"/><path class="cls-4" d="M214,391.5l-4.71-21.33,15.86-14.43-21-1.95-8.32-20.1-8.28,20.12-21,2,15.9,14.39-4.66,21.35,18.1-11.24Zm-25.62-23.31-8.86-8,11.7-1.12,4.61-11.21,4.64,11.2,11.7,1.09-8.83,8,2.62,11.88-10.1-6.23-10.08,6.26Z"/><polygon class="cls-4" points="138.39 367.71 144.83 371.69 143.16 364.11 148.79 358.98 141.32 358.29 138.37 351.15 135.43 358.3 127.96 359.01 133.61 364.12 131.96 371.7 138.39 367.71"/><path class="cls-4" d="M139.13,674.06l-5.89,14.31-14.92,1.42L129.61,700l-3.31,15.17,12.86-8L152,715.15,148.7,700,160,689.74,145,688.35Zm11.62,18.8-6.28,5.71,1.86,8.44-7.17-4.43L132,707l1.84-8.45-6.29-5.69,8.31-.8,3.28-8,3.29,8Z"/><polygon class="cls-4" points="195.67 682.12 191.53 692.18 181.02 693.18 188.97 700.38 186.64 711.05 195.69 705.43 204.76 711.02 202.4 700.36 210.33 693.14 199.83 692.17 195.67 682.12"/><path class="cls-4" d="M148.59,604.9l11.27-10.25-14.93-1.38L139,579l-5.88,14.3-14.92,1.42,11.29,10.23-3.31,15.16,12.86-8,12.88,7.95Zm-9.54,2.6-7.17,4.44,1.85-8.44-6.29-5.7,8.31-.79,3.28-8,3.29,8,8.32.77-6.28,5.71,1.86,8.45Z"/><polygon class="cls-4" points="138.7 636.4 135.76 643.55 128.3 644.26 133.94 649.38 132.29 656.96 138.72 652.97 145.16 656.94 143.49 649.36 149.12 644.24 141.66 643.54 138.7 636.4"/><path class="cls-4" d="M196.11,601.31l-8.28,20.13-21,2,15.89,14.39-4.66,21.34,18.1-11.24,18.13,11.19-4.71-21.33,15.86-14.43-21-2Zm16.35,26.45-8.83,8,2.62,11.88-10.09-6.23-10.08,6.26,2.59-11.89-8.85-8,11.7-1.12,4.61-11.21,4.63,11.2Z"/><polygon class="cls-4" points="138.61 557.88 145.05 561.86 143.38 554.28 149.01 549.15 141.55 548.46 138.59 541.32 135.65 548.47 128.19 549.18 133.83 554.29 132.18 561.87 138.61 557.88"/><polygon class="cls-4" points="191.17 157.12 180.67 158.12 188.62 165.32 186.29 175.99 195.34 170.37 204.4 175.97 202.05 165.3 209.98 158.09 199.47 157.11 195.31 147.06 191.17 157.12"/><path class="cls-4" d="M138.8,231.91l12.88,8-3.34-15.16,11.27-10.25-14.93-1.39-5.92-14.29-5.88,14.31L118,214.5l11.29,10.22-3.31,15.17ZM127.19,217.6l8.31-.79,3.27-8,3.3,8,8.31.77-6.27,5.71,1.86,8.44-7.17-4.43-7.17,4.45,1.85-8.45Z"/><path class="cls-4" d="M214.09,257.88l-4.7-21.34,15.86-14.42-21-2-8.33-20.11-8.28,20.13-21,2,15.89,14.39-4.65,21.34L196,246.69Zm-25.62-23.32-8.85-8,11.7-1.11,4.61-11.21,4.64,11.19,11.7,1.09-8.84,8,2.62,11.87L196,240.19l-10.08,6.26Z"/><polygon class="cls-4" points="138.47 272.76 144.91 276.74 143.24 269.16 148.87 264.03 141.41 263.34 138.45 256.19 135.51 263.35 128.04 264.06 133.69 269.17 132.04 276.75 138.47 272.76"/><polygon class="cls-4" points="191.17 18.85 180.67 19.85 188.62 27.04 186.29 37.72 195.34 32.1 204.4 37.69 202.05 27.03 209.98 19.81 199.47 18.84 195.31 8.79 191.17 18.85"/><path class="cls-4" d="M138.8,133.65l12.88,7.95-3.34-15.16,11.27-10.25-14.93-1.38-5.92-14.29-5.88,14.3L118,116.24l11.29,10.23-3.31,15.17Zm-11.61-14.31,8.31-.79,3.27-8,3.3,8,8.31.77L144.11,125l1.86,8.45L138.8,129l-7.17,4.44,1.85-8.44Z"/><path class="cls-4" d="M214.09,119.6l-4.7-21.33,15.86-14.43-21-2-8.33-20.1-8.28,20.13-21,2,15.89,14.39-4.65,21.34L196,108.41ZM188.47,96.29l-8.85-8,11.7-1.12L195.93,76l4.64,11.2,11.7,1.09-8.84,8,2.62,11.88L196,101.92l-10.08,6.26Z"/><polygon class="cls-4" points="138.47 174.51 144.91 178.48 143.24 170.9 148.87 165.78 141.41 165.09 138.45 157.94 135.51 165.09 128.04 165.8 133.69 170.92 132.04 178.5 138.47 174.51"/><path class="cls-4" d="M138.8,35.4l12.88,8-3.34-15.16,11.27-10.25-14.93-1.39L138.76,2.27l-5.88,14.3L118,18l11.29,10.22-3.31,15.17ZM127.19,21.09l8.31-.79,3.27-8,3.3,8,8.31.77-6.27,5.71L146,35.21l-7.17-4.43-7.17,4.45,1.85-8.45Z"/><polygon class="cls-4" points="138.47 76.25 144.91 80.23 143.24 72.65 148.87 67.52 141.41 66.83 138.45 59.69 135.51 66.84 128.04 67.55 133.69 72.66 132.04 80.25 138.47 76.25"/><polygon class="cls-4" points="307.42 437.81 316.49 443.4 314.13 432.74 322.06 425.52 311.56 424.55 307.39 414.49 303.25 424.56 292.75 425.56 300.7 432.75 298.37 443.42 307.42 437.81"/><path class="cls-4" d="M250.87,421.94l12.88,7.95-3.34-15.15,11.27-10.26-14.93-1.38-5.92-14.29L245,403.11,230,404.54l11.29,10.22L238,429.93Zm-11.61-14.31,8.31-.79,3.28-8,3.29,7.95,8.31.78-6.27,5.71,1.86,8.44-7.17-4.43-7.17,4.44,1.85-8.44Z"/><polygon class="cls-4" points="307.55 548.31 303.41 558.37 292.91 559.37 300.86 566.56 298.53 577.24 307.58 571.62 316.64 577.21 314.29 566.55 322.22 559.33 311.71 558.36 307.55 548.31"/><path class="cls-4" d="M251,517l12.88,8-3.34-15.16,11.27-10.25-14.93-1.39-5.92-14.28-5.88,14.3-14.92,1.42,11.29,10.22L238.12,525Zm-11.61-14.31,8.31-.79,3.28-8,3.29,8,8.32.77-6.28,5.71,1.86,8.44L251,512.41l-7.17,4.45,1.85-8.45Z"/><path class="cls-4" d="M316.32,487.6,308,467.5l-8.27,20.12-21,2L294.6,504,290,525.36l18.1-11.24,18.12,11.19L321.47,504l15.86-14.43Zm-.8,14.38,2.62,11.88L308,507.63,298,513.89,300.55,502l-8.85-8,11.7-1.12L308,481.66l4.64,11.2,11.7,1.09Z"/><polygon class="cls-4" points="250.54 462.8 256.98 466.77 255.31 459.19 260.94 454.07 253.48 453.38 250.52 446.23 247.58 453.38 240.12 454.09 245.76 459.21 244.11 466.79 250.54 462.8"/><polygon class="cls-4" points="313.98 298.93 321.9 291.71 311.4 290.74 307.24 280.68 303.1 290.75 292.6 291.75 300.54 298.94 298.21 309.61 307.26 304 316.33 309.59 313.98 298.93"/><path class="cls-4" d="M250.76,326.86l12.88,7.95-3.34-15.16,11.27-10.25L256.64,308l-5.92-14.28L244.84,308l-14.93,1.42,11.3,10.22-3.31,15.17Zm-11.61-14.31,8.31-.79,3.27-8,3.3,8,8.31.77-6.27,5.71,1.86,8.44-7.17-4.43-7.17,4.45,1.84-8.45Z"/><path class="cls-4" d="M326,391.5l-4.71-21.33,15.86-14.43-21-1.95-8.32-20.1-8.28,20.12-21,2,15.9,14.39-4.66,21.35,18.1-11.24ZM300.4,368.19l-8.86-8,11.7-1.12,4.61-11.21,4.64,11.2,11.7,1.09-8.83,8L318,380.05l-10.1-6.23-10.08,6.26Z"/><polygon class="cls-4" points="250.43 367.71 256.87 371.69 255.2 364.11 260.83 358.98 253.37 358.29 250.41 351.15 247.47 358.3 240 359.01 245.65 364.12 244 371.7 250.43 367.71"/><path class="cls-4" d="M251.17,674.06l-5.89,14.31-14.92,1.42L241.65,700l-3.31,15.17,12.87-8,12.88,7.95L260.74,700,272,689.74l-14.93-1.39Zm11.62,18.8-6.28,5.71,1.86,8.44-7.17-4.43L244,707l1.84-8.45-6.29-5.69,8.31-.8,3.28-8,3.29,8Z"/><polygon class="cls-4" points="307.71 682.12 303.57 692.18 293.07 693.18 301.01 700.38 298.68 711.05 307.73 705.43 316.8 711.02 314.44 700.36 322.37 693.14 311.87 692.17 307.71 682.12"/><path class="cls-4" d="M260.63,604.9l11.27-10.25L257,593.27,251.06,579l-5.89,14.3-14.92,1.42,11.29,10.23-3.31,15.16,12.86-8L264,620.06Zm-9.54,2.6-7.16,4.44,1.84-8.44-6.29-5.7,8.31-.79,3.28-8,3.29,8,8.32.77-6.28,5.71,1.86,8.45Z"/><polygon class="cls-4" points="250.74 636.4 247.8 643.55 240.34 644.26 245.98 649.38 244.33 656.96 250.76 652.97 257.2 656.94 255.53 649.36 261.16 644.24 253.7 643.54 250.74 636.4"/><path class="cls-4" d="M308.15,601.31l-8.28,20.13-21,2,15.89,14.39-4.66,21.34,18.1-11.24,18.13,11.19-4.7-21.33,15.85-14.43-21-2Zm16.35,26.45-8.83,8,2.62,11.88-10.09-6.23-10.08,6.26,2.59-11.89-8.85-8,11.7-1.12,4.61-11.21,4.63,11.2Z"/><polygon class="cls-4" points="250.65 557.88 257.09 561.86 255.42 554.28 261.05 549.15 253.59 548.46 250.63 541.32 247.69 548.47 240.23 549.18 245.87 554.29 244.22 561.87 250.65 557.88"/><polygon class="cls-4" points="303.21 157.12 292.71 158.12 300.66 165.32 298.33 175.99 307.38 170.37 316.44 175.97 314.09 165.3 322.02 158.09 311.51 157.11 307.35 147.06 303.21 157.12"/><path class="cls-4" d="M250.84,231.91l12.88,8-3.34-15.16,11.27-10.25-14.93-1.39-5.92-14.29-5.88,14.31L230,214.5l11.29,10.22L238,239.89ZM239.23,217.6l8.31-.79,3.28-8,3.29,8,8.32.77-6.28,5.71,1.86,8.44-7.17-4.43-7.17,4.45,1.85-8.45Z"/><path class="cls-4" d="M326.13,257.88l-4.7-21.34,15.86-14.42-21-2L308,200.06l-8.28,20.13-21,2,15.89,14.39-4.65,21.34L308,246.69Zm-25.62-23.32-8.85-8,11.7-1.11L308,214.23l4.64,11.19,11.7,1.09-8.84,8,2.63,11.87L308,240.19l-10.08,6.26Z"/><polygon class="cls-4" points="250.51 272.76 256.95 276.74 255.28 269.16 260.91 264.03 253.45 263.34 250.49 256.19 247.55 263.35 240.09 264.06 245.73 269.17 244.08 276.75 250.51 272.76"/><polygon class="cls-4" points="303.21 18.85 292.71 19.85 300.66 27.04 298.33 37.72 307.38 32.1 316.44 37.69 314.09 27.03 322.02 19.81 311.51 18.84 307.35 8.79 303.21 18.85"/><path class="cls-4" d="M250.84,133.65l12.88,7.95-3.34-15.16,11.27-10.25-14.93-1.38-5.92-14.29-5.88,14.3L230,116.24l11.29,10.23L238,141.64Zm-11.61-14.31,8.31-.79,3.28-8,3.29,8,8.32.77L256.15,125l1.86,8.45L250.84,129l-7.17,4.44,1.85-8.44Z"/><path class="cls-4" d="M326.13,119.6l-4.7-21.33,15.86-14.43-21-2L308,61.79l-8.28,20.13-21,2,15.89,14.39-4.65,21.34L308,108.41ZM300.51,96.29l-8.85-8,11.7-1.12L308,76l4.64,11.2,11.7,1.09-8.84,8,2.63,11.88L308,101.92l-10.08,6.26Z"/><polygon class="cls-4" points="250.51 174.51 256.95 178.48 255.28 170.9 260.91 165.78 253.45 165.09 250.49 157.94 247.55 165.09 240.09 165.8 245.73 170.92 244.08 178.5 250.51 174.51"/><path class="cls-4" d="M250.84,35.4l12.88,8-3.34-15.16,11.27-10.25-14.93-1.39L250.8,2.27l-5.88,14.3L230,18l11.29,10.22L238,43.38ZM239.23,21.09l8.31-.79,3.28-8,3.29,8,8.32.77-6.28,5.71L258,35.21l-7.17-4.43-7.17,4.45,1.85-8.45Z"/><polygon class="cls-4" points="250.51 76.25 256.95 80.23 255.28 72.65 260.91 67.52 253.45 66.83 250.49 59.69 247.55 66.84 240.09 67.55 245.73 72.66 244.08 80.25 250.51 76.25"/><polygon class="cls-4" points="419.46 437.81 428.53 443.4 426.17 432.74 434.1 425.52 423.6 424.55 419.44 414.49 415.3 424.56 404.79 425.56 412.74 432.75 410.41 443.42 419.46 437.81"/><path class="cls-4" d="M362.91,421.94l12.88,7.95-3.34-15.15,11.27-10.26-14.93-1.38-5.92-14.29L357,403.11l-14.92,1.43,11.29,10.22-3.31,15.17ZM351.3,407.63l8.31-.79,3.28-8,3.29,7.95,8.32.78-6.28,5.71,1.86,8.44-7.17-4.43-7.17,4.44,1.85-8.44Z"/><polygon class="cls-4" points="419.59 548.31 415.45 558.37 404.95 559.37 412.9 566.56 410.57 577.24 419.62 571.62 428.68 577.21 426.33 566.55 434.26 559.33 423.75 558.36 419.59 548.31"/><path class="cls-4" d="M363,517l12.88,8-3.34-15.16,11.27-10.25-14.93-1.39L363,483.9l-5.89,14.3-14.92,1.42,11.29,10.22L350.16,525Zm-11.61-14.31,8.31-.79,3.28-8,3.29,8,8.32.77-6.28,5.71,1.86,8.44L363,512.41l-7.16,4.45,1.84-8.45Z"/><path class="cls-4" d="M428.36,487.6,420,467.5l-8.27,20.12-21,2L406.64,504,402,525.36l18.1-11.24,18.13,11.19L433.51,504l15.86-14.43Zm-.8,14.38,2.62,11.88-10.1-6.23L410,513.89,412.59,502l-8.85-8,11.7-1.12,4.61-11.21,4.64,11.2,11.7,1.09Z"/><polygon class="cls-4" points="362.58 462.8 369.02 466.77 367.35 459.19 372.98 454.07 365.52 453.38 362.56 446.23 359.62 453.38 352.16 454.09 357.8 459.21 356.15 466.79 362.58 462.8"/><polygon class="cls-4" points="426.02 298.93 433.95 291.71 423.44 290.74 419.28 280.68 415.14 290.75 404.64 291.75 412.58 298.94 410.26 309.61 419.31 304 428.37 309.59 426.02 298.93"/><path class="cls-4" d="M362.8,326.86l12.88,7.95-3.34-15.16,11.27-10.25L368.68,308l-5.92-14.28L356.88,308,342,309.45l11.29,10.22-3.31,15.17Zm-11.61-14.31,8.31-.79,3.28-8,3.29,8,8.31.77-6.27,5.71,1.86,8.44-7.17-4.43-7.17,4.45,1.85-8.45Z"/><path class="cls-4" d="M438.06,391.5l-4.71-21.33,15.86-14.43-21-1.95-8.32-20.1-8.28,20.12-21,2,15.89,14.39-4.66,21.35,18.1-11.24Zm-25.62-23.31-8.85-8,11.69-1.12,4.62-11.21,4.63,11.2,11.7,1.09-8.83,8L430,380.05l-10.09-6.23-10.09,6.26Z"/><polygon class="cls-4" points="362.47 367.71 368.91 371.69 367.24 364.11 372.87 358.98 365.41 358.29 362.45 351.15 359.51 358.3 352.05 359.01 357.69 364.12 356.04 371.7 362.47 367.71"/><path class="cls-4" d="M363.21,674.06l-5.88,14.31-14.93,1.42L353.69,700l-3.31,15.17,12.87-8,12.88,7.95L372.78,700l11.27-10.25-14.93-1.39Zm11.62,18.8-6.28,5.71,1.87,8.44-7.18-4.43L356.08,707l1.84-8.45-6.29-5.69,8.31-.8,3.28-8,3.29,8Z"/><polygon class="cls-4" points="419.75 682.12 415.61 692.18 405.11 693.18 413.05 700.38 410.73 711.05 419.77 705.43 428.84 711.02 426.49 700.36 434.42 693.14 423.91 692.17 419.75 682.12"/><path class="cls-4" d="M372.67,604.9l11.27-10.25L369,593.27,363.1,579l-5.89,14.3-14.92,1.42,11.29,10.23-3.31,15.16,12.87-8L376,620.06Zm-9.54,2.6L356,611.94l1.84-8.44-6.29-5.7,8.31-.79,3.28-8,3.29,8,8.32.77-6.28,5.71,1.86,8.45Z"/><polygon class="cls-4" points="362.78 636.4 359.84 643.55 352.38 644.26 358.02 649.38 356.37 656.96 362.8 652.97 369.24 656.94 367.57 649.36 373.2 644.24 365.74 643.54 362.78 636.4"/><path class="cls-4" d="M420.19,601.31l-8.28,20.13-21,2,15.89,14.39-4.65,21.34,18.1-11.24,18.12,11.19-4.7-21.33,15.86-14.43-21-2Zm16.36,26.45-8.84,8,2.62,11.88-10.09-6.23-10.08,6.26,2.59-11.89-8.85-8,11.7-1.12,4.61-11.21,4.64,11.2Z"/><polygon class="cls-4" points="362.69 557.88 369.13 561.86 367.46 554.28 373.09 549.15 365.63 548.46 362.67 541.32 359.73 548.47 352.27 549.18 357.91 554.29 356.26 561.87 362.69 557.88"/><polygon class="cls-4" points="415.25 157.12 404.75 158.12 412.7 165.32 410.37 175.99 419.42 170.37 428.48 175.97 426.13 165.3 434.06 158.09 423.56 157.11 419.39 147.06 415.25 157.12"/><path class="cls-4" d="M362.88,231.91l12.88,8-3.34-15.16,11.27-10.25-14.93-1.39-5.91-14.29L357,213.08,342,214.5l11.29,10.22L350,239.89ZM351.27,217.6l8.31-.79,3.28-8,3.29,8,8.32.77-6.28,5.71,1.86,8.44-7.17-4.43-7.16,4.45,1.84-8.45Z"/><path class="cls-4" d="M438.17,257.88l-4.7-21.34,15.86-14.42-21-2L420,200.06l-8.28,20.13-21,2,15.89,14.39L402,257.92l18.1-11.23Zm-25.62-23.32-8.85-8,11.7-1.11L420,214.23l4.64,11.19,11.7,1.09-8.83,8,2.62,11.87L420,240.19,410,246.45Z"/><polygon class="cls-4" points="362.55 272.76 368.99 276.74 367.32 269.16 372.95 264.03 365.49 263.34 362.53 256.19 359.59 263.35 352.13 264.06 357.77 269.17 356.12 276.75 362.55 272.76"/><polygon class="cls-4" points="415.25 18.85 404.75 19.85 412.7 27.04 410.37 37.72 419.42 32.1 428.48 37.69 426.13 27.03 434.06 19.81 423.56 18.84 419.39 8.79 415.25 18.85"/><path class="cls-4" d="M362.88,133.65l12.88,7.95-3.34-15.16,11.27-10.25-14.93-1.38-5.91-14.29L357,114.82,342,116.24l11.29,10.23L350,141.64Zm-11.61-14.31,8.31-.79,3.28-8,3.29,8,8.32.77L368.19,125l1.86,8.45L362.88,129l-7.16,4.44,1.84-8.44Z"/><path class="cls-4" d="M438.17,119.6l-4.7-21.33,15.86-14.43-21-2L420,61.79l-8.28,20.13-21,2L406.6,98.31,402,119.65l18.1-11.24ZM412.55,96.29l-8.85-8,11.7-1.12L420,76l4.64,11.2,11.7,1.09-8.83,8,2.62,11.88L420,101.92,410,108.18Z"/><polygon class="cls-4" points="362.55 174.51 368.99 178.48 367.32 170.9 372.95 165.78 365.49 165.09 362.53 157.94 359.59 165.09 352.13 165.8 357.77 170.92 356.12 178.5 362.55 174.51"/><path class="cls-4" d="M362.88,35.4l12.88,8-3.34-15.16,11.27-10.25-14.93-1.39L362.85,2.27,357,16.57,342,18l11.29,10.22L350,43.38ZM351.27,21.09l8.31-.79,3.28-8,3.29,8,8.32.77-6.28,5.71,1.86,8.44-7.17-4.43-7.16,4.45,1.84-8.45Z"/><polygon class="cls-4" points="362.55 76.25 368.99 80.23 367.32 72.65 372.95 67.52 365.49 66.83 362.53 59.69 359.59 66.84 352.13 67.55 357.77 72.66 356.12 80.25 362.55 76.25"/><polygon class="cls-4" points="531.5 437.81 540.57 443.4 538.21 432.74 546.14 425.52 535.64 424.55 531.48 414.49 527.34 424.56 516.84 425.56 524.78 432.75 522.45 443.42 531.5 437.81"/><path class="cls-4" d="M475,421.94l12.89,7.95-3.35-15.15,11.27-10.26-14.93-1.38-5.91-14.29L469,403.11l-14.92,1.43,11.29,10.22-3.31,15.17Zm-11.61-14.31,8.31-.79,3.28-8,3.29,7.95,8.32.78-6.28,5.71,1.86,8.44L475,417.33l-7.16,4.44,1.84-8.44Z"/><polygon class="cls-4" points="531.63 548.31 527.49 558.37 516.99 559.37 524.94 566.56 522.61 577.24 531.66 571.62 540.72 577.21 538.37 566.55 546.3 559.33 535.8 558.36 531.63 548.31"/><path class="cls-4" d="M475.07,517,488,525l-3.35-15.16,11.27-10.25-14.93-1.39L475,483.9l-5.89,14.3-14.92,1.42,11.29,10.22L462.2,525Zm-11.62-14.31,8.31-.79,3.28-8,3.29,8,8.32.77-6.28,5.71,1.86,8.44-7.17-4.43-7.16,4.45,1.84-8.45Z"/><path class="cls-4" d="M540.4,487.6l-8.32-20.1-8.28,20.12-21,2L518.69,504,514,525.36l18.1-11.24,18.13,11.19L545.55,504l15.86-14.43ZM539.6,502l2.62,11.88-10.1-6.23L522,513.89,524.63,502l-8.85-8,11.7-1.12,4.61-11.21,4.64,11.2,11.7,1.09Z"/><polygon class="cls-4" points="474.62 462.8 481.06 466.77 479.39 459.19 485.02 454.07 477.56 453.38 474.6 446.23 471.66 453.38 464.2 454.09 469.84 459.21 468.19 466.79 474.62 462.8"/><polygon class="cls-4" points="538.06 298.93 545.99 291.71 535.48 290.74 531.32 280.68 527.18 290.75 516.68 291.75 524.63 298.94 522.3 309.61 531.35 304 540.41 309.59 538.06 298.93"/><path class="cls-4" d="M474.84,326.86l12.88,7.95-3.34-15.16,11.27-10.25L480.72,308l-5.92-14.28L468.92,308,454,309.45l11.29,10.22L462,334.84Zm-11.61-14.31,8.31-.79,3.28-8,3.29,8,8.32.77-6.28,5.71,1.86,8.44-7.17-4.43-7.16,4.45,1.84-8.45Z"/><path class="cls-4" d="M550.1,391.5l-4.7-21.33,15.85-14.43-21-1.95-8.33-20.1-8.28,20.12-21,2,15.89,14.39-4.66,21.35L532,380.31Zm-25.62-23.31-8.85-8,11.7-1.12,4.61-11.21,4.63,11.2,11.7,1.09-8.83,8,2.62,11.88L532,373.82l-10.08,6.26Z"/><polygon class="cls-4" points="474.51 367.71 480.95 371.69 479.28 364.11 484.91 358.98 477.45 358.29 474.49 351.15 471.55 358.3 464.09 359.01 469.73 364.12 468.08 371.7 474.51 367.71"/><path class="cls-4" d="M475.25,674.06l-5.88,14.31-14.93,1.42L465.73,700l-3.3,15.17,12.86-8,12.88,7.95L484.82,700l11.27-10.25-14.93-1.39Zm11.62,18.8-6.28,5.71,1.87,8.44-7.18-4.43L468.12,707l1.84-8.45-6.29-5.69,8.31-.8,3.28-8,3.3,8Z"/><polygon class="cls-4" points="531.79 682.12 527.65 692.18 517.15 693.18 525.09 700.38 522.77 711.05 531.82 705.43 540.88 711.02 538.53 700.36 546.46 693.14 535.95 692.17 531.79 682.12"/><path class="cls-4" d="M484.71,604.9,496,594.65l-14.93-1.38L475.14,579l-5.88,14.3-14.93,1.42,11.29,10.23-3.31,15.16,12.87-8,12.88,7.95Zm-9.54,2.6L468,611.94l1.84-8.44-6.29-5.7,8.31-.79,3.28-8,3.29,8,8.32.77-6.28,5.71,1.87,8.45Z"/><polygon class="cls-4" points="474.82 636.4 471.88 643.55 464.42 644.26 470.06 649.38 468.41 656.96 474.84 652.97 481.28 656.94 479.61 649.36 485.25 644.24 477.78 643.54 474.82 636.4"/><path class="cls-4" d="M532.23,601.31,524,621.44l-21,2,15.89,14.39-4.65,21.34,18.1-11.24,18.12,11.19-4.7-21.33,15.86-14.43-21-2Zm16.36,26.45-8.84,8,2.63,11.88-10.1-6.23L522.2,647.7l2.59-11.89-8.85-8,11.7-1.12,4.61-11.21,4.64,11.2Z"/><polygon class="cls-4" points="474.73 557.88 481.17 561.86 479.5 554.28 485.13 549.15 477.67 548.46 474.71 541.32 471.77 548.47 464.31 549.18 469.95 554.29 468.3 561.87 474.73 557.88"/><polygon class="cls-4" points="527.3 157.12 516.79 158.12 524.74 165.32 522.41 175.99 531.46 170.37 540.53 175.97 538.17 165.3 546.1 158.09 535.6 157.11 531.43 147.06 527.3 157.12"/><path class="cls-4" d="M474.92,231.91l12.89,8-3.35-15.16,11.27-10.25-14.93-1.39-5.91-14.29L469,213.08l-14.92,1.42,11.29,10.22-3.31,15.17ZM463.31,217.6l8.31-.79,3.28-8,3.29,8,8.32.77-6.28,5.71,1.86,8.44-7.17-4.43-7.16,4.45,1.84-8.45Z"/><path class="cls-4" d="M550.22,257.88l-4.71-21.34,15.86-14.42-21-2L532,200.06l-8.27,20.13-21,2,15.89,14.39L514,257.92l18.1-11.23Zm-25.63-23.32-8.85-8,11.7-1.11,4.61-11.21,4.64,11.19,11.7,1.09-8.83,8,2.62,11.87-10.1-6.23L522,246.45Z"/><polygon class="cls-4" points="474.59 272.76 481.03 276.74 479.36 269.16 484.99 264.03 477.53 263.34 474.57 256.19 471.63 263.35 464.17 264.06 469.81 269.17 468.16 276.75 474.59 272.76"/><polygon class="cls-4" points="527.3 18.85 516.79 19.85 524.74 27.04 522.41 37.72 531.46 32.1 540.53 37.69 538.17 27.03 546.1 19.81 535.6 18.84 531.43 8.79 527.3 18.85"/><path class="cls-4" d="M474.92,133.65l12.89,7.95-3.35-15.16,11.27-10.25-14.93-1.38-5.91-14.29L469,114.82l-14.92,1.42,11.29,10.23-3.31,15.17Zm-11.61-14.31,8.31-.79,3.28-8,3.29,8,8.32.77L480.23,125l1.86,8.45L474.92,129l-7.16,4.44L469.6,125Z"/><path class="cls-4" d="M550.22,119.6l-4.71-21.33,15.86-14.43-21-2L532,61.79l-8.27,20.13-21,2,15.89,14.39L514,119.65l18.1-11.24ZM524.59,96.29l-8.85-8,11.7-1.12L532.05,76l4.64,11.2,11.7,1.09-8.83,8,2.62,11.88-10.1-6.23L522,108.18Z"/><polygon class="cls-4" points="474.59 174.51 481.03 178.48 479.36 170.9 484.99 165.78 477.53 165.09 474.57 157.94 471.63 165.09 464.17 165.8 469.81 170.92 468.16 178.5 474.59 174.51"/><path class="cls-4" d="M474.92,35.4l12.89,8-3.35-15.16,11.27-10.25L480.8,16.55,474.89,2.27,469,16.57,454.08,18l11.29,10.22-3.31,15.17ZM463.31,21.09l8.31-.79,3.28-8,3.29,8,8.32.77-6.28,5.71,1.86,8.44-7.17-4.43-7.16,4.45,1.84-8.45Z"/><polygon class="cls-4" points="474.59 76.25 481.03 80.23 479.36 72.65 484.99 67.52 477.53 66.83 474.57 59.69 471.63 66.84 464.17 67.55 469.81 72.66 468.16 80.25 474.59 76.25"/><polygon class="cls-4" points="643.54 437.81 652.61 443.4 650.25 432.74 658.18 425.52 647.68 424.55 643.52 414.49 639.38 424.56 628.88 425.56 636.82 432.75 634.5 443.42 643.54 437.81"/><path class="cls-4" d="M587,421.94l12.88,7.95-3.35-15.15,11.27-10.26-14.93-1.38L587,388.81l-5.89,14.3-14.92,1.43,11.29,10.22-3.31,15.17Zm-11.62-14.31,8.31-.79,3.28-8,3.29,7.95,8.32.78-6.28,5.71,1.86,8.44L587,417.33l-7.16,4.44,1.84-8.44Z"/><polygon class="cls-4" points="643.67 548.31 639.53 558.37 629.03 559.37 636.98 566.56 634.65 577.24 643.7 571.62 652.76 577.21 650.41 566.55 658.34 559.33 647.84 558.36 643.67 548.31"/><path class="cls-4" d="M587.11,517,600,525l-3.35-15.16,11.27-10.25L593,498.18l-5.91-14.28-5.88,14.3-14.93,1.42,11.29,10.22L574.24,525Zm-11.62-14.31,8.31-.79,3.28-8,3.29,8,8.32.77-6.28,5.71,1.87,8.44-7.18-4.43-7.16,4.45,1.84-8.45Z"/><path class="cls-4" d="M652.44,487.6l-8.32-20.1-8.28,20.12-21,2L630.73,504l-4.66,21.35,18.1-11.24,18.13,11.19L657.59,504l15.86-14.43Zm-.8,14.38,2.62,11.88-10.1-6.23-10.08,6.26,2.6-11.89-8.86-8,11.7-1.12,4.61-11.21,4.64,11.2,11.7,1.09Z"/><polygon class="cls-4" points="586.66 462.8 593.1 466.77 591.43 459.19 597.06 454.07 589.6 453.38 586.64 446.23 583.7 453.38 576.24 454.09 581.88 459.21 580.23 466.79 586.66 462.8"/><polygon class="cls-4" points="650.1 298.93 658.03 291.71 647.52 290.74 643.36 280.68 639.22 290.75 628.72 291.75 636.67 298.94 634.34 309.61 643.39 304 652.45 309.59 650.1 298.93"/><path class="cls-4" d="M586.88,326.86l12.89,7.95-3.35-15.16,11.27-10.25L592.76,308l-5.91-14.28L581,308,566,309.45l11.29,10.22L574,334.84Zm-11.61-14.31,8.31-.79,3.28-8,3.29,8,8.32.77-6.28,5.71,1.86,8.44-7.17-4.43-7.16,4.45,1.84-8.45Z"/><path class="cls-4" d="M662.14,391.5l-4.7-21.33,15.86-14.43-21-1.95L644,333.69l-8.28,20.12-21,2,15.89,14.39-4.66,21.35L644,380.31Zm-25.62-23.31-8.85-8,11.7-1.12L644,347.85l4.63,11.2,11.71,1.09-8.84,8,2.62,11.88L644,373.82l-10.08,6.26Z"/><polygon class="cls-4" points="586.55 367.71 592.99 371.69 591.32 364.11 596.95 358.98 589.49 358.29 586.53 351.15 583.59 358.3 576.13 359.01 581.77 364.12 580.12 371.7 586.55 367.71"/><path class="cls-4" d="M587.29,674.06l-5.88,14.31-14.93,1.42L577.77,700l-3.3,15.17,12.86-8,12.88,7.95L596.87,700l11.26-10.25-14.92-1.39Zm11.62,18.8-6.28,5.71L594.5,707l-7.18-4.43L580.16,707l1.84-8.45-6.29-5.69,8.32-.8,3.27-8,3.3,8Z"/><polygon class="cls-4" points="643.83 682.12 639.69 692.18 629.19 693.18 637.13 700.38 634.81 711.05 643.86 705.43 652.92 711.02 650.57 700.36 658.5 693.14 647.99 692.17 643.83 682.12"/><path class="cls-4" d="M596.75,604.9,608,594.65l-14.93-1.38L587.18,579l-5.88,14.3-14.93,1.42,11.29,10.23-3.3,15.16,12.86-8,12.88,7.95Zm-9.54,2.6-7.16,4.44,1.84-8.44-6.29-5.7,8.31-.79,3.28-8,3.3,8,8.31.77-6.28,5.71,1.87,8.45Z"/><polygon class="cls-4" points="586.86 636.4 583.92 643.55 576.46 644.26 582.11 649.38 580.45 656.96 586.88 652.97 593.32 656.94 591.65 649.36 597.29 644.24 589.82 643.54 586.86 636.4"/><path class="cls-4" d="M644.27,601.31,636,621.44l-21,2,15.89,14.39-4.65,21.34,18.1-11.24,18.12,11.19-4.7-21.33,15.86-14.43-21-2Zm16.36,26.45-8.83,8,2.62,11.88-10.1-6.23-10.08,6.26,2.59-11.89-8.85-8,11.7-1.12,4.61-11.21,4.64,11.2Z"/><polygon class="cls-4" points="586.77 557.88 593.21 561.86 591.54 554.28 597.17 549.15 589.71 548.46 586.75 541.32 583.81 548.47 576.35 549.18 582 554.29 580.34 561.87 586.77 557.88"/><polygon class="cls-4" points="639.34 157.12 628.84 158.12 636.78 165.32 634.45 175.99 643.5 170.37 652.57 175.97 650.21 165.3 658.14 158.09 647.64 157.11 643.48 147.06 639.34 157.12"/><path class="cls-4" d="M587,231.91l12.88,8L596.5,224.7l11.27-10.25-14.93-1.39-5.91-14.29L581,213.08l-14.92,1.42,11.29,10.22-3.31,15.17ZM575.35,217.6l8.31-.79,3.28-8,3.29,8,8.32.77-6.28,5.71,1.86,8.44L587,227.29l-7.16,4.45,1.84-8.45Z"/><path class="cls-4" d="M662.26,257.88l-4.71-21.34,15.86-14.42-21-2-8.32-20.11-8.28,20.13-21,2,15.89,14.39L626,257.92l18.1-11.23Zm-25.63-23.32-8.85-8,11.7-1.11,4.61-11.21,4.64,11.19,11.7,1.09-8.83,8,2.62,11.87-10.1-6.23L634,246.45Z"/><polygon class="cls-4" points="586.63 272.76 593.07 276.74 591.4 269.16 597.03 264.03 589.57 263.34 586.61 256.19 583.67 263.35 576.21 264.06 581.86 269.17 580.2 276.75 586.63 272.76"/><polygon class="cls-4" points="639.34 18.85 628.84 19.85 636.78 27.04 634.45 37.72 643.5 32.1 652.57 37.69 650.21 27.03 658.14 19.81 647.64 18.84 643.48 8.79 639.34 18.85"/><path class="cls-4" d="M587,133.65l12.88,7.95-3.35-15.16,11.27-10.25-14.93-1.38-5.91-14.29L581,114.82l-14.92,1.42,11.29,10.23-3.31,15.17Zm-11.62-14.31,8.31-.79,3.28-8,3.29,8,8.32.77L592.27,125l1.86,8.45L587,129l-7.16,4.44,1.84-8.44Z"/><path class="cls-4" d="M662.26,119.6l-4.71-21.33,15.86-14.43-21-2-8.32-20.1L635.8,81.92l-21,2,15.89,14.39L626,119.65l18.1-11.24ZM636.63,96.29l-8.85-8,11.7-1.12L644.09,76l4.64,11.2,11.7,1.09-8.83,8,2.62,11.88-10.1-6.23L634,108.18Z"/><polygon class="cls-4" points="586.63 174.51 593.07 178.48 591.4 170.9 597.03 165.78 589.57 165.09 586.61 157.94 583.67 165.09 576.21 165.8 581.86 170.92 580.2 178.5 586.63 174.51"/><path class="cls-4" d="M587,35.4l12.88,8L596.5,28.19l11.27-10.25-14.93-1.39L586.93,2.27,581,16.57,566.12,18l11.29,10.22L574.1,43.38ZM575.35,21.09l8.31-.79,3.28-8,3.29,8,8.32.77-6.28,5.71,1.86,8.44L587,30.78l-7.16,4.45,1.84-8.45Z"/><polygon class="cls-4" points="586.63 76.25 593.07 80.23 591.4 72.65 597.03 67.52 589.57 66.83 586.61 59.69 583.67 66.84 576.21 67.55 581.86 72.66 580.2 80.25 586.63 76.25"/><polygon class="cls-4" points="755.59 437.81 764.65 443.4 762.3 432.74 770.23 425.52 759.72 424.55 755.56 414.49 751.42 424.56 740.92 425.56 748.86 432.75 746.54 443.42 755.59 437.81"/><path class="cls-4" d="M699,421.94l12.88,7.95-3.35-15.15,11.27-10.26-14.93-1.38L699,388.81l-5.88,14.3-14.93,1.43,11.29,10.22-3.31,15.17Zm-11.62-14.31,8.31-.79,3.28-8,3.3,7.95,8.31.78-6.28,5.71,1.87,8.44L699,417.33l-7.16,4.44,1.84-8.44Z"/><polygon class="cls-4" points="755.72 548.31 751.58 558.37 741.07 559.37 749.02 566.56 746.69 577.24 755.74 571.62 764.81 577.21 762.45 566.55 770.38 559.33 759.88 558.36 755.72 548.31"/><path class="cls-4" d="M699.15,517,712,525l-3.35-15.16L720,499.57,705,498.18l-5.91-14.28-5.88,14.3-14.93,1.42,11.29,10.22L686.29,525Zm-11.62-14.31,8.31-.79,3.28-8,3.3,8,8.31.77-6.28,5.71,1.87,8.44-7.18-4.43L692,516.86l1.84-8.45Z"/><path class="cls-4" d="M764.48,487.6l-8.32-20.1-8.28,20.12-21,2L742.77,504l-4.66,21.35,18.1-11.24,18.13,11.19L769.63,504l15.86-14.43Zm-.8,14.38,2.62,11.88-10.09-6.23-10.09,6.26,2.6-11.89-8.85-8,11.69-1.12,4.61-11.21,4.64,11.2,11.7,1.09Z"/><polygon class="cls-4" points="698.7 462.8 705.14 466.77 703.47 459.19 709.11 454.07 701.64 453.38 698.68 446.23 695.74 453.38 688.28 454.09 693.93 459.21 692.27 466.79 698.7 462.8"/><polygon class="cls-4" points="762.14 298.93 770.07 291.71 759.57 290.74 755.4 280.68 751.26 290.75 740.76 291.75 748.71 298.94 746.38 309.61 755.43 304 764.49 309.59 762.14 298.93"/><path class="cls-4" d="M698.93,326.86l12.88,7.95-3.35-15.16,11.27-10.25L704.8,308l-5.91-14.28L693,308l-14.92,1.42,11.29,10.22-3.31,15.17Zm-11.62-14.31,8.31-.79,3.28-8,3.29,8,8.32.77-6.28,5.71,1.86,8.44-7.17-4.43-7.16,4.45,1.84-8.45Z"/><path class="cls-4" d="M774.18,391.5l-4.7-21.33,15.86-14.43-21-1.95L756,333.69l-8.28,20.12-21,2,15.89,14.39L738,391.55l18.1-11.24Zm-25.62-23.31-8.85-8,11.7-1.12L756,347.85l4.64,11.2,11.7,1.09-8.84,8,2.62,11.88-10.09-6.23L746,380.08Z"/><polygon class="cls-4" points="698.59 367.71 705.03 371.69 703.36 364.11 708.99 358.98 701.53 358.29 698.57 351.15 695.63 358.3 688.17 359.01 693.82 364.12 692.16 371.7 698.59 367.71"/><path class="cls-4" d="M699.33,674.06l-5.88,14.31-14.93,1.42L689.82,700l-3.31,15.17,12.86-8,12.88,7.95L708.91,700l11.27-10.25-14.93-1.39ZM711,692.86l-6.27,5.71,1.86,8.44-7.18-4.43L692.2,707l1.84-8.45-6.29-5.69,8.32-.8,3.27-8,3.3,8Z"/><polygon class="cls-4" points="755.87 682.12 751.73 692.18 741.23 693.18 749.18 700.38 746.85 711.05 755.9 705.43 764.96 711.02 762.61 700.36 770.54 693.14 760.03 692.17 755.87 682.12"/><path class="cls-4" d="M708.8,604.9l11.26-10.25-14.92-1.38L699.22,579l-5.88,14.3-14.93,1.42,11.3,10.23-3.31,15.16,12.86-8,12.88,7.95Zm-9.55,2.6-7.16,4.44,1.84-8.44-6.29-5.7L696,597l3.27-8,3.3,8,8.31.77-6.28,5.71,1.87,8.45Z"/><polygon class="cls-4" points="698.9 636.4 695.96 643.55 688.5 644.26 694.15 649.38 692.49 656.96 698.92 652.97 705.37 656.94 703.69 649.36 709.33 644.24 701.86 643.54 698.9 636.4"/><path class="cls-4" d="M756.31,601.31,748,621.44l-21,2,15.89,14.39-4.65,21.34,18.1-11.24,18.13,11.19-4.71-21.33,15.86-14.43-21-2Zm16.36,26.45-8.83,8,2.62,11.88-10.1-6.23-10.08,6.26,2.59-11.89-8.85-8,11.7-1.12,4.61-11.21,4.64,11.2Z"/><polygon class="cls-4" points="698.81 557.88 705.25 561.86 703.58 554.28 709.22 549.15 701.75 548.46 698.79 541.32 695.85 548.47 688.39 549.18 694.04 554.29 692.38 561.87 698.81 557.88"/><polygon class="cls-4" points="751.38 157.12 740.88 158.12 748.82 165.32 746.49 175.99 755.54 170.37 764.61 175.97 762.25 165.3 770.18 158.09 759.68 157.11 755.52 147.06 751.38 157.12"/><path class="cls-4" d="M699,231.91l12.88,8-3.35-15.16,11.27-10.25-14.93-1.39L699,198.77l-5.88,14.31-14.93,1.42,11.29,10.22-3.3,15.17ZM687.39,217.6l8.31-.79,3.28-8,3.3,8,8.31.77-6.28,5.71,1.87,8.44L699,227.29l-7.16,4.45,1.84-8.45Z"/><path class="cls-4" d="M774.3,257.88l-4.71-21.34,15.86-14.42-21-2-8.32-20.11-8.28,20.13-21,2,15.9,14.39-4.66,21.34,18.1-11.23Zm-25.63-23.32-8.85-8,11.7-1.11,4.61-11.21,4.64,11.19,11.7,1.09-8.83,8,2.62,11.87-10.1-6.23-10.08,6.26Z"/><polygon class="cls-4" points="698.67 272.76 705.11 276.74 703.44 269.16 709.08 264.03 701.61 263.34 698.65 256.19 695.71 263.35 688.25 264.06 693.9 269.17 692.24 276.75 698.67 272.76"/><polygon class="cls-4" points="751.38 18.85 740.88 19.85 748.82 27.04 746.49 37.72 755.54 32.1 764.61 37.69 762.25 27.03 770.18 19.81 759.68 18.84 755.52 8.79 751.38 18.85"/><path class="cls-4" d="M699,133.65l12.88,7.95-3.35-15.16,11.27-10.25-14.93-1.38L699,100.52l-5.88,14.3-14.93,1.42,11.29,10.23-3.3,15.17Zm-11.62-14.31,8.31-.79,3.28-8,3.3,8,8.31.77L704.31,125l1.87,8.45L699,129l-7.16,4.44,1.84-8.44Z"/><path class="cls-4" d="M774.3,119.6l-4.71-21.33,15.86-14.43-21-2-8.32-20.1-8.28,20.13-21,2,15.9,14.39-4.66,21.34,18.1-11.24ZM748.67,96.29l-8.85-8,11.7-1.12L756.13,76l4.64,11.2,11.7,1.09-8.83,8,2.62,11.88-10.1-6.23-10.08,6.26Z"/><polygon class="cls-4" points="698.67 174.51 705.11 178.48 703.44 170.9 709.08 165.78 701.61 165.09 698.65 157.94 695.71 165.09 688.25 165.8 693.9 170.92 692.24 178.5 698.67 174.51"/><path class="cls-4" d="M699,35.4l12.88,8-3.35-15.16,11.27-10.25-14.93-1.39L699,2.27l-5.88,14.3L678.16,18l11.29,10.22-3.3,15.17ZM687.39,21.09l8.31-.79,3.28-8,3.3,8,8.31.77-6.28,5.71,1.87,8.44L699,30.78l-7.16,4.45,1.84-8.45Z"/><polygon class="cls-4" points="698.67 76.25 705.11 80.23 703.44 72.65 709.08 67.52 701.61 66.83 698.65 59.69 695.71 66.84 688.25 67.55 693.9 72.66 692.24 80.25 698.67 76.25"/><polygon class="cls-4" points="867.63 437.81 876.69 443.4 874.34 432.74 882.27 425.52 871.76 424.55 867.6 414.49 863.46 424.56 852.96 425.56 860.9 432.75 858.58 443.42 867.63 437.81"/><path class="cls-4" d="M811.08,421.94,824,429.89l-3.35-15.15,11.27-10.26L817,403.1,811,388.81l-5.88,14.3-14.93,1.43,11.29,10.22-3.3,15.17Zm-11.62-14.31,8.31-.79,3.28-8,3.3,7.95,8.31.78-6.28,5.71,1.87,8.44-7.18-4.43-7.16,4.44,1.84-8.44Z"/><polygon class="cls-4" points="867.76 548.31 863.62 558.37 853.12 559.37 861.06 566.56 858.73 577.24 867.78 571.62 876.85 577.21 874.49 566.55 882.42 559.33 871.92 558.36 867.76 548.31"/><path class="cls-4" d="M811.19,517l12.88,8-3.34-15.16L832,499.57l-14.92-1.39-5.92-14.28-5.88,14.3-14.93,1.42,11.3,10.22L798.33,525Zm-11.62-14.31,8.32-.79,3.27-8,3.3,8,8.31.77-6.28,5.71,1.87,8.44-7.18-4.43L804,516.86l1.84-8.45Z"/><path class="cls-4" d="M876.52,487.6l-8.32-20.1-8.28,20.12-21,2L854.81,504l-4.66,21.35,18.1-11.24,18.13,11.19L881.67,504l15.86-14.43Zm-.8,14.38,2.62,11.88-10.09-6.23-10.08,6.26L860.76,502l-8.85-8,11.7-1.12,4.61-11.21,4.63,11.2,11.7,1.09Z"/><polygon class="cls-4" points="810.74 462.8 817.18 466.77 815.51 459.19 821.15 454.07 813.68 453.38 810.72 446.23 807.78 453.38 800.32 454.09 805.97 459.21 804.31 466.79 810.74 462.8"/><polygon class="cls-4" points="874.18 298.93 882.11 291.71 871.61 290.74 867.44 280.68 863.3 290.75 852.8 291.75 860.75 298.94 858.42 309.61 867.47 304 876.53 309.59 874.18 298.93"/><path class="cls-4" d="M811,326.86l12.88,7.95-3.35-15.16,11.27-10.25L816.84,308l-5.91-14.28L805.05,308l-14.93,1.42,11.29,10.22-3.31,15.17Zm-11.62-14.31,8.31-.79,3.28-8,3.3,8,8.31.77-6.28,5.71,1.87,8.44L811,322.24l-7.16,4.45,1.84-8.45Z"/><path class="cls-4" d="M886.22,391.5l-4.7-21.33,15.86-14.43-21-1.95L868,333.69l-8.28,20.12-21,2,15.89,14.39L850,391.55l18.1-11.24ZM860.6,368.19l-8.85-8,11.7-1.12,4.61-11.21,4.64,11.2,11.7,1.09-8.84,8,2.63,11.88-10.1-6.23L858,380.08Z"/><polygon class="cls-4" points="810.63 367.71 817.07 371.69 815.4 364.11 821.03 358.98 813.57 358.29 810.61 351.15 807.67 358.3 800.21 359.01 805.86 364.12 804.2 371.7 810.63 367.71"/><path class="cls-4" d="M811.37,674.06l-5.88,14.31-14.93,1.42L801.86,700l-3.31,15.17,12.86-8,12.88,7.95L821,700l11.27-10.25-14.93-1.39ZM823,692.86l-6.27,5.71,1.86,8.44-7.17-4.43L804.24,707l1.84-8.45-6.29-5.69,8.32-.8,3.27-8,3.3,8Z"/><polygon class="cls-4" points="867.91 682.12 863.77 692.18 853.27 693.18 861.22 700.38 858.89 711.05 867.94 705.43 877 711.02 874.65 700.36 882.58 693.14 872.08 692.17 867.91 682.12"/><path class="cls-4" d="M820.84,604.9l11.27-10.25-14.93-1.38L811.26,579l-5.88,14.3-14.93,1.42,11.3,10.23-3.31,15.16,12.86-8,12.88,7.95Zm-9.55,2.6-7.16,4.44L806,603.5l-6.29-5.7L808,597l3.27-8,3.3,8,8.31.77-6.27,5.71,1.86,8.45Z"/><polygon class="cls-4" points="810.95 636.4 808 643.55 800.54 644.26 806.19 649.38 804.53 656.96 810.97 652.97 817.41 656.94 815.73 649.36 821.37 644.24 813.9 643.54 810.95 636.4"/><path class="cls-4" d="M868.36,601.31l-8.28,20.13-21,2L855,637.83l-4.65,21.34,18.1-11.24,18.13,11.19-4.71-21.33,15.86-14.43-21-2Zm16.35,26.45-8.83,8,2.62,11.88-10.1-6.23-10.08,6.26,2.59-11.89-8.85-8,11.7-1.12,4.61-11.21,4.64,11.2Z"/><polygon class="cls-4" points="810.86 557.88 817.29 561.86 815.62 554.28 821.26 549.15 813.79 548.46 810.84 541.32 807.89 548.47 800.43 549.18 806.08 554.29 804.42 561.87 810.86 557.88"/><polygon class="cls-4" points="863.42 157.12 852.92 158.12 860.86 165.32 858.53 175.99 867.59 170.37 876.65 175.97 874.3 165.3 882.23 158.09 871.72 157.11 867.56 147.06 863.42 157.12"/><path class="cls-4" d="M811.05,231.91l12.88,8-3.35-15.16,11.27-10.25-14.92-1.39L811,198.77l-5.88,14.31L790.2,214.5l11.29,10.22-3.3,15.17ZM799.43,217.6l8.32-.79,3.27-8,3.3,8,8.31.77-6.28,5.71,1.87,8.44L811,227.29l-7.16,4.45,1.84-8.45Z"/><path class="cls-4" d="M886.34,257.88l-4.71-21.34,15.86-14.42-21-2-8.32-20.11-8.28,20.13-21,2,15.9,14.39-4.66,21.34,18.1-11.23Zm-25.62-23.32-8.86-8,11.7-1.11,4.61-11.21,4.64,11.19,11.7,1.09-8.83,8,2.62,11.87-10.1-6.23-10.08,6.26Z"/><polygon class="cls-4" points="810.71 272.76 817.15 276.74 815.48 269.16 821.12 264.03 813.65 263.34 810.7 256.19 807.75 263.35 800.29 264.06 805.94 269.17 804.28 276.75 810.71 272.76"/><polygon class="cls-4" points="863.42 18.85 852.92 19.85 860.86 27.04 858.53 37.72 867.59 32.1 876.65 37.69 874.3 27.03 882.23 19.81 871.72 18.84 867.56 8.79 863.42 18.85"/><path class="cls-4" d="M811.05,133.65l12.88,7.95-3.35-15.16,11.27-10.25-14.92-1.38L811,100.52l-5.88,14.3-14.93,1.42,11.29,10.23-3.3,15.17Zm-11.62-14.31,8.32-.79,3.27-8,3.3,8,8.31.77L816.35,125l1.87,8.45L811,129l-7.16,4.44,1.84-8.44Z"/><path class="cls-4" d="M886.34,119.6l-4.71-21.33,15.86-14.43-21-2-8.32-20.1-8.28,20.13-21,2,15.9,14.39-4.66,21.34,18.1-11.24ZM860.72,96.29l-8.86-8,11.7-1.12L868.17,76l4.64,11.2,11.7,1.09-8.83,8,2.62,11.88-10.1-6.23-10.08,6.26Z"/><polygon class="cls-4" points="810.71 174.51 817.15 178.48 815.48 170.9 821.12 165.78 813.65 165.09 810.7 157.94 807.75 165.09 800.29 165.8 805.94 170.92 804.28 178.5 810.71 174.51"/><path class="cls-4" d="M811.05,35.4l12.88,8-3.35-15.16,11.27-10.25-14.92-1.39L811,2.27l-5.88,14.3L790.2,18l11.29,10.22-3.3,15.17ZM799.43,21.09l8.32-.79,3.27-8,3.3,8,8.31.77-6.28,5.71,1.87,8.44L811,30.78l-7.16,4.45,1.84-8.45Z"/><polygon class="cls-4" points="810.71 76.25 817.15 80.23 815.48 72.65 821.12 67.52 813.65 66.83 810.7 59.69 807.75 66.84 800.29 67.55 805.94 72.66 804.28 80.25 810.71 76.25"/><polygon class="cls-4" points="979.67 437.81 988.73 443.4 986.38 432.74 994.31 425.52 983.8 424.55 979.64 414.49 975.5 424.56 965 425.56 972.95 432.75 970.62 443.42 979.67 437.81"/><path class="cls-4" d="M923.12,421.94,936,429.89l-3.34-15.15,11.26-10.26L929,403.1l-5.92-14.29-5.88,14.3-14.93,1.43,11.3,10.22-3.31,15.17ZM911.5,407.63l8.32-.79,3.27-8,3.3,7.95,8.31.78-6.27,5.71,1.86,8.44-7.18-4.43L916,421.77l1.84-8.44Z"/><polygon class="cls-4" points="979.8 548.31 975.66 558.37 965.16 559.37 973.1 566.56 970.77 577.24 979.82 571.62 988.89 577.21 986.53 566.55 994.46 559.33 983.96 558.36 979.8 548.31"/><path class="cls-4" d="M923.23,517l12.88,8-3.34-15.16L944,499.57l-14.93-1.39-5.92-14.28-5.88,14.3-14.93,1.42,11.3,10.22L910.37,525Zm-11.62-14.31,8.32-.79,3.27-8,3.3,8,8.31.77-6.27,5.71,1.86,8.44-7.18-4.43-7.16,4.45,1.84-8.45Z"/><path class="cls-4" d="M988.57,487.6l-8.33-20.1L972,487.62l-21,2L966.85,504l-4.66,21.35,18.1-11.24,18.13,11.19L993.72,504l15.85-14.43ZM987.76,502l2.62,11.88-10.09-6.23-10.08,6.26L972.8,502,964,494l11.7-1.12,4.61-11.21,4.63,11.2,11.7,1.09Z"/><polygon class="cls-4" points="922.78 462.8 929.23 466.77 927.55 459.19 933.19 454.07 925.72 453.38 922.76 446.23 919.82 453.38 912.36 454.09 918.01 459.21 916.35 466.79 922.78 462.8"/><polygon class="cls-4" points="986.22 298.93 994.15 291.71 983.65 290.74 979.49 280.68 975.35 290.75 964.84 291.75 972.79 298.94 970.46 309.61 979.51 304 988.58 309.59 986.22 298.93"/><path class="cls-4" d="M923,326.86l12.88,7.95-3.35-15.16,11.27-10.25L928.89,308,923,293.73,917.09,308l-14.93,1.42,11.29,10.22-3.3,15.17Zm-11.62-14.31,8.31-.79,3.28-8,3.3,8,8.31.77-6.28,5.71,1.87,8.44L923,322.24l-7.16,4.45,1.84-8.45Z"/><path class="cls-4" d="M998.27,391.5l-4.71-21.33,15.86-14.43-21-1.95-8.33-20.1-8.27,20.12-21,2,15.89,14.39L962,391.55l18.1-11.24Zm-25.63-23.31-8.85-8,11.7-1.12,4.61-11.21,4.64,11.2,11.7,1.09-8.83,8,2.62,11.88-10.1-6.23-10.08,6.26Z"/><polygon class="cls-4" points="922.67 367.71 929.11 371.69 927.44 364.11 933.08 358.98 925.61 358.29 922.65 351.15 919.71 358.3 912.25 359.01 917.9 364.12 916.24 371.7 922.67 367.71"/><path class="cls-4" d="M923.41,674.06l-5.88,14.31-14.92,1.42L913.9,700l-3.31,15.17,12.86-8,12.88,7.95L933,700l11.27-10.25-14.93-1.39ZM935,692.86l-6.27,5.71,1.86,8.44-7.17-4.43L916.28,707l1.85-8.45-6.29-5.69,8.31-.8,3.27-8,3.3,8Z"/><polygon class="cls-4" points="979.95 682.12 975.81 692.18 965.31 693.18 973.26 700.38 970.93 711.05 979.98 705.43 989.04 711.02 986.69 700.36 994.62 693.14 984.12 692.17 979.95 682.12"/><path class="cls-4" d="M932.88,604.9l11.27-10.25-14.93-1.38L923.3,579l-5.88,14.3-14.93,1.42,11.3,10.23-3.31,15.16,12.86-8,12.88,7.95Zm-9.54,2.6-7.17,4.44L918,603.5l-6.29-5.7L920,597l3.27-8,3.3,8,8.31.77-6.27,5.71,1.86,8.45Z"/><polygon class="cls-4" points="922.99 636.4 920.05 643.55 912.58 644.26 918.23 649.38 916.58 656.96 923.01 652.97 929.45 656.94 927.77 649.36 933.41 644.24 925.95 643.54 922.99 636.4"/><path class="cls-4" d="M980.4,601.31l-8.28,20.13-21,2L967,637.83l-4.66,21.34,18.1-11.24,18.13,11.19-4.71-21.33,15.86-14.43-21-2Zm16.35,26.45-8.83,8,2.62,11.88-10.1-6.23-10.08,6.26L973,635.81l-8.85-8,11.7-1.12,4.61-11.21,4.64,11.2Z"/><polygon class="cls-4" points="922.9 557.88 929.34 561.86 927.66 554.28 933.3 549.15 925.83 548.46 922.88 541.32 919.93 548.47 912.47 549.18 918.12 554.29 916.47 561.87 922.9 557.88"/><polygon class="cls-4" points="975.46 157.12 964.96 158.12 972.9 165.32 970.58 175.99 979.63 170.37 988.69 175.97 986.34 165.3 994.27 158.09 983.76 157.11 979.6 147.06 975.46 157.12"/><path class="cls-4" d="M923.09,231.91l12.88,8-3.34-15.16,11.26-10.25L929,213.06l-5.92-14.29-5.88,14.31-14.93,1.42,11.3,10.22-3.31,15.17ZM911.47,217.6l8.32-.79,3.27-8,3.3,8,8.31.77-6.27,5.71,1.86,8.44-7.18-4.43-7.16,4.45,1.84-8.45Z"/><path class="cls-4" d="M998.38,257.88l-4.71-21.34,15.86-14.42-21-2-8.32-20.11-8.28,20.13-21,2,15.89,14.39-4.66,21.34,18.1-11.23Zm-25.62-23.32-8.85-8,11.69-1.11,4.62-11.21,4.63,11.19,11.7,1.09-8.83,8,2.62,11.87-10.09-6.23-10.09,6.26Z"/><polygon class="cls-4" points="922.75 272.76 929.2 276.74 927.52 269.16 933.16 264.03 925.69 263.34 922.74 256.19 919.79 263.35 912.33 264.06 917.98 269.17 916.32 276.75 922.75 272.76"/><polygon class="cls-4" points="975.46 18.85 964.96 19.85 972.9 27.04 970.58 37.72 979.63 32.1 988.69 37.69 986.34 27.03 994.27 19.81 983.76 18.84 979.6 8.79 975.46 18.85"/><path class="cls-4" d="M923.09,133.65,936,141.6l-3.34-15.16,11.26-10.25L929,114.81l-5.92-14.29-5.88,14.3-14.93,1.42,11.3,10.23-3.31,15.17Zm-11.62-14.31,8.32-.79,3.27-8,3.3,8,8.31.77L928.4,125l1.86,8.45L923.08,129l-7.16,4.44,1.84-8.44Z"/><path class="cls-4" d="M998.38,119.6l-4.71-21.33,15.86-14.43-21-2-8.32-20.1-8.28,20.13-21,2,15.89,14.39-4.66,21.34,18.1-11.24ZM972.76,96.29l-8.85-8,11.69-1.12L980.22,76l4.63,11.2,11.7,1.09-8.83,8,2.62,11.88-10.09-6.23-10.09,6.26Z"/><polygon class="cls-4" points="922.75 174.51 929.2 178.48 927.52 170.9 933.16 165.78 925.69 165.09 922.74 157.94 919.79 165.09 912.33 165.8 917.98 170.92 916.32 178.5 922.75 174.51"/><path class="cls-4" d="M923.09,35.4l12.88,8-3.34-15.16,11.26-10.25L929,16.55,923.05,2.27l-5.88,14.3L902.24,18l11.3,10.22-3.31,15.17ZM911.47,21.09l8.32-.79,3.27-8,3.3,8,8.31.77-6.27,5.71,1.86,8.44-7.18-4.43-7.16,4.45,1.84-8.45Z"/><polygon class="cls-4" points="922.75 76.25 929.2 80.23 927.52 72.65 933.16 67.52 925.69 66.83 922.74 59.69 919.79 66.84 912.33 67.55 917.98 72.66 916.32 80.25 922.75 76.25"/><polygon class="cls-4" points="1091.71 437.81 1100.77 443.4 1098.42 432.74 1106.35 425.52 1095.85 424.55 1091.68 414.49 1087.54 424.56 1077.04 425.56 1084.99 432.75 1082.66 443.42 1091.71 437.81"/><path class="cls-4" d="M1035.16,421.94l12.88,7.95-3.34-15.15L1056,404.48,1041,403.1l-5.92-14.29-5.88,14.3-14.93,1.43,11.3,10.22-3.31,15.17Zm-11.62-14.31,8.32-.79,3.27-8,3.3,7.95,8.31.78-6.27,5.71,1.86,8.44-7.18-4.43-7.16,4.44,1.84-8.44Z"/><polygon class="cls-4" points="1091.84 548.31 1087.7 558.37 1077.2 559.37 1085.14 566.56 1082.82 577.24 1091.87 571.62 1100.93 577.21 1098.58 566.55 1106.51 559.33 1096 558.36 1091.84 548.31"/><path class="cls-4" d="M1035.27,517l12.88,8-3.34-15.16,11.27-10.25-14.93-1.39-5.92-14.28-5.88,14.3-14.93,1.42,11.3,10.22L1022.41,525Zm-11.62-14.31,8.32-.79,3.27-8,3.3,8,8.31.77-6.27,5.71,1.86,8.44-7.17-4.43-7.17,4.45,1.84-8.45Z"/><path class="cls-4" d="M1100.61,487.6l-8.33-20.1L1084,487.62l-21,2L1078.89,504l-4.65,21.35,18.1-11.24,18.12,11.19-4.7-21.33,15.86-14.43ZM1099.8,502l2.62,11.88-10.09-6.23-10.08,6.26,2.59-11.89-8.85-8,11.7-1.12,4.61-11.21,4.64,11.2,11.7,1.09Z"/><polygon class="cls-4" points="1034.83 462.8 1041.27 466.77 1039.59 459.19 1045.23 454.07 1037.76 453.38 1034.81 446.23 1031.87 453.38 1024.4 454.09 1030.05 459.21 1028.39 466.79 1034.83 462.8"/><polygon class="cls-4" points="1098.26 298.93 1106.19 291.71 1095.69 290.74 1091.53 280.68 1087.39 290.75 1076.88 291.75 1084.83 298.94 1082.5 309.61 1091.55 304 1100.62 309.59 1098.26 298.93"/><path class="cls-4" d="M1035.05,326.86l12.88,7.95-3.34-15.16,11.26-10.25L1040.93,308,1035,293.73l-5.88,14.3-14.93,1.42,11.3,10.22-3.31,15.17Zm-11.62-14.31,8.32-.79,3.27-8,3.3,8,8.31.77-6.27,5.71,1.86,8.44-7.18-4.43-7.16,4.45,1.84-8.45Z"/><path class="cls-4" d="M1110.31,391.5l-4.71-21.33,15.86-14.43-21-1.95-8.32-20.1-8.28,20.12-21,2,15.89,14.39-4.65,21.35,18.1-11.24Zm-25.63-23.31-8.85-8,11.7-1.12,4.61-11.21,4.64,11.2,11.7,1.09-8.83,8,2.62,11.88-10.1-6.23-10.08,6.26Z"/><polygon class="cls-4" points="1034.71 367.71 1041.15 371.69 1039.48 364.11 1045.12 358.98 1037.65 358.29 1034.69 351.15 1031.75 358.3 1024.29 359.01 1029.94 364.12 1028.28 371.7 1034.71 367.71"/><path class="cls-4" d="M1035.45,674.06l-5.88,14.31-14.92,1.42L1025.94,700l-3.31,15.17,12.86-8,12.88,7.95L1045,700l11.27-10.25-14.93-1.39Zm11.63,18.8-6.28,5.71,1.86,8.44-7.17-4.43-7.17,4.45,1.85-8.45-6.29-5.69,8.31-.8,3.28-8,3.29,8Z"/><polygon class="cls-4" points="1091.99 682.12 1087.86 692.18 1077.35 693.18 1085.3 700.38 1082.97 711.05 1092.02 705.43 1101.09 711.02 1098.73 700.36 1106.66 693.14 1096.16 692.17 1091.99 682.12"/><path class="cls-4" d="M1044.92,604.9l11.27-10.25-14.93-1.38L1035.34,579l-5.88,14.3-14.92,1.42,11.29,10.23-3.31,15.16,12.86-8,12.88,7.95Zm-9.54,2.6-7.17,4.44,1.85-8.44-6.29-5.7,8.31-.79,3.28-8,3.29,8,8.31.77-6.27,5.71,1.86,8.45Z"/><polygon class="cls-4" points="1035.03 636.4 1032.09 643.55 1024.62 644.26 1030.27 649.38 1028.62 656.96 1035.05 652.97 1041.49 656.94 1039.82 649.36 1045.45 644.24 1037.99 643.54 1035.03 636.4"/><path class="cls-4" d="M1092.44,601.31l-8.28,20.13-21,2,15.9,14.39-4.66,21.34,18.1-11.24,18.13,11.19-4.71-21.33,15.86-14.43-21-2Zm16.35,26.45-8.83,8,2.62,11.88-10.1-6.23-10.08,6.26,2.6-11.89-8.86-8,11.7-1.12,4.61-11.21,4.64,11.2Z"/><polygon class="cls-4" points="1034.94 557.88 1041.38 561.86 1039.7 554.28 1045.34 549.15 1037.88 548.46 1034.92 541.32 1031.98 548.47 1024.51 549.18 1030.16 554.29 1028.51 561.87 1034.94 557.88"/><polygon class="cls-4" points="1087.5 157.12 1077 158.12 1084.94 165.32 1082.62 175.99 1091.67 170.37 1100.73 175.97 1098.38 165.3 1106.31 158.09 1095.8 157.11 1091.64 147.06 1087.5 157.12"/><path class="cls-4" d="M1035.13,231.91l12.88,8-3.34-15.16,11.27-10.25L1041,213.06l-5.92-14.29-5.88,14.31-14.93,1.42,11.3,10.22-3.31,15.17Zm-11.62-14.31,8.32-.79,3.27-8,3.3,8,8.31.77-6.27,5.71,1.86,8.44-7.18-4.43-7.16,4.45,1.84-8.45Z"/><path class="cls-4" d="M1110.42,257.88l-4.7-21.34,15.85-14.42-21-2-8.33-20.11L1084,220.19l-21,2,15.89,14.39-4.66,21.34,18.1-11.23Zm-25.62-23.32-8.85-8,11.7-1.11,4.61-11.21,4.63,11.19,11.7,1.09-8.83,8,2.62,11.87-10.09-6.23-10.08,6.26Z"/><polygon class="cls-4" points="1034.8 272.76 1041.24 276.74 1039.57 269.16 1045.2 264.03 1037.73 263.34 1034.78 256.19 1031.84 263.35 1024.37 264.06 1030.02 269.17 1028.37 276.75 1034.8 272.76"/><polygon class="cls-4" points="1087.5 18.85 1077 19.85 1084.94 27.04 1082.62 37.72 1091.67 32.1 1100.73 37.69 1098.38 27.03 1106.31 19.81 1095.8 18.84 1091.64 8.79 1087.5 18.85"/><path class="cls-4" d="M1035.13,133.65,1048,141.6l-3.34-15.16,11.27-10.25L1041,114.81l-5.92-14.29-5.88,14.3-14.93,1.42,11.3,10.23-3.31,15.17Zm-11.62-14.31,8.32-.79,3.27-8,3.3,8,8.31.77-6.27,5.71,1.86,8.45-7.18-4.43-7.16,4.44,1.84-8.44Z"/><path class="cls-4" d="M1110.42,119.6l-4.7-21.33,15.85-14.43-21-2-8.33-20.1L1084,81.92l-21,2,15.89,14.39-4.66,21.34,18.1-11.24ZM1084.8,96.29l-8.85-8,11.7-1.12L1092.26,76l4.63,11.2,11.7,1.09-8.83,8,2.62,11.88-10.09-6.23-10.08,6.26Z"/><polygon class="cls-4" points="1034.8 174.51 1041.24 178.48 1039.57 170.9 1045.2 165.78 1037.73 165.09 1034.78 157.94 1031.84 165.09 1024.37 165.8 1030.02 170.92 1028.37 178.5 1034.8 174.51"/><path class="cls-4" d="M1035.13,35.4l12.88,8-3.34-15.16,11.27-10.25L1041,16.55l-5.92-14.28-5.88,14.3L1014.28,18l11.3,10.22-3.31,15.17Zm-11.62-14.31,8.32-.79,3.27-8,3.3,8,8.31.77-6.27,5.71,1.86,8.44-7.18-4.43L1028,35.23l1.84-8.45Z"/><polygon class="cls-4" points="1034.8 76.25 1041.24 80.23 1039.57 72.65 1045.2 67.52 1037.73 66.83 1034.78 59.69 1031.84 66.84 1024.37 67.55 1030.02 72.66 1028.37 80.25 1034.8 76.25"/><polygon class="cls-4" points="1203.75 437.81 1212.81 443.4 1210.46 432.74 1218.39 425.52 1207.89 424.55 1203.72 414.49 1199.58 424.56 1189.08 425.56 1197.03 432.75 1194.7 443.42 1203.75 437.81"/><path class="cls-4" d="M1147.2,421.94l12.88,7.95-3.34-15.15L1168,404.48l-14.93-1.38-5.92-14.29-5.88,14.3-14.93,1.43,11.3,10.22-3.31,15.17Zm-11.62-14.31,8.32-.79,3.27-8,3.3,7.95,8.31.78-6.27,5.71,1.86,8.44-7.17-4.43-7.17,4.44,1.84-8.44Z"/><polygon class="cls-4" points="1203.88 548.31 1199.74 558.37 1189.24 559.37 1197.18 566.56 1194.86 577.24 1203.91 571.62 1212.97 577.21 1210.62 566.55 1218.55 559.33 1208.04 558.36 1203.88 548.31"/><path class="cls-4" d="M1147.31,517l12.88,8-3.34-15.16,11.27-10.25-14.93-1.39-5.92-14.28-5.88,14.3-14.92,1.42,11.29,10.22L1134.45,525Zm-11.61-14.31,8.31-.79,3.28-8,3.29,8,8.31.77-6.27,5.71,1.86,8.44-7.17-4.43-7.17,4.45,1.85-8.45Z"/><path class="cls-4" d="M1212.65,487.6l-8.33-20.1L1196,487.62l-21,2L1190.93,504l-4.65,21.35,18.1-11.24,18.12,11.19L1217.8,504l15.86-14.43Zm-.81,14.38,2.63,11.88-10.1-6.23-10.08,6.26,2.59-11.89-8.85-8,11.7-1.12,4.61-11.21,4.64,11.2,11.7,1.09Z"/><polygon class="cls-4" points="1146.87 462.8 1153.31 466.77 1151.63 459.19 1157.27 454.07 1149.81 453.38 1146.85 446.23 1143.91 453.38 1136.44 454.09 1142.09 459.21 1140.44 466.79 1146.87 462.8"/><polygon class="cls-4" points="1210.31 298.93 1218.23 291.71 1207.73 290.74 1203.57 280.68 1199.43 290.75 1188.92 291.75 1196.87 298.94 1194.54 309.61 1203.59 304 1212.66 309.59 1210.31 298.93"/><path class="cls-4" d="M1147.09,326.86l12.88,7.95-3.34-15.16,11.27-10.25L1153,308l-5.92-14.28-5.88,14.3-14.93,1.42,11.3,10.22-3.31,15.17Zm-11.62-14.31,8.32-.79,3.27-8,3.3,8,8.31.77-6.27,5.71,1.86,8.44-7.18-4.43-7.16,4.45,1.84-8.45Z"/><path class="cls-4" d="M1222.35,391.5l-4.71-21.33,15.86-14.43-21-1.95-8.32-20.1-8.28,20.12-21,2,15.9,14.39-4.66,21.35,18.1-11.24Zm-25.63-23.31-8.85-8,11.7-1.12,4.61-11.21,4.64,11.2,11.7,1.09-8.83,8,2.62,11.88-10.1-6.23-10.08,6.26Z"/><polygon class="cls-4" points="1146.76 367.71 1153.2 371.69 1151.52 364.11 1157.16 358.98 1149.69 358.29 1146.74 351.15 1143.8 358.3 1136.33 359.01 1141.98 364.12 1140.33 371.7 1146.76 367.71"/><path class="cls-4" d="M1147.5,674.06l-5.89,14.31-14.92,1.42L1138,700l-3.31,15.17,12.86-8,12.88,7.95L1157.07,700l11.27-10.25-14.93-1.39Zm11.62,18.8-6.28,5.71,1.86,8.44-7.17-4.43-7.16,4.45,1.84-8.45-6.29-5.69,8.31-.8,3.28-8,3.29,8Z"/><polygon class="cls-4" points="1204.04 682.12 1199.9 692.18 1189.39 693.18 1197.34 700.38 1195.01 711.05 1204.06 705.43 1213.13 711.02 1210.77 700.36 1218.7 693.14 1208.2 692.17 1204.04 682.12"/><path class="cls-4" d="M1157,604.9l11.27-10.25-14.93-1.38L1147.38,579l-5.88,14.3-14.92,1.42,11.29,10.23-3.31,15.16,12.86-8,12.88,7.95Zm-9.54,2.6-7.17,4.44,1.85-8.44-6.29-5.7,8.31-.79,3.28-8,3.29,8,8.32.77-6.28,5.71,1.86,8.45Z"/><polygon class="cls-4" points="1147.07 636.4 1144.13 643.55 1136.66 644.26 1142.31 649.38 1140.66 656.96 1147.09 652.97 1153.53 656.94 1151.86 649.36 1157.49 644.24 1150.03 643.54 1147.07 636.4"/><path class="cls-4" d="M1204.48,601.31l-8.28,20.13-21,2,15.89,14.39-4.66,21.34,18.1-11.24,18.13,11.19L1218,637.79l15.86-14.43-21-2Zm16.35,26.45-8.83,8,2.62,11.88-10.09-6.23-10.08,6.26,2.59-11.89-8.85-8,11.69-1.12,4.62-11.21,4.63,11.2Z"/><polygon class="cls-4" points="1146.98 557.88 1153.42 561.86 1151.75 554.28 1157.38 549.15 1149.92 548.46 1146.96 541.32 1144.02 548.47 1136.55 549.18 1142.2 554.29 1140.55 561.87 1146.98 557.88"/><polygon class="cls-4" points="1199.54 157.12 1189.04 158.12 1196.99 165.32 1194.66 175.99 1203.71 170.37 1212.77 175.97 1210.42 165.3 1218.35 158.09 1207.84 157.11 1203.68 147.06 1199.54 157.12"/><path class="cls-4" d="M1147.17,231.91l12.88,8-3.34-15.16L1168,214.45l-14.93-1.39-5.92-14.29-5.88,14.31-14.93,1.42,11.3,10.22-3.31,15.17Zm-11.61-14.31,8.31-.79,3.27-8,3.3,8,8.31.77-6.27,5.71,1.86,8.44-7.17-4.43-7.17,4.45,1.84-8.45Z"/><path class="cls-4" d="M1222.46,257.88l-4.7-21.34,15.86-14.42-21-2-8.33-20.11L1196,220.19l-21,2,15.89,14.39-4.66,21.34,18.11-11.23Zm-25.62-23.32-8.85-8,11.7-1.11,4.61-11.21,4.63,11.19,11.71,1.09-8.84,8,2.62,11.87-10.09-6.23-10.08,6.26Z"/><polygon class="cls-4" points="1146.84 272.76 1153.28 276.74 1151.61 269.16 1157.24 264.03 1149.78 263.34 1146.82 256.19 1143.88 263.35 1136.41 264.06 1142.06 269.17 1140.41 276.75 1146.84 272.76"/><polygon class="cls-4" points="1199.54 18.85 1189.04 19.85 1196.99 27.04 1194.66 37.72 1203.71 32.1 1212.77 37.69 1210.42 27.03 1218.35 19.81 1207.84 18.84 1203.68 8.79 1199.54 18.85"/><path class="cls-4" d="M1147.17,133.65l12.88,7.95-3.34-15.16L1168,116.19l-14.93-1.38-5.92-14.29-5.88,14.3-14.93,1.42,11.3,10.23-3.31,15.17Zm-11.61-14.31,8.31-.79,3.27-8,3.3,8,8.31.77-6.27,5.71,1.86,8.45-7.17-4.43-7.17,4.44,1.84-8.44Z"/><path class="cls-4" d="M1222.46,119.6l-4.7-21.33,15.86-14.43-21-2-8.33-20.1L1196,81.92l-21,2,15.89,14.39-4.66,21.34,18.11-11.24Zm-25.62-23.31-8.85-8,11.7-1.12L1204.3,76l4.63,11.2,11.71,1.09-8.84,8,2.62,11.88-10.09-6.23-10.08,6.26Z"/><polygon class="cls-4" points="1146.84 174.51 1153.28 178.48 1151.61 170.9 1157.24 165.78 1149.78 165.09 1146.82 157.94 1143.88 165.09 1136.41 165.8 1142.06 170.92 1140.41 178.5 1146.84 174.51"/><path class="cls-4" d="M1147.17,35.4l12.88,8-3.34-15.16L1168,17.94l-14.93-1.39-5.92-14.28-5.88,14.3L1126.32,18l11.3,10.22-3.31,15.17Zm-11.61-14.31,8.31-.79,3.27-8,3.3,8,8.31.77-6.27,5.71,1.86,8.44-7.17-4.43L1140,35.23l1.84-8.45Z"/><polygon class="cls-4" points="1146.84 76.25 1153.28 80.23 1151.61 72.65 1157.24 67.52 1149.78 66.83 1146.82 59.69 1143.88 66.84 1136.41 67.55 1142.06 72.66 1140.41 80.25 1146.84 76.25"/><path class="cls-4" d="M1259.24,421.94l12.88,7.95-3.34-15.15,11.27-10.26-14.93-1.38-5.92-14.29-5.88,14.3-14.92,1.43,11.29,10.22-3.31,15.17Zm-11.61-14.31,8.31-.79,3.28-8,3.29,7.95,8.31.78-6.27,5.71,1.86,8.44-7.17-4.43-7.17,4.44,1.85-8.44Z"/><path class="cls-4" d="M1259.35,517l12.88,8-3.34-15.16,11.27-10.25-14.93-1.39-5.92-14.28-5.88,14.3-14.92,1.42,11.29,10.22L1246.49,525Zm-11.61-14.31,8.31-.79,3.28-8,3.29,8,8.32.77-6.28,5.71,1.86,8.44-7.17-4.43-7.17,4.45,1.85-8.45Z"/><polygon class="cls-4" points="1258.91 462.8 1265.35 466.77 1263.68 459.19 1269.31 454.07 1261.85 453.38 1258.89 446.23 1255.95 453.38 1248.48 454.09 1254.13 459.21 1252.48 466.79 1258.91 462.8"/><path class="cls-4" d="M1259.13,326.86l12.88,7.95-3.34-15.16,11.27-10.25L1265,308l-5.92-14.28-5.88,14.3-14.93,1.42,11.3,10.22-3.31,15.17Zm-11.62-14.31,8.32-.79,3.27-8,3.3,8,8.31.77-6.27,5.71,1.86,8.44-7.17-4.43-7.17,4.45,1.84-8.45Z"/><polygon class="cls-4" points="1258.8 367.71 1265.24 371.69 1263.57 364.11 1269.2 358.98 1261.73 358.29 1258.78 351.15 1255.84 358.3 1248.37 359.01 1254.02 364.12 1252.37 371.7 1258.8 367.71"/><path class="cls-4" d="M1259.54,674.06l-5.89,14.31-14.92,1.42L1250,700l-3.31,15.17,12.87-8,12.88,7.95L1269.11,700l11.27-10.25-14.93-1.39Zm11.62,18.8-6.28,5.71,1.86,8.44-7.17-4.43-7.16,4.45,1.84-8.45-6.29-5.69,8.31-.8,3.28-8,3.29,8Z"/><path class="cls-4" d="M1269,604.9l11.27-10.25-14.93-1.38L1259.43,579l-5.89,14.3-14.92,1.42,11.29,10.23-3.31,15.16,12.86-8,12.88,7.95Zm-9.54,2.6-7.16,4.44,1.84-8.44-6.29-5.7,8.31-.79,3.28-8,3.29,8,8.32.77-6.28,5.71,1.86,8.45Z"/><polygon class="cls-4" points="1259.11 636.4 1256.17 643.55 1248.71 644.26 1254.35 649.38 1252.7 656.96 1259.13 652.97 1265.57 656.94 1263.9 649.36 1269.53 644.24 1262.07 643.54 1259.11 636.4"/><polygon class="cls-4" points="1259.02 557.88 1265.46 561.86 1263.79 554.28 1269.42 549.15 1261.96 548.46 1259 541.32 1256.06 548.47 1248.6 549.18 1254.24 554.29 1252.59 561.87 1259.02 557.88"/><path class="cls-4" d="M1259.21,231.91l12.88,8-3.34-15.16L1280,214.45l-14.93-1.39-5.92-14.29-5.88,14.31-14.92,1.42,11.29,10.22-3.31,15.17ZM1247.6,217.6l8.31-.79,3.28-8,3.29,8,8.31.77-6.27,5.71,1.86,8.44-7.17-4.43-7.17,4.45,1.85-8.45Z"/><polygon class="cls-4" points="1258.88 272.76 1265.32 276.74 1263.65 269.16 1269.28 264.03 1261.82 263.34 1258.86 256.19 1255.92 263.35 1248.45 264.06 1254.1 269.17 1252.45 276.75 1258.88 272.76"/><path class="cls-4" d="M1259.21,133.65l12.88,7.95-3.34-15.16L1280,116.19l-14.93-1.38-5.92-14.29-5.88,14.3-14.92,1.42,11.29,10.23-3.31,15.17Zm-11.61-14.31,8.31-.79,3.28-8,3.29,8,8.31.77-6.27,5.71,1.86,8.45-7.17-4.43-7.17,4.44,1.85-8.44Z"/><polygon class="cls-4" points="1258.88 174.51 1265.32 178.48 1263.65 170.9 1269.28 165.78 1261.82 165.09 1258.86 157.94 1255.92 165.09 1248.45 165.8 1254.1 170.92 1252.45 178.5 1258.88 174.51"/><path class="cls-4" d="M1259.21,35.4l12.88,8-3.34-15.16L1280,17.94l-14.93-1.39-5.92-14.28-5.88,14.3L1238.37,18l11.29,10.22-3.31,15.17ZM1247.6,21.09l8.31-.79,3.28-8,3.29,8,8.31.77-6.27,5.71,1.86,8.44-7.17-4.43L1252,35.23l1.85-8.45Z"/><polygon class="cls-4" points="1258.88 76.25 1265.32 80.23 1263.65 72.65 1269.28 67.52 1261.82 66.83 1258.86 59.69 1255.92 66.84 1248.45 67.55 1254.1 72.66 1252.45 80.25 1258.88 76.25"/></g></g><text class="cls-5" transform="translate(223.5 383.5)">One</text><text class="cls-6" transform="translate(220.5 380.5)">One</text><text class="cls-7" transform="translate(941.35 667.45)">1 engine</text><path class="cls-8" d="M640,571.15a40.33,40.33,0,0,1-40.29-40.29V189.14a40.29,40.29,0,0,1,80.58,0V530.86A40.33,40.33,0,0,1,640,571.15Z"/><path class="cls-9" d="M640,571.15a40.33,40.33,0,0,1-40.29-40.29V189.14a40.29,40.29,0,0,1,80.58,0V530.86A40.33,40.33,0,0,1,640,571.15Z"/><path class="cls-4" d="M640,571.15a40.33,40.33,0,0,1-40.29-40.29V189.14a40.29,40.29,0,0,1,80.58,0V530.86A40.33,40.33,0,0,1,640,571.15Z"/><rect class="cls-10" x="608.24" y="157.38" width="63.51" height="405.24" rx="31.76"/><g class="cls-11"><line class="cls-12" x1="640.21" y1="246.08" x2="640.21" y2="520.29"/><polygon class="cls-4" points="620.27 514.45 640.21 548.99 660.16 514.45 620.27 514.45"/></g><g class="cls-13"><path d="M994.61,447.84a11.71,11.71,0,0,1-10.2-17.5,12.94,12.94,0,0,1-.64-4A13.06,13.06,0,0,1,1003,414.82a11.48,11.48,0,0,1,2.26-.23,11.74,11.74,0,0,1,9,19.22,13.08,13.08,0,0,1-13,12.25h-.46A11.73,11.73,0,0,1,994.61,447.84Z"/><path d="M1014,411.41a14.14,14.14,0,0,1-5.94-1.3,16,16,0,0,1-4.52.65,16.19,16.19,0,0,1-8.52-30,16.19,16.19,0,0,1,26.35-5.69h.47a14.24,14.24,0,0,1,5.35,27.44A14.26,14.26,0,0,1,1014,411.41Z"/><path d="M1041.91,383.41a16.53,16.53,0,0,1-9.49-3,16.86,16.86,0,0,1-2.28-1.93,14.55,14.55,0,0,1-2.93-27.14,16.58,16.58,0,0,1,16.1-12.57,16.53,16.53,0,0,1,15.38,10.45,14.54,14.54,0,0,1,7.67,22.24,14.54,14.54,0,0,1-11.91,6.21,16.58,16.58,0,0,1-12.54,5.73Z"/><path d="M1046.53,431.61c-5.36,0-9.56-4.83-9.56-11v-3.79a12.16,12.16,0,0,1,2-6.71,9.53,9.53,0,0,1,7.86-4.46,181.36,181.36,0,0,1,75.29,0,10.78,10.78,0,0,1,3.14.72,9.41,9.41,0,0,1,4.52,3.56,12.24,12.24,0,0,1,2,6.87v3.79c0,6.16-4.2,11-9.56,11Z"/><path d="M1076.52,582.66a28.74,28.74,0,0,1-25.36-15,30.21,30.21,0,0,1-50.16,3,21.52,21.52,0,0,1-29.85,8.46,19.47,19.47,0,0,1-2.16-1.28,8.68,8.68,0,0,1-6.4,2.85H927.28a6.74,6.74,0,0,1-6-3.66,6.81,6.81,0,0,1,.5-7.09l16-22.56v-.22h-.21l-.05-8.61-.09-4.37-.15-14.55,5.66,0a25.75,25.75,0,0,1-2.53-11.17A26.8,26.8,0,0,1,953.23,486v-4.39a15.16,15.16,0,0,1,15.14-15.14h.94a15.08,15.08,0,0,1,9.56,3.41l-.57-4.7a10.16,10.16,0,0,1-5.12-8.82V456a10.12,10.12,0,0,1,1.5-5.31,7.68,7.68,0,0,1,.47-.78,8.25,8.25,0,0,1,6.93-4,10.83,10.83,0,0,1,1.27-.08h32.2a11,11,0,0,1,1.28.08,8.24,8.24,0,0,1,7,4.23,10.1,10.1,0,0,1,1.88,5.86v.41a10.16,10.16,0,0,1-5.12,8.82l-1.76,14.51h28.4V419.24h76.41v60.64h.47l-.13,30.69h5.42v1l.11,5.56,0,20.1,0,9.73-18.26.07v13.16h-5.08a29.26,29.26,0,0,1-22.3,21.5A28.88,28.88,0,0,1,1076.52,582.66Z"/></g><path class="cls-4" d="M989.28,442.51A11.73,11.73,0,0,1,979.07,425a13.25,13.25,0,0,1-.63-4,13.08,13.08,0,0,1,19.25-11.51,12.19,12.19,0,0,1,2.26-.22,11.74,11.74,0,0,1,9,19.22,13.08,13.08,0,0,1-13,12.25h-.46A11.73,11.73,0,0,1,989.28,442.51Z"/><path class="cls-4" d="M1008.66,406.08a14.14,14.14,0,0,1-5.94-1.3,16,16,0,0,1-4.52.65,16.19,16.19,0,0,1-8.52-30,16.19,16.19,0,0,1,26.35-5.69h.47a14.24,14.24,0,0,1,5.35,27.44A14.27,14.27,0,0,1,1008.66,406.08Z"/><path class="cls-4" d="M1036.58,378.08a16.53,16.53,0,0,1-9.49-3,16.86,16.86,0,0,1-2.28-1.93,14.55,14.55,0,0,1-2.93-27.14,16.54,16.54,0,0,1,16.1-12.57,16.53,16.53,0,0,1,15.38,10.45,14.54,14.54,0,0,1-4.24,28.45,16.61,16.61,0,0,1-12.54,5.73Z"/><path class="cls-4" d="M1041.2,426.28c-5.36,0-9.56-4.83-9.56-11V411.5a12.14,12.14,0,0,1,2-6.71,9.51,9.51,0,0,1,7.86-4.46,181.31,181.31,0,0,1,75.28,0,10.71,10.71,0,0,1,3.15.71,9.53,9.53,0,0,1,4.52,3.57,12.22,12.22,0,0,1,2,6.87v3.79c0,6.16-4.2,11-9.56,11Z"/><path class="cls-4" d="M1071.18,577.33a28.74,28.74,0,0,1-25.35-15,28.87,28.87,0,0,1-19.33,14,28.47,28.47,0,0,1-7.44,1,28.85,28.85,0,0,1-23.39-12,21.55,21.55,0,0,1-29.85,8.46,21.16,21.16,0,0,1-2.16-1.28,8.68,8.68,0,0,1-6.4,2.85H922a6.8,6.8,0,0,1-5.51-10.75l16-22.56v-.22h-.2l0-8.61-.09-4.37L932,514.35l5.67,0a25.67,25.67,0,0,1-2.53-11.16,26.78,26.78,0,0,1,12.81-22.52V476.3A15.15,15.15,0,0,1,963,461.16H964a15.08,15.08,0,0,1,9.56,3.41l-.57-4.7a10.18,10.18,0,0,1-5.12-8.83v-.4a10.07,10.07,0,0,1,1.5-5.32c.14-.26.3-.52.47-.78a8.23,8.23,0,0,1,6.92-4,11,11,0,0,1,1.28-.08h32.2a11.13,11.13,0,0,1,1.28.08,8.23,8.23,0,0,1,7,4.22,10.15,10.15,0,0,1,1.88,5.87v.4a10.18,10.18,0,0,1-5.12,8.83l-1.76,14.51h28.4V413.91h76.41v60.64h.47l-.14,30.69h5.43v1l.1,5.55,0,20.11,0,9.73-18.26.07v13.16h-5.08a29.26,29.26,0,0,1-22.3,21.49A28.49,28.49,0,0,1,1071.18,577.33Z"/><rect class="cls-14" x="953.64" y="535.05" width="35.19" height="27.26"/><rect class="cls-14" x="974.95" y="521.18" width="124.66" height="27.26"/><path class="cls-15" d="M959.68,535.27H946.52a2.74,2.74,0,0,0-2.22,1.19l-22.64,31.9a.41.41,0,0,0,.29.65h35.3a2.54,2.54,0,0,0,2.41-2.66v-30Z"/><polygon class="cls-16" points="958 567.28 958 536.68 955.94 536.68 951.25 567.28 958 567.28"/><polygon class="cls-16" points="949.35 567.28 954.89 536.68 952.87 536.68 941.87 567.28 949.35 567.28"/><polygon class="cls-16" points="940.42 567.28 951.43 536.68 948.99 536.68 932.35 567.28 940.42 567.28"/><polygon class="cls-16" points="930.79 567.28 947.64 536.68 945.67 536.68 924.43 567.28 930.79 567.28"/><polygon class="cls-17" points="1010.02 450.05 1005.77 485.02 982.46 485.02 981.81 479.62 978.22 450.05 1010.02 450.05"/><polygon class="cls-18" points="1000.21 451.81 997.35 486.79 982.81 487.5 982.26 481.44 978.74 451.81 1000.21 451.81"/><polygon class="cls-19" points="1009.16 454.34 1005.53 486.18 1003.19 487.38 1002.86 481.33 1005.75 452.36 1009.16 454.34"/><rect class="cls-20" x="974.24" y="446.87" width="39.75" height="7.95" rx="3.54"/><rect class="cls-21" x="974.69" y="446.98" width="38.77" height="5.4" rx="2.4"/><rect class="cls-22" x="975.06" y="446.95" width="38.08" height="3.78" rx="1.68"/><ellipse class="cls-23" cx="963.82" cy="503.21" rx="22.33" ry="20.68"/><ellipse class="cls-24" cx="967.49" cy="502.86" rx="22.33" ry="20.68"/><path class="cls-25" d="M1112.14,530.59l-157.87,2.07,0-44.62a6.28,6.28,0,0,1,6-6.45l35.36-.7,116.76.06Z"/><path class="cls-26" d="M1005.28,421a5.33,5.33,0,0,0-8.61-4.2,6.66,6.66,0,1,0-9.63,9.15,5.33,5.33,0,1,0,6.56,7.95,6.54,6.54,0,0,0,2.35.44,6.67,6.67,0,0,0,6.66-6.67,7,7,0,0,0-.27-1.9A5.34,5.34,0,0,0,1005.28,421Z"/><path class="cls-27" d="M1001.39,422.77a3.66,3.66,0,0,0-3.66-3.66,3.61,3.61,0,0,0-2.25.78,4.57,4.57,0,1,0-6.6,6.27,3.65,3.65,0,1,0,4.49,5.46,4.84,4.84,0,0,0,1.62.29,4.57,4.57,0,0,0,4.57-4.57,4.64,4.64,0,0,0-.19-1.3A3.67,3.67,0,0,0,1001.39,422.77Z"/><path class="cls-26" d="M1016.5,376.16a7.86,7.86,0,0,0-3.11.64A9.79,9.79,0,0,0,995.05,380a9.79,9.79,0,1,0,8.27,17.62,7.84,7.84,0,0,0,13.18-5.74,7.84,7.84,0,0,0,0-15.68Z"/><path class="cls-27" d="M1013.22,377.87a6.06,6.06,0,0,0-2.38.49,7.49,7.49,0,0,0-14,2.42,7.5,7.5,0,1,0,6.33,13.49,6,6,0,0,0,4.08,1.61,6,6,0,0,0,6-6,6,6,0,0,0,0-12Z"/><path class="cls-26" d="M1043.8,341.68a10.18,10.18,0,0,0-14.18,2.52,10.07,10.07,0,0,0-1.79,6.72,8.14,8.14,0,0,0,.33,16.27,10.16,10.16,0,0,0,16.78.14,10.37,10.37,0,0,0,1.07-2,8.14,8.14,0,1,0,2.13-15.61A10.16,10.16,0,0,0,1043.8,341.68Z"/><path class="cls-27" d="M1042,343.48a7.67,7.67,0,0,0-12,7,6.14,6.14,0,0,0-3.12,11.16,6.2,6.2,0,0,0,3.37,1.1,7.41,7.41,0,0,0,2,2,7.68,7.68,0,0,0,10.69-1.89,8,8,0,0,0,.81-1.49,6.14,6.14,0,1,0,1.6-11.78A7.65,7.65,0,0,0,1042,343.48Z"/><circle class="cls-28" cx="976.65" cy="555.21" r="15.17"/><circle class="cls-29" cx="975.52" cy="555" r="14.8"/><circle class="cls-30" cx="975.69" cy="555.21" r="6.79"/><path class="cls-31" d="M973,555.21a2.72,2.72,0,1,0,2.72-2.72A2.71,2.71,0,0,0,973,555.21Z"/><path class="cls-24" d="M975.79,541.59s-10.1,0-12.31,8.48c0,0-.59.37.73.44s2.07-7.52,12.17-7.22C976.38,543.29,978.51,542.7,975.79,541.59Z"/><path class="cls-24" d="M973.71,567.27s-10-1.75-10.65-10.48c0,0-.52-.47.8-.31s.73,7.76,10.73,9.23C974.59,565.71,976.59,566.66,973.71,567.27Z"/><circle class="cls-28" cx="1072.74" cy="547.87" r="22.67"/><circle class="cls-32" cx="1071.18" cy="548.44" r="22.49"/><circle class="cls-30" cx="1071.3" cy="547.87" r="10.15"/><path class="cls-33" d="M1067.24,547.87a4.06,4.06,0,1,0,4.06-4.06A4.06,4.06,0,0,0,1067.24,547.87Z"/><path class="cls-24" d="M1090.14,550.51s-2.6,14.86-15.65,15.93c0,0-.69.78-.46-1.19s11.6-1.11,13.76-16C1087.79,549.2,1089.21,546.21,1090.14,550.51Z"/><path class="cls-24" d="M1072.15,528.69s-15.09,0-18.39,12.67c0,0-.88.55,1.1.66s3.08-11.24,18.17-10.8C1073,531.22,1076.23,530.34,1072.15,528.69Z"/><circle class="cls-28" cx="1020.61" cy="547.87" r="22.67"/><circle class="cls-34" cx="1019.06" cy="548.44" r="22.49"/><circle class="cls-30" cx="1019.17" cy="547.87" r="10.15"/><path class="cls-31" d="M1015.11,547.87a4.06,4.06,0,1,0,4.06-4.06A4.06,4.06,0,0,0,1015.11,547.87Z"/><path class="cls-24" d="M1038,550.51s-2.6,14.86-15.65,15.93c0,0-.69.78-.46-1.19s11.6-1.11,13.76-16C1035.66,549.2,1037.08,546.21,1038,550.51Z"/><path class="cls-24" d="M1020,528.69s-15.09,0-18.39,12.67c0,0-.88.55,1.1.66s3.08-11.24,18.17-10.8C1020.9,531.22,1024.1,530.34,1020,528.69Z"/><path class="cls-35" d="M1050.57,480.78h-44.5l-38.67.44-7.16,21.37S964,491,995.93,485.73A375.84,375.84,0,0,1,1050.57,480.78Z"/><polygon class="cls-36" points="1110.35 509.84 954.9 510.02 954.93 492.05 995.6 491.76 1110.49 491.73 1110.35 509.84"/><path class="cls-37" d="M1116.9,419.88h-75.7c-1.75,0-3.16-2.05-3.16-4.59V411.5c0-2.53,1.41-4.59,3.16-4.59a175.92,175.92,0,0,1,75.7,0,2.78,2.78,0,0,1,2.24,1.35,5.79,5.79,0,0,1,.92,3.24v3.79C1120.06,417.83,1118.65,419.88,1116.9,419.88Z"/><path class="cls-38" d="M1116.48,415.31h-74.83a3,3,0,0,1-3.13-2.93V410a3,3,0,0,1,3.13-2.92,195.22,195.22,0,0,1,37.48-3.91,186.53,186.53,0,0,1,37.35,3.91,3.33,3.33,0,0,1,2.21.85,2.83,2.83,0,0,1,.92,2.07v2.42A3,3,0,0,1,1116.48,415.31Z"/><path class="cls-39" d="M1115.92,412.38H1042c-1.7,0-3.09-.9-3.09-2v-1.65c0-1.11,1.39-2,3.09-2,10.85-1.44,23.2-3.58,37.13-3.58s26.19,2.09,36.79,3.58a4.24,4.24,0,0,1,2.19.59,1.75,1.75,0,0,1,.9,1.42v1.65C1119,411.48,1117.63,412.38,1115.92,412.38Z"/><rect class="cls-40" x="1048.31" y="420.3" width="63.61" height="98.14"/><path class="cls-40" d="M938.61,535.47l-.08-14.54,94,.43a15.78,15.78,0,0,1,14.69-9.42c11.26-.2,70.59-.15,70.59-.15l.06,23.18Z"/><path class="cls-41" d="M938.51,528.83l-.09-8.05,94,.43a15.76,15.76,0,0,1,14.68-9.42c11.27-.2,70.6-.15,70.6-.15l.06,16.7Z"/><path class="cls-42" d="M1111.21,420.74l-62.39-.11-.1,91.21,9.15.17S1065.23,449.19,1111.21,420.74Z"/><path class="cls-43" d="M962.5,467.56h2a8.2,8.2,0,0,1,8.2,8.2v45a0,0,0,0,1,0,0H954.3a0,0,0,0,1,0,0v-45A8.2,8.2,0,0,1,962.5,467.56Z"/><path class="cls-44" d="M962.65,469.87h1.58a4.06,4.06,0,0,1,4.06,4.06V494a0,0,0,0,1,0,0h-9.69a0,0,0,0,1,0,0V473.93A4.06,4.06,0,0,1,962.65,469.87Z"/><rect class="cls-40" x="1026.66" y="444.41" width="3.34" height="179.02" transform="translate(1558.19 -496.51) rotate(89.77)"/><path class="cls-45" d="M1111.92,420.3s-41.52,18.18-54.05,91.71l4.15-.17s8.27-35.36,49.9-73.36Z"/><path class="cls-46" d="M1104.53,434.8V462a4.68,4.68,0,0,1-4.8,4.56h-36.18a5,5,0,0,1-2.39-.6,4.54,4.54,0,0,1-2.41-4V434.8a4.68,4.68,0,0,1,4.8-4.56h36.18a4.91,4.91,0,0,1,3.13,1.11A4.42,4.42,0,0,1,1104.53,434.8Z"/><polygon class="cls-47" points="1059.14 443.93 1059.22 457.31 1104.29 448.18 1104.53 434.8 1059.14 443.93"/><path class="cls-48" d="M994.6,520.46h1.07a4.31,4.31,0,0,1,4.31,4.31v24.79a3.56,3.56,0,0,1-3.56,3.56h-2.57a3.56,3.56,0,0,1-3.56-3.56V524.77A4.31,4.31,0,0,1,994.6,520.46Z" transform="translate(1531.92 -458.35) rotate(90)"/><path class="cls-49" d="M1005.2,533.22h.58a2.35,2.35,0,0,1,2.35,2.35V552.4a2.16,2.16,0,0,1-2.16,2.16h-1a2.16,2.16,0,0,1-2.16-2.16V535.56a2.35,2.35,0,0,1,2.35-2.35Z" transform="translate(1958.81 -86.98) rotate(118.1)"/><path class="cls-50" d="M1050.65,507.19h.63a2.54,2.54,0,0,1,2.54,2.54V586a2.1,2.1,0,0,1-2.1,2.1h-1.51a2.1,2.1,0,0,1-2.1-2.1v-76.3a2.54,2.54,0,0,1,2.54-2.54Z" transform="translate(1598.63 -503.31) rotate(90)"/><g id="Gray_Medel" data-name="Gray Medel"><path class="cls-51" d="M1240,84.19a41,41,0,1,0-65.18,33.13v32.52l23.8-15.14,23.8,15.14v-32A41,41,0,0,0,1240,84.19Z"/><path class="cls-51" d="M1140.68,84.19a41,41,0,1,0-65.17,33.13v32.52l23.8-15.14,23.8,15.14v-32A41,41,0,0,0,1140.68,84.19Z"/><path class="cls-51" d="M1041.36,84.19a41,41,0,1,0-65.17,33.13v32.52L1000,134.7l23.8,15.14v-32A41,41,0,0,0,1041.36,84.19Z"/></g><ellipse class="cls-52" cx="640.53" cy="197.28" rx="45.43" ry="45.1"/><ellipse class="cls-53" cx="639.47" cy="193.08" rx="45.43" ry="45.1"/><ellipse class="cls-54" cx="639.47" cy="193.08" rx="38.87" ry="38.6"/><polygon class="cls-55" points="639 225.82 621.91 225.82 630.46 211.12 638.83 208.88 647.55 211.12 656.09 225.82 639 225.82"/><path class="cls-56" d="M652.18,158.42a.65.65,0,0,0-.85,0,.94.94,0,0,0-.29.38.57.57,0,0,0-.53.15,1.09,1.09,0,0,0-.3.75,1.29,1.29,0,0,0,0,.34h0a.63.63,0,0,0-.5.07,1,1,0,0,0-.5.92,1.47,1.47,0,0,0,.11.59.61.61,0,0,0,.38.36.76.76,0,0,0,.83-.39.32.32,0,0,0,.27,0,.73.73,0,0,0,.3-.36.37.37,0,0,0,.12.13.43.43,0,0,0,.6,0,1.18,1.18,0,0,0,.37-.85,1,1,0,0,0-.12-.5.82.82,0,0,0,.34-.46,1.9,1.9,0,0,0,0-.63A.88.88,0,0,0,652.18,158.42Z"/><path class="cls-57" d="M652.4,158.93a.88.88,0,0,0-.22-.51.65.65,0,0,0-.85,0,.94.94,0,0,0-.29.38.57.57,0,0,0-.53.15,1.09,1.09,0,0,0-.3.75,1.29,1.29,0,0,0,0,.34h0a.63.63,0,0,0-.5.07,1,1,0,0,0-.5.92,1.47,1.47,0,0,0,.11.59.61.61,0,0,0,.38.36.76.76,0,0,0,.83-.39.32.32,0,0,0,.27,0,.73.73,0,0,0,.3-.36.37.37,0,0,0,.12.13.43.43,0,0,0,.6,0,1.18,1.18,0,0,0,.37-.85,1,1,0,0,0-.12-.5.82.82,0,0,0,.34-.46A1.9,1.9,0,0,0,652.4,158.93Zm-.61,1.23c0,.3-.17.67-.43.69a.28.28,0,0,1-.3-.18.83.83,0,0,1-.3.56.27.27,0,0,1-.31,0,1.74,1.74,0,0,1-.13.2c-.24.28-.69.54-.91,0a.9.9,0,0,1,.31-1.13.53.53,0,0,1,.61.11,1.33,1.33,0,0,1,.12-.4.74.74,0,0,1-.06-.43.94.94,0,0,1,0-.16.75.75,0,0,1,.33-.5c.22-.11.42,0,.48.28a.37.37,0,0,1,.17.05A1,1,0,0,1,651.79,160.16Zm.2-1.3c-.06.2-.33.44-.49.31a.49.49,0,0,1-.09-.5c.05-.2.18-.29.33-.26a.25.25,0,0,1,.16.06A.39.39,0,0,1,652,158.86Z"/><path class="cls-4" d="M649.9,160.34c-.19,0-.35.2-.43.4a.73.73,0,0,0-.06.41.43.43,0,0,0,0,.35.19.19,0,0,0,.11.09.15.15,0,0,0,.15-.14,1.51,1.51,0,0,0,0-.3.25.25,0,0,0-.07-.19s-.11,0-.16,0a1.55,1.55,0,0,1,0-.21c.06-.21.22-.43.39-.45Z"/><path class="cls-4" d="M650.94,159a.49.49,0,0,0-.4.28l0,0a.88.88,0,0,0-.1.36c0,.13.06.37.18.36a.07.07,0,0,0,.06-.07,2.11,2.11,0,0,1,0-.35c0-.13.05-.25.05-.38s0-.05-.05-.05a.5.5,0,0,1,.26-.15S651,159,650.94,159Z"/><path class="cls-4" d="M650.5,160.14a.21.21,0,0,0-.06.1s0,.1,0,.11,0,0,0,0,0-.05,0-.08a.36.36,0,0,1,0-.11S650.5,160.13,650.5,160.14Z"/><path class="cls-4" d="M651.63,158.58h0l0-.06h0l-.1.07,0,0a.3.3,0,0,0-.08.29.12.12,0,0,0,.06.1s.08,0,.09-.07a.3.3,0,0,0,0-.1C651.64,158.75,651.68,158.65,651.63,158.58Z"/><path class="cls-56" d="M642.25,162a.82.82,0,0,0-.43-.38.42.42,0,0,0-.33,0,.51.51,0,0,0-.1-.32.31.31,0,0,0-.47,0A.64.64,0,0,0,640,161a1,1,0,0,0-.39.75.88.88,0,0,0,.12.54.66.66,0,0,0-.19.27.71.71,0,0,0,.11.72.49.49,0,0,0,.26.16.75.75,0,0,0-.06.13,1.09,1.09,0,0,0-.08.31.52.52,0,0,0-.28,0,.7.7,0,0,0-.39.62.75.75,0,0,0,.28.69.5.5,0,0,0,.6-.25,1,1,0,0,0,.11-.23.51.51,0,0,0,.51.17.94.94,0,0,0,.6-.57l.06-.16a1.08,1.08,0,0,0,.95-.51A1.7,1.7,0,0,0,642.25,162Z"/><path class="cls-57" d="M642.25,162a.82.82,0,0,0-.43-.38.42.42,0,0,0-.33,0,.51.51,0,0,0-.1-.32.31.31,0,0,0-.47,0A.64.64,0,0,0,640,161a1,1,0,0,0-.39.75.88.88,0,0,0,.12.54.66.66,0,0,0-.19.27.71.71,0,0,0,.11.72.49.49,0,0,0,.26.16.75.75,0,0,0-.06.13,1.09,1.09,0,0,0-.08.31.52.52,0,0,0-.28,0,.7.7,0,0,0-.39.62.75.75,0,0,0,.28.69.5.5,0,0,0,.6-.25,1,1,0,0,0,.11-.23.51.51,0,0,0,.51.17.94.94,0,0,0,.6-.57l.06-.16a1.08,1.08,0,0,0,.95-.51A1.7,1.7,0,0,0,642.25,162Zm-2.44,2.46c0,.22-.18.51-.39.47a.46.46,0,0,1-.26-.3.5.5,0,0,1,.08-.4c.09-.15.35-.35.48-.19S639.84,164.27,639.81,164.43Zm2.22-1a.81.81,0,0,1-.16.16,1,1,0,0,1-.47.24c-.13,0-.31.05-.41-.05l-.06.23c-.08.21-.23.52-.43.5s-.31-.23-.29-.47A.22.22,0,0,1,640,164c-.2-.2-.05-.56.1-.77l0,0a.43.43,0,0,1-.29-.07c-.27-.18-.15-.61.08-.82a.83.83,0,0,1,.38-1.19.32.32,0,0,1,.27,0,.62.62,0,0,1,.25.45.39.39,0,0,1,.55.17.57.57,0,0,1,.07.22.82.82,0,0,1,.26,0c.34,0,.6.3.6.76A1.17,1.17,0,0,1,642,163.41Z"/><path class="cls-4" d="M639.58,164a.41.41,0,0,0-.31.24.52.52,0,0,0-.06.28.14.14,0,0,0,0,.09.18.18,0,0,0,.09.13s.08,0,.1-.06a.54.54,0,0,0,.05-.21.24.24,0,0,0,0-.12c0-.05-.07-.05-.11,0l0,0s0-.05,0-.07a.52.52,0,0,1,.26-.25S639.59,164,639.58,164Z"/><path class="cls-4" d="M640.09,163.82h0S640.08,163.84,640.09,163.82Z"/><path class="cls-4" d="M640.08,163.57a.08.08,0,0,0-.09,0,.65.65,0,0,1,.13-.35h0a.54.54,0,0,0-.2.46.19.19,0,0,0,0,.18s.05.07.09.06.06,0,.08-.08,0,0,0,0v-.07s0,0,0-.05S640.13,163.6,640.08,163.57Z"/><path class="cls-4" d="M639.94,161.65a.67.67,0,0,1,.31-.47s0,0,0,0a.7.7,0,0,0-.39.69s0,0,0,.06a.31.31,0,0,0,0,.21c0,.07.06.11.13.12s.15-.08.17-.15a1.11,1.11,0,0,0,0-.19.5.5,0,0,0,0-.17c0-.09-.1-.09-.17-.06s0,0-.06.06Z"/><path class="cls-4" d="M641.47,162.6c-.05-.1-.14,0-.19,0a.42.42,0,0,0-.08.38.21.21,0,0,0,.15.18.09.09,0,0,0,.08-.1.91.91,0,0,1,0-.23A.41.41,0,0,0,641.47,162.6Z"/><path class="cls-56" d="M658.22,163.83a.94.94,0,0,0-1.09-.42,1,1,0,0,0-.49.34.69.69,0,0,0-.72-.08,1.21,1.21,0,0,0-.62.8,2.14,2.14,0,0,0-.08.44l0,0a.94.94,0,0,0-.66-.18,1.15,1.15,0,0,0-.91.93,2,2,0,0,0-.05.81,1,1,0,0,0,.39.65.92.92,0,0,0,1.18-.07.41.41,0,0,0,.33.14.72.72,0,0,0,.5-.3,1.63,1.63,0,0,0,.11.23.65.65,0,0,0,.77.32,1.28,1.28,0,0,0,.73-.91,1.5,1.5,0,0,0,0-.7.82.82,0,0,0,.57-.41,2.3,2.3,0,0,0,.2-.8A1.43,1.43,0,0,0,658.22,163.83Z"/><path class="cls-57" d="M658.34,164.6a1.43,1.43,0,0,0-.12-.77.94.94,0,0,0-1.09-.42,1,1,0,0,0-.49.34.69.69,0,0,0-.72-.08,1.21,1.21,0,0,0-.62.8,2.14,2.14,0,0,0-.08.44l0,0a.94.94,0,0,0-.66-.18,1.15,1.15,0,0,0-.91.93,2,2,0,0,0-.05.81,1,1,0,0,0,.39.65.92.92,0,0,0,1.18-.07.41.41,0,0,0,.33.14.72.72,0,0,0,.5-.3,1.63,1.63,0,0,0,.11.23.65.65,0,0,0,.77.32,1.28,1.28,0,0,0,.73-.91,1.5,1.5,0,0,0,0-.7.82.82,0,0,0,.57-.41A2.3,2.3,0,0,0,658.34,164.6Zm-1.15,1.26c-.13.37-.42.77-.76.67a.49.49,0,0,1-.32-.39.84.84,0,0,1-.56.55.39.39,0,0,1-.39-.17,1,1,0,0,1-.23.18c-.39.24-1,.34-1.17-.4s.24-1.27.74-1.29a.81.81,0,0,1,.75.45,1.33,1.33,0,0,1,.27-.46,1,1,0,0,1,.05-.58,1,1,0,0,1,.1-.17.82.82,0,0,1,.57-.48c.32,0,.52.26.54.61a.44.44,0,0,1,.19.15A1.42,1.42,0,0,1,657.19,165.86Zm.65-1.57c-.14.23-.55.41-.72.15a.71.71,0,0,1,0-.68c.14-.22.33-.28.51-.16a.35.35,0,0,1,.18.16A.53.53,0,0,1,657.84,164.29Z"/><path class="cls-4" d="M654.72,165.12c-.23-.12-.5.08-.67.28a1,1,0,0,0-.21.5.68.68,0,0,0,0,.47.26.26,0,0,0,.11.17.17.17,0,0,0,.23-.09,2.7,2.7,0,0,0,.08-.39.38.38,0,0,0,0-.28c-.05-.08-.14-.06-.22,0a2,2,0,0,1,.11-.26c.14-.22.41-.43.64-.37C654.72,165.13,654.73,165.12,654.72,165.12Z"/><path class="cls-4" d="M656.47,163.91a.55.55,0,0,0-.6.14l0,0a.88.88,0,0,0-.24.41c0,.16,0,.49.13.55a.07.07,0,0,0,.08-.06c0-.16.09-.3.13-.44a3.71,3.71,0,0,0,.19-.46.06.06,0,0,0,0-.09.53.53,0,0,1,.37-.06S656.48,163.91,656.47,163.91Z"/><path class="cls-4" d="M655.55,165.17a.21.21,0,0,0-.11.1s-.07.11,0,.14a0,0,0,0,0,0,0s0-.07,0-.11a.31.31,0,0,1,.08-.11S655.56,165.16,655.55,165.17Z"/><path class="cls-4" d="M657.46,163.76l0,0,.07,0s0,0,0,0l-.14,0h-.06a.34.34,0,0,0-.2.33.22.22,0,0,0,0,.16c.05,0,.11,0,.15,0l.07-.11C657.43,164,657.51,163.87,657.46,163.76Z"/><path class="cls-56" d="M650.82,164c-.21.07-.29.33-.33.57a1.41,1.41,0,0,0-.31-.14.72.72,0,0,0-.65.18,1,1,0,0,0-.3.49l-.1-.14a1.77,1.77,0,0,0-1-.66.89.89,0,0,0-.85.31,1.22,1.22,0,0,0-.22.78l-.18-.17c-.32-.26-.73-.37-1-.15a.54.54,0,0,0-.13.22,1,1,0,0,0-1.3.13.87.87,0,0,0-.19.59,1.41,1.41,0,0,0-.67-.42,1.12,1.12,0,0,0-1.33.64,1.3,1.3,0,0,0-.1.79.86.86,0,0,0-.7.61,1.68,1.68,0,0,0,.23,1.33.43.43,0,0,1,0,.07.92.92,0,0,0-.33-.19.5.5,0,0,0-.66.24l0,.06a1.79,1.79,0,0,0-.47-.6,1.45,1.45,0,0,0-1.06-.36.78.78,0,0,0-.67.69,1.79,1.79,0,0,0,0,.4,1.94,1.94,0,0,0-.63-.51,1,1,0,0,0-1,0,1.24,1.24,0,0,0-.4,1.56l-.22,0a1,1,0,0,0-.85.4,1.5,1.5,0,0,0-.3,1,2.2,2.2,0,0,0,.36,1,2.75,2.75,0,0,0,.8.83.27.27,0,0,0-.07.08.87.87,0,0,0-.13.81,1.42,1.42,0,0,0,.12.25,1.11,1.11,0,0,0-.62-.18.94.94,0,0,0-.83.48,1.41,1.41,0,0,0,.14,1.29.57.57,0,0,0-.27.28,1.05,1.05,0,0,0,0,.72,2,2,0,0,0,.52.74,1.56,1.56,0,0,0,.4.25l0,0,0,.1a.88.88,0,0,0,.07.63,1.59,1.59,0,0,0,.73.65,1.1,1.1,0,0,0,.49.08.4.4,0,0,0,0,.26.51.51,0,0,0,.23.25h0a.26.26,0,0,0,.14.17.22.22,0,0,0,.28,0,.16.16,0,0,0,0,.07.45.45,0,0,0,.24.21.35.35,0,0,0,.15,0,.64.64,0,0,0,.08.2.54.54,0,0,0,.49.22c.15,0,.22-.18.24-.32a.6.6,0,0,0-.07-.32.26.26,0,0,0,.05-.12.56.56,0,0,0-.06-.33.71.71,0,0,0-.29-.33.4.4,0,0,0,.07-.43,1,1,0,0,0-.61-.55.36.36,0,0,0,.11-.2.86.86,0,0,0-.06-.44l-.06-.12a.89.89,0,0,0,.52-.23,1.31,1.31,0,0,0,.27-1.05,2.17,2.17,0,0,0-.17-.64.93.93,0,0,0,.69.3.53.53,0,0,0,.49-.42,1.22,1.22,0,0,0,0-.57.6.6,0,0,0,.48.15.51.51,0,0,0,.44-.52.8.8,0,0,0-.08-.33.65.65,0,0,0,.46-.32,1.19,1.19,0,0,0,0-.93,1.67,1.67,0,0,0-.23-.44.43.43,0,0,0,.28-.15l0,0a1.28,1.28,0,0,0,.41.46.7.7,0,0,0,.61.13.45.45,0,0,0,.25-.24,1.25,1.25,0,0,0,.59.26,1,1,0,0,0,.89-.3,1.37,1.37,0,0,0,.4-.91,1.75,1.75,0,0,0,.85.28,1,1,0,0,0,.84-.37l.1-.15a.86.86,0,0,0,.65.12c.51-.11.55-.81.34-1.36a.67.67,0,0,0,.63-.2.93.93,0,0,0,.19-.44,1.23,1.23,0,0,0,.9.3.7.7,0,0,0,.66-.57,1.41,1.41,0,0,0-.09-.8,1,1,0,0,0,.5,0,.85.85,0,0,0,.7-.67,1.92,1.92,0,0,0,.05-.64,1.55,1.55,0,0,0,.94-1.61,1.63,1.63,0,0,0-.08-.37.8.8,0,0,0,.43-.26.84.84,0,0,0,0-1A.92.92,0,0,0,650.82,164Z"/><path class="cls-57" d="M650.82,164c-.21.07-.29.33-.33.57a1.41,1.41,0,0,0-.31-.14.72.72,0,0,0-.65.18,1,1,0,0,0-.3.49l-.1-.14a1.77,1.77,0,0,0-1-.66.89.89,0,0,0-.85.31,1.22,1.22,0,0,0-.22.78l-.18-.17c-.32-.26-.73-.37-1-.15a.54.54,0,0,0-.13.22,1,1,0,0,0-1.3.13.87.87,0,0,0-.19.59,1.41,1.41,0,0,0-.67-.42,1.12,1.12,0,0,0-1.33.64,1.3,1.3,0,0,0-.1.79.86.86,0,0,0-.7.61,1.68,1.68,0,0,0,.23,1.33.43.43,0,0,1,0,.07.92.92,0,0,0-.33-.19.5.5,0,0,0-.66.24l0,.06a1.79,1.79,0,0,0-.47-.6,1.45,1.45,0,0,0-1.06-.36.78.78,0,0,0-.67.69,1.79,1.79,0,0,0,0,.4,1.94,1.94,0,0,0-.63-.51,1,1,0,0,0-1,0,1.24,1.24,0,0,0-.4,1.56l-.22,0a1,1,0,0,0-.85.4,1.5,1.5,0,0,0-.3,1,2.2,2.2,0,0,0,.36,1,2.75,2.75,0,0,0,.8.83.27.27,0,0,0-.07.08.87.87,0,0,0-.13.81,1.42,1.42,0,0,0,.12.25,1.11,1.11,0,0,0-.62-.18.94.94,0,0,0-.83.48,1.11,1.11,0,0,0-.08.66c.06-.47.34-.85.88-.78a1.17,1.17,0,0,1,.72.39.54.54,0,0,1,.25-.32h0a1.69,1.69,0,0,1-.21-.66.61.61,0,0,1,.42-.59h.06A3,3,0,0,1,636,173a1.55,1.55,0,0,1-.24-1.38.85.85,0,0,1,.87-.48,1.09,1.09,0,0,1,.26,0c-.25-.57-.33-1.29.15-1.57a1,1,0,0,1,.52-.14,1.23,1.23,0,0,1,.33,0,1.8,1.8,0,0,1,.89.4,1.17,1.17,0,0,1,0-.58.77.77,0,0,1,.41-.61.8.8,0,0,1,.53,0,.65.65,0,0,1,.26.06,1.84,1.84,0,0,1,.79.84l.09-.14a.52.52,0,0,1,.7-.06,1.74,1.74,0,0,1,.46.41.51.51,0,0,1,.36-.1,2.3,2.3,0,0,1-.52-1.45,1.24,1.24,0,0,1,.32-.9.64.64,0,0,1,.35-.14,1.22,1.22,0,0,1,0-.38.88.88,0,0,1,.76-.79,1.68,1.68,0,0,1,1.29.75v-.14a1,1,0,0,1,.2-.59.75.75,0,0,1,.82-.28,1.57,1.57,0,0,1,.71.44l.07,0a.84.84,0,0,1,.82.17,2.16,2.16,0,0,1,.37.37,1.27,1.27,0,0,1,0-.33.85.85,0,0,1,1-.85,1.42,1.42,0,0,1,.85.54.83.83,0,0,1,.66-.73c.44,0,.81.48.93.87a.75.75,0,0,1-.52,1,1.28,1.28,0,0,1-.7,0,.89.89,0,0,1-.06,1.2.87.87,0,0,1-.79.19,1.35,1.35,0,0,1-.05,1.16.71.71,0,0,1-1,.07,1.78,1.78,0,0,1-.26-.22,1,1,0,0,1-.33.69.71.71,0,0,1-.67.12l-.06,0c0,.08.09.16.12.24.17.35.32.87.12,1.14a.69.69,0,0,1-1-.15,1.41,1.41,0,0,1-.13-.24,1,1,0,0,1-.17.39c-.35.52-1.09.49-1.72,0a1.27,1.27,0,0,1,.12.88.77.77,0,0,1-.94.5,1.28,1.28,0,0,1-.64-.44.59.59,0,0,1-.58.24,1,1,0,0,1-.67-.83c-.06.48-.3.9-.73.89a1.12,1.12,0,0,1,.32.72c0,.24-.13.53-.38.55h0a.83.83,0,0,1,0,.68c-.21.25-.63.15-1,0a3.28,3.28,0,0,1-.31-.2,1.17,1.17,0,0,1,0,.49.59.59,0,0,1-.56.54,1.41,1.41,0,0,1-.75-.2l-.09,0a1.35,1.35,0,0,1,.15.9,2.11,2.11,0,0,1,.26.52.71.71,0,0,1-.2.81.79.79,0,0,1-.53.08,1.15,1.15,0,0,1,.26.33.59.59,0,0,1,0,.56,1.43,1.43,0,0,1,.5.4.69.69,0,0,1,.11.68.48.48,0,0,1-.2.2,1.17,1.17,0,0,1,.61.63c.06.18,0,.46-.16.5h0a.42.42,0,0,0,.26,0c.15,0,.22-.18.24-.32a.6.6,0,0,0-.07-.32.26.26,0,0,0,.05-.12.56.56,0,0,0-.06-.33.71.71,0,0,0-.29-.33.4.4,0,0,0,.07-.43,1,1,0,0,0-.61-.55.36.36,0,0,0,.11-.2.86.86,0,0,0-.06-.44l-.06-.12a.89.89,0,0,0,.52-.23,1.31,1.31,0,0,0,.27-1.05,2.17,2.17,0,0,0-.17-.64.93.93,0,0,0,.69.3.53.53,0,0,0,.49-.42,1.22,1.22,0,0,0,0-.57.6.6,0,0,0,.48.15.51.51,0,0,0,.44-.52.8.8,0,0,0-.08-.33.65.65,0,0,0,.46-.32,1.19,1.19,0,0,0,0-.93,1.67,1.67,0,0,0-.23-.44.43.43,0,0,0,.28-.15l0,0a1.28,1.28,0,0,0,.41.46.7.7,0,0,0,.61.13.45.45,0,0,0,.25-.24,1.25,1.25,0,0,0,.59.26,1,1,0,0,0,.89-.3,1.37,1.37,0,0,0,.4-.91,1.75,1.75,0,0,0,.85.28,1,1,0,0,0,.84-.37l.1-.15a.86.86,0,0,0,.65.12c.51-.11.55-.81.34-1.36a.67.67,0,0,0,.63-.2.93.93,0,0,0,.19-.44,1.23,1.23,0,0,0,.9.3.7.7,0,0,0,.66-.57,1.41,1.41,0,0,0-.09-.8,1,1,0,0,0,.5,0,.85.85,0,0,0,.7-.67,1.92,1.92,0,0,0,.05-.64,1.55,1.55,0,0,0,.94-1.61,1.63,1.63,0,0,0-.08-.37.8.8,0,0,0,.43-.26.84.84,0,0,0,0-1A.92.92,0,0,0,650.82,164Zm.35,1.27c-.43.08-.61-.76-.37-1a.28.28,0,0,1,.46-.09A.61.61,0,0,1,651.17,165.29Z"/><path class="cls-4" d="M635.76,178.32a.72.72,0,0,0,0,.66.86.86,0,0,0,.58.55c.1.07.18.09.2,0s-.07-.22-.17-.3A.56.56,0,0,0,636,179h0a.85.85,0,0,1-.19-.7S635.77,178.31,635.76,178.32Z"/><path class="cls-4" d="M636.89,179.8a.37.37,0,0,0,0,.23c0,.08.1.18.18.18s0-.06,0-.09A.88.88,0,0,1,637,180a1,1,0,0,1-.06-.16S636.89,179.78,636.89,179.8Z"/><path class="cls-4" d="M637.28,180.27s0,0,0,0,.06.08.09.05,0,0,0-.05S637.31,180.28,637.28,180.27Z"/><path class="cls-4" d="M634.87,176.65a.37.37,0,0,0-.12.37.6.6,0,0,0,.22.42s0,0,0-.05a2,2,0,0,0-.11-.32.82.82,0,0,1,0-.38S634.89,176.64,634.87,176.65Z"/><path class="cls-4" d="M634.85,175.77c-.08,0-.05.17,0,.24a.33.33,0,0,0,.12.14s0,0,0,0a1.09,1.09,0,0,1,0-.18.74.74,0,0,0,0-.12S634.89,175.76,634.85,175.77Z"/><path class="cls-4" d="M637.47,177.51a.23.23,0,0,0-.12,0,.44.44,0,0,1-.16,0,.9.9,0,0,1-.36-.08s0,0,0,0a.72.72,0,0,0,.39.23c.13,0,.29,0,.31-.14A.09.09,0,0,0,637.47,177.51Z"/><path class="cls-4" d="M636.47,174.21c-.17.18,0,.61.27.75,0,0,0,0,0,0a2.26,2.26,0,0,1-.13-.33c0-.11,0-.21-.07-.32S636.5,174.18,636.47,174.21Z"/><path class="cls-4" d="M636,171.87c-.16.13-.13.38-.07.61a1.29,1.29,0,0,0,.47.66s0,0,0,0a1.66,1.66,0,0,1-.35-1.17S636,171.84,636,171.87Z"/><path class="cls-4" d="M636.87,170.25c-.08,0-.06.2,0,.29a.46.46,0,0,0,.12.28s0,0,0,0,0-.15,0-.23a.67.67,0,0,0,0-.28S636.9,170.23,636.87,170.25Z"/><path class="cls-4" d="M642.32,167.53a1.44,1.44,0,0,0-.24.46,1.83,1.83,0,0,0,0,.62,2,2,0,0,0,.68,1.18c.09.07.1-.08.06-.14s-.2-.28-.31-.42a1.79,1.79,0,0,1-.23-.56,1.63,1.63,0,0,1,.08-1.12S642.33,167.51,642.32,167.53Z"/><path class="cls-4" d="M645,166.29a.5.5,0,0,0-.27.46,1.08,1.08,0,0,0,.22.67s0,0,0,0a1.7,1.7,0,0,1-.05-.54,1.81,1.81,0,0,1,.14-.45S645,166.27,645,166.29Z"/><path class="cls-4" d="M647.93,166c-.22,0-.26.27-.28.47a.91.91,0,0,0,.2.63s0,0,0,0a1.79,1.79,0,0,1,0-.51,1.83,1.83,0,0,1,.14-.47S648,166,647.93,166Z"/><path class="cls-4" d="M649.45,165.91c-.22.15-.09.7.2.87,0,0,0,0,0,0a1.6,1.6,0,0,1-.14-.76S649.48,165.89,649.45,165.91Z"/><path class="cls-4" d="M650.8,164.54a.54.54,0,0,0,0,.31.6.6,0,0,0,.08.19h0a.27.27,0,0,0,.09.15.24.24,0,0,0,.1.06.07.07,0,0,0,.06,0,.13.13,0,0,0,0-.1.34.34,0,0,0-.06-.21s0,0-.07-.06a.09.09,0,0,0-.08,0h0l0,0a.56.56,0,0,1,0-.25S650.81,164.53,650.8,164.54Z"/><path class="cls-4" d="M648,169.63c-.12-.09-.34-.16-.38-.32s0,0,0,0a.58.58,0,0,0,.4.48C648.06,169.8,648.05,169.67,648,169.63Z"/><path class="cls-4" d="M641.1,172s0,0,0,0a.7.7,0,0,0,.09.5c.1.15.33.39.45.25a.13.13,0,0,0,0-.12c-.08-.11-.22-.14-.31-.25A.87.87,0,0,1,641.1,172Z"/><path class="cls-4" d="M639.23,174.66a.6.6,0,0,1-.34-.27s0,0,0,0a.54.54,0,0,0,.12.33c.08.1.21.22.33.21s.06-.09.05-.14A.21.21,0,0,0,639.23,174.66Z"/><path class="cls-4" d="M645.67,170.86s0-.05,0,0a.61.61,0,0,0,0,.51c.07.18.31.41.46.28a.11.11,0,0,0,0-.15c-.09-.1-.21-.13-.29-.25A.83.83,0,0,1,645.67,170.86Z"/><path class="cls-4" d="M645,170.1c0,.08,0,.2.13.24s0-.07,0-.11a.3.3,0,0,1-.11-.14C645,170,645,170.06,645,170.1Z"/><path class="cls-4" d="M642.16,171.72c-.43.17.17,1.22.52,1,.05,0,0-.12,0-.17s-.25-.2-.37-.32a.4.4,0,0,1-.1-.45S642.19,171.72,642.16,171.72Z"/><path class="cls-4" d="M645.43,168.59a.57.57,0,0,0,0,.52c.09.19.32.41.51.36s0-.12,0-.16-.24-.16-.34-.25a.57.57,0,0,1-.16-.43S645.45,168.57,645.43,168.59Z"/><path class="cls-4" d="M638,171.27a.69.69,0,0,0-.42.68.84.84,0,0,0,.52.75c.08,0,.06-.11,0-.15a1.13,1.13,0,0,1-.32-.62c0-.25.21-.38.23-.62C638,171.29,638,171.25,638,171.27Z"/><polygon class="cls-58" points="644.09 175.58 642.62 187.86 635.07 187.88 634.76 185.29 633.58 175.58 644.09 175.58"/><polygon class="cls-19" points="643.8 176.99 642.6 187.83 641.8 187.82 641.94 185.84 642.67 176.34 643.8 176.99"/><rect class="cls-59" x="632.26" y="174.54" width="13.14" height="2.61" rx="1.07"/><ellipse class="cls-60" cx="639" cy="204.33" rx="17.58" ry="17.45"/><ellipse class="cls-61" cx="639" cy="204.33" rx="13.67" ry="13.57"/><polygon class="cls-62" points="639 225.41 622.74 225.41 630.87 211.42 638.84 209.29 647.13 211.42 655.27 225.41 639 225.41"/><line class="cls-63" x1="628.86" y1="217.47" x2="624.68" y2="225.74"/><line class="cls-63" x1="630.87" y1="217.38" x2="627.27" y2="225.43"/><line class="cls-63" x1="632.95" y1="217.31" x2="629.65" y2="225.5"/><line class="cls-63" x1="635.45" y1="217.42" x2="632.47" y2="225.72"/><line class="cls-63" x1="637.18" y1="217.36" x2="635.94" y2="225.74"/><line class="cls-63" x1="639.18" y1="217.33" x2="638.7" y2="225.8"/><line class="cls-63" x1="649.12" y1="217.47" x2="653.26" y2="225.59"/><line class="cls-63" x1="647.1" y1="217.38" x2="650.75" y2="225.61"/><line class="cls-63" x1="645.02" y1="217.31" x2="648.33" y2="225.5"/><line class="cls-63" x1="642.53" y1="217.42" x2="645.51" y2="225.72"/><line class="cls-63" x1="640.79" y1="217.36" x2="642.04" y2="225.69"/><ellipse class="cls-64" cx="639" cy="204.33" rx="8.46" ry="8.4"/><rect class="cls-65" x="618.45" y="210.61" width="41.1" height="6.92" rx="2.85"/><ellipse class="cls-66" cx="639" cy="204.33" rx="3.91" ry="3.88"/></g></g></svg>