<svg xmlns="http://www.w3.org/2000/svg" xmlns:xlink="http://www.w3.org/1999/xlink" viewBox="0 0 1280 720"><defs><style>.cls-1,.cls-125,.cls-130,.cls-131,.cls-52,.cls-53,.cls-54,.cls-55,.cls-56,.cls-57,.cls-58,.cls-59,.cls-60,.cls-61,.cls-62,.cls-63,.cls-64,.cls-65{fill:none;}.cls-2{isolation:isolate;}.cls-3{clip-path:url(#clip-path);}.cls-4{clip-path:url(#clip-path-2);}.cls-5{fill:url(#linear-gradient);}.cls-6{fill:url(#linear-gradient-2);}.cls-7{fill:url(#linear-gradient-3);}.cls-8{fill:url(#linear-gradient-4);}.cls-9{clip-path:url(#clip-path-3);}.cls-10{clip-path:url(#clip-path-4);}.cls-11{fill:url(#linear-gradient-5);}.cls-12{fill:url(#linear-gradient-6);}.cls-13{fill:url(#linear-gradient-7);}.cls-14{clip-path:url(#clip-path-5);}.cls-15{clip-path:url(#clip-path-6);}.cls-16{fill:url(#linear-gradient-8);}.cls-17{fill:#a6cbe6;}.cls-18{fill:#8fc4ec;}.cls-19{fill:#72aae5;}.cls-20{fill:url(#linear-gradient-9);}.cls-21{fill:url(#linear-gradient-10);}.cls-22{fill:url(#linear-gradient-11);}.cls-23{fill:#19b851;}.cls-24{fill:url(#linear-gradient-12);}.cls-25{fill:#532016;}.cls-26{fill:url(#linear-gradient-13);}.cls-27{fill:#5e2106;}.cls-28{fill:#e68851;}.cls-29{fill:#843812;}.cls-30{fill:#301102;}.cls-31{fill:url(#linear-gradient-14);}.cls-32{fill:url(#linear-gradient-15);}.cls-33{fill:url(#linear-gradient-16);}.cls-34{fill:#68522c;}.cls-35{fill:url(#linear-gradient-17);}.cls-36{fill:#4c3d20;opacity:0.51;}.cls-37{fill:#631b14;}.cls-38{fill:#9a2e25;}.cls-39{fill:#6b1d12;}.cls-40{fill:#c9492a;}.cls-41{fill:#eb6e33;}.cls-42{fill:#f73c38;}.cls-43{fill:#953623;}.cls-44{fill:#300b07;}.cls-45{fill:#913523;}.cls-46{fill:#a53721;}.cls-47{fill:#873227;}.cls-48{fill:#75271a;}.cls-49{fill:#a5411b;}.cls-50{fill:#f8e7c9;}.cls-51{fill:#b50d1c;}.cls-52{stroke:#60120a;stroke-width:1.08px;}.cls-107,.cls-117,.cls-119,.cls-125,.cls-127,.cls-128,.cls-129,.cls-130,.cls-131,.cls-52,.cls-53,.cls-54,.cls-55,.cls-56,.cls-57,.cls-58,.cls-59,.cls-60,.cls-61,.cls-62,.cls-63,.cls-64,.cls-65,.cls-71,.cls-72,.cls-74,.cls-76,.cls-78,.cls-79,.cls-80,.cls-92,.cls-93,.cls-98{stroke-miterlimit:10;}.cls-53{stroke:#841a02;}.cls-53,.cls-65{stroke-width:5.43px;}.cls-54{stroke:#269e05;}.cls-54,.cls-55,.cls-56,.cls-57{stroke-width:5.59px;}.cls-55{stroke:#ff4729;}.cls-56{stroke:#ffd60b;}.cls-57{stroke:#03a7f9;}.cls-58{stroke:#f50;}.cls-58,.cls-59,.cls-60,.cls-61,.cls-62,.cls-63,.cls-64{stroke-width:5.62px;}.cls-59{stroke:#ff9700;}.cls-60{stroke:#1ec900;}.cls-61{stroke:#1515ff;}.cls-62{stroke:#f200ff;}.cls-63{stroke:#00d6f9;}.cls-64{stroke:#ffe708;}.cls-65{stroke:#d63200;}.cls-66{fill:#a17949;}.cls-67{fill:#dfa851;}.cls-68{fill:#3a59b2;}.cls-69{fill:#163e73;}.cls-70{fill:#4a2a15;}.cls-107,.cls-108,.cls-71{fill:#3d2d16;}.cls-107,.cls-71{stroke:#3d2d16;}.cls-111,.cls-72,.cls-78,.cls-92{fill:#fad2c6;}.cls-117,.cls-119,.cls-125,.cls-72,.cls-74,.cls-76,.cls-78,.cls-79,.cls-80,.cls-92,.cls-93{stroke:#323232;}.cls-118,.cls-73{fill:#e4a58c;}.cls-74{fill:#fccd3a;}.cls-107,.cls-125,.cls-74,.cls-76,.cls-79,.cls-80,.cls-92,.cls-93,.cls-98{stroke-width:0.5px;}.cls-75{fill:#be9030;}.cls-76{fill:#fbd3c7;}.cls-77{fill:#dc9e8f;}.cls-78{stroke-width:0.75px;}.cls-79{fill:#ffe57b;}.cls-80{fill:#e0604f;}.cls-81{fill:#f5927d;}.cls-82{fill:#fab51b;}.cls-83{fill:#f17125;}.cls-84{fill:#80351b;}.cls-85{fill:#75451c;}.cls-86{fill:#a66638;}.cls-87{fill:#925b24;}.cls-88{fill:#e69847;}.cls-89{fill:#5f2710;}.cls-90{fill:#5c5548;}.cls-91{fill:#424036;}.cls-117,.cls-93{fill:#f6fbfd;}.cls-94{fill:#ce9685;}.cls-95{fill:#451f16;}.cls-96{fill:#fff;}.cls-97{fill:#421b16;}.cls-98{fill:#311415;stroke:#211e1f;}.cls-99{fill:#90856e;}.cls-100{fill:#605e44;}.cls-101,.cls-104{fill:#9e9580;opacity:0.5;}.cls-101,.cls-103{mix-blend-mode:multiply;}.cls-102,.cls-103{fill:#676254;}.cls-103,.cls-126{opacity:0.4;}.cls-104{mix-blend-mode:screen;}.cls-105{fill:#c28974;}.cls-106{fill:#e8d860;}.cls-109{fill:#a67d48;}.cls-110{fill:#ef4b3b;}.cls-112{fill:#323232;}.cls-113{fill:#411e16;}.cls-114{fill:#fff7f4;}.cls-115{fill:#d26653;}.cls-116{fill:#f49990;}.cls-117{stroke-width:0.44px;}.cls-118{opacity:0.6;}.cls-119{fill:#561211;stroke-width:0.25px;}.cls-120{fill:#e13e26;}.cls-121{fill:#fddf0e;}.cls-122{fill:#281b17;}.cls-123{fill:#473a3a;}.cls-124{fill:#5e5454;}.cls-127{fill:#f73b16;}.cls-127,.cls-130{stroke:#6d1d07;}.cls-127,.cls-128,.cls-129,.cls-130,.cls-131{stroke-width:0.45px;}.cls-128{fill:#a5a4a4;stroke:#5b1e06;}.cls-129{fill:#bf2516;}.cls-129,.cls-131{stroke:#701d07;}.cls-132{clip-path:url(#clip-path-7);}.cls-133{clip-path:url(#clip-path-8);}.cls-134{fill:url(#linear-gradient-18);}.cls-135{clip-path:url(#clip-path-9);}.cls-136{clip-path:url(#clip-path-10);}.cls-137{fill:url(#linear-gradient-19);}.cls-138{fill:url(#linear-gradient-20);}.cls-139{fill:url(#linear-gradient-21);}.cls-140{fill:url(#linear-gradient-22);}.cls-141{fill:url(#linear-gradient-23);}.cls-142{fill:url(#linear-gradient-24);}.cls-143{fill:url(#linear-gradient-25);}.cls-144{clip-path:url(#clip-path-11);}.cls-145{clip-path:url(#clip-path-12);}.cls-146{fill:url(#linear-gradient-26);}</style><clipPath id="clip-path"><rect class="cls-1" y="-740" width="1280" height="720"/></clipPath><clipPath id="clip-path-2"><rect class="cls-1" x="-320" y="-830" width="1600" height="900"/></clipPath><linearGradient id="linear-gradient" x1="-387.74" y1="-116.37" x2="1136.72" y2="64.6" gradientUnits="userSpaceOnUse"><stop offset="0" stop-color="#64b66a"/><stop offset="0" stop-color="#1e542a"/><stop offset="0" stop-color="#337a3c"/><stop offset="0" stop-color="#166839"/><stop offset="0" stop-color="#21592c"/><stop offset="0.23" stop-color="#33763a"/><stop offset="0.56" stop-color="#19925d"/><stop offset="0.66" stop-color="#1d965f"/><stop offset="0.75" stop-color="#28a063"/><stop offset="0.81" stop-color="#32a967"/><stop offset="0.86" stop-color="#31a261"/><stop offset="1" stop-color="#4b9a45"/></linearGradient><linearGradient id="linear-gradient-2" x1="501.17" y1="476.9" x2="889.68" y2="-399.91" gradientUnits="userSpaceOnUse"><stop offset="0.13" stop-color="#22441f"/><stop offset="0.54" stop-color="#3b7639"/><stop offset="1" stop-color="#03654a"/></linearGradient><linearGradient id="linear-gradient-3" x1="1736.22" y1="-15.21" x2="1824.77" y2="-215.06" gradientTransform="translate(-1618.03 184.94) scale(1.46 1.65)" gradientUnits="userSpaceOnUse"><stop offset="0.29" stop-color="#0a512e"/><stop offset="0.66" stop-color="#107053"/></linearGradient><linearGradient id="linear-gradient-4" x1="1859.41" y1="8.87" x2="1981.01" y2="-265.58" gradientTransform="translate(-1618.03 184.94) scale(1.46 1.65)" gradientUnits="userSpaceOnUse"><stop offset="0" stop-color="#0a512e"/><stop offset="0.54" stop-color="#0b532f"/><stop offset="0.77" stop-color="#107053"/></linearGradient><clipPath id="clip-path-3"><rect class="cls-1" x="1300" y="-740" width="1280" height="720"/></clipPath><clipPath id="clip-path-4"><rect class="cls-1" x="1140" y="-864.56" width="1600" height="900"/></clipPath><linearGradient id="linear-gradient-5" x1="1072.26" y1="-150.93" x2="2596.72" y2="30.04" xlink:href="#linear-gradient"/><linearGradient id="linear-gradient-6" x1="1961.17" y1="442.34" x2="2349.68" y2="-434.47" xlink:href="#linear-gradient-2"/><linearGradient id="linear-gradient-7" x1="1863.5" y1="2.13" x2="2010.26" y2="-329.07" xlink:href="#linear-gradient-4"/><clipPath id="clip-path-5"><rect class="cls-1" width="1280" height="720"/></clipPath><clipPath id="clip-path-6"><rect class="cls-1" x="-160" y="-90" width="1600" height="900"/></clipPath><linearGradient id="linear-gradient-8" x1="641.67" y1="497.4" x2="637.83" y2="-98.92" gradientUnits="userSpaceOnUse"><stop offset="0.3" stop-color="#90e7de"/><stop offset="0.94" stop-color="#bee7ea"/></linearGradient><linearGradient id="linear-gradient-9" x1="620.29" y1="318.41" x2="688.59" y2="197.07" gradientUnits="userSpaceOnUse"><stop offset="0.15" stop-color="#93e7df"/><stop offset="0.49" stop-color="#aeeae7"/><stop offset="0.83" stop-color="#c5eced"/></linearGradient><linearGradient id="linear-gradient-10" x1="1276.75" y1="139.34" x2="1343.02" y2="16.87" gradientUnits="userSpaceOnUse"><stop offset="0.22" stop-color="#a8e7e4"/><stop offset="0.27" stop-color="#ace8e5"/><stop offset="0.57" stop-color="#beebeb"/><stop offset="0.78" stop-color="#c5eced"/></linearGradient><linearGradient id="linear-gradient-11" x1="146.68" y1="514.34" x2="1402.41" y2="514.34" gradientUnits="userSpaceOnUse"><stop offset="0" stop-color="#61986a"/><stop offset="0.94" stop-color="#5da1a2"/></linearGradient><linearGradient id="linear-gradient-12" x1="-163" y1="414.27" x2="-122.7" y2="185.83" gradientTransform="translate(81.53 156.08) rotate(-3.08)" gradientUnits="userSpaceOnUse"><stop offset="0.15" stop-color="#0a5731"/><stop offset="0.3" stop-color="#1f784a"/><stop offset="0.59" stop-color="#43b377"/><stop offset="0.81" stop-color="#59d892"/><stop offset="0.92" stop-color="#62e69d"/></linearGradient><linearGradient id="linear-gradient-13" x1="-97.31" y1="406.43" x2="-72.46" y2="265.57" gradientTransform="translate(81.53 156.08) rotate(-3.08)" gradientUnits="userSpaceOnUse"><stop offset="0.04" stop-color="#0a5731"/><stop offset="0.21" stop-color="#1f784a"/><stop offset="0.54" stop-color="#43b377"/><stop offset="0.79" stop-color="#59d892"/><stop offset="0.92" stop-color="#62e69d"/></linearGradient><linearGradient id="linear-gradient-14" x1="1213.82" y1="444.69" x2="1254.12" y2="216.25" xlink:href="#linear-gradient-12"/><linearGradient id="linear-gradient-15" x1="1145.73" y1="547.5" x2="1181.91" y2="342.45" gradientTransform="matrix(1, -0.05, 0.05, 0.85, 80.13, 130.24)" xlink:href="#linear-gradient-13"/><linearGradient id="linear-gradient-16" x1="-160.47" y1="666.36" x2="1405.65" y2="666.36" gradientUnits="userSpaceOnUse"><stop offset="0" stop-color="#6cb053"/><stop offset="0.94" stop-color="#80e15c"/></linearGradient><linearGradient id="linear-gradient-17" x1="532.97" y1="748.43" x2="1326.66" y2="691.44" gradientUnits="userSpaceOnUse"><stop offset="0.12" stop-color="#fab676"/><stop offset="0.52" stop-color="#e8b073"/><stop offset="0.92" stop-color="#daac70"/></linearGradient><clipPath id="clip-path-7"><rect class="cls-1" x="1300" y="740" width="1280" height="720"/></clipPath><clipPath id="clip-path-8"><rect class="cls-1" x="1140" y="650" width="1600" height="900"/></clipPath><linearGradient id="linear-gradient-18" x1="1103.36" y1="1122.29" x2="2809.27" y2="955.51" gradientUnits="userSpaceOnUse"><stop offset="0" stop-color="#fff"/><stop offset="0" stop-color="#acdfec"/><stop offset="1" stop-color="#b2e1ee"/></linearGradient><clipPath id="clip-path-9"><rect class="cls-1" x="1300" width="1280" height="720"/></clipPath><clipPath id="clip-path-10"><rect class="cls-1" x="-163.97" y="-973.69" width="3238.61" height="1821.72"/></clipPath><linearGradient id="linear-gradient-19" x1="1458.72" y1="215.29" x2="1450.93" y2="-991.75" xlink:href="#linear-gradient-8"/><linearGradient id="linear-gradient-20" x1="456.8" y1="249.58" x2="2998.56" y2="249.58" xlink:href="#linear-gradient-11"/><linearGradient id="linear-gradient-21" x1="-52.92" y1="220.88" x2="28.66" y2="-241.52" xlink:href="#linear-gradient-12"/><linearGradient id="linear-gradient-22" x1="-190.95" y1="220.44" x2="-117.72" y2="-194.61" xlink:href="#linear-gradient-13"/><linearGradient id="linear-gradient-23" x1="80.05" y1="205.03" x2="130.36" y2="-80.1" xlink:href="#linear-gradient-13"/><linearGradient id="linear-gradient-24" x1="-164.92" y1="557.29" x2="3005.11" y2="557.29" xlink:href="#linear-gradient-16"/><linearGradient id="linear-gradient-25" x1="1238.69" y1="723.41" x2="2845.23" y2="608.06" xlink:href="#linear-gradient-17"/><clipPath id="clip-path-11"><rect class="cls-1" y="740" width="1280" height="720"/></clipPath><clipPath id="clip-path-12"><rect class="cls-1" x="-414.68" y="498.12" width="1936.57" height="1089.32"/></clipPath><linearGradient id="linear-gradient-26" x1="554.83" y1="-192.86" x2="554.83" y2="2430.12" gradientUnits="userSpaceOnUse"><stop offset="0.08" stop-color="#a2d9d8"/><stop offset="0.09" stop-color="#9ad7d7"/><stop offset="0.14" stop-color="#86d1d4"/><stop offset="0.18" stop-color="#7acdd3"/><stop offset="0.23" stop-color="#76ccd2"/><stop offset="0.3" stop-color="#7acdd2"/><stop offset="0.37" stop-color="#86d1d2"/><stop offset="0.44" stop-color="#9ad6d2"/><stop offset="0.5" stop-color="#addcd2"/><stop offset="0.52" stop-color="#b5dfd6"/><stop offset="0.57" stop-color="#cae8e2"/><stop offset="0.62" stop-color="#ecf7f4"/><stop offset="0.64" stop-color="#fff"/><stop offset="1" stop-color="#c8e5d2"/></linearGradient></defs><g class="cls-2"><g id="Layer_1" data-name="Layer 1"><g class="cls-3"><g class="cls-4"><g id="Slide_12" data-name="Slide 12"><path class="cls-5" d="M-191.66-192.11c-27.59,3.48-66.73,9.21-113.68,18.84-42,8.61-50.52,14.57-56.64,21.24C-399.25-111.42-341.89-6.3-333.66,8.46l213.92,33.91L578.7,37.84S1151.46,109,1161.08,57.33c4-21.22-91-55.6-137.25-72.33C665.33-144.74,156.23-181.59-191.66-192.11Z"/><path class="cls-6" d="M-194-37c18.29-20.84,51.21-59.6,62.81-55.39-38.39,38-36.64,61.72-36.64,61.72s33.15-45.89,69.79-49.06c-44.3,28.08-52.35,42.78-52.35,58.55,0,4.25,5.17-21.83,53.65-15.11C-86.29-33.12-56.12-53-56.19-52.82-73.72-15.64-119.63-25.95-137.08-18c-45.63,20.7,864.15-5.33,990.77-11.83,711.35-36.52,869.17-26.22,892,17.36,16.85,32.2,7,76.32-15.24,102.12C1677.36,151.16,1560,98.72,1278.3,110c-34.26,1.36-87.6,4.34-167.57,4.28-86.77-.07-150.29-3.66-162.85-4.28C731.37,99.15-280.79,174-320,110.12-330.72,92.65-354,8.62-349.72.68-330.37-34.87-227.62,1.27-194-37Z"/><path class="cls-7" d="M838.48,70.89C839.19,69.63,844.8,60,855,59.18c6.91-.55,11.95,3.32,13.56,4.68,0-.73,1.36-17.53,11.63-23.42s25.41,1,32,18.59c-5.83-60.61,41.85-26,48.54-9.39,7.57-55.88,43.52-18.57,41.58,2.51,2.45-10.86,9.82-18.42,17.45-18.74,10.14-.42,20.42,12,19.38,28.11,9.38-8.47,14.48-8.78,17.45-7,5.47,3.23,8.76,16.4,8.76,16.4H838.48Z"/><path class="cls-8" d="M986.74,76.42c1-1.65,8.83-14.3,23-15.35,9.66-.72,16.7,4.36,19,6.14.06-1,1.89-23,16.25-30.69,14.14-7.6,35.5,1.32,44.69,24.36-8.14-79.42,58.47-34,67.82-12.31,10.58-73.22,60.81-24.33,58.1,3.29,3.42-14.23,13.72-24.14,24.38-24.55,14.16-.55,28.53,15.68,27.08,36.83,13.09-11.1,20.22-11.5,24.37-9.21,7.64,4.22,12.24,21.49,12.24,21.49H986.74Z"/></g></g></g><g class="cls-9"><g class="cls-10"><g id="Slide_12-2" data-name="Slide 12"><path class="cls-11" d="M1268.34-226.67c-27.59,3.48-66.73,9.21-113.68,18.84-42,8.61-50.52,14.57-56.64,21.24C1060.75-146,1118.11-40.86,1126.34-26.1L1340.26,7.81,2038.7,3.28s572.76,71.13,582.38,19.49c4-21.22-91-55.6-137.25-72.33C2125.33-179.3,1616.23-216.15,1268.34-226.67Z"/><path class="cls-12" d="M1266-71.55c18.29-20.84,51.21-59.6,62.81-55.39-38.39,38-36.64,61.72-36.64,61.72s33.15-45.89,69.79-49.06c-44.3,28.08-52.35,42.78-52.35,58.55,0,4.25,5.17-21.83,53.65-15.11,10.47,3.16,40.64-16.69,40.57-16.54-17.53,37.18-63.44,26.87-80.89,34.78-45.63,20.7,864.15-5.33,990.77-11.83,711.35-36.52,869.17-26.22,892,17.36,16.85,32.2,7,76.32-15.24,102.12C3137.36,116.6,3020,64.16,2738.3,75.4c-34.26,1.36-87.6,4.34-167.57,4.28C2484,79.61,2420.44,76,2407.88,75.4c-216.51-10.81-1228.67,64.08-1267.88.16-10.72-17.47-34-101.5-29.72-109.44C1129.63-69.43,1232.38-33.29,1266-71.55Z"/><path class="cls-13" d="M967.52,38.59c1.21-1.9,10.81-16.51,28.18-17.73,11.83-.83,20.45,5,23.22,7.09.08-1.11,2.31-26.55,19.9-35.47,17.32-8.78,43.48,1.54,54.75,28.16-10-91.78,71.62-39.32,83.07-14.23,12.95-84.61,74.48-28.12,71.16,3.81,4.18-16.45,16.8-27.9,29.86-28.38C1295-18.8,1312.6,0,1310.83,24.4c16-12.82,24.77-13.29,29.85-10.64,9.36,4.88,15,24.83,15,24.83H967.52Z"/></g></g></g><g class="cls-14"><g class="cls-15"><rect class="cls-16" x="-160" y="-90" width="1600.45" height="725.32"/><path class="cls-17" d="M764.56,412.06s184-73.95,341.79-73.95,334.1,129,334.1,129l-1.18,72.29-641.5,16.92Z"/><path class="cls-18" d="M242,333.53s170.81-64,374.73-15.35S993,479.56,993,479.56l144.56,75.27-815-11.94Z"/><path class="cls-19" d="M-160.47,194.79s402.34,51.53,670.61,255.88L662,556.31l-181.6,62.9L81.83,629.34l-242.3-12.57Z"/><path class="cls-20" d="M585.8,264.29s17.62-31.41,79.68-29.88,55.17,41.36,34.48,44.43S593.79,288.65,585.8,264.29Z"/><path class="cls-21" d="M1236.34,94.09S1254,62.68,1316,64.21s55.17,41.37,34.48,44.43S1244.32,118.45,1236.34,94.09Z"/><path class="cls-22" d="M146.68,543S371.87,435.18,735.35,436.11s587.06,57.39,587.06,57.39l80,44.9L616.74,592.58Z"/><path class="cls-23" d="M964.13,528.21s290.44-26.6,476.32-47.26v75.36S977,548.13,964.13,528.21Z"/><path class="cls-24" d="M-109.79,522.24s-5.24-121,61.62-176.83c0,0,17.68-11.18,34.79,29S16.54,488.71,8.1,522.89C1.68,548.85-107.52,555.87-109.79,522.24Z"/><rect class="cls-25" x="3.96" y="543.94" width="13.61" height="29.93"/><path class="cls-26" d="M-30.56,532.23S-34.27,457.83,13,423.52c0,0,12.49-6.88,24.58,17.85s21.13,70.24,15.17,91.25C48.18,548.58-29,552.9-30.56,532.23Z"/><path class="cls-27" d="M-160,495.33s104.92,1,165.84,0,254.46-2.08,288.93-2.81,182.45-12.15,213.47-16.36,166.94-4.11,231.28,4.34,173.36,1.82,173.36,1.82v8.38s-135.59,2.18-168.2.72-98-11.29-172.88-9.47-144.94,10.58-144.94,10.58l-193.14,8-154.3,4.44L-160,501.06Z"/><polygon class="cls-28" points="12.65 486.71 31.11 486.71 31.11 540.58 14.07 540.58 12.65 486.71"/><polygon class="cls-28" points="50.79 486.71 69.28 486.71 71.01 544.75 50.79 547.16 50.79 486.71"/><path class="cls-28" d="M90,485.36h19.31s1.9,2,1.58,13.46,0,39.58,0,39.58L90,540.58l-2.85-40.77Z"/><polygon class="cls-28" points="130.53 484.02 148.58 484.02 150.8 486.71 150.8 540.58 130.53 542.95 130.53 484.02"/><polygon class="cls-28" points="171.69 482.2 191.64 482.2 190.06 545.05 171.69 545.05 171.69 482.2"/><polygon class="cls-28" points="209.05 485.36 224.88 485.36 227.73 514.83 227.73 547.16 207.78 545.05 209.05 485.36"/><path class="cls-28" d="M244.83,484s-5.38,2.55-1.27,32.24l4.12,29.7h17.73L260,482.21Z"/><path class="cls-28" d="M275.86,484,272.06,546H288.2l6.65-53.48a9.06,9.06,0,0,0-3.48-8.46Z"/><polygon class="cls-28" points="301.5 482.2 322.4 482.2 324.61 545.96 306.25 547.16 301.5 482.2"/><polygon class="cls-28" points="337.59 478.88 358.49 478.88 356.59 542.95 337.59 545.96 337.59 478.88"/><polygon class="cls-28" points="381.28 478.88 401.55 476.16 405.35 542.95 381.28 545.96 381.28 478.88"/><path class="cls-28" d="M419,476.16s7-6,18.36-1.21c0,0,5.7,41.7,5.7,63.15l-18.36,2.42S417.69,486.13,419,476.16Z"/><polygon class="cls-28" points="449.99 470.42 466.45 467.1 480.38 536.59 456.64 537.8 449.99 470.42"/><polygon class="cls-28" points="494 464.38 492.73 524.81 496.53 536.59 526.29 535.08 516.16 464.38 494 464.38"/><polygon class="cls-28" points="532.37 462.43 568.58 460.46 563.31 531.27 541.23 531.27 532.37 462.43"/><polygon class="cls-28" points="590.02 462.95 616.74 462.95 610.33 533.31 590.02 531.27 590.02 462.95"/><polygon class="cls-28" points="638.47 464.38 659.84 464.38 661.98 500.48 661.98 533.31 636.33 531.27 638.47 464.38"/><path class="cls-28" d="M680.86,463h22.79s7.13.34,6.77,11.56-5.7,54-5.7,54H682.28Z"/><polygon class="cls-28" points="735.35 471.11 756.37 473.08 756.37 528.55 727.87 528.55 735.35 471.11"/><polygon class="cls-28" points="783.44 460.46 775.25 511.06 777.03 528.55 808.02 528.55 803.48 460.46 783.44 460.46"/><path class="cls-28" d="M823.69,460.46,847.2,463s6.06-1.16,6.41,10.13-5,56.83-5,56.83h-21Z"/><polygon class="cls-28" points="876.76 471.11 897.07 472.81 898.49 528.55 871.42 529.91 876.76 471.11"/><polygon class="cls-29" points="12.65 486.71 28.58 488 28.58 540.58 31.11 540.58 31.11 486.71 12.65 486.71"/><polygon class="cls-29" points="50.79 487.99 66.09 489.3 68.48 545.05 71.01 544.75 69.28 486.71 50.79 486.71 50.79 487.99"/><path class="cls-29" d="M90,485.36l16.86,1.35s1.64,2.2,1.23,16.43-.7,35.63-.7,35.63l3.54-.37-.06-38.52s.75-11.79-1.56-14.52Z"/><polygon class="cls-29" points="130.53 484.02 146.57 485.36 148.9 488.5 148.28 540.88 150.8 540.58 150.8 486.71 148.58 484.02 130.53 484.02"/><polygon class="cls-29" points="171.69 482.2 188.75 484.02 186.73 545.05 190.06 545.05 191.64 482.2 171.69 482.2"/><polygon class="cls-29" points="209.05 485.36 221.61 486.72 225.18 514.08 225.18 547.16 227.73 547.16 227.62 513.63 224.88 485.36 209.05 485.36"/><polygon class="cls-29" points="244.83 484.02 257.89 484.02 263.79 545.96 265.41 545.96 260.02 482.2 244.83 484.02"/><path class="cls-29" d="M275.86,484l14.44,1.34a11.92,11.92,0,0,1,2.63,7.72c-.15,4.59-6.2,52.88-6.2,52.88h1.47l6.56-52.73s1.24-6.59-3.39-9.21Z"/><polygon class="cls-29" points="301.5 482.2 320.07 484.02 322.55 545.96 324.61 545.96 322.4 482.2 301.5 482.2"/><polygon class="cls-29" points="337.59 478.88 356.09 480.98 353.83 543.39 356.59 542.95 358.49 478.88 337.59 478.88"/><polygon class="cls-29" points="381.28 478.88 399.06 478.88 402.72 543.39 405.35 542.95 401.55 476.16 381.28 478.88"/><path class="cls-29" d="M419,476.16s10.51-3,16.5,1.06c0,0,5.26,56.33,5,61.22l2.59-.34s-.73-29-2-40.1C440,488.81,437.32,475,437.32,475S427.75,469.39,419,476.16Z"/><polygon class="cls-29" points="449.99 470.42 463.67 469.68 476.82 536.77 480.38 536.59 466.45 467.1 449.99 470.42"/><polygon class="cls-29" points="494 464.38 512.93 466.33 522.87 535.25 526.29 535.08 516.16 464.38 494 464.38"/><polygon class="cls-29" points="532.37 462.43 565.55 462.95 561.02 531.27 563.31 531.27 568.58 460.46 532.37 462.43"/><polygon class="cls-29" points="590.02 462.95 613.21 464.38 607.49 533.03 610.33 533.31 616.74 462.95 590.02 462.95"/><polygon class="cls-29" points="638.47 464.38 656.6 466.01 659.85 495.75 659.85 533.31 661.98 533.31 661.84 498.13 659.84 464.38 638.47 464.38"/><path class="cls-29" d="M680.86,463l22.71,2.25s4.63,1,5,9.32-5.66,54-5.66,54h1.84l5.3-47.82S713.51,465,703.65,463Z"/><polygon class="cls-29" points="735.35 471.11 753.8 475.01 753.8 528.55 756.37 528.55 756.37 473.08 735.35 471.11"/><polygon class="cls-29" points="783.44 460.46 800.43 462.95 804.89 528.55 808.02 528.55 803.48 460.46 783.44 460.46"/><path class="cls-29" d="M823.69,460.46l23,4.41s6,2.29,4.63,17l-4.8,48h2.07l4.31-42.47s4.2-21.69-4.35-24.42Z"/><polygon class="cls-29" points="876.76 471.11 894.55 474.52 896.14 528.55 898.49 528.55 897.07 472.81 876.76 471.11"/><ellipse class="cls-30" cx="21.88" cy="499.99" rx="3" ry="2.86"/><ellipse class="cls-30" cx="59.14" cy="499.34" rx="3" ry="2.86"/><ellipse class="cls-30" cx="97.5" cy="499.99" rx="3" ry="2.86"/><ellipse class="cls-30" cx="140.67" cy="498.36" rx="3" ry="2.86"/><ellipse class="cls-30" cx="179.29" cy="498.36" rx="3" ry="2.86"/><ellipse class="cls-30" cx="215.39" cy="497.55" rx="3" ry="2.86"/><ellipse class="cls-30" cx="249.89" cy="496.57" rx="3" ry="2.86"/><ellipse class="cls-30" cx="284.75" cy="495.5" rx="3" ry="2.86"/><ellipse class="cls-30" cx="311.23" cy="494.68" rx="3" ry="2.86"/><ellipse class="cls-30" cx="346.76" cy="492.63" rx="3" ry="2.86"/><ellipse class="cls-30" cx="390.84" cy="489.77" rx="3" ry="2.86"/><ellipse class="cls-30" cx="426.55" cy="488.14" rx="3" ry="2.86"/><ellipse class="cls-30" cx="459.69" cy="484.02" rx="3" ry="2.86"/><ellipse class="cls-30" cx="504.62" cy="481.15" rx="3" ry="2.86"/><ellipse class="cls-30" cx="550.47" cy="478.29" rx="3" ry="2.86"/><ellipse class="cls-30" cx="600.38" cy="477.64" rx="3" ry="2.86"/><ellipse class="cls-30" cx="649.15" cy="479.76" rx="3" ry="2.86"/><ellipse class="cls-30" cx="694.93" cy="482.62" rx="3" ry="2.86"/><ellipse class="cls-30" cx="745.12" cy="487.68" rx="3" ry="2.86"/><ellipse class="cls-30" cx="791.63" cy="488.49" rx="3" ry="2.86"/><ellipse class="cls-30" cx="839.72" cy="489.18" rx="3" ry="2.86"/><ellipse class="cls-30" cx="886.36" cy="488.49" rx="3" ry="2.86"/><path class="cls-31" d="M1266.68,478.54s-5.25-121,61.61-176.83c0,0,17.68-11.18,34.79,29S1393,445,1384.56,479.18C1378.15,505.15,1269,512.17,1266.68,478.54Z"/><rect class="cls-25" x="1245.91" y="497.19" width="13.61" height="43.88"/><path class="cls-32" d="M1215.63,489.66s-2.81-92.43,44.82-135.46c0,0,12.56-8.65,24.34,22s20.28,87.12,14.07,113.28C1294.14,509.35,1217,515.34,1215.63,489.66Z"/><path class="cls-33" d="M-160,541.24s199.81-9.41,378.39,0,388.21-28.87,782.36-15.75,438.52,13.9,438.52,13.9L1440,810H-160.47Z"/><path class="cls-34" d="M1436,646.51S1226.61,615.05,1067.49,601s-321.13-6.38-321.13-6.38-27.38,7.43-13.13,24.06-28.94,21.35-64.2,23.5-94.93,1.2-140.66,11.25-208.8,12.81-253.21,33.08S340.84,789.33,612.74,807H1436Z"/><path class="cls-35" d="M1440,654.45s-214.34-28.83-371.36-42.29S751.73,606,751.73,606s-28.86,3.24-14.8,19.21-26.71,24.42-61.5,26.48-93.68,1.15-138.81,10.8-206,12.31-249.87,31.78S351.56,793,619.88,810H1440Z"/><path class="cls-36" d="M402.23,685.26,308,619.59l50.08-11.47L240.22,572.71,95.58,594.19l17.22,11L3,625.84l3.25,5.84,116.64-20.19,29.55,18.15L51.16,656.23,61.3,660,163,636l23.21,11.5L219,640c7.43,4.84,87.34,56.21,160.7,76.37Z"/><path class="cls-36" d="M1007.8,551.08l182.09,23.67,5.17-2.11L942.68,539.42l4.6,3.79L966,545.64l-36.32,8.22.38.06-48-7.51L880,548l253.07,40.13,4.81-1.65-8.39-1.31L1163,571.26l-9-.79-32.09,13.47.12,0-39.45-6.17,24.3-13.83-6.16-.8-25.33,13.5-46.46-7.27,23.87-12.3-5-.8-24.52,12.23-40.12-6.29Zm-35.94-4.67,32.75,4.25-2.49-.32-25.69,10.83,1.34.21L937.23,555Z"/><polygon class="cls-37" points="237.72 381.77 372.62 378.75 372.62 393.14 237.72 393.14 237.72 381.77"/><polygon class="cls-38" points="227.93 284.5 230.55 573.49 244.35 573.49 244.35 284.5 227.93 284.5"/><polygon class="cls-39" points="88.63 466.11 233.87 456.62 372.62 471.59 372.62 481.1 191.99 494.98 89.55 481.66 88.63 466.11"/><polygon class="cls-37" points="77.5 382.4 231 378.75 231 393.82 77.5 395.54 77.5 382.4"/><polygon class="cls-40" points="194.39 487.19 368.61 471.59 368.61 485.7 194.39 500.19 194.39 487.19"/><polygon class="cls-40" points="372.84 280.51 358.56 632.73 375.81 632.73 390.69 280.51 372.84 280.51"/><polygon class="cls-41" points="384.29 280.51 368.61 632.73 375.81 632.73 390.69 280.51 384.29 280.51"/><polygon class="cls-40" points="169.14 286.82 186.24 647.47 203.44 646.19 186.93 285.5 169.14 286.82"/><polygon class="cls-41" points="180.55 285.97 196.26 646.73 203.44 646.19 186.93 285.5 180.55 285.97"/><polygon class="cls-42" points="126.61 175.46 18.62 280.51 150.36 278.52 273.47 161.49 126.61 175.46"/><polygon class="cls-43" points="210.04 242.99 278.43 171.63 402.55 274.57 250.57 274.57 210.04 242.99"/><path class="cls-41" d="M179.4,273.3s84.79-2.51,207.44-.58l13.33,11.78-231.94,2Z"/><polygon class="cls-44" points="246.83 124.26 237.93 125.79 225.22 139.19 390.69 284.54 400.17 284.5 233.87 137.56 246.83 124.26"/><polygon class="cls-27" points="166.2 292.48 317.38 140.88 302.26 124.26 150.36 278.52 166.2 292.48"/><polygon class="cls-27" points="233.87 137.56 246.83 124.26 429.69 284.5 400.17 284.5 263.44 163.68 233.87 137.56"/><polygon class="cls-43" points="166.2 292.48 23.94 292.48 18.62 280.51 150.36 278.52 166.2 292.48"/><polygon class="cls-45" points="55.57 289.69 67.96 289.69 106.74 592.61 92.41 594.29 55.57 289.69"/><polygon class="cls-46" points="178.65 487.43 91.53 473.84 93.22 487.01 179.25 500.19 178.65 487.43"/><polygon class="cls-47" points="302.26 124.26 292.93 126.61 140.69 278.76 155.91 292.48 166.2 292.48 150.36 278.52 302.26 124.26"/><polygon class="cls-44" points="140.69 278.76 150.36 278.52 166.2 292.48 155.91 292.48 140.69 278.76"/><polygon class="cls-48" points="225.22 139.19 233.87 137.56 246.83 124.26 237.93 125.79 225.22 139.19"/><ellipse class="cls-44" cx="279.17" cy="165" rx="5.7" ry="5.26"/><path class="cls-49" d="M165.37,473.57l-28.83,43.36L83.89,506.05l20.75-34.94-2.37-7.2L-3.29,628.27l9.58,3.41L22,609.2,67,632,56.89,661.08l4.52-.72L167.49,480.44Zm-94,152.05-45.92-24,15.39-25.38,48.22,19.46ZM94,589,44.21,569.5,60.11,543l50,17.76Zm20.26-34.13-50-18.33,15.14-24.82,52.32,13.54Z"/><path class="cls-41" d="M156.76,471.76l-22.34,39.38-52.65-11.2,20.76-36-8-1.41L-4.1,628l8.25,3,15.72-24.84,45,23.48L49.55,656.38l7.34,4.7L165.37,473.57ZM69.28,623.07,23.37,598.38l15.39-26.14,48.22,20Zm22.57-37.76-49.76-20L58,538l50,18.3Zm20.26-35.14-50-18.88,15.13-25.55,52.32,13.94Z"/><path class="cls-50" d="M216.09,477.71s36.46,2.4,55-8.62l34.86,25.47s41.59,75.85,43.63,79.55,68.51,72.23,68.51,72.23l81.52,51.29L406,728.46l-48.19-27.88L290,633.82,237.82,528.08l-29.77-47.45Z"/><path class="cls-51" d="M195.09,463.91s31,6,57.8,74.8,48.18,129,153.13,182.64v7.11S303.91,692.29,254.83,590.83c0,0-38.88-92.82-58.6-103.77Z"/><path class="cls-51" d="M271.06,447s30.37,5,57.21,73.85,66.36,113.78,171.31,167.45v9.35S385.32,651.56,332.22,560.92c0,0-41.45-80.87-61.16-91.83Z"/><line class="cls-52" x1="233.87" y1="185.63" x2="106.74" y2="194.79"/><line class="cls-52" x1="204.73" y1="214.76" x2="81.83" y2="219.02"/><line class="cls-52" x1="175.74" y1="243.73" x2="55.57" y2="244.56"/><line class="cls-52" x1="150.36" y1="269.09" x2="30.36" y2="269.09"/><line class="cls-52" x1="248.17" y1="208.37" x2="299.46" y2="204.4"/><line class="cls-52" x1="225.22" y1="233.3" x2="328.82" y2="230.19"/><line class="cls-52" x1="225.22" y1="254.81" x2="356.85" y2="254.81"/><path class="cls-53" d="M944.2,542.44s25.28-104.51,93.1-115.89C1145.22,408.46,1192,574,1192,574"/><line class="cls-53" x1="1132.77" y1="574.04" x2="1189.61" y2="566.44"/><line class="cls-54" x1="1121.64" y1="548.13" x2="1179.53" y2="542.13"/><line class="cls-55" x1="1110.66" y1="523.02" x2="1168.26" y2="518.92"/><line class="cls-56" x1="1094.46" y1="497.52" x2="1154.99" y2="495.86"/><line class="cls-57" x1="1075.12" y1="470.95" x2="1137.58" y2="471.7"/><line class="cls-58" x1="1053.74" y1="449.59" x2="1118.99" y2="451.76"/><line class="cls-59" x1="1032.26" y1="435.18" x2="1098.84" y2="437.03"/><line class="cls-60" x1="976.98" y1="424.03" x2="1038.05" y2="426.43"/><line class="cls-61" x1="943.8" y1="436.11" x2="1008.5" y2="438"/><line class="cls-62" x1="919.16" y1="459.08" x2="984.35" y2="461.44"/><line class="cls-63" x1="900.7" y1="489.84" x2="964.13" y2="491.01"/><line class="cls-64" x1="887.5" y1="525.54" x2="950.23" y2="523.02"/><path class="cls-65" d="M882.12,548.49s17.75-110.83,89-123c113.38-19.38,163.74,162,163.74,162"/><polygon class="cls-66" points="1244.29 660.03 1207.45 671.41 1479.32 740.66 1658.59 679.4 1634.18 675.33 1244.29 660.03"/><path class="cls-67" d="M1236.34,591.65s21.73-50,121.49-44.18c82.76,4.8,83.35,13,112.8,9.59,0,0,44.18-3.42,79.53,4.8s94.39,29.79,94.39,29.79l-165.23,43.67Z"/><polygon class="cls-68" points="1479.32 729.34 1481.09 648.16 1244.29 605.01 1244.29 672.82 1479.32 729.34"/><polygon class="cls-69" points="1236.34 606.04 1479.32 651.76 1479.32 635.32 1236.34 591.65 1236.34 606.04"/></g><polygon class="cls-70" points="953.72 77.58 940.44 224.24 938.13 224.22 951.46 77.58 953.72 77.58"/><polygon class="cls-70" points="1067.58 77.44 1081.34 224.24 1083.65 224.22 1069.84 77.44 1067.58 77.44"/><path class="cls-71" d="M951.31,177.12c3.1,9.34,12.42,11.93,26.58,6.31,12.4-4.93,21.55-6.92,18.13-23.81-2-9.64-15.88-13.51-28.55-9.31S948.21,167.78,951.31,177.12Z"/><path class="cls-71" d="M949.69,159.88c-.25.56-1.6,18.92,6.09,23.21,12.19,6.82,16.53.4,16.56.4Z"/><path class="cls-72" d="M1045.2,188.13l-7.49-6.4.11-.11a6,6,0,0,0,1.66-5.79,6.46,6.46,0,0,0-.73-1.61c-2.63-4.24,14.24-3.32,14.24-3.32a6.49,6.49,0,0,0-.78,2.65,7.61,7.61,0,0,0,1,4.41,10.66,10.66,0,0,0,1.42,2C1058.9,184.7,1045.2,188.13,1045.2,188.13Z"/><path class="cls-73" d="M1053.2,178a18.05,18.05,0,0,1-15.38,3.66,6,6,0,0,0,1.66-5.79,84.63,84.63,0,0,1,12.73-2.28A7.61,7.61,0,0,0,1053.2,178Z"/><path class="cls-74" d="M1062.2,180.49c-.3.68,4.06,12.79,5.75,45.61l-37.11,2.55s3.32-15.73,2.22-26.59l-2.53,3.58-2.49-1a10.68,10.68,0,0,1-4.7-3.73l-1.6-2.27s10-19.5,16.29-17.25l1.14.8a7.88,7.88,0,0,0,4.8,1.45c2.61-.1,6.3-1.17,9.24-5.65.73-1.12,6.88,1.74,6.88,1.74Z"/><path class="cls-75" d="M1064.81,200.29s-23.1,7.93-31.11,2.76l.2,3.95s7.61,6.74,31.75-3.78Z"/><path class="cls-75" d="M1066.48,207s-25.15,10-32.36,2.86l-.42,3.95s9.45,7.41,33-3.4Z"/><path class="cls-76" d="M998,208.65l-10.46,7.09-2.17-5.48,5.94-6.35-1.91-3.08-.94-1.52,5.85-6.15,1.95,2.57,2.13,2.82C1000.62,201.46,1001,206.59,998,208.65Z"/><path class="cls-77" d="M996.2,195.85a10.64,10.64,0,0,1-6.62,4.93l-1.1-1.47,5.85-6.15Z"/><path class="cls-76" d="M959.91,202.23c-.18,1.12-.45,2.53-.79,4.11-.23,1-.48,2.17-.75,3.32-1.62,6.82-3.87,14.8-4.83,16.05-1.35,1.77-4.43-2.26-4.43-2.26a103.36,103.36,0,0,1,1.64-15.93c.14-.83.28-1.63.41-2.37.58-3.19,1.06-5.34,1.06-5.34S960.93,195.93,959.91,202.23Z"/><path class="cls-77" d="M959.91,202.23c-.18,1.12-.62,2.61-1,4.19-3,1.42-6-.17-7.65-1.18.58-3.2.92-5.43.92-5.43S960.93,195.93,959.91,202.23Z"/><path class="cls-78" d="M979.64,184.61c1.67,2.09-10.57,4.31-11,4.54s-2.78-2.25-2.78-2.25l.51-1.74.17-.55s2.59-1.46,1.76-3.89,12.08-1.56,12.08-1.56c-2.42.51-2.56,2.25-1.72,4A8.38,8.38,0,0,0,979.64,184.61Z"/><path class="cls-77" d="M978.54,183.23a19.74,19.74,0,0,1-12.13,1.93l.17-.55s2.59-1.46,1.76-3.89,12.08-1.56,12.08-1.56C978,179.67,977.7,181.5,978.54,183.23Z"/><path class="cls-79" d="M990.53,188.67l5.16,5.42h0a11.22,11.22,0,0,1-6.49,6.23l-.76.28L986.06,196,988,223.08a16,16,0,0,1-14.65,7.68c-11.15-.35-16.56-6.7-16.56-6.7s3.16-21.6,3.43-24.73a.53.53,0,0,0,0-.13c.28-3.62-.43-5.81-3.49-7.78v-.85c-.79-.5-.5-1.11.39-1.4l-.18-1.3a22.56,22.56,0,0,1,9.67-3.26h0s1.42,2.95,6.62,2.56,6.08-3.32,6.08-3.32l2.13.25A15.1,15.1,0,0,1,990.53,188.67Z"/><path class="cls-80" d="M960.51,199.18c-.19.33,20.14,5.69,25.92-4.45l7.19,30.65s-18.43,15.08-37.1-.74Z"/><path class="cls-80" d="M966.57,184.61s-.85,14.43-.23,18.34l-2.47,1.33-1.73-2.61s.36-9.63,3-16.87Z"/><path class="cls-80" d="M979.64,183.85s.87,12.33.44,18.15l2.27,1.45,1.32-2.2s0-10.49-2.27-17.15Z"/><path class="cls-79" d="M957.2,187.69c-2.39,1.3-6.65,14.56-6.67,16.18,0,.44,2.76,1.4,4.94,1.58a9.68,9.68,0,0,0,4.17-.7s.42-2.86,1-7.07"/><circle class="cls-81" cx="980.86" cy="217.4" r="2.59"/><circle class="cls-81" cx="980.76" cy="208.64" r="2.59"/><circle class="cls-81" cx="986.78" cy="213.16" r="2.59"/><circle class="cls-81" cx="963.69" cy="209.85" r="2.59"/><circle class="cls-81" cx="981.21" cy="226.03" r="2.59"/><circle class="cls-81" cx="971.44" cy="226.17" r="2.59"/><circle class="cls-81" cx="962.62" cy="223.74" r="2.59"/><circle class="cls-81" cx="988.57" cy="219.3" r="2.59"/><circle class="cls-81" cx="966.59" cy="216.95" r="2.59"/><circle class="cls-81" cx="974.34" cy="218.22" r="2.59"/><circle class="cls-81" cx="972.01" cy="210.11" r="2.59"/><circle class="cls-81" cx="976.41" cy="204.22" r="2.59"/><circle class="cls-81" cx="969.54" cy="204.23" r="2.59"/><ellipse class="cls-81" cx="986.06" cy="204.75" rx="2.59" ry="2.17" transform="translate(750.57 1183.92) rotate(-88.21)"/><ellipse class="cls-81" cx="960.01" cy="218.01" rx="2.35" ry="1.97" transform="translate(712.09 1170.73) rotate(-88.21)"/><ellipse class="cls-81" cx="989.01" cy="224.82" rx="2.35" ry="1.97" transform="matrix(0.03, -1, 1, 0.03, 733.37, 1206.31)"/><path class="cls-76" d="M982.75,213c-.92.24-3,.62-2.92,1.85,0,.51,2,.15,3.81-.17a14.42,14.42,0,0,0,2.4-1.09c.1.14-.61.76-1.67,1.22-.58.24-2.7-.09-2.74,1.47,0,.27,2.61.21,3.23.19,1,0,5.68-3,5.91-3.23,1-1,.69-3.63-.21-5.26-1.07-1.85-3.62-2.19-6-1.89a27.38,27.38,0,0,0-4.29,1.48c-3.1,2.08-4.66,2.93-4.2,3.5,1.1,1.34,3.57-.38,4.92-1.11a15.14,15.14,0,0,1,3.11-.92c.21.23-1.85.85-2.94,1.33-.87.45-3.81,2.23-3.43,2.77,1,1.44,2,.16,4.44-.78a12.45,12.45,0,0,1,3-.61C985.05,212.05,984.5,212.23,982.75,213Z"/><path class="cls-82" d="M934.42,73.23,941,73l23.37-1L986.77,71l52.56-2.23,22.64-1,27.45-1.17,2.78-.12s258.71-291,238.15-436.52c-11.1-78.45-48.52-119.24-80.65-140.21a.44.44,0,0,0-.1-.08c-27.44-17.83-51-21.24-51-21.24a163.34,163.34,0,0,0-23.87-12.71h0c-33.84-14.54-62.74-12.65-77.69-10a74.06,74.06,0,0,0-10.93,2.64C1004-587.84,952.38-555,943.44-548.58c-.93.69-1.4,1.06-1.4,1.06-37.08-12.55-70.38-6.2-91.53,1.16-14.85,5.18-23.71,10.85-23.71,10.85-22.45,8.36-41.23,18.44-56.88,29.88l0,0a.41.41,0,0,0-.09.1C557.94-349.26,934.42,73.23,934.42,73.23Z"/><path class="cls-83" d="M927.56-359.29c0,168.19,28,359,59.21,430.31l52.56-2.23c25.64-58.91,45.79-194.91,61-352.2,12.35-127.54,8.46-213.35-3.32-270.76a74.06,74.06,0,0,0-10.93,2.64C1004-587.84,952.38-555,943.44-548.58,933.7-500.86,927.56-438.11,927.56-359.29Z"/><path class="cls-83" d="M941,73l23.37-1c-228.74-372.73-163-586.11-118.69-616.53l-75.73,38.94,0,0s38.46-21.67,38.44-21.63C588-372.64,878.07-3,941,73Z"/><path class="cls-83" d="M1062,67.84l27.45-1.17c71.68-88,327.58-425.84,160.28-576.85a.44.44,0,0,0-.1-.08c-27.44-17.83-51-21.24-51-21.24-8.15-5.22,3.37.6-4.36-2.7C1221.59-484,1279.85-293.53,1062,67.84Z"/><ellipse class="cls-84" cx="1010.09" cy="68.57" rx="81.24" ry="14.15"/><path class="cls-85" d="M945.42,304.63h0c42.39,3.78,80.45,4.61,125,1.15h0c12.45-2.07,21.34-8.5,22.2-16.07l5.93-52.17H924.1l4.86,54.6C929.47,297.91,936,302.88,945.42,304.63Z"/><rect class="cls-86" x="1067.45" y="243.13" width="17.3" height="3.03" rx="0.92" transform="translate(2152.19 489.29) rotate(-180)"/><rect class="cls-86" x="1067.45" y="252.63" width="17.3" height="3.03" rx="0.92" transform="translate(2152.19 508.29) rotate(180)"/><rect class="cls-86" x="1067.45" y="262.13" width="17.3" height="3.03" rx="0.92" transform="translate(2152.19 527.29) rotate(-180)"/><rect class="cls-86" x="1067.45" y="271.63" width="17.3" height="3.03" rx="0.92" transform="translate(2152.19 546.28) rotate(180)"/><rect class="cls-86" x="1067.45" y="281.12" width="17.3" height="3.03" rx="0.92" transform="translate(2152.19 565.28) rotate(180)"/><rect class="cls-86" x="1067.45" y="290.62" width="17.3" height="3.03" rx="0.92" transform="translate(2152.19 584.27) rotate(180)"/><rect class="cls-86" x="1041.5" y="243.13" width="17.3" height="3.03" rx="0.92" transform="translate(2100.31 489.29) rotate(-180)"/><rect class="cls-86" x="1041.5" y="252.63" width="17.3" height="3.03" rx="0.92" transform="translate(2100.31 508.29) rotate(180)"/><rect class="cls-86" x="1041.5" y="262.13" width="17.3" height="3.03" rx="0.92" transform="translate(2100.31 527.29) rotate(-180)"/><rect class="cls-86" x="1041.5" y="271.63" width="17.3" height="3.03" rx="0.92" transform="translate(2100.31 546.28) rotate(-180)"/><rect class="cls-86" x="1041.5" y="281.12" width="17.3" height="3.03" rx="0.92" transform="translate(2100.31 565.28) rotate(180)"/><rect class="cls-86" x="1041.5" y="290.62" width="17.3" height="3.03" rx="0.92" transform="translate(2100.31 584.27) rotate(180)"/><rect class="cls-86" x="1015.56" y="243.13" width="17.3" height="3.03" rx="0.92" transform="translate(2048.42 489.29) rotate(180)"/><rect class="cls-86" x="1015.56" y="252.63" width="17.3" height="3.03" rx="0.92" transform="translate(2048.42 508.29) rotate(-180)"/><rect class="cls-86" x="1015.56" y="262.13" width="17.3" height="3.03" rx="0.92" transform="translate(2048.42 527.29) rotate(-180)"/><rect class="cls-86" x="1015.56" y="271.63" width="17.3" height="3.03" rx="0.92" transform="translate(2048.42 546.28) rotate(-180)"/><rect class="cls-86" x="1015.56" y="281.12" width="17.3" height="3.03" rx="0.92" transform="translate(2048.42 565.28) rotate(-180)"/><rect class="cls-86" x="1015.56" y="290.62" width="17.3" height="3.03" rx="0.92" transform="translate(2048.42 584.27) rotate(180)"/><rect class="cls-86" x="989.62" y="243.13" width="17.3" height="3.03" rx="0.92" transform="translate(1996.53 489.29) rotate(-180)"/><rect class="cls-86" x="989.62" y="252.63" width="17.3" height="3.03" rx="0.92" transform="translate(1996.53 508.29) rotate(180)"/><rect class="cls-86" x="989.62" y="262.13" width="17.3" height="3.03" rx="0.92" transform="translate(1996.53 527.29) rotate(180)"/><rect class="cls-86" x="989.62" y="271.63" width="17.3" height="3.03" rx="0.92" transform="translate(1996.53 546.28) rotate(180)"/><rect class="cls-86" x="989.62" y="281.12" width="17.3" height="3.03" rx="0.92" transform="translate(1996.53 565.28) rotate(180)"/><rect class="cls-86" x="989.62" y="290.62" width="17.3" height="3.03" rx="0.92" transform="translate(1996.53 584.27) rotate(-180)"/><rect class="cls-86" x="963.51" y="243.13" width="17.3" height="3.03" rx="0.92" transform="translate(1944.31 489.29) rotate(180)"/><rect class="cls-86" x="963.51" y="252.63" width="17.3" height="3.03" rx="0.92" transform="translate(1944.31 508.29) rotate(180)"/><rect class="cls-86" x="963.51" y="262.13" width="17.3" height="3.03" rx="0.92" transform="translate(1944.31 527.29) rotate(180)"/><rect class="cls-86" x="963.51" y="271.63" width="17.3" height="3.03" rx="0.92" transform="translate(1944.31 546.28) rotate(-180)"/><rect class="cls-86" x="963.51" y="281.12" width="17.3" height="3.03" rx="0.92" transform="translate(1944.31 565.28) rotate(-180)"/><rect class="cls-86" x="963.51" y="290.62" width="17.3" height="3.03" rx="0.92" transform="translate(1944.31 584.27) rotate(180)"/><rect class="cls-86" x="937.39" y="243.13" width="17.3" height="3.03" rx="0.92" transform="translate(1892.09 489.29) rotate(-180)"/><rect class="cls-86" x="937.39" y="252.63" width="17.3" height="3.03" rx="0.92" transform="translate(1892.09 508.29) rotate(180)"/><rect class="cls-86" x="937.39" y="262.13" width="17.3" height="3.03" rx="0.92" transform="translate(1892.09 527.29) rotate(180)"/><rect class="cls-86" x="937.39" y="271.63" width="17.3" height="3.03" rx="0.92" transform="translate(1892.09 546.28) rotate(-180)"/><rect class="cls-86" x="937.39" y="281.12" width="17.3" height="3.03" rx="0.92" transform="translate(1892.09 565.28) rotate(-180)"/><rect class="cls-86" x="937.39" y="290.62" width="17.3" height="3.03" rx="0.92" transform="translate(1892.09 584.27) rotate(180)"/><rect class="cls-87" x="908.62" y="224.66" width="204.37" height="13.63" rx="4.15" transform="translate(2021.61 462.96) rotate(-180)"/><rect class="cls-88" x="915.2" y="225.51" width="193.09" height="6.82" rx="3.41" transform="translate(2023.49 457.84) rotate(-180)"/><ellipse class="cls-89" cx="1009.99" cy="68.74" rx="72.62" ry="11.61"/><path class="cls-90" d="M1069.24,133.59a22.22,22.22,0,0,1,5.48,3.53c3.47,2.8,11.28,11.22,11.92,14.7s-22.21.79-51.85-.91-40.83-6.53-41-8.2,7.22-8.63,15.53-12.37,19.9-3.51,33.88-2.72A86.36,86.36,0,0,1,1069.24,133.59Z"/><path class="cls-91" d="M1043.21,127.79c-13.51-.76-25.38-1.09-33.81,2.7-8.2,3.69-15.57,10.62-15.43,12.2.1,1.05,6.64,4.65,26.9,6.9,4.3.48,9,.86,13.93,1.15,7.22.42,14.11.89,20.2,1.32,17.32,1.2,29.84,2.07,31.37.24a.53.53,0,0,0,.12-.45c-.62-3.35-8.27-11.7-11.87-14.6a22.6,22.6,0,0,0-5.44-3.51,88.1,88.1,0,0,0-22.23-5.63C1045.69,128,1044.43,127.86,1043.21,127.79Z"/><path class="cls-92" d="M1012.88,138.21c-.43.83-1.36,2-.4,3.89,5.16,10.29,5.13,13.48,9.15,26.21,3,9.4,14.1,15,22.95,12.27,10.87-3.33,23-10.34,20-32-1.33-9.55-.59-20.09-2.77-23-7.34-9.88-12.55-7-26.11-2.82C1023,126.65,1017.77,128.79,1012.88,138.21Z"/><path class="cls-73" d="M1017.82,155.09s-1.81-18.3,7.46-16.36c10.09,2.12,13.63-2.5,17.7-1.9,8.9,1.31,19.67,13.48,22.15,4.41s-22.8-17.7-22.8-17.7-22.45-.53-23.9.19-6.72,12.83-6.72,12.83Z"/><path class="cls-93" d="M1049.65,149.32a5.76,5.76,0,0,1-3,7.25,5.08,5.08,0,0,1-7-2.59,5.78,5.78,0,0,1,3-7.26A5.08,5.08,0,0,1,1049.65,149.32Z"/><path class="cls-94" d="M1049.68,153.61a6.05,6.05,0,0,0,0-4.63,5,5,0,0,0-7-2.26c-1.28.68-2.46,1.59-3.49,4.32a6.31,6.31,0,0,1,4.31-5.42c2.17-.62,4.88-.18,6.06,2.08C1050.56,149.65,1051,152.43,1049.68,153.61Z"/><path class="cls-95" d="M1047.18,153.38c.55,1.26-.34,2.61-2,3a3.39,3.39,0,0,1-3.93-1.52c-.55-1.26.34-2.62,2-3A3.38,3.38,0,0,1,1047.18,153.38Z"/><path class="cls-96" d="M1044.84,151.73a1,1,0,0,1-.13,1.36.88.88,0,0,1-1.28-.17,1,1,0,0,1,.12-1.36A.89.89,0,0,1,1044.84,151.73Z"/><path class="cls-93" d="M1021.05,159.11a5.28,5.28,0,0,0,5.87,4.15,4.66,4.66,0,0,0,3.82-5.66,5.28,5.28,0,0,0-5.87-4.15A4.65,4.65,0,0,0,1021.05,159.11Z"/><path class="cls-94" d="M1024.08,162.78a5.36,5.36,0,0,1-2.85-3.7,4.75,4.75,0,0,1,3.91-5.63c1.34-.22,2.4.16,4.57,2-1.69-2.18-3.87-2.9-5.78-2.25a4.75,4.75,0,0,0-3.31,5.09C1020.89,160.48,1022.54,162.46,1024.08,162.78Z"/><path class="cls-95" d="M1023.7,160.61c-.32-1.2.66-2.32,2.18-2.5a3,3,0,0,1,3.34,1.86c.31,1.21-.66,2.33-2.18,2.51A3,3,0,0,1,1023.7,160.61Z"/><path class="cls-96" d="M1026.63,158.22a1,1,0,1,1-1.41-.14A1,1,0,0,1,1026.63,158.22Z"/><path class="cls-97" d="M1024.16,145.55a.69.69,0,0,0,.57-1l-.11-.18c-.57-1-2-.81-2.79-.41-1.16.6-2.87,1.36-3.47,4.93-.05.3.31.54.45.31C1019.66,147.77,1021.68,145.62,1024.16,145.55Z"/><path class="cls-97" d="M1040.66,141.18a.67.67,0,0,1-1.06-.51v-.2c-.1-1.11,1.16-1.84,2-2,1.29-.18,3.13-.55,5.7,2,.21.21.06.63-.2.52C1045.62,140.37,1042.73,139.8,1040.66,141.18Z"/><path class="cls-98" d="M1022.24,132.45s3.65,11,20.8.89c0,0-20.69-.72-.89-7.81,0,0-2.14,7.27,10.37,1.29,0,0-7.7,10.08,9.11,17.12,0,0,2.82.1,3.85,6.8.07.48.14,1,.19,1.55.8,8.24-.12-1.07-.12-1.07s7-3.42,4.56-12c0,0,4.18-7.82-2.5-14.16,0,0,.77-11.41-11.9-10.38,0,0-5.93-9.63-13.1-7.19,0,0-12.65-5-18.16,6.2,0,0-9-.47-11.62,10.81,0,0-6.34,6.1-2.57,12.29,0,0-5,5.27,2,8.94,0,0-3.55,5.56,3.5,8.08l3.69,5.69-1.65-4.38a21.61,21.61,0,0,1,4-22.19Z"/><path class="cls-99" d="M1009.34,130.34c8.3-3.74,19.9-3.51,33.88-2.72a86.36,86.36,0,0,1,26,6,22.22,22.22,0,0,1,5.48,3.53c3.47,2.8,11.28,11.22,11.92,14.7-.73-2.31-11.2-12.29-50.34-14.86-25.55-1.68-37.95,2.06-42.31,5.1C995.13,139.68,1001.86,133.71,1009.34,130.34Z"/><path class="cls-100" d="M993.88,142.18a.17.17,0,0,1,0-.2c1.19-2.47,7.95-8.43,15.42-11.79,8.5-3.82,20.4-3.5,34-2.73,1.23.07,2.49.17,3.76.32a88.73,88.73,0,0,1,22.31,5.65,22,22,0,0,1,5.52,3.56c3.23,2.6,11.29,11.11,12,14.8a.18.18,0,0,1-.12.19.16.16,0,0,1-.19-.11c-.65-2.05-9.38-10.44-40.22-13.87-3.17-.35-6.52-.64-10-.87-29.63-1.95-39.8,3.38-42.22,5.06a.1.1,0,0,1-.1,0A.12.12,0,0,1,993.88,142.18Z"/><path class="cls-101" d="M1070.21,139.88c-2.16-3.68-6.19-6.27-9.66-8.22a47.54,47.54,0,0,0-4.43-2.15,84.31,84.31,0,0,1,13.12,4.08,22.22,22.22,0,0,1,5.48,3.53c3.47,2.8,11.28,11.22,11.92,14.7-.44-1.4-4.47-5.62-16.28-9.3A2.8,2.8,0,0,0,1070.21,139.88Z"/><path class="cls-101" d="M1024.12,127.78A54.67,54.67,0,0,0,1015,131c-2.22,1-4.89,2.8-4.85,5.78a3.08,3.08,0,0,0,0,.53c-8.63,1.06-13.72,3-16.2,4.74,1.14-2.38,7.87-8.35,15.35-11.72,5-2.25,11.19-3.06,18.37-3.18A29,29,0,0,0,1024.12,127.78Z"/><path class="cls-99" d="M1074.21,135.17s2.31-12.78-12-23.25c-15.48-11.33-34.29-5.3-40-1.76s-11.55,11.25-12.81,18.73c0,0,21.48-2.11,31.43-1.19S1068.57,131.68,1074.21,135.17Z"/><path class="cls-100" d="M1074.09,134.9c.21-1.79,1-13.34-11.94-22.84a33.63,33.63,0,0,0-16.35-6.31c-10.07-1.11-19.53,2.12-23.44,4.56-5.29,3.3-11.3,10.66-12.69,18.39,2.23-.21,21.91-2,31.25-1.17l2.31.24C1052.59,128.81,1068.42,131.56,1074.09,134.9Z"/><path class="cls-101" d="M1018.91,121.84c1.69,2.91,4.81,4.14,7.63,5,1,.29,2,.53,3,.74-9.66.32-20,1.33-20,1.33,1.17-6.92,6.27-14,11.53-17.86C1018.56,113.87,1016.81,118.22,1018.91,121.84Z"/><path class="cls-101" d="M1053.29,127.82c3.7-.48,7.78-1.19,11.08-3.39,2.87-1.91,4-4.32,4-6.87,7.47,8.92,5.89,17.61,5.89,17.61-4.61-2.86-17.32-5.43-27.25-6.77C1049.08,128.28,1051.2,128.11,1053.29,127.82Z"/><path class="cls-102" d="M1041.2,125.71c-8-.8-29.69.46-31.93,1.78a13.16,13.16,0,0,0-.34,3.18c.2.54,10.56-2.77,29.88-1.36,25.42,1.86,34.8,7.51,35.44,7.68s.51-2.91.24-3.39S1064.57,128,1041.2,125.71Z"/><path class="cls-91" d="M1008.78,130.73a12.2,12.2,0,0,1,.34-3.28l0-.07.06,0c2.29-1.35,24.14-2.57,32-1.79,23.66,2.34,33.15,7.51,33.41,8a6.15,6.15,0,0,1,0,3.43.35.35,0,0,1-.36.21h0a4.46,4.46,0,0,1-.5-.22c-8.35-4-19.9-5.91-28.1-6.83-2.19-.24-4.49-.45-6.81-.62a111.49,111.49,0,0,0-27.63,1.14,12.73,12.73,0,0,1-2.14.27A.28.28,0,0,1,1008.78,130.73Z"/><path class="cls-103" d="M1009.27,127.49c1.27-.75,8.77-1.48,16.49-1.82l-.81.17c-7.55,1.25-2.26,2.26,3.49,2a113.75,113.75,0,0,1,20.48,1c8.72,1.14,11.6-.34,4.6-1.46-.51-.09-1-.19-1.4-.31,15.5,2.53,22.15,6.07,22.37,6.47s.41,3.57-.24,3.39-10-5.82-35.44-7.68c-19.32-1.41-29.68,1.9-29.88,1.36A13.16,13.16,0,0,1,1009.27,127.49Z"/><path class="cls-104" d="M1066.43,140.09s-15.72-5.59-52.64-4.44C1013.79,135.65,1043,131.72,1066.43,140.09Z"/><path class="cls-92" d="M1063.18,154.57c.09-5,1.81-7.42,4.51-7.57,2.92-.17,4.15,1.78,4.23,5.92.12,5.29-5.24,9.53-8.88,8.68"/><path class="cls-73" d="M1069.73,151.65s.57-3-2.54-2.24-1.2,4.63-2,6.36-2.59,3.55-1.21,3.83S1069.83,158,1069.73,151.65Z"/><path class="cls-105" d="M1032.81,161.27a4.09,4.09,0,0,0,.53,2,1.52,1.52,0,0,0,1.61.41,3.26,3.26,0,0,0,1.77-.82,5,5,0,0,0,1.15-1.85,3.13,3.13,0,0,1-.56,2.36,3.36,3.36,0,0,1-2.2,1.3,3.12,3.12,0,0,1-1.35-.07,1.78,1.78,0,0,1-1.1-.94A2.9,2.9,0,0,1,1032.81,161.27Z"/><path class="cls-96" d="M964.89,177.49s-4.23.44-5.68,3.61C960.49,181.54,961.79,182.15,964.89,177.49Z"/><path class="cls-92" d="M950,164.14c0-.09.13,0,.06.08s-.14,0-.2-.09a5.23,5.23,0,0,0-2.3-1.47,2.07,2.07,0,0,0-1.82.13,2.56,2.56,0,0,0-.55,2.59,8.47,8.47,0,0,0,2.15,4c1.82,1.89,4.7,2.82,6.94,1.69"/><path class="cls-77" d="M948.06,165.6a9.89,9.89,0,0,1,1,.6c.25.18.52.48.44.78s-.36.36-.39.63a.56.56,0,0,0,.47.56c.24,0,.48,0,.72,0a1.09,1.09,0,0,1,.82.66.81.81,0,0,1,.09.4.62.62,0,0,1-.62.57,1.63,1.63,0,0,1-.86-.32,7.34,7.34,0,0,1-1.74-1.32C947.19,167.29,945.86,164.46,948.06,165.6Z"/><path class="cls-106" d="M952.52,170s2.75,2.53,1.42,3.93-2.47-2.47-2.47-2.47,1.79,2.82,1.42.68Z"/><path class="cls-92" d="M945.54,156.32c.25.29,3.86,11.24,5.29,16.47,1.68,6.12,9.63,12.48,16.93,11.59,9-1.1,16.51-5.43,19.38-12.95s.63-17,.63-17,5.61-10.89-4.15-17.75-20.46-8.59-33-3.19S945.54,156.32,945.54,156.32Z"/><path class="cls-77" d="M979,148.69c-.47-.14-11.27-6.94-11.27-6.94s5.5,4.45,3,4.5c-.71,0-7.21-1.79-9.64-4,0,0,1.58,3.86,3.85,4.18,0,0-8.84,2.47-12.93-4,0,0,1.81,3.48-4.4,7.94-4.82,3.47-.67,9.57-.67,9.57l-4.29-13.81,4.92-7.23,14.39-3.79,12.57,1.38,6.14,9,7.14,8.88Z"/><path class="cls-107" d="M947.66,162.43c-.52-2-1.4-8-.62-9.89,1.57-3.82,4.14-4.81,5.55-6.3.9-1,.11-4.38.86-5.45s.06,1.39,0,0c.95,2,.88,3.39,2.94,4.12a15.71,15.71,0,0,0,6.07.75,9.19,9.19,0,0,1-2.9-2.82,18.08,18.08,0,0,1-1.27-4.32,23.65,23.65,0,0,0,12.78,7,11,11,0,0,1-4.24-5.9,3.68,3.68,0,0,1,1.89.91A69,69,0,0,0,979,147.36c0-.6.19-1.14.15-1.74,2,3.74,9.13,10.16,9,9.93,0,0,3.47,19-8.76,27.28a31.28,31.28,0,0,0,12.3-3.91c7-3.83,10.23-12,4.32-23.46s-3.46-16.86-8.15-23.56c-5.59-8-21.49-16.36-41.19,1.13,0,0-9.83,5.68-2,24.82C944.69,157.85,947.82,163.06,947.66,162.43Z"/><path class="cls-108" d="M954.25,152.54s-3.82-.21-5.15,2.78a.13.13,0,0,1-.24,0,3.16,3.16,0,0,1,2.27-3.43C954.63,150.57,954.25,152.54,954.25,152.54Z"/><path class="cls-108" d="M968.35,149.61s4-1.42,6.48,1c.1.1.28,0,.25-.11-.21-.83-1-2.48-3.62-2.54C967.26,147.86,968.35,149.61,968.35,149.61Z"/><path class="cls-109" d="M960.85,162.15A3.48,3.48,0,0,1,962,165a4,4,0,0,1-.44,1.55c-.13.26-.22.45-.3.63a1.94,1.94,0,0,0-.14.55c-.07.72.56,1.27,1.4,1.33a4.12,4.12,0,0,0,2.51-.74l.07,0h0a1.5,1.5,0,0,0,.74-.35.65.65,0,0,0,0-.79.88.88,0,0,1,.27.42.76.76,0,0,1-.07.55,1.77,1.77,0,0,1-.83.68l.08,0a4.12,4.12,0,0,1-2.89,1.25,2.49,2.49,0,0,1-1.65-.6,2,2,0,0,1-.67-1.73,2.75,2.75,0,0,1,.24-.86l.39-.66a4.06,4.06,0,0,0,.51-1.22A3.93,3.93,0,0,0,960.85,162.15Z"/><path class="cls-110" d="M944.3,135.13a25.2,25.2,0,0,1,8.81-4.29c15.17-4,31.14,6.72,35.68,23.94.09.33.18.67.25,1,.51-.26,1-.49,1.56-.71q-.17-.73-.36-1.47c-4.54-17.22-20.51-27.94-35.67-23.94A25.44,25.44,0,0,0,944.3,135.13Z"/><path class="cls-111" d="M988.2,156.31c-.05-.07-.12.1,0,.1s.14-.1.17-.18a5.68,5.68,0,0,1,1.62-2.51,2.76,2.76,0,0,1,2-.86,2.42,2.42,0,0,1,2,1.92,7.28,7.28,0,0,1-.11,4.54,7.71,7.71,0,0,1-6.34,5.2"/><path class="cls-112" d="M988.2,156.3c-.06-.05-.09.08,0,.1s.09,0,.12-.08a2.45,2.45,0,0,0,.09-.32c.07-.22.16-.44.25-.65a6.59,6.59,0,0,1,.73-1.18,3.67,3.67,0,0,1,2.35-1.5,2,2,0,0,1,1.41.45,3.19,3.19,0,0,1,.85,1.19,7,7,0,0,1,.49,2.78,7.93,7.93,0,0,1-2.13,5.08,8.46,8.46,0,0,1-2.23,1.67,6.84,6.84,0,0,1-2.65.68,7.56,7.56,0,0,0,4.59-2.61,7.78,7.78,0,0,0,1.92-4.84,6.45,6.45,0,0,0-.41-2.58,2,2,0,0,0-1.82-1.44,3.41,3.41,0,0,0-2.19,1.28,6,6,0,0,0-.79,1.08,5,5,0,0,0-.29.62c-.05.1-.08.21-.14.31s-.1.1-.16.07S988.15,156.25,988.2,156.3Z"/><path class="cls-77" d="M991,156.54a7.31,7.31,0,0,0-.69,1.05c-.17.28-.3.69,0,.91s.57.11.75.32,0,.56-.19.73-.52.22-.76.38a1.15,1.15,0,0,0-.51,1,.82.82,0,0,0,.13.39.78.78,0,0,0,1,.16,2.1,2.1,0,0,0,.73-.75,7.8,7.8,0,0,0,1.11-2.07C992.78,157.52,992.65,154.38,991,156.54Z"/><path class="cls-106" d="M988.68,162.73s-1.51,3.65.63,4.14,1.26-3.45,1.26-3.45-.36,3.38-1.13,1.34Z"/><path class="cls-77" d="M972.08,169.46a5.54,5.54,0,0,0,.69-.68,2,2,0,0,1,.84-.47c.4-.11.93,0,1.08.35a1,1,0,0,1-.28.91,2.53,2.53,0,0,1-1.48.78.78.78,0,0,1-.7-.16c-.17-.18-.08-.57.17-.57"/><path class="cls-77" d="M958.81,172.38a3.4,3.4,0,0,0-.76-.49,1.26,1.26,0,0,0-.57-.14.9.9,0,0,0-.78.77,1.24,1.24,0,0,0,.42,1.06,2.07,2.07,0,0,0,1.08.47A1.3,1.3,0,0,0,959,174a.68.68,0,0,0,.44-.6.72.72,0,0,0-.45-.6,2.25,2.25,0,0,0-.78-.15"/><path class="cls-113" d="M973.19,169.55s.37-.7-.42-.25a18.07,18.07,0,0,1-8.48,3.55,15.3,15.3,0,0,1-6.47-.4.15.15,0,0,0-.18.22,10.54,10.54,0,0,0,6,5,6.27,6.27,0,0,0,5.36-1.16C970.58,175.23,971.83,173.54,973.19,169.55Z"/><path class="cls-114" d="M971.52,170.65a13.85,13.85,0,0,1-11.82,2.56s1.42,2.27,5.59,1.82A7.5,7.5,0,0,0,971.52,170.65Z"/><path class="cls-115" d="M966.37,177.24a4,4,0,0,0,2.4-1.42,2.78,2.78,0,0,0-1.89-.47,4.83,4.83,0,0,0-3.35,1.66A4.11,4.11,0,0,0,966.37,177.24Z"/><path class="cls-110" d="M983.45,135.19s10.8.61,7.31,6-9.56,7.41-10.38-3.14c-.52-6.64-2.24-1.67-2.24-1.67s-13.51-3-4.41-9.51c8.41-6,6.81,6,6.81,6S983.25,130.94,983.45,135.19Z"/><ellipse class="cls-116" cx="977.4" cy="126.39" rx="0.97" ry="0.83" transform="translate(1.34 262.72) rotate(-15.32)"/><ellipse class="cls-116" cx="988.18" cy="137.57" rx="0.97" ry="0.83" transform="translate(-1.23 265.97) rotate(-15.32)"/><ellipse class="cls-116" cx="989.82" cy="140.05" rx="0.97" ry="0.83" transform="matrix(0.96, -0.26, 0.26, 0.96, -1.83, 266.49)"/><ellipse class="cls-116" cx="985.58" cy="139.64" rx="0.97" ry="0.83" transform="translate(-1.87 265.35) rotate(-15.32)"/><ellipse class="cls-116" cx="982.47" cy="138.9" rx="0.97" ry="0.83" transform="matrix(0.96, -0.26, 0.26, 0.96, -1.79, 264.5)"/><ellipse class="cls-116" cx="983.42" cy="142.63" rx="0.97" ry="0.83" transform="matrix(0.96, -0.26, 0.26, 0.96, -2.74, 264.89)"/><ellipse class="cls-116" cx="987" cy="142.6" rx="0.97" ry="0.83" transform="translate(-2.6 265.83) rotate(-15.32)"/><ellipse class="cls-116" cx="984.87" cy="136.86" rx="0.97" ry="0.83" transform="translate(-1.16 265.07) rotate(-15.32)"/><ellipse class="cls-116" cx="979.51" cy="129.37" rx="0.97" ry="0.83" transform="translate(0.62 263.38) rotate(-15.32)"/><ellipse class="cls-116" cx="972.9" cy="130.72" rx="0.97" ry="0.83" transform="translate(0.03 261.69) rotate(-15.32)"/><ellipse class="cls-116" cx="973.95" cy="127.67" rx="0.97" ry="0.83" transform="matrix(0.96, -0.26, 0.26, 0.96, 0.88, 261.85)"/><ellipse class="cls-116" cx="976.4" cy="129.76" rx="0.97" ry="0.83" transform="translate(0.41 262.58) rotate(-15.32)"/><ellipse class="cls-116" cx="978.43" cy="131.93" rx="0.97" ry="0.83" transform="translate(-0.09 263.19) rotate(-15.32)"/><ellipse class="cls-116" cx="975.31" cy="133" rx="0.97" ry="0.83" transform="translate(-0.48 262.4) rotate(-15.32)"/><ellipse class="cls-116" cx="977.55" cy="134.29" rx="0.97" ry="0.83" transform="matrix(0.96, -0.26, 0.26, 0.96, -0.74, 263.04)"/><ellipse class="cls-110" cx="980.75" cy="135.41" rx="2.99" ry="2.24" transform="translate(210.74 757.73) rotate(-46.81)"/><circle class="cls-77" cx="954.52" cy="161.23" r="5.01"/><ellipse class="cls-77" cx="971.47" cy="157.34" rx="5.24" ry="5.01" transform="matrix(0.97, -0.26, 0.26, 0.97, -8, 252.95)"/><path class="cls-117" d="M950,161.53a4.71,4.71,0,0,0,4.54,4.88c2.6.1,4.76-1.12,4.85-3.73s-1.91-5.6-4.51-5.69A4.71,4.71,0,0,0,950,161.53Z"/><ellipse class="cls-95" cx="955.71" cy="163.62" rx="2.67" ry="2.3" transform="translate(-7.14 49.29) rotate(-2.94)"/><circle class="cls-96" cx="953.07" cy="164.35" r="0.81"/><path class="cls-117" d="M976.1,156.64a4.72,4.72,0,0,1-3.36,5.76c-2.52.66-4.89-.05-5.56-2.57s.63-5.89,3.15-6.55A4.72,4.72,0,0,1,976.1,156.64Z"/><ellipse class="cls-95" cx="971.41" cy="160.04" rx="2.61" ry="2.21" transform="translate(-12.85 138.13) rotate(-8.08)"/><circle class="cls-96" cx="969.34" cy="160.64" r="0.81"/><path class="cls-74" d="M1053.21,178c1.38-.84,12.21-3.29,20.75,21.63l-.83.66s-3.73,3-7.74,2.7l-1.45-.09-5.3-9.25"/><ellipse class="cls-76" cx="955.47" cy="223.77" rx="1.46" ry="3.08" transform="matrix(0.03, -1, 1, 0.03, 701.93, 1171.77)"/><ellipse class="cls-96" cx="950.09" cy="223.51" rx="0.35" ry="2.73" transform="translate(610.94 1138.71) rotate(-82.9)"/><path class="cls-76" d="M952.57,221.47c-1.81-.45-1.69,1.36-1.93,3.27s.24,3.53,1.07,3.63,1.69-1.35,1.92-3.26S953.37,221.68,952.57,221.47Z"/><path class="cls-76" d="M949.85,221.14c-2.71-.26-1.41,1.37-1.65,3.25s.13,3.48.8,3.57,1.41-1.38,1.65-3.26S950.53,221.2,949.85,221.14Z"/><path class="cls-76" d="M947.24,221c-2.54,0-1.54,1.3-1.77,3.12s.2,3.38.95,3.47,1.54-1.31,1.77-3.13S948,221.05,947.24,221Z"/><path class="cls-76" d="M944.82,221.64c-1.39-.22-1.53.94-1.71,2.35s.55,2.69,1.07,2.75,1.1-1,1.27-2.43S945.42,221.73,944.82,221.64Z"/><path class="cls-118" d="M1045.42,165.47a2.39,2.39,0,0,1,.45-1.06.83.83,0,0,1,1-.2,1.26,1.26,0,0,1-.11,1.39,1.47,1.47,0,0,1-1,.28c-.19,0-.43,0-.5-.19"/><path class="cls-118" d="M1030.75,170.6a.66.66,0,0,0-.06-.77,1.15,1.15,0,0,0-.71-.39c-.41-.08-.93,0-1.06.43a.77.77,0,0,0,.56.89,2.19,2.19,0,0,0,1.16-.06"/><path class="cls-119" d="M1037.13,172.38c.39.17,3.69,1.94,6.21-2.67A5.8,5.8,0,0,1,1037.13,172.38Z"/><path class="cls-119" d="M1029.87,170.12s8.16,3.79,16.32-5.13C1046.19,165,1042,174.67,1029.87,170.12Z"/><path class="cls-120" d="M1016,61.28a.44.44,0,0,1,.77.38c-1.16,3.06-3.15,7.29-5.15,7.86s-4.31.38-6.18,1.33a10.51,10.51,0,0,0-3.35,3.22c.43-2,.62-4.63-1.25-5.72-3.24-1.89-6.11-13.11-.92-7.17,3.22,2.49,1.49-1.83,5.58-1.83,1.64,0,6.55,0,8.16,0-.11.77-1.21,5-1.48,5.7a3.07,3.07,0,0,1-2,1.87C1012.12,67,1014.3,63.67,1016,61.28Z"/><path class="cls-121" d="M1012.11,63.05a.27.27,0,0,1,.47.23c-.71,1.87-1.93,4.46-3.15,4.81s-2.64.23-3.79.82a6.5,6.5,0,0,0-2,2c.26-1.24.38-2.83-.76-3.49-2-1.16-5-9-.72-3.41,2,1.52,3.94-3.92,6.44-3.92h1c1.48.57.38,4.86.22,5.31a1.89,1.89,0,0,1-1.23,1.14C1009.72,66.52,1011.05,64.51,1012.11,63.05Z"/><path class="cls-122" d="M1029.77,80.27c-1.3-.86-12.66-6.73-12.95-6.9a3,3,0,0,1,.51-.18l.58-.65c.25.07,12.59,6.71,13.84,7.53Z"/><path class="cls-122" d="M987.5,79.84l-2-.12c1-.68,11.93-7.49,12.2-7.56l2,.33-.49.1C998.93,72.76,988.57,79.11,987.5,79.84Z"/><path class="cls-123" d="M995.44,67.38v5.31h24.4V67a17.42,17.42,0,0,0-5.33-.9,90.13,90.13,0,0,0-16,.28S996.17,66.47,995.44,67.38Z"/><ellipse class="cls-124" cx="1007.64" cy="72.16" rx="12.2" ry="2.3"/><path class="cls-124" d="M1019.21,69.86c.39,0,42.34-6.67,44.25-7.16"/><path class="cls-122" d="M1019.21,70.45v-.59l-.05-.59c.27,0,41.07-6.44,43.19-7l2.33.62C1063.37,63.25,1020,70.45,1019.21,70.45Z"/><path class="cls-124" d="M996.51,69.29c-.39,0-36.54-5.11-40.9-5.17"/><path class="cls-122" d="M996.51,69.88c-.12,0-.51,0-5.61-.74-10.39-1.43-38.49-5.8-41.76-5.84l2.82-1c3.35,0,28.7,4.25,39.12,5.68,2.94.4,5.26.72,5.47.73Z"/><polygon class="cls-70" points="940.9 66.38 925.66 224.76 922.84 224.76 938.68 66.38 940.9 66.38"/><polygon class="cls-70" points="1080.47 66.21 1095.72 224.6 1098.53 224.6 1082.7 66.21 1080.47 66.21"/><path class="cls-125" d="M1033.9,203.39a26.59,26.59,0,0,1-1.58-11.59"/><path class="cls-76" d="M1085.15,227.49a1.36,1.36,0,0,0,1.57.37,1.1,1.1,0,0,0,.48-1.48,3.89,3.89,0,0,0-.56-.59c-.44-.46-.68-1.1-1.14-1.54a2.68,2.68,0,0,0-1.71-.66,8.27,8.27,0,0,0-1.86.19,3.44,3.44,0,0,0,1.44,3.22A4.07,4.07,0,0,0,1085.15,227.49Z"/><path class="cls-76" d="M1085.9,229.55a1.66,1.66,0,0,1-1.65-.43c.07.65-.12,1.31-1.26,1.08-2.07-.42-1.82-3-5.74-3.45s-8.88.78-9.3-.65,1.77-1.53,2-1.58,2.18-.42,2.28-.9-2.54-6.38-2.75-14.49c0,0,.42,0,0-.49-.2-.22-1.94-2.53-3.1-4.15a15.24,15.24,0,0,1-1-1.52,7.11,7.11,0,0,0,4.12-.7,45.72,45.72,0,0,0,4.45-2.66s.22.62.55,1.46c.57,1.49,1.43,3.67,1.83,4.37a15.09,15.09,0,0,1,1.74,4.62c.71,3.77.64,11.62.64,11.62s-1.17,0,1.63.7S1088.08,229.23,1085.9,229.55Z"/><path class="cls-73" d="M1074.39,201.2a9.34,9.34,0,0,1-7.79,3.3,16.69,16.69,0,0,1-.95-1.38,8.94,8.94,0,0,0,4.24-.94,30.88,30.88,0,0,0,4-2.33Z"/><path class="cls-125" d="M1071.82,224c.46-1.16,1.71-1.22,2.62-1.15"/><path class="cls-125" d="M1084.17,228.43a11.3,11.3,0,0,0-4.53-4.25"/><path class="cls-76" d="M1030.1,205.47a10.45,10.45,0,0,1-1.44,1.55,3.25,3.25,0,0,1-.91.6c-2.46,4.28-10.59,10.75-12.71,12s-3.55,2.73-3.43,4.7c.21,3.68.57,3.76.1,5s.92,2.54-.08,2.77-2.31-1.64-2.17-3.37-.44-1.52-.44-1.52c-5.66,3.9-8.51,9.47-9.15,8.23s.9-3.34.9-3.34-1.13-3.46-.77-4.53,2.33-4.17,6.59-7.28,11.28-13.91,13.43-16.81c.59-.79,1-1.44,1.34-2,1-1.6.95-2.1,1-1.92A11.75,11.75,0,0,0,1030.1,205.47Z"/><path class="cls-125" d="M1000.72,232a25.29,25.29,0,0,0,2.22-4.05"/><path class="cls-125" d="M1000.44,230.82a11.37,11.37,0,0,1,1.22-3.9"/><path class="cls-125" d="M1000.07,229.34a12.48,12.48,0,0,1,.61-2.17"/><path class="cls-125" d="M1069.39,209.13a6.46,6.46,0,0,1,5.77-1.4"/><path class="cls-77" d="M1029.84,205.55a8.4,8.4,0,0,1-1.34,1.43c-3.43-1-5.89-3.87-7-5.37,1-1.6.85-1.92,1-1.74A11.55,11.55,0,0,0,1029.84,205.55Z"/><path class="cls-125" d="M986.24,195.25a8.61,8.61,0,0,0-.21-6.41"/><path class="cls-125" d="M960.31,197.36l-1-6.59"/><ellipse class="cls-126" cx="960.35" cy="632.83" rx="29.53" ry="8.4"/><g id="ball"><circle class="cls-127" cx="955.29" cy="604.36" r="31.36"/><path class="cls-128" d="M942.78,621.91s21-15,36.68-15.37a52.25,52.25,0,0,0,3.79-4.53c.08-.43-1.38-11-1.38-11s-28.22,6-52,21.79l3.24,7.5Z"/><path class="cls-128" d="M926.66,603.14s8-11.13,18.92-16.53,21.89-6.72,31.14-3.49a15.3,15.3,0,0,0-5.29-5.59c-3.37-1.9-11.38-5.69-18.18-3.07l-2.77,2a48.61,48.61,0,0,0-20.92,12.2l-3.31,5.57Z"/><path class="cls-129" d="M947.14,632.41s-22.56-5.16-23.08-30.93c0,0,.54-15.47,14-23.29l3.32,2s-8.33,4.59-11.78,8.43c0,0-3.38,7.33-2.25,13.74s2.56,13.29,15.47,19.54Z"/><path class="cls-129" d="M956.24,614l9.23-4.28s7.27,10.4,9.66,18.93c0,0-7.07,5.9-15.19,6.74A114.11,114.11,0,0,1,956.24,614Z"/><path class="cls-129" d="M979.46,606.54s5-12.53-3.06-23.88-20.44-8.48-25.92-6.23l-.28-3s15.85-2.3,25.57,7.2,13.34,20.84,6.49,36.45Z"/><path class="cls-130" d="M982.33,620s.33-.89-.54-4.7"/><path class="cls-131" d="M948.54,634.87s-.36-.53-1.49-2.56"/></g><ellipse class="cls-126" cx="891.61" cy="670.11" rx="29.53" ry="8.4"/><g id="ball-2" data-name="ball"><circle class="cls-127" cx="888.14" cy="640.86" r="31.36"/><path class="cls-128" d="M871.09,627.68s14.18,21.58,14,37.24a52.37,52.37,0,0,0,4.38,4c.43.09,11.07-1,11.07-1s-4.93-28.43-19.79-52.83l-7.61,2.95Z"/><path class="cls-128" d="M890.45,612.3s10.82,8.44,15.81,19.53,5.87,22.13,2.29,31.25a15.27,15.27,0,0,0,5.79-5.07c2-3.3,6.12-11.15,3.77-18l-1.87-2.85a48.57,48.57,0,0,0-11.39-21.36l-5.45-3.52Z"/><path class="cls-129" d="M860.43,631.64s6-22.35,31.79-21.88c0,0,15.43,1.13,22.73,14.83l-2.13,3.25s-4.27-8.51-8-12.09c0,0-7.2-3.66-13.64-2.77s-13.39,2-20.12,14.7Z"/><path class="cls-129" d="M878.49,641.44l3.92,9.38s-10.66,6.88-19.29,8.94c0,0-5.62-7.29-6.15-15.44A114.87,114.87,0,0,1,878.49,641.44Z"/><path class="cls-129" d="M885.05,664.92s12.33,5.48,24-2.14,9.26-20.1,7.22-25.67l3-.16s1.69,15.93-8.17,25.28-21.33,12.54-36.68,5.09Z"/><path class="cls-130" d="M871.45,667.28s.88.36,4.73-.36"/><path class="cls-131" d="M857.92,633s.54-.35,2.61-1.4"/></g><ellipse class="cls-126" cx="809.12" cy="635.7" rx="29.53" ry="8.4"/><g id="ball-3" data-name="ball"><circle class="cls-127" cx="814.76" cy="610.96" r="31.36"/><path class="cls-128" d="M819.93,631.88s2.31-25.71,12.23-37.84a52.19,52.19,0,0,0-1-5.83c-.28-.34-9.27-6.14-9.27-6.14s-13.82,25.33-17.37,53.68l7.8,2.42Z"/><path class="cls-128" d="M795.19,631.88S792,618.54,795,606.76s9.16-21,17.64-25.9a15.27,15.27,0,0,0-7.68.37c-3.64,1.32-11.74,4.93-14.18,11.79l-.31,3.39a48.64,48.64,0,0,0-4.37,23.81l2.07,6.15Z"/><path class="cls-129" d="M830.73,635.41s-18.61,13.76-38.5-2.64c0,0-11.38-10.49-8.57-25.76l3.69-1.21s-2,9.31-1.28,14.42c0,0,3.36,7.35,8.95,10.66s11.75,6.73,24.91,1Z"/><path class="cls-129" d="M822.69,616.51l2.76-9.79s12.63,1.25,20.66,5c0,0-.13,9.21-4.78,15.92A114.8,114.8,0,0,1,822.69,616.51Z"/><path class="cls-129" d="M832.16,594s-6.25-12-20.1-13.24-19.76,10-21.62,15.61L788,594.66s8.58-13.53,22.12-14.71,24.5,3.45,31.88,18.82Z"/><path class="cls-130" d="M844.27,600.65s-.46-.83-3.92-2.66"/><path class="cls-131" d="M833.51,636s-.63-.06-2.91-.53"/></g><ellipse class="cls-126" cx="742" cy="687.49" rx="29.53" ry="8.4"/><g id="ball-4" data-name="ball"><circle class="cls-127" cx="740.1" cy="659.2" r="31.36"/><path class="cls-128" d="M720.71,649.79S739,668,742,683.39a52.27,52.27,0,0,0,5.1,3c.44,0,10.64-3.21,10.64-3.21s-10.64-26.82-30.17-47.66L720.71,640Z"/><path class="cls-128" d="M736.52,630.77s12.32,6.05,19.46,15.89,10.28,20.46,8.64,30.12a15.26,15.26,0,0,0,4.62-6.15c1.32-3.64,3.72-12.17,0-18.43l-2.4-2.41a48.67,48.67,0,0,0-15.52-18.58l-6.05-2.34Z"/><path class="cls-129" d="M711.09,655.84s1.32-23.1,26.64-27.91c0,0,15.34-2,25.29,9.87l-1.43,3.61s-5.91-7.45-10.27-10.2c0,0-7.8-2.12-13.92.07s-12.68,4.74-16.69,18.51Z"/><path class="cls-129" d="M730.76,661.74l5.76,8.38s-9,8.91-17,12.69c0,0-7-6-9.18-13.85A114.41,114.41,0,0,1,730.76,661.74Z"/><path class="cls-129" d="M742,683.39s13.19,2.84,23-7,5-21.57,1.82-26.6l2.92-.78s4.92,15.25-2.83,26.42-18.31,16.63-34.85,12.48Z"/><path class="cls-130" d="M729.16,688.48s.94.17,4.55-1.32"/><path class="cls-131" d="M708.89,657.63s.46-.44,2.28-1.89"/></g><ellipse class="cls-126" cx="824.08" cy="706.46" rx="29.53" ry="8.4"/><g id="ball-5" data-name="ball"><circle class="cls-127" cx="823.8" cy="679.11" r="31.36"/><path class="cls-128" d="M808,693.73s23.64-10.38,39-7.55a52.21,52.21,0,0,0,4.65-3.66c.16-.4.9-11.07.9-11.07s-28.86.12-55.39,10.69l1.64,8Z"/><path class="cls-128" d="M796,672.07s10.13-9.26,21.89-12.32,22.8-2.1,31.2,3a15.3,15.3,0,0,0-4-6.56c-2.92-2.55-10-7.9-17.17-6.73l-3.11,1.36a48.71,48.71,0,0,0-23,7.67l-4.38,4.78Z"/><path class="cls-129" d="M810.09,704.9s-21-9.67-16.27-35c0,0,3.69-15,18.42-19.94l2.85,2.64s-9.1,2.79-13.25,5.84c0,0-4.82,6.49-5,13S796.61,685,808,693.73Z"/><path class="cls-129" d="M822.77,688.73l9.9-2.3s5,11.66,5.59,20.51c0,0-8.12,4.33-16.25,3.49A114.31,114.31,0,0,1,822.77,688.73Z"/><path class="cls-129" d="M847,686.18s7.47-11.24,1.9-24-18.28-12.49-24.1-11.41l.33-3s16,1,23.57,12.27,8.8,23.12-1.11,37Z"/><path class="cls-130" d="M847.07,700s.5-.81.44-4.71"/><path class="cls-131" d="M811,707.59s-.25-.58-.94-2.8"/></g><ellipse class="cls-126" cx="1030.08" cy="672" rx="29.53" ry="8.4"/><g id="ball-6" data-name="ball"><circle class="cls-127" cx="1030.91" cy="644.15" r="31.36"/><path class="cls-128" d="M1036.57,623.35s-14.52,21.35-29.08,27.14a52.71,52.71,0,0,0-2,5.56c.08.43,5.12,9.87,5.12,9.87s24.39-15.42,41.26-38.48l-5.64-5.91Z"/><path class="cls-128" d="M1058.19,635.38s-3.67,13.22-12,22.06-18.21,13.88-28,14.06a15.21,15.21,0,0,0,6.9,3.41c3.82.62,12.65,1.4,18.12-3.41l1.92-2.81A48.7,48.7,0,0,0,1060.5,650l1.17-6.38Z"/><path class="cls-129" d="M1028.85,615s22.94-3,32.36,21c0,0,4.85,14.69-5,26.67l-3.82-.73s6.23-7.19,8.13-12c0,0,.63-8.06-2.65-13.67s-7-11.58-21.28-13Z"/><path class="cls-129" d="M1026.69,635.45l-7.18,7.21s-10.42-7.23-15.62-14.41c0,0,4.59-8,11.92-11.59A115.29,115.29,0,0,1,1026.69,635.45Z"/><path class="cls-129" d="M1007.49,650.49s-.35,13.48,11.14,21.33,22.11.88,26.48-3.13l1.31,2.73s-14.08,7.65-26.49,2.11-19.74-14.92-18.71-31.95Z"/><path class="cls-130" d="M1000.12,638.82s0,.95,2.13,4.23"/><path class="cls-131" d="M1026.68,613.2s.52.36,2.28,1.88"/></g><ellipse class="cls-126" cx="961.89" cy="705.76" rx="29.53" ry="8.4"/><g id="ball-7" data-name="ball"><circle class="cls-127" cx="962.7" cy="677.88" r="31.36"/><path class="cls-128" d="M941.6,673.48s22.19,13.21,28.84,27.4a52.06,52.06,0,0,0,5.67,1.65c.43-.1,9.54-5.7,9.54-5.7S968.79,673.41,944.76,658l-5.56,6Z"/><path class="cls-128" d="M952.3,651.18s13.42,2.86,22.75,10.66,15,17.34,15.72,27.11a15.21,15.21,0,0,0,3-7.09c.38-3.85.64-12.71-4.5-17.88l-2.92-1.75A48.59,48.59,0,0,0,966.76,648l-6.44-.79Z"/><path class="cls-129" d="M933.75,681.7s-4.35-22.73,19-33.57c0,0,14.38-5.73,26.93,3.4l-.5,3.86s-7.55-5.79-12.45-7.39c0,0-8.08-.15-13.48,3.46s-11.15,7.69-11.68,22Z"/><path class="cls-129" d="M954.27,682.62l7.63,6.73s-6.59,10.84-13.44,16.46c0,0-8.25-4.1-12.28-11.2A114.9,114.9,0,0,1,954.27,682.62Z"/><path class="cls-129" d="M970.44,700.88s13.48-.46,20.62-12.4-.45-22.13-4.72-26.25l2.65-1.47s8.49,13.59,3.7,26.31-13.71,20.6-30.76,20.61Z"/><path class="cls-130" d="M959.24,708.94s1-.06,4.09-2.38"/><path class="cls-131" d="M932.06,684s.33-.54,1.74-2.39"/></g></g><g class="cls-132"><g class="cls-133"><path class="cls-134" d="M2799,1438.66l-1692.86,8.64q14.07-405.09,28.13-810.18H2799Z"/></g></g><g class="cls-135"><g class="cls-136"><rect class="cls-137" x="-163.97" y="-973.69" width="3239.51" height="1468.15"/><path class="cls-18" d="M649.75-116.4s345.74-129.47,758.5-31.07S2169.9,179.18,2169.9,179.18l292.6,152.36L812.77,307.37Z"/><path class="cls-19" d="M-164.92-397.24s814.39,104.3,1357.4,518l307.34,213.83-367.57,127.3L325.51,482.35l-490.43-25.44Z"/><path class="cls-138" d="M456.8,307.49S912.6,89.36,1648.34,91.22,2836.62,207.4,2836.62,207.4l161.94,90.87L1408.25,408Z"/><rect class="cls-25" x="40.08" y="262.03" width="38.99" height="98.54"/><path class="cls-139" d="M-62.33,265.58S-73,20.62,62.39-92.35c0,0,35.77-22.64,70.41,58.78s60.56,231.27,43.48,300.45C163.3,319.43-57.74,333.64-62.33,265.58Z"/><path class="cls-140" d="M-166,285.16S-173.54,64.4-77.93-37.43c0,0,25.27-20.4,49.74,53S14.59,224,2.52,286.34C-6.64,333.7-162.78,346.51-166,285.16Z"/><rect class="cls-25" x="167.9" y="309.49" width="27.54" height="60.58"/><path class="cls-141" d="M98,285.78s-7.51-150.58,88.1-220c0,0,25.27-13.92,49.74,36.13s42.78,142.18,30.71,184.7C257.42,318.89,101.27,327.62,98,285.78Z"/><path class="cls-27" d="M-164,211.11s212.37,2,335.68,0,515.06-4.23,584.83-5.7,369.31-24.6,432.11-33.11,337.9-8.33,468.12,8.77,350.91,3.69,350.91,3.69v17s-274.46,4.43-340.47,1.48S1468.76,180.34,1317.28,184s-293.37,21.41-293.37,21.41L633,221.53l-312.33,9L-164,222.7Z"/><path class="cls-28" d="M18.81,190.93l40.24,2.73s5,4.13,4.31,32.92-3.59,77.48-3.59,77.48l-32.33,3.43Z"/><path class="cls-28" d="M134.49,193.66v109l-37.36,4.8V202.59s-4.31-8.94,12.93-8.93Z"/><polygon class="cls-28" points="185.51 193.66 222.87 193.66 222.87 302.69 188.38 302.69 185.51 193.66"/><polygon class="cls-28" points="262.7 193.66 300.11 193.66 303.63 311.13 262.7 316.02 262.7 193.66"/><path class="cls-28" d="M342.08,190.93h39.09s3.85,4,3.21,27.24.07,80.12.07,80.12l-42.37,4.4-5.76-82.52Z"/><polygon class="cls-28" points="424.11 188.2 460.64 188.2 465.12 193.66 465.12 302.69 424.11 307.49 424.11 188.2"/><polygon class="cls-28" points="507.42 184.53 547.79 184.53 544.59 311.74 507.42 311.74 507.42 184.53"/><polygon class="cls-28" points="583.04 190.93 615.08 190.93 620.85 250.58 620.85 316.02 580.48 311.74 583.04 190.93"/><path class="cls-28" d="M655.45,188.2s-10.89,5.18-2.56,65.28l8.33,60.09h35.89l-10.89-129Z"/><path class="cls-28" d="M718.26,188.2l-7.69,125.37h32.68l13.46-108.24s1.92-10.4-7.05-17.13Z"/><polygon class="cls-28" points="770.17 184.53 812.46 184.53 816.95 313.57 779.78 316.02 770.17 184.53"/><polygon class="cls-28" points="843.22 177.81 885.52 177.81 881.67 307.49 843.22 313.57 843.22 177.81"/><polygon class="cls-28" points="931.66 177.81 972.67 172.3 980.36 307.49 931.66 313.57 931.66 177.81"/><path class="cls-28" d="M1007.92,172.3s14.1-12.23,37.17-2.44c0,0,11.54,84.39,11.54,127.81l-37.17,4.9S1005.36,192.48,1007.92,172.3Z"/><polygon class="cls-28" points="1070.72 160.68 1104.05 153.96 1132.24 294.62 1084.18 297.06 1070.72 160.68"/><polygon class="cls-28" points="1159.8 148.45 1157.24 270.76 1164.93 294.62 1225.17 291.56 1204.66 148.45 1159.8 148.45"/><polygon class="cls-28" points="1237.48 144.51 1310.77 140.53 1300.11 283.86 1255.4 283.86 1237.48 144.51"/><path class="cls-29" d="M55.91,304.47s8.29-85.06,0-102.85c0,0-2.88-6.7-37.1-10.69l40.24,2.73s4.72,6,4.36,24.62-3.64,85.78-3.64,85.78Z"/><path class="cls-29" d="M98.12,196.74s23.76-3.31,31.45,2.91V303.33l4.92-.64v-109h-28S99.28,194.91,98.12,196.74Z"/><polygon class="cls-29" points="185.51 193.66 217.74 196.26 217.74 302.69 222.87 302.69 222.87 193.66 185.51 193.66"/><polygon class="cls-29" points="262.7 196.25 293.66 198.89 298.51 311.74 303.63 311.13 300.11 193.66 262.7 193.66 262.7 196.25"/><path class="cls-29" d="M342.08,190.93l34.13,2.73s3.33,4.44,2.5,33.25S377.28,299,377.28,299l7.17-.74-.13-78s1.53-23.86-3.15-29.38Z"/><polygon class="cls-29" points="424.11 188.2 456.57 190.93 461.28 197.27 460.02 303.29 465.12 302.69 465.12 193.66 460.64 188.2 424.11 188.2"/><polygon class="cls-29" points="507.42 184.53 541.93 188.2 537.86 311.74 544.59 311.74 547.79 184.53 507.42 184.53"/><polygon class="cls-29" points="583.04 190.93 608.47 193.68 615.68 249.05 615.68 316.02 620.85 316.02 620.61 248.14 615.08 190.93 583.04 190.93"/><polygon class="cls-29" points="655.45 188.2 681.9 188.2 693.83 313.57 697.11 313.57 686.22 184.53 655.45 188.2"/><path class="cls-29" d="M718.26,188.2l29.23,2.73a24.13,24.13,0,0,1,5.34,15.63c-.32,9.28-12.55,107-12.55,107h3l13.27-106.72s2.52-13.34-6.86-18.65Z"/><polygon class="cls-29" points="770.17 184.53 807.75 188.2 812.77 313.57 816.95 313.57 812.46 184.53 770.17 184.53"/><polygon class="cls-29" points="843.22 177.81 880.66 182.06 876.09 308.38 881.67 307.49 885.52 177.81 843.22 177.81"/><polygon class="cls-29" points="931.66 177.81 967.64 177.81 975.04 308.38 980.36 307.49 972.67 172.3 931.66 177.81"/><path class="cls-29" d="M1007.92,172.3s21.27-6.05,33.4,2.13c0,0,10.64,114,10,123.94l5.26-.7s-1.49-58.63-4.07-81.16c-2.13-18.6-7.47-46.65-7.47-46.65S1025.71,158.59,1007.92,172.3Z"/><polygon class="cls-29" points="1070.72 160.68 1098.42 159.19 1125.05 294.98 1132.24 294.62 1104.05 153.96 1070.72 160.68"/><polygon class="cls-29" points="1159.8 148.45 1198.13 152.41 1218.25 291.91 1225.17 291.56 1204.66 148.45 1159.8 148.45"/><polygon class="cls-29" points="1237.48 144.51 1304.64 145.56 1295.47 283.86 1300.11 283.86 1310.77 140.53 1237.48 144.51"/><ellipse class="cls-30" cx="38.58" cy="219.22" rx="6.07" ry="5.8"/><ellipse class="cls-30" cx="113.27" cy="219.22" rx="6.07" ry="5.8"/><ellipse class="cls-30" cx="204.19" cy="220.54" rx="6.07" ry="5.8"/><ellipse class="cls-30" cx="279.6" cy="219.22" rx="6.07" ry="5.8"/><ellipse class="cls-30" cx="357.25" cy="220.54" rx="6.07" ry="5.8"/><ellipse class="cls-30" cx="444.62" cy="217.24" rx="6.07" ry="5.8"/><ellipse class="cls-30" cx="522.8" cy="217.24" rx="6.07" ry="5.8"/><ellipse class="cls-30" cx="595.87" cy="215.59" rx="6.07" ry="5.8"/><ellipse class="cls-30" cx="665.71" cy="213.61" rx="6.07" ry="5.8"/><ellipse class="cls-30" cx="736.25" cy="211.44" rx="6.07" ry="5.8"/><ellipse class="cls-30" cx="789.85" cy="209.79" rx="6.07" ry="5.8"/><ellipse class="cls-30" cx="861.78" cy="205.64" rx="6.07" ry="5.8"/><ellipse class="cls-30" cx="951" cy="199.85" rx="6.07" ry="5.8"/><ellipse class="cls-30" cx="1023.28" cy="196.55" rx="6.07" ry="5.8"/><ellipse class="cls-30" cx="1090.36" cy="188.2" rx="6.07" ry="5.8"/><ellipse class="cls-30" cx="1181.31" cy="182.41" rx="6.07" ry="5.8"/><ellipse class="cls-30" cx="1274.12" cy="176.61" rx="6.07" ry="5.8"/><path class="cls-142" d="M-164,304s404.45-19,765.91,0,785.79-58.44,1583.61-31.88,887.61,28.14,887.61,28.14L3074.64,848H-164.92Z"/><path class="cls-34" d="M3066.54,517.1s-423.82-63.67-745.9-92-650-12.92-650-12.92-55.42,15.06-26.58,48.71-58.57,43.22-130,47.57-192.15,2.42-284.71,22.76-422.64,25.93-512.52,67,132.94,208,683.3,243.8H3066.54Z"/><path class="cls-143" d="M3074.64,533.19S2640.79,474.82,2323,447.58s-641.46-12.41-641.46-12.41-58.43,6.55-30,38.88-54,49.43-124.49,53.61-189.62,2.32-281,21.85S829,574.42,740.31,613.84,871.5,813.68,1414.6,848h1660Z"/><path class="cls-36" d="M974.05,595.55,783.29,462.61,884.65,439.4,646.12,367.72l-292.76,43.5,34.84,22.2L166,475.28l6.58,11.82,236.09-40.87L468.53,483,263.45,536.78,284,544.47l205.93-48.69,47,23.27,66.22-15.16c15,9.79,176.79,113.79,325.27,154.59Z"/><polygon class="cls-37" points="641.06 -18.75 914.12 -24.87 914.12 4.26 641.06 4.26 641.06 -18.75"/><polygon class="cls-38" points="621.24 -215.65 626.56 369.3 654.49 369.3 654.49 -215.65 621.24 -215.65"/><polygon class="cls-39" points="339.28 151.96 633.28 132.75 914.12 163.04 914.12 182.29 548.51 210.39 341.15 183.43 339.28 151.96"/><polygon class="cls-37" points="316.76 -17.49 627.46 -24.87 627.46 5.64 316.76 9.11 316.76 -17.49"/><polygon class="cls-40" points="553.36 194.62 906.01 163.04 906.01 191.61 553.36 220.93 553.36 194.62"/><polygon class="cls-40" points="914.56 -223.72 885.66 489.22 920.59 489.22 950.69 -223.72 914.56 -223.72"/><polygon class="cls-41" points="937.74 -223.72 906.01 489.22 920.59 489.22 950.69 -223.72 937.74 -223.72"/><polygon class="cls-40" points="502.24 -210.95 536.86 519.05 571.67 516.47 538.26 -213.63 502.24 -210.95"/><polygon class="cls-41" points="525.35 -212.66 557.14 517.55 571.67 516.47 538.26 -213.63 525.35 -212.66"/><polygon class="cls-45" points="272.37 -205.14 297.45 -205.14 375.94 408.01 346.94 411.41 272.37 -205.14"/><polygon class="cls-46" points="521.5 195.11 345.16 167.61 348.58 194.27 522.72 220.93 521.5 195.11"/><path class="cls-49" d="M494.63,167.05l-58.37,87.77-106.56-22,42-70.73-4.81-14.56L153.23,480.2l19.39,6.9,31.78-45.5,91.07,46.16L275,546.59l9.15-1.45L498.91,181ZM304.4,474.83,211.47,426.3l31.15-51.37,97.61,39.39Zm45.69-74.22L249.37,361.22l32.19-53.66,101.24,36Zm41-69.07L289.87,294.43l30.63-50.24L426.41,271.6Z"/><path class="cls-41" d="M477.19,163.4,432,243.11,325.41,220.44l42-72.84-16.16-2.86L151.6,479.6l16.68,6.11,31.84-50.27L291.18,483l-31,54.12,14.86,9.5L494.63,167.05ZM300.12,469.66l-92.93-50,31.15-52.91,97.6,40.57Zm45.69-76.42L245.09,352.68l32.19-55.26,101.24,37Zm41-71.13L285.58,283.9l30.64-51.73,105.91,28.21Z"/><path class="cls-50" d="M597.28,175.44s73.8,4.86,111.27-17.44l70.55,51.54s84.2,153.54,88.32,161,138.67,146.22,138.67,146.22l165,103.82L981.72,683l-97.53-56.45L746.91,491.42l-105.65-214-60.26-96Z"/><path class="cls-51" d="M554.79,147.51s62.65,12.1,117,151.39S769.3,560,981.72,668.59V683S775,609.77,675.69,404.41c0,0-78.69-187.88-118.6-210Z"/><path class="cls-51" d="M708.55,113.23S770,123.43,824.36,262.72,958.68,493,1171.1,601.65v18.94S939.83,527.32,832.35,343.87c0,0-83.9-163.7-123.8-185.87Z"/></g></g><g class="cls-144"><g class="cls-145"><rect class="cls-146" x="-412.22" y="498.12" width="1934.1" height="950.07"/></g></g></g></g></svg>