<svg id="Layer_1" data-name="Layer 1" xmlns="http://www.w3.org/2000/svg" viewBox="0 0 100 100"><defs><style>.cls-1{opacity:0.5;}.cls-2{fill:#ff0;stroke:#494949;stroke-miterlimit:10;}.cls-3{fill:#ffa63b;}.cls-4{fill:#323232;}</style></defs><g id="Frog_Icon" data-name="Frog Icon"><ellipse class="cls-1" cx="50.49" cy="51.91" rx="42.26" ry="40.84"/><ellipse class="cls-2" cx="49.51" cy="48.09" rx="42.26" ry="40.84"/><ellipse class="cls-3" cx="49.51" cy="48.09" rx="36.16" ry="34.95"/><path class="cls-4" d="M43.78,40.51c.13-4.26,1.4-8.52,1.53-12.79h1.62q-.3,4.25-.3,8.49c0,3,.29,6.29,2.62,8.2a1.9,1.9,0,0,0,1,.47c.92.08,1.51-.89,1.86-1.72l5.22-12.31,2,1a34.94,34.94,0,0,0-4.74,9.33c-.6,1.82-.93,4.09.51,5.39a5.24,5.24,0,0,0,3.88.89,23,23,0,0,0,9.79-3.29c.51-.34,2.23-1.66,3.07-1.57.64.07,0,1.21,0,1.83-4,.47-7.25,3.39-10,6.25-4,4.08.18,9.61-1.67,14.34-1.94,5-8.16,8.39-13.5,8-9.67-.66-12.15-9.37-13.75-17-.3-1.4-4.07-19.89-4.75-19.55,1.24-.62.18-1.25,1.42-1.87,1.29,3.32,3.54,8.45,5.89,11.17,1.21,1.39,3.7.77,5.51.32C43.2,45.57,43.71,42.75,43.78,40.51Z"/><path class="cls-4" d="M74.27,40.42A3.13,3.13,0,0,1,76,42.33a2.11,2.11,0,0,1,.12.48,1.74,1.74,0,0,1-.5,1.26,2.85,2.85,0,0,1-3.14.7A2.49,2.49,0,0,1,71,42,2.53,2.53,0,0,1,74.27,40.42Z"/><path class="cls-4" d="M58.66,26.61a3.28,3.28,0,0,1,3.32,1A3,3,0,0,1,62.27,31c-1.31,1.24-3.63,1.6-4.94.37C55.86,30,56.7,27.16,58.66,26.61Z"/><path class="cls-4" d="M48,22.91a3,3,0,0,1,.9.79,2.79,2.79,0,0,1,.22,2.83,3.07,3.07,0,0,1-.77.95,3.12,3.12,0,0,1-4.71-1.43A3,3,0,0,1,47,22.53,3.06,3.06,0,0,1,48,22.91Z"/><path class="cls-4" d="M25.52,34.1a2.85,2.85,0,0,1,2-2.71A2.59,2.59,0,0,1,30.3,33a4.1,4.1,0,0,1-.22,3.3c-1.47.41-3.4.6-4.22-.66A2.5,2.5,0,0,1,25.52,34.1Z"/></g></svg>