<svg id="Layer_1" data-name="Layer 1" xmlns="http://www.w3.org/2000/svg" viewBox="0 0 100 100"><defs><style>.cls-1{opacity:0.5;}.cls-2{fill:#ff0;stroke:#494949;stroke-miterlimit:10;}.cls-3{fill:#ffa63b;}.cls-4{fill:#ff002c;}.cls-5{fill:#b50041;}.cls-6{fill:#db0331;}.cls-7{fill:#d10037;}.cls-8{fill:#a3481a;}.cls-9{fill:#ff4160;}</style></defs><g id="Apple_Icon" data-name="Apple Icon"><ellipse class="cls-1" cx="50.49" cy="51.91" rx="42.26" ry="40.84"/><ellipse class="cls-2" cx="49.51" cy="48.09" rx="42.26" ry="40.84"/><ellipse class="cls-3" cx="49.51" cy="48.09" rx="36.16" ry="34.95"/><path class="cls-4" d="M55.07,32.83c.73.35,1.47.69,2.23,1,2.94,1.15,6.27,1.38,9.29,2.28,7.71,2.31,9.86,13.75,6.66,20.06-4.11,8.09-10.67,15.54-19.49,18.92,0,0-6.85,2.62-10.43-.95a5.19,5.19,0,0,0-4.57-1.37s-5,1.06-8.48-4.3c-5.57-8.59-8.69-22.76-4.21-32.39,3.48-7.46,13.64-9.22,21.06-6.9A57.14,57.14,0,0,1,55.07,32.83Z"/><path class="cls-5" d="M44.2,34.94s3.8,4.51,7.61,5.25a21.28,21.28,0,0,0,9.67.21c-4.23.77-7.67-.72-11.53-2.06C48,37.66,45.5,36.48,44.2,34.94Z"/><path class="cls-6" d="M65.21,38.3c-1.92-.84-8.17-1.47-8.28-1.5s-2.39-.4-2.46-.65c-.22-.7,2.1-1.14,2.86-1.18a35.87,35.87,0,0,1,5.49.22A20.42,20.42,0,0,1,68.61,37c4.45,2.6,6.59,8.66,6,13.64s-3,9.12-6.19,13.12A35.83,35.83,0,0,1,56.05,74.05c-3.74,1.82-8.19,3-11.72.81-1-.63-2.25-1.84-3.42-2.13a11.65,11.65,0,0,0-3.43.11c-.91,0-3.36-.61-3.07-1.61.54-1.84,5.35-1,7.58-.29,1.13.34,2.15,1,3.29,1.28,2.72.74,5.59-.45,7.95-1.94A37.68,37.68,0,0,0,66.05,55.74c2.11-4,3.71-8.57,2.58-12.92a6.7,6.7,0,0,0-3-4.32Z"/><path class="cls-7" d="M56,74c-3.75,1.82-8.53,2.53-12,.34a11.83,11.83,0,0,0-3.16-1.83,10.91,10.91,0,0,0-3.31.19c-.91,0-3.36-.47-3.06-1.47.54-1.84,5.35-1,7.57-.29,1.13.34,2.16,1,3.3,1.28"/><path class="cls-8" d="M51.48,38.82s5.65-6.72-.87-17.12a5.88,5.88,0,0,1,4-.95s3.48,6.52-1.09,18.81Z"/><path class="cls-9" d="M30.51,33c-.85,1.15-2.43,3.29-2.71,5,0,.31-.71,3.29.75,2.43,2.61-1.53,2.17-3.58,4.2-5.18,1.11-.88,2.78-1.5,4-2.53,1.41-1.17.89-2.5-.93-2.21C35.83,30.48,32.15,30.77,30.51,33Z"/><ellipse class="cls-9" cx="26.7" cy="45.91" rx="2.1" ry="1.54" transform="translate(-21.91 67.31) rotate(-83.58)"/><path class="cls-9" d="M43.21,40.57S46.48,44.16,56,45.13c0,0,6.5-.68.84-2s-4.84-.72-7.37-1.7-4.71-2.25-5.57-2.33S42.19,39.8,43.21,40.57Z"/></g></svg>