<svg id="Layer_1" data-name="Layer 1" xmlns="http://www.w3.org/2000/svg" viewBox="0 0 100 100"><defs><style>.cls-1{opacity:0.5;}.cls-2{fill:#ff0;stroke:#494949;stroke-miterlimit:10;}.cls-3{fill:#ffa63b;}.cls-4{fill:#485ef9;}.cls-5{fill:#3550d8;}.cls-6{fill:#2b38d8;}.cls-7{fill:#1426a8;}.cls-8{fill:#001684;}.cls-9{fill:#fe9b00;}.cls-10{fill:#3248ea;}.cls-11{fill:#001151;}.cls-12{fill:#fff;}.cls-13{fill:#2d3739;}.cls-14{fill:#1e2526;}</style></defs><g id="Fish_Icon" data-name="Fish Icon"><ellipse class="cls-1" cx="50.49" cy="51.91" rx="42.26" ry="40.84"/><ellipse class="cls-2" cx="49.51" cy="48.09" rx="42.26" ry="40.84"/><ellipse class="cls-3" cx="49.51" cy="48.09" rx="36.16" ry="34.95"/><path class="cls-4" d="M61.81,51.06,47.93,60.4C60.09,69.78,75.19,57.05,61.81,51.06Z"/><path class="cls-5" d="M62.6,51.43c-.25-.12-.51-.25-.79-.37L47.93,60.4a16.22,16.22,0,0,0,2.89,1.81c.89.44,5.1-1,8.32-4.3S62.8,51.54,62.6,51.43Z"/><path class="cls-4" d="M64.86,33c-6.25,4.45-16-.71-21.7-1.11s-8.8,2.14-11,5.8L59.84,46C64.86,44.92,66.66,35.94,64.86,33Z"/><path class="cls-5" d="M63.23,43.62c-9.45-5.07-21.14-10.51-29.57-8.06a15.93,15.93,0,0,0-1.51,2.13L59.84,46A5.87,5.87,0,0,0,63.23,43.62Z"/><path class="cls-6" d="M77.51,39.91C69.62,36.42,66,46.42,63.38,45c-12.05-6.55-28.32-14.33-36.6-5.06-3.32,3.72-5.88,9.29-6.12,12.14,0,.27.47.24.57.92a1.43,1.43,0,0,0-.43,2.42c1.38,1.54,6.41,8.33,20.88,8.33,15,0,20-11,22-14.46,1.68-2.84,2,4.77,11,8.9C85.9,54.21,74.55,46.74,77.51,39.91Z"/><path class="cls-7" d="M64,46.82C57.3,54.05,48.66,61.61,36.21,58.6c0,0,3.53-6.31-1.28-11.88C39.63,57.58,28.08,59,24.71,59.1c3.15,2.26,8.41,4.64,17,4.64,15,0,20-11,22-14.46,1.68-2.84,2,4.77,11,8.9,7.4-2.38,5.1-6.51,4-9.35C72.53,49.68,64.15,46.69,64,46.82Z"/><path class="cls-8" d="M40.07,38.58a3.42,3.42,0,0,0-2.16.72,3.5,3.5,0,0,1,1.33-.25c1.42,0,2.57.77,2.57,1.71s-1.15,1.71-2.57,1.71a3.5,3.5,0,0,1-1.33-.25,3.42,3.42,0,0,0,2.16.72c1.61,0,2.92-1,2.92-2.18S41.68,38.58,40.07,38.58Z"/><path class="cls-8" d="M42.56,42.13a3.41,3.41,0,0,0-2.16.71,3.5,3.5,0,0,1,1.33-.25c1.42,0,2.57.77,2.57,1.71S43.15,46,41.73,46a3.71,3.71,0,0,1-1.33-.24,3.47,3.47,0,0,0,2.16.71c1.61,0,2.92-1,2.92-2.18S44.17,42.13,42.56,42.13Z"/><path class="cls-8" d="M40.07,45.57a3.42,3.42,0,0,0-2.16.72A3.5,3.5,0,0,1,39.24,46c1.42,0,2.57.77,2.57,1.71s-1.15,1.71-2.57,1.71a3.5,3.5,0,0,1-1.33-.25,3.42,3.42,0,0,0,2.16.72c1.61,0,2.92-1,2.92-2.18S41.68,45.57,40.07,45.57Z"/><path class="cls-8" d="M42.56,49.12a3.41,3.41,0,0,0-2.16.71,3.5,3.5,0,0,1,1.33-.25c1.42,0,2.57.77,2.57,1.71S43.15,53,41.73,53a3.71,3.71,0,0,1-1.33-.24,3.47,3.47,0,0,0,2.16.71c1.61,0,2.92-1,2.92-2.18S44.17,49.12,42.56,49.12Z"/><path class="cls-8" d="M40.07,52.56a3.42,3.42,0,0,0-2.16.72A3.5,3.5,0,0,1,39.24,53c1.42,0,2.57.77,2.57,1.71s-1.15,1.71-2.57,1.71a3.5,3.5,0,0,1-1.33-.25,3.42,3.42,0,0,0,2.16.72c1.61,0,2.92-1,2.92-2.18S41.68,52.56,40.07,52.56Z"/><path class="cls-8" d="M42.56,56.11a3.41,3.41,0,0,0-2.16.71,3.5,3.5,0,0,1,1.33-.25c1.42,0,2.57.77,2.57,1.71S43.15,60,41.73,60a3.71,3.71,0,0,1-1.33-.24,3.47,3.47,0,0,0,2.16.71c1.61,0,2.92-1,2.92-2.18S44.17,56.11,42.56,56.11Z"/><path class="cls-8" d="M45.33,38.58a3.42,3.42,0,0,0-2.16.72,3.5,3.5,0,0,1,1.33-.25c1.42,0,2.57.77,2.57,1.71s-1.15,1.71-2.57,1.71a3.5,3.5,0,0,1-1.33-.25,3.42,3.42,0,0,0,2.16.72c1.61,0,2.92-1,2.92-2.18S46.94,38.58,45.33,38.58Z"/><path class="cls-8" d="M47.34,42.21a3.24,3.24,0,0,0-2.05.68,3.37,3.37,0,0,1,1.26-.24c1.35,0,2.44.73,2.44,1.63S47.9,45.9,46.55,45.9a3.37,3.37,0,0,1-1.26-.24,3.24,3.24,0,0,0,2.05.68c1.53,0,2.77-.92,2.77-2.06S48.87,42.21,47.34,42.21Z"/><path class="cls-8" d="M45.33,45.57a3.42,3.42,0,0,0-2.16.72A3.5,3.5,0,0,1,44.5,46c1.42,0,2.57.77,2.57,1.71s-1.15,1.71-2.57,1.71a3.5,3.5,0,0,1-1.33-.25,3.42,3.42,0,0,0,2.16.72c1.61,0,2.92-1,2.92-2.18S46.94,45.57,45.33,45.57Z"/><path class="cls-8" d="M47.6,49.24a3.19,3.19,0,0,0-2,.68,3.37,3.37,0,0,1,1.26-.24c1.34,0,2.44.73,2.44,1.62s-1.1,1.62-2.44,1.62a3.37,3.37,0,0,1-1.26-.23,3.25,3.25,0,0,0,2,.68c1.53,0,2.78-.93,2.78-2.07S49.13,49.24,47.6,49.24Z"/><path class="cls-9" d="M45.33,52.56a3.42,3.42,0,0,0-2.16.72A3.5,3.5,0,0,1,44.5,53c1.42,0,2.57.77,2.57,1.71s-1.15,1.71-2.57,1.71a3.5,3.5,0,0,1-1.33-.25,3.42,3.42,0,0,0,2.16.72c1.61,0,2.92-1,2.92-2.18S46.94,52.56,45.33,52.56Z"/><path class="cls-8" d="M47.76,56.23a3.2,3.2,0,0,0-2,.68A3.37,3.37,0,0,1,47,56.67c1.34,0,2.44.73,2.44,1.62s-1.1,1.62-2.44,1.62a3.37,3.37,0,0,1-1.26-.23,3.25,3.25,0,0,0,2,.68c1.53,0,2.77-.93,2.77-2.07S49.29,56.23,47.76,56.23Z"/><path class="cls-8" d="M49.52,39.07a3.22,3.22,0,0,0-2.05.68,3.37,3.37,0,0,1,1.26-.24c1.35,0,2.44.73,2.44,1.63s-1.09,1.62-2.44,1.62a3.37,3.37,0,0,1-1.26-.24,3.22,3.22,0,0,0,2.05.68c1.53,0,2.77-.93,2.77-2.06S51.05,39.07,49.52,39.07Z"/><path class="cls-8" d="M51.46,42.43a3.19,3.19,0,0,0-2,.68,3.29,3.29,0,0,1,1.26-.24c1.34,0,2.44.73,2.44,1.62s-1.1,1.63-2.44,1.63a3.29,3.29,0,0,1-1.26-.24,3.19,3.19,0,0,0,2,.68c1.53,0,2.77-.93,2.77-2.07S53,42.43,51.46,42.43Z"/><path class="cls-8" d="M49,45.81a3.29,3.29,0,0,0-2.05.67,3.58,3.58,0,0,1,1.26-.23c1.35,0,2.44.73,2.44,1.62s-1.09,1.62-2.44,1.62A3.37,3.37,0,0,1,47,49.26a3.29,3.29,0,0,0,2.05.67c1.53,0,2.77-.92,2.77-2.06S50.56,45.81,49,45.81Z"/><path class="cls-8" d="M51.24,49.28a3.29,3.29,0,0,0-2.05.67,3.37,3.37,0,0,1,1.26-.23c1.35,0,2.44.72,2.44,1.62S51.8,53,50.45,53a3.58,3.58,0,0,1-1.26-.23,3.29,3.29,0,0,0,2.05.67c1.53,0,2.77-.92,2.77-2.06S52.77,49.28,51.24,49.28Z"/><path class="cls-8" d="M49.25,52.76a3.19,3.19,0,0,0-2,.68,3.29,3.29,0,0,1,1.26-.24c1.34,0,2.44.73,2.44,1.63s-1.1,1.62-2.44,1.62a3.29,3.29,0,0,1-1.26-.24,3.19,3.19,0,0,0,2,.68c1.53,0,2.77-.93,2.77-2.06S50.78,52.76,49.25,52.76Z"/><path class="cls-8" d="M54.8,42.66a3.08,3.08,0,0,0-2,.65,3.25,3.25,0,0,1,1.2-.23c1.29,0,2.34.7,2.34,1.55S55.33,46.19,54,46.19a3.25,3.25,0,0,1-1.2-.23,3.08,3.08,0,0,0,2,.65c1.46,0,2.65-.89,2.65-2S56.26,42.66,54.8,42.66Z"/><path class="cls-8" d="M52.8,46a3.07,3.07,0,0,0-1.95.65,3.25,3.25,0,0,1,1.2-.22c1.29,0,2.33.69,2.33,1.55s-1,1.55-2.33,1.55a3.25,3.25,0,0,1-1.2-.23,3.07,3.07,0,0,0,1.95.65c1.47,0,2.65-.88,2.65-2S54.27,46,52.8,46Z"/><path class="cls-8" d="M54.57,49.22a3.17,3.17,0,0,0-2,.64,3.34,3.34,0,0,1,1.21-.22c1.29,0,2.33.69,2.33,1.55s-1,1.55-2.33,1.55a3.34,3.34,0,0,1-1.21-.22,3.17,3.17,0,0,0,2,.64c1.47,0,2.65-.88,2.65-2S56,49.22,54.57,49.22Z"/><path class="cls-8" d="M53,52.67a3.07,3.07,0,0,0-2,.65,3.25,3.25,0,0,1,1.2-.22c1.29,0,2.33.69,2.33,1.55s-1,1.55-2.33,1.55A3.06,3.06,0,0,1,51,56a3.07,3.07,0,0,0,2,.65c1.47,0,2.65-.88,2.65-2S54.42,52.67,53,52.67Z"/><path class="cls-10" d="M37.92,55.13l.88,2.58c5.47,3.56,9,2.85,10.38-4.25C50.05,49,47.09,49.8,37.92,55.13Z"/><path class="cls-11" d="M24.13,53.22a6.59,6.59,0,0,0-3.47-1.15c0,.27.47.24.57.92C21.23,53,22,52.52,24.13,53.22Z"/><ellipse class="cls-8" cx="27.76" cy="47.62" rx="2.36" ry="2.28"/><ellipse class="cls-12" cx="27.76" cy="47.62" rx="2.07" ry="2"/><path class="cls-13" d="M28.38,47.49a1.23,1.23,0,1,1-1.23-1.19A1.21,1.21,0,0,1,28.38,47.49Z"/><path class="cls-14" d="M27.29,47.24a.57.57,0,0,1-.58.55.56.56,0,1,1,0-1.11A.57.57,0,0,1,27.29,47.24Z"/><path class="cls-12" d="M28.14,47.07a.37.37,0,1,1-.37-.35A.37.37,0,0,1,28.14,47.07Z"/><path class="cls-12" d="M27.9,47.67a.24.24,0,0,1-.48,0,.24.24,0,0,1,.48,0Z"/><path class="cls-7" d="M49.28,51.65a6.7,6.7,0,0,1-6.81,6.53A6.91,6.91,0,0,1,38.55,57l.25.73c5.47,3.56,9,2.85,10.38-4.25A5.09,5.09,0,0,0,49.28,51.65Z"/><path class="cls-10" d="M34.93,46.72a7.81,7.81,0,0,1,.87,2.5,8.11,8.11,0,0,1-6.44,9.17,5.85,5.85,0,0,0,.72-.07,7.35,7.35,0,0,0,6.27-8.38A7.07,7.07,0,0,0,34.93,46.72Z"/><path class="cls-4" d="M77.51,39.91c-3.9-1.73-6.75-.15-9,1.7,5.18-2.92,8.12-1.28,7.55.25-.41,1.1,0,4.63.54,5.88,1.59,3.92,2.74,4.91,1.34,6.53-3.16,3.68-8.24.67-11.81-3.58a19.49,19.49,0,0,0,8.55,7.49C86.92,54.43,74.55,46.74,77.51,39.91Z"/></g></svg>