<svg id="Layer_1" data-name="Layer 1" xmlns="http://www.w3.org/2000/svg" viewBox="0 0 100 100"><defs><style>.cls-1{opacity:0.5;}.cls-2{fill:#ff0;stroke:#494949;stroke-miterlimit:10;}.cls-3{fill:#ffa63b;}.cls-4{fill:#36311b;}.cls-5{fill:#539300;}.cls-6{fill:#7cd61d;}</style></defs><g id="Butterfly_Icon" data-name="Butterfly Icon"><ellipse class="cls-1" cx="50.49" cy="51.91" rx="42.26" ry="40.84"/><ellipse class="cls-2" cx="49.51" cy="48.09" rx="42.26" ry="40.84"/><ellipse class="cls-3" cx="49.51" cy="48.09" rx="36.16" ry="34.95"/><path class="cls-4" d="M49.4,50.57l-1.69-.42,0,.07a37.93,37.93,0,0,1,.91,4.83,30.86,30.86,0,0,1,.13,6.4c0,.46-.31,2.85.86,2.37.72-.3.44-1.81.4-2.37a31.75,31.75,0,0,1,.14-6.4,37.93,37.93,0,0,1,.91-4.83l0-.07Z"/><path class="cls-5" d="M45.22,48a54.14,54.14,0,0,0-4.75,2.69c-2.25,1.42-4.79,3.06-5.57,5.71a6.16,6.16,0,0,0,2.68,6.83c3.26,2.22,7.11.51,8.39-5A44.43,44.43,0,0,0,47,47.62Z"/><path class="cls-6" d="M45,51a13,13,0,0,0-6.83,4c-2.22,2.72-1.91,4.77-.6,5.44,1.09.54,2-.84,2-.84s-.35,2.31,1.53,2.21c2.18-.12,2.61-3.59,2.9-5.75A30.89,30.89,0,0,1,45,51Z"/><path class="cls-5" d="M48.32,44.78a32.63,32.63,0,0,0-13.46-6.92c-8.65-2.21-12.93-1.14-14.85.88-1.5,1.57-1.65,4,1.34,6.66s5.28,6.62,10,7.43C36.57,53.71,48,48.18,48,48.18Z"/><path class="cls-6" d="M47.41,46s-6.57-4.91-12.5-6.71-9.45-1.45-11,.61-.48,4.5,1.82,5.58,3.41.83,3.41.83a2.87,2.87,0,0,0-.21,4.13c1.87,2,4.7,1.75,8.39-.78s5.93-3.41,7.48-3.56A18.13,18.13,0,0,1,47.41,46Z"/><path class="cls-4" d="M48.91,41.26c-.61-.55-1.32-.88-2-1.41a9.24,9.24,0,0,1-2.11-2.39A8.18,8.18,0,0,1,44,33.8a4.75,4.75,0,0,0-.26-1.94c-.22-.41-.58-.62-.82-.16-.4.77.46,1.45.89,2.27a20,20,0,0,0,.35,2.3A8,8,0,0,0,45.78,39a21.64,21.64,0,0,0,3,2.4A.08.08,0,0,0,48.91,41.26Z"/><path class="cls-5" d="M53.59,48a54,54,0,0,1,4.74,2.69c2.26,1.42,4.8,3.06,5.58,5.71a6.15,6.15,0,0,1-2.69,6.83c-3.25,2.22-7.1.51-8.38-5a44.43,44.43,0,0,1-1.07-10.58Z"/><path class="cls-6" d="M53.77,51a13,13,0,0,1,6.83,4c2.22,2.72,1.91,4.77.59,5.44-1.08.54-2-.84-2-.84s.36,2.31-1.52,2.21c-2.18-.12-2.61-3.59-2.9-5.75A30.89,30.89,0,0,0,53.77,51Z"/><path class="cls-5" d="M50.49,44.78A32.63,32.63,0,0,1,64,37.86c8.65-2.21,12.92-1.14,14.85.88,1.5,1.57,1.65,4-1.34,6.66s-5.28,6.62-10,7.43c-5.18.88-16.61-4.65-16.61-4.65Z"/><path class="cls-6" d="M51.4,46S58,41.11,63.89,39.31s9.46-1.45,11,.61.48,4.5-1.82,5.58-3.42.83-3.42.83a2.86,2.86,0,0,1,.22,4.13c-1.87,2-4.7,1.75-8.39-.78S55.56,46.27,54,46.12A18.14,18.14,0,0,0,51.4,46Z"/><path class="cls-4" d="M50,41.37A21.64,21.64,0,0,0,53,39a7.78,7.78,0,0,0,1.65-2.7A18,18,0,0,0,55,34c.43-.82,1.29-1.5.89-2.27-.24-.46-.6-.25-.82.16a4.75,4.75,0,0,0-.26,1.94A8.18,8.18,0,0,1,54,37.46a9.46,9.46,0,0,1-2.12,2.39c-.64.53-1.35.86-2,1.41C49.82,41.33,49.93,41.44,50,41.37Z"/><path class="cls-4" d="M51.82,45.84A4,4,0,0,0,49.58,43h-.35A4.07,4.07,0,0,0,47,45.84c-.45,1.83-.47,4.93,2.1,5.31a2.66,2.66,0,0,0,2.72-1.71A5.68,5.68,0,0,0,51.82,45.84Z"/><path class="cls-4" d="M50.94,41.83a1.68,1.68,0,0,0-3.07,0,1.6,1.6,0,1,0,3.07,0Z"/></g></svg>