<svg xmlns="http://www.w3.org/2000/svg" viewBox="0 0 100 100"><defs><style>.cls-1{isolation:isolate;}.cls-2{opacity:0.5;}.cls-3{fill:#ff0;stroke:#494949;stroke-miterlimit:10;}.cls-4{fill:#ffa63b;}.cls-5{fill:#efe8e4;}.cls-6{fill:#d35957;}.cls-7{fill:#f2aa86;}.cls-8{mix-blend-mode:multiply;}.cls-9{fill:#d8c4b8;}.cls-10{mix-blend-mode:overlay;}.cls-11{fill:#fff;}</style></defs><g class="cls-1"><g id="Layer_1" data-name="Layer 1"><g id="See_Shesl_Icon" data-name="See Shesl Icon"><ellipse class="cls-2" cx="50.49" cy="51.91" rx="42.26" ry="40.84"/><ellipse class="cls-3" cx="49.51" cy="48.09" rx="42.26" ry="40.84"/><ellipse class="cls-4" cx="49.51" cy="48.09" rx="36.16" ry="34.95"/><path class="cls-5" d="M44,23.5a5.75,5.75,0,0,1-2.19,0,3.78,3.78,0,0,0-1.71,0,3.4,3.4,0,0,0-1.19,1.2,5.35,5.35,0,0,1-1.48,1.52,5.88,5.88,0,0,1-2.09.6,3.89,3.89,0,0,0-1.65.48,3.45,3.45,0,0,0-.76,1.47,5.21,5.21,0,0,1-1,1.89,5.36,5.36,0,0,1-1.83,1.15,3.68,3.68,0,0,0-1.43.92,3.39,3.39,0,0,0-.3,1.6A5,5,0,0,1,28,36.37,5.12,5.12,0,0,1,26.57,38a3.56,3.56,0,0,0-1.12,1.26,1.48,1.48,0,0,0,0,.58,7.72,7.72,0,0,0,.2,1,7.51,7.51,0,0,1,.25,1.27,3,3,0,0,1,0,.85,4.9,4.9,0,0,1-.94,1.88,3.4,3.4,0,0,0-.74,1.51.53.53,0,0,0,0,.12h0a3.79,3.79,0,0,0,.59,1.38,5.38,5.38,0,0,1,.79,2,5.29,5.29,0,0,1-.41,2.11,3.93,3.93,0,0,0-.33,1.45.51.51,0,0,0,0,.13,3.38,3.38,0,0,0,1,1.35,5.27,5.27,0,0,1,1.27,1.7,3.46,3.46,0,0,1,.18.84,7.68,7.68,0,0,1,0,1.27,7.44,7.44,0,0,0,0,1,1.58,1.58,0,0,0,.14.57,3.64,3.64,0,0,0,1.34,1.05,5.34,5.34,0,0,1,1.7,1.31,5.21,5.21,0,0,1,.75,2,3.36,3.36,0,0,0,.59,1.53,3.8,3.8,0,0,0,1.58.66,5.33,5.33,0,0,1,2,.82,5.25,5.25,0,0,1,1.3,1.69,3.49,3.49,0,0,0,1,1.32,3.72,3.72,0,0,0,1.71.19,5.76,5.76,0,0,1,2.17.24,5.46,5.46,0,0,1,1.73,1.24,3.7,3.7,0,0,0,1.4,1A3.77,3.77,0,0,0,46.34,73a6,6,0,0,1,2.15-.41,9.92,9.92,0,0,1,1.72.31,6,6,0,0,0,1.92.27c2.66-.23,9.39-1.58,14.3-9.1,3.24-4.94,8.62-14.4,8.25-18.47-.35-3.76-3.11-6.87-8.11-12.51-1-1.13-2.14-2.41-3.36-3.82-2.89-3.32-7.67-7.66-15.77-7a6.45,6.45,0,0,0-1.84.59A9.58,9.58,0,0,1,44,23.5Z"/><path class="cls-6" d="M38.42,47.3a4.32,4.32,0,0,1-.53-1,.61.61,0,0,1,0-.16c0-.05,0-.11,0-.18a2.23,2.23,0,0,1,.28-.43c.22-.31.49-.61.73-1a2.83,2.83,0,0,0,.31-.6,1.92,1.92,0,0,0,.11-.71A4.71,4.71,0,0,0,39.12,42c0-.19-.09-.36-.12-.53a1.21,1.21,0,0,1,0-.42.81.81,0,0,1,.23-.32,4.94,4.94,0,0,1,.41-.34c.3-.23.63-.46.94-.74a4,4,0,0,0,.44-.47,2.28,2.28,0,0,0,.31-.6,4.36,4.36,0,0,0,.2-1.19,3,3,0,0,1,.14-1,.54.54,0,0,1,.23-.27,2.19,2.19,0,0,1,.43-.24c.31-.15.66-.28,1-.44a4,4,0,0,0,1-.61,3,3,0,0,0,.72-1c.16-.34.28-.68.42-1a1.26,1.26,0,0,1,.48-.65,3.13,3.13,0,0,1,.89-.23c.34-.06.69-.1,1-.17A4.35,4.35,0,0,0,49,31.57a3.69,3.69,0,0,0,.87-.66c.25-.25.46-.51.66-.75a2.73,2.73,0,0,1,.63-.57,1.34,1.34,0,0,1,.75-.12c.3,0,.6.05.92.08a7.52,7.52,0,0,0,1,.05,3.5,3.5,0,0,0,1-.14c.61-.16,1.15-.41,1.67-.6a3.72,3.72,0,0,1,.77-.22,6.45,6.45,0,0,1,.79-.07,16.49,16.49,0,0,1,3.08.06,11.87,11.87,0,0,1,1.39.22l.49.11-.53-.58c-.42-.1-.85-.16-1.29-.23A18.28,18.28,0,0,0,57.93,28c-.28,0-.55,0-.86.06a4.84,4.84,0,0,0-.87.24c-.56.19-1.08.42-1.63.56a4.19,4.19,0,0,1-1.7.05c-.31,0-.62-.08-1-.1a4.78,4.78,0,0,0-.53,0,1.51,1.51,0,0,0-.58.18,3.69,3.69,0,0,0-.8.7c-.22.25-.42.49-.63.71a3,3,0,0,1-.71.53,3.48,3.48,0,0,1-.88.27c-.32.06-.66.1-1,.15a3.71,3.71,0,0,0-1.12.31,1.29,1.29,0,0,0-.5.45,2.65,2.65,0,0,0-.29.51c-.16.34-.27.66-.42,1a2.17,2.17,0,0,1-.55.74,3.34,3.34,0,0,1-.85.5c-.32.14-.67.27-1,.44a3,3,0,0,0-.55.3,1.5,1.5,0,0,0-.27.24,1.31,1.31,0,0,0-.21.33,3.67,3.67,0,0,0-.2,1.2,3.88,3.88,0,0,1-.16,1c-.19.57-.82,1-1.45,1.46a4.44,4.44,0,0,0-.49.41,1.54,1.54,0,0,0-.42.63,1.8,1.8,0,0,0,0,.73c0,.21.09.41.14.6a4.75,4.75,0,0,1,.19,1.06,1.33,1.33,0,0,1-.07.45,2.4,2.4,0,0,1-.23.45c-.2.31-.46.6-.71.94a2.57,2.57,0,0,0-.36.59,1.38,1.38,0,0,0-.11.39,1,1,0,0,0,0,.43,4.67,4.67,0,0,0,.62,1.16,2.69,2.69,0,0,1,.44,1,2,2,0,0,1-.15,1c-.13.36-.32.73-.44,1.17a2,2,0,0,0,0,.37,1.09,1.09,0,0,0,.06.43,1.87,1.87,0,0,0,.42.63c.31.32.63.56.9.82a2.11,2.11,0,0,1,.58.81,2.61,2.61,0,0,1,.07,1,5.21,5.21,0,0,0,0,1.25,1,1,0,0,0,.14.38,1.19,1.19,0,0,0,.25.32,4.27,4.27,0,0,0,.56.38c.36.2.72.35,1,.53a2.47,2.47,0,0,1,.78.61,2.64,2.64,0,0,1,.39.9,8.93,8.93,0,0,0,.33,1.11,1.4,1.4,0,0,0,.44.58,2.34,2.34,0,0,0,.62.3,10.64,10.64,0,0,0,1.12.27,5,5,0,0,1,1,.3,1.91,1.91,0,0,1,.73.56,6.74,6.74,0,0,1,.58.83,2.91,2.91,0,0,0,.79.88,1.7,1.7,0,0,0,.63.22c.2,0,.39,0,.58,0,.37,0,.71,0,1,0a4.88,4.88,0,0,1,1,.07,2.25,2.25,0,0,1,.81.32c.53.31,1,.79,1.59,1.15a2,2,0,0,0,.56.19,2.15,2.15,0,0,0,.57,0,6.41,6.41,0,0,0,1-.24,5.61,5.61,0,0,1,1.69-.33,11.13,11.13,0,0,1,1.69.25,7.93,7.93,0,0,0,.87.12,4.2,4.2,0,0,0,.88,0,17.28,17.28,0,0,0,5.07-1.42l.21-.31.25-.37h0a17.08,17.08,0,0,1-5.57,1.56c-1,.18-2.08-.32-3.36-.38a6.15,6.15,0,0,0-1.89.34,7.7,7.7,0,0,1-.87.2,1,1,0,0,1-.72-.12c-.49-.27-.94-.77-1.55-1.14a3,3,0,0,0-1-.42,5.12,5.12,0,0,0-1.09-.09l-1,0a1.72,1.72,0,0,1-.83-.16,2.24,2.24,0,0,1-.58-.68,8.6,8.6,0,0,0-.62-.9,2.78,2.78,0,0,0-1-.75,6.42,6.42,0,0,0-1.13-.36,10.07,10.07,0,0,1-1.05-.26A1.42,1.42,0,0,1,44,60.4a.72.72,0,0,1-.21-.3,8.67,8.67,0,0,0-.8-2.16,3.2,3.2,0,0,0-1-.81c-.36-.2-.72-.36-1-.54a2.42,2.42,0,0,1-.41-.28.42.42,0,0,1-.17-.3,4.79,4.79,0,0,1,0-1.06,3.22,3.22,0,0,0-.1-1.29,2.77,2.77,0,0,0-.77-1.12c-.31-.29-.63-.54-.88-.8a1.26,1.26,0,0,1-.26-.37.69.69,0,0,1,0-.37c.08-.33.26-.69.41-1.1A2.76,2.76,0,0,0,39,48.53,3.47,3.47,0,0,0,38.42,47.3Z"/><path class="cls-7" d="M59.49,25.74c-.35-.27-.72-.53-1.1-.78a20.62,20.62,0,0,0-5.52-.44,7.45,7.45,0,0,0-1,.08,5.56,5.56,0,0,0-1,.32,12.49,12.49,0,0,1-1.85.67,5.36,5.36,0,0,1-2-.07,6.3,6.3,0,0,0-1.18-.07,1.58,1.58,0,0,0-.67.21,3,3,0,0,0-.51.4,21.25,21.25,0,0,1-1.44,1.66,3.56,3.56,0,0,1-2,.7,9,9,0,0,0-1.24.24,1.76,1.76,0,0,0-.67.36,2,2,0,0,0-.45.59c-.2.4-.32.79-.46,1.15a4.07,4.07,0,0,1-.5,1A4.49,4.49,0,0,1,36,33c-.2.09-.41.19-.62.31a2.28,2.28,0,0,0-.61.5,1.79,1.79,0,0,0-.32.75,4.3,4.3,0,0,0-.08.69,3.68,3.68,0,0,1-.52,2.24,5.59,5.59,0,0,1-.89.85,6.07,6.07,0,0,0-1.05,1,1.51,1.51,0,0,0-.21.4,1.26,1.26,0,0,0-.08.45,2.93,2.93,0,0,0,.08.75c.09.48.22.89.28,1.3a4.28,4.28,0,0,1,.05.6,1.71,1.71,0,0,1-.1.54,4.87,4.87,0,0,1-.63,1.08,5.39,5.39,0,0,0-.77,1.31,1.65,1.65,0,0,0-.08.47,1.51,1.51,0,0,0,.08.45,4.33,4.33,0,0,0,.31.72,3.87,3.87,0,0,1,.85,2.35A6,6,0,0,1,31.33,51c-.08.22-.16.45-.23.7a2,2,0,0,0-.06.87,1.94,1.94,0,0,0,.4.8,5.52,5.52,0,0,0,.51.55,9.94,9.94,0,0,1,.91,1,2,2,0,0,1,.4,1.06,9.41,9.41,0,0,1,0,1.29,5.92,5.92,0,0,0,0,.73,1.71,1.71,0,0,0,.24.83,2.17,2.17,0,0,0,.6.58,6.1,6.1,0,0,0,.62.38,8.66,8.66,0,0,1,1.1.68,2,2,0,0,1,.69.86,6.42,6.42,0,0,1,.35,1.17,3.94,3.94,0,0,0,.5,1.35,1.94,1.94,0,0,0,.32.32,2.57,2.57,0,0,0,.35.2,5.71,5.71,0,0,0,.68.25c.44.12.86.2,1.24.33a2.78,2.78,0,0,1,1,.49,3.33,3.33,0,0,1,.7.86c.21.33.4.7.66,1.06a2.35,2.35,0,0,0,.48.53,1.42,1.42,0,0,0,.36.21,1.4,1.4,0,0,0,.37.11,5.94,5.94,0,0,0,1.31.06,8.7,8.7,0,0,1,1.15,0,2.39,2.39,0,0,1,1,.29,5,5,0,0,1,.86.63c.28.25.56.51.89.76a2.84,2.84,0,0,0,.57.33,1.79,1.79,0,0,0,.71.11,5.3,5.3,0,0,0,1.17-.27c.36-.11.69-.23,1-.3a3.22,3.22,0,0,1,1-.11,8.56,8.56,0,0,1,1,.14,9.82,9.82,0,0,0,2.08.35h.28l.25,0c.16,0,.33,0,.49-.06.33,0,.65-.08,1-.14A26.68,26.68,0,0,0,62.06,69c.34-.29.69-.59,1-.91a26.74,26.74,0,0,1-5,1.24c-.31.05-.63.09-.94.12l-.49,0-.24,0h-.22a9.76,9.76,0,0,1-1.93-.35A6.36,6.36,0,0,0,53.14,69a3.79,3.79,0,0,0-1.17.11c-.37.08-.73.2-1.07.3a3.86,3.86,0,0,1-1,.22.73.73,0,0,1-.39-.06,2.22,2.22,0,0,1-.4-.24c-.27-.2-.53-.46-.82-.72a5.44,5.44,0,0,0-1-.74A3.23,3.23,0,0,0,46,67.51a10.81,10.81,0,0,0-1.26,0,5,5,0,0,1-1.12,0,.77.77,0,0,1-.39-.16,1.71,1.71,0,0,1-.32-.37c-.21-.3-.4-.66-.62-1a4.46,4.46,0,0,0-.87-1.06,3.7,3.7,0,0,0-1.26-.65c-.44-.14-.87-.23-1.27-.35a1.71,1.71,0,0,1-.89-.45,3.2,3.2,0,0,1-.36-1.06A8.12,8.12,0,0,0,37.29,61a3,3,0,0,0-.95-1.19,9.74,9.74,0,0,0-1.2-.74,2.83,2.83,0,0,1-.91-.69.92.92,0,0,1-.11-.45,4.27,4.27,0,0,1,0-.62,9.34,9.34,0,0,0,0-1.41A2.67,2.67,0,0,0,34,55.1a3.16,3.16,0,0,0-.39-.7,9.42,9.42,0,0,0-1-1.07,2.34,2.34,0,0,1-.68-.91,1.43,1.43,0,0,1,.06-.51,6.46,6.46,0,0,1,.2-.63,7.37,7.37,0,0,0,.4-1.44,2.51,2.51,0,0,0,0-.82,3.65,3.65,0,0,0-.24-.77c-.21-.47-.48-.88-.69-1.26a3.34,3.34,0,0,1-.25-.56.63.63,0,0,1,0-.43A4.37,4.37,0,0,1,32,44.93a5.23,5.23,0,0,0,.73-1.3,2.36,2.36,0,0,0,.15-.79,3.68,3.68,0,0,0-.06-.75c-.07-.47-.21-.92-.29-1.32a3.25,3.25,0,0,1-.07-.58.56.56,0,0,1,0-.2,1,1,0,0,1,.11-.19,5.19,5.19,0,0,1,.89-.84,6.37,6.37,0,0,0,1-1,3.14,3.14,0,0,0,.38-.67,3.64,3.64,0,0,0,.19-.7c.07-.47.07-.92.1-1.33a1.82,1.82,0,0,1,.22-1,2.8,2.8,0,0,1,.92-.58c.37-.17.78-.34,1.18-.57a3.13,3.13,0,0,0,1.06-.93,13.62,13.62,0,0,0,1-2.25,1.26,1.26,0,0,1,.26-.37,1.1,1.1,0,0,1,.39-.2,6.94,6.94,0,0,1,1.12-.22,8,8,0,0,0,1.21-.26,3.2,3.2,0,0,0,1.14-.64,18.86,18.86,0,0,0,1.48-1.72,1.54,1.54,0,0,1,.35-.29,1,1,0,0,1,.37-.11,4.36,4.36,0,0,1,1,.06,6.22,6.22,0,0,0,2.24,0,13,13,0,0,0,1.95-.74,6.82,6.82,0,0,1,.87-.29,6.43,6.43,0,0,1,.92-.08A20.35,20.35,0,0,1,59.49,25.74Z"/><g class="cls-8"><path class="cls-9" d="M35.35,67.66a3.88,3.88,0,0,1,.91,1C47.58,62,67,50.34,72.77,46.67l-.87.39c-7,3.6-26.08,13.89-37.5,20.09A3.49,3.49,0,0,1,35.35,67.66Z"/><path class="cls-9" d="M72.39,46.12l-.22,0c-7.58,1.42-31.6,6.5-45.64,9.49a3.55,3.55,0,0,1,.56.93,3.46,3.46,0,0,1,.18.84,5.06,5.06,0,0,1,0,.55c13.47-3.45,36.32-9.34,44.31-11.57Z"/><path class="cls-9" d="M73.47,47.87,47.82,72.63a3.76,3.76,0,0,1,.67,0,9.92,9.92,0,0,1,1.72.31,6.23,6.23,0,0,0,1.9.27C57.62,66.75,69.9,52.34,73.47,47.87Z"/><path class="cls-9" d="M74,48.53c-2.56,3.22-12.44,17-17,23.51a18.87,18.87,0,0,0,4.46-2.48C65.94,62.09,72.34,51.52,74,48.53Z"/><path class="cls-9" d="M45.6,22.9a9.58,9.58,0,0,1-1.63.6,3.73,3.73,0,0,1-.67.09l29.88,20C68.84,39.8,54.05,27.71,47.43,22.31A6.39,6.39,0,0,0,45.6,22.9Z"/><path class="cls-9" d="M52.24,22.51C57.9,28,70.3,40.1,73.42,42.85,71.28,40.16,63,30.78,57.11,24.2A16.36,16.36,0,0,0,52.24,22.51Z"/><path class="cls-9" d="M25.86,42.09a3,3,0,0,1,0,.85,3.36,3.36,0,0,1-.37,1c14.33.55,38.83,1.44,46.61,1.55h.25l-.81-.13c-8.28-.82-31.85-2.73-45.73-3.82C25.81,41.72,25.84,41.9,25.86,42.09Z"/><path class="cls-9" d="M32.64,29.44a3.68,3.68,0,0,1-.7,1.17,3.41,3.41,0,0,1-.85.66c12.38,4.15,33.05,11,40.59,13.37l.92.23C66.25,42.26,45,34.14,32.64,29.44Z"/></g><g class="cls-10"><path class="cls-11" d="M41.09,46.16c0,.23,1.52.53,3.45.5S48,46.29,48,46.05s-1.56-.28-3.45-.25S41.1,45.92,41.09,46.16Z"/><path class="cls-11" d="M45.34,50.39c0-.23-1-.38-2.18-.16s-2,.68-2,.9,1,.14,2.14-.06S45.36,50.63,45.34,50.39Z"/><path class="cls-11" d="M46.54,50.37c.08.23,1.67-.07,3.61-.43s3.52-.67,3.51-.91S52,48.71,50,49.09,46.46,50.15,46.54,50.37Z"/><path class="cls-11" d="M44.26,54.39c-.79.29-1.36.7-1.27.92s.79.17,1.58-.11,1.35-.69,1.27-.91S45.05,54.11,44.26,54.39Z"/><path class="cls-11" d="M49.86,52.91c-.1-.22-.74-.17-1.43.1s-1.19.69-1.09.91.73.17,1.43-.11S50,53.13,49.86,52.91Z"/><path class="cls-11" d="M51.73,52.64c0,.23,1.22.27,2.59-.14s2.32-1.09,2.21-1.3-1.19.09-2.48.47S51.7,52.4,51.73,52.64Z"/><path class="cls-11" d="M46.74,59.29c.13.2,1.84-.63,3.82-1.84S54,55.08,53.9,54.88s-1.84.63-3.82,1.84S46.61,59.09,46.74,59.29Z"/><path class="cls-11" d="M49.75,62.52c.19.16,1.07-.48,2.11-1.28s1.89-1.5,1.76-1.71-1.21.18-2.31,1S49.57,62.36,49.75,62.52Z"/><path class="cls-11" d="M41.94,41.56c-.06.22.92.68,2.23.9s2.39.11,2.41-.12-1-.51-2.26-.73S42,41.32,41.94,41.56Z"/><path class="cls-11" d="M48.78,42.55c-.05.23,1,.65,2.38.84s2.52.07,2.53-.17-1.06-.5-2.4-.68S48.84,42.31,48.78,42.55Z"/><path class="cls-11" d="M44.59,37.47c-.09.22,1.75,1.13,4.18,1.81s4.49.87,4.53.64-1.9-.79-4.28-1.46S44.68,37.25,44.59,37.47Z"/><path class="cls-11" d="M51.33,35.93c2.15,1.09,4,1.69,4.13,1.48s-1.59-1.17-3.72-2.25-3.91-1.87-4-1.66S49.17,34.84,51.33,35.93Z"/></g></g></g></g></svg>