<svg id="Layer_1" data-name="Layer 1" xmlns="http://www.w3.org/2000/svg" viewBox="0 0 100 100"><defs><style>.cls-1{opacity:0.5;}.cls-2{fill:#ff0;stroke:#494949;stroke-miterlimit:10;}.cls-3{fill:#ffa63b;}.cls-4{fill:none;}.cls-5{fill:#a531a8;}.cls-6{fill:#c03de0;}.cls-7{fill:#9e17bf;}.cls-8{fill:#d338f9;}.cls-9{fill:#303030;}</style></defs><g id="Bucket_Icon" data-name="Bucket Icon"><ellipse class="cls-1" cx="50.49" cy="51.91" rx="42.26" ry="40.84"/><ellipse class="cls-2" cx="49.51" cy="48.09" rx="42.26" ry="40.84"/><ellipse class="cls-3" cx="49.51" cy="48.09" rx="36.16" ry="34.95"/><path class="cls-4" d="M60.85,69.42c.18-.74.39-2.31.61-4.25C61.24,66.71,61,68.15,60.85,69.42Z"/><path class="cls-5" d="M30.8,34.47a106,106,0,0,0,18.48,1.64c5.68,0,14.77-.41,14.31,3.33-.1.76-1.46,20-2.13,25.73-.22,1.94-.43,3.51-.61,4.25l-.08.32C60.11,71.52,59,72.57,48.89,73c0,.18,0,.34,0,.49h.4a76.09,76.09,0,0,0,10.4-.82,5.7,5.7,0,0,1,.77-.11c1.27-.19,2.14-.35,2.41-.42a2.18,2.18,0,0,0,1.86-1.79C64.84,69.22,67,45.44,67,45.44l.86-7.58.39-3.44a180.57,180.57,0,0,1-19,.83A180.17,180.17,0,0,1,30.8,34.47Z"/><path class="cls-6" d="M30.37,34.42c.67,7.23,3.25,34.92,3.34,35.91s.83,1.51,1.86,1.79a71.88,71.88,0,0,0,13.31,1.34c0-.15,0-.31,0-.49,10.11-.4,11.22-1.45,11.88-3.23l.08-.32c.18-.74.39-2.31.61-4.25.67-5.72,2-25,2.13-25.73.46-3.74-8.63-3.33-14.31-3.33A106,106,0,0,1,30.8,34.47h0Z"/><path class="cls-7" d="M70,29.87c-.19-1.12-.78-1.8-1.73-1.8,0,0-6.35.53-19,.53s-18.89-.53-18.89-.53c-.95,0-1.38.68-1.73,1.8l-.58,2.69a1.77,1.77,0,0,0,1.74,1.79l.55.07.43,0h0a180.17,180.17,0,0,0,18.4.78,180.57,180.57,0,0,0,19-.83l.59-.07a1.76,1.76,0,0,0,1.73-1.79Z"/><path class="cls-8" d="M30.64,29.05a107.8,107.8,0,0,0,17.17.89c-4.33.45-7.27.3-16.55-.22-1.09-.06-2.17,2.84-2.17,2.84S29.91,29,30.64,29.05Z"/><path class="cls-9" d="M65.68,46.37c-5.4,0-13.31-6.92-17.46-13.57l1.76-1a36.92,36.92,0,0,0,7.88,8.82c3.12,2.51,6,3.89,8,3.78a2.81,2.81,0,0,0,2.55-1.83,5.74,5.74,0,0,0-.82-5L68,34.82c.22.3,1.12,1.74,1.31,2,1.42,2.34,1.83,4.82,1,6.51a4.87,4.87,0,0,1-4.31,3Z"/><ellipse class="cls-9" cx="49.36" cy="31.71" rx="2.18" ry="2.11"/></g></svg>