<svg id="Layer_1" data-name="Layer 1" xmlns="http://www.w3.org/2000/svg" xmlns:xlink="http://www.w3.org/1999/xlink" viewBox="0 0 100 100"><defs><style>.cls-1{opacity:0.5;}.cls-2{fill:#ff0;stroke:#494949;stroke-miterlimit:10;}.cls-3{fill:#ffa63b;}.cls-4{fill:#2543f4;}.cls-5{fill:url(#linear-gradient);}.cls-6{fill:#6d4315;}.cls-7{fill:#2b20c4;}.cls-8{opacity:0.2;}</style><linearGradient id="linear-gradient" x1="35.72" y1="56.61" x2="37.79" y2="56.61" gradientUnits="userSpaceOnUse"><stop offset="0" stop-color="#ad3939"/><stop offset="0.2" stop-color="#690d0d"/><stop offset="0.79" stop-color="#e64f4f"/><stop offset="1" stop-color="#610f0f"/></linearGradient></defs><g id="Flag_Icon" data-name="Flag Icon"><ellipse class="cls-1" cx="50.5" cy="51.93" rx="42.25" ry="40.82"/><ellipse class="cls-2" cx="49.5" cy="48.07" rx="42.25" ry="40.82"/><ellipse class="cls-3" cx="49.5" cy="48.07" rx="36.16" ry="34.93"/><g id="_1_Flag" data-name="1 Flag"><path class="cls-4" d="M36.76,25.59C51,41,65.31,25.34,79.59,40.78,65.31,35.51,51,61.38,36.76,56.11Z"/><path class="cls-5" d="M35.72,56.61c0-.17.46-.31,1-.31s1,.14,1,.31-.46.31-1,.31S35.72,56.78,35.72,56.61Z"/><path class="cls-6" d="M37.6,24.52V71.91a.81.81,0,0,1-.84.76.91.91,0,0,1-.6-.23.71.71,0,0,1-.25-.53V24.52a.81.81,0,0,1,.85-.76.86.86,0,0,1,.59.22A.71.71,0,0,1,37.6,24.52Z"/><path class="cls-7" d="M37.79,26.09c0-.16-.46-.29-1-.29s-1,.13-1,.29h0V56.61c0-.16.47-.29,1-.29s1,.13,1,.29V26.09Z"/><path class="cls-8" d="M37.6,25.79v.13a2.27,2.27,0,0,0-.84-.13,2.37,2.37,0,0,0-.85.13v-.13a2.65,2.65,0,0,1,.85-.12A2.54,2.54,0,0,1,37.6,25.79Z"/><path class="cls-8" d="M37.6,56.42v.13a2.27,2.27,0,0,0-.84-.13,2.37,2.37,0,0,0-.85.13v-.13a2.65,2.65,0,0,1,.85-.12A2.54,2.54,0,0,1,37.6,56.42Z"/></g></g></svg>