<svg id="Layer_1" data-name="Layer 1" xmlns="http://www.w3.org/2000/svg" viewBox="0 0 100 100"><defs><style>.cls-1{opacity:0.5;}.cls-2{fill:#ff0;stroke:#494949;stroke-miterlimit:10;}.cls-3{fill:#ffa63b;}.cls-4{fill:#ff440b;}.cls-5{fill:#eadfc7;}.cls-6{fill:#ff603b;}.cls-7{fill:#8c7c72;}.cls-8{fill:#fff3d4;}.cls-9{fill:#6d615a;}.cls-10{fill:#fff;opacity:0.35;}.cls-11{fill:#e0340b;}.cls-12{fill:#eadfc5;}.cls-13{fill:#dbc8af;}.cls-14{fill:#e55438;}</style></defs><g id="Hot_Air_Bolloon_Icon" data-name="Hot Air Bolloon Icon"><ellipse class="cls-1" cx="50.5" cy="52.43" rx="42.25" ry="40.82"/><ellipse class="cls-2" cx="49.5" cy="48.57" rx="42.25" ry="40.82"/><ellipse class="cls-3" cx="49.5" cy="48.57" rx="36.16" ry="34.93"/><path class="cls-4" d="M49.55,63.82h4.22s12-13,14.16-19.56c1.87-5.66,1.09-12.57-3.8-16.68-5.75-4.84-14.74-4.76-14.74-4.76Z"/><path class="cls-5" d="M49.39,22.81s7.34.33,11.66,4.39c4.58,4.3,4.49,7.16,4.37,11.18C65.1,49,53.14,63.81,53.14,63.81H49.55Z"/><path class="cls-6" d="M49.39,22.81a16.75,16.75,0,0,1,7.37,3.9C60.51,30.1,61.2,35.94,60.45,41c-1,6.57-8.25,22.77-8.25,22.77H49.55Z"/><polygon class="cls-7" points="54.02 63.82 51.64 66.87 52.19 69.45 51.85 69.45 51.32 66.88 53.61 63.83 54.02 63.82"/><path class="cls-4" d="M49.36,63.82H45.14s-12-13-14.24-19.5c-1.89-5.66-1.14-12.57,3.73-16.7,5.74-4.86,14.73-4.81,14.73-4.81Z"/><path class="cls-5" d="M49.36,22.81s-7.34.35-11.65,4.44c-4.56,4.31-4.46,7.17-4.32,11.19.36,10.61,12.37,25.38,12.37,25.38h3.6Z"/><path class="cls-6" d="M49.36,22.81A16.87,16.87,0,0,0,42,26.73c-3.74,3.41-4.4,9.25-3.63,14.35,1,6.57,8.33,22.74,8.33,22.74h2.66Z"/><path class="cls-8" d="M53.29,27.23a10.21,10.21,0,0,0-3.93-4.42h0a10.14,10.14,0,0,0-3.92,4.44C44.28,30,43.68,34,44.28,40.62s4.07,23.2,4.07,23.2h2.24S54,47.23,54.52,40.59,54.47,30,53.29,27.23Z"/><rect class="cls-7" x="44.89" y="63.55" width="9.13" height="0.27"/><path class="cls-7" d="M49.57,74.38h0c-.82,0-1.6,0-2.08-.52a3.64,3.64,0,0,1-.56-2V69.41H52.2v2.42a2.92,2.92,0,0,1-.52,2.09A3.33,3.33,0,0,1,49.57,74.38Z"/><path class="cls-9" d="M51.66,69.41v4a.55.55,0,0,1-.55.54l-4.13,0v0a.54.54,0,0,0,.52.4h4.15a.55.55,0,0,0,.56-.54V69.41Z"/><path class="cls-9" d="M47.49,69.41v4a.55.55,0,0,0,.56.54l4.13-.06v0a.56.56,0,0,1-.53.41H47.51a.55.55,0,0,1-.56-.54V69.41Z"/><polygon class="cls-7" points="44.89 63.82 47.32 66.84 46.93 69.41 47.28 69.41 47.65 66.84 45.3 63.82 44.89 63.82"/><polygon class="cls-7" points="47.32 66.84 51.64 66.87 51.74 67.34 47.24 67.34 47.32 66.84"/><path class="cls-10" d="M45.89,36.76a2.41,2.41,0,0,0,.44,1.1,1,1,0,0,0,1.09.34A1.35,1.35,0,0,0,48,37.06c.41-3.2-.18-6.6,1.15-9.56.29-.64.67-1.35.39-2-.44-1-1.57-.71-2,0A12.5,12.5,0,0,0,46.18,29,17.05,17.05,0,0,0,45.89,36.76Z"/><path class="cls-10" d="M39.81,35.21a1.13,1.13,0,0,0,.5,1,.83.83,0,0,0,.85-.18,1.67,1.67,0,0,0,.45-.77c.66-2,0-4.31,1-6.15.65-1.21,2.11-2,2.52-3.35-1.58-.79-3.36,2.34-3.93,3.39A10.94,10.94,0,0,0,39.81,35.21Z"/><path class="cls-10" d="M34.84,33.08a3.07,3.07,0,0,0-.17,2.59.82.82,0,0,0,.4.4c.41.15.83-.22,1-.6A7.88,7.88,0,0,0,36.67,33a9,9,0,0,1,2.49-4.79,5.76,5.76,0,0,0,1.52-1.87c0-.13-.86,0-1,0s-.36.38-.54.56a25.34,25.34,0,0,0-1.76,1.83A16.66,16.66,0,0,0,34.84,33.08Z"/><path class="cls-10" d="M31.56,33.93a2.64,2.64,0,0,0-.08,2,.63.63,0,0,0,.27.31c.35.15.68-.24.81-.58a17.82,17.82,0,0,0,.53-2.75,13,13,0,0,1,3-5.17c.07-.09-.69,0-.78.06s-.33.4-.45.55A18.28,18.28,0,0,0,33.5,30,15.25,15.25,0,0,0,31.56,33.93Z"/><path class="cls-11" d="M68.16,44a26.79,26.79,0,0,0,.7-5.6A10.07,10.07,0,0,1,68.27,41a36.41,36.41,0,0,1-5,9.79,35.93,35.93,0,0,1-4.12,4.85C57.4,57.36,55.43,59,53.63,60.7c-.81.78-1.64,1.79-1.49,2.85H54S66,50.54,68.16,44Z"/><path class="cls-12" d="M49.81,63.54h.85S54,47,54.6,40.32c.12-1.44.19-2.75.21-4-.59.94-.54,2.74-.71,3.73-.28,1.55-.58,3.1-1,4.63-.45,1.9-1,3.76-1.4,5.67-.31,1.48-.52,3-.73,4.47C50.62,57.75,50.21,60.65,49.81,63.54Z"/><path class="cls-13" d="M53.34,63.54S65,48.67,65.45,38.06A33.73,33.73,0,0,0,64.16,42c-.43,1.46-1.21,2.51-1.76,3.94-1.34,3.5-2.56,5.24-5.31,9.74-1.53,2.51-3.91,4.89-4.7,7.7a1.29,1.29,0,0,0,0,.21Z"/><path class="cls-14" d="M52.32,63.54s7.28-16.19,8.24-22.77a25.36,25.36,0,0,0,.12-4.45c-.4.53-.34,2.17-.44,2.64q-.66,3-1.51,5.94a92.69,92.69,0,0,1-4.25,11.68Q53,59.84,51.36,63a2.33,2.33,0,0,0-.22.56Z"/></g></svg>