<svg id="Layer_1" data-name="Layer 1" xmlns="http://www.w3.org/2000/svg" viewBox="0 0 100 100"><defs><style>.cls-1{opacity:0.5;}.cls-2{fill:#ff0;stroke:#494949;stroke-miterlimit:10;}.cls-3{fill:#ffa63b;}.cls-4{fill:#c9631f;}.cls-5{fill:#ffeb99;}.cls-6{fill:#c1a83e;}.cls-7{fill:#93833e;}</style></defs><g id="Mushroom_Icon" data-name="Mushroom Icon"><ellipse class="cls-1" cx="50.49" cy="51.91" rx="42.26" ry="40.84"/><ellipse class="cls-2" cx="49.51" cy="48.09" rx="42.26" ry="40.84"/><ellipse class="cls-3" cx="49.51" cy="48.09" rx="36.16" ry="34.95"/><path class="cls-4" d="M71.3,52.69l-.07,0a2.4,2.4,0,0,1-1.31.18,3.42,3.42,0,0,0,2.21-1.62c1.46-2.47,0-6.37-1.59-8.34-2.51-3.24-6.09-4.84-10.81-4.84a32.55,32.55,0,0,0-9.19,1.55c-1.43.43-2.89.86-4.3,1.26-3,.86-6,1.74-9,2.74-.71.24-1.46.47-2.25.71-3,.93-6.39,2-8.63,3.84a2.68,2.68,0,0,0-1.2,2.71,3.64,3.64,0,0,0,3.05,2.18h.09l-.12.15a7,7,0,0,1-.79,0c-1.83-.1-4-.67-4.64-2.44-.72-2,.95-4.13,2.16-5.59,2.49-3,4.93-6,7.3-9.16,2-2.67,4.49-5.46,5.87-8.51,1.31-2.87,1.41-5,5-6a21.2,21.2,0,0,1,19.31,4C68.16,30.25,84.2,47.13,71.3,52.69Z"/><path class="cls-5" d="M70.69,42.82c-4.94-6.34-13.27-5.42-20.2-3.34-4.43,1.33-8.88,2.52-13.27,4-3.47,1.18-8.09,2.22-10.93,4.59-2.64,2.2-1.05,4.63,1.93,5.18,3.91.73,8,0,11.77-.86a46.92,46.92,0,0,1,4.71-.89l.23,0a32.76,32.76,0,0,0-1.74,3.41,57.92,57.92,0,0,0-3.18,8c-.77,2.53-1.58,5.48-.95,8.11.77,3.19,4.31,4.16,7.27,4.45a49.07,49.07,0,0,0,7.27.12c4.06-.19,9.25-1.25,8.73-6.22-.5-4.67-4.41-8.18-5.58-12.69a15.27,15.27,0,0,1-.48-4.41c0-.3,0-.6,0-.89h.17a61.62,61.62,0,0,1,6.45,1c2.83.59,7.53,2.16,9.37-1C73.76,48.87,72.33,44.94,70.69,42.82Z"/><path class="cls-6" d="M56.89,45.41c.93,1.59-.55,5.89-.6,5.89,0,.29,0,.59,0,.89a15.27,15.27,0,0,0,.48,4.41c1.17,4.51,5.08,8,5.58,12.69.52,5-4.67,6-8.73,6.22a49.07,49.07,0,0,1-7.27-.12c-3-.29-6.5-1.26-7.27-4.45-.63-2.63.18-5.58.95-8.11a57.92,57.92,0,0,1,3.18-8,32.76,32.76,0,0,1,1.74-3.41c-.08,0,2.23-5.56,2.15-5.54S52.65,38.08,56.89,45.41Z"/><path class="cls-7" d="M47.08,45.92s5.57-7.84,9.81-.51c.93,1.59-.55,5.89-.6,5.89,0,.29,0,.59,0,.89a15.27,15.27,0,0,0,.48,4.41c1.17,4.51,5.08,8,5.58,12.69.52,5-4.67,6-8.73,6.22,0,0,4.28-3.56.24-14.76,0,0-1-7.56.09-11S51.56,43.9,47.08,45.92Z"/></g></svg>