<svg id="Layer_1" data-name="Layer 1" xmlns="http://www.w3.org/2000/svg" viewBox="0 0 100 100"><defs><style>.cls-1{opacity:0.5;}.cls-2{fill:#ff0;stroke:#494949;stroke-miterlimit:10;}.cls-3{fill:#ffa63b;}.cls-4{fill:#fc00cd;}.cls-5{fill:#e81fdf;}.cls-6{fill:#823f03;}.cls-7{fill:#ff64f8;}.cls-8{fill:#fff;}</style></defs><g id="Icream_Icon" data-name="Icream Icon"><ellipse class="cls-1" cx="50.49" cy="51.91" rx="42.26" ry="40.84"/><ellipse class="cls-2" cx="49.51" cy="48.09" rx="42.26" ry="40.84"/><ellipse class="cls-3" cx="49.51" cy="48.09" rx="36.16" ry="34.95"/><path class="cls-4" d="M49.3,17.26c-.9,0-1.79,0-2.67.07-4.74.19-8.21,1.89-8.36,6.92-.1,3.38-.18,6.77-.26,10.15q-.23,9.16-.27,18.33c0,2.32-.44,4.64,0,6.94.29,1.57,1.39,1.17,2.81,1,2.15-.18,4.3-.43,6.46-.47a77.94,77.94,0,0,1,9.78.38c1,.11,2.17.47,3.17.49,1.23,0,1.14-.66,1.24-1.77.18-2,0-4,0-6.07q.16-8.43,0-16.85c-.08-4.78-.18-9.56-.33-14.35a4.69,4.69,0,0,0-4.21-4.39A48.77,48.77,0,0,0,49.3,17.26Z"/><path class="cls-5" d="M49.28,18.72a18.09,18.09,0,0,0-5.87.6c-3.49,1.12-3,5.12-3.15,8-.09,2.43-.06,4.89,0,7.33,0,6.54,0,13.08.11,19.62a31.08,31.08,0,0,0,.3,6.33c2.33-.11,4.71-.48,6.93-.55a51.79,51.79,0,0,1,7.26.18c1.16.12,2.5.6,3.66.61,1.44,0,.94-.56.92-1.75,0-2.33.27-4.66.27-7,0-5.26-.12-10.53-.27-15.79q-.18-6.44-.46-12.87s-.16-3.68-3.55-4.32A39.17,39.17,0,0,0,49.28,18.72Z"/><path class="cls-6" d="M47.05,60.32s.5,16.93.77,17.07c0,0,2,2.28,3.57-.24,0,0-.25-15.43,0-17C51.4,60.2,47.51,59.86,47.05,60.32Z"/><path class="cls-7" d="M51.86,21.37s2.51-2.07,4,.35c0,0,.94,29.9.72,36.61,0,0-2.73,2.5-4.51-.54Z"/><path class="cls-7" d="M43.66,21.5s2.54-2,4,.39c0,0,.57,29.91.26,36.62,0,0-2.76,2.47-4.49-.6Z"/><path class="cls-8" d="M41.08,24.08s-.58-1.36.82-3.41c0,0,1.21-1.31,2-.36,0,0,.19.6-1.18,2Z"/></g></svg>