<svg id="Layer_1" data-name="Layer 1" xmlns="http://www.w3.org/2000/svg" viewBox="0 0 100 100"><defs><style>.cls-1{opacity:0.5;}.cls-2{fill:#ff0;stroke:#494949;stroke-miterlimit:10;}.cls-3{fill:#ffa63b;}.cls-4{fill:#052d05;}.cls-5{fill:#0b4712;}.cls-6{fill:#6da541;}.cls-7{fill:#5c8c31;}.cls-8{fill:#547c29;}.cls-9{fill:#063508;}.cls-10{fill:#155918;}.cls-11{fill:#80b54e;}.cls-12{fill:#46590b;}</style></defs><g id="Watermelon_Icon" data-name="Watermelon Icon"><ellipse class="cls-1" cx="50.49" cy="51.91" rx="42.26" ry="40.84"/><ellipse class="cls-2" cx="49.51" cy="48.09" rx="42.26" ry="40.84"/><ellipse class="cls-3" cx="49.51" cy="48.09" rx="36.16" ry="34.95"/><path class="cls-4" d="M69.49,59.76a24.85,24.85,0,0,1-2.76,3.75,25.21,25.21,0,0,1-10.19,6.95,24.43,24.43,0,0,1-5.44,1.33,23.55,23.55,0,0,1-4.75.12,22.52,22.52,0,0,1-4.72-.86l-.2-.06c-.45-.13-.89-.28-1.33-.45s-.91-.35-1.36-.56a19.24,19.24,0,0,1-1.81-.92,22.16,22.16,0,0,1-2.33-1.51c-.4-.29-.78-.6-1.15-.91s-.82-.73-1.2-1.11l-.07-.07a21.67,21.67,0,0,1-3.81-5.16c-.19-.36-.37-.72-.54-1.09s-.32-.73-.47-1.1h0a22.63,22.63,0,0,1-1.59-7.6h0a24.19,24.19,0,0,1,3.54-13.43l0,0h0A25.4,25.4,0,0,1,43.48,26c.4-.12.81-.23,1.22-.33a18,18,0,0,1,3.47-.49,20.2,20.2,0,0,1,4.18.24,23.32,23.32,0,0,1,4.19,1.1c.66.23,1.32.5,2,.79s1.6.75,2.39,1.18l.42.24c.49.27,1,.55,1.43.85s1.07.7,1.58,1.07.81.6,1.2.92A21.76,21.76,0,0,1,69.77,36h0a17.35,17.35,0,0,1,2.73,6.15c0,.1,0,.19.07.29A23.93,23.93,0,0,1,69.49,59.76Z"/><path class="cls-5" d="M66.71,58.13a24.33,24.33,0,0,1-2.64,3.58c-.37.42-.75.82-1.15,1.21a24.05,24.05,0,0,1-8.55,5.41q-1,.38-2.1.66a23.1,23.1,0,0,1-3.09.6l-.4,0a22.69,22.69,0,0,1-4.12.07c-.46,0-.91-.08-1.37-.15a21.29,21.29,0,0,1-3.13-.67l-.2-.06-.25-.08c-.34-.1-.68-.22-1-.34s-.87-.34-1.29-.54q-.88-.39-1.74-.87l-.54-.32c-.58-.35-1.14-.73-1.68-1.13-.3-.23-.6-.46-.89-.7l-.2-.17c-.4-.33-.78-.69-1.15-1.05l-.06-.07a20.47,20.47,0,0,1-3.32-4.35c-.17-.36-.32-.73-.47-1.1h0a22.63,22.63,0,0,1-1.59-7.6h0a24.19,24.19,0,0,1,3.54-13.43l0,0h0A25.4,25.4,0,0,1,43.48,26c.4-.12.81-.23,1.22-.33a18,18,0,0,1,3.47-.49,18.24,18.24,0,0,1,2.2.23,23,23,0,0,1,4,1c.64.23,1.27.48,1.89.76s1,.44,1.45.69l.82.43.41.23,0,0c.46.25.9.52,1.33.79.13.08.26.16.38.25.39.25.76.5,1.13.77h0c.34.24.66.49,1,.74l.15.12.46.38c.52.44,1,.9,1.48,1.37A20,20,0,0,1,67,35.49h0A16.6,16.6,0,0,1,67.91,37a16.06,16.06,0,0,1,1.66,4.35,2.29,2.29,0,0,1,.07.28c.11.54.2,1.08.27,1.63h0A22.91,22.91,0,0,1,66.71,58.13Z"/><path class="cls-6" d="M64.33,47.8c-.87,2.36-.22,4.73-2.26,6.62,0-.05-.11.18-.1.16-1.77,2.82-1.36,6.73-4,9.44a21.62,21.62,0,0,1-3,2.66,9.15,9.15,0,0,0-2.36,1.81,1.79,1.79,0,0,0-.31.5,23.1,23.1,0,0,1-3.09.6l-.4,0a2,2,0,0,0,.33-.51c.88-2.18,2.81-2.9,4-4.92,1-1.85,1.35-3.22,2.41-5.07.94-1.68.14-3.92,2.09-5a1.35,1.35,0,0,0,.67-1.84c-.25-1.78.61-1.7,1.72-3.07.84-.72-.31-2.13-.26-3s.73-1.33,1.13-1.9a1.8,1.8,0,0,0,.23-2.23c-.73-1.65.92-2.21.6-3.41a37,37,0,0,1-.3-4.53c0-.51.09-.79.24-.62a5.81,5.81,0,0,1,.61.86c1.26,2.14,2.38,6.17,1.7,8.32C63.71,44.44,64.78,46,64.33,47.8Z"/><path class="cls-7" d="M40.16,68.89a21.29,21.29,0,0,0,3.13.67c-.48.45-1.11,1-1.66,1.49l-.2-.06c-.45-.13-.89-.28-1.33-.45s-.91-.35-1.36-.56c.29-.37.64-.79,1-1.23l.25.08Z"/><path class="cls-7" d="M52.27,69c-.37.89-.05,1.83-1,2.63l-.2.17a23.55,23.55,0,0,1-4.75.12c.4-.92,1.73-1.49,2.43-2.27l.4,0A23.1,23.1,0,0,0,52.27,69Z"/><path class="cls-6" d="M58.63,40.53a16.37,16.37,0,0,0,.08,4.37c.21,1-1.75,3-2.23,3.88-1,1.57,0,2-.93,3.73-.58.87-2.29.73-3,4A11.61,11.61,0,0,1,49,63c-2.56,2.84-3.94,5-5.12,6-.15.12-.35.31-.59.52a21.29,21.29,0,0,1-3.13-.67l-.2-.06-.25-.08a7.91,7.91,0,0,0,.81-1.24c.45-.78,1.4-1.34,1.8-2.14s1.42-.87,2-1.54c1-1.17.24-3.89,1.51-4.54,1.44-.75,2.88-.26,2.26-2.48-.31-1.06.56-1.73,1.18-2.42C50.25,53.27,49,52,50,51s1.14-.4,1.52-1.92a8.87,8.87,0,0,1,1.18-2.9c1-1.41,1.74-1.64,2.11-3.27a9.35,9.35,0,0,1,2.87-5.24c1.4-1.24,1.73-3.12,2.11-4.24l0-.07c.25-.71.38-.38.44.32h0a18,18,0,0,1-.14,3.62C59.74,38.38,58.79,39.4,58.63,40.53Z"/><path class="cls-6" d="M61.81,30.36a6.24,6.24,0,0,0-.58.59l0,0c-.51.59-.67.29-.65-.37a8.87,8.87,0,0,1,.11-1c.39.25.76.5,1.13.77Z"/><path class="cls-7" d="M35.13,66.68a3.74,3.74,0,0,1-.53.87c-.4-.29-.78-.6-1.15-.91s-.82-.73-1.2-1.11c.09-.22.2-.45.31-.68.29.24.59.47.89.7C34,66,34.55,66.33,35.13,66.68Z"/><path class="cls-6" d="M58.26,32.39c-.59.46-2,1.2-2.47,2.17-.06.14-.13.27-.2.4h0c-1.12,2-2.8,3.37-4.31,5-1.35,1.51-1.2,4-3.15,5A5.28,5.28,0,0,0,46,46.64a2.55,2.55,0,0,0-.22,1.42,1.5,1.5,0,0,1-.53,1.45h0c-2.13,1.1-2.33,2.25-3.09,4.43-.82,2.42-2,2.79-4,4.16-1.43,1.11-.67,3.54-1.48,5a33.31,33.31,0,0,0-1.55,3.58c-.58-.35-1.14-.73-1.68-1.13-.3-.23-.6-.46-.89-.7a9.46,9.46,0,0,1,1-1.84c1.5-1.55-.7-3.12.37-4.88.84-1.37,1.37-3,2.24-4.21.54-.78,1.67-1,2.13-1.74a2.86,2.86,0,0,0,.09-2,2.69,2.69,0,0,1,0-1.38c.33-.86,2-1,2.61-1.6a7.8,7.8,0,0,0,1.57-2.66A11.19,11.19,0,0,1,46,39.81c.72-.6,1.52-1.52,2.27-2,1-.64,2.27-.49,3-1.43A14.18,14.18,0,0,1,55.32,33a9.6,9.6,0,0,1,2.42-1.12,1.22,1.22,0,0,1,.45,0C58.67,32,58.59,32.13,58.26,32.39Z"/><path class="cls-6" d="M57.16,31.13c-.51.17-1.48.36-2.36.61a7.17,7.17,0,0,0-1.06.39c-1.82.91-2.56,1.86-4.42,2.68a3.32,3.32,0,0,0-.65,1c-.56,1-1.67,1.26-2.62,1.84-1.27.75-2.51,3.47-3.76,4.26h0a6.93,6.93,0,0,0-1.43.67c-.15.09-.29.19-.43.29a5.87,5.87,0,0,0-1.26,1l-.34.47a5.2,5.2,0,0,1-.35.47l-.45.41-.44.42a25.68,25.68,0,0,0-3.2,3.56,1.8,1.8,0,0,1-.4.43c-.45.37-1,.69-1.23,1.3a5.22,5.22,0,0,0-.18.56c-.32,1.17-.46,2.42-1.9,3.43s-1.59,1.27-1.61,3.23a4.11,4.11,0,0,1-.69,2.16,22.77,22.77,0,0,1-1-2.19h0c.11-.46.24-.94.39-1.43.67-2.27,1.78-4.55,1.85-5,.19-1.68.22-2.75,1.36-4a.46.46,0,0,1,.07-.07,6.83,6.83,0,0,0,.54-.63,31.91,31.91,0,0,1,2.92-3.8A6.32,6.32,0,0,0,35.59,41a7,7,0,0,0,.2-.69,1.14,1.14,0,0,1,.87-.89c.29-.09.56-.15.8-.2,1.72-.32,2.11.39,2.82-1.88a3.6,3.6,0,0,1,3.37-2.58c2.53-.14,3.15-1.17,4.84-2.69.94-.9,3.19-1.58,5.31-1.75a8.27,8.27,0,0,1,3.2.26l.44.19C57.64,30.92,57.49,31,57.16,31.13Z"/><path class="cls-6" d="M57.15,30.2h0a19.57,19.57,0,0,0-4.61-.87,5.69,5.69,0,0,0-1.29.07,6.74,6.74,0,0,1-2.51.19c-2.2-.37-3.63,1-5.5,1.42-1.63.44-1.9,1.09-3.23,2.07a15.42,15.42,0,0,1-2.67,1.54c-1.38.7-.77.64-1.59,1.73s-2.1.52-2.91,1.73C32.33,38.82,32,39.75,31,40c-2,.56-1.25,1.47-1.38,2.91a1.38,1.38,0,0,1-.3.71c-.67.94-2.27,1.82-2.64,3-.26.85.06,1.63-.22,2.43-.21.48-.46,1-.68,1.45a24.19,24.19,0,0,1,3.54-13.43l0,0h0c.29-.24.61-.48,1-.74,2.85-1.92,2.58-3.15,3.38-4,1.71-1.33,2.14-.61,3.7-1.8.88-.62,3-2.55,4.13-2.49a36.09,36.09,0,0,0,4.61-.18c6.41-.91,8.82,1.28,10,1.51a3.27,3.27,0,0,1,1.33.59C57.89,30.3,57.94,30.54,57.15,30.2Z"/><path class="cls-6" d="M59.45,30.18c0,.3-.13.37-.32-.1,0,0,0-.12-.07-.19a10.86,10.86,0,0,0-1.36-2l.82.43.41.23,0,0a.56.56,0,0,0,0,.08A3.1,3.1,0,0,1,59.45,30.18Z"/><path class="cls-7" d="M69.47,56.23c-.11.89.55,2.16.07,3-.62,1.08-1.88,1.21-2.43,2.32a6.81,6.81,0,0,0-.38,1.95,25.21,25.21,0,0,1-10.19,6.95l0,0c.78-.85,1.63-1.71,2-2,1.16-1.12,3.39-1.67,3.92-3.34.2-.85.31-1.51.45-2.12.4-.39.78-.79,1.15-1.21a24.33,24.33,0,0,0,2.64-3.58,22.91,22.91,0,0,0,3.2-14.87,3.37,3.37,0,0,1,.47.88A20.09,20.09,0,0,1,71,47.21a11.18,11.18,0,0,1-.62,6A13.56,13.56,0,0,0,69.47,56.23Z"/><path class="cls-6" d="M66.71,58.13a24.33,24.33,0,0,1-2.64,3.58c-.37.42-.75.82-1.15,1.21a7.1,7.1,0,0,1,1.41-3c1.26-1.8,2-2.72,1.63-4.86h0c-.07-1.1,1.11-1.44,1.35-2.47a4.78,4.78,0,0,0-.26-2.49c-.59-1.89.17-3.31-.09-5.26-.35-2.3-1-3.63-1.51-6a12,12,0,0,0-2.17-4.21c-.49-.68-.8-1.07-.56-1a4.8,4.8,0,0,1,1.19.8,16.61,16.61,0,0,1,3.5,4c.63,1.34,1.36,2.15,1.44,3a4.58,4.58,0,0,0,1.06,2h0A22.91,22.91,0,0,1,66.71,58.13Z"/><path class="cls-7" d="M61.33,28.69c.49.27,1,.55,1.43.85l-.95.82h0c-.37-.27-.74-.52-1.13-.77.07-.37.15-.76.24-1.13Z"/><path class="cls-7" d="M65.54,31.53a18.13,18.13,0,0,0-2.14.07l-.46-.38-.15-.12a15.09,15.09,0,0,1,1.55-.49C64.75,30.9,65.15,31.21,65.54,31.53Z"/><path class="cls-7" d="M58.52,27.27A10.4,10.4,0,0,0,59,28.54l0,0-.41-.23-.82-.43c-.36-.46-.76-.95-1.16-1.38C57.2,26.71,57.86,27,58.52,27.27Z"/><path class="cls-6" d="M63.4,31.6l-1,.1c-.57.06-.87.08-.72-.05a1.43,1.43,0,0,1,.33-.22,5.36,5.36,0,0,1,.77-.33l.15.12Z"/><path class="cls-7" d="M72.5,42.15l-.18-.09c-1.15-.57-1.15-3.08-2.4-4.08a21.79,21.79,0,0,0-2-1A16.6,16.6,0,0,0,67,35.49h0A20,20,0,0,0,64.88,33c.72.32,1.43.67,1.86.92a16.63,16.63,0,0,1,3,2.11h0A17.35,17.35,0,0,1,72.5,42.15Z"/><path class="cls-6" d="M67.91,37l-.21-.17a23.25,23.25,0,0,0-2-2q-.94-.74-1.62-1.23c-1.7-1.24-2.19-1.43-1.43-1.38a3.5,3.5,0,0,1,.52.11,12.89,12.89,0,0,1,1.7.62A20,20,0,0,1,67,35.49h0A16.6,16.6,0,0,1,67.91,37Z"/><path class="cls-6" d="M58.42,30.16c-.05,0-.19-.08-.41-.25a5.8,5.8,0,0,0-1.33-.76c-1.08-.45-2.2-.95-2.63-1.16-1.47-.71-3.7-2.2-5.51-2.15a7.57,7.57,0,0,1-3.84-.21,19.36,19.36,0,0,1,7.65-.25A17.52,17.52,0,0,0,56,27.63,4.5,4.5,0,0,1,58.47,30C58.49,30.05,58.48,30.12,58.42,30.16Z"/><path class="cls-4" d="M64.05,34.18a.5.5,0,0,1-.14.15,4.8,4.8,0,0,0-1.19-.8c-.24-.07.07.32.56,1a3.29,3.29,0,0,1-1-.1,5.81,5.81,0,0,0-.61-.86c-.15-.17-.22.11-.24.62a9.05,9.05,0,0,1-1.19-.51h0c-.06-.7-.19-1-.44-.32l0,.07a9.61,9.61,0,0,1-1.52-1c.33-.26.41-.44-.07-.52a1.22,1.22,0,0,0-.45,0,4,4,0,0,1-.58-.77c.33-.11.48-.21.28-.32L57,30.62a.58.58,0,0,1,.07-.35l.06-.08h0c.79.34.74.1.32-.22a2.08,2.08,0,0,1,.54-.07c.22.17.36.28.41.25s.07-.11,0-.21a5.9,5.9,0,0,1,.66.13c.19.47.3.4.32.1a9.29,9.29,0,0,1,1.11.43c0,.66.14,1,.65.37l0,0,.07,0c.25.14.49.29.72.44a1.43,1.43,0,0,0-.33.22c-.15.13.15.11.72.05a7.49,7.49,0,0,1,.77.65,3.5,3.5,0,0,0-.52-.11c-.76-.05-.27.14,1.43,1.38A.71.71,0,0,1,64.05,34.18Z"/><path class="cls-8" d="M62.41,31.7c-.57.06-.87.08-.72-.05a1.43,1.43,0,0,1,.33-.22Z"/><path class="cls-8" d="M57.16,31.13a1.36,1.36,0,0,1-.16-.51l.44.19C57.64,30.92,57.49,31,57.16,31.13Z"/><path class="cls-8" d="M57.15,30.2h0a.89.89,0,0,1,.34-.21C57.89,30.3,57.94,30.54,57.15,30.2Z"/><path class="cls-8" d="M58.26,32.39l-.52-.49a1.22,1.22,0,0,1,.45,0C58.67,32,58.59,32.13,58.26,32.39Z"/><path class="cls-8" d="M58,29.91a2.53,2.53,0,0,1,.46,0c0,.1,0,.17,0,.21S58.23,30.08,58,29.91Z"/><path class="cls-8" d="M59.13,30.08l.32.1C59.43,30.48,59.32,30.55,59.13,30.08Z"/><path class="cls-8" d="M60.25,33.68l-.43-.22,0,0,0-.07C60.06,32.65,60.19,33,60.25,33.68Z"/><path class="cls-9" d="M60.56,30.61c.22.1.44.22.67.34l0,0C60.7,31.57,60.54,31.27,60.56,30.61Z"/><path class="cls-8" d="M61.68,33.57a5.81,5.81,0,0,1,.61.86,5.25,5.25,0,0,1-.85-.24C61.46,33.68,61.53,33.4,61.68,33.57Z"/><path class="cls-8" d="M64.09,33.62c-1.7-1.24-2.19-1.43-1.43-1.38a3.5,3.5,0,0,1,.52.11A3.26,3.26,0,0,1,64.09,33.62Z"/><path class="cls-8" d="M62.72,33.53a4.8,4.8,0,0,1,1.19.8,1.12,1.12,0,0,1-.63.2C62.79,33.85,62.48,33.46,62.72,33.53Z"/><path class="cls-10" d="M53.8,30.36c-2.12.17-4.37.85-5.31,1.75-1.69,1.52-2.31,2.55-4.84,2.69a3.6,3.6,0,0,0-3.37,2.58c-.71,2.27-1.1,1.56-2.82,1.88-.24.05-.51.11-.8.2a1.14,1.14,0,0,0-.87.89,7,7,0,0,1-.2.69,6.32,6.32,0,0,1-1.1,2.12A31.91,31.91,0,0,0,31.57,47a6.83,6.83,0,0,1-.54.63.46.46,0,0,0-.07.07,5.52,5.52,0,0,1-.43-.53,6.58,6.58,0,0,1-1.22-3.52,1.38,1.38,0,0,0,.3-.71c.13-1.44-.67-2.35,1.38-2.91,1-.24,1.34-1.17,1.83-1.92.81-1.21,2.17-.69,2.91-1.73s.21-1,1.59-1.73A15.42,15.42,0,0,0,40,33.07c1.33-1,1.6-1.63,3.23-2.07,1.87-.46,3.3-1.79,5.5-1.42a6.74,6.74,0,0,0,2.51-.19,5.69,5.69,0,0,1,1.29-.07A6.77,6.77,0,0,1,53.8,30.36Z"/><path class="cls-11" d="M29.61,42.9a1.38,1.38,0,0,1-.3.71c-.23-4,2.61-8.83,7.59-12.2,5.51-3.72,11.9-4.45,15.62-2.09a5.69,5.69,0,0,0-1.29.07,6.74,6.74,0,0,1-2.51.19c-2.2-.37-3.63,1-5.5,1.42-1.63.44-1.9,1.09-3.23,2.07a15.42,15.42,0,0,1-2.67,1.54c-1.38.7-.77.64-1.59,1.73s-2.1.52-2.91,1.73C32.33,38.82,32,39.75,31,40,28.94,40.55,29.74,41.46,29.61,42.9Z"/><path class="cls-10" d="M55.32,33a14.18,14.18,0,0,0-4.13,3.34c-.69.94-2,.79-3,1.43-.75.5-1.55,1.42-2.27,2a11.19,11.19,0,0,0-3.32,4.73,7.8,7.8,0,0,1-1.57,2.66c-.64.63-2.28.74-2.61,1.6a2.69,2.69,0,0,0,0,1.38A11.59,11.59,0,0,1,34,49.62a1.8,1.8,0,0,0,.4-.43,25.68,25.68,0,0,1,3.2-3.56l.44-.42.45-.41a5.2,5.2,0,0,0,.35-.47l.34-.47a5.87,5.87,0,0,1,1.26-1c.14-.1.28-.2.43-.29a6.93,6.93,0,0,1,1.43-.67h0c1.25-.79,2.49-3.51,3.76-4.26,1-.58,2.06-.79,2.62-1.84a3.32,3.32,0,0,1,.65-1c1.86-.82,2.6-1.77,4.42-2.68a7.17,7.17,0,0,1,1.06-.39A6.48,6.48,0,0,1,55.32,33Z"/><path class="cls-11" d="M38.47,44.8l-.45.41-.44.42a25.68,25.68,0,0,0-3.2,3.56,1.8,1.8,0,0,1-.4.43,7.27,7.27,0,0,1-3-2,.46.46,0,0,1,.07-.07,6.83,6.83,0,0,0,.54-.63,31.91,31.91,0,0,1,2.92-3.8A6.32,6.32,0,0,0,35.59,41a7,7,0,0,0,.2-.69,1.14,1.14,0,0,1,.87-.89c.29-.09.56-.15.8-.2,1.72-.32,2.11.39,2.82-1.88a3.6,3.6,0,0,1,3.37-2.58c2.53-.14,3.15-1.17,4.84-2.69.94-.9,3.19-1.58,5.31-1.75a7.35,7.35,0,0,1,.56.67,7.56,7.56,0,0,1,.44.71,7.17,7.17,0,0,0-1.06.39c-1.82.91-2.56,1.86-4.42,2.68a3.32,3.32,0,0,0-.65,1c-.56,1-1.67,1.26-2.62,1.84-1.27.75-2.51,3.47-3.76,4.26h0a6.93,6.93,0,0,0-1.43.67c-.15.09-.29.19-.43.29a5.87,5.87,0,0,0-1.26,1l-.34.47A5.2,5.2,0,0,1,38.47,44.8Z"/><path class="cls-10" d="M55.59,35c0,3.91-2.79,8.54-7.6,11.79a22.74,22.74,0,0,1-2.2,1.31A2.55,2.55,0,0,1,46,46.64,5.28,5.28,0,0,1,48.13,45c1.95-1,1.8-3.47,3.15-5C52.79,38.33,54.47,37,55.59,35Z"/><path class="cls-11" d="M55.59,35h0c-1.12,2-2.8,3.37-4.31,5-1.35,1.51-1.2,4-3.15,5A5.28,5.28,0,0,0,46,46.64a2.55,2.55,0,0,0-.22,1.42,18.55,18.55,0,0,1-7.36,2.12,2.69,2.69,0,0,1,0-1.38c.33-.86,2-1,2.61-1.6a7.8,7.8,0,0,0,1.57-2.66A11.19,11.19,0,0,1,46,39.81c.72-.6,1.52-1.52,2.27-2,1-.64,2.27-.49,3-1.43A14.18,14.18,0,0,1,55.32,33,7.76,7.76,0,0,1,55.59,35Z"/><path class="cls-12" d="M60,32.11l0,0,0,0-.15-.14a2.66,2.66,0,0,1-.49-.82A3.73,3.73,0,0,1,59,29.91a5.86,5.86,0,0,1,.08-1.36,6.26,6.26,0,0,1,.2-.77c0-.13.1-.27.16-.41a2.86,2.86,0,0,1,.25-.44,3.15,3.15,0,0,1,.71-.76,2.78,2.78,0,0,1,1-.53,3,3,0,0,1,1.18-.11l.29,0,.28.07.14,0,.06,0h.08l.1,0,.14.07A1.59,1.59,0,0,1,64,26l.24.15a3.08,3.08,0,0,1,.43.38,2.52,2.52,0,0,1,.61,1.07,2,2,0,0,1-.07,1.3,2.23,2.23,0,0,1-.82,1,2.07,2.07,0,0,1-1.29.34h-.25l0,0a1.42,1.42,0,0,1-.35-.13L62.29,30l-.13-.08-.22-.16a3.23,3.23,0,0,1-.63-.73,4.85,4.85,0,0,1-.4-.74,2.5,2.5,0,0,1-.15-.38l0-.1V27.7h0v-.05a.94.94,0,0,0,0-.16l0-.16a.24.24,0,0,1,0-.08l0-.09c0-.13,0-.25-.05-.37a8.46,8.46,0,0,1,0-1.2c0-.18,0-.34,0-.49s0-.29,0-.41c0-.47.07-.75.07-.75,0-.28.25-.34.54-.31s.51.11.5.37c0,0,0,.28,0,.75v.39c0,.14,0,.29,0,.45a6.39,6.39,0,0,0,.1,1l.06.26v.06l0,.08s0,.1,0,.16,0,.1.05.16l0,0h0s0,0,0,0v0l0,.06a2.1,2.1,0,0,0,.13.26,2.85,2.85,0,0,0,.33.52,2.23,2.23,0,0,0,.4.41l.1.06,0,0h.23s-.11,0-.06,0h0a.58.58,0,0,0,.26-.12.48.48,0,0,0,.18-.61.9.9,0,0,0-.25-.33,1,1,0,0,0-.2-.15l-.12-.07L63,27.43h0l-.1,0h-.05l-.07,0-.12,0h-.12a1.35,1.35,0,0,0-.41.07,1.41,1.41,0,0,0-.34.22,1.9,1.9,0,0,0-.26.34l-.08.18-.06.22a4.21,4.21,0,0,0-.09.49,4.13,4.13,0,0,0,0,.87,1.67,1.67,0,0,0,.16.53.41.41,0,0,0,.09.13l0,0,0,0,0,0h0A1.08,1.08,0,0,1,61.7,32a1.19,1.19,0,0,1-1.63.17Z"/></g></svg>