<svg id="Layer_1" data-name="Layer 1" xmlns="http://www.w3.org/2000/svg" viewBox="0 0 100 100"><defs><style>.cls-1{opacity:0.5;}.cls-2{fill:#ff0;stroke:#494949;stroke-miterlimit:10;}.cls-3{fill:#ffa63b;}.cls-4{fill:#6b9803;}.cls-5{fill:#587701;}.cls-6{fill:#7c4e24;}.cls-7{fill:#724119;}</style></defs><g id="Tree_Icon" data-name="Tree Icon"><ellipse class="cls-1" cx="50.5" cy="52.43" rx="42.25" ry="40.82"/><ellipse class="cls-2" cx="49.5" cy="48.57" rx="42.25" ry="40.82"/><ellipse class="cls-3" cx="49.5" cy="48.57" rx="36.16" ry="34.93"/><path class="cls-4" d="M75.94,42.73c-2.17-2.15-5.58-2.63-8.69-2.5a4.54,4.54,0,0,0,2.47-2.38c.67-1.86-.6-3.86-2.14-5.15a13,13,0,0,0-8.49-3c.6-2.38-1.08-4.88-3.33-6a13.37,13.37,0,0,0-7.45-.84c-1.49.18-3.18.6-3.87,1.89a5.57,5.57,0,0,0-.39,2.44v.09c0,.11,0,.22,0,.34a18.29,18.29,0,0,0-4.45,1.15c-7.46,2.9-6.72,7.92-6.72,7.92-8.8-.85-5.18,5.83-5.18,5.83-6.43-.25-11.83,9.27-3.26,13.49a15.69,15.69,0,0,0,15.32-.45l.45-.93L43.33,52a7.83,7.83,0,0,0,7.12,3.73,4,4,0,0,1,1.3,0,3.68,3.68,0,0,1,1.2.68c3.68,2.64,11.22,2.17,13.26,2C85.08,53.69,75.94,42.73,75.94,42.73Z"/><path class="cls-5" d="M43.49,52.21h0c.86,2.05,3.86,3.32,6,3.43a11.93,11.93,0,0,1,2.07.13,9.56,9.56,0,0,1,2.4,1.13,16.33,16.33,0,0,0,7,1.64,22,22,0,0,0,13.28-3.43,9.12,9.12,0,0,0,3.51-4,7.62,7.62,0,0,0,.2-4.51,8,8,0,0,0-3.28-4.91c-2.11-1.37-4.8-1.46-7.34-1.48,2.57,1.18,5.71,1.71,7.36,4a5.94,5.94,0,0,1,.44,5.88,10.35,10.35,0,0,1-4.26,4.46,16.58,16.58,0,0,1-15.31.68,14,14,0,0,0-3.36-1.42,14.84,14.84,0,0,0-2.31-.12,14.75,14.75,0,0,1-3.3-.46C46,53.07,43.87,52,43.49,52.21Z"/><path class="cls-5" d="M43.51,51.75A5.85,5.85,0,0,0,45.26,54l2.62-.94-1.13-3.82L45,49Z"/><path class="cls-5" d="M27.64,42.52a12.06,12.06,0,0,0-3.27,2.11A5.24,5.24,0,0,0,22.68,48a6.32,6.32,0,0,0,1,4.4,11.3,11.3,0,0,0,4,2.59c1.22.56,3.15.45,4.5.44,4.21,0,8.79-4.39,12.77-6.14-.22,3.07-6,7.35-9.24,8.17A16.29,16.29,0,0,1,26,56.71a10.7,10.7,0,0,1-4.61-3.12c-2.32-2.93-1.23-7.08,1.58-9.33A8,8,0,0,1,27.64,42.52Z"/><path class="cls-6" d="M40.75,55.13c.44.47.87.95,1.27,1.45A8,8,0,0,1,44,62.7a10.63,10.63,0,0,1-2.43,4.57,13.47,13.47,0,0,1-4.23,3.9c-2.37,1.24-5.09,1.12-7.7,1.1,4.64.31,9.4.09,14,.13l7.2.06a68.64,68.64,0,0,1,7,.07c-2.57-.3-5.23-.65-7.44-2-.86-.51-1.73-1.4-1.47-2.35a3.36,3.36,0,0,1,.55-1c1.51-2.16,1.59-4.95,1.36-7.54a4.65,4.65,0,0,1,0-1.49,4.15,4.15,0,0,1,.37-1A7.31,7.31,0,0,1,54,53.72a12.6,12.6,0,0,1,1.72-.63,9.31,9.31,0,0,0,4.52-3.45,2.3,2.3,0,0,0-1.91.71,6,6,0,0,1-1.66,1.27,4,4,0,0,1-1,.22l-2.33.31A7.22,7.22,0,0,1,50,52.06c-1.07-.38,0-3.24.31-4.3-2.68.1-3.81,1.11-5.35,1.49,0,1.9.64,4,.18,5.89a11.72,11.72,0,0,1-4.71-3.33,3.41,3.41,0,0,0-1.06-1,1,1,0,0,0-1.3.29,1.28,1.28,0,0,0,.29,1.26A26.07,26.07,0,0,0,40.75,55.13Z"/><path class="cls-7" d="M38.28,50.88s3.76,5.45,5.84,6.51,1.53,8.69-1.07,11.24-6.65,4-13.45,3.64c0,0,5.11.36,7.7-1.1a13.3,13.3,0,0,0,4.23-3.9c.33-.4,2.21-2.7,2.43-4.57S44,58.45,40.56,55,38,51.13,38.28,50.88Z"/><path class="cls-7" d="M50.65,47.31s-5,1.23-5.74,1.92a7,7,0,0,0,5.47,3S49.41,49,50.65,47.31Z"/><path class="cls-5" d="M33.26,34.22a5.79,5.79,0,0,0-.4,2.51s.26,1.1,1,1A4.37,4.37,0,0,1,33.26,34.22Z"/><path class="cls-5" d="M46.62,36.32a7.73,7.73,0,0,0,4.19,2.77,7.94,7.94,0,0,0,5.07-.36c-1.25,1.21-3.22,1.38-5,1.21A6.67,6.67,0,0,1,48,39.1,2.68,2.68,0,0,1,46.62,36.32Z"/><path class="cls-5" d="M44.09,38.25c0-.07,1.69.36,1.91.38a3.08,3.08,0,0,0,1.91-.41,1.29,1.29,0,0,1-.36,1,1.27,1.27,0,0,1-.77.2,4,4,0,0,1-1.57-.2,2.17,2.17,0,0,1-.65-.36C44.47,38.79,44,38.39,44.09,38.25Z"/><path class="cls-5" d="M30.34,48s3.55,5.34,11,.32a3.34,3.34,0,0,1-1.48-1.6s6.6,3.19,15.18-3A4.8,4.8,0,0,1,53,47s3.22,3,12.05-.47c0,0-.41,2.23-4.87,3.5,0,0-6.41.76-10.12-.75L50.14,48s-2.77,1.74-5.2,1.27c0,0-4.15,3.48-8.17,3.21S30.76,49.86,30.34,48Z"/><path class="cls-5" d="M69.35,34.82a3.52,3.52,0,0,1-.48,4.34s-1.11,1.1-1.93,1.12C66.94,40.28,70.53,38.33,69.35,34.82Z"/></g></svg>