<svg id="Layer_1" data-name="Layer 1" xmlns="http://www.w3.org/2000/svg" viewBox="0 0 100 100"><defs><style>.cls-1{opacity:0.5;}.cls-2{fill:#ff0;stroke:#494949;stroke-miterlimit:10;}.cls-3{fill:#ffa63b;}.cls-4{fill:#5b2b10;}.cls-5{fill:#472108;}.cls-6{fill:#331602;}.cls-7{fill:#1e1e1e;}.cls-8{fill:#bc6c4a;}.cls-9{fill:#d31818;}.cls-10{fill:#303030;}.cls-11{fill:#990404;}</style></defs><g id="Insect_Icon" data-name="Insect Icon"><ellipse class="cls-1" cx="50.49" cy="51.91" rx="42.26" ry="40.84"/><ellipse class="cls-2" cx="49.51" cy="48.09" rx="42.26" ry="40.84"/><ellipse class="cls-3" cx="49.51" cy="48.09" rx="36.16" ry="34.95"/><path class="cls-4" d="M68.08,70.8l-.4-.4c-.23-.25-.53-.58-.81-.93s-.55-.7-.73-1-.3-.45-.3-.45l.65-.54a14.26,14.26,0,0,0,1.33,1c.35.23.7.43,1,.58l.45.23c.07,0,0,.25-.19.48l-.53.71C68.34,70.72,68.15,70.86,68.08,70.8Z"/><path class="cls-4" d="M67.29,23.83s0,.17-.05.42-.09.59-.16.92a12.06,12.06,0,0,1-.36,1.29l-.56-.1a10.15,10.15,0,0,0,0-1.26c0-.31-.05-.62-.08-.85s-.06-.38-.06-.38.14-.11.33-.12l.61,0C67.14,23.72,67.3,23.76,67.29,23.83Z"/><path class="cls-4" d="M77.41,57.81l-.56-.11c-.34-.07-.78-.18-1.22-.31s-.85-.28-1.17-.4L74,56.78l.22-.8a16.17,16.17,0,0,0,1.67.08c.42,0,.83,0,1.14-.06l.51-.06c.07,0,.13.22.12.51l0,.87C77.58,57.6,77.5,57.83,77.41,57.81Z"/><path class="cls-4" d="M30.72,70.8s.17-.16.4-.4.54-.58.82-.93.54-.7.73-1,.3-.45.3-.45l-.65-.54a14.26,14.26,0,0,1-1.33,1c-.35.23-.7.43-1,.58l-.45.23c-.07,0,0,.25.19.48l.53.71C30.47,70.72,30.66,70.86,30.72,70.8Z"/><path class="cls-4" d="M31.52,23.83s0,.17,0,.42.09.59.17.92a12.06,12.06,0,0,0,.36,1.29l.56-.1a11.44,11.44,0,0,1,0-1.26c0-.31.06-.62.09-.85s.06-.38.06-.38-.14-.11-.34-.12l-.6,0C31.67,23.72,31.51,23.76,31.52,23.83Z"/><path class="cls-4" d="M21.39,57.81,22,57.7c.34-.07.78-.18,1.21-.31s.86-.28,1.18-.4l.51-.21-.22-.8a16.17,16.17,0,0,1-1.67.08c-.42,0-.83,0-1.14-.06l-.51-.06c-.07,0-.13.22-.12.51l0,.87C21.23,57.6,21.31,57.83,21.39,57.81Z"/><path class="cls-5" d="M65.9,68.82l-.12-.13-.31-.36a11,11,0,0,1-.81-1.14A9.06,9.06,0,0,1,64,66l-.17-.41-.06-.16.77-.37.09.12.26.32a9.47,9.47,0,0,0,.84.88,9.89,9.89,0,0,0,1,.75l.33.21.13.08c.07,0,0,.25-.22.47l-.57.68C66.18,68.77,66,68.89,65.9,68.82Z"/><path class="cls-5" d="M67.11,26.06s0,.19-.09.48a6.93,6.93,0,0,1-.3,1,6.63,6.63,0,0,1-.43,1,1.87,1.87,0,0,1-.17.3l-.06.11-.52-.22,0-.12.08-.3a6.5,6.5,0,0,0,.17-.93,7.53,7.53,0,0,0,0-.92c0-.25,0-.41,0-.41s.15-.11.35-.11h.6C67,25.92,67.12,26,67.11,26.06Z"/><path class="cls-5" d="M74.45,57.38l-.17,0-.46-.12a10.7,10.7,0,0,1-2.58-1.14c-.16-.1-.29-.18-.38-.25l-.14-.09.4-.73.15.05.4.12a9.07,9.07,0,0,0,2.43.35h.55c.08,0,.13.23.11.51l-.08.87C74.65,57.18,74.55,57.4,74.45,57.38Z"/><path class="cls-5" d="M32.91,68.82l.12-.13.3-.36a9.67,9.67,0,0,0,.82-1.14A8.9,8.9,0,0,0,34.78,66a3.32,3.32,0,0,0,.17-.41l.06-.16L34.25,65l-.09.12-.26.32a8.5,8.5,0,0,1-.85.88,8.77,8.77,0,0,1-.94.75l-.33.21-.13.08c-.07,0,0,.25.22.47l.57.68C32.63,68.77,32.84,68.89,32.91,68.82Z"/><path class="cls-5" d="M31.7,26.06s0,.19.09.48a6.93,6.93,0,0,0,.3,1,6.63,6.63,0,0,0,.43,1,1.87,1.87,0,0,0,.17.3l.06.11.52-.22,0-.12c0-.07-.05-.18-.09-.3a6.6,6.6,0,0,1-.16-.93,6,6,0,0,1,0-.92c0-.25,0-.41,0-.41s-.15-.11-.35-.11H32C31.84,25.92,31.69,26,31.7,26.06Z"/><path class="cls-5" d="M24.35,57.38l.18,0,.46-.12a10.7,10.7,0,0,0,2.58-1.14c.16-.1.29-.18.38-.25l.14-.09L27.68,55l-.15.05-.39.12a9.07,9.07,0,0,1-2.44.35h-.54c-.08,0-.13.23-.11.51l.08.87C24.15,57.18,24.26,57.4,24.35,57.38Z"/><path class="cls-6" d="M63.59,66.23l0,0s0-.08-.07-.14-.07-.13-.11-.22l-.13-.3a6,6,0,0,1-.38-1.62,5.25,5.25,0,0,1,0-.88l0-.4,0-.18,0-.17A2.11,2.11,0,0,1,63,62a1,1,0,0,1,0-.22l.06-.19.84.15v.36a2.18,2.18,0,0,0,0,.25v.14l0,.15c0,.11,0,.22.06.33a4.21,4.21,0,0,0,.19.67,4.82,4.82,0,0,0,.6,1.14L65,65l.12.13.07.09,0,0c.06.06-.09.25-.33.41l-.73.51C63.89,66.29,63.65,66.34,63.59,66.23Z"/><path class="cls-6" d="M66.61,28.64v0l0,.11s0,.1-.09.17l-.12.21a4.86,4.86,0,0,1-.8,1,5.16,5.16,0,0,1-1,.76l-.21.1-.16.08-.15.06-.27-.48.11-.08.13-.09.15-.13a3.68,3.68,0,0,0,.7-.79,3.32,3.32,0,0,0,.45-.91l.06-.17c0-.06,0-.1,0-.14a.51.51,0,0,0,0-.09v0c0-.07.18-.08.36,0l.58.16C66.52,28.44,66.65,28.55,66.61,28.64Z"/><path class="cls-6" d="M71,56.53l0,0-.15-.08-.22-.12-.27-.18A6.41,6.41,0,0,1,69.06,55a6.53,6.53,0,0,1-.53-.71c-.08-.12-.15-.23-.21-.34l-.09-.17-.07-.15L68,53.35,68,53.14,67.88,53l.78-.34.1.15,0,.07.06.09.16.2.1.11.1.11a2.66,2.66,0,0,0,.24.23A4,4,0,0,0,70,54a5.29,5.29,0,0,0,1.17.61l.22.07.18,0,.11,0h0c.08,0,.07.26,0,.52l-.31.83C71.31,56.4,71.14,56.58,71,56.53Z"/><path class="cls-6" d="M35.22,66.23l0,0s0-.08.07-.14.07-.13.11-.22.08-.19.12-.3a6,6,0,0,0,.39-1.62A5.25,5.25,0,0,0,36,63c0-.14,0-.27,0-.4l0-.18,0-.17a2.11,2.11,0,0,0-.06-.29c0-.09,0-.16,0-.22l-.06-.19-.84.15v.36a2.18,2.18,0,0,1,0,.25v.14l0,.15c0,.11,0,.22-.06.33a5.61,5.61,0,0,1-.19.67,4.82,4.82,0,0,1-.6,1.14l-.14.19-.12.13-.08.09,0,0c-.06.06.09.25.33.41l.73.51C34.92,66.29,35.16,66.34,35.22,66.23Z"/><path class="cls-6" d="M32.19,28.64l0,0,0,.11s.05.1.09.17l.12.21a5,5,0,0,0,1.82,1.76l.21.1.16.08.15.06.27-.48L35,30.61l-.12-.09-.16-.13a4,4,0,0,1-.7-.79,4,4,0,0,1-.45-.91l-.05-.17c0-.06,0-.1,0-.14a.51.51,0,0,1,0-.09v0c0-.07-.18-.08-.37,0l-.58.16C32.29,28.44,32.16,28.55,32.19,28.64Z"/><path class="cls-6" d="M27.78,56.53l0,0,.15-.08.22-.12.27-.18A6.41,6.41,0,0,0,29.75,55a6.53,6.53,0,0,0,.53-.71c.07-.12.15-.23.21-.34l.09-.17.07-.15a2.14,2.14,0,0,0,.12-.28,1.65,1.65,0,0,0,.09-.21l.07-.19-.78-.34-.1.15-.05.07-.07.09-.15.2-.1.11-.1.11c-.07.08-.16.15-.24.23a3.56,3.56,0,0,1-.56.45,5,5,0,0,1-1.16.61l-.22.07-.18,0-.11,0h0c-.09,0-.07.26,0,.52l.31.83C27.49,56.4,27.67,56.58,27.78,56.53Z"/><path class="cls-7" d="M62.19,62.25l1.08-4.89a17.24,17.24,0,0,0,.32-1.71,3.64,3.64,0,0,0-.07-1.35,2.34,2.34,0,0,0-.37-.82,1.19,1.19,0,0,0-.16-.19l-.06-.06.73-.85.11.08c.07.06.18.15.3.27a3.68,3.68,0,0,1,.75,1.15,4.73,4.73,0,0,1,.25.85,4.85,4.85,0,0,1,.11,1,17.51,17.51,0,0,1-.07,1.93c-.19,2.5-.37,5-.37,5,0,.23-.36.39-.75.33l-1.19-.16C62.42,62.72,62.13,62.48,62.19,62.25Z"/><path class="cls-7" d="M64.88,31.39l-3.59,1.74a13.86,13.86,0,0,0-1.23.64,3,3,0,0,0-.81.7,2,2,0,0,0-.34.62c0,.08,0,.15,0,.19v.07l-.85,0v-.11a2.27,2.27,0,0,1,0-.3,2.64,2.64,0,0,1,.36-1,2.9,2.9,0,0,1,.4-.56,5.53,5.53,0,0,1,.55-.53A12.75,12.75,0,0,1,60.58,32l3.32-2.19c.15-.1.41,0,.55.26l.46.75C65.06,31,65.05,31.31,64.88,31.39Z"/><path class="cls-7" d="M67.53,54l-2-4.62a17.15,17.15,0,0,0-.74-1.59A3.85,3.85,0,0,0,64,46.74a2.48,2.48,0,0,0-.79-.47,1.37,1.37,0,0,0-.24-.07l-.09,0,.1-1.1h.14a2.78,2.78,0,0,1,.4.06,3.74,3.74,0,0,1,1.29.53,5.19,5.19,0,0,1,.72.56,6.4,6.4,0,0,1,.65.72c.4.53.74,1.1,1.07,1.63l2.63,4.31c.12.21-.07.52-.42.69l-1.07.52C68,54.28,67.63,54.23,67.53,54Z"/><path class="cls-7" d="M36.62,62.25l-1.08-4.89a14.76,14.76,0,0,1-.32-1.71,3.64,3.64,0,0,1,.07-1.35,2.17,2.17,0,0,1,.37-.82,1.19,1.19,0,0,1,.16-.19l.06-.06-.73-.85-.11.08a3,3,0,0,0-.3.27A3.68,3.68,0,0,0,34,53.88a4.72,4.72,0,0,0-.26.85,7.06,7.06,0,0,0-.11,1c0,.65,0,1.31.08,1.93l.37,5c0,.23.36.39.74.33l1.2-.16C36.39,62.72,36.67,62.48,36.62,62.25Z"/><path class="cls-7" d="M33.93,31.39l3.59,1.74a13.86,13.86,0,0,1,1.23.64,3.19,3.19,0,0,1,.81.7,2,2,0,0,1,.34.62c0,.08,0,.15,0,.19v.07l.85,0v-.11a1.91,1.91,0,0,0,0-.3,2.83,2.83,0,0,0-.36-1,3,3,0,0,0-.41-.56,4.52,4.52,0,0,0-.54-.53A14.09,14.09,0,0,0,38.23,32l-3.32-2.19c-.15-.1-.41,0-.56.26l-.46.75C33.75,31,33.76,31.31,33.93,31.39Z"/><path class="cls-7" d="M31.27,54l2-4.62A17.15,17.15,0,0,1,34,47.81a3.85,3.85,0,0,1,.85-1.07,2.48,2.48,0,0,1,.79-.47,1.16,1.16,0,0,1,.24-.07l.09,0-.1-1.1h-.14a2.78,2.78,0,0,0-.4.06,3.86,3.86,0,0,0-1.3.53,5.79,5.79,0,0,0-.71.56,6.4,6.4,0,0,0-.65.72,16.85,16.85,0,0,0-1.07,1.63L29,52.9c-.12.21.06.52.41.69l1.08.52C30.81,54.28,31.18,54.23,31.27,54Z"/><path class="cls-8" d="M50.91,24.93s.38-.11.91-.35a5.41,5.41,0,0,0,1.69-1.23,4.91,4.91,0,0,0,1-1.81,4.32,4.32,0,0,0,.18-1c0-.15.11-.28.23-.28s.21.14.2.32a5.06,5.06,0,0,1-.24,1.06,4.9,4.9,0,0,1-3,3.07A2.31,2.31,0,0,1,50.91,24.93Z"/><path class="cls-8" d="M47.9,24.93s-.38-.11-.91-.35a5.3,5.3,0,0,1-1.69-1.23,4.77,4.77,0,0,1-1-1.81,4.32,4.32,0,0,1-.18-1c0-.15-.11-.28-.23-.28s-.22.14-.2.32a5.06,5.06,0,0,0,.24,1.06,4.9,4.9,0,0,0,3,3.07A2.28,2.28,0,0,0,47.9,24.93Z"/><path class="cls-9" d="M65.82,48c0,10.18-7.6,19.48-16.42,19.48S33,58.15,33,48,40.34,29.54,49.4,29.54,65.82,37.79,65.82,48Z"/><path class="cls-10" d="M55.09,28.28c0,.71-11.37.71-11.37,0s.74-3.89,5.68-3.89S55.09,27.58,55.09,28.28Z"/><path class="cls-7" d="M54.61,26.92A8.44,8.44,0,0,1,52,25.33c.1-.17.75-.81,1.91-.12S54.72,26.75,54.61,26.92Z"/><path class="cls-7" d="M44.2,26.92a8.44,8.44,0,0,0,2.66-1.59c-.11-.17-.75-.81-1.91-.12S44.09,26.75,44.2,26.92Z"/><path class="cls-7" d="M54.56,38.4a3.32,3.32,0,0,1-1.82,2.27,5.88,5.88,0,0,1-1.62.59,7.28,7.28,0,0,1-1.89.16,7,7,0,0,1-1.86-.33,6.22,6.22,0,0,1-1.56-.73,3.29,3.29,0,0,1-1.58-2.43,2.92,2.92,0,0,1,1.44-2.56,5.44,5.44,0,0,1,1.74-.77,7.24,7.24,0,0,1,2.17-.23,7.53,7.53,0,0,1,2.13.42,5.74,5.74,0,0,1,1.66.93A2.93,2.93,0,0,1,54.56,38.4Z"/><path class="cls-7" d="M60.42,45.12a3.46,3.46,0,0,1-2.1-1,3.23,3.23,0,0,1-.62-.87,2.74,2.74,0,0,1-.26-1,2.56,2.56,0,0,1,.16-1,3.21,3.21,0,0,1,.55-.92,3.36,3.36,0,0,1,2-1.17,2.79,2.79,0,0,1,2.29.57,3,3,0,0,1,.79,1A3.52,3.52,0,0,1,63.56,42a3.21,3.21,0,0,1-.22,1.33,2.85,2.85,0,0,1-.7,1A2.73,2.73,0,0,1,60.42,45.12Z"/><path class="cls-7" d="M54.78,54.37a4.47,4.47,0,0,1-2.65-1.26,4.14,4.14,0,0,1-.79-1.1A3.31,3.31,0,0,1,51,50.72a3.17,3.17,0,0,1,.21-1.3,3.69,3.69,0,0,1,.68-1.16,4.33,4.33,0,0,1,2.52-1.48,3.57,3.57,0,0,1,2.9.72,3.91,3.91,0,0,1,1,1.24,4.28,4.28,0,0,1,.42,1.66,4.07,4.07,0,0,1-.27,1.68,3.92,3.92,0,0,1-.88,1.32A3.51,3.51,0,0,1,54.78,54.37Z"/><path class="cls-7" d="M56.18,62.66a3.28,3.28,0,0,1-2-.95,2.94,2.94,0,0,1-.59-.83,2.53,2.53,0,0,1-.25-1,2.4,2.4,0,0,1,.16-1A2.84,2.84,0,0,1,54,58a3.28,3.28,0,0,1,1.9-1.12,2.71,2.71,0,0,1,2.19.55,2.89,2.89,0,0,1,.75.94,3,3,0,0,1,.32,1.25,3.11,3.11,0,0,1-.2,1.27,2.8,2.8,0,0,1-.67,1A2.63,2.63,0,0,1,56.18,62.66Z"/><path class="cls-7" d="M38.39,45.12a3.46,3.46,0,0,0,2.1-1,3.23,3.23,0,0,0,.62-.87,2.74,2.74,0,0,0,.26-1,2.4,2.4,0,0,0-.17-1,3,3,0,0,0-.54-.92,3.39,3.39,0,0,0-2-1.17,2.79,2.79,0,0,0-2.29.57,3,3,0,0,0-.79,1A3.52,3.52,0,0,0,35.25,42a3.21,3.21,0,0,0,.22,1.33,3,3,0,0,0,.69,1A2.76,2.76,0,0,0,38.39,45.12Z"/><path class="cls-7" d="M44,54.37a4.47,4.47,0,0,0,2.65-1.26,4.14,4.14,0,0,0,.79-1.1,3.31,3.31,0,0,0,.32-1.29,3.17,3.17,0,0,0-.21-1.3,3.72,3.72,0,0,0-.69-1.16,4.31,4.31,0,0,0-2.51-1.48,3.57,3.57,0,0,0-2.9.72,3.91,3.91,0,0,0-1,1.24,4.11,4.11,0,0,0-.42,1.66,4.07,4.07,0,0,0,.27,1.68,3.64,3.64,0,0,0,.88,1.32A3.51,3.51,0,0,0,44,54.37Z"/><path class="cls-7" d="M42.63,62.66a3.23,3.23,0,0,0,2-.95,3,3,0,0,0,.6-.83,2.53,2.53,0,0,0,.25-1,2.57,2.57,0,0,0-.16-1,3,3,0,0,0-.52-.88,3.28,3.28,0,0,0-1.91-1.12,2.7,2.7,0,0,0-2.18.55,2.89,2.89,0,0,0-.75.94,3.21,3.21,0,0,0-.33,1.25,3.12,3.12,0,0,0,.21,1.27,2.91,2.91,0,0,0,.66,1A2.66,2.66,0,0,0,42.63,62.66Z"/><ellipse class="cls-11" cx="49.4" cy="50.55" rx="0.36" ry="16.9"/><path class="cls-7" d="M59.22,33.13c0,1.22-19.63,1.22-19.63,0s1.27-6.72,9.81-6.72S59.22,31.92,59.22,33.13Z"/></g></svg>