<svg xmlns="http://www.w3.org/2000/svg" viewBox="0 0 100 100"><defs><style>.cls-1{isolation:isolate;}.cls-2{opacity:0.5;}.cls-3{fill:#ff0;stroke:#494949;stroke-miterlimit:10;}.cls-4{fill:#ffa63b;}.cls-5{fill:#dbdbdb;}.cls-6{fill:#9e520d;}.cls-7,.cls-9{fill:#fff;}.cls-7{opacity:0.25;}.cls-8{fill:#a9e80f;}.cls-9{opacity:0.2;}.cls-10{fill:#4c7f11;}.cls-11{fill:#8f9db3;}.cls-12{fill:#dadee3;opacity:0.32;}.cls-12,.cls-13{mix-blend-mode:multiply;}.cls-13{fill:#e4e8ed;opacity:0.4;}</style></defs><g class="cls-1"><g id="Layer_1" data-name="Layer 1"><g id="Spades_Icon" data-name="Spades Icon"><ellipse class="cls-2" cx="50.49" cy="51.91" rx="42.26" ry="40.84"/><ellipse class="cls-3" cx="49.51" cy="48.09" rx="42.26" ry="40.84"/><ellipse class="cls-4" cx="49.51" cy="48.09" rx="36.16" ry="34.95"/><path class="cls-5" d="M42.7,57.05l-6.94-4.93-2,2.65c-5.18,6.81-6.14,9.68-2.77,16.86a1,1,0,0,0,.77.55c8.1,1,10.65-.78,15.82-7.59.36-.47,1.69-2.16,2-2.61Z"/><polygon class="cls-6" points="45.43 55.75 43.05 54.06 59.77 32.06 62.15 33.75 45.43 55.75"/><path class="cls-7" d="M45.71,54h0a.39.39,0,0,1-.09-.54l14.3-18.8a.41.41,0,0,1,.55-.09h0a.38.38,0,0,1,.09.54l-14.3,18.8A.41.41,0,0,1,45.71,54Z"/><path class="cls-8" d="M61.25,34.74l-2.19-1.56a.32.32,0,0,1-.08-.46l3.48-4.56a.34.34,0,0,1,.47-.07l2.19,1.56a.32.32,0,0,1,.08.46l-3.47,4.56A.35.35,0,0,1,61.25,34.74Z"/><path class="cls-8" d="M71.24,25.73,65,21.27a.82.82,0,0,0-1.13.18c-2.43,3.33-2.71,6.67-.46,8.27s5.47.34,8-2.89A.76.76,0,0,0,71.24,25.73Zm-6.91,2.74c-1.73-1.23-2.09-3.8-.22-6.49a.56.56,0,0,1,.77-.13L70.7,26a.49.49,0,0,1,.1.74C68.71,29.27,66.06,29.7,64.33,28.47Z"/><path class="cls-9" d="M63.9,29a3.27,3.27,0,0,1-1.2-3.76,3.7,3.7,0,0,0,1.5,3.37A4,4,0,0,0,68,29,3.57,3.57,0,0,1,63.9,29Z"/><path class="cls-10" d="M70.36,26.73l-6.11-4.34a.31.31,0,0,1-.08-.45L65,20.89a.37.37,0,0,1,.48-.07l6.11,4.34a.32.32,0,0,1,.07.46l-.79,1A.34.34,0,0,1,70.36,26.73Z"/><path class="cls-11" d="M42.68,55.62c-.21.26-.41.52-.62.8-3.17,4.17-5.42,7.79-5,8.08s3.3-2.87,6.48-7c.2-.27.41-.54.6-.81Z"/><path class="cls-12" d="M42.7,57.05,49.64,62c-.34.45-1.67,2.14-2,2.61-5.17,6.81-7.72,8.56-15.82,7.59a1,1,0,0,1-.46-.17Z"/><path class="cls-11" d="M50,60.87l-3.24-2.3-.52-.37a1.73,1.73,0,0,1-.39-2.46L48,52.85a.26.26,0,0,0-.06-.37l-2.31-1.63a.27.27,0,0,0-.37,0l-2.2,2.89a1.88,1.88,0,0,1-2.55.38L40,53.8l-3.25-2.3a.69.69,0,0,0-.94.14l-.07.09a.64.64,0,0,0,.14.92L39.13,55l6.71,4.76L49.08,62a.7.7,0,0,0,1-.14l.07-.1A.64.64,0,0,0,50,60.87Z"/><path class="cls-9" d="M61.21,34h0a.26.26,0,0,1-.06-.36l2.58-3.39a.27.27,0,0,1,.37-.06h0a.25.25,0,0,1,.06.36L61.58,34A.28.28,0,0,1,61.21,34Z"/><path class="cls-9" d="M44.31,56.37h0a.25.25,0,0,1-.05-.36l2.36-3.11a.28.28,0,0,1,.37-.06h0a.26.26,0,0,1,.06.36l-2.37,3.11A.28.28,0,0,1,44.31,56.37Z"/><path class="cls-9" d="M65.14,21.22h0a.27.27,0,0,1,.36,0l5.69,4a.25.25,0,0,1,.06.36h0a.28.28,0,0,1-.37.05l-5.69-4A.25.25,0,0,1,65.14,21.22Z"/><polygon class="cls-13" points="48.62 63.23 35.39 52.62 35.82 52.04 49.66 61.87 48.62 63.23"/></g></g></g></svg>