<svg id="Layer_1" data-name="Layer 1" xmlns="http://www.w3.org/2000/svg" viewBox="0 0 100 100"><defs><style>.cls-1{opacity:0.5;}.cls-2{fill:#ff0;stroke:#494949;stroke-miterlimit:10;}.cls-3{fill:#ffa63b;}.cls-4{fill:#fdffa9;}.cls-5{fill:#e5e157;}.cls-6{fill:#e5e51c;}</style></defs><g id="Flower_Icon" data-name="Flower Icon"><ellipse class="cls-1" cx="50.49" cy="51.91" rx="42.26" ry="40.84"/><ellipse class="cls-2" cx="49.51" cy="48.09" rx="42.26" ry="40.84"/><ellipse class="cls-3" cx="49.51" cy="48.09" rx="36.16" ry="34.95"/><path class="cls-4" d="M66,54.77c-5.15,0-15.36-3.12-15.36-7s10.21-7,15.36-7c9,0,12.95,3.64,12.95,7S74.86,54.77,66,54.77Z"/><path class="cls-5" d="M59.08,48.5c-.65,0-1.95-.31-1.95-.71s1.3-.7,1.95-.7c1.15,0,1.65.37,1.65.7S60.21,48.5,59.08,48.5Z"/><path class="cls-4" d="M32.8,40.82c5.14,0,15.36,3.12,15.36,7s-10.22,7-15.36,7c-9,0-12.95-3.64-12.95-7S24,40.82,32.8,40.82Z"/><path class="cls-4" d="M51.72,65.15C49.08,60.88,46.62,50.8,50,48.83S61.47,53.73,64.11,58c4.62,7.48,3.41,12.61.44,14.32S56.25,72.49,51.72,65.15Z"/><path class="cls-4" d="M47.09,30.44c2.64,4.27,5.1,14.35,1.68,16.32s-11.44-4.9-14.07-9.17C30.08,30.1,31.29,25,34.26,23.27S42.56,23.1,47.09,30.44Z"/><path class="cls-4" d="M34.83,58.17c2.58-4.3,10.5-11.27,14-9.34s1.11,12.05-1.47,16.34c-4.53,7.54-9.76,9-12.75,7.33S30.38,65.57,34.83,58.17Z"/><path class="cls-4" d="M64,37.42C61.4,41.72,53.48,48.69,50,46.75s-1.11-12,1.47-16.33c4.53-7.54,9.76-9,12.75-7.33S68.43,30,64,37.42Z"/><path class="cls-6" d="M49.18,54.21a6.42,6.42,0,1,1,6.63-6.42A6.53,6.53,0,0,1,49.18,54.21Z"/><path class="cls-5" d="M39.13,47.09c.66,0,2,.31,2,.7s-1.3.71-2,.71c-1.15,0-1.65-.37-1.65-.71S38,47.09,39.13,47.09Z"/><path class="cls-5" d="M53.22,56.61c-.31-.56-.64-1.81-.29-2s1.26.77,1.58,1.32c.54,1,.45,1.58.14,1.74S53.76,57.57,53.22,56.61Z"/><path class="cls-5" d="M45,39c.31.56.64,1.81.28,2s-1.26-.77-1.57-1.32c-.55-1-.45-1.58-.14-1.74S44.46,38,45,39Z"/><path class="cls-5" d="M54.91,39.92c-.33.54-1.29,1.45-1.64,1.25s0-1.44.39-2c.6-.95,1.19-1.17,1.49-1S55.5,39,54.91,39.92Z"/><path class="cls-5" d="M43.3,55.67c.34-.54,1.3-1.45,1.64-1.25s0,1.44-.39,2c-.59,1-1.18,1.17-1.48,1S42.72,56.6,43.3,55.67Z"/><path class="cls-5" d="M57.29,53.36c-.57-.33-1.51-1.24-1.3-1.58s1.49,0,2,.37c1,.57,1.22,1.13,1,1.42S58.25,53.92,57.29,53.36Z"/><path class="cls-5" d="M40.93,42.23c.56.33,1.51,1.24,1.3,1.58s-1.49,0-2.06-.37c-1-.57-1.21-1.13-1-1.42S40,41.67,40.93,42.23Z"/><path class="cls-5" d="M47.94,57.4c0-.64.42-1.88.82-1.86s.68,1.29.65,1.92c0,1.11-.45,1.57-.8,1.56S47.9,58.48,47.94,57.4Z"/><path class="cls-5" d="M50.27,38.19c0,.64-.41,1.88-.82,1.86s-.67-1.29-.64-1.92c0-1.11.45-1.57.8-1.56S50.32,37.1,50.27,38.19Z"/><path class="cls-5" d="M58.28,43.93c-.58.29-1.89.6-2.08.25S57,43,57.59,42.68c1-.52,1.64-.42,1.8-.12S59.27,43.42,58.28,43.93Z"/><path class="cls-5" d="M39.94,51.66c.58-.3,1.88-.6,2.07-.25s-.81,1.21-1.39,1.5c-1,.52-1.64.42-1.8.12S38.94,52.17,39.94,51.66Z"/></g></svg>