<svg id="Layer_1" data-name="Layer 1" xmlns="http://www.w3.org/2000/svg" viewBox="0 0 100 100"><defs><style>.cls-1{opacity:0.5;}.cls-2{fill:#ff0;stroke:#494949;stroke-miterlimit:10;}.cls-3{fill:#ffa63b;}.cls-4{fill:#2c2b39;}.cls-5{fill:#d9cebc;}.cls-6{fill:#e52828;}.cls-7{fill:#f1ece6;}.cls-8{fill:#fff;}</style></defs><g id="Boat_Icon" data-name="Boat Icon"><ellipse class="cls-1" cx="50.49" cy="51.91" rx="42.26" ry="40.84"/><ellipse class="cls-2" cx="49.51" cy="48.09" rx="42.26" ry="40.84"/><ellipse class="cls-3" cx="49.51" cy="48.09" rx="36.16" ry="34.95"/><polygon class="cls-4" points="32.89 65.83 32.36 65.59 53.76 23.12 54.29 23.37 32.89 65.83"/><path class="cls-5" d="M72.46,65.83s-35.9-.62-47.61-.88C24.85,65,56.07,72.62,72.46,65.83Z"/><path class="cls-6" d="M24.85,65s30.83,5.22,47.61.88l-5.07,5.1s-17.25,2.95-32.45-.45C30.54,69.5,29.1,67,24.85,65Z"/><polygon class="cls-4" points="70.85 66.25 52.68 20.79 53.22 20.59 71.4 66.05 70.85 66.25"/><polygon class="cls-4" points="29.64 65.49 29.28 65.05 33.57 61.69 33.94 62.13 29.64 65.49"/><path class="cls-7" d="M55.85,61.5s1.2-23.35-2.9-40.81c0,0-22.63,34-25,40.81,0,0,6.49.09,9,1.79C40.85,66,51,64.47,55.85,61.5Z"/><path class="cls-4" d="M53,20.69s4.44,28.78,2.51,46.11h1.59S56.66,33.62,53,20.69Z"/><path class="cls-7" d="M39.29,66.15s17.86,1.66,23.9.65C63.19,66.8,46.85,65.76,39.29,66.15Z"/><path class="cls-8" d="M51.24,24.82S43.4,49,43.32,53.1s.35,7.42-1.32,8.81c0,0-7-4.85-10.39-2.87Z"/></g></svg>