<svg id="Layer_1" data-name="Layer 1" xmlns="http://www.w3.org/2000/svg" viewBox="0 0 100 100"><defs><style>.cls-1{opacity:0.5;}.cls-2{fill:#ff0;stroke:#494949;stroke-miterlimit:10;}.cls-3{fill:#ffa63b;}.cls-4{fill:#1fd5ff;}.cls-5{fill:#d0d2d3;}.cls-6{fill:#e04457;}.cls-7{fill:#fff;}.cls-8{fill:#e6e7e8;}.cls-9{fill:#cecece;}.cls-10{fill:#cadbcf;}</style></defs><g id="Aeiroplane_Icon" data-name="Aeiroplane Icon"><ellipse class="cls-1" cx="50.49" cy="51.91" rx="42.26" ry="40.84"/><ellipse class="cls-2" cx="49.51" cy="48.09" rx="42.26" ry="40.84"/><ellipse class="cls-3" cx="49.51" cy="48.09" rx="36.16" ry="34.95"/><path class="cls-4" d="M23.84,50c-2.3-1.43-3.94-3.46-3.94-6.46a7,7,0,0,1,7.22-6.81S39.26,35.05,73.5,49.83c0,0,5.58,1.76-3,2.59-5.11.48-10.11,1.68-15.28,2a81,81,0,0,1-21.09-1.13C31,52.65,26.85,51.81,23.84,50Z"/><path class="cls-5" d="M75.28,51.28c0,.18-.13.37-.49.56-4.13.2-8,.29-11.6.29C37.3,52.13,25,47.42,20,44.55c0-.26-.05-.51-.05-.78,0,3,1.64,5,3.94,6.46,3,1.85,7.14,2.69,10.25,3.33a81,81,0,0,0,21.09,1.13c5.17-.32,10.17-1.52,15.28-2C74.27,52.32,75.31,51.78,75.28,51.28Z"/><path class="cls-6" d="M74.79,51.84c1.16-.59,0-1.23-.78-1.54-34.74,1.57-49.27-4.74-54-7.62a6.59,6.59,0,0,0-.1,1.09c0,.27,0,.52.05.78C25,47.42,37.3,52.13,63.19,52.13,66.79,52.13,70.66,52,74.79,51.84Z"/><path class="cls-7" d="M38.66,48.31s1.82,12.79,5.46,18.77,6.19,4.46,6.43-2.34.13-15.26.13-15.26S46.91,46.32,38.66,48.31Z"/><path class="cls-8" d="M66.7,51.7s1.93,5,4.43,7.14S75,60.09,74.64,57.3s-1-6.22-1-6.22S71.29,50.14,66.7,51.7Z"/><path class="cls-8" d="M73.5,50.1l.24.09c0-1.27.09-3.15.05-4.81-.06-2.81-1.52-3.48-3.7-1.07a12.65,12.65,0,0,0-2,3.51C69.8,48.53,71.61,49.29,73.5,50.1Z"/><path class="cls-7" d="M53.27,42c.59-2.52,1.56-6.91,2.28-11.57.9-5.78-.11-7.52-4.67-3.5-3.22,2.86-6.59,8.73-8.28,11.92C45.64,39.64,49.18,40.67,53.27,42Z"/><path class="cls-9" d="M68.36,48.6S71.81,51,74.6,51.3l4.24-10.93s.73-1.88-2.55.47A36.61,36.61,0,0,0,68.36,48.6Z"/><path class="cls-10" d="M26.92,38.46c-.55-.27-1.08-.57-1.58-.88A7.24,7.24,0,0,0,21.71,40a14.88,14.88,0,0,0,2.05,1.12A6.81,6.81,0,0,1,26.92,38.46Z"/><path class="cls-10" d="M27.63,38.81a6.22,6.22,0,0,0-3.32,2.57,32.91,32.91,0,0,0,6.79,2,4,4,0,0,0,1-2.77A40.32,40.32,0,0,1,27.63,38.81Z"/><path class="cls-10" d="M34.75,41.49a1.33,1.33,0,1,0,1.38,1.32A1.35,1.35,0,0,0,34.75,41.49Z"/><path class="cls-10" d="M38.53,42.66a1.24,1.24,0,1,0,0,2.47,1.24,1.24,0,1,0,0-2.47Z"/><path class="cls-10" d="M42.32,43.91a1.16,1.16,0,1,0,0,2.31,1.16,1.16,0,1,0,0-2.31Z"/><path class="cls-10" d="M46.1,45.12a1,1,0,0,0-1,1,1,1,0,0,0,1,1,1,1,0,0,0,1-1A1,1,0,0,0,46.1,45.12Z"/><path class="cls-10" d="M49.89,46.33a.87.87,0,0,0-.89.87.9.9,0,1,0,.89-.87Z"/><path class="cls-10" d="M53.67,47.12a.71.71,0,0,0-.72.71.7.7,0,0,0,.73.69.7.7,0,1,0,0-1.4Z"/><path class="cls-10" d="M57.45,48a.54.54,0,1,0,0,1.07.54.54,0,1,0,0-1.07Z"/><path class="cls-10" d="M61.23,48.67a.42.42,0,1,0,0,.83.43.43,0,0,0,.42-.42A.42.42,0,0,0,61.23,48.67Z"/></g></svg>