<svg xmlns="http://www.w3.org/2000/svg" viewBox="0 0 100 100"><defs><style>.cls-1{isolation:isolate;}.cls-2{opacity:0.5;}.cls-3{fill:#ff0;stroke:#494949;stroke-miterlimit:10;}.cls-4{fill:#ffa63b;}.cls-5{fill:#8491c1;}.cls-6{fill:#6477ad;}.cls-7{fill:#bc804d;opacity:0.25;mix-blend-mode:multiply;}.cls-8{fill:#373448;}.cls-9{fill:#515469;}.cls-10{fill:#586ea0;}.cls-11{fill:#a6afc9;}.cls-12{fill:#3e5584;}.cls-13{fill:#292838;}.cls-14{fill:#dd7637;}.cls-15{fill:#ff9c56;}.cls-16{fill:#be531e;}.cls-17{fill:#bfc9e0;}.cls-18{fill:#343043;}.cls-19{fill:#626378;}.cls-20{fill:#aeb6cc;}</style></defs><g class="cls-1"><g id="Layer_1" data-name="Layer 1"><g id="Tent_Icon" data-name="Tent Icon"><ellipse class="cls-2" cx="50.49" cy="51.91" rx="42.26" ry="40.84"/><ellipse class="cls-3" cx="49.51" cy="48.09" rx="42.26" ry="40.84"/><ellipse class="cls-4" cx="49.51" cy="48.09" rx="36.16" ry="34.95"/><path class="cls-5" d="M64.42,35.2a80,80,0,0,1-13.11,1.32,41.36,41.36,0,0,1-11-1.43L20.86,60.61H48.35L59.49,45.55Z"/><path class="cls-6" d="M37.21,54.36c12.76,1,18.66-5.72,18.66-5.72l-.18,2-7.34,9.93H20.86l8.45-11.08S29.89,53.76,37.21,54.36Z"/><path class="cls-6" d="M64.42,35.2,59.49,45.55,48.35,60.61H40.56C50.08,54.9,57,42.2,57.85,36.15c1.59-.16,3.2-.39,4.43-.59S64.42,35.2,64.42,35.2Z"/><path class="cls-7" d="M48.68,56a18.51,18.51,0,0,1-8.47,2.59S46.11,60.21,48.68,56Z"/><path class="cls-7" d="M26.3,54.71s.24,3,4.83,4C31.13,58.73,25,58.91,26.3,54.71Z"/><polygon class="cls-8" points="49.13 59.55 48.35 60.61 20.86 60.61 21.66 59.55 49.13 59.55"/><path class="cls-8" d="M17.9,59.89a.11.11,0,0,0,.09,0L40.41,35.16a.1.1,0,0,0,0-.15.11.11,0,0,0-.16,0L17.82,59.71a.1.1,0,0,0,0,.15A.11.11,0,0,0,17.9,59.89Z"/><path class="cls-6" d="M40.47,35.13a42.32,42.32,0,0,0,10.84,1.39A80,80,0,0,0,64.42,35.2l0,.08C53.49,44.05,36,41.56,40.47,35.13Z"/><polygon class="cls-8" points="40.13 43.9 49.95 43.9 44.72 51.18 34.9 51.18 40.13 43.9"/><polygon class="cls-9" points="40.45 44.41 48.9 44.41 44.4 50.67 35.95 50.67 40.45 44.41"/><polygon class="cls-10" points="64.42 35.2 47.1 60.61 78.92 60.61 64.42 35.2"/><path class="cls-11" d="M57.08,46,64.42,35.2l10.2,17.88a17.44,17.44,0,0,1-11.16-1.86A18.34,18.34,0,0,1,57.08,46Z"/><path class="cls-12" d="M64.42,35.2a11.87,11.87,0,0,0-.11,2.62c.33,4.61,1.87,15.07,7.25,22.79h1l2.8-1.19S67,47.51,64.42,35.2Z"/><path class="cls-12" d="M64.42,35.2a16.44,16.44,0,0,1-.11,2.66c-.6,4.81-2.65,15.91-8,22.75H54.76l-3-1.41A87.55,87.55,0,0,0,64.42,35.2Z"/><polygon class="cls-9" points="78.32 59.56 78.92 60.61 47.08 60.61 47.81 59.56 78.32 59.56"/><path class="cls-8" d="M75.07,59.56l-2.47,1h-1c-.24-.35-.47-.7-.7-1Z"/><path class="cls-8" d="M57.1,59.56c-.25.36-.5.71-.77,1H54.76l-2.27-1Z"/><polygon class="cls-8" points="71.56 60.61 56.3 60.61 64.31 37.82 71.56 60.61"/><path class="cls-13" d="M59.72,60.61H56.3l8-22.79,3.13,9.85C64.08,49.54,60.05,55,59.72,60.61Z"/><rect class="cls-14" x="63.96" y="37.49" width="0.62" height="23.12" transform="translate(128.54 98.1) rotate(180)"/><path class="cls-15" d="M64.58,37.49V60.61h-.13c.07-5.85,0-14.17,0-23.12Z"/><path class="cls-16" d="M64.17,37.49c.09,7.94.1,15.67,0,23.12H64V37.49Z"/><path class="cls-14" d="M16.53,60.61H17.9l.19-1.51a3.1,3.1,0,0,0-1.75,0Z"/><path class="cls-15" d="M18.09,59.1l-.19,1.51h-.22a3,3,0,0,1,.18-1.56Z"/><path class="cls-16" d="M17.32,59a2.34,2.34,0,0,0-.62.12,3.48,3.48,0,0,1,.1,1.51h-.27l-.19-1.51A2.4,2.4,0,0,1,17.32,59Z"/><path class="cls-8" d="M18,60.24A.11.11,0,1,0,18,60a4.38,4.38,0,0,1-1.55-.4.13.13,0,0,0-.15,0,.12.12,0,0,0,.06.15,4.55,4.55,0,0,0,1.63.41Z"/><path class="cls-8" d="M16.43,60.26h0a4.21,4.21,0,0,0,1.69-.4.11.11,0,1,0-.09-.19,4,4,0,0,1-1.61.38.11.11,0,0,0-.11.11A.11.11,0,0,0,16.43,60.26Z"/><path class="cls-8" d="M40,45.41a1,1,0,0,1-.66-.44l.78-1.07H50l-1.24,1.71c-1.26.22-2.66-.57-4.4-.68C42.76,44.84,41.15,45.64,40,45.41Z"/><path class="cls-11" d="M49.71,42.15c-1.48-.24-4.31.5-5.1.5s-3-.56-3.9-.58a1.37,1.37,0,0,0-1.54,1.19A1.07,1.07,0,0,0,40,44.49c1.18.25,3.82-.2,4.75-.18.67,0,3.16.74,4.53.35Z"/><path class="cls-6" d="M39.75,44.22c1.25.26,3.75-.64,4.73-.59,1.52.08,3.41,1.07,4.84.82l0,.21c-1.37.39-3.86-.34-4.53-.35-.93,0-3.57.43-4.75.18a1,1,0,0,1-.66-.43A1.17,1.17,0,0,0,39.75,44.22Z"/><path class="cls-17" d="M48.41,43.1a.48.48,0,0,1,.08-.16l.06-.11a1.06,1.06,0,0,1,1.34-.6,1,1,0,0,1,.26,1.43h.29a1.59,1.59,0,0,1-1.16,1C48.47,44.74,48.18,43.88,48.41,43.1Z"/><path class="cls-18" d="M44.86,44.48a.09.09,0,0,0,.07,0,.09.09,0,0,0,0-.13,1.45,1.45,0,0,1-.33-.92,1.52,1.52,0,0,1,.24-.78.11.11,0,0,0,0-.13.1.1,0,0,0-.14,0,1.68,1.68,0,0,0-.26.88,1.56,1.56,0,0,0,.38,1.05A.11.11,0,0,0,44.86,44.48Z"/><path class="cls-18" d="M44.12,44.53l.06,0a.11.11,0,0,0,0-.14,1.18,1.18,0,0,1-.17-1,1.07,1.07,0,0,1,.6-.72.09.09,0,0,0-.07-.17,1.23,1.23,0,0,0-.72.85A1.35,1.35,0,0,0,44,44.49.12.12,0,0,0,44.12,44.53Z"/><path class="cls-12" d="M49.11,42.68a.59.59,0,0,1,.64,0,.6.6,0,0,1,.17.75.5.5,0,0,1-.63.32.1.1,0,0,1-.06-.11.11.11,0,0,1,.11-.06.33.33,0,0,0,.42-.22c.07-.18.06-.45-.09-.53a.43.43,0,0,0-.46,0,1.15,1.15,0,0,0-.42,1,.44.44,0,0,0,.28.38,1,1,0,0,0,1.08-.54h.2a1.24,1.24,0,0,1-1.09.75.66.66,0,0,1-.25-.05.58.58,0,0,1-.39-.52A1.31,1.31,0,0,1,49.11,42.68Z"/><path class="cls-17" d="M48.3,42.38c.31.27-.51.64-1.35.72s-1.59,0-1.66-.21A7.61,7.61,0,0,1,48.3,42.38Z"/><path class="cls-17" d="M43.18,42.69c.06.28-1.15.37-2.27.18-.68-.11-.83-.35-.62-.51s1-.06,1.72,0S43.16,42.61,43.18,42.69Z"/><path class="cls-19" d="M40.46,45.93A18.62,18.62,0,0,1,44,45.42a18,18,0,0,1,3.06.62l-2,2.62C42.49,48.73,40.31,47.51,40.46,45.93Z"/><path class="cls-7" d="M55.45,37.75a15.44,15.44,0,0,1-8.82,1.94c-4-.28-4.8-2.53-4.8-2.53A12.22,12.22,0,0,0,47,38.61,27.32,27.32,0,0,0,55.45,37.75Z"/><path class="cls-7" d="M47.76,37.75a8.12,8.12,0,0,1-4.51-.88c-.15-.07,0-.29.14-.22a11.22,11.22,0,0,0,4.36,1c.06,0,.09.12,0,.13Z"/><path class="cls-7" d="M45.43,55.45A17,17,0,0,1,34,57.89c-5-.71-5.89-4.35-5.89-4.35a12.72,12.72,0,0,0,6.4,2.85A26.83,26.83,0,0,0,45.43,55.45Z"/><polygon class="cls-9" points="65.34 42.71 63.32 42.71 64.42 38.53 65.34 42.71"/><path class="cls-6" d="M64.42,35.2v3.59c-.61,4.81-2.76,15-8.09,21.82a5.84,5.84,0,0,0-3-1.47A86.56,86.56,0,0,0,64.42,35.2Z"/><path class="cls-6" d="M64.42,35.2a11.68,11.68,0,0,0,0,3.59c.32,4.61,1.76,14.1,7.14,21.82a8.84,8.84,0,0,1,3.12-1.43S66.79,48.06,64.42,35.2Z"/><path class="cls-20" d="M67.47,52.76a50.34,50.34,0,0,1-3-14,11.68,11.68,0,0,1,0-3.59,63.59,63.59,0,0,0,6.72,18.13A17.23,17.23,0,0,1,67.47,52.76Z"/><path class="cls-20" d="M61.72,50.22a20,20,0,0,1-2.32-1.74,79,79,0,0,0,5-13.28v3.59A58.75,58.75,0,0,1,61.72,50.22Z"/><path class="cls-17" d="M53.36,59.14A87.84,87.84,0,0,0,62.75,40.5c-1.16,4-4.11,12.85-8.68,18.81A5.26,5.26,0,0,0,53.36,59.14Z"/><path class="cls-17" d="M65.44,39.57a71.59,71.59,0,0,0,9.24,19.61c-.24.06-.49.13-.73.21A71.77,71.77,0,0,1,65.44,39.57Z"/><polygon class="cls-9" points="65.34 36.56 63.32 36.56 64.42 35.2 65.34 36.56"/><path class="cls-8" d="M81.12,59.74l.06,0a.1.1,0,0,0,0-.15L64.51,35.14a.12.12,0,0,0-.16,0,.11.11,0,0,0,0,.15L81,59.69A.12.12,0,0,0,81.12,59.74Z"/><path class="cls-8" d="M44.61,59.81a.11.11,0,0,0,.09,0l19.8-24.5a.1.1,0,0,0,0-.15.1.1,0,0,0-.15,0L44.52,59.64a.11.11,0,0,0,0,.15A.1.1,0,0,0,44.61,59.81Z"/><path class="cls-14" d="M44.5,60.61l.24-1.92A4.43,4.43,0,0,0,43,59l.17,1.62Z"/><path class="cls-15" d="M44.54,58.69h.2l-.24,1.92h-.2a3.62,3.62,0,0,1,.24-1.92Z"/><path class="cls-16" d="M44.74,58.69h0a3.35,3.35,0,0,0-1.32.29,5.59,5.59,0,0,1,.12,1.62h-.41L43,59A4.43,4.43,0,0,1,44.74,58.69Z"/><path class="cls-14" d="M80.73,60.61l.09-1.51a2.75,2.75,0,0,1,1.71,0l-.37,1.47Z"/><path class="cls-15" d="M82.53,59.14l-.37,1.47H82a2.87,2.87,0,0,1,.37-1.54Z"/><path class="cls-16" d="M80.82,59.1A3,3,0,0,1,82,59a2.84,2.84,0,0,0-.75.12,4.52,4.52,0,0,1-.08,1.48h-.48Z"/><path class="cls-8" d="M44.18,59.66a4.41,4.41,0,0,0,.52,0,.11.11,0,1,0,0-.21A4.13,4.13,0,0,1,43,59.26a.11.11,0,0,0-.14.07.12.12,0,0,0,.07.14A4.27,4.27,0,0,0,44.18,59.66Z"/><path class="cls-8" d="M43.06,60.28a3.76,3.76,0,0,0,1.65-.35.11.11,0,0,0-.11-.19,3.65,3.65,0,0,1-1.58.33.11.11,0,1,0,0,.21Z"/><path class="cls-8" d="M44.61,60.3a.11.11,0,0,0,.11-.08.12.12,0,0,0-.08-.13L43,59.68a.11.11,0,0,0-.13.08.1.1,0,0,0,.08.13l1.61.41Z"/><path class="cls-8" d="M82.37,60.21a.12.12,0,0,0,.11-.08.1.1,0,0,0-.07-.13l-1.58-.54a.11.11,0,0,0-.08.2l1.58.54Z"/><path class="cls-8" d="M80.78,60.16h0l1.65-.34a.09.09,0,0,0,.08-.12.11.11,0,0,0-.13-.09l-1.64.34a.12.12,0,0,0-.09.13A.12.12,0,0,0,80.78,60.16Z"/></g></g></g></svg>