<svg xmlns="http://www.w3.org/2000/svg" viewBox="0 0 100 100"><defs><style>.cls-1{isolation:isolate;}.cls-12,.cls-2{opacity:0.5;}.cls-3{fill:#ff0;stroke:#494949;stroke-miterlimit:10;}.cls-4{fill:#ffa63b;}.cls-5{fill:#4f0051;}.cls-6{fill:#278404;}.cls-7{fill:#4fb723;}.cls-8{fill:#195600;}.cls-9{fill:#247200;}.cls-10{fill:#37ce05;}.cls-11{fill:#57f930;}.cls-12{fill:#c33325;mix-blend-mode:multiply;}.cls-13{opacity:0.2;}.cls-14{fill:#fff;}</style></defs><g class="cls-1"><g id="Layer_1" data-name="Layer 1"><g id="Wistel_Icon" data-name="Wistel Icon"><ellipse class="cls-2" cx="50.5" cy="51.93" rx="42.25" ry="40.82"/><ellipse class="cls-3" cx="49.5" cy="48.07" rx="42.25" ry="40.82"/><ellipse class="cls-4" cx="49.5" cy="48.07" rx="36.16" ry="34.93"/><g class="cls-1"><path class="cls-5" d="M72.84,37.3v-.18h0a2.23,2.23,0,0,0,0-.23.76.76,0,0,0-.51-.61l-2.68-.73a.8.8,0,0,1,.52.62.91.91,0,0,1,0,.23.74.74,0,0,1,0,.21v0a1.42,1.42,0,0,1,0,.2h0a.76.76,0,0,1-.06.2v0a1.08,1.08,0,0,1-.08.19l0,0-.07.12-.09.11-.07.08,0,0-.15.12a.61.61,0,0,1-.14.07h0a.19.19,0,0,1-.1,0h0a.25.25,0,0,1-.12,0h0a.34.34,0,0,1-.14,0l2.68.73H72l.06,0h0l.12,0,0,0,.15-.12,0,0,0,0,0-.05a.76.76,0,0,0,.08-.11l0,0a.25.25,0,0,0,0-.07l0,0v0a.42.42,0,0,0,.06-.14v0l0,0a.14.14,0,0,1,0-.06c0-.05,0-.09,0-.13h0a.5.5,0,0,0,0-.12.19.19,0,0,0,0-.08V37.3Z"/><path class="cls-6" d="M74.68,35.66a2.41,2.41,0,0,0-1.76-2h0l-.24,0h-.32l-.12,0h-.1a.58.58,0,0,0-.14,0h-.08l-.26.1-.09,0-.1.05-.09.06-.15.08-1.74,1.14-2.06,1.34L69,43.23l3.8-2.48a4.44,4.44,0,0,0,1.6-2A5.09,5.09,0,0,0,74.68,35.66Zm-1.91,2,0,.07a1,1,0,0,1-.1.24.75.75,0,0,1-.07.12v0a1.58,1.58,0,0,1-.12.15h0l0,0-.2.17-.09,0,0,0-.1,0-.08,0h-.25a.77.77,0,0,1-.56-.63,1.61,1.61,0,0,1,.61-1.62l.11-.06h0l.18-.06h.25l.06,0,.08,0,.08,0,.08.06s0,0,0,.05a1.1,1.1,0,0,1,.14.21,1,1,0,0,1,0,.1l0,.12a.5.5,0,0,1,0,.12s0,.07,0,.1a1.8,1.8,0,0,1,0,.4A1.16,1.16,0,0,1,72.77,37.68Z"/><path class="cls-7" d="M73.05,33.72l-.13,0h0l-.24,0h-.32l-.18,0h0a.58.58,0,0,0-.14,0h-.1a2.34,2.34,0,0,0-.24.09l-.19.09-.24.14-1.74,1.14-2.06,1.34-2.67-.73,2.16-1.4,1.63-1.07.1-.06,0,0,.2-.1.09,0,.24-.09,0,0h0l.17,0h.08l.09,0h0l.29,0h0a1,1,0,0,1,.25,0h0l.13,0Z"/></g><g class="cls-1"><path class="cls-8" d="M48.72,33.82C53,34.38,55.66,34.71,61,39s-7.27,11.85-23,8.92h0l-2.52-5.36Z"/><path class="cls-9" d="M36.76,54.24,22.5,50.39,24.06,57l14.26,3.85Zm-12.9-2.47,12,3.25L37,59.46l-12-3.25Z"/><path class="cls-6" d="M56.13,55.46a12.8,12.8,0,0,1-.31-1.66c-.28-2.13-2-3.09-3.59-2l-7.51,4.89c1.74,1.58,1.61,1.27,17.17,5.48h0C59.22,61.42,57,59.07,56.13,55.46Z"/><path class="cls-10" d="M62.72,37.33c5.33-3.48,11-1.07,12.53,5.53s-1.53,14.55-6.8,18L68,61.1c-5.1,3-10.36.52-11.9-5.64a12.8,12.8,0,0,1-.31-1.66c-.28-2.13-2-3.09-3.59-2L38.32,60.84l-1.55-6.6Z"/><path class="cls-11" d="M69.46,36s-14.53-4-15.82-4.08c-3.47-.15-3.44.44-31.14,18.49l14.27,3.85L62.72,37.33A8.33,8.33,0,0,1,69.47,36ZM50.73,43.92,39,40.76,44.74,37,56.5,40.19Z"/><polygon class="cls-10" points="39.01 40.76 40.3 41.11 44.74 38.21 44.74 37.02 39.01 40.76"/><polygon class="cls-9" points="56.5 40.19 55.2 41.03 44.74 38.21 44.74 37.02 56.5 40.19"/><polygon class="cls-8" points="36.96 59.46 24.91 56.21 29.42 53.27 35.91 55.02 36.96 59.46"/><polygon class="cls-6" points="29.42 53.27 24.91 56.21 23.86 51.77 29.42 53.27"/></g><ellipse class="cls-11" cx="66.33" cy="49.72" rx="9.84" ry="6.88" transform="translate(-0.72 98.46) rotate(-72.87)"/><path class="cls-12" d="M59.43,54.22c-1.11-4.7,1.08-10.52,4.89-13a6,6,0,0,1,4.37-1c-1.56-.45-7.6-.32-9.81,7.75-1.44,5.25.56,11.53,5.51,11.39C62.08,59.09,60.15,57.26,59.43,54.22Z"/><g class="cls-13"><path class="cls-14" d="M64.51,42.13a5.92,5.92,0,0,1,4-.92c2.4.4,4.34,2.74,4,4.44a1.46,1.46,0,0,1-.47,1c-.83.54-2.4-1.61-4.31-1.82-2.64-.29-5.65,1.41-4.85-.86A3.93,3.93,0,0,1,64.51,42.13Z"/></g></g></g></g></svg>