<svg id="Layer_1" data-name="Layer 1" xmlns="http://www.w3.org/2000/svg" xmlns:xlink="http://www.w3.org/1999/xlink" viewBox="0 0 100 100"><defs><style>.cls-1{mask:url(#mask);}.cls-2{opacity:0.8;mix-blend-mode:multiply;fill:url(#linear-gradient);}.cls-11,.cls-3{opacity:0.5;}.cls-4{fill:#ff0;stroke:#494949;stroke-miterlimit:10;}.cls-5{fill:#ffa63b;}.cls-6{fill:#960000;}.cls-7{fill:red;}.cls-8{fill:#b70000;}.cls-9{mask:url(#mask-2);}.cls-10,.cls-11{fill:#fff;}.cls-10{opacity:0.3;}.cls-12{filter:url(#luminosity-noclip);}</style><filter id="luminosity-noclip" x="35.44" y="-8131.12" width="24.7" height="32766" filterUnits="userSpaceOnUse" color-interpolation-filters="sRGB"><feFlood flood-color="#fff" result="bg"/><feBlend in="SourceGraphic" in2="bg"/></filter><mask id="mask" x="35.44" y="-8131.12" width="24.7" height="32766" maskUnits="userSpaceOnUse"><g class="cls-12"/></mask><linearGradient id="linear-gradient" x1="1091.14" y1="147.65" x2="1100.78" y2="164.49" gradientTransform="translate(-993.7 -342.51) rotate(11.71)" gradientUnits="userSpaceOnUse"><stop offset="0" stop-color="#fff"/><stop offset="1"/></linearGradient><mask id="mask-2" x="35.44" y="22.98" width="24.7" height="19.69" maskUnits="userSpaceOnUse"><g class="cls-1"><path class="cls-2" d="M59.79,29.27C61.4,34.34,57.33,40,50.7,42s-13.3-.55-14.91-5.62,2.47-10.77,9.09-12.73S58.18,24.21,59.79,29.27Z"/></g></mask></defs><g id="Balloons"><ellipse class="cls-3" cx="50.49" cy="51.91" rx="42.26" ry="40.84"/><ellipse class="cls-4" cx="49.51" cy="48.09" rx="42.26" ry="40.84"/><ellipse class="cls-5" cx="49.51" cy="48.09" rx="36.16" ry="34.95"/><path class="cls-6" d="M46.88,79.54a19,19,0,0,1,3.62-2.72c1.68-1.21,2.84-3.24,2.07-5.26-.63-1.66-1.83-3-2.72-4.49-.47-.81-1-2.13-.4-3h0c-.05.08.09.34,0,.45a.91.91,0,0,0-.14.88c.55,1.65,2,3,2.75,4.5a6.41,6.41,0,0,1,.83,3.6,5.54,5.54,0,0,1-2.25,3.89,29.83,29.83,0,0,0-3.42,2.24Z"/><path class="cls-6" d="M49.19,64.52c0-.68-.69-1.46.44-1.46s.45.78.45,1.46-.2,1.22-.44,1.22S49.19,65.19,49.19,64.52Z"/><path class="cls-7" d="M51.35,65.18a1.91,1.91,0,0,0-.57-.69,1.62,1.62,0,0,0-.39-.3,1.58,1.58,0,0,0-.49,0,4.56,4.56,0,0,0-.52,0,.73.73,0,0,0-.33,0,.18.18,0,0,0-.07,0,2.6,2.6,0,0,0-.58.41c-.22.19-.81.75-.64,1.07s.55.19.75.14.46-.23.67-.13.22.34.45.41.26-.09.34-.25.21-.32.44-.25.42.32.69.25S51.45,65.4,51.35,65.18Z"/><path class="cls-8" d="M49.83,64.32c-.18,0-.38,0-.5,0s-.48.06-.39-.29c0-.17.24-.14.34-.15s.22,0,.34-.05a.6.6,0,0,1,.39.07c.06,0,.28,0,.31,0C50.56,64.21,50,64.35,49.83,64.32Z"/><path class="cls-8" d="M51.31,65.39c0-.26-.45-.4-.69-.36a5.71,5.71,0,0,1-.92.16c-.35,0-.72-.12-1.07-.11s-1,.26-.76.62l0,0c.25.35.67.1,1,0,.14,0,.37-.08.48,0s.29.46.46.27.49-.54.89-.31.72.19.65-.27C51.28,65.19,51.32,65.5,51.31,65.39Z"/><path class="cls-7" d="M66,40.31c0,10.23-6.7,23.25-16.82,23.25-8.38,0-16.83-13-16.83-23.25s7.54-18.53,16.83-18.53S66,30.08,66,40.31Z"/><g class="cls-9"><path class="cls-10" d="M59.79,29.27C61.4,34.34,57.33,40,50.7,42s-13.3-.55-14.91-5.62,2.47-10.77,9.09-12.73S58.18,24.21,59.79,29.27Z"/></g><path class="cls-11" d="M36.54,38a7.5,7.5,0,0,1-.88-5.56A17.2,17.2,0,0,1,40,28.15c.42.88.86,1.76,1.34,2.65A13.76,13.76,0,0,0,36.54,38Zm8-12.87a31.61,31.61,0,0,0-2.91,1.79c.27.95.58,1.92.92,2.88a30.07,30.07,0,0,1,2.73-1.94C45,26.91,44.73,26,44.52,25.1Zm-1.69,5.48c.3.79.62,1.58,1,2.37a29.43,29.43,0,0,1,2.5-2.09c-.29-.76-.55-1.51-.8-2.26A30.21,30.21,0,0,0,42.83,30.58Zm-1.13,1a13.21,13.21,0,0,0-4.5,7.38,9.16,9.16,0,0,0,2.15,1.9A12.14,12.14,0,0,1,43,33.7C42.52,33,42.1,32.26,41.7,31.54Z"/></g></svg>