<svg id="Layer_1" data-name="Layer 1" xmlns="http://www.w3.org/2000/svg" viewBox="0 0 100 100"><defs><style>.cls-1{opacity:0.5;}.cls-2{fill:#ff0;stroke:#494949;stroke-miterlimit:10;}.cls-3{fill:#ffa63b;}.cls-4{fill:#ffe6ae;}.cls-5{fill:#ccb681;}.cls-6{fill:#fcecb9;}.cls-7{fill:#7b9122;}.cls-8{fill:#f4f2ed;}.cls-9{fill:#323232;opacity:0.3;}.cls-10{fill:#e8e7e6;}.cls-11{fill:#dd0a24;}.cls-12{fill:#af0e29;}</style></defs><g id="Coconut_Icon" data-name="Coconut Icon"><ellipse class="cls-1" cx="50.49" cy="51.91" rx="42.26" ry="40.84"/><ellipse class="cls-2" cx="49.51" cy="48.09" rx="42.26" ry="40.84"/><ellipse class="cls-3" cx="49.51" cy="48.09" rx="36.16" ry="34.95"/><g id="Coconut"><path class="cls-4" d="M31.14,39a4.61,4.61,0,0,0-.63.77,24.4,24.4,0,0,0-3.46,6.09,12.66,12.66,0,0,0,1.22,10.39,14.88,14.88,0,0,0,8.57,6.48c3.77,1.12,7.82.83,11.74.41A58.3,58.3,0,0,0,63.6,60a2.67,2.67,0,0,0,1.63-1.24,2.62,2.62,0,0,0,.12-1l-.08-9.66a8.72,8.72,0,0,0-.13-2.45,9,9,0,0,0-.93-1.61c-1.51-2.56-5.3-8-5.65-8a28.73,28.73,0,0,0-3.09-.64A35.24,35.24,0,0,0,51,35.05a59.76,59.76,0,0,0-17.84,3.06l-.69.21a4.39,4.39,0,0,0-1.13.49Z"/><path class="cls-5" d="M27.09,45.36A28.71,28.71,0,0,0,28,61.44,23,23,0,0,0,38.31,74.2c.78.3,3.53,1.92,6.8,1.64,0,0,.13.07.91-.25s3.42-.15,4.25-.28a7.2,7.2,0,0,0,4.07-1.81c1.74-1.51,8.13-5.39,10.83-12.81a21.82,21.82,0,0,0,0-15,15.73,15.73,0,0,1-2.76,4.55C60.47,52.36,59,52.15,59,52.15a16.79,16.79,0,0,0-4.59,1.71s-2.2,1.06-6.61.83-8.4-.3-10.32-2.09c0,0-.44-1.16-2.1-.76s-6.93.1-7.86-2.77A5.62,5.62,0,0,1,27.09,45.36Z"/><path class="cls-6" d="M27.05,45.51a31,31,0,0,0,1.14,16.25A23,23,0,0,0,38.54,74.52a13.41,13.41,0,0,0,6.79,1.64s.13.08.91-.25,3.42-.15,4.25-.28a7.12,7.12,0,0,0,4.08-1.81C56.31,72.31,62.7,68.43,65.4,61a21.53,21.53,0,0,0-.13-15,14.29,14.29,0,0,1-2.67,4.55c-1.9,2.15-3.39,1.93-3.39,1.93a16.79,16.79,0,0,0-4.59,1.71S52.41,55.24,48,55s-8.53-.39-10.45-2.18a1.89,1.89,0,0,0-2-.66c-1.66.4-7.16.1-8.09-2.77A6.26,6.26,0,0,1,27.05,45.51Z"/><path class="cls-7" d="M27.09,45.28A30.67,30.67,0,0,0,27.89,62,23.1,23.1,0,0,0,38.33,74.81c.79.3,3.56,1.91,6.86,1.64,0,0,.13.07.91-.26s3.46-.15,4.3-.27a7.25,7.25,0,0,0,4.1-1.82c1.76-1.51,8.21-5.38,10.94-12.8a21.6,21.6,0,0,0,0-15,15.75,15.75,0,0,1-2.79,4.53c-1.92,2.15-3.42,1.93-3.42,1.93a17,17,0,0,0-4.63,1.71s-2.23,1.06-6.68.84S39.4,55,37.47,53.21c0,0-.45-1.16-2.12-.76s-7,.1-7.93-2.77C27.42,49.68,26.52,47,27.09,45.28Z"/><path class="cls-5" d="M58.56,36s.48,3.66-1.24,4.53-9.13,3-9.13,3L40.3,41.3l-.89-.06.86-1.83,2.55-1.1A8.77,8.77,0,0,1,50,34.89,33,33,0,0,1,58.56,36Z"/><path class="cls-6" d="M57.82,36.26s.45,3.38-1.14,4.18-8.43,2.76-8.43,2.76L41,41.14l-.82-.06.79-1.69,2.36-1A8.11,8.11,0,0,1,50,35.22,30.36,30.36,0,0,1,57.82,36.26Z"/><path class="cls-8" d="M57.56,36.34s.44,3.28-1.11,4.06-8.17,2.68-8.17,2.68l-7.07-2-.8-.06.77-1.64,2.28-1a7.89,7.89,0,0,1,6.48-3.06A29.73,29.73,0,0,1,57.56,36.34Z"/><path class="cls-9" d="M58.56,36s.31.08,3.06,4.08c1.57,2.27,3.19,4.83,3.32,5.12s.36.8.46,1.08a21.59,21.59,0,0,1-1.57,18.4,24.85,24.85,0,0,1-1.48,2.16,27.51,27.51,0,0,1-2.89,3.23c-2,1.79-5,4-5,4a7.27,7.27,0,0,1-4.58,1.84,30.41,30.41,0,0,0-3.53.15c-.37,0-.88.46-1.2.36s.2-1.49,4.5-2.32S57.42,67.78,58,66s4.77-14.35,3.67-18.35a28.3,28.3,0,0,0-3.54-7.87S58.84,38.92,58.56,36Z"/><path class="cls-10" d="M41.18,39.39l2.28-1a7.89,7.89,0,0,1,6.48-3.06,29.73,29.73,0,0,1,7.62,1s.44,3.28-1.11,4.06c0,0,.64-2.15-.51-2.6s-8-.23-9.51.78S41.18,39.39,41.18,39.39Z"/><path class="cls-11" d="M50.16,42.53l6.31-17.06s1.72-4.08,5-3,10.06,3.57,10.06,3.57l.62-1.51L61.84,21s-4.9-.91-6.78,3.77-6.77,18.33-6.77,18.33Z"/><path class="cls-12" d="M49.17,42.83,56,24.75s1.77-4.28,5.83-2.87,10,3.53,10,3.53l-.26.66L61.47,22.5s-2.95-1.31-4.94,2.81L50.16,42.53Z"/></g></g></svg>