<svg id="Layer_1" data-name="Layer 1" xmlns="http://www.w3.org/2000/svg" viewBox="0 0 100 100"><defs><style>.cls-1{opacity:0.5;}.cls-2{fill:#ff0;stroke:#494949;stroke-miterlimit:10;}.cls-3{fill:#ffa63b;}.cls-4{fill:#ed4300;}.cls-5{fill:#d33700;}.cls-6{fill:#583a2a;}.cls-7{opacity:0.4;}.cls-8{fill:#ff7d55;}</style></defs><g id="Ball_Icon" data-name="Ball Icon"><ellipse class="cls-1" cx="50.49" cy="51.91" rx="42.26" ry="40.84"/><ellipse class="cls-2" cx="49.51" cy="48.09" rx="42.26" ry="40.84"/><ellipse class="cls-3" cx="49.51" cy="48.09" rx="36.16" ry="34.95"/><ellipse class="cls-4" cx="49.4" cy="47.79" rx="26.03" ry="25.15"/><path class="cls-5" d="M62.94,26.3A24.55,24.55,0,0,1,69,42.45C69,56.34,57.36,67.6,43,67.6a26.49,26.49,0,0,1-13.53-3.66,26.31,26.31,0,0,0,19.95,9c14.37,0,26-11.26,26-25.16A25,25,0,0,0,62.94,26.3Z"/><path class="cls-6" d="M49.5,73c-4.14-1.06-6.23-3.41-8.7-8.21a34.77,34.77,0,0,1-3.47-15.56A44.91,44.91,0,0,1,40,32.91c2.16-5.46,5.64-8.6,10.08-10.27l1.38.08A18.93,18.93,0,0,0,41,33.27a44,44,0,0,0-2.61,15.91c0,9.76,4.1,21.47,12.88,23.7Z"/><path class="cls-6" d="M46.6,56.94c-6.91,0-13.87-1.1-18.59-3-3.37-1.37-3.76-2-4.44-3l-.15-1.59c0,1.19,2.12,2.54,5,3.71,4.2,1.7,10.88,2.94,18.13,2.94,10.09,0,21.63-2.66,28.85-9.49l0,1.18a29.54,29.54,0,0,1-11,6.5,51.31,51.31,0,0,1-13.35,2.66C49.59,56.89,48.09,56.94,46.6,56.94Z"/><path class="cls-6" d="M39.34,46.45A17.81,17.81,0,0,1,35.66,46a6.58,6.58,0,0,1-5.21-5,13.94,13.94,0,0,1,.38-8.12,12.6,12.6,0,0,1,3-5.25l1.58-1c-1.17,1-2.83,4.09-3.56,6.58a14.7,14.7,0,0,0-.37,7.59A5.51,5.51,0,0,0,35.88,45a16.59,16.59,0,0,0,3.42.39c4.6,0,6.7-2.54,9.25-5.6a25.14,25.14,0,0,1,6.81-6.4c8.44-4.92,11.47-4.08,11.86-4l1,.95s-3.86-1.32-12.27,3.88a26.39,26.39,0,0,0-6.57,6.18C46.73,43.63,44.39,46.45,39.34,46.45Z"/><path class="cls-6" d="M38.12,70.51C36.16,69,35.31,66.94,36,65c.35-.93,1.4-2.5,4.53-2.5h0c5.93,0,8.27,1.89,10.52,3.72a11.51,11.51,0,0,0,5.53,2.88,14,14,0,0,0,7.68-.7L63,69.3l-1.16.61a9,9,0,0,1-2.38.51,10,10,0,0,1-3-.3,12.57,12.57,0,0,1-6-3.1c-2.11-1.71-4.3-3.47-9.85-3.48h0c-1.87,0-3.1.63-3.54,1.84-.56,1.49.91,4.42,2.52,5.69Z"/><g class="cls-7"><path class="cls-8" d="M33.91,32.09a14.9,14.9,0,0,0-4.45,10.67,8.28,8.28,0,0,0,2.29,5.76,5.36,5.36,0,0,0,6,1.06,7.21,7.21,0,0,0,2.55-2.81c1.29-2.18,2.28-4.56,4-6.42,2.57-2.74,6.51-4,9-6.89,1-1.19,1.74-2.83,1.14-4.26-1.21-2.87-7.33-3.3-10-2.95C40.6,26.76,36.48,29.44,33.91,32.09Z"/></g></g></svg>