<svg id="Layer_1" data-name="Layer 1" xmlns="http://www.w3.org/2000/svg" viewBox="0 0 100 100"><defs><style>.cls-1{opacity:0.5;}.cls-2{fill:#ff0;stroke:#494949;stroke-miterlimit:10;}.cls-3{fill:#ffa63b;}.cls-4{fill:#42a304;}.cls-5{fill:#296800;}</style></defs><g id="Leaf_Icon" data-name="Leaf Icon"><ellipse class="cls-1" cx="50.49" cy="51.91" rx="42.26" ry="40.84"/><ellipse class="cls-2" cx="49.51" cy="48.09" rx="42.26" ry="40.84"/><ellipse class="cls-3" cx="49.51" cy="48.09" rx="36.16" ry="34.95"/><path class="cls-4" d="M71.05,63a15.68,15.68,0,0,1-21.16,5.89,16.05,16.05,0,0,1-6.42-6.58,12.42,12.42,0,0,1-8-1.44,12.59,12.59,0,0,1-5-16.72c8.83-17.91,30.15-11.95,36.37-23.31C73.43,26.93,79.16,49.47,71.05,63Z"/><path class="cls-5" d="M37.21,77.92a.78.78,0,0,1-1-.92A56.66,56.66,0,0,1,42.8,61.93a.82.82,0,0,1,1.1-.23.75.75,0,0,1,.24,1.06,54.57,54.57,0,0,0-6.37,14.61A.76.76,0,0,1,37.21,77.92Z"/><path class="cls-5" d="M43.7,63.09a.78.78,0,0,1-.93-1.1c2.81-5.13,7.2-8.93,11.45-13.38a.82.82,0,0,1,1.13,0,.76.76,0,0,1,0,1.09c-4.22,4.41-8.53,8.15-11.21,13.05A.82.82,0,0,1,43.7,63.09Z"/><path class="cls-5" d="M64.18,35.19c-2.06,6-4.68,9.71-8.79,14.47a.82.82,0,0,1-1.12.1.76.76,0,0,1-.05-1.15C59.65,43.46,62.09,39.81,64.18,35.19Z"/><path class="cls-5" d="M54.88,48.32l12.4-2.66-12,4.13a.8.8,0,0,1-1-.46A.77.77,0,0,1,54.88,48.32Z"/><path class="cls-5" d="M47.24,55.81l-3.41-14.2,4.93,13.77a.76.76,0,0,1-.49,1A.79.79,0,0,1,47.24,55.81Z"/></g></svg>