<svg id="Layer_1" data-name="Layer 1" xmlns="http://www.w3.org/2000/svg" viewBox="0 0 100 100"><defs><style>.cls-1{opacity:0.5;}.cls-2{fill:#ff0;stroke:#494949;stroke-miterlimit:10;}.cls-3{fill:#ffa63b;}.cls-4{fill:#323232;fill-rule:evenodd;}</style></defs><g id="Bird_Icon" data-name="Bird Icon"><ellipse class="cls-1" cx="50.5" cy="51.93" rx="42.25" ry="40.82"/><ellipse class="cls-2" cx="49.5" cy="48.07" rx="42.25" ry="40.82"/><ellipse class="cls-3" cx="49.5" cy="48.07" rx="36.16" ry="34.93"/><path class="cls-4" d="M52.76,69.13c-3.85,1-3.17-4.46-5.5-6.07S33,57.79,28.15,56.43c-3.79-1.07-2-10.42,4.44-7.42s11.63,7.7,13.23,6.58-1.91-13.28-3.33-18.87.72-9.48,4.34-9.61,6.11,4.53,6,9.42-1.34,17.18,1.13,17.81,6.37-9.26,8.16-11,6.59-4,9.17-2.15,1.53,5.75-.69,7.42C68.74,50,57.67,58.6,56,59.84s-.5,5.25-.63,6.71-.22,2.25-2.61,2.58Zm20.88-29c1.27.56,2.93-1.5,1.64-4.59a8,8,0,0,0-2.52,1.87c-.59.78-.61,1.73.88,2.72Zm-28.3-15C44,25,43.83,22.33,46.69,20.53a7.32,7.32,0,0,1,1,2.9c0,1-.53,1.75-2.32,1.75ZM24.7,51.34c-.52,1-3.17.44-4.36-2.29,1.58-.19,5.17-.59,4.36,2.29ZM53.16,70.57c-1.51.38-.57,2.31.83,3.71.61-1.48,1.18-4.09-.83-3.71Z"/></g></svg>