<svg id="Layer_1" data-name="Layer 1" xmlns="http://www.w3.org/2000/svg" viewBox="0 0 100 100"><defs><style>.cls-1{opacity:0.5;}.cls-2{fill:#ff0;stroke:#494949;stroke-miterlimit:10;}.cls-3{fill:#fca147;}.cls-4{fill:#9b480b;}.cls-5{fill:#ea6a00;}.cls-6{fill:#f28100;}.cls-7{fill:#41c13a;}.cls-8{fill:#008d36;}.cls-9{fill:#fcb98b;}.cls-10{fill:#00732c;}.cls-11{fill:#50d146;}.cls-12{fill:none;}</style></defs><g id="Pumpkin_Icon" data-name="Pumpkin Icon"><ellipse class="cls-1" cx="50.49" cy="51.91" rx="42.26" ry="40.84"/><ellipse class="cls-2" cx="49.51" cy="48.09" rx="42.26" ry="40.84"/><ellipse class="cls-3" cx="49.51" cy="48.09" rx="36.16" ry="34.95"/><path class="cls-4" d="M58.27,32.59a4.68,4.68,0,0,0-4-1.74c-2.23,0-4.07,1-4,2.61a2.46,2.46,0,0,0,3,2.32c1.78-.52,4.07-1.9,4.67-3.1a1.77,1.77,0,0,1,.13-.17Z"/><path class="cls-4" d="M39.41,32.9c.91-1.33,2.91-1.89,4.63-2,2.09-.16,2.87.8,2.9,2.45,0,1.15-.89,3-2.7,2.59s-4-1.72-4.59-2.93l-.13-.17Z"/><path class="cls-4" d="M67.19,32.81a11,11,0,0,0-5.82-1.59c-2.6-.06-6.34-.13-6.88,3-.18,1,.48,1.49,1.49,1.78a14.25,14.25,0,0,0,3.81.14h4.55c1,0,4.34-.56,4.22-1.85l.15.07A9,9,0,0,0,67.19,32.81Z"/><path class="cls-4" d="M73.87,59.29c1.8-.37,2.94-3.85,3.3-5.22,1-3.92,1.15-10-1.06-13.77a16.06,16.06,0,0,0-9.47-7.12c-3.7-.81-7-1.46-10.68.73-1.62,1,.67,1.45,1.93,1.67,2.6.46,4.61.46,7,1.64,3.69,1.79,6.57,3.18,7.76,7,1.58,5.07,1.19,10,1.19,15.18Z"/><path class="cls-5" d="M25.94,59.29c-1.72-.37-2.82-3.85-3.16-5.22-1-3.92-1.1-10,1-13.77a15.46,15.46,0,0,1,9.07-7.12c3.55-.81,6.74-1.46,10.23.73,1.56,1-.64,1.45-1.85,1.67-2.48.46-4.41.46-6.73,1.64C31,39,28.23,40.4,27.09,44.2c-1.52,5.07-1.15,10-1.15,15.18Z"/><path class="cls-6" d="M43.1,33.91a9.56,9.56,0,0,0-3.17-1.29c.11.23,0,.48-.28.77-.52.48-1.35.36-2,.36l.08.08a13.12,13.12,0,0,0,2.39.54c.65.07,1.93.6,2.9.76C43.66,34.85,44,34.46,43.1,33.91Z"/><path class="cls-4" d="M42.56,34.36c-1.49-.73-7-1-9.48,0-3.62,1.46-7.45,4.27-8.72,8A27,27,0,0,0,23.2,49.8a27.15,27.15,0,0,0,.09,3.93,15.74,15.74,0,0,0,.51,3.38,16.84,16.84,0,0,0,.93,1.53c.06.09.17.22.27.35a2,2,0,0,0,.94.54c0-5.13-.36-10.05,1.15-15.08,1.14-3.81,3.89-5.19,7.43-7,2.32-1.18,4.25-1.19,6.73-1.65a5,5,0,0,0,2.27-.77A3.21,3.21,0,0,0,42.56,34.36Z"/><path class="cls-7" d="M52.33,32.1a10.55,10.55,0,0,1-1.07-1.25c-1-1.34-2.29-4.07-1-5.62a2.79,2.79,0,0,1,2.86-.51c.66.29.66-.57.69-1.35a1.92,1.92,0,0,0-.69-1.53c-1.41-1.23-3.88-.21-4.79.38-2.44,1.57-2.24,4.34-1.86,6.67a21.06,21.06,0,0,1,.37,3.49c0,1.85-1.86,2.09-3.58,2.36.28.68,1.58,1,2.26,1.28a9.09,9.09,0,0,1,1.4.8c.56.33.72.16,1.35-.14a4.13,4.13,0,0,1,1.83-.53c1.15,0,2.63.89,3.65.38s1.45-1.06,2.42-1.48c-.32.14-2.28-1.59-2.57-1.83S52.72,32.49,52.33,32.1Z"/><path class="cls-8" d="M56,35a14.9,14.9,0,0,1-2.43-1.81c-.42-.35-.84-.73-1.23-1.12a10.55,10.55,0,0,1-1.07-1.25c-1-1.34-2.29-4.07-1-5.62a1.48,1.48,0,0,1,.61-.44c-2,0-1.86,2.49-1.6,3.74.39,1.83,1.75,3.71,1.26,5.67-.45,1.74-2.88,2-4.67,1.68A6.92,6.92,0,0,0,47.36,37a1.93,1.93,0,0,0,.87-.3,4.13,4.13,0,0,1,1.83-.53c1.15,0,2.63.89,3.65.38.86-.44,1.41-1,2.28-1.41Z"/><path class="cls-5" d="M34.42,69s-4,.27-7.78-6.3a20.62,20.62,0,0,1-2.8-9.73,30.68,30.68,0,0,1,.72-8.76c1.27-4.45,4.81-7.68,9.16-9.43,2.5-1,8-.74,9.48,0s1.36,1.55,1.36,1.55-11.32,7-10.38,18.8S34.42,69,34.42,69Z"/><path class="cls-6" d="M43.2,34.74a8.76,8.76,0,0,0-2.81-.57c.72.17,1.41.5,1.11,1.4a6.47,6.47,0,0,0,1.92,0h.89A2.83,2.83,0,0,0,43.2,34.74Z"/><path class="cls-4" d="M44.56,36.29a1.11,1.11,0,0,0-.29-.75,11.89,11.89,0,0,0-5.58.66C34.8,38,30.28,40.83,28.39,48.78c-1.87,7.8,1,16,4.72,20a4.22,4.22,0,0,0,1.31.21s.7-2.09-.24-13.87S44.56,36.29,44.56,36.29Z"/><path class="cls-5" d="M45.49,72.16s-7.28.73-11.07-3.2a20.72,20.72,0,0,1-4.69-19C31.63,42,35.92,38,39.81,36.2c1.83-.86,7.48-1.46,8.57,1S45.49,72.16,45.49,72.16Z"/><path class="cls-5" d="M65.56,69s4,.27,7.78-6.3,3-13.23,2.09-18.43-6.67-8.49-9.17-9.49-8-.74-9.47,0-1.37,1.55-1.37,1.55,11.32,7,10.38,18.8S65.56,69,65.56,69Z"/><path class="cls-4" d="M72.24,50C70.34,42,66.06,38,62.17,36.2a11.55,11.55,0,0,0-6.59-.46,1,1,0,0,0-.16.55s11.32,7,10.38,18.8S65.56,69,65.56,69a5.48,5.48,0,0,0,2.74-.84A20.87,20.87,0,0,0,72.24,50Z"/><path class="cls-5" d="M54.49,72.16s7.28.73,11.07-3.2a20.69,20.69,0,0,0,4.69-19C68.35,42,64.06,38,60.17,36.2c-1.83-.86-7.48-1.46-8.57,1S54.49,72.16,54.49,72.16Z"/><path class="cls-4" d="M57.8,70.24c3.79-4.47,5.58-13.32,4.39-20.81-1.1-6.84-4.31-12-9.95-13.1-.53.27-.42.37-.64.87-1.1,2.47,2.89,35,2.89,35s.53,0,1.36.06A16.7,16.7,0,0,0,57.8,70.24Z"/><path class="cls-4" d="M41.74,70.24C38,65.77,36.15,56.92,37.35,49.43c1.09-6.84,4.32-12,9.95-13.1.53.27.42.37.64.87,1.1,2.47-1.67,35-1.67,35s-1.75,0-2.58,0A16.7,16.7,0,0,1,41.74,70.24Z"/><path class="cls-5" d="M60.77,49.43c-1.16-7.26-4.12-12.88-10.49-13.54a1.42,1.42,0,0,0-.58,0c-6.37.66-9.33,6.28-10.49,13.54-1.2,7.49.6,16.34,4.39,20.81,2.78,3.28,5.08,4,6.1,4.09a2.11,2.11,0,0,0,.58,0c1-.13,3.32-.81,6.1-4.09C60.17,65.77,62,56.92,60.77,49.43Z"/><path class="cls-5" d="M44,31.29c-1.16,0-3,.31-2.41,1.13.41.61,1.73.92,2.38,1.2,1.18.5,1.69-.13,1.33-1.21A1.5,1.5,0,0,0,44,31.29Z"/><path class="cls-9" d="M58.27,34.77c0,.2.85.35,1.9.35s1.91-.15,1.91-.35-.85-.34-1.91-.34S58.27,34.58,58.27,34.77Z"/><path class="cls-9" d="M58.91,37.64c-.72-.68-3.7-1.78-4.41-1.51-1,.45,1.47.31,3.71,2.47a9.84,9.84,0,0,1,1.76,2c.29.49.52,1.28,1.11,1.48C61.48,40.81,60.53,39.16,58.91,37.64Z"/><path class="cls-9" d="M47.24,38.22c-1.23.27-2.4,1.84-3.12,2.87a12.26,12.26,0,0,0-2,4.66c-.2,1-.57,2.86.12,3.73,1.39,1.74,5.69-7.58,5.86-8.82.11-.78.58-2.4-.57-2.46A.82.82,0,0,0,47.24,38.22Z"/><path class="cls-9" d="M41.24,36.24a1.71,1.71,0,0,0-.58.12A10,10,0,0,0,35,42.23c-.25.65-.16,1.13.61.63a7.77,7.77,0,0,0,1.31-1.38,28.23,28.23,0,0,1,2.75-3A8.55,8.55,0,0,1,42,37.16C43.17,36.67,42.12,36.21,41.24,36.24Z"/><path class="cls-9" d="M37.4,34.8l-.1.05c-1.26-.31-3.21.43-4.24.87a11.19,11.19,0,0,0-2.5,1.41c-1,.63-2.67,2.86-2.15,3.76.87-.3,1.27-1.08,1.89-1.73a15.73,15.73,0,0,1,2.35-1.9,9.51,9.51,0,0,1,3.06-1.38C36.44,35.66,37.66,35.58,37.4,34.8Z"/><path class="cls-10" d="M52.79,24.43l.21.06c.56.26.56-.49.59-1.17A1.67,1.67,0,0,0,53,22c-.23-.2-.79-.52-1.08-.29s.08,1.2.19,1.56A5.51,5.51,0,0,0,52.79,24.43Z"/><path class="cls-11" d="M47.2,24a5.16,5.16,0,0,0-.47,3.12c.37.1.41-1,.47-1.26a5,5,0,0,1,1-2.06c.08-.11,1.34-1.23,1.11-1.33C48.63,22.18,47.54,23.45,47.2,24Z"/><path class="cls-12" d="M46.6,23.62v0a.24.24,0,0,1,.06-.08Z"/></g></svg>