<svg id="Layer_1" data-name="Layer 1" xmlns="http://www.w3.org/2000/svg" viewBox="0 0 100 100"><defs><style>.cls-1{opacity:0.5;}.cls-2{fill:#ff0;stroke:#494949;stroke-miterlimit:10;}.cls-3{fill:#ffa63b;}.cls-4{fill:#323232;}.cls-5{fill:#191919;}</style></defs><g id="Rabbit_Icon" data-name="Rabbit Icon"><ellipse class="cls-1" cx="50.49" cy="51.91" rx="42.26" ry="40.84"/><ellipse class="cls-2" cx="49.51" cy="48.09" rx="42.26" ry="40.84"/><ellipse class="cls-3" cx="49.51" cy="48.09" rx="36.16" ry="34.95"/><path class="cls-4" d="M48,24.35s2.07-6.11,8.29-5.49S59,25.48,59,25.48s3-4.73,6.62-2.7,3.26,8.84,1.16,11.45c0,0,3.66,5.52-2.93,11.71S50.94,60,49.72,66.42s-7.64,12.24-12.23,11.3-7.75-5.25-4.44-14.32,4.56-12,4.85-13.9a157.94,157.94,0,0,0,1.33-17.38C39.47,23.26,45.31,21.23,48,24.35Z"/><path class="cls-5" d="M45,26.09c-1.54.63-4.43,4.61-2.65,9.85,0,0,1,3.43,3,1.24s3-3.69,2.07-6.1S45.63,25.85,45,26.09Z"/><path class="cls-5" d="M50.15,25.75c-.82,3.15-1,6,1.61,5.66s4-2.32,3.89-3.34.62-6.22-.83-6.33S51,22.61,50.15,25.75Z"/><path class="cls-5" d="M58.15,31.61c.73,1.8,1.23,3,2.07,3.36s2.65-.38,3.72-2.92,1.29-5.43.2-6.39S57.41,29.81,58.15,31.61Z"/><path class="cls-5" d="M63.61,36.4C62.12,36,58.8,38.36,58,39s-1.78,4.23-1,6,2.47,0,3.25-.62S68.18,37.61,63.61,36.4Z"/></g></svg>