<svg id="Layer_1" data-name="Layer 1" xmlns="http://www.w3.org/2000/svg" viewBox="0 0 100 100"><defs><style>.cls-1,.cls-6{opacity:0.5;}.cls-2,.cls-4{fill:#ff0;}.cls-2{stroke:#494949;stroke-miterlimit:10;}.cls-3{fill:#ffa63b;}.cls-5{fill:#e2cd0c;}.cls-6{fill:#fff;}.cls-7{fill:#875f29;}</style></defs><g id="Mango_Icon" data-name="Mango Icon"><ellipse class="cls-1" cx="50.49" cy="51.91" rx="42.26" ry="40.84"/><ellipse class="cls-2" cx="49.51" cy="48.09" rx="42.26" ry="40.84"/><ellipse class="cls-3" cx="49.51" cy="48.09" rx="36.16" ry="34.95"/><path class="cls-4" d="M55.66,25.55c-20.77-5.78-21.81,14.92-21.8,27.53,0,12-5,15.13-2.11,19.81s30.71,3.17,35.4-22.61C70.87,29.77,61.12,27.07,55.66,25.55Z"/><path class="cls-5" d="M63.18,29c2.58,3.27,4.22,9,2.42,18.89-4.47,24.7-31,26.15-33.79,21.67a5.12,5.12,0,0,1-.37-1.79c-.92,1.24-.75,3.39.31,5.08,2.94,4.69,30.71,3.17,35.4-22.61C69.34,38.21,66.74,31.89,63.18,29Z"/><path class="cls-6" d="M34.16,53.08a40.75,40.75,0,0,1-1.84,13.13l-.18.72A25.38,25.38,0,0,0,36,54.74c.39-7.28.09-18.83,4.49-23.72s8.11-6.53,14.91-5.21C34.6,20,34.16,40.47,34.16,53.08Z"/><path class="cls-6" d="M41.16,32.92c1.42-3.26,3.59-4.49,4.54-3.81s-2,1.84-3.47,4.61S39.51,36.73,41.16,32.92Z"/><path class="cls-6" d="M39.77,36.5c.39.42-.31,2.61-.7,1.77S39.27,36,39.77,36.5Z"/><path class="cls-7" d="M57.15,20.61a10.55,10.55,0,0,0-2.33,5.56,1.86,1.86,0,0,1,.91.22,12.07,12.07,0,0,1,3.19-5.15A7,7,0,0,1,57.15,20.61Z"/></g></svg>