<svg xmlns="http://www.w3.org/2000/svg" viewBox="0 0 100 100"><defs><style>.cls-1{isolation:isolate;}.cls-2{opacity:0.5;}.cls-3{fill:#ff0;stroke:#494949;}.cls-15,.cls-3{stroke-miterlimit:10;}.cls-4{fill:#ffa63b;}.cls-5{fill:#9a3714;}.cls-6{fill:#c9ffff;}.cls-7{fill:#a5bbc1;opacity:0.3;mix-blend-mode:multiply;}.cls-8{fill:#fff;}.cls-9{fill:#ea2424;}.cls-10{fill:#b52121;}.cls-11{fill:#c4000c;}.cls-12{fill:#8b00d2;}.cls-13{fill:#a12ce5;}.cls-14{fill:#ffa700;}.cls-15{fill:none;stroke:#9a3714;}.cls-16{fill:#ff4833;}.cls-17{fill:#b222a1;}.cls-18{fill:#86251c;}</style></defs><g class="cls-1"><g id="Layer_1" data-name="Layer 1"><g id="Engine_Icon" data-name="Engine Icon"><ellipse class="cls-2" cx="50.5" cy="51.93" rx="42.25" ry="40.82"/><ellipse class="cls-3" cx="49.5" cy="48.07" rx="42.25" ry="40.82"/><ellipse class="cls-4" cx="49.5" cy="48.07" rx="36.16" ry="34.93"/><polygon class="cls-5" points="49.07 77.7 33.18 77.7 41.12 64.4 48.91 62.37 57.02 64.4 64.97 77.7 49.07 77.7"/><path class="cls-6" d="M61.33,16.7a.63.63,0,0,0-.79,0,.81.81,0,0,0-.27.35.53.53,0,0,0-.5.13,1,1,0,0,0-.28.68c0,.1,0,.2,0,.31h0a.64.64,0,0,0-.47.06,1,1,0,0,0-.46.83,1.37,1.37,0,0,0,.1.54.55.55,0,0,0,.35.32.73.73,0,0,0,.78-.35.25.25,0,0,0,.24,0,.6.6,0,0,0,.28-.32l.12.12a.43.43,0,0,0,.56,0,1.09,1.09,0,0,0,.34-.78.94.94,0,0,0-.11-.45.71.71,0,0,0,.31-.42,1.32,1.32,0,0,0,0-.56A.75.75,0,0,0,61.33,16.7Z"/><path class="cls-7" d="M61.53,17.17a.75.75,0,0,0-.2-.47.63.63,0,0,0-.79,0,.81.81,0,0,0-.27.35.53.53,0,0,0-.5.13,1,1,0,0,0-.28.68c0,.1,0,.2,0,.31h0a.64.64,0,0,0-.47.06,1,1,0,0,0-.46.83,1.37,1.37,0,0,0,.1.54.55.55,0,0,0,.35.32.73.73,0,0,0,.78-.35.25.25,0,0,0,.24,0,.6.6,0,0,0,.28-.32l.12.12a.43.43,0,0,0,.56,0,1.09,1.09,0,0,0,.34-.78.94.94,0,0,0-.11-.45.71.71,0,0,0,.31-.42A1.32,1.32,0,0,0,61.53,17.17ZM61,18.28c0,.27-.16.61-.41.63a.28.28,0,0,1-.27-.17.7.7,0,0,1-.29.5.24.24,0,0,1-.28,0,.81.81,0,0,1-.12.18c-.23.26-.64.49-.85,0a.8.8,0,0,1,.29-1,.48.48,0,0,1,.57.1.94.94,0,0,1,.11-.37.68.68,0,0,1-.06-.39c0-.05,0-.09,0-.14a.72.72,0,0,1,.3-.46.33.33,0,0,1,.46.26.28.28,0,0,1,.15,0A.89.89,0,0,1,61,18.28Zm.18-1.18c-.06.18-.3.4-.46.28a.47.47,0,0,1-.08-.45c0-.18.17-.26.31-.23a.18.18,0,0,1,.15.05A.34.34,0,0,1,61.15,17.1Z"/><path class="cls-8" d="M59.21,18.44c-.17,0-.32.18-.4.36a.61.61,0,0,0-.06.37.45.45,0,0,0,0,.32.13.13,0,0,0,.1.08.13.13,0,0,0,.14-.12,1.34,1.34,0,0,0,0-.28C59,19.1,59,19,59,19s-.11,0-.15,0a1.42,1.42,0,0,1,0-.2c0-.18.2-.38.36-.4Z"/><path class="cls-8" d="M60.18,17.2a.48.48,0,0,0-.38.25v0a.59.59,0,0,0-.09.32c0,.12,0,.33.16.33a.07.07,0,0,0,0-.07c0-.1,0-.21,0-.31s0-.23,0-.35,0,0,0,0a.43.43,0,0,1,.24-.14S60.19,17.2,60.18,17.2Z"/><path class="cls-8" d="M59.76,18.26a.19.19,0,0,0,0,.09s0,.09,0,.1,0,0,0,0,0-.05,0-.07a.42.42,0,0,1,0-.1S59.77,18.25,59.76,18.26Z"/><path class="cls-8" d="M60.82,16.85s0,0,0,0l0,0a0,0,0,0,0,0,0s-.06,0-.08.07a.05.05,0,0,0,0,0,.25.25,0,0,0-.08.26s0,.08.06.09.07,0,.08-.06a.36.36,0,0,0,0-.09C60.83,17,60.86,16.91,60.82,16.85Z"/><path class="cls-6" d="M52.09,19.91a.73.73,0,0,0-.4-.34.44.44,0,0,0-.3,0,.43.43,0,0,0-.1-.29.3.3,0,0,0-.44,0A.6.6,0,0,0,50,19a.84.84,0,0,0-.36.68.78.78,0,0,0,.11.49.72.72,0,0,0-.18.24.63.63,0,0,0,.1.65.4.4,0,0,0,.25.15l-.06.12a.89.89,0,0,0-.07.28.49.49,0,0,0-.27,0,.64.64,0,0,0-.36.55.69.69,0,0,0,.27.63.46.46,0,0,0,.55-.22.67.67,0,0,0,.1-.21.56.56,0,0,0,.48.16.92.92,0,0,0,.56-.52.88.88,0,0,0,0-.15,1,1,0,0,0,.88-.46A1.51,1.51,0,0,0,52.09,19.91Z"/><path class="cls-7" d="M52.09,19.91a.73.73,0,0,0-.4-.34.44.44,0,0,0-.3,0,.43.43,0,0,0-.1-.29.3.3,0,0,0-.44,0A.6.6,0,0,0,50,19a.84.84,0,0,0-.36.68.78.78,0,0,0,.11.49.72.72,0,0,0-.18.24.63.63,0,0,0,.1.65.4.4,0,0,0,.25.15l-.06.12a.89.89,0,0,0-.07.28.49.49,0,0,0-.27,0,.64.64,0,0,0-.36.55.69.69,0,0,0,.27.63.46.46,0,0,0,.55-.22.67.67,0,0,0,.1-.21.56.56,0,0,0,.48.16.92.92,0,0,0,.56-.52.88.88,0,0,0,0-.15,1,1,0,0,0,.88-.46A1.51,1.51,0,0,0,52.09,19.91Zm-2.27,2.23c0,.2-.17.47-.36.43a.43.43,0,0,1-.24-.27.47.47,0,0,1,.07-.37c.09-.13.33-.31.45-.17S49.86,22,49.82,22.14Zm2.07-.92a.67.67,0,0,1-.15.14.92.92,0,0,1-.44.22c-.11,0-.29.05-.38,0l-.06.22c-.06.19-.2.47-.4.45s-.28-.22-.26-.43a.2.2,0,0,1-.21,0c-.19-.19-.06-.51.09-.7v0a.45.45,0,0,1-.27-.06c-.25-.17-.14-.55.07-.74a.75.75,0,0,1,.36-1.08.28.28,0,0,1,.25,0,.54.54,0,0,1,.24.41.36.36,0,0,1,.5.15.56.56,0,0,1,.08.2.62.62,0,0,1,.23,0,.63.63,0,0,1,.57.69A1.08,1.08,0,0,1,51.89,21.22Z"/><path class="cls-8" d="M49.61,21.78a.36.36,0,0,0-.29.21.51.51,0,0,0-.06.25.22.22,0,0,0,0,.08.23.23,0,0,0,.09.12.08.08,0,0,0,.09-.05.45.45,0,0,0,0-.2.16.16,0,0,0,0-.1c0-.05-.07,0-.1,0l0,0a.14.14,0,0,1,0-.06.43.43,0,0,1,.23-.23Z"/><path class="cls-8" d="M50.09,21.59h0Z"/><path class="cls-8" d="M50.07,21.36a.08.08,0,0,0-.08,0,.63.63,0,0,1,.12-.32s0,0,0,0a.5.5,0,0,0-.19.41.22.22,0,0,0,0,.16s.05.07.09.06a.13.13,0,0,0,.08-.08s0,0,0,0v-.07s0,0,0,0S50.12,21.39,50.07,21.36Z"/><path class="cls-8" d="M49.94,19.63a.65.65,0,0,1,.29-.43s0,0,0,0a.64.64,0,0,0-.36.63.43.43,0,0,0,0,.05.25.25,0,0,0,0,.19c0,.06.06.1.12.11s.14-.07.16-.14a.88.88,0,0,0,0-.17.44.44,0,0,0,0-.16.1.1,0,0,0-.16,0l-.06,0Z"/><path class="cls-8" d="M51.37,20.49c0-.09-.13,0-.18,0a.39.39,0,0,0-.07.35.17.17,0,0,0,.14.16.08.08,0,0,0,.07-.09.64.64,0,0,1,0-.2A.44.44,0,0,0,51.37,20.49Z"/><path class="cls-6" d="M67,21.6a.88.88,0,0,0-1-.38.85.85,0,0,0-.46.31.69.69,0,0,0-.68-.08,1.08,1.08,0,0,0-.56.72,1.87,1.87,0,0,0-.09.41l0,0a.8.8,0,0,0-.61-.16,1,1,0,0,0-.85.84,1.64,1.64,0,0,0,0,.73,1,1,0,0,0,.36.59.88.88,0,0,0,1.1-.07.41.41,0,0,0,.31.13.7.7,0,0,0,.46-.27,2.12,2.12,0,0,0,.11.21.6.6,0,0,0,.72.29,1.16,1.16,0,0,0,.67-.82,1.26,1.26,0,0,0,0-.64.79.79,0,0,0,.53-.37,1.92,1.92,0,0,0,.19-.72A1.27,1.27,0,0,0,67,21.6Z"/><path class="cls-7" d="M67.06,22.3a1.27,1.27,0,0,0-.11-.7.88.88,0,0,0-1-.38.85.85,0,0,0-.46.31.69.69,0,0,0-.68-.08,1.08,1.08,0,0,0-.56.72,1.87,1.87,0,0,0-.09.41l0,0a.8.8,0,0,0-.61-.16,1,1,0,0,0-.85.84,1.64,1.64,0,0,0,0,.73,1,1,0,0,0,.36.59.88.88,0,0,0,1.1-.07.41.41,0,0,0,.31.13.7.7,0,0,0,.46-.27,2.12,2.12,0,0,0,.11.21.6.6,0,0,0,.72.29,1.16,1.16,0,0,0,.67-.82,1.26,1.26,0,0,0,0-.64.79.79,0,0,0,.53-.37A1.92,1.92,0,0,0,67.06,22.3ZM66,23.44c-.12.33-.39.7-.71.6a.45.45,0,0,1-.3-.35.78.78,0,0,1-.52.5.33.33,0,0,1-.35-.16,1.09,1.09,0,0,1-.22.17c-.37.22-1,.31-1.09-.37s.23-1.15.69-1.16a.74.74,0,0,1,.69.41,1.19,1.19,0,0,1,.26-.42.85.85,0,0,1,0-.53.6.6,0,0,1,.09-.15.81.81,0,0,1,.52-.44c.3,0,.49.24.51.55a.55.55,0,0,1,.18.14A1.29,1.29,0,0,1,66,23.44Zm.6-1.42c-.12.2-.51.36-.67.13a.65.65,0,0,1,0-.62.31.31,0,0,1,.47-.13.31.31,0,0,1,.17.14A.46.46,0,0,1,66.59,22Z"/><path class="cls-8" d="M63.7,22.77c-.22-.11-.48.07-.63.25a.86.86,0,0,0-.19.46.59.59,0,0,0-.05.42c0,.06.05.13.1.15a.17.17,0,0,0,.23-.08c0-.12.05-.24.07-.36a.28.28,0,0,0,0-.24.13.13,0,0,0-.2,0,1,1,0,0,1,.1-.24c.13-.2.38-.39.59-.34Z"/><path class="cls-8" d="M65.32,21.67a.52.52,0,0,0-.56.13l0,0a.72.72,0,0,0-.21.37c0,.15,0,.45.11.5a.07.07,0,0,0,.08-.05c0-.14.08-.27.12-.4S65,22,65,21.83a.06.06,0,0,0-.05-.08.54.54,0,0,1,.35-.06S65.33,21.67,65.32,21.67Z"/><path class="cls-8" d="M64.46,22.81a.28.28,0,0,0-.1.09s-.06.11,0,.13a0,0,0,0,0,0,0,.29.29,0,0,0,0-.1.39.39,0,0,1,.08-.1S64.47,22.8,64.46,22.81Z"/><path class="cls-8" d="M66.25,21.54l0,0,.07-.05s0,0,0,0l-.13,0H66.1a.31.31,0,0,0-.18.3.2.2,0,0,0,0,.15s.09,0,.13,0a.61.61,0,0,1,.07-.1C66.21,21.73,66.28,21.63,66.25,21.54Z"/><path class="cls-6" d="M60.07,21.77a.59.59,0,0,0-.31.52.93.93,0,0,0-.29-.13.67.67,0,0,0-.61.16,1.11,1.11,0,0,0-.28.45l-.09-.13a1.63,1.63,0,0,0-1-.6.78.78,0,0,0-.78.29,1,1,0,0,0-.21.7l-.17-.16c-.3-.23-.68-.33-.89-.13a.5.5,0,0,0-.13.19,1,1,0,0,0-1.2.12.76.76,0,0,0-.17.54,1.48,1.48,0,0,0-.63-.38,1.06,1.06,0,0,0-1.24.58,1.14,1.14,0,0,0-.09.72.8.8,0,0,0-.66.55,1.5,1.5,0,0,0,.22,1.2l0,.06a1,1,0,0,0-.3-.17.49.49,0,0,0-.63.22.14.14,0,0,1,0,.06,1.55,1.55,0,0,0-.44-.55,1.42,1.42,0,0,0-1-.33.73.73,0,0,0-.63.63,1.5,1.5,0,0,0,0,.37,1.66,1.66,0,0,0-.59-.47,1,1,0,0,0-1,0,1.1,1.1,0,0,0-.37,1.41l-.2,0a1,1,0,0,0-.8.36,1.38,1.38,0,0,0-.27.9,1.91,1.91,0,0,0,.33.94,2.64,2.64,0,0,0,.74.75l-.06.08a.75.75,0,0,0-.12.73,1.13,1.13,0,0,0,.11.22,1.23,1.23,0,0,0-.57-.16.87.87,0,0,0-.78.44,1.25,1.25,0,0,0,.13,1.17.51.51,0,0,0-.25.25.91.91,0,0,0,0,.65,1.66,1.66,0,0,0,.49.67,1.76,1.76,0,0,0,.37.23h0a.36.36,0,0,0,0,.09.83.83,0,0,0,.07.57,1.45,1.45,0,0,0,.68.59A.83.83,0,0,0,47,36a.31.31,0,0,0,0,.23.43.43,0,0,0,.21.23h0a.25.25,0,0,0,.4.12l0,.07a.39.39,0,0,0,.22.18.21.21,0,0,0,.14,0,.42.42,0,0,0,.08.18.53.53,0,0,0,.46.21.3.3,0,0,0,.21-.3.48.48,0,0,0-.06-.28.17.17,0,0,0,0-.11.52.52,0,0,0,0-.3.86.86,0,0,0-.27-.3.38.38,0,0,0,.06-.39.89.89,0,0,0-.57-.5.24.24,0,0,0,.1-.18.61.61,0,0,0-.06-.39.37.37,0,0,0-.05-.11.82.82,0,0,0,.48-.21,1.17,1.17,0,0,0,.25-1,1.58,1.58,0,0,0-.16-.58.9.9,0,0,0,.65.27.5.5,0,0,0,.46-.38,1.3,1.3,0,0,0,0-.52.52.52,0,0,0,.44.14.46.46,0,0,0,.41-.47.55.55,0,0,0-.07-.3.64.64,0,0,0,.43-.29,1.06,1.06,0,0,0,0-.84,1.53,1.53,0,0,0-.21-.4.5.5,0,0,0,.26-.13l0,0a1.06,1.06,0,0,0,.38.41.65.65,0,0,0,.57.12.41.41,0,0,0,.23-.22,1.12,1.12,0,0,0,.55.24A1,1,0,0,0,53.5,30a1.28,1.28,0,0,0,.37-.83,1.59,1.59,0,0,0,.79.25.93.93,0,0,0,.78-.33.6.6,0,0,0,.09-.13.9.9,0,0,0,.61.11c.47-.11.51-.74.32-1.23a.63.63,0,0,0,.58-.19.83.83,0,0,0,.18-.39,1.22,1.22,0,0,0,.83.27.63.63,0,0,0,.61-.52,1.34,1.34,0,0,0-.07-.73.81.81,0,0,0,.46,0,.78.78,0,0,0,.65-.6,1.59,1.59,0,0,0,0-.58,1.46,1.46,0,0,0,.66-.54,1.35,1.35,0,0,0,.21-.92,1.94,1.94,0,0,0-.07-.33.75.75,0,0,0,.4-.24.77.77,0,0,0,0-.9A.86.86,0,0,0,60.07,21.77Z"/><path class="cls-7" d="M60.07,21.77a.59.59,0,0,0-.31.52.93.93,0,0,0-.29-.13.67.67,0,0,0-.61.16,1.11,1.11,0,0,0-.28.45l-.09-.13a1.63,1.63,0,0,0-1-.6.78.78,0,0,0-.78.29,1,1,0,0,0-.21.7l-.17-.16c-.3-.23-.68-.33-.89-.13a.5.5,0,0,0-.13.19,1,1,0,0,0-1.2.12.76.76,0,0,0-.17.54,1.48,1.48,0,0,0-.63-.38,1.06,1.06,0,0,0-1.24.58,1.14,1.14,0,0,0-.09.72.8.8,0,0,0-.66.55,1.5,1.5,0,0,0,.22,1.2l0,.06a1,1,0,0,0-.3-.17.49.49,0,0,0-.63.22.14.14,0,0,1,0,.06,1.55,1.55,0,0,0-.44-.55,1.42,1.42,0,0,0-1-.33.73.73,0,0,0-.63.63,1.5,1.5,0,0,0,0,.37,1.66,1.66,0,0,0-.59-.47,1,1,0,0,0-1,0,1.1,1.1,0,0,0-.37,1.41l-.2,0a1,1,0,0,0-.8.36,1.38,1.38,0,0,0-.27.9,1.91,1.91,0,0,0,.33.94,2.64,2.64,0,0,0,.74.75l-.06.08a.75.75,0,0,0-.12.73,1.13,1.13,0,0,0,.11.22,1.23,1.23,0,0,0-.57-.16.87.87,0,0,0-.78.44,1,1,0,0,0-.08.59.73.73,0,0,1,.82-.71,1.11,1.11,0,0,1,.67.36.53.53,0,0,1,.24-.29h0a1.54,1.54,0,0,1-.2-.6.56.56,0,0,1,.39-.53h0a3.05,3.05,0,0,1-.69-.7,1.37,1.37,0,0,1-.22-1.25.78.78,0,0,1,.8-.43,1,1,0,0,1,.25,0c-.24-.52-.31-1.17.13-1.43a1,1,0,0,1,.49-.12,1.1,1.1,0,0,1,.31,0,1.56,1.56,0,0,1,.82.36,1,1,0,0,1,0-.52.64.64,0,0,1,.87-.56.79.79,0,0,1,.25,0,1.73,1.73,0,0,1,.73.76.62.62,0,0,1,.08-.12.49.49,0,0,1,.65-.06,1.35,1.35,0,0,1,.43.37.44.44,0,0,1,.33-.09,2.07,2.07,0,0,1-.47-1.31,1,1,0,0,1,.3-.82.61.61,0,0,1,.31-.13,1.28,1.28,0,0,1,0-.34.8.8,0,0,1,.7-.71,1.56,1.56,0,0,1,1.21.68.66.66,0,0,1,0-.14.92.92,0,0,1,.2-.52.7.7,0,0,1,.76-.26,1.48,1.48,0,0,1,.65.4l.07,0a.8.8,0,0,1,.76.16,1.79,1.79,0,0,1,.35.33,1,1,0,0,1,0-.3.79.79,0,0,1,.91-.77,1.28,1.28,0,0,1,.79.49.78.78,0,0,1,.62-.66c.4,0,.75.44.85.79a.67.67,0,0,1-.47.88,1.2,1.2,0,0,1-.65,0A.79.79,0,0,1,59,25.68a.89.89,0,0,1-.74.18,1.19,1.19,0,0,1,0,1,.69.69,0,0,1-.93.07,1.51,1.51,0,0,1-.23-.21.89.89,0,0,1-.31.63.66.66,0,0,1-.62.11l-.07,0a1.19,1.19,0,0,1,.12.22c.15.32.3.78.11,1a.65.65,0,0,1-1-.14,1.13,1.13,0,0,1-.12-.21,1,1,0,0,1-.15.35,1.14,1.14,0,0,1-1.6.05,1.13,1.13,0,0,1,.11.79.74.74,0,0,1-.88.46,1.23,1.23,0,0,1-.6-.41.52.52,0,0,1-.53.22.91.91,0,0,1-.63-.75c0,.43-.28.82-.68.81a.94.94,0,0,1,.3.65c0,.22-.12.48-.35.5h0a.71.71,0,0,1-.05.61c-.19.23-.58.14-.88,0l-.29-.19a1,1,0,0,1,0,.45.54.54,0,0,1-.52.49,1.33,1.33,0,0,1-.7-.18l-.08,0a1.21,1.21,0,0,1,.14.81,2,2,0,0,1,.24.46.63.63,0,0,1-.19.74.68.68,0,0,1-.49.07,1.18,1.18,0,0,1,.25.3.55.55,0,0,1,0,.51,1.39,1.39,0,0,1,.46.36.61.61,0,0,1,.11.61.42.42,0,0,1-.18.19,1,1,0,0,1,.55.57c.06.16,0,.41-.14.45h0a.47.47,0,0,0,.25,0,.3.3,0,0,0,.21-.3.48.48,0,0,0-.06-.28.17.17,0,0,0,0-.11.52.52,0,0,0,0-.3.86.86,0,0,0-.27-.3.38.38,0,0,0,.06-.39.89.89,0,0,0-.57-.5.24.24,0,0,0,.1-.18.61.61,0,0,0-.06-.39.37.37,0,0,0-.05-.11.82.82,0,0,0,.48-.21,1.17,1.17,0,0,0,.25-1,1.58,1.58,0,0,0-.16-.58.9.9,0,0,0,.65.27.5.5,0,0,0,.46-.38,1.3,1.3,0,0,0,0-.52.52.52,0,0,0,.44.14.46.46,0,0,0,.41-.47.55.55,0,0,0-.07-.3.64.64,0,0,0,.43-.29,1.06,1.06,0,0,0,0-.84,1.53,1.53,0,0,0-.21-.4.5.5,0,0,0,.26-.13l0,0a1.06,1.06,0,0,0,.38.41.65.65,0,0,0,.57.12.41.41,0,0,0,.23-.22,1.12,1.12,0,0,0,.55.24A1,1,0,0,0,53.5,30a1.28,1.28,0,0,0,.37-.83,1.59,1.59,0,0,0,.79.25.93.93,0,0,0,.78-.33.6.6,0,0,0,.09-.13.9.9,0,0,0,.61.11c.47-.11.51-.74.32-1.23a.63.63,0,0,0,.58-.19.83.83,0,0,0,.18-.39,1.22,1.22,0,0,0,.83.27.63.63,0,0,0,.61-.52,1.34,1.34,0,0,0-.07-.73.81.81,0,0,0,.46,0,.78.78,0,0,0,.65-.6,1.59,1.59,0,0,0,0-.58,1.46,1.46,0,0,0,.66-.54,1.35,1.35,0,0,0,.21-.92,1.94,1.94,0,0,0-.07-.33.75.75,0,0,0,.4-.24.77.77,0,0,0,0-.9A.86.86,0,0,0,60.07,21.77Zm.32,1.15c-.4.08-.56-.69-.34-.88s.22-.21.43-.08A.55.55,0,0,1,60.39,22.92Z"/><path class="cls-8" d="M46.06,34.72a.61.61,0,0,0-.05.59.79.79,0,0,0,.54.5c.09.06.17.08.19,0a.34.34,0,0,0-.16-.28.71.71,0,0,0-.29-.14h0a.76.76,0,0,1-.17-.63S46.07,34.71,46.06,34.72Z"/><path class="cls-8" d="M47.11,36.05a.3.3,0,0,0,0,.21.25.25,0,0,0,.16.17s0-.06,0-.08-.08-.09-.11-.14a.94.94,0,0,1-.06-.15S47.11,36,47.11,36.05Z"/><path class="cls-8" d="M47.47,36.48s0,0,0,0,.06.06.08,0a0,0,0,0,0,0-.05S47.5,36.49,47.47,36.48Z"/><path class="cls-8" d="M45.23,33.2a.32.32,0,0,0-.11.34.5.5,0,0,0,.21.38s0,0,0-.05-.07-.19-.1-.29a.7.7,0,0,1,0-.35S45.25,33.19,45.23,33.2Z"/><path class="cls-8" d="M45.21,32.4c-.07,0-.05.16,0,.22a.3.3,0,0,0,.12.13s0,0,0,0a.86.86,0,0,1,0-.16.26.26,0,0,0,0-.11S45.25,32.39,45.21,32.4Z"/><path class="cls-8" d="M47.65,34a.23.23,0,0,0-.12,0l-.15,0a.8.8,0,0,1-.33-.08s0,0,0,0a.7.7,0,0,0,.36.21c.13,0,.27,0,.29-.13S47.68,34,47.65,34Z"/><path class="cls-8" d="M46.72,31c-.17.16,0,.55.24.67,0,0,0,0,0,0a1.94,1.94,0,0,1-.13-.3,1.5,1.5,0,0,0-.06-.29S46.75,31,46.72,31Z"/><path class="cls-8" d="M46.27,28.87c-.15.13-.12.35-.07.56a1.29,1.29,0,0,0,.44.6s0,0,0,0a1.44,1.44,0,0,1-.34-1S46.3,28.85,46.27,28.87Z"/><path class="cls-8" d="M47.09,27.41c-.07,0-.06.18-.05.26a.39.39,0,0,0,.12.26s0,0,0,0,0-.14,0-.21a.43.43,0,0,0,0-.25S47.11,27.39,47.09,27.41Z"/><path class="cls-8" d="M52.16,24.94a1.13,1.13,0,0,0-.22.42,1.49,1.49,0,0,0,0,.56A1.78,1.78,0,0,0,52.55,27c.08.07.09-.07.06-.12l-.29-.39a1.7,1.7,0,0,1-.22-.5,1.43,1.43,0,0,1,.07-1S52.17,24.93,52.16,24.94Z"/><path class="cls-8" d="M54.64,23.82a.46.46,0,0,0-.26.43,1,1,0,0,0,.21.6s0,0,0,0a2.09,2.09,0,0,1,0-.49,1.9,1.9,0,0,1,.14-.4S54.69,23.81,54.64,23.82Z"/><path class="cls-8" d="M57.37,23.56c-.19,0-.24.23-.25.42a.8.8,0,0,0,.19.57s0,0,0,0a1.17,1.17,0,0,1,.09-.88S57.41,23.55,57.37,23.56Z"/><path class="cls-8" d="M58.79,23.49c-.2.13-.09.62.18.78,0,0,0,0,0,0a1.29,1.29,0,0,1-.13-.68S58.82,23.46,58.79,23.49Z"/><path class="cls-8" d="M60.05,22.25a.41.41,0,0,0,0,.27.51.51,0,0,0,.08.17h0a.25.25,0,0,0,.08.14.28.28,0,0,0,.09.05h.06a.19.19,0,0,0,0-.1.32.32,0,0,0-.06-.18.13.13,0,0,0-.07-.06.07.07,0,0,0-.07,0h0l0-.05a.54.54,0,0,1,0-.22S60.05,22.24,60.05,22.25Z"/><path class="cls-8" d="M57.44,26.85c-.11-.08-.31-.14-.36-.29s0,0,0,0a.53.53,0,0,0,.37.43C57.49,27,57.49,26.88,57.44,26.85Z"/><path class="cls-8" d="M51,29s0,0,0,0a.65.65,0,0,0,.09.46c.09.14.3.35.42.22s0-.08,0-.11-.2-.13-.29-.22A.69.69,0,0,1,51,29Z"/><path class="cls-8" d="M49.29,31.4a.55.55,0,0,1-.32-.24s0,0,0,0a.48.48,0,0,0,.12.3c.07.09.19.2.3.18s0-.08,0-.12A.19.19,0,0,0,49.29,31.4Z"/><path class="cls-8" d="M55.27,28s0-.05-.05,0a.62.62,0,0,0,0,.46c.07.16.29.37.43.25a.11.11,0,0,0,0-.14c-.09-.08-.2-.12-.27-.22A.72.72,0,0,1,55.27,28Z"/><path class="cls-8" d="M54.63,27.27c0,.08,0,.18.12.23s0-.07,0-.1-.09-.08-.1-.14S54.62,27.24,54.63,27.27Z"/><path class="cls-8" d="M52,28.74c-.4.15.15,1.1.49.91,0,0,0-.12,0-.16s-.24-.18-.35-.28a.39.39,0,0,1-.1-.42S52,28.74,52,28.74Z"/><path class="cls-8" d="M55.05,25.91a.53.53,0,0,0,0,.47c.09.17.29.37.48.33s0-.11,0-.15-.22-.14-.31-.23a.48.48,0,0,1-.15-.39S55.07,25.89,55.05,25.91Z"/><path class="cls-8" d="M48.13,28.33a.62.62,0,0,0-.4.62.75.75,0,0,0,.49.68c.06,0,.05-.1,0-.14s-.3-.35-.3-.56.2-.34.22-.56C48.16,28.35,48.15,28.32,48.13,28.33Z"/><polygon class="cls-9" points="53.8 32.23 52.44 43.34 45.41 43.36 45.13 41.02 44.02 32.23 53.8 32.23"/><polygon class="cls-10" points="53.54 33.51 52.42 43.32 51.68 43.31 51.81 41.52 52.49 32.92 53.54 33.51"/><rect class="cls-11" x="42.8" y="31.29" width="12.22" height="2.36" rx="1.07"/><ellipse class="cls-12" cx="49.07" cy="58.26" rx="16.35" ry="15.79"/><ellipse class="cls-13" cx="49.07" cy="58.26" rx="12.72" ry="12.28"/><polygon class="cls-14" points="49.07 77.33 33.94 77.33 41.51 64.67 48.92 62.74 56.64 64.67 64.2 77.33 49.07 77.33"/><line class="cls-15" x1="39.64" y1="70.15" x2="35.75" y2="77.63"/><line class="cls-15" x1="41.51" y1="70.06" x2="38.16" y2="77.36"/><line class="cls-15" x1="43.44" y1="70.01" x2="40.37" y2="77.41"/><line class="cls-15" x1="45.77" y1="70.1" x2="42.99" y2="77.61"/><line class="cls-15" x1="47.38" y1="70.05" x2="46.22" y2="77.63"/><line class="cls-15" x1="49.24" y1="70.02" x2="48.79" y2="77.68"/><line class="cls-15" x1="58.48" y1="70.15" x2="62.33" y2="77.5"/><line class="cls-15" x1="56.6" y1="70.06" x2="60" y2="77.51"/><line class="cls-15" x1="54.67" y1="70.01" x2="57.75" y2="77.41"/><line class="cls-15" x1="52.35" y1="70.1" x2="55.12" y2="77.61"/><line class="cls-15" x1="50.74" y1="70.05" x2="51.89" y2="77.58"/><ellipse class="cls-16" cx="49.07" cy="58.26" rx="7.87" ry="7.6"/><rect class="cls-17" x="29.95" y="63.93" width="38.23" height="6.26" rx="2.85"/><ellipse class="cls-18" cx="49.07" cy="58.26" rx="3.63" ry="3.51"/></g></g></g></svg>