<svg id="Layer_1" data-name="Layer 1" xmlns="http://www.w3.org/2000/svg" viewBox="0 0 100 100"><defs><style>.cls-1{opacity:0.5;}.cls-2{fill:#ff0;stroke:#494949;stroke-miterlimit:10;}.cls-3{fill:#ffa63b;}.cls-4{fill:#74eaf7;}.cls-5{fill:#cfe7eb;}.cls-6{fill:#e8f7f8;}.cls-7{fill:#d4eef1;}.cls-8{fill:#d9f0f2;}.cls-9{fill:#9cc9d2;}.cls-10{fill:#d0e8eb;}.cls-11{fill:#8bbfc9;}.cls-12{fill:#d9ebee;}.cls-13{fill:#95c2cc;}.cls-14{fill:#bbfff7;}.cls-15{fill:#a2ece8;}.cls-16{fill:#a4f6f0;}.cls-17{fill:#93e0dd;}.cls-18{fill:#9df3ee;}.cls-19{fill:#7bcdce;}.cls-20{fill:#58a9b7;}.cls-21{fill:#c7f7ff;}.cls-22{fill:#8ac4ce;}.cls-23{fill:#b3d9e0;}.cls-24{fill:#a4d3da;}.cls-25{fill:#8ec5ce;}.cls-26{fill:#c6f7ff;}.cls-27{fill:#a8edf7;}.cls-28{fill:#b4eff8;}.cls-29{fill:#a4e7f1;}.cls-30{fill:#99e1ec;}.cls-31{fill:#9bdde7;}.cls-32{fill:#a4d0d7;}.cls-33{fill:#aed2da;}.cls-34{fill:#67c1cf;}.cls-35{fill:#8bcfd4;}.cls-36{fill:#87c9cf;}.cls-37{fill:#4ba3ac;}</style></defs><g id="Fether_Icon" data-name="Fether Icon"><ellipse class="cls-1" cx="50.5" cy="51.93" rx="42.25" ry="40.82"/><ellipse class="cls-2" cx="49.5" cy="48.07" rx="42.25" ry="40.82"/><ellipse class="cls-3" cx="49.5" cy="48.07" rx="36.16" ry="34.93"/><path class="cls-4" d="M64.49,61.68a.21.21,0,0,1,.1.06.85.85,0,0,1,.37.15,6.46,6.46,0,0,1,.71.44c.13,0,.19.15.26.25.61.35,1.19.74,1.77,1.12.8.52,1.64,1,2.46,1.46,1.25.74,2.42,1.58,3.61,2.39l.71.51c.3.22.31.31.07.59h-.22a.58.58,0,0,0-.25-.15c-1-.47-2-1-2.93-1.47l-.23-.13c.09-.17.2-.05.28,0,.63.28,1.24.6,1.85.94l.06,0,.1,0,.17.07.34.16.47.22c.08,0,.2.12.27,0s-.07-.16-.14-.21c-.61-.44-1.23-.87-1.85-1.3-2.46-1.67-5.08-3.12-7.58-4.73-2.21-1.41-4.43-2.81-6.61-4.27S54,55,51.93,53.43c-1.48-1.09-3-2.2-4.35-3.39-.93-.79-1.83-1.6-2.74-2.41-1.18-1.06-2.37-2.1-3.5-3.19-.75-.72-1.41-1.51-2.11-2.27s-1.4-1.55-2.1-2.32c-.56-.6-1.08-1.23-1.58-1.88-1-1.33-2.14-2.63-3.17-4-1.28-1.68-2.43-3.44-3.6-5.19-.12-.18-.24-.35-.36-.54a5.08,5.08,0,0,0-.27-.43L28,27.56l-.16-.26c0-.1-.13-.07-.2-.09s-.22-.32-.32-.48-.06-.18.05-.24.16,0,.21.08c.72,1,1.37,2,2,3,1.34,2,2.7,4,4.23,5.84.86,1.05,1.69,2.12,2.54,3.18.55.69,1.16,1.32,1.75,2,.73.82,1.5,1.62,2.23,2.45a28.32,28.32,0,0,0,2.88,2.81c.32.28.63.57.94.86A94.71,94.71,0,0,0,52,53.19c2.08,1.52,4.19,3,6.33,4.43,1.62,1.09,3.27,2.16,4.92,3.22l.31.2c.22.11.42.26.64.39A.53.53,0,0,1,64.49,61.68Z"/><path class="cls-5" d="M25.61,29.92c.1-.06,0-.2.1-.27a.26.26,0,0,1,.08.24,5.79,5.79,0,0,0,0,1,.26.26,0,0,1-.08.24c-.1-.09,0-.24-.1-.32Z"/><path class="cls-4" d="M25.71,31.15a2.66,2.66,0,0,0,0-.63,1.19,1.19,0,0,1,0-.42,3.38,3.38,0,0,0,0-.45,5,5,0,0,1,1.17-2.76,5.78,5.78,0,0,1,1.82-1.43,3.58,3.58,0,0,1,3.08-.08,7.19,7.19,0,0,1,1.77,1.1c.12.09.1.2.08.31-.07.31-.11.63-.16.94-.07.5-.1,1-.12,1.51s0,1.06,0,1.59c0,.06,0,.13.06.19a14.43,14.43,0,0,1,2-3.16c.1,0,.12.08.15.13.34.54.69,1.07,1,1.6,0,.05,0,.07-.05.09s-.21-.16-.29-.26l-.71-1c-.11-.15-.19-.14-.28,0s-.13.19-.2.29a15.76,15.76,0,0,0-1.61,2.89c0,.06-.05.12-.08.17s-.06.13-.14.11-.06-.08-.08-.13a5.33,5.33,0,0,1-.1-.79,13.2,13.2,0,0,1,0-2.81q.06-.64.18-1.29a.36.36,0,0,0-.13-.38,5.49,5.49,0,0,0-2.25-1.12,3.46,3.46,0,0,0-2.82.75c-.2.14-.37.32-.57.45-.05,0-.08-.14-.17-.08s0,.13,0,.19c-.23.34-.53.63-.73,1A4.85,4.85,0,0,0,26,29.85,10.85,10.85,0,0,0,27.13,35a33.92,33.92,0,0,0,4,6.62l.33.46a.35.35,0,0,0,.49.13c.45-.17.92-.32,1.37-.48.09,0,.2-.08.25,0s0,.16-.11.22c-.35.27-.7.54-1.06.8s-.26.19-.07.43c1,1.25,2,2.46,3.08,3.65.6.66,1.2,1.31,1.81,2a.42.42,0,0,0,.57.1c.78-.36,1.55-.74,2.32-1.11a.57.57,0,0,1,.26-.08.1.1,0,0,1,.06,0,2.57,2.57,0,0,1-.71.76c-.45.39-.89.79-1.36,1.16-.1.07-.13.14,0,.24s.18.22.28.32c.89.86,1.78,1.72,2.71,2.53,1.21,1.06,2.45,2.06,3.75,3A48.52,48.52,0,0,0,50,59a43,43,0,0,0,4.09,2,.67.67,0,0,0,.74-.06c.49-.36,1-.67,1.5-1l.18-.12a.19.19,0,0,1,.25,0,.17.17,0,0,1,0,.24c-.14.15-.26.32-.41.46l-.78.76c-.21.2-.21.21.08.3a18.66,18.66,0,0,0,3.22.78,9.51,9.51,0,0,0,2.5,0,3.45,3.45,0,0,0,1-.26c-.05-.13-.15-.16-.24-.21-3.08-2-6.07-4-9-6.16-2.23-1.64-4.42-3.33-6.57-5-1.06-.84-2.1-1.69-3.09-2.6-.77-.69-1.51-1.4-2.23-2.13-1-1-2-2.09-2.93-3.17-1.15-1.3-2.2-2.68-3.32-4a.53.53,0,0,1-.13-.2,4.8,4.8,0,0,0-.67-1,3.19,3.19,0,0,1-.35-.47.33.33,0,0,0-.07-.16l0-.06a1.83,1.83,0,0,0-.13-.16.1.1,0,0,1,0-.05l-.28-.41,0-.05-.07-.11,0-.06A.62.62,0,0,0,33,36c-.26-.34-.46-.71-.71-1.05-.06-.09-.1-.19-.21-.23a1.5,1.5,0,0,1-.33-.46c-.83-1.39-1.71-2.75-2.53-4.16-.48-.82-1-1.65-1.43-2.48-.06-.11-.16-.21-.12-.36s.17,0,.22.05.08.19.13.27a1.92,1.92,0,0,0,.18.31c.1.14.17.29.27.44,1.23,2.07,2.51,4.1,3.9,6.07a88.67,88.67,0,0,0,5.8,7.46c.79.91,1.59,1.81,2.43,2.68.71.72,1.39,1.46,2.13,2.15,1.06,1,2.13,2,3.26,2.85,2.82,2.24,5.66,4.46,8.57,6.59q2.86,2.07,5.78,4.07,2.2,1.5,4.45,2.9c1.95,1.21,3.92,2.37,5.95,3.44.73.39,1.47.76,2.22,1.12a.62.62,0,0,1,.25.17c0,.09,0,.1-.1.12a5.91,5.91,0,0,1-.79-.41c-.41-.22-.84-.4-1.25-.61-.05,0-.09,0-.12,0-.61-.29-1.19-.64-1.78-1q-2.3-1.24-4.52-2.59a.22.22,0,0,0-.3,0,4.15,4.15,0,0,1-3.25,1.1,1.53,1.53,0,0,1-.49-.12c.25-.1.51-.19.75-.3a3.85,3.85,0,0,0,.71-.41l.68-.5a4.57,4.57,0,0,0,.6-.57,3.56,3.56,0,0,0-.48-.31c-.07,0-.13,0-.2,0a4.76,4.76,0,0,1-1.89.41,13.43,13.43,0,0,1-4-.53c-.65-.17-1.3-.38-1.95-.62.11-.19.31-.29.43-.45s.14-.17.23-.25a.54.54,0,0,0,.12-.09s0,0,0,0,0,0,0,0a1,1,0,0,1-.13.09.78.78,0,0,1-.3.18c-.15.09-.3.17-.44.27a.41.41,0,0,1-.45,0c-1-.39-1.9-.82-2.81-1.28a48.73,48.73,0,0,1-7-4.34c-1.37-1-2.68-2.09-3.95-3.23-.91-.82-1.79-1.68-2.64-2.55-.16-.16-.16-.17,0-.3.36-.29.73-.57,1.06-.89a.2.2,0,0,1,.11-.11v0l0,0a1,1,0,0,1-.16.05c-.46.21-.92.4-1.37.62a.24.24,0,0,1-.33-.07c-1.32-1.39-2.62-2.81-3.85-4.29-.52-.62-1-1.24-1.52-1.88-.14-.18-.14-.18.05-.32l.3-.23s0-.05,0-.06v0h-.11l-.37.11c-.25.08-.25.08-.4-.12l-.63-.84a36.38,36.38,0,0,1-3.62-5.89,15.33,15.33,0,0,1-1.33-3.95Z"/><path class="cls-6" d="M55.16,61a1.19,1.19,0,0,1,.29-.21s.06,0,0,.05l-.26.23Z"/><path class="cls-7" d="M38.93,48.7a.46.46,0,0,1,.22-.11,0,0,0,0,1,0,0l0,0-.16.11Z"/><path class="cls-8" d="M32.32,42.47l-.11.06-.06-.06a.13.13,0,0,1,.11,0C32.32,42.4,32.33,42.42,32.32,42.47Z"/><path class="cls-4" d="M64.49,61.68l-.29-.2a2.38,2.38,0,0,0-.1-2.07,3.88,3.88,0,0,1-.17.85,2.23,2.23,0,0,1-.38.83l-.29-.21c-.11-.23-.11-.49-.2-.74a7.51,7.51,0,0,0-.81-1.5,3.3,3.3,0,0,0-.34-.49,28.92,28.92,0,0,0-2.07-2.48c-1.12-1.23-2.27-2.42-3.44-3.61-.75-.76-1.54-1.49-2.29-2.25-.22-.21-.24-.21-.4,0a.43.43,0,0,0-.1.24c-.13.4-.33.77-.49,1.15a.17.17,0,0,1-.23.14c-.13,0-.15-.14-.12-.26l.09-.28a2.37,2.37,0,0,0,.15-.4c.12-.36.24-.72.37-1.08a.37.37,0,0,0-.12-.47c-1.11-1-2.16-2.14-3.25-3.21-.91-.9-1.84-1.8-2.73-2.73,0,0,0,0-.06-.05s-.15-.23-.26-.21-.11.21-.15.32l-.38,1.16a.64.64,0,0,1-.08.19.18.18,0,0,1-.23.09.16.16,0,0,1-.11-.19c0-.2.07-.39.1-.59.09-.45.16-.89.26-1.33a.45.45,0,0,0-.14-.46c-.73-.78-1.43-1.58-2.15-2.37-.07-.09-.16-.17-.24-.26s-.23-.12-.3,0-.26.43-.39.64-.12.2-.26.14-.15-.14-.1-.26a1.51,1.51,0,0,0,.14-.35c.09-.23.16-.47.26-.7a.29.29,0,0,0,0-.32c-.47-.56-.92-1.14-1.4-1.7l-.05,0a.94.94,0,0,0-.23.32,17.54,17.54,0,0,0-1.28,2.83c0,.06-.05.12-.08.17a.18.18,0,0,1-.19.07c-.09,0-.12-.07-.13-.15a.44.44,0,0,1,0-.23c.08-.39.14-.77.25-1.14l.06-.19,0-.07c0-.1,0-.21.08-.32l.1-.4c.17-.59.32-1.19.49-1.77a.43.43,0,0,0-.08-.42c-.42-.58-.86-1.15-1.28-1.73a.66.66,0,0,1-.19-.37s0-.07.08-.06c.42.53.84,1,1.25,1.58.15.19.29.38.45.56a.29.29,0,0,1,.06.34c-.22.72-.41,1.45-.59,2.18,0,0,0,.08,0,.13s0,.13,0,.19,0,0,0,0a.19.19,0,0,1,.07-.12,14.64,14.64,0,0,1,.94-1.68c.05-.08.11-.15.18-.25l1.86,2.26a.09.09,0,0,1,0,.07c0,.09,0,.11.09.08L45,40.11c.51.58,1,1.14,1.58,1.69.09.09.2.16.2.31a1.42,1.42,0,0,1,0,.2s-.05,0,0,.08,0-.06,0-.09a.21.21,0,0,1,.09-.19.45.45,0,0,1,.19.15l5.48,5.49c1.31,1.31,2.63,2.63,3.93,4s2.66,2.69,3.92,4.1a25.33,25.33,0,0,1,2.21,2.75,5.9,5.9,0,0,1,.91,1.89.64.64,0,0,0,.06.11,3,3,0,0,0,.17-2.07c0-.11-.06-.24-.09-.36s0-.07.07-.06a6.75,6.75,0,0,1,.89,1.73,2.33,2.33,0,0,1,0,1.76A.2.2,0,0,0,64.49,61.68Z"/><path class="cls-4" d="M64.92,62l-.33-.21a.46.46,0,0,0,.25-.08A4.86,4.86,0,0,0,66,60.81a2.78,2.78,0,0,0,.71-1.09s0-.08.05-.11h0s0,0,0,0a3.66,3.66,0,0,1,0,1.4,2.5,2.5,0,0,1-.78,1.37c-.06,0-.18.08-.14.2l-.3-.2a.31.31,0,0,1,.07-.09,2.35,2.35,0,0,0,.92-1.73A4.93,4.93,0,0,1,64.92,62Z"/><path class="cls-4" d="M39.37,33.27l-.06.07c-.14,0-.18-.11-.24-.19L36.64,29.9c0-.07-.12-.14-.08-.24l.07-.07c.27.38.55.75.82,1.12.59.81,1.2,1.6,1.81,2.38A1.74,1.74,0,0,1,39.37,33.27Z"/><path class="cls-9" d="M43.67,38.64l-.15.09,0-.24Z"/><path class="cls-10" d="M46.69,42.32c0-.08,0-.16.06-.21h.06l-.07.21S46.71,42.34,46.69,42.32Z"/><path class="cls-11" d="M63.66,58.06l-.07.06a.17.17,0,0,1-.05-.18C63.63,58,63.64,58,63.66,58.06Z"/><path class="cls-12" d="M40.46,38.27c0-.08,0-.15.06-.21s0,.08,0,.1l0,.16C40.47,38.34,40.44,38.32,40.46,38.27Z"/><path class="cls-13" d="M66.84,59.61h0s0-.06,0-.06S66.84,59.59,66.84,59.61Z"/><path class="cls-13" d="M66.79,59.61a.13.13,0,0,1-.05.11A.09.09,0,0,1,66.79,59.61Z"/><path class="cls-4" d="M40.42,47.75a.57.57,0,0,0-.28.11c-.83.4-1.66.79-2.5,1.17a.24.24,0,0,1-.33,0c-.52-.53-1-1.07-1.51-1.62-.28-.32-.57-.62-.85-.94s-.83-.94-1.23-1.42c-.53-.64-1-1.28-1.56-1.92-.12-.15-.12-.14,0-.26l1.24-.92a.32.32,0,0,0,.12-.14c0-.07-.09,0-.14,0l-1.57.55c-.2.07-.24.06-.37-.11l-1-1.33c-.6-.8-1.15-1.64-1.67-2.5a27.73,27.73,0,0,1-1.72-3.23,15.58,15.58,0,0,1-1-2.86,10.85,10.85,0,0,1-.22-1.5,6.72,6.72,0,0,1,0-1.1,4.5,4.5,0,0,1,.65-2,3.37,3.37,0,0,1,.65-.85l.13-.1a4.53,4.53,0,0,0,.27.48c.31.61.69,1.19,1,1.79s.58,1,.88,1.5c.5.83,1,1.65,1.52,2.48l.86,1.42c0,.09.12.17.18.26a6.17,6.17,0,0,1,.58.86,30.45,30.45,0,0,0,2.15,2.92.12.12,0,0,1,0,.1L36,40l1.28,1.59c.41.5.83,1,1.27,1.47s.84.95,1.27,1.42l.61.65c.87.92,1.78,1.82,2.72,2.68.77.7,1.55,1.39,2.37,2L48.3,52c1.14.91,2.3,1.79,3.46,2.66q2.35,1.76,4.77,3.44c1.25.87,2.5,1.73,3.78,2.56l2,1.27c.08,0,.17.07.2.18a1.15,1.15,0,0,1-.5.2,5.59,5.59,0,0,1-1.3.19,13.5,13.5,0,0,1-3.94-.56,12,12,0,0,1-1.33-.41l-.17-.08.85-.82c.22-.2.41-.43.61-.64.06-.06.09-.11,0-.19s-.12,0-.18,0l-1.46,1a3.37,3.37,0,0,0-.31.21.53.53,0,0,1-.61.05c-1-.4-1.9-.85-2.82-1.32s-2-1.08-3-1.67c-1.12-.69-2.2-1.41-3.26-2.18-.7-.51-1.39-1-2.06-1.58-.86-.69-1.69-1.41-2.51-2.15s-1.31-1.24-2-1.86c-.16-.16-.3-.33-.46-.51l.41-.35c.62-.5,1.21-1,1.78-1.57l.1-.12Z"/><path class="cls-4" d="M40.14,38.55c-.08.4-.16.81-.25,1.22a1.1,1.1,0,0,0,0,.18c0,.06,0,.11.07.12a.11.11,0,0,0,.15-.07l.21-.55A16.81,16.81,0,0,1,41,37.76a5.19,5.19,0,0,1,.44-.76c.19,0,.24.17.34.27.38.38.72.8,1.1,1.18a.64.64,0,0,1,.15.7,2.41,2.41,0,0,1-.08.25,2.92,2.92,0,0,1-.13.42.13.13,0,0,1,0,.06c0,.08,0,.12.08.16s.13,0,.16-.09l.28-.48c0-.07.06-.15.15-.19s.19.08.26.16c.77.87,1.56,1.74,2.34,2.61a.49.49,0,0,1,.13.4c0,.4,0,.8,0,1.19,0,.22-.1.43-.12.65a.09.09,0,0,0,.08.11c.07,0,.13,0,.15-.06s.09-.27.13-.4c.11-.33.22-.65.32-1,.09,0,.13.06.18.11L53,49a.59.59,0,0,1,.21.68c-.07.24-.1.5-.19.74s-.07.32-.12.47a1,1,0,0,1-.09.3c0,.1,0,.15.08.19s.13,0,.15-.1c.15-.41.34-.79.51-1.19.23,0,.36.16.51.27a31.21,31.21,0,0,1,3.64,3.34c.37.38.75.75,1.12,1.14.8.84,1.59,1.68,2.37,2.54.24.27.49.53.7.81s.24.32.38.46a5.4,5.4,0,0,1,1,2,1.08,1.08,0,0,1,0,.31c-.56-.31-1.09-.67-1.63-1-1.39-.91-2.79-1.83-4.17-2.76-1.77-1.19-3.52-2.41-5.24-3.68-1-.75-2-1.51-3-2.3-.83-.66-1.65-1.34-2.45-2s-1.31-1.15-2-1.74L42.19,45c-.72-.65-1.36-1.36-2-2.07-.46-.51-.94-1-1.4-1.53s-1.14-1.27-1.71-1.9c-1-1-1.75-2.16-2.64-3.23-.56-.68-1.12-1.37-1.66-2.08-.93-1.2-1.8-2.45-2.65-3.71S28.48,28,27.65,26.8l-.13-.18a.35.35,0,0,1,.15-.21,4.91,4.91,0,0,1,1.6-1,3.36,3.36,0,0,1,2.38.11,6.59,6.59,0,0,1,1.67,1,.16.16,0,0,1,.07.18c-.06.35-.12.7-.17,1s0,.39-.06.58a14,14,0,0,0-.06,1.83,15.87,15.87,0,0,0,.18,1.69c.08,0,.07-.11.1-.17a16.61,16.61,0,0,1,1.53-2.81,1.73,1.73,0,0,1,.17-.21c.19.08.27.25.39.4,1.41,1.82,2.85,3.63,4.27,5.46l.78,1a.59.59,0,0,1,.14.54c-.09.47-.17.94-.27,1.41,0,.18-.09.37-.12.56s0,.22-.07.32h0C40.14,38.43,40.19,38.5,40.14,38.55Z"/><path class="cls-14" d="M73.17,67.81c-1.41-.67-2.79-1.41-4.16-2.17-2.27-1.27-4.48-2.63-6.65-4s-4.37-3-6.52-4.48q-2.28-1.65-4.52-3.34c-1.31-1-2.59-2-3.87-3-.64-.52-1.3-1-1.93-1.53-.33-.27-.66-.54-1-.82-.9-.81-1.8-1.61-2.66-2.47s-1.79-1.82-2.65-2.77c-1.15-1.29-2.28-2.61-3.36-4-1.62-2-3.13-4.13-4.59-6.27-1-1.4-1.85-2.83-2.68-4.3a1.51,1.51,0,0,1-.2-.35c0-.05,0-.07.06-.06L30,30.56c1.07,1.61,2.2,3.18,3.42,4.7.89,1.1,1.77,2.21,2.65,3.32.43.54.91,1.05,1.37,1.56.75.84,1.51,1.67,2.27,2.5A31.89,31.89,0,0,0,42,45c1.16,1.05,2.31,2.11,3.49,3.13l1.85,1.63c.83.72,1.69,1.39,2.56,2.06q2.22,1.72,4.53,3.34,1.78,1.26,3.61,2.47c1.36.91,2.71,1.82,4.09,2.7,1.76,1.14,3.57,2.2,5.32,3.35.93.62,1.92,1.15,2.87,1.73s1.84,1.2,2.75,1.81l1.33.94c.09.06.21.12.15.25s-.16.11-.32,0l-.59-.29s0,0,0,0h0s0,0,0,0,0,0,0,0l0,0,0,0-.07,0,0,0-.08,0h0l-.07,0,0,0Z"/><path class="cls-4" d="M64.92,62c0-.11.09-.13.15-.17a4.71,4.71,0,0,0,1.56-1.31l0,0a2,2,0,0,1-.16.89,2.27,2.27,0,0,1-.78,1s-.06,0-.1,0A4.63,4.63,0,0,0,64.92,62Z"/><path class="cls-4" d="M63.55,61.09a.83.83,0,0,1,.13-.34A4.63,4.63,0,0,0,64,59.24h0a3.15,3.15,0,0,1,.38,1.5,1.92,1.92,0,0,1-.11.57c0,.07-.06.15-.16.16A7,7,0,0,0,63.55,61.09Z"/><path class="cls-15" d="M28.46,28.22l-.05.06a1.63,1.63,0,0,1-.27-.43c0-.06,0-.07.05-.05A1.68,1.68,0,0,1,28.46,28.22Z"/><path class="cls-16" d="M73.5,68a.11.11,0,0,1,.12,0s0,0,0,.06h0s0,0,0,.06v0a1.12,1.12,0,0,1-.33-.16s0,0,0,0v0l.06,0s.09,0,.11.06Z"/><path class="cls-17" d="M28.19,27.8l-.05.05a.85.85,0,0,1-.18-.32s.05,0,.06,0Z"/><path class="cls-18" d="M73.34,68v0l-.15,0a.18.18,0,0,1-.07,0h0l.09-.09.06,0s0,.06,0,0a.06.06,0,0,1,.06,0s0,0,0,0Z"/><path class="cls-19" d="M28,27.53H28c-.07-.07-.18-.13-.1-.27Z"/><path class="cls-20" d="M73.12,67.91l.07,0S73.13,67.94,73.12,67.91Z"/><path class="cls-21" d="M40.36,37.47a5.69,5.69,0,0,1,.13-.81,6.1,6.1,0,0,1,.14-.72c0-.14-.06-.22-.13-.31l-.93-1.18-2.63-3.36-1.69-2.15-.17-.24c.08-.12.15-.24.24-.35s.13-.16.24,0l.95,1.26.05.06c.24.38.53.72.79,1.08.62.84,1.24,1.67,1.87,2.5,0,0,.06.06.09.1.39.57.83,1.12,1.24,1.68l.34.45a.29.29,0,0,1,.06.27l-.54,1.89C40.28,37.61,40.34,37.54,40.36,37.47Z"/><path class="cls-4" d="M64.26,63.15a3.91,3.91,0,0,1-2.77,1.11L62,64a6.91,6.91,0,0,0,1.44-1.13.2.2,0,0,1,.3,0C63.88,62.92,64.06,63,64.26,63.15Z"/><path class="cls-4" d="M34.86,38.54a25.35,25.35,0,0,1-2.5-3.44l-.26-.44c.08-.06.09,0,.11.05a10.59,10.59,0,0,1,.7,1.09c0,.05.06.11.13.13l.11.16h0l.11.16h0a4.07,4.07,0,0,0,.33.48h0c0,.08.11.14.16.22h0a1.53,1.53,0,0,1,.11.16c.06.18.22.29.33.44l.7.9A.07.07,0,0,1,34.86,38.54Z"/><path class="cls-22" d="M55.61,60.71a.18.18,0,0,1,.14-.08.25.25,0,0,1-.13.15S55.58,60.74,55.61,60.71Z"/><path class="cls-23" d="M55.61,60.71v.07a.19.19,0,0,1-.12.1l0-.05C55.48,60.77,55.55,60.75,55.61,60.71Z"/><path class="cls-24" d="M32.32,42.47l-.06,0s.1-.08.13,0S32.36,42.46,32.32,42.47Z"/><path class="cls-25" d="M39.15,48.65v-.06s.05-.06.07,0S39.19,48.63,39.15,48.65Z"/><path class="cls-21" d="M53,50.35c.06-.31.1-.63.18-.93a.26.26,0,0,0-.1-.3A1.59,1.59,0,0,1,53,49L47,43.25c-.1-.09-.18-.19-.28-.29l.13-.42a.31.31,0,0,1,.22.15c.84.83,1.68,1.65,2.51,2.49.61.62,1.25,1.22,1.85,1.85s1.28,1.26,1.92,1.89a.31.31,0,0,1,.09.38c-.14.38-.27.77-.4,1.15C53,50.45,53,50.41,53,50.35Z"/><path class="cls-21" d="M61.89,58.17,60.8,57l-1.68-1.82c-.23-.25-.47-.49-.71-.74-.87-.88-1.73-1.78-2.65-2.61A16.3,16.3,0,0,0,53.57,50c0-.08,0-.13.06-.19l.22-.32c.08,0,.11,0,.14.07.75.73,1.5,1.44,2.23,2.18s1.64,1.67,2.44,2.52c1.05,1.11,2.09,2.23,3,3.44l.26.37C62,58.17,61.94,58.18,61.89,58.17Z"/><path class="cls-26" d="M46.19,43.64c-.06,0,0-.13,0-.2a8.24,8.24,0,0,1,0-1.11c0-.08,0-.13-.08-.18l-1.59-1.76c-.29-.32-.57-.65-.85-1a.54.54,0,0,0-.16-.14.53.53,0,0,1,.18-.3l.82.89,1.83,2a.41.41,0,0,1,.12.43C46.35,42.76,46.27,43.2,46.19,43.64Z"/><path class="cls-26" d="M42.94,39.39c0-.17.05-.35.09-.52a.22.22,0,0,0-.06-.23c-.22-.24-.43-.49-.65-.72s-.57-.62-.86-.92a1.45,1.45,0,0,1,.26-.42l.7.85c.26.32.51.64.78,1a.34.34,0,0,1,.07.39c-.1.24-.19.48-.28.72C42.9,39.49,42.92,39.44,42.94,39.39Z"/><path class="cls-27" d="M61.89,58.17l.06-.06a1.87,1.87,0,0,1,.34.49C62.1,58.5,62,58.31,61.89,58.17Z"/><path class="cls-28" d="M40.36,37.47c0,.06,0,.12,0,.16l-.11.43s0,0,0,0A1.71,1.71,0,0,1,40.36,37.47Z"/><path class="cls-29" d="M53,50.35s0,.08,0,.1,0,.28-.15.39A1.19,1.19,0,0,1,53,50.35Z"/><path class="cls-30" d="M42.94,39.39s0,.08.05.1a.67.67,0,0,1-.15.33A1.34,1.34,0,0,1,42.94,39.39Z"/><path class="cls-31" d="M40.25,38.06h0a.71.71,0,0,1-.1.32C40.21,38.28,40.16,38.16,40.25,38.06Z"/><path class="cls-32" d="M46.69,42.32h.05l-.06.17C46.61,42.42,46.64,42.37,46.69,42.32Z"/><path class="cls-33" d="M40.46,38.27l.06,0s0,.1-.08.13A.14.14,0,0,1,40.46,38.27Z"/><path class="cls-31" d="M40.14,38.55c0-.06,0-.13.06-.17A.19.19,0,0,1,40.14,38.55Z"/><path class="cls-34" d="M40.42,47.75l0,0v0Z"/><path class="cls-35" d="M73.67,68.13v-.06s.07,0,.07,0S73.69,68.12,73.67,68.13Z"/><path class="cls-36" d="M73.67,68.07s-.11,0,0-.06Z"/><path class="cls-20" d="M73.28,67.86s0,0,0,0Z"/><path class="cls-37" d="M73.34,68v0h0Z"/><path class="cls-37" d="M73.5,68v0Z"/></g></svg>