<svg id="Layer_1" data-name="Layer 1" xmlns="http://www.w3.org/2000/svg" viewBox="0 0 100 100"><defs><style>.cls-1{opacity:0.5;}.cls-2{fill:#ff0;stroke:#494949;stroke-miterlimit:10;}.cls-3{fill:#ffa63b;}.cls-4{fill:#fff;}.cls-5{fill:#cecece;}.cls-6{fill:#e8e8e8;}</style></defs><g id="Cloud_Icon" data-name="Cloud Icon"><ellipse class="cls-1" cx="50.49" cy="52.41" rx="42.26" ry="40.84"/><ellipse class="cls-2" cx="49.51" cy="48.59" rx="42.26" ry="40.84"/><ellipse class="cls-3" cx="49.51" cy="48.59" rx="36.16" ry="34.95"/><path class="cls-4" d="M73.59,51.56a6.28,6.28,0,0,0-6.08-7.93,6.44,6.44,0,0,0-1.39.16c0-.19,0-.37,0-.56a10.48,10.48,0,0,0-20.7-2.3,6.51,6.51,0,0,0-9.33,4.18,5.88,5.88,0,0,0-9,5,5.77,5.77,0,0,0,.13,1.25,3.54,3.54,0,0,0-1.66,2.3,3.48,3.48,0,1,0,2.65,5.84c1.35,1.4,4.13,2.36,7.35,2.36a12.42,12.42,0,0,0,6.15-1.45,31,31,0,0,0,9,1.24,30.65,30.65,0,0,0,9.48-1.38,7.48,7.48,0,0,0,4.34,1.38,7.39,7.39,0,0,0,5.23-2.12,4.69,4.69,0,1,0,3.81-8Z"/><path class="cls-5" d="M73.13,60.59a4.65,4.65,0,0,1-3.35-1.4,7.39,7.39,0,0,1-5.23,2.12,7.48,7.48,0,0,1-4.34-1.38,30.65,30.65,0,0,1-9.48,1.38,31,31,0,0,1-9-1.24,12.42,12.42,0,0,1-6.15,1.45c-3.22,0-6-1-7.35-2.36a3.48,3.48,0,0,1-6-2c0,.11,0,.22,0,.34a3.47,3.47,0,0,0,6,2.36c1.35,1.4,4.13,2.36,7.35,2.36a12.42,12.42,0,0,0,6.15-1.45,31,31,0,0,0,9,1.24,30.65,30.65,0,0,0,9.48-1.38A7.48,7.48,0,0,0,64.55,62a7.39,7.39,0,0,0,5.23-2.12,4.7,4.7,0,0,0,8-3.29c0-.12,0-.23,0-.34A4.7,4.7,0,0,1,73.13,60.59Z"/><path class="cls-6" d="M27.1,50.09c0,.11,0,.22,0,.34s0,.44,0,.65l.1-.06A5.77,5.77,0,0,1,27.1,50.09Z"/><path class="cls-6" d="M73.73,51.25a6.5,6.5,0,0,0,.08-1c0-.09,0-.18,0-.27a6.43,6.43,0,0,1-.21,1.24Z"/><path class="cls-6" d="M66.14,43.46c0-.08,0-.16,0-.24a1.93,1.93,0,0,1,0,.24Z"/><path class="cls-6" d="M77.81,56.22c0-.11,0-.21,0-.32a4.68,4.68,0,0,0-4.09-4.65c0,.21-.08.43-.14.64A4.69,4.69,0,0,1,77.81,56.22Z"/><path class="cls-6" d="M33,44.53a5.85,5.85,0,0,1,3.13.91,6.51,6.51,0,0,1,9.33-4.18,10.47,10.47,0,0,1,20.69,2c0-.11,0-.21,0-.32a10.48,10.48,0,0,0-20.7-2.3,6.51,6.51,0,0,0-9.33,4.18,5.88,5.88,0,0,0-9,5c0,.11,0,.21,0,.32A5.9,5.9,0,0,1,33,44.53Z"/><path class="cls-6" d="M36.35,51.14a4.44,4.44,0,0,1,2.36.69,4.91,4.91,0,0,1,7-3.15,7.89,7.89,0,0,1,15.58,1.47c0-.08,0-.16,0-.24a7.89,7.89,0,0,0-15.59-1.73,4.91,4.91,0,0,0-7,3.15,4.44,4.44,0,0,0-6.8,3.76c0,.08,0,.16,0,.24A4.44,4.44,0,0,1,36.35,51.14Z"/><path class="cls-6" d="M66.12,44.12A6.44,6.44,0,0,1,67.51,44a6.3,6.3,0,0,1,6.29,6c0-.13,0-.26,0-.39a6.3,6.3,0,0,0-6.3-6.3,6.19,6.19,0,0,0-1.37.16v.1C66.14,43.75,66.13,43.93,66.12,44.12Z"/><path class="cls-6" d="M25.56,54a3.54,3.54,0,0,1,1.66-2.3c0-.2-.07-.4-.1-.6a3.55,3.55,0,0,0-1.56,2.24,3.48,3.48,0,0,0-3.38,3.48c0,.11,0,.22,0,.32A3.49,3.49,0,0,1,25.56,54Z"/></g></svg>