<svg xmlns="http://www.w3.org/2000/svg" viewBox="0 0 512 512"><defs><style>.cls-1{isolation:isolate;}.cls-2{opacity:0.5;}.cls-3,.cls-37{fill:#fff;}.cls-4{fill:#003b49;}.cls-13,.cls-5{fill:#f23636;stroke:#a50e0e;}.cls-10,.cls-13,.cls-16,.cls-18,.cls-20,.cls-21,.cls-23,.cls-27,.cls-36,.cls-39,.cls-40,.cls-5,.cls-7{stroke-miterlimit:10;}.cls-5{stroke-width:2.56px;}.cls-6{fill:#f4a800;}.cls-18,.cls-7{fill:#ea2424;}.cls-21,.cls-23,.cls-7{stroke:#000;}.cls-10,.cls-23,.cls-7{stroke-width:2px;}.cls-8{fill:#f95353;}.cls-9{fill:#b52121;}.cls-10{fill:#c4000c;stroke:#680710;}.cls-11{fill:#e83d56;}.cls-12{fill:#ff83a1;}.cls-13{stroke-width:1.9px;}.cls-14{fill:#fc7c7c;}.cls-15{fill:#571094;}.cls-16{fill:#d6d6d0;stroke:#8e888a;}.cls-17{fill:#efefed;opacity:0.6;}.cls-18{stroke:#af0404;stroke-width:1.98px;}.cls-19{fill:#ff4824;}.cls-20{fill:#8b8c88;stroke:#383535;}.cls-21,.cls-23{fill:#32332e;}.cls-22{fill:#ff4821;}.cls-24{fill:#ff4822;}.cls-25,.cls-35{fill:#d7f7ff;}.cls-25{opacity:0.25;}.cls-26{fill:#9f1dfd;}.cls-27{fill:#25a4d6;stroke:#0b5b68;}.cls-28{fill:#9ae9f7;}.cls-29{fill:#defcff;}.cls-30{fill:#931ad8;}.cls-31{fill:#e5bfff;}.cls-32{fill:#5a1197;}.cls-33{fill:#941ad9;}.cls-34{fill:#b132ff;}.cls-35{opacity:0.37;}.cls-36{fill:#8aeeff;stroke:#044a66;stroke-width:1.61px;}.cls-37{mix-blend-mode:soft-light;}.cls-38{fill:#5c0f95;}.cls-39,.cls-40{fill:#ff9022;stroke:#c96a0a;}.cls-39{stroke-width:0.82px;}.cls-40{stroke-width:0.82px;}</style></defs><g class="cls-1"><g id="Layer_1" data-name="Layer 1"><g class="cls-2"><path d="M227.12,245.78a11.7,11.7,0,0,1-10.2-17.49,13.07,13.07,0,0,1,18.62-15.53,12.08,12.08,0,0,1,2.25-.22,11.74,11.74,0,0,1,9,19.22,13.09,13.09,0,0,1-13,12.25h-.46A11.72,11.72,0,0,1,227.12,245.78Z"/><path d="M246.5,209.36a14.21,14.21,0,0,1-5.94-1.3,16,16,0,0,1-4.51.65,16.2,16.2,0,0,1-8.53-30,16.19,16.19,0,0,1,26.35-5.69h.47a14.24,14.24,0,0,1,5.35,27.43A14.25,14.25,0,0,1,246.5,209.36Z"/><path d="M274.42,181.35a16.46,16.46,0,0,1-9.49-3,16.1,16.1,0,0,1-2.28-1.92A14.55,14.55,0,0,1,254.27,154a14.39,14.39,0,0,1,5.45-4.7,16.56,16.56,0,0,1,31.48-2.12,14.54,14.54,0,0,1,7.67,22.24A14.59,14.59,0,0,1,287,175.63a16.6,16.6,0,0,1-12.54,5.72Z"/><path d="M279,229.56c-5.36,0-9.56-4.83-9.56-11v-3.79a12.11,12.11,0,0,1,2-6.71,9.56,9.56,0,0,1,7.87-4.47,181.76,181.76,0,0,1,75.28,0,11,11,0,0,1,3.14.72,9.43,9.43,0,0,1,4.52,3.57,12.22,12.22,0,0,1,2.06,6.87v3.79c0,6.16-4.2,11-9.57,11Z"/><path d="M309,380.61a28.76,28.76,0,0,1-25.36-15,30.21,30.21,0,0,1-50.16,3,21.55,21.55,0,0,1-29.85,8.46,23.16,23.16,0,0,1-2.16-1.28,8.68,8.68,0,0,1-6.4,2.85H159.79a6.81,6.81,0,0,1-5.5-10.75l16-22.56v-.22h-.21l-.05-8.62-.09-4.36-.15-14.55,5.66,0a25.7,25.7,0,0,1-2.53-11.16A26.78,26.78,0,0,1,185.74,284v-4.39a15.15,15.15,0,0,1,15.14-15.14h.94a15.08,15.08,0,0,1,9.56,3.41l-.57-4.7a10.18,10.18,0,0,1-5.12-8.83v-.4a10.16,10.16,0,0,1,1.5-5.32,9.25,9.25,0,0,1,7.4-4.77,9,9,0,0,1,1.27-.08h32.2a9.07,9.07,0,0,1,1.28.08,8.23,8.23,0,0,1,7,4.22,10.15,10.15,0,0,1,1.88,5.87v.4a10.18,10.18,0,0,1-5.12,8.83l-1.76,14.51h28.41V217.18h76.41v60.65h.46l-.13,30.69h5.42v1l.11,5.55.05,20.11,0,9.73-18.26.07v13.15h-5.08a29.27,29.27,0,0,1-22.31,21.5A28.84,28.84,0,0,1,309,380.61Z"/></g><path class="cls-3" d="M221.79,240.45A11.73,11.73,0,0,1,211.58,223a13.06,13.06,0,0,1,18.62-15.52,11.39,11.39,0,0,1,2.26-.22,11.74,11.74,0,0,1,9,19.22,13.08,13.08,0,0,1-13,12.24H228A11.72,11.72,0,0,1,221.79,240.45Z"/><path class="cls-3" d="M241.17,204a14.14,14.14,0,0,1-5.94-1.3,16.21,16.21,0,0,1-20.72-15.55,16.18,16.18,0,0,1,7.68-13.77,16.19,16.19,0,0,1,26.35-5.69H249a14.24,14.24,0,0,1,5.35,27.43A14.25,14.25,0,0,1,241.17,204Z"/><path class="cls-3" d="M269.09,176a16.46,16.46,0,0,1-9.49-3,16.1,16.1,0,0,1-2.28-1.92A14.56,14.56,0,0,1,254.39,144a16.57,16.57,0,0,1,31.48-2.12,14.55,14.55,0,0,1-4.24,28.46A16.6,16.6,0,0,1,269.09,176Z"/><path class="cls-3" d="M273.71,224.22c-5.36,0-9.56-4.82-9.56-11v-3.79a12.17,12.17,0,0,1,2-6.72,9.55,9.55,0,0,1,7.86-4.46,181.76,181.76,0,0,1,75.28,0,11.1,11.1,0,0,1,3.15.72,9.41,9.41,0,0,1,4.52,3.56,12.27,12.27,0,0,1,2.05,6.88v3.79c0,6.16-4.2,11-9.56,11Z"/><path class="cls-3" d="M303.7,375.28a28.76,28.76,0,0,1-25.36-15,30.21,30.21,0,0,1-50.16,3,21.55,21.55,0,0,1-29.85,8.46,23.16,23.16,0,0,1-2.16-1.28,8.67,8.67,0,0,1-6.4,2.84H154.46A6.8,6.8,0,0,1,149,362.61l16-22.56v-.22h-.21l0-8.62-.09-4.37-.16-14.55,5.67,0a25.75,25.75,0,0,1-2.53-11.17,26.81,26.81,0,0,1,12.81-22.52v-4.38a15.15,15.15,0,0,1,15.14-15.14h.94a15.13,15.13,0,0,1,9.56,3.4l-.57-4.69a10.18,10.18,0,0,1-5.12-8.83v-.4a10.16,10.16,0,0,1,1.5-5.32c.14-.26.3-.52.47-.78a8.21,8.21,0,0,1,6.92-4,9.18,9.18,0,0,1,1.28-.09h32.2a9.18,9.18,0,0,1,1.28.09,8.21,8.21,0,0,1,7,4.22,10.15,10.15,0,0,1,1.88,5.87v.4a10.18,10.18,0,0,1-5.12,8.83L246,272.32h28.4V211.85h76.41v60.64h.47l-.13,30.7h5.42v1l.1,5.55.05,20.1,0,9.73-18.26.08v13.15h-5.08a29.26,29.26,0,0,1-22.3,21.5A28.9,28.9,0,0,1,303.7,375.28Z"/><rect class="cls-4" x="186.15" y="333" width="35.19" height="27.26"/><rect class="cls-4" x="207.46" y="319.12" width="124.66" height="27.26"/><path class="cls-5" d="M192.19,333.22H179a2.72,2.72,0,0,0-2.21,1.19l-22.64,31.9a.4.4,0,0,0,.28.64h35.31a2.54,2.54,0,0,0,2.4-2.66v-30Z"/><polygon class="cls-6" points="190.51 365.23 190.51 334.63 188.45 334.63 183.76 365.23 190.51 365.23"/><polygon class="cls-6" points="181.86 365.23 187.4 334.63 185.38 334.63 174.38 365.23 181.86 365.23"/><polygon class="cls-6" points="172.93 365.23 183.94 334.63 181.5 334.63 164.86 365.23 172.93 365.23"/><polygon class="cls-6" points="163.3 365.23 180.15 334.63 178.19 334.63 156.94 365.23 163.3 365.23"/><polygon class="cls-7" points="242.53 247.99 238.29 282.97 214.97 282.97 214.32 277.57 210.73 247.99 242.53 247.99"/><polygon class="cls-8" points="232.72 249.76 229.86 284.73 215.32 285.44 214.77 279.38 211.25 249.76 232.72 249.76"/><polygon class="cls-9" points="241.67 252.29 238.04 284.12 235.7 285.33 235.37 279.27 238.26 250.31 241.67 252.29"/><rect class="cls-10" x="206.76" y="244.81" width="39.75" height="7.95" rx="3.54"/><rect class="cls-11" x="207.2" y="244.93" width="38.77" height="5.4" rx="2.4"/><rect class="cls-12" x="207.57" y="244.89" width="38.08" height="3.78" rx="1.68"/><ellipse class="cls-13" cx="196.33" cy="301.15" rx="22.33" ry="20.68"/><ellipse class="cls-14" cx="200" cy="300.8" rx="22.33" ry="20.68"/><path class="cls-15" d="M344.65,328.53,186.78,330.6l0-44.61a6.28,6.28,0,0,1,6-6.45l35.35-.71,116.76.06Z"/><path class="cls-16" d="M237.79,218.94a5.33,5.33,0,0,0-5.33-5.33,5.25,5.25,0,0,0-3.27,1.13,6.66,6.66,0,1,0-9.64,9.14,5.33,5.33,0,1,0,6.56,8,6.54,6.54,0,0,0,2.35.43,6.65,6.65,0,0,0,6.39-8.56A5.34,5.34,0,0,0,237.79,218.94Z"/><path class="cls-17" d="M233.9,220.72a3.66,3.66,0,0,0-5.91-2.89,4.57,4.57,0,1,0-6.6,6.27,3.66,3.66,0,1,0,4.5,5.46,4.52,4.52,0,0,0,1.61.3,4.58,4.58,0,0,0,4.57-4.57,4.71,4.71,0,0,0-.19-1.31A3.66,3.66,0,0,0,233.9,220.72Z"/><path class="cls-16" d="M249,174.11a7.81,7.81,0,0,0-3.1.64,9.79,9.79,0,0,0-18.35,3.15,9.8,9.8,0,1,0,8.27,17.62A7.83,7.83,0,0,0,249,189.79a7.84,7.84,0,1,0,0-15.68Z"/><path class="cls-17" d="M245.73,175.82a6.06,6.06,0,0,0-2.38.49,7.5,7.5,0,0,0-14,2.41,7.5,7.5,0,1,0,6.33,13.5,6,6,0,0,0,10.09-4.39,6,6,0,0,0,0-12Z"/><path class="cls-16" d="M276.31,139.63a10.17,10.17,0,0,0-16,9.24,8.14,8.14,0,0,0-4.14,14.81,8.07,8.07,0,0,0,4.47,1.46,10.15,10.15,0,0,0,16.78.13,10.29,10.29,0,0,0,1.07-2,8.14,8.14,0,1,0,2.13-15.62A10.14,10.14,0,0,0,276.31,139.63Z"/><path class="cls-17" d="M274.5,141.43a7.68,7.68,0,0,0-12,7,6.14,6.14,0,0,0,.25,12.27,7.88,7.88,0,0,0,2,2,7.67,7.67,0,0,0,10.69-1.9,7.44,7.44,0,0,0,.81-1.49,6.14,6.14,0,1,0,1.6-11.77A7.63,7.63,0,0,0,274.5,141.43Z"/><circle class="cls-18" cx="209.16" cy="353.15" r="15.17"/><circle class="cls-19" cx="208.04" cy="352.95" r="14.8"/><circle class="cls-20" cx="208.2" cy="353.15" r="6.79"/><path class="cls-21" d="M205.48,353.15a2.72,2.72,0,1,0,2.72-2.72A2.72,2.72,0,0,0,205.48,353.15Z"/><path class="cls-14" d="M208.3,339.54s-10.1,0-12.31,8.48c0,0-.59.37.73.44s2.07-7.52,12.17-7.23C208.89,341.23,211,340.64,208.3,339.54Z"/><path class="cls-14" d="M206.22,365.22s-9.94-1.76-10.65-10.49c0,0-.52-.46.8-.31s.73,7.77,10.73,9.23C207.1,363.65,209.1,364.6,206.22,365.22Z"/><circle class="cls-18" cx="305.25" cy="345.82" r="22.67"/><circle class="cls-22" cx="303.7" cy="346.39" r="22.49"/><circle class="cls-20" cx="303.81" cy="345.82" r="10.15"/><path class="cls-23" d="M299.75,345.82a4.06,4.06,0,1,0,4.06-4.06A4.06,4.06,0,0,0,299.75,345.82Z"/><path class="cls-14" d="M322.65,348.45s-2.6,14.87-15.65,15.94c0,0-.69.77-.46-1.2s11.6-1.1,13.76-16C320.3,347.15,321.72,344.15,322.65,348.45Z"/><path class="cls-14" d="M304.66,326.63s-15.09,0-18.39,12.67c0,0-.88.55,1.1.66s3.08-11.23,18.17-10.79C305.54,329.17,308.74,328.29,304.66,326.63Z"/><circle class="cls-18" cx="253.13" cy="345.82" r="22.67"/><circle class="cls-24" cx="251.57" cy="346.39" r="22.49"/><circle class="cls-20" cx="251.68" cy="345.82" r="10.15"/><path class="cls-21" d="M247.62,345.82a4.06,4.06,0,1,0,4.06-4.06A4.06,4.06,0,0,0,247.62,345.82Z"/><path class="cls-14" d="M270.52,348.45s-2.6,14.87-15.65,15.94c0,0-.69.77-.46-1.2s11.6-1.1,13.77-16C268.18,347.15,269.59,344.15,270.52,348.45Z"/><path class="cls-14" d="M252.53,326.63s-15.09,0-18.39,12.67c0,0-.88.55,1.1.66s3.08-11.23,18.17-10.79C253.41,329.17,256.61,328.29,252.53,326.63Z"/><path class="cls-25" d="M283.08,278.72h-44.5l-38.66.44-7.16,21.37s3.75-11.61,35.68-16.85A374.26,374.26,0,0,1,283.08,278.72Z"/><polygon class="cls-26" points="342.86 307.78 187.41 307.97 187.44 289.99 228.11 289.7 343 289.68 342.86 307.78"/><path class="cls-27" d="M349.41,217.83h-75.7c-1.75,0-3.16-2.06-3.16-4.59v-3.79c0-2.53,1.41-4.59,3.16-4.59a175.92,175.92,0,0,1,75.7,0,2.76,2.76,0,0,1,2.24,1.34,5.82,5.82,0,0,1,.92,3.25v3.79C352.57,215.77,351.16,217.83,349.41,217.83Z"/><path class="cls-28" d="M349,213.25H274.16a3,3,0,0,1-3.13-2.92v-2.42a3,3,0,0,1,3.13-2.93,196.07,196.07,0,0,1,37.48-3.9A186.58,186.58,0,0,1,349,205a3.31,3.31,0,0,1,2.21.86,2.81,2.81,0,0,1,.92,2.07v2.42A3,3,0,0,1,349,213.25Z"/><path class="cls-29" d="M348.43,210.33H274.51c-1.7,0-3.09-.9-3.09-2v-1.66c0-1.1,1.39-2,3.09-2,10.85-1.45,23.2-3.58,37.13-3.58s26.19,2.08,36.79,3.58a4.24,4.24,0,0,1,2.19.59,1.73,1.73,0,0,1,.9,1.41v1.66C351.52,209.43,350.14,210.33,348.43,210.33Z"/><rect class="cls-30" x="280.82" y="218.25" width="63.61" height="98.14"/><path class="cls-30" d="M171.12,333.41,171,318.87l94,.43a15.77,15.77,0,0,1,14.69-9.41c11.27-.2,70.6-.15,70.6-.15l.05,23.18Z"/><path class="cls-31" d="M171,326.78l-.09-8.06,94,.43a15.74,15.74,0,0,1,14.68-9.41c11.27-.21,70.6-.16,70.6-.16l.06,16.7Z"/><path class="cls-32" d="M343.72,218.69l-62.39-.11-.1,91.21,9.15.16S297.74,247.14,343.72,218.69Z"/><path class="cls-33" d="M195,265.51h2a8.2,8.2,0,0,1,8.2,8.2v45a0,0,0,0,1,0,0H186.81a0,0,0,0,1,0,0v-45A8.2,8.2,0,0,1,195,265.51Z"/><path class="cls-34" d="M195.16,267.82h1.58a4.06,4.06,0,0,1,4.06,4.06v20.06a0,0,0,0,1,0,0H191.1a0,0,0,0,1,0,0V271.88A4.06,4.06,0,0,1,195.16,267.82Z"/><rect class="cls-30" x="259.17" y="242.35" width="3.34" height="179.02" transform="translate(591.67 69.71) rotate(89.77)"/><path class="cls-35" d="M344.43,218.25s-41.52,18.18-54.05,91.7l4.16-.16s8.26-35.36,49.89-73.36Z"/><path class="cls-36" d="M337,232.74V260a4.68,4.68,0,0,1-4.8,4.55H296.06a4.93,4.93,0,0,1-2.39-.6,4.51,4.51,0,0,1-2.41-4V232.74a4.68,4.68,0,0,1,4.8-4.55h36.18a4.86,4.86,0,0,1,3.13,1.11A4.4,4.4,0,0,1,337,232.74Z"/><polygon class="cls-37" points="291.65 241.88 291.73 255.26 336.8 246.13 337.04 232.75 291.65 241.88"/><path class="cls-38" d="M227.11,318.41h1.07a4.31,4.31,0,0,1,4.31,4.31V347.5a3.56,3.56,0,0,1-3.56,3.56h-2.57a3.56,3.56,0,0,1-3.56-3.56V322.72a4.31,4.31,0,0,1,4.31-4.31Z" transform="translate(562.38 107.09) rotate(90)"/><path class="cls-39" d="M237.71,331.16h.58a2.35,2.35,0,0,1,2.35,2.35v16.83a2.16,2.16,0,0,1-2.16,2.16h-1a2.16,2.16,0,0,1-2.16-2.16V333.51a2.35,2.35,0,0,1,2.35-2.35Z" transform="translate(651.63 292.86) rotate(118.1)"/><path class="cls-40" d="M283.17,305.14h.63a2.54,2.54,0,0,1,2.54,2.54V384a2.1,2.1,0,0,1-2.1,2.1h-1.51a2.1,2.1,0,0,1-2.1-2.1v-76.3a2.54,2.54,0,0,1,2.54-2.54Z" transform="translate(629.08 62.12) rotate(90)"/></g></g></svg>