<svg id="Layer_1" data-name="Layer 1" xmlns="http://www.w3.org/2000/svg" viewBox="0 0 512 512"><defs><style>.cls-1{opacity:0.5;}.cls-2{fill:#f3f2f2;}.cls-3{fill:#461216;}.cls-4{fill:#0f193d;}.cls-5{fill:#14223a;}.cls-6{fill:#570f18;}.cls-7{fill:#070909;}.cls-8{fill:#481418;}.cls-9{fill:#3f1b1e;}.cls-10{fill:#3e1a1d;}.cls-11{fill:#e8e3e4;}.cls-12{fill:#3a1c1f;}.cls-13{fill:#371417;}.cls-14{fill:#391417;}.cls-15{fill:#341316;}.cls-16{fill:#361619;}.cls-17{fill:#33181a;}.cls-18{fill:#ba202d;}.cls-19{fill:#b9202d;}.cls-20{fill:#96222c;}.cls-21{fill:#958182;}.cls-22{fill:#304b6b;}.cls-23{fill:#ebeaec;}.cls-24{fill:#570e17;}.cls-25{fill:#fefefe;}.cls-26{fill:#1e0c0f;}.cls-27{fill:#3d1316;}</style></defs><path class="cls-1" d="M406.17,344.58a30.23,30.23,0,0,1-21.78-10.13,13.3,13.3,0,0,1-1.44.08h-.32a31.05,31.05,0,0,1-4-.38l-.45-.07a8.18,8.18,0,0,1-7-7,7.57,7.57,0,0,1,3.95-7.8,21.8,21.8,0,0,1-2-.93,8,8,0,0,1-4-9.22,7.7,7.7,0,0,1,5.87-5.49,7.92,7.92,0,0,1,2.07-3c.07-.21.15-.47.21-.69l.21-.66c2.76-8.67,7.22-15.23,13.62-20.07a33.8,33.8,0,0,1,11.77-6.14,50.15,50.15,0,0,1,20.4-4.43,52.38,52.38,0,0,1,16.2,2.66l4.82,1.57,0,.26a26.08,26.08,0,0,1,2.53,1.24l.22.12a30.26,30.26,0,0,1,16.15,29.88,10.54,10.54,0,0,1,1.81,4.46,7.62,7.62,0,0,1,4.24,7.4,8.08,8.08,0,0,1-6.32,7.4,8.13,8.13,0,0,1-6.17,9.59l-.16,0a25.31,25.31,0,0,1-5.12.63h-.53a7.52,7.52,0,0,1-.07,2.82,7.75,7.75,0,0,1-4.71,5.4,7.44,7.44,0,0,1-3.84,1h-.2a24.51,24.51,0,0,1-2.87.19,14.33,14.33,0,0,1-3.82-.48l-.79-.21-.71-.41A9.36,9.36,0,0,1,430,338.5a53.13,53.13,0,0,1-8.35,1.18,34.64,34.64,0,0,1-12.22,4.67A23.27,23.27,0,0,1,406.17,344.58Z"/><path class="cls-2" d="M400.84,339.25a30.26,30.26,0,0,1-21.78-10.12c-.46,0-.94.07-1.44.07h-.31a31.11,31.11,0,0,1-4.05-.39l-.45-.06a8.21,8.21,0,0,1-7-7.05,7.58,7.58,0,0,1,4-7.8,20.57,20.57,0,0,1-2-.93,8,8,0,0,1-4-9.22,7.68,7.68,0,0,1,5.86-5.49,8.12,8.12,0,0,1,2.07-3c.07-.2.15-.47.22-.69l.2-.66c2.77-8.66,7.22-15.23,13.62-20.06a33.9,33.9,0,0,1,11.77-6.15,50.38,50.38,0,0,1,20.41-4.42,52.46,52.46,0,0,1,16.2,2.65l4.81,1.57,0,.26a23.9,23.9,0,0,1,2.53,1.25l.23.12A30.25,30.25,0,0,1,457.81,299a10.53,10.53,0,0,1,1.81,4.47,7.58,7.58,0,0,1,4.24,7.39,8.07,8.07,0,0,1-6.32,7.4,8,8,0,0,1,.15,2.25,7.91,7.91,0,0,1-6.31,7.34l-.16,0a26.15,26.15,0,0,1-5.13.63h-.53a7.12,7.12,0,0,1-.07,2.82,7.78,7.78,0,0,1-4.7,5.41,7.58,7.58,0,0,1-3.85,1h-.2a24.39,24.39,0,0,1-2.87.2,14.62,14.62,0,0,1-3.81-.48l-.8-.22-.71-.4a9.46,9.46,0,0,1-3.88-3.73,53,53,0,0,1-8.35,1.18A34.45,34.45,0,0,1,404.1,339,23.27,23.27,0,0,1,400.84,339.25Z"/><path class="cls-3" d="M399.76,273.73A43.48,43.48,0,0,1,432.14,272c-.06.7-1.35.38-1.21,1.32-8.37,4.6-14.47,11.64-20.29,19,6-6.88,12.34-13.32,20.22-18.06a3.45,3.45,0,0,1,1.22-.44c2.43-1.39,4.48-.17,6.55.94a24,24,0,0,1,12.66,25,2.13,2.13,0,0,0,.28,1.77,9.29,9.29,0,0,0-.35,4c.1.48.08,1.15-.71,1.25-.28,0-.16-.58-.57-.41-.47,1-.69,2.05-1.66,2.68a19,19,0,0,0-1.93,3.32c-.87,1.42-1.07,3.12-2,4.51-.07.11-.23.05-.31-.06a.27.27,0,0,1,0-.32v-1.4a40.91,40.91,0,0,1-8.67,7.08c-.61.35-.37.82-.33,1.3a4.49,4.49,0,0,1-.77,3.53.32.32,0,0,1-.45-.08c-.4-1.11.73-2.14.13-3.32-1,.39-.83,1.36-1,2.14s-.26,1.91-1.53,2c0,0-.07-.08-.08-.13a.58.58,0,0,1,0-.18c.39-1,1.05-2,.61-3.31a46.38,46.38,0,0,1-17.47,4c-.09-.8.5-1,1.08-1.12a8.49,8.49,0,0,0,1.94-.28c7.39-.86,14.26-3.08,20.27-7.62a32.13,32.13,0,0,0,10.83-13.84c5-12.51-.89-25.2-12.7-30.3a3.17,3.17,0,0,0-3,.32,75.73,75.73,0,0,0-9.79,6.9c-3.93,3.14-7,7.14-10.56,10.6a4.24,4.24,0,0,0-1.2,4.91c.36,1,.94,2.11.17,3.22a.8.8,0,0,1-1-.25,16.32,16.32,0,0,1-1.23-4.27c-.21-1-.58-1.17-1.53-.86-1.8.59-3.24,1.8-4.87,2.68a21,21,0,0,1-5.66-.07c-.27-.17-.56-.36-.27-.72a1.08,1.08,0,0,1,1-.4c3.52.7,5.95-1.76,8.78-3a6.59,6.59,0,0,0,2.49-2.48,89.35,89.35,0,0,1,14.6-15.5c1.42-1.22,3.12-2.05,4.59-3.28-.28-.59-.84-.52-1.28-.62a40,40,0,0,0-22.5,1.21,24.65,24.65,0,0,1-3.58,1.09A1.34,1.34,0,0,1,399.76,273.73Z"/><path class="cls-4" d="M415.56,327.33a1.21,1.21,0,0,0-1.09.71c-3.55,2.08-7.12,4-11.29,4.65-8.16,1.19-18.34-4.18-21.88-11.61-.15-.31-.12-.76-.57-.88a2.4,2.4,0,0,1-.76-1.32,18.29,18.29,0,0,1-.52-4.94,10.09,10.09,0,0,1,.15-2.13,13,13,0,0,0,.36-1.73c1.66-6.54,6.61-9.7,12.41-11.9,1.4-.53,2.85-1.43,4.46-.52l6.43,0a10.56,10.56,0,0,1,7.44,2.58.73.73,0,0,0,.75.45,1.56,1.56,0,0,1,1.08.23c9.1,5.46,11.35,15.17,6.23,23.43a10.77,10.77,0,0,1-2,2.23C416.43,327,415.93,327,415.56,327.33Z"/><path class="cls-5" d="M399.76,273.73l1.22.38a3.21,3.21,0,0,1,2.2,3.58,4.73,4.73,0,0,1-.49,1.41c-2.08,4.08-10.41,5.21-13.56,1.84-.62-.91,0-1.48.58-2.05A27.7,27.7,0,0,1,399.76,273.73Z"/><path class="cls-6" d="M380,311.62l-.1,2.27c-.76,1.81-.24,3.52.44,5.21.43.26.36.7.39,1.1-.44,2.21-.92,2.64-3.34,2.6a28.51,28.51,0,0,1-3.68-.38,1.79,1.79,0,0,1-1.57-1.62c-.15-1,.73-1.39,1.48-1.6a30.45,30.45,0,0,1,3.24-.58l-.51-1.79c.17-.83,0-1.67.1-2.51a8.52,8.52,0,0,1,2.26-3.12C379.37,310.67,379.89,310.48,380,311.62Z"/><path class="cls-6" d="M444.05,316.45c.71.12.59-.65.57-.79-.29-1.59.71-2.46,1.73-3.34,1.36,1.81.71,3.64,0,5.57,1.26.25,2.51.49,3.75.77.73.16,1.28.57,1.22,1.41a1.6,1.6,0,0,1-1.18,1.54,13.53,13.53,0,0,1-6.1.3c-1.78-.46-2.2-1.42-1.39-3.07C443.06,318,443.58,317.25,444.05,316.45Z"/><path class="cls-6" d="M450.45,306.37c.77-.45.41-1.17.23-1.68a2.82,2.82,0,0,1,.89-3.17c2.07,2.05,2.28,3.88.8,6.75.57,1,1.44.41,2.21.42a.89.89,0,0,1,.36,0c1,.41,2.65.21,2.54,1.8s-1.58,1.76-2.91,1.81a18.31,18.31,0,0,0-4.5,0c-1.73-.3-1.67-1.53-1.45-2.83a15.6,15.6,0,0,1,1.36-3.1A.35.35,0,0,1,450.45,306.37Z"/><path class="cls-7" d="M432.08,273.84c-2.56,2.17-5.51,3.79-8.14,5.89-4.9,3.9-9,8.56-13.14,13.19-.2.21-.36.52-.78.45-.62-.64.16-1,.4-1.35,5.11-6.79,10.77-13,18-17.71a3.57,3.57,0,0,1,2.55-.95Z"/><path class="cls-6" d="M431.33,327.38c1-.64,1.32-1,1.24-2.6,0-.76.09-1.18.76-1.43.32-.13.68-.47,1-.07a1.72,1.72,0,0,1,.23,1.75c-.23.63-.4,1.29-.6,1.94.06.65.37,1,1.07.93a10.66,10.66,0,0,1,2.92.4c1.42,1.32,1.41,1.49-.22,2.81a1.24,1.24,0,0,1-1.14.28,33,33,0,0,0-4.87-.05C429.82,330.26,429.76,329.66,431.33,327.38Z"/><path class="cls-8" d="M380,311.62c-.35-.77-.71-.59-1.25-.13a17.58,17.58,0,0,0-2.14,2.74.4.4,0,0,1-.05-.53,2.4,2.4,0,0,1,1.09-1.85c1.58-1,1.57-2.2.83-3.64-.37-.25-.82-.42-1-.86a12.58,12.58,0,0,1-.59-5.06c0-.73.12-1.5-.72-1.91a.44.44,0,0,1,.06-.49c1.23-1.06,1.54-2.52,2-4,2.16-6.77,5.7-12.66,11.5-17-.11.54-.86.92-.39,1.6a43.6,43.6,0,0,0-7.27,9.45c-2.62,5-4.31,10.22-3.05,16,.32,1.46,1.17,2.74,1.36,4.23C380.32,310.67,380.48,311.22,380,311.62Z"/><path class="cls-9" d="M376.2,299.89l0,.47c.16,1.53-.4,3-.15,4.58.16.93-.76.93-1.48.81a8.84,8.84,0,0,0-2.56-.35c-.31.05-.63.13-.73.48s.13.58.38.78c.62.5,1.47.68,1.95,1.39a.51.51,0,0,1,0,.51c-1-.4-1.95-.75-2.87-1.23a1.62,1.62,0,0,1-.8-1.91c.2-.73.86-.94,1.61-1a4,4,0,0,0,3.75-3C375.49,300.88,375.59,300.24,376.2,299.89Z"/><path class="cls-10" d="M373.61,308.56c0-.11,0-.22,0-.33,1.33-.53,2.89.26,4.13-.75a.68.68,0,0,1,.75.73C376.94,309.58,375.29,309.3,373.61,308.56Z"/><path class="cls-11" d="M450.17,306.43a6.9,6.9,0,0,1-1.55,3l-.34-.43,1.45-3.36C450.45,305.58,450.23,306.05,450.17,306.43Z"/><path class="cls-12" d="M438.1,328.48c-1.24,0-2.4-.52-3.66-.42-1,.08-.75-.54-.49-1.09h.33c0,.86.67.73,1.21.74a5.1,5.1,0,0,1,3,.75A.23.23,0,0,1,438.1,328.48Z"/><path class="cls-13" d="M431.71,331.34a9,9,0,0,1,4.87.05A12.67,12.67,0,0,1,431.71,331.34Z"/><path class="cls-14" d="M438.1,328.48l.39,0c1.25,1.22,1,2-.77,2.66a.53.53,0,0,1-.18,0,2.53,2.53,0,0,1-.26-.22C438.5,330.39,439.27,329.77,438.1,328.48Z"/><path class="cls-15" d="M450.07,312.26a7.28,7.28,0,0,1,4.5,0A15.42,15.42,0,0,1,450.07,312.26Z"/><path class="cls-16" d="M454.58,308.69a3.19,3.19,0,0,1-2.7.06s.12-.39.18-.61l.31.13C453,308.86,453.87,308.41,454.58,308.69Z"/><path class="cls-17" d="M376.56,313.7c0,.18,0,.35.05.53-.12.86.24,1.78-.26,2.6A4.4,4.4,0,0,1,376.56,313.7Z"/><path class="cls-18" d="M416.32,326.57c5.7-5.49,5.93-14.59,1.81-19.95a27.05,27.05,0,0,0-6.68-5.89,21.52,21.52,0,0,0-.94-4.55,2.12,2.12,0,0,1,.27-2.1c6.56-7.55,13.44-14.74,22.36-19.59a2.91,2.91,0,0,1,2.8-.12,23.49,23.49,0,0,1,14.86,22.94,26.41,26.41,0,0,1-6.45,16c-7,8.4-16.05,12.76-26.86,13.67C417,327.09,416.42,327.5,416.32,326.57Z"/><path class="cls-18" d="M380.36,310.16c-2.77-4-2.79-8.46-1.71-12.89a33.39,33.39,0,0,1,9.41-16.06,1.78,1.78,0,0,1,1.26-.72,4.49,4.49,0,0,0,3.68,1.89,12.24,12.24,0,0,0,7.23-1.4c3-1.82,3.29-4.43.75-6.87a41.49,41.49,0,0,1,29.12-1.81c-5.64,3.15-9.9,7.31-14.05,11.62a77.39,77.39,0,0,0-7.08,8.67,9.65,9.65,0,0,1-2.72,2.14,15.44,15.44,0,0,1-9.42,2.93C389.17,299,383,302.22,380.36,310.16Z"/><path class="cls-19" d="M410.7,300.28a41.73,41.73,0,0,0-7.44-2.58c1.32-1.82,3.42-2.3,5.35-3.07.64-.26.85,0,1,.61C409.91,296.93,410.32,298.6,410.7,300.28Z"/><path class="cls-20" d="M416.32,326.57c.27.46.75.36,1.17.42-.57.54-1.28.28-1.93.34A1.27,1.27,0,0,1,416.32,326.57Z"/><path class="cls-21" d="M450.17,306.43c-.1-.29.05-.72-.44-.79,0-.33.16-.68.48-.51.52.26.19.81.24,1.24A1.4,1.4,0,0,1,450.17,306.43Z"/><path class="cls-22" d="M420.12,314.85c.05,6.61-3,10.85-8.16,13.73a26.3,26.3,0,0,1-10.33,3.57,14.07,14.07,0,0,1-6.58-1c-4.54-1.83-8.94-3.91-11.76-8.2-3.68-5.58-3.64-12.72.55-17.77a19.34,19.34,0,0,1,12-6.64c8-1.29,14.68,1.47,20.28,7.08A12.24,12.24,0,0,1,420.12,314.85Z"/><path class="cls-23" d="M380.34,319.1c-1.62-2.28-1.71-3.38-.44-5.21C380.05,315.63,380.19,317.36,380.34,319.1Z"/><path class="cls-24" d="M377.73,307.48c-.17,1.41-1.26,1.13-2.14,1.1a14.08,14.08,0,0,1-2-.35c-.83-.43-1.68-.82-2.48-1.29a1.12,1.12,0,0,1-.62-1.25,1.24,1.24,0,0,1,1.14-.82,8,8,0,0,1,3.11.44c.84.2,1.26.18.92-.81a5.49,5.49,0,0,1,.56-4.14c.59-.36,1.18-.94,1.14.46A27,27,0,0,0,377.73,307.48Z"/><path class="cls-5" d="M446.33,304.12c-.08,4.26-5.54,8.48-9.7,7.43a4.54,4.54,0,0,1-3.26-3.32c-1.58-5.15,3.44-10.59,8.73-9.46A5.06,5.06,0,0,1,446.33,304.12Z"/><path class="cls-5" d="M433.05,291c-2.64,0-4.33-1.63-4.3-4.1,0-3,2.88-5.56,6.17-5.55,2.94,0,5,1.89,5,4.44C439.85,288.71,436.82,291,433.05,291Z"/><path class="cls-5" d="M424.35,296.57c2.73,0,4.54,1.63,4.58,4.12,0,2.94-3.32,5.81-6.88,5.88a4,4,0,0,1-4-4.26C418.09,299,420.75,296.56,424.35,296.57Z"/><path class="cls-5" d="M398.57,294.36a4.2,4.2,0,0,1-4.2-2.82,6.44,6.44,0,0,1,2-6.42,7.32,7.32,0,0,1,6.67-1.44,4.55,4.55,0,0,1,3.73,4,5.21,5.21,0,0,1-2.49,5.25A9.36,9.36,0,0,1,398.57,294.36Z"/><path class="cls-5" d="M385.26,298.86c-2.28,0-3.8-1.36-3.78-3.43a5,5,0,0,1,5.19-4.77c2.53,0,4.22,1.47,4.22,3.7C390.88,296.9,388.45,298.84,385.26,298.86Z"/><path class="cls-5" d="M413.17,273.36c2.35,0,4.18,1.59,4.18,3.6,0,2.45-2.86,4.7-5.85,4.61a3.53,3.53,0,0,1-3.68-3.42C407.84,275.38,410.14,273.33,413.17,273.36Z"/><path class="cls-25" d="M410.23,321.46c-4.88,0-8.85-3.54-8.8-7.82a8.48,8.48,0,0,1,8.08-8,7.7,7.7,0,0,1,7.86,8C417.41,318.25,414.49,321.46,410.23,321.46Z"/><path class="cls-25" d="M399,310.57c0,4.3-2.71,7.32-6.57,7.31-4.45,0-8.27-3.4-8.24-7.3a8,8,0,0,1,7.64-7.51A7.13,7.13,0,0,1,399,310.57Z"/><path class="cls-26" d="M406.27,322.53c-2.6,4.72-6,6.68-9.9,5.91-2.91-.58-4.71-3.52-5.05-8.45C395.54,325.06,400.56,325.41,406.27,322.53Z"/><path class="cls-27" d="M411.6,309.46c-.5,1-1,2,0,2.89s1.78,0,2.59-.46c.72,2.48.23,4.15-1.52,5.29a4.43,4.43,0,0,1-6.42-5.42C407.22,309.75,409,309,411.6,309.46Z"/><path class="cls-27" d="M395.6,310.18c.13,2.5-.67,4-2.44,4.68a3.88,3.88,0,0,1-4.53-1.18,3.58,3.58,0,0,1-.51-4.61,4,4,0,0,1,4.3-1.91c.47.08,1,.06.78,1C392.8,310.2,393.44,310.68,395.6,310.18Z"/><path class="cls-2" d="M401.59,325.19c-3,1.87-6,1.26-7.88-1.8A11.88,11.88,0,0,0,401.59,325.19Z"/><path class="cls-1" d="M299.63,344.58a30.23,30.23,0,0,1-21.78-10.13,13.3,13.3,0,0,1-1.44.08h-.32a31.22,31.22,0,0,1-4-.38l-.45-.07a8.18,8.18,0,0,1-7-7,7.57,7.57,0,0,1,3.95-7.8,21.8,21.8,0,0,1-2-.93,8,8,0,0,1-4-9.22,7.7,7.7,0,0,1,5.87-5.49,8,8,0,0,1,2.07-3c.07-.21.15-.47.21-.69l.21-.66c2.76-8.67,7.22-15.23,13.62-20.07a33.89,33.89,0,0,1,11.77-6.14,50.15,50.15,0,0,1,20.4-4.43,52.49,52.49,0,0,1,16.21,2.66l4.81,1.57,0,.26a26.08,26.08,0,0,1,2.53,1.24l.22.12a30.26,30.26,0,0,1,16.15,29.88,10.54,10.54,0,0,1,1.81,4.46,7.62,7.62,0,0,1,4.24,7.4,8.08,8.08,0,0,1-6.32,7.4,8.13,8.13,0,0,1-6.17,9.59l-.16,0a25.22,25.22,0,0,1-5.12.63h-.53a7.31,7.31,0,0,1-.07,2.82,7.75,7.75,0,0,1-4.7,5.4,7.51,7.51,0,0,1-3.85,1h-.2a24.51,24.51,0,0,1-2.87.19,14.33,14.33,0,0,1-3.82-.48l-.79-.21-.71-.41a9.36,9.36,0,0,1-3.88-3.72,53.13,53.13,0,0,1-8.35,1.18,34.64,34.64,0,0,1-12.22,4.67A23.27,23.27,0,0,1,299.63,344.58Z"/><path class="cls-2" d="M294.31,339.25a30.26,30.26,0,0,1-21.79-10.12c-.46,0-.94.07-1.44.07h-.31a31.11,31.11,0,0,1-4-.39l-.45-.06a8.21,8.21,0,0,1-7-7.05,7.58,7.58,0,0,1,4-7.8,20.57,20.57,0,0,1-2-.93,8,8,0,0,1-4-9.22,7.68,7.68,0,0,1,5.86-5.49,8.12,8.12,0,0,1,2.07-3c.07-.2.15-.47.22-.69l.2-.66c2.77-8.66,7.22-15.23,13.62-20.06A33.9,33.9,0,0,1,291,267.73a50.38,50.38,0,0,1,20.41-4.42,52.46,52.46,0,0,1,16.2,2.65l4.81,1.57,0,.26A23.9,23.9,0,0,1,334.9,269l.23.12A30.25,30.25,0,0,1,351.27,299a10.4,10.4,0,0,1,1.81,4.47,7.58,7.58,0,0,1,4.24,7.39,8.07,8.07,0,0,1-6.32,7.4,7.65,7.65,0,0,1,.15,2.25,7.91,7.91,0,0,1-6.31,7.34l-.16,0a26.15,26.15,0,0,1-5.13.63H339a7.12,7.12,0,0,1-.07,2.82,7.78,7.78,0,0,1-4.7,5.41,7.58,7.58,0,0,1-3.85,1h-.2a24.39,24.39,0,0,1-2.87.2,14.62,14.62,0,0,1-3.81-.48l-.8-.22-.71-.4a9.46,9.46,0,0,1-3.88-3.73,53,53,0,0,1-8.35,1.18A34.38,34.38,0,0,1,297.56,339,23.13,23.13,0,0,1,294.31,339.25Z"/><path class="cls-3" d="M293.22,273.73A43.48,43.48,0,0,1,325.6,272c-.06.7-1.34.38-1.2,1.32-8.38,4.6-14.48,11.64-20.3,19,6-6.88,12.34-13.32,20.23-18.06a3.31,3.31,0,0,1,1.22-.44c2.42-1.39,4.47-.17,6.54.94a24,24,0,0,1,12.66,25,2.13,2.13,0,0,0,.28,1.77,9.28,9.28,0,0,0-.34,4c.09.48.07,1.15-.72,1.25-.27,0-.16-.58-.57-.41-.47,1-.69,2.05-1.66,2.68a19,19,0,0,0-1.93,3.32c-.86,1.42-1.07,3.12-2,4.51-.08.11-.23.05-.32-.06a.27.27,0,0,1,0-.32v-1.4a40.91,40.91,0,0,1-8.67,7.08c-.61.35-.37.82-.32,1.3a4.53,4.53,0,0,1-.78,3.53.32.32,0,0,1-.45-.08c-.4-1.11.73-2.14.13-3.32-1,.39-.83,1.36-1,2.14s-.26,1.91-1.53,2c0,0-.07-.08-.08-.13a1.24,1.24,0,0,1,0-.18c.39-1,1-2,.61-3.31a46.38,46.38,0,0,1-17.47,4c-.09-.8.5-1,1.08-1.12a8.49,8.49,0,0,0,1.94-.28c7.39-.86,14.26-3.08,20.27-7.62a32.13,32.13,0,0,0,10.83-13.84c5-12.51-.89-25.2-12.7-30.3a3.17,3.17,0,0,0-3,.32,75.73,75.73,0,0,0-9.79,6.9c-3.93,3.14-7,7.14-10.56,10.6a4.24,4.24,0,0,0-1.2,4.91c.36,1,.94,2.11.17,3.22a.8.8,0,0,1-1-.25,16.32,16.32,0,0,1-1.23-4.27c-.21-1-.58-1.17-1.53-.86-1.8.59-3.23,1.8-4.87,2.68a21,21,0,0,1-5.66-.07c-.27-.17-.56-.36-.27-.72a1.08,1.08,0,0,1,1-.4c3.52.7,5.95-1.76,8.78-3a6.59,6.59,0,0,0,2.49-2.48,89.35,89.35,0,0,1,14.6-15.5c1.42-1.22,3.12-2.05,4.59-3.28-.28-.59-.84-.52-1.28-.62a40,40,0,0,0-22.5,1.21,24.65,24.65,0,0,1-3.58,1.09A1.34,1.34,0,0,1,293.22,273.73Z"/><path class="cls-4" d="M309,327.33a1.21,1.21,0,0,0-1.09.71c-3.55,2.08-7.12,4-11.29,4.65-8.16,1.19-18.34-4.18-21.88-11.61-.14-.31-.12-.76-.57-.88a2.4,2.4,0,0,1-.76-1.32,18.29,18.29,0,0,1-.52-4.94,10.09,10.09,0,0,1,.15-2.13,13,13,0,0,0,.36-1.73c1.67-6.54,6.61-9.7,12.41-11.9,1.4-.53,2.85-1.43,4.46-.52l6.43,0a10.56,10.56,0,0,1,7.44,2.58.75.75,0,0,0,.76.45A1.55,1.55,0,0,1,306,301c9.1,5.46,11.36,15.17,6.23,23.43a10.77,10.77,0,0,1-2,2.23C309.89,327,309.39,327,309,327.33Z"/><path class="cls-5" d="M293.22,273.73l1.22.38a3.21,3.21,0,0,1,2.2,3.58,4.73,4.73,0,0,1-.49,1.41c-2.08,4.08-10.41,5.21-13.56,1.84-.62-.91,0-1.48.58-2.05A27.7,27.7,0,0,1,293.22,273.73Z"/><path class="cls-6" d="M273.46,311.62l-.09,2.27c-.76,1.81-.25,3.52.43,5.21.43.26.36.7.39,1.1-.44,2.21-.91,2.64-3.34,2.6a28.51,28.51,0,0,1-3.68-.38,1.79,1.79,0,0,1-1.57-1.62c-.15-1,.73-1.39,1.48-1.6a30.91,30.91,0,0,1,3.24-.58l-.51-1.79c.17-.83,0-1.67.1-2.51a8.52,8.52,0,0,1,2.26-3.12C272.83,310.67,273.35,310.48,273.46,311.62Z"/><path class="cls-6" d="M337.51,316.45c.71.12.59-.65.57-.79-.29-1.59.71-2.46,1.73-3.34,1.36,1.81.71,3.64,0,5.57,1.26.25,2.51.49,3.76.77.72.16,1.27.57,1.21,1.41a1.6,1.6,0,0,1-1.18,1.54,13.53,13.53,0,0,1-6.1.3c-1.78-.46-2.2-1.42-1.39-3.07C336.52,318,337,317.25,337.51,316.45Z"/><path class="cls-6" d="M343.91,306.37c.77-.45.41-1.17.24-1.68a2.8,2.8,0,0,1,.88-3.17c2.07,2.05,2.28,3.88.8,6.75.58,1,1.45.41,2.21.42a.89.89,0,0,1,.36,0c1,.41,2.65.21,2.54,1.8s-1.58,1.76-2.9,1.81a18.39,18.39,0,0,0-4.51,0c-1.73-.3-1.67-1.53-1.45-2.83a15.6,15.6,0,0,1,1.36-3.1A.35.35,0,0,1,343.91,306.37Z"/><path class="cls-7" d="M325.55,273.84c-2.57,2.17-5.52,3.79-8.15,5.89-4.9,3.9-9,8.56-13.14,13.19-.2.21-.36.52-.78.45-.62-.64.16-1,.4-1.35,5.11-6.79,10.77-13,18-17.71a3.57,3.57,0,0,1,2.55-.95Z"/><path class="cls-6" d="M324.79,327.38c1-.64,1.32-1,1.24-2.6,0-.76.09-1.18.76-1.43.32-.13.68-.47,1-.07A1.72,1.72,0,0,1,328,325c-.23.63-.4,1.29-.6,1.94.06.65.37,1,1.07.93a10.66,10.66,0,0,1,2.92.4c1.42,1.32,1.41,1.49-.22,2.81a1.24,1.24,0,0,1-1.14.28,33,33,0,0,0-4.87-.05C323.28,330.26,323.22,329.66,324.79,327.38Z"/><path class="cls-8" d="M273.46,311.62c-.35-.77-.71-.59-1.25-.13a17.58,17.58,0,0,0-2.14,2.74.4.4,0,0,1-.05-.53,2.38,2.38,0,0,1,1.1-1.85c1.57-1,1.56-2.2.82-3.64-.37-.25-.82-.42-1-.86a12.58,12.58,0,0,1-.59-5.06c0-.73.12-1.5-.72-1.91a.48.48,0,0,1,.06-.49c1.23-1.06,1.54-2.52,2-4,2.16-6.77,5.7-12.66,11.5-17-.11.54-.86.92-.39,1.6a43.6,43.6,0,0,0-7.27,9.45c-2.62,5-4.31,10.22-3.05,16,.32,1.46,1.17,2.74,1.36,4.23C273.78,310.67,273.94,311.22,273.46,311.62Z"/><path class="cls-9" d="M269.66,299.89l0,.47c.16,1.53-.4,3-.15,4.58.16.93-.76.93-1.47.81a9,9,0,0,0-2.57-.35c-.31.05-.63.13-.73.48s.13.58.38.78c.62.5,1.47.68,2,1.39a.51.51,0,0,1,0,.51c-1-.4-1.95-.75-2.87-1.23a1.62,1.62,0,0,1-.8-1.91c.2-.73.86-.94,1.61-1a4,4,0,0,0,3.75-3C269,300.88,269.05,300.24,269.66,299.89Z"/><path class="cls-10" d="M267.07,308.56c0-.11,0-.22,0-.33,1.33-.53,2.89.26,4.13-.75a.68.68,0,0,1,.75.73C270.41,309.58,268.75,309.3,267.07,308.56Z"/><path class="cls-11" d="M343.63,306.43a6.9,6.9,0,0,1-1.55,3l-.34-.43,1.45-3.36C343.91,305.58,343.69,306.05,343.63,306.43Z"/><path class="cls-12" d="M331.56,328.48c-1.24,0-2.4-.52-3.66-.42-1,.08-.75-.54-.49-1.09h.33c0,.86.67.73,1.21.74a5.1,5.1,0,0,1,3,.75A.23.23,0,0,1,331.56,328.48Z"/><path class="cls-13" d="M325.17,331.34a9,9,0,0,1,4.87.05A12.67,12.67,0,0,1,325.17,331.34Z"/><path class="cls-14" d="M331.56,328.48l.39,0c1.25,1.22,1,2-.77,2.66a.53.53,0,0,1-.18,0,1.71,1.71,0,0,1-.25-.22C332,330.39,332.73,329.77,331.56,328.48Z"/><path class="cls-15" d="M343.53,312.26a7.31,7.31,0,0,1,4.51,0A15.49,15.49,0,0,1,343.53,312.26Z"/><path class="cls-16" d="M348,308.69a3.19,3.19,0,0,1-2.7.06s.12-.39.18-.61l.31.13C346.48,308.86,347.33,308.41,348,308.69Z"/><path class="cls-17" d="M270,313.7c0,.18,0,.35.05.53-.12.86.24,1.78-.26,2.6A4.4,4.4,0,0,1,270,313.7Z"/><path class="cls-18" d="M309.78,326.57c5.7-5.49,5.93-14.59,1.81-19.95a27.19,27.19,0,0,0-6.67-5.89,22.19,22.19,0,0,0-.95-4.55,2.1,2.1,0,0,1,.28-2.1c6.56-7.55,13.43-14.74,22.35-19.59a2.93,2.93,0,0,1,2.81-.12,23.5,23.5,0,0,1,14.85,22.94,26.41,26.41,0,0,1-6.45,16c-6.95,8.4-16.05,12.76-26.86,13.67C310.47,327.09,309.88,327.5,309.78,326.57Z"/><path class="cls-18" d="M273.82,310.16c-2.77-4-2.79-8.46-1.71-12.89a33.33,33.33,0,0,1,9.42-16.06,1.74,1.74,0,0,1,1.25-.72,4.49,4.49,0,0,0,3.68,1.89,12.24,12.24,0,0,0,7.23-1.4c3-1.82,3.29-4.43.75-6.87a41.49,41.49,0,0,1,29.12-1.81c-5.63,3.15-9.9,7.31-14,11.62a77.48,77.48,0,0,0-7.09,8.67,9.75,9.75,0,0,1-2.71,2.14,15.47,15.47,0,0,1-9.43,2.93C282.63,299,276.45,302.22,273.82,310.16Z"/><path class="cls-19" d="M304.16,300.28a41.73,41.73,0,0,0-7.44-2.58c1.33-1.82,3.42-2.3,5.35-3.07.64-.26.85,0,1,.61C303.37,296.93,303.78,298.6,304.16,300.28Z"/><path class="cls-20" d="M309.78,326.57c.27.46.75.36,1.17.42-.57.54-1.28.28-1.93.34A1.27,1.27,0,0,1,309.78,326.57Z"/><path class="cls-21" d="M343.63,306.43c-.1-.29.05-.72-.44-.79,0-.33.16-.68.48-.51.52.26.19.81.24,1.24A1.4,1.4,0,0,1,343.63,306.43Z"/><path class="cls-22" d="M313.58,314.85c.05,6.61-3,10.85-8.16,13.73a26.3,26.3,0,0,1-10.33,3.57,14.07,14.07,0,0,1-6.58-1c-4.54-1.83-8.94-3.91-11.76-8.2-3.68-5.58-3.64-12.72.55-17.77a19.34,19.34,0,0,1,12-6.64c8-1.29,14.68,1.47,20.28,7.08A12.24,12.24,0,0,1,313.58,314.85Z"/><path class="cls-23" d="M273.8,319.1c-1.62-2.28-1.71-3.38-.43-5.21C273.51,315.63,273.65,317.36,273.8,319.1Z"/><path class="cls-24" d="M271.19,307.48c-.17,1.41-1.26,1.13-2.14,1.1a14.08,14.08,0,0,1-2-.35c-.83-.43-1.68-.82-2.48-1.29a1.12,1.12,0,0,1-.62-1.25,1.24,1.24,0,0,1,1.14-.82,8,8,0,0,1,3.11.44c.84.2,1.26.18.93-.81a5.44,5.44,0,0,1,.55-4.14c.59-.36,1.18-.94,1.14.46A27,27,0,0,0,271.19,307.48Z"/><path class="cls-5" d="M339.79,304.12c-.08,4.26-5.54,8.48-9.69,7.43a4.54,4.54,0,0,1-3.27-3.32c-1.58-5.15,3.44-10.59,8.73-9.46A5.06,5.06,0,0,1,339.79,304.12Z"/><path class="cls-5" d="M326.51,291c-2.64,0-4.33-1.63-4.3-4.1,0-3,2.88-5.56,6.17-5.55,2.94,0,5,1.89,5,4.44C333.31,288.71,330.28,291,326.51,291Z"/><path class="cls-5" d="M317.81,296.57c2.73,0,4.54,1.63,4.58,4.12,0,2.94-3.32,5.81-6.88,5.88a4,4,0,0,1-4-4.26C311.55,299,314.21,296.56,317.81,296.57Z"/><path class="cls-5" d="M292,294.36a4.21,4.21,0,0,1-4.2-2.82,6.44,6.44,0,0,1,2-6.42,7.31,7.31,0,0,1,6.67-1.44,4.55,4.55,0,0,1,3.72,4,5.21,5.21,0,0,1-2.49,5.25A9.36,9.36,0,0,1,292,294.36Z"/><path class="cls-5" d="M278.72,298.86c-2.28,0-3.8-1.36-3.78-3.43a5,5,0,0,1,5.19-4.77c2.53,0,4.23,1.47,4.22,3.7C284.34,296.9,281.91,298.84,278.72,298.86Z"/><path class="cls-5" d="M306.63,273.36c2.35,0,4.18,1.59,4.18,3.6,0,2.45-2.86,4.7-5.85,4.61a3.53,3.53,0,0,1-3.68-3.42C301.31,275.38,303.6,273.33,306.63,273.36Z"/><path class="cls-25" d="M303.69,321.46c-4.88,0-8.85-3.54-8.79-7.82a8.46,8.46,0,0,1,8.08-8,7.7,7.7,0,0,1,7.85,8C310.87,318.25,308,321.46,303.69,321.46Z"/><path class="cls-25" d="M292.46,310.57c0,4.3-2.71,7.32-6.57,7.31-4.45,0-8.27-3.4-8.24-7.3a8,8,0,0,1,7.64-7.51A7.13,7.13,0,0,1,292.46,310.57Z"/><path class="cls-26" d="M299.73,322.53c-2.6,4.72-6,6.68-9.9,5.91-2.91-.58-4.71-3.52-5.05-8.45C289,325.06,294,325.41,299.73,322.53Z"/><path class="cls-27" d="M305.06,309.46c-.49,1-1,2,0,2.89s1.78,0,2.59-.46c.73,2.48.23,4.15-1.52,5.29a4.43,4.43,0,0,1-6.42-5.42C300.68,309.75,302.42,309,305.06,309.46Z"/><path class="cls-27" d="M289.06,310.18c.13,2.5-.67,4-2.44,4.68a3.88,3.88,0,0,1-4.53-1.18,3.58,3.58,0,0,1-.51-4.61,4,4,0,0,1,4.3-1.91c.47.08,1,.06.78,1C286.26,310.2,286.9,310.68,289.06,310.18Z"/><path class="cls-2" d="M295.05,325.19c-3,1.87-6.05,1.26-7.88-1.8A11.89,11.89,0,0,0,295.05,325.19Z"/><path class="cls-1" d="M192,344.58a30.23,30.23,0,0,1-21.79-10.13,13.3,13.3,0,0,1-1.44.08h-.31a30.88,30.88,0,0,1-4-.38l-.45-.07a8.2,8.2,0,0,1-7-7,7.6,7.6,0,0,1,4-7.8,21.8,21.8,0,0,1-2-.93,8,8,0,0,1-4-9.22,7.67,7.67,0,0,1,5.87-5.49,7.88,7.88,0,0,1,2.06-3l.22-.69.2-.66c2.77-8.67,7.22-15.23,13.62-20.07a33.94,33.94,0,0,1,11.78-6.14,50.15,50.15,0,0,1,20.4-4.43,52.38,52.38,0,0,1,16.2,2.66l4.81,1.57,0,.26a26.33,26.33,0,0,1,2.54,1.24l.22.12A30.25,30.25,0,0,1,249,304.36a10.56,10.56,0,0,1,1.82,4.46,7.64,7.64,0,0,1,4.24,7.4,8.11,8.11,0,0,1-6.33,7.4,7.62,7.62,0,0,1,.15,2.25,7.91,7.91,0,0,1-6.31,7.34l-.16,0a25.41,25.41,0,0,1-5.13.63h-.53a7.34,7.34,0,0,1-.06,2.82,7.77,7.77,0,0,1-4.71,5.4,7.47,7.47,0,0,1-3.84,1h-.21a24.22,24.22,0,0,1-2.87.19,14.21,14.21,0,0,1-3.81-.48l-.79-.21-.72-.41a9.35,9.35,0,0,1-3.87-3.72,53.13,53.13,0,0,1-8.35,1.18,34.62,34.62,0,0,1-12.23,4.67A23.13,23.13,0,0,1,192,344.58Z"/><path class="cls-2" d="M186.7,339.25a30.26,30.26,0,0,1-21.78-10.12c-.46,0-.94.07-1.44.07h-.32a31,31,0,0,1-4-.39l-.45-.06a8.2,8.2,0,0,1-7-7.05,7.57,7.57,0,0,1,4-7.8,19.46,19.46,0,0,1-2-.93,8,8,0,0,1-4-9.22,7.71,7.71,0,0,1,5.87-5.49,7.88,7.88,0,0,1,2.07-3c.07-.2.15-.47.21-.69l.21-.66c2.76-8.66,7.22-15.23,13.62-20.06a33.81,33.81,0,0,1,11.77-6.15,50.3,50.3,0,0,1,20.4-4.42A52.36,52.36,0,0,1,220,266l4.82,1.57,0,.26A23.9,23.9,0,0,1,227.3,269l.22.12A30.25,30.25,0,0,1,243.67,299a10.53,10.53,0,0,1,1.81,4.47,7.6,7.6,0,0,1,4.24,7.39,8.07,8.07,0,0,1-6.32,7.4,8,8,0,0,1,.15,2.25,7.91,7.91,0,0,1-6.32,7.34l-.16,0a26,26,0,0,1-5.12.63h-.53a7.52,7.52,0,0,1-.07,2.82,7.8,7.8,0,0,1-4.71,5.41,7.57,7.57,0,0,1-3.84,1h-.21a24.06,24.06,0,0,1-2.86.2,14.75,14.75,0,0,1-3.82-.48l-.79-.22-.71-.4a9.4,9.4,0,0,1-3.88-3.73,53.13,53.13,0,0,1-8.35,1.18A34.43,34.43,0,0,1,190,339,23,23,0,0,1,186.7,339.25Z"/><path class="cls-3" d="M185.62,273.73A43.47,43.47,0,0,1,218,272c-.06.7-1.35.38-1.21,1.32-8.38,4.6-14.47,11.64-20.29,19,6-6.88,12.34-13.32,20.22-18.06a3.38,3.38,0,0,1,1.22-.44c2.43-1.39,4.48-.17,6.55.94a24,24,0,0,1,12.66,25,2.09,2.09,0,0,0,.28,1.77,9.29,9.29,0,0,0-.35,4c.1.48.08,1.15-.71,1.25-.28,0-.16-.58-.57-.41-.47,1-.69,2.05-1.67,2.68a19.62,19.62,0,0,0-1.92,3.32c-.87,1.42-1.07,3.12-2,4.51-.07.11-.23.05-.32-.06a.29.29,0,0,1,0-.32v-1.4a41,41,0,0,1-8.68,7.08c-.6.35-.36.82-.32,1.3a4.53,4.53,0,0,1-.77,3.53.32.32,0,0,1-.45-.08c-.41-1.11.73-2.14.13-3.32-1,.39-.84,1.36-1,2.14s-.25,1.91-1.52,2c0,0-.08-.08-.08-.13a.58.58,0,0,1,0-.18c.39-1,1-2,.61-3.31a46.38,46.38,0,0,1-17.48,4c-.08-.8.5-1,1.09-1.12a8.41,8.41,0,0,0,1.93-.28c7.39-.86,14.27-3.08,20.27-7.62a32.13,32.13,0,0,0,10.83-13.84c5-12.51-.88-25.2-12.7-30.3a3.18,3.18,0,0,0-3,.32,75.73,75.73,0,0,0-9.79,6.9c-3.92,3.14-7,7.14-10.56,10.6a4.25,4.25,0,0,0-1.19,4.91c.36,1,.94,2.11.17,3.22a.8.8,0,0,1-1-.25,15.94,15.94,0,0,1-1.23-4.27c-.21-1-.58-1.17-1.53-.86-1.81.59-3.24,1.8-4.87,2.68a21.11,21.11,0,0,1-5.67-.07c-.26-.17-.55-.36-.27-.72a1.08,1.08,0,0,1,1-.4c3.53.7,5.95-1.76,8.79-3a6.59,6.59,0,0,0,2.49-2.48,89,89,0,0,1,14.6-15.5c1.41-1.22,3.12-2.05,4.59-3.28-.29-.59-.85-.52-1.29-.62a40,40,0,0,0-22.49,1.21,24.65,24.65,0,0,1-3.58,1.09A1.34,1.34,0,0,1,185.62,273.73Z"/><path class="cls-4" d="M201.41,327.33a1.22,1.22,0,0,0-1.09.71c-3.54,2.08-7.11,4-11.29,4.65-8.15,1.19-18.33-4.18-21.87-11.61-.15-.31-.12-.76-.57-.88a2.35,2.35,0,0,1-.77-1.32,18.7,18.7,0,0,1-.52-4.94,9.47,9.47,0,0,1,.16-2.13,14.72,14.72,0,0,0,.35-1.73c1.67-6.54,6.61-9.7,12.42-11.9,1.4-.53,2.85-1.43,4.46-.52l6.42,0a10.53,10.53,0,0,1,7.44,2.58.75.75,0,0,0,.76.45,1.57,1.57,0,0,1,1.08.23c9.1,5.46,11.35,15.17,6.23,23.43a10.77,10.77,0,0,1-2,2.23C202.29,327,201.79,327,201.41,327.33Z"/><path class="cls-5" d="M185.62,273.73l1.22.38a3.2,3.2,0,0,1,2.19,3.58,5,5,0,0,1-.48,1.41c-2.08,4.08-10.42,5.21-13.56,1.84-.62-.91,0-1.48.58-2.05A27.7,27.7,0,0,1,185.62,273.73Z"/><path class="cls-6" d="M165.85,311.62l-.09,2.27c-.76,1.81-.24,3.52.43,5.21.44.26.37.7.39,1.1-.43,2.21-.91,2.64-3.34,2.6a28.88,28.88,0,0,1-3.68-.38A1.79,1.79,0,0,1,158,320.8c-.15-1,.72-1.39,1.48-1.6a30,30,0,0,1,3.24-.58l-.52-1.79c.17-.83,0-1.67.11-2.51a8.61,8.61,0,0,1,2.25-3.12C165.23,310.67,165.75,310.48,165.85,311.62Z"/><path class="cls-6" d="M229.91,316.45c.71.12.59-.65.56-.79-.28-1.59.71-2.46,1.74-3.34,1.35,1.81.71,3.64,0,5.57,1.27.25,2.52.49,3.76.77.73.16,1.28.57,1.21,1.41a1.58,1.58,0,0,1-1.17,1.54,13.58,13.58,0,0,1-6.11.3c-1.77-.46-2.19-1.42-1.38-3.07C228.91,318,229.44,317.25,229.91,316.45Z"/><path class="cls-6" d="M236.3,306.37c.77-.45.42-1.17.24-1.68a2.81,2.81,0,0,1,.89-3.17c2.06,2.05,2.28,3.88.79,6.75.58,1,1.45.41,2.21.42a.89.89,0,0,1,.36,0c1,.41,2.65.21,2.55,1.8s-1.59,1.76-2.91,1.81a18.31,18.31,0,0,0-4.5,0c-1.73-.3-1.67-1.53-1.46-2.83a15.63,15.63,0,0,1,1.37-3.1A.34.34,0,0,1,236.3,306.37Z"/><path class="cls-7" d="M217.94,273.84c-2.56,2.17-5.51,3.79-8.14,5.89-4.91,3.9-9,8.56-13.15,13.19-.19.21-.36.52-.78.45-.61-.64.17-1,.41-1.35,5.11-6.79,10.77-13,18-17.71a3.59,3.59,0,0,1,2.55-.95Z"/><path class="cls-6" d="M217.19,327.38c1-.64,1.31-1,1.23-2.6,0-.76.1-1.18.76-1.43.32-.13.68-.47,1-.07a1.74,1.74,0,0,1,.24,1.75c-.24.63-.4,1.29-.6,1.94.05.65.37,1,1.07.93a10.71,10.71,0,0,1,2.92.4c1.42,1.32,1.4,1.49-.22,2.81a1.25,1.25,0,0,1-1.14.28,33,33,0,0,0-4.87-.05C215.67,330.26,215.62,329.66,217.19,327.38Z"/><path class="cls-8" d="M165.85,311.62c-.34-.77-.7-.59-1.24-.13a17,17,0,0,0-2.14,2.74.39.39,0,0,1-.06-.53,2.41,2.41,0,0,1,1.1-1.85c1.58-1,1.56-2.2.83-3.64-.38-.25-.82-.42-1-.86a12.41,12.41,0,0,1-.59-5.06c0-.73.12-1.5-.73-1.91a.48.48,0,0,1,.06-.49c1.23-1.06,1.54-2.52,2-4,2.16-6.77,5.7-12.66,11.5-17-.12.54-.86.92-.39,1.6a43.64,43.64,0,0,0-7.28,9.45c-2.62,5-4.31,10.22-3.05,16,.32,1.46,1.17,2.74,1.37,4.23C166.17,310.67,166.33,311.22,165.85,311.62Z"/><path class="cls-9" d="M162.05,299.89l0,.47c.16,1.53-.41,3-.15,4.58.15.93-.76.93-1.48.81a8.89,8.89,0,0,0-2.56-.35c-.31.05-.64.13-.73.48s.13.58.38.78c.62.5,1.47.68,1.94,1.39a.51.51,0,0,1,0,.51c-1-.4-2-.75-2.86-1.23a1.63,1.63,0,0,1-.81-1.91c.2-.73.87-.94,1.61-1a4,4,0,0,0,3.76-3C161.34,300.88,161.45,300.24,162.05,299.89Z"/><path class="cls-10" d="M159.46,308.56v-.33c1.33-.53,2.89.26,4.13-.75a.68.68,0,0,1,.75.73C162.8,309.58,161.15,309.3,159.46,308.56Z"/><path class="cls-11" d="M236,306.43a6.92,6.92,0,0,1-1.56,3l-.34-.43,1.46-3.36C236.3,305.58,236.08,306.05,236,306.43Z"/><path class="cls-12" d="M224,328.48c-1.23,0-2.4-.52-3.66-.42-.95.08-.74-.54-.48-1.09h.33c0,.86.67.73,1.21.74a5.1,5.1,0,0,1,3,.75A.23.23,0,0,1,224,328.48Z"/><path class="cls-13" d="M217.57,331.34a9,9,0,0,1,4.87.05A12.67,12.67,0,0,1,217.57,331.34Z"/><path class="cls-14" d="M224,328.48l.4,0c1.25,1.22,1,2-.77,2.66a.53.53,0,0,1-.18,0,2.53,2.53,0,0,1-.26-.22C224.35,330.39,225.12,329.77,224,328.48Z"/><path class="cls-15" d="M235.93,312.26a7.28,7.28,0,0,1,4.5,0A15.42,15.42,0,0,1,235.93,312.26Z"/><path class="cls-16" d="M240.43,308.69a3.17,3.17,0,0,1-2.69.06s.11-.39.17-.61l.31.13C238.87,308.86,239.72,308.41,240.43,308.69Z"/><path class="cls-17" d="M162.41,313.7l.06.53c-.12.86.24,1.78-.27,2.6A4.45,4.45,0,0,1,162.41,313.7Z"/><path class="cls-18" d="M202.17,326.57c5.7-5.49,5.93-14.59,1.82-19.95a27.23,27.23,0,0,0-6.68-5.89,21.54,21.54,0,0,0-.95-4.55,2.15,2.15,0,0,1,.28-2.1c6.56-7.55,13.43-14.74,22.36-19.59a2.91,2.91,0,0,1,2.8-.12,23.49,23.49,0,0,1,14.85,22.94,26.29,26.29,0,0,1-6.45,16c-6.95,8.4-16,12.76-26.85,13.67C202.87,327.09,202.28,327.5,202.17,326.57Z"/><path class="cls-18" d="M166.22,310.16c-2.77-4-2.79-8.46-1.72-12.89a33.33,33.33,0,0,1,9.42-16.06,1.76,1.76,0,0,1,1.26-.72,4.49,4.49,0,0,0,3.68,1.89,12.21,12.21,0,0,0,7.22-1.4c3-1.82,3.29-4.43.76-6.87A41.49,41.49,0,0,1,216,272.3c-5.64,3.15-9.9,7.31-14.05,11.62a76.3,76.3,0,0,0-7.08,8.67,9.79,9.79,0,0,1-2.72,2.14,15.44,15.44,0,0,1-9.42,2.93C175,299,168.84,302.22,166.22,310.16Z"/><path class="cls-19" d="M196.55,300.28a41.45,41.45,0,0,0-7.44-2.58c1.33-1.82,3.42-2.3,5.35-3.07.64-.26.86,0,1,.61C195.77,296.93,196.18,298.6,196.55,300.28Z"/><path class="cls-20" d="M202.17,326.57c.28.46.76.36,1.18.42-.57.54-1.28.28-1.94.34A1.32,1.32,0,0,1,202.17,326.57Z"/><path class="cls-21" d="M236,306.43c-.1-.29.05-.72-.44-.79,0-.33.15-.68.48-.51.51.26.18.81.23,1.24Z"/><path class="cls-22" d="M206,314.85c0,6.61-3,10.85-8.17,13.73a26.25,26.25,0,0,1-10.33,3.57,14.11,14.11,0,0,1-6.58-1c-4.53-1.83-8.93-3.91-11.76-8.2-3.67-5.58-3.63-12.72.56-17.77a19.31,19.31,0,0,1,12-6.64c8-1.29,14.68,1.47,20.28,7.08A12.24,12.24,0,0,1,206,314.85Z"/><path class="cls-23" d="M166.19,319.1c-1.62-2.28-1.71-3.38-.43-5.21C165.9,315.63,166.05,317.36,166.19,319.1Z"/><path class="cls-24" d="M163.59,307.48c-.17,1.41-1.26,1.13-2.14,1.1a13.6,13.6,0,0,1-2-.35c-.83-.43-1.68-.82-2.49-1.29a1.15,1.15,0,0,1-.62-1.25,1.26,1.26,0,0,1,1.14-.82,8,8,0,0,1,3.12.44c.84.2,1.25.18.92-.81a5.49,5.49,0,0,1,.56-4.14c.59-.36,1.18-.94,1.14.46A27,27,0,0,0,163.59,307.48Z"/><path class="cls-5" d="M232.18,304.12c-.07,4.26-5.54,8.48-9.69,7.43a4.54,4.54,0,0,1-3.26-3.32c-1.59-5.15,3.43-10.59,8.72-9.46A5,5,0,0,1,232.18,304.12Z"/><path class="cls-5" d="M218.9,291c-2.63,0-4.32-1.63-4.29-4.1,0-3,2.88-5.56,6.17-5.55,2.93,0,5,1.89,5,4.44C225.7,288.71,222.68,291,218.9,291Z"/><path class="cls-5" d="M210.21,296.57c2.73,0,4.53,1.63,4.57,4.12.05,2.94-3.32,5.81-6.88,5.88a4,4,0,0,1-4-4.26C204,299,206.6,296.56,210.21,296.57Z"/><path class="cls-5" d="M184.43,294.36a4.2,4.2,0,0,1-4.2-2.82,6.44,6.44,0,0,1,2-6.42,7.32,7.32,0,0,1,6.67-1.44,4.56,4.56,0,0,1,3.73,4,5.23,5.23,0,0,1-2.49,5.25A9.36,9.36,0,0,1,184.43,294.36Z"/><path class="cls-5" d="M171.12,298.86c-2.29,0-3.8-1.36-3.78-3.43a5,5,0,0,1,5.18-4.77c2.53,0,4.23,1.47,4.22,3.7C176.73,296.9,174.31,298.84,171.12,298.86Z"/><path class="cls-5" d="M199,273.36c2.36,0,4.18,1.59,4.18,3.6,0,2.45-2.86,4.7-5.85,4.61a3.52,3.52,0,0,1-3.67-3.42C193.7,275.38,196,273.33,199,273.36Z"/><path class="cls-25" d="M196.08,321.46c-4.87,0-8.85-3.54-8.79-7.82a8.47,8.47,0,0,1,8.08-8,7.71,7.71,0,0,1,7.86,8C203.26,318.25,200.35,321.46,196.08,321.46Z"/><path class="cls-25" d="M184.86,310.57c0,4.3-2.71,7.32-6.58,7.31-4.44,0-8.27-3.4-8.23-7.3a8,8,0,0,1,7.64-7.51A7.13,7.13,0,0,1,184.86,310.57Z"/><path class="cls-26" d="M192.13,322.53c-2.61,4.72-6,6.68-9.9,5.91-2.91-.58-4.71-3.52-5.06-8.45C181.4,325.06,186.41,325.41,192.13,322.53Z"/><path class="cls-27" d="M197.46,309.46c-.5,1-1,2,0,2.89s1.78,0,2.59-.46c.72,2.48.22,4.15-1.52,5.29a4.43,4.43,0,0,1-6.42-5.42C193.07,309.75,194.81,309,197.46,309.46Z"/><path class="cls-27" d="M181.46,310.18c.12,2.5-.68,4-2.44,4.68a3.87,3.87,0,0,1-4.53-1.18,3.59,3.59,0,0,1-.52-4.61,4,4,0,0,1,4.31-1.91c.46.08,1,.06.78,1C178.65,310.2,179.3,310.68,181.46,310.18Z"/><path class="cls-2" d="M187.45,325.19c-3,1.87-6,1.26-7.89-1.8A11.92,11.92,0,0,0,187.45,325.19Z"/><path class="cls-1" d="M85.49,344.58a30.19,30.19,0,0,1-21.78-10.13,13.59,13.59,0,0,1-1.44.08H62a30.88,30.88,0,0,1-4-.38l-.45-.07a8.18,8.18,0,0,1-7-7,7.57,7.57,0,0,1,3.95-7.8,21.8,21.8,0,0,1-2-.93,8,8,0,0,1-4-9.22,7.7,7.7,0,0,1,5.87-5.49,7.88,7.88,0,0,1,2.06-3l.22-.69.2-.66C59.53,290.6,64,284,70.38,279.2a33.94,33.94,0,0,1,11.78-6.14,50.15,50.15,0,0,1,20.4-4.43,52.38,52.38,0,0,1,16.2,2.66l4.82,1.57,0,.26a26.33,26.33,0,0,1,2.54,1.24l.22.12a30.25,30.25,0,0,1,16.14,29.88,10.56,10.56,0,0,1,1.82,4.46,7.64,7.64,0,0,1,4.24,7.4,8.11,8.11,0,0,1-6.33,7.4,8.09,8.09,0,0,1-6.16,9.59l-.16,0a25.41,25.41,0,0,1-5.13.63h-.53a7.34,7.34,0,0,1-.06,2.82,7.77,7.77,0,0,1-4.71,5.4,7.47,7.47,0,0,1-3.84,1h-.21a24.22,24.22,0,0,1-2.87.19,14.21,14.21,0,0,1-3.81-.48l-.79-.21-.71-.41a9.31,9.31,0,0,1-3.88-3.72,53.13,53.13,0,0,1-8.35,1.18,34.62,34.62,0,0,1-12.23,4.67A23.13,23.13,0,0,1,85.49,344.58Z"/><path class="cls-2" d="M80.16,339.25a30.26,30.26,0,0,1-21.78-10.12c-.46,0-.94.07-1.44.07h-.32a31,31,0,0,1-4-.39l-.45-.06a8.2,8.2,0,0,1-7-7.05,7.57,7.57,0,0,1,3.95-7.8,19.46,19.46,0,0,1-2-.93,8,8,0,0,1-4-9.22A7.71,7.71,0,0,1,49,298.26a8,8,0,0,1,2.07-3c.07-.2.15-.47.21-.69l.21-.66c2.76-8.66,7.22-15.23,13.62-20.06a33.81,33.81,0,0,1,11.77-6.15,50.3,50.3,0,0,1,20.4-4.42,52.36,52.36,0,0,1,16.2,2.65l4.82,1.57,0,.26a23.9,23.9,0,0,1,2.53,1.25l.22.12A30.25,30.25,0,0,1,137.13,299a10.53,10.53,0,0,1,1.81,4.47,7.6,7.6,0,0,1,4.24,7.39,8.07,8.07,0,0,1-6.32,7.4,8,8,0,0,1,.15,2.25,7.91,7.91,0,0,1-6.32,7.34l-.16,0a26,26,0,0,1-5.12.63h-.53a7.52,7.52,0,0,1-.07,2.82,7.78,7.78,0,0,1-4.71,5.41,7.57,7.57,0,0,1-3.84,1h-.2a24.39,24.39,0,0,1-2.87.2,14.75,14.75,0,0,1-3.82-.48l-.79-.22-.71-.4a9.4,9.4,0,0,1-3.88-3.73,53.13,53.13,0,0,1-8.35,1.18A34.45,34.45,0,0,1,83.42,339,23.27,23.27,0,0,1,80.16,339.25Z"/><path class="cls-3" d="M79.08,273.73A43.48,43.48,0,0,1,111.46,272c-.06.7-1.35.38-1.21,1.32C101.87,278,95.78,285,90,292.34c6-6.88,12.34-13.32,20.22-18.06a3.38,3.38,0,0,1,1.22-.44c2.43-1.39,4.48-.17,6.55.94a24,24,0,0,1,12.66,25,2.09,2.09,0,0,0,.28,1.77,9.29,9.29,0,0,0-.35,4c.1.48.08,1.15-.71,1.25-.28,0-.16-.58-.57-.41-.47,1-.69,2.05-1.67,2.68a19.62,19.62,0,0,0-1.92,3.32c-.87,1.42-1.07,3.12-2,4.51-.07.11-.23.05-.32-.06a.29.29,0,0,1,0-.32v-1.4a41,41,0,0,1-8.68,7.08c-.6.35-.36.82-.32,1.3a4.53,4.53,0,0,1-.77,3.53.32.32,0,0,1-.45-.08c-.41-1.11.73-2.14.13-3.32-1,.39-.84,1.36-1,2.14s-.25,1.91-1.52,2c0,0-.07-.08-.08-.13a.58.58,0,0,1,0-.18c.39-1,1-2,.61-3.31a46.38,46.38,0,0,1-17.48,4c-.08-.8.5-1,1.09-1.12a8.57,8.57,0,0,0,1.94-.28c7.38-.86,14.26-3.08,20.26-7.62a32.13,32.13,0,0,0,10.83-13.84c5-12.51-.88-25.2-12.7-30.3a3.18,3.18,0,0,0-3,.32,75.63,75.63,0,0,0-9.78,6.9c-3.93,3.14-7,7.14-10.57,10.6a4.25,4.25,0,0,0-1.19,4.91c.36,1,.94,2.11.17,3.22a.8.8,0,0,1-1-.25,16.32,16.32,0,0,1-1.23-4.27c-.21-1-.58-1.17-1.53-.86-1.81.59-3.24,1.8-4.87,2.68a21.11,21.11,0,0,1-5.67-.07c-.26-.17-.55-.36-.27-.72a1.09,1.09,0,0,1,1-.4c3.53.7,6-1.76,8.79-3a6.59,6.59,0,0,0,2.49-2.48,89,89,0,0,1,14.6-15.5c1.41-1.22,3.12-2.05,4.59-3.28-.28-.59-.85-.52-1.29-.62a40,40,0,0,0-22.49,1.21,24.65,24.65,0,0,1-3.58,1.09A1.34,1.34,0,0,1,79.08,273.73Z"/><path class="cls-4" d="M94.87,327.33a1.22,1.22,0,0,0-1.09.71c-3.54,2.08-7.11,4-11.29,4.65-8.15,1.19-18.33-4.18-21.87-11.61-.15-.31-.12-.76-.57-.88a2.4,2.4,0,0,1-.76-1.32,18.71,18.71,0,0,1-.53-4.94,10.09,10.09,0,0,1,.16-2.13,14.76,14.76,0,0,0,.36-1.73c1.66-6.54,6.6-9.7,12.41-11.9,1.4-.53,2.85-1.43,4.46-.52l6.42,0A10.57,10.57,0,0,1,90,300.28a.73.73,0,0,0,.75.45,1.56,1.56,0,0,1,1.08.23c9.1,5.46,11.35,15.17,6.23,23.43a10.77,10.77,0,0,1-2,2.23C95.75,327,95.25,327,94.87,327.33Z"/><path class="cls-5" d="M79.08,273.73l1.22.38a3.2,3.2,0,0,1,2.19,3.58A4.71,4.71,0,0,1,82,279.1c-2.08,4.08-10.42,5.21-13.56,1.84-.62-.91,0-1.48.58-2.05A27.7,27.7,0,0,1,79.08,273.73Z"/><path class="cls-6" d="M59.31,311.62l-.09,2.27c-.76,1.81-.24,3.52.43,5.21.44.26.37.7.4,1.1-.44,2.21-.92,2.64-3.34,2.6a28.85,28.85,0,0,1-3.69-.38,1.79,1.79,0,0,1-1.56-1.62c-.15-1,.72-1.39,1.48-1.6a30,30,0,0,1,3.24-.58l-.51-1.79c.16-.83,0-1.67.1-2.51A8.61,8.61,0,0,1,58,311.2C58.69,310.67,59.21,310.48,59.31,311.62Z"/><path class="cls-6" d="M123.37,316.45c.71.12.59-.65.56-.79-.28-1.59.72-2.46,1.74-3.34,1.35,1.81.71,3.64,0,5.57,1.27.25,2.52.49,3.76.77.73.16,1.28.57,1.21,1.41a1.58,1.58,0,0,1-1.17,1.54,13.58,13.58,0,0,1-6.11.3c-1.77-.46-2.19-1.42-1.38-3.07C122.37,318,122.9,317.25,123.37,316.45Z"/><path class="cls-6" d="M129.76,306.37c.78-.45.42-1.17.24-1.68a2.82,2.82,0,0,1,.89-3.17c2.07,2.05,2.28,3.88.79,6.75.58,1,1.45.41,2.21.42a.89.89,0,0,1,.36,0c1,.41,2.66.21,2.55,1.8s-1.58,1.76-2.91,1.81a18.31,18.31,0,0,0-4.5,0c-1.73-.3-1.67-1.53-1.46-2.83a16.23,16.23,0,0,1,1.37-3.1A.34.34,0,0,1,129.76,306.37Z"/><path class="cls-7" d="M111.4,273.84c-2.56,2.17-5.51,3.79-8.14,5.89-4.9,3.9-9,8.56-13.14,13.19-.2.21-.37.52-.79.45-.61-.64.17-1,.41-1.35,5.11-6.79,10.77-13,18-17.71a3.59,3.59,0,0,1,2.55-.95Z"/><path class="cls-6" d="M110.65,327.38c1-.64,1.31-1,1.23-2.6,0-.76.1-1.18.76-1.43.32-.13.68-.47,1-.07a1.74,1.74,0,0,1,.24,1.75c-.23.63-.4,1.29-.6,1.94,0,.65.37,1,1.07.93a10.66,10.66,0,0,1,2.92.4c1.42,1.32,1.4,1.49-.22,2.81a1.25,1.25,0,0,1-1.14.28,33,33,0,0,0-4.87-.05C109.13,330.26,109.08,329.66,110.65,327.38Z"/><path class="cls-8" d="M59.31,311.62c-.34-.77-.7-.59-1.24-.13a17,17,0,0,0-2.14,2.74.38.38,0,0,1,0-.53A2.4,2.4,0,0,1,57,311.85c1.58-1,1.56-2.2.83-3.64-.38-.25-.82-.42-1-.86a12.41,12.41,0,0,1-.59-5.06c0-.73.12-1.5-.73-1.91a.48.48,0,0,1,.06-.49c1.23-1.06,1.54-2.52,2-4,2.16-6.77,5.7-12.66,11.5-17-.12.54-.86.92-.39,1.6a44,44,0,0,0-7.28,9.45c-2.62,5-4.31,10.22-3,16,.32,1.46,1.16,2.74,1.36,4.23C59.63,310.67,59.79,311.22,59.31,311.62Z"/><path class="cls-9" d="M55.51,299.89l0,.47c.16,1.53-.41,3-.15,4.58.15.93-.76.93-1.48.81a8.89,8.89,0,0,0-2.56-.35c-.31.05-.63.13-.73.48s.13.58.38.78c.62.5,1.47.68,1.94,1.39a.51.51,0,0,1,0,.51c-1-.4-2-.75-2.86-1.23a1.63,1.63,0,0,1-.81-1.91c.2-.73.87-.94,1.61-1a4,4,0,0,0,3.76-3C54.8,300.88,54.91,300.24,55.51,299.89Z"/><path class="cls-10" d="M52.92,308.56v-.33c1.33-.53,2.89.26,4.13-.75a.68.68,0,0,1,.75.73C56.26,309.58,54.61,309.3,52.92,308.56Z"/><path class="cls-11" d="M129.49,306.43a6.82,6.82,0,0,1-1.56,3l-.34-.43,1.46-3.36C129.76,305.58,129.54,306.05,129.49,306.43Z"/><path class="cls-12" d="M117.41,328.48c-1.23,0-2.4-.52-3.66-.42-1,.08-.74-.54-.48-1.09h.33c0,.86.67.73,1.21.74a5.1,5.1,0,0,1,3,.75A.23.23,0,0,1,117.41,328.48Z"/><path class="cls-13" d="M111,331.34a9,9,0,0,1,4.87.05A12.67,12.67,0,0,1,111,331.34Z"/><path class="cls-14" d="M117.41,328.48l.4,0c1.25,1.22,1,2-.77,2.66a.53.53,0,0,1-.18,0,2.53,2.53,0,0,1-.26-.22C117.81,330.39,118.59,329.77,117.41,328.48Z"/><path class="cls-15" d="M129.39,312.26a7.28,7.28,0,0,1,4.5,0A15.42,15.42,0,0,1,129.39,312.26Z"/><path class="cls-16" d="M133.89,308.69a3.17,3.17,0,0,1-2.69.06s.11-.39.18-.61l.3.13C132.34,308.86,133.18,308.41,133.89,308.69Z"/><path class="cls-17" d="M55.88,313.7c0,.18,0,.35,0,.53-.12.86.24,1.78-.26,2.6A4.34,4.34,0,0,1,55.88,313.7Z"/><path class="cls-18" d="M95.63,326.57c5.7-5.49,5.93-14.59,1.82-19.95a27.23,27.23,0,0,0-6.68-5.89,20.93,20.93,0,0,0-1-4.55,2.15,2.15,0,0,1,.28-2.1c6.56-7.55,13.43-14.74,22.36-19.59a2.91,2.91,0,0,1,2.8-.12,23.49,23.49,0,0,1,14.85,22.94,26.29,26.29,0,0,1-6.45,16c-7,8.4-16,12.76-26.85,13.67C96.33,327.09,95.74,327.5,95.63,326.57Z"/><path class="cls-18" d="M59.68,310.16c-2.77-4-2.79-8.46-1.71-12.89a33.24,33.24,0,0,1,9.41-16.06,1.78,1.78,0,0,1,1.26-.72,4.49,4.49,0,0,0,3.68,1.89,12.21,12.21,0,0,0,7.22-1.4c3-1.82,3.3-4.43.76-6.87a41.49,41.49,0,0,1,29.12-1.81c-5.64,3.15-9.9,7.31-14,11.62a76.3,76.3,0,0,0-7.08,8.67,9.65,9.65,0,0,1-2.72,2.14,15.44,15.44,0,0,1-9.42,2.93C68.49,299,62.3,302.22,59.68,310.16Z"/><path class="cls-19" d="M90,300.28a41.83,41.83,0,0,0-7.45-2.58c1.33-1.82,3.42-2.3,5.36-3.07.64-.26.85,0,1,.61C89.23,296.93,89.64,298.6,90,300.28Z"/><path class="cls-20" d="M95.63,326.57c.28.46.76.36,1.18.42-.57.54-1.28.28-1.94.34A1.32,1.32,0,0,1,95.63,326.57Z"/><path class="cls-21" d="M129.49,306.43c-.1-.29,0-.72-.44-.79,0-.33.16-.68.48-.51.51.26.18.81.23,1.24Z"/><path class="cls-22" d="M99.44,314.85c0,6.61-3,10.85-8.16,13.73a26.29,26.29,0,0,1-10.34,3.57,14.11,14.11,0,0,1-6.58-1c-4.53-1.83-8.93-3.91-11.76-8.2-3.67-5.58-3.63-12.72.56-17.77a19.31,19.31,0,0,1,12-6.64c8-1.29,14.68,1.47,20.28,7.08A12.24,12.24,0,0,1,99.44,314.85Z"/><path class="cls-23" d="M59.65,319.1c-1.62-2.28-1.71-3.38-.43-5.21C59.37,315.63,59.51,317.36,59.65,319.1Z"/><path class="cls-24" d="M57.05,307.48c-.17,1.41-1.26,1.13-2.14,1.1a13.6,13.6,0,0,1-2-.35c-.83-.43-1.68-.82-2.49-1.29a1.15,1.15,0,0,1-.62-1.25,1.26,1.26,0,0,1,1.15-.82,8,8,0,0,1,3.11.44c.84.2,1.26.18.92-.81a5.49,5.49,0,0,1,.56-4.14c.59-.36,1.18-.94,1.14.46A27,27,0,0,0,57.05,307.48Z"/><path class="cls-5" d="M125.64,304.12c-.07,4.26-5.54,8.48-9.69,7.43a4.54,4.54,0,0,1-3.26-3.32c-1.59-5.15,3.43-10.59,8.72-9.46A5,5,0,0,1,125.64,304.12Z"/><path class="cls-5" d="M112.37,291c-2.64,0-4.33-1.63-4.3-4.1,0-3,2.88-5.56,6.17-5.55,2.94,0,5,1.89,5,4.44C119.16,288.71,116.14,291,112.37,291Z"/><path class="cls-5" d="M103.67,296.57c2.73,0,4.54,1.63,4.57,4.12.05,2.94-3.32,5.81-6.87,5.88a4,4,0,0,1-4-4.26C97.41,299,100.07,296.56,103.67,296.57Z"/><path class="cls-5" d="M77.89,294.36a4.2,4.2,0,0,1-4.2-2.82,6.44,6.44,0,0,1,2-6.42,7.32,7.32,0,0,1,6.67-1.44,4.56,4.56,0,0,1,3.73,4,5.23,5.23,0,0,1-2.49,5.25A9.36,9.36,0,0,1,77.89,294.36Z"/><path class="cls-5" d="M64.58,298.86c-2.29,0-3.8-1.36-3.78-3.43A5,5,0,0,1,66,290.66c2.53,0,4.23,1.47,4.22,3.7C70.19,296.9,67.77,298.84,64.58,298.86Z"/><path class="cls-5" d="M92.48,273.36c2.36,0,4.18,1.59,4.18,3.6,0,2.45-2.86,4.7-5.85,4.61a3.53,3.53,0,0,1-3.67-3.42C87.16,275.38,89.45,273.33,92.48,273.36Z"/><path class="cls-25" d="M89.54,321.46c-4.87,0-8.85-3.54-8.79-7.82a8.47,8.47,0,0,1,8.08-8,7.71,7.71,0,0,1,7.86,8C96.72,318.25,93.81,321.46,89.54,321.46Z"/><path class="cls-25" d="M78.32,310.57c0,4.3-2.71,7.32-6.58,7.31-4.44,0-8.26-3.4-8.23-7.3a8,8,0,0,1,7.64-7.51A7.13,7.13,0,0,1,78.32,310.57Z"/><path class="cls-26" d="M85.59,322.53c-2.61,4.72-6,6.68-9.9,5.91-2.91-.58-4.71-3.52-5.06-8.45C74.86,325.06,79.87,325.41,85.59,322.53Z"/><path class="cls-27" d="M90.92,309.46c-.5,1-1,2,0,2.89s1.78,0,2.59-.46c.72,2.48.22,4.15-1.52,5.29a4.43,4.43,0,0,1-6.42-5.42C86.53,309.75,88.27,309,90.92,309.46Z"/><path class="cls-27" d="M74.92,310.18c.13,2.5-.68,4-2.44,4.68A3.87,3.87,0,0,1,68,313.68a3.58,3.58,0,0,1-.51-4.61,4,4,0,0,1,4.3-1.91c.46.08,1,.06.78,1C72.11,310.2,72.76,310.68,74.92,310.18Z"/><path class="cls-2" d="M80.91,325.19c-3,1.87-6,1.26-7.89-1.8A11.92,11.92,0,0,0,80.91,325.19Z"/><path class="cls-1" d="M406.17,248.69a30.26,30.26,0,0,1-21.78-10.12,13.36,13.36,0,0,1-1.44.07h-.32a31,31,0,0,1-4-.39l-.45-.06a8.2,8.2,0,0,1-7-7.05,7.58,7.58,0,0,1,3.95-7.8,19.46,19.46,0,0,1-2-.93,8,8,0,0,1-4-9.22,7.69,7.69,0,0,1,5.87-5.48,8,8,0,0,1,2.07-3c.07-.2.15-.47.21-.69l.21-.65c2.76-8.67,7.22-15.24,13.62-20.07a33.81,33.81,0,0,1,11.77-6.15,50.3,50.3,0,0,1,20.4-4.42,52.36,52.36,0,0,1,16.2,2.65l4.82,1.57,0,.26a26,26,0,0,1,2.53,1.25l.22.12a30.25,30.25,0,0,1,16.15,29.87,10.63,10.63,0,0,1,1.81,4.47,7.61,7.61,0,0,1,4.24,7.39,8.09,8.09,0,0,1-6.32,7.41,8.13,8.13,0,0,1-6.17,9.59l-.16,0a26,26,0,0,1-5.12.63h-.53a7.52,7.52,0,0,1-.07,2.82,7.78,7.78,0,0,1-4.71,5.41,7.44,7.44,0,0,1-3.84,1h-.2a26.9,26.9,0,0,1-2.87.19,14.75,14.75,0,0,1-3.82-.48l-.79-.22-.71-.4a9.4,9.4,0,0,1-3.88-3.73,53.13,53.13,0,0,1-8.35,1.18,34.45,34.45,0,0,1-12.22,4.67A23.27,23.27,0,0,1,406.17,248.69Z"/><path class="cls-2" d="M400.84,243.37a30.23,30.23,0,0,1-21.78-10.13,13.36,13.36,0,0,1-1.44.07h-.31a29.46,29.46,0,0,1-4.05-.39l-.45-.06a8.19,8.19,0,0,1-7-7,7.58,7.58,0,0,1,4-7.8c-.63-.26-1.31-.55-2-.93a8,8,0,0,1-4-9.23,7.67,7.67,0,0,1,5.86-5.48,8,8,0,0,1,2.07-3l.22-.69.2-.66c2.77-8.67,7.22-15.23,13.62-20.07a33.72,33.72,0,0,1,11.77-6.14,50.23,50.23,0,0,1,20.41-4.43,52.47,52.47,0,0,1,16.2,2.66l4.81,1.56,0,.26c1,.4,1.8.86,2.53,1.25l.23.12a30.26,30.26,0,0,1,16.14,29.88,10.54,10.54,0,0,1,1.81,4.46,7.59,7.59,0,0,1,4.24,7.39,8.08,8.08,0,0,1-6.32,7.41,8.13,8.13,0,0,1-6.16,9.59l-.16,0a25.41,25.41,0,0,1-5.13.63h-.53a7.11,7.11,0,0,1-.07,2.82,7.77,7.77,0,0,1-4.7,5.41,7.48,7.48,0,0,1-3.85,1h-.2a24.51,24.51,0,0,1-2.87.19,14.62,14.62,0,0,1-3.81-.48l-.8-.21-.71-.41a9.46,9.46,0,0,1-3.88-3.73,53,53,0,0,1-8.35,1.19,34.44,34.44,0,0,1-12.22,4.66A21.85,21.85,0,0,1,400.84,243.37Z"/><path class="cls-3" d="M399.76,177.84a43.48,43.48,0,0,1,32.38-1.68c-.06.69-1.35.38-1.21,1.31-8.37,4.6-14.47,11.65-20.29,19,6-6.87,12.34-13.31,20.22-18.06a3.43,3.43,0,0,1,1.22-.43c2.43-1.39,4.48-.18,6.55.94a24,24,0,0,1,12.66,25,2.1,2.1,0,0,0,.28,1.76,9.33,9.33,0,0,0-.35,4c.1.48.08,1.15-.71,1.24-.28,0-.16-.57-.57-.4-.47.95-.69,2.05-1.66,2.68a18.31,18.31,0,0,0-1.93,3.32c-.87,1.41-1.07,3.12-2,4.51-.07.11-.23.05-.31-.07a.27.27,0,0,1,0-.32v-1.39a40.91,40.91,0,0,1-8.67,7.08c-.61.35-.37.81-.33,1.29a4.51,4.51,0,0,1-.77,3.54.33.33,0,0,1-.45-.08c-.4-1.11.73-2.15.13-3.32-1,.39-.83,1.36-1,2.14s-.26,1.91-1.53,2c0,0-.07-.08-.08-.12a.65.65,0,0,1,0-.19c.39-1,1.05-2,.61-3.31a46.39,46.39,0,0,1-17.47,4c-.09-.81.5-1,1.08-1.12a9.76,9.76,0,0,0,1.94-.28c7.39-.87,14.26-3.09,20.27-7.63a32,32,0,0,0,10.83-13.83c5-12.51-.89-25.2-12.7-30.3a3.15,3.15,0,0,0-3,.32,75.66,75.66,0,0,0-9.79,6.89c-3.93,3.14-7,7.15-10.56,10.61a4.23,4.23,0,0,0-1.2,4.9c.36,1,.94,2.11.17,3.22a.79.79,0,0,1-1-.25,16.25,16.25,0,0,1-1.23-4.26c-.21-1-.58-1.17-1.53-.86-1.8.58-3.24,1.8-4.87,2.67a21,21,0,0,1-5.66-.07c-.27-.17-.56-.36-.27-.71a1.08,1.08,0,0,1,1-.4c3.52.69,5.95-1.77,8.78-3a6.61,6.61,0,0,0,2.49-2.49A90.07,90.07,0,0,1,423.8,180c1.42-1.22,3.12-2,4.59-3.27-.28-.6-.84-.52-1.28-.62a40.11,40.11,0,0,0-22.5,1.2,23.5,23.5,0,0,1-3.58,1.1A1.37,1.37,0,0,1,399.76,177.84Z"/><path class="cls-4" d="M415.56,231.45a1.2,1.2,0,0,0-1.09.71c-3.55,2.08-7.12,4-11.29,4.65C395,238,384.84,232.62,381.3,225.2c-.15-.31-.12-.76-.57-.88A2.39,2.39,0,0,1,380,223a18.21,18.21,0,0,1-.52-4.94,10.14,10.14,0,0,1,.15-2.13,12.65,12.65,0,0,0,.36-1.73c1.66-6.54,6.61-9.7,12.41-11.89,1.4-.53,2.85-1.44,4.46-.53l6.43,0a10.47,10.47,0,0,1,7.44,2.58.75.75,0,0,0,.75.45,1.56,1.56,0,0,1,1.08.22c9.1,5.47,11.35,15.17,6.23,23.43a10.82,10.82,0,0,1-2,2.24C416.43,231.08,415.93,231.15,415.56,231.45Z"/><path class="cls-5" d="M399.76,177.84l1.22.38a3.21,3.21,0,0,1,2.2,3.59,4.77,4.77,0,0,1-.49,1.4c-2.08,4.09-10.41,5.22-13.56,1.84-.62-.91,0-1.48.58-2.05A28,28,0,0,1,399.76,177.84Z"/><path class="cls-6" d="M380,215.73l-.1,2.28c-.76,1.81-.24,3.51.44,5.2.43.26.36.7.39,1.11-.44,2.21-.92,2.63-3.34,2.6a30.42,30.42,0,0,1-3.68-.39,1.79,1.79,0,0,1-1.57-1.61c-.15-1,.73-1.4,1.48-1.61,1-.28,2.06-.38,3.24-.58l-.51-1.78c.17-.83,0-1.68.1-2.51a8.64,8.64,0,0,1,2.26-3.13C379.37,214.78,379.89,214.6,380,215.73Z"/><path class="cls-6" d="M444.05,220.56c.71.12.59-.65.57-.78-.29-1.59.71-2.46,1.73-3.34,1.36,1.81.71,3.63,0,5.56,1.26.26,2.51.49,3.75.77.73.16,1.28.58,1.22,1.41a1.6,1.6,0,0,1-1.18,1.55,13.67,13.67,0,0,1-6.1.29c-1.78-.46-2.2-1.41-1.39-3.06C443.06,222.13,443.58,221.36,444.05,220.56Z"/><path class="cls-6" d="M450.45,210.49c.77-.46.41-1.17.23-1.68a2.83,2.83,0,0,1,.89-3.18c2.07,2.05,2.28,3.88.8,6.76.57,1,1.44.41,2.21.41a.89.89,0,0,1,.36,0c1,.41,2.65.22,2.54,1.81s-1.58,1.75-2.91,1.8a17.83,17.83,0,0,0-4.5,0c-1.73-.31-1.67-1.53-1.45-2.84a16.12,16.12,0,0,1,1.36-3.1A.34.34,0,0,1,450.45,210.49Z"/><path class="cls-7" d="M432.08,178c-2.56,2.16-5.51,3.79-8.14,5.88-4.9,3.9-9,8.56-13.14,13.19-.2.22-.36.53-.78.46-.62-.65.16-1,.4-1.36,5.11-6.79,10.77-13,18-17.7a3.58,3.58,0,0,1,2.55-1Z"/><path class="cls-6" d="M431.33,231.49c1-.64,1.32-1,1.24-2.6,0-.75.09-1.17.76-1.43.32-.12.68-.47,1-.07a1.72,1.72,0,0,1,.23,1.75c-.23.64-.4,1.29-.6,1.94.06.66.37,1,1.07.94a10.29,10.29,0,0,1,2.92.4c1.42,1.32,1.41,1.48-.22,2.8a1.19,1.19,0,0,1-1.14.28,31.66,31.66,0,0,0-4.87,0C429.82,234.38,429.76,233.77,431.33,231.49Z"/><path class="cls-8" d="M380,215.73c-.35-.76-.71-.58-1.25-.13a17.58,17.58,0,0,0-2.14,2.74.4.4,0,0,1-.05-.53,2.38,2.38,0,0,1,1.09-1.84c1.58-1,1.57-2.2.83-3.64-.37-.25-.82-.42-1-.87a12.56,12.56,0,0,1-.59-5.06c0-.72.12-1.5-.72-1.91a.43.43,0,0,1,.06-.48c1.23-1.06,1.54-2.53,2-4,2.16-6.77,5.7-12.66,11.5-17-.11.53-.86.92-.39,1.6a43.54,43.54,0,0,0-7.27,9.44c-2.62,5-4.31,10.22-3.05,16,.32,1.47,1.17,2.74,1.36,4.24C380.32,214.78,380.48,215.34,380,215.73Z"/><path class="cls-9" d="M376.2,204l0,.47c.16,1.52-.4,3-.15,4.57.16.94-.76.94-1.48.82a8.51,8.51,0,0,0-2.56-.35c-.31,0-.63.13-.73.48a.73.73,0,0,0,.38.77c.62.5,1.47.69,1.95,1.4a.5.5,0,0,1,0,.5c-1-.4-1.95-.74-2.87-1.23a1.61,1.61,0,0,1-.8-1.9c.2-.74.86-.94,1.61-1a4,4,0,0,0,3.75-3C375.49,205,375.59,204.35,376.2,204Z"/><path class="cls-10" d="M373.61,212.67c0-.11,0-.22,0-.33,1.33-.52,2.89.26,4.13-.74a.68.68,0,0,1,.75.73C376.94,213.7,375.29,213.42,373.61,212.67Z"/><path class="cls-11" d="M450.17,210.55a6.81,6.81,0,0,1-1.55,3l-.34-.42c.48-1.13,1-2.25,1.45-3.37C450.45,209.7,450.23,210.17,450.17,210.55Z"/><path class="cls-12" d="M438.1,232.6c-1.24,0-2.4-.53-3.66-.42-1,.08-.75-.54-.49-1.1h.33c0,.85.67.72,1.21.74a5.09,5.09,0,0,1,3,.74C438.37,232.73,438.24,232.74,438.1,232.6Z"/><path class="cls-13" d="M431.71,235.46a9,9,0,0,1,4.87,0A12.67,12.67,0,0,1,431.71,235.46Z"/><path class="cls-14" d="M438.1,232.6l.39,0c1.25,1.23,1,2.05-.77,2.66a.52.52,0,0,1-.18,0l-.26-.22C438.5,234.5,439.27,233.88,438.1,232.6Z"/><path class="cls-15" d="M450.07,216.38a7.28,7.28,0,0,1,4.5,0A15.42,15.42,0,0,1,450.07,216.38Z"/><path class="cls-16" d="M454.58,212.8a3.19,3.19,0,0,1-2.7.07s.12-.4.18-.61l.31.13C453,213,453.87,212.52,454.58,212.8Z"/><path class="cls-17" d="M376.56,217.81c0,.18,0,.36.05.53-.12.87.24,1.78-.26,2.61A4.42,4.42,0,0,1,376.56,217.81Z"/><path class="cls-18" d="M416.32,230.68c5.7-5.49,5.93-14.58,1.81-19.94a26.65,26.65,0,0,0-6.68-5.89,21.39,21.39,0,0,0-.94-4.55,2.14,2.14,0,0,1,.27-2.11c6.56-7.55,13.44-14.73,22.36-19.59a3,3,0,0,1,2.8-.12,23.52,23.52,0,0,1,14.86,23,26.38,26.38,0,0,1-6.45,16c-7,8.41-16.05,12.76-26.86,13.67C417,231.21,416.42,231.62,416.32,230.68Z"/><path class="cls-18" d="M380.36,214.28c-2.77-4-2.79-8.47-1.71-12.89a33.35,33.35,0,0,1,9.41-16.06,1.78,1.78,0,0,1,1.26-.72A4.54,4.54,0,0,0,393,186.5a12.17,12.17,0,0,0,7.23-1.41c3-1.81,3.29-4.43.75-6.87a41.49,41.49,0,0,1,29.12-1.8c-5.64,3.15-9.9,7.31-14.05,11.61A78.31,78.31,0,0,0,409,196.7a9.65,9.65,0,0,1-2.72,2.14,15.44,15.44,0,0,1-9.42,2.93C389.17,203.09,383,206.33,380.36,214.28Z"/><path class="cls-19" d="M410.7,204.4a41,41,0,0,0-7.44-2.58c1.32-1.82,3.42-2.31,5.35-3.08.64-.25.85,0,1,.61C409.91,201,410.32,202.72,410.7,204.4Z"/><path class="cls-20" d="M416.32,230.68c.27.47.75.36,1.17.42-.57.55-1.28.29-1.93.35A1.31,1.31,0,0,1,416.32,230.68Z"/><path class="cls-21" d="M450.17,210.55c-.1-.3.05-.73-.44-.8,0-.32.16-.67.48-.51.52.26.19.82.24,1.25Z"/><path class="cls-22" d="M420.12,219c.05,6.61-3,10.85-8.16,13.73a26.29,26.29,0,0,1-10.33,3.56,13.94,13.94,0,0,1-6.58-1c-4.54-1.84-8.94-3.91-11.76-8.2-3.68-5.59-3.64-12.72.55-17.77a19.31,19.31,0,0,1,12-6.65c8-1.29,14.68,1.47,20.28,7.08A12.25,12.25,0,0,1,420.12,219Z"/><path class="cls-23" d="M380.34,223.21c-1.62-2.28-1.71-3.38-.44-5.2C380.05,219.74,380.19,221.48,380.34,223.21Z"/><path class="cls-24" d="M377.73,211.6c-.17,1.41-1.26,1.13-2.14,1.1a12.82,12.82,0,0,1-2-.36c-.83-.42-1.68-.81-2.48-1.28a1.13,1.13,0,0,1-.62-1.25,1.25,1.25,0,0,1,1.14-.83,8,8,0,0,1,3.11.45c.84.2,1.26.17.92-.82a5.47,5.47,0,0,1,.56-4.13c.59-.37,1.18-.94,1.14.46A27.05,27.05,0,0,0,377.73,211.6Z"/><path class="cls-5" d="M446.33,208.23c-.08,4.26-5.54,8.49-9.7,7.43a4.53,4.53,0,0,1-3.26-3.31c-1.58-5.16,3.44-10.59,8.73-9.46A5.05,5.05,0,0,1,446.33,208.23Z"/><path class="cls-5" d="M433.05,195.11c-2.64,0-4.33-1.63-4.3-4.11,0-3,2.88-5.56,6.17-5.54,2.94,0,5,1.89,5,4.43C439.85,192.83,436.82,195.13,433.05,195.11Z"/><path class="cls-5" d="M424.35,200.68c2.73,0,4.54,1.63,4.58,4.12,0,2.94-3.32,5.82-6.88,5.88a4,4,0,0,1-4-4.26C418.09,203.1,420.75,200.68,424.35,200.68Z"/><path class="cls-5" d="M398.57,198.48a4.21,4.21,0,0,1-4.2-2.82,6.46,6.46,0,0,1,2-6.43A7.35,7.35,0,0,1,403,187.8a4.53,4.53,0,0,1,3.73,3.95,5.2,5.2,0,0,1-2.49,5.25A9.36,9.36,0,0,1,398.57,198.48Z"/><path class="cls-5" d="M385.26,203c-2.28,0-3.8-1.36-3.78-3.42a5,5,0,0,1,5.19-4.77c2.53,0,4.22,1.47,4.22,3.7C390.88,201,388.45,203,385.26,203Z"/><path class="cls-5" d="M413.17,177.47c2.35,0,4.18,1.6,4.18,3.6,0,2.45-2.86,4.7-5.85,4.61a3.53,3.53,0,0,1-3.68-3.42C407.84,179.49,410.14,177.44,413.17,177.47Z"/><path class="cls-25" d="M410.23,225.58c-4.88,0-8.85-3.54-8.8-7.83a8.49,8.49,0,0,1,8.08-8,7.71,7.71,0,0,1,7.86,8C417.41,222.37,414.49,225.57,410.23,225.58Z"/><path class="cls-25" d="M399,214.68c0,4.3-2.71,7.32-6.57,7.31-4.45,0-8.27-3.4-8.24-7.29a8,8,0,0,1,7.64-7.51A7.12,7.12,0,0,1,399,214.68Z"/><path class="cls-26" d="M406.27,226.65c-2.6,4.71-6,6.67-9.9,5.9-2.91-.58-4.71-3.52-5.05-8.44C395.54,229.17,400.56,229.52,406.27,226.65Z"/><path class="cls-27" d="M411.6,213.58c-.5,1-1,1.95,0,2.88s1.78,0,2.59-.46c.72,2.48.23,4.15-1.52,5.29a4,4,0,0,1-5.16-.4,4.09,4.09,0,0,1-1.26-5C407.22,213.86,409,213.11,411.6,213.58Z"/><path class="cls-27" d="M395.6,214.3c.13,2.5-.67,4-2.44,4.68a3.89,3.89,0,0,1-4.53-1.19,3.57,3.57,0,0,1-.51-4.6,4,4,0,0,1,4.3-1.91c.47.07,1,.05.78,1C392.8,214.31,393.44,214.79,395.6,214.3Z"/><path class="cls-2" d="M401.59,229.3c-3,1.88-6,1.26-7.88-1.79A11.81,11.81,0,0,0,401.59,229.3Z"/><path class="cls-1" d="M299.63,248.69a30.26,30.26,0,0,1-21.78-10.12,13.36,13.36,0,0,1-1.44.07h-.32a31.12,31.12,0,0,1-4-.39l-.45-.06a8.2,8.2,0,0,1-7-7.05,7.58,7.58,0,0,1,3.95-7.8,19.46,19.46,0,0,1-2-.93,8,8,0,0,1-4-9.22,7.69,7.69,0,0,1,5.87-5.48,8.15,8.15,0,0,1,2.07-3c.07-.2.15-.47.21-.69l.21-.65c2.76-8.67,7.22-15.24,13.62-20.07a33.9,33.9,0,0,1,11.77-6.15,50.3,50.3,0,0,1,20.4-4.42,52.47,52.47,0,0,1,16.21,2.65l4.81,1.57,0,.26a26,26,0,0,1,2.53,1.25l.22.12a30.25,30.25,0,0,1,16.15,29.87,10.63,10.63,0,0,1,1.81,4.47,7.61,7.61,0,0,1,4.24,7.39,8.09,8.09,0,0,1-6.32,7.41,8.13,8.13,0,0,1-6.17,9.59l-.16,0a26,26,0,0,1-5.12.63h-.53a7.31,7.31,0,0,1-.07,2.82,7.78,7.78,0,0,1-4.7,5.41,7.51,7.51,0,0,1-3.85,1h-.2a26.9,26.9,0,0,1-2.87.19,14.75,14.75,0,0,1-3.82-.48l-.79-.22-.71-.4a9.4,9.4,0,0,1-3.88-3.73,53.13,53.13,0,0,1-8.35,1.18,34.45,34.45,0,0,1-12.22,4.67A23.27,23.27,0,0,1,299.63,248.69Z"/><path class="cls-2" d="M294.31,243.37a30.23,30.23,0,0,1-21.79-10.13,13.36,13.36,0,0,1-1.44.07h-.31a29.46,29.46,0,0,1-4-.39l-.45-.06a8.19,8.19,0,0,1-7-7,7.58,7.58,0,0,1,4-7.8c-.63-.26-1.31-.55-2-.93a8,8,0,0,1-4-9.23,7.67,7.67,0,0,1,5.86-5.48,8,8,0,0,1,2.07-3l.22-.69.2-.66c2.77-8.67,7.22-15.23,13.62-20.07A33.72,33.72,0,0,1,291,171.85a50.23,50.23,0,0,1,20.41-4.43,52.47,52.47,0,0,1,16.2,2.66l4.81,1.56,0,.26c1,.4,1.8.86,2.53,1.25l.23.12a30.26,30.26,0,0,1,16.14,29.88,10.41,10.41,0,0,1,1.81,4.46,7.59,7.59,0,0,1,4.24,7.39,8.08,8.08,0,0,1-6.32,7.41,7.62,7.62,0,0,1,.15,2.25,7.93,7.93,0,0,1-6.31,7.34l-.16,0a25.41,25.41,0,0,1-5.13.63H339a7.11,7.11,0,0,1-.07,2.82,7.77,7.77,0,0,1-4.7,5.41,7.48,7.48,0,0,1-3.85,1h-.2a24.51,24.51,0,0,1-2.87.19,14.62,14.62,0,0,1-3.81-.48l-.8-.21L322,241a9.46,9.46,0,0,1-3.88-3.73,53,53,0,0,1-8.35,1.19,34.37,34.37,0,0,1-12.22,4.66A21.71,21.71,0,0,1,294.31,243.37Z"/><path class="cls-3" d="M293.22,177.84a43.48,43.48,0,0,1,32.38-1.68c-.06.69-1.34.38-1.2,1.31-8.38,4.6-14.48,11.65-20.3,19,6-6.87,12.34-13.31,20.23-18.06a3.3,3.3,0,0,1,1.22-.43c2.42-1.39,4.47-.18,6.54.94a24,24,0,0,1,12.66,25,2.1,2.1,0,0,0,.28,1.76,9.33,9.33,0,0,0-.34,4c.09.48.07,1.15-.72,1.24-.27,0-.16-.57-.57-.4-.47.95-.69,2.05-1.66,2.68a18.31,18.31,0,0,0-1.93,3.32c-.86,1.41-1.07,3.12-2,4.51-.08.11-.23.05-.32-.07a.27.27,0,0,1,0-.32v-1.39a40.91,40.91,0,0,1-8.67,7.08c-.61.35-.37.81-.32,1.29a4.56,4.56,0,0,1-.78,3.54.33.33,0,0,1-.45-.08c-.4-1.11.73-2.15.13-3.32-1,.39-.83,1.36-1,2.14s-.26,1.91-1.53,2c0,0-.07-.08-.08-.12a1.37,1.37,0,0,1,0-.19c.39-1,1-2,.61-3.31a46.39,46.39,0,0,1-17.47,4c-.09-.81.5-1,1.08-1.12a9.76,9.76,0,0,0,1.94-.28c7.39-.87,14.26-3.09,20.27-7.63a32,32,0,0,0,10.83-13.83c5-12.51-.89-25.2-12.7-30.3a3.15,3.15,0,0,0-3,.32,75.66,75.66,0,0,0-9.79,6.89c-3.93,3.14-7,7.15-10.56,10.61a4.23,4.23,0,0,0-1.2,4.9c.36,1,.94,2.11.17,3.22a.79.79,0,0,1-1-.25,16.25,16.25,0,0,1-1.23-4.26c-.21-1-.58-1.17-1.53-.86-1.8.58-3.23,1.8-4.87,2.67a21,21,0,0,1-5.66-.07c-.27-.17-.56-.36-.27-.71a1.08,1.08,0,0,1,1-.4c3.52.69,5.95-1.77,8.78-3a6.61,6.61,0,0,0,2.49-2.49,90.07,90.07,0,0,1,14.6-15.5c1.42-1.22,3.12-2,4.59-3.27-.28-.6-.84-.52-1.28-.62a40.11,40.11,0,0,0-22.5,1.2,23.5,23.5,0,0,1-3.58,1.1A1.37,1.37,0,0,1,293.22,177.84Z"/><path class="cls-4" d="M309,231.45a1.2,1.2,0,0,0-1.09.71c-3.55,2.08-7.12,4-11.29,4.65-8.16,1.19-18.34-4.19-21.88-11.61-.14-.31-.12-.76-.57-.88a2.39,2.39,0,0,1-.76-1.33,18.21,18.21,0,0,1-.52-4.94,10.14,10.14,0,0,1,.15-2.13,12.65,12.65,0,0,0,.36-1.73c1.67-6.54,6.61-9.7,12.41-11.89,1.4-.53,2.85-1.44,4.46-.53l6.43,0a10.47,10.47,0,0,1,7.44,2.58.76.76,0,0,0,.76.45,1.54,1.54,0,0,1,1.07.22c9.1,5.47,11.36,15.17,6.23,23.43a10.82,10.82,0,0,1-2,2.24C309.89,231.08,309.39,231.15,309,231.45Z"/><path class="cls-5" d="M293.22,177.84l1.22.38a3.21,3.21,0,0,1,2.2,3.59,4.77,4.77,0,0,1-.49,1.4c-2.08,4.09-10.41,5.22-13.56,1.84-.62-.91,0-1.48.58-2.05A28,28,0,0,1,293.22,177.84Z"/><path class="cls-6" d="M273.46,215.73l-.09,2.28c-.76,1.81-.25,3.51.43,5.2.43.26.36.7.39,1.11-.44,2.21-.91,2.63-3.34,2.6a30.42,30.42,0,0,1-3.68-.39,1.79,1.79,0,0,1-1.57-1.61c-.15-1,.73-1.4,1.48-1.61,1-.28,2.07-.38,3.24-.58l-.51-1.78c.17-.83,0-1.68.1-2.51a8.64,8.64,0,0,1,2.26-3.13C272.83,214.78,273.35,214.6,273.46,215.73Z"/><path class="cls-6" d="M337.51,220.56c.71.12.59-.65.57-.78-.29-1.59.71-2.46,1.73-3.34,1.36,1.81.71,3.63,0,5.56,1.26.26,2.51.49,3.76.77a1.31,1.31,0,0,1,1.21,1.41,1.6,1.6,0,0,1-1.18,1.55,13.67,13.67,0,0,1-6.1.29c-1.78-.46-2.2-1.41-1.39-3.06C336.52,222.13,337,221.36,337.51,220.56Z"/><path class="cls-6" d="M343.91,210.49c.77-.46.41-1.17.24-1.68a2.81,2.81,0,0,1,.88-3.18c2.07,2.05,2.28,3.88.8,6.76.58,1,1.45.41,2.21.41a.89.89,0,0,1,.36,0c1,.41,2.65.22,2.54,1.81s-1.58,1.75-2.9,1.8a17.91,17.91,0,0,0-4.51,0c-1.73-.31-1.67-1.53-1.45-2.84a16.12,16.12,0,0,1,1.36-3.1A.34.34,0,0,1,343.91,210.49Z"/><path class="cls-7" d="M325.55,178c-2.57,2.16-5.52,3.79-8.15,5.88-4.9,3.9-9,8.56-13.14,13.19-.2.22-.36.53-.78.46-.62-.65.16-1,.4-1.36,5.11-6.79,10.77-13,18-17.7a3.58,3.58,0,0,1,2.55-1Z"/><path class="cls-6" d="M324.79,231.49c1-.64,1.32-1,1.24-2.6,0-.75.09-1.17.76-1.43.32-.12.68-.47,1-.07a1.72,1.72,0,0,1,.23,1.75c-.23.64-.4,1.29-.6,1.94.06.66.37,1,1.07.94a10.29,10.29,0,0,1,2.92.4c1.42,1.32,1.41,1.48-.22,2.8a1.19,1.19,0,0,1-1.14.28,31.66,31.66,0,0,0-4.87,0C323.28,234.38,323.22,233.77,324.79,231.49Z"/><path class="cls-8" d="M273.46,215.73c-.35-.76-.71-.58-1.25-.13a17.58,17.58,0,0,0-2.14,2.74.4.4,0,0,1-.05-.53,2.37,2.37,0,0,1,1.1-1.84c1.57-1,1.56-2.2.82-3.64-.37-.25-.82-.42-1-.87a12.56,12.56,0,0,1-.59-5.06c0-.72.12-1.5-.72-1.91a.46.46,0,0,1,.06-.48c1.23-1.06,1.54-2.53,2-4,2.16-6.77,5.7-12.66,11.5-17-.11.53-.86.92-.39,1.6a43.54,43.54,0,0,0-7.27,9.44c-2.62,5-4.31,10.22-3.05,16,.32,1.47,1.17,2.74,1.36,4.24C273.78,214.78,273.94,215.34,273.46,215.73Z"/><path class="cls-9" d="M269.66,204l0,.47c.16,1.52-.4,3-.15,4.57.16.94-.76.94-1.47.82a8.62,8.62,0,0,0-2.57-.35c-.31,0-.63.13-.73.48a.73.73,0,0,0,.38.77c.62.5,1.47.69,2,1.4a.5.5,0,0,1,0,.5c-1-.4-1.95-.74-2.87-1.23a1.61,1.61,0,0,1-.8-1.9c.2-.74.86-.94,1.61-1a4,4,0,0,0,3.75-3C269,205,269.05,204.35,269.66,204Z"/><path class="cls-10" d="M267.07,212.67c0-.11,0-.22,0-.33,1.33-.52,2.89.26,4.13-.74a.68.68,0,0,1,.75.73C270.41,213.7,268.75,213.42,267.07,212.67Z"/><path class="cls-11" d="M343.63,210.55a6.81,6.81,0,0,1-1.55,3l-.34-.42c.48-1.13,1-2.25,1.45-3.37C343.91,209.7,343.69,210.17,343.63,210.55Z"/><path class="cls-12" d="M331.56,232.6c-1.24,0-2.4-.53-3.66-.42-1,.08-.75-.54-.49-1.1h.33c0,.85.67.72,1.21.74a5.09,5.09,0,0,1,3,.74C331.83,232.73,331.7,232.74,331.56,232.6Z"/><path class="cls-13" d="M325.17,235.46a9,9,0,0,1,4.87,0A12.67,12.67,0,0,1,325.17,235.46Z"/><path class="cls-14" d="M331.56,232.6l.39,0c1.25,1.23,1,2.05-.77,2.66a.52.52,0,0,1-.18,0l-.25-.22C332,234.5,332.73,233.88,331.56,232.6Z"/><path class="cls-15" d="M343.53,216.38a7.31,7.31,0,0,1,4.51,0A15.49,15.49,0,0,1,343.53,216.38Z"/><path class="cls-16" d="M348,212.8a3.19,3.19,0,0,1-2.7.07s.12-.4.18-.61l.31.13C346.48,213,347.33,212.52,348,212.8Z"/><path class="cls-17" d="M270,217.81c0,.18,0,.36.05.53-.12.87.24,1.78-.26,2.61A4.42,4.42,0,0,1,270,217.81Z"/><path class="cls-18" d="M309.78,230.68c5.7-5.49,5.93-14.58,1.81-19.94a26.78,26.78,0,0,0-6.67-5.89,22,22,0,0,0-.95-4.55,2.12,2.12,0,0,1,.28-2.11c6.56-7.55,13.43-14.73,22.35-19.59a3,3,0,0,1,2.81-.12,23.52,23.52,0,0,1,14.85,23,26.38,26.38,0,0,1-6.45,16c-6.95,8.41-16.05,12.76-26.86,13.67C310.47,231.21,309.88,231.62,309.78,230.68Z"/><path class="cls-18" d="M273.82,214.28c-2.77-4-2.79-8.47-1.71-12.89a33.29,33.29,0,0,1,9.42-16.06,1.74,1.74,0,0,1,1.25-.72,4.54,4.54,0,0,0,3.68,1.89,12.17,12.17,0,0,0,7.23-1.41c3-1.81,3.29-4.43.75-6.87a41.49,41.49,0,0,1,29.12-1.8c-5.63,3.15-9.9,7.31-14,11.61a78.4,78.4,0,0,0-7.09,8.67,9.75,9.75,0,0,1-2.71,2.14,15.47,15.47,0,0,1-9.43,2.93C282.63,203.09,276.45,206.33,273.82,214.28Z"/><path class="cls-19" d="M304.16,204.4a41,41,0,0,0-7.44-2.58c1.33-1.82,3.42-2.31,5.35-3.08.64-.25.85,0,1,.61C303.37,201,303.78,202.72,304.16,204.4Z"/><path class="cls-20" d="M309.78,230.68c.27.47.75.36,1.17.42-.57.55-1.28.29-1.93.35A1.31,1.31,0,0,1,309.78,230.68Z"/><path class="cls-21" d="M343.63,210.55c-.1-.3.05-.73-.44-.8,0-.32.16-.67.48-.51.52.26.19.82.24,1.25Z"/><path class="cls-22" d="M313.58,219c.05,6.61-3,10.85-8.16,13.73a26.29,26.29,0,0,1-10.33,3.56,13.94,13.94,0,0,1-6.58-1c-4.54-1.84-8.94-3.91-11.76-8.2-3.68-5.59-3.64-12.72.55-17.77a19.31,19.31,0,0,1,12-6.65c8-1.29,14.68,1.47,20.28,7.08A12.25,12.25,0,0,1,313.58,219Z"/><path class="cls-23" d="M273.8,223.21c-1.62-2.28-1.71-3.38-.43-5.2C273.51,219.74,273.65,221.48,273.8,223.21Z"/><path class="cls-24" d="M271.19,211.6c-.17,1.41-1.26,1.13-2.14,1.1a12.82,12.82,0,0,1-2-.36c-.83-.42-1.68-.81-2.48-1.28a1.13,1.13,0,0,1-.62-1.25,1.25,1.25,0,0,1,1.14-.83,8,8,0,0,1,3.11.45c.84.2,1.26.17.93-.82a5.42,5.42,0,0,1,.55-4.13c.59-.37,1.18-.94,1.14.46A27.05,27.05,0,0,0,271.19,211.6Z"/><path class="cls-5" d="M339.79,208.23c-.08,4.26-5.54,8.49-9.69,7.43a4.52,4.52,0,0,1-3.27-3.31c-1.58-5.16,3.44-10.59,8.73-9.46A5.05,5.05,0,0,1,339.79,208.23Z"/><path class="cls-5" d="M326.51,195.11c-2.64,0-4.33-1.63-4.3-4.11,0-3,2.88-5.56,6.17-5.54,2.94,0,5,1.89,5,4.43C333.31,192.83,330.28,195.13,326.51,195.11Z"/><path class="cls-5" d="M317.81,200.68c2.73,0,4.54,1.63,4.58,4.12,0,2.94-3.32,5.82-6.88,5.88a4,4,0,0,1-4-4.26C311.55,203.1,314.21,200.68,317.81,200.68Z"/><path class="cls-5" d="M292,198.48a4.22,4.22,0,0,1-4.2-2.82,6.46,6.46,0,0,1,2-6.43,7.33,7.33,0,0,1,6.67-1.43,4.53,4.53,0,0,1,3.72,3.95A5.2,5.2,0,0,1,297.7,197,9.36,9.36,0,0,1,292,198.48Z"/><path class="cls-5" d="M278.72,203c-2.28,0-3.8-1.36-3.78-3.42a5,5,0,0,1,5.19-4.77c2.53,0,4.23,1.47,4.22,3.7C284.34,201,281.91,203,278.72,203Z"/><path class="cls-5" d="M306.63,177.47c2.35,0,4.18,1.6,4.18,3.6,0,2.45-2.86,4.7-5.85,4.61a3.53,3.53,0,0,1-3.68-3.42C301.31,179.49,303.6,177.44,306.63,177.47Z"/><path class="cls-25" d="M303.69,225.58c-4.88,0-8.85-3.54-8.79-7.83a8.47,8.47,0,0,1,8.08-8,7.7,7.7,0,0,1,7.85,8C310.87,222.37,308,225.57,303.69,225.58Z"/><path class="cls-25" d="M292.46,214.68c0,4.3-2.71,7.32-6.57,7.31-4.45,0-8.27-3.4-8.24-7.29a8,8,0,0,1,7.64-7.51A7.12,7.12,0,0,1,292.46,214.68Z"/><path class="cls-26" d="M299.73,226.65c-2.6,4.71-6,6.67-9.9,5.9-2.91-.58-4.71-3.52-5.05-8.44C289,229.17,294,229.52,299.73,226.65Z"/><path class="cls-27" d="M305.06,213.58c-.49,1-1,1.95,0,2.88s1.78,0,2.59-.46c.73,2.48.23,4.15-1.52,5.29a4,4,0,0,1-5.16-.4,4.09,4.09,0,0,1-1.26-5C300.68,213.86,302.42,213.11,305.06,213.58Z"/><path class="cls-27" d="M289.06,214.3c.13,2.5-.67,4-2.44,4.68a3.89,3.89,0,0,1-4.53-1.19,3.57,3.57,0,0,1-.51-4.6,4,4,0,0,1,4.3-1.91c.47.07,1,.05.78,1C286.26,214.31,286.9,214.79,289.06,214.3Z"/><path class="cls-2" d="M295.05,229.3c-3,1.88-6.05,1.26-7.88-1.79A11.82,11.82,0,0,0,295.05,229.3Z"/><path class="cls-1" d="M192,248.69a30.26,30.26,0,0,1-21.79-10.12,13.36,13.36,0,0,1-1.44.07h-.31a30.78,30.78,0,0,1-4-.39l-.45-.06a8.22,8.22,0,0,1-7-7.05,7.6,7.6,0,0,1,4-7.8,19.46,19.46,0,0,1-2-.93,8,8,0,0,1-4-9.22,7.66,7.66,0,0,1,5.87-5.48,8,8,0,0,1,2.06-3c.07-.2.15-.47.22-.69l.2-.65c2.77-8.67,7.22-15.24,13.62-20.07a34,34,0,0,1,11.78-6.15,50.3,50.3,0,0,1,20.4-4.42,52.36,52.36,0,0,1,16.2,2.65l4.81,1.57,0,.26a26.24,26.24,0,0,1,2.54,1.25l.22.12A30.24,30.24,0,0,1,249,208.47a10.65,10.65,0,0,1,1.82,4.47,7.62,7.62,0,0,1,4.24,7.39,8.12,8.12,0,0,1-6.33,7.41,7.6,7.6,0,0,1,.15,2.25,7.92,7.92,0,0,1-6.31,7.34l-.16,0a26.15,26.15,0,0,1-5.13.63h-.53a7.34,7.34,0,0,1-.06,2.82,7.8,7.8,0,0,1-4.71,5.41,7.47,7.47,0,0,1-3.84,1h-.21a26.54,26.54,0,0,1-2.87.19,14.62,14.62,0,0,1-3.81-.48l-.79-.22-.72-.4a9.39,9.39,0,0,1-3.87-3.73,53.13,53.13,0,0,1-8.35,1.18,34.43,34.43,0,0,1-12.23,4.67A23.13,23.13,0,0,1,192,248.69Z"/><path class="cls-2" d="M186.7,243.37a30.23,30.23,0,0,1-21.78-10.13,13.36,13.36,0,0,1-1.44.07h-.32a29.31,29.31,0,0,1-4-.39l-.45-.06a8.18,8.18,0,0,1-7-7,7.57,7.57,0,0,1,4-7.8,21.8,21.8,0,0,1-2-.93,8,8,0,0,1-4-9.23,7.7,7.7,0,0,1,5.87-5.48,7.81,7.81,0,0,1,2.07-3c.07-.21.15-.48.21-.69l.21-.66c2.76-8.67,7.22-15.23,13.62-20.07a33.63,33.63,0,0,1,11.77-6.14,50.15,50.15,0,0,1,20.4-4.43,52.38,52.38,0,0,1,16.2,2.66l4.82,1.56,0,.26c1,.4,1.8.86,2.53,1.25l.22.12a30.25,30.25,0,0,1,16.15,29.88,10.54,10.54,0,0,1,1.81,4.46,7.61,7.61,0,0,1,4.24,7.39,8.08,8.08,0,0,1-6.32,7.41,8.13,8.13,0,0,1-6.17,9.59l-.16,0a25.31,25.31,0,0,1-5.12.63h-.53a7.51,7.51,0,0,1-.07,2.82,7.79,7.79,0,0,1-4.71,5.41,7.47,7.47,0,0,1-3.84,1h-.21a24.19,24.19,0,0,1-2.86.19,14.75,14.75,0,0,1-3.82-.48l-.79-.21-.71-.41a9.4,9.4,0,0,1-3.88-3.73,53.15,53.15,0,0,1-8.35,1.19A34.42,34.42,0,0,1,190,243.13,21.62,21.62,0,0,1,186.7,243.37Z"/><path class="cls-3" d="M185.62,177.84A43.47,43.47,0,0,1,218,176.16c-.06.69-1.35.38-1.21,1.31-8.38,4.6-14.47,11.65-20.29,19,6-6.87,12.34-13.31,20.22-18.06a3.36,3.36,0,0,1,1.22-.43c2.43-1.39,4.48-.18,6.55.94a24,24,0,0,1,12.66,25,2.06,2.06,0,0,0,.28,1.76,9.33,9.33,0,0,0-.35,4c.1.48.08,1.15-.71,1.24-.28,0-.16-.57-.57-.4-.47.95-.69,2.05-1.67,2.68a18.87,18.87,0,0,0-1.92,3.32c-.87,1.41-1.07,3.12-2,4.51-.07.11-.23.05-.32-.07a.29.29,0,0,1,0-.32v-1.39a41,41,0,0,1-8.68,7.08c-.6.35-.36.81-.32,1.29a4.55,4.55,0,0,1-.77,3.54.33.33,0,0,1-.45-.08c-.41-1.11.73-2.15.13-3.32-1,.39-.84,1.36-1,2.14s-.25,1.91-1.52,2c0,0-.08-.08-.08-.12a.65.65,0,0,1,0-.19c.39-1,1-2,.61-3.31a46.4,46.4,0,0,1-17.48,4c-.08-.81.5-1,1.09-1.12a9.66,9.66,0,0,0,1.93-.28c7.39-.87,14.27-3.09,20.27-7.63a32,32,0,0,0,10.83-13.83c5-12.51-.88-25.2-12.7-30.3a3.15,3.15,0,0,0-3,.32,75.66,75.66,0,0,0-9.79,6.89c-3.92,3.14-7,7.15-10.56,10.61a4.24,4.24,0,0,0-1.19,4.9c.36,1,.94,2.11.17,3.22a.78.78,0,0,1-1-.25,15.88,15.88,0,0,1-1.23-4.26c-.21-1-.58-1.17-1.53-.86-1.81.58-3.24,1.8-4.87,2.67a21.11,21.11,0,0,1-5.67-.07c-.26-.17-.55-.36-.27-.71a1.08,1.08,0,0,1,1-.4c3.53.69,5.95-1.77,8.79-3a6.61,6.61,0,0,0,2.49-2.49,89.69,89.69,0,0,1,14.6-15.5c1.41-1.22,3.12-2,4.59-3.27-.29-.6-.85-.52-1.29-.62a40.07,40.07,0,0,0-22.49,1.2,23.5,23.5,0,0,1-3.58,1.1A1.36,1.36,0,0,1,185.62,177.84Z"/><path class="cls-4" d="M201.41,231.45a1.21,1.21,0,0,0-1.09.71c-3.54,2.08-7.11,4-11.29,4.65-8.15,1.19-18.33-4.19-21.87-11.61-.15-.31-.12-.76-.57-.88a2.35,2.35,0,0,1-.77-1.33,18.61,18.61,0,0,1-.52-4.94,9.52,9.52,0,0,1,.16-2.13,14.32,14.32,0,0,0,.35-1.73c1.67-6.54,6.61-9.7,12.42-11.89,1.4-.53,2.85-1.44,4.46-.53l6.42,0a10.44,10.44,0,0,1,7.44,2.58.77.77,0,0,0,.76.45,1.57,1.57,0,0,1,1.08.22c9.1,5.47,11.35,15.17,6.23,23.43a10.82,10.82,0,0,1-2,2.24C202.29,231.08,201.79,231.15,201.41,231.45Z"/><path class="cls-5" d="M185.62,177.84l1.22.38a3.2,3.2,0,0,1,2.19,3.59,5,5,0,0,1-.48,1.4c-2.08,4.09-10.42,5.22-13.56,1.84-.62-.91,0-1.48.58-2.05A28,28,0,0,1,185.62,177.84Z"/><path class="cls-6" d="M165.85,215.73l-.09,2.28c-.76,1.81-.24,3.51.43,5.2.44.26.37.7.39,1.11-.43,2.21-.91,2.63-3.34,2.6a30.85,30.85,0,0,1-3.68-.39,1.79,1.79,0,0,1-1.56-1.61c-.15-1,.72-1.4,1.48-1.61a32.67,32.67,0,0,1,3.24-.58L162.2,221c.17-.83,0-1.68.11-2.51a8.73,8.73,0,0,1,2.25-3.13C165.23,214.78,165.75,214.6,165.85,215.73Z"/><path class="cls-6" d="M229.91,220.56c.71.12.59-.65.56-.78-.28-1.59.71-2.46,1.74-3.34,1.35,1.81.71,3.63,0,5.56,1.27.26,2.52.49,3.76.77.73.16,1.28.58,1.21,1.41a1.58,1.58,0,0,1-1.17,1.55,13.72,13.72,0,0,1-6.11.29c-1.77-.46-2.19-1.41-1.38-3.06C228.91,222.13,229.44,221.36,229.91,220.56Z"/><path class="cls-6" d="M236.3,210.49c.77-.46.42-1.17.24-1.68a2.82,2.82,0,0,1,.89-3.18c2.06,2.05,2.28,3.88.79,6.76.58,1,1.45.41,2.21.41a.89.89,0,0,1,.36,0c1,.41,2.65.22,2.55,1.81s-1.59,1.75-2.91,1.8a17.83,17.83,0,0,0-4.5,0c-1.73-.31-1.67-1.53-1.46-2.84a16.16,16.16,0,0,1,1.37-3.1A.33.33,0,0,1,236.3,210.49Z"/><path class="cls-7" d="M217.94,178c-2.56,2.16-5.51,3.79-8.14,5.88-4.91,3.9-9,8.56-13.15,13.19-.19.22-.36.53-.78.46-.61-.65.17-1,.41-1.36,5.11-6.79,10.77-13,18-17.7a3.59,3.59,0,0,1,2.55-1Z"/><path class="cls-6" d="M217.19,231.49c1-.64,1.31-1,1.23-2.6,0-.75.1-1.17.76-1.43.32-.12.68-.47,1-.07a1.74,1.74,0,0,1,.24,1.75c-.24.64-.4,1.29-.6,1.94.05.66.37,1,1.07.94a10.34,10.34,0,0,1,2.92.4c1.42,1.32,1.4,1.48-.22,2.8a1.2,1.2,0,0,1-1.14.28,31.67,31.67,0,0,0-4.87,0C215.67,234.38,215.62,233.77,217.19,231.49Z"/><path class="cls-8" d="M165.85,215.73c-.34-.76-.7-.58-1.24-.13a17,17,0,0,0-2.14,2.74.39.39,0,0,1-.06-.53,2.39,2.39,0,0,1,1.1-1.84c1.58-1,1.56-2.2.83-3.64-.38-.25-.82-.42-1-.87a12.39,12.39,0,0,1-.59-5.06c0-.72.12-1.5-.73-1.91a.46.46,0,0,1,.06-.48c1.23-1.06,1.54-2.53,2-4,2.16-6.77,5.7-12.66,11.5-17-.12.53-.86.92-.39,1.6a43.59,43.59,0,0,0-7.28,9.44c-2.62,5-4.31,10.22-3.05,16,.32,1.47,1.17,2.74,1.37,4.24C166.17,214.78,166.33,215.34,165.85,215.73Z"/><path class="cls-9" d="M162.05,204l0,.47c.16,1.52-.41,3-.15,4.57.15.94-.76.94-1.48.82a8.55,8.55,0,0,0-2.56-.35c-.31,0-.64.13-.73.48a.73.73,0,0,0,.38.77c.62.5,1.47.69,1.94,1.4a.5.5,0,0,1,0,.5c-1-.4-2-.74-2.86-1.23a1.63,1.63,0,0,1-.81-1.9c.2-.74.87-.94,1.61-1a4,4,0,0,0,3.76-3C161.34,205,161.45,204.35,162.05,204Z"/><path class="cls-10" d="M159.46,212.67v-.33c1.33-.52,2.89.26,4.13-.74a.68.68,0,0,1,.75.73C162.8,213.7,161.15,213.42,159.46,212.67Z"/><path class="cls-11" d="M236,210.55a6.83,6.83,0,0,1-1.56,3l-.34-.42c.49-1.13,1-2.25,1.46-3.37C236.3,209.7,236.08,210.17,236,210.55Z"/><path class="cls-12" d="M224,232.6c-1.23,0-2.4-.53-3.66-.42-.95.08-.74-.54-.48-1.1h.33c0,.85.67.72,1.21.74a5.09,5.09,0,0,1,3,.74A.23.23,0,0,1,224,232.6Z"/><path class="cls-13" d="M217.57,235.46a9,9,0,0,1,4.87,0A12.67,12.67,0,0,1,217.57,235.46Z"/><path class="cls-14" d="M224,232.6l.4,0c1.25,1.23,1,2.05-.77,2.66a.52.52,0,0,1-.18,0l-.26-.22C224.35,234.5,225.12,233.88,224,232.6Z"/><path class="cls-15" d="M235.93,216.38a7.28,7.28,0,0,1,4.5,0A15.42,15.42,0,0,1,235.93,216.38Z"/><path class="cls-16" d="M240.43,212.8a3.17,3.17,0,0,1-2.69.07s.11-.4.17-.61l.31.13C238.87,213,239.72,212.52,240.43,212.8Z"/><path class="cls-17" d="M162.41,217.81l.06.53c-.12.87.24,1.78-.27,2.61A4.48,4.48,0,0,1,162.41,217.81Z"/><path class="cls-18" d="M202.17,230.68c5.7-5.49,5.93-14.58,1.82-19.94a26.83,26.83,0,0,0-6.68-5.89,21.41,21.41,0,0,0-.95-4.55,2.17,2.17,0,0,1,.28-2.11c6.56-7.55,13.43-14.73,22.36-19.59a3,3,0,0,1,2.8-.12,23.51,23.51,0,0,1,14.85,23,26.26,26.26,0,0,1-6.45,16c-6.95,8.41-16,12.76-26.85,13.67C202.87,231.21,202.28,231.62,202.17,230.68Z"/><path class="cls-18" d="M166.22,214.28c-2.77-4-2.79-8.47-1.72-12.89a33.29,33.29,0,0,1,9.42-16.06,1.76,1.76,0,0,1,1.26-.72,4.54,4.54,0,0,0,3.68,1.89,12.14,12.14,0,0,0,7.22-1.41c3-1.81,3.29-4.43.76-6.87a41.49,41.49,0,0,1,29.12-1.8c-5.64,3.15-9.9,7.31-14.05,11.61a77.19,77.19,0,0,0-7.08,8.67,9.79,9.79,0,0,1-2.72,2.14,15.44,15.44,0,0,1-9.42,2.93C175,203.09,168.84,206.33,166.22,214.28Z"/><path class="cls-19" d="M196.55,204.4a40.69,40.69,0,0,0-7.44-2.58c1.33-1.82,3.42-2.31,5.35-3.08.64-.25.86,0,1,.61C195.77,201,196.18,202.72,196.55,204.4Z"/><path class="cls-20" d="M202.17,230.68c.28.47.76.36,1.18.42-.57.55-1.28.29-1.94.35A1.37,1.37,0,0,1,202.17,230.68Z"/><path class="cls-21" d="M236,210.55c-.1-.3.05-.73-.44-.8,0-.32.15-.67.48-.51.51.26.18.82.23,1.25Z"/><path class="cls-22" d="M206,219c0,6.61-3,10.85-8.17,13.73a26.23,26.23,0,0,1-10.33,3.56,14,14,0,0,1-6.58-1c-4.53-1.84-8.93-3.91-11.76-8.2-3.67-5.59-3.63-12.72.56-17.77a19.28,19.28,0,0,1,12-6.65c8-1.29,14.68,1.47,20.28,7.08A12.25,12.25,0,0,1,206,219Z"/><path class="cls-23" d="M166.19,223.21c-1.62-2.28-1.71-3.38-.43-5.2C165.9,219.74,166.05,221.48,166.19,223.21Z"/><path class="cls-24" d="M163.59,211.6c-.17,1.41-1.26,1.13-2.14,1.1a12.41,12.41,0,0,1-2-.36c-.83-.42-1.68-.81-2.49-1.28a1.16,1.16,0,0,1-.62-1.25,1.27,1.27,0,0,1,1.14-.83,8,8,0,0,1,3.12.45c.84.2,1.25.17.92-.82a5.47,5.47,0,0,1,.56-4.13c.59-.37,1.18-.94,1.14.46A27.05,27.05,0,0,0,163.59,211.6Z"/><path class="cls-5" d="M232.18,208.23c-.07,4.26-5.54,8.49-9.69,7.43a4.53,4.53,0,0,1-3.26-3.31c-1.59-5.16,3.43-10.59,8.72-9.46A5,5,0,0,1,232.18,208.23Z"/><path class="cls-5" d="M218.9,195.11c-2.63,0-4.32-1.63-4.29-4.11,0-3,2.88-5.56,6.17-5.54,2.93,0,5,1.89,5,4.43C225.7,192.83,222.68,195.13,218.9,195.11Z"/><path class="cls-5" d="M210.21,200.68c2.73,0,4.53,1.63,4.57,4.12.05,2.94-3.32,5.82-6.88,5.88a4,4,0,0,1-4-4.26C204,203.1,206.6,200.68,210.21,200.68Z"/><path class="cls-5" d="M184.43,198.48a4.21,4.21,0,0,1-4.2-2.82,6.46,6.46,0,0,1,2-6.43,7.34,7.34,0,0,1,6.67-1.43,4.54,4.54,0,0,1,3.73,3.95A5.22,5.22,0,0,1,190.1,197,9.36,9.36,0,0,1,184.43,198.48Z"/><path class="cls-5" d="M171.12,203c-2.29,0-3.8-1.36-3.78-3.42a5,5,0,0,1,5.18-4.77c2.53,0,4.23,1.47,4.22,3.7C176.73,201,174.31,203,171.12,203Z"/><path class="cls-5" d="M199,177.47c2.36,0,4.18,1.6,4.18,3.6,0,2.45-2.86,4.7-5.85,4.61a3.52,3.52,0,0,1-3.67-3.42C193.7,179.49,196,177.44,199,177.47Z"/><path class="cls-25" d="M196.08,225.58c-4.87,0-8.85-3.54-8.79-7.83a8.48,8.48,0,0,1,8.08-8,7.71,7.71,0,0,1,7.86,8C203.26,222.37,200.35,225.57,196.08,225.58Z"/><path class="cls-25" d="M184.86,214.68c0,4.3-2.71,7.32-6.58,7.31-4.44,0-8.27-3.4-8.23-7.29a8,8,0,0,1,7.64-7.51A7.12,7.12,0,0,1,184.86,214.68Z"/><path class="cls-26" d="M192.13,226.65c-2.61,4.71-6,6.67-9.9,5.9-2.91-.58-4.71-3.52-5.06-8.44C181.4,229.17,186.41,229.52,192.13,226.65Z"/><path class="cls-27" d="M197.46,213.58c-.5,1-1,1.95,0,2.88s1.78,0,2.59-.46c.72,2.48.22,4.15-1.52,5.29a4.43,4.43,0,0,1-6.42-5.42C193.07,213.86,194.81,213.11,197.46,213.58Z"/><path class="cls-27" d="M181.46,214.3c.12,2.5-.68,4-2.44,4.68a3.88,3.88,0,0,1-4.53-1.19,3.58,3.58,0,0,1-.52-4.6,4,4,0,0,1,4.31-1.91c.46.07,1,.05.78,1C178.65,214.31,179.3,214.79,181.46,214.3Z"/><path class="cls-2" d="M187.45,229.3c-3,1.88-6,1.26-7.89-1.79A11.85,11.85,0,0,0,187.45,229.3Z"/><path class="cls-1" d="M85.49,248.69a30.22,30.22,0,0,1-21.78-10.12,13.62,13.62,0,0,1-1.44.07H62a30.78,30.78,0,0,1-4-.39l-.45-.06a8.2,8.2,0,0,1-7-7.05,7.58,7.58,0,0,1,3.95-7.8,19.46,19.46,0,0,1-2-.93,8,8,0,0,1-4-9.22,7.69,7.69,0,0,1,5.87-5.48,8,8,0,0,1,2.06-3c.07-.2.15-.47.22-.69l.2-.65c2.77-8.67,7.23-15.24,13.62-20.07a34,34,0,0,1,11.78-6.15,50.3,50.3,0,0,1,20.4-4.42,52.36,52.36,0,0,1,16.2,2.65l4.82,1.57,0,.26a26.24,26.24,0,0,1,2.54,1.25l.22.12a30.24,30.24,0,0,1,16.14,29.87,10.65,10.65,0,0,1,1.82,4.47,7.62,7.62,0,0,1,4.24,7.39,8.12,8.12,0,0,1-6.33,7.41,8.09,8.09,0,0,1-6.16,9.59l-.16,0a26.15,26.15,0,0,1-5.13.63h-.53a7.34,7.34,0,0,1-.06,2.82,7.8,7.8,0,0,1-4.71,5.41,7.47,7.47,0,0,1-3.84,1h-.21a26.54,26.54,0,0,1-2.87.19,14.62,14.62,0,0,1-3.81-.48l-.79-.22-.71-.4a9.35,9.35,0,0,1-3.88-3.73,53.13,53.13,0,0,1-8.35,1.18,34.43,34.43,0,0,1-12.23,4.67A23.13,23.13,0,0,1,85.49,248.69Z"/><path class="cls-2" d="M80.16,243.37a30.23,30.23,0,0,1-21.78-10.13,13.36,13.36,0,0,1-1.44.07h-.32a29.31,29.31,0,0,1-4-.39l-.45-.06a8.18,8.18,0,0,1-7-7,7.57,7.57,0,0,1,3.95-7.8,21.8,21.8,0,0,1-2-.93,8,8,0,0,1-4-9.23A7.7,7.7,0,0,1,49,202.38a7.92,7.92,0,0,1,2.07-3c.07-.21.15-.48.21-.69l.21-.66c2.76-8.67,7.22-15.23,13.62-20.07a33.63,33.63,0,0,1,11.77-6.14,50.15,50.15,0,0,1,20.4-4.43,52.38,52.38,0,0,1,16.2,2.66l4.82,1.56,0,.26c1,.4,1.8.86,2.53,1.25l.22.12a30.25,30.25,0,0,1,16.15,29.88,10.54,10.54,0,0,1,1.81,4.46,7.61,7.61,0,0,1,4.24,7.39,8.08,8.08,0,0,1-6.32,7.41,8.13,8.13,0,0,1-6.17,9.59l-.16,0a25.31,25.31,0,0,1-5.12.63h-.53a7.51,7.51,0,0,1-.07,2.82,7.76,7.76,0,0,1-4.71,5.41,7.47,7.47,0,0,1-3.84,1h-.2a24.51,24.51,0,0,1-2.87.19,14.75,14.75,0,0,1-3.82-.48l-.79-.21-.71-.41a9.4,9.4,0,0,1-3.88-3.73,53.15,53.15,0,0,1-8.35,1.19,34.44,34.44,0,0,1-12.22,4.66A21.85,21.85,0,0,1,80.16,243.37Z"/><path class="cls-3" d="M79.08,177.84a43.47,43.47,0,0,1,32.38-1.68c-.06.69-1.35.38-1.21,1.31-8.38,4.6-14.47,11.65-20.29,19,6-6.87,12.34-13.31,20.22-18.06a3.36,3.36,0,0,1,1.22-.43c2.43-1.39,4.48-.18,6.55.94a24,24,0,0,1,12.66,25,2.06,2.06,0,0,0,.28,1.76,9.33,9.33,0,0,0-.35,4c.1.48.08,1.15-.71,1.24-.28,0-.16-.57-.57-.4-.47.95-.69,2.05-1.67,2.68a18.87,18.87,0,0,0-1.92,3.32c-.87,1.41-1.07,3.12-2,4.51-.07.11-.23.05-.32-.07a.29.29,0,0,1,0-.32v-1.39a41,41,0,0,1-8.68,7.08c-.6.35-.36.81-.32,1.29a4.55,4.55,0,0,1-.77,3.54.33.33,0,0,1-.45-.08c-.41-1.11.73-2.15.13-3.32-1,.39-.84,1.36-1,2.14s-.25,1.91-1.52,2c0,0-.07-.08-.08-.12a.65.65,0,0,1,0-.19c.39-1,1-2,.61-3.31a46.4,46.4,0,0,1-17.48,4c-.08-.81.5-1,1.09-1.12a9.87,9.87,0,0,0,1.94-.28c7.38-.87,14.26-3.09,20.26-7.63A32,32,0,0,0,127.9,209.3c5-12.51-.88-25.2-12.7-30.3a3.15,3.15,0,0,0-3,.32,75.55,75.55,0,0,0-9.78,6.89c-3.93,3.14-7,7.15-10.57,10.61a4.24,4.24,0,0,0-1.19,4.9c.36,1,.94,2.11.17,3.22a.79.79,0,0,1-1-.25,16.25,16.25,0,0,1-1.23-4.26c-.21-1-.58-1.17-1.53-.86-1.81.58-3.24,1.8-4.87,2.67a21.11,21.11,0,0,1-5.67-.07c-.26-.17-.55-.36-.27-.71a1.09,1.09,0,0,1,1-.4c3.53.69,6-1.77,8.79-3a6.61,6.61,0,0,0,2.49-2.49,89.69,89.69,0,0,1,14.6-15.5c1.41-1.22,3.12-2,4.59-3.27-.28-.6-.85-.52-1.29-.62a40.07,40.07,0,0,0-22.49,1.2,23.5,23.5,0,0,1-3.58,1.1A1.36,1.36,0,0,1,79.08,177.84Z"/><path class="cls-4" d="M94.87,231.45a1.21,1.21,0,0,0-1.09.71c-3.54,2.08-7.11,4-11.29,4.65-8.15,1.19-18.33-4.19-21.87-11.61-.15-.31-.12-.76-.57-.88a2.39,2.39,0,0,1-.76-1.33,18.62,18.62,0,0,1-.53-4.94,10.14,10.14,0,0,1,.16-2.13,14.35,14.35,0,0,0,.36-1.73c1.66-6.54,6.6-9.7,12.41-11.89,1.4-.53,2.85-1.44,4.46-.53l6.42,0A10.48,10.48,0,0,1,90,204.4a.75.75,0,0,0,.75.45,1.56,1.56,0,0,1,1.08.22c9.1,5.47,11.35,15.17,6.23,23.43a10.82,10.82,0,0,1-2,2.24C95.75,231.08,95.25,231.15,94.87,231.45Z"/><path class="cls-5" d="M79.08,177.84l1.22.38a3.2,3.2,0,0,1,2.19,3.59,4.74,4.74,0,0,1-.48,1.4c-2.08,4.09-10.42,5.22-13.56,1.84-.62-.91,0-1.48.58-2.05A28,28,0,0,1,79.08,177.84Z"/><path class="cls-6" d="M59.31,215.73,59.22,218c-.76,1.81-.24,3.51.43,5.2.44.26.37.7.4,1.11-.44,2.21-.92,2.63-3.34,2.6a30.79,30.79,0,0,1-3.69-.39,1.79,1.79,0,0,1-1.56-1.61c-.15-1,.72-1.4,1.48-1.61a32.67,32.67,0,0,1,3.24-.58L55.67,221c.16-.83,0-1.68.1-2.51A8.73,8.73,0,0,1,58,215.31C58.69,214.78,59.21,214.6,59.31,215.73Z"/><path class="cls-6" d="M123.37,220.56c.71.12.59-.65.56-.78-.28-1.59.72-2.46,1.74-3.34,1.35,1.81.71,3.63,0,5.56,1.27.26,2.52.49,3.76.77.73.16,1.28.58,1.21,1.41a1.58,1.58,0,0,1-1.17,1.55,13.72,13.72,0,0,1-6.11.29c-1.77-.46-2.19-1.41-1.38-3.06C122.37,222.13,122.9,221.36,123.37,220.56Z"/><path class="cls-6" d="M129.76,210.49c.78-.46.42-1.17.24-1.68a2.83,2.83,0,0,1,.89-3.18c2.07,2.05,2.28,3.88.79,6.76.58,1,1.45.41,2.21.41a.89.89,0,0,1,.36,0c1,.41,2.66.22,2.55,1.81s-1.58,1.75-2.91,1.8a17.83,17.83,0,0,0-4.5,0c-1.73-.31-1.67-1.53-1.46-2.84a16.8,16.8,0,0,1,1.37-3.1A.33.33,0,0,1,129.76,210.49Z"/><path class="cls-7" d="M111.4,178c-2.56,2.16-5.51,3.79-8.14,5.88-4.9,3.9-9,8.56-13.14,13.19-.2.22-.37.53-.79.46-.61-.65.17-1,.41-1.36,5.11-6.79,10.77-13,18-17.7a3.59,3.59,0,0,1,2.55-1Z"/><path class="cls-6" d="M110.65,231.49c1-.64,1.31-1,1.23-2.6,0-.75.1-1.17.76-1.43.32-.12.68-.47,1-.07a1.74,1.74,0,0,1,.24,1.75c-.23.64-.4,1.29-.6,1.94,0,.66.37,1,1.07.94a10.29,10.29,0,0,1,2.92.4c1.42,1.32,1.4,1.48-.22,2.8a1.2,1.2,0,0,1-1.14.28,31.67,31.67,0,0,0-4.87,0C109.13,234.38,109.08,233.77,110.65,231.49Z"/><path class="cls-8" d="M59.31,215.73c-.34-.76-.7-.58-1.24-.13a17,17,0,0,0-2.14,2.74.38.38,0,0,1,0-.53A2.38,2.38,0,0,1,57,216c1.58-1,1.56-2.2.83-3.64-.38-.25-.82-.42-1-.87a12.39,12.39,0,0,1-.59-5.06c0-.72.12-1.5-.73-1.91a.46.46,0,0,1,.06-.48c1.23-1.06,1.54-2.53,2-4,2.16-6.77,5.7-12.66,11.5-17-.12.53-.86.92-.39,1.6a43.9,43.9,0,0,0-7.28,9.44c-2.62,5-4.31,10.22-3,16,.32,1.47,1.16,2.74,1.36,4.24C59.63,214.78,59.79,215.34,59.31,215.73Z"/><path class="cls-9" d="M55.51,204l0,.47c.16,1.52-.41,3-.15,4.57.15.94-.76.94-1.48.82a8.55,8.55,0,0,0-2.56-.35c-.31,0-.63.13-.73.48a.73.73,0,0,0,.38.77c.62.5,1.47.69,1.94,1.4a.5.5,0,0,1,0,.5c-1-.4-2-.74-2.86-1.23a1.63,1.63,0,0,1-.81-1.9c.2-.74.87-.94,1.61-1a4,4,0,0,0,3.76-3C54.8,205,54.91,204.35,55.51,204Z"/><path class="cls-10" d="M52.92,212.67v-.33c1.33-.52,2.89.26,4.13-.74a.68.68,0,0,1,.75.73C56.26,213.7,54.61,213.42,52.92,212.67Z"/><path class="cls-11" d="M129.49,210.55a6.73,6.73,0,0,1-1.56,3l-.34-.42c.49-1.13,1-2.25,1.46-3.37C129.76,209.7,129.54,210.17,129.49,210.55Z"/><path class="cls-12" d="M117.41,232.6c-1.23,0-2.4-.53-3.66-.42-1,.08-.74-.54-.48-1.1h.33c0,.85.67.72,1.21.74a5.09,5.09,0,0,1,3,.74A.23.23,0,0,1,117.41,232.6Z"/><path class="cls-13" d="M111,235.46a9,9,0,0,1,4.87,0A12.67,12.67,0,0,1,111,235.46Z"/><path class="cls-14" d="M117.41,232.6l.4,0c1.25,1.23,1,2.05-.77,2.66a.52.52,0,0,1-.18,0l-.26-.22C117.81,234.5,118.59,233.88,117.41,232.6Z"/><path class="cls-15" d="M129.39,216.38a7.28,7.28,0,0,1,4.5,0A15.42,15.42,0,0,1,129.39,216.38Z"/><path class="cls-16" d="M133.89,212.8a3.17,3.17,0,0,1-2.69.07,6.28,6.28,0,0,1,.18-.61l.3.13C132.34,213,133.18,212.52,133.89,212.8Z"/><path class="cls-17" d="M55.88,217.81c0,.18,0,.36,0,.53-.12.87.24,1.78-.26,2.61A4.37,4.37,0,0,1,55.88,217.81Z"/><path class="cls-18" d="M95.63,230.68c5.7-5.49,5.93-14.58,1.82-19.94a26.83,26.83,0,0,0-6.68-5.89,20.81,20.81,0,0,0-1-4.55,2.17,2.17,0,0,1,.28-2.11c6.56-7.55,13.43-14.73,22.36-19.59a3,3,0,0,1,2.8-.12,23.51,23.51,0,0,1,14.85,23,26.26,26.26,0,0,1-6.45,16c-7,8.41-16,12.76-26.85,13.67C96.33,231.21,95.74,231.62,95.63,230.68Z"/><path class="cls-18" d="M59.68,214.28c-2.77-4-2.79-8.47-1.71-12.89a33.19,33.19,0,0,1,9.41-16.06,1.78,1.78,0,0,1,1.26-.72,4.54,4.54,0,0,0,3.68,1.89,12.14,12.14,0,0,0,7.22-1.41c3-1.81,3.3-4.43.76-6.87a41.49,41.49,0,0,1,29.12-1.8c-5.64,3.15-9.9,7.31-14,11.61a77.19,77.19,0,0,0-7.08,8.67,9.65,9.65,0,0,1-2.72,2.14,15.44,15.44,0,0,1-9.42,2.93C68.49,203.09,62.3,206.33,59.68,214.28Z"/><path class="cls-19" d="M90,204.4a41,41,0,0,0-7.45-2.58c1.33-1.82,3.42-2.31,5.36-3.08.64-.25.85,0,1,.61C89.23,201,89.64,202.72,90,204.4Z"/><path class="cls-20" d="M95.63,230.68c.28.47.76.36,1.18.42-.57.55-1.28.29-1.94.35A1.37,1.37,0,0,1,95.63,230.68Z"/><path class="cls-21" d="M129.49,210.55c-.1-.3,0-.73-.44-.8,0-.32.16-.67.48-.51.51.26.18.82.23,1.25Z"/><path class="cls-22" d="M99.44,219c0,6.61-3,10.85-8.16,13.73a26.28,26.28,0,0,1-10.34,3.56,14,14,0,0,1-6.58-1c-4.53-1.84-8.93-3.91-11.76-8.2-3.67-5.59-3.63-12.72.56-17.77a19.28,19.28,0,0,1,12-6.65c8-1.29,14.68,1.47,20.28,7.08A12.25,12.25,0,0,1,99.44,219Z"/><path class="cls-23" d="M59.65,223.21c-1.62-2.28-1.71-3.38-.43-5.2C59.37,219.74,59.51,221.48,59.65,223.21Z"/><path class="cls-24" d="M57.05,211.6c-.17,1.41-1.26,1.13-2.14,1.1a12.41,12.41,0,0,1-2-.36c-.83-.42-1.68-.81-2.49-1.28a1.16,1.16,0,0,1-.62-1.25A1.27,1.27,0,0,1,51,209a8,8,0,0,1,3.11.45c.84.2,1.26.17.92-.82a5.47,5.47,0,0,1,.56-4.13c.59-.37,1.18-.94,1.14.46A27.05,27.05,0,0,0,57.05,211.6Z"/><path class="cls-5" d="M125.64,208.23c-.07,4.26-5.54,8.49-9.69,7.43a4.53,4.53,0,0,1-3.26-3.31c-1.59-5.16,3.43-10.59,8.72-9.46A5,5,0,0,1,125.64,208.23Z"/><path class="cls-5" d="M112.37,195.11c-2.64,0-4.33-1.63-4.3-4.11,0-3,2.88-5.56,6.17-5.54,2.94,0,5,1.89,5,4.43C119.16,192.83,116.14,195.13,112.37,195.11Z"/><path class="cls-5" d="M103.67,200.68c2.73,0,4.54,1.63,4.57,4.12.05,2.94-3.32,5.82-6.87,5.88a4,4,0,0,1-4-4.26C97.41,203.1,100.07,200.68,103.67,200.68Z"/><path class="cls-5" d="M77.89,198.48a4.21,4.21,0,0,1-4.2-2.82,6.46,6.46,0,0,1,2-6.43,7.34,7.34,0,0,1,6.67-1.43,4.54,4.54,0,0,1,3.73,3.95A5.22,5.22,0,0,1,83.56,197,9.36,9.36,0,0,1,77.89,198.48Z"/><path class="cls-5" d="M64.58,203c-2.29,0-3.8-1.36-3.78-3.42A5,5,0,0,1,66,194.78c2.53,0,4.23,1.47,4.22,3.7C70.19,201,67.77,203,64.58,203Z"/><path class="cls-5" d="M92.48,177.47c2.36,0,4.18,1.6,4.18,3.6,0,2.45-2.86,4.7-5.85,4.61a3.52,3.52,0,0,1-3.67-3.42C87.16,179.49,89.45,177.44,92.48,177.47Z"/><path class="cls-25" d="M89.54,225.58c-4.87,0-8.85-3.54-8.79-7.83a8.48,8.48,0,0,1,8.08-8,7.71,7.71,0,0,1,7.86,8C96.72,222.37,93.81,225.57,89.54,225.58Z"/><path class="cls-25" d="M78.32,214.68c0,4.3-2.71,7.32-6.58,7.31-4.44,0-8.26-3.4-8.23-7.29a8,8,0,0,1,7.64-7.51A7.12,7.12,0,0,1,78.32,214.68Z"/><path class="cls-26" d="M85.59,226.65c-2.61,4.71-6,6.67-9.9,5.9C72.78,232,71,229,70.63,224.11,74.86,229.17,79.87,229.52,85.59,226.65Z"/><path class="cls-27" d="M90.92,213.58c-.5,1-1,1.95,0,2.88s1.78,0,2.59-.46c.72,2.48.22,4.15-1.52,5.29a4.43,4.43,0,0,1-6.42-5.42C86.53,213.86,88.27,213.11,90.92,213.58Z"/><path class="cls-27" d="M74.92,214.3c.13,2.5-.68,4-2.44,4.68A3.88,3.88,0,0,1,68,217.79a3.57,3.57,0,0,1-.51-4.6,4,4,0,0,1,4.3-1.91c.46.07,1,.05.78,1C72.11,214.31,72.76,214.79,74.92,214.3Z"/><path class="cls-2" d="M80.91,229.3c-3,1.88-6,1.26-7.89-1.79A11.85,11.85,0,0,0,80.91,229.3Z"/></svg>