<svg id="Layer_1" data-name="Layer 1" xmlns="http://www.w3.org/2000/svg" viewBox="0 0 512 512"><defs><style>.cls-1{opacity:0.5;}.cls-2{fill:#fff;}.cls-3{fill:#cc6100;stroke:#aa4e02;}.cls-3,.cls-4,.cls-7{stroke-miterlimit:10;}.cls-4{fill:#ff7f00;stroke:#d86600;}.cls-5{fill:#f28100;}.cls-6{fill:#cc6202;}.cls-7{fill:#3aaa35;stroke:#205b1d;}.cls-8{fill:#008d36;}.cls-9{fill:#ffa64d;}.cls-10{fill:#00732c;}.cls-11{fill:#44c73e;}.cls-12{fill:none;}</style></defs><path class="cls-1" d="M400.48,398.08a7.77,7.77,0,0,1-1.46-.14A15,15,0,0,1,393,395.4h-2.7l-.2-.2a22.22,22.22,0,0,1-11.28-4.28l-.3-.08-.18,0-.3-.11-.67-.24-.75-.27-.09-.08c-2.92-1.33-6.58-4.13-9.84-10a34.69,34.69,0,0,1-2.22-4.87c-.56-.88-1-1.65-1.27-2.19l-.26-.49-.18-.53c0-.12-.08-.25-.11-.38a29.82,29.82,0,0,1-1.27-3.93c-1.54-6.38-1.57-15.61,1.85-21.84,3.25-5.92,9.18-10.66,15.12-12.07a32.53,32.53,0,0,1,7.6-1.13h.26a14.44,14.44,0,0,1,3.39-1.37A12.19,12.19,0,0,1,394.93,321a13.89,13.89,0,0,1,7.26-2.27,9.37,9.37,0,0,1,6.37,2.37,8.9,8.9,0,0,1,2.95,7v.16a10.68,10.68,0,0,1-.53,3c.73-.05,1.4-.07,1.95-.07s1.07,0,1.57,0a19,19,0,0,1,10.48,3.1,10.3,10.3,0,0,1,1.1.87,26.75,26.75,0,0,1,11.66,10.63c3.59,6.28,3.57,15.57,1.94,22a23.25,23.25,0,0,1-2.8,6.75,32.77,32.77,0,0,1-2.45,5.58,24.43,24.43,0,0,1-7.71,8.78l0,0-.87.52-.09,0a14.92,14.92,0,0,1-3.41,1.4,22.37,22.37,0,0,1-11.88,4.34l-.14.13H408.1A15.13,15.13,0,0,1,402,398a8.33,8.33,0,0,1-1.42.13Z"/><path class="cls-2" d="M395.15,392.74a7.77,7.77,0,0,1-1.46-.13,14.93,14.93,0,0,1-6.06-2.55l-2.71,0-.2-.2a22.25,22.25,0,0,1-11.28-4.28l-.29-.08-.18,0-.31-.1c-.21-.07-.44-.15-.66-.24l-.76-.27-.08-.08c-2.92-1.34-6.59-4.14-9.84-10a33.7,33.7,0,0,1-2.22-4.88c-.56-.87-1-1.65-1.28-2.18l-.26-.49-.17-.53c0-.13-.08-.25-.11-.39a27.9,27.9,0,0,1-1.27-3.92c-1.54-6.38-1.57-15.61,1.84-21.84,3.25-5.92,9.19-10.66,15.13-12.07a31.93,31.93,0,0,1,7.6-1.13h.26a14.16,14.16,0,0,1,3.38-1.36,12.2,12.2,0,0,1,5.38-10.36,13.89,13.89,0,0,1,7.26-2.27,9.37,9.37,0,0,1,6.36,2.36,8.88,8.88,0,0,1,3,7v.16a10.54,10.54,0,0,1-.53,3c.73-.05,1.39-.06,1.95-.06s1.07,0,1.57,0A19.12,19.12,0,0,1,419.64,329a11.74,11.74,0,0,1,1.1.87,26.92,26.92,0,0,1,11.66,10.63c3.59,6.28,3.56,15.58,1.94,22a23.65,23.65,0,0,1-2.8,6.75,32.71,32.71,0,0,1-2.46,5.57,24.2,24.2,0,0,1-7.71,8.79l0,0-.87.52-.09,0a14.7,14.7,0,0,1-3.42,1.4,22.28,22.28,0,0,1-11.88,4.35l-.13.13h-2.18a14.83,14.83,0,0,1-6.1,2.55,7.43,7.43,0,0,1-1.42.13Z"/><path class="cls-3" d="M405.23,334a5.62,5.62,0,0,0-4.81-2.17c-2.7,0-4.93,1.28-4.83,3.26.07,1.4,1.39,3.6,3.68,2.91s4.93-2.37,5.66-3.88c0,0,.16-.24.16-.21Z"/><path class="cls-3" d="M382.38,334.37c1.1-1.66,3.52-2.36,5.61-2.53,2.53-.21,3.48,1,3.51,3.06,0,1.45-1.07,3.81-3.27,3.25s-4.78-2.16-5.56-3.68c0,0-.17-.24-.16-.2Z"/><path class="cls-3" d="M416,334.27a12.91,12.91,0,0,0-7.05-2c-3.15-.08-7.68-.17-8.34,3.78-.21,1.3.58,1.86,1.81,2.23a16.89,16.89,0,0,0,4.61.17c1.84,0,3.68,0,5.52,0,1.19,0,5.25-.7,5.1-2.32l.19.09A11,11,0,0,0,416,334.27Z"/><path class="cls-3" d="M424.13,367.46c2.18-.46,3.57-4.83,4-6.55,1.23-4.91,1.38-12.58-1.3-17.25-2.25-3.94-6.82-7.87-11.47-8.93-4.48-1-8.52-1.83-12.93.92-2,1.22.8,1.81,2.33,2.09,3.15.57,5.59.58,8.52,2.05,4.47,2.25,8,4,9.4,8.76,1.92,6.35,1.44,12.55,1.44,19Z"/><path class="cls-4" d="M366.06,367.46c-2.08-.46-3.41-4.83-3.83-6.55-1.19-4.91-1.33-12.58,1.24-17.25,2.15-3.94,6.53-7.87,11-8.93,4.29-1,8.16-1.83,12.39.92,1.89,1.22-.77,1.81-2.24,2.09-3,.57-5.35.58-8.15,2.05-4.29,2.25-7.63,4-9,8.76-1.84,6.35-1.39,12.55-1.39,19Z"/><path class="cls-5" d="M386.85,335.65A11.35,11.35,0,0,0,383,334c.13.29,0,.61-.34,1-.63.6-1.63.46-2.44.46l.1.09a14.29,14.29,0,0,0,2.89.68c.78.08,2.33.75,3.51.95C387.53,336.83,387.92,336.34,386.85,335.65Z"/><path class="cls-6" d="M386.19,336.21c-1.79-.92-8.46-1.26-11.48,0-4.38,1.82-9,5.36-10.56,10a34.44,34.44,0,0,0-1.41,9.36,35.29,35.29,0,0,0,.11,4.93,20,20,0,0,0,.62,4.24c.35.66.72,1.3,1.13,1.92l.33.44a2.31,2.31,0,0,0,1.13.67c0-6.43-.44-12.6,1.39-18.9,1.38-4.78,4.72-6.51,9-8.76,2.8-1.47,5.14-1.49,8.15-2.06a6.06,6.06,0,0,0,2.75-1A3.87,3.87,0,0,0,386.19,336.21Z"/><path class="cls-7" d="M398,333.37a14.93,14.93,0,0,1-1.3-1.56c-1.2-1.68-2.76-5.11-1.26-7.05a3.34,3.34,0,0,1,3.48-.64c.79.37.79-.71.84-1.69a2.52,2.52,0,0,0-.84-1.92c-1.72-1.54-4.7-.26-5.8.48-3,2-2.72,5.44-2.26,8.36a27.43,27.43,0,0,1,.44,4.38c0,2.32-2.25,2.61-4.33,2.95.33.86,1.91,1.27,2.74,1.6a13.13,13.13,0,0,1,1.7,1c.67.41.87.2,1.62-.17a5,5,0,0,1,2.22-.67c1.4-.05,3.19,1.12,4.43.47s1.76-1.32,2.93-1.85c-.38.17-2.77-2-3.11-2.29A20,20,0,0,1,398,333.37Z"/><path class="cls-8" d="M402.47,337a17.7,17.7,0,0,1-2.94-2.26,20,20,0,0,1-1.5-1.41,14.93,14.93,0,0,1-1.3-1.56c-1.2-1.68-2.76-5.11-1.26-7.05a2,2,0,0,1,.75-.55c-2.37,0-2.26,3.13-1.94,4.69.47,2.29,2.12,4.65,1.52,7.1-.54,2.19-3.49,2.57-5.66,2.12a8.92,8.92,0,0,0,1.87,1.37c.3,0,.56-.13,1.05-.37a5,5,0,0,1,2.22-.67c1.4-.05,3.19,1.12,4.43.47,1-.54,1.7-1.24,2.76-1.76Z"/><path class="cls-4" d="M376.34,379.59s-4.84.34-9.43-7.9a26.58,26.58,0,0,1-3.39-12.2,39.25,39.25,0,0,1,.87-11c1.54-5.58,5.83-9.64,11.1-11.83,3-1.26,9.68-.92,11.48,0s1.65,1.94,1.65,1.94-13.71,8.82-12.57,23.58S376.34,379.59,376.34,379.59Z"/><path class="cls-5" d="M387,336.68a10.87,10.87,0,0,0-3.4-.72c.87.23,1.71.64,1.34,1.76a7.54,7.54,0,0,0,2.33,0h1.08A3.57,3.57,0,0,0,387,336.68Z"/><path class="cls-6" d="M388.62,338.62a1.42,1.42,0,0,0-.36-.94,14,14,0,0,0-6.75.83c-4.71,2.29-10.19,5.81-12.48,15.77-2.26,9.78,1.25,20.06,5.72,25a5.15,5.15,0,0,0,1.59.27s.84-2.63-.29-17.39S388.62,338.62,388.62,338.62Z"/><path class="cls-4" d="M389.75,383.59s-8.82.92-13.41-4-8-13.85-5.68-23.8,7.49-15,12.2-17.28c2.22-1.08,9.07-1.83,10.39,1.26S389.75,383.59,389.75,383.59Z"/><path class="cls-4" d="M414.06,379.59s4.84.34,9.43-7.9,3.62-16.59,2.53-23.11-8.08-10.64-11.11-11.9-9.68-.92-11.48,0-1.65,1.94-1.65,1.94,13.71,8.82,12.57,23.58S414.06,379.59,414.06,379.59Z"/><path class="cls-6" d="M422.16,355.79c-2.3-10-7.49-15-12.21-17.28a13.6,13.6,0,0,0-8-.57,1.27,1.27,0,0,0-.19.68s13.71,8.82,12.57,23.58-.29,17.39-.29,17.39a6.55,6.55,0,0,0,3.33-1.06A26.87,26.87,0,0,0,422.16,355.79Z"/><path class="cls-4" d="M400.65,383.59s8.82.92,13.41-4,8-13.85,5.69-23.8-7.5-15-12.21-17.28c-2.22-1.08-9.06-1.83-10.39,1.26S400.65,383.59,400.65,383.59Z"/><path class="cls-6" d="M404.66,381.19c4.59-5.61,6.77-16.71,5.32-26.09-1.33-8.58-5.23-15-12.06-16.42-.64.34-.51.46-.77,1.09-1.33,3.09,3.5,43.82,3.5,43.82s.64.07,1.65.07A19.59,19.59,0,0,0,404.66,381.19Z"/><path class="cls-6" d="M385.2,381.19c-4.59-5.61-6.76-16.71-5.31-26.09,1.32-8.58,5.22-15,12.05-16.42.64.34.51.46.78,1.09,1.33,3.09-2,43.89-2,43.89h-3.13A21.11,21.11,0,0,1,385.2,381.19Z"/><path class="cls-4" d="M408.27,355.1c-1.41-9.1-5-16.14-12.72-17a1.55,1.55,0,0,0-.7,0c-7.72.83-11.3,7.87-12.71,17-1.45,9.38.72,20.48,5.31,26.09,3.37,4.12,6.16,5,7.4,5.12a2.06,2.06,0,0,0,.7,0c1.25-.16,4-1,7.39-5.12C407.54,375.58,409.71,364.48,408.27,355.1Z"/><path class="cls-5" d="M387.93,332.36c-1.4,0-3.6.39-2.92,1.42.5.76,2.1,1.15,2.89,1.49,1.43.64,2-.15,1.61-1.51A1.86,1.86,0,0,0,387.93,332.36Z"/><path class="cls-9" d="M405.23,336.73c0,.24,1,.43,2.31.43s2.31-.19,2.31-.43-1-.44-2.31-.44S405.23,336.49,405.23,336.73Z"/><path class="cls-9" d="M406,340.32c-.88-.85-4.49-2.23-5.34-1.9-1.15.57,1.77.4,4.49,3.1a12.51,12.51,0,0,1,2.13,2.57c.36.62.64,1.61,1.35,1.86C409.12,344.3,408,342.23,406,340.32Z"/><path class="cls-9" d="M391.87,341.05c-1.5.34-2.91,2.3-3.78,3.6a15.67,15.67,0,0,0-2.45,5.83c-.24,1.25-.69,3.59.15,4.68,1.68,2.18,6.89-9.51,7.1-11.05.13-1,.69-3-.7-3.09A1.73,1.73,0,0,0,391.87,341.05Z"/><path class="cls-9" d="M384.6,338.57a1.85,1.85,0,0,0-.7.15,12.33,12.33,0,0,0-6.88,7.35c-.3.82-.19,1.42.75.79a10.05,10.05,0,0,0,1.59-1.73,32.62,32.62,0,0,1,3.33-3.77,10.37,10.37,0,0,1,2.77-1.65C386.94,339.1,385.67,338.53,384.6,338.57Z"/><path class="cls-9" d="M379.94,336.76l-.11.06c-1.53-.39-3.89.54-5.14,1.09a13.35,13.35,0,0,0-3,1.78c-1.2.78-3.23,3.57-2.6,4.71,1.06-.38,1.54-1.36,2.29-2.18a20.09,20.09,0,0,1,2.85-2.38,11.63,11.63,0,0,1,3.71-1.73C378.78,337.84,380.26,337.74,379.94,336.76Z"/><path class="cls-10" d="M398.6,323.75a1.7,1.7,0,0,1,.24.09c.69.32.68-.62.72-1.47a2.15,2.15,0,0,0-.72-1.65c-.27-.25-.95-.65-1.3-.35s.1,1.5.23,1.94A6,6,0,0,0,398.6,323.75Z"/><path class="cls-11" d="M391.81,323.23a6.73,6.73,0,0,0-.56,3.91c.45.13.5-1.24.57-1.57a6.36,6.36,0,0,1,1.24-2.59c.1-.14,1.63-1.54,1.35-1.66C393.56,320.94,392.23,322.53,391.81,323.23Z"/><path class="cls-12" d="M391.09,322.75v0s0-.08.07-.1Z"/><path class="cls-1" d="M307.68,398.08a7.77,7.77,0,0,1-1.46-.14,15,15,0,0,1-6.06-2.54h-2.7l-.2-.2A22.22,22.22,0,0,1,286,390.93l-.3-.08-.18,0-.3-.11-.67-.24-.75-.27-.09-.08c-2.92-1.33-6.58-4.13-9.84-10a34.69,34.69,0,0,1-2.22-4.87c-.56-.88-1-1.65-1.27-2.19l-.26-.49-.18-.53c0-.12-.08-.25-.11-.38a29.82,29.82,0,0,1-1.27-3.93c-1.54-6.38-1.57-15.61,1.85-21.84,3.25-5.92,9.18-10.66,15.12-12.07a32.53,32.53,0,0,1,7.6-1.13h.26a14.44,14.44,0,0,1,3.39-1.37A12.19,12.19,0,0,1,302.13,321a13.89,13.89,0,0,1,7.26-2.27,9.37,9.37,0,0,1,6.37,2.37,8.9,8.9,0,0,1,2.95,7v.16a10.68,10.68,0,0,1-.53,3c.73-.05,1.4-.07,1.95-.07s1.07,0,1.57,0a19,19,0,0,1,10.48,3.1,10.3,10.3,0,0,1,1.1.87,26.75,26.75,0,0,1,11.66,10.63c3.59,6.28,3.57,15.57,1.94,22a23.25,23.25,0,0,1-2.8,6.75,32.77,32.77,0,0,1-2.45,5.58,24.43,24.43,0,0,1-7.71,8.78l0,0-.87.52-.09,0a14.92,14.92,0,0,1-3.41,1.4,22.37,22.37,0,0,1-11.88,4.34l-.14.13H315.3a15.13,15.13,0,0,1-6.09,2.55,8.33,8.33,0,0,1-1.42.13Z"/><path class="cls-2" d="M302.35,392.74a7.77,7.77,0,0,1-1.46-.13,14.93,14.93,0,0,1-6.06-2.55l-2.71,0-.2-.2a22.25,22.25,0,0,1-11.28-4.28l-.29-.08-.18,0-.31-.1c-.21-.07-.44-.15-.66-.24l-.76-.27-.08-.08c-2.92-1.34-6.59-4.14-9.84-10a33.7,33.7,0,0,1-2.22-4.88c-.56-.87-1-1.65-1.28-2.18l-.26-.49-.17-.53c0-.13-.08-.25-.11-.39a27.9,27.9,0,0,1-1.27-3.92c-1.54-6.38-1.57-15.61,1.84-21.84,3.25-5.92,9.19-10.66,15.13-12.07a31.93,31.93,0,0,1,7.6-1.13H288a14.16,14.16,0,0,1,3.38-1.36,12.2,12.2,0,0,1,5.38-10.36,13.89,13.89,0,0,1,7.26-2.27,9.37,9.37,0,0,1,6.36,2.36,8.88,8.88,0,0,1,3,7v.16a10.54,10.54,0,0,1-.53,3c.73-.05,1.39-.06,2-.06s1.07,0,1.57,0A19.12,19.12,0,0,1,326.84,329a11.74,11.74,0,0,1,1.1.87,26.92,26.92,0,0,1,11.66,10.63c3.59,6.28,3.56,15.58,1.94,22a23.65,23.65,0,0,1-2.8,6.75,32.71,32.71,0,0,1-2.46,5.57,24.2,24.2,0,0,1-7.71,8.79l0,0-.87.52-.09,0a14.7,14.7,0,0,1-3.42,1.4,22.28,22.28,0,0,1-11.88,4.35l-.13.13H310a14.83,14.83,0,0,1-6.1,2.55,7.43,7.43,0,0,1-1.42.13Z"/><path class="cls-3" d="M312.43,334a5.62,5.62,0,0,0-4.81-2.17c-2.7,0-4.93,1.28-4.83,3.26.07,1.4,1.39,3.6,3.68,2.91s4.93-2.37,5.66-3.88c0,0,.16-.24.16-.21Z"/><path class="cls-3" d="M289.58,334.37c1.1-1.66,3.52-2.36,5.61-2.53,2.53-.21,3.48,1,3.51,3.06,0,1.45-1.07,3.81-3.27,3.25s-4.78-2.16-5.56-3.68c0,0-.17-.24-.16-.2Z"/><path class="cls-3" d="M323.24,334.27a12.91,12.91,0,0,0-7.05-2c-3.15-.08-7.68-.17-8.34,3.78-.21,1.3.58,1.86,1.81,2.23a16.89,16.89,0,0,0,4.61.17c1.84,0,3.68,0,5.52,0,1.19,0,5.25-.7,5.1-2.32l.19.09A11,11,0,0,0,323.24,334.27Z"/><path class="cls-3" d="M331.33,367.46c2.18-.46,3.57-4.83,4-6.55,1.23-4.91,1.38-12.58-1.3-17.25-2.25-3.94-6.82-7.87-11.47-8.93-4.48-1-8.52-1.83-12.93.92-2,1.22.8,1.81,2.33,2.09,3.15.57,5.59.58,8.52,2.05,4.47,2.25,8,4,9.4,8.76,1.92,6.35,1.44,12.55,1.44,19Z"/><path class="cls-4" d="M273.26,367.46c-2.08-.46-3.41-4.83-3.83-6.55-1.19-4.91-1.33-12.58,1.24-17.25,2.15-3.94,6.53-7.87,11-8.93,4.29-1,8.16-1.83,12.39.92,1.89,1.22-.77,1.81-2.24,2.09-3,.57-5.35.58-8.15,2.05-4.29,2.25-7.63,4-9,8.76-1.84,6.35-1.39,12.55-1.39,19Z"/><path class="cls-5" d="M294.05,335.65a11.35,11.35,0,0,0-3.84-1.63c.13.29,0,.61-.34,1-.63.6-1.63.46-2.44.46l.1.09a14.29,14.29,0,0,0,2.89.68c.78.08,2.33.75,3.51.95C294.73,336.83,295.12,336.34,294.05,335.65Z"/><path class="cls-6" d="M293.39,336.21c-1.79-.92-8.46-1.26-11.48,0-4.38,1.82-9,5.36-10.56,10a34.44,34.44,0,0,0-1.41,9.36,35.29,35.29,0,0,0,.11,4.93,20,20,0,0,0,.62,4.24c.35.66.72,1.3,1.13,1.92l.33.44a2.31,2.31,0,0,0,1.13.67c0-6.43-.44-12.6,1.39-18.9,1.38-4.78,4.72-6.51,9-8.76,2.8-1.47,5.14-1.49,8.15-2.06a6.06,6.06,0,0,0,2.75-1A3.87,3.87,0,0,0,293.39,336.21Z"/><path class="cls-7" d="M305.23,333.37a14.93,14.93,0,0,1-1.3-1.56c-1.2-1.68-2.76-5.11-1.26-7.05a3.34,3.34,0,0,1,3.48-.64c.79.37.79-.71.84-1.69a2.52,2.52,0,0,0-.84-1.92c-1.72-1.54-4.7-.26-5.8.48-3,2-2.72,5.44-2.26,8.36a27.43,27.43,0,0,1,.44,4.38c0,2.32-2.25,2.61-4.33,2.95.33.86,1.91,1.27,2.74,1.6a13.13,13.13,0,0,1,1.7,1c.67.41.87.2,1.62-.17a5,5,0,0,1,2.22-.67c1.4-.05,3.19,1.12,4.43.47,1.09-.57,1.76-1.32,2.93-1.85-.38.17-2.77-2-3.11-2.29A20,20,0,0,1,305.23,333.37Z"/><path class="cls-8" d="M309.67,337a17.7,17.7,0,0,1-2.94-2.26,20,20,0,0,1-1.5-1.41,14.93,14.93,0,0,1-1.3-1.56c-1.2-1.68-2.76-5.11-1.26-7.05a2,2,0,0,1,.75-.55c-2.37,0-2.26,3.13-1.94,4.69.47,2.29,2.12,4.65,1.52,7.1-.54,2.19-3.49,2.57-5.66,2.12a8.92,8.92,0,0,0,1.87,1.37c.3,0,.56-.13,1.05-.37a5,5,0,0,1,2.22-.67c1.4-.05,3.19,1.12,4.43.47,1-.54,1.7-1.24,2.76-1.76Z"/><path class="cls-4" d="M283.54,379.59s-4.84.34-9.43-7.9a26.58,26.58,0,0,1-3.39-12.2,39.25,39.25,0,0,1,.87-11c1.54-5.58,5.83-9.64,11.1-11.83,3-1.26,9.68-.92,11.48,0s1.65,1.94,1.65,1.94-13.71,8.82-12.57,23.58S283.54,379.59,283.54,379.59Z"/><path class="cls-5" d="M294.17,336.68a10.87,10.87,0,0,0-3.4-.72c.87.23,1.71.64,1.34,1.76a7.54,7.54,0,0,0,2.33,0h1.08A3.57,3.57,0,0,0,294.17,336.68Z"/><path class="cls-6" d="M295.82,338.62a1.42,1.42,0,0,0-.36-.94,14,14,0,0,0-6.75.83c-4.71,2.29-10.19,5.81-12.48,15.77-2.26,9.78,1.25,20.06,5.72,25a5.15,5.15,0,0,0,1.59.27s.84-2.63-.29-17.39S295.82,338.62,295.82,338.62Z"/><path class="cls-4" d="M297,383.59s-8.82.92-13.41-4-8-13.85-5.68-23.8,7.49-15,12.2-17.28c2.22-1.08,9.07-1.83,10.39,1.26S297,383.59,297,383.59Z"/><path class="cls-4" d="M321.26,379.59s4.84.34,9.43-7.9,3.62-16.59,2.53-23.11-8.08-10.64-11.11-11.9-9.68-.92-11.48,0-1.65,1.94-1.65,1.94,13.71,8.82,12.57,23.58S321.26,379.59,321.26,379.59Z"/><path class="cls-6" d="M329.36,355.79c-2.3-10-7.49-15-12.21-17.28a13.6,13.6,0,0,0-8-.57,1.27,1.27,0,0,0-.19.68s13.71,8.82,12.57,23.58-.29,17.39-.29,17.39a6.55,6.55,0,0,0,3.33-1.06A26.87,26.87,0,0,0,329.36,355.79Z"/><path class="cls-4" d="M307.85,383.59s8.82.92,13.41-4,8-13.85,5.69-23.8-7.5-15-12.21-17.28c-2.22-1.08-9.06-1.83-10.39,1.26S307.85,383.59,307.85,383.59Z"/><path class="cls-6" d="M311.86,381.19c4.59-5.61,6.77-16.71,5.32-26.09-1.33-8.58-5.23-15-12.06-16.42-.64.34-.51.46-.77,1.09-1.33,3.09,3.5,43.82,3.5,43.82s.64.07,1.65.07A19.59,19.59,0,0,0,311.86,381.19Z"/><path class="cls-6" d="M292.4,381.19c-4.59-5.61-6.76-16.71-5.31-26.09,1.32-8.58,5.22-15,12.05-16.42.64.34.51.46.78,1.09,1.33,3.09-2,43.89-2,43.89h-3.13A21.11,21.11,0,0,1,292.4,381.19Z"/><path class="cls-4" d="M315.47,355.1c-1.41-9.1-5-16.14-12.72-17a1.55,1.55,0,0,0-.7,0c-7.72.83-11.3,7.87-12.71,17-1.45,9.38.72,20.48,5.31,26.09,3.37,4.12,6.16,5,7.4,5.12a2.06,2.06,0,0,0,.7,0c1.25-.16,4-1,7.39-5.12C314.74,375.58,316.91,364.48,315.47,355.1Z"/><path class="cls-5" d="M295.13,332.36c-1.4,0-3.6.39-2.92,1.42.5.76,2.1,1.15,2.89,1.49,1.43.64,2-.15,1.61-1.51A1.86,1.86,0,0,0,295.13,332.36Z"/><path class="cls-9" d="M312.43,336.73c0,.24,1,.43,2.31.43s2.31-.19,2.31-.43-1-.44-2.31-.44S312.43,336.49,312.43,336.73Z"/><path class="cls-9" d="M313.21,340.32c-.88-.85-4.49-2.23-5.34-1.9-1.15.57,1.77.4,4.49,3.1a12.51,12.51,0,0,1,2.13,2.57c.36.62.64,1.61,1.35,1.86C316.32,344.3,315.17,342.23,313.21,340.32Z"/><path class="cls-9" d="M299.07,341.05c-1.5.34-2.91,2.3-3.78,3.6a15.67,15.67,0,0,0-2.45,5.83c-.24,1.25-.69,3.59.15,4.68,1.68,2.18,6.89-9.51,7.1-11.05.13-1,.69-3-.7-3.09A1.73,1.73,0,0,0,299.07,341.05Z"/><path class="cls-9" d="M291.8,338.57a1.85,1.85,0,0,0-.7.15,12.33,12.33,0,0,0-6.88,7.35c-.3.82-.19,1.42.75.79a10.05,10.05,0,0,0,1.59-1.73,32.62,32.62,0,0,1,3.33-3.77,10.37,10.37,0,0,1,2.77-1.65C294.14,339.1,292.87,338.53,291.8,338.57Z"/><path class="cls-9" d="M287.14,336.76l-.11.06c-1.53-.39-3.89.54-5.14,1.09a13.35,13.35,0,0,0-3,1.78c-1.2.78-3.23,3.57-2.6,4.71,1.06-.38,1.54-1.36,2.29-2.18a20.09,20.09,0,0,1,2.85-2.38,11.63,11.63,0,0,1,3.71-1.73C286,337.84,287.46,337.74,287.14,336.76Z"/><path class="cls-10" d="M305.8,323.75a1.7,1.7,0,0,1,.24.09c.69.32.68-.62.72-1.47a2.15,2.15,0,0,0-.72-1.65c-.27-.25-1-.65-1.3-.35s.1,1.5.23,1.94A6,6,0,0,0,305.8,323.75Z"/><path class="cls-11" d="M299,323.23a6.73,6.73,0,0,0-.56,3.91c.45.13.5-1.24.57-1.57a6.36,6.36,0,0,1,1.24-2.59c.1-.14,1.63-1.54,1.35-1.66C300.76,320.94,299.43,322.53,299,323.23Z"/><path class="cls-12" d="M298.29,322.75v0s0-.08.07-.1Z"/><path class="cls-1" d="M212.75,398.08a7.77,7.77,0,0,1-1.46-.14,15,15,0,0,1-6.06-2.54h-2.71l-.2-.2A22.25,22.25,0,0,1,191,390.93l-.29-.08-.18,0-.31-.11c-.21-.07-.44-.15-.66-.24l-.76-.27-.08-.08c-2.92-1.33-6.59-4.13-9.84-10a33.59,33.59,0,0,1-2.22-4.87c-.56-.88-1-1.65-1.28-2.19l-.26-.49-.17-.53c0-.12-.08-.25-.11-.38a28.36,28.36,0,0,1-1.27-3.93c-1.54-6.38-1.57-15.61,1.84-21.84,3.25-5.92,9.19-10.66,15.13-12.07a32.45,32.45,0,0,1,7.6-1.13h.26a14.2,14.2,0,0,1,3.38-1.37A12.2,12.2,0,0,1,207.2,321a13.89,13.89,0,0,1,7.26-2.27,9.33,9.33,0,0,1,6.36,2.37,8.87,8.87,0,0,1,3,7v.16a10.68,10.68,0,0,1-.53,3c.73-.05,1.39-.07,1.95-.07s1.07,0,1.57,0a19,19,0,0,1,10.48,3.1,10.3,10.3,0,0,1,1.1.87A26.8,26.8,0,0,1,250,345.81c3.59,6.28,3.56,15.57,1.94,22a23.54,23.54,0,0,1-2.8,6.75,32.81,32.81,0,0,1-2.46,5.58,24.24,24.24,0,0,1-7.71,8.78l0,0-.87.52-.09,0a15.16,15.16,0,0,1-3.42,1.4,22.34,22.34,0,0,1-11.88,4.34l-.13.13h-2.18a15.11,15.11,0,0,1-6.1,2.55,8.33,8.33,0,0,1-1.42.13Z"/><path class="cls-2" d="M207.42,392.74a7.81,7.81,0,0,1-1.47-.13,15,15,0,0,1-6.06-2.55l-2.7,0-.2-.2a22.22,22.22,0,0,1-11.28-4.28l-.29-.08-.18,0-.31-.1-.67-.24-.75-.27-.08-.08c-2.92-1.34-6.59-4.14-9.84-10a32.66,32.66,0,0,1-2.22-4.88c-.57-.87-1-1.65-1.28-2.18l-.26-.49-.17-.53-.12-.39a27.57,27.57,0,0,1-1.26-3.92c-1.55-6.38-1.58-15.61,1.84-21.84,3.25-5.92,9.19-10.66,15.12-12.07a32,32,0,0,1,7.61-1.13h.25a14.39,14.39,0,0,1,3.39-1.36,12.17,12.17,0,0,1,5.38-10.36,13.88,13.88,0,0,1,7.25-2.27,9.38,9.38,0,0,1,6.37,2.36,8.88,8.88,0,0,1,2.95,7v.16a11.29,11.29,0,0,1-.53,3c.72-.05,1.39-.06,1.94-.06s1.08,0,1.58,0A19.09,19.09,0,0,1,231.9,329a10.56,10.56,0,0,1,1.1.87,26.81,26.81,0,0,1,11.66,10.63c3.6,6.28,3.57,15.58,2,22a23.72,23.72,0,0,1-2.81,6.75,32.67,32.67,0,0,1-2.45,5.57,24.38,24.38,0,0,1-7.71,8.79l0,0-.87.52-.08,0a14.7,14.7,0,0,1-3.42,1.4,22.3,22.3,0,0,1-11.88,4.35l-.13.13H215a14.79,14.79,0,0,1-6.09,2.55,7.43,7.43,0,0,1-1.42.13Z"/><path class="cls-3" d="M217.5,334a5.63,5.63,0,0,0-4.81-2.17c-2.7,0-4.94,1.28-4.83,3.26.06,1.4,1.38,3.6,3.68,2.91s4.93-2.37,5.65-3.88c0,0,.17-.24.17-.21Z"/><path class="cls-3" d="M194.64,334.37c1.11-1.66,3.53-2.36,5.61-2.53,2.54-.21,3.49,1,3.52,3.06,0,1.45-1.08,3.81-3.28,3.25s-4.77-2.16-5.55-3.68c0,0-.17-.24-.16-.2Z"/><path class="cls-3" d="M228.31,334.27a12.93,12.93,0,0,0-7.05-2c-3.15-.08-7.69-.17-8.34,3.78-.22,1.3.58,1.86,1.81,2.23a16.82,16.82,0,0,0,4.6.17c1.84,0,3.69,0,5.53,0,1.19,0,5.25-.7,5.1-2.32l.18.09A11.35,11.35,0,0,0,228.31,334.27Z"/><path class="cls-3" d="M236.4,367.46c2.17-.46,3.56-4.83,4-6.55,1.24-4.91,1.39-12.58-1.29-17.25-2.25-3.94-6.82-7.87-11.47-8.93-4.49-1-8.52-1.83-12.94.92-2,1.22.81,1.81,2.34,2.09,3.15.57,5.59.58,8.51,2.05,4.48,2.25,8,4,9.4,8.76,1.92,6.35,1.45,12.55,1.45,19Z"/><path class="cls-4" d="M178.33,367.46c-2.08-.46-3.42-4.83-3.83-6.55-1.19-4.91-1.33-12.58,1.23-17.25,2.16-3.94,6.54-7.87,11-8.93,4.29-1,8.15-1.83,12.39.92,1.89,1.22-.77,1.81-2.24,2.09-3,.57-5.35.58-8.15,2.05-4.29,2.25-7.63,4-9,8.76-1.84,6.35-1.39,12.55-1.39,19Z"/><path class="cls-5" d="M199.12,335.65a11.35,11.35,0,0,0-3.84-1.63c.13.29,0,.61-.34,1-.64.6-1.64.46-2.45.46l.1.09a14.55,14.55,0,0,0,2.9.68c.78.08,2.33.75,3.51.95C199.8,336.83,200.19,336.34,199.12,335.65Z"/><path class="cls-6" d="M198.46,336.21c-1.8-.92-8.46-1.26-11.48,0-4.39,1.82-9,5.36-10.57,10a35.23,35.23,0,0,0-1.41,9.36,36.89,36.89,0,0,0,.11,4.93,20.72,20.72,0,0,0,.63,4.24c.35.66.71,1.3,1.12,1.92l.33.44a2.33,2.33,0,0,0,1.14.67c0-6.43-.44-12.6,1.39-18.9,1.38-4.78,4.72-6.51,9-8.76,2.8-1.47,5.14-1.49,8.15-2.06a6.06,6.06,0,0,0,2.75-1A4,4,0,0,0,198.46,336.21Z"/><path class="cls-7" d="M210.3,333.37a13.78,13.78,0,0,1-1.3-1.56c-1.2-1.68-2.77-5.11-1.26-7.05a3.34,3.34,0,0,1,3.48-.64c.79.37.78-.71.83-1.69a2.47,2.47,0,0,0-.83-1.92c-1.72-1.54-4.71-.26-5.81.48-3,2-2.71,5.44-2.25,8.36a28.63,28.63,0,0,1,.44,4.38c0,2.32-2.25,2.61-4.33,2.95.33.86,1.9,1.27,2.73,1.6a11.91,11.91,0,0,1,1.7,1c.68.41.87.2,1.63-.17a5,5,0,0,1,2.22-.67c1.39-.05,3.19,1.12,4.43.47s1.75-1.32,2.93-1.85c-.39.17-2.77-2-3.11-2.29A20,20,0,0,1,210.3,333.37Z"/><path class="cls-8" d="M214.73,337a18,18,0,0,1-2.93-2.26,20,20,0,0,1-1.5-1.41,13.78,13.78,0,0,1-1.3-1.56c-1.2-1.68-2.77-5.11-1.26-7.05a2,2,0,0,1,.74-.55c-2.37,0-2.25,3.13-1.93,4.69.46,2.29,2.12,4.65,1.52,7.1-.54,2.19-3.49,2.57-5.66,2.12a8.86,8.86,0,0,0,1.86,1.37c.31,0,.57-.13,1.06-.37a5,5,0,0,1,2.22-.67c1.39-.05,3.19,1.12,4.43.47,1-.54,1.7-1.24,2.76-1.76A.45.45,0,0,1,214.73,337Z"/><path class="cls-4" d="M188.61,379.59s-4.84.34-9.43-7.9a26.47,26.47,0,0,1-3.4-12.2,39.63,39.63,0,0,1,.88-11c1.54-5.58,5.82-9.64,11.1-11.83,3-1.26,9.68-.92,11.48,0s1.65,1.94,1.65,1.94-13.71,8.82-12.58,23.58S188.61,379.59,188.61,379.59Z"/><path class="cls-5" d="M199.24,336.68a11,11,0,0,0-3.41-.72c.88.23,1.71.64,1.35,1.76a7.54,7.54,0,0,0,2.33,0h1.07A3.6,3.6,0,0,0,199.24,336.68Z"/><path class="cls-6" d="M200.89,338.62a1.42,1.42,0,0,0-.36-.94,14,14,0,0,0-6.75.83c-4.72,2.29-10.19,5.81-12.49,15.77-2.26,9.78,1.25,20.06,5.73,25a5.15,5.15,0,0,0,1.59.27s.84-2.63-.3-17.39S200.89,338.62,200.89,338.62Z"/><path class="cls-4" d="M202,383.59s-8.82.92-13.41-4-8-13.85-5.69-23.8,7.5-15,12.21-17.28c2.22-1.08,9.06-1.83,10.39,1.26S202,383.59,202,383.59Z"/><path class="cls-4" d="M226.33,379.59s4.83.34,9.43-7.9,3.62-16.59,2.53-23.11-8.09-10.64-11.11-11.9-9.69-.92-11.48,0-1.65,1.94-1.65,1.94,13.71,8.82,12.57,23.58S226.33,379.59,226.33,379.59Z"/><path class="cls-6" d="M234.42,355.79c-2.29-10-7.49-15-12.2-17.28a13.61,13.61,0,0,0-8-.57,1.27,1.27,0,0,0-.19.68s13.71,8.82,12.57,23.58-.29,17.39-.29,17.39a6.53,6.53,0,0,0,3.32-1.06A26.83,26.83,0,0,0,234.42,355.79Z"/><path class="cls-4" d="M212.92,383.59s8.82.92,13.41-4,8-13.85,5.68-23.8-7.49-15-12.2-17.28c-2.22-1.08-9.07-1.83-10.39,1.26S212.92,383.59,212.92,383.59Z"/><path class="cls-6" d="M216.93,381.19c4.59-5.61,6.76-16.71,5.32-26.09-1.33-8.58-5.23-15-12.06-16.42-.64.34-.51.46-.77,1.09-1.34,3.09,3.5,43.82,3.5,43.82s.64.07,1.65.07A21.11,21.11,0,0,0,216.93,381.19Z"/><path class="cls-6" d="M197.47,381.19c-4.59-5.61-6.77-16.71-5.32-26.09,1.33-8.58,5.23-15,12.06-16.42.64.34.5.46.78,1.09,1.32,3.09-2,43.89-2,43.89h-3.13A21.11,21.11,0,0,1,197.47,381.19Z"/><path class="cls-4" d="M220.53,355.1c-1.4-9.1-5-16.14-12.71-17a1.55,1.55,0,0,0-.7,0c-7.73.83-11.31,7.87-12.72,17-1.44,9.38.73,20.48,5.32,26.09,3.37,4.12,6.15,5,7.4,5.12a2.06,2.06,0,0,0,.7,0c1.24-.16,4-1,7.39-5.12C219.81,375.58,222,364.48,220.53,355.1Z"/><path class="cls-5" d="M200.2,332.36c-1.4,0-3.6.39-2.93,1.42.51.76,2.11,1.15,2.89,1.49,1.43.64,2-.15,1.61-1.51A1.84,1.84,0,0,0,200.2,332.36Z"/><path class="cls-9" d="M217.5,336.73c0,.24,1,.43,2.31.43s2.31-.19,2.31-.43-1-.44-2.31-.44S217.5,336.49,217.5,336.73Z"/><path class="cls-9" d="M218.27,340.32c-.87-.85-4.48-2.23-5.34-1.9-1.15.57,1.78.4,4.5,3.1a12.51,12.51,0,0,1,2.13,2.57c.36.62.63,1.61,1.35,1.86C221.39,344.3,220.24,342.23,218.27,340.32Z"/><path class="cls-9" d="M204.14,341.05c-1.5.34-2.91,2.3-3.78,3.6a15.85,15.85,0,0,0-2.46,5.83c-.23,1.25-.68,3.59.16,4.68,1.67,2.18,6.89-9.51,7.1-11.05.13-1,.69-3-.7-3.09A1.66,1.66,0,0,0,204.14,341.05Z"/><path class="cls-9" d="M196.86,338.57a1.94,1.94,0,0,0-.7.15,12.34,12.34,0,0,0-6.87,7.35c-.3.82-.19,1.42.74.79a9.31,9.31,0,0,0,1.59-1.73,34.61,34.61,0,0,1,3.33-3.77,10.59,10.59,0,0,1,2.78-1.65C199.21,339.1,197.94,338.53,196.86,338.57Z"/><path class="cls-9" d="M192.21,336.76l-.11.06c-1.53-.39-3.9.54-5.14,1.09a13.35,13.35,0,0,0-3,1.78c-1.2.78-3.23,3.57-2.61,4.71,1.06-.38,1.54-1.36,2.3-2.18a19.54,19.54,0,0,1,2.85-2.38,11.53,11.53,0,0,1,3.71-1.73C191.05,337.84,192.53,337.74,192.21,336.76Z"/><path class="cls-10" d="M210.86,323.75a1.45,1.45,0,0,1,.25.09c.69.32.68-.62.72-1.47a2.15,2.15,0,0,0-.72-1.65c-.28-.25-1-.65-1.3-.35s.1,1.5.23,1.94A6.25,6.25,0,0,0,210.86,323.75Z"/><path class="cls-11" d="M204.08,323.23a6.73,6.73,0,0,0-.56,3.91c.45.13.49-1.24.57-1.57a6.23,6.23,0,0,1,1.24-2.59c.1-.14,1.63-1.54,1.35-1.66C205.82,320.94,204.5,322.53,204.08,323.23Z"/><path class="cls-12" d="M203.36,322.75v0a.36.36,0,0,1,.07-.1Z"/><path class="cls-1" d="M116.75,398.08a7.77,7.77,0,0,1-1.46-.14,15,15,0,0,1-6.06-2.54h-2.71l-.2-.2A22.25,22.25,0,0,1,95,390.93l-.29-.08-.18,0-.31-.11c-.21-.07-.44-.15-.66-.24l-.76-.27-.08-.08c-2.92-1.33-6.59-4.13-9.84-10a33.59,33.59,0,0,1-2.22-4.87c-.56-.88-1-1.65-1.28-2.19l-.26-.49-.17-.53c0-.12-.08-.25-.11-.38a28.36,28.36,0,0,1-1.27-3.93c-1.54-6.38-1.57-15.61,1.84-21.84,3.25-5.92,9.19-10.66,15.13-12.07a32.45,32.45,0,0,1,7.6-1.13h.26a14.2,14.2,0,0,1,3.38-1.37A12.2,12.2,0,0,1,111.2,321a13.89,13.89,0,0,1,7.26-2.27,9.33,9.33,0,0,1,6.36,2.37,8.87,8.87,0,0,1,3,7v.16a10.68,10.68,0,0,1-.53,3c.73-.05,1.39-.07,2-.07s1.07,0,1.57,0a19,19,0,0,1,10.48,3.1,10.3,10.3,0,0,1,1.1.87A26.8,26.8,0,0,1,154,345.81c3.59,6.28,3.56,15.57,1.94,22a23.54,23.54,0,0,1-2.8,6.75,32.81,32.81,0,0,1-2.46,5.58,24.24,24.24,0,0,1-7.71,8.78l0,0-.87.52-.09,0a15.16,15.16,0,0,1-3.42,1.4,22.34,22.34,0,0,1-11.88,4.34l-.13.13h-2.18a15.11,15.11,0,0,1-6.1,2.55,8.33,8.33,0,0,1-1.42.13Z"/><path class="cls-2" d="M111.42,392.74a7.81,7.81,0,0,1-1.47-.13,15,15,0,0,1-6.06-2.55l-2.7,0-.2-.2a22.22,22.22,0,0,1-11.28-4.28l-.29-.08-.18,0-.31-.1-.67-.24-.75-.27-.08-.08c-2.92-1.34-6.59-4.14-9.84-10a32.66,32.66,0,0,1-2.22-4.88c-.57-.87-1-1.65-1.28-2.18l-.26-.49-.17-.53c0-.13-.08-.25-.12-.39a27.57,27.57,0,0,1-1.26-3.92c-1.55-6.38-1.58-15.61,1.84-21.84,3.25-5.92,9.19-10.66,15.12-12.07a32,32,0,0,1,7.61-1.13h.25a14.39,14.39,0,0,1,3.39-1.36,12.17,12.17,0,0,1,5.38-10.36,13.88,13.88,0,0,1,7.25-2.27,9.38,9.38,0,0,1,6.37,2.36,8.88,8.88,0,0,1,3,7v.16a11.29,11.29,0,0,1-.53,3c.72-.05,1.39-.06,1.94-.06s1.08,0,1.58,0A19.09,19.09,0,0,1,135.9,329a10.56,10.56,0,0,1,1.1.87,26.81,26.81,0,0,1,11.66,10.63c3.6,6.28,3.57,15.58,2,22a23.72,23.72,0,0,1-2.81,6.75,32.67,32.67,0,0,1-2.45,5.57,24.38,24.38,0,0,1-7.71,8.79l0,0-.87.52-.08,0a14.7,14.7,0,0,1-3.42,1.4,22.3,22.3,0,0,1-11.88,4.35l-.13.13H119a14.79,14.79,0,0,1-6.09,2.55,7.43,7.43,0,0,1-1.42.13Z"/><path class="cls-3" d="M121.5,334a5.63,5.63,0,0,0-4.81-2.17c-2.7,0-4.94,1.28-4.83,3.26.06,1.4,1.38,3.6,3.68,2.91,2.15-.64,4.93-2.37,5.65-3.88,0,0,.17-.24.17-.21Z"/><path class="cls-3" d="M98.64,334.37c1.11-1.66,3.53-2.36,5.61-2.53,2.54-.21,3.49,1,3.52,3.06,0,1.45-1.08,3.81-3.28,3.25s-4.77-2.16-5.55-3.68c0,0-.17-.24-.16-.2Z"/><path class="cls-3" d="M132.31,334.27a12.93,12.93,0,0,0-7-2c-3.15-.08-7.69-.17-8.34,3.78-.22,1.3.58,1.86,1.81,2.23a16.82,16.82,0,0,0,4.6.17c1.84,0,3.69,0,5.53,0,1.19,0,5.25-.7,5.1-2.32l.18.09A11.35,11.35,0,0,0,132.31,334.27Z"/><path class="cls-3" d="M140.4,367.46c2.17-.46,3.56-4.83,4-6.55,1.24-4.91,1.39-12.58-1.29-17.25-2.25-3.94-6.82-7.87-11.47-8.93-4.49-1-8.52-1.83-12.94.92-2,1.22.81,1.81,2.34,2.09,3.15.57,5.59.58,8.51,2.05,4.48,2.25,8,4,9.4,8.76,1.92,6.35,1.45,12.55,1.45,19Z"/><path class="cls-4" d="M82.33,367.46c-2.08-.46-3.42-4.83-3.83-6.55-1.19-4.91-1.33-12.58,1.23-17.25,2.16-3.94,6.54-7.87,11-8.93,4.29-1,8.15-1.83,12.39.92,1.89,1.22-.77,1.81-2.24,2.09-3,.57-5.35.58-8.15,2.05-4.29,2.25-7.63,4-9,8.76-1.84,6.35-1.39,12.55-1.39,19Z"/><path class="cls-5" d="M103.12,335.65A11.35,11.35,0,0,0,99.28,334c.13.29,0,.61-.34,1-.64.6-1.64.46-2.45.46l.1.09a14.55,14.55,0,0,0,2.9.68c.78.08,2.33.75,3.51.95C103.8,336.83,104.19,336.34,103.12,335.65Z"/><path class="cls-6" d="M102.46,336.21c-1.8-.92-8.46-1.26-11.48,0-4.39,1.82-9,5.36-10.57,10A35.23,35.23,0,0,0,79,355.56a36.89,36.89,0,0,0,.11,4.93,20.72,20.72,0,0,0,.63,4.24c.35.66.71,1.3,1.12,1.92l.33.44a2.33,2.33,0,0,0,1.14.67c0-6.43-.44-12.6,1.39-18.9,1.38-4.78,4.72-6.51,9-8.76,2.8-1.47,5.14-1.49,8.15-2.06a6.06,6.06,0,0,0,2.75-1A4,4,0,0,0,102.46,336.21Z"/><path class="cls-7" d="M114.3,333.37a13.78,13.78,0,0,1-1.3-1.56c-1.2-1.68-2.77-5.11-1.26-7.05a3.34,3.34,0,0,1,3.48-.64c.79.37.78-.71.83-1.69a2.47,2.47,0,0,0-.83-1.92c-1.72-1.54-4.71-.26-5.81.48-3,2-2.71,5.44-2.25,8.36a28.63,28.63,0,0,1,.44,4.38c0,2.32-2.25,2.61-4.33,2.95.33.86,1.9,1.27,2.73,1.6a11.91,11.91,0,0,1,1.7,1c.68.41.87.2,1.63-.17a5,5,0,0,1,2.22-.67c1.39-.05,3.19,1.12,4.43.47,1.09-.57,1.75-1.32,2.93-1.85-.39.17-2.77-2-3.11-2.29A20,20,0,0,1,114.3,333.37Z"/><path class="cls-8" d="M118.73,337a18,18,0,0,1-2.93-2.26,20,20,0,0,1-1.5-1.41,13.78,13.78,0,0,1-1.3-1.56c-1.2-1.68-2.77-5.11-1.26-7.05a2,2,0,0,1,.74-.55c-2.37,0-2.25,3.13-1.93,4.69.46,2.29,2.12,4.65,1.52,7.1-.54,2.19-3.49,2.57-5.66,2.12a8.86,8.86,0,0,0,1.86,1.37c.31,0,.57-.13,1.06-.37a5,5,0,0,1,2.22-.67c1.39-.05,3.19,1.12,4.43.47,1-.54,1.7-1.24,2.76-1.76A.45.45,0,0,1,118.73,337Z"/><path class="cls-4" d="M92.61,379.59s-4.84.34-9.43-7.9a26.47,26.47,0,0,1-3.4-12.2,39.63,39.63,0,0,1,.88-11c1.54-5.58,5.82-9.64,11.1-11.83,3-1.26,9.68-.92,11.48,0s1.65,1.94,1.65,1.94-13.71,8.82-12.58,23.58S92.61,379.59,92.61,379.59Z"/><path class="cls-5" d="M103.24,336.68a11,11,0,0,0-3.41-.72c.88.23,1.71.64,1.35,1.76a7.54,7.54,0,0,0,2.33,0h1.07A3.6,3.6,0,0,0,103.24,336.68Z"/><path class="cls-6" d="M104.89,338.62a1.42,1.42,0,0,0-.36-.94,14,14,0,0,0-6.75.83c-4.72,2.29-10.19,5.81-12.49,15.77-2.26,9.78,1.25,20.06,5.73,25a5.15,5.15,0,0,0,1.59.27s.84-2.63-.3-17.39S104.89,338.62,104.89,338.62Z"/><path class="cls-4" d="M106,383.59s-8.82.92-13.41-4-8-13.85-5.69-23.8,7.5-15,12.21-17.28c2.22-1.08,9.06-1.83,10.39,1.26S106,383.59,106,383.59Z"/><path class="cls-4" d="M130.33,379.59s4.83.34,9.43-7.9,3.62-16.59,2.53-23.11-8.09-10.64-11.11-11.9-9.69-.92-11.48,0-1.65,1.94-1.65,1.94,13.71,8.82,12.57,23.58S130.33,379.59,130.33,379.59Z"/><path class="cls-6" d="M138.42,355.79c-2.29-10-7.49-15-12.2-17.28a13.61,13.61,0,0,0-8-.57,1.27,1.27,0,0,0-.19.68s13.71,8.82,12.57,23.58-.29,17.39-.29,17.39a6.53,6.53,0,0,0,3.32-1.06A26.83,26.83,0,0,0,138.42,355.79Z"/><path class="cls-4" d="M116.92,383.59s8.82.92,13.41-4,8-13.85,5.68-23.8-7.49-15-12.2-17.28c-2.22-1.08-9.07-1.83-10.39,1.26S116.92,383.59,116.92,383.59Z"/><path class="cls-6" d="M120.93,381.19c4.59-5.61,6.76-16.71,5.32-26.09-1.33-8.58-5.23-15-12.06-16.42-.64.34-.51.46-.77,1.09-1.34,3.09,3.5,43.82,3.5,43.82s.64.07,1.65.07A21.11,21.11,0,0,0,120.93,381.19Z"/><path class="cls-6" d="M101.47,381.19c-4.59-5.61-6.77-16.71-5.32-26.09,1.33-8.58,5.23-15,12.06-16.42.64.34.5.46.78,1.09,1.32,3.09-2,43.89-2,43.89h-3.13A21.11,21.11,0,0,1,101.47,381.19Z"/><path class="cls-4" d="M124.53,355.1c-1.4-9.1-5-16.14-12.71-17a1.55,1.55,0,0,0-.7,0c-7.73.83-11.31,7.87-12.72,17-1.44,9.38.73,20.48,5.32,26.09,3.37,4.12,6.15,5,7.4,5.12a2.06,2.06,0,0,0,.7,0c1.24-.16,4-1,7.39-5.12C123.81,375.58,126,364.48,124.53,355.1Z"/><path class="cls-5" d="M104.2,332.36c-1.4,0-3.6.39-2.93,1.42.51.76,2.11,1.15,2.89,1.49,1.43.64,2-.15,1.61-1.51A1.84,1.84,0,0,0,104.2,332.36Z"/><path class="cls-9" d="M121.5,336.73c0,.24,1,.43,2.31.43s2.31-.19,2.31-.43-1-.44-2.31-.44S121.5,336.49,121.5,336.73Z"/><path class="cls-9" d="M122.27,340.32c-.87-.85-4.48-2.23-5.34-1.9-1.15.57,1.78.4,4.5,3.1a12.51,12.51,0,0,1,2.13,2.57c.36.62.63,1.61,1.35,1.86C125.39,344.3,124.24,342.23,122.27,340.32Z"/><path class="cls-9" d="M108.14,341.05c-1.5.34-2.91,2.3-3.78,3.6a15.85,15.85,0,0,0-2.46,5.83c-.23,1.25-.68,3.59.16,4.68,1.67,2.18,6.89-9.51,7.1-11.05.13-1,.69-3-.7-3.09A1.66,1.66,0,0,0,108.14,341.05Z"/><path class="cls-9" d="M100.86,338.57a1.94,1.94,0,0,0-.7.15,12.34,12.34,0,0,0-6.87,7.35c-.3.82-.19,1.42.74.79a9.31,9.31,0,0,0,1.59-1.73A34.61,34.61,0,0,1,99,341.36a10.59,10.59,0,0,1,2.78-1.65C103.21,339.1,101.94,338.53,100.86,338.57Z"/><path class="cls-9" d="M96.21,336.76l-.11.06c-1.53-.39-3.9.54-5.14,1.09a13.35,13.35,0,0,0-3,1.78c-1.2.78-3.23,3.57-2.61,4.71,1.06-.38,1.54-1.36,2.3-2.18a19.54,19.54,0,0,1,2.85-2.38,11.53,11.53,0,0,1,3.71-1.73C95.05,337.84,96.53,337.74,96.21,336.76Z"/><path class="cls-10" d="M114.86,323.75a1.45,1.45,0,0,1,.25.09c.69.32.68-.62.72-1.47a2.15,2.15,0,0,0-.72-1.65c-.28-.25-1-.65-1.3-.35s.1,1.5.23,1.94A6.25,6.25,0,0,0,114.86,323.75Z"/><path class="cls-11" d="M108.08,323.23a6.73,6.73,0,0,0-.56,3.91c.45.13.49-1.24.57-1.57a6.23,6.23,0,0,1,1.24-2.59c.1-.14,1.63-1.54,1.35-1.66C109.82,320.94,108.5,322.53,108.08,323.23Z"/><path class="cls-12" d="M107.36,322.75v0a.36.36,0,0,1,.07-.1Z"/><path class="cls-1" d="M353.55,331.94a7.77,7.77,0,0,1-1.46-.13,14.93,14.93,0,0,1-6.06-2.55l-2.71,0-.2-.2a22.25,22.25,0,0,1-11.28-4.28l-.29-.08-.18-.05-.31-.1c-.21-.07-.44-.15-.66-.24l-.76-.27-.08-.08c-2.92-1.34-6.59-4.14-9.84-10a33.7,33.7,0,0,1-2.22-4.88c-.56-.87-1-1.65-1.28-2.18l-.26-.49-.17-.53c0-.13-.08-.25-.11-.39a27.9,27.9,0,0,1-1.27-3.92c-1.54-6.38-1.57-15.61,1.84-21.84,3.25-5.92,9.19-10.66,15.13-12.07a31.93,31.93,0,0,1,7.6-1.13h.26a14.16,14.16,0,0,1,3.38-1.36A12.2,12.2,0,0,1,348,254.86a13.89,13.89,0,0,1,7.26-2.27,9.37,9.37,0,0,1,6.36,2.36,8.88,8.88,0,0,1,3,7v.16a10.54,10.54,0,0,1-.53,3c.73-.05,1.39-.06,1.95-.06s1.07,0,1.57,0A19.12,19.12,0,0,1,378,268.17a11.74,11.74,0,0,1,1.1.87,26.92,26.92,0,0,1,11.66,10.63c3.59,6.28,3.56,15.58,1.94,22a23.65,23.65,0,0,1-2.8,6.75,32.71,32.71,0,0,1-2.46,5.57,24.2,24.2,0,0,1-7.71,8.79l0,0-.87.52-.09,0a14.7,14.7,0,0,1-3.42,1.4,22.28,22.28,0,0,1-11.88,4.35l-.13.13h-2.18a14.83,14.83,0,0,1-6.1,2.55,7.43,7.43,0,0,1-1.42.13Z"/><path class="cls-2" d="M348.22,326.61a7.8,7.8,0,0,1-1.47-.14,14.85,14.85,0,0,1-6.06-2.54H338l-.2-.2a22.13,22.13,0,0,1-11.28-4.28l-.29-.08-.18,0-.31-.11-.67-.23-.75-.27-.08-.09c-2.92-1.33-6.59-4.13-9.84-10a32.1,32.1,0,0,1-2.22-4.87c-.57-.87-1-1.65-1.28-2.19l-.26-.49-.17-.53-.12-.38a27.57,27.57,0,0,1-1.26-3.92c-1.55-6.38-1.58-15.61,1.84-21.85,3.25-5.92,9.19-10.66,15.12-12.07a32.52,32.52,0,0,1,7.61-1.12h.25a14.88,14.88,0,0,1,3.39-1.37,12.17,12.17,0,0,1,5.38-10.36,13.9,13.9,0,0,1,7.25-2.26,9.33,9.33,0,0,1,6.37,2.36,8.86,8.86,0,0,1,2.95,7v.16a11.36,11.36,0,0,1-.53,3c.72,0,1.39-.06,1.94-.06l1.58,0a19.18,19.18,0,0,1,10.47,3.1,9.38,9.38,0,0,1,1.1.87,26.75,26.75,0,0,1,11.66,10.63c3.6,6.28,3.57,15.58,2,22a23.61,23.61,0,0,1-2.81,6.75,32.77,32.77,0,0,1-2.45,5.58,24.55,24.55,0,0,1-7.71,8.79l0,0-.87.52-.08.05a15.16,15.16,0,0,1-3.42,1.4,22.28,22.28,0,0,1-11.88,4.34l-.13.14h-2.19a14.79,14.79,0,0,1-6.09,2.55,7.43,7.43,0,0,1-1.42.13Z"/><path class="cls-3" d="M358.3,267.85a5.63,5.63,0,0,0-4.81-2.17c-2.7,0-4.94,1.27-4.83,3.26.06,1.4,1.38,3.59,3.68,2.91s4.93-2.37,5.65-3.88c0,0,.17-.25.17-.21Z"/><path class="cls-3" d="M335.44,268.24c1.11-1.66,3.53-2.37,5.61-2.53,2.54-.21,3.49,1,3.52,3.06,0,1.45-1.08,3.81-3.28,3.24s-4.77-2.15-5.55-3.67c0,0-.17-.24-.16-.2Z"/><path class="cls-3" d="M369.11,268.14a12.93,12.93,0,0,0-7.05-2c-3.15-.08-7.69-.17-8.34,3.77-.22,1.31.58,1.87,1.81,2.24a17.22,17.22,0,0,0,4.6.17c1.84,0,3.69,0,5.53,0,1.19,0,5.25-.7,5.1-2.32l.18.09A11,11,0,0,0,369.11,268.14Z"/><path class="cls-3" d="M377.2,301.33c2.17-.46,3.56-4.83,4-6.55,1.24-4.91,1.39-12.58-1.29-17.26-2.25-3.93-6.82-7.86-11.47-8.92-4.49-1-8.52-1.83-12.94.91-2,1.23.81,1.82,2.34,2.09,3.15.57,5.59.59,8.51,2.06,4.48,2.25,8,4,9.4,8.75,1.92,6.35,1.45,12.55,1.45,19Z"/><path class="cls-4" d="M319.13,301.33c-2.08-.46-3.42-4.83-3.83-6.55-1.19-4.91-1.33-12.58,1.23-17.26,2.16-3.93,6.54-7.86,11-8.92,4.29-1,8.15-1.83,12.39.91,1.89,1.23-.77,1.82-2.24,2.09-3,.57-5.35.59-8.15,2.06-4.29,2.25-7.63,4-9,8.75-1.84,6.35-1.39,12.55-1.39,19Z"/><path class="cls-5" d="M339.92,269.51a11.52,11.52,0,0,0-3.84-1.62c.13.29,0,.6-.34,1-.64.61-1.64.46-2.45.46l.1.1a15.27,15.27,0,0,0,2.9.68c.78.08,2.33.75,3.51,1C340.6,270.69,341,270.21,339.92,269.51Z"/><path class="cls-6" d="M339.26,270.08c-1.8-.93-8.46-1.26-11.48,0-4.39,1.82-9,5.35-10.57,10a35.17,35.17,0,0,0-1.41,9.36,36.71,36.71,0,0,0,.11,4.92,20.71,20.71,0,0,0,.63,4.25c.35.65.71,1.3,1.12,1.91.07.11.2.28.33.45a2.5,2.5,0,0,0,1.14.67c0-6.43-.44-12.6,1.39-18.91,1.38-4.77,4.72-6.51,9-8.75,2.8-1.48,5.14-1.49,8.15-2.06a6.06,6.06,0,0,0,2.75-1A4,4,0,0,0,339.26,270.08Z"/><path class="cls-7" d="M351.1,267.24a13.78,13.78,0,0,1-1.3-1.56c-1.2-1.68-2.77-5.11-1.26-7.06A3.36,3.36,0,0,1,352,258c.79.36.78-.71.83-1.7a2.45,2.45,0,0,0-.83-1.91c-1.72-1.54-4.71-.26-5.81.47-3,2-2.71,5.45-2.25,8.37a28.5,28.5,0,0,1,.44,4.37c0,2.32-2.25,2.62-4.33,3,.33.86,1.9,1.27,2.73,1.6a11.91,11.91,0,0,1,1.7,1c.68.41.87.2,1.63-.18a4.94,4.94,0,0,1,2.22-.66c1.39-.06,3.19,1.12,4.43.47s1.75-1.32,2.93-1.85c-.39.17-2.77-2-3.11-2.3A19.87,19.87,0,0,1,351.1,267.24Z"/><path class="cls-8" d="M355.53,270.91a17.5,17.5,0,0,1-2.93-2.27,19.87,19.87,0,0,1-1.5-1.4,13.78,13.78,0,0,1-1.3-1.56c-1.2-1.68-2.77-5.11-1.26-7.06a2,2,0,0,1,.74-.54c-2.37,0-2.25,3.12-1.93,4.69.46,2.29,2.12,4.64,1.52,7.1-.54,2.19-3.49,2.57-5.66,2.11a9.26,9.26,0,0,0,1.86,1.38,2.16,2.16,0,0,0,1.06-.38,4.94,4.94,0,0,1,2.22-.66c1.39-.06,3.19,1.12,4.43.47,1-.54,1.7-1.24,2.76-1.76A.49.49,0,0,1,355.53,270.91Z"/><path class="cls-4" d="M329.41,313.45s-4.84.34-9.43-7.89a26.5,26.5,0,0,1-3.4-12.2,39.63,39.63,0,0,1,.88-11c1.54-5.59,5.82-9.64,11.1-11.83,3-1.26,9.68-.93,11.48,0s1.65,1.94,1.65,1.94-13.71,8.82-12.58,23.57S329.41,313.45,329.41,313.45Z"/><path class="cls-5" d="M340,270.55a10.66,10.66,0,0,0-3.41-.72c.88.22,1.71.63,1.35,1.76a7.55,7.55,0,0,0,2.33,0c.35,0,.72,0,1.07,0A3.6,3.6,0,0,0,340,270.55Z"/><path class="cls-6" d="M341.69,272.49a1.4,1.4,0,0,0-.36-.94,13.91,13.91,0,0,0-6.75.83c-4.72,2.29-10.19,5.81-12.49,15.77-2.26,9.78,1.25,20.06,5.73,25a4.79,4.79,0,0,0,1.59.27s.84-2.63-.3-17.39S341.69,272.49,341.69,272.49Z"/><path class="cls-4" d="M342.82,317.46s-8.82.92-13.41-4-8-13.84-5.69-23.8,7.5-15,12.21-17.27c2.22-1.08,9.06-1.83,10.39,1.26S342.82,317.46,342.82,317.46Z"/><path class="cls-4" d="M367.13,313.45s4.83.34,9.43-7.89,3.62-16.59,2.53-23.11S371,271.8,368,270.55s-9.69-.93-11.48,0-1.65,1.94-1.65,1.94,13.71,8.82,12.57,23.57S367.13,313.45,367.13,313.45Z"/><path class="cls-6" d="M375.22,289.65c-2.29-9.95-7.49-15-12.2-17.27a13.45,13.45,0,0,0-8-.57,1.27,1.27,0,0,0-.19.68s13.71,8.82,12.57,23.57-.29,17.39-.29,17.39a6.45,6.45,0,0,0,3.32-1.05A26.85,26.85,0,0,0,375.22,289.65Z"/><path class="cls-4" d="M353.72,317.46s8.82.92,13.41-4,8-13.84,5.68-23.8-7.49-15-12.2-17.27c-2.22-1.08-9.07-1.83-10.39,1.26S353.72,317.46,353.72,317.46Z"/><path class="cls-6" d="M357.73,315.06c4.59-5.61,6.76-16.71,5.32-26.09-1.33-8.58-5.23-15-12.06-16.42-.64.33-.51.46-.77,1.09-1.34,3.09,3.5,43.82,3.5,43.82s.64.06,1.65.07A21.94,21.94,0,0,0,357.73,315.06Z"/><path class="cls-6" d="M338.27,315.06c-4.59-5.61-6.77-16.71-5.32-26.09,1.33-8.58,5.23-15,12.06-16.42.64.33.5.46.78,1.09,1.32,3.09-2,43.89-2,43.89h-3.13A21.94,21.94,0,0,1,338.27,315.06Z"/><path class="cls-4" d="M361.33,289c-1.4-9.11-5-16.15-12.71-17a1.55,1.55,0,0,0-.7,0c-7.73.82-11.31,7.86-12.72,17-1.44,9.38.73,20.48,5.32,26.09,3.37,4.11,6.15,5,7.4,5.12a2.06,2.06,0,0,0,.7,0c1.24-.16,4-1,7.39-5.12C360.61,309.45,362.78,298.35,361.33,289Z"/><path class="cls-5" d="M341,266.22c-1.4,0-3.6.4-2.93,1.42.51.77,2.11,1.16,2.89,1.5,1.43.64,2-.15,1.61-1.51A1.85,1.85,0,0,0,341,266.22Z"/><path class="cls-9" d="M358.3,270.59c0,.24,1,.44,2.31.44s2.31-.2,2.31-.44-1-.43-2.31-.43S358.3,270.35,358.3,270.59Z"/><path class="cls-9" d="M359.07,274.19c-.87-.85-4.48-2.24-5.34-1.9-1.15.56,1.78.39,4.5,3.1a12,12,0,0,1,2.13,2.57c.36.61.63,1.61,1.35,1.85C362.19,278.16,361,276.1,359.07,274.19Z"/><path class="cls-9" d="M344.94,274.92c-1.5.34-2.91,2.3-3.78,3.59a15.9,15.9,0,0,0-2.46,5.84c-.23,1.24-.68,3.59.16,4.68,1.67,2.18,6.89-9.51,7.1-11.06.13-1,.69-3-.7-3.08A.85.85,0,0,0,344.94,274.92Z"/><path class="cls-9" d="M337.66,272.44a1.94,1.94,0,0,0-.7.14,12.38,12.38,0,0,0-6.87,7.36c-.3.82-.19,1.42.74.79a9.64,9.64,0,0,0,1.59-1.73,34.61,34.61,0,0,1,3.33-3.77,10.59,10.59,0,0,1,2.78-1.65C340,273,338.74,272.39,337.66,272.44Z"/><path class="cls-9" d="M333,270.63l-.11.05c-1.53-.38-3.9.55-5.14,1.1a13.7,13.7,0,0,0-3,1.77c-1.2.78-3.23,3.58-2.61,4.72,1.06-.38,1.54-1.36,2.3-2.18a19.54,19.54,0,0,1,2.85-2.38A11.32,11.32,0,0,1,331,272C331.85,271.7,333.33,271.61,333,270.63Z"/><path class="cls-10" d="M351.66,257.62a1.45,1.45,0,0,1,.25.09c.69.31.68-.62.72-1.47a2.13,2.13,0,0,0-.72-1.65c-.28-.25-1-.65-1.3-.36s.1,1.51.23,2A6.25,6.25,0,0,0,351.66,257.62Z"/><path class="cls-11" d="M344.88,257.1a6.71,6.71,0,0,0-.56,3.91c.45.12.49-1.24.57-1.58a6.35,6.35,0,0,1,1.24-2.59c.1-.13,1.63-1.53,1.35-1.66C346.62,254.81,345.3,256.39,344.88,257.1Z"/><path class="cls-12" d="M344.16,256.61v0a.61.61,0,0,1,.07-.1Z"/><path class="cls-1" d="M258.62,331.94a7.81,7.81,0,0,1-1.47-.13,15,15,0,0,1-6.06-2.55l-2.7,0-.2-.2a22.22,22.22,0,0,1-11.28-4.28l-.29-.08-.18-.05-.31-.1-.67-.24-.75-.27-.08-.08c-2.92-1.34-6.59-4.14-9.84-10a32.66,32.66,0,0,1-2.22-4.88c-.57-.87-1-1.65-1.28-2.18l-.26-.49-.17-.53c0-.13-.08-.25-.12-.39a27.57,27.57,0,0,1-1.26-3.92c-1.55-6.38-1.58-15.61,1.84-21.84,3.25-5.92,9.19-10.66,15.12-12.07a32,32,0,0,1,7.61-1.13h.25a14.39,14.39,0,0,1,3.39-1.36,12.17,12.17,0,0,1,5.38-10.36,13.88,13.88,0,0,1,7.25-2.27,9.38,9.38,0,0,1,6.37,2.36,8.88,8.88,0,0,1,2.95,7v.16a11.29,11.29,0,0,1-.53,3c.72-.05,1.39-.06,1.94-.06s1.08,0,1.58,0a19.09,19.09,0,0,1,10.47,3.09,10.56,10.56,0,0,1,1.1.87,26.81,26.81,0,0,1,11.66,10.63c3.6,6.28,3.57,15.58,1.95,22a23.72,23.72,0,0,1-2.81,6.75,32.67,32.67,0,0,1-2.45,5.57,24.38,24.38,0,0,1-7.71,8.79l0,0-.87.52-.08,0a14.7,14.7,0,0,1-3.42,1.4,22.3,22.3,0,0,1-11.88,4.35l-.13.13h-2.19a14.79,14.79,0,0,1-6.09,2.55,7.43,7.43,0,0,1-1.42.13Z"/><path class="cls-2" d="M253.28,326.61a7.77,7.77,0,0,1-1.46-.14,14.74,14.74,0,0,1-6.06-2.54h-2.7l-.2-.2a22.13,22.13,0,0,1-11.28-4.28l-.3-.08-.18,0-.3-.11-.67-.23-.75-.27-.09-.09c-2.92-1.33-6.58-4.13-9.84-10a34.18,34.18,0,0,1-2.22-4.87c-.56-.87-1-1.65-1.27-2.19l-.26-.49-.18-.53c0-.12-.08-.25-.11-.38a29.32,29.32,0,0,1-1.27-3.92c-1.54-6.38-1.57-15.61,1.85-21.85,3.25-5.92,9.18-10.66,15.12-12.07a32.52,32.52,0,0,1,7.6-1.12H239a14.88,14.88,0,0,1,3.39-1.37,12.19,12.19,0,0,1,5.37-10.36,13.9,13.9,0,0,1,7.26-2.26,9.36,9.36,0,0,1,6.37,2.36,8.9,8.9,0,0,1,2.95,7v.16a10.61,10.61,0,0,1-.53,3c.73,0,1.4-.06,2-.06l1.57,0a19.19,19.19,0,0,1,10.48,3.1,10.3,10.3,0,0,1,1.1.87,26.81,26.81,0,0,1,11.66,10.63c3.59,6.28,3.57,15.58,1.94,22a23.25,23.25,0,0,1-2.8,6.75,32.77,32.77,0,0,1-2.45,5.58,24.55,24.55,0,0,1-7.71,8.79l0,0-.87.52-.09.05a14.92,14.92,0,0,1-3.41,1.4,22.28,22.28,0,0,1-11.88,4.34l-.14.14H260.9a14.85,14.85,0,0,1-6.09,2.55,7.43,7.43,0,0,1-1.42.13Z"/><path class="cls-3" d="M263.37,267.85a5.64,5.64,0,0,0-4.81-2.17c-2.71,0-4.94,1.27-4.84,3.26.07,1.4,1.39,3.59,3.69,2.91,2.15-.64,4.92-2.37,5.65-3.88,0,0,.17-.25.16-.21Z"/><path class="cls-3" d="M240.51,268.24c1.1-1.66,3.52-2.37,5.61-2.53,2.54-.21,3.48,1,3.51,3.06,0,1.45-1.07,3.81-3.27,3.24s-4.78-2.15-5.55-3.67a1.5,1.5,0,0,0-.16-.2Z"/><path class="cls-3" d="M274.18,268.14a12.93,12.93,0,0,0-7.05-2c-3.16-.08-7.69-.17-8.35,3.77-.21,1.31.58,1.87,1.81,2.24a17.31,17.31,0,0,0,4.61.17c1.84,0,3.68,0,5.52,0,1.19,0,5.26-.7,5.11-2.32l.18.09A11,11,0,0,0,274.18,268.14Z"/><path class="cls-3" d="M282.27,301.33c2.17-.46,3.56-4.83,4-6.55,1.24-4.91,1.38-12.58-1.29-17.26-2.26-3.93-6.82-7.86-11.48-8.92-4.48-1-8.51-1.83-12.93.91-2,1.23.8,1.82,2.33,2.09,3.15.57,5.59.59,8.52,2.06,4.48,2.25,8,4,9.4,8.75,1.92,6.35,1.45,12.55,1.45,19Z"/><path class="cls-4" d="M224.2,301.33c-2.09-.46-3.42-4.83-3.83-6.55-1.2-4.91-1.33-12.58,1.23-17.26,2.16-3.93,6.54-7.86,11-8.92,4.3-1,8.16-1.83,12.4.91,1.88,1.23-.78,1.82-2.24,2.09-3,.57-5.36.59-8.16,2.06-4.28,2.25-7.63,4-9,8.75-1.84,6.35-1.39,12.55-1.39,19Z"/><path class="cls-5" d="M245,269.51a11.48,11.48,0,0,0-3.85-1.62c.13.29,0,.6-.34,1-.63.61-1.63.46-2.44.46l.1.1a15.17,15.17,0,0,0,2.89.68c.79.08,2.33.75,3.51,1C245.67,270.69,246.05,270.21,245,269.51Z"/><path class="cls-6" d="M244.33,270.08c-1.8-.93-8.46-1.26-11.48,0-4.39,1.82-9,5.35-10.57,10a34.38,34.38,0,0,0-1.41,9.36,35.12,35.12,0,0,0,.11,4.92,20.68,20.68,0,0,0,.62,4.25c.35.65.72,1.3,1.13,1.91.07.11.2.28.33.45a2.5,2.5,0,0,0,1.14.67c0-6.43-.44-12.6,1.39-18.91,1.37-4.77,4.72-6.51,9-8.75,2.8-1.48,5.14-1.49,8.16-2.06a6.11,6.11,0,0,0,2.75-1A4.15,4.15,0,0,0,244.33,270.08Z"/><path class="cls-7" d="M256.16,267.24a14.83,14.83,0,0,1-1.29-1.56c-1.2-1.68-2.77-5.11-1.26-7.06a3.34,3.34,0,0,1,3.47-.63c.8.36.79-.71.84-1.7a2.5,2.5,0,0,0-.84-1.91c-1.72-1.54-4.7-.26-5.8.47-3,2-2.72,5.45-2.26,8.37a27.31,27.31,0,0,1,.45,4.37c0,2.32-2.25,2.62-4.34,3,.33.86,1.91,1.27,2.74,1.6a12.49,12.49,0,0,1,1.7,1c.68.41.87.2,1.62-.18a5,5,0,0,1,2.23-.66c1.39-.06,3.18,1.12,4.42.47s1.76-1.32,2.93-1.85c-.38.17-2.77-2-3.11-2.3C257.15,268.2,256.64,267.73,256.16,267.24Z"/><path class="cls-8" d="M260.6,270.91a17.6,17.6,0,0,1-2.94-2.27c-.51-.44-1-.91-1.5-1.4a14.83,14.83,0,0,1-1.29-1.56c-1.2-1.68-2.77-5.11-1.26-7.06a1.9,1.9,0,0,1,.74-.54c-2.37,0-2.26,3.12-1.94,4.69.47,2.29,2.12,4.64,1.52,7.1-.53,2.19-3.48,2.57-5.65,2.11a9.26,9.26,0,0,0,1.86,1.38,2.16,2.16,0,0,0,1.05-.38,5,5,0,0,1,2.23-.66c1.39-.06,3.18,1.12,4.42.47,1-.54,1.7-1.24,2.76-1.76Z"/><path class="cls-4" d="M234.47,313.45s-4.83.34-9.43-7.89a26.61,26.61,0,0,1-3.39-12.2,39.63,39.63,0,0,1,.87-11c1.54-5.59,5.83-9.64,11.1-11.83,3-1.26,9.69-.93,11.48,0s1.66,1.94,1.66,1.94-13.72,8.82-12.58,23.57S234.47,313.45,234.47,313.45Z"/><path class="cls-5" d="M245.1,270.55a10.52,10.52,0,0,0-3.4-.72c.87.22,1.71.63,1.34,1.76a7.55,7.55,0,0,0,2.33,0c.36,0,.72,0,1.08,0A3.56,3.56,0,0,0,245.1,270.55Z"/><path class="cls-6" d="M246.76,272.49a1.4,1.4,0,0,0-.36-.94,14,14,0,0,0-6.76.83c-4.71,2.29-10.19,5.81-12.48,15.77-2.26,9.78,1.25,20.06,5.72,25a4.79,4.79,0,0,0,1.59.27s.85-2.63-.29-17.39S246.76,272.49,246.76,272.49Z"/><path class="cls-4" d="M247.88,317.46s-8.82.92-13.41-4-8-13.84-5.68-23.8,7.49-15,12.21-17.27c2.21-1.08,9.06-1.83,10.39,1.26S247.88,317.46,247.88,317.46Z"/><path class="cls-4" d="M272.19,313.45s4.84.34,9.44-7.89,3.62-16.59,2.53-23.11-8.09-10.65-11.11-11.9-9.69-.93-11.48,0-1.66,1.94-1.66,1.94,13.71,8.82,12.58,23.57S272.19,313.45,272.19,313.45Z"/><path class="cls-6" d="M280.29,289.65c-2.3-9.95-7.49-15-12.2-17.27a13.48,13.48,0,0,0-8-.57,1.27,1.27,0,0,0-.19.68s13.71,8.82,12.58,23.57-.3,17.39-.3,17.39a6.47,6.47,0,0,0,3.33-1.05A26.88,26.88,0,0,0,280.29,289.65Z"/><path class="cls-4" d="M258.78,317.46s8.82.92,13.41-4,8-13.84,5.69-23.8-7.5-15-12.21-17.27c-2.22-1.08-9.06-1.83-10.39,1.26S258.78,317.46,258.78,317.46Z"/><path class="cls-6" d="M262.8,315.06c4.59-5.61,6.76-16.71,5.31-26.09-1.32-8.58-5.22-15-12.05-16.42-.65.33-.51.46-.78,1.09-1.33,3.09,3.5,43.82,3.5,43.82s.65.06,1.66.07A21.94,21.94,0,0,0,262.8,315.06Z"/><path class="cls-6" d="M243.34,315.06c-4.6-5.61-6.77-16.71-5.32-26.09,1.32-8.58,5.23-15,12.06-16.42.64.33.5.46.77,1.09,1.33,3.09-2,43.89-2,43.89h-3.14A21.08,21.08,0,0,1,243.34,315.06Z"/><path class="cls-4" d="M266.4,289c-1.41-9.11-5-16.15-12.71-17a1.78,1.78,0,0,0-.36,0,1.65,1.65,0,0,0-.35,0c-7.72.82-11.3,7.86-12.71,17-1.45,9.38.73,20.48,5.32,26.09,3.37,4.11,6.15,5,7.39,5.12a1.07,1.07,0,0,0,.35,0,1.17,1.17,0,0,0,.36,0c1.24-.16,4-1,7.39-5.12C265.67,309.45,267.85,298.35,266.4,289Z"/><path class="cls-5" d="M246.06,266.22c-1.4,0-3.59.4-2.92,1.42.5.77,2.11,1.16,2.89,1.5,1.43.64,2-.15,1.61-1.51A1.87,1.87,0,0,0,246.06,266.22Z"/><path class="cls-9" d="M263.37,270.59c0,.24,1,.44,2.3.44s2.32-.2,2.32-.44-1-.43-2.32-.43S263.37,270.35,263.37,270.59Z"/><path class="cls-9" d="M264.14,274.19c-.88-.85-4.49-2.24-5.34-1.9-1.15.56,1.78.39,4.5,3.1a12.25,12.25,0,0,1,2.12,2.57c.36.61.64,1.61,1.35,1.85C267.25,278.16,266.1,276.1,264.14,274.19Z"/><path class="cls-9" d="M250,274.92c-1.49.34-2.91,2.3-3.78,3.59a15.72,15.72,0,0,0-2.45,5.84c-.23,1.24-.69,3.59.15,4.68,1.68,2.18,6.89-9.51,7.1-11.06.13-1,.7-3-.7-3.08A.89.89,0,0,0,250,274.92Z"/><path class="cls-9" d="M242.73,272.44a1.9,1.9,0,0,0-.7.14,12.43,12.43,0,0,0-6.88,7.36c-.29.82-.19,1.42.75.79a10,10,0,0,0,1.59-1.73,33.59,33.59,0,0,1,3.33-3.77,10.43,10.43,0,0,1,2.78-1.65C245.08,273,243.8,272.39,242.73,272.44Z"/><path class="cls-9" d="M238.07,270.63l-.11.05c-1.53-.38-3.89.55-5.13,1.1a13.7,13.7,0,0,0-3,1.77c-1.21.78-3.23,3.58-2.61,4.72,1.06-.38,1.54-1.36,2.3-2.18a19,19,0,0,1,2.85-2.38A11.27,11.27,0,0,1,236,272C236.91,271.7,238.4,271.61,238.07,270.63Z"/><path class="cls-10" d="M256.73,257.62a1.84,1.84,0,0,1,.25.09c.68.31.68-.62.72-1.47a2.13,2.13,0,0,0-.72-1.65c-.28-.25-1-.65-1.31-.36s.1,1.51.23,2A6.82,6.82,0,0,0,256.73,257.62Z"/><path class="cls-11" d="M250,257.1a6.8,6.8,0,0,0-.57,3.91c.45.12.5-1.24.57-1.58a6.62,6.62,0,0,1,1.24-2.59c.11-.13,1.64-1.53,1.35-1.66C251.69,254.81,250.37,256.39,250,257.1Z"/><path class="cls-12" d="M249.22,256.61v0l.08-.1Z"/><path class="cls-1" d="M162.62,331.94a7.81,7.81,0,0,1-1.47-.13,15,15,0,0,1-6.06-2.55l-2.7,0-.2-.2a22.22,22.22,0,0,1-11.28-4.28l-.29-.08-.18-.05-.31-.1-.67-.24-.75-.27-.08-.08c-2.92-1.34-6.59-4.14-9.84-10a32.66,32.66,0,0,1-2.22-4.88c-.57-.87-1-1.65-1.28-2.18l-.26-.49-.17-.53-.12-.39a27.57,27.57,0,0,1-1.26-3.92c-1.55-6.38-1.58-15.61,1.84-21.84,3.25-5.92,9.19-10.66,15.12-12.07a32,32,0,0,1,7.61-1.13h.25a14.39,14.39,0,0,1,3.39-1.36,12.17,12.17,0,0,1,5.38-10.36,13.88,13.88,0,0,1,7.25-2.27,9.38,9.38,0,0,1,6.37,2.36,8.88,8.88,0,0,1,2.95,7v.16a11.29,11.29,0,0,1-.53,3c.72-.05,1.39-.06,1.94-.06s1.08,0,1.58,0a19.09,19.09,0,0,1,10.47,3.09,10.56,10.56,0,0,1,1.1.87,26.81,26.81,0,0,1,11.66,10.63c3.6,6.28,3.57,15.58,1.95,22a23.72,23.72,0,0,1-2.81,6.75,32.67,32.67,0,0,1-2.45,5.57,24.38,24.38,0,0,1-7.71,8.79l0,0-.87.52-.08,0a14.7,14.7,0,0,1-3.42,1.4,22.3,22.3,0,0,1-11.88,4.35l-.13.13h-2.19a14.79,14.79,0,0,1-6.09,2.55,7.43,7.43,0,0,1-1.42.13Z"/><path class="cls-2" d="M157.28,326.61a7.77,7.77,0,0,1-1.46-.14,14.74,14.74,0,0,1-6.06-2.54h-2.7l-.2-.2a22.13,22.13,0,0,1-11.28-4.28l-.3-.08-.18,0-.3-.11-.67-.23-.75-.27-.09-.09c-2.92-1.33-6.58-4.13-9.84-10a34.18,34.18,0,0,1-2.22-4.87c-.56-.87-1-1.65-1.27-2.19l-.26-.49-.18-.53c0-.12-.08-.25-.11-.38a29.32,29.32,0,0,1-1.27-3.92c-1.54-6.38-1.57-15.61,1.85-21.85,3.25-5.92,9.18-10.66,15.12-12.07a32.52,32.52,0,0,1,7.6-1.12H143a14.88,14.88,0,0,1,3.39-1.37,12.19,12.19,0,0,1,5.37-10.36,13.9,13.9,0,0,1,7.26-2.26,9.36,9.36,0,0,1,6.37,2.36,8.9,8.9,0,0,1,2.95,7v.16a10.61,10.61,0,0,1-.53,3c.73,0,1.4-.06,1.95-.06l1.57,0a19.19,19.19,0,0,1,10.48,3.1,10.3,10.3,0,0,1,1.1.87,26.81,26.81,0,0,1,11.66,10.63c3.59,6.28,3.57,15.58,1.94,22a23.25,23.25,0,0,1-2.8,6.75,32.77,32.77,0,0,1-2.45,5.58,24.55,24.55,0,0,1-7.71,8.79l0,0-.87.52-.09.05a14.92,14.92,0,0,1-3.41,1.4,22.28,22.28,0,0,1-11.88,4.34l-.14.14H164.9a14.85,14.85,0,0,1-6.09,2.55,7.43,7.43,0,0,1-1.42.13Z"/><path class="cls-3" d="M167.37,267.85a5.64,5.64,0,0,0-4.81-2.17c-2.71,0-4.94,1.27-4.84,3.26.07,1.4,1.39,3.59,3.69,2.91s4.92-2.37,5.65-3.88c0,0,.17-.25.16-.21Z"/><path class="cls-3" d="M144.51,268.24c1.1-1.66,3.52-2.37,5.61-2.53,2.54-.21,3.48,1,3.51,3.06,0,1.45-1.07,3.81-3.27,3.24s-4.78-2.15-5.55-3.67a1.5,1.5,0,0,0-.16-.2Z"/><path class="cls-3" d="M178.18,268.14a12.93,12.93,0,0,0-7.05-2c-3.16-.08-7.69-.17-8.35,3.77-.21,1.31.58,1.87,1.81,2.24a17.31,17.31,0,0,0,4.61.17c1.84,0,3.68,0,5.52,0,1.19,0,5.26-.7,5.11-2.32l.18.09A11,11,0,0,0,178.18,268.14Z"/><path class="cls-3" d="M186.27,301.33c2.17-.46,3.56-4.83,4-6.55,1.24-4.91,1.38-12.58-1.29-17.26-2.26-3.93-6.82-7.86-11.48-8.92-4.48-1-8.51-1.83-12.93.91-2,1.23.8,1.82,2.33,2.09,3.15.57,5.59.59,8.52,2.06,4.48,2.25,8,4,9.4,8.75,1.92,6.35,1.45,12.55,1.45,19Z"/><path class="cls-4" d="M128.2,301.33c-2.09-.46-3.42-4.83-3.83-6.55-1.2-4.91-1.33-12.58,1.23-17.26,2.16-3.93,6.54-7.86,11-8.92,4.3-1,8.16-1.83,12.4.91,1.88,1.23-.78,1.82-2.24,2.09-3,.57-5.36.59-8.16,2.06-4.28,2.25-7.63,4-9,8.75-1.84,6.35-1.39,12.55-1.39,19Z"/><path class="cls-5" d="M149,269.51a11.48,11.48,0,0,0-3.85-1.62c.13.29,0,.6-.34,1-.63.61-1.63.46-2.44.46l.1.1a15.17,15.17,0,0,0,2.89.68c.79.08,2.33.75,3.51,1C149.67,270.69,150.05,270.21,149,269.51Z"/><path class="cls-6" d="M148.33,270.08c-1.8-.93-8.46-1.26-11.48,0-4.39,1.82-9,5.35-10.57,10a34.38,34.38,0,0,0-1.41,9.36,35.12,35.12,0,0,0,.11,4.92,20.68,20.68,0,0,0,.62,4.25c.35.65.72,1.3,1.13,1.91.07.11.2.28.33.45a2.5,2.5,0,0,0,1.14.67c0-6.43-.44-12.6,1.39-18.91,1.37-4.77,4.72-6.51,9-8.75,2.8-1.48,5.14-1.49,8.16-2.06a6.11,6.11,0,0,0,2.75-1A4.15,4.15,0,0,0,148.33,270.08Z"/><path class="cls-7" d="M160.16,267.24a14.83,14.83,0,0,1-1.29-1.56c-1.2-1.68-2.77-5.11-1.26-7.06a3.34,3.34,0,0,1,3.47-.63c.8.36.79-.71.84-1.7a2.5,2.5,0,0,0-.84-1.91c-1.72-1.54-4.7-.26-5.8.47-3,2-2.72,5.45-2.26,8.37a27.31,27.31,0,0,1,.45,4.37c0,2.32-2.25,2.62-4.34,3,.33.86,1.91,1.27,2.74,1.6a12.49,12.49,0,0,1,1.7,1c.68.41.87.2,1.62-.18a5,5,0,0,1,2.23-.66c1.39-.06,3.18,1.12,4.42.47s1.76-1.32,2.93-1.85c-.38.17-2.77-2-3.11-2.3C161.15,268.2,160.64,267.73,160.16,267.24Z"/><path class="cls-8" d="M164.6,270.91a17.6,17.6,0,0,1-2.94-2.27c-.51-.44-1-.91-1.5-1.4a14.83,14.83,0,0,1-1.29-1.56c-1.2-1.68-2.77-5.11-1.26-7.06a1.9,1.9,0,0,1,.74-.54c-2.37,0-2.26,3.12-1.94,4.69.47,2.29,2.12,4.64,1.52,7.1-.53,2.19-3.48,2.57-5.65,2.11a9.26,9.26,0,0,0,1.86,1.38,2.16,2.16,0,0,0,1.05-.38,5,5,0,0,1,2.23-.66c1.39-.06,3.18,1.12,4.42.47,1-.54,1.7-1.24,2.76-1.76Z"/><path class="cls-4" d="M138.47,313.45s-4.83.34-9.43-7.89a26.61,26.61,0,0,1-3.39-12.2,39.63,39.63,0,0,1,.87-11c1.54-5.59,5.83-9.64,11.1-11.83,3-1.26,9.69-.93,11.48,0s1.66,1.94,1.66,1.94-13.72,8.82-12.58,23.57S138.47,313.45,138.47,313.45Z"/><path class="cls-5" d="M149.1,270.55a10.52,10.52,0,0,0-3.4-.72c.87.22,1.71.63,1.34,1.76a7.55,7.55,0,0,0,2.33,0c.36,0,.72,0,1.08,0A3.56,3.56,0,0,0,149.1,270.55Z"/><path class="cls-6" d="M150.76,272.49a1.4,1.4,0,0,0-.36-.94,14,14,0,0,0-6.76.83c-4.71,2.29-10.19,5.81-12.48,15.77-2.26,9.78,1.25,20.06,5.72,25a4.79,4.79,0,0,0,1.59.27s.85-2.63-.29-17.39S150.76,272.49,150.76,272.49Z"/><path class="cls-4" d="M151.88,317.46s-8.82.92-13.41-4-8-13.84-5.68-23.8,7.49-15,12.21-17.27c2.21-1.08,9.06-1.83,10.39,1.26S151.88,317.46,151.88,317.46Z"/><path class="cls-4" d="M176.19,313.45s4.84.34,9.44-7.89,3.62-16.59,2.53-23.11-8.09-10.65-11.11-11.9-9.69-.93-11.48,0-1.66,1.94-1.66,1.94,13.71,8.82,12.58,23.57S176.19,313.45,176.19,313.45Z"/><path class="cls-6" d="M184.29,289.65c-2.3-9.95-7.49-15-12.2-17.27a13.48,13.48,0,0,0-8-.57,1.27,1.27,0,0,0-.19.68s13.71,8.82,12.58,23.57-.3,17.39-.3,17.39a6.47,6.47,0,0,0,3.33-1.05A26.88,26.88,0,0,0,184.29,289.65Z"/><path class="cls-4" d="M162.78,317.46s8.82.92,13.41-4,8-13.84,5.69-23.8-7.5-15-12.21-17.27c-2.22-1.08-9.06-1.83-10.39,1.26S162.78,317.46,162.78,317.46Z"/><path class="cls-6" d="M166.8,315.06c4.59-5.61,6.76-16.71,5.31-26.09-1.32-8.58-5.22-15-12.05-16.42-.65.33-.51.46-.78,1.09-1.33,3.09,3.5,43.82,3.5,43.82s.65.06,1.66.07A21.94,21.94,0,0,0,166.8,315.06Z"/><path class="cls-6" d="M147.34,315.06c-4.6-5.61-6.77-16.71-5.32-26.09,1.32-8.58,5.23-15,12.06-16.42.64.33.5.46.77,1.09,1.33,3.09-2,43.89-2,43.89h-3.14A21.08,21.08,0,0,1,147.34,315.06Z"/><path class="cls-4" d="M170.4,289c-1.41-9.11-5-16.15-12.71-17a1.78,1.78,0,0,0-.36,0,1.65,1.65,0,0,0-.35,0c-7.72.82-11.3,7.86-12.71,17-1.45,9.38.73,20.48,5.32,26.09,3.37,4.11,6.15,5,7.39,5.12a1.07,1.07,0,0,0,.35,0,1.17,1.17,0,0,0,.36,0c1.24-.16,4-1,7.39-5.12C169.67,309.45,171.85,298.35,170.4,289Z"/><path class="cls-5" d="M150.06,266.22c-1.4,0-3.59.4-2.92,1.42.5.77,2.11,1.16,2.89,1.5,1.43.64,2-.15,1.61-1.51A1.87,1.87,0,0,0,150.06,266.22Z"/><path class="cls-9" d="M167.37,270.59c0,.24,1,.44,2.3.44s2.32-.2,2.32-.44-1-.43-2.32-.43S167.37,270.35,167.37,270.59Z"/><path class="cls-9" d="M168.14,274.19c-.88-.85-4.49-2.24-5.34-1.9-1.15.56,1.78.39,4.5,3.1a12.25,12.25,0,0,1,2.12,2.57c.36.61.64,1.61,1.35,1.85C171.25,278.16,170.1,276.1,168.14,274.19Z"/><path class="cls-9" d="M154,274.92c-1.49.34-2.91,2.3-3.78,3.59a15.72,15.72,0,0,0-2.45,5.84c-.23,1.24-.69,3.59.15,4.68,1.68,2.18,6.89-9.51,7.1-11.06.13-1,.7-3-.7-3.08A.89.89,0,0,0,154,274.92Z"/><path class="cls-9" d="M146.73,272.44a1.9,1.9,0,0,0-.7.14,12.43,12.43,0,0,0-6.88,7.36c-.29.82-.19,1.42.75.79a10,10,0,0,0,1.59-1.73,33.59,33.59,0,0,1,3.33-3.77,10.43,10.43,0,0,1,2.78-1.65C149.08,273,147.8,272.39,146.73,272.44Z"/><path class="cls-9" d="M142.07,270.63l-.11.05c-1.53-.38-3.89.55-5.13,1.1a13.7,13.7,0,0,0-3,1.77c-1.21.78-3.23,3.58-2.61,4.72,1.06-.38,1.54-1.36,2.3-2.18a19,19,0,0,1,2.85-2.38A11.27,11.27,0,0,1,140,272C140.91,271.7,142.4,271.61,142.07,270.63Z"/><path class="cls-10" d="M160.73,257.62a1.84,1.84,0,0,1,.25.09c.68.31.68-.62.72-1.47a2.13,2.13,0,0,0-.72-1.65c-.28-.25-.95-.65-1.31-.36s.1,1.51.23,2A6.82,6.82,0,0,0,160.73,257.62Z"/><path class="cls-11" d="M154,257.1a6.8,6.8,0,0,0-.57,3.91c.45.12.5-1.24.57-1.58a6.62,6.62,0,0,1,1.24-2.59c.11-.13,1.64-1.53,1.35-1.66C155.69,254.81,154.37,256.39,154,257.1Z"/><path class="cls-12" d="M153.22,256.61v0l.08-.1Z"/><path class="cls-1" d="M301.28,264.74a7.77,7.77,0,0,1-1.46-.13,14.93,14.93,0,0,1-6.06-2.55l-2.7,0-.2-.2a22.22,22.22,0,0,1-11.28-4.28l-.3-.08-.18,0-.3-.1-.67-.24-.75-.27-.09-.08c-2.92-1.34-6.58-4.14-9.84-10a34.81,34.81,0,0,1-2.22-4.88c-.56-.87-1-1.65-1.27-2.18l-.26-.49-.18-.53c0-.13-.08-.25-.11-.39a29.32,29.32,0,0,1-1.27-3.92c-1.54-6.38-1.57-15.61,1.85-21.84,3.25-5.92,9.18-10.66,15.12-12.07a32,32,0,0,1,7.6-1.13H287a14.39,14.39,0,0,1,3.39-1.36,12.19,12.19,0,0,1,5.37-10.36,13.89,13.89,0,0,1,7.26-2.27,9.41,9.41,0,0,1,6.37,2.36,8.91,8.91,0,0,1,2.95,7v.16a10.54,10.54,0,0,1-.53,3c.73,0,1.4-.06,2-.06s1.07,0,1.57,0A19.1,19.1,0,0,1,325.77,201a11.74,11.74,0,0,1,1.1.87,26.87,26.87,0,0,1,11.66,10.63c3.59,6.28,3.57,15.58,1.94,22a23.37,23.37,0,0,1-2.8,6.75,32.67,32.67,0,0,1-2.45,5.57,24.38,24.38,0,0,1-7.71,8.79l0,0-.87.52-.09,0a14.48,14.48,0,0,1-3.41,1.4,22.3,22.3,0,0,1-11.88,4.35l-.14.13H308.9a14.85,14.85,0,0,1-6.09,2.55,7.43,7.43,0,0,1-1.42.13Z"/><path class="cls-2" d="M296,259.41a7.77,7.77,0,0,1-1.46-.14,14.74,14.74,0,0,1-6.06-2.54h-2.71l-.2-.2a22.16,22.16,0,0,1-11.28-4.28l-.29-.08-.18,0-.31-.11-.66-.23-.76-.27-.08-.09c-2.92-1.33-6.59-4.13-9.84-10a33.1,33.1,0,0,1-2.22-4.87c-.56-.87-1-1.65-1.28-2.19l-.26-.49-.17-.53c0-.12-.08-.25-.11-.38a27.9,27.9,0,0,1-1.27-3.92c-1.54-6.38-1.57-15.61,1.84-21.85,3.25-5.92,9.19-10.66,15.13-12.07a32.44,32.44,0,0,1,7.6-1.12h.26a14.64,14.64,0,0,1,3.38-1.37,12.17,12.17,0,0,1,5.38-10.35,13.79,13.79,0,0,1,7.26-2.27,9.32,9.32,0,0,1,6.36,2.36,8.87,8.87,0,0,1,3,7v.16a10.61,10.61,0,0,1-.53,3c.73-.05,1.39-.06,1.95-.06l1.57,0a19.21,19.21,0,0,1,10.48,3.1,10.3,10.3,0,0,1,1.1.87,26.8,26.8,0,0,1,11.66,10.63c3.59,6.28,3.56,15.58,1.94,22a23.54,23.54,0,0,1-2.8,6.75,32.81,32.81,0,0,1-2.46,5.58,24.37,24.37,0,0,1-7.71,8.79l0,0-.87.52-.09.05a15.16,15.16,0,0,1-3.42,1.4,22.26,22.26,0,0,1-11.88,4.34l-.13.14h-2.18a14.83,14.83,0,0,1-6.1,2.55,7.43,7.43,0,0,1-1.42.13Z"/><path class="cls-3" d="M306,200.65a5.62,5.62,0,0,0-4.81-2.17c-2.7,0-4.93,1.27-4.83,3.26.07,1.4,1.39,3.59,3.68,2.91s4.93-2.37,5.66-3.88c0,0,.16-.25.16-.21Z"/><path class="cls-3" d="M283.18,201c1.1-1.66,3.52-2.37,5.61-2.53,2.53-.21,3.48,1,3.51,3.06,0,1.45-1.07,3.81-3.27,3.24s-4.78-2.15-5.56-3.67c0,0-.17-.24-.16-.2Z"/><path class="cls-3" d="M316.84,200.94a12.91,12.91,0,0,0-7-2c-3.15-.08-7.68-.17-8.34,3.77-.21,1.31.58,1.87,1.81,2.24a17.3,17.3,0,0,0,4.61.17c1.84,0,3.68,0,5.52,0,1.19,0,5.25-.7,5.1-2.32l.19.09A10.69,10.69,0,0,0,316.84,200.94Z"/><path class="cls-3" d="M324.93,234.13c2.18-.46,3.57-4.83,4-6.55,1.23-4.91,1.38-12.58-1.3-17.26-2.25-3.93-6.82-7.86-11.47-8.92-4.48-1-8.52-1.83-12.93.91-2,1.23.8,1.82,2.33,2.09,3.15.57,5.59.59,8.52,2.06,4.47,2.25,8,4,9.4,8.75,1.92,6.35,1.44,12.55,1.44,19Z"/><path class="cls-4" d="M266.86,234.13c-2.08-.46-3.41-4.83-3.83-6.55-1.19-4.91-1.33-12.58,1.24-17.26,2.15-3.93,6.53-7.86,11-8.92,4.29-1,8.16-1.83,12.39.91,1.89,1.23-.77,1.82-2.24,2.09-3,.57-5.35.59-8.15,2.06-4.29,2.25-7.63,4-9,8.75-1.84,6.35-1.39,12.55-1.39,19Z"/><path class="cls-5" d="M287.65,202.31a11.52,11.52,0,0,0-3.84-1.62c.13.29,0,.6-.34,1-.63.61-1.63.46-2.44.46l.1.1a15,15,0,0,0,2.89.68c.78.08,2.33.75,3.51,1C288.33,203.49,288.72,203,287.65,202.31Z"/><path class="cls-6" d="M287,202.88c-1.79-.93-8.46-1.26-11.48,0-4.38,1.82-9,5.35-10.56,10a34.38,34.38,0,0,0-1.41,9.36,35.12,35.12,0,0,0,.11,4.92,20,20,0,0,0,.62,4.25c.35.65.72,1.3,1.13,1.91.07.11.2.28.33.45a2.47,2.47,0,0,0,1.13.67c0-6.43-.44-12.6,1.39-18.91,1.38-4.77,4.72-6.51,9-8.75,2.8-1.48,5.14-1.49,8.15-2.06a6.06,6.06,0,0,0,2.75-1A3.87,3.87,0,0,0,287,202.88Z"/><path class="cls-7" d="M298.83,200a14.93,14.93,0,0,1-1.3-1.56c-1.2-1.68-2.76-5.11-1.26-7.06a3.36,3.36,0,0,1,3.48-.63c.79.36.79-.71.84-1.7a2.5,2.5,0,0,0-.84-1.91c-1.72-1.54-4.7-.26-5.8.47-3,2-2.72,5.45-2.26,8.37a27.31,27.31,0,0,1,.44,4.37c0,2.32-2.25,2.62-4.33,3,.33.86,1.91,1.27,2.74,1.6a13.13,13.13,0,0,1,1.7,1c.67.41.87.2,1.62-.18a4.94,4.94,0,0,1,2.22-.66c1.4-.06,3.19,1.12,4.43.47s1.76-1.32,2.93-1.85c-.38.17-2.77-2-3.11-2.3A19.87,19.87,0,0,1,298.83,200Z"/><path class="cls-8" d="M303.27,203.71a17.2,17.2,0,0,1-2.94-2.27,19.87,19.87,0,0,1-1.5-1.4,14.93,14.93,0,0,1-1.3-1.56c-1.2-1.68-2.76-5.11-1.26-7.06a1.94,1.94,0,0,1,.75-.54c-2.37,0-2.26,3.12-1.94,4.69.47,2.29,2.12,4.64,1.52,7.1-.54,2.19-3.49,2.57-5.66,2.11a9.33,9.33,0,0,0,1.87,1.38,2.16,2.16,0,0,0,1.05-.38,4.94,4.94,0,0,1,2.22-.66c1.4-.06,3.19,1.12,4.43.47,1-.54,1.7-1.24,2.76-1.76Z"/><path class="cls-4" d="M277.14,246.25s-4.84.34-9.43-7.89a26.61,26.61,0,0,1-3.39-12.2,39.25,39.25,0,0,1,.87-11c1.54-5.59,5.83-9.64,11.1-11.83,3-1.26,9.68-.93,11.48,0s1.65,1.94,1.65,1.94-13.71,8.82-12.57,23.57S277.14,246.25,277.14,246.25Z"/><path class="cls-5" d="M287.77,203.35a10.59,10.59,0,0,0-3.4-.72c.87.22,1.71.63,1.34,1.76a7.55,7.55,0,0,0,2.33,0c.36,0,.72,0,1.08,0A3.56,3.56,0,0,0,287.77,203.35Z"/><path class="cls-6" d="M289.42,205.29a1.4,1.4,0,0,0-.36-.94,13.91,13.91,0,0,0-6.75.83c-4.71,2.29-10.19,5.81-12.48,15.77-2.26,9.78,1.25,20.06,5.72,25a4.79,4.79,0,0,0,1.59.27s.84-2.63-.29-17.39S289.42,205.29,289.42,205.29Z"/><path class="cls-4" d="M290.55,250.26s-8.82.92-13.41-4-8-13.84-5.68-23.8,7.49-15,12.2-17.27c2.22-1.08,9.07-1.83,10.39,1.26S290.55,250.26,290.55,250.26Z"/><path class="cls-4" d="M314.86,246.25s4.84.34,9.43-7.89,3.62-16.59,2.53-23.11-8.08-10.65-11.11-11.9-9.68-.93-11.48,0-1.65,1.94-1.65,1.94,13.71,8.82,12.57,23.57S314.86,246.25,314.86,246.25Z"/><path class="cls-6" d="M323,222.45c-2.3-9.95-7.49-15-12.21-17.27a13.44,13.44,0,0,0-8-.57,1.27,1.27,0,0,0-.19.68s13.71,8.82,12.57,23.57-.29,17.39-.29,17.39a6.47,6.47,0,0,0,3.33-1.05A26.88,26.88,0,0,0,323,222.45Z"/><path class="cls-4" d="M301.45,250.26s8.82.92,13.41-4,8-13.84,5.69-23.8-7.5-15-12.21-17.27c-2.22-1.08-9.06-1.83-10.39,1.26S301.45,250.26,301.45,250.26Z"/><path class="cls-6" d="M305.46,247.86c4.59-5.61,6.77-16.71,5.32-26.09-1.33-8.58-5.23-15-12.06-16.42-.64.33-.51.46-.77,1.09-1.33,3.09,3.5,43.82,3.5,43.82s.64.06,1.65.07A20.3,20.3,0,0,0,305.46,247.86Z"/><path class="cls-6" d="M286,247.86c-4.59-5.61-6.76-16.71-5.31-26.09,1.32-8.58,5.22-15,12.05-16.42.64.33.51.46.78,1.09,1.33,3.09-2,43.89-2,43.89s-2.12,0-3.13,0A21.94,21.94,0,0,1,286,247.86Z"/><path class="cls-4" d="M309.07,221.77c-1.41-9.11-5-16.15-12.72-17a1.55,1.55,0,0,0-.7,0c-7.72.82-11.3,7.86-12.71,17-1.45,9.38.72,20.48,5.31,26.09,3.37,4.11,6.16,5,7.4,5.12a2.06,2.06,0,0,0,.7,0c1.25-.16,4-1,7.39-5.12C308.34,242.25,310.51,231.15,309.07,221.77Z"/><path class="cls-5" d="M288.73,199c-1.4,0-3.6.4-2.92,1.42.5.77,2.1,1.16,2.89,1.5,1.43.64,2-.15,1.61-1.51A1.87,1.87,0,0,0,288.73,199Z"/><path class="cls-9" d="M306,203.39c0,.24,1,.44,2.31.44s2.31-.2,2.31-.44-1-.43-2.31-.43S306,203.15,306,203.39Z"/><path class="cls-9" d="M306.81,207c-.88-.85-4.49-2.24-5.34-1.9-1.15.56,1.77.39,4.49,3.1a12,12,0,0,1,2.13,2.57c.36.61.64,1.61,1.35,1.85C309.92,211,308.77,208.9,306.81,207Z"/><path class="cls-9" d="M292.67,207.72c-1.5.34-2.91,2.3-3.78,3.59a15.72,15.72,0,0,0-2.45,5.84c-.24,1.24-.69,3.59.15,4.68,1.68,2.18,6.89-9.51,7.1-11.06.13-1,.69-3-.7-3.08A.87.87,0,0,0,292.67,207.72Z"/><path class="cls-9" d="M285.4,205.24a1.85,1.85,0,0,0-.7.14,12.37,12.37,0,0,0-6.88,7.36c-.3.82-.19,1.42.75.79a10.44,10.44,0,0,0,1.59-1.73,32.62,32.62,0,0,1,3.33-3.77,10.37,10.37,0,0,1,2.77-1.65C287.74,205.77,286.47,205.19,285.4,205.24Z"/><path class="cls-9" d="M280.74,203.43l-.11,0c-1.53-.38-3.89.55-5.14,1.1a13.7,13.7,0,0,0-3,1.77c-1.2.78-3.23,3.58-2.6,4.72,1.06-.38,1.54-1.36,2.29-2.18a20.09,20.09,0,0,1,2.85-2.38,11.42,11.42,0,0,1,3.71-1.73C279.58,204.5,281.06,204.41,280.74,203.43Z"/><path class="cls-10" d="M299.4,190.42a1.7,1.7,0,0,1,.24.09c.69.31.68-.62.72-1.47a2.13,2.13,0,0,0-.72-1.65c-.27-.25-.95-.65-1.3-.36s.1,1.51.23,1.95A6,6,0,0,0,299.4,190.42Z"/><path class="cls-11" d="M292.61,189.9a6.71,6.71,0,0,0-.56,3.91c.45.12.5-1.24.57-1.58a6.48,6.48,0,0,1,1.24-2.59c.1-.13,1.63-1.53,1.35-1.66C294.36,187.61,293,189.19,292.61,189.9Z"/><path class="cls-12" d="M291.89,189.41v0s0-.07.07-.1Z"/><path class="cls-1" d="M205.28,264.74a7.77,7.77,0,0,1-1.46-.13,14.93,14.93,0,0,1-6.06-2.55l-2.7,0-.2-.2a22.22,22.22,0,0,1-11.28-4.28l-.3-.08-.18,0-.3-.1-.67-.24-.75-.27-.09-.08c-2.92-1.34-6.58-4.14-9.84-10a34.81,34.81,0,0,1-2.22-4.88c-.56-.87-1-1.65-1.27-2.18l-.26-.49-.18-.53c0-.13-.08-.25-.11-.39a29.32,29.32,0,0,1-1.27-3.92c-1.54-6.38-1.57-15.61,1.85-21.84,3.25-5.92,9.18-10.66,15.12-12.07a32,32,0,0,1,7.6-1.13H191a14.39,14.39,0,0,1,3.39-1.36,12.19,12.19,0,0,1,5.37-10.36,13.89,13.89,0,0,1,7.26-2.27,9.41,9.41,0,0,1,6.37,2.36,8.91,8.91,0,0,1,2.95,7v.16a10.54,10.54,0,0,1-.53,3c.73,0,1.4-.06,1.95-.06s1.07,0,1.57,0A19.1,19.1,0,0,1,229.77,201a11.74,11.74,0,0,1,1.1.87,26.87,26.87,0,0,1,11.66,10.63c3.59,6.28,3.57,15.58,1.94,22a23.37,23.37,0,0,1-2.8,6.75,32.67,32.67,0,0,1-2.45,5.57,24.38,24.38,0,0,1-7.71,8.79l0,0-.87.52-.09,0a14.48,14.48,0,0,1-3.41,1.4,22.3,22.3,0,0,1-11.88,4.35l-.14.13H212.9a14.85,14.85,0,0,1-6.09,2.55,7.43,7.43,0,0,1-1.42.13Z"/><path class="cls-2" d="M200,259.41a7.77,7.77,0,0,1-1.46-.14,14.74,14.74,0,0,1-6.06-2.54h-2.71l-.2-.2a22.16,22.16,0,0,1-11.28-4.28l-.29-.08-.18,0-.31-.11-.66-.23-.76-.27-.08-.09c-2.92-1.33-6.59-4.13-9.84-10a33.1,33.1,0,0,1-2.22-4.87c-.56-.87-1-1.65-1.28-2.19l-.26-.49-.17-.53c0-.12-.08-.25-.11-.38a27.9,27.9,0,0,1-1.27-3.92c-1.54-6.38-1.57-15.61,1.84-21.85,3.25-5.92,9.19-10.66,15.13-12.07a32.44,32.44,0,0,1,7.6-1.12h.26a14.64,14.64,0,0,1,3.38-1.37,12.17,12.17,0,0,1,5.38-10.35,13.79,13.79,0,0,1,7.26-2.27,9.32,9.32,0,0,1,6.36,2.36,8.87,8.87,0,0,1,3,7v.16a10.61,10.61,0,0,1-.53,3c.73-.05,1.39-.06,1.95-.06l1.57,0a19.21,19.21,0,0,1,10.48,3.1,10.3,10.3,0,0,1,1.1.87,26.8,26.8,0,0,1,11.66,10.63c3.59,6.28,3.56,15.58,1.94,22a23.54,23.54,0,0,1-2.8,6.75,32.81,32.81,0,0,1-2.46,5.58,24.37,24.37,0,0,1-7.71,8.79l0,0-.87.52-.09.05a15.16,15.16,0,0,1-3.42,1.4,22.26,22.26,0,0,1-11.88,4.34l-.13.14h-2.18a14.83,14.83,0,0,1-6.1,2.55,7.43,7.43,0,0,1-1.42.13Z"/><path class="cls-3" d="M210,200.65a5.62,5.62,0,0,0-4.81-2.17c-2.7,0-4.93,1.27-4.83,3.26.07,1.4,1.39,3.59,3.68,2.91s4.93-2.37,5.66-3.88c0,0,.16-.25.16-.21Z"/><path class="cls-3" d="M187.18,201c1.1-1.66,3.52-2.37,5.61-2.53,2.53-.21,3.48,1,3.51,3.06,0,1.45-1.07,3.81-3.27,3.24s-4.78-2.15-5.56-3.67c0,0-.17-.24-.16-.2Z"/><path class="cls-3" d="M220.84,200.94a12.91,12.91,0,0,0-7.05-2c-3.15-.08-7.68-.17-8.34,3.77-.21,1.31.58,1.87,1.81,2.24a17.3,17.3,0,0,0,4.61.17c1.84,0,3.68,0,5.52,0,1.19,0,5.25-.7,5.1-2.32l.19.09A10.69,10.69,0,0,0,220.84,200.94Z"/><path class="cls-3" d="M228.93,234.13c2.18-.46,3.57-4.83,4-6.55,1.23-4.91,1.38-12.58-1.3-17.26-2.25-3.93-6.82-7.86-11.47-8.92-4.48-1-8.52-1.83-12.93.91-2,1.23.8,1.82,2.33,2.09,3.15.57,5.59.59,8.52,2.06,4.47,2.25,8,4,9.4,8.75,1.92,6.35,1.44,12.55,1.44,19Z"/><path class="cls-4" d="M170.86,234.13c-2.08-.46-3.41-4.83-3.83-6.55-1.19-4.91-1.33-12.58,1.24-17.26,2.15-3.93,6.53-7.86,11-8.92,4.29-1,8.16-1.83,12.39.91,1.89,1.23-.77,1.82-2.24,2.09-3,.57-5.35.59-8.15,2.06-4.29,2.25-7.63,4-9,8.75-1.84,6.35-1.39,12.55-1.39,19Z"/><path class="cls-5" d="M191.65,202.31a11.52,11.52,0,0,0-3.84-1.62c.13.29,0,.6-.34,1-.63.61-1.63.46-2.44.46l.1.1a15,15,0,0,0,2.89.68c.78.08,2.33.75,3.51,1C192.33,203.49,192.72,203,191.65,202.31Z"/><path class="cls-6" d="M191,202.88c-1.79-.93-8.46-1.26-11.48,0-4.38,1.82-9,5.35-10.56,10a34.38,34.38,0,0,0-1.41,9.36,35.12,35.12,0,0,0,.11,4.92,20,20,0,0,0,.62,4.25c.35.65.72,1.3,1.13,1.91.07.11.2.28.33.45a2.47,2.47,0,0,0,1.13.67c0-6.43-.44-12.6,1.39-18.91,1.38-4.77,4.72-6.51,9-8.75,2.8-1.48,5.14-1.49,8.15-2.06a6.06,6.06,0,0,0,2.75-1A3.87,3.87,0,0,0,191,202.88Z"/><path class="cls-7" d="M202.83,200a14.93,14.93,0,0,1-1.3-1.56c-1.2-1.68-2.76-5.11-1.26-7.06a3.36,3.36,0,0,1,3.48-.63c.79.36.79-.71.84-1.7a2.5,2.5,0,0,0-.84-1.91c-1.72-1.54-4.7-.26-5.8.47-3,2-2.72,5.45-2.26,8.37a27.31,27.31,0,0,1,.44,4.37c0,2.32-2.25,2.62-4.33,3,.33.86,1.91,1.27,2.74,1.6a13.13,13.13,0,0,1,1.7,1c.67.41.87.2,1.62-.18a4.94,4.94,0,0,1,2.22-.66c1.4-.06,3.19,1.12,4.43.47s1.76-1.32,2.93-1.85c-.38.17-2.77-2-3.11-2.3A19.87,19.87,0,0,1,202.83,200Z"/><path class="cls-8" d="M207.27,203.71a17.2,17.2,0,0,1-2.94-2.27,19.87,19.87,0,0,1-1.5-1.4,14.93,14.93,0,0,1-1.3-1.56c-1.2-1.68-2.76-5.11-1.26-7.06a1.94,1.94,0,0,1,.75-.54c-2.37,0-2.26,3.12-1.94,4.69.47,2.29,2.12,4.64,1.52,7.1-.54,2.19-3.49,2.57-5.66,2.11a9.33,9.33,0,0,0,1.87,1.38,2.16,2.16,0,0,0,1.05-.38,4.94,4.94,0,0,1,2.22-.66c1.4-.06,3.19,1.12,4.43.47,1-.54,1.7-1.24,2.76-1.76Z"/><path class="cls-4" d="M181.14,246.25s-4.84.34-9.43-7.89a26.61,26.61,0,0,1-3.39-12.2,39.25,39.25,0,0,1,.87-11c1.54-5.59,5.83-9.64,11.1-11.83,3-1.26,9.68-.93,11.48,0s1.65,1.94,1.65,1.94-13.71,8.82-12.57,23.57S181.14,246.25,181.14,246.25Z"/><path class="cls-5" d="M191.77,203.35a10.59,10.59,0,0,0-3.4-.72c.87.22,1.71.63,1.34,1.76a7.55,7.55,0,0,0,2.33,0c.36,0,.72,0,1.08,0A3.56,3.56,0,0,0,191.77,203.35Z"/><path class="cls-6" d="M193.42,205.29a1.4,1.4,0,0,0-.36-.94,13.91,13.91,0,0,0-6.75.83c-4.71,2.29-10.19,5.81-12.48,15.77-2.26,9.78,1.25,20.06,5.72,25a4.79,4.79,0,0,0,1.59.27s.84-2.63-.29-17.39S193.42,205.29,193.42,205.29Z"/><path class="cls-4" d="M194.55,250.26s-8.82.92-13.41-4-8-13.84-5.68-23.8,7.49-15,12.2-17.27c2.22-1.08,9.07-1.83,10.39,1.26S194.55,250.26,194.55,250.26Z"/><path class="cls-4" d="M218.86,246.25s4.84.34,9.43-7.89,3.62-16.59,2.53-23.11-8.08-10.65-11.11-11.9-9.68-.93-11.48,0-1.65,1.94-1.65,1.94,13.71,8.82,12.57,23.57S218.86,246.25,218.86,246.25Z"/><path class="cls-6" d="M227,222.45c-2.3-9.95-7.49-15-12.21-17.27a13.44,13.44,0,0,0-8-.57,1.27,1.27,0,0,0-.19.68s13.71,8.82,12.57,23.57-.29,17.39-.29,17.39a6.47,6.47,0,0,0,3.33-1.05A26.88,26.88,0,0,0,227,222.45Z"/><path class="cls-4" d="M205.45,250.26s8.82.92,13.41-4,8-13.84,5.69-23.8-7.5-15-12.21-17.27c-2.22-1.08-9.06-1.83-10.39,1.26S205.45,250.26,205.45,250.26Z"/><path class="cls-6" d="M209.46,247.86c4.59-5.61,6.77-16.71,5.32-26.09-1.33-8.58-5.23-15-12.06-16.42-.64.33-.51.46-.77,1.09-1.33,3.09,3.5,43.82,3.5,43.82s.64.06,1.65.07A20.3,20.3,0,0,0,209.46,247.86Z"/><path class="cls-6" d="M190,247.86c-4.59-5.61-6.76-16.71-5.31-26.09,1.32-8.58,5.22-15,12.05-16.42.64.33.51.46.78,1.09,1.33,3.09-2,43.89-2,43.89s-2.12,0-3.13,0A21.94,21.94,0,0,1,190,247.86Z"/><path class="cls-4" d="M213.07,221.77c-1.41-9.11-5-16.15-12.72-17a1.55,1.55,0,0,0-.7,0c-7.72.82-11.3,7.86-12.71,17-1.45,9.38.72,20.48,5.31,26.09,3.37,4.11,6.16,5,7.4,5.12a2.06,2.06,0,0,0,.7,0c1.25-.16,4-1,7.39-5.12C212.34,242.25,214.51,231.15,213.07,221.77Z"/><path class="cls-5" d="M192.73,199c-1.4,0-3.6.4-2.92,1.42.5.77,2.1,1.16,2.89,1.5,1.43.64,2-.15,1.61-1.51A1.87,1.87,0,0,0,192.73,199Z"/><path class="cls-9" d="M210,203.39c0,.24,1,.44,2.31.44s2.31-.2,2.31-.44-1-.43-2.31-.43S210,203.15,210,203.39Z"/><path class="cls-9" d="M210.81,207c-.88-.85-4.49-2.24-5.34-1.9-1.15.56,1.77.39,4.49,3.1a12,12,0,0,1,2.13,2.57c.36.61.64,1.61,1.35,1.85C213.92,211,212.77,208.9,210.81,207Z"/><path class="cls-9" d="M196.67,207.72c-1.5.34-2.91,2.3-3.78,3.59a15.72,15.72,0,0,0-2.45,5.84c-.24,1.24-.69,3.59.15,4.68,1.68,2.18,6.89-9.51,7.1-11.06.13-1,.69-3-.7-3.08A.87.87,0,0,0,196.67,207.72Z"/><path class="cls-9" d="M189.4,205.24a1.85,1.85,0,0,0-.7.14,12.37,12.37,0,0,0-6.88,7.36c-.3.82-.19,1.42.75.79a10.44,10.44,0,0,0,1.59-1.73,32.62,32.62,0,0,1,3.33-3.77,10.37,10.37,0,0,1,2.77-1.65C191.74,205.77,190.47,205.19,189.4,205.24Z"/><path class="cls-9" d="M184.74,203.43l-.11,0c-1.53-.38-3.89.55-5.14,1.1a13.7,13.7,0,0,0-3,1.77c-1.2.78-3.23,3.58-2.6,4.72,1.06-.38,1.54-1.36,2.29-2.18a20.09,20.09,0,0,1,2.85-2.38,11.42,11.42,0,0,1,3.71-1.73C183.58,204.5,185.06,204.41,184.74,203.43Z"/><path class="cls-10" d="M203.4,190.42a1.7,1.7,0,0,1,.24.09c.69.31.68-.62.72-1.47a2.13,2.13,0,0,0-.72-1.65c-.27-.25-.95-.65-1.3-.36s.1,1.51.23,1.95A6,6,0,0,0,203.4,190.42Z"/><path class="cls-11" d="M196.61,189.9a6.71,6.71,0,0,0-.56,3.91c.45.12.5-1.24.57-1.58a6.48,6.48,0,0,1,1.24-2.59c.1-.13,1.63-1.53,1.35-1.66C198.36,187.61,197,189.19,196.61,189.9Z"/><path class="cls-12" d="M195.89,189.41v0s0-.07.07-.1Z"/><path class="cls-1" d="M251.15,198.61a7.77,7.77,0,0,1-1.46-.14,14.74,14.74,0,0,1-6.06-2.54h-2.71l-.2-.2a22.16,22.16,0,0,1-11.28-4.28l-.29-.08-.18,0-.31-.11L228,191l-.76-.27-.08-.09c-2.92-1.33-6.59-4.13-9.84-10a33.1,33.1,0,0,1-2.22-4.87c-.56-.87-1-1.65-1.28-2.19l-.26-.49-.17-.53c0-.12-.08-.25-.11-.38a27.9,27.9,0,0,1-1.27-3.92c-1.54-6.38-1.57-15.61,1.84-21.85,3.25-5.92,9.19-10.66,15.13-12.07a32.44,32.44,0,0,1,7.6-1.12h.26a14.64,14.64,0,0,1,3.38-1.37,12.2,12.2,0,0,1,5.38-10.36,13.9,13.9,0,0,1,7.26-2.26,9.32,9.32,0,0,1,6.36,2.36,8.87,8.87,0,0,1,3,7v.16a10.61,10.61,0,0,1-.53,3c.73-.05,1.39-.06,1.95-.06l1.57,0a19.21,19.21,0,0,1,10.48,3.1,10.3,10.3,0,0,1,1.1.87,26.86,26.86,0,0,1,11.66,10.63c3.59,6.28,3.56,15.58,1.94,22a23.54,23.54,0,0,1-2.8,6.75,32.81,32.81,0,0,1-2.46,5.58,24.37,24.37,0,0,1-7.71,8.79l0,0-.87.52-.09.05a15.16,15.16,0,0,1-3.42,1.4,22.26,22.26,0,0,1-11.88,4.34l-.13.14h-2.18a14.83,14.83,0,0,1-6.1,2.55,7.43,7.43,0,0,1-1.42.13Z"/><path class="cls-2" d="M245.82,193.28a7.8,7.8,0,0,1-1.47-.14,15.14,15.14,0,0,1-6.06-2.54h-2.7l-.2-.2a22.22,22.22,0,0,1-11.28-4.28l-.29-.08-.18,0-.31-.11-.67-.24-.75-.27-.08-.08c-2.92-1.33-6.59-4.13-9.84-10a32.55,32.55,0,0,1-2.22-4.87c-.57-.88-1-1.65-1.28-2.19l-.26-.49-.17-.53-.12-.38a28,28,0,0,1-1.26-3.93c-1.55-6.38-1.58-15.61,1.84-21.84,3.25-5.92,9.19-10.66,15.12-12.07a32.53,32.53,0,0,1,7.61-1.13h.25a14.44,14.44,0,0,1,3.39-1.37,12.17,12.17,0,0,1,5.38-10.36,13.88,13.88,0,0,1,7.25-2.27,9.34,9.34,0,0,1,6.37,2.37,8.86,8.86,0,0,1,2.95,7v.16a11.44,11.44,0,0,1-.53,3c.72,0,1.39-.07,1.94-.07s1.08,0,1.58,0a19,19,0,0,1,10.47,3.1,9.38,9.38,0,0,1,1.1.87A26.69,26.69,0,0,1,283.06,141c3.6,6.28,3.57,15.57,1.95,22a23.61,23.61,0,0,1-2.81,6.75,32.77,32.77,0,0,1-2.45,5.58,24.43,24.43,0,0,1-7.71,8.78l0,0-.87.52-.08,0a15.16,15.16,0,0,1-3.42,1.4,22.37,22.37,0,0,1-11.88,4.34l-.13.13h-2.19a15.08,15.08,0,0,1-6.09,2.55,8.33,8.33,0,0,1-1.42.13Z"/><path class="cls-3" d="M255.9,134.52a5.61,5.61,0,0,0-4.81-2.18c-2.7,0-4.94,1.28-4.83,3.27.06,1.39,1.38,3.59,3.68,2.91,2.15-.65,4.93-2.38,5.65-3.89,0,0,.17-.24.17-.21Z"/><path class="cls-3" d="M233,134.91c1.11-1.66,3.53-2.37,5.61-2.54,2.54-.2,3.49,1,3.52,3.06,0,1.45-1.08,3.82-3.28,3.25s-4.77-2.16-5.55-3.67a1.58,1.58,0,0,0-.16-.21Z"/><path class="cls-3" d="M266.71,134.8a12.92,12.92,0,0,0-7-2c-3.15-.08-7.69-.17-8.34,3.77-.22,1.31.58,1.87,1.81,2.23a16.82,16.82,0,0,0,4.6.18h5.53c1.19,0,5.25-.71,5.1-2.32l.18.08A11.73,11.73,0,0,0,266.71,134.8Z"/><path class="cls-3" d="M274.8,168c2.17-.45,3.56-4.82,4-6.54,1.24-4.92,1.39-12.59-1.29-17.26-2.25-3.94-6.82-7.87-11.47-8.92-4.49-1-8.52-1.83-12.94.91-2,1.22.81,1.81,2.34,2.09,3.15.57,5.59.58,8.51,2.06,4.48,2.24,8,4,9.4,8.75,1.92,6.35,1.45,12.55,1.45,19Z"/><path class="cls-4" d="M216.73,168c-2.08-.45-3.42-4.82-3.83-6.54-1.19-4.92-1.33-12.59,1.23-17.26,2.16-3.94,6.54-7.87,11-8.92,4.29-1,8.15-1.83,12.39.91,1.89,1.22-.77,1.81-2.24,2.09-3,.57-5.35.58-8.15,2.06-4.29,2.24-7.63,4-9,8.75-1.84,6.35-1.39,12.55-1.39,19Z"/><path class="cls-5" d="M237.52,136.18a11.12,11.12,0,0,0-3.84-1.62c.13.28,0,.6-.34,1-.64.6-1.64.46-2.45.46l.1.1a15.25,15.25,0,0,0,2.9.67c.78.09,2.33.76,3.51.95C238.2,137.36,238.59,136.87,237.52,136.18Z"/><path class="cls-6" d="M236.86,136.74c-1.8-.92-8.46-1.25-11.48,0-4.39,1.83-9,5.36-10.57,10a35.23,35.23,0,0,0-1.41,9.36,36.86,36.86,0,0,0,.11,4.93,20.91,20.91,0,0,0,.63,4.25c.35.65.71,1.3,1.12,1.91.07.11.2.28.33.44a2.43,2.43,0,0,0,1.14.68c0-6.43-.44-12.6,1.39-18.91,1.38-4.77,4.72-6.51,9-8.76,2.8-1.47,5.14-1.48,8.15-2a6.18,6.18,0,0,0,2.75-1A3.84,3.84,0,0,0,236.86,136.74Z"/><path class="cls-7" d="M248.7,133.91a13.78,13.78,0,0,1-1.3-1.56c-1.2-1.69-2.77-5.11-1.26-7.06a3.36,3.36,0,0,1,3.48-.64c.79.37.78-.71.83-1.69a2.45,2.45,0,0,0-.83-1.91c-1.72-1.54-4.71-.26-5.81.47-3,2-2.71,5.44-2.25,8.37a28.38,28.38,0,0,1,.44,4.37c0,2.32-2.25,2.62-4.33,3,.33.85,1.9,1.27,2.73,1.6a11,11,0,0,1,1.7,1c.68.41.87.21,1.63-.17A4.82,4.82,0,0,1,246,139c1.39-.06,3.19,1.11,4.43.47,1.09-.58,1.75-1.33,2.93-1.85-.39.17-2.77-2-3.11-2.3A19.87,19.87,0,0,1,248.7,133.91Z"/><path class="cls-8" d="M253.13,137.58a18,18,0,0,1-2.93-2.27,19.87,19.87,0,0,1-1.5-1.4,13.78,13.78,0,0,1-1.3-1.56c-1.2-1.69-2.77-5.11-1.26-7.06a2,2,0,0,1,.74-.55c-2.37,0-2.25,3.13-1.93,4.7.46,2.29,2.12,4.64,1.52,7.09-.54,2.19-3.49,2.57-5.66,2.12a9.26,9.26,0,0,0,1.86,1.38,2.27,2.27,0,0,0,1.06-.38A4.82,4.82,0,0,1,246,139c1.39-.06,3.19,1.11,4.43.47,1-.54,1.7-1.24,2.76-1.76A.49.49,0,0,1,253.13,137.58Z"/><path class="cls-4" d="M227,180.12s-4.84.34-9.43-7.9a26.47,26.47,0,0,1-3.4-12.2,39.66,39.66,0,0,1,.88-11c1.54-5.58,5.82-9.63,11.1-11.83,3-1.25,9.68-.92,11.48,0s1.65,1.95,1.65,1.95-13.71,8.81-12.58,23.57S227,180.12,227,180.12Z"/><path class="cls-5" d="M237.64,137.21a10.71,10.71,0,0,0-3.41-.71c.88.22,1.71.63,1.35,1.75a7.54,7.54,0,0,0,2.33.05H239A3.6,3.6,0,0,0,237.64,137.21Z"/><path class="cls-6" d="M239.29,139.16a1.4,1.4,0,0,0-.36-.94,13.92,13.92,0,0,0-6.75.82c-4.72,2.29-10.19,5.82-12.49,15.77-2.26,9.78,1.25,20.07,5.73,25a5.15,5.15,0,0,0,1.59.27s.84-2.63-.3-17.39S239.29,139.16,239.29,139.16Z"/><path class="cls-4" d="M240.42,184.13s-8.82.91-13.41-4-8-13.85-5.69-23.8,7.5-15,12.21-17.28c2.22-1.07,9.06-1.83,10.39,1.26S240.42,184.13,240.42,184.13Z"/><path class="cls-4" d="M264.73,180.12s4.83.34,9.43-7.9,3.62-16.59,2.53-23.11-8.09-10.64-11.11-11.9-9.69-.92-11.48,0-1.65,1.95-1.65,1.95S266.16,148,265,162.73,264.73,180.12,264.73,180.12Z"/><path class="cls-6" d="M272.82,156.32c-2.29-9.95-7.49-15-12.2-17.28a13.61,13.61,0,0,0-8-.57,1.29,1.29,0,0,0-.19.69S266.16,148,265,162.73s-.29,17.39-.29,17.39a6.57,6.57,0,0,0,3.32-1.05A26.85,26.85,0,0,0,272.82,156.32Z"/><path class="cls-4" d="M251.32,184.13s8.82.91,13.41-4,8-13.85,5.68-23.8-7.49-15-12.2-17.28c-2.22-1.07-9.07-1.83-10.39,1.26S251.32,184.13,251.32,184.13Z"/><path class="cls-6" d="M255.33,181.72c4.59-5.6,6.76-16.7,5.32-26.09-1.33-8.58-5.23-15-12.06-16.42-.64.34-.51.46-.77,1.09-1.34,3.09,3.5,43.83,3.5,43.83s.64.06,1.65.07A22.11,22.11,0,0,0,255.33,181.72Z"/><path class="cls-6" d="M235.87,181.72c-4.59-5.6-6.77-16.7-5.32-26.09,1.33-8.58,5.23-15,12.06-16.42.64.34.5.46.78,1.09,1.32,3.09-2,43.9-2,43.9h-3.13A22.11,22.11,0,0,1,235.87,181.72Z"/><path class="cls-4" d="M258.93,155.63c-1.4-9.1-5-16.14-12.71-17a1.55,1.55,0,0,0-.7,0c-7.73.83-11.31,7.87-12.72,17-1.44,9.39.73,20.49,5.32,26.09,3.37,4.12,6.15,5,7.4,5.12a1.55,1.55,0,0,0,.7,0c1.24-.16,4-1,7.39-5.12C258.21,176.12,260.38,165,258.93,155.63Z"/><path class="cls-5" d="M238.6,132.89c-1.4,0-3.6.4-2.93,1.42.51.77,2.11,1.15,2.89,1.5,1.43.63,2-.16,1.61-1.51A1.84,1.84,0,0,0,238.6,132.89Z"/><path class="cls-9" d="M255.9,137.26c0,.24,1,.43,2.31.43s2.31-.19,2.31-.43-1-.43-2.31-.43S255.9,137,255.9,137.26Z"/><path class="cls-9" d="M256.67,140.85c-.87-.85-4.48-2.23-5.34-1.89-1.15.56,1.78.39,4.5,3.09a12.51,12.51,0,0,1,2.13,2.57c.36.62.63,1.61,1.35,1.86C259.79,144.83,258.64,142.76,256.67,140.85Z"/><path class="cls-9" d="M242.54,141.58c-1.5.34-2.91,2.3-3.78,3.6A15.9,15.9,0,0,0,236.3,151c-.23,1.24-.68,3.59.16,4.67,1.67,2.19,6.89-9.5,7.1-11.05.13-1,.69-3-.7-3.09A1.66,1.66,0,0,0,242.54,141.58Z"/><path class="cls-9" d="M235.26,139.1a2.18,2.18,0,0,0-.7.15,12.39,12.39,0,0,0-6.87,7.35c-.3.83-.19,1.42.74.79a9,9,0,0,0,1.59-1.73,35.58,35.58,0,0,1,3.33-3.77,10.29,10.29,0,0,1,2.78-1.64C237.61,139.64,236.34,139.06,235.26,139.1Z"/><path class="cls-9" d="M230.61,137.3l-.11,0c-1.53-.38-3.9.55-5.14,1.1a13,13,0,0,0-3,1.77c-1.2.78-3.23,3.58-2.61,4.71,1.06-.37,1.54-1.36,2.3-2.18a19.49,19.49,0,0,1,2.85-2.37,11.34,11.34,0,0,1,3.71-1.74C229.45,138.37,230.93,138.27,230.61,137.3Z"/><path class="cls-10" d="M249.26,124.29l.25.08c.69.32.68-.61.72-1.46a2.17,2.17,0,0,0-.72-1.66c-.28-.24-.95-.65-1.3-.35s.1,1.5.23,1.95A6.69,6.69,0,0,0,249.26,124.29Z"/><path class="cls-11" d="M242.48,123.76a6.73,6.73,0,0,0-.56,3.91c.45.13.49-1.23.57-1.57a6.29,6.29,0,0,1,1.24-2.59c.1-.13,1.63-1.53,1.35-1.66C244.22,121.47,242.9,123.06,242.48,123.76Z"/><path class="cls-12" d="M241.76,123.28v0a.61.61,0,0,1,.07-.1Z"/></svg>