<svg id="Layer_1" data-name="Layer 1" xmlns="http://www.w3.org/2000/svg" viewBox="0 0 512 512"><defs><style>.cls-1{opacity:0.5;}.cls-2{fill:#fff;}.cls-3{fill:#e5e5e5;}.cls-4{fill:#b5b5b5;}</style></defs><path class="cls-1" d="M128.65,333.22c-6.74,0-12.87-1.59-17.16-4.37A12.35,12.35,0,0,1,93.28,318c0-.13,0-.26,0-.39s0-.25,0-.37,0-.26,0-.39,0-.26,0-.38a12.27,12.27,0,0,1,9-11.89,12.76,12.76,0,0,1,2.43-3.36c0-.1,0-.21,0-.32s0-.26,0-.38,0-.26,0-.39a18,18,0,0,1,18-18,17.72,17.72,0,0,1,5,.71,19.43,19.43,0,0,1,17-10,19.12,19.12,0,0,1,4.26.48,28.63,28.63,0,0,1,54.94,7.53,18.94,18.94,0,0,1,18,18.89c0,.15,0,.29,0,.43a1.93,1.93,0,0,0,0,.23,15.21,15.21,0,0,1,9.32,14c0,.13,0,.26,0,.39s0,.25,0,.38,0,.25,0,.37,0,.27,0,.39A15.19,15.19,0,0,1,208.33,329a21.75,21.75,0,0,1-23,.93,77,77,0,0,1-21.44,2.83,78.33,78.33,0,0,1-20.51-2.57A34.5,34.5,0,0,1,128.65,333.22Z"/><path class="cls-2" d="M123.33,327.89c-6.75,0-12.87-1.59-17.17-4.37A12.34,12.34,0,0,1,88,312.65c0-.13,0-.26,0-.39s0-.26,0-.38,0-.26,0-.39,0-.26,0-.38a12.28,12.28,0,0,1,9-11.89,12.37,12.37,0,0,1,2.44-3.35c0-.11,0-.22,0-.33s0-.25,0-.38,0-.26,0-.39a18,18,0,0,1,22.95-17.27,19.4,19.4,0,0,1,17-10,19.82,19.82,0,0,1,4.27.48,28.63,28.63,0,0,1,54.93,7.53,18.94,18.94,0,0,1,18,18.89c0,.15,0,.29,0,.44s0,.14,0,.22a15.21,15.21,0,0,1,9.32,14c0,.13,0,.26,0,.39s0,.26,0,.38,0,.25,0,.37,0,.27,0,.4A15.19,15.19,0,0,1,203,323.65a21.78,21.78,0,0,1-22.95.94,77,77,0,0,1-21.43,2.82,77.93,77.93,0,0,1-20.52-2.57A34.49,34.49,0,0,1,123.33,327.89Z"/><path class="cls-3" d="M211.79,298.93a14.81,14.81,0,0,0,.51-3.79,14.65,14.65,0,0,0-14.65-14.65,14.94,14.94,0,0,0-3.23.37c0-.43,0-.86,0-1.3a24.37,24.37,0,0,0-48.14-5.35,15.16,15.16,0,0,0-21.69,9.72,13.69,13.69,0,0,0-21,11.61,13.85,13.85,0,0,0,.31,2.9,8.27,8.27,0,0,0-3.86,5.35,8.1,8.1,0,1,0,6.17,13.58c3.13,3.25,9.59,5.49,17.08,5.49,5.7,0,10.81-1.3,14.31-3.36a72.15,72.15,0,0,0,21,2.88,71,71,0,0,0,22-3.22,17.43,17.43,0,0,0,22.25-1.72,10.91,10.91,0,1,0,8.87-18.51Z"/><path class="cls-4" d="M210.7,319.94a10.88,10.88,0,0,1-7.78-3.26,17.44,17.44,0,0,1-22.25,1.71,71,71,0,0,1-22,3.22,72.15,72.15,0,0,1-21-2.88c-3.5,2.06-8.61,3.37-14.31,3.37-7.49,0-14-2.24-17.08-5.5a8.08,8.08,0,0,1-14-4.73,6.68,6.68,0,0,0,0,.78,8.09,8.09,0,0,0,14,5.49c3.13,3.25,9.59,5.49,17.08,5.49,5.7,0,10.81-1.3,14.31-3.36a72.49,72.49,0,0,0,21,2.88,70.69,70.69,0,0,0,22-3.23,17.41,17.41,0,0,0,22.25-1.71,10.91,10.91,0,0,0,18.7-7.65c0-.27,0-.53,0-.79A10.9,10.9,0,0,1,210.7,319.94Z"/><path class="cls-4" d="M103.67,295.51c0,.27,0,.53,0,.8a12.62,12.62,0,0,0,.09,1.51l.22-.15A13.86,13.86,0,0,1,103.67,295.51Z"/><path class="cls-4" d="M212.1,298.2a14.34,14.34,0,0,0,.2-2.29c0-.22,0-.42,0-.64a16,16,0,0,1-.48,2.89Z"/><path class="cls-4" d="M221.58,309.77c0-.25,0-.5,0-.75a10.92,10.92,0,0,0-9.52-10.82,14,14,0,0,1-.31,1.49A10.92,10.92,0,0,1,221.58,309.77Z"/><path class="cls-4" d="M117.35,282.59a13.59,13.59,0,0,1,7.27,2.11A15.16,15.16,0,0,1,146.31,275a24.36,24.36,0,0,1,48.12,4.55c0-.24,0-.49,0-.74a24.37,24.37,0,0,0-48.14-5.34,15.16,15.16,0,0,0-21.69,9.71,13.7,13.7,0,0,0-21,11.61c0,.25,0,.49,0,.74A13.7,13.7,0,0,1,117.35,282.59Z"/><path class="cls-4" d="M125.17,298a10.24,10.24,0,0,1,5.48,1.58A11.41,11.41,0,0,1,147,292.24a18.35,18.35,0,0,1,36.25,3.42c0-.18,0-.37,0-.55a18.35,18.35,0,0,0-36.26-4,11.41,11.41,0,0,0-16.33,7.32,10.31,10.31,0,0,0-15.81,8.74c0,.19,0,.37,0,.56A10.32,10.32,0,0,1,125.17,298Z"/><path class="cls-4" d="M194.42,281.63a14.34,14.34,0,0,1,3.23-.37,14.64,14.64,0,0,1,14.62,14q0-.43,0-.9a14.62,14.62,0,0,0-17.85-14.28v.24C194.45,280.76,194.44,281.2,194.42,281.63Z"/><path class="cls-4" d="M100.08,304.56a8.24,8.24,0,0,1,3.86-5.35,13,13,0,0,1-.22-1.39,8.24,8.24,0,0,0-3.64,5.21,8.08,8.08,0,0,0-7.86,8.08,6.34,6.34,0,0,0,0,.76A8.09,8.09,0,0,1,100.08,304.56Z"/><path class="cls-1" d="M321.49,338.55c-6.74,0-12.87-1.6-17.16-4.37a12.35,12.35,0,0,1-18.21-10.88c0-.13,0-.26,0-.39s0-.26,0-.38,0-.26,0-.38,0-.26,0-.38a12.29,12.29,0,0,1,9-11.9,12.75,12.75,0,0,1,2.44-3.35c0-.1,0-.21,0-.32s0-.26,0-.39,0-.25,0-.38a18,18,0,0,1,18-18,17.72,17.72,0,0,1,5,.71,19.41,19.41,0,0,1,17-10,19.15,19.15,0,0,1,4.27.48,28.63,28.63,0,0,1,54.94,7.53,18.93,18.93,0,0,1,18,18.89c0,.14,0,.29,0,.43a1.48,1.48,0,0,1,0,.22,15.2,15.2,0,0,1,9.32,14c0,.13,0,.26,0,.39s0,.25,0,.37,0,.25,0,.38,0,.27,0,.39a15.2,15.2,0,0,1-15.18,15.18,15,15,0,0,1-7.69-2.09,21.78,21.78,0,0,1-22.95.94,77.13,77.13,0,0,1-21.44,2.82,78.23,78.23,0,0,1-20.51-2.56A34.68,34.68,0,0,1,321.49,338.55Z"/><path class="cls-2" d="M316.16,333.22c-6.74,0-12.87-1.59-17.16-4.37A12.35,12.35,0,0,1,280.79,318c0-.13,0-.26,0-.39s0-.25,0-.37,0-.26,0-.39,0-.26,0-.38a12.27,12.27,0,0,1,9-11.89,12.76,12.76,0,0,1,2.43-3.36c0-.1,0-.21,0-.32s0-.26,0-.38,0-.26,0-.39a18,18,0,0,1,18-18,17.72,17.72,0,0,1,5,.71,19.43,19.43,0,0,1,17-10,19.15,19.15,0,0,1,4.27.48,28.63,28.63,0,0,1,54.94,7.53,18.94,18.94,0,0,1,18,18.89c0,.15,0,.29,0,.43v.23a15.21,15.21,0,0,1,9.33,14c0,.13,0,.26,0,.39s0,.25,0,.38,0,.25,0,.37,0,.27,0,.39A15.19,15.19,0,0,1,395.84,329a21.75,21.75,0,0,1-22.95.93,77,77,0,0,1-21.44,2.83,78.22,78.22,0,0,1-20.51-2.57A34.5,34.5,0,0,1,316.16,333.22Z"/><path class="cls-3" d="M404.62,304.25a14.6,14.6,0,0,0-14.13-18.43,14.37,14.37,0,0,0-3.24.37c0-.43,0-.87,0-1.3a24.37,24.37,0,0,0-48.15-5.35,15.15,15.15,0,0,0-21.68,9.72,13.7,13.7,0,0,0-21,11.61,13.93,13.93,0,0,0,.32,2.9,8.24,8.24,0,0,0-3.86,5.35,8.09,8.09,0,1,0,6.17,13.58c3.13,3.25,9.59,5.49,17.07,5.49,5.71,0,10.81-1.3,14.31-3.36a72.49,72.49,0,0,0,21,2.88,70.6,70.6,0,0,0,22.05-3.23,17.41,17.41,0,0,0,22.25-1.71,10.92,10.92,0,1,0,8.87-18.52Z"/><path class="cls-4" d="M403.54,325.27a10.87,10.87,0,0,1-7.79-3.27,17.43,17.43,0,0,1-22.25,1.72,70.91,70.91,0,0,1-22.05,3.22,72.15,72.15,0,0,1-21-2.88c-3.5,2.06-8.6,3.36-14.31,3.36-7.48,0-13.94-2.24-17.07-5.49a8.09,8.09,0,0,1-14-4.73c0,.25,0,.51,0,.77a8.09,8.09,0,0,0,14,5.49c3.13,3.26,9.59,5.5,17.07,5.5a29,29,0,0,0,14.31-3.37,72.13,72.13,0,0,0,21,2.89,70.6,70.6,0,0,0,22.05-3.23,17.41,17.41,0,0,0,22.25-1.71,10.92,10.92,0,0,0,18.71-7.66c0-.26,0-.52,0-.79A10.9,10.9,0,0,1,403.54,325.27Z"/><path class="cls-4" d="M296.5,300.84c0,.26,0,.53,0,.8a15.11,15.11,0,0,0,.09,1.51c.08,0,.15-.11.23-.15A15.37,15.37,0,0,1,296.5,300.84Z"/><path class="cls-4" d="M404.94,303.53a14.44,14.44,0,0,0,.19-2.29c0-.22,0-.43,0-.64a14.54,14.54,0,0,1-.48,2.89Z"/><path class="cls-4" d="M414.42,315.09c0-.24,0-.49,0-.74a10.93,10.93,0,0,0-9.52-10.82c-.09.51-.19,1-.32,1.49A10.92,10.92,0,0,1,414.42,315.09Z"/><path class="cls-4" d="M310.18,287.92a13.68,13.68,0,0,1,7.28,2.1,15.15,15.15,0,0,1,21.68-9.71,24.37,24.37,0,0,1,48.13,4.55c0-.25,0-.49,0-.74a24.37,24.37,0,0,0-48.15-5.35,15.15,15.15,0,0,0-21.68,9.72,13.7,13.7,0,0,0-21,11.61c0,.25,0,.49,0,.74A13.7,13.7,0,0,1,310.18,287.92Z"/><path class="cls-4" d="M318,303.3a10.26,10.26,0,0,1,5.48,1.58,11.41,11.41,0,0,1,16.33-7.32A18.35,18.35,0,0,1,376.06,301c0-.18,0-.37,0-.56a18.35,18.35,0,0,0-36.26-4,11.41,11.41,0,0,0-16.33,7.32,10.31,10.31,0,0,0-15.81,8.74c0,.19,0,.37,0,.55A10.31,10.31,0,0,1,318,303.3Z"/><path class="cls-4" d="M387.25,287a14.37,14.37,0,0,1,3.24-.37,14.63,14.63,0,0,1,14.61,14q0-.45,0-.9a14.59,14.59,0,0,0-17.85-14.28c0,.08,0,.15,0,.23C387.29,286.09,387.28,286.53,387.25,287Z"/><path class="cls-4" d="M292.92,309.89a8.29,8.29,0,0,1,3.86-5.36,12.41,12.41,0,0,1-.23-1.38,8.27,8.27,0,0,0-3.63,5.2,8.1,8.1,0,0,0-7.87,8.09c0,.26,0,.51,0,.76A8.08,8.08,0,0,1,292.92,309.89Z"/><path class="cls-1" d="M236.26,256.51c-6.74,0-12.87-1.59-17.16-4.37a12.35,12.35,0,0,1-18.21-10.88c0-.13,0-.26,0-.38s0-.26,0-.38,0-.26,0-.39,0-.26,0-.38a12.27,12.27,0,0,1,9-11.89,12.8,12.8,0,0,1,2.44-3.36c0-.1,0-.21,0-.32s0-.25,0-.38,0-.26,0-.39a18,18,0,0,1,18-18,17.72,17.72,0,0,1,5,.71,19.41,19.41,0,0,1,17-10,19.15,19.15,0,0,1,4.27.48,28.63,28.63,0,0,1,54.94,7.53,18.93,18.93,0,0,1,18,18.89c0,.15,0,.29,0,.44a1.41,1.41,0,0,1,0,.22,15.2,15.2,0,0,1,9.32,14c0,.13,0,.26,0,.39s0,.26,0,.38,0,.25,0,.37,0,.27,0,.4a15.19,15.19,0,0,1-22.88,13.09,21.75,21.75,0,0,1-22.95.93A76.63,76.63,0,0,1,271.55,256,78.35,78.35,0,0,1,251,253.46,34.46,34.46,0,0,1,236.26,256.51Z"/><path class="cls-2" d="M230.93,251.18c-6.74,0-12.87-1.59-17.16-4.37a12.33,12.33,0,0,1-18.21-10.87c0-.13,0-.26,0-.39s0-.26,0-.38,0-.26,0-.39,0-.25,0-.38a12.28,12.28,0,0,1,9-11.89,12.49,12.49,0,0,1,2.43-3.35c0-.11,0-.22,0-.33s0-.25,0-.38,0-.26,0-.38a18,18,0,0,1,22.95-17.28,19.41,19.41,0,0,1,17-10,19.15,19.15,0,0,1,4.27.48,28.63,28.63,0,0,1,54.94,7.53,18.92,18.92,0,0,1,18,18.89c0,.14,0,.28,0,.43a1.48,1.48,0,0,1,0,.22,15.21,15.21,0,0,1,9.33,14c0,.13,0,.26,0,.38s0,.26,0,.38,0,.25,0,.38,0,.26,0,.39a15.19,15.19,0,0,1-22.88,13.09,21.78,21.78,0,0,1-22.95.94,83,83,0,0,1-42,.25A34.54,34.54,0,0,1,230.93,251.18Z"/><path class="cls-3" d="M319.39,222.22a14.81,14.81,0,0,0,.51-3.79,14.65,14.65,0,0,0-14.65-14.65,14.94,14.94,0,0,0-3.23.37c0-.43,0-.86,0-1.3a24.37,24.37,0,0,0-48.15-5.34,15.13,15.13,0,0,0-21.68,9.71,13.71,13.71,0,0,0-20.69,14.51,8.3,8.3,0,0,0-3.85,5.36,8.09,8.09,0,1,0,6.16,13.57c3.14,3.26,9.6,5.5,17.08,5.5a29,29,0,0,0,14.31-3.37,72.15,72.15,0,0,0,21,2.88,71,71,0,0,0,22-3.22,17.44,17.44,0,0,0,22.25-1.71,10.92,10.92,0,1,0,8.87-18.52Z"/><path class="cls-4" d="M318.3,243.24a10.89,10.89,0,0,1-7.78-3.27,17.41,17.41,0,0,1-22.25,1.71,70.65,70.65,0,0,1-22,3.23,72.13,72.13,0,0,1-21-2.89,29,29,0,0,1-14.31,3.37c-7.48,0-13.94-2.24-17.08-5.49a8.08,8.08,0,0,1-14-4.74c0,.26,0,.52,0,.78a8.09,8.09,0,0,0,14,5.49c3.14,3.25,9.6,5.49,17.08,5.49,5.71,0,10.81-1.3,14.31-3.36a72.15,72.15,0,0,0,21,2.88,71,71,0,0,0,22-3.22,17.43,17.43,0,0,0,22.25-1.72,10.91,10.91,0,0,0,18.7-7.65c0-.27,0-.53,0-.79A10.93,10.93,0,0,1,318.3,243.24Z"/><path class="cls-4" d="M211.27,218.8c0,.27,0,.53,0,.8a12.5,12.5,0,0,0,.09,1.51l.22-.15A13.86,13.86,0,0,1,211.27,218.8Z"/><path class="cls-4" d="M319.71,221.5a14.57,14.57,0,0,0,.19-2.3c0-.21,0-.42,0-.63a14.44,14.44,0,0,1-.48,2.88Z"/><path class="cls-4" d="M329.19,233.06c0-.25,0-.49,0-.74a10.91,10.91,0,0,0-9.51-10.82c-.09.5-.19,1-.32,1.48A10.93,10.93,0,0,1,329.19,233.06Z"/><path class="cls-4" d="M225,205.88a13.6,13.6,0,0,1,7.28,2.11,15.15,15.15,0,0,1,21.68-9.72A24.37,24.37,0,0,1,302,202.82c0-.24,0-.49,0-.73a24.37,24.37,0,0,0-48.15-5.35,15.15,15.15,0,0,0-21.68,9.71,13.71,13.71,0,0,0-21,11.62c0,.24,0,.49,0,.73A13.71,13.71,0,0,1,225,205.88Z"/><path class="cls-4" d="M232.78,221.26a10.27,10.27,0,0,1,5.48,1.59,11.41,11.41,0,0,1,16.33-7.32A18.35,18.35,0,0,1,290.83,219c0-.19,0-.37,0-.56a18.35,18.35,0,0,0-36.26-4,11.41,11.41,0,0,0-16.33,7.32,10.32,10.32,0,0,0-15.82,8.74c0,.19,0,.37,0,.56A10.31,10.31,0,0,1,232.78,221.26Z"/><path class="cls-4" d="M302,204.92a14.94,14.94,0,0,1,3.23-.37,14.63,14.63,0,0,1,14.62,14q0-.45,0-.9a14.62,14.62,0,0,0-17.85-14.29c0,.08,0,.16,0,.24C302.06,204.06,302,204.49,302,204.92Z"/><path class="cls-4" d="M207.69,227.85a8.29,8.29,0,0,1,3.85-5.35c-.09-.46-.17-.92-.22-1.39a8.27,8.27,0,0,0-3.63,5.21,8.09,8.09,0,0,0-7.87,8.08c0,.26,0,.51,0,.76A8.09,8.09,0,0,1,207.69,227.85Z"/></svg>