<svg id="Layer_1" data-name="Layer 1" xmlns="http://www.w3.org/2000/svg" viewBox="0 0 512 512"><defs><style>.cls-1{opacity:0.5;}.cls-2{fill:#fff;}.cls-3{fill:#6b9803;}.cls-4{fill:#587701;}.cls-5{fill:#7c4e24;}.cls-6{fill:#724119;}</style></defs><path class="cls-1" d="M195,330.74a51.53,51.53,0,0,0-6-.29c-1.68,0-3.38.05-5.07.09s-3.55.09-5.29.09h-1.12l-18.08-.16h-3.31q-4.11,0-8.24.05c-2.81,0-5.62.05-8.42.05-6.13,0-10.85-.13-15.3-.41l-1-.05.47-11.18v0l.07-1.58h1.11l2.94,0c1.49,0,2.71,0,3.81-.09a30.64,30.64,0,0,0,6.48-1.12,14.68,14.68,0,0,0,2.12-.9,25,25,0,0,0,3.29-2.34l.17-.15h0a45.47,45.47,0,0,0,5.34-6.11c2.1-2.76,4.38-6,4.95-9.07a14.26,14.26,0,0,0,0-3.26l0-.26a16.5,16.5,0,0,0-1.94-5.19,22.84,22.84,0,0,0-1.48-2.26c-.91.49-2,1.06-3.35,1.63a32.28,32.28,0,0,1-6.33,2.53,42.17,42.17,0,0,1-10.77,1.37,47.63,47.63,0,0,1-10-1.09,49.49,49.49,0,0,1-12.49-4.42c-11.12-5.67-16.48-15.53-14.34-26.37a27.33,27.33,0,0,1,17.41-20.05,15.14,15.14,0,0,1,1.84-9.71c1.83-3,5.69-6.58,13.8-7.09a21.54,21.54,0,0,1,.79-2.45h0c2.08-5.43,7.18-12.85,19.64-17.86a56,56,0,0,1,7.61-2.46,14.48,14.48,0,0,1,1.48-5.12c3.61-7.06,12-8.09,14.8-8.43a61,61,0,0,1,7.32-.48,32.74,32.74,0,0,1,15.36,3.35c5.69,2.93,10.74,8.74,12,15.58a39.23,39.23,0,0,1,19.41,8.93,25.43,25.43,0,0,1,6.52,8.52c.1.22.23.51.36.84l.18.36.09.38c.1.27.19.56.28.86l.14.52.15.61c.08.37.14.69.19,1,0,.11,0,.25.06.39,0,.29.09.68.11,1.08l0,.33a11.42,11.42,0,0,1,0,1.18c0,.1,0,.25,0,.41,0,.41,0,.75-.09,1.09s-.08.52-.13.81l0,.15c0,.22-.08.39-.12.56l-.06.24c.47.11.94.22,1.39.35a27.28,27.28,0,0,1,6.38,2.48l.17.09.5.29a25.1,25.1,0,0,1,5.61,4.29l.21.21.19.24A35.66,35.66,0,0,1,253,254.59l.05.24A26.11,26.11,0,0,1,253,268c0,.12-.09.29-.14.46s-.17.56-.27.83v.06c-.09.27-.17.53-.27.79s-.2.49-.31.73-.25.56-.25.56c-.23.52-.48,1-.75,1.52s-.42.76-.66,1.18l-.21.33c-2.77,4.48-7.16,8.43-13,11.71A55,55,0,0,1,226.13,291c-2.4.82-4.93,1.57-7.53,2.24l-.44.11-.46.05c-1.12.12-4.14.41-8.17.48-1.16.05-2.31.08-3.43.08q-1.44,0-2.88-.06a54,54,0,0,1-12.91-2,37.16,37.16,0,0,1-6-2.1l0,.23c.57,6.48.73,15.93-4.25,23.65l.12.07c4.37,2.68,10,3.51,16.37,4.26Z"/><path class="cls-2" d="M189.7,325.41a51.65,51.65,0,0,0-6-.29c-1.69,0-3.39,0-5.08.09s-3.55.09-5.29.09H172.2l-18.08-.16-3.31,0c-2.74,0-5.49,0-8.25.05s-5.61.06-8.41.06c-6.13,0-10.86-.13-15.3-.41l-1-.06.47-11.18v0l.07-1.59,1.11,0,2.94,0c1.49,0,2.7,0,3.8-.09a30.64,30.64,0,0,0,6.48-1.12,15.35,15.35,0,0,0,2.12-.9,23,23,0,0,0,3.29-2.35l.17-.14h0a46.09,46.09,0,0,0,5.34-6.11c2.1-2.76,4.38-6,5-9.07a14.26,14.26,0,0,0,0-3.26l0-.26a16.27,16.27,0,0,0-1.93-5.2,26.16,26.16,0,0,0-1.48-2.25c-.92.49-2,1.06-3.36,1.63a32,32,0,0,1-6.32,2.53,42.23,42.23,0,0,1-10.77,1.37,47.63,47.63,0,0,1-10-1.09,49.69,49.69,0,0,1-12.5-4.42c-11.11-5.67-16.47-15.53-14.33-26.37a27.34,27.34,0,0,1,17.41-20.06,15.09,15.09,0,0,1,1.84-9.71c1.83-3,5.69-6.57,13.79-7.08a21.26,21.26,0,0,1,.8-2.46h0c2.08-5.43,7.18-12.85,19.64-17.86a55.94,55.94,0,0,1,7.6-2.47,14.73,14.73,0,0,1,1.49-5.11c3.6-7.07,12-8.09,14.8-8.43a59,59,0,0,1,7.32-.48A32.86,32.86,0,0,1,188,184.6c5.69,2.94,10.74,8.74,12,15.59a39.05,39.05,0,0,1,19.41,8.93,25.43,25.43,0,0,1,6.52,8.52q.15.33.36.84l.18.36.09.38c.1.27.19.55.28.86l.14.52.15.61c.08.36.14.68.19,1,0,.12,0,.26.06.4s.08.68.11,1.08l0,.32c0,.36,0,.77,0,1.19,0,.09,0,.25,0,.41,0,.41-.05.75-.1,1.09a7.46,7.46,0,0,1-.13.81l0,.15c0,.22-.07.38-.11.55l-.06.25,1.39.34a27.49,27.49,0,0,1,6.37,2.49l.18.09.5.29a24.81,24.81,0,0,1,5.61,4.29l.21.21.19.24a35.66,35.66,0,0,1,6.22,12.85l.05.24a26,26,0,0,1-.13,13.21l-.13.46c-.09.29-.18.56-.27.83l0,.06c-.08.26-.17.53-.26.79s-.21.49-.32.73l-.24.56c-.24.52-.48,1-.75,1.52-.19.35-.42.76-.67,1.17a3.62,3.62,0,0,1-.2.34c-2.77,4.47-7.16,8.43-13,11.7a53.71,53.71,0,0,1-11,4.78c-2.39.83-4.92,1.58-7.52,2.24l-.44.12-.46.05c-1.12.12-4.15.41-8.18.47-1.15.06-2.3.08-3.42.08-1,0-1.93,0-2.89-.06a54.1,54.1,0,0,1-12.91-2,39.41,39.41,0,0,1-6-2.1l0,.23c.57,6.48.73,15.93-4.25,23.64l.12.08c4.37,2.67,10,3.51,16.36,4.26Z"/><path class="cls-3" d="M236.5,240.42c-5.55-5.69-14.23-6.94-22.17-6.6,2.75-1.31,5.29-3.41,6.3-6.28,1.71-4.9-1.53-10.19-5.45-13.58a32.43,32.43,0,0,0-21.64-7.82c1.51-6.28-2.76-12.89-8.51-15.85s-12.56-3-19-2.2c-3.82.47-8.13,1.56-9.88,5-1,1.95-.92,4.24-1,6.43,0,.08,0,.16,0,.23,0,.3,0,.6,0,.9a45.51,45.51,0,0,0-11.37,3.05c-19,7.65-17.11,20.9-17.11,20.9C104.21,222.35,113.43,240,113.43,240c-16.38-.66-30.15,24.47-8.3,35.62s39.06-1.19,39.06-1.19l1.14-2.46,8-7.07a19.73,19.73,0,0,0,18.16,9.83,10.49,10.49,0,0,1,3.31,0,9.25,9.25,0,0,1,3.05,1.79c9.38,7,28.62,5.74,33.81,5.18,48.12-12.35,24.82-41.28,24.82-41.28"/><path class="cls-4" d="M153.75,265.43l-.05,0c2.19,5.41,9.85,8.78,15.28,9.06a30.66,30.66,0,0,1,5.26.33c2.23.51,4.14,1.88,6.14,3,5.39,3,11.62,4.07,17.77,4.33,11.89.5,24.16-2.16,33.86-9,3.81-2.7,7.28-6.17,8.94-10.54a20.54,20.54,0,0,0,.51-11.88c-1.18-5.14-4-10-8.36-13-5.37-3.6-12.24-3.84-18.71-3.9,6.56,3.12,14.56,4.51,18.77,10.42,3.15,4.42,3.26,10.54,1.12,15.52s-6.25,8.91-10.86,11.76a41,41,0,0,1-39,1.8c-2.8-1.39-5.5-3.14-8.56-3.73a36.3,36.3,0,0,0-5.9-.32,37.44,37.44,0,0,1-8.42-1.21c-1.33-.35-6.79-3.08-7.75-2.63"/><path class="cls-4" d="M153.81,264.23a15.38,15.38,0,0,0,4.47,6l6.68-2.47-2.89-10.1-4.58-.74Z"/><path class="cls-4" d="M113.34,239.85a30.79,30.79,0,0,0-8.33,5.58,13.91,13.91,0,0,0-4.3,8.85c-.22,4.2.06,8.23,2.59,11.6,2.25,3,6.73,5.21,10.1,6.84,3.11,1.49,8,1.18,11.47,1.15,10.74-.09,22.41-11.57,32.57-16.2-.58,8.1-15.42,19.41-23.58,21.56a40,40,0,0,1-24.79-1.93c-4.5-1.79-8.81-4.37-11.76-8.21-5.93-7.74-3.15-18.68,4-24.64a20,20,0,0,1,12-4.6"/><path class="cls-5" d="M146.76,273.16c1.13,1.23,2.23,2.49,3.24,3.81,3.51,4.61,5.89,10.44,4.95,16.15-.75,4.51-3.44,8.42-6.2,12.05-3,4-6.35,7.95-10.77,10.32-6.06,3.25-13,2.95-19.64,2.88,11.82.82,24,.25,35.84.36l18.33.16c5.86.06,12.12-.52,17.93.17-6.55-.78-13.32-1.72-18.95-5.16-2.22-1.36-4.42-3.69-3.76-6.2a8.84,8.84,0,0,1,1.41-2.52c3.84-5.7,4-13.06,3.45-19.91a12.87,12.87,0,0,1,0-3.92,12.06,12.06,0,0,1,.95-2.53c1.69-3.62,3.58-7.47,7.08-9.39a31.68,31.68,0,0,1,4.38-1.68,23.76,23.76,0,0,0,11.52-9.09c-1.76-.41-3.53.65-4.87,1.87s-2.54,2.68-4.22,3.36a10.58,10.58,0,0,1-2.62.58l-6,.81c-2.87.4-5.88.77-8.6-.24s.05-8.54.81-11.33c-6.84.26-9.72,2.91-13.65,3.92,0,5,1.64,10.68.45,15.53a30,30,0,0,1-12-8.78,8.88,8.88,0,0,0-2.71-2.58,2.52,2.52,0,0,0-3.31.77c-.54,1.06.08,2.33.75,3.31a69.65,69.65,0,0,0,6.13,7.28"/><path class="cls-6" d="M140.46,261.94s9.59,14.38,14.9,17.18,3.91,22.93-2.73,29.64-17,10.59-34.29,9.61c0,0,13,1,19.64-2.88a34.68,34.68,0,0,0,10.77-10.32c.86-1.05,5.64-7.11,6.2-12.05s.19-11.2-8.66-20.42-6.57-10.1-5.83-10.76"/><path class="cls-6" d="M172,252.51s-12.64,3.24-14.63,5.05c0,0,5.16,8,14,7.8,0,0-2.48-8.53.68-12.85"/><path class="cls-4" d="M127.67,218a15.63,15.63,0,0,0-1,6.63s.65,2.9,2.65,2.69a11.79,11.79,0,0,1-1.64-9.32"/><path class="cls-4" d="M161.74,223.49a19.55,19.55,0,0,0,23.61,6.37c-3.19,3.2-8.22,3.64-12.71,3.2a16.43,16.43,0,0,1-7.5-2.23,7.14,7.14,0,0,1-3.4-7.34"/><path class="cls-4" d="M155.3,228.6c.11-.19,4.29,1,4.86,1a7.54,7.54,0,0,0,4.86-1.08,3.5,3.5,0,0,1-.91,2.67,3.17,3.17,0,0,1-2,.53,10.44,10.44,0,0,1-4-.53,5.85,5.85,0,0,1-1.66-1c-.24-.2-1.4-1.26-1.18-1.63"/><path class="cls-4" d="M120.24,254.2s9,14.1,28,.84a8.71,8.71,0,0,1-3.79-4.21s16.84,8.42,38.72-8a12.87,12.87,0,0,1-5.26,8.84s8.21,8,30.73-1.26c0,0-1,5.89-12.42,9.26,0,0-16.34,2-25.81-2l.31-3.37s-7.07,4.61-13.25,3.34c0,0-10.58,9.19-20.84,8.48s-15.33-6.87-16.38-11.92"/><path class="cls-4" d="M219.68,219.54s3.88,6.29-1.22,11.45c0,0-2.82,2.9-4.92,2.95,0,0,9.15-5.14,6.14-14.4"/><path class="cls-1" d="M365.74,330.74a51.65,51.65,0,0,0-6-.29c-1.69,0-3.39.05-5.08.09s-3.55.09-5.29.09h-.86l-18.33-.17h-3.31q-4.11,0-8.25.05c-2.8,0-5.61.05-8.41.05-6.14,0-10.86-.13-15.3-.41l-1-.05.47-11.18v0l.07-1.58h1.11l2.94,0c1.49,0,2.7,0,3.8-.09a29.48,29.48,0,0,0,6.53-1.14,13.4,13.4,0,0,0,2.07-.88,23.76,23.76,0,0,0,3.29-2.34l.17-.15h0a45.39,45.39,0,0,0,5.33-6.11c2.11-2.76,4.39-6,5-9.07a14.17,14.17,0,0,0,0-3.25l0-.25a16.24,16.24,0,0,0-1.93-5.21,23,23,0,0,0-1.49-2.26c-.91.5-2,1.06-3.35,1.63a32,32,0,0,1-6.32,2.53,42.23,42.23,0,0,1-10.77,1.37,47.49,47.49,0,0,1-10-1.09,49.69,49.69,0,0,1-12.5-4.42c-11.11-5.67-16.47-15.53-14.33-26.37a27.29,27.29,0,0,1,17.41-20.05,15.07,15.07,0,0,1,1.84-9.71c1.82-3,5.69-6.58,13.79-7.09a21.26,21.26,0,0,1,.8-2.46h0c2.08-5.43,7.18-12.85,19.63-17.86a56.44,56.44,0,0,1,7.61-2.46,14.72,14.72,0,0,1,1.49-5.12c3.6-7.06,12-8.09,14.8-8.43a61,61,0,0,1,7.32-.48A32.77,32.77,0,0,1,364,189.94c5.69,2.93,10.74,8.74,12,15.58a39.23,39.23,0,0,1,19.41,8.93,25.43,25.43,0,0,1,6.52,8.52c.1.22.22.51.36.84l.17.36.1.37c.09.28.19.57.28.89,0,.13.09.32.14.51s.11.45.16.64.13.64.18,1l.06.37c0,.32.09.72.11,1.13l0,.3c0,.35,0,.76,0,1.18,0,.1,0,.25,0,.41,0,.41-.05.75-.1,1.09s-.08.58-.15.9-.08.44-.12.62l-.06.24c.47.11.93.22,1.39.35a27.38,27.38,0,0,1,6.37,2.48l.18.09.49.28a25.43,25.43,0,0,1,5.62,4.3l.21.21.19.24a36.18,36.18,0,0,1,6.22,12.85l.05.24a26,26,0,0,1-.13,13.21l-.14.5c-.07.24-.15.48-.23.72l-.05.14c-.08.27-.17.53-.27.79s-.19.48-.31.73l-.21.48c-.26.58-.51,1.09-.78,1.58s-.42.77-.66,1.18l-.2.32c-2.78,4.49-7.17,8.46-13,11.73A55.34,55.34,0,0,1,396.83,291c-2.39.82-4.93,1.57-7.52,2.24l-.45.11-.45.05c-1.12.12-4.14.41-8.18.48-1.15.05-2.3.08-3.42.08s-1.93,0-2.89-.06a54.59,54.59,0,0,1-12.91-2,38.37,38.37,0,0,1-6-2.1l0,.23c.57,6.48.73,15.93-4.26,23.65l.12.07c4.38,2.68,10,3.51,16.37,4.26Z"/><path class="cls-2" d="M360.4,325.41a51.34,51.34,0,0,0-6-.29c-1.69,0-3.39,0-5.08.09s-3.55.09-5.29.09h-.86l-18.34-.16-3.3,0c-2.74,0-5.5,0-8.25.05s-5.61.06-8.42.06c-6.13,0-10.85-.13-15.29-.41l-1-.06.48-11.18v0l.06-1.59,1.12,0,2.93,0c1.5,0,2.71,0,3.81-.09a30.19,30.19,0,0,0,6.53-1.14,13.4,13.4,0,0,0,2.07-.88,24.37,24.37,0,0,0,3.29-2.34l.17-.15h0a46.74,46.74,0,0,0,5.33-6.11c2.1-2.76,4.39-6,5-9.07a14.76,14.76,0,0,0,0-3.25l0-.25a16.15,16.15,0,0,0-1.93-5.21,25,25,0,0,0-1.49-2.26c-.91.49-2,1.06-3.35,1.63a32.21,32.21,0,0,1-6.32,2.53,42.25,42.25,0,0,1-10.78,1.37,47.63,47.63,0,0,1-10-1.09,49.63,49.63,0,0,1-12.49-4.42c-11.11-5.67-16.47-15.53-14.34-26.37A27.35,27.35,0,0,1,276,234.85a15.09,15.09,0,0,1,1.84-9.71c1.82-3,5.68-6.57,13.79-7.08a22,22,0,0,1,.79-2.46h0c2.09-5.44,7.19-12.85,19.64-17.86a56.52,56.52,0,0,1,7.61-2.47,14.92,14.92,0,0,1,1.48-5.11c3.61-7.07,12-8.09,14.81-8.43a58.88,58.88,0,0,1,7.32-.48,32.89,32.89,0,0,1,15.36,3.34c5.68,2.93,10.73,8.74,12,15.59a39.09,39.09,0,0,1,19.42,8.93,25.42,25.42,0,0,1,6.51,8.52c.11.22.23.51.36.84l.18.36.09.37c.1.27.2.57.29.88l.14.52c.07.27.11.45.15.64s.14.64.19,1l.05.37c0,.32.09.72.12,1.13V224c0,.36,0,.77,0,1.19,0,.1,0,.25,0,.41,0,.41-.06.75-.1,1.09s-.09.58-.15.9-.09.44-.13.61l-.06.25,1.39.34a27.75,27.75,0,0,1,6.38,2.49l.18.09.49.28a25.13,25.13,0,0,1,5.62,4.3l.2.21.19.24a27.55,27.55,0,0,1,2.3,3.4,30.06,30.06,0,0,1,3.93,9.45l0,.24a26.11,26.11,0,0,1-.13,13.21l-.14.49-.24.73,0,.14c-.09.26-.17.53-.27.79s-.2.48-.31.72-.14.32-.21.48c-.27.59-.51,1.09-.78,1.59s-.42.77-.67,1.18a2.37,2.37,0,0,1-.19.31c-2.78,4.5-7.18,8.46-13,11.73a54.19,54.19,0,0,1-10.95,4.78c-2.4.83-4.93,1.58-7.52,2.24l-.45.12-.45.05c-1.12.12-4.15.41-8.18.47-1.15.06-2.3.08-3.42.08s-1.93,0-2.89-.06a54,54,0,0,1-12.91-2,39,39,0,0,1-6-2.1l0,.23c.56,6.48.73,15.92-4.26,23.64l.12.08c4.38,2.67,10,3.51,16.37,4.26Z"/><path class="cls-3" d="M407.2,240.42c-5.55-5.69-14.22-6.94-22.16-6.6,2.75-1.31,5.29-3.41,6.3-6.28,1.71-4.9-1.53-10.19-5.45-13.58a32.46,32.46,0,0,0-21.65-7.82c1.51-6.28-2.76-12.89-8.51-15.85s-12.55-3-19-2.2c-3.82.47-8.13,1.56-9.88,5-1,1.95-.92,4.24-1,6.43a1.85,1.85,0,0,0,0,.23c0,.3,0,.6-.05.9a45.55,45.55,0,0,0-11.36,3.05c-19,7.65-17.12,20.9-17.12,20.9C274.91,222.35,284.14,240,284.14,240c-16.39-.66-30.15,24.47-8.3,35.62s39.06-1.19,39.06-1.19l1.13-2.46,8-7.07a19.75,19.75,0,0,0,18.16,9.83,10.55,10.55,0,0,1,3.32,0,9.46,9.46,0,0,1,3.05,1.79c9.38,7,28.61,5.74,33.81,5.18,48.12-12.35,24.81-41.28,24.81-41.28"/><path class="cls-4" d="M324.46,265.43l0,0c2.19,5.41,9.84,8.78,15.27,9.06a30.84,30.84,0,0,1,5.27.33c2.23.51,4.14,1.88,6.14,3,5.38,3,11.62,4.07,17.77,4.33,11.88.5,24.15-2.16,33.86-9,3.81-2.7,7.28-6.17,8.94-10.54a20.62,20.62,0,0,0,.51-11.88c-1.18-5.14-4-10-8.37-13-5.37-3.6-12.24-3.84-18.7-3.9,6.55,3.12,14.55,4.51,18.77,10.42,3.14,4.42,3.25,10.54,1.11,15.52s-6.25,8.91-10.86,11.76a40.93,40.93,0,0,1-39,1.8c-2.8-1.39-5.5-3.14-8.57-3.73a36.11,36.11,0,0,0-5.89-.32,37.44,37.44,0,0,1-8.42-1.21c-1.33-.35-6.79-3.08-7.75-2.63"/><path class="cls-4" d="M324.51,264.23a15.51,15.51,0,0,0,4.47,6l6.69-2.47-2.9-10.1-4.58-.74Z"/><path class="cls-4" d="M284,239.85a30.89,30.89,0,0,0-8.32,5.58,13.86,13.86,0,0,0-4.3,8.85c-.23,4.2.05,8.23,2.58,11.6,2.25,3,6.73,5.21,10.1,6.84,3.12,1.49,8,1.18,11.47,1.15,10.75-.09,22.42-11.57,32.57-16.2-.58,8.1-15.42,19.41-23.57,21.56a40,40,0,0,1-24.79-1.93c-4.5-1.79-8.82-4.37-11.76-8.21-5.93-7.74-3.15-18.68,4-24.64a20.06,20.06,0,0,1,12-4.6"/><path class="cls-5" d="M317.47,273.16c1.12,1.23,2.23,2.49,3.24,3.81,3.51,4.61,5.89,10.44,5,16.15-.75,4.51-3.44,8.42-6.2,12.05-3,4-6.36,7.95-10.77,10.32-6.06,3.25-13,2.95-19.64,2.88,11.82.82,24,.25,35.83.36l18.34.16c5.86.06,12.12-.52,17.93.17-6.56-.78-13.32-1.72-19-5.16-2.21-1.36-4.42-3.69-3.75-6.2a8.38,8.38,0,0,1,1.41-2.52c3.84-5.7,4-13.06,3.44-19.91a13.2,13.2,0,0,1,0-3.92,12.09,12.09,0,0,1,1-2.53c1.68-3.62,3.58-7.47,7.08-9.39a31.55,31.55,0,0,1,4.37-1.68,23.74,23.74,0,0,0,11.53-9.09c-1.76-.41-3.53.65-4.87,1.87s-2.55,2.68-4.22,3.36a10.58,10.58,0,0,1-2.62.58l-5.95.81c-2.88.4-5.89.77-8.6-.24s.05-8.54.8-11.33c-6.84.26-9.71,2.91-13.64,3.92,0,5,1.63,10.68.45,15.53a29.83,29.83,0,0,1-12-8.78,8.88,8.88,0,0,0-2.71-2.58,2.52,2.52,0,0,0-3.31.77c-.54,1.06.08,2.33.75,3.31a67.28,67.28,0,0,0,6.13,7.28"/><path class="cls-6" d="M311.17,261.94s9.59,14.38,14.89,17.18,3.91,22.93-2.72,29.64-17,10.59-34.29,9.61c0,0,13,1,19.64-2.88a34.68,34.68,0,0,0,10.77-10.32c.85-1.05,5.64-7.11,6.2-12.05s.18-11.2-8.67-20.42-6.56-10.1-5.82-10.76"/><path class="cls-6" d="M342.72,252.51s-12.65,3.24-14.63,5.05c0,0,5.16,8,14,7.8,0,0-2.48-8.53.68-12.85"/><path class="cls-4" d="M298.38,218a15.57,15.57,0,0,0-1,6.63s.65,2.9,2.65,2.69a11.81,11.81,0,0,1-1.63-9.32"/><path class="cls-4" d="M332.44,223.49a19.56,19.56,0,0,0,23.61,6.37c-3.18,3.2-8.21,3.64-12.71,3.2a16.39,16.39,0,0,1-7.49-2.23,7.13,7.13,0,0,1-3.41-7.34"/><path class="cls-4" d="M326,228.6c.12-.19,4.29,1,4.87,1a7.57,7.57,0,0,0,4.86-1.08,3.54,3.54,0,0,1-.91,2.67,3.17,3.17,0,0,1-2,.53,10.49,10.49,0,0,1-4-.53,5.94,5.94,0,0,1-1.65-1c-.24-.2-1.41-1.26-1.19-1.63"/><path class="cls-4" d="M290.94,254.2s9.05,14.1,28,.84a8.72,8.72,0,0,1-3.78-4.21s16.83,8.42,38.72-8a12.87,12.87,0,0,1-5.26,8.84s8.21,8,30.72-1.26c0,0-1.05,5.89-12.41,9.26,0,0-16.35,2-25.82-2l.32-3.37s-7.08,4.61-13.25,3.34c0,0-10.58,9.19-20.85,8.48S292,259.25,290.94,254.2"/><path class="cls-4" d="M390.38,219.54s3.89,6.29-1.22,11.45c0,0-2.81,2.9-4.92,2.95,0,0,9.16-5.14,6.14-14.4"/></svg>