<svg id="Layer_1" data-name="Layer 1" xmlns="http://www.w3.org/2000/svg" viewBox="0 0 512 512"><defs><style>.cls-1{opacity:0.5;}.cls-2{fill:#fff;}.cls-3{fill:#721c45;}.cls-4{fill:#ff00c3;}.cls-5{fill:#e88b9d;}.cls-6,.cls-7,.cls-8{fill:none;stroke:#000;stroke-miterlimit:10;stroke-width:2px;}.cls-7{stroke-dasharray:11.84 11.84;}.cls-8{stroke-dasharray:11.91 11.91;}</style></defs><path class="cls-1" d="M56.33,135.71a11,11,0,0,1-5.55-1.46c-3.41-2-5.48-5.75-5.69-10.35a23.7,23.7,0,0,1,2.35-10.73C36,112,30.88,105.82,30.88,99.67c0-5.9,5.12-12.2,16.27-13.45-4.7-10.24-2-17.75,3.22-20.88A10.88,10.88,0,0,1,56,63.83c5.2,0,10.44,3.31,14.72,9.17,5.67-8.07,11.53-9.37,14.71-9.37a11.1,11.1,0,0,1,5.54,1.46c3.41,2,5.49,5.76,5.7,10.36a23.88,23.88,0,0,1-2.36,10.73c11.41,1.14,16.57,7.34,16.57,13.49,0,5.9-5.13,12.2-16.28,13.46A23.26,23.26,0,0,1,97,123.67c-.18,4.55-2.22,8.31-5.61,10.34a11,11,0,0,1-5.61,1.5c-5.19,0-10.44-3.3-14.72-9.17C65.37,134.42,59.5,135.71,56.33,135.71Z"/><path class="cls-2" d="M52,131.4a11.07,11.07,0,0,1-5.54-1.46c-3.41-2-5.49-5.76-5.7-10.36a24,24,0,0,1,2.35-10.73c-11.4-1.14-16.56-7.34-16.56-13.49,0-5.9,5.13-12.2,16.28-13.46-4.7-10.24-2-17.75,3.21-20.88a11,11,0,0,1,5.6-1.5c5.2,0,10.45,3.3,14.73,9.17,5.66-8.08,11.53-9.37,14.7-9.37a11,11,0,0,1,5.54,1.46c3.41,2,5.49,5.75,5.7,10.35A23.93,23.93,0,0,1,90,81.87c11.41,1.14,16.56,7.34,16.56,13.49,0,5.9-5.12,12.2-16.27,13.45a23.28,23.28,0,0,1,2.39,10.55c-.17,4.54-2.22,8.31-5.61,10.33a10.88,10.88,0,0,1-5.6,1.51c-5.2,0-10.45-3.31-14.73-9.17C61.05,130.1,55.18,131.4,52,131.4Z"/><path class="cls-3" d="M78,96.22c-.78,0-2.31-.39-2.31-.86s1.53-.87,2.31-.87c1.35,0,1.94.46,1.94.87S79.27,96.22,78,96.22Z"/><path class="cls-4" d="M101.35,95.36c0-4.07-4.63-8.5-15.25-8.5a28.32,28.32,0,0,0-6.36.9,27.89,27.89,0,0,0,4-5c5.24-9,3.83-15.42.31-17.46S74.35,65,69,74.18a28.66,28.66,0,0,0-2.56,6.43,29,29,0,0,0-2.64-6.4c-5.34-8.95-11.62-10.82-15.11-8.74s-4.93,8.33.52,17.45A27.29,27.29,0,0,0,53,87.68a27.91,27.91,0,0,0-6-.82c-10.42,0-15.25,4.43-15.25,8.5s4.63,8.5,15.25,8.5a28.32,28.32,0,0,0,6.36-.9,28,28,0,0,0-4,5c-5.23,9-3.83,15.42-.31,17.46s9.67.26,15-8.93a29.44,29.44,0,0,0,2.56-6.43,28.54,28.54,0,0,0,2.63,6.4c5.34,9,11.62,10.83,15.12,8.75s4.92-8.34-.53-17.46a27.67,27.67,0,0,0-3.8-4.76,27.37,27.37,0,0,0,6,.83C96.52,103.86,101.35,99.42,101.35,95.36ZM66.56,97.27a2.91,2.91,0,0,0-.75-.65,2.76,2.76,0,0,0-.9-.32,2.79,2.79,0,0,0,.17-.94,3,3,0,0,0-.16-.93,2.75,2.75,0,0,0,.88-.33,2.86,2.86,0,0,0,.73-.66,2.88,2.88,0,0,0,.75.65,3.14,3.14,0,0,0,.9.33,3.05,3.05,0,0,0-.17.94,2.92,2.92,0,0,0,.16.92,3,3,0,0,0-.87.34A2.84,2.84,0,0,0,66.56,97.27Z"/><path class="cls-5" d="M66.28,103.17a7.81,7.81,0,1,1,7.82-7.81A7.81,7.81,0,0,1,66.28,103.17Z"/><path class="cls-3" d="M54.45,94.49c.77,0,2.3.39,2.3.87s-1.53.86-2.3.86c-1.35,0-1.94-.45-1.94-.86S53.12,94.49,54.45,94.49Z"/><path class="cls-3" d="M71,106.1c-.37-.68-.76-2.21-.34-2.44s1.49.94,1.85,1.61c.65,1.19.53,1.93.17,2.12S71.67,107.26,71,106.1Z"/><path class="cls-3" d="M61.35,84.62c.37.68.76,2.21.34,2.43s-1.48-.93-1.85-1.61c-.65-1.19-.53-1.92-.17-2.12S60.72,83.45,61.35,84.62Z"/><path class="cls-3" d="M73,85.77c-.4.66-1.53,1.76-1.94,1.52s.06-1.76.46-2.42c.7-1.16,1.4-1.43,1.75-1.21S73.73,84.63,73,85.77Z"/><path class="cls-3" d="M59.36,105c.4-.66,1.52-1.77,1.93-1.52s-.06,1.76-.46,2.42c-.7,1.15-1.39,1.42-1.74,1.21S58.67,106.08,59.36,105Z"/><path class="cls-3" d="M75.83,102.14c-.66-.4-1.78-1.52-1.53-1.93s1.75.05,2.42.45c1.16.69,1.43,1.38,1.22,1.74S77,102.82,75.83,102.14Z"/><path class="cls-3" d="M56.56,88.58c.67.39,1.78,1.51,1.54,1.92s-1.76,0-2.42-.44c-1.16-.7-1.44-1.39-1.23-1.74S55.43,87.89,56.56,88.58Z"/><path class="cls-3" d="M64.83,107.06c0-.77.48-2.29,1-2.27s.79,1.57.76,2.34c-.06,1.35-.53,1.92-.94,1.9S64.77,108.38,64.83,107.06Z"/><path class="cls-3" d="M67.57,83.66c0,.77-.49,2.28-1,2.26s-.8-1.57-.77-2.34c.06-1.35.54-1.92,1-1.9S67.62,82.33,67.57,83.66Z"/><path class="cls-3" d="M77,90.65c-.68.36-2.21.73-2.44.31s1-1.48,1.64-1.84c1.2-.63,1.93-.5,2.12-.14S78.17,90,77,90.65Z"/><path class="cls-3" d="M55.4,100.07c.68-.36,2.22-.73,2.44-.31s-1,1.47-1.64,1.83c-1.19.63-1.93.51-2.12.15S54.23,100.69,55.4,100.07Z"/><path class="cls-1" d="M335.11,135.41a11,11,0,0,1-5.54-1.46c-3.41-2-5.49-5.75-5.7-10.35a23.85,23.85,0,0,1,2.36-10.73c-11.41-1.14-16.57-7.35-16.57-13.5,0-5.89,5.13-12.2,16.28-13.45-4.7-10.24-2-17.75,3.21-20.88a10.89,10.89,0,0,1,5.61-1.51c5.19,0,10.44,3.31,14.72,9.17,5.67-8.07,11.53-9.37,14.7-9.37a11.14,11.14,0,0,1,5.55,1.46c3.41,2,5.48,5.76,5.69,10.36a23.73,23.73,0,0,1-2.35,10.73c11.41,1.14,16.56,7.34,16.56,13.49,0,5.9-5.12,12.2-16.27,13.46a23.24,23.24,0,0,1,2.39,10.54c-.17,4.55-2.22,8.31-5.61,10.34a11,11,0,0,1-5.6,1.5c-5.2,0-10.44-3.3-14.72-9.17C344.15,134.12,338.29,135.41,335.11,135.41Z"/><path class="cls-2" d="M330.8,131.1a11.14,11.14,0,0,1-5.55-1.46c-3.4-2-5.48-5.76-5.69-10.36a23.73,23.73,0,0,1,2.35-10.73c-11.41-1.14-16.56-7.34-16.56-13.49,0-5.9,5.12-12.2,16.28-13.46-4.71-10.24-2-17.75,3.21-20.88a11,11,0,0,1,5.6-1.5c5.2,0,10.45,3.3,14.72,9.17,5.67-8.08,11.53-9.37,14.71-9.37a11,11,0,0,1,5.54,1.46c3.41,2,5.49,5.75,5.7,10.35a24.06,24.06,0,0,1-2.35,10.74c11.4,1.14,16.56,7.34,16.56,13.49,0,5.9-5.13,12.2-16.28,13.45a23.3,23.3,0,0,1,2.4,10.55c-.18,4.54-2.22,8.31-5.61,10.33a10.89,10.89,0,0,1-5.61,1.51c-5.19,0-10.44-3.3-14.72-9.17C339.84,129.8,334,131.1,330.8,131.1Z"/><path class="cls-3" d="M356.73,95.92c-.77,0-2.3-.39-2.3-.86s1.53-.86,2.3-.86c1.35,0,1.94.45,1.94.86S358.06,95.92,356.73,95.92Z"/><path class="cls-4" d="M380.14,95.06c0-4.07-4.63-8.5-15.25-8.5a28.32,28.32,0,0,0-6.36.9,28.35,28.35,0,0,0,4-5c5.23-9,3.83-15.42.31-17.46s-9.67-.26-15,8.92a29.64,29.64,0,0,0-2.56,6.43,29,29,0,0,0-2.63-6.4c-5.34-9-11.63-10.82-15.12-8.74s-4.92,8.33.52,17.45a27.78,27.78,0,0,0,3.8,4.76,27.75,27.75,0,0,0-6-.82c-10.42,0-15.25,4.43-15.25,8.5s4.63,8.5,15.25,8.5a28.16,28.16,0,0,0,6.35-.9,28.45,28.45,0,0,0-4,5c-5.23,9-3.82,15.42-.3,17.46s9.67.26,15-8.93a28.47,28.47,0,0,0,2.56-6.43,28.32,28.32,0,0,0,2.64,6.4c5.34,9,11.62,10.83,15.11,8.75s4.92-8.34-.52-17.46a28.16,28.16,0,0,0-3.8-4.76,27.29,27.29,0,0,0,6,.83C375.31,103.56,380.14,99.12,380.14,95.06ZM345.35,97a3.08,3.08,0,0,0-.75-.65,2.85,2.85,0,0,0-.9-.32,2.73,2.73,0,0,0,0-1.87,2.7,2.7,0,0,0,.87-.33,3.08,3.08,0,0,0,.74-.66,2.73,2.73,0,0,0,.75.65,3,3,0,0,0,.9.33,2.79,2.79,0,0,0-.17.94A2.92,2.92,0,0,0,347,96a2.87,2.87,0,0,0-.87.34A2.55,2.55,0,0,0,345.35,97Z"/><path class="cls-5" d="M345.07,102.87a7.81,7.81,0,1,1,7.81-7.81A7.81,7.81,0,0,1,345.07,102.87Z"/><path class="cls-3" d="M333.23,94.2c.78,0,2.31.38,2.31.86s-1.53.86-2.31.86c-1.35,0-1.94-.45-1.94-.86S331.91,94.2,333.23,94.2Z"/><path class="cls-3" d="M349.82,105.8c-.36-.68-.75-2.21-.33-2.44s1.48.94,1.85,1.61c.64,1.19.53,1.93.17,2.12S350.46,107,349.82,105.8Z"/><path class="cls-3" d="M340.14,84.32c.37.68.76,2.21.34,2.43s-1.49-.93-1.86-1.61c-.64-1.19-.53-1.92-.16-2.12S339.51,83.15,340.14,84.32Z"/><path class="cls-3" d="M351.82,85.47c-.4.66-1.52,1.76-1.93,1.52s.06-1.76.46-2.42c.7-1.16,1.39-1.43,1.74-1.21S352.51,84.33,351.82,85.47Z"/><path class="cls-3" d="M338.14,104.65c.4-.66,1.53-1.77,1.94-1.52s-.06,1.76-.46,2.42c-.7,1.15-1.4,1.42-1.75,1.21S337.46,105.78,338.14,104.65Z"/><path class="cls-3" d="M354.62,101.84c-.67-.4-1.78-1.52-1.54-1.93s1.76,0,2.42.45c1.16.69,1.44,1.38,1.22,1.74S355.75,102.52,354.62,101.84Z"/><path class="cls-3" d="M335.35,88.28c.66.39,1.78,1.51,1.53,1.92s-1.75,0-2.42-.44c-1.16-.7-1.43-1.39-1.22-1.74S334.21,87.59,335.35,88.28Z"/><path class="cls-3" d="M343.61,106.76c0-.77.49-2.29,1-2.27s.8,1.57.77,2.34c-.06,1.35-.54,1.92-.95,1.9S343.56,108.08,343.61,106.76Z"/><path class="cls-3" d="M346.35,83.36c0,.77-.48,2.28-1,2.26s-.79-1.57-.76-2.34c.06-1.35.53-1.92.94-1.9S346.41,82,346.35,83.36Z"/><path class="cls-3" d="M355.78,90.35c-.68.36-2.22.73-2.44.31s1-1.48,1.64-1.84c1.19-.63,1.93-.5,2.12-.14S357,89.73,355.78,90.35Z"/><path class="cls-3" d="M334.18,99.77c.69-.36,2.22-.73,2.44-.31s-.95,1.47-1.63,1.83c-1.2.63-1.93.51-2.12.15S333,100.39,334.18,99.77Z"/><path class="cls-1" d="M430.92,135.05a11,11,0,0,1-5.54-1.46c-3.41-2-5.49-5.75-5.7-10.35A23.86,23.86,0,0,1,422,112.51c-11.4-1.14-16.56-7.35-16.56-13.5,0-5.89,5.12-12.2,16.28-13.45-4.71-10.24-2-17.75,3.21-20.88a10.88,10.88,0,0,1,5.6-1.51c5.2,0,10.45,3.31,14.73,9.17C451,64.27,456.82,63,460,63a11.07,11.07,0,0,1,5.54,1.46c3.41,2,5.49,5.76,5.7,10.36a24,24,0,0,1-2.35,10.73c11.4,1.14,16.56,7.34,16.56,13.49,0,5.9-5.13,12.2-16.28,13.46a23.26,23.26,0,0,1,2.4,10.54c-.18,4.55-2.22,8.31-5.61,10.34a11,11,0,0,1-5.61,1.5c-5.19,0-10.44-3.3-14.72-9.17C440,133.76,434.09,135.05,430.92,135.05Z"/><path class="cls-2" d="M426.6,130.74a11.1,11.1,0,0,1-5.54-1.46c-3.41-2-5.49-5.76-5.7-10.36a23.88,23.88,0,0,1,2.36-10.73c-11.41-1.14-16.57-7.34-16.57-13.49,0-5.9,5.13-12.2,16.28-13.46-4.7-10.24-2-17.75,3.21-20.88a11,11,0,0,1,5.61-1.5c5.2,0,10.44,3.3,14.72,9.17,5.67-8.08,11.53-9.37,14.7-9.37a11,11,0,0,1,5.55,1.46c3.41,2,5.48,5.75,5.69,10.35a23.77,23.77,0,0,1-2.35,10.74c11.41,1.14,16.56,7.34,16.56,13.49,0,5.9-5.12,12.2-16.27,13.45a23.28,23.28,0,0,1,2.39,10.55c-.17,4.54-2.22,8.31-5.61,10.33a10.88,10.88,0,0,1-5.6,1.51c-5.2,0-10.44-3.3-14.72-9.17C435.64,129.44,429.78,130.74,426.6,130.74Z"/><path class="cls-3" d="M452.54,95.56c-.77,0-2.31-.39-2.31-.86s1.54-.86,2.31-.86c1.35,0,1.94.45,1.94.86S453.86,95.56,452.54,95.56Z"/><path class="cls-4" d="M476,94.7c0-4.07-4.64-8.5-15.26-8.5a28.16,28.16,0,0,0-6.35.9,28.82,28.82,0,0,0,4-5c5.23-9,3.82-15.42.31-17.46s-9.68-.26-15,8.92A28.66,28.66,0,0,0,441.05,80a29,29,0,0,0-2.63-6.4c-5.35-9-11.63-10.82-15.12-8.74s-4.92,8.33.52,17.45a27.78,27.78,0,0,0,3.8,4.76,27.83,27.83,0,0,0-6-.82c-10.43,0-15.26,4.43-15.26,8.5s4.63,8.5,15.26,8.5a28.24,28.24,0,0,0,6.35-.9,28,28,0,0,0-4,5c-5.23,9-3.82,15.42-.31,17.46s9.68.26,15-8.93a28.94,28.94,0,0,0,2.56-6.43,28.81,28.81,0,0,0,2.63,6.4c5.34,9,11.63,10.83,15.12,8.75s4.92-8.34-.52-17.46a28.16,28.16,0,0,0-3.8-4.76,27.21,27.21,0,0,0,6,.83C471.11,103.2,476,98.76,476,94.7Zm-34.8,1.91a2.91,2.91,0,0,0-.75-.65,2.76,2.76,0,0,0-.9-.32,2.79,2.79,0,0,0,.17-.94,3,3,0,0,0-.16-.93,2.75,2.75,0,0,0,.88-.33,3.08,3.08,0,0,0,.74-.66,2.84,2.84,0,0,0,.74.65,3.14,3.14,0,0,0,.9.33,3.05,3.05,0,0,0-.17.94,2.67,2.67,0,0,0,.17.92,2.93,2.93,0,0,0-.88.34A2.84,2.84,0,0,0,441.15,96.61Z"/><path class="cls-5" d="M440.88,102.51a7.81,7.81,0,1,1,7.81-7.81A7.82,7.82,0,0,1,440.88,102.51Z"/><path class="cls-3" d="M429,93.84c.77,0,2.3.38,2.3.86s-1.53.86-2.3.86c-1.35,0-1.94-.45-1.94-.86S427.71,93.84,429,93.84Z"/><path class="cls-3" d="M445.63,105.44c-.37-.68-.76-2.21-.34-2.44s1.49.94,1.86,1.62c.64,1.18.53,1.92.16,2.11S446.26,106.6,445.63,105.44Z"/><path class="cls-3" d="M436,84c.36.68.75,2.21.34,2.43s-1.49-.93-1.86-1.61c-.64-1.19-.53-1.92-.17-2.12S435.31,82.79,436,84Z"/><path class="cls-3" d="M447.63,85.11c-.4.66-1.53,1.76-1.94,1.52s.06-1.76.46-2.42c.71-1.16,1.4-1.43,1.75-1.21S448.32,84,447.63,85.11Z"/><path class="cls-3" d="M434,104.29c.4-.66,1.53-1.77,1.93-1.52s-.06,1.76-.46,2.42c-.7,1.15-1.39,1.42-1.74,1.21S433.26,105.42,434,104.29Z"/><path class="cls-3" d="M450.42,101.48c-.66-.4-1.77-1.52-1.53-1.93s1.76,0,2.42.45c1.16.69,1.43,1.38,1.22,1.74S451.56,102.16,450.42,101.48Z"/><path class="cls-3" d="M431.16,87.92c.66.39,1.77,1.51,1.53,1.92s-1.76,0-2.42-.44c-1.16-.7-1.43-1.39-1.22-1.74S430,87.24,431.16,87.92Z"/><path class="cls-3" d="M439.42,106.4c0-.77.48-2.29,1-2.27s.8,1.57.76,2.34c-.06,1.35-.53,1.92-.94,1.9S439.36,107.72,439.42,106.4Z"/><path class="cls-3" d="M442.16,83c0,.77-.49,2.28-1,2.26s-.8-1.57-.77-2.34c.06-1.35.54-1.92.95-1.9S442.22,81.67,442.16,83Z"/><path class="cls-3" d="M451.59,90c-.69.36-2.22.73-2.44.31s1-1.48,1.63-1.84c1.2-.63,1.93-.5,2.12-.14S452.76,89.37,451.59,90Z"/><path class="cls-3" d="M430,99.41c.68-.36,2.22-.73,2.44-.31s-.95,1.47-1.64,1.83c-1.19.63-1.92.51-2.12.15S428.82,100,430,99.41Z"/><path class="cls-1" d="M148.68,135.71a11,11,0,0,1-5.54-1.46c-3.41-2-5.49-5.75-5.7-10.35a24,24,0,0,1,2.35-10.73c-11.4-1.15-16.56-7.35-16.56-13.5,0-5.9,5.13-12.2,16.28-13.45-4.71-10.24-2-17.75,3.21-20.88a10.88,10.88,0,0,1,5.6-1.51c5.2,0,10.45,3.31,14.73,9.17,5.66-8.07,11.53-9.37,14.7-9.37a11.07,11.07,0,0,1,5.54,1.46c3.41,2,5.49,5.76,5.7,10.36a24,24,0,0,1-2.35,10.73c11.4,1.14,16.56,7.34,16.56,13.49,0,5.9-5.13,12.2-16.28,13.46a23.26,23.26,0,0,1,2.4,10.54c-.18,4.55-2.22,8.31-5.61,10.34a11,11,0,0,1-5.6,1.5c-5.2,0-10.45-3.3-14.73-9.17C157.72,134.42,151.85,135.71,148.68,135.71Z"/><path class="cls-2" d="M144.36,131.4a11.1,11.1,0,0,1-5.54-1.46c-3.41-2-5.48-5.76-5.7-10.36a23.88,23.88,0,0,1,2.36-10.73c-11.41-1.14-16.57-7.34-16.57-13.49,0-5.9,5.13-12.2,16.28-13.46-4.7-10.24-2-17.75,3.21-20.88a11,11,0,0,1,5.61-1.5c5.2,0,10.44,3.3,14.72,9.17,5.67-8.08,11.53-9.37,14.71-9.37A11,11,0,0,1,179,60.78c3.41,2,5.48,5.75,5.7,10.35a24,24,0,0,1-2.36,10.74c11.41,1.14,16.57,7.34,16.57,13.49,0,5.9-5.13,12.2-16.28,13.45A23.15,23.15,0,0,1,185,119.36c-.17,4.54-2.22,8.31-5.61,10.33a10.85,10.85,0,0,1-5.6,1.51c-5.2,0-10.44-3.31-14.72-9.17C153.4,130.1,147.54,131.4,144.36,131.4Z"/><path class="cls-3" d="M170.3,96.22c-.77,0-2.3-.39-2.3-.86s1.53-.87,2.3-.87c1.35,0,1.94.46,1.94.87S171.63,96.22,170.3,96.22Z"/><path class="cls-4" d="M193.71,95.36c0-4.07-4.64-8.5-15.26-8.5a28.24,28.24,0,0,0-6.35.9,28.82,28.82,0,0,0,4-5c5.23-9,3.82-15.42.31-17.46s-9.68-.27-15,8.92a28.66,28.66,0,0,0-2.56,6.43,29,29,0,0,0-2.63-6.4c-5.34-8.95-11.63-10.82-15.12-8.74s-4.92,8.33.52,17.45a27.78,27.78,0,0,0,3.8,4.76,27.75,27.75,0,0,0-6-.82c-10.42,0-15.26,4.43-15.26,8.5s4.64,8.5,15.26,8.5a28.24,28.24,0,0,0,6.35-.9,28.45,28.45,0,0,0-4,5c-5.23,9-3.82,15.42-.31,17.46s9.68.26,15-8.93A28.94,28.94,0,0,0,159,110.1a29,29,0,0,0,2.63,6.4c5.34,9,11.63,10.83,15.12,8.75s4.92-8.34-.52-17.46a28.16,28.16,0,0,0-3.8-4.76,27.21,27.21,0,0,0,6,.83C188.87,103.86,193.71,99.42,193.71,95.36Zm-34.8,1.91a2.91,2.91,0,0,0-.75-.65,2.71,2.71,0,0,0-.89-.32,2.66,2.66,0,0,0,0-1.87,2.67,2.67,0,0,0,.88-.33,3.08,3.08,0,0,0,.74-.66,2.84,2.84,0,0,0,.74.65,3.09,3.09,0,0,0,.91.33,2.8,2.8,0,0,0-.18.94,2.93,2.93,0,0,0,.17.92,2.93,2.93,0,0,0-.88.34A2.84,2.84,0,0,0,158.91,97.27Z"/><path class="cls-5" d="M158.64,103.17a7.81,7.81,0,1,1,7.81-7.81A7.81,7.81,0,0,1,158.64,103.17Z"/><path class="cls-3" d="M146.8,94.49c.77,0,2.3.39,2.3.87s-1.53.86-2.3.86c-1.35,0-1.94-.45-1.94-.86S145.48,94.49,146.8,94.49Z"/><path class="cls-3" d="M163.39,106.1c-.37-.68-.76-2.21-.34-2.44s1.49.94,1.86,1.61c.64,1.19.53,1.93.17,2.12S164,107.26,163.39,106.1Z"/><path class="cls-3" d="M153.71,84.62c.37.68.76,2.21.34,2.43s-1.49-.93-1.86-1.61c-.64-1.19-.53-1.92-.17-2.12S153.08,83.45,153.71,84.62Z"/><path class="cls-3" d="M165.39,85.77c-.4.66-1.53,1.76-1.93,1.52s0-1.76.45-2.42c.71-1.16,1.4-1.43,1.75-1.21S166.08,84.63,165.39,85.77Z"/><path class="cls-3" d="M151.71,105c.4-.66,1.53-1.77,1.93-1.52s0,1.76-.45,2.42c-.71,1.15-1.4,1.42-1.75,1.21S151,106.08,151.71,105Z"/><path class="cls-3" d="M168.18,102.14c-.66-.4-1.77-1.52-1.53-1.93s1.76.05,2.42.45c1.16.69,1.43,1.38,1.22,1.74S169.32,102.82,168.18,102.14Z"/><path class="cls-3" d="M148.92,88.58c.66.39,1.77,1.51,1.53,1.92s-1.76,0-2.42-.44c-1.16-.7-1.43-1.39-1.22-1.74S147.78,87.89,148.92,88.58Z"/><path class="cls-3" d="M157.18,107.06c0-.77.49-2.29,1-2.27s.8,1.57.76,2.34c-.05,1.35-.53,1.92-.94,1.9S157.12,108.38,157.18,107.06Z"/><path class="cls-3" d="M159.92,83.66c0,.77-.49,2.28-1,2.26s-.8-1.57-.76-2.34c.05-1.35.53-1.92.94-1.9S160,82.33,159.92,83.66Z"/><path class="cls-3" d="M169.35,90.65c-.68.36-2.22.73-2.44.31s1-1.48,1.63-1.84c1.2-.63,1.93-.5,2.13-.14S170.52,90,169.35,90.65Z"/><path class="cls-3" d="M147.75,100.07c.69-.36,2.22-.73,2.44-.31s-.95,1.47-1.63,1.83c-1.2.63-1.93.51-2.12.15S146.58,100.69,147.75,100.07Z"/><path class="cls-1" d="M241.9,135.41a11,11,0,0,1-5.55-1.46c-3.41-2-5.48-5.75-5.69-10.35A23.7,23.7,0,0,1,233,112.87c-11.41-1.14-16.56-7.35-16.56-13.5,0-5.89,5.12-12.2,16.27-13.45-4.7-10.24-2-17.75,3.22-20.88a10.85,10.85,0,0,1,5.6-1.51c5.2,0,10.44,3.31,14.72,9.17,5.67-8.07,11.53-9.37,14.71-9.37a11.1,11.1,0,0,1,5.54,1.46c3.41,2,5.49,5.76,5.7,10.36a23.88,23.88,0,0,1-2.36,10.73c11.41,1.14,16.57,7.34,16.57,13.49,0,5.9-5.13,12.2-16.28,13.46a23.26,23.26,0,0,1,2.4,10.54c-.18,4.55-2.22,8.31-5.61,10.34a11,11,0,0,1-5.61,1.5c-5.19,0-10.44-3.3-14.72-9.17C250.94,134.12,245.07,135.41,241.9,135.41Z"/><path class="cls-2" d="M237.58,131.1a11.07,11.07,0,0,1-5.54-1.46c-3.41-2-5.49-5.76-5.7-10.36a24,24,0,0,1,2.35-10.73c-11.4-1.14-16.56-7.34-16.56-13.49,0-5.9,5.13-12.2,16.28-13.46-4.7-10.24-2-17.75,3.21-20.88a11,11,0,0,1,5.6-1.5c5.2,0,10.45,3.3,14.73,9.17,5.66-8.08,11.53-9.37,14.7-9.37a11,11,0,0,1,5.54,1.46c3.41,2,5.49,5.75,5.7,10.35a23.93,23.93,0,0,1-2.35,10.74c11.4,1.14,16.56,7.34,16.56,13.49,0,5.9-5.12,12.2-16.27,13.45a23.28,23.28,0,0,1,2.39,10.55c-.17,4.54-2.22,8.31-5.61,10.33a10.88,10.88,0,0,1-5.6,1.51c-5.2,0-10.45-3.3-14.73-9.17C246.62,129.8,240.75,131.1,237.58,131.1Z"/><path class="cls-3" d="M263.52,95.92c-.78,0-2.31-.39-2.31-.86s1.53-.86,2.31-.86c1.35,0,1.94.45,1.94.86S264.84,95.92,263.52,95.92Z"/><path class="cls-4" d="M286.92,95.06c0-4.07-4.63-8.5-15.25-8.5a28.32,28.32,0,0,0-6.36.9,27.89,27.89,0,0,0,4-5c5.24-9,3.83-15.42.31-17.46s-9.67-.26-15,8.92A28.66,28.66,0,0,0,252,80.31a29,29,0,0,0-2.64-6.4c-5.34-9-11.62-10.82-15.11-8.74s-4.93,8.33.52,17.45a27.29,27.29,0,0,0,3.8,4.76,27.91,27.91,0,0,0-6-.82c-10.42,0-15.25,4.43-15.25,8.5s4.63,8.5,15.25,8.5a28.32,28.32,0,0,0,6.36-.9,28,28,0,0,0-4,5c-5.23,9-3.83,15.42-.31,17.46s9.67.26,15-8.93a29,29,0,0,0,2.55-6.43,28.79,28.79,0,0,0,2.64,6.4c5.34,9,11.62,10.83,15.12,8.75s4.92-8.34-.53-17.46a27.67,27.67,0,0,0-3.8-4.76,27.37,27.37,0,0,0,6,.83C282.09,103.56,286.92,99.12,286.92,95.06ZM252.13,97a2.91,2.91,0,0,0-.75-.65,2.76,2.76,0,0,0-.9-.32,2.79,2.79,0,0,0,.17-.94,3,3,0,0,0-.16-.93,2.75,2.75,0,0,0,.88-.33,2.86,2.86,0,0,0,.73-.66,2.88,2.88,0,0,0,.75.65,3.14,3.14,0,0,0,.9.33,3.05,3.05,0,0,0-.17.94,2.92,2.92,0,0,0,.16.92,3,3,0,0,0-.87.34A2.84,2.84,0,0,0,252.13,97Z"/><path class="cls-5" d="M251.85,102.87a7.81,7.81,0,1,1,7.81-7.81A7.81,7.81,0,0,1,251.85,102.87Z"/><path class="cls-3" d="M240,94.2c.77,0,2.3.38,2.3.86s-1.53.86-2.3.86c-1.35,0-1.94-.45-1.94-.86S238.69,94.2,240,94.2Z"/><path class="cls-3" d="M256.61,105.8c-.37-.68-.76-2.21-.34-2.44s1.49.94,1.85,1.61c.65,1.19.53,1.93.17,2.12S257.24,107,256.61,105.8Z"/><path class="cls-3" d="M246.92,84.32c.37.68.76,2.21.34,2.43s-1.48-.93-1.85-1.61c-.65-1.19-.53-1.92-.17-2.12S246.29,83.15,246.92,84.32Z"/><path class="cls-3" d="M258.61,85.47c-.4.66-1.53,1.76-1.94,1.52s.06-1.76.46-2.42c.7-1.16,1.4-1.43,1.75-1.21S259.3,84.33,258.61,85.47Z"/><path class="cls-3" d="M244.93,104.65c.4-.66,1.52-1.77,1.93-1.52s-.06,1.76-.46,2.42c-.7,1.15-1.39,1.42-1.74,1.21S244.24,105.78,244.93,104.65Z"/><path class="cls-3" d="M261.4,101.84c-.66-.4-1.78-1.52-1.53-1.93s1.75,0,2.42.45c1.16.69,1.43,1.38,1.22,1.74S262.54,102.52,261.4,101.84Z"/><path class="cls-3" d="M242.13,88.28c.67.39,1.78,1.51,1.54,1.92s-1.76,0-2.42-.44c-1.16-.7-1.44-1.39-1.23-1.74S241,87.59,242.13,88.28Z"/><path class="cls-3" d="M250.4,106.76c0-.77.48-2.29,1-2.27s.79,1.57.76,2.34c-.06,1.35-.53,1.92-1,1.9S250.34,108.08,250.4,106.76Z"/><path class="cls-3" d="M253.14,83.36c0,.77-.49,2.28-1,2.26s-.8-1.57-.77-2.34c.06-1.35.54-1.92,1-1.9S253.19,82,253.14,83.36Z"/><path class="cls-3" d="M262.56,90.35c-.68.36-2.21.73-2.44.31s1-1.48,1.64-1.84c1.2-.63,1.93-.5,2.12-.14S263.74,89.73,262.56,90.35Z"/><path class="cls-3" d="M241,99.77c.68-.36,2.22-.73,2.44-.31s-.95,1.47-1.64,1.83c-1.19.63-1.93.51-2.12.15S239.8,100.39,241,99.77Z"/><path class="cls-1" d="M56.33,231.17a11.14,11.14,0,0,1-5.55-1.46c-3.41-2-5.48-5.76-5.69-10.36a23.73,23.73,0,0,1,2.35-10.73c-11.41-1.14-16.56-7.34-16.56-13.49,0-5.9,5.12-12.2,16.27-13.46-4.7-10.24-2-17.75,3.22-20.88a11,11,0,0,1,5.6-1.5c5.2,0,10.44,3.3,14.72,9.17,5.67-8.08,11.53-9.37,14.71-9.37a11,11,0,0,1,5.54,1.46c3.41,2,5.49,5.75,5.7,10.35a24,24,0,0,1-2.36,10.74c11.41,1.14,16.57,7.34,16.57,13.49,0,5.9-5.13,12.2-16.28,13.45A23.3,23.3,0,0,1,97,219.13c-.18,4.54-2.22,8.31-5.61,10.33A10.89,10.89,0,0,1,85.75,231c-5.19,0-10.44-3.31-14.72-9.17C65.37,229.87,59.5,231.17,56.33,231.17Z"/><path class="cls-2" d="M52,226.85a11,11,0,0,1-5.54-1.46c-3.41-2-5.49-5.75-5.7-10.35a24,24,0,0,1,2.35-10.74c-11.4-1.14-16.56-7.34-16.56-13.49,0-5.9,5.13-12.2,16.28-13.45-4.7-10.25-2-17.76,3.21-20.88a10.88,10.88,0,0,1,5.6-1.51c5.2,0,10.45,3.3,14.73,9.17,5.66-8.07,11.53-9.37,14.7-9.37a11.07,11.07,0,0,1,5.54,1.46c3.41,2,5.49,5.76,5.7,10.36A23.86,23.86,0,0,1,90,177.32c11.41,1.14,16.56,7.34,16.56,13.49,0,5.9-5.12,12.2-16.27,13.46a23.21,23.21,0,0,1,2.39,10.54c-.17,4.55-2.22,8.31-5.61,10.34a11,11,0,0,1-5.6,1.5c-5.2,0-10.45-3.3-14.73-9.17C61.05,225.56,55.18,226.85,52,226.85Z"/><path class="cls-3" d="M78,191.67c-.78,0-2.31-.38-2.31-.86S77.17,190,78,190c1.35,0,1.94.45,1.94.86S79.27,191.67,78,191.67Z"/><path class="cls-4" d="M101.35,190.81c0-4.06-4.63-8.5-15.25-8.5a28.32,28.32,0,0,0-6.36.9,27.55,27.55,0,0,0,4-5c5.24-9,3.83-15.42.31-17.46s-9.67-.26-15,8.93a28.28,28.28,0,0,0-2.56,6.43,28.79,28.79,0,0,0-2.64-6.4c-5.34-8.95-11.62-10.83-15.11-8.75s-4.93,8.34.52,17.46a27.67,27.67,0,0,0,3.8,4.76,27.37,27.37,0,0,0-6-.83c-10.42,0-15.25,4.44-15.25,8.5s4.63,8.5,15.25,8.5a28.32,28.32,0,0,0,6.36-.9,28.35,28.35,0,0,0-4,5c-5.23,9-3.83,15.42-.31,17.46s9.67.26,15-8.92a29.64,29.64,0,0,0,2.56-6.43,28.73,28.73,0,0,0,2.63,6.4c5.34,8.95,11.62,10.82,15.12,8.74s4.92-8.33-.53-17.45a26.93,26.93,0,0,0-3.8-4.76,27.91,27.91,0,0,0,6,.82C96.52,199.31,101.35,194.88,101.35,190.81Zm-34.79,1.92a2.73,2.73,0,0,0-.75-.65,3,3,0,0,0-.9-.33,2.79,2.79,0,0,0,.17-.94,2.92,2.92,0,0,0-.16-.92,3,3,0,0,0,.88-.34,2.65,2.65,0,0,0,.73-.65,2.75,2.75,0,0,0,1.65,1,2.73,2.73,0,0,0,0,1.87,2.7,2.7,0,0,0-.87.33A3.08,3.08,0,0,0,66.56,192.73Z"/><path class="cls-5" d="M66.28,198.62a7.81,7.81,0,1,1,7.82-7.81A7.81,7.81,0,0,1,66.28,198.62Z"/><path class="cls-3" d="M54.45,190c.77,0,2.3.39,2.3.86s-1.53.86-2.3.86c-1.35,0-1.94-.45-1.94-.86S53.12,190,54.45,190Z"/><path class="cls-3" d="M71,201.55c-.37-.68-.76-2.21-.34-2.43s1.49.93,1.85,1.61c.65,1.19.53,1.92.17,2.12S71.67,202.72,71,201.55Z"/><path class="cls-3" d="M61.35,180.07c.37.68.76,2.21.34,2.44s-1.48-.94-1.85-1.62c-.65-1.18-.53-1.92-.17-2.11S60.72,178.91,61.35,180.07Z"/><path class="cls-3" d="M73,181.22c-.4.66-1.53,1.77-1.94,1.52s.06-1.76.46-2.42c.7-1.15,1.4-1.42,1.75-1.21S73.73,180.09,73,181.22Z"/><path class="cls-3" d="M59.36,200.4c.4-.66,1.52-1.76,1.93-1.52s-.06,1.76-.46,2.42c-.7,1.15-1.39,1.42-1.74,1.21S58.67,201.54,59.36,200.4Z"/><path class="cls-3" d="M75.83,197.59c-.66-.4-1.78-1.51-1.53-1.92s1.75.05,2.42.44c1.16.7,1.43,1.39,1.22,1.74S77,198.27,75.83,197.59Z"/><path class="cls-3" d="M56.56,184c.67.4,1.78,1.52,1.54,1.92s-1.76,0-2.42-.44c-1.16-.7-1.44-1.38-1.23-1.74S55.43,183.35,56.56,184Z"/><path class="cls-3" d="M64.83,202.51c0-.77.48-2.28,1-2.26s.79,1.57.76,2.34c-.06,1.35-.53,1.92-.94,1.9S64.77,203.84,64.83,202.51Z"/><path class="cls-3" d="M67.57,179.11c0,.77-.49,2.29-1,2.27s-.8-1.57-.77-2.34c.06-1.35.54-1.92,1-1.91S67.62,177.79,67.57,179.11Z"/><path class="cls-3" d="M77,186.1c-.68.36-2.21.73-2.44.31s1-1.47,1.64-1.83c1.2-.63,1.93-.51,2.12-.15S78.17,185.48,77,186.1Z"/><path class="cls-3" d="M55.4,195.52c.68-.36,2.22-.73,2.44-.31s-1,1.48-1.64,1.84c-1.19.63-1.93.51-2.12.14S54.23,196.14,55.4,195.52Z"/><path class="cls-1" d="M335.11,230.87a11.1,11.1,0,0,1-5.54-1.46c-3.41-2-5.49-5.76-5.7-10.36a23.88,23.88,0,0,1,2.36-10.73c-11.41-1.14-16.57-7.34-16.57-13.49,0-5.9,5.13-12.2,16.28-13.46-4.7-10.24-2-17.75,3.21-20.88a11,11,0,0,1,5.61-1.5c5.19,0,10.44,3.3,14.72,9.17,5.67-8.08,11.53-9.37,14.7-9.37a11,11,0,0,1,5.55,1.46c3.41,2,5.48,5.75,5.69,10.35a23.8,23.8,0,0,1-2.35,10.74c11.41,1.14,16.56,7.34,16.56,13.49,0,5.9-5.12,12.2-16.27,13.45a23.28,23.28,0,0,1,2.39,10.55c-.17,4.54-2.22,8.31-5.61,10.33a10.88,10.88,0,0,1-5.6,1.51c-5.2,0-10.44-3.31-14.72-9.17C344.15,229.57,338.29,230.87,335.11,230.87Z"/><path class="cls-2" d="M330.8,226.55a11,11,0,0,1-5.55-1.46c-3.4-2-5.48-5.75-5.69-10.35A23.77,23.77,0,0,1,321.91,204c-11.41-1.14-16.56-7.34-16.56-13.49,0-5.9,5.12-12.2,16.28-13.45-4.71-10.25-2-17.75,3.21-20.88a10.88,10.88,0,0,1,5.6-1.51c5.2,0,10.45,3.3,14.72,9.17,5.67-8.07,11.53-9.37,14.71-9.37a11.1,11.1,0,0,1,5.54,1.46c3.41,2,5.49,5.76,5.7,10.36A24,24,0,0,1,368.76,177c11.4,1.14,16.56,7.34,16.56,13.49,0,5.9-5.13,12.2-16.28,13.46a23.23,23.23,0,0,1,2.4,10.54c-.18,4.55-2.22,8.31-5.61,10.34a11,11,0,0,1-5.61,1.5c-5.19,0-10.44-3.3-14.72-9.17C339.84,225.26,334,226.55,330.8,226.55Z"/><path class="cls-3" d="M356.73,191.37c-.77,0-2.3-.38-2.3-.86s1.53-.86,2.3-.86c1.35,0,1.94.45,1.94.86S358.06,191.37,356.73,191.37Z"/><path class="cls-4" d="M380.14,190.51c0-4.06-4.63-8.5-15.25-8.5a28.32,28.32,0,0,0-6.36.9,28,28,0,0,0,4-5c5.23-9,3.83-15.42.31-17.46s-9.67-.26-15,8.93a29.23,29.23,0,0,0-2.56,6.43,28.81,28.81,0,0,0-2.63-6.4c-5.34-9-11.63-10.83-15.12-8.75s-4.92,8.34.52,17.46a28.16,28.16,0,0,0,3.8,4.76,27.21,27.21,0,0,0-6-.83c-10.42,0-15.25,4.44-15.25,8.5s4.63,8.5,15.25,8.5a28.16,28.16,0,0,0,6.35-.9,28.82,28.82,0,0,0-4,5c-5.23,9-3.82,15.42-.3,17.46s9.67.26,15-8.92a28.66,28.66,0,0,0,2.56-6.43,28.72,28.72,0,0,0,2.64,6.4c5.34,9,11.62,10.82,15.11,8.74s4.92-8.33-.52-17.45a27.4,27.4,0,0,0-3.8-4.76,27.83,27.83,0,0,0,6,.82C375.31,199,380.14,194.58,380.14,190.51Zm-34.79,1.92a2.88,2.88,0,0,0-.75-.65,3.14,3.14,0,0,0-.9-.33,3.05,3.05,0,0,0,.17-.94,2.92,2.92,0,0,0-.16-.92,3,3,0,0,0,.87-.34,2.84,2.84,0,0,0,.74-.65,2.69,2.69,0,0,0,.75.64,2.78,2.78,0,0,0,.9.33,2.79,2.79,0,0,0-.17.94,3,3,0,0,0,.16.93,2.62,2.62,0,0,0-.87.33A2.74,2.74,0,0,0,345.35,192.43Z"/><path class="cls-5" d="M345.07,198.32a7.81,7.81,0,1,1,7.81-7.81A7.81,7.81,0,0,1,345.07,198.32Z"/><path class="cls-3" d="M333.23,189.65c.78,0,2.31.39,2.31.86s-1.53.86-2.31.86c-1.35,0-1.94-.45-1.94-.86S331.91,189.65,333.23,189.65Z"/><path class="cls-3" d="M349.82,201.25c-.36-.68-.75-2.21-.33-2.43s1.48.93,1.85,1.61c.64,1.19.53,1.92.17,2.12S350.46,202.42,349.82,201.25Z"/><path class="cls-3" d="M340.14,179.77c.37.68.76,2.21.34,2.44s-1.49-.94-1.86-1.62c-.64-1.18-.53-1.92-.16-2.11S339.51,178.61,340.14,179.77Z"/><path class="cls-3" d="M351.82,180.92c-.4.66-1.52,1.77-1.93,1.52s.06-1.76.46-2.42c.7-1.15,1.39-1.42,1.74-1.21S352.51,179.79,351.82,180.92Z"/><path class="cls-3" d="M338.14,200.1c.4-.66,1.53-1.76,1.94-1.52s-.06,1.76-.46,2.42c-.7,1.15-1.4,1.42-1.75,1.21S337.46,201.24,338.14,200.1Z"/><path class="cls-3" d="M354.62,197.29c-.67-.4-1.78-1.51-1.54-1.92s1.76,0,2.42.44c1.16.7,1.44,1.39,1.22,1.74S355.75,198,354.62,197.29Z"/><path class="cls-3" d="M335.35,183.73c.66.4,1.78,1.52,1.53,1.93s-1.75,0-2.42-.45c-1.16-.69-1.43-1.38-1.22-1.74S334.21,183.05,335.35,183.73Z"/><path class="cls-3" d="M343.61,202.21c0-.77.49-2.28,1-2.26s.8,1.57.77,2.34c-.06,1.35-.54,1.92-.95,1.9S343.56,203.54,343.61,202.21Z"/><path class="cls-3" d="M346.35,178.81c0,.77-.48,2.29-1,2.27s-.79-1.57-.76-2.34c.06-1.35.53-1.92.94-1.91S346.41,177.49,346.35,178.81Z"/><path class="cls-3" d="M355.78,185.8c-.68.36-2.22.73-2.44.31s1-1.47,1.64-1.83c1.19-.63,1.93-.51,2.12-.15S357,185.18,355.78,185.8Z"/><path class="cls-3" d="M334.18,195.22c.69-.36,2.22-.73,2.44-.31s-.95,1.48-1.63,1.84c-1.2.63-1.93.51-2.12.14S333,195.84,334.18,195.22Z"/><path class="cls-1" d="M430.92,230.51a11.07,11.07,0,0,1-5.54-1.46c-3.41-2-5.49-5.76-5.7-10.36A23.86,23.86,0,0,1,422,208c-11.4-1.14-16.56-7.34-16.56-13.49,0-5.9,5.12-12.2,16.28-13.46-4.71-10.24-2-17.75,3.21-20.88a11,11,0,0,1,5.6-1.5c5.2,0,10.45,3.3,14.73,9.17,5.66-8.08,11.53-9.37,14.7-9.37a11,11,0,0,1,5.54,1.46c3.41,2,5.49,5.75,5.7,10.35A24.06,24.06,0,0,1,468.88,181c11.4,1.14,16.56,7.34,16.56,13.49,0,5.9-5.13,12.2-16.28,13.45a23.3,23.3,0,0,1,2.4,10.55c-.18,4.54-2.22,8.31-5.61,10.33a10.89,10.89,0,0,1-5.61,1.51c-5.19,0-10.44-3.31-14.72-9.17C440,229.21,434.09,230.51,430.92,230.51Z"/><path class="cls-2" d="M426.6,226.19a11,11,0,0,1-5.54-1.46c-3.41-2-5.49-5.75-5.7-10.35a23.92,23.92,0,0,1,2.36-10.74c-11.41-1.14-16.57-7.34-16.57-13.49,0-5.9,5.13-12.2,16.28-13.45-4.7-10.25-2-17.75,3.21-20.88a10.89,10.89,0,0,1,5.61-1.51c5.2,0,10.44,3.3,14.72,9.17,5.67-8.07,11.53-9.37,14.7-9.37a11.14,11.14,0,0,1,5.55,1.46c3.41,2,5.48,5.76,5.69,10.36a23.73,23.73,0,0,1-2.35,10.73c11.41,1.14,16.56,7.34,16.56,13.49,0,5.9-5.12,12.2-16.27,13.46a23.21,23.21,0,0,1,2.39,10.54c-.17,4.55-2.22,8.31-5.61,10.34A11,11,0,0,1,456,226c-5.2,0-10.44-3.3-14.72-9.17C435.64,224.9,429.78,226.19,426.6,226.19Z"/><path class="cls-3" d="M452.54,191c-.77,0-2.31-.38-2.31-.86s1.54-.86,2.31-.86c1.35,0,1.94.45,1.94.86S453.86,191,452.54,191Z"/><path class="cls-4" d="M476,190.15c0-4.06-4.64-8.5-15.26-8.5a28.16,28.16,0,0,0-6.35.9,28.45,28.45,0,0,0,4-5c5.23-9,3.82-15.42.31-17.46s-9.68-.26-15,8.93a28.47,28.47,0,0,0-2.56,6.43,28.81,28.81,0,0,0-2.63-6.4c-5.35-8.95-11.63-10.83-15.12-8.75s-4.92,8.34.52,17.46a28.16,28.16,0,0,0,3.8,4.76,27.29,27.29,0,0,0-6-.83c-10.43,0-15.26,4.44-15.26,8.5s4.63,8.5,15.26,8.5a28.24,28.24,0,0,0,6.35-.9,28.35,28.35,0,0,0-4,5c-5.23,9-3.82,15.42-.31,17.46s9.68.26,15-8.92a29.14,29.14,0,0,0,2.56-6.43,29.22,29.22,0,0,0,2.63,6.4c5.34,8.95,11.63,10.82,15.12,8.74s4.92-8.33-.52-17.45a27.4,27.4,0,0,0-3.8-4.76,27.75,27.75,0,0,0,6,.82C471.11,198.65,476,194.22,476,190.15Zm-34.8,1.92a2.73,2.73,0,0,0-.75-.65,3,3,0,0,0-.9-.33,2.79,2.79,0,0,0,.17-.94,2.92,2.92,0,0,0-.16-.92,3,3,0,0,0,.88-.34,2.84,2.84,0,0,0,.74-.65,2.8,2.8,0,0,0,.74.64,2.87,2.87,0,0,0,.9.33,3.05,3.05,0,0,0-.17.94,2.77,2.77,0,0,0,.17.93,2.67,2.67,0,0,0-.88.33A3.08,3.08,0,0,0,441.15,192.07Z"/><path class="cls-5" d="M440.88,198a7.81,7.81,0,1,1,7.81-7.81A7.81,7.81,0,0,1,440.88,198Z"/><path class="cls-3" d="M429,189.29c.77,0,2.3.39,2.3.86s-1.53.86-2.3.86c-1.35,0-1.94-.45-1.94-.86S427.71,189.29,429,189.29Z"/><path class="cls-3" d="M445.63,200.89c-.37-.68-.76-2.21-.34-2.43s1.49.93,1.86,1.61c.64,1.19.53,1.92.16,2.12S446.26,202.06,445.63,200.89Z"/><path class="cls-3" d="M436,179.41c.36.68.75,2.21.34,2.44s-1.49-.94-1.86-1.62c-.64-1.18-.53-1.92-.17-2.11S435.31,178.25,436,179.41Z"/><path class="cls-3" d="M447.63,180.56c-.4.66-1.53,1.77-1.94,1.52s.06-1.76.46-2.42c.71-1.15,1.4-1.42,1.75-1.21S448.32,179.43,447.63,180.56Z"/><path class="cls-3" d="M434,199.74c.4-.66,1.53-1.76,1.93-1.52s-.06,1.76-.46,2.42c-.7,1.15-1.39,1.42-1.74,1.21S433.26,200.88,434,199.74Z"/><path class="cls-3" d="M450.42,196.93c-.66-.39-1.77-1.51-1.53-1.92s1.76.05,2.42.44c1.16.7,1.43,1.39,1.22,1.74S451.56,197.61,450.42,196.93Z"/><path class="cls-3" d="M431.16,183.37c.66.4,1.77,1.52,1.53,1.93s-1.76-.05-2.42-.45c-1.16-.69-1.43-1.38-1.22-1.74S430,182.69,431.16,183.37Z"/><path class="cls-3" d="M439.42,201.85c0-.77.48-2.28,1-2.26s.8,1.57.76,2.34c-.06,1.35-.53,1.92-.94,1.9S439.36,203.18,439.42,201.85Z"/><path class="cls-3" d="M442.16,178.45c0,.77-.49,2.29-1,2.27s-.8-1.57-.77-2.34c.06-1.35.54-1.92.95-1.91S442.22,177.13,442.16,178.45Z"/><path class="cls-3" d="M451.59,185.44c-.69.36-2.22.73-2.44.31s1-1.47,1.63-1.83c1.2-.63,1.93-.51,2.12-.15S452.76,184.82,451.59,185.44Z"/><path class="cls-3" d="M430,194.86c.68-.36,2.22-.73,2.44-.31s-.95,1.48-1.64,1.84c-1.19.63-1.92.51-2.12.14S428.82,195.48,430,194.86Z"/><path class="cls-1" d="M148.68,231.17a11.07,11.07,0,0,1-5.54-1.46c-3.41-2-5.49-5.76-5.7-10.36a24,24,0,0,1,2.35-10.73c-11.4-1.14-16.56-7.34-16.56-13.49,0-5.9,5.13-12.2,16.28-13.46-4.71-10.24-2-17.75,3.21-20.88a11,11,0,0,1,5.6-1.5c5.2,0,10.45,3.3,14.73,9.17,5.66-8.08,11.53-9.37,14.7-9.37a11,11,0,0,1,5.54,1.46c3.41,2,5.49,5.75,5.7,10.35a24.06,24.06,0,0,1-2.35,10.74c11.4,1.14,16.56,7.34,16.56,13.49,0,5.9-5.13,12.2-16.28,13.45a23.3,23.3,0,0,1,2.4,10.55c-.18,4.54-2.22,8.31-5.61,10.33a10.88,10.88,0,0,1-5.6,1.51c-5.2,0-10.45-3.31-14.73-9.17C157.72,229.87,151.85,231.17,148.68,231.17Z"/><path class="cls-2" d="M144.36,226.85a11,11,0,0,1-5.54-1.46c-3.41-2-5.48-5.75-5.7-10.35a23.92,23.92,0,0,1,2.36-10.74c-11.41-1.14-16.57-7.34-16.57-13.49,0-5.9,5.13-12.2,16.28-13.45-4.7-10.25-2-17.76,3.21-20.88A10.92,10.92,0,0,1,144,155c5.2,0,10.44,3.3,14.72,9.17,5.67-8.07,11.53-9.37,14.71-9.37a11.1,11.1,0,0,1,5.54,1.46c3.41,2,5.48,5.76,5.7,10.36a23.88,23.88,0,0,1-2.36,10.73c11.41,1.14,16.57,7.34,16.57,13.49,0,5.9-5.13,12.2-16.28,13.46A23.08,23.08,0,0,1,185,214.81c-.17,4.55-2.22,8.31-5.61,10.34a10.94,10.94,0,0,1-5.6,1.5c-5.2,0-10.44-3.3-14.72-9.17C153.4,225.56,147.54,226.85,144.36,226.85Z"/><path class="cls-3" d="M170.3,191.67c-.77,0-2.3-.38-2.3-.86s1.53-.86,2.3-.86c1.35,0,1.94.45,1.94.86S171.63,191.67,170.3,191.67Z"/><path class="cls-4" d="M193.71,190.81c0-4.06-4.64-8.5-15.26-8.5a28.24,28.24,0,0,0-6.35.9,28.45,28.45,0,0,0,4-5c5.23-9,3.82-15.42.31-17.46s-9.68-.26-15,8.93a28.28,28.28,0,0,0-2.56,6.43,28.81,28.81,0,0,0-2.63-6.4c-5.34-8.95-11.63-10.83-15.12-8.75s-4.92,8.34.52,17.46a28.16,28.16,0,0,0,3.8,4.76,27.21,27.21,0,0,0-6-.83c-10.42,0-15.26,4.44-15.26,8.5s4.64,8.5,15.26,8.5a28.24,28.24,0,0,0,6.35-.9,28.82,28.82,0,0,0-4,5c-5.23,9-3.82,15.42-.31,17.46s9.68.26,15-8.92a29.14,29.14,0,0,0,2.56-6.43,29.22,29.22,0,0,0,2.63,6.4c5.34,8.95,11.63,10.82,15.12,8.74s4.92-8.33-.52-17.45a27.4,27.4,0,0,0-3.8-4.76,27.75,27.75,0,0,0,6,.82C188.87,199.31,193.71,194.88,193.71,190.81Zm-34.8,1.92a2.73,2.73,0,0,0-.75-.65,3,3,0,0,0-.89-.33,3.05,3.05,0,0,0,.17-.94,2.93,2.93,0,0,0-.17-.92,2.93,2.93,0,0,0,.88-.34,2.84,2.84,0,0,0,.74-.65,2.8,2.8,0,0,0,.74.64,2.83,2.83,0,0,0,.91.33,2.8,2.8,0,0,0-.18.94,3,3,0,0,0,.17.93,2.67,2.67,0,0,0-.88.33A3.08,3.08,0,0,0,158.91,192.73Z"/><path class="cls-5" d="M158.64,198.62a7.81,7.81,0,1,1,7.81-7.81A7.8,7.8,0,0,1,158.64,198.62Z"/><path class="cls-3" d="M146.8,190c.77,0,2.3.39,2.3.86s-1.53.86-2.3.86c-1.35,0-1.94-.45-1.94-.86S145.48,190,146.8,190Z"/><path class="cls-3" d="M163.39,201.55c-.37-.68-.76-2.21-.34-2.43s1.49.93,1.86,1.61c.64,1.19.53,1.92.17,2.12S164,202.72,163.39,201.55Z"/><path class="cls-3" d="M153.71,180.07c.37.68.76,2.21.34,2.44s-1.49-.94-1.86-1.62c-.64-1.18-.53-1.92-.17-2.11S153.08,178.91,153.71,180.07Z"/><path class="cls-3" d="M165.39,181.22c-.4.66-1.53,1.77-1.93,1.52s0-1.76.45-2.42c.71-1.15,1.4-1.42,1.75-1.21S166.08,180.09,165.39,181.22Z"/><path class="cls-3" d="M151.71,200.4c.4-.66,1.53-1.76,1.93-1.52s0,1.76-.45,2.42c-.71,1.15-1.4,1.42-1.75,1.21S151,201.54,151.71,200.4Z"/><path class="cls-3" d="M168.18,197.59c-.66-.4-1.77-1.51-1.53-1.92s1.76.05,2.42.44c1.16.7,1.43,1.39,1.22,1.74S169.32,198.27,168.18,197.59Z"/><path class="cls-3" d="M148.92,184c.66.4,1.77,1.52,1.53,1.92s-1.76,0-2.42-.44c-1.16-.7-1.43-1.38-1.22-1.74S147.78,183.35,148.92,184Z"/><path class="cls-3" d="M157.18,202.51c0-.77.49-2.28,1-2.26s.8,1.57.76,2.34c-.05,1.35-.53,1.92-.94,1.9S157.12,203.84,157.18,202.51Z"/><path class="cls-3" d="M159.92,179.11c0,.77-.49,2.29-1,2.27s-.8-1.57-.76-2.34c.05-1.35.53-1.92.94-1.91S160,177.79,159.92,179.11Z"/><path class="cls-3" d="M169.35,186.1c-.68.36-2.22.73-2.44.31s1-1.47,1.63-1.83c1.2-.63,1.93-.51,2.13-.15S170.52,185.48,169.35,186.1Z"/><path class="cls-3" d="M147.75,195.52c.69-.36,2.22-.73,2.44-.31s-.95,1.48-1.63,1.84c-1.2.63-1.93.51-2.12.14S146.58,196.14,147.75,195.52Z"/><path class="cls-1" d="M241.9,230.87a11.14,11.14,0,0,1-5.55-1.46c-3.41-2-5.48-5.76-5.69-10.36A23.73,23.73,0,0,1,233,208.32c-11.41-1.14-16.56-7.34-16.56-13.49,0-5.9,5.12-12.2,16.27-13.46-4.7-10.24-2-17.75,3.22-20.88a10.94,10.94,0,0,1,5.6-1.5c5.2,0,10.44,3.3,14.72,9.17,5.67-8.08,11.53-9.37,14.71-9.37a11,11,0,0,1,5.54,1.46c3.41,2,5.49,5.75,5.7,10.35a24,24,0,0,1-2.36,10.74c11.41,1.14,16.57,7.34,16.57,13.49,0,5.9-5.13,12.2-16.28,13.45a23.3,23.3,0,0,1,2.4,10.55c-.18,4.54-2.22,8.31-5.61,10.33a10.89,10.89,0,0,1-5.61,1.51c-5.19,0-10.44-3.31-14.72-9.17C250.94,229.57,245.07,230.87,241.9,230.87Z"/><path class="cls-2" d="M237.58,226.55a11,11,0,0,1-5.54-1.46c-3.41-2-5.49-5.75-5.7-10.35A24,24,0,0,1,228.69,204c-11.4-1.14-16.56-7.34-16.56-13.49,0-5.9,5.13-12.2,16.28-13.45-4.7-10.25-2-17.75,3.21-20.88a10.88,10.88,0,0,1,5.6-1.51c5.2,0,10.45,3.3,14.73,9.17,5.66-8.07,11.53-9.37,14.7-9.37a11.07,11.07,0,0,1,5.54,1.46c3.41,2,5.49,5.76,5.7,10.36A23.86,23.86,0,0,1,275.54,177c11.4,1.14,16.56,7.34,16.56,13.49,0,5.9-5.12,12.2-16.27,13.46a23.21,23.21,0,0,1,2.39,10.54c-.17,4.55-2.22,8.31-5.61,10.34a11,11,0,0,1-5.6,1.5c-5.2,0-10.45-3.3-14.73-9.17C246.62,225.26,240.75,226.55,237.58,226.55Z"/><path class="cls-3" d="M263.52,191.37c-.78,0-2.31-.38-2.31-.86s1.53-.86,2.31-.86c1.35,0,1.94.45,1.94.86S264.84,191.37,263.52,191.37Z"/><path class="cls-4" d="M286.92,190.51c0-4.06-4.63-8.5-15.25-8.5a28.32,28.32,0,0,0-6.36.9,27.55,27.55,0,0,0,4-5c5.24-9,3.83-15.42.31-17.46s-9.67-.26-15,8.93a28.28,28.28,0,0,0-2.56,6.43,28.79,28.79,0,0,0-2.64-6.4c-5.34-9-11.62-10.83-15.11-8.75s-4.93,8.34.52,17.46a27.67,27.67,0,0,0,3.8,4.76,27.37,27.37,0,0,0-6-.83c-10.42,0-15.25,4.44-15.25,8.5s4.63,8.5,15.25,8.5a28.32,28.32,0,0,0,6.36-.9,28.35,28.35,0,0,0-4,5c-5.23,9-3.83,15.42-.31,17.46s9.67.26,15-8.92a29.16,29.16,0,0,0,2.55-6.43,29.2,29.2,0,0,0,2.64,6.4c5.34,9,11.62,10.82,15.12,8.74s4.92-8.33-.53-17.45a26.93,26.93,0,0,0-3.8-4.76,27.91,27.91,0,0,0,6,.82C282.09,199,286.92,194.58,286.92,190.51Zm-34.79,1.92a2.73,2.73,0,0,0-.75-.65,3,3,0,0,0-.9-.33,2.79,2.79,0,0,0,.17-.94,2.92,2.92,0,0,0-.16-.92,3,3,0,0,0,.88-.34,2.65,2.65,0,0,0,.73-.65,2.75,2.75,0,0,0,1.65,1,2.73,2.73,0,0,0,0,1.87,2.7,2.7,0,0,0-.87.33A3.08,3.08,0,0,0,252.13,192.43Z"/><path class="cls-5" d="M251.85,198.32a7.81,7.81,0,1,1,7.81-7.81A7.81,7.81,0,0,1,251.85,198.32Z"/><path class="cls-3" d="M240,189.65c.77,0,2.3.39,2.3.86s-1.53.86-2.3.86c-1.35,0-1.94-.45-1.94-.86S238.69,189.65,240,189.65Z"/><path class="cls-3" d="M256.61,201.25c-.37-.68-.76-2.21-.34-2.43s1.49.93,1.85,1.61c.65,1.19.53,1.92.17,2.12S257.24,202.42,256.61,201.25Z"/><path class="cls-3" d="M246.92,179.77c.37.68.76,2.21.34,2.44s-1.48-.94-1.85-1.62c-.65-1.18-.53-1.92-.17-2.11S246.29,178.61,246.92,179.77Z"/><path class="cls-3" d="M258.61,180.92c-.4.66-1.53,1.77-1.94,1.52s.06-1.76.46-2.42c.7-1.15,1.4-1.42,1.75-1.21S259.3,179.79,258.61,180.92Z"/><path class="cls-3" d="M244.93,200.1c.4-.66,1.52-1.76,1.93-1.52s-.06,1.76-.46,2.42c-.7,1.15-1.39,1.42-1.74,1.21S244.24,201.24,244.93,200.1Z"/><path class="cls-3" d="M261.4,197.29c-.66-.4-1.78-1.51-1.53-1.92s1.75,0,2.42.44c1.16.7,1.43,1.39,1.22,1.74S262.54,198,261.4,197.29Z"/><path class="cls-3" d="M242.13,183.73c.67.4,1.78,1.52,1.54,1.93s-1.76,0-2.42-.45c-1.16-.69-1.44-1.38-1.23-1.74S241,183.05,242.13,183.73Z"/><path class="cls-3" d="M250.4,202.21c0-.77.48-2.28,1-2.26s.79,1.57.76,2.34c-.06,1.35-.53,1.92-1,1.9S250.34,203.54,250.4,202.21Z"/><path class="cls-3" d="M253.14,178.81c0,.77-.49,2.29-1,2.27s-.8-1.57-.77-2.34c.06-1.35.54-1.92,1-1.91S253.19,177.49,253.14,178.81Z"/><path class="cls-3" d="M262.56,185.8c-.68.36-2.21.73-2.44.31s1-1.47,1.64-1.83c1.2-.63,1.93-.51,2.12-.15S263.74,185.18,262.56,185.8Z"/><path class="cls-3" d="M241,195.22c.68-.36,2.22-.73,2.44-.31s-.95,1.48-1.64,1.84c-1.19.63-1.93.51-2.12.14S239.8,195.84,241,195.22Z"/><path class="cls-1" d="M56.33,358.44A11,11,0,0,1,50.78,357c-3.41-2-5.48-5.75-5.69-10.36a23.73,23.73,0,0,1,2.35-10.73C36,334.75,30.88,328.55,30.88,322.4c0-5.9,5.12-12.2,16.27-13.45-4.7-10.25-2-17.76,3.22-20.89a11,11,0,0,1,5.6-1.5c5.2,0,10.44,3.3,14.72,9.17,5.67-8.08,11.53-9.37,14.71-9.37a11,11,0,0,1,5.54,1.46c3.41,2,5.49,5.75,5.7,10.36a23.91,23.91,0,0,1-2.36,10.73c11.41,1.14,16.57,7.34,16.57,13.49,0,5.9-5.13,12.2-16.28,13.45A23.3,23.3,0,0,1,97,346.4c-.18,4.54-2.22,8.31-5.61,10.33a10.89,10.89,0,0,1-5.61,1.51c-5.19,0-10.44-3.3-14.72-9.17C65.37,357.14,59.5,358.44,56.33,358.44Z"/><path class="cls-2" d="M52,354.12a11,11,0,0,1-5.54-1.46c-3.41-2-5.49-5.75-5.7-10.35a24,24,0,0,1,2.35-10.73c-11.4-1.14-16.56-7.35-16.56-13.5,0-5.89,5.13-12.2,16.28-13.45-4.7-10.24-2-17.75,3.21-20.88a10.88,10.88,0,0,1,5.6-1.51c5.2,0,10.45,3.31,14.73,9.18C72,283.34,77.91,282,81.08,282a11.07,11.07,0,0,1,5.54,1.46c3.41,2,5.49,5.76,5.7,10.36A23.86,23.86,0,0,1,90,304.59c11.41,1.14,16.56,7.34,16.56,13.49,0,5.9-5.12,12.2-16.27,13.46a23.24,23.24,0,0,1,2.39,10.54c-.17,4.55-2.22,8.32-5.61,10.34a11,11,0,0,1-5.6,1.5c-5.2,0-10.45-3.3-14.73-9.17C61.05,352.83,55.18,354.12,52,354.12Z"/><path class="cls-3" d="M78,319c-.78,0-2.31-.39-2.31-.87s1.53-.86,2.31-.86c1.35,0,1.94.45,1.94.86S79.27,319,78,319Z"/><path class="cls-4" d="M101.35,318.08c0-4.06-4.63-8.49-15.25-8.49a27.75,27.75,0,0,0-6.36.9,27.93,27.93,0,0,0,4-5.05C89,296.43,87.54,290,84,288s-9.67-.26-15,8.93a28.47,28.47,0,0,0-2.56,6.43,29,29,0,0,0-2.64-6.4C58.48,288,52.2,286.11,48.71,288.2s-4.93,8.33.52,17.45a27.29,27.29,0,0,0,3.8,4.76,27.91,27.91,0,0,0-6-.82c-10.42,0-15.25,4.43-15.25,8.49s4.63,8.5,15.25,8.5a28.32,28.32,0,0,0,6.36-.9,28.35,28.35,0,0,0-4,5c-5.23,9-3.83,15.42-.31,17.47s9.67.26,15-8.93a29.64,29.64,0,0,0,2.56-6.43,28.54,28.54,0,0,0,2.63,6.4c5.34,8.95,11.62,10.83,15.12,8.74s4.92-8.33-.53-17.45a27.29,27.29,0,0,0-3.8-4.76,27.91,27.91,0,0,0,6,.82C96.52,326.58,101.35,322.15,101.35,318.08ZM66.56,320a2.91,2.91,0,0,0-.75-.65,2.76,2.76,0,0,0-.9-.32,2.84,2.84,0,0,0,.17-.95,2.92,2.92,0,0,0-.16-.92,3,3,0,0,0,.88-.33,2.86,2.86,0,0,0,.73-.66,3.08,3.08,0,0,0,.75.65,2.85,2.85,0,0,0,.9.32,3.11,3.11,0,0,0-.17.94,3,3,0,0,0,.16.93,3,3,0,0,0-.87.33A3.08,3.08,0,0,0,66.56,320Z"/><path class="cls-5" d="M66.28,325.9a7.82,7.82,0,1,1,7.82-7.82A7.82,7.82,0,0,1,66.28,325.9Z"/><path class="cls-3" d="M54.45,317.22c.77,0,2.3.39,2.3.86s-1.53.87-2.3.87c-1.35,0-1.94-.45-1.94-.87S53.12,317.22,54.45,317.22Z"/><path class="cls-3" d="M71,328.82c-.37-.68-.76-2.21-.34-2.43s1.49.93,1.85,1.61c.65,1.19.53,1.92.17,2.12S71.67,330,71,328.82Z"/><path class="cls-3" d="M61.35,307.34c.37.68.76,2.21.34,2.44s-1.48-.93-1.85-1.61c-.65-1.19-.53-1.92-.17-2.12S60.72,306.18,61.35,307.34Z"/><path class="cls-3" d="M73,308.49c-.4.66-1.53,1.77-1.94,1.52s.06-1.75.46-2.41c.7-1.16,1.4-1.43,1.75-1.21S73.73,307.36,73,308.49Z"/><path class="cls-3" d="M59.36,327.68c.4-.66,1.52-1.77,1.93-1.52s-.06,1.75-.46,2.41c-.7,1.16-1.39,1.43-1.74,1.21S58.67,328.81,59.36,327.68Z"/><path class="cls-3" d="M75.83,324.86c-.66-.39-1.78-1.51-1.53-1.92s1.75.05,2.42.45c1.16.69,1.43,1.38,1.22,1.73S77,325.55,75.83,324.86Z"/><path class="cls-3" d="M56.56,311.3c.67.4,1.78,1.52,1.54,1.93s-1.76-.05-2.42-.45c-1.16-.69-1.44-1.38-1.23-1.74S55.43,310.62,56.56,311.3Z"/><path class="cls-3" d="M64.83,329.78c0-.77.48-2.28,1-2.26s.79,1.57.76,2.34c-.06,1.35-.53,1.92-.94,1.9S64.77,331.11,64.83,329.78Z"/><path class="cls-3" d="M67.57,306.38c0,.77-.49,2.29-1,2.27s-.8-1.57-.77-2.34c.06-1.35.54-1.92,1-1.9S67.62,305.06,67.57,306.38Z"/><path class="cls-3" d="M77,313.37c-.68.36-2.21.74-2.44.32s1-1.48,1.64-1.84c1.2-.63,1.93-.51,2.12-.14S78.17,312.76,77,313.37Z"/><path class="cls-3" d="M55.4,322.79c.68-.36,2.22-.73,2.44-.31s-1,1.48-1.64,1.84c-1.19.63-1.93.51-2.12.14S54.23,323.41,55.4,322.79Z"/><path class="cls-1" d="M335.11,358.14a11,11,0,0,1-5.54-1.46c-3.41-2-5.49-5.75-5.7-10.36a23.88,23.88,0,0,1,2.36-10.73c-11.41-1.14-16.57-7.34-16.57-13.49,0-5.9,5.13-12.2,16.28-13.45-4.7-10.25-2-17.76,3.21-20.88a10.89,10.89,0,0,1,5.61-1.51c5.19,0,10.44,3.3,14.72,9.17,5.67-8.08,11.53-9.37,14.7-9.37a11,11,0,0,1,5.55,1.46c3.41,2,5.48,5.75,5.69,10.36a23.73,23.73,0,0,1-2.35,10.73c11.41,1.14,16.56,7.34,16.56,13.49,0,5.9-5.12,12.2-16.27,13.45a23.28,23.28,0,0,1,2.39,10.55c-.17,4.54-2.22,8.31-5.61,10.34a11,11,0,0,1-5.6,1.5c-5.2,0-10.44-3.3-14.72-9.17C344.15,356.84,338.29,358.14,335.11,358.14Z"/><path class="cls-2" d="M330.8,353.82a11,11,0,0,1-5.55-1.46c-3.4-2-5.48-5.75-5.69-10.35a23.73,23.73,0,0,1,2.35-10.73c-11.41-1.14-16.56-7.34-16.56-13.5,0-5.89,5.12-12.2,16.28-13.45-4.71-10.24-2-17.75,3.21-20.88a11,11,0,0,1,5.6-1.51c5.2,0,10.45,3.31,14.72,9.18,5.67-8.08,11.53-9.38,14.71-9.38a11,11,0,0,1,5.54,1.47c3.41,2,5.49,5.75,5.7,10.35a24,24,0,0,1-2.35,10.73c11.4,1.14,16.56,7.34,16.56,13.49,0,5.9-5.13,12.2-16.28,13.46a23.26,23.26,0,0,1,2.4,10.54c-.18,4.55-2.22,8.32-5.61,10.34a11,11,0,0,1-5.61,1.5c-5.19,0-10.44-3.3-14.72-9.17C339.84,352.53,334,353.82,330.8,353.82Z"/><path class="cls-3" d="M356.73,318.65c-.77,0-2.3-.39-2.3-.87s1.53-.86,2.3-.86c1.35,0,1.94.45,1.94.86S358.06,318.65,356.73,318.65Z"/><path class="cls-4" d="M380.14,317.78c0-4.06-4.63-8.49-15.25-8.49a27.75,27.75,0,0,0-6.36.9,28.38,28.38,0,0,0,4-5.05c5.23-9,3.83-15.42.31-17.46s-9.67-.26-15,8.93a29.44,29.44,0,0,0-2.56,6.43,29,29,0,0,0-2.63-6.4c-5.34-8.95-11.63-10.83-15.12-8.74s-4.92,8.33.52,17.45a27.78,27.78,0,0,0,3.8,4.76,27.75,27.75,0,0,0-6-.82c-10.42,0-15.25,4.43-15.25,8.49s4.63,8.5,15.25,8.5a28.16,28.16,0,0,0,6.35-.9,28.49,28.49,0,0,0-4,5.05c-5.23,9-3.82,15.41-.3,17.46s9.67.26,15-8.93a28.47,28.47,0,0,0,2.56-6.43,28.52,28.52,0,0,0,2.64,6.4c5.34,8.95,11.62,10.83,15.11,8.74s4.92-8.33-.52-17.45a27.78,27.78,0,0,0-3.8-4.76,27.83,27.83,0,0,0,6,.82C375.31,326.28,380.14,321.85,380.14,317.78Zm-34.79,1.92a3.08,3.08,0,0,0-.75-.65,2.85,2.85,0,0,0-.9-.32,3.12,3.12,0,0,0,.17-1,2.92,2.92,0,0,0-.16-.92,3,3,0,0,0,.87-.33,3.08,3.08,0,0,0,.74-.66,2.91,2.91,0,0,0,.75.65,2.76,2.76,0,0,0,.9.32,2.83,2.83,0,0,0-.17.94,3,3,0,0,0,.16.93,2.85,2.85,0,0,0-.87.33A2.74,2.74,0,0,0,345.35,319.7Z"/><path class="cls-5" d="M345.07,325.6a7.82,7.82,0,1,1,7.81-7.82A7.82,7.82,0,0,1,345.07,325.6Z"/><path class="cls-3" d="M333.23,316.92c.78,0,2.31.39,2.31.86s-1.53.87-2.31.87c-1.35,0-1.94-.45-1.94-.87S331.91,316.92,333.23,316.92Z"/><path class="cls-3" d="M349.82,328.52c-.36-.68-.75-2.2-.33-2.43s1.48.93,1.85,1.61c.64,1.19.53,1.92.17,2.12S350.46,329.69,349.82,328.52Z"/><path class="cls-3" d="M340.14,307.05c.37.67.76,2.2.34,2.43s-1.49-.93-1.86-1.61c-.64-1.19-.53-1.92-.16-2.12S339.51,305.88,340.14,307.05Z"/><path class="cls-3" d="M351.82,308.19c-.4.66-1.52,1.77-1.93,1.52s.06-1.75.46-2.41c.7-1.16,1.39-1.43,1.74-1.21S352.51,307.06,351.82,308.19Z"/><path class="cls-3" d="M338.14,327.38c.4-.66,1.53-1.77,1.94-1.52s-.06,1.75-.46,2.41c-.7,1.16-1.4,1.43-1.75,1.21S337.46,328.51,338.14,327.38Z"/><path class="cls-3" d="M354.62,324.57c-.67-.4-1.78-1.52-1.54-1.93s1.76.05,2.42.45c1.16.69,1.44,1.38,1.22,1.73S355.75,325.25,354.62,324.57Z"/><path class="cls-3" d="M335.35,311c.66.4,1.78,1.52,1.53,1.93s-1.75-.05-2.42-.45c-1.16-.69-1.43-1.38-1.22-1.74S334.21,310.32,335.35,311Z"/><path class="cls-3" d="M343.61,329.48c0-.77.49-2.28,1-2.26s.8,1.57.77,2.34c-.06,1.35-.54,1.92-.95,1.9S343.56,330.81,343.61,329.48Z"/><path class="cls-3" d="M346.35,306.08c0,.77-.48,2.29-1,2.27s-.79-1.57-.76-2.34c.06-1.35.53-1.92.94-1.9S346.41,304.76,346.35,306.08Z"/><path class="cls-3" d="M355.78,313.07c-.68.36-2.22.74-2.44.32s1-1.48,1.64-1.84c1.19-.63,1.93-.51,2.12-.14S357,312.46,355.78,313.07Z"/><path class="cls-3" d="M334.18,322.49c.69-.36,2.22-.73,2.44-.31s-.95,1.48-1.63,1.84c-1.2.63-1.93.51-2.12.14S333,323.11,334.18,322.49Z"/><path class="cls-1" d="M430.92,357.78a11,11,0,0,1-5.54-1.46c-3.41-2-5.49-5.75-5.7-10.36A23.86,23.86,0,0,1,422,335.23c-11.4-1.14-16.56-7.34-16.56-13.49,0-5.9,5.12-12.2,16.28-13.45-4.71-10.25-2-17.76,3.21-20.88a10.88,10.88,0,0,1,5.6-1.51c5.2,0,10.45,3.3,14.73,9.17C451,287,456.82,285.7,460,285.7a11,11,0,0,1,5.54,1.46c3.41,2,5.49,5.75,5.7,10.36a24,24,0,0,1-2.35,10.73c11.4,1.14,16.56,7.34,16.56,13.49,0,5.9-5.13,12.2-16.28,13.45a23.3,23.3,0,0,1,2.4,10.55c-.18,4.54-2.22,8.31-5.61,10.34a11,11,0,0,1-5.61,1.5c-5.19,0-10.44-3.3-14.72-9.17C440,356.48,434.09,357.78,430.92,357.78Z"/><path class="cls-2" d="M426.6,353.46a11,11,0,0,1-5.54-1.46c-3.41-2-5.49-5.75-5.7-10.35a23.88,23.88,0,0,1,2.36-10.73c-11.41-1.14-16.57-7.34-16.57-13.5,0-5.89,5.13-12.2,16.28-13.45-4.7-10.24-2-17.75,3.21-20.88a11,11,0,0,1,5.61-1.5c5.2,0,10.44,3.3,14.72,9.17,5.67-8.08,11.53-9.38,14.7-9.38a11,11,0,0,1,5.55,1.47c3.41,2,5.48,5.75,5.69,10.35a23.73,23.73,0,0,1-2.35,10.73c11.41,1.14,16.56,7.34,16.56,13.49,0,5.9-5.12,12.2-16.27,13.46a23.24,23.24,0,0,1,2.39,10.54c-.17,4.55-2.22,8.32-5.61,10.34a11,11,0,0,1-5.6,1.5c-5.2,0-10.44-3.3-14.72-9.17C435.64,352.17,429.78,353.46,426.6,353.46Z"/><path class="cls-3" d="M452.54,318.29c-.77,0-2.31-.39-2.31-.87s1.54-.86,2.31-.86c1.35,0,1.94.45,1.94.86S453.86,318.29,452.54,318.29Z"/><path class="cls-4" d="M476,317.42c0-4.06-4.64-8.49-15.26-8.49a27.6,27.6,0,0,0-6.35.9,28.85,28.85,0,0,0,4-5.05c5.23-9,3.82-15.42.31-17.46s-9.68-.26-15,8.93a28.47,28.47,0,0,0-2.56,6.43,29,29,0,0,0-2.63-6.4c-5.35-8.95-11.63-10.83-15.12-8.74s-4.92,8.33.52,17.45a27.78,27.78,0,0,0,3.8,4.76,27.83,27.83,0,0,0-6-.82c-10.43,0-15.26,4.43-15.26,8.49s4.63,8.5,15.26,8.5a28.24,28.24,0,0,0,6.35-.9,28,28,0,0,0-4,5.05c-5.23,9-3.82,15.41-.31,17.46s9.68.26,15-8.93a28.94,28.94,0,0,0,2.56-6.43,29,29,0,0,0,2.63,6.4c5.34,8.95,11.63,10.83,15.12,8.74s4.92-8.33-.52-17.45a27.78,27.78,0,0,0-3.8-4.76,27.75,27.75,0,0,0,6,.82C471.11,325.92,476,321.49,476,317.42Zm-34.8,1.92a2.91,2.91,0,0,0-.75-.65,2.76,2.76,0,0,0-.9-.32,2.84,2.84,0,0,0,.17-.95,2.92,2.92,0,0,0-.16-.92,3,3,0,0,0,.88-.33,3.08,3.08,0,0,0,.74-.66,3,3,0,0,0,.74.65,2.85,2.85,0,0,0,.9.32,3.11,3.11,0,0,0-.17.94,2.73,2.73,0,0,0,.17.93,2.91,2.91,0,0,0-.88.33A3.08,3.08,0,0,0,441.15,319.34Z"/><path class="cls-5" d="M440.88,325.24a7.82,7.82,0,1,1,7.81-7.82A7.82,7.82,0,0,1,440.88,325.24Z"/><path class="cls-3" d="M429,316.56c.77,0,2.3.39,2.3.86s-1.53.87-2.3.87c-1.35,0-1.94-.45-1.94-.87S427.71,316.56,429,316.56Z"/><path class="cls-3" d="M445.63,328.16c-.37-.68-.76-2.2-.34-2.43s1.49.93,1.86,1.61c.64,1.19.53,1.92.16,2.12S446.26,329.33,445.63,328.16Z"/><path class="cls-3" d="M436,306.69c.36.67.75,2.2.34,2.43s-1.49-.93-1.86-1.61c-.64-1.19-.53-1.92-.17-2.12S435.31,305.52,436,306.69Z"/><path class="cls-3" d="M447.63,307.83c-.4.66-1.53,1.77-1.94,1.52s.06-1.75.46-2.41c.71-1.16,1.4-1.43,1.75-1.21S448.32,306.7,447.63,307.83Z"/><path class="cls-3" d="M434,327c.4-.66,1.53-1.77,1.93-1.52s-.06,1.75-.46,2.41c-.7,1.16-1.39,1.43-1.74,1.21S433.26,328.15,434,327Z"/><path class="cls-3" d="M450.42,324.21c-.66-.4-1.77-1.52-1.53-1.93s1.76.05,2.42.45c1.16.69,1.43,1.38,1.22,1.73S451.56,324.89,450.42,324.21Z"/><path class="cls-3" d="M431.16,310.64c.66.4,1.77,1.52,1.53,1.93s-1.76-.05-2.42-.45c-1.16-.69-1.43-1.38-1.22-1.74S430,310,431.16,310.64Z"/><path class="cls-3" d="M439.42,329.12c0-.77.48-2.28,1-2.26s.8,1.57.76,2.34c-.06,1.35-.53,1.92-.94,1.9S439.36,330.45,439.42,329.12Z"/><path class="cls-3" d="M442.16,305.72c0,.78-.49,2.29-1,2.27s-.8-1.57-.77-2.34c.06-1.35.54-1.92.95-1.9S442.22,304.4,442.16,305.72Z"/><path class="cls-3" d="M451.59,312.71c-.69.36-2.22.74-2.44.32s1-1.48,1.63-1.84c1.2-.63,1.93-.51,2.12-.14S452.76,312.1,451.59,312.71Z"/><path class="cls-3" d="M430,322.13c.68-.36,2.22-.73,2.44-.3s-.95,1.47-1.64,1.83c-1.19.63-1.92.51-2.12.14S428.82,322.75,430,322.13Z"/><path class="cls-1" d="M148.68,358.44a11,11,0,0,1-5.54-1.46c-3.41-2-5.49-5.75-5.7-10.36a24,24,0,0,1,2.35-10.73c-11.4-1.14-16.56-7.34-16.56-13.49,0-5.9,5.13-12.2,16.28-13.45-4.71-10.25-2-17.76,3.21-20.89a11,11,0,0,1,5.6-1.5c5.2,0,10.45,3.3,14.73,9.17,5.66-8.08,11.53-9.37,14.7-9.37a11,11,0,0,1,5.54,1.46c3.41,2,5.49,5.75,5.7,10.36a24,24,0,0,1-2.35,10.73c11.4,1.14,16.56,7.34,16.56,13.49,0,5.9-5.13,12.2-16.28,13.45a23.3,23.3,0,0,1,2.4,10.55c-.18,4.54-2.22,8.31-5.61,10.33a10.88,10.88,0,0,1-5.6,1.51c-5.2,0-10.45-3.3-14.73-9.17C157.72,357.14,151.85,358.44,148.68,358.44Z"/><path class="cls-2" d="M144.36,354.12a11,11,0,0,1-5.54-1.46c-3.41-2-5.48-5.75-5.7-10.35a23.88,23.88,0,0,1,2.36-10.73c-11.41-1.14-16.57-7.35-16.57-13.5,0-5.89,5.13-12.2,16.28-13.45-4.7-10.24-2-17.75,3.21-20.88a10.92,10.92,0,0,1,5.61-1.51c5.2,0,10.44,3.31,14.72,9.18,5.67-8.08,11.53-9.38,14.71-9.38A11.1,11.1,0,0,1,179,283.5c3.41,2,5.48,5.76,5.7,10.36a23.88,23.88,0,0,1-2.36,10.73c11.41,1.14,16.57,7.34,16.57,13.49,0,5.9-5.13,12.2-16.28,13.46A23.11,23.11,0,0,1,185,342.08c-.17,4.55-2.22,8.32-5.61,10.34a10.94,10.94,0,0,1-5.6,1.5c-5.2,0-10.44-3.3-14.72-9.17C153.4,352.83,147.54,354.12,144.36,354.12Z"/><path class="cls-3" d="M170.3,319c-.77,0-2.3-.39-2.3-.87s1.53-.86,2.3-.86c1.35,0,1.94.45,1.94.86S171.63,319,170.3,319Z"/><path class="cls-4" d="M193.71,318.08c0-4.06-4.64-8.49-15.26-8.49a27.67,27.67,0,0,0-6.35.9,28.85,28.85,0,0,0,4-5.05c5.23-9,3.82-15.42.31-17.46s-9.68-.26-15,8.93a28.47,28.47,0,0,0-2.56,6.43,29,29,0,0,0-2.63-6.4c-5.34-8.95-11.63-10.83-15.12-8.74s-4.92,8.33.52,17.45a27.78,27.78,0,0,0,3.8,4.76,27.75,27.75,0,0,0-6-.82c-10.42,0-15.26,4.43-15.26,8.49s4.64,8.5,15.26,8.5a28.24,28.24,0,0,0,6.35-.9,28.82,28.82,0,0,0-4,5c-5.23,9-3.82,15.42-.31,17.47s9.68.26,15-8.93a28.94,28.94,0,0,0,2.56-6.43,29,29,0,0,0,2.63,6.4c5.34,8.95,11.63,10.83,15.12,8.74s4.92-8.33-.52-17.45a27.78,27.78,0,0,0-3.8-4.76,27.75,27.75,0,0,0,6,.82C188.87,326.58,193.71,322.15,193.71,318.08ZM158.91,320a2.91,2.91,0,0,0-.75-.65,2.71,2.71,0,0,0-.89-.32,3.12,3.12,0,0,0,.17-.95,2.93,2.93,0,0,0-.17-.92,2.91,2.91,0,0,0,.88-.33,3.08,3.08,0,0,0,.74-.66,3,3,0,0,0,.74.65,2.82,2.82,0,0,0,.91.32,2.85,2.85,0,0,0-.18.94,3,3,0,0,0,.17.93,2.91,2.91,0,0,0-.88.33A3.08,3.08,0,0,0,158.91,320Z"/><path class="cls-5" d="M158.64,325.9a7.82,7.82,0,1,1,7.81-7.82A7.81,7.81,0,0,1,158.64,325.9Z"/><path class="cls-3" d="M146.8,317.22c.77,0,2.3.39,2.3.86s-1.53.87-2.3.87c-1.35,0-1.94-.45-1.94-.87S145.48,317.22,146.8,317.22Z"/><path class="cls-3" d="M163.39,328.82c-.37-.68-.76-2.21-.34-2.43s1.49.93,1.86,1.61c.64,1.19.53,1.92.17,2.12S164,330,163.39,328.82Z"/><path class="cls-3" d="M153.71,307.34c.37.68.76,2.21.34,2.44s-1.49-.93-1.86-1.61c-.64-1.19-.53-1.92-.17-2.12S153.08,306.18,153.71,307.34Z"/><path class="cls-3" d="M165.39,308.49c-.4.66-1.53,1.77-1.93,1.52s0-1.75.45-2.41c.71-1.16,1.4-1.43,1.75-1.21S166.08,307.36,165.39,308.49Z"/><path class="cls-3" d="M151.71,327.68c.4-.66,1.53-1.77,1.93-1.52s0,1.75-.45,2.41c-.71,1.16-1.4,1.43-1.75,1.21S151,328.81,151.71,327.68Z"/><path class="cls-3" d="M168.18,324.86c-.66-.39-1.77-1.51-1.53-1.92s1.76.05,2.42.45c1.16.69,1.43,1.38,1.22,1.73S169.32,325.55,168.18,324.86Z"/><path class="cls-3" d="M148.92,311.3c.66.4,1.77,1.52,1.53,1.93s-1.76-.05-2.42-.45c-1.16-.69-1.43-1.38-1.22-1.74S147.78,310.62,148.92,311.3Z"/><path class="cls-3" d="M157.18,329.78c0-.77.49-2.28,1-2.26s.8,1.57.76,2.34c-.05,1.35-.53,1.92-.94,1.9S157.12,331.11,157.18,329.78Z"/><path class="cls-3" d="M159.92,306.38c0,.77-.49,2.29-1,2.27s-.8-1.57-.76-2.34c.05-1.35.53-1.92.94-1.9S160,305.06,159.92,306.38Z"/><path class="cls-3" d="M169.35,313.37c-.68.36-2.22.74-2.44.32s1-1.48,1.63-1.84c1.2-.63,1.93-.51,2.13-.14S170.52,312.76,169.35,313.37Z"/><path class="cls-3" d="M147.75,322.79c.69-.36,2.22-.73,2.44-.31s-.95,1.48-1.63,1.84c-1.2.63-1.93.51-2.12.14S146.58,323.41,147.75,322.79Z"/><path class="cls-1" d="M241.9,358.14a11,11,0,0,1-5.55-1.46c-3.41-2-5.48-5.75-5.69-10.36A23.73,23.73,0,0,1,233,335.59c-11.41-1.14-16.56-7.34-16.56-13.49,0-5.9,5.12-12.2,16.27-13.45-4.7-10.25-2-17.76,3.22-20.88a10.85,10.85,0,0,1,5.6-1.51c5.2,0,10.44,3.3,14.72,9.17,5.67-8.08,11.53-9.37,14.71-9.37a11,11,0,0,1,5.54,1.46c3.41,2,5.49,5.75,5.7,10.36a23.88,23.88,0,0,1-2.36,10.73c11.41,1.14,16.57,7.34,16.57,13.49,0,5.9-5.13,12.2-16.28,13.45a23.3,23.3,0,0,1,2.4,10.55c-.18,4.54-2.22,8.31-5.61,10.34a11,11,0,0,1-5.61,1.5c-5.19,0-10.44-3.3-14.72-9.17C250.94,356.84,245.07,358.14,241.9,358.14Z"/><path class="cls-2" d="M237.58,353.82a11,11,0,0,1-5.54-1.46c-3.41-2-5.49-5.75-5.7-10.35a24,24,0,0,1,2.35-10.73c-11.4-1.14-16.56-7.34-16.56-13.5,0-5.89,5.13-12.2,16.28-13.45-4.7-10.24-2-17.75,3.21-20.88a11,11,0,0,1,5.6-1.51c5.2,0,10.45,3.31,14.73,9.18,5.66-8.08,11.53-9.38,14.7-9.38a11,11,0,0,1,5.54,1.47c3.41,2,5.49,5.75,5.7,10.35a23.86,23.86,0,0,1-2.35,10.73c11.4,1.14,16.56,7.34,16.56,13.49,0,5.9-5.12,12.2-16.27,13.46a23.24,23.24,0,0,1,2.39,10.54c-.17,4.55-2.22,8.32-5.61,10.34a11,11,0,0,1-5.6,1.5c-5.2,0-10.45-3.3-14.73-9.17C246.62,352.53,240.75,353.82,237.58,353.82Z"/><path class="cls-3" d="M263.52,318.65c-.78,0-2.31-.39-2.31-.87s1.53-.86,2.31-.86c1.35,0,1.94.45,1.94.86S264.84,318.65,263.52,318.65Z"/><path class="cls-4" d="M286.92,317.78c0-4.06-4.63-8.49-15.25-8.49a27.75,27.75,0,0,0-6.36.9,27.93,27.93,0,0,0,4-5.05c5.24-9,3.83-15.42.31-17.46s-9.67-.26-15,8.93A28.47,28.47,0,0,0,252,303a29,29,0,0,0-2.64-6.4c-5.34-8.95-11.62-10.83-15.11-8.74s-4.93,8.33.52,17.45a27.29,27.29,0,0,0,3.8,4.76,27.91,27.91,0,0,0-6-.82c-10.42,0-15.25,4.43-15.25,8.49s4.63,8.5,15.25,8.5a28.32,28.32,0,0,0,6.36-.9,28,28,0,0,0-4,5.05c-5.23,9-3.83,15.41-.31,17.46s9.67.26,15-8.93a29,29,0,0,0,2.55-6.43,29,29,0,0,0,2.64,6.4c5.34,8.95,11.62,10.83,15.12,8.74s4.92-8.33-.53-17.45a27.29,27.29,0,0,0-3.8-4.76,27.91,27.91,0,0,0,6,.82C282.09,326.28,286.92,321.85,286.92,317.78Zm-34.79,1.92a2.91,2.91,0,0,0-.75-.65,2.76,2.76,0,0,0-.9-.32,2.84,2.84,0,0,0,.17-1,2.92,2.92,0,0,0-.16-.92,3,3,0,0,0,.88-.33,2.86,2.86,0,0,0,.73-.66,3.08,3.08,0,0,0,.75.65,2.85,2.85,0,0,0,.9.32,3.11,3.11,0,0,0-.17.94,3,3,0,0,0,.16.93,3,3,0,0,0-.87.33A3.08,3.08,0,0,0,252.13,319.7Z"/><path class="cls-5" d="M251.85,325.6a7.82,7.82,0,1,1,7.81-7.82A7.82,7.82,0,0,1,251.85,325.6Z"/><path class="cls-3" d="M240,316.92c.77,0,2.3.39,2.3.86s-1.53.87-2.3.87c-1.35,0-1.94-.45-1.94-.87S238.69,316.92,240,316.92Z"/><path class="cls-3" d="M256.61,328.52c-.37-.68-.76-2.2-.34-2.43s1.49.93,1.85,1.61c.65,1.19.53,1.92.17,2.12S257.24,329.69,256.61,328.52Z"/><path class="cls-3" d="M246.92,307.05c.37.67.76,2.2.34,2.43s-1.48-.93-1.85-1.61c-.65-1.19-.53-1.92-.17-2.12S246.29,305.88,246.92,307.05Z"/><path class="cls-3" d="M258.61,308.19c-.4.66-1.53,1.77-1.94,1.52s.06-1.75.46-2.41c.7-1.16,1.4-1.43,1.75-1.21S259.3,307.06,258.61,308.19Z"/><path class="cls-3" d="M244.93,327.38c.4-.66,1.52-1.77,1.93-1.52s-.06,1.75-.46,2.41c-.7,1.16-1.39,1.43-1.74,1.21S244.24,328.51,244.93,327.38Z"/><path class="cls-3" d="M261.4,324.57c-.66-.4-1.78-1.52-1.53-1.93s1.75.05,2.42.45c1.16.69,1.43,1.38,1.22,1.73S262.54,325.25,261.4,324.57Z"/><path class="cls-3" d="M242.13,311c.67.4,1.78,1.52,1.54,1.93s-1.76-.05-2.42-.45c-1.16-.69-1.44-1.38-1.23-1.74S241,310.32,242.13,311Z"/><path class="cls-3" d="M250.4,329.48c0-.77.48-2.28,1-2.26s.79,1.57.76,2.34c-.06,1.35-.53,1.92-1,1.9S250.34,330.81,250.4,329.48Z"/><path class="cls-3" d="M253.14,306.08c0,.77-.49,2.29-1,2.27s-.8-1.57-.77-2.34c.06-1.35.54-1.92,1-1.9S253.19,304.76,253.14,306.08Z"/><path class="cls-3" d="M262.56,313.07c-.68.36-2.21.74-2.44.32s1-1.48,1.64-1.84c1.2-.63,1.93-.51,2.12-.14S263.74,312.46,262.56,313.07Z"/><path class="cls-3" d="M241,322.49c.68-.36,2.22-.73,2.44-.31s-.95,1.48-1.64,1.84c-1.19.63-1.93.51-2.12.14S239.8,323.11,241,322.49Z"/><path class="cls-1" d="M56.33,453.89a11,11,0,0,1-5.55-1.46c-3.41-2-5.48-5.75-5.69-10.35a23.73,23.73,0,0,1,2.35-10.73C36,430.21,30.88,424,30.88,417.85c0-5.89,5.12-12.2,16.27-13.45-4.7-10.24-2-17.75,3.22-20.88A10.88,10.88,0,0,1,56,382c5.2,0,10.44,3.31,14.72,9.18,5.67-8.08,11.53-9.38,14.71-9.38a11.1,11.1,0,0,1,5.54,1.46c3.41,2,5.49,5.76,5.7,10.36a23.88,23.88,0,0,1-2.36,10.73c11.41,1.14,16.57,7.34,16.57,13.49,0,5.9-5.13,12.2-16.28,13.46A23.26,23.26,0,0,1,97,441.85c-.18,4.55-2.22,8.32-5.61,10.34a11,11,0,0,1-5.61,1.5c-5.19,0-10.44-3.3-14.72-9.17C65.37,452.6,59.5,453.89,56.33,453.89Z"/><path class="cls-2" d="M52,449.58a11.07,11.07,0,0,1-5.54-1.46c-3.41-2-5.49-5.76-5.7-10.36A24,24,0,0,1,43.12,427c-11.4-1.14-16.56-7.34-16.56-13.49,0-5.9,5.13-12.2,16.28-13.45-4.7-10.25-2-17.76,3.21-20.89a11,11,0,0,1,5.6-1.5c5.2,0,10.45,3.3,14.73,9.17,5.66-8.08,11.53-9.37,14.7-9.37A11,11,0,0,1,86.62,379c3.41,2,5.49,5.75,5.7,10.35A23.9,23.9,0,0,1,90,400.05c11.41,1.14,16.56,7.34,16.56,13.49,0,5.9-5.12,12.2-16.27,13.45a23.28,23.28,0,0,1,2.39,10.55c-.17,4.54-2.22,8.31-5.61,10.33a10.88,10.88,0,0,1-5.6,1.51c-5.2,0-10.45-3.3-14.73-9.17C61.05,448.28,55.18,449.58,52,449.58Z"/><path class="cls-3" d="M78,414.4c-.78,0-2.31-.38-2.31-.86s1.53-.86,2.31-.86c1.35,0,1.94.45,1.94.86S79.27,414.4,78,414.4Z"/><path class="cls-4" d="M101.35,413.54c0-4.07-4.63-8.5-15.25-8.5a28.32,28.32,0,0,0-6.36.9,27.89,27.89,0,0,0,4-5c5.24-9,3.83-15.42.31-17.46s-9.67-.26-15,8.92a28.66,28.66,0,0,0-2.56,6.43,29,29,0,0,0-2.64-6.4c-5.34-8.95-11.62-10.82-15.11-8.74s-4.93,8.33.52,17.45a26.93,26.93,0,0,0,3.8,4.76,27.91,27.91,0,0,0-6-.82c-10.42,0-15.25,4.43-15.25,8.5S36.37,422,47,422a28.32,28.32,0,0,0,6.36-.9,28,28,0,0,0-4,5c-5.23,9-3.83,15.42-.31,17.46s9.67.26,15-8.93a29.44,29.44,0,0,0,2.56-6.43,28.34,28.34,0,0,0,2.63,6.4c5.34,8.95,11.62,10.83,15.12,8.75s4.92-8.34-.53-17.46a27.67,27.67,0,0,0-3.8-4.76,27.37,27.37,0,0,0,6,.83C96.52,422,101.35,417.6,101.35,413.54Zm-34.79,1.91a2.87,2.87,0,0,0-.75-.64,2.78,2.78,0,0,0-.9-.33,2.79,2.79,0,0,0,.17-.94,2.92,2.92,0,0,0-.16-.92,2.69,2.69,0,0,0,1.61-1,3,3,0,0,0,.75.64,3.14,3.14,0,0,0,.9.33,3.05,3.05,0,0,0-.17.94,2.92,2.92,0,0,0,.16.92,3,3,0,0,0-.87.34A3,3,0,0,0,66.56,415.45Z"/><path class="cls-5" d="M66.28,421.35a7.81,7.81,0,1,1,7.82-7.81A7.81,7.81,0,0,1,66.28,421.35Z"/><path class="cls-3" d="M54.45,412.68c.77,0,2.3.38,2.3.86s-1.53.86-2.3.86c-1.35,0-1.94-.45-1.94-.86S53.12,412.68,54.45,412.68Z"/><path class="cls-3" d="M71,424.28c-.37-.68-.76-2.21-.34-2.44s1.49.94,1.85,1.62c.65,1.18.53,1.92.17,2.11S71.67,425.44,71,424.28Z"/><path class="cls-3" d="M61.35,402.8c.37.68.76,2.21.34,2.43s-1.48-.93-1.85-1.61c-.65-1.19-.53-1.92-.17-2.12S60.72,401.63,61.35,402.8Z"/><path class="cls-3" d="M73,404c-.4.66-1.53,1.76-1.94,1.52s.06-1.76.46-2.42c.7-1.15,1.4-1.42,1.75-1.21S73.73,402.81,73,404Z"/><path class="cls-3" d="M59.36,423.13c.4-.66,1.52-1.77,1.93-1.52s-.06,1.76-.46,2.42c-.7,1.15-1.39,1.42-1.74,1.21S58.67,424.26,59.36,423.13Z"/><path class="cls-3" d="M75.83,420.32c-.66-.4-1.78-1.52-1.53-1.93s1.75.05,2.42.45c1.16.69,1.43,1.38,1.22,1.74S77,421,75.83,420.32Z"/><path class="cls-3" d="M56.56,406.76c.67.4,1.78,1.51,1.54,1.92s-1.76-.05-2.42-.44c-1.16-.7-1.44-1.39-1.23-1.74S55.43,406.08,56.56,406.76Z"/><path class="cls-3" d="M64.83,425.24c0-.77.48-2.29,1-2.26s.79,1.56.76,2.33c-.06,1.35-.53,1.92-.94,1.91S64.77,426.56,64.83,425.24Z"/><path class="cls-3" d="M67.57,401.84c0,.77-.49,2.28-1,2.26s-.8-1.57-.77-2.34c.06-1.35.54-1.92,1-1.9S67.62,400.51,67.57,401.84Z"/><path class="cls-3" d="M77,408.83c-.68.36-2.21.73-2.44.31s1-1.48,1.64-1.84c1.2-.63,1.93-.5,2.12-.14S78.17,408.21,77,408.83Z"/><path class="cls-3" d="M55.4,418.25c.68-.36,2.22-.73,2.44-.31s-1,1.47-1.64,1.83c-1.19.63-1.93.51-2.12.15S54.23,418.87,55.4,418.25Z"/><path class="cls-1" d="M335.11,453.59a11,11,0,0,1-5.54-1.46c-3.41-2-5.49-5.75-5.7-10.35a23.88,23.88,0,0,1,2.36-10.73c-11.41-1.14-16.57-7.35-16.57-13.5,0-5.89,5.13-12.2,16.28-13.45-4.7-10.24-2-17.75,3.21-20.88a10.89,10.89,0,0,1,5.61-1.51c5.19,0,10.44,3.31,14.72,9.18,5.67-8.08,11.53-9.38,14.7-9.38a11.14,11.14,0,0,1,5.55,1.46c3.41,2,5.48,5.76,5.69,10.36a23.73,23.73,0,0,1-2.35,10.73c11.41,1.14,16.56,7.34,16.56,13.49,0,5.9-5.12,12.2-16.27,13.46a23.24,23.24,0,0,1,2.39,10.54c-.17,4.55-2.22,8.32-5.61,10.34a11,11,0,0,1-5.6,1.5c-5.2,0-10.44-3.3-14.72-9.17C344.15,452.3,338.29,453.59,335.11,453.59Z"/><path class="cls-2" d="M330.8,449.28a11.14,11.14,0,0,1-5.55-1.46c-3.4-2-5.48-5.76-5.69-10.36a23.73,23.73,0,0,1,2.35-10.73c-11.41-1.14-16.56-7.34-16.56-13.49,0-5.9,5.12-12.2,16.28-13.45-4.71-10.25-2-17.76,3.21-20.89a11,11,0,0,1,5.6-1.5c5.2,0,10.45,3.3,14.72,9.17,5.67-8.08,11.53-9.37,14.71-9.37a11,11,0,0,1,5.54,1.46c3.41,2,5.49,5.75,5.7,10.35a24,24,0,0,1-2.35,10.74c11.4,1.14,16.56,7.34,16.56,13.49,0,5.9-5.13,12.2-16.28,13.45a23.3,23.3,0,0,1,2.4,10.55c-.18,4.54-2.22,8.31-5.61,10.33a10.89,10.89,0,0,1-5.61,1.51c-5.19,0-10.44-3.3-14.72-9.17C339.84,448,334,449.28,330.8,449.28Z"/><path class="cls-3" d="M356.73,414.1c-.77,0-2.3-.38-2.3-.86s1.53-.86,2.3-.86c1.35,0,1.94.45,1.94.86S358.06,414.1,356.73,414.1Z"/><path class="cls-4" d="M380.14,413.24c0-4.07-4.63-8.5-15.25-8.5a28.32,28.32,0,0,0-6.36.9,28.35,28.35,0,0,0,4-5c5.23-9,3.83-15.42.31-17.46s-9.67-.26-15,8.92a29.64,29.64,0,0,0-2.56,6.43,29.22,29.22,0,0,0-2.63-6.4c-5.34-8.95-11.63-10.82-15.12-8.74s-4.92,8.33.52,17.45a27.4,27.4,0,0,0,3.8,4.76,27.75,27.75,0,0,0-6-.82c-10.42,0-15.25,4.43-15.25,8.5s4.63,8.5,15.25,8.5a28.16,28.16,0,0,0,6.35-.9,28.45,28.45,0,0,0-4,5c-5.23,9-3.82,15.42-.3,17.46s9.67.26,15-8.93a28.28,28.28,0,0,0,2.56-6.43,28.32,28.32,0,0,0,2.64,6.4c5.34,8.95,11.62,10.83,15.11,8.75s4.92-8.34-.52-17.46a28.16,28.16,0,0,0-3.8-4.76,27.29,27.29,0,0,0,6,.83C375.31,421.74,380.14,417.3,380.14,413.24Zm-34.79,1.91a3,3,0,0,0-.75-.64,2.87,2.87,0,0,0-.9-.33,3.05,3.05,0,0,0,.17-.94,2.92,2.92,0,0,0-.16-.92,3,3,0,0,0,.87-.34,3,3,0,0,0,.74-.65,2.87,2.87,0,0,0,.75.64,3,3,0,0,0,.9.33,2.79,2.79,0,0,0-.17.94,2.92,2.92,0,0,0,.16.92,2.87,2.87,0,0,0-.87.34A2.71,2.71,0,0,0,345.35,415.15Z"/><path class="cls-5" d="M345.07,421.05a7.81,7.81,0,1,1,7.81-7.81A7.81,7.81,0,0,1,345.07,421.05Z"/><path class="cls-3" d="M333.23,412.38c.78,0,2.31.38,2.31.86s-1.53.86-2.31.86c-1.35,0-1.94-.45-1.94-.86S331.91,412.38,333.23,412.38Z"/><path class="cls-3" d="M349.82,424c-.36-.68-.75-2.21-.33-2.44s1.48.94,1.85,1.62c.64,1.18.53,1.92.17,2.11S350.46,425.14,349.82,424Z"/><path class="cls-3" d="M340.14,402.5c.37.68.76,2.21.34,2.43s-1.49-.93-1.86-1.61c-.64-1.19-.53-1.92-.16-2.12S339.51,401.33,340.14,402.5Z"/><path class="cls-3" d="M351.82,403.65c-.4.66-1.52,1.76-1.93,1.52s.06-1.76.46-2.42c.7-1.15,1.39-1.42,1.74-1.21S352.51,402.51,351.82,403.65Z"/><path class="cls-3" d="M338.14,422.83c.4-.66,1.53-1.77,1.94-1.52s-.06,1.76-.46,2.42c-.7,1.15-1.4,1.42-1.75,1.21S337.46,424,338.14,422.83Z"/><path class="cls-3" d="M354.62,420c-.67-.4-1.78-1.52-1.54-1.92s1.76,0,2.42.44c1.16.7,1.44,1.38,1.22,1.74S355.75,420.7,354.62,420Z"/><path class="cls-3" d="M335.35,406.46c.66.4,1.78,1.51,1.53,1.92s-1.75-.05-2.42-.44c-1.16-.7-1.43-1.39-1.22-1.74S334.21,405.78,335.35,406.46Z"/><path class="cls-3" d="M343.61,424.94c0-.77.49-2.29,1-2.26s.8,1.56.77,2.33c-.06,1.35-.54,1.92-.95,1.91S343.56,426.26,343.61,424.94Z"/><path class="cls-3" d="M346.35,401.54c0,.77-.48,2.28-1,2.26s-.79-1.57-.76-2.34c.06-1.35.53-1.92.94-1.9S346.41,400.21,346.35,401.54Z"/><path class="cls-3" d="M355.78,408.53c-.68.36-2.22.73-2.44.31s1-1.48,1.64-1.84c1.19-.63,1.93-.5,2.12-.14S357,407.91,355.78,408.53Z"/><path class="cls-3" d="M334.18,418c.69-.36,2.22-.73,2.44-.31s-.95,1.47-1.63,1.83c-1.2.63-1.93.51-2.12.15S333,418.57,334.18,418Z"/><path class="cls-1" d="M430.92,453.23a11,11,0,0,1-5.54-1.46c-3.41-2-5.49-5.75-5.7-10.35A23.86,23.86,0,0,1,422,430.69c-11.4-1.14-16.56-7.35-16.56-13.5,0-5.89,5.12-12.2,16.28-13.45-4.71-10.24-2-17.75,3.21-20.88a10.88,10.88,0,0,1,5.6-1.51c5.2,0,10.45,3.31,14.73,9.18,5.66-8.08,11.53-9.38,14.7-9.38a11.07,11.07,0,0,1,5.54,1.46c3.41,2,5.49,5.76,5.7,10.36a24,24,0,0,1-2.35,10.73c11.4,1.14,16.56,7.34,16.56,13.49,0,5.9-5.13,12.2-16.28,13.46a23.26,23.26,0,0,1,2.4,10.54c-.18,4.55-2.22,8.32-5.61,10.34a11,11,0,0,1-5.61,1.5c-5.19,0-10.44-3.3-14.72-9.17C440,451.94,434.09,453.23,430.92,453.23Z"/><path class="cls-2" d="M426.6,448.92a11.1,11.1,0,0,1-5.54-1.46c-3.41-2-5.49-5.76-5.7-10.36a23.88,23.88,0,0,1,2.36-10.73c-11.41-1.14-16.57-7.34-16.57-13.49,0-5.9,5.13-12.2,16.28-13.45-4.7-10.25-2-17.76,3.21-20.89a11,11,0,0,1,5.61-1.5c5.2,0,10.44,3.3,14.72,9.17,5.67-8.08,11.53-9.37,14.7-9.37a11,11,0,0,1,5.55,1.46c3.41,2,5.48,5.75,5.69,10.35a23.77,23.77,0,0,1-2.35,10.74c11.41,1.14,16.56,7.34,16.56,13.49,0,5.9-5.12,12.2-16.27,13.45a23.28,23.28,0,0,1,2.39,10.55c-.17,4.54-2.22,8.31-5.61,10.33a10.88,10.88,0,0,1-5.6,1.51c-5.2,0-10.44-3.3-14.72-9.17C435.64,447.62,429.78,448.92,426.6,448.92Z"/><path class="cls-3" d="M452.54,413.74c-.77,0-2.31-.38-2.31-.86s1.54-.86,2.31-.86c1.35,0,1.94.45,1.94.86S453.86,413.74,452.54,413.74Z"/><path class="cls-4" d="M476,412.88c0-4.07-4.64-8.5-15.26-8.5a28.16,28.16,0,0,0-6.35.9,28.82,28.82,0,0,0,4-5c5.23-9,3.82-15.42.31-17.46s-9.68-.26-15,8.92a28.66,28.66,0,0,0-2.56,6.43,29.22,29.22,0,0,0-2.63-6.4c-5.35-9-11.63-10.82-15.12-8.74s-4.92,8.33.52,17.45a27.4,27.4,0,0,0,3.8,4.76,27.83,27.83,0,0,0-6-.82c-10.43,0-15.26,4.43-15.26,8.5s4.63,8.5,15.26,8.5a28.24,28.24,0,0,0,6.35-.9,28,28,0,0,0-4,5c-5.23,9-3.82,15.42-.31,17.46s9.68.26,15-8.92a29,29,0,0,0,2.56-6.44,28.81,28.81,0,0,0,2.63,6.4c5.34,9,11.63,10.83,15.12,8.75s4.92-8.34-.52-17.46a28.16,28.16,0,0,0-3.8-4.76,27.21,27.21,0,0,0,6,.83C471.11,421.38,476,416.94,476,412.88Zm-34.8,1.91a2.87,2.87,0,0,0-.75-.64.74.74,0,0,1-.73-1.27,2.92,2.92,0,0,0-.16-.92,2.75,2.75,0,0,0,1.62-1,3,3,0,0,0,.74.64,3.14,3.14,0,0,0,.9.33,3.05,3.05,0,0,0-.17.94,2.67,2.67,0,0,0,.17.92,2.93,2.93,0,0,0-.88.34A3,3,0,0,0,441.15,414.79Z"/><path class="cls-5" d="M440.88,420.69a7.81,7.81,0,1,1,7.81-7.81A7.82,7.82,0,0,1,440.88,420.69Z"/><path class="cls-3" d="M429,412c.77,0,2.3.38,2.3.86s-1.53.86-2.3.86c-1.35,0-1.94-.45-1.94-.86S427.71,412,429,412Z"/><path class="cls-3" d="M445.63,423.62c-.37-.68-.76-2.21-.34-2.44s1.49.94,1.86,1.62c.64,1.18.53,1.92.16,2.11S446.26,424.78,445.63,423.62Z"/><path class="cls-3" d="M436,402.14c.36.68.75,2.21.34,2.43s-1.49-.93-1.86-1.61c-.64-1.19-.53-1.92-.17-2.12S435.31,401,436,402.14Z"/><path class="cls-3" d="M447.63,403.29c-.4.66-1.53,1.76-1.94,1.52s.06-1.76.46-2.42c.71-1.15,1.4-1.42,1.75-1.21S448.32,402.15,447.63,403.29Z"/><path class="cls-3" d="M434,422.47c.4-.66,1.53-1.77,1.93-1.52s-.06,1.76-.46,2.42c-.7,1.15-1.39,1.42-1.74,1.21S433.26,423.6,434,422.47Z"/><path class="cls-3" d="M450.42,419.66c-.66-.4-1.77-1.52-1.53-1.92s1.76,0,2.42.44c1.16.7,1.43,1.39,1.22,1.74S451.56,420.34,450.42,419.66Z"/><path class="cls-3" d="M431.16,406.1c.66.4,1.77,1.51,1.53,1.92s-1.76,0-2.42-.44c-1.16-.7-1.43-1.39-1.22-1.74S430,405.42,431.16,406.1Z"/><path class="cls-3" d="M439.42,424.58c0-.77.48-2.29,1-2.26s.8,1.56.76,2.33c-.06,1.35-.53,1.92-.94,1.91S439.36,425.9,439.42,424.58Z"/><path class="cls-3" d="M442.16,401.18c0,.77-.49,2.28-1,2.26s-.8-1.57-.77-2.34c.06-1.35.54-1.92.95-1.9S442.22,399.85,442.16,401.18Z"/><path class="cls-3" d="M451.59,408.17c-.69.36-2.22.73-2.44.31s1-1.48,1.63-1.84c1.2-.63,1.93-.5,2.12-.14S452.76,407.55,451.59,408.17Z"/><path class="cls-3" d="M430,417.59c.68-.36,2.22-.73,2.44-.31s-.95,1.47-1.64,1.83c-1.19.63-1.92.51-2.12.15S428.82,418.21,430,417.59Z"/><path class="cls-1" d="M148.68,453.89a11,11,0,0,1-5.54-1.46c-3.41-2-5.49-5.75-5.7-10.35a24,24,0,0,1,2.35-10.73c-11.4-1.14-16.56-7.35-16.56-13.5,0-5.89,5.13-12.2,16.28-13.45-4.71-10.24-2-17.75,3.21-20.88a10.88,10.88,0,0,1,5.6-1.51c5.2,0,10.45,3.31,14.73,9.18,5.66-8.08,11.53-9.38,14.7-9.38a11.07,11.07,0,0,1,5.54,1.46c3.41,2,5.49,5.76,5.7,10.36a24,24,0,0,1-2.35,10.73c11.4,1.14,16.56,7.34,16.56,13.49,0,5.9-5.13,12.2-16.28,13.46a23.26,23.26,0,0,1,2.4,10.54c-.18,4.55-2.22,8.32-5.61,10.34a11,11,0,0,1-5.6,1.5c-5.2,0-10.45-3.3-14.73-9.17C157.72,452.6,151.85,453.89,148.68,453.89Z"/><path class="cls-2" d="M144.36,449.58a11.1,11.1,0,0,1-5.54-1.46c-3.41-2-5.48-5.76-5.7-10.36A23.88,23.88,0,0,1,135.48,427c-11.41-1.14-16.57-7.34-16.57-13.49,0-5.9,5.13-12.2,16.28-13.45-4.7-10.25-2-17.76,3.21-20.89a11,11,0,0,1,5.61-1.5c5.2,0,10.44,3.3,14.72,9.17,5.67-8.08,11.53-9.37,14.71-9.37A11,11,0,0,1,179,379c3.41,2,5.48,5.75,5.7,10.35a23.92,23.92,0,0,1-2.36,10.74c11.41,1.14,16.57,7.34,16.57,13.49,0,5.9-5.13,12.2-16.28,13.45A23.15,23.15,0,0,1,185,437.54c-.17,4.54-2.22,8.31-5.61,10.33a10.85,10.85,0,0,1-5.6,1.51c-5.2,0-10.44-3.3-14.72-9.17C153.4,448.28,147.54,449.58,144.36,449.58Z"/><path class="cls-3" d="M170.3,414.4c-.77,0-2.3-.38-2.3-.86s1.53-.86,2.3-.86c1.35,0,1.94.45,1.94.86S171.63,414.4,170.3,414.4Z"/><path class="cls-4" d="M193.71,413.54c0-4.07-4.64-8.5-15.26-8.5a28.24,28.24,0,0,0-6.35.9,28.82,28.82,0,0,0,4-5c5.23-9,3.82-15.42.31-17.46s-9.68-.26-15,8.92a28.66,28.66,0,0,0-2.56,6.43,29.22,29.22,0,0,0-2.63-6.4c-5.34-8.95-11.63-10.82-15.12-8.74s-4.92,8.33.52,17.45a27.4,27.4,0,0,0,3.8,4.76,27.75,27.75,0,0,0-6-.82c-10.42,0-15.26,4.43-15.26,8.5s4.64,8.5,15.26,8.5a28.24,28.24,0,0,0,6.35-.9,28.45,28.45,0,0,0-4,5c-5.23,9-3.82,15.42-.31,17.46s9.68.26,15-8.93a28.94,28.94,0,0,0,2.56-6.43,28.81,28.81,0,0,0,2.63,6.4c5.34,8.95,11.63,10.83,15.12,8.75s4.92-8.34-.52-17.46a28.16,28.16,0,0,0-3.8-4.76,27.21,27.21,0,0,0,6,.83C188.87,422,193.71,417.6,193.71,413.54Zm-34.8,1.91a2.87,2.87,0,0,0-.75-.64,2.72,2.72,0,0,0-.89-.33,3.05,3.05,0,0,0,.17-.94,2.93,2.93,0,0,0-.17-.92,2.93,2.93,0,0,0,.88-.34,3.26,3.26,0,0,0,.74-.65,3,3,0,0,0,.74.64,3.09,3.09,0,0,0,.91.33,2.8,2.8,0,0,0-.18.94,2.93,2.93,0,0,0,.17.92,2.93,2.93,0,0,0-.88.34A3,3,0,0,0,158.91,415.45Z"/><path class="cls-5" d="M158.64,421.35a7.81,7.81,0,1,1,7.81-7.81A7.81,7.81,0,0,1,158.64,421.35Z"/><path class="cls-3" d="M146.8,412.68c.77,0,2.3.38,2.3.86s-1.53.86-2.3.86c-1.35,0-1.94-.45-1.94-.86S145.48,412.68,146.8,412.68Z"/><path class="cls-3" d="M163.39,424.28c-.37-.68-.76-2.21-.34-2.44s1.49.94,1.86,1.62c.64,1.18.53,1.92.17,2.11S164,425.44,163.39,424.28Z"/><path class="cls-3" d="M153.71,402.8c.37.68.76,2.21.34,2.43s-1.49-.93-1.86-1.61c-.64-1.19-.53-1.92-.17-2.12S153.08,401.63,153.71,402.8Z"/><path class="cls-3" d="M165.39,404c-.4.66-1.53,1.76-1.93,1.52s0-1.76.45-2.42c.71-1.15,1.4-1.42,1.75-1.21S166.08,402.81,165.39,404Z"/><path class="cls-3" d="M151.71,423.13c.4-.66,1.53-1.77,1.93-1.52s0,1.76-.45,2.42c-.71,1.15-1.4,1.42-1.75,1.21S151,424.26,151.71,423.13Z"/><path class="cls-3" d="M168.18,420.32c-.66-.4-1.77-1.52-1.53-1.93s1.76.05,2.42.45c1.16.69,1.43,1.38,1.22,1.74S169.32,421,168.18,420.32Z"/><path class="cls-3" d="M148.92,406.76c.66.4,1.77,1.51,1.53,1.92s-1.76-.05-2.42-.44c-1.16-.7-1.43-1.39-1.22-1.74S147.78,406.08,148.92,406.76Z"/><path class="cls-3" d="M157.18,425.24c0-.77.49-2.29,1-2.26s.8,1.56.76,2.33c-.05,1.35-.53,1.92-.94,1.91S157.12,426.56,157.18,425.24Z"/><path class="cls-3" d="M159.92,401.84c0,.77-.49,2.28-1,2.26s-.8-1.57-.76-2.34c.05-1.35.53-1.92.94-1.9S160,400.51,159.92,401.84Z"/><path class="cls-3" d="M169.35,408.83c-.68.36-2.22.73-2.44.31s1-1.48,1.63-1.84c1.2-.63,1.93-.5,2.13-.14S170.52,408.21,169.35,408.83Z"/><path class="cls-3" d="M147.75,418.25c.69-.36,2.22-.73,2.44-.31s-.95,1.47-1.63,1.83c-1.2.63-1.93.51-2.12.15S146.58,418.87,147.75,418.25Z"/><path class="cls-1" d="M241.9,453.59a11,11,0,0,1-5.55-1.46c-3.41-2-5.48-5.75-5.69-10.35A23.73,23.73,0,0,1,233,431.05c-11.41-1.14-16.56-7.35-16.56-13.5,0-5.89,5.12-12.2,16.27-13.45-4.7-10.24-2-17.75,3.22-20.88a10.85,10.85,0,0,1,5.6-1.51c5.2,0,10.44,3.31,14.72,9.18,5.67-8.08,11.53-9.38,14.71-9.38a11.1,11.1,0,0,1,5.54,1.46c3.41,2,5.49,5.76,5.7,10.36a23.88,23.88,0,0,1-2.36,10.73c11.41,1.14,16.57,7.34,16.57,13.49,0,5.9-5.13,12.2-16.28,13.46a23.26,23.26,0,0,1,2.4,10.54c-.18,4.55-2.22,8.32-5.61,10.34a11,11,0,0,1-5.61,1.5c-5.19,0-10.44-3.3-14.72-9.17C250.94,452.3,245.07,453.59,241.9,453.59Z"/><path class="cls-2" d="M237.58,449.28a11.07,11.07,0,0,1-5.54-1.46c-3.41-2-5.49-5.76-5.7-10.36a24,24,0,0,1,2.35-10.73c-11.4-1.14-16.56-7.34-16.56-13.49,0-5.9,5.13-12.2,16.28-13.45-4.7-10.25-2-17.76,3.21-20.89a11,11,0,0,1,5.6-1.5c5.2,0,10.45,3.3,14.73,9.17,5.66-8.08,11.53-9.37,14.7-9.37a11,11,0,0,1,5.54,1.46c3.41,2,5.49,5.75,5.7,10.35a23.9,23.9,0,0,1-2.35,10.74c11.4,1.14,16.56,7.34,16.56,13.49,0,5.9-5.12,12.2-16.27,13.45a23.28,23.28,0,0,1,2.39,10.55c-.17,4.54-2.22,8.31-5.61,10.33a10.88,10.88,0,0,1-5.6,1.51c-5.2,0-10.45-3.3-14.73-9.17C246.62,448,240.75,449.28,237.58,449.28Z"/><path class="cls-3" d="M263.52,414.1c-.78,0-2.31-.38-2.31-.86s1.53-.86,2.31-.86c1.35,0,1.94.45,1.94.86S264.84,414.1,263.52,414.1Z"/><path class="cls-4" d="M286.92,413.24c0-4.07-4.63-8.5-15.25-8.5a28.32,28.32,0,0,0-6.36.9,27.89,27.89,0,0,0,4-5c5.24-9,3.83-15.42.31-17.46s-9.67-.26-15,8.92a28.66,28.66,0,0,0-2.56,6.43,29.2,29.2,0,0,0-2.64-6.4c-5.34-8.95-11.62-10.82-15.11-8.74s-4.93,8.33.52,17.45a26.93,26.93,0,0,0,3.8,4.76,27.91,27.91,0,0,0-6-.82c-10.42,0-15.25,4.43-15.25,8.5s4.63,8.5,15.25,8.5a28.32,28.32,0,0,0,6.36-.9,28,28,0,0,0-4,5c-5.23,9-3.83,15.42-.31,17.46s9.67.26,15-8.93A28.77,28.77,0,0,0,252.2,428a28.79,28.79,0,0,0,2.64,6.4c5.34,8.95,11.62,10.83,15.12,8.75s4.92-8.34-.53-17.46a27.67,27.67,0,0,0-3.8-4.76,27.37,27.37,0,0,0,6,.83C282.09,421.74,286.92,417.3,286.92,413.24Zm-34.79,1.91a2.87,2.87,0,0,0-.75-.64.74.74,0,0,1-.73-1.27,2.92,2.92,0,0,0-.16-.92,3,3,0,0,0,.88-.34,2.82,2.82,0,0,0,.73-.65,3,3,0,0,0,.75.64,3.14,3.14,0,0,0,.9.33,3.05,3.05,0,0,0-.17.94,2.92,2.92,0,0,0,.16.92,3,3,0,0,0-.87.34A3,3,0,0,0,252.13,415.15Z"/><path class="cls-5" d="M251.85,421.05a7.81,7.81,0,1,1,7.81-7.81A7.81,7.81,0,0,1,251.85,421.05Z"/><path class="cls-3" d="M240,412.38c.77,0,2.3.38,2.3.86s-1.53.86-2.3.86c-1.35,0-1.94-.45-1.94-.86S238.69,412.38,240,412.38Z"/><path class="cls-3" d="M256.61,424c-.37-.68-.76-2.21-.34-2.44s1.49.94,1.85,1.62c.65,1.18.53,1.92.17,2.11S257.24,425.14,256.61,424Z"/><path class="cls-3" d="M246.92,402.5c.37.68.76,2.21.34,2.43s-1.48-.93-1.85-1.61c-.65-1.19-.53-1.92-.17-2.12S246.29,401.33,246.92,402.5Z"/><path class="cls-3" d="M258.61,403.65c-.4.66-1.53,1.76-1.94,1.52s.06-1.76.46-2.42c.7-1.15,1.4-1.42,1.75-1.21S259.3,402.51,258.61,403.65Z"/><path class="cls-3" d="M244.93,422.83c.4-.66,1.52-1.77,1.93-1.52s-.06,1.76-.46,2.42c-.7,1.15-1.39,1.42-1.74,1.21S244.24,424,244.93,422.83Z"/><path class="cls-3" d="M261.4,420c-.66-.4-1.78-1.52-1.53-1.92s1.75,0,2.42.44c1.16.7,1.43,1.38,1.22,1.74S262.54,420.7,261.4,420Z"/><path class="cls-3" d="M242.13,406.46c.67.4,1.78,1.51,1.54,1.92s-1.76-.05-2.42-.44c-1.16-.7-1.44-1.39-1.23-1.74S241,405.78,242.13,406.46Z"/><path class="cls-3" d="M250.4,424.94c0-.77.48-2.29,1-2.26s.79,1.56.76,2.33c-.06,1.35-.53,1.92-1,1.91S250.34,426.26,250.4,424.94Z"/><path class="cls-3" d="M253.14,401.54c0,.77-.49,2.28-1,2.26s-.8-1.57-.77-2.34c.06-1.35.54-1.92,1-1.9S253.19,400.21,253.14,401.54Z"/><path class="cls-3" d="M262.56,408.53c-.68.36-2.21.73-2.44.31s1-1.48,1.64-1.84c1.2-.63,1.93-.5,2.12-.14S263.74,407.91,262.56,408.53Z"/><path class="cls-3" d="M241,418c.68-.36,2.22-.73,2.44-.31s-.95,1.47-1.64,1.83c-1.19.63-1.93.51-2.12.15S239.8,418.57,241,418Z"/><polyline class="cls-6" points="492.95 456.55 492.95 462.55 486.95 462.55"/><line class="cls-7" x1="475.11" y1="462.55" x2="30.97" y2="462.55"/><polyline class="cls-6" points="25.05 462.55 19.05 462.55 19.05 456.55"/><line class="cls-8" x1="19.05" y1="444.64" x2="19.05" y2="283.8"/><polyline class="cls-6" points="19.05 277.84 19.05 271.84 25.05 271.84"/><line class="cls-7" x1="36.89" y1="271.84" x2="481.03" y2="271.84"/><polyline class="cls-6" points="486.95 271.84 492.95 271.84 492.95 277.84"/><line class="cls-8" x1="492.95" y1="289.76" x2="492.95" y2="450.59"/><polyline class="cls-6" points="492.95 234.16 492.95 240.16 486.95 240.16"/><line class="cls-7" x1="475.11" y1="240.16" x2="30.97" y2="240.16"/><polyline class="cls-6" points="25.05 240.16 19.05 240.16 19.05 234.16"/><line class="cls-8" x1="19.05" y1="222.24" x2="19.05" y2="61.41"/><polyline class="cls-6" points="19.05 55.45 19.05 49.45 25.05 49.45"/><line class="cls-7" x1="36.89" y1="49.45" x2="481.03" y2="49.45"/><polyline class="cls-6" points="486.95 49.45 492.95 49.45 492.95 55.45"/><line class="cls-8" x1="492.95" y1="67.36" x2="492.95" y2="228.2"/></svg>