<svg id="Layer_1" data-name="Layer 1" xmlns="http://www.w3.org/2000/svg" viewBox="0 0 512 512"><defs><style>.cls-1{opacity:0.5;}.cls-2{fill:#fff;}.cls-3{fill:#0047ad;}.cls-3,.cls-4{stroke:#001f6d;}.cls-3,.cls-4,.cls-5{stroke-miterlimit:10;stroke-width:2px;}.cls-4{fill:#00378e;}.cls-5{fill:#00479b;stroke:#003091;}.cls-6{fill:#57a3ff;}.cls-7{fill:#001b51;}</style></defs><g id="Slide_1" data-name="Slide 1"><path class="cls-1" d="M132.36,351.43a7.14,7.14,0,0,1-6.61-9.85c1.93-4.7,4-9.28,5.61-12.76,1-2.15,5-10.42,6.06-12.5.45-.9,2.54-4.92,3.06-5.92a19.09,19.09,0,0,1-3.58-13l6-.85A57.28,57.28,0,0,1,145.38,277l0,0,.69-2.11,2.76-9.08.43.41c7.15-17.3,18.94-35.55,32.9-50.78l.63-.69,0,0,2.25-2.4,3.82-4.13,0,.06c4.26-4.4,9.83-9.9,16.1-15.43l0,0,2.89-2.45,4.3-3.7.07.08c17-13.76,31.47-20.72,43-20.72a23.56,23.56,0,0,1,16.35,6.1c6.5,5.89,12.12,15.76,2,29.34l-1,1.3,2.46,1.82-7.38,5.08c-1.81,1.24-3.74,2.68-5.91,4.38l-9.88,8.14c-2.05,1.76-4.13,3.57-6.27,5.42l-3.86,3.33-1.28,1.13c-2.53,2.22-4.79,4.26-6.92,6.25l-.71.67c-3.84,3.6-7.24,7-10.39,10.43L221,250.75q-6.71,7.32-12.91,14.19l-3.07,3.38h0L195.31,279c-5.86,6.43-11.41,12.5-16.28,17.45l-11.5,14.33.43.82c-.75.53-1.5,1-2.24,1.45l-4.33,5.39-.21,4.48a18.61,18.61,0,0,1-3.53.35h-.14l-16.09,20.07-.2.32-1.86,3-.48.74-.51.8A7.17,7.17,0,0,1,132.36,351.43Z"/><path class="cls-2" d="M127,346.1a7.07,7.07,0,0,1-3.92-1.17,7.14,7.14,0,0,1-2.69-8.68c1.93-4.7,4-9.29,5.6-12.76,1-2.15,5-10.43,6.07-12.51.45-.89,2.53-4.91,3.06-5.91A19.16,19.16,0,0,1,131.56,292l6-.85a57.26,57.26,0,0,1,2.49-19.53l-.05-.06.69-2.1,2.77-9.08.43.41c7.15-17.31,18.94-35.55,32.9-50.78l.62-.69,0,0,2.26-2.4,3.81-4.14.06.07c4.25-4.4,9.83-9.9,16.1-15.43l0-.05,2.88-2.44,4.31-3.7.06.07c17-13.75,31.48-20.71,43-20.71a23.58,23.58,0,0,1,16.35,6.1c6.5,5.89,12.11,15.76,1.95,29.34l-1,1.3,2.46,1.82-7.38,5.08c-1.81,1.24-3.74,2.67-5.92,4.37l-9.87,8.15q-3.08,2.63-6.28,5.42l-3.85,3.33-1.28,1.13c-2.53,2.22-4.79,4.26-6.92,6.25l-.72.66c-3.84,3.61-7.23,7-10.38,10.43l-1.34,1.47c-4.48,4.87-8.78,9.62-12.92,14.18L199.72,263h0L190,273.67c-5.87,6.43-11.41,12.5-16.28,17.45l-11.5,14.33.42.82c-.75.53-1.5,1-2.24,1.45l-4.32,5.39-.21,4.48a18.69,18.69,0,0,1-3.53.35h-.14L136.09,338l-.2.33L134,341.28l-.48.75-.52.79A7.13,7.13,0,0,1,127,346.1Z"/><g id="_3" data-name="3"><path class="cls-3" d="M233.52,219.46c-5.47-1.22-10.9-2.08-15.85-2.71a51.67,51.67,0,0,1,13.17,5.05q-3.51,3.07-7.06,6.37-2.7-.84-5.27-1.53,2.31,1.11,4.53,2.22c-3.61,3.39-7.21,7-10.71,10.75-2.8-.44-5.58-.78-8.33-1q3.88.88,7.56,1.84l-.61.67c-7.63,8.31-14.86,16.36-21.56,23.69a71,71,0,0,0-7.92-2c2.58.8,5,1.69,7.36,2.65-20.24,22.12-34.48,38.52-41.42,34-4-2.71-5-13.53-.84-27.36,2,1.91,4.11,3.71,6.26,5.38-2.07-2.39-4-4.76-5.71-7.1q.39-1.18.84-2.4c5.72-15.72,16.9-35.5,33.55-53.66l2-2.16c2.07,2.23,4.19,4.34,6.35,6.3q-2.46-4.18-4.61-8.17a277.81,277.81,0,0,1,20.81-20c1.13,1.36,2.29,2.69,3.47,4q-1.14-2.58-2.19-5.07c18.94-16,41.62-29.56,54.6-17.8,7.45,6.75,6.64,13.38,1.11,20.76a54.33,54.33,0,0,0-17.18.46,50.92,50.92,0,0,1,12.79,6.31C250.91,204.26,242.67,211.54,233.52,219.46Z"/><path class="cls-4" d="M147.6,298.94c2.4,1.63,7.09,3.59,11.34,2.1-4.75,3.34-9.15,4.4-12.8,1.09C144.28,300.45,147.6,298.94,147.6,298.94Z"/><path class="cls-4" d="M137.93,292.66c1.34,3.32,5.83,8.32,8.65,9.28-.56,2.49-1.23,2.79-2.49,2.74S137.23,299.55,137.93,292.66Z"/><path class="cls-4" d="M154.61,311.31c-3.43-1-6.34-4.72-7.55-7.44-2.43.8-2.66,1.5-2.5,2.75S147.82,312.65,154.61,311.31Z"/><path class="cls-5" d="M240.28,188Q235,192.23,230,196.79c-.84.75-9.25,8.12-9.25,8.12s-15.45,15.4-17,17.05c-3.06,3.31-17.17,20.84-19.85,24.47C173.24,261,163.49,277,154.34,292.6c-4.57,7.79-8.39,15.15-13,23-2.27,3.91-4.16,8.22-6.49,12.12l-1.76,2.92-1.78,2.92-.89,1.45-1.83,2.9-.46.73-.47.72,0,.05a.74.74,0,0,1-1.31-.69c1.73-4.22,3.59-8.38,5.5-12.52,1-2.06,4.94-10.26,6-12.3l3.14-6.07c.53-1,3.23-6,3.23-6l1.66-3,1.68-3q1.68-3,3.42-5.92a469.09,469.09,0,0,1,30.35-45.54q4.14-5.45,8.47-10.76t8.89-10.42c6.07-6.83,12.4-13.42,19.05-19.69,3.32-3.13,6.71-6.2,10.2-9.15s33.81-23.26,34-22.9S247.27,182.25,240.28,188Z"/></g><polygon class="cls-6" points="256.11 197.82 232.67 218.12 222.63 217.03 233.45 219.18 258.01 198.91 256.11 197.82"/><polygon class="cls-6" points="228.81 221.1 230.22 221.9 223.69 227.76 219 226.42 223.07 226.91 228.81 221.1"/><polygon class="cls-6" points="221.37 228.47 222.36 229 212.16 239.14 205.79 238.38 211.57 238.16 221.37 228.47"/><polygon class="cls-6" points="210.8 240.63 209.19 240.24 188.85 263.44 182.63 262.67 189.36 264.4 210.8 240.63"/><path class="cls-6" d="M186.19,264.61l1.85,1s-20.67,23.93-30.11,30.6C157.93,296.24,181.44,273.44,186.19,264.61Z"/><path class="cls-7" d="M261.26,171.73q-11.52,7.38-22.36,15.72t-21,17.4c-13.54,12.15-25.94,25.53-36.15,40.63-10.7,14.73-20.7,30-30.18,45.53s-18.19,31.6-24.92,48.57a232.17,232.17,0,0,1,10.6-25.24c4.05-8.19,8.45-16.19,13-24.12s9.46-15.62,14.43-23.28,10.13-15.2,15.45-22.63a203.67,203.67,0,0,1,17.09-21.47,229.25,229.25,0,0,1,19.67-19.14q10.37-9,21.46-17l5.61-3.93c1.9-1.27,3.77-2.58,5.69-3.81C253.42,176.4,257.3,174,261.26,171.73Z"/><path class="cls-1" d="M245.41,351.43a7.13,7.13,0,0,1-6.6-9.85c1.92-4.7,4-9.28,5.6-12.76,1-2.15,5-10.42,6.07-12.5.45-.9,2.53-4.92,3.05-5.92a19.19,19.19,0,0,1-3.58-13l6-.85A57.53,57.53,0,0,1,258.43,277l0,0,.69-2.11,2.76-9.08.44.41c7.15-17.3,18.94-35.55,32.9-50.78l.62-.69,0,0,2.26-2.4,3.81-4.13.06.06c4.25-4.4,9.82-9.9,16.1-15.43l0,0,2.88-2.45,4.31-3.7.06.08c17-13.76,31.47-20.72,43-20.72a23.58,23.58,0,0,1,16.35,6.1c6.5,5.89,12.11,15.76,1.94,29.34l-1,1.3,2.47,1.82-7.39,5.08c-1.8,1.24-3.74,2.68-5.91,4.38l-9.87,8.14-6.28,5.42-3.85,3.33-1.28,1.13c-2.53,2.22-4.8,4.26-6.93,6.25l-.71.67c-3.84,3.6-7.24,7-10.39,10.43l-1.33,1.46q-6.72,7.32-12.92,14.19l-3.07,3.38h0L308.37,279c-5.87,6.43-11.41,12.5-16.28,17.45l-11.5,14.33.42.82c-.75.53-1.5,1-2.24,1.45l-4.32,5.39-.21,4.48a18.69,18.69,0,0,1-3.53.35h-.14l-16.1,20.07-.19.32-1.87,3-.47.74-.52.8A7.15,7.15,0,0,1,245.41,351.43Z"/><path class="cls-2" d="M240.08,346.1a7.13,7.13,0,0,1-6.6-9.85c1.92-4.7,4-9.29,5.6-12.76,1-2.15,5-10.43,6.06-12.51l3.06-5.91A19.1,19.1,0,0,1,244.62,292l6-.85a57.51,57.51,0,0,1,2.49-19.53l0-.06.69-2.1,2.76-9.08.44.41c7.14-17.31,18.93-35.55,32.89-50.78l.63-.69,0,0,2.25-2.4,3.82-4.14.05.07c4.26-4.4,9.83-9.9,16.1-15.43l0-.05,2.89-2.44,4.31-3.7.06.07c17-13.75,31.47-20.71,43-20.71a23.58,23.58,0,0,1,16.35,6.1c6.49,5.89,12.11,15.76,1.94,29.34l-1,1.3,2.46,1.82-7.38,5.08c-1.8,1.24-3.74,2.67-5.91,4.37l-9.88,8.15q-3.06,2.63-6.27,5.42l-3.86,3.33-1.28,1.13c-2.52,2.22-4.79,4.26-6.92,6.25l-.71.66c-3.84,3.61-7.24,7-10.39,10.43l-1.34,1.47c-4.47,4.87-8.77,9.62-12.91,14.18L312.77,263h0L303,273.67c-5.86,6.43-11.41,12.5-16.28,17.45l-11.5,14.33.43.82c-.75.53-1.5,1-2.24,1.45l-4.33,5.39-.2,4.48a18.77,18.77,0,0,1-3.53.35h-.14L249.14,338l-.2.33-1.86,2.95-.48.75-.51.79A7.15,7.15,0,0,1,240.08,346.1Z"/><g id="_3-2" data-name="3"><path class="cls-3" d="M346.57,219.46c-5.47-1.22-10.89-2.08-15.85-2.71a51.67,51.67,0,0,1,13.17,5.05q-3.51,3.07-7.06,6.37-2.68-.84-5.27-1.53c1.54.74,3.06,1.48,4.54,2.22-3.62,3.39-7.22,7-10.71,10.75-2.8-.44-5.59-.78-8.34-1,2.59.59,5.12,1.2,7.56,1.84-.2.22-.4.45-.61.67-7.63,8.31-14.86,16.36-21.55,23.69a70.6,70.6,0,0,0-7.93-2c2.59.8,5,1.69,7.36,2.65-20.23,22.12-34.48,38.52-41.41,34-4.05-2.71-5.05-13.53-.84-27.36,2,1.91,4.11,3.71,6.25,5.38q-3.09-3.58-5.71-7.1c.27-.79.54-1.59.84-2.4,5.73-15.72,16.9-35.5,33.55-53.66l2-2.16c2.07,2.23,4.18,4.34,6.34,6.3q-2.44-4.18-4.6-8.17a277.5,277.5,0,0,1,20.8-20c1.14,1.36,2.29,2.69,3.48,4q-1.15-2.58-2.19-5.07c18.93-16,41.61-29.56,54.59-17.8,7.45,6.75,6.65,13.38,1.12,20.76a54.39,54.39,0,0,0-17.19.46,50.58,50.58,0,0,1,12.79,6.31C364,204.26,355.73,211.54,346.57,219.46Z"/><path class="cls-4" d="M260.66,298.94c2.39,1.63,7.09,3.59,11.33,2.1-4.74,3.34-9.15,4.4-12.8,1.09C257.34,300.45,260.66,298.94,260.66,298.94Z"/><path class="cls-4" d="M251,292.66c1.34,3.32,5.84,8.32,8.66,9.28-.57,2.49-1.24,2.79-2.5,2.74S250.29,299.55,251,292.66Z"/><path class="cls-4" d="M267.66,311.31c-3.43-1-6.33-4.72-7.55-7.44-2.43.8-2.66,1.5-2.49,2.75S260.87,312.65,267.66,311.31Z"/><path class="cls-5" d="M353.33,188q-5.25,4.28-10.25,8.84c-.84.75-9.25,8.12-9.25,8.12s-15.44,15.4-17,17.05c-3.06,3.31-17.17,20.84-19.85,24.47C286.29,261,276.55,277,267.39,292.6c-4.57,7.79-8.39,15.15-13,23-2.28,3.91-4.17,8.22-6.5,12.12l-1.75,2.92-1.78,2.92-.9,1.45-1.82,2.9-.46.73-.48.72,0,.05a.74.74,0,0,1-1,.21.75.75,0,0,1-.28-.9c1.73-4.22,3.6-8.38,5.5-12.52,1-2.06,4.94-10.26,6-12.3.51-1,3.14-6.07,3.14-6.07.53-1,3.23-6,3.23-6,.55-1,1.1-2,1.66-3s1.11-2,1.68-3q1.68-3,3.42-5.92a467.27,467.27,0,0,1,30.35-45.54q4.14-5.45,8.46-10.76t8.9-10.42c6.06-6.83,12.4-13.42,19-19.69,3.32-3.13,6.71-6.2,10.2-9.15s33.82-23.26,34-22.9S360.33,182.25,353.33,188Z"/></g><polygon class="cls-6" points="369.17 197.82 345.72 218.12 335.68 217.03 346.51 219.18 371.06 198.91 369.17 197.82"/><polygon class="cls-6" points="341.87 221.1 343.27 221.9 336.75 227.76 332.05 226.42 336.13 226.91 341.87 221.1"/><polygon class="cls-6" points="334.42 228.47 335.41 229 325.22 239.14 318.85 238.38 324.63 238.16 334.42 228.47"/><polygon class="cls-6" points="323.85 240.63 322.25 240.24 301.9 263.44 295.68 262.67 302.41 264.4 323.85 240.63"/><path class="cls-6" d="M299.25,264.61l1.84,1s-20.67,23.93-30.1,30.6C271,296.24,294.5,273.44,299.25,264.61Z"/><path class="cls-7" d="M374.32,171.73Q362.8,179.11,352,187.45t-21,17.4C317.38,217,305,230.38,294.77,245.48c-10.69,14.73-20.7,30-30.17,45.53s-18.2,31.6-24.93,48.57a232.17,232.17,0,0,1,10.6-25.24c4-8.19,8.46-16.19,13-24.12s9.45-15.62,14.42-23.28,10.13-15.2,15.46-22.63a202.39,202.39,0,0,1,17.09-21.47,229.13,229.13,0,0,1,19.66-19.14q10.36-9,21.47-17l5.6-3.93c1.9-1.27,3.77-2.58,5.69-3.81C366.48,176.4,370.36,174,374.32,171.73Z"/></g></svg>