<svg id="Layer_1" data-name="Layer 1" xmlns="http://www.w3.org/2000/svg" viewBox="0 0 512 512"><defs><style>.cls-1{opacity:0.5;}.cls-2{fill:#fff;}.cls-3{fill:#00a552;}.cls-4{fill:#fdee3a;stroke:#182604;}.cls-4,.cls-7,.cls-9{stroke-miterlimit:10;stroke-width:2px;}.cls-5{fill:#231f20;}.cls-6{fill:#025626;}.cls-7,.cls-8,.cls-9{fill:none;}.cls-7{stroke:#025626;}.cls-9{stroke:#016b31;}.cls-10{fill:#016b31;}.cls-11{fill:#07dd5e;}.cls-12{fill:#07d85b;}.cls-13{fill:#02c953;}</style></defs><path class="cls-1" d="M366.4,384.12a11.6,11.6,0,0,1-2.4-.26,16.88,16.88,0,0,1-1.83-.42l-.9-.27-.79-.51a7,7,0,0,1-.66-.47l-1.33-.76-.87-1.67a8.43,8.43,0,0,1-.62-1.19,8.92,8.92,0,0,1-2.73.43,9.58,9.58,0,0,1-6.3-2.44l-.86-.74-.55-1c-.09-.15-.21-.39-.35-.69l-.15-.26L345,372l.25-2.14a9.63,9.63,0,0,1,.62-2.33,9.53,9.53,0,0,1,.38-.93,10.14,10.14,0,0,1-3.89.76,8.82,8.82,0,0,1-6.75-2.94l-.15-.15-.3-.42a6.91,6.91,0,0,1-.54-.86l-.22-.42-.2-.48a8.85,8.85,0,0,1-1.56-.49l-1.55-.67-.77-1-.52-.45-.49-.75a8.61,8.61,0,0,1-.73-7.92c1.49-4,5.68-6.49,11-6.55l1.42,0c.46,0,.91-.06,1.35-.07,2.09-.13,3.79-.34,4.17-.38l-1.15-1.24-.6-.54a28.38,28.38,0,0,0-4.71-2.38,32.83,32.83,0,0,1-11.91-5.9c-.57-.38-1.07-.73-1.51-1.06a18,18,0,0,1-2-1.78l-.18-.19c-.51-.47-.79-.76-.79-.76l-.43-.45-.36-.53a14,14,0,0,1-1.26-2.43,11.32,11.32,0,0,1-.85-7.18,10.49,10.49,0,0,1,2.58-5.17,7.14,7.14,0,0,1,3.82-3.18,6.94,6.94,0,0,1,1.09-.32l.35-.07c.75-.28,1.88-.69,3.11-1,.64-.19,1.34-.36,2-.49l.64-.11a11.69,11.69,0,0,0,2.1-1.57c.16-.15.4-.37.71-.62a11.44,11.44,0,0,1,7.93-3.08,15.12,15.12,0,0,1,7.55,2.19l.16.09.16.1h0a27.9,27.9,0,0,0,3.25,1.66,67.5,67.5,0,0,0,7.16,2.57,76.65,76.65,0,0,0,11.94,2.4l2.53.33c8.88.89,21.44,3.75,30.23,9.13l.24.15c.32.2.58.36.83.53,4.69,3,7.94,6.65,9.67,10.82l.56,0c5.79.18,10.08,3.92,11.57,10.08l.14.6,0,.61c.05,1.18.12,11.81-13.25,21.85q-2,1.57-4.22,3a9.07,9.07,0,0,1-3.91,5.72,9,9,0,0,1-5.17,1.6h0a10.89,10.89,0,0,1-3.23-.52l-.92-.24-.57-.17-.53-.28a7.61,7.61,0,0,1-1.22-.79l-.34-.19-.34-.32a12.38,12.38,0,0,1-3.85.62,9,9,0,0,1-6.95-3l-.79-.68c-.39.21-.79.39-1.19.56l-.54.22c-1.15.64-2.61,1.46-3.51,2l-.44.26-.55.32-.09,0a31.28,31.28,0,0,1-3.6,1.73l-.15.1a8.81,8.81,0,0,1-2.11,4.14A9.86,9.86,0,0,1,366.4,384.12Z"/><path class="cls-2" d="M361.08,378.79a11.69,11.69,0,0,1-2.41-.26,17.44,17.44,0,0,1-1.83-.42l-.9-.26-.79-.52a6,6,0,0,1-.65-.47l-1.34-.75-.87-1.68a7.92,7.92,0,0,1-.62-1.19,8.92,8.92,0,0,1-2.73.43,9.58,9.58,0,0,1-6.3-2.44l-.85-.74-.56-1c-.08-.15-.21-.39-.34-.69a2.26,2.26,0,0,1-.16-.26l-1.09-1.86.25-2.14a9.42,9.42,0,0,1,.63-2.33,7.5,7.5,0,0,1,.37-.93,10.14,10.14,0,0,1-3.89.76,8.78,8.78,0,0,1-6.75-2.94l-.15-.15-.3-.42a8.32,8.32,0,0,1-.54-.86l-.22-.42-.2-.47a9,9,0,0,1-1.56-.5l-1.55-.67-.76-1-.53-.44-.49-.76a8.61,8.61,0,0,1-.73-7.92c1.49-4,5.68-6.48,11-6.55.48,0,.95,0,1.42,0s.92-.06,1.35-.07c2.1-.13,3.8-.33,4.17-.38-.42-.44-.8-.86-1.14-1.24l-.61-.54a28.21,28.21,0,0,0-4.7-2.38,32.79,32.79,0,0,1-11.92-5.9c-.57-.37-1.07-.72-1.51-1.06a16,16,0,0,1-2-1.78l-.18-.19c-.5-.47-.79-.76-.79-.76l-.43-.44-.36-.54a14.78,14.78,0,0,1-1.26-2.43,11.3,11.3,0,0,1-.85-7.17,10.48,10.48,0,0,1,2.58-5.18,7.14,7.14,0,0,1,3.82-3.18,8.2,8.2,0,0,1,1.09-.32l.36-.07c.74-.28,1.87-.69,3.1-1a19,19,0,0,1,2-.48l.64-.11a12.72,12.72,0,0,0,2.1-1.57,9.15,9.15,0,0,1,.71-.63,11.46,11.46,0,0,1,7.93-3.08,15.18,15.18,0,0,1,7.56,2.19l.15.1.16.1h0a29.15,29.15,0,0,0,3.25,1.65,65.35,65.35,0,0,0,7.16,2.57,76.78,76.78,0,0,0,11.95,2.4l2.52.33c8.88.89,21.44,3.75,30.23,9.14l.24.14.83.53c4.69,3,7.94,6.65,9.67,10.82l.57.05c5.78.17,10.08,3.91,11.56,10.07l.14.6,0,.62c0,1.18.12,11.81-13.25,21.85-1.32,1-2.74,2.06-4.22,3a9.35,9.35,0,0,1-9.08,7.32h0a10.78,10.78,0,0,1-3.22-.52c-.3-.07-.6-.14-.93-.24l-.57-.17-.53-.27a9.35,9.35,0,0,1-1.22-.79l-.34-.2-.34-.32a12.36,12.36,0,0,1-3.84.62,9,9,0,0,1-7-3l-.79-.68a11.66,11.66,0,0,1-1.19.56l-.54.22-3.51,2-.44.26-.54.33-.1,0a31.28,31.28,0,0,1-3.6,1.73l-.14.1a8.83,8.83,0,0,1-2.12,4.14A9.85,9.85,0,0,1,361.08,378.79Z"/><path class="cls-3" d="M325.19,322.25s-6.86-5.18-1.54-9.84c0,0-.51-.79,1.31-.89a25.36,25.36,0,0,1,5.32-1.58c2.24-.28,5.36-3.27,5.36-3.27a6.5,6.5,0,0,1,8-.75c4.66,2.76,15.41,7,27.45,8.07s38.07,6.94,37.51,22.19c0,0,8.73-5,10.83,3.78,0,0,.39,8.7-11.84,17.28l-4.24,2.9s-1.93,1.05-1.19,2.63c0,0-.77,4.69-5.84,1.75,0,0-1.79-1.68,3.53-4.69l3.88-3.18s-4.09,3.18-11.79,4.65c0,0-2.52,4.23-6.19,1.08a2.82,2.82,0,0,1,.94-3.25s-1.81-2.31,1.25-3.2c0,0,9.18.54,11.4-2.5a8.07,8.07,0,0,1-4.21-3s-6.34,2.46-11.34,2.24c0,0-2.27,6.4-6.89,8.31,0,0-3.4,1.34-3.71,1.8a23.62,23.62,0,0,1-4.93,2.72c-1.09.36-4.2,2.35-4,4.21s-2.45,3.95-6.3,1.78c0,0-1.57-3,1.68-3.53,0,0,1.72-.56,2-1.3,0,0,5.71-4,5.88-5.11,0,0-8.5,3.12-13.92,3.22a2.54,2.54,0,0,0-2.35,1.3s-2.87,2.83-5-.74a3.74,3.74,0,0,1,3.64-3l15-3.63s-3-.53-3.68-.18-5.49-.63-5.49-.63-.94,0-1.22.56-3.92,2.31-3.75-1.78a5.17,5.17,0,0,1,2.59-1.79c1.57-.38,5.14.39,5.14.39l12.84.42s3.47-3.54,3.47-4.76l-10.64-5.67s-7.45-4.06-7.94-4c0,0-3.74,5.77-.74,5.11,0,0,3.92.7.88,4.3,0,0-3.39,1.23-3.39-2.59a8.33,8.33,0,0,0-4.87,1.09c-2.2,1.4-5.88,3.78-7.24,3.74,0,0-.91,0-1.3,1.51s-4.56,2-4.86-.44c0,0-.88-1.28,5.09-3.47l4.59-2.68s-2,.72-11,1.09c0,0-1.64,3.08-4.06,1,0,0-1.59-2.41,2.24-4a34.81,34.81,0,0,1,6.64-.68c2.36.16,9.59-.21,11.76-7.11,0,0-3.34-3.15-5.39-5.48s-8.72-4.81-8.72-4.81S328.87,325.05,325.19,322.25Z"/><circle class="cls-4" cx="345.15" cy="316.21" r="4.94"/><path class="cls-5" d="M341.61,315a3.41,3.41,0,0,1,4.35-.87A4.2,4.2,0,0,1,348.7,318a4.28,4.28,0,0,1-4.4.45A5.18,5.18,0,0,1,341.61,315Z"/><circle class="cls-2" cx="347.49" cy="315.48" r="1.16"/><ellipse class="cls-5" cx="327.21" cy="314.54" rx="1.15" ry="0.7"/><path class="cls-6" d="M362.65,337.47a17.63,17.63,0,0,0,4.35,1.4,29.83,29.83,0,0,0,4.43.45c1.49.08,3,0,4.52,0,.76-.06,1.53-.09,2.31-.11a23.3,23.3,0,0,1,2.38-.07c-.7.39-1.44.71-2.18,1s-1.52.5-2.3.69a18.41,18.41,0,0,1-4.81.48,14.44,14.44,0,0,1-4.8-1A8.41,8.41,0,0,1,362.65,337.47Z"/><path class="cls-7" d="M369.34,332.12s13.54-1,16.72,4c0,0,1.78,2.13,0,7.87l-2.62,9.27s-1.86,6.09-5.95,7.28c0,0-4.45,2.46-5.85,3.3,0,0-7.94,3-7.55,6.25,0,0-.18,3.43-5.46,1.89,0,0-2.87-1.82.26-3.85a5.42,5.42,0,0,0,2.22-1l6.67-5.72s-4.43,2.24-15.31,3.43a3.85,3.85,0,0,0-1.38,1.4,2.89,2.89,0,0,1-4.29.1,2.48,2.48,0,0,1,.75-3.3,13.79,13.79,0,0,1,4.52-1.32l14-3.28a14.92,14.92,0,0,0,4.85-2.67,16.08,16.08,0,0,0,4.95-6.92s1.75-6.09,1.45-9"/><path class="cls-7" d="M370.85,355.74s-12.12,0-13.42-.67-7-.82-7,2.71c0,0,.4,3.05,4.92.07a4.06,4.06,0,0,1,2.15.53l7.86.13"/><path class="cls-6" d="M324,321.15a11.59,11.59,0,0,1,4.19.05,18.4,18.4,0,0,1,2,.64l1.92.7,7.65,2.83c1.26.48,2.54.94,3.81,1.37s2.56.86,3.83,1.24a17.09,17.09,0,0,0,3.85.74,2,2,0,0,0,1.59-.47,2.36,2.36,0,0,0,.1-1.85,2.38,2.38,0,0,1,.38,2.12,1.81,1.81,0,0,1-.89.84,3.78,3.78,0,0,1-1.1.34,14.12,14.12,0,0,1-4.27-.2,46.84,46.84,0,0,1-8-2.26,81.85,81.85,0,0,1-7.57-3.27c-.61-.31-1.23-.61-1.84-.94a18.45,18.45,0,0,0-1.78-.89A16.53,16.53,0,0,0,324,321.15Z"/><path class="cls-6" d="M346.46,310a7.18,7.18,0,0,1,3,.58,6.41,6.41,0,0,1,2.54,1.93,6.27,6.27,0,0,1,1.28,3.05,9,9,0,0,1,.07,1.64c-.05.54-.14,1.06-.22,1.59v.07a7.79,7.79,0,0,1-1.63,2.71,6.44,6.44,0,0,1-5.58,2.08,8.63,8.63,0,0,1-1.43-.29c-.45-.16-.89-.36-1.31-.55h1.39a11.7,11.7,0,0,0,1.34-.13,6.62,6.62,0,0,0,2.37-.78,5.9,5.9,0,0,0,1.8-1.57,7.59,7.59,0,0,0,1.14-2.05l0,.07c.05-.44.15-.87.19-1.3a7.83,7.83,0,0,0,0-1.28,5.24,5.24,0,0,0-.68-2.38,6.56,6.56,0,0,0-1.74-2A11.27,11.27,0,0,0,346.46,310Z"/><path class="cls-8" d="M404.29,332.08s-10.22,1-10.08,14.17c0,0,.56,11.48,13.93,5.25,0,0,3-1.47,7.56-7.77"/><path class="cls-7" d="M403.38,343.28s.35-6,9.1-8.57c0,0,8.95-.49,6,9.58,0,0-2.37,8.12-15.11,15.85a2.2,2.2,0,0,0-1.17,2.28s.24,4.2-5.22,2.56c0,0-2.15-1.07.37-3.54l6.4-4.79s-7.9,4-10.9,4.47c0,0-1.33.55-1.66,1.49s-6.81,2.56-5.32-2.76c0,0,1.09-1.87,4.24-1.52s11.23-3.22,11.79-4.48"/><path class="cls-9" d="M386.53,359s-1.6-2.09,1.45-3.22c0,0,8.33.74,11.39-2.34"/><path class="cls-6" d="M404.5,332.22a10.12,10.12,0,0,0-4.6,1.86,10.47,10.47,0,0,0-3.09,3.69,17.65,17.65,0,0,0-1.62,9.39,6.46,6.46,0,0,0,1.93,3.89,6.83,6.83,0,0,0,4.08,1.63,10.89,10.89,0,0,0,4.64-.63,9.74,9.74,0,0,0,4-2.52l.06-.06h0c1-.88,2-1.79,3-2.73.48-.48,1-1,1.41-1.47a7.77,7.77,0,0,0,1.2-1.64,7.3,7.3,0,0,1-.89,1.87,18.46,18.46,0,0,1-1.19,1.7,40.53,40.53,0,0,1-2.71,3.15l.06-.06a10.48,10.48,0,0,1-4.32,3.28,12.12,12.12,0,0,1-5.37,1,8.61,8.61,0,0,1-5.28-2.05,8.15,8.15,0,0,1-2.51-5.09,15.38,15.38,0,0,1,.36-5.39,15.64,15.64,0,0,1,2-5,10.74,10.74,0,0,1,3.85-3.7,9.26,9.26,0,0,1,2.47-.94A8.33,8.33,0,0,1,404.5,332.22Z"/><path class="cls-7" d="M349.94,338.14s-3,6.46-7.81,6.64a71.42,71.42,0,0,1-7.8.56c-4,.05-6.67,2.29-4.52,5.09a2.74,2.74,0,0,0,3.55-1.52s9.51-.07,11.66-1.37L335.17,353s-2,2.75,2.85,2.51a2.15,2.15,0,0,0,1.77-2.08,4.15,4.15,0,0,1,1.87-.71l7.88-4.34s3-.8,3.72-.19c0,0-.4,3.31,2.63,2.61,0,0,4.38-2.68-.45-4.44,0,0-1.28.43-1.28-1.2l2.1-3.69"/><path class="cls-7" d="M395.16,350.42s-4.17,2.41-11.34,2.24"/><path class="cls-7" d="M374.81,351s-7.92-3.94-10.34-5.48-12.75-6.3-15.22-8-5.56-7.73-12.8-9.34-13.51-8-13.51-8-3.27-4.89.71-7.71c0,0-.22-1,1.48-.83a17.76,17.76,0,0,1,5.25-1.64c2.41-.23,5.68-3.61,5.68-3.61s2.7-3.36,8.14-.23c0,0,8.42,5.58,25.08,7.63s39.84,7.69,39.35,22.45"/><path class="cls-10" d="M331.66,324.65s16.63,6.52,18.43,6.38c0,0,10.1,9.82,24,14.22l1.61.44-1.17,4s-24.07-12.61-24.4-13.56-.32.07-.32.07S350.43,332.35,331.66,324.65Z"/><path class="cls-10" d="M385.66,348.31l-.76,3.57s6.3.27,8.85-1.85a9.47,9.47,0,0,1-.54-4.36S389.46,349.53,385.66,348.31Z"/><path class="cls-10" d="M332.36,310.71l3.88-3.08a5.09,5.09,0,0,1,6.46-1.35l3.44,1.9-3.77-1.5s-3.56-1.47-5.58,1.65Z"/><path class="cls-10" d="M407,339.46s10-8.51,10.93,2.42c0,0-.65,4.18-2.41,6,0,0,2.7-7.91.21-9C415.7,338.91,413.06,336.38,407,339.46Z"/><path class="cls-10" d="M374.34,333.15s13.48-.44,11.32,8.47l-1.35,5.21S388.56,333.63,374.34,333.15Z"/><path class="cls-11" d="M353.66,311.59s10.7,3.92,18.85,3.89,33.95,8.43,33.65,16.21c0,0-9.46-12.2-33.65-15.05C372.51,316.64,361.07,315.63,353.66,311.59Z"/><path class="cls-12" d="M324.62,313.35s-4.36,3.63,0,7C324.62,320.39,321.28,317.42,324.62,313.35Z"/><path class="cls-12" d="M339.25,316.21s1,7.56,8,5.43C347.28,321.64,340.12,324.76,339.25,316.21Z"/><path class="cls-13" d="M395.36,342.1s-1.61,15.4,12,8.9C407.34,351,395.7,356.08,395.36,342.1Z"/><path class="cls-12" d="M341.24,346s6.67-.54,9.21-6.59l1.69.74S347,346.77,341.24,346Z"/><path class="cls-10" d="M328.49,314.29s.32,1-1.28,1.15C327.21,315.44,329,315.7,328.49,314.29Z"/><path class="cls-1" d="M249.19,384.12a11.6,11.6,0,0,1-2.4-.26,17.63,17.63,0,0,1-1.84-.42l-.9-.27-.79-.51a6,6,0,0,1-.65-.47l-1.34-.76-.86-1.67a9.7,9.7,0,0,1-.63-1.19,8.87,8.87,0,0,1-2.73.43,9.54,9.54,0,0,1-6.29-2.44l-.86-.74-.55-1c-.09-.15-.21-.39-.35-.69l-.16-.26L227.75,372l.26-2.14a8.76,8.76,0,0,1,.62-2.33,7.55,7.55,0,0,1,.38-.93,10.18,10.18,0,0,1-3.89.76,8.84,8.84,0,0,1-6.76-2.94l-.15-.15-.3-.42c-.19-.27-.37-.56-.54-.86l-.22-.42s-.16-.38-.19-.48a8.58,8.58,0,0,1-1.56-.49l-1.56-.67-.76-1-.52-.45-.5-.75a8.64,8.64,0,0,1-.73-7.92c1.5-4,5.69-6.49,11-6.55l1.42,0c.47,0,.92-.06,1.35-.07,2.1-.13,3.8-.34,4.18-.38-.42-.45-.81-.86-1.15-1.24l-.6-.54a28.38,28.38,0,0,0-4.71-2.38,32.79,32.79,0,0,1-11.92-5.9c-.57-.38-1.06-.73-1.51-1.06a19.12,19.12,0,0,1-2-1.78l-.18-.19c-.5-.47-.79-.76-.79-.76l-.43-.45-.36-.53a15.66,15.66,0,0,1-1.26-2.43,11.39,11.39,0,0,1-.85-7.18,10.59,10.59,0,0,1,2.59-5.17A7.12,7.12,0,0,1,210,311a7.63,7.63,0,0,1,1.09-.32l.36-.07c.74-.28,1.88-.69,3.1-1,.65-.19,1.35-.36,2-.49l.64-.11a12,12,0,0,0,2.1-1.57c.16-.15.39-.37.7-.62A11.49,11.49,0,0,1,228,303.7a15.17,15.17,0,0,1,7.55,2.19l.16.09.15.1h0a29,29,0,0,0,3.25,1.66,68.31,68.31,0,0,0,7.16,2.57,77,77,0,0,0,12,2.4l2.52.33c8.88.89,21.44,3.75,30.23,9.13l.24.15c.33.2.58.36.83.53,4.69,3,7.94,6.65,9.68,10.82l.56,0c5.79.18,10.08,3.92,11.56,10.08l.15.6,0,.61c0,1.18.12,11.81-13.26,21.85-1.32,1-2.74,2.06-4.22,3a9.38,9.38,0,0,1-9.08,7.32h0a10.83,10.83,0,0,1-3.22-.52l-.92-.24-.57-.17-.53-.28a6.81,6.81,0,0,1-1.22-.79l-.34-.19-.34-.32a12.38,12.38,0,0,1-3.85.62,9,9,0,0,1-7-3l-.79-.68c-.39.21-.79.39-1.18.56l-.55.22-3.51,2-.43.26-.55.32-.1,0a30.49,30.49,0,0,1-3.6,1.73l-.14.1a8.74,8.74,0,0,1-2.12,4.14A9.84,9.84,0,0,1,249.19,384.12Z"/><path class="cls-2" d="M243.86,378.79a11.6,11.6,0,0,1-2.4-.26,16.88,16.88,0,0,1-1.83-.42l-.91-.26-.78-.52a7,7,0,0,1-.66-.47l-1.34-.75-.86-1.68a7.92,7.92,0,0,1-.62-1.19,8.92,8.92,0,0,1-2.73.43,9.57,9.57,0,0,1-6.3-2.44l-.86-.74-.55-1c-.09-.15-.21-.39-.35-.69l-.15-.26-1.1-1.86.26-2.14a9.28,9.28,0,0,1,.62-2.33,7.55,7.55,0,0,1,.38-.93,10.14,10.14,0,0,1-3.89.76,8.81,8.81,0,0,1-6.76-2.94l-.14-.15-.31-.42a8.25,8.25,0,0,1-.53-.86l-.22-.42-.2-.47a8.71,8.71,0,0,1-1.56-.5l-1.55-.67-.77-1-.52-.44-.5-.76a8.64,8.64,0,0,1-.73-7.92c1.5-4,5.69-6.48,11-6.55.48,0,1,0,1.42,0s.92-.06,1.36-.07c2.09-.13,3.79-.33,4.17-.38-.42-.44-.8-.86-1.15-1.24l-.6-.54a28.38,28.38,0,0,0-4.71-2.38,32.86,32.86,0,0,1-11.92-5.9c-.57-.37-1.06-.72-1.51-1.06a16.23,16.23,0,0,1-1.95-1.78l-.18-.19c-.51-.47-.79-.76-.79-.76l-.44-.44-.35-.54a14,14,0,0,1-1.26-2.43,11.3,11.3,0,0,1-.86-7.17,10.58,10.58,0,0,1,2.59-5.18,7.15,7.15,0,0,1,3.81-3.18,8.83,8.83,0,0,1,1.1-.32l.35-.07c.75-.28,1.88-.69,3.1-1a19.77,19.77,0,0,1,2-.48l.64-.11a12.72,12.72,0,0,0,2.1-1.57,8.68,8.68,0,0,1,.7-.63,11.49,11.49,0,0,1,7.94-3.08,15.12,15.12,0,0,1,7.55,2.19l.16.1.15.1h0a30.07,30.07,0,0,0,3.26,1.65,65.92,65.92,0,0,0,7.15,2.57,77,77,0,0,0,12,2.4l2.52.33c8.88.89,21.45,3.75,30.24,9.14l.24.14.82.53c4.69,3,7.94,6.65,9.68,10.82l.56.05c5.79.17,10.08,3.91,11.57,10.07l.14.6,0,.62c.05,1.18.12,11.81-13.25,21.85-1.33,1-2.74,2.06-4.22,3a9.37,9.37,0,0,1-9.08,7.32h0a10.84,10.84,0,0,1-3.23-.52c-.29-.07-.6-.14-.92-.24l-.57-.17-.53-.27a8.72,8.72,0,0,1-1.22-.79l-.34-.2-.34-.32a12.38,12.38,0,0,1-3.85.62,9,9,0,0,1-7-3l-.78-.68a12.75,12.75,0,0,1-1.19.56l-.55.22-3.51,2c-.06.05-.43.26-.43.26l-.55.33-.09,0a31.28,31.28,0,0,1-3.6,1.73l-.15.1a8.81,8.81,0,0,1-2.11,4.14A9.88,9.88,0,0,1,243.86,378.79Z"/><path class="cls-3" d="M208,322.25s-6.86-5.18-1.54-9.84c0,0-.52-.79,1.3-.89a25.36,25.36,0,0,1,5.32-1.58c2.24-.28,5.37-3.27,5.37-3.27a6.49,6.49,0,0,1,8-.75c4.67,2.76,15.42,7,27.46,8.07s38.06,6.94,37.5,22.19c0,0,8.73-5,10.84,3.78,0,0,.38,8.7-11.84,17.28l-4.25,2.9s-1.92,1.05-1.18,2.63c0,0-.77,4.69-5.85,1.75,0,0-1.78-1.68,3.54-4.69l3.88-3.18s-4.09,3.18-11.79,4.65c0,0-2.52,4.23-6.19,1.08a2.82,2.82,0,0,1,.94-3.25s-1.82-2.31,1.24-3.2c0,0,9.19.54,11.41-2.5,0,0-3-.86-4.22-3,0,0-6.33,2.46-11.33,2.24,0,0-2.28,6.4-6.9,8.31,0,0-3.39,1.34-3.71,1.8a23.11,23.11,0,0,1-4.93,2.72c-1.08.36-4.2,2.35-4,4.21s-2.45,3.95-6.3,1.78c0,0-1.58-3,1.68-3.53,0,0,1.71-.56,2-1.3,0,0,5.7-4,5.88-5.11,0,0-8.51,3.12-13.93,3.22a2.52,2.52,0,0,0-2.34,1.3s-2.87,2.83-5-.74c0,0,.31-2.66,3.64-3l15-3.63s-3-.53-3.67-.18-5.49-.63-5.49-.63-.95,0-1.23.56-3.92,2.31-3.74-1.78a5.11,5.11,0,0,1,2.59-1.79c1.57-.38,5.14.39,5.14.39l12.84.42s3.46-3.54,3.46-4.76l-10.63-5.67s-7.46-4.06-7.94-4c0,0-3.75,5.77-.74,5.11,0,0,3.92.7.87,4.3,0,0-3.39,1.23-3.39-2.59a8.29,8.29,0,0,0-4.86,1.09c-2.21,1.4-5.88,3.78-7.25,3.74,0,0-.9,0-1.29,1.51s-4.56,2-4.86-.44c0,0-.89-1.28,5.08-3.47l4.6-2.68s-2,.72-11,1.09c0,0-1.63,3.08-4.06,1,0,0-1.58-2.41,2.24-4a34.84,34.84,0,0,1,6.65-.68c2.36.16,9.59-.21,11.76-7.11,0,0-3.34-3.15-5.39-5.48s-8.73-4.81-8.73-4.81S211.65,325.05,208,322.25Z"/><circle class="cls-4" cx="227.94" cy="316.21" r="4.94"/><path class="cls-5" d="M224.4,315a3.4,3.4,0,0,1,4.34-.87,4.2,4.2,0,0,1,2.74,3.92,4.27,4.27,0,0,1-4.39.45A5.18,5.18,0,0,1,224.4,315Z"/><circle class="cls-2" cx="230.28" cy="315.48" r="1.16"/><ellipse class="cls-5" cx="209.99" cy="314.54" rx="1.15" ry="0.7"/><path class="cls-6" d="M245.44,337.47a17.56,17.56,0,0,0,4.34,1.4,30,30,0,0,0,4.43.45c1.49.08,3,0,4.52,0,.76-.06,1.54-.09,2.32-.11a23.11,23.11,0,0,1,2.37-.07,23.94,23.94,0,0,1-2.17,1c-.76.25-1.52.5-2.3.69a18.45,18.45,0,0,1-4.81.48,14.39,14.39,0,0,1-4.8-1A8.36,8.36,0,0,1,245.44,337.47Z"/><path class="cls-7" d="M252.12,332.12s13.54-1,16.73,4c0,0,1.78,2.13,0,7.87l-2.63,9.27s-1.85,6.09-6,7.28c0,0-4.44,2.46-5.84,3.3,0,0-7.94,3-7.56,6.25,0,0-.17,3.43-5.46,1.89,0,0-2.86-1.82.27-3.85a5.42,5.42,0,0,0,2.22-1l6.66-5.72s-4.42,2.24-15.3,3.43a3.83,3.83,0,0,0-1.39,1.4,2.88,2.88,0,0,1-4.28.1,2.46,2.46,0,0,1,.75-3.3,13.69,13.69,0,0,1,4.51-1.32l14-3.28a14.83,14.83,0,0,0,4.84-2.67,15.92,15.92,0,0,0,5-6.92s1.76-6.09,1.46-9"/><path class="cls-7" d="M253.63,355.74s-12.11,0-13.42-.67-7-.82-7,2.71c0,0,.4,3.05,4.92.07a4.07,4.07,0,0,1,2.15.53l7.86.13"/><path class="cls-6" d="M206.77,321.15a11.58,11.58,0,0,1,4.19.05,17.74,17.74,0,0,1,2,.64l1.93.7,7.64,2.83c1.27.48,2.54.94,3.82,1.37s2.55.86,3.83,1.24a17,17,0,0,0,3.85.74,2,2,0,0,0,1.58-.47,2.32,2.32,0,0,0,.1-1.85,2.35,2.35,0,0,1,.38,2.12,1.79,1.79,0,0,1-.88.84,3.93,3.93,0,0,1-1.11.34,14.06,14.06,0,0,1-4.26-.2,47,47,0,0,1-8-2.26,81.85,81.85,0,0,1-7.57-3.27c-.61-.31-1.23-.61-1.83-.94a19.68,19.68,0,0,0-1.78-.89A16.61,16.61,0,0,0,206.77,321.15Z"/><path class="cls-6" d="M229.24,310a7.23,7.23,0,0,1,3,.58,6.41,6.41,0,0,1,2.54,1.93A6.16,6.16,0,0,1,236,315.6a8.22,8.22,0,0,1,.07,1.64c0,.54-.14,1.06-.22,1.59v0l0,0a7.62,7.62,0,0,1-1.62,2.71,6.47,6.47,0,0,1-5.58,2.08,8.23,8.23,0,0,1-1.43-.29c-.46-.16-.89-.36-1.32-.55h1.4a11.52,11.52,0,0,0,1.33-.13A6.68,6.68,0,0,0,231,322a6,6,0,0,0,1.8-1.57,7.29,7.29,0,0,0,1.13-2.05l0,.07c.06-.44.16-.87.2-1.3a7.81,7.81,0,0,0,0-1.28,5.24,5.24,0,0,0-.68-2.38,6.53,6.53,0,0,0-1.73-2A11.59,11.59,0,0,0,229.24,310Z"/><path class="cls-8" d="M287.07,332.08s-10.21,1-10.07,14.17c0,0,.56,11.48,13.92,5.25,0,0,3-1.47,7.56-7.77"/><path class="cls-7" d="M286.16,343.28s.35-6,9.1-8.57c0,0,9-.49,6,9.58,0,0-2.38,8.12-15.12,15.85a2.18,2.18,0,0,0-1.16,2.28s.23,4.2-5.23,2.56c0,0-2.14-1.07.38-3.54l6.4-4.79s-7.9,4-10.91,4.47c0,0-1.32.55-1.65,1.49s-6.81,2.56-5.32-2.76c0,0,1.09-1.87,4.23-1.52s11.24-3.22,11.8-4.48"/><path class="cls-9" d="M269.31,359s-1.6-2.09,1.46-3.22c0,0,8.33.74,11.39-2.34"/><path class="cls-6" d="M287.28,332.22a10.22,10.22,0,0,0-4.6,1.86,10.54,10.54,0,0,0-3.08,3.69,17.65,17.65,0,0,0-1.62,9.39,6.46,6.46,0,0,0,1.93,3.89,6.83,6.83,0,0,0,4.07,1.63,10.93,10.93,0,0,0,4.65-.63,9.64,9.64,0,0,0,4-2.52l.06-.06h0c1-.88,2-1.79,3-2.73.49-.48,1-1,1.42-1.47a7.73,7.73,0,0,0,1.19-1.64,7,7,0,0,1-.88,1.87,20.73,20.73,0,0,1-1.2,1.7,38.36,38.36,0,0,1-2.7,3.15l.05-.06a10.45,10.45,0,0,1-4.31,3.28,12.17,12.17,0,0,1-5.38,1,8.56,8.56,0,0,1-5.27-2.05,8.16,8.16,0,0,1-2.52-5.09,15.87,15.87,0,0,1,.36-5.39,15.66,15.66,0,0,1,2-5,10.63,10.63,0,0,1,3.84-3.7,9.39,9.39,0,0,1,2.47-.94A8.35,8.35,0,0,1,287.28,332.22Z"/><path class="cls-7" d="M232.73,338.14s-3,6.46-7.82,6.64a71.1,71.1,0,0,1-7.79.56c-4,.05-6.67,2.29-4.52,5.09a2.73,2.73,0,0,0,3.54-1.52s9.52-.07,11.66-1.37L218,353s-2,2.75,2.85,2.51a2.15,2.15,0,0,0,1.77-2.08,4.09,4.09,0,0,1,1.86-.71l7.89-4.34s3-.8,3.71-.19c0,0-.4,3.31,2.63,2.61,0,0,4.39-2.68-.44-4.44,0,0-1.28.43-1.28-1.2l2.1-3.69"/><path class="cls-7" d="M277.94,350.42s-4.16,2.41-11.33,2.24"/><path class="cls-7" d="M257.6,351s-7.93-3.94-10.34-5.48-12.75-6.3-15.23-8-5.56-7.73-12.8-9.34-13.5-8-13.5-8-3.27-4.89.71-7.71c0,0-.22-1,1.47-.83a17.88,17.88,0,0,1,5.25-1.64c2.42-.23,5.69-3.61,5.69-3.61s2.69-3.36,8.13-.23c0,0,8.43,5.58,25.08,7.63s39.84,7.69,39.35,22.45"/><path class="cls-10" d="M214.45,324.65s16.63,6.52,18.43,6.38c0,0,10.09,9.82,23.95,14.22l1.61.44-1.17,4S233.2,337,232.88,336.09s-.32.07-.32.07S233.22,332.35,214.45,324.65Z"/><path class="cls-10" d="M268.45,348.31l-.77,3.57s6.31.27,8.85-1.85a9.47,9.47,0,0,1-.54-4.36S272.24,349.53,268.45,348.31Z"/><path class="cls-10" d="M215.14,310.71l3.89-3.08a5.08,5.08,0,0,1,6.45-1.35l3.45,1.9-3.78-1.5s-3.55-1.47-5.57,1.65Z"/><path class="cls-10" d="M289.76,339.46s10-8.51,10.92,2.42c0,0-.64,4.18-2.41,6,0,0,2.7-7.91.21-9C298.48,338.91,295.84,336.38,289.76,339.46Z"/><path class="cls-10" d="M257.12,333.15s13.49-.44,11.33,8.47l-1.35,5.21S271.35,333.63,257.12,333.15Z"/><path class="cls-11" d="M236.44,311.59s10.7,3.92,18.85,3.89,34,8.43,33.66,16.21c0,0-9.46-12.2-33.66-15.05C255.29,316.64,243.85,315.63,236.44,311.59Z"/><path class="cls-12" d="M207.41,313.35s-4.37,3.63,0,7C207.41,320.39,204.07,317.42,207.41,313.35Z"/><path class="cls-12" d="M222,316.21s1,7.56,8,5.43C230.07,321.64,222.9,324.76,222,316.21Z"/><path class="cls-13" d="M278.15,342.1s-1.62,15.4,12,8.9C290.12,351,278.49,356.08,278.15,342.1Z"/><path class="cls-12" d="M224,346s6.66-.54,9.21-6.59l1.69.74S229.75,346.77,224,346Z"/><path class="cls-10" d="M211.27,314.29s.32,1-1.28,1.15C210,315.44,211.75,315.7,211.27,314.29Z"/><path class="cls-1" d="M132,384.12a11.62,11.62,0,0,1-2.41-.26,16.88,16.88,0,0,1-1.83-.42l-.9-.27-.79-.51a7,7,0,0,1-.66-.47l-1.33-.76-.87-1.67a8.43,8.43,0,0,1-.62-1.19,8.92,8.92,0,0,1-2.73.43,9.58,9.58,0,0,1-6.3-2.44l-.86-.74-.55-1a6.35,6.35,0,0,1-.34-.69,2.26,2.26,0,0,1-.16-.26L110.54,372l.25-2.14a9.31,9.31,0,0,1,.63-2.33,7.5,7.5,0,0,1,.37-.93,10.14,10.14,0,0,1-3.89.76,8.82,8.82,0,0,1-6.75-2.94l-.15-.15-.3-.42a6.91,6.91,0,0,1-.54-.86l-.22-.42-.2-.48a8.85,8.85,0,0,1-1.56-.49L96.63,361l-.77-1-.52-.45-.49-.75a8.61,8.61,0,0,1-.73-7.92c1.49-4,5.68-6.49,11-6.55l1.42,0c.46,0,.91-.06,1.35-.07,2.09-.13,3.79-.34,4.17-.38-.42-.45-.8-.86-1.14-1.24l-.61-.54a28.21,28.21,0,0,0-4.7-2.38,32.79,32.79,0,0,1-11.92-5.9c-.57-.38-1.07-.73-1.51-1.06a18,18,0,0,1-2-1.78l-.18-.19c-.51-.47-.79-.76-.79-.76l-.43-.45L88.5,329a14,14,0,0,1-1.26-2.43,11.32,11.32,0,0,1-.85-7.18A10.49,10.49,0,0,1,89,314.18,7.14,7.14,0,0,1,92.79,311a6.94,6.94,0,0,1,1.09-.32l.36-.07c.74-.28,1.87-.69,3.1-1,.64-.19,1.34-.36,2-.49L100,309a11.69,11.69,0,0,0,2.1-1.57c.16-.15.4-.37.71-.62a11.44,11.44,0,0,1,7.93-3.08,15.12,15.12,0,0,1,7.55,2.19l.16.09.16.1h0a27.9,27.9,0,0,0,3.25,1.66,67.5,67.5,0,0,0,7.16,2.57,76.65,76.65,0,0,0,11.94,2.4l2.53.33c8.88.89,21.44,3.75,30.23,9.13l.24.15c.32.2.58.36.83.53,4.69,3,7.94,6.65,9.67,10.82l.56,0c5.79.18,10.08,3.92,11.57,10.08l.14.6,0,.61c.05,1.18.12,11.81-13.25,21.85q-2,1.57-4.22,3a9.07,9.07,0,0,1-3.91,5.72,9,9,0,0,1-5.17,1.6h0a10.89,10.89,0,0,1-3.23-.52l-.92-.24-.57-.17L165,376a7.61,7.61,0,0,1-1.22-.79l-.34-.19-.34-.32a12.38,12.38,0,0,1-3.85.62,9,9,0,0,1-6.95-3l-.79-.68c-.39.21-.79.39-1.19.56l-.54.22c-1.15.64-2.61,1.46-3.51,2l-.44.26-.54.32-.1,0a31.28,31.28,0,0,1-3.6,1.73l-.15.1a8.72,8.72,0,0,1-2.11,4.14A9.85,9.85,0,0,1,132,384.12Z"/><path class="cls-2" d="M126.65,378.79a11.69,11.69,0,0,1-2.41-.26,17.44,17.44,0,0,1-1.83-.42l-.9-.26-.79-.52a6,6,0,0,1-.65-.47l-1.34-.75-.86-1.68a8,8,0,0,1-.63-1.19,8.87,8.87,0,0,1-2.73.43,9.58,9.58,0,0,1-6.3-2.44l-.85-.74-.56-1c-.08-.15-.21-.39-.34-.69l-.16-.26-1.09-1.86.26-2.14a8.86,8.86,0,0,1,.62-2.33,7.5,7.5,0,0,1,.37-.93,10.13,10.13,0,0,1-3.88.76,8.79,8.79,0,0,1-6.76-2.94l-.15-.15-.3-.42c-.19-.27-.37-.56-.54-.86l-.22-.42-.2-.47a8.55,8.55,0,0,1-1.55-.5l-1.56-.67-.76-1-.52-.44-.5-.76a8.61,8.61,0,0,1-.73-7.92c1.49-4,5.68-6.48,11-6.55.48,0,1,0,1.42,0s.92-.06,1.35-.07c2.1-.13,3.8-.33,4.17-.38-.42-.44-.8-.86-1.14-1.24l-.61-.54a28.21,28.21,0,0,0-4.7-2.38,32.79,32.79,0,0,1-11.92-5.9c-.57-.37-1.07-.72-1.51-1.06a16.82,16.82,0,0,1-2-1.78l-.18-.19c-.5-.47-.79-.76-.79-.76l-.43-.44-.36-.54a14.78,14.78,0,0,1-1.26-2.43,11.37,11.37,0,0,1-.85-7.17,10.48,10.48,0,0,1,2.58-5.18,7.14,7.14,0,0,1,3.82-3.18,8.2,8.2,0,0,1,1.09-.32l.36-.07c.74-.28,1.87-.69,3.1-1a18.59,18.59,0,0,1,2-.48l.63-.11a12.77,12.77,0,0,0,2.11-1.57,7.22,7.22,0,0,1,.7-.63,11.46,11.46,0,0,1,7.93-3.08,15.18,15.18,0,0,1,7.56,2.19l.16.1.15.1h0a29.15,29.15,0,0,0,3.25,1.65,65.35,65.35,0,0,0,7.16,2.57,76.78,76.78,0,0,0,11.95,2.4l2.52.33c8.88.89,21.44,3.75,30.23,9.14l.24.14.83.53c4.69,3,7.94,6.65,9.67,10.82l.57.05c5.78.17,10.08,3.91,11.56,10.07l.15.6,0,.62c.05,1.18.12,11.81-13.25,21.85-1.32,1-2.74,2.06-4.22,3a9.35,9.35,0,0,1-9.08,7.32h0a10.83,10.83,0,0,1-3.22-.52c-.3-.07-.6-.14-.92-.24l-.57-.17-.53-.27a8.7,8.7,0,0,1-1.23-.79l-.33-.2-.34-.32a12.38,12.38,0,0,1-3.85.62,9,9,0,0,1-7-3l-.79-.68a11.66,11.66,0,0,1-1.19.56l-.54.22-3.51,2-.44.26-.54.33-.1,0a30.49,30.49,0,0,1-3.6,1.73l-.14.1a8.83,8.83,0,0,1-2.12,4.14A9.84,9.84,0,0,1,126.65,378.79Z"/><path class="cls-3" d="M90.76,322.25s-6.86-5.18-1.54-9.84c0,0-.51-.79,1.31-.89a25.36,25.36,0,0,1,5.32-1.58c2.24-.28,5.36-3.27,5.36-3.27a6.5,6.5,0,0,1,8-.75c4.66,2.76,15.41,7,27.45,8.07s38.07,6.94,37.51,22.19c0,0,8.73-5,10.84,3.78,0,0,.38,8.7-11.84,17.28l-4.25,2.9s-1.92,1.05-1.19,2.63c0,0-.77,4.69-5.84,1.75,0,0-1.79-1.68,3.53-4.69l3.89-3.18s-4.1,3.18-11.8,4.65c0,0-2.52,4.23-6.19,1.08a2.82,2.82,0,0,1,1-3.25s-1.82-2.31,1.24-3.2c0,0,9.18.54,11.4-2.5a8.07,8.07,0,0,1-4.21-3s-6.34,2.46-11.34,2.24c0,0-2.27,6.4-6.89,8.31,0,0-3.4,1.34-3.71,1.8a23.36,23.36,0,0,1-4.93,2.72c-1.09.36-4.2,2.35-4,4.21s-2.45,3.95-6.3,1.78c0,0-1.57-3,1.68-3.53,0,0,1.72-.56,2-1.3,0,0,5.71-4,5.88-5.11,0,0-8.5,3.12-13.92,3.22a2.54,2.54,0,0,0-2.35,1.3s-2.87,2.83-5-.74a3.74,3.74,0,0,1,3.64-3l15-3.63s-3-.53-3.68-.18-5.49-.63-5.49-.63-.94,0-1.22.56-3.92,2.31-3.75-1.78a5.17,5.17,0,0,1,2.59-1.79c1.58-.38,5.14.39,5.14.39l12.85.42s3.46-3.54,3.46-4.76l-10.64-5.67s-7.45-4.06-7.94-4c0,0-3.74,5.77-.73,5.11,0,0,3.91.7.87,4.3,0,0-3.39,1.23-3.39-2.59a8.33,8.33,0,0,0-4.87,1.09c-2.2,1.4-5.88,3.78-7.24,3.74,0,0-.91,0-1.29,1.51s-4.56,2-4.87-.44c0,0-.88-1.28,5.09-3.47l4.59-2.68s-2,.72-11,1.09c0,0-1.64,3.08-4.06,1,0,0-1.59-2.41,2.24-4a34.81,34.81,0,0,1,6.64-.68c2.36.16,9.59-.21,11.76-7.11,0,0-3.33-3.15-5.39-5.48s-8.72-4.81-8.72-4.81S94.44,325.05,90.76,322.25Z"/><circle class="cls-4" cx="110.72" cy="316.21" r="4.94"/><path class="cls-5" d="M107.18,315a3.42,3.42,0,0,1,4.35-.87,4.2,4.2,0,0,1,2.74,3.92,4.28,4.28,0,0,1-4.4.45A5.18,5.18,0,0,1,107.18,315Z"/><circle class="cls-2" cx="113.07" cy="315.48" r="1.16"/><ellipse class="cls-5" cx="92.78" cy="314.54" rx="1.15" ry="0.7"/><path class="cls-6" d="M128.22,337.47a17.63,17.63,0,0,0,4.35,1.4,29.83,29.83,0,0,0,4.43.45c1.49.08,3,0,4.52,0,.76-.06,1.53-.09,2.31-.11a23.3,23.3,0,0,1,2.38-.07c-.7.39-1.44.71-2.18,1s-1.52.5-2.29.69a18.53,18.53,0,0,1-4.82.48,14.49,14.49,0,0,1-4.8-1A8.41,8.41,0,0,1,128.22,337.47Z"/><path class="cls-7" d="M134.91,332.12s13.54-1,16.72,4c0,0,1.79,2.13,0,7.87L149,353.25s-1.86,6.09-5.95,7.28c0,0-4.45,2.46-5.84,3.3,0,0-7.95,3-7.56,6.25,0,0-.18,3.43-5.46,1.89,0,0-2.87-1.82.26-3.85a5.42,5.42,0,0,0,2.22-1l6.67-5.72s-4.43,2.24-15.31,3.43a3.85,3.85,0,0,0-1.38,1.4,2.89,2.89,0,0,1-4.29.1,2.47,2.47,0,0,1,.76-3.3,13.69,13.69,0,0,1,4.51-1.32l14-3.28a14.92,14.92,0,0,0,4.85-2.67,16.08,16.08,0,0,0,4.95-6.92s1.75-6.09,1.45-9"/><path class="cls-7" d="M136.42,355.74s-12.12,0-13.42-.67-7-.82-7,2.71c0,0,.4,3.05,4.93.07a4,4,0,0,1,2.14.53l7.86.13"/><path class="cls-6" d="M89.56,321.15a11.58,11.58,0,0,1,4.19.05,18.4,18.4,0,0,1,2,.64l1.92.7,7.65,2.83c1.26.48,2.54.94,3.81,1.37s2.56.86,3.84,1.24a17,17,0,0,0,3.84.74,2,2,0,0,0,1.59-.47,2.32,2.32,0,0,0,.1-1.85,2.35,2.35,0,0,1,.38,2.12,1.77,1.77,0,0,1-.89.84,3.78,3.78,0,0,1-1.1.34,14.12,14.12,0,0,1-4.27-.2,47.1,47.1,0,0,1-8-2.26A81.85,81.85,0,0,1,97.08,324c-.61-.31-1.23-.61-1.84-.94a18.45,18.45,0,0,0-1.78-.89A16.4,16.4,0,0,0,89.56,321.15Z"/><path class="cls-6" d="M112,310a7.18,7.18,0,0,1,3,.58,6.34,6.34,0,0,1,2.54,1.93,6.27,6.27,0,0,1,1.28,3.05,9,9,0,0,1,.07,1.64c0,.54-.14,1.06-.22,1.59v.07a7.79,7.79,0,0,1-1.63,2.71,6.44,6.44,0,0,1-5.58,2.08,8.31,8.31,0,0,1-1.42-.29c-.46-.16-.9-.36-1.32-.55h1.39a11.48,11.48,0,0,0,1.34-.13,6.62,6.62,0,0,0,2.37-.78,5.94,5.94,0,0,0,1.81-1.57,7.83,7.83,0,0,0,1.13-2.05l0,.07c0-.44.15-.87.19-1.3a7.83,7.83,0,0,0,0-1.28,5.24,5.24,0,0,0-.68-2.38,6.56,6.56,0,0,0-1.74-2A11.27,11.27,0,0,0,112,310Z"/><path class="cls-8" d="M169.86,332.08s-10.22,1-10.08,14.17c0,0,.56,11.48,13.93,5.25,0,0,3-1.47,7.56-7.77"/><path class="cls-7" d="M169,343.28s.35-6,9.1-8.57c0,0,8.95-.49,6,9.58,0,0-2.38,8.12-15.12,15.85a2.2,2.2,0,0,0-1.17,2.28s.24,4.2-5.22,2.56c0,0-2.15-1.07.37-3.54l6.41-4.79s-7.91,4-10.91,4.47c0,0-1.33.55-1.66,1.49s-6.81,2.56-5.31-2.76c0,0,1.08-1.87,4.23-1.52s11.23-3.22,11.79-4.48"/><path class="cls-9" d="M152.1,359s-1.6-2.09,1.46-3.22c0,0,8.32.74,11.38-2.34"/><path class="cls-6" d="M170.07,332.22a10.17,10.17,0,0,0-4.6,1.86,10.47,10.47,0,0,0-3.09,3.69,16.22,16.22,0,0,0-1.46,4.61,15.75,15.75,0,0,0-.16,4.78,6.46,6.46,0,0,0,1.93,3.89,6.83,6.83,0,0,0,4.08,1.63,10.87,10.87,0,0,0,4.64-.63,9.74,9.74,0,0,0,4-2.52l.06-.06h0c1-.88,2-1.79,3-2.73.48-.48,1-1,1.41-1.47a7.77,7.77,0,0,0,1.2-1.64,7,7,0,0,1-.89,1.87,18.46,18.46,0,0,1-1.19,1.7,40.53,40.53,0,0,1-2.71,3.15l.06-.06a10.42,10.42,0,0,1-4.32,3.28,12.12,12.12,0,0,1-5.37,1,8.61,8.61,0,0,1-5.28-2.05,8.15,8.15,0,0,1-2.51-5.09,15.38,15.38,0,0,1,.36-5.39,15.64,15.64,0,0,1,2-5,10.74,10.74,0,0,1,3.85-3.7,9.26,9.26,0,0,1,2.47-.94A8.35,8.35,0,0,1,170.07,332.22Z"/><path class="cls-7" d="M115.51,338.14s-3,6.46-7.81,6.64a71.37,71.37,0,0,1-7.79.56c-4,.05-6.68,2.29-4.53,5.09a2.74,2.74,0,0,0,3.55-1.52s9.51-.07,11.66-1.37L100.75,353s-2,2.75,2.84,2.51a2.15,2.15,0,0,0,1.77-2.08,4.15,4.15,0,0,1,1.87-.71l7.88-4.34s3-.8,3.72-.19c0,0-.4,3.31,2.63,2.61,0,0,4.38-2.68-.44-4.44,0,0-1.29.43-1.29-1.2l2.1-3.69"/><path class="cls-7" d="M160.73,350.42s-4.17,2.41-11.34,2.24"/><path class="cls-7" d="M140.38,351s-7.92-3.94-10.34-5.48-12.75-6.3-15.22-8-5.56-7.73-12.8-9.34-13.51-8-13.51-8-3.26-4.89.71-7.71c0,0-.22-1,1.48-.83A17.76,17.76,0,0,1,96,309.94c2.41-.23,5.68-3.61,5.68-3.61s2.7-3.36,8.14-.23c0,0,8.42,5.58,25.08,7.63s39.84,7.69,39.35,22.45"/><path class="cls-10" d="M97.23,324.65s16.63,6.52,18.44,6.38c0,0,10.09,9.82,24,14.22l1.61.44-1.17,4S116,337,115.67,336.09s-.33.07-.33.07S116,332.35,97.23,324.65Z"/><path class="cls-10" d="M151.23,348.31l-.76,3.57s6.31.27,8.85-1.85a9.47,9.47,0,0,1-.54-4.36S155,349.53,151.23,348.31Z"/><path class="cls-10" d="M97.93,310.71l3.88-3.08a5.09,5.09,0,0,1,6.46-1.35l3.44,1.9-3.77-1.5s-3.56-1.47-5.58,1.65Z"/><path class="cls-10" d="M172.54,339.46s10-8.51,10.93,2.42c0,0-.64,4.18-2.41,6,0,0,2.7-7.91.21-9C181.27,338.91,178.63,336.38,172.54,339.46Z"/><path class="cls-10" d="M139.91,333.15s13.48-.44,11.32,8.47l-1.35,5.21S154.14,333.63,139.91,333.15Z"/><path class="cls-11" d="M119.23,311.59s10.7,3.92,18.85,3.89,33.95,8.43,33.65,16.21c0,0-9.46-12.2-33.65-15.05C138.08,316.64,126.64,315.63,119.23,311.59Z"/><path class="cls-12" d="M90.19,313.35s-4.36,3.63,0,7C90.19,320.39,86.86,317.42,90.19,313.35Z"/><path class="cls-12" d="M104.82,316.21s1,7.56,8,5.43C112.85,321.64,105.69,324.76,104.82,316.21Z"/><path class="cls-13" d="M160.93,342.1s-1.61,15.4,12,8.9C172.91,351,161.27,356.08,160.93,342.1Z"/><path class="cls-12" d="M106.81,346s6.67-.54,9.21-6.59l1.69.74S112.53,346.77,106.81,346Z"/><path class="cls-10" d="M94.06,314.29s.32,1-1.28,1.15C92.78,315.44,94.54,315.7,94.06,314.29Z"/><path class="cls-1" d="M366.4,298.87a11,11,0,0,1-2.4-.26,16.88,16.88,0,0,1-1.83-.42l-.9-.26-.79-.51c-.15-.1-.38-.26-.66-.48l-1.33-.75-.87-1.67a8.53,8.53,0,0,1-.62-1.2,8.92,8.92,0,0,1-2.73.43,9.58,9.58,0,0,1-6.3-2.44l-.86-.74-.55-1c-.09-.15-.21-.39-.35-.69l-.15-.26L345,286.78l.25-2.14a9.75,9.75,0,0,1,.62-2.33c.11-.31.24-.63.38-.93a10.14,10.14,0,0,1-3.89.76,8.78,8.78,0,0,1-6.75-2.94l-.15-.15-.3-.41a7,7,0,0,1-.54-.87l-.22-.42-.2-.47a8.85,8.85,0,0,1-1.56-.49l-1.55-.67-.77-1-.52-.44-.49-.76a8.61,8.61,0,0,1-.73-7.92c1.49-4,5.68-6.48,11-6.55.47,0,1,0,1.42,0l1.35-.07c2.09-.13,3.79-.33,4.17-.38-.42-.44-.8-.86-1.15-1.24l-.6-.54a28.38,28.38,0,0,0-4.71-2.38,32.83,32.83,0,0,1-11.91-5.9c-.57-.37-1.07-.72-1.51-1.06a16,16,0,0,1-2-1.78l-.18-.19c-.51-.47-.79-.76-.79-.76l-.43-.44-.36-.54a14,14,0,0,1-1.26-2.43,11.3,11.3,0,0,1-.85-7.17,10.52,10.52,0,0,1,2.58-5.18,7.14,7.14,0,0,1,3.82-3.18,8.2,8.2,0,0,1,1.09-.32l.35-.06c.75-.29,1.88-.7,3.11-1.05a19,19,0,0,1,2-.48l.64-.11a12.72,12.72,0,0,0,2.1-1.57,9.15,9.15,0,0,1,.71-.63,11.44,11.44,0,0,1,7.93-3.07,15.1,15.1,0,0,1,7.55,2.18l.16.1.16.1h0a29.15,29.15,0,0,0,3.25,1.65,65.35,65.35,0,0,0,7.16,2.57,76.65,76.65,0,0,0,11.94,2.4l2.53.33c8.88.89,21.44,3.75,30.23,9.14l.24.14.83.53c4.69,3,7.94,6.66,9.67,10.82l.56.05c5.79.17,10.08,3.91,11.57,10.07l.14.6,0,.62c.05,1.18.12,11.81-13.25,21.85-1.33,1-2.74,2.06-4.22,3a9.35,9.35,0,0,1-9.08,7.32h0a10.58,10.58,0,0,1-3.23-.52c-.29-.06-.59-.14-.92-.24l-.57-.17-.53-.27a9.35,9.35,0,0,1-1.22-.79l-.34-.19-.34-.33a12.38,12.38,0,0,1-3.85.62,9,9,0,0,1-6.95-3l-.79-.68a11.66,11.66,0,0,1-1.19.56l-.54.22c-1.15.64-2.61,1.46-3.51,2l-.44.25-.55.33-.09,0a31.28,31.28,0,0,1-3.6,1.73l-.15.1a8.77,8.77,0,0,1-2.11,4.14A9.82,9.82,0,0,1,366.4,298.87Z"/><path class="cls-2" d="M361.08,293.54a11.67,11.67,0,0,1-2.41-.25c-.63-.12-1.24-.26-1.83-.43l-.9-.26-.79-.51c-.15-.1-.38-.26-.65-.47l-1.34-.76-.87-1.67a8.53,8.53,0,0,1-.62-1.2,8.92,8.92,0,0,1-2.73.44,9.6,9.6,0,0,1-6.3-2.45l-.85-.73-.56-1a7.43,7.43,0,0,1-.34-.69,2.13,2.13,0,0,1-.16-.25l-1.09-1.86.25-2.14a9.31,9.31,0,0,1,.63-2.33,7.5,7.5,0,0,1,.37-.93,10.33,10.33,0,0,1-3.89.75,8.78,8.78,0,0,1-6.75-2.94l-.15-.14-.3-.42a7.51,7.51,0,0,1-.54-.87L329,272l-.2-.48a9.14,9.14,0,0,1-1.56-.49l-1.55-.67-.76-1-.53-.45-.49-.76a8.61,8.61,0,0,1-.73-7.92c1.49-4,5.68-6.48,11-6.55.48,0,.95,0,1.42,0s.92-.06,1.35-.07c2.1-.13,3.8-.34,4.17-.39-.42-.44-.8-.85-1.14-1.24-.2-.18-.4-.36-.61-.53a27.37,27.37,0,0,0-4.7-2.39,32.63,32.63,0,0,1-11.92-5.9c-.57-.37-1.07-.72-1.51-1.06a16.45,16.45,0,0,1-2-1.77l-.18-.2c-.5-.47-.79-.76-.79-.76l-.43-.44-.36-.53a15.55,15.55,0,0,1-1.26-2.44,11.28,11.28,0,0,1-.85-7.17,10.52,10.52,0,0,1,2.58-5.18,7.14,7.14,0,0,1,3.82-3.18,6.94,6.94,0,0,1,1.09-.31l.36-.07c.74-.29,1.87-.7,3.1-1a19,19,0,0,1,2-.48l.64-.11a12.18,12.18,0,0,0,2.1-1.57c.16-.16.4-.37.71-.63a11.46,11.46,0,0,1,7.93-3.07,15.08,15.08,0,0,1,7.56,2.19l.15.09.16.1h0a29.15,29.15,0,0,0,3.25,1.65,67.46,67.46,0,0,0,7.16,2.58,76.79,76.79,0,0,0,11.95,2.39c.82.1,1.66.22,2.52.34,8.88.88,21.44,3.74,30.23,9.13l.24.15.83.52c4.69,3,7.94,6.66,9.67,10.82l.57,0c5.78.17,10.08,3.91,11.56,10.07l.14.6,0,.62c0,1.18.12,11.81-13.25,21.85-1.32,1.05-2.74,2.06-4.22,3a9.35,9.35,0,0,1-9.08,7.32h0a10.76,10.76,0,0,1-3.22-.51c-.3-.07-.6-.15-.93-.25l-.57-.17-.53-.27a8.39,8.39,0,0,1-1.22-.79l-.34-.19-.34-.33a12.36,12.36,0,0,1-3.84.62,9,9,0,0,1-7-3l-.79-.69a11.66,11.66,0,0,1-1.19.56l-.54.22c-1.15.65-2.6,1.46-3.51,2l-.44.25-.54.33-.1,0a33,33,0,0,1-3.6,1.74l-.14.09a8.82,8.82,0,0,1-2.12,4.15A9.85,9.85,0,0,1,361.08,293.54Z"/><path class="cls-3" d="M325.19,237s-6.86-5.17-1.54-9.84c0,0-.51-.79,1.31-.88a25.13,25.13,0,0,1,5.32-1.59c2.24-.28,5.36-3.27,5.36-3.27a6.49,6.49,0,0,1,8-.74c4.66,2.75,15.41,7,27.45,8.07s38.07,6.93,37.51,22.18c0,0,8.73-5,10.83,3.78,0,0,.39,8.7-11.84,17.28l-4.24,2.91s-1.93,1.05-1.19,2.62c0,0-.77,4.69-5.84,1.75,0,0-1.79-1.68,3.53-4.69l3.88-3.18s-4.09,3.18-11.79,4.65c0,0-2.52,4.24-6.19,1.09a2.84,2.84,0,0,1,.94-3.26s-1.81-2.31,1.25-3.2c0,0,9.18.54,11.4-2.5a8.07,8.07,0,0,1-4.21-3s-6.34,2.47-11.34,2.24c0,0-2.27,6.4-6.89,8.32,0,0-3.4,1.34-3.71,1.79a23.17,23.17,0,0,1-4.93,2.72c-1.09.36-4.2,2.36-4,4.21s-2.45,3.95-6.3,1.78c0,0-1.57-3,1.68-3.53,0,0,1.72-.56,2-1.29,0,0,5.71-4,5.88-5.11,0,0-8.5,3.11-13.92,3.22a2.52,2.52,0,0,0-2.35,1.29s-2.87,2.83-5-.73a3.74,3.74,0,0,1,3.64-3l15-3.64s-3-.53-3.68-.18-5.49-.63-5.49-.63-.94,0-1.22.56-3.92,2.31-3.75-1.78a5.17,5.17,0,0,1,2.59-1.79c1.57-.38,5.14.39,5.14.39l12.84.42s3.47-3.53,3.47-4.76L364.12,260s-7.45-4.06-7.94-4c0,0-3.74,5.78-.74,5.11,0,0,3.92.7.88,4.31,0,0-3.39,1.22-3.39-2.59a8.28,8.28,0,0,0-4.87,1.08c-2.2,1.4-5.88,3.78-7.24,3.74,0,0-.91,0-1.3,1.51s-4.56,2-4.86-.43c0,0-.88-1.28,5.09-3.48l4.59-2.68s-2,.72-11,1.1c0,0-1.64,3.08-4.06,1,0,0-1.59-2.4,2.24-4a34.81,34.81,0,0,1,6.64-.68c2.36.17,9.59-.21,11.76-7.11,0,0-3.34-3.15-5.39-5.48s-8.72-4.81-8.72-4.81S328.87,239.8,325.19,237Z"/><circle class="cls-4" cx="345.15" cy="230.96" r="4.94"/><path class="cls-5" d="M341.61,229.74s1.43-2.12,4.35-.86a4.19,4.19,0,0,1,2.74,3.92,4.31,4.31,0,0,1-4.4.45A5.21,5.21,0,0,1,341.61,229.74Z"/><circle class="cls-2" cx="347.49" cy="230.23" r="1.16"/><ellipse class="cls-5" cx="327.21" cy="229.29" rx="1.15" ry="0.7"/><path class="cls-6" d="M362.65,252.22a17.63,17.63,0,0,0,4.35,1.4,29.83,29.83,0,0,0,4.43.45c1.49.08,3,0,4.52,0,.76-.05,1.53-.09,2.31-.11a23.3,23.3,0,0,1,2.38-.07,21.69,21.69,0,0,1-2.18,1c-.75.26-1.52.5-2.3.7a18,18,0,0,1-4.81.47,14.44,14.44,0,0,1-4.8-1A8.41,8.41,0,0,1,362.65,252.22Z"/><path class="cls-7" d="M369.34,246.87s13.54-1,16.72,4c0,0,1.78,2.13,0,7.87L383.44,268s-1.86,6.09-5.95,7.28c0,0-4.45,2.47-5.85,3.3,0,0-7.94,3-7.55,6.25,0,0-.18,3.43-5.46,1.89,0,0-2.87-1.82.26-3.84a5.34,5.34,0,0,0,2.22-1l6.67-5.72s-4.43,2.24-15.31,3.43a3.85,3.85,0,0,0-1.38,1.4,2.9,2.9,0,0,1-4.29.11,2.49,2.49,0,0,1,.75-3.31,13.63,13.63,0,0,1,4.52-1.31l14-3.29a14.92,14.92,0,0,0,4.85-2.67,16,16,0,0,0,4.95-6.92s1.75-6.08,1.45-9"/><path class="cls-7" d="M370.85,270.49s-12.12,0-13.42-.67-7-.81-7,2.71c0,0,.4,3.06,4.92.07a4,4,0,0,1,2.15.54l7.86.12"/><path class="cls-6" d="M324,235.9a11.59,11.59,0,0,1,4.19,0,20.84,20.84,0,0,1,2,.64l1.92.7,7.65,2.83c1.26.48,2.54.94,3.81,1.37s2.56.86,3.83,1.24a16.56,16.56,0,0,0,3.85.74,2,2,0,0,0,1.59-.47,2.34,2.34,0,0,0,.1-1.84,2.37,2.37,0,0,1,.38,2.11,1.79,1.79,0,0,1-.89.85,4.08,4.08,0,0,1-1.1.33,13.81,13.81,0,0,1-4.27-.19,47.77,47.77,0,0,1-8-2.26c-2.58-1-5.11-2.06-7.57-3.28-.61-.31-1.23-.61-1.84-.93A13.74,13.74,0,0,0,324,235.9Z"/><path class="cls-6" d="M346.46,224.79a7.18,7.18,0,0,1,3,.58,6.34,6.34,0,0,1,2.54,1.94,6.23,6.23,0,0,1,1.28,3.05,8.94,8.94,0,0,1,.07,1.63c-.05.54-.14,1.06-.22,1.59v.07a7.79,7.79,0,0,1-1.63,2.71,6.49,6.49,0,0,1-5.58,2.09,9.81,9.81,0,0,1-1.43-.3c-.45-.16-.89-.36-1.31-.55h1.39a11.7,11.7,0,0,0,1.34-.12,6.84,6.84,0,0,0,2.37-.79,5.87,5.87,0,0,0,1.8-1.56,7.8,7.8,0,0,0,1.14-2.06l0,.07c.05-.43.15-.87.19-1.3a7.82,7.82,0,0,0,0-1.28,5.2,5.2,0,0,0-.68-2.37,6.48,6.48,0,0,0-1.74-2A11.27,11.27,0,0,0,346.46,224.79Z"/><path class="cls-8" d="M404.29,246.83s-10.22,1-10.08,14.18c0,0,.56,11.47,13.93,5.25,0,0,3-1.48,7.56-7.77"/><path class="cls-7" d="M403.38,258s.35-6,9.1-8.57c0,0,8.95-.49,6,9.59,0,0-2.37,8.12-15.11,15.85a2.18,2.18,0,0,0-1.17,2.27s.24,4.2-5.22,2.57c0,0-2.15-1.08.37-3.55l6.4-4.79s-7.9,4-10.9,4.47c0,0-1.33.56-1.66,1.49s-6.81,2.56-5.32-2.75c0,0,1.09-1.88,4.24-1.53s11.23-3.22,11.79-4.48"/><path class="cls-9" d="M386.53,273.74s-1.6-2.08,1.45-3.22c0,0,8.33.74,11.39-2.34"/><path class="cls-6" d="M404.5,247a10,10,0,0,0-4.6,1.86,10.35,10.35,0,0,0-3.09,3.68,17.65,17.65,0,0,0-1.62,9.39,6.46,6.46,0,0,0,1.93,3.89,6.77,6.77,0,0,0,4.08,1.63,10.89,10.89,0,0,0,4.64-.63,9.82,9.82,0,0,0,4-2.51l.06-.06h0c1-.87,2-1.79,3-2.73.48-.48,1-1,1.41-1.46a7.83,7.83,0,0,0,1.2-1.65,7.21,7.21,0,0,1-.89,1.88,19.92,19.92,0,0,1-1.19,1.7,40.39,40.39,0,0,1-2.71,3.14l.06-.06a10.5,10.5,0,0,1-4.32,3.29,12.26,12.26,0,0,1-5.37,1,8.66,8.66,0,0,1-5.28-2,8.17,8.17,0,0,1-2.51-5.09,15.36,15.36,0,0,1,.36-5.39,15.6,15.6,0,0,1,2-5,10.71,10.71,0,0,1,3.85-3.69,8.93,8.93,0,0,1,2.47-.94A8,8,0,0,1,404.5,247Z"/><path class="cls-7" d="M349.94,252.89s-3,6.46-7.81,6.65a74.45,74.45,0,0,1-7.8.56c-4,0-6.67,2.28-4.52,5.08a2.75,2.75,0,0,0,3.55-1.51s9.51-.07,11.66-1.38l-9.85,5.46s-2,2.75,2.85,2.52a2.17,2.17,0,0,0,1.77-2.09,4.15,4.15,0,0,1,1.87-.71l7.88-4.34s3-.79,3.72-.19c0,0-.4,3.32,2.63,2.62,0,0,4.38-2.69-.45-4.45,0,0-1.28.43-1.28-1.2l2.1-3.68"/><path class="cls-7" d="M395.16,265.17s-4.17,2.42-11.34,2.24"/><path class="cls-7" d="M374.81,265.75s-7.92-3.94-10.34-5.48-12.75-6.3-15.22-8-5.56-7.73-12.8-9.34-13.51-8-13.51-8-3.27-4.89.71-7.71c0,0-.22-1,1.48-.83a18.09,18.09,0,0,1,5.25-1.64c2.41-.23,5.68-3.6,5.68-3.6s2.7-3.36,8.14-.23c0,0,8.42,5.58,25.08,7.62s39.84,7.69,39.35,22.45"/><path class="cls-10" d="M331.66,239.4s16.63,6.53,18.43,6.38c0,0,10.1,9.82,24,14.22l1.61.44-1.17,4s-24.07-12.61-24.4-13.56-.32.07-.32.07S350.43,247.1,331.66,239.4Z"/><path class="cls-10" d="M385.66,263.06l-.76,3.57s6.3.27,8.85-1.84a9.53,9.53,0,0,1-.54-4.37S389.46,264.28,385.66,263.06Z"/><path class="cls-10" d="M332.36,225.47l3.88-3.08A5.09,5.09,0,0,1,342.7,221l3.44,1.9-3.77-1.5s-3.56-1.46-5.58,1.65Z"/><path class="cls-10" d="M407,254.21s10-8.5,10.93,2.42c0,0-.65,4.18-2.41,6,0,0,2.7-7.91.21-9C415.7,253.66,413.06,251.13,407,254.21Z"/><path class="cls-10" d="M374.34,247.91s13.48-.44,11.32,8.46l-1.35,5.22S388.56,248.38,374.34,247.91Z"/><path class="cls-11" d="M353.66,226.35s10.7,3.92,18.85,3.88,33.95,8.44,33.65,16.21c0,0-9.46-12.2-33.65-15.05C372.51,231.39,361.07,230.38,353.66,226.35Z"/><path class="cls-12" d="M324.62,228.11s-4.36,3.63,0,7C324.62,235.15,321.28,232.18,324.62,228.11Z"/><path class="cls-12" d="M339.25,231s1,7.56,8,5.43C347.28,236.39,340.12,239.51,339.25,231Z"/><path class="cls-13" d="M395.36,256.85s-1.61,15.4,12,8.9C407.34,265.75,395.7,270.83,395.36,256.85Z"/><path class="cls-12" d="M341.24,260.74s6.67-.55,9.21-6.6l1.69.74S347,261.52,341.24,260.74Z"/><path class="cls-10" d="M328.49,229s.32,1-1.28,1.16C327.21,230.2,329,230.45,328.49,229Z"/><path class="cls-1" d="M249.19,298.87a11,11,0,0,1-2.4-.26,17.63,17.63,0,0,1-1.84-.42l-.9-.26-.79-.51c-.15-.1-.38-.26-.65-.48l-1.34-.75-.86-1.67a9.82,9.82,0,0,1-.63-1.2,8.87,8.87,0,0,1-2.73.43,9.54,9.54,0,0,1-6.29-2.44l-.86-.74-.55-1c-.09-.15-.21-.39-.35-.69l-.16-.26-1.09-1.86.26-2.14a8.86,8.86,0,0,1,.62-2.33,8.25,8.25,0,0,1,.38-.93,10.18,10.18,0,0,1-3.89.76,8.81,8.81,0,0,1-6.76-2.94l-.15-.15-.3-.41c-.19-.27-.37-.57-.54-.87l-.22-.42s-.16-.38-.19-.47a8.58,8.58,0,0,1-1.56-.49l-1.56-.67-.76-1-.52-.44-.5-.76a8.64,8.64,0,0,1-.73-7.92c1.5-4,5.69-6.48,11-6.55.48,0,1,0,1.42,0l1.35-.07c2.1-.13,3.8-.33,4.18-.38-.42-.44-.81-.86-1.15-1.24l-.6-.54a28.38,28.38,0,0,0-4.71-2.38,32.79,32.79,0,0,1-11.92-5.9c-.57-.37-1.06-.72-1.51-1.06a16.82,16.82,0,0,1-2-1.78l-.18-.19c-.5-.47-.79-.76-.79-.76l-.43-.44-.36-.54a15.66,15.66,0,0,1-1.26-2.43,11.37,11.37,0,0,1-.85-7.17,10.62,10.62,0,0,1,2.59-5.18,7.12,7.12,0,0,1,3.81-3.18,9.19,9.19,0,0,1,1.09-.32l.36-.06c.74-.29,1.88-.7,3.1-1.05a19.77,19.77,0,0,1,2-.48l.64-.11a13.15,13.15,0,0,0,2.1-1.57,8.68,8.68,0,0,1,.7-.63,11.49,11.49,0,0,1,7.94-3.07,15.16,15.16,0,0,1,7.55,2.18l.16.1.15.1h0a30.39,30.39,0,0,0,3.25,1.65,66.11,66.11,0,0,0,7.16,2.57,77,77,0,0,0,12,2.4l2.52.33c8.88.89,21.44,3.75,30.23,9.14l.24.14.83.53c4.69,3,7.94,6.66,9.68,10.82l.56.05c5.79.17,10.08,3.91,11.56,10.07l.15.6,0,.62c0,1.18.12,11.81-13.26,21.85-1.32,1-2.74,2.06-4.22,3a9.35,9.35,0,0,1-9.08,7.32h0a10.52,10.52,0,0,1-3.22-.52,9,9,0,0,1-.92-.24l-.57-.17-.53-.27A8.17,8.17,0,0,1,281,290l-.34-.19-.34-.33a12.38,12.38,0,0,1-3.85.62,9,9,0,0,1-7-3l-.79-.68a12.6,12.6,0,0,1-1.18.56l-.55.22c-1.15.64-2.6,1.46-3.51,2l-.43.25-.55.33-.1,0a30.49,30.49,0,0,1-3.6,1.73l-.14.1a8.69,8.69,0,0,1-2.12,4.14A9.8,9.8,0,0,1,249.19,298.87Z"/><path class="cls-2" d="M243.86,293.54a11.58,11.58,0,0,1-2.4-.25c-.64-.12-1.24-.26-1.83-.43l-.91-.26-.78-.51c-.15-.1-.38-.26-.66-.47l-1.34-.76-.86-1.67a8.53,8.53,0,0,1-.62-1.2,8.92,8.92,0,0,1-2.73.44,9.59,9.59,0,0,1-6.3-2.45l-.86-.73-.55-1a7,7,0,0,1-.35-.69l-.15-.25-1.1-1.86.26-2.14a9.18,9.18,0,0,1,.62-2.33,7.55,7.55,0,0,1,.38-.93,10.33,10.33,0,0,1-3.89.75,8.81,8.81,0,0,1-6.76-2.94l-.14-.14-.31-.42a7.46,7.46,0,0,1-.53-.87l-.22-.41-.2-.48a8.85,8.85,0,0,1-1.56-.49l-1.55-.67-.77-1-.52-.45-.5-.76a8.64,8.64,0,0,1-.73-7.92c1.5-4,5.69-6.48,11-6.55.48,0,1,0,1.42,0s.92-.06,1.36-.07c2.09-.13,3.79-.34,4.17-.39-.42-.44-.8-.85-1.15-1.24-.19-.18-.39-.36-.6-.53a27.53,27.53,0,0,0-4.71-2.39,32.7,32.7,0,0,1-11.92-5.9c-.57-.37-1.06-.72-1.51-1.06a16.72,16.72,0,0,1-1.95-1.77l-.18-.2c-.51-.47-.79-.76-.79-.76l-.44-.44-.35-.53a14.68,14.68,0,0,1-1.26-2.44,11.29,11.29,0,0,1-.86-7.17,10.62,10.62,0,0,1,2.59-5.18,7.15,7.15,0,0,1,3.81-3.18,7.39,7.39,0,0,1,1.1-.31l.35-.07c.75-.29,1.88-.7,3.1-1a19.77,19.77,0,0,1,2-.48l.64-.11a12.18,12.18,0,0,0,2.1-1.57c.16-.16.39-.37.7-.63a11.49,11.49,0,0,1,7.94-3.07,15,15,0,0,1,7.55,2.19l.16.09.15.1h0a30.07,30.07,0,0,0,3.26,1.65,68.07,68.07,0,0,0,7.15,2.58,77,77,0,0,0,12,2.39c.82.1,1.67.22,2.52.34,8.88.88,21.45,3.74,30.24,9.13l.24.15.82.52c4.69,3,7.94,6.66,9.68,10.82l.56,0c5.79.17,10.08,3.91,11.57,10.07l.14.6,0,.62c.05,1.18.12,11.81-13.25,21.85q-2,1.58-4.22,3a9.37,9.37,0,0,1-9.08,7.32h0a10.82,10.82,0,0,1-3.23-.51c-.29-.07-.6-.15-.92-.25l-.57-.17-.53-.27a7.88,7.88,0,0,1-1.22-.79l-.34-.19-.34-.33a12.38,12.38,0,0,1-3.85.62,9,9,0,0,1-7-3l-.78-.69a12.75,12.75,0,0,1-1.19.56l-.55.22c-1.15.65-2.6,1.46-3.51,2l-.43.25-.55.33-.09,0a33,33,0,0,1-3.6,1.74l-.15.09a8.8,8.8,0,0,1-2.11,4.15A9.87,9.87,0,0,1,243.86,293.54Z"/><path class="cls-3" d="M208,237s-6.86-5.17-1.54-9.84c0,0-.52-.79,1.3-.88a25.13,25.13,0,0,1,5.32-1.59c2.24-.28,5.37-3.27,5.37-3.27a6.48,6.48,0,0,1,8-.74c4.67,2.75,15.42,7,27.46,8.07s38.06,6.93,37.5,22.18c0,0,8.73-5,10.84,3.78,0,0,.38,8.7-11.84,17.28l-4.25,2.91s-1.92,1.05-1.18,2.62c0,0-.77,4.69-5.85,1.75,0,0-1.78-1.68,3.54-4.69l3.88-3.18s-4.09,3.18-11.79,4.65c0,0-2.52,4.24-6.19,1.09a2.84,2.84,0,0,1,.94-3.26s-1.82-2.31,1.24-3.2c0,0,9.19.54,11.41-2.5,0,0-3-.86-4.22-3,0,0-6.33,2.47-11.33,2.24,0,0-2.28,6.4-6.9,8.32,0,0-3.39,1.34-3.71,1.79a22.68,22.68,0,0,1-4.93,2.72c-1.08.36-4.2,2.36-4,4.21s-2.45,3.95-6.3,1.78c0,0-1.58-3,1.68-3.53,0,0,1.71-.56,2-1.29,0,0,5.7-4,5.88-5.11,0,0-8.51,3.11-13.93,3.22a2.5,2.5,0,0,0-2.34,1.29s-2.87,2.83-5-.73c0,0,.31-2.66,3.64-3l15-3.64s-3-.53-3.67-.18-5.49-.63-5.49-.63-.95,0-1.23.56-3.92,2.31-3.74-1.78a5.11,5.11,0,0,1,2.59-1.79c1.57-.38,5.14.39,5.14.39l12.84.42s3.46-3.53,3.46-4.76L246.91,260s-7.46-4.06-7.94-4c0,0-3.75,5.78-.74,5.11,0,0,3.92.7.87,4.31,0,0-3.39,1.22-3.39-2.59a8.24,8.24,0,0,0-4.86,1.08c-2.21,1.4-5.88,3.78-7.25,3.74,0,0-.9,0-1.29,1.51s-4.56,2-4.86-.43c0,0-.89-1.28,5.08-3.48l4.6-2.68s-2,.72-11,1.1c0,0-1.63,3.08-4.06,1,0,0-1.58-2.4,2.24-4A34.84,34.84,0,0,1,221,260c2.36.17,9.59-.21,11.76-7.11,0,0-3.34-3.15-5.39-5.48s-8.73-4.81-8.73-4.81S211.65,239.8,208,237Z"/><circle class="cls-4" cx="227.94" cy="230.96" r="4.94"/><path class="cls-5" d="M224.4,229.74a3.39,3.39,0,0,1,4.34-.86,4.19,4.19,0,0,1,2.74,3.92,4.29,4.29,0,0,1-4.39.45A5.21,5.21,0,0,1,224.4,229.74Z"/><circle class="cls-2" cx="230.28" cy="230.23" r="1.16"/><ellipse class="cls-5" cx="209.99" cy="229.29" rx="1.15" ry="0.7"/><path class="cls-6" d="M245.44,252.22a17.56,17.56,0,0,0,4.34,1.4,30,30,0,0,0,4.43.45c1.49.08,3,0,4.52,0,.76-.05,1.54-.09,2.32-.11a23.11,23.11,0,0,1,2.37-.07,21.52,21.52,0,0,1-2.17,1c-.76.26-1.52.5-2.3.7a18,18,0,0,1-4.81.47,14.39,14.39,0,0,1-4.8-1A8.36,8.36,0,0,1,245.44,252.22Z"/><path class="cls-7" d="M252.12,246.87s13.54-1,16.73,4c0,0,1.78,2.13,0,7.87L266.22,268s-1.85,6.09-6,7.28c0,0-4.44,2.47-5.84,3.3,0,0-7.94,3-7.56,6.25,0,0-.17,3.43-5.46,1.89,0,0-2.86-1.82.27-3.84a5.34,5.34,0,0,0,2.22-1l6.66-5.72s-4.42,2.24-15.3,3.43a3.83,3.83,0,0,0-1.39,1.4,2.89,2.89,0,0,1-4.28.11,2.48,2.48,0,0,1,.75-3.31,13.53,13.53,0,0,1,4.51-1.31l14-3.29a14.83,14.83,0,0,0,4.84-2.67,15.8,15.8,0,0,0,5-6.92s1.76-6.08,1.46-9"/><path class="cls-7" d="M253.63,270.49s-12.11,0-13.42-.67-7-.81-7,2.71c0,0,.4,3.06,4.92.07a4,4,0,0,1,2.15.54l7.86.12"/><path class="cls-6" d="M206.77,235.9a11.58,11.58,0,0,1,4.19,0,20,20,0,0,1,2,.64l1.93.7,7.64,2.83c1.27.48,2.54.94,3.82,1.37s2.55.86,3.83,1.24a16.46,16.46,0,0,0,3.85.74,1.91,1.91,0,0,0,1.58-.47,2.3,2.3,0,0,0,.1-1.84,2.34,2.34,0,0,1,.38,2.11,1.77,1.77,0,0,1-.88.85,4.26,4.26,0,0,1-1.11.33,13.75,13.75,0,0,1-4.26-.19,47.88,47.88,0,0,1-8-2.26c-2.58-1-5.11-2.06-7.57-3.28-.61-.31-1.23-.61-1.83-.93a17.52,17.52,0,0,0-1.78-.9A16.61,16.61,0,0,0,206.77,235.9Z"/><path class="cls-6" d="M229.24,224.79a7.23,7.23,0,0,1,3,.58,6.34,6.34,0,0,1,2.54,1.94,6.12,6.12,0,0,1,1.27,3.05,8.13,8.13,0,0,1,.07,1.63c0,.54-.14,1.06-.22,1.59v0l0,0a7.62,7.62,0,0,1-1.62,2.71,6.52,6.52,0,0,1-2.59,1.74,6.44,6.44,0,0,1-3,.35,9.29,9.29,0,0,1-1.43-.3c-.46-.16-.89-.36-1.32-.55h1.4a11.53,11.53,0,0,0,1.33-.12,6.89,6.89,0,0,0,2.38-.79,6,6,0,0,0,1.8-1.56,7.48,7.48,0,0,0,1.13-2.06l0,.07c.06-.43.16-.87.2-1.3a7.81,7.81,0,0,0,0-1.28,5.2,5.2,0,0,0-.68-2.37,6.44,6.44,0,0,0-1.73-2A11.59,11.59,0,0,0,229.24,224.79Z"/><path class="cls-8" d="M287.07,246.83s-10.21,1-10.07,14.18c0,0,.56,11.47,13.92,5.25,0,0,3-1.48,7.56-7.77"/><path class="cls-7" d="M286.16,258s.35-6,9.1-8.57c0,0,9-.49,6,9.59,0,0-2.38,8.12-15.12,15.85a2.16,2.16,0,0,0-1.16,2.27s.23,4.2-5.23,2.57c0,0-2.14-1.08.38-3.55l6.4-4.79s-7.9,4-10.91,4.47c0,0-1.32.56-1.65,1.49s-6.81,2.56-5.32-2.75c0,0,1.09-1.88,4.23-1.53s11.24-3.22,11.8-4.48"/><path class="cls-9" d="M269.31,273.74s-1.6-2.08,1.46-3.22c0,0,8.33.74,11.39-2.34"/><path class="cls-6" d="M287.28,247a10.1,10.1,0,0,0-4.6,1.86,10.42,10.42,0,0,0-3.08,3.68,17.65,17.65,0,0,0-1.62,9.39,6.46,6.46,0,0,0,1.93,3.89,6.76,6.76,0,0,0,4.07,1.63,10.93,10.93,0,0,0,4.65-.63,9.72,9.72,0,0,0,4-2.51l.06-.06h0c1-.87,2-1.79,3-2.73.49-.48,1-1,1.42-1.46a7.79,7.79,0,0,0,1.19-1.65,6.87,6.87,0,0,1-.88,1.88c-.38.58-.77,1.16-1.2,1.7a38.22,38.22,0,0,1-2.7,3.14l.05-.06a10.47,10.47,0,0,1-4.31,3.29,12.3,12.3,0,0,1-5.38,1,8.61,8.61,0,0,1-5.27-2,8.19,8.19,0,0,1-2.52-5.09,15.85,15.85,0,0,1,.36-5.39,15.62,15.62,0,0,1,2-5,10.61,10.61,0,0,1,3.84-3.69,9.05,9.05,0,0,1,2.47-.94A8.06,8.06,0,0,1,287.28,247Z"/><path class="cls-7" d="M232.73,252.89s-3,6.46-7.82,6.65a74.11,74.11,0,0,1-7.79.56c-4,0-6.67,2.28-4.52,5.08a2.74,2.74,0,0,0,3.54-1.51s9.52-.07,11.66-1.38L218,267.75s-2,2.75,2.85,2.52a2.17,2.17,0,0,0,1.77-2.09,4.09,4.09,0,0,1,1.86-.71l7.89-4.34s3-.79,3.71-.19c0,0-.4,3.32,2.63,2.62,0,0,4.39-2.69-.44-4.45,0,0-1.28.43-1.28-1.2l2.1-3.68"/><path class="cls-7" d="M277.94,265.17s-4.16,2.42-11.33,2.24"/><path class="cls-7" d="M257.6,265.75s-7.93-3.94-10.34-5.48-12.75-6.3-15.23-8-5.56-7.73-12.8-9.34-13.5-8-13.5-8-3.27-4.89.71-7.71c0,0-.22-1,1.47-.83a18.21,18.21,0,0,1,5.25-1.64c2.42-.23,5.69-3.6,5.69-3.6s2.69-3.36,8.13-.23c0,0,8.43,5.58,25.08,7.62s39.84,7.69,39.35,22.45"/><path class="cls-10" d="M214.45,239.4s16.63,6.53,18.43,6.38c0,0,10.09,9.82,23.95,14.22l1.61.44-1.17,4s-24.07-12.61-24.39-13.56-.32.07-.32.07S233.22,247.1,214.45,239.4Z"/><path class="cls-10" d="M268.45,263.06l-.77,3.57s6.31.27,8.85-1.84a9.53,9.53,0,0,1-.54-4.37S272.24,264.28,268.45,263.06Z"/><path class="cls-10" d="M215.14,225.47l3.89-3.08a5.08,5.08,0,0,1,6.45-1.36l3.45,1.9-3.78-1.5s-3.55-1.46-5.57,1.65Z"/><path class="cls-10" d="M289.76,254.21s10-8.5,10.92,2.42c0,0-.64,4.18-2.41,6,0,0,2.7-7.91.21-9C298.48,253.66,295.84,251.13,289.76,254.21Z"/><path class="cls-10" d="M257.12,247.91s13.49-.44,11.33,8.46l-1.35,5.22S271.35,248.38,257.12,247.91Z"/><path class="cls-11" d="M236.44,226.35s10.7,3.92,18.85,3.88,34,8.44,33.66,16.21c0,0-9.46-12.2-33.66-15.05C255.29,231.39,243.85,230.38,236.44,226.35Z"/><path class="cls-12" d="M207.41,228.11s-4.37,3.63,0,7C207.41,235.15,204.07,232.18,207.41,228.11Z"/><path class="cls-12" d="M222,231s1,7.56,8,5.43C230.07,236.39,222.9,239.51,222,231Z"/><path class="cls-13" d="M278.15,256.85s-1.62,15.4,12,8.9C290.12,265.75,278.49,270.83,278.15,256.85Z"/><path class="cls-12" d="M224,260.74s6.66-.55,9.21-6.6l1.69.74S229.75,261.52,224,260.74Z"/><path class="cls-10" d="M211.27,229s.32,1-1.28,1.16C210,230.2,211.75,230.45,211.27,229Z"/><path class="cls-1" d="M132,298.87a11,11,0,0,1-2.41-.26,16.88,16.88,0,0,1-1.83-.42l-.9-.26-.79-.51c-.15-.1-.38-.26-.66-.48l-1.33-.75-.87-1.67a8.53,8.53,0,0,1-.62-1.2,8.92,8.92,0,0,1-2.73.43,9.58,9.58,0,0,1-6.3-2.44l-.86-.74-.55-1a6.35,6.35,0,0,1-.34-.69,2.26,2.26,0,0,1-.16-.26l-1.09-1.86.25-2.14a9.42,9.42,0,0,1,.63-2.33,8.18,8.18,0,0,1,.37-.93,10.14,10.14,0,0,1-3.89.76,8.78,8.78,0,0,1-6.75-2.94l-.15-.15-.3-.41a7,7,0,0,1-.54-.87l-.22-.42-.2-.47a8.85,8.85,0,0,1-1.56-.49l-1.55-.67-.77-1-.52-.44-.49-.76a8.61,8.61,0,0,1-.73-7.92c1.49-4,5.68-6.48,11-6.55.47,0,1,0,1.42,0l1.35-.07c2.09-.13,3.79-.33,4.17-.38-.42-.44-.8-.86-1.14-1.24l-.61-.54a28.21,28.21,0,0,0-4.7-2.38,32.79,32.79,0,0,1-11.92-5.9c-.57-.37-1.07-.72-1.51-1.06a16,16,0,0,1-2-1.78l-.18-.19c-.51-.47-.79-.76-.79-.76l-.43-.44-.36-.54a14,14,0,0,1-1.26-2.43,11.3,11.3,0,0,1-.85-7.17A10.52,10.52,0,0,1,89,228.93a7.14,7.14,0,0,1,3.82-3.18,8.2,8.2,0,0,1,1.09-.32l.36-.06c.74-.29,1.87-.7,3.1-1.05a19,19,0,0,1,2-.48l.64-.11a12.72,12.72,0,0,0,2.1-1.57,9.15,9.15,0,0,1,.71-.63,11.44,11.44,0,0,1,7.93-3.07,15.1,15.1,0,0,1,7.55,2.18l.16.1.16.1h0a29.15,29.15,0,0,0,3.25,1.65,65.35,65.35,0,0,0,7.16,2.57,76.65,76.65,0,0,0,11.94,2.4l2.53.33c8.88.89,21.44,3.75,30.23,9.14l.24.14.83.53c4.69,3,7.94,6.66,9.67,10.82l.56.05c5.79.17,10.08,3.91,11.57,10.07l.14.6,0,.62c.05,1.18.12,11.81-13.25,21.85-1.33,1-2.74,2.06-4.22,3A9.35,9.35,0,0,1,170.2,292h0a10.58,10.58,0,0,1-3.23-.52c-.29-.06-.59-.14-.92-.24l-.57-.17-.53-.27a9.35,9.35,0,0,1-1.22-.79l-.34-.19-.34-.33a12.38,12.38,0,0,1-3.85.62,9,9,0,0,1-6.95-3l-.79-.68a11.66,11.66,0,0,1-1.19.56l-.54.22c-1.15.64-2.61,1.46-3.51,2l-.44.25-.54.33-.1,0a31.28,31.28,0,0,1-3.6,1.73l-.15.1a8.68,8.68,0,0,1-2.11,4.14A9.82,9.82,0,0,1,132,298.87Z"/><path class="cls-2" d="M126.65,293.54a11.67,11.67,0,0,1-2.41-.25c-.63-.12-1.24-.26-1.83-.43l-.9-.26-.79-.51c-.15-.1-.38-.26-.65-.47l-1.34-.76-.86-1.67a8.6,8.6,0,0,1-.63-1.2,8.87,8.87,0,0,1-2.73.44,9.6,9.6,0,0,1-6.3-2.45l-.85-.73-.56-1a7.43,7.43,0,0,1-.34-.69c0-.08-.11-.16-.16-.25l-1.09-1.86.26-2.14a8.76,8.76,0,0,1,.62-2.33,7.5,7.5,0,0,1,.37-.93,10.31,10.31,0,0,1-3.88.75,8.79,8.79,0,0,1-6.76-2.94l-.15-.14-.3-.42a9.18,9.18,0,0,1-.54-.87l-.22-.41-.2-.48a8.69,8.69,0,0,1-1.55-.49l-1.56-.67-.76-1-.52-.45-.5-.76a8.61,8.61,0,0,1-.73-7.92c1.49-4,5.68-6.48,11-6.55.48,0,1,0,1.42,0s.92-.06,1.35-.07c2.1-.13,3.8-.34,4.17-.39-.42-.44-.8-.85-1.14-1.24-.2-.18-.4-.36-.61-.53a27.37,27.37,0,0,0-4.7-2.39,32.63,32.63,0,0,1-11.92-5.9c-.57-.37-1.07-.72-1.51-1.06a17.33,17.33,0,0,1-2-1.77l-.18-.2c-.5-.47-.79-.76-.79-.76l-.43-.44-.36-.53A15.55,15.55,0,0,1,81.91,236a11.35,11.35,0,0,1-.85-7.17,10.52,10.52,0,0,1,2.58-5.18,7.14,7.14,0,0,1,3.82-3.18,6.94,6.94,0,0,1,1.09-.31l.36-.07c.74-.29,1.87-.7,3.1-1a18.59,18.59,0,0,1,2-.48l.63-.11a12.23,12.23,0,0,0,2.11-1.57,8.85,8.85,0,0,1,.7-.63,11.46,11.46,0,0,1,7.93-3.07,15.08,15.08,0,0,1,7.56,2.19l.16.09.15.1h0a29.15,29.15,0,0,0,3.25,1.65,67.46,67.46,0,0,0,7.16,2.58,76.79,76.79,0,0,0,11.95,2.39c.82.1,1.66.22,2.52.34,8.88.88,21.44,3.74,30.23,9.13l.24.15.83.52c4.69,3,7.94,6.66,9.67,10.82l.57,0c5.78.17,10.08,3.91,11.56,10.07l.15.6,0,.62c.05,1.18.12,11.81-13.25,21.85-1.32,1.05-2.74,2.06-4.22,3a9.35,9.35,0,0,1-9.08,7.32h0a10.81,10.81,0,0,1-3.22-.51c-.3-.07-.6-.15-.92-.25l-.57-.17-.53-.27a7.87,7.87,0,0,1-1.23-.79l-.33-.19-.34-.33a12.38,12.38,0,0,1-3.85.62,9,9,0,0,1-7-3l-.79-.69a11.66,11.66,0,0,1-1.19.56l-.54.22c-1.15.65-2.6,1.46-3.51,2l-.44.25-.54.33-.1,0a32.08,32.08,0,0,1-3.6,1.74l-.14.09a8.82,8.82,0,0,1-2.12,4.15A9.83,9.83,0,0,1,126.65,293.54Z"/><path class="cls-3" d="M90.76,237s-6.86-5.17-1.54-9.84c0,0-.51-.79,1.31-.88a25.13,25.13,0,0,1,5.32-1.59c2.24-.28,5.36-3.27,5.36-3.27a6.49,6.49,0,0,1,8-.74c4.66,2.75,15.41,7,27.45,8.07s38.07,6.93,37.51,22.18c0,0,8.73-5,10.84,3.78,0,0,.38,8.7-11.84,17.28L169,274.9s-1.92,1.05-1.19,2.62c0,0-.77,4.69-5.84,1.75,0,0-1.79-1.68,3.53-4.69l3.89-3.18s-4.1,3.18-11.8,4.65c0,0-2.52,4.24-6.19,1.09a2.83,2.83,0,0,1,1-3.26s-1.82-2.31,1.24-3.2c0,0,9.18.54,11.4-2.5a8.07,8.07,0,0,1-4.21-3s-6.34,2.47-11.34,2.24c0,0-2.27,6.4-6.89,8.32,0,0-3.4,1.34-3.71,1.79a22.92,22.92,0,0,1-4.93,2.72c-1.09.36-4.2,2.36-4,4.21s-2.45,3.95-6.3,1.78c0,0-1.57-3,1.68-3.53,0,0,1.72-.56,2-1.29,0,0,5.71-4,5.88-5.11,0,0-8.5,3.11-13.92,3.22a2.52,2.52,0,0,0-2.35,1.29s-2.87,2.83-5-.73a3.74,3.74,0,0,1,3.64-3l15-3.64s-3-.53-3.68-.18-5.49-.63-5.49-.63-.94,0-1.22.56-3.92,2.31-3.75-1.78a5.17,5.17,0,0,1,2.59-1.79c1.58-.38,5.14.39,5.14.39l12.85.42s3.46-3.53,3.46-4.76L129.69,260s-7.45-4.06-7.94-4c0,0-3.74,5.78-.73,5.11,0,0,3.91.7.87,4.31,0,0-3.39,1.22-3.39-2.59a8.28,8.28,0,0,0-4.87,1.08c-2.2,1.4-5.88,3.78-7.24,3.74,0,0-.91,0-1.29,1.51s-4.56,2-4.87-.43c0,0-.88-1.28,5.09-3.48l4.59-2.68s-2,.72-11,1.1c0,0-1.64,3.08-4.06,1,0,0-1.59-2.4,2.24-4a34.81,34.81,0,0,1,6.64-.68c2.36.17,9.59-.21,11.76-7.11,0,0-3.33-3.15-5.39-5.48s-8.72-4.81-8.72-4.81S94.44,239.8,90.76,237Z"/><circle class="cls-4" cx="110.72" cy="230.96" r="4.94"/><path class="cls-5" d="M107.18,229.74a3.41,3.41,0,0,1,4.35-.86,4.19,4.19,0,0,1,2.74,3.92,4.31,4.31,0,0,1-4.4.45A5.21,5.21,0,0,1,107.18,229.74Z"/><circle class="cls-2" cx="113.07" cy="230.23" r="1.16"/><ellipse class="cls-5" cx="92.78" cy="229.29" rx="1.15" ry="0.7"/><path class="cls-6" d="M128.22,252.22a17.63,17.63,0,0,0,4.35,1.4,29.83,29.83,0,0,0,4.43.45c1.49.08,3,0,4.52,0,.76-.05,1.53-.09,2.31-.11a23.3,23.3,0,0,1,2.38-.07,21.69,21.69,0,0,1-2.18,1c-.75.26-1.52.5-2.29.7a18.1,18.1,0,0,1-4.82.47,14.49,14.49,0,0,1-4.8-1A8.41,8.41,0,0,1,128.22,252.22Z"/><path class="cls-7" d="M134.91,246.87s13.54-1,16.72,4c0,0,1.79,2.13,0,7.87L149,268s-1.86,6.09-5.95,7.28c0,0-4.45,2.47-5.84,3.3,0,0-7.95,3-7.56,6.25,0,0-.18,3.43-5.46,1.89,0,0-2.87-1.82.26-3.84a5.34,5.34,0,0,0,2.22-1l6.67-5.72s-4.43,2.24-15.31,3.43a3.85,3.85,0,0,0-1.38,1.4,2.9,2.9,0,0,1-4.29.11,2.48,2.48,0,0,1,.76-3.31,13.53,13.53,0,0,1,4.51-1.31l14-3.29a14.92,14.92,0,0,0,4.85-2.67,16,16,0,0,0,4.95-6.92s1.75-6.08,1.45-9"/><path class="cls-7" d="M136.42,270.49s-12.12,0-13.42-.67-7-.81-7,2.71c0,0,.4,3.06,4.93.07a4,4,0,0,1,2.14.54l7.86.12"/><path class="cls-6" d="M89.56,235.9a11.58,11.58,0,0,1,4.19,0,20.84,20.84,0,0,1,2,.64l1.92.7,7.65,2.83c1.26.48,2.54.94,3.81,1.37s2.56.86,3.84,1.24a16.48,16.48,0,0,0,3.84.74,2,2,0,0,0,1.59-.47,2.3,2.3,0,0,0,.1-1.84,2.34,2.34,0,0,1,.38,2.11,1.75,1.75,0,0,1-.89.85,4.08,4.08,0,0,1-1.1.33,13.81,13.81,0,0,1-4.27-.19,48,48,0,0,1-8-2.26c-2.58-1-5.11-2.06-7.57-3.28-.61-.31-1.23-.61-1.84-.93a13.74,13.74,0,0,0-5.68-1.89Z"/><path class="cls-6" d="M112,224.79a7.18,7.18,0,0,1,3,.58,6.31,6.31,0,0,1,3.82,5,8.94,8.94,0,0,1,.07,1.63c0,.54-.14,1.06-.22,1.59v.07a7.79,7.79,0,0,1-1.63,2.71,6.49,6.49,0,0,1-5.58,2.09,9.41,9.41,0,0,1-1.42-.3c-.46-.16-.9-.36-1.32-.55h1.39a11.5,11.5,0,0,0,1.34-.12,6.84,6.84,0,0,0,2.37-.79,5.91,5.91,0,0,0,1.81-1.56,8.05,8.05,0,0,0,1.13-2.06l0,.07c0-.43.15-.87.19-1.3a7.82,7.82,0,0,0,0-1.28,5.2,5.2,0,0,0-.68-2.37,6.48,6.48,0,0,0-1.74-2A11.27,11.27,0,0,0,112,224.79Z"/><path class="cls-8" d="M169.86,246.83s-10.22,1-10.08,14.18c0,0,.56,11.47,13.93,5.25,0,0,3-1.48,7.56-7.77"/><path class="cls-7" d="M169,258s.35-6,9.1-8.57c0,0,8.95-.49,6,9.59,0,0-2.38,8.12-15.12,15.85a2.18,2.18,0,0,0-1.17,2.27s.24,4.2-5.22,2.57c0,0-2.15-1.08.37-3.55l6.41-4.79s-7.91,4-10.91,4.47c0,0-1.33.56-1.66,1.49s-6.81,2.56-5.31-2.75c0,0,1.08-1.88,4.23-1.53s11.23-3.22,11.79-4.48"/><path class="cls-9" d="M152.1,273.74s-1.6-2.08,1.46-3.22c0,0,8.32.74,11.38-2.34"/><path class="cls-6" d="M170.07,247a10.06,10.06,0,0,0-4.6,1.86,10.35,10.35,0,0,0-3.09,3.68,16.22,16.22,0,0,0-1.46,4.61,15.76,15.76,0,0,0-.16,4.78,6.46,6.46,0,0,0,1.93,3.89,6.77,6.77,0,0,0,4.08,1.63,10.87,10.87,0,0,0,4.64-.63,9.82,9.82,0,0,0,4-2.51l.06-.06h0c1-.87,2-1.79,3-2.73.48-.48,1-1,1.41-1.46a7.83,7.83,0,0,0,1.2-1.65,6.9,6.9,0,0,1-.89,1.88A19.92,19.92,0,0,1,179,262a40.39,40.39,0,0,1-2.71,3.14l.06-.06a10.44,10.44,0,0,1-4.32,3.29,12.26,12.26,0,0,1-5.37,1,8.66,8.66,0,0,1-5.28-2,8.17,8.17,0,0,1-2.51-5.09,15.36,15.36,0,0,1,.36-5.39,15.6,15.6,0,0,1,2-5,10.71,10.71,0,0,1,3.85-3.69,8.93,8.93,0,0,1,2.47-.94A8.06,8.06,0,0,1,170.07,247Z"/><path class="cls-7" d="M115.51,252.89s-3,6.46-7.81,6.65a74.4,74.4,0,0,1-7.79.56c-4,0-6.68,2.28-4.53,5.08a2.75,2.75,0,0,0,3.55-1.51s9.51-.07,11.66-1.38l-9.84,5.46s-2,2.75,2.84,2.52a2.17,2.17,0,0,0,1.77-2.09,4.15,4.15,0,0,1,1.87-.71l7.88-4.34s3-.79,3.72-.19c0,0-.4,3.32,2.63,2.62,0,0,4.38-2.69-.44-4.45,0,0-1.29.43-1.29-1.2l2.1-3.68"/><path class="cls-7" d="M160.73,265.17s-4.17,2.42-11.34,2.24"/><path class="cls-7" d="M140.38,265.75s-7.92-3.94-10.34-5.48-12.75-6.3-15.22-8-5.56-7.73-12.8-9.34-13.51-8-13.51-8-3.26-4.89.71-7.71c0,0-.22-1,1.48-.83A18.09,18.09,0,0,1,96,224.69c2.41-.23,5.68-3.6,5.68-3.6s2.7-3.36,8.14-.23c0,0,8.42,5.58,25.08,7.62s39.84,7.69,39.35,22.45"/><path class="cls-10" d="M97.23,239.4s16.63,6.53,18.44,6.38c0,0,10.09,9.82,24,14.22l1.61.44-1.17,4S116,251.79,115.67,250.84s-.33.07-.33.07S116,247.1,97.23,239.4Z"/><path class="cls-10" d="M151.23,263.06l-.76,3.57s6.31.27,8.85-1.84a9.53,9.53,0,0,1-.54-4.37S155,264.28,151.23,263.06Z"/><path class="cls-10" d="M97.93,225.47l3.88-3.08a5.09,5.09,0,0,1,6.46-1.36l3.44,1.9-3.77-1.5s-3.56-1.46-5.58,1.65Z"/><path class="cls-10" d="M172.54,254.21s10-8.5,10.93,2.42c0,0-.64,4.18-2.41,6,0,0,2.7-7.91.21-9C181.27,253.66,178.63,251.13,172.54,254.21Z"/><path class="cls-10" d="M139.91,247.91s13.48-.44,11.32,8.46l-1.35,5.22S154.14,248.38,139.91,247.91Z"/><path class="cls-11" d="M119.23,226.35s10.7,3.92,18.85,3.88,33.95,8.44,33.65,16.21c0,0-9.46-12.2-33.65-15.05C138.08,231.39,126.64,230.38,119.23,226.35Z"/><path class="cls-12" d="M90.19,228.11s-4.36,3.63,0,7C90.19,235.15,86.86,232.18,90.19,228.11Z"/><path class="cls-12" d="M104.82,231s1,7.56,8,5.43C112.85,236.39,105.69,239.51,104.82,231Z"/><path class="cls-13" d="M160.93,256.85s-1.61,15.4,12,8.9C172.91,265.75,161.27,270.83,160.93,256.85Z"/><path class="cls-12" d="M106.81,260.74s6.67-.55,9.21-6.6l1.69.74S112.53,261.52,106.81,260.74Z"/><path class="cls-10" d="M94.06,229s.32,1-1.28,1.16C92.78,230.2,94.54,230.45,94.06,229Z"/><path class="cls-1" d="M366.4,213.63a11.6,11.6,0,0,1-2.4-.26,14.81,14.81,0,0,1-1.83-.43l-.9-.26-.79-.51c-.15-.1-.38-.26-.66-.47l-1.33-.76-.87-1.67a9,9,0,0,1-.62-1.19,8.92,8.92,0,0,1-2.73.43,9.6,9.6,0,0,1-6.3-2.45l-.86-.73-.55-1a7,7,0,0,1-.35-.69l-.15-.25L345,201.54l.25-2.14a9.63,9.63,0,0,1,.62-2.33,9.53,9.53,0,0,1,.38-.93,10.14,10.14,0,0,1-3.89.75,8.78,8.78,0,0,1-6.75-2.94l-.15-.14-.3-.42a6.91,6.91,0,0,1-.54-.86l-.22-.42-.2-.48a8.85,8.85,0,0,1-1.56-.49l-1.55-.67-.77-1-.52-.45-.49-.76a8.61,8.61,0,0,1-.73-7.92c1.49-4,5.68-6.48,11-6.55.47,0,1,0,1.42,0s.91-.06,1.35-.07c2.09-.13,3.79-.34,4.17-.39-.42-.44-.8-.85-1.15-1.24-.19-.18-.39-.36-.6-.53a28.28,28.28,0,0,0-4.71-2.39,32.67,32.67,0,0,1-11.91-5.9c-.57-.37-1.07-.72-1.51-1.06a16.45,16.45,0,0,1-2-1.77l-.18-.2c-.51-.47-.79-.76-.79-.76l-.43-.44-.36-.53a14.68,14.68,0,0,1-1.26-2.44,11.28,11.28,0,0,1-.85-7.17,10.52,10.52,0,0,1,2.58-5.18,7.14,7.14,0,0,1,3.82-3.18,6.94,6.94,0,0,1,1.09-.31l.35-.07c.75-.29,1.88-.7,3.11-1.05a19,19,0,0,1,2-.48l.64-.11a12.18,12.18,0,0,0,2.1-1.57c.16-.15.4-.37.71-.63a11.44,11.44,0,0,1,7.93-3.07,15.12,15.12,0,0,1,7.55,2.19l.16.09.16.1h0a29.15,29.15,0,0,0,3.25,1.65,67.46,67.46,0,0,0,7.16,2.58,76.66,76.66,0,0,0,11.94,2.39c.82.1,1.67.22,2.53.34,8.88.89,21.44,3.75,30.23,9.13l.24.15.83.52c4.69,3,7.94,6.66,9.67,10.82l.56.05c5.79.17,10.08,3.91,11.57,10.07l.14.6,0,.62c.05,1.18.12,11.81-13.25,21.85q-2,1.57-4.22,3a9.35,9.35,0,0,1-9.08,7.32h0a10.87,10.87,0,0,1-3.23-.51c-.29-.07-.59-.15-.92-.25l-.57-.17-.53-.27a8.39,8.39,0,0,1-1.22-.79l-.34-.19-.34-.33a12.38,12.38,0,0,1-3.85.62,9,9,0,0,1-6.95-3l-.79-.69a11.66,11.66,0,0,1-1.19.56l-.54.23c-1.15.64-2.61,1.45-3.51,2l-.44.25-.55.33-.09,0a33,33,0,0,1-3.6,1.74l-.15.09a8.8,8.8,0,0,1-2.11,4.15A9.86,9.86,0,0,1,366.4,213.63Z"/><path class="cls-2" d="M361.08,208.3a11.69,11.69,0,0,1-2.41-.26,17.44,17.44,0,0,1-1.83-.42l-.9-.27-.79-.51a7.77,7.77,0,0,1-.65-.47l-1.34-.76-.87-1.67a9,9,0,0,1-.62-1.19,8.92,8.92,0,0,1-2.73.43,9.6,9.6,0,0,1-6.3-2.45l-.85-.73-.56-1c-.08-.16-.21-.39-.34-.69l-.16-.26-1.09-1.86.25-2.14a9.31,9.31,0,0,1,.63-2.33,7.5,7.5,0,0,1,.37-.93,10.14,10.14,0,0,1-3.89.75,8.81,8.81,0,0,1-6.75-2.93l-.15-.15-.3-.42a8.32,8.32,0,0,1-.54-.86l-.22-.42-.2-.48a9.14,9.14,0,0,1-1.56-.49l-1.55-.67-.76-1-.53-.45-.49-.75a8.61,8.61,0,0,1-.73-7.92c1.49-4,5.68-6.49,11-6.55l1.42,0c.46,0,.92-.06,1.35-.07,2.1-.13,3.8-.34,4.17-.39q-.63-.66-1.14-1.23l-.61-.54a28.21,28.21,0,0,0-4.7-2.38,33,33,0,0,1-11.92-5.9c-.57-.38-1.07-.73-1.51-1.07a16.45,16.45,0,0,1-2-1.77l-.18-.19c-.5-.47-.79-.76-.79-.76l-.43-.45-.36-.53a15.76,15.76,0,0,1-1.26-2.43,11.32,11.32,0,0,1-.85-7.18,10.49,10.49,0,0,1,2.58-5.17,7.15,7.15,0,0,1,3.82-3.19,6.94,6.94,0,0,1,1.09-.31l.36-.07a32.48,32.48,0,0,1,3.1-1,19,19,0,0,1,2-.49l.64-.11a12.18,12.18,0,0,0,2.1-1.57c.16-.15.4-.37.71-.63a11.46,11.46,0,0,1,7.93-3.07,15.18,15.18,0,0,1,7.56,2.19l.15.09.16.1h0a27.13,27.13,0,0,0,3.25,1.65,67.46,67.46,0,0,0,7.16,2.58,76.78,76.78,0,0,0,11.95,2.4l2.52.33c8.88.89,21.44,3.75,30.23,9.13l.24.15c.33.2.58.36.83.53,4.69,3,7.94,6.65,9.67,10.82l.57,0c5.78.18,10.08,3.91,11.56,10.07l.14.61,0,.61c0,1.18.12,11.81-13.25,21.85-1.32,1.05-2.74,2.06-4.22,3a9,9,0,0,1-3.91,5.72,8.93,8.93,0,0,1-5.17,1.59h0a10.76,10.76,0,0,1-3.22-.51l-.93-.24-.57-.17-.53-.28a7.61,7.61,0,0,1-1.22-.79l-.34-.19-.34-.33a12.07,12.07,0,0,1-3.84.62,9,9,0,0,1-7-3l-.79-.68c-.39.2-.79.39-1.19.56l-.54.22c-1.15.64-2.6,1.45-3.51,2l-.44.25-.54.33-.1,0a29.66,29.66,0,0,1-3.6,1.74l-.14.09a8.82,8.82,0,0,1-2.12,4.15A9.85,9.85,0,0,1,361.08,208.3Z"/><path class="cls-3" d="M325.19,151.76s-6.86-5.18-1.54-9.85c0,0-.51-.79,1.31-.88a25.13,25.13,0,0,1,5.32-1.59c2.24-.28,5.36-3.26,5.36-3.26a6.5,6.5,0,0,1,8-.75c4.66,2.75,15.41,7,27.45,8.07s38.07,6.93,37.51,22.19c0,0,8.73-5,10.83,3.77,0,0,.39,8.7-11.84,17.29l-4.24,2.9s-1.93,1-1.19,2.62c0,0-.77,4.69-5.84,1.75,0,0-1.79-1.68,3.53-4.68l3.88-3.19s-4.09,3.19-11.79,4.66c0,0-2.52,4.23-6.19,1.08a2.82,2.82,0,0,1,.94-3.25s-1.81-2.31,1.25-3.21c0,0,9.18.55,11.4-2.5a8,8,0,0,1-4.21-3s-6.34,2.47-11.34,2.24c0,0-2.27,6.41-6.89,8.32,0,0-3.4,1.34-3.71,1.79a23.17,23.17,0,0,1-4.93,2.72c-1.09.36-4.2,2.36-4,4.21s-2.45,4-6.3,1.79c0,0-1.57-3.05,1.68-3.54,0,0,1.72-.56,2-1.29,0,0,5.71-4,5.88-5.11,0,0-8.5,3.11-13.92,3.22a2.52,2.52,0,0,0-2.35,1.29s-2.87,2.84-5-.73a3.74,3.74,0,0,1,3.64-3l15-3.64s-3-.52-3.68-.17-5.49-.63-5.49-.63-.94,0-1.22.56-3.92,2.31-3.75-1.79a5.11,5.11,0,0,1,2.59-1.78c1.57-.39,5.14.38,5.14.38l12.84.42s3.47-3.53,3.47-4.76l-10.64-5.66s-7.45-4.06-7.94-4c0,0-3.74,5.77-.74,5.11,0,0,3.92.69.88,4.3,0,0-3.39,1.22-3.39-2.59a8.28,8.28,0,0,0-4.87,1.08c-2.2,1.4-5.88,3.78-7.24,3.75,0,0-.91,0-1.3,1.5s-4.56,2-4.86-.43c0,0-.88-1.28,5.09-3.47l4.59-2.69s-2,.73-11,1.1c0,0-1.64,3.08-4.06,1,0,0-1.59-2.4,2.24-4a34.24,34.24,0,0,1,6.64-.67c2.36.16,9.59-.21,11.76-7.12,0,0-3.34-3.15-5.39-5.48s-8.72-4.8-8.72-4.8S328.87,154.56,325.19,151.76Z"/><circle class="cls-4" cx="345.15" cy="145.71" r="4.94"/><path class="cls-5" d="M341.61,144.49s1.43-2.12,4.35-.86a4.2,4.2,0,0,1,2.74,3.92,4.31,4.31,0,0,1-4.4.45A5.21,5.21,0,0,1,341.61,144.49Z"/><circle class="cls-2" cx="347.49" cy="144.98" r="1.16"/><ellipse class="cls-5" cx="327.21" cy="144.05" rx="1.15" ry="0.7"/><path class="cls-6" d="M362.65,167a18,18,0,0,0,4.35,1.39,28.56,28.56,0,0,0,4.43.46c1.49.07,3,0,4.52,0,.76-.05,1.53-.08,2.31-.11s1.56-.1,2.38-.07a21.69,21.69,0,0,1-2.18,1c-.75.26-1.52.51-2.3.7a18.41,18.41,0,0,1-4.81.48,14.71,14.71,0,0,1-4.8-1A8.46,8.46,0,0,1,362.65,167Z"/><path class="cls-7" d="M369.34,161.62s13.54-1,16.72,4c0,0,1.78,2.14,0,7.88l-2.62,9.27s-1.86,6.09-5.95,7.28c0,0-4.45,2.46-5.85,3.29,0,0-7.94,3-7.55,6.26,0,0-.18,3.43-5.46,1.89,0,0-2.87-1.82.26-3.85a5.42,5.42,0,0,0,2.22-1l6.67-5.72s-4.43,2.23-15.31,3.42a4,4,0,0,0-1.38,1.4,2.89,2.89,0,0,1-4.29.11,2.49,2.49,0,0,1,.75-3.31,13.9,13.9,0,0,1,4.52-1.31l14-3.29a14.69,14.69,0,0,0,4.85-2.67,16,16,0,0,0,4.95-6.92s1.75-6.08,1.45-9"/><path class="cls-7" d="M370.85,185.24s-12.12,0-13.42-.66-7-.82-7,2.7c0,0,.4,3.06,4.92.07a4,4,0,0,1,2.15.54l7.86.13"/><path class="cls-6" d="M324,150.65a11.37,11.37,0,0,1,4.19.06,18.41,18.41,0,0,1,2,.63l1.92.7,7.65,2.83c1.26.49,2.54.94,3.81,1.38s2.56.85,3.83,1.24a17.09,17.09,0,0,0,3.85.74,2,2,0,0,0,1.59-.48,2.34,2.34,0,0,0,.1-1.84,2.37,2.37,0,0,1,.38,2.11,1.79,1.79,0,0,1-.89.85,4.5,4.5,0,0,1-1.1.34,14.12,14.12,0,0,1-4.27-.2,47.77,47.77,0,0,1-8-2.26,81.93,81.93,0,0,1-7.57-3.28c-.61-.31-1.23-.61-1.84-.93a18.61,18.61,0,0,0-1.78-.9A16.53,16.53,0,0,0,324,150.65Z"/><path class="cls-6" d="M346.46,139.55a7.17,7.17,0,0,1,3,.57,6.53,6.53,0,0,1,2.54,1.94,6.23,6.23,0,0,1,1.28,3.05,9,9,0,0,1,.07,1.64c-.05.53-.14,1.06-.22,1.58v.08a7.66,7.66,0,0,1-1.63,2.7,6.39,6.39,0,0,1-2.58,1.74,6.47,6.47,0,0,1-3,.35,8.65,8.65,0,0,1-1.43-.3,13.88,13.88,0,0,1-1.31-.55l1.39,0a11.7,11.7,0,0,0,1.34-.13,6.84,6.84,0,0,0,2.37-.79,5.87,5.87,0,0,0,1.8-1.56,7.65,7.65,0,0,0,1.14-2.06l0,.08c.05-.44.15-.88.19-1.31a7.71,7.71,0,0,0,0-1.27,5.2,5.2,0,0,0-.68-2.38,6.45,6.45,0,0,0-1.74-2A10.89,10.89,0,0,0,346.46,139.55Z"/><path class="cls-8" d="M404.29,161.59s-10.22,1-10.08,14.17c0,0,.56,11.48,13.93,5.25,0,0,3-1.47,7.56-7.77"/><path class="cls-7" d="M403.38,172.78s.35-6,9.1-8.57c0,0,8.95-.49,6,9.59,0,0-2.37,8.12-15.11,15.85a2.19,2.19,0,0,0-1.17,2.27s.24,4.2-5.22,2.57c0,0-2.15-1.07.37-3.54l6.4-4.8s-7.9,4-10.9,4.48c0,0-1.33.55-1.66,1.48s-6.81,2.57-5.32-2.75c0,0,1.09-1.88,4.24-1.53s11.23-3.22,11.79-4.48"/><path class="cls-9" d="M386.53,188.5s-1.6-2.09,1.45-3.22c0,0,8.33.73,11.39-2.35"/><path class="cls-6" d="M404.5,161.73a10,10,0,0,0-4.6,1.86,10.52,10.52,0,0,0-3.09,3.68,17.71,17.71,0,0,0-1.62,9.4,6.49,6.49,0,0,0,1.93,3.89,6.76,6.76,0,0,0,4.08,1.62,10.89,10.89,0,0,0,4.64-.63,9.72,9.72,0,0,0,4-2.51l.06-.06h0c1-.88,2-1.79,3-2.74.48-.48,1-1,1.41-1.46a8,8,0,0,0,1.2-1.64,7.3,7.3,0,0,1-.89,1.87,19.92,19.92,0,0,1-1.19,1.7,40.53,40.53,0,0,1-2.71,3.15l.06-.07a10.42,10.42,0,0,1-4.32,3.29,12.26,12.26,0,0,1-5.37,1,8.6,8.6,0,0,1-5.28-2,8.17,8.17,0,0,1-2.51-5.09,15.38,15.38,0,0,1,.36-5.39,15.69,15.69,0,0,1,2-5,10.8,10.8,0,0,1,3.85-3.69,9.26,9.26,0,0,1,2.47-.94A8.33,8.33,0,0,1,404.5,161.73Z"/><path class="cls-7" d="M349.94,167.64s-3,6.46-7.81,6.65a74.45,74.45,0,0,1-7.8.56c-4,.05-6.67,2.29-4.52,5.09a2.74,2.74,0,0,0,3.55-1.52s9.51-.07,11.66-1.38l-9.85,5.46s-2,2.75,2.85,2.52a2.17,2.17,0,0,0,1.77-2.09,4.15,4.15,0,0,1,1.87-.71l7.88-4.34s3-.79,3.72-.18c0,0-.4,3.31,2.63,2.61,0,0,4.38-2.68-.45-4.44,0,0-1.28.43-1.28-1.21l2.1-3.68"/><path class="cls-7" d="M395.16,179.92s-4.17,2.42-11.34,2.24"/><path class="cls-7" d="M374.81,180.5s-7.92-3.94-10.34-5.47-12.75-6.3-15.22-8.05-5.56-7.73-12.8-9.34-13.51-8-13.51-8-3.27-4.88.71-7.71c0,0-.22-1,1.48-.82a18,18,0,0,1,5.25-1.65c2.41-.23,5.68-3.6,5.68-3.6s2.7-3.36,8.14-.23c0,0,8.42,5.58,25.08,7.62s39.84,7.69,39.35,22.46"/><path class="cls-10" d="M331.66,154.15s16.63,6.53,18.43,6.38c0,0,10.1,9.83,24,14.23l1.61.44-1.17,4s-24.07-12.62-24.4-13.57-.32.07-.32.07S350.43,161.85,331.66,154.15Z"/><path class="cls-10" d="M385.66,177.81l-.76,3.57s6.3.28,8.85-1.84a9.53,9.53,0,0,1-.54-4.37S389.46,179,385.66,177.81Z"/><path class="cls-10" d="M332.36,140.22l3.88-3.08a5.09,5.09,0,0,1,6.46-1.36l3.44,1.91-3.77-1.5s-3.56-1.47-5.58,1.65Z"/><path class="cls-10" d="M407,169s10-8.5,10.93,2.42c0,0-.65,4.18-2.41,6,0,0,2.7-7.92.21-9C415.7,168.42,413.06,165.88,407,169Z"/><path class="cls-10" d="M374.34,162.66s13.48-.44,11.32,8.47l-1.35,5.21S388.56,163.13,374.34,162.66Z"/><path class="cls-11" d="M353.66,141.1s10.7,3.92,18.85,3.88,33.95,8.44,33.65,16.21c0,0-9.46-12.2-33.65-15C372.51,146.15,361.07,145.13,353.66,141.1Z"/><path class="cls-12" d="M324.62,142.86s-4.36,3.63,0,7C324.62,149.9,321.28,146.93,324.62,142.86Z"/><path class="cls-12" d="M339.25,145.71s1,7.56,8,5.44C347.28,151.15,340.12,154.26,339.25,145.71Z"/><path class="cls-13" d="M395.36,171.6s-1.61,15.4,12,8.9C407.34,180.5,395.7,185.59,395.36,171.6Z"/><path class="cls-12" d="M341.24,175.49s6.67-.55,9.21-6.6l1.69.75S347,176.27,341.24,175.49Z"/><path class="cls-10" d="M328.49,143.79s.32,1-1.28,1.16C327.21,145,329,145.21,328.49,143.79Z"/><path class="cls-1" d="M249.19,213.63a11.6,11.6,0,0,1-2.4-.26,15.42,15.42,0,0,1-1.84-.43l-.9-.26-.79-.51c-.15-.1-.38-.26-.65-.47l-1.34-.76-.86-1.67a10.48,10.48,0,0,1-.63-1.19,8.87,8.87,0,0,1-2.73.43,9.56,9.56,0,0,1-6.29-2.45l-.86-.73-.55-1a7,7,0,0,1-.35-.69l-.16-.25-1.09-1.86.26-2.14a8.76,8.76,0,0,1,.62-2.33,7.55,7.55,0,0,1,.38-.93,10.17,10.17,0,0,1-3.89.75,8.81,8.81,0,0,1-6.76-2.94l-.15-.14-.3-.42c-.19-.27-.37-.56-.54-.86l-.22-.42s-.16-.38-.19-.48a8.58,8.58,0,0,1-1.56-.49l-1.56-.67-.76-1-.52-.45-.5-.76a8.64,8.64,0,0,1-.73-7.92c1.5-4,5.69-6.48,11-6.55.48,0,1,0,1.42,0s.92-.06,1.35-.07c2.1-.13,3.8-.34,4.18-.39-.42-.44-.81-.85-1.15-1.24-.19-.18-.39-.36-.6-.53a28.28,28.28,0,0,0-4.71-2.39,32.63,32.63,0,0,1-11.92-5.9c-.57-.37-1.06-.72-1.51-1.06a17.33,17.33,0,0,1-2-1.77l-.18-.2c-.5-.47-.79-.76-.79-.76l-.43-.44-.36-.53a16.52,16.52,0,0,1-1.26-2.44,11.35,11.35,0,0,1-.85-7.17,10.62,10.62,0,0,1,2.59-5.18A7.12,7.12,0,0,1,210,140.5a7.61,7.61,0,0,1,1.09-.31l.36-.07c.74-.29,1.88-.7,3.1-1.05a19.77,19.77,0,0,1,2-.48l.64-.11a12.58,12.58,0,0,0,2.1-1.57c.16-.15.39-.37.7-.63a11.49,11.49,0,0,1,7.94-3.07,15.17,15.17,0,0,1,7.55,2.19l.16.09.15.1h0a30.39,30.39,0,0,0,3.25,1.65,68.28,68.28,0,0,0,7.16,2.58,77,77,0,0,0,12,2.39c.82.1,1.67.22,2.52.34,8.88.89,21.44,3.75,30.23,9.13l.24.15.83.52c4.69,3,7.94,6.66,9.68,10.82l.56.05c5.79.17,10.08,3.91,11.56,10.07l.15.6,0,.62c0,1.18.12,11.81-13.26,21.85-1.32,1-2.74,2.06-4.22,3a9.35,9.35,0,0,1-9.08,7.32h0a10.81,10.81,0,0,1-3.22-.51c-.3-.07-.6-.15-.92-.25l-.57-.17-.53-.27a7.43,7.43,0,0,1-1.22-.79l-.34-.19-.34-.33a12.38,12.38,0,0,1-3.85.62,9,9,0,0,1-7-3l-.79-.69a12.6,12.6,0,0,1-1.18.56l-.55.23c-1.15.64-2.6,1.45-3.51,2l-.43.25-.55.33-.1,0a32.08,32.08,0,0,1-3.6,1.74l-.14.09a8.73,8.73,0,0,1-2.12,4.15A9.84,9.84,0,0,1,249.19,213.63Z"/><path class="cls-2" d="M243.86,208.3a11.6,11.6,0,0,1-2.4-.26,16.88,16.88,0,0,1-1.83-.42l-.91-.27-.78-.51c-.15-.1-.38-.25-.66-.47l-1.34-.76-.86-1.67a9,9,0,0,1-.62-1.19,8.92,8.92,0,0,1-2.73.43,9.59,9.59,0,0,1-6.3-2.45l-.86-.73-.55-1c-.09-.16-.21-.39-.35-.69l-.15-.26-1.1-1.86.26-2.14a9.18,9.18,0,0,1,.62-2.33,7.55,7.55,0,0,1,.38-.93,10.14,10.14,0,0,1-3.89.75,8.83,8.83,0,0,1-6.76-2.93l-.14-.15-.31-.42a8.25,8.25,0,0,1-.53-.86l-.22-.42-.2-.48a8.85,8.85,0,0,1-1.56-.49l-1.55-.67-.77-1-.52-.45-.5-.75A8.64,8.64,0,0,1,206,175c1.5-4,5.69-6.49,11-6.55l1.42,0c.47,0,.92-.06,1.36-.07,2.09-.13,3.79-.34,4.17-.39l-1.15-1.23-.6-.54a28.38,28.38,0,0,0-4.71-2.38,33,33,0,0,1-11.92-5.9c-.57-.38-1.06-.73-1.51-1.07a16.72,16.72,0,0,1-1.95-1.77l-.18-.19c-.51-.47-.79-.76-.79-.76l-.44-.45-.35-.53a14.87,14.87,0,0,1-1.26-2.43,11.33,11.33,0,0,1-.86-7.18,10.59,10.59,0,0,1,2.59-5.17,7.17,7.17,0,0,1,3.81-3.19,7.39,7.39,0,0,1,1.1-.31l.35-.07c.75-.29,1.88-.7,3.1-1a19.81,19.81,0,0,1,2-.49l.64-.11a12.18,12.18,0,0,0,2.1-1.57c.16-.15.39-.37.7-.63a11.49,11.49,0,0,1,7.94-3.07,15.12,15.12,0,0,1,7.55,2.19l.16.09.15.1h0a27.93,27.93,0,0,0,3.26,1.65,68.07,68.07,0,0,0,7.15,2.58,77,77,0,0,0,12,2.4l2.52.33c8.88.89,21.45,3.75,30.24,9.13l.24.15c.32.2.58.36.82.53,4.69,3,7.94,6.65,9.68,10.82l.56,0c5.79.18,10.08,3.91,11.57,10.07l.14.61,0,.61c.05,1.18.12,11.81-13.25,21.85q-2,1.58-4.22,3a9.05,9.05,0,0,1-3.92,5.72,8.92,8.92,0,0,1-5.16,1.59h0a10.82,10.82,0,0,1-3.23-.51l-.92-.24-.57-.17-.53-.28a7.19,7.19,0,0,1-1.22-.79l-.34-.19-.34-.33a12.09,12.09,0,0,1-3.85.62,9,9,0,0,1-7-3l-.78-.68c-.4.2-.79.39-1.19.56l-.55.22c-1.15.64-2.6,1.45-3.51,2l-.43.25-.55.33-.09,0a29.66,29.66,0,0,1-3.6,1.74l-.15.09a8.8,8.8,0,0,1-2.11,4.15A9.88,9.88,0,0,1,243.86,208.3Z"/><path class="cls-3" d="M208,151.76s-6.86-5.18-1.54-9.85c0,0-.52-.79,1.3-.88a25.13,25.13,0,0,1,5.32-1.59c2.24-.28,5.37-3.26,5.37-3.26a6.49,6.49,0,0,1,8-.75c4.67,2.75,15.42,7,27.46,8.07s38.06,6.93,37.5,22.19c0,0,8.73-5,10.84,3.77,0,0,.38,8.7-11.84,17.29l-4.25,2.9s-1.92,1-1.18,2.62c0,0-.77,4.69-5.85,1.75,0,0-1.78-1.68,3.54-4.68l3.88-3.19s-4.09,3.19-11.79,4.66c0,0-2.52,4.23-6.19,1.08a2.82,2.82,0,0,1,.94-3.25s-1.82-2.31,1.24-3.21c0,0,9.19.55,11.41-2.5a8,8,0,0,1-4.22-3s-6.33,2.47-11.33,2.24c0,0-2.28,6.41-6.9,8.32,0,0-3.39,1.34-3.71,1.79a22.68,22.68,0,0,1-4.93,2.72c-1.08.36-4.2,2.36-4,4.21s-2.45,4-6.3,1.79c0,0-1.58-3.05,1.68-3.54,0,0,1.71-.56,2-1.29,0,0,5.7-4,5.88-5.11,0,0-8.51,3.11-13.93,3.22a2.5,2.5,0,0,0-2.34,1.29s-2.87,2.84-5-.73c0,0,.31-2.66,3.64-3l15-3.64s-3-.52-3.67-.17-5.49-.63-5.49-.63-.95,0-1.23.56-3.92,2.31-3.74-1.79a5.06,5.06,0,0,1,2.59-1.78c1.57-.39,5.14.38,5.14.38l12.84.42s3.46-3.53,3.46-4.76l-10.63-5.66s-7.46-4.06-7.94-4c0,0-3.75,5.77-.74,5.11,0,0,3.92.69.87,4.3,0,0-3.39,1.22-3.39-2.59a8.24,8.24,0,0,0-4.86,1.08c-2.21,1.4-5.88,3.78-7.25,3.75,0,0-.9,0-1.29,1.5s-4.56,2-4.86-.43c0,0-.89-1.28,5.08-3.47l4.6-2.69s-2,.73-11,1.1c0,0-1.63,3.08-4.06,1,0,0-1.58-2.4,2.24-4a34.28,34.28,0,0,1,6.65-.67c2.36.16,9.59-.21,11.76-7.12,0,0-3.34-3.15-5.39-5.48s-8.73-4.8-8.73-4.8S211.65,154.56,208,151.76Z"/><circle class="cls-4" cx="227.94" cy="145.71" r="4.94"/><path class="cls-5" d="M224.4,144.49a3.39,3.39,0,0,1,4.34-.86,4.2,4.2,0,0,1,2.74,3.92,4.29,4.29,0,0,1-4.39.45A5.21,5.21,0,0,1,224.4,144.49Z"/><circle class="cls-2" cx="230.28" cy="144.98" r="1.16"/><ellipse class="cls-5" cx="209.99" cy="144.05" rx="1.15" ry="0.7"/><path class="cls-6" d="M245.44,167a18,18,0,0,0,4.34,1.39,28.69,28.69,0,0,0,4.43.46c1.49.07,3,0,4.52,0,.76-.05,1.54-.08,2.32-.11s1.56-.1,2.37-.07a21.52,21.52,0,0,1-2.17,1c-.76.26-1.52.51-2.3.7a18.45,18.45,0,0,1-4.81.48,14.66,14.66,0,0,1-4.8-1A8.41,8.41,0,0,1,245.44,167Z"/><path class="cls-7" d="M252.12,161.62s13.54-1,16.73,4c0,0,1.78,2.14,0,7.88l-2.63,9.27s-1.85,6.09-6,7.28c0,0-4.44,2.46-5.84,3.29,0,0-7.94,3-7.56,6.26,0,0-.17,3.43-5.46,1.89,0,0-2.86-1.82.27-3.85a5.42,5.42,0,0,0,2.22-1l6.66-5.72s-4.42,2.23-15.3,3.42a3.93,3.93,0,0,0-1.39,1.4,2.88,2.88,0,0,1-4.28.11,2.48,2.48,0,0,1,.75-3.31,13.8,13.8,0,0,1,4.51-1.31l14-3.29a14.59,14.59,0,0,0,4.84-2.67,15.8,15.8,0,0,0,5-6.92s1.76-6.08,1.46-9"/><path class="cls-7" d="M253.63,185.24s-12.11,0-13.42-.66-7-.82-7,2.7c0,0,.4,3.06,4.92.07a4,4,0,0,1,2.15.54l7.86.13"/><path class="cls-6" d="M206.77,150.65a11.37,11.37,0,0,1,4.19.06,17.76,17.76,0,0,1,2,.63l1.93.7,7.64,2.83c1.27.49,2.54.94,3.82,1.38s2.55.85,3.83,1.24a17,17,0,0,0,3.85.74,2,2,0,0,0,1.58-.48,2.3,2.3,0,0,0,.1-1.84,2.34,2.34,0,0,1,.38,2.11,1.77,1.77,0,0,1-.88.85,4.71,4.71,0,0,1-1.11.34,14.06,14.06,0,0,1-4.26-.2,47.88,47.88,0,0,1-8-2.26,81.93,81.93,0,0,1-7.57-3.28c-.61-.31-1.23-.61-1.83-.93a19.86,19.86,0,0,0-1.78-.9A16.61,16.61,0,0,0,206.77,150.65Z"/><path class="cls-6" d="M229.24,139.55a7.22,7.22,0,0,1,3,.57,6.53,6.53,0,0,1,2.54,1.94,6.12,6.12,0,0,1,1.27,3.05,8.19,8.19,0,0,1,.07,1.64c0,.53-.14,1.06-.22,1.58v0l0,0a7.49,7.49,0,0,1-1.62,2.7,6.51,6.51,0,0,1-5.58,2.09,8.24,8.24,0,0,1-1.43-.3,14.07,14.07,0,0,1-1.32-.55l1.4,0a11.52,11.52,0,0,0,1.33-.13,6.89,6.89,0,0,0,2.38-.79,6,6,0,0,0,1.8-1.56,7.34,7.34,0,0,0,1.13-2.06l0,.08c.06-.44.16-.88.2-1.31a7.69,7.69,0,0,0,0-1.27,5.2,5.2,0,0,0-.68-2.38,6.41,6.41,0,0,0-1.73-2A11.18,11.18,0,0,0,229.24,139.55Z"/><path class="cls-8" d="M287.07,161.59s-10.21,1-10.07,14.17c0,0,.56,11.48,13.92,5.25,0,0,3-1.47,7.56-7.77"/><path class="cls-7" d="M286.16,172.78s.35-6,9.1-8.57c0,0,9-.49,6,9.59,0,0-2.38,8.12-15.12,15.85a2.17,2.17,0,0,0-1.16,2.27s.23,4.2-5.23,2.57c0,0-2.14-1.07.38-3.54l6.4-4.8s-7.9,4-10.91,4.48c0,0-1.32.55-1.65,1.48s-6.81,2.57-5.32-2.75c0,0,1.09-1.88,4.23-1.53s11.24-3.22,11.8-4.48"/><path class="cls-9" d="M269.31,188.5s-1.6-2.09,1.46-3.22c0,0,8.33.73,11.39-2.35"/><path class="cls-6" d="M287.28,161.73a10.1,10.1,0,0,0-4.6,1.86,10.6,10.6,0,0,0-3.08,3.68,17.71,17.71,0,0,0-1.62,9.4,6.49,6.49,0,0,0,1.93,3.89,6.75,6.75,0,0,0,4.07,1.62,10.93,10.93,0,0,0,4.65-.63,9.62,9.62,0,0,0,4-2.51l.06-.06h0c1-.88,2-1.79,3-2.74.49-.48,1-1,1.42-1.46a8,8,0,0,0,1.19-1.64,7,7,0,0,1-.88,1.87c-.38.58-.77,1.16-1.2,1.7a38.36,38.36,0,0,1-2.7,3.15l.05-.07a10.39,10.39,0,0,1-4.31,3.29,12.3,12.3,0,0,1-5.38,1,8.55,8.55,0,0,1-5.27-2,8.19,8.19,0,0,1-2.52-5.09,17.42,17.42,0,0,1,2.33-10.37,10.69,10.69,0,0,1,3.84-3.69,9.39,9.39,0,0,1,2.47-.94A8.35,8.35,0,0,1,287.28,161.73Z"/><path class="cls-7" d="M232.73,167.64s-3,6.46-7.82,6.65a74.11,74.11,0,0,1-7.79.56c-4,.05-6.67,2.29-4.52,5.09a2.73,2.73,0,0,0,3.54-1.52s9.52-.07,11.66-1.38L218,182.5s-2,2.75,2.85,2.52a2.17,2.17,0,0,0,1.77-2.09,4.09,4.09,0,0,1,1.86-.71l7.89-4.34s3-.79,3.71-.18c0,0-.4,3.31,2.63,2.61,0,0,4.39-2.68-.44-4.44,0,0-1.28.43-1.28-1.21l2.1-3.68"/><path class="cls-7" d="M277.94,179.92s-4.16,2.42-11.33,2.24"/><path class="cls-7" d="M257.6,180.5s-7.93-3.94-10.34-5.47S234.51,168.73,232,167s-5.56-7.73-12.8-9.34-13.5-8-13.5-8-3.27-4.88.71-7.71c0,0-.22-1,1.47-.82a18.09,18.09,0,0,1,5.25-1.65c2.42-.23,5.69-3.6,5.69-3.6s2.69-3.36,8.13-.23c0,0,8.43,5.58,25.08,7.62s39.84,7.69,39.35,22.46"/><path class="cls-10" d="M214.45,154.15s16.63,6.53,18.43,6.38c0,0,10.09,9.83,23.95,14.23l1.61.44-1.17,4s-24.07-12.62-24.39-13.57-.32.07-.32.07S233.22,161.85,214.45,154.15Z"/><path class="cls-10" d="M268.45,177.81l-.77,3.57s6.31.28,8.85-1.84a9.53,9.53,0,0,1-.54-4.37S272.24,179,268.45,177.81Z"/><path class="cls-10" d="M215.14,140.22l3.89-3.08a5.08,5.08,0,0,1,6.45-1.36l3.45,1.91-3.78-1.5s-3.55-1.47-5.57,1.65Z"/><path class="cls-10" d="M289.76,169s10-8.5,10.92,2.42c0,0-.64,4.18-2.41,6,0,0,2.7-7.92.21-9C298.48,168.42,295.84,165.88,289.76,169Z"/><path class="cls-10" d="M257.12,162.66s13.49-.44,11.33,8.47l-1.35,5.21S271.35,163.13,257.12,162.66Z"/><path class="cls-11" d="M236.44,141.1s10.7,3.92,18.85,3.88,34,8.44,33.66,16.21c0,0-9.46-12.2-33.66-15C255.29,146.15,243.85,145.13,236.44,141.1Z"/><path class="cls-12" d="M207.41,142.86s-4.37,3.63,0,7C207.41,149.9,204.07,146.93,207.41,142.86Z"/><path class="cls-12" d="M222,145.71s1,7.56,8,5.44C230.07,151.15,222.9,154.26,222,145.71Z"/><path class="cls-13" d="M278.15,171.6s-1.62,15.4,12,8.9C290.12,180.5,278.49,185.59,278.15,171.6Z"/><path class="cls-12" d="M224,175.49s6.66-.55,9.21-6.6l1.69.75S229.75,176.27,224,175.49Z"/><path class="cls-10" d="M211.27,143.79s.32,1-1.28,1.16C210,145,211.75,145.21,211.27,143.79Z"/><path class="cls-1" d="M132,213.63a11.62,11.62,0,0,1-2.41-.26,14.81,14.81,0,0,1-1.83-.43l-.9-.26-.79-.51c-.15-.1-.38-.26-.66-.47l-1.33-.76-.87-1.67a9,9,0,0,1-.62-1.19,8.92,8.92,0,0,1-2.73.43,9.6,9.6,0,0,1-6.3-2.45l-.86-.73-.55-1a5.53,5.53,0,0,1-.34-.69,2.13,2.13,0,0,1-.16-.25l-1.09-1.86.25-2.14a9.31,9.31,0,0,1,.63-2.33,7.5,7.5,0,0,1,.37-.93,10.14,10.14,0,0,1-3.89.75,8.78,8.78,0,0,1-6.75-2.94l-.15-.14-.3-.42a6.91,6.91,0,0,1-.54-.86l-.22-.42-.2-.48a8.85,8.85,0,0,1-1.56-.49l-1.55-.67-.77-1-.52-.45-.49-.76a8.61,8.61,0,0,1-.73-7.92c1.49-4,5.68-6.48,11-6.55.47,0,1,0,1.42,0s.91-.06,1.35-.07c2.09-.13,3.79-.34,4.17-.39-.42-.44-.8-.85-1.14-1.24-.2-.18-.4-.36-.61-.53a28.11,28.11,0,0,0-4.7-2.39,32.63,32.63,0,0,1-11.92-5.9c-.57-.37-1.07-.72-1.51-1.06a16.45,16.45,0,0,1-2-1.77l-.18-.2c-.51-.47-.79-.76-.79-.76l-.43-.44-.36-.53A14.68,14.68,0,0,1,87.24,156a11.28,11.28,0,0,1-.85-7.17A10.52,10.52,0,0,1,89,143.68a7.14,7.14,0,0,1,3.82-3.18,6.94,6.94,0,0,1,1.09-.31l.36-.07c.74-.29,1.87-.7,3.1-1.05a19,19,0,0,1,2-.48l.64-.11a12.18,12.18,0,0,0,2.1-1.57c.16-.15.4-.37.71-.63a11.44,11.44,0,0,1,7.93-3.07,15.12,15.12,0,0,1,7.55,2.19l.16.09.16.1h0a29.15,29.15,0,0,0,3.25,1.65,67.46,67.46,0,0,0,7.16,2.58A76.66,76.66,0,0,0,141,142.21c.82.1,1.67.22,2.53.34,8.88.89,21.44,3.75,30.23,9.13l.24.15.83.52c4.69,3,7.94,6.66,9.67,10.82l.56.05c5.79.17,10.08,3.91,11.57,10.07l.14.6,0,.62c.05,1.18.12,11.81-13.25,21.85q-2,1.57-4.22,3a9.35,9.35,0,0,1-9.08,7.32h0a10.87,10.87,0,0,1-3.23-.51c-.29-.07-.59-.15-.92-.25l-.57-.17-.53-.27a8.39,8.39,0,0,1-1.22-.79l-.34-.19-.34-.33a12.38,12.38,0,0,1-3.85.62,9,9,0,0,1-6.95-3l-.79-.69a11.66,11.66,0,0,1-1.19.56l-.54.23c-1.15.64-2.61,1.45-3.51,2l-.44.25-.54.33-.1,0a33,33,0,0,1-3.6,1.74l-.15.09a8.71,8.71,0,0,1-2.11,4.15A9.85,9.85,0,0,1,132,213.63Z"/><path class="cls-2" d="M126.65,208.3a11.69,11.69,0,0,1-2.41-.26,17.44,17.44,0,0,1-1.83-.42l-.9-.27-.79-.51a7.77,7.77,0,0,1-.65-.47l-1.34-.76-.86-1.67a9.09,9.09,0,0,1-.63-1.19,8.87,8.87,0,0,1-2.73.43,9.6,9.6,0,0,1-6.3-2.45l-.85-.73-.56-1c-.08-.16-.21-.39-.34-.69l-.16-.26-1.09-1.86.26-2.14a8.76,8.76,0,0,1,.62-2.33,7.5,7.5,0,0,1,.37-.93,10.12,10.12,0,0,1-3.88.75,8.82,8.82,0,0,1-6.76-2.93l-.15-.15-.3-.42c-.19-.27-.37-.56-.54-.86l-.22-.42-.2-.48a8.69,8.69,0,0,1-1.55-.49l-1.56-.67-.76-1-.52-.45-.5-.75a8.61,8.61,0,0,1-.73-7.92c1.49-4,5.68-6.49,11-6.55l1.42,0c.46,0,.92-.06,1.35-.07,2.1-.13,3.8-.34,4.17-.39q-.63-.66-1.14-1.23l-.61-.54a28.21,28.21,0,0,0-4.7-2.38,33,33,0,0,1-11.92-5.9c-.57-.38-1.07-.73-1.51-1.07a17.33,17.33,0,0,1-2-1.77l-.18-.19c-.5-.47-.79-.76-.79-.76l-.43-.45-.36-.53a15.76,15.76,0,0,1-1.26-2.43,11.39,11.39,0,0,1-.85-7.18,10.49,10.49,0,0,1,2.58-5.17,7.15,7.15,0,0,1,3.82-3.19,6.94,6.94,0,0,1,1.09-.31l.36-.07a32.48,32.48,0,0,1,3.1-1,18.61,18.61,0,0,1,2-.49l.63-.11a12.23,12.23,0,0,0,2.11-1.57c.15-.15.39-.37.7-.63a11.46,11.46,0,0,1,7.93-3.07,15.18,15.18,0,0,1,7.56,2.19l.16.09.15.1h0a27.13,27.13,0,0,0,3.25,1.65,67.46,67.46,0,0,0,7.16,2.58,76.78,76.78,0,0,0,11.95,2.4l2.52.33c8.88.89,21.44,3.75,30.23,9.13l.24.15c.33.2.58.36.83.53,4.69,3,7.94,6.65,9.67,10.82l.57,0c5.78.18,10.08,3.91,11.56,10.07l.15.61,0,.61c.05,1.18.12,11.81-13.25,21.85-1.32,1.05-2.74,2.06-4.22,3a9.35,9.35,0,0,1-9.08,7.31h0a10.81,10.81,0,0,1-3.22-.51l-.92-.24-.57-.17-.53-.28a7.18,7.18,0,0,1-1.23-.79l-.33-.19-.34-.33a12.09,12.09,0,0,1-3.85.62,9,9,0,0,1-7-3l-.79-.68c-.39.2-.79.39-1.19.56l-.54.22c-1.15.64-2.6,1.45-3.51,2l-.44.25-.54.33-.1,0a29,29,0,0,1-3.6,1.74l-.14.09a8.82,8.82,0,0,1-2.12,4.15A9.84,9.84,0,0,1,126.65,208.3Z"/><path class="cls-3" d="M90.76,151.76s-6.86-5.18-1.54-9.85c0,0-.51-.79,1.31-.88a25.13,25.13,0,0,1,5.32-1.59c2.24-.28,5.36-3.26,5.36-3.26a6.5,6.5,0,0,1,8-.75c4.66,2.75,15.41,7,27.45,8.07s38.07,6.93,37.51,22.19c0,0,8.73-5,10.84,3.77,0,0,.38,8.7-11.84,17.29l-4.25,2.9s-1.92,1-1.19,2.62c0,0-.77,4.69-5.84,1.75,0,0-1.79-1.68,3.53-4.68l3.89-3.19s-4.1,3.19-11.8,4.66c0,0-2.52,4.23-6.19,1.08a2.82,2.82,0,0,1,1-3.25s-1.82-2.31,1.24-3.21c0,0,9.18.55,11.4-2.5a8,8,0,0,1-4.21-3s-6.34,2.47-11.34,2.24c0,0-2.27,6.41-6.89,8.32,0,0-3.4,1.34-3.71,1.79a22.92,22.92,0,0,1-4.93,2.72c-1.09.36-4.2,2.36-4,4.21s-2.45,4-6.3,1.79c0,0-1.57-3.05,1.68-3.54,0,0,1.72-.56,2-1.29,0,0,5.71-4,5.88-5.11,0,0-8.5,3.11-13.92,3.22a2.52,2.52,0,0,0-2.35,1.29s-2.87,2.84-5-.73a3.74,3.74,0,0,1,3.64-3l15-3.64s-3-.52-3.68-.17-5.49-.63-5.49-.63-.94,0-1.22.56-3.92,2.31-3.75-1.79a5.11,5.11,0,0,1,2.59-1.78c1.58-.39,5.14.38,5.14.38l12.85.42s3.46-3.53,3.46-4.76l-10.64-5.66s-7.45-4.06-7.94-4c0,0-3.74,5.77-.73,5.11,0,0,3.91.69.87,4.3,0,0-3.39,1.22-3.39-2.59a8.28,8.28,0,0,0-4.87,1.08c-2.2,1.4-5.88,3.78-7.24,3.75,0,0-.91,0-1.29,1.5s-4.56,2-4.87-.43c0,0-.88-1.28,5.09-3.47l4.59-2.69s-2,.73-11,1.1c0,0-1.64,3.08-4.06,1,0,0-1.59-2.4,2.24-4a34.24,34.24,0,0,1,6.64-.67c2.36.16,9.59-.21,11.76-7.12,0,0-3.33-3.15-5.39-5.48s-8.72-4.8-8.72-4.8S94.44,154.56,90.76,151.76Z"/><circle class="cls-4" cx="110.72" cy="145.71" r="4.94"/><path class="cls-5" d="M107.18,144.49a3.41,3.41,0,0,1,4.35-.86,4.2,4.2,0,0,1,2.74,3.92,4.31,4.31,0,0,1-4.4.45A5.21,5.21,0,0,1,107.18,144.49Z"/><circle class="cls-2" cx="113.07" cy="144.98" r="1.16"/><ellipse class="cls-5" cx="92.78" cy="144.05" rx="1.15" ry="0.7"/><path class="cls-6" d="M128.22,167a18,18,0,0,0,4.35,1.39,28.56,28.56,0,0,0,4.43.46c1.49.07,3,0,4.52,0,.76-.05,1.53-.08,2.31-.11s1.56-.1,2.38-.07a21.69,21.69,0,0,1-2.18,1c-.75.26-1.52.51-2.29.7a18.53,18.53,0,0,1-4.82.48,14.77,14.77,0,0,1-4.8-1A8.46,8.46,0,0,1,128.22,167Z"/><path class="cls-7" d="M134.91,161.62s13.54-1,16.72,4c0,0,1.79,2.14,0,7.88L149,182.76s-1.86,6.09-5.95,7.28c0,0-4.45,2.46-5.84,3.29,0,0-7.95,3-7.56,6.26,0,0-.18,3.43-5.46,1.89,0,0-2.87-1.82.26-3.85a5.42,5.42,0,0,0,2.22-1l6.67-5.72s-4.43,2.23-15.31,3.42a4,4,0,0,0-1.38,1.4,2.89,2.89,0,0,1-4.29.11,2.48,2.48,0,0,1,.76-3.31,13.8,13.8,0,0,1,4.51-1.31l14-3.29a14.69,14.69,0,0,0,4.85-2.67,16,16,0,0,0,4.95-6.92s1.75-6.08,1.45-9"/><path class="cls-7" d="M136.42,185.24s-12.12,0-13.42-.66-7-.82-7,2.7c0,0,.4,3.06,4.93.07a4,4,0,0,1,2.14.54L131,188"/><path class="cls-6" d="M89.56,150.65a11.37,11.37,0,0,1,4.19.06,18.41,18.41,0,0,1,2,.63l1.92.7,7.65,2.83c1.26.49,2.54.94,3.81,1.38s2.56.85,3.84,1.24a17,17,0,0,0,3.84.74,2,2,0,0,0,1.59-.48,2.3,2.3,0,0,0,.1-1.84,2.34,2.34,0,0,1,.38,2.11,1.75,1.75,0,0,1-.89.85,4.5,4.5,0,0,1-1.1.34,14.12,14.12,0,0,1-4.27-.2,48,48,0,0,1-8-2.26,81.93,81.93,0,0,1-7.57-3.28c-.61-.31-1.23-.61-1.84-.93a18.61,18.61,0,0,0-1.78-.9A16.4,16.4,0,0,0,89.56,150.65Z"/><path class="cls-6" d="M112,139.55a7.17,7.17,0,0,1,3,.57,6.46,6.46,0,0,1,2.54,1.94,6.23,6.23,0,0,1,1.28,3.05,9,9,0,0,1,.07,1.64c0,.53-.14,1.06-.22,1.58v.08a7.66,7.66,0,0,1-1.63,2.7,6.39,6.39,0,0,1-2.58,1.74,6.47,6.47,0,0,1-3,.35,8.33,8.33,0,0,1-1.42-.3,13,13,0,0,1-1.32-.55l1.39,0a11.48,11.48,0,0,0,1.34-.13,6.84,6.84,0,0,0,2.37-.79,5.91,5.91,0,0,0,1.81-1.56,7.89,7.89,0,0,0,1.13-2.06l0,.08c0-.44.15-.88.19-1.31a7.71,7.71,0,0,0,0-1.27,5.2,5.2,0,0,0-.68-2.38,6.45,6.45,0,0,0-1.74-2A10.89,10.89,0,0,0,112,139.55Z"/><path class="cls-8" d="M169.86,161.59s-10.22,1-10.08,14.17c0,0,.56,11.48,13.93,5.25,0,0,3-1.47,7.56-7.77"/><path class="cls-7" d="M169,172.78s.35-6,9.1-8.57c0,0,8.95-.49,6,9.59,0,0-2.38,8.12-15.12,15.85a2.19,2.19,0,0,0-1.17,2.27s.24,4.2-5.22,2.57c0,0-2.15-1.07.37-3.54l6.41-4.8s-7.91,4-10.91,4.48c0,0-1.33.55-1.66,1.48s-6.81,2.57-5.31-2.75c0,0,1.08-1.88,4.23-1.53s11.23-3.22,11.79-4.48"/><path class="cls-9" d="M152.1,188.5s-1.6-2.09,1.46-3.22c0,0,8.32.73,11.38-2.35"/><path class="cls-6" d="M170.07,161.73a10.06,10.06,0,0,0-4.6,1.86,10.52,10.52,0,0,0-3.09,3.68,16.28,16.28,0,0,0-1.46,4.62,15.75,15.75,0,0,0-.16,4.78,6.49,6.49,0,0,0,1.93,3.89,6.76,6.76,0,0,0,4.08,1.62,10.87,10.87,0,0,0,4.64-.63,9.72,9.72,0,0,0,4-2.51l.06-.06h0c1-.88,2-1.79,3-2.74.48-.48,1-1,1.41-1.46a8,8,0,0,0,1.2-1.64,7,7,0,0,1-.89,1.87,19.92,19.92,0,0,1-1.19,1.7,40.53,40.53,0,0,1-2.71,3.15l.06-.07a10.36,10.36,0,0,1-4.32,3.29,12.26,12.26,0,0,1-5.37,1,8.6,8.6,0,0,1-5.28-2,8.17,8.17,0,0,1-2.51-5.09,15.38,15.38,0,0,1,.36-5.39,15.69,15.69,0,0,1,2-5,10.8,10.8,0,0,1,3.85-3.69,9.26,9.26,0,0,1,2.47-.94A8.35,8.35,0,0,1,170.07,161.73Z"/><path class="cls-7" d="M115.51,167.64s-3,6.46-7.81,6.65a74.4,74.4,0,0,1-7.79.56c-4,.05-6.68,2.29-4.53,5.09a2.74,2.74,0,0,0,3.55-1.52s9.51-.07,11.66-1.38l-9.84,5.46s-2,2.75,2.84,2.52a2.17,2.17,0,0,0,1.77-2.09,4.15,4.15,0,0,1,1.87-.71l7.88-4.34s3-.79,3.72-.18c0,0-.4,3.31,2.63,2.61,0,0,4.38-2.68-.44-4.44,0,0-1.29.43-1.29-1.21l2.1-3.68"/><path class="cls-7" d="M160.73,179.92s-4.17,2.42-11.34,2.24"/><path class="cls-7" d="M140.38,180.5S132.46,176.56,130,175s-12.75-6.3-15.22-8.05-5.56-7.73-12.8-9.34-13.51-8-13.51-8-3.26-4.88.71-7.71c0,0-.22-1,1.48-.82A18,18,0,0,1,96,139.44c2.41-.23,5.68-3.6,5.68-3.6s2.7-3.36,8.14-.23c0,0,8.42,5.58,25.08,7.62s39.84,7.69,39.35,22.46"/><path class="cls-10" d="M97.23,154.15s16.63,6.53,18.44,6.38c0,0,10.09,9.83,24,14.23l1.61.44-1.17,4S116,166.54,115.67,165.59s-.33.07-.33.07S116,161.85,97.23,154.15Z"/><path class="cls-10" d="M151.23,177.81l-.76,3.57s6.31.28,8.85-1.84a9.53,9.53,0,0,1-.54-4.37S155,179,151.23,177.81Z"/><path class="cls-10" d="M97.93,140.22l3.88-3.08a5.09,5.09,0,0,1,6.46-1.36l3.44,1.91-3.77-1.5s-3.56-1.47-5.58,1.65Z"/><path class="cls-10" d="M172.54,169s10-8.5,10.93,2.42c0,0-.64,4.18-2.41,6,0,0,2.7-7.92.21-9C181.27,168.42,178.63,165.88,172.54,169Z"/><path class="cls-10" d="M139.91,162.66s13.48-.44,11.32,8.47l-1.35,5.21S154.14,163.13,139.91,162.66Z"/><path class="cls-11" d="M119.23,141.1s10.7,3.92,18.85,3.88,33.95,8.44,33.65,16.21c0,0-9.46-12.2-33.65-15C138.08,146.15,126.64,145.13,119.23,141.1Z"/><path class="cls-12" d="M90.19,142.86s-4.36,3.63,0,7C90.19,149.9,86.86,146.93,90.19,142.86Z"/><path class="cls-12" d="M104.82,145.71s1,7.56,8,5.44C112.85,151.15,105.69,154.26,104.82,145.71Z"/><path class="cls-13" d="M160.93,171.6s-1.61,15.4,12,8.9C172.91,180.5,161.27,185.59,160.93,171.6Z"/><path class="cls-12" d="M106.81,175.49s6.67-.55,9.21-6.6l1.69.75S112.53,176.27,106.81,175.49Z"/><path class="cls-10" d="M94.06,143.79s.32,1-1.28,1.16C92.78,145,94.54,145.21,94.06,143.79Z"/></svg>