<svg id="Layer_1" data-name="Layer 1" xmlns="http://www.w3.org/2000/svg" viewBox="0 0 512 512"><defs><style>.cls-1{opacity:0.5;}.cls-2{fill:#fff;}.cls-3,.cls-8{fill:#c03de0;}.cls-3{stroke:#9800a0;}.cls-11,.cls-3{stroke-miterlimit:10;}.cls-4{fill:#084441;opacity:0.12;}.cls-5{fill:#d338f9;}.cls-6{fill:#2d0a18;opacity:0.14;}.cls-7{opacity:0.2;}.cls-9{fill:#a531a8;}.cls-10{fill:#272932;}.cls-11{fill:#aa653f;stroke:#4c2c09;}.cls-12{fill:#e3a07a;}</style></defs><path class="cls-1" d="M434.66,246.82a78.75,78.75,0,0,1-22.91-3.27,31.39,31.39,0,0,1-7.29-3c-4.72-2.6-7.11-5.81-7.11-9.56-.05-1.63-1.43-16.58-2.44-27.49l-.41-4.45c-6-9.85-9.22-22.24-9.22-36a7.27,7.27,0,0,1,2.44-5.43c1.74-6.42,10.49-10.61,26.61-12.79l1.86-.23a163.06,163.06,0,0,1,36.95,0,93,93,0,0,1,13.46,2.51c3.42.93,13.11,3.59,15,10.54a7.24,7.24,0,0,1,2.41,5.4c0,13.66-3.16,26-9.17,35.86l-.24,2.67h0l0,.28c-1.19,12.86-2.54,27.43-2.59,29.15C472,242.52,449.09,246.82,434.66,246.82Z"/><path class="cls-2" d="M429.33,241.48a79,79,0,0,1-22.91-3.26,31,31,0,0,1-7.29-3c-4.72-2.6-7.12-5.81-7.12-9.56,0-1.63-1.43-16.58-2.44-27.5l-.41-4.44c-6-9.85-9.21-22.24-9.21-35.95a7.27,7.27,0,0,1,2.44-5.44c1.74-6.41,10.49-10.6,26.6-12.78l1.87-.24a164.62,164.62,0,0,1,36.95,0,94.4,94.4,0,0,1,13.46,2.51c3.41.94,13.11,3.59,15,10.54a7.28,7.28,0,0,1,2.41,5.41c0,13.66-3.17,26-9.17,35.85l-.25,2.67h0l0,.28c-1.19,12.86-2.53,27.43-2.58,29.14C466.65,237.19,443.76,241.48,429.33,241.48Z"/><path class="cls-3" d="M466.08,159c0-5-16.45-9.15-36.75-9.15s-36.75,4.1-36.75,9.15c0,4.15,5.83,63.63,5.83,66.71,0,3.9,13.84,9.42,30.92,9.42s30.92-5.52,30.92-9.42C460.25,222.58,466.08,163.1,466.08,159Z"/><path class="cls-4" d="M409,148.67c-9.75.93-16.26,5.08-16.05,9.73.19,4.1,5.68,63.95,5.82,67,.17,3.56,7,6.81,15.07,7.82Z"/><path class="cls-5" d="M458.34,152.22c-2.54-.58-6.58-1.07-9.7-1.46l-2.94,82.17a48.59,48.59,0,0,0,8.53-2.66Z"/><path class="cls-6" d="M463.51,189c-4.81,9.87-12.43,17.14-22.28,20.79h-1.17v-.51a1.5,1.5,0,0,0-1.49-1.5H417.86a1.5,1.5,0,0,0-1.5,1.5v.61h-1A39.23,39.23,0,0,1,395.62,194c.11,1.19.22,2.38.33,3.55a40.57,40.57,0,0,0,18.95,14l.15.05h1.31v.21a1.5,1.5,0,0,0,1.5,1.5h20.71a1.5,1.5,0,0,0,1.49-1.5v-.32h1.49l.14,0a41.31,41.31,0,0,0,21.41-18C463.24,192,463.37,190.45,463.51,189Z"/><path class="cls-7" d="M429.33,149.8c-20.3,0-36.75,4.1-36.75,9.15,0,.94.69,4.92,1.15,10.28,6.91,3.18,20,5.17,35.6,5.17s28.75-2,35.66-5.2c.47-5.35,1.09-9.31,1.09-10.25C466.08,153.9,449.63,149.8,429.33,149.8Z"/><path class="cls-3" d="M470.2,154.83c0-5.61-18.3-10.16-40.87-10.16s-40.86,4.55-40.86,10.16c0,1-.59,3.68-.59,4.7,0,5.62,18.88,10.17,41.45,10.17s41.45-4.55,41.45-10.17C470.78,158.51,470.2,155.85,470.2,154.83Z"/><ellipse class="cls-5" cx="429.33" cy="154.83" rx="40.87" ry="10.17"/><ellipse class="cls-8" cx="429.33" cy="154.83" rx="36.75" ry="9.14"/><path class="cls-9" d="M447.17,146.84l-.63,16.07.63-.09c11.28-1.56,18.91-4.55,18.91-8S458.45,148.4,447.17,146.84Z"/><path class="cls-9" d="M401.33,148.91c-5.45,1.6-8.75,3.66-8.75,5.92s4,4.54,9.48,6.13Z"/><path class="cls-10" d="M416.22,208.1l-.14-.06c-18.62-6.62-29.73-25.42-29.73-50.27a.88.88,0,1,1,1.76,0c0,24,10.62,42.15,28.42,48.56l25.87-.11c17.61-6.51,28.12-24.61,28.12-48.45a.88.88,0,1,1,1.76,0c0,24.68-11,43.43-29.41,50.16l-.15,0Z"/><rect class="cls-11" x="417.54" y="204.22" width="23.7" height="5.58" rx="2.11"/><path class="cls-12" d="M439.18,206.76h-.78a.49.49,0,0,1,0-1h.78a.49.49,0,1,1,0,1Z"/><path class="cls-12" d="M435.83,206.76H424.88a.49.49,0,0,1,0-1h10.95a.49.49,0,0,1,0,1Z"/><path class="cls-1" d="M317.34,246.82a78.75,78.75,0,0,1-22.91-3.27,31.39,31.39,0,0,1-7.29-3C282.42,238,280,234.74,280,231c0-1.63-1.43-16.58-2.44-27.49l-.41-4.45c-6-9.85-9.22-22.24-9.22-36a7.27,7.27,0,0,1,2.44-5.43c1.74-6.42,10.49-10.61,26.61-12.79l1.86-.23a163.06,163.06,0,0,1,36.95,0,93,93,0,0,1,13.46,2.51c3.42.93,13.11,3.59,15,10.54a7.24,7.24,0,0,1,2.41,5.4c0,13.66-3.16,26-9.17,35.86l-.24,2.67h0l0,.28c-1.19,12.86-2.54,27.43-2.59,29.15C354.66,242.52,331.77,246.82,317.34,246.82Z"/><path class="cls-2" d="M312,241.48a79,79,0,0,1-22.91-3.26,31,31,0,0,1-7.29-3c-4.72-2.6-7.12-5.81-7.12-9.56,0-1.63-1.43-16.58-2.44-27.5l-.41-4.44c-6-9.85-9.21-22.24-9.21-35.95a7.27,7.27,0,0,1,2.44-5.44c1.74-6.41,10.49-10.6,26.6-12.78l1.87-.24a164.62,164.62,0,0,1,36.95,0A94.4,94.4,0,0,1,344,141.82c3.41.94,13.11,3.59,15,10.54a7.28,7.28,0,0,1,2.41,5.41c0,13.66-3.17,26-9.17,35.85l-.25,2.67h0l0,.28c-1.19,12.86-2.53,27.43-2.58,29.14C349.33,237.19,326.44,241.48,312,241.48Z"/><path class="cls-3" d="M348.76,159c0-5-16.45-9.15-36.75-9.15s-36.75,4.1-36.75,9.15c0,4.15,5.83,63.63,5.83,66.71,0,3.9,13.84,9.42,30.92,9.42s30.92-5.52,30.92-9.42C342.93,222.58,348.76,163.1,348.76,159Z"/><path class="cls-4" d="M291.69,148.67c-9.75.93-16.26,5.08-16.05,9.73.19,4.1,5.68,63.95,5.82,67,.17,3.56,7,6.81,15.07,7.82Z"/><path class="cls-5" d="M341,152.22c-2.54-.58-6.58-1.07-9.7-1.46l-2.94,82.17a48.59,48.59,0,0,0,8.53-2.66Z"/><path class="cls-6" d="M346.19,189c-4.81,9.87-12.43,17.14-22.28,20.79h-1.17v-.51a1.5,1.5,0,0,0-1.49-1.5H300.54a1.5,1.5,0,0,0-1.5,1.5v.61h-1A39.23,39.23,0,0,1,278.3,194c.11,1.19.22,2.38.33,3.55a40.57,40.57,0,0,0,18.95,14l.15.05H299v.21a1.5,1.5,0,0,0,1.5,1.5h20.71a1.5,1.5,0,0,0,1.49-1.5v-.32h1.49l.14,0a41.31,41.31,0,0,0,21.41-18C345.92,192,346.05,190.45,346.19,189Z"/><path class="cls-7" d="M312,149.8c-20.3,0-36.75,4.1-36.75,9.15,0,.94.69,4.92,1.15,10.28,6.91,3.18,20,5.17,35.6,5.17s28.75-2,35.66-5.2c.47-5.35,1.09-9.31,1.09-10.25C348.76,153.9,332.31,149.8,312,149.8Z"/><path class="cls-3" d="M352.88,154.83c0-5.61-18.3-10.16-40.87-10.16s-40.86,4.55-40.86,10.16c0,1-.59,3.68-.59,4.7,0,5.62,18.88,10.17,41.45,10.17s41.45-4.55,41.45-10.17C353.46,158.51,352.88,155.85,352.88,154.83Z"/><ellipse class="cls-5" cx="312.01" cy="154.83" rx="40.87" ry="10.17"/><ellipse class="cls-8" cx="312.01" cy="154.83" rx="36.75" ry="9.14"/><path class="cls-9" d="M329.85,146.84l-.63,16.07.63-.09c11.28-1.56,18.91-4.55,18.91-8S341.13,148.4,329.85,146.84Z"/><path class="cls-9" d="M284,148.91c-5.45,1.6-8.75,3.66-8.75,5.92s4,4.54,9.48,6.13Z"/><path class="cls-10" d="M298.9,208.1l-.14-.06C280.14,201.42,269,182.62,269,157.77a.88.88,0,0,1,1.76,0c0,24,10.62,42.15,28.42,48.56l25.87-.11c17.61-6.51,28.12-24.61,28.12-48.45a.88.88,0,0,1,1.76,0c0,24.68-11,43.43-29.41,50.16l-.15,0Z"/><rect class="cls-11" x="300.22" y="204.22" width="23.7" height="5.58" rx="2.11"/><path class="cls-12" d="M321.86,206.76h-.78a.49.49,0,0,1,0-1h.78a.49.49,0,0,1,0,1Z"/><path class="cls-12" d="M318.51,206.76H307.56a.49.49,0,0,1,0-1h10.95a.49.49,0,0,1,0,1Z"/><path class="cls-1" d="M200,246.82a78.75,78.75,0,0,1-22.91-3.27,31.39,31.39,0,0,1-7.29-3c-4.72-2.6-7.11-5.81-7.11-9.56-.05-1.63-1.43-16.58-2.44-27.49l-.41-4.45c-6-9.85-9.22-22.24-9.22-36a7.27,7.27,0,0,1,2.44-5.43c1.74-6.42,10.49-10.61,26.61-12.79l1.86-.23a163.06,163.06,0,0,1,36.95,0A93,93,0,0,1,232,147.16c3.42.93,13.11,3.59,15,10.54a7.24,7.24,0,0,1,2.41,5.4c0,13.66-3.16,26-9.17,35.86l-.24,2.67h0l0,.28c-1.19,12.86-2.54,27.43-2.59,29.15C237.34,242.52,214.45,246.82,200,246.82Z"/><path class="cls-2" d="M194.69,241.48a79,79,0,0,1-22.91-3.26,31,31,0,0,1-7.29-3c-4.72-2.6-7.12-5.81-7.12-9.56,0-1.63-1.43-16.58-2.44-27.5l-.41-4.44c-6-9.85-9.21-22.24-9.21-35.95a7.27,7.27,0,0,1,2.44-5.44c1.74-6.41,10.49-10.6,26.6-12.78l1.87-.24a164.62,164.62,0,0,1,36.95,0,94.4,94.4,0,0,1,13.46,2.51c3.41.94,13.11,3.59,15,10.54a7.28,7.28,0,0,1,2.41,5.41c0,13.66-3.17,26-9.17,35.85l-.25,2.67h0l0,.28c-1.19,12.86-2.53,27.43-2.58,29.14C232,237.19,209.12,241.48,194.69,241.48Z"/><path class="cls-3" d="M231.44,159c0-5-16.45-9.15-36.75-9.15s-36.75,4.1-36.75,9.15c0,4.15,5.83,63.63,5.83,66.71,0,3.9,13.84,9.42,30.92,9.42s30.92-5.52,30.92-9.42C225.61,222.58,231.44,163.1,231.44,159Z"/><path class="cls-4" d="M174.37,148.67c-9.75.93-16.26,5.08-16.05,9.73.19,4.1,5.68,63.95,5.82,67,.17,3.56,7,6.81,15.07,7.82Z"/><path class="cls-5" d="M223.7,152.22c-2.54-.58-6.58-1.07-9.7-1.46l-2.94,82.17a48.59,48.59,0,0,0,8.53-2.66Z"/><path class="cls-6" d="M228.87,189c-4.81,9.87-12.43,17.14-22.28,20.79h-1.17v-.51a1.5,1.5,0,0,0-1.49-1.5H183.22a1.5,1.5,0,0,0-1.5,1.5v.61h-1A39.23,39.23,0,0,1,161,194c.11,1.19.22,2.38.33,3.55a40.57,40.57,0,0,0,18.95,14l.15.05h1.31v.21a1.5,1.5,0,0,0,1.5,1.5h20.71a1.5,1.5,0,0,0,1.49-1.5v-.32h1.49l.14,0a41.31,41.31,0,0,0,21.41-18C228.6,192,228.73,190.45,228.87,189Z"/><path class="cls-7" d="M194.69,149.8c-20.3,0-36.75,4.1-36.75,9.15,0,.94.69,4.92,1.15,10.28,6.91,3.18,20,5.17,35.6,5.17s28.75-2,35.66-5.2c.46-5.35,1.09-9.31,1.09-10.25C231.44,153.9,215,149.8,194.69,149.8Z"/><path class="cls-3" d="M235.56,154.83c0-5.61-18.3-10.16-40.87-10.16s-40.87,4.55-40.87,10.16c0,1-.58,3.68-.58,4.7,0,5.62,18.88,10.17,41.45,10.17s41.45-4.55,41.45-10.17C236.14,158.51,235.56,155.85,235.56,154.83Z"/><ellipse class="cls-5" cx="194.69" cy="154.83" rx="40.87" ry="10.17"/><ellipse class="cls-8" cx="194.69" cy="154.83" rx="36.75" ry="9.14"/><path class="cls-9" d="M212.53,146.84l-.63,16.07.63-.09c11.28-1.56,18.91-4.55,18.91-8S223.81,148.4,212.53,146.84Z"/><path class="cls-9" d="M166.69,148.91c-5.45,1.6-8.75,3.66-8.75,5.92s4,4.54,9.48,6.13Z"/><path class="cls-10" d="M181.58,208.1l-.14-.06c-18.62-6.62-29.73-25.42-29.73-50.27a.88.88,0,0,1,1.76,0c0,24,10.62,42.15,28.42,48.56l25.87-.11c17.61-6.51,28.12-24.61,28.12-48.45a.88.88,0,0,1,1.76,0c0,24.68-11,43.43-29.41,50.16l-.15,0Z"/><rect class="cls-11" x="182.9" y="204.22" width="23.7" height="5.58" rx="2.11"/><path class="cls-12" d="M204.54,206.76h-.78a.49.49,0,1,1,0-1h.78a.49.49,0,0,1,0,1Z"/><path class="cls-12" d="M201.19,206.76H190.24a.49.49,0,0,1,0-1h10.95a.49.49,0,0,1,0,1Z"/><path class="cls-1" d="M82.7,246.82a78.75,78.75,0,0,1-22.91-3.27,31.39,31.39,0,0,1-7.29-3c-4.72-2.6-7.11-5.81-7.11-9.56,0-1.63-1.43-16.58-2.44-27.49l-.41-4.45c-6-9.85-9.22-22.24-9.22-36a7.27,7.27,0,0,1,2.44-5.43c1.74-6.42,10.49-10.61,26.61-12.79l1.86-.23A155,155,0,0,1,82.7,143.6a155.14,155.14,0,0,1,18.48,1.05,93,93,0,0,1,13.46,2.51c3.42.93,13.11,3.59,15,10.54a7.24,7.24,0,0,1,2.41,5.4c0,13.66-3.16,26-9.17,35.86l-.24,2.67h0l0,.28c-1.19,12.86-2.54,27.43-2.59,29.15C120,242.52,97.13,246.82,82.7,246.82Z"/><path class="cls-2" d="M77.37,241.48a79,79,0,0,1-22.91-3.26,31,31,0,0,1-7.29-3c-4.72-2.6-7.12-5.81-7.12-9.56,0-1.63-1.43-16.58-2.44-27.5l-.41-4.44c-6-9.85-9.21-22.24-9.21-35.95a7.27,7.27,0,0,1,2.44-5.44c1.74-6.41,10.49-10.6,26.6-12.78l1.87-.24a157,157,0,0,1,18.47-1,157.33,157.33,0,0,1,18.48,1,94.4,94.4,0,0,1,13.46,2.51c3.41.94,13.1,3.59,15,10.54a7.28,7.28,0,0,1,2.41,5.41c0,13.66-3.17,26-9.17,35.85l-.25,2.67h0l0,.28c-1.19,12.86-2.53,27.43-2.58,29.14C114.69,237.19,91.8,241.48,77.37,241.48Z"/><path class="cls-3" d="M114.12,159c0-5-16.45-9.15-36.75-9.15S40.62,153.9,40.62,159c0,4.15,5.83,63.63,5.83,66.71,0,3.9,13.84,9.42,30.92,9.42s30.92-5.52,30.92-9.42C108.29,222.58,114.12,163.1,114.12,159Z"/><path class="cls-4" d="M57.05,148.67c-9.75.93-16.26,5.08-16,9.73.19,4.1,5.68,63.95,5.82,67,.17,3.56,7,6.81,15.07,7.82Z"/><path class="cls-5" d="M106.38,152.22c-2.54-.58-6.58-1.07-9.7-1.46l-2.94,82.17a48.19,48.19,0,0,0,8.52-2.66Z"/><path class="cls-6" d="M111.55,189c-4.81,9.87-12.43,17.14-22.28,20.79H88.1v-.51a1.5,1.5,0,0,0-1.49-1.5H65.9a1.5,1.5,0,0,0-1.5,1.5v.61h-1A39.23,39.23,0,0,1,43.66,194c.11,1.19.22,2.38.33,3.55a40.57,40.57,0,0,0,18.95,14l.15.05H64.4v.21a1.5,1.5,0,0,0,1.5,1.5H86.61a1.5,1.5,0,0,0,1.49-1.5v-.32h1.49l.14,0a41.31,41.31,0,0,0,21.41-18C111.28,192,111.41,190.45,111.55,189Z"/><path class="cls-7" d="M77.37,149.8c-20.3,0-36.75,4.1-36.75,9.15,0,.94.69,4.92,1.15,10.28,6.91,3.18,20,5.17,35.6,5.17s28.75-2,35.66-5.2c.46-5.35,1.09-9.31,1.09-10.25C114.12,153.9,97.67,149.8,77.37,149.8Z"/><path class="cls-3" d="M118.24,154.83c0-5.61-18.3-10.16-40.87-10.16S36.5,149.22,36.5,154.83c0,1-.58,3.68-.58,4.7,0,5.62,18.88,10.17,41.45,10.17s41.45-4.55,41.45-10.17C118.82,158.51,118.24,155.85,118.24,154.83Z"/><ellipse class="cls-5" cx="77.37" cy="154.83" rx="40.87" ry="10.17"/><ellipse class="cls-8" cx="77.37" cy="154.83" rx="36.75" ry="9.14"/><path class="cls-9" d="M95.21,146.84l-.63,16.07.63-.09c11.28-1.56,18.91-4.55,18.91-8S106.49,148.4,95.21,146.84Z"/><path class="cls-9" d="M49.37,148.91c-5.45,1.6-8.75,3.66-8.75,5.92s4,4.54,9.48,6.13Z"/><path class="cls-10" d="M64.26,208.1l-.14-.06c-18.62-6.62-29.73-25.42-29.73-50.27a.88.88,0,1,1,1.76,0c0,24,10.62,42.15,28.42,48.56l25.87-.11c17.61-6.51,28.12-24.61,28.12-48.45a.88.88,0,0,1,1.76,0c0,24.68-11,43.43-29.41,50.16l-.15,0Z"/><rect class="cls-11" x="65.58" y="204.22" width="23.7" height="5.58" rx="2.11"/><path class="cls-12" d="M87.22,206.76h-.78a.49.49,0,1,1,0-1h.78a.49.49,0,0,1,0,1Z"/><path class="cls-12" d="M83.87,206.76h-11a.49.49,0,0,1,0-1h11a.49.49,0,0,1,0,1Z"/><path class="cls-1" d="M370.67,373.73a78.71,78.71,0,0,1-22.91-3.26,31,31,0,0,1-7.29-3c-4.72-2.6-7.12-5.81-7.12-9.56,0-1.63-1.43-16.58-2.44-27.49L330.5,326c-6-9.85-9.21-22.24-9.21-36a7.23,7.23,0,0,1,2.44-5.43c1.74-6.42,10.49-10.61,26.6-12.79l1.87-.24a157,157,0,0,1,18.47-1,155.14,155.14,0,0,1,18.48,1.05,93,93,0,0,1,13.46,2.51c3.41.93,13.11,3.58,15,10.54A7.24,7.24,0,0,1,420,290c0,13.66-3.17,26-9.17,35.86l-.25,2.66h0l0,.28C409.38,341.69,408,356.26,408,358,408,369.44,385.1,373.73,370.67,373.73Z"/><path class="cls-2" d="M365.34,368.4a79.17,79.17,0,0,1-22.92-3.26,31.13,31.13,0,0,1-7.28-3c-4.73-2.6-7.12-5.82-7.12-9.57,0-1.62-1.43-16.57-2.44-27.49l-.41-4.44c-6-9.85-9.21-22.24-9.21-35.95a7.27,7.27,0,0,1,2.44-5.44c1.74-6.41,10.49-10.6,26.6-12.78l1.87-.24a163.06,163.06,0,0,1,36.95,0,94.4,94.4,0,0,1,13.46,2.51c3.41.94,13.1,3.59,15,10.54a7.28,7.28,0,0,1,2.41,5.41c0,13.65-3.17,26-9.18,35.85l-.24,2.67h0l0,.28c-1.19,12.86-2.54,27.43-2.58,29.14C402.66,364.1,379.77,368.4,365.34,368.4Z"/><path class="cls-3" d="M402.09,285.86c0-5.05-16.46-9.14-36.75-9.14s-36.75,4.09-36.75,9.14c0,4.15,5.83,63.64,5.83,66.71,0,3.91,13.84,9.43,30.92,9.43s30.92-5.52,30.92-9.43C396.26,349.5,402.09,290,402.09,285.86Z"/><path class="cls-4" d="M345,275.59c-9.75.93-16.27,5.08-16,9.73.19,4.1,5.68,63.95,5.82,67,.17,3.56,7,6.81,15.06,7.82Z"/><path class="cls-5" d="M394.35,279.14c-2.54-.58-6.58-1.07-9.7-1.46l-2.94,82.17a48.19,48.19,0,0,0,8.52-2.66Z"/><path class="cls-6" d="M399.52,315.88c-4.81,9.87-12.43,17.14-22.28,20.79h-1.17v-.51a1.5,1.5,0,0,0-1.5-1.5H353.86a1.5,1.5,0,0,0-1.49,1.5v.61h-1a39.25,39.25,0,0,1-19.74-15.84c.11,1.19.22,2.38.33,3.55a40.71,40.71,0,0,0,19,14l.15.05h1.31v.21a1.5,1.5,0,0,0,1.49,1.5h20.71a1.5,1.5,0,0,0,1.5-1.5v-.32h1.48l.15-.06a41.22,41.22,0,0,0,21.4-18Z"/><path class="cls-7" d="M365.34,276.72c-20.3,0-36.75,4.09-36.75,9.14,0,.95.68,4.93,1.15,10.29,6.9,3.18,20,5.17,35.6,5.17s28.75-2,35.66-5.2c.46-5.35,1.09-9.31,1.09-10.26C402.09,280.81,385.63,276.72,365.34,276.72Z"/><path class="cls-3" d="M406.2,281.75c0-5.61-18.29-10.17-40.86-10.17s-40.87,4.56-40.87,10.17c0,1-.59,3.68-.59,4.7,0,5.62,18.89,10.17,41.46,10.17s41.45-4.55,41.45-10.17C406.79,285.43,406.2,282.77,406.2,281.75Z"/><ellipse class="cls-5" cx="365.34" cy="281.75" rx="40.87" ry="10.17"/><ellipse class="cls-8" cx="365.34" cy="281.75" rx="36.75" ry="9.14"/><path class="cls-9" d="M383.18,273.76l-.63,16.07.63-.09c11.28-1.56,18.91-4.55,18.91-8S394.46,275.32,383.18,273.76Z"/><path class="cls-9" d="M337.34,275.83c-5.45,1.6-8.75,3.66-8.75,5.92s4,4.53,9.48,6.13Z"/><path class="cls-10" d="M352.23,335l-.14-.05c-18.62-6.62-29.73-25.42-29.73-50.27a.88.88,0,0,1,1.76,0c0,24,10.62,42.15,28.41,48.56l25.88-.11c17.61-6.51,28.11-24.61,28.11-48.45a.89.89,0,0,1,1.77,0c0,24.67-11,43.43-29.42,50.16l-.14,0Z"/><rect class="cls-11" x="353.54" y="331.14" width="23.7" height="5.58" rx="2.11"/><path class="cls-12" d="M375.19,333.68h-.78a.49.49,0,1,1,0-1h.78a.49.49,0,0,1,0,1Z"/><path class="cls-12" d="M371.83,333.68H360.89a.49.49,0,0,1,0-1h10.94a.49.49,0,1,1,0,1Z"/><path class="cls-1" d="M253.35,373.73a78.71,78.71,0,0,1-22.91-3.26,31,31,0,0,1-7.29-3c-4.72-2.6-7.12-5.81-7.12-9.56,0-1.63-1.43-16.58-2.44-27.49l-.41-4.45c-6-9.85-9.21-22.24-9.21-36a7.23,7.23,0,0,1,2.44-5.43c1.74-6.42,10.49-10.61,26.6-12.79l1.87-.24a157,157,0,0,1,18.47-1,155.14,155.14,0,0,1,18.48,1.05,93,93,0,0,1,13.46,2.51c3.41.93,13.11,3.58,15,10.54a7.24,7.24,0,0,1,2.41,5.4c0,13.66-3.17,26-9.17,35.86l-.25,2.66h0l0,.28c-1.19,12.86-2.53,27.43-2.58,29.15C290.67,369.44,267.78,373.73,253.35,373.73Z"/><path class="cls-2" d="M248,368.4a79.17,79.17,0,0,1-22.92-3.26,31.13,31.13,0,0,1-7.28-3c-4.73-2.6-7.12-5.82-7.12-9.57,0-1.62-1.43-16.57-2.44-27.49l-.41-4.44c-6-9.85-9.21-22.24-9.21-35.95a7.27,7.27,0,0,1,2.44-5.44c1.74-6.41,10.49-10.6,26.6-12.78l1.87-.24a163.06,163.06,0,0,1,36.95,0A94.4,94.4,0,0,1,280,268.74c3.41.94,13.1,3.59,15,10.54a7.28,7.28,0,0,1,2.41,5.41c0,13.65-3.17,26-9.18,35.85l-.24,2.67h0l0,.28c-1.19,12.86-2.54,27.43-2.58,29.14C285.34,364.1,262.45,368.4,248,368.4Z"/><path class="cls-3" d="M284.77,285.86c0-5.05-16.46-9.14-36.75-9.14s-36.75,4.09-36.75,9.14c0,4.15,5.83,63.64,5.83,66.71,0,3.91,13.84,9.43,30.92,9.43s30.92-5.52,30.92-9.43C278.94,349.5,284.77,290,284.77,285.86Z"/><path class="cls-4" d="M227.7,275.59c-9.75.93-16.27,5.08-16,9.73.19,4.1,5.68,63.95,5.82,67,.17,3.56,7,6.81,15.06,7.82Z"/><path class="cls-5" d="M277,279.14c-2.54-.58-6.58-1.07-9.7-1.46l-2.94,82.17a48.19,48.19,0,0,0,8.52-2.66Z"/><path class="cls-6" d="M282.2,315.88c-4.81,9.87-12.43,17.14-22.28,20.79h-1.17v-.51a1.5,1.5,0,0,0-1.5-1.5H236.54a1.5,1.5,0,0,0-1.49,1.5v.61h-1a39.25,39.25,0,0,1-19.74-15.84c.11,1.19.22,2.38.33,3.55a40.71,40.71,0,0,0,19,14l.15.05h1.31v.21a1.5,1.5,0,0,0,1.49,1.5h20.71a1.5,1.5,0,0,0,1.5-1.5v-.32h1.48l.15-.06a41.22,41.22,0,0,0,21.4-18Z"/><path class="cls-7" d="M248,276.72c-20.3,0-36.75,4.09-36.75,9.14,0,.95.68,4.93,1.15,10.29,6.9,3.18,20,5.17,35.6,5.17s28.75-2,35.66-5.2c.46-5.35,1.09-9.31,1.09-10.26C284.77,280.81,268.31,276.72,248,276.72Z"/><path class="cls-3" d="M288.88,281.75c0-5.61-18.29-10.17-40.86-10.17s-40.87,4.56-40.87,10.17c0,1-.59,3.68-.59,4.7,0,5.62,18.89,10.17,41.46,10.17s41.45-4.55,41.45-10.17C289.47,285.43,288.88,282.77,288.88,281.75Z"/><ellipse class="cls-5" cx="248.02" cy="281.75" rx="40.87" ry="10.17"/><ellipse class="cls-8" cx="248.02" cy="281.75" rx="36.75" ry="9.14"/><path class="cls-9" d="M265.86,273.76l-.64,16.07.64-.09c11.28-1.56,18.91-4.55,18.91-8S277.14,275.32,265.86,273.76Z"/><path class="cls-9" d="M220,275.83c-5.45,1.6-8.75,3.66-8.75,5.92s4,4.53,9.48,6.13Z"/><path class="cls-10" d="M234.91,335l-.14-.05C216.15,328.34,205,309.54,205,284.69a.88.88,0,1,1,1.76,0c0,24,10.62,42.15,28.41,48.56l25.88-.11c17.61-6.51,28.11-24.61,28.11-48.45a.89.89,0,0,1,1.77,0c0,24.67-11,43.43-29.42,50.16l-.14,0Z"/><rect class="cls-11" x="236.22" y="331.14" width="23.7" height="5.58" rx="2.11"/><path class="cls-12" d="M257.87,333.68h-.78a.49.49,0,1,1,0-1h.78a.49.49,0,0,1,0,1Z"/><path class="cls-12" d="M254.51,333.68H243.57a.49.49,0,0,1,0-1h10.94a.49.49,0,1,1,0,1Z"/><path class="cls-1" d="M136,373.73a78.71,78.71,0,0,1-22.91-3.26,31,31,0,0,1-7.29-3c-4.72-2.6-7.12-5.81-7.12-9.56,0-1.63-1.43-16.58-2.44-27.49L95.86,326c-6-9.85-9.21-22.24-9.21-36a7.23,7.23,0,0,1,2.44-5.43c1.74-6.42,10.49-10.61,26.6-12.79l1.87-.24a157,157,0,0,1,18.47-1,155.14,155.14,0,0,1,18.48,1.05A93,93,0,0,1,168,274.08c3.41.93,13.11,3.58,15,10.54a7.24,7.24,0,0,1,2.41,5.4c0,13.66-3.17,26-9.17,35.86l-.25,2.66h0l0,.28c-1.19,12.86-2.53,27.43-2.58,29.15C173.35,369.44,150.46,373.73,136,373.73Z"/><path class="cls-2" d="M130.7,368.4a79.17,79.17,0,0,1-22.92-3.26,31.13,31.13,0,0,1-7.28-3c-4.73-2.6-7.12-5.82-7.12-9.57,0-1.62-1.43-16.57-2.44-27.49l-.41-4.44c-6-9.85-9.21-22.24-9.21-35.95a7.27,7.27,0,0,1,2.44-5.44c1.74-6.41,10.49-10.6,26.6-12.78l1.87-.24a163.06,163.06,0,0,1,37,0,94.4,94.4,0,0,1,13.46,2.51c3.41.94,13.1,3.59,15,10.54a7.28,7.28,0,0,1,2.41,5.41c0,13.65-3.17,26-9.18,35.85l-.24,2.67h0l0,.28c-1.19,12.86-2.54,27.43-2.58,29.14C168,364.1,145.13,368.4,130.7,368.4Z"/><path class="cls-3" d="M167.45,285.86c0-5.05-16.46-9.14-36.75-9.14S94,280.81,94,285.86c0,4.15,5.83,63.64,5.83,66.71,0,3.91,13.84,9.43,30.92,9.43s30.92-5.52,30.92-9.43C161.62,349.5,167.45,290,167.45,285.86Z"/><path class="cls-4" d="M110.38,275.59c-9.76.93-16.27,5.08-16,9.73.19,4.1,5.68,63.95,5.82,67,.17,3.56,7,6.81,15.06,7.82Z"/><path class="cls-5" d="M159.71,279.14c-2.54-.58-6.58-1.07-9.7-1.46l-2.94,82.17a48.19,48.19,0,0,0,8.52-2.66Z"/><path class="cls-6" d="M164.88,315.88c-4.81,9.87-12.43,17.14-22.28,20.79h-1.17v-.51a1.5,1.5,0,0,0-1.5-1.5H119.22a1.5,1.5,0,0,0-1.49,1.5v.61h-1A39.25,39.25,0,0,1,97,320.94c.11,1.19.22,2.38.33,3.55a40.71,40.71,0,0,0,19,14l.15.05h1.31v.21a1.5,1.5,0,0,0,1.49,1.5h20.71a1.5,1.5,0,0,0,1.5-1.5v-.32h1.48l.15-.06a41.22,41.22,0,0,0,21.4-18Z"/><path class="cls-7" d="M130.7,276.72c-20.3,0-36.75,4.09-36.75,9.14,0,.95.68,4.93,1.15,10.29,6.9,3.18,20,5.17,35.6,5.17s28.75-2,35.66-5.2c.46-5.35,1.09-9.31,1.09-10.26C167.45,280.81,151,276.72,130.7,276.72Z"/><path class="cls-3" d="M171.56,281.75c0-5.61-18.29-10.17-40.86-10.17s-40.87,4.56-40.87,10.17c0,1-.59,3.68-.59,4.7,0,5.62,18.89,10.17,41.46,10.17s41.45-4.55,41.45-10.17C172.15,285.43,171.56,282.77,171.56,281.75Z"/><ellipse class="cls-5" cx="130.7" cy="281.75" rx="40.87" ry="10.17"/><ellipse class="cls-8" cx="130.7" cy="281.75" rx="36.75" ry="9.14"/><path class="cls-9" d="M148.54,273.76l-.64,16.07.64-.09c11.28-1.56,18.91-4.55,18.91-8S159.82,275.32,148.54,273.76Z"/><path class="cls-9" d="M102.7,275.83c-5.45,1.6-8.75,3.66-8.75,5.92s4,4.53,9.48,6.13Z"/><path class="cls-10" d="M117.59,335l-.14-.05c-18.62-6.62-29.74-25.42-29.74-50.27a.89.89,0,0,1,1.77,0c0,24,10.62,42.15,28.41,48.56l25.88-.11c17.61-6.51,28.11-24.61,28.11-48.45a.89.89,0,0,1,1.77,0c0,24.67-11,43.43-29.42,50.16l-.14,0Z"/><rect class="cls-11" x="118.9" y="331.14" width="23.7" height="5.58" rx="2.11"/><path class="cls-12" d="M140.55,333.68h-.78a.49.49,0,1,1,0-1h.78a.49.49,0,0,1,0,1Z"/><path class="cls-12" d="M137.19,333.68H126.25a.49.49,0,0,1,0-1h10.94a.49.49,0,1,1,0,1Z"/></svg>