<svg id="Layer_1" data-name="Layer 1" xmlns="http://www.w3.org/2000/svg" viewBox="0 0 512 512"><defs><style>.cls-1,.cls-15{opacity:0.5;}.cls-17,.cls-2{fill:#fff;}.cls-3{fill:#414042;}.cls-4,.cls-9{fill:#79c3c6;}.cls-14,.cls-5{fill:#2994b8;}.cls-23,.cls-6{fill:none;}.cls-6{stroke:#0073a5;}.cls-10,.cls-11,.cls-13,.cls-14,.cls-17,.cls-19,.cls-23,.cls-24,.cls-25,.cls-26,.cls-27,.cls-28,.cls-30,.cls-31,.cls-6,.cls-7,.cls-8,.cls-9{stroke-miterlimit:10;}.cls-7{fill:#6fc5dd;stroke:#0095b7;}.cls-8{fill:#4fa7c5;}.cls-8,.cls-9{stroke:#0090a8;}.cls-10{fill:#ebe1c8;stroke:#fb8;}.cls-11{fill:#ffcfa1;stroke:#ff8724;}.cls-12{fill:#f9b57d;}.cls-13{fill:#50b9d6;stroke:#0086b5;}.cls-14{stroke:#007ea0;}.cls-16{fill:#c7e6ff;}.cls-17,.cls-19{stroke:#323232;}.cls-18{fill:#231f20;}.cls-19{fill:#562415;}.cls-20{fill:#9be1e1;}.cls-21{opacity:0.25;}.cls-22,.cls-31{fill:#2977b8;}.cls-23{stroke:#006d93;}.cls-24{fill:#73b1de;}.cls-24,.cls-30{stroke:#0082bc;}.cls-25{fill:#5492c6;stroke:#00719e;}.cls-26{fill:#79b3c6;stroke:#007c99;}.cls-27{fill:#ebe8c8;stroke:#ffb25f;}.cls-28{fill:#ffe2a1;stroke:#ff9831;}.cls-29{fill:#f9cd7d;}.cls-30{fill:#509ed6;}.cls-31{stroke:#00599b;}.cls-32{fill:#cfeeff;}.cls-33{fill:#9cd4e2;}.cls-34{fill:#1e3f3e;opacity:0.19;}</style></defs><path class="cls-1" d="M194.41,290.6a6.77,6.77,0,0,1-3.09-.74,6.64,6.64,0,0,1-.77.05,6.82,6.82,0,0,1-6.34-4.33,7.21,7.21,0,0,1-.31-1c-1.05,0-2.11.07-3.18.07a86.4,86.4,0,0,1-19-2.26l-.38-.08a145.4,145.4,0,0,1-18.42-5.72l-2-.76-1.9-.77-1.82-.77-1.71-.76-1.62-.76-1.52-.77c-.27-.13-.94-.49-.94-.49l-.5-.28c-.26-.13-.53-.29-.79-.44l-.58-.33-.87-.52-.4-.25-.76-.49-.44-.28-.77-.54-.38-.26-.73-.54-.33-.25-.72-.58-.23-.19-.77-.66-.25-.23c-.22-.19-.46-.42-.69-.64l-.14-.13-.67-.68-.19-.2-.72-.79-.11-.13c-.22-.26-.45-.53-.67-.81l-.09-.1c-.23-.3-.43-.56-.62-.83l-.12-.16c-.2-.27-.38-.54-.56-.81l-.12-.18c-.16-.23-.32-.5-.49-.76l-.09-.16c-.16-.27-.32-.53-.47-.8l-.11-.2c-.11-.2-.26-.47-.4-.75l-.09-.17-.38-.77-.43-.92c-.15-.35-.29-.68-.44-1-3.75-1.51-8.86-4.16-10.25-6.8a6.58,6.58,0,0,1-.32-5.42c.89-2.34,2.48-3.91,9-6.5,4.88-15.31,18.31-24.7,35.62-24.7h.85v-.06l-.3-1.14-.09-.33c-.12-.44-.25-.87-.37-1.31,0,0-.38-1.21-.48-1.55l-.17-.53c-.16-.5-.32-1-.49-1.46l-.18-.52c-1.53-4.43-3.4-9.07-5.21-13.56-4.51-11.16-6.84-17.19-6.2-21.7.73-5.26,4.53-8.66,9.66-8.66,3.83,0,8.09,2.05,11.47,4.84a11.72,11.72,0,0,1,4.77-1,13.28,13.28,0,0,1,9.56,4.26,15,15,0,0,1,4.28-.63,13,13,0,0,1,11.82,7.44,10.6,10.6,0,0,1,6.44,3.87c1.64-3,3.35-5.93,5-8.53,6.47-10.05,11.48-14.34,16.75-14.34a8.84,8.84,0,0,1,7.89,4.83,10.21,10.21,0,0,1,8.09,4.33c3.14,4.25,3.89,11.1,3.46,16.95a9.64,9.64,0,0,1,3.34,4c1.77,3.74,1.49,9-.45,14l5.45-6.8c2.79-3.49,5-6.25,6.06-7.49a11.22,11.22,0,0,1,8.51-3.93,9.52,9.52,0,0,1,8.2,4.33c.13.21.24.42.35.63a8.53,8.53,0,0,1,5,4.45c.08.17.16.35.23.53a8.68,8.68,0,0,1,4.31,4.32c.07.16.15.34.23.56a7.82,7.82,0,0,1,4.55,5.6c.59,3.08-.33,7.4-8.08,10.52-9.73,3.91-25.71,11.93-30.87,16.48,0,.14,0,.29,0,.43,0,.36,0,.72-.08,1.08s-.05.62-.08.92l-.12,1.09c0,.3-.08.61-.13.93s-.1.71-.16,1.07-.09.54-.14.81l-.05.27c-.05.31-.11.61-.17.91s-.11.51-.17.77l-.09.4-.18.81c-.07.25-.13.51-.2.76l-.06.21c-.16.6-.33,1.2-.52,1.8l-.07.23c-.08.28-.17.55-.26.83s-.16.47-.25.71l-.16.44c-.09.26-.18.53-.28.79s-.22.55-.32.82l-.07.15c-.15.37-.26.66-.39,1s-.26.6-.4.9l-.45,1-.47,1c-.16.31-.31.62-.48.93s-.33.62-.5.93-.35.62-.53.93-.35.61-.53.92l-.59.94c-.22.35-.38.61-.56.88l-.55.82-.25.36c-.14.2-.28.41-.43.61s-.43.6-.65.89l-.66.88c-.44.57-.89,1.14-1.36,1.7l-.6.7c-.29.34-.58.68-.88,1l-.67.74-.09.1-.8.85-.73.75-.92.92-.76.72-1,.92c-.25.23-.52.48-.8.72l-1,.89-.83.7-1.1.89-.83.66-1.2.92-.21.15a6.75,6.75,0,0,1-5.65,10.43H212a6.78,6.78,0,0,1-6.69,5.59,6.87,6.87,0,0,1-4.46-1.67l-.37.55-.15.26A6.85,6.85,0,0,1,194.41,290.6Z"/><path class="cls-2" d="M189.07,285.27a6.93,6.93,0,0,1-3.09-.74,6.34,6.34,0,0,1-.76,0,6.7,6.7,0,0,1-2.72-.57,6.83,6.83,0,0,1-3.62-3.75,7.34,7.34,0,0,1-.31-1c-1,.05-2.11.07-3.18.07a86.52,86.52,0,0,1-19-2.25L156,277a145,145,0,0,1-18.42-5.71c-.7-.26-1.37-.51-2-.77l-1.9-.76-1.82-.77-1.71-.76-1.62-.77-1.52-.76-1-.5-.5-.27-.78-.44-.58-.33-.87-.53-.4-.24-.77-.49-.43-.29-.77-.53-.38-.27c-.24-.17-.49-.35-.73-.54l-.33-.25-.73-.58-.22-.18-.77-.67-.26-.22-.69-.65-.13-.12-.67-.68-.2-.2-.71-.79-.11-.13c-.23-.26-.46-.53-.68-.81l-.08-.1-.63-.83-.11-.16q-.3-.41-.57-.81l-.12-.18c-.15-.24-.32-.5-.48-.77l-.09-.15c-.17-.27-.32-.54-.47-.8l-.11-.2-.4-.75-.09-.18-.38-.76c-.18-.37-.3-.65-.43-.93s-.3-.67-.44-1c-3.75-1.51-8.86-4.15-10.25-6.79a6.58,6.58,0,0,1-.33-5.42c.9-2.34,2.48-3.91,9-6.51,4.89-15.3,18.32-24.69,35.63-24.69h.85l0,0c-.09-.38-.19-.76-.29-1.14l-.09-.33c-.12-.45-.25-.87-.38-1.31,0,0-.37-1.21-.48-1.55l-.17-.54-.48-1.46-.18-.51c-1.53-4.43-3.4-9.07-5.22-13.56-4.51-11.16-6.83-17.19-6.2-21.71.74-5.26,4.54-8.65,9.67-8.65,3.83,0,8.08,2,11.47,4.83a11.71,11.71,0,0,1,4.77-1,13.28,13.28,0,0,1,9.56,4.26,15,15,0,0,1,4.28-.63A13,13,0,0,1,182.93,170a10.53,10.53,0,0,1,6.44,3.87c1.65-3,3.35-5.94,5-8.54,6.47-10.05,11.48-14.33,16.75-14.33a8.82,8.82,0,0,1,7.88,4.82,10.2,10.2,0,0,1,8.09,4.34c3.15,4.25,3.89,11.1,3.47,16.94a9.78,9.78,0,0,1,3.34,4c1.76,3.74,1.48,9-.45,14,1.89-2.34,3.78-4.71,5.44-6.79,2.8-3.49,5-6.26,6.07-7.49a11.17,11.17,0,0,1,8.51-3.93,9.52,9.52,0,0,1,8.2,4.33c.12.21.24.42.35.63a8.54,8.54,0,0,1,5,4.44c.08.18.16.36.23.54a8.73,8.73,0,0,1,4.31,4.31c.07.16.15.35.22.56a7.86,7.86,0,0,1,4.55,5.61c.6,3.08-.32,7.4-8.07,10.51-9.74,3.92-25.72,11.94-30.87,16.49,0,.14,0,.28,0,.42,0,.37-.05.73-.08,1.09s0,.61-.09.92-.07.73-.12,1.09-.07.61-.12.92-.1.72-.16,1.07-.09.54-.14.82l-.05.27c-.06.3-.11.61-.17.91s-.11.51-.17.77l-.09.4c-.06.27-.12.54-.19.8s-.13.51-.2.77l0,.21c-.16.6-.34,1.2-.52,1.79l-.07.24-.26.83c-.08.23-.17.47-.25.71l-.16.44c-.09.26-.19.52-.28.79l-.33.81-.06.16-.39.95-.4.91c-.16.36-.31.67-.45,1s-.31.65-.47,1l-.48.93c-.16.31-.33.62-.5.93s-.35.63-.53.94l-.53.91c-.2.32-.39.64-.59,1l-.56.87c-.18.28-.37.55-.56.83l-.24.35c-.14.21-.28.42-.43.62s-.43.6-.66.89l-.65.88c-.44.57-.89,1.14-1.36,1.7l-.61.7c-.28.34-.57.68-.87,1l-.67.73-.1.11c-.26.28-.52.57-.79.85l-.74.75c-.3.3-.6.61-.92.91l-.76.73c-.33.32-.65.62-1,.92l-.8.71c-.34.31-.68.6-1,.89l-.83.71-1.1.89-.83.66-1.21.92-.2.15a6.71,6.71,0,0,1-1.5,9A6.8,6.8,0,0,1,207,277.2h-.36a6.8,6.8,0,0,1-11.15,3.92c-.14.19-.26.38-.37.55l-.15.26A6.89,6.89,0,0,1,189.07,285.27Z"/><path class="cls-3" d="M194.1,271.84l.13-.3.16-.28.19-.27.2-.23c.15-.15.3-.3.45-.43l.48-.37a12,12,0,0,1,2.08-1.12A22.19,22.19,0,0,1,200,268l1.12-.32.89-.22L206.4,261l-2.92-2.59c0-.32.46-.85.79-.84a36.33,36.33,0,0,1,3.6,3.19v.14l-.05.12-4.56,6.69c.18.05.36.09.53.15l.67.25c.22.09.43.2.64.31a7.15,7.15,0,0,1,1.18.79,6,6,0,0,1,.53.48l.24.27a2.08,2.08,0,0,1,.23.31.32.32,0,0,1-.07.46.35.35,0,0,1-.48-.06l0,0-.19-.22-.22-.21a3.88,3.88,0,0,0-.49-.4,7.37,7.37,0,0,0-1.08-.65c-.2-.08-.39-.17-.59-.24a6.17,6.17,0,0,0-.61-.19c-.2-.06-.41-.09-.62-.14l-.25,0-.21,0h0l-.48.09a6.58,6.58,0,0,0-2,1.49,13.4,13.4,0,0,0-1,1.22,14.82,14.82,0,0,0-.89,1.34h0a.37.37,0,0,1-.5.14.38.38,0,0,1-.16-.51,15.92,15.92,0,0,1,.9-1.44,13.57,13.57,0,0,1,1.05-1.35l.36-.37c-.52.14-1,.31-1.55.5a11.15,11.15,0,0,0-2,.94,4.84,4.84,0,0,0-.44.3l-.4.34-.17.19-.16.19-.13.2-.11.22,0,.05a.36.36,0,0,1-.46.16A.34.34,0,0,1,194.1,271.84Z"/><path class="cls-4" d="M113.92,234.62c3.6-14.42,16.22-23.89,34.47-22.08s61.52,6.76,81.35-2.93c4.73,20.5-2.26,40.11-25.47,55.2s-51.1,5.42-64.44.45c-21.59-8-22.33-14.59-25.91-23.2A16.85,16.85,0,0,1,113.92,234.62Z"/><path class="cls-5" d="M229.74,209.61c5.4-6.09,17.4-21.48,20.11-24.64s8.58-1.74,6.25,3c5.41-1.35,6.54,1.81,4.28,4.51,3.61-1.12,7.66.84,4.29,4.59,4.05-.76,9.29,1.58,1.26,4.8s-30,13.46-34.8,19.84C228.84,216.59,229.74,209.61,229.74,209.61Z"/><path class="cls-6" d="M229.74,209.61c5.4-6.09,17.4-21.48,20.11-24.64s8.58-1.74,6.25,3c5.41-1.35,6.54,1.81,4.28,4.51,3.61-1.12,7.66.84,4.29,4.59,4.05-.76,9.29,1.58,1.26,4.8s-30,13.46-34.8,19.84C228.84,216.59,229.74,209.61,229.74,209.61Z"/><path class="cls-7" d="M151.9,214.67c2.71-11.94-15.2-42.8-14.19-50s12-.45,14.47,4.62c1.42-5.07,8.85-6.11,12.57,2.18,4.73-3.87,12.5-4.21,13.86,6.27,5.74-5.75,11.1,6.88,10.11,20.51s-9.1,27.58-14.51,29.56S151.9,214.67,151.9,214.67Z"/><path class="cls-8" d="M154.78,193.72c1.8-3.34,4.33-2.47,6.67,1,1.89-4.34,6.09-2.53,7.75,1.45.6-4,4.8-2.41,6.16,1.91,1.5-4.4,4.8-1.84,5,3,2.48-3.61,5.05,2,5.48,5.4a1.51,1.51,0,0,1,1.51-.24c-2.74,10.67-8.83,20-13.17,21.58-5.4,2-22.31-13.12-22.31-13.12,1-4.35-.76-11.22-3.34-18.53C149.36,191.93,153.44,190.83,154.78,193.72Z"/><path class="cls-9" d="M180.39,244.32c-15.78,2-32.68-7.37-39-12.33s-14.57-6-19.68,4.51c-2.53,5.2-6.3,3.78-8.71,3-.37-1.63.9-4.85.9-4.85,3.6-14.42,16.22-23.89,34.47-22.08s61.52,6.76,81.35-2.93a55.92,55.92,0,0,1,1,5.89C222.25,235.23,195.81,242.34,180.39,244.32Z"/><path class="cls-10" d="M113,239.47c2.41.81,6.18,2.23,8.71-3C126.84,226,135.1,227,141.41,232a60.86,60.86,0,0,0,10.11,6.21c8.92,18.67-13,15.59-15.79,13.92-6.28-3.76-16-.6-15.13,2.28-3.71-3.89-4.81-7.84-6.68-12.34A19.81,19.81,0,0,1,113,239.47Z"/><path class="cls-11" d="M135.73,252.12c2.81,1.67,24.71,4.75,15.79-13.92,8,4,18.66,7.42,28.87,6.12,15.42-2,41.86-9.09,50.38-28.82,2.2,18.34-5.52,35.67-26.5,49.31-23.2,15.1-51.1,5.42-64.44.45-10.29-3.83-15.84-7.32-19.23-10.86C119.77,251.52,129.45,248.36,135.73,252.12Z"/><path class="cls-12" d="M120.87,254.28s-.72-1.38,2.9-2.66c0,0,12.57,13,36.05,15.83,0,0,41.93,12.45,64.92-28.61a54.5,54.5,0,0,0,5.75-22s2.08,16-6.81,28.8c0,0-12.34,18.21-27.7,23,0,0-12.78,7.39-38.35,2.17C157.63,270.78,128.88,263.28,120.87,254.28Z"/><path class="cls-13" d="M163.06,239.23c18.23-16.78,18.59-32.45,25.68-49.34s24-45.29,26-26c9.8-7.1,10.82,10.82,8.45,18.59,7.1-3,7.22,8.42,1.07,15.87,4.68.35,5,11.51-1.75,17.25,1.69,2,2.46,9.25-8.45,17.24C187.6,252.2,154.23,247.36,163.06,239.23Z"/><path class="cls-14" d="M163.06,239.23c15.4-14.18,18.05-27.56,22.78-41.56,1.83-1.3,3.51-.72,3.19,4.2,2.7-2.78,4.73,0,3.45,4.13,3.16-2.1,3.53,2.86,1.66,5.86,3.6-1.2,4.28,1.73,1,7.28,4.82-2.47,3.1,4.89.54,7.89,5.18-2.18,4.13,3.76-.54,7.22,2.34,0,3.17,4-1.12,8.77C173.75,249.62,156.4,245.36,163.06,239.23Z"/><g class="cls-15"><path class="cls-16" d="M192.12,197.88c1.49-2.62,3.1-5.14,4.75-7.62s3.36-4.92,5.06-7.37l5.19-7.24c.45-.6.86-1.21,1.29-1.82s.87-1.2,1.28-1.82.85-1.22,1.23-1.85a17.61,17.61,0,0,0,1.1-1.94l-.24,1.11a10.34,10.34,0,0,1-.36,1.07c-.25.73-.57,1.41-.88,2.1-.64,1.37-1.35,2.69-2.11,4-1.49,2.61-3.16,5.1-4.87,7.56s-3.53,4.82-5.43,7.13A84.54,84.54,0,0,1,192.12,197.88Z"/></g><g class="cls-15"><path class="cls-16" d="M195.89,203.67c3.38-3.64,7-6.92,10.53-10.28q2.69-2.47,5.29-5c1.72-1.71,3.45-3.41,5-5.31a24.19,24.19,0,0,1-3.9,6.36c-.75,1-1.61,1.88-2.44,2.82s-1.73,1.77-2.63,2.62a69.47,69.47,0,0,1-5.68,4.76A47.44,47.44,0,0,1,195.89,203.67Z"/></g><g class="cls-15"><path class="cls-16" d="M199.16,210.63c1.84-1,3.68-2,5.51-2.88l5.48-2.76c1.82-.94,3.62-1.88,5.41-2.85s3.53-2,5.35-3.1a22.94,22.94,0,0,1-4.5,4.41,37.84,37.84,0,0,1-5.35,3.32,43.7,43.7,0,0,1-5.79,2.42A30.19,30.19,0,0,1,199.16,210.63Z"/></g><g class="cls-15"><path class="cls-16" d="M200.72,221.26c1.76-.34,3.46-.67,5.13-1s3.31-.82,4.91-1.33A34,34,0,0,0,215.4,217a34.64,34.64,0,0,0,4.35-2.79,12,12,0,0,1-3.51,4.1,17,17,0,0,1-4.86,2.5,20.69,20.69,0,0,1-5.32,1A16.59,16.59,0,0,1,200.72,221.26Z"/></g><g class="cls-15"><path class="cls-16" d="M199.16,236.91a43.76,43.76,0,0,0,4.78-2.45c1.52-.89,3-1.88,4.4-2.89s2.81-2.11,4.19-3.23l2.08-1.7c.7-.57,1.38-1.17,2.15-1.71a24.75,24.75,0,0,1-1.42,2.37c-.56.73-1.1,1.49-1.73,2.17a25.5,25.5,0,0,1-4.11,3.72,22.1,22.1,0,0,1-4.89,2.67A13.43,13.43,0,0,1,199.16,236.91Z"/></g><path class="cls-3" d="M184.84,277.6l.15-.36.19-.33.22-.3.24-.28c.17-.17.34-.34.52-.5s.38-.3.57-.43a14.35,14.35,0,0,1,2.43-1.32,24,24,0,0,1,2.57-.94c.43-.14.87-.26,1.31-.37s.69-.19,1-.27l5.18-7.6-3.43-3c0-.38.54-1,.92-1s4.22,3.75,4.22,3.75v.15l-.07.14-5.34,7.85a4.4,4.4,0,0,1,.62.18c.27.09.53.18.78.29s.5.24.75.36a8.58,8.58,0,0,1,1.39.92,8.37,8.37,0,0,1,.62.57,2.92,2.92,0,0,1,.28.32,2.48,2.48,0,0,1,.27.35.41.41,0,0,1-.08.55.42.42,0,0,1-.57-.07l0,0c0-.07-.14-.17-.22-.26l-.26-.26a6.36,6.36,0,0,0-.57-.46,7.49,7.49,0,0,0-1.27-.76c-.23-.09-.45-.2-.69-.28a5.83,5.83,0,0,0-.71-.22c-.24-.08-.49-.11-.73-.17l-.29,0-.25,0h0l-.56.1a8.1,8.1,0,0,0-2.34,1.75,15.35,15.35,0,0,0-1.21,1.44,17.62,17.62,0,0,0-1,1.56h0a.43.43,0,0,1-.58.17.44.44,0,0,1-.18-.6,18.48,18.48,0,0,1,1.05-1.7A15.14,15.14,0,0,1,191,275l.42-.44c-.61.17-1.22.37-1.81.59a13.38,13.38,0,0,0-2.32,1.11,3.54,3.54,0,0,0-.51.35,6.08,6.08,0,0,0-.47.39l-.2.22-.18.23-.16.24-.13.25,0,.05a.41.41,0,0,1-.75-.34Z"/><path class="cls-17" d="M123.85,234.52a4.59,4.59,0,1,0,5.74-3A4.59,4.59,0,0,0,123.85,234.52Z"/><path class="cls-18" d="M124.88,234.94a3,3,0,1,0,3.78-2A3,3,0,0,0,124.88,234.94Z"/><path class="cls-2" d="M128.05,234a1.46,1.46,0,1,0,1.83-1A1.46,1.46,0,0,0,128.05,234Z"/><path class="cls-19" d="M112.31,236s-7.38,2.77-7,3.58,8.72,5.22,10.1,4.73c1-.34,2.54-2.64,2.76-3.71s-1.75-1.34-2.3-1.73S114,235.32,112.31,236Z"/><path class="cls-20" d="M114.51,235.83s4.34-26,35.08-22.29c.47.06.95.15,1.43.19l27.35,2.51-1.21,1.65-26-3.08c-.45-.05-.88-.12-1.32-.2C146.23,213.9,124.75,211.8,114.51,235.83Z"/><path class="cls-21" d="M163.49,239.29s-2.85,1.88-.92,3.86c0,0,3.63,4.92,20.87,2.44,0,0,36.47-7.14,39.84-26.45,0,0-13.39,20.68-40.26,23.19C183,242.33,169.38,245.13,163.49,239.29Z"/><g class="cls-15"><path class="cls-16" d="M231.14,209.61c1.63-1.75,3.34-3.41,5.06-5.06s3.47-3.25,5.24-4.85,3.56-3.16,5.39-4.69l2.76-2.28c.94-.73,1.86-1.49,2.82-2.2-.81.88-1.67,1.71-2.5,2.57l-2.56,2.49c-1.71,1.65-3.48,3.25-5.24,4.85s-3.57,3.16-5.4,4.68S233.05,208.17,231.14,209.61Z"/></g><g class="cls-15"><path class="cls-16" d="M233,212.76c1.8-1.6,3.66-3.12,5.53-4.62s3.78-3,5.69-4.41,3.86-2.86,5.83-4.23l3-2.05c1-.65,2-1.33,3-2-.89.81-1.82,1.57-2.73,2.35l-2.8,2.28c-1.86,1.51-3.78,3-5.69,4.41s-3.86,2.85-5.83,4.22S235,211.49,233,212.76Z"/></g><g class="cls-15"><path class="cls-16" d="M233.71,215.5c2.13-1.39,4.3-2.68,6.49-3.95s4.39-2.5,6.61-3.72,4.45-2.38,6.72-3.51l3.4-1.68c1.15-.53,2.28-1.09,3.45-1.59-1.06.7-2.15,1.34-3.22,2L253.9,205c-2.18,1.28-4.4,2.5-6.61,3.71s-4.46,2.39-6.73,3.51S236,214.48,233.71,215.5Z"/></g><g class="cls-15"><path class="cls-16" d="M153.64,188.6a56.12,56.12,0,0,1-2.53-14.78,56.31,56.31,0,0,1,2.53,14.78Z"/></g><g class="cls-15"><path class="cls-16" d="M161.9,189.33a66.18,66.18,0,0,1-2-16.09,57.68,57.68,0,0,1,1.47,8A59.26,59.26,0,0,1,161.9,189.33Z"/></g><g class="cls-15"><path class="cls-16" d="M169.52,192.66a72.8,72.8,0,0,1-2.32-17,74.25,74.25,0,0,1,2.32,17Z"/></g><g class="cls-15"><path class="cls-16" d="M184,197.07a47.79,47.79,0,0,1,0-13.79,47.79,47.79,0,0,1,0,13.79Z"/></g><g class="cls-15"><path class="cls-16" d="M178.37,192.66a34,34,0,0,1-1.3-6.08,34.71,34.71,0,0,1-.31-6.21,33.61,33.61,0,0,1,1.3,6.08A34.71,34.71,0,0,1,178.37,192.66Z"/></g><path class="cls-1" d="M324.53,361a6.74,6.74,0,0,1-3.09-.74,6.64,6.64,0,0,1-.77.05,6.92,6.92,0,0,1-2.73-.57,6.84,6.84,0,0,1-3.61-3.75,7.34,7.34,0,0,1-.31-1c-1,0-2.11.07-3.18.07a86.56,86.56,0,0,1-19-2.26l-.37-.08A145.83,145.83,0,0,1,273.05,347l-2-.77-1.89-.76-1.83-.77-1.71-.77-1-.46-.63-.3-1.53-.76-.95-.5-.5-.27-.78-.45-.58-.33-.87-.52-.4-.25-.76-.48-.44-.29-.76-.53-.39-.27-.74-.55-.33-.25c-.25-.19-.48-.38-.71-.57l-.26-.22-.74-.62-.26-.24-.68-.63-.17-.17-.65-.65-.13-.13-.07-.09c-.27-.28-.49-.52-.7-.76l-.09-.12c-.24-.27-.47-.54-.69-.82l-.09-.11-.63-.82-.09-.14c-.22-.3-.41-.57-.58-.84l-.13-.18-.48-.76-.06-.1c-.19-.31-.34-.58-.49-.85l-.12-.21c-.11-.2-.26-.48-.4-.76l-.09-.16-.37-.76c-.18-.37-.31-.65-.44-.93l-.44-1c-3.75-1.51-8.86-4.16-10.25-6.8a6.56,6.56,0,0,1-.32-5.41c.89-2.35,2.48-3.92,9-6.51,4.88-15.3,18.31-24.7,35.62-24.7h.85l0,0c-.09-.38-.19-.76-.29-1.15l-.1-.35c-.11-.42-.24-.85-.37-1.28l-.65-2.1c-.15-.48-.32-1-.48-1.46l-.18-.5c-1.53-4.44-3.4-9.08-5.22-13.57-4.51-11.15-6.83-17.19-6.19-21.7.73-5.26,4.53-8.66,9.66-8.66,3.83,0,8.08,2.06,11.47,4.84a11.72,11.72,0,0,1,4.77-1,13.28,13.28,0,0,1,9.56,4.26,15.35,15.35,0,0,1,4.28-.63,13,13,0,0,1,11.82,7.44,10.58,10.58,0,0,1,6.43,3.87c1.65-3,3.36-5.93,5-8.53,6.47-10,11.48-14.34,16.75-14.34a8.81,8.81,0,0,1,7.88,4.83,10.18,10.18,0,0,1,8.09,4.33c3.15,4.25,3.9,11.1,3.47,17a9.72,9.72,0,0,1,3.34,4c2,4.28,1.36,10.55-1.39,16.17a13.39,13.39,0,0,1,1.1,3c3.79-2.32,8-5,11.47-7.15,3.79-2.38,6.78-4.26,8.18-5.08a11.25,11.25,0,0,1,5.66-1.52,10.11,10.11,0,0,1,9.55,6,8.65,8.65,0,0,1,.58,2.13,8.81,8.81,0,0,1,3.11,4.82,8.67,8.67,0,0,1,.21,1.59A8.89,8.89,0,0,1,410.3,281a8.24,8.24,0,0,1,.23,1.82,7.91,7.91,0,0,1,2.52,6.14c-.14,2.78-1.78,7.51-11.15,7.95-5.76.27-19.61,1.55-29,3.8,0,.28,0,.57-.06.85s-.05.63-.09.94-.07.71-.11,1.06-.08.63-.13.94-.1.71-.16,1.06-.1.62-.16.93-.13.74-.2,1.07-.11.51-.17.77l-.08.37c-.06.28-.13.56-.19.84s-.13.49-.2.73l-.06.23c-.16.61-.34,1.21-.52,1.81l-.06.2-.27.86c-.08.25-.17.49-.26.74l-.15.41c-.09.27-.18.53-.28.79l-.33.82-.06.15c-.15.38-.27.67-.39,1l-.42,1c-.15.31-.29.63-.44.94s-.3.63-.46.95-.31.62-.48.93-.33.62-.5.93-.35.63-.53.94l-.53.91-.58.94-.1.14c-.15.25-.31.5-.47.74s-.36.53-.54.8l-.24.35-.45.64q-.31.45-.66.9l-.65.87c-.44.57-.89,1.14-1.36,1.7-.12.15-.61.71-.61.71-.28.34-.57.67-.87,1s-.67.74-.67.74l-.09.1-.8.85-.74.75-.91.92-.77.73c-.33.32-.65.62-1,.91s-.53.48-.8.72l-1,.89-.83.7-1.1.89c-.3.25-.56.45-.83.66s-.8.62-1.21.92l-.2.16a6.7,6.7,0,0,1-1.51,9,6.81,6.81,0,0,1-4.14,1.43h-.36a6.77,6.77,0,0,1-2.51,4.15,6.85,6.85,0,0,1-4.18,1.44,6.74,6.74,0,0,1-4.46-1.67c-.14.19-.27.38-.38.56l-.13.23A6.87,6.87,0,0,1,324.53,361Z"/><path class="cls-2" d="M319.19,355.66a6.93,6.93,0,0,1-3.09-.74,6.45,6.45,0,0,1-.76,0,6.71,6.71,0,0,1-2.73-.57,6.79,6.79,0,0,1-3.61-3.74,7.07,7.07,0,0,1-.31-1c-1.05.05-2.11.08-3.18.08a86.49,86.49,0,0,1-19-2.26l-.37-.08a144.12,144.12,0,0,1-18.42-5.72c-.7-.25-1.37-.51-2-.77l-1.9-.76-1.82-.77-1.71-.76-1-.46-.63-.3-1.52-.76-.95-.51-.5-.27-.79-.44-.57-.33-.87-.52-.4-.25-.77-.49-.43-.28-.77-.53-.38-.27-.74-.55-.33-.26-.72-.56-.26-.22c-.26-.22-.5-.42-.73-.63l-.26-.23c-.21-.19-.45-.41-.68-.64l-.17-.16c-.22-.21-.44-.43-.65-.65l-.13-.13-.08-.09c-.26-.28-.48-.52-.69-.77l-.1-.11-.68-.82-.09-.11-.63-.83-.1-.13-.58-.84-.12-.18-.48-.76-.06-.1c-.19-.32-.35-.58-.5-.85l-.11-.21c-.12-.21-.26-.48-.41-.76l-.08-.16-.38-.76-.43-.94c-.15-.34-.3-.67-.44-1-3.76-1.52-8.87-4.16-10.26-6.8a6.62,6.62,0,0,1-.32-5.42c.9-2.34,2.48-3.91,9-6.51,4.89-15.3,18.32-24.69,35.62-24.69H275v-.06q-.14-.57-.3-1.14l-.09-.35c-.12-.42-.24-.85-.37-1.29l-.65-2.1c-.16-.47-.32-1-.49-1.45l-.17-.51c-1.53-4.43-3.41-9.07-5.22-13.56-4.51-11.16-6.83-17.19-6.2-21.7.74-5.26,4.53-8.66,9.67-8.66,3.83,0,8.08,2.05,11.47,4.83a11.68,11.68,0,0,1,4.77-1,13.28,13.28,0,0,1,9.56,4.26,15,15,0,0,1,4.28-.63,13,13,0,0,1,11.81,7.44,10.58,10.58,0,0,1,6.44,3.87c1.65-3,3.35-5.94,5-8.53C331,225.69,336,221.4,341.27,221.4a8.81,8.81,0,0,1,7.88,4.83,10.17,10.17,0,0,1,8.09,4.33c3.15,4.25,3.89,11.1,3.47,16.94a9.78,9.78,0,0,1,3.34,4c2,4.28,1.36,10.56-1.4,16.17a13,13,0,0,1,1.11,3c3.79-2.32,8-5,11.47-7.15,3.78-2.38,6.77-4.26,8.18-5.08a11.23,11.23,0,0,1,5.66-1.53,10.1,10.1,0,0,1,9.54,6,8.8,8.8,0,0,1,.59,2.13,8.89,8.89,0,0,1,3.11,4.83,8.67,8.67,0,0,1,.21,1.59,8.88,8.88,0,0,1,2.45,4.25,7.62,7.62,0,0,1,.22,1.82,7.91,7.91,0,0,1,2.53,6.13c-.15,2.78-1.79,7.51-11.15,8-5.77.27-19.62,1.56-29,3.8l-.06.86-.09.94c0,.35-.07.71-.12,1.06s-.08.63-.12.94-.1.7-.16,1.06-.11.62-.16.92-.14.75-.2,1.08-.11.51-.17.77l-.08.37c-.07.28-.13.56-.2.84s-.12.48-.19.73l-.06.23c-.17.61-.34,1.21-.52,1.8l-.06.2-.27.87c-.09.24-.17.49-.26.74l-.15.41c-.09.26-.19.53-.29.79s-.21.54-.32.81l-.06.16-.39.95c-.14.32-.28.64-.43,1s-.28.63-.43.95-.3.63-.46,1-.32.61-.48.93-.33.62-.5.93l-.53.94c-.18.3-.35.6-.54.91s-.38.62-.58.93l-.09.15c-.16.25-.31.5-.48.74l-.53.8-.24.35-.45.64c-.21.3-.44.6-.66.89l-.65.88c-.44.57-.9,1.14-1.36,1.7l-.61.71c-.28.33-.57.67-.87,1L353,328l-.1.1c-.26.28-.52.57-.8.85l-.73.75-.91.91-.77.74-1,.91-.8.72-1,.88-.83.71-1.1.89-.83.66c-.4.31-.8.62-1.21.92l-.2.16a6.71,6.71,0,0,1-1.51,9,6.8,6.8,0,0,1-4.14,1.42h-.37a6.77,6.77,0,0,1-2.5,4.16,6.84,6.84,0,0,1-4.18,1.43,6.77,6.77,0,0,1-4.47-1.66c-.13.19-.26.38-.37.56l-.14.23A6.87,6.87,0,0,1,319.19,355.66Z"/><path class="cls-3" d="M324.22,342.23l.13-.3.16-.28.19-.26.2-.24.45-.43c.16-.13.31-.25.48-.37a11.62,11.62,0,0,1,2.08-1.12,22.11,22.11,0,0,1,2.19-.8l1.11-.33.9-.22,4.41-6.49-2.92-2.59c0-.32.46-.85.79-.84a36.37,36.37,0,0,1,3.6,3.2v.13l-.06.12-4.55,6.69a4.64,4.64,0,0,1,.53.16,5.4,5.4,0,0,1,.67.25,6.13,6.13,0,0,1,.64.3,7.83,7.83,0,0,1,1.18.79,4.88,4.88,0,0,1,.53.49l.24.26c.08.1.15.19.23.31a.34.34,0,0,1-.55.4l0,0c-.05-.06-.12-.15-.19-.22l-.22-.22a4.74,4.74,0,0,0-.49-.4,6.62,6.62,0,0,0-1.09-.64,6,6,0,0,0-.58-.25l-.61-.19c-.2-.06-.41-.09-.62-.14l-.25,0-.21,0h0l-.48.09a6.92,6.92,0,0,0-2,1.49,15.09,15.09,0,0,0-1,1.22c-.32.43-.62.89-.89,1.34h0a.37.37,0,0,1-.5.14.37.37,0,0,1-.16-.5,14.11,14.11,0,0,1,.9-1.45,12.39,12.39,0,0,1,1.05-1.34l.36-.38c-.52.14-1,.31-1.55.5a10.83,10.83,0,0,0-2,.94l-.44.3-.4.34-.18.19-.15.19-.13.21-.11.21,0,0a.36.36,0,0,1-.46.16A.34.34,0,0,1,324.22,342.23Z"/><path class="cls-4" d="M244,305c3.61-14.42,16.23-23.88,34.48-22.08S340,289.69,359.86,280c4.73,20.5-2.26,40.11-25.47,55.21s-51.1,5.41-64.44.45c-21.6-8-22.33-14.6-25.92-23.21A17.05,17.05,0,0,1,244,305Z"/><path class="cls-22" d="M359.54,280.55c7.11-4,23.5-14.56,27.09-16.65s8.68,1.17,4.92,4.89c5.55.5,5.58,3.85,2.56,5.67,3.78.12,7,3.31,2.54,5.74,4.08.62,8.26,4.55-.38,4.95s-32.78,2.84-39.39,7.29C356.39,286.85,359.54,280.55,359.54,280.55Z"/><path class="cls-23" d="M359.54,280.55c7.11-4,23.5-14.56,27.09-16.65s8.68,1.17,4.92,4.89c5.55.5,5.58,3.85,2.56,5.67,3.78.12,7,3.31,2.54,5.74,4.08.62,8.26,4.55-.38,4.95s-32.78,2.84-39.39,7.29C356.39,286.85,359.54,280.55,359.54,280.55Z"/><path class="cls-24" d="M282,285.06c2.71-11.94-15.2-42.8-14.19-50s12.05-.46,14.47,4.61c1.41-5.07,8.85-6.11,12.57,2.18,4.73-3.87,12.5-4.21,13.85,6.27,5.75-5.75,11.11,6.88,10.12,20.51s-9.1,27.58-14.51,29.56S282,285.06,282,285.06Z"/><path class="cls-25" d="M284.9,264.11c1.8-3.34,4.33-2.47,6.67,1,1.89-4.34,6.09-2.53,7.75,1.45.6-4,4.8-2.41,6.16,1.91,1.5-4.4,4.8-1.84,5,3,2.48-3.61,5.06,2,5.49,5.4a1.51,1.51,0,0,1,1.51-.24c-2.74,10.67-8.83,20-13.17,21.58-5.41,2-22.31-13.12-22.31-13.12,1-4.35-.76-11.22-3.34-18.53C279.47,262.33,283.56,261.22,284.9,264.11Z"/><path class="cls-26" d="M310.5,314.71c-15.77,2-32.67-7.37-39-12.33s-14.57-6-19.68,4.51c-2.52,5.2-6.29,3.78-8.71,3-.37-1.62.9-4.85.9-4.85,3.61-14.42,16.23-23.88,34.48-22.08S340,289.69,359.86,280a55.92,55.92,0,0,1,1,5.89C352.37,305.62,325.93,312.73,310.5,314.71Z"/><path class="cls-27" d="M243.13,309.86c2.42.81,6.19,2.23,8.71-3,5.11-10.51,13.37-9.47,19.68-4.51a61,61,0,0,0,10.12,6.21c8.92,18.67-13,15.6-15.79,13.92-6.29-3.75-16-.6-15.13,2.28C247,320.9,245.91,317,244,312.45A20.84,20.84,0,0,1,243.13,309.86Z"/><path class="cls-28" d="M265.85,322.51c2.81,1.68,24.71,4.75,15.79-13.92,8,4,18.65,7.43,28.86,6.12,15.43-2,41.87-9.09,50.39-28.82,2.2,18.34-5.52,35.67-26.5,49.32-23.21,15.09-51.1,5.41-64.44.45-10.29-3.83-15.85-7.33-19.23-10.87C249.89,321.91,259.56,318.76,265.85,322.51Z"/><path class="cls-29" d="M251,324.67s-.73-1.37,2.9-2.66c0,0,12.57,13,36.05,15.83,0,0,41.93,12.45,64.92-28.6a54.56,54.56,0,0,0,5.75-22s2.08,15.94-6.81,28.79c0,0-12.34,18.21-27.71,23,0,0-12.77,7.39-38.34,2.17C287.75,341.17,259,333.68,251,324.67Z"/><path class="cls-30" d="M293.18,309.62c18.23-16.78,18.59-32.44,25.68-49.34s24-45.29,26-26c9.8-7.1,10.82,10.82,8.45,18.59,7.09-3,7.22,8.42,1.07,15.87,4.67.35,5,11.51-1.75,17.26,1.69,2,2.46,9.25-8.45,17.23C317.72,322.59,284.35,317.75,293.18,309.62Z"/><path class="cls-31" d="M293.18,309.62c15.4-14.18,18.05-27.56,22.78-41.56,1.83-1.3,3.5-.72,3.19,4.21,2.7-2.79,4.73,0,3.45,4.12,3.16-2.1,3.53,2.86,1.65,5.86,3.61-1.2,4.29,1.73,1,7.29,4.82-2.48,3.1,4.88.54,7.88,5.18-2.17,4.13,3.76-.54,7.22,2.34,0,3.17,4-1.12,8.77C303.87,320,286.52,315.75,293.18,309.62Z"/><g class="cls-15"><path class="cls-32" d="M322.24,268.27c1.49-2.62,3.1-5.13,4.75-7.62s3.36-4.92,5.06-7.36l5.19-7.25c.45-.6.86-1.21,1.29-1.82s.87-1.2,1.28-1.82.85-1.22,1.23-1.85a16.73,16.73,0,0,0,1.1-1.94l-.24,1.11a10.52,10.52,0,0,1-.36,1.08c-.25.72-.57,1.4-.88,2.09-.64,1.37-1.35,2.7-2.11,4-1.49,2.62-3.16,5.1-4.87,7.56s-3.54,4.82-5.44,7.14A86.07,86.07,0,0,1,322.24,268.27Z"/></g><g class="cls-15"><path class="cls-32" d="M326,274.07c3.38-3.65,7-6.93,10.53-10.29q2.68-2.47,5.28-5c1.73-1.71,3.46-3.41,5.06-5.31a24.19,24.19,0,0,1-3.9,6.36c-.75,1-1.62,1.89-2.44,2.82s-1.74,1.77-2.63,2.62a71.67,71.67,0,0,1-5.68,4.77A49.58,49.58,0,0,1,326,274.07Z"/></g><g class="cls-15"><path class="cls-32" d="M329.28,281c1.84-1,3.68-2,5.51-2.88l5.48-2.76q2.72-1.39,5.41-2.85c1.78-1,3.53-2,5.35-3.1a22.93,22.93,0,0,1-4.5,4.41,37.84,37.84,0,0,1-5.35,3.32,43.7,43.7,0,0,1-5.79,2.42A30.19,30.19,0,0,1,329.28,281Z"/></g><g class="cls-15"><path class="cls-32" d="M330.84,291.65c1.76-.34,3.46-.66,5.13-1s3.31-.81,4.91-1.33a34,34,0,0,0,4.64-1.91,35.71,35.71,0,0,0,4.35-2.78,12.13,12.13,0,0,1-3.52,4.1,17,17,0,0,1-4.85,2.49,20.69,20.69,0,0,1-5.32,1A16.59,16.59,0,0,1,330.84,291.65Z"/></g><g class="cls-15"><path class="cls-32" d="M329.28,307.3a42.07,42.07,0,0,0,4.78-2.45c1.51-.89,3-1.88,4.39-2.89s2.82-2.11,4.2-3.23l2.08-1.7c.7-.57,1.38-1.17,2.15-1.71-.43.82-.92,1.6-1.42,2.38s-1.1,1.48-1.73,2.16a25.5,25.5,0,0,1-4.11,3.72,22.1,22.1,0,0,1-4.89,2.67A13.43,13.43,0,0,1,329.28,307.3Z"/></g><path class="cls-3" d="M315,348l.15-.36.19-.32.22-.31.24-.28c.17-.17.34-.34.52-.5s.37-.3.57-.43a14,14,0,0,1,2.43-1.32,27.15,27.15,0,0,1,2.56-.94c.44-.13.87-.26,1.31-.37s.69-.19,1.05-.26l5.17-7.61-3.43-3c0-.38.55-1,.93-1s4.22,3.74,4.22,3.74v.16l-.07.14-5.33,7.84a6.36,6.36,0,0,1,.62.19,6.55,6.55,0,0,1,.78.28c.26.1.5.24.75.36a8,8,0,0,1,1.39.93,8.24,8.24,0,0,1,.62.56l.28.32a2.48,2.48,0,0,1,.27.35.41.41,0,0,1-.08.55.42.42,0,0,1-.57-.07l0,0-.22-.26a3.07,3.07,0,0,0-.26-.25,5.08,5.08,0,0,0-.57-.47,8.2,8.2,0,0,0-1.27-.76c-.23-.09-.45-.2-.69-.28a5.83,5.83,0,0,0-.71-.22c-.24-.08-.49-.11-.73-.17l-.29,0-.25,0h0l-.56.1a8,8,0,0,0-2.34,1.75,15.35,15.35,0,0,0-1.21,1.44,15.66,15.66,0,0,0-1,1.56h0a.43.43,0,0,1-.58.17.44.44,0,0,1-.19-.59,16.2,16.2,0,0,1,1.06-1.7,15.14,15.14,0,0,1,1.23-1.57l.42-.45c-.61.17-1.22.37-1.82.59a13.29,13.29,0,0,0-2.31,1.11,4.59,4.59,0,0,0-.51.35,6.08,6.08,0,0,0-.47.39l-.2.22-.19.23-.15.24-.13.25,0,.06a.42.42,0,0,1-.54.19A.41.41,0,0,1,315,348Z"/><path class="cls-17" d="M254,304.92a4.59,4.59,0,1,0,5.74-3A4.58,4.58,0,0,0,254,304.92Z"/><path class="cls-18" d="M255,305.33a3,3,0,1,0,3.78-2A3,3,0,0,0,255,305.33Z"/><path class="cls-2" d="M258.17,304.36a1.46,1.46,0,1,0,1.83-1A1.46,1.46,0,0,0,258.17,304.36Z"/><path class="cls-19" d="M242.43,306.36s-7.38,2.77-7,3.59,8.73,5.21,10.11,4.72c1-.34,2.54-2.64,2.76-3.71s-1.75-1.33-2.31-1.73S244.08,305.71,242.43,306.36Z"/><path class="cls-33" d="M244.63,306.22s4.34-26,35.08-22.29c.47.06,1,.15,1.43.19l27.35,2.52-1.21,1.64-26-3.07c-.44-.06-.87-.12-1.31-.21C276.35,284.29,254.87,282.19,244.63,306.22Z"/><path class="cls-34" d="M293.61,309.68s-2.85,1.88-.92,3.86c0,0,3.62,4.93,20.87,2.44,0,0,36.47-7.14,39.84-26.44,0,0-13.39,20.67-40.26,23.18C313.14,312.72,299.5,315.52,293.61,309.68Z"/><g class="cls-15"><path class="cls-32" d="M360.86,281c2.12-1.11,4.28-2.11,6.44-3.11s4.36-1.93,6.55-2.86,4.4-1.81,6.64-2.65l3.34-1.25c1.13-.38,2.25-.79,3.39-1.15-1.05.57-2.13,1.07-3.2,1.61l-3.24,1.5c-2.16,1-4.35,1.93-6.54,2.86s-4.41,1.82-6.64,2.65S363.14,280.28,360.86,281Z"/></g><g class="cls-15"><path class="cls-32" d="M361.58,284.6c2.22-.92,4.48-1.74,6.74-2.55s4.54-1.55,6.82-2.29,4.58-1.44,6.9-2.08l3.47-1c1.17-.28,2.33-.6,3.51-.85-1.11.47-2.24.88-3.36,1.32l-3.39,1.23c-2.26.81-4.54,1.55-6.82,2.29s-4.58,1.43-6.9,2.07S363.92,284.07,361.58,284.6Z"/></g><g class="cls-15"><path class="cls-32" d="M361.36,287.43c2.46-.62,4.94-1.12,7.42-1.6s5-.92,7.47-1.34,5-.79,7.5-1.11l3.76-.47c1.26-.12,2.52-.28,3.78-.37-1.22.32-2.46.57-3.7.85l-3.72.75c-2.48.5-5,.92-7.46,1.34s-5,.79-7.5,1.1S363.89,287.22,361.36,287.43Z"/></g><g class="cls-15"><path class="cls-32" d="M283.76,259a56.12,56.12,0,0,1-2.53-14.78A56.31,56.31,0,0,1,283.76,259Z"/></g><g class="cls-15"><path class="cls-32" d="M292,259.72a66,66,0,0,1-1.95-16.09,57.82,57.82,0,0,1,1.47,8A59,59,0,0,1,292,259.72Z"/></g><g class="cls-15"><path class="cls-32" d="M299.63,263.05a65.42,65.42,0,0,1-1.65-8.41,64,64,0,0,1-.66-8.54,65.42,65.42,0,0,1,1.65,8.41A63.84,63.84,0,0,1,299.63,263.05Z"/></g><g class="cls-15"><path class="cls-32" d="M314.13,267.46a47.79,47.79,0,0,1,0-13.79,47.79,47.79,0,0,1,0,13.79Z"/></g><g class="cls-15"><path class="cls-32" d="M308.49,263.05a33.8,33.8,0,0,1-1.3-6.08,33,33,0,0,1-.31-6.21,33.8,33.8,0,0,1,1.3,6.08A34.71,34.71,0,0,1,308.49,263.05Z"/></g></svg>