<svg id="Layer_1" data-name="Layer 1" xmlns="http://www.w3.org/2000/svg" viewBox="0 0 512 512"><defs><style>.cls-1{opacity:0.5;}.cls-2{fill:#fff;}.cls-3{fill:#721c45;}.cls-4{fill:#ff8b00;}.cls-5{fill:#f797ae;}.cls-6,.cls-7,.cls-8{fill:none;stroke:#000;stroke-miterlimit:10;stroke-width:2px;}.cls-7{stroke-dasharray:11.84 11.84;}.cls-8{stroke-dasharray:11.91 11.91;}</style></defs><path class="cls-1" d="M56.33,140a11,11,0,0,1-5.55-1.46c-3.41-2-5.48-5.75-5.69-10.36a23.76,23.76,0,0,1,2.35-10.73C36,116.35,30.88,110.15,30.88,104c0-5.9,5.12-12.2,16.27-13.45-4.7-10.25-2-17.76,3.22-20.88A10.88,10.88,0,0,1,56,68.16c5.2,0,10.44,3.3,14.72,9.17C76.36,69.26,82.22,68,85.4,68a11.1,11.1,0,0,1,5.54,1.46c3.41,2,5.49,5.75,5.7,10.36a23.88,23.88,0,0,1-2.36,10.73c11.41,1.14,16.57,7.34,16.57,13.49,0,5.9-5.13,12.2-16.28,13.45A23.3,23.3,0,0,1,97,128c-.18,4.54-2.22,8.31-5.61,10.34a11,11,0,0,1-5.61,1.5c-5.19,0-10.44-3.3-14.72-9.17C65.37,138.75,59.5,140,56.33,140Z"/><path class="cls-2" d="M52,135.73a11,11,0,0,1-5.54-1.47c-3.41-2-5.49-5.75-5.7-10.35a24,24,0,0,1,2.35-10.73c-11.4-1.14-16.56-7.34-16.56-13.49,0-5.9,5.13-12.21,16.28-13.46-4.7-10.24-2-17.75,3.21-20.88a11,11,0,0,1,5.6-1.5c5.2,0,10.45,3.3,14.73,9.17,5.66-8.08,11.53-9.37,14.7-9.37a11,11,0,0,1,5.54,1.46c3.41,2,5.49,5.75,5.7,10.35A23.86,23.86,0,0,1,90,86.19c11.41,1.14,16.56,7.34,16.56,13.5,0,5.89-5.12,12.2-16.27,13.45a23.24,23.24,0,0,1,2.39,10.54C92.48,128.23,90.43,132,87,134a11,11,0,0,1-5.6,1.5c-5.2,0-10.45-3.3-14.73-9.17C61.05,134.43,55.18,135.73,52,135.73Z"/><path class="cls-3" d="M78,100.55c-.78,0-2.31-.39-2.31-.86s1.53-.87,2.31-.87c1.35,0,1.94.45,1.94.87S79.27,100.55,78,100.55Z"/><path class="cls-4" d="M101.35,99.69c0-4.07-4.63-8.5-15.25-8.5a28.32,28.32,0,0,0-6.36.9,27.59,27.59,0,0,0,4-5C89,78,87.54,71.63,84,69.58s-9.67-.26-15,8.93a28.47,28.47,0,0,0-2.56,6.43,29,29,0,0,0-2.64-6.4c-5.34-9-11.62-10.83-15.11-8.74s-4.93,8.33.52,17.45A27.29,27.29,0,0,0,53,92a27.91,27.91,0,0,0-6-.82c-10.42,0-15.25,4.43-15.25,8.5s4.63,8.49,15.25,8.49a28.32,28.32,0,0,0,6.36-.9,28,28,0,0,0-4,5c-5.23,9-3.83,15.42-.31,17.46s9.67.26,15-8.93a29.44,29.44,0,0,0,2.56-6.43,28.54,28.54,0,0,0,2.63,6.4c5.34,9,11.62,10.83,15.12,8.74s4.92-8.33-.53-17.45a27.29,27.29,0,0,0-3.8-4.76,27.91,27.91,0,0,0,6,.82C96.52,108.18,101.35,103.75,101.35,99.69ZM66.56,101.6a2.91,2.91,0,0,0-.75-.65,2.76,2.76,0,0,0-.9-.32,2.83,2.83,0,0,0,.17-.94,3,3,0,0,0-.16-.93,3,3,0,0,0,.88-.33,2.86,2.86,0,0,0,.73-.66,3.08,3.08,0,0,0,.75.65,2.85,2.85,0,0,0,.9.32,3.12,3.12,0,0,0-.17,1,2.92,2.92,0,0,0,.16.92,3,3,0,0,0-.87.33A3.08,3.08,0,0,0,66.56,101.6Z"/><path class="cls-5" d="M66.28,107.5a7.82,7.82,0,1,1,7.82-7.81A7.81,7.81,0,0,1,66.28,107.5Z"/><path class="cls-3" d="M54.45,98.82c.77,0,2.3.39,2.3.87s-1.53.86-2.3.86c-1.35,0-1.94-.45-1.94-.86S53.12,98.82,54.45,98.82Z"/><path class="cls-3" d="M71,110.42c-.37-.67-.76-2.2-.34-2.43s1.49.93,1.85,1.61c.65,1.19.53,1.92.17,2.12S71.67,111.59,71,110.42Z"/><path class="cls-3" d="M61.35,89c.37.67.76,2.21.34,2.43s-1.48-.93-1.85-1.61c-.65-1.19-.53-1.92-.17-2.12S60.72,87.78,61.35,89Z"/><path class="cls-3" d="M73,90.09c-.4.66-1.53,1.77-1.94,1.52s.06-1.75.46-2.41C72.26,88,73,87.77,73.31,88S73.73,89,73,90.09Z"/><path class="cls-3" d="M59.36,109.28c.4-.66,1.52-1.77,1.93-1.52s-.06,1.75-.46,2.41c-.7,1.16-1.39,1.43-1.74,1.21S58.67,110.41,59.36,109.28Z"/><path class="cls-3" d="M75.83,106.47c-.66-.4-1.78-1.52-1.53-1.93s1.75,0,2.42.45c1.16.69,1.43,1.38,1.22,1.74S77,107.15,75.83,106.47Z"/><path class="cls-3" d="M56.56,92.9c.67.4,1.78,1.52,1.54,1.93s-1.76,0-2.42-.45c-1.16-.69-1.44-1.38-1.23-1.73S55.43,92.22,56.56,92.9Z"/><path class="cls-3" d="M64.83,111.39c0-.78.48-2.29,1-2.27s.79,1.57.76,2.34c-.06,1.35-.53,1.92-.94,1.9S64.77,112.71,64.83,111.39Z"/><path class="cls-3" d="M67.57,88c0,.77-.49,2.28-1,2.26s-.8-1.57-.77-2.34c.06-1.35.54-1.92,1-1.9S67.62,86.66,67.57,88Z"/><path class="cls-3" d="M77,95c-.68.37-2.21.74-2.44.32s1-1.48,1.64-1.84c1.2-.63,1.93-.51,2.12-.14S78.17,94.36,77,95Z"/><path class="cls-3" d="M55.4,104.4c.68-.37,2.22-.74,2.44-.31s-1,1.47-1.64,1.83c-1.19.63-1.93.51-2.12.14S54.23,105,55.4,104.4Z"/><path class="cls-1" d="M335.11,139.74a11,11,0,0,1-5.54-1.46c-3.41-2-5.49-5.75-5.7-10.36a23.91,23.91,0,0,1,2.36-10.73c-11.41-1.14-16.57-7.34-16.57-13.49,0-5.9,5.13-12.2,16.28-13.45-4.7-10.25-2-17.76,3.21-20.88a10.89,10.89,0,0,1,5.61-1.51c5.19,0,10.44,3.3,14.72,9.17,5.67-8.07,11.53-9.37,14.7-9.37a11.14,11.14,0,0,1,5.55,1.46c3.41,2,5.48,5.75,5.69,10.36a23.73,23.73,0,0,1-2.35,10.73c11.41,1.14,16.56,7.34,16.56,13.49,0,5.9-5.12,12.2-16.27,13.45a23.28,23.28,0,0,1,2.39,10.55c-.17,4.54-2.22,8.31-5.61,10.34a11,11,0,0,1-5.6,1.5c-5.2,0-10.44-3.3-14.72-9.17C344.15,138.45,338.29,139.74,335.11,139.74Z"/><path class="cls-2" d="M330.8,135.43a11.14,11.14,0,0,1-5.55-1.46c-3.4-2-5.48-5.76-5.69-10.36a23.73,23.73,0,0,1,2.35-10.73c-11.41-1.14-16.56-7.34-16.56-13.49,0-5.9,5.12-12.21,16.28-13.46-4.71-10.24-2-17.75,3.21-20.88a11,11,0,0,1,5.6-1.5c5.2,0,10.45,3.3,14.72,9.17,5.67-8.08,11.53-9.37,14.71-9.37a11,11,0,0,1,5.54,1.46c3.41,2,5.49,5.75,5.7,10.35a24,24,0,0,1-2.35,10.73c11.4,1.14,16.56,7.34,16.56,13.5,0,5.89-5.13,12.2-16.28,13.45a23.26,23.26,0,0,1,2.4,10.54c-.18,4.55-2.22,8.32-5.61,10.34a10.89,10.89,0,0,1-5.61,1.51c-5.19,0-10.44-3.31-14.72-9.18C339.84,134.13,334,135.43,330.8,135.43Z"/><path class="cls-3" d="M356.73,100.25c-.77,0-2.3-.39-2.3-.86s1.53-.87,2.3-.87c1.35,0,1.94.45,1.94.87S358.06,100.25,356.73,100.25Z"/><path class="cls-4" d="M380.14,99.39c0-4.07-4.63-8.5-15.25-8.5a28.32,28.32,0,0,0-6.36.9,28,28,0,0,0,4-5.05c5.23-9,3.83-15.41.31-17.46s-9.67-.26-15,8.93a29.44,29.44,0,0,0-2.56,6.43,29,29,0,0,0-2.63-6.4c-5.34-8.95-11.63-10.83-15.12-8.74S322.57,77.83,328,87a27.78,27.78,0,0,0,3.8,4.76,27.75,27.75,0,0,0-6-.82c-10.42,0-15.25,4.43-15.25,8.5s4.63,8.49,15.25,8.49a28.16,28.16,0,0,0,6.35-.9,28.49,28.49,0,0,0-4,5c-5.23,9-3.82,15.42-.3,17.46s9.67.26,15-8.93a28.47,28.47,0,0,0,2.56-6.43,28.52,28.52,0,0,0,2.64,6.4c5.34,8.95,11.62,10.83,15.11,8.74s4.92-8.33-.52-17.45a27.78,27.78,0,0,0-3.8-4.76,27.83,27.83,0,0,0,6,.82C375.31,107.88,380.14,103.45,380.14,99.39Zm-34.79,1.91a3.08,3.08,0,0,0-.75-.65,2.85,2.85,0,0,0-.9-.32,3.11,3.11,0,0,0,.17-.94,3,3,0,0,0-.16-.93,3,3,0,0,0,.87-.33,3.08,3.08,0,0,0,.74-.66,2.91,2.91,0,0,0,.75.65,2.76,2.76,0,0,0,.9.32,2.84,2.84,0,0,0-.17,1,2.92,2.92,0,0,0,.16.92,2.85,2.85,0,0,0-.87.33A2.74,2.74,0,0,0,345.35,101.3Z"/><path class="cls-5" d="M345.07,107.2a7.82,7.82,0,1,1,7.81-7.81A7.81,7.81,0,0,1,345.07,107.2Z"/><path class="cls-3" d="M333.23,98.52c.78,0,2.31.39,2.31.87s-1.53.86-2.31.86c-1.35,0-1.94-.45-1.94-.86S331.91,98.52,333.23,98.52Z"/><path class="cls-3" d="M349.82,110.13c-.36-.68-.75-2.21-.33-2.44s1.48.93,1.85,1.61c.64,1.19.53,1.92.17,2.12S350.46,111.29,349.82,110.13Z"/><path class="cls-3" d="M340.14,88.65c.37.67.76,2.21.34,2.43s-1.49-.93-1.86-1.61c-.64-1.19-.53-1.92-.16-2.12S339.51,87.48,340.14,88.65Z"/><path class="cls-3" d="M351.82,89.79c-.4.66-1.52,1.77-1.93,1.52s.06-1.75.46-2.41c.7-1.16,1.39-1.43,1.74-1.21S352.51,88.66,351.82,89.79Z"/><path class="cls-3" d="M338.14,109c.4-.66,1.53-1.77,1.94-1.52s-.06,1.75-.46,2.41c-.7,1.16-1.4,1.43-1.75,1.21S337.46,110.11,338.14,109Z"/><path class="cls-3" d="M354.62,106.17c-.67-.4-1.78-1.52-1.54-1.93s1.76.05,2.42.45c1.16.69,1.44,1.38,1.22,1.74S355.75,106.85,354.62,106.17Z"/><path class="cls-3" d="M335.35,92.61c.66.39,1.78,1.51,1.53,1.92s-1.75,0-2.42-.45c-1.16-.69-1.43-1.38-1.22-1.73S334.21,91.92,335.35,92.61Z"/><path class="cls-3" d="M343.61,111.09c0-.78.49-2.29,1-2.27s.8,1.57.77,2.34c-.06,1.35-.54,1.92-.95,1.9S343.56,112.41,343.61,111.09Z"/><path class="cls-3" d="M346.35,87.69c0,.77-.48,2.28-1,2.26s-.79-1.57-.76-2.34c.06-1.35.53-1.92.94-1.9S346.41,86.36,346.35,87.69Z"/><path class="cls-3" d="M355.78,94.68c-.68.36-2.22.73-2.44.31s1-1.48,1.64-1.84c1.19-.63,1.93-.51,2.12-.14S357,94.06,355.78,94.68Z"/><path class="cls-3" d="M334.18,104.1c.69-.36,2.22-.74,2.44-.31s-.95,1.47-1.63,1.83c-1.2.63-1.93.51-2.12.14S333,104.71,334.18,104.1Z"/><path class="cls-1" d="M430.92,139.38a11,11,0,0,1-5.54-1.46c-3.41-2-5.49-5.75-5.7-10.35A23.9,23.9,0,0,1,422,116.83c-11.4-1.14-16.56-7.34-16.56-13.49,0-5.9,5.12-12.2,16.28-13.45C417,79.64,419.72,72.13,425,69a10.88,10.88,0,0,1,5.6-1.51c5.2,0,10.45,3.3,14.73,9.17C451,68.6,456.82,67.3,460,67.3a11.07,11.07,0,0,1,5.54,1.46c3.41,2,5.49,5.75,5.7,10.36a24,24,0,0,1-2.35,10.73c11.4,1.14,16.56,7.34,16.56,13.49,0,5.9-5.13,12.2-16.28,13.45a23.3,23.3,0,0,1,2.4,10.55c-.18,4.54-2.22,8.31-5.61,10.34a11,11,0,0,1-5.61,1.5c-5.19,0-10.44-3.3-14.72-9.17C440,138.09,434.09,139.38,430.92,139.38Z"/><path class="cls-2" d="M426.6,135.07a11.1,11.1,0,0,1-5.54-1.46c-3.41-2-5.49-5.76-5.7-10.36a23.88,23.88,0,0,1,2.36-10.73c-11.41-1.14-16.57-7.34-16.57-13.49,0-5.9,5.13-12.2,16.28-13.46-4.7-10.24-2-17.75,3.21-20.88a11,11,0,0,1,5.61-1.5c5.2,0,10.44,3.3,14.72,9.17,5.67-8.08,11.53-9.37,14.7-9.37a11,11,0,0,1,5.55,1.46c3.41,2,5.48,5.75,5.69,10.35a23.73,23.73,0,0,1-2.35,10.73C476,86.67,481.12,92.87,481.12,99c0,5.89-5.12,12.2-16.27,13.45A23.24,23.24,0,0,1,467.24,123c-.17,4.55-2.22,8.32-5.61,10.34a10.88,10.88,0,0,1-5.6,1.51c-5.2,0-10.44-3.31-14.72-9.18C435.64,133.77,429.78,135.07,426.6,135.07Z"/><path class="cls-3" d="M452.54,99.89c-.77,0-2.31-.39-2.31-.86s1.54-.87,2.31-.87c1.35,0,1.94.45,1.94.87S453.86,99.89,452.54,99.89Z"/><path class="cls-4" d="M476,99c0-4.07-4.64-8.5-15.26-8.5a28.16,28.16,0,0,0-6.35.9,28.49,28.49,0,0,0,4-5.05c5.23-9,3.82-15.41.31-17.46s-9.68-.26-15,8.93a28.47,28.47,0,0,0-2.56,6.43,29,29,0,0,0-2.63-6.4c-5.35-8.95-11.63-10.83-15.12-8.74s-4.92,8.33.52,17.45a27.78,27.78,0,0,0,3.8,4.76,27.83,27.83,0,0,0-6-.82c-10.43,0-15.26,4.43-15.26,8.5s4.63,8.49,15.26,8.49a28.24,28.24,0,0,0,6.35-.9,28,28,0,0,0-4,5c-5.23,9-3.82,15.42-.31,17.46s9.68.26,15-8.93a28.94,28.94,0,0,0,2.56-6.43,29,29,0,0,0,2.63,6.4c5.34,9,11.63,10.83,15.12,8.74s4.92-8.33-.52-17.45a27.78,27.78,0,0,0-3.8-4.76,27.75,27.75,0,0,0,6,.82C471.11,107.52,476,103.09,476,99Zm-34.8,1.91a2.91,2.91,0,0,0-.75-.65,2.76,2.76,0,0,0-.9-.32,2.83,2.83,0,0,0,.17-.94,3,3,0,0,0-.16-.93,3,3,0,0,0,.88-.33,3.08,3.08,0,0,0,.74-.66,3,3,0,0,0,.74.65,2.85,2.85,0,0,0,.9.32,3.12,3.12,0,0,0-.17,1,2.67,2.67,0,0,0,.17.92,2.91,2.91,0,0,0-.88.33A3.08,3.08,0,0,0,441.15,100.94Z"/><path class="cls-5" d="M440.88,106.84A7.82,7.82,0,1,1,448.69,99,7.82,7.82,0,0,1,440.88,106.84Z"/><path class="cls-3" d="M429,98.16c.77,0,2.3.39,2.3.87s-1.53.86-2.3.86c-1.35,0-1.94-.45-1.94-.86S427.71,98.16,429,98.16Z"/><path class="cls-3" d="M445.63,109.77c-.37-.68-.76-2.21-.34-2.44s1.49.93,1.86,1.61c.64,1.19.53,1.92.16,2.12S446.26,110.93,445.63,109.77Z"/><path class="cls-3" d="M436,88.29c.36.67.75,2.21.34,2.43s-1.49-.93-1.86-1.61c-.64-1.19-.53-1.92-.17-2.12S435.31,87.12,436,88.29Z"/><path class="cls-3" d="M447.63,89.43c-.4.66-1.53,1.77-1.94,1.52s.06-1.75.46-2.41c.71-1.16,1.4-1.43,1.75-1.21S448.32,88.3,447.63,89.43Z"/><path class="cls-3" d="M434,108.62c.4-.66,1.53-1.77,1.93-1.52s-.06,1.75-.46,2.41c-.7,1.16-1.39,1.43-1.74,1.21S433.26,109.75,434,108.62Z"/><path class="cls-3" d="M450.42,105.81c-.66-.4-1.77-1.52-1.53-1.93s1.76.05,2.42.45c1.16.69,1.43,1.38,1.22,1.74S451.56,106.49,450.42,105.81Z"/><path class="cls-3" d="M431.16,92.25c.66.39,1.77,1.51,1.53,1.92s-1.76,0-2.42-.45c-1.16-.69-1.43-1.38-1.22-1.73S430,91.56,431.16,92.25Z"/><path class="cls-3" d="M439.42,110.73c0-.78.48-2.29,1-2.27s.8,1.57.76,2.34c-.06,1.35-.53,1.92-.94,1.9S439.36,112.05,439.42,110.73Z"/><path class="cls-3" d="M442.16,87.33c0,.77-.49,2.28-1,2.26s-.8-1.57-.77-2.34c.06-1.35.54-1.92.95-1.9S442.22,86,442.16,87.33Z"/><path class="cls-3" d="M451.59,94.32c-.69.36-2.22.73-2.44.31s1-1.48,1.63-1.84c1.2-.63,1.93-.51,2.12-.14S452.76,93.7,451.59,94.32Z"/><path class="cls-3" d="M430,103.74c.68-.36,2.22-.74,2.44-.31s-.95,1.47-1.64,1.83c-1.19.63-1.92.51-2.12.14S428.82,104.35,430,103.74Z"/><path class="cls-1" d="M148.68,140a11,11,0,0,1-5.54-1.46c-3.41-2-5.49-5.75-5.7-10.36a24,24,0,0,1,2.35-10.73c-11.4-1.14-16.56-7.34-16.56-13.49,0-5.9,5.13-12.2,16.28-13.45-4.71-10.25-2-17.76,3.21-20.88a10.88,10.88,0,0,1,5.6-1.51c5.2,0,10.45,3.3,14.73,9.17,5.66-8.07,11.53-9.37,14.7-9.37a11.07,11.07,0,0,1,5.54,1.46c3.41,2,5.49,5.75,5.7,10.36a24,24,0,0,1-2.35,10.73C198,91.65,203.2,97.85,203.2,104c0,5.9-5.13,12.2-16.28,13.45a23.3,23.3,0,0,1,2.4,10.55c-.18,4.54-2.22,8.31-5.61,10.34a11,11,0,0,1-5.6,1.5c-5.2,0-10.45-3.3-14.73-9.17C157.72,138.75,151.85,140,148.68,140Z"/><path class="cls-2" d="M144.36,135.73a11,11,0,0,1-5.54-1.47c-3.41-2-5.48-5.75-5.7-10.35a23.88,23.88,0,0,1,2.36-10.73c-11.41-1.14-16.57-7.34-16.57-13.49,0-5.9,5.13-12.21,16.28-13.46-4.7-10.24-2-17.75,3.21-20.88a11,11,0,0,1,5.61-1.5c5.2,0,10.44,3.3,14.72,9.17,5.67-8.08,11.53-9.37,14.71-9.37A11,11,0,0,1,179,65.11c3.41,2,5.48,5.75,5.7,10.35a23.88,23.88,0,0,1-2.36,10.73c11.41,1.14,16.57,7.34,16.57,13.5,0,5.89-5.13,12.2-16.28,13.45A23.11,23.11,0,0,1,185,123.68c-.17,4.55-2.22,8.32-5.61,10.34a10.94,10.94,0,0,1-5.6,1.5c-5.2,0-10.44-3.3-14.72-9.17C153.4,134.43,147.54,135.73,144.36,135.73Z"/><path class="cls-3" d="M170.3,100.55c-.77,0-2.3-.39-2.3-.86s1.53-.87,2.3-.87c1.35,0,1.94.45,1.94.87S171.63,100.55,170.3,100.55Z"/><path class="cls-4" d="M193.71,99.69c0-4.07-4.64-8.5-15.26-8.5a28.24,28.24,0,0,0-6.35.9,28.49,28.49,0,0,0,4-5c5.23-9,3.82-15.41.31-17.46s-9.68-.26-15,8.93a28.47,28.47,0,0,0-2.56,6.43,29,29,0,0,0-2.63-6.4c-5.34-9-11.63-10.83-15.12-8.74s-4.92,8.33.52,17.45a27.78,27.78,0,0,0,3.8,4.76,27.75,27.75,0,0,0-6-.82c-10.42,0-15.26,4.43-15.26,8.5s4.64,8.49,15.26,8.49a28.24,28.24,0,0,0,6.35-.9,28.49,28.49,0,0,0-4,5c-5.23,9-3.82,15.42-.31,17.46s9.68.26,15-8.93a28.94,28.94,0,0,0,2.56-6.43,29,29,0,0,0,2.63,6.4c5.34,9,11.63,10.83,15.12,8.74s4.92-8.33-.52-17.45a27.78,27.78,0,0,0-3.8-4.76,27.75,27.75,0,0,0,6,.82C188.87,108.18,193.71,103.75,193.71,99.69Zm-34.8,1.91a2.91,2.91,0,0,0-.75-.65,2.71,2.71,0,0,0-.89-.32,3.11,3.11,0,0,0,.17-.94,3,3,0,0,0-.17-.93,2.91,2.91,0,0,0,.88-.33,3.08,3.08,0,0,0,.74-.66,3,3,0,0,0,.74.65,2.82,2.82,0,0,0,.91.32,2.86,2.86,0,0,0-.18,1,2.93,2.93,0,0,0,.17.92,2.91,2.91,0,0,0-.88.33A3.08,3.08,0,0,0,158.91,101.6Z"/><path class="cls-5" d="M158.64,107.5a7.82,7.82,0,1,1,7.81-7.81A7.81,7.81,0,0,1,158.64,107.5Z"/><path class="cls-3" d="M146.8,98.82c.77,0,2.3.39,2.3.87s-1.53.86-2.3.86c-1.35,0-1.94-.45-1.94-.86S145.48,98.82,146.8,98.82Z"/><path class="cls-3" d="M163.39,110.42c-.37-.67-.76-2.2-.34-2.43s1.49.93,1.86,1.61c.64,1.19.53,1.92.17,2.12S164,111.59,163.39,110.42Z"/><path class="cls-3" d="M153.71,89c.37.67.76,2.21.34,2.43s-1.49-.93-1.86-1.61c-.64-1.19-.53-1.92-.17-2.12S153.08,87.78,153.71,89Z"/><path class="cls-3" d="M165.39,90.09c-.4.66-1.53,1.77-1.93,1.52s0-1.75.45-2.41c.71-1.16,1.4-1.43,1.75-1.21S166.08,89,165.39,90.09Z"/><path class="cls-3" d="M151.71,109.28c.4-.66,1.53-1.77,1.93-1.52s0,1.75-.45,2.41c-.71,1.16-1.4,1.43-1.75,1.21S151,110.41,151.71,109.28Z"/><path class="cls-3" d="M168.18,106.47c-.66-.4-1.77-1.52-1.53-1.93s1.76,0,2.42.45c1.16.69,1.43,1.38,1.22,1.74S169.32,107.15,168.18,106.47Z"/><path class="cls-3" d="M148.92,92.9c.66.4,1.77,1.52,1.53,1.93s-1.76,0-2.42-.45c-1.16-.69-1.43-1.38-1.22-1.73S147.78,92.22,148.92,92.9Z"/><path class="cls-3" d="M157.18,111.39c0-.78.49-2.29,1-2.27s.8,1.57.76,2.34c-.05,1.35-.53,1.92-.94,1.9S157.12,112.71,157.18,111.39Z"/><path class="cls-3" d="M159.92,88c0,.77-.49,2.28-1,2.26s-.8-1.57-.76-2.34c.05-1.35.53-1.92.94-1.9S160,86.66,159.92,88Z"/><path class="cls-3" d="M169.35,95c-.68.37-2.22.74-2.44.32s1-1.48,1.63-1.84c1.2-.63,1.93-.51,2.13-.14S170.52,94.36,169.35,95Z"/><path class="cls-3" d="M147.75,104.4c.69-.37,2.22-.74,2.44-.31s-.95,1.47-1.63,1.83c-1.2.63-1.93.51-2.12.14S146.58,105,147.75,104.4Z"/><path class="cls-1" d="M241.9,139.74a11,11,0,0,1-5.55-1.46c-3.41-2-5.48-5.75-5.69-10.36A23.76,23.76,0,0,1,233,117.19c-11.41-1.14-16.56-7.34-16.56-13.49,0-5.9,5.12-12.2,16.27-13.45-4.7-10.25-2-17.76,3.22-20.88a10.85,10.85,0,0,1,5.6-1.51c5.2,0,10.44,3.3,14.72,9.17,5.67-8.07,11.53-9.37,14.71-9.37a11.1,11.1,0,0,1,5.54,1.46c3.41,2,5.49,5.75,5.7,10.36a23.88,23.88,0,0,1-2.36,10.73c11.41,1.14,16.57,7.34,16.57,13.49,0,5.9-5.13,12.2-16.28,13.45a23.3,23.3,0,0,1,2.4,10.55c-.18,4.54-2.22,8.31-5.61,10.34a11,11,0,0,1-5.61,1.5c-5.19,0-10.44-3.3-14.72-9.17C250.94,138.45,245.07,139.74,241.9,139.74Z"/><path class="cls-2" d="M237.58,135.43A11.07,11.07,0,0,1,232,134c-3.41-2-5.49-5.76-5.7-10.36a24,24,0,0,1,2.35-10.73c-11.4-1.14-16.56-7.34-16.56-13.49,0-5.9,5.13-12.21,16.28-13.46-4.7-10.24-2-17.75,3.21-20.88a11,11,0,0,1,5.6-1.5c5.2,0,10.45,3.3,14.73,9.17,5.66-8.08,11.53-9.37,14.7-9.37a11,11,0,0,1,5.54,1.46c3.41,2,5.49,5.75,5.7,10.35a23.86,23.86,0,0,1-2.35,10.73c11.4,1.14,16.56,7.34,16.56,13.5,0,5.89-5.12,12.2-16.27,13.45a23.24,23.24,0,0,1,2.39,10.54c-.17,4.55-2.22,8.32-5.61,10.34a10.88,10.88,0,0,1-5.6,1.51c-5.2,0-10.45-3.31-14.73-9.18C246.62,134.13,240.75,135.43,237.58,135.43Z"/><path class="cls-3" d="M263.52,100.25c-.78,0-2.31-.39-2.31-.86s1.53-.87,2.31-.87c1.35,0,1.94.45,1.94.87S264.84,100.25,263.52,100.25Z"/><path class="cls-4" d="M286.92,99.39c0-4.07-4.63-8.5-15.25-8.5a28.32,28.32,0,0,0-6.36.9,27.59,27.59,0,0,0,4-5.05c5.24-9,3.83-15.41.31-17.46s-9.67-.26-15,8.93A28.47,28.47,0,0,0,252,84.64a29,29,0,0,0-2.64-6.4c-5.34-8.95-11.62-10.83-15.11-8.74s-4.93,8.33.52,17.45a27.29,27.29,0,0,0,3.8,4.76,27.91,27.91,0,0,0-6-.82c-10.42,0-15.25,4.43-15.25,8.5s4.63,8.49,15.25,8.49a28.32,28.32,0,0,0,6.36-.9,28,28,0,0,0-4,5c-5.23,9-3.83,15.42-.31,17.46s9.67.26,15-8.93a29,29,0,0,0,2.55-6.43,29,29,0,0,0,2.64,6.4c5.34,8.95,11.62,10.83,15.12,8.74s4.92-8.33-.53-17.45a27.29,27.29,0,0,0-3.8-4.76,27.91,27.91,0,0,0,6,.82C282.09,107.88,286.92,103.45,286.92,99.39Zm-34.79,1.91a2.91,2.91,0,0,0-.75-.65,2.76,2.76,0,0,0-.9-.32,2.83,2.83,0,0,0,.17-.94,3,3,0,0,0-.16-.93,3,3,0,0,0,.88-.33,2.86,2.86,0,0,0,.73-.66,3.08,3.08,0,0,0,.75.65,2.85,2.85,0,0,0,.9.32,3.12,3.12,0,0,0-.17,1,2.92,2.92,0,0,0,.16.92,3,3,0,0,0-.87.33A3.08,3.08,0,0,0,252.13,101.3Z"/><path class="cls-5" d="M251.85,107.2a7.82,7.82,0,1,1,7.81-7.81A7.81,7.81,0,0,1,251.85,107.2Z"/><path class="cls-3" d="M240,98.52c.77,0,2.3.39,2.3.87s-1.53.86-2.3.86c-1.35,0-1.94-.45-1.94-.86S238.69,98.52,240,98.52Z"/><path class="cls-3" d="M256.61,110.13c-.37-.68-.76-2.21-.34-2.44s1.49.93,1.85,1.61c.65,1.19.53,1.92.17,2.12S257.24,111.29,256.61,110.13Z"/><path class="cls-3" d="M246.92,88.65c.37.67.76,2.21.34,2.43s-1.48-.93-1.85-1.61c-.65-1.19-.53-1.92-.17-2.12S246.29,87.48,246.92,88.65Z"/><path class="cls-3" d="M258.61,89.79c-.4.66-1.53,1.77-1.94,1.52s.06-1.75.46-2.41c.7-1.16,1.4-1.43,1.75-1.21S259.3,88.66,258.61,89.79Z"/><path class="cls-3" d="M244.93,109c.4-.66,1.52-1.77,1.93-1.52s-.06,1.75-.46,2.41c-.7,1.16-1.39,1.43-1.74,1.21S244.24,110.11,244.93,109Z"/><path class="cls-3" d="M261.4,106.17c-.66-.4-1.78-1.52-1.53-1.93s1.75.05,2.42.45c1.16.69,1.43,1.38,1.22,1.74S262.54,106.85,261.4,106.17Z"/><path class="cls-3" d="M242.13,92.61c.67.39,1.78,1.51,1.54,1.92s-1.76,0-2.42-.45c-1.16-.69-1.44-1.38-1.23-1.73S241,91.92,242.13,92.61Z"/><path class="cls-3" d="M250.4,111.09c0-.78.48-2.29,1-2.27s.79,1.57.76,2.34c-.06,1.35-.53,1.92-1,1.9S250.34,112.41,250.4,111.09Z"/><path class="cls-3" d="M253.14,87.69c0,.77-.49,2.28-1,2.26s-.8-1.57-.77-2.34c.06-1.35.54-1.92,1-1.9S253.19,86.36,253.14,87.69Z"/><path class="cls-3" d="M262.56,94.68c-.68.36-2.21.73-2.44.31s1-1.48,1.64-1.84c1.2-.63,1.93-.51,2.12-.14S263.74,94.06,262.56,94.68Z"/><path class="cls-3" d="M241,104.1c.68-.36,2.22-.74,2.44-.31s-.95,1.47-1.64,1.83c-1.19.63-1.93.51-2.12.14S239.8,104.71,241,104.1Z"/><path class="cls-1" d="M56.33,235.5A11,11,0,0,1,50.78,234c-3.41-2-5.48-5.75-5.69-10.35A23.73,23.73,0,0,1,47.44,213c-11.41-1.14-16.56-7.34-16.56-13.49,0-5.9,5.12-12.21,16.27-13.46-4.7-10.24-2-17.75,3.22-20.88a11,11,0,0,1,5.6-1.5c5.2,0,10.44,3.3,14.72,9.17,5.67-8.08,11.53-9.37,14.71-9.37a11,11,0,0,1,5.54,1.46c3.41,2,5.49,5.75,5.7,10.35A23.88,23.88,0,0,1,94.28,186c11.41,1.14,16.57,7.34,16.57,13.5,0,5.89-5.13,12.2-16.28,13.45A23.26,23.26,0,0,1,97,223.45c-.18,4.55-2.22,8.32-5.61,10.34a11,11,0,0,1-5.61,1.5c-5.19,0-10.44-3.3-14.72-9.17C65.37,234.2,59.5,235.5,56.33,235.5Z"/><path class="cls-2" d="M52,231.18a11.07,11.07,0,0,1-5.54-1.46c-3.41-2-5.49-5.75-5.7-10.36a24,24,0,0,1,2.35-10.73c-11.4-1.14-16.56-7.34-16.56-13.49,0-5.9,5.13-12.2,16.28-13.45-4.7-10.25-2-17.76,3.21-20.89a11,11,0,0,1,5.6-1.5c5.2,0,10.45,3.3,14.73,9.17,5.66-8.08,11.53-9.37,14.7-9.37a11,11,0,0,1,5.54,1.46c3.41,2,5.49,5.75,5.7,10.36A23.89,23.89,0,0,1,90,181.65c11.41,1.14,16.56,7.34,16.56,13.49,0,5.9-5.12,12.2-16.27,13.45a23.28,23.28,0,0,1,2.39,10.55c-.17,4.54-2.22,8.31-5.61,10.33a10.88,10.88,0,0,1-5.6,1.51c-5.2,0-10.45-3.3-14.73-9.17C61.05,229.88,55.18,231.18,52,231.18Z"/><path class="cls-3" d="M78,196c-.78,0-2.31-.38-2.31-.86s1.53-.86,2.31-.86c1.35,0,1.94.45,1.94.86S79.27,196,78,196Z"/><path class="cls-4" d="M101.35,195.14c0-4.07-4.63-8.5-15.25-8.5a28.32,28.32,0,0,0-6.36.9,27.55,27.55,0,0,0,4-5c5.24-9,3.83-15.42.31-17.46s-9.67-.26-15,8.92a28.66,28.66,0,0,0-2.56,6.43,29.2,29.2,0,0,0-2.64-6.4c-5.34-8.94-11.62-10.82-15.11-8.74s-4.93,8.33.52,17.45a26.93,26.93,0,0,0,3.8,4.76,27.91,27.91,0,0,0-6-.82c-10.42,0-15.25,4.43-15.25,8.5s4.63,8.5,15.25,8.5a28.32,28.32,0,0,0,6.36-.9,28,28,0,0,0-4,5c-5.23,9-3.83,15.42-.31,17.46s9.67.26,15-8.92a29.54,29.54,0,0,0,2.56-6.44,28.63,28.63,0,0,0,2.63,6.41c5.34,8.94,11.62,10.82,15.12,8.74s4.92-8.34-.53-17.46a27.67,27.67,0,0,0-3.8-4.76,27.37,27.37,0,0,0,6,.83C96.52,203.64,101.35,199.2,101.35,195.14Zm-34.79,1.91a2.87,2.87,0,0,0-.75-.64,3,3,0,0,0-.9-.33,2.79,2.79,0,0,0,.17-.94,2.92,2.92,0,0,0-.16-.92,3,3,0,0,0,.88-.34,2.82,2.82,0,0,0,.73-.65,3,3,0,0,0,.75.64,3.14,3.14,0,0,0,.9.33,3.05,3.05,0,0,0-.17.94,2.92,2.92,0,0,0,.16.92,3,3,0,0,0-.87.34A3,3,0,0,0,66.56,197.05Z"/><path class="cls-5" d="M66.28,203a7.81,7.81,0,1,1,7.82-7.81A7.81,7.81,0,0,1,66.28,203Z"/><path class="cls-3" d="M54.45,194.28c.77,0,2.3.38,2.3.86s-1.53.86-2.3.86c-1.35,0-1.94-.45-1.94-.86S53.12,194.28,54.45,194.28Z"/><path class="cls-3" d="M71,205.88c-.37-.68-.76-2.21-.34-2.44s1.49.94,1.85,1.62c.65,1.19.53,1.92.17,2.11S71.67,207,71,205.88Z"/><path class="cls-3" d="M61.35,184.4c.37.68.76,2.21.34,2.44s-1.48-.94-1.85-1.62c-.65-1.19-.53-1.92-.17-2.12S60.72,183.23,61.35,184.4Z"/><path class="cls-3" d="M73,185.55c-.4.66-1.53,1.76-1.94,1.52s.06-1.76.46-2.42c.7-1.15,1.4-1.42,1.75-1.21S73.73,184.42,73,185.55Z"/><path class="cls-3" d="M59.36,204.73c.4-.66,1.52-1.77,1.93-1.52s-.06,1.76-.46,2.42c-.7,1.15-1.39,1.42-1.74,1.21S58.67,205.87,59.36,204.73Z"/><path class="cls-3" d="M75.83,201.92c-.66-.4-1.78-1.51-1.53-1.92s1.75,0,2.42.44c1.16.7,1.43,1.39,1.22,1.74S77,202.6,75.83,201.92Z"/><path class="cls-3" d="M56.56,188.36c.67.4,1.78,1.51,1.54,1.92s-1.76,0-2.42-.44c-1.16-.7-1.44-1.39-1.23-1.74S55.43,187.68,56.56,188.36Z"/><path class="cls-3" d="M64.83,206.84c0-.77.48-2.28,1-2.26s.79,1.56.76,2.33c-.06,1.35-.53,1.93-.94,1.91S64.77,208.16,64.83,206.84Z"/><path class="cls-3" d="M67.57,183.44c0,.77-.49,2.28-1,2.26s-.8-1.57-.77-2.34c.06-1.35.54-1.92,1-1.9S67.62,182.11,67.57,183.44Z"/><path class="cls-3" d="M77,190.43c-.68.36-2.21.73-2.44.31s1-1.48,1.64-1.84c1.2-.63,1.93-.5,2.12-.14S78.17,189.81,77,190.43Z"/><path class="cls-3" d="M55.4,199.85c.68-.36,2.22-.73,2.44-.31s-1,1.48-1.64,1.84c-1.19.63-1.93.5-2.12.14S54.23,200.47,55.4,199.85Z"/><path class="cls-1" d="M335.11,235.2a11,11,0,0,1-5.54-1.47c-3.41-2-5.49-5.75-5.7-10.35a23.88,23.88,0,0,1,2.36-10.73c-11.41-1.14-16.57-7.34-16.57-13.49,0-5.9,5.13-12.21,16.28-13.46-4.7-10.24-2-17.75,3.21-20.88a11,11,0,0,1,5.61-1.5c5.19,0,10.44,3.3,14.72,9.17,5.67-8.08,11.53-9.37,14.7-9.37a11,11,0,0,1,5.55,1.46c3.41,2,5.48,5.75,5.69,10.35a23.73,23.73,0,0,1-2.35,10.73c11.41,1.14,16.56,7.34,16.56,13.5,0,5.89-5.12,12.2-16.27,13.45a23.24,23.24,0,0,1,2.39,10.54c-.17,4.55-2.22,8.32-5.61,10.34a11,11,0,0,1-5.6,1.5c-5.2,0-10.44-3.3-14.72-9.17C344.15,233.9,338.29,235.2,335.11,235.2Z"/><path class="cls-2" d="M330.8,230.88a11,11,0,0,1-5.55-1.46c-3.4-2-5.48-5.75-5.69-10.36a23.73,23.73,0,0,1,2.35-10.73c-11.41-1.14-16.56-7.34-16.56-13.49,0-5.9,5.12-12.2,16.28-13.45-4.71-10.25-2-17.76,3.21-20.89a11,11,0,0,1,5.6-1.5c5.2,0,10.45,3.3,14.72,9.17,5.67-8.08,11.53-9.37,14.71-9.37a11,11,0,0,1,5.54,1.46c3.41,2,5.49,5.75,5.7,10.36a24,24,0,0,1-2.35,10.73c11.4,1.14,16.56,7.34,16.56,13.49,0,5.9-5.13,12.2-16.28,13.45a23.3,23.3,0,0,1,2.4,10.55c-.18,4.54-2.22,8.31-5.61,10.33a10.89,10.89,0,0,1-5.61,1.51c-5.19,0-10.44-3.3-14.72-9.17C339.84,229.58,334,230.88,330.8,230.88Z"/><path class="cls-3" d="M356.73,195.7c-.77,0-2.3-.38-2.3-.86s1.53-.86,2.3-.86c1.35,0,1.94.45,1.94.86S358.06,195.7,356.73,195.7Z"/><path class="cls-4" d="M380.14,194.84c0-4.07-4.63-8.5-15.25-8.5a28.32,28.32,0,0,0-6.36.9,28,28,0,0,0,4-5c5.23-9,3.83-15.42.31-17.46s-9.67-.26-15,8.92a29.54,29.54,0,0,0-2.56,6.44,29.11,29.11,0,0,0-2.63-6.41c-5.34-8.94-11.63-10.82-15.12-8.74s-4.92,8.33.52,17.45a27.81,27.81,0,0,0,3.8,4.77,27.21,27.21,0,0,0-6-.83c-10.42,0-15.25,4.43-15.25,8.5s4.63,8.5,15.25,8.5a28.16,28.16,0,0,0,6.35-.9,28.45,28.45,0,0,0-4,5c-5.23,9-3.82,15.42-.3,17.46s9.67.26,15-8.92a28.56,28.56,0,0,0,2.56-6.44,28.62,28.62,0,0,0,2.64,6.41c5.34,8.94,11.62,10.82,15.11,8.74s4.92-8.34-.52-17.46a28.16,28.16,0,0,0-3.8-4.76,27.29,27.29,0,0,0,6,.83C375.31,203.34,380.14,198.9,380.14,194.84Zm-34.79,1.91a3,3,0,0,0-.75-.64,3.14,3.14,0,0,0-.9-.33,3.05,3.05,0,0,0,.17-.94,2.92,2.92,0,0,0-.16-.92,3,3,0,0,0,.87-.34,3,3,0,0,0,.74-.65,2.87,2.87,0,0,0,.75.64,3,3,0,0,0,.9.33,2.79,2.79,0,0,0-.17.94,2.92,2.92,0,0,0,.16.92,2.87,2.87,0,0,0-.87.34A2.71,2.71,0,0,0,345.35,196.75Z"/><path class="cls-5" d="M345.07,202.65a7.81,7.81,0,1,1,7.81-7.81A7.81,7.81,0,0,1,345.07,202.65Z"/><path class="cls-3" d="M333.23,194c.78,0,2.31.38,2.31.86s-1.53.86-2.31.86c-1.35,0-1.94-.45-1.94-.86S331.91,194,333.23,194Z"/><path class="cls-3" d="M349.82,205.58c-.36-.68-.75-2.21-.33-2.44s1.48.94,1.85,1.62c.64,1.19.53,1.92.17,2.12S350.46,206.75,349.82,205.58Z"/><path class="cls-3" d="M340.14,184.1c.37.68.76,2.21.34,2.44s-1.49-.94-1.86-1.62c-.64-1.19-.53-1.92-.16-2.12S339.51,182.93,340.14,184.1Z"/><path class="cls-3" d="M351.82,185.25c-.4.66-1.52,1.77-1.93,1.52s.06-1.76.46-2.42c.7-1.15,1.39-1.42,1.74-1.21S352.51,184.12,351.82,185.25Z"/><path class="cls-3" d="M338.14,204.43c.4-.66,1.53-1.77,1.94-1.52s-.06,1.76-.46,2.42c-.7,1.15-1.4,1.42-1.75,1.21S337.46,205.57,338.14,204.43Z"/><path class="cls-3" d="M354.62,201.62c-.67-.4-1.78-1.51-1.54-1.92s1.76,0,2.42.44c1.16.7,1.44,1.39,1.22,1.74S355.75,202.3,354.62,201.62Z"/><path class="cls-3" d="M335.35,188.06c.66.4,1.78,1.51,1.53,1.92s-1.75,0-2.42-.44c-1.16-.7-1.43-1.39-1.22-1.74S334.21,187.38,335.35,188.06Z"/><path class="cls-3" d="M343.61,206.54c0-.77.49-2.28,1-2.26s.8,1.56.77,2.33c-.06,1.35-.54,1.93-.95,1.91S343.56,207.86,343.61,206.54Z"/><path class="cls-3" d="M346.35,183.14c0,.77-.48,2.28-1,2.26s-.79-1.57-.76-2.34c.06-1.35.53-1.92.94-1.9S346.41,181.81,346.35,183.14Z"/><path class="cls-3" d="M355.78,190.13c-.68.36-2.22.73-2.44.31s1-1.48,1.64-1.84c1.19-.63,1.93-.5,2.12-.14S357,189.51,355.78,190.13Z"/><path class="cls-3" d="M334.18,199.55c.69-.36,2.22-.73,2.44-.31s-.95,1.48-1.63,1.84c-1.2.63-1.93.5-2.12.14S333,200.17,334.18,199.55Z"/><path class="cls-1" d="M430.92,234.84a11,11,0,0,1-5.54-1.47c-3.41-2-5.49-5.75-5.7-10.35A23.86,23.86,0,0,1,422,212.29c-11.4-1.14-16.56-7.34-16.56-13.49,0-5.9,5.12-12.21,16.28-13.46-4.71-10.24-2-17.75,3.21-20.88a11,11,0,0,1,5.6-1.5c5.2,0,10.45,3.3,14.73,9.17,5.66-8.08,11.53-9.37,14.7-9.37a11,11,0,0,1,5.54,1.46c3.41,2,5.49,5.75,5.7,10.35a24,24,0,0,1-2.35,10.73c11.4,1.14,16.56,7.34,16.56,13.5,0,5.89-5.13,12.2-16.28,13.45a23.26,23.26,0,0,1,2.4,10.54c-.18,4.55-2.22,8.32-5.61,10.34a10.89,10.89,0,0,1-5.61,1.51c-5.19,0-10.44-3.31-14.72-9.18C440,233.54,434.09,234.84,430.92,234.84Z"/><path class="cls-2" d="M426.6,230.52a11,11,0,0,1-5.54-1.46c-3.41-2-5.49-5.75-5.7-10.36A23.88,23.88,0,0,1,417.72,208c-11.41-1.14-16.57-7.34-16.57-13.49,0-5.9,5.13-12.2,16.28-13.45-4.7-10.25-2-17.76,3.21-20.88a10.89,10.89,0,0,1,5.61-1.51c5.2,0,10.44,3.3,14.72,9.17,5.67-8.08,11.53-9.37,14.7-9.37a11,11,0,0,1,5.55,1.46c3.41,2,5.48,5.75,5.69,10.36A23.73,23.73,0,0,1,464.56,181c11.41,1.14,16.56,7.34,16.56,13.49,0,5.9-5.12,12.2-16.27,13.45a23.28,23.28,0,0,1,2.39,10.55c-.17,4.54-2.22,8.31-5.61,10.33a10.88,10.88,0,0,1-5.6,1.51c-5.2,0-10.44-3.3-14.72-9.17C435.64,229.22,429.78,230.52,426.6,230.52Z"/><path class="cls-3" d="M452.54,195.34c-.77,0-2.31-.38-2.31-.86s1.54-.86,2.31-.86c1.35,0,1.94.45,1.94.86S453.86,195.34,452.54,195.34Z"/><path class="cls-4" d="M476,194.48c0-4.07-4.64-8.5-15.26-8.5a28.16,28.16,0,0,0-6.35.9,28.45,28.45,0,0,0,4-5c5.23-9,3.82-15.42.31-17.46s-9.68-.26-15,8.92a28.56,28.56,0,0,0-2.56,6.44,29.11,29.11,0,0,0-2.63-6.41c-5.35-8.94-11.63-10.82-15.12-8.74s-4.92,8.33.52,17.45a27.81,27.81,0,0,0,3.8,4.77,27.29,27.29,0,0,0-6-.83c-10.43,0-15.26,4.43-15.26,8.5S411,203,421.59,203a28.24,28.24,0,0,0,6.35-.9,28,28,0,0,0-4,5c-5.23,9-3.82,15.42-.31,17.46s9.68.26,15-8.92a29,29,0,0,0,2.56-6.44,29.11,29.11,0,0,0,2.63,6.41c5.34,8.94,11.63,10.82,15.12,8.74s4.92-8.34-.52-17.46a28.16,28.16,0,0,0-3.8-4.76,27.21,27.21,0,0,0,6,.83C471.11,203,476,198.54,476,194.48Zm-34.8,1.91a2.87,2.87,0,0,0-.75-.64,3,3,0,0,0-.9-.33,2.79,2.79,0,0,0,.17-.94,2.92,2.92,0,0,0-.16-.92,2.75,2.75,0,0,0,1.62-1,3,3,0,0,0,.74.64,3.14,3.14,0,0,0,.9.33,3.05,3.05,0,0,0-.17.94,2.67,2.67,0,0,0,.17.92,2.93,2.93,0,0,0-.88.34A3,3,0,0,0,441.15,196.39Z"/><path class="cls-5" d="M440.88,202.29a7.81,7.81,0,1,1,7.81-7.81A7.82,7.82,0,0,1,440.88,202.29Z"/><path class="cls-3" d="M429,193.62c.77,0,2.3.38,2.3.86s-1.53.86-2.3.86c-1.35,0-1.94-.45-1.94-.86S427.71,193.62,429,193.62Z"/><path class="cls-3" d="M445.63,205.22c-.37-.68-.76-2.21-.34-2.44s1.49.94,1.86,1.62c.64,1.19.53,1.92.16,2.12S446.26,206.39,445.63,205.22Z"/><path class="cls-3" d="M436,183.74c.36.68.75,2.21.34,2.44s-1.49-.94-1.86-1.62c-.64-1.18-.53-1.92-.17-2.12S435.31,182.57,436,183.74Z"/><path class="cls-3" d="M447.63,184.89c-.4.66-1.53,1.77-1.94,1.52s.06-1.76.46-2.42c.71-1.15,1.4-1.42,1.75-1.21S448.32,183.76,447.63,184.89Z"/><path class="cls-3" d="M434,204.07c.4-.66,1.53-1.77,1.93-1.52s-.06,1.76-.46,2.42c-.7,1.15-1.39,1.42-1.74,1.21S433.26,205.21,434,204.07Z"/><path class="cls-3" d="M450.42,201.26c-.66-.4-1.77-1.51-1.53-1.92s1.76,0,2.42.44c1.16.7,1.43,1.39,1.22,1.74S451.56,201.94,450.42,201.26Z"/><path class="cls-3" d="M431.16,187.7c.66.4,1.77,1.51,1.53,1.92s-1.76,0-2.42-.44c-1.16-.7-1.43-1.39-1.22-1.74S430,187,431.16,187.7Z"/><path class="cls-3" d="M439.42,206.18c0-.77.48-2.28,1-2.26s.8,1.56.76,2.33c-.06,1.35-.53,1.93-.94,1.91S439.36,207.51,439.42,206.18Z"/><path class="cls-3" d="M442.16,182.78c0,.77-.49,2.28-1,2.26s-.8-1.57-.77-2.34c.06-1.35.54-1.92.95-1.9S442.22,181.45,442.16,182.78Z"/><path class="cls-3" d="M451.59,189.77c-.69.36-2.22.73-2.44.31s1-1.48,1.63-1.84c1.2-.63,1.93-.5,2.12-.14S452.76,189.15,451.59,189.77Z"/><path class="cls-3" d="M430,199.19c.68-.36,2.22-.73,2.44-.31s-.95,1.48-1.64,1.84c-1.19.63-1.92.5-2.12.14S428.82,199.81,430,199.19Z"/><path class="cls-1" d="M148.68,235.5a11,11,0,0,1-5.54-1.47c-3.41-2-5.49-5.75-5.7-10.35A24,24,0,0,1,139.79,213c-11.4-1.14-16.56-7.34-16.56-13.49,0-5.9,5.13-12.21,16.28-13.46-4.71-10.24-2-17.75,3.21-20.88a11,11,0,0,1,5.6-1.5c5.2,0,10.45,3.3,14.73,9.17,5.66-8.08,11.53-9.37,14.7-9.37a11,11,0,0,1,5.54,1.46c3.41,2,5.49,5.75,5.7,10.35A24,24,0,0,1,186.64,186c11.4,1.14,16.56,7.34,16.56,13.5,0,5.89-5.13,12.2-16.28,13.45a23.26,23.26,0,0,1,2.4,10.54c-.18,4.55-2.22,8.32-5.61,10.34a11,11,0,0,1-5.6,1.5c-5.2,0-10.45-3.3-14.73-9.17C157.72,234.2,151.85,235.5,148.68,235.5Z"/><path class="cls-2" d="M144.36,231.18a11.1,11.1,0,0,1-5.54-1.46c-3.41-2-5.48-5.75-5.7-10.36a23.88,23.88,0,0,1,2.36-10.73c-11.41-1.14-16.57-7.34-16.57-13.49,0-5.9,5.13-12.2,16.28-13.45-4.7-10.25-2-17.76,3.21-20.89a11,11,0,0,1,5.61-1.5c5.2,0,10.44,3.3,14.72,9.17,5.67-8.08,11.53-9.37,14.71-9.37a11,11,0,0,1,5.54,1.46c3.41,2,5.48,5.75,5.7,10.36a23.91,23.91,0,0,1-2.36,10.73c11.41,1.14,16.57,7.34,16.57,13.49,0,5.9-5.13,12.2-16.28,13.45A23.15,23.15,0,0,1,185,219.14c-.17,4.54-2.22,8.31-5.61,10.33a10.85,10.85,0,0,1-5.6,1.51c-5.2,0-10.44-3.3-14.72-9.17C153.4,229.88,147.54,231.18,144.36,231.18Z"/><path class="cls-3" d="M170.3,196c-.77,0-2.3-.38-2.3-.86s1.53-.86,2.3-.86c1.35,0,1.94.45,1.94.86S171.63,196,170.3,196Z"/><path class="cls-4" d="M193.71,195.14c0-4.07-4.64-8.5-15.26-8.5a28.24,28.24,0,0,0-6.35.9,28.45,28.45,0,0,0,4-5c5.23-9,3.82-15.42.31-17.46s-9.68-.26-15,8.92a28.66,28.66,0,0,0-2.56,6.43,29.22,29.22,0,0,0-2.63-6.4c-5.34-8.94-11.63-10.82-15.12-8.74s-4.92,8.33.52,17.45a27.4,27.4,0,0,0,3.8,4.76,27.75,27.75,0,0,0-6-.82c-10.42,0-15.26,4.43-15.26,8.5s4.64,8.5,15.26,8.5a28.24,28.24,0,0,0,6.35-.9,28.45,28.45,0,0,0-4,5c-5.23,9-3.82,15.42-.31,17.46s9.68.26,15-8.92a29,29,0,0,0,2.56-6.44,29.11,29.11,0,0,0,2.63,6.41c5.34,8.94,11.63,10.82,15.12,8.74s4.92-8.34-.52-17.46a28.16,28.16,0,0,0-3.8-4.76,27.21,27.21,0,0,0,6,.83C188.87,203.64,193.71,199.2,193.71,195.14Zm-34.8,1.91a2.87,2.87,0,0,0-.75-.64,3,3,0,0,0-.89-.33,3.05,3.05,0,0,0,.17-.94,2.93,2.93,0,0,0-.17-.92,2.93,2.93,0,0,0,.88-.34,3,3,0,0,0,.74-.65,3,3,0,0,0,.74.64,3.09,3.09,0,0,0,.91.33,2.8,2.8,0,0,0-.18.94,2.93,2.93,0,0,0,.17.92,2.93,2.93,0,0,0-.88.34A3,3,0,0,0,158.91,197.05Z"/><path class="cls-5" d="M158.64,203a7.81,7.81,0,1,1,7.81-7.81A7.81,7.81,0,0,1,158.64,203Z"/><path class="cls-3" d="M146.8,194.28c.77,0,2.3.38,2.3.86s-1.53.86-2.3.86c-1.35,0-1.94-.45-1.94-.86S145.48,194.28,146.8,194.28Z"/><path class="cls-3" d="M163.39,205.88c-.37-.68-.76-2.21-.34-2.44s1.49.94,1.86,1.62c.64,1.19.53,1.92.17,2.11S164,207,163.39,205.88Z"/><path class="cls-3" d="M153.71,184.4c.37.68.76,2.21.34,2.44s-1.49-.94-1.86-1.62c-.64-1.19-.53-1.92-.17-2.12S153.08,183.23,153.71,184.4Z"/><path class="cls-3" d="M165.39,185.55c-.4.66-1.53,1.76-1.93,1.52s0-1.76.45-2.42c.71-1.15,1.4-1.42,1.75-1.21S166.08,184.42,165.39,185.55Z"/><path class="cls-3" d="M151.71,204.73c.4-.66,1.53-1.77,1.93-1.52s0,1.76-.45,2.42c-.71,1.15-1.4,1.42-1.75,1.21S151,205.87,151.71,204.73Z"/><path class="cls-3" d="M168.18,201.92c-.66-.4-1.77-1.51-1.53-1.92s1.76,0,2.42.44c1.16.7,1.43,1.39,1.22,1.74S169.32,202.6,168.18,201.92Z"/><path class="cls-3" d="M148.92,188.36c.66.4,1.77,1.51,1.53,1.92s-1.76,0-2.42-.44c-1.16-.7-1.43-1.39-1.22-1.74S147.78,187.68,148.92,188.36Z"/><path class="cls-3" d="M157.18,206.84c0-.77.49-2.28,1-2.26s.8,1.56.76,2.33c-.05,1.35-.53,1.93-.94,1.91S157.12,208.16,157.18,206.84Z"/><path class="cls-3" d="M159.92,183.44c0,.77-.49,2.28-1,2.26s-.8-1.57-.76-2.34c.05-1.35.53-1.92.94-1.9S160,182.11,159.92,183.44Z"/><path class="cls-3" d="M169.35,190.43c-.68.36-2.22.73-2.44.31s1-1.48,1.63-1.84c1.2-.63,1.93-.5,2.13-.14S170.52,189.81,169.35,190.43Z"/><path class="cls-3" d="M147.75,199.85c.69-.36,2.22-.73,2.44-.31s-.95,1.48-1.63,1.84c-1.2.63-1.93.5-2.12.14S146.58,200.47,147.75,199.85Z"/><path class="cls-1" d="M241.9,235.2a11,11,0,0,1-5.55-1.47c-3.41-2-5.48-5.75-5.69-10.35A23.73,23.73,0,0,1,233,212.65c-11.41-1.14-16.56-7.34-16.56-13.49,0-5.9,5.12-12.21,16.27-13.46-4.7-10.24-2-17.75,3.22-20.88a10.94,10.94,0,0,1,5.6-1.5c5.2,0,10.44,3.3,14.72,9.17,5.67-8.08,11.53-9.37,14.71-9.37a11,11,0,0,1,5.54,1.46c3.41,2,5.49,5.75,5.7,10.35a23.88,23.88,0,0,1-2.36,10.73c11.41,1.14,16.57,7.34,16.57,13.5,0,5.89-5.13,12.2-16.28,13.45a23.26,23.26,0,0,1,2.4,10.54c-.18,4.55-2.22,8.32-5.61,10.34a11,11,0,0,1-5.61,1.5c-5.19,0-10.44-3.3-14.72-9.17C250.94,233.9,245.07,235.2,241.9,235.2Z"/><path class="cls-2" d="M237.58,230.88a11,11,0,0,1-5.54-1.46c-3.41-2-5.49-5.75-5.7-10.36a24,24,0,0,1,2.35-10.73c-11.4-1.14-16.56-7.34-16.56-13.49,0-5.9,5.13-12.2,16.28-13.45-4.7-10.25-2-17.76,3.21-20.89a11,11,0,0,1,5.6-1.5c5.2,0,10.45,3.3,14.73,9.17,5.66-8.08,11.53-9.37,14.7-9.37a11,11,0,0,1,5.54,1.46c3.41,2,5.49,5.75,5.7,10.36a23.89,23.89,0,0,1-2.35,10.73c11.4,1.14,16.56,7.34,16.56,13.49,0,5.9-5.12,12.2-16.27,13.45a23.28,23.28,0,0,1,2.39,10.55c-.17,4.54-2.22,8.31-5.61,10.33a10.88,10.88,0,0,1-5.6,1.51c-5.2,0-10.45-3.3-14.73-9.17C246.62,229.58,240.75,230.88,237.58,230.88Z"/><path class="cls-3" d="M263.52,195.7c-.78,0-2.31-.38-2.31-.86s1.53-.86,2.31-.86c1.35,0,1.94.45,1.94.86S264.84,195.7,263.52,195.7Z"/><path class="cls-4" d="M286.92,194.84c0-4.07-4.63-8.5-15.25-8.5a28.32,28.32,0,0,0-6.36.9,27.55,27.55,0,0,0,4-5c5.24-9,3.83-15.42.31-17.46s-9.67-.26-15,8.92a28.66,28.66,0,0,0-2.56,6.43,29.2,29.2,0,0,0-2.64-6.4c-5.34-8.94-11.62-10.82-15.11-8.74s-4.93,8.33.52,17.45a27.33,27.33,0,0,0,3.8,4.77,27.37,27.37,0,0,0-6-.83c-10.42,0-15.25,4.43-15.25,8.5s4.63,8.5,15.25,8.5a28.32,28.32,0,0,0,6.36-.9,28,28,0,0,0-4,5c-5.23,9-3.83,15.42-.31,17.46s9.67.26,15-8.92a29.06,29.06,0,0,0,2.55-6.44,29.09,29.09,0,0,0,2.64,6.41c5.34,8.94,11.62,10.82,15.12,8.74s4.92-8.34-.53-17.46a27.67,27.67,0,0,0-3.8-4.76,27.37,27.37,0,0,0,6,.83C282.09,203.34,286.92,198.9,286.92,194.84Zm-34.79,1.91a2.87,2.87,0,0,0-.75-.64,3,3,0,0,0-.9-.33,2.79,2.79,0,0,0,.17-.94,2.92,2.92,0,0,0-.16-.92,3,3,0,0,0,.88-.34,2.82,2.82,0,0,0,.73-.65,3,3,0,0,0,.75.64,3.14,3.14,0,0,0,.9.33,3.05,3.05,0,0,0-.17.94,2.92,2.92,0,0,0,.16.92,3,3,0,0,0-.87.34A3,3,0,0,0,252.13,196.75Z"/><path class="cls-5" d="M251.85,202.65a7.81,7.81,0,1,1,7.81-7.81A7.81,7.81,0,0,1,251.85,202.65Z"/><path class="cls-3" d="M240,194c.77,0,2.3.38,2.3.86s-1.53.86-2.3.86c-1.35,0-1.94-.45-1.94-.86S238.69,194,240,194Z"/><path class="cls-3" d="M256.61,205.58c-.37-.68-.76-2.21-.34-2.44s1.49.94,1.85,1.62c.65,1.19.53,1.92.17,2.12S257.24,206.75,256.61,205.58Z"/><path class="cls-3" d="M246.92,184.1c.37.68.76,2.21.34,2.44s-1.48-.94-1.85-1.62c-.65-1.19-.53-1.92-.17-2.12S246.29,182.93,246.92,184.1Z"/><path class="cls-3" d="M258.61,185.25c-.4.66-1.53,1.77-1.94,1.52s.06-1.76.46-2.42c.7-1.15,1.4-1.42,1.75-1.21S259.3,184.12,258.61,185.25Z"/><path class="cls-3" d="M244.93,204.43c.4-.66,1.52-1.77,1.93-1.52s-.06,1.76-.46,2.42c-.7,1.15-1.39,1.42-1.74,1.21S244.24,205.57,244.93,204.43Z"/><path class="cls-3" d="M261.4,201.62c-.66-.4-1.78-1.51-1.53-1.92s1.75,0,2.42.44c1.16.7,1.43,1.39,1.22,1.74S262.54,202.3,261.4,201.62Z"/><path class="cls-3" d="M242.13,188.06c.67.4,1.78,1.51,1.54,1.92s-1.76,0-2.42-.44c-1.16-.7-1.44-1.39-1.23-1.74S241,187.38,242.13,188.06Z"/><path class="cls-3" d="M250.4,206.54c0-.77.48-2.28,1-2.26s.79,1.56.76,2.33c-.06,1.35-.53,1.93-1,1.91S250.34,207.86,250.4,206.54Z"/><path class="cls-3" d="M253.14,183.14c0,.77-.49,2.28-1,2.26s-.8-1.57-.77-2.34c.06-1.35.54-1.92,1-1.9S253.19,181.81,253.14,183.14Z"/><path class="cls-3" d="M262.56,190.13c-.68.36-2.21.73-2.44.31s1-1.48,1.64-1.84c1.2-.63,1.93-.5,2.12-.14S263.74,189.51,262.56,190.13Z"/><path class="cls-3" d="M241,199.55c.68-.36,2.22-.73,2.44-.31s-.95,1.48-1.64,1.84c-1.19.63-1.93.5-2.12.14S239.8,200.17,241,199.55Z"/><path class="cls-1" d="M56.33,362.77a11.14,11.14,0,0,1-5.55-1.46c-3.41-2-5.48-5.76-5.69-10.36a23.73,23.73,0,0,1,2.35-10.73c-11.41-1.14-16.56-7.34-16.56-13.49,0-5.9,5.12-12.2,16.27-13.46-4.7-10.24-2-17.75,3.22-20.88a11,11,0,0,1,5.6-1.5c5.2,0,10.44,3.3,14.72,9.17,5.67-8.08,11.53-9.37,14.71-9.37a11,11,0,0,1,5.54,1.46c3.41,2,5.49,5.75,5.7,10.35a24,24,0,0,1-2.36,10.74c11.41,1.14,16.57,7.34,16.57,13.49,0,5.9-5.13,12.2-16.28,13.45A23.3,23.3,0,0,1,97,350.73c-.18,4.54-2.22,8.31-5.61,10.33a10.89,10.89,0,0,1-5.61,1.51c-5.19,0-10.44-3.31-14.72-9.17C65.37,361.47,59.5,362.77,56.33,362.77Z"/><path class="cls-2" d="M52,358.45A11,11,0,0,1,46.47,357c-3.41-2-5.49-5.75-5.7-10.35a24,24,0,0,1,2.35-10.74c-11.4-1.14-16.56-7.34-16.56-13.49,0-5.9,5.13-12.2,16.28-13.45-4.7-10.25-2-17.76,3.21-20.88a10.88,10.88,0,0,1,5.6-1.51c5.2,0,10.45,3.3,14.73,9.17,5.66-8.07,11.53-9.37,14.7-9.37a11.07,11.07,0,0,1,5.54,1.46c3.41,2,5.49,5.76,5.7,10.36A23.86,23.86,0,0,1,90,308.92c11.41,1.14,16.56,7.34,16.56,13.49,0,5.9-5.12,12.2-16.27,13.46a23.21,23.21,0,0,1,2.39,10.54c-.17,4.55-2.22,8.31-5.61,10.34a11,11,0,0,1-5.6,1.5c-5.2,0-10.45-3.3-14.73-9.17C61.05,357.16,55.18,358.45,52,358.45Z"/><path class="cls-3" d="M78,323.27c-.78,0-2.31-.38-2.31-.86s1.53-.86,2.31-.86c1.35,0,1.94.45,1.94.86S79.27,323.27,78,323.27Z"/><path class="cls-4" d="M101.35,322.41c0-4.06-4.63-8.5-15.25-8.5a28.32,28.32,0,0,0-6.36.9,27.55,27.55,0,0,0,4-5c5.24-9,3.83-15.42.31-17.46s-9.67-.26-15,8.93a28.28,28.28,0,0,0-2.56,6.43,28.79,28.79,0,0,0-2.64-6.4c-5.34-8.95-11.62-10.83-15.11-8.75s-4.93,8.34.52,17.46a27.67,27.67,0,0,0,3.8,4.76,27.37,27.37,0,0,0-6-.83c-10.42,0-15.25,4.44-15.25,8.5s4.63,8.5,15.25,8.5a28.32,28.32,0,0,0,6.36-.9,28.35,28.35,0,0,0-4,5c-5.23,9-3.83,15.42-.31,17.46s9.67.26,15-8.92a29.64,29.64,0,0,0,2.56-6.43,28.73,28.73,0,0,0,2.63,6.4c5.34,8.95,11.62,10.82,15.12,8.74s4.92-8.33-.53-17.45a26.93,26.93,0,0,0-3.8-4.76,27.91,27.91,0,0,0,6,.82C96.52,330.91,101.35,326.48,101.35,322.41Zm-34.79,1.92a2.73,2.73,0,0,0-.75-.65,3,3,0,0,0-.9-.33,2.79,2.79,0,0,0,.17-.94,2.92,2.92,0,0,0-.16-.92,3,3,0,0,0,.88-.34,2.65,2.65,0,0,0,.73-.65,2.75,2.75,0,0,0,1.65,1,2.73,2.73,0,0,0,0,1.87,2.7,2.7,0,0,0-.87.33A3.08,3.08,0,0,0,66.56,324.33Z"/><path class="cls-5" d="M66.28,330.22a7.81,7.81,0,1,1,7.82-7.81A7.81,7.81,0,0,1,66.28,330.22Z"/><path class="cls-3" d="M54.45,321.55c.77,0,2.3.39,2.3.86s-1.53.86-2.3.86c-1.35,0-1.94-.45-1.94-.86S53.12,321.55,54.45,321.55Z"/><path class="cls-3" d="M71,333.15c-.37-.68-.76-2.21-.34-2.43s1.49.93,1.85,1.61c.65,1.19.53,1.92.17,2.12S71.67,334.32,71,333.15Z"/><path class="cls-3" d="M61.35,311.67c.37.68.76,2.21.34,2.44s-1.48-.94-1.85-1.62c-.65-1.18-.53-1.92-.17-2.11S60.72,310.51,61.35,311.67Z"/><path class="cls-3" d="M73,312.82c-.4.66-1.53,1.77-1.94,1.52s.06-1.76.46-2.42c.7-1.15,1.4-1.42,1.75-1.21S73.73,311.69,73,312.82Z"/><path class="cls-3" d="M59.36,332c.4-.66,1.52-1.76,1.93-1.52s-.06,1.76-.46,2.42c-.7,1.15-1.39,1.42-1.74,1.21S58.67,333.14,59.36,332Z"/><path class="cls-3" d="M75.83,329.19c-.66-.4-1.78-1.51-1.53-1.92s1.75.05,2.42.44c1.16.7,1.43,1.39,1.22,1.74S77,329.87,75.83,329.19Z"/><path class="cls-3" d="M56.56,315.63c.67.4,1.78,1.52,1.54,1.92s-1.76,0-2.42-.44c-1.16-.7-1.44-1.38-1.23-1.74S55.43,315,56.56,315.63Z"/><path class="cls-3" d="M64.83,334.11c0-.77.48-2.28,1-2.26s.79,1.57.76,2.34c-.06,1.35-.53,1.92-.94,1.9S64.77,335.44,64.83,334.11Z"/><path class="cls-3" d="M67.57,310.71c0,.77-.49,2.29-1,2.27s-.8-1.57-.77-2.34c.06-1.35.54-1.92,1-1.91S67.62,309.39,67.57,310.71Z"/><path class="cls-3" d="M77,317.7c-.68.36-2.21.73-2.44.31s1-1.47,1.64-1.83c1.2-.63,1.93-.51,2.12-.15S78.17,317.08,77,317.7Z"/><path class="cls-3" d="M55.4,327.12c.68-.36,2.22-.73,2.44-.31s-1,1.48-1.64,1.84c-1.19.63-1.93.51-2.12.14S54.23,327.74,55.4,327.12Z"/><path class="cls-1" d="M335.11,362.47a11.1,11.1,0,0,1-5.54-1.46c-3.41-2-5.49-5.76-5.7-10.36a23.88,23.88,0,0,1,2.36-10.73c-11.41-1.14-16.57-7.34-16.57-13.49,0-5.9,5.13-12.2,16.28-13.46-4.7-10.24-2-17.75,3.21-20.88a11,11,0,0,1,5.61-1.5c5.19,0,10.44,3.3,14.72,9.17,5.67-8.08,11.53-9.37,14.7-9.37a11,11,0,0,1,5.55,1.46c3.41,2,5.48,5.75,5.69,10.35a23.8,23.8,0,0,1-2.35,10.74c11.41,1.14,16.56,7.34,16.56,13.49,0,5.9-5.12,12.2-16.27,13.45a23.28,23.28,0,0,1,2.39,10.55c-.17,4.54-2.22,8.31-5.61,10.33a10.88,10.88,0,0,1-5.6,1.51c-5.2,0-10.44-3.31-14.72-9.17C344.15,361.17,338.29,362.47,335.11,362.47Z"/><path class="cls-2" d="M330.8,358.15a11,11,0,0,1-5.55-1.46c-3.4-2-5.48-5.75-5.69-10.35a23.77,23.77,0,0,1,2.35-10.74c-11.41-1.14-16.56-7.34-16.56-13.49,0-5.9,5.12-12.2,16.28-13.45-4.71-10.25-2-17.75,3.21-20.88a10.88,10.88,0,0,1,5.6-1.51c5.2,0,10.45,3.3,14.72,9.17,5.67-8.07,11.53-9.37,14.71-9.37a11.1,11.1,0,0,1,5.54,1.46c3.41,2,5.49,5.76,5.7,10.36a24,24,0,0,1-2.35,10.73c11.4,1.14,16.56,7.34,16.56,13.49,0,5.9-5.13,12.2-16.28,13.46a23.23,23.23,0,0,1,2.4,10.54c-.18,4.55-2.22,8.31-5.61,10.34a11,11,0,0,1-5.61,1.5c-5.19,0-10.44-3.3-14.72-9.17C339.84,356.86,334,358.15,330.8,358.15Z"/><path class="cls-3" d="M356.73,323c-.77,0-2.3-.38-2.3-.86s1.53-.86,2.3-.86c1.35,0,1.94.45,1.94.86S358.06,323,356.73,323Z"/><path class="cls-4" d="M380.14,322.11c0-4.06-4.63-8.5-15.25-8.5a28.32,28.32,0,0,0-6.36.9,28,28,0,0,0,4-5c5.23-9,3.83-15.42.31-17.46s-9.67-.26-15,8.93a29.23,29.23,0,0,0-2.56,6.43,28.81,28.81,0,0,0-2.63-6.4c-5.34-9-11.63-10.83-15.12-8.75s-4.92,8.34.52,17.46a28.16,28.16,0,0,0,3.8,4.76,27.21,27.21,0,0,0-6-.83c-10.42,0-15.25,4.44-15.25,8.5s4.63,8.5,15.25,8.5a28.16,28.16,0,0,0,6.35-.9,28.82,28.82,0,0,0-4,5c-5.23,9-3.82,15.42-.3,17.46s9.67.26,15-8.92a28.66,28.66,0,0,0,2.56-6.43,28.72,28.72,0,0,0,2.64,6.4c5.34,8.95,11.62,10.82,15.11,8.74s4.92-8.33-.52-17.45a27.4,27.4,0,0,0-3.8-4.76,27.83,27.83,0,0,0,6,.82C375.31,330.61,380.14,326.18,380.14,322.11ZM345.35,324a2.88,2.88,0,0,0-.75-.65,3.14,3.14,0,0,0-.9-.33,3.05,3.05,0,0,0,.17-.94,2.92,2.92,0,0,0-.16-.92,3,3,0,0,0,.87-.34,2.84,2.84,0,0,0,.74-.65,2.69,2.69,0,0,0,.75.64,2.78,2.78,0,0,0,.9.33,2.79,2.79,0,0,0-.17.94,3,3,0,0,0,.16.93,2.62,2.62,0,0,0-.87.33A2.74,2.74,0,0,0,345.35,324Z"/><path class="cls-5" d="M345.07,329.92a7.81,7.81,0,1,1,7.81-7.81A7.81,7.81,0,0,1,345.07,329.92Z"/><path class="cls-3" d="M333.23,321.25c.78,0,2.31.39,2.31.86s-1.53.86-2.31.86c-1.35,0-1.94-.45-1.94-.86S331.91,321.25,333.23,321.25Z"/><path class="cls-3" d="M349.82,332.85c-.36-.68-.75-2.21-.33-2.43s1.48.93,1.85,1.61c.64,1.19.53,1.92.17,2.12S350.46,334,349.82,332.85Z"/><path class="cls-3" d="M340.14,311.37c.37.68.76,2.21.34,2.44s-1.49-.94-1.86-1.62c-.64-1.18-.53-1.92-.16-2.11S339.51,310.21,340.14,311.37Z"/><path class="cls-3" d="M351.82,312.52c-.4.66-1.52,1.77-1.93,1.52s.06-1.76.46-2.42c.7-1.15,1.39-1.42,1.74-1.21S352.51,311.39,351.82,312.52Z"/><path class="cls-3" d="M338.14,331.7c.4-.66,1.53-1.76,1.94-1.52s-.06,1.76-.46,2.42c-.7,1.15-1.4,1.42-1.75,1.21S337.46,332.84,338.14,331.7Z"/><path class="cls-3" d="M354.62,328.89c-.67-.4-1.78-1.51-1.54-1.92s1.76,0,2.42.44c1.16.7,1.44,1.39,1.22,1.74S355.75,329.57,354.62,328.89Z"/><path class="cls-3" d="M335.35,315.33c.66.4,1.78,1.52,1.53,1.92s-1.75,0-2.42-.44c-1.16-.69-1.43-1.38-1.22-1.74S334.21,314.65,335.35,315.33Z"/><path class="cls-3" d="M343.61,333.81c0-.77.49-2.28,1-2.26s.8,1.57.77,2.34c-.06,1.35-.54,1.92-.95,1.9S343.56,335.14,343.61,333.81Z"/><path class="cls-3" d="M346.35,310.41c0,.77-.48,2.29-1,2.27s-.79-1.57-.76-2.34c.06-1.35.53-1.92.94-1.91S346.41,309.09,346.35,310.41Z"/><path class="cls-3" d="M355.78,317.4c-.68.36-2.22.73-2.44.31s1-1.47,1.64-1.83c1.19-.63,1.93-.51,2.12-.15S357,316.78,355.78,317.4Z"/><path class="cls-3" d="M334.18,326.82c.69-.36,2.22-.73,2.44-.31s-.95,1.48-1.63,1.84c-1.2.63-1.93.51-2.12.14S333,327.44,334.18,326.82Z"/><path class="cls-1" d="M430.92,362.11a11.07,11.07,0,0,1-5.54-1.46c-3.41-2-5.49-5.76-5.7-10.36A23.86,23.86,0,0,1,422,339.56c-11.4-1.14-16.56-7.34-16.56-13.49,0-5.9,5.12-12.2,16.28-13.46-4.71-10.24-2-17.75,3.21-20.88a11,11,0,0,1,5.6-1.5c5.2,0,10.45,3.3,14.73,9.17C451,291.32,456.82,290,460,290a11,11,0,0,1,5.54,1.46c3.41,2,5.49,5.75,5.7,10.35a24.06,24.06,0,0,1-2.35,10.74c11.4,1.14,16.56,7.34,16.56,13.49,0,5.9-5.13,12.2-16.28,13.45a23.3,23.3,0,0,1,2.4,10.55c-.18,4.54-2.22,8.31-5.61,10.33a10.89,10.89,0,0,1-5.61,1.51c-5.19,0-10.44-3.31-14.72-9.17C440,360.81,434.09,362.11,430.92,362.11Z"/><path class="cls-2" d="M426.6,357.79a11,11,0,0,1-5.54-1.46c-3.41-2-5.49-5.75-5.7-10.35a23.92,23.92,0,0,1,2.36-10.74c-11.41-1.14-16.57-7.34-16.57-13.49,0-5.9,5.13-12.2,16.28-13.45-4.7-10.25-2-17.75,3.21-20.88a10.89,10.89,0,0,1,5.61-1.51c5.2,0,10.44,3.3,14.72,9.17,5.67-8.07,11.53-9.37,14.7-9.37a11.14,11.14,0,0,1,5.55,1.46c3.41,2,5.48,5.76,5.69,10.36a23.73,23.73,0,0,1-2.35,10.73c11.41,1.14,16.56,7.34,16.56,13.49,0,5.9-5.12,12.2-16.27,13.46a23.21,23.21,0,0,1,2.39,10.54c-.17,4.55-2.22,8.31-5.61,10.34a11,11,0,0,1-5.6,1.5c-5.2,0-10.44-3.3-14.72-9.17C435.64,356.5,429.78,357.79,426.6,357.79Z"/><path class="cls-3" d="M452.54,322.61c-.77,0-2.31-.38-2.31-.86s1.54-.86,2.31-.86c1.35,0,1.94.45,1.94.86S453.86,322.61,452.54,322.61Z"/><path class="cls-4" d="M476,321.75c0-4.06-4.64-8.5-15.26-8.5a28.16,28.16,0,0,0-6.35.9,28.45,28.45,0,0,0,4-5c5.23-9,3.82-15.42.31-17.46s-9.68-.26-15,8.93a28.28,28.28,0,0,0-2.56,6.43,28.81,28.81,0,0,0-2.63-6.4c-5.35-8.95-11.63-10.83-15.12-8.75s-4.92,8.34.52,17.46a28.16,28.16,0,0,0,3.8,4.76,27.29,27.29,0,0,0-6-.83c-10.43,0-15.26,4.44-15.26,8.5s4.63,8.5,15.26,8.5a28.24,28.24,0,0,0,6.35-.9,28.35,28.35,0,0,0-4,5c-5.23,9-3.82,15.42-.31,17.46s9.68.26,15-8.92a29.14,29.14,0,0,0,2.56-6.43,29.22,29.22,0,0,0,2.63,6.4c5.34,9,11.63,10.82,15.12,8.74s4.92-8.33-.52-17.45a27.4,27.4,0,0,0-3.8-4.76,27.75,27.75,0,0,0,6,.82C471.11,330.25,476,325.82,476,321.75Zm-34.8,1.92a2.73,2.73,0,0,0-.75-.65,3,3,0,0,0-.9-.33,2.79,2.79,0,0,0,.17-.94,2.92,2.92,0,0,0-.16-.92,3,3,0,0,0,.88-.34,2.84,2.84,0,0,0,.74-.65,2.8,2.8,0,0,0,.74.64,2.87,2.87,0,0,0,.9.33,3.05,3.05,0,0,0-.17.94,2.77,2.77,0,0,0,.17.93,2.67,2.67,0,0,0-.88.33A3.08,3.08,0,0,0,441.15,323.67Z"/><path class="cls-5" d="M440.88,329.56a7.81,7.81,0,1,1,7.81-7.81A7.81,7.81,0,0,1,440.88,329.56Z"/><path class="cls-3" d="M429,320.89c.77,0,2.3.39,2.3.86s-1.53.86-2.3.86c-1.35,0-1.94-.45-1.94-.86S427.71,320.89,429,320.89Z"/><path class="cls-3" d="M445.63,332.49c-.37-.68-.76-2.21-.34-2.43s1.49.93,1.86,1.61c.64,1.19.53,1.92.16,2.12S446.26,333.66,445.63,332.49Z"/><path class="cls-3" d="M436,311c.36.68.75,2.21.34,2.44s-1.49-.94-1.86-1.62c-.64-1.18-.53-1.92-.17-2.11S435.31,309.85,436,311Z"/><path class="cls-3" d="M447.63,312.16c-.4.66-1.53,1.77-1.94,1.52s.06-1.76.46-2.42c.71-1.15,1.4-1.42,1.75-1.21S448.32,311,447.63,312.16Z"/><path class="cls-3" d="M434,331.34c.4-.66,1.53-1.76,1.93-1.52s-.06,1.76-.46,2.42c-.7,1.15-1.39,1.42-1.74,1.21S433.26,332.48,434,331.34Z"/><path class="cls-3" d="M450.42,328.53c-.66-.39-1.77-1.51-1.53-1.92s1.76.05,2.42.44c1.16.7,1.43,1.39,1.22,1.74S451.56,329.21,450.42,328.53Z"/><path class="cls-3" d="M431.16,315c.66.4,1.77,1.52,1.53,1.93s-1.76,0-2.42-.45c-1.16-.69-1.43-1.38-1.22-1.74S430,314.29,431.16,315Z"/><path class="cls-3" d="M439.42,333.45c0-.77.48-2.28,1-2.26s.8,1.57.76,2.34c-.06,1.35-.53,1.92-.94,1.9S439.36,334.78,439.42,333.45Z"/><path class="cls-3" d="M442.16,310.05c0,.77-.49,2.29-1,2.27s-.8-1.57-.77-2.34c.06-1.35.54-1.92.95-1.91S442.22,308.73,442.16,310.05Z"/><path class="cls-3" d="M451.59,317c-.69.36-2.22.73-2.44.31s1-1.47,1.63-1.83c1.2-.63,1.93-.51,2.12-.15S452.76,316.42,451.59,317Z"/><path class="cls-3" d="M430,326.46c.68-.36,2.22-.73,2.44-.31s-.95,1.48-1.64,1.84c-1.19.63-1.92.51-2.12.14S428.82,327.08,430,326.46Z"/><path class="cls-1" d="M148.68,362.77a11.07,11.07,0,0,1-5.54-1.46c-3.41-2-5.49-5.76-5.7-10.36a24,24,0,0,1,2.35-10.73c-11.4-1.14-16.56-7.34-16.56-13.49,0-5.9,5.13-12.2,16.28-13.46-4.71-10.24-2-17.75,3.21-20.88a11,11,0,0,1,5.6-1.5c5.2,0,10.45,3.3,14.73,9.17,5.66-8.08,11.53-9.37,14.7-9.37a11,11,0,0,1,5.54,1.46c3.41,2,5.49,5.75,5.7,10.35a24.06,24.06,0,0,1-2.35,10.74c11.4,1.14,16.56,7.34,16.56,13.49,0,5.9-5.13,12.2-16.28,13.45a23.3,23.3,0,0,1,2.4,10.55c-.18,4.54-2.22,8.31-5.61,10.33a10.88,10.88,0,0,1-5.6,1.51c-5.2,0-10.45-3.31-14.73-9.17C157.72,361.47,151.85,362.77,148.68,362.77Z"/><path class="cls-2" d="M144.36,358.45a11,11,0,0,1-5.54-1.46c-3.41-2-5.48-5.75-5.7-10.35a23.92,23.92,0,0,1,2.36-10.74c-11.41-1.14-16.57-7.34-16.57-13.49,0-5.9,5.13-12.2,16.28-13.45-4.7-10.25-2-17.76,3.21-20.88a10.92,10.92,0,0,1,5.61-1.51c5.2,0,10.44,3.3,14.72,9.17,5.67-8.07,11.53-9.37,14.71-9.37a11.1,11.1,0,0,1,5.54,1.46c3.41,2,5.48,5.76,5.7,10.36a23.88,23.88,0,0,1-2.36,10.73c11.41,1.14,16.57,7.34,16.57,13.49,0,5.9-5.13,12.2-16.28,13.46A23.08,23.08,0,0,1,185,346.41c-.17,4.55-2.22,8.31-5.61,10.34a10.94,10.94,0,0,1-5.6,1.5c-5.2,0-10.44-3.3-14.72-9.17C153.4,357.16,147.54,358.45,144.36,358.45Z"/><path class="cls-3" d="M170.3,323.27c-.77,0-2.3-.38-2.3-.86s1.53-.86,2.3-.86c1.35,0,1.94.45,1.94.86S171.63,323.27,170.3,323.27Z"/><path class="cls-4" d="M193.71,322.41c0-4.06-4.64-8.5-15.26-8.5a28.24,28.24,0,0,0-6.35.9,28.45,28.45,0,0,0,4-5c5.23-9,3.82-15.42.31-17.46s-9.68-.26-15,8.93a28.28,28.28,0,0,0-2.56,6.43,28.81,28.81,0,0,0-2.63-6.4c-5.34-8.95-11.63-10.83-15.12-8.75s-4.92,8.34.52,17.46a28.16,28.16,0,0,0,3.8,4.76,27.21,27.21,0,0,0-6-.83c-10.42,0-15.26,4.44-15.26,8.5s4.64,8.5,15.26,8.5a28.24,28.24,0,0,0,6.35-.9,28.82,28.82,0,0,0-4,5c-5.23,9-3.82,15.42-.31,17.46s9.68.26,15-8.92a29.14,29.14,0,0,0,2.56-6.43,29.22,29.22,0,0,0,2.63,6.4c5.34,8.95,11.63,10.82,15.12,8.74s4.92-8.33-.52-17.45a27.4,27.4,0,0,0-3.8-4.76,27.75,27.75,0,0,0,6,.82C188.87,330.91,193.71,326.48,193.71,322.41Zm-34.8,1.92a2.73,2.73,0,0,0-.75-.65,3,3,0,0,0-.89-.33,3.05,3.05,0,0,0,.17-.94,2.93,2.93,0,0,0-.17-.92,2.93,2.93,0,0,0,.88-.34,2.84,2.84,0,0,0,.74-.65,2.8,2.8,0,0,0,.74.64,2.83,2.83,0,0,0,.91.33,2.8,2.8,0,0,0-.18.94,3,3,0,0,0,.17.93,2.67,2.67,0,0,0-.88.33A3.08,3.08,0,0,0,158.91,324.33Z"/><path class="cls-5" d="M158.64,330.22a7.81,7.81,0,1,1,7.81-7.81A7.8,7.8,0,0,1,158.64,330.22Z"/><path class="cls-3" d="M146.8,321.55c.77,0,2.3.39,2.3.86s-1.53.86-2.3.86c-1.35,0-1.94-.45-1.94-.86S145.48,321.55,146.8,321.55Z"/><path class="cls-3" d="M163.39,333.15c-.37-.68-.76-2.21-.34-2.43s1.49.93,1.86,1.61c.64,1.19.53,1.92.17,2.12S164,334.32,163.39,333.15Z"/><path class="cls-3" d="M153.71,311.67c.37.68.76,2.21.34,2.44s-1.49-.94-1.86-1.62c-.64-1.18-.53-1.92-.17-2.11S153.08,310.51,153.71,311.67Z"/><path class="cls-3" d="M165.39,312.82c-.4.66-1.53,1.77-1.93,1.52s0-1.76.45-2.42c.71-1.15,1.4-1.42,1.75-1.21S166.08,311.69,165.39,312.82Z"/><path class="cls-3" d="M151.71,332c.4-.66,1.53-1.76,1.93-1.52s0,1.76-.45,2.42c-.71,1.15-1.4,1.42-1.75,1.21S151,333.14,151.71,332Z"/><path class="cls-3" d="M168.18,329.19c-.66-.4-1.77-1.51-1.53-1.92s1.76.05,2.42.44c1.16.7,1.43,1.39,1.22,1.74S169.32,329.87,168.18,329.19Z"/><path class="cls-3" d="M148.92,315.63c.66.4,1.77,1.52,1.53,1.92s-1.76,0-2.42-.44c-1.16-.7-1.43-1.38-1.22-1.74S147.78,315,148.92,315.63Z"/><path class="cls-3" d="M157.18,334.11c0-.77.49-2.28,1-2.26s.8,1.57.76,2.34c-.05,1.35-.53,1.92-.94,1.9S157.12,335.44,157.18,334.11Z"/><path class="cls-3" d="M159.92,310.71c0,.77-.49,2.29-1,2.27s-.8-1.57-.76-2.34c.05-1.35.53-1.92.94-1.91S160,309.39,159.92,310.71Z"/><path class="cls-3" d="M169.35,317.7c-.68.36-2.22.73-2.44.31s1-1.47,1.63-1.83c1.2-.63,1.93-.51,2.13-.15S170.52,317.08,169.35,317.7Z"/><path class="cls-3" d="M147.75,327.12c.69-.36,2.22-.73,2.44-.31s-.95,1.48-1.63,1.84c-1.2.63-1.93.51-2.12.14S146.58,327.74,147.75,327.12Z"/><path class="cls-1" d="M241.9,362.47a11.14,11.14,0,0,1-5.55-1.46c-3.41-2-5.48-5.76-5.69-10.36A23.73,23.73,0,0,1,233,339.92c-11.41-1.14-16.56-7.34-16.56-13.49,0-5.9,5.12-12.2,16.27-13.46-4.7-10.24-2-17.75,3.22-20.88a10.94,10.94,0,0,1,5.6-1.5c5.2,0,10.44,3.3,14.72,9.17,5.67-8.08,11.53-9.37,14.71-9.37a11,11,0,0,1,5.54,1.46c3.41,2,5.49,5.75,5.7,10.35a24,24,0,0,1-2.36,10.74c11.41,1.14,16.57,7.34,16.57,13.49,0,5.9-5.13,12.2-16.28,13.45a23.3,23.3,0,0,1,2.4,10.55c-.18,4.54-2.22,8.31-5.61,10.33a10.89,10.89,0,0,1-5.61,1.51c-5.19,0-10.44-3.31-14.72-9.17C250.94,361.17,245.07,362.47,241.9,362.47Z"/><path class="cls-2" d="M237.58,358.15a11,11,0,0,1-5.54-1.46c-3.41-2-5.49-5.75-5.7-10.35a24,24,0,0,1,2.35-10.74c-11.4-1.14-16.56-7.34-16.56-13.49,0-5.9,5.13-12.2,16.28-13.45-4.7-10.25-2-17.75,3.21-20.88a10.88,10.88,0,0,1,5.6-1.51c5.2,0,10.45,3.3,14.73,9.17,5.66-8.07,11.53-9.37,14.7-9.37a11.07,11.07,0,0,1,5.54,1.46c3.41,2,5.49,5.76,5.7,10.36a23.86,23.86,0,0,1-2.35,10.73c11.4,1.14,16.56,7.34,16.56,13.49,0,5.9-5.12,12.2-16.27,13.46a23.21,23.21,0,0,1,2.39,10.54c-.17,4.55-2.22,8.31-5.61,10.34A11,11,0,0,1,267,358c-5.2,0-10.45-3.3-14.73-9.17C246.62,356.86,240.75,358.15,237.58,358.15Z"/><path class="cls-3" d="M263.52,323c-.78,0-2.31-.38-2.31-.86s1.53-.86,2.31-.86c1.35,0,1.94.45,1.94.86S264.84,323,263.52,323Z"/><path class="cls-4" d="M286.92,322.11c0-4.06-4.63-8.5-15.25-8.5a28.32,28.32,0,0,0-6.36.9,27.55,27.55,0,0,0,4-5c5.24-9,3.83-15.42.31-17.46s-9.67-.26-15,8.93a28.28,28.28,0,0,0-2.56,6.43,28.79,28.79,0,0,0-2.64-6.4c-5.34-9-11.62-10.83-15.11-8.75s-4.93,8.34.52,17.46a27.67,27.67,0,0,0,3.8,4.76,27.37,27.37,0,0,0-6-.83c-10.42,0-15.25,4.44-15.25,8.5s4.63,8.5,15.25,8.5a28.32,28.32,0,0,0,6.36-.9,28.35,28.35,0,0,0-4,5c-5.23,9-3.83,15.42-.31,17.46s9.67.26,15-8.92a29.16,29.16,0,0,0,2.55-6.43,29.2,29.2,0,0,0,2.64,6.4c5.34,8.95,11.62,10.82,15.12,8.74s4.92-8.33-.53-17.45a26.93,26.93,0,0,0-3.8-4.76,27.91,27.91,0,0,0,6,.82C282.09,330.61,286.92,326.18,286.92,322.11ZM252.13,324a2.73,2.73,0,0,0-.75-.65,3,3,0,0,0-.9-.33,2.79,2.79,0,0,0,.17-.94,2.92,2.92,0,0,0-.16-.92,3,3,0,0,0,.88-.34,2.65,2.65,0,0,0,.73-.65,2.75,2.75,0,0,0,1.65,1,2.73,2.73,0,0,0,0,1.87,2.7,2.7,0,0,0-.87.33A3.08,3.08,0,0,0,252.13,324Z"/><path class="cls-5" d="M251.85,329.92a7.81,7.81,0,1,1,7.81-7.81A7.81,7.81,0,0,1,251.85,329.92Z"/><path class="cls-3" d="M240,321.25c.77,0,2.3.39,2.3.86s-1.53.86-2.3.86c-1.35,0-1.94-.45-1.94-.86S238.69,321.25,240,321.25Z"/><path class="cls-3" d="M256.61,332.85c-.37-.68-.76-2.21-.34-2.43s1.49.93,1.85,1.61c.65,1.19.53,1.92.17,2.12S257.24,334,256.61,332.85Z"/><path class="cls-3" d="M246.92,311.37c.37.68.76,2.21.34,2.44s-1.48-.94-1.85-1.62c-.65-1.18-.53-1.92-.17-2.11S246.29,310.21,246.92,311.37Z"/><path class="cls-3" d="M258.61,312.52c-.4.66-1.53,1.77-1.94,1.52s.06-1.76.46-2.42c.7-1.15,1.4-1.42,1.75-1.21S259.3,311.39,258.61,312.52Z"/><path class="cls-3" d="M244.93,331.7c.4-.66,1.52-1.76,1.93-1.52s-.06,1.76-.46,2.42c-.7,1.15-1.39,1.42-1.74,1.21S244.24,332.84,244.93,331.7Z"/><path class="cls-3" d="M261.4,328.89c-.66-.4-1.78-1.51-1.53-1.92s1.75,0,2.42.44c1.16.7,1.43,1.39,1.22,1.74S262.54,329.57,261.4,328.89Z"/><path class="cls-3" d="M242.13,315.33c.67.4,1.78,1.52,1.54,1.92s-1.76,0-2.42-.44c-1.16-.69-1.44-1.38-1.23-1.74S241,314.65,242.13,315.33Z"/><path class="cls-3" d="M250.4,333.81c0-.77.48-2.28,1-2.26s.79,1.57.76,2.34c-.06,1.35-.53,1.92-1,1.9S250.34,335.14,250.4,333.81Z"/><path class="cls-3" d="M253.14,310.41c0,.77-.49,2.29-1,2.27s-.8-1.57-.77-2.34c.06-1.35.54-1.92,1-1.91S253.19,309.09,253.14,310.41Z"/><path class="cls-3" d="M262.56,317.4c-.68.36-2.21.73-2.44.31s1-1.47,1.64-1.83c1.2-.63,1.93-.51,2.12-.15S263.74,316.78,262.56,317.4Z"/><path class="cls-3" d="M241,326.82c.68-.36,2.22-.73,2.44-.31s-.95,1.48-1.64,1.84c-1.19.63-1.93.51-2.12.14S239.8,327.44,241,326.82Z"/><path class="cls-1" d="M56.33,458.22a11,11,0,0,1-5.55-1.46c-3.41-2-5.48-5.75-5.69-10.35a23.77,23.77,0,0,1,2.35-10.74c-11.41-1.14-16.56-7.34-16.56-13.49,0-5.9,5.12-12.2,16.27-13.45-4.7-10.25-2-17.76,3.22-20.88a10.88,10.88,0,0,1,5.6-1.51c5.2,0,10.44,3.3,14.72,9.17,5.67-8.07,11.53-9.37,14.71-9.37a11.1,11.1,0,0,1,5.54,1.46c3.41,2,5.49,5.76,5.7,10.36a23.88,23.88,0,0,1-2.36,10.73c11.41,1.14,16.57,7.34,16.57,13.49,0,5.9-5.13,12.2-16.28,13.46A23.23,23.23,0,0,1,97,446.18c-.18,4.55-2.22,8.31-5.61,10.34a11,11,0,0,1-5.61,1.5c-5.19,0-10.44-3.3-14.72-9.17C65.37,456.93,59.5,458.22,56.33,458.22Z"/><path class="cls-2" d="M52,453.91a11.07,11.07,0,0,1-5.54-1.46c-3.41-2-5.49-5.76-5.7-10.36a24,24,0,0,1,2.35-10.73c-11.4-1.14-16.56-7.34-16.56-13.49,0-5.9,5.13-12.2,16.28-13.46-4.7-10.24-2-17.75,3.21-20.88a11,11,0,0,1,5.6-1.5c5.2,0,10.45,3.3,14.73,9.17,5.66-8.08,11.53-9.37,14.7-9.37a11,11,0,0,1,5.54,1.46c3.41,2,5.49,5.75,5.7,10.35A23.86,23.86,0,0,1,90,404.37c11.41,1.14,16.56,7.34,16.56,13.5,0,5.89-5.12,12.2-16.27,13.45a23.24,23.24,0,0,1,2.39,10.54c-.17,4.55-2.22,8.32-5.61,10.34a10.88,10.88,0,0,1-5.6,1.51c-5.2,0-10.45-3.31-14.73-9.18C61.05,452.61,55.18,453.91,52,453.91Z"/><path class="cls-3" d="M78,418.73c-.78,0-2.31-.39-2.31-.86S77.17,417,78,417c1.35,0,1.94.45,1.94.87S79.27,418.73,78,418.73Z"/><path class="cls-4" d="M101.35,417.87c0-4.07-4.63-8.5-15.25-8.5a28.32,28.32,0,0,0-6.36.9,27.59,27.59,0,0,0,4-5c5.24-9,3.83-15.41.31-17.45s-9.67-.27-15,8.92a28.47,28.47,0,0,0-2.56,6.43,29,29,0,0,0-2.64-6.4c-5.34-9-11.62-10.82-15.11-8.74s-4.93,8.33.52,17.45a27.29,27.29,0,0,0,3.8,4.76,27.91,27.91,0,0,0-6-.82c-10.42,0-15.25,4.43-15.25,8.5s4.63,8.49,15.25,8.49a27.75,27.75,0,0,0,6.36-.9,28,28,0,0,0-4,5.05c-5.23,9-3.83,15.42-.31,17.46s9.67.26,15-8.93a29.44,29.44,0,0,0,2.56-6.43,28.54,28.54,0,0,0,2.63,6.4c5.34,8.95,11.62,10.83,15.12,8.74s4.92-8.33-.53-17.45a27.29,27.29,0,0,0-3.8-4.76,27.91,27.91,0,0,0,6,.82C96.52,426.36,101.35,421.93,101.35,417.87Zm-34.79,1.91a2.91,2.91,0,0,0-.75-.65,2.76,2.76,0,0,0-.9-.32,2.83,2.83,0,0,0,.17-.94,3,3,0,0,0-.16-.93,3,3,0,0,0,.88-.33,2.86,2.86,0,0,0,.73-.66,3.08,3.08,0,0,0,.75.65,2.85,2.85,0,0,0,.9.32,3.12,3.12,0,0,0-.17.95,2.92,2.92,0,0,0,.16.92,3,3,0,0,0-.87.33A3.08,3.08,0,0,0,66.56,419.78Z"/><path class="cls-5" d="M66.28,425.68a7.82,7.82,0,1,1,7.82-7.81A7.81,7.81,0,0,1,66.28,425.68Z"/><path class="cls-3" d="M54.45,417c.77,0,2.3.39,2.3.87s-1.53.86-2.3.86c-1.35,0-1.94-.45-1.94-.86S53.12,417,54.45,417Z"/><path class="cls-3" d="M71,428.61c-.37-.68-.76-2.21-.34-2.44s1.49.93,1.85,1.61c.65,1.19.53,1.93.17,2.12S71.67,429.77,71,428.61Z"/><path class="cls-3" d="M61.35,407.13c.37.68.76,2.21.34,2.43s-1.48-.93-1.85-1.61c-.65-1.19-.53-1.92-.17-2.12S60.72,406,61.35,407.13Z"/><path class="cls-3" d="M73,408.27c-.4.66-1.53,1.77-1.94,1.53s.06-1.76.46-2.42c.7-1.16,1.4-1.43,1.75-1.21S73.73,407.14,73,408.27Z"/><path class="cls-3" d="M59.36,427.46c.4-.66,1.52-1.77,1.93-1.52s-.06,1.75-.46,2.41c-.7,1.16-1.39,1.43-1.74,1.22S58.67,428.59,59.36,427.46Z"/><path class="cls-3" d="M75.83,424.65c-.66-.4-1.78-1.52-1.53-1.93s1.75,0,2.42.45c1.16.69,1.43,1.38,1.22,1.74S77,425.33,75.83,424.65Z"/><path class="cls-3" d="M56.56,411.09c.67.39,1.78,1.51,1.54,1.92s-1.76-.05-2.42-.45c-1.16-.69-1.44-1.38-1.23-1.73S55.43,410.4,56.56,411.09Z"/><path class="cls-3" d="M64.83,429.57c0-.78.48-2.29,1-2.27s.79,1.57.76,2.34c-.06,1.35-.53,1.92-.94,1.9S64.77,430.89,64.83,429.57Z"/><path class="cls-3" d="M67.57,406.17c0,.77-.49,2.28-1,2.26s-.8-1.57-.77-2.34c.06-1.35.54-1.92,1-1.9S67.62,404.84,67.57,406.17Z"/><path class="cls-3" d="M77,413.16c-.68.36-2.21.73-2.44.31s1-1.48,1.64-1.84c1.2-.63,1.93-.51,2.12-.14S78.17,412.54,77,413.16Z"/><path class="cls-3" d="M55.4,422.58c.68-.36,2.22-.73,2.44-.31s-1,1.47-1.64,1.83c-1.19.63-1.93.51-2.12.14S54.23,423.19,55.4,422.58Z"/><path class="cls-1" d="M148.68,458.22a11,11,0,0,1-5.54-1.46c-3.41-2-5.49-5.75-5.7-10.35a24,24,0,0,1,2.35-10.74c-11.4-1.14-16.56-7.34-16.56-13.49,0-5.9,5.13-12.2,16.28-13.45-4.71-10.25-2-17.76,3.21-20.88a10.88,10.88,0,0,1,5.6-1.51c5.2,0,10.45,3.3,14.73,9.17,5.66-8.07,11.53-9.37,14.7-9.37a11.07,11.07,0,0,1,5.54,1.46c3.41,2,5.49,5.76,5.7,10.36a24,24,0,0,1-2.35,10.73c11.4,1.14,16.56,7.34,16.56,13.49,0,5.9-5.13,12.2-16.28,13.46a23.23,23.23,0,0,1,2.4,10.54c-.18,4.55-2.22,8.31-5.61,10.34a11,11,0,0,1-5.6,1.5c-5.2,0-10.45-3.3-14.73-9.17C157.72,456.93,151.85,458.22,148.68,458.22Z"/><path class="cls-2" d="M144.36,453.91a11.1,11.1,0,0,1-5.54-1.46c-3.41-2-5.48-5.76-5.7-10.36a23.88,23.88,0,0,1,2.36-10.73c-11.41-1.14-16.57-7.34-16.57-13.49,0-5.9,5.13-12.2,16.28-13.46-4.7-10.24-2-17.75,3.21-20.88A11,11,0,0,1,144,382c5.2,0,10.44,3.3,14.72,9.17,5.67-8.08,11.53-9.37,14.71-9.37a11,11,0,0,1,5.54,1.46c3.41,2,5.48,5.75,5.7,10.35a23.88,23.88,0,0,1-2.36,10.73c11.41,1.14,16.57,7.34,16.57,13.5,0,5.89-5.13,12.2-16.28,13.45A23.11,23.11,0,0,1,185,441.86c-.17,4.55-2.22,8.32-5.61,10.34a10.85,10.85,0,0,1-5.6,1.51c-5.2,0-10.44-3.31-14.72-9.18C153.4,452.61,147.54,453.91,144.36,453.91Z"/><path class="cls-3" d="M170.3,418.73c-.77,0-2.3-.39-2.3-.86s1.53-.87,2.3-.87c1.35,0,1.94.45,1.94.87S171.63,418.73,170.3,418.73Z"/><path class="cls-4" d="M193.71,417.87c0-4.07-4.64-8.5-15.26-8.5a28.24,28.24,0,0,0-6.35.9,28.49,28.49,0,0,0,4-5c5.23-9,3.82-15.41.31-17.45s-9.68-.27-15,8.92a28.47,28.47,0,0,0-2.56,6.43,29,29,0,0,0-2.63-6.4c-5.34-9-11.63-10.82-15.12-8.74s-4.92,8.33.52,17.45a27.78,27.78,0,0,0,3.8,4.76,27.75,27.75,0,0,0-6-.82c-10.42,0-15.26,4.43-15.26,8.5s4.64,8.49,15.26,8.49a27.67,27.67,0,0,0,6.35-.9,28.49,28.49,0,0,0-4,5.05c-5.23,9-3.82,15.42-.31,17.46s9.68.26,15-8.93a28.94,28.94,0,0,0,2.56-6.43,29,29,0,0,0,2.63,6.4c5.34,8.95,11.63,10.83,15.12,8.74s4.92-8.33-.52-17.45a27.78,27.78,0,0,0-3.8-4.76,27.75,27.75,0,0,0,6,.82C188.87,426.36,193.71,421.93,193.71,417.87Zm-34.8,1.91a2.91,2.91,0,0,0-.75-.65,2.71,2.71,0,0,0-.89-.32,3.11,3.11,0,0,0,.17-.94,3,3,0,0,0-.17-.93,2.91,2.91,0,0,0,.88-.33,3.08,3.08,0,0,0,.74-.66,3,3,0,0,0,.74.65,2.82,2.82,0,0,0,.91.32,2.86,2.86,0,0,0-.18.95,2.93,2.93,0,0,0,.17.92,2.91,2.91,0,0,0-.88.33A3.08,3.08,0,0,0,158.91,419.78Z"/><path class="cls-5" d="M158.64,425.68a7.82,7.82,0,1,1,7.81-7.81A7.81,7.81,0,0,1,158.64,425.68Z"/><path class="cls-3" d="M146.8,417c.77,0,2.3.39,2.3.87s-1.53.86-2.3.86c-1.35,0-1.94-.45-1.94-.86S145.48,417,146.8,417Z"/><path class="cls-3" d="M163.39,428.61c-.37-.68-.76-2.21-.34-2.44s1.49.93,1.86,1.61c.64,1.19.53,1.93.17,2.12S164,429.77,163.39,428.61Z"/><path class="cls-3" d="M153.71,407.13c.37.68.76,2.21.34,2.43s-1.49-.93-1.86-1.61c-.64-1.19-.53-1.92-.17-2.12S153.08,406,153.71,407.13Z"/><path class="cls-3" d="M165.39,408.27c-.4.66-1.53,1.77-1.93,1.53s0-1.76.45-2.42c.71-1.16,1.4-1.43,1.75-1.21S166.08,407.14,165.39,408.27Z"/><path class="cls-3" d="M151.71,427.46c.4-.66,1.53-1.77,1.93-1.52s0,1.75-.45,2.41c-.71,1.16-1.4,1.43-1.75,1.22S151,428.59,151.71,427.46Z"/><path class="cls-3" d="M168.18,424.65c-.66-.4-1.77-1.52-1.53-1.93s1.76,0,2.42.45c1.16.69,1.43,1.38,1.22,1.74S169.32,425.33,168.18,424.65Z"/><path class="cls-3" d="M148.92,411.09c.66.39,1.77,1.51,1.53,1.92s-1.76-.05-2.42-.45c-1.16-.69-1.43-1.38-1.22-1.73S147.78,410.4,148.92,411.09Z"/><path class="cls-3" d="M157.18,429.57c0-.78.49-2.29,1-2.27s.8,1.57.76,2.34c-.05,1.35-.53,1.92-.94,1.9S157.12,430.89,157.18,429.57Z"/><path class="cls-3" d="M159.92,406.17c0,.77-.49,2.28-1,2.26s-.8-1.57-.76-2.34c.05-1.35.53-1.92.94-1.9S160,404.84,159.92,406.17Z"/><path class="cls-3" d="M169.35,413.16c-.68.36-2.22.73-2.44.31s1-1.48,1.63-1.84c1.2-.63,1.93-.51,2.13-.14S170.52,412.54,169.35,413.16Z"/><path class="cls-3" d="M147.75,422.58c.69-.36,2.22-.73,2.44-.31s-.95,1.47-1.63,1.83c-1.2.63-1.93.51-2.12.14S146.58,423.19,147.75,422.58Z"/><polyline class="cls-6" points="492.95 238.48 492.95 244.48 486.95 244.48"/><line class="cls-7" x1="475.11" y1="244.48" x2="30.97" y2="244.48"/><polyline class="cls-6" points="25.05 244.48 19.05 244.48 19.05 238.48"/><line class="cls-8" x1="19.05" y1="226.57" x2="19.05" y2="65.73"/><polyline class="cls-6" points="19.05 59.78 19.05 53.78 25.05 53.78"/><line class="cls-7" x1="36.89" y1="53.78" x2="481.03" y2="53.78"/><polyline class="cls-6" points="486.95 53.78 492.95 53.78 492.95 59.78"/><line class="cls-8" x1="492.95" y1="71.69" x2="492.95" y2="232.53"/></svg>