<svg id="Layer_1" data-name="Layer 1" xmlns="http://www.w3.org/2000/svg" viewBox="0 0 512 512"><defs><style>.cls-1{opacity:0.5;}.cls-2{fill:#fff;}.cls-3{fill:#2c2b39;}.cls-4{fill:#d9cebc;}.cls-5{fill:#e52828;}.cls-6{fill:#e5e528;}.cls-7{fill:#f1ece6;}.cls-8{opacity:0.4;}.cls-9{fill:#d334ea;}.cls-10{fill:#7dcc29;}.cls-11{fill:#5c05e5;}</style></defs><path class="cls-1" d="M140.63,395.07a180.21,180.21,0,0,1-40.45-4.17c-7.48-1.73-12-5.07-16.36-8.31A56.46,56.46,0,0,0,75,376.91l2-7.91h-.56l2.76-8.28c5.05-15.17,45.47-78.94,57.39-97.6l-1.32-3.41,13.23-5.12L191.85,367l13.11.24-23.61,24.5-2,.36a241.63,241.63,0,0,1-38.68,3Zm35.91-28.4-18.67-48.32c1.29,18.83,1.88,37,2.14,48Z"/><path class="cls-2" d="M135.3,389.73a180.69,180.69,0,0,1-40.45-4.16c-7.48-1.73-12-5.08-16.36-8.31a56.48,56.48,0,0,0-8.85-5.69l1.4-7.91,2.75-8.28c5.06-15.17,45.47-78.95,57.4-97.6l-1.33-3.42,13.24-5.11,43.42,112.37,13.1.24L176,386.36l-2.05.36a243.53,243.53,0,0,1-38.67,3Zm35.91-28.39L152.53,313c1.29,18.83,1.89,37,2.15,48Z"/><rect class="cls-3" x="58.41" y="315.16" width="115.32" height="1.38" transform="translate(-218.75 282.31) rotate(-64.1)"/><path class="cls-4" d="M184.83,368s-84.72-1.53-112.34-2.15C72.49,365.84,146.16,384.56,184.83,368Z"/><path class="cls-5" d="M72.49,365.84s72.74,12.74,112.34,2.15l-12,12.43s-40.68,7.23-76.56-1.08C85.92,376.93,82.52,370.84,72.49,365.84Z"/><rect class="cls-3" x="159.54" y="253.78" width="1.38" height="118.99" transform="translate(-102.14 78.81) rotate(-21.13)"/><rect class="cls-3" x="81.91" y="361.81" width="13.03" height="1.38" transform="translate(-208.29 136.26) rotate(-38.97)"/><path class="cls-6" d="M145.64,357.4s2.82-57-6.85-99.62c0,0-53.41,83.05-58.93,99.62,0,0,15.32.23,21.17,4.37C110.25,368.28,134.08,364.65,145.64,357.4Z"/><path class="cls-3" d="M138.79,257.78s10.48,70.25,5.93,112.56h3.74S147.53,289.35,138.79,257.78Z"/><path class="cls-7" d="M106.56,368.76s42.13,4.07,56.4,1.58C163,370.34,124.4,367.81,106.56,368.76Z"/><g class="cls-8"><path class="cls-2" d="M134.76,267.86s-18.49,59-18.68,69.05.82,18.12-3.14,21.49c0,0-16.39-11.82-24.51-7Z"/></g><path class="cls-1" d="M299.33,395.07a180.08,180.08,0,0,1-40.45-4.17c-7.48-1.73-12-5.07-16.37-8.31a56.34,56.34,0,0,0-8.84-5.68l2-7.91h-.55l2.75-8.28c5.05-15.17,45.47-78.94,57.39-97.6l-1.32-3.41,13.23-5.12L350.54,367l13.11.24-23.6,24.5-2.05.36a241.42,241.42,0,0,1-38.67,3Zm35.9-28.4-18.67-48.32c1.29,18.83,1.88,37,2.15,48Z"/><path class="cls-2" d="M294,389.73a180.82,180.82,0,0,1-40.45-4.16c-7.48-1.73-12-5.08-16.36-8.31a56.48,56.48,0,0,0-8.85-5.69l1.41-7.91,2.75-8.28c5-15.17,45.47-78.95,57.39-97.6l-1.32-3.42,13.23-5.11,43.42,112.37,13.11.24-23.61,24.5-2,.36a243.53,243.53,0,0,1-38.67,3Zm35.91-28.39L311.23,313c1.29,18.83,1.88,37,2.14,48Z"/><rect class="cls-3" x="217.11" y="315.16" width="115.32" height="1.38" transform="translate(-129.38 425.06) rotate(-64.1)"/><path class="cls-4" d="M343.52,368s-84.71-1.53-112.33-2.15C231.19,365.84,304.85,384.56,343.52,368Z"/><path class="cls-5" d="M231.19,365.84s72.74,12.74,112.33,2.15l-12,12.43s-40.69,7.23-76.56-1.08C244.61,376.93,241.21,370.84,231.19,365.84Z"/><rect class="cls-3" x="318.24" y="253.78" width="1.38" height="118.99" transform="translate(-91.48 136.01) rotate(-21.13)"/><rect class="cls-3" x="240.6" y="361.81" width="13.03" height="1.38" transform="translate(-172.98 236.06) rotate(-38.97)"/><path class="cls-9" d="M304.33,357.4s2.82-57-6.85-99.62c0,0-53.4,83.05-58.92,99.62,0,0,15.31.23,21.17,4.37C268.94,368.28,292.77,364.65,304.33,357.4Z"/><path class="cls-3" d="M297.48,257.78S308,328,303.41,370.34h3.74S306.23,289.35,297.48,257.78Z"/><path class="cls-7" d="M265.26,368.76s42.13,4.07,56.39,1.58C321.65,370.34,283.09,367.81,265.26,368.76Z"/><g class="cls-8"><path class="cls-2" d="M293.45,267.86s-18.49,59-18.68,69.05.83,18.12-3.13,21.49c0,0-16.4-11.82-24.52-7Z"/></g><path class="cls-1" d="M226,262.75a180.76,180.76,0,0,1-40.45-4.16c-7.48-1.74-12-5.08-16.36-8.31a56.48,56.48,0,0,0-8.85-5.69l2-7.91h-.56l2.75-8.27c5.06-15.19,45.48-79,57.4-97.61l-1.32-3.42,13.23-5.1,43.42,112.37,13.11.24-23.61,24.49-2,.37a243.89,243.89,0,0,1-38.68,3Zm35.91-28.39L243.18,186c1.3,18.83,1.89,37,2.15,48Z"/><path class="cls-2" d="M220.62,257.42a180.08,180.08,0,0,1-40.45-4.17c-7.48-1.73-12-5.07-16.37-8.31a56.34,56.34,0,0,0-8.84-5.68l1.4-7.92,2.75-8.28c5.06-15.18,45.48-78.95,57.4-97.6L215.18,122l13.24-5.11L271.84,229.3l13.1.24L261.34,254l-2,.36a241.42,241.42,0,0,1-38.67,3Zm35.9-28.4L237.85,180.7c1.29,18.83,1.88,37,2.15,48Z"/><rect class="cls-3" x="143.73" y="182.84" width="115.32" height="1.38" transform="translate(-51.67 284.54) rotate(-64.1)"/><path class="cls-4" d="M270.15,235.67s-84.72-1.53-112.34-2.14C157.81,233.53,231.47,252.25,270.15,235.67Z"/><path class="cls-5" d="M157.81,233.53s72.74,12.73,112.34,2.14l-12,12.43s-40.68,7.23-76.56-1.08C171.23,244.61,167.83,238.52,157.81,233.53Z"/><rect class="cls-3" x="244.86" y="121.46" width="1.38" height="118.99" transform="translate(-48.72 100.67) rotate(-21.13)"/><rect class="cls-3" x="167.23" y="229.5" width="13.03" height="1.38" transform="translate(-106.1 160.47) rotate(-38.97)"/><path class="cls-10" d="M231,225.08s2.83-57-6.84-99.62c0,0-53.41,83.05-58.93,99.63,0,0,15.32.23,21.17,4.36C195.57,236,219.4,232.34,231,225.08Z"/><path class="cls-3" d="M224.11,125.46S234.58,195.72,230,238h3.74S232.85,157,224.11,125.46Z"/><path class="cls-7" d="M191.88,236.45s42.13,4.06,56.4,1.57C248.28,238,209.72,235.49,191.88,236.45Z"/><g class="cls-8"><path class="cls-2" d="M220.08,135.54s-18.49,59-18.68,69.06.82,18.11-3.14,21.48c0,0-16.39-11.81-24.51-7Z"/></g><path class="cls-1" d="M378,262.75a180.69,180.69,0,0,1-40.45-4.16c-7.48-1.74-12-5.08-16.37-8.31a56.36,56.36,0,0,0-8.84-5.69l1.95-7.9h-.56l2.76-8.28c5.05-15.17,45.48-79,57.4-97.61l-1.32-3.42,13.22-5.1,43.42,112.37,13.11.24-23.6,24.49-2.05.37a243.53,243.53,0,0,1-38.67,3Zm35.9-28.39L395.27,186c1.29,18.83,1.88,37,2.15,48Z"/><path class="cls-2" d="M372.7,257.42a180.21,180.21,0,0,1-40.45-4.17c-7.48-1.73-12-5.07-16.36-8.31a56.46,56.46,0,0,0-8.85-5.68l1.4-7.91,2.76-8.29c5.05-15.17,45.48-79,57.39-97.6L367.28,122l13.22-5.11L423.92,229.3l13.11.24L413.42,254l-2,.36a241.63,241.63,0,0,1-38.68,3ZM408.61,229,389.94,180.7c1.29,18.83,1.88,37,2.14,48Z"/><rect class="cls-3" x="295.82" y="182.84" width="115.32" height="1.38" transform="translate(33.98 421.34) rotate(-64.1)"/><path class="cls-4" d="M422.23,235.67s-84.71-1.53-112.33-2.14C309.9,233.53,383.56,252.25,422.23,235.67Z"/><path class="cls-5" d="M309.9,233.53s72.74,12.73,112.33,2.14l-12,12.43s-40.69,7.23-76.56-1.08C323.32,244.61,319.92,238.52,309.9,233.53Z"/><rect class="cls-3" x="396.94" y="121.46" width="1.38" height="118.99" transform="translate(-38.49 155.48) rotate(-21.13)"/><rect class="cls-3" x="319.31" y="229.5" width="13.03" height="1.38" transform="translate(-72.26 256.11) rotate(-38.97)"/><path class="cls-11" d="M383,225.08s2.82-57-6.85-99.62c0,0-53.4,83.05-58.92,99.63,0,0,15.31.23,21.17,4.36C347.65,236,371.48,232.34,383,225.08Z"/><path class="cls-3" d="M376.19,125.46s10.48,70.26,5.93,112.56h3.74S384.94,157,376.19,125.46Z"/><path class="cls-7" d="M344,236.45s42.13,4.06,56.4,1.57C400.36,238,361.8,235.49,344,236.45Z"/><g class="cls-8"><path class="cls-2" d="M372.16,135.54s-18.49,59-18.68,69.06.82,18.11-3.13,21.48c0,0-16.4-11.81-24.52-7Z"/></g></svg>