<svg id="Layer_1" data-name="Layer 1" xmlns="http://www.w3.org/2000/svg" xmlns:xlink="http://www.w3.org/1999/xlink" viewBox="0 0 512 512"><defs><style>.cls-1{opacity:0.5;}.cls-2{fill:#fff;}.cls-3{fill:#27af0b;stroke:#067500;}.cls-3,.cls-5{stroke-miterlimit:10;stroke-width:2px;}.cls-4{fill:url(#linear-gradient);}.cls-5{fill:#ffb448;stroke:#c98123;}.cls-6{opacity:0.2;}</style><linearGradient id="linear-gradient" x1="198.93" y1="239.3" x2="205.81" y2="239.3" gradientUnits="userSpaceOnUse"><stop offset="0" stop-color="#ad3939"/><stop offset="0.2" stop-color="#690d0d"/><stop offset="0.79" stop-color="#e64f4f"/><stop offset="1" stop-color="#610f0f"/></linearGradient></defs><path class="cls-1" d="M207.71,391.91a8.86,8.86,0,0,1-7.17-3.81,11.34,11.34,0,0,1-2-6.55V247.48a6.8,6.8,0,0,1-.65-2.85V137.18l.65-.64v-.75c0-5.81,4-10.37,9.2-10.37a8.79,8.79,0,0,1,7.2,3.86,11.47,11.47,0,0,1,1.76,4.15h.87v5.64c18.14,17.28,36.34,18.75,54.93,18.75,2.07,0,4.14,0,6.21,0s4.22,0,6.33,0c22.41,0,49.71-.55,69.54,28.27,2.56,3.73,8.31,16.1,8.31,16.1l-15.37-5.86a30.1,30.1,0,0,0-11-2c-17.13,0-35.85,14-53.94,27.49-19.78,14.76-40.22,30-61.61,30-1.36,0-2.71-.06-4.05-.19v130C216.91,387.36,212.87,391.91,207.71,391.91Z"/><path class="cls-2" d="M202.38,386.58a8.86,8.86,0,0,1-7.17-3.81,11.35,11.35,0,0,1-2-6.56V242.15a6.83,6.83,0,0,1-.65-2.85V131.85l.65-.65v-.75c0-5.81,4-10.36,9.2-10.36a8.79,8.79,0,0,1,7.2,3.86,11.28,11.28,0,0,1,1.75,4.15h.88v5.64c18.14,17.28,36.34,18.75,54.93,18.75,2.07,0,4.14,0,6.21,0s4.22,0,6.33,0c22.41,0,49.71-.54,69.53,28.27,2.57,3.74,8.31,16.11,8.31,16.11l-15.36-5.87a30.31,30.31,0,0,0-11-2c-17.13,0-35.85,14-53.95,27.48-19.77,14.77-40.22,30-61.6,30-1.36,0-2.71-.06-4.06-.19v130C211.57,382,207.53,386.58,202.38,386.58Z"/><g id="_1_Flag" data-name="1 Flag"><path class="cls-3" d="M202.37,132.77c47.36,53,94.71-.85,142.07,52.18-47.36-18.09-94.71,70.73-142.07,52.63Z"/><path class="cls-4" d="M198.93,239.3c0-.59,1.54-1.06,3.44-1.06s3.44.47,3.44,1.06-1.54,1.06-3.44,1.06S198.93,239.89,198.93,239.3Z"/><path class="cls-5" d="M205.18,130.45V376.21c0,2.18-1.26,4-2.8,4a2.54,2.54,0,0,1-2-1.17,4.85,4.85,0,0,1-.81-2.8V130.45c0-2.2,1.24-4,2.8-4a2.45,2.45,0,0,1,2,1.15A5,5,0,0,1,205.18,130.45Z"/><path class="cls-3" d="M205.81,134.49c0-.55-1.54-1-3.44-1s-3.44.44-3.44,1h0V239.3c0-.55,1.55-1,3.44-1s3.44.44,3.44,1V134.5h0Z"/><path class="cls-6" d="M205.18,133.48v.42a8.09,8.09,0,0,0-2.8-.42,8,8,0,0,0-2.8.42v-.42a7.74,7.74,0,0,1,2.8-.43A7.82,7.82,0,0,1,205.18,133.48Z"/><path class="cls-6" d="M205.17,238.66v.43a9.33,9.33,0,0,0-5.6,0v-.43a9.54,9.54,0,0,1,5.6,0Z"/></g></svg>