<svg id="Layer_1" data-name="Layer 1" xmlns="http://www.w3.org/2000/svg" viewBox="0 0 512 512"><defs><style>.cls-1{opacity:0.5;}.cls-2{fill:#fff;}.cls-3{fill:#ed4300;}.cls-4{fill:#d33700;}.cls-5{fill:#583a2a;}.cls-6{opacity:0.4;}.cls-7{fill:#ff7d55;}</style></defs><path class="cls-1" d="M422.89,254c-.72,0-1.44,0-2.21-.08l-.67-.05c-.69,0-1.37-.1-2.05-.17l-.61-.08-.2,0c-.63-.08-1.27-.17-1.9-.27l-.79-.15c-.65-.11-1.28-.24-1.9-.37l-.72-.17c-.67-.16-1.31-.33-2-.5l-.62-.18c-.69-.21-1.39-.43-2.07-.66l-.43-.15c-.7-.24-1.4-.5-2.09-.78l-.12,0-.28-.13-3.15-1.28-.44-.37a50,50,0,0,1-26.89-37.07l-.1-.15-.16-1.83c-.09-.71-.15-1.44-.2-2.16v-.11a6.75,6.75,0,0,1-.06-.88c-.05-1-.07-1.79-.07-2.6A49.85,49.85,0,0,1,393,163.81l.37-.29c.8-.59,1.63-1.17,2.64-1.83l.21-.15.14-.08a50.11,50.11,0,0,1,27.12-8h.05l.19-.07,3.64.22.07.38,0-.36a50.27,50.27,0,0,1,22.17,7.16h0c.29.18.58.36.86.55l.48.32.79.52q.69.47,1.35,1c.29.2.58.42.87.65.46.35.9.69,1.34,1l.69.58.56.49.19,0,2.92,2.9.09.1.43.47.71.77c.43.48.84,1,1.24,1.43l.41.51a51.36,51.36,0,0,1,3.74,5.28l.25.4c.36.59.71,1.2,1,1.81l.25.48a50.24,50.24,0,0,1,2.74,6.07l.16.42c.12.33.24.68.36,1h0a59.16,59.16,0,0,1,2.61,14.69v.53c0,.3,0,.59,0,.88A50.31,50.31,0,0,1,452.14,245h0l-2.5,1.7L447.38,248A49.7,49.7,0,0,1,427,253.87l-.18,0h-.26c-.81,0-1.62.08-2.43.09l-1.1,0Z"/><path class="cls-2" d="M417.56,248.67c-.72,0-1.45,0-2.21-.07l-.68,0c-.68-.05-1.37-.1-2.05-.18l-.6-.07-.2,0c-.63-.08-1.27-.16-1.91-.27l-.79-.14c-.64-.11-1.27-.24-1.9-.38l-.71-.16c-.67-.16-1.32-.33-2-.51l-.63-.18c-.69-.2-1.38-.42-2.07-.65l-.43-.15c-.69-.25-1.39-.51-2.08-.79l-.12,0-.29-.13-3.15-1.29-.44-.36a50.07,50.07,0,0,1-26.88-37.07l-.1-.15-.17-1.83c-.08-.72-.14-1.44-.19-2.17v-.1a6.75,6.75,0,0,1-.06-.88c-.05-.95-.07-1.79-.07-2.6a49.83,49.83,0,0,1,19.76-40l.38-.29c.8-.6,1.63-1.17,2.63-1.83l.22-.15.14-.08a50.11,50.11,0,0,1,27.12-7.95h.05l.19-.07,3.63.22.07.38,0-.36a50.34,50.34,0,0,1,22.16,7.15h0c.29.17.58.36.86.55l.48.31.79.53c.46.31.9.63,1.35,1l.87.65c.46.36.9.7,1.34,1.06.18.14.69.58.69.58l.56.48.19,0,2.92,2.9.09.1c.15.15.29.31.43.46l.71.78c.42.48.84.95,1.24,1.43l.41.51a52.24,52.24,0,0,1,3.73,5.27l.25.41c.37.59.72,1.19,1,1.81l.26.47a49.69,49.69,0,0,1,2.74,6.08l.16.41.36,1h0A59.54,59.54,0,0,1,468.33,197v.53c0,.29,0,.58,0,.88a50.33,50.33,0,0,1-21.56,41.25h0l-2.5,1.7-2.26,1.23a49.56,49.56,0,0,1-20.39,5.92l-.18,0h-.26q-1.22.08-2.43.09l-1.1,0Z"/><circle class="cls-3" cx="418.11" cy="198.43" r="43.85" transform="translate(159.71 582.38) rotate(-81.45)"/><path class="cls-4" d="M440.92,161a43.85,43.85,0,0,1-56.41,65.62A43.85,43.85,0,1,0,440.92,161Z"/><path class="cls-5" d="M418.28,242.28c-7-1.84-10.5-5.95-14.65-14.31-3.78-7.59-5.86-17.23-5.86-27.13,0-10.83,1.57-20.64,4.53-28.37,3.64-9.51,9.5-15,17-17.89l2.32.13c-7,2.72-14.21,9.36-17.67,18.39-2.88,7.53-4.41,17.12-4.41,27.74,0,17,6.91,37.43,21.72,41.33Z"/><path class="cls-5" d="M413.39,214.37c-11.65,0-23.36-1.91-31.32-5.25-5.69-2.39-6.34-3.54-7.48-5.31l-.26-2.78c0,2.07,3.58,4.43,8.42,6.46,7.09,3,18.34,5.14,30.56,5.14,17,0,36.45-4.64,48.6-16.55l0,2.06a49.69,49.69,0,0,1-18.57,11.33,83.66,83.66,0,0,1-22.5,4.63C418.42,214.29,415.91,214.37,413.39,214.37Z"/><path class="cls-5" d="M401.15,196.08a29.53,29.53,0,0,1-6.2-.73c-4.48-1-7.51-4-8.77-8.73a25.16,25.16,0,0,1,.64-14.16c1.2-3.56,2.79-7.16,5-9.15l2.64-1.84c-2,1.75-4.76,7.14-6,11.47-1.35,4.8-1.58,9.63-.62,13.23,1.08,4.12,3.59,6.63,7.43,7.46a27.29,27.29,0,0,0,5.78.68c7.73,0,11.28-4.43,15.57-9.77,2.94-3.68,6.2-8,11.49-11.16,14.21-8.57,19.31-7.1,20-6.93l1.66,1.65s-6.51-2.29-20.69,6.76c-5,3.17-8.2,7.21-11.06,10.78C413.61,191.17,409.67,196.08,401.15,196.08Z"/><path class="cls-5" d="M399.1,238c-3.3-2.72-4.72-6.23-3.53-9.56.58-1.63,2.36-4.37,7.63-4.37h0c10,0,13.93,3.31,17.73,6.49,2.56,2.14,5,4.17,9.32,5a22.79,22.79,0,0,0,12.93-1.23L441,235.92,439,237a15,15,0,0,1-4,.88,16.42,16.42,0,0,1-5.06-.52c-4.78-.94-7.49-3.21-10.11-5.4-3.56-3-7.24-6.06-16.6-6.08h0c-3.16,0-5.22,1.11-6,3.21-.94,2.6,1.54,7.7,4.24,9.92Z"/><g class="cls-6"><path class="cls-7" d="M392,171c-4.7,5-7.71,11.75-7.49,18.6.12,3.68,1.24,7.46,3.85,10.05s6.9,3.64,10.1,1.84a12.31,12.31,0,0,0,4.31-4.89c2.17-3.8,3.84-8,6.78-11.2,4.33-4.78,11-7,15.1-12,1.71-2.07,2.94-4.93,1.93-7.42-2-5-12.35-5.76-16.89-5.14C403.28,161.75,396.35,166.43,392,171Z"/></g><path class="cls-1" d="M313,254c-.72,0-1.45,0-2.21-.08l-.68-.05c-.68,0-1.37-.1-2-.17l-.61-.08-.19,0c-.64-.08-1.27-.17-1.91-.27l-.79-.15c-.64-.11-1.27-.24-1.9-.37l-.72-.17-2-.5-.63-.18-2.07-.66-.43-.15c-.7-.24-1.39-.5-2.08-.78l-.13,0-.28-.13-3.15-1.28-.44-.37a50,50,0,0,1-26.88-37.07l-.1-.15-.17-1.83c-.08-.71-.14-1.44-.2-2.16v-.11c0-.23,0-.53,0-.88-.05-1-.08-1.79-.08-2.6a49.85,49.85,0,0,1,19.77-39.95l.38-.29c.79-.59,1.63-1.17,2.63-1.83l.22-.15.14-.08a50.1,50.1,0,0,1,27.11-8h.06l.18-.07,3.64.22.07.38,0-.36a50.22,50.22,0,0,1,22.16,7.16h0c.29.18.58.36.86.55l.48.32.79.52c.46.31.9.63,1.34,1s.59.42.88.65c.46.35.9.69,1.34,1l.68.58.57.49.19,0,2.92,2.9.09.1.43.47.71.77c.42.48.83,1,1.23,1.43l.42.51a51.27,51.27,0,0,1,3.73,5.28l.25.4c.37.59.72,1.2,1,1.81l.26.48a51.84,51.84,0,0,1,2.74,6.07l.15.42c.13.33.25.68.37,1h0a59.62,59.62,0,0,1,2.61,14.69v.53c0,.3,0,.59,0,.88A50.33,50.33,0,0,1,342.29,245h0l-2.5,1.7L337.53,248a49.7,49.7,0,0,1-20.4,5.91l-.17,0h-.27c-.8,0-1.61.08-2.42.09l-1.1,0Z"/><path class="cls-2" d="M307.71,248.67c-.73,0-1.45,0-2.21-.07l-.68,0c-.68-.05-1.37-.1-2.05-.18l-.61-.07-.2,0c-.63-.08-1.27-.16-1.9-.27l-.79-.14c-.64-.11-1.27-.24-1.9-.38l-.72-.16q-1-.24-1.95-.51l-.63-.18c-.69-.2-1.38-.42-2.07-.65l-.43-.15c-.7-.25-1.39-.51-2.08-.79l-.13,0-.28-.13-3.15-1.29-.44-.36a50,50,0,0,1-26.88-37.07l-.1-.15-.17-1.83c-.08-.72-.15-1.44-.2-2.17v-.1a7,7,0,0,1-.05-.88c-.05-.95-.08-1.79-.08-2.6a49.84,49.84,0,0,1,19.77-40l.37-.29c.8-.6,1.63-1.17,2.64-1.83l.22-.15.14-.08a50.07,50.07,0,0,1,27.11-7.95h.06l.18-.07,3.64.22.07.38,0-.36a50.34,50.34,0,0,1,22.16,7.15h0c.29.17.57.36.86.55l.47.31.8.53c.46.31.9.63,1.34,1l.87.65c.46.36.91.7,1.34,1.06.18.14.69.58.69.58l.56.48.19,0,2.93,2.9.09.1c.14.15.28.31.43.46l.7.78c.43.48.84.95,1.24,1.43l.41.51a50.78,50.78,0,0,1,3.74,5.27l.25.41c.37.59.71,1.19,1,1.81l.25.47a48.22,48.22,0,0,1,2.74,6.08l.16.41.36,1h0A58.62,58.62,0,0,1,358.47,197l0,.26v.27c0,.29,0,.58,0,.88A50.33,50.33,0,0,1,337,239.68h0l-2.49,1.7-2.26,1.23a49.65,49.65,0,0,1-20.4,5.92l-.17,0h-.27q-1.2.08-2.43.09l-1.1,0Z"/><circle class="cls-3" cx="308.25" cy="198.43" r="43.85" transform="translate(66.19 473.75) rotate(-81.45)"/><path class="cls-4" d="M331.06,161a43.85,43.85,0,0,1-56.41,65.62A43.85,43.85,0,1,0,331.06,161Z"/><path class="cls-5" d="M308.43,242.28c-7-1.84-10.51-5.95-14.66-14.31-3.77-7.59-5.85-17.23-5.85-27.13,0-10.83,1.56-20.64,4.52-28.37,3.64-9.51,9.51-15,17-17.89l2.32.13c-7,2.72-14.21,9.36-17.66,18.39-2.89,7.53-4.41,17.12-4.41,27.74,0,17,6.91,37.43,21.71,41.33Z"/><path class="cls-5" d="M303.54,214.37c-11.65,0-23.37-1.91-31.32-5.25-5.69-2.39-6.35-3.54-7.49-5.31l-.25-2.78c0,2.07,3.58,4.43,8.42,6.46,7.08,3,18.34,5.14,30.56,5.14,17,0,36.44-4.64,48.6-16.55l0,2.06a49.53,49.53,0,0,1-18.57,11.33A83.59,83.59,0,0,1,311,214.1C308.57,214.29,306.05,214.37,303.54,214.37Z"/><path class="cls-5" d="M291.3,196.08a29.38,29.38,0,0,1-6.2-.73c-4.49-1-7.52-4-8.77-8.73a25.24,25.24,0,0,1,.63-14.16c1.2-3.56,2.8-7.16,5-9.15l2.65-1.84c-2,1.75-4.77,7.14-6,11.47-1.35,4.8-1.58,9.63-.63,13.23,1.09,4.12,3.59,6.63,7.44,7.46a27.21,27.21,0,0,0,5.77.68c7.74,0,11.29-4.43,15.57-9.77,2.95-3.68,6.21-8,11.49-11.16,14.21-8.57,19.32-7.1,20-6.93l1.67,1.65s-6.51-2.29-20.69,6.76c-5,3.17-8.2,7.21-11.06,10.78C303.75,191.17,299.82,196.08,291.3,196.08Z"/><path class="cls-5" d="M289.25,238c-3.3-2.72-4.73-6.23-3.54-9.56.59-1.63,2.36-4.37,7.64-4.37h0c10,0,13.92,3.31,17.72,6.49,2.57,2.14,5,4.17,9.32,5a22.75,22.75,0,0,0,12.93-1.23l-2.24,1.52L329.16,237a14.66,14.66,0,0,1-4,.88,16.48,16.48,0,0,1-5.07-.52c-4.77-.94-7.48-3.21-10.11-5.4-3.56-3-7.24-6.06-16.6-6.08h0c-3.16,0-5.23,1.11-6,3.21-.93,2.6,1.54,7.7,4.25,9.92Z"/><g class="cls-6"><path class="cls-7" d="M282.15,171c-4.7,5-7.71,11.75-7.49,18.6.12,3.68,1.24,7.46,3.85,10.05s6.9,3.64,10.11,1.84a12.36,12.36,0,0,0,4.3-4.89c2.18-3.8,3.84-8,6.78-11.2,4.34-4.78,11-7,15.1-12,1.72-2.07,2.95-4.93,1.93-7.42-2-5-12.35-5.76-16.88-5.14C293.43,161.75,286.49,166.43,282.15,171Z"/></g><path class="cls-1" d="M203.18,254c-.72,0-1.44,0-2.21-.08l-.67-.05c-.69,0-1.37-.1-2.05-.17l-.61-.08-.2,0c-.63-.08-1.27-.17-1.9-.27l-.79-.15c-.64-.11-1.28-.24-1.9-.37l-.72-.17c-.67-.16-1.31-.33-1.95-.5l-.63-.18c-.69-.21-1.39-.43-2.07-.66l-.43-.15c-.7-.24-1.4-.5-2.09-.78l-.12,0-.28-.13-3.15-1.28-.44-.37a50,50,0,0,1-26.88-37.07l-.11-.15-.16-1.83c-.08-.71-.15-1.44-.2-2.16v-.11a7,7,0,0,1-.05-.88c-.06-1-.08-1.79-.08-2.6a49.85,49.85,0,0,1,19.77-39.95l.37-.29c.8-.59,1.63-1.17,2.64-1.83l.22-.15.14-.08a50.07,50.07,0,0,1,27.11-8h.05l.19-.07,3.64.22.07.38,0-.36a50.27,50.27,0,0,1,22.16,7.16h0c.3.18.58.36.86.55l.48.32.79.52q.69.47,1.35,1c.29.2.58.42.87.65.46.35.91.69,1.34,1l.69.58c.19.16.38.32.56.49l.19,0,2.93,2.9.09.1.42.47.71.77c.43.48.84,1,1.24,1.43l.41.51a49.86,49.86,0,0,1,3.74,5.28l.25.4c.36.59.71,1.2,1,1.81l.25.48a48.74,48.74,0,0,1,2.74,6.07l.16.42c.12.33.24.68.36,1h0A58.7,58.7,0,0,1,254,202.35v.53c0,.3,0,.59,0,.88A50.31,50.31,0,0,1,232.43,245h0l-2.49,1.7L227.68,248a49.79,49.79,0,0,1-20.4,5.91l-.18,0h-.26c-.81,0-1.61.08-2.43.09l-1.1,0Z"/><path class="cls-2" d="M197.85,248.67c-.72,0-1.45,0-2.21-.07l-.68,0c-.68-.05-1.36-.1-2.05-.18l-.6-.07-.2,0c-.63-.08-1.27-.16-1.9-.27l-.8-.14c-.64-.11-1.27-.24-1.89-.38l-.72-.16c-.67-.16-1.32-.33-2-.51l-.63-.18c-.69-.2-1.38-.42-2.06-.65l-.43-.15c-.7-.25-1.4-.51-2.09-.79l-.12,0-.28-.13-3.15-1.29-.45-.36a50.07,50.07,0,0,1-26.88-37.07l-.1-.15-.17-1.83c-.08-.72-.14-1.44-.19-2.17v-.1a6.75,6.75,0,0,1-.06-.88c-.05-.95-.07-1.79-.07-2.6a49.83,49.83,0,0,1,19.76-40l.38-.29c.8-.6,1.63-1.17,2.64-1.83l.21-.15.14-.08a50.11,50.11,0,0,1,27.12-7.95h0l.19-.07,3.63.22.07.38,0-.36a50.34,50.34,0,0,1,22.16,7.15h0c.29.17.58.36.86.55l.48.31.79.53c.46.31.91.63,1.35,1l.87.65c.46.36.9.7,1.34,1.06.18.14.69.58.69.58l.56.48.19,0,2.92,2.9.09.1c.15.15.29.31.43.46l.71.78c.43.48.84.95,1.24,1.43l.41.51a52.34,52.34,0,0,1,3.74,5.27l.25.41c.36.59.71,1.19,1,1.81l.25.47a49.69,49.69,0,0,1,2.74,6.08l.16.41.36,1h0A59.08,59.08,0,0,1,248.62,197v.53c0,.29,0,.58,0,.88a50.33,50.33,0,0,1-21.57,41.25h0l-2.5,1.7-2.26,1.23A49.56,49.56,0,0,1,202,248.54l-.18,0h-.26q-1.22.08-2.43.09l-1.1,0Z"/><circle class="cls-3" cx="198.4" cy="198.43" r="43.85" transform="translate(-27.32 365.11) rotate(-81.45)"/><path class="cls-4" d="M221.21,161a43.85,43.85,0,0,1-56.41,65.62A43.85,43.85,0,1,0,221.21,161Z"/><path class="cls-5" d="M198.58,242.28c-7-1.84-10.51-5.95-14.66-14.31-3.78-7.59-5.85-17.23-5.85-27.13,0-10.83,1.56-20.64,4.52-28.37,3.64-9.51,9.51-15,17-17.89l2.32.13c-7,2.72-14.21,9.36-17.67,18.39-2.88,7.53-4.4,17.12-4.4,27.74,0,17,6.9,37.43,21.71,41.33Z"/><path class="cls-5" d="M193.68,214.37c-11.65,0-23.36-1.91-31.32-5.25-5.69-2.39-6.34-3.54-7.48-5.31l-.26-2.78c0,2.07,3.58,4.43,8.43,6.46,7.08,3,18.33,5.14,30.55,5.14,17,0,36.45-4.64,48.6-16.55l.05,2.06a49.69,49.69,0,0,1-18.57,11.33,83.66,83.66,0,0,1-22.5,4.63C198.71,214.29,196.2,214.37,193.68,214.37Z"/><path class="cls-5" d="M181.44,196.08a29.53,29.53,0,0,1-6.2-.73c-4.48-1-7.51-4-8.76-8.73a25.06,25.06,0,0,1,.63-14.16c1.2-3.56,2.8-7.16,5-9.15l2.64-1.84c-2,1.75-4.76,7.14-6,11.47-1.35,4.8-1.57,9.63-.62,13.23,1.08,4.12,3.59,6.63,7.44,7.46a27.14,27.14,0,0,0,5.77.68c7.73,0,11.28-4.43,15.57-9.77,2.95-3.68,6.2-8,11.49-11.16,14.21-8.57,19.31-7.1,20-6.93l1.66,1.65s-6.51-2.29-20.69,6.76c-4.95,3.17-8.2,7.21-11.06,10.78C193.9,191.17,190,196.08,181.44,196.08Z"/><path class="cls-5" d="M179.39,238c-3.3-2.72-4.72-6.23-3.53-9.56.59-1.63,2.36-4.37,7.63-4.37h0c10,0,13.93,3.31,17.73,6.49,2.56,2.14,5,4.17,9.32,5a22.79,22.79,0,0,0,12.93-1.23l-2.24,1.52L219.31,237a15,15,0,0,1-4,.88,16.48,16.48,0,0,1-5.07-.52c-4.77-.94-7.49-3.21-10.11-5.4-3.56-3-7.24-6.06-16.6-6.08h0c-3.15,0-5.22,1.11-6,3.21-.94,2.6,1.54,7.7,4.24,9.92Z"/><g class="cls-6"><path class="cls-7" d="M172.3,171c-4.7,5-7.71,11.75-7.49,18.6.12,3.68,1.24,7.46,3.85,10.05s6.9,3.64,10.1,1.84a12.31,12.31,0,0,0,4.31-4.89c2.17-3.8,3.84-8,6.78-11.2,4.34-4.78,11-7,15.1-12,1.71-2.07,2.94-4.93,1.93-7.42-2-5-12.35-5.76-16.89-5.14C183.57,161.75,176.64,166.43,172.3,171Z"/></g><path class="cls-1" d="M93.33,254c-.72,0-1.45,0-2.21-.08l-.68-.05c-.68,0-1.37-.1-2-.17l-.6-.08-.2,0c-.64-.08-1.27-.17-1.91-.27l-.79-.15c-.64-.11-1.27-.24-1.9-.37l-.71-.17c-.67-.16-1.32-.33-2-.5l-.63-.18-2.07-.66-.43-.15c-.69-.24-1.39-.5-2.08-.78l-.13,0-.28-.13-3.15-1.28-.44-.37a50.06,50.06,0,0,1-26.88-37.07l-.1-.15L44,209.51c-.08-.71-.14-1.44-.2-2.16v-.11a6.75,6.75,0,0,1-.06-.88c-.05-1-.07-1.79-.07-2.6a49.84,49.84,0,0,1,19.76-39.95l.38-.29c.8-.59,1.63-1.17,2.63-1.83l.22-.15.14-.08a50.11,50.11,0,0,1,27.12-8h.05l.19-.07,3.63.22.07.38,0-.36A50.22,50.22,0,0,1,120,160.84h0c.29.18.58.36.86.55l.48.32.79.52c.46.31.9.63,1.35,1,.28.2.58.42.87.65.46.35.9.69,1.34,1l.69.58.56.49.19,0,2.92,2.9.09.1.43.47.71.77c.42.48.84,1,1.24,1.43l.41.51a51.27,51.27,0,0,1,3.73,5.28l.25.4c.37.59.72,1.2,1,1.81l.26.48a50.24,50.24,0,0,1,2.74,6.07l.15.42c.13.33.25.68.37,1h0a59.62,59.62,0,0,1,2.61,14.69v.53c0,.3,0,.59,0,.88A50.33,50.33,0,0,1,122.58,245h0l-2.5,1.7L117.82,248a49.7,49.7,0,0,1-20.39,5.91l-.18,0H97c-.81,0-1.62.08-2.43.09l-1.1,0Z"/><path class="cls-2" d="M88,248.67c-.73,0-1.45,0-2.21-.07l-.68,0c-.68-.05-1.37-.1-2-.18l-.61-.07-.19,0c-.64-.08-1.28-.16-1.91-.27l-.79-.14c-.64-.11-1.27-.24-1.9-.38l-.72-.16q-1-.24-2-.51l-.63-.18c-.69-.2-1.38-.42-2.07-.65l-.43-.15c-.7-.25-1.39-.51-2.08-.79l-.13,0-.28-.13-3.15-1.29-.44-.36A50,50,0,0,1,38.9,206.16l-.1-.15-.17-1.83c-.08-.72-.15-1.44-.2-2.17v-.1a7,7,0,0,1-.05-.88c0-.95-.08-1.79-.08-2.6a49.84,49.84,0,0,1,19.77-40l.38-.29c.79-.6,1.63-1.17,2.63-1.83l.22-.15.14-.08a50.07,50.07,0,0,1,27.11-7.95h.06l.18-.07,3.64.22.07.38,0-.36a50.34,50.34,0,0,1,22.16,7.15h0c.29.17.57.36.86.55l.47.31.8.53c.46.31.9.63,1.34,1l.87.65c.47.36.91.7,1.35,1.06l.68.58.57.48.19,0,2.92,2.9.09.1.43.46.71.78c.42.48.83.95,1.23,1.43l.42.51a52.24,52.24,0,0,1,3.73,5.27l.25.41c.37.59.71,1.19,1,1.81l.26.47a49.64,49.64,0,0,1,2.73,6.08l.16.41c.12.34.25.69.36,1h0A58.62,58.62,0,0,1,138.76,197l0,.26v.27c0,.29,0,.58,0,.88a50.33,50.33,0,0,1-21.56,41.25h0l-2.49,1.7-2.26,1.23a49.61,49.61,0,0,1-20.4,5.92l-.17,0h-.27q-1.2.08-2.43.09l-1.09,0Z"/><circle class="cls-3" cx="88.54" cy="198.43" r="43.85" transform="translate(-120.84 256.48) rotate(-81.45)"/><path class="cls-4" d="M111.36,161a43.86,43.86,0,0,1-56.42,65.62A43.85,43.85,0,1,0,111.36,161Z"/><path class="cls-5" d="M88.72,242.28c-7-1.84-10.51-5.95-14.66-14.31-3.77-7.59-5.85-17.23-5.85-27.13,0-10.83,1.57-20.64,4.52-28.37,3.64-9.51,9.51-15,17-17.89l2.32.13c-7,2.72-14.21,9.36-17.66,18.39C71.5,180.63,70,190.22,70,200.84c0,17,6.91,37.43,21.71,41.33Z"/><path class="cls-5" d="M83.83,214.37c-11.65,0-23.37-1.91-31.32-5.25-5.69-2.39-6.35-3.54-7.49-5.31L44.77,201c0,2.07,3.58,4.43,8.42,6.46,7.09,3,18.34,5.14,30.56,5.14,17,0,36.44-4.64,48.6-16.55l0,2.06a49.57,49.57,0,0,1-18.56,11.33,83.66,83.66,0,0,1-22.5,4.63C88.86,214.29,86.34,214.37,83.83,214.37Z"/><path class="cls-5" d="M71.59,196.08a29.38,29.38,0,0,1-6.2-.73c-4.48-1-7.52-4-8.77-8.73a25.24,25.24,0,0,1,.63-14.16c1.2-3.56,2.8-7.16,5-9.15l2.65-1.84c-2,1.75-4.77,7.14-6,11.47-1.35,4.8-1.58,9.63-.63,13.23,1.09,4.12,3.59,6.63,7.44,7.46a27.21,27.21,0,0,0,5.77.68c7.74,0,11.29-4.43,15.58-9.77,2.94-3.68,6.2-8,11.48-11.16,14.21-8.57,19.32-7.1,20-6.93l1.67,1.65s-6.51-2.29-20.69,6.76c-5,3.17-8.2,7.21-11.06,10.78C84.05,191.17,80.11,196.08,71.59,196.08Z"/><path class="cls-5" d="M69.54,238c-3.3-2.72-4.73-6.23-3.53-9.56.58-1.63,2.35-4.37,7.63-4.37h0c10,0,13.92,3.31,17.72,6.49,2.57,2.14,5,4.17,9.33,5a22.73,22.73,0,0,0,12.92-1.23l-2.23,1.52-2,1.07a15,15,0,0,1-4,.88,16.39,16.39,0,0,1-5.06-.52c-4.78-.94-7.49-3.21-10.12-5.4-3.56-3-7.23-6.06-16.59-6.08h0c-3.16,0-5.23,1.11-6,3.21-.93,2.6,1.55,7.7,4.25,9.92Z"/><g class="cls-6"><path class="cls-7" d="M62.44,171c-4.7,5-7.71,11.75-7.49,18.6.12,3.68,1.24,7.46,3.85,10.05s6.9,3.64,10.11,1.84a12.46,12.46,0,0,0,4.31-4.89c2.17-3.8,3.83-8,6.77-11.2,4.34-4.78,11-7,15.11-12C96.81,171.36,98,168.5,97,166c-2-5-12.35-5.76-16.88-5.14C73.72,161.75,66.78,166.43,62.44,171Z"/></g><path class="cls-1" d="M366.37,363.86c-.73,0-1.45,0-2.21-.07l-.68-.05c-.68-.05-1.37-.1-2.05-.18l-.61-.07-.2,0c-.63-.08-1.27-.17-1.9-.27l-.79-.14c-.64-.12-1.27-.24-1.9-.38l-.72-.17c-.66-.15-1.31-.32-1.95-.5l-.63-.18q-1-.3-2.07-.66l-.43-.14c-.7-.25-1.39-.51-2.08-.79l-.13,0-.28-.12-3.15-1.29-.44-.36a50,50,0,0,1-26.88-37.07l-.1-.15-.17-1.83c-.08-.72-.15-1.44-.2-2.17v-.11a7,7,0,0,1-.05-.88c-.05-.94-.08-1.78-.08-2.6a49.85,49.85,0,0,1,19.77-39.95l.37-.28c.8-.6,1.63-1.18,2.64-1.83l.22-.15.14-.08a50,50,0,0,1,27.11-8H367l.18-.06,3.64.21.07.39,0-.37a50.35,50.35,0,0,1,22.16,7.16h0l.86.56.47.31.8.52,1.34,1,.87.65c.46.35.91.7,1.34,1.05l.69.59.56.48.19.05,2.93,2.89.09.11.43.46.7.78c.43.47.84,1,1.24,1.43l.41.51a49.74,49.74,0,0,1,3.74,5.27l.25.4c.37.6.71,1.2,1,1.81l.25.48a48.74,48.74,0,0,1,2.74,6.07l.16.42c.12.34.24.68.36,1h0a58.62,58.62,0,0,1,2.61,14.68l0,.27v.27c0,.29,0,.58,0,.87a50.3,50.3,0,0,1-21.56,41.25v0l-2.49,1.7-2.26,1.23a49.65,49.65,0,0,1-20.4,5.92l-.17,0H370q-1.2.08-2.43.09l-1.1,0Z"/><path class="cls-2" d="M361,358.53c-.72,0-1.44,0-2.21-.08l-.67-.05c-.69,0-1.37-.1-2-.17l-.61-.08-.2,0c-.63-.08-1.27-.17-1.9-.27l-.79-.14c-.65-.12-1.28-.24-1.9-.38l-.72-.17c-.67-.16-1.31-.32-2-.5l-.62-.18c-.69-.2-1.39-.43-2.07-.66l-.43-.15c-.7-.24-1.4-.5-2.09-.78l-.12,0-.28-.12-3.15-1.29-.44-.37A50,50,0,0,1,311.93,316l-.1-.15-.16-1.83c-.09-.71-.15-1.43-.2-2.16v-.11a6.75,6.75,0,0,1-.06-.88c0-.95-.07-1.79-.07-2.6a49.85,49.85,0,0,1,19.77-39.95l.37-.28c.8-.6,1.63-1.18,2.64-1.84l.22-.15.13-.08a50.11,50.11,0,0,1,27.12-8h.05l.19-.07,3.64.22.07.38,0-.36a50.27,50.27,0,0,1,22.17,7.16h0l.86.56.48.31.79.52q.69.47,1.35,1l.87.65c.46.35.91.69,1.34,1l.69.59c.19.15.37.32.56.48l.19,0,2.92,2.89.09.11c.15.15.29.3.43.46l.71.77c.43.48.84.95,1.24,1.43l.41.51a51.36,51.36,0,0,1,3.74,5.28l.25.4c.36.59.71,1.2,1,1.81l.25.48a50.24,50.24,0,0,1,2.74,6.07l.16.42c.12.33.24.68.36,1h0a59.16,59.16,0,0,1,2.61,14.69v.54q0,.43,0,.87a50.28,50.28,0,0,1-21.57,41.25v0l-2.5,1.69-2.26,1.24a49.87,49.87,0,0,1-20.39,5.92l-.18,0h-.26q-1.21.07-2.43.09l-1.1,0Z"/><circle class="cls-3" cx="361.58" cy="308.28" r="43.85" transform="translate(2.96 620) rotate(-81.45)"/><path class="cls-4" d="M384.39,270.81A43.85,43.85,0,0,1,328,336.43a43.85,43.85,0,1,0,56.41-65.62Z"/><path class="cls-5" d="M361.76,352.13c-7-1.83-10.51-5.94-14.66-14.3-3.77-7.6-5.85-17.23-5.85-27.13,0-10.84,1.56-20.65,4.52-28.38,3.64-9.51,9.51-15,17-17.89l2.32.14c-7,2.72-14.21,9.36-17.67,18.38-2.88,7.53-4.4,17.12-4.4,27.75,0,17,6.9,37.43,21.71,41.32Z"/><path class="cls-5" d="M356.87,324.23c-11.65,0-23.37-1.92-31.32-5.26-5.69-2.39-6.35-3.54-7.49-5.3l-.26-2.79c0,2.08,3.59,4.43,8.43,6.47,7.08,3,18.33,5.13,30.56,5.13,17,0,36.44-4.63,48.6-16.55l0,2.07a49.79,49.79,0,0,1-18.57,11.33,84,84,0,0,1-22.5,4.63C361.89,324.14,359.38,324.23,356.87,324.23Z"/><path class="cls-5" d="M344.63,305.93a29.38,29.38,0,0,1-6.2-.73c-4.49-1-7.52-4-8.77-8.72a25.05,25.05,0,0,1,.63-14.16c1.2-3.57,2.8-7.17,5-9.16l2.65-1.84c-2,1.76-4.77,7.14-6,11.47-1.34,4.81-1.57,9.63-.62,13.24,1.09,4.11,3.59,6.62,7.44,7.45a27.21,27.21,0,0,0,5.77.68c7.74,0,11.28-4.42,15.57-9.77,2.95-3.67,6.2-8,11.49-11.16,14.21-8.56,19.31-7.1,20-6.93l1.67,1.65s-6.52-2.29-20.69,6.77c-5,3.16-8.2,7.21-11.06,10.77C357.08,301,353.14,305.93,344.63,305.93Z"/><path class="cls-5" d="M342.57,347.89c-3.3-2.71-4.72-6.23-3.53-9.55.59-1.64,2.36-4.37,7.63-4.37h0c10,0,13.93,3.3,17.73,6.48,2.57,2.15,5,4.18,9.32,5a22.72,22.72,0,0,0,12.93-1.22l-2.24,1.52-1.95,1.06a15,15,0,0,1-4,.88,16.14,16.14,0,0,1-5.07-.51c-4.77-.94-7.49-3.21-10.11-5.41-3.56-3-7.24-6.05-16.6-6.07h0c-3.15,0-5.22,1.11-6,3.2-.94,2.61,1.54,7.71,4.24,9.93Z"/><g class="cls-6"><path class="cls-7" d="M335.48,280.9A26.45,26.45,0,0,0,328,299.5c.12,3.67,1.24,7.46,3.85,10.05s6.9,3.64,10.1,1.84a12.31,12.31,0,0,0,4.31-4.89c2.17-3.8,3.84-8,6.78-11.2,4.34-4.78,11-7,15.1-12,1.72-2.07,2.94-4.94,1.93-7.42-2-5-12.35-5.76-16.88-5.14C346.76,271.61,339.82,276.29,335.48,280.9Z"/></g><path class="cls-1" d="M256.51,363.86c-.72,0-1.45,0-2.21-.07l-.68-.05c-.68-.05-1.36-.1-2.05-.18l-.6-.07-.2,0c-.63-.08-1.27-.17-1.9-.27l-.8-.14c-.64-.12-1.27-.24-1.89-.38l-.72-.17c-.67-.15-1.32-.32-2-.5l-.63-.18c-.69-.2-1.38-.42-2.06-.66l-.43-.14c-.7-.25-1.4-.51-2.09-.79l-.12,0-.28-.12-3.15-1.29-.45-.36a50.07,50.07,0,0,1-26.88-37.07l-.1-.15-.16-1.83c-.09-.72-.15-1.44-.2-2.17v-.11a6.75,6.75,0,0,1-.06-.88c0-.94-.07-1.78-.07-2.6a49.84,49.84,0,0,1,19.76-39.95l.38-.28c.8-.6,1.63-1.18,2.64-1.83l.21-.15.14-.08a50,50,0,0,1,27.12-8h.05l.19-.06,3.63.21.07.39,0-.37a50.35,50.35,0,0,1,22.16,7.16h0l.86.56.48.31.79.52,1.35,1,.87.65c.46.35.9.7,1.34,1.05l.69.59.56.48.19.05,2.92,2.89.09.11c.15.15.29.31.43.46s.53.57.71.78c.43.47.84,1,1.24,1.43l.41.51a51.23,51.23,0,0,1,3.74,5.27l.25.4c.36.6.71,1.2,1,1.81l.25.48a50.24,50.24,0,0,1,2.74,6.07l.16.42c.12.34.24.68.36,1h0a59.08,59.08,0,0,1,2.61,14.68v.54q0,.43,0,.87a50.31,50.31,0,0,1-21.57,41.25v0l-2.5,1.7L281,357.81a49.56,49.56,0,0,1-20.39,5.92l-.18,0h-.26q-1.21.08-2.43.09l-1.1,0Z"/><path class="cls-2" d="M251.18,358.53c-.72,0-1.45,0-2.21-.08l-.68-.05c-.68,0-1.37-.1-2-.17l-.61-.08-.19,0c-.64-.08-1.27-.17-1.91-.27l-.79-.14c-.64-.12-1.27-.24-1.9-.38l-.72-.17c-.66-.16-1.31-.32-2-.5l-.63-.18c-.69-.2-1.38-.43-2.07-.66l-.43-.15c-.69-.24-1.39-.5-2.08-.78l-.13,0-.28-.12-3.15-1.29-.44-.37A50,50,0,0,1,202.08,316l-.1-.15-.17-1.83c-.08-.71-.14-1.43-.2-2.16v-.11c0-.23,0-.53,0-.88-.05-.95-.08-1.79-.08-2.6a49.85,49.85,0,0,1,19.77-39.95l.38-.28c.79-.6,1.63-1.18,2.63-1.84l.22-.15.14-.08a50.1,50.1,0,0,1,27.11-8h.06L252,258l3.64.22.07.38,0-.36a50.22,50.22,0,0,1,22.16,7.16h0l.86.56.48.31.79.52c.46.31.9.63,1.34,1l.88.65c.46.35.9.69,1.34,1l.68.59c.19.15.38.32.57.48l.19,0,2.92,2.89.09.11c.15.15.29.3.43.46l.71.77c.42.48.83.95,1.23,1.43l.42.51a51.27,51.27,0,0,1,3.73,5.28l.25.4c.37.59.72,1.2,1,1.81l.26.48a50.24,50.24,0,0,1,2.74,6.07l.15.42c.13.33.25.68.37,1h0A59.62,59.62,0,0,1,302,306.87v.54c0,.29,0,.58,0,.87a50.3,50.3,0,0,1-21.56,41.25v0l-2.5,1.69-2.26,1.24a49.87,49.87,0,0,1-20.39,5.92l-.18,0h-.27c-.8.05-1.61.08-2.42.09l-1.1,0Z"/><circle class="cls-3" cx="251.72" cy="308.28" r="43.85" transform="translate(-90.56 511.37) rotate(-81.45)"/><path class="cls-4" d="M274.54,270.81a43.86,43.86,0,0,1-56.42,65.62,43.85,43.85,0,1,0,56.42-65.62Z"/><path class="cls-5" d="M251.9,352.13c-7-1.83-10.51-5.94-14.66-14.3-3.77-7.6-5.85-17.23-5.85-27.13,0-10.84,1.57-20.65,4.53-28.38,3.64-9.51,9.5-15,17-17.89l2.33.14c-7,2.72-14.22,9.36-17.67,18.38-2.88,7.53-4.41,17.12-4.41,27.75,0,17,6.91,37.43,21.72,41.32Z"/><path class="cls-5" d="M247,324.23c-11.65,0-23.37-1.92-31.32-5.26-5.69-2.39-6.34-3.54-7.49-5.3l-.25-2.79c0,2.08,3.58,4.43,8.42,6.47,7.09,3,18.34,5.13,30.56,5.13,17,0,36.45-4.63,48.6-16.55l.05,2.07A50,50,0,0,1,277,319.33a84,84,0,0,1-22.5,4.63C252,324.14,249.53,324.23,247,324.23Z"/><path class="cls-5" d="M234.77,305.93a29.53,29.53,0,0,1-6.2-.73c-4.48-1-7.51-4-8.77-8.72a25.23,25.23,0,0,1,.63-14.16c1.21-3.57,2.8-7.17,5-9.16l2.65-1.84c-2,1.76-4.77,7.14-6,11.47-1.35,4.81-1.58,9.63-.62,13.24,1.08,4.11,3.58,6.62,7.43,7.45a27.29,27.29,0,0,0,5.78.68c7.73,0,11.28-4.42,15.57-9.77,2.94-3.67,6.2-8,11.48-11.16,14.22-8.56,19.32-7.1,20-6.93l1.67,1.65s-6.51-2.29-20.69,6.77c-5,3.16-8.2,7.21-11.06,10.77C247.23,301,243.29,305.93,234.77,305.93Z"/><path class="cls-5" d="M232.72,347.89c-3.3-2.71-4.73-6.23-3.53-9.55.58-1.64,2.36-4.37,7.63-4.37h0c10,0,13.93,3.3,17.72,6.48,2.57,2.15,5,4.18,9.33,5a22.68,22.68,0,0,0,12.92-1.22l-2.23,1.52-1.95,1.06a15,15,0,0,1-4,.88,16.06,16.06,0,0,1-5.06-.51c-4.78-.94-7.49-3.21-10.12-5.41-3.55-3-7.23-6.05-16.59-6.07h0c-3.16,0-5.22,1.11-6,3.2-.93,2.61,1.55,7.71,4.25,9.93Z"/><g class="cls-6"><path class="cls-7" d="M225.63,280.9a26.45,26.45,0,0,0-7.49,18.6c.11,3.67,1.24,7.46,3.85,10.05s6.9,3.64,10.1,1.84a12.31,12.31,0,0,0,4.31-4.89c2.17-3.8,3.84-8,6.78-11.2,4.33-4.78,11-7,15.1-12,1.71-2.07,2.94-4.94,1.92-7.42-2-5-12.34-5.76-16.88-5.14C236.9,271.61,230,276.29,225.63,280.9Z"/></g><path class="cls-1" d="M146.66,363.86c-.73,0-1.45,0-2.21-.07l-.68-.05c-.68-.05-1.37-.1-2.05-.18l-.61-.07-.19,0c-.64-.08-1.28-.17-1.91-.27l-.79-.14c-.64-.12-1.27-.24-1.9-.38l-.72-.17c-.66-.15-1.31-.32-1.95-.5l-.63-.18q-1-.3-2.07-.66l-.43-.14c-.7-.25-1.39-.51-2.08-.79l-.13,0-.28-.12-3.15-1.29-.44-.36a50,50,0,0,1-26.88-37.07l-.1-.15-.17-1.83c-.08-.72-.15-1.44-.2-2.17v-.11a7,7,0,0,1,0-.88c0-.94-.08-1.78-.08-2.6a49.85,49.85,0,0,1,19.77-39.95l.38-.28c.79-.6,1.63-1.18,2.63-1.83l.22-.15.14-.08a50,50,0,0,1,27.11-8h.06l.18-.06,3.64.21.07.39,0-.37a50.35,50.35,0,0,1,22.16,7.16h0l.86.56.47.31.8.52,1.34,1,.87.65c.47.35.91.7,1.35,1.05l.68.59.57.48.19.05,2.92,2.89.09.11.43.46.71.78c.42.47.83,1,1.23,1.43l.42.51A51.14,51.14,0,0,1,190,287.3l.25.4c.37.6.71,1.2,1,1.81l.26.48a50.19,50.19,0,0,1,2.73,6.07l.16.42c.12.34.25.68.36,1h0a58.62,58.62,0,0,1,2.61,14.68l0,.27v.27c0,.29,0,.58,0,.87a50.3,50.3,0,0,1-21.56,41.25v0l-2.49,1.7-2.26,1.23a49.56,49.56,0,0,1-20.4,5.92l-.17,0h-.27q-1.2.08-2.43.09l-1.09,0Z"/><path class="cls-2" d="M141.32,358.53c-.72,0-1.44,0-2.2-.08l-.68-.05c-.69,0-1.37-.1-2.05-.17l-.61-.08-.2,0c-.63-.08-1.27-.17-1.9-.27l-.79-.14c-.64-.12-1.27-.24-1.9-.38l-.72-.17c-.67-.16-1.31-.32-2-.5l-.63-.18c-.69-.2-1.38-.43-2.07-.66l-.43-.15c-.7-.24-1.4-.5-2.09-.78l-.12,0-.28-.12-3.15-1.29-.44-.37A50,50,0,0,1,92.23,316l-.1-.15L92,314c-.08-.71-.15-1.43-.2-2.16v-.11a7,7,0,0,1,0-.88c-.06-.95-.08-1.79-.08-2.6a49.85,49.85,0,0,1,19.77-39.95l.37-.28c.8-.6,1.63-1.18,2.64-1.84l.22-.15.14-.08a50.07,50.07,0,0,1,27.11-8h0l.19-.07,3.64.22.07.38,0-.36A50.27,50.27,0,0,1,168,265.36h0c.3.18.58.37.86.56l.48.31.79.52q.69.47,1.35,1l.87.65c.46.35.91.69,1.34,1l.69.59c.19.15.38.32.56.48l.19,0,2.93,2.89.09.11.42.46.71.77c.43.48.84.95,1.24,1.43l.41.51a49.86,49.86,0,0,1,3.74,5.28l.25.4c.36.59.71,1.2,1,1.81l.25.48a48.74,48.74,0,0,1,2.74,6.07l.16.42c.12.33.24.68.36,1h0a58.7,58.7,0,0,1,2.61,14.69v.54q0,.43,0,.87a50.28,50.28,0,0,1-21.57,41.25v0l-2.49,1.69-2.26,1.24a50,50,0,0,1-20.4,5.92l-.18,0H145q-1.2.07-2.43.09l-1.1,0Z"/><circle class="cls-3" cx="141.87" cy="308.28" r="43.85" transform="translate(-184.08 402.73) rotate(-81.45)"/><path class="cls-4" d="M164.68,270.81a43.85,43.85,0,0,1-56.41,65.62,43.85,43.85,0,1,0,56.41-65.62Z"/><path class="cls-5" d="M142.05,352.13c-7-1.83-10.51-5.94-14.66-14.3-3.77-7.6-5.85-17.23-5.85-27.13,0-10.84,1.56-20.65,4.52-28.38,3.64-9.51,9.51-15,17-17.89l2.32.14c-7,2.72-14.21,9.36-17.67,18.38-2.88,7.53-4.4,17.12-4.4,27.75,0,17,6.91,37.43,21.71,41.32Z"/><path class="cls-5" d="M137.16,324.23c-11.65,0-23.37-1.92-31.32-5.26-5.69-2.39-6.35-3.54-7.49-5.3l-.25-2.79c0,2.08,3.58,4.43,8.42,6.47,7.08,3,18.34,5.13,30.56,5.13,17,0,36.44-4.63,48.6-16.55l0,2.07a49.79,49.79,0,0,1-18.57,11.33,84,84,0,0,1-22.5,4.63C142.19,324.14,139.67,324.23,137.16,324.23Z"/><path class="cls-5" d="M124.92,305.93a29.38,29.38,0,0,1-6.2-.73c-4.49-1-7.52-4-8.77-8.72a25.05,25.05,0,0,1,.63-14.16c1.2-3.57,2.8-7.17,5-9.16l2.65-1.84c-2,1.76-4.77,7.14-6,11.47-1.34,4.81-1.57,9.63-.62,13.24,1.09,4.11,3.59,6.62,7.44,7.45a27.21,27.21,0,0,0,5.77.68c7.74,0,11.29-4.42,15.57-9.77,2.95-3.67,6.2-8,11.49-11.16,14.21-8.56,19.32-7.1,20-6.93l1.67,1.65s-6.51-2.29-20.69,6.77c-5,3.16-8.2,7.21-11.06,10.77C137.37,301,133.44,305.93,124.92,305.93Z"/><path class="cls-5" d="M122.87,347.89c-3.31-2.71-4.73-6.23-3.54-9.55.59-1.64,2.36-4.37,7.63-4.37h0c10,0,13.92,3.3,17.72,6.48,2.57,2.15,5,4.18,9.32,5A22.72,22.72,0,0,0,167,344.26l-2.24,1.52-1.95,1.06a14.81,14.81,0,0,1-4,.88,16.14,16.14,0,0,1-5.07-.51c-4.77-.94-7.48-3.21-10.11-5.41-3.56-3-7.24-6.05-16.6-6.07h0c-3.15,0-5.22,1.11-6,3.2-.94,2.61,1.54,7.71,4.24,9.93Z"/><g class="cls-6"><path class="cls-7" d="M115.77,280.9a26.45,26.45,0,0,0-7.49,18.6c.12,3.67,1.24,7.46,3.85,10.05s6.9,3.64,10.1,1.84a12.31,12.31,0,0,0,4.31-4.89c2.17-3.8,3.84-8,6.78-11.2,4.34-4.78,11-7,15.1-12,1.72-2.07,2.94-4.94,1.93-7.42-2-5-12.35-5.76-16.88-5.14C127.05,271.61,120.11,276.29,115.77,280.9Z"/></g></svg>