<svg id="Layer_1" data-name="Layer 1" xmlns="http://www.w3.org/2000/svg" viewBox="0 0 512 512"><defs><style>.cls-1{opacity:0.5;}.cls-2{fill:#fff;}.cls-3,.cls-6{fill:#f9ec31;}.cls-3{stroke:#a59204;}.cls-3,.cls-5{stroke-miterlimit:10;stroke-width:2px;}.cls-4{fill:#eed813;}.cls-5{fill:#e2ac5a;stroke:#7c590d;}</style></defs><path class="cls-1" d="M259.08,387.07a10.78,10.78,0,0,1-7.25-3.12c-2.31-1.75-2.44-4.3-2.71-9.54-.13-2.58-.28-6.15-.44-10.61-.11-3.11-.21-6.2-.29-8.79l-1.66.15-2.91.27c-.28,0-.56.06-.82.09a19,19,0,0,1-2.29.17c-4.51,0-7.81-2.83-8.62-7.4a41.36,41.36,0,0,1-.23-9.87c.08-1.31.16-2.56.17-3.74.05-11,.21-22.1.46-33l.06-2.33c.12-5.31.24-10.63.4-15.94.19-6.64,3.12-17.9,20.64-18.63,1.71-.07,3.29-.11,4.83-.13h1.16a84.73,84.73,0,0,1,12.66.84,14.68,14.68,0,0,1,12.75,14c.25,8.16.43,16.62.57,25.85.15,10.27.13,20.52-.07,30.46,0,1.28,0,2.59.06,4a62.5,62.5,0,0,1-.08,7.34l0,.51c-.55,7.69-6,8.52-8.36,8.52h-.26a23.4,23.4,0,0,1-4.32-.61c-.66-.14-1.28-.27-1.73-.32q-1.2-.13-2.43-.24c0,5.87,0,15,.18,23.43l0,1.87-1,1.59C264.79,386.4,261.06,387.07,259.08,387.07Z"/><path class="cls-2" d="M253.75,381.74a10.74,10.74,0,0,1-7.25-3.13c-2.31-1.74-2.44-4.29-2.71-9.53-.13-2.58-.28-6.15-.44-10.62-.11-3.1-.21-6.2-.3-8.78l-1.65.15-2.91.27c-.28,0-.56.06-.82.09a19.15,19.15,0,0,1-2.29.17,8.43,8.43,0,0,1-8.62-7.4,41.37,41.37,0,0,1-.23-9.87c.08-1.32.16-2.56.17-3.74.05-11,.21-22.1.46-33l.06-2.33c.12-5.32.24-10.63.4-15.94.19-6.65,3.12-17.91,20.64-18.63,1.71-.07,3.29-.11,4.82-.13h1.17a84.73,84.73,0,0,1,12.66.84,14.68,14.68,0,0,1,12.75,14c.25,8.17.43,16.62.57,25.86.15,10.27.12,20.51-.07,30.46,0,1.28,0,2.59,0,4a60.42,60.42,0,0,1-.08,7.34l0,.5c-.55,7.7-6,8.53-8.36,8.53h-.26a24.29,24.29,0,0,1-4.32-.61c-.66-.14-1.29-.27-1.73-.32-.8-.09-1.61-.17-2.44-.24,0,5.87.05,15,.18,23.43l0,1.87-1,1.58C259.46,381.07,255.73,381.74,253.75,381.74Z"/><path class="cls-3" d="M253.15,265.7c-1.56,0-3.1.06-4.63.12-8.22.34-14.25,3.41-14.51,12.42q-.25,9.12-.45,18.24-.37,16.44-.47,32.9c0,4.16-.76,8.33,0,12.47.5,2.8,2.42,2.08,4.88,1.87,3.73-.32,7.45-.76,11.2-.84a128.45,128.45,0,0,1,17,.68c1.78.19,3.77.85,5.5.89,2.13.05,2-1.2,2.14-3.19.31-3.63-.07-7.26,0-10.9q.3-15.12.07-30.24-.19-12.87-.56-25.76a8.4,8.4,0,0,0-7.31-7.89A81.26,81.26,0,0,0,253.15,265.7Z"/><path class="cls-4" d="M253.12,268.33a30.57,30.57,0,0,0-10.18,1.07c-6.06,2-5.28,9.2-5.47,14.31-.16,4.36-.11,8.78-.1,13.15,0,11.75,0,23.49.2,35.23.05,3.66-.27,7.78.53,11.37,4-.2,8.17-.88,12-1a89.71,89.71,0,0,1,12.59.32c2,.23,4.34,1.08,6.36,1.1,2.49,0,1.63-1,1.59-3.13-.05-4.19.47-8.38.46-12.57,0-9.45-.2-18.9-.46-28.35q-.33-11.55-.8-23.11s-.27-6.61-6.16-7.75C260.08,268.27,256.71,268.45,253.12,268.33Z"/><path class="cls-5" d="M249.25,343s.87,30.4,1.34,30.65c0,0,3.4,4.09,6.19-.44,0,0-.43-27.7,0-30.42C256.8,342.79,250.05,342.18,249.25,343Z"/><path class="cls-6" d="M257.59,273.08s4.36-3.71,6.88.63c0,0,1.65,53.67,1.26,65.72,0,0-4.74,4.49-7.82-1Z"/><path class="cls-6" d="M243.37,273.31s4.41-3.66,6.88.71c0,0,1,53.69.46,65.73,0,0-4.78,4.44-7.8-1.07Z"/><path class="cls-2" d="M238.89,277.94s-1-2.44,1.42-6.12c0,0,2.1-2.34,3.41-.64,0,0,.32,1.08-2.05,3.56Z"/><path class="cls-1" d="M181.23,387.07A10.78,10.78,0,0,1,174,384c-2.31-1.75-2.44-4.3-2.7-9.54-.14-2.58-.29-6.15-.45-10.61-.11-3.11-.21-6.2-.29-8.79l-1.66.15-2.91.27c-.28,0-.56.06-.82.09a19,19,0,0,1-2.29.17c-4.51,0-7.81-2.83-8.62-7.4a41.36,41.36,0,0,1-.23-9.87c.09-1.31.16-2.56.17-3.74.06-11,.21-22.1.47-33l0-2.33q.18-8,.4-15.94c.19-6.64,3.12-17.9,20.64-18.63,1.71-.07,3.29-.11,4.83-.13h1.16a84.73,84.73,0,0,1,12.66.84,14.71,14.71,0,0,1,12.76,14c.24,8.16.42,16.62.56,25.85.15,10.27.13,20.52-.07,30.46,0,1.28,0,2.59.06,4a62.5,62.5,0,0,1-.08,7.34l0,.51c-.55,7.69-6,8.52-8.36,8.52H199a23.4,23.4,0,0,1-4.32-.61c-.66-.14-1.28-.27-1.73-.32q-1.2-.13-2.43-.24c0,5.87.05,15,.18,23.43l0,1.87-1,1.59C186.94,386.4,183.21,387.07,181.23,387.07Z"/><path class="cls-2" d="M175.9,381.74a10.74,10.74,0,0,1-7.25-3.13c-2.31-1.74-2.44-4.29-2.71-9.53-.13-2.58-.28-6.15-.44-10.62-.11-3.1-.21-6.2-.3-8.78l-1.65.15-2.91.27c-.28,0-.56.06-.82.09a19.15,19.15,0,0,1-2.29.17,8.43,8.43,0,0,1-8.62-7.4,41.37,41.37,0,0,1-.23-9.87c.08-1.32.16-2.56.17-3.74.05-11,.21-22.1.46-33l.06-2.33c.12-5.32.24-10.63.4-15.94.19-6.65,3.12-17.91,20.64-18.63,1.71-.07,3.29-.11,4.83-.13h1.16a84.73,84.73,0,0,1,12.66.84,14.68,14.68,0,0,1,12.75,14c.25,8.17.43,16.62.57,25.86.15,10.27.13,20.51-.07,30.46,0,1.28,0,2.59.06,4a60.49,60.49,0,0,1-.09,7.34l0,.5c-.55,7.7-6,8.53-8.36,8.53h-.26a24.29,24.29,0,0,1-4.32-.61c-.66-.14-1.28-.27-1.73-.32q-1.2-.14-2.43-.24c0,5.87,0,15,.17,23.43l0,1.87-1,1.58C181.61,381.07,177.88,381.74,175.9,381.74Z"/><path class="cls-3" d="M175.3,265.7c-1.55,0-3.1.06-4.62.12-8.23.34-14.26,3.41-14.51,12.42-.18,6.08-.32,12.16-.46,18.24q-.37,16.44-.46,32.9c0,4.16-.77,8.33,0,12.47.5,2.8,2.42,2.08,4.89,1.87,3.72-.32,7.45-.76,11.19-.84a128.39,128.39,0,0,1,17,.68c1.78.19,3.77.85,5.5.89,2.13.05,2-1.2,2.14-3.19.32-3.63-.07-7.26,0-10.9q.3-15.12.07-30.24-.19-12.87-.56-25.76a8.38,8.38,0,0,0-7.31-7.89A81.26,81.26,0,0,0,175.3,265.7Z"/><path class="cls-4" d="M175.27,268.33a30.57,30.57,0,0,0-10.18,1.07c-6.06,2-5.28,9.2-5.47,14.31-.16,4.36-.11,8.78-.09,13.15,0,11.75,0,23.49.19,35.23.05,3.66-.27,7.78.53,11.37,4-.2,8.17-.88,12-1a89.71,89.71,0,0,1,12.59.32c2,.23,4.34,1.08,6.36,1.1,2.49,0,1.63-1,1.6-3.13-.06-4.19.46-8.38.46-12.57,0-9.45-.21-18.9-.47-28.35q-.33-11.55-.8-23.11s-.27-6.61-6.16-7.75C182.23,268.27,178.87,268.45,175.27,268.33Z"/><path class="cls-5" d="M171.4,343s.87,30.4,1.34,30.65c0,0,3.41,4.09,6.19-.44,0,0-.43-27.7,0-30.42C179,342.79,172.21,342.18,171.4,343Z"/><path class="cls-6" d="M179.74,273.08s4.36-3.71,6.89.63c0,0,1.64,53.67,1.25,65.72,0,0-4.73,4.49-7.82-1Z"/><path class="cls-6" d="M165.52,273.31s4.41-3.66,6.88.71c0,0,1,53.69.46,65.73,0,0-4.78,4.44-7.8-1.07Z"/><path class="cls-2" d="M161,277.94s-1-2.44,1.42-6.12c0,0,2.1-2.34,3.41-.64,0,0,.33,1.08-2.05,3.56Z"/><path class="cls-1" d="M336.93,387.07a10.78,10.78,0,0,1-7.25-3.12c-2.31-1.75-2.44-4.3-2.71-9.54-.13-2.58-.28-6.15-.44-10.61-.11-3.11-.21-6.2-.3-8.79l-1.65.15-2.91.27c-.28,0-.56.06-.82.09a19.15,19.15,0,0,1-2.29.17c-4.51,0-7.81-2.83-8.62-7.4a41.36,41.36,0,0,1-.23-9.87c.08-1.31.16-2.56.17-3.74.05-11,.21-22.1.46-33l.06-2.33c.12-5.31.24-10.63.4-15.94.19-6.64,3.12-17.9,20.64-18.63,1.71-.07,3.29-.11,4.83-.13h1.16a84.73,84.73,0,0,1,12.66.84,14.68,14.68,0,0,1,12.75,14c.25,8.16.43,16.62.57,25.85.15,10.27.13,20.52-.07,30.46,0,1.28,0,2.59.06,4a60.46,60.46,0,0,1-.09,7.34l0,.51c-.55,7.69-6,8.52-8.36,8.52h-.26a23.4,23.4,0,0,1-4.32-.61c-.66-.14-1.28-.27-1.73-.32q-1.2-.13-2.43-.24c0,5.87,0,15,.17,23.43l0,1.87-1,1.59C342.64,386.4,338.91,387.07,336.93,387.07Z"/><path class="cls-2" d="M331.6,381.74a10.74,10.74,0,0,1-7.25-3.13c-2.31-1.74-2.44-4.29-2.71-9.53-.13-2.58-.28-6.15-.44-10.62-.11-3.1-.22-6.2-.3-8.78l-1.65.15-2.91.27c-.28,0-.56.06-.82.09a19.15,19.15,0,0,1-2.29.17,8.43,8.43,0,0,1-8.62-7.4,41.37,41.37,0,0,1-.23-9.87c.08-1.32.16-2.56.16-3.74.06-11,.22-22.1.47-33l.06-2.33c.12-5.32.24-10.63.4-15.94.19-6.65,3.12-17.91,20.64-18.63,1.71-.07,3.28-.11,4.82-.13h1.17a84.73,84.73,0,0,1,12.66.84,14.68,14.68,0,0,1,12.75,14c.25,8.17.43,16.62.57,25.86.15,10.27.12,20.51-.07,30.46,0,1.28,0,2.59.05,4a60.42,60.42,0,0,1-.08,7.34l0,.5c-.55,7.7-6,8.53-8.35,8.53h-.26a24.29,24.29,0,0,1-4.32-.61c-.66-.14-1.29-.27-1.73-.32-.8-.09-1.61-.17-2.44-.24,0,5.87.05,15,.18,23.43l0,1.87-1,1.58C337.31,381.07,333.57,381.74,331.6,381.74Z"/><path class="cls-3" d="M331,265.7c-1.56,0-3.1.06-4.63.12-8.22.34-14.25,3.41-14.51,12.42-.18,6.08-.31,12.16-.45,18.24q-.39,16.44-.47,32.9c0,4.16-.76,8.33,0,12.47.5,2.8,2.42,2.08,4.88,1.87,3.73-.32,7.45-.76,11.2-.84a128.45,128.45,0,0,1,17,.68c1.78.19,3.77.85,5.5.89,2.13.05,2-1.2,2.14-3.19.31-3.63-.07-7.26,0-10.9q.3-15.12.07-30.24-.19-12.87-.56-25.76a8.4,8.4,0,0,0-7.31-7.89A81.26,81.26,0,0,0,331,265.7Z"/><path class="cls-4" d="M331,268.33a30.54,30.54,0,0,0-10.17,1.07c-6.06,2-5.28,9.2-5.47,14.31-.17,4.36-.11,8.78-.1,13.15,0,11.75,0,23.49.2,35.23.05,3.66-.27,7.78.53,11.37,4-.2,8.17-.88,12-1a89.71,89.71,0,0,1,12.59.32c2,.23,4.34,1.08,6.36,1.1,2.48,0,1.62-1,1.59-3.13-.06-4.19.47-8.38.46-12.57,0-9.45-.2-18.9-.46-28.35q-.33-11.55-.8-23.11s-.28-6.61-6.16-7.75C337.93,268.27,334.56,268.45,331,268.33Z"/><path class="cls-5" d="M327.1,343s.87,30.4,1.34,30.65c0,0,3.4,4.09,6.19-.44,0,0-.44-27.7,0-30.42C334.65,342.79,327.9,342.18,327.1,343Z"/><path class="cls-6" d="M335.44,273.08s4.36-3.71,6.88.63c0,0,1.65,53.67,1.25,65.72,0,0-4.73,4.49-7.81-1Z"/><path class="cls-6" d="M321.22,273.31s4.41-3.66,6.88.71c0,0,1,53.69.46,65.73,0,0-4.79,4.44-7.8-1.07Z"/><path class="cls-2" d="M316.74,277.94s-1-2.44,1.42-6.12c0,0,2.1-2.34,3.41-.64,0,0,.32,1.08-2.06,3.56Z"/><path class="cls-1" d="M259.08,252.7a10.78,10.78,0,0,1-7.25-3.12c-2.31-1.75-2.44-4.3-2.71-9.53-.13-2.59-.28-6.16-.44-10.62-.11-3.11-.21-6.2-.29-8.79l-1.66.15-2.91.27-.82.09a19,19,0,0,1-2.29.17c-4.51,0-7.81-2.83-8.62-7.4a41.36,41.36,0,0,1-.23-9.87c.08-1.31.16-2.56.17-3.74.05-11,.21-22.1.46-33l.06-2.34c.12-5.31.24-10.63.4-15.94.19-6.64,3.12-17.9,20.64-18.63,1.71-.07,3.29-.11,4.83-.13h1.16a84.73,84.73,0,0,1,12.66.84,14.68,14.68,0,0,1,12.75,14c.25,8.16.43,16.62.57,25.85.15,10.27.13,20.52-.07,30.46,0,1.28,0,2.6.06,4a62.5,62.5,0,0,1-.08,7.34l0,.51c-.55,7.69-6,8.52-8.36,8.52h-.26a23.4,23.4,0,0,1-4.32-.61c-.66-.14-1.28-.27-1.73-.32q-1.2-.13-2.43-.24c0,5.87,0,15,.18,23.43l0,1.87-1,1.59C264.79,252,261.06,252.7,259.08,252.7Z"/><path class="cls-2" d="M253.75,247.37a10.74,10.74,0,0,1-7.25-3.13c-2.31-1.74-2.44-4.29-2.71-9.53-.13-2.58-.28-6.15-.44-10.62-.11-3.1-.21-6.19-.3-8.78l-1.65.15c-1,.09-1.94.19-2.91.27-.28,0-.56.06-.82.09a19.15,19.15,0,0,1-2.29.17,8.43,8.43,0,0,1-8.62-7.4,41.37,41.37,0,0,1-.23-9.87c.08-1.32.16-2.56.17-3.74.05-11,.21-22.1.46-33l.06-2.33c.12-5.32.24-10.63.4-15.94.19-6.65,3.12-17.91,20.64-18.63,1.71-.07,3.29-.11,4.82-.13h1.17a84.73,84.73,0,0,1,12.66.84,14.68,14.68,0,0,1,12.75,14c.25,8.17.43,16.62.57,25.86.15,10.27.12,20.51-.07,30.46,0,1.28,0,2.59,0,4a60.42,60.42,0,0,1-.08,7.34l0,.5c-.55,7.7-6,8.53-8.36,8.53h-.26a23.4,23.4,0,0,1-4.32-.61c-.66-.14-1.29-.27-1.73-.32-.8-.09-1.61-.17-2.44-.24,0,5.87.05,15,.18,23.43l0,1.87-1,1.58C259.46,246.7,255.73,247.37,253.75,247.37Z"/><path class="cls-3" d="M253.15,131.33c-1.56,0-3.1.06-4.63.12-8.22.34-14.25,3.41-14.51,12.42q-.25,9.12-.45,18.24-.37,16.45-.47,32.9c0,4.16-.76,8.33,0,12.47.5,2.8,2.42,2.08,4.88,1.87,3.73-.32,7.45-.76,11.2-.84a128.45,128.45,0,0,1,17,.68c1.78.19,3.77.85,5.5.89,2.13,0,2-1.2,2.14-3.19.31-3.63-.07-7.26,0-10.9q.3-15.12.07-30.24-.19-12.87-.56-25.76A8.4,8.4,0,0,0,266,132.1,81.26,81.26,0,0,0,253.15,131.33Z"/><path class="cls-4" d="M253.12,134A30.57,30.57,0,0,0,242.94,135c-6.06,2-5.28,9.2-5.47,14.31-.16,4.36-.11,8.78-.1,13.15,0,11.75,0,23.49.2,35.23.05,3.66-.27,7.78.53,11.37,4-.2,8.17-.87,12-1a89.71,89.71,0,0,1,12.59.32c2,.23,4.34,1.08,6.36,1.1,2.49,0,1.63-1,1.59-3.13-.05-4.19.47-8.38.46-12.57,0-9.45-.2-18.9-.46-28.35q-.33-11.55-.8-23.1s-.27-6.62-6.16-7.76C260.08,133.9,256.71,134.08,253.12,134Z"/><path class="cls-5" d="M249.25,208.63s.87,30.4,1.34,30.65c0,0,3.4,4.09,6.19-.44,0,0-.43-27.7,0-30.42C256.8,208.42,250.05,207.81,249.25,208.63Z"/><path class="cls-6" d="M257.59,138.71s4.36-3.71,6.88.63c0,0,1.65,53.67,1.26,65.72,0,0-4.74,4.49-7.82-1Z"/><path class="cls-6" d="M243.37,138.94s4.41-3.66,6.88.71c0,0,1,53.69.46,65.74,0,0-4.78,4.43-7.8-1.08Z"/><path class="cls-2" d="M238.89,143.57s-1-2.44,1.42-6.12c0,0,2.1-2.34,3.41-.64,0,0,.32,1.08-2.05,3.57Z"/><path class="cls-1" d="M181.23,252.7a10.78,10.78,0,0,1-7.25-3.12c-2.31-1.75-2.44-4.3-2.7-9.53-.14-2.59-.29-6.16-.45-10.62-.11-3.11-.21-6.2-.29-8.79l-1.66.15-2.91.27-.82.09a19,19,0,0,1-2.29.17c-4.51,0-7.81-2.83-8.62-7.4a41.36,41.36,0,0,1-.23-9.87c.09-1.31.16-2.56.17-3.74.06-11,.21-22.1.47-33l0-2.34q.18-8,.4-15.94c.19-6.64,3.12-17.9,20.64-18.63,1.71-.07,3.29-.11,4.83-.13h1.16a84.73,84.73,0,0,1,12.66.84,14.71,14.71,0,0,1,12.76,14c.24,8.16.42,16.62.56,25.85.15,10.27.13,20.52-.07,30.46,0,1.28,0,2.6.06,4a62.5,62.5,0,0,1-.08,7.34l0,.51c-.55,7.69-6,8.52-8.36,8.52H199a23.4,23.4,0,0,1-4.32-.61c-.66-.14-1.28-.27-1.73-.32q-1.2-.13-2.43-.24c0,5.87.05,15,.18,23.43l0,1.87-1,1.59C186.94,252,183.21,252.7,181.23,252.7Z"/><path class="cls-2" d="M175.9,247.37a10.74,10.74,0,0,1-7.25-3.13c-2.31-1.74-2.44-4.29-2.71-9.53-.13-2.58-.28-6.15-.44-10.62-.11-3.1-.21-6.19-.3-8.78l-1.65.15c-1,.09-1.94.19-2.91.27-.28,0-.56.06-.82.09a19.15,19.15,0,0,1-2.29.17,8.43,8.43,0,0,1-8.62-7.4,41.37,41.37,0,0,1-.23-9.87c.08-1.32.16-2.56.17-3.74.05-11,.21-22.1.46-33l.06-2.33c.12-5.32.24-10.63.4-15.94.19-6.65,3.12-17.91,20.64-18.63,1.71-.07,3.29-.11,4.83-.13h1.16a84.73,84.73,0,0,1,12.66.84,14.68,14.68,0,0,1,12.75,14c.25,8.17.43,16.62.57,25.86.15,10.27.13,20.51-.07,30.46,0,1.28,0,2.59.06,4a60.49,60.49,0,0,1-.09,7.34l0,.5c-.55,7.7-6,8.53-8.36,8.53h-.26a23.4,23.4,0,0,1-4.32-.61c-.66-.14-1.28-.27-1.73-.32q-1.2-.13-2.43-.24c0,5.87,0,15,.17,23.43l0,1.87-1,1.58C181.61,246.7,177.88,247.37,175.9,247.37Z"/><path class="cls-3" d="M175.3,131.33c-1.55,0-3.1.06-4.62.12-8.23.34-14.26,3.41-14.51,12.42-.18,6.08-.32,12.16-.46,18.24q-.37,16.45-.46,32.9c0,4.16-.77,8.33,0,12.47.5,2.8,2.42,2.08,4.89,1.87,3.72-.32,7.45-.76,11.19-.84a128.39,128.39,0,0,1,17,.68c1.78.19,3.77.85,5.5.89,2.13,0,2-1.2,2.14-3.19.32-3.63-.07-7.26,0-10.9q.3-15.12.07-30.24-.19-12.87-.56-25.76a8.38,8.38,0,0,0-7.31-7.89A81.26,81.26,0,0,0,175.3,131.33Z"/><path class="cls-4" d="M175.27,134A30.57,30.57,0,0,0,165.09,135c-6.06,2-5.28,9.2-5.47,14.31-.16,4.36-.11,8.78-.09,13.15,0,11.75,0,23.49.19,35.23.05,3.66-.27,7.78.53,11.37,4-.2,8.17-.87,12-1a89.71,89.71,0,0,1,12.59.32c2,.23,4.34,1.08,6.36,1.1,2.49,0,1.63-1,1.6-3.13-.06-4.19.46-8.38.46-12.57,0-9.45-.21-18.9-.47-28.35q-.33-11.55-.8-23.1s-.27-6.62-6.16-7.76C182.23,133.9,178.87,134.08,175.27,134Z"/><path class="cls-5" d="M171.4,208.63s.87,30.4,1.34,30.65c0,0,3.41,4.09,6.19-.44,0,0-.43-27.7,0-30.42C179,208.42,172.21,207.81,171.4,208.63Z"/><path class="cls-6" d="M179.74,138.71s4.36-3.71,6.89.63c0,0,1.64,53.67,1.25,65.72,0,0-4.73,4.49-7.82-1Z"/><path class="cls-6" d="M165.52,138.94s4.41-3.66,6.88.71c0,0,1,53.69.46,65.74,0,0-4.78,4.43-7.8-1.08Z"/><path class="cls-2" d="M161,143.57s-1-2.44,1.42-6.12c0,0,2.1-2.34,3.41-.64,0,0,.33,1.08-2.05,3.57Z"/><path class="cls-1" d="M336.93,252.7a10.78,10.78,0,0,1-7.25-3.12c-2.31-1.75-2.44-4.3-2.71-9.53-.13-2.59-.28-6.16-.44-10.62-.11-3.11-.21-6.2-.3-8.79l-1.65.15-2.91.27-.82.09a19.15,19.15,0,0,1-2.29.17c-4.51,0-7.81-2.83-8.62-7.4a41.36,41.36,0,0,1-.23-9.87c.08-1.31.16-2.56.17-3.74.05-11,.21-22.1.46-33l.06-2.34c.12-5.31.24-10.63.4-15.94.19-6.64,3.12-17.9,20.64-18.63,1.71-.07,3.29-.11,4.83-.13h1.16a84.73,84.73,0,0,1,12.66.84,14.68,14.68,0,0,1,12.75,14c.25,8.16.43,16.62.57,25.85.15,10.27.13,20.52-.07,30.46,0,1.28,0,2.6.06,4a60.46,60.46,0,0,1-.09,7.34l0,.51c-.55,7.69-6,8.52-8.36,8.52h-.26a23.4,23.4,0,0,1-4.32-.61c-.66-.14-1.28-.27-1.73-.32q-1.2-.13-2.43-.24c0,5.87,0,15,.17,23.43l0,1.87-1,1.59C342.64,252,338.91,252.7,336.93,252.7Z"/><path class="cls-2" d="M331.6,247.37a10.74,10.74,0,0,1-7.25-3.13c-2.31-1.74-2.44-4.29-2.71-9.53-.13-2.58-.28-6.15-.44-10.62-.11-3.1-.22-6.19-.3-8.78l-1.65.15c-1,.09-1.94.19-2.91.27-.28,0-.56.06-.82.09a19.15,19.15,0,0,1-2.29.17,8.43,8.43,0,0,1-8.62-7.4,41.37,41.37,0,0,1-.23-9.87c.08-1.32.16-2.56.16-3.74.06-11,.22-22.1.47-33l.06-2.33c.12-5.32.24-10.63.4-15.94.19-6.65,3.12-17.91,20.64-18.63,1.71-.07,3.28-.11,4.82-.13h1.17a84.73,84.73,0,0,1,12.66.84,14.68,14.68,0,0,1,12.75,14c.25,8.17.43,16.62.57,25.86.15,10.27.12,20.51-.07,30.46,0,1.28,0,2.59.05,4a60.42,60.42,0,0,1-.08,7.34l0,.5c-.55,7.7-6,8.53-8.35,8.53h-.26a23.4,23.4,0,0,1-4.32-.61c-.66-.14-1.29-.27-1.73-.32-.8-.09-1.61-.17-2.44-.24,0,5.87.05,15,.18,23.43l0,1.87-1,1.58C337.31,246.7,333.57,247.37,331.6,247.37Z"/><path class="cls-3" d="M331,131.33c-1.56,0-3.1.06-4.63.12-8.22.34-14.25,3.41-14.51,12.42-.18,6.08-.31,12.16-.45,18.24q-.39,16.45-.47,32.9c0,4.16-.76,8.33,0,12.47.5,2.8,2.42,2.08,4.88,1.87,3.73-.32,7.45-.76,11.2-.84a128.45,128.45,0,0,1,17,.68c1.78.19,3.77.85,5.5.89,2.13,0,2-1.2,2.14-3.19.31-3.63-.07-7.26,0-10.9q.3-15.12.07-30.24-.19-12.87-.56-25.76a8.4,8.4,0,0,0-7.31-7.89A81.26,81.26,0,0,0,331,131.33Z"/><path class="cls-4" d="M331,134A30.54,30.54,0,0,0,320.79,135c-6.06,2-5.28,9.2-5.47,14.31-.17,4.36-.11,8.78-.1,13.15,0,11.75,0,23.49.2,35.23.05,3.66-.27,7.78.53,11.37,4-.2,8.17-.87,12-1a89.71,89.71,0,0,1,12.59.32c2,.23,4.34,1.08,6.36,1.1,2.48,0,1.62-1,1.59-3.13-.06-4.19.47-8.38.46-12.57,0-9.45-.2-18.9-.46-28.35q-.33-11.55-.8-23.1s-.28-6.62-6.16-7.76C337.93,133.9,334.56,134.08,331,134Z"/><path class="cls-5" d="M327.1,208.63s.87,30.4,1.34,30.65c0,0,3.4,4.09,6.19-.44,0,0-.44-27.7,0-30.42C334.65,208.42,327.9,207.81,327.1,208.63Z"/><path class="cls-6" d="M335.44,138.71s4.36-3.71,6.88.63c0,0,1.65,53.67,1.25,65.72,0,0-4.73,4.49-7.81-1Z"/><path class="cls-6" d="M321.22,138.94s4.41-3.66,6.88.71c0,0,1,53.69.46,65.74,0,0-4.79,4.43-7.8-1.08Z"/><path class="cls-2" d="M316.74,143.57s-1-2.44,1.42-6.12c0,0,2.1-2.34,3.41-.64,0,0,.32,1.08-2.06,3.57Z"/></svg>