<svg id="Layer_1" data-name="Layer 1" xmlns="http://www.w3.org/2000/svg" viewBox="0 0 512 512"><defs><style>.cls-1{opacity:0.5;}.cls-2{fill:#fff;}.cls-3{fill:#8ec646;}.cls-4{fill:#84c449;}.cls-5{fill:#7cc14c;}.cls-6{fill:#34b353;}.cls-7{fill:#3db555;}.cls-8{fill:#73bf4e;}.cls-9{fill:#a66e43;}.cls-10{fill:#43b758;}.cls-11{fill:#6cbe50;}.cls-12{fill:#94c845;}.cls-13{fill:#a35831;}.cls-14{fill:#a77246;}.cls-15{fill:#5cba55;}.cls-16{fill:#a45e35;}.cls-17{fill:#65bc53;}.cls-18{fill:#6ebe51;}.cls-19{fill:#a56a3e;}.cls-20{fill:#a5653a;}.cls-21{fill:#7dc14d;}.cls-22{fill:#88c44c;}.cls-23{fill:#a8794d;}.cls-24{fill:#58ba58;}.cls-25{fill:#ab6544;}.cls-26{fill:#4eb75b;}.cls-27{fill:#86c34a;}.cls-28{fill:#ea2237;}.cls-29{fill:#e82c39;}.cls-30{fill:#e92938;}.cls-31{fill:#e72c39;}.cls-32{fill:#e72d3a;}.cls-33{fill:#78c04f;}.cls-34{fill:#e4323d;}.cls-35{fill:#ea2437;}.cls-36{fill:#8ab75f;}.cls-37{fill:#2da055;}.cls-38{fill:#42b657;}.cls-39{fill:#3ba258;}.cls-40{fill:#35a356;}.cls-41{fill:#37a158;}.cls-42{fill:#64ad51;}.cls-43{fill:#62bb55;}.cls-44{fill:#cd4f43;}.cls-45{fill:#e0393d;}.cls-46{fill:#5fbb54;}.cls-47{fill:#4ea555;}.cls-48{fill:#3fa558;}.cls-49{fill:#64bc53;}.cls-50{fill:#e82d3a;}.cls-51{fill:#55b956;}.cls-52{fill:#e62d3a;}</style></defs><path class="cls-1" d="M85.71,251.49a78.21,78.21,0,0,1-10.36-.77l-4.75-.62-.73-4.74a13.11,13.11,0,0,1,1.8-8.74l1.73-5.79.84-5.22,0-1.13c.17-5.12.33-10-.91-14.38a19.7,19.7,0,0,1-1.86-3.86c-2.88-.24-5.76-.48-8.64-.75-7.7-.71-10.9-4.68-12.11-7s-2.69-7.13,1-13.81A33.57,33.57,0,0,1,58,176.37,13.31,13.31,0,0,1,55.1,170c-2.08-5.16-.22-9.75.93-12.58.2-.47.39-.95.57-1.43L58,152.34l1.36-2.2a10.88,10.88,0,0,1,2.76-4.4,11,11,0,0,1,4-3.92l.83-.66a14,14,0,0,1,6.78-4.1,10.56,10.56,0,0,1,5.42-1.42,19.31,19.31,0,0,1,5.63-.85,20.25,20.25,0,0,1,6.18,1c6,.82,11.93,2.78,19.09,6.3,11.41,3.9,20,9.63,26.22,17.54,2.23,2.81,4.35,5.89,3.79,9.86a10.42,10.42,0,0,1-3.51,6.16c.41.88.89,1.78,1.4,2.74,2.48,4.71,5.87,11.14,2.8,19.14a10.78,10.78,0,0,1-7.81,7.59,20.4,20.4,0,0,1-10.51,2.45l-1.69,0a20.16,20.16,0,0,1-10.45,9.87L104.43,220l-.57,1.43.08,2.91c2,4,.53,7.93-.29,9.93-.19.85-.34,1.77-.51,2.73-.57,3.29-1.22,7-3.47,10.66l-1.43,2.31-2.66.57A45.74,45.74,0,0,1,85.71,251.49Z"/><path class="cls-2" d="M80.38,246.17A78.37,78.37,0,0,1,70,245.39l-4.76-.62L64.54,240a13.12,13.12,0,0,1,1.8-8.74l1.73-5.79.84-5.21,0-1.14c.17-5.12.33-10-.91-14.38a19.27,19.27,0,0,1-1.85-3.85q-4.34-.36-8.64-.75c-7.71-.71-10.9-4.68-12.12-7s-2.69-7.13,1-13.81A33.94,33.94,0,0,1,52.7,171a13.15,13.15,0,0,1-2.92-6.4c-2.09-5.16-.22-9.75.93-12.58.19-.47.39-.95.56-1.42L52.62,147,54,144.81a11,11,0,0,1,2.76-4.39,11,11,0,0,1,4-3.92l.83-.67a14,14,0,0,1,6.78-4.09,10.49,10.49,0,0,1,5.42-1.43,19.31,19.31,0,0,1,5.63-.85,20.51,20.51,0,0,1,6.18,1c6,.82,11.93,2.78,19.1,6.3,11.4,3.9,20,9.64,26.22,17.54,2.22,2.81,4.34,5.89,3.78,9.86a10.33,10.33,0,0,1-3.5,6.16c.41.88.88,1.79,1.39,2.75,2.48,4.7,5.87,11.13,2.8,19.13-1.33,4.05-4.11,6.74-7.81,7.6A20.38,20.38,0,0,1,117,202.23q-.84,0-1.68,0a20.15,20.15,0,0,1-10.46,9.87l-5.78,2.55-.58,1.44.08,2.9c2,4,.53,7.94-.28,9.93-.19.86-.35,1.77-.52,2.73-.57,3.29-1.22,7-3.47,10.66l-1.43,2.31-2.66.58A46.31,46.31,0,0,1,80.38,246.17Z"/><path class="cls-3" d="M124.22,167.65c-2.1,2.23.33,3.59,1.07,5.2,2.52,5.47,6.69,10.53,4,17.2-1.71-2.1-2.43-4.88-4.56-6.7-3.6-5-3.94,1.21-5.93,1.72-1.42-.43-1.57-1.63-1.74-2.82,0-1-.11-2.13.54-2.79,4-4.05.77-5.67-2.38-7.35a9,9,0,0,0-3.26-6.38c-4.74-4.06-8.11-9.8-14.58-11.73-.42-.13-.51-.8-.39-1.32.68-1.19,3.14-.76,2.79-2.69-.22-1.21-1.82-1-2.81-1.35a59.59,59.59,0,0,1-12.88-11.93c6.43.79,12.34,3.11,18.08,6,6.81,6.55,13.4,13.31,20,20C123.5,164,125.67,165.17,124.22,167.65Z"/><path class="cls-4" d="M97.27,152.55c8.11,2.52,12.19,9.92,18.21,15,2,1.72,1.29,2.95-.27,4.29.16,2.18-1.7,2.05-3,2.61-3.15.09-4.24-2.82-6.29-4.33-.55-2.13-1-4.34-3.87-4.49-6.12-5.5-11.7-11.56-17.56-17.33-2.11-4.76-7.19-7.09-9.57-11.63a13.21,13.21,0,0,1,9.17.06c5.47,2.47,8.35,8,13.25,11.15C97.76,149.43,98.21,151,97.27,152.55Z"/><path class="cls-5" d="M85.14,147.76a182.88,182.88,0,0,1,17.14,17.07c.42,2.3,1.93,3.75,3.8,4.93,3.12-.27,3.38,3.77,6.13,4.05,3.63,1.45,4.05,5.28,5.94,8,.1,1.1-.13,2.33,1.16,3,1.07-.82,1.85-.26,2.58.53,1.07,2.8,4.86,4.52,3.33,8.36-3,2.19-6.52,2.23-10,2.11a1,1,0,0,1,0-1.19c2.92-1.45,1.21-2.54-.29-3.65-.07-3.18-2.43-3.54-4.79-3.9a27.56,27.56,0,0,0-8.75-14.13c-6.21-5.56-12-11.61-17.72-17.66a11.55,11.55,0,0,1-2.91-4.63,3.73,3.73,0,0,1,1.53-3.32A2.72,2.72,0,0,1,85.14,147.76Z"/><path class="cls-6" d="M71,194.91c-4.3-.37-8.61-.71-12.91-1.11-7.16-.66-9.56-5.08-6.09-11.33a23.6,23.6,0,0,1,7.64-8.81c2.74-.86,4,.39,4.19,3,0,1.17-1,2-1.13,3.16.64,1.76,2.31,1.57,3.69,1.93,3.88.9,5.61,4.1,7.57,7.06a5.77,5.77,0,0,1,.74,1.21,4.56,4.56,0,0,1,0,3.48,3.27,3.27,0,0,1-3,1.44Z"/><path class="cls-7" d="M74.12,193.85V190c.4-1,1.62-1.06,2.3-2.08-1.64-.15-2.31,1-3.15,1.87-2.12-2.65-3.24-6.33-7.24-7-.31-1,.22-2.2-.63-3.1-.71-.7-1.79-1-2.31-1.89.2-2.47-.86-3.89-3.4-4.1,1.8-1.53,2.71-2.87.1-4.72-2-1.39-3.64-3.31-3.76-6-.74-3,.94-2.85,2.43-1.55,3.68,3.2,7.64,6.19,10,10.65-.83,3.15,2.2.68,2.74,1.84a11,11,0,0,1,1.24.36c1.4.6,3,.44,4.4,1a3.62,3.62,0,0,1,1.1.85,9.64,9.64,0,0,1,.83,1.18c2.67,3.95,5.55,7.77,8.07,11.82,3.34,5.36,2.55,6.86-3.71,7.06-.82,0-1.65,0-2.47,0a20.06,20.06,0,0,1-2.19-.1,8.51,8.51,0,0,1-2.12-.44A4,4,0,0,1,74.12,193.85Z"/><path class="cls-8" d="M80.89,150.62c8.06,8.27,16.09,16.55,24.48,24.5,2.82,2.68,6.69,6.69,5,12.06a1.37,1.37,0,0,1-.38,1.89c-5.21-2.68-6.62-8.1-9.18-12.67-.53-.31,1.23-.92,0-.89a6.72,6.72,0,0,1-2.89-.22c-11.11-9.82-21.05-20.81-31.06-31.72-.77-.83-1.6-1.78-.89-3.1a7.71,7.71,0,0,1,5.12-2.77,33.74,33.74,0,0,1,6.51,8.55C77.55,148.56,79.62,149.29,80.89,150.62Z"/><path class="cls-9" d="M110.45,197a13.34,13.34,0,0,1-8.14,9.27l-8.17,3.6C89.44,211,85,213,80.36,214.35c-1.48.45-3,1.62-4.58.36-.31-7.08-.32-7.14,6.36-9.65,6.16-2.32,12.58-4,18.48-7a31.61,31.61,0,0,1,3.74-1.37C106.4,196.53,108.5,195,110.45,197Z"/><path class="cls-10" d="M68.1,172.81q-5-5.22-10-10.44c-1-1.07-1.91-1.51-2.12.56-1.92-3.66.06-6.84,1.26-10.11,2.78-.25,3.76,2.1,5.28,3.67a8.6,8.6,0,0,1,.6,1.17c.71,2.08,2.33,2.87,4.36,3.09,2.65.54,4.15,2.51,5.68,4.49a24.75,24.75,0,0,0,6.73,6.49c1.27.77,2.93,1,3.67,2.51a2,2,0,0,1-.81,2.16,4.92,4.92,0,0,1-5.67-.58h0c-1.5-1.23-3.52.17-5-1h0C71,173.81,68.76,174.83,68.1,172.81Z"/><path class="cls-11" d="M66,140.47c8.24,9.94,17.31,19.09,26.48,28.16,2,2,3.81,4.11,5.72,6.17a2.46,2.46,0,0,1-.62,1.22l-.58.39a5.36,5.36,0,0,1-1.36.36,5.17,5.17,0,0,1-2.76-.51c-10.43-8.87-18.6-19.95-28.59-29.25-1.85-1.73-1.59-3.47,0-5.19Z"/><path class="cls-12" d="M124.22,167.65c-.25-2.62-2.58-3.69-4-5.39-5.8-6.71-13.5-11.67-18-19.59,9.26,3.11,17.52,7.8,23.66,15.58C129.56,163,129.24,164.05,124.22,167.65Z"/><path class="cls-13" d="M70.86,239.06a7.1,7.1,0,0,1,1.37-5.14c3.43-3.44,15.69-7.72,20-7-1,4-1,8.31-3.32,12A74.07,74.07,0,0,1,70.86,239.06Z"/><path class="cls-14" d="M101.18,199.13c-6.28,3.69-13.35,5.38-20.16,7.64-4.49,1.5-5.54,4-4.73,8.11,1.25,1.38,1.1,3,.74,4.63-.32.79-.75,1.44-1.74,1.39.19-6.36.6-12.74-1.42-18.93.72-1.95,2.57-2.23,4.18-2.85,1.88-.44,3.72-1.14,5.7-.88,4.2,3.41,5-1.05,6.84-3a3.26,3.26,0,0,1,2.85.29C95.12,198.69,99.32,196.4,101.18,199.13Z"/><path class="cls-15" d="M62.16,157.92,62,156.79c-.33-.75.13-1.2.62-1.63,1.48-1.43-.06-2.26-.68-3.22-.93-1.42-2.74-2.43-2.05-4.57a4.92,4.92,0,0,1,2-3c5.71,6.58,11.35,13.22,17.41,19.49,1.4,1.45,2.69,3,1.85,5.24a8.38,8.38,0,0,1-2,3.72A27.25,27.25,0,0,1,72,165.53c-1.22-1.75-2.46-3.55-4.9-3.76C67.73,157.56,64.12,158.78,62.16,157.92Z"/><path class="cls-16" d="M92.22,226.94l-20,7c.69-2.33,1.39-4.66,2.08-7,5.49-3.51,11.18-6.41,18-6.06C94,222.91,93.05,224.92,92.22,226.94Z"/><path class="cls-17" d="M80.15,168.87c1.18-2-.46-2.94-1.55-4.11-4.36-4.68-8.78-9.32-13-14.1-1.61-1.81-3.24-3.73-3.63-6.3a4.52,4.52,0,0,1,2.37-2.54c-.74,2.12-.17,3.57,1.5,5.27,9.24,9.46,18.26,19.12,27.36,28.71a2,2,0,0,1-1.94.52c-2.75-1.31-4.21-4.16-6.81-5.64C83.06,169.91,81.3,170.1,80.15,168.87Z"/><path class="cls-18" d="M101.18,175.83c3.35,4.09,5,9.38,9,13,1.87.36,3.11,1.71,4.5,2.82.61,1,1.27,2,.57,3.19,0,.31,0,.63,0,.94l-3.9.31a3.36,3.36,0,0,1-2.08.07c-2.57-1.43-3.48-4.2-5.09-6.39-1.37-1.86-2.65-3.71-5.23-3.9-.9-.28-1.75-.62-2-1.69.24-1.2,1.84-1.34,2-2.62-.78-1.25-2.6.32-3.29-1.18-.76-2,.2-3.32,1.53-4.58h0A3.92,3.92,0,0,1,101.18,175.83Z"/><path class="cls-19" d="M76.16,219.92c0-1.68.08-3.36.13-5,4.93-2.74,10.49-3.77,15.69-5.78a1.79,1.79,0,0,1,2.16.72l-2,5.09C87.61,219.19,82.5,221.54,76.16,219.92Z"/><path class="cls-20" d="M76.16,219.92c5.7-.42,10.82-2.71,15.94-5,.06,2,.12,4,.17,6l-18,6.06,1-6Z"/><path class="cls-21" d="M77.1,146.61c-2.09-2.91-5.23-5.12-6-8.91,1.05-1.23,2.51-.9,3.85-1,4,3.13,8.33,6,10.19,11.11H82.33C80.65,147.11,78.61,148.06,77.1,146.61Z"/><path class="cls-22" d="M125.22,193.69c0-3.33-3.72-4.74-4-7.91a5.21,5.21,0,0,1,4.09-2.94c2.74,1.62,4.36,3.87,4,7.21C128.69,192.1,127.54,193.55,125.22,193.69Z"/><path class="cls-23" d="M78.28,200,73.87,202c-1.58-2.1-2.11-4.62-2.83-7.06l.25-.42a15.82,15.82,0,0,1,3.44-.06c1.63,1,1.85,3,3,4.39A3.57,3.57,0,0,1,78.28,200Z"/><path class="cls-24" d="M59.91,147.37c1.65,2.2,3.41,4.33,4.9,6.63,1.75,2.69-.94,1.37-1.73,1.77-2.6-1.16-4.46-2.9-4.69-5.93Z"/><path class="cls-25" d="M70.86,239.06l18-.14C82.9,240.22,76.88,239.85,70.86,239.06Z"/><path class="cls-26" d="M58.39,149.84l4.69,5.93-1.06,1-4.74-4Z"/><path class="cls-14" d="M109.18,195.84l2.11.27-.84.84-6.31.9c-.44-1.12.19-1.82,1-2.46a4.52,4.52,0,0,1,1.38-.43A4.22,4.22,0,0,1,109.18,195.84Z"/><path class="cls-27" d="M118.15,181.83c-3.26-1.72-3.69-5.54-5.94-8l3-2c2.18-.32,3.64.53,5,2.33s2.62,3.17-.39,4.39C118.32,179.16,118.19,180.47,118.15,181.83Z"/><path class="cls-28" d="M125.33,182.84a6.31,6.31,0,0,1-4.09,2.94l-1.93-1c-1-2.76.34-4.44,2.8-5.12S125,181.05,125.33,182.84Z"/><path class="cls-29" d="M97.27,152.55c-.69-1.58-1.41-3.16.1-4.69,2.11,0,4.86-.57,4.54,2.76C101.64,153.41,99.31,153.05,97.27,152.55Z"/><path class="cls-30" d="M106.08,169.76c-4.24.66-5.36-1.1-3.8-4.93C106,164.58,108.16,165.54,106.08,169.76Z"/><path class="cls-31" d="M114.1,191.65c-2,0-2.89-1.5-4-2.8.09-.56.17-1.11.25-1.67,1.53-.24,2.74-2.31,4.38-1.23,1.9,1.25.35,3.23.48,4.88A1,1,0,0,1,114.1,191.65Z"/><path class="cls-32" d="M77.1,146.61c1.71.53,4.32-3,5.23,1.15a3.77,3.77,0,0,1-1.44,2.86C78.55,150.29,75.74,150.42,77.1,146.61Z"/><path class="cls-33" d="M114.1,191.65l1.15-.82c1.68,0,3.68.08,3.7,2.24,0,2.65-2.34,1.46-3.74,1.79Z"/><path class="cls-34" d="M66.09,178.66c2.72,1.41,1.6,2.76-.07,4.09-2-.19-4.16.13-4.79-2.54C62.44,178.4,64.19,178.32,66.09,178.66Z"/><path class="cls-35" d="M73.26,189.79c-.93-3.1,1.1-3.73,3.42-3.93,1.28-.11,2.41.6,2.21,2-.44,3.06-3.13,1.52-4.78,2.12A1.81,1.81,0,0,0,73.26,189.79Z"/><path class="cls-36" d="M66.09,178.66l-4.86,1.55a1.9,1.9,0,0,1,1.85-2.45C64.12,177.93,65.28,177.72,66.09,178.66Z"/><path class="cls-37" d="M74.92,195l-3.63-.46c.8-.83,1.85-.58,2.83-.64a2.16,2.16,0,0,1,2,.9A.77.77,0,0,1,74.92,195Z"/><path class="cls-38" d="M80.06,194.9c2.51-.49,6.17,1.32,7.33-1.07s-2.09-4.49-3.45-6.69c-2.18-3.5-4.53-6.89-6.81-10.33,2-1.06,4.2-.1,6.26-.61a2.91,2.91,0,0,1,1.52.1c2.59,2.66,5.32,5.25,4.71,9.5-.16,1.85-.21,3.65,2.11,4.27,4.4.17,5.29,1.38,4,5.4-2.17.78-4.76-1.35-6.7,1-1.85.92-3.82.8-5.79.7C81.83,196.85,80.18,196.93,80.06,194.9Z"/><path class="cls-23" d="M80.06,194.9c1,1,2.43.69,3.65,1,.41,1,1.28,1.89.23,3L78.28,200l-.13-.14a5.3,5.3,0,0,1,.25-4.72Z"/><path class="cls-39" d="M84.13,176.81h-7c0-.33,0-.66,0-1h6a.73.73,0,1,1,1,1Z"/><path class="cls-40" d="M68.1,172.81l4,2c-1.59,0-3.24.17-4.59-.84S67.5,173,68.1,172.81Z"/><path class="cls-41" d="M72.11,174.81c1.69.25,3.61-.67,5,1C75.44,175.57,73.51,176.5,72.11,174.81Z"/><path class="cls-42" d="M101.18,175.83h-4l1-1c1.25,0,2.73-.33,3.71.21S101.57,175.62,101.18,175.83Z"/><path class="cls-43" d="M84.14,175.83l-1,0L83,173.73c-.28-1.88.74-3,2.22-3.92a23.77,23.77,0,0,1,5.93,6C88.82,177.89,86.48,177.08,84.14,175.83Z"/><path class="cls-44" d="M62.16,157.92l1.82-.6c1.51-.51,3.17-1.41,4.36.29s-.26,2.94-1.28,4.16C64.33,161.88,62.36,161,62.16,157.92Z"/><path class="cls-45" d="M85.23,169.81c0,1.73-1.08,2.84-2.22,3.92a5.94,5.94,0,0,1-3.81-.92,3.3,3.3,0,0,1,1-3.94C81.89,168.92,83.78,168.18,85.23,169.81Z"/><path class="cls-46" d="M105.08,196.13l-1.89-.25c-5.71-5.53-10.55-11.63-12.83-19.41,1.9-.53,4,.48,5.8-.64h1c-.33,1.69-.65,3.39-1,5.08.92.81,1.75,1.65,1,3a2.26,2.26,0,0,0,2,1c3,3.24,6.18,6.33,7,10.94Z"/><path class="cls-47" d="M96.16,175.83c-1.76,1.8-4,.66-6,1-1.67,1.53-3.34,1.23-5,0l-1,0c0-.33,0-.66,0-1l7,0h2Z"/><path class="cls-48" d="M90.44,196l-1.25-.33c2.19-1.51,4.65-.46,7-.76q.36.3.24.6c-.08.2-.16.31-.24.31l-3.08.18Z"/><path class="cls-49" d="M106.19,195.86c-2.44-3.59-5.56-6.73-7-10.94,4.2-.6,4.9,3.2,6.71,5.48a46.59,46.59,0,0,1,3.3,5.44Z"/><path class="cls-50" d="M97.15,183.91c-.32-1-.64-2-1-3,1.2-.67,1.89-2.65,3.75-1.64a2.17,2.17,0,0,1,1,2.58C100.49,183.92,99,184.3,97.15,183.91Z"/><path class="cls-51" d="M96.16,195.78v-.91c-.48-3-1.82-4.6-5-3.05-.38-2.22,1.1-5.37-2.89-5.81,2.12-4.11-3.08-5.77-3.07-9.18h5l13,19A19.32,19.32,0,0,1,96.16,195.78Z"/><path class="cls-52" d="M88.22,186c1.35.38,2.81-2,4-.08,1.28,2.12.39,4.13-1.08,5.89C88.37,190.77,88.18,188.45,88.22,186Z"/><path class="cls-1" d="M194.38,251.49a78.21,78.21,0,0,1-10.36-.77l-4.75-.62-.73-4.74a13.11,13.11,0,0,1,1.8-8.74l1.73-5.79.84-5.22,0-1.13c.17-5.12.33-10-.91-14.38a19.7,19.7,0,0,1-1.86-3.86c-2.88-.24-5.76-.48-8.64-.75-7.7-.71-10.9-4.68-12.11-7s-2.69-7.13,1-13.81a33.57,33.57,0,0,1,6.25-8.33,13.31,13.31,0,0,1-2.93-6.4c-2.08-5.16-.22-9.75.93-12.58.2-.47.39-.95.57-1.43l1.35-3.62,1.36-2.2a10.88,10.88,0,0,1,2.76-4.4,11,11,0,0,1,4-3.92l.83-.66a14,14,0,0,1,6.78-4.1,10.56,10.56,0,0,1,5.42-1.42,19.31,19.31,0,0,1,5.63-.85,20.25,20.25,0,0,1,6.18,1c6,.82,11.93,2.78,19.09,6.3,11.41,3.9,20,9.63,26.22,17.54,2.23,2.81,4.35,5.89,3.79,9.86a10.42,10.42,0,0,1-3.51,6.16c.41.88.89,1.78,1.4,2.74,2.48,4.71,5.87,11.14,2.8,19.14a10.78,10.78,0,0,1-7.81,7.59A20.4,20.4,0,0,1,231,207.56l-1.69,0a20.16,20.16,0,0,1-10.45,9.87L213.1,220l-.57,1.43.08,2.91c2,4,.53,7.93-.29,9.93-.19.85-.34,1.77-.51,2.73-.57,3.29-1.22,7-3.47,10.66l-1.43,2.31-2.66.57A45.74,45.74,0,0,1,194.38,251.49Z"/><path class="cls-2" d="M189.05,246.17a78.37,78.37,0,0,1-10.35-.78l-4.76-.62-.73-4.74a13.12,13.12,0,0,1,1.8-8.74l1.73-5.79.84-5.21,0-1.14c.17-5.12.33-10-.91-14.38a19.27,19.27,0,0,1-1.85-3.85q-4.34-.36-8.64-.75c-7.71-.71-10.9-4.68-12.12-7s-2.69-7.13,1-13.81a33.94,33.94,0,0,1,6.25-8.33,13.15,13.15,0,0,1-2.92-6.4c-2.09-5.16-.22-9.75.93-12.58.19-.47.39-.95.56-1.42l1.35-3.62,1.36-2.21a11,11,0,0,1,2.76-4.39,11,11,0,0,1,4-3.92l.83-.67a14,14,0,0,1,6.78-4.09,10.49,10.49,0,0,1,5.42-1.43,19.31,19.31,0,0,1,5.63-.85,20.51,20.51,0,0,1,6.18,1c6,.82,11.93,2.78,19.1,6.3,11.4,3.9,20,9.64,26.22,17.54,2.22,2.81,4.34,5.89,3.78,9.86a10.33,10.33,0,0,1-3.5,6.16c.41.88.88,1.79,1.39,2.75,2.48,4.7,5.87,11.13,2.8,19.13-1.33,4.05-4.11,6.74-7.81,7.6a20.38,20.38,0,0,1-10.51,2.44q-.84,0-1.68,0a20.15,20.15,0,0,1-10.46,9.87l-5.78,2.55-.58,1.44.08,2.9c2,4,.53,7.94-.28,9.93-.19.86-.35,1.77-.52,2.73-.57,3.29-1.22,7-3.47,10.66l-1.43,2.31-2.66.58A46.31,46.31,0,0,1,189.05,246.17Z"/><path class="cls-3" d="M232.89,167.65c-2.1,2.23.33,3.59,1.07,5.2,2.52,5.47,6.69,10.53,4,17.2-1.71-2.1-2.43-4.88-4.56-6.7-3.6-5-3.94,1.21-5.93,1.72-1.42-.43-1.57-1.63-1.74-2.82,0-1-.11-2.13.54-2.79,4-4.05.77-5.67-2.38-7.35a9,9,0,0,0-3.26-6.38c-4.74-4.06-8.11-9.8-14.58-11.73-.42-.13-.51-.8-.39-1.32.68-1.19,3.14-.76,2.79-2.69-.22-1.21-1.82-1-2.81-1.35a59.59,59.59,0,0,1-12.88-11.93c6.43.79,12.34,3.11,18.08,6,6.81,6.55,13.4,13.31,20,20C232.17,164,234.34,165.17,232.89,167.65Z"/><path class="cls-4" d="M205.94,152.55c8.11,2.52,12.19,9.92,18.21,15,2,1.72,1.29,2.95-.27,4.29.16,2.18-1.7,2.05-3,2.61-3.15.09-4.24-2.82-6.29-4.33-.55-2.13-1-4.34-3.87-4.49-6.12-5.5-11.7-11.56-17.56-17.33-2.11-4.76-7.19-7.09-9.57-11.63a13.21,13.21,0,0,1,9.17.06c5.47,2.47,8.35,8,13.25,11.15C206.43,149.43,206.88,151,205.94,152.55Z"/><path class="cls-5" d="M193.81,147.76A182.88,182.88,0,0,1,211,164.83c.42,2.3,1.93,3.75,3.8,4.93,3.12-.27,3.38,3.77,6.13,4.05,3.63,1.45,4.05,5.28,5.94,8,.1,1.1-.13,2.33,1.16,3,1.07-.82,1.85-.26,2.58.53,1.07,2.8,4.86,4.52,3.33,8.36-3,2.19-6.52,2.23-10,2.11a1,1,0,0,1,0-1.19c2.92-1.45,1.21-2.54-.29-3.65-.07-3.18-2.43-3.54-4.79-3.9A27.56,27.56,0,0,0,210,172.93c-6.21-5.56-12-11.61-17.72-17.66a11.55,11.55,0,0,1-2.91-4.63,3.73,3.73,0,0,1,1.53-3.32A2.72,2.72,0,0,1,193.81,147.76Z"/><path class="cls-6" d="M179.71,194.91c-4.3-.37-8.61-.71-12.91-1.11-7.16-.66-9.56-5.08-6.09-11.33a23.6,23.6,0,0,1,7.64-8.81c2.74-.86,4,.39,4.19,3,0,1.17-1,2-1.13,3.16.64,1.76,2.31,1.57,3.69,1.93,3.88.9,5.61,4.1,7.57,7.06a5.77,5.77,0,0,1,.74,1.21,4.56,4.56,0,0,1,0,3.48,3.27,3.27,0,0,1-3,1.44Z"/><path class="cls-7" d="M182.79,193.85V190c.4-1,1.62-1.06,2.3-2.08-1.64-.15-2.31,1-3.15,1.87-2.12-2.65-3.24-6.33-7.24-7-.31-1,.22-2.2-.63-3.1-.71-.7-1.79-1-2.31-1.89.2-2.47-.86-3.89-3.4-4.1,1.8-1.53,2.71-2.87.1-4.72-2-1.39-3.64-3.31-3.76-6-.74-3,.94-2.85,2.43-1.55,3.68,3.2,7.64,6.19,10,10.65-.83,3.15,2.2.68,2.74,1.84a11,11,0,0,1,1.24.36c1.4.6,3,.44,4.4,1a3.62,3.62,0,0,1,1.1.85,9.64,9.64,0,0,1,.83,1.18c2.67,3.95,5.55,7.77,8.07,11.82,3.34,5.36,2.55,6.86-3.71,7.06-.82,0-1.65,0-2.47,0a20.06,20.06,0,0,1-2.19-.1,8.51,8.51,0,0,1-2.12-.44A4,4,0,0,1,182.79,193.85Z"/><path class="cls-8" d="M189.56,150.62c8.06,8.27,16.09,16.55,24.48,24.5,2.82,2.68,6.69,6.69,5,12.06a1.37,1.37,0,0,1-.38,1.89c-5.21-2.68-6.62-8.1-9.18-12.67-.53-.31,1.23-.92,0-.89a6.72,6.72,0,0,1-2.89-.22c-11.11-9.82-21-20.81-31.06-31.72-.77-.83-1.6-1.78-.89-3.1a7.71,7.71,0,0,1,5.12-2.77,33.74,33.74,0,0,1,6.51,8.55C186.23,148.56,188.29,149.29,189.56,150.62Z"/><path class="cls-9" d="M219.12,197a13.34,13.34,0,0,1-8.14,9.27l-8.17,3.6c-4.7,1.19-9.15,3.14-13.78,4.53-1.48.45-2.95,1.62-4.58.36-.31-7.08-.32-7.14,6.36-9.65,6.16-2.32,12.58-4,18.48-7a31.61,31.61,0,0,1,3.74-1.37C215.07,196.53,217.17,195,219.12,197Z"/><path class="cls-10" d="M176.77,172.81q-5-5.22-10-10.44c-1-1.07-1.91-1.51-2.12.56-1.92-3.66.06-6.84,1.26-10.11,2.78-.25,3.76,2.1,5.28,3.67a8.6,8.6,0,0,1,.6,1.17c.71,2.08,2.33,2.87,4.36,3.09,2.65.54,4.15,2.51,5.68,4.49a24.75,24.75,0,0,0,6.73,6.49c1.27.77,2.93,1,3.67,2.51a2,2,0,0,1-.81,2.16,4.92,4.92,0,0,1-5.67-.58h0c-1.5-1.23-3.52.17-5-1h0C179.62,173.81,177.43,174.83,176.77,172.81Z"/><path class="cls-11" d="M174.65,140.47c8.24,9.94,17.31,19.09,26.48,28.16,2,2,3.81,4.11,5.72,6.17a2.46,2.46,0,0,1-.62,1.22l-.58.39a5.36,5.36,0,0,1-1.36.36,5.17,5.17,0,0,1-2.76-.51c-10.43-8.87-18.6-19.95-28.59-29.25-1.85-1.73-1.59-3.47,0-5.19Z"/><path class="cls-12" d="M232.89,167.65c-.25-2.62-2.58-3.69-4-5.39-5.8-6.71-13.5-11.67-18-19.59,9.26,3.11,17.52,7.8,23.66,15.58C238.23,163,237.91,164.05,232.89,167.65Z"/><path class="cls-13" d="M179.53,239.06a7.1,7.1,0,0,1,1.37-5.14c3.43-3.44,15.69-7.72,20-7-1,4-1,8.31-3.32,12A74.07,74.07,0,0,1,179.53,239.06Z"/><path class="cls-14" d="M209.85,199.13c-6.28,3.69-13.35,5.38-20.16,7.64-4.49,1.5-5.54,4-4.73,8.11,1.25,1.38,1.1,3,.74,4.63-.32.79-.75,1.44-1.74,1.39.19-6.36.6-12.74-1.42-18.93.72-1.95,2.57-2.23,4.18-2.85,1.88-.44,3.72-1.14,5.7-.88,4.2,3.41,5-1.05,6.84-3a3.26,3.26,0,0,1,2.85.29C203.79,198.69,208,196.4,209.85,199.13Z"/><path class="cls-15" d="M170.83,157.92l-.14-1.13c-.33-.75.13-1.2.62-1.63,1.48-1.43-.06-2.26-.68-3.22-.93-1.42-2.74-2.43-2-4.57a4.86,4.86,0,0,1,2-3c5.71,6.58,11.35,13.22,17.41,19.49,1.4,1.45,2.69,3,1.85,5.24a8.38,8.38,0,0,1-2,3.72,27.25,27.25,0,0,1-7.24-7.28c-1.22-1.75-2.46-3.55-4.9-3.76C176.4,157.56,172.79,158.78,170.83,157.92Z"/><path class="cls-16" d="M200.89,226.94l-20,7c.69-2.33,1.39-4.66,2.08-7,5.49-3.51,11.18-6.41,18-6.06C202.64,222.91,201.72,224.92,200.89,226.94Z"/><path class="cls-17" d="M188.82,168.87c1.18-2-.46-2.94-1.55-4.11-4.36-4.68-8.78-9.32-13-14.1-1.61-1.81-3.24-3.73-3.63-6.3a4.52,4.52,0,0,1,2.37-2.54c-.74,2.12-.17,3.57,1.5,5.27,9.24,9.46,18.26,19.12,27.36,28.71a2,2,0,0,1-1.94.52c-2.75-1.31-4.21-4.16-6.81-5.64C191.73,169.91,190,170.1,188.82,168.87Z"/><path class="cls-18" d="M209.85,175.83c3.35,4.09,5,9.38,9,13,1.87.36,3.11,1.71,4.5,2.82.61,1,1.27,2,.57,3.19,0,.31,0,.63,0,.94l-3.9.31a3.36,3.36,0,0,1-2.08.07c-2.57-1.43-3.48-4.2-5.09-6.39-1.37-1.86-2.65-3.71-5.23-3.9-.9-.28-1.75-.62-2-1.69.24-1.2,1.84-1.34,2-2.62-.78-1.25-2.6.32-3.29-1.18-.76-2,.2-3.32,1.53-4.58h0A3.92,3.92,0,0,1,209.85,175.83Z"/><path class="cls-19" d="M184.83,219.92c0-1.68.08-3.36.13-5,4.93-2.74,10.49-3.77,15.69-5.78a1.79,1.79,0,0,1,2.16.72l-2,5.09C196.28,219.19,191.17,221.54,184.83,219.92Z"/><path class="cls-20" d="M184.83,219.92c5.7-.42,10.82-2.71,15.94-5,.06,2,.12,4,.17,6l-18,6.06,1-6Z"/><path class="cls-21" d="M185.77,146.61c-2.09-2.91-5.23-5.12-6-8.91,1-1.23,2.51-.9,3.85-1,4,3.13,8.33,6,10.19,11.11H191C189.32,147.11,187.28,148.06,185.77,146.61Z"/><path class="cls-22" d="M233.89,193.69c0-3.33-3.72-4.74-4-7.91a5.21,5.21,0,0,1,4.09-2.94c2.74,1.62,4.36,3.87,4,7.21C237.36,192.1,236.21,193.55,233.89,193.69Z"/><path class="cls-23" d="M187,200,182.54,202c-1.58-2.1-2.11-4.62-2.83-7.06l.25-.42a15.82,15.82,0,0,1,3.44-.06c1.63,1,1.85,3,3,4.39A3.57,3.57,0,0,1,187,200Z"/><path class="cls-24" d="M168.59,147.37c1.64,2.2,3.4,4.33,4.89,6.63,1.75,2.69-.94,1.37-1.73,1.77-2.6-1.16-4.46-2.9-4.69-5.93Z"/><path class="cls-25" d="M179.53,239.06l18-.14C191.57,240.22,185.55,239.85,179.53,239.06Z"/><path class="cls-26" d="M167.06,149.84l4.69,5.93-1.06,1-4.74-4Z"/><path class="cls-14" d="M217.85,195.84l2.11.27-.84.84-6.31.9c-.44-1.12.19-1.82,1-2.46a4.52,4.52,0,0,1,1.38-.43A4.22,4.22,0,0,1,217.85,195.84Z"/><path class="cls-27" d="M226.82,181.83c-3.26-1.72-3.69-5.54-5.94-8l3-2c2.18-.32,3.64.53,5,2.33s2.62,3.17-.39,4.39C227,179.16,226.86,180.47,226.82,181.83Z"/><path class="cls-28" d="M234,182.84a6.31,6.31,0,0,1-4.09,2.94l-1.93-1c-1-2.76.34-4.44,2.8-5.12S233.64,181.05,234,182.84Z"/><path class="cls-29" d="M205.94,152.55c-.69-1.58-1.41-3.16.1-4.69,2.11,0,4.86-.57,4.54,2.76C210.31,153.41,208,153.05,205.94,152.55Z"/><path class="cls-30" d="M214.75,169.76c-4.24.66-5.36-1.1-3.8-4.93C214.68,164.58,216.83,165.54,214.75,169.76Z"/><path class="cls-31" d="M222.77,191.65c-2,0-2.89-1.5-4-2.8.09-.56.17-1.11.25-1.67,1.53-.24,2.74-2.31,4.38-1.23,1.9,1.25.35,3.23.48,4.88A1,1,0,0,1,222.77,191.65Z"/><path class="cls-32" d="M185.77,146.61c1.71.53,4.32-3,5.23,1.15a3.77,3.77,0,0,1-1.44,2.86C187.22,150.29,184.41,150.42,185.77,146.61Z"/><path class="cls-33" d="M222.77,191.65l1.15-.82c1.68,0,3.68.08,3.7,2.24,0,2.65-2.34,1.46-3.74,1.79Z"/><path class="cls-34" d="M174.76,178.66c2.72,1.41,1.6,2.76-.07,4.09-1.95-.19-4.16.13-4.79-2.54C171.11,178.4,172.86,178.32,174.76,178.66Z"/><path class="cls-35" d="M181.93,189.79c-.93-3.1,1.1-3.73,3.42-3.93,1.28-.11,2.41.6,2.21,2-.44,3.06-3.13,1.52-4.78,2.12A1.81,1.81,0,0,0,181.93,189.79Z"/><path class="cls-36" d="M174.76,178.66l-4.86,1.55a1.9,1.9,0,0,1,1.85-2.45C172.79,177.93,174,177.72,174.76,178.66Z"/><path class="cls-37" d="M183.59,195l-3.63-.46c.8-.83,1.85-.58,2.83-.64a2.16,2.16,0,0,1,2,.9A.77.77,0,0,1,183.59,195Z"/><path class="cls-38" d="M188.73,194.9c2.51-.49,6.17,1.32,7.33-1.07s-2.09-4.49-3.45-6.69c-2.18-3.5-4.53-6.89-6.81-10.33,2-1.06,4.2-.1,6.26-.61a2.91,2.91,0,0,1,1.52.1c2.59,2.66,5.32,5.25,4.71,9.5-.16,1.85-.21,3.65,2.11,4.27,4.4.17,5.29,1.38,4,5.4-2.17.78-4.76-1.35-6.7,1-1.85.92-3.82.8-5.79.7C190.5,196.85,188.85,196.93,188.73,194.9Z"/><path class="cls-23" d="M188.73,194.9c1,1,2.43.69,3.65,1,.41,1,1.28,1.89.23,3L187,200l-.13-.14a5.3,5.3,0,0,1,.25-4.72Z"/><path class="cls-39" d="M192.8,176.81h-7c0-.33,0-.66,0-1h6a.73.73,0,1,1,1,1Z"/><path class="cls-40" d="M176.77,172.81l4,2c-1.59,0-3.24.17-4.59-.84S176.17,173,176.77,172.81Z"/><path class="cls-41" d="M180.78,174.81c1.69.25,3.61-.67,5,1C184.11,175.57,182.18,176.5,180.78,174.81Z"/><path class="cls-42" d="M209.85,175.83h-4l1-1c1.25,0,2.73-.33,3.71.21S210.24,175.62,209.85,175.83Z"/><path class="cls-43" d="M192.81,175.83l-1,0-.13-2.08c-.28-1.88.74-3,2.22-3.92a23.77,23.77,0,0,1,5.93,6C197.49,177.89,195.15,177.08,192.81,175.83Z"/><path class="cls-44" d="M170.83,157.92l1.82-.6c1.51-.51,3.17-1.41,4.36.29s-.26,2.94-1.28,4.16C173,161.88,171,161,170.83,157.92Z"/><path class="cls-45" d="M193.9,169.81c0,1.73-1.08,2.84-2.22,3.92a5.94,5.94,0,0,1-3.81-.92,3.3,3.3,0,0,1,.95-3.94C190.56,168.92,192.45,168.18,193.9,169.81Z"/><path class="cls-46" d="M213.75,196.13l-1.89-.25c-5.71-5.53-10.55-11.63-12.83-19.41,1.9-.53,4,.48,5.8-.64h1c-.33,1.69-.65,3.39-1,5.08.92.81,1.75,1.65.95,3a2.26,2.26,0,0,0,2,1c3,3.24,6.18,6.33,7,10.94Z"/><path class="cls-47" d="M204.83,175.83c-1.76,1.8-4,.66-6,1-1.67,1.53-3.34,1.23-5,0l-1,0c0-.33,0-.66,0-1l7,0h2Z"/><path class="cls-48" d="M199.11,196l-1.25-.33c2.19-1.51,4.65-.46,7-.76q.36.3.24.6c-.08.2-.16.31-.24.31l-3.08.18Z"/><path class="cls-49" d="M214.86,195.86c-2.44-3.59-5.56-6.73-7-10.94,4.2-.6,4.9,3.2,6.71,5.48a46.59,46.59,0,0,1,3.3,5.44Z"/><path class="cls-50" d="M205.82,183.91c-.32-1-.64-2-.95-3,1.2-.67,1.89-2.65,3.75-1.64a2.17,2.17,0,0,1,1,2.58C209.16,183.92,207.68,184.3,205.82,183.91Z"/><path class="cls-51" d="M204.83,195.78v-.91c-.48-3-1.82-4.6-5.05-3.05-.38-2.22,1.1-5.37-2.89-5.81,2.12-4.11-3.08-5.77-3.07-9.18h5l13,19A19.32,19.32,0,0,1,204.83,195.78Z"/><path class="cls-52" d="M196.89,186c1.35.38,2.81-2,4-.08,1.28,2.12.39,4.13-1.08,5.89C197,190.77,196.85,188.45,196.89,186Z"/><path class="cls-1" d="M303.05,251.49a78.21,78.21,0,0,1-10.36-.77l-4.75-.62-.73-4.74a13.11,13.11,0,0,1,1.8-8.74l1.73-5.79.84-5.22,0-1.13c.17-5.12.33-10-.91-14.38a19.7,19.7,0,0,1-1.86-3.86c-2.88-.24-5.76-.48-8.64-.75-7.7-.71-10.9-4.68-12.11-7s-2.69-7.13,1-13.81a33.57,33.57,0,0,1,6.25-8.33,13.31,13.31,0,0,1-2.93-6.4c-2.08-5.16-.22-9.75.93-12.58.2-.47.39-.95.57-1.43l1.35-3.62,1.36-2.2a10.88,10.88,0,0,1,2.76-4.4,11,11,0,0,1,4-3.92l.83-.66a14,14,0,0,1,6.78-4.1,10.56,10.56,0,0,1,5.42-1.42,19.31,19.31,0,0,1,5.63-.85,20.25,20.25,0,0,1,6.18,1c6,.82,11.93,2.78,19.09,6.3,11.41,3.9,20,9.63,26.22,17.54,2.23,2.81,4.35,5.89,3.79,9.86a10.42,10.42,0,0,1-3.51,6.16c.41.88.89,1.78,1.4,2.74,2.48,4.71,5.87,11.14,2.8,19.14a10.78,10.78,0,0,1-7.81,7.59,20.4,20.4,0,0,1-10.51,2.45l-1.69,0a20.16,20.16,0,0,1-10.45,9.87L321.77,220l-.57,1.43.08,2.91c2,4,.53,7.93-.29,9.93-.19.85-.34,1.77-.51,2.73-.57,3.29-1.22,7-3.47,10.66l-1.43,2.31-2.66.57A45.74,45.74,0,0,1,303.05,251.49Z"/><path class="cls-2" d="M297.72,246.17a78.37,78.37,0,0,1-10.35-.78l-4.76-.62-.73-4.74a13.12,13.12,0,0,1,1.8-8.74l1.73-5.79.84-5.21,0-1.14c.17-5.12.33-10-.91-14.38a19.27,19.27,0,0,1-1.85-3.85q-4.33-.36-8.64-.75c-7.71-.71-10.9-4.68-12.12-7s-2.69-7.13,1-13.81A33.94,33.94,0,0,1,270,171a13.15,13.15,0,0,1-2.92-6.4c-2.09-5.16-.22-9.75.93-12.58.19-.47.39-.95.56-1.42L270,147l1.36-2.21a11,11,0,0,1,2.76-4.39,11,11,0,0,1,4-3.92l.83-.67a14,14,0,0,1,6.78-4.09,10.49,10.49,0,0,1,5.42-1.43,19.31,19.31,0,0,1,5.63-.85,20.51,20.51,0,0,1,6.18,1c6,.82,11.93,2.78,19.1,6.3,11.4,3.9,20,9.64,26.22,17.54,2.22,2.81,4.34,5.89,3.78,9.86a10.33,10.33,0,0,1-3.5,6.16c.41.88.88,1.79,1.39,2.75,2.48,4.7,5.87,11.13,2.8,19.13-1.33,4.05-4.11,6.74-7.81,7.6a20.38,20.38,0,0,1-10.51,2.44q-.84,0-1.68,0a20.15,20.15,0,0,1-10.46,9.87l-5.78,2.55-.58,1.44L316,219c2,4,.53,7.94-.28,9.93-.19.86-.35,1.77-.52,2.73-.57,3.29-1.22,7-3.47,10.66l-1.43,2.31-2.66.58A46.31,46.31,0,0,1,297.72,246.17Z"/><path class="cls-3" d="M341.56,167.65c-2.1,2.23.33,3.59,1.07,5.2,2.52,5.47,6.69,10.53,4,17.2-1.71-2.1-2.43-4.88-4.56-6.7-3.6-5-3.94,1.21-5.93,1.72-1.42-.43-1.57-1.63-1.74-2.82-.05-1-.11-2.13.54-2.79,4-4.05.77-5.67-2.38-7.35a9,9,0,0,0-3.26-6.38c-4.74-4.06-8.11-9.8-14.58-11.73-.42-.13-.51-.8-.39-1.32.68-1.19,3.14-.76,2.79-2.69-.22-1.21-1.82-1-2.81-1.35a59.59,59.59,0,0,1-12.88-11.93c6.43.79,12.34,3.11,18.08,6,6.81,6.55,13.4,13.31,20,20C340.84,164,343,165.17,341.56,167.65Z"/><path class="cls-4" d="M314.61,152.55c8.11,2.52,12.19,9.92,18.21,15,2.05,1.72,1.29,2.95-.27,4.29.16,2.18-1.7,2.05-3,2.61-3.15.09-4.24-2.82-6.29-4.33-.55-2.13-1-4.34-3.87-4.49-6.12-5.5-11.7-11.56-17.56-17.33-2.11-4.76-7.19-7.09-9.57-11.63a13.21,13.21,0,0,1,9.17.06c5.47,2.47,8.35,8,13.25,11.15C315.1,149.43,315.55,151,314.61,152.55Z"/><path class="cls-5" d="M302.48,147.76a182.88,182.88,0,0,1,17.14,17.07c.42,2.3,1.93,3.75,3.8,4.93,3.12-.27,3.38,3.77,6.13,4.05,3.63,1.45,4.05,5.28,5.94,8,.1,1.1-.13,2.33,1.16,3,1.07-.82,1.85-.26,2.58.53,1.07,2.8,4.86,4.52,3.33,8.36-3,2.19-6.52,2.23-10,2.11a1,1,0,0,1,0-1.19c2.92-1.45,1.21-2.54-.29-3.65-.07-3.18-2.43-3.54-4.79-3.9a27.56,27.56,0,0,0-8.75-14.13c-6.21-5.56-12-11.61-17.72-17.66a11.55,11.55,0,0,1-2.91-4.63,3.73,3.73,0,0,1,1.53-3.32A2.72,2.72,0,0,1,302.48,147.76Z"/><path class="cls-6" d="M288.38,194.91c-4.3-.37-8.61-.71-12.91-1.11-7.16-.66-9.56-5.08-6.09-11.33a23.6,23.6,0,0,1,7.64-8.81c2.74-.86,4,.39,4.19,3,0,1.17-1,2-1.13,3.16.64,1.76,2.31,1.57,3.69,1.93,3.88.9,5.61,4.1,7.57,7.06a5.77,5.77,0,0,1,.74,1.21,4.56,4.56,0,0,1,0,3.48,3.27,3.27,0,0,1-3,1.44Z"/><path class="cls-7" d="M291.46,193.85V190c.4-1,1.62-1.06,2.3-2.08-1.64-.15-2.31,1-3.15,1.87-2.12-2.65-3.24-6.33-7.24-7-.31-1,.22-2.2-.63-3.1-.71-.7-1.79-1-2.31-1.89.2-2.47-.86-3.89-3.4-4.1,1.8-1.53,2.71-2.87.1-4.72-2-1.39-3.64-3.31-3.76-6-.74-3,.94-2.85,2.43-1.55,3.68,3.2,7.64,6.19,10,10.65-.83,3.15,2.2.68,2.74,1.84a11,11,0,0,1,1.24.36c1.4.6,3,.44,4.4,1a3.62,3.62,0,0,1,1.1.85,9.64,9.64,0,0,1,.83,1.18c2.67,3.95,5.55,7.77,8.07,11.82,3.34,5.36,2.55,6.86-3.71,7.06-.82,0-1.65,0-2.47,0a20.06,20.06,0,0,1-2.19-.1,8.51,8.51,0,0,1-2.12-.44A4,4,0,0,1,291.46,193.85Z"/><path class="cls-8" d="M298.23,150.62c8.06,8.27,16.09,16.55,24.48,24.5,2.82,2.68,6.69,6.69,5,12.06a1.37,1.37,0,0,1-.38,1.89c-5.21-2.68-6.62-8.1-9.18-12.67-.53-.31,1.23-.92,0-.89a6.72,6.72,0,0,1-2.89-.22c-11.11-9.82-21-20.81-31.06-31.72-.77-.83-1.6-1.78-.89-3.1a7.71,7.71,0,0,1,5.12-2.77,33.74,33.74,0,0,1,6.51,8.55C294.9,148.56,297,149.29,298.23,150.62Z"/><path class="cls-9" d="M327.79,197a13.34,13.34,0,0,1-8.14,9.27l-8.17,3.6c-4.7,1.19-9.15,3.14-13.78,4.53-1.48.45-2.95,1.62-4.58.36-.31-7.08-.32-7.14,6.36-9.65,6.16-2.32,12.58-4,18.48-7a31.61,31.61,0,0,1,3.74-1.37C323.74,196.53,325.84,195,327.79,197Z"/><path class="cls-10" d="M285.44,172.81q-5-5.22-10-10.44c-1-1.07-1.91-1.51-2.12.56-1.92-3.66.07-6.84,1.26-10.11,2.78-.25,3.76,2.1,5.28,3.67a8.6,8.6,0,0,1,.6,1.17c.71,2.08,2.33,2.87,4.36,3.09,2.65.54,4.15,2.51,5.68,4.49a24.75,24.75,0,0,0,6.73,6.49c1.27.77,2.93,1,3.67,2.51a2,2,0,0,1-.81,2.16,4.92,4.92,0,0,1-5.67-.58h0c-1.5-1.23-3.52.17-5-1h0C288.29,173.81,286.1,174.83,285.44,172.81Z"/><path class="cls-11" d="M283.32,140.47c8.24,9.94,17.31,19.09,26.48,28.16,2,2,3.81,4.11,5.72,6.17a2.46,2.46,0,0,1-.62,1.22l-.58.39a5.36,5.36,0,0,1-1.36.36,5.17,5.17,0,0,1-2.76-.51c-10.43-8.87-18.6-19.95-28.59-29.25-1.85-1.73-1.59-3.47,0-5.19Z"/><path class="cls-12" d="M341.56,167.65c-.25-2.62-2.58-3.69-4.05-5.39-5.8-6.71-13.5-11.67-18-19.59,9.26,3.11,17.52,7.8,23.66,15.58C346.9,163,346.58,164.05,341.56,167.65Z"/><path class="cls-13" d="M288.2,239.06a7.1,7.1,0,0,1,1.37-5.14c3.43-3.44,15.69-7.72,20-7-1,4-1.05,8.31-3.32,12A74.07,74.07,0,0,1,288.2,239.06Z"/><path class="cls-14" d="M318.52,199.13c-6.28,3.69-13.35,5.38-20.16,7.64-4.49,1.5-5.54,4-4.73,8.11,1.25,1.38,1.1,3,.74,4.63-.32.79-.75,1.44-1.74,1.39.19-6.36.6-12.74-1.42-18.93.72-1.95,2.57-2.23,4.18-2.85,1.88-.44,3.72-1.14,5.7-.88,4.2,3.41,5-1.05,6.84-3a3.26,3.26,0,0,1,2.85.29C312.46,198.69,316.66,196.4,318.52,199.13Z"/><path class="cls-15" d="M279.5,157.92l-.14-1.13c-.33-.75.13-1.2.62-1.63,1.48-1.43-.06-2.26-.68-3.22-.93-1.42-2.74-2.43-2-4.57a4.86,4.86,0,0,1,2-3c5.71,6.58,11.35,13.22,17.41,19.49,1.4,1.45,2.69,3,1.85,5.24a8.38,8.38,0,0,1-2,3.72,27.25,27.25,0,0,1-7.24-7.28c-1.22-1.75-2.46-3.55-4.9-3.76C285.07,157.56,281.46,158.78,279.5,157.92Z"/><path class="cls-16" d="M309.56,226.94l-20,7c.69-2.33,1.39-4.66,2.08-7,5.49-3.51,11.18-6.41,18-6.06C311.31,222.91,310.39,224.92,309.56,226.94Z"/><path class="cls-17" d="M297.49,168.87c1.18-2-.46-2.94-1.55-4.11-4.36-4.68-8.78-9.32-13-14.1-1.61-1.81-3.24-3.73-3.63-6.3a4.52,4.52,0,0,1,2.37-2.54c-.74,2.12-.17,3.57,1.5,5.27,9.24,9.46,18.26,19.12,27.36,28.71a2,2,0,0,1-1.94.52c-2.75-1.31-4.21-4.16-6.81-5.64C300.4,169.91,298.64,170.1,297.49,168.87Z"/><path class="cls-18" d="M318.52,175.83c3.35,4.09,5,9.38,9,13,1.87.36,3.11,1.71,4.5,2.82.61,1,1.27,2,.57,3.19,0,.31,0,.63,0,.94l-3.9.31a3.36,3.36,0,0,1-2.08.07c-2.57-1.43-3.48-4.2-5.09-6.39-1.37-1.86-2.65-3.71-5.23-3.9-.9-.28-1.75-.62-2-1.69.24-1.2,1.84-1.34,2-2.62-.78-1.25-2.6.32-3.29-1.18-.76-2,.2-3.32,1.53-4.58h0A3.92,3.92,0,0,1,318.52,175.83Z"/><path class="cls-19" d="M293.5,219.92c0-1.68.08-3.36.13-5,4.93-2.74,10.49-3.77,15.69-5.78a1.79,1.79,0,0,1,2.16.72l-2,5.09C305,219.19,299.84,221.54,293.5,219.92Z"/><path class="cls-20" d="M293.5,219.92c5.7-.42,10.82-2.71,15.94-5,.06,2,.12,4,.17,6l-18,6.06,1-6Z"/><path class="cls-21" d="M294.44,146.61c-2.09-2.91-5.23-5.12-6-8.91,1.05-1.23,2.51-.9,3.85-1,4,3.13,8.33,6,10.19,11.11h-2.81C298,147.11,296,148.06,294.44,146.61Z"/><path class="cls-22" d="M342.56,193.69c0-3.33-3.72-4.74-4-7.91a5.21,5.21,0,0,1,4.09-2.94c2.74,1.62,4.36,3.87,4,7.21C346,192.1,344.88,193.55,342.56,193.69Z"/><path class="cls-23" d="M295.62,200,291.21,202c-1.58-2.1-2.11-4.62-2.83-7.06l.25-.42a15.82,15.82,0,0,1,3.44-.06c1.63,1,1.85,3,3,4.39A3.57,3.57,0,0,1,295.62,200Z"/><path class="cls-24" d="M277.26,147.37c1.64,2.2,3.4,4.33,4.89,6.63,1.75,2.69-.94,1.37-1.73,1.77-2.6-1.16-4.46-2.9-4.69-5.93Z"/><path class="cls-25" d="M288.2,239.06l18-.14C300.24,240.22,294.22,239.85,288.2,239.06Z"/><path class="cls-26" d="M275.73,149.84l4.69,5.93-1.06,1-4.74-4Z"/><path class="cls-14" d="M326.52,195.84l2.11.27-.84.84-6.31.9c-.44-1.12.19-1.82,1-2.46a4.52,4.52,0,0,1,1.38-.43A4.22,4.22,0,0,1,326.52,195.84Z"/><path class="cls-27" d="M335.49,181.83c-3.26-1.72-3.69-5.54-5.94-8l3-2c2.18-.32,3.64.53,5,2.33s2.62,3.17-.39,4.39C335.66,179.16,335.53,180.47,335.49,181.83Z"/><path class="cls-28" d="M342.67,182.84a6.31,6.31,0,0,1-4.09,2.94l-1.93-1c-1-2.76.34-4.44,2.8-5.12S342.31,181.05,342.67,182.84Z"/><path class="cls-29" d="M314.61,152.55c-.69-1.58-1.41-3.16.1-4.69,2.11,0,4.86-.57,4.54,2.76C319,153.41,316.65,153.05,314.61,152.55Z"/><path class="cls-30" d="M323.42,169.76c-4.24.66-5.36-1.1-3.8-4.93C323.35,164.58,325.5,165.54,323.42,169.76Z"/><path class="cls-31" d="M331.44,191.65c-2,0-2.89-1.5-4-2.8.09-.56.17-1.11.25-1.67,1.53-.24,2.74-2.31,4.38-1.23,1.9,1.25.35,3.23.48,4.88A1,1,0,0,1,331.44,191.65Z"/><path class="cls-32" d="M294.44,146.61c1.71.53,4.32-3,5.23,1.15a3.77,3.77,0,0,1-1.44,2.86C295.89,150.29,293.08,150.42,294.44,146.61Z"/><path class="cls-33" d="M331.44,191.65l1.15-.82c1.68,0,3.68.08,3.7,2.24,0,2.65-2.34,1.46-3.74,1.79Z"/><path class="cls-34" d="M283.43,178.66c2.72,1.41,1.6,2.76-.07,4.09-1.95-.19-4.16.13-4.79-2.54C279.78,178.4,281.53,178.32,283.43,178.66Z"/><path class="cls-35" d="M290.6,189.79c-.93-3.1,1.1-3.73,3.42-3.93,1.28-.11,2.41.6,2.21,2-.44,3.06-3.13,1.52-4.78,2.12A1.81,1.81,0,0,0,290.6,189.79Z"/><path class="cls-36" d="M283.43,178.66l-4.86,1.55a1.9,1.9,0,0,1,1.85-2.45C281.46,177.93,282.62,177.72,283.43,178.66Z"/><path class="cls-37" d="M292.26,195l-3.63-.46c.8-.83,1.85-.58,2.83-.64a2.16,2.16,0,0,1,2,.9A.77.77,0,0,1,292.26,195Z"/><path class="cls-38" d="M297.4,194.9c2.51-.49,6.17,1.32,7.33-1.07s-2.09-4.49-3.45-6.69c-2.18-3.5-4.53-6.89-6.81-10.33,2-1.06,4.2-.1,6.26-.61a2.91,2.91,0,0,1,1.52.1c2.59,2.66,5.32,5.25,4.71,9.5-.16,1.85-.21,3.65,2.11,4.27,4.4.17,5.29,1.38,4,5.4-2.17.78-4.76-1.35-6.7,1-1.85.92-3.82.8-5.79.7C299.17,196.85,297.52,196.93,297.4,194.9Z"/><path class="cls-23" d="M297.4,194.9c1,1,2.43.69,3.65,1,.41,1,1.28,1.89.23,3L295.62,200l-.13-.14a5.3,5.3,0,0,1,.25-4.72Z"/><path class="cls-39" d="M301.47,176.81h-7c0-.33,0-.66,0-1h6a.73.73,0,1,1,1,1Z"/><path class="cls-40" d="M285.44,172.81l4,2c-1.59,0-3.24.17-4.59-.84S284.84,173,285.44,172.81Z"/><path class="cls-41" d="M289.45,174.81c1.69.25,3.61-.67,5,1C292.78,175.57,290.85,176.5,289.45,174.81Z"/><path class="cls-42" d="M318.52,175.83h-4l1-1c1.25,0,2.73-.33,3.71.21S318.91,175.62,318.52,175.83Z"/><path class="cls-43" d="M301.48,175.83l-1,0-.13-2.08c-.28-1.88.74-3,2.22-3.92a23.77,23.77,0,0,1,5.93,6C306.16,177.89,303.82,177.08,301.48,175.83Z"/><path class="cls-44" d="M279.5,157.92l1.82-.6c1.51-.51,3.17-1.41,4.36.29s-.26,2.94-1.28,4.16C281.67,161.88,279.7,161,279.5,157.92Z"/><path class="cls-45" d="M302.57,169.81c0,1.73-1.08,2.84-2.22,3.92a5.94,5.94,0,0,1-3.81-.92,3.3,3.3,0,0,1,.95-3.94C299.23,168.92,301.12,168.18,302.57,169.81Z"/><path class="cls-46" d="M322.42,196.13l-1.89-.25c-5.71-5.53-10.55-11.63-12.83-19.41,1.9-.53,4,.48,5.8-.64h1c-.33,1.69-.65,3.39-1,5.08.92.81,1.75,1.65.95,3a2.26,2.26,0,0,0,2,1c3,3.24,6.18,6.33,7,10.94Z"/><path class="cls-47" d="M313.5,175.83c-1.76,1.8-4,.66-6,1-1.67,1.53-3.34,1.23-5,0l-1,0c0-.33,0-.66,0-1l7,0h2Z"/><path class="cls-48" d="M307.78,196l-1.25-.33c2.19-1.51,4.65-.46,7-.76q.36.3.24.6c-.08.2-.16.31-.24.31l-3.08.18Z"/><path class="cls-49" d="M323.53,195.86c-2.44-3.59-5.56-6.73-7-10.94,4.2-.6,4.9,3.2,6.71,5.48a46.59,46.59,0,0,1,3.3,5.44Z"/><path class="cls-50" d="M314.49,183.91c-.32-1-.64-2-.95-3,1.2-.67,1.89-2.65,3.75-1.64a2.17,2.17,0,0,1,1,2.58C317.83,183.92,316.35,184.3,314.49,183.91Z"/><path class="cls-51" d="M313.5,195.78v-.91c-.48-3-1.82-4.6-5.05-3.05-.38-2.22,1.1-5.37-2.89-5.81,2.12-4.11-3.08-5.77-3.07-9.18h5l13,19A19.32,19.32,0,0,1,313.5,195.78Z"/><path class="cls-52" d="M305.56,186c1.35.38,2.81-2,4-.08,1.28,2.12.39,4.13-1.08,5.89C305.71,190.77,305.52,188.45,305.56,186Z"/><path class="cls-1" d="M411.72,251.49a78.21,78.21,0,0,1-10.36-.77l-4.75-.62-.73-4.74a13.11,13.11,0,0,1,1.8-8.74l1.73-5.79.84-5.22,0-1.13c.17-5.12.33-10-.91-14.38a19.7,19.7,0,0,1-1.86-3.86c-2.88-.24-5.76-.48-8.64-.75-7.7-.71-10.9-4.68-12.11-7s-2.69-7.13,1-13.81a33.57,33.57,0,0,1,6.25-8.33,13.31,13.31,0,0,1-2.93-6.4c-2.08-5.16-.22-9.75.93-12.58.2-.47.39-.95.57-1.43l1.35-3.62,1.36-2.2a10.88,10.88,0,0,1,2.76-4.4,11,11,0,0,1,4-3.92l.83-.66a14,14,0,0,1,6.78-4.1,10.56,10.56,0,0,1,5.42-1.42,19.31,19.31,0,0,1,5.63-.85,20.25,20.25,0,0,1,6.18,1c6,.82,11.93,2.78,19.09,6.3,11.41,3.9,20,9.63,26.22,17.54,2.23,2.81,4.35,5.89,3.79,9.86a10.42,10.42,0,0,1-3.51,6.16c.41.88.89,1.78,1.4,2.74,2.48,4.71,5.87,11.14,2.8,19.14a10.78,10.78,0,0,1-7.81,7.59,20.4,20.4,0,0,1-10.51,2.45l-1.69,0a20.16,20.16,0,0,1-10.45,9.87L430.44,220l-.57,1.43.08,2.91c2,4,.53,7.93-.29,9.93-.19.85-.34,1.77-.51,2.73-.57,3.29-1.22,7-3.47,10.66l-1.43,2.31-2.66.57A45.74,45.74,0,0,1,411.72,251.49Z"/><path class="cls-2" d="M406.39,246.17a78.37,78.37,0,0,1-10.35-.78l-4.76-.62-.73-4.74a13.12,13.12,0,0,1,1.8-8.74l1.73-5.79.84-5.21,0-1.14c.17-5.12.33-10-.91-14.38a19.27,19.27,0,0,1-1.85-3.85q-4.33-.36-8.64-.75c-7.71-.71-10.9-4.68-12.12-7s-2.69-7.13,1-13.81a33.94,33.94,0,0,1,6.25-8.33,13.15,13.15,0,0,1-2.92-6.4c-2.09-5.16-.22-9.75.93-12.58.19-.47.39-.95.56-1.42l1.35-3.62,1.36-2.21a11,11,0,0,1,2.76-4.39,11,11,0,0,1,4-3.92l.83-.67a14,14,0,0,1,6.78-4.09,10.49,10.49,0,0,1,5.42-1.43,19.31,19.31,0,0,1,5.63-.85,20.51,20.51,0,0,1,6.18,1c6,.82,11.93,2.78,19.1,6.3,11.4,3.9,20,9.64,26.22,17.54,2.22,2.81,4.34,5.89,3.78,9.86a10.33,10.33,0,0,1-3.5,6.16c.41.88.88,1.79,1.39,2.75,2.48,4.7,5.87,11.13,2.8,19.13-1.33,4.05-4.11,6.74-7.81,7.6A20.38,20.38,0,0,1,443,202.23q-.84,0-1.68,0a20.15,20.15,0,0,1-10.46,9.87l-5.78,2.55-.58,1.44.08,2.9c2,4,.53,7.94-.28,9.93-.19.86-.35,1.77-.52,2.73-.57,3.29-1.22,7-3.47,10.66l-1.43,2.31-2.66.58A46.31,46.31,0,0,1,406.39,246.17Z"/><path class="cls-3" d="M450.23,167.65c-2.1,2.23.33,3.59,1.07,5.2,2.52,5.47,6.69,10.53,4,17.2-1.71-2.1-2.43-4.88-4.56-6.7-3.6-5-3.94,1.21-5.93,1.72-1.42-.43-1.57-1.63-1.74-2.82-.05-1-.11-2.13.54-2.79,4-4.05.77-5.67-2.38-7.35a9,9,0,0,0-3.26-6.38c-4.74-4.06-8.11-9.8-14.58-11.73-.42-.13-.51-.8-.39-1.32.68-1.19,3.14-.76,2.79-2.69-.22-1.21-1.82-1-2.81-1.35a59.59,59.59,0,0,1-12.88-11.93c6.43.79,12.34,3.11,18.08,6,6.81,6.55,13.4,13.31,20,20C449.51,164,451.68,165.17,450.23,167.65Z"/><path class="cls-4" d="M423.28,152.55c8.11,2.52,12.19,9.92,18.21,15,2.05,1.72,1.29,2.95-.27,4.29.16,2.18-1.7,2.05-3,2.61-3.15.09-4.24-2.82-6.29-4.33-.55-2.13-1-4.34-3.87-4.49-6.12-5.5-11.7-11.56-17.56-17.33-2.11-4.76-7.19-7.09-9.57-11.63a13.21,13.21,0,0,1,9.17.06c5.47,2.47,8.35,8,13.25,11.15C423.77,149.43,424.22,151,423.28,152.55Z"/><path class="cls-5" d="M411.15,147.76a182.88,182.88,0,0,1,17.14,17.07c.42,2.3,1.93,3.75,3.8,4.93,3.12-.27,3.38,3.77,6.13,4.05,3.63,1.45,4,5.28,5.94,8,.1,1.1-.13,2.33,1.16,3,1.07-.82,1.85-.26,2.58.53,1.07,2.8,4.86,4.52,3.33,8.36-3,2.19-6.52,2.23-10,2.11a1,1,0,0,1,0-1.19c2.92-1.45,1.21-2.54-.29-3.65-.07-3.18-2.43-3.54-4.79-3.9a27.56,27.56,0,0,0-8.75-14.13c-6.21-5.56-12-11.61-17.72-17.66a11.55,11.55,0,0,1-2.91-4.63,3.73,3.73,0,0,1,1.53-3.32A2.72,2.72,0,0,1,411.15,147.76Z"/><path class="cls-6" d="M397.05,194.91c-4.3-.37-8.61-.71-12.91-1.11-7.16-.66-9.56-5.08-6.09-11.33a23.6,23.6,0,0,1,7.64-8.81c2.74-.86,4,.39,4.19,3,0,1.17-1,2-1.13,3.16.64,1.76,2.31,1.57,3.69,1.93,3.88.9,5.61,4.1,7.57,7.06a5.77,5.77,0,0,1,.74,1.21,4.56,4.56,0,0,1,0,3.48,3.27,3.27,0,0,1-3,1.44Z"/><path class="cls-7" d="M400.13,193.85V190c.4-1,1.62-1.06,2.3-2.08-1.64-.15-2.31,1-3.15,1.87-2.12-2.65-3.24-6.33-7.24-7-.31-1,.22-2.2-.63-3.1-.71-.7-1.79-1-2.31-1.89.2-2.47-.86-3.89-3.4-4.1,1.8-1.53,2.71-2.87.1-4.72-2-1.39-3.63-3.31-3.76-6-.74-3,.94-2.85,2.43-1.55,3.68,3.2,7.64,6.19,10,10.65-.83,3.15,2.2.68,2.74,1.84a11,11,0,0,1,1.24.36c1.4.6,3,.44,4.4,1a3.62,3.62,0,0,1,1.1.85,9.64,9.64,0,0,1,.83,1.18c2.67,3.95,5.55,7.77,8.07,11.82,3.34,5.36,2.55,6.86-3.71,7.06-.82,0-1.65,0-2.47,0a20.06,20.06,0,0,1-2.19-.1,8.51,8.51,0,0,1-2.12-.44A4,4,0,0,1,400.13,193.85Z"/><path class="cls-8" d="M406.9,150.62c8.06,8.27,16.09,16.55,24.48,24.5,2.82,2.68,6.69,6.69,5,12.06a1.37,1.37,0,0,1-.38,1.89c-5.21-2.68-6.62-8.1-9.18-12.67-.53-.31,1.23-.92,0-.89a6.72,6.72,0,0,1-2.89-.22c-11.11-9.82-21.05-20.81-31.06-31.72-.77-.83-1.6-1.78-.89-3.1a7.71,7.71,0,0,1,5.12-2.77,33.74,33.74,0,0,1,6.51,8.55C403.57,148.56,405.64,149.29,406.9,150.62Z"/><path class="cls-9" d="M436.46,197a13.34,13.34,0,0,1-8.14,9.27l-8.17,3.6c-4.7,1.19-9.15,3.14-13.78,4.53-1.48.45-2.95,1.62-4.58.36-.31-7.08-.32-7.14,6.36-9.65,6.16-2.32,12.58-4,18.48-7a31.61,31.61,0,0,1,3.74-1.37C432.41,196.53,434.51,195,436.46,197Z"/><path class="cls-10" d="M394.11,172.81q-5-5.22-10-10.44c-1-1.07-1.91-1.51-2.12.56-1.92-3.66.07-6.84,1.26-10.11,2.78-.25,3.76,2.1,5.28,3.67a8.6,8.6,0,0,1,.6,1.17c.71,2.08,2.33,2.87,4.36,3.09,2.65.54,4.15,2.51,5.68,4.49a24.75,24.75,0,0,0,6.73,6.49c1.27.77,2.93,1,3.67,2.51a2,2,0,0,1-.81,2.16,4.92,4.92,0,0,1-5.67-.58h0c-1.5-1.23-3.52.17-5-1h0C397,173.81,394.77,174.83,394.11,172.81Z"/><path class="cls-11" d="M392,140.47c8.24,9.94,17.31,19.09,26.48,28.16,2,2,3.81,4.11,5.72,6.17a2.46,2.46,0,0,1-.62,1.22l-.58.39a5.36,5.36,0,0,1-1.36.36,5.17,5.17,0,0,1-2.76-.51c-10.43-8.87-18.6-19.95-28.59-29.25-1.85-1.73-1.59-3.47,0-5.19Z"/><path class="cls-12" d="M450.23,167.65c-.25-2.62-2.58-3.69-4.05-5.39-5.8-6.71-13.5-11.67-18-19.59,9.26,3.11,17.52,7.8,23.66,15.58C455.57,163,455.25,164.05,450.23,167.65Z"/><path class="cls-13" d="M396.87,239.06a7.1,7.1,0,0,1,1.37-5.14c3.43-3.44,15.69-7.72,20-7-1,4-1.05,8.31-3.32,12A74.07,74.07,0,0,1,396.87,239.06Z"/><path class="cls-14" d="M427.19,199.13c-6.28,3.69-13.35,5.38-20.16,7.64-4.49,1.5-5.54,4-4.73,8.11,1.25,1.38,1.1,3,.74,4.63-.32.79-.75,1.44-1.74,1.39.19-6.36.6-12.74-1.42-18.93.72-1.95,2.57-2.23,4.18-2.85,1.88-.44,3.72-1.14,5.7-.88,4.2,3.41,5-1.05,6.84-3a3.26,3.26,0,0,1,2.85.29C421.13,198.69,425.33,196.4,427.19,199.13Z"/><path class="cls-15" d="M388.17,157.92l-.14-1.13c-.33-.75.13-1.2.62-1.63,1.48-1.43-.06-2.26-.68-3.22-.93-1.42-2.74-2.43-2-4.57a4.86,4.86,0,0,1,2-3c5.71,6.58,11.35,13.22,17.41,19.49,1.4,1.45,2.69,3,1.85,5.24a8.38,8.38,0,0,1-2,3.72,27.25,27.25,0,0,1-7.24-7.28c-1.22-1.75-2.46-3.55-4.9-3.76C393.74,157.56,390.13,158.78,388.17,157.92Z"/><path class="cls-16" d="M418.23,226.94l-20,7c.69-2.33,1.39-4.66,2.08-7,5.49-3.51,11.18-6.41,18-6.06C420,222.91,419.06,224.92,418.23,226.94Z"/><path class="cls-17" d="M406.16,168.87c1.18-2-.46-2.94-1.55-4.11-4.36-4.68-8.78-9.32-13-14.1-1.61-1.81-3.24-3.73-3.63-6.3a4.52,4.52,0,0,1,2.37-2.54c-.74,2.12-.17,3.57,1.5,5.27,9.24,9.46,18.26,19.12,27.36,28.71a2,2,0,0,1-1.94.52c-2.75-1.31-4.21-4.16-6.81-5.64C409.07,169.91,407.31,170.1,406.16,168.87Z"/><path class="cls-18" d="M427.19,175.83c3.35,4.09,5,9.38,9,13,1.87.36,3.11,1.71,4.5,2.82.61,1,1.27,2,.57,3.19,0,.31,0,.63,0,.94l-3.9.31a3.36,3.36,0,0,1-2.08.07c-2.57-1.43-3.48-4.2-5.09-6.39-1.37-1.86-2.65-3.71-5.23-3.9-.9-.28-1.75-.62-2-1.69.24-1.2,1.84-1.34,2-2.62-.78-1.25-2.6.32-3.29-1.18-.76-2,.2-3.32,1.53-4.58h0A3.92,3.92,0,0,1,427.19,175.83Z"/><path class="cls-19" d="M402.17,219.92c0-1.68.08-3.36.13-5,4.93-2.74,10.49-3.77,15.69-5.78a1.79,1.79,0,0,1,2.16.72l-2,5.09C413.62,219.19,408.51,221.54,402.17,219.92Z"/><path class="cls-20" d="M402.17,219.92c5.7-.42,10.82-2.71,15.94-5,.06,2,.12,4,.17,6l-18,6.06,1-6Z"/><path class="cls-21" d="M403.11,146.61c-2.09-2.91-5.23-5.12-6-8.91,1.05-1.23,2.51-.9,3.85-1,4,3.13,8.33,6,10.19,11.11h-2.81C406.66,147.11,404.62,148.06,403.11,146.61Z"/><path class="cls-22" d="M451.23,193.69c0-3.33-3.72-4.74-4-7.91a5.21,5.21,0,0,1,4.09-2.94c2.74,1.62,4.36,3.87,4,7.21C454.7,192.1,453.55,193.55,451.23,193.69Z"/><path class="cls-23" d="M404.29,200,399.88,202c-1.58-2.1-2.11-4.62-2.83-7.06l.25-.42a15.82,15.82,0,0,1,3.44-.06c1.63,1,1.85,3,3,4.39A3.57,3.57,0,0,1,404.29,200Z"/><path class="cls-24" d="M385.93,147.37c1.64,2.2,3.4,4.33,4.89,6.63,1.75,2.69-.94,1.37-1.73,1.77-2.6-1.16-4.46-2.9-4.69-5.93Z"/><path class="cls-25" d="M396.87,239.06l18-.14C408.91,240.22,402.89,239.85,396.87,239.06Z"/><path class="cls-26" d="M384.4,149.84l4.69,5.93-1.06,1-4.74-4Z"/><path class="cls-14" d="M435.19,195.84l2.11.27-.84.84-6.31.9c-.44-1.12.19-1.82,1-2.46a4.52,4.52,0,0,1,1.38-.43A4.22,4.22,0,0,1,435.19,195.84Z"/><path class="cls-27" d="M444.16,181.83c-3.26-1.72-3.69-5.54-5.94-8l3-2c2.18-.32,3.64.53,5,2.33s2.62,3.17-.39,4.39C444.33,179.16,444.2,180.47,444.16,181.83Z"/><path class="cls-28" d="M451.34,182.84a6.31,6.31,0,0,1-4.09,2.94l-1.93-1c-1-2.76.34-4.44,2.8-5.12S451,181.05,451.34,182.84Z"/><path class="cls-29" d="M423.28,152.55c-.69-1.58-1.41-3.16.1-4.69,2.11,0,4.86-.57,4.54,2.76C427.65,153.41,425.32,153.05,423.28,152.55Z"/><path class="cls-30" d="M432.09,169.76c-4.24.66-5.36-1.1-3.8-4.93C432,164.58,434.17,165.54,432.09,169.76Z"/><path class="cls-31" d="M440.11,191.65c-2,0-2.89-1.5-4-2.8.09-.56.17-1.11.25-1.67,1.53-.24,2.74-2.31,4.38-1.23,1.9,1.25.35,3.23.48,4.88A1,1,0,0,1,440.11,191.65Z"/><path class="cls-32" d="M403.11,146.61c1.71.53,4.32-3,5.23,1.15a3.77,3.77,0,0,1-1.44,2.86C404.56,150.29,401.75,150.42,403.11,146.61Z"/><path class="cls-33" d="M440.11,191.65l1.15-.82c1.68,0,3.68.08,3.7,2.24,0,2.65-2.34,1.46-3.74,1.79Z"/><path class="cls-34" d="M392.1,178.66c2.72,1.41,1.6,2.76-.07,4.09-1.95-.19-4.16.13-4.79-2.54C388.45,178.4,390.2,178.32,392.1,178.66Z"/><path class="cls-35" d="M399.27,189.79c-.93-3.1,1.1-3.73,3.42-3.93,1.28-.11,2.41.6,2.21,2-.44,3.06-3.13,1.52-4.78,2.12A1.81,1.81,0,0,0,399.27,189.79Z"/><path class="cls-36" d="M392.1,178.66l-4.86,1.55a1.9,1.9,0,0,1,1.85-2.45C390.13,177.93,391.29,177.72,392.1,178.66Z"/><path class="cls-37" d="M400.93,195l-3.63-.46c.8-.83,1.85-.58,2.83-.64a2.16,2.16,0,0,1,2,.9A.77.77,0,0,1,400.93,195Z"/><path class="cls-38" d="M406.07,194.9c2.51-.49,6.17,1.32,7.33-1.07s-2.09-4.49-3.45-6.69c-2.18-3.5-4.53-6.89-6.81-10.33,2-1.06,4.2-.1,6.26-.61a2.91,2.91,0,0,1,1.52.1c2.59,2.66,5.32,5.25,4.71,9.5-.16,1.85-.21,3.65,2.11,4.27,4.4.17,5.29,1.38,4,5.4-2.17.78-4.76-1.35-6.7,1-1.85.92-3.82.8-5.79.7C407.84,196.85,406.19,196.93,406.07,194.9Z"/><path class="cls-23" d="M406.07,194.9c1,1,2.43.69,3.65,1,.41,1,1.28,1.89.23,3L404.29,200l-.13-.14a5.3,5.3,0,0,1,.25-4.72Z"/><path class="cls-39" d="M410.14,176.81h-7c0-.33,0-.66,0-1h6a.73.73,0,1,1,1,1Z"/><path class="cls-40" d="M394.11,172.81l4,2c-1.59,0-3.24.17-4.59-.84S393.51,173,394.11,172.81Z"/><path class="cls-41" d="M398.12,174.81c1.69.25,3.61-.67,5,1C401.45,175.57,399.52,176.5,398.12,174.81Z"/><path class="cls-42" d="M427.19,175.83h-4l1-1c1.25,0,2.73-.33,3.71.21S427.58,175.62,427.19,175.83Z"/><path class="cls-43" d="M410.15,175.83l-1,0-.13-2.08c-.28-1.88.74-3,2.22-3.92a23.77,23.77,0,0,1,5.93,6C414.83,177.89,412.49,177.08,410.15,175.83Z"/><path class="cls-44" d="M388.17,157.92l1.82-.6c1.51-.51,3.17-1.41,4.36.29s-.26,2.94-1.28,4.16C390.34,161.88,388.37,161,388.17,157.92Z"/><path class="cls-45" d="M411.24,169.81c0,1.73-1.08,2.84-2.22,3.92a5.94,5.94,0,0,1-3.81-.92,3.3,3.3,0,0,1,1-3.94C407.9,168.92,409.79,168.18,411.24,169.81Z"/><path class="cls-46" d="M431.09,196.13l-1.89-.25c-5.71-5.53-10.55-11.63-12.83-19.41,1.9-.53,4,.48,5.8-.64h1c-.33,1.69-.65,3.39-1,5.08.92.81,1.75,1.65,1,3a2.26,2.26,0,0,0,2,1c3,3.24,6.18,6.33,7,10.94Z"/><path class="cls-47" d="M422.17,175.83c-1.76,1.8-4,.66-6,1-1.67,1.53-3.34,1.23-5,0l-1,0c0-.33,0-.66,0-1l7,0h2Z"/><path class="cls-48" d="M416.45,196l-1.25-.33c2.19-1.51,4.65-.46,7-.76q.36.3.24.6c-.08.2-.16.31-.24.31l-3.08.18Z"/><path class="cls-49" d="M432.2,195.86c-2.44-3.59-5.56-6.73-7-10.94,4.2-.6,4.9,3.2,6.71,5.48a46.59,46.59,0,0,1,3.3,5.44Z"/><path class="cls-50" d="M423.16,183.91c-.32-1-.64-2-1-3,1.2-.67,1.89-2.65,3.75-1.64a2.17,2.17,0,0,1,1.05,2.58C426.5,183.92,425,184.3,423.16,183.91Z"/><path class="cls-51" d="M422.17,195.78v-.91c-.48-3-1.82-4.6-5.05-3.05-.38-2.22,1.1-5.37-2.89-5.81,2.12-4.11-3.08-5.77-3.07-9.18h5l13,19A19.32,19.32,0,0,1,422.17,195.78Z"/><path class="cls-52" d="M414.23,186c1.35.38,2.81-2,4-.08,1.28,2.12.39,4.13-1.08,5.89C414.38,190.77,414.19,188.45,414.23,186Z"/><path class="cls-1" d="M85.71,382.54a78.39,78.39,0,0,1-10.36-.78l-4.75-.62-.73-4.74a13.12,13.12,0,0,1,1.8-8.74l1.73-5.79.84-5.21,0-1.14c.17-5.12.33-10-.91-14.38a19.9,19.9,0,0,1-1.86-3.85l-8.64-.75c-7.7-.71-10.9-4.68-12.11-7s-2.69-7.13,1-13.81A33.94,33.94,0,0,1,58,307.41,13.27,13.27,0,0,1,55.1,301c-2.08-5.16-.22-9.75.93-12.58.2-.47.39-.95.57-1.42L58,283.39l1.36-2.21a10.92,10.92,0,0,1,2.76-4.39,10.88,10.88,0,0,1,4-3.92l.83-.67a14,14,0,0,1,6.78-4.09,10.49,10.49,0,0,1,5.42-1.43,19.31,19.31,0,0,1,5.63-.85,20.56,20.56,0,0,1,6.18,1c6,.82,11.93,2.78,19.09,6.3,11.41,3.9,20,9.64,26.22,17.54,2.23,2.81,4.35,5.89,3.79,9.86a10.39,10.39,0,0,1-3.51,6.16c.41.88.89,1.79,1.4,2.75,2.48,4.7,5.87,11.13,2.8,19.13a10.79,10.79,0,0,1-7.81,7.6,20.38,20.38,0,0,1-10.51,2.44l-1.69,0a20.13,20.13,0,0,1-10.45,9.87L104.43,351l-.57,1.44.08,2.9c2,4,.53,7.94-.29,9.93-.19.86-.34,1.77-.51,2.73-.57,3.29-1.22,7-3.47,10.66L98.24,381l-2.66.58A46.38,46.38,0,0,1,85.71,382.54Z"/><path class="cls-2" d="M80.38,377.21A79.93,79.93,0,0,1,70,376.44l-4.76-.63-.73-4.73a13.1,13.1,0,0,1,1.8-8.74l1.73-5.8.84-5.21,0-1.14c.17-5.12.33-10-.91-14.38A18.77,18.77,0,0,1,66.19,332c-2.89-.24-5.77-.48-8.64-.75-7.71-.71-10.9-4.68-12.12-7s-2.69-7.13,1-13.82a33.72,33.72,0,0,1,6.25-8.32,13.23,13.23,0,0,1-2.92-6.4c-2.09-5.17-.22-9.76.93-12.58.19-.48.39-.95.56-1.43l1.35-3.62,1.36-2.2a11,11,0,0,1,2.76-4.4,11,11,0,0,1,4-3.92l.83-.66a14.06,14.06,0,0,1,6.78-4.1,10.59,10.59,0,0,1,5.42-1.43,19.3,19.3,0,0,1,5.63-.84,20.2,20.2,0,0,1,6.18,1c6,.81,11.93,2.77,19.1,6.29,11.4,3.9,20,9.64,26.22,17.54,2.22,2.82,4.34,5.9,3.78,9.86a10.38,10.38,0,0,1-3.5,6.17c.41.87.88,1.78,1.39,2.74,2.48,4.7,5.87,11.13,2.8,19.13-1.33,4.06-4.11,6.74-7.81,7.6A20.38,20.38,0,0,1,117,333.27l-1.68,0a20.11,20.11,0,0,1-10.46,9.87l-5.78,2.55-.58,1.44.08,2.9c2,4,.53,7.94-.28,9.94-.19.85-.35,1.77-.52,2.73-.57,3.28-1.22,7-3.47,10.66l-1.43,2.31-2.66.57A46.31,46.31,0,0,1,80.38,377.21Z"/><path class="cls-3" d="M124.22,298.7c-2.1,2.22.33,3.59,1.07,5.2,2.52,5.47,6.69,10.52,4,17.2-1.71-2.11-2.43-4.89-4.56-6.71-3.6-5-3.94,1.21-5.93,1.72-1.42-.43-1.57-1.63-1.74-2.82,0-1-.11-2.13.54-2.78,4-4.06.77-5.67-2.38-7.35a9,9,0,0,0-3.26-6.39c-4.74-4-8.11-9.8-14.58-11.73-.42-.13-.51-.8-.39-1.32.68-1.19,3.14-.76,2.79-2.69-.22-1.21-1.82-1-2.81-1.34a59.59,59.59,0,0,1-12.88-11.93c6.43.78,12.34,3.1,18.08,5.95,6.81,6.55,13.4,13.31,20,20C123.5,295,125.67,296.21,124.22,298.7Z"/><path class="cls-4" d="M97.27,283.59c8.11,2.52,12.19,9.92,18.21,15,2,1.72,1.29,2.95-.27,4.29.16,2.19-1.7,2.05-3,2.61-3.15.09-4.24-2.82-6.29-4.33-.55-2.13-1-4.34-3.87-4.49-6.12-5.5-11.7-11.55-17.56-17.33-2.11-4.76-7.19-7.09-9.57-11.63a13.15,13.15,0,0,1,9.17.07c5.47,2.46,8.35,8,13.25,11.14C97.76,280.47,98.21,282.05,97.27,283.59Z"/><path class="cls-5" d="M85.14,278.8a181.79,181.79,0,0,1,17.14,17.08,7.37,7.37,0,0,0,3.8,4.92c3.12-.27,3.38,3.77,6.13,4.06,3.63,1.45,4.05,5.28,5.94,8,.1,1.1-.13,2.34,1.16,3,1.07-.82,1.85-.26,2.58.54,1.07,2.8,4.86,4.52,3.33,8.35-3,2.19-6.52,2.23-10,2.11a1,1,0,0,1,0-1.19c2.92-1.44,1.21-2.54-.29-3.65-.07-3.17-2.43-3.53-4.79-3.9A27.53,27.53,0,0,0,101.33,304c-6.21-5.56-12-11.61-17.72-17.67a11.58,11.58,0,0,1-2.91-4.62,3.71,3.71,0,0,1,1.53-3.32A2.72,2.72,0,0,1,85.14,278.8Z"/><path class="cls-6" d="M71,326c-4.3-.37-8.61-.72-12.91-1.12-7.16-.65-9.56-5.07-6.09-11.32a23.55,23.55,0,0,1,7.64-8.82c2.74-.85,4,.39,4.19,3,0,1.18-1,2-1.13,3.16.64,1.76,2.31,1.58,3.69,1.93,3.88.91,5.61,4.1,7.57,7.06a6.11,6.11,0,0,1,.74,1.22,4.54,4.54,0,0,1,0,3.47,3.3,3.3,0,0,1-3,1.45Z"/><path class="cls-7" d="M74.12,324.89v-3.84c.4-1,1.62-1.06,2.3-2.09-1.64-.15-2.31,1-3.15,1.88-2.12-2.66-3.24-6.34-7.24-7-.31-1,.22-2.19-.63-3.09-.71-.71-1.79-1-2.31-1.89.2-2.47-.86-3.9-3.4-4.11,1.8-1.53,2.71-2.86.1-4.71-2-1.4-3.64-3.31-3.76-6-.74-3,.94-2.84,2.43-1.55,3.68,3.2,7.64,6.2,10,10.66-.83,3.14,2.2.67,2.74,1.83a9.26,9.26,0,0,1,1.24.37c1.4.6,3,.44,4.4,1a3.78,3.78,0,0,1,1.1.85,9.75,9.75,0,0,1,.83,1.19c2.67,3.95,5.55,7.76,8.07,11.81,3.34,5.36,2.55,6.86-3.71,7.06-.82,0-1.65,0-2.47,0s-1.46,0-2.19-.09a8.53,8.53,0,0,1-2.12-.45A3.88,3.88,0,0,1,74.12,324.89Z"/><path class="cls-8" d="M80.89,281.66C89,289.93,97,298.21,105.37,306.17c2.82,2.67,6.69,6.68,5,12.05a1.37,1.37,0,0,1-.38,1.89c-5.21-2.67-6.62-8.1-9.18-12.67-.53-.3,1.23-.91,0-.89a6.72,6.72,0,0,1-2.89-.22c-11.11-9.82-21.05-20.81-31.06-31.71-.77-.84-1.6-1.79-.89-3.1a7.68,7.68,0,0,1,5.12-2.78,34.1,34.1,0,0,1,6.51,8.55C77.55,279.61,79.62,280.33,80.89,281.66Z"/><path class="cls-9" d="M110.45,328a13.34,13.34,0,0,1-8.14,9.26c-2.72,1.21-5.45,2.4-8.17,3.6-4.7,1.19-9.15,3.14-13.78,4.54-1.48.44-3,1.62-4.58.35-.31-7.08-.32-7.14,6.36-9.65,6.16-2.32,12.58-4,18.48-7a31.56,31.56,0,0,1,3.74-1.36C106.4,327.58,108.5,326.07,110.45,328Z"/><path class="cls-10" d="M68.1,303.85q-5-5.22-10-10.44c-1-1.07-1.91-1.51-2.12.56-1.92-3.66.06-6.83,1.26-10.1,2.78-.25,3.76,2.1,5.28,3.66a8.6,8.6,0,0,1,.6,1.17c.71,2.08,2.33,2.87,4.36,3.09,2.65.54,4.15,2.51,5.68,4.49a24.79,24.79,0,0,0,6.73,6.5c1.27.76,2.93,1,3.67,2.5a2,2,0,0,1-.81,2.17,4.94,4.94,0,0,1-5.67-.59h0c-1.5-1.23-3.52.18-5-1h0C71,304.85,68.76,305.87,68.1,303.85Z"/><path class="cls-11" d="M66,271.52c8.24,9.93,17.31,19.08,26.48,28.15,2,2,3.81,4.11,5.72,6.18a2.47,2.47,0,0,1-.62,1.21l-.58.39a5,5,0,0,1-1.36.36,5.26,5.26,0,0,1-2.76-.5c-10.43-8.87-18.6-19.95-28.59-29.26-1.85-1.72-1.59-3.47,0-5.19Z"/><path class="cls-12" d="M124.22,298.7c-.25-2.63-2.58-3.7-4-5.4-5.8-6.7-13.5-11.66-18-19.59,9.26,3.11,17.52,7.8,23.66,15.58C129.56,294,129.24,295.09,124.22,298.7Z"/><path class="cls-13" d="M70.86,370.1A7.12,7.12,0,0,1,72.23,365c3.43-3.43,15.69-7.71,20-7-1,4-1,8.31-3.32,12A74.07,74.07,0,0,1,70.86,370.1Z"/><path class="cls-14" d="M101.18,330.17c-6.28,3.7-13.35,5.38-20.16,7.65-4.49,1.49-5.54,4-4.73,8.1,1.25,1.39,1.1,3,.74,4.63-.32.79-.75,1.44-1.74,1.4.19-6.37.6-12.74-1.42-18.94.72-1.94,2.57-2.22,4.18-2.85,1.88-.43,3.72-1.14,5.7-.88,4.2,3.42,5-1,6.84-3a3.26,3.26,0,0,1,2.85.3C95.12,329.73,99.32,327.44,101.18,330.17Z"/><path class="cls-15" d="M62.16,289,62,287.84c-.33-.76.13-1.2.62-1.64,1.48-1.43-.06-2.25-.68-3.22-.93-1.42-2.74-2.43-2.05-4.57a4.92,4.92,0,0,1,2-3c5.71,6.58,11.35,13.22,17.41,19.49,1.4,1.46,2.69,3,1.85,5.24a8.32,8.32,0,0,1-2,3.72A27.21,27.21,0,0,1,72,296.58c-1.22-1.76-2.46-3.56-4.9-3.77C67.73,288.6,64.12,289.83,62.16,289Z"/><path class="cls-16" d="M92.22,358l-20,7c.69-2.33,1.39-4.66,2.08-7,5.49-3.5,11.18-6.41,18-6.06C94,354,93.05,356,92.22,358Z"/><path class="cls-17" d="M80.15,299.91c1.18-2-.46-2.94-1.55-4.1-4.36-4.69-8.78-9.33-13-14.1C64,279.9,62.32,278,61.93,275.4a4.55,4.55,0,0,1,2.37-2.54c-.74,2.12-.17,3.57,1.5,5.28,9.24,9.45,18.26,19.12,27.36,28.71a2,2,0,0,1-1.94.51c-2.75-1.3-4.21-4.16-6.81-5.64C83.06,301,81.3,301.14,80.15,299.91Z"/><path class="cls-18" d="M101.18,306.87c3.35,4.1,5,9.38,9,13,1.87.35,3.11,1.7,4.5,2.82.61,1,1.27,2,.57,3.18,0,.31,0,.63,0,.94l-3.9.32a3.44,3.44,0,0,1-2.08.06c-2.57-1.43-3.48-4.19-5.09-6.38-1.37-1.87-2.65-3.71-5.23-3.91-.9-.28-1.75-.62-2-1.69.24-1.19,1.84-1.33,2-2.62-.78-1.24-2.6.32-3.29-1.18-.76-1.95.2-3.32,1.53-4.57h0A3.92,3.92,0,0,1,101.18,306.87Z"/><path class="cls-19" d="M76.16,351c0-1.68.08-3.37.13-5.05,4.93-2.74,10.49-3.77,15.69-5.78a1.8,1.8,0,0,1,2.16.72l-2,5.1C87.61,350.24,82.5,352.58,76.16,351Z"/><path class="cls-20" d="M76.16,351c5.7-.42,10.82-2.72,15.94-5,.06,2,.12,4,.17,6l-18,6.06,1-6Z"/><path class="cls-21" d="M77.1,277.65c-2.09-2.91-5.23-5.11-6-8.91,1.05-1.23,2.51-.9,3.85-1.05,4,3.13,8.33,6,10.19,11.11H82.33C80.65,278.16,78.61,279.11,77.1,277.65Z"/><path class="cls-22" d="M125.22,324.73c0-3.32-3.72-4.74-4-7.91a5.21,5.21,0,0,1,4.09-2.94c2.74,1.62,4.36,3.87,4,7.22C128.69,323.14,127.54,324.59,125.22,324.73Z"/><path class="cls-23" d="M78.28,331.09,73.87,333c-1.58-2.1-2.11-4.61-2.83-7.05l.25-.43a16.48,16.48,0,0,1,3.44-.06c1.63,1,1.85,3,3,4.39A3.71,3.71,0,0,1,78.28,331.09Z"/><path class="cls-24" d="M59.91,278.41c1.65,2.21,3.41,4.33,4.9,6.63,1.75,2.69-.94,1.37-1.73,1.77-2.6-1.15-4.46-2.9-4.69-5.93Z"/><path class="cls-25" d="M70.86,370.1l18-.14C82.9,371.26,76.88,370.89,70.86,370.1Z"/><path class="cls-26" d="M58.39,280.88q2.34,3,4.69,5.93l-1.06,1-4.74-4Z"/><path class="cls-14" d="M109.18,326.89c.7.09,1.41.17,2.11.27l-.84.84-6.31.89c-.44-1.12.19-1.82,1-2.46a4.52,4.52,0,0,1,1.38-.43A4.23,4.23,0,0,1,109.18,326.89Z"/><path class="cls-27" d="M118.15,312.87c-3.26-1.72-3.69-5.54-5.94-8l3-2c2.18-.31,3.64.54,5,2.33s2.62,3.17-.39,4.4C118.32,310.2,118.19,311.51,118.15,312.87Z"/><path class="cls-28" d="M125.33,313.88a6.28,6.28,0,0,1-4.09,2.94l-1.93-1c-1-2.76.34-4.43,2.8-5.11S125,312.09,125.33,313.88Z"/><path class="cls-29" d="M97.27,283.59c-.69-1.58-1.41-3.16.1-4.69,2.11,0,4.86-.57,4.54,2.77C101.64,284.45,99.31,284.1,97.27,283.59Z"/><path class="cls-30" d="M106.08,300.8c-4.24.66-5.36-1.1-3.8-4.92C106,295.63,108.16,296.58,106.08,300.8Z"/><path class="cls-31" d="M114.1,322.7c-2,0-2.89-1.51-4-2.8.09-.56.17-1.12.25-1.68,1.53-.24,2.74-2.31,4.38-1.23,1.9,1.25.35,3.24.48,4.89A1,1,0,0,1,114.1,322.7Z"/><path class="cls-32" d="M77.1,277.65c1.71.53,4.32-3,5.23,1.15a3.77,3.77,0,0,1-1.44,2.86C78.55,281.34,75.74,281.46,77.1,277.65Z"/><path class="cls-33" d="M114.1,322.7l1.15-.82c1.68,0,3.68.07,3.7,2.24,0,2.64-2.34,1.46-3.74,1.78Z"/><path class="cls-34" d="M66.09,309.7c2.72,1.41,1.6,2.76-.07,4.09-2-.18-4.16.13-4.79-2.54C62.44,309.44,64.19,309.36,66.09,309.7Z"/><path class="cls-35" d="M73.26,320.84c-.93-3.11,1.1-3.74,3.42-3.94,1.28-.11,2.41.6,2.21,2-.44,3.06-3.13,1.52-4.78,2.13A1.6,1.6,0,0,0,73.26,320.84Z"/><path class="cls-36" d="M66.09,309.7l-4.86,1.55a1.89,1.89,0,0,1,1.85-2.44C64.12,309,65.28,308.76,66.09,309.7Z"/><path class="cls-37" d="M74.92,326l-3.63-.47c.8-.82,1.85-.57,2.83-.64a2.17,2.17,0,0,1,2,.91A.78.78,0,0,1,74.92,326Z"/><path class="cls-38" d="M80.06,325.94c2.51-.49,6.17,1.32,7.33-1.06s-2.09-4.5-3.45-6.69c-2.18-3.5-4.53-6.9-6.81-10.33,2-1.06,4.2-.1,6.26-.62a2.91,2.91,0,0,1,1.52.1c2.59,2.66,5.32,5.26,4.71,9.5-.16,1.85-.21,3.65,2.11,4.27,4.4.17,5.29,1.38,4,5.4-2.17.78-4.76-1.35-6.7,1-1.85.93-3.82.8-5.79.7C81.83,327.9,80.18,328,80.06,325.94Z"/><path class="cls-23" d="M80.06,325.94c1,1.06,2.43.69,3.65,1,.41,1,1.28,1.89.23,3l-5.66,1.17-.13-.14a5.32,5.32,0,0,1,.25-4.73Z"/><path class="cls-39" d="M84.13,307.86h-7c0-.34,0-.67,0-1h6a.73.73,0,1,1,1,1Z"/><path class="cls-40" d="M68.1,303.85l4,2c-1.59,0-3.24.17-4.59-.84S67.5,304.05,68.1,303.85Z"/><path class="cls-41" d="M72.11,305.86c1.69.25,3.61-.67,5,1C75.44,306.61,73.51,307.54,72.11,305.86Z"/><path class="cls-42" d="M101.18,306.87h-4l1-1c1.25,0,2.73-.33,3.71.2S101.57,306.67,101.18,306.87Z"/><path class="cls-43" d="M84.14,306.87l-1,0L83,304.77c-.28-1.88.74-3,2.22-3.92a23.65,23.65,0,0,1,5.93,6C88.82,308.94,86.48,308.13,84.14,306.87Z"/><path class="cls-44" d="M62.16,289c.6-.2,1.22-.39,1.82-.6,1.51-.51,3.17-1.41,4.36.29s-.26,3-1.28,4.16C64.33,292.93,62.36,292.06,62.16,289Z"/><path class="cls-45" d="M85.23,300.85c0,1.74-1.08,2.85-2.22,3.92a5.87,5.87,0,0,1-3.81-.92,3.3,3.3,0,0,1,1-3.94C81.89,300,83.78,299.23,85.23,300.85Z"/><path class="cls-46" d="M105.08,327.17l-1.89-.25c-5.71-5.52-10.55-11.62-12.83-19.41,1.9-.52,4,.49,5.8-.64h1q-.49,2.53-1,5.07c.92.81,1.75,1.66,1,3a2.29,2.29,0,0,0,2,1c3,3.23,6.18,6.32,7,10.93Z"/><path class="cls-47" d="M96.16,306.87c-1.76,1.8-4,.66-6,1-1.67,1.52-3.34,1.23-5,0h-1c0-.33,0-.66,0-1l7,0h2Z"/><path class="cls-48" d="M90.44,327l-1.25-.32c2.19-1.52,4.65-.47,7-.77.24.2.32.4.24.61s-.16.3-.24.3l-3.08.19Z"/><path class="cls-49" d="M106.19,326.9c-2.44-3.58-5.56-6.73-7-10.94,4.2-.6,4.9,3.2,6.71,5.48a46.72,46.72,0,0,1,3.3,5.45Z"/><path class="cls-50" d="M97.15,315c-.32-1-.64-2-1-3,1.2-.67,1.89-2.65,3.75-1.64a2.17,2.17,0,0,1,1,2.58C100.49,315,99,315.34,97.15,315Z"/><path class="cls-51" d="M96.16,326.82v-.91c-.48-3-1.82-4.6-5-3-.38-2.23,1.1-5.38-2.89-5.82,2.12-4.1-3.08-5.77-3.07-9.18h5l13,19A19.1,19.1,0,0,1,96.16,326.82Z"/><path class="cls-52" d="M88.22,317.05c1.35.38,2.81-2,4-.07,1.28,2.12.39,4.12-1.08,5.89C88.37,321.81,88.18,319.49,88.22,317.05Z"/><path class="cls-1" d="M194.38,382.54a78.39,78.39,0,0,1-10.36-.78l-4.75-.62-.73-4.74a13.12,13.12,0,0,1,1.8-8.74l1.73-5.79.84-5.21,0-1.14c.17-5.12.33-10-.91-14.38a19.9,19.9,0,0,1-1.86-3.85l-8.64-.75c-7.7-.71-10.9-4.68-12.11-7s-2.69-7.13,1-13.81a33.94,33.94,0,0,1,6.25-8.33,13.27,13.27,0,0,1-2.93-6.4c-2.08-5.16-.22-9.75.93-12.58.2-.47.39-.95.57-1.42l1.35-3.62,1.36-2.21a23.29,23.29,0,0,1,6.74-8.31l.83-.67a14,14,0,0,1,6.78-4.09,10.49,10.49,0,0,1,5.42-1.43,19.31,19.31,0,0,1,5.63-.85,20.56,20.56,0,0,1,6.18,1c6,.82,11.93,2.78,19.09,6.3,11.41,3.9,20,9.64,26.22,17.54,2.23,2.81,4.35,5.89,3.79,9.86a10.39,10.39,0,0,1-3.51,6.16c.41.88.89,1.79,1.4,2.75,2.48,4.7,5.87,11.13,2.8,19.13a10.79,10.79,0,0,1-7.81,7.6A20.38,20.38,0,0,1,231,338.6l-1.69,0a20.13,20.13,0,0,1-10.45,9.87L213.1,351l-.57,1.44.08,2.9c2,4,.53,7.94-.29,9.93-.19.86-.34,1.77-.51,2.73-.57,3.29-1.22,7-3.47,10.66L206.91,381l-2.66.58A46.38,46.38,0,0,1,194.38,382.54Z"/><path class="cls-2" d="M189.05,377.21a79.93,79.93,0,0,1-10.35-.77l-4.76-.63-.73-4.73a13.1,13.1,0,0,1,1.8-8.74l1.73-5.8.84-5.21,0-1.14c.17-5.12.33-10-.91-14.38a18.77,18.77,0,0,1-1.85-3.85c-2.89-.24-5.77-.48-8.64-.75-7.71-.71-10.9-4.68-12.12-7s-2.69-7.13,1-13.82a33.72,33.72,0,0,1,6.25-8.32,13.23,13.23,0,0,1-2.92-6.4c-2.09-5.17-.22-9.76.93-12.58.19-.48.39-.95.56-1.43l1.35-3.62,1.36-2.2a11,11,0,0,1,2.76-4.4,11,11,0,0,1,4-3.92l.83-.66a14.06,14.06,0,0,1,6.78-4.1,10.59,10.59,0,0,1,5.42-1.43,19.3,19.3,0,0,1,5.63-.84,20.2,20.2,0,0,1,6.18,1c6,.81,11.93,2.77,19.1,6.29,11.4,3.9,20,9.64,26.22,17.54,2.22,2.82,4.34,5.9,3.78,9.86a10.38,10.38,0,0,1-3.5,6.17c.41.87.88,1.78,1.39,2.74,2.48,4.7,5.87,11.13,2.8,19.13-1.33,4.06-4.11,6.74-7.81,7.6a20.38,20.38,0,0,1-10.51,2.44l-1.68,0a20.11,20.11,0,0,1-10.46,9.87l-5.78,2.55-.58,1.44.08,2.9c2,4,.53,7.94-.28,9.94-.19.85-.35,1.77-.52,2.73-.57,3.28-1.22,7-3.47,10.66l-1.43,2.31-2.66.57A46.31,46.31,0,0,1,189.05,377.21Z"/><path class="cls-3" d="M232.89,298.7c-2.1,2.22.33,3.59,1.07,5.2,2.52,5.47,6.69,10.52,4,17.2-1.71-2.11-2.43-4.89-4.56-6.71-3.6-5-3.94,1.21-5.93,1.72-1.42-.43-1.57-1.63-1.74-2.82,0-1-.11-2.13.54-2.78,4-4.06.77-5.67-2.38-7.35a9,9,0,0,0-3.26-6.39c-4.74-4-8.11-9.8-14.58-11.73-.42-.13-.51-.8-.39-1.32.68-1.19,3.14-.76,2.79-2.69-.22-1.21-1.82-1-2.81-1.34a59.59,59.59,0,0,1-12.88-11.93c6.43.78,12.34,3.1,18.08,5.95,6.81,6.55,13.4,13.31,20,20C232.17,295,234.34,296.21,232.89,298.7Z"/><path class="cls-4" d="M205.94,283.59c8.11,2.52,12.19,9.92,18.21,15,2,1.72,1.29,2.95-.27,4.29.16,2.19-1.7,2.05-3,2.61-3.15.09-4.24-2.82-6.29-4.33-.55-2.13-1-4.34-3.87-4.49-6.12-5.5-11.7-11.55-17.56-17.33-2.11-4.76-7.19-7.09-9.57-11.63a13.15,13.15,0,0,1,9.17.07c5.47,2.46,8.35,8,13.25,11.14C206.43,280.47,206.88,282.05,205.94,283.59Z"/><path class="cls-5" d="M193.81,278.8A181.79,181.79,0,0,1,211,295.88a7.37,7.37,0,0,0,3.8,4.92c3.12-.27,3.38,3.77,6.13,4.06,3.63,1.45,4.05,5.28,5.94,8,.1,1.1-.13,2.34,1.16,3,1.07-.82,1.85-.26,2.58.54,1.07,2.8,4.86,4.52,3.33,8.35-3,2.19-6.52,2.23-10,2.11a1,1,0,0,1,0-1.19c2.92-1.44,1.21-2.54-.29-3.65-.07-3.17-2.43-3.53-4.79-3.9A27.53,27.53,0,0,0,210,304c-6.21-5.56-12-11.61-17.72-17.67a11.58,11.58,0,0,1-2.91-4.62,3.71,3.71,0,0,1,1.53-3.32A2.72,2.72,0,0,1,193.81,278.8Z"/><path class="cls-6" d="M179.71,326c-4.3-.37-8.61-.72-12.91-1.12-7.16-.65-9.56-5.07-6.09-11.32a23.55,23.55,0,0,1,7.64-8.82c2.74-.85,4,.39,4.19,3,0,1.18-1,2-1.13,3.16.64,1.76,2.31,1.58,3.69,1.93,3.88.91,5.61,4.1,7.57,7.06a6.11,6.11,0,0,1,.74,1.22,4.54,4.54,0,0,1,0,3.47,3.3,3.3,0,0,1-3,1.45Z"/><path class="cls-7" d="M182.79,324.89v-3.84c.4-1,1.62-1.06,2.3-2.09-1.64-.15-2.31,1-3.15,1.88-2.12-2.66-3.24-6.34-7.24-7-.31-1,.22-2.19-.63-3.09-.71-.71-1.79-1-2.31-1.89.2-2.47-.86-3.9-3.4-4.11,1.8-1.53,2.71-2.86.1-4.71-2-1.4-3.64-3.31-3.76-6-.74-3,.94-2.84,2.43-1.55,3.68,3.2,7.64,6.2,10,10.66-.83,3.14,2.2.67,2.74,1.83a9.26,9.26,0,0,1,1.24.37c1.4.6,3,.44,4.4,1a3.78,3.78,0,0,1,1.1.85,9.75,9.75,0,0,1,.83,1.19c2.67,3.95,5.55,7.76,8.07,11.81,3.34,5.36,2.55,6.86-3.71,7.06-.82,0-1.65,0-2.47,0s-1.46,0-2.19-.09a8.53,8.53,0,0,1-2.12-.45A3.88,3.88,0,0,1,182.79,324.89Z"/><path class="cls-8" d="M189.56,281.66c8.06,8.27,16.09,16.55,24.48,24.51,2.82,2.67,6.69,6.68,5,12.05a1.37,1.37,0,0,1-.38,1.89c-5.21-2.67-6.62-8.1-9.18-12.67-.53-.3,1.23-.91,0-.89a6.72,6.72,0,0,1-2.89-.22c-11.11-9.82-21-20.81-31.06-31.71-.77-.84-1.6-1.79-.89-3.1a7.68,7.68,0,0,1,5.12-2.78,34.1,34.1,0,0,1,6.51,8.55C186.23,279.61,188.29,280.33,189.56,281.66Z"/><path class="cls-9" d="M219.12,328a13.34,13.34,0,0,1-8.14,9.26c-2.72,1.21-5.45,2.4-8.17,3.6-4.7,1.19-9.15,3.14-13.78,4.54-1.48.44-2.95,1.62-4.58.35-.31-7.08-.32-7.14,6.36-9.65,6.16-2.32,12.58-4,18.48-7a31.56,31.56,0,0,1,3.74-1.36C215.07,327.58,217.17,326.07,219.12,328Z"/><path class="cls-10" d="M176.77,303.85q-5-5.22-10-10.44c-1-1.07-1.91-1.51-2.12.56-1.92-3.66.06-6.83,1.26-10.1,2.78-.25,3.76,2.1,5.28,3.66a8.6,8.6,0,0,1,.6,1.17c.71,2.08,2.33,2.87,4.36,3.09,2.65.54,4.15,2.51,5.68,4.49a24.79,24.79,0,0,0,6.73,6.5c1.27.76,2.93,1,3.67,2.5a2,2,0,0,1-.81,2.17,4.94,4.94,0,0,1-5.67-.59h0c-1.5-1.23-3.52.18-5-1h0C179.62,304.85,177.43,305.87,176.77,303.85Z"/><path class="cls-11" d="M174.65,271.52c8.24,9.93,17.31,19.08,26.48,28.15,2,2,3.81,4.11,5.72,6.18a2.47,2.47,0,0,1-.62,1.21l-.58.39a5,5,0,0,1-1.36.36,5.26,5.26,0,0,1-2.76-.5c-10.43-8.87-18.6-19.95-28.59-29.26-1.85-1.72-1.59-3.47,0-5.19Z"/><path class="cls-12" d="M232.89,298.7c-.25-2.63-2.58-3.7-4-5.4-5.8-6.7-13.5-11.66-18-19.59,9.26,3.11,17.52,7.8,23.66,15.58C238.23,294,237.91,295.09,232.89,298.7Z"/><path class="cls-13" d="M179.53,370.1A7.12,7.12,0,0,1,180.9,365c3.43-3.43,15.69-7.71,20-7-1,4-1,8.31-3.32,12A74.07,74.07,0,0,1,179.53,370.1Z"/><path class="cls-14" d="M209.85,330.17c-6.28,3.7-13.35,5.38-20.16,7.65-4.49,1.49-5.54,4-4.73,8.1,1.25,1.39,1.1,3,.74,4.63-.32.79-.75,1.44-1.74,1.4.19-6.37.6-12.74-1.42-18.94.72-1.94,2.57-2.22,4.18-2.85,1.88-.43,3.72-1.14,5.7-.88,4.2,3.42,5-1,6.84-3a3.26,3.26,0,0,1,2.85.3C203.79,329.73,208,327.44,209.85,330.17Z"/><path class="cls-15" d="M170.83,289l-.14-1.12c-.33-.76.13-1.2.62-1.64,1.48-1.43-.06-2.25-.68-3.22-.93-1.42-2.74-2.43-2-4.57a4.86,4.86,0,0,1,2-3C176.31,282,182,288.62,188,294.89c1.4,1.46,2.69,3,1.85,5.24a8.32,8.32,0,0,1-2,3.72,27.21,27.21,0,0,1-7.24-7.27c-1.22-1.76-2.46-3.56-4.9-3.77C176.4,288.6,172.79,289.83,170.83,289Z"/><path class="cls-16" d="M200.89,358l-20,7c.69-2.33,1.39-4.66,2.08-7,5.49-3.5,11.18-6.41,18-6.06C202.64,354,201.72,356,200.89,358Z"/><path class="cls-17" d="M188.82,299.91c1.18-2-.46-2.94-1.55-4.1-4.36-4.69-8.78-9.33-13-14.1-1.61-1.81-3.24-3.74-3.63-6.31a4.55,4.55,0,0,1,2.37-2.54c-.74,2.12-.17,3.57,1.5,5.28,9.24,9.45,18.26,19.12,27.36,28.71a2,2,0,0,1-1.94.51c-2.75-1.3-4.21-4.16-6.81-5.64C191.73,301,190,301.14,188.82,299.91Z"/><path class="cls-18" d="M209.85,306.87c3.35,4.1,5,9.38,9,13,1.87.35,3.11,1.7,4.5,2.82.61,1,1.27,2,.57,3.18,0,.31,0,.63,0,.94l-3.9.32a3.44,3.44,0,0,1-2.08.06c-2.57-1.43-3.48-4.19-5.09-6.38-1.37-1.87-2.65-3.71-5.23-3.91-.9-.28-1.75-.62-2-1.69.24-1.19,1.84-1.33,2-2.62-.78-1.24-2.6.32-3.29-1.18-.76-1.95.2-3.32,1.53-4.57h0A3.92,3.92,0,0,1,209.85,306.87Z"/><path class="cls-19" d="M184.83,351c0-1.68.08-3.37.13-5.05,4.93-2.74,10.49-3.77,15.69-5.78a1.8,1.8,0,0,1,2.16.72l-2,5.1C196.28,350.24,191.17,352.58,184.83,351Z"/><path class="cls-20" d="M184.83,351c5.7-.42,10.82-2.72,15.94-5,.06,2,.12,4,.17,6L183,358l1-6Z"/><path class="cls-21" d="M185.77,277.65c-2.09-2.91-5.23-5.11-6-8.91,1-1.23,2.51-.9,3.85-1.05,4,3.13,8.33,6,10.19,11.11H191C189.32,278.16,187.28,279.11,185.77,277.65Z"/><path class="cls-22" d="M233.89,324.73c0-3.32-3.72-4.74-4-7.91a5.21,5.21,0,0,1,4.09-2.94c2.74,1.62,4.36,3.87,4,7.22C237.36,323.14,236.21,324.59,233.89,324.73Z"/><path class="cls-23" d="M187,331.09,182.54,333c-1.58-2.1-2.11-4.61-2.83-7.05l.25-.43a16.48,16.48,0,0,1,3.44-.06c1.63,1,1.85,3,3,4.39A3.71,3.71,0,0,1,187,331.09Z"/><path class="cls-24" d="M168.59,278.41c1.64,2.21,3.4,4.33,4.89,6.63,1.75,2.69-.94,1.37-1.73,1.77-2.6-1.15-4.46-2.9-4.69-5.93Z"/><path class="cls-25" d="M179.53,370.1l18-.14C191.57,371.26,185.55,370.89,179.53,370.1Z"/><path class="cls-26" d="M167.06,280.88q2.34,3,4.69,5.93l-1.06,1-4.74-4Z"/><path class="cls-14" d="M217.85,326.89c.7.09,1.41.17,2.11.27l-.84.84-6.31.89c-.44-1.12.19-1.82,1-2.46a4.52,4.52,0,0,1,1.38-.43A4.23,4.23,0,0,1,217.85,326.89Z"/><path class="cls-27" d="M226.82,312.87c-3.26-1.72-3.69-5.54-5.94-8l3-2c2.18-.31,3.64.54,5,2.33s2.62,3.17-.39,4.4C227,310.2,226.86,311.51,226.82,312.87Z"/><path class="cls-28" d="M234,313.88a6.28,6.28,0,0,1-4.09,2.94l-1.93-1c-1-2.76.34-4.43,2.8-5.11S233.64,312.09,234,313.88Z"/><path class="cls-29" d="M205.94,283.59c-.69-1.58-1.41-3.16.1-4.69,2.11,0,4.86-.57,4.54,2.77C210.31,284.45,208,284.1,205.94,283.59Z"/><path class="cls-30" d="M214.75,300.8c-4.24.66-5.36-1.1-3.8-4.92C214.68,295.63,216.83,296.58,214.75,300.8Z"/><path class="cls-31" d="M222.77,322.7c-2,0-2.89-1.51-4-2.8.09-.56.17-1.12.25-1.68,1.53-.24,2.74-2.31,4.38-1.23,1.9,1.25.35,3.24.48,4.89A1,1,0,0,1,222.77,322.7Z"/><path class="cls-32" d="M185.77,277.65c1.71.53,4.32-3,5.23,1.15a3.77,3.77,0,0,1-1.44,2.86C187.22,281.34,184.41,281.46,185.77,277.65Z"/><path class="cls-33" d="M222.77,322.7l1.15-.82c1.68,0,3.68.07,3.7,2.24,0,2.64-2.34,1.46-3.74,1.78Z"/><path class="cls-34" d="M174.76,309.7c2.72,1.41,1.6,2.76-.07,4.09-1.95-.18-4.16.13-4.79-2.54C171.11,309.44,172.86,309.36,174.76,309.7Z"/><path class="cls-35" d="M181.93,320.84c-.93-3.11,1.1-3.74,3.42-3.94,1.28-.11,2.41.6,2.21,2-.44,3.06-3.13,1.52-4.78,2.13A1.6,1.6,0,0,0,181.93,320.84Z"/><path class="cls-36" d="M174.76,309.7l-4.86,1.55a1.89,1.89,0,0,1,1.85-2.44C172.79,309,174,308.76,174.76,309.7Z"/><path class="cls-37" d="M183.59,326l-3.63-.47c.8-.82,1.85-.57,2.83-.64a2.17,2.17,0,0,1,2,.91A.78.78,0,0,1,183.59,326Z"/><path class="cls-38" d="M188.73,325.94c2.51-.49,6.17,1.32,7.33-1.06s-2.09-4.5-3.45-6.69c-2.18-3.5-4.53-6.9-6.81-10.33,2-1.06,4.2-.1,6.26-.62a2.91,2.91,0,0,1,1.52.1c2.59,2.66,5.32,5.26,4.71,9.5-.16,1.85-.21,3.65,2.11,4.27,4.4.17,5.29,1.38,4,5.4-2.17.78-4.76-1.35-6.7,1-1.85.93-3.82.8-5.79.7C190.5,327.9,188.85,328,188.73,325.94Z"/><path class="cls-23" d="M188.73,325.94c1,1.06,2.43.69,3.65,1,.41,1,1.28,1.89.23,3L187,331.09l-.13-.14a5.32,5.32,0,0,1,.25-4.73Z"/><path class="cls-39" d="M192.8,307.86h-7c0-.34,0-.67,0-1h6a.73.73,0,1,1,1,1Z"/><path class="cls-40" d="M176.77,303.85l4,2c-1.59,0-3.24.17-4.59-.84S176.17,304.05,176.77,303.85Z"/><path class="cls-41" d="M180.78,305.86c1.69.25,3.61-.67,5,1C184.11,306.61,182.18,307.54,180.78,305.86Z"/><path class="cls-42" d="M209.85,306.87h-4l1-1c1.25,0,2.73-.33,3.71.2S210.24,306.67,209.85,306.87Z"/><path class="cls-43" d="M192.81,306.87l-1,0-.13-2.08c-.28-1.88.74-3,2.22-3.92a23.65,23.65,0,0,1,5.93,6C197.49,308.94,195.15,308.13,192.81,306.87Z"/><path class="cls-44" d="M170.83,289c.6-.2,1.22-.39,1.82-.6,1.51-.51,3.17-1.41,4.36.29s-.26,3-1.28,4.16C173,292.93,171,292.06,170.83,289Z"/><path class="cls-45" d="M193.9,300.85c0,1.74-1.08,2.85-2.22,3.92a5.87,5.87,0,0,1-3.81-.92,3.3,3.3,0,0,1,.95-3.94C190.56,300,192.45,299.23,193.9,300.85Z"/><path class="cls-46" d="M213.75,327.17l-1.89-.25c-5.71-5.52-10.55-11.62-12.83-19.41,1.9-.52,4,.49,5.8-.64h1q-.5,2.53-1,5.07c.92.81,1.75,1.66.95,3a2.29,2.29,0,0,0,2,1c3,3.23,6.18,6.32,7,10.93Z"/><path class="cls-47" d="M204.83,306.87c-1.76,1.8-4,.66-6,1-1.67,1.52-3.34,1.23-5,0h-1c0-.33,0-.66,0-1l7,0h2Z"/><path class="cls-48" d="M199.11,327l-1.25-.32c2.19-1.52,4.65-.47,7-.77.24.2.32.4.24.61s-.16.3-.24.3l-3.08.19Z"/><path class="cls-49" d="M214.86,326.9c-2.44-3.58-5.56-6.73-7-10.94,4.2-.6,4.9,3.2,6.71,5.48a46.72,46.72,0,0,1,3.3,5.45Z"/><path class="cls-50" d="M205.82,315c-.32-1-.64-2-.95-3,1.2-.67,1.89-2.65,3.75-1.64a2.17,2.17,0,0,1,1,2.58C209.16,315,207.68,315.34,205.82,315Z"/><path class="cls-51" d="M204.83,326.82v-.91c-.48-3-1.82-4.6-5.05-3-.38-2.23,1.1-5.38-2.89-5.82,2.12-4.1-3.08-5.77-3.07-9.18h5l13,19A19.1,19.1,0,0,1,204.83,326.82Z"/><path class="cls-52" d="M196.89,317.05c1.35.38,2.81-2,4-.07,1.28,2.12.39,4.12-1.08,5.89C197,321.81,196.85,319.49,196.89,317.05Z"/><path class="cls-1" d="M303.05,382.54a78.39,78.39,0,0,1-10.36-.78l-4.75-.62-.73-4.74a13.12,13.12,0,0,1,1.8-8.74l1.73-5.79.84-5.21,0-1.14c.17-5.12.33-10-.91-14.38a19.9,19.9,0,0,1-1.86-3.85l-8.64-.75c-7.7-.71-10.9-4.68-12.11-7s-2.69-7.13,1-13.81a33.94,33.94,0,0,1,6.25-8.33,13.27,13.27,0,0,1-2.93-6.4c-2.08-5.16-.22-9.75.93-12.58.2-.47.39-.95.57-1.42l1.35-3.62,1.36-2.21a23.29,23.29,0,0,1,6.74-8.31l.83-.67a14,14,0,0,1,6.78-4.09,10.49,10.49,0,0,1,5.42-1.43,19.31,19.31,0,0,1,5.63-.85,20.56,20.56,0,0,1,6.18,1c6,.82,11.93,2.78,19.09,6.3,11.41,3.9,20,9.64,26.22,17.54,2.23,2.81,4.35,5.89,3.79,9.86a10.39,10.39,0,0,1-3.51,6.16c.41.88.89,1.79,1.4,2.75,2.48,4.7,5.87,11.13,2.8,19.13a10.79,10.79,0,0,1-7.81,7.6,20.38,20.38,0,0,1-10.51,2.44l-1.69,0a20.13,20.13,0,0,1-10.45,9.87L321.77,351l-.57,1.44.08,2.9c2,4,.53,7.94-.29,9.93-.19.86-.34,1.77-.51,2.73-.57,3.29-1.22,7-3.47,10.66L315.58,381l-2.66.58A46.38,46.38,0,0,1,303.05,382.54Z"/><path class="cls-2" d="M297.72,377.21a79.93,79.93,0,0,1-10.35-.77l-4.76-.63-.73-4.73a13.1,13.1,0,0,1,1.8-8.74l1.73-5.8.84-5.21,0-1.14c.17-5.12.33-10-.91-14.38a18.77,18.77,0,0,1-1.85-3.85c-2.89-.24-5.77-.48-8.64-.75-7.71-.71-10.9-4.68-12.12-7s-2.69-7.13,1-13.82a33.72,33.72,0,0,1,6.25-8.32,13.23,13.23,0,0,1-2.92-6.4c-2.09-5.17-.22-9.76.93-12.58.19-.48.39-.95.56-1.43l1.35-3.62,1.36-2.2a23.21,23.21,0,0,1,6.74-8.32l.83-.66a14.06,14.06,0,0,1,6.78-4.1,10.59,10.59,0,0,1,5.42-1.43,19.3,19.3,0,0,1,5.63-.84,20.2,20.2,0,0,1,6.18,1c6,.81,11.93,2.77,19.1,6.29,11.4,3.9,20,9.64,26.22,17.54,2.22,2.82,4.34,5.9,3.78,9.86a10.38,10.38,0,0,1-3.5,6.17c.41.87.88,1.78,1.39,2.74,2.48,4.7,5.87,11.13,2.8,19.13-1.33,4.06-4.11,6.74-7.81,7.6a20.38,20.38,0,0,1-10.51,2.44l-1.68,0a20.11,20.11,0,0,1-10.46,9.87l-5.78,2.55-.58,1.44L316,350c2,4,.53,7.94-.28,9.94-.19.85-.35,1.77-.52,2.73-.57,3.28-1.22,7-3.47,10.66l-1.43,2.31-2.66.57A46.31,46.31,0,0,1,297.72,377.21Z"/><path class="cls-3" d="M341.56,298.7c-2.1,2.22.33,3.59,1.07,5.2,2.52,5.47,6.69,10.52,4,17.2-1.71-2.11-2.43-4.89-4.56-6.71-3.6-5-3.94,1.21-5.93,1.72-1.42-.43-1.57-1.63-1.74-2.82-.05-1-.11-2.13.54-2.78,4-4.06.77-5.67-2.38-7.35a9,9,0,0,0-3.26-6.39c-4.74-4-8.11-9.8-14.58-11.73-.42-.13-.51-.8-.39-1.32.68-1.19,3.14-.76,2.79-2.69-.22-1.21-1.82-1-2.81-1.34a59.59,59.59,0,0,1-12.88-11.93c6.43.78,12.34,3.1,18.08,5.95,6.81,6.55,13.4,13.31,20,20C340.84,295,343,296.21,341.56,298.7Z"/><path class="cls-4" d="M314.61,283.59c8.11,2.52,12.19,9.92,18.21,15,2.05,1.72,1.29,2.95-.27,4.29.16,2.19-1.7,2.05-3,2.61-3.15.09-4.24-2.82-6.29-4.33-.55-2.13-1-4.34-3.87-4.49-6.12-5.5-11.7-11.55-17.56-17.33-2.11-4.76-7.19-7.09-9.57-11.63a13.15,13.15,0,0,1,9.17.07c5.47,2.46,8.35,8,13.25,11.14C315.1,280.47,315.55,282.05,314.61,283.59Z"/><path class="cls-5" d="M302.48,278.8a181.79,181.79,0,0,1,17.14,17.08,7.37,7.37,0,0,0,3.8,4.92c3.12-.27,3.38,3.77,6.13,4.06,3.63,1.45,4.05,5.28,5.94,8,.1,1.1-.13,2.34,1.16,3,1.07-.82,1.85-.26,2.58.54,1.07,2.8,4.86,4.52,3.33,8.35-3,2.19-6.52,2.23-10,2.11a1,1,0,0,1,0-1.19c2.92-1.44,1.21-2.54-.29-3.65-.07-3.17-2.43-3.53-4.79-3.9A27.53,27.53,0,0,0,318.67,304c-6.21-5.56-12-11.61-17.72-17.67a11.58,11.58,0,0,1-2.91-4.62,3.71,3.71,0,0,1,1.53-3.32A2.72,2.72,0,0,1,302.48,278.8Z"/><path class="cls-6" d="M288.38,326c-4.3-.37-8.61-.72-12.91-1.12-7.16-.65-9.56-5.07-6.09-11.32A23.55,23.55,0,0,1,277,304.7c2.74-.85,4,.39,4.19,3,0,1.18-1,2-1.13,3.16.64,1.76,2.31,1.58,3.69,1.93,3.88.91,5.61,4.1,7.57,7.06a6.11,6.11,0,0,1,.74,1.22,4.54,4.54,0,0,1,0,3.47,3.3,3.3,0,0,1-3,1.45Z"/><path class="cls-7" d="M291.46,324.89v-3.84c.4-1,1.62-1.06,2.3-2.09-1.64-.15-2.31,1-3.15,1.88-2.12-2.66-3.24-6.34-7.24-7-.31-1,.22-2.19-.63-3.09-.71-.71-1.79-1-2.31-1.89.2-2.47-.86-3.9-3.4-4.11,1.8-1.53,2.71-2.86.1-4.71-2-1.4-3.64-3.31-3.76-6-.74-3,.94-2.84,2.43-1.55,3.68,3.2,7.64,6.2,10,10.66-.83,3.14,2.2.67,2.74,1.83a9.26,9.26,0,0,1,1.24.37c1.4.6,3,.44,4.4,1a3.78,3.78,0,0,1,1.1.85,9.75,9.75,0,0,1,.83,1.19c2.67,3.95,5.55,7.76,8.07,11.81,3.34,5.36,2.55,6.86-3.71,7.06-.82,0-1.65,0-2.47,0s-1.46,0-2.19-.09a8.53,8.53,0,0,1-2.12-.45A3.88,3.88,0,0,1,291.46,324.89Z"/><path class="cls-8" d="M298.23,281.66c8.06,8.27,16.09,16.55,24.48,24.51,2.82,2.67,6.69,6.68,5,12.05a1.37,1.37,0,0,1-.38,1.89c-5.21-2.67-6.62-8.1-9.18-12.67-.53-.3,1.23-.91,0-.89a6.72,6.72,0,0,1-2.89-.22c-11.11-9.82-21-20.81-31.06-31.71-.77-.84-1.6-1.79-.89-3.1a7.68,7.68,0,0,1,5.12-2.78,34.1,34.1,0,0,1,6.51,8.55C294.9,279.61,297,280.33,298.23,281.66Z"/><path class="cls-9" d="M327.79,328a13.34,13.34,0,0,1-8.14,9.26c-2.72,1.21-5.45,2.4-8.17,3.6-4.7,1.19-9.15,3.14-13.78,4.54-1.48.44-2.95,1.62-4.58.35-.31-7.08-.32-7.14,6.36-9.65,6.16-2.32,12.58-4,18.48-7a31.56,31.56,0,0,1,3.74-1.36C323.74,327.58,325.84,326.07,327.79,328Z"/><path class="cls-10" d="M285.44,303.85q-5-5.22-10-10.44c-1-1.07-1.91-1.51-2.12.56-1.92-3.66.07-6.83,1.26-10.1,2.78-.25,3.76,2.1,5.28,3.66a8.6,8.6,0,0,1,.6,1.17c.71,2.08,2.33,2.87,4.36,3.09,2.65.54,4.15,2.51,5.68,4.49a24.79,24.79,0,0,0,6.73,6.5c1.27.76,2.93,1,3.67,2.5a2,2,0,0,1-.81,2.17,4.94,4.94,0,0,1-5.67-.59h0c-1.5-1.23-3.52.18-5-1h0C288.29,304.85,286.1,305.87,285.44,303.85Z"/><path class="cls-11" d="M283.32,271.52c8.24,9.93,17.31,19.08,26.48,28.15,2,2,3.81,4.11,5.72,6.18a2.47,2.47,0,0,1-.62,1.21l-.58.39a5,5,0,0,1-1.36.36,5.26,5.26,0,0,1-2.76-.5c-10.43-8.87-18.6-19.95-28.59-29.26-1.85-1.72-1.59-3.47,0-5.19Z"/><path class="cls-12" d="M341.56,298.7c-.25-2.63-2.58-3.7-4.05-5.4-5.8-6.7-13.5-11.66-18-19.59,9.26,3.11,17.52,7.8,23.66,15.58C346.9,294,346.58,295.09,341.56,298.7Z"/><path class="cls-13" d="M288.2,370.1a7.12,7.12,0,0,1,1.37-5.14c3.43-3.43,15.69-7.71,20-7-1,4-1.05,8.31-3.32,12A74.07,74.07,0,0,1,288.2,370.1Z"/><path class="cls-14" d="M318.52,330.17c-6.28,3.7-13.35,5.38-20.16,7.65-4.49,1.49-5.54,4-4.73,8.1,1.25,1.39,1.1,3,.74,4.63-.32.79-.75,1.44-1.74,1.4.19-6.37.6-12.74-1.42-18.94.72-1.94,2.57-2.22,4.18-2.85,1.88-.43,3.72-1.14,5.7-.88,4.2,3.42,5-1,6.84-3a3.26,3.26,0,0,1,2.85.3C312.46,329.73,316.66,327.44,318.52,330.17Z"/><path class="cls-15" d="M279.5,289l-.14-1.12c-.33-.76.13-1.2.62-1.64,1.48-1.43-.06-2.25-.68-3.22-.93-1.42-2.74-2.43-2-4.57a4.86,4.86,0,0,1,2-3c5.71,6.58,11.35,13.22,17.41,19.49,1.4,1.46,2.69,3,1.85,5.24a8.32,8.32,0,0,1-2,3.72,27.21,27.21,0,0,1-7.24-7.27c-1.22-1.76-2.46-3.56-4.9-3.77C285.07,288.6,281.46,289.83,279.5,289Z"/><path class="cls-16" d="M309.56,358l-20,7c.69-2.33,1.39-4.66,2.08-7,5.49-3.5,11.18-6.41,18-6.06C311.31,354,310.39,356,309.56,358Z"/><path class="cls-17" d="M297.49,299.91c1.18-2-.46-2.94-1.55-4.1-4.36-4.69-8.78-9.33-13-14.1-1.61-1.81-3.24-3.74-3.63-6.31a4.55,4.55,0,0,1,2.37-2.54c-.74,2.12-.17,3.57,1.5,5.28,9.24,9.45,18.26,19.12,27.36,28.71a2,2,0,0,1-1.94.51c-2.75-1.3-4.21-4.16-6.81-5.64C300.4,301,298.64,301.14,297.49,299.91Z"/><path class="cls-18" d="M318.52,306.87c3.35,4.1,5,9.38,9,13,1.87.35,3.11,1.7,4.5,2.82.61,1,1.27,2,.57,3.18,0,.31,0,.63,0,.94l-3.9.32a3.44,3.44,0,0,1-2.08.06c-2.57-1.43-3.48-4.19-5.09-6.38-1.37-1.87-2.65-3.71-5.23-3.91-.9-.28-1.75-.62-2-1.69.24-1.19,1.84-1.33,2-2.62-.78-1.24-2.6.32-3.29-1.18-.76-1.95.2-3.32,1.53-4.57h0A3.92,3.92,0,0,1,318.52,306.87Z"/><path class="cls-19" d="M293.5,351c0-1.68.08-3.37.13-5.05,4.93-2.74,10.49-3.77,15.69-5.78a1.8,1.8,0,0,1,2.16.72l-2,5.1C305,350.24,299.84,352.58,293.5,351Z"/><path class="cls-20" d="M293.5,351c5.7-.42,10.82-2.72,15.94-5,.06,2,.12,4,.17,6l-18,6.06,1-6Z"/><path class="cls-21" d="M294.44,277.65c-2.09-2.91-5.23-5.11-6-8.91,1.05-1.23,2.51-.9,3.85-1.05,4,3.13,8.33,6,10.19,11.11h-2.81C298,278.16,296,279.11,294.44,277.65Z"/><path class="cls-22" d="M342.56,324.73c0-3.32-3.72-4.74-4-7.91a5.21,5.21,0,0,1,4.09-2.94c2.74,1.62,4.36,3.87,4,7.22C346,323.14,344.88,324.59,342.56,324.73Z"/><path class="cls-23" d="M295.62,331.09,291.21,333c-1.58-2.1-2.11-4.61-2.83-7.05l.25-.43a16.48,16.48,0,0,1,3.44-.06c1.63,1,1.85,3,3,4.39A3.71,3.71,0,0,1,295.62,331.09Z"/><path class="cls-24" d="M277.26,278.41c1.64,2.21,3.4,4.33,4.89,6.63,1.75,2.69-.94,1.37-1.73,1.77-2.6-1.15-4.46-2.9-4.69-5.93Z"/><path class="cls-25" d="M288.2,370.1l18-.14C300.24,371.26,294.22,370.89,288.2,370.1Z"/><path class="cls-26" d="M275.73,280.88q2.34,3,4.69,5.93l-1.06,1-4.74-4Z"/><path class="cls-14" d="M326.52,326.89c.7.09,1.41.17,2.11.27l-.84.84-6.31.89c-.44-1.12.19-1.82,1-2.46a4.52,4.52,0,0,1,1.38-.43A4.23,4.23,0,0,1,326.52,326.89Z"/><path class="cls-27" d="M335.49,312.87c-3.26-1.72-3.69-5.54-5.94-8l3-2c2.18-.31,3.64.54,5,2.33s2.62,3.17-.39,4.4C335.66,310.2,335.53,311.51,335.49,312.87Z"/><path class="cls-28" d="M342.67,313.88a6.28,6.28,0,0,1-4.09,2.94l-1.93-1c-1-2.76.34-4.43,2.8-5.11S342.31,312.09,342.67,313.88Z"/><path class="cls-29" d="M314.61,283.59c-.69-1.58-1.41-3.16.1-4.69,2.11,0,4.86-.57,4.54,2.77C319,284.45,316.65,284.1,314.61,283.59Z"/><path class="cls-30" d="M323.42,300.8c-4.24.66-5.36-1.1-3.8-4.92C323.35,295.63,325.5,296.58,323.42,300.8Z"/><path class="cls-31" d="M331.44,322.7c-2,0-2.89-1.51-4-2.8.09-.56.17-1.12.25-1.68,1.53-.24,2.74-2.31,4.38-1.23,1.9,1.25.35,3.24.48,4.89A1,1,0,0,1,331.44,322.7Z"/><path class="cls-32" d="M294.44,277.65c1.71.53,4.32-3,5.23,1.15a3.77,3.77,0,0,1-1.44,2.86C295.89,281.34,293.08,281.46,294.44,277.65Z"/><path class="cls-33" d="M331.44,322.7l1.15-.82c1.68,0,3.68.07,3.7,2.24,0,2.64-2.34,1.46-3.74,1.78Z"/><path class="cls-34" d="M283.43,309.7c2.72,1.41,1.6,2.76-.07,4.09-1.95-.18-4.16.13-4.79-2.54C279.78,309.44,281.53,309.36,283.43,309.7Z"/><path class="cls-35" d="M290.6,320.84c-.93-3.11,1.1-3.74,3.42-3.94,1.28-.11,2.41.6,2.21,2-.44,3.06-3.13,1.52-4.78,2.13A1.6,1.6,0,0,0,290.6,320.84Z"/><path class="cls-36" d="M283.43,309.7l-4.86,1.55a1.89,1.89,0,0,1,1.85-2.44C281.46,309,282.62,308.76,283.43,309.7Z"/><path class="cls-37" d="M292.26,326l-3.63-.47c.8-.82,1.85-.57,2.83-.64a2.17,2.17,0,0,1,2,.91A.78.78,0,0,1,292.26,326Z"/><path class="cls-38" d="M297.4,325.94c2.51-.49,6.17,1.32,7.33-1.06s-2.09-4.5-3.45-6.69c-2.18-3.5-4.53-6.9-6.81-10.33,2-1.06,4.2-.1,6.26-.62a2.91,2.91,0,0,1,1.52.1c2.59,2.66,5.32,5.26,4.71,9.5-.16,1.85-.21,3.65,2.11,4.27,4.4.17,5.29,1.38,4,5.4-2.17.78-4.76-1.35-6.7,1-1.85.93-3.82.8-5.79.7C299.17,327.9,297.52,328,297.4,325.94Z"/><path class="cls-23" d="M297.4,325.94c1,1.06,2.43.69,3.65,1,.41,1,1.28,1.89.23,3l-5.66,1.17-.13-.14a5.32,5.32,0,0,1,.25-4.73Z"/><path class="cls-39" d="M301.47,307.86h-7c0-.34,0-.67,0-1h6a.73.73,0,1,1,1,1Z"/><path class="cls-40" d="M285.44,303.85l4,2c-1.59,0-3.24.17-4.59-.84S284.84,304.05,285.44,303.85Z"/><path class="cls-41" d="M289.45,305.86c1.69.25,3.61-.67,5,1C292.78,306.61,290.85,307.54,289.45,305.86Z"/><path class="cls-42" d="M318.52,306.87h-4l1-1c1.25,0,2.73-.33,3.71.2S318.91,306.67,318.52,306.87Z"/><path class="cls-43" d="M301.48,306.87l-1,0-.13-2.08c-.28-1.88.74-3,2.22-3.92a23.65,23.65,0,0,1,5.93,6C306.16,308.94,303.82,308.13,301.48,306.87Z"/><path class="cls-44" d="M279.5,289c.6-.2,1.22-.39,1.82-.6,1.51-.51,3.17-1.41,4.36.29s-.26,3-1.28,4.16C281.67,292.93,279.7,292.06,279.5,289Z"/><path class="cls-45" d="M302.57,300.85c0,1.74-1.08,2.85-2.22,3.92a5.87,5.87,0,0,1-3.81-.92,3.3,3.3,0,0,1,.95-3.94C299.23,300,301.12,299.23,302.57,300.85Z"/><path class="cls-46" d="M322.42,327.17l-1.89-.25c-5.71-5.52-10.55-11.62-12.83-19.41,1.9-.52,4,.49,5.8-.64h1q-.5,2.53-1,5.07c.92.81,1.75,1.66.95,3a2.29,2.29,0,0,0,2,1c3,3.23,6.18,6.32,7,10.93Z"/><path class="cls-47" d="M313.5,306.87c-1.76,1.8-4,.66-6,1-1.67,1.52-3.34,1.23-5,0h-1c0-.33,0-.66,0-1l7,0h2Z"/><path class="cls-48" d="M307.78,327l-1.25-.32c2.19-1.52,4.65-.47,7-.77.24.2.32.4.24.61s-.16.3-.24.3l-3.08.19Z"/><path class="cls-49" d="M323.53,326.9c-2.44-3.58-5.56-6.73-7-10.94,4.2-.6,4.9,3.2,6.71,5.48a46.72,46.72,0,0,1,3.3,5.45Z"/><path class="cls-50" d="M314.49,315c-.32-1-.64-2-.95-3,1.2-.67,1.89-2.65,3.75-1.64a2.17,2.17,0,0,1,1,2.58C317.83,315,316.35,315.34,314.49,315Z"/><path class="cls-51" d="M313.5,326.82v-.91c-.48-3-1.82-4.6-5.05-3-.38-2.23,1.1-5.38-2.89-5.82,2.12-4.1-3.08-5.77-3.07-9.18h5l13,19A19.1,19.1,0,0,1,313.5,326.82Z"/><path class="cls-52" d="M305.56,317.05c1.35.38,2.81-2,4-.07,1.28,2.12.39,4.12-1.08,5.89C305.71,321.81,305.52,319.49,305.56,317.05Z"/><path class="cls-1" d="M411.72,382.54a78.39,78.39,0,0,1-10.36-.78l-4.75-.62-.73-4.74a13.12,13.12,0,0,1,1.8-8.74l1.73-5.79.84-5.21,0-1.14c.17-5.12.33-10-.91-14.38a19.9,19.9,0,0,1-1.86-3.85l-8.64-.75c-7.7-.71-10.9-4.68-12.11-7s-2.69-7.13,1-13.81a33.94,33.94,0,0,1,6.25-8.33,13.27,13.27,0,0,1-2.93-6.4c-2.08-5.16-.22-9.75.93-12.58.2-.47.39-.95.57-1.42l1.35-3.62,1.36-2.21a23.29,23.29,0,0,1,6.74-8.31l.83-.67a14,14,0,0,1,6.78-4.09,10.49,10.49,0,0,1,5.42-1.43,19.31,19.31,0,0,1,5.63-.85,20.56,20.56,0,0,1,6.18,1c6,.82,11.93,2.78,19.09,6.3,11.41,3.9,20,9.64,26.22,17.54,2.23,2.81,4.35,5.89,3.79,9.86a10.39,10.39,0,0,1-3.51,6.16c.41.88.89,1.79,1.4,2.75,2.48,4.7,5.87,11.13,2.8,19.13a10.79,10.79,0,0,1-7.81,7.6,20.38,20.38,0,0,1-10.51,2.44l-1.69,0a20.13,20.13,0,0,1-10.45,9.87L430.44,351l-.57,1.44.08,2.9c2,4,.53,7.94-.29,9.93-.19.86-.34,1.77-.51,2.73-.57,3.29-1.22,7-3.47,10.66L424.25,381l-2.66.58A46.38,46.38,0,0,1,411.72,382.54Z"/><path class="cls-2" d="M406.39,377.21a79.93,79.93,0,0,1-10.35-.77l-4.76-.63-.73-4.73a13.1,13.1,0,0,1,1.8-8.74l1.73-5.8.84-5.21,0-1.14c.17-5.12.33-10-.91-14.38A18.77,18.77,0,0,1,392.2,332c-2.89-.24-5.77-.48-8.64-.75-7.71-.71-10.9-4.68-12.12-7s-2.69-7.13,1-13.82a33.72,33.72,0,0,1,6.25-8.32,13.23,13.23,0,0,1-2.92-6.4c-2.09-5.17-.22-9.76.93-12.58.19-.48.39-.95.56-1.43l1.35-3.62,1.36-2.2a23.21,23.21,0,0,1,6.74-8.32l.83-.66a14.06,14.06,0,0,1,6.78-4.1,10.59,10.59,0,0,1,5.42-1.43,19.3,19.3,0,0,1,5.63-.84,20.2,20.2,0,0,1,6.18,1c6,.81,11.93,2.77,19.1,6.29,11.4,3.9,20,9.64,26.22,17.54,2.22,2.82,4.34,5.9,3.78,9.86a10.38,10.38,0,0,1-3.5,6.17c.41.87.88,1.78,1.39,2.74,2.48,4.7,5.87,11.13,2.8,19.13-1.33,4.06-4.11,6.74-7.81,7.6A20.38,20.38,0,0,1,443,333.27l-1.68,0a20.11,20.11,0,0,1-10.46,9.87l-5.78,2.55-.58,1.44.08,2.9c2,4,.53,7.94-.28,9.94-.19.85-.35,1.77-.52,2.73-.57,3.28-1.22,7-3.47,10.66l-1.43,2.31-2.66.57A46.31,46.31,0,0,1,406.39,377.21Z"/><path class="cls-3" d="M450.23,298.7c-2.1,2.22.33,3.59,1.07,5.2,2.52,5.47,6.69,10.52,4,17.2-1.71-2.11-2.43-4.89-4.56-6.71-3.6-5-3.94,1.21-5.93,1.72-1.42-.43-1.57-1.63-1.74-2.82-.05-1-.11-2.13.54-2.78,4-4.06.77-5.67-2.38-7.35a9,9,0,0,0-3.26-6.39c-4.74-4-8.11-9.8-14.58-11.73-.42-.13-.51-.8-.39-1.32.68-1.19,3.14-.76,2.79-2.69-.22-1.21-1.82-1-2.81-1.34a59.59,59.59,0,0,1-12.88-11.93c6.43.78,12.34,3.1,18.08,5.95,6.81,6.55,13.4,13.31,20,20C449.51,295,451.68,296.21,450.23,298.7Z"/><path class="cls-4" d="M423.28,283.59c8.11,2.52,12.19,9.92,18.21,15,2.05,1.72,1.29,2.95-.27,4.29.16,2.19-1.7,2.05-3,2.61-3.15.09-4.24-2.82-6.29-4.33-.55-2.13-1-4.34-3.87-4.49-6.12-5.5-11.7-11.55-17.56-17.33-2.11-4.76-7.19-7.09-9.57-11.63a13.15,13.15,0,0,1,9.17.07c5.47,2.46,8.35,8,13.25,11.14C423.77,280.47,424.22,282.05,423.28,283.59Z"/><path class="cls-5" d="M411.15,278.8a181.79,181.79,0,0,1,17.14,17.08,7.37,7.37,0,0,0,3.8,4.92c3.12-.27,3.38,3.77,6.13,4.06,3.63,1.45,4,5.28,5.94,8,.1,1.1-.13,2.34,1.16,3,1.07-.82,1.85-.26,2.58.54,1.07,2.8,4.86,4.52,3.33,8.35-3,2.19-6.52,2.23-10,2.11a1,1,0,0,1,0-1.19c2.92-1.44,1.21-2.54-.29-3.65-.07-3.17-2.43-3.53-4.79-3.9A27.53,27.53,0,0,0,427.34,304c-6.21-5.56-12-11.61-17.72-17.67a11.58,11.58,0,0,1-2.91-4.62,3.71,3.71,0,0,1,1.53-3.32A2.72,2.72,0,0,1,411.15,278.8Z"/><path class="cls-6" d="M397.05,326c-4.3-.37-8.61-.72-12.91-1.12-7.16-.65-9.56-5.07-6.09-11.32a23.55,23.55,0,0,1,7.64-8.82c2.74-.85,4,.39,4.19,3,0,1.18-1,2-1.13,3.16.64,1.76,2.31,1.58,3.69,1.93,3.88.91,5.61,4.1,7.57,7.06a6.11,6.11,0,0,1,.74,1.22,4.54,4.54,0,0,1,0,3.47,3.3,3.3,0,0,1-3,1.45Z"/><path class="cls-7" d="M400.13,324.89v-3.84c.4-1,1.62-1.06,2.3-2.09-1.64-.15-2.31,1-3.15,1.88-2.12-2.66-3.24-6.34-7.24-7-.31-1,.22-2.19-.63-3.09-.71-.71-1.79-1-2.31-1.89.2-2.47-.86-3.9-3.4-4.11,1.8-1.53,2.71-2.86.1-4.71-2-1.4-3.63-3.31-3.76-6-.74-3,.94-2.84,2.43-1.55,3.68,3.2,7.64,6.2,10,10.66-.83,3.14,2.2.67,2.74,1.83a9.26,9.26,0,0,1,1.24.37c1.4.6,3,.44,4.4,1a3.78,3.78,0,0,1,1.1.85,9.75,9.75,0,0,1,.83,1.19c2.67,3.95,5.55,7.76,8.07,11.81,3.34,5.36,2.55,6.86-3.71,7.06-.82,0-1.65,0-2.47,0s-1.46,0-2.19-.09a8.53,8.53,0,0,1-2.12-.45A3.88,3.88,0,0,1,400.13,324.89Z"/><path class="cls-8" d="M406.9,281.66c8.06,8.27,16.09,16.55,24.48,24.51,2.82,2.67,6.69,6.68,5,12.05a1.37,1.37,0,0,1-.38,1.89c-5.21-2.67-6.62-8.1-9.18-12.67-.53-.3,1.23-.91,0-.89a6.72,6.72,0,0,1-2.89-.22c-11.11-9.82-21.05-20.81-31.06-31.71-.77-.84-1.6-1.79-.89-3.1a7.68,7.68,0,0,1,5.12-2.78,34.1,34.1,0,0,1,6.51,8.55C403.57,279.61,405.64,280.33,406.9,281.66Z"/><path class="cls-9" d="M436.46,328a13.34,13.34,0,0,1-8.14,9.26c-2.72,1.21-5.45,2.4-8.17,3.6-4.7,1.19-9.15,3.14-13.78,4.54-1.48.44-2.95,1.62-4.58.35-.31-7.08-.32-7.14,6.36-9.65,6.16-2.32,12.58-4,18.48-7a31.56,31.56,0,0,1,3.74-1.36C432.41,327.58,434.51,326.07,436.46,328Z"/><path class="cls-10" d="M394.11,303.85q-5-5.22-10-10.44c-1-1.07-1.91-1.51-2.12.56-1.92-3.66.07-6.83,1.26-10.1,2.78-.25,3.76,2.1,5.28,3.66a8.6,8.6,0,0,1,.6,1.17c.71,2.08,2.33,2.87,4.36,3.09,2.65.54,4.15,2.51,5.68,4.49a24.79,24.79,0,0,0,6.73,6.5c1.27.76,2.93,1,3.67,2.5a2,2,0,0,1-.81,2.17,4.94,4.94,0,0,1-5.67-.59h0c-1.5-1.23-3.52.18-5-1h0C397,304.85,394.77,305.87,394.11,303.85Z"/><path class="cls-11" d="M392,271.52c8.24,9.93,17.31,19.08,26.48,28.15,2,2,3.81,4.11,5.72,6.18a2.47,2.47,0,0,1-.62,1.21l-.58.39a5,5,0,0,1-1.36.36,5.26,5.26,0,0,1-2.76-.5c-10.43-8.87-18.6-19.95-28.59-29.26-1.85-1.72-1.59-3.47,0-5.19Z"/><path class="cls-12" d="M450.23,298.7c-.25-2.63-2.58-3.7-4.05-5.4-5.8-6.7-13.5-11.66-18-19.59,9.26,3.11,17.52,7.8,23.66,15.58C455.57,294,455.25,295.09,450.23,298.7Z"/><path class="cls-13" d="M396.87,370.1a7.12,7.12,0,0,1,1.37-5.14c3.43-3.43,15.69-7.71,20-7-1,4-1.05,8.31-3.32,12A74.07,74.07,0,0,1,396.87,370.1Z"/><path class="cls-14" d="M427.19,330.17c-6.28,3.7-13.35,5.38-20.16,7.65-4.49,1.49-5.54,4-4.73,8.1,1.25,1.39,1.1,3,.74,4.63-.32.79-.75,1.44-1.74,1.4.19-6.37.6-12.74-1.42-18.94.72-1.94,2.57-2.22,4.18-2.85,1.88-.43,3.72-1.14,5.7-.88,4.2,3.42,5-1,6.84-3a3.26,3.26,0,0,1,2.85.3C421.13,329.73,425.33,327.44,427.19,330.17Z"/><path class="cls-15" d="M388.17,289l-.14-1.12c-.33-.76.13-1.2.62-1.64,1.48-1.43-.06-2.25-.68-3.22-.93-1.42-2.74-2.43-2-4.57a4.86,4.86,0,0,1,2-3c5.71,6.58,11.35,13.22,17.41,19.49,1.4,1.46,2.69,3,1.85,5.24a8.32,8.32,0,0,1-2,3.72,27.21,27.21,0,0,1-7.24-7.27c-1.22-1.76-2.46-3.56-4.9-3.77C393.74,288.6,390.13,289.83,388.17,289Z"/><path class="cls-16" d="M418.23,358l-20,7c.69-2.33,1.39-4.66,2.08-7,5.49-3.5,11.18-6.41,18-6.06C420,354,419.06,356,418.23,358Z"/><path class="cls-17" d="M406.16,299.91c1.18-2-.46-2.94-1.55-4.1-4.36-4.69-8.78-9.33-13-14.1-1.61-1.81-3.24-3.74-3.63-6.31a4.55,4.55,0,0,1,2.37-2.54c-.74,2.12-.17,3.57,1.5,5.28,9.24,9.45,18.26,19.12,27.36,28.71a2,2,0,0,1-1.94.51c-2.75-1.3-4.21-4.16-6.81-5.64C409.07,301,407.31,301.14,406.16,299.91Z"/><path class="cls-18" d="M427.19,306.87c3.35,4.1,5,9.38,9,13,1.87.35,3.11,1.7,4.5,2.82.61,1,1.27,2,.57,3.18,0,.31,0,.63,0,.94l-3.9.32a3.44,3.44,0,0,1-2.08.06c-2.57-1.43-3.48-4.19-5.09-6.38-1.37-1.87-2.65-3.71-5.23-3.91-.9-.28-1.75-.62-2-1.69.24-1.19,1.84-1.33,2-2.62-.78-1.24-2.6.32-3.29-1.18-.76-1.95.2-3.32,1.53-4.57h0A3.92,3.92,0,0,1,427.19,306.87Z"/><path class="cls-19" d="M402.17,351c0-1.68.08-3.37.13-5.05,4.93-2.74,10.49-3.77,15.69-5.78a1.8,1.8,0,0,1,2.16.72l-2,5.1C413.62,350.24,408.51,352.58,402.17,351Z"/><path class="cls-20" d="M402.17,351c5.7-.42,10.82-2.72,15.94-5,.06,2,.12,4,.17,6l-18,6.06,1-6Z"/><path class="cls-21" d="M403.11,277.65c-2.09-2.91-5.23-5.11-6-8.91,1.05-1.23,2.51-.9,3.85-1.05,4,3.13,8.33,6,10.19,11.11h-2.81C406.66,278.16,404.62,279.11,403.11,277.65Z"/><path class="cls-22" d="M451.23,324.73c0-3.32-3.72-4.74-4-7.91a5.21,5.21,0,0,1,4.09-2.94c2.74,1.62,4.36,3.87,4,7.22C454.7,323.14,453.55,324.59,451.23,324.73Z"/><path class="cls-23" d="M404.29,331.09,399.88,333c-1.58-2.1-2.11-4.61-2.83-7.05l.25-.43a16.48,16.48,0,0,1,3.44-.06c1.63,1,1.85,3,3,4.39A3.71,3.71,0,0,1,404.29,331.09Z"/><path class="cls-24" d="M385.93,278.41c1.64,2.21,3.4,4.33,4.89,6.63,1.75,2.69-.94,1.37-1.73,1.77-2.6-1.15-4.46-2.9-4.69-5.93Z"/><path class="cls-25" d="M396.87,370.1l18-.14C408.91,371.26,402.89,370.89,396.87,370.1Z"/><path class="cls-26" d="M384.4,280.88q2.34,3,4.69,5.93l-1.06,1-4.74-4Z"/><path class="cls-14" d="M435.19,326.89c.7.09,1.41.17,2.11.27l-.84.84-6.31.89c-.44-1.12.19-1.82,1-2.46a4.52,4.52,0,0,1,1.38-.43A4.23,4.23,0,0,1,435.19,326.89Z"/><path class="cls-27" d="M444.16,312.87c-3.26-1.72-3.69-5.54-5.94-8l3-2c2.18-.31,3.64.54,5,2.33s2.62,3.17-.39,4.4C444.33,310.2,444.2,311.51,444.16,312.87Z"/><path class="cls-28" d="M451.34,313.88a6.28,6.28,0,0,1-4.09,2.94l-1.93-1c-1-2.76.34-4.43,2.8-5.11S451,312.09,451.34,313.88Z"/><path class="cls-29" d="M423.28,283.59c-.69-1.58-1.41-3.16.1-4.69,2.11,0,4.86-.57,4.54,2.77C427.65,284.45,425.32,284.1,423.28,283.59Z"/><path class="cls-30" d="M432.09,300.8c-4.24.66-5.36-1.1-3.8-4.92C432,295.63,434.17,296.58,432.09,300.8Z"/><path class="cls-31" d="M440.11,322.7c-2,0-2.89-1.51-4-2.8.09-.56.17-1.12.25-1.68,1.53-.24,2.74-2.31,4.38-1.23,1.9,1.25.35,3.24.48,4.89A1,1,0,0,1,440.11,322.7Z"/><path class="cls-32" d="M403.11,277.65c1.71.53,4.32-3,5.23,1.15a3.77,3.77,0,0,1-1.44,2.86C404.56,281.34,401.75,281.46,403.11,277.65Z"/><path class="cls-33" d="M440.11,322.7l1.15-.82c1.68,0,3.68.07,3.7,2.24,0,2.64-2.34,1.46-3.74,1.78Z"/><path class="cls-34" d="M392.1,309.7c2.72,1.41,1.6,2.76-.07,4.09-1.95-.18-4.16.13-4.79-2.54C388.45,309.44,390.2,309.36,392.1,309.7Z"/><path class="cls-35" d="M399.27,320.84c-.93-3.11,1.1-3.74,3.42-3.94,1.28-.11,2.41.6,2.21,2-.44,3.06-3.13,1.52-4.78,2.13A1.6,1.6,0,0,0,399.27,320.84Z"/><path class="cls-36" d="M392.1,309.7l-4.86,1.55a1.89,1.89,0,0,1,1.85-2.44C390.13,309,391.29,308.76,392.1,309.7Z"/><path class="cls-37" d="M400.93,326l-3.63-.47c.8-.82,1.85-.57,2.83-.64a2.17,2.17,0,0,1,2,.91A.78.78,0,0,1,400.93,326Z"/><path class="cls-38" d="M406.07,325.94c2.51-.49,6.17,1.32,7.33-1.06s-2.09-4.5-3.45-6.69c-2.18-3.5-4.53-6.9-6.81-10.33,2-1.06,4.2-.1,6.26-.62a2.91,2.91,0,0,1,1.52.1c2.59,2.66,5.32,5.26,4.71,9.5-.16,1.85-.21,3.65,2.11,4.27,4.4.17,5.29,1.38,4,5.4-2.17.78-4.76-1.35-6.7,1-1.85.93-3.82.8-5.79.7C407.84,327.9,406.19,328,406.07,325.94Z"/><path class="cls-23" d="M406.07,325.94c1,1.06,2.43.69,3.65,1,.41,1,1.28,1.89.23,3l-5.66,1.17-.13-.14a5.32,5.32,0,0,1,.25-4.73Z"/><path class="cls-39" d="M410.14,307.86h-7c0-.34,0-.67,0-1h6a.73.73,0,1,1,1,1Z"/><path class="cls-40" d="M394.11,303.85l4,2c-1.59,0-3.24.17-4.59-.84S393.51,304.05,394.11,303.85Z"/><path class="cls-41" d="M398.12,305.86c1.69.25,3.61-.67,5,1C401.45,306.61,399.52,307.54,398.12,305.86Z"/><path class="cls-42" d="M427.19,306.87h-4l1-1c1.25,0,2.73-.33,3.71.2S427.58,306.67,427.19,306.87Z"/><path class="cls-43" d="M410.15,306.87l-1,0-.13-2.08c-.28-1.88.74-3,2.22-3.92a23.65,23.65,0,0,1,5.93,6C414.83,308.94,412.49,308.13,410.15,306.87Z"/><path class="cls-44" d="M388.17,289c.6-.2,1.22-.39,1.82-.6,1.51-.51,3.17-1.41,4.36.29s-.26,3-1.28,4.16C390.34,292.93,388.37,292.06,388.17,289Z"/><path class="cls-45" d="M411.24,300.85c0,1.74-1.08,2.85-2.22,3.92a5.87,5.87,0,0,1-3.81-.92,3.3,3.3,0,0,1,1-3.94C407.9,300,409.79,299.23,411.24,300.85Z"/><path class="cls-46" d="M431.09,327.17l-1.89-.25c-5.71-5.52-10.55-11.62-12.83-19.41,1.9-.52,4,.49,5.8-.64h1q-.49,2.53-1,5.07c.92.81,1.75,1.66,1,3a2.29,2.29,0,0,0,2,1c3,3.23,6.18,6.32,7,10.93Z"/><path class="cls-47" d="M422.17,306.87c-1.76,1.8-4,.66-6,1-1.67,1.52-3.34,1.23-5,0h-1c0-.33,0-.66,0-1l7,0h2Z"/><path class="cls-48" d="M416.45,327l-1.25-.32c2.19-1.52,4.65-.47,7-.77.24.2.32.4.24.61s-.16.3-.24.3l-3.08.19Z"/><path class="cls-49" d="M432.2,326.9c-2.44-3.58-5.56-6.73-7-10.94,4.2-.6,4.9,3.2,6.71,5.48a46.72,46.72,0,0,1,3.3,5.45Z"/><path class="cls-50" d="M423.16,315c-.32-1-.64-2-1-3,1.2-.67,1.89-2.65,3.75-1.64a2.17,2.17,0,0,1,1.05,2.58C426.5,315,425,315.34,423.16,315Z"/><path class="cls-51" d="M422.17,326.82v-.91c-.48-3-1.82-4.6-5.05-3-.38-2.23,1.1-5.38-2.89-5.82,2.12-4.1-3.08-5.77-3.07-9.18h5l13,19A19.1,19.1,0,0,1,422.17,326.82Z"/><path class="cls-52" d="M414.23,317.05c1.35.38,2.81-2,4-.07,1.28,2.12.39,4.12-1.08,5.89C414.38,321.81,414.19,319.49,414.23,317.05Z"/></svg>