<svg id="Layer_1" data-name="Layer 1" xmlns="http://www.w3.org/2000/svg" viewBox="0 0 512 512"><defs><style>.cls-1{opacity:0.5;}.cls-2{fill:#fff;}.cls-3{fill:#6715af;}.cls-4{fill:#a52682;}.cls-5{fill:#a52582;}.cls-6{fill:#a42883;}.cls-7{fill:#8637bf;}.cls-8{fill:#c014de;}.cls-9{fill:#b723cb;}.cls-10{fill:#883fb2;}.cls-11{fill:#7d009b;}.cls-12{fill:#ac5fd2;}.cls-13{fill:#bb818b;}.cls-14{fill:#a75ec1;}.cls-15{fill:#fefefe;}.cls-16{fill:#430e2d;}</style></defs><path class="cls-1" d="M194.6,250.08a10.7,10.7,0,0,1-3.55-.64c-3.89-1.39-6.41-4-8.44-6.13l-.18-.19q-.75-.78-1.44-1.56h-.68a60.7,60.7,0,0,1-8.32-.74l-1-.13a77.08,77.08,0,0,1-27.28-8.51c-6-3.26-10.17-6.83-13.22-11.23-5.3-7.62-5.94-16-1.87-24.26,4.19-8.5,10.61-14.59,16.35-19.42A83.55,83.55,0,0,1,160,167.11a45.37,45.37,0,0,1,14.58-13.28,8.19,8.19,0,0,1,4.3-1.3,7,7,0,0,1,3.3.83,8.46,8.46,0,0,1,3-.58,7.34,7.34,0,0,1,4.29,1.38l.26-.06a9.07,9.07,0,0,1,2.13-.27,7,7,0,0,1,5.37,2.42,7.18,7.18,0,0,1,1.67,5.34c19.26,2.49,37.87,9.63,56.5,21.66a30.46,30.46,0,0,1,12.23-11.59,49.14,49.14,0,0,1,13-4.8,10.26,10.26,0,0,1,2.19-.26,7.1,7.1,0,0,1,5.3,2.26A7.88,7.88,0,0,1,290,175.1c-.61,7.63-4.3,13.94-11.25,19.29-.82.63-1.65,1.22-2.54,1.8l.05,0c6.67,5.62,10.42,11.83,11.49,19,0,.16.05.33.08.51.31,1.66,1.14,6.09-2.39,9.15a7.32,7.32,0,0,1-4.78,1.76h0a10.58,10.58,0,0,1-4.78-1.35l-.46-.21c-8.92-3.58-15.06-8.3-19.17-14.76a163.4,163.4,0,0,1-19.38,13.6,130.83,130.83,0,0,1-33,14.22,9.54,9.54,0,0,1-1.1,6.89A9.12,9.12,0,0,1,194.6,250.08Z"/><path class="cls-2" d="M189.27,244.74a10.41,10.41,0,0,1-3.55-.64c-3.89-1.38-6.42-4-8.44-6.13l-.18-.18c-.51-.53-1-1-1.44-1.56H175a60.74,60.74,0,0,1-8.32-.73l-1-.14a77,77,0,0,1-27.29-8.5c-6-3.27-10.16-6.84-13.21-11.23-5.3-7.62-6-16-1.88-24.26,4.19-8.51,10.62-14.59,16.35-19.42a84.31,84.31,0,0,1,15.09-10.18,45.69,45.69,0,0,1,14.58-13.28,8.24,8.24,0,0,1,4.31-1.29,6.93,6.93,0,0,1,3.29.83,8.31,8.31,0,0,1,3-.58,7.24,7.24,0,0,1,4.28,1.38l.27-.07a9,9,0,0,1,2.12-.26,7,7,0,0,1,5.38,2.41,7.22,7.22,0,0,1,1.66,5.35c19.27,2.49,37.88,9.62,56.51,21.66a30.51,30.51,0,0,1,12.22-11.6,49.7,49.7,0,0,1,13-4.79,9.62,9.62,0,0,1,2.18-.27,7.13,7.13,0,0,1,5.31,2.27,7.9,7.9,0,0,1,1.85,6.23c-.62,7.63-4.3,14-11.26,19.3-.81.62-1.65,1.22-2.53,1.79l.05.05c6.66,5.62,10.42,11.83,11.48,19l.09.5c.31,1.67,1.13,6.1-2.4,9.16a7.28,7.28,0,0,1-4.77,1.76h0a10.54,10.54,0,0,1-4.78-1.35l-.46-.22c-8.92-3.57-15.06-8.29-19.18-14.75a160.55,160.55,0,0,1-19.38,13.59,130.45,130.45,0,0,1-33,14.23,9.59,9.59,0,0,1-1.1,6.89A9.12,9.12,0,0,1,189.27,244.74Z"/><path class="cls-3" d="M178.36,229.6c-4,.59-8-.06-11.88-.58a70.93,70.93,0,0,1-25-7.78c-4.29-2.35-8.2-5.18-11-9.26-3.92-5.65-4.43-11.61-1.39-17.78,3.46-7,8.86-12.4,14.74-17.36a77,77,0,0,1,15.18-10c.41.13,1,.09.69.83-4.05,2.64-8.38,4.85-12.19,7.89-6.15,4.9-11.87,10.17-16.06,16.95a18.75,18.75,0,0,0-3,11.13,3.66,3.66,0,0,0,.23,1.54c.17.41.34.83.47,1.26,1.23,4.25,4.08,7.31,7.39,10a44.13,44.13,0,0,0,12.32,6.83,72.79,72.79,0,0,0,16.17,4.22,12.57,12.57,0,0,1,1.39.16c1,.31,1.19-.37,1.43-1a56,56,0,0,0,2.57-9.35,67.21,67.21,0,0,0-1.51-31.51,48.72,48.72,0,0,0-6.93-14.37,5.13,5.13,0,0,1-1.24-2.26.79.79,0,0,1,.63-.64c1.21.18,1.68,1.19,2.28,2a54.82,54.82,0,0,1,9.26,25.3,69,69,0,0,1-.7,22.07,50.6,50.6,0,0,1-2.28,8.2c-.48,1.32-.13,1.72,1.26,1.81,2.09.15,4.19.32,6.29.43C178,228.54,178.57,228.76,178.36,229.6Z"/><path class="cls-3" d="M159.62,167.54l-.7-.74.44-.46a23,23,0,0,1,2-1.23c5.72-2.86,11.86-3.69,18.16-3.78,1.3,0,2.59,0,3.89,0a2,2,0,0,1,1.5.52c24.84,1.49,46.73,10.88,66.9,24.92.5.35,1,.67,1.55,1a1.24,1.24,0,0,1-.3,1.44.92.92,0,0,1-.52,0c-2.75-1.76-5.29-3.87-8.19-5.42-1.43-.83-2.74-1.88-4.22-2.65a144.53,144.53,0,0,0-21-10.18,13.13,13.13,0,0,0-2.46-.81c-2-.71-4-1.44-6-2A102.55,102.55,0,0,0,197,164.91a36.64,36.64,0,0,0-6-1c-4,.07-8-.58-12.08-.38-5,.25-10,.77-14.74,2.75-1.18.49-2.52.82-3,2.27l-.41.44C159.76,169,159.56,168.37,159.62,167.54Z"/><path class="cls-4" d="M252.94,189.08c.15-.43.29-.86.43-1.29,1.19-7.44,5.71-12.35,12.06-15.87a42.92,42.92,0,0,1,11.33-4.15c1.55-.36,1.62.23,1.52,1.48-.52,6.36-3.91,11-8.78,14.74a46,46,0,0,1-11.36,6.1,60.86,60.86,0,0,1,8.66,5.7c4.74,4,8.33,8.7,9.27,15,.2,1.32.75,3.08-.17,3.88-.73.64-2.29-.45-3.43-.9-7-2.79-13-6.69-16.87-13.43a24.54,24.54,0,0,1-2.23-5.91,2.35,2.35,0,0,1-.71-1.33,8,8,0,0,1-.1-1.55A4.47,4.47,0,0,1,252.94,189.08Z"/><path class="cls-3" d="M253.07,193.25l.3,1.21a162,162,0,0,1-25.12,18.61,122.74,122.74,0,0,1-36.78,14.87c-.47-.3-.73-.67-.38-1.23,2.17-1.13,4.65-1.25,6.9-2.1a25.23,25.23,0,0,0,3.5-1.07c3.78-1,7.33-2.77,11-4.07,2.39-1,4.64-2.32,7-3.42.48-.22,1-.45,1.42-.71a139.24,139.24,0,0,0,19.18-12.22c1.59-1.05,3-2.31,4.52-3.44,2.11-1.47,4-3.26,6-4.84C251.46,194.37,251.81,193.09,253.07,193.25Z"/><path class="cls-5" d="M161.18,165.63a2.26,2.26,0,0,1-1.82.71A38.64,38.64,0,0,1,172.58,154c1.1-.66,1.73-.52,1.6,1a16,16,0,0,0,.07,1.87,15.6,15.6,0,0,1,4.17-2.51c.69-.22,1.5-.76,2.09-.19s0,1.29-.06,2c0,.35-.16.7-.3,1.3a28.76,28.76,0,0,1,5.77-2.36c1.24-.3,1.41.14,1.25,1.21a14.24,14.24,0,0,1-2.25,5.66l-1.36,0c-.2-1.48,1-2.49,1.24-3.84.06-.41.38-.89,0-1.23s-.83,0-1.2.19a14.56,14.56,0,0,0-3.92,2.51,2.49,2.49,0,0,1-1.42.84c-.86.08-1.39-.19-.95-1.18s1.16-2,1-3.47a6.43,6.43,0,0,0-2.69,2.05,10.55,10.55,0,0,1-.95,1.15c-.47.44-1,.84-1.66.58s-.62-.85-.7-1.41.28-1.45-.31-1.74c-.78-.38-1.32.47-1.9.88a53.34,53.34,0,0,0-6.88,6.56A21.53,21.53,0,0,1,161.18,165.63Z"/><path class="cls-6" d="M191.08,226.9l.39,1c.18,1.72-1.13,2.44-2.41,3.32l1.79,1.25c1.73,1.28,2,2.29,1,4.16a2.91,2.91,0,0,1-3.94,1.41c-2.55-.91-4.35-2.84-6.16-4.73-1.16-1.21-2.24-2.5-3.35-3.75a1.37,1.37,0,0,0-.71-.9,10.53,10.53,0,0,1-3.68-5.92c-.52-1.8.49-3,2.4-3.11a5.25,5.25,0,0,1,1.68.06c4.61,1.21,9,2.9,12.68,6.07A1.63,1.63,0,0,1,191.08,226.9Z"/><path class="cls-7" d="M161.16,168.53c-.5-.65-1-1,.28-1.65,8-3.94,16.47-4.31,25.11-3.63,1.48.12,3,.12,4.47.17.19.68-.27,1.19-.5,1.75-1.38,3.48-.9,6.56,1.91,9.18.64.59,1.27,1.19,1.94,1.75a8.69,8.69,0,0,1,1.19,12.36c-.69.88-1.39,1.75-2.16,2.57-3.79,4-3.47,9.07.77,12.53a19.64,19.64,0,0,1,1.68,1.47c3.29,3.35,3.64,7.41,1,11.36a1.85,1.85,0,0,1-.85.45,100.66,100.66,0,0,1-22.05,1.63,3.22,3.22,0,0,1-2.29-.58,70.7,70.7,0,0,0,1.06-17.6c-.64-11.06-3.67-21.36-10.23-30.44A10.12,10.12,0,0,0,161.16,168.53Z"/><path class="cls-8" d="M159.62,167.54c.33.52.48,1.17,1.13,1.43a53,53,0,0,1,10.54,25.64,69.9,69.9,0,0,1-.48,22.91c-.35.75-1,.83-1.73.78a102.59,102.59,0,0,1-32.75-8c-2.66-1.15-5.44-2.1-7.7-4l-.41-1.11c0-.66.41-.64.85-.56.66.13,1.23.53,1.9.63,4.45,1.29,8.95,2,13.54.77a12.47,12.47,0,0,0,5.22-2.61c-5.49,4.07-11.81,3.76-18.31,1.95-1.21-.49-2.65-.51-3.53-1.68-.57-6.54,2.66-11.61,6.51-16.34a78.74,78.74,0,0,1,24.34-19.62A4.18,4.18,0,0,1,159.62,167.54Z"/><path class="cls-9" d="M128.63,206.31c3.28,1.46,6.53,3,9.85,4.36a97.5,97.5,0,0,0,25.6,6.56c1.7.2,3.47,0,5.14.62a1.82,1.82,0,0,0,1.59-.33,73.48,73.48,0,0,1-2.77,9.77c-.33.94-.73,1.44-1.71.72a.5.5,0,0,1,.48-.19c0-.26-.1,0-.12,0-.6,0-1.22-.16-1.79.15-10.45-1.65-20.41-4.63-28.89-11.25C132.56,214,129.63,210.81,128.63,206.31Z"/><path class="cls-10" d="M171.63,217.89c3.86,0,7.73.17,11.57,0,3.57-.19,7.12-.74,10.67-1.24.8-.11,1.59-.18,2.39-.21.14,1.32-1,1.91-1.67,2.71-1.55,1.87-3.07,3.7-3.39,6.23a1.18,1.18,0,0,1-.58.9c-3.6-3-7.87-4.65-12.27-6a6.28,6.28,0,0,0-1.84-.15c-1.88,0-2.54.94-2.07,2.77.57,2.22,2.14,3.88,3.21,5.83-2.62.27-5.2-.38-7.8-.34-1.2,0-1.16-.52-.84-1.37A71.66,71.66,0,0,0,171.63,217.89Z"/><path class="cls-11" d="M127.89,203.7l3.38,1.47c0,.24-.26.24-.38.37-.93.19-1.65-1.28-2.67-.34C127.74,204.78,127.92,204.22,127.89,203.7Z"/><path class="cls-7" d="M197,164.48a65.61,65.61,0,0,1,13.86,3.34c-.7,2.06.22,3.63,1.58,5A29.19,29.19,0,0,0,215,175c4.07,3.3,4.4,8.41.8,12.25a24.88,24.88,0,0,0-3.09,3.47,6.62,6.62,0,0,0,.86,8.82,20.89,20.89,0,0,0,2.2,2,7.81,7.81,0,0,1,3.26,8.16,1.34,1.34,0,0,1-.32.49,74.9,74.9,0,0,1-13.53,4.44,1.63,1.63,0,0,1-1.09-.06,2,2,0,0,1,0-1.8c.89-3.62-.34-6.44-3.19-8.68a10.28,10.28,0,0,1-4-5.26,8.37,8.37,0,0,1,1.25-7.44A36.14,36.14,0,0,1,201,188a7.84,7.84,0,0,0-.17-11.33c-.78-.8-1.62-1.53-2.46-2.27C195.46,171.83,194.85,167.21,197,164.48Z"/><path class="cls-7" d="M216.81,169.74a115.16,115.16,0,0,1,18.46,8.17c1.74.93,3.42,2,5.12,3,0,2.85-2.22,4.47-3.76,6.45a18.48,18.48,0,0,0-1.82,2.12,7.28,7.28,0,0,0,1.59,9c.65.57,1.46,1,1.84,1.82a.92.92,0,0,1-.05.54A60.88,60.88,0,0,1,226.44,207a1.1,1.1,0,0,1-1.07,0,12.67,12.67,0,0,0-4.89-6.58,7.88,7.88,0,0,1-1-11.83,31.55,31.55,0,0,0,3.23-3.6,7.07,7.07,0,0,0-1.5-9.83c-1.57-1.3-3.38-2.38-4.22-4.39A1.33,1.33,0,0,1,216.81,169.74Z"/><path class="cls-12" d="M197,164.48c-1.08,3.07-1.35,6.09.89,8.78.9,1.08,2.11,1.9,3.13,2.9,3.78,3.73,3.75,8.65,0,12.5-1.94,2-3.81,4.1-4,7.1a8.15,8.15,0,0,0,3.61,7.54c4.08,2.93,5.07,6.63,3.47,11.23a1.16,1.16,0,0,1-.44.41,36.75,36.75,0,0,1-5.65,1.41,1.35,1.35,0,0,1-1.36-.33c2.62-5.23,1.83-8.51-2.9-12.11a8.61,8.61,0,0,1-.88-13.08c2.32-2.39,4.45-4.82,4.19-8.55A8.21,8.21,0,0,0,194,176.4c-1.89-1.67-3.89-3.21-4.48-6a8.78,8.78,0,0,1,1.53-7A21.86,21.86,0,0,1,197,164.48Z"/><path class="cls-12" d="M216.81,169.74c1.17,2.36,3.35,3.72,5.17,5.48,3.28,3.15,3.84,7.28,0,11.54-1.19,1.33-2.65,2.4-3.45,4.11a7.4,7.4,0,0,0,2.23,9.24c2.31,1.79,4.72,3.56,4.67,6.95l-.1.27a20.13,20.13,0,0,1-5.63,2.59,1,1,0,0,1-1-.24,8.11,8.11,0,0,0-3.86-8.24,9.31,9.31,0,0,1-2.92-3.09c-1.74-3-1.11-6.57,1.62-9.48,1.18-1.26,2.58-2.3,3.36-3.94a7.37,7.37,0,0,0-2.34-9.66c-1.66-1.26-3.44-2.5-4.13-4.61-.32-1-1-2.12.46-2.84A39.82,39.82,0,0,1,216.81,169.74Z"/><path class="cls-12" d="M238.12,200.34c-2.31-1.47-4.13-3.3-4.61-6.17a6.71,6.71,0,0,1,1.56-5.84c2.09-2.29,4.19-4.5,5.32-7.45a22.68,22.68,0,0,1,4.1,2.59c.79.61.63,1.25.06,1.9s-1.31,1.31-1.9,2a7.38,7.38,0,0,0-.76,9,2.92,2.92,0,0,1,.56,1.36A4.94,4.94,0,0,1,238.12,200.34Z"/><path class="cls-13" d="M161.18,165.63a41.17,41.17,0,0,1,9.75-9.65c.44-.32.91-.89,1.45-.65s.23,1,.34,1.52c0,.12,0,.25,0,.37.12.64-.39,1.58.35,1.86.94.37,1.38-.61,1.82-1.25a9.3,9.3,0,0,1,2.91-2.57c.3-.19.79-.41,1-.29.44.25.21.76.13,1.18a10.4,10.4,0,0,1-1.58,3.65c.92.44,1.43-.11,1.94-.61a15.94,15.94,0,0,1,5.06-3.11c.83-.35,1.43-.41,1.15.93a17.89,17.89,0,0,1-2,4.81c-5.4,0-10.8.09-16.08,1.52C165.31,163.93,163.29,164.9,161.18,165.63Z"/><path class="cls-7" d="M242.24,197.72c-3.42-4.13-2.14-8.79,1-11.73.68-.62,2-1.13,1.21-2.52a43.57,43.57,0,0,1,8.24,5.61,1.33,1.33,0,0,1-.31,1.69,53.51,53.51,0,0,1-9.69,7.17A.72.72,0,0,1,242.24,197.72Z"/><path class="cls-10" d="M242.61,197.73c3.23-2.21,6.36-4.56,9.36-7.08a2,2,0,0,0,.76-1.57.38.38,0,0,0,.21,0l.06,2.66c-.77,1.09-1.49,2.22-2.2,3.36a46.37,46.37,0,0,1-6,4.88C243.89,199.44,242.65,199.18,242.61,197.73Z"/><path class="cls-13" d="M275.46,214a36.66,36.66,0,0,1-10.64-5c-5.39-3.78-9.54-8.47-10.77-15.22-.26-1.47-.82-3.33.06-4.27.64-.69,2.27.73,3.41,1.29,6.22,3.07,11.69,7.06,15.33,13.12A17.68,17.68,0,0,1,275.46,214Z"/><path class="cls-13" d="M277.5,169.41a18.81,18.81,0,0,1-6.64,12.46,38.9,38.9,0,0,1-11.78,7,4.74,4.74,0,0,1-2.14.59c-2.24-.2-3-1.23-2.42-3.45,1.33-5.45,4.78-9.3,9.35-12.29a41.27,41.27,0,0,1,12.16-5C277.13,168.41,277.78,168.55,277.5,169.41Z"/><path class="cls-10" d="M250.8,195.1a4.88,4.88,0,0,1,2.2-3.36c0,.5.05,1,.07,1.51Z"/><path class="cls-10" d="M203.75,214.54h.35c4.93-1.25,9.71-3,14.57-4.48.12,1.73-.95,2.87-2,4a17.54,17.54,0,0,0-4,5.11,1.42,1.42,0,0,1-.57.57c-3.45,1.56-7.09,2.64-10.54,4.21a9.45,9.45,0,0,1-3.42,1.09c-1-1.72-.34-3.25.61-4.69A55.06,55.06,0,0,1,203.75,214.54Z"/><path class="cls-10" d="M225.44,207.06c4.42-1.74,8.43-4.29,12.69-6.35.91-.46,1.15.33,1.46.85a7.33,7.33,0,0,1,.82,1.8,109.8,109.8,0,0,1-19.47,12.34.8.8,0,0,1,.22-1,13,13,0,0,0,4.26-7.62Z"/><path class="cls-14" d="M203.75,214.54c-.58,2.16-2.52,3.27-3.81,4.88a7.23,7.23,0,0,0-1.81,5.59,49,49,0,0,1-7.06,1.89l-.45-.66c.07-3.64,2.42-6.06,4.58-8.58.36-.41.71-.84,1.06-1.26l.39-.38A66.28,66.28,0,0,0,203.75,214.54Z"/><path class="cls-14" d="M225.42,207.07c.28,2.81-1,5-2.92,6.84a5.82,5.82,0,0,0-1.56,1.79l-1.14.67c-1.89.42-3.45,1.58-5.23,2.25-.71.27-1.36,1-2.23.4a8.58,8.58,0,0,1,2.79-4.05,13.39,13.39,0,0,0,3.54-4.92c0-.12,0-.25,0-.37C221.1,209.24,223.18,207.94,225.42,207.07Z"/><path class="cls-14" d="M240.41,203.36c-.84,0-.76-.8-1-1.27s-.39-1.31-1.23-1.38c0-.12,0-.25,0-.37a14,14,0,0,0,4.12-2.62h.37c.42,1.07,1.82,1.17,2.24,2.25A33.11,33.11,0,0,1,240.41,203.36Z"/><path class="cls-10" d="M201.55,223.92c0-.84.73-.69,1.21-.88L212,219.4c.21.21.6.06.75.38A75.66,75.66,0,0,1,201.55,223.92Z"/><path class="cls-14" d="M212.72,219.78a.8.8,0,0,1-.75-.38l.37-.38a45.12,45.12,0,0,0,5.83-2.33c.5-.21,1-.94,1.63-.32A64,64,0,0,1,212.72,219.78Z"/><path class="cls-13" d="M177.52,220.86a14.49,14.49,0,0,1,3.75,1.18,30,30,0,0,1,8.06,4.18c1.82,1.42,1.82,2.69-.12,3.94-1.31.85-1.37,1.45,0,2.21.49.27.91.64,1.38.95,1.28.82,1.22,1.86.51,3s-1.6,1.66-3,1a11.79,11.79,0,0,1-3-1.87A39,39,0,0,1,175.31,223C174.59,221.47,175.06,220.88,177.52,220.86Z"/><path class="cls-12" d="M174.35,176.81a11.32,11.32,0,0,1-5.25-.71c-.71-.33-1.55-.53-1.61-1.59a2.26,2.26,0,0,1,1.33-2.07,15.05,15.05,0,0,1,6.84-2.21c2.76-.27,5.59-.58,8.31.32.92.3,2.18.49,2.2,1.91s-.94,1.81-1.89,2.3A19.64,19.64,0,0,1,174.35,176.81Z"/><path class="cls-15" d="M149.59,198.85a9.84,9.84,0,0,1,.1-19.67,9.94,9.94,0,0,1,9.83,9.91A9.83,9.83,0,0,1,149.59,198.85Z"/><path class="cls-11" d="M130.89,205.54l.38-.37c5,1.11,10,1.66,14.95-.28,1.8-.71,3.21-2,5.11-3.14a4.52,4.52,0,0,1-2,2.61c-3.65,2.6-7.81,3.06-12.08,2.58A58.22,58.22,0,0,1,130.89,205.54Z"/><path class="cls-16" d="M149.38,184.8c-1.21,2.18-.85,2.9,1.52,2.77,1-.06.74.63.77,1.05a4.61,4.61,0,0,1-4.21,4.61,4.71,4.71,0,0,1-5.31-4,4.65,4.65,0,0,1,3.83-4.92A4.76,4.76,0,0,1,149.38,184.8Z"/><path class="cls-9" d="M164.9,228c.68-.66,1.48-.19,2.3-.37-.24.53-.6.34-.87.43Z"/><path class="cls-1" d="M369.54,250.08a10.66,10.66,0,0,1-3.55-.64c-3.89-1.39-6.42-4-8.45-6.13l-.18-.19c-.5-.52-1-1-1.43-1.56h-.68a60.42,60.42,0,0,1-8.32-.74l-1-.13a77.14,77.14,0,0,1-27.28-8.51c-6-3.26-10.16-6.83-13.22-11.23-5.29-7.62-5.94-16-1.87-24.26,4.19-8.5,10.62-14.59,16.35-19.42A84.26,84.26,0,0,1,335,167.11a45.37,45.37,0,0,1,14.58-13.28,8.25,8.25,0,0,1,4.3-1.3,6.93,6.93,0,0,1,3.3.83,8.48,8.48,0,0,1,3-.58,7.33,7.33,0,0,1,4.28,1.38l.27-.06a9,9,0,0,1,2.12-.27,6.93,6.93,0,0,1,5.37,2.42,7.14,7.14,0,0,1,1.67,5.34c19.27,2.49,37.87,9.63,56.5,21.66a30.46,30.46,0,0,1,12.23-11.59,49.41,49.41,0,0,1,13-4.8,10.26,10.26,0,0,1,2.19-.26,7.13,7.13,0,0,1,5.31,2.26,7.86,7.86,0,0,1,1.84,6.24c-.61,7.63-4.29,13.94-11.25,19.29-.81.63-1.65,1.22-2.53,1.8l.05,0c6.66,5.62,10.42,11.83,11.48,19,0,.16.06.33.09.51.31,1.66,1.13,6.09-2.4,9.15a7.28,7.28,0,0,1-4.78,1.76h0a10.58,10.58,0,0,1-4.78-1.35l-.45-.21c-8.92-3.58-15.07-8.3-19.18-14.76a162.59,162.59,0,0,1-19.38,13.6,130.77,130.77,0,0,1-33,14.22,9.6,9.6,0,0,1-1.11,6.89A9.12,9.12,0,0,1,369.54,250.08Z"/><path class="cls-2" d="M364.2,244.74a10.45,10.45,0,0,1-3.55-.64c-3.89-1.38-6.41-4-8.44-6.13l-.18-.18q-.75-.79-1.44-1.56h-.68a60.74,60.74,0,0,1-8.32-.73l-1-.14a76.87,76.87,0,0,1-27.28-8.5c-6-3.27-10.17-6.84-13.22-11.23-5.3-7.62-5.94-16-1.87-24.26,4.19-8.51,10.61-14.59,16.35-19.42a83.6,83.6,0,0,1,15.09-10.18,45.48,45.48,0,0,1,14.58-13.28,8.18,8.18,0,0,1,4.3-1.29,7,7,0,0,1,3.3.83,8.25,8.25,0,0,1,3-.58,7.27,7.27,0,0,1,4.29,1.38l.26-.07a9,9,0,0,1,2.13-.26,7,7,0,0,1,5.37,2.41,7.22,7.22,0,0,1,1.67,5.35c19.26,2.49,37.87,9.62,56.5,21.66a30.54,30.54,0,0,1,12.23-11.6,49.49,49.49,0,0,1,13-4.79,9.7,9.7,0,0,1,2.19-.27,7.1,7.1,0,0,1,5.3,2.27,7.86,7.86,0,0,1,1.85,6.23c-.61,7.63-4.3,14-11.25,19.3-.82.62-1.66,1.22-2.54,1.79l.05.05c6.67,5.62,10.42,11.83,11.48,19l.09.5c.31,1.67,1.14,6.1-2.39,9.16a7.32,7.32,0,0,1-4.78,1.76h0a10.58,10.58,0,0,1-4.78-1.35c-.16-.08-.31-.16-.46-.22-8.92-3.57-15.06-8.29-19.17-14.75a162.15,162.15,0,0,1-19.38,13.59,130.51,130.51,0,0,1-33,14.23,9.54,9.54,0,0,1-1.1,6.89A9.11,9.11,0,0,1,364.2,244.74Z"/><path class="cls-3" d="M353.29,229.6c-4,.59-8-.06-11.87-.58a71,71,0,0,1-25.06-7.78c-4.29-2.35-8.2-5.18-11-9.26-3.92-5.65-4.43-11.61-1.38-17.78,3.45-7,8.85-12.4,14.73-17.36a77.57,77.57,0,0,1,15.18-10c.41.13,1,.09.7.83-4.06,2.64-8.38,4.85-12.19,7.89-6.15,4.9-11.88,10.17-16.06,16.95a18.6,18.6,0,0,0-3,11.13,3.51,3.51,0,0,0,.23,1.54c.16.41.34.83.46,1.26,1.23,4.25,4.08,7.31,7.39,10a44.19,44.19,0,0,0,12.33,6.83,72.65,72.65,0,0,0,16.17,4.22,13.15,13.15,0,0,1,1.39.16c.95.31,1.18-.37,1.42-1a57,57,0,0,0,2.58-9.35,67.21,67.21,0,0,0-1.52-31.51,48.47,48.47,0,0,0-6.93-14.37,5,5,0,0,1-1.23-2.26.78.78,0,0,1,.63-.64c1.2.18,1.68,1.19,2.27,2a54.82,54.82,0,0,1,9.26,25.3,69,69,0,0,1-.7,22.07,50.6,50.6,0,0,1-2.28,8.2c-.48,1.32-.12,1.72,1.27,1.81,2.09.15,4.18.32,6.28.43C352.91,228.54,353.5,228.76,353.29,229.6Z"/><path class="cls-3" d="M334.56,167.54l-.71-.74.44-.46a23,23,0,0,1,2-1.23c5.72-2.86,11.87-3.69,18.16-3.78,1.3,0,2.6,0,3.89,0a2,2,0,0,1,1.5.52c24.84,1.49,46.74,10.88,66.9,24.92.51.35,1,.67,1.55,1a1.22,1.22,0,0,1-.3,1.44.89.89,0,0,1-.51,0c-2.76-1.76-5.3-3.87-8.19-5.42-1.44-.83-2.74-1.88-4.22-2.65a145.53,145.53,0,0,0-21-10.18,13.47,13.47,0,0,0-2.47-.81c-2-.71-3.94-1.44-6-2a102.78,102.78,0,0,0-13.72-3.24,36.82,36.82,0,0,0-6-1c-4,.07-8-.58-12.09-.38-5,.25-10,.77-14.73,2.75-1.18.49-2.53.82-3,2.27l-.41.44C334.69,169,334.49,168.37,334.56,167.54Z"/><path class="cls-4" d="M427.88,189.08l.42-1.29c1.19-7.44,5.71-12.35,12.06-15.87a43,43,0,0,1,11.33-4.15c1.55-.36,1.62.23,1.52,1.48-.51,6.36-3.9,11-8.78,14.74a46.08,46.08,0,0,1-11.35,6.1,60.75,60.75,0,0,1,8.65,5.7c4.74,4,8.34,8.7,9.28,15,.19,1.32.75,3.08-.18,3.88-.73.64-2.29-.45-3.43-.9-6.95-2.79-13-6.69-16.87-13.43a24.54,24.54,0,0,1-2.23-5.91,2.35,2.35,0,0,1-.71-1.33,8.91,8.91,0,0,1-.1-1.55A4.39,4.39,0,0,1,427.88,189.08Z"/><path class="cls-3" d="M428,193.25c.1.41.19.81.29,1.21a162,162,0,0,1-25.12,18.61,122.74,122.74,0,0,1-36.78,14.87c-.47-.3-.73-.67-.38-1.23,2.17-1.13,4.65-1.25,6.91-2.1a25.52,25.52,0,0,0,3.49-1.07c3.79-1,7.33-2.77,11-4.07,2.4-1,4.64-2.32,7-3.42.48-.22,1-.45,1.42-.71a138.75,138.75,0,0,0,19.19-12.22c1.58-1.05,3-2.31,4.52-3.44,2.1-1.47,3.94-3.26,5.95-4.84C426.39,194.37,426.74,193.09,428,193.25Z"/><path class="cls-5" d="M336.12,165.63a2.29,2.29,0,0,1-1.83.71A38.64,38.64,0,0,1,347.51,154c1.11-.66,1.73-.52,1.6,1a14.27,14.27,0,0,0,.08,1.87,15.55,15.55,0,0,1,4.16-2.51c.7-.22,1.5-.76,2.09-.19s0,1.29-.06,2c0,.35-.16.7-.3,1.3a28.76,28.76,0,0,1,5.77-2.36c1.25-.3,1.41.14,1.25,1.21a14.1,14.1,0,0,1-2.25,5.66l-1.35,0c-.21-1.48,1-2.49,1.23-3.84.07-.41.38-.89,0-1.23s-.82,0-1.2.19a14.51,14.51,0,0,0-3.91,2.51,2.51,2.51,0,0,1-1.43.84c-.86.08-1.38-.19-.95-1.18s1.16-2,1-3.47a6.56,6.56,0,0,0-2.69,2.05,10.55,10.55,0,0,1-.95,1.15c-.47.44-1,.84-1.66.58s-.62-.85-.7-1.41.28-1.45-.31-1.74c-.78-.38-1.32.47-1.89.88a53.42,53.42,0,0,0-6.89,6.56A22.73,22.73,0,0,1,336.12,165.63Z"/><path class="cls-6" d="M366,226.9l.39,1c.18,1.72-1.13,2.44-2.4,3.32.68.48,1.24.86,1.78,1.25,1.73,1.28,2,2.29,1,4.16a2.92,2.92,0,0,1-3.95,1.41c-2.55-.91-4.35-2.84-6.16-4.73-1.16-1.21-2.23-2.5-3.35-3.75a1.37,1.37,0,0,0-.71-.9,10.58,10.58,0,0,1-3.68-5.92c-.52-1.8.49-3,2.41-3.11a5.19,5.19,0,0,1,1.67.06c4.61,1.21,9,2.9,12.68,6.07A1.58,1.58,0,0,1,366,226.9Z"/><path class="cls-7" d="M336.1,168.53c-.51-.65-1-1,.28-1.65,8-3.94,16.46-4.31,25.1-3.63,1.49.12,3,.12,4.48.17.18.68-.28,1.19-.5,1.75-1.38,3.48-.91,6.56,1.91,9.18.64.59,1.26,1.19,1.93,1.75a8.68,8.68,0,0,1,1.19,12.36c-.69.88-1.39,1.75-2.16,2.57-3.78,4-3.47,9.07.77,12.53a19.64,19.64,0,0,1,1.68,1.47c3.29,3.35,3.64,7.41,1,11.36a1.93,1.93,0,0,1-.86.45,100.62,100.62,0,0,1-22,1.63,3.19,3.19,0,0,1-2.28-.58,70.22,70.22,0,0,0,1.05-17.6c-.64-11.06-3.67-21.36-10.22-30.44A11.58,11.58,0,0,0,336.1,168.53Z"/><path class="cls-8" d="M334.56,167.54c.32.52.48,1.17,1.13,1.43a53.1,53.1,0,0,1,10.53,25.64,69.9,69.9,0,0,1-.47,22.91,1.54,1.54,0,0,1-1.73.78,102.52,102.52,0,0,1-32.75-8c-2.67-1.15-5.45-2.1-7.7-4l-.42-1.11c0-.66.41-.64.85-.56.66.13,1.24.53,1.9.63,4.46,1.29,9,2,13.54.77a12.51,12.51,0,0,0,5.23-2.61c-5.5,4.07-11.82,3.76-18.32,1.95-1.21-.49-2.64-.51-3.52-1.68-.57-6.54,2.66-11.61,6.5-16.34a78.74,78.74,0,0,1,24.34-19.62A4.13,4.13,0,0,1,334.56,167.54Z"/><path class="cls-9" d="M303.57,206.31c3.28,1.46,6.52,3,9.85,4.36A97.43,97.43,0,0,0,339,217.23c1.71.2,3.48,0,5.14.62a1.84,1.84,0,0,0,1.6-.33,73.52,73.52,0,0,1-2.78,9.77c-.33.94-.73,1.44-1.7.72a.48.48,0,0,1,.47-.19c0-.26-.09,0-.12,0-.59,0-1.21-.16-1.78.15-10.46-1.65-20.41-4.63-28.9-11.25C307.5,214,304.56,210.81,303.57,206.31Z"/><path class="cls-10" d="M346.57,217.89c3.85,0,7.72.17,11.57,0,3.56-.19,7.12-.74,10.66-1.24q1.2-.17,2.4-.21c.13,1.32-1,1.91-1.68,2.71-1.55,1.87-3.07,3.7-3.38,6.23a1.22,1.22,0,0,1-.59.9c-3.59-3-7.86-4.65-12.27-6a6.23,6.23,0,0,0-1.84-.15c-1.88,0-2.54.94-2.07,2.77.58,2.22,2.15,3.88,3.21,5.83-2.62.27-5.2-.38-7.8-.34-1.2,0-1.16-.52-.84-1.37A71.7,71.7,0,0,0,346.57,217.89Z"/><path class="cls-11" d="M302.83,203.7l3.37,1.47c0,.24-.26.24-.37.37-.93.19-1.66-1.28-2.68-.34C302.68,204.78,302.85,204.22,302.83,203.7Z"/><path class="cls-7" d="M372,164.48a65.46,65.46,0,0,1,13.86,3.34c-.7,2.06.23,3.63,1.58,5a27.9,27.9,0,0,0,2.54,2.19c4.06,3.3,4.39,8.41.79,12.25a24.81,24.81,0,0,0-3.08,3.47,6.61,6.61,0,0,0,.85,8.82,21,21,0,0,0,2.21,2,7.82,7.82,0,0,1,3.25,8.16,1.32,1.32,0,0,1-.31.49,74.75,74.75,0,0,1-13.54,4.44,1.64,1.64,0,0,1-1.09-.06,2.07,2.07,0,0,1,0-1.8c.9-3.62-.34-6.44-3.19-8.68a10.33,10.33,0,0,1-4-5.26,8.34,8.34,0,0,1,1.26-7.44,34.59,34.59,0,0,1,2.83-3.45,7.84,7.84,0,0,0-.16-11.33c-.79-.8-1.63-1.53-2.47-2.27C370.39,171.83,369.78,167.21,372,164.48Z"/><path class="cls-7" d="M391.75,169.74a115.05,115.05,0,0,1,18.45,8.17c1.74.93,3.42,2,5.13,3-.05,2.85-2.23,4.47-3.77,6.45a17.46,17.46,0,0,0-1.81,2.12,7.29,7.29,0,0,0,1.58,9c.65.57,1.47,1,1.85,1.82a1,1,0,0,1-.06.54A60.59,60.59,0,0,1,401.37,207a1.1,1.1,0,0,1-1.07,0,12.67,12.67,0,0,0-4.89-6.58,7.88,7.88,0,0,1-1-11.83,31.55,31.55,0,0,0,3.23-3.6,7.07,7.07,0,0,0-1.5-9.83c-1.57-1.3-3.38-2.38-4.22-4.39C391.8,170.46,391.59,170.14,391.75,169.74Z"/><path class="cls-12" d="M372,164.48c-1.07,3.07-1.34,6.09.9,8.78.9,1.08,2.11,1.9,3.12,2.9,3.78,3.73,3.76,8.65,0,12.5-1.94,2-3.81,4.1-4,7.1a8.15,8.15,0,0,0,3.61,7.54c4.09,2.93,5.07,6.63,3.48,11.23a1.24,1.24,0,0,1-.44.41,36.59,36.59,0,0,1-5.66,1.41,1.34,1.34,0,0,1-1.35-.33c2.61-5.23,1.82-8.51-2.91-12.11a8.61,8.61,0,0,1-.87-13.08c2.31-2.39,4.44-4.82,4.19-8.55a8.25,8.25,0,0,0-3.09-5.88c-1.9-1.67-3.9-3.21-4.49-6a8.79,8.79,0,0,1,1.54-7A21.79,21.79,0,0,1,372,164.48Z"/><path class="cls-12" d="M391.75,169.74c1.17,2.36,3.34,3.72,5.16,5.48,3.28,3.15,3.84,7.28,0,11.54-1.2,1.33-2.66,2.4-3.46,4.11a7.4,7.4,0,0,0,2.24,9.24c2.3,1.79,4.72,3.56,4.66,6.95,0,.09-.06.18-.1.27-1.66,1.31-3.69,1.86-5.62,2.59a.94.94,0,0,1-1-.24,8.14,8.14,0,0,0-3.86-8.24,9.44,9.44,0,0,1-2.93-3.09c-1.74-3-1.11-6.57,1.62-9.48,1.18-1.26,2.58-2.3,3.36-3.94a7.35,7.35,0,0,0-2.34-9.66c-1.66-1.26-3.44-2.5-4.13-4.61-.32-1-1-2.12.46-2.84A40.32,40.32,0,0,1,391.75,169.74Z"/><path class="cls-12" d="M413.06,200.34c-2.32-1.47-4.14-3.3-4.62-6.17a6.71,6.71,0,0,1,1.57-5.84c2.08-2.29,4.19-4.5,5.32-7.45a23.4,23.4,0,0,1,4.1,2.59c.78.61.62,1.25.06,1.9s-1.32,1.31-1.91,2a7.38,7.38,0,0,0-.76,9,2.82,2.82,0,0,1,.56,1.36A4.94,4.94,0,0,1,413.06,200.34Z"/><path class="cls-13" d="M336.12,165.63a41.13,41.13,0,0,1,9.74-9.65c.45-.32.91-.89,1.46-.65s.22,1,.33,1.52c0,.12,0,.25,0,.37.12.64-.38,1.58.35,1.86.94.37,1.39-.61,1.83-1.25a9.19,9.19,0,0,1,2.91-2.57c.29-.19.79-.41,1-.29.43.25.21.76.12,1.18a10.37,10.37,0,0,1-1.57,3.65c.92.44,1.42-.11,1.94-.61a15.89,15.89,0,0,1,5.05-3.11c.84-.35,1.43-.41,1.16.93a18.22,18.22,0,0,1-2,4.81c-5.41,0-10.81.09-16.09,1.52C340.24,163.93,338.22,164.9,336.12,165.63Z"/><path class="cls-7" d="M417.17,197.72c-3.42-4.13-2.14-8.79,1-11.73.68-.62,2-1.13,1.22-2.52a43.18,43.18,0,0,1,8.23,5.61,1.33,1.33,0,0,1-.31,1.69,53.79,53.79,0,0,1-9.68,7.17A.72.72,0,0,1,417.17,197.72Z"/><path class="cls-10" d="M417.54,197.73c3.23-2.21,6.37-4.56,9.37-7.08a2,2,0,0,0,.75-1.57.41.41,0,0,0,.22,0c0,.89,0,1.77.05,2.66-.77,1.09-1.49,2.22-2.19,3.36a46.47,46.47,0,0,1-6,4.88C418.82,199.44,417.58,199.18,417.54,197.73Z"/><path class="cls-13" d="M450.39,214a36.79,36.79,0,0,1-10.64-5c-5.39-3.78-9.54-8.47-10.76-15.22-.27-1.47-.83-3.33.05-4.27.65-.69,2.27.73,3.41,1.29,6.22,3.07,11.69,7.06,15.33,13.12A17.68,17.68,0,0,1,450.39,214Z"/><path class="cls-13" d="M452.43,169.41a18.81,18.81,0,0,1-6.64,12.46,38.9,38.9,0,0,1-11.78,7,4.73,4.73,0,0,1-2.13.59c-2.25-.2-3-1.23-2.43-3.45,1.34-5.45,4.79-9.3,9.35-12.29a41.27,41.27,0,0,1,12.16-5C452.06,168.41,452.72,168.55,452.43,169.41Z"/><path class="cls-10" d="M425.74,195.1a4.87,4.87,0,0,1,2.19-3.36c0,.5.05,1,.08,1.51Z"/><path class="cls-10" d="M378.68,214.54H379c4.93-1.25,9.71-3,14.56-4.48.12,1.73-.94,2.87-2,4a17.4,17.4,0,0,0-4,5.11,1.4,1.4,0,0,1-.56.57c-3.45,1.56-7.1,2.64-10.55,4.21a9.39,9.39,0,0,1-3.42,1.09c-1-1.72-.33-3.25.62-4.69A53.82,53.82,0,0,1,378.68,214.54Z"/><path class="cls-10" d="M400.37,207.06c4.42-1.74,8.43-4.29,12.69-6.35.92-.46,1.15.33,1.46.85a7.33,7.33,0,0,1,.82,1.8,109.08,109.08,0,0,1-19.47,12.34.8.8,0,0,1,.22-1,13,13,0,0,0,4.26-7.62Z"/><path class="cls-14" d="M378.68,214.54c-.58,2.16-2.52,3.27-3.81,4.88a7.27,7.27,0,0,0-1.81,5.59A49.21,49.21,0,0,1,366,226.9l-.46-.66c.07-3.64,2.42-6.06,4.58-8.58.36-.41.71-.84,1.07-1.26l.39-.38A66.1,66.1,0,0,0,378.68,214.54Z"/><path class="cls-14" d="M400.35,207.07c.28,2.81-1,5-2.91,6.84a6,6,0,0,0-1.57,1.79l-1.14.67c-1.88.42-3.45,1.58-5.23,2.25-.7.27-1.36,1-2.22.4a8.49,8.49,0,0,1,2.78-4.05,13.39,13.39,0,0,0,3.54-4.92l0-.37C396,209.24,398.11,207.94,400.35,207.07Z"/><path class="cls-14" d="M415.34,203.36c-.84,0-.75-.8-1-1.27s-.4-1.31-1.24-1.38v-.37a14,14,0,0,0,4.11-2.62h.37c.43,1.07,1.82,1.17,2.24,2.25A32.49,32.49,0,0,1,415.34,203.36Z"/><path class="cls-10" d="M376.48,223.92c0-.84.74-.69,1.21-.88l9.22-3.64c.2.21.59.06.74.38A75.24,75.24,0,0,1,376.48,223.92Z"/><path class="cls-14" d="M387.65,219.78a.79.79,0,0,1-.74-.38l.37-.38a45,45,0,0,0,5.82-2.33c.5-.21,1-.94,1.63-.32A64,64,0,0,1,387.65,219.78Z"/><path class="cls-13" d="M352.46,220.86A14.56,14.56,0,0,1,356.2,222a29.85,29.85,0,0,1,8.06,4.18c1.82,1.42,1.82,2.69-.12,3.94-1.31.85-1.37,1.45,0,2.21.48.27.91.64,1.37.95,1.28.82,1.22,1.86.51,3s-1.6,1.66-3,1a11.85,11.85,0,0,1-3-1.87A39.06,39.06,0,0,1,350.25,223C349.52,221.47,350,220.88,352.46,220.86Z"/><path class="cls-12" d="M349.28,176.81a11.33,11.33,0,0,1-5.25-.71c-.7-.33-1.55-.53-1.61-1.59a2.27,2.27,0,0,1,1.33-2.07,15.09,15.09,0,0,1,6.84-2.21c2.76-.27,5.6-.58,8.31.32.92.3,2.18.49,2.2,1.91s-.94,1.81-1.88,2.3A19.7,19.7,0,0,1,349.28,176.81Z"/><path class="cls-15" d="M324.52,198.85a9.84,9.84,0,0,1,.11-19.67,9.94,9.94,0,0,1,9.82,9.91A9.82,9.82,0,0,1,324.52,198.85Z"/><path class="cls-11" d="M305.83,205.54l.37-.37c5,1.11,10,1.66,14.95-.28,1.8-.71,3.22-2,5.11-3.14a4.52,4.52,0,0,1-2,2.61c-3.65,2.6-7.8,3.06-12.08,2.58A58,58,0,0,1,305.83,205.54Z"/><path class="cls-16" d="M324.31,184.8c-1.21,2.18-.85,2.9,1.52,2.77,1.05-.06.74.63.77,1.05a4.61,4.61,0,0,1-4.2,4.61,4.71,4.71,0,0,1-5.31-4,4.63,4.63,0,0,1,3.82-4.92A4.76,4.76,0,0,1,324.31,184.8Z"/><path class="cls-9" d="M339.84,228c.68-.66,1.47-.19,2.29-.37-.24.53-.6.34-.86.43Z"/><path class="cls-1" d="M297,343.94a10.45,10.45,0,0,1-3.55-.64c-3.89-1.38-6.41-4-8.44-6.13l-.18-.18q-.75-.8-1.44-1.56h-.68a60.74,60.74,0,0,1-8.32-.73l-1-.14a76.87,76.87,0,0,1-27.28-8.5c-6-3.27-10.17-6.84-13.22-11.23-5.3-7.62-5.94-16-1.87-24.26,4.19-8.51,10.61-14.59,16.35-19.42A83.6,83.6,0,0,1,262.44,261,45.48,45.48,0,0,1,277,247.69a8.18,8.18,0,0,1,4.3-1.29,7,7,0,0,1,3.3.83,8.25,8.25,0,0,1,3-.58A7.27,7.27,0,0,1,291.9,248l.26-.07a9,9,0,0,1,2.13-.26,7,7,0,0,1,5.37,2.41,7.22,7.22,0,0,1,1.67,5.35c19.26,2.49,37.87,9.62,56.5,21.66a30.54,30.54,0,0,1,12.23-11.6,49.49,49.49,0,0,1,13-4.79,9.7,9.7,0,0,1,2.19-.27,7.1,7.1,0,0,1,5.3,2.27,7.86,7.86,0,0,1,1.85,6.23c-.61,7.63-4.3,14-11.25,19.3-.82.62-1.65,1.22-2.54,1.79l0,.05c6.67,5.62,10.42,11.83,11.49,19,0,.16.05.33.08.5.31,1.67,1.14,6.1-2.39,9.16a7.32,7.32,0,0,1-4.78,1.76h0a10.58,10.58,0,0,1-4.78-1.35c-.16-.08-.31-.16-.46-.22-8.92-3.57-15.06-8.29-19.17-14.75a162.15,162.15,0,0,1-19.38,13.59,130.51,130.51,0,0,1-33,14.23,9.54,9.54,0,0,1-1.1,6.89A9.11,9.11,0,0,1,297,343.94Z"/><path class="cls-2" d="M291.67,338.61a10.66,10.66,0,0,1-3.55-.64c-3.89-1.38-6.42-4-8.44-6.13l-.18-.19c-.51-.52-1-1-1.44-1.56h-.68a60.74,60.74,0,0,1-8.32-.73l-1-.14a77,77,0,0,1-27.29-8.51c-6-3.26-10.16-6.83-13.21-11.23-5.3-7.62-5.95-16-1.88-24.26,4.19-8.5,10.62-14.59,16.35-19.42a84.79,84.79,0,0,1,15.09-10.17,45.58,45.58,0,0,1,14.58-13.28,8.24,8.24,0,0,1,4.31-1.29,7,7,0,0,1,3.29.82,8.53,8.53,0,0,1,3-.58,7.25,7.25,0,0,1,4.28,1.39l.27-.07a9,9,0,0,1,2.12-.27,7,7,0,0,1,5.38,2.42,7.2,7.2,0,0,1,1.66,5.35c19.27,2.48,37.88,9.62,56.51,21.65a30.43,30.43,0,0,1,12.22-11.59,49.35,49.35,0,0,1,13-4.79,9.62,9.62,0,0,1,2.18-.27,7.15,7.15,0,0,1,5.31,2.26,7.92,7.92,0,0,1,1.85,6.24c-.62,7.63-4.3,13.94-11.26,19.3-.81.62-1.65,1.22-2.53,1.79l.05,0c6.66,5.62,10.42,11.83,11.48,19l.09.5c.31,1.67,1.13,6.09-2.4,9.15a7.22,7.22,0,0,1-4.77,1.76h0a10.68,10.68,0,0,1-4.78-1.34l-.46-.22c-8.92-3.58-15.06-8.29-19.18-14.76a160.65,160.65,0,0,1-19.38,13.6,130.77,130.77,0,0,1-33,14.22,9.58,9.58,0,0,1-1.1,6.89A9.12,9.12,0,0,1,291.67,338.61Z"/><path class="cls-3" d="M280.76,323.46c-4,.6-8,0-11.88-.57a71.14,71.14,0,0,1-25-7.78c-4.29-2.35-8.2-5.19-11-9.27-3.92-5.64-4.43-11.6-1.39-17.78,3.46-7,8.86-12.4,14.74-17.35a77,77,0,0,1,15.18-10c.41.12,1,.08.69.83-4.05,2.64-8.38,4.85-12.19,7.88-6.15,4.91-11.87,10.18-16.06,17a18.73,18.73,0,0,0-3,11.13A3.64,3.64,0,0,0,231,299c.17.42.34.83.47,1.27,1.23,4.24,4.08,7.3,7.39,10a43.88,43.88,0,0,0,12.32,6.83,72.27,72.27,0,0,0,16.17,4.23,10.55,10.55,0,0,1,1.39.15c.95.32,1.19-.36,1.43-1a56.89,56.89,0,0,0,2.57-9.34,67.2,67.2,0,0,0-1.51-31.51,48.72,48.72,0,0,0-6.93-14.37A5.13,5.13,0,0,1,263,263a.79.79,0,0,1,.63-.64c1.21.18,1.68,1.19,2.28,2a54.82,54.82,0,0,1,9.26,25.3,68.94,68.94,0,0,1-.7,22.06,50.44,50.44,0,0,1-2.28,8.21c-.48,1.31-.13,1.71,1.26,1.81,2.09.15,4.19.31,6.29.43C280.37,322.41,281,322.63,280.76,323.46Z"/><path class="cls-3" d="M262,261.41l-.7-.74.44-.47a22.88,22.88,0,0,1,2-1.22c5.72-2.86,11.86-3.69,18.16-3.78,1.29,0,2.59,0,3.89,0a2,2,0,0,1,1.5.52c24.84,1.49,46.73,10.87,66.9,24.91.5.36,1,.68,1.55,1a1.24,1.24,0,0,1-.3,1.44.92.92,0,0,1-.52,0c-2.75-1.77-5.29-3.87-8.19-5.42-1.43-.84-2.74-1.89-4.22-2.65a143.51,143.51,0,0,0-21-10.18,13.13,13.13,0,0,0-2.46-.81c-2-.71-3.95-1.44-6-2a105.73,105.73,0,0,0-13.73-3.24,37.72,37.72,0,0,0-6-1c-4,.07-8-.59-12.08-.39-5,.25-10,.78-14.74,2.75-1.18.5-2.52.83-3,2.27l-.41.44C262.16,262.85,262,262.24,262,261.41Z"/><path class="cls-4" d="M355.34,283c.15-.43.29-.86.43-1.29,1.19-7.44,5.71-12.36,12.06-15.87a43.3,43.3,0,0,1,11.33-4.16c1.55-.35,1.62.23,1.52,1.48-.52,6.37-3.91,11-8.78,14.74A46,46,0,0,1,360.54,284a60.86,60.86,0,0,1,8.66,5.7c4.74,4,8.33,8.7,9.27,15,.2,1.32.75,3.08-.17,3.88-.73.63-2.29-.45-3.43-.91-7-2.79-13-6.69-16.87-13.42a24.54,24.54,0,0,1-2.23-5.91,2.35,2.35,0,0,1-.71-1.33,8.13,8.13,0,0,1-.1-1.56A4.44,4.44,0,0,1,355.34,283Z"/><path class="cls-3" d="M355.47,287.12l.3,1.21a162.62,162.62,0,0,1-25.12,18.61,122.74,122.74,0,0,1-36.78,14.87c-.47-.31-.73-.67-.38-1.24,2.17-1.12,4.65-1.24,6.9-2.09a25.23,25.23,0,0,0,3.5-1.07c3.78-1.06,7.33-2.78,11-4.07,2.39-1,4.64-2.32,7-3.42.48-.22.95-.46,1.42-.71A140.2,140.2,0,0,0,342.51,297c1.59-1.05,3-2.31,4.52-3.45,2.11-1.46,4-3.26,6-4.84C353.86,288.24,354.21,287,355.47,287.12Z"/><path class="cls-5" d="M263.58,259.5a2.25,2.25,0,0,1-1.82.7A38.7,38.7,0,0,1,275,247.85c1.1-.67,1.73-.53,1.6,1a16.09,16.09,0,0,0,.07,1.87,15.64,15.64,0,0,1,4.17-2.52c.69-.21,1.5-.75,2.09-.18s0,1.28-.06,1.94a12.74,12.74,0,0,1-.3,1.3,29.3,29.3,0,0,1,5.77-2.35c1.24-.3,1.41.14,1.25,1.21a14.3,14.3,0,0,1-2.25,5.66l-1.36,0c-.2-1.47,1-2.49,1.24-3.83.06-.42.38-.89,0-1.23s-.83,0-1.2.19a14.29,14.29,0,0,0-3.92,2.5,2.5,2.5,0,0,1-1.42.85c-.86.07-1.39-.19-.95-1.18s1.16-2,1-3.47a6.43,6.43,0,0,0-2.69,2.05,12.87,12.87,0,0,1-.95,1.15c-.47.43-1,.83-1.66.58s-.62-.86-.7-1.41.28-1.46-.31-1.75c-.78-.38-1.32.48-1.9.89a53.34,53.34,0,0,0-6.88,6.56A22.91,22.91,0,0,1,263.58,259.5Z"/><path class="cls-6" d="M293.48,320.77l.39,1c.18,1.71-1.13,2.44-2.41,3.31.69.48,1.24.86,1.79,1.26,1.73,1.27,2,2.28,1,4.15a2.9,2.9,0,0,1-3.94,1.41c-2.55-.91-4.35-2.84-6.16-4.72-1.16-1.21-2.24-2.5-3.35-3.76a1.4,1.4,0,0,0-.71-.9,10.51,10.51,0,0,1-3.68-5.91c-.52-1.81.49-3,2.4-3.12a5.55,5.55,0,0,1,1.68.07c4.61,1.21,9,2.89,12.68,6.07A1.6,1.6,0,0,1,293.48,320.77Z"/><path class="cls-7" d="M263.56,262.39c-.5-.65-1-1,.28-1.64,8-3.95,16.47-4.31,25.11-3.63,1.48.12,3,.11,4.47.17.19.68-.27,1.18-.5,1.75-1.38,3.48-.9,6.56,1.91,9.17.64.59,1.27,1.19,1.94,1.76A8.68,8.68,0,0,1,298,282.32c-.69.88-1.39,1.76-2.16,2.57-3.79,4-3.47,9.08.77,12.54a19.64,19.64,0,0,1,1.68,1.47c3.29,3.35,3.64,7.41,1,11.36a1.85,1.85,0,0,1-.85.45,100,100,0,0,1-22.05,1.62,3.16,3.16,0,0,1-2.29-.57,70.81,70.81,0,0,0,1.06-17.61c-.64-11-3.67-21.35-10.23-30.44A11.55,11.55,0,0,0,263.56,262.39Z"/><path class="cls-8" d="M262,261.41c.33.52.48,1.16,1.13,1.42a53.09,53.09,0,0,1,10.54,25.65,69.9,69.9,0,0,1-.48,22.91c-.35.75-1,.83-1.73.77a102.59,102.59,0,0,1-32.75-8c-2.66-1.14-5.44-2.1-7.7-4l-.41-1.11c0-.66.41-.65.85-.56.66.12,1.23.52,1.9.63,4.45,1.28,8.95,2,13.54.76a12.46,12.46,0,0,0,5.22-2.6c-5.49,4.06-11.82,3.76-18.32,1.95-1.2-.49-2.64-.51-3.52-1.69-.57-6.53,2.66-11.6,6.51-16.34a78.71,78.71,0,0,1,24.34-19.61A3.22,3.22,0,0,1,262,261.41Z"/><path class="cls-9" d="M231,300.18c3.28,1.46,6.53,3,9.85,4.35a97.52,97.52,0,0,0,25.6,6.57c1.7.19,3.47,0,5.14.62a1.82,1.82,0,0,0,1.59-.33,73.91,73.91,0,0,1-2.77,9.77c-.33.94-.73,1.44-1.71.71a.51.51,0,0,1,.48-.18c0-.27-.1,0-.12,0-.6.05-1.22-.17-1.79.15-10.45-1.65-20.41-4.64-28.89-11.26C235,307.87,232,304.68,231,300.18Z"/><path class="cls-10" d="M274,311.76c3.86,0,7.73.16,11.57,0,3.57-.2,7.12-.74,10.67-1.24a21.42,21.42,0,0,1,2.39-.21c.14,1.32-1,1.9-1.67,2.7-1.55,1.87-3.07,3.71-3.39,6.23a1.14,1.14,0,0,1-.59.9c-3.59-3-7.86-4.64-12.26-6a6,6,0,0,0-1.84-.16c-1.88,0-2.54.94-2.07,2.78.57,2.22,2.14,3.88,3.21,5.82-2.62.28-5.2-.37-7.8-.33-1.2,0-1.16-.52-.84-1.38A72,72,0,0,0,274,311.76Z"/><path class="cls-11" d="M230.29,297.56l3.38,1.48c0,.24-.26.23-.38.37-.93.19-1.65-1.28-2.67-.34C230.14,298.64,230.32,298.08,230.29,297.56Z"/><path class="cls-7" d="M299.42,258.34a66.85,66.85,0,0,1,13.86,3.34c-.7,2.06.22,3.64,1.58,5a33.1,33.1,0,0,0,2.53,2.19c4.07,3.3,4.4,8.4.8,12.25a24.88,24.88,0,0,0-3.09,3.47,6.62,6.62,0,0,0,.86,8.82,20.89,20.89,0,0,0,2.2,2,7.79,7.79,0,0,1,3.26,8.15,1.38,1.38,0,0,1-.32.5,74.1,74.1,0,0,1-13.53,4.43,1.58,1.58,0,0,1-1.09-.06,2,2,0,0,1,0-1.79c.89-3.62-.34-6.44-3.19-8.69a10.24,10.24,0,0,1-4-5.26,8.35,8.35,0,0,1,1.25-7.43,36.14,36.14,0,0,1,2.84-3.45,7.84,7.84,0,0,0-.17-11.33c-.78-.8-1.62-1.53-2.46-2.27C297.86,265.69,297.25,261.08,299.42,258.34Z"/><path class="cls-7" d="M319.21,263.61a115.16,115.16,0,0,1,18.46,8.17c1.74.93,3.42,2,5.12,3,0,2.85-2.22,4.47-3.76,6.45a18.48,18.48,0,0,0-1.82,2.12,7.28,7.28,0,0,0,1.59,9c.65.56,1.46,1,1.84,1.81a.94.94,0,0,1-.05.55,60.88,60.88,0,0,1-11.75,6.22,1.13,1.13,0,0,1-1.07,0,12.64,12.64,0,0,0-4.89-6.58,7.88,7.88,0,0,1-1-11.83,31.55,31.55,0,0,0,3.23-3.6,7.07,7.07,0,0,0-1.5-9.83c-1.57-1.31-3.38-2.38-4.22-4.39A1.33,1.33,0,0,1,319.21,263.61Z"/><path class="cls-12" d="M299.42,258.34c-1.08,3.07-1.35,6.1.89,8.79a41,41,0,0,0,3.13,2.89c3.78,3.74,3.75,8.65,0,12.51-1.95,2-3.81,4.1-4,7.1a8.15,8.15,0,0,0,3.61,7.54c4.08,2.92,5.07,6.63,3.47,11.22a1.11,1.11,0,0,1-.44.42,36.75,36.75,0,0,1-5.65,1.41,1.35,1.35,0,0,1-1.36-.33c2.62-5.23,1.83-8.51-2.9-12.11a8.62,8.62,0,0,1-.88-13.08c2.32-2.39,4.45-4.82,4.19-8.55a8.17,8.17,0,0,0-3.09-5.88c-1.89-1.68-3.89-3.21-4.48-6a8.77,8.77,0,0,1,1.53-7A21.85,21.85,0,0,1,299.42,258.34Z"/><path class="cls-12" d="M319.21,263.61c1.17,2.35,3.35,3.72,5.17,5.47,3.28,3.16,3.84,7.28,0,11.55-1.19,1.33-2.65,2.4-3.45,4.11a7.4,7.4,0,0,0,2.23,9.24c2.31,1.79,4.72,3.55,4.67,6.95l-.1.27c-1.67,1.31-3.69,1.85-5.63,2.59a1,1,0,0,1-1-.24,8.13,8.13,0,0,0-3.86-8.25,9.37,9.37,0,0,1-2.92-3.08c-1.74-3-1.11-6.58,1.62-9.49,1.18-1.25,2.58-2.3,3.36-3.93a7.37,7.37,0,0,0-2.34-9.66c-1.66-1.26-3.44-2.5-4.13-4.62-.32-1-1-2.11.46-2.84A39.86,39.86,0,0,1,319.21,263.61Z"/><path class="cls-12" d="M340.52,294.21c-2.31-1.48-4.13-3.3-4.61-6.17a6.74,6.74,0,0,1,1.56-5.85c2.09-2.28,4.19-4.5,5.32-7.44a22.14,22.14,0,0,1,4.1,2.59c.79.61.63,1.24.06,1.9s-1.31,1.31-1.9,2a7.39,7.39,0,0,0-.76,9,2.93,2.93,0,0,1,.56,1.35A4.93,4.93,0,0,1,340.52,294.21Z"/><path class="cls-13" d="M263.58,259.5a41.21,41.21,0,0,1,9.75-9.66c.44-.31.91-.88,1.45-.64s.23,1,.34,1.52c0,.12,0,.25,0,.37.12.64-.39,1.58.35,1.86.94.36,1.38-.62,1.82-1.25a9.33,9.33,0,0,1,2.91-2.58c.3-.18.79-.4,1-.28.44.25.21.76.13,1.18a10.4,10.4,0,0,1-1.58,3.65c.92.43,1.43-.12,1.94-.62a16.09,16.09,0,0,1,5.06-3.1c.83-.35,1.43-.41,1.15.93a17.83,17.83,0,0,1-2,4.8c-5.4,0-10.8.1-16.08,1.53C267.71,257.8,265.69,258.76,263.58,259.5Z"/><path class="cls-7" d="M344.64,291.59c-3.42-4.14-2.14-8.8,1-11.73.68-.63,2-1.13,1.21-2.52a43.1,43.1,0,0,1,8.24,5.61,1.34,1.34,0,0,1-.31,1.69,53.46,53.46,0,0,1-9.69,7.16A.75.75,0,0,1,344.64,291.59Z"/><path class="cls-10" d="M345,291.59a116.61,116.61,0,0,0,9.36-7.08,2,2,0,0,0,.76-1.56h.21l.06,2.66c-.77,1.09-1.49,2.22-2.2,3.35a46.37,46.37,0,0,1-5.95,4.88C346.29,293.31,345.05,293.05,345,291.59Z"/><path class="cls-13" d="M377.86,307.88a36.92,36.92,0,0,1-10.64-5c-5.39-3.79-9.54-8.47-10.77-15.22-.26-1.48-.82-3.34.06-4.27.64-.69,2.27.73,3.41,1.29,6.22,3.07,11.69,7,15.33,13.11A17.71,17.71,0,0,1,377.86,307.88Z"/><path class="cls-13" d="M379.9,263.28a18.81,18.81,0,0,1-6.64,12.46,38.9,38.9,0,0,1-11.78,7,4.74,4.74,0,0,1-2.14.59c-2.24-.2-3-1.23-2.42-3.45,1.33-5.45,4.78-9.3,9.35-12.29a41.29,41.29,0,0,1,12.16-5C379.53,262.28,380.18,262.42,379.9,263.28Z"/><path class="cls-10" d="M353.2,289a4.86,4.86,0,0,1,2.2-3.35c0,.5.05,1,.07,1.51Z"/><path class="cls-10" d="M306.15,308.41l.35,0c4.93-1.24,9.71-3,14.57-4.47.12,1.73-.95,2.87-2,4a17.71,17.71,0,0,0-4,5.12,1.42,1.42,0,0,1-.57.57c-3.45,1.56-7.09,2.64-10.54,4.21a9.43,9.43,0,0,1-3.42,1.08c-1-1.71-.34-3.25.61-4.69A56,56,0,0,1,306.15,308.41Z"/><path class="cls-10" d="M327.84,300.93c4.42-1.74,8.43-4.3,12.69-6.36.91-.45,1.15.34,1.46.86a7.16,7.16,0,0,1,.82,1.8,109.8,109.8,0,0,1-19.47,12.34.8.8,0,0,1,.22-1,13.07,13.07,0,0,0,4.26-7.62Z"/><path class="cls-14" d="M306.15,308.41c-.58,2.15-2.52,3.27-3.81,4.87a7.24,7.24,0,0,0-1.81,5.59,47.76,47.76,0,0,1-7.06,1.9l-.45-.67c.07-3.63,2.42-6.05,4.58-8.57l1.06-1.26.39-.38A66.28,66.28,0,0,0,306.15,308.41Z"/><path class="cls-14" d="M327.82,300.94c.28,2.81-1,5-2.92,6.84a5.71,5.71,0,0,0-1.56,1.79l-1.14.67c-1.89.42-3.45,1.58-5.23,2.25-.71.26-1.36,1-2.23.4a8.61,8.61,0,0,1,2.79-4.06,13.28,13.28,0,0,0,3.54-4.91c0-.13,0-.25,0-.37C323.5,303.1,325.58,301.81,327.82,300.94Z"/><path class="cls-14" d="M342.81,297.23c-.84,0-.76-.8-1.05-1.28s-.39-1.3-1.23-1.37c0-.13,0-.25,0-.37a14,14,0,0,0,4.12-2.62H345c.42,1.07,1.82,1.18,2.24,2.25A33.19,33.19,0,0,1,342.81,297.23Z"/><path class="cls-10" d="M304,317.79c0-.84.73-.69,1.21-.88l9.21-3.65c.21.22.6.07.75.39A75.66,75.66,0,0,1,304,317.79Z"/><path class="cls-14" d="M315.12,313.65a.81.81,0,0,1-.75-.39l.37-.37a43.79,43.79,0,0,0,5.83-2.34c.5-.2.95-.93,1.63-.31A65.82,65.82,0,0,1,315.12,313.65Z"/><path class="cls-13" d="M279.92,314.73a14.8,14.8,0,0,1,3.75,1.17,30.32,30.32,0,0,1,8.06,4.19c1.82,1.42,1.82,2.68-.12,3.94-1.31.85-1.37,1.44,0,2.2.49.27.91.65,1.38.95,1.28.83,1.22,1.86.51,3s-1.6,1.66-3,1a11.25,11.25,0,0,1-3-1.87,38.81,38.81,0,0,1-9.83-12.46C277,315.33,277.46,314.74,279.92,314.73Z"/><path class="cls-12" d="M276.75,270.67a11.44,11.44,0,0,1-5.25-.7c-.71-.33-1.55-.53-1.61-1.59a2.28,2.28,0,0,1,1.33-2.08,15.17,15.17,0,0,1,6.84-2.21c2.76-.27,5.59-.58,8.31.32.92.31,2.18.49,2.2,1.92,0,1.27-.94,1.8-1.89,2.3A19.63,19.63,0,0,1,276.75,270.67Z"/><path class="cls-15" d="M252,292.71a9.67,9.67,0,0,1-9.75-9.86,9.77,9.77,0,0,1,9.85-9.81,10,10,0,0,1,9.83,9.91A9.82,9.82,0,0,1,252,292.71Z"/><path class="cls-11" d="M233.29,299.41l.38-.37c5,1.11,10,1.66,15-.29,1.8-.7,3.21-2,5.11-3.13a4.58,4.58,0,0,1-2,2.61c-3.65,2.6-7.81,3.06-12.08,2.58A58.22,58.22,0,0,1,233.29,299.41Z"/><path class="cls-16" d="M251.78,278.67c-1.21,2.18-.85,2.89,1.52,2.76,1-.05.74.64.77,1.06a4.6,4.6,0,0,1-4.21,4.6,4.55,4.55,0,1,1-1.48-9A4.81,4.81,0,0,1,251.78,278.67Z"/><path class="cls-9" d="M267.3,321.82c.68-.66,1.48-.19,2.3-.37-.24.53-.6.34-.87.42Z"/><path class="cls-1" d="M121,343.94a10.45,10.45,0,0,1-3.55-.64c-3.89-1.38-6.41-4-8.44-6.13l-.18-.18q-.75-.8-1.44-1.56h-.68a60.74,60.74,0,0,1-8.32-.73l-1-.14a76.87,76.87,0,0,1-27.28-8.5c-6-3.27-10.17-6.84-13.22-11.23-5.3-7.62-5.94-16-1.87-24.26,4.19-8.51,10.61-14.59,16.35-19.42A83.6,83.6,0,0,1,86.44,261,45.48,45.48,0,0,1,101,247.69a8.18,8.18,0,0,1,4.3-1.29,7,7,0,0,1,3.3.83,8.25,8.25,0,0,1,3-.58A7.27,7.27,0,0,1,115.9,248l.26-.07a9,9,0,0,1,2.13-.26,7,7,0,0,1,5.37,2.41,7.22,7.22,0,0,1,1.67,5.35c19.26,2.49,37.87,9.62,56.5,21.66a30.54,30.54,0,0,1,12.23-11.6,49.49,49.49,0,0,1,13-4.79,9.7,9.7,0,0,1,2.19-.27,7.1,7.1,0,0,1,5.3,2.27,7.86,7.86,0,0,1,1.85,6.23c-.61,7.63-4.3,14-11.25,19.3-.82.62-1.65,1.22-2.54,1.79l.05.05c6.67,5.62,10.42,11.83,11.49,19,0,.16.05.33.08.5.31,1.67,1.14,6.1-2.39,9.16a7.32,7.32,0,0,1-4.78,1.76h0a10.58,10.58,0,0,1-4.78-1.35c-.16-.08-.31-.16-.46-.22-8.92-3.57-15.06-8.29-19.17-14.75a162.15,162.15,0,0,1-19.38,13.59,130.51,130.51,0,0,1-33,14.23,9.54,9.54,0,0,1-1.1,6.89A9.11,9.11,0,0,1,121,343.94Z"/><path class="cls-2" d="M115.67,338.61a10.66,10.66,0,0,1-3.55-.64c-3.89-1.38-6.42-4-8.44-6.13l-.18-.19c-.51-.52-1-1-1.44-1.56h-.68a60.74,60.74,0,0,1-8.32-.73l-1-.14a77,77,0,0,1-27.29-8.51c-6-3.26-10.16-6.83-13.21-11.23-5.3-7.62-5.95-16-1.88-24.26,4.19-8.5,10.62-14.59,16.35-19.42A84.79,84.79,0,0,1,81.1,255.64a45.58,45.58,0,0,1,14.58-13.28,8.24,8.24,0,0,1,4.31-1.29,7,7,0,0,1,3.29.82,8.53,8.53,0,0,1,3-.58,7.25,7.25,0,0,1,4.28,1.39l.27-.07a9,9,0,0,1,2.12-.27,7,7,0,0,1,5.38,2.42,7.2,7.2,0,0,1,1.66,5.35c19.27,2.48,37.88,9.62,56.51,21.65a30.43,30.43,0,0,1,12.22-11.59,49.35,49.35,0,0,1,13-4.79,9.62,9.62,0,0,1,2.18-.27,7.15,7.15,0,0,1,5.31,2.26,7.92,7.92,0,0,1,1.85,6.24c-.62,7.63-4.3,13.94-11.26,19.3-.81.62-1.65,1.22-2.53,1.79l0,0c6.66,5.62,10.42,11.83,11.48,19l.09.5c.31,1.67,1.13,6.09-2.4,9.15a7.22,7.22,0,0,1-4.77,1.76h0a10.68,10.68,0,0,1-4.78-1.34l-.46-.22c-8.92-3.58-15.06-8.29-19.18-14.76a160.65,160.65,0,0,1-19.38,13.6,130.77,130.77,0,0,1-33,14.22,9.58,9.58,0,0,1-1.1,6.89A9.12,9.12,0,0,1,115.67,338.61Z"/><path class="cls-3" d="M104.76,323.46c-4,.6-8,0-11.88-.57a71.14,71.14,0,0,1-25-7.78c-4.29-2.35-8.2-5.19-11-9.27-3.92-5.64-4.43-11.6-1.39-17.78,3.46-7,8.86-12.4,14.74-17.35a77,77,0,0,1,15.18-10c.41.12,1,.08.69.83-4.05,2.64-8.38,4.85-12.19,7.88-6.15,4.91-11.87,10.18-16.06,17a18.73,18.73,0,0,0-3,11.13A3.64,3.64,0,0,0,55,299c.17.42.34.83.47,1.27,1.23,4.24,4.08,7.3,7.39,10a43.88,43.88,0,0,0,12.32,6.83,72.27,72.27,0,0,0,16.17,4.23,10.55,10.55,0,0,1,1.39.15c1,.32,1.19-.36,1.43-1a55.92,55.92,0,0,0,2.57-9.34,67.2,67.2,0,0,0-1.51-31.51,48.72,48.72,0,0,0-6.93-14.37A5.13,5.13,0,0,1,87,263a.79.79,0,0,1,.63-.64c1.21.18,1.68,1.19,2.28,2a54.82,54.82,0,0,1,9.26,25.3,68.94,68.94,0,0,1-.7,22.06A50.44,50.44,0,0,1,96.23,320c-.48,1.31-.13,1.71,1.26,1.81,2.09.15,4.19.31,6.29.43C104.37,322.41,105,322.63,104.76,323.46Z"/><path class="cls-3" d="M86,261.41l-.7-.74.44-.47a22.88,22.88,0,0,1,2-1.22c5.72-2.86,11.86-3.69,18.16-3.78,1.3,0,2.59,0,3.89,0a2,2,0,0,1,1.5.52c24.84,1.49,46.73,10.87,66.9,24.91.5.36,1,.68,1.55,1a1.24,1.24,0,0,1-.3,1.44.92.92,0,0,1-.52,0c-2.75-1.77-5.29-3.87-8.19-5.42-1.43-.84-2.74-1.89-4.22-2.65a143.51,143.51,0,0,0-21-10.18,13.13,13.13,0,0,0-2.46-.81c-2-.71-4-1.44-6-2a105.73,105.73,0,0,0-13.73-3.24,37.72,37.72,0,0,0-6-1c-4,.07-8-.59-12.08-.39-5,.25-10,.78-14.74,2.75-1.18.5-2.52.83-3,2.27l-.41.44C86.16,262.85,86,262.24,86,261.41Z"/><path class="cls-4" d="M179.34,283c.15-.43.29-.86.43-1.29,1.19-7.44,5.71-12.36,12.06-15.87a43.3,43.3,0,0,1,11.33-4.16c1.55-.35,1.62.23,1.52,1.48-.52,6.37-3.91,11-8.78,14.74A46,46,0,0,1,184.54,284a60.86,60.86,0,0,1,8.66,5.7c4.74,4,8.33,8.7,9.27,15,.2,1.32.75,3.08-.17,3.88-.73.63-2.29-.45-3.43-.91-7-2.79-13-6.69-16.87-13.42a24.54,24.54,0,0,1-2.23-5.91,2.35,2.35,0,0,1-.71-1.33,8.13,8.13,0,0,1-.1-1.56A4.44,4.44,0,0,1,179.34,283Z"/><path class="cls-3" d="M179.47,287.12l.3,1.21a162.62,162.62,0,0,1-25.12,18.61,122.74,122.74,0,0,1-36.78,14.87c-.47-.31-.73-.67-.38-1.24,2.17-1.12,4.65-1.24,6.9-2.09a25.23,25.23,0,0,0,3.5-1.07c3.79-1.06,7.33-2.78,11-4.07,2.39-1,4.64-2.32,7-3.42.48-.22,1-.46,1.42-.71A140.2,140.2,0,0,0,166.51,297c1.59-1.05,3-2.31,4.52-3.45,2.11-1.46,3.95-3.26,6-4.84C177.86,288.24,178.21,287,179.47,287.12Z"/><path class="cls-5" d="M87.58,259.5a2.25,2.25,0,0,1-1.82.7A38.7,38.7,0,0,1,99,247.85c1.1-.67,1.73-.53,1.6,1a16.09,16.09,0,0,0,.07,1.87,15.64,15.64,0,0,1,4.17-2.52c.69-.21,1.5-.75,2.09-.18s0,1.28-.06,1.94a12.74,12.74,0,0,1-.3,1.3,29.3,29.3,0,0,1,5.77-2.35c1.24-.3,1.41.14,1.25,1.21a14.3,14.3,0,0,1-2.25,5.66l-1.36,0c-.2-1.47,1-2.49,1.24-3.83.06-.42.38-.89,0-1.23s-.83,0-1.2.19a14.29,14.29,0,0,0-3.92,2.5,2.5,2.5,0,0,1-1.42.85c-.86.07-1.39-.19-1-1.18s1.16-2,1-3.47a6.43,6.43,0,0,0-2.69,2.05,12.87,12.87,0,0,1-1,1.15c-.47.43-1,.83-1.66.58s-.62-.86-.7-1.41.28-1.46-.31-1.75c-.78-.38-1.32.48-1.9.89a53.34,53.34,0,0,0-6.88,6.56A22.91,22.91,0,0,1,87.58,259.5Z"/><path class="cls-6" d="M117.48,320.77l.39,1c.18,1.71-1.13,2.44-2.41,3.31.69.48,1.24.86,1.79,1.26,1.73,1.27,2,2.28,1,4.15a2.9,2.9,0,0,1-3.94,1.41c-2.55-.91-4.35-2.84-6.16-4.72-1.16-1.21-2.24-2.5-3.35-3.76a1.4,1.4,0,0,0-.71-.9,10.51,10.51,0,0,1-3.68-5.91c-.52-1.81.49-3,2.4-3.12a5.55,5.55,0,0,1,1.68.07c4.61,1.21,9,2.89,12.68,6.07A1.6,1.6,0,0,1,117.48,320.77Z"/><path class="cls-7" d="M87.56,262.39c-.5-.65-1-1,.28-1.64,8-3.95,16.47-4.31,25.11-3.63,1.48.12,3,.11,4.47.17.19.68-.27,1.18-.5,1.75-1.38,3.48-.9,6.56,1.91,9.17.64.59,1.27,1.19,1.94,1.76A8.68,8.68,0,0,1,122,282.32c-.69.88-1.39,1.76-2.16,2.57-3.79,4-3.47,9.08.77,12.54a19.64,19.64,0,0,1,1.68,1.47c3.29,3.35,3.64,7.41,1,11.36a1.85,1.85,0,0,1-.85.45,100,100,0,0,1-22.05,1.62,3.16,3.16,0,0,1-2.29-.57,70.81,70.81,0,0,0,1.06-17.61c-.64-11-3.67-21.35-10.23-30.44A11.55,11.55,0,0,0,87.56,262.39Z"/><path class="cls-8" d="M86,261.41c.33.52.48,1.16,1.13,1.42a53.09,53.09,0,0,1,10.54,25.65,69.9,69.9,0,0,1-.48,22.91c-.35.75-1,.83-1.73.77a102.59,102.59,0,0,1-32.75-8c-2.66-1.14-5.44-2.1-7.7-4l-.41-1.11c0-.66.41-.65.85-.56.66.12,1.23.52,1.9.63,4.45,1.28,8.95,2,13.54.76a12.46,12.46,0,0,0,5.22-2.6c-5.49,4.06-11.81,3.76-18.31,1.95-1.21-.49-2.65-.51-3.53-1.69C53.72,291,57,286,60.8,281.22a78.71,78.71,0,0,1,24.34-19.61A3.22,3.22,0,0,1,86,261.41Z"/><path class="cls-9" d="M55,300.18c3.28,1.46,6.53,3,9.85,4.35a97.52,97.52,0,0,0,25.6,6.57c1.7.19,3.47,0,5.14.62a1.82,1.82,0,0,0,1.59-.33,73.91,73.91,0,0,1-2.77,9.77c-.33.94-.73,1.44-1.71.71a.51.51,0,0,1,.48-.18c0-.27-.1,0-.12,0-.6.05-1.22-.17-1.79.15-10.45-1.65-20.41-4.64-28.89-11.26C59,307.87,56,304.68,55,300.18Z"/><path class="cls-10" d="M98,311.76c3.86,0,7.73.16,11.57,0,3.57-.2,7.12-.74,10.67-1.24a21.42,21.42,0,0,1,2.39-.21c.14,1.32-1,1.9-1.67,2.7-1.55,1.87-3.07,3.71-3.39,6.23a1.15,1.15,0,0,1-.58.9c-3.6-3-7.87-4.64-12.27-6a6,6,0,0,0-1.84-.16c-1.88,0-2.54.94-2.07,2.78.57,2.22,2.14,3.88,3.21,5.82-2.62.28-5.2-.37-7.8-.33-1.2,0-1.16-.52-.84-1.38A72,72,0,0,0,98,311.76Z"/><path class="cls-11" d="M54.29,297.56,57.67,299c0,.24-.26.23-.38.37-.93.19-1.65-1.28-2.67-.34C54.14,298.64,54.32,298.08,54.29,297.56Z"/><path class="cls-7" d="M123.42,258.34a66.85,66.85,0,0,1,13.86,3.34c-.7,2.06.22,3.64,1.58,5a33.1,33.1,0,0,0,2.53,2.19c4.07,3.3,4.4,8.4.8,12.25a24.88,24.88,0,0,0-3.09,3.47,6.62,6.62,0,0,0,.86,8.82,20.89,20.89,0,0,0,2.2,2,7.79,7.79,0,0,1,3.26,8.15,1.38,1.38,0,0,1-.32.5,74.1,74.1,0,0,1-13.53,4.43,1.58,1.58,0,0,1-1.09-.06,2,2,0,0,1,0-1.79c.89-3.62-.34-6.44-3.19-8.69a10.24,10.24,0,0,1-4-5.26,8.35,8.35,0,0,1,1.25-7.43,36.14,36.14,0,0,1,2.84-3.45,7.84,7.84,0,0,0-.17-11.33c-.78-.8-1.62-1.53-2.46-2.27C121.86,265.69,121.25,261.08,123.42,258.34Z"/><path class="cls-7" d="M143.21,263.61a115.16,115.16,0,0,1,18.46,8.17c1.74.93,3.42,2,5.12,3,0,2.85-2.22,4.47-3.76,6.45a18.48,18.48,0,0,0-1.82,2.12,7.28,7.28,0,0,0,1.59,9c.65.56,1.46,1,1.84,1.81a.94.94,0,0,1,0,.55,60.88,60.88,0,0,1-11.75,6.22,1.13,1.13,0,0,1-1.07,0,12.64,12.64,0,0,0-4.89-6.58,7.88,7.88,0,0,1-1-11.83,31.55,31.55,0,0,0,3.23-3.6,7.07,7.07,0,0,0-1.5-9.83c-1.57-1.31-3.38-2.38-4.22-4.39A1.33,1.33,0,0,1,143.21,263.61Z"/><path class="cls-12" d="M123.42,258.34c-1.08,3.07-1.35,6.1.89,8.79a41,41,0,0,0,3.13,2.89c3.78,3.74,3.75,8.65,0,12.51-1.94,2-3.81,4.1-4,7.1a8.15,8.15,0,0,0,3.61,7.54c4.08,2.92,5.07,6.63,3.47,11.22a1.11,1.11,0,0,1-.44.42,36.75,36.75,0,0,1-5.65,1.41,1.35,1.35,0,0,1-1.36-.33c2.62-5.23,1.83-8.51-2.9-12.11a8.62,8.62,0,0,1-.88-13.08c2.32-2.39,4.45-4.82,4.19-8.55a8.17,8.17,0,0,0-3.09-5.88c-1.89-1.68-3.89-3.21-4.48-6a8.77,8.77,0,0,1,1.53-7A21.85,21.85,0,0,1,123.42,258.34Z"/><path class="cls-12" d="M143.21,263.61c1.17,2.35,3.35,3.72,5.17,5.47,3.28,3.16,3.84,7.28,0,11.55-1.19,1.33-2.65,2.4-3.45,4.11a7.4,7.4,0,0,0,2.23,9.24c2.31,1.79,4.72,3.55,4.67,6.95l-.1.27c-1.67,1.31-3.69,1.85-5.63,2.59a1,1,0,0,1-1-.24,8.13,8.13,0,0,0-3.86-8.25,9.37,9.37,0,0,1-2.92-3.08c-1.74-3-1.11-6.58,1.62-9.49,1.18-1.25,2.58-2.3,3.36-3.93a7.37,7.37,0,0,0-2.34-9.66c-1.66-1.26-3.44-2.5-4.13-4.62-.32-1-1-2.11.46-2.84A39.86,39.86,0,0,1,143.21,263.61Z"/><path class="cls-12" d="M164.52,294.21c-2.31-1.48-4.13-3.3-4.61-6.17a6.74,6.74,0,0,1,1.56-5.85c2.09-2.28,4.19-4.5,5.32-7.44a22.14,22.14,0,0,1,4.1,2.59c.79.61.63,1.24.06,1.9s-1.31,1.31-1.9,2a7.39,7.39,0,0,0-.76,9,2.93,2.93,0,0,1,.56,1.35A4.93,4.93,0,0,1,164.52,294.21Z"/><path class="cls-13" d="M87.58,259.5a41.21,41.21,0,0,1,9.75-9.66c.44-.31.91-.88,1.45-.64s.23,1,.34,1.52c0,.12,0,.25,0,.37.12.64-.39,1.58.35,1.86.94.36,1.38-.62,1.82-1.25a9.33,9.33,0,0,1,2.91-2.58c.3-.18.79-.4,1-.28.44.25.21.76.13,1.18a10.4,10.4,0,0,1-1.58,3.65c.92.43,1.43-.12,1.94-.62a16.09,16.09,0,0,1,5.06-3.1c.83-.35,1.43-.41,1.15.93a17.83,17.83,0,0,1-2,4.8c-5.4,0-10.8.1-16.08,1.53C91.71,257.8,89.69,258.76,87.58,259.5Z"/><path class="cls-7" d="M168.64,291.59c-3.42-4.14-2.14-8.8,1-11.73.68-.63,2-1.13,1.21-2.52a43.1,43.1,0,0,1,8.24,5.61,1.34,1.34,0,0,1-.31,1.69,53.46,53.46,0,0,1-9.69,7.16A.75.75,0,0,1,168.64,291.59Z"/><path class="cls-10" d="M169,291.59a116.61,116.61,0,0,0,9.36-7.08,2,2,0,0,0,.76-1.56h.21l.06,2.66c-.77,1.09-1.49,2.22-2.2,3.35a46.37,46.37,0,0,1-5.95,4.88C170.29,293.31,169.05,293.05,169,291.59Z"/><path class="cls-13" d="M201.86,307.88a36.92,36.92,0,0,1-10.64-5c-5.39-3.79-9.54-8.47-10.77-15.22-.26-1.48-.82-3.34.06-4.27.64-.69,2.27.73,3.41,1.29,6.22,3.07,11.69,7,15.33,13.11A17.71,17.71,0,0,1,201.86,307.88Z"/><path class="cls-13" d="M203.9,263.28a18.81,18.81,0,0,1-6.64,12.46,38.9,38.9,0,0,1-11.78,7,4.74,4.74,0,0,1-2.14.59c-2.24-.2-3-1.23-2.42-3.45,1.33-5.45,4.78-9.3,9.35-12.29a41.29,41.29,0,0,1,12.16-5C203.53,262.28,204.18,262.42,203.9,263.28Z"/><path class="cls-10" d="M177.2,289a4.89,4.89,0,0,1,2.2-3.35c0,.5,0,1,.07,1.51Z"/><path class="cls-10" d="M130.15,308.41l.35,0c4.93-1.24,9.71-3,14.57-4.47.12,1.73-.95,2.87-2,4a17.71,17.71,0,0,0-4,5.12,1.42,1.42,0,0,1-.57.57c-3.45,1.56-7.09,2.64-10.54,4.21a9.43,9.43,0,0,1-3.42,1.08c-1-1.71-.34-3.25.61-4.69A56,56,0,0,1,130.15,308.41Z"/><path class="cls-10" d="M151.84,300.93c4.42-1.74,8.43-4.3,12.69-6.36.91-.45,1.15.34,1.46.86a7.16,7.16,0,0,1,.82,1.8,109.8,109.8,0,0,1-19.47,12.34.8.8,0,0,1,.22-1,13.07,13.07,0,0,0,4.26-7.62Z"/><path class="cls-14" d="M130.15,308.41c-.58,2.15-2.52,3.27-3.81,4.87a7.24,7.24,0,0,0-1.81,5.59,47.76,47.76,0,0,1-7.06,1.9l-.45-.67c.07-3.63,2.42-6.05,4.58-8.57l1.06-1.26.39-.38A66.28,66.28,0,0,0,130.15,308.41Z"/><path class="cls-14" d="M151.82,300.94c.28,2.81-1,5-2.92,6.84a5.71,5.71,0,0,0-1.56,1.79l-1.14.67c-1.89.42-3.45,1.58-5.23,2.25-.71.26-1.36,1-2.23.4a8.61,8.61,0,0,1,2.79-4.06,13.28,13.28,0,0,0,3.54-4.91c0-.13,0-.25,0-.37C147.5,303.1,149.58,301.81,151.82,300.94Z"/><path class="cls-14" d="M166.81,297.23c-.84,0-.76-.8-1.05-1.28s-.39-1.3-1.23-1.37c0-.13,0-.25,0-.37a14,14,0,0,0,4.12-2.62H169c.42,1.07,1.82,1.18,2.24,2.25A33.19,33.19,0,0,1,166.81,297.23Z"/><path class="cls-10" d="M128,317.79c0-.84.73-.69,1.21-.88l9.21-3.65c.21.22.6.07.75.39A75.66,75.66,0,0,1,128,317.79Z"/><path class="cls-14" d="M139.12,313.65a.81.81,0,0,1-.75-.39l.37-.37a43.79,43.79,0,0,0,5.83-2.34c.5-.2,1-.93,1.63-.31A65.82,65.82,0,0,1,139.12,313.65Z"/><path class="cls-13" d="M103.92,314.73a14.8,14.8,0,0,1,3.75,1.17,30.32,30.32,0,0,1,8.06,4.19c1.82,1.42,1.82,2.68-.12,3.94-1.31.85-1.37,1.44,0,2.2.49.27.91.65,1.38.95,1.28.83,1.22,1.86.51,3s-1.6,1.66-3,1a11.25,11.25,0,0,1-3-1.87,38.64,38.64,0,0,1-9.82-12.46C101,315.33,101.46,314.74,103.92,314.73Z"/><path class="cls-12" d="M100.75,270.67a11.44,11.44,0,0,1-5.25-.7c-.71-.33-1.55-.53-1.61-1.59a2.28,2.28,0,0,1,1.33-2.08,15.17,15.17,0,0,1,6.84-2.21c2.76-.27,5.59-.58,8.31.32.92.31,2.18.49,2.2,1.92,0,1.27-.94,1.8-1.89,2.3A19.63,19.63,0,0,1,100.75,270.67Z"/><path class="cls-15" d="M76,292.71a9.67,9.67,0,0,1-9.75-9.86A9.77,9.77,0,0,1,76.09,273,10,10,0,0,1,85.92,283,9.82,9.82,0,0,1,76,292.71Z"/><path class="cls-11" d="M57.29,299.41l.38-.37c5,1.11,10,1.66,15-.29,1.8-.7,3.21-2,5.11-3.13a4.58,4.58,0,0,1-2,2.61c-3.65,2.6-7.81,3.06-12.08,2.58A58.22,58.22,0,0,1,57.29,299.41Z"/><path class="cls-16" d="M75.78,278.67c-1.21,2.18-.85,2.89,1.52,2.76,1-.05.74.64.77,1.06a4.6,4.6,0,0,1-4.21,4.6,4.55,4.55,0,1,1-1.48-9A4.81,4.81,0,0,1,75.78,278.67Z"/><path class="cls-9" d="M91.3,321.82c.68-.66,1.48-.19,2.3-.37-.24.53-.6.34-.87.42Z"/></svg>