<svg id="Layer_1" data-name="Layer 1" xmlns="http://www.w3.org/2000/svg" viewBox="0 0 512 512"><defs><style>.cls-1{opacity:0.5;}.cls-2{fill:#fff;}.cls-3{fill:#ffb600;stroke:#9b6312;stroke-width:2px;}.cls-3,.cls-6{stroke-miterlimit:10;}.cls-4{fill:#e6a324;}.cls-5{fill:#fcd766;}.cls-6{fill:#875f29;stroke:#63410f;stroke-width:0.75px;}.cls-7{fill:#f1ac1d;}</style></defs><path class="cls-1" d="M142.72,255.24a38.82,38.82,0,0,1-6-.5,27.29,27.29,0,0,1-4.3-1.08,18.66,18.66,0,0,1-2-.83,12.15,12.15,0,0,1-5.31-4.59c-4.25-7-2.45-13-.55-19.27a66.53,66.53,0,0,0,3.45-21.3c0-11.78.5-25.36,4.34-36.72,6.51-19.29,19.77-23.34,29.74-23.34a43.69,43.69,0,0,1,6.31.49,33.62,33.62,0,0,1,3.15-5.25l3.26-4.5,4.91,2.59a6,6,0,0,0,1.58.58l11.88,2.53-8.81,8.37-.21.21c9.93,4.52,21.94,15.26,17.79,46.11l-.06.45c-.06.45-.12.86-.19,1.27-.14,1-.3,2-.48,3a67.76,67.76,0,0,1-8.49,23.33c-.53.87-1.11,1.77-1.77,2.75-1.06,1.56-2.21,3.08-3.42,4.53-.71.85-1.35,1.59-2,2.26-.43.46-.87.92-1.31,1.36-.89.9-1.8,1.77-2.72,2.58-.46.41-.92.81-1.39,1.2a59,59,0,0,1-6.68,4.8c-1.2.74-2.39,1.42-3.55,2-1,.52-2,1-3,1.48a61.78,61.78,0,0,1-10.45,3.69c-1,.24-2,.46-2.91.65s-1.88.36-2.83.5a52.54,52.54,0,0,1-5.49.54c-.71,0-1.42.05-2.1.05Z"/><path class="cls-2" d="M137.38,249.91a38.69,38.69,0,0,1-6-.5,25.71,25.71,0,0,1-4.3-1.09,19.72,19.72,0,0,1-2-.82,12.27,12.27,0,0,1-5.31-4.59c-4.25-7-2.45-13-.54-19.27a66.6,66.6,0,0,0,3.44-21.31c0-11.78.51-25.35,4.34-36.71,6.51-19.29,19.77-23.34,29.75-23.34a42.18,42.18,0,0,1,6.3.49,34,34,0,0,1,3.16-5.25l3.26-4.5,4.91,2.59a6,6,0,0,0,1.58.58l11.88,2.53-8.81,8.37-.22.21c9.94,4.52,21.95,15.26,17.79,46.11l-.06.45c-.06.44-.12.85-.18,1.26-.15,1-.31,2-.49,3a67.55,67.55,0,0,1-8.49,23.33c-.52.87-1.1,1.77-1.77,2.75-1,1.55-2.21,3.08-3.41,4.53-.71.85-1.35,1.58-2,2.25-.43.47-.87.92-1.31,1.37-.89.9-1.8,1.76-2.72,2.58-.46.41-.93.81-1.4,1.2a58.06,58.06,0,0,1-6.68,4.79c-1.19.74-2.39,1.43-3.55,2-1,.51-2,1-3,1.48a60.48,60.48,0,0,1-10.44,3.68c-1,.25-1.95.47-2.91.66s-1.89.36-2.83.5c-1.86.27-3.7.45-5.49.53-.72,0-1.42,0-2.1,0Z"/><path class="cls-3" d="M168.72,150.55c-37.75-10.87-39.64,28.06-39.63,51.78,0,22.59-9.16,28.46-3.82,37.27s55.81,6,64.33-42.54C196.37,158.49,178.65,153.41,168.72,150.55Z"/><path class="cls-4" d="M182.06,157.62c4.68,6.15,8,16.4,4.74,35-8.14,46.44-56.33,49.17-61.43,40.74-.65-1.08-.43-2.33-.68-3.35-.75,3.35-1.36,6.37.58,9.56,5.34,8.8,55.81,6,64.33-42.54C193.58,174.37,188.45,163.5,182.06,157.62Z"/><path class="cls-5" d="M129.65,202.33c0,12.49-1.75,19.11-3.35,24.7l-.33,1.35a48.72,48.72,0,0,0,7-22.92c.71-13.69.17-35.42,8.16-44.63s14.75-12.27,27.1-9.78C130.44,140.18,129.63,178.61,129.65,202.33Z"/><path class="cls-5" d="M142.37,164.42c2.57-6.14,6.51-8.45,8.25-7.18s-3.59,3.47-6.32,8.68S139.36,171.59,142.37,164.42Z"/><path class="cls-5" d="M139.84,171.16c.7.79-.57,4.9-1.28,3.33S138.93,170.12,139.84,171.16Z"/><path class="cls-6" d="M171.42,141.27c-1.88,2.6-4.08,6.46-4.22,10.45a3.44,3.44,0,0,1,1.66.41,22.88,22.88,0,0,1,5.79-9.68A12.59,12.59,0,0,1,171.42,141.27Z"/><path class="cls-7" d="M139,186.56a.49.49,0,0,0-.06,1A.49.49,0,0,0,139,186.56Z"/><path class="cls-7" d="M144.06,191.68h-.16a.49.49,0,0,0-.07,1H144A.49.49,0,0,0,144.06,191.68Z"/><path class="cls-7" d="M143.25,198.67l-.16,0a.49.49,0,0,0-.07,1h.16A.48.48,0,0,0,143.25,198.67Z"/><path class="cls-7" d="M134.88,212.78v.16a.48.48,0,0,0,1,.07l0-.16A.49.49,0,0,0,134.88,212.78Z"/><path class="cls-7" d="M136.38,209.13v.16a.48.48,0,0,0,1,.07v-.16A.48.48,0,0,0,136.38,209.13Z"/><path class="cls-7" d="M179.92,186.88l-.14-.33c-.25-.57-1.12-.14-.87.43l.15.33C179.31,187.88,180.18,187.45,179.92,186.88Z"/><path class="cls-7" d="M172.81,192.47a.48.48,0,0,0-.07,1A.48.48,0,0,0,172.81,192.47Z"/><path class="cls-7" d="M181.94,191.08a.49.49,0,0,0-.07,1A.49.49,0,0,0,181.94,191.08Z"/><path class="cls-7" d="M177.35,190.37a.49.49,0,0,0-.06,1A.49.49,0,0,0,177.35,190.37Z"/><path class="cls-7" d="M176.55,202.61a.48.48,0,0,0-.06,1A.48.48,0,0,0,176.55,202.61Z"/><path class="cls-7" d="M173.3,185.39h-.16a.48.48,0,0,0-.07,1l.17,0A.49.49,0,0,0,173.3,185.39Z"/><path class="cls-7" d="M183.23,186.71a.48.48,0,0,0-.07,1A.48.48,0,0,0,183.23,186.71Z"/><path class="cls-7" d="M147.58,185.55a.48.48,0,0,0-.07,1A.48.48,0,0,0,147.58,185.55Z"/><path class="cls-7" d="M141.23,189.19a.49.49,0,0,0-.07,1A.49.49,0,0,0,141.23,189.19Z"/><path class="cls-7" d="M144.89,177.54a.48.48,0,0,0-.06,1A.48.48,0,0,0,144.89,177.54Z"/><path class="cls-7" d="M139.93,192.69l0,.16a.49.49,0,0,0,1,.07v-.16A.48.48,0,0,0,139.93,192.69Z"/><path class="cls-7" d="M142.16,184.69a.48.48,0,0,0-.06,1A.48.48,0,0,0,142.16,184.69Z"/><path class="cls-7" d="M130.5,230.26l-.16,0a1,1,0,0,0-.13,1.93l.16,0A1,1,0,0,0,130.5,230.26Z"/><path class="cls-7" d="M162.69,155.93v.16a1,1,0,0,0,1.93.13v-.16A1,1,0,0,0,162.69,155.93Z"/><path class="cls-7" d="M172.83,154.82l0,.16a1,1,0,0,0,1.93.13l0-.16A1,1,0,0,0,172.83,154.82Z"/><path class="cls-7" d="M168.52,154.6h-.16a.48.48,0,0,0-.06,1h.16A.48.48,0,0,0,168.52,154.6Z"/><path class="cls-7" d="M164,151.8h-.16a.48.48,0,0,0-.07,1l.16,0A.49.49,0,0,0,164,151.8Z"/><path class="cls-7" d="M173.05,158.63l0,.16a.49.49,0,0,0,1,.07v-.17A.48.48,0,0,0,173.05,158.63Z"/><path class="cls-7" d="M169.62,157v.16a.48.48,0,0,0,1,.06V157A.48.48,0,0,0,169.62,157Z"/><path class="cls-7" d="M177.15,157.42a.49.49,0,0,0-.07,1A.49.49,0,0,0,177.15,157.42Z"/><path class="cls-7" d="M159.54,152.47a.49.49,0,0,0-.07,1A.49.49,0,0,0,159.54,152.47Z"/><path class="cls-7" d="M155.28,157a.49.49,0,0,0-.07,1A.49.49,0,0,0,155.28,157Z"/><path class="cls-7" d="M139,205.8a.48.48,0,0,0-.06,1A.48.48,0,0,0,139,205.8Z"/><path class="cls-7" d="M128.33,226.55h-.16a.48.48,0,0,0-.06,1h.16A.48.48,0,0,0,128.33,226.55Z"/><path class="cls-7" d="M127.54,230.05h-.16a.48.48,0,0,0-.07,1l.17,0A.49.49,0,0,0,127.54,230.05Z"/><path class="cls-7" d="M133.2,233H133a.48.48,0,0,0-.06,1h.16A.48.48,0,0,0,133.2,233Z"/><path class="cls-7" d="M131.68,226.78a.49.49,0,0,0-.07,1A.49.49,0,0,0,131.68,226.78Z"/><path class="cls-7" d="M127.88,233.06h-.16a.49.49,0,0,0-.07,1h.17A.49.49,0,0,0,127.88,233.06Z"/><path class="cls-7" d="M147.14,229.47a.49.49,0,0,0-.07,1A.49.49,0,0,0,147.14,229.47Z"/><path class="cls-7" d="M151.26,229.76l-.16,0a.49.49,0,0,0-.07,1h.16A.48.48,0,0,0,151.26,229.76Z"/><path class="cls-7" d="M135.37,204.58a.48.48,0,0,0-.07,1A.48.48,0,0,0,135.37,204.58Z"/><path class="cls-7" d="M169.08,214.75a.49.49,0,0,0-.06,1A.49.49,0,0,0,169.08,214.75Z"/><path class="cls-7" d="M154.71,225.15h-.16a.48.48,0,0,0-.07,1h.16A.48.48,0,0,0,154.71,225.15Z"/><path class="cls-7" d="M167.7,220.72v.16a.48.48,0,0,0,1,.06l0-.16A.49.49,0,0,0,167.7,220.72Z"/><path class="cls-7" d="M177.27,212.17l-.17.15a.48.48,0,0,0,.63.73l.18-.15A.49.49,0,0,0,177.27,212.17Z"/><path class="cls-7" d="M137.32,190a.48.48,0,0,0-.07,1A.48.48,0,0,0,137.32,190Z"/><path class="cls-7" d="M174.74,194.78a.49.49,0,0,0-.07,1A.49.49,0,0,0,174.74,194.78Z"/><path class="cls-7" d="M162.45,197.19a.48.48,0,0,0-.07,1A.48.48,0,0,0,162.45,197.19Z"/><path class="cls-7" d="M179.3,194.68l-.15-.18c-.4-.47-1.13.17-.73.64l.15.17A.48.48,0,0,0,179.3,194.68Z"/><path class="cls-7" d="M155.5,203.08l-.15-.17a.48.48,0,0,0-.73.63l.15.18A.49.49,0,0,0,155.5,203.08Z"/><path class="cls-7" d="M160.23,207.36l-.15-.17a.49.49,0,0,0-.73.64l.15.17A.49.49,0,0,0,160.23,207.36Z"/><path class="cls-1" d="M238.72,255.24a38.82,38.82,0,0,1-6-.5,27.29,27.29,0,0,1-4.3-1.08,18.66,18.66,0,0,1-2-.83,12.15,12.15,0,0,1-5.31-4.59c-4.25-7-2.45-13-.55-19.27a66.53,66.53,0,0,0,3.45-21.3c0-11.78.5-25.36,4.34-36.72,6.51-19.29,19.77-23.34,29.74-23.34a43.69,43.69,0,0,1,6.31.49,33.62,33.62,0,0,1,3.15-5.25l3.26-4.5,4.91,2.59a6,6,0,0,0,1.58.58l11.88,2.53-8.81,8.37-.21.21c9.93,4.52,21.94,15.26,17.79,46.11l-.06.45c-.06.45-.12.86-.19,1.27-.14,1-.3,2-.48,3a67.76,67.76,0,0,1-8.49,23.33c-.53.87-1.11,1.77-1.77,2.75-1.06,1.56-2.21,3.08-3.42,4.53-.71.85-1.35,1.59-2,2.26-.43.46-.87.92-1.31,1.36-.89.9-1.8,1.77-2.72,2.58-.46.41-.92.81-1.39,1.2a59,59,0,0,1-6.68,4.8c-1.2.74-2.39,1.42-3.55,2-1,.52-2,1-3,1.48a61.78,61.78,0,0,1-10.45,3.69c-1,.24-2,.46-2.91.65s-1.88.36-2.83.5a52.54,52.54,0,0,1-5.49.54c-.71,0-1.42.05-2.1.05Z"/><path class="cls-2" d="M233.38,249.91a38.69,38.69,0,0,1-6-.5,25.71,25.71,0,0,1-4.3-1.09,19.72,19.72,0,0,1-2-.82,12.27,12.27,0,0,1-5.31-4.59c-4.25-7-2.45-13-.54-19.27a66.6,66.6,0,0,0,3.44-21.31c0-11.78.51-25.35,4.34-36.71,6.51-19.29,19.77-23.34,29.75-23.34a42.18,42.18,0,0,1,6.3.49,34,34,0,0,1,3.16-5.25l3.26-4.5,4.91,2.59a6,6,0,0,0,1.58.58l11.88,2.53-8.81,8.37-.22.21c9.94,4.52,22,15.26,17.79,46.11l-.06.45c-.06.44-.12.85-.18,1.26-.15,1-.31,2-.49,3a67.55,67.55,0,0,1-8.49,23.33c-.52.87-1.1,1.77-1.77,2.75-1.05,1.55-2.21,3.08-3.41,4.53-.71.85-1.35,1.58-2,2.25-.43.47-.87.92-1.31,1.37-.89.9-1.8,1.76-2.72,2.58-.46.41-.93.81-1.4,1.2a58.06,58.06,0,0,1-6.68,4.79c-1.19.74-2.39,1.43-3.55,2-1,.51-2,1-3,1.48a60.48,60.48,0,0,1-10.44,3.68c-1,.25-1.95.47-2.91.66s-1.89.36-2.83.5c-1.86.27-3.7.45-5.49.53-.72,0-1.42,0-2.1,0Z"/><path class="cls-3" d="M264.72,150.55c-37.75-10.87-39.64,28.06-39.63,51.78,0,22.59-9.16,28.46-3.82,37.27s55.81,6,64.33-42.54C292.37,158.49,274.65,153.41,264.72,150.55Z"/><path class="cls-4" d="M278.06,157.62c4.68,6.15,8,16.4,4.74,35-8.14,46.44-56.33,49.17-61.43,40.74-.65-1.08-.43-2.33-.68-3.35-.75,3.35-1.36,6.37.58,9.56,5.34,8.8,55.81,6,64.33-42.54C289.58,174.37,284.45,163.5,278.06,157.62Z"/><path class="cls-5" d="M225.65,202.33c0,12.49-1.75,19.11-3.35,24.7l-.33,1.35a48.72,48.72,0,0,0,7-22.92c.71-13.69.17-35.42,8.16-44.63s14.75-12.27,27.1-9.78C226.44,140.18,225.63,178.61,225.65,202.33Z"/><path class="cls-5" d="M238.37,164.42c2.57-6.14,6.51-8.45,8.25-7.18s-3.59,3.47-6.32,8.68S235.36,171.59,238.37,164.42Z"/><path class="cls-5" d="M235.84,171.16c.7.79-.57,4.9-1.28,3.33S234.93,170.12,235.84,171.16Z"/><path class="cls-6" d="M267.42,141.27c-1.88,2.6-4.08,6.46-4.22,10.45a3.44,3.44,0,0,1,1.66.41,22.88,22.88,0,0,1,5.79-9.68A12.59,12.59,0,0,1,267.42,141.27Z"/><path class="cls-7" d="M235,186.56a.49.49,0,0,0-.06,1A.49.49,0,0,0,235,186.56Z"/><path class="cls-7" d="M240.06,191.68h-.16a.49.49,0,0,0-.07,1H240A.49.49,0,0,0,240.06,191.68Z"/><path class="cls-7" d="M239.25,198.67l-.16,0a.49.49,0,0,0-.07,1h.16A.48.48,0,0,0,239.25,198.67Z"/><path class="cls-7" d="M230.88,212.78v.16a.48.48,0,0,0,1,.07l0-.16A.49.49,0,0,0,230.88,212.78Z"/><path class="cls-7" d="M232.38,209.13v.16a.48.48,0,0,0,1,.07v-.16A.48.48,0,0,0,232.38,209.13Z"/><path class="cls-7" d="M275.92,186.88l-.14-.33c-.25-.57-1.12-.14-.87.43l.15.33C275.31,187.88,276.18,187.45,275.92,186.88Z"/><path class="cls-7" d="M268.81,192.47a.48.48,0,0,0-.07,1A.48.48,0,0,0,268.81,192.47Z"/><path class="cls-7" d="M277.94,191.08a.49.49,0,0,0-.07,1A.49.49,0,0,0,277.94,191.08Z"/><path class="cls-7" d="M273.35,190.37a.49.49,0,0,0-.06,1A.49.49,0,0,0,273.35,190.37Z"/><path class="cls-7" d="M272.55,202.61a.48.48,0,0,0-.06,1A.48.48,0,0,0,272.55,202.61Z"/><path class="cls-7" d="M269.3,185.39h-.16a.48.48,0,0,0-.07,1l.17,0A.49.49,0,0,0,269.3,185.39Z"/><path class="cls-7" d="M279.23,186.71a.48.48,0,0,0-.07,1A.48.48,0,0,0,279.23,186.71Z"/><path class="cls-7" d="M243.58,185.55a.48.48,0,0,0-.07,1A.48.48,0,0,0,243.58,185.55Z"/><path class="cls-7" d="M237.23,189.19a.49.49,0,0,0-.07,1A.49.49,0,0,0,237.23,189.19Z"/><path class="cls-7" d="M240.89,177.54a.48.48,0,0,0-.06,1A.48.48,0,0,0,240.89,177.54Z"/><path class="cls-7" d="M235.93,192.69l0,.16a.49.49,0,0,0,1,.07v-.16A.48.48,0,0,0,235.93,192.69Z"/><path class="cls-7" d="M238.16,184.69a.48.48,0,0,0-.06,1A.48.48,0,0,0,238.16,184.69Z"/><path class="cls-7" d="M226.5,230.26l-.16,0a1,1,0,0,0-.13,1.93l.16,0A1,1,0,0,0,226.5,230.26Z"/><path class="cls-7" d="M258.69,155.93v.16a1,1,0,0,0,1.93.13v-.16A1,1,0,0,0,258.69,155.93Z"/><path class="cls-7" d="M268.83,154.82l0,.16a1,1,0,0,0,1.93.13l0-.16A1,1,0,0,0,268.83,154.82Z"/><path class="cls-7" d="M264.52,154.6h-.16a.48.48,0,0,0-.06,1h.16A.48.48,0,0,0,264.52,154.6Z"/><path class="cls-7" d="M260,151.8h-.16a.48.48,0,0,0-.07,1l.16,0A.49.49,0,0,0,260,151.8Z"/><path class="cls-7" d="M269.05,158.63l0,.16a.49.49,0,0,0,1,.07v-.17A.48.48,0,0,0,269.05,158.63Z"/><path class="cls-7" d="M265.62,157v.16a.48.48,0,0,0,1,.06V157A.48.48,0,0,0,265.62,157Z"/><path class="cls-7" d="M273.15,157.42a.49.49,0,0,0-.07,1A.49.49,0,0,0,273.15,157.42Z"/><path class="cls-7" d="M255.54,152.47a.49.49,0,0,0-.07,1A.49.49,0,0,0,255.54,152.47Z"/><path class="cls-7" d="M251.28,157a.49.49,0,0,0-.07,1A.49.49,0,0,0,251.28,157Z"/><path class="cls-7" d="M235,205.8a.48.48,0,0,0-.06,1A.48.48,0,0,0,235,205.8Z"/><path class="cls-7" d="M224.33,226.55h-.16a.48.48,0,0,0-.06,1h.16A.48.48,0,0,0,224.33,226.55Z"/><path class="cls-7" d="M223.54,230.05h-.16a.48.48,0,0,0-.07,1l.17,0A.49.49,0,0,0,223.54,230.05Z"/><path class="cls-7" d="M229.2,233H229a.48.48,0,0,0-.06,1h.16A.48.48,0,0,0,229.2,233Z"/><path class="cls-7" d="M227.68,226.78a.49.49,0,0,0-.07,1A.49.49,0,0,0,227.68,226.78Z"/><path class="cls-7" d="M223.88,233.06h-.16a.49.49,0,0,0-.07,1h.17A.49.49,0,0,0,223.88,233.06Z"/><path class="cls-7" d="M243.14,229.47a.49.49,0,0,0-.07,1A.49.49,0,0,0,243.14,229.47Z"/><path class="cls-7" d="M247.26,229.76l-.16,0a.49.49,0,0,0-.07,1h.16A.48.48,0,0,0,247.26,229.76Z"/><path class="cls-7" d="M231.37,204.58a.48.48,0,0,0-.07,1A.48.48,0,0,0,231.37,204.58Z"/><path class="cls-7" d="M265.08,214.75a.49.49,0,0,0-.06,1A.49.49,0,0,0,265.08,214.75Z"/><path class="cls-7" d="M250.71,225.15h-.16a.48.48,0,0,0-.07,1h.16A.48.48,0,0,0,250.71,225.15Z"/><path class="cls-7" d="M263.7,220.72v.16a.48.48,0,0,0,1,.06l0-.16A.49.49,0,0,0,263.7,220.72Z"/><path class="cls-7" d="M273.27,212.17l-.17.15a.48.48,0,0,0,.63.73l.18-.15A.49.49,0,0,0,273.27,212.17Z"/><path class="cls-7" d="M233.32,190a.48.48,0,0,0-.07,1A.48.48,0,0,0,233.32,190Z"/><path class="cls-7" d="M270.74,194.78a.49.49,0,0,0-.07,1A.49.49,0,0,0,270.74,194.78Z"/><path class="cls-7" d="M258.45,197.19a.48.48,0,0,0-.07,1A.48.48,0,0,0,258.45,197.19Z"/><path class="cls-7" d="M275.3,194.68l-.15-.18c-.4-.47-1.13.17-.73.64l.15.17A.48.48,0,0,0,275.3,194.68Z"/><path class="cls-7" d="M251.5,203.08l-.15-.17a.48.48,0,0,0-.73.63l.15.18A.49.49,0,0,0,251.5,203.08Z"/><path class="cls-7" d="M256.23,207.36l-.15-.17a.49.49,0,0,0-.73.64l.15.17A.49.49,0,0,0,256.23,207.36Z"/><path class="cls-1" d="M156.58,379a37.46,37.46,0,0,1-6-.51,25.73,25.73,0,0,1-4.3-1.08,19.72,19.72,0,0,1-2-.82A12.33,12.33,0,0,1,139,372c-4.25-7-2.45-13-.54-19.27a66.65,66.65,0,0,0,3.44-21.31c0-11.78.51-25.35,4.34-36.72C152.74,275.4,166,271.35,176,271.35a42.18,42.18,0,0,1,6.3.49,34.57,34.57,0,0,1,3.16-5.26l3.26-4.49,4.91,2.59a6,6,0,0,0,1.58.57l11.88,2.54-8.81,8.36-.22.21c9.94,4.52,22,15.26,17.79,46.11l-.06.46c-.06.44-.12.85-.18,1.26-.15,1-.31,2-.49,3.05a67.43,67.43,0,0,1-8.49,23.32c-.52.87-1.1,1.77-1.77,2.76-1.05,1.55-2.21,3.08-3.41,4.53-.71.84-1.35,1.58-2,2.25-.43.46-.87.92-1.31,1.37-.89.9-1.8,1.76-2.72,2.58l-1.4,1.19a58.13,58.13,0,0,1-6.68,4.8c-1.19.74-2.39,1.43-3.55,2-1,.51-2,1-3,1.47a61.37,61.37,0,0,1-10.44,3.69c-1,.25-2,.47-2.91.66s-1.89.35-2.83.49a52.81,52.81,0,0,1-5.49.54c-.72,0-1.42.05-2.1.05Z"/><path class="cls-2" d="M151.25,373.64a38.69,38.69,0,0,1-6-.5,26.74,26.74,0,0,1-4.3-1.08,18,18,0,0,1-2-.83,12.2,12.2,0,0,1-5.31-4.59c-4.25-7-2.45-13-.54-19.27a66.86,66.86,0,0,0,3.44-21.3c0-11.78.5-25.36,4.34-36.72,6.51-19.29,19.77-23.34,29.75-23.34a43.55,43.55,0,0,1,6.3.49,33,33,0,0,1,3.16-5.25l3.25-4.5,4.92,2.59a6.07,6.07,0,0,0,1.57.58l11.89,2.53-8.81,8.37-.22.21c9.93,4.52,21.95,15.26,17.79,46.11l-.06.45c-.06.45-.12.86-.18,1.27-.15,1-.31,2-.49,3a67.76,67.76,0,0,1-8.49,23.33c-.52.87-1.1,1.77-1.77,2.75-1.06,1.56-2.21,3.08-3.42,4.53-.7.85-1.35,1.59-2,2.26-.42.46-.86.92-1.3,1.36-.89.9-1.81,1.77-2.73,2.58-.45.41-.92.81-1.39,1.2a58.13,58.13,0,0,1-6.68,4.8c-1.2.74-2.39,1.42-3.55,2-1,.52-2,1-3,1.48A61.48,61.48,0,0,1,165,371.91c-1,.24-1.94.46-2.9.65s-1.89.36-2.84.5a52.36,52.36,0,0,1-5.48.54c-.72,0-1.42,0-2.11,0Z"/><path class="cls-3" d="M182.59,274.28C144.84,263.41,143,302.35,143,326.06c0,22.59-9.16,28.46-3.83,37.27s55.82,6,64.33-42.53C210.24,282.23,192.51,277.14,182.59,274.28Z"/><path class="cls-4" d="M195.93,281.35c4.68,6.15,8,16.4,4.73,35-8.13,46.44-56.32,49.17-61.42,40.74-.65-1.08-.44-2.33-.68-3.36-.75,3.35-1.36,6.37.57,9.56,5.34,8.81,55.82,6,64.33-42.53C207.45,298.11,202.32,287.23,195.93,281.35Z"/><path class="cls-5" d="M143.51,326.06c0,12.5-1.74,19.11-3.34,24.7l-.34,1.35a48.73,48.73,0,0,0,7-22.92c.71-13.69.17-35.42,8.16-44.62s14.74-12.28,27.1-9.78C144.31,263.92,143.5,302.35,143.51,326.06Z"/><path class="cls-5" d="M156.23,288.16c2.58-6.15,6.52-8.46,8.25-7.18s-3.58,3.47-6.31,8.67S153.23,295.32,156.23,288.16Z"/><path class="cls-5" d="M153.71,294.89c.7.79-.57,4.91-1.28,3.33S152.79,293.85,153.71,294.89Z"/><path class="cls-6" d="M185.29,265c-1.88,2.59-4.09,6.46-4.23,10.44a3.52,3.52,0,0,1,1.66.42,22.84,22.84,0,0,1,5.8-9.69A13,13,0,0,1,185.29,265Z"/><path class="cls-7" d="M152.91,310.29a.49.49,0,0,0-.07,1A.49.49,0,0,0,152.91,310.29Z"/><path class="cls-7" d="M157.92,315.42h-.16a.48.48,0,0,0-.06,1h.16A.48.48,0,0,0,157.92,315.42Z"/><path class="cls-7" d="M157.12,322.4H157a.48.48,0,0,0-.07,1h.16A.48.48,0,0,0,157.12,322.4Z"/><path class="cls-7" d="M148.75,336.52v.16a.48.48,0,0,0,1,.06v-.16A.48.48,0,0,0,148.75,336.52Z"/><path class="cls-7" d="M150.24,332.86V333a.49.49,0,0,0,1,.07v-.16A.49.49,0,0,0,150.24,332.86Z"/><path class="cls-7" d="M193.79,310.61l-.14-.33c-.26-.57-1.12-.14-.87.43l.14.33C193.17,311.61,194,311.18,193.79,310.61Z"/><path class="cls-7" d="M186.68,316.2a.49.49,0,0,0-.07,1A.49.49,0,0,0,186.68,316.2Z"/><path class="cls-7" d="M195.81,314.81a.49.49,0,0,0-.07,1A.49.49,0,0,0,195.81,314.81Z"/><path class="cls-7" d="M191.22,314.11a.48.48,0,0,0-.07,1A.48.48,0,0,0,191.22,314.11Z"/><path class="cls-7" d="M190.42,326.34a.49.49,0,0,0-.07,1A.49.49,0,0,0,190.42,326.34Z"/><path class="cls-7" d="M187.17,309.12H187a.49.49,0,0,0-.07,1h.16A.49.49,0,0,0,187.17,309.12Z"/><path class="cls-7" d="M197.1,310.44a.49.49,0,0,0-.07,1A.49.49,0,0,0,197.1,310.44Z"/><path class="cls-7" d="M161.45,309.28a.48.48,0,0,0-.07,1A.48.48,0,0,0,161.45,309.28Z"/><path class="cls-7" d="M155.09,312.92a.49.49,0,0,0-.07,1A.49.49,0,0,0,155.09,312.92Z"/><path class="cls-7" d="M158.76,301.27a.49.49,0,0,0-.07,1A.49.49,0,0,0,158.76,301.27Z"/><path class="cls-7" d="M153.79,316.42v.17a.49.49,0,0,0,1,.06v-.16A.49.49,0,0,0,153.79,316.42Z"/><path class="cls-7" d="M156,308.42a.48.48,0,0,0-.07,1A.48.48,0,0,0,156,308.42Z"/><path class="cls-7" d="M144.37,354h-.16a1,1,0,0,0-.14,1.93h.17A1,1,0,0,0,144.37,354Z"/><path class="cls-7" d="M176.56,279.66v.16a1,1,0,0,0,1.93.14v-.17A1,1,0,0,0,176.56,279.66Z"/><path class="cls-7" d="M186.69,278.55v.16a1,1,0,0,0,1.93.13v-.16A1,1,0,0,0,186.69,278.55Z"/><path class="cls-7" d="M182.39,278.33h-.16a.48.48,0,0,0-.07,1l.16,0A.49.49,0,0,0,182.39,278.33Z"/><path class="cls-7" d="M177.9,275.53h-.16a.49.49,0,0,0-.07,1h.16A.49.49,0,0,0,177.9,275.53Z"/><path class="cls-7" d="M186.91,282.36v.16a.49.49,0,0,0,1,.07v-.16A.49.49,0,0,0,186.91,282.36Z"/><path class="cls-7" d="M183.49,280.69l0,.16a.49.49,0,0,0,1,.07v-.16A.48.48,0,0,0,183.49,280.69Z"/><path class="cls-7" d="M191,281.16a.48.48,0,0,0-.06,1A.48.48,0,0,0,191,281.16Z"/><path class="cls-7" d="M173.4,276.21a.48.48,0,0,0-.06,1A.48.48,0,0,0,173.4,276.21Z"/><path class="cls-7" d="M169.14,280.72a.49.49,0,0,0-.06,1A.49.49,0,0,0,169.14,280.72Z"/><path class="cls-7" d="M152.9,329.53a.49.49,0,0,0-.07,1A.49.49,0,0,0,152.9,329.53Z"/><path class="cls-7" d="M142.2,350.28H142a.49.49,0,0,0-.07,1h.16A.49.49,0,0,0,142.2,350.28Z"/><path class="cls-7" d="M141.41,353.78h-.16a.49.49,0,0,0-.07,1h.16A.49.49,0,0,0,141.41,353.78Z"/><path class="cls-7" d="M147.07,356.68h-.16a.49.49,0,0,0-.07,1H147A.49.49,0,0,0,147.07,356.68Z"/><path class="cls-7" d="M145.55,350.52a.48.48,0,0,0-.07,1A.48.48,0,0,0,145.55,350.52Z"/><path class="cls-7" d="M141.75,356.8h-.16a.48.48,0,0,0-.07,1h.16A.48.48,0,0,0,141.75,356.8Z"/><path class="cls-7" d="M161,353.2a.49.49,0,0,0-.06,1A.49.49,0,0,0,161,353.2Z"/><path class="cls-7" d="M165.12,353.49H165a.48.48,0,0,0-.06,1h.16A.48.48,0,0,0,165.12,353.49Z"/><path class="cls-7" d="M149.24,328.31a.48.48,0,0,0-.07,1A.48.48,0,0,0,149.24,328.31Z"/><path class="cls-7" d="M183,338.48a.49.49,0,0,0-.07,1A.49.49,0,0,0,183,338.48Z"/><path class="cls-7" d="M168.57,348.88h-.16a.48.48,0,0,0-.06,1l.16,0A.49.49,0,0,0,168.57,348.88Z"/><path class="cls-7" d="M181.57,344.45v.16a.48.48,0,0,0,1,.07v-.16A.48.48,0,0,0,181.57,344.45Z"/><path class="cls-7" d="M191.14,335.91l-.17.15c-.48.4.16,1.13.63.73l.17-.15A.48.48,0,0,0,191.14,335.91Z"/><path class="cls-7" d="M151.18,313.74a.48.48,0,0,0-.06,1A.48.48,0,0,0,151.18,313.74Z"/><path class="cls-7" d="M188.6,318.52a.48.48,0,0,0-.06,1A.48.48,0,0,0,188.6,318.52Z"/><path class="cls-7" d="M176.32,320.92a.49.49,0,0,0-.07,1A.49.49,0,0,0,176.32,320.92Z"/><path class="cls-7" d="M193.17,318.41l-.15-.17a.48.48,0,0,0-.73.63l.15.17A.48.48,0,0,0,193.17,318.41Z"/><path class="cls-7" d="M169.36,326.82l-.15-.18a.49.49,0,0,0-.73.64l.15.17A.48.48,0,0,0,169.36,326.82Z"/><path class="cls-7" d="M174.1,331.1l-.15-.18a.49.49,0,0,0-.73.64l.15.17A.48.48,0,0,0,174.1,331.1Z"/><path class="cls-1" d="M263.25,379a37.46,37.46,0,0,1-6-.51,25.73,25.73,0,0,1-4.3-1.08,18,18,0,0,1-2-.82,12.33,12.33,0,0,1-5.31-4.59c-4.25-7-2.45-13-.54-19.27a66.94,66.94,0,0,0,3.44-21.31c0-11.78.5-25.35,4.34-36.72,6.51-19.28,19.77-23.33,29.75-23.33a42.18,42.18,0,0,1,6.3.49,33,33,0,0,1,3.16-5.26l3.25-4.49,4.92,2.59a6,6,0,0,0,1.57.57l11.89,2.54-8.81,8.36-.22.21c9.93,4.52,22,15.26,17.79,46.11l-.06.46c-.06.44-.12.85-.18,1.26-.15,1-.31,2-.49,3.05a67.63,67.63,0,0,1-8.49,23.32c-.52.87-1.1,1.77-1.77,2.76-1.06,1.55-2.21,3.08-3.42,4.53-.7.84-1.35,1.58-2,2.25-.42.46-.86.92-1.3,1.37-.89.9-1.81,1.76-2.73,2.58-.45.4-.92.8-1.39,1.19A58.13,58.13,0,0,1,294,370c-1.2.74-2.39,1.43-3.55,2-1,.51-2,1-3,1.47A61.48,61.48,0,0,1,277,377.24c-1,.25-1.94.47-2.9.66s-1.89.35-2.84.49a52.36,52.36,0,0,1-5.48.54c-.72,0-1.42.05-2.11.05Z"/><path class="cls-2" d="M257.92,373.64a38.82,38.82,0,0,1-6-.5,27.29,27.29,0,0,1-4.3-1.08,18.66,18.66,0,0,1-2-.83,12.15,12.15,0,0,1-5.31-4.59c-4.25-7-2.45-13-.55-19.27a66.53,66.53,0,0,0,3.45-21.3c0-11.78.5-25.36,4.34-36.72,6.51-19.29,19.77-23.34,29.74-23.34a43.69,43.69,0,0,1,6.31.49,33.62,33.62,0,0,1,3.15-5.25l3.26-4.5,4.91,2.59a6,6,0,0,0,1.58.58l11.88,2.53-8.81,8.37-.21.21c9.93,4.52,21.94,15.26,17.79,46.11l-.06.45c-.06.45-.12.86-.19,1.27-.14,1-.3,2-.48,3A67.76,67.76,0,0,1,308,345.23c-.53.87-1.11,1.77-1.77,2.75-1.06,1.56-2.21,3.08-3.42,4.53-.71.85-1.35,1.59-2,2.26-.43.46-.87.92-1.31,1.36-.89.9-1.8,1.77-2.72,2.58-.46.41-.92.81-1.39,1.2a59,59,0,0,1-6.68,4.8c-1.2.74-2.39,1.42-3.55,2-1,.52-2,1-3,1.48a61.78,61.78,0,0,1-10.45,3.69c-1,.24-1.95.46-2.91.65s-1.88.36-2.83.5a52.54,52.54,0,0,1-5.49.54c-.71,0-1.42,0-2.1,0Z"/><path class="cls-3" d="M289.26,274.28c-37.76-10.87-39.65,28.07-39.64,51.78,0,22.59-9.16,28.46-3.82,37.27s55.82,6,64.33-42.53C316.9,282.23,299.18,277.14,289.26,274.28Z"/><path class="cls-4" d="M302.59,281.35c4.68,6.15,8,16.4,4.74,35-8.14,46.44-56.33,49.17-61.42,40.74-.66-1.08-.44-2.33-.69-3.36-.74,3.35-1.35,6.37.58,9.56,5.34,8.81,55.82,6,64.33-42.53C314.12,298.11,309,287.23,302.59,281.35Z"/><path class="cls-5" d="M250.18,326.06c0,12.5-1.74,19.11-3.35,24.7l-.33,1.35a48.73,48.73,0,0,0,7-22.92c.71-13.69.16-35.42,8.15-44.62s14.75-12.28,27.11-9.78C251,263.92,250.17,302.35,250.18,326.06Z"/><path class="cls-5" d="M262.9,288.16c2.57-6.15,6.52-8.46,8.25-7.18s-3.59,3.47-6.31,8.67S259.9,295.32,262.9,288.16Z"/><path class="cls-5" d="M260.38,294.89c.69.79-.57,4.91-1.29,3.33S259.46,293.85,260.38,294.89Z"/><path class="cls-6" d="M292,265c-1.89,2.59-4.09,6.46-4.23,10.44a3.52,3.52,0,0,1,1.66.42,22.84,22.84,0,0,1,5.8-9.69A13,13,0,0,1,292,265Z"/><path class="cls-7" d="M259.58,310.29a.49.49,0,0,0-.07,1A.49.49,0,0,0,259.58,310.29Z"/><path class="cls-7" d="M264.59,315.42h-.16a.48.48,0,0,0-.07,1h.16A.48.48,0,0,0,264.59,315.42Z"/><path class="cls-7" d="M263.78,322.4h-.16a.48.48,0,0,0-.06,1h.16A.48.48,0,0,0,263.78,322.4Z"/><path class="cls-7" d="M255.41,336.52v.16a.49.49,0,0,0,1,.06v-.16A.49.49,0,0,0,255.41,336.52Z"/><path class="cls-7" d="M256.91,332.86V333a.48.48,0,0,0,1,.07l0-.16A.49.49,0,0,0,256.91,332.86Z"/><path class="cls-7" d="M300.46,310.61l-.15-.33c-.25-.57-1.12-.14-.87.43l.15.33C299.84,311.61,300.71,311.18,300.46,310.61Z"/><path class="cls-7" d="M293.35,316.2a.49.49,0,0,0-.07,1A.49.49,0,0,0,293.35,316.2Z"/><path class="cls-7" d="M302.47,314.81a.49.49,0,0,0-.06,1A.49.49,0,0,0,302.47,314.81Z"/><path class="cls-7" d="M297.89,314.11a.48.48,0,0,0-.07,1A.48.48,0,0,0,297.89,314.11Z"/><path class="cls-7" d="M297.09,326.34a.49.49,0,0,0-.07,1A.49.49,0,0,0,297.09,326.34Z"/><path class="cls-7" d="M293.84,309.12h-.16a.49.49,0,0,0-.07,1h.16A.49.49,0,0,0,293.84,309.12Z"/><path class="cls-7" d="M303.76,310.44a.49.49,0,0,0-.06,1A.49.49,0,0,0,303.76,310.44Z"/><path class="cls-7" d="M268.11,309.28a.48.48,0,0,0-.06,1A.48.48,0,0,0,268.11,309.28Z"/><path class="cls-7" d="M261.76,312.92a.49.49,0,0,0-.07,1A.49.49,0,0,0,261.76,312.92Z"/><path class="cls-7" d="M265.43,301.27a.49.49,0,0,0-.07,1A.49.49,0,0,0,265.43,301.27Z"/><path class="cls-7" d="M260.46,316.42v.17a.48.48,0,0,0,1,.06v-.16A.48.48,0,0,0,260.46,316.42Z"/><path class="cls-7" d="M262.7,308.42a.48.48,0,0,0-.07,1A.48.48,0,0,0,262.7,308.42Z"/><path class="cls-7" d="M251,354h-.16a1,1,0,0,0-.14,1.93h.16A1,1,0,0,0,251,354Z"/><path class="cls-7" d="M283.23,279.66v.16a1,1,0,0,0,1.93.14v-.17A1,1,0,0,0,283.23,279.66Z"/><path class="cls-7" d="M293.36,278.55v.16a1,1,0,0,0,1.93.13v-.16A1,1,0,0,0,293.36,278.55Z"/><path class="cls-7" d="M289.06,278.33h-.16a.48.48,0,0,0-.07,1l.16,0A.49.49,0,0,0,289.06,278.33Z"/><path class="cls-7" d="M284.56,275.53h-.16a.49.49,0,0,0-.06,1h.16A.49.49,0,0,0,284.56,275.53Z"/><path class="cls-7" d="M293.58,282.36v.16a.48.48,0,0,0,1,.07v-.16A.48.48,0,0,0,293.58,282.36Z"/><path class="cls-7" d="M290.15,280.69v.16a.49.49,0,0,0,1,.07v-.16A.49.49,0,0,0,290.15,280.69Z"/><path class="cls-7" d="M297.68,281.16a.48.48,0,0,0-.07,1A.48.48,0,0,0,297.68,281.16Z"/><path class="cls-7" d="M280.07,276.21a.48.48,0,0,0-.07,1A.48.48,0,0,0,280.07,276.21Z"/><path class="cls-7" d="M275.81,280.72a.49.49,0,0,0-.07,1A.49.49,0,0,0,275.81,280.72Z"/><path class="cls-7" d="M259.57,329.53a.49.49,0,0,0-.07,1A.49.49,0,0,0,259.57,329.53Z"/><path class="cls-7" d="M248.87,350.28h-.16a.49.49,0,0,0-.07,1h.16A.49.49,0,0,0,248.87,350.28Z"/><path class="cls-7" d="M248.08,353.78h-.17a.49.49,0,0,0-.06,1H248A.49.49,0,0,0,248.08,353.78Z"/><path class="cls-7" d="M253.74,356.68h-.16a.49.49,0,0,0-.07,1h.16A.49.49,0,0,0,253.74,356.68Z"/><path class="cls-7" d="M252.21,350.52a.48.48,0,0,0-.06,1A.48.48,0,0,0,252.21,350.52Z"/><path class="cls-7" d="M248.42,356.8h-.17a.48.48,0,0,0-.06,1h.16A.48.48,0,0,0,248.42,356.8Z"/><path class="cls-7" d="M267.67,353.2a.49.49,0,0,0-.07,1A.49.49,0,0,0,267.67,353.2Z"/><path class="cls-7" d="M271.79,353.49h-.16a.48.48,0,0,0-.07,1h.16A.48.48,0,0,0,271.79,353.49Z"/><path class="cls-7" d="M255.9,328.31a.48.48,0,0,0-.06,1A.48.48,0,0,0,255.9,328.31Z"/><path class="cls-7" d="M289.62,338.48a.49.49,0,0,0-.07,1A.49.49,0,0,0,289.62,338.48Z"/><path class="cls-7" d="M275.24,348.88h-.16a.48.48,0,0,0-.07,1l.16,0A.49.49,0,0,0,275.24,348.88Z"/><path class="cls-7" d="M288.23,344.45v.16a.49.49,0,0,0,1,.07v-.16A.49.49,0,0,0,288.23,344.45Z"/><path class="cls-7" d="M297.8,335.91l-.17.15c-.47.4.17,1.13.64.73l.17-.15A.49.49,0,0,0,297.8,335.91Z"/><path class="cls-7" d="M257.85,313.74a.48.48,0,0,0-.07,1A.48.48,0,0,0,257.85,313.74Z"/><path class="cls-7" d="M295.27,318.52a.48.48,0,0,0-.07,1A.48.48,0,0,0,295.27,318.52Z"/><path class="cls-7" d="M283,320.92a.49.49,0,0,0-.07,1A.49.49,0,0,0,283,320.92Z"/><path class="cls-7" d="M299.84,318.41l-.15-.17a.48.48,0,0,0-.73.63l.15.17A.48.48,0,0,0,299.84,318.41Z"/><path class="cls-7" d="M276,326.82l-.15-.18a.49.49,0,0,0-.73.64l.15.17A.48.48,0,0,0,276,326.82Z"/><path class="cls-7" d="M280.77,331.1l-.15-.18a.49.49,0,0,0-.73.64l.15.17A.48.48,0,0,0,280.77,331.1Z"/><path class="cls-1" d="M334.72,255.24a38.82,38.82,0,0,1-6-.5,27.29,27.29,0,0,1-4.3-1.08,18.66,18.66,0,0,1-2-.83,12.15,12.15,0,0,1-5.31-4.59c-4.25-7-2.45-13-.55-19.27a66.53,66.53,0,0,0,3.45-21.3c0-11.78.5-25.36,4.34-36.72,6.51-19.29,19.77-23.34,29.74-23.34a43.69,43.69,0,0,1,6.31.49,33.62,33.62,0,0,1,3.15-5.25l3.26-4.5,4.91,2.59a6,6,0,0,0,1.58.58l11.88,2.53-8.81,8.37-.21.21c9.93,4.52,21.94,15.26,17.79,46.11l-.06.45c-.06.45-.12.86-.19,1.27-.14,1-.3,2-.48,3a67.76,67.76,0,0,1-8.49,23.33c-.53.87-1.11,1.77-1.77,2.75-1.06,1.56-2.21,3.08-3.42,4.53-.71.85-1.35,1.59-2,2.26-.43.46-.87.92-1.31,1.36-.89.9-1.8,1.77-2.72,2.58-.46.41-.92.81-1.39,1.2a59,59,0,0,1-6.68,4.8c-1.2.74-2.39,1.42-3.55,2-1,.52-2,1-3,1.48a61.78,61.78,0,0,1-10.45,3.69c-1,.24-1.95.46-2.91.65s-1.88.36-2.83.5a52.54,52.54,0,0,1-5.49.54c-.71,0-1.42.05-2.1.05Z"/><path class="cls-2" d="M329.38,249.91a38.69,38.69,0,0,1-6-.5,25.71,25.71,0,0,1-4.3-1.09,19.72,19.72,0,0,1-2-.82,12.27,12.27,0,0,1-5.31-4.59c-4.25-7-2.45-13-.54-19.27a66.6,66.6,0,0,0,3.44-21.31c0-11.78.51-25.35,4.34-36.71,6.51-19.29,19.77-23.34,29.75-23.34a42.18,42.18,0,0,1,6.3.49,34,34,0,0,1,3.16-5.25l3.26-4.5,4.91,2.59a6,6,0,0,0,1.58.58l11.88,2.53-8.81,8.37-.22.21c9.94,4.52,22,15.26,17.79,46.11l-.06.45c-.06.44-.12.85-.18,1.26-.15,1-.31,2-.49,3a67.55,67.55,0,0,1-8.49,23.33c-.52.87-1.1,1.77-1.77,2.75-1.05,1.55-2.21,3.08-3.41,4.53-.71.85-1.35,1.58-2,2.25-.43.47-.87.92-1.31,1.37-.89.9-1.8,1.76-2.72,2.58-.46.41-.93.81-1.4,1.2a58.06,58.06,0,0,1-6.68,4.79c-1.19.74-2.39,1.43-3.55,2-1,.51-2,1-3,1.48a60.48,60.48,0,0,1-10.44,3.68c-1,.25-2,.47-2.91.66s-1.89.36-2.83.5c-1.86.27-3.7.45-5.49.53-.72,0-1.42,0-2.1,0Z"/><path class="cls-3" d="M360.72,150.55c-37.75-10.87-39.64,28.06-39.63,51.78,0,22.59-9.16,28.46-3.82,37.27s55.81,6,64.33-42.54C388.37,158.49,370.65,153.41,360.72,150.55Z"/><path class="cls-4" d="M374.06,157.62c4.68,6.15,8,16.4,4.74,35-8.14,46.44-56.33,49.17-61.43,40.74-.65-1.08-.43-2.33-.68-3.35-.75,3.35-1.36,6.37.58,9.56,5.34,8.8,55.81,6,64.33-42.54C385.58,174.37,380.45,163.5,374.06,157.62Z"/><path class="cls-5" d="M321.65,202.33c0,12.49-1.75,19.11-3.35,24.7l-.33,1.35a48.72,48.72,0,0,0,7-22.92c.71-13.69.17-35.42,8.16-44.63s14.75-12.27,27.1-9.78C322.44,140.18,321.63,178.61,321.65,202.33Z"/><path class="cls-5" d="M334.37,164.42c2.57-6.14,6.51-8.45,8.25-7.18s-3.59,3.47-6.32,8.68S331.36,171.59,334.37,164.42Z"/><path class="cls-5" d="M331.84,171.16c.7.79-.57,4.9-1.28,3.33S330.93,170.12,331.84,171.16Z"/><path class="cls-6" d="M363.42,141.27c-1.88,2.6-4.08,6.46-4.22,10.45a3.44,3.44,0,0,1,1.66.41,22.88,22.88,0,0,1,5.79-9.68A12.59,12.59,0,0,1,363.42,141.27Z"/><path class="cls-7" d="M331,186.56a.49.49,0,0,0-.06,1A.49.49,0,0,0,331,186.56Z"/><path class="cls-7" d="M336.06,191.68h-.16a.49.49,0,0,0-.07,1H336A.49.49,0,0,0,336.06,191.68Z"/><path class="cls-7" d="M335.25,198.67l-.16,0a.49.49,0,0,0-.07,1h.16A.48.48,0,0,0,335.25,198.67Z"/><path class="cls-7" d="M326.88,212.78v.16a.48.48,0,0,0,1,.07l0-.16A.49.49,0,0,0,326.88,212.78Z"/><path class="cls-7" d="M328.38,209.13v.16a.48.48,0,0,0,1,.07v-.16A.48.48,0,0,0,328.38,209.13Z"/><path class="cls-7" d="M371.92,186.88l-.14-.33c-.25-.57-1.12-.14-.87.43l.15.33C371.31,187.88,372.18,187.45,371.92,186.88Z"/><path class="cls-7" d="M364.81,192.47a.48.48,0,0,0-.07,1A.48.48,0,0,0,364.81,192.47Z"/><path class="cls-7" d="M373.94,191.08a.49.49,0,0,0-.07,1A.49.49,0,0,0,373.94,191.08Z"/><path class="cls-7" d="M369.35,190.37a.49.49,0,0,0-.06,1A.49.49,0,0,0,369.35,190.37Z"/><path class="cls-7" d="M368.55,202.61a.48.48,0,0,0-.06,1A.48.48,0,0,0,368.55,202.61Z"/><path class="cls-7" d="M365.3,185.39h-.16a.48.48,0,0,0-.07,1l.17,0A.49.49,0,0,0,365.3,185.39Z"/><path class="cls-7" d="M375.23,186.71a.48.48,0,0,0-.07,1A.48.48,0,0,0,375.23,186.71Z"/><path class="cls-7" d="M339.58,185.55a.48.48,0,0,0-.07,1A.48.48,0,0,0,339.58,185.55Z"/><path class="cls-7" d="M333.23,189.19a.49.49,0,0,0-.07,1A.49.49,0,0,0,333.23,189.19Z"/><path class="cls-7" d="M336.89,177.54a.48.48,0,0,0-.06,1A.48.48,0,0,0,336.89,177.54Z"/><path class="cls-7" d="M331.93,192.69l0,.16a.49.49,0,0,0,1,.07v-.16A.48.48,0,0,0,331.93,192.69Z"/><path class="cls-7" d="M334.16,184.69a.48.48,0,0,0-.06,1A.48.48,0,0,0,334.16,184.69Z"/><path class="cls-7" d="M322.5,230.26l-.16,0a1,1,0,0,0-.13,1.93l.16,0A1,1,0,0,0,322.5,230.26Z"/><path class="cls-7" d="M354.69,155.93v.16a1,1,0,0,0,1.93.13v-.16A1,1,0,0,0,354.69,155.93Z"/><path class="cls-7" d="M364.83,154.82l0,.16a1,1,0,0,0,1.93.13l0-.16A1,1,0,0,0,364.83,154.82Z"/><path class="cls-7" d="M360.52,154.6h-.16a.48.48,0,0,0-.06,1h.16A.48.48,0,0,0,360.52,154.6Z"/><path class="cls-7" d="M356,151.8h-.16a.48.48,0,0,0-.07,1l.16,0A.49.49,0,0,0,356,151.8Z"/><path class="cls-7" d="M365.05,158.63l0,.16a.49.49,0,0,0,1,.07v-.17A.48.48,0,0,0,365.05,158.63Z"/><path class="cls-7" d="M361.62,157v.16a.48.48,0,0,0,1,.06V157A.48.48,0,0,0,361.62,157Z"/><path class="cls-7" d="M369.15,157.42a.49.49,0,0,0-.07,1A.49.49,0,0,0,369.15,157.42Z"/><path class="cls-7" d="M351.54,152.47a.49.49,0,0,0-.07,1A.49.49,0,0,0,351.54,152.47Z"/><path class="cls-7" d="M347.28,157a.49.49,0,0,0-.07,1A.49.49,0,0,0,347.28,157Z"/><path class="cls-7" d="M331,205.8a.48.48,0,0,0-.06,1A.48.48,0,0,0,331,205.8Z"/><path class="cls-7" d="M320.33,226.55h-.16a.48.48,0,0,0-.06,1h.16A.48.48,0,0,0,320.33,226.55Z"/><path class="cls-7" d="M319.54,230.05h-.16a.48.48,0,0,0-.07,1l.17,0A.49.49,0,0,0,319.54,230.05Z"/><path class="cls-7" d="M325.2,233H325a.48.48,0,0,0-.06,1h.16A.48.48,0,0,0,325.2,233Z"/><path class="cls-7" d="M323.68,226.78a.49.49,0,0,0-.07,1A.49.49,0,0,0,323.68,226.78Z"/><path class="cls-7" d="M319.88,233.06h-.16a.49.49,0,0,0-.07,1h.17A.49.49,0,0,0,319.88,233.06Z"/><path class="cls-7" d="M339.14,229.47a.49.49,0,0,0-.07,1A.49.49,0,0,0,339.14,229.47Z"/><path class="cls-7" d="M343.26,229.76l-.16,0a.49.49,0,0,0-.07,1h.16A.48.48,0,0,0,343.26,229.76Z"/><path class="cls-7" d="M327.37,204.58a.48.48,0,0,0-.07,1A.48.48,0,0,0,327.37,204.58Z"/><path class="cls-7" d="M361.08,214.75a.49.49,0,0,0-.06,1A.49.49,0,0,0,361.08,214.75Z"/><path class="cls-7" d="M346.71,225.15h-.16a.48.48,0,0,0-.07,1h.16A.48.48,0,0,0,346.71,225.15Z"/><path class="cls-7" d="M359.7,220.72v.16a.48.48,0,0,0,1,.06l0-.16A.49.49,0,0,0,359.7,220.72Z"/><path class="cls-7" d="M369.27,212.17l-.17.15a.48.48,0,0,0,.63.73l.18-.15A.49.49,0,0,0,369.27,212.17Z"/><path class="cls-7" d="M329.32,190a.48.48,0,0,0-.07,1A.48.48,0,0,0,329.32,190Z"/><path class="cls-7" d="M366.74,194.78a.49.49,0,0,0-.07,1A.49.49,0,0,0,366.74,194.78Z"/><path class="cls-7" d="M354.45,197.19a.48.48,0,0,0-.07,1A.48.48,0,0,0,354.45,197.19Z"/><path class="cls-7" d="M371.3,194.68l-.15-.18c-.4-.47-1.13.17-.73.64l.15.17A.48.48,0,0,0,371.3,194.68Z"/><path class="cls-7" d="M347.5,203.08l-.15-.17a.48.48,0,0,0-.73.63l.15.18A.49.49,0,0,0,347.5,203.08Z"/><path class="cls-7" d="M352.23,207.36l-.15-.17a.49.49,0,0,0-.73.64l.15.17A.49.49,0,0,0,352.23,207.36Z"/></svg>