<svg id="Layer_1" data-name="Layer 1" xmlns="http://www.w3.org/2000/svg" xmlns:xlink="http://www.w3.org/1999/xlink" viewBox="0 0 512 512"><defs><style>.cls-1{mask:url(#mask);}.cls-2,.cls-4,.cls-6,.cls-7,.cls-8,.cls-9{opacity:0.8;mix-blend-mode:multiply;}.cls-2{fill:url(#linear-gradient);}.cls-3{mask:url(#mask-2);}.cls-4{fill:url(#linear-gradient-2);}.cls-5{mask:url(#mask-3);}.cls-6{fill:url(#linear-gradient-3);}.cls-7{fill:url(#linear-gradient-4);}.cls-8{fill:url(#linear-gradient-5);}.cls-9{fill:url(#linear-gradient-6);}.cls-10,.cls-17{opacity:0.5;}.cls-11,.cls-16,.cls-17{fill:#fff;}.cls-12{fill:#d8001f;}.cls-13{fill:#fc0b17;}.cls-14{fill:#c40216;}.cls-15{mask:url(#mask-7);}.cls-16{opacity:0.3;}.cls-18{fill:#00e01a;}.cls-19{fill:#00bc0d;}.cls-20{fill:#0ff730;}.cls-21{mask:url(#mask-8);}.cls-22{fill:#eade00;}.cls-23{fill:#c6b700;}.cls-24{fill:#f9f20d;}.cls-25{mask:url(#mask-9);}.cls-26{fill:#a400c1;}.cls-27{fill:#8800a0;}.cls-28{fill:#b900d3;}.cls-29{mask:url(#mask-10);}.cls-30{fill:#d300c9;}.cls-31{fill:#a800a0;}.cls-32{fill:#f411df;}.cls-33{mask:url(#mask-11);}.cls-34{fill:#e05a00;}.cls-35{fill:#a54300;}.cls-36{fill:#ff6700;}.cls-37{mask:url(#mask-12);}.cls-38{filter:url(#luminosity-noclip-3);}.cls-39{filter:url(#luminosity-noclip-2);}.cls-40{filter:url(#luminosity-noclip);}</style><filter id="luminosity-noclip" x="126.25" y="-8988.64" width="57.69" height="32766" filterUnits="userSpaceOnUse" color-interpolation-filters="sRGB"><feFlood flood-color="#fff" result="bg"/><feBlend in="SourceGraphic" in2="bg"/></filter><mask id="mask" x="126.25" y="-8988.64" width="57.69" height="32766" maskUnits="userSpaceOnUse"><g class="cls-40"/></mask><linearGradient id="linear-gradient" x1="1072.35" y1="556.26" x2="1095.55" y2="596.81" gradientTransform="translate(-789.3 -620.64) rotate(11.71)" gradientUnits="userSpaceOnUse"><stop offset="0" stop-color="#fff"/><stop offset="1"/></linearGradient><filter id="luminosity-noclip-2" x="316.07" y="-8988.64" width="57.69" height="32766" filterUnits="userSpaceOnUse" color-interpolation-filters="sRGB"><feFlood flood-color="#fff" result="bg"/><feBlend in="SourceGraphic" in2="bg"/></filter><mask id="mask-2" x="316.07" y="-8988.64" width="57.69" height="32766" maskUnits="userSpaceOnUse"><g class="cls-39"/></mask><linearGradient id="linear-gradient-2" x1="1283.54" y1="639.89" x2="1306.75" y2="680.45" xlink:href="#linear-gradient"/><filter id="luminosity-noclip-3" x="221.16" y="-8988.64" width="57.69" height="32766" filterUnits="userSpaceOnUse" color-interpolation-filters="sRGB"><feFlood flood-color="#fff" result="bg"/><feBlend in="SourceGraphic" in2="bg"/></filter><mask id="mask-3" x="221.16" y="-8988.64" width="57.69" height="32766" maskUnits="userSpaceOnUse"><g class="cls-38"/></mask><linearGradient id="linear-gradient-3" x1="1165.28" y1="536.99" x2="1188.49" y2="577.54" xlink:href="#linear-gradient"/><linearGradient id="linear-gradient-4" x1="1258.21" y1="517.72" x2="1281.42" y2="558.28" xlink:href="#linear-gradient"/><linearGradient id="linear-gradient-5" x1="1097.67" y1="678.43" x2="1120.88" y2="718.98" xlink:href="#linear-gradient"/><linearGradient id="linear-gradient-6" x1="1190.61" y1="659.16" x2="1213.82" y2="699.71" xlink:href="#linear-gradient"/><mask id="mask-7" x="126.25" y="140.22" width="57.69" height="47.58" maskUnits="userSpaceOnUse"><g class="cls-1"><path class="cls-2" d="M183.12,155.43c3.75,12.25-5.76,26-21.24,30.76s-31.06-1.34-34.82-13.6,5.76-26,21.24-30.76S179.37,143.18,183.12,155.43Z"/></g></mask><mask id="mask-8" x="221.16" y="140.22" width="57.69" height="47.58" maskUnits="userSpaceOnUse"><g class="cls-5"><path class="cls-6" d="M278,155.43c3.75,12.25-5.75,26-21.23,30.76s-31.07-1.34-34.82-13.6,5.75-26,21.23-30.76S274.28,143.18,278,155.43Z"/></g></mask><mask id="mask-9" x="316.07" y="140.22" width="57.69" height="47.58" maskUnits="userSpaceOnUse"><g class="cls-3"><path class="cls-7" d="M372.94,155.43c3.76,12.25-5.75,26-21.23,30.76s-31.07-1.34-34.82-13.6,5.75-26,21.23-30.76S369.19,143.18,372.94,155.43Z"/></g></mask><mask id="mask-10" x="126.25" y="264.99" width="57.69" height="47.58" maskUnits="userSpaceOnUse"><g class="cls-1"><path class="cls-8" d="M183.12,280.2c3.75,12.25-5.76,26-21.24,30.76s-31.06-1.34-34.82-13.59,5.76-26,21.24-30.77S179.37,268,183.12,280.2Z"/></g></mask><mask id="mask-11" x="221.16" y="264.99" width="57.69" height="47.58" maskUnits="userSpaceOnUse"><g class="cls-5"><path class="cls-9" d="M278,280.2c3.75,12.25-5.75,26-21.23,30.76s-31.07-1.34-34.82-13.59,5.75-26,21.23-30.77S274.28,268,278,280.2Z"/></g></mask><mask id="mask-12" x="316.07" y="264.99" width="57.69" height="47.58" maskUnits="userSpaceOnUse"><g class="cls-3"><path class="cls-4" d="M372.94,280.2c3.76,12.25-5.75,26-21.23,30.76s-31.07-1.34-34.82-13.59,5.75-26,21.23-30.77S369.19,268,372.94,280.2Z"/></g></mask></defs><path class="cls-10" d="M164.91,254.18a5.09,5.09,0,0,1-1.33-.19,5,5,0,0,1-1.19-.5,8.74,8.74,0,0,1-1,.07,5.24,5.24,0,0,1-4.81-2.73,4.9,4.9,0,0,1-.21-4.12c-19.81-6.2-36.16-35.81-36.16-59.28,0-27,19.54-49,43.56-49s43.57,22,43.57,49a78.32,78.32,0,0,1-10.67,38.39c-6.36,10.66-14.64,17.81-23.76,20.66a6,6,0,0,1-.38,4.23,5.08,5.08,0,0,1-4.57,2.87h0c-.23,0-.45,0-.66,0A4.72,4.72,0,0,1,164.91,254.18Z"/><path class="cls-11" d="M159.58,248.84a5.09,5.09,0,0,1-1.34-.18,5.68,5.68,0,0,1-1.19-.5,8.42,8.42,0,0,1-1,.07,5.24,5.24,0,0,1-4.81-2.73,4.93,4.93,0,0,1-.22-4.12c-19.81-6.2-36.15-35.81-36.15-59.28,0-27,19.54-49,43.56-49s43.57,22,43.57,49a78.23,78.23,0,0,1-10.68,38.39c-6.36,10.66-14.63,17.8-23.75,20.66a6.06,6.06,0,0,1-.38,4.23,5.08,5.08,0,0,1-4.57,2.87h0a4.91,4.91,0,0,1-.67-.05A4.56,4.56,0,0,1,159.58,248.84Z"/><path class="cls-12" d="M158.36,240.61c0-1.63-1.62-3.53,1-3.53s1.05,1.9,1.05,3.53-.46,2.94-1,2.94S158.36,242.23,158.36,240.61Z"/><path class="cls-13" d="M163.41,242.2a4.51,4.51,0,0,0-1.33-1.64,4,4,0,0,0-.91-.75,4,4,0,0,0-1.15-.07c-.4,0-.81,0-1.21,0a1.75,1.75,0,0,0-.79.07.79.79,0,0,0-.15.12,5.3,5.3,0,0,0-1.35,1c-.52.47-1.91,1.81-1.5,2.59.27.53,1.28.46,1.75.33s1.08-.54,1.56-.31.52.84,1.06,1,.6-.22.79-.59.49-.78,1-.62,1,.78,1.6.62S163.64,242.75,163.41,242.2Z"/><path class="cls-14" d="M159.85,240.13c-.42-.09-.89,0-1.16-.08s-1.12.13-.92-.7c.1-.42.56-.36.79-.37a5.59,5.59,0,0,0,.8-.14,1.52,1.52,0,0,1,.91.17c.13.08.67,0,.73.09C161.57,239.87,160.19,240.21,159.85,240.13Z"/><path class="cls-12" d="M163.31,242.73c-.09-.65-1.05-1-1.6-.88a12.55,12.55,0,0,1-2.16.38c-.82,0-1.68-.28-2.51-.26s-2.39.63-1.76,1.5l-.09-.13c.59.85,1.59.26,2.34,0,.31-.09.86-.2,1.11.07s.67,1.12,1.06.66c.6-.68,1.15-1.31,2.1-.75.66.38,1.66.46,1.51-.64C163.24,242.24,163.34,243,163.31,242.73Z"/><path class="cls-13" d="M197.72,182.1c0,24.73-15.66,56.2-39.3,56.2-19.57,0-39.3-31.47-39.3-56.2s17.6-44.78,39.3-44.78S197.72,157.37,197.72,182.1Z"/><g class="cls-15"><path class="cls-16" d="M183.12,155.43c3.75,12.25-5.76,26-21.24,30.76s-31.06-1.34-34.82-13.6,5.76-26,21.24-30.76S179.37,143.18,183.12,155.43Z"/></g><path class="cls-17" d="M128.8,176.45a18.83,18.83,0,0,1-1.67-3.84,19,19,0,0,1-.38-9.59,40.83,40.83,0,0,1,10-10.31q1.46,3.19,3.13,6.4C134.39,163.84,130.3,170,128.8,176.45Zm18.65-31.12a76.75,76.75,0,0,0-6.79,4.32c.63,2.32,1.35,4.64,2.15,7a68.61,68.61,0,0,1,6.37-4.69C148.52,149.72,148,147.52,147.45,145.33Zm-3.95,13.26c.7,1.9,1.45,3.81,2.26,5.71a67.17,67.17,0,0,1,5.86-5.05c-.68-1.82-1.3-3.63-1.87-5.45A73.9,73.9,0,0,0,143.5,158.59Zm-2.65,2.32c-5.43,4.9-9.34,11.19-10.5,17.83a21.41,21.41,0,0,0,5,4.58,29.57,29.57,0,0,1,8.44-17.18C142.78,164.39,141.8,162.65,140.85,160.91Z"/><path class="cls-10" d="M259.82,254.18a5.09,5.09,0,0,1-1.33-.19,5,5,0,0,1-1.19-.5,8.74,8.74,0,0,1-1,.07,5.24,5.24,0,0,1-4.81-2.73,4.9,4.9,0,0,1-.21-4.12c-19.81-6.2-36.16-35.81-36.16-59.28,0-27,19.54-49,43.57-49s43.56,22,43.56,49a78.32,78.32,0,0,1-10.67,38.39c-6.36,10.66-14.64,17.81-23.76,20.66a6,6,0,0,1-.38,4.23,5.08,5.08,0,0,1-4.57,2.87h0c-.23,0-.45,0-.66,0A4.72,4.72,0,0,1,259.82,254.18Z"/><path class="cls-11" d="M254.49,248.84a5.07,5.07,0,0,1-1.33-.18,5.77,5.77,0,0,1-1.2-.5,8.42,8.42,0,0,1-1,.07,5.24,5.24,0,0,1-4.81-2.73,4.93,4.93,0,0,1-.22-4.12c-19.81-6.2-36.15-35.81-36.15-59.28,0-27,19.54-49,43.56-49s43.57,22,43.57,49a78.32,78.32,0,0,1-10.67,38.39c-6.36,10.66-14.64,17.8-23.76,20.66a6,6,0,0,1-.38,4.23,5.08,5.08,0,0,1-4.57,2.87h0a4.65,4.65,0,0,1-.66-.05A4.62,4.62,0,0,1,254.49,248.84Z"/><path class="cls-18" d="M253.27,240.61c0-1.63-1.62-3.53,1-3.53s1,1.9,1,3.53-.46,2.94-1,2.94S253.27,242.23,253.27,240.61Z"/><path class="cls-18" d="M258.32,242.2a4.51,4.51,0,0,0-1.33-1.64,4,4,0,0,0-.91-.75,3.94,3.94,0,0,0-1.14-.07c-.41,0-.82,0-1.22,0a1.7,1.7,0,0,0-.78.07.61.61,0,0,0-.16.12,5.49,5.49,0,0,0-1.35,1c-.51.47-1.9,1.81-1.5,2.59.27.53,1.28.46,1.75.33s1.08-.54,1.56-.31.52.84,1.06,1,.6-.22.79-.59.5-.78,1-.62,1,.78,1.6.62S258.55,242.75,258.32,242.2Z"/><path class="cls-19" d="M254.76,240.13c-.42-.09-.88,0-1.16-.08s-1.12.13-.92-.7c.1-.42.56-.36.79-.37a5.59,5.59,0,0,0,.8-.14,1.52,1.52,0,0,1,.91.17c.13.08.67,0,.73.09C256.48,239.87,255.1,240.21,254.76,240.13Z"/><path class="cls-19" d="M258.22,242.73c-.09-.65-1.05-1-1.6-.88a12.38,12.38,0,0,1-2.16.38c-.82,0-1.67-.28-2.5-.26s-2.4.63-1.77,1.5a.57.57,0,0,1-.08-.13c.59.85,1.58.26,2.33,0,.31-.09.86-.2,1.12.07s.66,1.12,1.05.66c.6-.68,1.15-1.31,2.1-.75.66.38,1.67.46,1.51-.64C258.15,242.24,258.26,243,258.22,242.73Z"/><path class="cls-20" d="M292.64,182.1c0,24.73-15.67,56.2-39.31,56.2-19.56,0-39.3-31.47-39.3-56.2s17.6-44.78,39.3-44.78S292.64,157.37,292.64,182.1Z"/><g class="cls-21"><path class="cls-16" d="M278,155.43c3.75,12.25-5.75,26-21.23,30.76s-31.07-1.34-34.82-13.6,5.75-26,21.23-30.76S274.28,143.18,278,155.43Z"/></g><path class="cls-17" d="M223.71,176.45a18.83,18.83,0,0,1-1.67-3.84,19.15,19.15,0,0,1-.38-9.59,40.7,40.7,0,0,1,10-10.31c1,2.13,2,4.26,3.12,6.4C229.3,163.84,225.21,170,223.71,176.45Zm18.65-31.12a78.24,78.24,0,0,0-6.79,4.32c.63,2.32,1.35,4.64,2.15,7a70,70,0,0,1,6.37-4.69C243.43,149.72,242.86,147.52,242.36,145.33Zm-3.94,13.26c.69,1.9,1.44,3.81,2.25,5.71a67.17,67.17,0,0,1,5.86-5.05c-.68-1.82-1.3-3.63-1.87-5.45A72.19,72.19,0,0,0,238.42,158.59Zm-2.65,2.32c-5.44,4.9-9.35,11.19-10.51,17.83a21.41,21.41,0,0,0,5,4.58,29.57,29.57,0,0,1,8.44-17.18Q237.19,163.51,235.77,160.91Z"/><path class="cls-10" d="M354.73,254.18a5.09,5.09,0,0,1-1.33-.19,5,5,0,0,1-1.19-.5,8.57,8.57,0,0,1-1,.07,5.24,5.24,0,0,1-4.82-2.73,4.9,4.9,0,0,1-.21-4.12C326.36,240.51,310,210.9,310,187.43c0-27,19.55-49,43.57-49s43.56,22,43.56,49a78.32,78.32,0,0,1-10.67,38.39c-6.36,10.66-14.64,17.81-23.76,20.66a6,6,0,0,1-.38,4.23,5.1,5.1,0,0,1-3.27,2.7,5.15,5.15,0,0,1-1.3.17h0c-.23,0-.45,0-.66,0A4.67,4.67,0,0,1,354.73,254.18Z"/><path class="cls-11" d="M349.4,248.84a5.07,5.07,0,0,1-1.33-.18,5.46,5.46,0,0,1-1.19-.5,8.74,8.74,0,0,1-1,.07,5.24,5.24,0,0,1-4.81-2.73,4.9,4.9,0,0,1-.21-4.12c-19.81-6.2-36.16-35.81-36.16-59.28,0-27,19.54-49,43.57-49s43.56,22,43.56,49a78.32,78.32,0,0,1-10.67,38.39c-6.36,10.66-14.64,17.8-23.76,20.66a6,6,0,0,1-.38,4.23,5.08,5.08,0,0,1-4.57,2.87h0a4.64,4.64,0,0,0-3,.59Z"/><path class="cls-22" d="M348.18,240.61c0-1.63-1.62-3.53,1-3.53s1.06,1.9,1.06,3.53-.47,2.94-1,2.94S348.18,242.23,348.18,240.61Z"/><path class="cls-22" d="M353.24,242.2a4.54,4.54,0,0,0-1.34-1.64,3.83,3.83,0,0,0-.91-.75,3.94,3.94,0,0,0-1.14-.07c-.41,0-.81,0-1.22,0a1.7,1.7,0,0,0-.78.07.61.61,0,0,0-.16.12,5.68,5.68,0,0,0-1.35,1c-.51.47-1.9,1.81-1.5,2.59.28.53,1.28.46,1.75.33s1.08-.54,1.56-.31.52.84,1.07,1,.59-.22.78-.59.5-.78,1-.62,1,.78,1.61.62S353.46,242.75,353.24,242.2Z"/><path class="cls-23" d="M349.67,240.13c-.42-.09-.88,0-1.16-.08s-1.12.13-.92-.7c.1-.42.56-.36.79-.37a5.59,5.59,0,0,0,.8-.14,1.49,1.49,0,0,1,.91.17c.14.08.67,0,.74.09C351.39,239.87,350,240.21,349.67,240.13Z"/><path class="cls-23" d="M353.13,242.73c-.09-.65-1-1-1.6-.88a12.38,12.38,0,0,1-2.16.38c-.81,0-1.67-.28-2.5-.26s-2.4.63-1.77,1.5l-.08-.13c.59.85,1.58.26,2.33,0,.31-.09.86-.2,1.12.07s.66,1.12,1.06.66c.59-.68,1.14-1.31,2.09-.75.66.38,1.67.46,1.51-.64C353.06,242.24,353.17,243,353.13,242.73Z"/><path class="cls-24" d="M387.55,182.1c0,24.73-15.66,56.2-39.3,56.2-19.57,0-39.31-31.47-39.31-56.2s17.6-44.78,39.31-44.78S387.55,157.37,387.55,182.1Z"/><g class="cls-25"><path class="cls-16" d="M372.94,155.43c3.76,12.25-5.75,26-21.23,30.76s-31.07-1.34-34.82-13.6,5.75-26,21.23-30.76S369.19,143.18,372.94,155.43Z"/></g><path class="cls-17" d="M318.63,176.45a18.32,18.32,0,0,1-1.68-3.84,19.15,19.15,0,0,1-.38-9.59,41,41,0,0,1,10-10.31q1.45,3.19,3.12,6.4C324.21,163.84,320.12,170,318.63,176.45Zm18.65-31.12a76.9,76.9,0,0,0-6.8,4.32c.63,2.32,1.35,4.64,2.15,7a70,70,0,0,1,6.37-4.69C338.35,149.72,337.77,147.52,337.28,145.33Zm-3.95,13.26c.69,1.9,1.45,3.81,2.26,5.71a65.6,65.6,0,0,1,5.85-5.05c-.68-1.82-1.3-3.63-1.87-5.45A72.19,72.19,0,0,0,333.33,158.59Zm-2.65,2.32c-5.44,4.9-9.34,11.19-10.51,17.83a21.26,21.26,0,0,0,5,4.58,29.45,29.45,0,0,1,8.44-17.18Q332.09,163.51,330.68,160.91Z"/><path class="cls-10" d="M164.91,379a5.09,5.09,0,0,1-1.33-.19,5,5,0,0,1-1.19-.5,7,7,0,0,1-1,.07,5.24,5.24,0,0,1-4.81-2.73,4.9,4.9,0,0,1-.21-4.12c-19.81-6.2-36.16-35.81-36.16-59.28,0-27,19.54-49,43.56-49s43.57,22,43.57,49a78.32,78.32,0,0,1-10.67,38.39c-6.36,10.66-14.64,17.81-23.76,20.67a6,6,0,0,1-.38,4.22,5.08,5.08,0,0,1-4.57,2.87h0a4.68,4.68,0,0,1-.66,0A4.72,4.72,0,0,1,164.91,379Z"/><path class="cls-11" d="M159.58,373.61a5.09,5.09,0,0,1-1.34-.18,5.19,5.19,0,0,1-1.19-.5,8.42,8.42,0,0,1-1,.07,5.24,5.24,0,0,1-4.81-2.73,4.93,4.93,0,0,1-.22-4.12c-19.81-6.2-36.15-35.81-36.15-59.28,0-27,19.54-49.05,43.56-49.05s43.57,22,43.57,49.05a78.23,78.23,0,0,1-10.68,38.39c-6.36,10.66-14.63,17.81-23.75,20.66a6.06,6.06,0,0,1-.38,4.23,5.15,5.15,0,0,1-3.27,2.7,5.21,5.21,0,0,1-1.3.17h0c-.23,0-.45,0-.67,0A4.63,4.63,0,0,1,159.58,373.61Z"/><path class="cls-26" d="M158.36,365.38c0-1.63-1.62-3.53,1-3.53s1.05,1.9,1.05,3.53-.46,2.95-1,2.95S158.36,367,158.36,365.38Z"/><path class="cls-26" d="M163.41,367a4.51,4.51,0,0,0-1.33-1.64,4,4,0,0,0-.91-.75,4.37,4.37,0,0,0-1.15-.07c-.4,0-.81,0-1.21,0a1.9,1.9,0,0,0-.79.07.87.87,0,0,0-.15.13,5.05,5.05,0,0,0-1.35,1c-.52.47-1.91,1.81-1.5,2.59.27.53,1.28.46,1.75.33s1.08-.54,1.56-.3.52.83,1.06,1,.6-.22.79-.59.49-.78,1-.62,1,.78,1.6.62S163.64,367.52,163.41,367Z"/><path class="cls-27" d="M159.85,364.9c-.42-.09-.89,0-1.16-.08s-1.12.14-.92-.7c.1-.42.56-.35.79-.37a7.4,7.4,0,0,0,.8-.13,1.52,1.52,0,0,1,.91.16c.13.08.67,0,.73.09C161.57,364.64,160.19,365,159.85,364.9Z"/><path class="cls-27" d="M163.31,367.5c-.09-.65-1.05-1-1.6-.88a12.55,12.55,0,0,1-2.16.38c-.82,0-1.68-.28-2.51-.26s-2.39.63-1.76,1.51l-.09-.14c.59.85,1.59.26,2.34.05.31-.08.86-.2,1.11.07s.67,1.12,1.06.67c.6-.69,1.15-1.32,2.1-.76.66.39,1.66.47,1.51-.64C163.24,367,163.34,367.75,163.31,367.5Z"/><path class="cls-28" d="M197.72,306.87c0,24.73-15.66,56.2-39.3,56.2-19.57,0-39.3-31.47-39.3-56.2s17.6-44.78,39.3-44.78S197.72,282.14,197.72,306.87Z"/><g class="cls-29"><path class="cls-16" d="M183.12,280.2c3.75,12.25-5.76,26-21.24,30.76s-31.06-1.34-34.82-13.59,5.76-26,21.24-30.77S179.37,268,183.12,280.2Z"/></g><path class="cls-17" d="M128.8,301.22a18.83,18.83,0,0,1-1.67-3.84,19,19,0,0,1-.38-9.59,41,41,0,0,1,10-10.31q1.46,3.19,3.13,6.4C134.39,288.61,130.3,294.72,128.8,301.22Zm18.65-31.12a74.63,74.63,0,0,0-6.79,4.33c.63,2.31,1.35,4.64,2.15,7a70.48,70.48,0,0,1,6.37-4.69C148.52,274.5,148,272.29,147.45,270.1Zm-3.95,13.26c.7,1.91,1.45,3.81,2.26,5.72a65.61,65.61,0,0,1,5.86-5.06q-1-2.73-1.87-5.44A71.75,71.75,0,0,0,143.5,283.36Zm-2.65,2.32c-5.43,4.91-9.34,11.19-10.5,17.83a21.66,21.66,0,0,0,5,4.59,29.59,29.59,0,0,1,8.44-17.19C142.78,289.17,141.8,287.42,140.85,285.68Z"/><path class="cls-10" d="M259.82,379a5.09,5.09,0,0,1-1.33-.19,5,5,0,0,1-1.19-.5,7,7,0,0,1-1,.07,5.24,5.24,0,0,1-4.81-2.73,4.9,4.9,0,0,1-.21-4.12c-19.81-6.2-36.16-35.81-36.16-59.28,0-27,19.54-49,43.57-49s43.56,22,43.56,49a78.32,78.32,0,0,1-10.67,38.39c-6.36,10.66-14.64,17.81-23.76,20.67a6,6,0,0,1-.38,4.22,5.08,5.08,0,0,1-4.57,2.87h0a4.68,4.68,0,0,1-.66,0A4.72,4.72,0,0,1,259.82,379Z"/><path class="cls-11" d="M254.49,373.61a5.07,5.07,0,0,1-1.33-.18,5.28,5.28,0,0,1-1.2-.5,8.42,8.42,0,0,1-1,.07,5.24,5.24,0,0,1-4.81-2.73,4.93,4.93,0,0,1-.22-4.12c-19.81-6.2-36.15-35.81-36.15-59.28,0-27,19.54-49.05,43.56-49.05s43.57,22,43.57,49.05a78.32,78.32,0,0,1-10.67,38.39c-6.36,10.66-14.64,17.81-23.76,20.66a6,6,0,0,1-.38,4.23,5.08,5.08,0,0,1-4.57,2.87h0c-.23,0-.45,0-.66,0A4.69,4.69,0,0,1,254.49,373.61Z"/><path class="cls-30" d="M253.27,365.38c0-1.63-1.62-3.53,1-3.53s1,1.9,1,3.53-.46,2.95-1,2.95S253.27,367,253.27,365.38Z"/><path class="cls-30" d="M258.32,367a4.51,4.51,0,0,0-1.33-1.64,4,4,0,0,0-.91-.75,4.32,4.32,0,0,0-1.14-.07c-.41,0-.82,0-1.22,0a1.84,1.84,0,0,0-.78.07.65.65,0,0,0-.16.13,5.22,5.22,0,0,0-1.35,1c-.51.47-1.9,1.81-1.5,2.59.27.53,1.28.46,1.75.33s1.08-.54,1.56-.3.52.83,1.06,1,.6-.22.79-.59.5-.78,1-.62,1,.78,1.6.62S258.55,367.52,258.32,367Z"/><path class="cls-31" d="M254.76,364.9c-.42-.09-.88,0-1.16-.08s-1.12.14-.92-.7c.1-.42.56-.35.79-.37a7.4,7.4,0,0,0,.8-.13,1.52,1.52,0,0,1,.91.16c.13.08.67,0,.73.09C256.48,364.64,255.1,365,254.76,364.9Z"/><path class="cls-31" d="M258.22,367.5c-.09-.65-1.05-1-1.6-.88a12.38,12.38,0,0,1-2.16.38c-.82,0-1.67-.28-2.5-.26s-2.4.63-1.77,1.51a1,1,0,0,1-.08-.14c.59.85,1.58.26,2.33.05.31-.08.86-.2,1.12.07s.66,1.12,1.05.67c.6-.69,1.15-1.32,2.1-.76.66.39,1.67.47,1.51-.64C258.15,367,258.26,367.75,258.22,367.5Z"/><path class="cls-32" d="M292.64,306.87c0,24.73-15.67,56.2-39.31,56.2-19.56,0-39.3-31.47-39.3-56.2s17.6-44.78,39.3-44.78S292.64,282.14,292.64,306.87Z"/><g class="cls-33"><path class="cls-16" d="M278,280.2c3.75,12.25-5.75,26-21.23,30.76s-31.07-1.34-34.82-13.59,5.75-26,21.23-30.77S274.28,268,278,280.2Z"/></g><path class="cls-17" d="M223.71,301.22a18.83,18.83,0,0,1-1.67-3.84,19.15,19.15,0,0,1-.38-9.59,40.87,40.87,0,0,1,10-10.31c1,2.13,2,4.26,3.12,6.4C229.3,288.61,225.21,294.72,223.71,301.22Zm18.65-31.12a76,76,0,0,0-6.79,4.33c.63,2.31,1.35,4.64,2.15,7a71.91,71.91,0,0,1,6.37-4.69C243.43,274.5,242.86,272.29,242.36,270.1Zm-3.94,13.26c.69,1.91,1.44,3.81,2.25,5.72a65.61,65.61,0,0,1,5.86-5.06q-1-2.73-1.87-5.44A70.13,70.13,0,0,0,238.42,283.36Zm-2.65,2.32c-5.44,4.91-9.35,11.19-10.51,17.83a21.66,21.66,0,0,0,5,4.59,29.59,29.59,0,0,1,8.44-17.19C237.7,289.17,236.71,287.42,235.77,285.68Z"/><path class="cls-10" d="M354.73,379a5.09,5.09,0,0,1-1.33-.19,5,5,0,0,1-1.19-.5,6.86,6.86,0,0,1-1,.07,5.24,5.24,0,0,1-4.82-2.73,4.9,4.9,0,0,1-.21-4.12C326.36,365.28,310,335.67,310,312.2c0-27,19.55-49,43.57-49s43.56,22,43.56,49a78.32,78.32,0,0,1-10.67,38.39c-6.36,10.66-14.64,17.81-23.76,20.67a6,6,0,0,1-.38,4.22,5.1,5.1,0,0,1-3.27,2.7,5.15,5.15,0,0,1-1.3.17h0a4.85,4.85,0,0,0-3,.6Z"/><path class="cls-11" d="M349.4,373.61a5.07,5.07,0,0,1-1.33-.18,5,5,0,0,1-1.19-.5,8.74,8.74,0,0,1-1,.07,5.24,5.24,0,0,1-4.81-2.73,4.9,4.9,0,0,1-.21-4.12c-19.81-6.2-36.16-35.81-36.16-59.28,0-27,19.54-49.05,43.57-49.05s43.56,22,43.56,49.05a78.32,78.32,0,0,1-10.67,38.39c-6.36,10.66-14.64,17.81-23.76,20.66a6,6,0,0,1-.38,4.23,5.08,5.08,0,0,1-4.57,2.87h0c-.23,0-.45,0-.66,0A4.69,4.69,0,0,1,349.4,373.61Z"/><path class="cls-34" d="M348.18,365.38c0-1.63-1.62-3.53,1-3.53s1.06,1.9,1.06,3.53-.47,2.95-1,2.95S348.18,367,348.18,365.38Z"/><path class="cls-34" d="M353.24,367a4.54,4.54,0,0,0-1.34-1.64,3.83,3.83,0,0,0-.91-.75,4.32,4.32,0,0,0-1.14-.07c-.41,0-.81,0-1.22,0a1.84,1.84,0,0,0-.78.07.65.65,0,0,0-.16.13,5.4,5.4,0,0,0-1.35,1c-.51.47-1.9,1.81-1.5,2.59.28.53,1.28.46,1.75.33s1.08-.54,1.56-.3.52.83,1.07,1,.59-.22.78-.59.5-.78,1-.62,1,.78,1.61.62S353.46,367.52,353.24,367Z"/><path class="cls-35" d="M349.67,364.9c-.42-.09-.88,0-1.16-.08s-1.12.14-.92-.7c.1-.42.56-.35.79-.37a7.4,7.4,0,0,0,.8-.13,1.49,1.49,0,0,1,.91.16c.14.08.67,0,.74.09C351.39,364.64,350,365,349.67,364.9Z"/><path class="cls-35" d="M353.13,367.5c-.09-.65-1-1-1.6-.88a12.38,12.38,0,0,1-2.16.38c-.81,0-1.67-.28-2.5-.26s-2.4.63-1.77,1.51l-.08-.14c.59.85,1.58.26,2.33.05.31-.08.86-.2,1.12.07s.66,1.12,1.06.67c.59-.69,1.14-1.32,2.09-.76.66.39,1.67.47,1.51-.64C353.06,367,353.17,367.75,353.13,367.5Z"/><path class="cls-36" d="M387.55,306.87c0,24.73-15.66,56.2-39.3,56.2-19.57,0-39.31-31.47-39.31-56.2s17.6-44.78,39.31-44.78S387.55,282.14,387.55,306.87Z"/><g class="cls-37"><path class="cls-16" d="M372.94,280.2c3.76,12.25-5.75,26-21.23,30.76s-31.07-1.34-34.82-13.59,5.75-26,21.23-30.77S369.19,268,372.94,280.2Z"/></g><path class="cls-17" d="M318.63,301.22a18.32,18.32,0,0,1-1.68-3.84,19.15,19.15,0,0,1-.38-9.59,41.21,41.21,0,0,1,10-10.31q1.45,3.19,3.12,6.4C324.21,288.61,320.12,294.72,318.63,301.22Zm18.65-31.12a74.78,74.78,0,0,0-6.8,4.33c.63,2.31,1.35,4.64,2.15,7a71.91,71.91,0,0,1,6.37-4.69C338.35,274.5,337.77,272.29,337.28,270.1Zm-3.95,13.26c.69,1.91,1.45,3.81,2.26,5.72a64.11,64.11,0,0,1,5.85-5.06q-1-2.73-1.87-5.44A70.13,70.13,0,0,0,333.33,283.36Zm-2.65,2.32c-5.44,4.91-9.34,11.19-10.51,17.83a21.51,21.51,0,0,0,5,4.59,29.47,29.47,0,0,1,8.44-17.19C332.61,289.17,331.62,287.42,330.68,285.68Z"/></svg>