<svg xmlns="http://www.w3.org/2000/svg" viewBox="0 0 512 512"><defs><style>.cls-1{isolation:isolate;}.cls-2{opacity:0.5;}.cls-3,.cls-6,.cls-8{fill:#fff;}.cls-4{fill:#a7b8d1;stroke:#5b6f87;stroke-width:2px;}.cls-4,.cls-5,.cls-7,.cls-9{stroke-miterlimit:10;}.cls-5{fill:#e6b97f;stroke:#bf8b51;}.cls-6{opacity:0.25;}.cls-7{fill:#89b83b;stroke:#688927;}.cls-8{opacity:0.2;}.cls-9{fill:#5d8c2d;stroke:#45661f;}.cls-10{fill:#8f9db3;}.cls-11{fill:#dadee3;opacity:0.32;}.cls-11,.cls-12{mix-blend-mode:multiply;}.cls-12{fill:#e4e8ed;opacity:0.4;}</style></defs><g class="cls-1"><g id="Layer_1" data-name="Layer 1"><path class="cls-2" d="M109.49,256.59c-1,0-2,0-3.06-.11-1.41-.1-2.9-.24-4.53-.44a9.9,9.9,0,0,1-7.81-5.74c-7.71-17-5.5-25.72,5-40.41l0,0,3.72-5.07a9.47,9.47,0,0,1,1.36-2.69l.15-.2a9.32,9.32,0,0,1,13-2l3.75,2.76,1.66-2.26a8.53,8.53,0,0,1,1.94-1.9L152,161.26a8.34,8.34,0,0,1,1.24-2.43l4.14-5.64c-.63-5.29,1.17-11.25,5.25-17a9.5,9.5,0,0,1,4.88-3.57,8.63,8.63,0,0,1,9.52.49L189,141.85a8.65,8.65,0,0,1,3.3,9,9.5,9.5,0,0,1-1.94,5.67c-4.28,5.61-9.4,9.1-14.67,10.09l-4.14,5.64a8.5,8.5,0,0,1-2,1.92l-27.34,37.21a8.36,8.36,0,0,1-1.25,2.45l-1.65,2.24,3.75,2.76a9.33,9.33,0,0,1,2,13l-.14.2a9.2,9.2,0,0,1-2.22,2.14l-1.72,2.3-.77,1a75.8,75.8,0,0,1-9.47,11.18c-.67.62-1.36,1.21-2,1.76-.36.29-.72.56-1.08.82a25.65,25.65,0,0,1-2.25,1.48l-1.18.66a29.58,29.58,0,0,1-14.27,3.2Z"/><path class="cls-3" d="M103.49,251.59c-1,0-2-.05-3.06-.11-1.41-.1-2.9-.24-4.53-.44a9.9,9.9,0,0,1-7.81-5.74c-7.71-17-5.5-25.72,5-40.41l0,0,3.72-5.07a9.47,9.47,0,0,1,1.36-2.69l.15-.2a9.32,9.32,0,0,1,13-2l3.75,2.76,1.66-2.26a8.53,8.53,0,0,1,1.94-1.9L146,156.26a8.34,8.34,0,0,1,1.24-2.43l4.14-5.64c-.63-5.29,1.17-11.25,5.25-17a9.5,9.5,0,0,1,4.88-3.57,8.63,8.63,0,0,1,9.52.49L183,136.85a8.65,8.65,0,0,1,3.3,9,9.5,9.5,0,0,1-1.94,5.67c-4.28,5.61-9.4,9.1-14.67,10.09l-4.14,5.64a8.5,8.5,0,0,1-2,1.92l-27.34,37.21a8.36,8.36,0,0,1-1.25,2.45l-1.65,2.24,3.75,2.76a9.33,9.33,0,0,1,2,13l-.14.2a9.2,9.2,0,0,1-2.22,2.14l-1.72,2.3-.77,1a75.8,75.8,0,0,1-9.47,11.18c-.67.62-1.36,1.21-2,1.76-.36.29-.72.56-1.08.82a25.65,25.65,0,0,1-2.25,1.48l-1.18.66a29.58,29.58,0,0,1-14.27,3.2Z"/><path class="cls-4" d="M118.17,212.55l-13.54-10c-.66.9-3.16,4.4-3.85,5.35-10.1,13.75-12,19.54-5.41,34.05a1.89,1.89,0,0,0,1.51,1.1c15.81,2,20.78-1.58,30.88-15.33.69-.94,3.29-4.37,4-5.27Z"/><rect class="cls-5" x="113.7" y="178.25" width="55.12" height="5.77" transform="translate(-88.35 187.71) rotate(-53.69)"/><path class="cls-6" d="M127.81,201.45h0a.78.78,0,0,1-.16-1.08l27.9-38a.77.77,0,0,1,1.08-.16h0a.77.77,0,0,1,.16,1.07l-27.9,38A.77.77,0,0,1,127.81,201.45Z"/><rect class="cls-7" x="153.4" y="152.6" width="12.76" height="6.64" rx="0.66" transform="translate(-60.47 192.36) rotate(-53.69)"/><path class="cls-7" d="M177.64,144.43l-12.23-9a1.58,1.58,0,0,0-2.22.35c-4.75,6.72-5.29,13.48-.9,16.71s10.69.69,15.68-5.85A1.58,1.58,0,0,0,177.64,144.43ZM164.15,150c-3.37-2.49-4.08-7.67-.42-13.11a1.05,1.05,0,0,1,1.49-.26L176.59,145a1.06,1.06,0,0,1,.2,1.51C172.69,151.58,167.53,152.45,164.15,150Z"/><path class="cls-8" d="M163.31,151.11c-2.22-1.63-3.15-4.14-2.34-7.58a7.3,7.3,0,0,0,10.28,7.55C168.21,152.88,165.53,152.74,163.31,151.11Z"/><rect class="cls-9" x="169.15" y="132.44" width="3.93" height="16.12" rx="0.66" transform="translate(-43.43 195.2) rotate(-53.69)"/><path class="cls-10" d="M118.13,209.65l-1.2,1.61c-6.2,8.44-10.59,15.75-9.81,16.33s6.45-5.8,12.65-14.24l1.18-1.62Z"/><path class="cls-11" d="M118.17,212.55l13.54,9.95c-.66.9-3.26,4.33-4,5.27-10.1,13.75-15.07,17.28-30.88,15.33a1.91,1.91,0,0,1-.9-.35Z"/><path class="cls-4" d="M132.33,220.25,126,215.61l-1-.74a3.57,3.57,0,0,1-.76-5l4.29-5.83a.52.52,0,0,0-.11-.73L123.91,200a.52.52,0,0,0-.73.11L118.89,206a3.55,3.55,0,0,1-5,.76l-1-.73-6.32-4.65a1.34,1.34,0,0,0-1.86.28l-.13.19a1.33,1.33,0,0,0,.28,1.85l6.33,4.64,13.09,9.63,6.33,4.64a1.32,1.32,0,0,0,1.85-.28l.13-.18A1.33,1.33,0,0,0,132.33,220.25Z"/><path class="cls-8" d="M158.06,161.16h0a.51.51,0,0,1-.11-.72l5-6.86a.51.51,0,0,1,.72-.11h0a.51.51,0,0,1,.11.72l-5,6.86A.51.51,0,0,1,158.06,161.16Z"/><path class="cls-8" d="M121.32,211.16h0a.51.51,0,0,1-.11-.72l4.61-6.28a.51.51,0,0,1,.72-.11h0a.52.52,0,0,1,.11.73L122,211.05A.51.51,0,0,1,121.32,211.16Z"/><path class="cls-8" d="M165.72,135.34h0a.51.51,0,0,1,.72-.11l11.1,8.15a.51.51,0,0,1,.11.72h0a.51.51,0,0,1-.72.11l-11.1-8.15A.51.51,0,0,1,165.72,135.34Z"/><polygon class="cls-12" points="129.72 225.03 103.9 203.59 104.75 202.44 131.75 222.28 129.72 225.03"/><path class="cls-2" d="M195.49,256.59c-1,0-2,0-3.06-.11-1.41-.1-2.9-.24-4.53-.44a9.9,9.9,0,0,1-7.81-5.74c-7.71-17-5.5-25.72,5-40.41l-.05,0,3.72-5.07a9.47,9.47,0,0,1,1.36-2.69l.15-.2a9.32,9.32,0,0,1,13-2l3.75,2.76,1.66-2.26a8.53,8.53,0,0,1,1.94-1.9L238,161.26a8.34,8.34,0,0,1,1.24-2.43l4.14-5.64c-.63-5.29,1.17-11.25,5.25-17a9.5,9.5,0,0,1,4.88-3.57,8.63,8.63,0,0,1,9.52.49L275,141.85a8.65,8.65,0,0,1,3.3,9,9.5,9.5,0,0,1-1.94,5.67c-4.28,5.61-9.4,9.1-14.67,10.09l-4.14,5.64a8.5,8.5,0,0,1-2,1.92l-27.34,37.21a8.36,8.36,0,0,1-1.25,2.45l-1.65,2.24,3.75,2.76a9.33,9.33,0,0,1,2,13l-.14.2a9.2,9.2,0,0,1-2.22,2.14l-1.72,2.3-.77,1a75.8,75.8,0,0,1-9.47,11.18c-.67.62-1.36,1.21-2,1.76-.36.29-.72.56-1.08.82a25.65,25.65,0,0,1-2.25,1.48l-1.18.66a29.58,29.58,0,0,1-14.27,3.2Z"/><path class="cls-3" d="M189.49,251.59c-1,0-2-.05-3.06-.11-1.41-.1-2.9-.24-4.53-.44a9.9,9.9,0,0,1-7.81-5.74c-7.71-17-5.5-25.72,5-40.41l-.05,0,3.72-5.07a9.47,9.47,0,0,1,1.36-2.69l.15-.2a9.32,9.32,0,0,1,13-2l3.75,2.76,1.66-2.26a8.53,8.53,0,0,1,1.94-1.9L232,156.26a8.34,8.34,0,0,1,1.24-2.43l4.14-5.64c-.63-5.29,1.17-11.25,5.25-17a9.5,9.5,0,0,1,4.88-3.57,8.63,8.63,0,0,1,9.52.49L269,136.85a8.65,8.65,0,0,1,3.3,9,9.5,9.5,0,0,1-1.94,5.67c-4.28,5.61-9.4,9.1-14.67,10.09l-4.14,5.64a8.5,8.5,0,0,1-2,1.92l-27.34,37.21a8.36,8.36,0,0,1-1.25,2.45l-1.65,2.24,3.75,2.76a9.33,9.33,0,0,1,2,13l-.14.2a9.2,9.2,0,0,1-2.22,2.14l-1.72,2.3-.77,1a75.8,75.8,0,0,1-9.47,11.18c-.67.62-1.36,1.21-2,1.76-.36.29-.72.56-1.08.82a25.65,25.65,0,0,1-2.25,1.48l-1.18.66a29.58,29.58,0,0,1-14.27,3.2Z"/><path class="cls-4" d="M204.17,212.55l-13.54-10c-.66.9-3.16,4.4-3.85,5.35-10.1,13.75-12,19.54-5.41,34.05a1.89,1.89,0,0,0,1.51,1.1c15.81,2,20.78-1.58,30.88-15.33.69-.94,3.29-4.37,4-5.27Z"/><rect class="cls-5" x="199.7" y="178.25" width="55.12" height="5.77" transform="translate(-53.27 257.01) rotate(-53.69)"/><path class="cls-6" d="M213.81,201.45h0a.78.78,0,0,1-.16-1.08l27.9-38a.77.77,0,0,1,1.08-.16h0a.77.77,0,0,1,.16,1.07l-27.9,38A.77.77,0,0,1,213.81,201.45Z"/><rect class="cls-7" x="239.4" y="152.6" width="12.76" height="6.64" rx="0.66" transform="translate(-25.4 261.66) rotate(-53.69)"/><path class="cls-7" d="M263.64,144.43l-12.23-9a1.58,1.58,0,0,0-2.22.35c-4.75,6.72-5.29,13.48-.9,16.71s10.69.69,15.68-5.85A1.58,1.58,0,0,0,263.64,144.43ZM250.15,150c-3.37-2.49-4.08-7.67-.42-13.11a1.05,1.05,0,0,1,1.49-.26L262.59,145a1.06,1.06,0,0,1,.2,1.51C258.69,151.58,253.53,152.45,250.15,150Z"/><path class="cls-8" d="M249.31,151.11c-2.22-1.63-3.15-4.14-2.34-7.58a7.3,7.3,0,0,0,10.28,7.55C254.21,152.88,251.53,152.74,249.31,151.11Z"/><rect class="cls-9" x="255.15" y="132.44" width="3.93" height="16.12" rx="0.66" transform="translate(-8.35 264.5) rotate(-53.69)"/><path class="cls-10" d="M204.13,209.65l-1.2,1.61c-6.2,8.44-10.59,15.75-9.81,16.33s6.45-5.8,12.65-14.24l1.18-1.62Z"/><path class="cls-11" d="M204.17,212.55l13.54,9.95c-.66.9-3.26,4.33-4,5.27-10.1,13.75-15.07,17.28-30.88,15.33a1.91,1.91,0,0,1-.9-.35Z"/><path class="cls-4" d="M218.33,220.25,212,215.61l-1-.74a3.57,3.57,0,0,1-.76-5l4.29-5.83a.52.52,0,0,0-.11-.73L209.91,200a.52.52,0,0,0-.73.11L204.89,206a3.55,3.55,0,0,1-5,.76l-1-.73-6.32-4.65a1.34,1.34,0,0,0-1.86.28l-.13.19a1.33,1.33,0,0,0,.28,1.85l6.33,4.64,13.09,9.63,6.33,4.64a1.32,1.32,0,0,0,1.85-.28l.13-.18A1.33,1.33,0,0,0,218.33,220.25Z"/><path class="cls-8" d="M244.06,161.16h0a.51.51,0,0,1-.11-.72l5-6.86a.51.51,0,0,1,.72-.11h0a.51.51,0,0,1,.11.72l-5,6.86A.51.51,0,0,1,244.06,161.16Z"/><path class="cls-8" d="M207.32,211.16h0a.51.51,0,0,1-.11-.72l4.61-6.28a.51.51,0,0,1,.72-.11h0a.52.52,0,0,1,.11.73L208,211.05A.51.51,0,0,1,207.32,211.16Z"/><path class="cls-8" d="M251.72,135.34h0a.51.51,0,0,1,.72-.11l11.1,8.15a.51.51,0,0,1,.11.72h0a.51.51,0,0,1-.72.11l-11.1-8.15A.51.51,0,0,1,251.72,135.34Z"/><polygon class="cls-12" points="215.72 225.03 189.9 203.59 190.75 202.44 217.75 222.28 215.72 225.03"/><path class="cls-2" d="M87.49,385.59c-1,0-2,0-3.06-.11-1.41-.1-2.9-.24-4.53-.44a9.9,9.9,0,0,1-7.81-5.74c-7.71-17-5.5-25.72,5-40.41l0-.05,3.72-5.07a9.47,9.47,0,0,1,1.36-2.69l.15-.2a9.32,9.32,0,0,1,13-2l3.75,2.76,1.66-2.26a8.53,8.53,0,0,1,1.94-1.9L130,290.26a8.34,8.34,0,0,1,1.24-2.43l4.14-5.64c-.63-5.29,1.17-11.25,5.25-17a9.5,9.5,0,0,1,4.88-3.57,8.63,8.63,0,0,1,9.52.49L167,270.85a8.65,8.65,0,0,1,3.3,9,9.5,9.5,0,0,1-1.94,5.67c-4.28,5.61-9.4,9.1-14.67,10.09l-4.14,5.64a8.5,8.5,0,0,1-2,1.92l-27.34,37.21a8.36,8.36,0,0,1-1.25,2.45l-1.65,2.24,3.75,2.76a9.33,9.33,0,0,1,2,13l-.14.2a9.2,9.2,0,0,1-2.22,2.14l-1.72,2.3-.77,1a75.8,75.8,0,0,1-9.47,11.18c-.67.62-1.36,1.21-2,1.76-.36.29-.72.56-1.08.82a25.65,25.65,0,0,1-2.25,1.48l-1.18.66a29.58,29.58,0,0,1-14.27,3.2Z"/><path class="cls-3" d="M81.49,380.59c-1,0-2,0-3.06-.11-1.41-.1-2.9-.24-4.53-.44a9.9,9.9,0,0,1-7.81-5.74c-7.71-17-5.5-25.72,5-40.41l0-.05,3.72-5.07a9.47,9.47,0,0,1,1.36-2.69l.15-.2a9.32,9.32,0,0,1,13-2l3.75,2.76,1.66-2.26a8.53,8.53,0,0,1,1.94-1.9L124,285.26a8.34,8.34,0,0,1,1.24-2.43l4.14-5.64c-.63-5.29,1.17-11.25,5.25-17a9.5,9.5,0,0,1,4.88-3.57,8.63,8.63,0,0,1,9.52.49L161,265.85a8.65,8.65,0,0,1,3.3,9,9.5,9.5,0,0,1-1.94,5.67c-4.28,5.61-9.4,9.1-14.67,10.09l-4.14,5.64a8.5,8.5,0,0,1-2,1.92l-27.34,37.21a8.36,8.36,0,0,1-1.25,2.45l-1.65,2.24,3.75,2.76a9.33,9.33,0,0,1,2,13l-.14.2a9.2,9.2,0,0,1-2.22,2.14l-1.72,2.3-.77,1a75.8,75.8,0,0,1-9.47,11.18c-.67.62-1.36,1.21-2,1.76-.36.29-.72.56-1.08.82a25.65,25.65,0,0,1-2.25,1.48l-1.18.66a29.58,29.58,0,0,1-14.27,3.2Z"/><path class="cls-4" d="M96.17,341.55,82.63,331.6c-.66.9-3.16,4.4-3.85,5.35-10.1,13.75-12,19.54-5.41,34.05a1.89,1.89,0,0,0,1.51,1.1c15.81,1.95,20.78-1.58,30.88-15.33.69-.94,3.29-4.37,3.95-5.27Z"/><rect class="cls-5" x="91.7" y="307.25" width="55.12" height="5.77" transform="translate(-201.28 222.6) rotate(-53.69)"/><path class="cls-6" d="M105.81,330.45h0a.78.78,0,0,1-.16-1.08l27.9-38a.77.77,0,0,1,1.08-.16h0a.77.77,0,0,1,.16,1.07l-27.9,38A.77.77,0,0,1,105.81,330.45Z"/><rect class="cls-7" x="131.4" y="281.6" width="12.76" height="6.64" rx="0.66" transform="translate(-173.4 227.24) rotate(-53.69)"/><path class="cls-7" d="M155.64,273.43l-12.23-9a1.58,1.58,0,0,0-2.22.35c-4.75,6.72-5.29,13.48-.9,16.71s10.69.69,15.68-5.85A1.58,1.58,0,0,0,155.64,273.43ZM142.15,279c-3.37-2.49-4.08-7.67-.42-13.11a1.05,1.05,0,0,1,1.49-.26L154.59,274a1.06,1.06,0,0,1,.2,1.51C150.69,280.58,145.53,281.45,142.15,279Z"/><path class="cls-8" d="M141.31,280.11c-2.22-1.63-3.15-4.14-2.34-7.58a7.3,7.3,0,0,0,10.28,7.55C146.21,281.88,143.53,281.74,141.31,280.11Z"/><rect class="cls-9" x="147.15" y="261.44" width="3.93" height="16.12" rx="0.66" transform="matrix(0.59, -0.81, 0.81, 0.59, -156.35, 230.09)"/><path class="cls-10" d="M96.13,338.65l-1.2,1.61c-6.2,8.44-10.59,15.75-9.81,16.33s6.45-5.8,12.65-14.24L99,340.73Z"/><path class="cls-11" d="M96.17,341.55l13.54,9.95c-.66.9-3.26,4.33-3.95,5.27-10.1,13.75-15.07,17.28-30.88,15.33a1.91,1.91,0,0,1-.9-.35Z"/><path class="cls-4" d="M110.33,349.25,104,344.61l-1-.74a3.57,3.57,0,0,1-.76-5l4.29-5.83a.52.52,0,0,0-.11-.73L101.91,329a.52.52,0,0,0-.73.11L96.89,335a3.55,3.55,0,0,1-5,.76l-1-.73-6.32-4.65a1.34,1.34,0,0,0-1.86.28l-.13.19a1.33,1.33,0,0,0,.28,1.85l6.33,4.64,13.09,9.63,6.33,4.64a1.32,1.32,0,0,0,1.85-.28l.13-.18A1.33,1.33,0,0,0,110.33,349.25Z"/><path class="cls-8" d="M136.06,290.16h0a.51.51,0,0,1-.11-.72l5-6.86a.51.51,0,0,1,.72-.11h0a.51.51,0,0,1,.11.72l-5,6.86A.51.51,0,0,1,136.06,290.16Z"/><path class="cls-8" d="M99.32,340.16h0a.51.51,0,0,1-.11-.72l4.61-6.28a.51.51,0,0,1,.72-.11h0a.52.52,0,0,1,.11.73L100,340.05A.51.51,0,0,1,99.32,340.16Z"/><path class="cls-8" d="M143.72,264.34h0a.51.51,0,0,1,.72-.11l11.1,8.15a.51.51,0,0,1,.11.72h0a.51.51,0,0,1-.72.11l-11.1-8.15A.51.51,0,0,1,143.72,264.34Z"/><polygon class="cls-12" points="107.72 354.03 81.9 332.59 82.75 331.44 109.75 351.28 107.72 354.03"/><path class="cls-2" d="M173.49,385.59c-1,0-2,0-3.06-.11-1.41-.1-2.9-.24-4.53-.44a9.9,9.9,0,0,1-7.81-5.74c-7.71-17-5.5-25.72,5-40.41l-.05-.05,3.72-5.07a9.47,9.47,0,0,1,1.36-2.69l.15-.2a9.32,9.32,0,0,1,13-2l3.75,2.76,1.66-2.26a8.53,8.53,0,0,1,1.94-1.9L216,290.26a8.34,8.34,0,0,1,1.24-2.43l4.14-5.64c-.63-5.29,1.17-11.25,5.25-17a9.5,9.5,0,0,1,4.88-3.57,8.63,8.63,0,0,1,9.52.49L253,270.85a8.65,8.65,0,0,1,3.3,9,9.5,9.5,0,0,1-1.94,5.67c-4.28,5.61-9.4,9.1-14.67,10.09l-4.14,5.64a8.5,8.5,0,0,1-2,1.92l-27.34,37.21a8.36,8.36,0,0,1-1.25,2.45l-1.65,2.24,3.75,2.76a9.33,9.33,0,0,1,2,13l-.14.2a9.2,9.2,0,0,1-2.22,2.14l-1.72,2.3-.77,1a75.8,75.8,0,0,1-9.47,11.18c-.67.62-1.36,1.21-2,1.76-.36.29-.72.56-1.08.82a25.65,25.65,0,0,1-2.25,1.48l-1.18.66a29.58,29.58,0,0,1-14.27,3.2Z"/><path class="cls-3" d="M167.49,380.59c-1,0-2,0-3.06-.11-1.41-.1-2.9-.24-4.53-.44a9.9,9.9,0,0,1-7.81-5.74c-7.71-17-5.5-25.72,5-40.41l-.05-.05,3.72-5.07a9.47,9.47,0,0,1,1.36-2.69l.15-.2a9.32,9.32,0,0,1,13-2l3.75,2.76,1.66-2.26a8.53,8.53,0,0,1,1.94-1.9L210,285.26a8.34,8.34,0,0,1,1.24-2.43l4.14-5.64c-.63-5.29,1.17-11.25,5.25-17a9.5,9.5,0,0,1,4.88-3.57,8.63,8.63,0,0,1,9.52.49L247,265.85a8.65,8.65,0,0,1,3.3,9,9.5,9.5,0,0,1-1.94,5.67c-4.28,5.61-9.4,9.1-14.67,10.09l-4.14,5.64a8.5,8.5,0,0,1-2,1.92l-27.34,37.21a8.36,8.36,0,0,1-1.25,2.45l-1.65,2.24,3.75,2.76a9.33,9.33,0,0,1,2,13l-.14.2a9.2,9.2,0,0,1-2.22,2.14l-1.72,2.3-.77,1a75.8,75.8,0,0,1-9.47,11.18c-.67.62-1.36,1.21-2,1.76-.36.29-.72.56-1.08.82a25.65,25.65,0,0,1-2.25,1.48l-1.18.66a29.58,29.58,0,0,1-14.27,3.2Z"/><path class="cls-4" d="M182.17,341.55l-13.54-9.95c-.66.9-3.16,4.4-3.85,5.35-10.1,13.75-12,19.54-5.41,34.05a1.89,1.89,0,0,0,1.51,1.1c15.81,1.95,20.78-1.58,30.88-15.33.69-.94,3.29-4.37,4-5.27Z"/><rect class="cls-5" x="177.7" y="307.25" width="55.12" height="5.77" transform="translate(-166.2 291.9) rotate(-53.69)"/><path class="cls-6" d="M191.81,330.45h0a.78.78,0,0,1-.16-1.08l27.9-38a.77.77,0,0,1,1.08-.16h0a.77.77,0,0,1,.16,1.07l-27.9,38A.77.77,0,0,1,191.81,330.45Z"/><rect class="cls-7" x="217.4" y="281.6" width="12.76" height="6.64" rx="0.66" transform="translate(-138.32 296.55) rotate(-53.69)"/><path class="cls-7" d="M241.64,273.43l-12.23-9a1.58,1.58,0,0,0-2.22.35c-4.75,6.72-5.29,13.48-.9,16.71s10.69.69,15.68-5.85A1.58,1.58,0,0,0,241.64,273.43ZM228.15,279c-3.37-2.49-4.08-7.67-.42-13.11a1.05,1.05,0,0,1,1.49-.26L240.59,274a1.06,1.06,0,0,1,.2,1.51C236.69,280.58,231.53,281.45,228.15,279Z"/><path class="cls-8" d="M227.31,280.11c-2.22-1.63-3.15-4.14-2.34-7.58a7.3,7.3,0,0,0,10.28,7.55C232.21,281.88,229.53,281.74,227.31,280.11Z"/><rect class="cls-9" x="233.15" y="261.44" width="3.93" height="16.12" rx="0.66" transform="matrix(0.59, -0.81, 0.81, 0.59, -121.28, 299.39)"/><path class="cls-10" d="M182.13,338.65l-1.2,1.61c-6.2,8.44-10.59,15.75-9.81,16.33s6.45-5.8,12.65-14.24l1.18-1.62Z"/><path class="cls-11" d="M182.17,341.55l13.54,9.95c-.66.9-3.26,4.33-4,5.27-10.1,13.75-15.07,17.28-30.88,15.33a1.91,1.91,0,0,1-.9-.35Z"/><path class="cls-4" d="M196.33,349.25,190,344.61l-1-.74a3.57,3.57,0,0,1-.76-5l4.29-5.83a.52.52,0,0,0-.11-.73L187.91,329a.52.52,0,0,0-.73.11L182.89,335a3.55,3.55,0,0,1-5,.76l-1-.73-6.32-4.65a1.34,1.34,0,0,0-1.86.28l-.13.19a1.33,1.33,0,0,0,.28,1.85l6.33,4.64,13.09,9.63,6.33,4.64a1.32,1.32,0,0,0,1.85-.28l.13-.18A1.33,1.33,0,0,0,196.33,349.25Z"/><path class="cls-8" d="M222.06,290.16h0a.51.51,0,0,1-.11-.72l5-6.86a.51.51,0,0,1,.72-.11h0a.51.51,0,0,1,.11.72l-5,6.86A.51.51,0,0,1,222.06,290.16Z"/><path class="cls-8" d="M185.32,340.16h0a.51.51,0,0,1-.11-.72l4.61-6.28a.51.51,0,0,1,.72-.11h0a.52.52,0,0,1,.11.73L186,340.05A.51.51,0,0,1,185.32,340.16Z"/><path class="cls-8" d="M229.72,264.34h0a.51.51,0,0,1,.72-.11l11.1,8.15a.51.51,0,0,1,.11.72h0a.51.51,0,0,1-.72.11l-11.1-8.15A.51.51,0,0,1,229.72,264.34Z"/><polygon class="cls-12" points="193.72 354.03 167.9 332.59 168.75 331.44 195.75 351.28 193.72 354.03"/><path class="cls-2" d="M259.49,385.59c-1,0-2,0-3.06-.11-1.41-.1-2.9-.24-4.53-.44a9.9,9.9,0,0,1-7.81-5.74c-7.71-17-5.5-25.72,5-40.41l-.05-.05,3.72-5.07a9.47,9.47,0,0,1,1.36-2.69l.15-.2a9.32,9.32,0,0,1,13-2l3.75,2.76,1.66-2.26a8.53,8.53,0,0,1,1.94-1.9L302,290.26a8.34,8.34,0,0,1,1.24-2.43l4.14-5.64c-.63-5.29,1.17-11.25,5.25-17a9.5,9.5,0,0,1,4.88-3.57,8.63,8.63,0,0,1,9.52.49L339,270.85a8.65,8.65,0,0,1,3.3,9,9.5,9.5,0,0,1-1.94,5.67c-4.28,5.61-9.4,9.1-14.67,10.09l-4.14,5.64a8.5,8.5,0,0,1-2,1.92l-27.34,37.21a8.36,8.36,0,0,1-1.25,2.45l-1.65,2.24,3.75,2.76a9.33,9.33,0,0,1,2,13l-.14.2a9.2,9.2,0,0,1-2.22,2.14l-1.72,2.3-.77,1a75.8,75.8,0,0,1-9.47,11.18c-.67.62-1.36,1.21-2,1.76-.36.29-.72.56-1.08.82a25.65,25.65,0,0,1-2.25,1.48l-1.18.66a29.58,29.58,0,0,1-14.27,3.2Z"/><path class="cls-3" d="M253.49,380.59c-1,0-2,0-3.06-.11-1.41-.1-2.9-.24-4.53-.44a9.9,9.9,0,0,1-7.81-5.74c-7.71-17-5.5-25.72,5-40.41l-.05-.05,3.72-5.07a9.47,9.47,0,0,1,1.36-2.69l.15-.2a9.32,9.32,0,0,1,13-2l3.75,2.76,1.66-2.26a8.53,8.53,0,0,1,1.94-1.9L296,285.26a8.34,8.34,0,0,1,1.24-2.43l4.14-5.64c-.63-5.29,1.17-11.25,5.25-17a9.5,9.5,0,0,1,4.88-3.57,8.63,8.63,0,0,1,9.52.49L333,265.85a8.65,8.65,0,0,1,3.3,9,9.5,9.5,0,0,1-1.94,5.67c-4.28,5.61-9.4,9.1-14.67,10.09l-4.14,5.64a8.5,8.5,0,0,1-2,1.92l-27.34,37.21a8.36,8.36,0,0,1-1.25,2.45l-1.65,2.24,3.75,2.76a9.33,9.33,0,0,1,2,13l-.14.2a9.2,9.2,0,0,1-2.22,2.14l-1.72,2.3-.77,1a75.8,75.8,0,0,1-9.47,11.18c-.67.62-1.36,1.21-2,1.76-.36.29-.72.56-1.08.82a25.65,25.65,0,0,1-2.25,1.48l-1.18.66a29.58,29.58,0,0,1-14.27,3.2Z"/><path class="cls-4" d="M268.17,341.55l-13.54-9.95c-.66.9-3.16,4.4-3.85,5.35-10.1,13.75-12,19.54-5.41,34.05a1.89,1.89,0,0,0,1.51,1.1c15.81,1.95,20.78-1.58,30.88-15.33.69-.94,3.29-4.37,3.95-5.27Z"/><rect class="cls-5" x="263.7" y="307.25" width="55.12" height="5.77" transform="translate(-131.12 361.21) rotate(-53.69)"/><path class="cls-6" d="M277.81,330.45h0a.78.78,0,0,1-.16-1.08l27.9-38a.77.77,0,0,1,1.08-.16h0a.77.77,0,0,1,.16,1.07l-27.9,38A.77.77,0,0,1,277.81,330.45Z"/><rect class="cls-7" x="303.4" y="281.6" width="12.76" height="6.64" rx="0.66" transform="translate(-103.25 365.85) rotate(-53.69)"/><path class="cls-7" d="M327.64,273.43l-12.23-9a1.58,1.58,0,0,0-2.22.35c-4.75,6.72-5.29,13.48-.9,16.71s10.69.69,15.68-5.85A1.58,1.58,0,0,0,327.64,273.43ZM314.15,279c-3.37-2.49-4.08-7.67-.42-13.11a1.05,1.05,0,0,1,1.49-.26L326.59,274a1.06,1.06,0,0,1,.2,1.51C322.69,280.58,317.53,281.45,314.15,279Z"/><path class="cls-8" d="M313.31,280.11c-2.22-1.63-3.15-4.14-2.34-7.58a7.3,7.3,0,0,0,10.28,7.55C318.21,281.88,315.53,281.74,313.31,280.11Z"/><rect class="cls-9" x="319.15" y="261.44" width="3.93" height="16.12" rx="0.66" transform="translate(-86.2 368.69) rotate(-53.69)"/><path class="cls-10" d="M268.13,338.65l-1.2,1.61c-6.2,8.44-10.59,15.75-9.81,16.33s6.45-5.8,12.65-14.24l1.18-1.62Z"/><path class="cls-11" d="M268.17,341.55l13.54,9.95c-.66.9-3.26,4.33-3.95,5.27-10.1,13.75-15.07,17.28-30.88,15.33a1.91,1.91,0,0,1-.9-.35Z"/><path class="cls-4" d="M282.33,349.25,276,344.61l-1-.74a3.57,3.57,0,0,1-.76-5l4.29-5.83a.52.52,0,0,0-.11-.73L273.91,329a.52.52,0,0,0-.73.11L268.89,335a3.55,3.55,0,0,1-5,.76l-1-.73-6.32-4.65a1.34,1.34,0,0,0-1.86.28l-.13.19a1.33,1.33,0,0,0,.28,1.85l6.33,4.64,13.09,9.63,6.33,4.64a1.32,1.32,0,0,0,1.85-.28l.13-.18A1.33,1.33,0,0,0,282.33,349.25Z"/><path class="cls-8" d="M308.06,290.16h0a.51.51,0,0,1-.11-.72l5-6.86a.51.51,0,0,1,.72-.11h0a.51.51,0,0,1,.11.72l-5,6.86A.51.51,0,0,1,308.06,290.16Z"/><path class="cls-8" d="M271.32,340.16h0a.51.51,0,0,1-.11-.72l4.61-6.28a.51.51,0,0,1,.72-.11h0a.52.52,0,0,1,.11.73L272,340.05A.51.51,0,0,1,271.32,340.16Z"/><path class="cls-8" d="M315.72,264.34h0a.51.51,0,0,1,.72-.11l11.1,8.15a.51.51,0,0,1,.11.72h0a.51.51,0,0,1-.72.11l-11.1-8.15A.51.51,0,0,1,315.72,264.34Z"/><polygon class="cls-12" points="279.72 354.03 253.9 332.59 254.75 331.44 281.75 351.28 279.72 354.03"/><path class="cls-2" d="M281.49,256.59c-1,0-2,0-3.06-.11-1.41-.1-2.9-.24-4.53-.44a9.9,9.9,0,0,1-7.81-5.74c-7.71-17-5.5-25.72,5-40.41l-.05,0,3.72-5.07a9.47,9.47,0,0,1,1.36-2.69l.15-.2a9.32,9.32,0,0,1,13-2l3.75,2.76,1.66-2.26a8.53,8.53,0,0,1,1.94-1.9L324,161.26a8.34,8.34,0,0,1,1.24-2.43l4.14-5.64c-.63-5.29,1.17-11.25,5.25-17a9.5,9.5,0,0,1,4.88-3.57,8.63,8.63,0,0,1,9.52.49L361,141.85a8.65,8.65,0,0,1,3.3,9,9.5,9.5,0,0,1-1.94,5.67c-4.28,5.61-9.4,9.1-14.67,10.09l-4.14,5.64a8.5,8.5,0,0,1-2,1.92l-27.34,37.21a8.36,8.36,0,0,1-1.25,2.45l-1.65,2.24,3.75,2.76a9.33,9.33,0,0,1,2,13l-.14.2a9.2,9.2,0,0,1-2.22,2.14l-1.72,2.3-.77,1a75.8,75.8,0,0,1-9.47,11.18c-.67.62-1.36,1.21-2,1.76-.36.29-.72.56-1.08.82a25.65,25.65,0,0,1-2.25,1.48l-1.18.66a29.58,29.58,0,0,1-14.27,3.2Z"/><path class="cls-3" d="M275.49,251.59c-1,0-2-.05-3.06-.11-1.41-.1-2.9-.24-4.53-.44a9.9,9.9,0,0,1-7.81-5.74c-7.71-17-5.5-25.72,5-40.41l-.05,0,3.72-5.07a9.47,9.47,0,0,1,1.36-2.69l.15-.2a9.32,9.32,0,0,1,13-2l3.75,2.76,1.66-2.26a8.53,8.53,0,0,1,1.94-1.9L318,156.26a8.34,8.34,0,0,1,1.24-2.43l4.14-5.64c-.63-5.29,1.17-11.25,5.25-17a9.5,9.5,0,0,1,4.88-3.57,8.63,8.63,0,0,1,9.52.49L355,136.85a8.65,8.65,0,0,1,3.3,9,9.5,9.5,0,0,1-1.94,5.67c-4.28,5.61-9.4,9.1-14.67,10.09l-4.14,5.64a8.5,8.5,0,0,1-2,1.92l-27.34,37.21a8.36,8.36,0,0,1-1.25,2.45l-1.65,2.24,3.75,2.76a9.33,9.33,0,0,1,2,13l-.14.2a9.2,9.2,0,0,1-2.22,2.14l-1.72,2.3-.77,1a75.8,75.8,0,0,1-9.47,11.18c-.67.62-1.36,1.21-2,1.76-.36.29-.72.56-1.08.82a25.65,25.65,0,0,1-2.25,1.48l-1.18.66a29.58,29.58,0,0,1-14.27,3.2Z"/><path class="cls-4" d="M290.17,212.55l-13.54-10c-.66.9-3.16,4.4-3.85,5.35-10.1,13.75-12,19.54-5.41,34.05a1.89,1.89,0,0,0,1.51,1.1c15.81,2,20.78-1.58,30.88-15.33.69-.94,3.29-4.37,3.95-5.27Z"/><rect class="cls-5" x="285.7" y="178.25" width="55.12" height="5.77" transform="translate(-18.2 326.32) rotate(-53.69)"/><path class="cls-6" d="M299.81,201.45h0a.78.78,0,0,1-.16-1.08l27.9-38a.77.77,0,0,1,1.08-.16h0a.77.77,0,0,1,.16,1.07l-27.9,38A.77.77,0,0,1,299.81,201.45Z"/><rect class="cls-7" x="325.4" y="152.6" width="12.76" height="6.64" rx="0.66" transform="translate(9.68 330.96) rotate(-53.69)"/><path class="cls-7" d="M349.64,144.43l-12.23-9a1.58,1.58,0,0,0-2.22.35c-4.75,6.72-5.29,13.48-.9,16.71s10.69.69,15.68-5.85A1.58,1.58,0,0,0,349.64,144.43ZM336.15,150c-3.37-2.49-4.08-7.67-.42-13.11a1.05,1.05,0,0,1,1.49-.26L348.59,145a1.06,1.06,0,0,1,.2,1.51C344.69,151.58,339.53,152.45,336.15,150Z"/><path class="cls-8" d="M335.31,151.11c-2.22-1.63-3.15-4.14-2.34-7.58a7.3,7.3,0,0,0,10.28,7.55C340.21,152.88,337.53,152.74,335.31,151.11Z"/><rect class="cls-9" x="341.15" y="132.44" width="3.93" height="16.12" rx="0.66" transform="translate(26.73 333.8) rotate(-53.69)"/><path class="cls-10" d="M290.13,209.65l-1.2,1.61c-6.2,8.44-10.59,15.75-9.81,16.33s6.45-5.8,12.65-14.24l1.18-1.62Z"/><path class="cls-11" d="M290.17,212.55l13.54,9.95c-.66.9-3.26,4.33-3.95,5.27-10.1,13.75-15.07,17.28-30.88,15.33a1.91,1.91,0,0,1-.9-.35Z"/><path class="cls-4" d="M304.33,220.25,298,215.61l-1-.74a3.57,3.57,0,0,1-.76-5l4.29-5.83a.52.52,0,0,0-.11-.73L295.91,200a.52.52,0,0,0-.73.11L290.89,206a3.55,3.55,0,0,1-5,.76l-1-.73-6.32-4.65a1.34,1.34,0,0,0-1.86.28l-.13.19a1.33,1.33,0,0,0,.28,1.85l6.33,4.64,13.09,9.63,6.33,4.64a1.32,1.32,0,0,0,1.85-.28l.13-.18A1.33,1.33,0,0,0,304.33,220.25Z"/><path class="cls-8" d="M330.06,161.16h0a.51.51,0,0,1-.11-.72l5-6.86a.51.51,0,0,1,.72-.11h0a.51.51,0,0,1,.11.72l-5,6.86A.51.51,0,0,1,330.06,161.16Z"/><path class="cls-8" d="M293.32,211.16h0a.51.51,0,0,1-.11-.72l4.61-6.28a.51.51,0,0,1,.72-.11h0a.52.52,0,0,1,.11.73L294,211.05A.51.51,0,0,1,293.32,211.16Z"/><path class="cls-8" d="M337.72,135.34h0a.51.51,0,0,1,.72-.11l11.1,8.15a.51.51,0,0,1,.11.72h0a.51.51,0,0,1-.72.11l-11.1-8.15A.51.51,0,0,1,337.72,135.34Z"/><polygon class="cls-12" points="301.72 225.03 275.9 203.59 276.75 202.44 303.75 222.28 301.72 225.03"/><path class="cls-2" d="M367.49,256.59c-1,0-2,0-3.06-.11-1.41-.1-2.9-.24-4.53-.44a9.9,9.9,0,0,1-7.81-5.74c-7.71-17-5.5-25.72,5-40.41l-.05,0,3.72-5.07a9.47,9.47,0,0,1,1.36-2.69l.15-.2a9.32,9.32,0,0,1,13-2l3.75,2.76,1.66-2.26a8.53,8.53,0,0,1,1.94-1.9L410,161.26a8.34,8.34,0,0,1,1.24-2.43l4.14-5.64c-.63-5.29,1.17-11.25,5.25-17a9.5,9.5,0,0,1,4.88-3.57,8.63,8.63,0,0,1,9.52.49L447,141.85a8.65,8.65,0,0,1,3.3,9,9.5,9.5,0,0,1-1.94,5.67c-4.28,5.61-9.4,9.1-14.67,10.09l-4.14,5.64a8.5,8.5,0,0,1-2,1.92l-27.34,37.21a8.36,8.36,0,0,1-1.25,2.45l-1.65,2.24,3.75,2.76a9.33,9.33,0,0,1,2,13l-.14.2a9.2,9.2,0,0,1-2.22,2.14l-1.72,2.3-.77,1a75.8,75.8,0,0,1-9.47,11.18c-.67.62-1.36,1.21-2,1.76-.36.29-.72.56-1.08.82a25.65,25.65,0,0,1-2.25,1.48l-1.18.66a29.58,29.58,0,0,1-14.27,3.2Z"/><path class="cls-3" d="M361.49,251.59c-1,0-2-.05-3.06-.11-1.41-.1-2.9-.24-4.53-.44a9.9,9.9,0,0,1-7.81-5.74c-7.71-17-5.5-25.72,5-40.41l-.05,0,3.72-5.07a9.47,9.47,0,0,1,1.36-2.69l.15-.2a9.32,9.32,0,0,1,13-2l3.75,2.76,1.66-2.26a8.53,8.53,0,0,1,1.94-1.9L404,156.26a8.34,8.34,0,0,1,1.24-2.43l4.14-5.64c-.63-5.29,1.17-11.25,5.25-17a9.5,9.5,0,0,1,4.88-3.57,8.63,8.63,0,0,1,9.52.49L441,136.85a8.65,8.65,0,0,1,3.3,9,9.5,9.5,0,0,1-1.94,5.67c-4.28,5.61-9.4,9.1-14.67,10.09l-4.14,5.64a8.5,8.5,0,0,1-2,1.92l-27.34,37.21a8.36,8.36,0,0,1-1.25,2.45l-1.65,2.24,3.75,2.76a9.33,9.33,0,0,1,2,13l-.14.2a9.2,9.2,0,0,1-2.22,2.14l-1.72,2.3-.77,1a75.8,75.8,0,0,1-9.47,11.18c-.67.62-1.36,1.21-2,1.76-.36.29-.72.56-1.08.82a25.65,25.65,0,0,1-2.25,1.48l-1.18.66a29.58,29.58,0,0,1-14.27,3.2Z"/><path class="cls-4" d="M376.17,212.55l-13.54-10c-.66.9-3.16,4.4-3.85,5.35-10.1,13.75-12,19.54-5.41,34.05a1.89,1.89,0,0,0,1.51,1.1c15.81,2,20.78-1.58,30.88-15.33.69-.94,3.29-4.37,3.95-5.27Z"/><rect class="cls-5" x="371.7" y="178.25" width="55.12" height="5.77" transform="translate(16.88 395.62) rotate(-53.69)"/><path class="cls-6" d="M385.81,201.45h0a.78.78,0,0,1-.16-1.08l27.9-38a.77.77,0,0,1,1.08-.16h0a.77.77,0,0,1,.16,1.07l-27.9,38A.77.77,0,0,1,385.81,201.45Z"/><rect class="cls-7" x="411.4" y="152.6" width="12.76" height="6.64" rx="0.66" transform="translate(44.76 400.27) rotate(-53.69)"/><path class="cls-7" d="M435.64,144.43l-12.23-9a1.58,1.58,0,0,0-2.22.35c-4.75,6.72-5.29,13.48-.9,16.71s10.69.69,15.68-5.85A1.58,1.58,0,0,0,435.64,144.43ZM422.15,150c-3.37-2.49-4.08-7.67-.42-13.11a1.05,1.05,0,0,1,1.49-.26L434.59,145a1.06,1.06,0,0,1,.2,1.51C430.69,151.58,425.53,152.45,422.15,150Z"/><path class="cls-8" d="M421.31,151.11c-2.22-1.63-3.15-4.14-2.34-7.58a7.3,7.3,0,0,0,10.28,7.55C426.21,152.88,423.53,152.74,421.31,151.11Z"/><rect class="cls-9" x="427.15" y="132.44" width="3.93" height="16.12" rx="0.66" transform="translate(61.81 403.11) rotate(-53.69)"/><path class="cls-10" d="M376.13,209.65l-1.2,1.61c-6.2,8.44-10.59,15.75-9.81,16.33s6.45-5.8,12.65-14.24l1.18-1.62Z"/><path class="cls-11" d="M376.17,212.55l13.54,9.95c-.66.9-3.26,4.33-3.95,5.27-10.1,13.75-15.07,17.28-30.88,15.33a1.91,1.91,0,0,1-.9-.35Z"/><path class="cls-4" d="M390.33,220.25,384,215.61l-1-.74a3.57,3.57,0,0,1-.76-5l4.29-5.83a.52.52,0,0,0-.11-.73L381.91,200a.52.52,0,0,0-.73.11L376.89,206a3.55,3.55,0,0,1-5,.76l-1-.73-6.32-4.65a1.34,1.34,0,0,0-1.86.28l-.13.19a1.33,1.33,0,0,0,.28,1.85l6.33,4.64,13.09,9.63,6.33,4.64a1.32,1.32,0,0,0,1.85-.28l.13-.18A1.33,1.33,0,0,0,390.33,220.25Z"/><path class="cls-8" d="M416.06,161.16h0a.51.51,0,0,1-.11-.72l5-6.86a.51.51,0,0,1,.72-.11h0a.51.51,0,0,1,.11.72l-5,6.86A.51.51,0,0,1,416.06,161.16Z"/><path class="cls-8" d="M379.32,211.16h0a.51.51,0,0,1-.11-.72l4.61-6.28a.51.51,0,0,1,.72-.11h0a.52.52,0,0,1,.11.73L380,211.05A.51.51,0,0,1,379.32,211.16Z"/><path class="cls-8" d="M423.72,135.34h0a.51.51,0,0,1,.72-.11l11.1,8.15a.51.51,0,0,1,.11.72h0a.51.51,0,0,1-.72.11l-11.1-8.15A.51.51,0,0,1,423.72,135.34Z"/><polygon class="cls-12" points="387.72 225.03 361.9 203.59 362.75 202.44 389.75 222.28 387.72 225.03"/></g></g></svg>