<svg id="Layer_1" data-name="Layer 1" xmlns="http://www.w3.org/2000/svg" viewBox="0 0 512 512"><defs><style>.cls-1{opacity:0.5;}.cls-2{fill:#fff;}.cls-3{fill:#721c45;}.cls-4{fill:#f9da23;}.cls-5{fill:#821d0f;}.cls-6,.cls-7,.cls-8{fill:none;stroke:#000;stroke-miterlimit:10;stroke-width:2px;}.cls-7{stroke-dasharray:11.84 11.84;}.cls-8{stroke-dasharray:11.91 11.91;}</style></defs><path class="cls-1" d="M56.33,187.77a11.14,11.14,0,0,1-5.55-1.46c-3.41-2-5.48-5.76-5.69-10.36a23.73,23.73,0,0,1,2.35-10.73c-11.41-1.14-16.56-7.34-16.56-13.49,0-5.9,5.12-12.2,16.27-13.46-4.7-10.24-2-17.75,3.22-20.88a11,11,0,0,1,5.6-1.5c5.2,0,10.44,3.3,14.72,9.17,5.67-8.08,11.53-9.37,14.71-9.37a11,11,0,0,1,5.54,1.46c3.41,2,5.49,5.75,5.7,10.35a23.92,23.92,0,0,1-2.36,10.74c11.41,1.14,16.57,7.34,16.57,13.49,0,5.9-5.13,12.2-16.28,13.45A23.3,23.3,0,0,1,97,175.73c-.18,4.54-2.22,8.31-5.61,10.33a10.89,10.89,0,0,1-5.61,1.51c-5.19,0-10.44-3.3-14.72-9.17C65.37,186.47,59.5,187.77,56.33,187.77Z"/><path class="cls-2" d="M52,183.45A11,11,0,0,1,46.47,182c-3.41-2-5.49-5.75-5.7-10.35a24,24,0,0,1,2.35-10.74c-11.4-1.14-16.56-7.34-16.56-13.49,0-5.9,5.13-12.2,16.28-13.45-4.7-10.25-2-17.75,3.21-20.88a10.88,10.88,0,0,1,5.6-1.51c5.2,0,10.45,3.3,14.73,9.17,5.66-8.07,11.53-9.37,14.7-9.37a11.07,11.07,0,0,1,5.54,1.46c3.41,2,5.49,5.76,5.7,10.36A23.86,23.86,0,0,1,90,133.92c11.41,1.14,16.56,7.34,16.56,13.49,0,5.9-5.12,12.2-16.27,13.46a23.21,23.21,0,0,1,2.39,10.54c-.17,4.55-2.22,8.31-5.61,10.34a11,11,0,0,1-5.6,1.5c-5.2,0-10.45-3.3-14.73-9.17C61.05,182.16,55.18,183.45,52,183.45Z"/><path class="cls-3" d="M78,148.27c-.78,0-2.31-.38-2.31-.86s1.53-.86,2.31-.86c1.35,0,1.94.45,1.94.86S79.27,148.27,78,148.27Z"/><path class="cls-4" d="M101.35,147.41c0-4.06-4.63-8.5-15.25-8.5a28.32,28.32,0,0,0-6.36.9,27.55,27.55,0,0,0,4-5c5.24-9,3.83-15.42.31-17.46s-9.67-.26-15,8.93a28.47,28.47,0,0,0-2.56,6.43,28.79,28.79,0,0,0-2.64-6.4c-5.34-9-11.62-10.83-15.11-8.75s-4.93,8.34.52,17.46a27.67,27.67,0,0,0,3.8,4.76,27.37,27.37,0,0,0-6-.83c-10.42,0-15.25,4.44-15.25,8.5s4.63,8.5,15.25,8.5a28.32,28.32,0,0,0,6.36-.9,28.35,28.35,0,0,0-4,5c-5.23,9-3.83,15.42-.31,17.46s9.67.26,15-8.92a29.64,29.64,0,0,0,2.56-6.43,28.73,28.73,0,0,0,2.63,6.4c5.34,8.95,11.62,10.82,15.12,8.74s4.92-8.33-.53-17.45a26.93,26.93,0,0,0-3.8-4.76,27.91,27.91,0,0,0,6,.82C96.52,155.91,101.35,151.48,101.35,147.41Zm-34.79,1.92a2.73,2.73,0,0,0-.75-.65,3,3,0,0,0-.9-.33,2.79,2.79,0,0,0,.17-.94,2.92,2.92,0,0,0-.16-.92,3,3,0,0,0,.88-.33,2.86,2.86,0,0,0,.73-.66,3.08,3.08,0,0,0,.75.65,2.85,2.85,0,0,0,.9.32,2.73,2.73,0,0,0,0,1.87,3,3,0,0,0-.87.33A3.08,3.08,0,0,0,66.56,149.33Z"/><path class="cls-5" d="M66.28,155.22a7.81,7.81,0,1,1,7.82-7.81A7.81,7.81,0,0,1,66.28,155.22Z"/><path class="cls-3" d="M54.45,146.55c.77,0,2.3.39,2.3.86s-1.53.86-2.3.86c-1.35,0-1.94-.45-1.94-.86S53.12,146.55,54.45,146.55Z"/><path class="cls-3" d="M71,158.15c-.37-.68-.76-2.21-.34-2.43s1.49.93,1.85,1.61c.65,1.19.53,1.92.17,2.12S71.67,159.32,71,158.15Z"/><path class="cls-3" d="M61.35,136.67c.37.68.76,2.21.34,2.44s-1.48-.94-1.85-1.62c-.65-1.18-.53-1.92-.17-2.11S60.72,135.51,61.35,136.67Z"/><path class="cls-3" d="M73,137.82c-.4.66-1.53,1.77-1.94,1.52s.06-1.76.46-2.41c.7-1.16,1.4-1.43,1.75-1.22S73.73,136.69,73,137.82Z"/><path class="cls-3" d="M59.36,157c.4-.66,1.52-1.76,1.93-1.52s-.06,1.76-.46,2.42c-.7,1.15-1.39,1.43-1.74,1.21S58.67,158.14,59.36,157Z"/><path class="cls-3" d="M75.83,154.19c-.66-.39-1.78-1.51-1.53-1.92s1.75,0,2.42.44c1.16.7,1.43,1.39,1.22,1.74S77,154.87,75.83,154.19Z"/><path class="cls-3" d="M56.56,140.63c.67.4,1.78,1.52,1.54,1.93s-1.76-.05-2.42-.45c-1.16-.69-1.44-1.38-1.23-1.74S55.43,140,56.56,140.63Z"/><path class="cls-3" d="M64.83,159.11c0-.77.48-2.28,1-2.26s.79,1.57.76,2.34c-.06,1.35-.53,1.92-.94,1.9S64.77,160.44,64.83,159.11Z"/><path class="cls-3" d="M67.57,135.71c0,.77-.49,2.29-1,2.27s-.8-1.57-.77-2.34c.06-1.35.54-1.92,1-1.9S67.62,134.39,67.57,135.71Z"/><path class="cls-3" d="M77,142.7c-.68.36-2.21.73-2.44.31s1-1.47,1.64-1.83c1.2-.63,1.93-.51,2.12-.14S78.17,142.08,77,142.7Z"/><path class="cls-3" d="M55.4,152.12c.68-.36,2.22-.73,2.44-.31s-1,1.48-1.64,1.84c-1.19.63-1.93.51-2.12.14S54.23,152.74,55.4,152.12Z"/><path class="cls-1" d="M335.11,187.47a11.1,11.1,0,0,1-5.54-1.46c-3.41-2-5.49-5.76-5.7-10.36a23.88,23.88,0,0,1,2.36-10.73c-11.41-1.14-16.57-7.34-16.57-13.49,0-5.9,5.13-12.2,16.28-13.45-4.7-10.25-2-17.76,3.21-20.89a11,11,0,0,1,5.61-1.5c5.19,0,10.44,3.3,14.72,9.17,5.67-8.08,11.53-9.37,14.7-9.37a11,11,0,0,1,5.55,1.46c3.41,2,5.48,5.75,5.69,10.35a23.77,23.77,0,0,1-2.35,10.74c11.41,1.14,16.56,7.34,16.56,13.49,0,5.9-5.12,12.2-16.27,13.45a23.28,23.28,0,0,1,2.39,10.55c-.17,4.54-2.22,8.31-5.61,10.33a10.88,10.88,0,0,1-5.6,1.51c-5.2,0-10.44-3.3-14.72-9.17C344.15,186.17,338.29,187.47,335.11,187.47Z"/><path class="cls-2" d="M330.8,183.15a11,11,0,0,1-5.55-1.46c-3.4-2-5.48-5.75-5.69-10.35a23.77,23.77,0,0,1,2.35-10.74c-11.41-1.14-16.56-7.34-16.56-13.49,0-5.9,5.12-12.2,16.28-13.45-4.71-10.24-2-17.75,3.21-20.88a10.88,10.88,0,0,1,5.6-1.51c5.2,0,10.45,3.3,14.72,9.17,5.67-8.07,11.53-9.37,14.71-9.37a11.1,11.1,0,0,1,5.54,1.46c3.41,2,5.49,5.76,5.7,10.36a24,24,0,0,1-2.35,10.73c11.4,1.14,16.56,7.34,16.56,13.49,0,5.9-5.13,12.2-16.28,13.46a23.26,23.26,0,0,1,2.4,10.54c-.18,4.55-2.22,8.31-5.61,10.34a11,11,0,0,1-5.61,1.5c-5.19,0-10.44-3.3-14.72-9.17C339.84,181.86,334,183.15,330.8,183.15Z"/><path class="cls-3" d="M356.73,148c-.77,0-2.3-.39-2.3-.87s1.53-.86,2.3-.86c1.35,0,1.94.45,1.94.86S358.06,148,356.73,148Z"/><path class="cls-4" d="M380.14,147.11c0-4.06-4.63-8.5-15.25-8.5a28.32,28.32,0,0,0-6.36.9,28,28,0,0,0,4-5c5.23-9,3.83-15.42.31-17.46s-9.67-.26-15,8.93a29.44,29.44,0,0,0-2.56,6.43,28.81,28.81,0,0,0-2.63-6.4c-5.34-9-11.63-10.83-15.12-8.75s-4.92,8.34.52,17.46a28.16,28.16,0,0,0,3.8,4.76,27.82,27.82,0,0,0-6-.83c-10.42,0-15.25,4.44-15.25,8.5s4.63,8.5,15.25,8.5a28.16,28.16,0,0,0,6.35-.9,28.82,28.82,0,0,0-4,5c-5.23,9-3.82,15.42-.3,17.46s9.67.26,15-8.92a28.66,28.66,0,0,0,2.56-6.43,28.52,28.52,0,0,0,2.64,6.4c5.34,9,11.62,10.82,15.11,8.74s4.92-8.33-.52-17.45a27.4,27.4,0,0,0-3.8-4.76,27.83,27.83,0,0,0,6,.82C375.31,155.61,380.14,151.18,380.14,147.11ZM345.35,149a2.88,2.88,0,0,0-.75-.65,3.14,3.14,0,0,0-.9-.33,3.05,3.05,0,0,0,.17-.94,2.92,2.92,0,0,0-.16-.92,3,3,0,0,0,.87-.33,3.08,3.08,0,0,0,.74-.66,2.91,2.91,0,0,0,.75.65,2.76,2.76,0,0,0,.9.32,2.79,2.79,0,0,0-.17.94,3,3,0,0,0,.16.93,2.85,2.85,0,0,0-.87.33A2.74,2.74,0,0,0,345.35,149Z"/><path class="cls-5" d="M345.07,154.92a7.81,7.81,0,1,1,7.81-7.81A7.81,7.81,0,0,1,345.07,154.92Z"/><path class="cls-3" d="M333.23,146.25c.78,0,2.31.39,2.31.86s-1.53.87-2.31.87c-1.35,0-1.94-.46-1.94-.87S331.91,146.25,333.23,146.25Z"/><path class="cls-3" d="M349.82,157.85c-.36-.68-.75-2.21-.33-2.43s1.48.93,1.85,1.61c.64,1.19.53,1.92.17,2.12S350.46,159,349.82,157.85Z"/><path class="cls-3" d="M340.14,136.37c.37.68.76,2.21.34,2.44s-1.49-.94-1.86-1.61c-.64-1.19-.53-1.93-.16-2.12S339.51,135.21,340.14,136.37Z"/><path class="cls-3" d="M351.82,137.52c-.4.66-1.52,1.77-1.93,1.52s.06-1.76.46-2.41c.7-1.16,1.39-1.43,1.74-1.22S352.51,136.39,351.82,137.52Z"/><path class="cls-3" d="M338.14,156.7c.4-.66,1.53-1.76,1.94-1.52s-.06,1.76-.46,2.42c-.7,1.15-1.4,1.43-1.75,1.21S337.46,157.84,338.14,156.7Z"/><path class="cls-3" d="M354.62,153.89c-.67-.39-1.78-1.51-1.54-1.92s1.76.05,2.42.44c1.16.7,1.44,1.39,1.22,1.74S355.75,154.58,354.62,153.89Z"/><path class="cls-3" d="M335.35,140.33c.66.4,1.78,1.52,1.53,1.93s-1.75,0-2.42-.45c-1.16-.69-1.43-1.38-1.22-1.74S334.21,139.65,335.35,140.33Z"/><path class="cls-3" d="M343.61,158.81c0-.77.49-2.28,1-2.26s.8,1.57.77,2.34c-.06,1.35-.54,1.92-.95,1.9S343.56,160.14,343.61,158.81Z"/><path class="cls-3" d="M346.35,135.41c0,.77-.48,2.29-1,2.27s-.79-1.57-.76-2.34c.06-1.35.53-1.92.94-1.9S346.41,134.09,346.35,135.41Z"/><path class="cls-3" d="M355.78,142.4c-.68.36-2.22.74-2.44.31s1-1.47,1.64-1.83c1.19-.63,1.93-.51,2.12-.14S357,141.78,355.78,142.4Z"/><path class="cls-3" d="M334.18,151.82c.69-.36,2.22-.73,2.44-.31s-.95,1.48-1.63,1.84c-1.2.63-1.93.51-2.12.14S333,152.44,334.18,151.82Z"/><path class="cls-1" d="M430.92,187.11a11.07,11.07,0,0,1-5.54-1.46c-3.41-2-5.49-5.76-5.7-10.36A23.86,23.86,0,0,1,422,164.56c-11.4-1.14-16.56-7.34-16.56-13.49,0-5.9,5.12-12.2,16.28-13.45-4.71-10.25-2-17.76,3.21-20.89a11,11,0,0,1,5.6-1.5c5.2,0,10.45,3.3,14.73,9.17C451,116.32,456.82,115,460,115a11,11,0,0,1,5.54,1.46c3.41,2,5.49,5.75,5.7,10.35a24,24,0,0,1-2.35,10.74c11.4,1.14,16.56,7.34,16.56,13.49,0,5.9-5.13,12.2-16.28,13.45a23.3,23.3,0,0,1,2.4,10.55c-.18,4.54-2.22,8.31-5.61,10.33a10.89,10.89,0,0,1-5.61,1.51c-5.19,0-10.44-3.3-14.72-9.17C440,185.81,434.09,187.11,430.92,187.11Z"/><path class="cls-2" d="M426.6,182.79a11,11,0,0,1-5.54-1.46c-3.41-2-5.49-5.75-5.7-10.35a23.92,23.92,0,0,1,2.36-10.74c-11.41-1.14-16.57-7.34-16.57-13.49,0-5.9,5.13-12.2,16.28-13.45-4.7-10.24-2-17.75,3.21-20.88a10.89,10.89,0,0,1,5.61-1.51c5.2,0,10.44,3.3,14.72,9.17,5.67-8.07,11.53-9.37,14.7-9.37a11.14,11.14,0,0,1,5.55,1.46c3.41,2,5.48,5.76,5.69,10.36a23.73,23.73,0,0,1-2.35,10.73c11.41,1.14,16.56,7.34,16.56,13.49,0,5.9-5.12,12.2-16.27,13.46a23.24,23.24,0,0,1,2.39,10.54c-.17,4.55-2.22,8.31-5.61,10.34a11,11,0,0,1-5.6,1.5c-5.2,0-10.44-3.3-14.72-9.17C435.64,181.5,429.78,182.79,426.6,182.79Z"/><path class="cls-3" d="M452.54,147.62c-.77,0-2.31-.39-2.31-.87s1.54-.86,2.31-.86c1.35,0,1.94.45,1.94.86S453.86,147.62,452.54,147.62Z"/><path class="cls-4" d="M476,146.75c0-4.06-4.64-8.5-15.26-8.5a28.16,28.16,0,0,0-6.35.9,28.45,28.45,0,0,0,4-5c5.23-9,3.82-15.42.31-17.46s-9.68-.26-15,8.93a28.47,28.47,0,0,0-2.56,6.43,29,29,0,0,0-2.63-6.4c-5.35-9-11.63-10.83-15.12-8.75s-4.92,8.34.52,17.46a28.16,28.16,0,0,0,3.8,4.76,27.9,27.9,0,0,0-6-.83c-10.43,0-15.26,4.44-15.26,8.5s4.63,8.5,15.26,8.5a28.24,28.24,0,0,0,6.35-.9,28.35,28.35,0,0,0-4,5c-5.23,9-3.82,15.42-.31,17.46s9.68.26,15-8.92a29.14,29.14,0,0,0,2.56-6.43,29,29,0,0,0,2.63,6.4c5.34,8.95,11.63,10.82,15.12,8.74s4.92-8.33-.52-17.45a27.78,27.78,0,0,0-3.8-4.76,27.75,27.75,0,0,0,6,.82C471.11,155.25,476,150.82,476,146.75Zm-34.8,1.92a2.73,2.73,0,0,0-.75-.65,3,3,0,0,0-.9-.33,2.79,2.79,0,0,0,.17-.94,2.92,2.92,0,0,0-.16-.92,3,3,0,0,0,.88-.33,3.08,3.08,0,0,0,.74-.66,3,3,0,0,0,.74.65,2.85,2.85,0,0,0,.9.32,3.05,3.05,0,0,0-.17.94,2.73,2.73,0,0,0,.17.93,2.91,2.91,0,0,0-.88.33A3.08,3.08,0,0,0,441.15,148.67Z"/><path class="cls-5" d="M440.88,154.56a7.81,7.81,0,1,1,7.81-7.81A7.81,7.81,0,0,1,440.88,154.56Z"/><path class="cls-3" d="M429,145.89c.77,0,2.3.39,2.3.86s-1.53.87-2.3.87c-1.35,0-1.94-.46-1.94-.87S427.71,145.89,429,145.89Z"/><path class="cls-3" d="M445.63,157.49c-.37-.68-.76-2.21-.34-2.43s1.49.93,1.86,1.61c.64,1.19.53,1.92.16,2.12S446.26,158.66,445.63,157.49Z"/><path class="cls-3" d="M436,136c.36.68.75,2.21.34,2.44s-1.49-.94-1.86-1.61c-.64-1.19-.53-1.93-.17-2.12S435.31,134.85,436,136Z"/><path class="cls-3" d="M447.63,137.16c-.4.66-1.53,1.77-1.94,1.52s.06-1.75.46-2.41c.71-1.16,1.4-1.43,1.75-1.22S448.32,136,447.63,137.16Z"/><path class="cls-3" d="M434,156.34c.4-.66,1.53-1.76,1.93-1.52s-.06,1.76-.46,2.42c-.7,1.16-1.39,1.43-1.74,1.21S433.26,157.48,434,156.34Z"/><path class="cls-3" d="M450.42,153.53c-.66-.39-1.77-1.51-1.53-1.92s1.76,0,2.42.44c1.16.7,1.43,1.39,1.22,1.74S451.56,154.22,450.42,153.53Z"/><path class="cls-3" d="M431.16,140c.66.4,1.77,1.52,1.53,1.93s-1.76-.05-2.42-.45c-1.16-.69-1.43-1.38-1.22-1.74S430,139.29,431.16,140Z"/><path class="cls-3" d="M439.42,158.45c0-.77.48-2.28,1-2.26s.8,1.57.76,2.34c-.06,1.35-.53,1.92-.94,1.9S439.36,159.78,439.42,158.45Z"/><path class="cls-3" d="M442.16,135.05c0,.77-.49,2.29-1,2.27s-.8-1.57-.77-2.34c.06-1.35.54-1.92.95-1.9S442.22,133.73,442.16,135.05Z"/><path class="cls-3" d="M451.59,142c-.69.36-2.22.74-2.44.31s1-1.47,1.63-1.83c1.2-.63,1.93-.51,2.12-.14S452.76,141.42,451.59,142Z"/><path class="cls-3" d="M430,151.46c.68-.36,2.22-.73,2.44-.31s-.95,1.48-1.64,1.84c-1.19.63-1.92.51-2.12.14S428.82,152.08,430,151.46Z"/><path class="cls-1" d="M148.68,187.77a11.07,11.07,0,0,1-5.54-1.46c-3.41-2-5.49-5.76-5.7-10.36a24,24,0,0,1,2.35-10.73c-11.4-1.14-16.56-7.34-16.56-13.49,0-5.9,5.13-12.2,16.28-13.46-4.71-10.24-2-17.75,3.21-20.88a11,11,0,0,1,5.6-1.5c5.2,0,10.45,3.3,14.73,9.17,5.66-8.08,11.53-9.37,14.7-9.37a11,11,0,0,1,5.54,1.46c3.41,2,5.49,5.75,5.7,10.35a24,24,0,0,1-2.35,10.74c11.4,1.14,16.56,7.34,16.56,13.49,0,5.9-5.13,12.2-16.28,13.45a23.3,23.3,0,0,1,2.4,10.55c-.18,4.54-2.22,8.31-5.61,10.33a10.88,10.88,0,0,1-5.6,1.51c-5.2,0-10.45-3.3-14.73-9.17C157.72,186.47,151.85,187.77,148.68,187.77Z"/><path class="cls-2" d="M144.36,183.45a11,11,0,0,1-5.54-1.46c-3.41-2-5.48-5.75-5.7-10.35a23.92,23.92,0,0,1,2.36-10.74c-11.41-1.14-16.57-7.34-16.57-13.49,0-5.9,5.13-12.2,16.28-13.45-4.7-10.25-2-17.75,3.21-20.88a10.92,10.92,0,0,1,5.61-1.51c5.2,0,10.44,3.3,14.72,9.17,5.67-8.07,11.53-9.37,14.71-9.37a11.1,11.1,0,0,1,5.54,1.46c3.41,2,5.48,5.76,5.7,10.36a23.88,23.88,0,0,1-2.36,10.73c11.41,1.14,16.57,7.34,16.57,13.49,0,5.9-5.13,12.2-16.28,13.46A23.08,23.08,0,0,1,185,171.41c-.17,4.55-2.22,8.31-5.61,10.34a10.94,10.94,0,0,1-5.6,1.5c-5.2,0-10.44-3.3-14.72-9.17C153.4,182.16,147.54,183.45,144.36,183.45Z"/><path class="cls-3" d="M170.3,148.27c-.77,0-2.3-.38-2.3-.86s1.53-.86,2.3-.86c1.35,0,1.94.45,1.94.86S171.63,148.27,170.3,148.27Z"/><path class="cls-4" d="M193.71,147.41c0-4.06-4.64-8.5-15.26-8.5a28.24,28.24,0,0,0-6.35.9,28.45,28.45,0,0,0,4-5c5.23-9,3.82-15.42.31-17.46s-9.68-.26-15,8.93a28.47,28.47,0,0,0-2.56,6.43,28.81,28.81,0,0,0-2.63-6.4c-5.34-9-11.63-10.83-15.12-8.75s-4.92,8.34.52,17.46a28.16,28.16,0,0,0,3.8,4.76,27.21,27.21,0,0,0-6-.83c-10.42,0-15.26,4.44-15.26,8.5s4.64,8.5,15.26,8.5a28.24,28.24,0,0,0,6.35-.9,28.82,28.82,0,0,0-4,5c-5.23,9-3.82,15.42-.31,17.46s9.68.26,15-8.92a29.14,29.14,0,0,0,2.56-6.43,29.22,29.22,0,0,0,2.63,6.4c5.34,8.95,11.63,10.82,15.12,8.74s4.92-8.33-.52-17.45a27.4,27.4,0,0,0-3.8-4.76,27.75,27.75,0,0,0,6,.82C188.87,155.91,193.71,151.48,193.71,147.41Zm-34.8,1.92a2.73,2.73,0,0,0-.75-.65,3,3,0,0,0-.89-.33,3.05,3.05,0,0,0,.17-.94,2.93,2.93,0,0,0-.17-.92,2.91,2.91,0,0,0,.88-.33,3.08,3.08,0,0,0,.74-.66,3,3,0,0,0,.74.65,2.82,2.82,0,0,0,.91.32,2.8,2.8,0,0,0-.18.94,3,3,0,0,0,.17.93,2.91,2.91,0,0,0-.88.33A3.08,3.08,0,0,0,158.91,149.33Z"/><path class="cls-5" d="M158.64,155.22a7.81,7.81,0,1,1,7.81-7.81A7.8,7.8,0,0,1,158.64,155.22Z"/><path class="cls-3" d="M146.8,146.55c.77,0,2.3.39,2.3.86s-1.53.86-2.3.86c-1.35,0-1.94-.45-1.94-.86S145.48,146.55,146.8,146.55Z"/><path class="cls-3" d="M163.39,158.15c-.37-.68-.76-2.21-.34-2.43s1.49.93,1.86,1.61c.64,1.19.53,1.92.17,2.12S164,159.32,163.39,158.15Z"/><path class="cls-3" d="M153.71,136.67c.37.68.76,2.21.34,2.44s-1.49-.94-1.86-1.62c-.64-1.18-.53-1.92-.17-2.11S153.08,135.51,153.71,136.67Z"/><path class="cls-3" d="M165.39,137.82c-.4.66-1.53,1.77-1.93,1.52s0-1.76.45-2.41c.71-1.16,1.4-1.43,1.75-1.22S166.08,136.69,165.39,137.82Z"/><path class="cls-3" d="M151.71,157c.4-.66,1.53-1.76,1.93-1.52s0,1.76-.45,2.42c-.71,1.15-1.4,1.43-1.75,1.21S151,158.14,151.71,157Z"/><path class="cls-3" d="M168.18,154.19c-.66-.39-1.77-1.51-1.53-1.92s1.76,0,2.42.44c1.16.7,1.43,1.39,1.22,1.74S169.32,154.87,168.18,154.19Z"/><path class="cls-3" d="M148.92,140.63c.66.4,1.77,1.52,1.53,1.93s-1.76-.05-2.42-.45c-1.16-.69-1.43-1.38-1.22-1.74S147.78,140,148.92,140.63Z"/><path class="cls-3" d="M157.18,159.11c0-.77.49-2.28,1-2.26s.8,1.57.76,2.34c-.05,1.35-.53,1.92-.94,1.9S157.12,160.44,157.18,159.11Z"/><path class="cls-3" d="M159.92,135.71c0,.77-.49,2.29-1,2.27s-.8-1.57-.76-2.34c.05-1.35.53-1.92.94-1.9S160,134.39,159.92,135.71Z"/><path class="cls-3" d="M169.35,142.7c-.68.36-2.22.73-2.44.31s1-1.47,1.63-1.83c1.2-.63,1.93-.51,2.13-.14S170.52,142.08,169.35,142.7Z"/><path class="cls-3" d="M147.75,152.12c.69-.36,2.22-.73,2.44-.31s-.95,1.48-1.63,1.84c-1.2.63-1.93.51-2.12.14S146.58,152.74,147.75,152.12Z"/><path class="cls-1" d="M241.9,187.47a11.14,11.14,0,0,1-5.55-1.46c-3.41-2-5.48-5.76-5.69-10.36A23.73,23.73,0,0,1,233,164.92c-11.41-1.14-16.56-7.34-16.56-13.49,0-5.9,5.12-12.2,16.27-13.45-4.7-10.25-2-17.76,3.22-20.89a10.94,10.94,0,0,1,5.6-1.5c5.2,0,10.44,3.3,14.72,9.17,5.67-8.08,11.53-9.37,14.71-9.37a11,11,0,0,1,5.54,1.46c3.41,2,5.49,5.75,5.7,10.35a23.92,23.92,0,0,1-2.36,10.74c11.41,1.14,16.57,7.34,16.57,13.49,0,5.9-5.13,12.2-16.28,13.45a23.3,23.3,0,0,1,2.4,10.55c-.18,4.54-2.22,8.31-5.61,10.33a10.89,10.89,0,0,1-5.61,1.51c-5.19,0-10.44-3.3-14.72-9.17C250.94,186.17,245.07,187.47,241.9,187.47Z"/><path class="cls-2" d="M237.58,183.15a11,11,0,0,1-5.54-1.46c-3.41-2-5.49-5.75-5.7-10.35a24,24,0,0,1,2.35-10.74c-11.4-1.14-16.56-7.34-16.56-13.49,0-5.9,5.13-12.2,16.28-13.45-4.7-10.24-2-17.75,3.21-20.88a10.88,10.88,0,0,1,5.6-1.51c5.2,0,10.45,3.3,14.73,9.17,5.66-8.07,11.53-9.37,14.7-9.37a11.07,11.07,0,0,1,5.54,1.46c3.41,2,5.49,5.76,5.7,10.36a23.86,23.86,0,0,1-2.35,10.73c11.4,1.14,16.56,7.34,16.56,13.49,0,5.9-5.12,12.2-16.27,13.46a23.24,23.24,0,0,1,2.39,10.54c-.17,4.55-2.22,8.31-5.61,10.34A11,11,0,0,1,267,183c-5.2,0-10.45-3.3-14.73-9.17C246.62,181.86,240.75,183.15,237.58,183.15Z"/><path class="cls-3" d="M263.52,148c-.78,0-2.31-.39-2.31-.87s1.53-.86,2.31-.86c1.35,0,1.94.45,1.94.86S264.84,148,263.52,148Z"/><path class="cls-4" d="M286.92,147.11c0-4.06-4.63-8.5-15.25-8.5a28.32,28.32,0,0,0-6.36.9,27.55,27.55,0,0,0,4-5c5.24-9,3.83-15.42.31-17.46s-9.67-.26-15,8.93a28.47,28.47,0,0,0-2.56,6.43,28.79,28.79,0,0,0-2.64-6.4c-5.34-9-11.62-10.83-15.11-8.75s-4.93,8.34.52,17.46a27.67,27.67,0,0,0,3.8,4.76,28,28,0,0,0-6-.83c-10.42,0-15.25,4.44-15.25,8.5s4.63,8.5,15.25,8.5a28.32,28.32,0,0,0,6.36-.9,28.35,28.35,0,0,0-4,5c-5.23,9-3.83,15.42-.31,17.46s9.67.26,15-8.92a29.16,29.16,0,0,0,2.55-6.43,29,29,0,0,0,2.64,6.4c5.34,9,11.62,10.82,15.12,8.74s4.92-8.33-.53-17.45a26.93,26.93,0,0,0-3.8-4.76,27.91,27.91,0,0,0,6,.82C282.09,155.61,286.92,151.18,286.92,147.11ZM252.13,149a2.73,2.73,0,0,0-.75-.65,3,3,0,0,0-.9-.33,2.79,2.79,0,0,0,.17-.94,2.92,2.92,0,0,0-.16-.92,3,3,0,0,0,.88-.33,2.86,2.86,0,0,0,.73-.66,3.08,3.08,0,0,0,.75.65,2.85,2.85,0,0,0,.9.32,3.05,3.05,0,0,0-.17.94,3,3,0,0,0,.16.93,3,3,0,0,0-.87.33A3.08,3.08,0,0,0,252.13,149Z"/><path class="cls-5" d="M251.85,154.92a7.81,7.81,0,1,1,7.81-7.81A7.81,7.81,0,0,1,251.85,154.92Z"/><path class="cls-3" d="M240,146.25c.77,0,2.3.39,2.3.86s-1.53.87-2.3.87c-1.35,0-1.94-.46-1.94-.87S238.69,146.25,240,146.25Z"/><path class="cls-3" d="M256.61,157.85c-.37-.68-.76-2.21-.34-2.43s1.49.93,1.85,1.61c.65,1.19.53,1.92.17,2.12S257.24,159,256.61,157.85Z"/><path class="cls-3" d="M246.92,136.37c.37.68.76,2.21.34,2.44s-1.48-.94-1.85-1.61c-.65-1.19-.53-1.93-.17-2.12S246.29,135.21,246.92,136.37Z"/><path class="cls-3" d="M258.61,137.52c-.4.66-1.53,1.77-1.94,1.52s.06-1.76.46-2.41c.7-1.16,1.4-1.43,1.75-1.22S259.3,136.39,258.61,137.52Z"/><path class="cls-3" d="M244.93,156.7c.4-.66,1.52-1.76,1.93-1.52s-.06,1.76-.46,2.42c-.7,1.15-1.39,1.43-1.74,1.21S244.24,157.84,244.93,156.7Z"/><path class="cls-3" d="M261.4,153.89c-.66-.39-1.78-1.51-1.53-1.92s1.75.05,2.42.44c1.16.7,1.43,1.39,1.22,1.74S262.54,154.58,261.4,153.89Z"/><path class="cls-3" d="M242.13,140.33c.67.4,1.78,1.52,1.54,1.93s-1.76,0-2.42-.45c-1.16-.69-1.44-1.38-1.23-1.74S241,139.65,242.13,140.33Z"/><path class="cls-3" d="M250.4,158.81c0-.77.48-2.28,1-2.26s.79,1.57.76,2.34c-.06,1.35-.53,1.92-1,1.9S250.34,160.14,250.4,158.81Z"/><path class="cls-3" d="M253.14,135.41c0,.77-.49,2.29-1,2.27s-.8-1.57-.77-2.34c.06-1.35.54-1.92,1-1.9S253.19,134.09,253.14,135.41Z"/><path class="cls-3" d="M262.56,142.4c-.68.36-2.21.74-2.44.31s1-1.47,1.64-1.83c1.2-.63,1.93-.51,2.12-.14S263.74,141.78,262.56,142.4Z"/><path class="cls-3" d="M241,151.82c.68-.36,2.22-.73,2.44-.31s-.95,1.48-1.64,1.84c-1.19.63-1.93.51-2.12.14S239.8,152.44,241,151.82Z"/><path class="cls-1" d="M56.33,283.22a11,11,0,0,1-5.55-1.46c-3.41-2-5.48-5.75-5.69-10.35a23.77,23.77,0,0,1,2.35-10.74c-11.41-1.14-16.56-7.34-16.56-13.49,0-5.9,5.12-12.2,16.27-13.45-4.7-10.25-2-17.75,3.22-20.88a10.88,10.88,0,0,1,5.6-1.51c5.2,0,10.44,3.3,14.72,9.17,5.67-8.07,11.53-9.37,14.71-9.37a11.1,11.1,0,0,1,5.54,1.46c3.41,2,5.49,5.76,5.7,10.36a23.88,23.88,0,0,1-2.36,10.73c11.41,1.14,16.57,7.34,16.57,13.49,0,5.9-5.13,12.2-16.28,13.46A23.23,23.23,0,0,1,97,271.18c-.18,4.55-2.22,8.31-5.61,10.34a11,11,0,0,1-5.61,1.5c-5.19,0-10.44-3.3-14.72-9.17C65.37,281.93,59.5,283.22,56.33,283.22Z"/><path class="cls-2" d="M52,278.91a11.07,11.07,0,0,1-5.54-1.46c-3.41-2-5.49-5.76-5.7-10.36a24,24,0,0,1,2.35-10.73c-11.4-1.14-16.56-7.34-16.56-13.49,0-5.9,5.13-12.2,16.28-13.46-4.7-10.24-2-17.75,3.21-20.88a11,11,0,0,1,5.6-1.5c5.2,0,10.45,3.3,14.73,9.17,5.66-8.08,11.53-9.37,14.7-9.37a11,11,0,0,1,5.54,1.46c3.41,2,5.49,5.75,5.7,10.35A23.86,23.86,0,0,1,90,229.37c11.41,1.14,16.56,7.35,16.56,13.5,0,5.9-5.12,12.2-16.27,13.45a23.25,23.25,0,0,1,2.39,10.55c-.17,4.54-2.22,8.31-5.61,10.33a10.88,10.88,0,0,1-5.6,1.51c-5.2,0-10.45-3.31-14.73-9.18C61.05,277.61,55.18,278.91,52,278.91Z"/><path class="cls-3" d="M78,243.73c-.78,0-2.31-.39-2.31-.86S77.17,242,78,242c1.35,0,1.94.45,1.94.87S79.27,243.73,78,243.73Z"/><path class="cls-4" d="M101.35,242.87c0-4.07-4.63-8.5-15.25-8.5a28.32,28.32,0,0,0-6.36.9,27.59,27.59,0,0,0,4-5.05c5.24-9,3.83-15.41.31-17.45s-9.67-.27-15,8.92a28.47,28.47,0,0,0-2.56,6.43,29,29,0,0,0-2.64-6.4C58.48,212.77,52.2,210.9,48.71,213s-4.93,8.33.52,17.45a27.29,27.29,0,0,0,3.8,4.76,27.91,27.91,0,0,0-6-.82c-10.42,0-15.25,4.43-15.25,8.5s4.63,8.5,15.25,8.5a27.82,27.82,0,0,0,6.36-.91,28.38,28.38,0,0,0-4,5c-5.23,9-3.83,15.42-.31,17.46s9.67.26,15-8.93a29.44,29.44,0,0,0,2.56-6.43,28.54,28.54,0,0,0,2.63,6.4c5.34,8.95,11.62,10.83,15.12,8.74s4.92-8.33-.53-17.45a27.29,27.29,0,0,0-3.8-4.76,28,28,0,0,0,6,.83C96.52,251.37,101.35,246.93,101.35,242.87Zm-34.79,1.91a2.91,2.91,0,0,0-.75-.65,2.76,2.76,0,0,0-.9-.32,2.79,2.79,0,0,0,.17-.94,3,3,0,0,0-.16-.93,3,3,0,0,0,.88-.33,2.86,2.86,0,0,0,.73-.66,3.08,3.08,0,0,0,.75.65,2.85,2.85,0,0,0,.9.32,3.12,3.12,0,0,0-.17,1,2.92,2.92,0,0,0,.16.92,3,3,0,0,0-.87.33A3.08,3.08,0,0,0,66.56,244.78Z"/><path class="cls-5" d="M66.28,250.68a7.82,7.82,0,1,1,7.82-7.81A7.81,7.81,0,0,1,66.28,250.68Z"/><path class="cls-3" d="M54.45,242c.77,0,2.3.39,2.3.87s-1.53.86-2.3.86c-1.35,0-1.94-.45-1.94-.86S53.12,242,54.45,242Z"/><path class="cls-3" d="M71,253.61c-.37-.68-.76-2.21-.34-2.44s1.49.93,1.85,1.61c.65,1.19.53,1.93.17,2.12S71.67,254.77,71,253.61Z"/><path class="cls-3" d="M61.35,232.13c.37.68.76,2.21.34,2.43s-1.48-.93-1.85-1.61c-.65-1.19-.53-1.92-.17-2.12S60.72,231,61.35,232.13Z"/><path class="cls-3" d="M73,233.27c-.4.66-1.53,1.77-1.94,1.53s.06-1.76.46-2.42c.7-1.16,1.4-1.43,1.75-1.21S73.73,232.14,73,233.27Z"/><path class="cls-3" d="M59.36,252.46c.4-.66,1.52-1.77,1.93-1.52s-.06,1.75-.46,2.41c-.7,1.16-1.39,1.43-1.74,1.22S58.67,253.59,59.36,252.46Z"/><path class="cls-3" d="M75.83,249.65c-.66-.4-1.78-1.52-1.53-1.93s1.75.05,2.42.45c1.16.69,1.43,1.38,1.22,1.74S77,250.33,75.83,249.65Z"/><path class="cls-3" d="M56.56,236.09c.67.39,1.78,1.51,1.54,1.92s-1.76,0-2.42-.44c-1.16-.7-1.44-1.39-1.23-1.74S55.43,235.4,56.56,236.09Z"/><path class="cls-3" d="M64.83,254.57c0-.78.48-2.29,1-2.27s.79,1.57.76,2.34c-.06,1.35-.53,1.92-.94,1.9S64.77,255.89,64.83,254.57Z"/><path class="cls-3" d="M67.57,231.17c0,.77-.49,2.28-1,2.26s-.8-1.57-.77-2.34c.06-1.35.54-1.92,1-1.9S67.62,229.84,67.57,231.17Z"/><path class="cls-3" d="M77,238.16c-.68.36-2.21.73-2.44.31s1-1.48,1.64-1.84c1.2-.63,1.93-.5,2.12-.14S78.17,237.54,77,238.16Z"/><path class="cls-3" d="M55.4,247.58c.68-.36,2.22-.73,2.44-.31s-1,1.47-1.64,1.83c-1.19.63-1.93.51-2.12.14S54.23,248.19,55.4,247.58Z"/><path class="cls-1" d="M335.11,282.92a11,11,0,0,1-5.54-1.46c-3.41-2-5.49-5.75-5.7-10.35a23.92,23.92,0,0,1,2.36-10.74c-11.41-1.14-16.57-7.34-16.57-13.49,0-5.9,5.13-12.2,16.28-13.45-4.7-10.25-2-17.75,3.21-20.88a10.89,10.89,0,0,1,5.61-1.51c5.19,0,10.44,3.3,14.72,9.17,5.67-8.07,11.53-9.37,14.7-9.37a11.14,11.14,0,0,1,5.55,1.46c3.41,2,5.48,5.76,5.69,10.36a23.73,23.73,0,0,1-2.35,10.73c11.41,1.14,16.56,7.34,16.56,13.49,0,5.9-5.12,12.2-16.27,13.46a23.21,23.21,0,0,1,2.39,10.54c-.17,4.55-2.22,8.31-5.61,10.34a11,11,0,0,1-5.6,1.5c-5.2,0-10.44-3.3-14.72-9.17C344.15,281.63,338.29,282.92,335.11,282.92Z"/><path class="cls-2" d="M330.8,278.61a11.14,11.14,0,0,1-5.55-1.46c-3.4-2-5.48-5.76-5.69-10.36a23.73,23.73,0,0,1,2.35-10.73c-11.41-1.14-16.56-7.34-16.56-13.49,0-5.9,5.12-12.2,16.28-13.46-4.71-10.24-2-17.75,3.21-20.88a11,11,0,0,1,5.6-1.5c5.2,0,10.45,3.3,14.72,9.17,5.67-8.08,11.53-9.37,14.71-9.37a11,11,0,0,1,5.54,1.46c3.41,2,5.49,5.75,5.7,10.35a24,24,0,0,1-2.35,10.73c11.4,1.14,16.56,7.35,16.56,13.5,0,5.9-5.13,12.2-16.28,13.45a23.3,23.3,0,0,1,2.4,10.55c-.18,4.54-2.22,8.31-5.61,10.33a10.89,10.89,0,0,1-5.61,1.51c-5.19,0-10.44-3.31-14.72-9.17C339.84,277.31,334,278.61,330.8,278.61Z"/><path class="cls-3" d="M356.73,243.43c-.77,0-2.3-.39-2.3-.86s1.53-.87,2.3-.87c1.35,0,1.94.45,1.94.87S358.06,243.43,356.73,243.43Z"/><path class="cls-4" d="M380.14,242.57c0-4.07-4.63-8.5-15.25-8.5a28.32,28.32,0,0,0-6.36.9,28.35,28.35,0,0,0,4-5c5.23-9,3.83-15.42.31-17.46s-9.67-.27-15,8.92a29.64,29.64,0,0,0-2.56,6.43,29,29,0,0,0-2.63-6.4c-5.34-8.95-11.63-10.82-15.12-8.74s-4.92,8.33.52,17.45a27.78,27.78,0,0,0,3.8,4.76,27.75,27.75,0,0,0-6-.82c-10.42,0-15.25,4.43-15.25,8.5s4.63,8.5,15.25,8.5a28.16,28.16,0,0,0,6.35-.9,28.45,28.45,0,0,0-4,5c-5.23,9-3.82,15.42-.3,17.46s9.67.26,15-8.93a28.47,28.47,0,0,0,2.56-6.43,28.52,28.52,0,0,0,2.64,6.4c5.34,9,11.62,10.83,15.11,8.74s4.92-8.33-.52-17.45a27.78,27.78,0,0,0-3.8-4.76,27.9,27.9,0,0,0,6,.83C375.31,251.07,380.14,246.63,380.14,242.57Zm-34.79,1.91a3.08,3.08,0,0,0-.75-.65,2.85,2.85,0,0,0-.9-.32,3.05,3.05,0,0,0,.17-.94,3,3,0,0,0-.16-.93,2.7,2.7,0,0,0,.87-.33,3.08,3.08,0,0,0,.74-.66,2.91,2.91,0,0,0,.75.65,3,3,0,0,0,.9.33,2.74,2.74,0,0,0-.17.94,2.92,2.92,0,0,0,.16.92,2.87,2.87,0,0,0-.87.34A2.55,2.55,0,0,0,345.35,244.48Z"/><path class="cls-5" d="M345.07,250.38a7.82,7.82,0,1,1,7.81-7.81A7.81,7.81,0,0,1,345.07,250.38Z"/><path class="cls-3" d="M333.23,241.7c.78,0,2.31.39,2.31.87s-1.53.86-2.31.86c-1.35,0-1.94-.45-1.94-.86S331.91,241.7,333.23,241.7Z"/><path class="cls-3" d="M349.82,253.31c-.36-.68-.75-2.21-.33-2.44s1.48.93,1.85,1.61c.64,1.19.53,1.93.17,2.12S350.46,254.47,349.82,253.31Z"/><path class="cls-3" d="M340.14,231.83c.37.68.76,2.21.34,2.43s-1.49-.93-1.86-1.61c-.64-1.19-.53-1.92-.16-2.12S339.51,230.66,340.14,231.83Z"/><path class="cls-3" d="M351.82,233c-.4.66-1.52,1.77-1.93,1.53s.06-1.76.46-2.42c.7-1.16,1.39-1.43,1.74-1.21S352.51,231.84,351.82,233Z"/><path class="cls-3" d="M338.14,252.16c.4-.66,1.53-1.77,1.94-1.52s-.06,1.75-.46,2.41c-.7,1.16-1.4,1.43-1.75,1.22S337.46,253.29,338.14,252.16Z"/><path class="cls-3" d="M354.62,249.35c-.67-.4-1.78-1.52-1.54-1.93s1.76.05,2.42.45c1.16.69,1.44,1.38,1.22,1.74S355.75,250,354.62,249.35Z"/><path class="cls-3" d="M335.35,235.79c.66.39,1.78,1.51,1.53,1.92s-1.75-.05-2.42-.44c-1.16-.7-1.43-1.39-1.22-1.74S334.21,235.1,335.35,235.79Z"/><path class="cls-3" d="M343.61,254.27c0-.77.49-2.29,1-2.27s.8,1.57.77,2.34c-.06,1.35-.54,1.92-.95,1.9S343.56,255.59,343.61,254.27Z"/><path class="cls-3" d="M346.35,230.87c0,.77-.48,2.28-1,2.26s-.79-1.57-.76-2.34c.06-1.35.53-1.92.94-1.9S346.41,229.54,346.35,230.87Z"/><path class="cls-3" d="M355.78,237.86c-.68.36-2.22.73-2.44.31s1-1.48,1.64-1.84c1.19-.63,1.93-.5,2.12-.14S357,237.24,355.78,237.86Z"/><path class="cls-3" d="M334.18,247.28c.69-.36,2.22-.73,2.44-.31s-.95,1.47-1.63,1.83c-1.2.63-1.93.51-2.12.15S333,247.89,334.18,247.28Z"/><path class="cls-1" d="M430.92,282.56a11,11,0,0,1-5.54-1.46c-3.41-2-5.49-5.75-5.7-10.35A23.9,23.9,0,0,1,422,260c-11.4-1.14-16.56-7.34-16.56-13.49,0-5.9,5.12-12.2,16.28-13.45-4.71-10.25-2-17.75,3.21-20.88a10.88,10.88,0,0,1,5.6-1.51c5.2,0,10.45,3.3,14.73,9.17,5.66-8.07,11.53-9.37,14.7-9.37a11.07,11.07,0,0,1,5.54,1.46c3.41,2,5.49,5.76,5.7,10.36A24,24,0,0,1,468.88,233c11.4,1.14,16.56,7.34,16.56,13.49,0,5.9-5.13,12.2-16.28,13.46a23.26,23.26,0,0,1,2.4,10.54c-.18,4.55-2.22,8.31-5.61,10.34a11,11,0,0,1-5.61,1.5c-5.19,0-10.44-3.3-14.72-9.17C440,281.27,434.09,282.56,430.92,282.56Z"/><path class="cls-2" d="M426.6,278.25a11.1,11.1,0,0,1-5.54-1.46c-3.41-2-5.49-5.76-5.7-10.36a23.88,23.88,0,0,1,2.36-10.73c-11.41-1.14-16.57-7.34-16.57-13.49,0-5.9,5.13-12.2,16.28-13.46-4.7-10.24-2-17.75,3.21-20.88a11,11,0,0,1,5.61-1.5c5.2,0,10.44,3.3,14.72,9.17,5.67-8.08,11.53-9.37,14.7-9.37a11,11,0,0,1,5.55,1.46c3.41,2,5.48,5.75,5.69,10.35a23.8,23.8,0,0,1-2.35,10.74c11.41,1.13,16.56,7.34,16.56,13.49,0,5.9-5.12,12.2-16.27,13.45a23.28,23.28,0,0,1,2.39,10.55c-.17,4.54-2.22,8.31-5.61,10.33a10.88,10.88,0,0,1-5.6,1.51c-5.2,0-10.44-3.31-14.72-9.17C435.64,277,429.78,278.25,426.6,278.25Z"/><path class="cls-3" d="M452.54,243.07c-.77,0-2.31-.39-2.31-.86s1.54-.87,2.31-.87c1.35,0,1.94.45,1.94.87S453.86,243.07,452.54,243.07Z"/><path class="cls-4" d="M476,242.21c0-4.07-4.64-8.5-15.26-8.5a28.16,28.16,0,0,0-6.35.9,28.82,28.82,0,0,0,4-5c5.23-9,3.82-15.42.31-17.46s-9.68-.27-15,8.92a28.66,28.66,0,0,0-2.56,6.43,29,29,0,0,0-2.63-6.4c-5.35-8.95-11.63-10.82-15.12-8.74s-4.92,8.33.52,17.45a27.78,27.78,0,0,0,3.8,4.76,27.83,27.83,0,0,0-6-.82c-10.43,0-15.26,4.43-15.26,8.5s4.63,8.5,15.26,8.5a28.24,28.24,0,0,0,6.35-.9,28,28,0,0,0-4,5c-5.23,9-3.82,15.42-.31,17.46s9.68.26,15-8.93a28.94,28.94,0,0,0,2.56-6.43,29,29,0,0,0,2.63,6.4c5.34,8.95,11.63,10.83,15.12,8.75s4.92-8.34-.52-17.46a27.78,27.78,0,0,0-3.8-4.76,27.82,27.82,0,0,0,6,.83C471.11,250.71,476,246.27,476,242.21Zm-34.8,1.91a2.91,2.91,0,0,0-.75-.65,2.76,2.76,0,0,0-.9-.32,2.79,2.79,0,0,0,.17-.94,3,3,0,0,0-.16-.93,2.75,2.75,0,0,0,.88-.33,3.08,3.08,0,0,0,.74-.66,3,3,0,0,0,.74.65,3.14,3.14,0,0,0,.9.33,3,3,0,0,0-.17.94,2.67,2.67,0,0,0,.17.92,2.93,2.93,0,0,0-.88.34A2.84,2.84,0,0,0,441.15,244.12Z"/><path class="cls-5" d="M440.88,250a7.81,7.81,0,1,1,7.81-7.81A7.82,7.82,0,0,1,440.88,250Z"/><path class="cls-3" d="M429,241.34c.77,0,2.3.39,2.3.87s-1.53.86-2.3.86c-1.35,0-1.94-.45-1.94-.86S427.71,241.34,429,241.34Z"/><path class="cls-3" d="M445.63,253c-.37-.68-.76-2.21-.34-2.44s1.49.93,1.86,1.61c.64,1.19.53,1.93.16,2.12S446.26,254.11,445.63,253Z"/><path class="cls-3" d="M436,231.47c.36.68.75,2.21.34,2.43s-1.49-.93-1.86-1.61c-.64-1.19-.53-1.92-.17-2.12S435.31,230.3,436,231.47Z"/><path class="cls-3" d="M447.63,232.61c-.4.66-1.53,1.77-1.94,1.53s.06-1.76.46-2.42c.71-1.16,1.4-1.43,1.75-1.21S448.32,231.48,447.63,232.61Z"/><path class="cls-3" d="M434,251.8c.4-.66,1.53-1.77,1.93-1.52s-.06,1.75-.46,2.41c-.7,1.16-1.39,1.43-1.74,1.22S433.26,252.93,434,251.8Z"/><path class="cls-3" d="M450.42,249c-.66-.4-1.77-1.52-1.53-1.93s1.76.05,2.42.45c1.16.69,1.43,1.38,1.22,1.74S451.56,249.67,450.42,249Z"/><path class="cls-3" d="M431.16,235.43c.66.39,1.77,1.51,1.53,1.92s-1.76,0-2.42-.44c-1.16-.7-1.43-1.39-1.22-1.74S430,234.74,431.16,235.43Z"/><path class="cls-3" d="M439.42,253.91c0-.77.48-2.29,1-2.27s.8,1.57.76,2.34c-.06,1.35-.53,1.92-.94,1.9S439.36,255.23,439.42,253.91Z"/><path class="cls-3" d="M442.16,230.51c0,.77-.49,2.28-1,2.26s-.8-1.57-.77-2.34c.06-1.35.54-1.92.95-1.9S442.22,229.18,442.16,230.51Z"/><path class="cls-3" d="M451.59,237.5c-.69.36-2.22.73-2.44.31s1-1.48,1.63-1.84c1.2-.63,1.93-.5,2.12-.14S452.76,236.88,451.59,237.5Z"/><path class="cls-3" d="M430,246.92c.68-.36,2.22-.73,2.44-.31s-.95,1.47-1.64,1.83c-1.19.63-1.92.51-2.12.15S428.82,247.54,430,246.92Z"/><path class="cls-1" d="M148.68,283.22a11,11,0,0,1-5.54-1.46c-3.41-2-5.49-5.75-5.7-10.35a24,24,0,0,1,2.35-10.74c-11.4-1.14-16.56-7.34-16.56-13.49,0-5.9,5.13-12.2,16.28-13.45-4.71-10.25-2-17.75,3.21-20.88a10.88,10.88,0,0,1,5.6-1.51c5.2,0,10.45,3.3,14.73,9.17,5.66-8.07,11.53-9.37,14.7-9.37a11.07,11.07,0,0,1,5.54,1.46c3.41,2,5.49,5.76,5.7,10.36a24,24,0,0,1-2.35,10.73c11.4,1.14,16.56,7.34,16.56,13.49,0,5.9-5.13,12.2-16.28,13.46a23.23,23.23,0,0,1,2.4,10.54c-.18,4.55-2.22,8.31-5.61,10.34a11,11,0,0,1-5.6,1.5c-5.2,0-10.45-3.3-14.73-9.17C157.72,281.93,151.85,283.22,148.68,283.22Z"/><path class="cls-2" d="M144.36,278.91a11.1,11.1,0,0,1-5.54-1.46c-3.41-2-5.48-5.76-5.7-10.36a23.88,23.88,0,0,1,2.36-10.73c-11.41-1.14-16.57-7.34-16.57-13.49,0-5.9,5.13-12.2,16.28-13.46-4.7-10.24-2-17.75,3.21-20.88A11,11,0,0,1,144,207c5.2,0,10.44,3.3,14.72,9.17,5.67-8.08,11.53-9.37,14.71-9.37a11,11,0,0,1,5.54,1.46c3.41,2,5.48,5.75,5.7,10.35a23.88,23.88,0,0,1-2.36,10.73c11.41,1.14,16.57,7.35,16.57,13.5,0,5.9-5.13,12.2-16.28,13.45A23.12,23.12,0,0,1,185,266.87c-.17,4.54-2.22,8.31-5.61,10.33a10.85,10.85,0,0,1-5.6,1.51c-5.2,0-10.44-3.31-14.72-9.18C153.4,277.61,147.54,278.91,144.36,278.91Z"/><path class="cls-3" d="M170.3,243.73c-.77,0-2.3-.39-2.3-.86s1.53-.87,2.3-.87c1.35,0,1.94.45,1.94.87S171.63,243.73,170.3,243.73Z"/><path class="cls-4" d="M193.71,242.87c0-4.07-4.64-8.5-15.26-8.5a28.24,28.24,0,0,0-6.35.9,28.49,28.49,0,0,0,4-5.05c5.23-9,3.82-15.41.31-17.45s-9.68-.27-15,8.92a28.47,28.47,0,0,0-2.56,6.43,29,29,0,0,0-2.63-6.4c-5.34-8.95-11.63-10.82-15.12-8.74s-4.92,8.33.52,17.45a27.78,27.78,0,0,0,3.8,4.76,27.75,27.75,0,0,0-6-.82c-10.42,0-15.26,4.43-15.26,8.5s4.64,8.5,15.26,8.5a27.74,27.74,0,0,0,6.35-.91,28.85,28.85,0,0,0-4,5c-5.23,9-3.82,15.42-.31,17.46s9.68.26,15-8.93a28.94,28.94,0,0,0,2.56-6.43,29,29,0,0,0,2.63,6.4c5.34,8.95,11.63,10.83,15.12,8.74s4.92-8.33-.52-17.45a27.78,27.78,0,0,0-3.8-4.76,27.82,27.82,0,0,0,6,.83C188.87,251.37,193.71,246.93,193.71,242.87Zm-34.8,1.91a2.91,2.91,0,0,0-.75-.65,2.71,2.71,0,0,0-.89-.32,3.05,3.05,0,0,0,.17-.94,3,3,0,0,0-.17-.93,2.91,2.91,0,0,0,.88-.33,3.08,3.08,0,0,0,.74-.66,3,3,0,0,0,.74.65,2.82,2.82,0,0,0,.91.32,2.86,2.86,0,0,0-.18,1,2.93,2.93,0,0,0,.17.92,2.91,2.91,0,0,0-.88.33A3.08,3.08,0,0,0,158.91,244.78Z"/><path class="cls-5" d="M158.64,250.68a7.82,7.82,0,1,1,7.81-7.81A7.81,7.81,0,0,1,158.64,250.68Z"/><path class="cls-3" d="M146.8,242c.77,0,2.3.39,2.3.87s-1.53.86-2.3.86c-1.35,0-1.94-.45-1.94-.86S145.48,242,146.8,242Z"/><path class="cls-3" d="M163.39,253.61c-.37-.68-.76-2.21-.34-2.44s1.49.93,1.86,1.61c.64,1.19.53,1.93.17,2.12S164,254.77,163.39,253.61Z"/><path class="cls-3" d="M153.71,232.13c.37.68.76,2.21.34,2.43s-1.49-.93-1.86-1.61c-.64-1.19-.53-1.92-.17-2.12S153.08,231,153.71,232.13Z"/><path class="cls-3" d="M165.39,233.27c-.4.66-1.53,1.77-1.93,1.53s0-1.76.45-2.42c.71-1.16,1.4-1.43,1.75-1.21S166.08,232.14,165.39,233.27Z"/><path class="cls-3" d="M151.71,252.46c.4-.66,1.53-1.77,1.93-1.52s0,1.75-.45,2.41c-.71,1.16-1.4,1.43-1.75,1.22S151,253.59,151.71,252.46Z"/><path class="cls-3" d="M168.18,249.65c-.66-.4-1.77-1.52-1.53-1.93s1.76.05,2.42.45c1.16.69,1.43,1.38,1.22,1.74S169.32,250.33,168.18,249.65Z"/><path class="cls-3" d="M148.92,236.09c.66.39,1.77,1.51,1.53,1.92s-1.76,0-2.42-.44c-1.16-.7-1.43-1.39-1.22-1.74S147.78,235.4,148.92,236.09Z"/><path class="cls-3" d="M157.18,254.57c0-.78.49-2.29,1-2.27s.8,1.57.76,2.34c-.05,1.35-.53,1.92-.94,1.9S157.12,255.89,157.18,254.57Z"/><path class="cls-3" d="M159.92,231.17c0,.77-.49,2.28-1,2.26s-.8-1.57-.76-2.34c.05-1.35.53-1.92.94-1.9S160,229.84,159.92,231.17Z"/><path class="cls-3" d="M169.35,238.16c-.68.36-2.22.73-2.44.31s1-1.48,1.63-1.84c1.2-.63,1.93-.5,2.13-.14S170.52,237.54,169.35,238.16Z"/><path class="cls-3" d="M147.75,247.58c.69-.36,2.22-.73,2.44-.31s-.95,1.47-1.63,1.83c-1.2.63-1.93.51-2.12.14S146.58,248.19,147.75,247.58Z"/><path class="cls-1" d="M241.9,282.92a11,11,0,0,1-5.55-1.46c-3.41-2-5.48-5.75-5.69-10.35A23.77,23.77,0,0,1,233,260.37c-11.41-1.14-16.56-7.34-16.56-13.49,0-5.9,5.12-12.2,16.27-13.45-4.7-10.25-2-17.75,3.22-20.88a10.85,10.85,0,0,1,5.6-1.51c5.2,0,10.44,3.3,14.72,9.17,5.67-8.07,11.53-9.37,14.71-9.37a11.1,11.1,0,0,1,5.54,1.46c3.41,2,5.49,5.76,5.7,10.36a23.88,23.88,0,0,1-2.36,10.73c11.41,1.14,16.57,7.34,16.57,13.49,0,5.9-5.13,12.2-16.28,13.46a23.23,23.23,0,0,1,2.4,10.54c-.18,4.55-2.22,8.31-5.61,10.34a11,11,0,0,1-5.61,1.5c-5.19,0-10.44-3.3-14.72-9.17C250.94,281.63,245.07,282.92,241.9,282.92Z"/><path class="cls-2" d="M237.58,278.61a11.07,11.07,0,0,1-5.54-1.46c-3.41-2-5.49-5.76-5.7-10.36a24,24,0,0,1,2.35-10.73c-11.4-1.14-16.56-7.34-16.56-13.49,0-5.9,5.13-12.2,16.28-13.46-4.7-10.24-2-17.75,3.21-20.88a11,11,0,0,1,5.6-1.5c5.2,0,10.45,3.3,14.73,9.17,5.66-8.08,11.53-9.37,14.7-9.37a11,11,0,0,1,5.54,1.46c3.41,2,5.49,5.75,5.7,10.35a23.86,23.86,0,0,1-2.35,10.73c11.4,1.14,16.56,7.35,16.56,13.5,0,5.9-5.12,12.2-16.27,13.45a23.28,23.28,0,0,1,2.39,10.55c-.17,4.54-2.22,8.31-5.61,10.33a10.88,10.88,0,0,1-5.6,1.51c-5.2,0-10.45-3.31-14.73-9.17C246.62,277.31,240.75,278.61,237.58,278.61Z"/><path class="cls-3" d="M263.52,243.43c-.78,0-2.31-.39-2.31-.86s1.53-.87,2.31-.87c1.35,0,1.94.45,1.94.87S264.84,243.43,263.52,243.43Z"/><path class="cls-4" d="M286.92,242.57c0-4.07-4.63-8.5-15.25-8.5a28.32,28.32,0,0,0-6.36.9,27.89,27.89,0,0,0,4-5c5.24-9,3.83-15.42.31-17.46s-9.67-.27-15,8.92a28.66,28.66,0,0,0-2.56,6.43,29,29,0,0,0-2.64-6.4c-5.34-8.95-11.62-10.82-15.11-8.74s-4.93,8.33.52,17.45a27.29,27.29,0,0,0,3.8,4.76,27.91,27.91,0,0,0-6-.82c-10.42,0-15.25,4.43-15.25,8.5s4.63,8.5,15.25,8.5a28.32,28.32,0,0,0,6.36-.9,28,28,0,0,0-4,5c-5.23,9-3.83,15.42-.31,17.46s9.67.26,15-8.93a29,29,0,0,0,2.55-6.43,29,29,0,0,0,2.64,6.4c5.34,9,11.62,10.83,15.12,8.74s4.92-8.33-.53-17.45a27.29,27.29,0,0,0-3.8-4.76,28,28,0,0,0,6,.83C282.09,251.07,286.92,246.63,286.92,242.57Zm-34.79,1.91a2.91,2.91,0,0,0-.75-.65,2.76,2.76,0,0,0-.9-.32,2.79,2.79,0,0,0,.17-.94,3,3,0,0,0-.16-.93,2.75,2.75,0,0,0,.88-.33,2.86,2.86,0,0,0,.73-.66,3.08,3.08,0,0,0,.75.65,3.14,3.14,0,0,0,.9.33,3,3,0,0,0-.17.94,2.92,2.92,0,0,0,.16.92,3,3,0,0,0-.87.34A2.84,2.84,0,0,0,252.13,244.48Z"/><path class="cls-5" d="M251.85,250.38a7.82,7.82,0,1,1,7.81-7.81A7.81,7.81,0,0,1,251.85,250.38Z"/><path class="cls-3" d="M240,241.7c.77,0,2.3.39,2.3.87s-1.53.86-2.3.86c-1.35,0-1.94-.45-1.94-.86S238.69,241.7,240,241.7Z"/><path class="cls-3" d="M256.61,253.31c-.37-.68-.76-2.21-.34-2.44s1.49.93,1.85,1.61c.65,1.19.53,1.93.17,2.12S257.24,254.47,256.61,253.31Z"/><path class="cls-3" d="M246.92,231.83c.37.68.76,2.21.34,2.43s-1.48-.93-1.85-1.61c-.65-1.19-.53-1.92-.17-2.12S246.29,230.66,246.92,231.83Z"/><path class="cls-3" d="M258.61,233c-.4.66-1.53,1.77-1.94,1.53s.06-1.76.46-2.42c.7-1.16,1.4-1.43,1.75-1.21S259.3,231.84,258.61,233Z"/><path class="cls-3" d="M244.93,252.16c.4-.66,1.52-1.77,1.93-1.52s-.06,1.75-.46,2.41c-.7,1.16-1.39,1.43-1.74,1.22S244.24,253.29,244.93,252.16Z"/><path class="cls-3" d="M261.4,249.35c-.66-.4-1.78-1.52-1.53-1.93s1.75.05,2.42.45c1.16.69,1.43,1.38,1.22,1.74S262.54,250,261.4,249.35Z"/><path class="cls-3" d="M242.13,235.79c.67.39,1.78,1.51,1.54,1.92s-1.76-.05-2.42-.44c-1.16-.7-1.44-1.39-1.23-1.74S241,235.1,242.13,235.79Z"/><path class="cls-3" d="M250.4,254.27c0-.77.48-2.29,1-2.27s.79,1.57.76,2.34c-.06,1.35-.53,1.92-1,1.9S250.34,255.59,250.4,254.27Z"/><path class="cls-3" d="M253.14,230.87c0,.77-.49,2.28-1,2.26s-.8-1.57-.77-2.34c.06-1.35.54-1.92,1-1.9S253.19,229.54,253.14,230.87Z"/><path class="cls-3" d="M262.56,237.86c-.68.36-2.21.73-2.44.31s1-1.48,1.64-1.84c1.2-.63,1.93-.5,2.12-.14S263.74,237.24,262.56,237.86Z"/><path class="cls-3" d="M241,247.28c.68-.36,2.22-.73,2.44-.31s-.95,1.47-1.64,1.83c-1.19.63-1.93.51-2.12.15S239.8,247.89,241,247.28Z"/><path class="cls-1" d="M56.33,410.49A11,11,0,0,1,50.78,409c-3.41-2-5.48-5.75-5.69-10.35A23.73,23.73,0,0,1,47.44,388c-11.41-1.14-16.56-7.34-16.56-13.5,0-5.89,5.12-12.2,16.27-13.45-4.7-10.24-2-17.75,3.22-20.88a11,11,0,0,1,5.6-1.5c5.2,0,10.44,3.3,14.72,9.17,5.67-8.08,11.53-9.38,14.71-9.38a11,11,0,0,1,5.54,1.47c3.41,2,5.49,5.75,5.7,10.35A23.88,23.88,0,0,1,94.28,361c11.41,1.14,16.57,7.34,16.57,13.49,0,5.9-5.13,12.2-16.28,13.46A23.26,23.26,0,0,1,97,398.45c-.18,4.55-2.22,8.32-5.61,10.34a11,11,0,0,1-5.61,1.5c-5.19,0-10.44-3.3-14.72-9.17C65.37,409.2,59.5,410.49,56.33,410.49Z"/><path class="cls-2" d="M52,406.18a11.07,11.07,0,0,1-5.54-1.46c-3.41-2-5.49-5.76-5.7-10.36a24,24,0,0,1,2.35-10.73c-11.4-1.14-16.56-7.34-16.56-13.49,0-5.9,5.13-12.2,16.28-13.45-4.7-10.25-2-17.76,3.21-20.89a11,11,0,0,1,5.6-1.5c5.2,0,10.45,3.3,14.73,9.17,5.66-8.08,11.53-9.37,14.7-9.37a11,11,0,0,1,5.54,1.46c3.41,2,5.49,5.75,5.7,10.35A23.9,23.9,0,0,1,90,356.65c11.41,1.14,16.56,7.34,16.56,13.49,0,5.9-5.12,12.2-16.27,13.45a23.28,23.28,0,0,1,2.39,10.55c-.17,4.54-2.22,8.31-5.61,10.33a10.88,10.88,0,0,1-5.6,1.51c-5.2,0-10.45-3.3-14.73-9.17C61.05,404.88,55.18,406.18,52,406.18Z"/><path class="cls-3" d="M78,371c-.78,0-2.31-.38-2.31-.86s1.53-.86,2.31-.86c1.35,0,1.94.45,1.94.86S79.27,371,78,371Z"/><path class="cls-4" d="M101.35,370.14c0-4.07-4.63-8.5-15.25-8.5a28.32,28.32,0,0,0-6.36.9,27.89,27.89,0,0,0,4-5c5.24-9,3.83-15.42.31-17.46s-9.67-.26-15,8.92a28.66,28.66,0,0,0-2.56,6.43,29.2,29.2,0,0,0-2.64-6.4c-5.34-8.95-11.62-10.82-15.11-8.74s-4.93,8.33.52,17.45a26.93,26.93,0,0,0,3.8,4.76,27.91,27.91,0,0,0-6-.82c-10.42,0-15.25,4.43-15.25,8.5s4.63,8.5,15.25,8.5a28.32,28.32,0,0,0,6.36-.9,28,28,0,0,0-4,5c-5.23,9-3.83,15.42-.31,17.46s9.67.26,15-8.92a29.54,29.54,0,0,0,2.56-6.44,28.34,28.34,0,0,0,2.63,6.4c5.34,9,11.62,10.83,15.12,8.75s4.92-8.34-.53-17.46a27.67,27.67,0,0,0-3.8-4.76,27.37,27.37,0,0,0,6,.83C96.52,378.64,101.35,374.2,101.35,370.14Zm-34.79,1.91a2.87,2.87,0,0,0-.75-.64,2.78,2.78,0,0,0-.9-.33,2.79,2.79,0,0,0,.17-.94,2.92,2.92,0,0,0-.16-.92,3,3,0,0,0,.88-.34,2.82,2.82,0,0,0,.73-.65,3,3,0,0,0,.75.64,3.14,3.14,0,0,0,.9.33,3.05,3.05,0,0,0-.17.94,2.92,2.92,0,0,0,.16.92,3,3,0,0,0-.87.34A3,3,0,0,0,66.56,372.05Z"/><path class="cls-5" d="M66.28,378a7.81,7.81,0,1,1,7.82-7.81A7.81,7.81,0,0,1,66.28,378Z"/><path class="cls-3" d="M54.45,369.28c.77,0,2.3.38,2.3.86s-1.53.86-2.3.86c-1.35,0-1.94-.45-1.94-.86S53.12,369.28,54.45,369.28Z"/><path class="cls-3" d="M71,380.88c-.37-.68-.76-2.21-.34-2.44s1.49.94,1.85,1.62c.65,1.18.53,1.92.17,2.11S71.67,382,71,380.88Z"/><path class="cls-3" d="M61.35,359.4c.37.68.76,2.21.34,2.43s-1.48-.93-1.85-1.61c-.65-1.19-.53-1.92-.17-2.12S60.72,358.23,61.35,359.4Z"/><path class="cls-3" d="M73,360.55c-.4.66-1.53,1.76-1.94,1.52s.06-1.76.46-2.42c.7-1.15,1.4-1.42,1.75-1.21S73.73,359.41,73,360.55Z"/><path class="cls-3" d="M59.36,379.73c.4-.66,1.52-1.77,1.93-1.52s-.06,1.76-.46,2.42c-.7,1.15-1.39,1.42-1.74,1.21S58.67,380.87,59.36,379.73Z"/><path class="cls-3" d="M75.83,376.92c-.66-.4-1.78-1.52-1.53-1.92s1.75,0,2.42.44c1.16.7,1.43,1.39,1.22,1.74S77,377.6,75.83,376.92Z"/><path class="cls-3" d="M56.56,363.36c.67.4,1.78,1.51,1.54,1.92s-1.76,0-2.42-.44c-1.16-.7-1.44-1.39-1.23-1.74S55.43,362.68,56.56,363.36Z"/><path class="cls-3" d="M64.83,381.84c0-.77.48-2.29,1-2.26s.79,1.56.76,2.33c-.06,1.35-.53,1.92-.94,1.91S64.77,383.16,64.83,381.84Z"/><path class="cls-3" d="M67.57,358.44c0,.77-.49,2.28-1,2.26s-.8-1.57-.77-2.34c.06-1.35.54-1.92,1-1.9S67.62,357.11,67.57,358.44Z"/><path class="cls-3" d="M77,365.43c-.68.36-2.21.73-2.44.31s1-1.48,1.64-1.84c1.2-.63,1.93-.5,2.12-.14S78.17,364.81,77,365.43Z"/><path class="cls-3" d="M55.4,374.85c.68-.36,2.22-.73,2.44-.31s-1,1.47-1.64,1.84c-1.19.62-1.93.5-2.12.14S54.23,375.47,55.4,374.85Z"/><polyline class="cls-6" points="492.95 286.21 492.95 292.21 486.95 292.21"/><line class="cls-7" x1="475.11" y1="292.21" x2="30.97" y2="292.21"/><polyline class="cls-6" points="25.05 292.21 19.05 292.21 19.05 286.21"/><line class="cls-8" x1="19.05" y1="274.3" x2="19.05" y2="113.46"/><polyline class="cls-6" points="19.05 107.5 19.05 101.5 25.05 101.5"/><line class="cls-7" x1="36.89" y1="101.51" x2="481.03" y2="101.51"/><polyline class="cls-6" points="486.95 101.5 492.95 101.5 492.95 107.5"/><line class="cls-8" x1="492.95" y1="119.42" x2="492.95" y2="280.25"/></svg>