<svg id="Layer_1" data-name="Layer 1" xmlns="http://www.w3.org/2000/svg" viewBox="0 0 512 512"><defs><style>.cls-1{opacity:0.5;}.cls-2{fill:#fff;}.cls-3{fill:#606060;}.cls-4{fill:#ecd18a;stroke:#bc0000;stroke-miterlimit:10;stroke-width:2px;}.cls-5{fill:#dd2f32;}.cls-6{fill:#99764a;}.cls-7{fill:#4b0f32;}.cls-8{fill:#33312f;}.cls-9{fill:#54514e;}.cls-10{fill:#8c0b0e;}.cls-11{fill:#a60d10;}.cls-12{fill:#3a0004;}</style></defs><path class="cls-1" d="M116.48,251c-14,0-40.26-3-49.44-11.78a8.36,8.36,0,0,1-5.34,1.66c-5.29,0-7.7-3.42-7.7-6.59a6.34,6.34,0,0,1,.75-2.95,6.48,6.48,0,0,1-.67-2.83A6.84,6.84,0,0,1,59.54,222c3.35-8.24,6.44-22.3,8-30.92l-.48-1.81,1-1.14.7-4.73,3,.51,1.11-1.26,1.55-1.78L76,179l1.57-1.85,1.61-1.92,1.62-2,1.68-2,1.5-1.85,1.58-2,1.63-2.06,2.53-3.23,1.49-2,1.47-1.94,1.44-1.93c.44-.58,1.42-1.91,1.42-1.91l1.37-1.89,5,3.42L97,152.4l1.41-2,1.43-2,1.43-2.07,1.2-1.78,1.15-1.74,1.06-1.65.94-1.52L106,139l.83-1.4.82-1.44a8.07,8.07,0,0,1-.14-1.48,7.73,7.73,0,1,1,15.46,0c0,.17,0,.35,0,.52l0,0c6,10.37,18.38,31.49,36.45,48.76l2.47-.78,1.39,4.35.64.58,0,1.3c2.34,7.29,8.44,25.07,13.41,35.11,3.68.58,6.3,3.28,6.3,6.72a6.6,6.6,0,0,1-.88,3.26,6.32,6.32,0,0,1,.54,2.52c0,3.17-2.41,6.59-7.7,6.59s-7.71-3.42-7.71-6.59a6.8,6.8,0,0,1,.07-.89C162.58,246.38,136,251,116.48,251Z"/><path class="cls-2" d="M111.43,246c-14,0-40.26-3-49.44-11.79a8.3,8.3,0,0,1-5.34,1.66c-5.29,0-7.7-3.41-7.7-6.58a6.19,6.19,0,0,1,.75-2.95,6.55,6.55,0,0,1-.67-2.83,6.84,6.84,0,0,1,5.46-6.55c3.35-8.24,6.44-22.31,8-30.93L62,184.2l1-1.14.7-4.73,3,.51,1.12-1.27,1.55-1.77L70.94,174l1.56-1.85,1.62-1.92,1.62-1.95,1.68-2.05,1.49-1.85,1.59-2,1.63-2.06,2.52-3.24,1.5-1.94,1.47-1.94,1.44-1.93,1.41-1.92q.7-.95,1.38-1.89l5,3.43-4.91-3.55,1.41-2,1.43-2,1.42-2.07,1.2-1.78,1.15-1.74,1.06-1.65,1-1.53.37-.6.84-1.4.82-1.44a8.15,8.15,0,0,1-.14-1.48,7.73,7.73,0,1,1,15.45,0c0,.17,0,.34,0,.52v0c6.06,10.38,18.39,31.5,36.46,48.77l2.47-.78,1.38,4.34.65.59-.05,1.3c2.34,7.29,8.44,25.06,13.41,35.1,3.68.59,6.3,3.29,6.3,6.73a6.5,6.5,0,0,1-.88,3.26,6.15,6.15,0,0,1,.54,2.52c0,3.17-2.41,6.58-7.7,6.58s-7.7-3.41-7.7-6.58a5.42,5.42,0,0,1,.07-.89C157.52,241.33,130.91,246,111.43,246Z"/><path class="cls-1" d="M64.78,227.35c0,5.26,21,12.55,46.65,12.55s46.3-7.29,46.3-12.55-20.81-9.51-46.48-9.51S64.78,222.1,64.78,227.35Z"/><path class="cls-3" d="M170.33,229l.32-.26c-6.79-8.56-17.65-42.62-17.76-43l-.4.13C152.6,186.25,163.49,220.38,170.33,229Z"/><path class="cls-3" d="M57.15,225.69c6.57-8.5,12-40,12.05-40.28l-.41-.07c-.05.32-5.46,31.68-12,40.09Z"/><path class="cls-4" d="M68.8,186.08c1.8,7.57,2.57,28,.94,40.58,1.94.75,3.92,1.44,5.93,2.05a108.69,108.69,0,0,0,17.6,3.74c2.73.35,5.46.61,8.17.8a149.86,149.86,0,0,0,15.07.24c5.11-.16,10-.57,14.47-1.14a110.4,110.4,0,0,0,17.57-3.53,34.58,34.58,0,0,0,5.6-2.16c-3.15-6.67-1.82-34.28-1.51-39.94,0-.42,0-.71.05-.88s0-.14,0-.14c-23-20.89-37.24-48-42.41-56.48l-.07.18c-4.66,11.21-25,38.07-41.22,56l-.29.32Z"/><path class="cls-5" d="M146,189c0,17.07-1.65,27.86,2.51,39.78h0a34.58,34.58,0,0,0,5.6-2.16c-3.52-7.44-1.45-41-1.45-41-23-20.89-37.24-48-42.41-56.48l-.07.18C112.31,135.41,126.33,173.9,146,189Z"/><path class="cls-5" d="M101.44,233.25a155.44,155.44,0,0,0,29.54-.9h0s-3.11-21.62-1.86-38.58c-6.42-20.07-12.62-28.14-18.83-64.55-2.48,20.69-6.41,56.07-10.14,64.14C102,203.3,102.21,227.16,101.44,233.25Z"/><path class="cls-5" d="M69.74,226.66c1.94.75,3.92,1.44,5.93,2.05,0,0,4.21-15.7,1.93-40C89,172.88,106.36,151,110.29,129.22c-4.55,11.18-25.24,38.48-41.58,56.48C70.57,192.94,71.4,213.84,69.74,226.66Z"/><path class="cls-6" d="M68.71,185.7l.09.38.35.19c.24.12.48.25.73.36l1.47.71.74.35.75.32,1.51.63.75.32.77.28,1.53.56.77.28.38.14.39.13,3.12,1,.39.12.4.11,2.37.62,1.58.42,1.59.35,3.2.68,3.22.54,1.61.28c.27.05.54.08.81.12l.81.1,2.44.31.8.09.81.1.81.09,1.63.13c2.17.17,4.33.38,6.52.44a93.83,93.83,0,0,0,13.09-.4l1.63-.19.81-.1.81-.12,1.62-.24.42-.07,1.2-.21.81-.14.8-.16,1.6-.34,1.6-.38.79-.2.79-.22a67.79,67.79,0,0,0,9.13-3.13c1.06-.45,2.1-.92,3.13-1.42s2.26-1.15,3.36-1.78c0-.42,0-.71.05-.88-1.25.63-2.53,1.21-3.83,1.74-1,.44-2.07.84-3.12,1.23s-1.94.67-2.92,1l-.76.24-.77.23c-.52.15-1,.31-1.55.45l-1.55.41-1.56.37q-3.85.9-7.79,1.44a100.82,100.82,0,0,1-17.71.82c-2.14-.05-4.28-.25-6.43-.4l-1.61-.12c-.26,0-.53,0-.8-.07l-.8-.09-1.22-.13-2-.22-.8-.09a7.28,7.28,0,0,1-.8-.1l-1.59-.23-3.19-.47-3.16-.59L87.16,191l-1.57-.36L84,190.25l-.78-.18-.4-.08-.39-.11-3.11-.83L79,189l-.38-.12-.77-.24-1.54-.47-.77-.24-.75-.27-1.52-.54-.76-.27-2.25-.89-.74-.32-.47-.21Z"/><circle class="cls-7" cx="110.18" cy="129.65" r="1.66"/><path class="cls-1" d="M168.84,232c0,.29.74.52,1.64.52s1.64-.23,1.64-.52-.73-.52-1.64-.52S168.84,231.74,168.84,232Z"/><path class="cls-8" d="M170.67,232.21h.13a.53.53,0,0,0,.35-.14.51.51,0,0,0,.15-.36v-5.26a.5.5,0,0,0-.18-.39.52.52,0,0,0-.32-.11h-.13a.5.5,0,0,0-.27.08.48.48,0,0,0-.23.42v5.26a.49.49,0,0,0,.19.39A.47.47,0,0,0,170.67,232.21Z"/><ellipse class="cls-9" cx="170.69" cy="226.24" rx="1.77" ry="0.78"/><ellipse class="cls-1" cx="56.65" cy="229.26" rx="1.64" ry="0.52"/><path class="cls-8" d="M56.83,229.45H57a.52.52,0,0,0,.34-.14.48.48,0,0,0,.16-.36v-5.26a.5.5,0,0,0-.18-.39.52.52,0,0,0-.32-.11h-.14a.56.56,0,0,0-.26.07.52.52,0,0,0-.24.43V229a.52.52,0,0,0,.19.39A.51.51,0,0,0,56.83,229.45Z"/><path class="cls-9" d="M55.09,223.48c0,.43.8.78,1.77.78s1.77-.35,1.77-.78-.79-.78-1.77-.78S55.09,223.05,55.09,223.48Z"/><path class="cls-10" d="M145.74,188.81l.3,1.13.11,0c1.06-.45,2.1-.92,3.13-1.42s2.26-1.15,3.36-1.78c0-.42,0-.71.05-.88-1.25.63-2.53,1.21-3.83,1.74C147.83,188,146.79,188.42,145.74,188.81Z"/><path class="cls-10" d="M100.27,192.94l0,.16.16,1.87.8.09.81.1.81.09,1.63.13c2.17.17,4.33.38,6.52.44a93.83,93.83,0,0,0,13.09-.4l1.63-.19.81-.1.81-.12,1.62-.24.42-.07-.15-.15-.44-1.62a100.82,100.82,0,0,1-17.71.82c-2.14-.05-4.28-.25-6.43-.4l-1.61-.12c-.26,0-.53,0-.8-.07l-.8-.09Z"/><path class="cls-10" d="M68.71,185.7l.09.38.35.19c.24.12.48.25.73.36l1.47.71.74.35.75.32,1.51.63.75.32.77.28,1.53.56.4-1.21-1.54-.47-.77-.24-.75-.27-1.52-.54-.76-.27-2.25-.89-.74-.32-.47-.21Z"/><path class="cls-11" d="M69,185.38s-.24,5.31,3.53,7.71,5.27-4.5,5.27-4.5Z"/><path class="cls-11" d="M100.27,192.94S98.41,200.8,89,198.4s-11.18-9.81-11.18-9.81S85.34,191.41,100.27,192.94Z"/><path class="cls-11" d="M100.27,192.94s3.62,7.18,14.42,7,13.57-4.09,14.15-7C128.84,192.93,110.36,195,100.27,192.94Z"/><path class="cls-11" d="M128.84,192.93s4.7,4.44,10.53,3.42,6.37-7.54,6.37-7.54S143.9,190.14,128.84,192.93Z"/><path class="cls-11" d="M152.49,185.91s-1.19,10.48-6.75,2.9A27.28,27.28,0,0,0,152.49,185.91Z"/><path class="cls-12" d="M123.47,209.76a7.72,7.72,0,0,0-15.36,0H108l.48,23.76s5.25,0,7.05,0c2-.05,8-.38,8-.38V209.76Z"/><path class="cls-1" d="M256.22,251c-14,0-40.26-3-49.44-11.78a8.36,8.36,0,0,1-5.34,1.66c-5.29,0-7.7-3.42-7.7-6.59a6.22,6.22,0,0,1,.75-2.95,6.48,6.48,0,0,1-.67-2.83,6.84,6.84,0,0,1,5.46-6.55c3.35-8.24,6.44-22.3,8-30.92l-.48-1.81,1-1.14.7-4.73,3,.51,1.12-1.26,1.55-1.78,1.56-1.81,1.56-1.85,1.62-1.92,1.61-2,1.69-2,1.49-1.85,1.59-2,1.63-2.06,2.52-3.23,1.5-2,1.47-1.94,1.44-1.93,1.41-1.91,1.38-1.89,5,3.42-4.91-3.55,1.41-2,1.43-2,1.42-2.07,1.2-1.78,1.15-1.74,1.06-1.65.95-1.52.37-.61.84-1.4.82-1.44a8.07,8.07,0,0,1-.14-1.48,7.73,7.73,0,1,1,15.45,0c0,.17,0,.35,0,.52v0c6.06,10.37,18.39,31.49,36.46,48.76l2.47-.78,1.38,4.35.65.58,0,1.3c2.34,7.29,8.44,25.07,13.41,35.11,3.68.58,6.3,3.28,6.3,6.72a6.5,6.5,0,0,1-.88,3.26,6.15,6.15,0,0,1,.54,2.52c0,3.17-2.41,6.59-7.7,6.59s-7.7-3.42-7.7-6.59a5.42,5.42,0,0,1,.07-.89C302.31,246.38,275.7,251,256.22,251Z"/><path class="cls-2" d="M251.16,246c-14,0-40.26-3-49.44-11.79a8.27,8.27,0,0,1-5.33,1.66c-5.29,0-7.7-3.41-7.7-6.58a6.19,6.19,0,0,1,.75-2.95,6.55,6.55,0,0,1-.67-2.83,6.83,6.83,0,0,1,5.46-6.55c3.34-8.24,6.44-22.31,8-30.93l-.47-1.8,1-1.14.69-4.73,3,.51,1.12-1.27,1.55-1.77,1.55-1.81,1.57-1.85,1.62-1.92,1.61-1.95,1.68-2.05,1.5-1.85,1.59-2,1.63-2.06,2.52-3.24,1.49-1.94,1.47-1.94,1.44-1.93,1.42-1.92,1.37-1.89,5,3.43-4.92-3.55,1.42-2,1.43-2,1.42-2.07,1.2-1.78,1.15-1.74,1.06-1.65,1-1.53.37-.6.84-1.4.82-1.44a8.15,8.15,0,0,1-.14-1.48,7.73,7.73,0,1,1,15.45,0,4.61,4.61,0,0,1,0,.52l0,0C263.7,140.57,276,161.69,294.1,179l2.47-.78,1.38,4.34.65.59-.05,1.3c2.34,7.29,8.44,25.06,13.41,35.1,3.68.59,6.3,3.29,6.3,6.73a6.5,6.5,0,0,1-.88,3.26,6.15,6.15,0,0,1,.54,2.52c0,3.17-2.41,6.58-7.7,6.58s-7.7-3.41-7.7-6.58a6.77,6.77,0,0,1,.06-.89C297.26,241.33,270.65,246,251.16,246Z"/><path class="cls-1" d="M204.51,227.35c0,5.26,21,12.55,46.65,12.55s46.31-7.29,46.31-12.55-20.81-9.51-46.48-9.51S204.51,222.1,204.51,227.35Z"/><path class="cls-3" d="M310.07,229l.32-.26c-6.79-8.56-17.66-42.62-17.76-43l-.4.13C292.34,186.25,303.23,220.38,310.07,229Z"/><path class="cls-3" d="M196.88,225.69c6.58-8.5,12-40,12.06-40.28l-.41-.07c-.05.32-5.46,31.68-12,40.09Z"/><path class="cls-4" d="M208.54,186.08c1.79,7.57,2.56,28,.94,40.58,1.94.75,3.92,1.44,5.93,2.05a108.24,108.24,0,0,0,17.6,3.74c2.73.35,5.46.61,8.17.8a149.82,149.82,0,0,0,15.07.24c5.11-.16,10-.57,14.46-1.14a110.16,110.16,0,0,0,17.57-3.53,33.86,33.86,0,0,0,5.6-2.16c-3.15-6.67-1.81-34.28-1.5-39.94,0-.42,0-.71.05-.88a.79.79,0,0,1,0-.14c-23-20.89-37.24-48-42.41-56.48l-.08.18c-4.66,11.21-25,38.07-41.21,56l-.3.32C208.47,185.82,208.51,186,208.54,186.08Z"/><path class="cls-5" d="M285.78,189c0,17.07-1.65,27.86,2.5,39.78h0a33.86,33.86,0,0,0,5.6-2.16c-3.51-7.44-1.44-41-1.44-41-23-20.89-37.24-48-42.41-56.48l-.08.18C252.05,135.41,266.07,173.9,285.78,189Z"/><path class="cls-5" d="M241.18,233.25a155.3,155.3,0,0,0,29.53-.9h0s-3.1-21.62-1.86-38.58c-6.41-20.07-12.62-28.14-18.82-64.55-2.49,20.69-6.42,56.07-10.14,64.14C241.72,203.3,242,227.16,241.18,233.25Z"/><path class="cls-5" d="M209.48,226.66c1.94.75,3.92,1.44,5.93,2.05,0,0,4.21-15.7,1.93-40C228.72,172.88,246.1,151,250,129.22c-4.55,11.18-25.24,38.48-41.59,56.48C210.31,192.94,211.13,213.84,209.48,226.66Z"/><path class="cls-6" d="M208.44,185.7c0,.12.07.25.1.38l.35.19c.24.12.48.25.72.36l1.48.71.74.35.75.32,1.5.63.76.32.76.28,1.54.56.77.28.38.14.39.13,3.12,1,.39.12.39.11,2.37.62,1.59.42,1.59.35,3.2.68,3.22.54,1.61.28c.27.05.54.08.81.12l.81.1,2.44.31.8.09.81.1.81.09,1.63.13c2.17.17,4.33.38,6.52.44a93.83,93.83,0,0,0,13.09-.4l1.63-.19.81-.1.81-.12,1.62-.24.41-.07,1.21-.21.8-.14.81-.16,1.6-.34,1.59-.38.8-.2.79-.22a68.27,68.27,0,0,0,9.13-3.13c1.06-.45,2.1-.92,3.13-1.42s2.26-1.15,3.36-1.78c0-.42,0-.71.05-.88-1.26.63-2.53,1.21-3.83,1.74-1,.44-2.07.84-3.13,1.23s-1.93.67-2.91,1l-.77.24-.76.23c-.52.15-1,.31-1.55.45l-1.55.41-1.56.37q-3.87.9-7.79,1.44a100.89,100.89,0,0,1-17.72.82c-2.13-.05-4.28-.25-6.42-.4l-1.61-.12c-.27,0-.53,0-.8-.07l-.8-.09-1.22-.13-2-.22-.8-.09a7,7,0,0,1-.8-.1l-1.59-.23-3.19-.47-3.17-.59L226.9,191l-1.57-.36-1.57-.35-.79-.18-.39-.08-.39-.11-3.11-.83-.39-.1-.38-.12-.77-.24-1.54-.47-.77-.24-.76-.27-1.52-.54-.76-.27-2.24-.89-.74-.32-.47-.21Z"/><circle class="cls-7" cx="249.91" cy="129.65" r="1.66"/><path class="cls-1" d="M308.58,232c0,.29.74.52,1.64.52s1.64-.23,1.64-.52-.74-.52-1.64-.52S308.58,231.74,308.58,232Z"/><path class="cls-8" d="M310.4,232.21h.14a.52.52,0,0,0,.34-.14.48.48,0,0,0,.16-.36v-5.26a.5.5,0,0,0-.18-.39.52.52,0,0,0-.32-.11h-.14a.47.47,0,0,0-.26.08.49.49,0,0,0-.24.42v5.26a.52.52,0,0,0,.19.39A.51.51,0,0,0,310.4,232.21Z"/><ellipse class="cls-9" cx="310.43" cy="226.24" rx="1.77" ry="0.78"/><ellipse class="cls-1" cx="196.39" cy="229.26" rx="1.64" ry="0.52"/><path class="cls-8" d="M196.57,229.45h.14a.52.52,0,0,0,.34-.14.48.48,0,0,0,.16-.36v-5.26a.48.48,0,0,0-.19-.39.47.47,0,0,0-.31-.11h-.14a.6.6,0,0,0-.27.07.51.51,0,0,0-.23.43V229a.5.5,0,0,0,.5.5Z"/><path class="cls-9" d="M194.83,223.48c0,.43.79.78,1.77.78s1.77-.35,1.77-.78-.8-.78-1.77-.78S194.83,223.05,194.83,223.48Z"/><path class="cls-10" d="M285.47,188.81l.3,1.13.12,0c1.06-.45,2.1-.92,3.13-1.42s2.26-1.15,3.36-1.78c0-.42,0-.71.05-.88-1.26.63-2.53,1.21-3.83,1.74C287.57,188,286.53,188.42,285.47,188.81Z"/><path class="cls-10" d="M240,192.94l.05.16.16,1.87.8.09.81.1.81.09,1.63.13c2.17.17,4.33.38,6.52.44a93.83,93.83,0,0,0,13.09-.4l1.63-.19.81-.1.81-.12,1.62-.24.41-.07-.14-.15-.44-1.62a100.89,100.89,0,0,1-17.72.82c-2.13-.05-4.28-.25-6.42-.4l-1.61-.12c-.27,0-.53,0-.8-.07l-.8-.09Z"/><path class="cls-10" d="M208.44,185.7c0,.12.07.25.1.38l.35.19c.24.12.48.25.72.36l1.48.71.74.35.75.32,1.5.63.76.32.76.28,1.54.56.4-1.21-1.54-.47-.77-.24-.76-.27-1.52-.54-.76-.27-2.24-.89-.74-.32-.47-.21Z"/><path class="cls-11" d="M208.74,185.38s-.25,5.31,3.52,7.71,5.28-4.5,5.28-4.5Z"/><path class="cls-11" d="M240,192.94s-1.87,7.86-11.29,5.46-11.18-9.81-11.18-9.81S225.08,191.41,240,192.94Z"/><path class="cls-11" d="M240,192.94s3.62,7.18,14.42,7,13.56-4.09,14.15-7C268.58,192.93,250.1,195,240,192.94Z"/><path class="cls-11" d="M268.58,192.93s4.7,4.44,10.53,3.42,6.36-7.54,6.36-7.54S283.64,190.14,268.58,192.93Z"/><path class="cls-11" d="M292.23,185.91s-1.19,10.48-6.76,2.9A27.27,27.27,0,0,0,292.23,185.91Z"/><path class="cls-12" d="M263.21,209.76a7.72,7.72,0,0,0-15.36,0h-.1l.48,23.76s5.25,0,7.05,0c2-.05,8-.38,8-.38V209.76Z"/><path class="cls-1" d="M396,251c-14,0-40.26-3-49.44-11.78a8.33,8.33,0,0,1-5.33,1.66c-5.29,0-7.7-3.42-7.7-6.59a6.22,6.22,0,0,1,.75-2.95,6.48,6.48,0,0,1-.67-2.83A6.83,6.83,0,0,1,339,222c3.35-8.24,6.44-22.31,8-30.92l-.45-1.73,1-1.2.82-4.71,2.85.48,1.13-1.27,1.54-1.78,1.56-1.81,1.57-1.85,1.62-1.92,1.61-2,1.68-2,1.5-1.85,1.59-2,1.63-2.06,1.69-2.16,2.32-3,1.47-1.94,1.42-1.9,1.44-1.94,1.37-1.89,5,3.42-4.92-3.55,1.42-2,1.44-2.05,1.41-2.06,1.2-1.78,1.13-1.7.5-.78,1-1.55.92-1.49.83-1.38.83-1.46a7.28,7.28,0,0,1-.14-1.48,7.73,7.73,0,1,1,15.45,0,4.52,4.52,0,0,1,0,.52l0,0c6.06,10.37,18.38,31.49,36.46,48.76l2.47-.78,1.38,4.35.65.58-.05,1.3c2.34,7.29,8.44,25.07,13.41,35.11,3.68.58,6.3,3.28,6.3,6.72a6.5,6.5,0,0,1-.88,3.26,6.32,6.32,0,0,1,.54,2.52c0,3.17-2.41,6.59-7.7,6.59s-7.7-3.42-7.7-6.59a6.77,6.77,0,0,1,.06-.89C442.05,246.38,415.44,251,396,251Z"/><path class="cls-2" d="M390.9,246c-14,0-40.26-3-49.44-11.79a8.3,8.3,0,0,1-5.34,1.66c-5.29,0-7.7-3.41-7.7-6.58a6.2,6.2,0,0,1,.76-2.95,6.42,6.42,0,0,1-.68-2.83,6.84,6.84,0,0,1,5.46-6.55c3.35-8.25,6.45-22.31,8-30.93l-.45-1.72,1-1.21.82-4.7,2.85.48,1.12-1.28,1.55-1.77,1.56-1.81,1.57-1.85,1.61-1.92,1.62-1.95,1.68-2.05,1.5-1.85,1.59-2,1.62-2.06,1.7-2.17,2.32-3,1.47-1.94,1.42-1.9,1.44-1.95,1.37-1.89,5,3.43-4.92-3.55,1.42-2,1.43-2,1.42-2.06,1.2-1.78,1.12-1.71.51-.78,1-1.54.92-1.49.82-1.39.84-1.45a7.36,7.36,0,0,1-.15-1.48,7.73,7.73,0,0,1,15.46,0c0,.17,0,.34,0,.52l0,0c6.05,10.38,18.38,31.5,36.45,48.77l2.48-.78,1.38,4.34.64.59,0,1.3c2.34,7.29,8.44,25.06,13.41,35.1,3.68.59,6.3,3.29,6.3,6.73a6.6,6.6,0,0,1-.88,3.26,6.32,6.32,0,0,1,.54,2.52c0,3.17-2.41,6.58-7.7,6.58s-7.7-3.41-7.7-6.58a6.77,6.77,0,0,1,.06-.89C437,241.33,410.38,246,390.9,246Z"/><path class="cls-1" d="M344.25,227.35c0,5.26,21,12.55,46.65,12.55s46.31-7.29,46.31-12.55-20.81-9.51-46.48-9.51S344.25,222.1,344.25,227.35Z"/><path class="cls-3" d="M449.8,229l.33-.26c-6.8-8.56-17.66-42.62-17.77-43l-.39.13C432.08,186.25,443,220.38,449.8,229Z"/><path class="cls-3" d="M336.62,225.69c6.58-8.5,12-40,12.06-40.28l-.41-.07c-.06.32-5.46,31.68-12,40.09Z"/><path class="cls-4" d="M348.27,186.08c1.8,7.57,2.57,28,1,40.58,1.94.75,3.92,1.44,5.92,2.05a108.59,108.59,0,0,0,17.61,3.74c2.72.35,5.45.61,8.16.8a149.86,149.86,0,0,0,15.07.24c5.11-.16,10-.57,14.47-1.14A110.16,110.16,0,0,0,428,228.82a33.86,33.86,0,0,0,5.6-2.16c-3.15-6.67-1.82-34.28-1.5-39.94,0-.42,0-.71,0-.88s0-.14,0-.14c-23-20.89-37.23-48-42.41-56.48a1.34,1.34,0,0,1-.07.18c-4.66,11.21-25,38.07-41.22,56l-.29.32Z"/><path class="cls-5" d="M425.51,189c0,17.07-1.65,27.86,2.51,39.78h0a33.86,33.86,0,0,0,5.6-2.16c-3.52-7.44-1.45-41-1.45-41-23-20.89-37.23-48-42.41-56.48a1.34,1.34,0,0,1-.07.18C391.79,135.41,405.8,173.9,425.51,189Z"/><path class="cls-5" d="M380.91,233.25a155.38,155.38,0,0,0,29.54-.9h0s-3.1-21.62-1.86-38.58c-6.41-20.07-12.62-28.14-18.83-64.55-2.48,20.69-6.41,56.07-10.13,64.14C381.45,203.3,381.69,227.16,380.91,233.25Z"/><path class="cls-5" d="M349.22,226.66c1.94.75,3.92,1.44,5.92,2.05,0,0,4.21-15.7,1.94-40,11.37-15.82,28.75-37.75,32.68-59.48-4.55,11.18-25.24,38.48-41.58,56.48C350,192.94,350.87,213.84,349.22,226.66Z"/><path class="cls-6" d="M348.18,185.7l.09.38.35.19c.24.12.48.25.73.36l1.47.71.74.35.75.32,1.51.63.76.32.76.28,1.54.56.76.28.39.14.39.13,3.12,1,.39.12.39.11,2.37.62,1.58.42,1.6.35,3.2.68,3.22.54,1.61.28.81.12.8.1L380,195l.8.09.81.1.81.09,1.62.13c2.17.17,4.34.38,6.52.44a93.74,93.74,0,0,0,13.09-.4l1.63-.19.81-.1.82-.12,1.62-.24.41-.07,1.2-.21.81-.14.8-.16,1.61-.34,1.59-.38.8-.2.79-.22a68.27,68.27,0,0,0,9.13-3.13c1.05-.45,2.1-.92,3.13-1.42s2.25-1.15,3.36-1.78c0-.42,0-.71.05-.88-1.26.63-2.54,1.21-3.83,1.74-1,.44-2.08.84-3.13,1.23s-1.93.67-2.91,1l-.77.24-.77.23c-.51.15-1,.31-1.54.45l-1.56.41-1.56.37c-2.57.6-5.17,1.08-7.78,1.44a100.89,100.89,0,0,1-17.72.82c-2.14-.05-4.28-.25-6.42-.4l-1.61-.12c-.27,0-.54,0-.8-.07l-.8-.09-1.22-.13-2-.22-.8-.09a7.11,7.11,0,0,1-.79-.1l-1.6-.23-3.19-.47-3.16-.59-1.58-.28-1.57-.36-1.57-.35-.79-.18-.39-.08-.39-.11-3.11-.83-.39-.1-.39-.12-.76-.24-1.54-.47-.77-.24-.76-.27-1.52-.54-.76-.27-2.25-.89-.74-.32-.47-.21Z"/><circle class="cls-7" cx="389.65" cy="129.65" r="1.66"/><path class="cls-1" d="M448.32,232c0,.29.73.52,1.64.52s1.63-.23,1.63-.52-.73-.52-1.63-.52S448.32,231.74,448.32,232Z"/><path class="cls-8" d="M450.14,232.21h.14a.52.52,0,0,0,.34-.14.48.48,0,0,0,.16-.36v-5.26a.48.48,0,0,0-.19-.39.47.47,0,0,0-.31-.11h-.14a.5.5,0,0,0-.27.08.48.48,0,0,0-.23.42v5.26a.49.49,0,0,0,.19.39A.47.47,0,0,0,450.14,232.21Z"/><ellipse class="cls-9" cx="450.17" cy="226.24" rx="1.77" ry="0.78"/><ellipse class="cls-1" cx="336.12" cy="229.26" rx="1.64" ry="0.52"/><path class="cls-8" d="M336.31,229.45h.14a.52.52,0,0,0,.34-.14A.48.48,0,0,0,337,229v-5.26a.51.51,0,0,0-.19-.39.47.47,0,0,0-.31-.11h-.14a.6.6,0,0,0-.27.07.51.51,0,0,0-.23.43V229a.49.49,0,0,0,.19.39A.47.47,0,0,0,336.31,229.45Z"/><path class="cls-9" d="M334.57,223.48c0,.43.79.78,1.77.78s1.76-.35,1.76-.78-.79-.78-1.76-.78S334.57,223.05,334.57,223.48Z"/><path class="cls-10" d="M425.21,188.81l.3,1.13.12,0c1.05-.45,2.1-.92,3.13-1.42s2.25-1.15,3.36-1.78c0-.42,0-.71.05-.88-1.26.63-2.54,1.21-3.83,1.74C427.31,188,426.26,188.42,425.21,188.81Z"/><path class="cls-10" d="M379.75,192.94l0,.16L380,195l.8.09.81.1.81.09,1.62.13c2.17.17,4.34.38,6.52.44a93.74,93.74,0,0,0,13.09-.4l1.63-.19.81-.1.82-.12,1.62-.24.41-.07-.15-.15-.43-1.62a100.89,100.89,0,0,1-17.72.82c-2.14-.05-4.28-.25-6.42-.4l-1.61-.12c-.27,0-.54,0-.8-.07l-.8-.09Z"/><path class="cls-10" d="M348.18,185.7l.09.38.35.19c.24.12.48.25.73.36l1.47.71.74.35.75.32,1.51.63.76.32.76.28,1.54.56.4-1.21-1.54-.47-.77-.24-.76-.27-1.52-.54-.76-.27-2.25-.89-.74-.32-.47-.21Z"/><path class="cls-11" d="M348.47,185.38s-.24,5.31,3.53,7.71,5.28-4.5,5.28-4.5Z"/><path class="cls-11" d="M379.75,192.94s-1.87,7.86-11.3,5.46-11.17-9.81-11.17-9.81S364.82,191.41,379.75,192.94Z"/><path class="cls-11" d="M379.75,192.94s3.62,7.18,14.41,7,13.57-4.09,14.16-7C408.32,192.93,389.84,195,379.75,192.94Z"/><path class="cls-11" d="M408.32,192.93s4.7,4.44,10.52,3.42,6.37-7.54,6.37-7.54S423.38,190.14,408.32,192.93Z"/><path class="cls-11" d="M432,185.91s-1.19,10.48-6.76,2.9A27.27,27.27,0,0,0,432,185.91Z"/><path class="cls-12" d="M402.94,209.76a7.72,7.72,0,0,0-15.35,0h-.1l.48,23.76s5.24,0,7,0c2-.05,8-.38,8-.38V209.76Z"/><path class="cls-1" d="M116.48,390.08c-14,0-40.26-3-49.44-11.78A8.36,8.36,0,0,1,61.7,380c-5.29,0-7.7-3.41-7.7-6.58a6.35,6.35,0,0,1,.75-3,6.48,6.48,0,0,1-.67-2.83A6.84,6.84,0,0,1,59.54,361c3.35-8.24,6.44-22.3,8-30.92l-.48-1.81,1-1.14.7-4.73,3,.51,1.11-1.26,1.55-1.78L76,318.1l1.57-1.84,1.61-1.93,1.62-1.95,1.68-2.05,1.5-1.85,1.58-2,1.63-2.06L89,302.1l2.19-2.84,1.47-1.94,1.44-1.93c.44-.58,1.37-1.85,1.37-1.85L97,291.43l1.37-1.93c.39-.54,1.44-2.05,1.44-2.05l1.46-2.11,1.19-1.78,1.2-1.81,1.39-2.18.91-1.48.84-1.41.82-1.44a8.07,8.07,0,0,1-.14-1.48,7.73,7.73,0,1,1,15.46,0c0,.17,0,.35,0,.52l0,0c6,10.37,18.38,31.49,36.45,48.76l2.47-.78,1.39,4.35.64.58,0,1.3c2.34,7.29,8.44,25.07,13.41,35.11,3.68.59,6.3,3.28,6.3,6.72a6.6,6.6,0,0,1-.88,3.26,6.33,6.33,0,0,1,.54,2.53c0,3.17-2.41,6.58-7.7,6.58s-7.71-3.41-7.71-6.58a6.54,6.54,0,0,1,.07-.89C162.58,385.45,136,390.08,116.48,390.08Z"/><path class="cls-2" d="M111.43,385c-14,0-40.26-3-49.44-11.79a8.3,8.3,0,0,1-5.34,1.66c-5.29,0-7.7-3.41-7.7-6.58a6.22,6.22,0,0,1,.75-2.95,6.48,6.48,0,0,1-.67-2.83A6.84,6.84,0,0,1,54.49,356c3.35-8.24,6.44-22.3,8-30.92L62,323.26l1-1.14.7-4.73,3,.51,1.12-1.26,1.55-1.78,1.56-1.81,1.56-1.85,1.62-1.92,1.62-1.95,1.68-2.05,1.49-1.85,1.59-2,1.63-2.06L84,297.05l2.19-2.85,1.47-1.93,1.44-1.93,1.37-1.85L92,286.38l1.38-1.93,1.44-2.05,1.45-2.11,1.2-1.78,1.19-1.81,1.4-2.18.91-1.48.84-1.41.82-1.44a8.07,8.07,0,0,1-.14-1.48,7.73,7.73,0,1,1,15.45,0c0,.17,0,.35,0,.52v0c6.06,10.37,18.39,31.49,36.46,48.76l2.47-.78,1.38,4.34.65.59-.05,1.3c2.34,7.29,8.44,25.06,13.41,35.11,3.68.58,6.3,3.28,6.3,6.72a6.5,6.5,0,0,1-.88,3.26,6.15,6.15,0,0,1,.54,2.52c0,3.17-2.41,6.58-7.7,6.58s-7.7-3.41-7.7-6.58a5.42,5.42,0,0,1,.07-.89C157.52,380.39,130.91,385,111.43,385Z"/><path class="cls-1" d="M64.78,366.41c0,5.26,21,12.56,46.65,12.56s46.3-7.3,46.3-12.56-20.81-9.51-46.48-9.51S64.78,361.16,64.78,366.41Z"/><path class="cls-3" d="M170.33,368.06l.32-.26c-6.79-8.56-17.65-42.61-17.76-43l-.4.13C152.6,325.31,163.49,359.44,170.33,368.06Z"/><path class="cls-3" d="M57.15,364.75c6.57-8.5,12-40,12.05-40.27l-.41-.07c-.05.31-5.46,31.67-12,40.08Z"/><path class="cls-4" d="M68.8,325.14c1.8,7.57,2.57,28,.94,40.58q2.91,1.14,5.93,2a108.69,108.69,0,0,0,17.6,3.74c2.73.35,5.46.62,8.17.8a149.92,149.92,0,0,0,15.07.25c5.11-.17,10-.58,14.47-1.15a110.4,110.4,0,0,0,17.57-3.53,34.58,34.58,0,0,0,5.6-2.16c-3.15-6.67-1.82-34.28-1.51-39.94,0-.41,0-.71.05-.87s0-.15,0-.15c-23-20.89-37.24-48-42.41-56.47,0,0-.05.11-.07.17-4.66,11.21-25,38.07-41.22,56l-.29.32Z"/><path class="cls-5" d="M146,328.1c0,17.07-1.65,27.86,2.51,39.78h0a34.58,34.58,0,0,0,5.6-2.16c-3.52-7.44-1.45-41-1.45-41-23-20.89-37.24-48-42.41-56.47,0,0-.05.11-.07.17C112.31,274.47,126.33,313,146,328.1Z"/><path class="cls-5" d="M101.44,372.31a155.44,155.44,0,0,0,29.54-.9h0s-3.11-21.61-1.86-38.58c-6.42-20.07-12.62-28.13-18.83-64.54-2.48,20.68-6.41,56.06-10.14,64.13C102,342.36,102.21,366.22,101.44,372.31Z"/><path class="cls-5" d="M69.74,365.72q2.91,1.14,5.93,2s4.21-15.7,1.93-40C89,311.94,106.36,290,110.29,268.29c-4.55,11.17-25.24,38.47-41.58,56.47C70.57,332,71.4,352.9,69.74,365.72Z"/><path class="cls-6" d="M68.71,324.76l.09.38.35.19.73.37,1.47.7.74.35.75.32,1.51.63.75.32.77.28,1.53.56.77.28.38.14.39.13,3.12,1,.39.13.4.1,2.37.63,1.58.41,1.59.35,3.2.68,3.22.55,1.61.27.81.12.81.1,2.44.31.8.1.81.1.81.08,1.63.13c2.17.17,4.33.38,6.52.44a92.32,92.32,0,0,0,13.09-.4l1.63-.19.81-.1.81-.12,1.62-.23.42-.08,1.2-.21.81-.14.8-.16,1.6-.34,1.6-.38.79-.2.79-.22a66.42,66.42,0,0,0,9.13-3.13c1.06-.44,2.1-.92,3.13-1.41s2.26-1.16,3.36-1.79c0-.42,0-.71.05-.87-1.25.62-2.53,1.2-3.83,1.74-1,.43-2.07.83-3.12,1.22s-1.94.68-2.92,1l-.76.24c-.26.09-.52.15-.77.23-.52.15-1,.31-1.55.45l-1.55.41c-.52.14-1,.25-1.56.37q-3.85.9-7.79,1.44a101.8,101.8,0,0,1-17.71.83c-2.14-.06-4.28-.26-6.43-.41l-1.61-.12c-.26,0-.53,0-.8-.07l-.8-.09-1.22-.13-2-.22-.8-.09c-.27,0-.53-.05-.8-.09l-1.59-.24-3.19-.46-3.16-.6L87.16,330l-1.57-.35L84,329.31l-.78-.17-.4-.09-.39-.11-3.11-.83L79,328l-.38-.12-.77-.24-1.54-.47-.77-.24-.75-.27-1.52-.54c-.26-.09-.51-.17-.76-.27L70.21,325l-.74-.32-.47-.21Z"/><circle class="cls-7" cx="110.18" cy="268.71" r="1.66"/><path class="cls-1" d="M168.84,371.08c0,.29.74.52,1.64.52s1.64-.23,1.64-.52-.73-.51-1.64-.51S168.84,370.8,168.84,371.08Z"/><path class="cls-8" d="M170.67,371.27h.13a.48.48,0,0,0,.35-.14.51.51,0,0,0,.15-.36v-5.26a.5.5,0,0,0-.18-.39.52.52,0,0,0-.32-.11h-.13a.5.5,0,0,0-.27.08.49.49,0,0,0-.23.42v5.26a.48.48,0,0,0,.19.39A.47.47,0,0,0,170.67,371.27Z"/><ellipse class="cls-9" cx="170.69" cy="365.3" rx="1.77" ry="0.78"/><ellipse class="cls-1" cx="56.65" cy="368.32" rx="1.64" ry="0.52"/><path class="cls-8" d="M56.83,368.51H57a.48.48,0,0,0,.34-.14.48.48,0,0,0,.16-.36v-5.26a.5.5,0,0,0-.18-.39.52.52,0,0,0-.32-.11h-.14a.47.47,0,0,0-.26.08.5.5,0,0,0-.24.42V368a.5.5,0,0,0,.5.5Z"/><path class="cls-9" d="M55.09,362.54c0,.43.8.78,1.77.78s1.77-.35,1.77-.78-.79-.78-1.77-.78S55.09,362.11,55.09,362.54Z"/><path class="cls-10" d="M145.74,327.87,146,329l.11,0c1.06-.44,2.1-.92,3.13-1.41s2.26-1.16,3.36-1.79c0-.42,0-.71.05-.87-1.25.62-2.53,1.2-3.83,1.74C147.83,327.08,146.79,327.48,145.74,327.87Z"/><path class="cls-10" d="M100.27,332l0,.16.16,1.87.8.1.81.1.81.08,1.63.13c2.17.17,4.33.38,6.52.44a92.32,92.32,0,0,0,13.09-.4l1.63-.19.81-.1.81-.12,1.62-.23.42-.08-.15-.15-.44-1.62a101.8,101.8,0,0,1-17.71.83c-2.14-.06-4.28-.26-6.43-.41l-1.61-.12c-.26,0-.53,0-.8-.07l-.8-.09Z"/><path class="cls-10" d="M68.71,324.76l.09.38.35.19.73.37,1.47.7.74.35.75.32,1.51.63.75.32.77.28,1.53.56.4-1.21-1.54-.47-.77-.24-.75-.27-1.52-.54c-.26-.09-.51-.17-.76-.27L70.21,325l-.74-.32-.47-.21Z"/><path class="cls-11" d="M69,324.44s-.24,5.31,3.53,7.71,5.27-4.5,5.27-4.5Z"/><path class="cls-11" d="M100.27,332s-1.86,7.86-11.29,5.46-11.18-9.81-11.18-9.81S85.34,330.47,100.27,332Z"/><path class="cls-11" d="M100.27,332s3.62,7.18,14.42,7,13.57-4.1,14.15-7C128.84,332,110.36,334.07,100.27,332Z"/><path class="cls-11" d="M128.84,332s4.7,4.44,10.53,3.42,6.37-7.54,6.37-7.54S143.9,329.2,128.84,332Z"/><path class="cls-11" d="M152.49,325s-1.19,10.48-6.75,2.9A27.28,27.28,0,0,0,152.49,325Z"/><path class="cls-12" d="M123.47,348.82a7.72,7.72,0,0,0-15.36,0H108l.48,23.76s5.25,0,7.05,0c2-.05,8-.38,8-.38V348.82Z"/><path class="cls-1" d="M256.22,390.08c-14,0-40.26-3-49.44-11.78a8.36,8.36,0,0,1-5.34,1.66c-5.29,0-7.7-3.41-7.7-6.58a6.23,6.23,0,0,1,.75-3,6.48,6.48,0,0,1-.67-2.83,6.84,6.84,0,0,1,5.46-6.55c3.35-8.24,6.44-22.3,8-30.92l-.48-1.81,1-1.14.7-4.73,3,.51,1.12-1.26,1.55-1.78,1.56-1.81,1.56-1.84,1.62-1.93,1.61-1.95,1.69-2.05,1.49-1.85,1.59-2,1.63-2.06,1.83-2.34,2.19-2.84,1.47-1.94,1.44-1.93,1.37-1.85,1.53-2.11,1.38-1.93,1.44-2.05,1.45-2.11,1.2-1.78,1.19-1.81,1.4-2.18.91-1.48.84-1.41.82-1.44a8.07,8.07,0,0,1-.14-1.48,7.73,7.73,0,1,1,15.45,0c0,.17,0,.35,0,.52v0c6.06,10.37,18.39,31.49,36.46,48.76l2.47-.78,1.38,4.35.65.58,0,1.3c2.34,7.29,8.44,25.07,13.41,35.11,3.68.59,6.3,3.28,6.3,6.72a6.5,6.5,0,0,1-.88,3.26,6.16,6.16,0,0,1,.54,2.53c0,3.17-2.41,6.58-7.7,6.58s-7.7-3.41-7.7-6.58a5.26,5.26,0,0,1,.07-.89C302.31,385.45,275.7,390.08,256.22,390.08Z"/><path class="cls-2" d="M251.16,385c-14,0-40.26-3-49.44-11.79a8.27,8.27,0,0,1-5.33,1.66c-5.29,0-7.7-3.41-7.7-6.58a6.22,6.22,0,0,1,.75-2.95,6.48,6.48,0,0,1-.67-2.83,6.83,6.83,0,0,1,5.46-6.55c3.34-8.24,6.44-22.3,8-30.92l-.47-1.81,1-1.14.69-4.73,3,.51,1.12-1.26,1.55-1.78,1.55-1.81,1.57-1.85,1.62-1.92,1.61-1.95,1.68-2.05,1.5-1.85,1.59-2,1.63-2.06,1.83-2.34,2.19-2.85,1.46-1.93,1.44-1.93,1.37-1.85c.52-.7,1.54-2.11,1.54-2.11l1.38-1.93,1.44-2.05,1.45-2.11,1.2-1.78,1.19-1.81,1.39-2.18.92-1.48.84-1.41.82-1.44a8.07,8.07,0,0,1-.14-1.48,7.73,7.73,0,1,1,15.45,0,4.52,4.52,0,0,1,0,.52l0,0C263.7,279.63,276,300.75,294.1,318l2.47-.78,1.38,4.34.65.59-.05,1.3c2.34,7.29,8.44,25.06,13.41,35.11,3.68.58,6.3,3.28,6.3,6.72a6.5,6.5,0,0,1-.88,3.26,6.15,6.15,0,0,1,.54,2.52c0,3.17-2.41,6.58-7.7,6.58s-7.7-3.41-7.7-6.58a6.77,6.77,0,0,1,.06-.89C297.26,380.39,270.65,385,251.16,385Z"/><path class="cls-1" d="M204.51,366.41c0,5.26,21,12.56,46.65,12.56s46.31-7.3,46.31-12.56S276.66,356.9,251,356.9,204.51,361.16,204.51,366.41Z"/><path class="cls-3" d="M310.07,368.06l.32-.26c-6.79-8.56-17.66-42.61-17.76-43l-.4.13C292.34,325.31,303.23,359.44,310.07,368.06Z"/><path class="cls-3" d="M196.88,364.75c6.58-8.5,12-40,12.06-40.27l-.41-.07c-.05.31-5.46,31.67-12,40.08Z"/><path class="cls-4" d="M208.54,325.14c1.79,7.57,2.56,28,.94,40.58q2.91,1.14,5.93,2a108.24,108.24,0,0,0,17.6,3.74c2.73.35,5.46.62,8.17.8a149.88,149.88,0,0,0,15.07.25c5.11-.17,10-.58,14.46-1.15a110.16,110.16,0,0,0,17.57-3.53,33.86,33.86,0,0,0,5.6-2.16c-3.15-6.67-1.81-34.28-1.5-39.94,0-.41,0-.71.05-.87a.85.85,0,0,1,0-.15c-23-20.89-37.24-48-42.41-56.47,0,0-.05.11-.08.17-4.66,11.21-25,38.07-41.21,56l-.3.32C208.47,324.89,208.51,325,208.54,325.14Z"/><path class="cls-5" d="M285.78,328.1c0,17.07-1.65,27.86,2.5,39.78h0a33.86,33.86,0,0,0,5.6-2.16c-3.51-7.44-1.44-41-1.44-41-23-20.89-37.24-48-42.41-56.47,0,0-.05.11-.08.17C252.05,274.47,266.07,313,285.78,328.1Z"/><path class="cls-5" d="M241.18,372.31a155.3,155.3,0,0,0,29.53-.9h0s-3.1-21.61-1.86-38.58c-6.41-20.07-12.62-28.13-18.82-64.54-2.49,20.68-6.42,56.06-10.14,64.13C241.72,342.36,242,366.22,241.18,372.31Z"/><path class="cls-5" d="M209.48,365.72q2.91,1.14,5.93,2s4.21-15.7,1.93-40C228.72,311.94,246.1,290,250,268.29c-4.55,11.17-25.24,38.47-41.59,56.47C210.31,332,211.13,352.9,209.48,365.72Z"/><path class="cls-6" d="M208.44,324.76c0,.12.07.25.1.38l.35.19.72.37,1.48.7.74.35.75.32,1.5.63.76.32.76.28,1.54.56.77.28.38.14.39.13,3.12,1,.39.13.39.1,2.37.63,1.59.41,1.59.35,3.2.68,3.22.55,1.61.27.81.12.81.1,2.44.31.8.1.81.1.81.08,1.63.13c2.17.17,4.33.38,6.52.44a92.32,92.32,0,0,0,13.09-.4l1.63-.19.81-.1.81-.12,1.62-.23.41-.08,1.21-.21.8-.14.81-.16,1.6-.34,1.59-.38.8-.2.79-.22a66.88,66.88,0,0,0,9.13-3.13c1.06-.44,2.1-.92,3.13-1.41s2.26-1.16,3.36-1.79c0-.42,0-.71.05-.87-1.26.62-2.53,1.2-3.83,1.74-1,.43-2.07.83-3.13,1.22s-1.93.68-2.91,1l-.77.24c-.25.09-.51.15-.76.23-.52.15-1,.31-1.55.45l-1.55.41c-.52.14-1,.25-1.56.37q-3.87.9-7.79,1.44a101.87,101.87,0,0,1-17.72.83c-2.13-.06-4.28-.26-6.42-.41l-1.61-.12c-.27,0-.53,0-.8-.07l-.8-.09L240,332l-2-.22-.8-.09c-.27,0-.54-.05-.8-.09l-1.59-.24-3.19-.46-3.17-.6L226.9,330l-1.57-.35-1.57-.36-.79-.17-.39-.09-.39-.11-3.11-.83-.39-.1-.38-.12-.77-.24-1.54-.47-.77-.24-.76-.27-1.52-.54-.76-.27L210,325l-.74-.32-.47-.21Z"/><circle class="cls-7" cx="249.91" cy="268.71" r="1.66"/><path class="cls-1" d="M308.58,371.08c0,.29.74.52,1.64.52s1.64-.23,1.64-.52-.74-.51-1.64-.51S308.58,370.8,308.58,371.08Z"/><path class="cls-8" d="M310.4,371.27h.14a.48.48,0,0,0,.34-.14.48.48,0,0,0,.16-.36v-5.26a.5.5,0,0,0-.18-.39.52.52,0,0,0-.32-.11h-.14a.47.47,0,0,0-.26.08.5.5,0,0,0-.24.42v5.26a.5.5,0,0,0,.5.5Z"/><ellipse class="cls-9" cx="310.43" cy="365.3" rx="1.77" ry="0.78"/><ellipse class="cls-1" cx="196.39" cy="368.32" rx="1.64" ry="0.52"/><path class="cls-8" d="M196.57,368.51h.14a.48.48,0,0,0,.34-.14.48.48,0,0,0,.16-.36v-5.26a.48.48,0,0,0-.19-.39.47.47,0,0,0-.31-.11h-.14a.5.5,0,0,0-.27.08.49.49,0,0,0-.23.42V368a.48.48,0,0,0,.19.39A.49.49,0,0,0,196.57,368.51Z"/><path class="cls-9" d="M194.83,362.54c0,.43.79.78,1.77.78s1.77-.35,1.77-.78-.8-.78-1.77-.78S194.83,362.11,194.83,362.54Z"/><path class="cls-10" d="M285.47,327.87l.3,1.13.12,0c1.06-.44,2.1-.92,3.13-1.41s2.26-1.16,3.36-1.79c0-.42,0-.71.05-.87-1.26.62-2.53,1.2-3.83,1.74C287.57,327.08,286.53,327.48,285.47,327.87Z"/><path class="cls-10" d="M240,332l.05.16.16,1.87.8.1.81.1.81.08,1.63.13c2.17.17,4.33.38,6.52.44a92.32,92.32,0,0,0,13.09-.4l1.63-.19.81-.1.81-.12,1.62-.23.41-.08-.14-.15-.44-1.62a101.87,101.87,0,0,1-17.72.83c-2.13-.06-4.28-.26-6.42-.41l-1.61-.12c-.27,0-.53,0-.8-.07l-.8-.09Z"/><path class="cls-10" d="M208.44,324.76c0,.12.07.25.1.38l.35.19.72.37,1.48.7.74.35.75.32,1.5.63.76.32.76.28,1.54.56.4-1.21-1.54-.47-.77-.24-.76-.27-1.52-.54-.76-.27L210,325l-.74-.32-.47-.21Z"/><path class="cls-11" d="M208.74,324.44s-.25,5.31,3.52,7.71,5.28-4.5,5.28-4.5Z"/><path class="cls-11" d="M240,332s-1.87,7.86-11.29,5.46-11.18-9.81-11.18-9.81S225.08,330.47,240,332Z"/><path class="cls-11" d="M240,332s3.62,7.18,14.42,7,13.56-4.1,14.15-7C268.58,332,250.1,334.07,240,332Z"/><path class="cls-11" d="M268.58,332s4.7,4.44,10.53,3.42,6.36-7.54,6.36-7.54S283.64,329.2,268.58,332Z"/><path class="cls-11" d="M292.23,325s-1.19,10.48-6.76,2.9A27.27,27.27,0,0,0,292.23,325Z"/><path class="cls-12" d="M263.21,348.82a7.72,7.72,0,0,0-15.36,0h-.1l.48,23.76s5.25,0,7.05,0c2-.05,8-.38,8-.38V348.82Z"/><path class="cls-1" d="M396,390.08c-14,0-40.26-3-49.44-11.78a8.33,8.33,0,0,1-5.33,1.66c-5.29,0-7.7-3.41-7.7-6.58a6.23,6.23,0,0,1,.75-3,6.48,6.48,0,0,1-.67-2.83A6.83,6.83,0,0,1,339,361c3.35-8.24,6.44-22.3,8-30.92l-.45-1.73,1-1.2.82-4.71,2.85.48c.26-.28,1.13-1.27,1.13-1.27l1.54-1.78,1.56-1.81,1.57-1.84,1.62-1.93,1.61-1.95,1.68-2.05,1.5-1.85,1.59-2,1.63-2.06,1.57-2,2.45-3.17,1.46-1.94,1.44-1.93c.44-.58,1.37-1.85,1.37-1.85l1.54-2.11,1.38-1.93,1.45-2.06,1.44-2.1,1.2-1.78,1.19-1.81,1-1.5.43-.68.91-1.48.83-1.39.83-1.46a8.07,8.07,0,0,1-.14-1.48,7.73,7.73,0,1,1,15.45,0,4.52,4.52,0,0,1,0,.52l0,0c6.06,10.37,18.38,31.49,36.46,48.76l2.47-.78,1.38,4.35.65.58-.05,1.3c2.34,7.29,8.44,25.07,13.41,35.11,3.68.59,6.3,3.28,6.3,6.72a6.5,6.5,0,0,1-.88,3.26,6.33,6.33,0,0,1,.54,2.53c0,3.17-2.41,6.58-7.7,6.58s-7.7-3.41-7.7-6.58a6.54,6.54,0,0,1,.06-.89C442.05,385.45,415.44,390.08,396,390.08Z"/><path class="cls-2" d="M390.9,385c-14,0-40.26-3-49.44-11.79a8.3,8.3,0,0,1-5.34,1.66c-5.29,0-7.7-3.41-7.7-6.58a6.23,6.23,0,0,1,.76-2.95,6.36,6.36,0,0,1-.68-2.83A6.84,6.84,0,0,1,334,356c3.35-8.25,6.45-22.31,8-30.93l-.45-1.72,1-1.21.82-4.7,2.85.48,1.12-1.27,1.55-1.78,1.56-1.81L352,311.2l1.61-1.92,1.62-1.95,1.68-2.05,1.5-1.85,1.59-2,1.62-2.06,1.58-2,2.44-3.18,1.47-1.93,1.44-1.93,1.37-1.85,1.54-2.11,1.38-1.93,1.44-2.06,1.45-2.1,1.2-1.78,1.19-1.81,1-1.51.43-.68.91-1.47.83-1.39.84-1.46a7.29,7.29,0,0,1-.15-1.48,7.73,7.73,0,0,1,15.46,0c0,.17,0,.35,0,.52l0,0c6.05,10.37,18.38,31.49,36.45,48.76l2.48-.78,1.38,4.34.64.59,0,1.3c2.34,7.29,8.44,25.06,13.41,35.11,3.68.58,6.3,3.28,6.3,6.72a6.6,6.6,0,0,1-.88,3.26,6.32,6.32,0,0,1,.54,2.52c0,3.17-2.41,6.58-7.7,6.58s-7.7-3.41-7.7-6.58a6.77,6.77,0,0,1,.06-.89C437,380.39,410.38,385,390.9,385Z"/><path class="cls-1" d="M344.25,366.41c0,5.26,21,12.56,46.65,12.56s46.31-7.3,46.31-12.56-20.81-9.51-46.48-9.51S344.25,361.16,344.25,366.41Z"/><path class="cls-3" d="M449.8,368.06l.33-.26c-6.8-8.56-17.66-42.61-17.77-43L432,325C432.08,325.31,443,359.44,449.8,368.06Z"/><path class="cls-3" d="M336.62,364.75c6.58-8.5,12-40,12.06-40.27l-.41-.07c-.06.31-5.46,31.67-12,40.08Z"/><path class="cls-4" d="M348.27,325.14c1.8,7.57,2.57,28,1,40.58,1.94.76,3.92,1.44,5.92,2a108.59,108.59,0,0,0,17.61,3.74c2.72.35,5.45.62,8.16.8a149.92,149.92,0,0,0,15.07.25c5.11-.17,10-.58,14.47-1.15A110.16,110.16,0,0,0,428,367.88a33.86,33.86,0,0,0,5.6-2.16c-3.15-6.67-1.82-34.28-1.5-39.94,0-.41,0-.71,0-.87s0-.15,0-.15c-23-20.89-37.23-48-42.41-56.47,0,0,0,.11-.07.17-4.66,11.21-25,38.07-41.22,56l-.29.32Z"/><path class="cls-5" d="M425.51,328.1c0,17.07-1.65,27.86,2.51,39.78h0a33.86,33.86,0,0,0,5.6-2.16c-3.52-7.44-1.45-41-1.45-41-23-20.89-37.23-48-42.41-56.47,0,0,0,.11-.07.17C391.79,274.47,405.8,313,425.51,328.1Z"/><path class="cls-5" d="M380.91,372.31a155.38,155.38,0,0,0,29.54-.9h0s-3.1-21.61-1.86-38.58c-6.41-20.07-12.62-28.13-18.83-64.54-2.48,20.68-6.41,56.06-10.13,64.13C381.45,342.36,381.69,366.22,380.91,372.31Z"/><path class="cls-5" d="M349.22,365.72c1.94.76,3.92,1.44,5.92,2,0,0,4.21-15.7,1.94-40,11.37-15.82,28.75-37.75,32.68-59.47-4.55,11.17-25.24,38.47-41.58,56.47C350,332,350.87,352.9,349.22,365.72Z"/><path class="cls-6" d="M348.18,324.76l.09.38.35.19.73.37,1.47.7.74.35.75.32,1.51.63.76.32.76.28,1.54.56.76.28.39.14.39.13,3.12,1,.39.13.39.1,2.37.63,1.58.41,1.6.35,3.2.68,3.22.55,1.61.27c.27.05.53.09.81.12l.8.1L380,334l.8.1.81.1.81.08,1.62.13c2.17.17,4.34.38,6.52.44a92.23,92.23,0,0,0,13.09-.4l1.63-.19.81-.1.82-.12,1.62-.23.41-.08,1.2-.21.81-.14.8-.16,1.61-.34,1.59-.38.8-.2.79-.22a66.88,66.88,0,0,0,9.13-3.13c1.05-.44,2.1-.92,3.13-1.41s2.25-1.16,3.36-1.79c0-.42,0-.71.05-.87-1.26.62-2.54,1.2-3.83,1.74-1,.43-2.08.83-3.13,1.22s-1.93.68-2.91,1l-.77.24c-.25.09-.51.15-.77.23-.51.15-1,.31-1.54.45l-1.56.41c-.51.14-1,.25-1.56.37-2.57.6-5.17,1.08-7.78,1.44a101.87,101.87,0,0,1-17.72.83c-2.14-.06-4.28-.26-6.42-.41l-1.61-.12c-.27,0-.54,0-.8-.07l-.8-.09-1.22-.13-2-.22-.8-.09c-.26,0-.53-.05-.79-.09l-1.6-.24-3.19-.46-3.16-.6-1.58-.28-1.57-.35-1.57-.36-.79-.17-.39-.09-.39-.11-3.11-.83-.39-.1-.39-.12-.76-.24-1.54-.47-.77-.24-.76-.27-1.52-.54c-.25-.09-.51-.17-.76-.27l-2.25-.89-.74-.32-.47-.21Z"/><circle class="cls-7" cx="389.65" cy="268.71" r="1.66"/><path class="cls-1" d="M448.32,371.08c0,.29.73.52,1.64.52s1.63-.23,1.63-.52-.73-.51-1.63-.51S448.32,370.8,448.32,371.08Z"/><path class="cls-8" d="M450.14,371.27h.14a.48.48,0,0,0,.34-.14.48.48,0,0,0,.16-.36v-5.26a.48.48,0,0,0-.19-.39.47.47,0,0,0-.31-.11h-.14a.5.5,0,0,0-.27.08.49.49,0,0,0-.23.42v5.26a.48.48,0,0,0,.19.39A.47.47,0,0,0,450.14,371.27Z"/><ellipse class="cls-9" cx="450.17" cy="365.3" rx="1.77" ry="0.78"/><ellipse class="cls-1" cx="336.12" cy="368.32" rx="1.64" ry="0.52"/><path class="cls-8" d="M336.31,368.51h.14a.48.48,0,0,0,.34-.14A.48.48,0,0,0,337,368v-5.26a.51.51,0,0,0-.19-.39.47.47,0,0,0-.31-.11h-.14a.5.5,0,0,0-.27.08.49.49,0,0,0-.23.42V368a.48.48,0,0,0,.19.39A.47.47,0,0,0,336.31,368.51Z"/><path class="cls-9" d="M334.57,362.54c0,.43.79.78,1.77.78s1.76-.35,1.76-.78-.79-.78-1.76-.78S334.57,362.11,334.57,362.54Z"/><path class="cls-10" d="M425.21,327.87l.3,1.13.12,0c1.05-.44,2.1-.92,3.13-1.41s2.25-1.16,3.36-1.79c0-.42,0-.71.05-.87-1.26.62-2.54,1.2-3.83,1.74C427.31,327.08,426.26,327.48,425.21,327.87Z"/><path class="cls-10" d="M379.75,332l0,.16L380,334l.8.1.81.1.81.08,1.62.13c2.17.17,4.34.38,6.52.44a92.23,92.23,0,0,0,13.09-.4l1.63-.19.81-.1.82-.12,1.62-.23.41-.08-.15-.15-.43-1.62a101.87,101.87,0,0,1-17.72.83c-2.14-.06-4.28-.26-6.42-.41l-1.61-.12c-.27,0-.54,0-.8-.07l-.8-.09Z"/><path class="cls-10" d="M348.18,324.76l.09.38.35.19.73.37,1.47.7.74.35.75.32,1.51.63.76.32.76.28,1.54.56.4-1.21-1.54-.47-.77-.24-.76-.27-1.52-.54c-.25-.09-.51-.17-.76-.27l-2.25-.89-.74-.32-.47-.21Z"/><path class="cls-11" d="M348.47,324.44s-.24,5.31,3.53,7.71,5.28-4.5,5.28-4.5Z"/><path class="cls-11" d="M379.75,332s-1.87,7.86-11.3,5.46-11.17-9.81-11.17-9.81S364.82,330.47,379.75,332Z"/><path class="cls-11" d="M379.75,332s3.62,7.18,14.41,7,13.57-4.1,14.16-7C408.32,332,389.84,334.07,379.75,332Z"/><path class="cls-11" d="M408.32,332s4.7,4.44,10.52,3.42,6.37-7.54,6.37-7.54S423.38,329.2,408.32,332Z"/><path class="cls-11" d="M432,325s-1.19,10.48-6.76,2.9A27.27,27.27,0,0,0,432,325Z"/><path class="cls-12" d="M402.94,348.82a7.72,7.72,0,0,0-15.35,0h-.1l.48,23.76s5.24,0,7,0c2-.05,8-.38,8-.38V348.82Z"/></svg>