<svg id="Layer_1" data-name="Layer 1" xmlns="http://www.w3.org/2000/svg" viewBox="0 0 512 512"><defs><style>.cls-1{opacity:0.5;}.cls-2,.cls-9{fill:#fff;}.cls-3{fill:#ff440b;}.cls-4{fill:#eadfc7;}.cls-5{fill:#ff603b;}.cls-6{fill:#8c7c72;}.cls-7{fill:#fff3d4;}.cls-8{fill:#6d615a;}.cls-9{opacity:0.35;}.cls-10{fill:#e0340b;}.cls-11{fill:#eadfc5;}.cls-12{fill:#dbc8af;}.cls-13{fill:#e55438;}</style></defs><path class="cls-1" d="M360.49,298.7l-.48-.11a6.43,6.43,0,0,1-.76-.17,7.74,7.74,0,0,1-1.89-.77,5.81,5.81,0,0,1-.58-.36l-.14-.1a6.36,6.36,0,0,1-.79-.65,8,8,0,0,1-2.55-5.86v-4.62c0-.52-.06-1-.06-1.42v-7.76l.81-5.52-6.76-8.66v-.6c-9.81-11.21-34.74-40.8-40.41-58.39-7-21.72-2-44.13,12.73-57.07,13.27-11.65,31.26-14.87,40.78-15.75v-.19l4.22-.09c1,0,1.68-.05,2-.05h1.51l0,0c6.25.18,29.53,1.8,45.69,15.88,10.15,8.84,15.81,22,16,37.15q0,.46,0,.84a61.82,61.82,0,0,1-.55,8,52.35,52.35,0,0,1-1.8,10.2c-4.36,13.69-20.45,34.88-33.18,50.25-3.15,3.81-5.81,6.94-7.66,9.06v.65L380.39,271h.93l0,6.39v13.33c0,.15,0,.31,0,.46l0,.5-.5,1.82-.15.29a6.92,6.92,0,0,1-.4.82l-.06.12-.26.42a7.84,7.84,0,0,1-1.21,1.43,9.06,9.06,0,0,1-.76.63l-.11.08c-.24.16-.49.31-.74.46a7.93,7.93,0,0,1-1.72.69,5.73,5.73,0,0,1-.69.16l-.49.14H360.49Z"/><path class="cls-2" d="M355.16,293.38l-.48-.12c-.25,0-.51-.1-.76-.16a8.12,8.12,0,0,1-1.88-.78,6.48,6.48,0,0,1-.59-.35l-.14-.1a8.37,8.37,0,0,1-.79-.66,8,8,0,0,1-2.55-5.85v-4.63c0-.52-.06-1-.06-1.42v-7.75l.81-5.53L342,257.37v-.59c-9.82-11.21-34.74-40.81-40.42-58.4-7-21.72-2-44.12,12.73-57.07,13.27-11.65,31.26-14.86,40.78-15.75v-.19l4.22-.09c1,0,1.68,0,2,0h1.51l0,0c6.25.17,29.54,1.8,45.7,15.87,10.14,8.84,15.81,22,15.95,37.15,0,.31,0,.59,0,.84a65.54,65.54,0,0,1-.55,8,53,53,0,0,1-1.81,10.2c-4.36,13.69-20.45,34.88-33.18,50.25-3.14,3.82-5.81,6.94-7.65,9.07v.64l-6.28,8.31H376L376,272v13.34c0,.15,0,.3,0,.45l.05.5-.5,1.82-.15.3a8.86,8.86,0,0,1-.4.82l0,.11-.27.43a8.13,8.13,0,0,1-1.21,1.42,7.7,7.7,0,0,1-.76.63l-.11.08a7,7,0,0,1-.74.46,8.28,8.28,0,0,1-1.72.7l-.69.16-.48.13H355.16Z"/><path class="cls-3" d="M361.92,255.18l12.27-.05s34.94-39.17,41.23-58.91c5.44-17.07,3.17-37.88-11.05-50.27-16.76-14.59-42.92-14.32-42.92-14.32Z"/><path class="cls-4" d="M361.45,131.63s21.36,1,33.95,13.22c13.32,13,13.06,21.55,12.71,33.67-.93,32-35.73,76.62-35.73,76.62l-10.46,0Z"/><path class="cls-5" d="M361.45,131.63a48.1,48.1,0,0,1,21.46,11.73c10.91,10.21,12.91,27.8,10.73,43.19-2.81,19.8-24,68.6-24,68.6l-7.73,0Z"/><polygon class="cls-6" points="374.95 255.18 368.01 264.36 369.62 272.13 368.62 272.14 367.07 264.38 373.75 255.2 374.95 255.18"/><path class="cls-3" d="M361.36,255.18H349.08s-35.08-39-41.45-58.76c-5.5-17-3.31-37.86,10.87-50.31,16.7-14.65,42.86-14.48,42.86-14.48Z"/><path class="cls-4" d="M361.36,131.63S340,132.68,327.46,145c-13.27,13-13,21.61-12.58,33.72,1.05,32,36,76.49,36,76.49h10.46Z"/><path class="cls-5" d="M361.36,131.63A48.05,48.05,0,0,0,340,143.44c-10.88,10.26-12.81,27.85-10.57,43.23,2.88,19.79,24.25,68.51,24.25,68.51h7.73Z"/><path class="cls-7" d="M372.81,144.92a30.09,30.09,0,0,0-11.45-13.29h0A30.12,30.12,0,0,0,350,145c-3.39,8.25-5.13,20.31-3.37,40.3s11.82,69.91,11.82,69.91l6.52,0s9.81-50,11.46-70S376.25,153.14,372.81,144.92Z"/><rect class="cls-6" x="348.36" y="254.35" width="26.59" height="0.82"/><path class="cls-6" d="M362,287h0c-2.38,0-4.65.14-6.05-1.57-1.1-1.32-1.62-4.24-1.62-6.1V272h15.34v7.29c0,2.17-.07,4.9-1.52,6.29S364,287,362,287Z"/><path class="cls-8" d="M368.08,272v12.15a1.62,1.62,0,0,1-1.63,1.62l-12-.14c.05-.1,0,.13,0,.13a1.57,1.57,0,0,0,1.5,1.2H368a1.61,1.61,0,0,0,1.62-1.62V272Z"/><path class="cls-8" d="M355.93,272v12.15a1.62,1.62,0,0,0,1.63,1.62l12-.19v.16a1.58,1.58,0,0,1-1.51,1.22H356a1.61,1.61,0,0,1-1.62-1.62V272Z"/><polygon class="cls-6" points="348.36 255.18 355.44 264.26 354.3 272.02 355.31 272.02 356.38 264.26 349.55 255.18 348.36 255.18"/><polygon class="cls-6" points="355.44 264.26 368.01 264.36 368.3 265.79 355.21 265.79 355.44 264.26"/><path class="cls-9" d="M351.28,173.64a7.43,7.43,0,0,0,1.26,3.33,2.83,2.83,0,0,0,3.19,1c1.24-.56,1.62-2.1,1.78-3.45,1.21-9.64-.51-19.87,3.37-28.78.84-1.93,1.95-4.08,1.13-6-1.29-3-4.58-2.11-5.91,0a38.6,38.6,0,0,0-4,10.45A53,53,0,0,0,351.28,173.64Z"/><path class="cls-9" d="M333.56,169c.08,1.21.36,2.62,1.46,3.13a2.35,2.35,0,0,0,2.49-.54,5.24,5.24,0,0,0,1.31-2.33c1.9-6-.13-13,2.8-18.53,1.92-3.63,6.16-6.1,7.34-10.08-4.58-2.38-9.78,7.06-11.44,10.21A34.37,34.37,0,0,0,333.56,169Z"/><path class="cls-9" d="M319.1,162.56c-1,2.51-1.74,5.42-.49,7.8a2.34,2.34,0,0,0,1.18,1.2c1.19.46,2.4-.66,3-1.79,1.17-2.28,1.25-4.94,1.67-7.46a27.46,27.46,0,0,1,7.23-14.43c1.68-1.74,3.66-3.36,4.44-5.64.13-.39-2.5-.05-2.79.1-.68.36-1.05,1.13-1.57,1.68-1.75,1.82-3.55,3.54-5.13,5.52A50.21,50.21,0,0,0,319.1,162.56Z"/><path class="cls-9" d="M309.55,165.1c-.61,1.94-1.08,4.09-.23,5.94a1.73,1.73,0,0,0,.81.93c1,.45,2-.7,2.35-1.73,1-2.64,1-5.53,1.53-8.28,1.22-5.88,5-10.85,8.73-15.59.21-.28-2,0-2.26.19-.52.31-1,1.19-1.32,1.64a60.87,60.87,0,0,0-4,5.1A46.31,46.31,0,0,0,309.55,165.1Z"/><path class="cls-10" d="M416.08,195.42c1.72-5.38,2.17-17.8,2-16.85a30.12,30.12,0,0,1-1.72,7.7A111.82,111.82,0,0,1,402,215.76a110.14,110.14,0,0,1-12,14.63c-5.2,5.31-10.93,10.1-16.18,15.37-2.35,2.36-4.76,5.39-4.33,8.59l5.4,0S409.79,215.16,416.08,195.42Z"/><path class="cls-11" d="M362.68,254.34h2.48s9.81-50,11.46-70c.35-4.33.55-8.29.6-11.91-1.71,2.82-1.55,8.25-2.06,11.22-.8,4.68-1.68,9.34-2.75,14-1.32,5.7-2.94,11.34-4.09,17.07-.9,4.46-1.5,9-2.11,13.47Q364.44,241.25,362.68,254.34Z"/><path class="cls-12" d="M372.94,254.34S407,209.51,408.2,177.55c-.43.22-2.93,8.8-3.76,11.76-1.24,4.41-3.52,7.56-5.11,11.86-3.89,10.54-7.47,15.8-15.46,29.36-4.45,7.55-11.38,14.74-13.68,23.18-.06.21-.1.42-.14.64Z"/><path class="cls-13" d="M370,254.34s21.18-48.8,24-68.6a79.07,79.07,0,0,0,.35-13.44c-1.16,1.62-1,6.54-1.29,8q-1.9,9-4.39,17.89a288.56,288.56,0,0,1-12.37,35.2q-4.17,9.81-9.08,19.3a7.79,7.79,0,0,0-.65,1.69Z"/><path class="cls-1" d="M144.21,298.7l-.48-.11c-.26,0-.51-.1-.76-.17a7.67,7.67,0,0,1-1.88-.77,4.93,4.93,0,0,1-.59-.36l-.14-.1a7.07,7.07,0,0,1-.78-.65,8,8,0,0,1-2.55-5.86v-4.62c-.05-.52-.07-1-.07-1.42v-7.76l.81-5.52L131,262.7v-.6c-9.81-11.21-34.74-40.8-40.42-58.39-7-21.72-2-44.13,12.73-57.07,13.28-11.65,31.27-14.87,40.78-15.75v-.19l4.22-.09c1,0,1.69-.05,2-.05h1.51l0,0c6.25.18,29.54,1.8,45.7,15.88,10.15,8.84,15.81,22,15.95,37.15,0,.31,0,.59,0,.83a63.78,63.78,0,0,1-.55,8.05,53.13,53.13,0,0,1-1.8,10.2c-4.37,13.69-20.46,34.88-33.19,50.25-3.14,3.81-5.81,6.94-7.65,9.06v.65L164.12,271H165l.05,6.39v13.33c0,.15,0,.31,0,.46l0,.5-.51,1.84-.16.29a6.55,6.55,0,0,1-.38.8l-.06.12-.27.42a7.46,7.46,0,0,1-1.21,1.43,7.15,7.15,0,0,1-.73.61l-.16.12c-.23.15-.47.3-.72.44a7.85,7.85,0,0,1-1.71.69,5.47,5.47,0,0,1-.7.16l-.48.14H144.21Z"/><path class="cls-2" d="M138.88,293.38l-.48-.12c-.26,0-.51-.1-.75-.16a8.19,8.19,0,0,1-1.89-.78c-.17-.09-.38-.22-.58-.35l-.14-.1a6.42,6.42,0,0,1-.79-.66,8,8,0,0,1-2.55-5.85v-4.63c0-.52-.06-1-.06-1.42v-7.75l.8-5.53-6.75-8.66v-.59C115.88,245.57,91,216,85.27,198.38c-7-21.72-2-44.12,12.74-57.07,13.27-11.65,31.26-14.86,40.78-15.75v-.19l4.22-.09c1,0,1.68,0,2,0h1.51l0,0c6.24.17,29.53,1.8,45.69,15.87,10.15,8.84,15.81,22,16,37.15q0,.47,0,.84a61.82,61.82,0,0,1-.55,8,52.35,52.35,0,0,1-1.8,10.2c-4.36,13.69-20.45,34.88-33.18,50.25-3.15,3.82-5.81,6.94-7.66,9.07v.64l-6.27,8.31h.92l0,6.39v13.34c0,.15,0,.3,0,.45l.05.5-.51,1.84-.15.3c-.12.27-.25.54-.39.8l-.06.11-.26.43a7.78,7.78,0,0,1-1.22,1.42,7.15,7.15,0,0,1-.73.61l-.16.12c-.23.16-.47.3-.72.44a8.43,8.43,0,0,1-1.71.7l-.7.16-.48.13H138.88Z"/><path class="cls-3" d="M145.65,255.18l12.27-.05s34.93-39.17,41.23-58.91c5.44-17.07,3.17-37.88-11.06-50.27-16.75-14.59-42.91-14.32-42.91-14.32Z"/><path class="cls-4" d="M145.18,131.63s21.36,1,33.95,13.22c13.32,13,13.06,21.55,12.7,33.67-.93,32-35.72,76.62-35.72,76.62l-10.46,0Z"/><path class="cls-5" d="M145.18,131.63a48.09,48.09,0,0,1,21.45,11.73c10.92,10.21,12.92,27.8,10.73,43.19-2.8,19.8-24,68.6-24,68.6l-7.72,0Z"/><polygon class="cls-6" points="158.67 255.18 151.73 264.36 153.34 272.13 152.34 272.14 150.79 264.38 157.48 255.2 158.67 255.18"/><path class="cls-3" d="M145.08,255.18H132.81s-35.08-39-41.45-58.76c-5.51-17-3.31-37.86,10.86-50.31,16.7-14.65,42.86-14.48,42.86-14.48Z"/><path class="cls-4" d="M145.08,131.63s-21.35,1.05-33.9,13.34c-13.27,13-13,21.61-12.57,33.72,1,32,36,76.49,36,76.49h10.46Z"/><path class="cls-5" d="M145.08,131.63a48.05,48.05,0,0,0-21.41,11.81c-10.87,10.26-12.81,27.85-10.57,43.23,2.89,19.79,24.26,68.51,24.26,68.51h7.72Z"/><path class="cls-7" d="M156.54,144.92a30.08,30.08,0,0,0-11.46-13.29h0A30.07,30.07,0,0,0,133.7,145c-3.39,8.25-5.13,20.31-3.38,40.3s11.82,69.91,11.82,69.91l6.53,0s9.81-50,11.46-70S160,153.14,156.54,144.92Z"/><rect class="cls-6" x="132.08" y="254.35" width="26.59" height="0.82"/><path class="cls-6" d="M145.7,287h0c-2.38,0-4.65.14-6.06-1.57-1.09-1.32-1.61-4.24-1.61-6.1V272h15.34v7.29c0,2.17-.08,4.9-1.52,6.29S147.77,287,145.7,287Z"/><path class="cls-8" d="M151.8,272v12.15a1.61,1.61,0,0,1-1.62,1.62l-12-.14c0-.1,0,.13,0,.13a1.57,1.57,0,0,0,1.51,1.2h12.08a1.62,1.62,0,0,0,1.63-1.62V272Z"/><path class="cls-8" d="M139.66,272v12.15a1.62,1.62,0,0,0,1.62,1.62l12-.19v.16A1.59,1.59,0,0,1,151.8,287H139.72a1.62,1.62,0,0,1-1.63-1.62V272Z"/><polygon class="cls-6" points="132.08 255.18 139.16 264.26 138.03 272.02 139.03 272.02 140.1 264.26 133.28 255.18 132.08 255.18"/><polygon class="cls-6" points="139.16 264.26 151.73 264.36 152.03 265.79 138.94 265.79 139.16 264.26"/><path class="cls-9" d="M135,173.64a7.56,7.56,0,0,0,1.27,3.33,2.83,2.83,0,0,0,3.19,1c1.23-.56,1.61-2.1,1.78-3.45,1.21-9.64-.51-19.87,3.36-28.78.84-1.93,2-4.08,1.13-6-1.28-3-4.57-2.11-5.91,0-1.92,3.06-3.07,7-4,10.45A53,53,0,0,0,135,173.64Z"/><path class="cls-9" d="M117.29,169c.08,1.21.36,2.62,1.46,3.13a2.35,2.35,0,0,0,2.49-.54,5.22,5.22,0,0,0,1.3-2.33c1.91-6-.12-13,2.81-18.53,1.91-3.63,6.15-6.1,7.34-10.08-4.58-2.38-9.78,7.06-11.44,10.21A34.27,34.27,0,0,0,117.29,169Z"/><path class="cls-9" d="M102.82,162.56c-1,2.51-1.74,5.42-.49,7.8a2.4,2.4,0,0,0,1.19,1.2c1.19.46,2.4-.66,3-1.79,1.17-2.28,1.25-4.94,1.66-7.46a27.4,27.4,0,0,1,7.24-14.43c1.67-1.74,3.65-3.36,4.43-5.64.13-.39-2.49-.05-2.78.1-.69.36-1,1.13-1.58,1.68-1.75,1.82-3.54,3.54-5.12,5.52A50.52,50.52,0,0,0,102.82,162.56Z"/><path class="cls-9" d="M93.27,165.1C92.66,167,92.2,169.19,93,171a1.81,1.81,0,0,0,.81.93c1,.45,2-.7,2.35-1.73,1-2.64,1-5.53,1.54-8.28,1.22-5.88,5-10.85,8.72-15.59.22-.28-2,0-2.25.19-.52.31-.95,1.19-1.33,1.64a60.76,60.76,0,0,0-3.94,5.1A46.68,46.68,0,0,0,93.27,165.1Z"/><path class="cls-10" d="M199.81,195.42c1.71-5.38,2.16-17.8,2-16.85a29.63,29.63,0,0,1-1.72,7.7,111.51,111.51,0,0,1-14.41,29.49,110.06,110.06,0,0,1-12,14.63c-5.21,5.31-10.94,10.1-16.19,15.37-2.34,2.36-4.75,5.39-4.32,8.59l5.39,0S193.52,215.16,199.81,195.42Z"/><path class="cls-11" d="M146.4,254.34h2.48s9.81-50,11.46-70c.36-4.33.55-8.29.6-11.91-1.7,2.82-1.55,8.25-2.06,11.22-.8,4.68-1.67,9.34-2.74,14-1.32,5.7-2.94,11.34-4.1,17.07-.89,4.46-1.5,9-2.11,13.47Q148.17,241.25,146.4,254.34Z"/><path class="cls-12" d="M156.67,254.34s34-44.83,35.25-76.79c-.42.22-2.93,8.8-3.76,11.76-1.23,4.41-3.52,7.56-5.1,11.86-3.9,10.54-7.47,15.8-15.47,29.36-4.44,7.55-11.37,14.74-13.68,23.18,0,.21-.1.42-.13.64Z"/><path class="cls-13" d="M153.7,254.34s21.19-48.8,24-68.6a78,78,0,0,0,.36-13.44c-1.16,1.62-1,6.54-1.3,8q-1.91,9-4.39,17.89A286.83,286.83,0,0,1,160,233.36q-4.19,9.81-9.08,19.3a7.31,7.31,0,0,0-.65,1.69Z"/><path class="cls-1" d="M252.88,381.8l-.48-.11-.76-.16a8.12,8.12,0,0,1-1.88-.78,4.93,4.93,0,0,1-.59-.36l-.13-.1a6.36,6.36,0,0,1-.79-.65,8,8,0,0,1-2.55-5.86v-4.62c0-.52-.07-1-.07-1.42V360l.81-5.52-6.75-8.66v-.6c-9.81-11.2-34.74-40.8-40.42-58.39-7-21.72-2-44.13,12.73-57.07,13.28-11.65,31.27-14.87,40.78-15.75v-.19l4.25-.09c1,0,1.66-.05,2-.05h1.51l0,0c6.25.18,29.54,1.8,45.7,15.88,10.15,8.84,15.81,22,15.95,37.15,0,.31,0,.59,0,.83a63.78,63.78,0,0,1-.55,8,53.13,53.13,0,0,1-1.8,10.2c-4.37,13.69-20.46,34.88-33.19,50.25-3.14,3.82-5.81,6.94-7.65,9.06v.65l-6.27,8.31h.92l.05,6.39v13.33c0,.16,0,.31,0,.46l.05.5-.51,1.84-.16.3a8.34,8.34,0,0,1-.38.8l-.06.11-.27.42a7.46,7.46,0,0,1-1.21,1.43,7.15,7.15,0,0,1-.73.61l-.16.12c-.23.16-.47.3-.72.44a7.85,7.85,0,0,1-1.71.69,5.47,5.47,0,0,1-.7.16l-.48.14H252.88Z"/><path class="cls-2" d="M247.55,376.48l-.48-.12c-.26,0-.51-.1-.75-.16a8.16,8.16,0,0,1-1.89-.77l-.58-.36-.14-.1a6.42,6.42,0,0,1-.79-.66,8,8,0,0,1-2.55-5.85v-4.63c0-.52-.06-1-.06-1.42v-7.75l.8-5.53-6.75-8.65v-.6c-9.81-11.21-34.73-40.81-40.42-58.39-7-21.73-2-44.13,12.74-57.08,13.27-11.65,31.26-14.86,40.78-15.74v-.2l4.25-.09c1,0,1.65,0,2,0h1.51l.05,0c6.24.17,29.53,1.8,45.69,15.87,10.15,8.84,15.81,22,16,37.15q0,.47,0,.84a61.82,61.82,0,0,1-.55,8,52.21,52.21,0,0,1-1.8,10.2c-4.36,13.69-20.45,34.88-33.18,50.26-3.15,3.81-5.81,6.93-7.66,9.06v.64l-6.27,8.31h.92l.05,6.39v13.34c0,.15,0,.3,0,.45l.05.5-.51,1.84-.15.3c-.12.27-.25.54-.39.8l-.06.11-.26.43a7.78,7.78,0,0,1-1.22,1.42,6.05,6.05,0,0,1-.73.61L265,375c-.23.16-.47.3-.72.44a8.43,8.43,0,0,1-1.71.7l-.7.16-.48.13H247.55Z"/><path class="cls-3" d="M254.32,338.28l12.27,0s34.93-39.17,41.23-58.91c5.44-17.07,3.17-37.88-11.06-50.27-16.75-14.59-42.91-14.32-42.91-14.32Z"/><path class="cls-4" d="M253.85,214.73s21.36,1,34,13.22c13.32,13,13.06,21.55,12.7,33.67-.93,32-35.72,76.62-35.72,76.62l-10.46,0Z"/><path class="cls-5" d="M253.85,214.73a48.09,48.09,0,0,1,21.45,11.73c10.92,10.21,12.92,27.8,10.73,43.19-2.8,19.8-24,68.6-24,68.6l-7.72,0Z"/><polygon class="cls-6" points="267.34 338.28 260.4 347.46 262.01 355.23 261.01 355.24 259.46 347.48 266.15 338.3 267.34 338.28"/><path class="cls-3" d="M253.75,338.28H241.48s-35.08-39-41.45-58.76c-5.51-17-3.31-37.86,10.86-50.31,16.7-14.65,42.86-14.48,42.86-14.48Z"/><path class="cls-4" d="M253.75,214.73s-21.35,1.05-33.9,13.35c-13.27,13-13,21.6-12.57,33.71,1.05,32,36,76.49,36,76.49h10.46Z"/><path class="cls-5" d="M253.75,214.73a48.05,48.05,0,0,0-21.41,11.81c-10.87,10.26-12.81,27.85-10.57,43.23,2.89,19.79,24.26,68.51,24.26,68.51h7.72Z"/><path class="cls-7" d="M265.21,228a30.08,30.08,0,0,0-11.46-13.29h0a30.06,30.06,0,0,0-11.38,13.35c-3.39,8.24-5.13,20.3-3.38,40.29s11.82,69.91,11.82,69.91l6.53,0s9.81-50,11.46-70S268.64,236.24,265.21,228Z"/><rect class="cls-6" x="240.75" y="337.45" width="26.59" height="0.82"/><path class="cls-6" d="M254.37,370.09h0c-2.38,0-4.65.13-6.06-1.58-1.09-1.32-1.61-4.24-1.61-6.09v-7.3H262v7.3c0,2.16-.08,4.89-1.52,6.28S256.44,370.09,254.37,370.09Z"/><path class="cls-8" d="M260.47,355.12v12.15a1.62,1.62,0,0,1-1.62,1.63l-12-.15c0-.1,0,.13,0,.13a1.58,1.58,0,0,0,1.51,1.21h12.08a1.63,1.63,0,0,0,1.63-1.63V355.12Z"/><path class="cls-8" d="M248.33,355.12v12.15A1.63,1.63,0,0,0,250,368.9l12-.2v.16a1.6,1.6,0,0,1-1.52,1.23H248.39a1.63,1.63,0,0,1-1.63-1.63V355.12Z"/><polygon class="cls-6" points="240.75 338.28 247.83 347.36 246.7 355.12 247.7 355.12 248.77 347.36 241.95 338.28 240.75 338.28"/><polygon class="cls-6" points="247.83 347.36 260.4 347.46 260.7 348.89 247.61 348.89 247.83 347.36"/><path class="cls-9" d="M243.67,256.74a7.56,7.56,0,0,0,1.27,3.33,2.83,2.83,0,0,0,3.19,1c1.23-.56,1.61-2.1,1.78-3.45,1.21-9.64-.51-19.87,3.36-28.78.84-1.93,1.95-4.08,1.13-6-1.28-3-4.57-2.11-5.91,0-1.92,3.06-3.07,7-4,10.45A53,53,0,0,0,243.67,256.74Z"/><path class="cls-9" d="M226,252.07c.08,1.21.36,2.62,1.46,3.13a2.35,2.35,0,0,0,2.49-.54,5.22,5.22,0,0,0,1.3-2.33c1.91-6-.12-13,2.81-18.53,1.91-3.63,6.15-6.1,7.34-10.08-4.58-2.38-9.78,7.06-11.44,10.21A34.27,34.27,0,0,0,226,252.07Z"/><path class="cls-9" d="M211.49,245.66c-1,2.51-1.74,5.42-.49,7.8a2.4,2.4,0,0,0,1.19,1.2c1.19.46,2.4-.66,3-1.79,1.17-2.28,1.25-4.94,1.66-7.46A27.4,27.4,0,0,1,224.07,231c1.67-1.74,3.65-3.36,4.43-5.64.13-.39-2.49-.05-2.78.1-.69.37-1.05,1.14-1.58,1.68-1.75,1.82-3.54,3.54-5.12,5.52A50.69,50.69,0,0,0,211.49,245.66Z"/><path class="cls-9" d="M201.94,248.2c-.61,1.94-1.07,4.1-.23,5.94a1.81,1.81,0,0,0,.81.93c1,.45,2-.7,2.35-1.73,1-2.64,1-5.52,1.54-8.28,1.22-5.88,5-10.85,8.72-15.59.22-.28-2,0-2.25.19-.52.31-.95,1.19-1.33,1.64a60.76,60.76,0,0,0-3.94,5.1A46.68,46.68,0,0,0,201.94,248.2Z"/><path class="cls-10" d="M308.48,278.52c1.71-5.38,2.16-17.8,2-16.85a29.63,29.63,0,0,1-1.72,7.7,111.51,111.51,0,0,1-14.41,29.49,110.06,110.06,0,0,1-12,14.63c-5.21,5.32-10.94,10.1-16.19,15.37-2.34,2.36-4.75,5.39-4.32,8.59l5.39,0S302.19,298.26,308.48,278.52Z"/><path class="cls-11" d="M255.07,337.44h2.48s9.81-50,11.46-70c.36-4.33.55-8.29.61-11.91-1.71,2.82-1.56,8.25-2.07,11.22-.8,4.68-1.67,9.34-2.74,14-1.32,5.7-2.94,11.34-4.1,17.07-.89,4.46-1.5,9-2.11,13.47Q256.85,324.35,255.07,337.44Z"/><path class="cls-12" d="M265.34,337.44s34-44.83,35.25-76.79c-.42.22-2.93,8.8-3.76,11.76-1.23,4.41-3.52,7.56-5.1,11.86-3.9,10.54-7.47,15.8-15.47,29.36-4.44,7.55-11.37,14.74-13.68,23.18-.05.21-.1.42-.13.64Z"/><path class="cls-13" d="M262.37,337.44s21.19-48.8,24-68.6a78,78,0,0,0,.36-13.43c-1.16,1.61-1,6.54-1.3,8q-1.91,9-4.39,17.89a286.83,286.83,0,0,1-12.36,35.2q-4.19,9.81-9.08,19.3a7.31,7.31,0,0,0-.65,1.69Z"/></svg>