<svg id="Layer_1" data-name="Layer 1" xmlns="http://www.w3.org/2000/svg" viewBox="0 0 512 512"><defs><style>.cls-1{opacity:0.5;}.cls-2{fill:#fff;}.cls-3{fill:#e5c9ae;stroke:#ad987b;}.cls-10,.cls-3,.cls-6{stroke-miterlimit:10;}.cls-3,.cls-6{stroke-width:2px;}.cls-4{fill:#ccb681;}.cls-5{fill:#fcecb9;}.cls-6{fill:#7b9122;stroke:#727a22;}.cls-7{fill:#f4f2ed;}.cls-8{fill:#323232;opacity:0.3;}.cls-9{fill:#e8e7e6;}.cls-10{fill:#dd0a24;stroke:#b20623;}.cls-11{fill:#af0e29;}</style></defs><path class="cls-1" d="M396.05,413.43a21.46,21.46,0,0,1-9.3-2.38l-.28-.13c-2.89-1.2-11.68-7.14-15.82-19.3a44.23,44.23,0,0,1-2-18.63,21.66,21.66,0,0,1,.39-2.86l0-.19c.08-.49.16-.86.22-1.17,0-.12.1-.46.12-.52a5.77,5.77,0,0,1,.21-.79l.13,0a36.51,36.51,0,0,1,4.7-8.53,11.26,11.26,0,0,1,1.58-1.94,9.13,9.13,0,0,1,.86-.73,10.48,10.48,0,0,1,3.17-1.55l.86-.27a81.44,81.44,0,0,1,17.82-3.79l.66-.13c1.38-3.88,2.42-6.71,3.09-8.44a13.26,13.26,0,0,1,12.76-8.75,12.93,12.93,0,0,1,2.34.2l.49.09,18.78,6.74-5.51,13.77-15.58-5.73L414.56,352a6.85,6.85,0,0,1,3.16,2.2l1.69,1.66v.56c1.34,1.89,3,4.45,4.23,6.38a32.21,32.21,0,0,1,2.28,3.88l.44,1c0,.1.17.41.19.48a28.12,28.12,0,0,1,1.77,7.32l.05.39c0,.16.06.68.06.68a32.32,32.32,0,0,1,.12,4.21V381c0,.43,0,.82-.08,1.22s0,.65-.09,1-.06.52-.09.77c-.07.55-.16,1.14-.27,1.73v.09l0,.15a32.53,32.53,0,0,1-1.29,4.83,31.36,31.36,0,0,1-2,4.51c-.07.16-.16.34-.26.52l-.07.13c-.06.09-.54.92-1.29,2-.18.27-.37.54-.57.82l-.29.41-.09.11c-.26.34-.51.67-.77,1l-.24.3-.63.76a32.3,32.3,0,0,1-2.38,2.55l-.83.77c-.86.8-1.86,1.65-3,2.55s-1.89,1.52-2.28,1.82a14.37,14.37,0,0,1-2.12,1.56,13.46,13.46,0,0,1-1.59.85l-.25.11-.16.17-2.45.72h-.18a9.1,9.1,0,0,1-.91.16l-.24,0a18.54,18.54,0,0,1-2.76.15l-1.23,0h-.22a8,8,0,0,1-1.86.48,6,6,0,0,1-.94.07ZM382,371l0-.17-.76,0Z"/><path class="cls-2" d="M390.72,408.1a21.41,21.41,0,0,1-9.3-2.38l-.28-.13c-2.89-1.2-11.68-7.15-15.82-19.3a44.11,44.11,0,0,1-2-18.64,21.5,21.5,0,0,1,.39-2.85l0-.2c.09-.48.16-.86.23-1.17,0-.11.1-.45.11-.51.06-.26.13-.53.21-.79l.14,0a36.06,36.06,0,0,1,4.69-8.52,12.33,12.33,0,0,1,1.58-1.94,8,8,0,0,1,.87-.73,10.48,10.48,0,0,1,3.17-1.55l.86-.27a81.48,81.48,0,0,1,17.81-3.79l.66-.13c1.39-3.89,2.43-6.72,3.1-8.45A13.26,13.26,0,0,1,410,328a12.83,12.83,0,0,1,2.34.2l.49.09,18.79,6.74-5.51,13.76-15.58-5.73-1.26,3.52a6.84,6.84,0,0,1,3.17,2.2l1.68,1.66V351c1.35,1.89,3,4.45,4.24,6.38a31.22,31.22,0,0,1,2.28,3.88c.16.38.31.72.43,1,.05.1.17.41.2.48a28.13,28.13,0,0,1,1.77,7.31l.05.39c0,.17.06.69.06.69a32.17,32.17,0,0,1,.12,4.2v.27c0,.43,0,.82-.08,1.22s-.05.65-.09,1-.06.52-.09.77c-.08.55-.17,1.13-.28,1.73v.08l0,.16a34.52,34.52,0,0,1-1.29,4.83,31.36,31.36,0,0,1-2,4.51c-.07.15-.16.34-.26.52l-.08.13c-.05.09-.53.92-1.28,2l-.57.81-.3.41-.09.12c-.25.34-.5.67-.76,1l-.24.29c-.2.25-.42.52-.64.77a32.3,32.3,0,0,1-2.38,2.55l-.83.77c-.85.79-1.85,1.65-3,2.55s-1.88,1.52-2.27,1.82a16,16,0,0,1-2.12,1.56,16.17,16.17,0,0,1-1.59.85l-.25.11-.16.16-2.46.73h-.17c-.3.06-.61.12-.92.16l-.23,0a20.13,20.13,0,0,1-2.77.15c-.4,0-.82,0-1.22,0h-.23a7.84,7.84,0,0,1-1.86.48,7.41,7.41,0,0,1-.93.07Zm-14.1-42.46,0-.17-.77,0Z"/><g id="Coconut"><path class="cls-3" d="M375.17,356.31a5.55,5.55,0,0,0-.73.93,29.46,29.46,0,0,0-4.05,7.37,15.76,15.76,0,0,0,1.43,12.58C374,381,391,386,395.58,385.53c6-.65,19.56-14.26,19.53-18.15,0-1,.47-1.19.18-2.14a19.78,19.78,0,0,0-1.42-2.79c-1.77-3.09-6.2-9.62-6.62-9.73a33.15,33.15,0,0,0-3.61-.77,39.77,39.77,0,0,0-5.23-.4c-7.11-.07-14.13,1.58-20.87,3.7l-.81.26a4.76,4.76,0,0,0-1.32.59Z"/><path class="cls-4" d="M370.44,364a36,36,0,0,0,1,19.47c3.55,10.51,11.19,15.09,12.1,15.45s4.13,2.32,7.95,2c0,0,.15.1,1.06-.3s4-.18,5-.34a8.2,8.2,0,0,0,4.76-2.19c2-1.83,9.52-6.52,12.67-15.5a27.22,27.22,0,0,0-.05-18.19,19.13,19.13,0,0,1-3.23,5.51c-2.22,2.6-4,2.33-4,2.33s-1.4.12-5.37,2.08c0,0-2.58,1.28-7.74,1s-9.83-.36-12.07-2.53c0,0-.52-1.4-2.46-.91s-8.1.12-9.19-3.36A7.07,7.07,0,0,1,370.44,364Z"/><path class="cls-5" d="M370.39,364.21a38.86,38.86,0,0,0,1.33,19.67c3.55,10.51,11.2,15.09,12.11,15.45s4.13,2.32,7.95,2c0,0,.15.09,1.06-.3s4-.18,5-.34a8.24,8.24,0,0,0,4.77-2.19c2-1.83,9.52-6.52,12.67-15.51a26.92,26.92,0,0,0-.15-18.18A17.49,17.49,0,0,1,412,370.3c-2.22,2.6-4,2.33-4,2.33s-1.4.12-5.37,2.07c0,0-2.58,1.28-7.74,1s-10-.48-12.24-2.64a2.18,2.18,0,0,0-2.3-.8c-1.94.49-8.37.13-9.46-3.35A7.75,7.75,0,0,1,370.39,364.21Z"/><path class="cls-6" d="M370.44,364a38,38,0,0,0,.93,20.2c3.59,10.52,11.3,15.09,12.22,15.46s4.16,2.31,8,2c0,0,.16.09,1.07-.31s4.05-.18,5-.33a8.34,8.34,0,0,0,4.8-2.2c2.05-1.82,9.61-6.52,12.79-15.5a27,27,0,0,0,0-18.17,19.18,19.18,0,0,1-3.27,5.49c-2.24,2.6-4,2.34-4,2.34s-1.4.12-5.42,2.07c0,0-2.6,1.28-7.8,1s-9.92-.37-12.19-2.53c0,0-.52-1.41-2.48-.92s-8.18.12-9.28-3.35C370.82,369.26,369.77,366.14,370.44,364Z"/><path class="cls-4" d="M407.26,352.71s.56,4.43-1.45,5.48-10.68,3.63-10.68,3.63l-9.23-2.7-1-.08,1-2.22,3-1.33a10.21,10.21,0,0,1,8.45-4.14A37.5,37.5,0,0,1,407.26,352.71Z"/><path class="cls-5" d="M406.4,353s.52,4.09-1.34,5.06-9.86,3.35-9.86,3.35l-8.52-2.5-1-.07.93-2.05,2.75-1.22a9.43,9.43,0,0,1,7.8-3.83A34.66,34.66,0,0,1,406.4,353Z"/><path class="cls-7" d="M406.09,353.11s.51,4-1.3,4.91-9.56,3.25-9.56,3.25L387,358.85l-.94-.07.91-2,2.67-1.19a9.14,9.14,0,0,1,7.57-3.71A33.47,33.47,0,0,1,406.09,353.11Z"/><path class="cls-8" d="M407.26,352.71s.36.1,3.58,4.94c1.83,2.75,3.72,5.85,3.88,6.2s.42,1,.54,1.3a27,27,0,0,1-1.83,22.27,31.48,31.48,0,0,1-1.74,2.63,34.06,34.06,0,0,1-3.38,3.9c-2.29,2.17-5.8,4.87-5.8,4.87a8.41,8.41,0,0,1-5.36,2.23,33.17,33.17,0,0,0-4.13.18c-.43.06-1,.55-1.41.43s.24-1.8,5.27-2.81,9.05-7.68,9.69-9.87,5.58-17.37,4.3-22.22a34.83,34.83,0,0,0-4.15-9.52S407.58,356.24,407.26,352.71Z"/><path class="cls-9" d="M386.93,356.8l2.67-1.19a9.14,9.14,0,0,1,7.57-3.71,33.47,33.47,0,0,1,8.92,1.21s.51,4-1.3,4.91c0,0,.74-2.6-.6-3.15s-9.39-.27-11.12.95S386.93,356.8,386.93,356.8Z"/><path class="cls-10" d="M397.44,360.61,404.81,340s2-4.94,5.85-3.6,11.77,4.33,11.77,4.33l.73-1.83-12.07-4.33a7.16,7.16,0,0,0-7.92,4.57c-2.2,5.67-7.93,22.19-7.93,22.19Z"/><path class="cls-11" d="M396.27,361l8-21.89s2.07-5.18,6.83-3.47,11.69,4.27,11.69,4.27l-.31.8-11.77-4.33s-3.45-1.58-5.78,3.4l-7.44,20.86Z"/></g><path class="cls-1" d="M300.05,413.43a21.46,21.46,0,0,1-9.3-2.38l-.28-.13c-2.89-1.2-11.68-7.14-15.82-19.3a44.23,44.23,0,0,1-2-18.63,21.66,21.66,0,0,1,.39-2.86l0-.19c.08-.49.16-.86.22-1.17,0-.12.1-.46.12-.52a5.77,5.77,0,0,1,.21-.79l.13,0a36.51,36.51,0,0,1,4.7-8.53,11.26,11.26,0,0,1,1.58-1.94,9.13,9.13,0,0,1,.86-.73,10.48,10.48,0,0,1,3.17-1.55l.86-.27a81.44,81.44,0,0,1,17.82-3.79l.66-.13c1.38-3.88,2.42-6.71,3.09-8.44a13.26,13.26,0,0,1,12.76-8.75,12.93,12.93,0,0,1,2.34.2l.49.09,18.78,6.74-5.51,13.77-15.58-5.73L318.56,352a6.85,6.85,0,0,1,3.16,2.2l1.69,1.66v.56c1.34,1.89,3,4.45,4.23,6.38a32.21,32.21,0,0,1,2.28,3.88l.44,1c0,.1.17.41.19.48a28.12,28.12,0,0,1,1.77,7.32l.05.39c0,.16.06.68.06.68a32.32,32.32,0,0,1,.12,4.21V381c0,.43,0,.82-.08,1.22s0,.65-.09,1-.06.52-.09.77c-.07.55-.16,1.14-.27,1.73v.09l0,.15a32.53,32.53,0,0,1-1.29,4.83,31.36,31.36,0,0,1-2,4.51c-.07.16-.16.34-.26.52l-.07.13c-.06.09-.54.92-1.29,2-.18.27-.37.54-.57.82l-.29.41-.09.11c-.26.34-.51.67-.77,1l-.24.3-.63.76a32.3,32.3,0,0,1-2.38,2.55l-.83.77c-.86.8-1.86,1.65-3,2.55s-1.89,1.52-2.28,1.82a14.37,14.37,0,0,1-2.12,1.56,13.46,13.46,0,0,1-1.59.85l-.25.11-.16.17-2.45.72h-.18a9.1,9.1,0,0,1-.91.16l-.24,0a18.54,18.54,0,0,1-2.76.15l-1.23,0h-.22a8,8,0,0,1-1.86.48,6,6,0,0,1-.94.07ZM286,371l0-.17-.76,0Z"/><path class="cls-2" d="M294.72,408.1a21.41,21.41,0,0,1-9.3-2.38l-.28-.13c-2.89-1.2-11.68-7.15-15.82-19.3a44.11,44.11,0,0,1-2-18.64,21.5,21.5,0,0,1,.39-2.85l0-.2c.09-.48.16-.86.23-1.17,0-.11.1-.45.11-.51.06-.26.13-.53.21-.79l.14,0a36.06,36.06,0,0,1,4.69-8.52,12.33,12.33,0,0,1,1.58-1.94,8,8,0,0,1,.87-.73,10.48,10.48,0,0,1,3.17-1.55l.86-.27a81.48,81.48,0,0,1,17.81-3.79l.66-.13c1.39-3.89,2.43-6.72,3.1-8.45A13.26,13.26,0,0,1,314,328a12.83,12.83,0,0,1,2.34.2l.49.09,18.79,6.74-5.51,13.76-15.58-5.73-1.26,3.52a6.84,6.84,0,0,1,3.17,2.2l1.68,1.66V351c1.35,1.89,3,4.45,4.24,6.38a31.22,31.22,0,0,1,2.28,3.88c.16.38.31.72.43,1,.05.1.17.41.2.48a28.13,28.13,0,0,1,1.77,7.31l.05.39c0,.17.06.69.06.69a32.17,32.17,0,0,1,.12,4.2v.27c0,.43,0,.82-.08,1.22s-.05.65-.09,1-.06.52-.09.77c-.08.55-.17,1.13-.28,1.73v.08l0,.16a34.52,34.52,0,0,1-1.29,4.83,31.36,31.36,0,0,1-2,4.51c-.07.15-.16.34-.26.52l-.08.13c-.05.09-.53.92-1.28,2l-.57.81-.3.41-.09.12c-.25.34-.5.67-.76,1l-.24.29c-.2.25-.42.52-.64.77a32.3,32.3,0,0,1-2.38,2.55l-.83.77c-.85.79-1.85,1.65-3,2.55s-1.88,1.52-2.27,1.82a16,16,0,0,1-2.12,1.56,16.17,16.17,0,0,1-1.59.85l-.25.11-.16.16-2.46.73h-.17c-.3.06-.61.12-.92.16l-.23,0a20.13,20.13,0,0,1-2.77.15c-.4,0-.82,0-1.22,0h-.23a7.84,7.84,0,0,1-1.86.48,7.41,7.41,0,0,1-.93.07Zm-14.1-42.46,0-.17-.77,0Z"/><g id="Coconut-2" data-name="Coconut"><path class="cls-3" d="M279.17,356.31a5.55,5.55,0,0,0-.73.93,29.46,29.46,0,0,0-4.05,7.37,15.76,15.76,0,0,0,1.43,12.58C278,381,295,386,299.58,385.53c6-.65,19.56-14.26,19.53-18.15,0-1,.47-1.19.18-2.14a19.78,19.78,0,0,0-1.42-2.79c-1.77-3.09-6.2-9.62-6.62-9.73a33.15,33.15,0,0,0-3.61-.77,39.77,39.77,0,0,0-5.23-.4c-7.11-.07-14.13,1.58-20.87,3.7l-.81.26a4.76,4.76,0,0,0-1.32.59Z"/><path class="cls-4" d="M274.44,364a36,36,0,0,0,1,19.47c3.55,10.51,11.19,15.09,12.1,15.45s4.13,2.32,7.95,2c0,0,.15.1,1.06-.3s4-.18,5-.34a8.2,8.2,0,0,0,4.76-2.19c2-1.83,9.52-6.52,12.67-15.5a27.22,27.22,0,0,0-.05-18.19,19.13,19.13,0,0,1-3.23,5.51c-2.22,2.6-4,2.33-4,2.33s-1.4.12-5.37,2.08c0,0-2.58,1.28-7.74,1s-9.83-.36-12.07-2.53c0,0-.52-1.4-2.46-.91s-8.1.12-9.19-3.36A7.07,7.07,0,0,1,274.44,364Z"/><path class="cls-5" d="M274.39,364.21a38.86,38.86,0,0,0,1.33,19.67c3.55,10.51,11.2,15.09,12.11,15.45s4.13,2.32,7.95,2c0,0,.15.09,1.06-.3s4-.18,5-.34a8.24,8.24,0,0,0,4.77-2.19c2-1.83,9.52-6.52,12.67-15.51a26.92,26.92,0,0,0-.15-18.18A17.49,17.49,0,0,1,316,370.3c-2.22,2.6-4,2.33-4,2.33s-1.4.12-5.37,2.07c0,0-2.58,1.28-7.74,1s-10-.48-12.24-2.64a2.18,2.18,0,0,0-2.3-.8c-1.94.49-8.37.13-9.46-3.35A7.75,7.75,0,0,1,274.39,364.21Z"/><path class="cls-6" d="M274.44,364a38,38,0,0,0,.93,20.2c3.59,10.52,11.3,15.09,12.22,15.46s4.16,2.31,8,2c0,0,.16.09,1.07-.31s4.05-.18,5-.33a8.34,8.34,0,0,0,4.8-2.2c2.05-1.82,9.61-6.52,12.79-15.5a27,27,0,0,0,0-18.17,19.18,19.18,0,0,1-3.27,5.49c-2.24,2.6-4,2.34-4,2.34s-1.4.12-5.42,2.07c0,0-2.6,1.28-7.8,1s-9.92-.37-12.19-2.53c0,0-.52-1.41-2.48-.92s-8.18.12-9.28-3.35C274.82,369.26,273.77,366.14,274.44,364Z"/><path class="cls-4" d="M311.26,352.71s.56,4.43-1.45,5.48-10.68,3.63-10.68,3.63l-9.23-2.7-1-.08,1-2.22,3-1.33a10.21,10.21,0,0,1,8.45-4.14A37.5,37.5,0,0,1,311.26,352.71Z"/><path class="cls-5" d="M310.4,353s.52,4.09-1.34,5.06-9.86,3.35-9.86,3.35l-8.52-2.5-1-.07.93-2.05,2.75-1.22a9.43,9.43,0,0,1,7.8-3.83A34.66,34.66,0,0,1,310.4,353Z"/><path class="cls-7" d="M310.09,353.11s.51,4-1.3,4.91-9.56,3.25-9.56,3.25L291,358.85l-.94-.07.91-2,2.67-1.19a9.14,9.14,0,0,1,7.57-3.71A33.47,33.47,0,0,1,310.09,353.11Z"/><path class="cls-8" d="M311.26,352.71s.36.1,3.58,4.94c1.83,2.75,3.72,5.85,3.88,6.2s.42,1,.54,1.3a27,27,0,0,1-1.83,22.27,31.48,31.48,0,0,1-1.74,2.63,34.06,34.06,0,0,1-3.38,3.9c-2.29,2.17-5.8,4.87-5.8,4.87a8.41,8.41,0,0,1-5.36,2.23,33.17,33.17,0,0,0-4.13.18c-.43.06-1,.55-1.41.43s.24-1.8,5.27-2.81,9.05-7.68,9.69-9.87,5.58-17.37,4.3-22.22a34.83,34.83,0,0,0-4.15-9.52S311.58,356.24,311.26,352.71Z"/><path class="cls-9" d="M290.93,356.8l2.67-1.19a9.14,9.14,0,0,1,7.57-3.71,33.47,33.47,0,0,1,8.92,1.21s.51,4-1.3,4.91c0,0,.74-2.6-.6-3.15s-9.39-.27-11.12.95S290.93,356.8,290.93,356.8Z"/><path class="cls-10" d="M301.44,360.61,308.81,340s2-4.94,5.85-3.6,11.77,4.33,11.77,4.33l.73-1.83-12.07-4.33a7.16,7.16,0,0,0-7.92,4.57c-2.2,5.67-7.93,22.19-7.93,22.19Z"/><path class="cls-11" d="M300.27,361l8-21.89s2.07-5.18,6.83-3.47,11.69,4.27,11.69,4.27l-.31.8-11.77-4.33s-3.45-1.58-5.78,3.4l-7.44,20.86Z"/></g><path class="cls-1" d="M204.05,413.43a21.46,21.46,0,0,1-9.3-2.38l-.28-.13c-2.89-1.2-11.68-7.14-15.82-19.3a44.23,44.23,0,0,1-2-18.63,21.66,21.66,0,0,1,.39-2.86l0-.19c.08-.49.16-.86.22-1.17,0-.12.1-.46.12-.52a5.77,5.77,0,0,1,.21-.79l.13,0a36.51,36.51,0,0,1,4.7-8.53,11.26,11.26,0,0,1,1.58-1.94,9.13,9.13,0,0,1,.86-.73,10.48,10.48,0,0,1,3.17-1.55l.86-.27a81.44,81.44,0,0,1,17.82-3.79l.66-.13c1.38-3.88,2.42-6.71,3.09-8.44a13.26,13.26,0,0,1,12.76-8.75,12.93,12.93,0,0,1,2.34.2l.49.09,18.78,6.74-5.51,13.77-15.58-5.73L222.56,352a6.85,6.85,0,0,1,3.16,2.2l1.69,1.66v.56c1.34,1.89,3,4.45,4.23,6.38a32.21,32.21,0,0,1,2.28,3.88l.44,1c0,.1.17.41.19.48a28.12,28.12,0,0,1,1.77,7.32l.05.39c0,.16.06.68.06.68a32.32,32.32,0,0,1,.12,4.21V381c0,.43,0,.82-.08,1.22s-.05.65-.09,1-.06.52-.09.77c-.07.55-.16,1.14-.27,1.73v.09l0,.15a32.53,32.53,0,0,1-1.29,4.83,31.36,31.36,0,0,1-2,4.51c-.07.16-.16.34-.26.52l-.07.13c-.06.09-.54.92-1.29,2-.18.27-.37.54-.57.82l-.29.41-.09.11c-.26.34-.51.67-.77,1l-.24.3-.63.76a32.3,32.3,0,0,1-2.38,2.55l-.83.77c-.86.8-1.86,1.65-3,2.55s-1.89,1.52-2.28,1.82a14.37,14.37,0,0,1-2.12,1.56,13.46,13.46,0,0,1-1.59.85l-.25.11-.16.17-2.45.72h-.18a9.1,9.1,0,0,1-.91.16l-.24,0a18.54,18.54,0,0,1-2.76.15l-1.23,0h-.22a8,8,0,0,1-1.86.48,6,6,0,0,1-.94.07ZM190,371l0-.17-.76,0Z"/><path class="cls-2" d="M198.72,408.1a21.41,21.41,0,0,1-9.3-2.38l-.28-.13c-2.89-1.2-11.68-7.15-15.82-19.3a44.11,44.11,0,0,1-2-18.64,21.5,21.5,0,0,1,.39-2.85l0-.2c.09-.48.16-.86.23-1.17,0-.11.1-.45.11-.51.06-.26.13-.53.21-.79l.14,0a36.06,36.06,0,0,1,4.69-8.52,12.33,12.33,0,0,1,1.58-1.94,8,8,0,0,1,.87-.73,10.48,10.48,0,0,1,3.17-1.55l.86-.27a81.48,81.48,0,0,1,17.81-3.79l.66-.13c1.39-3.89,2.43-6.72,3.1-8.45A13.26,13.26,0,0,1,218,328a12.83,12.83,0,0,1,2.34.2l.49.09,18.79,6.74-5.51,13.76-15.58-5.73-1.26,3.52a6.84,6.84,0,0,1,3.17,2.2l1.68,1.66V351c1.35,1.89,3,4.45,4.24,6.38a31.22,31.22,0,0,1,2.28,3.88c.16.38.31.72.43,1,0,.1.17.41.2.48a28.13,28.13,0,0,1,1.77,7.31l0,.39c0,.17.06.69.06.69a32.17,32.17,0,0,1,.12,4.2v.27c0,.43-.05.82-.08,1.22s0,.65-.09,1-.06.52-.09.77c-.08.55-.17,1.13-.28,1.73v.08l0,.16a34.52,34.52,0,0,1-1.29,4.83,31.36,31.36,0,0,1-2,4.51c-.07.15-.16.34-.26.52l-.08.13c-.05.09-.53.92-1.28,2l-.57.81-.3.41-.09.12c-.25.34-.5.67-.76,1l-.24.29c-.2.25-.42.52-.64.77a32.3,32.3,0,0,1-2.38,2.55l-.83.77c-.85.79-1.85,1.65-3,2.55s-1.88,1.52-2.27,1.82a16,16,0,0,1-2.12,1.56,16.17,16.17,0,0,1-1.59.85l-.25.11-.16.16-2.46.73h-.17c-.3.06-.61.12-.92.16l-.23,0a20.13,20.13,0,0,1-2.77.15c-.4,0-.82,0-1.22,0h-.23a7.84,7.84,0,0,1-1.86.48,7.41,7.41,0,0,1-.93.07Zm-14.1-42.46,0-.17-.77,0Z"/><g id="Coconut-3" data-name="Coconut"><path class="cls-3" d="M183.17,356.31a5.55,5.55,0,0,0-.73.93,29.46,29.46,0,0,0-4.05,7.37,15.76,15.76,0,0,0,1.43,12.58C182,381,199,386,203.58,385.53c6-.65,19.56-14.26,19.53-18.15,0-1,.47-1.19.18-2.14a19.78,19.78,0,0,0-1.42-2.79c-1.77-3.09-6.2-9.62-6.62-9.73a33.15,33.15,0,0,0-3.61-.77,39.77,39.77,0,0,0-5.23-.4c-7.11-.07-14.13,1.58-20.87,3.7l-.81.26a4.76,4.76,0,0,0-1.32.59Z"/><path class="cls-4" d="M178.44,364a36,36,0,0,0,1,19.47c3.55,10.51,11.19,15.09,12.1,15.45s4.13,2.32,8,2c0,0,.15.1,1.06-.3s4-.18,5-.34a8.2,8.2,0,0,0,4.76-2.19c2-1.83,9.52-6.52,12.67-15.5a27.22,27.22,0,0,0-.05-18.19,19.13,19.13,0,0,1-3.23,5.51c-2.22,2.6-4,2.33-4,2.33s-1.4.12-5.37,2.08c0,0-2.58,1.28-7.74,1s-9.83-.36-12.07-2.53c0,0-.52-1.4-2.46-.91s-8.1.12-9.19-3.36A7.07,7.07,0,0,1,178.44,364Z"/><path class="cls-5" d="M178.39,364.21a38.86,38.86,0,0,0,1.33,19.67c3.55,10.51,11.2,15.09,12.11,15.45s4.13,2.32,7.95,2c0,0,.15.09,1.06-.3s4-.18,5-.34a8.24,8.24,0,0,0,4.77-2.19c2-1.83,9.52-6.52,12.67-15.51a26.92,26.92,0,0,0-.15-18.18A17.49,17.49,0,0,1,220,370.3c-2.22,2.6-4,2.33-4,2.33s-1.4.12-5.37,2.07c0,0-2.58,1.28-7.74,1s-10-.48-12.24-2.64a2.18,2.18,0,0,0-2.3-.8c-1.94.49-8.37.13-9.46-3.35A7.75,7.75,0,0,1,178.39,364.21Z"/><path class="cls-6" d="M178.44,364a38,38,0,0,0,.93,20.2c3.59,10.52,11.3,15.09,12.22,15.46s4.16,2.31,8,2c0,0,.16.09,1.07-.31s4-.18,5-.33a8.34,8.34,0,0,0,4.8-2.2c2.05-1.82,9.61-6.52,12.79-15.5a27,27,0,0,0,0-18.17,19.18,19.18,0,0,1-3.27,5.49c-2.24,2.6-4,2.34-4,2.34s-1.4.12-5.42,2.07c0,0-2.6,1.28-7.8,1s-9.92-.37-12.19-2.53c0,0-.52-1.41-2.48-.92s-8.18.12-9.28-3.35C178.82,369.26,177.77,366.14,178.44,364Z"/><path class="cls-4" d="M215.26,352.71s.56,4.43-1.45,5.48-10.68,3.63-10.68,3.63l-9.23-2.7-1.05-.08,1-2.22,3-1.33a10.21,10.21,0,0,1,8.45-4.14A37.5,37.5,0,0,1,215.26,352.71Z"/><path class="cls-5" d="M214.4,353s.52,4.09-1.34,5.06-9.86,3.35-9.86,3.35l-8.52-2.5-1-.07.93-2.05,2.75-1.22a9.43,9.43,0,0,1,7.8-3.83A34.66,34.66,0,0,1,214.4,353Z"/><path class="cls-7" d="M214.09,353.11s.51,4-1.3,4.91-9.56,3.25-9.56,3.25L195,358.85l-.94-.07.91-2,2.67-1.19a9.14,9.14,0,0,1,7.57-3.71A33.47,33.47,0,0,1,214.09,353.11Z"/><path class="cls-8" d="M215.26,352.71s.36.1,3.58,4.94c1.83,2.75,3.72,5.85,3.88,6.2s.42,1,.54,1.3a27,27,0,0,1-1.83,22.27,31.48,31.48,0,0,1-1.74,2.63,34.06,34.06,0,0,1-3.38,3.9c-2.29,2.17-5.8,4.87-5.8,4.87a8.41,8.41,0,0,1-5.36,2.23,33.17,33.17,0,0,0-4.13.18c-.43.06-1,.55-1.41.43s.24-1.8,5.27-2.81,9.05-7.68,9.69-9.87,5.58-17.37,4.3-22.22a34.83,34.83,0,0,0-4.15-9.52S215.58,356.24,215.26,352.71Z"/><path class="cls-9" d="M194.93,356.8l2.67-1.19a9.14,9.14,0,0,1,7.57-3.71,33.47,33.47,0,0,1,8.92,1.21s.51,4-1.3,4.91c0,0,.74-2.6-.6-3.15s-9.39-.27-11.12.95S194.93,356.8,194.93,356.8Z"/><path class="cls-10" d="M205.44,360.61,212.81,340s2-4.94,5.85-3.6,11.77,4.33,11.77,4.33l.73-1.83-12.07-4.33a7.16,7.16,0,0,0-7.92,4.57c-2.2,5.67-7.93,22.19-7.93,22.19Z"/><path class="cls-11" d="M204.27,361l7.95-21.89s2.07-5.18,6.83-3.47,11.69,4.27,11.69,4.27l-.31.8-11.77-4.33s-3.45-1.58-5.78,3.4l-7.44,20.86Z"/></g><path class="cls-1" d="M108.05,413.43a21.46,21.46,0,0,1-9.3-2.38l-.28-.13c-2.89-1.2-11.68-7.14-15.82-19.3a44.23,44.23,0,0,1-2-18.63,21.66,21.66,0,0,1,.39-2.86l0-.19c.08-.49.16-.86.22-1.17,0-.12.1-.46.12-.52a5.77,5.77,0,0,1,.21-.79l.13,0a36.51,36.51,0,0,1,4.7-8.53A11.26,11.26,0,0,1,88.07,357a9.13,9.13,0,0,1,.86-.73,10.48,10.48,0,0,1,3.17-1.55l.86-.27a81.44,81.44,0,0,1,17.82-3.79l.66-.13c1.38-3.88,2.42-6.71,3.09-8.44a13.26,13.26,0,0,1,12.76-8.75,12.93,12.93,0,0,1,2.34.2l.49.09,18.78,6.74-5.51,13.77-15.58-5.73L126.56,352a6.85,6.85,0,0,1,3.16,2.2l1.69,1.66v.56c1.34,1.89,3,4.45,4.23,6.38a32.21,32.21,0,0,1,2.28,3.88l.44,1c0,.1.17.41.19.48a28.12,28.12,0,0,1,1.77,7.32l.05.39c0,.16.06.68.06.68a32.32,32.32,0,0,1,.12,4.21V381c0,.43,0,.82-.08,1.22s-.05.65-.09,1-.06.52-.09.77c-.07.55-.16,1.14-.27,1.73v.09l0,.15a32.53,32.53,0,0,1-1.29,4.83,31.36,31.36,0,0,1-2,4.51c-.07.16-.16.34-.26.52l-.07.13c-.06.09-.54.92-1.29,2-.18.27-.37.54-.57.82l-.29.41-.09.11c-.26.34-.51.67-.77,1l-.24.3-.63.76a32.3,32.3,0,0,1-2.38,2.55l-.83.77c-.86.8-1.86,1.65-3,2.55s-1.89,1.52-2.28,1.82a14.37,14.37,0,0,1-2.12,1.56,13.46,13.46,0,0,1-1.59.85l-.25.11-.16.17-2.45.72h-.18a9.1,9.1,0,0,1-.91.16l-.24,0a18.54,18.54,0,0,1-2.76.15l-1.23,0h-.22a8,8,0,0,1-1.86.48,6,6,0,0,1-.94.07ZM94,371l0-.17-.76,0Z"/><path class="cls-2" d="M102.72,408.1a21.41,21.41,0,0,1-9.3-2.38l-.28-.13c-2.89-1.2-11.68-7.15-15.82-19.3a44.11,44.11,0,0,1-2-18.64,21.5,21.5,0,0,1,.39-2.85l0-.2c.09-.48.16-.86.23-1.17,0-.11.1-.45.11-.51.06-.26.13-.53.21-.79l.14,0a36.06,36.06,0,0,1,4.69-8.52,12.33,12.33,0,0,1,1.58-1.94,8,8,0,0,1,.87-.73,10.48,10.48,0,0,1,3.17-1.55l.86-.27a81.48,81.48,0,0,1,17.81-3.79l.66-.13c1.39-3.89,2.43-6.72,3.1-8.45A13.26,13.26,0,0,1,122,328a12.83,12.83,0,0,1,2.34.2l.49.09,18.79,6.74-5.51,13.76-15.58-5.73-1.26,3.52a6.84,6.84,0,0,1,3.17,2.2l1.68,1.66V351c1.35,1.89,3,4.45,4.24,6.38a31.22,31.22,0,0,1,2.28,3.88c.16.38.31.72.43,1,0,.1.17.41.2.48a28.13,28.13,0,0,1,1.77,7.31l0,.39c0,.17.06.69.06.69a32.17,32.17,0,0,1,.12,4.2v.27c0,.43-.05.82-.08,1.22s0,.65-.09,1-.06.52-.09.77c-.08.55-.17,1.13-.28,1.73v.08l0,.16a34.52,34.52,0,0,1-1.29,4.83,31.36,31.36,0,0,1-2,4.51c-.07.15-.16.34-.26.52l-.08.13c-.05.09-.53.92-1.28,2l-.57.81-.3.41-.09.12c-.25.34-.5.67-.76,1l-.24.29c-.2.25-.42.52-.64.77a32.3,32.3,0,0,1-2.38,2.55l-.83.77c-.85.79-1.85,1.65-3,2.55s-1.88,1.52-2.27,1.82a16,16,0,0,1-2.12,1.56,16.17,16.17,0,0,1-1.59.85l-.25.11-.16.16-2.46.73h-.17c-.3.06-.61.12-.92.16l-.23,0a20.13,20.13,0,0,1-2.77.15c-.4,0-.82,0-1.22,0h-.23a7.84,7.84,0,0,1-1.86.48,7.41,7.41,0,0,1-.93.07Zm-14.1-42.46,0-.17-.77,0Z"/><g id="Coconut-4" data-name="Coconut"><path class="cls-3" d="M87.17,356.31a5.55,5.55,0,0,0-.73.93,29.46,29.46,0,0,0-4,7.37,15.76,15.76,0,0,0,1.43,12.58C86,381,103,386,107.58,385.53c6-.65,19.56-14.26,19.53-18.15,0-1,.47-1.19.18-2.14a19.78,19.78,0,0,0-1.42-2.79c-1.77-3.09-6.2-9.62-6.62-9.73a33.15,33.15,0,0,0-3.61-.77,39.77,39.77,0,0,0-5.23-.4c-7.11-.07-14.13,1.58-20.87,3.7l-.81.26a4.76,4.76,0,0,0-1.32.59Z"/><path class="cls-4" d="M82.44,364a36,36,0,0,0,1,19.47C87,394,94.66,398.58,95.57,398.94s4.13,2.32,8,2c0,0,.15.1,1.06-.3s4-.18,5-.34a8.2,8.2,0,0,0,4.76-2.19c2-1.83,9.52-6.52,12.67-15.5a27.22,27.22,0,0,0,0-18.19,19.13,19.13,0,0,1-3.23,5.51c-2.22,2.6-4,2.33-4,2.33s-1.4.12-5.37,2.08c0,0-2.58,1.28-7.74,1s-9.83-.36-12.07-2.53c0,0-.52-1.4-2.46-.91s-8.1.12-9.19-3.36A7.07,7.07,0,0,1,82.44,364Z"/><path class="cls-5" d="M82.39,364.21a38.86,38.86,0,0,0,1.33,19.67c3.55,10.51,11.2,15.09,12.11,15.45s4.13,2.32,8,2c0,0,.15.09,1.06-.3s4-.18,5-.34a8.24,8.24,0,0,0,4.77-2.19c2-1.83,9.52-6.52,12.67-15.51a26.92,26.92,0,0,0-.15-18.18A17.49,17.49,0,0,1,124,370.3c-2.22,2.6-4,2.33-4,2.33s-1.4.12-5.37,2.07c0,0-2.58,1.28-7.74,1s-10-.48-12.24-2.64a2.18,2.18,0,0,0-2.3-.8c-1.94.49-8.37.13-9.46-3.35A7.75,7.75,0,0,1,82.39,364.21Z"/><path class="cls-6" d="M82.44,364a38,38,0,0,0,.93,20.2c3.59,10.52,11.3,15.09,12.22,15.46s4.16,2.31,8,2c0,0,.16.09,1.07-.31s4-.18,5-.33a8.34,8.34,0,0,0,4.8-2.2c2-1.82,9.61-6.52,12.79-15.5a27,27,0,0,0,0-18.17,19.18,19.18,0,0,1-3.27,5.49c-2.24,2.6-4,2.34-4,2.34s-1.4.12-5.42,2.07c0,0-2.6,1.28-7.8,1s-9.92-.37-12.19-2.53c0,0-.52-1.41-2.48-.92s-8.18.12-9.28-3.35C82.82,369.26,81.77,366.14,82.44,364Z"/><path class="cls-4" d="M119.26,352.71s.56,4.43-1.45,5.48-10.68,3.63-10.68,3.63l-9.23-2.7L96.85,359l1-2.22,3-1.33a10.21,10.21,0,0,1,8.45-4.14A37.5,37.5,0,0,1,119.26,352.71Z"/><path class="cls-5" d="M118.4,353s.52,4.09-1.34,5.06-9.86,3.35-9.86,3.35l-8.52-2.5-1-.07.93-2.05,2.75-1.22a9.43,9.43,0,0,1,7.8-3.83A34.66,34.66,0,0,1,118.4,353Z"/><path class="cls-7" d="M118.09,353.11s.51,4-1.3,4.91-9.56,3.25-9.56,3.25L99,358.85l-.94-.07.91-2,2.67-1.19a9.14,9.14,0,0,1,7.57-3.71A33.47,33.47,0,0,1,118.09,353.11Z"/><path class="cls-8" d="M119.26,352.71s.36.1,3.58,4.94c1.83,2.75,3.72,5.85,3.88,6.2s.42,1,.54,1.3a27,27,0,0,1-1.83,22.27,31.48,31.48,0,0,1-1.74,2.63,34.06,34.06,0,0,1-3.38,3.9c-2.29,2.17-5.8,4.87-5.8,4.87a8.41,8.41,0,0,1-5.36,2.23,33.17,33.17,0,0,0-4.13.18c-.43.06-1,.55-1.41.43s.24-1.8,5.27-2.81,9.05-7.68,9.69-9.87,5.58-17.37,4.3-22.22a34.83,34.83,0,0,0-4.15-9.52S119.58,356.24,119.26,352.71Z"/><path class="cls-9" d="M98.93,356.8l2.67-1.19a9.14,9.14,0,0,1,7.57-3.71,33.47,33.47,0,0,1,8.92,1.21s.51,4-1.3,4.91c0,0,.74-2.6-.6-3.15s-9.39-.27-11.12.95S98.93,356.8,98.93,356.8Z"/><path class="cls-10" d="M109.44,360.61,116.81,340s2-4.94,5.85-3.6,11.77,4.33,11.77,4.33l.73-1.83-12.07-4.33a7.16,7.16,0,0,0-7.92,4.57c-2.2,5.67-7.93,22.19-7.93,22.19Z"/><path class="cls-11" d="M108.27,361l8-21.89s2.07-5.18,6.83-3.47,11.69,4.27,11.69,4.27l-.31.8-11.77-4.33s-3.45-1.58-5.78,3.4l-7.44,20.86Z"/></g><path class="cls-1" d="M357.65,339.83a21.46,21.46,0,0,1-9.3-2.38l-.28-.13c-2.89-1.2-11.68-7.14-15.82-19.3a44.23,44.23,0,0,1-2-18.63,21.66,21.66,0,0,1,.39-2.86l0-.19c.08-.49.16-.86.22-1.17,0-.12.1-.46.12-.52a5.77,5.77,0,0,1,.21-.79l.13,0a36.51,36.51,0,0,1,4.7-8.53,11.26,11.26,0,0,1,1.58-1.94,9.13,9.13,0,0,1,.86-.73,10.48,10.48,0,0,1,3.17-1.55l.86-.27a81.44,81.44,0,0,1,17.82-3.79L361,277c1.38-3.88,2.42-6.71,3.09-8.44a13.26,13.26,0,0,1,12.76-8.75,12.93,12.93,0,0,1,2.34.2l.49.09,18.78,6.74L393,280.57l-15.58-5.73-1.25,3.51a6.85,6.85,0,0,1,3.16,2.2l1.69,1.66v.56c1.34,1.89,3,4.45,4.23,6.38a32.21,32.21,0,0,1,2.28,3.88l.44,1c0,.1.17.41.19.48a28.12,28.12,0,0,1,1.77,7.32l.05.39c0,.16.06.68.06.68a32.32,32.32,0,0,1,.12,4.21v.26c0,.43,0,.82-.08,1.22s-.05.65-.09,1-.06.52-.09.77c-.07.55-.16,1.14-.27,1.73v.09l0,.15a32.53,32.53,0,0,1-1.29,4.83,31.36,31.36,0,0,1-2,4.51c-.07.16-.16.34-.26.52l-.07.13c-.06.09-.54.92-1.29,2-.18.27-.37.54-.57.82l-.29.41-.09.11c-.26.34-.51.67-.77,1l-.24.3-.63.76a32.3,32.3,0,0,1-2.38,2.55l-.83.77c-.86.8-1.86,1.65-3,2.55s-1.89,1.52-2.28,1.82a14.37,14.37,0,0,1-2.12,1.56,13.46,13.46,0,0,1-1.59.85l-.25.11-.16.17-2.45.72h-.18a9.1,9.1,0,0,1-.91.16l-.24,0a18.54,18.54,0,0,1-2.76.15l-1.23,0h-.22a8,8,0,0,1-1.86.48,6,6,0,0,1-.94.07Zm-14.1-42.46,0-.17-.76,0Z"/><path class="cls-2" d="M352.32,334.5a21.41,21.41,0,0,1-9.3-2.38l-.28-.13c-2.89-1.2-11.68-7.15-15.82-19.3a44.11,44.11,0,0,1-2-18.64,21.5,21.5,0,0,1,.39-2.85l0-.2c.09-.48.16-.86.23-1.17,0-.11.1-.45.11-.51.06-.26.13-.53.21-.79l.14,0a36.06,36.06,0,0,1,4.69-8.52,12.33,12.33,0,0,1,1.58-1.94,8,8,0,0,1,.87-.73,10.48,10.48,0,0,1,3.17-1.55l.86-.27A81.48,81.48,0,0,1,355,271.76l.66-.13c1.39-3.89,2.43-6.72,3.1-8.45a13.26,13.26,0,0,1,12.75-8.74,12.83,12.83,0,0,1,2.34.2l.49.09,18.79,6.74-5.51,13.76-15.58-5.73L370.82,273a6.84,6.84,0,0,1,3.17,2.2l1.68,1.66v.56c1.35,1.89,3,4.45,4.24,6.38a31.22,31.22,0,0,1,2.28,3.88c.16.38.31.72.43,1,.05.1.17.41.2.48a28.13,28.13,0,0,1,1.77,7.31l.05.39c0,.17.06.69.06.69a32.17,32.17,0,0,1,.12,4.2v.27c0,.43-.05.82-.08,1.22s-.05.65-.09,1-.06.52-.09.77c-.08.55-.17,1.13-.28,1.73v.08l0,.16a34.52,34.52,0,0,1-1.29,4.83,31.36,31.36,0,0,1-2,4.51c-.07.15-.16.34-.26.52l-.08.13c-.05.09-.53.92-1.28,2l-.57.81-.3.41-.09.12c-.25.34-.5.67-.76,1l-.24.29c-.2.25-.42.52-.64.77a32.3,32.3,0,0,1-2.38,2.55l-.83.77c-.85.79-1.85,1.65-3,2.55s-1.88,1.52-2.27,1.82a16,16,0,0,1-2.12,1.56,16.17,16.17,0,0,1-1.59.85l-.25.11-.16.16-2.46.73h-.17c-.3.06-.61.12-.92.16l-.23,0a20.13,20.13,0,0,1-2.77.15c-.4,0-.82,0-1.22,0h-.23a7.84,7.84,0,0,1-1.86.48,7.41,7.41,0,0,1-.93.07ZM338.22,292l0-.17-.77,0Z"/><g id="Coconut-5" data-name="Coconut"><path class="cls-3" d="M336.77,282.71a5.55,5.55,0,0,0-.73.93A29.46,29.46,0,0,0,332,291a15.76,15.76,0,0,0,1.43,12.58c2.17,3.76,19.17,8.84,23.76,8.34,6-.65,19.56-14.26,19.53-18.15,0-1,.47-1.19.18-2.14a19.78,19.78,0,0,0-1.42-2.79c-1.77-3.09-6.2-9.62-6.62-9.73a33.15,33.15,0,0,0-3.61-.77A39.77,39.77,0,0,0,360,278c-7.11-.07-14.13,1.58-20.87,3.7l-.81.26a4.76,4.76,0,0,0-1.32.59Z"/><path class="cls-4" d="M332,290.42a36,36,0,0,0,1,19.47c3.55,10.51,11.19,15.09,12.1,15.45s4.13,2.32,7.95,2c0,0,.15.1,1.06-.3s4-.18,5-.34a8.2,8.2,0,0,0,4.76-2.19c2-1.83,9.52-6.52,12.67-15.5a27.22,27.22,0,0,0,0-18.19,19.13,19.13,0,0,1-3.23,5.51c-2.22,2.6-4,2.33-4,2.33s-1.4.12-5.37,2.08c0,0-2.58,1.28-7.74,1s-9.83-.36-12.07-2.53c0,0-.52-1.4-2.46-.91s-8.1.12-9.19-3.36A7.07,7.07,0,0,1,332,290.42Z"/><path class="cls-5" d="M332,290.61a38.86,38.86,0,0,0,1.33,19.67c3.55,10.51,11.2,15.09,12.11,15.45s4.13,2.32,7.95,2c0,0,.15.09,1.06-.3s4-.18,5-.34a8.24,8.24,0,0,0,4.77-2.19c2-1.83,9.52-6.52,12.67-15.51a26.92,26.92,0,0,0-.15-18.18,17.49,17.49,0,0,1-3.13,5.51c-2.22,2.6-4,2.33-4,2.33s-1.4.12-5.37,2.07c0,0-2.58,1.28-7.74,1s-10-.48-12.24-2.64a2.18,2.18,0,0,0-2.3-.8c-1.94.49-8.37.13-9.46-3.35A7.75,7.75,0,0,1,332,290.61Z"/><path class="cls-6" d="M332,290.42a38,38,0,0,0,.93,20.2c3.59,10.52,11.3,15.09,12.22,15.46s4.16,2.31,8,2c0,0,.16.09,1.07-.31s4.05-.18,5-.33a8.34,8.34,0,0,0,4.8-2.2c2.05-1.82,9.61-6.52,12.79-15.5a27,27,0,0,0,0-18.17,19.18,19.18,0,0,1-3.27,5.49c-2.24,2.6-4,2.34-4,2.34s-1.4.12-5.42,2.07c0,0-2.6,1.28-7.8,1s-9.92-.37-12.19-2.53c0,0-.52-1.41-2.48-.92s-8.18.12-9.28-3.35C332.42,295.66,331.37,292.54,332,290.42Z"/><path class="cls-4" d="M368.86,279.11s.56,4.43-1.45,5.48-10.68,3.63-10.68,3.63l-9.23-2.7-1.05-.08,1-2.22,3-1.33a10.21,10.21,0,0,1,8.45-4.14A37.5,37.5,0,0,1,368.86,279.11Z"/><path class="cls-5" d="M368,279.41s.52,4.09-1.34,5.06-9.86,3.35-9.86,3.35l-8.52-2.5-1-.07.93-2.05L351,282a9.43,9.43,0,0,1,7.8-3.83A34.66,34.66,0,0,1,368,279.41Z"/><path class="cls-7" d="M367.69,279.51s.51,4-1.3,4.91-9.56,3.25-9.56,3.25l-8.27-2.42-.94-.07.91-2L351.2,282a9.14,9.14,0,0,1,7.57-3.71A33.47,33.47,0,0,1,367.69,279.51Z"/><path class="cls-8" d="M368.86,279.11s.36.1,3.58,4.94c1.83,2.75,3.72,5.85,3.88,6.2s.42,1,.54,1.3A27,27,0,0,1,375,313.82a31.48,31.48,0,0,1-1.74,2.63,34.06,34.06,0,0,1-3.38,3.9c-2.29,2.17-5.8,4.87-5.8,4.87a8.41,8.41,0,0,1-5.36,2.23,33.17,33.17,0,0,0-4.13.18c-.43.06-1,.55-1.41.43s.24-1.8,5.27-2.81,9-7.68,9.69-9.87,5.58-17.37,4.3-22.22a34.83,34.83,0,0,0-4.15-9.52S369.18,282.64,368.86,279.11Z"/><path class="cls-9" d="M348.53,283.2,351.2,282a9.14,9.14,0,0,1,7.57-3.71,33.47,33.47,0,0,1,8.92,1.21s.51,4-1.3,4.91c0,0,.74-2.6-.6-3.15s-9.39-.27-11.12,1S348.53,283.2,348.53,283.2Z"/><path class="cls-10" d="M359,287l7.37-20.66s2-4.94,5.85-3.6S384,267.08,384,267.08l.73-1.83-12.07-4.33a7.16,7.16,0,0,0-7.92,4.57c-2.2,5.67-7.93,22.19-7.93,22.19Z"/><path class="cls-11" d="M357.87,287.37l7.95-21.89s2.07-5.18,6.83-3.47,11.69,4.27,11.69,4.27l-.31.8-11.77-4.33s-3.45-1.58-5.78,3.4L359,287Z"/></g><path class="cls-1" d="M261.65,339.83a21.46,21.46,0,0,1-9.3-2.38l-.28-.13c-2.89-1.2-11.68-7.14-15.82-19.3a44.23,44.23,0,0,1-2-18.63,21.66,21.66,0,0,1,.39-2.86l0-.19c.08-.49.16-.86.22-1.17,0-.12.1-.46.12-.52a5.77,5.77,0,0,1,.21-.79l.13,0a36.51,36.51,0,0,1,4.7-8.53,11.26,11.26,0,0,1,1.58-1.94,9.13,9.13,0,0,1,.86-.73,10.48,10.48,0,0,1,3.17-1.55l.86-.27a81.44,81.44,0,0,1,17.82-3.79L265,277c1.38-3.88,2.42-6.71,3.09-8.44a13.26,13.26,0,0,1,12.76-8.75,12.93,12.93,0,0,1,2.34.2l.49.09,18.78,6.74L297,280.57l-15.58-5.73-1.25,3.51a6.85,6.85,0,0,1,3.16,2.2l1.69,1.66v.56c1.34,1.89,3,4.45,4.23,6.38a32.21,32.21,0,0,1,2.28,3.88l.44,1c0,.1.17.41.19.48a28.12,28.12,0,0,1,1.77,7.32l.05.39c0,.16.06.68.06.68a32.32,32.32,0,0,1,.12,4.21v.26c0,.43,0,.82-.08,1.22s-.05.65-.09,1-.06.52-.09.77c-.07.55-.16,1.14-.27,1.73v.09l0,.15a32.53,32.53,0,0,1-1.29,4.83,31.36,31.36,0,0,1-2,4.51c-.07.16-.16.34-.26.52l-.07.13c-.06.09-.54.92-1.29,2-.18.27-.37.54-.57.82l-.29.41-.09.11c-.26.34-.51.67-.77,1l-.24.3-.63.76a32.3,32.3,0,0,1-2.38,2.55l-.83.77c-.86.8-1.86,1.65-3,2.55s-1.89,1.52-2.28,1.82a14.37,14.37,0,0,1-2.12,1.56,13.46,13.46,0,0,1-1.59.85l-.25.11-.16.17-2.45.72h-.18a9.1,9.1,0,0,1-.91.16l-.24,0a18.54,18.54,0,0,1-2.76.15l-1.23,0h-.22a8,8,0,0,1-1.86.48,6,6,0,0,1-.94.07Zm-14.1-42.46,0-.17-.76,0Z"/><path class="cls-2" d="M256.32,334.5a21.41,21.41,0,0,1-9.3-2.38l-.28-.13c-2.89-1.2-11.68-7.15-15.82-19.3a44.11,44.11,0,0,1-2-18.64,21.5,21.5,0,0,1,.39-2.85l0-.2c.09-.48.16-.86.23-1.17,0-.11.1-.45.11-.51.06-.26.13-.53.21-.79l.14,0a36.06,36.06,0,0,1,4.69-8.52,12.33,12.33,0,0,1,1.58-1.94,8,8,0,0,1,.87-.73,10.48,10.48,0,0,1,3.17-1.55l.86-.27A81.48,81.48,0,0,1,259,271.76l.66-.13c1.39-3.89,2.43-6.72,3.1-8.45a13.26,13.26,0,0,1,12.75-8.74,12.83,12.83,0,0,1,2.34.2l.49.09,18.79,6.74-5.51,13.76-15.58-5.73L274.82,273a6.84,6.84,0,0,1,3.17,2.2l1.68,1.66v.56c1.35,1.89,3,4.45,4.24,6.38a31.22,31.22,0,0,1,2.28,3.88c.16.38.31.72.43,1,.05.1.17.41.2.48a28.13,28.13,0,0,1,1.77,7.31l.05.39c0,.17.06.69.06.69a32.17,32.17,0,0,1,.12,4.2v.27c0,.43-.05.82-.08,1.22s-.05.65-.09,1-.06.52-.09.77c-.08.55-.17,1.13-.28,1.73v.08l0,.16a34.52,34.52,0,0,1-1.29,4.83,31.36,31.36,0,0,1-2,4.51c-.07.15-.16.34-.26.52l-.08.13c-.05.09-.53.92-1.28,2l-.57.81-.3.41-.09.12c-.25.34-.5.67-.76,1l-.24.29c-.2.25-.42.52-.64.77a32.3,32.3,0,0,1-2.38,2.55l-.83.77c-.85.79-1.85,1.65-3,2.55s-1.88,1.52-2.27,1.82a16,16,0,0,1-2.12,1.56,16.17,16.17,0,0,1-1.59.85l-.25.11-.16.16-2.46.73h-.17c-.3.06-.61.12-.92.16l-.23,0a20.13,20.13,0,0,1-2.77.15c-.4,0-.82,0-1.22,0h-.23a7.84,7.84,0,0,1-1.86.48,7.41,7.41,0,0,1-.93.07ZM242.22,292l0-.17-.77,0Z"/><g id="Coconut-6" data-name="Coconut"><path class="cls-3" d="M240.77,282.71a5.55,5.55,0,0,0-.73.93,29.46,29.46,0,0,0-4,7.37,15.76,15.76,0,0,0,1.43,12.58c2.17,3.76,19.17,8.84,23.76,8.34,6-.65,19.56-14.26,19.53-18.15,0-1,.47-1.19.18-2.14a19.78,19.78,0,0,0-1.42-2.79c-1.77-3.09-6.2-9.62-6.62-9.73a33.15,33.15,0,0,0-3.61-.77A39.77,39.77,0,0,0,264,278c-7.11-.07-14.13,1.58-20.87,3.7l-.81.26a4.76,4.76,0,0,0-1.32.59Z"/><path class="cls-4" d="M236,290.42a36,36,0,0,0,1,19.47c3.55,10.51,11.19,15.09,12.1,15.45s4.13,2.32,8,2c0,0,.15.1,1.06-.3s4-.18,5-.34a8.2,8.2,0,0,0,4.76-2.19c2-1.83,9.52-6.52,12.67-15.5a27.22,27.22,0,0,0,0-18.19,19.13,19.13,0,0,1-3.23,5.51c-2.22,2.6-4,2.33-4,2.33s-1.4.12-5.37,2.08c0,0-2.58,1.28-7.74,1s-9.83-.36-12.07-2.53c0,0-.52-1.4-2.46-.91s-8.1.12-9.19-3.36A7.07,7.07,0,0,1,236,290.42Z"/><path class="cls-5" d="M236,290.61a38.86,38.86,0,0,0,1.33,19.67c3.55,10.51,11.2,15.09,12.11,15.45s4.13,2.32,7.95,2c0,0,.15.09,1.06-.3s4-.18,5-.34a8.24,8.24,0,0,0,4.77-2.19c2-1.83,9.52-6.52,12.67-15.51a26.92,26.92,0,0,0-.15-18.18,17.49,17.49,0,0,1-3.13,5.51c-2.22,2.6-4,2.33-4,2.33s-1.4.12-5.37,2.07c0,0-2.58,1.28-7.74,1s-10-.48-12.24-2.64a2.18,2.18,0,0,0-2.3-.8c-1.94.49-8.37.13-9.46-3.35A7.75,7.75,0,0,1,236,290.61Z"/><path class="cls-6" d="M236,290.42a38,38,0,0,0,.93,20.2c3.59,10.52,11.3,15.09,12.22,15.46s4.16,2.31,8,2c0,0,.16.09,1.07-.31s4.05-.18,5-.33a8.34,8.34,0,0,0,4.8-2.2c2.05-1.82,9.61-6.52,12.79-15.5a27,27,0,0,0,0-18.17,19.18,19.18,0,0,1-3.27,5.49c-2.24,2.6-4,2.34-4,2.34s-1.4.12-5.42,2.07c0,0-2.6,1.28-7.8,1s-9.92-.37-12.19-2.53c0,0-.52-1.41-2.48-.92s-8.18.12-9.28-3.35C236.42,295.66,235.37,292.54,236,290.42Z"/><path class="cls-4" d="M272.86,279.11s.56,4.43-1.45,5.48-10.68,3.63-10.68,3.63l-9.23-2.7-1.05-.08,1-2.22,3-1.33a10.21,10.21,0,0,1,8.45-4.14A37.5,37.5,0,0,1,272.86,279.11Z"/><path class="cls-5" d="M272,279.41s.52,4.09-1.34,5.06-9.86,3.35-9.86,3.35l-8.52-2.5-1-.07.93-2.05L255,282a9.43,9.43,0,0,1,7.8-3.83A34.66,34.66,0,0,1,272,279.41Z"/><path class="cls-7" d="M271.69,279.51s.51,4-1.3,4.91-9.56,3.25-9.56,3.25l-8.27-2.42-.94-.07.91-2L255.2,282a9.14,9.14,0,0,1,7.57-3.71A33.47,33.47,0,0,1,271.69,279.51Z"/><path class="cls-8" d="M272.86,279.11s.36.1,3.58,4.94c1.83,2.75,3.72,5.85,3.88,6.2s.42,1,.54,1.3A27,27,0,0,1,279,313.82a31.48,31.48,0,0,1-1.74,2.63,34.06,34.06,0,0,1-3.38,3.9c-2.29,2.17-5.8,4.87-5.8,4.87a8.41,8.41,0,0,1-5.36,2.23,33.17,33.17,0,0,0-4.13.18c-.43.06-1,.55-1.41.43s.24-1.8,5.27-2.81,9-7.68,9.69-9.87,5.58-17.37,4.3-22.22a34.83,34.83,0,0,0-4.15-9.52S273.18,282.64,272.86,279.11Z"/><path class="cls-9" d="M252.53,283.2,255.2,282a9.14,9.14,0,0,1,7.57-3.71,33.47,33.47,0,0,1,8.92,1.21s.51,4-1.3,4.91c0,0,.74-2.6-.6-3.15s-9.39-.27-11.12,1S252.53,283.2,252.53,283.2Z"/><path class="cls-10" d="M263,287l7.37-20.66s2-4.94,5.85-3.6S288,267.08,288,267.08l.73-1.83-12.07-4.33a7.16,7.16,0,0,0-7.92,4.57c-2.2,5.67-7.93,22.19-7.93,22.19Z"/><path class="cls-11" d="M261.87,287.37l7.95-21.89s2.07-5.18,6.83-3.47,11.69,4.27,11.69,4.27l-.31.8-11.77-4.33s-3.45-1.58-5.78,3.4L263,287Z"/></g><path class="cls-1" d="M165.65,339.83a21.46,21.46,0,0,1-9.3-2.38l-.28-.13c-2.89-1.2-11.68-7.14-15.82-19.3a44.23,44.23,0,0,1-2-18.63,21.66,21.66,0,0,1,.39-2.86l0-.19c.08-.49.16-.86.22-1.17,0-.12.1-.46.12-.52a5.77,5.77,0,0,1,.21-.79l.13,0a36.51,36.51,0,0,1,4.7-8.53,11.26,11.26,0,0,1,1.58-1.94,9.13,9.13,0,0,1,.86-.73,10.48,10.48,0,0,1,3.17-1.55l.86-.27a81.44,81.44,0,0,1,17.82-3.79L169,277c1.38-3.88,2.42-6.71,3.09-8.44a13.26,13.26,0,0,1,12.76-8.75,12.93,12.93,0,0,1,2.34.2l.49.09,18.78,6.74L201,280.57l-15.58-5.73-1.25,3.51a6.85,6.85,0,0,1,3.16,2.2l1.69,1.66v.56c1.34,1.89,3,4.45,4.23,6.38a32.21,32.21,0,0,1,2.28,3.88l.44,1c0,.1.17.41.19.48a28.12,28.12,0,0,1,1.77,7.32l.05.39c0,.16.06.68.06.68a32.32,32.32,0,0,1,.12,4.21v.26c0,.43,0,.82-.08,1.22s-.05.65-.09,1-.06.52-.09.77c-.07.55-.16,1.14-.27,1.73v.09l0,.15a32.53,32.53,0,0,1-1.29,4.83,31.36,31.36,0,0,1-2,4.51c-.07.16-.16.34-.26.52l-.07.13c-.06.09-.54.92-1.29,2-.18.27-.37.54-.57.82l-.29.41-.09.11c-.26.34-.51.67-.77,1l-.24.3-.63.76a32.3,32.3,0,0,1-2.38,2.55l-.83.77c-.86.8-1.86,1.65-3,2.55s-1.89,1.52-2.28,1.82a14.37,14.37,0,0,1-2.12,1.56,13.46,13.46,0,0,1-1.59.85l-.25.11-.16.17-2.45.72h-.18a9.1,9.1,0,0,1-.91.16l-.24,0a18.54,18.54,0,0,1-2.76.15l-1.23,0h-.22a8,8,0,0,1-1.86.48,6,6,0,0,1-.94.07Zm-14.1-42.46,0-.17-.76,0Z"/><path class="cls-2" d="M160.32,334.5a21.41,21.41,0,0,1-9.3-2.38l-.28-.13c-2.89-1.2-11.68-7.15-15.82-19.3a44.11,44.11,0,0,1-2-18.64,21.5,21.5,0,0,1,.39-2.85l0-.2c.09-.48.16-.86.23-1.17,0-.11.1-.45.11-.51.06-.26.13-.53.21-.79l.14,0a36.06,36.06,0,0,1,4.69-8.52,12.33,12.33,0,0,1,1.58-1.94,8,8,0,0,1,.87-.73,10.48,10.48,0,0,1,3.17-1.55l.86-.27A81.48,81.48,0,0,1,163,271.76l.66-.13c1.39-3.89,2.43-6.72,3.1-8.45a13.26,13.26,0,0,1,12.75-8.74,12.83,12.83,0,0,1,2.34.2l.49.09,18.79,6.74-5.51,13.76-15.58-5.73L178.82,273a6.84,6.84,0,0,1,3.17,2.2l1.68,1.66v.56c1.35,1.89,3,4.45,4.24,6.38a31.22,31.22,0,0,1,2.28,3.88c.16.38.31.72.43,1,0,.1.17.41.2.48a28.13,28.13,0,0,1,1.77,7.31l0,.39c0,.17.06.69.06.69a32.17,32.17,0,0,1,.12,4.2v.27c0,.43-.05.82-.08,1.22s0,.65-.09,1-.06.52-.09.77c-.08.55-.17,1.13-.28,1.73v.08l0,.16a34.52,34.52,0,0,1-1.29,4.83,31.36,31.36,0,0,1-2,4.51c-.07.15-.16.34-.26.52l-.08.13c0,.09-.53.92-1.28,2l-.57.81-.3.41-.09.12c-.25.34-.5.67-.76,1l-.24.29c-.2.25-.42.52-.64.77a32.3,32.3,0,0,1-2.38,2.55l-.83.77c-.85.79-1.85,1.65-3,2.55s-1.88,1.52-2.27,1.82a16,16,0,0,1-2.12,1.56,16.17,16.17,0,0,1-1.59.85l-.25.11-.16.16-2.46.73h-.17c-.3.06-.61.12-.92.16l-.23,0a20.13,20.13,0,0,1-2.77.15c-.4,0-.82,0-1.22,0h-.23a7.84,7.84,0,0,1-1.86.48,7.41,7.41,0,0,1-.93.07ZM146.22,292l0-.17-.77,0Z"/><g id="Coconut-7" data-name="Coconut"><path class="cls-3" d="M144.77,282.71a5.55,5.55,0,0,0-.73.93,29.46,29.46,0,0,0-4,7.37,15.76,15.76,0,0,0,1.43,12.58c2.17,3.76,19.17,8.84,23.76,8.34,6-.65,19.56-14.26,19.53-18.15,0-1,.47-1.19.18-2.14a19.78,19.78,0,0,0-1.42-2.79c-1.77-3.09-6.2-9.62-6.62-9.73a33.15,33.15,0,0,0-3.61-.77A39.77,39.77,0,0,0,168,278c-7.11-.07-14.13,1.58-20.87,3.7l-.81.26a4.76,4.76,0,0,0-1.32.59Z"/><path class="cls-4" d="M140,290.42a36,36,0,0,0,1,19.47c3.55,10.51,11.19,15.09,12.1,15.45s4.13,2.32,8,2c0,0,.15.1,1.06-.3s4-.18,5-.34a8.2,8.2,0,0,0,4.76-2.19c2-1.83,9.52-6.52,12.67-15.5a27.22,27.22,0,0,0-.05-18.19,19.13,19.13,0,0,1-3.23,5.51c-2.22,2.6-4,2.33-4,2.33s-1.4.12-5.37,2.08c0,0-2.58,1.28-7.74,1s-9.83-.36-12.07-2.53c0,0-.52-1.4-2.46-.91s-8.1.12-9.19-3.36A7.07,7.07,0,0,1,140,290.42Z"/><path class="cls-5" d="M140,290.61a38.86,38.86,0,0,0,1.33,19.67c3.55,10.51,11.2,15.09,12.11,15.45s4.13,2.32,7.95,2c0,0,.15.09,1.06-.3s4-.18,5-.34a8.24,8.24,0,0,0,4.77-2.19c2-1.83,9.52-6.52,12.67-15.51a26.92,26.92,0,0,0-.15-18.18,17.49,17.49,0,0,1-3.13,5.51c-2.22,2.6-4,2.33-4,2.33s-1.4.12-5.37,2.07c0,0-2.58,1.28-7.74,1s-10-.48-12.24-2.64a2.18,2.18,0,0,0-2.3-.8c-1.94.49-8.37.13-9.46-3.35A7.75,7.75,0,0,1,140,290.61Z"/><path class="cls-6" d="M140,290.42a38,38,0,0,0,.93,20.2c3.59,10.52,11.3,15.09,12.22,15.46s4.16,2.31,8,2c0,0,.16.09,1.07-.31s4.05-.18,5-.33a8.34,8.34,0,0,0,4.8-2.2c2-1.82,9.61-6.52,12.79-15.5a27,27,0,0,0,0-18.17,19.18,19.18,0,0,1-3.27,5.49c-2.24,2.6-4,2.34-4,2.34s-1.4.12-5.42,2.07c0,0-2.6,1.28-7.8,1s-9.92-.37-12.19-2.53c0,0-.52-1.41-2.48-.92s-8.18.12-9.28-3.35C140.42,295.66,139.37,292.54,140,290.42Z"/><path class="cls-4" d="M176.86,279.11s.56,4.43-1.45,5.48-10.68,3.63-10.68,3.63l-9.23-2.7-1.05-.08,1-2.22,3-1.33a10.21,10.21,0,0,1,8.45-4.14A37.5,37.5,0,0,1,176.86,279.11Z"/><path class="cls-5" d="M176,279.41s.52,4.09-1.34,5.06-9.86,3.35-9.86,3.35l-8.52-2.5-1-.07.93-2.05L159,282a9.43,9.43,0,0,1,7.8-3.83A34.66,34.66,0,0,1,176,279.41Z"/><path class="cls-7" d="M175.69,279.51s.51,4-1.3,4.91-9.56,3.25-9.56,3.25l-8.27-2.42-.94-.07.91-2L159.2,282a9.14,9.14,0,0,1,7.57-3.71A33.47,33.47,0,0,1,175.69,279.51Z"/><path class="cls-8" d="M176.86,279.11s.36.1,3.58,4.94c1.83,2.75,3.72,5.85,3.88,6.2s.42,1,.54,1.3A27,27,0,0,1,183,313.82a31.48,31.48,0,0,1-1.74,2.63,34.06,34.06,0,0,1-3.38,3.9c-2.29,2.17-5.8,4.87-5.8,4.87a8.41,8.41,0,0,1-5.36,2.23,33.17,33.17,0,0,0-4.13.18c-.43.06-1,.55-1.41.43s.24-1.8,5.27-2.81,9.05-7.68,9.69-9.87,5.58-17.37,4.3-22.22a34.83,34.83,0,0,0-4.15-9.52S177.18,282.64,176.86,279.11Z"/><path class="cls-9" d="M156.53,283.2,159.2,282a9.14,9.14,0,0,1,7.57-3.71,33.47,33.47,0,0,1,8.92,1.21s.51,4-1.3,4.91c0,0,.74-2.6-.6-3.15s-9.39-.27-11.12,1S156.53,283.2,156.53,283.2Z"/><path class="cls-10" d="M167,287l7.37-20.66s2-4.94,5.85-3.6S192,267.08,192,267.08l.73-1.83-12.07-4.33a7.16,7.16,0,0,0-7.92,4.57c-2.2,5.67-7.93,22.19-7.93,22.19Z"/><path class="cls-11" d="M165.87,287.37l7.95-21.89s2.07-5.18,6.83-3.47,11.69,4.27,11.69,4.27l-.31.8-11.77-4.33s-3.45-1.58-5.78,3.4L167,287Z"/></g><path class="cls-1" d="M320.32,258.76a21.44,21.44,0,0,1-9.3-2.37l-.28-.13c-2.89-1.2-11.68-7.15-15.82-19.31a44.07,44.07,0,0,1-2-18.63,21.5,21.5,0,0,1,.39-2.85l0-.2c.09-.48.16-.86.23-1.17,0-.11.1-.46.11-.51.06-.27.13-.53.21-.8l.14,0a36.13,36.13,0,0,1,4.69-8.53,11.9,11.9,0,0,1,1.58-1.93,8,8,0,0,1,.87-.73,10.25,10.25,0,0,1,3.17-1.55l.86-.28A81.41,81.41,0,0,1,323,196l.66-.14c1.39-3.88,2.43-6.71,3.1-8.44a13.26,13.26,0,0,1,12.75-8.75,12.83,12.83,0,0,1,2.34.2l.49.1,18.79,6.73-5.51,13.77-15.58-5.73-1.26,3.52a6.91,6.91,0,0,1,3.17,2.19l1.68,1.66v.56c1.35,1.9,3,4.45,4.24,6.38a32.21,32.21,0,0,1,2.28,3.88c.16.39.31.73.43,1,.05.1.17.42.2.48a28.12,28.12,0,0,1,1.77,7.32l.05.39c0,.17.06.69.06.69a32.17,32.17,0,0,1,.12,4.2v.27c0,.42-.05.82-.08,1.21s-.05.65-.09,1-.06.51-.09.77c-.08.55-.17,1.13-.28,1.72v.09l0,.15a33.8,33.8,0,0,1-1.29,4.83,30.87,30.87,0,0,1-2,4.51c-.07.16-.16.34-.26.53l-.08.12c-.05.1-.53.93-1.28,2l-.57.81-.3.41-.09.11c-.25.34-.5.67-.76,1l-.24.29c-.2.25-.42.51-.64.76a34.45,34.45,0,0,1-2.38,2.56c-.25.24-.54.5-.83.76-.85.8-1.85,1.65-3,2.55s-1.88,1.53-2.27,1.83a15.25,15.25,0,0,1-2.12,1.55,14.38,14.38,0,0,1-1.59.86l-.25.11-.16.16-2.46.73h-.17l-.92.16-.23,0a17.41,17.41,0,0,1-2.77.15l-1.22,0-.23,0a8.35,8.35,0,0,1-1.86.48,7.38,7.38,0,0,1-.93.06Zm-14.1-42.45,0-.17-.77,0Z"/><path class="cls-2" d="M315,253.43a21.46,21.46,0,0,1-9.3-2.38l-.28-.13c-2.89-1.2-11.68-7.14-15.82-19.3a44,44,0,0,1-2-18.63,21.66,21.66,0,0,1,.39-2.86l0-.19c.08-.49.16-.86.23-1.17,0-.12.1-.46.11-.52.06-.26.13-.53.21-.79l.14,0a36.13,36.13,0,0,1,4.69-8.53A11.77,11.77,0,0,1,295,197a9.13,9.13,0,0,1,.86-.73,10.62,10.62,0,0,1,3.18-1.55l.85-.27a81.56,81.56,0,0,1,17.82-3.79l.66-.13c1.39-3.88,2.42-6.71,3.09-8.44a13.26,13.26,0,0,1,12.76-8.75,12.83,12.83,0,0,1,2.34.2l.49.09,18.79,6.74-5.52,13.77-15.57-5.73L333.49,192a6.79,6.79,0,0,1,3.16,2.2l1.69,1.66v.56c1.35,1.89,3,4.45,4.24,6.38a30.84,30.84,0,0,1,2.27,3.88l.44,1,.2.48a28.53,28.53,0,0,1,1.77,7.32l0,.39c0,.16.07.68.07.68a34.23,34.23,0,0,1,.11,4.21V221c0,.43-.05.82-.08,1.22s-.06.65-.09,1-.06.52-.1.77c-.07.55-.16,1.14-.27,1.73v.09l0,.15a31.46,31.46,0,0,1-3.32,9.34c-.08.16-.17.34-.27.52l-.07.13c-.05.09-.53.92-1.29,2-.17.27-.37.54-.57.82l-.29.41-.09.11c-.25.34-.51.67-.76,1l-.24.3c-.21.25-.42.51-.64.76a32.3,32.3,0,0,1-2.38,2.55l-.83.77c-.86.8-1.85,1.65-3,2.55s-1.89,1.52-2.27,1.82a14.58,14.58,0,0,1-2.13,1.56,13.33,13.33,0,0,1-1.58.85l-.25.11-.17.17-2.45.72h-.17a9.3,9.3,0,0,1-.92.16l-.24,0a18.54,18.54,0,0,1-2.76.15l-1.23,0h-.22a8,8,0,0,1-1.86.48,6,6,0,0,1-.94.07C315.65,253.42,315.31,253.43,315,253.43ZM300.89,211a.88.88,0,0,0,0-.17l-.76,0Z"/><g id="Coconut-8" data-name="Coconut"><path class="cls-3" d="M299.44,201.64a5.55,5.55,0,0,0-.73.93,29.69,29.69,0,0,0-4,7.38,15.78,15.78,0,0,0,1.42,12.57c2.18,3.76,19.18,8.85,23.77,8.34,6-.65,19.55-14.26,19.52-18.15,0-1,.48-1.19.19-2.14a21,21,0,0,0-1.43-2.79c-1.76-3.09-6.2-9.62-6.61-9.72a31.15,31.15,0,0,0-3.61-.78,38.12,38.12,0,0,0-5.23-.39c-7.11-.08-14.13,1.57-20.87,3.7l-.81.25a4.51,4.51,0,0,0-1.32.6Z"/><path class="cls-4" d="M294.7,209.36a36,36,0,0,0,1,19.46c3.55,10.52,11.2,15.09,12.11,15.46s4.12,2.31,8,2c0,0,.15.09,1.06-.31s4-.18,5-.33a8.34,8.34,0,0,0,4.77-2.2c2-1.83,9.51-6.52,12.67-15.5a27.3,27.3,0,0,0-.05-18.19,19,19,0,0,1-3.23,5.51c-2.22,2.6-4,2.34-4,2.34s-1.4.12-5.37,2.07c0,0-2.58,1.28-7.74,1s-9.83-.36-12.07-2.53c0,0-.52-1.4-2.46-.91s-8.1.12-9.19-3.35A7.06,7.06,0,0,1,294.7,209.36Z"/><path class="cls-5" d="M294.66,209.55A38.82,38.82,0,0,0,296,229.21c3.55,10.52,11.2,15.09,12.11,15.46s4.13,2.31,7.95,2c0,0,.15.09,1.06-.31s4-.18,5-.33a8.3,8.3,0,0,0,4.76-2.2c2-1.83,9.52-6.52,12.68-15.5a27.09,27.09,0,0,0-.15-18.19,17.37,17.37,0,0,1-3.13,5.51c-2.22,2.6-4,2.34-4,2.34s-1.4.12-5.38,2.07c0,0-2.58,1.28-7.73,1s-10-.47-12.24-2.64a2.18,2.18,0,0,0-2.3-.8c-1.94.49-8.37.13-9.47-3.34A7.8,7.8,0,0,1,294.66,209.55Z"/><path class="cls-6" d="M294.7,209.36a38,38,0,0,0,.94,20.2c3.58,10.51,11.3,15.09,12.22,15.45s4.16,2.32,8,2c0,0,.15.09,1.07-.3s4-.19,5-.34a8.32,8.32,0,0,0,4.81-2.19c2.05-1.83,9.6-6.53,12.79-15.51a27,27,0,0,0,0-18.16,19.2,19.2,0,0,1-3.27,5.48c-2.24,2.6-4,2.34-4,2.34s-1.41.12-5.42,2.07c0,0-2.6,1.28-7.81,1s-9.92-.37-12.18-2.53c0,0-.52-1.4-2.48-.92s-8.18.13-9.28-3.35C295.09,214.59,294,211.47,294.7,209.36Z"/><path class="cls-4" d="M331.52,198s.57,4.44-1.45,5.48-10.68,3.63-10.68,3.63l-9.23-2.7-1-.08,1-2.22,3-1.33a10.21,10.21,0,0,1,8.45-4.14A37.47,37.47,0,0,1,331.52,198Z"/><path class="cls-5" d="M330.66,198.34s.52,4.09-1.34,5.06-9.85,3.35-9.85,3.35L311,204.26l-1-.08.93-2,2.76-1.23a9.41,9.41,0,0,1,7.8-3.82A34.31,34.31,0,0,1,330.66,198.34Z"/><path class="cls-7" d="M330.36,198.45s.5,4-1.3,4.91-9.57,3.25-9.57,3.25l-8.26-2.42-.94-.07.9-2,2.67-1.19a9.14,9.14,0,0,1,7.57-3.71A33.73,33.73,0,0,1,330.36,198.45Z"/><path class="cls-8" d="M331.52,198s.36.1,3.58,4.94c1.84,2.75,3.73,5.85,3.88,6.21s.43,1,.55,1.3a27,27,0,0,1-1.84,22.27,30.58,30.58,0,0,1-1.73,2.62,31.63,31.63,0,0,1-3.39,3.9c-2.28,2.17-5.79,4.88-5.79,4.88a8.43,8.43,0,0,1-5.36,2.22,30.12,30.12,0,0,0-4.14.19c-.42.06-1,.54-1.4.42s.23-1.8,5.26-2.8,9.06-7.68,9.7-9.88,5.57-17.37,4.29-22.22a35.15,35.15,0,0,0-4.14-9.51S331.85,201.57,331.52,198Z"/><path class="cls-9" d="M311.19,202.13l2.67-1.19a9.14,9.14,0,0,1,7.57-3.71,33.73,33.73,0,0,1,8.93,1.22s.5,4-1.3,4.91c0,0,.74-2.61-.6-3.15s-9.39-.28-11.13.94S311.19,202.13,311.19,202.13Z"/><path class="cls-10" d="M321.7,205.94l7.38-20.66s2-4.94,5.85-3.6S346.7,186,346.7,186l.73-1.83-12.07-4.32a7.16,7.16,0,0,0-7.93,4.57c-2.19,5.67-7.92,22.19-7.92,22.19Z"/><path class="cls-11" d="M320.54,206.3l7.95-21.88s2.07-5.18,6.83-3.48S347,185.21,347,185.21l-.3.8-11.77-4.33s-3.45-1.58-5.79,3.41l-7.44,20.85Z"/></g><path class="cls-1" d="M224.32,258.76a21.44,21.44,0,0,1-9.3-2.37l-.28-.13c-2.89-1.2-11.68-7.15-15.82-19.31a44.07,44.07,0,0,1-2-18.63,21.5,21.5,0,0,1,.39-2.85l0-.2c.09-.48.16-.86.23-1.17,0-.11.1-.46.11-.51.06-.27.13-.53.21-.8l.14,0a36.13,36.13,0,0,1,4.69-8.53,11.9,11.9,0,0,1,1.58-1.93,8,8,0,0,1,.87-.73,10.25,10.25,0,0,1,3.17-1.55l.86-.28A81.41,81.41,0,0,1,227,196l.66-.14c1.39-3.88,2.43-6.71,3.1-8.44a13.26,13.26,0,0,1,12.75-8.75,12.83,12.83,0,0,1,2.34.2l.49.1,18.79,6.73-5.51,13.77-15.58-5.73-1.26,3.52a6.91,6.91,0,0,1,3.17,2.19l1.68,1.66v.56c1.35,1.9,3,4.45,4.24,6.38a32.21,32.21,0,0,1,2.28,3.88c.16.39.31.73.43,1,0,.1.17.42.2.48a28.12,28.12,0,0,1,1.77,7.32l.05.39c0,.17.06.69.06.69a32.17,32.17,0,0,1,.12,4.2v.27c0,.42-.05.82-.08,1.21s-.05.65-.09,1-.06.51-.09.77c-.08.55-.17,1.13-.28,1.72v.09l0,.15a33.8,33.8,0,0,1-1.29,4.83,30.87,30.87,0,0,1-2,4.51c-.07.16-.16.34-.26.53l-.08.12c0,.1-.53.93-1.28,2l-.57.81-.3.41-.09.11c-.25.34-.5.67-.76,1l-.24.29c-.2.25-.42.51-.64.76a34.45,34.45,0,0,1-2.38,2.56c-.25.24-.54.5-.83.76-.85.8-1.85,1.65-3,2.55s-1.88,1.53-2.27,1.83a15.25,15.25,0,0,1-2.12,1.55,14.38,14.38,0,0,1-1.59.86l-.25.11-.16.16-2.46.73h-.17l-.92.16-.23,0a17.41,17.41,0,0,1-2.77.15l-1.22,0-.23,0a8.35,8.35,0,0,1-1.86.48,7.38,7.38,0,0,1-.93.06Zm-14.1-42.45,0-.17-.77,0Z"/><path class="cls-2" d="M219,253.43a21.46,21.46,0,0,1-9.3-2.38l-.28-.13c-2.89-1.2-11.68-7.14-15.82-19.3a44,44,0,0,1-2-18.63,21.66,21.66,0,0,1,.39-2.86l0-.19c.08-.49.16-.86.23-1.17,0-.12.1-.46.11-.52.06-.26.13-.53.21-.79l.14,0a36.13,36.13,0,0,1,4.69-8.53A11.77,11.77,0,0,1,199,197a9.13,9.13,0,0,1,.86-.73,10.62,10.62,0,0,1,3.18-1.55l.85-.27a81.56,81.56,0,0,1,17.82-3.79l.66-.13c1.39-3.88,2.42-6.71,3.09-8.44a13.26,13.26,0,0,1,12.76-8.75,12.83,12.83,0,0,1,2.34.2l.49.09,18.79,6.74-5.52,13.77-15.57-5.73L237.49,192a6.79,6.79,0,0,1,3.16,2.2l1.69,1.66v.56c1.35,1.89,3,4.45,4.24,6.38a30.84,30.84,0,0,1,2.27,3.88l.44,1,.2.48a28.53,28.53,0,0,1,1.77,7.32l0,.39c0,.16.07.68.07.68a34.23,34.23,0,0,1,.11,4.21V221c0,.43,0,.82-.08,1.22s-.06.65-.09,1-.06.52-.1.77c-.07.55-.16,1.14-.27,1.73v.09l0,.15a31.46,31.46,0,0,1-3.32,9.34c-.08.16-.17.34-.27.52l-.07.13c-.05.09-.53.92-1.29,2-.17.27-.37.54-.57.82l-.29.41-.09.11c-.25.34-.51.67-.76,1l-.24.3c-.21.25-.42.51-.64.76a32.3,32.3,0,0,1-2.38,2.55l-.83.77c-.86.8-1.85,1.65-3,2.55s-1.89,1.52-2.27,1.82a14.58,14.58,0,0,1-2.13,1.56,13.33,13.33,0,0,1-1.58.85l-.25.11-.17.17-2.45.72h-.17a9.3,9.3,0,0,1-.92.16l-.24,0a18.54,18.54,0,0,1-2.76.15l-1.23,0h-.22a8,8,0,0,1-1.86.48,6,6,0,0,1-.94.07C219.65,253.42,219.31,253.43,219,253.43ZM204.89,211a.88.88,0,0,0,0-.17l-.76,0Z"/><g id="Coconut-9" data-name="Coconut"><path class="cls-3" d="M203.44,201.64a5.55,5.55,0,0,0-.73.93,29.69,29.69,0,0,0-4.05,7.38,15.78,15.78,0,0,0,1.42,12.57c2.18,3.76,19.18,8.85,23.77,8.34,6-.65,19.55-14.26,19.52-18.15,0-1,.48-1.19.19-2.14a21,21,0,0,0-1.43-2.79c-1.76-3.09-6.2-9.62-6.61-9.72a31.15,31.15,0,0,0-3.61-.78,38.12,38.12,0,0,0-5.23-.39c-7.11-.08-14.13,1.57-20.87,3.7l-.81.25a4.51,4.51,0,0,0-1.32.6Z"/><path class="cls-4" d="M198.7,209.36a36,36,0,0,0,1,19.46c3.55,10.52,11.2,15.09,12.11,15.46s4.12,2.31,7.95,2c0,0,.15.09,1.06-.31s4-.18,5-.33a8.34,8.34,0,0,0,4.77-2.2c2-1.83,9.51-6.52,12.67-15.5a27.3,27.3,0,0,0,0-18.19,19,19,0,0,1-3.23,5.51c-2.22,2.6-4,2.34-4,2.34s-1.4.12-5.37,2.07c0,0-2.58,1.28-7.74,1s-9.83-.36-12.07-2.53c0,0-.52-1.4-2.46-.91s-8.1.12-9.19-3.35A7.06,7.06,0,0,1,198.7,209.36Z"/><path class="cls-5" d="M198.66,209.55A38.82,38.82,0,0,0,200,229.21c3.55,10.52,11.2,15.09,12.11,15.46s4.13,2.31,8,2c0,0,.15.09,1.06-.31s4-.18,5-.33a8.3,8.3,0,0,0,4.76-2.2c2-1.83,9.52-6.52,12.68-15.5a27.09,27.09,0,0,0-.15-18.19,17.37,17.37,0,0,1-3.13,5.51c-2.22,2.6-4,2.34-4,2.34s-1.4.12-5.38,2.07c0,0-2.58,1.28-7.73,1s-10-.47-12.24-2.64a2.18,2.18,0,0,0-2.3-.8c-1.94.49-8.37.13-9.47-3.34A7.8,7.8,0,0,1,198.66,209.55Z"/><path class="cls-6" d="M198.7,209.36a38,38,0,0,0,.94,20.2c3.58,10.51,11.3,15.09,12.22,15.45s4.16,2.32,8,2c0,0,.15.09,1.07-.3s4-.19,5-.34a8.32,8.32,0,0,0,4.81-2.19c2.05-1.83,9.6-6.53,12.79-15.51a27,27,0,0,0,0-18.16,19.2,19.2,0,0,1-3.27,5.48c-2.24,2.6-4,2.34-4,2.34s-1.41.12-5.42,2.07c0,0-2.6,1.28-7.81,1s-9.92-.37-12.18-2.53c0,0-.52-1.4-2.48-.92s-8.18.13-9.28-3.35C199.09,214.59,198,211.47,198.7,209.36Z"/><path class="cls-4" d="M235.52,198s.57,4.44-1.45,5.48-10.68,3.63-10.68,3.63l-9.23-2.7-1-.08,1-2.22,3-1.33a10.21,10.21,0,0,1,8.45-4.14A37.47,37.47,0,0,1,235.52,198Z"/><path class="cls-5" d="M234.66,198.34s.52,4.09-1.34,5.06-9.85,3.35-9.85,3.35L215,204.26l-1-.08.93-2,2.76-1.23a9.41,9.41,0,0,1,7.8-3.82A34.31,34.31,0,0,1,234.66,198.34Z"/><path class="cls-7" d="M234.36,198.45s.5,4-1.3,4.91-9.57,3.25-9.57,3.25l-8.26-2.42-.94-.07.9-2,2.67-1.19a9.14,9.14,0,0,1,7.57-3.71A33.73,33.73,0,0,1,234.36,198.45Z"/><path class="cls-8" d="M235.52,198s.36.1,3.58,4.94c1.84,2.75,3.73,5.85,3.88,6.21s.43,1,.55,1.3a27,27,0,0,1-1.84,22.27,30.58,30.58,0,0,1-1.73,2.62,31.63,31.63,0,0,1-3.39,3.9c-2.28,2.17-5.79,4.88-5.79,4.88a8.43,8.43,0,0,1-5.36,2.22,30.12,30.12,0,0,0-4.14.19c-.42.06-1,.54-1.4.42s.23-1.8,5.26-2.8,9.06-7.68,9.7-9.88,5.57-17.37,4.29-22.22a35.15,35.15,0,0,0-4.14-9.51S235.85,201.57,235.52,198Z"/><path class="cls-9" d="M215.19,202.13l2.67-1.19a9.14,9.14,0,0,1,7.57-3.71,33.73,33.73,0,0,1,8.93,1.22s.5,4-1.3,4.91c0,0,.74-2.61-.6-3.15s-9.39-.28-11.13.94S215.19,202.13,215.19,202.13Z"/><path class="cls-10" d="M225.7,205.94l7.38-20.66s2-4.94,5.85-3.6S250.7,186,250.7,186l.73-1.83-12.07-4.32a7.16,7.16,0,0,0-7.93,4.57c-2.19,5.67-7.92,22.19-7.92,22.19Z"/><path class="cls-11" d="M224.54,206.3l8-21.88s2.07-5.18,6.83-3.48S251,185.21,251,185.21l-.3.8-11.77-4.33s-3.45-1.58-5.79,3.41l-7.44,20.85Z"/></g><path class="cls-1" d="M277.65,182a21.48,21.48,0,0,1-9.3-2.37l-.28-.13c-2.89-1.2-11.68-7.15-15.82-19.31a44.23,44.23,0,0,1-2-18.63,21.5,21.5,0,0,1,.39-2.85l0-.2c.08-.48.16-.86.22-1.17,0-.11.1-.46.12-.51a5.9,5.9,0,0,1,.21-.8l.13,0a36.51,36.51,0,0,1,4.7-8.53,10.9,10.9,0,0,1,1.58-1.93,7.85,7.85,0,0,1,.86-.73,10.25,10.25,0,0,1,3.17-1.55l.86-.28a80.79,80.79,0,0,1,17.82-3.78l.66-.14c1.38-3.88,2.42-6.71,3.09-8.44a13.26,13.26,0,0,1,12.76-8.75,12.93,12.93,0,0,1,2.34.2l.49.1,18.78,6.73L313,122.7,297.41,117l-1.25,3.52a6.92,6.92,0,0,1,3.16,2.19l1.69,1.66v.56c1.34,1.9,3,4.45,4.23,6.38a32.21,32.21,0,0,1,2.28,3.88l.44,1,.19.48a28.12,28.12,0,0,1,1.77,7.32l.05.39c0,.17.06.69.06.69a32.17,32.17,0,0,1,.12,4.2v.27c0,.42,0,.82-.08,1.21s-.05.65-.09,1-.06.51-.09.77c-.07.55-.16,1.13-.27,1.72v.09l0,.15a32.53,32.53,0,0,1-1.29,4.83,30.87,30.87,0,0,1-2,4.51c-.07.16-.16.34-.26.53l-.07.12c-.06.09-.54.93-1.29,2l-.57.81-.29.41-.09.11-.77,1-.24.29-.63.76a34.45,34.45,0,0,1-2.38,2.56l-.83.76c-.86.8-1.86,1.66-3,2.55s-1.89,1.53-2.28,1.83a15.25,15.25,0,0,1-2.12,1.55,13.53,13.53,0,0,1-1.59.86l-.25.11-.16.16L287,181h-.18l-.91.16-.24,0a17.28,17.28,0,0,1-2.76.15l-1.23,0-.22,0a8.49,8.49,0,0,1-1.86.48,7.54,7.54,0,0,1-.94.06Zm-14.1-42.45,0-.17-.76-.05Z"/><path class="cls-2" d="M272.32,176.63a21.41,21.41,0,0,1-9.3-2.38l-.28-.13c-2.89-1.2-11.68-7.14-15.82-19.3a44.07,44.07,0,0,1-2-18.63,21.66,21.66,0,0,1,.39-2.86l0-.19c.09-.49.16-.86.23-1.17,0-.12.1-.46.11-.52.06-.26.13-.53.21-.79l.14,0a36.13,36.13,0,0,1,4.69-8.53,12.33,12.33,0,0,1,1.58-1.94,9.3,9.3,0,0,1,.87-.73,10.48,10.48,0,0,1,3.17-1.55l.86-.27A81.48,81.48,0,0,1,275,113.89l.66-.13c1.39-3.88,2.43-6.71,3.1-8.44a13.26,13.26,0,0,1,12.75-8.75,12.83,12.83,0,0,1,2.34.2l.49.09,18.79,6.74-5.51,13.77-15.58-5.73-1.26,3.51a6.84,6.84,0,0,1,3.17,2.2l1.68,1.66v.56c1.35,1.89,3,4.45,4.24,6.38a32.21,32.21,0,0,1,2.28,3.88c.16.39.31.72.43,1,.05.1.17.41.2.48a28.12,28.12,0,0,1,1.77,7.32l.05.39c0,.16.06.68.06.68a32.32,32.32,0,0,1,.12,4.21v.26c0,.43-.05.82-.08,1.22s-.05.65-.09,1-.06.52-.09.77c-.08.55-.17,1.14-.28,1.73V149l0,.15a33.8,33.8,0,0,1-1.29,4.83,31.36,31.36,0,0,1-2,4.51c-.07.16-.16.34-.26.52l-.08.13c-.05.09-.53.92-1.28,2-.18.27-.38.54-.57.82l-.3.41-.09.11c-.25.34-.5.67-.76,1l-.24.3c-.2.25-.42.51-.64.76a32.3,32.3,0,0,1-2.38,2.55c-.25.25-.54.51-.83.77-.85.8-1.85,1.65-3,2.55s-1.88,1.52-2.27,1.82a15.47,15.47,0,0,1-3.71,2.41l-.25.11-.16.17-2.46.72h-.17a9.3,9.3,0,0,1-.92.16l-.23,0a18.67,18.67,0,0,1-2.77.15l-1.22,0h-.23a7.84,7.84,0,0,1-1.86.48,5.91,5.91,0,0,1-.93.07Zm-14.1-42.46,0-.17-.77,0Z"/><g id="Coconut-10" data-name="Coconut"><path class="cls-3" d="M256.77,124.84a5.55,5.55,0,0,0-.73.93,29.69,29.69,0,0,0-4.05,7.38,15.74,15.74,0,0,0,1.43,12.57c2.17,3.76,19.17,8.85,23.76,8.34,6-.65,19.56-14.26,19.53-18.15,0-1,.47-1.19.18-2.14a20.92,20.92,0,0,0-1.42-2.79c-1.77-3.09-6.2-9.62-6.62-9.72a30.69,30.69,0,0,0-3.61-.78,38.12,38.12,0,0,0-5.23-.39c-7.11-.08-14.13,1.57-20.87,3.7l-.81.25a4.51,4.51,0,0,0-1.32.6Z"/><path class="cls-4" d="M252,132.56a36,36,0,0,0,1,19.46c3.55,10.52,11.19,15.09,12.1,15.46s4.13,2.31,7.95,2c0,0,.15.09,1.06-.31s4-.18,5-.33a8.3,8.3,0,0,0,4.76-2.2c2-1.83,9.52-6.52,12.67-15.5a27.23,27.23,0,0,0,0-18.19,19,19,0,0,1-3.23,5.51c-2.22,2.6-4,2.34-4,2.34s-1.4.12-5.37,2.07c0,0-2.58,1.28-7.74,1s-9.83-.36-12.07-2.53c0,0-.52-1.4-2.46-.91s-8.1.12-9.19-3.35A7.09,7.09,0,0,1,252,132.56Z"/><path class="cls-5" d="M252,132.75a38.82,38.82,0,0,0,1.33,19.66c3.55,10.52,11.2,15.09,12.11,15.46s4.13,2.31,7.95,2c0,0,.15.09,1.06-.31s4-.18,5-.33a8.34,8.34,0,0,0,4.77-2.2c2-1.83,9.52-6.52,12.67-15.5a27,27,0,0,0-.15-18.19,17.37,17.37,0,0,1-3.13,5.51c-2.22,2.6-4,2.34-4,2.34s-1.4.12-5.37,2.07c0,0-2.58,1.28-7.74,1s-10-.47-12.24-2.64a2.18,2.18,0,0,0-2.3-.8c-1.94.49-8.37.13-9.46-3.34A7.77,7.77,0,0,1,252,132.75Z"/><path class="cls-6" d="M252,132.56a38,38,0,0,0,.93,20.2c3.59,10.51,11.3,15.09,12.22,15.45s4.16,2.32,8,2c0,0,.16.09,1.07-.3s4.05-.19,5-.34a8.3,8.3,0,0,0,4.8-2.19c2.05-1.83,9.61-6.53,12.79-15.51a27,27,0,0,0,0-18.16,19.2,19.2,0,0,1-3.27,5.48c-2.24,2.6-4,2.34-4,2.34s-1.4.12-5.42,2.07c0,0-2.6,1.28-7.8,1s-9.92-.37-12.19-2.53c0,0-.52-1.4-2.48-.92s-8.18.13-9.28-3.35C252.42,137.79,251.37,134.67,252,132.56Z"/><path class="cls-4" d="M288.86,121.24s.56,4.44-1.45,5.48-10.68,3.63-10.68,3.63l-9.23-2.7-1.05-.08,1-2.22,3-1.33a10.21,10.21,0,0,1,8.45-4.14A37.5,37.5,0,0,1,288.86,121.24Z"/><path class="cls-5" d="M288,121.54s.52,4.09-1.34,5.06S276.8,130,276.8,130l-8.52-2.49-1-.08.93-2,2.75-1.23a9.41,9.41,0,0,1,7.8-3.82A34.44,34.44,0,0,1,288,121.54Z"/><path class="cls-7" d="M287.69,121.65s.51,4-1.3,4.91-9.56,3.25-9.56,3.25l-8.27-2.42-.94-.07.91-2,2.67-1.19a9.14,9.14,0,0,1,7.57-3.71A33.69,33.69,0,0,1,287.69,121.65Z"/><path class="cls-8" d="M288.86,121.24s.36.1,3.58,4.94c1.83,2.75,3.72,5.85,3.88,6.21s.42,1,.54,1.3A27,27,0,0,1,295,156s-.69,1.19-1.74,2.62a32.43,32.43,0,0,1-3.38,3.9c-2.29,2.17-5.8,4.88-5.8,4.88a8.43,8.43,0,0,1-5.36,2.22,29.74,29.74,0,0,0-4.13.19c-.43.06-1,.54-1.41.42s.24-1.8,5.27-2.8,9-7.68,9.69-9.88,5.58-17.37,4.3-22.22a34.71,34.71,0,0,0-4.15-9.51S289.18,124.77,288.86,121.24Z"/><path class="cls-9" d="M268.53,125.33l2.67-1.19a9.14,9.14,0,0,1,7.57-3.71,33.69,33.69,0,0,1,8.92,1.22s.51,4-1.3,4.91c0,0,.74-2.61-.6-3.15s-9.39-.28-11.12.94S268.53,125.33,268.53,125.33Z"/><path class="cls-10" d="M279,129.14l7.37-20.66s2-4.94,5.85-3.6S304,109.21,304,109.21l.73-1.83-12.07-4.32a7.14,7.14,0,0,0-7.92,4.57c-2.2,5.67-7.93,22.19-7.93,22.19Z"/><path class="cls-11" d="M277.87,129.5l7.95-21.88s2.07-5.18,6.83-3.48,11.69,4.27,11.69,4.27l-.31.8-11.77-4.33s-3.45-1.58-5.78,3.41L279,129.14Z"/></g></svg>