<svg id="Layer_1" data-name="Layer 1" xmlns="http://www.w3.org/2000/svg" viewBox="0 0 512 512"><defs><style>.cls-1{opacity:0.5;}.cls-2{fill:#fff;}.cls-3,.cls-6{fill:#192020;}.cls-4{fill:#827578;}.cls-5{fill:#999;}.cls-16,.cls-5{stroke:#7f7f7f;}.cls-10,.cls-12,.cls-16,.cls-18,.cls-19,.cls-20,.cls-22,.cls-26,.cls-27,.cls-29,.cls-33,.cls-5,.cls-6,.cls-8{stroke-miterlimit:10;}.cls-12,.cls-16,.cls-27,.cls-29,.cls-33,.cls-5,.cls-6{stroke-width:2px;}.cls-10,.cls-18,.cls-19,.cls-20,.cls-6,.cls-8{stroke:#0c292d;}.cls-7{fill:#727272;}.cls-10,.cls-12,.cls-8{fill:#6e6061;}.cls-19,.cls-20,.cls-8{stroke-width:0.5px;}.cls-9{fill:#9fa2a9;}.cls-10{stroke-width:0.25px;}.cls-11{fill:#8f8c91;}.cls-12,.cls-29{stroke:#5b5b5b;}.cls-13{fill:#545353;}.cls-14{fill:#424242;}.cls-15,.cls-33{fill:#303030;}.cls-16{fill:#d8d8d8;}.cls-17{fill:#eefcff;}.cls-18,.cls-19{fill:#025c8e;}.cls-18{stroke-width:0.75px;}.cls-20{fill:#5f6264;}.cls-21,.cls-22{fill:#cf202f;}.cls-22{stroke:#af0000;}.cls-23{fill:#db3146;}.cls-24{fill:#bc0017;}.cls-25{fill:#ea536c;}.cls-26{fill:#a5a5a5;stroke:#666;}.cls-27,.cls-34{fill:#545454;}.cls-27,.cls-33{stroke:#2d2d2d;}.cls-28,.cls-30{fill:#507e83;}.cls-28{opacity:0.56;}.cls-29{fill:#878787;}.cls-30{opacity:0.44;}.cls-31{fill:#aaa;}.cls-32{fill:#707070;}</style></defs><path class="cls-1" d="M92,373.94a7.85,7.85,0,0,1-7.81-7.88,7.69,7.69,0,0,1,.47-2.67H81.33l.22-3.26c-3.87-1.36-8.43-3.63-11.16-7.27A9.13,9.13,0,0,1,68.53,348c0-.16,0-.36,0-.56a10.4,10.4,0,0,1,1.95-6,18.3,18.3,0,0,1,2.84-3.19c.54-.49,1.09-.93,1.6-1.32l.28-1.22a18.79,18.79,0,0,1,2.07-5.15s.72-1.42,1-1.85a11.12,11.12,0,0,1,.81-.83A29.94,29.94,0,0,1,89.44,320a51.34,51.34,0,0,1,7.88-3c7.89-2.36,25.85-3.51,54.91-3.51,11.09,0,23.48.17,36.88.51,2.29-6.62,7.3-21,11.27-31.89,1.63-4.48,2.93-8,3.85-10.3,1.35-3.41,1.83-4.27,2.45-5,2.3-2.75,6-2.75,7.22-2.75a36.7,36.7,0,0,1,7.46,1l4.71,1.14-6.8,48.76c11.17-2,20.13-3.63,23.85-4.28l2-2.41,2.29-.63h.78a5.49,5.49,0,0,1,4,1.78,5.72,5.72,0,0,1,1.43,4.51,20.2,20.2,0,0,1-1.23,4.61c1.59,6.11,1.59,6.77,1.59,7.41a5.69,5.69,0,0,1-1.18,3.51,5.6,5.6,0,0,1-4.44,2.16h0a6.17,6.17,0,0,1-2.06-.36,8,8,0,0,1-1.72-.87l-1.33-.9-1.67-4-18,4.5a16.74,16.74,0,0,1-3.69,3.7c-.58.47-4.93,3.93-10.07,7.59l0,0-.08.05-1.35,1-1.47,1-.25.17-1.31.88-.29.19-1.36.88-.23.15-1.33.82-.09.06c-.49.3-.94.56-1.39.82l-.26.15c-.46.27-.9.51-1.33.74l-.23.12-1.34.68c-4.3,2.06-12.61,4.47-22.3,6.47l-1,.41a8,8,0,0,1,.54,2.89,7.9,7.9,0,0,1-4.6,7.19,7.55,7.55,0,0,1-3.21.7,7.78,7.78,0,0,1-5.16-2,7.3,7.3,0,0,1-3.17.72l-.69,0a7.45,7.45,0,0,1-5.76-3.8,15.11,15.11,0,0,1-7.2-1.64c-1.61.16-3.18.31-4.75.44-8.82,3.61-15.71,5.37-21,5.37-4.28,0-7.57-1.16-9.78-3.46a4.72,4.72,0,0,1-.37-.41c-2.25,0-4.52.05-6.78.05h-2.11v1.61h-.8a7.93,7.93,0,0,1-4.14,9.86A7.68,7.68,0,0,1,92,373.94Z"/><path class="cls-2" d="M87.57,369.49a7.9,7.9,0,0,1-7.34-10.56H76.87l.22-3.26c-3.87-1.36-8.43-3.63-11.16-7.27a9.21,9.21,0,0,1-1.86-4.84c0-.17,0-.37,0-.57a10.4,10.4,0,0,1,2-6,18.3,18.3,0,0,1,2.84-3.19c.54-.49,1.09-.93,1.6-1.32l.28-1.22a18.79,18.79,0,0,1,2.07-5.15,20,20,0,0,1,1-1.84,9.92,9.92,0,0,1,.81-.84A30,30,0,0,1,85,315.51a51.34,51.34,0,0,1,7.88-3c7.89-2.36,25.85-3.51,54.91-3.51,11.09,0,23.48.17,36.88.51,2.3-6.62,7.3-21,11.27-31.88,1.63-4.49,2.93-8,3.85-10.3,1.35-3.41,1.83-4.28,2.45-5,2.3-2.75,6-2.75,7.22-2.75a36.7,36.7,0,0,1,7.46,1l4.71,1.14-6.79,48.76c11.16-2,20.12-3.63,23.84-4.28l2-2.4,2.28-.64h.78a5.47,5.47,0,0,1,4,1.78,5.73,5.73,0,0,1,1.43,4.51A20.2,20.2,0,0,1,248,314c1.59,6.11,1.59,6.78,1.59,7.42a5.71,5.71,0,0,1-1.18,3.51A5.6,5.6,0,0,1,244,327h0a6.17,6.17,0,0,1-2.06-.36,7.6,7.6,0,0,1-1.72-.87l-1.33-.89-1.67-4-18,4.5a16.47,16.47,0,0,1-3.68,3.7c-.59.47-4.94,3.93-10.07,7.59l-.05,0-.07,0-1.36,1s-1,.72-1.47,1l-.25.17-1.31.88-.29.19-1.36.88L199,341l-1.33.83-.09.05c-.49.3-.94.56-1.39.82l-.26.15c-.46.27-.9.51-1.32.74l-.24.12-1.34.68c-4.3,2.06-12.61,4.47-22.29,6.47l-1,.41a8,8,0,0,1,.54,2.89,7.93,7.93,0,0,1-4.6,7.2,7.75,7.75,0,0,1-8.36-1.28,7.35,7.35,0,0,1-3.18.72q-.34,0-.69,0a7.41,7.41,0,0,1-5.75-3.8,14.94,14.94,0,0,1-7.2-1.64c-1.62.16-3.19.31-4.75.44-8.83,3.61-15.72,5.37-21,5.37-4.28,0-7.57-1.16-9.78-3.45l-.37-.41c-2.25,0-4.52,0-6.78,0H95.71v1.6h-.8a7.93,7.93,0,0,1-4.14,9.86A7.62,7.62,0,0,1,87.57,369.49Z"/><path class="cls-3" d="M84.78,353.58s1.46,3.65,1.46,5.4v1h2.65s-1.71-4.57-1.19-6.36Z"/><path class="cls-4" d="M84.78,353.58s1.46,3.65,1.46,5.4v1h.88c.17-1.82-1-4.87-1.62-6.36Z"/><path class="cls-5" d="M85.12,361.6a2.49,2.49,0,0,0,2.45,2.54,2.39,2.39,0,0,0,1-.22A2.53,2.53,0,0,0,90,361.6a2.5,2.5,0,0,0-2.45-2.54,2.34,2.34,0,0,0-.88.17A2.53,2.53,0,0,0,85.12,361.6Z"/><path class="cls-3" d="M153.28,349.55v2.82h2a12.11,12.11,0,0,1-1.4-4.17c-.36-2.48-1.16,0-1.16,0Z"/><path class="cls-3" d="M152.17,353.41a2,2,0,0,0,1.8,2h.2a2.05,2.05,0,1,0-1.1-3.76A2.08,2.08,0,0,0,152.17,353.41Z"/><path class="cls-6" d="M159.65,346s1.45,3.66,1.45,5.41v.95h2.66s-1.72-4.57-1.2-6.36Z"/><path class="cls-4" d="M159.65,346s1.45,3.66,1.45,5.41v.95h1.11a14.35,14.35,0,0,0-1.9-6.36Z"/><path class="cls-7" d="M86.29,361.57a1.28,1.28,0,1,0,1.28-1.21A1.24,1.24,0,0,0,86.29,361.57Z"/><path class="cls-4" d="M85.18,361.59A2.41,2.41,0,0,0,87.54,364a2.17,2.17,0,0,0,.95-.21c-1.91.06-2.94-.84-3-1.78-.11-1.44.61-1.94,1.22-2.74A2.44,2.44,0,0,0,85.18,361.59Z"/><path class="cls-8" d="M82.6,353.58h7.77V350.9H82.6S82.65,352.78,82.6,353.58Z"/><path class="cls-4" d="M82.63,353.52H84a3.27,3.27,0,0,1-.49-2.15l.13-.53h-1S82.69,352.73,82.63,353.52Z"/><path class="cls-9" d="M152.17,353.41a2,2,0,0,0,1.8,2c-2.11-1-1.32-3-.9-3.75A2.08,2.08,0,0,0,152.17,353.41Z"/><path class="cls-10" d="M160.05,354.18a2.49,2.49,0,0,0,2.45,2.53,2.31,2.31,0,0,0,1-.21,2.55,2.55,0,0,0,1.47-2.32,2.5,2.5,0,0,0-2.46-2.54,2.32,2.32,0,0,0-.87.17A2.53,2.53,0,0,0,160.05,354.18Z"/><path class="cls-11" d="M161.23,354.15a1.28,1.28,0,1,0,1.27-1.21A1.24,1.24,0,0,0,161.23,354.15Z"/><path class="cls-4" d="M160.13,354.13a2.47,2.47,0,0,0,2.45,2.48,2.5,2.5,0,0,0,1-.2c-2,.06-3-.86-3.13-1.82-.11-1.46.63-2,1.27-2.78A2.47,2.47,0,0,0,160.13,354.13Z"/><path class="cls-12" d="M108,352.48a2.92,2.92,0,0,0,.83,1.5c2.06,2.14,9.13,4.63,33.21-6.82,0,0,0-.28,0-.75a15.45,15.45,0,0,0-.93-5.86s-28.6-5.45-32.25.95S108,352.48,108,352.48Z"/><path class="cls-13" d="M108.73,353.55c1.92,2.35,9.22,5.06,33.3-6.39,0,0,0-.28,0-.75C124.31,355.19,112.92,354.23,108.73,353.55Z"/><path class="cls-14" d="M106.8,347.57c0,3.87,1.87,7,4.17,7a3,3,0,0,0,2-.82,8.54,8.54,0,0,0,2.21-6.2c0-3.88-1.87-7-4.18-7a2.35,2.35,0,0,0-.69.1C108.3,341.2,106.8,344.09,106.8,347.57Z"/><path class="cls-15" d="M107.37,347.7c0,3.17,1.53,5.74,3.42,5.74a2.15,2.15,0,0,0,.9-.2c1.45-.66,2.52-2.89,2.52-5.54,0-3.18-1.53-5.75-3.42-5.75a2.53,2.53,0,0,0-1.91,1A7.35,7.35,0,0,0,107.37,347.7Z"/><path class="cls-16" d="M69.4,342.93a1.62,1.62,0,0,0,0,.22,3.89,3.89,0,0,0,.8,2c3.51,4.67,12.48,6.55,12.48,6.55,64,1.87,100.24-8.42,108-12.16s21.45-14.7,21.45-14.7c2.3-1.73,3.24-3.24,3.43-4.5a3.36,3.36,0,0,0,0-1.1,5,5,0,0,0-2.26-2.92,7.64,7.64,0,0,0-1.15-.63l-3.49-.14c-4-.16-11.28-.42-20.27-.67-30.22-.83-80.16-1.48-94,2.68a46.14,46.14,0,0,0-7,2.71,23.58,23.58,0,0,0-9.11,7.22l0,0h0l-.06.08h0a1,1,0,0,1-.08.11,13.91,13.91,0,0,0-2.19,5l0,.16a2,2,0,0,0,0,.24l0,.08c0,.05,0,.1,0,.15a.77.77,0,0,0,0,.15v.14s0,.09,0,.13h0v.14c0,.06,0,.12,0,.18v.09a.71.71,0,0,0,0,.14v.39c0,.39,0,.61,0,.64h0a21.3,21.3,0,0,0-3.25,2.39,12.39,12.39,0,0,0-2,2.22A5.15,5.15,0,0,0,69.4,342.93Z"/><path class="cls-17" d="M78.45,327.76c9-2.73,44.77-11.24,137.14-8.48a5,5,0,0,0-2.26-2.92c-19.48-.56-95.37-2.28-125.63,3.95a23.56,23.56,0,0,0-9.09,7.22l0,0h0l0,.08h0Z"/><path class="cls-18" d="M75.86,335.37h0s9.5-.86,12-1.85l.08-.87.6-6.51s-9.18.2-10.12,1.39l0,0h0l0,.08h0a13.85,13.85,0,0,0-2.23,5.08A9.31,9.31,0,0,0,75.86,335.37Z"/><rect class="cls-19" x="101.23" y="325.62" width="8.12" height="7" rx="0.46" transform="translate(-8.3 2.77) rotate(-1.45)"/><rect class="cls-19" x="112.67" y="325.66" width="7.28" height="6.51" rx="0.46" transform="translate(-8.29 3.05) rotate(-1.45)"/><rect class="cls-19" x="123.79" y="325.58" width="6.89" height="6.13" rx="0.46" transform="translate(-8.27 3.32) rotate(-1.45)"/><rect class="cls-19" x="134.12" y="325.51" width="6.51" height="5.75" rx="0.46" transform="translate(-8.26 3.58) rotate(-1.45)"/><rect class="cls-19" x="144.37" y="325.44" width="6.13" height="5.36" rx="0.46" transform="translate(-8.26 3.84) rotate(-1.45)"/><rect class="cls-19" x="153.71" y="325.36" width="5.75" height="4.98" rx="0.46" transform="translate(-8.24 4.07) rotate(-1.45)"/><rect class="cls-20" x="185.57" y="325.31" width="4.21" height="3.45" rx="0.46" transform="translate(-8.22 4.86) rotate(-1.45)"/><path class="cls-21" d="M69.61,343.14a4,4,0,0,0,.88,2A10.26,10.26,0,0,0,72.25,347c4.08,3.35,10.42,4.79,10.42,4.79,63.86,1.86,100.08-8.39,107.86-12.11a88.86,88.86,0,0,0,11.55-7.22C207.42,328.62,212,325,212,325c2.29-1.73,3.24-3.22,3.43-4.48-5.75,3.1-13.67,7.22-24.58,12.7C154.11,351.62,82.2,344.54,69.61,343.14Z"/><path class="cls-21" d="M72.31,347c4.09,3.36,10.39,4.72,10.39,4.72,64,1.87,100.23-8.44,108-12.18a90.13,90.13,0,0,0,11.57-7.25q-4.16,2.13-9.09,4.61C156.78,355.26,85.83,348.53,72.31,347Z"/><path class="cls-22" d="M188.42,314.92l4.24.12H193c6.89.21,12.41.41,15.74.54l1.37-9.8,2.31-16.63.95-6.82,2-14,.16-1.2.21-1.46s-7.76-1.87-9.32,0a24.55,24.55,0,0,0-1.58,3.56c-1,2.49-2.32,6.08-3.8,10.16-4.47,12.3-10.31,29.11-12,34.07Z"/><path class="cls-23" d="M189.08,313.45a112.29,112.29,0,0,1,6.44-9.66c4.72-6.36,10.56-12.48,16.65-14.63l.93-6.82a24.14,24.14,0,0,0-9.22-2.94,14.35,14.35,0,0,0-2.78,0C196.71,291.7,190.77,308.48,189.08,313.45Z"/><path class="cls-24" d="M192.42,315c7,.21,12.65.42,16,.55l1.37-9.8C200.94,308,195.58,311.73,192.42,315Z"/><path class="cls-24" d="M204.87,269.37a19.93,19.93,0,0,1,8.28-1.15c.67,0,1.35.13,2,.25l.16-1.21.2-1.45s-7.61-1.87-9.14,0A23.66,23.66,0,0,0,204.87,269.37Z"/><path class="cls-25" d="M201.1,279.41a17.57,17.57,0,0,1,3,0c3.44-6.65,6.74-9.67,9.3-11.14a20.89,20.89,0,0,0-8.48,1C203.92,271.74,202.59,275.33,201.1,279.41Z"/><path class="cls-25" d="M188.66,314.73l4.24.12h.28q1.22-6.14,2.49-11.27a112.29,112.29,0,0,0-6.52,9.7C188.84,314.19,188.67,314.7,188.66,314.73Z"/><path class="cls-17" d="M72.64,338c2.58-.31,13-1.68,15.17-4.24-2.46,1-12,1.85-12,1.85h0A20.7,20.7,0,0,0,72.64,338Z"/><path class="cls-17" d="M69.68,343l.07,0c.53.25,1.26-.21,1.63-1s.24-1.66-.29-1.9a.63.63,0,0,0-.38-.06A5.27,5.27,0,0,0,69.68,343Z"/><path class="cls-26" d="M126.77,338.64h0c.79-.19,103.05-25.15,114.32-24.35l.31,0h0v-3.28s-98.54,17.2-108.91,22.47a2.83,2.83,0,0,0-.68.45l-1.33,1.22Z"/><path class="cls-17" d="M131.35,335.19,242,311.56v-.48c-23.46,4.36-87.84,18-108.67,22.44a3.16,3.16,0,0,0-.69.45Z"/><path class="cls-27" d="M126.77,338.64l19.46-2.09,11-1.18,82-20.49,2.2-.55h0l-.31,0c-1.93-.14-6.54.48-12.86,1.6h0C197.72,321.32,127.42,338.48,126.77,338.64Z"/><path class="cls-15" d="M146.23,336.55l11-1.18,82-20.49,2.2-.55h0l-.31,0c-1.93-.14-6.54.48-12.86,1.6h0C204.82,322.08,164.84,332,146.23,336.55Z"/><path class="cls-26" d="M239.73,313.11l3.45,8.27a2.89,2.89,0,0,0,.51.26c.2.07.39.09.49,0a.37.37,0,0,0,.06-.23c0-.72-1.85-7.72-1.85-7.72v0a28.91,28.91,0,0,0,1.51-4.77c0-.32,0-.5-.2-.45Z"/><path class="cls-17" d="M239.73,313.11l3.45,8.27a2.89,2.89,0,0,0,.51.26l-3.25-8.54,3.47-4.23c0-.32,0-.5-.2-.45Z"/><path class="cls-28" d="M241.38,313.7l2.75,7.88a.32.32,0,0,0,.06-.22c0-.71-1.85-7.63-1.85-7.63v0Z"/><path class="cls-29" d="M140.19,344.5a9.69,9.69,0,0,0,.22,1.66,7.54,7.54,0,0,0,.76,2.15,2.64,2.64,0,0,0,.46,1.05c1.49,2.16,7.74,5.92,33.58-6.37,0,0,0-.19,0-.52v-.11a19.47,19.47,0,0,0-.11-2.56c0-.15,0-.3,0-.45a11.41,11.41,0,0,0-.76-3s-28.61-5.45-32.26.94a13.35,13.35,0,0,0-1.88,6.39A6.71,6.71,0,0,0,140.19,344.5Z"/><path class="cls-30" d="M140.41,346.1a7.08,7.08,0,0,0,.76,2.07,2.5,2.5,0,0,0,.46,1c1.49,2.07,7.74,5.68,33.58-6.12,0,0,0-.23,0-.61s0-.61,0-1c0,.32,0,.5,0,.5-25.84,11.81-32.09,8.19-33.58,6.12a2.5,2.5,0,0,1-.46-1,7.24,7.24,0,0,1-.76-2.08,8.71,8.71,0,0,1-.22-1.59c0,.12,0,.24,0,.36A9.5,9.5,0,0,0,140.41,346.1Z"/><path class="cls-31" d="M139.92,343.72c6.57.26,21.9.27,34.85-4.28,0-.2-.06-.4-.1-.6a10.36,10.36,0,0,0-.67-2.31s-28.55-5.35-32.19.93A13.27,13.27,0,0,0,140,343.1Z"/><path class="cls-17" d="M140.36,343.69h0a13.35,13.35,0,0,1,1.83-5.69c3.54-6.21,31.05-1.15,32.11-.95l-.22-.63c-1.06-.2-28.35-5.26-31.89.94A13.15,13.15,0,0,0,140.36,343.69Z"/><path class="cls-32" d="M140,343.4c0,3.88,1.87,7,4.18,7a2.91,2.91,0,0,0,2-.82c1.32-1.18,2.21-3.51,2.21-6.2,0-3.87-1.87-7-4.17-7a2.74,2.74,0,0,0-.7.09C141.49,337,140,339.92,140,343.4Z"/><path class="cls-33" d="M140.56,343.53c0,3.17,1.53,5.75,3.42,5.75a2,2,0,0,0,.9-.21c1.45-.66,2.51-2.89,2.51-5.54,0-3.17-1.53-5.74-3.41-5.74a2.59,2.59,0,0,0-1.92,1A7.35,7.35,0,0,0,140.56,343.53Z"/><path class="cls-34" d="M144.56,348.73a5.71,5.71,0,0,0,2.76-5.21c0-3.09-1.32-5.36-3.16-5.36a2.54,2.54,0,0,0-1.87,1C143.46,339.56,145.92,341,144.56,348.73Z"/><path class="cls-1" d="M285.93,375a7.86,7.86,0,0,1-7.8-7.89,8,8,0,0,1,.46-2.67h-3.36l.22-3.25c-3.87-1.36-8.43-3.64-11.16-7.28a9.15,9.15,0,0,1-1.86-4.84c0-.17,0-.37,0-.56a10.4,10.4,0,0,1,1.95-6,17.6,17.6,0,0,1,2.84-3.19c.54-.49,1.09-.94,1.6-1.32l.28-1.23a18.91,18.91,0,0,1,2.07-5.15,20,20,0,0,1,1-1.84c.17-.23.81-.84.81-.84a30,30,0,0,1,10.34-7.9,52.39,52.39,0,0,1,7.88-3c7.89-2.37,25.85-3.52,54.91-3.52,11.09,0,23.48.17,36.88.52,2.3-6.63,7.3-21,11.27-31.89,1.63-4.49,2.93-7.95,3.85-10.3,1.35-3.41,1.83-4.27,2.45-5,2.3-2.76,6-2.76,7.22-2.76a36.7,36.7,0,0,1,7.46,1l4.71,1.14-6.79,48.76c11.16-2,20.12-3.62,23.84-4.28l2-2.4,2.29-.64h.78a5.47,5.47,0,0,1,4,1.78,5.73,5.73,0,0,1,1.43,4.51,20.07,20.07,0,0,1-1.23,4.61c1.59,6.12,1.59,6.78,1.59,7.42a5.69,5.69,0,0,1-1.18,3.51,5.61,5.61,0,0,1-4.44,2.16h0a6.17,6.17,0,0,1-2.06-.36,8.55,8.55,0,0,1-1.72-.87l-1.33-.9-1.67-4-18,4.51a16.89,16.89,0,0,1-3.68,3.7c-.59.46-4.94,3.93-10.08,7.58l0,0-.07.06-1.36.95-1.47,1-.25.17-1.31.87-.29.19c-.46.3-.91.6-1.36.88l-.23.15-1.33.83-.09.05-1.39.83-.26.15-1.33.73-.23.13c-.46.24-.91.47-1.34.67-4.3,2.07-12.61,4.48-22.3,6.48l-1,.41a7.94,7.94,0,0,1-4.06,10.08,7.7,7.7,0,0,1-8.36-1.28,7.24,7.24,0,0,1-3.18.73c-.23,0-.46,0-.69,0a7.38,7.38,0,0,1-5.75-3.79,15.05,15.05,0,0,1-7.2-1.65l-4.75.45c-8.83,3.61-15.72,5.36-21,5.36-4.28,0-7.57-1.16-9.78-3.45-.13-.14-.26-.27-.37-.41-2.25,0-4.52,0-6.78,0h-2.11v1.6h-.8a7.94,7.94,0,0,1-4.14,9.87A7.64,7.64,0,0,1,285.93,375Z"/><path class="cls-2" d="M281.47,370.55a7.85,7.85,0,0,1-7.8-7.88,8,8,0,0,1,.46-2.68h-3.36l.22-3.25c-3.86-1.36-8.42-3.64-11.16-7.27a9.21,9.21,0,0,1-1.86-4.85c0-.16,0-.36,0-.56a10.35,10.35,0,0,1,2-6,17.16,17.16,0,0,1,2.83-3.19c.55-.49,1.09-.93,1.6-1.32l.29-1.23a18.51,18.51,0,0,1,2.06-5.14s.72-1.42,1-1.85c.18-.23.81-.84.81-.84a30.12,30.12,0,0,1,10.34-7.89,51.34,51.34,0,0,1,7.88-3c7.89-2.37,25.85-3.52,54.91-3.52,11.09,0,23.48.18,36.88.52,2.3-6.62,7.3-21,11.27-31.89,1.63-4.49,2.93-7.95,3.86-10.3,1.34-3.41,1.82-4.27,2.45-5,2.29-2.75,6-2.75,7.21-2.75a36.58,36.58,0,0,1,7.46,1l4.72,1.13-6.8,48.77c11.16-2,20.12-3.63,23.84-4.29l2-2.4,2.28-.64h.79a5.46,5.46,0,0,1,4,1.77,5.7,5.7,0,0,1,1.44,4.52A21,21,0,0,1,441.9,315c1.59,6.11,1.59,6.77,1.59,7.41a5.69,5.69,0,0,1-1.18,3.51,5.61,5.61,0,0,1-4.44,2.16h0a6.07,6.07,0,0,1-2.05-.36,8,8,0,0,1-1.72-.87l-1.34-.9-1.67-4-18,4.51a17,17,0,0,1-3.69,3.7c-.59.47-4.94,3.93-10.07,7.58l-.05,0-.07.06c-.45.32-.9.64-1.36,1l-1.47,1-.25.17-1.31.87-.29.19-1.36.89-.23.14-1.33.83-.09.06-1.38.82-.27.15c-.46.26-.9.51-1.32.73l-.24.13c-.46.24-.9.47-1.33.67-4.31,2.07-12.62,4.48-22.3,6.48l-1,.41a8,8,0,0,1,.54,2.89,7.89,7.89,0,0,1-4.6,7.19,7.7,7.7,0,0,1-8.36-1.28,7.21,7.21,0,0,1-3.18.73l-.69,0a7.41,7.41,0,0,1-5.75-3.8,15.17,15.17,0,0,1-7.2-1.64l-4.75.44c-8.83,3.61-15.71,5.37-21,5.37-4.28,0-7.57-1.17-9.78-3.46l-.37-.41q-3.37,0-6.78,0h-2.1V360h-.81a8,8,0,0,1,.46,2.68,7.91,7.91,0,0,1-4.6,7.19A7.61,7.61,0,0,1,281.47,370.55Z"/><path class="cls-3" d="M278.69,354.64s1.45,3.66,1.45,5.41V361h2.66s-1.72-4.57-1.2-6.36Z"/><path class="cls-4" d="M278.69,354.64s1.45,3.66,1.45,5.41V361H281c.17-1.82-1-4.87-1.62-6.36Z"/><path class="cls-5" d="M279,362.67a2.49,2.49,0,0,0,2.45,2.53,2.34,2.34,0,0,0,1-.21,2.54,2.54,0,0,0,1.46-2.32,2.49,2.49,0,0,0-2.45-2.54,2.38,2.38,0,0,0-.88.17A2.52,2.52,0,0,0,279,362.67Z"/><path class="cls-3" d="M347.18,350.62v2.81h2a12,12,0,0,1-1.41-4.16c-.36-2.49-1.16,0-1.16,0Z"/><path class="cls-3" d="M346.07,354.48a2,2,0,0,0,1.8,2h.2a2.05,2.05,0,0,0,0-4.1,1.88,1.88,0,0,0-1.09.34A2,2,0,0,0,346.07,354.48Z"/><path class="cls-6" d="M353.55,347.1s1.46,3.66,1.46,5.4v1h2.65s-1.72-4.57-1.19-6.36Z"/><path class="cls-4" d="M353.55,347.1s1.46,3.66,1.46,5.4v1h1.1a14.48,14.48,0,0,0-1.89-6.36Z"/><path class="cls-7" d="M280.2,362.64a1.27,1.27,0,1,0,1.27-1.21A1.24,1.24,0,0,0,280.2,362.64Z"/><path class="cls-4" d="M279.08,362.66a2.37,2.37,0,0,0,3.32,2.24c-1.92.06-2.95-.85-3-1.79-.1-1.43.61-1.93,1.22-2.74A2.44,2.44,0,0,0,279.08,362.66Z"/><path class="cls-8" d="M276.5,354.64h7.77V352H276.5S276.55,353.85,276.5,354.64Z"/><path class="cls-4" d="M276.53,354.59h1.39a3.27,3.27,0,0,1-.49-2.15l.13-.53h-1S276.59,353.79,276.53,354.59Z"/><path class="cls-9" d="M346.07,354.48a2,2,0,0,0,1.8,2c-2.11-1-1.32-3-.89-3.75A2,2,0,0,0,346.07,354.48Z"/><path class="cls-10" d="M354,355.24a2.5,2.5,0,0,0,2.46,2.54,2.31,2.31,0,0,0,1-.22,2.55,2.55,0,0,0-1-4.86,2.34,2.34,0,0,0-.88.17A2.55,2.55,0,0,0,354,355.24Z"/><path class="cls-11" d="M355.13,355.21a1.28,1.28,0,1,0,1.28-1.2A1.24,1.24,0,0,0,355.13,355.21Z"/><path class="cls-4" d="M354,355.19a2.47,2.47,0,0,0,2.45,2.49,2.31,2.31,0,0,0,1-.21c-2,.06-3.05-.86-3.13-1.81-.11-1.46.63-2,1.27-2.79A2.49,2.49,0,0,0,354,355.19Z"/><path class="cls-12" d="M301.89,353.55a2.93,2.93,0,0,0,.84,1.5c2,2.14,9.12,4.62,33.2-6.83,0,0,0-.28,0-.75a15.4,15.4,0,0,0-.93-5.85s-28.6-5.45-32.25.94S301.89,353.55,301.89,353.55Z"/><path class="cls-13" d="M302.63,354.61c1.92,2.35,9.22,5.06,33.3-6.39,0,0,0-.28,0-.75C318.21,356.25,306.82,355.29,302.63,354.61Z"/><path class="cls-14" d="M300.7,348.63c0,3.88,1.87,7,4.18,7a2.93,2.93,0,0,0,2-.82,8.53,8.53,0,0,0,2.21-6.2c0-3.87-1.87-7-4.17-7a2.74,2.74,0,0,0-.7.09C302.21,342.27,300.7,345.16,300.7,348.63Z"/><path class="cls-15" d="M301.28,348.76c0,3.18,1.53,5.75,3.41,5.75a2.19,2.19,0,0,0,.91-.2c1.45-.67,2.51-2.9,2.51-5.55,0-3.17-1.53-5.74-3.42-5.74a2.57,2.57,0,0,0-1.91,1A7.35,7.35,0,0,0,301.28,348.76Z"/><path class="cls-16" d="M263.3,344a1.77,1.77,0,0,0,0,.23,3.86,3.86,0,0,0,.8,2c3.51,4.68,12.48,6.55,12.48,6.55,64,1.87,100.24-8.42,108-12.16S406.08,326,406.08,326c2.3-1.74,3.24-3.24,3.43-4.5a3.1,3.1,0,0,0,0-1.1,5,5,0,0,0-2.26-2.92,7.78,7.78,0,0,0-1.15-.64l-3.49-.14c-4-.15-11.27-.42-20.27-.66-30.22-.83-80.16-1.48-94,2.67a46.5,46.5,0,0,0-7.05,2.72,23.66,23.66,0,0,0-9.11,7.21l0,0h0l-.05.08h0l-.08.11a14,14,0,0,0-2.19,5l0,.17a2,2,0,0,0,0,.24l0,.07a.77.77,0,0,1,0,.15c0,.05,0,.1,0,.15v.14c0,.05,0,.1,0,.14h0V335c0,.07,0,.13,0,.18v.1a.61.61,0,0,0,0,.14v.39a5.06,5.06,0,0,0,0,.63h0a22.15,22.15,0,0,0-3.25,2.39,13.11,13.11,0,0,0-2,2.22A5.25,5.25,0,0,0,263.3,344Z"/><path class="cls-17" d="M272.35,328.83c9-2.74,44.77-11.24,137.14-8.48a5,5,0,0,0-2.26-2.92c-19.48-.56-95.37-2.28-125.63,3.95a23.65,23.65,0,0,0-9.09,7.21s0,0,0,0h0l-.06.08h0A.44.44,0,0,0,272.35,328.83Z"/><path class="cls-18" d="M269.76,336.43h0s9.5-.85,12-1.85l.08-.86.6-6.52s-9.18.21-10.12,1.39l0,0h0a.22.22,0,0,1-.05.08h0a13.87,13.87,0,0,0-2.24,5.07A9.32,9.32,0,0,0,269.76,336.43Z"/><rect class="cls-19" x="295.13" y="326.69" width="8.12" height="7" rx="0.46" transform="translate(-8.26 7.68) rotate(-1.45)"/><rect class="cls-19" x="306.57" y="326.73" width="7.28" height="6.51" rx="0.46" transform="translate(-8.25 7.96) rotate(-1.45)"/><rect class="cls-19" x="317.69" y="326.64" width="6.89" height="6.13" rx="0.46" transform="translate(-8.24 8.23) rotate(-1.45)"/><rect class="cls-19" x="328.03" y="326.58" width="6.51" height="5.75" rx="0.46" transform="translate(-8.23 8.49) rotate(-1.45)"/><rect class="cls-19" x="338.27" y="326.51" width="6.13" height="5.36" rx="0.46" transform="translate(-8.22 8.74) rotate(-1.45)"/><rect class="cls-19" x="347.61" y="326.43" width="5.75" height="4.98" rx="0.46" transform="translate(-8.21 8.97) rotate(-1.45)"/><rect class="cls-20" x="379.48" y="326.38" width="4.21" height="3.45" rx="0.46" transform="translate(-8.18 9.76) rotate(-1.45)"/><path class="cls-21" d="M263.52,344.2a3.93,3.93,0,0,0,.87,2,11.07,11.07,0,0,0,1.76,1.8c4.08,3.34,10.42,4.78,10.42,4.78,63.86,1.86,100.08-8.38,107.87-12.11A89.11,89.11,0,0,0,396,333.47c5.33-3.79,9.86-7.42,9.86-7.42,2.3-1.72,3.24-3.22,3.43-4.48-5.75,3.11-13.67,7.23-24.58,12.71C348,352.69,276.1,345.6,263.52,344.2Z"/><path class="cls-21" d="M266.21,348.1c4.09,3.36,10.39,4.73,10.39,4.73,64,1.87,100.23-8.45,108-12.19a89,89,0,0,0,11.57-7.25c-2.77,1.42-5.79,3-9.09,4.61C350.69,356.33,279.73,349.59,266.21,348.1Z"/><path class="cls-22" d="M382.32,316l4.25.12h.28c6.89.2,12.41.4,15.74.53l1.37-9.8,2.32-16.62,1-6.82,1.95-14,.16-1.2.21-1.45s-7.76-1.87-9.32,0a24,24,0,0,0-1.58,3.56c-1,2.49-2.32,6.07-3.8,10.16-4.47,12.29-10.31,29.1-12,34.07Z"/><path class="cls-23" d="M383,314.51a111.77,111.77,0,0,1,6.45-9.66c4.71-6.35,10.56-12.47,16.64-14.62l.93-6.82a24.14,24.14,0,0,0-9.22-2.94,15.19,15.19,0,0,0-2.78,0C390.61,292.77,384.67,309.55,383,314.51Z"/><path class="cls-24" d="M386.32,316.11c7,.21,12.65.41,16,.54l1.36-9.8C394.84,309,389.48,312.8,386.32,316.11Z"/><path class="cls-24" d="M398.77,270.43a19.77,19.77,0,0,1,8.28-1.14c.67,0,1.35.13,2.05.24l.16-1.2.2-1.46s-7.61-1.87-9.14,0A23.66,23.66,0,0,0,398.77,270.43Z"/><path class="cls-25" d="M395,280.48a17.45,17.45,0,0,1,3,0c3.44-6.66,6.74-9.67,9.3-11.14a20.55,20.55,0,0,0-8.48,1C397.83,272.81,396.49,276.39,395,280.48Z"/><path class="cls-25" d="M382.56,315.79l4.24.12h.28q1.21-6.14,2.49-11.27a112.81,112.81,0,0,0-6.51,9.7C382.74,315.25,382.57,315.77,382.56,315.79Z"/><path class="cls-17" d="M266.54,339.09c2.58-.3,13-1.68,15.17-4.24-2.46,1-12,1.85-12,1.85h0A21.51,21.51,0,0,0,266.54,339.09Z"/><path class="cls-17" d="M263.58,344.07l.07,0c.53.24,1.27-.21,1.64-1s.23-1.66-.3-1.91a.8.8,0,0,0-.38-.06A5.3,5.3,0,0,0,263.58,344.07Z"/><path class="cls-26" d="M320.67,339.71h0c.79-.2,103.05-25.16,114.32-24.36l.31,0h0v-3.27s-98.54,17.19-108.91,22.47a2.85,2.85,0,0,0-.68.44l-1.33,1.22Z"/><path class="cls-17" d="M325.25,336.25l110.68-23.63v-.47c-23.46,4.36-87.84,18-108.67,22.44a3.18,3.18,0,0,0-.69.44Z"/><path class="cls-27" d="M320.67,339.71l19.47-2.1,10.95-1.18,82-20.49,2.2-.55h0l-.31,0c-1.93-.13-6.54.49-12.86,1.61h0C391.62,322.39,321.32,339.55,320.67,339.71Z"/><path class="cls-15" d="M340.14,337.61l10.95-1.18,82-20.49,2.2-.55h0l-.31,0c-1.93-.13-6.54.49-12.86,1.61h0C398.72,323.14,358.74,333,340.14,337.61Z"/><path class="cls-26" d="M433.64,314.17l3.44,8.27a2.77,2.77,0,0,0,.52.26c.19.07.39.1.48,0a.35.35,0,0,0,.06-.23c0-.71-1.85-7.71-1.85-7.71v0a28.29,28.29,0,0,0,1.51-4.77c0-.31,0-.49-.2-.45Z"/><path class="cls-17" d="M433.64,314.17l3.44,8.27a2.77,2.77,0,0,0,.52.26l-3.26-8.53,3.47-4.24c0-.31,0-.49-.2-.45Z"/><path class="cls-28" d="M435.28,314.77l2.75,7.88a.35.35,0,0,0,.07-.23c0-.71-1.86-7.63-1.86-7.63v0Z"/><path class="cls-29" d="M334.09,345.56a9.55,9.55,0,0,0,.22,1.66,7.34,7.34,0,0,0,.77,2.16,2.58,2.58,0,0,0,.45,1.05c1.49,2.15,7.74,5.91,33.58-6.37,0,0,0-.19,0-.53v-.11a21.15,21.15,0,0,0-.1-2.56l-.06-.44a11.59,11.59,0,0,0-.76-3S339.61,332,336,338.4a13.32,13.32,0,0,0-1.88,6.39C334.07,345.06,334.08,345.32,334.09,345.56Z"/><path class="cls-30" d="M334.31,347.16a7.05,7.05,0,0,0,.77,2.08,2.38,2.38,0,0,0,.45,1c1.49,2.07,7.74,5.69,33.58-6.12,0,0,0-.23,0-.61s0-.6,0-1c0,.31,0,.5,0,.5-25.84,11.81-32.09,8.19-33.58,6.12a2.38,2.38,0,0,1-.45-1,6.9,6.9,0,0,1-.77-2.07,8.84,8.84,0,0,1-.22-1.59c0,.12,0,.24,0,.35A9.45,9.45,0,0,0,334.31,347.16Z"/><path class="cls-31" d="M333.82,344.79c6.57.26,21.9.26,34.85-4.29,0-.19-.06-.39-.1-.59a10.29,10.29,0,0,0-.67-2.32s-28.55-5.34-32.19.93a13.31,13.31,0,0,0-1.86,5.64Z"/><path class="cls-17" d="M334.26,344.76h0a13.58,13.58,0,0,1,1.83-5.69c3.54-6.2,31.05-1.14,32.11-.94l-.22-.64c-1.06-.2-28.35-5.26-31.89.95A13.15,13.15,0,0,0,334.26,344.76Z"/><path class="cls-32" d="M333.88,344.47c0,3.87,1.87,7,4.18,7a3,3,0,0,0,2-.82c1.32-1.18,2.21-3.52,2.21-6.2,0-3.88-1.87-7-4.17-7a2.26,2.26,0,0,0-.69.1C335.39,338.1,333.88,341,333.88,344.47Z"/><path class="cls-33" d="M334.46,344.6c0,3.17,1.53,5.74,3.42,5.74a2.18,2.18,0,0,0,.9-.2c1.45-.66,2.51-2.89,2.51-5.54,0-3.18-1.53-5.75-3.41-5.75a2.57,2.57,0,0,0-1.92,1A7.41,7.41,0,0,0,334.46,344.6Z"/><path class="cls-34" d="M338.46,349.79a5.7,5.7,0,0,0,2.77-5.2c0-3.09-1.33-5.36-3.17-5.36a2.52,2.52,0,0,0-1.87,1C337.36,340.62,339.82,342.07,338.46,349.79Z"/><path class="cls-1" d="M235.85,251.42a7.85,7.85,0,0,1-7.8-7.88,7.93,7.93,0,0,1,.46-2.67h-3.36l.23-3.26c-3.87-1.36-8.43-3.63-11.16-7.27a9.13,9.13,0,0,1-1.86-4.85c0-.16,0-.36,0-.56a10.42,10.42,0,0,1,2-6,18.64,18.64,0,0,1,2.83-3.19c.55-.49,1.1-.93,1.61-1.32l.28-1.22a18.79,18.79,0,0,1,2.07-5.15s.72-1.42,1-1.85a11.12,11.12,0,0,1,.81-.83,29.94,29.94,0,0,1,10.34-7.9,51.61,51.61,0,0,1,7.87-3c7.89-2.36,25.86-3.51,54.92-3.51,11.09,0,23.48.17,36.87.51,2.3-6.62,7.31-21,11.28-31.89,1.63-4.48,2.92-8,3.85-10.3,1.35-3.41,1.82-4.27,2.45-5,2.29-2.75,6-2.75,7.21-2.75a36.72,36.72,0,0,1,7.47,1l4.71,1.14-6.8,48.76c11.17-2,20.13-3.63,23.84-4.28l2-2.41,2.29-.63h.78a5.51,5.51,0,0,1,4,1.78,5.72,5.72,0,0,1,1.43,4.51,20.34,20.34,0,0,1-1.24,4.61c1.6,6.11,1.6,6.77,1.6,7.41a5.62,5.62,0,0,1-5.63,5.67h0a6.15,6.15,0,0,1-2.05-.36,7.81,7.81,0,0,1-1.72-.87l-1.33-.9-1.68-4-18,4.5a16.74,16.74,0,0,1-3.69,3.7c-.58.47-4.94,3.93-10.07,7.59l0,0-.08.05-1.35,1-1.48,1-.25.17-1.3.88-.29.19-1.36.88-.24.15-1.32.82-.09.06c-.49.3-.95.56-1.39.82l-.26.15-1.33.74-.23.12-1.34.68c-4.31,2.06-12.61,4.47-22.3,6.47l-1,.41a7.77,7.77,0,0,1,.54,2.89A7.9,7.9,0,0,1,314,243.3a7.58,7.58,0,0,1-3.21.7,7.78,7.78,0,0,1-5.16-2,7.33,7.33,0,0,1-3.17.72c-.23,0-.47,0-.69,0a7.43,7.43,0,0,1-5.76-3.8,15.05,15.05,0,0,1-7.2-1.64c-1.61.16-3.19.31-4.75.44-8.83,3.61-15.71,5.37-21,5.37-4.29,0-7.58-1.16-9.78-3.46-.13-.13-.26-.27-.38-.41-2.24,0-4.51.05-6.77.05H244v1.61h-.8a7.93,7.93,0,0,1-4.14,9.86A7.69,7.69,0,0,1,235.85,251.42Z"/><path class="cls-2" d="M231.4,247a7.9,7.9,0,0,1-7.35-10.56H220.7l.22-3.26c-3.87-1.36-8.43-3.63-11.16-7.27A9.13,9.13,0,0,1,207.9,221c0-.17,0-.37,0-.57a10.4,10.4,0,0,1,2-6,18.3,18.3,0,0,1,2.84-3.19c.54-.49,1.09-.93,1.6-1.32l.28-1.22a18.79,18.79,0,0,1,2.07-5.15,20,20,0,0,1,1-1.84,9.92,9.92,0,0,1,.81-.84,29.94,29.94,0,0,1,10.34-7.9,51.34,51.34,0,0,1,7.88-3c7.89-2.36,25.85-3.51,54.91-3.51,11.09,0,23.48.17,36.88.51,2.29-6.62,7.3-21,11.27-31.88,1.63-4.49,2.93-8,3.85-10.3,1.35-3.41,1.83-4.28,2.45-5,2.3-2.75,6-2.75,7.22-2.75a36.7,36.7,0,0,1,7.46,1l4.71,1.14-6.8,48.76c11.17-2,20.13-3.63,23.85-4.28l2-2.4,2.29-.64h.78a5.49,5.49,0,0,1,4,1.78,5.73,5.73,0,0,1,1.43,4.51,20.2,20.2,0,0,1-1.23,4.61c1.59,6.11,1.59,6.78,1.59,7.42a5.71,5.71,0,0,1-1.18,3.51,5.62,5.62,0,0,1-4.44,2.15h0a6.17,6.17,0,0,1-2.06-.36,7.6,7.6,0,0,1-1.72-.87l-1.33-.89-1.67-4-18,4.5a16.74,16.74,0,0,1-3.69,3.7c-.58.47-4.93,3.93-10.07,7.59l0,0-.08.05-1.35,1-1.47,1-.25.17-1.31.88-.29.19-1.36.88-.23.15-1.33.83-.09.05c-.49.3-.94.56-1.39.82l-.26.15c-.46.27-.9.51-1.33.74l-.23.12-1.34.68c-4.3,2.06-12.61,4.47-22.3,6.47l-1,.41a8,8,0,0,1,.54,2.89,7.93,7.93,0,0,1-4.6,7.2,7.77,7.77,0,0,1-8.37-1.28,7.3,7.3,0,0,1-3.17.72q-.35,0-.69,0a7.45,7.45,0,0,1-5.76-3.8,15,15,0,0,1-7.2-1.64c-1.61.16-3.18.31-4.75.44-8.82,3.61-15.71,5.37-21,5.37-4.28,0-7.57-1.16-9.78-3.45-.13-.14-.26-.28-.37-.42-2.25,0-4.52.05-6.78.05h-2.11v1.6h-.8a7.93,7.93,0,0,1-4.14,9.86A7.69,7.69,0,0,1,231.4,247Z"/><path class="cls-3" d="M228.61,231.06s1.46,3.65,1.46,5.4v1h2.65s-1.71-4.57-1.19-6.36Z"/><path class="cls-4" d="M228.61,231.06s1.46,3.65,1.46,5.4v1H231c.17-1.82-1-4.87-1.62-6.36Z"/><path class="cls-5" d="M228.94,239.08a2.5,2.5,0,0,0,2.46,2.54,2.31,2.31,0,0,0,1-.22,2.55,2.55,0,0,0-1-4.86,2.34,2.34,0,0,0-.88.17A2.54,2.54,0,0,0,228.94,239.08Z"/><path class="cls-3" d="M297.11,227v2.82h2a11.87,11.87,0,0,1-1.4-4.17c-.37-2.48-1.16,0-1.16,0Z"/><path class="cls-3" d="M296,230.89a2,2,0,0,0,1.8,2h.2a2.05,2.05,0,0,0,0-4.1,2,2,0,0,0-1.1.34A2.08,2.08,0,0,0,296,230.89Z"/><path class="cls-6" d="M303.47,223.51s1.46,3.66,1.46,5.41v1h2.66s-1.72-4.57-1.2-6.36Z"/><path class="cls-4" d="M303.47,223.51s1.46,3.66,1.46,5.41v1H306a14.61,14.61,0,0,0-1.9-6.36Z"/><path class="cls-7" d="M230.12,239.05a1.28,1.28,0,1,0,1.28-1.21A1.24,1.24,0,0,0,230.12,239.05Z"/><path class="cls-4" d="M229,239.07a2.41,2.41,0,0,0,2.37,2.45,2.32,2.32,0,0,0,.95-.21c-1.92.06-2.94-.84-3-1.78-.11-1.44.6-1.94,1.22-2.74A2.45,2.45,0,0,0,229,239.07Z"/><path class="cls-8" d="M226.42,231.06h7.77v-2.68h-7.77S226.48,230.26,226.42,231.06Z"/><path class="cls-4" d="M226.46,231h1.39a3.27,3.27,0,0,1-.49-2.15l.12-.53h-1S226.51,230.21,226.46,231Z"/><path class="cls-9" d="M296,230.89a2,2,0,0,0,1.8,2c-2.12-1-1.33-3-.9-3.75A2.08,2.08,0,0,0,296,230.89Z"/><path class="cls-10" d="M303.88,231.66a2.49,2.49,0,0,0,2.45,2.53,2.34,2.34,0,0,0,1-.21,2.55,2.55,0,0,0,1.47-2.32,2.5,2.5,0,0,0-2.46-2.54,2.29,2.29,0,0,0-.87.17A2.51,2.51,0,0,0,303.88,231.66Z"/><path class="cls-11" d="M305.06,231.63a1.28,1.28,0,1,0,1.27-1.21A1.24,1.24,0,0,0,305.06,231.63Z"/><path class="cls-4" d="M304,231.61a2.47,2.47,0,0,0,2.45,2.48,2.5,2.5,0,0,0,1-.2c-2,.06-3.06-.86-3.13-1.82-.11-1.46.63-2,1.26-2.78A2.47,2.47,0,0,0,304,231.61Z"/><path class="cls-12" d="M251.82,230a2.92,2.92,0,0,0,.83,1.5c2.06,2.14,9.13,4.63,33.21-6.82,0,0,0-.28,0-.75A15.45,15.45,0,0,0,285,218s-28.61-5.45-32.25.95S251.82,230,251.82,230Z"/><path class="cls-13" d="M252.56,231c1.92,2.35,9.22,5.06,33.3-6.39,0,0,0-.28,0-.75C268.13,232.67,256.75,231.71,252.56,231Z"/><path class="cls-14" d="M250.63,225.05c0,3.87,1.87,7,4.17,7a2.94,2.94,0,0,0,2-.82,8.5,8.5,0,0,0,2.22-6.2c0-3.88-1.87-7-4.18-7a2.3,2.3,0,0,0-.69.1C252.13,218.68,250.63,221.57,250.63,225.05Z"/><path class="cls-15" d="M251.2,225.18c0,3.17,1.53,5.74,3.42,5.74a2.15,2.15,0,0,0,.9-.2c1.45-.66,2.52-2.89,2.52-5.54,0-3.18-1.53-5.75-3.42-5.75a2.53,2.53,0,0,0-1.91,1A7.35,7.35,0,0,0,251.2,225.18Z"/><path class="cls-16" d="M213.23,220.41a1.62,1.62,0,0,0,0,.22,3.81,3.81,0,0,0,.8,2c3.51,4.67,12.48,6.55,12.48,6.55,64,1.87,100.24-8.42,108-12.16S356,202.36,356,202.36c2.29-1.73,3.24-3.24,3.43-4.5a3.1,3.1,0,0,0,0-1.1,4.89,4.89,0,0,0-2.26-2.92,7.31,7.31,0,0,0-1.14-.63l-3.49-.14c-4-.16-11.28-.42-20.27-.67-30.22-.83-80.17-1.48-94,2.68a45.73,45.73,0,0,0-7.05,2.71,23.58,23.58,0,0,0-9.11,7.22l0,0h0l-.06.08h0a1,1,0,0,1-.08.11,13.73,13.73,0,0,0-2.19,5l0,.16c0,.08,0,.16,0,.24v.08a.77.77,0,0,0,0,.15.77.77,0,0,0,0,.15v.14s0,.09,0,.13h0v.14a1.1,1.1,0,0,0,0,.18v0s0,0,0,.07a.61.61,0,0,1,0,.14v.2s0,.09,0,.14v.05c0,.39,0,.61,0,.64h0a20.76,20.76,0,0,0-3.25,2.39,12.39,12.39,0,0,0-2,2.22A5.15,5.15,0,0,0,213.23,220.41Z"/><path class="cls-17" d="M222.27,205.24c9-2.73,44.78-11.24,137.14-8.48a4.91,4.91,0,0,0-2.25-2.92c-19.49-.56-95.38-2.28-125.63,3.95a23.56,23.56,0,0,0-9.09,7.22l0,0h0a.22.22,0,0,0,0,.08h0A.44.44,0,0,1,222.27,205.24Z"/><path class="cls-18" d="M219.69,212.85h0s9.5-.86,12-1.85l.08-.87.6-6.51s-9.18.2-10.12,1.39l0,0h0a.56.56,0,0,0-.05.08h0a13.78,13.78,0,0,0-2.23,5.08A8.49,8.49,0,0,0,219.69,212.85Z"/><rect class="cls-19" x="245.06" y="203.1" width="8.12" height="7" rx="0.46" transform="translate(-5.15 6.37) rotate(-1.45)"/><rect class="cls-19" x="256.5" y="203.14" width="7.28" height="6.51" rx="0.46" transform="translate(-5.14 6.65) rotate(-1.45)"/><rect class="cls-19" x="267.62" y="203.06" width="6.89" height="6.13" rx="0.46" transform="translate(-5.13 6.92) rotate(-1.45)"/><rect class="cls-19" x="277.95" y="202.99" width="6.51" height="5.75" rx="0.46" transform="translate(-5.12 7.18) rotate(-1.45)"/><rect class="cls-19" x="288.2" y="202.92" width="6.13" height="5.36" rx="0.46" transform="translate(-5.11 7.44) rotate(-1.45)"/><rect class="cls-19" x="297.54" y="202.84" width="5.75" height="4.98" rx="0.46" transform="translate(-5.1 7.67) rotate(-1.45)"/><rect class="cls-20" x="329.4" y="202.79" width="4.21" height="3.45" rx="0.46" transform="translate(-5.07 8.46) rotate(-1.45)"/><path class="cls-21" d="M213.44,220.62a4,4,0,0,0,.88,2,10.26,10.26,0,0,0,1.76,1.79c4.08,3.35,10.42,4.79,10.42,4.79,63.86,1.86,100.07-8.39,107.86-12.11a88.86,88.86,0,0,0,11.55-7.22c5.33-3.79,9.87-7.42,9.87-7.42,2.29-1.73,3.23-3.22,3.42-4.48-5.74,3.1-13.66,7.22-24.57,12.7C297.94,229.1,226,222,213.44,220.62Z"/><path class="cls-21" d="M216.14,224.51c4.09,3.37,10.39,4.73,10.39,4.73,64,1.87,100.23-8.44,108-12.18a89.39,89.39,0,0,0,11.56-7.25q-4.15,2.13-9.08,4.61C300.61,232.74,229.66,226,216.14,224.51Z"/><path class="cls-22" d="M332.25,192.4l4.24.12h.28c6.89.21,12.42.41,15.75.54l1.36-9.8,2.32-16.63.95-6.82,2-14,.17-1.2.2-1.46s-7.75-1.87-9.31,0a23.39,23.39,0,0,0-1.58,3.56c-1,2.49-2.32,6.08-3.8,10.16-4.48,12.3-10.31,29.11-12,34.07Z"/><path class="cls-23" d="M332.91,190.93a113.92,113.92,0,0,1,6.44-9.67c4.72-6.35,10.56-12.47,16.65-14.62l.93-6.82a24.2,24.2,0,0,0-9.22-2.94,14.35,14.35,0,0,0-2.78,0C340.54,169.18,334.6,186,332.91,190.93Z"/><path class="cls-24" d="M336.25,192.52c7,.21,12.65.42,16,.55l1.37-9.8C344.77,185.44,339.41,189.21,336.25,192.52Z"/><path class="cls-24" d="M348.7,146.85A19.93,19.93,0,0,1,357,145.7c.67.05,1.35.13,2,.25l.16-1.21.2-1.45s-7.61-1.87-9.14,0A23.66,23.66,0,0,0,348.7,146.85Z"/><path class="cls-25" d="M344.93,156.89a17.57,17.57,0,0,1,3,0c3.44-6.65,6.74-9.67,9.3-11.14a20.89,20.89,0,0,0-8.48,1C347.75,149.22,346.42,152.81,344.93,156.89Z"/><path class="cls-25" d="M332.48,192.21l4.25.12H337q1.22-6.14,2.49-11.27a112.29,112.29,0,0,0-6.52,9.7Z"/><path class="cls-17" d="M216.47,215.51c2.58-.31,12.95-1.68,15.17-4.24-2.46,1-12,1.85-12,1.85h0A20.7,20.7,0,0,0,216.47,215.51Z"/><path class="cls-17" d="M213.51,220.49l.07,0c.53.25,1.26-.21,1.63-1s.24-1.66-.29-1.9a.72.72,0,0,0-.38-.07A5.25,5.25,0,0,0,213.51,220.49Z"/><path class="cls-26" d="M270.59,216.12h0c.78-.19,103-25.15,114.32-24.35l.31,0h0v-3.28S286.71,205.73,276.35,211a3.62,3.62,0,0,0-.69.44l-1.32,1.23Z"/><path class="cls-17" d="M275.18,212.67,385.86,189v-.48c-23.46,4.36-87.84,18-108.67,22.44a3.62,3.62,0,0,0-.69.44Z"/><path class="cls-27" d="M270.6,216.12,290.06,214,301,212.85l82.05-20.49,2.2-.55h0l-.31,0c-1.94-.14-6.55.48-12.86,1.6h0C341.55,198.8,271.25,216,270.6,216.12Z"/><path class="cls-15" d="M290.06,214,301,212.85l82.05-20.49,2.2-.55h0l-.31,0c-1.94-.14-6.55.48-12.86,1.6h0C348.65,199.56,308.67,209.45,290.06,214Z"/><path class="cls-26" d="M383.56,190.59l3.45,8.27a2.52,2.52,0,0,0,.51.26c.2.07.39.09.49,0a.37.37,0,0,0,.06-.23c0-.72-1.86-7.72-1.86-7.72l0,0a30,30,0,0,0,1.5-4.77c0-.32,0-.5-.19-.45Z"/><path class="cls-17" d="M383.56,190.59l3.45,8.27a2.52,2.52,0,0,0,.51.26l-3.25-8.54,3.46-4.23c0-.32,0-.5-.19-.45Z"/><path class="cls-28" d="M385.21,191.18l2.75,7.88a.32.32,0,0,0,.06-.22c0-.71-1.85-7.63-1.85-7.63v0Z"/><path class="cls-29" d="M284,222a10.87,10.87,0,0,0,.21,1.66,7.72,7.72,0,0,0,.77,2.15,2.64,2.64,0,0,0,.46,1.05c1.49,2.16,7.74,5.92,33.58-6.37,0,0,0-.19,0-.52v-.11a21.4,21.4,0,0,0-.11-2.56c0-.15,0-.3,0-.45a11.44,11.44,0,0,0-.77-3s-28.6-5.45-32.25.94A13.38,13.38,0,0,0,284,221.2C284,221.47,284,221.73,284,222Z"/><path class="cls-30" d="M284.23,223.58a7.25,7.25,0,0,0,.77,2.07,2.5,2.5,0,0,0,.46,1c1.49,2.07,7.74,5.68,33.58-6.12,0,0,0-.23,0-.61s0-.61,0-1c0,.32,0,.5,0,.5-25.84,11.81-32.09,8.19-33.58,6.12a2.5,2.5,0,0,1-.46-1,7.41,7.41,0,0,1-.77-2.08,9.75,9.75,0,0,1-.21-1.59c0,.12,0,.24,0,.36A10.58,10.58,0,0,0,284.23,223.58Z"/><path class="cls-31" d="M283.75,221.2c6.57.26,21.9.27,34.84-4.28q0-.3-.09-.6a10.36,10.36,0,0,0-.67-2.31s-28.56-5.35-32.2.93a13.37,13.37,0,0,0-1.85,5.64C283.76,220.79,283.75,221,283.75,221.2Z"/><path class="cls-17" d="M284.18,221.17h0a13.6,13.6,0,0,1,1.84-5.7c3.54-6.2,31.05-1.14,32.11-.94l-.23-.63c-1.06-.2-28.34-5.26-31.88.94A13.29,13.29,0,0,0,284.18,221.17Z"/><path class="cls-32" d="M283.81,220.88c0,3.88,1.87,7,4.17,7a2.93,2.93,0,0,0,2-.82,8.53,8.53,0,0,0,2.21-6.2c0-3.87-1.87-7-4.18-7a2.72,2.72,0,0,0-.69.09C285.31,214.52,283.81,217.4,283.81,220.88Z"/><path class="cls-33" d="M284.38,221c0,3.17,1.54,5.75,3.42,5.75a2.06,2.06,0,0,0,.91-.21c1.45-.66,2.51-2.89,2.51-5.54,0-3.17-1.53-5.74-3.42-5.74a2.57,2.57,0,0,0-1.91,1A7.35,7.35,0,0,0,284.38,221Z"/><path class="cls-34" d="M288.39,226.21a5.71,5.71,0,0,0,2.76-5.21c0-3.09-1.33-5.36-3.17-5.36a2.52,2.52,0,0,0-1.86,1C287.29,217,289.75,218.48,288.39,226.21Z"/></svg>