<svg id="Layer_1" data-name="Layer 1" xmlns="http://www.w3.org/2000/svg" viewBox="0 0 512 512"><defs><style>.cls-1{opacity:0.5;}.cls-2{fill:#fff;}.cls-3{fill:#ff0062;}.cls-4{fill:#721c45;}.cls-5{fill:#e88b9d;}</style></defs><path class="cls-1" d="M126,253.07a13.63,13.63,0,0,1-6.85-1.8c-4.22-2.45-6.78-7.11-7-12.8a29.7,29.7,0,0,1,2.91-13.26c-14.09-1.41-20.47-9.08-20.47-16.68,0-7.29,6.34-15.07,20.12-16.62-5.81-12.66-2.5-21.94,4-25.81a13.49,13.49,0,0,1,6.93-1.86c6.42,0,12.9,4.08,18.19,11.33,7-10,14.25-11.58,18.17-11.58a13.64,13.64,0,0,1,6.85,1.81c4.22,2.44,6.78,7.11,7.05,12.8A29.76,29.76,0,0,1,173,191.86c14.09,1.41,20.47,9.07,20.47,16.67,0,7.29-6.34,15.08-20.12,16.63a28.65,28.65,0,0,1,3,13c-.22,5.62-2.74,10.27-6.93,12.78a13.58,13.58,0,0,1-6.93,1.85c-6.42,0-12.9-4.08-18.19-11.33C137.21,251.47,130,253.07,126,253.07Z"/><path class="cls-2" d="M120.7,247.74a13.59,13.59,0,0,1-6.85-1.81c-4.21-2.44-6.78-7.11-7-12.79a29.5,29.5,0,0,1,2.91-13.27c-14.09-1.41-20.47-9.07-20.47-16.67,0-7.29,6.34-15.08,20.12-16.63-5.81-12.66-2.5-21.94,4-25.8a13.46,13.46,0,0,1,6.92-1.86c6.43,0,12.91,4.08,18.2,11.33,7-10,14.25-11.58,18.17-11.58a13.54,13.54,0,0,1,6.85,1.81c4.21,2.44,6.78,7.1,7,12.79a29.5,29.5,0,0,1-2.91,13.27c14.1,1.4,20.47,9.07,20.47,16.67,0,7.29-6.33,15.08-20.11,16.63a28.78,28.78,0,0,1,3,13c-.22,5.61-2.75,10.27-6.94,12.77a13.43,13.43,0,0,1-6.92,1.86c-6.42,0-12.91-4.08-18.2-11.33C131.87,246.14,124.63,247.74,120.7,247.74Z"/><path class="cls-3" d="M162.83,213.7c-7.48,0-22.35-4.7-22.35-10.5s14.87-10.5,22.35-10.5c13.13,0,18.85,5.48,18.85,10.5S175.71,213.7,162.83,213.7Z"/><path class="cls-4" d="M152.75,204.27c-.95,0-2.84-.48-2.84-1.07s1.89-1.07,2.84-1.07c1.68,0,2.4.56,2.4,1.07S154.39,204.27,152.75,204.27Z"/><path class="cls-3" d="M114.5,192.7c7.49,0,22.36,4.7,22.36,10.5S122,213.7,114.5,213.7c-13.12,0-18.85-5.47-18.85-10.5S101.62,192.7,114.5,192.7Z"/><path class="cls-3" d="M142,229.33c-3.83-6.42-7.41-21.6-2.43-24.58s16.63,7.39,20.47,13.82c6.73,11.27,5,19,.64,21.57S148.63,240.39,142,229.33Z"/><path class="cls-3" d="M135.3,177.07c3.84,6.42,7.42,21.6,2.44,24.58s-16.64-7.39-20.48-13.82c-6.72-11.27-5-19-.64-21.57S128.7,166,135.3,177.07Z"/><path class="cls-3" d="M117.45,218.82c3.76-6.47,15.29-17,20.31-14s1.61,18.13-2.14,24.6c-6.59,11.35-14.21,13.55-18.55,11S111,230,117.45,218.82Z"/><path class="cls-3" d="M159.88,187.58c-3.75,6.47-15.29,17-20.3,14S138,183.5,141.72,177c6.59-11.35,14.2-13.55,18.55-11S166.35,176.44,159.88,187.58Z"/><path class="cls-5" d="M138.34,212.85A9.65,9.65,0,1,1,148,203.2,9.65,9.65,0,0,1,138.34,212.85Z"/><path class="cls-4" d="M123.72,202.13c1,0,2.84.48,2.84,1.07s-1.89,1.07-2.84,1.07c-1.68,0-2.4-.56-2.4-1.07S122.08,202.13,123.72,202.13Z"/><path class="cls-4" d="M144.22,216.47c-.46-.84-.94-2.73-.42-3s1.84,1.16,2.29,2c.8,1.46.66,2.37.21,2.61S145,217.91,144.22,216.47Z"/><path class="cls-4" d="M132.25,189.93c.46.84.94,2.73.42,3s-1.84-1.16-2.29-2c-.8-1.46-.66-2.37-.21-2.61S131.47,188.49,132.25,189.93Z"/><path class="cls-4" d="M146.69,191.35c-.5.81-1.89,2.18-2.39,1.88s.07-2.18.56-3c.87-1.43,1.73-1.76,2.16-1.5S147.54,190,146.69,191.35Z"/><path class="cls-4" d="M129.78,215.05c.5-.81,1.89-2.18,2.39-1.87s-.07,2.17-.57,3c-.86,1.43-1.72,1.76-2.15,1.5S128.93,216.46,129.78,215.05Z"/><path class="cls-4" d="M150.14,211.58c-.82-.49-2.2-1.87-1.89-2.38s2.17.06,3,.55c1.43.86,1.77,1.71,1.51,2.15S151.55,212.42,150.14,211.58Z"/><path class="cls-4" d="M126.33,194.82c.82.49,2.2,1.87,1.89,2.38s-2.17-.06-3-.55c-1.43-.86-1.77-1.71-1.51-2.15S124.92,194,126.33,194.82Z"/><path class="cls-4" d="M136.54,217.66c0-.95.6-2.82,1.19-2.8s1,1.94.94,2.89c-.07,1.67-.66,2.38-1.17,2.35S136.47,219.3,136.54,217.66Z"/><path class="cls-4" d="M139.93,188.74c0,.95-.6,2.82-1.19,2.8s-1-1.94-.94-2.89c.07-1.67.66-2.38,1.17-2.35S140,187.1,139.93,188.74Z"/><path class="cls-4" d="M151.58,197.38c-.84.44-2.74.9-3,.38s1.18-1.82,2-2.27c1.47-.78,2.38-.62,2.62-.17S153,196.62,151.58,197.38Z"/><path class="cls-4" d="M124.89,209c.85-.44,2.74-.9,3-.38s-1.18,1.82-2,2.27c-1.47.77-2.38.62-2.62.17S123.44,209.78,124.89,209Z"/><path class="cls-1" d="M180.44,353.34a13.54,13.54,0,0,1-6.85-1.81c-4.22-2.44-6.78-7.11-7.05-12.79a29.77,29.77,0,0,1,2.91-13.27C155.36,324.06,149,316.4,149,308.8c0-7.29,6.34-15.08,20.12-16.63-5.81-12.66-2.5-21.94,4-25.8a13.49,13.49,0,0,1,6.93-1.86c6.42,0,12.9,4.08,18.19,11.33,7-10,14.25-11.58,18.17-11.58a13.54,13.54,0,0,1,6.85,1.81c4.22,2.44,6.78,7.11,7,12.79a29.77,29.77,0,0,1-2.91,13.27c14.09,1.4,20.47,9.07,20.47,16.67,0,7.29-6.34,15.08-20.12,16.63a28.65,28.65,0,0,1,3,13c-.22,5.61-2.74,10.27-6.93,12.77a13.49,13.49,0,0,1-6.93,1.86c-6.42,0-12.9-4.08-18.19-11.33C191.61,351.74,184.36,353.34,180.44,353.34Z"/><path class="cls-2" d="M175.1,348a13.69,13.69,0,0,1-6.85-1.81c-4.21-2.44-6.78-7.11-7-12.8a29.43,29.43,0,0,1,2.91-13.26c-14.09-1.41-20.47-9.07-20.47-16.67,0-7.29,6.34-15.08,20.12-16.63-5.81-12.66-2.5-21.94,4-25.81a13.55,13.55,0,0,1,6.92-1.85c6.43,0,12.91,4.08,18.2,11.33,7-10,14.25-11.58,18.17-11.58a13.63,13.63,0,0,1,6.85,1.8c4.21,2.45,6.78,7.11,7,12.8A29.43,29.43,0,0,1,222,286.79c14.1,1.41,20.47,9.07,20.47,16.68,0,7.29-6.33,15.07-20.11,16.62a28.83,28.83,0,0,1,3,13c-.22,5.62-2.75,10.28-6.94,12.78a13.43,13.43,0,0,1-6.92,1.86c-6.42,0-12.91-4.08-18.2-11.34C186.27,346.41,179,348,175.1,348Z"/><path class="cls-3" d="M217.23,314c-7.48,0-22.35-4.7-22.35-10.5S209.75,293,217.23,293c13.13,0,18.85,5.48,18.85,10.51S230.11,314,217.23,314Z"/><path class="cls-4" d="M207.15,304.53c-1,0-2.84-.47-2.84-1.06s1.89-1.07,2.84-1.07c1.68,0,2.4.56,2.4,1.07S208.79,304.53,207.15,304.53Z"/><path class="cls-3" d="M168.9,293c7.49,0,22.36,4.71,22.36,10.51S176.39,314,168.9,314c-13.12,0-18.85-5.48-18.85-10.5S156,293,168.9,293Z"/><path class="cls-3" d="M196.43,329.6C192.6,323.17,189,308,194,305s16.63,7.39,20.47,13.81c6.73,11.27,5,19,.64,21.57S203,340.66,196.43,329.6Z"/><path class="cls-3" d="M189.7,277.33c3.84,6.43,7.42,21.61,2.44,24.58s-16.64-7.38-20.48-13.81c-6.72-11.27-4.95-19-.64-21.57S183.1,266.28,189.7,277.33Z"/><path class="cls-3" d="M171.85,319.09c3.76-6.47,15.29-17,20.31-14.06s1.61,18.13-2.14,24.61c-6.59,11.35-14.21,13.55-18.55,11S165.38,330.23,171.85,319.09Z"/><path class="cls-3" d="M214.28,287.84c-3.75,6.48-15.29,17-20.3,14.06s-1.62-18.13,2.14-24.6c6.59-11.36,14.2-13.56,18.55-11S220.75,276.7,214.28,287.84Z"/><path class="cls-5" d="M192.74,313.12a9.66,9.66,0,1,1,9.66-9.65A9.65,9.65,0,0,1,192.74,313.12Z"/><path class="cls-4" d="M178.12,302.4c.95,0,2.84.48,2.84,1.07s-1.89,1.06-2.84,1.06c-1.68,0-2.4-.55-2.4-1.06S176.48,302.4,178.12,302.4Z"/><path class="cls-4" d="M198.62,316.74c-.46-.84-.94-2.73-.42-3s1.84,1.15,2.29,2c.8,1.47.66,2.38.21,2.62S199.4,318.18,198.62,316.74Z"/><path class="cls-4" d="M186.65,290.19c.46.84.94,2.74.42,3s-1.84-1.15-2.29-2c-.8-1.47-.66-2.37-.21-2.62S185.87,288.75,186.65,290.19Z"/><path class="cls-4" d="M201.09,291.61c-.5.82-1.89,2.19-2.39,1.88s.07-2.17.56-3c.87-1.43,1.73-1.77,2.16-1.5S201.94,290.21,201.09,291.61Z"/><path class="cls-4" d="M184.18,315.32c.5-.82,1.89-2.18,2.39-1.88s-.07,2.17-.57,3c-.86,1.42-1.72,1.76-2.15,1.49S183.33,316.72,184.18,315.32Z"/><path class="cls-4" d="M204.54,311.85c-.82-.5-2.2-1.88-1.89-2.38s2.17.06,3,.55c1.43.86,1.77,1.71,1.51,2.15S206,312.69,204.54,311.85Z"/><path class="cls-4" d="M180.73,295.09c.82.49,2.2,1.87,1.89,2.37s-2.17,0-3-.54c-1.43-.86-1.77-1.72-1.51-2.15S179.32,294.24,180.73,295.09Z"/><path class="cls-4" d="M190.94,317.93c0-1,.6-2.83,1.19-2.8s1,1.93.94,2.89c-.07,1.67-.66,2.37-1.17,2.35S190.87,319.56,190.94,317.93Z"/><path class="cls-4" d="M194.33,289c0,.95-.6,2.82-1.19,2.79s-1-1.93-.94-2.89c.07-1.66.66-2.37,1.17-2.35S194.4,287.37,194.33,289Z"/><path class="cls-4" d="M206,297.65c-.84.44-2.74.9-3,.38s1.18-1.83,2-2.27c1.47-.78,2.38-.62,2.62-.17S207.43,296.88,206,297.65Z"/><path class="cls-4" d="M179.29,309.29c.85-.45,2.74-.91,3-.39s-1.18,1.83-2,2.27c-1.47.78-2.38.63-2.62.18S177.84,310.05,179.29,309.29Z"/><path class="cls-1" d="M298.84,353.34a13.54,13.54,0,0,1-6.85-1.81c-4.22-2.44-6.78-7.11-7.05-12.79a29.77,29.77,0,0,1,2.91-13.27c-14.09-1.41-20.47-9.07-20.47-16.67,0-7.29,6.34-15.08,20.12-16.63-5.81-12.66-2.5-21.94,4-25.8a13.49,13.49,0,0,1,6.93-1.86c6.42,0,12.9,4.08,18.19,11.33,7-10,14.25-11.58,18.17-11.58a13.54,13.54,0,0,1,6.85,1.81c4.22,2.44,6.78,7.11,7.05,12.79a29.77,29.77,0,0,1-2.91,13.27c14.09,1.4,20.47,9.07,20.47,16.67,0,7.29-6.34,15.08-20.12,16.63a28.65,28.65,0,0,1,3,13c-.22,5.61-2.74,10.27-6.93,12.77a13.49,13.49,0,0,1-6.93,1.86c-6.42,0-12.9-4.08-18.19-11.33C310,351.74,302.76,353.34,298.84,353.34Z"/><path class="cls-2" d="M293.5,348a13.69,13.69,0,0,1-6.85-1.81c-4.21-2.44-6.78-7.11-7-12.8a29.43,29.43,0,0,1,2.91-13.26c-14.09-1.41-20.47-9.07-20.47-16.67,0-7.29,6.34-15.08,20.12-16.63-5.81-12.66-2.5-21.94,4-25.81a13.55,13.55,0,0,1,6.92-1.85c6.43,0,12.91,4.08,18.2,11.33,7-10,14.25-11.58,18.17-11.58a13.63,13.63,0,0,1,6.85,1.8c4.21,2.45,6.78,7.11,7,12.8a29.43,29.43,0,0,1-2.91,13.26c14.1,1.41,20.47,9.07,20.47,16.68,0,7.29-6.33,15.07-20.11,16.62a28.83,28.83,0,0,1,3,13c-.22,5.62-2.75,10.28-6.94,12.78a13.43,13.43,0,0,1-6.92,1.86c-6.42,0-12.91-4.08-18.2-11.34C304.67,346.41,297.43,348,293.5,348Z"/><path class="cls-3" d="M335.63,314c-7.48,0-22.35-4.7-22.35-10.5S328.15,293,335.63,293c13.13,0,18.85,5.48,18.85,10.51S348.51,314,335.63,314Z"/><path class="cls-4" d="M325.55,304.53c-.95,0-2.84-.47-2.84-1.06s1.89-1.07,2.84-1.07c1.68,0,2.4.56,2.4,1.07S327.19,304.53,325.55,304.53Z"/><path class="cls-3" d="M287.3,293c7.49,0,22.36,4.71,22.36,10.51S294.79,314,287.3,314c-13.12,0-18.85-5.48-18.85-10.5S274.42,293,287.3,293Z"/><path class="cls-3" d="M314.83,329.6C311,323.17,307.42,308,312.4,305s16.63,7.39,20.47,13.81c6.73,11.27,5,19,.64,21.57S321.43,340.66,314.83,329.6Z"/><path class="cls-3" d="M308.1,277.33c3.84,6.43,7.42,21.61,2.44,24.58s-16.64-7.38-20.48-13.81c-6.72-11.27-4.95-19-.64-21.57S301.5,266.28,308.1,277.33Z"/><path class="cls-3" d="M290.25,319.09c3.76-6.47,15.29-17,20.31-14.06s1.61,18.13-2.14,24.61c-6.59,11.35-14.21,13.55-18.55,11S283.78,330.23,290.25,319.09Z"/><path class="cls-3" d="M332.68,287.84c-3.75,6.48-15.29,17-20.3,14.06s-1.62-18.13,2.14-24.6c6.59-11.36,14.2-13.56,18.55-11S339.15,276.7,332.68,287.84Z"/><path class="cls-5" d="M311.14,313.12a9.66,9.66,0,1,1,9.66-9.65A9.65,9.65,0,0,1,311.14,313.12Z"/><path class="cls-4" d="M296.52,302.4c1,0,2.84.48,2.84,1.07s-1.89,1.06-2.84,1.06c-1.68,0-2.4-.55-2.4-1.06S294.88,302.4,296.52,302.4Z"/><path class="cls-4" d="M317,316.74c-.46-.84-.94-2.73-.42-3s1.84,1.15,2.29,2c.8,1.47.66,2.38.21,2.62S317.8,318.18,317,316.74Z"/><path class="cls-4" d="M305.05,290.19c.46.84.94,2.74.42,3s-1.84-1.15-2.29-2c-.8-1.47-.66-2.37-.21-2.62S304.27,288.75,305.05,290.19Z"/><path class="cls-4" d="M319.49,291.61c-.5.82-1.89,2.19-2.39,1.88s.07-2.17.56-3c.87-1.43,1.73-1.77,2.16-1.5S320.34,290.21,319.49,291.61Z"/><path class="cls-4" d="M302.58,315.32c.5-.82,1.89-2.18,2.39-1.88s-.07,2.17-.57,3c-.86,1.42-1.72,1.76-2.15,1.49S301.73,316.72,302.58,315.32Z"/><path class="cls-4" d="M322.94,311.85c-.82-.5-2.2-1.88-1.89-2.38s2.17.06,3,.55c1.43.86,1.77,1.71,1.51,2.15S324.35,312.69,322.94,311.85Z"/><path class="cls-4" d="M299.13,295.09c.82.49,2.2,1.87,1.89,2.37s-2.17,0-3-.54c-1.43-.86-1.77-1.72-1.51-2.15S297.72,294.24,299.13,295.09Z"/><path class="cls-4" d="M309.34,317.93c0-1,.6-2.83,1.19-2.8s1,1.93.94,2.89c-.07,1.67-.66,2.37-1.17,2.35S309.27,319.56,309.34,317.93Z"/><path class="cls-4" d="M312.73,289c0,.95-.6,2.82-1.19,2.79s-1-1.93-.94-2.89c.07-1.66.66-2.37,1.17-2.35S312.8,287.37,312.73,289Z"/><path class="cls-4" d="M324.38,297.65c-.84.44-2.74.9-3,.38s1.18-1.83,2-2.27c1.47-.78,2.38-.62,2.62-.17S325.83,296.88,324.38,297.65Z"/><path class="cls-4" d="M297.69,309.29c.85-.45,2.74-.91,3-.39s-1.18,1.83-2,2.27c-1.47.78-2.38.63-2.62.18S296.24,310.05,297.69,309.29Z"/><path class="cls-1" d="M240.17,253.07a13.63,13.63,0,0,1-6.85-1.8c-4.21-2.45-6.78-7.11-7-12.8a29.43,29.43,0,0,1,2.91-13.26c-14.1-1.41-20.47-9.08-20.47-16.68,0-7.29,6.33-15.07,20.12-16.62-5.82-12.66-2.51-21.94,4-25.81a13.52,13.52,0,0,1,6.93-1.86c6.42,0,12.91,4.08,18.2,11.33,7-10,14.25-11.58,18.17-11.58A13.69,13.69,0,0,1,283,165.8c4.21,2.44,6.78,7.11,7,12.8a29.49,29.49,0,0,1-2.91,13.26c14.1,1.41,20.47,9.07,20.47,16.67,0,7.29-6.34,15.08-20.12,16.63a28.52,28.52,0,0,1,3,13c-.21,5.62-2.74,10.27-6.93,12.78a13.55,13.55,0,0,1-6.92,1.85c-6.43,0-12.91-4.08-18.2-11.33C251.34,251.47,244.09,253.07,240.17,253.07Z"/><path class="cls-2" d="M234.84,247.74a13.54,13.54,0,0,1-6.85-1.81c-4.22-2.44-6.78-7.11-7.05-12.79a29.77,29.77,0,0,1,2.91-13.27c-14.09-1.41-20.47-9.07-20.47-16.67,0-7.29,6.34-15.08,20.12-16.63-5.81-12.66-2.5-21.94,4-25.8a13.49,13.49,0,0,1,6.93-1.86c6.42,0,12.9,4.08,18.19,11.33,7-10,14.25-11.58,18.17-11.58a13.54,13.54,0,0,1,6.85,1.81c4.22,2.44,6.78,7.1,7.05,12.79a29.77,29.77,0,0,1-2.91,13.27c14.09,1.4,20.47,9.07,20.47,16.67,0,7.29-6.34,15.08-20.12,16.63a28.65,28.65,0,0,1,3,13c-.22,5.61-2.74,10.27-6.93,12.77a13.49,13.49,0,0,1-6.93,1.86c-6.42,0-12.9-4.08-18.19-11.33C246,246.14,238.76,247.74,234.84,247.74Z"/><path class="cls-3" d="M277,213.7c-7.48,0-22.35-4.7-22.35-10.5s14.87-10.5,22.35-10.5c13.13,0,18.86,5.48,18.86,10.5S289.84,213.7,277,213.7Z"/><path class="cls-4" d="M266.89,204.27c-1,0-2.85-.48-2.85-1.07s1.89-1.07,2.85-1.07c1.67,0,2.4.56,2.4,1.07S268.53,204.27,266.89,204.27Z"/><path class="cls-3" d="M228.64,192.7c7.48,0,22.35,4.7,22.35,10.5s-14.87,10.5-22.35,10.5c-13.13,0-18.86-5.47-18.86-10.5S215.76,192.7,228.64,192.7Z"/><path class="cls-3" d="M256.17,229.33c-3.84-6.42-7.42-21.6-2.44-24.58s16.64,7.39,20.47,13.82c6.73,11.27,5,19,.65,21.57S262.77,240.39,256.17,229.33Z"/><path class="cls-3" d="M249.43,177.07c3.84,6.42,7.42,21.6,2.44,24.58s-16.64-7.39-20.47-13.82c-6.73-11.27-5-19-.65-21.57S242.83,166,249.43,177.07Z"/><path class="cls-3" d="M231.58,218.82c3.76-6.47,15.3-17,20.31-14s1.62,18.13-2.14,24.6c-6.59,11.35-14.2,13.55-18.55,11S225.12,230,231.58,218.82Z"/><path class="cls-3" d="M274,187.58c-3.76,6.47-15.29,17-20.31,14s-1.62-18.13,2.14-24.6c6.59-11.35,14.2-13.55,18.55-11S280.48,176.44,274,187.58Z"/><path class="cls-5" d="M252.48,212.85a9.65,9.65,0,1,1,9.65-9.65A9.65,9.65,0,0,1,252.48,212.85Z"/><path class="cls-4" d="M237.85,202.13c1,0,2.84.48,2.84,1.07s-1.89,1.07-2.84,1.07c-1.67,0-2.4-.56-2.4-1.07S236.21,202.13,237.85,202.13Z"/><path class="cls-4" d="M258.35,216.47c-.45-.84-.94-2.73-.42-3s1.84,1.16,2.3,2c.79,1.46.65,2.37.2,2.61S259.13,217.91,258.35,216.47Z"/><path class="cls-4" d="M246.38,189.93c.46.84.94,2.73.42,3s-1.84-1.16-2.29-2c-.8-1.46-.65-2.37-.21-2.61S245.6,188.49,246.38,189.93Z"/><path class="cls-4" d="M260.82,191.35c-.49.81-1.89,2.18-2.39,1.88s.07-2.18.57-3c.87-1.43,1.72-1.76,2.16-1.5S261.67,190,260.82,191.35Z"/><path class="cls-4" d="M243.92,215.05c.49-.81,1.88-2.18,2.39-1.87s-.08,2.17-.57,3c-.87,1.43-1.73,1.76-2.16,1.5S243.06,216.46,243.92,215.05Z"/><path class="cls-4" d="M264.27,211.58c-.82-.49-2.19-1.87-1.89-2.38s2.17.06,3,.55c1.43.86,1.77,1.71,1.51,2.15S265.68,212.42,264.27,211.58Z"/><path class="cls-4" d="M240.46,194.82c.82.49,2.2,1.87,1.9,2.38s-2.17-.06-3-.55c-1.44-.86-1.77-1.71-1.51-2.15S239.06,194,240.46,194.82Z"/><path class="cls-4" d="M250.68,217.66c0-.95.6-2.82,1.18-2.8s1,1.94.95,2.89c-.08,1.67-.66,2.38-1.17,2.35S250.6,219.3,250.68,217.66Z"/><path class="cls-4" d="M254.06,188.74c0,.95-.6,2.82-1.19,2.8s-1-1.94-.94-2.89c.07-1.67.66-2.38,1.17-2.35S254.13,187.1,254.06,188.74Z"/><path class="cls-4" d="M265.71,197.38c-.84.44-2.74.9-3,.38s1.18-1.82,2-2.27c1.48-.78,2.38-.62,2.62-.17S267.16,196.62,265.71,197.38Z"/><path class="cls-4" d="M239,209c.85-.44,2.74-.9,3-.38s-1.18,1.82-2,2.27c-1.48.77-2.39.62-2.62.17S237.57,209.78,239,209Z"/><path class="cls-1" d="M355.37,253.07a13.63,13.63,0,0,1-6.85-1.8c-4.21-2.45-6.78-7.11-7-12.8a29.43,29.43,0,0,1,2.91-13.26c-14.1-1.41-20.47-9.08-20.47-16.68,0-7.29,6.33-15.07,20.12-16.62-5.82-12.66-2.51-21.94,4-25.81a13.52,13.52,0,0,1,6.93-1.86c6.42,0,12.91,4.08,18.2,11.33,7-10,14.25-11.58,18.17-11.58a13.69,13.69,0,0,1,6.85,1.81c4.21,2.44,6.78,7.11,7,12.8a29.49,29.49,0,0,1-2.91,13.26c14.1,1.41,20.47,9.07,20.47,16.67,0,7.29-6.34,15.08-20.12,16.63a28.52,28.52,0,0,1,3,13c-.21,5.62-2.74,10.27-6.93,12.78a13.55,13.55,0,0,1-6.92,1.85c-6.43,0-12.91-4.08-18.2-11.33C366.54,251.47,359.29,253.07,355.37,253.07Z"/><path class="cls-2" d="M350,247.74a13.54,13.54,0,0,1-6.85-1.81c-4.22-2.44-6.78-7.11-7.05-12.79a29.77,29.77,0,0,1,2.91-13.27c-14.09-1.41-20.47-9.07-20.47-16.67,0-7.29,6.34-15.08,20.12-16.63-5.81-12.66-2.5-21.94,4-25.8a13.49,13.49,0,0,1,6.93-1.86c6.42,0,12.9,4.08,18.19,11.33,7-10,14.25-11.58,18.17-11.58a13.54,13.54,0,0,1,6.85,1.81c4.22,2.44,6.78,7.1,7.05,12.79A29.77,29.77,0,0,1,397,186.53c14.09,1.4,20.47,9.07,20.47,16.67,0,7.29-6.34,15.08-20.12,16.63a28.65,28.65,0,0,1,3,13c-.22,5.61-2.74,10.27-6.93,12.77a13.49,13.49,0,0,1-6.93,1.86c-6.42,0-12.9-4.08-18.19-11.33C361.21,246.14,354,247.74,350,247.74Z"/><path class="cls-3" d="M392.16,213.7c-7.48,0-22.35-4.7-22.35-10.5s14.87-10.5,22.35-10.5c13.13,0,18.86,5.48,18.86,10.5S405,213.7,392.16,213.7Z"/><path class="cls-4" d="M382.09,204.27c-1,0-2.85-.48-2.85-1.07s1.89-1.07,2.85-1.07c1.67,0,2.4.56,2.4,1.07S383.73,204.27,382.09,204.27Z"/><path class="cls-3" d="M343.84,192.7c7.48,0,22.35,4.7,22.35,10.5s-14.87,10.5-22.35,10.5c-13.13,0-18.86-5.47-18.86-10.5S331,192.7,343.84,192.7Z"/><path class="cls-3" d="M371.37,229.33c-3.84-6.42-7.42-21.6-2.44-24.58s16.64,7.39,20.47,13.82c6.73,11.27,5,19,.65,21.57S378,240.39,371.37,229.33Z"/><path class="cls-3" d="M364.63,177.07c3.84,6.42,7.42,21.6,2.44,24.58s-16.64-7.39-20.47-13.82c-6.73-11.27-5-19-.65-21.57S358,166,364.63,177.07Z"/><path class="cls-3" d="M346.78,218.82c3.76-6.47,15.3-17,20.31-14s1.62,18.13-2.14,24.6c-6.59,11.35-14.2,13.55-18.55,11S340.32,230,346.78,218.82Z"/><path class="cls-3" d="M389.22,187.58c-3.76,6.47-15.29,17-20.31,14s-1.62-18.13,2.14-24.6c6.59-11.35,14.2-13.55,18.55-11S395.68,176.44,389.22,187.58Z"/><path class="cls-5" d="M367.68,212.85a9.65,9.65,0,1,1,9.65-9.65A9.65,9.65,0,0,1,367.68,212.85Z"/><path class="cls-4" d="M353.05,202.13c.95,0,2.84.48,2.84,1.07s-1.89,1.07-2.84,1.07c-1.67,0-2.4-.56-2.4-1.07S351.41,202.13,353.05,202.13Z"/><path class="cls-4" d="M373.55,216.47c-.45-.84-.94-2.73-.42-3s1.84,1.16,2.3,2c.79,1.46.65,2.37.2,2.61S374.33,217.91,373.55,216.47Z"/><path class="cls-4" d="M361.58,189.93c.46.84.94,2.73.42,3s-1.84-1.16-2.29-2c-.8-1.46-.65-2.37-.21-2.61S360.8,188.49,361.58,189.93Z"/><path class="cls-4" d="M376,191.35c-.49.81-1.89,2.18-2.39,1.88s.07-2.18.57-3c.87-1.43,1.72-1.76,2.16-1.5S376.87,190,376,191.35Z"/><path class="cls-4" d="M359.12,215.05c.49-.81,1.88-2.18,2.39-1.87s-.08,2.17-.57,3c-.87,1.43-1.73,1.76-2.16,1.5S358.26,216.46,359.12,215.05Z"/><path class="cls-4" d="M379.47,211.58c-.82-.49-2.19-1.87-1.89-2.38s2.17.06,3,.55c1.43.86,1.77,1.71,1.51,2.15S380.88,212.42,379.47,211.58Z"/><path class="cls-4" d="M355.66,194.82c.82.49,2.2,1.87,1.9,2.38s-2.17-.06-3-.55c-1.44-.86-1.77-1.71-1.51-2.15S354.26,194,355.66,194.82Z"/><path class="cls-4" d="M365.88,217.66c0-.95.6-2.82,1.18-2.8s1,1.94.95,2.89c-.08,1.67-.66,2.38-1.17,2.35S365.8,219.3,365.88,217.66Z"/><path class="cls-4" d="M369.26,188.74c0,.95-.6,2.82-1.19,2.8s-1-1.94-.94-2.89c.07-1.67.66-2.38,1.17-2.35S369.33,187.1,369.26,188.74Z"/><path class="cls-4" d="M380.91,197.38c-.84.44-2.74.9-3,.38s1.18-1.82,2-2.27c1.48-.78,2.38-.62,2.62-.17S382.36,196.62,380.91,197.38Z"/><path class="cls-4" d="M354.22,209c.85-.44,2.74-.9,3-.38s-1.18,1.82-2,2.27c-1.48.77-2.39.62-2.62.17S352.77,209.78,354.22,209Z"/></svg>