<svg id="Layer_1" data-name="Layer 1" xmlns="http://www.w3.org/2000/svg" viewBox="0 0 512 512"><defs><style>.cls-1{opacity:0.5;}.cls-2{fill:#fff;}.cls-3{fill:#d70411;stroke:#af0000;}.cls-3,.cls-4,.cls-6{stroke-miterlimit:10;}.cls-4{fill:#f63e3e;stroke:#c40000;}.cls-5{fill:#8b0211;}.cls-6{fill:#f7db8f;stroke:#e59e00;}.cls-7{fill:#f7c151;}.cls-8{fill:#b5001a;}.cls-9{fill:#f96b79;}</style></defs><path class="cls-1" d="M169.62,205.35c-2.08,0-4.07-.1-6.09-.3-11-1.1-14-7.22-14.84-10.77-1.15-4.93.07-9.79,1.3-14,.43-1.47.93-3,1.51-4.51a40.8,40.8,0,0,1-6,.47,30.5,30.5,0,0,1-5-.4l-.85,0c-5.77-.35-10-3.08-11.52-7.51-2.09-6.08,2-11.25,3.79-13.45,3.36-4.2,6.35-8.08,9.15-11.89.55-.74,1.12-1.49,1.69-2.24a41.79,41.79,0,0,0,5.1-7.76c.27-.61.49-1.19.69-1.73,1.19-3.12,3-7.83,9.82-9.79a34.34,34.34,0,0,1,6.8-1.2l.23,0,.62,0c.56,0,1.13,0,1.7,0a32.57,32.57,0,0,1,4.94.37c1,.12,1.87.27,2.71.45,1.56.31,10.09,2.36,18.49,11.44,1,1.06,7.84,8.3,11,14.86,3.69,6.74,4.7,12.71,3,17.76-1,2.88-3.31,6.84-9,9.46l-.49.25-.37.1a8.84,8.84,0,0,1-1.4.39,14,14,0,0,1-4.27.63h0a30.32,30.32,0,0,1-7.11-1.07l-.43-.11c.19.46.37.93.54,1.44.37.69.76,1.38,1.16,2.06,1.88,3.31,4,7.05,4.5,11.8a12.44,12.44,0,0,1-2.84,9.68c-2.93,3.41-7.61,5.23-14.33,5.56C172.25,205.31,170.9,205.35,169.62,205.35Z"/><path class="cls-2" d="M164.3,200a58.36,58.36,0,0,1-6.1-.3c-11-1.1-14-7.22-14.84-10.77-1.15-4.93.07-9.79,1.3-14,.43-1.47.93-3,1.51-4.51a40.77,40.77,0,0,1-6,.47,30.54,30.54,0,0,1-5-.4l-.85,0c-5.77-.35-10-3.08-11.52-7.51-2.09-6.08,2-11.24,3.79-13.45,3.37-4.2,6.36-8.08,9.16-11.88.54-.75,1.11-1.49,1.69-2.25a42.22,42.22,0,0,0,5.09-7.76c.27-.61.49-1.19.7-1.73,1.19-3.12,3-7.83,9.82-9.78a34.12,34.12,0,0,1,6.79-1.21l.24,0,.61,0c.57,0,1.13,0,1.7,0a33.8,33.8,0,0,1,4.94.37c1,.13,1.87.27,2.71.46,1.56.3,10.1,2.35,18.49,11.43,1,1.06,7.84,8.3,11,14.86,3.69,6.74,4.7,12.71,3,17.76-1,2.88-3.32,6.85-9,9.46l-.48.25-.38.1a10.1,10.1,0,0,1-1.4.4,14.26,14.26,0,0,1-4.27.63h0a30.12,30.12,0,0,1-7.1-1.08l-.44-.11c.19.46.38.94.54,1.44.37.69.77,1.38,1.16,2.07,1.88,3.3,4,7,4.51,11.79a12.48,12.48,0,0,1-2.85,9.69c-2.92,3.4-7.61,5.22-14.33,5.55C166.92,200,165.57,200,164.3,200Z"/><path class="cls-3" d="M190.67,163.42l-.08,0a2.91,2.91,0,0,1-1.67.24,4.43,4.43,0,0,0,2.81-2.13c1.86-3.27-.06-8.4-2-11-3.21-4.26-7.76-6.38-13.78-6.38a40.12,40.12,0,0,0-11.71,2.05c-1.83.57-3.69,1.13-5.49,1.66-3.75,1.13-7.64,2.29-11.42,3.61-.9.31-1.86.62-2.87.94-3.81,1.22-8.14,2.61-11,5.06-1.3,1.13-1.85,2.4-1.54,3.57.38,1.39,1.86,2.49,3.89,2.88l.12,0a1.56,1.56,0,0,0-.16.2l-1,0c-2.34-.14-5.11-.89-5.92-3.22-.92-2.67,1.22-5.45,2.75-7.37q4.77-6,9.31-12.08c2.59-3.52,5.72-7.21,7.49-11.23,1.66-3.79,1.79-6.61,6.42-7.94a26.32,26.32,0,0,1,24.6,5.23C186.67,133.83,207.12,156.1,190.67,163.42Z"/><path class="cls-4" d="M189.89,150.42c-6.3-8.37-16.91-7.16-25.74-4.42-5.65,1.76-11.32,3.32-16.91,5.27-4.43,1.55-10.31,2.92-13.94,6-3.36,2.9-1.33,6.11,2.46,6.84,5,1,10.16.06,15-1.14a58.76,58.76,0,0,1,6-1.17l.29,0c-.79,1.34-1.47,2.87-2.22,4.5a79.56,79.56,0,0,0-4.05,10.5c-1,3.33-2,7.23-1.21,10.7,1,4.2,5.49,5.48,9.26,5.86a59.89,59.89,0,0,0,9.27.17c5.18-.26,11.8-1.66,11.13-8.21-.64-6.17-5.62-10.78-7.11-16.74a20.67,20.67,0,0,1-.61-5.81c0-.39,0-.79,0-1.18l.22,0A72.84,72.84,0,0,1,180,163c3.61.79,9.6,2.85,12-1.28C193.81,158.38,192,153.21,189.89,150.42Z"/><path class="cls-5" d="M181.51,151.26c-4.25-5.65-11.42-4.84-17.4-3-3.81,1.19-7.65,2.24-11.43,3.56-3,1-7,2-9.42,4.09-2.27,2-.9,4.13,1.66,4.62a23.73,23.73,0,0,0,10.15-.77,39.6,39.6,0,0,1,4.05-.79l.2,0a33.17,33.17,0,0,0-1.5,3,55.06,55.06,0,0,0-2.74,7.1c-.66,2.25-1.36,4.88-.81,7.23.66,2.84,3.7,3.71,6.26,4a41,41,0,0,0,6.26.12c3.5-.18,8-1.12,7.52-5.55-.43-4.17-3.8-7.29-4.8-11.32a14,14,0,0,1-.42-3.92c0-.27,0-.54,0-.8h.15a52.49,52.49,0,0,1,5.55.9c2.44.54,6.49,1.93,8.08-.86C184.16,156.65,182.93,153.15,181.51,151.26Z"/><path class="cls-6" d="M172.31,153.82c1.18,2.1-.7,7.78-.77,7.77,0,.39,0,.79,0,1.18a20.67,20.67,0,0,0,.61,5.81c1.49,6,6.47,10.57,7.11,16.74.67,6.55-6,8-11.13,8.21a59.89,59.89,0,0,1-9.27-.17c-3.77-.38-8.27-1.66-9.26-5.86-.81-3.47.23-7.37,1.21-10.7a79.56,79.56,0,0,1,4.05-10.5c.75-1.63,1.43-3.16,2.22-4.5-.1,0,2.84-7.32,2.74-7.31S166.9,144.16,172.31,153.82Z"/><path class="cls-7" d="M160.56,154.67s6.3-9.66,11.72,0c1.17,2.1-.67,6.93-.74,6.92,0,.39,0,.79,0,1.18a20.67,20.67,0,0,0,.61,5.81c1.49,6,5.91,10.83,6.54,17,.68,6.56-5.48,7.2-10.66,7.46,0,0,5.56-4.2.41-19,0,0-1.23-10,.12-14.44S166.26,152,160.56,154.67Z"/><path class="cls-8" d="M153.31,123.47a30.66,30.66,0,0,1,7.37-2.19,37.12,37.12,0,0,1,8.08.65s7.55,1.34,15.11,9.56c0,0,7.68,7.95,10.23,14,0,0,6.58,11.16-1.76,16.25,0,0,5.66-3.73.37-15.19,0,0-6.08-10.52-10-13.84,0,0-8.41-8.58-13.76-9.37a17.86,17.86,0,0,1-1.8-.34,12.81,12.81,0,0,0-6.81-.32A10.27,10.27,0,0,0,153.31,123.47Z"/><path class="cls-9" d="M130.76,156.8s7.8-10.52,12.07-15.93c3.46-4.39,5-7.81,6.56-9.34,0,0-.17,3.76-6.22,11.16C140.92,145.45,135,152.83,130.76,156.8Z"/><path class="cls-1" d="M260.2,205.35c-2.08,0-4.08-.1-6.09-.3-11-1.1-14-7.22-14.85-10.77-1.15-4.93.07-9.79,1.3-14,.44-1.47.93-3,1.51-4.51a40.66,40.66,0,0,1-6,.47,30.54,30.54,0,0,1-5-.4l-.85,0c-5.77-.35-10-3.08-11.52-7.51-2.09-6.08,2-11.25,3.8-13.45,3.36-4.2,6.35-8.08,9.15-11.89.55-.74,1.11-1.49,1.69-2.24a42.22,42.22,0,0,0,5.09-7.76c.27-.61.49-1.19.7-1.73,1.19-3.12,3-7.83,9.82-9.79a34.11,34.11,0,0,1,6.79-1.2l.24,0,.61,0c.57,0,1.14,0,1.7,0a32.47,32.47,0,0,1,4.94.37c1,.12,1.87.27,2.71.45,1.57.31,10.1,2.36,18.49,11.44,1,1.06,7.85,8.3,11,14.86,3.68,6.74,4.69,12.71,3,17.76-1,2.88-3.32,6.84-9.05,9.46l-.48.25-.37.1a9,9,0,0,1-1.41.39,13.9,13.9,0,0,1-4.27.63h0a30.23,30.23,0,0,1-7.1-1.07l-.43-.11c.19.46.37.93.53,1.44.38.69.77,1.38,1.16,2.06,1.89,3.31,4,7.05,4.51,11.8a12.44,12.44,0,0,1-2.85,9.68c-2.92,3.41-7.61,5.23-14.32,5.56C262.82,205.31,261.47,205.35,260.2,205.35Z"/><path class="cls-2" d="M254.87,200a58.17,58.17,0,0,1-6.09-.3c-11-1.1-14-7.22-14.85-10.77-1.15-4.93.07-9.79,1.3-14,.44-1.47.94-3,1.51-4.51a40.55,40.55,0,0,1-6,.47,30.62,30.62,0,0,1-5-.4l-.85,0c-5.77-.35-10-3.08-11.52-7.51-2.09-6.08,2-11.24,3.8-13.45,3.36-4.2,6.35-8.08,9.15-11.88.55-.75,1.12-1.49,1.69-2.25a42.3,42.3,0,0,0,5.1-7.76c.26-.61.48-1.19.69-1.73,1.19-3.12,3-7.83,9.82-9.78a34.22,34.22,0,0,1,6.8-1.21l.23,0,.61,0c.57,0,1.14,0,1.7,0a34,34,0,0,1,5,.37c1,.13,1.86.27,2.71.46,1.56.3,10.09,2.35,18.48,11.43,1,1.06,7.85,8.3,11,14.86,3.68,6.74,4.69,12.71,3,17.76-1,2.88-3.32,6.85-9.05,9.46l-.48.25-.37.1a9.85,9.85,0,0,1-1.41.4,14.16,14.16,0,0,1-4.27.63h0a30.29,30.29,0,0,1-7.1-1.08l-.43-.11q.28.69.54,1.44c.37.69.76,1.38,1.15,2.07,1.89,3.3,4,7,4.51,11.79a12.52,12.52,0,0,1-2.84,9.69c-2.93,3.4-7.62,5.22-14.33,5.55C257.49,200,256.14,200,254.87,200Z"/><path class="cls-3" d="M281.24,163.42a.11.11,0,0,1-.08,0,2.87,2.87,0,0,1-1.66.24,4.43,4.43,0,0,0,2.81-2.13c1.86-3.27-.06-8.4-2-11-3.2-4.26-7.76-6.38-13.78-6.38a40.18,40.18,0,0,0-11.71,2.05c-1.83.57-3.68,1.13-5.49,1.66-3.75,1.13-7.63,2.29-11.41,3.61-.91.31-1.86.62-2.88.94-3.81,1.22-8.13,2.61-11,5.06-1.31,1.13-1.86,2.4-1.54,3.57.37,1.39,1.86,2.49,3.89,2.88l.11,0-.16.2-1,0c-2.33-.14-5.11-.89-5.91-3.22-.92-2.67,1.21-5.45,2.75-7.37,3.17-4,6.29-8,9.3-12.08,2.59-3.52,5.73-7.21,7.49-11.23,1.66-3.79,1.8-6.61,6.42-7.94A26.33,26.33,0,0,1,270,127.52C277.25,133.83,297.69,156.1,281.24,163.42Z"/><path class="cls-4" d="M280.47,150.42c-6.3-8.37-16.91-7.16-25.74-4.42-5.65,1.76-11.32,3.32-16.91,5.27-4.44,1.55-10.32,2.92-13.94,6-3.36,2.9-1.34,6.11,2.45,6.84,5,1,10.16.06,15-1.14a59.84,59.84,0,0,1,6-1.17l.3,0a46.06,46.06,0,0,0-2.22,4.5,79.56,79.56,0,0,0-4,10.5c-1,3.33-2,7.23-1.21,10.7,1,4.2,5.48,5.48,9.26,5.86a59.76,59.76,0,0,0,9.26.17c5.18-.26,11.8-1.66,11.13-8.21-.63-6.17-5.62-10.78-7.11-16.74a20.67,20.67,0,0,1-.61-5.81c0-.39,0-.79,0-1.18l.23,0a72.67,72.67,0,0,1,8.21,1.34c3.62.79,9.6,2.85,11.95-1.28C284.38,158.38,282.57,153.21,280.47,150.42Z"/><path class="cls-5" d="M272.09,151.26c-4.26-5.65-11.43-4.84-17.4-3-3.82,1.19-7.65,2.24-11.43,3.56-3,1-7,2-9.42,4.09-2.28,2-.91,4.13,1.66,4.62a23.68,23.68,0,0,0,10.14-.77,39.26,39.26,0,0,1,4.06-.79l.2,0a30.78,30.78,0,0,0-1.5,3,53.63,53.63,0,0,0-2.74,7.1c-.67,2.25-1.37,4.88-.82,7.23.66,2.84,3.71,3.71,6.26,4a41,41,0,0,0,6.26.12c3.5-.18,8-1.12,7.53-5.55-.43-4.17-3.8-7.29-4.81-11.32a13.66,13.66,0,0,1-.41-3.92c0-.27,0-.54,0-.8h.15a52.25,52.25,0,0,1,5.56.9c2.44.54,6.49,1.93,8.08-.86C274.73,156.65,273.51,153.15,272.09,151.26Z"/><path class="cls-6" d="M262.89,153.82c1.17,2.1-.7,7.78-.78,7.77,0,.39,0,.79,0,1.18a20.67,20.67,0,0,0,.61,5.81c1.49,6,6.48,10.57,7.11,16.74.67,6.55-5.95,8-11.13,8.21a59.76,59.76,0,0,1-9.26-.17c-3.78-.38-8.28-1.66-9.26-5.86-.81-3.47.22-7.37,1.21-10.7a79.56,79.56,0,0,1,4-10.5,46.06,46.06,0,0,1,2.22-4.5c-.1,0,2.84-7.32,2.74-7.31S257.48,144.16,262.89,153.82Z"/><path class="cls-7" d="M251.13,154.67s6.31-9.66,11.72,0c1.18,2.1-.66,6.93-.74,6.92,0,.39,0,.79,0,1.18a20.67,20.67,0,0,0,.61,5.81c1.49,6,5.91,10.83,6.55,17,.67,6.56-5.48,7.2-10.66,7.46,0,0,5.56-4.2.41-19,0,0-1.23-10,.11-14.44S256.84,152,251.13,154.67Z"/><path class="cls-8" d="M243.89,123.47a30.47,30.47,0,0,1,7.37-2.19,37,37,0,0,1,8.07.65s7.55,1.34,15.12,9.56c0,0,7.68,7.95,10.22,14,0,0,6.58,11.16-1.75,16.25,0,0,5.66-3.73.37-15.19,0,0-6.09-10.52-10-13.84,0,0-8.42-8.58-13.77-9.37a18.21,18.21,0,0,1-1.79-.34,12.84,12.84,0,0,0-6.81-.32A10.27,10.27,0,0,0,243.89,123.47Z"/><path class="cls-9" d="M221.34,156.8s7.8-10.52,12.07-15.93c3.46-4.39,5-7.81,6.55-9.34,0,0-.17,3.76-6.21,11.16C231.5,145.45,225.62,152.83,221.34,156.8Z"/><path class="cls-1" d="M350.77,205.35c-2.08,0-4.07-.1-6.09-.3-11-1.1-14-7.22-14.84-10.77-1.15-4.93.06-9.79,1.3-14,.43-1.47.93-3,1.51-4.51a40.8,40.8,0,0,1-6,.47,30.5,30.5,0,0,1-5-.4l-.85,0c-5.77-.35-10-3.08-11.52-7.51-2.09-6.08,2-11.25,3.79-13.45,3.36-4.2,6.35-8.08,9.15-11.89.55-.74,1.12-1.49,1.69-2.24A41.79,41.79,0,0,0,329,133c.27-.61.48-1.19.69-1.73,1.19-3.12,3-7.83,9.82-9.79a34.34,34.34,0,0,1,6.8-1.2l.23,0,.62,0c.56,0,1.13,0,1.7,0a32.57,32.57,0,0,1,4.94.37c1,.12,1.87.27,2.71.45,1.56.31,10.09,2.36,18.49,11.44,1,1.06,7.84,8.3,11,14.86,3.69,6.74,4.7,12.71,3,17.76-1,2.88-3.31,6.84-9,9.46l-.49.25-.37.1a8.84,8.84,0,0,1-1.4.39,14,14,0,0,1-4.27.63h0a30.32,30.32,0,0,1-7.11-1.07l-.43-.11c.19.46.37.93.54,1.44.37.69.76,1.38,1.16,2.06,1.88,3.31,4,7.05,4.5,11.8a12.44,12.44,0,0,1-2.84,9.68c-2.93,3.41-7.61,5.23-14.33,5.56C353.4,205.31,352.05,205.35,350.77,205.35Z"/><path class="cls-2" d="M345.45,200a58.36,58.36,0,0,1-6.1-.3c-11-1.1-14-7.22-14.84-10.77-1.15-4.93.07-9.79,1.3-14,.43-1.47.93-3,1.51-4.51a40.77,40.77,0,0,1-6,.47,30.54,30.54,0,0,1-5-.4l-.85,0c-5.77-.35-10-3.08-11.52-7.51-2.09-6.08,2-11.24,3.79-13.45,3.37-4.2,6.36-8.08,9.16-11.88.54-.75,1.11-1.49,1.69-2.25a42.22,42.22,0,0,0,5.09-7.76c.27-.61.49-1.19.69-1.73,1.2-3.12,3-7.83,9.83-9.78a34.12,34.12,0,0,1,6.79-1.21l.24,0,.61,0c.57,0,1.13,0,1.7,0a33.8,33.8,0,0,1,4.94.37c1,.13,1.87.27,2.71.46,1.56.3,10.1,2.35,18.49,11.43,1,1.06,7.84,8.3,11,14.86,3.69,6.74,4.7,12.71,3,17.76-1,2.88-3.32,6.85-9.05,9.46l-.48.25-.38.1a10.1,10.1,0,0,1-1.4.4,14.26,14.26,0,0,1-4.27.63h0a30.12,30.12,0,0,1-7.1-1.08l-.44-.11c.19.46.38.94.54,1.44.37.69.77,1.38,1.16,2.07,1.88,3.3,4,7,4.51,11.79a12.48,12.48,0,0,1-2.85,9.69c-2.92,3.4-7.61,5.22-14.33,5.55C348.07,200,346.72,200,345.45,200Z"/><path class="cls-3" d="M371.82,163.42l-.08,0a2.92,2.92,0,0,1-1.67.24,4.43,4.43,0,0,0,2.81-2.13c1.86-3.27-.06-8.4-2-11-3.21-4.26-7.76-6.38-13.78-6.38a40.12,40.12,0,0,0-11.71,2.05c-1.83.57-3.69,1.13-5.49,1.66-3.75,1.13-7.64,2.29-11.42,3.61-.9.31-1.86.62-2.87.94-3.81,1.22-8.14,2.61-11,5.06-1.3,1.13-1.85,2.4-1.54,3.57.37,1.39,1.86,2.49,3.89,2.88l.12,0a1.56,1.56,0,0,0-.16.2l-1,0c-2.33-.14-5.1-.89-5.91-3.22-.92-2.67,1.22-5.45,2.75-7.37q4.77-6,9.31-12.08c2.59-3.52,5.72-7.21,7.49-11.23,1.66-3.79,1.79-6.61,6.41-7.94a26.33,26.33,0,0,1,24.61,5.23C367.82,133.83,388.27,156.1,371.82,163.42Z"/><path class="cls-4" d="M371,150.42c-6.3-8.37-16.91-7.16-25.74-4.42-5.65,1.76-11.32,3.32-16.91,5.27-4.43,1.55-10.31,2.92-13.94,6-3.36,2.9-1.33,6.11,2.46,6.84,5,1,10.16.06,15-1.14a58.76,58.76,0,0,1,6-1.17l.29,0c-.79,1.34-1.47,2.87-2.22,4.5a79.56,79.56,0,0,0-4.05,10.5c-1,3.33-2,7.23-1.21,10.7,1,4.2,5.49,5.48,9.26,5.86a59.89,59.89,0,0,0,9.27.17c5.18-.26,11.8-1.66,11.13-8.21-.64-6.17-5.62-10.78-7.11-16.74a20.67,20.67,0,0,1-.61-5.81c0-.39,0-.79,0-1.18l.22,0a72.84,72.84,0,0,1,8.22,1.34c3.61.79,9.6,2.85,11.95-1.28C375,158.38,373.14,153.21,371,150.42Z"/><path class="cls-5" d="M362.66,151.26c-4.25-5.65-11.43-4.84-17.4-3-3.81,1.19-7.65,2.24-11.43,3.56-3,1-7,2-9.42,4.09-2.27,2-.9,4.13,1.66,4.62a23.73,23.73,0,0,0,10.15-.77,39.6,39.6,0,0,1,4-.79l.2,0a33.17,33.17,0,0,0-1.5,3,55.06,55.06,0,0,0-2.74,7.1c-.66,2.25-1.36,4.88-.81,7.23.66,2.84,3.7,3.71,6.26,4a41,41,0,0,0,6.26.12c3.5-.18,8-1.12,7.52-5.55-.43-4.17-3.8-7.29-4.8-11.32a14,14,0,0,1-.42-3.92c0-.27,0-.54,0-.8h.15a52.49,52.49,0,0,1,5.55.9c2.44.54,6.49,1.93,8.08-.86C365.31,156.65,364.08,153.15,362.66,151.26Z"/><path class="cls-6" d="M353.46,153.82c1.18,2.1-.7,7.78-.77,7.77,0,.39,0,.79,0,1.18a20.67,20.67,0,0,0,.61,5.81c1.49,6,6.47,10.57,7.11,16.74.67,6.55-5.95,8-11.13,8.21a59.89,59.89,0,0,1-9.27-.17c-3.77-.38-8.28-1.66-9.26-5.86-.81-3.47.23-7.37,1.21-10.7A79.56,79.56,0,0,1,336,166.3c.75-1.63,1.43-3.16,2.22-4.5-.1,0,2.84-7.32,2.74-7.31S348.05,144.16,353.46,153.82Z"/><path class="cls-7" d="M341.71,154.67s6.3-9.66,11.72,0c1.17,2.1-.67,6.93-.74,6.92,0,.39,0,.79,0,1.18a20.67,20.67,0,0,0,.61,5.81c1.49,6,5.91,10.83,6.54,17,.67,6.56-5.48,7.2-10.66,7.46,0,0,5.56-4.2.41-19,0,0-1.23-10,.12-14.44S347.41,152,341.71,154.67Z"/><path class="cls-8" d="M334.46,123.47a30.66,30.66,0,0,1,7.37-2.19,37.12,37.12,0,0,1,8.08.65s7.55,1.34,15.11,9.56c0,0,7.68,7.95,10.23,14,0,0,6.58,11.16-1.76,16.25,0,0,5.66-3.73.37-15.19,0,0-6.08-10.52-10-13.84,0,0-8.41-8.58-13.76-9.37a17.86,17.86,0,0,1-1.8-.34,12.81,12.81,0,0,0-6.81-.32A10.27,10.27,0,0,0,334.46,123.47Z"/><path class="cls-9" d="M311.91,156.8s7.8-10.52,12.07-15.93c3.46-4.39,5-7.81,6.56-9.34,0,0-.17,3.76-6.22,11.16C322.07,145.45,316.19,152.83,311.91,156.8Z"/><path class="cls-1" d="M169.62,301.25a58.3,58.3,0,0,1-6.09-.3c-11-1.1-14-7.22-14.84-10.77-1.15-4.93.07-9.79,1.3-14,.43-1.47.93-3,1.51-4.51a40.8,40.8,0,0,1-6,.47,30.5,30.5,0,0,1-5-.4l-.85,0c-5.77-.35-10-3.08-11.52-7.51-2.09-6.07,2-11.24,3.79-13.45,3.36-4.19,6.35-8.08,9.15-11.88l1.69-2.25a41.79,41.79,0,0,0,5.1-7.76c.27-.61.49-1.19.69-1.73,1.19-3.12,3-7.83,9.82-9.78a34.35,34.35,0,0,1,6.8-1.21l.23,0,.62,0c.56,0,1.13-.05,1.7-.05a33.91,33.91,0,0,1,4.94.37c1,.13,1.87.27,2.71.46,1.56.3,10.09,2.35,18.49,11.44,1,1,7.84,8.29,11,14.85,3.69,6.74,4.7,12.71,3,17.77-1,2.87-3.31,6.84-9,9.45l-.49.25-.37.1a10.1,10.1,0,0,1-1.4.4,14.26,14.26,0,0,1-4.27.63h0a30.3,30.3,0,0,1-7.11-1.08l-.43-.11q.28.69.54,1.44c.37.69.76,1.38,1.16,2.07,1.88,3.3,4,7,4.5,11.79a12.48,12.48,0,0,1-2.84,9.69c-2.93,3.4-7.61,5.22-14.33,5.55C172.25,301.22,170.9,301.25,169.62,301.25Z"/><path class="cls-2" d="M164.3,295.93c-2.09,0-4.08-.1-6.1-.3-11-1.1-14-7.23-14.84-10.78-1.15-4.93.07-9.79,1.3-14,.43-1.47.93-3,1.51-4.52a39.41,39.41,0,0,1-6,.48,30.52,30.52,0,0,1-5-.41l-.85,0c-5.77-.34-10-3.08-11.52-7.5-2.09-6.08,2-11.25,3.79-13.46,3.37-4.19,6.36-8.08,9.16-11.88.54-.74,1.11-1.49,1.69-2.25a42.22,42.22,0,0,0,5.09-7.76c.27-.6.49-1.18.7-1.73,1.19-3.12,3-7.83,9.82-9.78a34.12,34.12,0,0,1,6.79-1.21l.24,0,.61,0c.57,0,1.13,0,1.7,0a32.47,32.47,0,0,1,4.94.37c1,.12,1.87.27,2.71.45,1.56.31,10.1,2.35,18.49,11.44,1,1.05,7.84,8.3,11,14.86,3.69,6.73,4.7,12.71,3,17.76-1,2.88-3.32,6.84-9,9.45l-.48.25-.38.1a10.1,10.1,0,0,1-1.4.4,14,14,0,0,1-4.27.63h0a30.12,30.12,0,0,1-7.1-1.08l-.44-.1c.19.45.38.93.54,1.43.37.7.77,1.38,1.16,2.07,1.88,3.3,4,7.05,4.51,11.79a12.45,12.45,0,0,1-2.85,9.69c-2.92,3.41-7.61,5.22-14.33,5.56C166.92,295.89,165.57,295.93,164.3,295.93Z"/><path class="cls-3" d="M190.67,259.33l-.08,0a3,3,0,0,1-1.67.23,4.4,4.4,0,0,0,2.81-2.13c1.86-3.26-.06-8.4-2-11-3.21-4.27-7.76-6.39-13.78-6.39a40.12,40.12,0,0,0-11.71,2.05c-1.83.57-3.69,1.13-5.49,1.67-3.75,1.12-7.64,2.28-11.42,3.6-.9.32-1.86.62-2.87,1-3.81,1.22-8.14,2.6-11,5.06-1.3,1.12-1.85,2.39-1.54,3.56.38,1.39,1.86,2.49,3.89,2.88l.12,0-.16.2c-.32,0-.66,0-1,0-2.34-.14-5.11-.88-5.92-3.21-.92-2.68,1.22-5.46,2.75-7.38,3.18-4,6.29-8,9.31-12.08,2.59-3.52,5.72-7.21,7.49-11.23,1.66-3.78,1.79-6.61,6.42-7.93a26.28,26.28,0,0,1,24.6,5.22C186.67,229.74,207.12,252,190.67,259.33Z"/><path class="cls-4" d="M189.89,246.32c-6.3-8.36-16.91-7.16-25.74-4.41-5.65,1.75-11.32,3.32-16.91,5.27-4.43,1.55-10.31,2.92-13.94,6-3.36,2.89-1.33,6.11,2.46,6.83,5,.95,10.16.07,15-1.14a58.76,58.76,0,0,1,6-1.17l.29,0a49.74,49.74,0,0,0-2.22,4.5,79,79,0,0,0-4.05,10.5c-1,3.33-2,7.22-1.21,10.69,1,4.2,5.49,5.49,9.26,5.86a58.67,58.67,0,0,0,9.27.17c5.18-.26,11.8-1.65,11.13-8.21-.64-6.16-5.62-10.78-7.11-16.74a20.67,20.67,0,0,1-.61-5.81c0-.39,0-.79,0-1.18l.22,0a77.66,77.66,0,0,1,8.22,1.34c3.61.79,9.6,2.85,12-1.28C193.81,254.29,192,249.11,189.89,246.32Z"/><path class="cls-5" d="M181.51,247.17c-4.25-5.66-11.42-4.84-17.4-3-3.81,1.19-7.65,2.25-11.43,3.57-3,1-7,2-9.42,4.09-2.27,1.95-.9,4.12,1.66,4.62a23.89,23.89,0,0,0,10.15-.78c1.36-.33,2.71-.6,4.05-.79l.2,0a32.17,32.17,0,0,0-1.5,3.05,54.37,54.37,0,0,0-2.74,7.09c-.66,2.26-1.36,4.89-.81,7.23.66,2.84,3.7,3.71,6.26,4a40.94,40.94,0,0,0,6.26.11c3.5-.18,8-1.12,7.52-5.55-.43-4.17-3.8-7.29-4.8-11.32a14,14,0,0,1-.42-3.92c0-.27,0-.54,0-.8h.15a50.09,50.09,0,0,1,5.55.91c2.44.53,6.49,1.92,8.08-.87C184.16,252.55,182.93,249.05,181.51,247.17Z"/><path class="cls-6" d="M172.31,249.72c1.18,2.1-.7,7.78-.77,7.77,0,.39,0,.79,0,1.18a20.67,20.67,0,0,0,.61,5.81c1.49,6,6.47,10.58,7.11,16.74.67,6.56-6,7.95-11.13,8.21a58.67,58.67,0,0,1-9.27-.17c-3.77-.37-8.27-1.66-9.26-5.86-.81-3.47.23-7.36,1.21-10.69a79,79,0,0,1,4.05-10.5,49.74,49.74,0,0,1,2.22-4.5c-.1,0,2.84-7.33,2.74-7.31S166.9,240.06,172.31,249.72Z"/><path class="cls-7" d="M160.56,250.57s6.3-9.66,11.72,0c1.17,2.1-.67,6.93-.74,6.92,0,.39,0,.79,0,1.18a20.67,20.67,0,0,0,.61,5.81c1.49,6,5.91,10.83,6.54,17,.68,6.55-5.48,7.2-10.66,7.45,0,0,5.56-4.2.41-19,0,0-1.23-10,.12-14.44S166.26,247.91,160.56,250.57Z"/><path class="cls-8" d="M153.31,219.37a30.66,30.66,0,0,1,7.37-2.19,37.84,37.84,0,0,1,8.08.65s7.55,1.35,15.11,9.56c0,0,7.68,8,10.23,14,0,0,6.58,11.16-1.76,16.25,0,0,5.66-3.72.37-15.19,0,0-6.08-10.51-10-13.83,0,0-8.41-8.59-13.76-9.38a17.86,17.86,0,0,1-1.8-.34,12.74,12.74,0,0,0-6.81-.31A10.3,10.3,0,0,0,153.31,219.37Z"/><path class="cls-9" d="M130.76,252.7s7.8-10.52,12.07-15.93c3.46-4.38,5-7.8,6.56-9.34,0,0-.17,3.76-6.22,11.17C140.92,241.35,135,248.74,130.76,252.7Z"/><path class="cls-1" d="M260.2,301.25a58.17,58.17,0,0,1-6.09-.3c-11-1.1-14-7.22-14.85-10.77-1.15-4.93.07-9.79,1.3-14,.44-1.47.93-3,1.51-4.51a40.66,40.66,0,0,1-6,.47,30.54,30.54,0,0,1-5-.4l-.85,0c-5.77-.35-10-3.08-11.52-7.51-2.09-6.07,2-11.24,3.8-13.45,3.36-4.19,6.35-8.08,9.15-11.88.55-.74,1.11-1.49,1.69-2.25a42.22,42.22,0,0,0,5.09-7.76c.27-.61.49-1.19.7-1.73,1.19-3.12,3-7.83,9.82-9.78a34.12,34.12,0,0,1,6.79-1.21l.24,0,.61,0c.57,0,1.14-.05,1.7-.05a33.8,33.8,0,0,1,4.94.37c1,.13,1.87.27,2.71.46,1.57.3,10.1,2.35,18.49,11.44,1,1,7.85,8.29,11,14.85,3.68,6.74,4.69,12.71,3,17.77-1,2.87-3.32,6.84-9.05,9.45l-.48.25-.37.1a10.23,10.23,0,0,1-1.41.4,14.21,14.21,0,0,1-4.27.63h0a30.21,30.21,0,0,1-7.1-1.08l-.43-.11c.19.46.37.94.53,1.44.38.69.77,1.38,1.16,2.07,1.89,3.3,4,7,4.51,11.79a12.48,12.48,0,0,1-2.85,9.69c-2.92,3.4-7.61,5.22-14.32,5.55C262.82,301.22,261.47,301.25,260.2,301.25Z"/><path class="cls-2" d="M254.87,295.93c-2.08,0-4.08-.1-6.09-.3-11-1.1-14-7.23-14.85-10.78-1.15-4.93.07-9.79,1.3-14,.44-1.47.94-3,1.51-4.52a39.2,39.2,0,0,1-6,.48,30.61,30.61,0,0,1-5-.41l-.85,0c-5.77-.34-10-3.08-11.52-7.5-2.09-6.08,2-11.25,3.8-13.46,3.36-4.19,6.35-8.08,9.15-11.88l1.69-2.25a42.3,42.3,0,0,0,5.1-7.76c.26-.6.48-1.18.69-1.73,1.19-3.12,3-7.83,9.82-9.78a34.22,34.22,0,0,1,6.8-1.21l.23,0,.61,0c.57,0,1.14,0,1.7,0a32.7,32.7,0,0,1,5,.37c1,.12,1.86.27,2.71.45,1.56.31,10.09,2.35,18.48,11.44,1,1.05,7.85,8.3,11,14.86,3.68,6.73,4.69,12.71,3,17.76-1,2.88-3.32,6.84-9.05,9.45l-.48.25-.37.1a9.85,9.85,0,0,1-1.41.4,13.86,13.86,0,0,1-4.27.63h0a30.29,30.29,0,0,1-7.1-1.08l-.43-.1c.19.45.37.93.54,1.43.37.7.76,1.38,1.15,2.07,1.89,3.3,4,7.05,4.51,11.79a12.49,12.49,0,0,1-2.84,9.69c-2.93,3.41-7.62,5.22-14.33,5.56C257.49,295.89,256.14,295.93,254.87,295.93Z"/><path class="cls-3" d="M281.24,259.33l-.08,0a3,3,0,0,1-1.66.23,4.4,4.4,0,0,0,2.81-2.13c1.86-3.26-.06-8.4-2-11-3.2-4.27-7.76-6.39-13.78-6.39a40.18,40.18,0,0,0-11.71,2.05c-1.83.57-3.68,1.13-5.49,1.67-3.75,1.12-7.63,2.28-11.41,3.6-.91.32-1.86.62-2.88,1-3.81,1.22-8.13,2.6-11,5.06-1.31,1.12-1.86,2.39-1.54,3.56.37,1.39,1.86,2.49,3.89,2.88l.11,0-.16.2c-.32,0-.65,0-1,0-2.33-.14-5.11-.88-5.91-3.21-.92-2.68,1.21-5.46,2.75-7.38,3.17-4,6.29-8,9.3-12.08,2.59-3.52,5.73-7.21,7.49-11.23,1.66-3.78,1.8-6.61,6.42-7.93A26.3,26.3,0,0,1,270,223.42C277.25,229.74,297.69,252,281.24,259.33Z"/><path class="cls-4" d="M280.47,246.32c-6.3-8.36-16.91-7.16-25.74-4.41-5.65,1.75-11.32,3.32-16.91,5.27-4.44,1.55-10.32,2.92-13.94,6-3.36,2.89-1.34,6.11,2.45,6.83,5,.95,10.16.07,15-1.14a59.84,59.84,0,0,1,6-1.17l.3,0a45,45,0,0,0-2.22,4.5,79,79,0,0,0-4,10.5c-1,3.33-2,7.22-1.21,10.69,1,4.2,5.48,5.49,9.26,5.86a58.54,58.54,0,0,0,9.26.17c5.18-.26,11.8-1.65,11.13-8.21-.63-6.16-5.62-10.78-7.11-16.74a20.67,20.67,0,0,1-.61-5.81c0-.39,0-.79,0-1.18l.23,0a77.48,77.48,0,0,1,8.21,1.34c3.62.79,9.6,2.85,11.95-1.28C284.38,254.29,282.57,249.11,280.47,246.32Z"/><path class="cls-5" d="M272.09,247.17c-4.26-5.66-11.43-4.84-17.4-3-3.82,1.19-7.65,2.25-11.43,3.57-3,1-7,2-9.42,4.09-2.28,1.95-.91,4.12,1.66,4.62a23.85,23.85,0,0,0,10.14-.78c1.36-.33,2.71-.6,4.06-.79l.2,0a29.93,29.93,0,0,0-1.5,3.05,53,53,0,0,0-2.74,7.09c-.67,2.26-1.37,4.89-.82,7.23.66,2.84,3.71,3.71,6.26,4a41,41,0,0,0,6.26.11c3.5-.18,8-1.12,7.53-5.55-.43-4.17-3.8-7.29-4.81-11.32a13.62,13.62,0,0,1-.41-3.92c0-.27,0-.54,0-.8h.15a49.88,49.88,0,0,1,5.56.91c2.44.53,6.49,1.92,8.08-.87C274.73,252.55,273.51,249.05,272.09,247.17Z"/><path class="cls-6" d="M262.89,249.72c1.17,2.1-.7,7.78-.78,7.77,0,.39,0,.79,0,1.18a20.67,20.67,0,0,0,.61,5.81c1.49,6,6.48,10.58,7.11,16.74.67,6.56-5.95,7.95-11.13,8.21a58.54,58.54,0,0,1-9.26-.17c-3.78-.37-8.28-1.66-9.26-5.86-.81-3.47.22-7.36,1.21-10.69a79,79,0,0,1,4-10.5,45,45,0,0,1,2.22-4.5c-.1,0,2.84-7.33,2.74-7.31S257.48,240.06,262.89,249.72Z"/><path class="cls-7" d="M251.13,250.57s6.31-9.66,11.72,0c1.18,2.1-.66,6.93-.74,6.92,0,.39,0,.79,0,1.18a20.67,20.67,0,0,0,.61,5.81c1.49,6,5.91,10.83,6.55,17,.67,6.55-5.48,7.2-10.66,7.45,0,0,5.56-4.2.41-19,0,0-1.23-10,.11-14.44S256.84,247.91,251.13,250.57Z"/><path class="cls-8" d="M243.89,219.37a30.47,30.47,0,0,1,7.37-2.19,37.76,37.76,0,0,1,8.07.65s7.55,1.35,15.12,9.56c0,0,7.68,8,10.22,14,0,0,6.58,11.16-1.75,16.25,0,0,5.66-3.72.37-15.19,0,0-6.09-10.51-10-13.83,0,0-8.42-8.59-13.77-9.38a18.21,18.21,0,0,1-1.79-.34,12.77,12.77,0,0,0-6.81-.31A10.3,10.3,0,0,0,243.89,219.37Z"/><path class="cls-9" d="M221.34,252.7s7.8-10.52,12.07-15.93c3.46-4.38,5-7.8,6.55-9.34,0,0-.17,3.76-6.21,11.17C231.5,241.35,225.62,248.74,221.34,252.7Z"/><path class="cls-1" d="M350.77,301.25a58.3,58.3,0,0,1-6.09-.3c-11-1.1-14-7.22-14.84-10.77-1.15-4.93.06-9.79,1.3-14,.43-1.47.93-3,1.51-4.51a40.8,40.8,0,0,1-6,.47,30.5,30.5,0,0,1-5-.4l-.85,0c-5.77-.35-10-3.08-11.52-7.51-2.09-6.07,2-11.24,3.79-13.45,3.36-4.19,6.35-8.08,9.15-11.88l1.69-2.25a41.79,41.79,0,0,0,5.1-7.76c.27-.61.48-1.19.69-1.73,1.19-3.12,3-7.83,9.82-9.78a34.35,34.35,0,0,1,6.8-1.21l.23,0,.62,0c.56,0,1.13-.05,1.7-.05a33.91,33.91,0,0,1,4.94.37c1,.13,1.87.27,2.71.46,1.56.3,10.09,2.35,18.49,11.44,1,1,7.84,8.29,11,14.85,3.69,6.74,4.7,12.71,3,17.77-1,2.87-3.31,6.84-9,9.45l-.49.25-.37.1a10.1,10.1,0,0,1-1.4.4,14.26,14.26,0,0,1-4.27.63h0a30.3,30.3,0,0,1-7.11-1.08l-.43-.11q.28.69.54,1.44c.37.69.76,1.38,1.16,2.07,1.88,3.3,4,7,4.5,11.79a12.48,12.48,0,0,1-2.84,9.69c-2.93,3.4-7.61,5.22-14.33,5.55C353.4,301.22,352.05,301.25,350.77,301.25Z"/><path class="cls-2" d="M345.45,295.93c-2.09,0-4.08-.1-6.1-.3-11-1.1-14-7.23-14.84-10.78-1.15-4.93.07-9.79,1.3-14,.43-1.47.93-3,1.51-4.52a39.41,39.41,0,0,1-6,.48,30.52,30.52,0,0,1-5-.41l-.85,0c-5.77-.34-10-3.08-11.52-7.5-2.09-6.08,2-11.25,3.79-13.46,3.37-4.19,6.36-8.08,9.16-11.88.54-.74,1.11-1.49,1.69-2.25a42.22,42.22,0,0,0,5.09-7.76c.27-.6.49-1.18.69-1.73,1.2-3.12,3-7.83,9.83-9.78a34.12,34.12,0,0,1,6.79-1.21l.24,0,.61,0c.57,0,1.13,0,1.7,0a32.47,32.47,0,0,1,4.94.37c1,.12,1.87.27,2.71.45,1.56.31,10.1,2.35,18.49,11.44,1,1.05,7.84,8.3,11,14.86,3.69,6.73,4.7,12.71,3,17.76-1,2.88-3.32,6.84-9.05,9.45l-.48.25-.38.1a10.1,10.1,0,0,1-1.4.4,14,14,0,0,1-4.27.63h0a30.12,30.12,0,0,1-7.1-1.08l-.44-.1c.19.45.38.93.54,1.43.37.7.77,1.38,1.16,2.07,1.88,3.3,4,7.05,4.51,11.79a12.45,12.45,0,0,1-2.85,9.69c-2.92,3.41-7.61,5.22-14.33,5.56C348.07,295.89,346.72,295.93,345.45,295.93Z"/><path class="cls-3" d="M371.82,259.33l-.08,0a3,3,0,0,1-1.67.23,4.4,4.4,0,0,0,2.81-2.13c1.86-3.26-.06-8.4-2-11-3.21-4.27-7.76-6.39-13.78-6.39a40.12,40.12,0,0,0-11.71,2.05c-1.83.57-3.69,1.13-5.49,1.67-3.75,1.12-7.64,2.28-11.42,3.6-.9.32-1.86.62-2.87,1-3.81,1.22-8.14,2.6-11,5.06-1.3,1.12-1.85,2.39-1.54,3.56.37,1.39,1.86,2.49,3.89,2.88l.12,0-.16.2c-.32,0-.66,0-1,0-2.33-.14-5.1-.88-5.91-3.21-.92-2.68,1.22-5.46,2.75-7.38,3.18-4,6.29-8,9.31-12.08,2.59-3.52,5.72-7.21,7.49-11.23,1.66-3.78,1.79-6.61,6.41-7.93a26.3,26.3,0,0,1,24.61,5.22C367.82,229.74,388.27,252,371.82,259.33Z"/><path class="cls-4" d="M371,246.32c-6.3-8.36-16.91-7.16-25.74-4.41-5.65,1.75-11.32,3.32-16.91,5.27-4.43,1.55-10.31,2.92-13.94,6-3.36,2.89-1.33,6.11,2.46,6.83,5,.95,10.16.07,15-1.14a58.76,58.76,0,0,1,6-1.17l.29,0a49.74,49.74,0,0,0-2.22,4.5,79,79,0,0,0-4.05,10.5c-1,3.33-2,7.22-1.21,10.69,1,4.2,5.49,5.49,9.26,5.86a58.67,58.67,0,0,0,9.27.17c5.18-.26,11.8-1.65,11.13-8.21-.64-6.16-5.62-10.78-7.11-16.74a20.67,20.67,0,0,1-.61-5.81c0-.39,0-.79,0-1.18l.22,0a77.66,77.66,0,0,1,8.22,1.34c3.61.79,9.6,2.85,11.95-1.28C375,254.29,373.14,249.11,371,246.32Z"/><path class="cls-5" d="M362.66,247.17c-4.25-5.66-11.43-4.84-17.4-3-3.81,1.19-7.65,2.25-11.43,3.57-3,1-7,2-9.42,4.09-2.27,1.95-.9,4.12,1.66,4.62a23.89,23.89,0,0,0,10.15-.78c1.36-.33,2.71-.6,4-.79l.2,0a32.17,32.17,0,0,0-1.5,3.05,54.37,54.37,0,0,0-2.74,7.09c-.66,2.26-1.36,4.89-.81,7.23.66,2.84,3.7,3.71,6.26,4a40.94,40.94,0,0,0,6.26.11c3.5-.18,8-1.12,7.52-5.55-.43-4.17-3.8-7.29-4.8-11.32a14,14,0,0,1-.42-3.92c0-.27,0-.54,0-.8h.15a50.09,50.09,0,0,1,5.55.91c2.44.53,6.49,1.92,8.08-.87C365.31,252.55,364.08,249.05,362.66,247.17Z"/><path class="cls-6" d="M353.46,249.72c1.18,2.1-.7,7.78-.77,7.77,0,.39,0,.79,0,1.18a20.67,20.67,0,0,0,.61,5.81c1.49,6,6.47,10.58,7.11,16.74.67,6.56-5.95,7.95-11.13,8.21a58.67,58.67,0,0,1-9.27-.17c-3.77-.37-8.28-1.66-9.26-5.86-.81-3.47.23-7.36,1.21-10.69a79,79,0,0,1,4.05-10.5,49.74,49.74,0,0,1,2.22-4.5c-.1,0,2.84-7.33,2.74-7.31S348.05,240.06,353.46,249.72Z"/><path class="cls-7" d="M341.71,250.57s6.3-9.66,11.72,0c1.17,2.1-.67,6.93-.74,6.92,0,.39,0,.79,0,1.18a20.67,20.67,0,0,0,.61,5.81c1.49,6,5.91,10.83,6.54,17,.67,6.55-5.48,7.2-10.66,7.45,0,0,5.56-4.2.41-19,0,0-1.23-10,.12-14.44S347.41,247.91,341.71,250.57Z"/><path class="cls-8" d="M334.46,219.37a30.66,30.66,0,0,1,7.37-2.19,37.84,37.84,0,0,1,8.08.65s7.55,1.35,15.11,9.56c0,0,7.68,8,10.23,14,0,0,6.58,11.16-1.76,16.25,0,0,5.66-3.72.37-15.19,0,0-6.08-10.51-10-13.83,0,0-8.41-8.59-13.76-9.38a17.86,17.86,0,0,1-1.8-.34,12.74,12.74,0,0,0-6.81-.31A10.3,10.3,0,0,0,334.46,219.37Z"/><path class="cls-9" d="M311.91,252.7s7.8-10.52,12.07-15.93c3.46-4.38,5-7.8,6.56-9.34,0,0-.17,3.76-6.22,11.17C322.07,241.35,316.19,248.74,311.91,252.7Z"/><path class="cls-1" d="M169.62,397.16c-2.08,0-4.07-.1-6.09-.3-11-1.1-14-7.23-14.84-10.78-1.15-4.93.07-9.79,1.3-13.95.43-1.47.93-3,1.51-4.51a40.8,40.8,0,0,1-6,.47,30.49,30.49,0,0,1-5-.41c-.28,0-.56,0-.85,0-5.77-.34-10-3.08-11.52-7.5-2.09-6.08,2-11.25,3.79-13.46,3.36-4.19,6.35-8.08,9.15-11.88l1.69-2.25a41.79,41.79,0,0,0,5.1-7.76c.27-.6.49-1.18.69-1.73,1.19-3.12,3-7.83,9.82-9.78a33.63,33.63,0,0,1,6.8-1.2l.23,0,.62,0c.56,0,1.13,0,1.7,0a32.57,32.57,0,0,1,4.94.37c1,.12,1.87.27,2.71.45,1.56.31,10.09,2.35,18.49,11.44,1,1.05,7.84,8.3,11,14.86,3.69,6.73,4.7,12.71,3,17.76-1,2.88-3.31,6.84-9,9.45l-.49.25-.37.1a10.1,10.1,0,0,1-1.4.4,14,14,0,0,1-4.27.63h0a30.3,30.3,0,0,1-7.11-1.08l-.43-.1c.19.45.37.93.54,1.43.37.7.76,1.38,1.16,2.07,1.88,3.3,4,7.05,4.5,11.79a12.45,12.45,0,0,1-2.84,9.69c-2.93,3.41-7.61,5.22-14.33,5.56C172.25,397.12,170.9,397.16,169.62,397.16Z"/><path class="cls-2" d="M164.3,391.83c-2.09,0-4.08-.1-6.1-.3-11-1.1-14-7.22-14.84-10.77-1.15-4.93.07-9.79,1.3-14,.43-1.47.93-3,1.51-4.51a40.77,40.77,0,0,1-6,.47,30.52,30.52,0,0,1-5-.41l-.85,0c-5.77-.35-10-3.09-11.52-7.51-2.09-6.08,2-11.25,3.79-13.45,3.37-4.2,6.36-8.08,9.16-11.89.54-.74,1.11-1.49,1.69-2.24a42.91,42.91,0,0,0,5.09-7.76c.27-.61.49-1.19.7-1.74,1.19-3.11,3-7.82,9.82-9.78a34.11,34.11,0,0,1,6.79-1.2l.24,0,.61,0c.57,0,1.13,0,1.7,0a32.47,32.47,0,0,1,4.94.37c1,.12,1.87.27,2.71.45,1.56.31,10.1,2.35,18.49,11.44,1,1.06,7.84,8.3,11,14.86,3.69,6.73,4.7,12.71,3,17.76-1,2.88-3.32,6.84-9,9.45l-.48.25-.38.11a10.05,10.05,0,0,1-1.4.39,14,14,0,0,1-4.27.63h0a30.12,30.12,0,0,1-7.1-1.08l-.44-.1c.19.45.38.93.54,1.43.37.7.77,1.38,1.16,2.07,1.88,3.3,4,7.05,4.51,11.79a12.45,12.45,0,0,1-2.85,9.69c-2.92,3.41-7.61,5.23-14.33,5.56C166.92,391.79,165.57,391.83,164.3,391.83Z"/><path class="cls-3" d="M190.67,355.23l-.08,0a3,3,0,0,1-1.67.24,4.41,4.41,0,0,0,2.81-2.14c1.86-3.26-.06-8.4-2-11C186.5,338.09,182,336,175.93,336a40.12,40.12,0,0,0-11.71,2c-1.83.57-3.69,1.13-5.49,1.67-3.75,1.13-7.64,2.29-11.42,3.61-.9.31-1.86.62-2.87.94-3.81,1.22-8.14,2.6-11,5.06-1.3,1.13-1.85,2.39-1.54,3.57.38,1.38,1.86,2.48,3.89,2.87l.12,0-.16.2c-.32,0-.66,0-1,0-2.34-.14-5.11-.89-5.92-3.22-.92-2.68,1.22-5.46,2.75-7.38q4.77-5.94,9.31-12.08c2.59-3.52,5.72-7.21,7.49-11.22,1.66-3.79,1.79-6.62,6.42-7.94a26.34,26.34,0,0,1,24.6,5.22C186.67,325.64,207.12,347.9,190.67,355.23Z"/><path class="cls-4" d="M189.89,342.22c-6.3-8.36-16.91-7.16-25.74-4.41-5.65,1.75-11.32,3.32-16.91,5.27-4.43,1.55-10.31,2.92-13.94,6.05-3.36,2.9-1.33,6.11,2.46,6.83,5,1,10.16.07,15-1.14a58.76,58.76,0,0,1,6-1.17l.29,0a49.74,49.74,0,0,0-2.22,4.5,79,79,0,0,0-4.05,10.5c-1,3.33-2,7.22-1.21,10.69,1,4.21,5.49,5.49,9.26,5.87a59.88,59.88,0,0,0,9.27.16c5.18-.25,11.8-1.65,11.13-8.2-.64-6.17-5.62-10.79-7.11-16.75a20.63,20.63,0,0,1-.61-5.8c0-.4,0-.8,0-1.19l.22,0a75.11,75.11,0,0,1,8.22,1.33c3.61.79,9.6,2.85,12-1.27C193.81,350.19,192,345,189.89,342.22Z"/><path class="cls-5" d="M181.51,343.07c-4.25-5.65-11.42-4.84-17.4-3-3.81,1.18-7.65,2.24-11.43,3.56-3,1.05-7,2-9.42,4.09-2.27,2-.9,4.13,1.66,4.62a24,24,0,0,0,10.15-.77c1.36-.34,2.71-.6,4.05-.8l.2,0a33.17,33.17,0,0,0-1.5,3,54,54,0,0,0-2.74,7.1c-.66,2.25-1.36,4.88-.81,7.22.66,2.85,3.7,3.71,6.26,4a39.71,39.71,0,0,0,6.26.11c3.5-.17,8-1.12,7.52-5.55-.43-4.16-3.8-7.29-4.8-11.31a14.06,14.06,0,0,1-.42-3.93c0-.27,0-.54,0-.8l.15,0a50,50,0,0,1,5.55.9c2.44.53,6.49,1.93,8.08-.86C184.16,348.45,182.93,345,181.51,343.07Z"/><path class="cls-6" d="M172.31,345.63c1.18,2.1-.7,7.77-.77,7.76,0,.39,0,.79,0,1.19a20.63,20.63,0,0,0,.61,5.8c1.49,6,6.47,10.58,7.11,16.75.67,6.55-6,7.95-11.13,8.2a59.88,59.88,0,0,1-9.27-.16c-3.77-.38-8.27-1.66-9.26-5.87-.81-3.47.23-7.36,1.21-10.69a79,79,0,0,1,4.05-10.5,49.74,49.74,0,0,1,2.22-4.5c-.1,0,2.84-7.33,2.74-7.31S166.9,336,172.31,345.63Z"/><path class="cls-7" d="M160.56,346.48s6.3-9.67,11.72,0c1.17,2.09-.67,6.92-.74,6.91,0,.39,0,.79,0,1.19a20.63,20.63,0,0,0,.61,5.8c1.49,6,5.91,10.83,6.54,17,.68,6.55-5.48,7.2-10.66,7.46,0,0,5.56-4.2.41-19,0,0-1.23-10,.12-14.44S166.26,343.82,160.56,346.48Z"/><path class="cls-8" d="M153.31,315.27a30.4,30.4,0,0,1,7.37-2.18,37.12,37.12,0,0,1,8.08.65s7.55,1.34,15.11,9.55c0,0,7.68,8,10.23,14,0,0,6.58,11.15-1.76,16.24,0,0,5.66-3.72.37-15.19,0,0-6.08-10.51-10-13.83,0,0-8.41-8.59-13.76-9.38a17.84,17.84,0,0,1-1.8-.33,12.61,12.61,0,0,0-6.81-.32A10.3,10.3,0,0,0,153.31,315.27Z"/><path class="cls-9" d="M130.76,348.61s7.8-10.53,12.07-15.94c3.46-4.38,5-7.8,6.56-9.33,0,0-.17,3.75-6.22,11.16C140.92,337.25,135,344.64,130.76,348.61Z"/><path class="cls-1" d="M260.2,397.16c-2.08,0-4.08-.1-6.09-.3-11-1.1-14-7.23-14.85-10.78-1.15-4.93.07-9.79,1.3-13.95.44-1.47.93-3,1.51-4.51a40.66,40.66,0,0,1-6,.47,30.52,30.52,0,0,1-5-.41c-.27,0-.56,0-.85,0-5.77-.34-10-3.08-11.52-7.5-2.09-6.08,2-11.25,3.8-13.46,3.36-4.19,6.35-8.08,9.15-11.88.55-.74,1.11-1.49,1.69-2.25a42.22,42.22,0,0,0,5.09-7.76c.27-.6.49-1.18.7-1.73,1.19-3.12,3-7.83,9.82-9.78a33.41,33.41,0,0,1,6.79-1.2l.24,0,.61,0c.57,0,1.14,0,1.7,0a32.47,32.47,0,0,1,4.94.37c1,.12,1.87.27,2.71.45,1.57.31,10.1,2.35,18.49,11.44,1,1.05,7.85,8.3,11,14.86,3.68,6.73,4.69,12.71,3,17.76-1,2.88-3.32,6.84-9.05,9.45l-.48.25-.37.1a10.23,10.23,0,0,1-1.41.4,13.9,13.9,0,0,1-4.27.63h0a30.21,30.21,0,0,1-7.1-1.08l-.43-.1c.19.45.37.93.53,1.43.38.7.77,1.38,1.16,2.07,1.89,3.3,4,7.05,4.51,11.79a12.45,12.45,0,0,1-2.85,9.69c-2.92,3.41-7.61,5.22-14.32,5.56C262.82,397.12,261.47,397.16,260.2,397.16Z"/><path class="cls-2" d="M254.87,391.83c-2.08,0-4.08-.1-6.09-.3-11-1.1-14-7.22-14.85-10.77-1.15-4.93.07-9.79,1.3-14,.44-1.47.94-3,1.51-4.51a40.55,40.55,0,0,1-6,.47,30.61,30.61,0,0,1-5-.41l-.85,0c-5.77-.35-10-3.09-11.52-7.51-2.09-6.08,2-11.25,3.8-13.45,3.36-4.2,6.35-8.08,9.15-11.89.55-.74,1.12-1.49,1.69-2.24a43,43,0,0,0,5.1-7.76c.26-.61.48-1.19.69-1.74,1.19-3.11,3-7.82,9.82-9.78a34.21,34.21,0,0,1,6.8-1.2l.23,0,.61,0c.57,0,1.14,0,1.7,0a32.7,32.7,0,0,1,5,.37c1,.12,1.86.27,2.71.45,1.56.31,10.09,2.35,18.48,11.44,1,1.06,7.85,8.3,11,14.86,3.68,6.73,4.69,12.71,3,17.76-1,2.88-3.32,6.84-9.05,9.45l-.48.25-.37.11a9.81,9.81,0,0,1-1.41.39,13.86,13.86,0,0,1-4.27.63h0a30.29,30.29,0,0,1-7.1-1.08l-.43-.1c.19.45.37.93.54,1.43.37.7.76,1.38,1.15,2.07,1.89,3.3,4,7.05,4.51,11.79a12.49,12.49,0,0,1-2.84,9.69c-2.93,3.41-7.62,5.23-14.33,5.56C257.49,391.79,256.14,391.83,254.87,391.83Z"/><path class="cls-3" d="M281.24,355.23l-.08,0a3,3,0,0,1-1.66.24,4.41,4.41,0,0,0,2.81-2.14c1.86-3.26-.06-8.4-2-11-3.2-4.27-7.76-6.39-13.78-6.39a40.18,40.18,0,0,0-11.71,2c-1.83.57-3.68,1.13-5.49,1.67-3.75,1.13-7.63,2.29-11.41,3.61-.91.31-1.86.62-2.88.94-3.81,1.22-8.13,2.6-11,5.06-1.31,1.13-1.86,2.39-1.54,3.57.37,1.38,1.86,2.48,3.89,2.87l.11,0a1.56,1.56,0,0,1-.16.2c-.32,0-.65,0-1,0-2.33-.14-5.11-.89-5.91-3.22-.92-2.68,1.21-5.46,2.75-7.38,3.17-4,6.29-8,9.3-12.08,2.59-3.52,5.73-7.21,7.49-11.22,1.66-3.79,1.8-6.62,6.42-7.94A26.36,26.36,0,0,1,270,319.32C277.25,325.64,297.69,347.9,281.24,355.23Z"/><path class="cls-4" d="M280.47,342.22c-6.3-8.36-16.91-7.16-25.74-4.41-5.65,1.75-11.32,3.32-16.91,5.27-4.44,1.55-10.32,2.92-13.94,6.05-3.36,2.9-1.34,6.11,2.45,6.83,5,1,10.16.07,15-1.14a59.84,59.84,0,0,1,6-1.17l.3,0a45,45,0,0,0-2.22,4.5,79,79,0,0,0-4,10.5c-1,3.33-2,7.22-1.21,10.69,1,4.21,5.48,5.49,9.26,5.87a59.75,59.75,0,0,0,9.26.16c5.18-.25,11.8-1.65,11.13-8.2-.63-6.17-5.62-10.79-7.11-16.75a20.63,20.63,0,0,1-.61-5.8c0-.4,0-.8,0-1.19l.23,0a74.94,74.94,0,0,1,8.21,1.33c3.62.79,9.6,2.85,11.95-1.27C284.38,350.19,282.57,345,280.47,342.22Z"/><path class="cls-5" d="M272.09,343.07c-4.26-5.65-11.43-4.84-17.4-3-3.82,1.18-7.65,2.24-11.43,3.56-3,1.05-7,2-9.42,4.09-2.28,2-.91,4.13,1.66,4.62a24,24,0,0,0,10.14-.77c1.36-.34,2.71-.6,4.06-.8l.2,0a30.78,30.78,0,0,0-1.5,3,52.59,52.59,0,0,0-2.74,7.1c-.67,2.25-1.37,4.88-.82,7.22.66,2.85,3.71,3.71,6.26,4a39.73,39.73,0,0,0,6.26.11c3.5-.17,8-1.12,7.53-5.55-.43-4.16-3.8-7.29-4.81-11.31a13.69,13.69,0,0,1-.41-3.93c0-.27,0-.54,0-.8l.15,0a49.83,49.83,0,0,1,5.56.9c2.44.53,6.49,1.93,8.08-.86C274.73,348.45,273.51,345,272.09,343.07Z"/><path class="cls-6" d="M262.89,345.63c1.17,2.1-.7,7.77-.78,7.76,0,.39,0,.79,0,1.19a20.63,20.63,0,0,0,.61,5.8c1.49,6,6.48,10.58,7.11,16.75.67,6.55-5.95,7.95-11.13,8.2a59.75,59.75,0,0,1-9.26-.16c-3.78-.38-8.28-1.66-9.26-5.87-.81-3.47.22-7.36,1.21-10.69a79,79,0,0,1,4-10.5,45,45,0,0,1,2.22-4.5c-.1,0,2.84-7.33,2.74-7.31S257.48,336,262.89,345.63Z"/><path class="cls-7" d="M251.13,346.48s6.31-9.67,11.72,0c1.18,2.09-.66,6.92-.74,6.91,0,.39,0,.79,0,1.19a20.63,20.63,0,0,0,.61,5.8c1.49,6,5.91,10.83,6.55,17,.67,6.55-5.48,7.2-10.66,7.46,0,0,5.56-4.2.41-19,0,0-1.23-10,.11-14.44S256.84,343.82,251.13,346.48Z"/><path class="cls-8" d="M243.89,315.27a30.21,30.21,0,0,1,7.37-2.18,37,37,0,0,1,8.07.65s7.55,1.34,15.12,9.55c0,0,7.68,8,10.22,14,0,0,6.58,11.15-1.75,16.24,0,0,5.66-3.72.37-15.19,0,0-6.09-10.51-10-13.83,0,0-8.42-8.59-13.77-9.38a18.17,18.17,0,0,1-1.79-.33,12.63,12.63,0,0,0-6.81-.32A10.3,10.3,0,0,0,243.89,315.27Z"/><path class="cls-9" d="M221.34,348.61s7.8-10.53,12.07-15.94c3.46-4.38,5-7.8,6.55-9.33,0,0-.17,3.75-6.21,11.16C231.5,337.25,225.62,344.64,221.34,348.61Z"/><path class="cls-1" d="M350.77,397.16c-2.08,0-4.07-.1-6.09-.3-11-1.1-14-7.23-14.84-10.78-1.15-4.93.06-9.79,1.3-13.95.43-1.47.93-3,1.51-4.51a40.8,40.8,0,0,1-6,.47,30.49,30.49,0,0,1-5-.41c-.28,0-.56,0-.85,0-5.77-.34-10-3.08-11.52-7.5-2.09-6.08,2-11.25,3.79-13.46,3.36-4.19,6.35-8.08,9.15-11.88l1.69-2.25a41.79,41.79,0,0,0,5.1-7.76c.27-.6.48-1.18.69-1.73,1.19-3.12,3-7.83,9.82-9.78a33.63,33.63,0,0,1,6.8-1.2l.23,0,.62,0c.56,0,1.13,0,1.7,0a32.57,32.57,0,0,1,4.94.37c1,.12,1.87.27,2.71.45,1.56.31,10.09,2.35,18.49,11.44,1,1.05,7.84,8.3,11,14.86,3.69,6.73,4.7,12.71,3,17.76-1,2.88-3.31,6.84-9,9.45l-.49.25-.37.1a10.1,10.1,0,0,1-1.4.4,14,14,0,0,1-4.27.63h0a30.3,30.3,0,0,1-7.11-1.08l-.43-.1c.19.45.37.93.54,1.43.37.7.76,1.38,1.16,2.07,1.88,3.3,4,7.05,4.5,11.79a12.45,12.45,0,0,1-2.84,9.69c-2.93,3.41-7.61,5.22-14.33,5.56C353.4,397.12,352.05,397.16,350.77,397.16Z"/><path class="cls-2" d="M345.45,391.83c-2.09,0-4.08-.1-6.1-.3-11-1.1-14-7.22-14.84-10.77-1.15-4.93.07-9.79,1.3-14,.43-1.47.93-3,1.51-4.51a40.77,40.77,0,0,1-6,.47,30.52,30.52,0,0,1-5-.41l-.85,0c-5.77-.35-10-3.09-11.52-7.51-2.09-6.08,2-11.25,3.79-13.45,3.37-4.2,6.36-8.08,9.16-11.89.54-.74,1.11-1.49,1.69-2.24a42.91,42.91,0,0,0,5.09-7.76c.27-.61.49-1.19.69-1.74,1.2-3.11,3-7.82,9.83-9.78a34.11,34.11,0,0,1,6.79-1.2l.24,0,.61,0c.57,0,1.13,0,1.7,0a32.47,32.47,0,0,1,4.94.37c1,.12,1.87.27,2.71.45,1.56.31,10.1,2.35,18.49,11.44,1,1.06,7.84,8.3,11,14.86,3.69,6.73,4.7,12.71,3,17.76-1,2.88-3.32,6.84-9.05,9.45l-.48.25-.38.11a10.05,10.05,0,0,1-1.4.39,14,14,0,0,1-4.27.63h0a30.12,30.12,0,0,1-7.1-1.08l-.44-.1c.19.45.38.93.54,1.43.37.7.77,1.38,1.16,2.07,1.88,3.3,4,7.05,4.51,11.79a12.45,12.45,0,0,1-2.85,9.69c-2.92,3.41-7.61,5.23-14.33,5.56C348.07,391.79,346.72,391.83,345.45,391.83Z"/><path class="cls-3" d="M371.82,355.23l-.08,0a3,3,0,0,1-1.67.24,4.41,4.41,0,0,0,2.81-2.14c1.86-3.26-.06-8.4-2-11-3.21-4.27-7.76-6.39-13.78-6.39a40.12,40.12,0,0,0-11.71,2c-1.83.57-3.69,1.13-5.49,1.67-3.75,1.13-7.64,2.29-11.42,3.61-.9.31-1.86.62-2.87.94-3.81,1.22-8.14,2.6-11,5.06-1.3,1.13-1.85,2.39-1.54,3.57.37,1.38,1.86,2.48,3.89,2.87l.12,0-.16.2c-.32,0-.66,0-1,0-2.33-.14-5.1-.89-5.91-3.22-.92-2.68,1.22-5.46,2.75-7.38q4.77-5.94,9.31-12.08c2.59-3.52,5.72-7.21,7.49-11.22,1.66-3.79,1.79-6.62,6.41-7.94a26.35,26.35,0,0,1,24.61,5.22C367.82,325.64,388.27,347.9,371.82,355.23Z"/><path class="cls-4" d="M371,342.22c-6.3-8.36-16.91-7.16-25.74-4.41-5.65,1.75-11.32,3.32-16.91,5.27-4.43,1.55-10.31,2.92-13.94,6.05-3.36,2.9-1.33,6.11,2.46,6.83,5,1,10.16.07,15-1.14a58.76,58.76,0,0,1,6-1.17l.29,0a49.74,49.74,0,0,0-2.22,4.5,79,79,0,0,0-4.05,10.5c-1,3.33-2,7.22-1.21,10.69,1,4.21,5.49,5.49,9.26,5.87a59.88,59.88,0,0,0,9.27.16c5.18-.25,11.8-1.65,11.13-8.2-.64-6.17-5.62-10.79-7.11-16.75a20.63,20.63,0,0,1-.61-5.8c0-.4,0-.8,0-1.19l.22,0a75.11,75.11,0,0,1,8.22,1.33c3.61.79,9.6,2.85,11.95-1.27C375,350.19,373.14,345,371,342.22Z"/><path class="cls-5" d="M362.66,343.07c-4.25-5.65-11.43-4.84-17.4-3-3.81,1.18-7.65,2.24-11.43,3.56-3,1.05-7,2-9.42,4.09-2.27,2-.9,4.13,1.66,4.62a24,24,0,0,0,10.15-.77c1.36-.34,2.71-.6,4-.8l.2,0a33.17,33.17,0,0,0-1.5,3,54,54,0,0,0-2.74,7.1c-.66,2.25-1.36,4.88-.81,7.22.66,2.85,3.7,3.71,6.26,4a39.71,39.71,0,0,0,6.26.11c3.5-.17,8-1.12,7.52-5.55-.43-4.16-3.8-7.29-4.8-11.31a14.06,14.06,0,0,1-.42-3.93c0-.27,0-.54,0-.8l.15,0a50,50,0,0,1,5.55.9c2.44.53,6.49,1.93,8.08-.86C365.31,348.45,364.08,345,362.66,343.07Z"/><path class="cls-6" d="M353.46,345.63c1.18,2.1-.7,7.77-.77,7.76,0,.39,0,.79,0,1.19a20.63,20.63,0,0,0,.61,5.8c1.49,6,6.47,10.58,7.11,16.75.67,6.55-5.95,7.95-11.13,8.2a59.88,59.88,0,0,1-9.27-.16c-3.77-.38-8.28-1.66-9.26-5.87-.81-3.47.23-7.36,1.21-10.69a79,79,0,0,1,4.05-10.5,49.74,49.74,0,0,1,2.22-4.5c-.1,0,2.84-7.33,2.74-7.31S348.05,336,353.46,345.63Z"/><path class="cls-7" d="M341.71,346.48s6.3-9.67,11.72,0c1.17,2.09-.67,6.92-.74,6.91,0,.39,0,.79,0,1.19a20.63,20.63,0,0,0,.61,5.8c1.49,6,5.91,10.83,6.54,17,.67,6.55-5.48,7.2-10.66,7.46,0,0,5.56-4.2.41-19,0,0-1.23-10,.12-14.44S347.41,343.82,341.71,346.48Z"/><path class="cls-8" d="M334.46,315.27a30.4,30.4,0,0,1,7.37-2.18,37.12,37.12,0,0,1,8.08.65s7.55,1.34,15.11,9.55c0,0,7.68,8,10.23,14,0,0,6.58,11.15-1.76,16.24,0,0,5.66-3.72.37-15.19,0,0-6.08-10.51-10-13.83,0,0-8.41-8.59-13.76-9.38a17.84,17.84,0,0,1-1.8-.33,12.61,12.61,0,0,0-6.81-.32A10.3,10.3,0,0,0,334.46,315.27Z"/><path class="cls-9" d="M311.91,348.61s7.8-10.53,12.07-15.94c3.46-4.38,5-7.8,6.56-9.33,0,0-.17,3.75-6.22,11.16C322.07,337.25,316.19,344.64,311.91,348.61Z"/></svg>