<svg xmlns="http://www.w3.org/2000/svg" viewBox="0 0 512 512"><defs><style>.cls-1{isolation:isolate;}.cls-2{opacity:0.5;}.cls-3{fill:#fff;}.cls-4{fill:#efe8e4;stroke:#938773;stroke-miterlimit:10;}.cls-5{fill:#d35957;}.cls-6{fill:#f2aa86;}.cls-7{mix-blend-mode:multiply;}.cls-8{fill:#d8c4b8;}.cls-9{mix-blend-mode:overlay;}</style></defs><g class="cls-1"><g id="Layer_1" data-name="Layer 1"><path class="cls-2" d="M151.9,373.76a8.4,8.4,0,0,1-1.88-.21,12,12,0,0,1-5.7-3.57c-.38-.36-.73-.7-1-1l-.19-.14h0a6.92,6.92,0,0,0-1-.05h-.66l-1,0a10.88,10.88,0,0,1-5.59-1.26,12,12,0,0,1-4.36-5.08c-.22-.4-.47-.85-.7-1.2l-.06-.1-.07-.08,0,0a13.72,13.72,0,0,0-1.52-.49,12.11,12.11,0,0,1-6-3.06,12,12,0,0,1-2.74-6.08c-.11-.52-.22-1-.33-1.36l-.07-.17a1.56,1.56,0,0,0-.2-.16c-.31-.23-.75-.5-1.14-.73a12.17,12.17,0,0,1-4.92-4.57,9.21,9.21,0,0,1-1-3.56,18.83,18.83,0,0,1,0-3,12.39,12.39,0,0,0,0-1.57v0a12.14,12.14,0,0,0-1-1.15,12.15,12.15,0,0,1-3.54-5.71,9.09,9.09,0,0,1-.16-1.1,13.2,13.2,0,0,1,.94-5.47c.15-.46.31-.94.41-1.34l0-.22s-.1-.26-.1-.26c-.14-.32-.37-.75-.62-1.2a13.27,13.27,0,0,1-1.9-5.26,7.59,7.59,0,0,1,0-1.06,12.12,12.12,0,0,1,2.47-6.25c.29-.44.59-.88.76-1.21l0-.08v-.24a13.08,13.08,0,0,0-.29-1.37,19.65,19.65,0,0,1-.55-3,9.09,9.09,0,0,1,.36-3.64,12.14,12.14,0,0,1,4-5.36c.34-.3.73-.64,1-.94a1.15,1.15,0,0,0,.14-.17s0-.22,0-.22c0-.39.07-.93.09-1.37a12,12,0,0,1,1.62-6.47,12.14,12.14,0,0,1,5.34-4.06,12.77,12.77,0,0,0,1.41-.75l0,0a.41.41,0,0,0,0-.09l.06-.14c.15-.35.31-.82.46-1.26a12,12,0,0,1,3.4-5.79,12.22,12.22,0,0,1,6.28-2.39,11.16,11.16,0,0,0,1.64-.34h0l.1-.1c.31-.37.59-.74.9-1.17a11.94,11.94,0,0,1,5-4.54,9.09,9.09,0,0,1,3.64-.69,20.27,20.27,0,0,1,3.05.29,12.92,12.92,0,0,0,1.63.17h.19a15.49,15.49,0,0,0,2-.79h0l4.08-1a24.86,24.86,0,0,1,7.64-.61l4.76.35c.23,0,.45.09.67.15.61.12,1.21.26,1.81.41l1.13.31c.6.17,1.18.36,1.76.56l.15.05.85.31c.61.23,1.2.48,1.79.74l.15.06.66.3c.62.29,1.22.6,1.82.92l.47.24.79.44,0,.05,1,.58h.06l1.05.7.42.3c.57.4,1.14.81,1.69,1.23l.42.31h0a47.9,47.9,0,0,1,5,4.49l.08,0,1.58,1.76.83.95h0l.61.71c2.31,2.75,4.48,5.28,6.39,7.5,10.11,11.79,16.21,18.9,17,28.4,1,11.49-12.57,34-16.76,40.61a50,50,0,0,1-7.35,9.14,44.81,44.81,0,0,1-5.1,4.28l-.1.07c-.4.29-.79.55-1.17.81l-.15.1-1.1.7-.1.06-1.17.69-.11.06-1.24.68-.47.24c-.64.32-1.3.63-2,.92l0,0-2.36.95h-.05a38.76,38.76,0,0,1-9.7,2.23l-.28,0h-1c-.21,0-.43,0-.64,0l-.26,0-.22,0a23.52,23.52,0,0,1-3.44-.66c-.45-.11-.87-.22-1.3-.31a7,7,0,0,0-.74-.12h-.05l-.73-6.35.6,6.37a12.45,12.45,0,0,0-1.57.47A14.8,14.8,0,0,1,151.9,373.76Z"/><path class="cls-3" d="M146.57,368.43a8.33,8.33,0,0,1-1.88-.21,12,12,0,0,1-5.71-3.58c-.37-.36-.72-.69-1-.94l-.18-.14h0a6.49,6.49,0,0,0-1-.06h-1.67a11,11,0,0,1-5.58-1.25,11.91,11.91,0,0,1-4.36-5.08c-.22-.41-.47-.85-.7-1.2l-.06-.1-.07-.08-.05,0a11.21,11.21,0,0,0-1.51-.49,12.19,12.19,0,0,1-6-3.06,11.91,11.91,0,0,1-2.74-6.08c-.12-.52-.22-1-.34-1.36a1.24,1.24,0,0,1-.06-.18l-.2-.16c-.32-.22-.76-.49-1.14-.72a12.14,12.14,0,0,1-4.92-4.58,9,9,0,0,1-1-3.55,20.15,20.15,0,0,1,0-3,12.83,12.83,0,0,0,0-1.58v0a11.49,11.49,0,0,0-1-1.16,12.1,12.1,0,0,1-3.54-5.71,9.05,9.05,0,0,1-.17-1.1,13.12,13.12,0,0,1,.95-5.46c.15-.46.31-.95.41-1.35l0-.22-.1-.25c-.14-.32-.38-.75-.63-1.21a13,13,0,0,1-1.89-5.25,9.58,9.58,0,0,1,0-1.06,12.09,12.09,0,0,1,2.48-6.25c.29-.44.58-.88.76-1.22l0-.07v-.25c-.06-.38-.18-.88-.29-1.36a18.5,18.5,0,0,1-.55-3,9.12,9.12,0,0,1,.36-3.65,12.14,12.14,0,0,1,4-5.36c.34-.29.72-.63,1-.93l.15-.18s0-.22,0-.22c0-.38.07-.93.08-1.37a12,12,0,0,1,1.63-6.47,12.24,12.24,0,0,1,5.34-4.06,14.86,14.86,0,0,0,1.41-.74l0,0,0-.1.06-.13c.15-.36.31-.82.45-1.26a10.15,10.15,0,0,1,9.69-8.18,11.75,11.75,0,0,0,1.64-.34h0l.1-.11a14.31,14.31,0,0,0,.89-1.17,12.17,12.17,0,0,1,5-4.54,9.23,9.23,0,0,1,3.64-.68,21.77,21.77,0,0,1,3.05.28,12.67,12.67,0,0,0,1.63.18h.19a15.65,15.65,0,0,0,2-.8h0l4.07-1a25.24,25.24,0,0,1,7.65-.61l4.75.35.67.15c.61.13,1.22.27,1.82.42.37.09.75.2,1.12.31.6.17,1.19.36,1.77.56l.15,0,.85.31c.61.23,1.2.48,1.79.74l.14.06c.23.09.45.19.67.3.61.28,1.22.59,1.81.91l.48.25.79.44.05,0,1,.59h0l1.05.7.43.3c.57.4,1.14.8,1.68,1.23a5.09,5.09,0,0,1,.42.3v0a49,49,0,0,1,5,4.49l.07,0,1.58,1.76.84.95h0s.45.52.6.71c2.32,2.75,4.48,5.28,6.39,7.5C203,289.88,209.11,297,210,306.49c1,11.48-12.57,34-16.76,40.6a50.47,50.47,0,0,1-7.35,9.15,44.05,44.05,0,0,1-5.11,4.28l-.09.07-1.17.81-.15.09c-.37.25-.73.48-1.1.7l-.1.07L177,363l-.11.06c-.43.25-.83.47-1.23.67l-.47.25c-.65.32-1.3.63-2,.92l0,0-2.36.95h-.05a38.76,38.76,0,0,1-9.7,2.23l-.28,0h-1l-.65,0-.25,0-.22,0a22.27,22.27,0,0,1-3.44-.67c-.45-.11-.87-.22-1.31-.3a6.84,6.84,0,0,0-.73-.12h-.05l-.13,0a11.79,11.79,0,0,0-1.58.46A14.67,14.67,0,0,1,146.57,368.43Z"/><path class="cls-4" d="M144.76,263.24a11,11,0,0,1-4.2-.08,7.07,7.07,0,0,0-3.27,0,7,7,0,0,0-2.28,2.38,10.58,10.58,0,0,1-2.84,3,10.76,10.76,0,0,1-4,1.18,6.94,6.94,0,0,0-3.15,1,6.83,6.83,0,0,0-1.45,2.92,7.88,7.88,0,0,1-5.34,6,7,7,0,0,0-2.75,1.82,6.74,6.74,0,0,0-.57,3.18,7.77,7.77,0,0,1-3.46,7.27,7,7,0,0,0-2.16,2.49,3.12,3.12,0,0,0-.08,1.15,14.61,14.61,0,0,0,.4,2,16.11,16.11,0,0,1,.47,2.51,6.25,6.25,0,0,1,0,1.69,10.37,10.37,0,0,1-1.8,3.74,6.75,6.75,0,0,0-1.42,3,1.92,1.92,0,0,0,0,.24h0a8.1,8.1,0,0,0,1.14,2.74,7.81,7.81,0,0,1,.72,8.14,8.31,8.31,0,0,0-.63,2.89,1.72,1.72,0,0,0,0,.24,6.74,6.74,0,0,0,1.92,2.68,10,10,0,0,1,2.43,3.37,6.23,6.23,0,0,1,.36,1.67,17.61,17.61,0,0,1,0,2.52,16.33,16.33,0,0,0,0,2.08,3,3,0,0,0,.29,1.13,6.92,6.92,0,0,0,2.56,2.07,7.79,7.79,0,0,1,4.69,6.55,6.86,6.86,0,0,0,1.12,3,7.09,7.09,0,0,0,3,1.3,10.41,10.41,0,0,1,3.85,1.62,10.55,10.55,0,0,1,2.47,3.36,7,7,0,0,0,1.94,2.62,7,7,0,0,0,3.28.38,8,8,0,0,1,7.48,2.93,6.9,6.9,0,0,0,2.66,1.94,7,7,0,0,0,3.22-.61,10.88,10.88,0,0,1,4.11-.82,19.2,19.2,0,0,1,3.29.62,11.62,11.62,0,0,0,3.68.53c5.1-.46,18-3.12,27.4-18,6.2-9.8,16.5-28.55,15.79-36.61-.66-7.46-5.94-13.62-15.53-24.8-1.92-2.24-4.1-4.78-6.44-7.56-5.54-6.59-14.7-15.2-30.2-13.82a11.53,11.53,0,0,0-3.53,1.17A18.47,18.47,0,0,1,144.76,263.24Z"/><path class="cls-5" d="M134.14,310.4a8.89,8.89,0,0,1-1-1.91.88.88,0,0,1-.05-.32,1.46,1.46,0,0,1,.1-.35,4.33,4.33,0,0,1,.52-.87c.43-.6,1-1.21,1.41-1.93a5.58,5.58,0,0,0,.59-1.2,3.73,3.73,0,0,0,.21-1.39,10.36,10.36,0,0,0-.41-2.46c-.1-.36-.18-.71-.24-1a2.37,2.37,0,0,1,0-.84,1.57,1.57,0,0,1,.43-.62,9.09,9.09,0,0,1,.78-.69c.58-.45,1.21-.9,1.8-1.45a6.33,6.33,0,0,0,.84-.94,4.56,4.56,0,0,0,.61-1.18,9,9,0,0,0,.37-2.37,6.42,6.42,0,0,1,.27-1.92,1.16,1.16,0,0,1,.44-.54,4.9,4.9,0,0,1,.82-.47c.61-.3,1.28-.55,1.95-.87a7.87,7.87,0,0,0,2-1.21,5.92,5.92,0,0,0,1.37-1.92c.32-.68.54-1.35.8-1.93a2.46,2.46,0,0,1,.93-1.27,6,6,0,0,1,1.71-.48c.64-.1,1.32-.19,2-.33a7.3,7.3,0,0,0,2-.68,6.31,6.31,0,0,0,1.68-1.31c.47-.49.87-1,1.26-1.47a5.22,5.22,0,0,1,1.2-1.13,2.67,2.67,0,0,1,1.45-.25c.56,0,1.15.1,1.75.17a15.84,15.84,0,0,0,1.84.1,6.8,6.8,0,0,0,1.86-.27c1.16-.33,2.2-.83,3.2-1.2a8.73,8.73,0,0,1,1.47-.44,14.35,14.35,0,0,1,1.52-.13,31.85,31.85,0,0,1,5.89.1c.92.14,1.82.24,2.68.45.32.05.62.13.93.21l-1-1.15c-.79-.19-1.62-.31-2.47-.45a33.49,33.49,0,0,0-6.07-.22,14,14,0,0,0-1.65.13,9.9,9.9,0,0,0-1.66.46c-1.07.39-2.08.85-3.13,1.13a8,8,0,0,1-3.26.09c-.58-.07-1.18-.16-1.83-.19a5,5,0,0,0-1,0,2.85,2.85,0,0,0-1.1.36,6.26,6.26,0,0,0-1.53,1.39c-.42.49-.81,1-1.23,1.4a5.35,5.35,0,0,1-1.35,1.05,7.12,7.12,0,0,1-1.69.54c-.61.12-1.26.2-1.94.3a6.83,6.83,0,0,0-2.15.61,2.78,2.78,0,0,0-1,.89,5.89,5.89,0,0,0-.55,1c-.3.67-.52,1.31-.8,1.89a4.56,4.56,0,0,1-1,1.47,6.47,6.47,0,0,1-1.63,1c-.62.29-1.29.54-2,.86a6.76,6.76,0,0,0-1,.61,2.87,2.87,0,0,0-.52.48,2.25,2.25,0,0,0-.39.64,7.29,7.29,0,0,0-.39,2.39,7.48,7.48,0,0,1-.31,2c-.36,1.15-1.56,1.95-2.78,2.9a9.46,9.46,0,0,0-.93.8,3.09,3.09,0,0,0-.8,1.27,3.51,3.51,0,0,0,0,1.44c.07.42.16.82.26,1.2a9.2,9.2,0,0,1,.37,2.1,2.63,2.63,0,0,1-.14.89,4.38,4.38,0,0,1-.45.89c-.37.6-.87,1.18-1.36,1.86a5.81,5.81,0,0,0-.68,1.16,2.61,2.61,0,0,0-.21.79,2.5,2.5,0,0,0,.09.85,10.62,10.62,0,0,0,1.19,2.29,5.84,5.84,0,0,1,.85,1.92,4.07,4.07,0,0,1-.3,2c-.24.71-.6,1.43-.83,2.32a5,5,0,0,0-.11.72,2.44,2.44,0,0,0,.12.87,3.87,3.87,0,0,0,.81,1.23c.6.63,1.21,1.12,1.73,1.64a4,4,0,0,1,1.11,1.6,5.31,5.31,0,0,1,.13,2,10.79,10.79,0,0,0,0,2.48,2.37,2.37,0,0,0,.26.76,2.66,2.66,0,0,0,.5.62,5.75,5.75,0,0,0,1.06.75c.7.4,1.38.71,2,1.06a4.7,4.7,0,0,1,1.49,1.21,5.15,5.15,0,0,1,.76,1.78,16.18,16.18,0,0,0,.63,2.21,2.89,2.89,0,0,0,.85,1.15,3.86,3.86,0,0,0,1.17.58c.75.25,1.47.38,2.14.54a9.21,9.21,0,0,1,1.88.6,3.82,3.82,0,0,1,1.39,1.11A14.2,14.2,0,0,1,151.6,342a5.54,5.54,0,0,0,1.52,1.74,3.18,3.18,0,0,0,1.21.44,8.33,8.33,0,0,0,1.1.07c.7,0,1.36,0,2,0a8.17,8.17,0,0,1,1.81.13,4.23,4.23,0,0,1,1.56.64c1,.61,1.83,1.56,3,2.26a3.42,3.42,0,0,0,1.06.39,3.92,3.92,0,0,0,1.09,0,14.5,14.5,0,0,0,1.84-.47,10.39,10.39,0,0,1,3.23-.66,20.48,20.48,0,0,1,3.24.49,13.32,13.32,0,0,0,1.68.24,7.83,7.83,0,0,0,1.69-.08,32.38,32.38,0,0,0,9.71-2.8l.4-.62c.15-.24.31-.48.46-.73h0a32.43,32.43,0,0,1-10.67,3.1c-2,.36-4-.64-6.45-.76a11.67,11.67,0,0,0-3.62.66,10.85,10.85,0,0,1-1.66.41,1.88,1.88,0,0,1-1.38-.24c-.93-.53-1.8-1.51-3-2.26a5.63,5.63,0,0,0-2-.83,9.9,9.9,0,0,0-2.08-.17c-.68,0-1.35,0-2,0a3.13,3.13,0,0,1-1.59-.3,4.61,4.61,0,0,1-1.1-1.35,18.05,18.05,0,0,0-1.2-1.79A5.28,5.28,0,0,0,149.7,338a10.29,10.29,0,0,0-2.16-.71c-.7-.17-1.4-.3-2-.51a2.49,2.49,0,0,1-.75-.37,1.43,1.43,0,0,1-.41-.6c-.48-1.12-.49-2.81-1.53-4.27a6.1,6.1,0,0,0-1.93-1.62c-.69-.4-1.38-.71-2-1.07a4.2,4.2,0,0,1-.79-.55.85.85,0,0,1-.32-.58,9.33,9.33,0,0,1,0-2.1,6.55,6.55,0,0,0-.19-2.57,5.42,5.42,0,0,0-1.48-2.21c-.58-.59-1.2-1.08-1.68-1.6a2.42,2.42,0,0,1-.49-.72,1.27,1.27,0,0,1,0-.74c.16-.66.5-1.37.79-2.17a5.59,5.59,0,0,0,.36-2.72A7.09,7.09,0,0,0,134.14,310.4Z"/><path class="cls-6" d="M174.49,267.67c-.67-.53-1.37-1-2.11-1.54a37.93,37.93,0,0,0-10.58-.87,13.77,13.77,0,0,0-1.93.17,9.81,9.81,0,0,0-1.9.61,23.86,23.86,0,0,1-3.56,1.34,10.45,10.45,0,0,1-3.79-.13,9.55,9.55,0,0,0-2.25-.14,3,3,0,0,0-1.29.4,4.63,4.63,0,0,0-1,.81c-1.07,1.15-1.76,2.41-2.77,3.28a6.79,6.79,0,0,1-3.78,1.39,15.21,15.21,0,0,0-2.38.48,3.5,3.5,0,0,0-1.29.7,4,4,0,0,0-.85,1.17,21.15,21.15,0,0,0-.9,2.29,8.26,8.26,0,0,1-.95,2c-.75,1.12-2.18,1.71-3.7,2.42-.38.18-.78.37-1.18.61a4.35,4.35,0,0,0-1.17,1,3.5,3.5,0,0,0-.62,1.49,11.39,11.39,0,0,0-.16,1.36c-.08,1.73-.08,3.32-1,4.45a10.5,10.5,0,0,1-1.71,1.68,11.66,11.66,0,0,0-2,2,3.38,3.38,0,0,0-.41.78,2.58,2.58,0,0,0-.15.91,6.38,6.38,0,0,0,.15,1.49c.18.94.43,1.75.55,2.57a8.25,8.25,0,0,1,.09,1.19,3.26,3.26,0,0,1-.2,1.06,9.07,9.07,0,0,1-1.21,2.16,10.59,10.59,0,0,0-1.46,2.58,3,3,0,0,0-.15.93,3.16,3.16,0,0,0,.14.91,7.58,7.58,0,0,0,.61,1.41c.92,1.69,1.87,3.12,1.62,4.66a12.64,12.64,0,0,1-.7,2.5c-.15.44-.31.9-.43,1.4a4.24,4.24,0,0,0-.12,1.71,3.81,3.81,0,0,0,.77,1.59,11.77,11.77,0,0,0,1,1.1,16.69,16.69,0,0,1,1.74,1.92,3.92,3.92,0,0,1,.77,2.09,17.17,17.17,0,0,1,0,2.56,11.59,11.59,0,0,0,0,1.44,3.51,3.51,0,0,0,.46,1.65,4.53,4.53,0,0,0,1.15,1.16,13.48,13.48,0,0,0,1.18.75,16.67,16.67,0,0,1,2.11,1.34,4.08,4.08,0,0,1,1.33,1.7,13.47,13.47,0,0,1,.66,2.32,7.7,7.7,0,0,0,1,2.67,2.82,2.82,0,0,0,.6.64,4.55,4.55,0,0,0,.68.41,9.9,9.9,0,0,0,1.3.48c.85.24,1.64.41,2.38.65a5.38,5.38,0,0,1,1.89,1,7,7,0,0,1,1.35,1.7c.4.66.76,1.38,1.25,2.11a5.21,5.21,0,0,0,.92,1.05,2.83,2.83,0,0,0,.69.42,3.4,3.4,0,0,0,.71.22,11.47,11.47,0,0,0,2.51.11,15.92,15.92,0,0,1,2.2,0,4.65,4.65,0,0,1,1.87.57,10,10,0,0,1,1.64,1.26c.54.48,1.07,1,1.7,1.5a5.24,5.24,0,0,0,1.09.65,3,3,0,0,0,1.37.22,9.44,9.44,0,0,0,2.24-.53c.68-.23,1.32-.45,1.95-.61a6.15,6.15,0,0,1,1.83-.2,11.2,11.2,0,0,1,1.89.28,19.35,19.35,0,0,0,4,.68l.53,0,.48-.05c.32,0,.64-.07.95-.12.63-.07,1.24-.17,1.85-.27a50.31,50.31,0,0,0,7.49-1.86c.66-.56,1.32-1.16,2-1.8a49.06,49.06,0,0,1-9.65,2.47c-.59.09-1.2.17-1.81.24-.3,0-.61.06-.92.09l-.47.05h-.42a18.71,18.71,0,0,1-3.69-.7,12.66,12.66,0,0,0-2.09-.34,7.55,7.55,0,0,0-2.24.21c-.71.17-1.4.4-2.06.62a8.35,8.35,0,0,1-1.89.43,1.38,1.38,0,0,1-.74-.12,3.62,3.62,0,0,1-.77-.47c-.52-.41-1-.92-1.58-1.43a10.19,10.19,0,0,0-1.9-1.47,6.09,6.09,0,0,0-2.43-.78,17.87,17.87,0,0,0-2.41-.07,9.89,9.89,0,0,1-2.15-.1,1.49,1.49,0,0,1-.73-.32,3.64,3.64,0,0,1-.63-.74c-.4-.6-.76-1.31-1.19-2a8.43,8.43,0,0,0-1.65-2.1,7,7,0,0,0-2.43-1.3c-.83-.28-1.66-.46-2.42-.68a3.22,3.22,0,0,1-1.71-.91,6.53,6.53,0,0,1-.7-2.1,14.17,14.17,0,0,0-.74-2.61,6.39,6.39,0,0,0-.76-1.3,6.13,6.13,0,0,0-1-1.05,18.88,18.88,0,0,0-2.3-1.48,5.48,5.48,0,0,1-1.76-1.36,2.1,2.1,0,0,1-.21-.89c0-.38,0-.8,0-1.23a18.26,18.26,0,0,0,.06-2.8,6.56,6.56,0,0,0-.33-1.53,6.38,6.38,0,0,0-.75-1.39,18.17,18.17,0,0,0-1.91-2.12,4.58,4.58,0,0,1-1.29-1.8,2.8,2.8,0,0,1,.11-1,10.89,10.89,0,0,1,.38-1.24,13.71,13.71,0,0,0,.78-2.86,5.59,5.59,0,0,0,0-1.63,6.63,6.63,0,0,0-.46-1.51c-.4-.94-.91-1.74-1.31-2.51a7.33,7.33,0,0,1-.49-1.1,1.27,1.27,0,0,1,0-.86,9.63,9.63,0,0,1,1.24-2.12,10.52,10.52,0,0,0,1.41-2.57,4.89,4.89,0,0,0,.28-1.57,8.81,8.81,0,0,0-.11-1.48c-.14-.95-.41-1.84-.56-2.64a5.3,5.3,0,0,1-.13-1.13,1,1,0,0,1,.06-.39,1.56,1.56,0,0,1,.2-.38,10.18,10.18,0,0,1,1.72-1.67,12.6,12.6,0,0,0,2-2,5.58,5.58,0,0,0,.73-1.31,6.8,6.8,0,0,0,.36-1.41,22.6,22.6,0,0,0,.19-2.62,3.91,3.91,0,0,1,.43-1.95,5.26,5.26,0,0,1,1.76-1.15c.72-.34,1.5-.68,2.26-1.13a6.34,6.34,0,0,0,2-1.83c1.05-1.53,1.31-3.24,1.93-4.48a2.51,2.51,0,0,1,.5-.73,2.1,2.1,0,0,1,.75-.39,13.78,13.78,0,0,1,2.13-.44,14.38,14.38,0,0,0,2.33-.52,6.09,6.09,0,0,0,2.19-1.26,40.93,40.93,0,0,0,2.83-3.4,3.16,3.16,0,0,1,.66-.58,1.8,1.8,0,0,1,.71-.22,8.54,8.54,0,0,1,1.92.11,11.42,11.42,0,0,0,4.29.06,25.22,25.22,0,0,0,3.73-1.45,9.07,9.07,0,0,1,1.68-.58,15.27,15.27,0,0,1,1.75-.17A37.92,37.92,0,0,1,174.49,267.67Z"/><g class="cls-7"><path class="cls-8" d="M128.26,350.75a7.94,7.94,0,0,1,1.73,2.06c21.69-13.36,58.88-36.39,69.94-43.64l-1.66.76c-13.4,7.13-50,27.54-71.85,39.82A6.85,6.85,0,0,1,128.26,350.75Z"/><path class="cls-8" d="M198.68,307.41c-14.88.66-62.36,3.85-89.87,5.76a7.13,7.13,0,0,1,.64,2.26,7.31,7.31,0,0,1-.23,2.33c27.41-3,74.7-8.23,89.46-10.21l.68-.13Z"/><path class="cls-8" d="M199.21,308.07l-.43.06C184.26,311,138.25,321,111.36,326.94a6.49,6.49,0,0,1,1.06,1.84,6.23,6.23,0,0,1,.36,1.67c0,.36,0,.72,0,1.08,25.8-6.83,69.57-18.51,84.89-22.93Z"/><path class="cls-8" d="M140.1,357.57a8.19,8.19,0,0,1,2.34,1.54C161,343.72,192,317.83,200.33,310.38c-9.24,6.56-42,31.55-62,46.79A6.88,6.88,0,0,1,140.1,357.57Z"/><path class="cls-8" d="M201.26,311.55l-49.13,49.06a7,7,0,0,1,1.29-.06,19.2,19.2,0,0,1,3.29.62,11.71,11.71,0,0,0,3.64.53C170.91,349,194.43,320.4,201.26,311.55Z"/><path class="cls-8" d="M118.82,340.86a8,8,0,0,1,1.13,2.63c23.73-10.22,63.9-27.61,78.07-34.09l1.19-.63-1.34.39c-14.82,5.24-56.18,20.78-80.76,30.08A6.93,6.93,0,0,1,118.82,340.86Z"/><path class="cls-8" d="M202.18,312.84c-4.89,6.38-23.83,33.78-32.64,46.6a35.47,35.47,0,0,0,8.54-4.92C186.85,339.72,199.1,318.77,202.18,312.84Z"/><path class="cls-8" d="M114.18,288.74a7,7,0,0,1-1.4,1.89c25.84,4.81,69.3,12.81,84.81,15.34l1.38.14-1.28-.41C182.6,301.83,140,291.81,114.83,286A8.23,8.23,0,0,1,114.18,288.74Z"/><path class="cls-8" d="M147.88,262.05a18.47,18.47,0,0,1-3.12,1.19,6.91,6.91,0,0,1-1.28.17l57.23,39.65c-8.32-7.52-36.63-31.48-49.33-42.17A11.7,11.7,0,0,0,147.88,262.05Z"/><path class="cls-8" d="M160.6,261.27c10.85,11,34.6,34.86,40.58,40.32-4.1-5.33-20-23.93-31.25-37A30.32,30.32,0,0,0,160.6,261.27Z"/><path class="cls-8" d="M132.17,268.53a7,7,0,0,1-1.64.7c22.32,11.47,59.13,30.18,69.38,35-9.55-5.85-44.69-25.77-65.7-37.64A8,8,0,0,1,132.17,268.53Z"/><path class="cls-8" d="M110.07,300.07a6.25,6.25,0,0,1,0,1.69,6.71,6.71,0,0,1-.73,2c27.47,1.09,74.4,2.85,89.29,3.07l.49,0-1.56-.25c-15.86-1.64-61-5.41-87.6-7.57A9.87,9.87,0,0,1,110.07,300.07Z"/><path class="cls-8" d="M123.06,275a7.86,7.86,0,0,1-1.34,2.33,6.85,6.85,0,0,1-1.63,1.31c23.72,8.22,63.3,21.85,77.76,26.5l1.76.46C187.45,300.41,146.77,284.32,123.06,275Z"/></g><g class="cls-9"><path class="cls-3" d="M139.24,308.15c0,.46,2.92,1,6.61,1s6.63-.73,6.58-1.19-3-.57-6.61-.51S139.27,307.67,139.24,308.15Z"/><path class="cls-3" d="M147.39,316.54c0-.47-1.91-.75-4.17-.33s-3.93,1.35-3.79,1.8,1.95.27,4.1-.12S147.42,317,147.39,316.54Z"/><path class="cls-3" d="M149.68,316.49c.15.45,3.19-.14,6.91-.86s6.76-1.32,6.73-1.79-3.22-.63-7,.12S149.54,316.05,149.68,316.49Z"/><path class="cls-3" d="M145.31,324.47c-1.51.56-2.6,1.37-2.43,1.81s1.52.35,3-.21,2.59-1.37,2.43-1.81S146.82,323.91,145.31,324.47Z"/><path class="cls-3" d="M156,321.52c-.18-.43-1.4-.34-2.73.21s-2.27,1.36-2.09,1.79,1.41.34,2.74-.21S156.21,322,156,321.52Z"/><path class="cls-3" d="M159.63,321c.06.46,2.33.54,5-.27s4.44-2.16,4.23-2.57-2.26.18-4.74.94S159.57,320.51,159.63,321Z"/><path class="cls-3" d="M150.07,334.16c.25.4,3.53-1.23,7.31-3.64s6.66-4.69,6.41-5.08-3.53,1.23-7.32,3.64S149.81,333.77,150.07,334.16Z"/><path class="cls-3" d="M155.84,340.57c.35.32,2-.95,4-2.54s3.61-3,3.37-3.39-2.33.36-4.44,2.05S155.49,340.26,155.84,340.57Z"/><path class="cls-3" d="M140.88,299c-.13.45,1.76,1.36,4.26,1.8s4.58.22,4.62-.25-1.91-1-4.33-1.43S141,298.56,140.88,299Z"/><path class="cls-3" d="M154,301c-.11.46,1.92,1.3,4.56,1.68s4.82.13,4.84-.34-2-1-4.6-1.35S154.08,300.52,154,301Z"/><path class="cls-3" d="M146,290.93c-.18.42,3.34,2.24,8,3.59s8.61,1.71,8.69,1.26-3.64-1.56-8.21-2.9S146.12,290.48,146,290.93Z"/><path class="cls-3" d="M158.85,287.87c4.13,2.15,7.72,3.36,7.92,2.94s-3.05-2.32-7.13-4.46-7.48-3.71-7.72-3.3S154.72,285.71,158.85,287.87Z"/></g><path class="cls-2" d="M274.3,373.05a8.24,8.24,0,0,1-1.87-.2,12,12,0,0,1-5.72-3.59c-.37-.35-.72-.69-1-.94l-.18-.13a6.66,6.66,0,0,0-1-.06H262.8a11,11,0,0,1-5.59-1.25,12.06,12.06,0,0,1-4.36-5.09c-.23-.42-.47-.85-.7-1.2l-.06-.09-.07-.09a14.32,14.32,0,0,0-1.57-.5,10.12,10.12,0,0,1-8.71-9.14c-.11-.52-.21-1-.33-1.36a1.57,1.57,0,0,0-.07-.18l-.17-.14c-.34-.25-.78-.52-1.17-.75a12.19,12.19,0,0,1-4.92-4.56,9.44,9.44,0,0,1-1-3.56,21.62,21.62,0,0,1,0-3,12.68,12.68,0,0,0,0-1.57l-.1-.14c-.21-.27-.57-.65-.94-1a12.07,12.07,0,0,1-3.54-5.71,7.38,7.38,0,0,1-.17-1.11,13.43,13.43,0,0,1,.94-5.46c.16-.47.32-.94.41-1.34,0-.1,0-.17,0-.22l-.1-.23c-.15-.34-.38-.78-.63-1.23a13.21,13.21,0,0,1-1.9-5.26,9.37,9.37,0,0,1,0-1,12.13,12.13,0,0,1,2.48-6.26c.28-.43.58-.88.76-1.21a.16.16,0,0,1,0-.08v-.24c-.06-.38-.18-.86-.3-1.37a21,21,0,0,1-.55-3,9.09,9.09,0,0,1,.36-3.64,12.22,12.22,0,0,1,4-5.35c.38-.33.75-.65,1-.94l.15-.18s0-.22,0-.22c0-.38.07-.93.09-1.37a10.08,10.08,0,0,1,6.81-10.46h0a3.82,3.82,0,0,0,2.3-2.63l.08-.34a11.14,11.14,0,0,1,3.19-5.15,12.13,12.13,0,0,1,6.29-2.39c.44-.07.94-.15,1.33-.25l1-1h0c.09-.11.17-.23.26-.35a12,12,0,0,1,5-4.54,9.26,9.26,0,0,1,3.64-.69,20.28,20.28,0,0,1,3.06.29,12.15,12.15,0,0,0,1.62.18h.19a15.13,15.13,0,0,0,2-.8h0a35.46,35.46,0,0,1,14.4-1.45l2.08.22c.23,0,.45.1.67.15.6.12,1.21.26,1.8.41.39.1.76.2,1.12.31.62.18,1.2.37,1.78.57l.16,0,.85.31c.6.22,1.19.47,1.77.73l.18.07.64.29c.64.3,1.26.62,1.87.94l.45.24.77.43.05,0,.95.58.08,0,1.06.71.38.27c.59.41,1.15.82,1.7,1.24l.42.31h0a49.19,49.19,0,0,1,5,4.5h.08l1.58,1.76.86,1h0l.58.67c2.32,2.76,4.48,5.28,6.39,7.51,10.11,11.78,16.21,18.9,17.05,28.4,1,11.48-12.57,34-16.75,40.6a50.45,50.45,0,0,1-7.36,9.14,44.21,44.21,0,0,1-5.1,4.29l-.15.11c-.35.24-.73.51-1.11.76l-3.66-5.25,3.56,5.31-1.15.74-.19.11c-.35.22-.73.44-1.1.65l-.13.08-1.21.65-.47.24q-1,.49-1.95.93l-1,1h-1.47a38.92,38.92,0,0,1-9.7,2.22l-.28,0-1,0-.65,0-.24,0-.18,0a22,22,0,0,1-3.49-.67l-.7-.17a11,11,0,0,0-1.34-.25h-.15a11.38,11.38,0,0,0-1.6.47A14.8,14.8,0,0,1,274.3,373.05Z"/><path class="cls-3" d="M269,367.72a8.85,8.85,0,0,1-1.87-.2,12.17,12.17,0,0,1-5.73-3.59,13.6,13.6,0,0,0-1-.94l-.18-.14a7.07,7.07,0,0,0-1-.05h-.65l-1,0a10.88,10.88,0,0,1-5.59-1.26,12,12,0,0,1-4.37-5.09c-.22-.41-.46-.85-.69-1.19l-.06-.09-.07-.09a12.5,12.5,0,0,0-1.57-.51,12.12,12.12,0,0,1-6-3.06,12,12,0,0,1-2.74-6.07c-.11-.52-.22-1-.34-1.36l-.06-.18-.17-.15c-.35-.24-.78-.51-1.17-.74a12.16,12.16,0,0,1-4.92-4.57,9.21,9.21,0,0,1-1-3.56,18.83,18.83,0,0,1,0-3,12.39,12.39,0,0,0,0-1.57.85.85,0,0,0-.09-.14c-.22-.28-.57-.65-1-1a12.15,12.15,0,0,1-3.54-5.71,9.54,9.54,0,0,1-.17-1.11,13.39,13.39,0,0,1,.95-5.46c.16-.48.31-1,.41-1.34,0-.1,0-.17,0-.22s-.09-.23-.09-.23c-.15-.34-.39-.78-.63-1.23a13.27,13.27,0,0,1-1.9-5.26,7.59,7.59,0,0,1,0-1.06,12,12,0,0,1,2.47-6.25A14,14,0,0,0,226,300l0-.07v-.25c0-.37-.17-.85-.29-1.36a18.5,18.5,0,0,1-.55-3,9.09,9.09,0,0,1,.36-3.64,12.1,12.1,0,0,1,4-5.35c.38-.33.74-.66,1-.95a1.22,1.22,0,0,0,.15-.17s0-.22,0-.22c.05-.39.07-.93.09-1.37a10,10,0,0,1,6.81-10.46h0a3.83,3.83,0,0,0,2.29-2.63l.09-.35a11.24,11.24,0,0,1,3.19-5.15,12.22,12.22,0,0,1,6.28-2.39c.45-.07,1-.15,1.34-.25l1-1h0l.25-.35a12,12,0,0,1,5-4.54,9.09,9.09,0,0,1,3.64-.69,20.41,20.41,0,0,1,3.06.29,14.07,14.07,0,0,0,1.62.18l.19,0a15.49,15.49,0,0,0,2-.79h0a35.46,35.46,0,0,1,14.4-1.45l2.07.22a6.78,6.78,0,0,1,.68.15c.6.12,1.2.26,1.8.41l1.12.3c.62.18,1.2.37,1.78.57l.15.06.86.3c.6.23,1.19.48,1.77.73l.18.08.63.28c.65.31,1.26.62,1.87,1l.45.23.78.44,0,0,1,.58.07,0,1.06.71.38.27c.59.41,1.16.82,1.71,1.24l.41.31h0a47.9,47.9,0,0,1,5,4.49l.07,0,1.58,1.76.87,1h0l.58.67c2.31,2.76,4.48,5.28,6.39,7.51,10.1,11.78,16.21,18.89,17.05,28.39,1,11.49-12.57,34-16.76,40.61a50,50,0,0,1-7.35,9.14,44,44,0,0,1-5.1,4.28l-.16.11-1.11.77-.09.06-1.15.73-.19.12c-.35.22-.73.44-1.1.65l-.14.07q-.6.35-1.2.66l-.47.24c-.65.32-1.3.63-2,.92l-1,1h-1.46a39.11,39.11,0,0,1-9.7,2.22l-.29,0h-1c-.21,0-.43,0-.65,0h-.24l-.18,0a23.16,23.16,0,0,1-3.49-.67l-.7-.18a10.79,10.79,0,0,0-1.35-.25l-.14,0a11.86,11.86,0,0,0-1.61.47A14.68,14.68,0,0,1,269,367.72Z"/><path class="cls-4" d="M267.16,262.53a11,11,0,0,1-4.2-.07,4.14,4.14,0,0,0-5.55,2.35,10.68,10.68,0,0,1-2.84,3,10.79,10.79,0,0,1-4,1.19,7,7,0,0,0-3.16,1,6.84,6.84,0,0,0-1.45,2.91,10.54,10.54,0,0,1-1.84,3.74,10.19,10.19,0,0,1-3.5,2.28,7,7,0,0,0-2.75,1.82,6.86,6.86,0,0,0-.57,3.18,10.44,10.44,0,0,1-.72,4.13,10.18,10.18,0,0,1-2.74,3.14,6.93,6.93,0,0,0-2.15,2.5,2.85,2.85,0,0,0-.09,1.14,14.73,14.73,0,0,0,.4,2.05,15.89,15.89,0,0,1,.47,2.51,6.16,6.16,0,0,1-.05,1.68,10.29,10.29,0,0,1-1.8,3.74,6.92,6.92,0,0,0-1.42,3,1.93,1.93,0,0,0,0,.24h0a8.14,8.14,0,0,0,1.13,2.73,7.81,7.81,0,0,1,.72,8.14,8.31,8.31,0,0,0-.63,2.89,1.87,1.87,0,0,0,0,.25,6.81,6.81,0,0,0,1.92,2.68,10,10,0,0,1,2.43,3.36,6.4,6.4,0,0,1,.36,1.67,19.22,19.22,0,0,1,0,2.52,14.78,14.78,0,0,0,0,2.08,3.09,3.09,0,0,0,.29,1.13,6.82,6.82,0,0,0,2.56,2.07,7.79,7.79,0,0,1,4.69,6.55,4.13,4.13,0,0,0,4.15,4.33,7.88,7.88,0,0,1,6.32,5,6.93,6.93,0,0,0,2,2.61,7.07,7.07,0,0,0,3.27.39,10.73,10.73,0,0,1,4.15.46,10.54,10.54,0,0,1,3.33,2.46,6.82,6.82,0,0,0,2.67,1.94,7,7,0,0,0,3.21-.61,10.88,10.88,0,0,1,4.12-.81,18.18,18.18,0,0,1,3.28.61,11.34,11.34,0,0,0,3.68.53c5.1-.45,18-3.12,27.4-18,6.2-9.81,16.5-28.56,15.8-36.62-.67-7.46-5.95-13.62-15.54-24.8-1.92-2.24-4.1-4.78-6.44-7.56-5.54-6.59-14.69-15.19-30.2-13.81a11.13,11.13,0,0,0-3.52,1.17A18.88,18.88,0,0,1,267.16,262.53Z"/><path class="cls-5" d="M256.54,309.69a8.87,8.87,0,0,1-1-1.91.81.81,0,0,1,0-.32,1.2,1.2,0,0,1,.09-.35,5.18,5.18,0,0,1,.52-.86c.43-.6,1-1.21,1.41-1.94a5.36,5.36,0,0,0,.59-1.2,3.93,3.93,0,0,0,.22-1.39,10.18,10.18,0,0,0-.42-2.45c-.1-.36-.18-.72-.24-1a2.31,2.31,0,0,1,0-.83,1.59,1.59,0,0,1,.43-.63,8.84,8.84,0,0,1,.78-.68c.58-.45,1.21-.9,1.81-1.46a7,7,0,0,0,.84-.94,4.69,4.69,0,0,0,.6-1.18,8.56,8.56,0,0,0,.37-2.37,6.42,6.42,0,0,1,.27-1.92,1.16,1.16,0,0,1,.44-.54,5.71,5.71,0,0,1,.82-.47c.61-.29,1.28-.55,2-.86a8.1,8.1,0,0,0,2-1.22,5.78,5.78,0,0,0,1.36-1.92c.32-.67.55-1.34.8-1.93A2.51,2.51,0,0,1,271,280a5.74,5.74,0,0,1,1.72-.47c.64-.11,1.31-.2,2-.34a7.61,7.61,0,0,0,2-.67,6.52,6.52,0,0,0,1.68-1.31c.47-.49.87-1,1.27-1.47a5.47,5.47,0,0,1,1.19-1.14,2.6,2.6,0,0,1,1.45-.24c.56,0,1.15.1,1.75.16a16,16,0,0,0,1.84.11,7.15,7.15,0,0,0,1.86-.28c1.17-.33,2.2-.82,3.2-1.2a8.73,8.73,0,0,1,1.47-.44,14.35,14.35,0,0,1,1.52-.13,31.82,31.82,0,0,1,5.89.11c.92.13,1.83.23,2.68.44.32.06.62.14.93.21l-1-1.15c-.8-.19-1.63-.3-2.48-.44a31.77,31.77,0,0,0-6.07-.22,13.94,13.94,0,0,0-1.65.12,9.05,9.05,0,0,0-1.66.47c-1.07.38-2.07.84-3.12,1.12a7.89,7.89,0,0,1-3.26.09c-.59-.07-1.19-.16-1.84-.19a5.88,5.88,0,0,0-1,0,3,3,0,0,0-1.1.36,6.69,6.69,0,0,0-1.53,1.39c-.42.49-.81,1-1.22,1.4a5.18,5.18,0,0,1-1.36,1.05,6.69,6.69,0,0,1-1.69.54c-.61.12-1.26.2-1.93.31a6.84,6.84,0,0,0-2.16.6,2.84,2.84,0,0,0-1,.89,6,6,0,0,0-.56,1c-.3.67-.51,1.31-.8,1.89a4.43,4.43,0,0,1-1,1.47,6.75,6.75,0,0,1-1.64,1c-.62.28-1.29.53-2,.86a7.15,7.15,0,0,0-1.05.6,3.79,3.79,0,0,0-.52.48,2.44,2.44,0,0,0-.39.65,7.48,7.48,0,0,0-.39,2.39,7.22,7.22,0,0,1-.31,2c-.35,1.14-1.56,1.95-2.78,2.89a9.61,9.61,0,0,0-.93.81,3.08,3.08,0,0,0-.8,1.26,3.56,3.56,0,0,0,0,1.45c.07.42.16.81.26,1.19a9.2,9.2,0,0,1,.37,2.1,2.6,2.6,0,0,1-.14.89,3.87,3.87,0,0,1-.44.89c-.38.6-.88,1.19-1.37,1.86a6.34,6.34,0,0,0-.68,1.16,2.61,2.61,0,0,0-.21.79,2.26,2.26,0,0,0,.1.85,10,10,0,0,0,1.19,2.29,5.6,5.6,0,0,1,.84,1.92,4.1,4.1,0,0,1-.3,2c-.24.7-.6,1.43-.82,2.31a3.84,3.84,0,0,0-.12.73,2.2,2.2,0,0,0,.13.86,3.69,3.69,0,0,0,.8,1.23c.6.64,1.21,1.12,1.73,1.64a4.21,4.21,0,0,1,1.12,1.61,5.72,5.72,0,0,1,.13,2,10.14,10.14,0,0,0,0,2.47,2.29,2.29,0,0,0,.26.76,2.46,2.46,0,0,0,.5.62,5.31,5.31,0,0,0,1.06.75c.7.4,1.38.71,2,1.06a4.7,4.7,0,0,1,1.49,1.21,5.15,5.15,0,0,1,.76,1.78,15.41,15.41,0,0,0,.63,2.21,2.76,2.76,0,0,0,.85,1.15,4,4,0,0,0,1.17.59c.75.25,1.47.38,2.14.54a9.65,9.65,0,0,1,1.88.59,3.82,3.82,0,0,1,1.39,1.11,15.12,15.12,0,0,1,1.11,1.64,5.57,5.57,0,0,0,1.52,1.75,3,3,0,0,0,1.21.43,8.51,8.51,0,0,0,1.1.08c.7,0,1.36,0,2-.05a8.82,8.82,0,0,1,1.81.13,4.6,4.6,0,0,1,1.56.64c1,.61,1.83,1.56,3.05,2.27a3.18,3.18,0,0,0,1.06.38,3.65,3.65,0,0,0,1.1,0,13.2,13.2,0,0,0,1.83-.47,10.42,10.42,0,0,1,3.24-.65,19.28,19.28,0,0,1,3.23.49,15.44,15.44,0,0,0,1.68.24,8.48,8.48,0,0,0,1.69-.08,32.38,32.38,0,0,0,9.71-2.81c.13-.2.27-.4.4-.61s.31-.49.47-.74h0a32.43,32.43,0,0,1-10.67,3.1c-2,.36-4-.63-6.45-.75a11.12,11.12,0,0,0-3.62.66,11.81,11.81,0,0,1-1.66.41,1.93,1.93,0,0,1-1.38-.24c-.93-.53-1.8-1.52-3-2.27a6.08,6.08,0,0,0-2-.83,10.55,10.55,0,0,0-2.08-.17c-.68,0-1.34,0-2,0a3.06,3.06,0,0,1-1.58-.31,4.42,4.42,0,0,1-1.11-1.34,14.73,14.73,0,0,0-1.2-1.79,5.3,5.3,0,0,0-1.85-1.49,11,11,0,0,0-2.15-.7c-.71-.17-1.4-.31-2-.52a2.56,2.56,0,0,1-.76-.37,1.37,1.37,0,0,1-.41-.6c-.48-1.11-.49-2.8-1.53-4.27a6.06,6.06,0,0,0-1.93-1.61c-.69-.4-1.38-.72-2-1.07a4.22,4.22,0,0,1-.79-.56.83.83,0,0,1-.32-.58,8.83,8.83,0,0,1,0-2.1,7,7,0,0,0-.19-2.57,5.61,5.61,0,0,0-1.49-2.21c-.58-.58-1.2-1.08-1.68-1.59a2.44,2.44,0,0,1-.49-.73,1.26,1.26,0,0,1,0-.74c.16-.66.51-1.37.79-2.17a5.55,5.55,0,0,0,.36-2.71A7.14,7.14,0,0,0,256.54,309.69Z"/><path class="cls-6" d="M296.89,267q-1-.79-2.1-1.53a38,38,0,0,0-10.58-.88,13.51,13.51,0,0,0-1.93.17,11.22,11.22,0,0,0-1.91.61,23.52,23.52,0,0,1-3.56,1.35,10.46,10.46,0,0,1-3.79-.14,10.11,10.11,0,0,0-2.25-.14,2.91,2.91,0,0,0-1.29.41,4.32,4.32,0,0,0-1,.8c-1.07,1.16-1.76,2.42-2.77,3.29a6.78,6.78,0,0,1-3.78,1.38,15.21,15.21,0,0,0-2.38.48,3.5,3.5,0,0,0-1.29.7,4,4,0,0,0-.85,1.18,20.37,20.37,0,0,0-.9,2.29,8.56,8.56,0,0,1-.94,2c-.76,1.12-2.18,1.72-3.71,2.42a10.23,10.23,0,0,0-1.17.62,4.18,4.18,0,0,0-1.17,1,3.52,3.52,0,0,0-.63,1.49,9.71,9.71,0,0,0-.15,1.37c-.08,1.73-.09,3.32-1,4.44a11.33,11.33,0,0,1-1.7,1.69,11.34,11.34,0,0,0-2,2,3.57,3.57,0,0,0-.41.78,3.08,3.08,0,0,0-.15.9,6.9,6.9,0,0,0,.15,1.49c.18.94.43,1.76.55,2.58a7,7,0,0,1,.09,1.18,3.32,3.32,0,0,1-.2,1.07,9.32,9.32,0,0,1-1.2,2.15,10.29,10.29,0,0,0-1.47,2.58,3,3,0,0,0-.15.93,3.48,3.48,0,0,0,.14.91,9.78,9.78,0,0,0,.61,1.42c.92,1.68,1.88,3.11,1.62,4.65a12.45,12.45,0,0,1-.7,2.5c-.15.44-.31.9-.43,1.4a4.28,4.28,0,0,0-.12,1.72,3.83,3.83,0,0,0,.77,1.58,10.75,10.75,0,0,0,1,1.1,17.57,17.57,0,0,1,1.74,1.92,4,4,0,0,1,.77,2.09,17.12,17.12,0,0,1-.05,2.56,11.57,11.57,0,0,0,0,1.44,3.51,3.51,0,0,0,.46,1.65,4.23,4.23,0,0,0,1.15,1.16c.4.29.8.53,1.19.76a16.51,16.51,0,0,1,2.1,1.33,4,4,0,0,1,1.33,1.71,12.52,12.52,0,0,1,.66,2.31,7.74,7.74,0,0,0,1,2.68,2.8,2.8,0,0,0,.61.63,4,4,0,0,0,.67.41,7.47,7.47,0,0,0,1.31.48c.84.24,1.64.42,2.37.66a5.36,5.36,0,0,1,1.89,1,7.09,7.09,0,0,1,1.35,1.71c.4.66.76,1.38,1.25,2.1a4.74,4.74,0,0,0,.93,1.05,2.5,2.5,0,0,0,.68.42,3.59,3.59,0,0,0,.71.22,11.51,11.51,0,0,0,2.51.12,16,16,0,0,1,2.2,0,4.66,4.66,0,0,1,1.87.58,9.38,9.38,0,0,1,1.64,1.25c.54.49,1.07,1,1.7,1.5a4.84,4.84,0,0,0,1.09.65,3,3,0,0,0,1.37.22,9.65,9.65,0,0,0,2.25-.53c.67-.22,1.31-.45,1.94-.6a5.89,5.89,0,0,1,1.83-.21,13.68,13.68,0,0,1,1.89.28,18.7,18.7,0,0,0,4,.68,3.09,3.09,0,0,0,.53,0l.48-.05,1-.11c.63-.08,1.24-.17,1.85-.28a49.11,49.11,0,0,0,7.49-1.86c.66-.56,1.32-1.16,2-1.79a49.07,49.07,0,0,1-9.65,2.46c-.59.09-1.19.18-1.81.24l-.92.1-.46,0a3,3,0,0,1-.42,0,18.67,18.67,0,0,1-3.7-.7,13.81,13.81,0,0,0-2.09-.34,7.24,7.24,0,0,0-2.24.22c-.71.17-1.39.4-2.05.61a8.07,8.07,0,0,1-1.9.44,1.5,1.5,0,0,1-.74-.12,3.41,3.41,0,0,1-.76-.48c-.52-.4-1-.92-1.59-1.43a10.63,10.63,0,0,0-1.9-1.47,6,6,0,0,0-2.43-.78,17.83,17.83,0,0,0-2.41-.06,10.59,10.59,0,0,1-2.15-.1,1.5,1.5,0,0,1-.73-.33,3.43,3.43,0,0,1-.63-.74c-.4-.59-.75-1.31-1.18-2a8.48,8.48,0,0,0-1.66-2.1,7,7,0,0,0-2.43-1.29c-.83-.28-1.66-.46-2.42-.69a3.22,3.22,0,0,1-1.71-.9,6.63,6.63,0,0,1-.69-2.1,15.17,15.17,0,0,0-.75-2.62,5.91,5.91,0,0,0-.75-1.3,6.57,6.57,0,0,0-1.06-1.05,20.16,20.16,0,0,0-2.3-1.48,5.55,5.55,0,0,1-1.75-1.35,1.9,1.9,0,0,1-.21-.89,10.25,10.25,0,0,1,0-1.24,19.7,19.7,0,0,0,.05-2.8,6.37,6.37,0,0,0-.33-1.52,5.79,5.79,0,0,0-.75-1.39,18.3,18.3,0,0,0-1.91-2.13,4.41,4.41,0,0,1-1.28-1.8,2.57,2.57,0,0,1,.1-1c.1-.39.24-.81.38-1.24a13.62,13.62,0,0,0,.78-2.85,5.32,5.32,0,0,0,0-1.64,6.63,6.63,0,0,0-.46-1.51c-.39-.93-.91-1.74-1.31-2.51a6.35,6.35,0,0,1-.48-1.1,1.19,1.19,0,0,1,0-.85,9.76,9.76,0,0,1,1.25-2.13,11,11,0,0,0,1.4-2.56,5.26,5.26,0,0,0,.29-1.58,7.92,7.92,0,0,0-.12-1.48c-.14-.94-.41-1.83-.56-2.63a5.32,5.32,0,0,1-.13-1.14,1.28,1.28,0,0,1,.06-.39,2,2,0,0,1,.2-.38,11,11,0,0,1,1.72-1.67,12.1,12.1,0,0,0,2-2,5.85,5.85,0,0,0,.73-1.32,6.71,6.71,0,0,0,.36-1.4,22.76,22.76,0,0,0,.19-2.62,3.94,3.94,0,0,1,.44-2,5,5,0,0,1,1.75-1.14c.72-.35,1.5-.68,2.26-1.14a6.13,6.13,0,0,0,2-1.83c1.05-1.53,1.31-3.23,1.93-4.47a2.57,2.57,0,0,1,.5-.73,2.19,2.19,0,0,1,.75-.4,15.37,15.37,0,0,1,2.13-.44,14.73,14.73,0,0,0,2.34-.52,6,6,0,0,0,2.18-1.25,40.94,40.94,0,0,0,2.83-3.41,2.83,2.83,0,0,1,.66-.57,1.56,1.56,0,0,1,.71-.22,9.13,9.13,0,0,1,1.92.1,11.42,11.42,0,0,0,4.29.07,25.22,25.22,0,0,0,3.73-1.46,9.8,9.8,0,0,1,1.68-.57,11.8,11.8,0,0,1,1.75-.17A37.68,37.68,0,0,1,296.89,267Z"/><g class="cls-7"><path class="cls-8" d="M250.66,350.05a7.74,7.74,0,0,1,1.73,2.05c21.69-13.35,58.88-36.38,69.94-43.64l-1.66.77c-13.4,7.13-50,27.53-71.84,39.81A7,7,0,0,1,250.66,350.05Z"/><path class="cls-8" d="M321.08,306.7c-14.88.66-62.36,3.85-89.87,5.77a7,7,0,0,1,.64,2.25,7.31,7.31,0,0,1-.23,2.33c27.41-3,74.7-8.22,89.46-10.21l.68-.13Z"/><path class="cls-8" d="M321.61,307.36l-.43.06c-14.52,2.83-60.53,12.88-87.42,18.82a6.58,6.58,0,0,1,1.06,1.83,6.4,6.4,0,0,1,.36,1.67,9.81,9.81,0,0,1,0,1.08c25.8-6.82,69.57-18.51,84.89-22.93Z"/><path class="cls-8" d="M262.5,356.87a8,8,0,0,1,2.35,1.54c18.58-15.39,49.52-41.29,57.88-48.74-9.24,6.57-42,31.56-62,46.79A6.82,6.82,0,0,1,262.5,356.87Z"/><path class="cls-8" d="M323.66,310.84l-49.12,49.07a6.14,6.14,0,0,1,1.29-.06,18.18,18.18,0,0,1,3.28.61,11.44,11.44,0,0,0,3.65.53C293.31,348.24,316.84,319.69,323.66,310.84Z"/><path class="cls-8" d="M241.22,340.15a8,8,0,0,1,1.14,2.63c23.72-10.21,63.89-27.61,78.06-34.08l1.19-.63-1.34.38c-14.82,5.24-56.18,20.78-80.76,30.08A7.12,7.12,0,0,1,241.22,340.15Z"/><path class="cls-8" d="M324.59,312.13c-4.9,6.39-23.84,33.78-32.65,46.6a36,36,0,0,0,8.55-4.91C309.25,339,321.5,318.07,324.59,312.13Z"/><path class="cls-8" d="M236.58,288a7.44,7.44,0,0,1-1.39,1.9c25.83,4.81,69.29,12.8,84.8,15.33l1.38.15-1.28-.41c-15.09-3.87-57.7-13.9-82.86-19.76A7.9,7.9,0,0,1,236.58,288Z"/><path class="cls-8" d="M270.29,261.35a18.88,18.88,0,0,1-3.13,1.18,6.15,6.15,0,0,1-1.27.17l57.22,39.65c-8.32-7.51-36.63-31.48-49.33-42.17A11.31,11.31,0,0,0,270.29,261.35Z"/><path class="cls-8" d="M283,260.56c10.85,11,34.6,34.87,40.58,40.32-4.1-5.32-20-23.93-31.24-37A30.48,30.48,0,0,0,283,260.56Z"/><path class="cls-8" d="M254.57,267.82a6.81,6.81,0,0,1-1.64.7c22.32,11.48,59.13,30.18,69.38,35-9.55-5.86-44.69-25.78-65.7-37.64A8.15,8.15,0,0,1,254.57,267.82Z"/><path class="cls-8" d="M232.47,299.37a6.16,6.16,0,0,1-.05,1.68,6.87,6.87,0,0,1-.72,2c27.46,1.1,74.39,2.86,89.28,3.08l.49,0-1.56-.25c-15.85-1.64-61-5.41-87.6-7.57A10,10,0,0,1,232.47,299.37Z"/><path class="cls-8" d="M245.46,274.3a7.68,7.68,0,0,1-1.34,2.32,7.15,7.15,0,0,1-1.63,1.32c23.72,8.22,63.31,21.84,77.76,26.49l1.76.46C309.85,299.7,269.17,283.61,245.46,274.3Z"/></g><g class="cls-9"><path class="cls-3" d="M261.64,307.44c0,.47,2.93,1.05,6.61,1s6.63-.73,6.58-1.19-3-.56-6.61-.51S261.67,307,261.64,307.44Z"/><path class="cls-3" d="M269.79,315.83c0-.46-1.91-.75-4.17-.33s-3.93,1.36-3.78,1.8,1.94.27,4.09-.12S269.82,316.31,269.79,315.83Z"/><path class="cls-3" d="M272.09,315.78c.14.46,3.19-.14,6.9-.85s6.76-1.32,6.73-1.8-3.22-.63-7.05.12S271.94,315.34,272.09,315.78Z"/><path class="cls-3" d="M267.71,323.76c-1.5.56-2.59,1.37-2.43,1.82s1.52.34,3-.22,2.59-1.37,2.43-1.81S269.22,323.2,267.71,323.76Z"/><path class="cls-3" d="M278.44,320.82c-.18-.44-1.41-.34-2.74.21s-2.27,1.35-2.08,1.78,1.4.34,2.73-.21S278.62,321.25,278.44,320.82Z"/><path class="cls-3" d="M282,320.28c0,.45,2.32.54,4.94-.28s4.45-2.15,4.23-2.57-2.26.18-4.74.94S282,319.8,282,320.28Z"/><path class="cls-3" d="M272.47,333.46c.25.4,3.53-1.24,7.32-3.65s6.65-4.68,6.4-5.08-3.53,1.23-7.32,3.64S272.22,333.06,272.47,333.46Z"/><path class="cls-3" d="M278.24,339.86c.35.33,2-.95,4-2.54s3.61-3,3.37-3.38-2.33.36-4.44,2.05S277.9,339.55,278.24,339.86Z"/><path class="cls-3" d="M263.28,298.31c-.12.45,1.76,1.37,4.26,1.8s4.59.22,4.62-.24-1.91-1-4.32-1.44S263.41,297.86,263.28,298.31Z"/><path class="cls-3" d="M276.38,300.28c-.11.45,1.92,1.3,4.56,1.67s4.82.13,4.85-.33-2.05-1-4.61-1.36S276.48,299.81,276.38,300.28Z"/><path class="cls-3" d="M268.35,290.22c-.17.43,3.34,2.24,8,3.59s8.6,1.72,8.68,1.26-3.64-1.56-8.21-2.89S268.53,289.77,268.35,290.22Z"/><path class="cls-3" d="M281.25,287.16c4.13,2.16,7.73,3.36,7.92,2.94s-3.05-2.32-7.13-4.45-7.48-3.72-7.72-3.31S277.12,285,281.25,287.16Z"/></g><path class="cls-2" d="M214.64,257.81a9,9,0,0,1-1.88-.2A12.18,12.18,0,0,1,207,254a13,13,0,0,0-1-.93l-.19-.15a8.63,8.63,0,0,0-1-.05h-1.67a11,11,0,0,1-5.59-1.25,12,12,0,0,1-4.36-5.1c-.23-.41-.47-.84-.69-1.18l-.06-.09-.08-.11-.07,0a13.85,13.85,0,0,0-1.49-.47,12.19,12.19,0,0,1-6-3.06,11.94,11.94,0,0,1-2.73-6.07c-.12-.51-.22-1-.34-1.37l-.05-.15,0,0-.17-.15c-.34-.24-.76-.5-1.17-.74a12.11,12.11,0,0,1-4.91-4.56,9.17,9.17,0,0,1-1-3.56,21.65,21.65,0,0,1,0-3,12.64,12.64,0,0,0,0-1.57l-.09-.14c-.23-.28-.6-.67-.95-1a12.1,12.1,0,0,1-3.54-5.71,9,9,0,0,1-.17-1,13.39,13.39,0,0,1,.94-5.53c.14-.43.31-1,.41-1.35l0-.23s-.1-.24-.1-.24c-.15-.33-.38-.77-.63-1.22a13.21,13.21,0,0,1-1.9-5.26,8.3,8.3,0,0,1,0-1.13,12.09,12.09,0,0,1,2.48-6.18c.27-.41.57-.87.76-1.21,0,0,0-.08,0-.12v-.18c-.05-.38-.18-.89-.3-1.39a20.39,20.39,0,0,1-.55-3,9.06,9.06,0,0,1,.36-3.65,12.13,12.13,0,0,1,4-5.37c.41-.36.74-.66,1-.93l.15-.18c0-.05,0-.09,0-.13.06-.46.08-.94.1-1.45a12.05,12.05,0,0,1,1.62-6.47,12.23,12.23,0,0,1,5.33-4.07,11,11,0,0,0,1.42-.75l.05,0,.06-.13a13.83,13.83,0,0,0,.5-1.37,10.13,10.13,0,0,1,9.67-8.16c.46-.07,1-.16,1.35-.26l.2-.19.3-.1c.28-.34.54-.69.81-1.07a12,12,0,0,1,5-4.54,9.19,9.19,0,0,1,3.64-.69,20.41,20.41,0,0,1,3.06.29,12.57,12.57,0,0,0,1.61.18h.19a15.3,15.3,0,0,0,1.93-.78c.55-.25,1.1-.49,1.66-.72l5.36-1.06a13.43,13.43,0,0,1,4.29-.15l5.21.68.69.15c.58.12,1.19.26,1.78.41l1.14.31c.6.18,1.19.37,1.78.57l.12,0c.29.09.58.19.86.3.61.23,1.2.48,1.78.74l.18.08.63.27c.65.31,1.26.62,1.87.95l.45.24.78.43,0,0,1.09.67.07,0,.94.63.37.27c.6.41,1.16.82,1.69,1.23a4.62,4.62,0,0,1,.4.29h0a48.54,48.54,0,0,1,4.34,3.87h.09l1.91,2.08,1.14,1.3,9.08,10.57H263c8.9,10.41,14.25,17.19,15,26,1,11.49-12.58,34-16.76,40.61a50,50,0,0,1-7.36,9.14,43.89,43.89,0,0,1-5.1,4.29l-.11.07c-.38.28-.76.54-1.14.79l-.19.13-1.09.69-.15.09-1.13.67-.41.23-.07.07-.88.44c-.78.41-1.58.79-2.39,1.15l-1,1H238.8a38.64,38.64,0,0,1-9.77,2.23l-.29,0-1,0-.69,0h-.22l-.17,0a22.93,22.93,0,0,1-3.48-.67c-.43-.1-.86-.22-1.31-.31a7,7,0,0,0-.74-.11h0a10.05,10.05,0,0,0-1.71.48A14.86,14.86,0,0,1,214.64,257.81Z"/><path class="cls-3" d="M209.31,252.48a8.33,8.33,0,0,1-1.88-.21,12,12,0,0,1-5.72-3.59c-.37-.36-.71-.68-1-.92l-.19-.15a7,7,0,0,0-1-.05h-.65l-1,0a10.88,10.88,0,0,1-5.59-1.26,12,12,0,0,1-4.37-5.09c-.22-.41-.46-.84-.69-1.18l0-.09-.09-.11-.07,0a15.57,15.57,0,0,0-1.49-.47,10.12,10.12,0,0,1-8.71-9.12c-.11-.52-.22-1-.33-1.37l-.06-.15a.08.08,0,0,0,0,0l-.18-.15c-.33-.24-.76-.5-1.16-.74a12.16,12.16,0,0,1-4.92-4.57,9.24,9.24,0,0,1-1-3.56,18.84,18.84,0,0,1,0-3,12.37,12.37,0,0,0,0-1.57.8.8,0,0,0-.09-.14c-.22-.28-.59-.67-1-1a12.21,12.21,0,0,1-3.54-5.72,8.77,8.77,0,0,1-.16-1,13.18,13.18,0,0,1,.93-5.52c.15-.43.32-.95.42-1.35,0,0,0-.19,0-.23s-.1-.24-.1-.24c-.14-.34-.38-.77-.62-1.22a13.27,13.27,0,0,1-1.9-5.26,8.45,8.45,0,0,1,0-1.14,12.16,12.16,0,0,1,2.48-6.18c.26-.4.57-.86.75-1.21a1.17,1.17,0,0,0,.05-.11v-.18c-.06-.38-.18-.89-.3-1.39a20.65,20.65,0,0,1-.55-3,9.13,9.13,0,0,1,.36-3.66,12.15,12.15,0,0,1,4-5.36c.41-.37.74-.66,1-.94.05-.05.09-.11.14-.17l0-.13c.06-.46.08-.95.1-1.45a12,12,0,0,1,1.62-6.48,12.2,12.2,0,0,1,5.33-4.06,12.34,12.34,0,0,0,1.42-.75l0,0a.76.76,0,0,0,.07-.13c.19-.44.34-.9.5-1.37a12,12,0,0,1,3.4-5.78,12.14,12.14,0,0,1,6.26-2.38c.47-.08,1-.16,1.36-.26l.2-.2.3-.1c.28-.33.54-.69.8-1.06a12.1,12.1,0,0,1,5-4.54,9.09,9.09,0,0,1,3.64-.69,20.28,20.28,0,0,1,3.06.29,12.72,12.72,0,0,0,1.62.18h.19a13.93,13.93,0,0,0,1.93-.78c.55-.24,1.09-.49,1.66-.71L215,138.5a13.22,13.22,0,0,1,4.3-.15l5.21.68q.35.06.69.15c.57.12,1.18.26,1.78.41l1.14.31c.6.17,1.19.37,1.77.57l.13,0,.86.31c.61.23,1.19.48,1.77.73l.19.08.62.28c.66.31,1.27.62,1.87,1a4.92,4.92,0,0,1,.46.23l.78.44,0,0c.37.21.73.44,1.1.67h.07l.94.64.37.26c.6.42,1.15.82,1.69,1.23l.4.3h0a48.5,48.5,0,0,1,4.35,3.86h.09l1.9,2.09,1.15,1.3,9.07,10.56h-.06c8.9,10.42,14.24,17.2,15,26,1,11.49-12.57,34-16.76,40.61a50.32,50.32,0,0,1-7.35,9.14,43.64,43.64,0,0,1-5.1,4.28l-.11.08-1.14.79-.2.13-1.08.69-.16.09c-.37.23-.75.45-1.13.67l-.41.23-.06.07-.88.43c-.79.41-1.59.8-2.39,1.15l-2.46,1a38.9,38.9,0,0,1-9.78,2.24l-.28,0h-.95c-.23,0-.46,0-.69,0l-.23,0-.16,0a23.09,23.09,0,0,1-3.49-.67c-.42-.11-.85-.22-1.3-.31a7.41,7.41,0,0,0-.74-.12h0a12.19,12.19,0,0,0-1.7.48A14.64,14.64,0,0,1,209.31,252.48Z"/><path class="cls-4" d="M207.5,147.29a11,11,0,0,1-4.2-.07,6.94,6.94,0,0,0-3.27,0,6.89,6.89,0,0,0-2.28,2.38,8,8,0,0,1-6.84,4.2,7,7,0,0,0-3.16,1,6.84,6.84,0,0,0-1.45,2.91,10.54,10.54,0,0,1-1.84,3.74,10.19,10.19,0,0,1-3.5,2.28,7,7,0,0,0-2.75,1.82,6.86,6.86,0,0,0-.57,3.18,10.44,10.44,0,0,1-.72,4.13,10.18,10.18,0,0,1-2.74,3.14,6.93,6.93,0,0,0-2.15,2.5,2.85,2.85,0,0,0-.09,1.14,14.73,14.73,0,0,0,.4,2.05,15.89,15.89,0,0,1,.47,2.51,6.16,6.16,0,0,1-.05,1.68,10.14,10.14,0,0,1-1.8,3.74,6.92,6.92,0,0,0-1.42,3,1.93,1.93,0,0,0,0,.24h0a8.1,8.1,0,0,0,1.13,2.74,7.81,7.81,0,0,1,.72,8.14,8.31,8.31,0,0,0-.63,2.89,1.87,1.87,0,0,0,0,.25,6.81,6.81,0,0,0,1.92,2.68,10.12,10.12,0,0,1,2.44,3.36,6.85,6.85,0,0,1,.35,1.67,19.22,19.22,0,0,1,0,2.52,14.78,14.78,0,0,0,0,2.08,3.09,3.09,0,0,0,.29,1.13,6.82,6.82,0,0,0,2.56,2.07,7.79,7.79,0,0,1,4.69,6.55,4.13,4.13,0,0,0,4.15,4.33,7.88,7.88,0,0,1,6.32,5,6.93,6.93,0,0,0,1.95,2.61,7.07,7.07,0,0,0,3.27.39,10.73,10.73,0,0,1,4.15.46,10.54,10.54,0,0,1,3.33,2.46,6.82,6.82,0,0,0,2.67,1.94,7,7,0,0,0,3.21-.61,10.92,10.92,0,0,1,4.12-.81,18.18,18.18,0,0,1,3.28.61,11.34,11.34,0,0,0,3.68.53c5.1-.45,18-3.12,27.4-18,6.2-9.81,16.5-28.56,15.8-36.62-.67-7.46-5.95-13.62-15.54-24.8-1.92-2.24-4.1-4.78-6.44-7.56-5.54-6.59-14.69-15.19-30.2-13.81a11.21,11.21,0,0,0-3.52,1.17A18.88,18.88,0,0,1,207.5,147.29Z"/><path class="cls-5" d="M196.88,194.45a8.87,8.87,0,0,1-1-1.91.81.81,0,0,1,0-.32,1.64,1.64,0,0,1,.09-.35,5.18,5.18,0,0,1,.52-.86c.43-.6,1-1.21,1.41-1.94a5.36,5.36,0,0,0,.59-1.2,3.93,3.93,0,0,0,.22-1.39,10.18,10.18,0,0,0-.42-2.45c-.1-.36-.18-.72-.24-1.05a2.31,2.31,0,0,1,0-.83,1.59,1.59,0,0,1,.43-.63,7.75,7.75,0,0,1,.79-.68c.57-.45,1.2-.9,1.8-1.46a7,7,0,0,0,.84-.94,4.69,4.69,0,0,0,.6-1.18,8.56,8.56,0,0,0,.37-2.37,6.42,6.42,0,0,1,.27-1.92,1.16,1.16,0,0,1,.44-.54,6.31,6.31,0,0,1,.82-.47c.61-.29,1.28-.55,2-.86a7.92,7.92,0,0,0,2-1.22,5.78,5.78,0,0,0,1.36-1.92c.32-.67.55-1.34.8-1.93a2.57,2.57,0,0,1,.93-1.27,5.74,5.74,0,0,1,1.72-.47c.64-.11,1.31-.2,2-.34a7.8,7.8,0,0,0,2-.67,6.64,6.64,0,0,0,1.67-1.31c.47-.49.87-1,1.27-1.47a5.47,5.47,0,0,1,1.19-1.14,2.6,2.6,0,0,1,1.45-.24c.56,0,1.15.1,1.75.16a16,16,0,0,0,1.84.11,7.15,7.15,0,0,0,1.86-.28c1.17-.33,2.2-.82,3.2-1.2a8.73,8.73,0,0,1,1.47-.44,14.35,14.35,0,0,1,1.52-.13,31.82,31.82,0,0,1,5.89.11c.92.13,1.83.23,2.68.44.32.06.62.14.93.21l-1-1.15c-.8-.19-1.63-.3-2.48-.44a31.74,31.74,0,0,0-6.07-.22,13.94,13.94,0,0,0-1.65.12,9.05,9.05,0,0,0-1.66.47c-1.06.38-2.07.84-3.12,1.12a7.89,7.89,0,0,1-3.26.09c-.59-.07-1.19-.16-1.84-.19a5.91,5.91,0,0,0-1,0,3,3,0,0,0-1.1.36,6.69,6.69,0,0,0-1.53,1.39c-.42.49-.81,1-1.22,1.4a5.18,5.18,0,0,1-1.36,1,6.69,6.69,0,0,1-1.69.54c-.61.12-1.26.2-1.93.31a6.72,6.72,0,0,0-2.15.6,2.79,2.79,0,0,0-1,.89,6,6,0,0,0-.56,1c-.29.67-.51,1.31-.8,1.89a4.43,4.43,0,0,1-1,1.47,6.75,6.75,0,0,1-1.64,1c-.62.28-1.29.53-2,.86a7.15,7.15,0,0,0-1.05.6,3.79,3.79,0,0,0-.52.48,2.44,2.44,0,0,0-.39.65,7.48,7.48,0,0,0-.39,2.39,7.22,7.22,0,0,1-.31,2c-.35,1.14-1.56,1.95-2.78,2.89a8.47,8.47,0,0,0-.92.81,3,3,0,0,0-.81,1.26,3.56,3.56,0,0,0,0,1.45c.07.42.16.81.26,1.19a9.2,9.2,0,0,1,.37,2.1,2.6,2.6,0,0,1-.14.89,3.87,3.87,0,0,1-.44.89c-.38.6-.88,1.19-1.37,1.86a6.34,6.34,0,0,0-.68,1.16,2.61,2.61,0,0,0-.21.79,2.26,2.26,0,0,0,.1.85,10,10,0,0,0,1.19,2.29,5.6,5.6,0,0,1,.84,1.92,4.1,4.1,0,0,1-.3,2c-.24.7-.6,1.43-.82,2.31a3.2,3.2,0,0,0-.11.73,2,2,0,0,0,.12.86,3.69,3.69,0,0,0,.8,1.23c.6.64,1.21,1.12,1.73,1.64a4.21,4.21,0,0,1,1.12,1.61,5.72,5.72,0,0,1,.13,2,10.14,10.14,0,0,0,0,2.47,2.54,2.54,0,0,0,.26.76,2.46,2.46,0,0,0,.5.62,5.31,5.31,0,0,0,1.06.75c.7.4,1.38.71,2,1.06a4.86,4.86,0,0,1,1.5,1.21,5.34,5.34,0,0,1,.75,1.78,15.41,15.41,0,0,0,.63,2.21,2.76,2.76,0,0,0,.85,1.15,4,4,0,0,0,1.17.59c.75.25,1.47.38,2.15.54a9.76,9.76,0,0,1,1.87.59,3.82,3.82,0,0,1,1.39,1.11,15.12,15.12,0,0,1,1.11,1.64,5.57,5.57,0,0,0,1.52,1.75,3.05,3.05,0,0,0,1.21.43,8.51,8.51,0,0,0,1.1.08c.7,0,1.36,0,2-.05a8.82,8.82,0,0,1,1.81.13,4.52,4.52,0,0,1,1.56.64c1,.61,1.83,1.56,3.05,2.27a3.18,3.18,0,0,0,1.06.38,3.65,3.65,0,0,0,1.1,0,13.2,13.2,0,0,0,1.83-.47,10.48,10.48,0,0,1,3.24-.65,19.28,19.28,0,0,1,3.23.49,15.44,15.44,0,0,0,1.68.24,8.48,8.48,0,0,0,1.69-.08,32.38,32.38,0,0,0,9.71-2.81c.14-.2.27-.4.4-.61s.31-.49.47-.74h0a32.43,32.43,0,0,1-10.67,3.1c-2,.36-4-.63-6.44-.75a11.13,11.13,0,0,0-3.63.66,11.81,11.81,0,0,1-1.66.41,1.93,1.93,0,0,1-1.38-.24c-.93-.53-1.8-1.52-3-2.27a6.08,6.08,0,0,0-2-.83,10.55,10.55,0,0,0-2.08-.17c-.68,0-1.34,0-2,0a3.1,3.1,0,0,1-1.59-.31,4.42,4.42,0,0,1-1.11-1.34,14.73,14.73,0,0,0-1.2-1.79,5.3,5.3,0,0,0-1.85-1.49,11,11,0,0,0-2.15-.7c-.71-.17-1.4-.31-2-.52a2.56,2.56,0,0,1-.76-.37,1.37,1.37,0,0,1-.41-.6c-.48-1.11-.48-2.8-1.53-4.27a6.06,6.06,0,0,0-1.93-1.61c-.69-.4-1.38-.72-2-1.07a4.22,4.22,0,0,1-.79-.56.83.83,0,0,1-.32-.58,8.83,8.83,0,0,1,0-2.1,7,7,0,0,0-.19-2.57,5.54,5.54,0,0,0-1.49-2.21c-.58-.58-1.2-1.08-1.68-1.59a2.44,2.44,0,0,1-.49-.73,1.26,1.26,0,0,1,0-.74c.16-.66.51-1.37.79-2.17a5.43,5.43,0,0,0,.36-2.71A7.14,7.14,0,0,0,196.88,194.45Z"/><path class="cls-6" d="M237.24,151.72c-.68-.53-1.38-1-2.11-1.53a38,38,0,0,0-10.58-.88,13.51,13.51,0,0,0-1.93.17,11.22,11.22,0,0,0-1.91.61,23.52,23.52,0,0,1-3.56,1.35,10.46,10.46,0,0,1-3.79-.14,10.11,10.11,0,0,0-2.25-.14,2.91,2.91,0,0,0-1.29.41,4.32,4.32,0,0,0-1,.8c-1.07,1.16-1.76,2.42-2.77,3.29A6.78,6.78,0,0,1,202.3,157a15.21,15.21,0,0,0-2.38.48,3.5,3.5,0,0,0-1.29.7,4,4,0,0,0-.85,1.18,18.5,18.5,0,0,0-.89,2.29,9,9,0,0,1-.95,2c-.75,1.12-2.18,1.72-3.71,2.42a10.23,10.23,0,0,0-1.17.62,4.18,4.18,0,0,0-1.17,1,3.52,3.52,0,0,0-.63,1.49,9.71,9.71,0,0,0-.15,1.37c-.08,1.73-.09,3.32-1,4.44a11.33,11.33,0,0,1-1.7,1.69,11.34,11.34,0,0,0-2,2,3.57,3.57,0,0,0-.41.78,3.08,3.08,0,0,0-.15.9,6.9,6.9,0,0,0,.15,1.49c.18.94.43,1.76.55,2.58a7,7,0,0,1,.09,1.18,3.32,3.32,0,0,1-.2,1.07,9.32,9.32,0,0,1-1.2,2.15,10.29,10.29,0,0,0-1.47,2.58,3,3,0,0,0-.15.93,3.48,3.48,0,0,0,.14.91,9.78,9.78,0,0,0,.61,1.42c.92,1.68,1.88,3.11,1.62,4.65a12.45,12.45,0,0,1-.7,2.5c-.15.44-.3.9-.43,1.4a4.28,4.28,0,0,0-.12,1.72,3.83,3.83,0,0,0,.77,1.58,10.75,10.75,0,0,0,1,1.1,17.57,17.57,0,0,1,1.74,1.92,4,4,0,0,1,.77,2.09,17.12,17.12,0,0,1-.05,2.56,11.57,11.57,0,0,0,0,1.44,3.51,3.51,0,0,0,.46,1.65,4.23,4.23,0,0,0,1.15,1.16c.4.29.8.53,1.19.76a17.4,17.4,0,0,1,2.11,1.33,4.08,4.08,0,0,1,1.32,1.71,12.52,12.52,0,0,1,.66,2.31,7.74,7.74,0,0,0,1,2.68,2.8,2.8,0,0,0,.61.63,4,4,0,0,0,.67.41,7.47,7.47,0,0,0,1.31.48c.84.24,1.64.42,2.37.66a5.36,5.36,0,0,1,1.89,1,7.09,7.09,0,0,1,1.35,1.71c.4.66.76,1.38,1.25,2.1a4.74,4.74,0,0,0,.93,1.05,2.5,2.5,0,0,0,.68.42,3.8,3.8,0,0,0,.71.22,11.51,11.51,0,0,0,2.51.12,16,16,0,0,1,2.2,0,4.66,4.66,0,0,1,1.87.58,9,9,0,0,1,1.64,1.25c.54.49,1.07,1,1.7,1.5a4.84,4.84,0,0,0,1.09.65,3,3,0,0,0,1.37.22,9.65,9.65,0,0,0,2.25-.53c.67-.22,1.31-.45,1.94-.6a5.89,5.89,0,0,1,1.83-.21,13.68,13.68,0,0,1,1.89.28,18.7,18.7,0,0,0,4,.68,3.25,3.25,0,0,0,.54,0l.47-.05.95-.11c.63-.08,1.24-.17,1.85-.28a49.11,49.11,0,0,0,7.49-1.86c.66-.56,1.32-1.16,2-1.79a49.07,49.07,0,0,1-9.65,2.46c-.59.09-1.19.18-1.81.24l-.92.1-.46,0a3,3,0,0,1-.42,0,18.67,18.67,0,0,1-3.7-.7,13.81,13.81,0,0,0-2.09-.34,7.27,7.27,0,0,0-2.24.22c-.71.17-1.39.4-2.05.61a8.07,8.07,0,0,1-1.9.44,1.52,1.52,0,0,1-.74-.12,3.65,3.65,0,0,1-.76-.48c-.52-.4-1-.92-1.59-1.43a10.63,10.63,0,0,0-1.9-1.47,6,6,0,0,0-2.43-.78,17.73,17.73,0,0,0-2.4-.06,10.66,10.66,0,0,1-2.16-.1,1.5,1.5,0,0,1-.73-.33,3.43,3.43,0,0,1-.63-.74c-.4-.59-.75-1.31-1.18-2a8.48,8.48,0,0,0-1.66-2.1,7,7,0,0,0-2.43-1.29c-.83-.28-1.66-.46-2.42-.69a3.22,3.22,0,0,1-1.71-.9,6.63,6.63,0,0,1-.69-2.1,15.17,15.17,0,0,0-.75-2.62,5.91,5.91,0,0,0-.75-1.3,6.57,6.57,0,0,0-1.06-1.05,20.16,20.16,0,0,0-2.3-1.48,5.55,5.55,0,0,1-1.75-1.35,1.9,1.9,0,0,1-.21-.89,10.25,10.25,0,0,1,0-1.24,19.7,19.7,0,0,0,.05-2.8,6.37,6.37,0,0,0-.33-1.52,5.79,5.79,0,0,0-.75-1.39,18.3,18.3,0,0,0-1.91-2.13,4.41,4.41,0,0,1-1.28-1.8,2.57,2.57,0,0,1,.1-1c.1-.39.24-.81.38-1.24a13.62,13.62,0,0,0,.78-2.85,5.32,5.32,0,0,0,0-1.64,6.63,6.63,0,0,0-.46-1.51c-.39-.93-.91-1.74-1.31-2.51a6.35,6.35,0,0,1-.48-1.1,1.24,1.24,0,0,1,0-.85,9.76,9.76,0,0,1,1.25-2.13,11,11,0,0,0,1.4-2.56,5.26,5.26,0,0,0,.29-1.58,7.85,7.85,0,0,0-.12-1.48c-.14-.94-.41-1.83-.56-2.63a5.32,5.32,0,0,1-.13-1.14,1.69,1.69,0,0,1,.06-.39,2,2,0,0,1,.2-.38,11,11,0,0,1,1.72-1.67,12.1,12.1,0,0,0,2-2,5.85,5.85,0,0,0,.73-1.32,6.71,6.71,0,0,0,.36-1.4,22.76,22.76,0,0,0,.19-2.62,3.94,3.94,0,0,1,.44-2,5,5,0,0,1,1.75-1.14c.72-.35,1.5-.68,2.26-1.14a6.26,6.26,0,0,0,2-1.83c1-1.53,1.31-3.23,1.92-4.47a2.39,2.39,0,0,1,.51-.73,2,2,0,0,1,.74-.4,15.37,15.37,0,0,1,2.13-.44,14.73,14.73,0,0,0,2.34-.52,5.94,5.94,0,0,0,2.18-1.25,40.94,40.94,0,0,0,2.83-3.41,3,3,0,0,1,.66-.57,1.56,1.56,0,0,1,.71-.22,9.13,9.13,0,0,1,1.92.1,11.42,11.42,0,0,0,4.29.07,25.22,25.22,0,0,0,3.73-1.46,9.8,9.8,0,0,1,1.68-.57,11.8,11.8,0,0,1,1.75-.17A37.76,37.76,0,0,1,237.24,151.72Z"/><g class="cls-7"><path class="cls-8" d="M191,234.81a7.74,7.74,0,0,1,1.73,2.05c21.69-13.35,58.88-36.38,69.94-43.64L261,194c-13.4,7.13-50,27.53-71.84,39.81A7,7,0,0,1,191,234.81Z"/><path class="cls-8" d="M261.42,191.46c-14.88.66-62.36,3.85-89.87,5.77a7,7,0,0,1,.64,2.25,7.31,7.31,0,0,1-.23,2.33c27.41-3,74.7-8.22,89.46-10.21l.68-.13Z"/><path class="cls-8" d="M262,192.12l-.43.06C247,195,201,205.06,174.1,211a6,6,0,0,1,1.42,3.5,9.81,9.81,0,0,1,0,1.08c25.8-6.82,69.57-18.51,84.89-22.93Z"/><path class="cls-8" d="M202.84,241.63a8,8,0,0,1,2.35,1.54c18.58-15.39,49.52-41.29,57.88-48.74-9.24,6.57-42,31.56-62,46.79A6.82,6.82,0,0,1,202.84,241.63Z"/><path class="cls-8" d="M264,195.6l-49.12,49.07a6.14,6.14,0,0,1,1.29-.06,18.18,18.18,0,0,1,3.28.61,11.44,11.44,0,0,0,3.65.53C233.65,233,257.18,204.45,264,195.6Z"/><path class="cls-8" d="M181.56,224.91a8,8,0,0,1,1.14,2.63c23.72-10.21,63.89-27.61,78.06-34.08l1.19-.63-1.34.38c-14.82,5.24-56.18,20.78-80.76,30.08A7.12,7.12,0,0,1,181.56,224.91Z"/><path class="cls-8" d="M264.93,196.89c-4.9,6.39-23.84,33.78-32.65,46.6a36,36,0,0,0,8.55-4.91C249.59,223.77,261.84,202.83,264.93,196.89Z"/><path class="cls-8" d="M176.92,172.79a7.44,7.44,0,0,1-1.39,1.9c25.83,4.81,69.29,12.8,84.8,15.33l1.38.15-1.28-.41c-15.09-3.87-57.7-13.9-82.86-19.76A7.9,7.9,0,0,1,176.92,172.79Z"/><path class="cls-8" d="M210.63,146.11a18.88,18.88,0,0,1-3.13,1.18,6.15,6.15,0,0,1-1.27.17l57.22,39.65c-8.32-7.51-36.63-31.48-49.33-42.17A11.31,11.31,0,0,0,210.63,146.11Z"/><path class="cls-8" d="M223.34,145.32c10.85,11,34.6,34.87,40.58,40.32-4.1-5.32-20-23.93-31.24-37A30.48,30.48,0,0,0,223.34,145.32Z"/><path class="cls-8" d="M194.91,152.58a6.92,6.92,0,0,1-1.63.7c22.31,11.48,59.12,30.18,69.37,35-9.55-5.86-44.69-25.78-65.7-37.64A8.15,8.15,0,0,1,194.91,152.58Z"/><path class="cls-8" d="M172.81,184.13a6.16,6.16,0,0,1-.05,1.68,6.87,6.87,0,0,1-.72,2c27.46,1.1,74.39,2.86,89.28,3.08l.49,0-1.56-.25c-15.85-1.64-61-5.41-87.6-7.57A10,10,0,0,1,172.81,184.13Z"/><path class="cls-8" d="M185.8,159.06a7.68,7.68,0,0,1-1.34,2.32,7.15,7.15,0,0,1-1.63,1.32c23.72,8.22,63.31,21.84,77.76,26.49l1.76.46C250.19,184.46,209.51,168.37,185.8,159.06Z"/></g><g class="cls-9"><path class="cls-3" d="M202,192.2c0,.47,2.93,1.05,6.61,1s6.63-.73,6.58-1.19-3-.56-6.6-.51S202,191.73,202,192.2Z"/><path class="cls-3" d="M210.13,200.59c0-.46-1.91-.75-4.17-.33s-3.93,1.36-3.78,1.8,1.95.27,4.09-.12S210.16,201.07,210.13,200.59Z"/><path class="cls-3" d="M212.43,200.54c.14.46,3.19-.14,6.9-.85s6.76-1.32,6.73-1.8-3.22-.63-7.05.12S212.28,200.1,212.43,200.54Z"/><path class="cls-3" d="M208.05,208.52c-1.5.56-2.59,1.37-2.43,1.82s1.52.34,3-.22,2.6-1.37,2.43-1.81S209.56,208,208.05,208.52Z"/><path class="cls-3" d="M218.78,205.58c-.18-.44-1.41-.34-2.74.21s-2.26,1.35-2.08,1.78,1.4.34,2.73-.21S219,206,218.78,205.58Z"/><path class="cls-3" d="M222.38,205c.05.45,2.32.54,4.94-.28s4.45-2.15,4.23-2.57-2.26.18-4.73.94S222.31,204.56,222.38,205Z"/><path class="cls-3" d="M212.81,218.22c.25.4,3.53-1.24,7.32-3.65s6.65-4.68,6.4-5.08-3.53,1.23-7.32,3.64S212.56,217.82,212.81,218.22Z"/><path class="cls-3" d="M218.58,224.62c.35.33,2-1,4-2.54s3.61-3,3.37-3.38-2.33.36-4.43,2.05S218.24,224.31,218.58,224.62Z"/><path class="cls-3" d="M203.62,183.07c-.12.45,1.76,1.37,4.26,1.8s4.59.22,4.62-.24-1.91-1-4.32-1.44S203.75,182.62,203.62,183.07Z"/><path class="cls-3" d="M216.72,185c-.1.45,1.92,1.3,4.56,1.67s4.82.13,4.85-.33-2-1-4.61-1.36S216.82,184.57,216.72,185Z"/><path class="cls-3" d="M208.69,175c-.17.43,3.34,2.24,8,3.59s8.6,1.72,8.68,1.26-3.64-1.56-8.21-2.9S208.87,174.53,208.69,175Z"/><path class="cls-3" d="M221.59,171.92c4.13,2.16,7.73,3.36,7.92,2.94s-3-2.32-7.13-4.45-7.48-3.72-7.72-3.31S217.46,169.77,221.59,171.92Z"/></g><path class="cls-2" d="M348.16,266.09a8.24,8.24,0,0,1-1.87-.2,12,12,0,0,1-5.73-3.6c-.36-.34-.71-.68-1-.93l-.18-.13a6.9,6.9,0,0,0-1-.06h-1.67a10.93,10.93,0,0,1-5.58-1.25,12,12,0,0,1-4.37-5.09c-.24-.44-.47-.85-.69-1.18l-.05-.09-.08-.11-.08,0a12,12,0,0,0-1.49-.47,12.2,12.2,0,0,1-6-3.06,12,12,0,0,1-2.74-6.07c-.11-.51-.22-1-.34-1.36a1.08,1.08,0,0,0-.06-.19l-.18-.14c-.31-.23-.69-.46-1.16-.74a12.23,12.23,0,0,1-4.92-4.57,9.34,9.34,0,0,1-1-3.56,18.83,18.83,0,0,1,0-3,14.8,14.8,0,0,0,0-1.58v0a11.83,11.83,0,0,0-1-1.16,12,12,0,0,1-3.54-5.71,7.2,7.2,0,0,1-.16-1,13.21,13.21,0,0,1,.93-5.52c.14-.43.32-1,.41-1.35l.05-.23-.1-.24c-.14-.33-.38-.77-.63-1.22A13.22,13.22,0,0,1,302,207a8.64,8.64,0,0,1,0-1.15,12,12,0,0,1,2.47-6.17c.29-.43.58-.87.76-1.21,0,0,0-.08,0-.13a11.8,11.8,0,0,0-.31-1.56,19.23,19.23,0,0,1-.55-3,9.16,9.16,0,0,1,.36-3.67,12.08,12.08,0,0,1,4-5.36c.33-.3.71-.64,1-.93l.15-.18a.74.74,0,0,0,0-.12,11.41,11.41,0,0,0,.1-1.46,12,12,0,0,1,1.63-6.47,12.17,12.17,0,0,1,5.34-4.07,12.77,12.77,0,0,0,1.41-.75l0,0,.11-.22c.15-.35.31-.82.46-1.27a11.91,11.91,0,0,1,3.4-5.78,12.1,12.1,0,0,1,6.28-2.39,11.61,11.61,0,0,0,1.65-.34l.2-.23c.21-.24.5-.64.79-1.05a12.13,12.13,0,0,1,5-4.54,9.35,9.35,0,0,1,3.65-.69,20.27,20.27,0,0,1,3,.29,12.48,12.48,0,0,0,1.63.18h0l.71,6.37s-.54-6.38-.55-6.38a13.87,13.87,0,0,0,2-.78c.55-.25,1.09-.49,1.66-.71l1.92-.29a50.88,50.88,0,0,1,12.93-.25h0l.68.15c.6.13,1.21.26,1.8.42l1.13.3q.9.27,1.77.57l.21.07.8.29c.6.23,1.19.47,1.77.73l.18.08.62.27c.65.31,1.27.63,1.88,1a4,4,0,0,1,.41.21l1.22.66.06.08.68.42.07,0,.93.63.38.27c.58.4,1.14.81,1.69,1.23l.4.29h0a49.8,49.8,0,0,1,5.52,5.07l0,0,1,1.13.92,1,15.13,17.62-.35-.11c5.43,6.84,8.66,12.37,9.26,19.1,1,11.48-12.57,34-16.76,40.6a50.82,50.82,0,0,1-7.35,9.15,44.91,44.91,0,0,1-5.11,4.28l-.1.07c-.38.27-.76.54-1.14.79l-.23.15c-.31.21-.68.44-1.05.67l-.21.13-1.07.63-.42.23-.07.07-.87.44c-1.2.62-2.43,1.19-3.65,1.68a38.94,38.94,0,0,1-11,2.69l-.28,0h-1l-.65,0-.25,0-.25,0a23.94,23.94,0,0,1-3.41-.67,16.17,16.17,0,0,0-2-.42h-.07a10.51,10.51,0,0,0-1.69.48A14.68,14.68,0,0,1,348.16,266.09Z"/><path class="cls-3" d="M342.83,260.76a8.88,8.88,0,0,1-1.88-.2,12.05,12.05,0,0,1-5.73-3.6c-.35-.34-.7-.68-1-.93l-.19-.14a8.63,8.63,0,0,0-1,0h-1.67a11,11,0,0,1-5.59-1.25,12,12,0,0,1-4.36-5.1c-.24-.43-.47-.85-.69-1.18l-.06-.09-.08-.1-.07,0a12.48,12.48,0,0,0-1.49-.48,12,12,0,0,1-6-3.06,11.88,11.88,0,0,1-2.73-6.06c-.11-.52-.22-1-.34-1.37,0-.08-.05-.14-.07-.18l-.17-.15c-.32-.22-.69-.46-1.16-.74a12.1,12.1,0,0,1-4.92-4.57,9.07,9.07,0,0,1-1-3.56,21.52,21.52,0,0,1,0-3,12.68,12.68,0,0,0,0-1.57v0a12.18,12.18,0,0,0-1-1.16,12.15,12.15,0,0,1-3.54-5.71,7.43,7.43,0,0,1-.16-1,13.21,13.21,0,0,1,.93-5.52c.14-.43.31-.95.41-1.35l.05-.23-.1-.24c-.15-.33-.38-.77-.63-1.22a13.12,13.12,0,0,1-1.89-5.26,7,7,0,0,1,0-1.14,12.09,12.09,0,0,1,2.48-6.17c.28-.43.58-.87.76-1.22L300,193a13.58,13.58,0,0,0-.32-1.56,20.65,20.65,0,0,1-.55-3,9.29,9.29,0,0,1,.36-3.66,12.2,12.2,0,0,1,4-5.37c.34-.29.72-.63,1-.93a1.29,1.29,0,0,0,.15-.17.69.69,0,0,0,0-.13c.06-.46.08-.95.1-1.45a10.09,10.09,0,0,1,7-10.54,13.75,13.75,0,0,0,1.41-.75l0,0,.1-.22c.15-.35.31-.83.46-1.28a10.11,10.11,0,0,1,9.69-8.16,11.66,11.66,0,0,0,1.64-.35l.21-.22c.21-.24.49-.64.79-1a12.07,12.07,0,0,1,5-4.54,9.35,9.35,0,0,1,3.65-.69,20.27,20.27,0,0,1,3.05.29,14.23,14.23,0,0,0,1.63.18h.16a14.29,14.29,0,0,0,1.95-.78c.55-.25,1.1-.49,1.66-.72l1.93-.28a50.42,50.42,0,0,1,12.93-.25h0c.23,0,.45.09.67.15.61.12,1.21.26,1.8.41l1.14.31c.6.18,1.19.36,1.77.56l.2.08.81.29c.6.22,1.18.47,1.76.73l.18.07.63.28c.65.3,1.27.62,1.88.95l.41.21,1.21.67.06.08c.23.13.46.27.68.42l.08,0,.93.63.37.27c.58.4,1.15.81,1.7,1.23.14.1.27.19.39.29h0A49.73,49.73,0,0,1,380.2,160l.05,0,1,1.12.91,1,15.13,17.62-.35-.12c5.43,6.84,8.67,12.38,9.27,19.1,1,11.49-12.58,34-16.76,40.61a50,50,0,0,1-7.36,9.14,46,46,0,0,1-5.1,4.29l-.1.07-1.15.79-.22.14-1,.67-.22.13c-.31.2-.69.42-1.07.63l-.41.24-.07.07-.88.44c-1.2.62-2.42,1.18-3.65,1.67a39.25,39.25,0,0,1-11,2.7l-.28,0h-1c-.21,0-.43,0-.65,0h-.25l-.24,0a24.12,24.12,0,0,1-3.42-.66,15.67,15.67,0,0,0-2-.43h-.07a10.71,10.71,0,0,0-1.68.48A14.79,14.79,0,0,1,342.83,260.76Z"/><path class="cls-4" d="M341,155.57a10.72,10.72,0,0,1-4.19-.07,6.94,6.94,0,0,0-3.27,0,6.8,6.8,0,0,0-2.28,2.38,8,8,0,0,1-6.85,4.2,6.94,6.94,0,0,0-3.15,1,6.73,6.73,0,0,0-1.45,2.91,10.69,10.69,0,0,1-1.85,3.75,10.55,10.55,0,0,1-3.49,2.28,7,7,0,0,0-2.76,1.81,6.87,6.87,0,0,0-.56,3.18,10.45,10.45,0,0,1-.73,4.13,10.18,10.18,0,0,1-2.74,3.14,7,7,0,0,0-2.15,2.5,2.87,2.87,0,0,0-.08,1.14,13.4,13.4,0,0,0,.4,2.05,18.84,18.84,0,0,1,.47,2.51,6.56,6.56,0,0,1-.06,1.68,10,10,0,0,1-1.8,3.74,7,7,0,0,0-1.42,3,2.18,2.18,0,0,0,0,.25h0a8.14,8.14,0,0,0,1.13,2.73,7.84,7.84,0,0,1,.73,8.14,8.09,8.09,0,0,0-.63,2.89,1.9,1.9,0,0,0,0,.25,7,7,0,0,0,1.92,2.68,10.22,10.22,0,0,1,2.44,3.36,6.41,6.41,0,0,1,.35,1.67,16.28,16.28,0,0,1,0,2.52,14.7,14.7,0,0,0,0,2.08,2.91,2.91,0,0,0,.28,1.13,7.1,7.1,0,0,0,2.56,2.08,10,10,0,0,1,3.25,2.6,10.41,10.41,0,0,1,1.45,3.94,6.82,6.82,0,0,0,1.12,3,7,7,0,0,0,3,1.3,7.92,7.92,0,0,1,6.32,5,6.82,6.82,0,0,0,1.94,2.61,7.09,7.09,0,0,0,3.27.39,10.78,10.78,0,0,1,4.16.46,10.61,10.61,0,0,1,3.32,2.46,4.14,4.14,0,0,0,5.88,1.33,11.12,11.12,0,0,1,4.12-.81,18.46,18.46,0,0,1,3.29.61,11.06,11.06,0,0,0,3.67.53c5.1-.45,18-3.12,27.41-18,6.2-9.81,16.5-28.55,15.79-36.62-.66-7.45-5.95-13.61-15.54-24.8-1.92-2.24-4.1-4.78-6.43-7.56-5.54-6.59-14.7-15.19-30.21-13.81a11.21,11.21,0,0,0-3.52,1.17A17.44,17.44,0,0,1,341,155.57Z"/><path class="cls-5" d="M330.39,202.74a9.65,9.65,0,0,1-1-1.92.81.81,0,0,1,0-.32,1.27,1.27,0,0,1,.1-.35,4.58,4.58,0,0,1,.52-.86c.43-.6.95-1.21,1.41-1.94a5.83,5.83,0,0,0,.59-1.2,3.92,3.92,0,0,0,.21-1.39,10.18,10.18,0,0,0-.42-2.45c-.09-.36-.18-.72-.23-1.05a2.36,2.36,0,0,1,0-.83,1.76,1.76,0,0,1,.44-.63,6.67,6.67,0,0,1,.78-.68c.57-.45,1.21-.9,1.8-1.46a5.86,5.86,0,0,0,.84-.94,4.19,4.19,0,0,0,.6-1.17,9.12,9.12,0,0,0,.38-2.38,6.5,6.5,0,0,1,.26-1.92,1.26,1.26,0,0,1,.45-.54,5.71,5.71,0,0,1,.82-.47c.61-.29,1.28-.55,1.95-.86a7.92,7.92,0,0,0,2-1.22,6,6,0,0,0,1.37-1.92c.32-.67.54-1.34.8-1.93a2.51,2.51,0,0,1,.93-1.27,5.59,5.59,0,0,1,1.71-.47c.64-.11,1.31-.19,2-.34a7.86,7.86,0,0,0,2-.67,6.48,6.48,0,0,0,1.68-1.31c.47-.49.87-1,1.26-1.47a5.51,5.51,0,0,1,1.2-1.14,2.56,2.56,0,0,1,1.44-.24c.57,0,1.16.1,1.76.16a13.89,13.89,0,0,0,1.84.11,7.21,7.21,0,0,0,1.86-.28c1.16-.33,2.2-.82,3.19-1.2a8.73,8.73,0,0,1,1.47-.44,14.54,14.54,0,0,1,1.53-.13,32.74,32.74,0,0,1,5.89.11,27,27,0,0,1,2.67.44c.32.06.63.14.94.22-.33-.38-.67-.77-1-1.15-.79-.2-1.62-.31-2.47-.45a31.8,31.8,0,0,0-6.07-.22,16.63,16.63,0,0,0-1.66.12,9.28,9.28,0,0,0-1.66.47c-1.06.38-2.07.84-3.12,1.12a7.88,7.88,0,0,1-3.26.09c-.58-.06-1.19-.15-1.84-.19a7.11,7.11,0,0,0-1,0,2.82,2.82,0,0,0-1.09.37,6.25,6.25,0,0,0-1.53,1.38c-.43.49-.81,1-1.23,1.4a5.3,5.3,0,0,1-1.35,1,6.69,6.69,0,0,1-1.69.54c-.62.12-1.26.2-1.94.31a7.07,7.07,0,0,0-2.15.6,2.88,2.88,0,0,0-1,.89,6.74,6.74,0,0,0-.55,1c-.3.67-.52,1.31-.8,1.89a4.46,4.46,0,0,1-1,1.47,6.87,6.87,0,0,1-1.63,1c-.62.28-1.29.53-2,.86a6.25,6.25,0,0,0-1.05.6,3.33,3.33,0,0,0-.52.48,2.48,2.48,0,0,0-.4.65,7.48,7.48,0,0,0-.39,2.39,7.62,7.62,0,0,1-.3,2c-.36,1.14-1.56,1.95-2.78,2.89a9.61,9.61,0,0,0-.93.81,2.89,2.89,0,0,0-.8,1.26,3.56,3.56,0,0,0,0,1.45,10.39,10.39,0,0,0,.26,1.19,9.16,9.16,0,0,1,.36,2.1,2.46,2.46,0,0,1-.13.9,5,5,0,0,1-.45.89c-.37.6-.87,1.18-1.36,1.85a6.35,6.35,0,0,0-.69,1.16,3,3,0,0,0-.2.79,2.35,2.35,0,0,0,.09.86,10.11,10.11,0,0,0,1.19,2.28,5.6,5.6,0,0,1,.84,1.92,4,4,0,0,1-.29,2,23.4,23.4,0,0,0-.83,2.31,3.87,3.87,0,0,0-.11.73,2.16,2.16,0,0,0,.12.86,3.56,3.56,0,0,0,.81,1.23c.59.64,1.2,1.12,1.73,1.64a4.07,4.07,0,0,1,1.11,1.61,5.29,5.29,0,0,1,.13,2,10.14,10.14,0,0,0,0,2.47,2.58,2.58,0,0,0,.27.76,2.44,2.44,0,0,0,.49.62,5.61,5.61,0,0,0,1.06.75c.71.4,1.39.71,2,1.06a4.81,4.81,0,0,1,1.49,1.21,5.23,5.23,0,0,1,.75,1.78,15.53,15.53,0,0,0,.64,2.21,2.82,2.82,0,0,0,.84,1.15,4.15,4.15,0,0,0,1.17.59c.76.25,1.47.38,2.15.54a9.54,9.54,0,0,1,1.87.59,3.94,3.94,0,0,1,1.4,1.11,18.68,18.68,0,0,1,1.11,1.64,5.44,5.44,0,0,0,1.52,1.75,3,3,0,0,0,1.2.43,8.63,8.63,0,0,0,1.1.08c.71,0,1.37,0,2-.05a8.92,8.92,0,0,1,1.82.13,4.6,4.6,0,0,1,1.56.64c1,.61,1.82,1.56,3,2.27a3.23,3.23,0,0,0,1.07.38,3.57,3.57,0,0,0,1.09,0,12.06,12.06,0,0,0,1.84-.47,10.36,10.36,0,0,1,3.23-.65,20.66,20.66,0,0,1,3.24.49,14.77,14.77,0,0,0,1.68.24,8.38,8.38,0,0,0,1.68-.08,32.36,32.36,0,0,0,9.72-2.81c.13-.2.27-.4.4-.61l.46-.74h0a32.58,32.58,0,0,1-10.67,3.1c-2,.36-4-.63-6.45-.75a11,11,0,0,0-3.62.66,12.54,12.54,0,0,1-1.66.41,1.91,1.91,0,0,1-1.39-.24c-.93-.53-1.79-1.52-3-2.26a5.84,5.84,0,0,0-2-.84,10.71,10.71,0,0,0-2.09-.17c-.68,0-1.34,0-2,0a3.13,3.13,0,0,1-1.59-.31,4.27,4.27,0,0,1-1.1-1.34,17.49,17.49,0,0,0-1.2-1.79,5.25,5.25,0,0,0-1.86-1.49,10.57,10.57,0,0,0-2.15-.7c-.7-.17-1.4-.31-2-.52a2.69,2.69,0,0,1-.76-.37,1.49,1.49,0,0,1-.41-.59c-.48-1.12-.48-2.81-1.53-4.28a6,6,0,0,0-1.93-1.61c-.68-.4-1.38-.72-2-1.07a4.61,4.61,0,0,1-.78-.55.87.87,0,0,1-.32-.59,9.34,9.34,0,0,1,0-2.1,6.77,6.77,0,0,0-.19-2.57,5.56,5.56,0,0,0-1.48-2.21c-.59-.58-1.2-1.08-1.68-1.59a2.41,2.41,0,0,1-.5-.72,1.42,1.42,0,0,1,0-.75c.16-.65.5-1.37.78-2.17a5.32,5.32,0,0,0,.36-2.71A6.9,6.9,0,0,0,330.39,202.74Z"/><path class="cls-6" d="M370.75,160c-.67-.53-1.38-1-2.11-1.53a37.92,37.92,0,0,0-10.58-.88,13.51,13.51,0,0,0-1.93.17,10.94,10.94,0,0,0-1.91.62,24.9,24.9,0,0,1-3.55,1.34,10.3,10.3,0,0,1-3.8-.14,10,10,0,0,0-2.24-.14,3.08,3.08,0,0,0-1.3.41,4.55,4.55,0,0,0-1,.8c-1.06,1.16-1.76,2.42-2.76,3.29a6.81,6.81,0,0,1-3.78,1.38,15.21,15.21,0,0,0-2.38.48,3.5,3.5,0,0,0-1.3.71,4,4,0,0,0-.85,1.17,22.32,22.32,0,0,0-.89,2.29,8.18,8.18,0,0,1-.95,2c-.75,1.12-2.18,1.72-3.7,2.42a10.34,10.34,0,0,0-1.18.62,4.2,4.2,0,0,0-1.17,1,3.41,3.41,0,0,0-.62,1.48,9.78,9.78,0,0,0-.16,1.37c-.08,1.73-.08,3.32-1,4.44a10.54,10.54,0,0,1-1.71,1.69,11.31,11.31,0,0,0-2,2,2.88,2.88,0,0,0-.41.78,2.81,2.81,0,0,0-.16.9,7.59,7.59,0,0,0,.15,1.49c.19.94.44,1.76.55,2.58a7,7,0,0,1,.09,1.18,3.31,3.31,0,0,1-.19,1.07,9.38,9.38,0,0,1-1.21,2.15,10.94,10.94,0,0,0-1.47,2.58,3.35,3.35,0,0,0-.15.93,3.46,3.46,0,0,0,.15.91,8.42,8.42,0,0,0,.6,1.42c.92,1.68,1.88,3.11,1.62,4.65a11.77,11.77,0,0,1-.69,2.5,13.52,13.52,0,0,0-.43,1.4,4.28,4.28,0,0,0-.12,1.72,3.76,3.76,0,0,0,.76,1.58,12.08,12.08,0,0,0,1,1.1,17.57,17.57,0,0,1,1.74,1.92,4,4,0,0,1,.78,2.09,17.28,17.28,0,0,1-.05,2.57,13.64,13.64,0,0,0,0,1.43,3.6,3.6,0,0,0,.47,1.66,4.18,4.18,0,0,0,1.15,1.15c.4.29.79.53,1.18.76a16.66,16.66,0,0,1,2.11,1.33,4.19,4.19,0,0,1,1.33,1.71,13.35,13.35,0,0,1,.66,2.31,7.92,7.92,0,0,0,1,2.68,2.81,2.81,0,0,0,.61.63,4.1,4.1,0,0,0,.68.41,7.68,7.68,0,0,0,1.3.48c.84.24,1.64.42,2.37.66a5.26,5.26,0,0,1,1.9,1,6.59,6.59,0,0,1,1.34,1.7c.4.66.76,1.38,1.25,2.1a5,5,0,0,0,.93,1.05,2.86,2.86,0,0,0,.69.43,3.35,3.35,0,0,0,.71.21,11.51,11.51,0,0,0,2.51.12,15.83,15.83,0,0,1,2.19,0,4.61,4.61,0,0,1,1.87.58,9.08,9.08,0,0,1,1.65,1.25,21.34,21.34,0,0,0,1.7,1.5,4.63,4.63,0,0,0,1.09.65,3,3,0,0,0,1.37.22,9.09,9.09,0,0,0,2.24-.53c.68-.22,1.32-.45,1.95-.6a5.86,5.86,0,0,1,1.83-.21,13.91,13.91,0,0,1,1.89.28,19.35,19.35,0,0,0,4,.69l.53,0,.48-.05.95-.11c.62-.08,1.24-.17,1.85-.28a49.11,49.11,0,0,0,7.49-1.86c.66-.56,1.31-1.15,2-1.79a49.07,49.07,0,0,1-9.65,2.46c-.6.09-1.2.18-1.81.24l-.92.1-.47,0a3,3,0,0,1-.42,0,18.94,18.94,0,0,1-3.7-.7,14.8,14.8,0,0,0-2.08-.34,7.24,7.24,0,0,0-2.24.22c-.72.17-1.4.4-2.06.61a7.89,7.89,0,0,1-1.89.44,1.48,1.48,0,0,1-.74-.12,3.46,3.46,0,0,1-.77-.48c-.52-.4-1-.91-1.58-1.43a11.52,11.52,0,0,0-1.9-1.47,6.3,6.3,0,0,0-2.43-.78,17.87,17.87,0,0,0-2.41-.06,10.66,10.66,0,0,1-2.16-.1,1.59,1.59,0,0,1-.73-.33,3.58,3.58,0,0,1-.62-.73c-.4-.6-.76-1.32-1.19-2a8.43,8.43,0,0,0-1.65-2.1,7,7,0,0,0-2.43-1.29c-.84-.28-1.66-.46-2.42-.69a3.22,3.22,0,0,1-1.71-.9,6.62,6.62,0,0,1-.7-2.1,14.33,14.33,0,0,0-.75-2.62,5.63,5.63,0,0,0-.75-1.29,6.2,6.2,0,0,0-1-1.06A19.41,19.41,0,0,0,324.1,226a5.53,5.53,0,0,1-1.75-1.35,2.18,2.18,0,0,1-.21-.89,10.09,10.09,0,0,1,0-1.23,18.46,18.46,0,0,0,.05-2.81,5.61,5.61,0,0,0-.33-1.52,6.13,6.13,0,0,0-.74-1.39,19.25,19.25,0,0,0-1.91-2.13,4.49,4.49,0,0,1-1.29-1.79,3.05,3.05,0,0,1,.1-1c.1-.39.24-.81.39-1.24a14.25,14.25,0,0,0,.78-2.85,5.65,5.65,0,0,0,0-1.64,7.82,7.82,0,0,0-.46-1.51c-.4-.93-.92-1.74-1.32-2.5a6.77,6.77,0,0,1-.48-1.11,1.24,1.24,0,0,1,0-.85,9.3,9.3,0,0,1,1.24-2.13,11.16,11.16,0,0,0,1.41-2.56,5,5,0,0,0,.28-1.58,9,9,0,0,0-.11-1.48c-.14-.94-.41-1.83-.57-2.63a6,6,0,0,1-.12-1.13,1.35,1.35,0,0,1,.05-.4,1.65,1.65,0,0,1,.21-.38,10.58,10.58,0,0,1,1.72-1.67,12.52,12.52,0,0,0,2-2,5.45,5.45,0,0,0,.72-1.32,6.75,6.75,0,0,0,.37-1.4c.14-.93.14-1.81.19-2.62a3.87,3.87,0,0,1,.43-2,5.15,5.15,0,0,1,1.75-1.14c.73-.35,1.51-.68,2.27-1.13a6.48,6.48,0,0,0,2-1.84c1-1.53,1.31-3.23,1.93-4.47a2.38,2.38,0,0,1,.5-.73,2,2,0,0,1,.74-.4,14.2,14.2,0,0,1,2.14-.43,14.43,14.43,0,0,0,2.33-.53,5.8,5.8,0,0,0,2.18-1.25,37.63,37.63,0,0,0,2.83-3.41,3.3,3.3,0,0,1,.66-.57,1.57,1.57,0,0,1,.72-.22,9.16,9.16,0,0,1,1.92.1A11.41,11.41,0,0,0,351,161a25.22,25.22,0,0,0,3.73-1.46,9.8,9.8,0,0,1,1.68-.57,11.8,11.8,0,0,1,1.74-.17A37.71,37.71,0,0,1,370.75,160Z"/><g class="cls-7"><path class="cls-8" d="M324.51,243.09a7.55,7.55,0,0,1,1.73,2c21.69-13.35,58.89-36.38,69.94-43.64l-1.65.77c-13.41,7.13-50,27.53-71.85,39.81A7.11,7.11,0,0,1,324.51,243.09Z"/><path class="cls-8" d="M394.93,199.75c-14.87.65-62.36,3.85-89.86,5.76a6.41,6.41,0,0,1,.41,4.58c27.4-3,74.69-8.22,89.46-10.21l.68-.13Z"/><path class="cls-8" d="M395.47,200.4l-.43.06c-14.52,2.83-60.53,12.88-87.42,18.82a7.11,7.11,0,0,1,1.06,1.83,6.41,6.41,0,0,1,.35,1.67,10,10,0,0,1,0,1.09c25.79-6.83,69.57-18.52,84.88-22.94Z"/><path class="cls-8" d="M336.36,249.91a7.79,7.79,0,0,1,2.34,1.54c18.58-15.39,49.52-41.29,57.89-48.74-9.24,6.57-42,31.56-62,46.8A6.56,6.56,0,0,1,336.36,249.91Z"/><path class="cls-8" d="M397.52,203.88,348.39,253a6.2,6.2,0,0,1,1.29-.06,18.46,18.46,0,0,1,3.29.61,11.11,11.11,0,0,0,3.64.53C367.17,241.29,390.69,212.73,397.52,203.88Z"/><path class="cls-8" d="M315.07,233.19a7.79,7.79,0,0,1,1.14,2.63c23.73-10.21,63.9-27.61,78.07-34.08l1.18-.63-1.33.39c-14.82,5.23-56.18,20.77-80.76,30.07A7.07,7.07,0,0,1,315.07,233.19Z"/><path class="cls-8" d="M398.44,205.17c-4.89,6.39-23.83,33.78-32.64,46.61a36.15,36.15,0,0,0,8.54-4.92C383.11,232.05,395.36,211.11,398.44,205.17Z"/><path class="cls-8" d="M310.43,181.07A7,7,0,0,1,309,183c25.83,4.81,69.3,12.8,84.8,15.33l1.39.15L394,198c-15.09-3.87-57.71-13.9-82.86-19.76A7.91,7.91,0,0,1,310.43,181.07Z"/><path class="cls-8" d="M344.14,154.39a17.44,17.44,0,0,1-3.13,1.18,6,6,0,0,1-1.27.17L397,195.39c-8.32-7.51-36.64-31.48-49.33-42.17A11.37,11.37,0,0,0,344.14,154.39Z"/><path class="cls-8" d="M356.86,153.6c10.84,11,34.59,34.87,40.58,40.32-4.11-5.32-20-23.92-31.25-37A30.78,30.78,0,0,0,356.86,153.6Z"/><path class="cls-8" d="M328.43,160.86a7,7,0,0,1-1.64.7c22.31,11.48,59.12,30.18,69.38,35-9.55-5.86-44.7-25.78-65.71-37.64A7.93,7.93,0,0,1,328.43,160.86Z"/><path class="cls-8" d="M306.33,192.41a6.12,6.12,0,0,1-.78,3.67c27.47,1.1,74.4,2.86,89.29,3.08l.48,0-1.55-.26c-15.86-1.64-61-5.41-87.6-7.57A10.41,10.41,0,0,1,306.33,192.41Z"/><path class="cls-8" d="M319.31,167.34a7.44,7.44,0,0,1-1.34,2.33,6.85,6.85,0,0,1-1.62,1.31c23.71,8.22,63.3,21.85,77.75,26.49l1.77.46C383.7,192.74,343,176.65,319.31,167.34Z"/></g><g class="cls-9"><path class="cls-3" d="M335.49,200.48c0,.47,2.93,1.05,6.62,1s6.62-.74,6.58-1.2-3-.56-6.61-.51S335.53,200,335.49,200.48Z"/><path class="cls-3" d="M343.65,208.87c0-.46-1.91-.75-4.18-.33s-3.92,1.36-3.78,1.8,1.95.27,4.09-.12S343.67,209.35,343.65,208.87Z"/><path class="cls-3" d="M345.94,208.82c.15.46,3.19-.14,6.91-.85s6.76-1.32,6.72-1.8-3.21-.63-7.05.12S345.79,208.38,345.94,208.82Z"/><path class="cls-3" d="M341.57,216.8c-1.51.56-2.6,1.38-2.44,1.82s1.52.34,3-.22,2.6-1.37,2.44-1.81S343.08,216.24,341.57,216.8Z"/><path class="cls-3" d="M352.29,213.86c-.18-.44-1.4-.34-2.74.21s-2.26,1.35-2.08,1.78,1.41.35,2.74-.21S352.47,214.29,352.29,213.86Z"/><path class="cls-3" d="M355.89,213.32c.06.46,2.32.54,4.94-.28s4.45-2.15,4.24-2.56-2.27.17-4.74.93S355.83,212.84,355.89,213.32Z"/><path class="cls-3" d="M346.32,226.5c.26.4,3.53-1.24,7.32-3.65s6.66-4.68,6.4-5.08-3.53,1.24-7.31,3.65S346.07,226.1,346.32,226.5Z"/><path class="cls-3" d="M352.09,232.91c.36.32,2-1,4.05-2.55s3.6-3,3.36-3.38-2.32.36-4.43,2.05S351.75,232.6,352.09,232.91Z"/><path class="cls-3" d="M337.14,191.36c-.13.44,1.76,1.36,4.26,1.79s4.58.22,4.62-.24-1.92-1-4.33-1.44S337.26,190.9,337.14,191.36Z"/><path class="cls-3" d="M350.23,193.32c-.1.45,1.93,1.3,4.56,1.67s4.82.14,4.85-.33-2-1-4.61-1.36S350.34,192.86,350.23,193.32Z"/><path class="cls-3" d="M342.2,183.26c-.17.43,3.35,2.24,8,3.59s8.6,1.72,8.69,1.26-3.64-1.56-8.21-2.89S342.38,182.81,342.2,183.26Z"/><path class="cls-3" d="M355.11,180.2c4.12,2.16,7.72,3.36,7.91,2.94s-3-2.32-7.12-4.45-7.48-3.72-7.73-3.31S351,178.05,355.11,180.2Z"/></g></g></g></svg>