<svg xmlns="http://www.w3.org/2000/svg" viewBox="0 0 512 512"><defs><style>.cls-1{isolation:isolate;}.cls-10,.cls-2{opacity:0.5;}.cls-3{fill:#fff;}.cls-4{fill:#195600;}.cls-5{fill:#278404;}.cls-6{fill:#4fb723;}.cls-7{fill:#247200;}.cls-8{fill:#37ce05;}.cls-9{fill:#57f930;}.cls-10{fill:#c33325;mix-blend-mode:multiply;}.cls-11{opacity:0.2;}</style></defs><g class="cls-1"><g id="Layer_1" data-name="Layer 1"><path class="cls-2" d="M218.41,324.23l-55.24-9.6-9.78-29-1-4.15,3-2.54c19.55-16.27,35.17-29.37,47.72-39.9,51.43-43.14,53.43-44.82,66-45.53h.6c3.58,0,18.94,2.38,45.66,7.08l6.5-5.42,4.82-2.87.79-.28.48-.14.86-.24.33,0a12.88,12.88,0,0,1,1.5-.21l.25,0h.77l.59,0,.29,0,.72.09.75.11,10.27,1.78.25.05h0c5.34,1,9.67,5.08,11.72,11.17a26.79,26.79,0,0,1,.1,15.94c-.07.24-.14.48-.22.72a54.18,54.18,0,0,1,5.14,11.23c9.12,27.49.1,62.47-20.52,79.63-.56.47-1.13.92-1.71,1.36-6.87,5.23-14.5,8-22.09,8.06l-5.6-.45c-12-2.08-21.57-3.71-29.28-5-24.91-4.22-31.25-5.29-36.11-8.07l-15.35,12.77-5.64,4.7Z"/><path class="cls-3" d="M213.08,318.9l-55.24-9.6-9.78-29-1-4.15,3.05-2.54c19.55-16.27,35.17-29.37,47.72-39.9,51.42-43.14,53.43-44.82,66-45.53h.61c3.58,0,18.93,2.38,45.65,7.08l6.51-5.42,4.82-2.87.78-.28.49-.14.86-.24.32,0a13.19,13.19,0,0,1,1.5-.21l.26,0H327l.29,0,.71.09c.25,0,.5.06.76.11L339.05,188l.26.05h0c5.33,1,9.67,5.09,11.72,11.18a26.79,26.79,0,0,1,.1,15.94c-.07.24-.15.48-.22.72a54.18,54.18,0,0,1,5.14,11.23c9.12,27.48.1,62.46-20.53,79.63-.55.46-1.12.92-1.7,1.36-6.87,5.22-14.5,8-22.09,8.06l-5.6-.45c-12-2.08-21.57-3.71-29.28-5-24.91-4.22-31.25-5.29-36.11-8.07l-15.35,12.77-5.64,4.69Z"/><g id="_1_whistle" data-name="1 whistle"><g class="cls-1"><path class="cls-4" d="M338.68,208.29a5.41,5.41,0,0,0-.07-.68v0a5.38,5.38,0,0,0-.22-.9,3,3,0,0,0-2.19-2.2l-10.36-1.8a3,3,0,0,1,2.19,2.2,5.38,5.38,0,0,1,.22.9,7.17,7.17,0,0,1,.07.81v.16a6.79,6.79,0,0,1,0,.78v0q-.06.42-.15.81l0,.14c-.07.25-.15.5-.24.74l-.09.19c-.07.16-.14.32-.22.47s-.18.31-.28.46-.16.25-.25.37l-.12.14a4.34,4.34,0,0,1-.52.53,3.87,3.87,0,0,1-.51.35l-.09.05-.38.16-.18.06a2.36,2.36,0,0,1-.45.08h0a2.33,2.33,0,0,1-.53,0l10.35,1.8.16,0a1.51,1.51,0,0,0,.37,0h0a1.48,1.48,0,0,0,.35-.05l.09,0,.19-.06.18-.06.19-.1.1,0a4.81,4.81,0,0,0,.41-.27l.1-.08a5.21,5.21,0,0,0,.52-.53l.12-.14.12-.16c.05-.06.08-.14.13-.21a4.25,4.25,0,0,0,.27-.46c0-.06.07-.1.1-.16a2.88,2.88,0,0,0,.13-.31,1.08,1.08,0,0,0,.08-.19.3.3,0,0,0,0-.1,4.72,4.72,0,0,0,.18-.53s0-.08,0-.11,0-.09,0-.14l.06-.27c0-.17.06-.34.08-.52v0s0,0,0,0,0-.31,0-.47v-.58Z"/><path class="cls-5" d="M345,201.22c-1.43-4.22-4.25-6.68-7.4-7h-.14c-.31,0-.62,0-.94,0h-.09a3.83,3.83,0,0,0-.67.08l-.43.08-.46.11-.19,0-.09,0s-.06,0-.09,0a4.91,4.91,0,0,0-.5.17l-.06,0-.15.06-.08,0a7.46,7.46,0,0,0-.93.48l-.32.2-.35.23-.35.25c-.17.14-.35.26-.53.4l-6.1,5.09-7.23,6,8.55,25.36,13.33-11.09a17.36,17.36,0,0,0,5.24-8.49A20.58,20.58,0,0,0,345,201.22Zm-6.4,8.58-.06.31a6.29,6.29,0,0,1-.3,1,4.4,4.4,0,0,1-.21.5l-.05.08a3,3,0,0,1-.37.62s0,0,0,0l-.13.17a4.13,4.13,0,0,1-.7.74,2.86,2.86,0,0,1-.3.22l-.12.09a3.24,3.24,0,0,1-.37.19l-.27.1-.17.05a2.18,2.18,0,0,1-.55.07h-.23a3,3,0,0,1-2.36-2.24,6.42,6.42,0,0,1,1.65-6.53,4.73,4.73,0,0,1,.39-.28h0a2.21,2.21,0,0,1,.66-.31h0l.09,0a2.7,2.7,0,0,1,.39-.08,2.26,2.26,0,0,1,.45,0l.21,0a1.81,1.81,0,0,1,.31.09,1.21,1.21,0,0,1,.33.15,2.23,2.23,0,0,1,.32.19l.21.18a3.79,3.79,0,0,1,.6.74,3,3,0,0,1,.2.4c.06.14.13.3.18.45a3.17,3.17,0,0,1,.12.44,2.59,2.59,0,0,1,.09.42,6.08,6.08,0,0,1,.06,1.54A5.51,5.51,0,0,1,338.57,209.8Z"/><path class="cls-6" d="M338.06,194.27c-.16,0-.32,0-.49-.06h-.14c-.31,0-.62,0-.94,0h-.09a3.83,3.83,0,0,0-.67.08l-.43.08a3.85,3.85,0,0,0-.65.16l-.09,0s-.06,0-.09,0a4.91,4.91,0,0,0-.5.17l-.06,0-.15.06-.08,0s0,0-.06,0q-.44.21-.87.45a5.41,5.41,0,0,0-.67.43,9.92,9.92,0,0,0-.88.65l-6.1,5.09-7.23,6-10.35-1.81,7.58-6.31,5.75-4.78.33-.27.19-.13c.24-.17.47-.33.71-.48l.31-.19a6.64,6.64,0,0,1,.88-.45.24.24,0,0,1,.11-.06s0,0,0,0a.76.76,0,0,0,.16-.06c.21-.09.44-.17.65-.24l.28-.07.34-.1.13,0a6.71,6.71,0,0,1,1.08-.16h.11a7,7,0,0,1,.92,0h.14l.5.08Z"/></g><g class="cls-1"><path class="cls-4" d="M246.45,203.92c16.33.56,26.5.81,48.28,15.52S272,268.43,211.51,263h0L199.9,243.06Z"/><path class="cls-7" d="M209.45,288.1l-55.24-9.6,8.47,25.15,55.24,9.59Zm-49.57-4.74,46.68,8.12,5.7,16.9-46.68-8.1Z"/><path class="cls-5" d="M282.89,285.5a58.58,58.58,0,0,1-1.83-6.35c-1.88-8.22-8.55-11.32-14.3-6.54l-26.38,21.95c7.17,5.5,6.55,4.33,66.84,14.8h0C296.86,307.55,287.72,299.22,282.89,285.5Z"/><path class="cls-8" d="M300.56,212.28c18.74-15.59,41.08-8.35,49.42,16.8,8.23,24.81-.05,57.3-18.55,72.7-.49.41-1,.8-1.48,1.18-18,13.71-38.81,6-47.06-17.46a58.58,58.58,0,0,1-1.83-6.35c-1.88-8.22-8.55-11.32-14.3-6.54l-48.83,40.64-8.47-25.15Z"/><path class="cls-9" d="M325.45,204.46c.1,0-56.33-10.22-61.22-9.92-13.12.74-12.8,3.06-110,84l55.25,9.6,91.1-75.82c8.11-6.74,16.88-9.21,24.91-7.8ZM258,242.55l-45.38-7.89,20.11-16.77,45.57,7.91Z"/><polygon class="cls-8" points="212.61 234.66 217.6 235.53 233.19 222.53 232.72 217.88 212.61 234.66"/><polygon class="cls-7" points="278.29 225.8 273.72 229.57 233.19 222.53 232.72 217.88 278.29 225.8"/><polygon class="cls-4" points="212.26 308.38 165.58 300.28 181.41 287.1 206.56 291.47 212.26 308.38"/><polygon class="cls-5" points="181.41 287.1 165.58 300.28 159.88 283.36 181.41 287.1"/></g><ellipse class="cls-9" cx="319.05" cy="259.22" rx="38.47" ry="26.13" transform="translate(9.04 529.18) rotate(-80.14)"/><path class="cls-10" d="M294.82,279.38c-6-17.9-.06-41.44,13.31-52.57,5.24-4.36,10.83-6.16,16.07-5.68-6.08-1.19-28.75,1.62-33.91,33.93-3.36,21,6.63,44.77,25.22,42.32C306.73,297.37,298.73,291,294.82,279.38Z"/><g class="cls-11"><path class="cls-3" d="M309.22,230.3a21.72,21.72,0,0,1,14.89-5.11c9.19.64,17.41,9.05,16.8,15.78-.2,2.12-.68,3.34-1.39,3.94-2.9,2.41-9.65-5.36-16.94-5.46-10.05-.12-20.73,7.63-18.6-1.5A14.92,14.92,0,0,1,309.22,230.3Z"/></g></g></g></g></svg>