<svg id="Layer_1" data-name="Layer 1" xmlns="http://www.w3.org/2000/svg" viewBox="0 0 512 512"><defs><style>.cls-1{opacity:0.5;}.cls-2{fill:#fff;}.cls-3{fill:#63ad00;}.cls-3,.cls-4{stroke:#305106;stroke-miterlimit:10;stroke-width:2px;}.cls-4,.cls-5{fill:#46780a;}.cls-6{fill:#548402;}.cls-7{fill:#91db03;}</style></defs><path class="cls-1" d="M394,373.63a7.69,7.69,0,0,1-7.46-9.53A101.18,101.18,0,0,1,393,346.25a26.58,26.58,0,0,1-4.65-2.11c-12.32-7.1-17-23.08-10.67-36.38,9.24-19.39,25.84-24.35,39.18-28.34,10.42-3.11,17-5.31,20-11.07l3.95-7.46,6.11,5.82c13.28,12.65,22.29,53.79,7.91,78.66a32.27,32.27,0,0,1-27.65,16.42h0a30.9,30.9,0,0,1-15.43-4.18,32.23,32.23,0,0,1-5.3-3.81,84.06,84.06,0,0,0-5,14,7.68,7.68,0,0,1-7.46,5.84Z"/><path class="cls-2" d="M388.63,368.31a7.7,7.7,0,0,1-7.46-9.54,101.1,101.1,0,0,1,6.47-17.84,26.65,26.65,0,0,1-4.65-2.11c-12.33-7.1-17-23.09-10.68-36.39,9.24-19.38,25.84-24.35,39.18-28.33,10.42-3.12,17-5.32,20-11.08l3.95-7.46,6.11,5.82c13.28,12.66,22.29,53.79,7.92,78.66a32.28,32.28,0,0,1-27.66,16.42h0a30.91,30.91,0,0,1-15.44-4.18,31.49,31.49,0,0,1-5.3-3.81,85.9,85.9,0,0,0-5,14,7.73,7.73,0,0,1-7.46,5.85Z"/><path class="cls-3" d="M443.94,336.85c-7.1,12.29-22.05,17-34.37,9.9a26.51,26.51,0,0,1-10.42-11.06,19.59,19.59,0,0,1-13-2.41c-9.73-5.6-12.94-17.95-8.1-28.1,14.35-30.1,49-20.08,59.07-39.17C447.81,276.17,457.12,314.05,443.94,336.85Z"/><path class="cls-4" d="M389,361.86a1.29,1.29,0,0,1-1.61-1.55A96.13,96.13,0,0,1,398.07,335a1.29,1.29,0,1,1,2.17,1.39,93.26,93.26,0,0,0-10.35,24.55A1.3,1.3,0,0,1,389,361.86Z"/><path class="cls-5" d="M399.52,336.93a1.29,1.29,0,0,1-1.5-1.85c4.56-8.61,11.69-15,18.59-22.47a1.29,1.29,0,0,1,1.9,1.75c-6.85,7.41-13.85,13.7-18.21,21.93A1.29,1.29,0,0,1,399.52,336.93Z"/><path class="cls-5" d="M432.79,290.05c-3.36,10.11-7.61,16.32-14.28,24.31a1.29,1.29,0,1,1-1.9-1.75C425.43,304,429.39,297.81,432.79,290.05Z"/><path class="cls-5" d="M417.68,312.11l20.13-4.46-19.41,6.94a1.29,1.29,0,1,1-.72-2.48Z"/><path class="cls-5" d="M405.26,324.7l-5.53-23.86,8,23.14a1.3,1.3,0,1,1-2.49.72Z"/><path class="cls-6" d="M440.57,271s22.54,38.82-.75,70.92c0,0-18.93,19.39-37.29-2.14,0,0,24,18.21,37.72-2.07S446.42,285.25,440.57,271Z"/><path class="cls-7" d="M401,285.49s-41.42,19.33-13.66,46.39C387.34,331.88,362.52,308.73,401,285.49Z"/><path class="cls-1" d="M287.42,373.63A7.69,7.69,0,0,1,280,364.1a102,102,0,0,1,6.46-17.85,26.16,26.16,0,0,1-4.64-2.11c-12.33-7.1-17-23.08-10.68-36.38,9.24-19.39,25.84-24.35,39.18-28.34,10.42-3.11,17-5.31,20-11.07l3.95-7.46,6.11,5.82c13.28,12.65,22.29,53.79,7.92,78.66a32.3,32.3,0,0,1-27.66,16.42h0a30.9,30.9,0,0,1-15.43-4.18,32.23,32.23,0,0,1-5.3-3.81,84.06,84.06,0,0,0-5,14,7.68,7.68,0,0,1-7.46,5.84Z"/><path class="cls-2" d="M282.09,368.31a7.7,7.7,0,0,1-7.46-9.54,101.1,101.1,0,0,1,6.47-17.84,26.65,26.65,0,0,1-4.65-2.11c-12.33-7.1-17-23.09-10.68-36.39C275,283.05,291.61,278.08,305,274.1c10.42-3.12,17-5.32,20-11.08l3.95-7.46,6.1,5.82C348.3,274,357.31,315.17,342.94,340a32.28,32.28,0,0,1-27.66,16.42h0a30.94,30.94,0,0,1-15.44-4.18,31.49,31.49,0,0,1-5.3-3.81,85.9,85.9,0,0,0-5,14,7.73,7.73,0,0,1-7.46,5.85Z"/><path class="cls-3" d="M337.4,336.85c-7.1,12.29-22,17-34.37,9.9a26.51,26.51,0,0,1-10.42-11.06,19.59,19.59,0,0,1-13-2.41c-9.73-5.6-12.94-17.95-8.1-28.1,14.35-30.1,49-20.08,59.07-39.17C341.27,276.17,350.58,314.05,337.4,336.85Z"/><path class="cls-4" d="M282.45,361.86a1.29,1.29,0,0,1-1.61-1.55A96.13,96.13,0,0,1,291.53,335a1.29,1.29,0,1,1,2.17,1.39,93.26,93.26,0,0,0-10.35,24.55A1.3,1.3,0,0,1,282.45,361.86Z"/><path class="cls-5" d="M293,336.93a1.29,1.29,0,0,1-1.5-1.85c4.56-8.61,11.69-15,18.59-22.47a1.29,1.29,0,0,1,1.9,1.75c-6.85,7.41-13.85,13.7-18.21,21.93A1.29,1.29,0,0,1,293,336.93Z"/><path class="cls-5" d="M326.25,290.05c-3.36,10.11-7.61,16.32-14.28,24.31a1.29,1.29,0,1,1-1.9-1.75C318.89,304,322.86,297.81,326.25,290.05Z"/><path class="cls-5" d="M311.14,312.11l20.13-4.46-19.41,6.94a1.29,1.29,0,1,1-.72-2.48Z"/><path class="cls-5" d="M298.73,324.7l-5.54-23.86,8,23.14a1.29,1.29,0,1,1-2.48.72Z"/><path class="cls-6" d="M334,271s22.54,38.82-.75,70.92c0,0-18.93,19.39-37.29-2.14,0,0,24,18.21,37.72-2.07S339.88,285.25,334,271Z"/><path class="cls-7" d="M294.46,285.49S253,304.82,280.8,331.88C280.8,331.88,256,308.73,294.46,285.49Z"/><path class="cls-1" d="M180.88,373.63a7.69,7.69,0,0,1-7.46-9.53,102,102,0,0,1,6.46-17.85,26.16,26.16,0,0,1-4.64-2.11c-12.33-7.1-17-23.08-10.68-36.38,9.24-19.39,25.84-24.35,39.18-28.34,10.42-3.11,17-5.31,20-11.07l3.95-7.46,6.11,5.82c13.28,12.65,22.29,53.79,7.92,78.66a32.3,32.3,0,0,1-27.66,16.42h0a30.91,30.91,0,0,1-15.44-4.18,32.66,32.66,0,0,1-5.3-3.81,85,85,0,0,0-5,14,7.68,7.68,0,0,1-7.46,5.84Z"/><path class="cls-2" d="M175.55,368.31a7.69,7.69,0,0,1-7.45-9.54,100.28,100.28,0,0,1,6.46-17.84,27,27,0,0,1-4.65-2.11c-12.33-7.1-17-23.09-10.68-36.39,9.25-19.38,25.84-24.35,39.18-28.33,10.42-3.12,17-5.32,20-11.08l3.95-7.46,6.11,5.82C241.76,274,250.77,315.17,236.4,340a32.27,32.27,0,0,1-27.66,16.42h0a31,31,0,0,1-15.44-4.18,31.49,31.49,0,0,1-5.3-3.81,85.9,85.9,0,0,0-5,14,7.73,7.73,0,0,1-7.46,5.85Z"/><path class="cls-3" d="M230.86,336.85c-7.1,12.29-22.05,17-34.37,9.9a26.51,26.51,0,0,1-10.42-11.06,19.59,19.59,0,0,1-13-2.41c-9.72-5.6-12.93-17.95-8.1-28.1,14.35-30.1,49-20.08,59.08-39.17C234.73,276.17,244,314.05,230.86,336.85Z"/><path class="cls-4" d="M175.91,361.86a1.29,1.29,0,0,1-1.61-1.55A96.13,96.13,0,0,1,185,335a1.29,1.29,0,1,1,2.17,1.39,93.26,93.26,0,0,0-10.35,24.55A1.3,1.3,0,0,1,175.91,361.86Z"/><path class="cls-5" d="M186.44,336.93a1.29,1.29,0,0,1-1.5-1.85c4.56-8.61,11.69-15,18.59-22.47a1.29,1.29,0,0,1,1.9,1.75c-6.85,7.41-13.85,13.7-18.21,21.93A1.29,1.29,0,0,1,186.44,336.93Z"/><path class="cls-5" d="M219.71,290.05c-3.36,10.11-7.61,16.32-14.28,24.31a1.29,1.29,0,1,1-1.9-1.75C212.36,304,216.32,297.81,219.71,290.05Z"/><path class="cls-5" d="M204.61,312.11l20.13-4.46-19.42,6.94a1.29,1.29,0,1,1-.71-2.48Z"/><path class="cls-5" d="M192.19,324.7l-5.54-23.86,8,23.14a1.29,1.29,0,1,1-2.48.72Z"/><path class="cls-6" d="M227.49,271s22.54,38.82-.75,70.92c0,0-18.93,19.39-37.29-2.14,0,0,24,18.21,37.72-2.07S233.34,285.25,227.49,271Z"/><path class="cls-7" d="M187.92,285.49s-41.42,19.33-13.66,46.39C174.26,331.88,149.44,308.73,187.92,285.49Z"/><path class="cls-1" d="M74.34,373.63a7.69,7.69,0,0,1-7.46-9.53,101.2,101.2,0,0,1,6.47-17.85,25.93,25.93,0,0,1-4.65-2.11c-12.33-7.1-17-23.08-10.68-36.38,9.24-19.39,25.84-24.35,39.18-28.34,10.42-3.11,17-5.31,20-11.07l4-7.46,6.11,5.82c13.28,12.65,22.29,53.79,7.92,78.66a32.3,32.3,0,0,1-27.66,16.42h0a30.91,30.91,0,0,1-15.44-4.18,32.66,32.66,0,0,1-5.3-3.81,85,85,0,0,0-5,14,7.68,7.68,0,0,1-7.46,5.84Z"/><path class="cls-2" d="M69,368.31a7.69,7.69,0,0,1-7.45-9.54A100.28,100.28,0,0,1,68,340.93a27,27,0,0,1-4.65-2.11c-12.33-7.1-17-23.09-10.68-36.39,9.25-19.38,25.84-24.35,39.18-28.33,10.42-3.12,17-5.32,20-11.08l4-7.46,6.11,5.82c13.27,12.66,22.28,53.79,7.91,78.66a32.27,32.27,0,0,1-27.66,16.42h0a31,31,0,0,1-15.44-4.18,31.49,31.49,0,0,1-5.3-3.81,85.9,85.9,0,0,0-5,14A7.73,7.73,0,0,1,69,368.31Z"/><path class="cls-3" d="M124.32,336.85c-7.1,12.29-22,17-34.37,9.9a26.42,26.42,0,0,1-10.41-11.06,19.6,19.6,0,0,1-13-2.41c-9.72-5.6-12.93-17.95-8.1-28.1,14.35-30.1,49-20.08,59.08-39.17C128.19,276.17,137.5,314.05,124.32,336.85Z"/><path class="cls-4" d="M69.37,361.86a1.29,1.29,0,0,1-1.61-1.55A96.13,96.13,0,0,1,78.45,335a1.29,1.29,0,1,1,2.17,1.39,93.26,93.26,0,0,0-10.35,24.55A1.3,1.3,0,0,1,69.37,361.86Z"/><path class="cls-5" d="M79.9,336.93a1.3,1.3,0,0,1-1.5-1.85c4.56-8.61,11.69-15,18.6-22.47a1.29,1.29,0,1,1,1.89,1.75C92,321.77,85,328.06,80.68,336.29A1.29,1.29,0,0,1,79.9,336.93Z"/><path class="cls-5" d="M113.17,290.05c-3.36,10.11-7.61,16.32-14.28,24.31A1.29,1.29,0,1,1,97,312.61C105.82,304,109.78,297.81,113.17,290.05Z"/><path class="cls-5" d="M98.07,312.11l20.13-4.46-19.42,6.94a1.29,1.29,0,1,1-.71-2.48Z"/><path class="cls-5" d="M85.65,324.7l-5.54-23.86,8,23.14a1.29,1.29,0,1,1-2.48.72Z"/><path class="cls-6" d="M121,271s22.55,38.82-.75,70.92c0,0-18.93,19.39-37.29-2.14,0,0,24,18.21,37.72-2.07S126.8,285.25,121,271Z"/><path class="cls-7" d="M81.39,285.49S40,304.82,67.72,331.88C67.72,331.88,42.9,308.73,81.39,285.49Z"/><path class="cls-1" d="M394,256.44a7.69,7.69,0,0,1-7.46-9.53A100.89,100.89,0,0,1,393,229.06a26.58,26.58,0,0,1-4.65-2.11c-12.32-7.1-17-23.08-10.67-36.38,9.24-19.39,25.84-24.35,39.18-28.34,10.42-3.12,17-5.32,20-11.08l3.95-7.46,6.11,5.83c13.28,12.65,22.29,53.79,7.91,78.66a32.27,32.27,0,0,1-27.65,16.42h0a31,31,0,0,1-15.43-4.18,32.23,32.23,0,0,1-5.3-3.81,84,84,0,0,0-5,14,7.67,7.67,0,0,1-7.46,5.85Z"/><path class="cls-2" d="M388.63,251.11a7.69,7.69,0,0,1-7.46-9.53,101.2,101.2,0,0,1,6.47-17.85,25.93,25.93,0,0,1-4.65-2.11c-12.33-7.1-17-23.08-10.68-36.38,9.24-19.39,25.84-24.35,39.18-28.34,10.42-3.11,17-5.31,20-11.07l3.95-7.46,6.11,5.82c13.28,12.65,22.29,53.79,7.92,78.66a32.28,32.28,0,0,1-27.66,16.42h0a30.91,30.91,0,0,1-15.44-4.18,32.66,32.66,0,0,1-5.3-3.81,85.9,85.9,0,0,0-5,14,7.68,7.68,0,0,1-7.46,5.84Z"/><path class="cls-3" d="M443.94,219.65c-7.1,12.3-22.05,17-34.37,9.9a26.45,26.45,0,0,1-10.42-11.06,19.53,19.53,0,0,1-13-2.41c-9.73-5.6-12.94-18-8.1-28.09,14.35-30.1,49-20.08,59.07-39.17C447.81,159,457.12,196.85,443.94,219.65Z"/><path class="cls-4" d="M389,244.67a1.29,1.29,0,0,1-1.61-1.55,96.13,96.13,0,0,1,10.69-25.32,1.29,1.29,0,1,1,2.17,1.39,93.26,93.26,0,0,0-10.35,24.55A1.3,1.3,0,0,1,389,244.67Z"/><path class="cls-5" d="M399.52,219.74a1.29,1.29,0,0,1-1.5-1.85c4.56-8.61,11.69-15,18.59-22.47a1.29,1.29,0,0,1,1.9,1.75c-6.85,7.41-13.85,13.69-18.21,21.93A1.33,1.33,0,0,1,399.52,219.74Z"/><path class="cls-5" d="M432.79,172.85c-3.36,10.12-7.61,16.33-14.28,24.32a1.29,1.29,0,1,1-1.9-1.75C425.43,186.75,429.39,180.62,432.79,172.85Z"/><path class="cls-5" d="M417.68,194.92l20.13-4.46L418.4,197.4a1.29,1.29,0,1,1-.72-2.48Z"/><path class="cls-5" d="M405.26,207.5l-5.53-23.85,8,23.14a1.3,1.3,0,1,1-2.49.71Z"/><path class="cls-6" d="M440.57,153.77s22.54,38.81-.75,70.92c0,0-18.93,19.38-37.29-2.15,0,0,24,18.22,37.72-2.06S446.42,168.05,440.57,153.77Z"/><path class="cls-7" d="M401,168.29s-41.42,19.34-13.66,46.39C387.34,214.68,362.52,191.54,401,168.29Z"/><path class="cls-1" d="M287.42,256.44a7.69,7.69,0,0,1-7.46-9.53,101.68,101.68,0,0,1,6.46-17.85,26.16,26.16,0,0,1-4.64-2.11c-12.33-7.1-17-23.08-10.68-36.38,9.24-19.39,25.84-24.35,39.18-28.34,10.42-3.12,17-5.32,20-11.08l3.95-7.46,6.11,5.83c13.28,12.65,22.29,53.79,7.92,78.66a32.3,32.3,0,0,1-27.66,16.42h0a31,31,0,0,1-15.43-4.18,32.23,32.23,0,0,1-5.3-3.81,84,84,0,0,0-5,14,7.67,7.67,0,0,1-7.46,5.85Z"/><path class="cls-2" d="M282.09,251.11a7.69,7.69,0,0,1-7.46-9.53,101.2,101.2,0,0,1,6.47-17.85,25.93,25.93,0,0,1-4.65-2.11c-12.33-7.1-17-23.08-10.68-36.38C275,165.85,291.61,160.89,305,156.9c10.42-3.11,17-5.31,20-11.07l3.95-7.46,6.1,5.82c13.28,12.65,22.29,53.79,7.92,78.66a32.28,32.28,0,0,1-27.66,16.42h0a30.94,30.94,0,0,1-15.44-4.18,32.66,32.66,0,0,1-5.3-3.81,85.9,85.9,0,0,0-5,14,7.68,7.68,0,0,1-7.46,5.84Z"/><path class="cls-3" d="M337.4,219.65c-7.1,12.3-22,17-34.37,9.9a26.45,26.45,0,0,1-10.42-11.06,19.53,19.53,0,0,1-13-2.41c-9.73-5.6-12.94-18-8.1-28.09,14.35-30.1,49-20.08,59.07-39.17C341.27,159,350.58,196.85,337.4,219.65Z"/><path class="cls-4" d="M282.45,244.67a1.29,1.29,0,0,1-1.61-1.55,96.13,96.13,0,0,1,10.69-25.32,1.29,1.29,0,1,1,2.17,1.39,93.26,93.26,0,0,0-10.35,24.55A1.3,1.3,0,0,1,282.45,244.67Z"/><path class="cls-5" d="M293,219.74a1.29,1.29,0,0,1-1.5-1.85c4.56-8.61,11.69-15,18.59-22.47a1.29,1.29,0,0,1,1.9,1.75c-6.85,7.41-13.85,13.69-18.21,21.93A1.33,1.33,0,0,1,293,219.74Z"/><path class="cls-5" d="M326.25,172.85c-3.36,10.12-7.61,16.33-14.28,24.32a1.29,1.29,0,1,1-1.9-1.75C318.89,186.75,322.86,180.62,326.25,172.85Z"/><path class="cls-5" d="M311.14,194.92l20.13-4.46-19.41,6.94a1.29,1.29,0,1,1-.72-2.48Z"/><path class="cls-5" d="M298.73,207.5l-5.54-23.85,8,23.14a1.29,1.29,0,1,1-2.48.71Z"/><path class="cls-6" d="M334,153.77s22.54,38.81-.75,70.92c0,0-18.93,19.38-37.29-2.15,0,0,24,18.22,37.72-2.06S339.88,168.05,334,153.77Z"/><path class="cls-7" d="M294.46,168.29S253,187.63,280.8,214.68C280.8,214.68,256,191.54,294.46,168.29Z"/><path class="cls-1" d="M180.88,256.44a7.69,7.69,0,0,1-7.46-9.53,101.68,101.68,0,0,1,6.46-17.85,26.16,26.16,0,0,1-4.64-2.11c-12.33-7.1-17-23.08-10.68-36.38,9.24-19.39,25.84-24.35,39.18-28.34,10.42-3.12,17-5.32,20-11.08l3.95-7.46,6.11,5.83c13.28,12.65,22.29,53.79,7.92,78.66a32.3,32.3,0,0,1-27.66,16.42h0a31,31,0,0,1-15.44-4.18,32.66,32.66,0,0,1-5.3-3.81,84.86,84.86,0,0,0-5,14,7.67,7.67,0,0,1-7.46,5.85Z"/><path class="cls-2" d="M175.55,251.11a7.68,7.68,0,0,1-7.45-9.53,100.39,100.39,0,0,1,6.46-17.85,26.25,26.25,0,0,1-4.65-2.11c-12.33-7.1-17-23.08-10.68-36.38,9.25-19.39,25.84-24.35,39.18-28.34,10.42-3.11,17-5.31,20-11.07l3.95-7.46,6.11,5.82c13.27,12.65,22.28,53.79,7.91,78.66a32.27,32.27,0,0,1-27.66,16.42h0a31,31,0,0,1-15.44-4.18,32.66,32.66,0,0,1-5.3-3.81,85.9,85.9,0,0,0-5,14,7.68,7.68,0,0,1-7.46,5.84Z"/><path class="cls-3" d="M230.86,219.65c-7.1,12.3-22.05,17-34.37,9.9a26.45,26.45,0,0,1-10.42-11.06,19.53,19.53,0,0,1-13-2.41c-9.72-5.6-12.93-18-8.1-28.09,14.35-30.1,49-20.08,59.08-39.17C234.73,159,244,196.85,230.86,219.65Z"/><path class="cls-4" d="M175.91,244.67a1.29,1.29,0,0,1-1.61-1.55A96.13,96.13,0,0,1,185,217.8a1.29,1.29,0,1,1,2.17,1.39,93.26,93.26,0,0,0-10.35,24.55A1.3,1.3,0,0,1,175.91,244.67Z"/><path class="cls-5" d="M186.44,219.74a1.29,1.29,0,0,1-1.5-1.85c4.56-8.61,11.69-15,18.59-22.47a1.29,1.29,0,0,1,1.9,1.75c-6.85,7.41-13.85,13.69-18.21,21.93A1.33,1.33,0,0,1,186.44,219.74Z"/><path class="cls-5" d="M219.71,172.85c-3.36,10.12-7.61,16.33-14.28,24.32a1.29,1.29,0,1,1-1.9-1.75C212.36,186.75,216.32,180.62,219.71,172.85Z"/><path class="cls-5" d="M204.61,194.92l20.13-4.46-19.42,6.94a1.29,1.29,0,1,1-.71-2.48Z"/><path class="cls-5" d="M192.19,207.5l-5.54-23.85,8,23.14a1.29,1.29,0,1,1-2.48.71Z"/><path class="cls-6" d="M227.49,153.77s22.54,38.81-.75,70.92c0,0-18.93,19.38-37.29-2.15,0,0,24,18.22,37.72-2.06S233.34,168.05,227.49,153.77Z"/><path class="cls-7" d="M187.92,168.29s-41.42,19.34-13.66,46.39C174.26,214.68,149.44,191.54,187.92,168.29Z"/><path class="cls-1" d="M74.34,256.44a7.69,7.69,0,0,1-7.46-9.53,100.91,100.91,0,0,1,6.47-17.85A25.93,25.93,0,0,1,68.7,227c-12.33-7.1-17-23.08-10.68-36.38,9.24-19.39,25.84-24.35,39.18-28.34,10.42-3.12,17-5.32,20-11.08l4-7.46,6.11,5.83c13.28,12.65,22.29,53.79,7.92,78.66a32.3,32.3,0,0,1-27.66,16.42h0a31,31,0,0,1-15.44-4.18,32.66,32.66,0,0,1-5.3-3.81,84.86,84.86,0,0,0-5,14,7.67,7.67,0,0,1-7.46,5.85Z"/><path class="cls-2" d="M69,251.11a7.68,7.68,0,0,1-7.45-9.53A100.39,100.39,0,0,1,68,223.73a26.25,26.25,0,0,1-4.65-2.11c-12.33-7.1-17-23.08-10.68-36.38,9.25-19.39,25.84-24.35,39.18-28.34,10.42-3.11,17-5.31,20-11.07l4-7.46,6.11,5.82c13.27,12.65,22.28,53.79,7.91,78.66a32.27,32.27,0,0,1-27.66,16.42h0a31,31,0,0,1-15.44-4.18,32.66,32.66,0,0,1-5.3-3.81,85.9,85.9,0,0,0-5,14A7.68,7.68,0,0,1,69,251.11Z"/><path class="cls-3" d="M124.32,219.65c-7.1,12.3-22,17-34.37,9.9a26.36,26.36,0,0,1-10.41-11.06,19.54,19.54,0,0,1-13-2.41c-9.72-5.6-12.93-18-8.1-28.09,14.35-30.1,49-20.08,59.08-39.17C128.19,159,137.5,196.85,124.32,219.65Z"/><path class="cls-4" d="M69.37,244.67a1.29,1.29,0,0,1-1.61-1.55A96.13,96.13,0,0,1,78.45,217.8a1.29,1.29,0,0,1,2.17,1.39,93.26,93.26,0,0,0-10.35,24.55A1.3,1.3,0,0,1,69.37,244.67Z"/><path class="cls-5" d="M79.9,219.74a1.3,1.3,0,0,1-1.5-1.85c4.56-8.61,11.69-15,18.6-22.47a1.29,1.29,0,1,1,1.89,1.75C92,204.58,85,210.86,80.68,219.1A1.33,1.33,0,0,1,79.9,219.74Z"/><path class="cls-5" d="M113.17,172.85c-3.36,10.12-7.61,16.33-14.28,24.32A1.29,1.29,0,1,1,97,195.42C105.82,186.75,109.78,180.62,113.17,172.85Z"/><path class="cls-5" d="M98.07,194.92l20.13-4.46L98.78,197.4a1.29,1.29,0,1,1-.71-2.48Z"/><path class="cls-5" d="M85.65,207.5l-5.54-23.85,8,23.14a1.29,1.29,0,1,1-2.48.71Z"/><path class="cls-6" d="M121,153.77s22.55,38.81-.75,70.92c0,0-18.93,19.38-37.29-2.15,0,0,24,18.22,37.72-2.06S126.8,168.05,121,153.77Z"/><path class="cls-7" d="M81.39,168.29S40,187.63,67.72,214.68C67.72,214.68,42.9,191.54,81.39,168.29Z"/></svg>