<svg id="Layer_1" data-name="Layer 1" xmlns="http://www.w3.org/2000/svg" viewBox="0 0 512 512"><defs><style>.cls-1{fill:#92ff9f;}</style></defs><path class="cls-1" d="M345.13,377.53l-.59-.09h-77.1c17-19.55,39.82-49.53,51-64.25,2.88-3.8,5.16-6.79,6-7.84,4.33-5.42,105.18-133.52,23.67-209.53C321.93,71.39,292.84,59,261.68,59c-19,0-48.6,4.86-81.83,28-.49.34-.87.61-1.15.79-6.87,4.58-35,28.81-36.69,55.28-.78,12.1,4.13,23.12,14.18,31.87l.15.13.16.12c7.36,5.78,15,8.71,22.72,8.71,21.09,0,34.31-21.86,37.12-27,15.63-17.31,33.15-21,45.17-21a52.7,52.7,0,0,1,13,1.53c15.06,7.23,23.92,16.47,27.07,28.22,7.67,28.55-19,67.12-38.48,95.29-1.77,2.57-3.49,5-5.11,7.42-25.69,37.64-94.36,102-99.76,107-25.37,18.69-26.2,34.93-26.07,38.32.58,32.26,25,38.74,26.05,39l1,.24H344.8c10.25,0,31.4-9.13,31.4-37.35C376.2,389.16,355.88,379.13,345.13,377.53ZM344.81,445H160.17s-19.57-4.89-20-31.48c0,0-1.28-14,23.19-31.91,0,0,73.81-68.5,101.25-108.7s81.68-110.4,12.76-143c0,0-37.36-12-67.64,22.34,0,0-19.57,39.14-48.29,16.59-32.76-28.5,14-69.34,21.7-74.45S267,31.05,342.68,101.67,323.32,294,318.22,300.35s-50.84,68.07-69.28,85.09h95s24.25,3.62,24.25,30.2S347.15,445,344.81,445Z"/></svg>