<svg id="Layer_1" data-name="Layer 1" xmlns="http://www.w3.org/2000/svg" viewBox="0 0 512 512"><defs><style>.cls-1{fill:#fff;isolation:isolate;}</style></defs><path class="cls-1" d="M367.69,269.55H355.26V201.26a33.22,33.22,0,1,0-66.43,0v68.29h-102l.44-181.14A32.33,32.33,0,0,0,155,56h-.14a32.33,32.33,0,0,0-32.2,32.49l-5,218.83a29,29,0,0,0,29,29.72H186.7v-.42H288.83v86.16a33.22,33.22,0,1,0,66.43,0V336.62h12.43a26.76,26.76,0,0,0,26.73-26.73V296.27A26.76,26.76,0,0,0,367.69,269.55Zm18.72,40.34a18.73,18.73,0,0,1-18.72,18.73H347.26v94.16a25.22,25.22,0,1,1-50.43,0V328.62H178.72V329H146.64a21.05,21.05,0,0,1-21-21.53l5-219A24.32,24.32,0,0,1,154.86,64h0A24.34,24.34,0,0,1,179.3,88.39l-.46,189.16h118V201.26a25.22,25.22,0,1,1,50.43,0v76.29h20.43a18.72,18.72,0,0,1,18.72,18.72Z"/></svg>