<svg id="Layer_1" data-name="Layer 1" xmlns="http://www.w3.org/2000/svg" viewBox="0 0 512 512"><defs><style>.cls-1{fill:#ff5dad;}</style></defs><path class="cls-1" d="M367.69,277.55H347.26V201.26A25.22,25.22,0,0,0,322,176h0a25.22,25.22,0,0,0-25.21,25.22v76.29h-118l.46-189.16A24.34,24.34,0,0,0,154.86,64h0a24.32,24.32,0,0,0-24.22,24.55l-5,219a21.05,21.05,0,0,0,21,21.53h32.08v-.42H296.83v94.16A25.22,25.22,0,0,0,322,448h0a25.22,25.22,0,0,0,25.22-25.22V328.62h20.43a18.73,18.73,0,0,0,18.72-18.73V296.27A18.72,18.72,0,0,0,367.69,277.55Z"/></svg>