<svg id="Layer_1" data-name="Layer 1" xmlns="http://www.w3.org/2000/svg" viewBox="0 0 512 512"><defs><style>.cls-1{fill:#92ff9f;}</style></defs><path class="cls-1" d="M256,284.29c-28.41,0-51.45,24.16-51.45,53.95s23,53.95,51.45,53.95,51.45-24.15,51.45-53.95S284.41,284.29,256,284.29Zm0,99.9c-24,0-43.45-20.61-43.45-45.95S232,292.29,256,292.29s43.45,20.61,43.45,45.95S280,384.19,256,384.19Z"/><path class="cls-1" d="M256,119.81c-28.41,0-51.45,24.15-51.45,53.95s23,54,51.45,54,51.45-24.16,51.45-54S284.41,119.81,256,119.81Zm0,99.9c-24,0-43.45-20.61-43.45-46S232,127.81,256,127.81s43.45,20.61,43.45,45.95S280,219.71,256,219.71Z"/><path class="cls-1" d="M368.67,173.76C368.67,108.83,318.13,56,256,56S143.33,108.83,143.33,173.76a120.73,120.73,0,0,0,32,82.24,120.73,120.73,0,0,0-32,82.24C143.33,403.17,193.87,456,256,456s112.67-52.83,112.67-117.76a120.73,120.73,0,0,0-32-82.24A120.73,120.73,0,0,0,368.67,173.76Zm-8,164.48C360.67,398.86,313.81,448,256,448S151.33,398.86,151.33,338.24A111.86,111.86,0,0,1,186.69,256a111.86,111.86,0,0,1-35.36-82.24C151.33,113.14,198.19,64,256,64s104.67,49.14,104.67,109.76A111.86,111.86,0,0,1,325.31,256,111.86,111.86,0,0,1,360.67,338.24Z"/></svg>