<svg id="Layer_1" data-name="Layer 1" xmlns="http://www.w3.org/2000/svg" viewBox="0 0 512 512"><defs><style>.cls-1{fill:#999;}</style></defs><path class="cls-1" d="M325.31,256a111.86,111.86,0,0,0,35.36-82.24C360.67,113.14,313.81,64,256,64S151.33,113.14,151.33,173.76A111.86,111.86,0,0,0,186.69,256a111.86,111.86,0,0,0-35.36,82.24C151.33,398.86,198.19,448,256,448s104.67-49.14,104.67-109.76A111.86,111.86,0,0,0,325.31,256ZM256,119.81c28.41,0,51.45,24.15,51.45,53.95s-23,54-51.45,54-51.45-24.16-51.45-54S227.59,119.81,256,119.81Zm0,272.38c-28.41,0-51.45-24.15-51.45-53.95s23-53.95,51.45-53.95,51.45,24.16,51.45,53.95S284.41,392.19,256,392.19Z"/></svg>