<svg id="bb666974-4e25-45ac-8f8d-e7e978e78760" data-name="Layer 1" xmlns="http://www.w3.org/2000/svg" xmlns:xlink="http://www.w3.org/1999/xlink" width="1600" height="900" viewBox="0 0 1600 900">
  <defs>
    <style>
      .ffed5b35-1882-4aa0-b1fa-c28074893ae4 {
        fill: none;
      }

      .e61f44e3-8f17-43be-b72c-115028f781bd {
        clip-path: url(#af6b9ba5-ac29-4bc1-acb1-e90727eceba7);
      }

      .b2a4b94c-0751-430c-8747-d940d43944be {
        fill: url(#e6a96ecf-e8c5-4a7c-b826-96f636761b20);
      }

      .f225b10f-8367-40f6-8a85-ecbb7fb1976a {
        fill: url(#fba236c6-abe2-4ae1-8617-307b65c00640);
      }

      .a82ef89e-a1dc-4ae9-84a7-c9589d133243 {
        fill: url(#f7efc616-fd71-404f-81c6-55edc991be87);
      }

      .a5c45b84-0ec5-47e7-9e0e-82e8f7521081 {
        fill: url(#b17130b3-eaa0-4e24-bbf9-baa75a49f1a7);
      }

      .ec05271f-9bad-46e4-b96a-74df76d8111b {
        fill: #5ccae5;
      }

      .e8a964a0-e988-4161-b229-8e5751c9dbaa {
        fill: #e69847;
      }

      .e90cdb66-ceab-4130-9c1c-0bb902438bdc {
        fill: #cc7e48;
      }

      .f26e10a5-601e-4b08-9ab2-fe23f0c14b5f {
        fill: #41b2a9;
      }

      .aafc935d-f62d-424f-8f10-a35afce06d7a {
        fill: #3daa9a;
      }

      .b314fba0-2548-42b8-988a-0073f1d05b56 {
        fill: #68b4a8;
        opacity: 0.89;
      }

      .be95165a-1f89-42b7-9802-a9fbaab5510b {
        fill: #5a796c;
      }

      .a628dc73-644d-4a80-b405-86f0950b63b2 {
        fill: #46685c;
      }

      .abc3e394-e32f-4ef6-be5a-25e2c8202196 {
        fill: #468678;
      }

      .ba6321ae-2410-484a-88d1-4ac3135318dd {
        fill: #4b863e;
      }

      .b23e8c2e-101a-494b-be2a-132dee8de83a {
        fill: #1d9045;
      }

      .a37fea67-cf26-46a9-a1ea-5cc2ebbef3c8, .afac693e-2edd-4443-af89-4fc783fa0bb2, .b6eab144-56f6-40f4-b43c-9411bda6f59b {
        fill: #517d1b;
      }

      .e2447d1b-7fd6-4ea8-9f33-4fa28072c4c6 {
        fill: #147139;
      }

      .f4bb73ca-b76f-4247-bfd1-06632e2d32d8 {
        fill: #147239;
      }

      .aa9e1f1b-2733-451d-8c0f-faab8516657a {
        fill: #329a4e;
      }

      .a37fea67-cf26-46a9-a1ea-5cc2ebbef3c8 {
        opacity: 0.6;
      }

      .ba1f7fc1-753e-43bd-8cfa-968e0f1088e9 {
        fill: #2f9f56;
      }

      .afac693e-2edd-4443-af89-4fc783fa0bb2 {
        opacity: 0.72;
      }

      .b155351f-fca2-4621-9a4d-60ee0e54f354 {
        fill: #468476;
      }

      .a051d3d5-ebe9-4e2d-bbd4-4c4aa318f364, .a578428d-ef32-4866-9130-4e32e5e8d810, .e73a6866-6979-4061-93f8-115e85aeeaea {
        fill: #fff;
      }

      .a051d3d5-ebe9-4e2d-bbd4-4c4aa318f364 {
        opacity: 0.23;
      }

      .a578428d-ef32-4866-9130-4e32e5e8d810 {
        opacity: 0.66;
      }

      .e73a6866-6979-4061-93f8-115e85aeeaea {
        opacity: 0.9;
      }

      .fcd4dffa-1cfe-4afb-bd65-d2b2a6187af8 {
        fill: url(#bc19915b-abc5-4f45-bd60-bcacaeb2ae28);
      }

      .b0779d04-e949-487c-b37b-01c1f8381248, .b9bf5e95-07ad-4058-b2eb-b63d682be33e {
        fill: #d88a50;
      }

      .b9bf5e95-07ad-4058-b2eb-b63d682be33e {
        opacity: 0.84;
      }

      .a052349b-d004-45de-8e33-9953fa446fc6 {
        fill: #fdf5ed;
      }

      .b0dfabea-bebc-4670-93c7-cf56fe92deb7 {
        clip-path: url(#a1ef2964-9e89-4322-92a8-9c4696afbf90);
      }

      .b3952123-5d76-477d-a13a-e3f51bfb755b {
        fill: url(#a9ca49d6-5fcb-48a5-96ad-0abe6f2771b4);
      }
    </style>
    <clipPath id="af6b9ba5-ac29-4bc1-acb1-e90727eceba7">
      <rect class="ffed5b35-1882-4aa0-b1fa-c28074893ae4" y="1" width="1600" height="898"/>
    </clipPath>
    <linearGradient id="e6a96ecf-e8c5-4a7c-b826-96f636761b20" x1="812.54" y1="-432.23" x2="812.54" y2="1338.53" gradientUnits="userSpaceOnUse">
      <stop offset="0.08" stop-color="#a2d9d8"/>
      <stop offset="0.09" stop-color="#9ad7d7"/>
      <stop offset="0.12" stop-color="#86d1d4"/>
      <stop offset="0.15" stop-color="#7acdd3"/>
      <stop offset="0.18" stop-color="#76ccd2"/>
      <stop offset="0.29" stop-color="#79cdd2"/>
      <stop offset="0.35" stop-color="#81d0d2"/>
      <stop offset="0.41" stop-color="#90d5d2"/>
      <stop offset="0.45" stop-color="#a4dcd2"/>
      <stop offset="0.46" stop-color="#a7ddd2"/>
      <stop offset="0.5" stop-color="#afdfd3"/>
      <stop offset="0.55" stop-color="#c4e5d5"/>
      <stop offset="0.57" stop-color="#cde7d6"/>
      <stop offset="0.65" stop-color="#f2f9f4"/>
      <stop offset="1" stop-color="#c8e5d2"/>
    </linearGradient>
    <linearGradient id="fba236c6-abe2-4ae1-8617-307b65c00640" x1="662.8" y1="414.81" x2="604.85" y2="483.56" gradientUnits="userSpaceOnUse">
      <stop offset="0.18" stop-color="#bfe3d4"/>
      <stop offset="0.57" stop-color="#b3e0d3"/>
    </linearGradient>
    <linearGradient id="f7efc616-fd71-404f-81c6-55edc991be87" x1="738.38" y1="388.63" x2="670.36" y2="542.89" gradientUnits="userSpaceOnUse">
      <stop offset="0" stop-color="#bfe3d4"/>
      <stop offset="0.57" stop-color="#b3e0d3"/>
    </linearGradient>
    <linearGradient id="b17130b3-eaa0-4e24-bbf9-baa75a49f1a7" x1="1186.48" y1="196.55" x2="1113.24" y2="374.92" gradientUnits="userSpaceOnUse">
      <stop offset="0.14" stop-color="#b2e0d3"/>
      <stop offset="0.46" stop-color="#9dd9d2"/>
      <stop offset="0.7" stop-color="#93d6d2"/>
    </linearGradient>
    <linearGradient id="bc19915b-abc5-4f45-bd60-bcacaeb2ae28" x1="276.73" y1="206.88" x2="173.9" y2="353.19" gradientUnits="userSpaceOnUse">
      <stop offset="0.14" stop-color="#b2e0d3"/>
      <stop offset="0.21" stop-color="#abded3"/>
      <stop offset="0.46" stop-color="#99d8d2"/>
      <stop offset="0.65" stop-color="#93d6d2"/>
    </linearGradient>
    <clipPath id="a1ef2964-9e89-4322-92a8-9c4696afbf90">
      <rect class="ffed5b35-1882-4aa0-b1fa-c28074893ae4" x="1620" y="1" width="1600" height="898"/>
    </clipPath>
    <linearGradient id="a9ca49d6-5fcb-48a5-96ad-0abe6f2771b4" x1="2432.54" y1="-432.23" x2="2432.54" y2="1338.53" xlink:href="#e6a96ecf-e8c5-4a7c-b826-96f636761b20"/>
  </defs>
  <g class="e61f44e3-8f17-43be-b72c-115028f781bd">
    <g id="e3d77e0e-90bb-4721-9bd5-295420b830fc" data-name="BG">
      <rect class="b2a4b94c-0751-430c-8747-d940d43944be" x="-48" y="-16" width="1721.08" height="693"/>
      <path class="f225b10f-8367-40f6-8a85-ecbb7fb1976a" d="M608.13,438.42s18.93-9.69,47.63-6.92,24.27,10.86,10.36,11.35-41.13.58-47,0S606.06,442.42,608.13,438.42Z"/>
      <path class="a82ef89e-a1dc-4ae9-84a7-c9589d133243" d="M654.43,435.4s34.45-35.79,86.67-25.56,44.14,40.1,18.84,41.92-74.83,2.15-85.59,0S650.66,450.17,654.43,435.4Z"/>
      <path class="a5c45b84-0ec5-47e7-9e0e-82e8f7521081" d="M1044.92,274.31s59.71-62,150.23-44.32,76.53,69.52,32.67,72.67-129.71,3.74-148.37,0S1038.39,299.91,1044.92,274.31Z"/>
      <polygon class="ec05271f-9bad-46e4-b96a-74df76d8111b" points="-8 631 1635 631 1618 796 -15 776.18 -8 631"/>
      <path class="e8a964a0-e988-4161-b229-8e5751c9dbaa" d="M-15,740s930,6.84,1121,35.16,530.94,2.93,551,10.74-46,153.32-46,153.32L-15,948.41V740Z"/>
      <path class="e90cdb66-ceab-4130-9c1c-0bb902438bdc" d="M-19,796s930,5.32,1121,27.37,530.94,2.28,551,8.36-46,119.37-46,119.37L-19,958.25V796Z"/>
      <path class="f26e10a5-601e-4b08-9ab2-fe23f0c14b5f" d="M566,667.33H-214l35.22-106.51s92.18-.18,145,31.93,105.65,22.79,124.29,4.14,43.87-29.67,68.55-36.07,60.83,1.48,103.39,23.65c49.72,25.89,58,33.14,101.51,35.21S566,667.33,566,667.33Z"/>
      <path class="aafc935d-f62d-424f-8f10-a35afce06d7a" d="M482.05,663.26H-214l31.43-66.14S-100.3,597-53.16,617s94.29,14.15,110.92,2.57,39.15-18.43,61.17-22.4,54.3.91,92.28,14.68c44.37,16.08,51.76,20.58,90.59,21.87S482.05,663.26,482.05,663.26Z"/>
      <path class="b314fba0-2548-42b8-988a-0073f1d05b56" d="M566,670.44H-214l35.22,22.33s92.18,0,145-6.69,105.65-4.78,124.29-.87,43.87,6.22,68.55,7.56,60.83-.31,103.39-5c49.72-5.43,58-6.95,101.51-7.38S566,670.44,566,670.44Z"/>
      <g>
        <g>
          <path class="be95165a-1f89-42b7-9802-a9fbaab5510b" d="M544.37,569.36s-4.44,14.34-34.3,17.4-61.64,8.91-71.27,46.93l-11.28-1.62s6.15-23.54,22.19-35.66,33.4-14.22,56.85-16.12,31.56-7.34,36.53-17l3.48.5Z"/>
          <polygon class="a628dc73-644d-4a80-b405-86f0950b63b2" points="539.81 568.38 540.55 567.43 544.01 570.67 543.21 571.65 539.81 568.38"/>
          <path class="a628dc73-644d-4a80-b405-86f0950b63b2" d="M534.28,573.27l1.19-.81,3.14,4.29s-1.06.85-1.38,1.08Z"/>
          <polygon class="a628dc73-644d-4a80-b405-86f0950b63b2" points="530.2 575.43 532.21 580.9 530.89 581.54 529.09 575.84 530.2 575.43"/>
          <polygon class="a628dc73-644d-4a80-b405-86f0950b63b2" points="520.21 585.11 521.82 584.72 520.5 578.4 519.04 578.69 520.21 585.11"/>
          <polygon class="a628dc73-644d-4a80-b405-86f0950b63b2" points="507 587.09 509.03 586.87 508.38 580.03 506.56 580.29 507 587.09"/>
          <polygon class="a628dc73-644d-4a80-b405-86f0950b63b2" points="493.83 588.87 496.15 588.49 495.67 581.27 493.4 581.51 493.83 588.87"/>
          <polygon class="a628dc73-644d-4a80-b405-86f0950b63b2" points="481.12 591.65 483.3 591.07 481.92 583.13 479.63 583.57 481.12 591.65"/>
          <polygon class="a628dc73-644d-4a80-b405-86f0950b63b2" points="469.78 595.71 471.98 594.76 469.1 586.3 467.1 586.99 469.78 595.71"/>
          <polygon class="a628dc73-644d-4a80-b405-86f0950b63b2" points="459.82 601.36 461.98 599.91 456.99 591.62 455.09 592.73 459.82 601.36"/>
          <polygon class="a628dc73-644d-4a80-b405-86f0950b63b2" points="451.56 608.68 453.41 606.75 446.37 599.21 444.76 600.79 451.56 608.68"/>
          <polygon class="a628dc73-644d-4a80-b405-86f0950b63b2" points="445.15 617.58 443.89 619.91 434.01 615.98 435.25 613.7 445.15 617.58"/>
          <polygon class="a628dc73-644d-4a80-b405-86f0950b63b2" points="439.7 630.46 440.52 627.89 429.67 625.62 428.51 628.85 439.7 630.46"/>
        </g>
        <g>
          <path class="abc3e394-e32f-4ef6-be5a-25e2c8202196" d="M390,486.39s-20.2,92.64-12.67,136.2H360.41s11.14-100.74,27.43-138.84Z"/>
          <polygon class="a628dc73-644d-4a80-b405-86f0950b63b2" points="378.63 513.21 384.76 513.79 384.4 515.85 378.23 514.89 378.63 513.21"/>
          <polygon class="a628dc73-644d-4a80-b405-86f0950b63b2" points="376.41 522.71 383.14 523.36 382.86 525.11 376.04 524.42 376.41 522.71"/>
          <polygon class="a628dc73-644d-4a80-b405-86f0950b63b2" points="373.59 536.16 381.03 537.02 380.7 539.33 373.1 538.67 373.59 536.16"/>
          <polygon class="a628dc73-644d-4a80-b405-86f0950b63b2" points="371.01 549.83 379.29 549.83 378.96 552.5 370.59 552.2 371.01 549.83"/>
          <polygon class="a628dc73-644d-4a80-b405-86f0950b63b2" points="369.1 560.88 378 560.88 377.75 563.29 368.7 563.29 369.1 560.88"/>
          <polygon class="a628dc73-644d-4a80-b405-86f0950b63b2" points="366.82 575.08 376.65 575.54 376.44 578.4 366.31 578.4 366.82 575.08"/>
          <polygon class="a628dc73-644d-4a80-b405-86f0950b63b2" points="364.73 589.18 375.87 589.18 375.76 592.54 364.31 592.11 364.73 589.18"/>
          <polygon class="a628dc73-644d-4a80-b405-86f0950b63b2" points="362.83 602.99 375.7 602.43 375.77 605.27 362.39 606.35 362.83 602.99"/>
          <polygon class="a628dc73-644d-4a80-b405-86f0950b63b2" points="360.94 618.06 376.46 615.96 376.69 618.06 360.68 620.23 360.94 618.06"/>
        </g>
        <g>
          <path class="ba6321ae-2410-484a-88d1-4ac3135318dd" d="M564.69,540.89a13.2,13.2,0,0,1,.21,3.13l-5.67,1.58-2.1-4.2,3.79-1Z"/>
          <path class="b23e8c2e-101a-494b-be2a-132dee8de83a" d="M545.6,545.84s1.93-9.94,4.66-12.09c0,0,9.19,1.23,14.43,7.14l-2.24,1.28-2.58-.37,1.51,1.24-6.32,6.13-5.29,5.62-3.11-2Z"/>
          <path class="b6eab144-56f6-40f4-b43c-9411bda6f59b" d="M556.54,535.5S550,540.11,549,550.33l.75,1.42.38-1S549.59,542.92,556.54,535.5Z"/>
          <path class="e2447d1b-7fd6-4ea8-9f33-4fa28072c4c6" d="M549.13,557.27a28.72,28.72,0,0,0-5.51-21.58s-10-2.23-13.72,1.18l15.19,14.64,1.79,6.47Z"/>
          <path class="b23e8c2e-101a-494b-be2a-132dee8de83a" d="M548.45,558.21s-2.4-13.35-8-17.94a25.34,25.34,0,0,0-12.58-5.14l-2.34,3.35.52-3.63-1.44-.2-.29,2-.94-2.21s-5.81-.28-8-2.84c0,0-1.48,4,.49,6.64l4.35.36-3.5,1.2a9.14,9.14,0,0,0,5,5.22L537.54,554Z"/>
          <path class="b6eab144-56f6-40f4-b43c-9411bda6f59b" d="M521.16,538.33A148.1,148.1,0,0,0,536,543.71c8.37,2.62,11.68,15.41,11.68,15.41s-5-11.85-11.85-14.19C525.53,541.42,521.16,538.33,521.16,538.33Z"/>
          <path class="f4bb73ca-b76f-4247-bfd1-06632e2d32d8" d="M555.1,555.47s12.43-6.15,19.3-1.19,7.67,9.78,7.67,9.78l-1.44.19,2,.9a28.75,28.75,0,0,1-1.26,12.43s-1.67-5.53-2.71-6.92l1.33-2.45-2.16.92a42.19,42.19,0,0,0-4-4.88C572.52,563.08,555.1,555.47,555.1,555.47Z"/>
          <path class="aa9e1f1b-2733-451d-8c0f-faab8516657a" d="M546.87,557.33s-3.89-12.14-16.5-15c-12.3-2.77-24.94,13.27-26.33,19.38a4,4,0,0,0-.09.45c-.82,5.72-2.19-3.9,18.31-8s24.85,19.08,24.85,19.08Z"/>
          <path class="a37fea67-cf26-46a9-a1ea-5cc2ebbef3c8" d="M508.32,557.25s17.22-16.76,35.24-2.38c0,0,2.22,2,2.4,3.41l.53-.83s-5.56-11.27-22.45-8.89C515.15,549.82,508.32,557.25,508.32,557.25Z"/>
          <path class="f4bb73ca-b76f-4247-bfd1-06632e2d32d8" d="M541.74,553.14s3.06,5.21,3.84,7.13l-4,1.05s-3.23-4-4.29-4.34l-1.8-3.12Z"/>
          <path class="ba1f7fc1-753e-43bd-8cfa-968e0f1088e9" d="M550,558.66s14.2-8.51,27.93-4.85l.78-2.53a6.44,6.44,0,0,1,.61,3l1.89,1,.85-1.3-.26,1.77s5.57,3.21,7.18,5.74c0,0-1-14.94-16.25-17.79s-24.76,5.25-25.46,13.19C547.29,556.87,544.93,560.33,550,558.66Z"/>
          <path class="ba1f7fc1-753e-43bd-8cfa-968e0f1088e9" d="M541.74,553.14A26.79,26.79,0,0,0,533,563.28L529.1,561l3.06,3.72L531,568.07l-2.83-.83,2.18,2.42s-1.51,8.33-1.09,12.72c0,0-7.23-7-7.32-16.56s3.63-15,3.63-15A16.92,16.92,0,0,1,541.74,553.14Z"/>
          <path class="ba1f7fc1-753e-43bd-8cfa-968e0f1088e9" d="M550,558.66s4.67.56,10.91,10l3.4-.88-2.68,2.67.81,1.5,2.78-1L563,573.6l4,10.08,2.09-2.76-1.72,3.87,2.61,7.55s3.88-7.88,5.3-11.9l-2.36-2.66,2.63.8.44-3.1-3-2,3.31-.27s.78-14.09-11.54-18.44C554.68,551.2,550,558.66,550,558.66Z"/>
          <path class="afac693e-2edd-4443-af89-4fc783fa0bb2" d="M548.56,557.45s15.51-17.31,33.84-6c0,0-8.47-8.67-24.52-2.23,0,0-8.2,4.1-10.38,8.12Z"/>
          <path class="b6eab144-56f6-40f4-b43c-9411bda6f59b" d="M551.11,557.8s22.89-4.73,19.68,23.47c0,0,2.61-12-3.62-19.85-4.71-5.95-15.43-4.7-16-4.17l-.58.6Z"/>
          <path class="b155351f-fca2-4621-9a4d-60ee0e54f354" d="M539.76,555.92s10.9.51,16.2,4l-1.54,4.85-3.21-.46,2.62,1.64-1,3.23-2.45-1.3,1.74,2.57s-4.64,8.83-7.77,11.87l-1.74-16.19,2.34-.82-3-.74Z"/>
          <path class="b6eab144-56f6-40f4-b43c-9411bda6f59b" d="M535.09,550.12a26.41,26.41,0,0,0-8.6,25.13,27.05,27.05,0,0,1,7.3-25.36S534.73,550,535.09,550.12Z"/>
          <path class="b6eab144-56f6-40f4-b43c-9411bda6f59b" d="M546.19,556.68s2.66,4.52-.58,21.32c0,0,3.25-12.77,1.34-21.2Z"/>
        </g>
        <g>
          <path class="ba6321ae-2410-484a-88d1-4ac3135318dd" d="M383.5,459.62a15.63,15.63,0,0,0-1.93,3.09l4.82,4.72,4.43-3.14-3.23-3.16Z"/>
          <path class="b23e8c2e-101a-494b-be2a-132dee8de83a" d="M399.94,475.16s3.56-11.26,2-15c0,0-9.9-3.77-18.44-.59l1.56,2.53,2.78,1-2.2.45,3,9.74,2.21,8.66,4.25-.39Z"/>
          <path class="b6eab144-56f6-40f4-b43c-9411bda6f59b" d="M394.67,458.55s4,8.33-.57,19.36L392.55,479l.18-1.26S397.54,470,394.67,458.55Z"/>
          <path class="e2447d1b-7fd6-4ea8-9f33-4fa28072c4c6" d="M390.08,484.93s4.08-13.15,17.46-19.09c0,0,11.26,3.19,13.12,8.73l-23.34,6.67-5.38,5.65Z"/>
          <path class="b23e8c2e-101a-494b-be2a-132dee8de83a" d="M390.24,486.26s9.79-12.36,18-14a28.41,28.41,0,0,1,15.46,1.63l.51,4.72,1.48-4,1.56.58-.84,2.25,2.17-1.76s6,2.9,9.56,1.46c0,0-.73,4.93-4.15,6.54l-4.58-2,2.85,3.16a10.47,10.47,0,0,1-7.91,2.6l-20.81.48Z"/>
          <path class="b6eab144-56f6-40f4-b43c-9411bda6f59b" d="M428.63,480.86a168.14,168.14,0,0,1-17.89-2.64c-9.85-1.9-20.24,9.4-20.24,9.4s11.52-9.43,19.74-8.05C422.53,481.63,428.63,480.86,428.63,480.86Z"/>
          <path class="f4bb73ca-b76f-4247-bfd1-06632e2d32d8" d="M385.07,479.81S376,466.7,366.36,468s-13.11,5.82-13.11,5.82l1.34,1-2.49-.16a33.9,33.9,0,0,0-5.61,13.41s4.74-4.74,6.54-5.59l0-3.24,1.66,2.13a47.52,47.52,0,0,1,6.68-2.83C363.38,478.07,385.07,479.81,385.07,479.81Z"/>
          <path class="aa9e1f1b-2733-451d-8c0f-faab8516657a" d="M392.31,486.22s10.62-10.3,24.85-6.3c13.88,3.9,17.71,27.26,15.73,34.29-.05.18-.1.35-.16.51-2.34,6.31,4.35-2.8-14-18.2s-35.49,5.92-35.49,5.92Z"/>
          <path class="a37fea67-cf26-46a9-a1ea-5cc2ebbef3c8" d="M431.06,507.29s-8-26.62-34.07-21.77c0,0-3.36.88-4.29,2.18l-.08-1.14s11.82-8.5,27.46,3.2C428.32,495.92,431.06,507.29,431.06,507.29Z"/>
          <path class="f4bb73ca-b76f-4247-bfd1-06632e2d32d8" d="M399.78,484.75s-5.95,3.65-7.79,5.2l3.4,3.26s5.45-2.33,6.7-2.1l3.53-2.21Z"/>
          <path class="ba1f7fc1-753e-43bd-8cfa-968e0f1088e9" d="M388.41,485.86s-9.55-16.51-25.35-20.28l.61-3a7.6,7.6,0,0,0-2.27,2.74l-2.44,0-.13-1.8-.72,2s-7.37.24-10.39,1.95c0,0,9.3-14.75,26.15-9.33s22,19,18.28,27.48C392.15,485.53,392.6,490.37,388.41,485.86Z"/>
          <path class="ba1f7fc1-753e-43bd-8cfa-968e0f1088e9" d="M399.78,484.75A31.12,31.12,0,0,1,403,499.94l5.16-.17L403,501.9l-.72,4,3.3.7L402,507.9s-3.09,9.37-5.94,13.63c0,0,11.1-3.15,16.52-13s4.64-17.35,4.64-17.35A19,19,0,0,0,399.78,484.75Z"/>
          <path class="ba1f7fc1-753e-43bd-8cfa-968e0f1088e9" d="M388.41,485.86s-5-2-16.48,4.28L369,487.37l1.21,4.21-1.65,1.09-2.25-2.53.84,3.94-9.63,8.12-.57-4-.41,4.91-6.79,6.31s.46-10.21,1.26-15.11l3.84-1.43-3.08-.62,1.26-3.42,4.11-.42L354,486.35s7-14.87,21.79-12.57C387.86,475.67,388.41,485.86,388.41,485.86Z"/>
          <path class="afac693e-2edd-4443-af89-4fc783fa0bb2" d="M390.55,485.43s-6-26.24-30.63-24.75c0,0,13.29-4.23,25.84,11.16,0,0,6,8.69,5.94,14Z"/>
          <path class="b6eab144-56f6-40f4-b43c-9411bda6f59b" d="M387.79,484.39S367.43,467,355.06,497.64c0,0,4-13.71,14.61-18.36,8-3.51,18.09,3.65,18.35,4.5l.25.93Z"/>
          <path class="aa9e1f1b-2733-451d-8c0f-faab8516657a" d="M400.24,488.68s-11.23-5.45-18.49-4.76l-1.13,5.8,3.47,1.29-3.53.25-.79,3.86H383l-3.17,1.68s-.22,11.59,1.25,16.42l10.69-15.64-1.89-2.12,3.37.86Z"/>
          <path class="b6eab144-56f6-40f4-b43c-9411bda6f59b" d="M408.12,485.3a31.16,31.16,0,0,1-5.25,30.47,32,32,0,0,0,6.69-30S408.53,485.41,408.12,485.3Z"/>
          <path class="b6eab144-56f6-40f4-b43c-9411bda6f59b" d="M393.35,485.94s-5.16,3.17-11.2,22.16c0,0,3.8-14.87,10.38-22.45Z"/>
        </g>
      </g>
      <path class="a051d3d5-ebe9-4e2d-bbd4-4c4aa318f364" d="M-25.71,705s749.47,1.85,822.49,4,818.83,17.58,838.22,16.35V732s-790.28-16.51-807.55-16.51c-13.11,0-836-5.55-853.16-6.48S-25.71,705-25.71,705Z"/>
      <path class="a578428d-ef32-4866-9130-4e32e5e8d810" d="M1874.34,768.6s-343.61-8.52-646.23-13.13C1003,752,799,737.94,756.86,737.9,657.56,737.8-68,730-68,730s759.44,15.2,782.89,16c17.81.58,1135.92,29,1159.25,28.47S1874.34,768.6,1874.34,768.6Z"/>
      <path class="e73a6866-6979-4061-93f8-115e85aeeaea" d="M-61.86,750.27s296.22-.89,649.75,13.43c87.57,3.55,216.63,1.74,253.87,7.22,11.18,1.64-893.9-11-892.8-7.67,3.57,10.7,922.76,11.63,931.15,12,28.15,1.42,52.5,4.53,74,5.57,43.92,2.12,74.28,3.34,92.11,3.17,116.34-1.08,717.68,3.55,712-5.12,0,0-434.77-3.25-462.23-4.28-20.85-.78-1330.17-35.75-1357.52-34.44S-61.86,750.27-61.86,750.27Z"/>
      <path class="fcd4dffa-1cfe-4afb-bd65-d2b2a6187af8" d="M148.11,271.05s45-40.55,113.36-29,57.74,45.44,24.64,47.5-97.87,2.45-112,0S143.18,287.78,148.11,271.05Z"/>
      <path class="b9bf5e95-07ad-4058-b2eb-b63d682be33e" d="M418,843c0,21.54-41.67,16-61,16s-51,5.54-51-16,25.67-38,45-38S418,821.46,418,843Z"/>
      <path class="b9bf5e95-07ad-4058-b2eb-b63d682be33e" d="M36,862c0,21.54-41.67,16-61,16s-51,5.54-51-16,25.67-38,45-38S36,840.46,36,862Z"/>
      <path class="b0779d04-e949-487c-b37b-01c1f8381248" d="M634,850c0,22.92-24.88,22-71,22s-99,3.92-99-19,65-44,93-35C600.9,832.11,634,827.08,634,850Z"/>
      <path class="b0779d04-e949-487c-b37b-01c1f8381248" d="M1526,884c0,22.92-24.88,22-71,22s-99,3.92-99-19,65-44,93-35C1492.9,866.11,1526,861.08,1526,884Z"/>
    </g>
    <line class="a052349b-d004-45de-8e33-9953fa446fc6" x1="461.98" y1="635.61" x2="1616.52" y2="636.82"/>
  </g>
  <g class="b0dfabea-bebc-4670-93c7-cf56fe92deb7">
    <g id="e7d0280d-9600-4f61-a534-7be2fcd75650" data-name="BG">
      <rect class="b3952123-5d76-477d-a13a-e3f51bfb755b" x="1572" y="-16" width="1721.08" height="693"/>
    </g>
  </g>
</svg>
