<svg id="af821e53-eba3-42d8-80bb-316fcc1efba5" data-name="Layer 1" xmlns="http://www.w3.org/2000/svg" xmlns:xlink="http://www.w3.org/1999/xlink" width="1600" height="900" viewBox="0 0 1600 900">
  <defs>
    <style>
      .f1d3ea37-504d-43a0-94f4-cd90be85550d {
        fill: none;
      }

      .ae7ab139-518b-48f5-817c-e10b34e683ac {
        clip-path: url(#a1c16e18-4bbc-4e72-a2be-fd488190b850);
      }

      .a60589fa-6b71-438c-b6f8-b9373c3672c1 {
        fill: url(#b3df719c-e984-4cb4-b958-9e5aef91adef);
      }

      .a7f3f203-7ec1-4f46-90a8-2a9590db7857 {
        fill: url(#ec479cc1-b726-43c6-86b2-0b5e0cae5d31);
      }

      .eac7d246-db3e-46bc-96cc-2975122fc376 {
        fill: url(#ad116fcd-aa35-4946-850b-9b64904bf10f);
      }

      .b8c687fe-f27c-44a4-949a-dca2386b1146 {
        stroke: #7dc142;
        fill: url(#e058570c-99d0-430b-8fb9-4e434bfc0c21);
      }

      .a2fee26e-ead8-4bc7-bc76-90e6ce073730, .b588ba5c-618f-4936-8532-04a17e20d12b, .b6b3b224-42ab-4bbd-8712-06bb2189f4ec, .b8c687fe-f27c-44a4-949a-dca2386b1146, .e5b56404-40c2-4600-bfc6-f13cdabf818c, .f6e8c81c-9026-402a-839a-59b48405341e, .fa507bb8-4a3f-4c88-8573-f3062235b292 {
        stroke-miterlimit: 10;
      }

      .b387bd5a-bf29-4723-a721-8515b16d6c66 {
        fill: url(#b06673b7-f719-40cb-99cd-d1fedcd9e68f);
      }

      .acf1eefb-3437-43da-b5e8-68209f002fdf {
        fill: url(#b75b0ad6-ae1a-43cf-95cd-97f91a1e91dc);
      }

      .f4a50838-81f9-4305-a1fc-50a74b5f5a88 {
        fill: url(#fd101fb2-1f21-49c3-9d5f-f22aa2f45f2e);
      }

      .a29d84d7-7c52-4065-bd10-3c618b8d1d3f {
        fill: url(#eb8f83c2-9368-4426-a90a-d05d09725cbe);
      }

      .e12d8873-a61e-4cf6-b890-a894bd0adbc6 {
        fill: url(#b143840f-ed90-40cd-a621-25c8c641d850);
      }

      .f16ac673-ed5a-4b3a-ba41-8c0f17d0bedd {
        fill: url(#f04a00a8-d00c-400f-8b06-0834db31765e);
      }

      .b931ee9d-65fe-4262-810d-f0abb6482425 {
        fill: url(#f758e0d2-9c6c-43a7-aec8-ead995dea57e);
      }

      .b588ba5c-618f-4936-8532-04a17e20d12b, .b6b3b224-42ab-4bbd-8712-06bb2189f4ec, .f6e8c81c-9026-402a-839a-59b48405341e {
        stroke: #44ae80;
        stroke-width: 0.59px;
      }

      .f6e8c81c-9026-402a-839a-59b48405341e {
        fill: url(#abce477f-3707-4f81-afe2-02ed78235067);
      }

      .a9d93f17-39a3-48e6-8f00-e1acc62b0d6e {
        fill: #847856;
      }

      .b6b3b224-42ab-4bbd-8712-06bb2189f4ec {
        fill: url(#ad8b7c54-1f86-4742-96bd-206baf27494b);
      }

      .b588ba5c-618f-4936-8532-04a17e20d12b {
        fill: url(#f982c1da-97ad-489b-99d3-76afb311a940);
      }

      .a3fb017d-83db-4cf9-8d3f-e1cbf564b1b1 {
        fill: url(#afb9a2f0-620f-4764-bd88-f85218b540ef);
      }

      .f72bb014-b82c-45c3-977f-56cd1fdf8459 {
        fill: url(#f9813a48-76b9-42fd-9372-4c16763f9826);
      }

      .a2c3ea66-c773-4083-8550-7df17f9baa34 {
        fill: #6b574a;
      }

      .e4f48b96-d504-4be3-b1d1-2b4ca02635b2 {
        fill: #604e43;
      }

      .b619b652-0a42-4741-8eed-4bd6b463a381 {
        fill: #5fde85;
      }

      .a2fee26e-ead8-4bc7-bc76-90e6ce073730, .e5b56404-40c2-4600-bfc6-f13cdabf818c, .fa507bb8-4a3f-4c88-8573-f3062235b292 {
        stroke-width: 0.25px;
      }

      .e5b56404-40c2-4600-bfc6-f13cdabf818c {
        fill: url(#a2ef7862-503f-47f9-ba33-ba16874dc755);
        stroke: url(#ac2f6a90-257e-4fc1-9125-ec02cdda8de2);
      }

      .fa507bb8-4a3f-4c88-8573-f3062235b292 {
        fill: url(#b1fa16e8-0c06-47ec-bd98-bfb82997e974);
        stroke: url(#bba3f0d3-456c-4511-ad1b-faf91a0b83d8);
      }

      .fc76bbc6-5e7b-4d71-88c4-70f3ea3dd231 {
        fill: #57bd80;
      }

      .b9f5acf8-95d3-436e-be9f-6f8c4f9a046a {
        fill: #41a55b;
      }

      .a2fee26e-ead8-4bc7-bc76-90e6ce073730 {
        fill: url(#f7b3477c-f6a3-4b9c-8bf7-0cef7517332a);
        stroke: url(#a5fa0404-c955-4309-bf32-b077264f2b54);
      }

      .e0e68c0c-4d86-424c-bb11-2f3c76c960c3 {
        fill: url(#a994ea2d-940b-43af-a7b3-f84a469e95d8);
      }

      .e09ae7dc-1507-4dbf-9f55-501217136ca0 {
        fill: url(#a2f4f6ec-c77c-4275-9f40-11086b588585);
      }

      .a00496f2-53d7-4bac-9802-42a3cf1a9833 {
        fill: url(#ae2536c9-5802-4e43-9b5b-8a0d7374bf14);
      }

      .b1e1b30e-b9e5-4b41-b418-00ab440c4d94 {
        opacity: 0.32;
        fill: url(#a8d6299b-eecc-43ae-af44-e7e41782b2de);
      }

      .e4e0aed0-39b3-4013-9826-0384d45bc0c2 {
        fill: #0b8040;
      }

      .b5ca599e-6784-4e96-b88b-a240c25002ea {
        fill: url(#bb7feac4-9e98-4330-915a-2dd90a653de5);
      }

      .b494ff2a-c203-489b-ae6d-8eaaca3485d0 {
        fill: url(#fbc2d9f9-4241-40d1-936c-c441c03812e2);
      }

      .fb882fcc-238d-4670-a047-93fa490be387 {
        fill: url(#a7867a90-3e96-4a56-8509-2b4fbc956ebc);
      }

      .fa6f0589-50d8-4992-88d7-9bb947228e88 {
        fill: #063d21;
      }

      .bd652f4d-4cc1-4972-878e-2ed882c9f1e9 {
        fill: #5b3517;
      }

      .e1dae4de-fed4-42d5-b5ad-1f577600553f {
        fill: url(#a3147172-3d1e-42b1-8c17-fc4d17787295);
      }

      .ace7feac-8983-462d-9c3e-2d847008aefa {
        fill: url(#ec25d415-7bf0-414c-b96b-d1ba40248639);
      }

      .e344790a-ed82-4120-9692-9ce56bf13cf2 {
        fill: url(#faa2f25c-a84b-4c68-b777-b8c789eb2d21);
      }

      .b4ed167d-4d11-41d6-a207-c5727b0bbea5 {
        fill: url(#ede9df68-68a2-4741-b846-3a9fb28c6f60);
      }

      .b2a098bf-0659-4895-b7c6-1b7efbf54e80 {
        fill: #1d8749;
      }

      .ecdac692-ae3c-4417-8e7b-81ae29f6888e {
        fill: url(#f9d05c6d-5be0-4e6a-a68a-5156bf544e42);
      }

      .ed3d48ce-6148-43be-9ec8-af144f179e1b {
        fill: url(#a4af47c6-84ab-4769-bee4-4cd32f2115ff);
      }

      .afc89af9-50b5-4141-8cdc-f7828bbf2622 {
        fill: url(#b81f71fb-b863-4a75-b2b0-a637bbf0b5f0);
      }

      .e40636b8-5f8b-43c0-8dc2-768e76396ef1 {
        fill: #0f3a16;
      }

      .ea07ef1c-1d76-4446-be88-c9d2fe8d5a1e {
        clip-path: url(#f73e5159-19c5-4390-83b3-469874480ba3);
      }

      .f1aadabb-a4d9-4ea8-a795-a4d566ee3d4b {
        fill: url(#a3a95af9-730d-46de-ac00-0f4f317eae9c);
      }

      .bea8d968-58be-4460-a6ce-ebc9f5ba94c0 {
        fill: url(#f8284620-4bdc-46b3-af8a-9d36850b0842);
      }
    </style>
    <clipPath id="a1c16e18-4bbc-4e72-a2be-fd488190b850">
      <rect class="f1d3ea37-504d-43a0-94f4-cd90be85550d" width="1600" height="900"/>
    </clipPath>
    <linearGradient id="b3df719c-e984-4cb4-b958-9e5aef91adef" x1="801.02" y1="-570.89" x2="801.02" y2="1596.23" gradientUnits="userSpaceOnUse">
      <stop offset="0.08" stop-color="#a2d9d8"/>
      <stop offset="0.09" stop-color="#9ad7d7"/>
      <stop offset="0.14" stop-color="#86d1d4"/>
      <stop offset="0.18" stop-color="#7acdd3"/>
      <stop offset="0.23" stop-color="#76ccd2"/>
      <stop offset="0.3" stop-color="#7acdd2"/>
      <stop offset="0.37" stop-color="#86d1d2"/>
      <stop offset="0.44" stop-color="#9ad6d2"/>
      <stop offset="0.5" stop-color="#addcd2"/>
      <stop offset="0.52" stop-color="#b5dfd6"/>
      <stop offset="0.57" stop-color="#cae8e2"/>
      <stop offset="0.62" stop-color="#ecf7f4"/>
      <stop offset="0.64" stop-color="#fff"/>
      <stop offset="1" stop-color="#c8e5d2"/>
    </linearGradient>
    <linearGradient id="ec479cc1-b726-43c6-86b2-0b5e0cae5d31" x1="393.08" y1="988.52" x2="996.39" y2="55.42" gradientUnits="userSpaceOnUse">
      <stop offset="0" stop-color="#72c0cc"/>
      <stop offset="0.84" stop-color="#97d6db"/>
    </linearGradient>
    <linearGradient id="ad116fcd-aa35-4946-850b-9b64904bf10f" x1="44" y1="635.92" x2="572.57" y2="276.61" gradientUnits="userSpaceOnUse">
      <stop offset="0.03" stop-color="#73c3ce"/>
      <stop offset="0.43" stop-color="#6cbbce"/>
      <stop offset="1" stop-color="#68b6ce"/>
    </linearGradient>
    <linearGradient id="e058570c-99d0-430b-8fb9-4e434bfc0c21" x1="-31.96" y1="574.81" x2="36.03" y2="574.81" gradientUnits="userSpaceOnUse">
      <stop offset="0.02" stop-color="#1a984d"/>
      <stop offset="0.87" stop-color="#18974c"/>
    </linearGradient>
    <linearGradient id="b06673b7-f719-40cb-99cd-d1fedcd9e68f" x1="1230" y1="20.36" x2="1217.72" y2="1206.66" gradientUnits="userSpaceOnUse">
      <stop offset="0" stop-color="#2db1a4"/>
      <stop offset="0.31" stop-color="#4faebe"/>
      <stop offset="0.4" stop-color="#67bcca"/>
      <stop offset="0.52" stop-color="#7dc9d4"/>
      <stop offset="0.63" stop-color="#8ad1db"/>
      <stop offset="0.73" stop-color="#8fd4dd"/>
    </linearGradient>
    <linearGradient id="b75b0ad6-ae1a-43cf-95cd-97f91a1e91dc" x1="1231.06" y1="832.27" x2="1886.48" y2="271.81" gradientUnits="userSpaceOnUse">
      <stop offset="0.1" stop-color="#37b689"/>
      <stop offset="0.24" stop-color="#33b487"/>
      <stop offset="0.36" stop-color="#29af80"/>
      <stop offset="0.45" stop-color="#1ca878"/>
      <stop offset="0.8" stop-color="#079067"/>
      <stop offset="0.89" stop-color="#018962"/>
    </linearGradient>
    <linearGradient id="fd101fb2-1f21-49c3-9d5f-f22aa2f45f2e" x1="883.27" y1="1379.69" x2="851.41" y2="9.07" gradientUnits="userSpaceOnUse">
      <stop offset="0.28" stop-color="#006838"/>
      <stop offset="0.32" stop-color="#046a39"/>
      <stop offset="0.36" stop-color="#0f723b"/>
      <stop offset="0.41" stop-color="#237e3e"/>
      <stop offset="0.45" stop-color="#3e8f42"/>
      <stop offset="0.49" stop-color="#61a548"/>
      <stop offset="0.53" stop-color="#8bbf4f"/>
      <stop offset="0.55" stop-color="#a0cc52"/>
      <stop offset="0.67" stop-color="#a8cf4f"/>
      <stop offset="0.89" stop-color="#aad04e"/>
    </linearGradient>
    <linearGradient id="eb8f83c2-9368-4426-a90a-d05d09725cbe" x1="344.86" y1="1148.72" x2="1496.35" y2="164.06" gradientUnits="userSpaceOnUse">
      <stop offset="0.02" stop-color="#83c34e"/>
      <stop offset="0.03" stop-color="#83c34e"/>
      <stop offset="0.54" stop-color="#83c34e"/>
      <stop offset="0.9" stop-color="#83c34d"/>
    </linearGradient>
    <linearGradient id="b143840f-ed90-40cd-a621-25c8c641d850" x1="-31.96" y1="776.43" x2="2197.25" y2="776.43" gradientUnits="userSpaceOnUse">
      <stop offset="0.29" stop-color="#006838"/>
      <stop offset="0.49" stop-color="#006838"/>
      <stop offset="0.87" stop-color="#044223"/>
    </linearGradient>
    <linearGradient id="f04a00a8-d00c-400f-8b06-0834db31765e" x1="357.85" y1="1404.14" x2="2062.44" y2="-53.49" gradientUnits="userSpaceOnUse">
      <stop offset="0.1" stop-color="#37b689"/>
      <stop offset="0.24" stop-color="#39b685"/>
      <stop offset="0.36" stop-color="#41b77b"/>
      <stop offset="0.45" stop-color="#4ab86d"/>
      <stop offset="0.64" stop-color="#32ad71"/>
      <stop offset="0.89" stop-color="#0d9d76"/>
    </linearGradient>
    <linearGradient id="f758e0d2-9c6c-43a7-aec8-ead995dea57e" x1="568.94" y1="1000.31" x2="610.03" y2="-84.36" gradientUnits="userSpaceOnUse">
      <stop offset="0.1" stop-color="#6ec4a2"/>
      <stop offset="0.2" stop-color="#6cc39e"/>
      <stop offset="0.29" stop-color="#64c194"/>
      <stop offset="0.38" stop-color="#58bd81"/>
      <stop offset="0.45" stop-color="#4ab86d"/>
      <stop offset="0.64" stop-color="#32ad71"/>
      <stop offset="0.89" stop-color="#0d9d76"/>
    </linearGradient>
    <linearGradient id="abce477f-3707-4f81-afe2-02ed78235067" x1="84.16" y1="590.75" x2="441.58" y2="225.8" gradientUnits="userSpaceOnUse">
      <stop offset="0.06" stop-color="#0f9159"/>
      <stop offset="0.27" stop-color="#2fa26e"/>
      <stop offset="0.51" stop-color="#50b483"/>
      <stop offset="0.71" stop-color="#64be90"/>
      <stop offset="0.85" stop-color="#6bc295"/>
    </linearGradient>
    <linearGradient id="ad8b7c54-1f86-4742-96bd-206baf27494b" x1="58.54" y1="553.97" x2="259.04" y2="419.79" gradientUnits="userSpaceOnUse">
      <stop offset="0.04" stop-color="#0f9159"/>
      <stop offset="0.25" stop-color="#2fa26e"/>
      <stop offset="0.5" stop-color="#50b483"/>
      <stop offset="0.71" stop-color="#64be90"/>
      <stop offset="0.85" stop-color="#6bc295"/>
    </linearGradient>
    <linearGradient id="f982c1da-97ad-489b-99d3-76afb311a940" x1="151.88" y1="594.5" x2="348.7" y2="393.3" xlink:href="#ad8b7c54-1f86-4742-96bd-206baf27494b"/>
    <linearGradient id="afb9a2f0-620f-4764-bd88-f85218b540ef" x1="146.04" y1="633.95" x2="341.79" y2="508.54" gradientUnits="userSpaceOnUse">
      <stop offset="0" stop-color="#1e894a"/>
      <stop offset="0" stop-color="#1e8a4c"/>
      <stop offset="0" stop-color="#19935e"/>
      <stop offset="0.01" stop-color="#189665"/>
      <stop offset="0.35" stop-color="#11955b"/>
    </linearGradient>
    <linearGradient id="f9813a48-76b9-42fd-9372-4c16763f9826" x1="1353.39" y1="570.07" x2="1353.39" y2="410.13" gradientUnits="userSpaceOnUse">
      <stop offset="0.25" stop-color="#5c4c3a"/>
      <stop offset="0.98" stop-color="#777c65"/>
      <stop offset="0.99" stop-color="#806a4f"/>
    </linearGradient>
    <linearGradient id="a2ef7862-503f-47f9-ba33-ba16874dc755" x1="1203.48" y1="429.13" x2="1390.59" y2="429.13" gradientUnits="userSpaceOnUse">
      <stop offset="0.21" stop-color="#337252"/>
      <stop offset="0.71" stop-color="#4e8c63"/>
      <stop offset="0.95" stop-color="#5d9b6d"/>
    </linearGradient>
    <linearGradient id="ac2f6a90-257e-4fc1-9125-ec02cdda8de2" x1="1225.86" y1="429.13" x2="1327.65" y2="429.13" gradientUnits="userSpaceOnUse">
      <stop offset="0" stop-color="#277948"/>
      <stop offset="1" stop-color="#03654a"/>
    </linearGradient>
    <linearGradient id="b1fa16e8-0c06-47ec-bd98-bfb82997e974" x1="1235.72" y1="387.56" x2="1546.36" y2="387.56" gradientUnits="userSpaceOnUse">
      <stop offset="0" stop-color="#2e6d4d"/>
      <stop offset="0.36" stop-color="#40884a"/>
      <stop offset="0.92" stop-color="#60b946"/>
      <stop offset="0.96" stop-color="#61b948"/>
      <stop offset="0.97" stop-color="#63bb4f"/>
      <stop offset="0.98" stop-color="#68bd5a"/>
      <stop offset="0.99" stop-color="#6fc06b"/>
      <stop offset="1" stop-color="#77c481"/>
      <stop offset="1" stop-color="#7ec793"/>
    </linearGradient>
    <linearGradient id="bba3f0d3-456c-4511-ad1b-faf91a0b83d8" x1="1276.05" y1="387.56" x2="1478.52" y2="387.56" xlink:href="#ac2f6a90-257e-4fc1-9125-ec02cdda8de2"/>
    <linearGradient id="f7b3477c-f6a3-4b9c-8bf7-0cef7517332a" x1="1276.11" y1="420.77" x2="1488.27" y2="420.77" gradientUnits="userSpaceOnUse">
      <stop offset="0" stop-color="#357c5a"/>
      <stop offset="0.44" stop-color="#489751"/>
      <stop offset="0.92" stop-color="#60b946"/>
      <stop offset="0.96" stop-color="#61b948"/>
      <stop offset="0.97" stop-color="#63bb4f"/>
      <stop offset="0.98" stop-color="#68bd5a"/>
      <stop offset="0.99" stop-color="#6fc06b"/>
      <stop offset="1" stop-color="#77c481"/>
      <stop offset="1" stop-color="#7ec793"/>
    </linearGradient>
    <linearGradient id="a5fa0404-c955-4309-bf32-b077264f2b54" x1="1271.22" y1="420.77" x2="1483.64" y2="420.77" xlink:href="#ac2f6a90-257e-4fc1-9125-ec02cdda8de2"/>
    <linearGradient id="a994ea2d-940b-43af-a7b3-f84a469e95d8" x1="1461.54" y1="691.5" x2="1955.4" y2="368.88" gradientUnits="userSpaceOnUse">
      <stop offset="0" stop-color="#1e894a"/>
      <stop offset="0" stop-color="#168d5a"/>
      <stop offset="0.01" stop-color="#138e61"/>
      <stop offset="0.35" stop-color="#0d8b57"/>
    </linearGradient>
    <linearGradient id="a2f4f6ec-c77c-4275-9f40-11086b588585" x1="1192.16" y1="725.05" x2="1471" y2="521.48" xlink:href="#a994ea2d-940b-43af-a7b3-f84a469e95d8"/>
    <linearGradient id="ae2536c9-5802-4e43-9b5b-8a0d7374bf14" x1="1095.87" y1="651.37" x2="1259.65" y2="535.3" xlink:href="#a994ea2d-940b-43af-a7b3-f84a469e95d8"/>
    <linearGradient id="a8d6299b-eecc-43ae-af44-e7e41782b2de" x1="-175.17" y1="751.75" x2="2355.79" y2="751.75" gradientUnits="userSpaceOnUse">
      <stop offset="0.11" stop-color="#006838"/>
      <stop offset="0.14" stop-color="#189a48"/>
      <stop offset="0.33" stop-color="#19a44a"/>
      <stop offset="0.54" stop-color="#1aa94b"/>
      <stop offset="0.63" stop-color="#087c3e"/>
      <stop offset="0.68" stop-color="#006838"/>
      <stop offset="0.82" stop-color="#026a38"/>
      <stop offset="0.87" stop-color="#08713a"/>
      <stop offset="0.9" stop-color="#147c3c"/>
      <stop offset="0.93" stop-color="#248d40"/>
      <stop offset="0.96" stop-color="#39a345"/>
      <stop offset="0.97" stop-color="#4bb649"/>
    </linearGradient>
    <linearGradient id="bb7feac4-9e98-4330-915a-2dd90a653de5" x1="220.47" y1="704.55" x2="1436.65" y2="693.17" gradientUnits="userSpaceOnUse">
      <stop offset="0.15" stop-color="#2093b2"/>
      <stop offset="0.26" stop-color="#38a2c1"/>
      <stop offset="0.47" stop-color="#77c8e6"/>
      <stop offset="0.54" stop-color="#8ed7f4"/>
      <stop offset="0.6" stop-color="#6fcae1"/>
      <stop offset="0.67" stop-color="#56bfd2"/>
      <stop offset="0.73" stop-color="#45b8c7"/>
      <stop offset="0.8" stop-color="#3ab3c1"/>
      <stop offset="0.89" stop-color="#37b2bf"/>
    </linearGradient>
    <linearGradient id="fbc2d9f9-4241-40d1-936c-c441c03812e2" x1="210.91" y1="680.4" x2="1435.95" y2="668.95" gradientUnits="userSpaceOnUse">
      <stop offset="0.06" stop-color="#1aa94b"/>
      <stop offset="0.08" stop-color="#2f9343"/>
      <stop offset="0.12" stop-color="#616030"/>
      <stop offset="0.15" stop-color="#754c28"/>
      <stop offset="0.18" stop-color="#784e29"/>
      <stop offset="0.32" stop-color="#80552d"/>
      <stop offset="0.54" stop-color="#83572e"/>
      <stop offset="0.78" stop-color="#81552d"/>
      <stop offset="0.87" stop-color="#7a4f27"/>
      <stop offset="0.93" stop-color="#6f451e"/>
      <stop offset="0.97" stop-color="#603813"/>
    </linearGradient>
    <linearGradient id="a7867a90-3e96-4a56-8509-2b4fbc956ebc" x1="304.51" y1="709.1" x2="694.92" y2="705.45" xlink:href="#fbc2d9f9-4241-40d1-936c-c441c03812e2"/>
    <linearGradient id="a3147172-3d1e-42b1-8c17-fc4d17787295" x1="-137.68" y1="661.39" x2="342.75" y2="137.46" gradientUnits="userSpaceOnUse">
      <stop offset="0.12" stop-color="#154427"/>
      <stop offset="0.2" stop-color="#154f2c"/>
      <stop offset="0.49" stop-color="#16703b"/>
      <stop offset="0.72" stop-color="#178444"/>
      <stop offset="0.88" stop-color="#178b47"/>
    </linearGradient>
    <linearGradient id="ec25d415-7bf0-414c-b96b-d1ba40248639" x1="202.4" y1="676.75" x2="1441.18" y2="665.17" xlink:href="#fbc2d9f9-4241-40d1-936c-c441c03812e2"/>
    <linearGradient id="faa2f25c-a84b-4c68-b777-b8c789eb2d21" x1="360.63" y1="711.07" x2="460.63" y2="710.14" xlink:href="#fbc2d9f9-4241-40d1-936c-c441c03812e2"/>
    <linearGradient id="ede9df68-68a2-4741-b846-3a9fb28c6f60" x1="3474.83" y1="610.41" x2="3184.74" y2="788.16" gradientTransform="translate(-2960.04)" gradientUnits="userSpaceOnUse">
      <stop offset="0" stop-color="#083f23"/>
      <stop offset="0" stop-color="#0f2016"/>
      <stop offset="0" stop-color="#0d2f1a"/>
      <stop offset="0.23" stop-color="#0d331b"/>
      <stop offset="0.86" stop-color="#0c381d"/>
    </linearGradient>
    <linearGradient id="f9d05c6d-5be0-4e6a-a68a-5156bf544e42" x1="218.51" y1="924.76" x2="208.94" y2="512.88" gradientTransform="matrix(1, 0, 0, 1, 0, 0)" xlink:href="#ede9df68-68a2-4741-b846-3a9fb28c6f60"/>
    <linearGradient id="a4af47c6-84ab-4769-bee4-4cd32f2115ff" x1="1575.12" y1="1029.91" x2="1559.81" y2="370.88" gradientTransform="matrix(1, 0, 0, 1, 0, 0)" xlink:href="#ede9df68-68a2-4741-b846-3a9fb28c6f60"/>
    <linearGradient id="b81f71fb-b863-4a75-b2b0-a637bbf0b5f0" x1="5633.47" y1="551.26" x2="5227.47" y2="800.03" gradientTransform="matrix(-1, 0, 0, 1, 6824.04, 0)" xlink:href="#ede9df68-68a2-4741-b846-3a9fb28c6f60"/>
    <clipPath id="f73e5159-19c5-4390-83b3-469874480ba3">
      <rect class="f1d3ea37-504d-43a0-94f4-cd90be85550d" x="1620" width="1600" height="900"/>
    </clipPath>
    <linearGradient id="a3a95af9-730d-46de-ac00-0f4f317eae9c" x1="1664" y1="635.92" x2="2192.57" y2="276.61" xlink:href="#ad116fcd-aa35-4946-850b-9b64904bf10f"/>
    <linearGradient id="f8284620-4bdc-46b3-af8a-9d36850b0842" x1="2188.94" y1="1000.31" x2="2230.03" y2="-84.36" xlink:href="#f758e0d2-9c6c-43a7-aec8-ead995dea57e"/>
  </defs>
  <g class="ae7ab139-518b-48f5-817c-e10b34e683ac">
    <rect class="a60589fa-6b71-438c-b6f8-b9373c3672c1" x="2.04" width="1597.96" height="784.95"/>
    <path class="a7f3f203-7ec1-4f46-90a8-2a9590db7857" d="M120.21,551.06s604.16-251.73,1105.42,0C1324.11,555.05,120.21,551.06,120.21,551.06Z"/>
    <path class="eac7d246-db3e-46bc-96cc-2975122fc376" d="M-57.94,423.13S85,400.06,287,464c228.59,43.8,294.23,88.81,294.23,88.81L-32,551.06Z"/>
    <polygon class="b8c687fe-f27c-44a4-949a-dca2386b1146" points="-31.96 600.15 -31.96 551.06 36.03 549.47 36.03 600.15 -31.96 600.15"/>
    <path class="b387bd5a-bf29-4723-a721-8515b16d6c66" d="M632.2,590.57c365.59-131,658.08-203.32,810.79-221.68,0,0,115.46-13.88,273.6,24.84,60.66,14.85,88.4,28.58,97.45,52.13,22.38,58.26-77.9,155.18-79.87,153.81-.44-.31,1-3.12,4.93-9Z"/>
    <path class="acf1eefb-3437-43da-b5e8-68209f002fdf" d="M1133.06,593S1647,388.81,1871.3,537.44l8.65,63Z"/>
    <rect class="f4a50838-81f9-4305-a1fc-50a74b5f5a88" x="-31.96" y="588.86" width="1800.92" height="311.14"/>
    <path class="a29d84d7-7c52-4065-bd10-3c618b8d1d3f" d="M-28.38,638.23C565.11,615.45,878.06,621,1050.43,617.64c300.4-5.77,656.84-3.62,826.7,10.34,97.33,8-217.05,24.78-119.45,28.64,0,0,124.21,4.91,126.91-14.32.71-5.08-8.77-14-7.46-15,.75-.61,4.53,1.89,6,3.86,10.72,14.2-26.4,54.42-26.4,54.42L-28.38,712.25Z"/>
    <path class="e12d8873-a61e-4cf6-b890-a894bd0adbc6" d="M-32,788.35a300.23,300.23,0,0,1,34-19.71c58.3-28.82,100.1-24.85,196.92-23.78,102,1.13,94.21-2.86,173.64,0,56.1,2,96.86,5.34,120,7.13,110.94,8.65,202.54,12.58,302.54,16.86,111.83,4.8,242.23,4.84,503,4.94,23.87,0,85.9,0,168.28,2,53.23,1.28,99.47,3,137.85,4.75,80.39,3.62,164.13,8.89,164.11,9.69,0,.13-2.13.19-10.16,0v18.85Z"/>
    <path class="f16ac673-ed5a-4b3a-ba41-8c0f17d0bedd" d="M1331.53,575l-4.3.25c-2.09.56-4.16,1.15-6.24,1.77Q1326.24,576.2,1331.53,575Z"/>
    <path class="b931ee9d-65fe-4262-810d-f0abb6482425" d="M1216.11,586.78a57.34,57.34,0,0,1,5.94-7.21,59.86,59.86,0,0,1,6.24-5.62q-15.18-1.22-30.88-3.12c-58-7.11-118.13-24.44-118.13-24.44-199.7-57.58-348.62-34.51-348.62-34.51C633.3,527,581,563.39,480,542.31A350.16,350.16,0,0,1,421,524.41a576.76,576.76,0,0,0-150.38-25.06c-117.25-3.73-204.89,29.73-236.3,43a547.43,547.43,0,0,0-93.09,50.34C715.07,593.54,1212.3,592.06,1216.11,586.78Z"/>
    <g>
      <g>
        <path class="f6e8c81c-9026-402a-839a-59b48405341e" d="M161.8,504.78s-3-6.41,6.7-58.7,33.51-28.16,37.23,6.72,3.73,70.43,3.73,70.43c-5.22,46.95-48.53,33.2-48.1,7.38Z"/>
        <rect class="a9d93f17-39a3-48e6-8f00-e1acc62b0d6e" x="136.55" y="564.89" width="7.09" height="29.53"/>
        <rect class="a9d93f17-39a3-48e6-8f00-e1acc62b0d6e" x="181.44" y="551.9" width="7.09" height="29.53"/>
        <rect class="a9d93f17-39a3-48e6-8f00-e1acc62b0d6e" x="228.69" y="568.43" width="7.09" height="29.53"/>
        <path class="b6b3b224-42ab-4bbd-8712-06bb2189f4ec" d="M116.91,517.78s-3-6.41,6.7-58.71,33.51-28.15,37.24,6.72,3.72,70.43,3.72,70.43c-5.21,46.95-48.53,33.2-48.09,7.38Z"/>
        <path class="b588ba5c-618f-4936-8532-04a17e20d12b" d="M210.23,526.07s-3-5.8,6.7-53.08,33.51-25.45,37.23,6.08a623.29,623.29,0,0,1,3.72,63.67c-5.21,42.45-48.52,30-48.09,6.67Z"/>
      </g>
      <path class="a3fb017d-83db-4cf9-8d3f-e1cbf564b1b1" d="M216.33,577a5,5,0,0,1,.95,3.87c5.55-2.74,12.23-3.33,16.67-1.38a10.24,10.24,0,0,1,6.13,7.85c.24,2.46-1,3.85.26,4.77,1.63,1.16,5.26.06,9-.54,8.28-1.34,15.35,0,22.63,1.41,0,0,2,.39,17.48,5h0l-174.81.61a20.25,20.25,0,0,1,6.17-4.24c9.39-4.25,20.4-1.88,22.24-1.46a4.31,4.31,0,0,1-.37-2.69c.8-3.84,7.36-6,11-7.14A51.22,51.22,0,0,1,172.21,581a7.64,7.64,0,0,1,4.11-5.65c4.59-2.45,12.62-1.91,18.63,2a13.77,13.77,0,0,1,7.69-4C207.63,572.55,213.93,573.83,216.33,577Z"/>
    </g>
    <g>
      <g>
        <path class="f72bb014-b82c-45c3-977f-56cd1fdf8459" d="M1273.45,454.93s-1.78,13.06,23.44,19.58c0,0-1.91,21.92,34.89,33.09,0,0,21.83,7.36,19,22.08,0,0-.76,27.42,5.58,40.62,0,0,52.8,4.31,58.64,3.55,0,0-20.14-16.06-18.3-66.62,0,0,13.28-27.22,13.85-30.66,0,0,12.9,1.43,17.2,0,0,0,6.59,1.43,5.44-18.05,0,0-14.61,28.08-25.79,2.86l-4.3-.86s5.16,29.52-12.89,25.22c0,0-2.87-23.21-2.3-24.07l-8.31-1.15s.29,23.21-4.87,13.47c0,0-7.45-11.46-6.88-13.76l-5.42.66s9.18,21.22,13.87,23.46,2.25,29.59-8.57,24.08c0,0-15.5-40.61-15.1-47.75l-6.53.41s12.25,32.65-3.87,36.32c0,0-21.06.27-34.39-10.59,0,0-10.37-12.1-8.15-26.67l-5.19-2.47s1.24,8.15.5,9.39c0,0-11.61,1.72-19-11.11Z"/>
        <path class="a2c3ea66-c773-4083-8550-7df17f9baa34" d="M1433.23,460.19s5.12,19.49-7.82,16.65c0,0,4.26,1,6.83-16.79Z"/>
        <path class="a2c3ea66-c773-4083-8550-7df17f9baa34" d="M1387.84,465.6s1.42,17.07,3.27,20.63C1391,485.8,1383.57,485,1387.84,465.6Z"/>
        <path class="e4f48b96-d504-4be3-b1d1-2b4ca02635b2" d="M1358.77,481.82s4.64,20.34,11.21,27.22C1370,509,1354.29,508.56,1358.77,481.82Z"/>
        <path class="a2c3ea66-c773-4083-8550-7df17f9baa34" d="M1395.4,519.11s-12.71,5.5-16.12,29.6c0,0-1.9,15-.38,20.68,0,0,27.12,4.07,35.72,4.3,0,0-17-17.81-18-55.26Z"/>
        <g>
          <path class="b619b652-0a42-4741-8eed-4bd6b463a381" d="M1237.38,427.42s-26.2,20.05-1.87,24.6c0,0,24.6,6.15,66.84,7,0,0,4.55-13.91,8-17.65s16.31-22.19,16.31-22.19l-7.22-13.64S1247.81,380.89,1237.38,427.42Z"/>
          <path class="e5b56404-40c2-4600-bfc6-f13cdabf818c" d="M1238.2,427.57s-26.2,20.05-1.87,24.6c0,0,24.6,6.15,66.84,6.95,0,0,4.55-13.91,8-17.65s16.31-22.19,16.31-22.19l-7.21-13.64S1248.63,381,1238.2,427.57Z"/>
        </g>
        <g>
          <path class="b619b652-0a42-4741-8eed-4bd6b463a381" d="M1290.84,429.79c.3-.9-26.66-21.77-9.91-49.91,0,0,17.42-47.22,87.08-32.15,0,0,71.34,10.72,106.17,60.62,0,0,6.53,6.68,1.7,10.3s-29,9.66-29,9.66l-70,1.21Z"/>
          <path class="fa507bb8-4a3f-4c88-8573-f3062235b292" d="M1291.58,430.08c.3-.9-26.66-21.77-9.91-49.91,0,0,17.41-47.22,87.08-32.15,0,0,71.34,10.72,106.17,60.62,0,0,6.53,6.68,1.7,10.3s-29,9.66-29,9.66l-70,1.21Z"/>
        </g>
        <g>
          <path class="b619b652-0a42-4741-8eed-4bd6b463a381" d="M1443.22,414.25s33-32.7,63.87,20.15c0,0,17.84,28.48-23.33,26.42,0,0-35,.35-41.18-2.74-.35-1.37-5.84-20.93-5.49-23.34S1443.22,414.25,1443.22,414.25Z"/>
          <path class="fc76bbc6-5e7b-4d71-88c4-70f3ea3dd231" d="M1442.79,415.08s33-32.7,63.87,20.15c0,0,17.85,28.48-23.33,26.42,0,0-35,.34-41.18-2.74-.34-1.38-5.84-20.94-5.49-23.34S1442.79,415.08,1442.79,415.08Z"/>
        </g>
        <path class="b9f5acf8-95d3-436e-be9f-6f8c4f9a046a" d="M1304.49,408.71s-56.7,30.78-23.81,52.18c0,0,6.21,4.62,40.44,4.62,0,0,122.61,4.53,142-3.08,0,0,26.5-5.47,17.73-26.18,0,0-20.72-68.23-103.57-61.65C1377.24,374.6,1358,374.83,1304.49,408.71Z"/>
        <path class="a2fee26e-ead8-4bc7-bc76-90e6ce073730" d="M1305.42,409s-56.7,30.79-23.81,52.19c0,0,6.21,4.62,40.43,4.62,0,0,122.62,4.53,142-3.08,0,0,26.51-5.47,17.73-26.18,0,0-20.71-68.24-103.56-61.66C1378.17,374.86,1358.9,375.1,1305.42,409Z"/>
      </g>
      <path class="e0e68c0c-4d86-424c-bb11-2f3c76c960c3" d="M1644.71,556a7,7,0,0,1,2,6.52c11.87-4.61,26.16-5.61,35.67-2.32,7.89,2.74,12.53,8.45,13.12,13.22.52,4.16-2.19,6.49.56,8,3.49,2,11.26.11,19.25-.9,17.72-2.26,32.84,0,48.42,2.37,0,0,4.3.65,37.41,8.5h0l-374.14,1a44.74,44.74,0,0,1,13.2-7.14c20.11-7.17,43.68-3.17,47.6-2.47a5.85,5.85,0,0,1-.78-4.52c1.71-6.48,15.76-10,23.61-12,15.14-3.84,29.83-4,39.62-3.57.33-1.7,1.72-6.53,8.8-9.51,9.81-4.13,27-3.22,39.87,3.39,1.63-1.36,6.88-5.33,16.45-6.66C1626.09,548.45,1639.57,550.61,1644.71,556Z"/>
      <path class="e09ae7dc-1507-4dbf-9f55-501217136ca0" d="M1407.86,565.93c7,5,4.41,12.13-7.14,16.69,12.55-11.08,35.43-15.58,49.28-12.92,9.37,1.8,17,7.33,14.67,11.86-3.07,6.05-23.06,8.75-22.14,9.59,1.08,1,20.4-3.57,44.27-3.2,19.13.3,37.41,3.72,36.9,5.34s-21.62,1.23-95.93,1.06q-52.87-.12-105.76,0c-23.34,0-58,0-100.84,0a72.71,72.71,0,0,1,10.5-8.4c4.41-3,7.85-5.25,11.63-6.52,14.8-5,45.14,2.21,49.2,3.19-7.82-9.14,5-18,19.67-19.19,13.57-1.12,31.36,4.05,34.44,12.8,1.16-8,13.21-14.38,28.5-15.73C1385.38,559.6,1400.53,560.67,1407.86,565.93Z"/>
      <path class="a00496f2-53d7-4bac-9802-42a3cf1a9833" d="M1200.67,573.93c3.86,3.35,2.43,8.08-4,11.13,6.93-7.39,19.55-10.39,27.2-8.61,5.17,1.2,9.36,4.88,8.09,7.9-1.69,4-12.72,5.83-12.21,6.39s11.79-3.17,24.43-2.13c8.79.72,17,3.66,16.28,5-.88,1.75-17,0-48.86-.71-11.28-.25-10.72-.07-58.36,0-12.88,0-32,0-55.64,0a42.69,42.69,0,0,1,5.79-5.6c2.44-2,4.33-3.5,6.42-4.35,8.16-3.32,24.91,1.48,27.14,2.14-4.31-6.1,2.76-12,10.86-12.79,7.49-.75,17.31,2.69,19,8.52.65-5.32,7.29-9.58,15.73-10.48C1188.26,569.71,1196.62,570.42,1200.67,573.93Z"/>
    </g>
    <path class="b1e1b30e-b9e5-4b41-b418-00ab440c4d94" d="M-175.17,673.12c133.64,5.16,241.1,4.76,307.91,3.8,0,0,1457.87-21.15,1704.33,16.35,3.2.49,31.27,4.82,31.78,11.79.63,8.65-31.78,17.1-31.78,17.1q-51.77,8-103.91,15.52C1102.07,828.29,488.89,850.24-101.77,819.33Q-138.47,746.22-175.17,673.12Z"/>
    <g>
      <path class="e4e0aed0-39b3-4013-9826-0384d45bc0c2" d="M-58.81,725.3S505.78,678.61,724.29,700s394.16,40.2,414.82,25.26,0-31.09,0-31.09,154.19-4.49,293.53,5.83,327.37-4,327.37,0-10.85,78.58-10.85,78.58h-1808Z"/>
      <g>
        <path class="b5ca599e-6784-4e96-b88b-a240c25002ea" d="M402.64,656.39c289-12.65,518.55-.76,623.48,1.45,114.3,2.41,127,8.58,212.46,8,17.48-.12,47.52,8.16,94.08,6.48,43.33-1.56,76.62,6,100.1,12.66-11.16,5.08-27.49,12.07-47.66,19a552.84,552.84,0,0,1-136.84,28.57c-147.26,12.49-220.89,18.73-476.62,12.7h0s-185.56-5-233.7-7.94c-12.73-.77-23.06-1.58-23.06-1.58-7.7-.61-17-1.48-35.36-3.18-8.62-.8-12.92-1.2-16.91-1.59-16.3-1.58-28.1-2.88-30.75-3.17-36.63-3.94-71.8-1.38-72.1-4.83-.17-2,13.47-3.94,36.9-9.53,28.79-6.87,64.22-19.05,63.5-23.5-.22-1.31-4.14-1.24-40.6-1.82-12.66-.21-18.85-.44-37.3-3.12-14.74-2.14-22.63-3.35-23.06-6.35C358.7,675.18,359.43,668.79,402.64,656.39Z"/>
        <path class="b494ff2a-c203-489b-ae6d-8eaaca3485d0" d="M379.56,685.2c10.46-3.64,24.58-10.34,43.07-14.53,34.27-7.75,60.55-9,84.26-10.21,115.37-5.73,98.66-5.63,114.86-5.91,70.3-1.18,203.6.12,375.65,5.91q52.81,2.73,105.62,5.37c15.33.77,40.83,2,56.17,2.8,49,2.5,142.88,5.22,172.1,8.39,15.74,1.71,68,8.56,68.11,17.94,0,3-5.49,5-5.08,5.87,1.13,2.46,38.58-4.67,37.94-14.85-.56-9-31.29-13.36-50.4-14.4-87.64-4.76-219.3-12.83-234.24-13.92-35.25-2.57-218.45-12.15-263-10.56s-238.05-5.9-313.92-1-163.4,5.49-180.32,10.25S317.08,686.69,379.56,685.2Z"/>
      </g>
      <path class="fb882fcc-238d-4670-a047-93fa490be387" d="M460.16,690l11.39,15.56-71.24,20.32s-41.06.92-46.27-1.73,2.48-2.89,17.85-6.73S460.16,690,460.16,690Z"/>
    </g>
    <path class="fa6f0589-50d8-4992-88d7-9bb947228e88" d="M265.21,784s-28.64-5.37-25.06-25.07,28.7,7.16,39.41,25.07Z"/>
    <path class="fa6f0589-50d8-4992-88d7-9bb947228e88" d="M293.86,784s-10.71-20.92,13.44-43.58C312.64,759.54,308.18,771.46,293.86,784Z"/>
    <g>
      <rect class="bd652f4d-4cc1-4972-878e-2ed882c9f1e9" x="-0.67" y="678.01" width="24.79" height="122.43"/>
      <path class="e1dae4de-fed4-42d5-b5ad-1f577600553f" d="M-65.42,546.6s-10-19.53,22.59-178.89S70.11,281.92,82.66,388.2,95.21,602.8,95.21,602.8C77.64,745.86-68.34,704-66.88,625.28Z"/>
    </g>
    <path class="ace7feac-8983-462d-9c3e-2d847008aefa" d="M358.86,668.64a3.24,3.24,0,0,0,3.06,2c2.34,0,4.14-3.6,4.14-3.6s1.08-4.68,2.7-3.78,5.4,3.06,5.4,3.06,3.6-2.16,3.6-5.58,1.26-3.42,2.52-3.06a9.88,9.88,0,0,0,4.14.36c1.8-.18,3.78-.36,4.32-1.08s.18-1.62,1.26-1.62,1.44,1.44,3.6.72.54-3.42,4.14-1.8,3.87,5.73,4.9,2.15,2.3-3.41,2.84-2.87a4.7,4.7,0,0,0,3.24,1.8c1.62,0,2.34-3.6,3.78-2.52s.54,3.78,3.06,2,2.52-4.5,3.6-3.24,1.62,3.42,4,2.7,2.34-3.24,4-2.52,2,4,3.6,2.34,2.16-3.6,3.42-2.88,2,3.24,3.78,2.34,2-3.06,3.24-2.16a23.18,23.18,0,0,0,2.7,1.62s-.54-2.7,1.62-2,3.42-2.88,3.6.18,1.8-2.7,1.8-.36,2-.72,1.8-.18,1.44-1.44,2.34.72-.72-2.7,2.34-.9-1.44-8.46,5.22-.18-1.62-4.32,2.88-1.44,5-.72,6.84,1.08,1.62-.9,3.24,0,2.16,1.08,3.06,1.08-.36-2.88,1.44-1.26.72-2.7,3.06-.54,2-1.08,3.78.36,1.26-1.44,2.88-.18,5.94-3.42,3.42-.72,1.44-2.16,1.8-.18,1.08-.54,4.32.54,5-2,6.12-.18.54-2.16,2.52-.54,1.8-2.7,4.68,0,3.6-3.42,4.86-.72,2.7,2,2.7.9-.36-3.42,1.26-1.26,1.8-2,3.6.36,0-2.52,2.52.18,3.24.9,3.06,0,.9-4.14,2.16-1.62,3.24,3.6,3.24,2.7.54-4.32,2.16-2.34,2.7,3.06,3.24,2,2.16-4,2.7-1.8,2-.36,1.8.54.54,3.6.9,1.44,2-3.42,2.34-2,2.52,2.52,2.7,1.62,3.42-4.68,2.7-2,1.62,2.52,2,1.08,1.44-4.32,1.44-1.62,1.08,3.78,1.44,2.16,1.62-4.32,1.8-2.16,1.8,4,2,2.34,1.62-5,1.8-3.24.72,4.86,1.8,3.06,2.16-5,2.52-2.88,2.16,5.58,2.88,4,.54-5.22,1.44-3.6,2,4.68,2.34,2.34.72-4.5,2.16-2.88,3.06,4.32,3.6,2.52,2-5.4,2.52-2.52,1.08,2.7,1.8,1.08,4-4,2.88-1.44,2.16.54,2.16.54,2.52-2.34,1.26-.18-.72,2.34,0,1.62,1.8-2.7,2.16-2.16-.36,4.32,1.8,2,2.88-3.6,3.06-2.16,1.44,4.14,2.34,2.34,3.42-4,2.88-2.16,2.34.54,2.34.54,2.7-2.34,2.34-.72.18-1.08,2.52,0,2.52,3.6,5.4,1.26,3.6-4.14,5.4-1.8,6.84,2.52,6.84,2.52,4.86-4.32,5.4-2.7a4.39,4.39,0,0,0,6.48,2c3.06-2,4.14-3.24,5-2s5,6.12,6.48,3.06,3.78-6.12,3.42-3.78.72,2.7,1.62,2.16,1.8-2.7,2.88-1.08,5,4.5,4.5,2.52-1.08-5.94,1.08-2.52,1.44,2,2,1.08.72-4.32,1.62-1.8,2.52,3.06,2,1.62-.54-5.58.54-2.16.54,3.6,1.26,1.62,5-3.24,2.52-.36,1.08,2.34,1.8.18,1.44-3.42,1.8-.9,2,2.88,2,2,3.24-2.34,2.88-1.26.36,2.7,1.44,1.62,3.24-4,3.24-1.62,1.62,3.42,1.62,1.62,2-2.16,2-.9.72,2.88,1.44.9,1.8-3.78,2-1.62,2.88,2.7,2.88,1.08,2-4,2.88-1.62,3.78.72,3.78.72.9-1.26,1.62-.18,2-1.26,3.24,0,2.34-2.7,3.42-.36c0,0-.72,1.56,1,1.56s.24-2.7,2.16-.6.78-2,2.34-.24.84-2,2.58-.06,3.12-3.24,2-.18,2.34-1.86,1.26.3,1.14-1.2,1.86.24,3.24-1.2,2.52.36,1.44-2.22,1.86-.24,2-1.2,3.54.3,2-2,3.78-.18-1.2-.84,2.88.48,3.6-2.94,5.76-.24,5.1-2.28,4.32-.18,3.12-3.66,2.94-.66,3.6-.72,5,.54,1.08-1.08,4.32.42,7.74-1.5,4.56.72,3.6-1,3.78-.36,7.26-2.28,5.1-.42-1,1.62,1.2.72,5.46-2.52,4.2-.72,3.24-.9,2.1.6,4.32-1.92,2.94-.06,6-.84,4.38.12,6.9-2.34,3.3-.24,4-1,2.7.36,7.62-1,4.14.12,7.14-1.32,4.44.06,10.74-3.72,5.4-.18,15-4.38,6.3.18c0,0,6.12-1,4.26.3s5-.72,4.14.06,4.86-1,3.24.36.42-.78.84-.18.78-.48,1.08.12.48-.84,1.2.06,1-1.68,1.68-.12,1-1.26,1.32.18,1-1.2,1.38-.06.9-1.8,1-.12,2-3.06,1.2-.42,2.22-2,.84.36,1.86-1.2,1.56,0,1.8-1.26,2.34-.06,1.56-1.38,1.68-.12,1.5-1.26,1.92.24,2.64-1.44,2.4,0,2-.78,1.56.24,2.52-1,1.74-.06,2.7-.54,1.5.18,3.84-1.2,2.1-.54,2.88-.54,1.74.24,4.44-1.2,2.88.3,3.66-2.16,2.64-.36,3.72-2.1,2.52-.18,2.52-2,2-.48,2.64-2.1,1.74.24,2.82-1.38,2.1.24,3.72-1.68,3.3,0,2-1.74,1.92-.54,2.34-2,1.5.12,2.28-1.08,1.38.3,1.56-1,1.14.06,1.8-1.2,1.2.06,2.64-1.2,2.22-.12.78.66,2.16.24,3.9-1.68,2.58-.42-.36-.12,1,.42,2.88-2.28,2-.42,1-.78,1.2.18,1.86-1.38,1.5.3,1.86-.78,1.86.24.66-1.08,1.14.12,2.76-2.28,2.88-1.14.48-.48.78.36,1.26.3,1.26.3l1.32-.12c-.24,1,1-.18,1,.48s1.2-1.14,1.2-.06,2.16-1.38,1.74-.24,2.34-1.26,2-.18.78-.54,1,.48,1.92-.78,1.86.3,1.14-1.2,1.14-.3,1.44-1.2,1.44.12,2.16-1.44,2.22-.3,2.46-2.16,1.68-.12,1.62-1.86.66.06-.36-2,1.2-.12,1-1.44,1.38.18,2.1-.66,1.44.42.54-.84.42.12,1.26-1.08,1.14-.24,1.56-1.5,1.5-.36,1.32-1.08,1.44.12,1.8-1.14,1.62.12,1.86-1.8,1.26,0,3.78-1,2.34.3,4.44-1.68,2.52-.12,6.3-1.32,2.7.06,6-1.44,2.4.24,5.4-2.16,2.1,0,6.42-1.62,2.7-.24,4.26-.48,2.4.42,6.84-1.56,3.78-.12,7.62-1.08,3.24.3,6.78-1.2,2.76.24,7.38-1.8,3.12.06,9.3-1.44,4.32.12,7.14-2.28,1.56.06,11.46-1.92,5.82.12c0,0,4.86-1.5,4,.12s1.08-1.2.84,0,3.12-1.2,2.58-.18,1.86-1.38,1.62-.18,2.46-.6,2.64.54,1.74-1.8,2.76-.06,2.52-.72,3.6.54,2.76-.48,3.06.36,1.86-.9,2.64.12,1.74-1,2.22.18,1.62-1.44,2.22-.18,1.62-1.38,2.64.24,2-1.26,2.76.18,2.46-1.44,3.78-.12,2.1-1.44,3.12.06,3.48-1.86,3.66.06,3.66-1.8,2.94.3,3.54-1,3.06.3,6.84-3.24,3.42-.24,5-2.46,2.58-.12.18-3.3,3.24.12,1.92-1.26,3,.72,5.16-3.9,3.3-.3,5.76-2.46,3.12.3,5.4-1.26,4,.42,4-2.82,1.92-.12,3.54-1.86,2.76-.24,1.92.6,1.92.9.54-1.08,1.44.06,1-.9,1.86.24,3.06-2.16,4-.48,1.44-.72,2.28.84,2-1,2.76.36,2.52-2.1,3.54-.42,1.56-2.28,3.12.24,2.4-2.58,2.88-.3.9-2.16,1.68-.18,2.58-1.2,1.74.3,2.82-1.2,1.74.18,3.06-.72,2.4.42,3.06-1.44,2.52-.12,3.3-.66,2.52.54,4.32-1.86,3.18-.06,2.76-.66,1.8.42,3.72-.3,2.52.66,3.24-1.86,2-.12,4-2.1,2-.12,5.52-2.76,3.06-.24,6.42-1.38,3.54.36,5.7-2.46,2.76-.18c0,0,3-1.38,2.7.18s2.16-1.32,1.38.42,3.12-1.32,2.88-.24,2.22-1,1.32.12,1.92-.78,1.44.36,3.24-2.52,2.46-.42,3.6-1,2.52.3,2.76-2.28,2.16-.18,2.58-.6,1.74.72,1.74-1.26,1.32.06,2.7-1.5,1.8.12,2.58-1.32,2.34-.3,2.34-1,1.8.36,2.94-1.56,2.1.06,2.82-1.26,1.92.24,2.34-1.32,1.8.12,2.52-2.58,2-.06,1.86-1.56,1.86.12,1.62-2.16,1.62.12,2.34-2.1,1.92.06,2.82-3.24,2.22,0-1.68-2.28,1.68.3,3.78-2,2.94.66,1-1.8,1.62-.18,1.8-1.26,2.22.06,1.2-1.56,2.16.06,2-1.62,2.4.24,2.58-.84,1.86.66,1.14,0,1.14,0,.06-1.92,1.14-.36,1.74-1.74,2-.06,1.14-1.38,1.8.06,1.44-1.08,2.46.3.66-1.62,1.92.18,1.14-1,2.64.42,5.4-1.44,3.12.12,2.94-1.38,2.1-.06,5.58-2,2.64.24,5.46-1.08,2.46.54,8.22-3,4.32-.12,9.84-5,4-.24,7.8-2.7,3.24.24,9.66-2.34,5.22.42,9.84-1.86,5.82.24,9.66-1.38,5.4.06,7.32-1.68,3.54.24,5.28-2,2.1.18,7.38-2.52,3.9.18,5.82-1.62,2.52.66,9.42-2,4.38.36,10.68-2.28,5.7-.54,5.94-1.56,2.64.24,6.12-1.62,3.3.3,7-.9,3.12,1.14,7.2-.12,7.2-.12c-3.18,1.38,6.6-1.92,4.38-.48s4.44-1.74,2.82-.06,4.56-.54,3.48.66,7.32-2.88,4.44-.06,8.34-.54,5.76.9,11.88-1.62,7.5.12,4.14-.24,2.64.78,12.18-1.44,9.66,0,7.56-2.22,4.26.24,18.42-2.1,11.16,1.26,8.82,1.5,8.82,1.5,9.3-5.34,5-1.56,12.78-2.64,7.32,1,7.86-3.06,3.84.42,10.44-2.94,5.88.9,16-1.32,15.54-.84,6.54-2.46,2.4.78,10.74-2.28,7,.54,7.32-1,6.24.42,18.9-1.56,12.54,1.32c0,0,15.3-.9,10,1.08s12.48.6,9,1.44,8.28,0,2.88,1.14,11.58-2.1,5.76.24,3.54.3,3.54.3,7.68-2.52,1.74.48,9.12.18,2.94,1.86c0,0,7.08,0,4.32,1.14s5,1.08,2,1.62,5.88,1.38,2.64,2.16,9.75-.87,5.07,1.38,1.08,4.23-3.24,3.33,1.53,3.42-1.71,2.43-.63,9.18-4.77,6.57-1.89,2.25-4.86-.09.63-3.51-2.61-6-1.53-5.94-9.54-8.19-64.44-8.19-70.29-8-29.61-3.15-39-3.24-51-1.89-63.9-2.34-63.09-5.76-86-5-55.71-5.58-75.51-5-52-4-76.59-3.87-32.85,1.08-66.78-.81-45.45-5.4-72.45-3.69-35-1.53-60.57-.18-57.69,0-70.83,1.17-51.93-1.08-68.31.81-40.05-1.62-55.08-.63-31.5,1.08-51.57,1.8S528.51,654.87,503,655s-29.79,3-59.85,6.21-47.88,8.46-56.61,13.32-9.27,7.83-6.48,8.1,11.25,2.07,11.88,2.07.18,1.26-2.43,1.71-8.28,1.8-7.29-.09-8,4.05-6.12.72-7.11,1.44-4.41-1.26-10.62,3.78-5.85.09-11.43,1.71-5.67-1.44-14.85,1.62-6.66-1.08-15,.81-5.85-1.89-12.78-3.06.72-4.14-7.56-6.57,2.79-5-4.5-11.16,3.51-4-1.89-9.63,4,.18"/>
    <path class="e344790a-ed82-4120-9692-9ce56bf13cf2" d="M456.42,692.46s-11.76-3.12-9.12-.48-15.36,0-9.12,3.36-15.84-2.88-8.88,1.68-13.2-.48-6.24,2.64-17.28-1.2-10.8,1.68-15.36-.48-7,3.36-14.4-1.68-7.2,2.16-13.2.24-5.76,3.84-22.56,5-14.88,7-12.48,7.2-2.4,7-5.76,6,4.08,2.88,1.92,5.28,8.4,1,1.2,5,7.2.24-7.2-1.68,9.36-8.64,18.48-10.32,28.08-13.92,12.72-6,16.32-5.76,10.32.24,11.52-.24S456.42,692.46,456.42,692.46Z"/>
    <path class="e4e0aed0-39b3-4013-9826-0384d45bc0c2" d="M397.2,727s-.72-3.42,1.08-1.8,2.16-1.44,3.06-.18,2.16-1.8,3.24.18,4-1.26,2.16.54,1.62-1.62,2,0,2.34-1.08,2.34.54,2.16-.18,2.16-.18c1.62,2.7,1.62-4,3.06-.72s3.06-.9,2.7,1.44,2.52-4.5,2.7-.72,2.52-3.06,2.52-.18-1.08-3.24,1.62.54,2.88-3.6,3.24-.18,2.16-1.26,2,1.26,1.8-4,2.16-.9,0-2.52,2.52.18,3.42-2.34,4.86.54.9-4.5,3.06-.18,3.42-3.24,3.6.18,2.16-2.88,2.7,1.08,4-4.14,3.06-.54,2.88-1.08,2.16.9-1.44-1.26,1.62.9,2.34-2.7,4-.18,2-3.24,2.88-.18,6.48-2.16,4.14.9,3.6-1.62,3.78,0,2-2,2.88.18,5-2.7,3.78.54-.72-3.42,2.34.54,6.3-3.78,4.86.36,2.88-2.34,3.24.36,2.7-3.42,3.24.36,1.62-3.06,2.88,0,3.78-2.88,3.6.36,2.16-3.78,2.7-.18,3.06-2.52,3.06.18,2.88.36,3.78,1.62.36.9,1.8.18-.18-2.88,2.16-.72,2.34-2.16,4-.18,2.52-2.7,3.42-.18,4.32-4.14,2.88.36,2.16-3.06,2.16-.36,3.24-2,2.52.54,0-3.42,2.52,0,1.62-3.6,2.88-.72,4.68-4.14,3.42,0,5.22-2.7,3.06,1.26-1.8-3.42.72.54,3.06-2.52,3.42,0,2.34-3.42,3.06-.54,3.06,1.8,3.6,2.16,1.44-1.44,2.52.54-.72-2.7,2,0,1.44-2.34,2.88-.18,2.52-1.8,3.6.18,2.52-2.34,2.7,0,.54-3.6,2.34-.9,4.32-2.34,3.42.54,1.62-3.06,2.7-.36.9-2.16,2,.18,3.6-1.44,4.14.54,2.16-3.06,2.88-.36,2.16-2.52,3.6.72,7-4.68,4.32-.9,2-2.7,2.52,0,1.8-3.06,2.52,0,1.62-2.52,3.42.18,3.24-1.62,4.68.36,1.44-2.88,2.52.18,4-2.52,4.5-.36,5.76-2.52,3.78.72,1.8-4.14,3.24-.72.72-3.6,2.88.18,4.86-1.8,4,.9.9-1.62,2.7.9,2.52-3.06,4.5,0,1.62-2.16,4.32.72,7.56-2.88,5.76-.36-.9-2.88,2.34-.18,3.78-3.24,5.22-.36,5.22-3.24,4.5,0,.9-2.88,2.7.54,2.16-3.06,2.88-.36,2.7-3.6,2.52-.54-.18-.9,2.34.9,4.14-4.14,4.5-.9,1.62-1.8,3.78.72,5.4-2.34,3.78.9,1.26-3.24,3.6-.54,5.58-2.16,6.48.72,1.44-1.8,4.14.36,5.4-4.14,6.12-1.44,1.08-1.44,4.14.54,5-2.34,4.86-.54,1.44.54,3.06,1.8,2-4,3.78-1.44,4.5-.72,4.86.36-2.52-.54,1.44,1.26,5.94-3.42,6.3-.54.72.72,4,1.8,6.84-4,6.12-.9.54-.54,4.5,1.08,5.58-4.86,6.3-.18.72-.54,5.76,1.8,8.1-4,9.54-1.62,2-1.26,5,.54,3.06-1.44,5.58.18,5.22-.36,5.22-.36,1.26-1.8,4.68.36,4.14-4.14,5.94-.9,3.24-1.62,4.32.18.36-.18,2.34,1.26,4.5-.54,4.5-.54,3.42-.9,3.78.54.54-2.16,4.5,0,1.44-3.24,5-.18,3.42,3.78,6.48,1.26.9-5.22,3.78-2.34,2,1.08,4.5,2.16,3.24-1.26,4-.54,1.44.54,2.34,1.44.9-.9,3.24-.72,2.16-5.4,4.5-1.62,3.78,1.26,4.68,2.34,1.62-2.7,2.88-.72,1.44-4,3.78-.9,2.16-4,4.32,0,7.38-3.06,4.86.72,5.4-4.86,4-1.44,4.68-.54,3.42,1.08,2.16-.18,2.34,1.8,3.6-3.24,3.42-.54,8.82-4,6.84-.54,6.66-4.14,4-.36,8.28-2.88,5.76,0,6.12-1.62,3.24,1.08,8.46-5.58,4.86-1.08,4.68-2.7,2,1.26,9.9-7,4.5-.72,11.7-6.12,5.76-.36,5.4-4.14,3.24-.72,5.58-1.26,3.24,1.26,9-4.68,6.48-.9,4.14-3.24,1.8.36,2.7-.72,2,1.26,7.38-3.6,5.4-.9,7-3.42,4.5-.54,5.76-1.62,3.78.9,9.72-2.88,7.92-.54,7.2-.54,5.58,1.08,5.4-4.68,3.78-.72-.54-3.42,3.24-.18.9-3.06,3.78,0,6.84-1.26,5.4,1.26-.72-2,2.52-.18,2.34-5,5.58-1.8.54-2.16,4.14,1.08,3.24-2.16,6.66.72,2.16-4.32,5.22.18,2.16-2.16,3.78.36,4.68-6.12,4.32-1.26,7-2.88,3.78.18,5.58-3.6,3.6-.9,6.84-1.62,4.86.36,11.34-4.86,7-.72,5.4-2.7,3.06.36,6.66-2.7,4.32,0,8.64-3.06,6.12-.36,7.92-4.32,4.32-.18,8.82-8.1,5.94.36,2.34-2.88,3.6-.36,5.58-4.5,6.66-1.44,2.16-1.8,3.42.72,3.78-3.24,4,0,11.34-3.24,10.44-.9,6.3-3.6,5.76-.54,8.28-3.6,6.12-.18,7-5.4,4.86-.9,5.22-1.62,4.86,1.26,9.36-4.68,7.38-.54,12.6-5.58,8.28-.36,4-.18,4-.18,7.2-2.52,5,.54,5.4-5.22,2.88-.9,6.48-3.78,4.86-.9,5.94-2.7,4.32.36,5.22-3.24,3.06-.18,5.4-3.78,3.06-.54,9.9-6.3,4.14-.36c0,0,2.34-.72,2.88-.36s.72-.72,2.16.18,2.7-1.44,3.42-.18,4.14-1.62,4.86-.54,3.6-2,4.5-.18,4-1.26,4.86-.18,3.06-1.62,3.6-.18,3.42-3.06,4.32-1.26-.72-4.14,3.24-.36,3.24-3.42,3.24.54,2.7-2,2.88,0,3.06-2.16,3.6-.36,1.8-3.42,3.42-1.26,3.78-3.06,3.42-.18,2.88-1.26,4,0,2.34-2.52,3.06-.72,2.88-2,3.6-.54,2.52-1.62,2.88.54,2.88-1.8,4-.18,2.52-2.16,3.78-.54.9-1.44,3.06.54,4.14-1.44,4.86-.36,1.08-2.34,2.7-.72.54-2.16,3.06-.18,1.8-1.8,3.78,0,3.6-2.88,3.6-.72,4-4,3.6-1.44.9-1.26,2.16.72,1.62-3.24,4-.36,1.62-2.7,3.42-.18,4-2.34,4.32,0,3.6-3.42,4.32-.54,6.12-3.78,4.68-1.08,4.5-3.24,3.6-.18,5.22-3.06,4.68-.54,5-3.78,4-.18,9.54-5.94,6.48-1.8-.72-1.8,2,.36.18-4.68,3.42-1.26,8.82-3.06,6.48,0,1.8-4.14,3.24-1.26,4.32-2.7,3.42-.18,2.88-2.52,2.88-.72,3.6-3.24,3.6-1.08,3.06-3.06,3.42-.18,8.64-3.78,6.66-.72,5.58-3.6,4.86-1.26,5.76-4.68,5.22-1.8,9.72-5.22,7.56-1.26,4.68-3.6,5-1.08,4.32-3.06,5.22-1.08,6.48-4.14,6.84-1.62,5-4,5.22-1.62,4.14-4.86,4.86-1.8.72-2.52,3.78-.9,4.68-5.76,4.5-1.62,6.12-5.94,3.6-1.62,5.58-5.94,3.06-1.44,6.48-8.1,3.78-1.26,6.3-6.12,3.42-1.08,5.4-6.48,3.6-2,7.92-7,4.86-.9,8.46-9,7-2.7,3.78-6.3,2.7-.72,3.6-7.56,2.7-1.26c0,0,5.4-2.52,4.5.18s.72,5.58.72,5.58-4.14,4.32-5.94,5.4-2.7,2.88-19.62,9.18-9.36,6.48-55.08,16.2-63.36,13.86-109.08,17.1-85.86,6.3-101.16,6.3-64.44-4.5-86.76-1.8a447,447,0,0,1-88.74,2.34c-37.44-2.7-45.18,5-101-.54s-113,2-139.32-3.06-119.34-8.82-141.66-7.2S404.4,729.66,397.2,727Z"/>
    <path class="fa6f0589-50d8-4992-88d7-9bb947228e88" d="M583.38,787.57S573,745.78,611.53,737.13C609.9,757.44,599,780.41,583.38,787.57Z"/>
    <path class="fa6f0589-50d8-4992-88d7-9bb947228e88" d="M540.9,787.57s-28.64-5.37-25.06-25.07,28.7,7.17,39.41,25.07Z"/>
    <path class="fa6f0589-50d8-4992-88d7-9bb947228e88" d="M567.75,787.57S557,766.65,581.2,744C586.53,763.12,582.07,775,567.75,787.57Z"/>
    <g>
      <path class="fa6f0589-50d8-4992-88d7-9bb947228e88" d="M1018.88,792.94s-28.56-23.58-13.38-30.59c19.6,7.47,28,28.8,28.76,30.59S1018.88,792.94,1018.88,792.94Z"/>
      <path class="fa6f0589-50d8-4992-88d7-9bb947228e88" d="M1034.29,787.57s-4-8.45,10-32c17.24-11.25-10,37.34-10,37.34"/>
      <path class="fa6f0589-50d8-4992-88d7-9bb947228e88" d="M1049.31,792.94s-13-31.66,21.22-49C1078.21,761.33,1049.31,792.94,1049.31,792.94Z"/>
    </g>
    <g>
      <g>
        <path class="b4ed167d-4d11-41d6-a207-c5727b0bbea5" d="M274.32,750.82s7.15-76.77,41.48-89.77c22.88-5.9,10,50.68-20.74,98.57,68.65-58.94,55.06-45.41,55.06-45.41,34.33-26,32.9,4.72,12.88,22.44a346.56,346.56,0,0,1-48.63,39s-.07,7.08,15,0,39.37-18.9,39.37-18.9-38.62,16.54,2.86-1.18,25.75,16.53,2.86,24.8-12.88,4.73-12.88,4.73L260,785.83v-94.4s5.9-23.5,11.53-9.81S274.32,750.82,274.32,750.82Z"/>
        <polygon class="b2a098bf-0659-4895-b7c6-1b7efbf54e80" points="267.19 784.79 314.93 676.85 268.53 785.37 267.19 784.79 267.19 784.79"/>
        <path class="b2a098bf-0659-4895-b7c6-1b7efbf54e80" d="M279.17,788c28.72-22.71,58-44.85,85.22-69.36l2.51-2.5-2.48,2.53c-12.85,12.22-26.66,23.38-40.28,34.73q-21.88,18.06-44.06,35.75l-.91-1.15Z"/>
        <path class="b2a098bf-0659-4895-b7c6-1b7efbf54e80" d="M324.6,787.85c20.77-4.35,44.09-11.73,60-26.34-12,11.66-27.87,18.33-43.58,23.45-5.3,1.67-10.64,3.16-16.11,4.33l-.27-1.44Z"/>
      </g>
      <path class="ecdac692-ae3c-4417-8e7b-81ae29f6888e" d="M260,731c0-3.6-1.78-25.05-10.09-39.88s-19.4-15.82-15.54,5.89,6.75,31,6.75,31-13-26.84-23.14-32.76-7.24,14,3.37,28.65,14.51,21.6,14.51,21.6-24.24-35.36-36.21-37.08,30.18,49.37,30.18,49.37S196.29,731.68,187.13,731,175.56,743.62,201.59,760s18.8,10.45,18.8,10.45l-39.63-6.87s-26.62,7.93,0,12.84l46.82,8.62,32.43.75V733"/>
      <polygon class="b2a098bf-0659-4895-b7c6-1b7efbf54e80" points="264.96 774.25 267.86 694.32 266.42 774.29 264.96 774.25 264.96 774.25"/>
      <polygon class="b2a098bf-0659-4895-b7c6-1b7efbf54e80" points="256.95 770.64 241.61 691.08 258.38 770.35 256.95 770.64 256.95 770.64"/>
      <path class="b2a098bf-0659-4895-b7c6-1b7efbf54e80" d="M241.23,774.89c-15.09-10.22-37.38-26.07-52.51-36.64,8.86,5.93,31.34,21,39.92,26.65,4.44,2.93,8.89,5.93,13.35,8.74l-.76,1.25Z"/>
      <polygon class="b2a098bf-0659-4895-b7c6-1b7efbf54e80" points="249.34 776.89 204.77 716.13 250.5 776.02 249.34 776.89 249.34 776.89"/>
      <polygon class="b2a098bf-0659-4895-b7c6-1b7efbf54e80" points="256.99 782.11 221.3 705.82 258.34 781.55 256.99 782.11 256.99 782.11"/>
      <polygon class="b2a098bf-0659-4895-b7c6-1b7efbf54e80" points="249.5 783.51 182.58 770.5 249.77 782.07 249.5 783.51 249.5 783.51"/>
    </g>
    <g>
      <path class="ed3d48ce-6148-43be-9ec8-af144f179e1b" d="M1539.48,667.49s14.29-43.53,24.83-21.35c7.26,22.9,0,111.94,0,111.94s14.51-87.59,22.42-99.21,16-10.44,13.27,12.94-10,61.75-10,61.75l10-31.3.54,55.82L1588.71,778l11.2-4.36.63,34.91-64.57-2.8Z"/>
      <polygon class="b2a098bf-0659-4895-b7c6-1b7efbf54e80" points="1543.49 784.09 1555.12 657.26 1544.95 784.21 1543.49 784.09 1543.49 784.09"/>
      <polygon class="b2a098bf-0659-4895-b7c6-1b7efbf54e80" points="1559.65 783.97 1588.7 672.88 1561.06 784.33 1559.65 783.97 1559.65 783.97"/>
      <g>
        <path class="afc89af9-50b5-4141-8cdc-f7828bbf2622" d="M1520.47,743.88s-9.51-102-55.14-119.32c-30.42-7.85-13.31,67.36,27.57,131-91.26-78.35-73.2-60.37-73.2-60.37-45.63-34.54-43.73,6.28-17.11,29.83,30.42,29.83,64.64,51.81,64.64,51.81s.09,9.42-19.92,0S1395,751.73,1395,751.73s51.33,22-3.81-1.57c-19.74-8.43-29.73-8-33-3.48-4.5,6.18,17.12,26.67,29.23,36.45,5.54,4.48,13.84,11.19,25.59,16.72,29.08,13.68,58,10.12,71.53,7.46l56.67-.77q-.84-70.8-1.69-141.61s-7.84-31.23-15.33-13S1520.47,743.88,1520.47,743.88Z"/>
        <polygon class="b2a098bf-0659-4895-b7c6-1b7efbf54e80" points="1528.38 789.71 1466.48 645.55 1529.72 789.12 1528.38 789.71 1528.38 789.71"/>
        <path class="b2a098bf-0659-4895-b7c6-1b7efbf54e80" d="M1513,794.63c-29.46-23.54-58.83-47.2-87.61-71.58-8.36-7.14-16.74-14.28-24.65-21.93l-3.3-3.36,3.33,3.33c26.65,24.39,55.35,46.46,83.5,69.08q14.77,11.7,29.63,23.31l-.9,1.15Z"/>
        <path class="b2a098bf-0659-4895-b7c6-1b7efbf54e80" d="M1453.31,794.77c-27.08-6.13-59.2-17-79.38-36.68,16.14,15.22,37.39,23.55,58.3,30,7,2.07,14.18,3.89,21.35,5.28l-.27,1.43Z"/>
      </g>
    </g>
    <path class="e40636b8-5f8b-43c0-8dc2-768e76396ef1" d="M1631.09,922.59h-1751V807.33c31.55-21.71,44.3-59.32,61.62-58,10.66.83,151.05,91.77,368.23,68.4,174.52-18.78,321-12.23,460.47,2.19,521.05,53.89,549.18,55.06,657.88,46.59,108.5-8.45,168.08-48.16,202.8-59.2C1613.3,813,1631.09,903.92,1631.09,922.59Z"/>
  </g>
  <g class="ea07ef1c-1d76-4446-be88-c9d2fe8d5a1e">
    <path class="f1aadabb-a4d9-4ea8-a795-a4d566ee3d4b" d="M1562.06,423.13S1705,400.06,1907,464c228.59,43.8,294.23,88.81,294.23,88.81L1588,551.06Z"/>
    <path class="bea8d968-58be-4460-a6ce-ebc9f5ba94c0" d="M2836.11,586.78a57.34,57.34,0,0,1,5.94-7.21,59.86,59.86,0,0,1,6.24-5.62q-15.18-1.22-30.88-3.12c-58-7.11-118.13-24.44-118.13-24.44-199.7-57.58-348.62-34.51-348.62-34.51C2253.3,527,2201,563.39,2100,542.31a350.16,350.16,0,0,1-59.07-17.9,576.76,576.76,0,0,0-150.38-25.06c-117.25-3.73-204.89,29.73-236.3,43a547.43,547.43,0,0,0-93.09,50.34C2335.07,593.54,2832.3,592.06,2836.11,586.78Z"/>
  </g>
</svg>
