<svg id="a8712596-165e-4aff-b74e-e640fe962564" data-name="Layer 1" xmlns="http://www.w3.org/2000/svg" xmlns:xlink="http://www.w3.org/1999/xlink" width="1600" height="900" viewBox="0 0 1600 900">
  <defs>
    <style>
      .a1d2f532-0b92-481d-be0d-4fbc922201c9, .a79435f7-c4c0-498b-aa2b-70b5462882d8, .ae8358a8-12c7-4ed2-b477-80e2789dab62, .b402756b-0a06-4bf9-a6e6-9393a998e494, .b4cfbd00-b9a0-48ad-a5eb-22811941249a, .be28deea-e2ea-4558-9c65-2fb1d0f6b52e, .bec7b9f0-9dae-4385-8554-faf2ebdbaefe, .e214f864-b0d6-4fde-b9e2-0d97fdf7b51a, .e399e001-a41a-4a69-b94c-4ab2074d59a0, .e6a4e692-f3bb-4443-9e67-aab67194ae4f, .e717331a-810d-4cdd-b87d-85ac9a398a71, .e7a379f3-a74a-428d-81fa-410148155d01, .eb564987-f312-4a0e-8f2c-7b267cb97eaf, .fde9b153-519c-4a9d-9aae-fa884b249939, .ff06ad06-e35e-42ce-a36b-3b26704e66ce {
        fill: none;
      }

      .bd412cba-cdd0-4725-abd3-25e87376bc6b {
        clip-path: url(#ed61b6dd-8476-45fe-9abb-c303aabe29af);
      }

      .a9dd9fd4-1d94-4d61-be66-e241625ddf87 {
        fill: url(#b1933307-abde-42aa-875e-7f19d045f96f);
      }

      .a36e1263-46e0-4484-be31-335701ecd204 {
        fill: url(#b3b3d2e5-9467-494b-bbad-8d1a33592282);
      }

      .ecdf5bda-e103-4627-b3c8-afa668f87151 {
        fill: #8fc4ec;
      }

      .b35f1435-5cb2-4557-b283-8489be2cd2a3 {
        fill: #72aae5;
      }

      .a0702a4c-6238-4f80-96cd-ca43f6494aff {
        fill: url(#bb6c0192-e044-40e2-8d3b-68d555fe58ea);
      }

      .e82ac443-605a-427f-aba3-70bc359ee469 {
        fill: url(#a1861faf-02aa-4793-8c2d-50b46660c4f4);
      }

      .a6e8d8f6-9899-4210-b4f4-1c0d04103f2f {
        fill: url(#a7e594d2-585c-49ed-aa5c-6693c97e832b);
      }

      .fd4634c0-ef9f-4ab6-a498-a2a02ddcc883 {
        fill: url(#f4b7af77-c15c-4e22-8948-1c09abfdc2cc);
      }

      .b62c5e43-2f2a-44a5-8cdd-cfc359bbda66 {
        fill: #19b851;
      }

      .afd9053b-ea51-42f9-8085-68fd8cf9e852 {
        fill: #532016;
      }

      .f535af1a-79e5-47d7-ae55-23442a3ddc32 {
        fill: url(#b8057d2b-0710-4d30-9ca1-25916e39f21e);
      }

      .a8624c8f-dafa-4153-99ec-ea89299aff3d {
        fill: url(#e0b06cc9-e4a9-48d2-a275-a393a8e893ba);
      }

      .b1941b62-23fa-4033-8d81-19a311b94a37 {
        fill: url(#ad644ae1-a852-40d3-8217-e69e1de9963e);
      }

      .be4e6412-d50e-4244-9f12-571a20b94897 {
        fill: #5e2106;
      }

      .ae856af5-a504-477f-8304-ff5edd1941c3 {
        fill: #e68851;
      }

      .b951d434-d7d6-4b2c-91aa-ad13c43d0a87 {
        fill: #843812;
      }

      .b8bd78cc-109d-4f49-a794-b730bc935985 {
        fill: #301102;
      }

      .a31eb5c9-1ae6-4447-a7c2-b2a909697571 {
        fill: url(#f4af69f2-7690-4300-a22c-720c7b849074);
      }

      .bba7e083-2be5-4e28-ba89-12a97883b3c5 {
        fill: url(#f9807ed8-d2b3-48af-b7e7-a3577195ca7a);
      }

      .bc0dfc39-d333-4939-9cc6-b80c415265b8 {
        fill: url(#b715591b-f4ac-4932-94c7-cc6269b27b4e);
      }

      .fb972469-fb40-419f-96a0-6c68399d1e3a {
        fill: url(#f50ab886-27a6-43f0-92dc-12bb32850045);
      }

      .bd9ec8e7-f974-447a-b406-8eea3fed8c72 {
        fill: #68522c;
      }

      .b0a69bc7-2180-4195-9482-ead8f9e0a9e4 {
        fill: url(#b3f76cd8-7e69-4b4c-b7f6-1b9cd94ec527);
      }

      .bcefb922-e7bf-4a0a-b662-df6cea78e4da {
        fill: #4c3d20;
        opacity: 0.51;
      }

      .a885a8f3-625f-4e4e-a5f2-353f3b0373f4 {
        fill: #631b14;
      }

      .a7bec060-72f3-4bb8-85c7-d52722e5f4c8 {
        fill: #9a2e25;
      }

      .a6986058-56db-4d90-ac0d-4500c38c2614 {
        fill: #6b1d12;
      }

      .bdeb45ef-83ee-4322-b7e6-198468828344 {
        fill: #c9492a;
      }

      .e02f919e-df24-45e2-94c7-1372fa9281d3 {
        fill: #eb6e33;
      }

      .e56928ba-8047-40f1-b3db-6c3c8656aff2 {
        fill: #f73c38;
      }

      .b2940a58-41eb-4521-9d5b-ecb7c1d04496 {
        fill: #953623;
      }

      .a76b329f-d082-4245-b999-07ce1d747d78 {
        fill: #300b07;
      }

      .e164f37a-ca13-47c6-84a2-0d01be7d0bed {
        fill: #913523;
      }

      .e63dbeb7-364c-4d4c-812e-d5e24201356b {
        fill: #a53721;
      }

      .fdb7fe02-b3ed-46d9-9cdc-d5b58a5be516 {
        fill: #873227;
      }

      .eb915ae0-ae1b-4fa2-ac56-c159b157d80e {
        fill: #75271a;
      }

      .b5153ae0-7dac-4d63-9457-bc42a48f658c {
        fill: #a5411b;
      }

      .adae7f0a-8f76-4231-abe0-4b5428c1693e {
        fill: #e08d97;
      }

      .fba85e26-20f2-4dab-bb83-c5c8bd785e21 {
        fill: #b50d1c;
      }

      .e7a379f3-a74a-428d-81fa-410148155d01 {
        stroke: #60120a;
        stroke-width: 1.08px;
      }

      .a1d2f532-0b92-481d-be0d-4fbc922201c9, .a79435f7-c4c0-498b-aa2b-70b5462882d8, .ae8358a8-12c7-4ed2-b477-80e2789dab62, .b402756b-0a06-4bf9-a6e6-9393a998e494, .b4cfbd00-b9a0-48ad-a5eb-22811941249a, .bec7b9f0-9dae-4385-8554-faf2ebdbaefe, .e214f864-b0d6-4fde-b9e2-0d97fdf7b51a, .e399e001-a41a-4a69-b94c-4ab2074d59a0, .e6a4e692-f3bb-4443-9e67-aab67194ae4f, .e717331a-810d-4cdd-b87d-85ac9a398a71, .e7a379f3-a74a-428d-81fa-410148155d01, .eb564987-f312-4a0e-8f2c-7b267cb97eaf, .fde9b153-519c-4a9d-9aae-fa884b249939, .ff06ad06-e35e-42ce-a36b-3b26704e66ce {
        stroke-miterlimit: 10;
      }

      .e6a4e692-f3bb-4443-9e67-aab67194ae4f {
        stroke: #841a02;
      }

      .e6a4e692-f3bb-4443-9e67-aab67194ae4f, .e717331a-810d-4cdd-b87d-85ac9a398a71 {
        stroke-width: 5.43px;
      }

      .e399e001-a41a-4a69-b94c-4ab2074d59a0 {
        stroke: #269e05;
      }

      .a1d2f532-0b92-481d-be0d-4fbc922201c9, .a79435f7-c4c0-498b-aa2b-70b5462882d8, .ae8358a8-12c7-4ed2-b477-80e2789dab62, .e399e001-a41a-4a69-b94c-4ab2074d59a0 {
        stroke-width: 5.59px;
      }

      .a79435f7-c4c0-498b-aa2b-70b5462882d8 {
        stroke: #ff4729;
      }

      .a1d2f532-0b92-481d-be0d-4fbc922201c9 {
        stroke: #ffd60b;
      }

      .ae8358a8-12c7-4ed2-b477-80e2789dab62 {
        stroke: #03a7f9;
      }

      .fde9b153-519c-4a9d-9aae-fa884b249939 {
        stroke: #f50;
      }

      .b402756b-0a06-4bf9-a6e6-9393a998e494, .b4cfbd00-b9a0-48ad-a5eb-22811941249a, .bec7b9f0-9dae-4385-8554-faf2ebdbaefe, .e214f864-b0d6-4fde-b9e2-0d97fdf7b51a, .eb564987-f312-4a0e-8f2c-7b267cb97eaf, .fde9b153-519c-4a9d-9aae-fa884b249939, .ff06ad06-e35e-42ce-a36b-3b26704e66ce {
        stroke-width: 5.62px;
      }

      .eb564987-f312-4a0e-8f2c-7b267cb97eaf {
        stroke: #ff9700;
      }

      .ff06ad06-e35e-42ce-a36b-3b26704e66ce {
        stroke: #1ec900;
      }

      .b4cfbd00-b9a0-48ad-a5eb-22811941249a {
        stroke: #1515ff;
      }

      .e214f864-b0d6-4fde-b9e2-0d97fdf7b51a {
        stroke: #f200ff;
      }

      .b402756b-0a06-4bf9-a6e6-9393a998e494 {
        stroke: #00d6f9;
      }

      .bec7b9f0-9dae-4385-8554-faf2ebdbaefe {
        stroke: #ffe708;
      }

      .e717331a-810d-4cdd-b87d-85ac9a398a71 {
        stroke: #d63200;
      }

      .b8e20946-6df8-4233-9b0f-707a4ae2034a {
        fill: #a17949;
      }

      .ad1f81de-4b6d-44f4-9c06-55bb74ea1c89 {
        fill: #dfa851;
      }

      .b525894b-f98f-4669-a25a-6b159cd3c111 {
        fill: #3a59b2;
      }

      .e8a9046f-4e15-488a-a534-ad00a6d0acab {
        fill: #163e73;
      }
    </style>
    <clipPath id="ed61b6dd-8476-45fe-9abb-c303aabe29af">
      <rect class="be28deea-e2ea-4558-9c65-2fb1d0f6b52e" width="1600" height="900"/>
    </clipPath>
    <linearGradient id="b1933307-abde-42aa-875e-7f19d045f96f" x1="801.67" y1="587.4" x2="797.83" y2="-8.92" gradientUnits="userSpaceOnUse">
      <stop offset="0.3" stop-color="#90e7de"/>
      <stop offset="0.94" stop-color="#bee7ea"/>
    </linearGradient>
    <linearGradient id="b3b3d2e5-9467-494b-bbad-8d1a33592282" x1="1211.44" y1="656.55" x2="1533.15" y2="182.05" gradientUnits="userSpaceOnUse">
      <stop offset="0.12" stop-color="#a2dee0"/>
      <stop offset="0.83" stop-color="#85ddd4"/>
    </linearGradient>
    <linearGradient id="bb6c0192-e044-40e2-8d3b-68d555fe58ea" x1="786.65" y1="349.12" x2="854.94" y2="227.77" gradientUnits="userSpaceOnUse">
      <stop offset="0.15" stop-color="#93e7df"/>
      <stop offset="0.49" stop-color="#aeeae7"/>
      <stop offset="0.83" stop-color="#c5eced"/>
    </linearGradient>
    <linearGradient id="a1861faf-02aa-4793-8c2d-50b46660c4f4" x1="89.53" y1="179.38" x2="222.26" y2="0.24" gradientUnits="userSpaceOnUse">
      <stop offset="0.24" stop-color="#a8e7e4"/>
      <stop offset="0.38" stop-color="#b1e9e7"/>
      <stop offset="0.77" stop-color="#c8eded"/>
    </linearGradient>
    <linearGradient id="a7e594d2-585c-49ed-aa5c-6693c97e832b" x1="1436.75" y1="229.34" x2="1503.02" y2="106.87" gradientUnits="userSpaceOnUse">
      <stop offset="0.22" stop-color="#a8e7e4"/>
      <stop offset="0.27" stop-color="#ace8e5"/>
      <stop offset="0.57" stop-color="#beebeb"/>
      <stop offset="0.78" stop-color="#c5eced"/>
    </linearGradient>
    <linearGradient id="f4b7af77-c15c-4e22-8948-1c09abfdc2cc" x1="368.6" y1="578.55" x2="1685.24" y2="578.55" gradientUnits="userSpaceOnUse">
      <stop offset="0" stop-color="#61986a"/>
      <stop offset="0.94" stop-color="#5da1a2"/>
    </linearGradient>
    <linearGradient id="b8057d2b-0710-4d30-9ca1-25916e39f21e" x1="45.74" y1="615.91" x2="86.04" y2="387.47" gradientTransform="translate(22.24 55.96) rotate(-3.08)" gradientUnits="userSpaceOnUse">
      <stop offset="0.15" stop-color="#0a5731"/>
      <stop offset="0.3" stop-color="#1f784a"/>
      <stop offset="0.59" stop-color="#43b377"/>
      <stop offset="0.81" stop-color="#59d892"/>
      <stop offset="0.92" stop-color="#62e69d"/>
    </linearGradient>
    <linearGradient id="e0b06cc9-e4a9-48d2-a275-a393a8e893ba" x1="-22.45" y1="615.69" x2="13.73" y2="410.65" gradientTransform="translate(22.24 55.96) rotate(-3.08)" gradientUnits="userSpaceOnUse">
      <stop offset="0.04" stop-color="#0a5731"/>
      <stop offset="0.21" stop-color="#1f784a"/>
      <stop offset="0.54" stop-color="#43b377"/>
      <stop offset="0.79" stop-color="#59d892"/>
      <stop offset="0.92" stop-color="#62e69d"/>
    </linearGradient>
    <linearGradient id="ad644ae1-a852-40d3-8217-e69e1de9963e" x1="111.43" y1="608.08" x2="136.29" y2="467.22" xlink:href="#e0b06cc9-e4a9-48d2-a275-a393a8e893ba"/>
    <linearGradient id="f4af69f2-7690-4300-a22c-720c7b849074" x1="1422.56" y1="646.34" x2="1462.86" y2="417.9" xlink:href="#b8057d2b-0710-4d30-9ca1-25916e39f21e"/>
    <linearGradient id="f9807ed8-d2b3-48af-b7e7-a3577195ca7a" x1="1354.47" y1="596.07" x2="1390.65" y2="391.02" gradientTransform="matrix(1, -0.05, 0.05, 0.85, 29.48, 190.38)" xlink:href="#e0b06cc9-e4a9-48d2-a275-a393a8e893ba"/>
    <linearGradient id="b715591b-f4ac-4932-94c7-cc6269b27b4e" x1="1488.25" y1="638.51" x2="1513.11" y2="497.65" xlink:href="#e0b06cc9-e4a9-48d2-a275-a393a8e893ba"/>
    <linearGradient id="f50ab886-27a6-43f0-92dc-12bb32850045" x1="-0.47" y1="756.36" x2="1565.65" y2="756.36" gradientUnits="userSpaceOnUse">
      <stop offset="0" stop-color="#6cb053"/>
      <stop offset="0.94" stop-color="#80e15c"/>
    </linearGradient>
    <linearGradient id="b3f76cd8-7e69-4b4c-b7f6-1b9cd94ec527" x1="692.97" y1="838.43" x2="1486.66" y2="781.44" gradientUnits="userSpaceOnUse">
      <stop offset="0.12" stop-color="#fab676"/>
      <stop offset="0.52" stop-color="#e8b073"/>
      <stop offset="0.92" stop-color="#daac70"/>
    </linearGradient>
  </defs>
  <g class="bd412cba-cdd0-4725-abd3-25e87376bc6b">
    <rect class="a9dd9fd4-1d94-4d61-be66-e241625ddf87" width="1600.45" height="725.32"/>
    <path class="a36e1263-46e0-4484-be31-335701ecd204" d="M969,452.85s223.8-148.42,381.63-149.91c224.47-2.12,296.32,78.34,296.32,78.34l-3.24,198.9-641.5,16.92Z"/>
    <path class="ecdf5bda-e103-4627-b3c8-afa668f87151" d="M389.31,385.42s107.86,89.94,298.51,2.76c201.2-92,452.5,143.26,452.5,143.26l144.55,75.27-815-11.94Z"/>
    <path class="b35f1435-5cb2-4557-b283-8489be2cd2a3" d="M-6.76,247.43s127.05-17.9,329.43,98.47C451.23,419.82,578.9,555.44,842.28,618.55L516.59,633l-529.71,3Z"/>
    <g>
      <path class="a0702a4c-6238-4f80-96cd-ca43f6494aff" d="M752.15,295s17.62-31.4,79.68-29.87,55.17,41.36,34.48,44.42S760.14,319.35,752.15,295Z"/>
      <path class="e82ac443-605a-427f-aba3-70bc359ee469" d="M49.35,96S76.67,40.91,172.89,43.6s85.53,72.53,53.45,77.9S61.74,138.7,49.35,96Z"/>
      <path class="a6e8d8f6-9899-4210-b4f4-1c0d04103f2f" d="M1396.34,184.09S1414,152.68,1476,154.21s55.17,41.37,34.48,44.43S1404.32,208.45,1396.34,184.09Z"/>
    </g>
    <path class="fd4634c0-ef9f-4ab6-a498-a2a02ddcc883" d="M368.6,666.17s382.75-183,670.75-180.58c363.48,3,645.89,185.94,645.89,185.94Z"/>
    <path class="b62c5e43-2f2a-44a5-8cdd-cfc359bbda66" d="M1124.13,618.21s290.44-26.6,476.32-47.26v75.36S1137,638.13,1124.13,618.21Z"/>
    <g>
      <g>
        <rect class="afd9053b-ea51-42f9-8085-68fd8cf9e852" x="100.81" y="610.49" width="19.26" height="48.68"/>
        <path class="f535af1a-79e5-47d7-ae55-23442a3ddc32" d="M50.21,612.24s-5.24-121,61.62-176.83c0,0,17.68-11.18,34.79,29s29.92,114.26,21.48,148.44C161.68,638.85,52.48,645.87,50.21,612.24Z"/>
      </g>
      <g>
        <rect class="afd9053b-ea51-42f9-8085-68fd8cf9e852" x="29.45" y="630.9" width="13.61" height="43.88"/>
        <path class="a8624c8f-dafa-4153-99ec-ea89299aff3d" d="M-1,621.92S-4.73,512.85,42.51,462.55c0,0,12.48-10.08,24.57,26.17s21.14,103,15.18,133.78C77.73,645.9.59,652.23-1,621.92Z"/>
      </g>
      <g>
        <rect class="afd9053b-ea51-42f9-8085-68fd8cf9e852" x="163.96" y="633.94" width="13.61" height="29.93"/>
        <path class="b1941b62-23fa-4033-8d81-19a311b94a37" d="M129.44,622.23s-3.71-74.4,43.52-108.71c0,0,12.49-6.88,24.58,17.85s21.13,70.24,15.17,91.25C208.18,638.58,131,642.9,129.44,622.23Z"/>
      </g>
    </g>
    <g>
      <path class="be4e6412-d50e-4244-9f12-571a20b94897" d="M0,585.33s104.92,1,165.84,0,254.46-2.08,288.93-2.81,182.45-12.15,213.47-16.36,166.94-4.11,231.28,4.34,173.36,1.82,173.36,1.82v8.38s-135.59,2.18-168.2.72-98-11.29-172.88-9.47-144.94,10.58-144.94,10.58l-193.14,8-154.3,4.44L0,591.06Z"/>
      <g>
        <path class="ae856af5-a504-477f-8304-ff5edd1941c3" d="M37.06,575.36H18.6s-4.26.68-3.9,13.22,0,45.73,0,45.73H33.51Z"/>
        <path class="ae856af5-a504-477f-8304-ff5edd1941c3" d="M50.55,576.72H69.36s4.26-.68,5.33,12.19,2.48,44,2.48,44H59.42Z"/>
        <path class="ae856af5-a504-477f-8304-ff5edd1941c3" d="M90.3,575.36l19.88,1.35s2.49,2,2.13,16.27-1.77,38.28-1.77,38.28l-16,1.69Z"/>
        <path class="ae856af5-a504-477f-8304-ff5edd1941c3" d="M147.45,576.71v53.87L129,633V581.12s-2.13-4.41,6.39-4.41Z"/>
        <polygon class="ae856af5-a504-477f-8304-ff5edd1941c3" points="172.66 576.71 191.11 576.71 191.11 630.58 174.07 630.58 172.66 576.71"/>
        <polygon class="ae856af5-a504-477f-8304-ff5edd1941c3" points="210.79 576.71 229.28 576.71 231.01 634.75 210.79 637.16 210.79 576.71"/>
        <path class="ae856af5-a504-477f-8304-ff5edd1941c3" d="M250,575.36h19.31s1.9,2,1.58,13.46,0,39.58,0,39.58L250,630.58l-2.85-40.77Z"/>
        <polygon class="ae856af5-a504-477f-8304-ff5edd1941c3" points="290.53 574.02 308.58 574.02 310.8 576.71 310.8 630.58 290.53 632.95 290.53 574.02"/>
        <polygon class="ae856af5-a504-477f-8304-ff5edd1941c3" points="331.69 572.21 351.64 572.21 350.06 635.05 331.69 635.05 331.69 572.21"/>
        <polygon class="ae856af5-a504-477f-8304-ff5edd1941c3" points="369.05 575.36 384.88 575.36 387.73 604.83 387.73 637.16 367.79 635.05 369.05 575.36"/>
        <path class="ae856af5-a504-477f-8304-ff5edd1941c3" d="M404.83,574s-5.38,2.55-1.27,32.24l4.12,29.7h17.73L420,572.21Z"/>
        <path class="ae856af5-a504-477f-8304-ff5edd1941c3" d="M435.86,574,432.06,636H448.2l6.65-53.48a9.06,9.06,0,0,0-3.48-8.46Z"/>
        <polygon class="ae856af5-a504-477f-8304-ff5edd1941c3" points="461.5 572.21 482.4 572.21 484.61 635.96 466.25 637.16 461.5 572.21"/>
        <polygon class="ae856af5-a504-477f-8304-ff5edd1941c3" points="497.59 568.88 518.49 568.88 516.59 632.95 497.59 635.96 497.59 568.88"/>
        <polygon class="ae856af5-a504-477f-8304-ff5edd1941c3" points="541.28 568.88 561.55 566.16 565.35 632.95 541.28 635.96 541.28 568.88"/>
        <path class="ae856af5-a504-477f-8304-ff5edd1941c3" d="M579,566.16s7-6,18.36-1.21c0,0,5.7,41.7,5.7,63.15l-18.36,2.42S577.69,576.13,579,566.16Z"/>
        <polygon class="ae856af5-a504-477f-8304-ff5edd1941c3" points="609.99 560.42 626.45 557.1 640.38 626.59 616.64 627.8 609.99 560.42"/>
        <polygon class="ae856af5-a504-477f-8304-ff5edd1941c3" points="654 554.38 652.73 614.81 656.53 626.59 686.29 625.08 676.16 554.38 654 554.38"/>
        <polygon class="ae856af5-a504-477f-8304-ff5edd1941c3" points="692.37 552.43 728.58 550.46 723.31 621.27 701.23 621.27 692.37 552.43"/>
        <polygon class="ae856af5-a504-477f-8304-ff5edd1941c3" points="750.02 552.95 776.74 552.95 770.33 623.31 750.02 621.27 750.02 552.95"/>
        <polygon class="ae856af5-a504-477f-8304-ff5edd1941c3" points="798.47 554.38 819.84 554.38 821.98 590.48 821.98 623.31 796.33 621.27 798.47 554.38"/>
        <path class="ae856af5-a504-477f-8304-ff5edd1941c3" d="M840.86,553h22.79s7.13.34,6.77,11.56-5.7,54-5.7,54H842.28Z"/>
        <polygon class="ae856af5-a504-477f-8304-ff5edd1941c3" points="895.35 561.11 916.37 563.08 916.37 618.55 887.87 618.55 895.35 561.11"/>
        <polygon class="ae856af5-a504-477f-8304-ff5edd1941c3" points="943.44 550.46 935.25 601.06 937.03 618.55 968.02 618.55 963.48 550.46 943.44 550.46"/>
        <path class="ae856af5-a504-477f-8304-ff5edd1941c3" d="M983.69,550.46,1007.2,553s6.06-1.16,6.41,10.13-5,56.83-5,56.83h-21Z"/>
        <polygon class="ae856af5-a504-477f-8304-ff5edd1941c3" points="1036.76 561.11 1057.07 562.81 1058.49 618.55 1031.42 619.91 1036.76 561.11"/>
        <polygon class="b951d434-d7d6-4b2c-91aa-ad13c43d0a87" points="18.6 575.36 35.03 576.71 32.11 634.31 33.51 634.31 37.06 575.36 18.6 575.36"/>
        <path class="b951d434-d7d6-4b2c-91aa-ad13c43d0a87" d="M50.55,576.72l18.74,1.68s2.82,1.05,3.13,6.58,3.92,48,3.92,48h.83l-2.69-46s0-8.62-5.12-10.23Z"/>
        <path class="b951d434-d7d6-4b2c-91aa-ad13c43d0a87" d="M108.63,631.46s4.1-42,0-50.81c0,0-1.42-3.31-18.33-5.29l19.88,1.35s2.33,2.95,2.15,12.17-1.79,42.38-1.79,42.38Z"/>
        <path class="b951d434-d7d6-4b2c-91aa-ad13c43d0a87" d="M129.48,578.24s11.74-1.64,15.54,1.43v51.22l2.43-.31V576.71H133.62S130.06,577.33,129.48,578.24Z"/>
        <polygon class="b951d434-d7d6-4b2c-91aa-ad13c43d0a87" points="172.66 576.71 188.58 578 188.58 630.58 191.11 630.58 191.11 576.71 172.66 576.71"/>
        <polygon class="b951d434-d7d6-4b2c-91aa-ad13c43d0a87" points="210.79 577.99 226.09 579.3 228.49 635.05 231.01 634.75 229.28 576.71 210.79 576.71 210.79 577.99"/>
        <path class="b951d434-d7d6-4b2c-91aa-ad13c43d0a87" d="M250,575.36l16.86,1.35s1.64,2.2,1.23,16.43-.7,35.63-.7,35.63l3.54-.37-.06-38.52s.75-11.79-1.56-14.52Z"/>
        <polygon class="b951d434-d7d6-4b2c-91aa-ad13c43d0a87" points="290.53 574.02 306.57 575.36 308.9 578.5 308.28 630.88 310.8 630.58 310.8 576.71 308.58 574.02 290.53 574.02"/>
        <polygon class="b951d434-d7d6-4b2c-91aa-ad13c43d0a87" points="331.69 572.21 348.75 574.02 346.73 635.05 350.06 635.05 351.64 572.21 331.69 572.21"/>
        <polygon class="b951d434-d7d6-4b2c-91aa-ad13c43d0a87" points="369.05 575.36 381.61 576.72 385.18 604.08 385.18 637.16 387.73 637.16 387.62 603.63 384.88 575.36 369.05 575.36"/>
        <polygon class="b951d434-d7d6-4b2c-91aa-ad13c43d0a87" points="404.83 574.02 417.89 574.02 423.79 635.96 425.41 635.96 420.02 572.21 404.83 574.02"/>
        <path class="b951d434-d7d6-4b2c-91aa-ad13c43d0a87" d="M435.86,574l14.44,1.34a11.92,11.92,0,0,1,2.63,7.72c-.15,4.59-6.2,52.88-6.2,52.88h1.47l6.56-52.73s1.24-6.59-3.39-9.21Z"/>
        <polygon class="b951d434-d7d6-4b2c-91aa-ad13c43d0a87" points="461.5 572.21 480.07 574.02 482.55 635.96 484.61 635.96 482.4 572.21 461.5 572.21"/>
        <polygon class="b951d434-d7d6-4b2c-91aa-ad13c43d0a87" points="497.59 568.88 516.09 570.98 513.83 633.39 516.59 632.95 518.49 568.88 497.59 568.88"/>
        <polygon class="b951d434-d7d6-4b2c-91aa-ad13c43d0a87" points="541.28 568.88 559.06 568.88 562.72 633.39 565.35 632.95 561.55 566.16 541.28 568.88"/>
        <path class="b951d434-d7d6-4b2c-91aa-ad13c43d0a87" d="M579,566.16s10.51-3,16.5,1.06c0,0,5.26,56.33,5,61.22l2.59-.34s-.73-29-2-40.1c-1-9.19-3.69-23-3.69-23S587.75,559.39,579,566.16Z"/>
        <polygon class="b951d434-d7d6-4b2c-91aa-ad13c43d0a87" points="609.99 560.42 623.67 559.68 636.83 626.77 640.38 626.59 626.45 557.1 609.99 560.42"/>
        <polygon class="b951d434-d7d6-4b2c-91aa-ad13c43d0a87" points="654 554.38 672.93 556.34 682.87 625.25 686.29 625.08 676.16 554.38 654 554.38"/>
        <polygon class="b951d434-d7d6-4b2c-91aa-ad13c43d0a87" points="692.37 552.43 725.55 552.95 721.02 621.27 723.31 621.27 728.58 550.46 692.37 552.43"/>
        <polygon class="b951d434-d7d6-4b2c-91aa-ad13c43d0a87" points="750.02 552.95 773.21 554.38 767.49 623.03 770.33 623.31 776.74 552.95 750.02 552.95"/>
        <polygon class="b951d434-d7d6-4b2c-91aa-ad13c43d0a87" points="798.47 554.38 816.6 556.01 819.85 585.75 819.85 623.31 821.98 623.31 821.84 588.13 819.84 554.38 798.47 554.38"/>
        <path class="b951d434-d7d6-4b2c-91aa-ad13c43d0a87" d="M840.86,553l22.71,2.25s4.63,1,5,9.32-5.66,54-5.66,54h1.84l5.3-47.82S873.51,555,863.65,553Z"/>
        <polygon class="b951d434-d7d6-4b2c-91aa-ad13c43d0a87" points="895.35 561.11 913.8 565.01 913.8 618.55 916.37 618.55 916.37 563.08 895.35 561.11"/>
        <polygon class="b951d434-d7d6-4b2c-91aa-ad13c43d0a87" points="943.44 550.46 960.43 552.95 964.89 618.55 968.02 618.55 963.48 550.46 943.44 550.46"/>
        <path class="b951d434-d7d6-4b2c-91aa-ad13c43d0a87" d="M983.69,550.46l23,4.41s6,2.29,4.63,17l-4.8,48h2.07l4.31-42.47s4.2-21.69-4.35-24.42Z"/>
        <polygon class="b951d434-d7d6-4b2c-91aa-ad13c43d0a87" points="1036.76 561.11 1054.55 564.52 1056.14 618.55 1058.49 618.55 1057.07 562.81 1036.76 561.11"/>
      </g>
      <g>
        <ellipse class="b8bd78cc-109d-4f49-a794-b730bc935985" cx="23.53" cy="588.2" rx="3" ry="2.86"/>
        <ellipse class="b8bd78cc-109d-4f49-a794-b730bc935985" cx="62.65" cy="589.34" rx="3" ry="2.86"/>
        <ellipse class="b8bd78cc-109d-4f49-a794-b730bc935985" cx="100.07" cy="589.34" rx="3" ry="2.86"/>
        <ellipse class="b8bd78cc-109d-4f49-a794-b730bc935985" cx="136.97" cy="589.34" rx="3" ry="2.86"/>
        <ellipse class="b8bd78cc-109d-4f49-a794-b730bc935985" cx="181.88" cy="589.99" rx="3" ry="2.86"/>
        <ellipse class="b8bd78cc-109d-4f49-a794-b730bc935985" cx="219.14" cy="589.34" rx="3" ry="2.86"/>
        <ellipse class="b8bd78cc-109d-4f49-a794-b730bc935985" cx="257.5" cy="589.99" rx="3" ry="2.86"/>
        <ellipse class="b8bd78cc-109d-4f49-a794-b730bc935985" cx="300.67" cy="588.36" rx="3" ry="2.86"/>
        <ellipse class="b8bd78cc-109d-4f49-a794-b730bc935985" cx="339.29" cy="588.36" rx="3" ry="2.86"/>
        <ellipse class="b8bd78cc-109d-4f49-a794-b730bc935985" cx="375.39" cy="587.55" rx="3" ry="2.86"/>
        <ellipse class="b8bd78cc-109d-4f49-a794-b730bc935985" cx="409.89" cy="586.57" rx="3" ry="2.86"/>
        <ellipse class="b8bd78cc-109d-4f49-a794-b730bc935985" cx="444.75" cy="585.5" rx="3" ry="2.86"/>
        <ellipse class="b8bd78cc-109d-4f49-a794-b730bc935985" cx="471.23" cy="584.68" rx="3" ry="2.86"/>
        <ellipse class="b8bd78cc-109d-4f49-a794-b730bc935985" cx="506.76" cy="582.63" rx="3" ry="2.86"/>
        <ellipse class="b8bd78cc-109d-4f49-a794-b730bc935985" cx="550.84" cy="579.77" rx="3" ry="2.86"/>
        <ellipse class="b8bd78cc-109d-4f49-a794-b730bc935985" cx="586.55" cy="578.14" rx="3" ry="2.86"/>
        <ellipse class="b8bd78cc-109d-4f49-a794-b730bc935985" cx="619.69" cy="574.02" rx="3" ry="2.86"/>
        <ellipse class="b8bd78cc-109d-4f49-a794-b730bc935985" cx="664.62" cy="571.15" rx="3" ry="2.86"/>
        <ellipse class="b8bd78cc-109d-4f49-a794-b730bc935985" cx="710.47" cy="568.29" rx="3" ry="2.86"/>
        <ellipse class="b8bd78cc-109d-4f49-a794-b730bc935985" cx="760.38" cy="567.64" rx="3" ry="2.86"/>
        <ellipse class="b8bd78cc-109d-4f49-a794-b730bc935985" cx="809.15" cy="569.76" rx="3" ry="2.86"/>
        <ellipse class="b8bd78cc-109d-4f49-a794-b730bc935985" cx="854.93" cy="572.62" rx="3" ry="2.86"/>
        <ellipse class="b8bd78cc-109d-4f49-a794-b730bc935985" cx="905.12" cy="577.68" rx="3" ry="2.86"/>
        <ellipse class="b8bd78cc-109d-4f49-a794-b730bc935985" cx="951.63" cy="578.49" rx="3" ry="2.86"/>
        <ellipse class="b8bd78cc-109d-4f49-a794-b730bc935985" cx="999.72" cy="579.18" rx="3" ry="2.86"/>
        <ellipse class="b8bd78cc-109d-4f49-a794-b730bc935985" cx="1046.36" cy="578.49" rx="3" ry="2.86"/>
      </g>
    </g>
    <g>
      <g>
        <polygon class="afd9053b-ea51-42f9-8085-68fd8cf9e852" points="1496.35 626.37 1477.22 625.78 1477.27 566.79 1496.53 566.79 1496.35 626.37"/>
        <path class="a31eb5c9-1ae6-4447-a7c2-b2a909697571" d="M1426.68,568.54s-5.25-121,61.61-176.83c0,0,17.68-11.18,34.79,29S1553,535,1544.56,569.18C1538.15,595.15,1429,602.17,1426.68,568.54Z"/>
      </g>
      <g>
        <rect class="afd9053b-ea51-42f9-8085-68fd8cf9e852" x="1405.91" y="587.19" width="13.61" height="43.88"/>
        <path class="bba7e083-2be5-4e28-ba89-12a97883b3c5" d="M1375.63,579.66s-2.81-92.43,44.82-135.46c0,0,12.56-8.65,24.34,22s20.28,87.12,14.07,113.28C1454.14,599.35,1377,605.34,1375.63,579.66Z"/>
      </g>
      <g>
        <rect class="afd9053b-ea51-42f9-8085-68fd8cf9e852" x="1540.42" y="590.24" width="13.61" height="29.93"/>
        <path class="bc0dfc39-d333-4939-9cc6-b80c415265b8" d="M1505.9,578.52s-3.71-74.39,43.53-108.7c0,0,12.48-6.88,24.57,17.85s21.14,70.24,15.17,91.25C1584.64,594.88,1507.5,599.2,1505.9,578.52Z"/>
      </g>
    </g>
    <path class="fb972469-fb40-419f-96a0-6c68399d1e3a" d="M0,631.24s199.81-9.41,378.39,0,388.21-28.87,782.36-15.75,438.52,13.9,438.52,13.9L1600,900H-.47Z"/>
    <g>
      <path class="bd9ec8e7-f974-447a-b406-8eea3fed8c72" d="M1596,736.51S1386.61,705.05,1227.49,691s-321.13-6.38-321.13-6.38-27.38,7.43-13.13,24.06-28.94,21.35-64.2,23.5-94.93,1.2-140.66,11.25-208.8,12.81-253.21,33.08S500.84,879.33,772.74,897H1596Z"/>
      <path class="b0a69bc7-2180-4195-9482-ead8f9e0a9e4" d="M1600,744.45s-214.34-28.83-371.36-42.29S911.73,696,911.73,696s-28.86,3.24-14.8,19.21-26.71,24.42-61.5,26.48-93.68,1.15-138.81,10.8-206,12.31-249.87,31.78S511.56,883,779.88,900H1600Z"/>
    </g>
    <g>
      <path class="bcefb922-e7bf-4a0a-b662-df6cea78e4da" d="M562.23,775.26,468,709.59l50.08-11.47L400.22,662.71,255.58,684.19l17.22,11L163,715.84l3.25,5.84,116.64-20.19,29.55,18.15L211.16,746.23,221.3,750,323,726l23.21,11.5L379,730c7.43,4.84,87.34,56.21,160.7,76.37Z"/>
      <path class="bcefb922-e7bf-4a0a-b662-df6cea78e4da" d="M1167.8,641.08l182.09,23.67,5.17-2.11-252.38-33.22,4.6,3.79,18.72,2.43-36.32,8.22.38.06-48-7.51L1040,638l253.07,40.13,4.81-1.65-8.39-1.31L1323,661.26l-9-.79-32.09,13.47.12,0-39.45-6.17,24.3-13.83-6.16-.8-25.33,13.5-46.46-7.27,23.87-12.3-5-.8-24.52,12.23-40.12-6.29Zm-35.94-4.67,32.75,4.25-2.49-.32-25.69,10.83,1.34.21L1097.23,645Z"/>
    </g>
    <g>
      <polygon class="a885a8f3-625f-4e4e-a5f2-353f3b0373f4" points="397.72 471.77 532.62 468.75 532.62 483.14 397.72 483.14 397.72 471.77"/>
      <polygon class="a7bec060-72f3-4bb8-85c7-d52722e5f4c8" points="387.93 374.5 390.55 663.49 404.35 663.49 404.35 374.5 387.93 374.5"/>
      <polygon class="a6986058-56db-4d90-ac0d-4500c38c2614" points="248.63 556.11 393.87 546.62 532.62 561.59 532.62 571.1 351.99 584.98 249.55 571.66 248.63 556.11"/>
      <polygon class="a885a8f3-625f-4e4e-a5f2-353f3b0373f4" points="237.5 472.4 391 468.75 391 483.82 237.5 485.54 237.5 472.4"/>
      <polygon class="bdeb45ef-83ee-4322-b7e6-198468828344" points="354.39 577.19 528.61 561.59 528.61 575.7 354.39 590.19 354.39 577.19"/>
      <g>
        <polygon class="bdeb45ef-83ee-4322-b7e6-198468828344" points="532.84 370.51 518.56 722.73 535.81 722.73 550.69 370.51 532.84 370.51"/>
        <polygon class="e02f919e-df24-45e2-94c7-1372fa9281d3" points="544.29 370.51 528.61 722.73 535.81 722.73 550.69 370.51 544.29 370.51"/>
      </g>
      <g>
        <polygon class="bdeb45ef-83ee-4322-b7e6-198468828344" points="329.14 376.82 346.24 737.47 363.44 736.19 346.93 375.5 329.14 376.82"/>
        <polygon class="e02f919e-df24-45e2-94c7-1372fa9281d3" points="340.55 375.97 356.26 736.73 363.44 736.19 346.93 375.5 340.55 375.97"/>
      </g>
      <polygon class="e56928ba-8047-40f1-b3db-6c3c8656aff2" points="286.61 265.46 178.62 370.51 310.36 368.52 433.47 251.49 286.61 265.46"/>
      <polygon class="b2940a58-41eb-4521-9d5b-ecb7c1d04496" points="370.04 332.99 438.43 261.63 562.55 364.57 410.57 364.57 370.04 332.99"/>
      <path class="e02f919e-df24-45e2-94c7-1372fa9281d3" d="M339.4,363.3s84.79-2.51,207.44-.58l13.33,11.78-231.94,2Z"/>
      <polygon class="a76b329f-d082-4245-b999-07ce1d747d78" points="406.83 214.26 397.93 215.79 385.22 229.19 550.69 374.54 560.17 374.5 393.87 227.56 406.83 214.26"/>
      <polygon class="be4e6412-d50e-4244-9f12-571a20b94897" points="326.2 382.48 477.38 230.88 462.26 214.26 310.36 368.52 326.2 382.48"/>
      <polygon class="be4e6412-d50e-4244-9f12-571a20b94897" points="393.87 227.56 406.83 214.26 589.69 374.5 560.17 374.5 423.44 253.68 393.87 227.56"/>
      <polygon class="b2940a58-41eb-4521-9d5b-ecb7c1d04496" points="326.2 382.48 183.94 382.48 178.62 370.51 310.36 368.52 326.2 382.48"/>
      <polygon class="e164f37a-ca13-47c6-84a2-0d01be7d0bed" points="215.57 379.69 227.96 379.69 266.74 682.61 252.41 684.29 215.57 379.69"/>
      <polygon class="e63dbeb7-364c-4d4c-812e-d5e24201356b" points="338.65 577.43 251.53 563.84 253.22 577.01 339.25 590.19 338.65 577.43"/>
      <polygon class="fdb7fe02-b3ed-46d9-9cdc-d5b58a5be516" points="462.26 214.26 452.93 216.61 300.69 368.76 315.91 382.48 326.2 382.48 310.36 368.52 462.26 214.26"/>
      <polygon class="a76b329f-d082-4245-b999-07ce1d747d78" points="300.69 368.76 310.36 368.52 326.2 382.48 315.91 382.48 300.69 368.76"/>
      <polygon class="eb915ae0-ae1b-4fa2-ac56-c159b157d80e" points="385.22 229.19 393.87 227.56 406.83 214.26 397.93 215.79 385.22 229.19"/>
      <ellipse class="a76b329f-d082-4245-b999-07ce1d747d78" cx="439.17" cy="255" rx="5.7" ry="5.26"/>
      <g>
        <path class="b5153ae0-7dac-4d63-9457-bc42a48f658c" d="M325.37,563.57l-28.83,43.36-52.65-10.88,20.75-34.94-2.37-7.2L156.71,718.27l9.58,3.41L182,699.2,227,722l-10.09,29.07,4.52-.72L327.49,570.44Zm-94,152-45.92-24,15.39-25.38,48.22,19.46ZM254,679,204.21,659.5,220.11,633l50,17.76Zm20.26-34.13-50-18.33,15.14-24.82,52.32,13.54Z"/>
        <path class="e02f919e-df24-45e2-94c7-1372fa9281d3" d="M316.76,561.76l-22.34,39.38-52.65-11.2,20.76-36-8-1.41L155.9,718l8.25,3,15.72-24.84,45,23.48-15.31,26.74,7.34,4.7L325.37,563.57ZM229.28,713.07l-45.91-24.69,15.39-26.14,48.22,20Zm22.57-37.76-49.76-20L218,628l50,18.3Zm20.26-35.14-50-18.88,15.13-25.55,52.32,13.94Z"/>
      </g>
      <path class="adae7f0a-8f76-4231-abe0-4b5428c1693e" d="M376.09,567.71s36.46,2.4,55-8.62l34.86,25.47s41.59,75.85,43.63,79.55,68.51,72.23,68.51,72.23l81.52,51.29L566,818.46l-48.19-27.88L450,723.82,397.82,618.08l-29.77-47.45Z"/>
      <path class="fba85e26-20f2-4dab-bb83-c5c8bd785e21" d="M355.09,553.91s31,6,57.8,74.8,48.18,129,153.13,182.64v7.11S463.91,782.29,414.83,680.83c0,0-38.88-92.82-58.6-103.77Z"/>
      <path class="fba85e26-20f2-4dab-bb83-c5c8bd785e21" d="M431.06,537s30.37,5,57.21,73.85,66.36,113.78,171.31,167.45v9.35S545.32,741.56,492.22,650.92c0,0-41.45-80.87-61.16-91.83Z"/>
      <g>
        <line class="e7a379f3-a74a-428d-81fa-410148155d01" x1="393.87" y1="275.63" x2="266.74" y2="284.79"/>
        <line class="e7a379f3-a74a-428d-81fa-410148155d01" x1="364.73" y1="304.76" x2="241.83" y2="309.02"/>
        <line class="e7a379f3-a74a-428d-81fa-410148155d01" x1="335.74" y1="333.73" x2="215.57" y2="334.56"/>
        <line class="e7a379f3-a74a-428d-81fa-410148155d01" x1="310.36" y1="359.09" x2="190.36" y2="359.09"/>
        <line class="e7a379f3-a74a-428d-81fa-410148155d01" x1="408.17" y1="298.37" x2="459.46" y2="294.4"/>
        <line class="e7a379f3-a74a-428d-81fa-410148155d01" x1="385.22" y1="323.3" x2="488.82" y2="320.19"/>
        <line class="e7a379f3-a74a-428d-81fa-410148155d01" x1="385.22" y1="344.81" x2="516.85" y2="344.81"/>
      </g>
    </g>
    <g>
      <path class="e6a4e692-f3bb-4443-9e67-aab67194ae4f" d="M1104.2,632.44s25.28-104.51,93.1-115.89C1305.22,498.46,1352,664,1352,664"/>
      <g>
        <line class="e6a4e692-f3bb-4443-9e67-aab67194ae4f" x1="1292.77" y1="664.04" x2="1349.61" y2="656.44"/>
        <line class="e399e001-a41a-4a69-b94c-4ab2074d59a0" x1="1281.64" y1="638.13" x2="1339.53" y2="632.13"/>
        <line class="a79435f7-c4c0-498b-aa2b-70b5462882d8" x1="1270.66" y1="613.02" x2="1328.26" y2="608.92"/>
        <line class="a1d2f532-0b92-481d-be0d-4fbc922201c9" x1="1254.46" y1="587.52" x2="1314.99" y2="585.86"/>
        <line class="ae8358a8-12c7-4ed2-b477-80e2789dab62" x1="1235.12" y1="560.95" x2="1297.58" y2="561.7"/>
        <line class="fde9b153-519c-4a9d-9aae-fa884b249939" x1="1213.74" y1="539.59" x2="1278.99" y2="541.76"/>
        <line class="eb564987-f312-4a0e-8f2c-7b267cb97eaf" x1="1192.26" y1="525.18" x2="1258.84" y2="527.03"/>
        <line class="ff06ad06-e35e-42ce-a36b-3b26704e66ce" x1="1136.98" y1="514.03" x2="1198.05" y2="516.43"/>
        <line class="b4cfbd00-b9a0-48ad-a5eb-22811941249a" x1="1103.8" y1="526.11" x2="1168.5" y2="528"/>
        <line class="e214f864-b0d6-4fde-b9e2-0d97fdf7b51a" x1="1079.16" y1="549.08" x2="1144.35" y2="551.44"/>
        <line class="b402756b-0a06-4bf9-a6e6-9393a998e494" x1="1060.7" y1="579.84" x2="1124.13" y2="581.01"/>
        <line class="bec7b9f0-9dae-4385-8554-faf2ebdbaefe" x1="1047.5" y1="615.54" x2="1110.23" y2="613.02"/>
      </g>
      <path class="e717331a-810d-4cdd-b87d-85ac9a398a71" d="M1042.12,638.49s17.75-110.83,89-123c113.38-19.38,163.74,162,163.74,162"/>
    </g>
    <g>
      <polygon class="b8e20946-6df8-4233-9b0f-707a4ae2034a" points="1404.29 750.03 1367.45 761.41 1639.32 830.66 1818.59 769.4 1794.18 765.33 1404.29 750.03"/>
      <g>
        <path class="ad1f81de-4b6d-44f4-9c06-55bb74ea1c89" d="M1396.34,681.65s21.73-50,121.49-44.18c82.76,4.8,83.35,13,112.8,9.59,0,0,44.18-3.42,79.53,4.8s94.39,29.79,94.39,29.79l-165.23,43.67Z"/>
        <polygon class="b525894b-f98f-4669-a25a-6b159cd3c111" points="1639.32 819.34 1641.09 738.16 1404.29 695.01 1404.29 762.82 1639.32 819.34"/>
        <polygon class="e8a9046f-4e15-488a-a534-ad00a6d0acab" points="1396.34 696.04 1639.32 741.76 1639.32 725.32 1396.34 681.65 1396.34 696.04"/>
      </g>
    </g>
  </g>
</svg>
