<svg id="Layer_1" data-name="Layer 1" xmlns="http://www.w3.org/2000/svg" xmlns:xlink="http://www.w3.org/1999/xlink" viewBox="0 0 1600 900"><defs><style>.cls-1{fill:none;}.cls-2{clip-path:url(#clip-path);}.cls-3{fill:#00aff2;}.cls-4{opacity:0.06;}.cls-5{fill:#fff;}</style><clipPath id="clip-path"><rect class="cls-1" width="1600" height="900"/></clipPath></defs><g class="cls-2"><rect class="cls-3" width="1600" height="900"/><g id="BG_texture" data-name="BG texture" class="cls-4"><polygon class="cls-5" points="180.57 677.81 194.09 686.15 190.58 670.25 202.41 659.49 186.74 658.03 180.53 643.04 174.35 658.05 158.69 659.54 170.54 670.27 167.07 686.19 180.57 677.81"/><path class="cls-5" d="M96.22,654.15,115.43,666l-5-22.61,16.8-15.3L105,626l-8.83-21.31-8.77,21.33-22.27,2.12L82,643.43,77,666.05ZM78.89,632.8l12.4-1.18,4.89-11.88,4.92,11.87,12.4,1.15-9.37,8.52,2.78,12.59-10.7-6.61L85.53,653.9l2.74-12.6Z"/><polygon class="cls-5" points="180.76 842.63 174.59 857.64 158.92 859.14 170.78 869.87 167.3 885.79 180.8 877.41 194.32 885.75 190.81 869.84 202.64 859.08 186.97 857.63 180.76 842.63"/><path class="cls-5" d="M96.39,796l19.21,11.86-5-22.61,16.81-15.3-22.27-2.06-8.82-21.31-8.78,21.33L65.29,770l16.84,15.25L77.2,807.88ZM79.06,774.63l12.4-1.18,4.89-11.88,4.91,11.87,12.4,1.15-9.36,8.52,2.78,12.59-10.7-6.61-10.69,6.64,2.75-12.6Z"/><path class="cls-5" d="M193.84,752.09l-12.42-30-12.34,30-31.34,3,23.71,21.47-6.94,31.83,27-16.75,27,16.69-7-31.82L225.18,755Zm-1.2,21.45,3.91,17.72L181.49,782l-15,9.33,3.86-17.73-13.2-11.95L174.57,760l6.88-16.72,6.92,16.7,17.45,1.62Z"/><polygon class="cls-5" points="95.72 715.09 105.33 721.02 102.83 709.71 111.24 702.07 100.1 701.03 95.69 690.38 91.31 701.04 80.17 702.1 88.6 709.73 86.13 721.04 95.72 715.09"/><polygon class="cls-5" points="190.35 470.65 202.17 459.89 186.51 458.44 180.3 443.44 174.12 458.45 158.46 459.94 170.31 470.67 166.84 486.59 180.34 478.21 193.86 486.56 190.35 470.65"/><path class="cls-5" d="M96.05,512.32l19.22,11.86-5-22.61,16.81-15.3-22.27-2.06L96,462.9l-8.78,21.33L65,486.35,81.8,501.6l-4.93,22.62ZM78.73,491l12.4-1.18L96,477.91l4.92,11.87,12.4,1.15L104,499.45,106.75,512l-10.7-6.61-10.69,6.64,2.75-12.6Z"/><path class="cls-5" d="M208.31,608.74l-7-31.82L225,555.4l-31.34-2.91-12.42-30-12.35,30-31.33,3L161.22,577l-6.95,31.84,27-16.76ZM170.09,574l-13.2-12,17.45-1.66,6.88-16.72,6.91,16.7L205.59,562l-13.18,12,3.91,17.72-15.06-9.3-15,9.34Z"/><polygon class="cls-5" points="95.56 573.26 105.16 579.19 102.67 567.88 111.07 560.24 99.94 559.2 95.53 548.55 91.14 559.21 80.01 560.27 88.43 567.9 85.96 579.21 95.56 573.26"/><path class="cls-5" d="M110.78,927.06l16.81-15.3-22.27-2.06-8.83-21.31-8.77,21.33-22.26,2.12L82.3,927.09l-4.93,22.62,19.18-11.9,19.21,11.86Zm-14.24,3.86-10.68,6.64L88.61,925l-9.39-8.5,12.4-1.18,4.89-11.88,4.92,11.87,12.4,1.15-9.36,8.52,2.77,12.59Z"/><polygon class="cls-5" points="95.89 856.92 105.49 862.85 103 851.54 111.4 843.9 100.27 842.86 95.86 832.21 91.47 842.87 80.34 843.93 88.76 851.56 86.29 862.87 95.89 856.92"/><polygon class="cls-5" points="174.29 259.13 158.63 260.62 170.48 271.36 167.01 287.27 180.51 278.89 194.03 287.24 190.52 271.33 202.35 260.57 186.68 259.12 180.47 244.12 174.29 259.13"/><path class="cls-5" d="M96.18,370.68l19.21,11.86-5-22.61,16.81-15.29-22.27-2.07-8.82-21.31L87.34,342.6l-22.26,2.12L81.93,360,77,382.59ZM78.85,349.34l12.4-1.18,4.89-11.88,4.91,11.87,12.4,1.15-9.36,8.51,2.78,12.6-10.7-6.61-10.69,6.63,2.75-12.6Z"/><path class="cls-5" d="M208.48,409.42l-7-31.82,23.66-21.52-31.34-2.91-12.42-30L169,353.2l-31.33,3,23.71,21.46-6.95,31.84,27-16.76Zm-38.22-34.77-13.2-12L174.51,361l6.88-16.72L188.3,361l17.46,1.62-13.18,12,3.91,17.72L181.43,383l-15,9.34Z"/><polygon class="cls-5" points="95.68 431.62 105.28 437.55 102.79 426.25 111.19 418.6 100.06 417.57 95.65 406.91 91.26 417.58 80.13 418.64 88.55 426.27 86.08 437.58 95.68 431.62"/><polygon class="cls-5" points="174.29 52.88 158.63 54.37 170.48 65.11 167.01 81.02 180.51 72.64 194.03 80.99 190.52 65.08 202.35 54.32 186.68 52.87 180.47 37.87 174.29 52.88"/><path class="cls-5" d="M96.18,224.12,115.39,236l-5-22.61,16.81-15.29L104.94,196,96.12,174.7,87.34,196l-22.26,2.12,16.85,15.25L77,236ZM78.85,202.78l12.4-1.18,4.89-11.88,4.91,11.87,12.4,1.15-9.36,8.52,2.78,12.59-10.7-6.61-10.69,6.63,2.75-12.59Z"/><path class="cls-5" d="M208.48,203.17l-7-31.82,23.66-21.52-31.34-2.91-12.42-30L169,147l-31.33,3,23.71,21.46-6.95,31.84,27-16.76ZM170.26,168.4l-13.2-12,17.45-1.66,6.88-16.72,6.91,16.7,17.46,1.62-13.18,12,3.91,17.72-15.06-9.3-15,9.34Z"/><polygon class="cls-5" points="95.68 285.06 105.28 291 102.79 279.69 111.19 272.04 100.06 271.01 95.65 260.36 91.26 271.02 80.13 272.08 88.55 279.71 86.08 291.02 95.68 285.06"/><path class="cls-5" d="M96.18,77.57l19.21,11.86-5-22.61,16.81-15.3-22.27-2.06L96.12,28.15,87.34,49.48,65.08,51.6,81.93,66.85,77,89.47ZM78.85,56.22,91.25,55l4.89-11.88L101.05,55l12.4,1.15-9.36,8.52,2.78,12.59-10.7-6.61L85.48,77.32l2.75-12.6Z"/><polygon class="cls-5" points="95.68 138.51 105.28 144.44 102.79 133.13 111.19 125.48 100.06 124.45 95.65 113.8 91.26 124.46 80.13 125.52 88.55 133.15 86.08 144.46 95.68 138.51"/><polygon class="cls-5" points="347.69 677.81 361.21 686.15 357.7 670.25 369.53 659.49 353.86 658.03 347.65 643.04 341.48 658.05 325.81 659.54 337.67 670.27 334.19 686.19 347.69 677.81"/><path class="cls-5" d="M263.34,654.15,282.56,666l-5-22.61,16.81-15.3L272.11,626l-8.82-21.31-8.78,21.33-22.26,2.12,16.84,15.25-4.93,22.62ZM246,632.8l12.4-1.18,4.88-11.88,4.92,11.87,12.4,1.15-9.36,8.52L274,653.87l-10.7-6.61-10.69,6.64,2.75-12.6Z"/><polygon class="cls-5" points="347.89 842.63 341.71 857.64 326.05 859.14 337.9 869.87 334.43 885.79 347.93 877.41 361.45 885.75 357.94 869.84 369.76 859.08 354.1 857.63 347.89 842.63"/><path class="cls-5" d="M263.51,796l19.21,11.86-5-22.61,16.81-15.3-22.26-2.06-8.83-21.31-8.77,21.33L232.41,770l16.85,15.25-4.94,22.62Zm-17.33-21.35,12.4-1.18,4.89-11.88,4.91,11.87,12.41,1.15-9.37,8.52,2.78,12.59-10.7-6.61-10.68,6.64,2.74-12.6Z"/><path class="cls-5" d="M361,752.09l-12.42-30-12.35,30-31.33,3,23.7,21.47-6.94,31.83,27-16.75,27,16.69-7-31.82L392.3,755Zm-1.2,21.45,3.91,17.72L348.62,782l-15,9.33,3.87-17.73-13.21-11.95L341.69,760l6.88-16.72,6.92,16.7,17.45,1.62Z"/><polygon class="cls-5" points="262.85 715.09 272.45 721.02 269.96 709.71 278.36 702.07 267.23 701.03 262.82 690.38 258.43 701.04 247.3 702.1 255.72 709.73 253.25 721.04 262.85 715.09"/><polygon class="cls-5" points="357.47 470.65 369.3 459.89 353.63 458.44 347.42 443.44 341.25 458.45 325.58 459.94 337.43 470.67 333.96 486.59 347.46 478.21 360.98 486.56 357.47 470.65"/><path class="cls-5" d="M263.18,512.32l19.21,11.86-5-22.61,16.81-15.3-22.27-2.06-8.82-21.31-8.77,21.33-22.27,2.12,16.85,15.25L244,524.22ZM245.85,491l12.4-1.18,4.89-11.88,4.91,11.87,12.4,1.15-9.36,8.52L273.87,512l-10.7-6.61-10.69,6.64,2.75-12.6Z"/><path class="cls-5" d="M375.43,608.74l-7-31.82,23.66-21.52-31.34-2.91-12.42-30-12.34,30-31.33,3L328.34,577l-6.94,31.84,27-16.76ZM337.21,574,324,562l17.45-1.66,6.88-16.72,6.92,16.7L372.71,562l-13.18,12,3.91,17.72-15.06-9.3-15,9.34Z"/><polygon class="cls-5" points="262.68 573.26 272.29 579.19 269.79 567.88 278.2 560.24 267.06 559.2 262.65 548.55 258.26 559.21 247.13 560.27 255.55 567.9 253.09 579.21 262.68 573.26"/><path class="cls-5" d="M277.9,927.06l16.81-15.3-22.27-2.06-8.82-21.31-8.78,21.33-22.26,2.12,16.84,15.25-4.93,22.62,19.18-11.9,19.22,11.86Zm-14.23,3.86L253,937.56l2.75-12.6-9.38-8.5,12.4-1.18,4.88-11.88,4.92,11.87,12.4,1.15-9.36,8.52,2.78,12.59Z"/><polygon class="cls-5" points="263.01 856.92 272.62 862.85 270.12 851.54 278.53 843.9 267.39 842.86 262.98 832.21 258.59 842.87 247.46 843.93 255.88 851.56 253.42 862.87 263.01 856.92"/><polygon class="cls-5" points="341.42 259.13 325.75 260.62 337.6 271.36 334.13 287.27 347.63 278.89 361.15 287.24 357.64 271.33 369.47 260.57 353.8 259.12 347.59 244.12 341.42 259.13"/><path class="cls-5" d="M263.3,370.68l19.21,11.86-5-22.61,16.81-15.29-22.26-2.07-8.83-21.31-8.77,21.34-22.27,2.12L249.05,360l-4.94,22.62ZM246,349.34l12.4-1.18,4.89-11.88,4.91,11.87,12.41,1.15-9.37,8.51,2.78,12.6-10.7-6.61-10.68,6.63,2.74-12.6Z"/><path class="cls-5" d="M375.6,409.42l-7-31.82,23.65-21.52-31.34-2.91-12.41-30-12.35,30-31.33,3,23.7,21.46-6.94,31.84,27-16.76Zm-38.21-34.77-13.21-12L341.63,361l6.88-16.72,6.92,16.7,17.45,1.62-13.18,12,3.91,17.72L348.55,383l-15,9.34Z"/><polygon class="cls-5" points="262.8 431.62 272.41 437.55 269.91 426.25 278.32 418.6 267.18 417.57 262.77 406.91 258.38 417.58 247.25 418.64 255.68 426.27 253.21 437.58 262.8 431.62"/><polygon class="cls-5" points="341.42 52.88 325.75 54.37 337.6 65.11 334.13 81.02 347.63 72.64 361.15 80.99 357.64 65.08 369.47 54.32 353.8 52.87 347.59 37.87 341.42 52.88"/><path class="cls-5" d="M263.3,224.12,282.51,236l-5-22.61,16.81-15.29L272.07,196l-8.83-21.32L254.47,196l-22.27,2.12,16.85,15.25L244.11,236ZM246,202.78l12.4-1.18,4.89-11.88,4.91,11.87,12.41,1.15-9.37,8.52L274,223.85l-10.7-6.61-10.68,6.63,2.74-12.59Z"/><path class="cls-5" d="M375.6,203.17l-7-31.82,23.65-21.52-31.34-2.91-12.41-30-12.35,30-31.33,3,23.7,21.46-6.94,31.84,27-16.76ZM337.39,168.4l-13.21-12,17.45-1.66,6.88-16.72,6.92,16.7,17.45,1.62-13.18,12,3.91,17.72-15.06-9.3-15,9.34Z"/><polygon class="cls-5" points="262.8 285.06 272.41 291 269.91 279.69 278.32 272.04 267.18 271.01 262.77 260.36 258.38 271.02 247.25 272.08 255.68 279.71 253.21 291.02 262.8 285.06"/><path class="cls-5" d="M263.3,77.57l19.21,11.86-5-22.61,16.81-15.3-22.26-2.06-8.83-21.31-8.77,21.33L232.2,51.6l16.85,15.25-4.94,22.62ZM246,56.22,258.37,55l4.89-11.88L268.17,55l12.41,1.15-9.37,8.52L274,77.29l-10.7-6.61-10.68,6.64,2.74-12.6Z"/><polygon class="cls-5" points="262.8 138.51 272.41 144.44 269.91 133.13 278.32 125.48 267.18 124.45 262.77 113.8 258.38 124.46 247.25 125.52 255.68 133.15 253.21 144.46 262.8 138.51"/><polygon class="cls-5" points="514.82 677.81 528.34 686.15 524.83 670.25 536.65 659.49 520.99 658.03 514.78 643.04 508.6 658.05 492.94 659.54 504.79 670.27 501.32 686.19 514.82 677.81"/><path class="cls-5" d="M430.47,654.15,449.68,666l-5-22.61,16.81-15.3L439.23,626l-8.82-21.31-8.78,21.33-22.26,2.12,16.85,15.25-4.94,22.62ZM413.14,632.8l12.4-1.18,4.89-11.88,4.91,11.87,12.4,1.15-9.36,8.52,2.78,12.59-10.7-6.61-10.69,6.64,2.75-12.6Z"/><polygon class="cls-5" points="515.01 842.63 508.83 857.64 493.17 859.14 505.02 869.87 501.55 885.79 515.05 877.41 528.57 885.75 525.06 869.84 536.89 859.08 521.22 857.63 515.01 842.63"/><path class="cls-5" d="M430.63,796l19.22,11.86-5-22.61,16.81-15.3-22.27-2.06-8.83-21.31-8.77,21.33L399.54,770l16.84,15.25-4.93,22.62Zm-17.32-21.35,12.4-1.18,4.88-11.88,4.92,11.87,12.4,1.15-9.36,8.52,2.78,12.59-10.71-6.61-10.68,6.64,2.75-12.6Z"/><path class="cls-5" d="M528.09,752.09l-12.42-30-12.35,30-31.33,3,23.71,21.47-6.95,31.83,27-16.75,27,16.69-7-31.82L559.43,755Zm-1.2,21.45,3.91,17.72L515.74,782l-15,9.33,3.87-17.73-13.2-11.95L508.82,760l6.88-16.72,6.91,16.7,17.46,1.62Z"/><polygon class="cls-5" points="429.97 715.09 439.57 721.02 437.08 709.71 445.49 702.07 434.35 701.03 429.94 690.38 425.55 701.04 414.42 702.1 422.84 709.73 420.38 721.04 429.97 715.09"/><polygon class="cls-5" points="524.59 470.65 536.42 459.89 520.75 458.44 514.54 443.44 508.37 458.45 492.7 459.94 504.56 470.67 501.08 486.59 514.58 478.21 528.1 486.56 524.59 470.65"/><path class="cls-5" d="M430.3,512.32l19.21,11.86-5-22.61,16.81-15.3-22.27-2.06-8.83-21.31-8.77,21.33-22.26,2.12,16.84,15.25-4.93,22.62ZM413,491l12.4-1.18,4.89-11.88,4.92,11.87,12.4,1.15-9.36,8.52L441,512l-10.7-6.61-10.68,6.64,2.75-12.6Z"/><path class="cls-5" d="M542.56,608.74l-7-31.82,23.65-21.52-31.33-2.91-12.42-30-12.35,30-31.33,3L495.46,577l-6.94,31.84,27-16.76ZM504.34,574l-13.21-12,17.46-1.66,6.87-16.72,6.92,16.7L539.83,562l-13.17,12,3.91,17.72-15.06-9.3-15,9.34Z"/><polygon class="cls-5" points="429.8 573.26 439.41 579.19 436.92 567.88 445.32 560.24 434.19 559.2 429.77 548.55 425.39 559.21 414.25 560.27 422.68 567.9 420.21 579.21 429.8 573.26"/><path class="cls-5" d="M445,927.06l16.81-15.3-22.27-2.06-8.82-21.31L422,909.72l-22.27,2.12,16.85,15.25-4.94,22.62,19.19-11.9L450,949.67Zm-14.23,3.86-10.68,6.64,2.74-12.6-9.38-8.5,12.4-1.18,4.89-11.88,4.91,11.87,12.4,1.15-9.36,8.52,2.78,12.59Z"/><polygon class="cls-5" points="430.13 856.92 439.74 862.85 437.25 851.54 445.65 843.9 434.52 842.86 430.11 832.21 425.72 842.87 414.59 843.93 423.01 851.56 420.54 862.87 430.13 856.92"/><polygon class="cls-5" points="508.54 259.13 492.88 260.62 504.73 271.36 501.25 287.27 514.75 278.89 528.27 287.24 524.76 271.33 536.59 260.57 520.92 259.12 514.72 244.12 508.54 259.13"/><path class="cls-5" d="M430.42,370.68l19.22,11.86-5-22.61,16.81-15.29-22.27-2.07-8.83-21.31-8.77,21.34-22.26,2.12L416.17,360l-4.93,22.62ZM413.1,349.34l12.4-1.18,4.88-11.88,4.92,11.87,12.4,1.15-9.36,8.51,2.78,12.6-10.71-6.61-10.68,6.63,2.75-12.6Z"/><path class="cls-5" d="M542.73,409.42l-7-31.82,23.65-21.52L528,353.17l-12.42-30-12.35,30-31.33,3,23.7,21.46-6.94,31.84,27-16.76Zm-38.22-34.77-13.2-12L508.76,361l6.87-16.72,6.92,16.7L540,362.63l-13.17,12,3.91,17.72L515.68,383l-15,9.34Z"/><polygon class="cls-5" points="429.92 431.62 439.53 437.55 437.04 426.25 445.44 418.6 434.31 417.57 429.89 406.91 425.51 417.58 414.38 418.64 422.8 426.27 420.33 437.58 429.92 431.62"/><polygon class="cls-5" points="508.54 52.88 492.88 54.37 504.73 65.11 501.25 81.02 514.75 72.64 528.27 80.99 524.76 65.08 536.59 54.32 520.92 52.87 514.72 37.87 508.54 52.88"/><path class="cls-5" d="M430.42,224.12,449.64,236l-5-22.61,16.81-15.29L439.19,196l-8.83-21.32L421.59,196l-22.26,2.12,16.84,15.25L411.24,236ZM413.1,202.78l12.4-1.18,4.88-11.88,4.92,11.87,12.4,1.15-9.36,8.52,2.78,12.59-10.71-6.61-10.68,6.63,2.75-12.59Z"/><path class="cls-5" d="M542.73,203.17l-7-31.82,23.65-21.52L528,146.92l-12.42-30-12.35,30-31.33,3,23.7,21.46-6.94,31.84,27-16.76ZM504.51,168.4l-13.2-12,17.45-1.66,6.87-16.72,6.92,16.7L540,156.38l-13.17,12,3.91,17.72-15.06-9.3-15,9.34Z"/><polygon class="cls-5" points="429.92 285.06 439.53 291 437.04 279.69 445.44 272.04 434.31 271.01 429.89 260.36 425.51 271.02 414.38 272.08 422.8 279.71 420.33 291.02 429.92 285.06"/><path class="cls-5" d="M430.42,77.57l19.22,11.86-5-22.61,16.81-15.3-22.27-2.06-8.83-21.31-8.77,21.33L399.33,51.6l16.84,15.25-4.93,22.62ZM413.1,56.22,425.5,55l4.88-11.88L435.3,55l12.4,1.15-9.36,8.52,2.78,12.59-10.71-6.61-10.68,6.64,2.75-12.6Z"/><polygon class="cls-5" points="429.92 138.51 439.53 144.44 437.04 133.13 445.44 125.48 434.31 124.45 429.89 113.8 425.51 124.46 414.38 125.52 422.8 133.15 420.33 144.46 429.92 138.51"/><path class="cls-5" d="M-1.9,650.92l19.22,11.86-5-22.61,16.81-15.29L6.87,622.82-1.95,601.5l-8.78,21.34L-33,625l16.84,15.25-4.93,22.62Zm-17.32-21.34,12.4-1.18,4.88-11.88L3,628.39l12.4,1.15L6,638.06,8.8,650.65-1.9,644l-10.69,6.63,2.75-12.59Z"/><path class="cls-5" d="M-1.73,792.75l19.21,11.86L12.5,782l16.8-15.29L7,764.65l-8.83-21.32-8.77,21.34-22.27,2.12L-16,782l-4.94,22.62Zm-17.33-21.34,12.4-1.18,4.89-11.88,4.92,11.87,12.4,1.15-9.37,8.52L9,792.48l-10.7-6.61-10.68,6.63,2.74-12.59Z"/><polygon class="cls-5" points="-2.39 711.87 7.21 717.79 4.72 706.49 13.12 698.84 1.99 697.81 -2.42 687.15 -6.81 697.82 -17.94 698.88 -9.52 706.51 -11.99 717.82 -2.39 711.87"/><path class="cls-5" d="M-2.06,509.09,17.15,521l-5-22.61L29,483.05,6.71,481l-8.83-21.31L-10.89,481l-22.27,2.12,16.85,15.25L-21.25,521Zm-17.33-21.34L-7,486.57l4.89-11.88,4.91,11.87,12.41,1.15-9.37,8.52,2.78,12.59-10.7-6.61-10.68,6.63L-10,496.25Z"/><polygon class="cls-5" points="-2.56 570.03 7.05 575.96 4.55 564.66 12.96 557.01 1.82 555.98 -2.59 545.33 -6.98 555.99 -18.11 557.05 -9.69 564.68 -12.15 575.99 -2.56 570.03"/><path class="cls-5" d="M12.66,923.83l16.81-15.29L7.2,906.48l-8.82-21.32L-10.4,906.5l-22.26,2.12,16.84,15.25-4.93,22.62,19.19-11.91,19.21,11.86ZM-1.57,927.7l-10.69,6.63,2.75-12.59-9.38-8.5,12.4-1.18,4.89-11.88,4.91,11.87,12.4,1.15-9.36,8.52,2.78,12.59Z"/><polygon class="cls-5" points="-2.23 853.7 7.38 859.63 4.88 848.32 13.29 840.67 2.15 839.64 -2.26 828.99 -6.64 839.65 -17.78 840.71 -9.35 848.34 -11.82 859.65 -2.23 853.7"/><path class="cls-5" d="M-1.94,367.46l19.21,11.86-5-22.61,16.8-15.29L6.83,339.35-2,318l-8.77,21.33L-33,341.5l16.85,15.25-4.94,22.62Zm-17.33-21.34,12.4-1.18L-2,333.06l4.92,11.86,12.4,1.16L6,354.59l2.78,12.59-10.7-6.6-10.68,6.63,2.74-12.6Z"/><polygon class="cls-5" points="-2.44 428.4 7.17 434.33 4.67 423.03 13.08 415.38 1.95 414.35 -2.47 403.69 -6.86 414.36 -17.99 415.42 -9.56 423.04 -12.03 434.36 -2.44 428.4"/><path class="cls-5" d="M-1.94,220.9l19.21,11.86-5-22.61,16.8-15.29L6.83,192.79-2,171.48l-8.77,21.34L-33,194.94l16.85,15.25-4.94,22.62Zm-17.33-21.34,12.4-1.18L-2,186.5l4.92,11.87,12.4,1.15L6,208l2.78,12.6L-1.95,214l-10.68,6.63,2.74-12.6Z"/><polygon class="cls-5" points="-2.44 281.84 7.17 287.77 4.67 276.47 13.08 268.82 1.95 267.79 -2.47 257.13 -6.86 267.8 -17.99 268.86 -9.56 276.49 -12.03 287.8 -2.44 281.84"/><path class="cls-5" d="M-1.94,74.34,17.27,86.2l-5-22.61L29.09,48.3,6.83,46.24-2,24.92l-8.77,21.34L-33,48.38l16.85,15.25-4.94,22.62ZM-19.27,53l12.4-1.18L-2,39.94,2.94,51.81,15.34,53,6,61.48,8.75,74.07l-10.7-6.61-10.68,6.63L-9.89,61.5Z"/><polygon class="cls-5" points="-2.44 135.28 7.17 141.21 4.67 129.91 13.08 122.26 1.95 121.23 -2.47 110.58 -6.86 121.24 -17.99 122.3 -9.56 129.93 -12.03 141.24 -2.44 135.28"/><polygon class="cls-5" points="681.94 677.81 695.46 686.15 691.95 670.25 703.78 659.49 688.11 658.03 681.9 643.04 675.73 658.05 660.06 659.54 671.91 670.27 668.44 686.19 681.94 677.81"/><path class="cls-5" d="M597.59,654.15,616.8,666l-5-22.61,16.8-15.3L606.36,626l-8.83-21.31-8.77,21.33-22.26,2.12,16.84,15.25-4.93,22.62ZM580.26,632.8l12.4-1.18,4.89-11.88,4.92,11.87,12.4,1.15-9.36,8.52,2.77,12.59-10.7-6.61L586.9,653.9l2.74-12.6Z"/><polygon class="cls-5" points="682.13 842.63 675.96 857.64 660.29 859.14 672.15 869.87 668.67 885.79 682.17 877.41 695.69 885.75 692.18 869.84 704.01 859.08 688.34 857.63 682.13 842.63"/><path class="cls-5" d="M597.76,796,617,807.84l-5-22.61,16.81-15.3-22.27-2.06-8.82-21.31-8.78,21.33L566.66,770l16.85,15.25-4.94,22.62Zm-17.33-21.35,12.4-1.18,4.89-11.88,4.91,11.87,12.4,1.15-9.36,8.52,2.78,12.59-10.7-6.61-10.69,6.64,2.75-12.6Z"/><path class="cls-5" d="M695.21,752.09l-12.42-30-12.34,30-31.33,3,23.7,21.47-6.94,31.83,27-16.75,27,16.69-7-31.82L726.55,755ZM694,773.54l3.91,17.72L682.86,782l-15,9.33,3.86-17.73-13.2-11.95L675.94,760l6.88-16.72,6.92,16.7,17.45,1.62Z"/><polygon class="cls-5" points="597.09 715.09 606.7 721.02 604.2 709.71 612.61 702.07 601.48 701.03 597.06 690.38 592.67 701.04 581.54 702.1 589.97 709.73 587.5 721.04 597.09 715.09"/><polygon class="cls-5" points="691.72 470.65 703.54 459.89 687.88 458.44 681.67 443.44 675.49 458.45 659.83 459.94 671.68 470.67 668.21 486.59 681.71 478.21 695.23 486.56 691.72 470.65"/><path class="cls-5" d="M597.42,512.32l19.22,11.86-5-22.61,16.81-15.3-22.27-2.06-8.82-21.31-8.78,21.33-22.26,2.12,16.84,15.25-4.93,22.62ZM580.1,491l12.4-1.18,4.88-11.88,4.92,11.87,12.4,1.15-9.36,8.52L608.12,512l-10.7-6.61-10.69,6.64,2.75-12.6Z"/><path class="cls-5" d="M709.68,608.74l-7-31.82,23.66-21.52L695,552.49l-12.42-30-12.35,30-31.33,3L662.59,577l-7,31.84,27-16.76ZM671.46,574l-13.2-12,17.45-1.66,6.88-16.72,6.91,16.7L707,562l-13.18,12,3.91,17.72-15.06-9.3-15,9.34Z"/><polygon class="cls-5" points="596.93 573.26 606.53 579.19 604.04 567.88 612.44 560.24 601.31 559.2 596.9 548.55 592.51 559.21 581.38 560.27 589.8 567.9 587.33 579.21 596.93 573.26"/><path class="cls-5" d="M612.15,927.06,629,911.76l-22.27-2.06-8.83-21.31-8.77,21.33-22.26,2.12,16.84,15.25-4.93,22.62,19.18-11.9,19.21,11.86Zm-14.24,3.86-10.68,6.64L590,925l-9.39-8.5,12.4-1.18,4.89-11.88,4.92,11.87,12.4,1.15-9.36,8.52,2.77,12.59Z"/><polygon class="cls-5" points="597.26 856.92 606.86 862.85 604.37 851.54 612.77 843.9 601.64 842.86 597.23 832.21 592.84 842.87 581.71 843.93 590.13 851.56 587.66 862.87 597.26 856.92"/><polygon class="cls-5" points="675.66 259.13 660 260.62 671.85 271.36 668.38 287.27 681.88 278.89 695.4 287.24 691.89 271.33 703.72 260.57 688.05 259.12 681.84 244.12 675.66 259.13"/><path class="cls-5" d="M597.55,370.68l19.21,11.86-5-22.61,16.81-15.29-22.27-2.07-8.82-21.31-8.78,21.34-22.26,2.12L583.3,360l-4.94,22.62Zm-17.33-21.34,12.4-1.18,4.89-11.88,4.91,11.87,12.4,1.15-9.36,8.51,2.78,12.6-10.7-6.61-10.69,6.63,2.75-12.6Z"/><path class="cls-5" d="M709.85,409.42l-7-31.82,23.66-21.52-31.34-2.91-12.42-30-12.35,30-31.33,3,23.71,21.46-7,31.84,27-16.76Zm-38.22-34.77-13.2-12L675.88,361l6.88-16.72,6.91,16.7,17.46,1.62-13.18,12,3.91,17.72L682.8,383l-15,9.34Z"/><polygon class="cls-5" points="597.05 431.62 606.65 437.55 604.16 426.25 612.57 418.6 601.43 417.57 597.02 406.91 592.63 417.58 581.5 418.64 589.92 426.27 587.46 437.58 597.05 431.62"/><polygon class="cls-5" points="675.66 52.88 660 54.37 671.85 65.11 668.38 81.02 681.88 72.64 695.4 80.99 691.89 65.08 703.72 54.32 688.05 52.87 681.84 37.87 675.66 52.88"/><path class="cls-5" d="M597.55,224.12,616.76,236l-5-22.61,16.81-15.29L606.31,196l-8.82-21.32L588.71,196l-22.26,2.12,16.85,15.25L578.36,236Zm-17.33-21.34,12.4-1.18,4.89-11.88,4.91,11.87,12.4,1.15-9.36,8.52,2.78,12.59-10.7-6.61-10.69,6.63,2.75-12.59Z"/><path class="cls-5" d="M709.85,203.17l-7-31.82,23.66-21.52-31.34-2.91-12.42-30-12.35,30-31.33,3,23.71,21.46-7,31.84,27-16.76ZM671.63,168.4l-13.2-12,17.45-1.66,6.88-16.72,6.91,16.7,17.46,1.62-13.18,12,3.91,17.72-15.06-9.3-15,9.34Z"/><polygon class="cls-5" points="597.05 285.06 606.65 291 604.16 279.69 612.57 272.04 601.43 271.01 597.02 260.36 592.63 271.02 581.5 272.08 589.92 279.71 587.46 291.02 597.05 285.06"/><path class="cls-5" d="M597.55,77.57l19.21,11.86-5-22.61,16.81-15.3-22.27-2.06-8.82-21.31-8.78,21.33L566.45,51.6,583.3,66.85l-4.94,22.62ZM580.22,56.22,592.62,55l4.89-11.88L602.42,55l12.4,1.15-9.36,8.52,2.78,12.59-10.7-6.61-10.69,6.64,2.75-12.6Z"/><polygon class="cls-5" points="597.05 138.51 606.65 144.44 604.16 133.13 612.57 125.48 601.43 124.45 597.02 113.8 592.63 124.46 581.5 125.52 589.92 133.15 587.46 144.46 597.05 138.51"/><polygon class="cls-5" points="849.06 677.81 862.58 686.15 859.07 670.25 870.9 659.49 855.23 658.03 849.02 643.04 842.85 658.05 827.18 659.54 839.04 670.27 835.57 686.19 849.06 677.81"/><path class="cls-5" d="M764.71,654.15,783.93,666l-5-22.61,16.81-15.3L773.48,626l-8.82-21.31-8.78,21.33-22.26,2.12,16.84,15.25-4.93,22.62ZM747.39,632.8l12.4-1.18,4.88-11.88,4.92,11.87,12.4,1.15-9.36,8.52,2.78,12.59-10.7-6.61L754,653.9l2.75-12.6Z"/><polygon class="cls-5" points="849.26 842.63 843.08 857.64 827.42 859.14 839.27 869.87 835.8 885.79 849.3 877.41 862.82 885.75 859.31 869.84 871.13 859.08 855.47 857.63 849.26 842.63"/><path class="cls-5" d="M764.88,796l19.21,11.86-5-22.61,16.81-15.3-22.26-2.06-8.83-21.31-8.77,21.33L733.78,770l16.85,15.25-4.94,22.62Zm-17.33-21.35,12.4-1.18,4.89-11.88,4.91,11.87,12.41,1.15-9.37,8.52,2.78,12.59-10.7-6.61-10.68,6.64,2.74-12.6Z"/><path class="cls-5" d="M862.34,752.09l-12.42-30-12.35,30-31.33,3,23.7,21.47L823,808.4l27-16.75,27,16.69-7-31.82L893.67,755Zm-1.2,21.45,3.91,17.72L850,782l-15,9.33,3.87-17.73-13.21-11.95L843.07,760l6.87-16.72,6.92,16.7,17.45,1.62Z"/><polygon class="cls-5" points="764.22 715.09 773.82 721.02 771.33 709.71 779.73 702.07 768.6 701.03 764.19 690.38 759.8 701.04 748.67 702.1 757.09 709.73 754.62 721.04 764.22 715.09"/><polygon class="cls-5" points="858.84 470.65 870.67 459.89 855 458.44 848.79 443.44 842.62 458.45 826.95 459.94 838.8 470.67 835.33 486.59 848.83 478.21 862.35 486.56 858.84 470.65"/><path class="cls-5" d="M764.55,512.32l19.21,11.86-5-22.61,16.81-15.3-22.27-2.06-8.82-21.31-8.77,21.33-22.27,2.12L750.3,501.6l-4.94,22.62ZM747.22,491l12.4-1.18,4.89-11.88,4.91,11.87,12.4,1.15-9.36,8.52L775.24,512l-10.7-6.61-10.68,6.64,2.74-12.6Z"/><path class="cls-5" d="M876.8,608.74l-7-31.82,23.65-21.52-31.34-2.91-12.42-30-12.34,30-31.33,3L829.71,577l-6.94,31.84,27-16.76ZM838.58,574l-13.2-12,17.45-1.66,6.88-16.72,6.92,16.7L874.08,562l-13.18,12,3.91,17.72-15.06-9.3-15,9.34Z"/><polygon class="cls-5" points="764.05 573.26 773.66 579.19 771.16 567.88 779.57 560.24 768.43 559.2 764.02 548.55 759.63 559.21 748.5 560.27 756.92 567.9 754.46 579.21 764.05 573.26"/><path class="cls-5" d="M779.27,927.06l16.81-15.3-22.27-2.06L765,888.39l-8.78,21.33L734,911.84l16.84,15.25-4.93,22.62L765,937.81l19.22,11.86ZM765,930.92l-10.69,6.64L757.1,925l-9.38-8.5,12.4-1.18L765,903.4l4.92,11.87,12.4,1.15L773,924.94l2.78,12.59Z"/><polygon class="cls-5" points="764.38 856.92 773.99 862.85 771.49 851.54 779.9 843.9 768.76 842.86 764.35 832.21 759.97 842.87 748.83 843.93 757.25 851.56 754.79 862.87 764.38 856.92"/><polygon class="cls-5" points="842.79 259.13 827.12 260.62 838.98 271.36 835.5 287.27 849 278.89 862.52 287.24 859.01 271.33 870.84 260.57 855.17 259.12 848.96 244.12 842.79 259.13"/><path class="cls-5" d="M764.67,370.68l19.21,11.86-5-22.61,16.81-15.29-22.26-2.07-8.83-21.31-8.77,21.34-22.27,2.12L750.42,360l-4.94,22.62Zm-17.33-21.34,12.4-1.18,4.89-11.88,4.91,11.87L782,349.3l-9.37,8.51,2.78,12.6-10.7-6.61L754,370.43l2.74-12.6Z"/><path class="cls-5" d="M877,409.42l-7-31.82,23.65-21.52-31.34-2.91-12.41-30-12.35,30-31.33,3,23.7,21.46-6.94,31.84,27-16.76Zm-38.21-34.77-13.21-12L843,361l6.88-16.72L856.8,361l17.45,1.62-13.17,12,3.9,17.72L849.93,383l-15,9.34Z"/><polygon class="cls-5" points="764.17 431.62 773.78 437.55 771.28 426.25 779.69 418.6 768.55 417.57 764.14 406.91 759.75 417.58 748.62 418.64 757.05 426.27 754.58 437.58 764.17 431.62"/><polygon class="cls-5" points="842.79 52.88 827.12 54.37 838.98 65.11 835.5 81.02 849 72.64 862.52 80.99 859.01 65.08 870.84 54.32 855.17 52.87 848.96 37.87 842.79 52.88"/><path class="cls-5" d="M764.67,224.12,783.88,236l-5-22.61,16.81-15.29L773.44,196l-8.83-21.32L755.84,196l-22.27,2.12,16.85,15.25L745.48,236Zm-17.33-21.34,12.4-1.18,4.89-11.88,4.91,11.87L782,202.74l-9.37,8.52,2.78,12.59-10.7-6.61L754,223.87l2.74-12.59Z"/><path class="cls-5" d="M877,203.17l-7-31.82,23.65-21.52-31.34-2.91-12.41-30-12.35,30-31.33,3,23.7,21.46-6.94,31.84,27-16.76ZM838.76,168.4l-13.21-12L843,154.78l6.88-16.72,6.92,16.7,17.45,1.62-13.17,12,3.9,17.72-15.05-9.3-15,9.34Z"/><polygon class="cls-5" points="764.17 285.06 773.78 291 771.28 279.69 779.69 272.04 768.55 271.01 764.14 260.36 759.75 271.02 748.62 272.08 757.05 279.71 754.58 291.02 764.17 285.06"/><path class="cls-5" d="M764.67,77.57l19.21,11.86-5-22.61,16.81-15.3-22.26-2.06-8.83-21.31-8.77,21.33L733.57,51.6l16.85,15.25-4.94,22.62ZM747.34,56.22,759.74,55l4.89-11.88L769.54,55,782,56.18l-9.37,8.52,2.78,12.59-10.7-6.61L754,77.32l2.74-12.6Z"/><polygon class="cls-5" points="764.17 138.51 773.78 144.44 771.28 133.13 779.69 125.48 768.55 124.45 764.14 113.8 759.75 124.46 748.62 125.52 757.05 133.15 754.58 144.46 764.17 138.51"/><polygon class="cls-5" points="1016.19 677.81 1029.71 686.15 1026.2 670.25 1038.03 659.49 1022.36 658.03 1016.15 643.04 1009.97 658.05 994.31 659.54 1006.16 670.27 1002.69 686.19 1016.19 677.81"/><path class="cls-5" d="M931.84,654.15,951.05,666l-5-22.61,16.81-15.3L940.6,626l-8.82-21.31L923,626.06l-22.26,2.12,16.85,15.25-4.94,22.62ZM914.51,632.8l12.4-1.18,4.89-11.88,4.91,11.87,12.4,1.15-9.36,8.52,2.78,12.59-10.7-6.61-10.69,6.64,2.75-12.6Z"/><polygon class="cls-5" points="1016.38 842.63 1010.21 857.64 994.54 859.14 1006.39 869.87 1002.92 885.79 1016.42 877.41 1029.94 885.75 1026.43 869.84 1038.26 859.08 1022.59 857.63 1016.38 842.63"/><path class="cls-5" d="M932,796l19.22,11.86-5-22.61L963,769.93l-22.27-2.06L932,746.56l-8.78,21.33L900.91,770l16.84,15.25-4.93,22.62Zm-17.32-21.35,12.4-1.18L932,761.57l4.92,11.87,12.4,1.15-9.36,8.52,2.78,12.59L932,789.09l-10.68,6.64,2.75-12.6Z"/><path class="cls-5" d="M1029.46,752.09l-12.42-30-12.35,30-31.33,3,23.71,21.47-7,31.83,27-16.75,27,16.69-7-31.82L1060.8,755Zm-1.2,21.45,3.91,17.72-15.06-9.3-15,9.33,3.87-17.73-13.2-11.95,17.45-1.66,6.88-16.72,6.91,16.7,17.46,1.62Z"/><polygon class="cls-5" points="931.34 715.09 940.95 721.02 938.45 709.71 946.86 702.07 935.72 701.03 931.31 690.38 926.92 701.04 915.79 702.1 924.21 709.73 921.75 721.04 931.34 715.09"/><polygon class="cls-5" points="1025.96 470.65 1037.79 459.89 1022.12 458.44 1015.91 443.44 1009.74 458.45 994.07 459.94 1005.93 470.67 1002.46 486.59 1015.96 478.21 1029.47 486.56 1025.96 470.65"/><path class="cls-5" d="M931.67,512.32l19.21,11.86-5-22.61,16.81-15.3-22.27-2.06-8.83-21.31-8.77,21.33-22.26,2.12,16.84,15.25-4.93,22.62ZM914.34,491l12.4-1.18,4.89-11.88,4.92,11.87,12.4,1.15-9.36,8.52L942.36,512l-10.7-6.61L921,512.07l2.75-12.6Z"/><path class="cls-5" d="M1043.93,608.74l-7-31.82,23.65-21.52-31.33-2.91-12.42-30-12.35,30-31.33,3L996.83,577l-6.94,31.84,27-16.76ZM1005.71,574l-13.2-12,17.45-1.66,6.87-16.72,6.92,16.7L1041.2,562l-13.17,12,3.91,17.72-15.06-9.3-15,9.34Z"/><polygon class="cls-5" points="931.17 573.26 940.78 579.19 938.29 567.88 946.69 560.24 935.56 559.2 931.14 548.55 926.76 559.21 915.63 560.27 924.05 567.9 921.58 579.21 931.17 573.26"/><path class="cls-5" d="M946.39,927.06l16.81-15.3-22.26-2.06-8.83-21.31-8.77,21.33-22.27,2.12,16.85,15.25L913,949.71l19.19-11.9,19.21,11.86Zm-14.23,3.86-10.68,6.64,2.74-12.6-9.38-8.5,12.4-1.18,4.89-11.88L937,915.27l12.41,1.15-9.37,8.52,2.78,12.59Z"/><polygon class="cls-5" points="931.5 856.92 941.11 862.85 938.62 851.54 947.02 843.9 935.89 842.86 931.48 832.21 927.09 842.87 915.96 843.93 924.38 851.56 921.91 862.87 931.5 856.92"/><polygon class="cls-5" points="1009.91 259.13 994.25 260.62 1006.1 271.36 1002.63 287.27 1016.13 278.89 1029.64 287.24 1026.13 271.33 1037.96 260.57 1022.29 259.12 1016.09 244.12 1009.91 259.13"/><path class="cls-5" d="M931.79,370.68,951,382.54l-5-22.61,16.81-15.29-22.27-2.07-8.82-21.31L923,342.6l-22.26,2.12L917.54,360l-4.93,22.62Zm-17.32-21.34,12.4-1.18,4.88-11.88,4.92,11.87,12.4,1.15-9.36,8.51,2.78,12.6-10.7-6.61-10.69,6.63,2.75-12.6Z"/><path class="cls-5" d="M1044.1,409.42l-7-31.82,23.65-21.52-31.33-2.91-12.42-30-12.35,30-31.33,3L997,377.65l-7,31.84,27-16.76Zm-38.22-34.77-13.2-12,17.45-1.66,6.87-16.72,6.92,16.7,17.45,1.62-13.17,12,3.91,17.72-15.06-9.3-15,9.34Z"/><polygon class="cls-5" points="931.29 431.62 940.9 437.55 938.41 426.25 946.81 418.6 935.68 417.57 931.27 406.91 926.88 417.58 915.75 418.64 924.17 426.27 921.7 437.58 931.29 431.62"/><polygon class="cls-5" points="1009.91 52.88 994.25 54.37 1006.1 65.11 1002.63 81.02 1016.13 72.64 1029.64 80.99 1026.13 65.08 1037.96 54.32 1022.29 52.87 1016.09 37.87 1009.91 52.88"/><path class="cls-5" d="M931.79,224.12,951,236l-5-22.61,16.81-15.29L940.56,196l-8.82-21.32L923,196l-22.26,2.12,16.84,15.25L912.61,236Zm-17.32-21.34,12.4-1.18,4.88-11.88,4.92,11.87,12.4,1.15-9.36,8.52,2.78,12.59-10.7-6.61-10.69,6.63,2.75-12.59Z"/><path class="cls-5" d="M1044.1,203.17l-7-31.82,23.65-21.52-31.33-2.91-12.42-30-12.35,30-31.33,3L997,171.4l-7,31.84,27-16.76Zm-38.22-34.77-13.2-12,17.45-1.66,6.87-16.72,6.92,16.7,17.45,1.62-13.17,12,3.91,17.72-15.06-9.3-15,9.34Z"/><polygon class="cls-5" points="931.29 285.06 940.9 291 938.41 279.69 946.81 272.04 935.68 271.01 931.27 260.36 926.88 271.02 915.75 272.08 924.17 279.71 921.7 291.02 931.29 285.06"/><path class="cls-5" d="M931.79,77.57,951,89.43l-5-22.61,16.81-15.3-22.27-2.06-8.82-21.31L923,49.48,900.7,51.6l16.84,15.25-4.93,22.62ZM914.47,56.22,926.87,55l4.88-11.88L936.67,55l12.4,1.15-9.36,8.52,2.78,12.59-10.7-6.61L921.1,77.32l2.75-12.6Z"/><polygon class="cls-5" points="931.29 138.51 940.9 144.44 938.41 133.13 946.81 125.48 935.68 124.45 931.27 113.8 926.88 124.46 915.75 125.52 924.17 133.15 921.7 144.46 931.29 138.51"/><polygon class="cls-5" points="1183.31 677.81 1196.83 686.15 1193.32 670.25 1205.15 659.49 1189.48 658.03 1183.27 643.04 1177.1 658.05 1161.43 659.54 1173.28 670.27 1169.81 686.19 1183.31 677.81"/><path class="cls-5" d="M1099,654.15,1118.17,666l-5-22.61L1130,628.1,1107.73,626l-8.83-21.31-8.77,21.33-22.26,2.12,16.84,15.25-4.93,22.62Zm-17.33-21.35,12.4-1.18,4.89-11.88,4.92,11.87,12.4,1.15-9.36,8.52,2.77,12.59-10.7-6.61-10.68,6.64,2.75-12.6Z"/><polygon class="cls-5" points="1183.5 842.63 1177.33 857.64 1161.66 859.14 1173.52 869.87 1170.05 885.79 1183.54 877.41 1197.06 885.75 1193.55 869.84 1205.38 859.08 1189.71 857.63 1183.5 842.63"/><path class="cls-5" d="M1099.13,796l19.21,11.86-5-22.61,16.81-15.3-22.27-2.06-8.82-21.31-8.78,21.33L1068,770l16.85,15.25-4.94,22.62Zm-17.33-21.35,12.4-1.18,4.89-11.88,4.91,11.87,12.4,1.15-9.36,8.52,2.78,12.59-10.7-6.61-10.69,6.64,2.75-12.6Z"/><path class="cls-5" d="M1196.58,752.09l-12.42-30-12.34,30-31.33,3,23.7,21.47-6.94,31.83,27-16.75,27,16.69-7-31.82L1227.92,755Zm-1.2,21.45,3.91,17.72-15.06-9.3-15,9.33,3.86-17.73-13.2-11.95,17.45-1.66,6.88-16.72,6.92,16.7,17.45,1.62Z"/><polygon class="cls-5" points="1098.46 715.09 1108.07 721.02 1105.58 709.71 1113.98 702.07 1102.85 701.03 1098.43 690.38 1094.05 701.04 1082.91 702.1 1091.34 709.73 1088.87 721.04 1098.46 715.09"/><polygon class="cls-5" points="1193.09 470.65 1204.91 459.89 1189.25 458.44 1183.04 443.44 1176.86 458.45 1161.2 459.94 1173.05 470.67 1169.58 486.59 1183.08 478.21 1196.6 486.56 1193.09 470.65"/><path class="cls-5" d="M1098.8,512.32,1118,524.18l-5-22.61,16.81-15.3-22.27-2.06-8.82-21.31L1090,484.23l-22.26,2.12,16.84,15.25-4.93,22.62ZM1081.47,491l12.4-1.18,4.88-11.88,4.92,11.87,12.4,1.15-9.36,8.52,2.78,12.59-10.7-6.61-10.69,6.64,2.75-12.6Z"/><path class="cls-5" d="M1211.05,608.74l-7-31.82,23.66-21.52-31.34-2.91-12.42-30-12.35,30-31.33,3L1164,577l-7,31.84,27-16.76ZM1172.83,574l-13.2-12,17.45-1.66,6.88-16.72,6.91,16.7,17.46,1.62-13.18,12,3.91,17.72-15.06-9.3-15,9.34Z"/><polygon class="cls-5" points="1098.3 573.26 1107.9 579.19 1105.41 567.88 1113.81 560.24 1102.68 559.2 1098.27 548.55 1093.88 559.21 1082.75 560.27 1091.17 567.9 1088.7 579.21 1098.3 573.26"/><path class="cls-5" d="M1113.52,927.06l16.81-15.3-22.27-2.06-8.83-21.31-8.77,21.33-22.26,2.12L1085,927.09l-4.93,22.62,19.18-11.9,19.21,11.86Zm-14.24,3.86-10.68,6.64,2.75-12.6-9.38-8.5,12.39-1.18,4.89-11.88,4.92,11.87,12.4,1.15-9.36,8.52,2.77,12.59Z"/><polygon class="cls-5" points="1098.63 856.92 1108.23 862.85 1105.74 851.54 1114.14 843.9 1103.01 842.86 1098.6 832.21 1094.21 842.87 1083.08 843.93 1091.5 851.56 1089.04 862.87 1098.63 856.92"/><polygon class="cls-5" points="1177.03 259.13 1161.37 260.62 1173.22 271.36 1169.75 287.27 1183.25 278.89 1196.77 287.24 1193.26 271.33 1205.09 260.57 1189.42 259.12 1183.21 244.12 1177.03 259.13"/><path class="cls-5" d="M1098.92,370.68l19.21,11.86-5-22.61L1130,344.64l-22.27-2.07-8.82-21.31-8.78,21.34-22.26,2.12L1084.67,360l-4.94,22.62Zm-17.33-21.34,12.4-1.18,4.89-11.88,4.91,11.87,12.4,1.15-9.36,8.51,2.78,12.6-10.7-6.61-10.69,6.63,2.75-12.6Z"/><path class="cls-5" d="M1211.22,409.42l-7-31.82,23.66-21.52-31.34-2.91-12.42-30-12.35,30-31.33,3,23.71,21.46-7,31.84,27-16.76ZM1173,374.65l-13.2-12,17.45-1.66,6.88-16.72L1191,361l17.46,1.62-13.18,12,3.91,17.72-15.06-9.3-15,9.34Z"/><polygon class="cls-5" points="1098.42 431.62 1108.03 437.55 1105.53 426.25 1113.93 418.6 1102.8 417.57 1098.39 406.91 1094 417.58 1082.87 418.64 1091.29 426.27 1088.83 437.58 1098.42 431.62"/><polygon class="cls-5" points="1177.03 52.88 1161.37 54.37 1173.22 65.11 1169.75 81.02 1183.25 72.64 1196.77 80.99 1193.26 65.08 1205.09 54.32 1189.42 52.87 1183.21 37.87 1177.03 52.88"/><path class="cls-5" d="M1098.92,224.12,1118.13,236l-5-22.61L1130,198.08,1107.68,196l-8.82-21.32L1090.08,196l-22.26,2.12,16.85,15.25L1079.73,236Zm-17.33-21.34,12.4-1.18,4.89-11.88,4.91,11.87,12.4,1.15-9.36,8.52,2.78,12.59-10.7-6.61-10.69,6.63,2.75-12.59Z"/><path class="cls-5" d="M1211.22,203.17l-7-31.82,23.66-21.52-31.34-2.91-12.42-30-12.35,30-31.33,3,23.71,21.46-7,31.84,27-16.76ZM1173,168.4l-13.2-12,17.45-1.66,6.88-16.72,6.91,16.7,17.46,1.62-13.18,12,3.91,17.72-15.06-9.3-15,9.34Z"/><polygon class="cls-5" points="1098.42 285.06 1108.03 291 1105.53 279.69 1113.93 272.04 1102.8 271.01 1098.39 260.36 1094 271.02 1082.87 272.08 1091.29 279.71 1088.83 291.02 1098.42 285.06"/><path class="cls-5" d="M1098.92,77.57l19.21,11.86-5-22.61L1130,51.52l-22.27-2.06-8.82-21.31-8.78,21.33-22.26,2.12,16.85,15.25-4.94,22.62Zm-17.33-21.35L1094,55l4.89-11.88L1103.79,55l12.4,1.15-9.36,8.52,2.78,12.59-10.7-6.61-10.69,6.64,2.75-12.6Z"/><polygon class="cls-5" points="1098.42 138.51 1108.03 144.44 1105.53 133.13 1113.93 125.48 1102.8 124.45 1098.39 113.8 1094 124.46 1082.87 125.52 1091.29 133.15 1088.83 144.46 1098.42 138.51"/><polygon class="cls-5" points="1350.43 677.81 1363.95 686.15 1360.44 670.25 1372.27 659.49 1356.6 658.03 1350.39 643.04 1344.22 658.05 1328.56 659.54 1340.41 670.27 1336.93 686.19 1350.43 677.81"/><path class="cls-5" d="M1266.08,654.15,1285.3,666l-5-22.61,16.81-15.3L1274.85,626,1266,604.73l-8.78,21.33L1235,628.18l16.84,15.25-4.93,22.62Zm-17.32-21.35,12.4-1.18,4.88-11.88,4.92,11.87,12.4,1.15-9.36,8.52,2.78,12.59-10.7-6.61-10.69,6.64,2.75-12.6Z"/><polygon class="cls-5" points="1350.63 842.63 1344.45 857.64 1328.79 859.14 1340.64 869.87 1337.17 885.79 1350.67 877.41 1364.19 885.75 1360.68 869.84 1372.51 859.08 1356.84 857.63 1350.63 842.63"/><path class="cls-5" d="M1266.25,796l19.21,11.86-5-22.61,16.8-15.3L1275,767.87l-8.83-21.31-8.77,21.33L1235.15,770,1252,785.26l-4.94,22.62Zm-17.33-21.35,12.4-1.18,4.89-11.88,4.92,11.87,12.4,1.15-9.37,8.52,2.78,12.59-10.7-6.61-10.68,6.64,2.74-12.6Z"/><path class="cls-5" d="M1363.71,752.09l-12.42-30-12.35,30-31.33,3,23.7,21.47-6.94,31.83,27-16.75,27,16.69-7-31.82L1395,755Zm-1.2,21.45,3.91,17.72-15.06-9.3-15,9.33,3.87-17.73L1327,761.61l17.45-1.66,6.87-16.72,6.92,16.7,17.45,1.62Z"/><polygon class="cls-5" points="1265.59 715.09 1275.19 721.02 1272.7 709.71 1281.1 702.07 1269.97 701.03 1265.56 690.38 1261.17 701.04 1250.04 702.1 1258.46 709.73 1255.99 721.04 1265.59 715.09"/><polygon class="cls-5" points="1360.21 470.65 1372.04 459.89 1356.37 458.44 1350.16 443.44 1343.99 458.45 1328.32 459.94 1340.17 470.67 1336.7 486.59 1350.2 478.21 1363.72 486.56 1360.21 470.65"/><path class="cls-5" d="M1265.92,512.32l19.21,11.86-5-22.61,16.81-15.3-22.26-2.06-8.83-21.31-8.77,21.33-22.27,2.12,16.85,15.25-4.94,22.62ZM1248.59,491l12.4-1.18,4.89-11.88,4.91,11.87,12.41,1.15-9.37,8.52,2.78,12.59-10.7-6.61-10.68,6.64,2.74-12.6Z"/><path class="cls-5" d="M1378.17,608.74l-7-31.82,23.65-21.52-31.34-2.91-12.41-30-12.35,30-31.33,3,23.7,21.46-6.94,31.84,27-16.76ZM1340,574l-13.21-12,17.45-1.66,6.88-16.72,6.92,16.7,17.45,1.62-13.18,12,3.91,17.72-15.06-9.3-15,9.34Z"/><polygon class="cls-5" points="1265.42 573.26 1275.03 579.19 1272.53 567.88 1280.94 560.24 1269.8 559.2 1265.39 548.55 1261 559.21 1249.87 560.27 1258.3 567.9 1255.83 579.21 1265.42 573.26"/><path class="cls-5" d="M1280.64,927.06l16.81-15.3-22.27-2.06-8.82-21.31-8.78,21.33-22.26,2.12,16.84,15.25-4.93,22.62,19.19-11.9,19.21,11.86Zm-14.23,3.86-10.69,6.64,2.75-12.6-9.38-8.5,12.4-1.18,4.89-11.88,4.91,11.87,12.4,1.15-9.36,8.52,2.78,12.59Z"/><polygon class="cls-5" points="1265.75 856.92 1275.36 862.85 1272.86 851.54 1281.27 843.9 1270.13 842.86 1265.72 832.21 1261.34 842.87 1250.2 843.93 1258.63 851.56 1256.16 862.87 1265.75 856.92"/><polygon class="cls-5" points="1344.16 259.13 1328.49 260.62 1340.35 271.36 1336.87 287.27 1350.37 278.89 1363.89 287.24 1360.38 271.33 1372.21 260.57 1356.54 259.12 1350.33 244.12 1344.16 259.13"/><path class="cls-5" d="M1266,370.68l19.21,11.86-5-22.61,16.8-15.29-22.26-2.07L1266,321.26l-8.77,21.34-22.27,2.12L1251.79,360l-4.94,22.62Zm-17.33-21.34,12.4-1.18,4.89-11.88,4.92,11.87,12.4,1.15-9.37,8.51,2.78,12.6L1266,363.8l-10.68,6.63,2.74-12.6Z"/><path class="cls-5" d="M1378.35,409.42l-7-31.82L1395,356.08l-31.34-2.91-12.41-30-12.35,30-31.33,3,23.7,21.46-6.94,31.84,27-16.76Zm-38.22-34.77-13.21-12,17.45-1.66,6.88-16.72,6.92,16.7,17.45,1.62-13.17,12,3.91,17.72L1351.3,383l-15,9.34Z"/><polygon class="cls-5" points="1265.54 431.62 1275.15 437.55 1272.65 426.25 1281.06 418.6 1269.92 417.57 1265.51 406.91 1261.13 417.58 1249.99 418.64 1258.42 426.27 1255.95 437.58 1265.54 431.62"/><polygon class="cls-5" points="1344.16 52.88 1328.49 54.37 1340.35 65.11 1336.87 81.02 1350.37 72.64 1363.89 80.99 1360.38 65.08 1372.21 54.32 1356.54 52.87 1350.33 37.87 1344.16 52.88"/><path class="cls-5" d="M1266,224.12,1285.25,236l-5-22.61,16.8-15.29L1274.81,196,1266,174.7,1257.21,196l-22.27,2.12,16.85,15.25L1246.85,236Zm-17.33-21.34,12.4-1.18,4.89-11.88,4.92,11.87,12.4,1.15-9.37,8.52,2.78,12.59-10.7-6.61-10.68,6.63,2.74-12.59Z"/><path class="cls-5" d="M1378.35,203.17l-7-31.82L1395,149.83l-31.34-2.91-12.41-30-12.35,30-31.33,3,23.7,21.46-6.94,31.84,27-16.76Zm-38.22-34.77-13.21-12,17.45-1.66,6.88-16.72,6.92,16.7,17.45,1.62-13.17,12,3.91,17.72-15.06-9.3-15,9.34Z"/><polygon class="cls-5" points="1265.54 285.06 1275.15 291 1272.65 279.69 1281.06 272.04 1269.92 271.01 1265.51 260.36 1261.13 271.02 1249.99 272.08 1258.42 279.71 1255.95 291.02 1265.54 285.06"/><path class="cls-5" d="M1266,77.57l19.21,11.86-5-22.61,16.8-15.3-22.26-2.06L1266,28.15l-8.77,21.33-22.27,2.12,16.85,15.25-4.94,22.62Zm-17.33-21.35,12.4-1.18L1266,43.16,1270.92,55l12.4,1.15L1274,64.7l2.78,12.59L1266,70.68l-10.68,6.64,2.74-12.6Z"/><polygon class="cls-5" points="1265.54 138.51 1275.15 144.44 1272.65 133.13 1281.06 125.48 1269.92 124.45 1265.51 113.8 1261.13 124.46 1249.99 125.52 1258.42 133.15 1255.95 144.46 1265.54 138.51"/><polygon class="cls-5" points="1517.56 677.81 1531.08 686.15 1527.57 670.25 1539.4 659.49 1523.73 658.03 1517.52 643.04 1511.34 658.05 1495.68 659.54 1507.53 670.27 1504.06 686.19 1517.56 677.81"/><path class="cls-5" d="M1433.21,654.15,1452.42,666l-5-22.61,16.81-15.3L1442,626l-8.82-21.31-8.77,21.33-22.27,2.12L1419,643.43,1414,666.05Zm-17.33-21.35,12.4-1.18,4.89-11.88,4.91,11.87,12.4,1.15-9.36,8.52,2.78,12.59-10.7-6.61-10.69,6.64,2.75-12.6Z"/><polygon class="cls-5" points="1517.75 842.63 1511.58 857.64 1495.91 859.14 1507.76 869.87 1504.29 885.79 1517.79 877.41 1531.31 885.75 1527.8 869.84 1539.63 859.08 1523.96 857.63 1517.75 842.63"/><path class="cls-5" d="M1433.37,796l19.22,11.86-5-22.61,16.81-15.3-22.27-2.06-8.82-21.31-8.78,21.33L1402.28,770l16.84,15.25-4.93,22.62Zm-17.32-21.35,12.4-1.18,4.88-11.88,4.92,11.87,12.4,1.15-9.36,8.52,2.78,12.59-10.7-6.61-10.69,6.64,2.75-12.6Z"/><path class="cls-5" d="M1530.83,752.09l-12.42-30-12.35,30-31.33,3,23.71,21.47-7,31.83,27-16.75,27,16.69-7-31.82L1562.17,755Zm-1.2,21.45,3.91,17.72-15.06-9.3-15,9.33,3.86-17.73-13.2-11.95,17.45-1.66,6.88-16.72,6.91,16.7,17.46,1.62Z"/><polygon class="cls-5" points="1432.71 715.09 1442.32 721.02 1439.82 709.71 1448.23 702.07 1437.09 701.03 1432.68 690.38 1428.29 701.04 1417.16 702.1 1425.58 709.73 1423.12 721.04 1432.71 715.09"/><polygon class="cls-5" points="1527.34 470.65 1539.16 459.89 1523.49 458.44 1517.28 443.44 1511.11 458.45 1495.44 459.94 1507.3 470.67 1503.83 486.59 1517.33 478.21 1530.84 486.56 1527.34 470.65"/><path class="cls-5" d="M1433,512.32l19.22,11.86-5-22.61,16.81-15.3-22.27-2.06L1433,462.9l-8.77,21.33L1402,486.35l16.84,15.25-4.93,22.62ZM1415.72,491l12.4-1.18,4.88-11.88,4.92,11.87,12.4,1.15-9.36,8.52,2.78,12.59L1433,505.43l-10.68,6.64,2.75-12.6Z"/><path class="cls-5" d="M1545.3,608.74l-7-31.82,23.65-21.52-31.33-2.91-12.42-30-12.35,30-31.33,3L1498.2,577l-6.94,31.84,27-16.76ZM1507.08,574l-13.2-12,17.45-1.66,6.87-16.72,6.92,16.7,17.45,1.62-13.17,12,3.91,17.72-15.06-9.3-15,9.34Z"/><polygon class="cls-5" points="1432.54 573.26 1442.15 579.19 1439.66 567.88 1448.06 560.24 1436.93 559.2 1432.52 548.55 1428.13 559.21 1417 560.27 1425.42 567.9 1422.95 579.21 1432.54 573.26"/><path class="cls-5" d="M1447.76,927.06l16.81-15.3-22.26-2.06-8.83-21.31-8.77,21.33-22.27,2.12,16.85,15.25-4.94,22.62,19.19-11.9,19.21,11.86Zm-14.23,3.86-10.68,6.64,2.74-12.6-9.38-8.5,12.4-1.18,4.89-11.88,4.91,11.87,12.41,1.15-9.37,8.52,2.78,12.59Z"/><polygon class="cls-5" points="1432.88 856.92 1442.48 862.85 1439.99 851.54 1448.39 843.9 1437.26 842.86 1432.85 832.21 1428.46 842.87 1417.33 843.93 1425.75 851.56 1423.28 862.87 1432.88 856.92"/><polygon class="cls-5" points="1511.28 259.13 1495.62 260.62 1507.47 271.36 1504 287.27 1517.5 278.89 1531.02 287.24 1527.51 271.33 1539.33 260.57 1523.66 259.12 1517.46 244.12 1511.28 259.13"/><path class="cls-5" d="M1433.16,370.68l19.22,11.86-5-22.61,16.81-15.29-22.27-2.07-8.82-21.31-8.78,21.34-22.26,2.12L1418.91,360,1414,382.59Zm-17.32-21.34,12.4-1.18,4.88-11.88,4.92,11.87,12.4,1.15-9.36,8.51,2.78,12.6-10.7-6.61-10.69,6.63,2.75-12.6Z"/><path class="cls-5" d="M1545.47,409.42l-7-31.82,23.66-21.52-31.34-2.91-12.42-30-12.35,30-31.33,3,23.71,21.46-7,31.84,27-16.76Zm-38.22-34.77-13.2-12L1511.5,361l6.87-16.72,6.92,16.7,17.45,1.62-13.17,12,3.91,17.72-15.06-9.3-15,9.34Z"/><polygon class="cls-5" points="1432.66 431.62 1442.27 437.55 1439.78 426.25 1448.18 418.6 1437.05 417.57 1432.64 406.91 1428.25 417.58 1417.12 418.64 1425.54 426.27 1423.07 437.58 1432.66 431.62"/><polygon class="cls-5" points="1511.28 52.88 1495.62 54.37 1507.47 65.11 1504 81.02 1517.5 72.64 1531.02 80.99 1527.51 65.08 1539.33 54.32 1523.66 52.87 1517.46 37.87 1511.28 52.88"/><path class="cls-5" d="M1433.16,224.12,1452.38,236l-5-22.61,16.81-15.29L1441.93,196l-8.82-21.32L1424.33,196l-22.26,2.12,16.84,15.25L1414,236Zm-17.32-21.34,12.4-1.18,4.88-11.88,4.92,11.87,12.4,1.15-9.36,8.52,2.78,12.59-10.7-6.61-10.69,6.63,2.75-12.59Z"/><path class="cls-5" d="M1545.47,203.17l-7-31.82,23.66-21.52-31.34-2.91-12.42-30L1506,147l-31.33,3,23.71,21.46-7,31.84,27-16.76Zm-38.22-34.77-13.2-12,17.45-1.66,6.87-16.72,6.92,16.7,17.45,1.62-13.17,12,3.91,17.72-15.06-9.3-15,9.34Z"/><polygon class="cls-5" points="1432.66 285.06 1442.27 291 1439.78 279.69 1448.18 272.04 1437.05 271.01 1432.64 260.36 1428.25 271.02 1417.12 272.08 1425.54 279.71 1423.07 291.02 1432.66 285.06"/><path class="cls-5" d="M1433.16,77.57l19.22,11.86-5-22.61,16.81-15.3-22.27-2.06-8.82-21.31-8.78,21.33-22.26,2.12,16.84,15.25L1414,89.47Zm-17.32-21.35,12.4-1.18,4.88-11.88L1438,55l12.4,1.15-9.36,8.52,2.78,12.59-10.7-6.61-10.69,6.64,2.75-12.6Z"/><polygon class="cls-5" points="1432.66 138.51 1442.27 144.44 1439.78 133.13 1448.18 125.48 1437.05 124.45 1432.64 113.8 1428.25 124.46 1417.12 125.52 1425.54 133.15 1423.07 144.46 1432.66 138.51"/><path class="cls-5" d="M1600.33,654.15,1619.54,666l-5-22.61,16.81-15.3L1609.1,626l-8.83-21.31-8.77,21.33-22.26,2.12,16.84,15.25-4.93,22.62ZM1583,632.8l12.4-1.18,4.89-11.88,4.92,11.87,12.4,1.15-9.36,8.52,2.77,12.59-10.7-6.61-10.68,6.64,2.75-12.6Z"/><path class="cls-5" d="M1600.5,796l19.21,11.86-5-22.61,16.81-15.3-22.27-2.06-8.82-21.31-8.78,21.33L1569.4,770l16.85,15.25-4.94,22.62Zm-17.33-21.35,12.4-1.18,4.89-11.88,4.91,11.87,12.4,1.15-9.36,8.52,2.78,12.59-10.7-6.61-10.69,6.64,2.75-12.6Z"/><polygon class="cls-5" points="1599.83 715.09 1609.44 721.02 1606.94 709.71 1615.35 702.07 1604.22 701.03 1599.8 690.38 1595.42 701.04 1584.29 702.1 1592.71 709.73 1590.24 721.04 1599.83 715.09"/><path class="cls-5" d="M1600.17,512.32l19.21,11.86-5-22.61,16.81-15.3-22.27-2.06-8.82-21.31-8.78,21.33-22.26,2.12,16.85,15.25L1581,524.22ZM1582.84,491l12.4-1.18,4.89-11.88,4.91,11.87,12.4,1.15-9.36,8.52,2.78,12.59-10.7-6.61-10.69,6.64,2.75-12.6Z"/><polygon class="cls-5" points="1599.67 573.26 1609.27 579.19 1606.78 567.88 1615.18 560.24 1604.05 559.2 1599.64 548.55 1595.25 559.21 1584.12 560.27 1592.54 567.9 1590.07 579.21 1599.67 573.26"/><path class="cls-5" d="M1614.89,927.06l16.81-15.3-22.27-2.06-8.83-21.31-8.77,21.33-22.26,2.12,16.84,15.25-4.93,22.62,19.18-11.9,19.22,11.86Zm-14.24,3.86L1590,937.56l2.75-12.6-9.38-8.5,12.4-1.18,4.88-11.88,4.92,11.87,12.4,1.15-9.36,8.52,2.78,12.59Z"/><polygon class="cls-5" points="1600 856.92 1609.61 862.85 1607.11 851.54 1615.52 843.9 1604.38 842.86 1599.97 832.21 1595.58 842.87 1584.45 843.93 1592.87 851.56 1590.41 862.87 1600 856.92"/><path class="cls-5" d="M1600.29,370.68l19.21,11.86-5-22.61,16.81-15.29-22.27-2.07-8.82-21.31-8.78,21.34-22.26,2.12L1586,360l-4.94,22.62ZM1583,349.34l12.4-1.18,4.89-11.88,4.91,11.87,12.4,1.15-9.36,8.51,2.78,12.6-10.7-6.61-10.69,6.63,2.75-12.6Z"/><polygon class="cls-5" points="1599.79 431.62 1609.39 437.55 1606.9 426.25 1615.31 418.6 1604.17 417.57 1599.76 406.91 1595.37 417.58 1584.24 418.64 1592.66 426.27 1590.2 437.58 1599.79 431.62"/><path class="cls-5" d="M1600.29,224.12,1619.5,236l-5-22.61,16.81-15.29L1609.05,196l-8.82-21.32L1591.45,196l-22.26,2.12L1586,213.41,1581.1,236ZM1583,202.78l12.4-1.18,4.89-11.88,4.91,11.87,12.4,1.15-9.36,8.52,2.78,12.59-10.7-6.61-10.69,6.63,2.75-12.59Z"/><polygon class="cls-5" points="1599.79 285.06 1609.39 291 1606.9 279.69 1615.31 272.04 1604.17 271.01 1599.76 260.36 1595.37 271.02 1584.24 272.08 1592.66 279.71 1590.2 291.02 1599.79 285.06"/><path class="cls-5" d="M1600.29,77.57l19.21,11.86-5-22.61,16.81-15.3-22.27-2.06-8.82-21.31-8.78,21.33-22.26,2.12L1586,66.85l-4.94,22.62ZM1583,56.22l12.4-1.18,4.89-11.88L1605.16,55l12.4,1.15-9.36,8.52L1611,77.29l-10.7-6.61-10.69,6.64,2.75-12.6Z"/><polygon class="cls-5" points="1599.79 138.51 1609.39 144.44 1606.9 133.13 1615.31 125.48 1604.17 124.45 1599.76 113.8 1595.37 124.46 1584.24 125.52 1592.66 133.15 1590.2 144.46 1599.79 138.51"/><path class="cls-5" d="M96.18,5l19.21,11.86-5-22.61,16.81-15.3-22.27-2.06L96.12-44.45,87.34-23.12,65.08-21,81.93-5.75,77,16.87ZM78.85-16.38l12.4-1.18,4.89-11.88,4.91,11.87,12.4,1.15L104.09-7.9l2.78,12.59L96.17-1.92,85.48,4.72l2.75-12.6Z"/><path class="cls-5" d="M263.3,5l19.21,11.86-5-22.61,16.81-15.3-22.26-2.06-8.83-21.31-8.77,21.33L232.2-21,249.05-5.75l-4.94,22.62ZM246-16.38l12.4-1.18,4.89-11.88,4.91,11.87,12.41,1.15L271.21-7.9,274,4.69l-10.7-6.61L252.61,4.72l2.74-12.6Z"/><path class="cls-5" d="M430.42,5l19.22,11.86-5-22.61,16.81-15.3-22.27-2.06-8.83-21.31-8.77,21.33L399.33-21,416.17-5.75l-4.93,22.62ZM413.1-16.38l12.4-1.18,4.88-11.88,4.92,11.87,12.4,1.15L438.34-7.9l2.78,12.59L430.41-1.92,419.73,4.72l2.75-12.6Z"/><path class="cls-5" d="M-1.94,1.74,17.27,13.6,12.29-9,29.09-24.3,6.83-26.36-2-47.68l-8.77,21.34L-33-24.22-16.19-9l-4.94,22.62ZM-19.27-19.6l12.4-1.18L-2-32.66,2.94-20.79l12.4,1.15L6-11.12,8.75,1.47-1.95-5.14-12.63,1.49-9.89-11.1Z"/><path class="cls-5" d="M597.55,5l19.21,11.86-5-22.61,16.81-15.3-22.27-2.06-8.82-21.31-8.78,21.33L566.45-21,583.3-5.75l-4.94,22.62ZM580.22-16.38l12.4-1.18,4.89-11.88,4.91,11.87,12.4,1.15L605.46-7.9l2.78,12.59-10.7-6.61L586.85,4.72l2.75-12.6Z"/><path class="cls-5" d="M764.67,5l19.21,11.86-5-22.61,16.81-15.3-22.26-2.06-8.83-21.31-8.77,21.33L733.57-21,750.42-5.75l-4.94,22.62ZM747.34-16.38l12.4-1.18,4.89-11.88,4.91,11.87L782-16.42,772.58-7.9l2.78,12.59-10.7-6.61L754,4.72l2.74-12.6Z"/><path class="cls-5" d="M931.79,5,951,16.83,946-5.78l16.81-15.3-22.27-2.06-8.82-21.31L923-23.12,900.7-21,917.54-5.75l-4.93,22.62ZM914.47-16.38l12.4-1.18,4.88-11.88,4.92,11.87,12.4,1.15L939.71-7.9l2.78,12.59-10.7-6.61L921.1,4.72l2.75-12.6Z"/><path class="cls-5" d="M1098.92,5l19.21,11.86-5-22.61L1130-21.08l-22.27-2.06-8.82-21.31-8.78,21.33L1067.82-21l16.85,15.25-4.94,22.62Zm-17.33-21.35,12.4-1.18,4.89-11.88,4.91,11.87,12.4,1.15-9.36,8.52,2.78,12.59-10.7-6.61-10.69,6.64L1091-7.88Z"/><path class="cls-5" d="M1266,5l19.21,11.86-5-22.61,16.8-15.3-22.26-2.06L1266-44.45l-8.77,21.33L1234.94-21l16.85,15.25-4.94,22.62Zm-17.33-21.35,12.4-1.18L1266-29.44l4.92,11.87,12.4,1.15L1274-7.9l2.78,12.59L1266-1.92l-10.68,6.64,2.74-12.6Z"/><path class="cls-5" d="M1433.16,5l19.22,11.86-5-22.61,16.81-15.3-22.27-2.06-8.82-21.31-8.78,21.33L1402.07-21l16.84,15.25L1414,16.87Zm-17.32-21.35,12.4-1.18,4.88-11.88L1438-17.57l12.4,1.15-9.36,8.52,2.78,12.59-10.7-6.61-10.69,6.64,2.75-12.6Z"/><path class="cls-5" d="M1600.29,5l19.21,11.86-5-22.61,16.81-15.3-22.27-2.06-8.82-21.31-8.78,21.33L1569.19-21,1586-5.75l-4.94,22.62ZM1583-16.38l12.4-1.18,4.89-11.88,4.91,11.87,12.4,1.15L1608.2-7.9,1611,4.69l-10.7-6.61-10.69,6.64,2.75-12.6Z"/></g></g></svg>